<svg width="1853" height="377" xmlns="http://www.w3.org/2000/svg" xmlns:xlink="http://www.w3.org/1999/xlink" overflow="hidden"><defs><clipPath id="clip0"><rect x="347" y="1150" width="1853" height="377"/></clipPath></defs><g clip-path="url(#clip0)" transform="translate(-347 -1150)"><rect x="347" y="1150" width="430" height="377" fill="#F8CCB9"/><rect x="389" y="1359" width="343" height="128" fill="#D74514"/><text fill="#FFFFFF" font-family="Microsoft YaHei,Microsoft YaHei_MSFontService,sans-serif" font-weight="400" font-size="64" transform="matrix(1 0 0 1 496.46 1447)">账本</text><rect x="389" y="1197" width="342" height="129" fill="#D74514"/><text fill="#FFFFFF" font-family="Microsoft YaHei,Microsoft YaHei_MSFontService,sans-serif" font-weight="400" font-size="64" transform="matrix(1 0 0 1 463.863 1285)">哈希值</text><rect x="902" y="1150" width="430" height="377" fill="#F8CCB9"/><rect x="944" y="1359" width="344" height="128" fill="#D74514"/><text fill="#FFFFFF" font-family="Microsoft YaHei,Microsoft YaHei_MSFontService,sans-serif" font-weight="400" font-size="64" transform="matrix(1 0 0 1 1051.78 1447)">账本</text><rect x="945" y="1197" width="341" height="129" fill="#D74514"/><text fill="#FFFFFF" font-family="Microsoft YaHei,Microsoft YaHei_MSFontService,sans-serif" font-weight="400" font-size="64" transform="matrix(1 0 0 1 1019.19 1285)">哈希值</text><rect x="1457" y="1150" width="431" height="377" fill="#F8CCB9"/><rect x="1500" y="1359" width="343" height="128" fill="#D74514"/><text fill="#FFFFFF" font-family="Microsoft YaHei,Microsoft YaHei_MSFontService,sans-serif" font-weight="400" font-size="64" transform="matrix(1 0 0 1 1607.1 1447)">账本</text><rect x="1500" y="1197" width="342" height="129" fill="#D74514"/><text fill="#FFFFFF" font-family="Microsoft YaHei,Microsoft YaHei_MSFontService,sans-serif" font-weight="400" font-size="64" transform="matrix(1 0 0 1 1574.51 1285)">哈希值</text><path d="M2139.22 1238.06C2140.62 1238.06 2141.8 1238.55 2142.74 1239.54 2143.69 1240.52 2144.16 1241.77 2144.16 1243.29 2144.16 1244.8 2143.69 1246.05 2142.74 1247.03 2141.8 1248.02 2140.62 1248.51 2139.22 1248.51 2137.81 1248.51 2136.64 1248.02 2135.69 1247.03 2134.75 1246.05 2134.27 1244.8 2134.27 1243.29 2134.27 1241.77 2134.75 1240.52 2135.69 1239.54 2136.64 1238.55 2137.81 1238.06 2139.22 1238.06ZM2114.66 1238.06C2116.06 1238.06 2117.24 1238.55 2118.18 1239.54 2119.13 1240.52 2119.6 1241.77 2119.6 1243.29 2119.6 1244.8 2119.13 1246.05 2118.18 1247.03 2117.24 1248.02 2116.06 1248.51 2114.66 1248.51 2113.25 1248.51 2112.08 1248.02 2111.13 1247.03 2110.19 1246.05 2109.71 1244.8 2109.71 1243.29 2109.71 1241.77 2110.19 1240.52 2111.13 1239.54 2112.08 1238.55 2113.25 1238.06 2114.66 1238.06ZM2090.1 1238.06C2091.5 1238.06 2092.68 1238.55 2093.62 1239.54 2094.57 1240.52 2095.04 1241.77 2095.04 1243.29 2095.04 1244.8 2094.57 1246.05 2093.62 1247.03 2092.68 1248.02 2091.5 1248.51 2090.1 1248.51 2088.69 1248.51 2087.52 1248.02 2086.57 1247.03 2085.63 1246.05 2085.15 1244.8 2085.15 1243.29 2085.15 1241.77 2085.63 1240.52 2086.57 1239.54 2087.52 1238.55 2088.69 1238.06 2090.1 1238.06Z" fill="#D74514" fill-rule="evenodd"/><text fill="#000000" fill-opacity="0" font-family="Arial,Arial_MSFontService,sans-serif" font-size="10.4561" x="2085.15" y="1247.21">⋯</text><path d="M0-4.58333 88.3255-4.58333 88.3255 76.3951 83.7422 71.8118 126.234 71.8118 126.234 80.9785 79.1589 80.9785 79.1589 0 83.7422 4.58333 0 4.58333ZM121.651 53.4785 167.484 76.3951 121.651 99.3118Z" transform="matrix(1 0 0 -1 777.5 1338.9)"/><path d="M0-4.58333 88.3255-4.58333 88.3255 76.3951 83.7422 71.8118 126.234 71.8118 126.234 80.9785 79.1589 80.9785 79.1589 0 83.7422 4.58333 0 4.58333ZM121.651 53.4785 167.484 76.3951 121.651 99.3118Z" transform="matrix(1 0 0 -1 1332.5 1338.9)"/><path d="M0-4.58333 87.3789-4.58333 87.3789 100.85 82.7956 96.2662 124.341 96.2662 124.341 105.433 78.2122 105.433 78.2122 0 82.7956 4.58333 0 4.58333ZM119.758 77.9329 165.591 100.85 119.758 123.766Z" transform="matrix(1 0 0 -1 1888.5 1339.35)"/></g></svg>