<svg xmlns="http://www.w3.org/2000/svg" width="2143" height="1277" overflow="hidden"><defs><clipPath id="a"><path d="M89 40h2143v1277H89z"/></clipPath></defs><g clip-path="url(#a)" transform="translate(-89 -40)"><path fill="#fdefe8" fill-rule="evenodd" d="M91.667 382.708h497.291v199.375H91.667Zm0 467.042h497.291v318.08H91.667Z"/><path fill="none" stroke="#000" stroke-linejoin="round" stroke-miterlimit="10" stroke-width="4.583" d="M89.375 382.708H591.25M89.375 582.083H591.25M89.375 715.917H591.25M89.375 849.75H591.25M89.375 1167.83H591.25M91.667 41.25v1260.42M588.958 41.25v1260.42"/><text font-family="Microsoft YaHei,Microsoft YaHei_MSFontService,sans-serif" font-size="55" font-weight="400" transform="translate(285.312 502)">参数<tspan x="-55" y="167">返回地址</tspan><tspan x="-110" y="301">上一个帧指针</tspan><tspan x="-111.375" y="456" font-family="Courier New,Courier New_MSFontService,sans-serif">buffer[99]</tspan></text><text font-family="Cambria Math,Cambria Math_MSFontService,sans-serif" font-size="55" font-weight="400" transform="translate(331.49 1025)">⋮</text><text font-family="Courier New,Courier New_MSFontService,sans-serif" font-size="55" font-weight="400" transform="translate(190.552 1090)">buffer[0]</text><path fill="#f8ccb9" fill-rule="evenodd" d="M827.292 169.583h380.418v171.875H827.292Zm0 414.792h380.418v132.917H827.292Z"/><path fill="none" stroke="#000" stroke-linejoin="round" stroke-miterlimit="10" stroke-width="4.583" d="M825 341.458h385M825 584.375h385M825 717.292h385m-382.708-550V1174.31M1207.71 167.292V1174.31M825 169.583h385M825 1172.02h385"/><text fill="#d74514" font-family="Microsoft YaHei,Microsoft YaHei_MSFontService,sans-serif" font-size="55" font-weight="700" transform="translate(907.5 276)">恶意代码<tspan x="-27.5" y="395">新返回地址</tspan></text><path fill="#f8ccb9" fill-rule="evenodd" d="M1471.25 167.635h497.29V339.51h-497.29Zm0 414.791h497.29v132.917h-497.29Z"/><path fill="none" stroke="#000" stroke-linejoin="round" stroke-miterlimit="10" stroke-width="4.583" d="M1468.96 167.635h501.87M1468.96 339.51h501.87m-501.87 242.916h501.87m-501.87 132.917h501.87m-501.87 133.819h501.87m-501.87 318.308h501.87M1471.25 40.312V1301.29M1968.54 40.312V1301.29"/><text fill="#d74514" font-family="Microsoft YaHei,Microsoft YaHei_MSFontService,sans-serif" font-size="55" font-weight="700" transform="translate(1609.9 274)">恶意代码<tspan x="9.167" y="207" font-weight="400">(</tspan><tspan x="27.5" y="207" font-weight="400">被覆盖</tspan><tspan x="192.5" y="207" font-weight="400">)</tspan><tspan x="-27.5" y="395">新返回地址</tspan><tspan x="9.167" y="528" font-weight="400">(</tspan><tspan x="27.5" y="528" font-weight="400">被覆盖</tspan><tspan x="192.5" y="528" font-weight="400">)</tspan><tspan x="9.167" y="754" font-weight="400">(</tspan><tspan x="27.5" y="754" font-weight="400">被覆盖</tspan><tspan x="192.5" y="754" font-weight="400">)</tspan></text><path fill="#d74514" fill-rule="evenodd" d="M635 651.75h54.75V597h36.5v54.75H781v37.5h-54.75V744h-36.5v-54.75H635Zm619-8.812h76.83V597l94.17 73.5-94.17 73.5v-45.937H1254Z"/><text fill="#5d1709" font-family="Microsoft YaHei,Microsoft YaHei_MSFontService,sans-serif" font-size="73" font-weight="400" transform="translate(873.067 1255)">(<tspan x="24.635" y="0">badfile</tspan><tspan x="264.229" y="0">)</tspan><tspan x="1101.1" y="-375">←</tspan><tspan x="1174.43" y="-375">ebp</tspan></text><path fill="#d74514" d="m1962.66 647.996 17.25-26.438-.03.042 16.69-26.188-.03.053 8-12.938-.04.061 7.69-12.875-.04.067 7.25-12.625-.05.096 6.75-12.437-.06.103 6.25-12.25-.06.138 5.62-12-.06.142 5-11.687-.09.206 4.25-11.437-.08.236 3.44-11.062-.08.291 2.56-10.687-.07.355 1.63-10.313-.05.426.63-9.938-.01.5-.44-9.437.05.475-1.37-9.062.11.521-2.38-8.688.14.433-3.18-8.313.18.422-4-7.938.21.37-4.81-7.688.18.268-5.38-7.375.22.27-6.07-7.125.17.18-6.57-6.938.15.15-7-6.75.15.137-7.44-6.562.19.16-8-6.324 5.68-7.194 8.1 6.402 7.61 6.712 7.15 6.893 6.72 7.102 6.25 7.348 5.57 7.645 5.01 8.005 4.2 8.333 3.35 8.74 2.51 9.165 1.45 9.563.46 9.926-.65 10.401-1.69 10.704-2.64 11.01-3.52 11.326-4.33 11.659-5.08 11.862-5.69 12.14-6.31 12.37-6.8 12.537-7.3 12.707-7.73 12.939-8.03 12.994-16.72 26.235-17.26 26.458Zm30.01-261.541L1970 340.5l50.37 9.436Z"/></g></svg>