<svg xmlns="http://www.w3.org/2000/svg" width="1533" height="304" overflow="hidden"><defs><clipPath id="a"><path d="M1601 74h1533v304H1601z"/></clipPath></defs><g clip-path="url(#a)" transform="translate(-1601 -74)"><path fill="none" stroke="#d74514" stroke-miterlimit="8" stroke-width="6.875" d="M1707.5 108.5h64.96m-3.96-5v64.961m-5-3.961 64.96.001m-3.96-61.001v64.961m-3-59.961h64.96m-4.96-5v64.961m-4-3.961 64.96.001M1760.5 290.5h64.96m-4.96-4v64.96m-4-4.96h64.96m-4.96-60v64.96m-3-60.96h64.96m-234.96 56h64.96m-4.96-60v64.96m294-216.96c0-17.121 13.66-31 30.5-31s30.5 13.879 30.5 31-13.66 31-30.5 31-30.5-13.879-30.5-31Zm52.35-22-43.347 43.347m43.347 0L2066.5 112.5m227 112.5c0-16.845 13.88-30.5 31-30.5s31 13.655 31 30.5-13.88 30.5-31 30.5-31-13.655-31-30.5Zm61.3-.5h-61.302m31.002 31.302V194.5"/><path fill="none" stroke="#000" stroke-miterlimit="8" stroke-width="6.875" d="M2502.24 175.21c27.55 19.066 34.55 57.039 15.64 84.813a60.6 60.6 0 0 1-19.25 18.079"/><path fill-rule="evenodd" stroke="#000" stroke-miterlimit="8" stroke-width="6.875" d="M2440.5 225.5c0-17.121 13.88-31 31-31s31 13.879 31 31-13.88 31-31 31-31-13.879-31-31Z"/><path d="m1942.5 131.062 74.1.001v6.875l-74.1-.001Zm69.52-19.479 45.83 22.917-45.83 22.917Zm106.48 19.479h91.08v93.828l-3.44-3.437h64.72v6.875h-68.16V134.5l3.44 3.437h-87.64Zm147.78 80.078 27.5 13.75-27.5 13.75Z"/><path fill="none" stroke="#d74514" stroke-miterlimit="8" stroke-width="6.875" d="M2058.5 318c0-16.845 13.88-30.5 31-30.5s31 13.655 31 30.5-13.88 30.5-31 30.5-31-13.655-31-30.5Zm52.35-21.5-43.347 43.347m43.347 0L2067.5 296.5"/><path d="M1938.5 315.063h74.1v6.875h-74.1Zm69.52-19.479 45.83 22.917-45.83 22.916Zm112.48 25.674h90.267V224.5l-3.437 3.438h63.913v-6.875h-67.35v96.757l3.437-3.437h-86.83Zm146.16-83.008 27.5-13.75-27.5-13.75Z"/><path fill="none" stroke="#000" stroke-miterlimit="8" stroke-width="6.875" d="m2355.5 224.5 85.5.495"/><path fill="none" stroke="#d74514" stroke-miterlimit="8" stroke-width="6.875" d="M2650.5 132c0-16.845 13.66-30.5 30.5-30.5s30.5 13.655 30.5 30.5-13.66 30.5-30.5 30.5-30.5-13.655-30.5-30.5Zm52.35-21.5-43.347 43.347m43.347 0L2659.5 110.5m-8 205.5c0-16.845 13.88-30.5 31-30.5s31 13.655 31 30.5-13.88 30.5-31 30.5-31-13.655-31-30.5Zm52.35-21.5-43.347 43.347m43.347 0L2660.5 294.5m169-190h64.96m-4.96-4v64.961m-4-4.961h64.96m-4.96-60v64.961m-3-60.961h64.96m-3.96-4v64.961m-5-4.961h64.96m-181.96 126h64.96m-3.96-4v64.961m-5-4.961h64.96m-3.96-60v64.961m-4-60.961h64.96m-234.96 56h64.96m-3.96-60v64.961"/><path d="m2713.5 131.062 74.1.001v6.875l-74.1-.001Zm69.52-19.479 45.83 22.917-45.83 22.917Zm-69.52 201.48h74.1v6.875h-74.1Zm69.52-19.479 45.83 22.916-45.83 22.917ZM2531.5 228.84h62.966V132.5l-3.437 3.437h36.612v-6.875h-40.05v96.34l3.438-3.437H2531.5Zm91.558-82.59 27.5-13.75-27.5-13.75Z"/><path d="M2531.5 221.062h63.78v94.246l-3.44-3.437h37.42v6.875h-40.86V224.5l3.44 3.437h-60.34Zm93.18 80.496 27.5 13.75-27.5 13.75Z"/><path fill="#5d1709" fill-rule="evenodd" d="M2148.37 159.226c-1.23 0-2.27.367-3.1 1.101q-1.245 1.1-2.01 3.169c-.51 1.378-.88 3.057-1.09 5.035s-.32 4.212-.32 6.701q0 8.755 1.62 12.85c1.09 2.73 2.76 4.096 5.04 4.096 2.16 0 3.77-1.285 4.82-3.854s1.57-6.549 1.57-11.938q0-6.176-.81-10.003c-.53-2.551-1.28-4.382-2.24-5.492q-1.44-1.665-3.48-1.665m.14-2.283c3.92 0 6.84 1.513 8.75 4.539q2.88 4.538 2.88 13.723c0 6.338-1.03 11.131-3.08 14.381s-5.04 4.874-8.98 4.874q-5.805 0-8.64-4.565c-1.88-3.044-2.83-7.663-2.83-13.858q0-4.941.87-8.54c.59-2.399 1.4-4.382 2.45-5.948 1.04-1.567 2.3-2.726 3.77-3.478s3.07-1.128 4.81-1.128"/><text x="2136.61" y="189.771" fill-opacity="0" font-family="Arial,Arial_MSFontService,sans-serif" font-size="37.517">0</text><path fill="#5d1709" fill-rule="evenodd" d="M2173.77 159.602c-1 0-1.9.228-2.69.685a4.74 4.74 0 0 0-1.82 1.893c-.43.806-.65 1.728-.65 2.766q0 1.557.63 2.78c.43.814 1.03 1.45 1.83 1.906q1.2.685 2.7.685 1.53 0 2.73-.685a4.7 4.7 0 0 0 1.84-1.906c.43-.815.64-1.742.64-2.78s-.21-1.96-.64-2.766a4.7 4.7 0 0 0-1.84-1.893q-1.2-.685-2.73-.685m.11-2.659c1.54 0 2.91.34 4.12 1.021a7.17 7.17 0 0 1 2.82 2.846c.67 1.218 1.01 2.596 1.01 4.136 0 1.522-.36 2.896-1.06 4.122a7.63 7.63 0 0 1-2.94 2.887c-1.26.699-2.66 1.048-4.22 1.048s-2.93-.349-4.12-1.048a7.2 7.2 0 0 1-2.76-2.887q-.96-1.839-.96-4.149c0-1.522.34-2.896 1.03-4.122a7.17 7.17 0 0 1 2.89-2.847c1.23-.671 2.63-1.007 4.19-1.007"/><text x="2165.77" y="170.995" fill-opacity="0" font-family="Arial,Arial_MSFontService,sans-serif" font-size="16.06">°</text><path fill="#5d1709" fill-rule="evenodd" d="M2166.19 262.54c-1.24 0-2.27.367-3.1 1.101-.84.734-1.51 1.791-2.02 3.169s-.87 3.057-1.09 5.036c-.21 1.978-.32 4.212-.32 6.7 0 5.837.54 10.12 1.63 12.851 1.08 2.73 2.76 4.095 5.03 4.095 2.17 0 3.78-1.285 4.82-3.854 1.05-2.569 1.57-6.548 1.57-11.937 0-4.118-.26-7.452-.8-10.004s-1.29-4.382-2.24-5.492q-1.44-1.665-3.48-1.665m-30.14 0c-1.34 0-2.48.233-3.41.699a6.14 6.14 0 0 0-2.27 1.92c-.58.814-1 1.772-1.27 2.873s-.4 2.296-.4 3.585c0 2.668.54 4.736 1.63 6.204q1.65 2.202 4.62 2.202 1.02 0 1.95-.174c.62-.117 1.22-.287 1.81-.511.59-.223 1.17-.51 1.73-.859.57-.349 1.07-.721 1.52-1.114.16-.144.31-.332.43-.564q.195-.35.3-.914c.07-.375.1-.966.1-1.772 0-2.453-.24-4.552-.73-6.298-.5-1.745-1.25-3.061-2.26-3.947q-1.515-1.33-3.75-1.33m30.27-2.282q5.88 0 8.76 4.538c1.91 3.026 2.87 7.6 2.87 13.723 0 6.338-1.02 11.132-3.07 14.381s-5.05 4.875-8.99 4.875c-3.86 0-6.74-1.522-8.63-4.566s-2.83-7.662-2.83-13.857q0-4.941.87-8.54c.58-2.399 1.39-4.382 2.44-5.949q1.575-2.35 3.78-3.477c1.46-.752 3.07-1.128 4.8-1.128m-29.97 0c3.76 0 6.62 1.298 8.59 3.894s2.96 6.329 2.96 11.198c0 4.458-.73 8.321-2.18 11.589q-2.175 4.9-6.09 7.626c-2.62 1.818-5.67 2.887-9.16 3.21l-1.1-1.477v-1.316q3.75 0 6.51-1.665c1.83-1.11 3.31-2.753 4.43-4.928 1.12-2.176 1.87-5.027 2.24-8.554l-.27-.107q-2.25 1.611-4.44 2.363t-4.74.752c-2.02 0-3.75-.443-5.17-1.329q-2.13-1.33-3.21-3.733c-.72-1.603-1.07-3.478-1.07-5.626 0-1.612.27-3.138.8-4.579a10.85 10.85 0 0 1 2.39-3.787q1.59-1.624 3.96-2.578 2.385-.954 5.55-.953"/><text x="2123.65" y="293.085" fill-opacity="0" font-family="Arial,Arial_MSFontService,sans-serif" font-size="37.517">90</text><path fill="#5d1709" fill-rule="evenodd" d="M2191.95 262.916c-1 0-1.9.229-2.69.685a4.75 4.75 0 0 0-1.82 1.893c-.43.806-.65 1.728-.65 2.767q0 1.557.63 2.779t1.83 1.907 2.7.685q1.53 0 2.73-.685a4.7 4.7 0 0 0 1.83-1.907c.43-.815.65-1.741.65-2.779 0-1.039-.22-1.961-.65-2.767a4.7 4.7 0 0 0-1.83-1.893q-1.2-.684-2.73-.685m.11-2.658c1.54 0 2.91.34 4.12 1.02a7.17 7.17 0 0 1 2.82 2.847c.67 1.217 1.01 2.596 1.01 4.136 0 1.521-.36 2.895-1.06 4.122a7.6 7.6 0 0 1-2.95 2.887c-1.25.698-2.65 1.047-4.21 1.047s-2.93-.349-4.12-1.047a7.2 7.2 0 0 1-2.76-2.887q-.96-1.84-.96-4.149c0-1.522.34-2.896 1.03-4.123a7.17 7.17 0 0 1 2.89-2.846c1.23-.672 2.63-1.007 4.19-1.007"/><text x="2183.95" y="274.31" fill-opacity="0" font-family="Arial,Arial_MSFontService,sans-serif" font-size="16.06">°</text><path fill="#5d1709" fill-rule="evenodd" d="M2626.19 156.792c-1.23 0-2.26.367-3.1 1.101q-1.245 1.1-2.01 3.169c-.51 1.378-.87 3.057-1.09 5.035-.21 1.978-.32 4.212-.32 6.7q0 8.756 1.62 12.851c1.09 2.73 2.76 4.095 5.04 4.095 2.16 0 3.77-1.284 4.82-3.853s1.57-6.549 1.57-11.938q0-6.177-.81-10.003c-.53-2.552-1.28-4.382-2.24-5.492q-1.44-1.665-3.48-1.665m.14-2.283c3.92 0 6.84 1.513 8.75 4.538q2.88 4.54 2.88 13.724c0 6.338-1.03 11.131-3.08 14.381s-5.04 4.874-8.98 4.874q-5.805 0-8.64-4.565c-1.88-3.044-2.83-7.663-2.83-13.858q0-4.941.87-8.54c.59-2.399 1.4-4.382 2.45-5.948s2.3-2.726 3.77-3.478 3.07-1.128 4.81-1.128"/><text x="2614.43" y="187.336" fill-opacity="0" font-family="Arial,Arial_MSFontService,sans-serif" font-size="37.517">0</text><path fill="#5d1709" fill-rule="evenodd" d="M2651.59 157.168c-1 0-1.9.228-2.68.684a4.7 4.7 0 0 0-1.83 1.894c-.43.805-.65 1.727-.65 2.766s.21 1.965.64 2.779a4.53 4.53 0 0 0 1.82 1.907q1.2.685 2.7.685 1.53 0 2.73-.685a4.7 4.7 0 0 0 1.84-1.907c.43-.814.64-1.741.64-2.779 0-1.039-.21-1.961-.64-2.766a4.73 4.73 0 0 0-1.84-1.894q-1.2-.684-2.73-.684m.11-2.659c1.54 0 2.91.34 4.12 1.02a7.2 7.2 0 0 1 2.82 2.847c.67 1.218 1.01 2.596 1.01 4.136 0 1.522-.36 2.896-1.06 4.122a7.63 7.63 0 0 1-2.94 2.887c-1.26.698-2.66 1.047-4.22 1.047s-2.93-.349-4.12-1.047a7.2 7.2 0 0 1-2.76-2.887q-.96-1.839-.96-4.149c0-1.522.34-2.896 1.03-4.122a7.16 7.16 0 0 1 2.89-2.847c1.23-.671 2.63-1.007 4.19-1.007"/><text x="2643.59" y="168.561" fill-opacity="0" font-family="Arial,Arial_MSFontService,sans-serif" font-size="16.06">°</text><path fill="#5d1709" fill-rule="evenodd" d="M2644.01 260.106c-1.24 0-2.27.367-3.1 1.101-.84.734-1.51 1.791-2.02 3.169q-.765 2.068-1.08 5.035-.33 2.968-.33 6.701c0 5.837.54 10.12 1.63 12.85 1.08 2.731 2.76 4.096 5.03 4.096 2.17 0 3.78-1.285 4.82-3.854 1.05-2.569 1.57-6.548 1.57-11.937 0-4.118-.26-7.453-.8-10.004s-1.29-4.382-2.24-5.492q-1.44-1.665-3.48-1.665m-30.14 0c-1.34 0-2.47.233-3.41.698a6.16 6.16 0 0 0-2.27 1.92c-.58.815-1 1.773-1.27 2.874s-.4 2.296-.4 3.585c0 2.668.54 4.736 1.63 6.204q1.65 2.202 4.62 2.202 1.02 0 1.95-.175a10.4 10.4 0 0 0 3.55-1.369c.56-.349 1.07-.721 1.51-1.115.16-.143.31-.331.43-.564q.195-.349.3-.913c.07-.376.11-.967.11-1.772 0-2.453-.25-4.552-.74-6.298-.5-1.745-1.25-3.061-2.26-3.948q-1.515-1.329-3.75-1.329m30.27-2.283q5.88 0 8.76 4.539c1.91 3.026 2.87 7.6 2.87 13.723 0 6.338-1.02 11.132-3.07 14.381s-5.05 4.874-8.99 4.874c-3.86 0-6.74-1.521-8.63-4.565s-2.83-7.663-2.83-13.857q0-4.942.87-8.54c.58-2.4 1.4-4.382 2.44-5.949q1.575-2.35 3.78-3.478c1.46-.752 3.07-1.128 4.8-1.128m-29.97 0c3.76 0 6.62 1.298 8.59 3.894s2.96 6.329 2.96 11.199c0 4.458-.73 8.321-2.18 11.588q-2.175 4.902-6.09 7.627c-2.62 1.817-5.67 2.887-9.16 3.209l-1.1-1.477v-1.316q3.75 0 6.51-1.665c1.84-1.11 3.31-2.752 4.43-4.928 1.12-2.175 1.87-5.026 2.24-8.553l-.26-.107c-1.51 1.074-2.99 1.862-4.45 2.363q-2.19.752-4.74.752c-2.02 0-3.75-.443-5.17-1.33q-2.13-1.329-3.21-3.732c-.71-1.603-1.07-3.478-1.07-5.627 0-1.611.27-3.137.8-4.579a10.85 10.85 0 0 1 2.39-3.786q1.59-1.625 3.96-2.578 2.385-.954 5.55-.954"/><text x="2601.47" y="290.651" fill-opacity="0" font-family="Arial,Arial_MSFontService,sans-serif" font-size="37.517">90</text><path fill="#5d1709" fill-rule="evenodd" d="M2669.77 260.482c-1 0-1.9.228-2.69.685a4.74 4.74 0 0 0-1.82 1.893c-.43.806-.65 1.728-.65 2.766q0 1.558.63 2.78c.43.814 1.03 1.45 1.83 1.907q1.2.684 2.7.684 1.53 0 2.73-.684a4.7 4.7 0 0 0 1.84-1.907c.43-.815.64-1.741.64-2.78s-.21-1.96-.64-2.766a4.73 4.73 0 0 0-1.84-1.893q-1.2-.685-2.73-.685m.11-2.659c1.54 0 2.91.341 4.12 1.021a7.17 7.17 0 0 1 2.82 2.847c.67 1.217 1.01 2.596 1.01 4.135 0 1.522-.36 2.896-1.06 4.123a7.64 7.64 0 0 1-2.94 2.887c-1.26.698-2.66 1.047-4.22 1.047s-2.93-.349-4.12-1.047a7.2 7.2 0 0 1-2.76-2.887q-.96-1.84-.96-4.15c0-1.521.34-2.895 1.03-4.122a7.17 7.17 0 0 1 2.89-2.847c1.23-.671 2.63-1.007 4.19-1.007"/><text x="2661.77" y="271.875" fill-opacity="0" font-family="Arial,Arial_MSFontService,sans-serif" font-size="16.06">°</text><path fill-rule="evenodd" d="M3086.82 107.389h10.74l-.29 1.316c-.68.143-1.17.305-1.46.484-.3.179-.56.447-.8.805q-.345.537-.72 1.679c-.25.761-.57 2-.94 3.719l-4.59 20.84c-.24 1.056-.39 1.893-.46 2.511s-.11 1.177-.11 1.678c0 .806.2 1.375.61 1.706.4.331 1.07.532 2.02.604l-.29 1.316h-10.74l.29-1.316q1.02-.16 1.53-.524c.34-.241.63-.577.86-1.007s.45-.953.65-1.571c.19-.617.49-1.813.88-3.585l4.57-20.679c.39-1.79.59-3.231.59-4.323q0-1.263-.63-1.759c-.42-.332-1.09-.524-2-.578Z"/><text x="3079.79" y="139.465" fill-opacity="0" font-family="Arial,Arial_MSFontService,sans-serif" font-size="36.658">𝐼</text><path fill-rule="evenodd" d="M3084.26 299.61c-1.94 0-3.74.69-5.42 2.068-1.67 1.379-3.14 3.348-4.4 5.908q-1.89 3.841-2.94 8.433-1.05 4.593-1.05 8.11c0 5.533 2.02 8.299 6.04 8.299 2.49 0 4.78-1.16 6.85-3.478 2.08-2.319 3.75-5.528 5.02-9.628 1.28-4.1 1.91-7.931 1.91-11.494 0-2.668-.49-4.704-1.48-6.109q-1.47-2.109-4.53-2.109m.29-2.363c3.46 0 6.12 1.003 7.99 3.008s2.81 4.905 2.81 8.701c0 2.507-.4 5.308-1.18 8.406-.79 3.097-1.88 5.832-3.25 8.204q-2.07 3.559-4.8 5.734c-1.81 1.45-3.79 2.453-5.92 3.008.41 1.307.8 2.385 1.16 3.236.35.85.7 1.539 1.03 2.068.33.528.66.922.98 1.181.32.26.64.434.97.524.32.089.69.134 1.12.134.69 0 1.37-.197 2.07-.591q1.05-.59 2.34-2.041l1.4 1.504c-1.44 1.558-2.77 2.659-4.01 3.303q-1.845.967-3.81.967c-1.49 0-2.7-.331-3.64-.993-.94-.663-1.75-1.719-2.44-3.169-.69-1.451-1.36-3.348-2-5.694-3.24-.179-5.71-1.253-7.42-3.222q-2.55-2.955-2.55-8.326c0-2.685.46-5.72 1.36-9.104s2.21-6.369 3.92-8.956q2.565-3.88 6.12-5.881c2.38-1.334 4.96-2.001 7.75-2.001"/><text x="3065.4" y="338.675" fill-opacity="0" font-family="Arial,Arial_MSFontService,sans-serif" font-size="47.346">𝑄</text><path fill-rule="evenodd" d="M1659.95 121.139h10.74l-.3 1.316c-.68.143-1.17.305-1.46.484-.3.179-.56.447-.79.805-.24.358-.48.918-.73 1.679s-.56 2-.94 3.719l-4.59 20.84c-.23 1.056-.39 1.893-.46 2.511s-.11 1.177-.11 1.678c0 .806.21 1.375.61 1.706s1.08.532 2.03.604l-.3 1.316h-10.74l.29-1.316c.68-.107 1.19-.282 1.54-.524.34-.241.62-.577.85-1.007.24-.429.45-.953.65-1.571.2-.617.49-1.813.89-3.585l4.56-20.679c.39-1.79.59-3.231.59-4.323q0-1.263-.63-1.759c-.42-.332-1.09-.524-2-.578Z"/><text x="1652.91" y="153.215" fill-opacity="0" font-family="Arial,Arial_MSFontService,sans-serif" font-size="36.658">𝐼</text><path fill-rule="evenodd" d="M1657.38 313.36c-1.93 0-3.74.69-5.41 2.068-1.68 1.379-3.14 3.348-4.41 5.908q-1.89 3.841-2.94 8.433c-.7 3.062-1.04 5.765-1.04 8.11 0 5.533 2.01 8.299 6.04 8.299 2.49 0 4.77-1.16 6.85-3.478 2.07-2.319 3.75-5.528 5.02-9.628s1.9-7.931 1.9-11.494q0-4.002-1.47-6.109c-.99-1.406-2.5-2.109-4.54-2.109m.29-2.363c3.46 0 6.12 1.003 7.99 3.008 1.88 2.005 2.81 4.905 2.81 8.701 0 2.507-.39 5.308-1.18 8.406-.79 3.097-1.87 5.832-3.25 8.204s-2.98 4.284-4.79 5.734c-1.82 1.45-3.8 2.453-5.93 3.008.42 1.307.8 2.385 1.16 3.236.36.85.7 1.539 1.03 2.068.33.528.66.922.98 1.181.33.26.65.434.97.524.32.089.7.134 1.13.134q1.02 0 2.07-.591c.69-.394 1.47-1.074 2.33-2.041l1.4 1.504c-1.43 1.558-2.77 2.659-4 3.303-1.24.645-2.51.967-3.82.967-1.48 0-2.7-.331-3.64-.993-.94-.663-1.75-1.719-2.44-3.169-.69-1.451-1.36-3.348-2-5.694q-4.86-.268-7.41-3.222-2.55-2.955-2.55-8.326 0-4.028 1.35-9.104c.91-3.383 2.21-6.369 3.92-8.956s3.75-4.547 6.13-5.881q3.555-2.001 7.74-2.001"/><text x="1638.53" y="352.425" fill-opacity="0" font-family="Arial,Arial_MSFontService,sans-serif" font-size="47.346">𝑄</text></g></svg>