<svg width="1315" height="596" xmlns="http://www.w3.org/2000/svg" xmlns:xlink="http://www.w3.org/1999/xlink" overflow="hidden"><defs><clipPath id="clip0"><rect x="72" y="1472" width="1315" height="596"/></clipPath></defs><g clip-path="url(#clip0)" transform="translate(-72 -1472)"><path d="M283.5 1683.5C283.5 1666.38 297.379 1652.5 314.5 1652.5 331.621 1652.5 345.5 1666.38 345.5 1683.5 345.5 1700.62 331.621 1714.5 314.5 1714.5 297.379 1714.5 283.5 1700.62 283.5 1683.5Z" stroke="#D74514" stroke-width="6.875" stroke-miterlimit="8" fill="none" fill-rule="evenodd"/><path d="M0 0 43.3468 43.3468" stroke="#D74514" stroke-width="6.875" stroke-miterlimit="8" fill="none" fill-rule="evenodd" transform="matrix(-1 0 0 1 335.847 1661.5)"/><path d="M335.847 1704.85 292.5 1661.5" stroke="#D74514" stroke-width="6.875" stroke-miterlimit="8" fill="none" fill-rule="evenodd"/><path d="M520.5 1774C520.5 1757.16 534.155 1743.5 551 1743.5 567.845 1743.5 581.5 1757.16 581.5 1774 581.5 1790.84 567.845 1804.5 551 1804.5 534.155 1804.5 520.5 1790.84 520.5 1774Z" stroke="#D74514" stroke-width="6.875" stroke-miterlimit="8" fill="none" fill-rule="evenodd"/><path d="M0 0 61.3019 0.000360892" stroke="#D74514" stroke-width="6.875" stroke-miterlimit="8" fill="none" fill-rule="evenodd" transform="matrix(-1 0 0 1 581.802 1773.5)"/><path d="M0 0 0.000360892 61.3019" stroke="#D74514" stroke-width="6.875" stroke-miterlimit="8" fill="none" fill-rule="evenodd" transform="matrix(1 0 0 -1 551.5 1804.8)"/><path d="M728.83 1724.08C756.678 1743.04 763.883 1780.98 744.923 1808.83 739.802 1816.35 733.062 1822.63 725.199 1827.21" stroke="#000000" stroke-width="6.875" stroke-miterlimit="8" fill="none" fill-rule="evenodd"/><path d="M667.5 1774C667.5 1757.16 681.155 1743.5 698 1743.5 714.845 1743.5 728.5 1757.16 728.5 1774 728.5 1790.84 714.845 1804.5 698 1804.5 681.155 1804.5 667.5 1790.84 667.5 1774Z" stroke="#000000" stroke-width="6.875" stroke-miterlimit="8" fill-rule="evenodd"/><path d="M168.5 1680.06 242.602 1680.06 242.602 1686.94 168.5 1686.94ZM238.019 1660.58 283.852 1683.5 238.019 1706.42Z"/><path d="M345.5 1680.06 436.578 1680.06 436.578 1773.89 433.141 1770.45 497.864 1770.45 497.864 1777.33 429.703 1777.33 429.703 1683.5 433.141 1686.94 345.5 1686.94ZM493.281 1760.14 520.781 1773.89 493.281 1787.64Z"/><path d="M285.5 1867C285.5 1850.16 299.155 1836.5 316 1836.5 332.845 1836.5 346.5 1850.16 346.5 1867 346.5 1883.84 332.845 1897.5 316 1897.5 299.155 1897.5 285.5 1883.84 285.5 1867Z" stroke="#D74514" stroke-width="6.875" stroke-miterlimit="8" fill="none" fill-rule="evenodd"/><path d="M0 0 43.3468 43.3468" stroke="#D74514" stroke-width="6.875" stroke-miterlimit="8" fill="none" fill-rule="evenodd" transform="matrix(-1 0 0 1 337.847 1845.5)"/><path d="M337.847 1888.85 294.5 1845.5" stroke="#D74514" stroke-width="6.875" stroke-miterlimit="8" fill="none" fill-rule="evenodd"/><path d="M164.5 1864.06 238.603 1864.06 238.603 1870.94 164.5 1870.94ZM234.019 1844.58 279.853 1867.5 234.019 1890.42Z"/><path d="M0-3.4375 90.2675-3.4375 90.2675 93.3199 86.83 89.8824 150.743 89.8824 150.743 96.7574 83.3925 96.7574 83.3925 0 86.83 3.4375 0 3.4375ZM146.16 79.5699 173.66 93.3199 146.16 107.07Z" transform="matrix(1 0 0 -1 346.5 1866.82)"/><path d="M581.5 1773.5 666.997 1773.99" stroke="#000000" stroke-width="6.875" stroke-miterlimit="8" fill="none" fill-rule="evenodd"/><path d="M876.5 1681C876.5 1664.16 890.379 1650.5 907.5 1650.5 924.621 1650.5 938.5 1664.16 938.5 1681 938.5 1697.84 924.621 1711.5 907.5 1711.5 890.379 1711.5 876.5 1697.84 876.5 1681Z" stroke="#D74514" stroke-width="6.875" stroke-miterlimit="8" fill="none" fill-rule="evenodd"/><path d="M0 0 43.3468 43.3468" stroke="#D74514" stroke-width="6.875" stroke-miterlimit="8" fill="none" fill-rule="evenodd" transform="matrix(-1 0 0 1 928.847 1659.5)"/><path d="M928.847 1702.85 885.5 1659.5" stroke="#D74514" stroke-width="6.875" stroke-miterlimit="8" fill="none" fill-rule="evenodd"/><path d="M878.5 1864.5C878.5 1847.38 892.155 1833.5 909 1833.5 925.845 1833.5 939.5 1847.38 939.5 1864.5 939.5 1881.62 925.845 1895.5 909 1895.5 892.155 1895.5 878.5 1881.62 878.5 1864.5Z" stroke="#D74514" stroke-width="6.875" stroke-miterlimit="8" fill="none" fill-rule="evenodd"/><path d="M0 0 43.3468 43.3468" stroke="#D74514" stroke-width="6.875" stroke-miterlimit="8" fill="none" fill-rule="evenodd" transform="matrix(-1 0 0 1 930.847 1842.5)"/><path d="M930.847 1885.85 887.5 1842.5" stroke="#D74514" stroke-width="6.875" stroke-miterlimit="8" fill="none" fill-rule="evenodd"/><path d="M940.5 1680.06 1014.6 1680.06 1014.6 1686.94 940.5 1686.94ZM1010.02 1660.58 1055.85 1683.5 1010.02 1706.42Z"/><path d="M940.5 1862.06 1014.6 1862.06 1014.6 1868.94 940.5 1868.94ZM1010.02 1842.58 1055.85 1865.5 1010.02 1888.42Z"/><path d="M0-3.4375 62.9663-3.4375 62.9663 92.9024 59.5288 89.4649 96.141 89.4649 96.141 96.3399 56.0913 96.3399 56.0913 0 59.5288 3.4375 0 3.4375ZM91.5577 79.1524 119.058 92.9024 91.5577 106.652Z" transform="matrix(1 0 0 -1 757.5 1773.4)"/><path d="M757.5 1770.06 821.277 1770.06 821.277 1864.31 817.84 1860.87 855.262 1860.87 855.262 1867.75 814.402 1867.75 814.402 1773.5 817.84 1776.94 757.5 1776.94ZM850.679 1850.56 878.179 1864.31 850.679 1878.06Z"/><text fill="#5D1709" font-family="Microsoft YaHei,Microsoft YaHei_MSFontService,sans-serif" font-weight="400" font-size="55" transform="matrix(1 0 0 1 440.935 1733)">+<tspan font-size="55" x="11.0812" y="114">-</tspan></text><path d="M1339.89 1656.25 1350.64 1656.25 1350.34 1657.57C1349.66 1657.71 1349.17 1657.87 1348.88 1658.05 1348.58 1658.23 1348.32 1658.5 1348.09 1658.85 1347.85 1659.21 1347.61 1659.77 1347.36 1660.53 1347.11 1661.29 1346.8 1662.53 1346.42 1664.25L1341.83 1685.09C1341.59 1686.15 1341.44 1686.99 1341.37 1687.6 1341.3 1688.22 1341.26 1688.78 1341.26 1689.28 1341.26 1690.09 1341.47 1690.66 1341.87 1690.99 1342.27 1691.32 1342.95 1691.52 1343.9 1691.59L1343.6 1692.91 1332.86 1692.91 1333.15 1691.59C1333.83 1691.48 1334.34 1691.31 1334.68 1691.07 1335.02 1690.83 1335.31 1690.49 1335.54 1690.06 1335.78 1689.63 1335.99 1689.11 1336.19 1688.49 1336.39 1687.87 1336.68 1686.68 1337.07 1684.9L1341.64 1664.23C1342.03 1662.44 1342.23 1660.99 1342.23 1659.9 1342.23 1659.06 1342.02 1658.47 1341.6 1658.14 1341.18 1657.81 1340.51 1657.62 1339.6 1657.57Z" fill-rule="evenodd"/><text fill="#000000" fill-opacity="0" font-family="Arial,Arial_MSFontService,sans-serif" font-size="36.6577" x="1332.86" y="1688.32">𝐼</text><path d="M1337.33 1848.47C1335.39 1848.47 1333.59 1849.16 1331.92 1850.54 1330.24 1851.92 1328.77 1853.89 1327.51 1856.45 1326.25 1859.01 1325.27 1861.82 1324.57 1864.88 1323.87 1867.94 1323.52 1870.64 1323.52 1872.99 1323.52 1878.52 1325.54 1881.29 1329.57 1881.29 1332.06 1881.29 1334.34 1880.13 1336.42 1877.81 1338.49 1875.49 1340.17 1872.28 1341.44 1868.18 1342.71 1864.08 1343.34 1860.25 1343.34 1856.69 1343.34 1854.02 1342.85 1851.98 1341.87 1850.58 1340.88 1849.17 1339.37 1848.47 1337.33 1848.47ZM1337.62 1846.11C1341.08 1846.11 1343.74 1847.11 1345.61 1849.12 1347.48 1851.12 1348.42 1854.02 1348.42 1857.82 1348.42 1860.32 1348.03 1863.12 1347.24 1866.22 1346.45 1869.32 1345.37 1872.05 1343.99 1874.43 1342.61 1876.8 1341.01 1878.71 1339.19 1880.16 1337.38 1881.61 1335.4 1882.61 1333.27 1883.17 1333.68 1884.47 1334.07 1885.55 1334.43 1886.4 1334.79 1887.25 1335.13 1887.94 1335.46 1888.47 1335.79 1889 1336.12 1889.39 1336.44 1889.65 1336.76 1889.91 1337.09 1890.09 1337.41 1890.18 1337.73 1890.27 1338.11 1890.31 1338.54 1890.31 1339.22 1890.31 1339.91 1890.11 1340.6 1889.72 1341.3 1889.33 1342.08 1888.65 1342.94 1887.68L1344.34 1889.18C1342.91 1890.74 1341.57 1891.84 1340.34 1892.49 1339.1 1893.13 1337.83 1893.45 1336.52 1893.45 1335.04 1893.45 1333.82 1893.12 1332.88 1892.46 1331.94 1891.8 1331.13 1890.74 1330.44 1889.29 1329.75 1887.84 1329.08 1885.94 1328.44 1883.6 1325.2 1883.42 1322.73 1882.34 1321.03 1880.37 1319.33 1878.41 1318.48 1875.63 1318.48 1872.05 1318.48 1869.36 1318.93 1866.33 1319.83 1862.95 1320.74 1859.56 1322.04 1856.58 1323.75 1853.99 1325.46 1851.4 1327.5 1849.44 1329.88 1848.11 1332.25 1846.77 1334.83 1846.11 1337.62 1846.11Z" fill-rule="evenodd"/><text fill="#000000" fill-opacity="0" font-family="Arial,Arial_MSFontService,sans-serif" font-size="47.3462" x="1318.48" y="1887.54">𝑄</text><path d="M130.967 1659.67 141.709 1659.67 141.414 1660.98C140.734 1661.13 140.246 1661.29 139.95 1661.47 139.655 1661.65 139.391 1661.91 139.158 1662.27 138.925 1662.63 138.684 1663.19 138.433 1663.95 138.182 1664.71 137.869 1665.95 137.493 1667.67L132.901 1688.51C132.668 1689.57 132.516 1690.4 132.444 1691.02 132.373 1691.64 132.337 1692.2 132.337 1692.7 132.337 1693.51 132.538 1694.07 132.941 1694.4 133.344 1694.74 134.02 1694.94 134.969 1695.01L134.673 1696.32 123.931 1696.32 124.226 1695.01C124.907 1694.9 125.417 1694.73 125.757 1694.49 126.097 1694.24 126.384 1693.91 126.617 1693.48 126.849 1693.05 127.064 1692.52 127.261 1691.91 127.458 1691.29 127.753 1690.09 128.147 1688.32L132.713 1667.64C133.107 1665.85 133.304 1664.41 133.304 1663.32 133.304 1662.48 133.093 1661.89 132.672 1661.56 132.252 1661.23 131.585 1661.04 130.672 1660.98Z" fill-rule="evenodd"/><text fill="#000000" fill-opacity="0" font-family="Arial,Arial_MSFontService,sans-serif" font-size="36.6577" x="123.931" y="1691.74">𝐼</text><path d="M128.401 1851.89C126.468 1851.89 124.664 1852.58 122.99 1853.96 121.316 1855.33 119.848 1857.3 118.586 1859.86 117.323 1862.42 116.343 1865.24 115.645 1868.3 114.947 1871.36 114.597 1874.06 114.597 1876.41 114.597 1881.94 116.612 1884.71 120.64 1884.71 123.129 1884.71 125.411 1883.55 127.488 1881.23 129.565 1878.91 131.239 1875.7 132.51 1871.6 133.781 1867.5 134.417 1863.67 134.417 1860.11 134.417 1857.44 133.924 1855.4 132.94 1854 131.955 1852.59 130.442 1851.89 128.401 1851.89ZM128.697 1849.52C132.152 1849.52 134.815 1850.53 136.686 1852.53 138.557 1854.54 139.493 1857.44 139.493 1861.23 139.493 1863.74 139.099 1866.54 138.311 1869.64 137.523 1872.74 136.44 1875.47 135.061 1877.84 133.683 1880.22 132.085 1882.13 130.268 1883.58 128.45 1885.03 126.477 1886.03 124.346 1886.59 124.758 1887.89 125.143 1888.97 125.501 1889.82 125.859 1890.67 126.204 1891.36 126.535 1891.89 126.866 1892.42 127.193 1892.81 127.515 1893.07 127.837 1893.33 128.16 1893.51 128.482 1893.59 128.804 1893.68 129.18 1893.73 129.61 1893.73 130.29 1893.73 130.979 1893.53 131.678 1893.14 132.376 1892.74 133.155 1892.06 134.014 1891.1L135.41 1892.6C133.978 1894.16 132.644 1895.26 131.409 1895.9 130.174 1896.55 128.902 1896.87 127.596 1896.87 126.11 1896.87 124.897 1896.54 123.957 1895.88 123.017 1895.21 122.202 1894.16 121.513 1892.71 120.823 1891.26 120.157 1889.36 119.512 1887.02 116.271 1886.84 113.801 1885.76 112.1 1883.79 110.399 1881.82 109.549 1879.05 109.549 1875.47 109.549 1872.78 110.001 1869.75 110.905 1866.36 111.809 1862.98 113.116 1859.99 114.826 1857.41 116.536 1854.82 118.577 1852.86 120.949 1851.53 123.321 1850.19 125.904 1849.52 128.697 1849.52Z" fill-rule="evenodd"/><text fill="#000000" fill-opacity="0" font-family="Arial,Arial_MSFontService,sans-serif" font-size="47.3462" x="109.549" y="1890.95">𝑄</text><path d="M257.075 1517.79C254.909 1517.79 253.248 1518.73 252.093 1520.61 250.939 1522.49 250.361 1525.17 250.361 1528.64 250.361 1532.33 250.948 1535.16 252.12 1537.14 253.293 1539.12 254.971 1540.11 257.156 1540.11 258.355 1540.11 259.376 1539.82 260.217 1539.23 261.059 1538.65 261.743 1537.87 262.272 1536.88 262.8 1535.9 263.18 1534.76 263.413 1533.46 263.646 1532.16 263.762 1530.81 263.762 1529.39 263.762 1526.76 263.471 1524.57 262.889 1522.84 262.307 1521.1 261.515 1519.83 260.513 1519.01 259.51 1518.2 258.364 1517.79 257.075 1517.79ZM284.491 1515.67C285.672 1515.67 286.814 1515.73 287.915 1515.84 289.016 1515.96 290.399 1516.19 292.064 1516.53L292.064 1522.01 289.486 1522.01C289.092 1520.93 288.626 1520.09 288.089 1519.47 287.552 1518.85 286.943 1518.42 286.263 1518.17 285.583 1517.91 284.75 1517.79 283.765 1517.79 282.333 1517.79 281.192 1518.12 280.341 1518.8 279.491 1519.47 279.066 1520.39 279.066 1521.55 279.066 1522.37 279.236 1523.05 279.576 1523.59 279.916 1524.13 280.444 1524.63 281.16 1525.09 281.877 1525.56 283.139 1526.18 284.947 1526.95 286.773 1527.73 288.183 1528.46 289.177 1529.12 290.17 1529.78 290.949 1530.55 291.513 1531.43 292.077 1532.31 292.359 1533.36 292.359 1534.57 292.359 1535.99 292.117 1537.18 291.634 1538.15 291.151 1539.11 290.47 1539.9 289.593 1540.51 288.716 1541.12 287.673 1541.56 286.464 1541.82 285.256 1542.09 283.936 1542.23 282.503 1542.23 280.999 1542.23 279.54 1542.12 278.126 1541.89 276.711 1541.67 275.333 1541.38 273.99 1541.02L273.99 1535.41 276.622 1535.41C277.105 1537.05 277.821 1538.25 278.77 1538.99 279.719 1539.73 281.026 1540.11 282.691 1540.11 283.336 1540.11 283.967 1540.04 284.585 1539.9 285.202 1539.77 285.753 1539.55 286.236 1539.23 286.72 1538.92 287.104 1538.49 287.391 1537.96 287.677 1537.42 287.821 1536.75 287.821 1535.94 287.821 1535.03 287.642 1534.29 287.284 1533.71 286.925 1533.14 286.37 1532.62 285.618 1532.14 284.867 1531.67 283.542 1531.03 281.644 1530.22 280.015 1529.54 278.708 1528.88 277.723 1528.24 276.738 1527.59 275.964 1526.83 275.4 1525.95 274.836 1525.08 274.554 1524.04 274.554 1522.84 274.554 1521.37 274.952 1520.09 275.749 1519.01 276.546 1517.93 277.696 1517.1 279.2 1516.53 280.704 1515.95 282.467 1515.67 284.491 1515.67ZM257.182 1515.67C261.014 1515.67 263.914 1516.78 265.884 1519.01 267.853 1521.24 268.838 1524.44 268.838 1528.61 268.838 1531.58 268.345 1534.09 267.361 1536.13 266.376 1538.17 264.979 1539.7 263.171 1540.71 261.363 1541.72 259.223 1542.23 256.753 1542.23 253.029 1542.23 250.187 1541.13 248.226 1538.94 246.266 1536.74 245.285 1533.5 245.285 1529.2 245.285 1526.25 245.8 1523.75 246.83 1521.71 247.859 1519.67 249.269 1518.15 251.059 1517.16 252.85 1516.16 254.891 1515.67 257.182 1515.67ZM233.263 1515.67C234.731 1515.67 236.087 1515.75 237.332 1515.92 238.576 1516.09 239.825 1516.37 241.078 1516.74L241.078 1522.35 237.667 1522.35C237.363 1521.19 236.987 1520.27 236.539 1519.6 236.092 1518.93 235.573 1518.46 234.982 1518.19 234.391 1517.92 233.657 1517.79 232.78 1517.79 231.526 1517.79 230.416 1518.19 229.45 1519 228.483 1519.8 227.717 1521.03 227.153 1522.68 226.589 1524.32 226.307 1526.34 226.307 1528.72 226.307 1530.24 226.415 1531.63 226.63 1532.9 226.845 1534.16 227.212 1535.24 227.731 1536.13 228.25 1537.03 228.939 1537.72 229.799 1538.23 230.658 1538.73 231.723 1538.98 232.994 1538.98 234.23 1538.98 235.38 1538.74 236.445 1538.25 237.511 1537.77 238.616 1536.92 239.762 1535.7L241.293 1537.47C240.38 1538.48 239.574 1539.25 238.876 1539.8 238.178 1540.34 237.43 1540.8 236.633 1541.17 235.837 1541.53 235.049 1541.8 234.27 1541.97 233.491 1542.14 232.645 1542.23 231.732 1542.23 228.348 1542.23 225.761 1541.1 223.971 1538.86 222.181 1536.61 221.285 1533.37 221.285 1529.12 221.285 1526.47 221.787 1524.12 222.789 1522.07 223.792 1520.02 225.197 1518.44 227.006 1517.33 228.814 1516.22 230.9 1515.67 233.263 1515.67Z" fill-rule="evenodd"/><text fill="#000000" fill-opacity="0" font-family="Arial,Arial_MSFontService,sans-serif" font-size="26.5601" x="221.285" y="1538.91">cos</text><path d="M318.932 1515.67 320.302 1517.49C317.58 1519.71 315.45 1522.22 313.91 1525.03 312.37 1527.83 311.6 1530.72 311.6 1533.71 311.6 1535.77 311.99 1537.35 312.769 1538.45 313.547 1539.56 314.644 1540.11 316.058 1540.11 317.383 1540.11 318.511 1539.57 319.442 1538.49 320.373 1537.42 321.062 1535.85 321.51 1533.77L323.712 1523.64 328.224 1523.64 326.183 1532.88C325.95 1533.94 325.834 1534.92 325.834 1535.84 325.834 1537.27 326.143 1538.34 326.76 1539.05 327.378 1539.75 328.251 1540.11 329.379 1540.11 330.865 1540.11 332.181 1539.56 333.326 1538.48 334.472 1537.4 335.363 1535.82 335.999 1533.74 336.634 1531.66 336.952 1529.25 336.952 1526.49 336.952 1524.86 336.728 1523.19 336.281 1521.48 335.833 1519.77 335.206 1518.35 334.401 1517.23L336.227 1515.67C338.017 1517.37 339.364 1519.24 340.269 1521.28 341.173 1523.32 341.625 1525.51 341.625 1527.86 341.625 1530.49 341.106 1532.92 340.067 1535.14 339.029 1537.36 337.556 1539.09 335.649 1540.35 333.743 1541.6 331.563 1542.23 329.11 1542.23 326.138 1542.23 324.106 1540.76 323.014 1537.82L322.907 1537.82C322.28 1538.81 321.622 1539.6 320.933 1540.2 320.243 1540.8 319.38 1541.29 318.341 1541.66 317.303 1542.04 316.067 1542.23 314.635 1542.23 313.257 1542.23 311.99 1541.92 310.835 1541.3 309.68 1540.68 308.745 1539.72 308.029 1538.4 307.312 1537.08 306.954 1535.47 306.954 1533.55 306.954 1530.3 308.002 1527.1 310.096 1523.97 312.191 1520.83 315.136 1518.07 318.932 1515.67Z" fill-rule="evenodd"/><text fill="#000000" fill-opacity="0" font-family="Arial,Arial_MSFontService,sans-serif" font-size="26.5601" x="306.954" y="1538.91">𝜔</text><path d="M356.089 1529.63C355.178 1529.63 354.416 1529.87 353.804 1530.34 353.192 1530.82 352.707 1531.51 352.349 1532.43 351.991 1533.35 351.737 1534.47 351.587 1535.79 351.438 1537.11 351.363 1538.61 351.363 1540.29 351.363 1542.23 351.457 1543.91 351.646 1545.32 351.835 1546.73 352.128 1547.9 352.525 1548.81 352.922 1549.72 353.42 1550.39 354.019 1550.82 354.618 1551.25 355.334 1551.46 356.167 1551.46 356.949 1551.46 357.632 1551.26 358.218 1550.86 358.804 1550.46 359.289 1549.83 359.673 1548.97 360.057 1548.12 360.347 1547.04 360.542 1545.73 360.738 1544.42 360.835 1542.88 360.835 1541.09 360.835 1539.09 360.728 1537.36 360.513 1535.92 360.298 1534.47 359.996 1533.28 359.605 1532.35 359.214 1531.42 358.723 1530.74 358.13 1530.29 357.538 1529.85 356.858 1529.63 356.089 1529.63ZM356.167 1527.73C357.717 1527.73 359.042 1528.02 360.142 1528.6 361.242 1529.18 362.141 1530.01 362.837 1531.08 363.534 1532.16 364.045 1533.47 364.371 1535.02 364.696 1536.57 364.859 1538.32 364.859 1540.27 364.859 1544.61 364.091 1547.89 362.554 1550.11 361.018 1552.33 358.791 1553.44 355.875 1553.44 352.984 1553.44 350.835 1552.39 349.429 1550.29 348.023 1548.2 347.32 1545.02 347.32 1540.76 347.32 1538.54 347.538 1536.61 347.974 1534.98 348.41 1533.35 349.022 1532 349.81 1530.93 350.598 1529.85 351.532 1529.05 352.613 1528.53 353.694 1528 354.878 1527.73 356.167 1527.73Z" fill-rule="evenodd"/><text fill="#000000" fill-opacity="0" font-family="Arial,Arial_MSFontService,sans-serif" font-size="25.7031" x="347.32" y="1550.22">0</text><path d="M380.789 1509.49 384.495 1509.49 383.018 1516.12 391.182 1516.12 390.591 1518.84 382.427 1518.84 380.037 1529.26C379.572 1531.28 379.276 1532.73 379.151 1533.62 379.026 1534.51 378.963 1535.22 378.963 1535.76 378.963 1537.98 379.885 1539.09 381.729 1539.09 382.517 1539.09 383.354 1538.79 384.24 1538.19 385.126 1537.59 386.178 1536.56 387.396 1535.11L388.953 1536.72C387.396 1538.6 385.896 1539.99 384.455 1540.89 383.014 1541.78 381.505 1542.23 379.93 1542.23 376.188 1542.23 374.317 1540.34 374.317 1536.56 374.317 1535.36 374.469 1534.1 374.773 1532.77L377.942 1518.84 373.431 1518.84 373.833 1516.98C374.89 1516.97 375.691 1516.89 376.237 1516.74 376.783 1516.6 377.24 1516.4 377.607 1516.15 377.974 1515.9 378.309 1515.54 378.614 1515.08 378.918 1514.61 379.214 1514.02 379.5 1513.29 379.786 1512.57 380.216 1511.3 380.789 1509.49Z" fill-rule="evenodd"/><text fill="#000000" fill-opacity="0" font-family="Arial,Arial_MSFontService,sans-serif" font-size="32.7368" x="373.431" y="1538.14">𝑡</text><path d="M253.389 2011.6 255.028 2011.6 255.028 2030.8C255.028 2032.34 255.099 2033.41 255.243 2034.01 255.386 2034.61 255.659 2035.07 256.062 2035.38 256.464 2035.7 257.122 2035.97 258.035 2036.2L258.035 2037.52 247.508 2037.52 247.508 2036.2C248.206 2035.99 248.703 2035.8 248.999 2035.64 249.294 2035.48 249.545 2035.25 249.751 2034.97 249.956 2034.68 250.118 2034.24 250.234 2033.65 250.35 2033.06 250.409 2032.14 250.409 2030.89L250.409 2019.18C250.409 2018.03 250.391 2017.11 250.355 2016.41 250.319 2015.71 250.194 2015.15 249.979 2014.73 249.764 2014.31 249.437 2014 248.999 2013.79 248.56 2013.59 247.938 2013.41 247.132 2013.27L247.132 2011.84ZM279.46 2011.42C280.427 2011.42 281.291 2011.53 282.052 2011.75 282.813 2011.97 283.484 2012.32 284.066 2012.78 284.648 2013.25 285.127 2013.83 285.503 2014.52 285.879 2015.21 286.161 2016.03 286.349 2017 286.537 2017.97 286.631 2019.19 286.631 2020.68L286.631 2030.8C286.631 2032.04 286.667 2032.94 286.738 2033.49 286.81 2034.05 286.935 2034.48 287.114 2034.78 287.293 2035.08 287.553 2035.34 287.893 2035.54 288.233 2035.75 288.824 2035.97 289.665 2036.2L289.665 2037.52 279.084 2037.52 279.084 2036.2C279.783 2035.99 280.284 2035.8 280.588 2035.64 280.893 2035.48 281.148 2035.25 281.354 2034.97 281.559 2034.68 281.721 2034.24 281.837 2033.64 281.953 2033.04 282.012 2032.13 282.012 2030.91L282.012 2023.88C282.012 2022.62 281.976 2021.49 281.904 2020.47 281.833 2019.44 281.712 2018.61 281.542 2017.95 281.371 2017.3 281.166 2016.79 280.924 2016.42 280.682 2016.06 280.396 2015.74 280.065 2015.48 279.733 2015.22 279.353 2015.02 278.923 2014.87 278.493 2014.71 277.93 2014.64 277.231 2014.64 276.533 2014.64 275.871 2014.78 275.244 2015.05 274.617 2015.33 273.928 2015.81 273.176 2016.49 272.424 2017.17 271.878 2017.84 271.538 2018.51 271.198 2019.17 271.028 2019.93 271.028 2020.79L271.028 2030.8C271.028 2032.34 271.099 2033.41 271.242 2034.01 271.386 2034.61 271.659 2035.07 272.062 2035.38 272.464 2035.7 273.122 2035.97 274.035 2036.2L274.035 2037.52 263.508 2037.52 263.508 2036.2C264.206 2035.99 264.703 2035.8 264.999 2035.64 265.294 2035.48 265.545 2035.25 265.751 2034.97 265.956 2034.68 266.118 2034.24 266.234 2033.65 266.35 2033.06 266.409 2032.14 266.409 2030.89L266.409 2019.18C266.409 2018.03 266.391 2017.11 266.355 2016.41 266.319 2015.71 266.194 2015.15 265.979 2014.73 265.764 2014.31 265.437 2014 264.999 2013.79 264.56 2013.59 263.938 2013.41 263.132 2013.27L263.132 2011.84 269.416 2011.6 271.055 2011.6 270.759 2015.98 271.135 2016.09C272.46 2014.75 273.53 2013.79 274.344 2013.21 275.159 2012.64 275.982 2012.2 276.815 2011.89 277.648 2011.57 278.529 2011.42 279.46 2011.42ZM234.928 2011.39C236.11 2011.39 237.251 2011.45 238.352 2011.56 239.453 2011.68 240.836 2011.91 242.501 2012.25L242.501 2017.73 239.923 2017.73C239.529 2016.65 239.064 2015.81 238.527 2015.19 237.99 2014.57 237.381 2014.14 236.701 2013.89 236.02 2013.64 235.188 2013.51 234.203 2013.51 232.771 2013.51 231.629 2013.85 230.779 2014.52 229.928 2015.19 229.503 2016.11 229.503 2017.27 229.503 2018.09 229.673 2018.77 230.014 2019.31 230.354 2019.85 230.882 2020.35 231.598 2020.81 232.314 2021.28 233.576 2021.9 235.385 2022.67 237.211 2023.46 238.621 2024.18 239.614 2024.84 240.608 2025.51 241.387 2026.28 241.951 2027.15 242.515 2028.03 242.797 2029.08 242.797 2030.29 242.797 2031.71 242.555 2032.9 242.072 2033.87 241.588 2034.83 240.908 2035.62 240.031 2036.23 239.153 2036.84 238.11 2037.28 236.902 2037.55 235.693 2037.81 234.373 2037.95 232.941 2037.95 231.437 2037.95 229.978 2037.84 228.563 2037.61 227.149 2037.39 225.77 2037.1 224.428 2036.74L224.428 2031.13 227.059 2031.13C227.543 2032.77 228.259 2033.97 229.208 2034.71 230.157 2035.46 231.464 2035.83 233.129 2035.83 233.773 2035.83 234.404 2035.76 235.022 2035.63 235.64 2035.49 236.19 2035.27 236.674 2034.95 237.157 2034.64 237.542 2034.22 237.828 2033.68 238.115 2033.14 238.258 2032.47 238.258 2031.66 238.258 2030.75 238.079 2030.01 237.721 2029.44 237.363 2028.86 236.808 2028.34 236.056 2027.86 235.304 2027.39 233.979 2026.75 232.081 2025.94 230.452 2025.26 229.145 2024.6 228.16 2023.96 227.176 2023.31 226.401 2022.55 225.837 2021.67 225.274 2020.8 224.992 2019.76 224.992 2018.56 224.992 2017.09 225.39 2015.81 226.187 2014.73 226.983 2013.65 228.134 2012.82 229.638 2012.25 231.141 2011.67 232.905 2011.39 234.928 2011.39ZM250.247 2001.32 255.189 2001.32 255.189 2006.53 250.247 2006.53Z" fill-rule="evenodd"/><text fill="#000000" fill-opacity="0" font-family="Arial,Arial_MSFontService,sans-serif" font-size="36.6309" x="224.428" y="2033.37">sin</text><path d="M315.494 2011.39 316.864 2013.21C314.143 2015.43 312.012 2017.95 310.472 2020.75 308.933 2023.55 308.163 2026.45 308.163 2029.44 308.163 2031.49 308.552 2033.07 309.331 2034.18 310.11 2035.28 311.207 2035.83 312.621 2035.83 313.946 2035.83 315.074 2035.29 316.005 2034.22 316.936 2033.14 317.625 2031.57 318.073 2029.49L320.275 2019.36 324.786 2019.36 322.745 2028.6C322.513 2029.66 322.396 2030.64 322.396 2031.56 322.396 2032.99 322.705 2034.06 323.323 2034.77 323.94 2035.47 324.813 2035.83 325.941 2035.83 327.427 2035.83 328.743 2035.29 329.889 2034.2 331.035 2033.12 331.926 2031.54 332.561 2029.46 333.197 2027.39 333.514 2024.97 333.514 2022.21 333.514 2020.58 333.291 2018.91 332.843 2017.2 332.395 2015.49 331.769 2014.07 330.963 2012.95L332.789 2011.39C334.58 2013.09 335.927 2014.96 336.831 2017 337.735 2019.04 338.187 2021.24 338.187 2023.58 338.187 2026.21 337.668 2028.64 336.63 2030.86 335.591 2033.08 334.119 2034.82 332.212 2036.07 330.305 2037.32 328.125 2037.95 325.673 2037.95 322.701 2037.95 320.669 2036.48 319.576 2033.54L319.469 2033.54C318.842 2034.53 318.184 2035.32 317.495 2035.92 316.806 2036.52 315.942 2037.01 314.904 2037.38 313.865 2037.76 312.63 2037.95 311.198 2037.95 309.819 2037.95 308.552 2037.64 307.398 2037.02 306.243 2036.4 305.307 2035.44 304.591 2034.12 303.875 2032.81 303.517 2031.19 303.517 2029.27 303.517 2026.02 304.564 2022.82 306.659 2019.69 308.754 2016.55 311.699 2013.79 315.494 2011.39Z" fill-rule="evenodd"/><text fill="#000000" fill-opacity="0" font-family="Arial,Arial_MSFontService,sans-serif" font-size="26.5601" x="303.517" y="2034.63">𝜔</text><path d="M352.652 2025.35C351.74 2025.35 350.979 2025.59 350.367 2026.06 349.755 2026.54 349.27 2027.23 348.912 2028.15 348.554 2029.07 348.3 2030.19 348.15 2031.51 348 2032.83 347.925 2034.33 347.925 2036.01 347.925 2037.95 348.02 2039.63 348.208 2041.04 348.397 2042.46 348.69 2043.62 349.087 2044.53 349.485 2045.44 349.983 2046.11 350.582 2046.54 351.181 2046.97 351.897 2047.19 352.73 2047.19 353.511 2047.19 354.195 2046.98 354.781 2046.58 355.367 2046.18 355.852 2045.55 356.236 2044.7 356.62 2043.84 356.91 2042.76 357.105 2041.45 357.3 2040.14 357.398 2038.6 357.398 2036.81 357.398 2034.81 357.291 2033.08 357.076 2031.64 356.861 2030.19 356.558 2029.01 356.167 2028.07 355.777 2027.14 355.285 2026.46 354.693 2026.01 354.1 2025.57 353.42 2025.35 352.652 2025.35ZM352.73 2023.45C354.279 2023.45 355.604 2023.74 356.705 2024.32 357.805 2024.9 358.703 2025.73 359.4 2026.8 360.097 2027.88 360.608 2029.19 360.933 2030.74 361.259 2032.29 361.421 2034.04 361.421 2035.99 361.421 2040.33 360.653 2043.61 359.117 2045.83 357.58 2048.05 355.354 2049.16 352.437 2049.16 349.546 2049.16 347.398 2048.11 345.992 2046.01 344.585 2043.92 343.882 2040.74 343.882 2036.48 343.882 2034.26 344.1 2032.33 344.537 2030.7 344.973 2029.07 345.585 2027.72 346.373 2026.65 347.16 2025.57 348.095 2024.77 349.175 2024.25 350.256 2023.72 351.441 2023.45 352.73 2023.45Z" fill-rule="evenodd"/><text fill="#000000" fill-opacity="0" font-family="Arial,Arial_MSFontService,sans-serif" font-size="25.7031" x="343.882" y="2045.95">0</text><path d="M377.352 2005.21 381.058 2005.21 379.581 2011.84 387.745 2011.84 387.154 2014.56 378.99 2014.56 376.6 2024.98C376.134 2027 375.839 2028.45 375.713 2029.34 375.588 2030.23 375.525 2030.94 375.525 2031.48 375.525 2033.7 376.447 2034.81 378.292 2034.81 379.079 2034.81 379.916 2034.51 380.802 2033.91 381.689 2033.31 382.741 2032.28 383.958 2030.83L385.516 2032.44C383.958 2034.32 382.459 2035.71 381.017 2036.61 379.576 2037.5 378.068 2037.95 376.492 2037.95 372.75 2037.95 370.879 2036.06 370.879 2032.28 370.879 2031.08 371.032 2029.82 371.336 2028.5L374.505 2014.56 369.993 2014.56 370.396 2012.7C371.452 2012.69 372.254 2012.61 372.8 2012.46 373.346 2012.32 373.802 2012.12 374.169 2011.87 374.536 2011.62 374.872 2011.26 375.176 2010.8 375.481 2010.33 375.776 2009.74 376.062 2009.01 376.349 2008.29 376.779 2007.02 377.352 2005.21Z" fill-rule="evenodd"/><text fill="#000000" fill-opacity="0" font-family="Arial,Arial_MSFontService,sans-serif" font-size="32.7368" x="369.993" y="2033.86">𝑡</text><path d="M793.679 2019.05 826.765 2019.05 826.765 2022.62 793.679 2022.62Z" fill-rule="evenodd"/><text fill="#000000" fill-opacity="0" font-family="Arial,Arial_MSFontService,sans-serif" font-size="3.57178" x="793.679" y="2022.17">−</text><path d="M871.58 2010.64 873.219 2010.64 873.219 2029.84C873.219 2031.38 873.29 2032.45 873.433 2033.05 873.577 2033.65 873.85 2034.11 874.253 2034.42 874.655 2034.74 875.313 2035.01 876.226 2035.24L876.226 2036.56 865.699 2036.56 865.699 2035.24C866.397 2035.03 866.894 2034.84 867.19 2034.68 867.485 2034.52 867.736 2034.29 867.942 2034.01 868.147 2033.72 868.309 2033.28 868.425 2032.69 868.541 2032.1 868.599 2031.18 868.599 2029.92L868.599 2018.22C868.599 2017.07 868.582 2016.15 868.546 2015.45 868.51 2014.75 868.385 2014.19 868.17 2013.77 867.955 2013.35 867.628 2013.04 867.19 2012.83 866.751 2012.63 866.129 2012.45 865.323 2012.31L865.323 2010.88ZM897.651 2010.45C898.618 2010.45 899.482 2010.57 900.243 2010.79 901.004 2011.01 901.675 2011.36 902.257 2011.82 902.839 2012.29 903.318 2012.87 903.694 2013.56 904.07 2014.25 904.352 2015.07 904.54 2016.04 904.728 2017.01 904.822 2018.23 904.822 2019.72L904.822 2029.84C904.822 2031.08 904.857 2031.97 904.929 2032.53 905.001 2033.08 905.126 2033.51 905.305 2033.82 905.484 2034.12 905.744 2034.38 906.084 2034.58 906.424 2034.79 907.015 2035.01 907.856 2035.24L907.856 2036.56 897.275 2036.56 897.275 2035.24C897.974 2035.03 898.475 2034.84 898.779 2034.68 899.084 2034.52 899.339 2034.29 899.545 2034.01 899.75 2033.72 899.912 2033.28 900.028 2032.68 900.144 2032.08 900.203 2031.17 900.203 2029.95L900.203 2022.92C900.203 2021.66 900.167 2020.53 900.095 2019.5 900.023 2018.48 899.903 2017.65 899.733 2016.99 899.562 2016.34 899.357 2015.83 899.115 2015.46 898.873 2015.1 898.587 2014.78 898.255 2014.52 897.924 2014.26 897.544 2014.06 897.114 2013.91 896.684 2013.75 896.12 2013.68 895.422 2013.68 894.724 2013.68 894.062 2013.82 893.435 2014.09 892.808 2014.37 892.119 2014.85 891.367 2015.53 890.615 2016.21 890.069 2016.88 889.729 2017.54 889.389 2018.21 889.219 2018.97 889.219 2019.83L889.219 2029.84C889.219 2031.38 889.29 2032.45 889.433 2033.05 889.577 2033.65 889.85 2034.11 890.253 2034.42 890.655 2034.74 891.313 2035.01 892.226 2035.24L892.226 2036.56 881.699 2036.56 881.699 2035.24C882.397 2035.03 882.894 2034.84 883.19 2034.68 883.485 2034.52 883.736 2034.29 883.942 2034.01 884.147 2033.72 884.309 2033.28 884.425 2032.69 884.541 2032.1 884.599 2031.18 884.599 2029.92L884.599 2018.22C884.599 2017.07 884.582 2016.15 884.546 2015.45 884.51 2014.75 884.385 2014.19 884.17 2013.77 883.955 2013.35 883.628 2013.04 883.19 2012.83 882.751 2012.63 882.129 2012.45 881.323 2012.31L881.323 2010.88 887.607 2010.64 889.245 2010.64 888.95 2015.02 889.326 2015.13C890.651 2013.78 891.721 2012.83 892.535 2012.25 893.35 2011.68 894.173 2011.24 895.006 2010.92 895.839 2010.61 896.72 2010.45 897.651 2010.45ZM853.119 2010.43C854.301 2010.43 855.442 2010.49 856.543 2010.6 857.644 2010.72 859.027 2010.95 860.692 2011.29L860.692 2016.77 858.114 2016.77C857.72 2015.69 857.255 2014.85 856.718 2014.23 856.181 2013.61 855.572 2013.18 854.891 2012.93 854.211 2012.67 853.379 2012.55 852.394 2012.55 850.962 2012.55 849.82 2012.88 848.97 2013.56 848.119 2014.23 847.694 2015.15 847.694 2016.31 847.694 2017.13 847.864 2017.81 848.204 2018.35 848.545 2018.89 849.073 2019.39 849.789 2019.85 850.505 2020.32 851.767 2020.94 853.576 2021.71 855.402 2022.49 856.812 2023.22 857.805 2023.88 858.799 2024.54 859.578 2025.31 860.142 2026.19 860.706 2027.07 860.988 2028.12 860.988 2029.33 860.988 2030.75 860.746 2031.94 860.263 2032.91 859.779 2033.87 859.099 2034.66 858.222 2035.27 857.344 2035.88 856.301 2036.32 855.093 2036.58 853.884 2036.85 852.564 2036.99 851.132 2036.99 849.628 2036.99 848.169 2036.88 846.754 2036.65 845.34 2036.43 843.961 2036.14 842.619 2035.78L842.619 2030.17 845.25 2030.17C845.734 2031.81 846.45 2033.01 847.399 2033.75 848.348 2034.49 849.655 2034.87 851.32 2034.87 851.964 2034.87 852.595 2034.8 853.213 2034.66 853.831 2034.53 854.381 2034.31 854.865 2033.99 855.348 2033.68 855.733 2033.25 856.019 2032.72 856.306 2032.18 856.449 2031.51 856.449 2030.7 856.449 2029.79 856.27 2029.05 855.912 2028.47 855.554 2027.9 854.999 2027.38 854.247 2026.9 853.495 2026.43 852.17 2025.79 850.272 2024.98 848.643 2024.3 847.336 2023.64 846.351 2023 845.367 2022.35 844.592 2021.59 844.028 2020.71 843.464 2019.84 843.182 2018.8 843.182 2017.6 843.182 2016.13 843.581 2014.85 844.378 2013.77 845.174 2012.69 846.325 2011.86 847.828 2011.29 849.332 2010.71 851.096 2010.43 853.119 2010.43ZM868.438 2000.36 873.38 2000.36 873.38 2005.57 868.438 2005.57Z" fill-rule="evenodd"/><text fill="#000000" fill-opacity="0" font-family="Arial,Arial_MSFontService,sans-serif" font-size="36.6309" x="842.619" y="2032.41">sin</text><path d="M933.685 2010.43 935.055 2012.25C932.334 2014.47 930.203 2016.98 928.663 2019.79 927.124 2022.59 926.354 2025.48 926.354 2028.47 926.354 2030.53 926.743 2032.11 927.522 2033.21 928.301 2034.32 929.398 2034.87 930.812 2034.87 932.137 2034.87 933.265 2034.33 934.196 2033.25 935.127 2032.18 935.816 2030.6 936.264 2028.53L938.466 2018.4 942.977 2018.4 940.936 2027.64C940.704 2028.7 940.587 2029.68 940.587 2030.6 940.587 2032.03 940.896 2033.1 941.514 2033.81 942.131 2034.51 943.004 2034.87 944.132 2034.87 945.618 2034.87 946.934 2034.32 948.08 2033.24 949.226 2032.16 950.117 2030.58 950.752 2028.5 951.388 2026.42 951.705 2024.01 951.705 2021.25 951.705 2019.62 951.482 2017.95 951.034 2016.24 950.586 2014.53 949.96 2013.11 949.154 2011.99L950.98 2010.43C952.771 2012.13 954.118 2014 955.022 2016.04 955.926 2018.08 956.378 2020.27 956.378 2022.62 956.378 2025.25 955.859 2027.68 954.821 2029.9 953.782 2032.12 952.31 2033.85 950.403 2035.11 948.496 2036.36 946.316 2036.99 943.864 2036.99 940.892 2036.99 938.86 2035.52 937.767 2032.58L937.66 2032.58C937.033 2033.57 936.375 2034.36 935.686 2034.96 934.997 2035.56 934.133 2036.05 933.095 2036.42 932.056 2036.8 930.821 2036.99 929.389 2036.99 928.01 2036.99 926.743 2036.68 925.589 2036.06 924.434 2035.44 923.498 2034.48 922.782 2033.16 922.066 2031.84 921.708 2030.23 921.708 2028.31 921.708 2025.05 922.755 2021.86 924.85 2018.73 926.945 2015.59 929.89 2012.83 933.685 2010.43Z" fill-rule="evenodd"/><text fill="#000000" fill-opacity="0" font-family="Arial,Arial_MSFontService,sans-serif" font-size="26.5601" x="921.708" y="2033.67">𝜔</text><path d="M970.843 2024.39C969.931 2024.39 969.17 2024.63 968.558 2025.1 967.946 2025.58 967.461 2026.27 967.103 2027.19 966.744 2028.11 966.491 2029.23 966.341 2030.55 966.191 2031.87 966.116 2033.37 966.116 2035.05 966.116 2036.99 966.211 2038.67 966.399 2040.08 966.588 2041.49 966.881 2042.66 967.278 2043.57 967.675 2044.48 968.174 2045.15 968.772 2045.58 969.371 2046.01 970.088 2046.22 970.921 2046.22 971.702 2046.22 972.386 2046.02 972.972 2045.62 973.558 2045.22 974.043 2044.59 974.427 2043.73 974.811 2042.88 975.101 2041.8 975.296 2040.49 975.491 2039.18 975.589 2037.64 975.589 2035.85 975.589 2033.85 975.481 2032.12 975.267 2030.68 975.052 2029.23 974.749 2028.04 974.358 2027.11 973.968 2026.18 973.476 2025.5 972.884 2025.05 972.291 2024.61 971.611 2024.39 970.843 2024.39ZM970.921 2022.49C972.47 2022.49 973.795 2022.78 974.896 2023.36 975.996 2023.94 976.894 2024.77 977.591 2025.84 978.287 2026.92 978.799 2028.23 979.124 2029.78 979.45 2031.33 979.612 2033.08 979.612 2035.03 979.612 2039.37 978.844 2042.65 977.308 2044.87 975.771 2047.09 973.545 2048.2 970.628 2048.2 967.737 2048.2 965.589 2047.15 964.183 2045.05 962.776 2042.96 962.073 2039.78 962.073 2035.52 962.073 2033.3 962.291 2031.37 962.728 2029.74 963.164 2028.11 963.776 2026.76 964.563 2025.69 965.351 2024.61 966.285 2023.81 967.366 2023.29 968.447 2022.76 969.632 2022.49 970.921 2022.49Z" fill-rule="evenodd"/><text fill="#000000" fill-opacity="0" font-family="Arial,Arial_MSFontService,sans-serif" font-size="25.703" x="962.073" y="2044.98">0</text><path d="M995.542 2004.25 999.249 2004.25 997.771 2010.88 1005.94 2010.88 1005.34 2013.6 997.181 2013.6 994.791 2024.02C994.325 2026.04 994.03 2027.49 993.904 2028.38 993.779 2029.27 993.716 2029.98 993.716 2030.52 993.716 2032.74 994.638 2033.85 996.482 2033.85 997.27 2033.85 998.107 2033.55 998.993 2032.95 999.88 2032.35 1000.93 2031.32 1002.15 2029.87L1003.71 2031.48C1002.15 2033.36 1000.65 2034.75 999.208 2035.64 997.767 2036.54 996.259 2036.99 994.683 2036.99 990.941 2036.99 989.07 2035.1 989.07 2031.32 989.07 2030.12 989.222 2028.86 989.527 2027.53L992.696 2013.6 988.184 2013.6 988.587 2011.74C989.643 2011.73 990.444 2011.65 990.99 2011.5 991.537 2011.36 991.993 2011.16 992.36 2010.91 992.727 2010.66 993.063 2010.3 993.367 2009.84 993.672 2009.37 993.967 2008.78 994.253 2008.05 994.54 2007.33 994.97 2006.06 995.542 2004.25Z" fill-rule="evenodd"/><text fill="#000000" fill-opacity="0" font-family="Arial,Arial_MSFontService,sans-serif" font-size="32.7368" x="988.184" y="2032.9">𝑡</text><path d="M850.058 1519.81C847.891 1519.81 846.231 1520.75 845.076 1522.63 843.921 1524.51 843.344 1527.19 843.344 1530.66 843.344 1534.35 843.93 1537.19 845.103 1539.16 846.275 1541.14 847.954 1542.13 850.138 1542.13 851.338 1542.13 852.358 1541.84 853.2 1541.26 854.041 1540.68 854.726 1539.89 855.254 1538.91 855.782 1537.92 856.163 1536.78 856.396 1535.49 856.628 1534.19 856.745 1532.83 856.745 1531.42 856.745 1528.78 856.454 1526.6 855.872 1524.86 855.29 1523.13 854.498 1521.85 853.495 1521.04 852.492 1520.22 851.347 1519.81 850.058 1519.81ZM877.473 1517.69C878.655 1517.69 879.796 1517.75 880.897 1517.87 881.998 1517.98 883.381 1518.21 885.046 1518.55L885.046 1524.03 882.468 1524.03C882.074 1522.96 881.609 1522.11 881.072 1521.49 880.535 1520.88 879.926 1520.44 879.246 1520.19 878.565 1519.94 877.733 1519.81 876.748 1519.81 875.316 1519.81 874.174 1520.15 873.324 1520.82 872.474 1521.49 872.048 1522.41 872.048 1523.57 872.048 1524.4 872.218 1525.08 872.559 1525.62 872.899 1526.15 873.427 1526.65 874.143 1527.12 874.859 1527.59 876.121 1528.2 877.93 1528.97 879.756 1529.76 881.166 1530.49 882.159 1531.15 883.153 1531.81 883.932 1532.58 884.496 1533.46 885.06 1534.33 885.342 1535.38 885.342 1536.6 885.342 1538.01 885.1 1539.2 884.617 1540.17 884.133 1541.14 883.453 1541.93 882.576 1542.53 881.698 1543.14 880.656 1543.58 879.447 1543.85 878.239 1544.12 876.918 1544.25 875.486 1544.25 873.982 1544.25 872.523 1544.14 871.108 1543.92 869.694 1543.69 868.315 1543.4 866.973 1543.04L866.973 1537.43 869.604 1537.43C870.088 1539.08 870.804 1540.27 871.753 1541.02 872.702 1541.76 874.009 1542.13 875.674 1542.13 876.318 1542.13 876.949 1542.06 877.567 1541.93 878.185 1541.8 878.735 1541.57 879.219 1541.26 879.702 1540.95 880.087 1540.52 880.374 1539.98 880.66 1539.45 880.803 1538.77 880.803 1537.97 880.803 1537.06 880.624 1536.31 880.266 1535.74 879.908 1535.17 879.353 1534.64 878.601 1534.17 877.849 1533.69 876.524 1533.05 874.626 1532.25 872.997 1531.57 871.69 1530.91 870.706 1530.26 869.721 1529.62 868.947 1528.86 868.383 1527.98 867.819 1527.1 867.537 1526.06 867.537 1524.86 867.537 1523.4 867.935 1522.12 868.732 1521.04 869.528 1519.95 870.679 1519.13 872.183 1518.55 873.687 1517.98 875.45 1517.69 877.473 1517.69ZM850.165 1517.69C853.996 1517.69 856.897 1518.81 858.866 1521.04 860.836 1523.27 861.82 1526.47 861.82 1530.64 861.82 1533.61 861.328 1536.12 860.343 1538.16 859.359 1540.2 857.962 1541.72 856.154 1542.74 854.346 1543.75 852.206 1544.25 849.735 1544.25 846.011 1544.25 843.169 1543.16 841.209 1540.96 839.248 1538.77 838.268 1535.53 838.268 1531.23 838.268 1528.27 838.783 1525.78 839.812 1523.74 840.842 1521.69 842.252 1520.18 844.042 1519.18 845.832 1518.19 847.873 1517.69 850.165 1517.69ZM826.246 1517.69C827.714 1517.69 829.07 1517.78 830.314 1517.95 831.559 1518.12 832.807 1518.39 834.061 1518.77L834.061 1524.38 830.65 1524.38C830.346 1523.22 829.97 1522.3 829.522 1521.63 829.074 1520.96 828.555 1520.49 827.964 1520.22 827.374 1519.95 826.639 1519.81 825.762 1519.81 824.509 1519.81 823.399 1520.22 822.432 1521.02 821.465 1521.83 820.7 1523.06 820.136 1524.7 819.572 1526.35 819.29 1528.36 819.29 1530.75 819.29 1532.27 819.397 1533.66 819.612 1534.92 819.827 1536.18 820.194 1537.26 820.713 1538.16 821.233 1539.05 821.922 1539.75 822.781 1540.25 823.641 1540.75 824.706 1541 825.977 1541 827.212 1541 828.363 1540.76 829.428 1540.28 830.493 1539.8 831.599 1538.94 832.745 1537.73L834.275 1539.5C833.362 1540.5 832.557 1541.28 831.858 1541.82 831.16 1542.37 830.413 1542.83 829.616 1543.19 828.819 1543.56 828.031 1543.83 827.253 1544 826.474 1544.17 825.628 1544.25 824.715 1544.25 821.331 1544.25 818.744 1543.13 816.954 1540.88 815.163 1538.64 814.268 1535.39 814.268 1531.15 814.268 1528.5 814.769 1526.15 815.772 1524.1 816.775 1522.05 818.18 1520.47 819.988 1519.36 821.797 1518.25 823.882 1517.69 826.246 1517.69Z" fill-rule="evenodd"/><text fill="#000000" fill-opacity="0" font-family="Arial,Arial_MSFontService,sans-serif" font-size="26.5601" x="814.268" y="1540.93">cos</text><path d="M911.915 1517.69 913.284 1519.52C910.563 1521.74 908.432 1524.25 906.893 1527.05 905.353 1529.85 904.583 1532.75 904.583 1535.74 904.583 1537.8 904.972 1539.38 905.751 1540.48 906.53 1541.58 907.627 1542.13 909.041 1542.13 910.366 1542.13 911.494 1541.59 912.425 1540.52 913.356 1539.45 914.045 1537.87 914.493 1535.79L916.695 1525.67 921.207 1525.67 919.166 1534.91C918.933 1535.96 918.816 1536.95 918.816 1537.86 918.816 1539.29 919.125 1540.36 919.743 1541.07 920.361 1541.78 921.233 1542.13 922.361 1542.13 923.847 1542.13 925.163 1541.59 926.309 1540.51 927.455 1539.42 928.346 1537.84 928.981 1535.77 929.617 1533.69 929.935 1531.27 929.935 1528.52 929.935 1526.89 929.711 1525.22 929.263 1523.51 928.816 1521.8 928.189 1520.38 927.383 1519.25L929.209 1517.69C931 1519.39 932.347 1521.27 933.251 1523.31 934.155 1525.35 934.607 1527.54 934.607 1529.89 934.607 1532.52 934.088 1534.94 933.05 1537.16 932.011 1539.38 930.539 1541.12 928.632 1542.37 926.725 1543.63 924.546 1544.25 922.093 1544.25 919.121 1544.25 917.089 1542.79 915.997 1539.85L915.889 1539.85C915.263 1540.83 914.605 1541.63 913.915 1542.23 913.226 1542.83 912.362 1543.31 911.324 1543.69 910.285 1544.07 909.05 1544.25 907.618 1544.25 906.239 1544.25 904.972 1543.94 903.818 1543.33 902.663 1542.71 901.727 1541.74 901.011 1540.43 900.295 1539.11 899.937 1537.49 899.937 1535.58 899.937 1532.32 900.984 1529.12 903.079 1525.99 905.174 1522.86 908.119 1520.09 911.915 1517.69Z" fill-rule="evenodd"/><text fill="#000000" fill-opacity="0" font-family="Arial,Arial_MSFontService,sans-serif" font-size="26.5601" x="899.937" y="1540.93">𝜔</text><path d="M949.072 1531.65C948.161 1531.65 947.399 1531.89 946.787 1532.37 946.175 1532.84 945.69 1533.54 945.332 1534.46 944.974 1535.38 944.72 1536.49 944.57 1537.82 944.42 1539.14 944.345 1540.64 944.345 1542.32 944.345 1544.26 944.44 1545.94 944.629 1547.35 944.817 1548.76 945.11 1549.92 945.508 1550.83 945.905 1551.75 946.403 1552.42 947.002 1552.85 947.601 1553.28 948.317 1553.49 949.15 1553.49 949.931 1553.49 950.615 1553.29 951.201 1552.88 951.787 1552.48 952.272 1551.85 952.656 1551 953.04 1550.15 953.33 1549.07 953.525 1547.76 953.72 1546.45 953.818 1544.9 953.818 1543.12 953.818 1541.11 953.711 1539.39 953.496 1537.94 953.281 1536.5 952.978 1535.31 952.588 1534.38 952.197 1533.45 951.705 1532.76 951.113 1532.32 950.521 1531.88 949.84 1531.65 949.072 1531.65ZM949.15 1529.76C950.7 1529.76 952.024 1530.05 953.125 1530.63 954.225 1531.21 955.123 1532.04 955.82 1533.11 956.517 1534.18 957.028 1535.5 957.353 1537.05 957.679 1538.59 957.841 1540.35 957.841 1542.3 957.841 1546.63 957.073 1549.91 955.537 1552.13 954 1554.35 951.774 1555.46 948.857 1555.46 945.966 1555.46 943.818 1554.41 942.412 1552.32 941.006 1550.22 940.302 1547.05 940.302 1542.79 940.302 1540.56 940.521 1538.63 940.957 1537.01 941.393 1535.38 942.005 1534.03 942.793 1532.95 943.58 1531.88 944.515 1531.08 945.595 1530.55 946.676 1530.02 947.861 1529.76 949.15 1529.76Z" fill-rule="evenodd"/><text fill="#000000" fill-opacity="0" font-family="Arial,Arial_MSFontService,sans-serif" font-size="25.7031" x="940.302" y="1552.25">0</text><path d="M973.772 1511.52 977.478 1511.52 976.001 1518.15 984.165 1518.15 983.574 1520.86 975.41 1520.86 973.02 1531.28C972.554 1533.31 972.259 1534.76 972.133 1535.65 972.008 1536.53 971.945 1537.24 971.945 1537.78 971.945 1540 972.868 1541.11 974.712 1541.11 975.499 1541.11 976.336 1540.81 977.223 1540.21 978.109 1539.61 979.161 1538.59 980.378 1537.14L981.936 1538.75C980.378 1540.63 978.879 1542.02 977.437 1542.91 975.996 1543.81 974.488 1544.25 972.912 1544.25 969.17 1544.25 967.299 1542.36 967.299 1538.59 967.299 1537.39 967.452 1536.13 967.756 1534.8L970.925 1520.86 966.413 1520.86 966.816 1519.01C967.872 1518.99 968.674 1518.91 969.22 1518.77 969.766 1518.62 970.222 1518.43 970.589 1518.18 970.956 1517.93 971.292 1517.57 971.596 1517.1 971.901 1516.64 972.196 1516.04 972.483 1515.32 972.769 1514.59 973.199 1513.32 973.772 1511.52Z" fill-rule="evenodd"/><text fill="#000000" fill-opacity="0" font-family="Arial,Arial_MSFontService,sans-serif" font-size="32.7368" x="966.413" y="1540.16">𝑡</text><path d="M3.43658-0.0794103 4.10479 28.838-2.76838 28.9968-3.43658 0.0794103ZM23.4729 23.8059 1.62113 70.1564-22.3482 24.8647Z" transform="matrix(1 0 0 -1 314.5 1967.66)"/><path d="M3.43662-0.0776927 4.12544 30.3911-2.74781 30.5465-3.43662 0.0776927ZM23.496 25.3687 1.62113 71.7082-22.3256 26.4046Z" transform="matrix(1 0 0 -1 907.5 1967.21)"/><path d="M910.938 1574.5 910.938 1609.07 904.063 1609.07 904.062 1574.5ZM930.417 1604.48 907.5 1650.32 884.583 1604.48Z"/><path d="M317.938 1572.5 317.938 1611.6 311.063 1611.6 311.063 1572.5ZM337.417 1607.02 314.5 1652.85 291.584 1607.02Z"/><path d="M671.836 1665.66C673.501 1665.66 675.019 1665.76 676.388 1665.96 677.758 1666.15 679.123 1666.49 680.484 1666.98L679.275 1672.62 677.1 1672.62C676.903 1671.02 676.379 1669.82 675.529 1668.99 674.678 1668.17 673.34 1667.76 671.514 1667.76 670.1 1667.76 668.954 1668.12 668.076 1668.84 667.199 1669.57 666.76 1670.52 666.76 1671.7 666.76 1672.35 666.872 1672.92 667.096 1673.41 667.32 1673.9 667.772 1674.44 668.452 1675.03 669.133 1675.63 670.189 1676.35 671.621 1677.21 672.749 1677.89 673.653 1678.51 674.334 1679.08 675.014 1679.64 675.551 1680.2 675.945 1680.76 676.339 1681.31 676.625 1681.9 676.804 1682.51 676.983 1683.13 677.073 1683.88 677.073 1684.76 677.073 1686.35 676.648 1687.72 675.797 1688.85 674.947 1689.99 673.792 1690.83 672.333 1691.39 670.874 1691.94 669.213 1692.22 667.351 1692.22 665.865 1692.22 664.406 1692.11 662.974 1691.89 661.542 1691.66 659.948 1691.28 658.194 1690.75L659.483 1684.89 661.577 1684.89C661.649 1686.61 662.132 1687.91 663.028 1688.78 663.923 1689.66 665.346 1690.1 667.298 1690.1 668.998 1690.1 670.328 1689.72 671.286 1688.96 672.243 1688.2 672.722 1687.12 672.722 1685.72 672.722 1684.92 672.588 1684.22 672.32 1683.64 672.051 1683.06 671.612 1682.5 671.004 1681.96 670.395 1681.43 669.428 1680.76 668.103 1679.95 666.707 1679.11 665.619 1678.35 664.84 1677.67 664.062 1676.99 663.475 1676.25 663.081 1675.45 662.687 1674.65 662.49 1673.74 662.49 1672.7 662.49 1671.28 662.871 1670.04 663.632 1668.98 664.393 1667.91 665.48 1667.09 666.895 1666.52 668.309 1665.95 669.956 1665.66 671.836 1665.66Z" fill-rule="evenodd"/><text fill="#000000" fill-opacity="0" font-family="Arial,Arial_MSFontService,sans-serif" font-size="26.5601" x="658.194" y="1688.9">𝑠</text><path d="M730.876 1650.58C736.103 1651.95 740.118 1654.93 742.92 1659.51 745.722 1664.08 747.123 1669.6 747.123 1676.06 747.123 1682.54 745.727 1688.06 742.934 1692.62 740.141 1697.18 736.121 1700.14 730.876 1701.52L730.231 1699.45C734.367 1698.07 737.442 1695.35 739.456 1691.29 741.47 1687.23 742.477 1682.06 742.477 1675.79 742.477 1669.74 741.475 1664.72 739.469 1660.71 737.464 1656.71 734.358 1654.02 730.151 1652.64ZM704.264 1650.58 704.989 1652.64C700.799 1654.02 697.697 1656.71 695.683 1660.71 693.669 1664.72 692.662 1669.74 692.662 1675.79 692.662 1682.06 693.669 1687.23 695.683 1691.29 697.697 1695.35 700.772 1698.07 704.908 1699.45L704.264 1701.52C699.018 1700.14 694.998 1697.18 692.206 1692.62 689.413 1688.06 688.016 1682.54 688.016 1676.06 688.016 1669.6 689.417 1664.08 692.219 1659.51 695.021 1654.93 699.036 1651.95 704.264 1650.58Z" fill-rule="evenodd"/><path d="M716.508 1659.46 720.214 1659.46 718.737 1666.09 726.901 1666.09 726.31 1668.8 718.146 1668.8 715.756 1679.22C715.29 1681.25 714.995 1682.7 714.869 1683.59 714.744 1684.47 714.681 1685.19 714.681 1685.72 714.681 1687.94 715.603 1689.05 717.448 1689.05 718.235 1689.05 719.072 1688.75 719.958 1688.15 720.845 1687.55 721.897 1686.53 723.114 1685.08L724.672 1686.69C723.114 1688.57 721.615 1689.96 720.173 1690.85 718.732 1691.75 717.224 1692.2 715.648 1692.2 711.906 1692.2 710.035 1690.31 710.035 1686.53 710.035 1685.33 710.188 1684.07 710.492 1682.74L713.661 1668.8 709.149 1668.8 709.552 1666.95C710.608 1666.93 711.409 1666.85 711.956 1666.71 712.502 1666.57 712.958 1666.37 713.325 1666.12 713.692 1665.87 714.028 1665.51 714.332 1665.04 714.637 1664.58 714.932 1663.98 715.219 1663.26 715.505 1662.53 715.935 1661.27 716.508 1659.46Z" fill-rule="evenodd"/><text fill="#000000" fill-opacity="0" font-family="Arial,Arial_MSFontService,sans-serif" font-size="32.7368" x="709.149" y="1688.1">𝑡</text><rect x="1059" y="1626" width="129" height="121" fill="#D74514"/><path d="M1133.91 1648.8C1134.55 1648.8 1135.13 1648.86 1135.66 1648.98 1136.18 1649.09 1136.62 1649.23 1136.98 1649.4L1136.64 1653.18 1134.63 1653.18C1134.6 1652.51 1134.45 1652.01 1134.2 1651.67 1133.95 1651.32 1133.48 1651.15 1132.81 1651.15 1131.12 1651.15 1129.9 1653.05 1129.12 1656.84 1128.35 1660.64 1127.66 1671.11 1127.05 1688.26 1126.43 1703.69 1125.24 1714.24 1123.46 1719.9 1121.68 1725.56 1119.28 1728.39 1116.26 1728.39 1115.65 1728.39 1115.08 1728.34 1114.56 1728.24 1114.04 1728.15 1113.59 1727.99 1113.19 1727.77L1113.53 1723.82 1115.36 1723.82C1115.54 1724.61 1115.77 1725.17 1116.06 1725.49 1116.35 1725.81 1116.79 1725.97 1117.38 1725.97 1118.46 1725.97 1119.51 1724.09 1120.51 1720.35 1121.51 1716.6 1122.29 1706.8 1122.86 1690.95 1123.55 1673.75 1124.68 1662.43 1126.22 1656.98 1127.77 1651.53 1130.33 1648.8 1133.91 1648.8Z" fill="#FFFFFF" fill-rule="evenodd"/><text fill="#000000" fill-opacity="0" font-family="Arial,Arial_MSFontService,sans-serif" font-size="79.5825" x="1113.19" y="1718.44">න</text><rect x="1055" y="1800" width="129" height="121" fill="#D74514"/><path d="M1130.24 1822.54C1130.88 1822.54 1131.46 1822.6 1131.98 1822.72 1132.51 1822.83 1132.95 1822.97 1133.31 1823.14L1132.97 1826.92 1130.96 1826.92C1130.92 1826.25 1130.78 1825.75 1130.53 1825.41 1130.27 1825.06 1129.81 1824.89 1129.14 1824.89 1127.45 1824.89 1126.22 1826.79 1125.45 1830.58 1124.68 1834.38 1123.99 1844.85 1123.37 1862 1122.76 1877.43 1121.56 1887.97 1119.79 1893.64 1118.01 1899.3 1115.61 1902.13 1112.59 1902.13 1111.97 1902.13 1111.41 1902.08 1110.89 1901.98 1110.37 1901.89 1109.91 1901.73 1109.52 1901.51L1109.86 1897.56 1111.68 1897.56C1111.86 1898.35 1112.1 1898.91 1112.39 1899.23 1112.68 1899.55 1113.12 1899.71 1113.71 1899.71 1114.79 1899.71 1115.83 1897.83 1116.83 1894.09 1117.83 1890.34 1118.62 1880.54 1119.18 1864.69 1119.88 1847.49 1121 1836.17 1122.55 1830.72 1124.1 1825.27 1126.66 1822.54 1130.24 1822.54Z" fill="#FFFFFF" fill-rule="evenodd"/><text fill="#000000" fill-opacity="0" font-family="Arial,Arial_MSFontService,sans-serif" font-size="79.5825" x="1109.52" y="1892.18">න</text><path d="M1188.5 1681.06 1262.6 1681.06 1262.6 1687.94 1188.5 1687.94ZM1258.02 1661.58 1303.85 1684.5 1258.02 1707.42Z"/><path d="M1184.5 1860.06 1258.6 1860.06 1258.6 1866.94 1184.5 1866.94ZM1254.02 1840.58 1299.85 1863.5 1254.02 1886.42Z"/></g></svg>