<svg xmlns="http://www.w3.org/2000/svg" width="1195" height="1129" overflow="hidden"><defs><clipPath id="a"><path d="M1468 1263h1195v1129H1468z"/></clipPath></defs><g clip-path="url(#a)" transform="translate(-1468 -1263)"><path fill="none" stroke="#5d1709" stroke-miterlimit="8" stroke-width="9.167" d="M1749.5 1479.5h576.58m-576.58 203h576.58m-579.58 345h576.58"/><path fill="#5d1709" d="M1746.5 2224.92h535.33v9.16H1746.5Zm530.74-18.34 45.84 22.92-45.84 22.92Z"/><path fill="none" stroke="#5d1709" stroke-miterlimit="8" stroke-width="9.167" d="M1705.5 1523.5v115.12m663.63 86.88-2.632 344.761m-662.998.239v202.42"/><path fill="none" stroke="#000" stroke-miterlimit="8" stroke-width="9.167" d="M1468.5 1841.5h1189.38m-630.38 550.44V1288.5"/><path fill="#d74514" fill-rule="evenodd" d="M2134 1479.5c0-24.02 19.7-43.5 44-43.5s44 19.48 44 43.5-19.7 43.5-44 43.5-44-19.48-44-43.5"/><text fill="#d74514" font-family="Microsoft YaHei,Microsoft YaHei_MSFontService,sans-serif" font-size="55" font-weight="700" transform="translate(2104.89 1418)">0001</text><path fill-rule="evenodd" d="M2604.76 1900.31h14.26l-.39 1.75c-.9.19-1.55.4-1.94.64-.4.24-.75.59-1.05 1.07-.31.47-.63 1.22-.97 2.23-.33 1.01-.75 2.65-1.24 4.93l-6.1 27.66c-.31 1.41-.51 2.52-.61 3.34-.09.82-.14 1.56-.14 2.22 0 1.07.27 1.83.8 2.27.54.44 1.44.7 2.69.8l-.39 1.75h-14.26l.4-1.75c.9-.14 1.58-.37 2.03-.7.45-.32.83-.76 1.14-1.33s.59-1.27.85-2.09c.27-.82.66-2.4 1.18-4.76l6.06-27.44c.52-2.38.78-4.29.78-5.74 0-1.12-.27-1.9-.83-2.34-.56-.43-1.45-.69-2.66-.76Z"/><text x="2595.42" y="1942.88" fill-opacity="0" font-family="Arial,Arial_MSFontService,sans-serif" font-size="48.655">𝐼</text><path fill-rule="evenodd" d="M2100.04 1305.15c-2.57 0-4.96.91-7.19 2.74-2.22 1.83-4.17 4.45-5.84 7.85-1.68 3.39-2.98 7.12-3.91 11.19-.92 4.06-1.39 7.65-1.39 10.76 0 7.35 2.68 11.02 8.02 11.02q4.965 0 9.09-4.62c2.76-3.08 4.98-7.34 6.67-12.78s2.53-10.52 2.53-15.25c0-3.54-.65-6.25-1.96-8.11-1.31-1.87-3.32-2.8-6.02-2.8m.39-3.14c4.58 0 8.12 1.33 10.6 3.99 2.49 2.67 3.73 6.52 3.73 11.55 0 3.33-.53 7.05-1.57 11.16-1.05 4.11-2.48 7.74-4.31 10.89s-3.95 5.68-6.37 7.61q-3.615 2.88-7.86 3.99c.55 1.74 1.06 3.17 1.54 4.3.47 1.13.93 2.04 1.37 2.74s.87 1.23 1.3 1.57.86.58 1.28.69q.645.18 1.5.18c.9 0 1.82-.26 2.74-.78.93-.52 1.96-1.43 3.11-2.71l1.85 2q-2.85 3.09-5.31 4.38c-1.64.86-3.33 1.28-5.06 1.28q-2.97 0-4.83-1.32c-1.25-.87-2.33-2.28-3.25-4.2-.91-1.93-1.8-4.45-2.65-7.56-4.3-.24-7.58-1.66-9.84-4.28-2.26-2.61-3.39-6.29-3.39-11.05 0-3.56.6-7.59 1.8-12.08s2.94-8.45 5.21-11.89c2.27-3.43 4.98-6.03 8.12-7.8 3.15-1.77 6.58-2.66 10.29-2.66"/><text x="2075.01" y="1357" fill-opacity="0" font-family="Arial,Arial_MSFontService,sans-serif" font-size="62.841">𝑄</text><path fill="#d74514" fill-rule="evenodd" d="M1662 1479.5c0-24.02 19.48-43.5 43.5-43.5s43.5 19.48 43.5 43.5-19.48 43.5-43.5 43.5-43.5-19.48-43.5-43.5"/><text fill="#d74514" font-family="Microsoft YaHei,Microsoft YaHei_MSFontService,sans-serif" font-size="55" font-weight="700" transform="translate(1632.08 1418)">0010</text><path fill="#d74514" fill-rule="evenodd" d="M2325 1479.5c0-24.02 19.7-43.5 44-43.5s44 19.48 44 43.5-19.7 43.5-44 43.5-44-19.48-44-43.5"/><text fill="#d74514" font-family="Microsoft YaHei,Microsoft YaHei_MSFontService,sans-serif" font-size="55" font-weight="700" transform="translate(2295.95 1418)">0000</text><path fill="#d74514" fill-rule="evenodd" d="M1853 1479.5c0-24.02 19.48-43.5 43.5-43.5s43.5 19.48 43.5 43.5-19.48 43.5-43.5 43.5-43.5-19.48-43.5-43.5"/><text fill="#d74514" font-family="Microsoft YaHei,Microsoft YaHei_MSFontService,sans-serif" font-size="55" font-weight="700" transform="translate(1823.14 1418)">0011</text><path fill="#d74514" fill-rule="evenodd" d="M2134 1681.5c0-24.02 19.7-43.5 44-43.5s44 19.48 44 43.5-19.7 43.5-44 43.5-44-19.48-44-43.5"/><text fill="#d74514" font-family="Microsoft YaHei,Microsoft YaHei_MSFontService,sans-serif" font-size="55" font-weight="700" transform="translate(2104.89 1618)">0101</text><path fill="#d74514" fill-rule="evenodd" d="M1662 1681.5c0-24.02 19.48-43.5 43.5-43.5s43.5 19.48 43.5 43.5-19.48 43.5-43.5 43.5-43.5-19.48-43.5-43.5"/><text fill="#d74514" font-family="Microsoft YaHei,Microsoft YaHei_MSFontService,sans-serif" font-size="55" font-weight="700" transform="translate(1632.08 1618)">0110</text><path fill="#d74514" fill-rule="evenodd" d="M2325 1681.5c0-24.02 19.7-43.5 44-43.5s44 19.48 44 43.5-19.7 43.5-44 43.5-44-19.48-44-43.5"/><text fill="#d74514" font-family="Microsoft YaHei,Microsoft YaHei_MSFontService,sans-serif" font-size="55" font-weight="700" transform="translate(2295.95 1618)">0100</text><path fill="#d74514" fill-rule="evenodd" d="M1853 1681.5c0-24.02 19.48-43.5 43.5-43.5s43.5 19.48 43.5 43.5-19.48 43.5-43.5 43.5-43.5-19.48-43.5-43.5"/><text fill="#d74514" font-family="Microsoft YaHei,Microsoft YaHei_MSFontService,sans-serif" font-size="55" font-weight="700" transform="translate(1823.14 1618)">0111</text><path fill="#d74514" fill-rule="evenodd" d="M2132 2026.5c0-24.02 19.48-43.5 43.5-43.5s43.5 19.48 43.5 43.5-19.48 43.5-43.5 43.5-43.5-19.48-43.5-43.5"/><text fill="#d74514" font-family="Microsoft YaHei,Microsoft YaHei_MSFontService,sans-serif" font-size="55" font-weight="700" transform="translate(2102.26 1965)">110<tspan x="101.406" y="0">1</tspan></text><path fill="#d74514" fill-rule="evenodd" d="M1659 2026.5c0-24.02 19.48-43.5 43.5-43.5s43.5 19.48 43.5 43.5-19.48 43.5-43.5 43.5-43.5-19.48-43.5-43.5"/><text fill="#d74514" font-family="Microsoft YaHei,Microsoft YaHei_MSFontService,sans-serif" font-size="55" font-weight="700" transform="translate(1629.44 1965)">1110</text><path fill="#d74514" fill-rule="evenodd" d="M2323 2026.5c0-24.02 19.48-43.5 43.5-43.5s43.5 19.48 43.5 43.5-19.48 43.5-43.5 43.5-43.5-19.48-43.5-43.5"/><text fill="#d74514" font-family="Microsoft YaHei,Microsoft YaHei_MSFontService,sans-serif" font-size="55" font-weight="700" transform="translate(2293.32 1965)">1100</text><path fill="#d74514" fill-rule="evenodd" d="M1850 2026.5c0-24.02 19.48-43.5 43.5-43.5s43.5 19.48 43.5 43.5-19.48 43.5-43.5 43.5-43.5-19.48-43.5-43.5"/><text fill="#d74514" font-family="Microsoft YaHei,Microsoft YaHei_MSFontService,sans-serif" font-size="55" font-weight="700" transform="translate(1820.51 1965)">111<tspan x="101.406" y="0">1</tspan></text><path fill="#d74514" fill-rule="evenodd" d="M2132 2229c0-24.3 19.48-44 43.5-44s43.5 19.7 43.5 44-19.48 44-43.5 44-43.5-19.7-43.5-44"/><text fill="#d74514" font-family="Microsoft YaHei,Microsoft YaHei_MSFontService,sans-serif" font-size="55" font-weight="700" transform="translate(2102.26 2165)">1001</text><path fill="#d74514" fill-rule="evenodd" d="M1659 2229c0-24.3 19.48-44 43.5-44s43.5 19.7 43.5 44-19.48 44-43.5 44-43.5-19.7-43.5-44"/><text fill="#d74514" font-family="Microsoft YaHei,Microsoft YaHei_MSFontService,sans-serif" font-size="55" font-weight="700" transform="translate(1629.44 2165)">1010</text><path fill="#d74514" fill-rule="evenodd" d="M2323 2229c0-24.3 19.48-44 43.5-44s43.5 19.7 43.5 44-19.48 44-43.5 44-43.5-19.7-43.5-44"/><text fill="#d74514" font-family="Microsoft YaHei,Microsoft YaHei_MSFontService,sans-serif" font-size="55" font-weight="700" transform="translate(2293.32 2165)">1000</text><path fill="#d74514" fill-rule="evenodd" d="M1850 2229c0-24.3 19.48-44 43.5-44s43.5 19.7 43.5 44-19.48 44-43.5 44-43.5-19.7-43.5-44"/><text fill="#d74514" font-family="Microsoft YaHei,Microsoft YaHei_MSFontService,sans-serif" font-size="55" font-weight="700" transform="translate(1820.51 2165)">1011</text></g></svg>