<svg xmlns="http://www.w3.org/2000/svg" width="1195" height="1129" overflow="hidden"><defs><clipPath id="a"><path d="M3007 77h1195v1129H3007z"/></clipPath></defs><g clip-path="url(#a)" transform="translate(-3007 -77)"><path fill="none" stroke="#000" stroke-miterlimit="8" stroke-width="9.167" d="M3007.5 656.5h1189.38m-630.38 549.44V102.5"/><path fill="#d74514" fill-rule="evenodd" d="M3892 522c0-24.3 19.48-44 43.5-44s43.5 19.7 43.5 44-19.48 44-43.5 44-43.5-19.699-43.5-44"/><text fill="#d74514" font-family="Microsoft YaHei,Microsoft YaHei_MSFontService,sans-serif" font-size="73" font-weight="700" transform="translate(3862.3 435)">000</text><path fill-rule="evenodd" d="M4144.05 714.715h14.26l-.4 1.746c-.9.191-1.55.404-1.94.642q-.585.357-1.05 1.069-.465.713-.96 2.228c-.34 1.01-.75 2.656-1.25 4.937l-6.1 27.66c-.3 1.402-.51 2.513-.6 3.333-.1.82-.14 1.562-.14 2.228 0 1.069.26 1.823.8 2.263.53.44 1.43.707 2.69.802l-.39 1.747h-14.26l.39-1.747c.9-.143 1.58-.374 2.03-.695q.675-.481 1.14-1.337c.31-.57.6-1.265.86-2.085s.65-2.406 1.18-4.758l6.06-27.447q.78-3.564.78-5.739 0-1.675-.84-2.334c-.56-.44-1.44-.695-2.65-.767Z"/><text x="4134.71" y="757.288" fill-opacity="0" font-family="Arial,Arial_MSFontService,sans-serif" font-size="48.655">𝐼</text><path fill-rule="evenodd" d="M3639.32 119.552c-2.57 0-4.96.915-7.18 2.745q-3.33 2.745-5.85 7.842-2.505 5.097-3.9 11.192c-.93 4.063-1.39 7.652-1.39 10.765 0 7.342 2.67 11.014 8.02 11.014q4.95 0 9.09-4.616c2.75-3.077 4.98-7.337 6.66-12.779 1.69-5.441 2.53-10.527 2.53-15.256 0-3.54-.65-6.243-1.96-8.109-1.3-1.865-3.31-2.798-6.02-2.798m.39-3.137c4.59 0 8.12 1.331 10.61 3.993q3.72 3.992 3.72 11.548c0 3.327-.52 7.046-1.57 11.157-1.04 4.111-2.48 7.741-4.31 10.89q-2.745 4.722-6.36 7.61t-7.86 3.992c.54 1.735 1.06 3.166 1.53 4.295.48 1.129.93 2.044 1.37 2.745s.88 1.224 1.3 1.568q.645.517 1.29.695c.42.119.92.178 1.49.178.91 0 1.82-.261 2.75-.784s1.96-1.426 3.1-2.709l1.85 1.996q-2.85 3.102-5.31 4.385c-1.64.855-3.32 1.283-5.06 1.283q-2.955 0-4.83-1.319t-3.24-4.206c-.92-1.925-1.8-4.444-2.66-7.557q-6.45-.356-9.84-4.277c-2.25-2.614-3.38-6.297-3.38-11.05q0-5.346 1.8-12.083c1.2-4.492 2.93-8.454 5.2-11.888q3.405-5.151 8.13-7.806c3.15-1.77 6.58-2.656 10.28-2.656"/><text x="3614.3" y="171.402" fill-opacity="0" font-family="Arial,Arial_MSFontService,sans-serif" font-size="62.841">𝑄</text><path fill="#d74514" fill-rule="evenodd" d="M3201 522c0-24.3 19.48-44 43.5-44s43.5 19.7 43.5 44-19.48 44-43.5 44-43.5-19.699-43.5-44"/><text fill="#d74514" font-family="Microsoft YaHei,Microsoft YaHei_MSFontService,sans-serif" font-size="73" font-weight="700" transform="translate(3171.07 435)">010</text><path fill="#d74514" fill-rule="evenodd" d="M3892 818.5c0-24.024 19.48-43.5 43.5-43.5s43.5 19.476 43.5 43.5-19.48 43.5-43.5 43.5-43.5-19.475-43.5-43.5"/><text fill="#d74514" font-family="Microsoft YaHei,Microsoft YaHei_MSFontService,sans-serif" font-size="73" font-weight="700" transform="translate(3862.3 732)">100</text><path fill="#d74514" fill-rule="evenodd" d="M3201 818.5c0-24.024 19.48-43.5 43.5-43.5s43.5 19.476 43.5 43.5-19.48 43.5-43.5 43.5-43.5-19.475-43.5-43.5"/><text fill="#d74514" font-family="Microsoft YaHei,Microsoft YaHei_MSFontService,sans-serif" font-size="73" font-weight="700" transform="translate(3171.07 732)">110</text><path fill="#d74514" fill-rule="evenodd" d="M3683 293.5c0-24.024 19.48-43.5 43.5-43.5s43.5 19.476 43.5 43.5-19.48 43.5-43.5 43.5-43.5-19.476-43.5-43.5"/><text fill="#d74514" font-family="Microsoft YaHei,Microsoft YaHei_MSFontService,sans-serif" font-size="73" font-weight="700" transform="translate(3653.3 207)">001</text><path fill="#d74514" fill-rule="evenodd" d="M3377 293.5c0-24.024 19.48-43.5 43.5-43.5s43.5 19.476 43.5 43.5-19.48 43.5-43.5 43.5-43.5-19.476-43.5-43.5"/><text fill="#d74514" font-family="Microsoft YaHei,Microsoft YaHei_MSFontService,sans-serif" font-size="73" font-weight="700" transform="translate(3347.07 207)">011</text><path fill="#d74514" fill-rule="evenodd" d="M3683 986.5c0-24.025 19.48-43.5 43.5-43.5s43.5 19.475 43.5 43.5c0 24.02-19.48 43.5-43.5 43.5s-43.5-19.48-43.5-43.5"/><text fill="#d74514" font-family="Microsoft YaHei,Microsoft YaHei_MSFontService,sans-serif" font-size="73" font-weight="700" transform="translate(3653.3 900)">101</text><path fill="#d74514" fill-rule="evenodd" d="M3377 986.5c0-24.025 19.48-43.5 43.5-43.5s43.5 19.475 43.5 43.5c0 24.02-19.48 43.5-43.5 43.5s-43.5-19.48-43.5-43.5"/><text fill="#d74514" font-family="Microsoft YaHei,Microsoft YaHei_MSFontService,sans-serif" font-size="73" font-weight="700" transform="translate(3347.07 900)">111</text><path fill="none" stroke="#000" stroke-dasharray="27.5 9.16667" stroke-miterlimit="8" stroke-width="9.167" d="m3133.5 241.5 846.34 826.46m-803.34-55.55 820.382-767.905"/></g></svg>