<svg xmlns="http://www.w3.org/2000/svg" width="1195" height="324" overflow="hidden"><defs><clipPath id="a"><path d="M2935 1616h1195v324H2935z"/></clipPath></defs><g clip-path="url(#a)" transform="translate(-2935 -1616)"><path fill="none" stroke="#000" stroke-miterlimit="8" stroke-width="9.167" d="M2935.5 1798.5h1189.38"/><path fill="#d74514" fill-rule="evenodd" d="M3834 1796.5c0-24.02 19.48-43.5 43.5-43.5s43.5 19.48 43.5 43.5-19.48 43.5-43.5 43.5-43.5-19.48-43.5-43.5"/><text fill="#d74514" font-family="Microsoft YaHei,Microsoft YaHei_MSFontService,sans-serif" font-size="73" font-weight="700" transform="translate(3821.73 1710)">3A</text><path fill-rule="evenodd" d="M4072.45 1857.2h14.26l-.4 1.75c-.9.19-1.55.4-1.94.64s-.74.59-1.05 1.07c-.31.47-.63 1.22-.96 2.23-.34 1.01-.75 2.65-1.25 4.93l-6.1 27.66c-.3 1.4-.51 2.52-.6 3.34-.1.81-.14 1.56-.14 2.22 0 1.07.26 1.83.8 2.27.53.44 1.43.7 2.69.8l-.39 1.74h-14.26l.39-1.74c.9-.14 1.58-.38 2.03-.7s.83-.76 1.14-1.33.6-1.27.86-2.09.65-2.4 1.18-4.76l6.05-27.44c.53-2.38.79-4.29.79-5.74q0-1.68-.84-2.34c-.56-.44-1.44-.69-2.65-.76Z"/><text x="4063.11" y="1899.77" fill-opacity="0" font-family="Arial,Arial_MSFontService,sans-serif" font-size="48.655">𝐼</text><path fill="#d74514" fill-rule="evenodd" d="M3143 1796.5c0-24.02 19.48-43.5 43.5-43.5s43.5 19.48 43.5 43.5-19.48 43.5-43.5 43.5-43.5-19.48-43.5-43.5"/><text fill="#d74514" font-family="Microsoft YaHei,Microsoft YaHei_MSFontService,sans-serif" font-size="73" font-weight="700" transform="translate(3114.46 1710)">-<tspan x="32.083" y="0">3A</tspan></text><path fill="#d74514" fill-rule="evenodd" d="M3373 1796.5c0-24.02 19.48-43.5 43.5-43.5s43.5 19.48 43.5 43.5-19.48 43.5-43.5 43.5-43.5-19.48-43.5-43.5m230 0c0-24.02 19.7-43.5 44-43.5s44 19.48 44 43.5-19.7 43.5-44 43.5-44-19.48-44-43.5"/><text fill="#d74514" font-family="Microsoft YaHei,Microsoft YaHei_MSFontService,sans-serif" font-size="73" font-weight="700" transform="translate(3373.03 1710)">-<tspan x="32.084" y="0">A</tspan><tspan x="246.451" y="0">A</tspan></text></g></svg>