<svg width="1195" height="1129" xmlns="http://www.w3.org/2000/svg" xmlns:xlink="http://www.w3.org/1999/xlink" overflow="hidden"><defs><clipPath id="clip0"><rect x="1421" y="1636" width="1195" height="1129"/></clipPath></defs><g clip-path="url(#clip0)" transform="translate(-1421 -1636)"><rect x="1980" y="1795" width="514" height="819" fill="#FDEFE8"/><path d="M1421.5 2214.5 2610.88 2214.5" stroke="#000000" stroke-width="9.16667" stroke-miterlimit="8" fill="none" fill-rule="evenodd"/><path d="M0 0 0.000360892 1103.44" stroke="#000000" stroke-width="9.16667" stroke-miterlimit="8" fill="none" fill-rule="evenodd" transform="matrix(1 0 0 -1 1980.5 2764.94)"/><path d="M2319 2212.5C2319 2188.48 2338.48 2169 2362.5 2169 2386.52 2169 2406 2188.48 2406 2212.5 2406 2236.52 2386.52 2256 2362.5 2256 2338.48 2256 2319 2236.52 2319 2212.5Z" fill="#D74514" fill-rule="evenodd"/><text fill="#D74514" font-family="Microsoft YaHei,Microsoft YaHei_MSFontService,sans-serif" font-weight="700" font-size="73" transform="matrix(1 0 0 1 2334.61 2126)">1</text><path d="M2557.83 2273.33 2572.08 2273.33 2571.69 2275.08C2570.79 2275.27 2570.14 2275.48 2569.75 2275.72 2569.36 2275.96 2569.01 2276.32 2568.7 2276.79 2568.39 2277.27 2568.07 2278.01 2567.74 2279.02 2567.4 2280.03 2566.99 2281.68 2566.49 2283.96L2560.39 2311.62C2560.08 2313.02 2559.88 2314.13 2559.79 2314.95 2559.69 2315.77 2559.64 2316.51 2559.64 2317.18 2559.64 2318.25 2559.91 2319 2560.45 2319.44 2560.98 2319.88 2561.88 2320.15 2563.14 2320.24L2562.75 2321.99 2548.49 2321.99 2548.88 2320.24C2549.78 2320.1 2550.46 2319.87 2550.91 2319.55 2551.36 2319.23 2551.74 2318.78 2552.05 2318.21 2552.36 2317.64 2552.65 2316.95 2552.91 2316.13 2553.17 2315.31 2553.56 2313.72 2554.08 2311.37L2560.14 2283.92C2560.67 2281.54 2560.93 2279.63 2560.93 2278.18 2560.93 2277.06 2560.65 2276.29 2560.09 2275.85 2559.53 2275.41 2558.65 2275.15 2557.43 2275.08Z" fill-rule="evenodd"/><text fill="#000000" fill-opacity="0" font-family="Arial,Arial_MSFontService,sans-serif" font-size="48.6548" x="2548.49" y="2315.91">𝐼</text><path d="M2053.1 1678.17C2050.53 1678.17 2048.14 1679.09 2045.92 1680.92 2043.69 1682.75 2041.75 1685.36 2040.07 1688.76 2038.4 1692.16 2037.09 1695.89 2036.17 1699.95 2035.24 1704.01 2034.78 1707.6 2034.78 1710.72 2034.78 1718.06 2037.45 1721.73 2042.8 1721.73 2046.1 1721.73 2049.13 1720.19 2051.89 1717.11 2054.64 1714.04 2056.86 1709.78 2058.55 1704.33 2060.24 1698.89 2061.08 1693.81 2061.08 1689.08 2061.08 1685.54 2060.43 1682.84 2059.12 1680.97 2057.82 1679.1 2055.81 1678.17 2053.1 1678.17ZM2053.49 1675.03C2058.08 1675.03 2061.61 1676.37 2064.09 1679.03 2066.58 1681.69 2067.82 1685.54 2067.82 1690.58 2067.82 1693.9 2067.3 1697.62 2066.25 1701.73 2065.21 1705.84 2063.77 1709.47 2061.94 1712.62 2060.11 1715.77 2057.99 1718.31 2055.58 1720.23 2053.16 1722.16 2050.54 1723.49 2047.72 1724.22 2048.26 1725.96 2048.77 1727.39 2049.25 1728.52 2049.72 1729.65 2050.18 1730.56 2050.62 1731.26 2051.06 1731.97 2051.49 1732.49 2051.92 1732.83 2052.35 1733.18 2052.78 1733.41 2053.21 1733.53 2053.63 1733.65 2054.13 1733.71 2054.7 1733.71 2055.61 1733.71 2056.52 1733.44 2057.45 1732.92 2058.37 1732.4 2059.41 1731.5 2060.55 1730.21L2062.4 1732.21C2060.5 1734.28 2058.73 1735.74 2057.09 1736.59 2055.45 1737.45 2053.76 1737.88 2052.03 1737.88 2050.06 1737.88 2048.45 1737.44 2047.2 1736.56 2045.95 1735.68 2044.87 1734.28 2043.96 1732.35 2043.04 1730.43 2042.16 1727.91 2041.3 1724.79 2037 1724.56 2033.72 1723.13 2031.46 1720.52 2029.2 1717.9 2028.08 1714.22 2028.08 1709.47 2028.08 1705.9 2028.68 1701.88 2029.88 1697.38 2031.08 1692.89 2032.81 1688.93 2035.08 1685.5 2037.35 1682.06 2040.06 1679.46 2043.21 1677.69 2046.36 1675.92 2049.78 1675.03 2053.49 1675.03Z" fill-rule="evenodd"/><text fill="#000000" fill-opacity="0" font-family="Arial,Arial_MSFontService,sans-serif" font-size="62.8413" x="2028.08" y="1730.02">𝑄</text><path d="M1628 2212.5C1628 2188.48 1647.48 2169 1671.5 2169 1695.52 2169 1715 2188.48 1715 2212.5 1715 2236.52 1695.52 2256 1671.5 2256 1647.48 2256 1628 2236.52 1628 2212.5Z" fill="#D74514" fill-rule="evenodd"/><text fill="#D74514" font-family="Microsoft YaHei,Microsoft YaHei_MSFontService,sans-serif" font-weight="700" font-size="73" transform="matrix(1 0 0 1 1643.38 2126)">0</text></g></svg>