<svg width="1533" height="304" xmlns="http://www.w3.org/2000/svg" xmlns:xlink="http://www.w3.org/1999/xlink" overflow="hidden"><defs><clipPath id="clip0"><rect x="1601" y="74" width="1533" height="304"/></clipPath></defs><g clip-path="url(#clip0)" transform="translate(-1601 -74)"><path d="M1707.5 108.5 1772.46 108.5" stroke="#D74514" stroke-width="6.875" stroke-miterlimit="8" fill="none" fill-rule="evenodd"/><path d="M1768.5 103.5 1768.5 168.461" stroke="#D74514" stroke-width="6.875" stroke-miterlimit="8" fill="none" fill-rule="evenodd"/><path d="M1763.5 164.5 1828.46 164.501" stroke="#D74514" stroke-width="6.875" stroke-miterlimit="8" fill="none" fill-rule="evenodd"/><path d="M1824.5 103.5 1824.5 168.461" stroke="#D74514" stroke-width="6.875" stroke-miterlimit="8" fill="none" fill-rule="evenodd"/><path d="M1821.5 108.5 1886.46 108.5" stroke="#D74514" stroke-width="6.875" stroke-miterlimit="8" fill="none" fill-rule="evenodd"/><path d="M1881.5 103.5 1881.5 168.461" stroke="#D74514" stroke-width="6.875" stroke-miterlimit="8" fill="none" fill-rule="evenodd"/><path d="M1877.5 164.5 1942.46 164.501" stroke="#D74514" stroke-width="6.875" stroke-miterlimit="8" fill="none" fill-rule="evenodd"/><path d="M1760.5 290.5 1825.46 290.5" stroke="#D74514" stroke-width="6.875" stroke-miterlimit="8" fill="none" fill-rule="evenodd"/><path d="M1820.5 286.5 1820.5 351.46" stroke="#D74514" stroke-width="6.875" stroke-miterlimit="8" fill="none" fill-rule="evenodd"/><path d="M1816.5 346.5 1881.46 346.5" stroke="#D74514" stroke-width="6.875" stroke-miterlimit="8" fill="none" fill-rule="evenodd"/><path d="M1876.5 286.5 1876.5 351.46" stroke="#D74514" stroke-width="6.875" stroke-miterlimit="8" fill="none" fill-rule="evenodd"/><path d="M1873.5 290.5 1938.46 290.5" stroke="#D74514" stroke-width="6.875" stroke-miterlimit="8" fill="none" fill-rule="evenodd"/><path d="M1703.5 346.5 1768.46 346.5" stroke="#D74514" stroke-width="6.875" stroke-miterlimit="8" fill="none" fill-rule="evenodd"/><path d="M1763.5 286.5 1763.5 351.46" stroke="#D74514" stroke-width="6.875" stroke-miterlimit="8" fill="none" fill-rule="evenodd"/><path d="M2057.5 134.5C2057.5 117.379 2071.16 103.5 2088 103.5 2104.84 103.5 2118.5 117.379 2118.5 134.5 2118.5 151.621 2104.84 165.5 2088 165.5 2071.16 165.5 2057.5 151.621 2057.5 134.5Z" stroke="#D74514" stroke-width="6.875" stroke-miterlimit="8" fill="none" fill-rule="evenodd"/><path d="M0 0 43.3468 43.3468" stroke="#D74514" stroke-width="6.875" stroke-miterlimit="8" fill="none" fill-rule="evenodd" transform="matrix(-1 0 0 1 2109.85 112.5)"/><path d="M2109.85 155.847 2066.5 112.5" stroke="#D74514" stroke-width="6.875" stroke-miterlimit="8" fill="none" fill-rule="evenodd"/><path d="M2293.5 225C2293.5 208.155 2307.38 194.5 2324.5 194.5 2341.62 194.5 2355.5 208.155 2355.5 225 2355.5 241.845 2341.62 255.5 2324.5 255.5 2307.38 255.5 2293.5 241.845 2293.5 225Z" stroke="#D74514" stroke-width="6.875" stroke-miterlimit="8" fill="none" fill-rule="evenodd"/><path d="M0 0 61.3019 0.000360892" stroke="#D74514" stroke-width="6.875" stroke-miterlimit="8" fill="none" fill-rule="evenodd" transform="matrix(-1 0 0 1 2354.8 224.5)"/><path d="M0 0 0.000360892 61.3019" stroke="#D74514" stroke-width="6.875" stroke-miterlimit="8" fill="none" fill-rule="evenodd" transform="matrix(1 0 0 -1 2324.5 255.802)"/><path d="M2502.24 175.21C2529.79 194.276 2536.79 232.249 2517.88 260.023 2512.86 267.399 2506.29 273.571 2498.63 278.102" stroke="#000000" stroke-width="6.875" stroke-miterlimit="8" fill="none" fill-rule="evenodd"/><path d="M2440.5 225.5C2440.5 208.379 2454.38 194.5 2471.5 194.5 2488.62 194.5 2502.5 208.379 2502.5 225.5 2502.5 242.621 2488.62 256.5 2471.5 256.5 2454.38 256.5 2440.5 242.621 2440.5 225.5Z" stroke="#000000" stroke-width="6.875" stroke-miterlimit="8" fill-rule="evenodd"/><path d="M1942.5 131.062 2016.6 131.063 2016.6 137.938 1942.5 137.937ZM2012.02 111.583 2057.85 134.5 2012.02 157.417Z"/><path d="M2118.5 131.062 2209.58 131.062 2209.58 224.89 2206.14 221.453 2270.86 221.453 2270.86 228.328 2202.7 228.328 2202.7 134.5 2206.14 137.937 2118.5 137.937ZM2266.28 211.14 2293.78 224.89 2266.28 238.64Z"/><path d="M2058.5 318C2058.5 301.155 2072.38 287.5 2089.5 287.5 2106.62 287.5 2120.5 301.155 2120.5 318 2120.5 334.845 2106.62 348.5 2089.5 348.5 2072.38 348.5 2058.5 334.845 2058.5 318Z" stroke="#D74514" stroke-width="6.875" stroke-miterlimit="8" fill="none" fill-rule="evenodd"/><path d="M0 0 43.3468 43.3468" stroke="#D74514" stroke-width="6.875" stroke-miterlimit="8" fill="none" fill-rule="evenodd" transform="matrix(-1 0 0 1 2110.85 296.5)"/><path d="M2110.85 339.847 2067.5 296.5" stroke="#D74514" stroke-width="6.875" stroke-miterlimit="8" fill="none" fill-rule="evenodd"/><path d="M1938.5 315.063 2012.6 315.063 2012.6 321.938 1938.5 321.938ZM2008.02 295.584 2053.85 318.501 2008.02 341.417Z"/><path d="M0-3.4375 90.2675-3.4375 90.2675 93.3199 86.83 89.8824 150.743 89.8824 150.743 96.7574 83.3925 96.7574 83.3925 0 86.83 3.4375 0 3.4375ZM146.16 79.5699 173.66 93.3199 146.16 107.07Z" transform="matrix(1 0 0 -1 2120.5 317.82)"/><path d="M2355.5 224.5 2441 224.995" stroke="#000000" stroke-width="6.875" stroke-miterlimit="8" fill="none" fill-rule="evenodd"/><path d="M2650.5 132C2650.5 115.155 2664.16 101.5 2681 101.5 2697.84 101.5 2711.5 115.155 2711.5 132 2711.5 148.845 2697.84 162.5 2681 162.5 2664.16 162.5 2650.5 148.845 2650.5 132Z" stroke="#D74514" stroke-width="6.875" stroke-miterlimit="8" fill="none" fill-rule="evenodd"/><path d="M0 0 43.3468 43.3468" stroke="#D74514" stroke-width="6.875" stroke-miterlimit="8" fill="none" fill-rule="evenodd" transform="matrix(-1 0 0 1 2702.85 110.5)"/><path d="M2702.85 153.847 2659.5 110.5" stroke="#D74514" stroke-width="6.875" stroke-miterlimit="8" fill="none" fill-rule="evenodd"/><path d="M2651.5 316C2651.5 299.155 2665.38 285.5 2682.5 285.5 2699.62 285.5 2713.5 299.155 2713.5 316 2713.5 332.845 2699.62 346.5 2682.5 346.5 2665.38 346.5 2651.5 332.845 2651.5 316Z" stroke="#D74514" stroke-width="6.875" stroke-miterlimit="8" fill="none" fill-rule="evenodd"/><path d="M0 0 43.3468 43.3468" stroke="#D74514" stroke-width="6.875" stroke-miterlimit="8" fill="none" fill-rule="evenodd" transform="matrix(-1 0 0 1 2703.85 294.5)"/><path d="M2703.85 337.847 2660.5 294.5" stroke="#D74514" stroke-width="6.875" stroke-miterlimit="8" fill="none" fill-rule="evenodd"/><path d="M2829.5 104.5 2894.46 104.5" stroke="#D74514" stroke-width="6.875" stroke-miterlimit="8" fill="none" fill-rule="evenodd"/><path d="M2889.5 100.5 2889.5 165.461" stroke="#D74514" stroke-width="6.875" stroke-miterlimit="8" fill="none" fill-rule="evenodd"/><path d="M2885.5 160.5 2950.46 160.5" stroke="#D74514" stroke-width="6.875" stroke-miterlimit="8" fill="none" fill-rule="evenodd"/><path d="M2945.5 100.5 2945.5 165.461" stroke="#D74514" stroke-width="6.875" stroke-miterlimit="8" fill="none" fill-rule="evenodd"/><path d="M2942.5 104.5 3007.46 104.5" stroke="#D74514" stroke-width="6.875" stroke-miterlimit="8" fill="none" fill-rule="evenodd"/><path d="M3003.5 100.5 3003.5 165.461" stroke="#D74514" stroke-width="6.875" stroke-miterlimit="8" fill="none" fill-rule="evenodd"/><path d="M2998.5 160.5 3063.46 160.5" stroke="#D74514" stroke-width="6.875" stroke-miterlimit="8" fill="none" fill-rule="evenodd"/><path d="M2881.5 286.5 2946.46 286.5" stroke="#D74514" stroke-width="6.875" stroke-miterlimit="8" fill="none" fill-rule="evenodd"/><path d="M2942.5 282.5 2942.5 347.461" stroke="#D74514" stroke-width="6.875" stroke-miterlimit="8" fill="none" fill-rule="evenodd"/><path d="M2937.5 342.5 3002.46 342.5" stroke="#D74514" stroke-width="6.875" stroke-miterlimit="8" fill="none" fill-rule="evenodd"/><path d="M2998.5 282.5 2998.5 347.461" stroke="#D74514" stroke-width="6.875" stroke-miterlimit="8" fill="none" fill-rule="evenodd"/><path d="M2994.5 286.5 3059.46 286.5" stroke="#D74514" stroke-width="6.875" stroke-miterlimit="8" fill="none" fill-rule="evenodd"/><path d="M2824.5 342.5 2889.46 342.5" stroke="#D74514" stroke-width="6.875" stroke-miterlimit="8" fill="none" fill-rule="evenodd"/><path d="M2885.5 282.5 2885.5 347.461" stroke="#D74514" stroke-width="6.875" stroke-miterlimit="8" fill="none" fill-rule="evenodd"/><path d="M2713.5 131.062 2787.6 131.063 2787.6 137.938 2713.5 137.937ZM2783.02 111.583 2828.85 134.5 2783.02 157.417Z"/><path d="M2713.5 313.063 2787.6 313.063 2787.6 319.938 2713.5 319.938ZM2783.02 293.584 2828.85 316.5 2783.02 339.417Z"/><path d="M0-3.4375 62.9663-3.4375 62.9663 92.9024 59.5288 89.4649 96.141 89.4649 96.141 96.3399 56.0913 96.3399 56.0913 0 59.5288 3.4375 0 3.4375ZM91.5577 79.1524 119.058 92.9024 91.5577 106.652Z" transform="matrix(1 0 0 -1 2531.5 225.402)"/><path d="M2531.5 221.062 2595.28 221.062 2595.28 315.308 2591.84 311.871 2629.26 311.871 2629.26 318.746 2588.4 318.746 2588.4 224.5 2591.84 227.937 2531.5 227.937ZM2624.68 301.558 2652.18 315.308 2624.68 329.058Z"/><path d="M2148.37 159.226C2147.14 159.226 2146.1 159.593 2145.27 160.327 2144.44 161.061 2143.77 162.117 2143.26 163.496 2142.75 164.874 2142.38 166.553 2142.17 168.531 2141.96 170.51 2141.85 172.743 2141.85 175.232 2141.85 181.068 2142.39 185.352 2143.47 188.082 2144.56 190.812 2146.23 192.178 2148.51 192.178 2150.67 192.178 2152.28 190.893 2153.33 188.324 2154.38 185.755 2154.9 181.775 2154.9 176.386 2154.9 172.269 2154.63 168.934 2154.09 166.383 2153.56 163.832 2152.81 162.001 2151.85 160.891 2150.89 159.781 2149.73 159.226 2148.37 159.226ZM2148.51 156.943C2152.43 156.943 2155.35 158.456 2157.26 161.482 2159.18 164.507 2160.14 169.082 2160.14 175.205 2160.14 181.543 2159.11 186.336 2157.06 189.586 2155.01 192.835 2152.02 194.46 2148.08 194.46 2144.21 194.46 2141.33 192.938 2139.44 189.895 2137.56 186.851 2136.61 182.232 2136.61 176.037 2136.61 172.743 2136.9 169.896 2137.48 167.497 2138.07 165.098 2138.88 163.115 2139.93 161.549 2140.97 159.982 2142.23 158.823 2143.7 158.071 2145.17 157.319 2146.77 156.943 2148.51 156.943Z" fill="#5D1709" fill-rule="evenodd"/><text fill="#000000" fill-opacity="0" font-family="Arial,Arial_MSFontService,sans-serif" font-size="37.5171" x="2136.61" y="189.771">0</text><path d="M2173.77 159.602C2172.77 159.602 2171.87 159.83 2171.08 160.287 2170.3 160.743 2169.69 161.374 2169.26 162.18 2168.83 162.986 2168.61 163.908 2168.61 164.946 2168.61 165.984 2168.82 166.911 2169.24 167.726 2169.67 168.54 2170.27 169.176 2171.07 169.632 2171.87 170.089 2172.77 170.317 2173.77 170.317 2174.79 170.317 2175.7 170.089 2176.5 169.632 2177.29 169.176 2177.91 168.54 2178.34 167.726 2178.77 166.911 2178.98 165.984 2178.98 164.946 2178.98 163.908 2178.77 162.986 2178.34 162.18 2177.91 161.374 2177.29 160.743 2176.5 160.287 2175.7 159.83 2174.79 159.602 2173.77 159.602ZM2173.88 156.943C2175.42 156.943 2176.79 157.283 2178 157.964 2179.21 158.644 2180.15 159.593 2180.82 160.81 2181.49 162.028 2181.83 163.406 2181.83 164.946 2181.83 166.468 2181.47 167.842 2180.77 169.068 2180.06 170.295 2179.08 171.257 2177.83 171.955 2176.57 172.654 2175.17 173.003 2173.61 173.003 2172.05 173.003 2170.68 172.654 2169.49 171.955 2168.3 171.257 2167.38 170.295 2166.73 169.068 2166.09 167.842 2165.77 166.459 2165.77 164.919 2165.77 163.397 2166.11 162.023 2166.8 160.797 2167.49 159.57 2168.45 158.622 2169.69 157.95 2170.92 157.279 2172.32 156.943 2173.88 156.943Z" fill="#5D1709" fill-rule="evenodd"/><text fill="#000000" fill-opacity="0" font-family="Arial,Arial_MSFontService,sans-serif" font-size="16.0596" x="2165.77" y="170.995">°</text><path d="M2166.19 262.54C2164.95 262.54 2163.92 262.907 2163.09 263.641 2162.25 264.375 2161.58 265.432 2161.07 266.81 2160.56 268.189 2160.2 269.867 2159.98 271.846 2159.77 273.824 2159.66 276.058 2159.66 278.546 2159.66 284.383 2160.2 288.666 2161.29 291.397 2162.37 294.127 2164.05 295.492 2166.32 295.492 2168.49 295.492 2170.1 294.207 2171.14 291.638 2172.19 289.069 2172.71 285.09 2172.71 279.701 2172.71 275.583 2172.45 272.249 2171.91 269.697 2171.37 267.146 2170.62 265.315 2169.67 264.205 2168.71 263.095 2167.55 262.54 2166.19 262.54ZM2136.05 262.54C2134.71 262.54 2133.57 262.773 2132.64 263.239 2131.71 263.704 2130.96 264.344 2130.37 265.159 2129.79 265.973 2129.37 266.931 2129.1 268.032 2128.83 269.133 2128.7 270.328 2128.7 271.617 2128.7 274.285 2129.24 276.353 2130.33 277.821 2131.43 279.289 2132.97 280.023 2134.95 280.023 2135.63 280.023 2136.28 279.965 2136.9 279.849 2137.52 279.732 2138.12 279.562 2138.71 279.338 2139.3 279.115 2139.88 278.828 2140.44 278.479 2141.01 278.13 2141.51 277.758 2141.96 277.365 2142.12 277.221 2142.27 277.033 2142.39 276.801 2142.52 276.568 2142.62 276.263 2142.69 275.887 2142.76 275.512 2142.79 274.921 2142.79 274.115 2142.79 271.662 2142.55 269.563 2142.06 267.817 2141.56 266.072 2140.81 264.756 2139.8 263.87 2138.79 262.983 2137.54 262.54 2136.05 262.54ZM2166.32 260.258C2170.24 260.258 2173.16 261.77 2175.08 264.796 2176.99 267.822 2177.95 272.396 2177.95 278.519 2177.95 284.857 2176.93 289.651 2174.88 292.9 2172.83 296.15 2169.83 297.775 2165.89 297.775 2162.03 297.775 2159.15 296.253 2157.26 293.209 2155.37 290.166 2154.43 285.547 2154.43 279.352 2154.43 276.058 2154.72 273.211 2155.3 270.812 2155.88 268.413 2156.69 266.43 2157.74 264.863 2158.79 263.297 2160.05 262.137 2161.52 261.386 2162.98 260.634 2164.59 260.258 2166.32 260.258ZM2136.35 260.258C2140.11 260.258 2142.97 261.556 2144.94 264.152 2146.91 266.748 2147.9 270.481 2147.9 275.35 2147.9 279.808 2147.17 283.671 2145.72 286.939 2144.27 290.206 2142.24 292.748 2139.63 294.565 2137.01 296.383 2133.96 297.452 2130.47 297.775L2129.37 296.298 2129.37 294.982C2131.87 294.982 2134.04 294.427 2135.88 293.317 2137.71 292.207 2139.19 290.564 2140.31 288.389 2141.43 286.213 2142.18 283.362 2142.55 279.835L2142.28 279.728C2140.78 280.802 2139.3 281.59 2137.84 282.091 2136.38 282.592 2134.8 282.843 2133.1 282.843 2131.08 282.843 2129.35 282.4 2127.93 281.514 2126.51 280.627 2125.44 279.383 2124.72 277.781 2124 276.178 2123.65 274.303 2123.65 272.155 2123.65 270.543 2123.92 269.017 2124.45 267.576 2124.99 266.134 2125.79 264.872 2126.84 263.789 2127.9 262.706 2129.22 261.847 2130.8 261.211 2132.39 260.575 2134.24 260.258 2136.35 260.258Z" fill="#5D1709" fill-rule="evenodd"/><text fill="#000000" fill-opacity="0" font-family="Arial,Arial_MSFontService,sans-serif" font-size="37.5171" x="2123.65" y="293.085">90</text><path d="M2191.95 262.916C2190.95 262.916 2190.05 263.145 2189.26 263.601 2188.48 264.058 2187.87 264.689 2187.44 265.494 2187.01 266.3 2186.79 267.222 2186.79 268.261 2186.79 269.299 2187 270.225 2187.42 271.04 2187.84 271.855 2188.45 272.49 2189.25 272.947 2190.05 273.403 2190.95 273.632 2191.95 273.632 2192.97 273.632 2193.88 273.403 2194.68 272.947 2195.47 272.49 2196.08 271.855 2196.51 271.04 2196.94 270.225 2197.16 269.299 2197.16 268.261 2197.16 267.222 2196.94 266.3 2196.51 265.494 2196.08 264.689 2195.47 264.058 2194.68 263.601 2193.88 263.145 2192.97 262.916 2191.95 262.916ZM2192.06 260.258C2193.6 260.258 2194.97 260.598 2196.18 261.278 2197.39 261.958 2198.33 262.907 2199 264.125 2199.67 265.342 2200.01 266.721 2200.01 268.261 2200.01 269.782 2199.65 271.156 2198.95 272.383 2198.24 273.609 2197.26 274.572 2196 275.27 2194.75 275.968 2193.35 276.317 2191.79 276.317 2190.23 276.317 2188.86 275.968 2187.67 275.27 2186.48 274.572 2185.56 273.609 2184.91 272.383 2184.27 271.156 2183.95 269.773 2183.95 268.234 2183.95 266.712 2184.29 265.338 2184.98 264.111 2185.67 262.885 2186.63 261.936 2187.87 261.265 2189.1 260.593 2190.5 260.258 2192.06 260.258Z" fill="#5D1709" fill-rule="evenodd"/><text fill="#000000" fill-opacity="0" font-family="Arial,Arial_MSFontService,sans-serif" font-size="16.0596" x="2183.95" y="274.31">°</text><path d="M2626.19 156.792C2624.96 156.792 2623.93 157.159 2623.09 157.893 2622.26 158.627 2621.59 159.683 2621.08 161.062 2620.57 162.44 2620.21 164.119 2619.99 166.097 2619.78 168.075 2619.67 170.309 2619.67 172.797 2619.67 178.634 2620.21 182.918 2621.29 185.648 2622.38 188.378 2624.05 189.743 2626.33 189.743 2628.49 189.743 2630.1 188.459 2631.15 185.89 2632.2 183.32 2632.72 179.341 2632.72 173.952 2632.72 169.834 2632.45 166.5 2631.91 163.949 2631.38 161.397 2630.63 159.567 2629.67 158.457 2628.71 157.347 2627.55 156.792 2626.19 156.792ZM2626.33 154.509C2630.25 154.509 2633.17 156.022 2635.08 159.047 2637 162.073 2637.96 166.648 2637.96 172.771 2637.96 179.109 2636.93 183.902 2634.88 187.152 2632.83 190.401 2629.84 192.026 2625.9 192.026 2622.03 192.026 2619.15 190.504 2617.26 187.461 2615.38 184.417 2614.43 179.798 2614.43 173.603 2614.43 170.309 2614.72 167.462 2615.3 165.063 2615.89 162.664 2616.7 160.681 2617.75 159.115 2618.8 157.548 2620.05 156.389 2621.52 155.637 2622.99 154.885 2624.59 154.509 2626.33 154.509Z" fill="#5D1709" fill-rule="evenodd"/><text fill="#000000" fill-opacity="0" font-family="Arial,Arial_MSFontService,sans-serif" font-size="37.5171" x="2614.43" y="187.336">0</text><path d="M2651.59 157.168C2650.59 157.168 2649.69 157.396 2648.91 157.852 2648.12 158.309 2647.51 158.94 2647.08 159.746 2646.65 160.551 2646.43 161.473 2646.43 162.512 2646.43 163.55 2646.64 164.477 2647.07 165.291 2647.49 166.106 2648.09 166.742 2648.89 167.198 2649.69 167.655 2650.59 167.883 2651.59 167.883 2652.61 167.883 2653.52 167.655 2654.32 167.198 2655.11 166.742 2655.73 166.106 2656.16 165.291 2656.59 164.477 2656.8 163.55 2656.8 162.512 2656.8 161.473 2656.59 160.551 2656.16 159.746 2655.73 158.94 2655.11 158.309 2654.32 157.852 2653.52 157.396 2652.61 157.168 2651.59 157.168ZM2651.7 154.509C2653.24 154.509 2654.61 154.849 2655.82 155.529 2657.03 156.21 2657.97 157.159 2658.64 158.376 2659.31 159.594 2659.65 160.972 2659.65 162.512 2659.65 164.034 2659.29 165.408 2658.59 166.634 2657.88 167.861 2656.9 168.823 2655.65 169.521 2654.39 170.219 2652.99 170.568 2651.43 170.568 2649.87 170.568 2648.5 170.219 2647.31 169.521 2646.12 168.823 2645.2 167.861 2644.55 166.634 2643.91 165.408 2643.59 164.025 2643.59 162.485 2643.59 160.963 2643.93 159.589 2644.62 158.363 2645.31 157.136 2646.27 156.187 2647.51 155.516 2648.74 154.845 2650.14 154.509 2651.7 154.509Z" fill="#5D1709" fill-rule="evenodd"/><text fill="#000000" fill-opacity="0" font-family="Arial,Arial_MSFontService,sans-serif" font-size="16.0596" x="2643.59" y="168.561">°</text><path d="M2644.01 260.106C2642.77 260.106 2641.74 260.473 2640.91 261.207 2640.07 261.941 2639.4 262.998 2638.89 264.376 2638.38 265.755 2638.02 267.433 2637.81 269.411 2637.59 271.39 2637.48 273.623 2637.48 276.112 2637.48 281.949 2638.02 286.232 2639.11 288.962 2640.19 291.693 2641.87 293.058 2644.14 293.058 2646.31 293.058 2647.92 291.773 2648.96 289.204 2650.01 286.635 2650.53 282.656 2650.53 277.267 2650.53 273.149 2650.27 269.814 2649.73 267.263 2649.19 264.712 2648.44 262.881 2647.49 261.771 2646.53 260.661 2645.37 260.106 2644.01 260.106ZM2613.87 260.106C2612.53 260.106 2611.4 260.339 2610.46 260.804 2609.53 261.27 2608.78 261.91 2608.19 262.724 2607.61 263.539 2607.19 264.497 2606.92 265.598 2606.65 266.699 2606.52 267.894 2606.52 269.183 2606.52 271.851 2607.06 273.919 2608.15 275.387 2609.25 276.855 2610.79 277.589 2612.77 277.589 2613.45 277.589 2614.1 277.531 2614.72 277.414 2615.34 277.298 2615.94 277.128 2616.53 276.904 2617.12 276.68 2617.7 276.394 2618.27 276.045 2618.83 275.696 2619.34 275.324 2619.78 274.93 2619.94 274.787 2620.09 274.599 2620.21 274.366 2620.34 274.134 2620.44 273.829 2620.51 273.453 2620.58 273.077 2620.62 272.486 2620.62 271.681 2620.62 269.228 2620.37 267.129 2619.88 265.383 2619.38 263.638 2618.63 262.322 2617.62 261.435 2616.61 260.549 2615.36 260.106 2613.87 260.106ZM2644.14 257.823C2648.06 257.823 2650.98 259.336 2652.9 262.362 2654.81 265.388 2655.77 269.962 2655.77 276.085 2655.77 282.423 2654.75 287.217 2652.7 290.466 2650.65 293.716 2647.65 295.34 2643.71 295.34 2639.85 295.34 2636.97 293.819 2635.08 290.775 2633.19 287.731 2632.25 283.112 2632.25 276.918 2632.25 273.623 2632.54 270.777 2633.12 268.378 2633.7 265.978 2634.52 263.996 2635.56 262.429 2636.61 260.863 2637.87 259.703 2639.34 258.951 2640.8 258.199 2642.41 257.823 2644.14 257.823ZM2614.17 257.823C2617.93 257.823 2620.79 259.121 2622.76 261.717 2624.73 264.313 2625.72 268.046 2625.72 272.916 2625.72 277.374 2624.99 281.237 2623.54 284.504 2622.09 287.772 2620.06 290.314 2617.45 292.131 2614.83 293.948 2611.78 295.018 2608.29 295.34L2607.19 293.863 2607.19 292.547C2609.69 292.547 2611.86 291.992 2613.7 290.882 2615.54 289.772 2617.01 288.13 2618.13 285.954 2619.25 283.779 2620 280.928 2620.37 277.401L2620.11 277.294C2618.6 278.368 2617.12 279.156 2615.66 279.657 2614.2 280.158 2612.62 280.409 2610.92 280.409 2608.9 280.409 2607.17 279.966 2605.75 279.079 2604.33 278.193 2603.26 276.949 2602.54 275.347 2601.83 273.744 2601.47 271.869 2601.47 269.72 2601.47 268.109 2601.74 266.583 2602.27 265.141 2602.81 263.7 2603.61 262.438 2604.66 261.355 2605.72 260.272 2607.04 259.412 2608.62 258.777 2610.21 258.141 2612.06 257.823 2614.17 257.823Z" fill="#5D1709" fill-rule="evenodd"/><text fill="#000000" fill-opacity="0" font-family="Arial,Arial_MSFontService,sans-serif" font-size="37.5171" x="2601.47" y="290.651">90</text><path d="M2669.77 260.482C2668.77 260.482 2667.87 260.71 2667.08 261.167 2666.3 261.623 2665.69 262.255 2665.26 263.06 2664.83 263.866 2664.61 264.788 2664.61 265.826 2664.61 266.865 2664.82 267.791 2665.24 268.606 2665.67 269.42 2666.27 270.056 2667.07 270.513 2667.87 270.969 2668.77 271.197 2669.77 271.197 2670.79 271.197 2671.7 270.969 2672.5 270.513 2673.29 270.056 2673.91 269.42 2674.34 268.606 2674.77 267.791 2674.98 266.865 2674.98 265.826 2674.98 264.788 2674.77 263.866 2674.34 263.06 2673.91 262.255 2673.29 261.623 2672.5 261.167 2671.7 260.71 2670.79 260.482 2669.77 260.482ZM2669.88 257.823C2671.42 257.823 2672.79 258.164 2674 258.844 2675.21 259.524 2676.15 260.473 2676.82 261.691 2677.49 262.908 2677.83 264.287 2677.83 265.826 2677.83 267.348 2677.47 268.722 2676.77 269.949 2676.06 271.175 2675.08 272.137 2673.83 272.836 2672.57 273.534 2671.17 273.883 2669.61 273.883 2668.05 273.883 2666.68 273.534 2665.49 272.836 2664.3 272.137 2663.38 271.175 2662.73 269.949 2662.09 268.722 2661.77 267.339 2661.77 265.799 2661.77 264.278 2662.11 262.904 2662.8 261.677 2663.49 260.451 2664.45 259.502 2665.69 258.83 2666.92 258.159 2668.32 257.823 2669.88 257.823Z" fill="#5D1709" fill-rule="evenodd"/><text fill="#000000" fill-opacity="0" font-family="Arial,Arial_MSFontService,sans-serif" font-size="16.0596" x="2661.77" y="271.875">°</text><path d="M3086.82 107.389 3097.56 107.389 3097.27 108.705C3096.59 108.848 3096.1 109.01 3095.81 109.189 3095.51 109.368 3095.25 109.636 3095.01 109.994 3094.78 110.352 3094.54 110.912 3094.29 111.673 3094.04 112.434 3093.72 113.673 3093.35 115.392L3088.76 136.232C3088.52 137.288 3088.37 138.125 3088.3 138.743 3088.23 139.361 3088.19 139.92 3088.19 140.421 3088.19 141.227 3088.39 141.796 3088.8 142.127 3089.2 142.458 3089.87 142.659 3090.82 142.731L3090.53 144.047 3079.79 144.047 3080.08 142.731C3080.76 142.624 3081.27 142.449 3081.61 142.207 3081.95 141.966 3082.24 141.63 3082.47 141.2 3082.7 140.771 3082.92 140.247 3083.12 139.629 3083.31 139.012 3083.61 137.816 3084 136.044L3088.57 115.365C3088.96 113.575 3089.16 112.134 3089.16 111.042 3089.16 110.2 3088.95 109.614 3088.53 109.283 3088.11 108.951 3087.44 108.759 3086.53 108.705Z" fill-rule="evenodd"/><text fill="#000000" fill-opacity="0" font-family="Arial,Arial_MSFontService,sans-serif" font-size="36.6577" x="3079.79" y="139.465">𝐼</text><path d="M3084.26 299.61C3082.32 299.61 3080.52 300.3 3078.84 301.678 3077.17 303.057 3075.7 305.026 3074.44 307.586 3073.18 310.147 3072.2 312.958 3071.5 316.019 3070.8 319.081 3070.45 321.784 3070.45 324.129 3070.45 329.662 3072.47 332.428 3076.49 332.428 3078.98 332.428 3081.27 331.268 3083.34 328.95 3085.42 326.631 3087.09 323.422 3088.36 319.322 3089.64 315.222 3090.27 311.391 3090.27 307.828 3090.27 305.16 3089.78 303.124 3088.79 301.719 3087.81 300.313 3086.3 299.61 3084.26 299.61ZM3084.55 297.247C3088.01 297.247 3090.67 298.25 3092.54 300.255 3094.41 302.26 3095.35 305.16 3095.35 308.956 3095.35 311.463 3094.95 314.264 3094.17 317.362 3093.38 320.459 3092.29 323.194 3090.92 325.566 3089.54 327.938 3087.94 329.85 3086.12 331.3 3084.31 332.75 3082.33 333.753 3080.2 334.308 3080.61 335.615 3081 336.693 3081.36 337.544 3081.71 338.394 3082.06 339.083 3082.39 339.612 3082.72 340.14 3083.05 340.534 3083.37 340.793 3083.69 341.053 3084.01 341.227 3084.34 341.317 3084.66 341.406 3085.03 341.451 3085.46 341.451 3086.15 341.451 3086.83 341.254 3087.53 340.86 3088.23 340.466 3089.01 339.786 3089.87 338.819L3091.27 340.323C3089.83 341.881 3088.5 342.982 3087.26 343.626 3086.03 344.271 3084.76 344.593 3083.45 344.593 3081.96 344.593 3080.75 344.262 3079.81 343.6 3078.87 342.937 3078.06 341.881 3077.37 340.431 3076.68 338.98 3076.01 337.083 3075.37 334.737 3072.13 334.558 3069.66 333.484 3067.95 331.515 3066.25 329.545 3065.4 326.77 3065.4 323.189 3065.4 320.504 3065.86 317.469 3066.76 314.085 3067.66 310.702 3068.97 307.716 3070.68 305.129 3072.39 302.542 3074.43 300.582 3076.8 299.248 3079.18 297.914 3081.76 297.247 3084.55 297.247Z" fill-rule="evenodd"/><text fill="#000000" fill-opacity="0" font-family="Arial,Arial_MSFontService,sans-serif" font-size="47.3462" x="3065.4" y="338.675">𝑄</text><path d="M1659.95 121.139 1670.69 121.139 1670.39 122.455C1669.71 122.598 1669.22 122.76 1668.93 122.939 1668.63 123.118 1668.37 123.386 1668.14 123.744 1667.9 124.102 1667.66 124.662 1667.41 125.423 1667.16 126.184 1666.85 127.423 1666.47 129.142L1661.88 149.982C1661.65 151.038 1661.49 151.875 1661.42 152.493 1661.35 153.111 1661.31 153.67 1661.31 154.171 1661.31 154.977 1661.52 155.546 1661.92 155.877 1662.32 156.208 1663 156.409 1663.95 156.481L1663.65 157.797 1652.91 157.797 1653.2 156.481C1653.88 156.374 1654.39 156.199 1654.74 155.957 1655.08 155.716 1655.36 155.38 1655.59 154.95 1655.83 154.521 1656.04 153.997 1656.24 153.379 1656.44 152.762 1656.73 151.566 1657.13 149.794L1661.69 129.115C1662.08 127.325 1662.28 125.884 1662.28 124.792 1662.28 123.95 1662.07 123.364 1661.65 123.033 1661.23 122.701 1660.56 122.509 1659.65 122.455Z" fill-rule="evenodd"/><text fill="#000000" fill-opacity="0" font-family="Arial,Arial_MSFontService,sans-serif" font-size="36.6577" x="1652.91" y="153.215">𝐼</text><path d="M1657.38 313.36C1655.45 313.36 1653.64 314.05 1651.97 315.428 1650.29 316.807 1648.83 318.776 1647.56 321.336 1646.3 323.897 1645.32 326.708 1644.62 329.769 1643.92 332.831 1643.58 335.534 1643.58 337.879 1643.58 343.412 1645.59 346.178 1649.62 346.178 1652.11 346.178 1654.39 345.018 1656.47 342.7 1658.54 340.381 1660.22 337.172 1661.49 333.072 1662.76 328.972 1663.39 325.141 1663.39 321.578 1663.39 318.91 1662.9 316.874 1661.92 315.469 1660.93 314.063 1659.42 313.36 1657.38 313.36ZM1657.67 310.997C1661.13 310.997 1663.79 312 1665.66 314.005 1667.54 316.01 1668.47 318.91 1668.47 322.706 1668.47 325.213 1668.08 328.014 1667.29 331.112 1666.5 334.209 1665.42 336.944 1664.04 339.316 1662.66 341.688 1661.06 343.6 1659.25 345.05 1657.43 346.5 1655.45 347.503 1653.32 348.058 1653.74 349.365 1654.12 350.443 1654.48 351.294 1654.84 352.144 1655.18 352.833 1655.51 353.362 1655.84 353.89 1656.17 354.284 1656.49 354.543 1656.82 354.803 1657.14 354.977 1657.46 355.067 1657.78 355.156 1658.16 355.201 1658.59 355.201 1659.27 355.201 1659.96 355.004 1660.66 354.61 1661.35 354.216 1662.13 353.536 1662.99 352.569L1664.39 354.073C1662.96 355.631 1661.62 356.732 1660.39 357.376 1659.15 358.021 1657.88 358.343 1656.57 358.343 1655.09 358.343 1653.87 358.012 1652.93 357.35 1651.99 356.687 1651.18 355.631 1650.49 354.181 1649.8 352.73 1649.13 350.833 1648.49 348.487 1645.25 348.308 1642.78 347.234 1641.08 345.265 1639.38 343.295 1638.53 340.52 1638.53 336.939 1638.53 334.254 1638.98 331.219 1639.88 327.835 1640.79 324.452 1642.09 321.466 1643.8 318.879 1645.51 316.292 1647.55 314.332 1649.93 312.998 1652.3 311.664 1654.88 310.997 1657.67 310.997Z" fill-rule="evenodd"/><text fill="#000000" fill-opacity="0" font-family="Arial,Arial_MSFontService,sans-serif" font-size="47.3462" x="1638.53" y="352.425">𝑄</text></g></svg>