<svg xmlns="http://www.w3.org/2000/svg" width="1195" height="1129" overflow="hidden"><defs><clipPath id="a"><path d="M88 1246h1195v1129H88z"/></clipPath></defs><g clip-path="url(#a)" transform="translate(-88 -1246)"><path fill="#fdefe8" fill-rule="evenodd" d="M171 1824.5c0-263.16 213.336-476.5 476.5-476.5s476.5 213.34 476.5 476.5S910.664 2301 647.5 2301 171 2087.66 171 1824.5"/><path fill="none" stroke="#000" stroke-miterlimit="8" stroke-width="9.167" d="M88.5 1825.5h1189.37M647.5 2374.94V1271.5"/><path fill="#d74514" fill-rule="evenodd" d="M937 1473.5c0-24.02 19.476-43.5 43.5-43.5 24.02 0 43.5 19.48 43.5 43.5s-19.48 43.5-43.5 43.5c-24.024 0-43.5-19.48-43.5-43.5"/><path fill="none" stroke="#d74514" stroke-miterlimit="8" stroke-width="9.167" d="m647.5 1825.49 302.411-319.992"/><text fill="#d74514" font-family="Microsoft YaHei,Microsoft YaHei_MSFontService,sans-serif" font-size="55" font-weight="400" transform="rotate(-46.93 2309.924 52.175)">magnitude</text><path fill="#5d1709" d="m779.864 1825.19.875-12.94-.01.27.125-12.75.008.32-.375-6.25.033.33-.813-6.06.065.37-1.312-6 .134.48-1.938-5.75.173.44-2.563-5.62.602.97-3.315-4.12 7.138-5.75 3.678 4.57 2.899 6.36 2.093 6.21 1.407 6.43.859 6.42.395 6.58-.128 13.04-.884 13.07Zm-19.289-40.89-12.075-49.8 47.085 20.22Z"/><path fill="#5d1709" fill-rule="evenodd" d="M841.172 1752.88c-9.434.41-14.151 4.8-14.151 13.19q0 6.63 3.333 9.84c2.221 2.14 5.827 3.26 10.818 3.35Zm6.416-.1v26.37q14.151-.45 14.151-13.26c0-8.69-4.717-13.07-14.151-13.11m-10.587-10.84h14.757v1.75q-2.317.525-3.244 1.5c-.617.64-.926 2.19-.926 4.66h.035q9.482 0 15.381 3.69c3.933 2.46 5.899 6.3 5.899 11.5 0 5.37-1.723 9.44-5.168 12.23-3.446 2.78-8.828 4.39-16.147 4.84v.18c0 2.42.249 4.02.748 4.78s1.64 1.35 3.422 1.78v1.75h-14.757v-1.75c1.806-.43 2.953-1.02 3.44-1.78s.731-2.36.731-4.78v-.14c-7.034-.19-12.345-1.53-15.933-4.01-3.589-2.48-5.383-6.33-5.383-11.53q0-15.72 21.316-16.68c0-2.52-.309-4.11-.927-4.76-.618-.66-1.699-1.15-3.244-1.48Z"/><text x="819.856" y="1784.51" fill-opacity="0" font-family="Arial,Arial_MSFontService,sans-serif" font-size="48.655">Î¦</text><path fill="#5d1709" fill-rule="evenodd" d="M1169.48 1740.51c-1.64 0-3.01.49-4.12 1.47q-1.65 1.455-2.67 4.2c-.68 1.83-1.16 4.06-1.44 6.68-.29 2.63-.43 5.59-.43 8.9 0 7.74.72 13.43 2.16 17.05 1.43 3.63 3.66 5.44 6.68 5.44 2.88 0 5.01-1.71 6.4-5.12s2.08-8.69 2.08-15.84c0-5.46-.35-9.89-1.07-13.28q-1.065-5.07-2.97-7.29c-1.27-1.47-2.81-2.21-4.62-2.21m.18-3.03c5.2 0 9.08 2.01 11.62 6.03 2.54 4.01 3.81 10.09 3.81 18.21 0 8.41-1.36 14.78-4.08 19.09s-6.69 6.47-11.92 6.47q-7.695 0-11.46-6.06c-2.51-4.04-3.76-10.17-3.76-18.39 0-4.38.39-8.15 1.16-11.34q1.155-4.77 3.24-7.89t5.01-4.62c1.95-1 4.07-1.5 6.38-1.5"/><text x="1153.87" y="1781.06" fill-opacity="0" font-family="Arial,Arial_MSFontService,sans-serif" font-size="49.795">0</text><path fill="#5d1709" fill-rule="evenodd" d="M1203.56 1741.01c-1.33 0-2.51.31-3.56.91a6.3 6.3 0 0 0-2.42 2.51c-.57 1.07-.86 2.3-.86 3.68q0 2.055.84 3.69a6.1 6.1 0 0 0 2.42 2.53c1.06.6 2.25.91 3.58.91 1.36 0 2.56-.31 3.62-.91a6.2 6.2 0 0 0 2.44-2.53c.57-1.09.86-2.32.86-3.69 0-1.38-.29-2.61-.86-3.68a6.27 6.27 0 0 0-2.44-2.51c-1.06-.6-2.26-.91-3.62-.91m.15-3.53c2.04 0 3.86.46 5.47 1.36 1.6.9 2.85 2.16 3.74 3.78.89 1.61 1.34 3.44 1.34 5.49 0 2.02-.47 3.84-1.41 5.47s-2.24 2.9-3.9 3.83c-1.67.93-3.53 1.39-5.6 1.39s-3.89-.46-5.47-1.39-2.8-2.2-3.65-3.83c-.86-1.63-1.29-3.47-1.29-5.51 0-2.02.46-3.84 1.37-5.47q1.38-2.445 3.84-3.78c1.64-.89 3.49-1.34 5.56-1.34"/><text x="1192.94" y="1756.14" fill-opacity="0" font-family="Arial,Arial_MSFontService,sans-serif" font-size="21.315">Â°</text><path fill-rule="evenodd" d="M1205.96 1341.33q10.41 2.745 15.99 11.85c3.71 6.07 5.57 13.4 5.57 21.98 0 8.6-1.85 15.92-5.56 21.97-3.7 6.05-9.04 9.99-16 11.82l-.86-2.75c5.49-1.83 9.57-5.44 12.25-10.83 2.67-5.4 4.01-12.25 4.01-20.57 0-8.03-1.33-14.7-4-20.01q-3.99-7.965-12.36-10.71Zm-152.31 0 .96 2.75c-5.56 1.83-9.67 5.4-12.35 10.71-2.67 5.31-4.01 11.98-4.01 20.01 0 8.32 1.34 15.17 4.01 20.57 2.68 5.39 6.76 9 12.25 10.83l-.86 2.75c-6.96-1.83-12.3-5.77-16-11.82-3.71-6.05-5.56-13.37-5.56-21.97 0-8.58 1.86-15.91 5.58-21.98 3.71-6.07 9.04-10.02 15.98-11.85"/><path fill="#d74514" fill-rule="evenodd" d="M1067.33 1361.32c1.5 0 2.68.49 3.55 1.48.87.98 1.3 2.27 1.3 3.86 0 1.31-.27 2.7-.82 4.17l.43.15c2.18-3.26 4.36-5.68 6.52-7.26s4.35-2.37 6.56-2.37c2.28 0 4.02.65 5.2 1.95 1.19 1.29 1.79 3.16 1.79 5.61v.5c0 .17-.02.34-.04.53 2.04-2.9 4.08-5.05 6.11-6.47 2.03-1.41 4.14-2.12 6.33-2.12s3.87.63 5.06 1.89 1.78 3.03 1.78 5.31c0 1.5-.34 3.63-1.03 6.38l-2.32 9.34q-.96 3.885-.96 5.49c0 .95.16 1.64.46 2.07.31.43.8.64 1.47.64q1.065 0 2.28-.87c.8-.58 1.95-1.7 3.42-3.34l2.03 2c-2.04 2.16-3.83 3.76-5.35 4.78s-3.25 1.53-5.2 1.53c-1.54 0-2.78-.55-3.71-1.66-.92-1.1-1.39-2.51-1.39-4.22 0-1.55.39-3.82 1.18-6.81l1.57-6.17c.57-2.23.94-3.88 1.12-4.95s.27-1.94.27-2.6c0-1.64-.28-2.82-.82-3.55-.55-.72-1.44-1.09-2.68-1.09-.99 0-2.06.38-3.2 1.13s-2.34 1.91-3.6 3.49-2.29 3.14-3.09 4.67c-.79 1.53-1.43 3.4-1.9 5.61l-3.25 15.58h-6.16l4.09-18.11c.5-2.21.84-3.84 1.02-4.9q.27-1.59.27-2.73c0-1.71-.31-2.92-.91-3.65-.61-.72-1.55-1.09-2.83-1.09-.91 0-1.94.38-3.09 1.13q-1.725 1.125-3.69 3.6c-1.3 1.65-2.33 3.23-3.06 4.76-.74 1.52-1.36 3.37-1.86 5.56l-3.38 15.43h-6.17l5.21-22.6c.52-2.28.78-4.04.78-5.27 0-.95-.16-1.64-.46-2.07-.31-.43-.8-.64-1.47-.64-.73 0-1.51.3-2.33.91-.82.6-1.94 1.7-3.37 3.29l-2.03-1.99q3.135-3.285 5.4-4.8a8.76 8.76 0 0 1 4.97-1.51"/><text x="1056.96" y="1392.16" fill-opacity="0" font-family="Arial,Arial_MSFontService,sans-serif" font-size="35.252">ğ‘š</text><path fill-rule="evenodd" d="M1123.44 1387.73h6.24c.33 1.66.5 3.3.5 4.92 0 1.66-.29 3.18-.86 4.56s-1.47 2.75-2.72 4.12c-1.25 1.36-2.97 2.87-5.15 4.51l-1.93-2.18c1.21-1.14 2.09-2.17 2.64-3.08s.94-1.95 1.18-3.12c.23-1.16.35-2.62.35-4.38 0-1.81-.08-3.59-.25-5.35"/><text x="1119.52" y="1403.57" fill-opacity="0" font-family="Arial,Arial_MSFontService,sans-serif" font-size="18.107">,</text><path fill="#5d1709" fill-rule="evenodd" d="M1171.23 1358.29c-9.44.4-14.15 4.8-14.15 13.19 0 4.42 1.11 7.7 3.33 9.83 2.22 2.14 5.83 3.26 10.82 3.35Zm6.41-.11v26.38c9.44-.31 14.15-4.73 14.15-13.26 0-8.7-4.71-13.07-14.15-13.12m-10.58-10.84h14.75v1.75q-2.31.54-3.24 1.5c-.62.64-.93 2.2-.93 4.67h.04c6.32 0 11.45 1.23 15.38 3.69s5.9 6.29 5.9 11.49c0 5.37-1.72 9.45-5.17 12.23s-8.83 4.39-16.15 4.85v.17c0 2.43.25 4.02.75 4.78s1.64 1.36 3.42 1.78v1.75h-14.75v-1.75c1.8-.42 2.95-1.02 3.44-1.78.48-.76.73-2.35.73-4.78v-.14c-7.04-.19-12.35-1.52-15.94-4.01-3.58-2.48-5.38-6.32-5.38-11.53 0-10.48 7.11-16.04 21.32-16.68 0-2.52-.31-4.11-.93-4.76s-1.7-1.15-3.24-1.48Z"/><text x="1149.91" y="1389.92" fill-opacity="0" font-family="Arial,Arial_MSFontService,sans-serif" font-size="48.655">Î¦</text><path fill-rule="evenodd" d="M1189.6 1429.33c6.93 1.83 12.26 5.78 15.98 11.85s5.58 13.4 5.58 21.98c0 8.6-1.85 15.92-5.56 21.97s-9.04 9.99-16 11.82l-.86-2.75q8.235-2.745 12.24-10.83c2.68-5.4 4.01-12.25 4.01-20.57q0-12.045-3.99-20.01c-2.66-5.31-6.78-8.88-12.37-10.71Zm-114.29 0 .96 2.75c-5.56 1.83-9.68 5.4-12.35 10.71s-4.01 11.98-4.01 20.01c0 8.32 1.34 15.17 4.01 20.57q4.005 8.085 12.24 10.83l-.85 2.75c-6.96-1.83-12.3-5.77-16.01-11.82-3.7-6.05-5.56-13.37-5.56-21.97 0-8.58 1.86-15.91 5.58-21.98q5.58-9.105 15.99-11.85m13.82 6.01h14.26l-.39 1.75c-.91.19-1.55.41-1.95.64-.39.24-.74.6-1.05 1.07-.31.48-.63 1.22-.96 2.23s-.75 2.66-1.25 4.94l-6.09 27.66c-.31 1.4-.51 2.51-.61 3.33-.09.82-.14 1.56-.14 2.23 0 1.07.27 1.82.8 2.26.54.44 1.43.71 2.69.8l-.39 1.75h-14.26l.39-1.75c.91-.14 1.58-.37 2.04-.69.45-.32.83-.77 1.14-1.34s.59-1.26.85-2.08.66-2.41 1.18-4.76l6.06-27.45c.52-2.37.78-4.29.78-5.74 0-1.11-.28-1.89-.84-2.33-.55-.44-1.44-.7-2.65-.77Z"/><text x="1079.79" y="1477.92" fill-opacity="0" font-family="Arial,Arial_MSFontService,sans-serif" font-size="48.655">ğ¼</text><path fill-rule="evenodd" d="M1112.95 1475.73h6.24c.33 1.66.49 3.3.49 4.92 0 1.66-.28 3.18-.85 4.56s-1.48 2.75-2.73 4.12c-1.25 1.36-2.96 2.87-5.15 4.51l-1.92-2.18c1.21-1.14 2.09-2.17 2.63-3.08.55-.91.94-1.95 1.18-3.12q.36-1.74.36-4.38c0-1.81-.09-3.59-.25-5.35"/><text x="1109.03" y="1491.57" fill-opacity="0" font-family="Arial,Arial_MSFontService,sans-serif" font-size="18.107">,</text><path fill-rule="evenodd" d="M1165.12 1437.91c-2.57 0-4.96.92-7.19 2.75-2.22 1.83-4.17 4.44-5.84 7.84-1.68 3.4-2.98 7.13-3.91 11.19-.92 4.06-1.39 7.65-1.39 10.76 0 7.35 2.68 11.02 8.02 11.02q4.965 0 9.09-4.62c2.76-3.07 4.98-7.33 6.67-12.78 1.69-5.44 2.53-10.52 2.53-15.25 0-3.54-.65-6.25-1.96-8.11-1.31-1.87-3.32-2.8-6.02-2.8m.39-3.14c4.58 0 8.12 1.34 10.6 4 2.49 2.66 3.73 6.51 3.73 11.55 0 3.32-.53 7.04-1.57 11.15-1.05 4.11-2.48 7.74-4.31 10.89s-3.95 5.69-6.37 7.61q-3.615 2.895-7.86 3.99c.55 1.74 1.06 3.17 1.54 4.3.47 1.13.93 2.04 1.37 2.74s.87 1.23 1.3 1.57c.43.35.86.58 1.28.7q.645.18 1.5.18c.9 0 1.82-.27 2.74-.79.93-.52 1.96-1.42 3.11-2.71l1.85 2q-2.85 3.105-5.31 4.38c-1.64.86-3.33 1.29-5.06 1.29q-2.97 0-4.83-1.32c-1.25-.88-2.33-2.28-3.25-4.21-.91-1.92-1.8-4.44-2.65-7.56-4.3-.23-7.58-1.66-9.84-4.27-2.26-2.62-3.39-6.3-3.39-11.05q0-5.355 1.8-12.09c1.2-4.49 2.94-8.45 5.21-11.88 2.27-3.44 4.98-6.04 8.12-7.81 3.15-1.77 6.58-2.66 10.29-2.66"/><text x="1140.09" y="1489.76" fill-opacity="0" font-family="Arial,Arial_MSFontService,sans-serif" font-size="62.841">ğ‘„</text><path fill-rule="evenodd" d="M1224.9 1883.55h14.26l-.39 1.75c-.91.19-1.56.4-1.95.64s-.74.6-1.05 1.07c-.31.48-.63 1.22-.96 2.23s-.75 2.65-1.25 4.94l-6.09 27.66c-.31 1.4-.51 2.51-.61 3.33s-.14 1.56-.14 2.23c0 1.07.26 1.82.8 2.26.53.44 1.43.71 2.69.8l-.39 1.75h-14.26l.39-1.75c.91-.14 1.58-.37 2.03-.69.46-.32.84-.77 1.15-1.34.3-.57.59-1.27.85-2.09.26-.81.65-2.4 1.18-4.75l6.06-27.45c.52-2.38.78-4.29.78-5.74 0-1.12-.28-1.89-.84-2.33s-1.44-.7-2.65-.77Z"/><text x="1215.56" y="1926.13" fill-opacity="0" font-family="Arial,Arial_MSFontService,sans-serif" font-size="48.655">ğ¼</text><path fill-rule="evenodd" d="M720.172 1288.39c-2.567 0-4.961.92-7.183 2.75s-4.17 4.44-5.845 7.84q-2.514 5.1-3.903 11.19c-.927 4.06-1.391 7.65-1.391 10.76 0 7.35 2.674 11.02 8.02 11.02q4.955 0 9.09-4.62 4.134-4.605 6.665-12.78c1.688-5.44 2.531-10.52 2.531-15.25 0-3.54-.653-6.25-1.96-8.11-1.307-1.87-3.315-2.8-6.024-2.8m.392-3.14c4.586 0 8.121 1.33 10.604 4q3.725 3.99 3.725 11.55c0 3.32-.523 7.04-1.568 11.15q-1.57 6.165-4.313 10.89c-1.83 3.15-3.951 5.69-6.363 7.61q-3.618 2.895-7.86 3.99c.547 1.74 1.058 3.17 1.533 4.3s.933 2.04 1.372 2.74.874 1.23 1.301 1.57c.428.35.856.58 1.284.7q.64.18 1.497.18c.903 0 1.818-.27 2.744-.79s1.961-1.42 3.101-2.71l1.854 2q-2.851 3.105-5.311 4.38-2.46 1.29-5.062 1.29-2.958 0-4.829-1.32c-1.248-.88-2.329-2.28-3.244-4.21q-1.372-2.88-2.656-7.56c-4.301-.23-7.58-1.66-9.837-4.27-2.258-2.62-3.387-6.3-3.387-11.05q0-5.355 1.8-12.09t5.204-11.88c2.27-3.44 4.979-6.04 8.127-7.81s6.577-2.66 10.284-2.66"/><text x="695.149" y="1340.24" fill-opacity="0" font-family="Arial,Arial_MSFontService,sans-serif" font-size="62.841">ğ‘„</text><path fill="none" stroke="#000" stroke-dasharray="27.5 9.16667" stroke-miterlimit="8" stroke-width="9.167" d="m982.284 1820.82-.784-303.32m-332-38.85 287.747-4.148"/><path fill-rule="evenodd" d="M764.935 1856.3h10.742l-.295 1.32q-1.02.21-1.464.48-.442.27-.792.81-.349.54-.725 1.68t-.94 3.72l-4.592 20.84c-.233 1.05-.385 1.89-.457 2.51-.071.62-.107 1.17-.107 1.68 0 .8.201 1.37.604 1.7s1.079.53 2.028.61l-.296 1.31h-10.742l.296-1.31c.68-.11 1.19-.29 1.53-.53s.627-.58.86-1.01c.232-.42.447-.95.644-1.57.197-.61.493-1.81.886-3.58l4.566-20.68q.591-2.685.591-4.32c0-.85-.211-1.43-.631-1.76s-1.088-.53-2.001-.58Z"/><text x="757.899" y="1888.38" fill-opacity="0" font-family="Arial,Arial_MSFontService,sans-serif" font-size="36.658">ğ¼</text><text font-family="Microsoft YaHei,Microsoft YaHei_MSFontService,sans-serif" font-size="55" font-weight="400" transform="translate(794.777 1893)">å€¼</text><path fill-rule="evenodd" d="M565.149 1681.14c0 1.94.69 3.74 2.068 5.41q2.068 2.52 5.908 4.41t8.433 2.94 8.11 1.05c5.533 0 8.299-2.02 8.299-6.05 0-2.49-1.16-4.77-3.478-6.85-2.319-2.07-5.528-3.75-9.628-5.02s-7.931-1.9-11.494-1.9q-4.002 0-6.109 1.47c-1.406.99-2.109 2.5-2.109 4.54m-2.363-.29c0-3.46 1.003-6.12 3.008-7.99s4.905-2.81 8.701-2.81c2.507 0 5.308.39 8.406 1.18 3.097.79 5.832 1.87 8.204 3.25q3.558 2.07 5.734 4.8c1.45 1.81 2.453 3.79 3.008 5.92 1.307-.41 2.385-.8 3.236-1.16.85-.36 1.539-.7 2.068-1.03.528-.33.922-.66 1.181-.98.26-.32.434-.65.524-.97.089-.32.134-.7.134-1.13 0-.68-.197-1.37-.591-2.06q-.59-1.05-2.041-2.34l1.504-1.4c1.558 1.43 2.659 2.77 3.303 4 .645 1.24.967 2.51.967 3.82 0 1.48-.331 2.7-.993 3.64-.663.94-1.719 1.75-3.169 2.44-1.451.69-3.348 1.36-5.694 2q-.269 4.86-3.222 7.41-2.955 2.55-8.326 2.55-4.028 0-9.104-1.35c-3.383-.91-6.369-2.21-8.956-3.92s-4.547-3.75-5.881-6.13q-2.001-3.555-2.001-7.74"/><text x="562.786" y="1696.25" fill-opacity="0" font-family="Arial,Arial_MSFontService,sans-serif" font-size="29.944">ğ‘„</text><text font-family="Microsoft YaHei,Microsoft YaHei_MSFontService,sans-serif" font-size="55" font-weight="400" transform="rotate(-90 1124.436 524.564)">å€¼</text></g></svg>