<svg xmlns="http://www.w3.org/2000/svg" width="1195" height="1129" overflow="hidden"><defs><clipPath id="a"><path d="M1421 1636h1195v1129H1421z"/></clipPath></defs><g clip-path="url(#a)" transform="translate(-1421 -1636)"><path fill="#fdefe8" d="M1980 1795h514v819h-514z"/><path fill="none" stroke="#000" stroke-miterlimit="8" stroke-width="9.167" d="M1421.5 2214.5h1189.38m-630.38 550.44V1661.5"/><path fill="#d74514" fill-rule="evenodd" d="M2319 2212.5c0-24.02 19.48-43.5 43.5-43.5s43.5 19.48 43.5 43.5-19.48 43.5-43.5 43.5-43.5-19.48-43.5-43.5"/><text fill="#d74514" font-family="Microsoft YaHei,Microsoft YaHei_MSFontService,sans-serif" font-size="73" font-weight="700" transform="translate(2334.61 2126)">1</text><path fill-rule="evenodd" d="M2557.83 2273.33h14.25l-.39 1.75c-.9.19-1.55.4-1.94.64s-.74.6-1.05 1.07c-.31.48-.63 1.22-.96 2.23-.34 1.01-.75 2.66-1.25 4.94l-6.1 27.66q-.465 2.1-.6 3.33c-.1.82-.15 1.56-.15 2.23 0 1.07.27 1.82.81 2.26.53.44 1.43.71 2.69.8l-.39 1.75h-14.26l.39-1.75c.9-.14 1.58-.37 2.03-.69s.83-.77 1.14-1.34.6-1.26.86-2.08.65-2.41 1.17-4.76l6.06-27.45c.53-2.38.79-4.29.79-5.74 0-1.12-.28-1.89-.84-2.33s-1.44-.7-2.66-.77Z"/><text x="2548.49" y="2315.91" fill-opacity="0" font-family="Arial,Arial_MSFontService,sans-serif" font-size="48.655">𝐼</text><path fill-rule="evenodd" d="M2053.1 1678.17c-2.57 0-4.96.92-7.18 2.75-2.23 1.83-4.17 4.44-5.85 7.84-1.67 3.4-2.98 7.13-3.9 11.19-.93 4.06-1.39 7.65-1.39 10.77 0 7.34 2.67 11.01 8.02 11.01q4.95 0 9.09-4.62 4.125-4.605 6.66-12.78c1.69-5.44 2.53-10.52 2.53-15.25 0-3.54-.65-6.24-1.96-8.11-1.3-1.87-3.31-2.8-6.02-2.8m.39-3.14c4.59 0 8.12 1.34 10.6 4 2.49 2.66 3.73 6.51 3.73 11.55 0 3.32-.52 7.04-1.57 11.15-1.04 4.11-2.48 7.74-4.31 10.89s-3.95 5.69-6.36 7.61q-3.63 2.895-7.86 3.99c.54 1.74 1.05 3.17 1.53 4.3.47 1.13.93 2.04 1.37 2.74.44.71.87 1.23 1.3 1.57.43.35.86.58 1.29.7.42.12.92.18 1.49.18.91 0 1.82-.27 2.75-.79.92-.52 1.96-1.42 3.1-2.71l1.85 2q-2.85 3.105-5.31 4.38c-1.64.86-3.33 1.29-5.06 1.29q-2.955 0-4.83-1.32c-1.25-.88-2.33-2.28-3.24-4.21-.92-1.92-1.8-4.44-2.66-7.56-4.3-.23-7.58-1.66-9.84-4.27-2.26-2.62-3.38-6.3-3.38-11.05 0-3.57.6-7.59 1.8-12.09 1.2-4.49 2.93-8.45 5.2-11.88 2.27-3.44 4.98-6.04 8.13-7.81s6.57-2.66 10.28-2.66"/><text x="2028.08" y="1730.02" fill-opacity="0" font-family="Arial,Arial_MSFontService,sans-serif" font-size="62.841">𝑄</text><path fill="#d74514" fill-rule="evenodd" d="M1628 2212.5c0-24.02 19.48-43.5 43.5-43.5s43.5 19.48 43.5 43.5-19.48 43.5-43.5 43.5-43.5-19.48-43.5-43.5"/><text fill="#d74514" font-family="Microsoft YaHei,Microsoft YaHei_MSFontService,sans-serif" font-size="73" font-weight="700" transform="translate(1643.38 2126)">0</text></g></svg>