<svg xmlns="http://www.w3.org/2000/svg" width="1195" height="1129" overflow="hidden"><defs><clipPath id="a"><path d="M2893 437h1195v1129H2893z"/></clipPath></defs><g clip-path="url(#a)" transform="translate(-2893 -437)"><path fill="none" stroke="#000" stroke-miterlimit="8" stroke-width="9.167" d="M2893.5 1016.5h1189.37m-629.37 549.44V462.5"/><path fill="#d74514" fill-rule="evenodd" d="M3779 654c0-24.3 19.48-44 43.5-44s43.5 19.7 43.5 44-19.48 44-43.5 44-43.5-19.699-43.5-44"/><text fill="#d74514" font-family="Microsoft YaHei,Microsoft YaHei_MSFontService,sans-serif" font-size="73" font-weight="700" transform="translate(3771.46 567)">0<tspan x="45.26" y="0">0</tspan></text><path fill-rule="evenodd" d="M4030.57 1074.78h14.26l-.39 1.74c-.91.19-1.55.41-1.95.64-.39.24-.74.6-1.05 1.07-.31.48-.63 1.22-.96 2.23s-.75 2.66-1.25 4.94l-6.09 27.66c-.31 1.4-.51 2.51-.61 3.33-.09.82-.14 1.56-.14 2.23 0 1.07.27 1.82.8 2.26.54.44 1.43.71 2.69.8l-.39 1.75h-14.26l.39-1.75q1.365-.21 2.04-.69c.45-.32.83-.77 1.14-1.34s.59-1.26.85-2.08.66-2.41 1.18-4.76l6.06-27.45c.52-2.37.78-4.29.78-5.74 0-1.11-.28-1.89-.83-2.33-.56-.44-1.45-.7-2.66-.77Z"/><text x="4021.23" y="1117.35" fill-opacity="0" font-family="Arial,Arial_MSFontService,sans-serif" font-size="48.655">𝐼</text><path fill-rule="evenodd" d="M3525.84 479.613c-2.56 0-4.96.915-7.18 2.745s-4.17 4.444-5.84 7.842c-1.68 3.398-2.98 7.129-3.91 11.192-.92 4.064-1.39 7.652-1.39 10.765 0 7.343 2.68 11.014 8.02 11.014q4.965 0 9.09-4.616c2.76-3.077 4.98-7.337 6.67-12.779 1.68-5.441 2.53-10.527 2.53-15.255 0-3.541-.66-6.244-1.96-8.11q-1.965-2.798-6.03-2.798m.4-3.136c4.58 0 8.12 1.33 10.6 3.992s3.73 6.511 3.73 11.549c0 3.327-.53 7.045-1.57 11.156q-1.575 6.167-4.32 10.89-2.745 4.722-6.36 7.61t-7.86 3.992q.825 2.603 1.53 4.295.72 1.693 1.38 2.745c.44.701.87 1.224 1.3 1.568s.85.577 1.28.695q.645.179 1.5.179c.9 0 1.82-.262 2.74-.785.93-.522 1.96-1.425 3.1-2.709l1.86 1.997q-2.85 3.1-5.31 4.384-2.46 1.283-5.07 1.283-2.955 0-4.83-1.319-1.86-1.318-3.24-4.206c-.91-1.925-1.8-4.444-2.65-7.557-4.31-.237-7.58-1.663-9.84-4.277q-3.39-3.92-3.39-11.05 0-5.346 1.8-12.083c1.2-4.491 2.94-8.454 5.21-11.888 2.26-3.433 4.97-6.035 8.12-7.806q4.725-2.655 10.29-2.655"/><text x="3500.82" y="531.463" fill-opacity="0" font-family="Arial,Arial_MSFontService,sans-serif" font-size="62.841">𝑄</text><path fill="#d74514" fill-rule="evenodd" d="M3087 654c0-24.3 19.7-44 44-44s44 19.7 44 44-19.7 44-44 44-44-19.699-44-44"/><text fill="#d74514" font-family="Microsoft YaHei,Microsoft YaHei_MSFontService,sans-serif" font-size="73" font-weight="700" transform="translate(3080.23 567)">01</text><path fill="#d74514" fill-rule="evenodd" d="M3779 1346.5c0-24.02 19.48-43.5 43.5-43.5s43.5 19.48 43.5 43.5-19.48 43.5-43.5 43.5-43.5-19.48-43.5-43.5"/><text fill="#d74514" font-family="Microsoft YaHei,Microsoft YaHei_MSFontService,sans-serif" font-size="73" font-weight="700" transform="translate(3771.46 1260)">10</text><path fill="#d74514" fill-rule="evenodd" d="M3087 1346.5c0-24.02 19.7-43.5 44-43.5s44 19.48 44 43.5-19.7 43.5-44 43.5-44-19.48-44-43.5"/><text fill="#d74514" font-family="Microsoft YaHei,Microsoft YaHei_MSFontService,sans-serif" font-size="73" font-weight="700" transform="translate(3080.23 1260)">1<tspan x="45.26" y="0">1</tspan></text></g></svg>