<svg xmlns="http://www.w3.org/2000/svg" width="1195" height="1108" overflow="hidden"><defs><clipPath id="a"><path d="M88 20h1195v1108H88z"/></clipPath></defs><g clip-path="url(#a)" transform="translate(-88 -20)"><path fill="#fdefe8" fill-rule="evenodd" d="M171 577c0-263.44 213.336-477 476.5-477S1124 313.56 1124 577s-213.336 477-476.5 477S171 840.44 171 577"/><path fill="none" stroke="#000" stroke-miterlimit="8" stroke-width="9.167" d="M88.5 577.5h1189.37M647.5 1127.94V24.5"/><path fill="#d74514" fill-rule="evenodd" d="M937 226c0-24.301 19.476-44 43.5-44 24.02 0 43.5 19.699 43.5 44s-19.48 44-43.5 44c-24.024 0-43.5-19.7-43.5-44"/><path fill="none" stroke="#d74514" stroke-miterlimit="8" stroke-width="9.167" d="M647.5 577.492 949.911 257.5"/><text fill="#d74514" font-family="Microsoft YaHei,Microsoft YaHei_MSFontService,sans-serif" font-size="55" font-weight="400" transform="rotate(-46.93 873.585 -571.325)">magnitude</text><path fill="#5d1709" d="m779.864 577.191.875-12.938-.01.264.125-12.75.008.32-.375-6.25.033.334-.813-6.062.065.37-1.312-6 .134.484-1.938-5.75.173.437-2.563-5.625.602.975-3.315-4.116 7.138-5.75 3.678 4.565 2.899 6.365 2.093 6.211 1.407 6.429.859 6.416.395 6.578-.128 13.042-.884 13.069ZM760.575 536.3 748.5 486.5l47.085 20.22Z"/><path fill="#5d1709" fill-rule="evenodd" d="M841.172 505.169q-14.151.606-14.151 13.189 0 6.63 3.333 9.837 3.332 3.209 10.818 3.351Zm6.416-.107v26.377q14.151-.464 14.151-13.26 0-13.045-14.151-13.117m-10.587-10.836h14.757v1.747q-2.317.534-3.244 1.497-.926.962-.926 4.669h.035q9.482 0 15.381 3.689t5.899 11.496q0 8.056-5.168 12.226t-16.147 4.848v.178q0 3.636.748 4.776.749 1.142 3.422 1.782v1.747h-14.757v-1.747q2.71-.64 3.44-1.782.73-1.14.731-4.776v-.143q-10.551-.285-15.933-4.01-5.383-3.725-5.383-11.531 0-15.719 21.316-16.681 0-3.778-.927-4.759-.927-.98-3.244-1.479Z"/><text x="819.856" y="536.799" fill-opacity="0" font-family="Arial,Arial_MSFontService,sans-serif" font-size="48.655">Î¦</text><path fill="#5d1709" fill-rule="evenodd" d="M1169.48 492.799c-1.64 0-3.01.487-4.12 1.461q-1.65 1.461-2.67 4.206t-1.44 6.683c-.29 2.626-.43 5.591-.43 8.894q0 11.62 2.16 17.056c1.43 3.623 3.66 5.435 6.68 5.435 2.88 0 5.01-1.705 6.4-5.115s2.08-8.691 2.08-15.844c0-5.465-.35-9.891-1.07-13.277q-1.065-5.079-2.97-7.29-1.905-2.21-4.62-2.209m.18-3.03c5.2 0 9.08 2.008 11.62 6.024q3.81 6.024 3.81 18.214 0 12.618-4.08 19.088c-2.72 4.313-6.69 6.469-11.92 6.469q-7.695 0-11.46-6.059c-2.51-4.04-3.76-10.171-3.76-18.393 0-4.372.39-8.151 1.16-11.335q1.155-4.776 3.24-7.895t5.01-4.616c1.95-.998 4.07-1.497 6.38-1.497"/><text x="1153.87" y="533.34" fill-opacity="0" font-family="Arial,Arial_MSFontService,sans-serif" font-size="49.795">0</text><path fill="#5d1709" fill-rule="evenodd" d="M1203.56 493.298c-1.33 0-2.51.303-3.56.908a6.2 6.2 0 0 0-2.42 2.513c-.57 1.07-.86 2.294-.86 3.672q0 2.067.84 3.689a6.06 6.06 0 0 0 2.42 2.531c1.06.606 2.25.909 3.58.909 1.36 0 2.56-.303 3.62-.909a6.17 6.17 0 0 0 2.44-2.531c.57-1.081.86-2.311.86-3.689s-.29-2.602-.86-3.672a6.2 6.2 0 0 0-2.44-2.513c-1.06-.605-2.26-.908-3.62-.908m.15-3.529c2.04 0 3.86.451 5.47 1.354a9.55 9.55 0 0 1 3.74 3.779c.89 1.615 1.34 3.445 1.34 5.489q0 3.03-1.41 5.471a10.1 10.1 0 0 1-3.9 3.832c-1.67.927-3.53 1.39-5.6 1.39s-3.89-.463-5.47-1.39a9.4 9.4 0 0 1-3.65-3.832q-1.29-2.441-1.29-5.507c0-2.02.46-3.843 1.37-5.471a9.6 9.6 0 0 1 3.84-3.779c1.64-.891 3.49-1.336 5.56-1.336"/><text x="1192.94" y="508.42" fill-opacity="0" font-family="Arial,Arial_MSFontService,sans-serif" font-size="21.315">Â°</text><path fill-rule="evenodd" d="M1229.27 187.575c6.94 1.83 12.27 5.781 15.98 11.852q5.58 9.108 5.58 21.975c0 8.602-1.85 15.927-5.56 21.975-3.7 6.048-9.04 9.986-16 11.816l-.86-2.744c5.49-1.83 9.57-5.442 12.25-10.836 2.67-5.395 4.01-12.25 4.01-20.567 0-8.032-1.33-14.704-4-20.015q-3.99-7.966-12.36-10.711Zm-152.31 0 .96 2.745c-5.56 1.83-9.67 5.4-12.35 10.711-2.67 5.311-4.01 11.983-4.01 20.015 0 8.317 1.34 15.172 4.01 20.567 2.68 5.394 6.76 9.006 12.25 10.836l-.86 2.744c-6.96-1.83-12.3-5.768-16-11.816-3.71-6.048-5.56-13.373-5.56-21.975 0-8.578 1.86-15.903 5.57-21.975q5.58-9.107 15.99-11.852"/><path fill="#d74514" fill-rule="evenodd" d="M1090.64 207.562c1.5 0 2.68.493 3.55 1.479s1.3 2.276 1.3 3.868c0 1.307-.27 2.697-.82 4.17l.43.143c2.18-3.256 4.36-5.674 6.52-7.254s4.35-2.37 6.56-2.37c2.28 0 4.01.647 5.2 1.942 1.19 1.296 1.79 3.167 1.79 5.614v.499c0 .167-.02.345-.04.535 2.04-2.899 4.08-5.055 6.11-6.469q3.045-2.121 6.33-2.121c2.19 0 3.87.63 5.06 1.889s1.78 3.03 1.78 5.311c0 1.497-.34 3.624-1.03 6.38l-2.32 9.339q-.96 3.885-.96 5.49c0 .95.15 1.639.46 2.067q.465.642 1.47.641 1.065 0 2.28-.873 1.2-.873 3.42-3.333l2.03 1.997c-2.04 2.162-3.83 3.754-5.35 4.776s-3.25 1.533-5.2 1.533c-1.55 0-2.78-.553-3.71-1.658-.92-1.105-1.39-2.513-1.39-4.224 0-1.544.39-3.814 1.18-6.808l1.57-6.166c.57-2.234.94-3.886 1.12-4.955q.27-1.604.27-2.602c0-1.64-.28-2.822-.82-3.547-.55-.724-1.44-1.087-2.68-1.087-.99 0-2.06.375-3.2 1.123q-1.725 1.123-3.6 3.493-1.89 2.37-3.09 4.67c-.79 1.532-1.43 3.404-1.9 5.614l-3.25 15.576h-6.16l4.09-18.107q.75-3.315 1.02-4.901.27-1.587.27-2.727c0-1.711-.31-2.929-.91-3.654-.61-.724-1.55-1.087-2.84-1.087-.9 0-1.93.375-3.08 1.123q-1.725 1.124-3.69 3.6c-1.3 1.652-2.33 3.238-3.06 4.759q-1.11 2.281-1.86 5.56l-3.38 15.434h-6.17l5.2-22.598c.53-2.282.79-4.04.79-5.276 0-.95-.16-1.639-.46-2.067q-.465-.642-1.47-.642c-.73 0-1.51.303-2.33.909s-1.94 1.705-3.37 3.297l-2.03-1.996q3.135-3.279 5.4-4.794a8.76 8.76 0 0 1 4.97-1.515"/><text x="1080.27" y="238.408" fill-opacity="0" font-family="Arial,Arial_MSFontService,sans-serif" font-size="35.252">ğ‘š</text><path fill-rule="evenodd" d="M1146.75 233.975h6.24c.33 1.663.5 3.303.5 4.919 0 1.663-.29 3.184-.86 4.562s-1.48 2.751-2.72 4.117c-1.25 1.367-2.97 2.87-5.15 4.509l-1.93-2.174q1.815-1.711 2.64-3.083c.55-.915.94-1.955 1.18-3.119.23-1.165.35-2.626.35-4.385 0-1.806-.08-3.588-.25-5.346"/><text x="1142.83" y="249.819" fill-opacity="0" font-family="Arial,Arial_MSFontService,sans-serif" font-size="18.107">,</text><path fill="#5d1709" fill-rule="evenodd" d="M1194.54 204.532c-9.44.404-14.15 4.801-14.15 13.189q0 6.63 3.33 9.838c2.22 2.138 5.83 3.255 10.82 3.35Zm6.41-.107v26.377c9.44-.309 14.15-4.728 14.15-13.259 0-8.698-4.71-13.07-14.15-13.118m-10.58-10.835h14.75v1.746q-2.31.536-3.24 1.497-.93.963-.93 4.67h.04c6.32 0 11.45 1.229 15.38 3.689s5.9 6.291 5.9 11.495c0 5.371-1.72 9.446-5.17 12.226s-8.83 4.396-16.15 4.848v.178q0 3.636.75 4.776.75 1.141 3.42 1.783v1.746h-14.75v-1.746c1.8-.428 2.95-1.022 3.44-1.783.48-.76.73-2.352.73-4.776v-.142c-7.04-.191-12.35-1.527-15.94-4.01-3.58-2.484-5.38-6.327-5.38-11.531 0-10.48 7.11-16.041 21.32-16.682q0-3.778-.93-4.759-.93-.98-3.24-1.479Z"/><text x="1173.22" y="236.162" fill-opacity="0" font-family="Arial,Arial_MSFontService,sans-serif" font-size="48.655">Î¦</text></g></svg>