<svg width="1195" height="1129" xmlns="http://www.w3.org/2000/svg" xmlns:xlink="http://www.w3.org/1999/xlink" overflow="hidden"><defs><clipPath id="clip0"><rect x="88" y="1246" width="1195" height="1129"/></clipPath></defs><g clip-path="url(#clip0)" transform="translate(-88 -1246)"><path d="M171 1824.5C171 1561.34 384.336 1348 647.5 1348 910.664 1348 1124 1561.34 1124 1824.5 1124 2087.66 910.664 2301 647.5 2301 384.336 2301 171 2087.66 171 1824.5Z" fill="#FDEFE8" fill-rule="evenodd"/><path d="M88.4998 1825.5 1277.87 1825.5" stroke="#000000" stroke-width="9.16667" stroke-miterlimit="8" fill="none" fill-rule="evenodd"/><path d="M0 0 0.000360892 1103.44" stroke="#000000" stroke-width="9.16667" stroke-miterlimit="8" fill="none" fill-rule="evenodd" transform="matrix(1 0 0 -1 647.5 2374.94)"/><path d="M937 1473.5C937 1449.48 956.476 1430 980.5 1430 1004.52 1430 1024 1449.48 1024 1473.5 1024 1497.52 1004.52 1517 980.5 1517 956.476 1517 937 1497.52 937 1473.5Z" fill="#D74514" fill-rule="evenodd"/><path d="M0 0 302.411 319.992" stroke="#D74514" stroke-width="9.16667" stroke-miterlimit="8" fill="none" fill-rule="evenodd" transform="matrix(1 0 0 -1 647.5 1825.49)"/><text fill="#D74514" font-family="Microsoft YaHei,Microsoft YaHei_MSFontService,sans-serif" font-weight="400" font-size="55" transform="matrix(0.682887 -0.730524 0.730524 0.682887 694.392 1704)">magnitude</text><path d="M779.864 1825.19 780.739 1812.25 780.729 1812.52 780.854 1799.77 780.862 1800.09 780.487 1793.84 780.52 1794.17 779.707 1788.11 779.772 1788.48 778.46 1782.48 778.594 1782.96 776.656 1777.21 776.829 1777.65 774.266 1772.03 774.868 1773 771.553 1768.88 778.691 1763.13 782.369 1767.7 785.268 1774.06 787.361 1780.27 788.768 1786.7 789.627 1793.12 790.022 1799.7 789.894 1812.74 789.01 1825.81ZM760.575 1784.3 748.5 1734.5 795.585 1754.72Z" fill="#5D1709"/><path d="M841.172 1752.88C831.738 1753.29 827.021 1757.68 827.021 1766.07 827.021 1770.49 828.132 1773.77 830.354 1775.91 832.575 1778.05 836.181 1779.17 841.172 1779.26ZM847.588 1752.78 847.588 1779.15C857.022 1778.85 861.739 1774.43 861.739 1765.89 861.739 1757.2 857.022 1752.82 847.588 1752.78ZM837.001 1741.94 851.758 1741.94 851.758 1743.69C850.213 1744.04 849.132 1744.54 848.514 1745.19 847.897 1745.83 847.588 1747.38 847.588 1749.85L847.623 1749.85C853.944 1749.85 859.071 1751.08 863.004 1753.54 866.937 1756 868.903 1759.84 868.903 1765.04 868.903 1770.41 867.18 1774.48 863.735 1777.27 860.289 1780.05 854.907 1781.66 847.588 1782.11L847.588 1782.29C847.588 1784.71 847.837 1786.31 848.336 1787.07 848.835 1787.83 849.976 1788.42 851.758 1788.85L851.758 1790.6 837.001 1790.6 837.001 1788.85C838.807 1788.42 839.954 1787.83 840.441 1787.07 840.928 1786.31 841.172 1784.71 841.172 1782.29L841.172 1782.15C834.138 1781.96 828.827 1780.62 825.239 1778.14 821.65 1775.66 819.856 1771.81 819.856 1766.61 819.856 1756.13 826.961 1750.57 841.172 1749.93 841.172 1747.41 840.863 1745.82 840.245 1745.17 839.627 1744.51 838.546 1744.02 837.001 1743.69Z" fill="#5D1709" fill-rule="evenodd"/><text fill="#000000" fill-opacity="0" font-family="Arial,Arial_MSFontService,sans-serif" font-size="48.6548" x="819.856" y="1784.51">Î¦</text><path d="M1169.48 1740.51C1167.84 1740.51 1166.47 1741 1165.36 1741.98 1164.26 1742.95 1163.37 1744.35 1162.69 1746.18 1162.01 1748.01 1161.53 1750.24 1161.25 1752.86 1160.96 1755.49 1160.82 1758.45 1160.82 1761.76 1160.82 1769.5 1161.54 1775.19 1162.98 1778.81 1164.41 1782.44 1166.64 1784.25 1169.66 1784.25 1172.54 1784.25 1174.67 1782.54 1176.06 1779.13 1177.45 1775.72 1178.14 1770.44 1178.14 1763.29 1178.14 1757.83 1177.79 1753.4 1177.07 1750.01 1176.36 1746.63 1175.37 1744.2 1174.1 1742.72 1172.83 1741.25 1171.29 1740.51 1169.48 1740.51ZM1169.66 1737.48C1174.86 1737.48 1178.74 1739.49 1181.28 1743.51 1183.82 1747.52 1185.09 1753.6 1185.09 1761.72 1185.09 1770.13 1183.73 1776.5 1181.01 1780.81 1178.29 1785.12 1174.32 1787.28 1169.09 1787.28 1163.96 1787.28 1160.14 1785.26 1157.63 1781.22 1155.12 1777.18 1153.87 1771.05 1153.87 1762.83 1153.87 1758.45 1154.26 1754.68 1155.03 1751.49 1155.8 1748.31 1156.88 1745.68 1158.27 1743.6 1159.66 1741.52 1161.33 1739.98 1163.28 1738.98 1165.23 1737.98 1167.35 1737.48 1169.66 1737.48Z" fill="#5D1709" fill-rule="evenodd"/><text fill="#000000" fill-opacity="0" font-family="Arial,Arial_MSFontService,sans-serif" font-size="49.7954" x="1153.87" y="1781.06">0</text><path d="M1203.56 1741.01C1202.23 1741.01 1201.05 1741.32 1200 1741.92 1198.95 1742.53 1198.15 1743.37 1197.58 1744.43 1197.01 1745.5 1196.72 1746.73 1196.72 1748.11 1196.72 1749.48 1197 1750.71 1197.56 1751.8 1198.12 1752.88 1198.92 1753.72 1199.98 1754.33 1201.04 1754.93 1202.23 1755.24 1203.56 1755.24 1204.92 1755.24 1206.12 1754.93 1207.18 1754.33 1208.24 1753.72 1209.05 1752.88 1209.62 1751.8 1210.19 1750.71 1210.48 1749.48 1210.48 1748.11 1210.48 1746.73 1210.19 1745.5 1209.62 1744.43 1209.05 1743.37 1208.24 1742.53 1207.18 1741.92 1206.12 1741.32 1204.92 1741.01 1203.56 1741.01ZM1203.71 1737.48C1205.75 1737.48 1207.57 1737.94 1209.18 1738.84 1210.78 1739.74 1212.03 1741 1212.92 1742.62 1213.81 1744.23 1214.26 1746.06 1214.26 1748.11 1214.26 1750.13 1213.79 1751.95 1212.85 1753.58 1211.91 1755.21 1210.61 1756.48 1208.95 1757.41 1207.28 1758.34 1205.42 1758.8 1203.35 1758.8 1201.28 1758.8 1199.46 1758.34 1197.88 1757.41 1196.3 1756.48 1195.08 1755.21 1194.23 1753.58 1193.37 1751.95 1192.94 1750.11 1192.94 1748.07 1192.94 1746.05 1193.4 1744.23 1194.31 1742.6 1195.23 1740.97 1196.51 1739.71 1198.15 1738.82 1199.79 1737.93 1201.64 1737.48 1203.71 1737.48Z" fill="#5D1709" fill-rule="evenodd"/><text fill="#000000" fill-opacity="0" font-family="Arial,Arial_MSFontService,sans-serif" font-size="21.3154" x="1192.94" y="1756.14">Â°</text><path d="M1205.96 1341.33C1212.9 1343.16 1218.23 1347.11 1221.95 1353.18 1225.66 1359.25 1227.52 1366.58 1227.52 1375.16 1227.52 1383.76 1225.67 1391.08 1221.96 1397.13 1218.26 1403.18 1212.92 1407.12 1205.96 1408.95L1205.1 1406.2C1210.59 1404.37 1214.67 1400.76 1217.35 1395.37 1220.02 1389.97 1221.36 1383.12 1221.36 1374.8 1221.36 1366.77 1220.03 1360.1 1217.36 1354.79 1214.7 1349.48 1210.58 1345.91 1205 1344.08ZM1053.65 1341.33 1054.61 1344.08C1049.05 1345.91 1044.94 1349.48 1042.26 1354.79 1039.59 1360.1 1038.25 1366.77 1038.25 1374.8 1038.25 1383.12 1039.59 1389.97 1042.26 1395.37 1044.94 1400.76 1049.02 1404.37 1054.51 1406.2L1053.65 1408.95C1046.69 1407.12 1041.35 1403.18 1037.65 1397.13 1033.94 1391.08 1032.09 1383.76 1032.09 1375.16 1032.09 1366.58 1033.95 1359.25 1037.67 1353.18 1041.38 1347.11 1046.71 1343.16 1053.65 1341.33Z" fill-rule="evenodd"/><path d="M1067.33 1361.32C1068.83 1361.32 1070.01 1361.81 1070.88 1362.8 1071.75 1363.78 1072.18 1365.07 1072.18 1366.66 1072.18 1367.97 1071.91 1369.36 1071.36 1370.83L1071.79 1370.98C1073.97 1367.72 1076.15 1365.3 1078.31 1363.72 1080.47 1362.14 1082.66 1361.35 1084.87 1361.35 1087.15 1361.35 1088.89 1362 1090.07 1363.3 1091.26 1364.59 1091.86 1366.46 1091.86 1368.91L1091.86 1369.41C1091.86 1369.58 1091.84 1369.75 1091.82 1369.94 1093.86 1367.04 1095.9 1364.89 1097.93 1363.47 1099.96 1362.06 1102.07 1361.35 1104.26 1361.35 1106.45 1361.35 1108.13 1361.98 1109.32 1363.24 1110.51 1364.5 1111.1 1366.27 1111.1 1368.55 1111.1 1370.05 1110.76 1372.18 1110.07 1374.93L1107.75 1384.27C1107.11 1386.86 1106.79 1388.69 1106.79 1389.76 1106.79 1390.71 1106.95 1391.4 1107.25 1391.83 1107.56 1392.26 1108.05 1392.47 1108.72 1392.47 1109.43 1392.47 1110.19 1392.18 1111 1391.6 1111.8 1391.02 1112.95 1389.9 1114.42 1388.26L1116.45 1390.26C1114.41 1392.42 1112.62 1394.02 1111.1 1395.04 1109.58 1396.06 1107.85 1396.57 1105.9 1396.57 1104.36 1396.57 1103.12 1396.02 1102.19 1394.91 1101.27 1393.81 1100.8 1392.4 1100.8 1390.69 1100.8 1389.14 1101.19 1386.87 1101.98 1383.88L1103.55 1377.71C1104.12 1375.48 1104.49 1373.83 1104.67 1372.76 1104.85 1371.69 1104.94 1370.82 1104.94 1370.16 1104.94 1368.52 1104.66 1367.34 1104.12 1366.61 1103.57 1365.89 1102.68 1365.52 1101.44 1365.52 1100.45 1365.52 1099.38 1365.9 1098.24 1366.65 1097.1 1367.4 1095.9 1368.56 1094.64 1370.14 1093.38 1371.72 1092.35 1373.28 1091.55 1374.81 1090.76 1376.34 1090.12 1378.21 1089.65 1380.42L1086.4 1396 1080.24 1396 1084.33 1377.89C1084.83 1375.68 1085.17 1374.05 1085.35 1372.99 1085.53 1371.93 1085.62 1371.02 1085.62 1370.26 1085.62 1368.55 1085.31 1367.34 1084.71 1366.61 1084.1 1365.89 1083.16 1365.52 1081.88 1365.52 1080.97 1365.52 1079.94 1365.9 1078.79 1366.65 1077.64 1367.4 1076.41 1368.6 1075.1 1370.25 1073.8 1371.9 1072.77 1373.48 1072.04 1375.01 1071.3 1376.53 1070.68 1378.38 1070.18 1380.57L1066.8 1396 1060.63 1396 1065.84 1373.4C1066.36 1371.12 1066.62 1369.36 1066.62 1368.13 1066.62 1367.18 1066.46 1366.49 1066.16 1366.06 1065.85 1365.63 1065.36 1365.42 1064.69 1365.42 1063.96 1365.42 1063.18 1365.72 1062.36 1366.33 1061.54 1366.93 1060.42 1368.03 1058.99 1369.62L1056.96 1367.63C1059.05 1365.44 1060.85 1363.84 1062.36 1362.83 1063.87 1361.82 1065.53 1361.32 1067.33 1361.32Z" fill="#D74514" fill-rule="evenodd"/><text fill="#000000" fill-opacity="0" font-family="Arial,Arial_MSFontService,sans-serif" font-size="35.2524" x="1056.96" y="1392.16">ğ‘š</text><path d="M1123.44 1387.73 1129.68 1387.73C1130.01 1389.39 1130.18 1391.03 1130.18 1392.65 1130.18 1394.31 1129.89 1395.83 1129.32 1397.21 1128.75 1398.59 1127.85 1399.96 1126.6 1401.33 1125.35 1402.69 1123.63 1404.2 1121.45 1405.84L1119.52 1403.66C1120.73 1402.52 1121.61 1401.49 1122.16 1400.58 1122.71 1399.67 1123.1 1398.63 1123.34 1397.46 1123.57 1396.3 1123.69 1394.84 1123.69 1393.08 1123.69 1391.27 1123.61 1389.49 1123.44 1387.73Z" fill-rule="evenodd"/><text fill="#000000" fill-opacity="0" font-family="Arial,Arial_MSFontService,sans-serif" font-size="18.1074" x="1119.52" y="1403.57">,</text><path d="M1171.23 1358.29C1161.79 1358.69 1157.08 1363.09 1157.08 1371.48 1157.08 1375.9 1158.19 1379.18 1160.41 1381.31 1162.63 1383.45 1166.24 1384.57 1171.23 1384.66ZM1177.64 1358.18 1177.64 1384.56C1187.08 1384.25 1191.79 1379.83 1191.79 1371.3 1191.79 1362.6 1187.08 1358.23 1177.64 1358.18ZM1167.06 1347.34 1181.81 1347.34 1181.81 1349.09C1180.27 1349.45 1179.19 1349.95 1178.57 1350.59 1177.95 1351.23 1177.64 1352.79 1177.64 1355.26L1177.68 1355.26C1184 1355.26 1189.13 1356.49 1193.06 1358.95 1196.99 1361.41 1198.96 1365.24 1198.96 1370.44 1198.96 1375.81 1197.24 1379.89 1193.79 1382.67 1190.34 1385.45 1184.96 1387.06 1177.64 1387.52L1177.64 1387.69C1177.64 1390.12 1177.89 1391.71 1178.39 1392.47 1178.89 1393.23 1180.03 1393.83 1181.81 1394.25L1181.81 1396 1167.06 1396 1167.06 1394.25C1168.86 1393.83 1170.01 1393.23 1170.5 1392.47 1170.98 1391.71 1171.23 1390.12 1171.23 1387.69L1171.23 1387.55C1164.19 1387.36 1158.88 1386.03 1155.29 1383.54 1151.71 1381.06 1149.91 1377.22 1149.91 1372.01 1149.91 1361.53 1157.02 1355.97 1171.23 1355.33 1171.23 1352.81 1170.92 1351.22 1170.3 1350.57 1169.68 1349.92 1168.6 1349.42 1167.06 1349.09Z" fill="#5D1709" fill-rule="evenodd"/><text fill="#000000" fill-opacity="0" font-family="Arial,Arial_MSFontService,sans-serif" font-size="48.6548" x="1149.91" y="1389.92">Î¦</text><path d="M1189.6 1429.33C1196.53 1431.16 1201.86 1435.11 1205.58 1441.18 1209.3 1447.25 1211.16 1454.58 1211.16 1463.16 1211.16 1471.76 1209.31 1479.08 1205.6 1485.13 1201.89 1491.18 1196.56 1495.12 1189.6 1496.95L1188.74 1494.2C1194.23 1492.37 1198.31 1488.76 1200.98 1483.37 1203.66 1477.97 1204.99 1471.12 1204.99 1462.8 1204.99 1454.77 1203.66 1448.1 1201 1442.79 1198.34 1437.48 1194.22 1433.91 1188.63 1432.08ZM1075.31 1429.33 1076.27 1432.08C1070.71 1433.91 1066.59 1437.48 1063.92 1442.79 1061.25 1448.1 1059.91 1454.77 1059.91 1462.8 1059.91 1471.12 1061.25 1477.97 1063.92 1483.37 1066.59 1488.76 1070.67 1492.37 1076.16 1494.2L1075.31 1496.95C1068.35 1495.12 1063.01 1491.18 1059.3 1485.13 1055.6 1479.08 1053.74 1471.76 1053.74 1463.16 1053.74 1454.58 1055.6 1447.25 1059.32 1441.18 1063.04 1435.11 1068.37 1431.16 1075.31 1429.33Z" fill-rule="evenodd"/><path d="M1089.13 1435.34 1103.39 1435.34 1103 1437.09C1102.09 1437.28 1101.45 1437.5 1101.05 1437.73 1100.66 1437.97 1100.31 1438.33 1100 1438.8 1099.69 1439.28 1099.37 1440.02 1099.04 1441.03 1098.71 1442.04 1098.29 1443.69 1097.79 1445.97L1091.7 1473.63C1091.39 1475.03 1091.19 1476.14 1091.09 1476.96 1091 1477.78 1090.95 1478.52 1090.95 1479.19 1090.95 1480.26 1091.22 1481.01 1091.75 1481.45 1092.29 1481.89 1093.18 1482.16 1094.44 1482.25L1094.05 1484 1079.79 1484 1080.18 1482.25C1081.09 1482.11 1081.76 1481.88 1082.22 1481.56 1082.67 1481.24 1083.05 1480.79 1083.36 1480.22 1083.67 1479.65 1083.95 1478.96 1084.21 1478.14 1084.47 1477.32 1084.87 1475.73 1085.39 1473.38L1091.45 1445.93C1091.97 1443.56 1092.23 1441.64 1092.23 1440.19 1092.23 1439.08 1091.95 1438.3 1091.39 1437.86 1090.84 1437.42 1089.95 1437.16 1088.74 1437.09Z" fill-rule="evenodd"/><text fill="#000000" fill-opacity="0" font-family="Arial,Arial_MSFontService,sans-serif" font-size="48.6548" x="1079.79" y="1477.92">ğ¼</text><path d="M1112.95 1475.73 1119.19 1475.73C1119.52 1477.39 1119.68 1479.03 1119.68 1480.65 1119.68 1482.31 1119.4 1483.83 1118.83 1485.21 1118.26 1486.59 1117.35 1487.96 1116.1 1489.33 1114.85 1490.69 1113.14 1492.2 1110.95 1493.84L1109.03 1491.66C1110.24 1490.52 1111.12 1489.49 1111.66 1488.58 1112.21 1487.67 1112.6 1486.63 1112.84 1485.46 1113.08 1484.3 1113.2 1482.84 1113.2 1481.08 1113.2 1479.27 1113.11 1477.49 1112.95 1475.73Z" fill-rule="evenodd"/><text fill="#000000" fill-opacity="0" font-family="Arial,Arial_MSFontService,sans-serif" font-size="18.1074" x="1109.03" y="1491.57">,</text><path d="M1165.12 1437.91C1162.55 1437.91 1160.16 1438.83 1157.93 1440.66 1155.71 1442.49 1153.76 1445.1 1152.09 1448.5 1150.41 1451.9 1149.11 1455.63 1148.18 1459.69 1147.26 1463.75 1146.79 1467.34 1146.79 1470.45 1146.79 1477.8 1149.47 1481.47 1154.81 1481.47 1158.12 1481.47 1161.15 1479.93 1163.9 1476.85 1166.66 1473.78 1168.88 1469.52 1170.57 1464.07 1172.26 1458.63 1173.1 1453.55 1173.1 1448.82 1173.1 1445.28 1172.45 1442.57 1171.14 1440.71 1169.83 1438.84 1167.82 1437.91 1165.12 1437.91ZM1165.51 1434.77C1170.09 1434.77 1173.63 1436.11 1176.11 1438.77 1178.6 1441.43 1179.84 1445.28 1179.84 1450.32 1179.84 1453.64 1179.31 1457.36 1178.27 1461.47 1177.22 1465.58 1175.79 1469.21 1173.96 1472.36 1172.13 1475.51 1170.01 1478.05 1167.59 1479.97 1165.18 1481.9 1162.56 1483.23 1159.73 1483.96 1160.28 1485.7 1160.79 1487.13 1161.27 1488.26 1161.74 1489.39 1162.2 1490.3 1162.64 1491 1163.08 1491.7 1163.51 1492.23 1163.94 1492.57 1164.37 1492.92 1164.8 1493.15 1165.22 1493.27 1165.65 1493.39 1166.15 1493.45 1166.72 1493.45 1167.62 1493.45 1168.54 1493.18 1169.46 1492.66 1170.39 1492.14 1171.42 1491.24 1172.57 1489.95L1174.42 1491.95C1172.52 1494.02 1170.75 1495.48 1169.11 1496.33 1167.47 1497.19 1165.78 1497.62 1164.05 1497.62 1162.07 1497.62 1160.46 1497.18 1159.22 1496.3 1157.97 1495.42 1156.89 1494.02 1155.97 1492.09 1155.06 1490.17 1154.17 1487.65 1153.32 1484.53 1149.02 1484.3 1145.74 1482.87 1143.48 1480.26 1141.22 1477.64 1140.09 1473.96 1140.09 1469.21 1140.09 1465.64 1140.69 1461.61 1141.89 1457.12 1143.09 1452.63 1144.83 1448.67 1147.1 1445.24 1149.37 1441.8 1152.08 1439.2 1155.22 1437.43 1158.37 1435.66 1161.8 1434.77 1165.51 1434.77Z" fill-rule="evenodd"/><text fill="#000000" fill-opacity="0" font-family="Arial,Arial_MSFontService,sans-serif" font-size="62.8413" x="1140.09" y="1489.76">ğ‘„</text><path d="M1224.9 1883.55 1239.16 1883.55 1238.77 1885.3C1237.86 1885.49 1237.21 1885.7 1236.82 1885.94 1236.43 1886.18 1236.08 1886.54 1235.77 1887.01 1235.46 1887.49 1235.14 1888.23 1234.81 1889.24 1234.48 1890.25 1234.06 1891.89 1233.56 1894.18L1227.47 1921.84C1227.16 1923.24 1226.96 1924.35 1226.86 1925.17 1226.76 1925.99 1226.72 1926.73 1226.72 1927.4 1226.72 1928.47 1226.98 1929.22 1227.52 1929.66 1228.05 1930.1 1228.95 1930.37 1230.21 1930.46L1229.82 1932.21 1215.56 1932.21 1215.95 1930.46C1216.86 1930.32 1217.53 1930.09 1217.98 1929.77 1218.44 1929.45 1218.82 1929 1219.13 1928.43 1219.43 1927.86 1219.72 1927.16 1219.98 1926.34 1220.24 1925.53 1220.63 1923.94 1221.16 1921.59L1227.22 1894.14C1227.74 1891.76 1228 1889.85 1228 1888.4 1228 1887.28 1227.72 1886.51 1227.16 1886.07 1226.6 1885.63 1225.72 1885.37 1224.51 1885.3Z" fill-rule="evenodd"/><text fill="#000000" fill-opacity="0" font-family="Arial,Arial_MSFontService,sans-serif" font-size="48.6548" x="1215.56" y="1926.13">ğ¼</text><path d="M720.172 1288.39C717.605 1288.39 715.211 1289.31 712.989 1291.14 710.768 1292.97 708.819 1295.58 707.144 1298.98 705.468 1302.38 704.167 1306.11 703.241 1310.17 702.314 1314.23 701.85 1317.82 701.85 1320.93 701.85 1328.28 704.524 1331.95 709.87 1331.95 713.174 1331.95 716.203 1330.41 718.96 1327.33 721.716 1324.26 723.938 1320 725.625 1314.55 727.313 1309.11 728.156 1304.03 728.156 1299.3 728.156 1295.76 727.503 1293.05 726.196 1291.19 724.889 1289.32 722.881 1288.39 720.172 1288.39ZM720.564 1285.25C725.15 1285.25 728.685 1286.58 731.168 1289.25 733.651 1291.91 734.893 1295.76 734.893 1300.8 734.893 1304.12 734.37 1307.84 733.325 1311.95 732.279 1316.06 730.841 1319.69 729.012 1322.84 727.182 1325.99 725.061 1328.53 722.649 1330.45 720.237 1332.38 717.617 1333.71 714.789 1334.44 715.336 1336.18 715.847 1337.61 716.322 1338.74 716.797 1339.87 717.255 1340.78 717.694 1341.48 718.134 1342.18 718.568 1342.71 718.995 1343.05 719.423 1343.4 719.851 1343.63 720.279 1343.75 720.706 1343.87 721.205 1343.93 721.776 1343.93 722.679 1343.93 723.594 1343.66 724.52 1343.14 725.447 1342.62 726.481 1341.72 727.621 1340.43L729.475 1342.43C727.574 1344.5 725.804 1345.96 724.164 1346.81 722.524 1347.67 720.837 1348.1 719.102 1348.1 717.13 1348.1 715.52 1347.66 714.273 1346.78 713.025 1345.9 711.944 1344.5 711.029 1342.57 710.114 1340.65 709.229 1338.13 708.373 1335.01 704.072 1334.78 700.793 1333.35 698.536 1330.74 696.278 1328.12 695.149 1324.44 695.149 1319.69 695.149 1316.12 695.749 1312.09 696.949 1307.6 698.149 1303.11 699.884 1299.15 702.153 1295.72 704.423 1292.28 707.132 1289.68 710.28 1287.91 713.429 1286.14 716.857 1285.25 720.564 1285.25Z" fill-rule="evenodd"/><text fill="#000000" fill-opacity="0" font-family="Arial,Arial_MSFontService,sans-serif" font-size="62.8413" x="695.149" y="1340.24">ğ‘„</text><path d="M982.284 1820.82 981.5 1517.5" stroke="#000000" stroke-width="9.16667" stroke-miterlimit="8" stroke-dasharray="27.5 9.16667" fill="none" fill-rule="evenodd"/><path d="M0 0 287.747 4.14774" stroke="#000000" stroke-width="9.16667" stroke-miterlimit="8" stroke-dasharray="27.5 9.16667" fill="none" fill-rule="evenodd" transform="matrix(1 0 0 -1 649.5 1478.65)"/><path d="M764.935 1856.3 775.677 1856.3 775.382 1857.62C774.702 1857.76 774.214 1857.92 773.918 1858.1 773.623 1858.28 773.359 1858.55 773.126 1858.91 772.893 1859.27 772.652 1859.83 772.401 1860.59 772.15 1861.35 771.837 1862.59 771.461 1864.31L766.869 1885.15C766.636 1886.2 766.484 1887.04 766.412 1887.66 766.341 1888.28 766.305 1888.83 766.305 1889.34 766.305 1890.14 766.506 1890.71 766.909 1891.04 767.312 1891.37 767.988 1891.57 768.937 1891.65L768.641 1892.96 757.899 1892.96 758.195 1891.65C758.875 1891.54 759.385 1891.36 759.725 1891.12 760.065 1890.88 760.352 1890.54 760.585 1890.11 760.817 1889.69 761.032 1889.16 761.229 1888.54 761.426 1887.93 761.722 1886.73 762.115 1884.96L766.681 1864.28C767.075 1862.49 767.272 1861.05 767.272 1859.96 767.272 1859.11 767.061 1858.53 766.641 1858.2 766.22 1857.87 765.553 1857.67 764.64 1857.62Z" fill-rule="evenodd"/><text fill="#000000" fill-opacity="0" font-family="Arial,Arial_MSFontService,sans-serif" font-size="36.6577" x="757.899" y="1888.38">ğ¼</text><text font-family="Microsoft YaHei,Microsoft YaHei_MSFontService,sans-serif" font-weight="400" font-size="55" transform="matrix(1 0 0 1 794.777 1893)">å€¼</text><path d="M565.149 1681.14C565.149 1683.08 565.839 1684.88 567.217 1686.55 568.596 1688.23 570.565 1689.7 573.125 1690.96 575.686 1692.22 578.497 1693.2 581.558 1693.9 584.62 1694.6 587.323 1694.95 589.668 1694.95 595.201 1694.95 597.967 1692.93 597.967 1688.9 597.967 1686.41 596.807 1684.13 594.489 1682.05 592.17 1679.98 588.961 1678.3 584.861 1677.03 580.761 1675.76 576.93 1675.13 573.367 1675.13 570.699 1675.13 568.663 1675.62 567.258 1676.6 565.852 1677.59 565.149 1679.1 565.149 1681.14ZM562.786 1680.85C562.786 1677.39 563.789 1674.73 565.794 1672.86 567.799 1670.99 570.699 1670.05 574.495 1670.05 577.002 1670.05 579.803 1670.44 582.901 1671.23 585.998 1672.02 588.733 1673.1 591.105 1674.48 593.477 1675.86 595.389 1677.46 596.839 1679.28 598.289 1681.09 599.292 1683.07 599.847 1685.2 601.154 1684.79 602.232 1684.4 603.083 1684.04 603.933 1683.68 604.622 1683.34 605.151 1683.01 605.679 1682.68 606.073 1682.35 606.332 1682.03 606.592 1681.71 606.766 1681.38 606.856 1681.06 606.945 1680.74 606.99 1680.36 606.99 1679.93 606.99 1679.25 606.793 1678.56 606.399 1677.87 606.005 1677.17 605.325 1676.39 604.358 1675.53L605.862 1674.13C607.42 1675.56 608.521 1676.9 609.165 1678.13 609.81 1679.37 610.132 1680.64 610.132 1681.95 610.132 1683.43 609.801 1684.65 609.139 1685.59 608.476 1686.53 607.42 1687.34 605.97 1688.03 604.519 1688.72 602.622 1689.39 600.276 1690.03 600.097 1693.27 599.023 1695.74 597.054 1697.44 595.084 1699.14 592.309 1699.99 588.728 1699.99 586.043 1699.99 583.008 1699.54 579.624 1698.64 576.241 1697.73 573.255 1696.43 570.668 1694.72 568.081 1693.01 566.121 1690.97 564.787 1688.59 563.453 1686.22 562.786 1683.64 562.786 1680.85Z" fill-rule="evenodd"/><text fill="#000000" fill-opacity="0" font-family="Arial,Arial_MSFontService,sans-serif" font-size="29.9438" x="562.786" y="1696.25">ğ‘„</text><text font-family="Microsoft YaHei,Microsoft YaHei_MSFontService,sans-serif" font-weight="400" font-size="55" transform="matrix(-1.83697e-16 -1 1 -1.83697e-16 599.873 1649)">å€¼</text></g></svg>