<svg xmlns="http://www.w3.org/2000/svg" width="1195" height="1129" overflow="hidden"><defs><clipPath id="a"><path d="M2896 1605h1195v1129H2896z"/></clipPath></defs><g clip-path="url(#a)" transform="translate(-2896 -1605)"><path fill="#fdefe8" d="M3458 2178h514v467h-514z"/><path fill="none" stroke="#000" stroke-miterlimit="8" stroke-width="9.167" d="M2896.5 2183.5h1189.38m-629.38 550.44V1630.5"/><path fill="#d74514" fill-rule="evenodd" d="M3782 1821.5c0-24.02 19.48-43.5 43.5-43.5s43.5 19.48 43.5 43.5-19.48 43.5-43.5 43.5-43.5-19.48-43.5-43.5"/><text fill="#d74514" font-family="Microsoft YaHei,Microsoft YaHei_MSFontService,sans-serif" font-size="73" font-weight="700" transform="translate(3774.38 1735)">0<tspan x="45.261" y="0">0</tspan></text><path fill-rule="evenodd" d="M4033.5 2242.19h14.26l-.4 1.74c-.9.19-1.55.41-1.94.65-.39.23-.74.59-1.05 1.07q-.465.705-.96 2.22c-.33 1.01-.75 2.66-1.25 4.94l-6.09 27.66c-.31 1.4-.52 2.51-.61 3.33-.1.82-.14 1.57-.14 2.23 0 1.07.26 1.82.8 2.26.53.44 1.43.71 2.69.81l-.39 1.74h-14.26l.39-1.74c.91-.15 1.58-.38 2.03-.7.46-.32.84-.76 1.14-1.34.31-.57.6-1.26.86-2.08s.65-2.41 1.18-4.76l6.06-27.45q.78-3.555.78-5.73 0-1.68-.84-2.34c-.56-.44-1.44-.69-2.65-.77Z"/><text x="4024.16" y="2284.76" fill-opacity="0" font-family="Arial,Arial_MSFontService,sans-serif" font-size="48.655">𝐼</text><path fill-rule="evenodd" d="M3528.77 1647.03c-2.57 0-4.96.91-7.18 2.74s-4.17 4.44-5.85 7.84q-2.505 5.1-3.9 11.19c-.93 4.07-1.39 7.66-1.39 10.77 0 7.34 2.67 11.01 8.02 11.01 3.3 0 6.33-1.54 9.09-4.61q4.14-4.62 6.66-12.78c1.69-5.44 2.54-10.53 2.54-15.26 0-3.54-.66-6.24-1.96-8.11q-1.965-2.79-6.03-2.79m.39-3.14c4.59 0 8.12 1.33 10.61 3.99q3.72 3.99 3.72 11.55c0 3.33-.52 7.05-1.57 11.16-1.04 4.11-2.48 7.74-4.31 10.89-1.83 3.14-3.95 5.68-6.36 7.61q-3.615 2.88-7.86 3.99.825 2.595 1.53 4.29c.48 1.13.93 2.05 1.37 2.75s.88 1.22 1.3 1.57q.645.51 1.29.69c.43.12.92.18 1.5.18.9 0 1.81-.26 2.74-.78.93-.53 1.96-1.43 3.1-2.71l1.85 1.99c-1.9 2.07-3.67 3.53-5.31 4.39-1.64.85-3.32 1.28-5.06 1.28q-2.955 0-4.83-1.32t-3.24-4.2c-.92-1.93-1.8-4.45-2.66-7.56-4.3-.24-7.58-1.66-9.83-4.28-2.26-2.61-3.39-6.3-3.39-11.05 0-3.56.6-7.59 1.8-12.08s2.93-8.46 5.2-11.89 4.98-6.04 8.13-7.81 6.58-2.65 10.28-2.65"/><text x="3503.75" y="1698.88" fill-opacity="0" font-family="Arial,Arial_MSFontService,sans-serif" font-size="62.841">𝑄</text><path fill="#d74514" fill-rule="evenodd" d="M3090 1821.5c0-24.02 19.7-43.5 44-43.5s44 19.48 44 43.5-19.7 43.5-44 43.5-44-19.48-44-43.5"/><text fill="#d74514" font-family="Microsoft YaHei,Microsoft YaHei_MSFontService,sans-serif" font-size="73" font-weight="700" transform="translate(3083.15 1735)">01</text><path fill="#d74514" fill-rule="evenodd" d="M3782 2514c0-24.3 19.48-44 43.5-44s43.5 19.7 43.5 44-19.48 44-43.5 44-43.5-19.7-43.5-44"/><text fill="#d74514" font-family="Microsoft YaHei,Microsoft YaHei_MSFontService,sans-serif" font-size="73" font-weight="700" transform="translate(3774.38 2427)">10</text><path fill="#d74514" fill-rule="evenodd" d="M3090 2514c0-24.3 19.7-44 44-44s44 19.7 44 44-19.7 44-44 44-44-19.7-44-44"/><text fill="#d74514" font-family="Microsoft YaHei,Microsoft YaHei_MSFontService,sans-serif" font-size="73" font-weight="700" transform="translate(3083.15 2427)">1<tspan x="45.26" y="0">1</tspan></text></g></svg>