<svg xmlns="http://www.w3.org/2000/svg" width="1195" height="1129" overflow="hidden"><defs><clipPath id="a"><path d="M1426 437h1195v1129H1426z"/></clipPath></defs><g clip-path="url(#a)" transform="translate(-1426 -437)"><path fill="none" stroke="#000" stroke-miterlimit="8" stroke-width="9.167" d="M1426.5 1015.5h1189.38m-629.38 550.44V462.5"/><path fill="#d74514" fill-rule="evenodd" d="M2325 1013.5c0-24.024 19.48-43.5 43.5-43.5s43.5 19.476 43.5 43.5c0 24.02-19.48 43.5-43.5 43.5s-43.5-19.48-43.5-43.5"/><text fill="#d74514" font-family="Microsoft YaHei,Microsoft YaHei_MSFontService,sans-serif" font-size="73" font-weight="700" transform="translate(2340.28 927)">1</text><path fill-rule="evenodd" d="M2563.5 1074h14.25l-.39 1.75c-.9.19-1.55.4-1.94.64s-.74.59-1.05 1.07-.63 1.22-.96 2.23c-.34 1.01-.75 2.65-1.25 4.93l-6.1 27.66c-.31 1.41-.51 2.52-.6 3.34-.1.82-.15 1.56-.15 2.23 0 1.06.27 1.82.81 2.26.53.44 1.43.71 2.69.8l-.39 1.75h-14.26l.39-1.75c.9-.14 1.58-.37 2.03-.69s.83-.77 1.14-1.34.6-1.27.86-2.09.65-2.4 1.17-4.75l6.06-27.45c.53-2.38.79-4.29.79-5.74 0-1.12-.28-1.89-.84-2.33s-1.44-.7-2.66-.77Z"/><text x="2554.16" y="1116.58" fill-opacity="0" font-family="Arial,Arial_MSFontService,sans-serif" font-size="48.655">𝐼</text><path fill-rule="evenodd" d="M2058.77 478.84c-2.57 0-4.96.915-7.18 2.745-2.23 1.829-4.17 4.443-5.85 7.841-1.67 3.399-2.98 7.129-3.9 11.193-.93 4.063-1.39 7.652-1.39 10.764 0 7.343 2.67 11.015 8.02 11.015q4.95 0 9.09-4.616 4.125-4.617 6.66-12.779c1.69-5.442 2.53-10.527 2.53-15.256 0-3.54-.65-6.243-1.96-8.109-1.3-1.865-3.31-2.798-6.02-2.798m.39-3.137c4.59 0 8.12 1.331 10.6 3.992 2.49 2.662 3.73 6.512 3.73 11.549 0 3.327-.52 7.046-1.57 11.157-1.04 4.111-2.48 7.741-4.31 10.889q-2.745 4.724-6.36 7.611-3.63 2.886-7.86 3.992.81 2.601 1.53 4.295c.47 1.129.93 2.044 1.37 2.745s.87 1.223 1.3 1.568q.645.516 1.29.695c.42.119.92.178 1.49.178.91 0 1.82-.261 2.75-.784.92-.523 1.96-1.426 3.1-2.709l1.85 1.996q-2.85 3.102-5.31 4.384c-1.64.856-3.33 1.284-5.06 1.284q-2.955 0-4.83-1.319t-3.24-4.206c-.92-1.925-1.8-4.444-2.66-7.557q-6.45-.357-9.84-4.277c-2.26-2.614-3.38-6.297-3.38-11.05q0-5.347 1.8-12.084c1.2-4.491 2.93-8.453 5.2-11.887q3.405-5.151 8.13-7.806c3.15-1.77 6.57-2.656 10.28-2.656"/><text x="2033.75" y="530.689" fill-opacity="0" font-family="Arial,Arial_MSFontService,sans-serif" font-size="62.841">𝑄</text><path fill="#d74514" fill-rule="evenodd" d="M1634 1013.5c0-24.024 19.48-43.5 43.5-43.5s43.5 19.476 43.5 43.5c0 24.02-19.48 43.5-43.5 43.5s-43.5-19.48-43.5-43.5"/><text fill="#d74514" font-family="Microsoft YaHei,Microsoft YaHei_MSFontService,sans-serif" font-size="73" font-weight="700" transform="translate(1649.05 927)">0</text></g></svg>