<svg xmlns="http://www.w3.org/2000/svg" width="3566" height="1117" overflow="hidden"><defs><clipPath id="a"><path d="M224 191h3566v1117H224z"/></clipPath></defs><g clip-path="url(#a)" transform="translate(-224 -191)"><path fill="#d74514" fill-rule="evenodd" d="M743 1238V536l262 140.4v421.2Z"/><path fill="#fff" fill-rule="evenodd" d="M877.131 857.854q4.053 0 7.619.729l-1.824 8.106h-5.228q-.162-2.513-.81-3.566-.649-1.054-2.027-1.054-1.62 0-2.634 1.135-1.013 1.134-1.702 3.08t-1.378 5.106l-1.013 4.458h8.673l-1.095 5.066h-8.713l-7.335 33.881q-2.148 9.847-6.931 14.61-4.782 4.762-11.955 4.762-1.743 0-2.797-.203l.973-4.539q.81.122 1.459.122 2.31 0 3.83-2.553t2.695-7.66l8.673-38.42h-6.12l.73-3.283q2.796-.04 3.951-.405a3.8 3.8 0 0 0 1.905-1.337q.75-.973 1.439-3.607 1.012-3.85 2.553-6.383t4.012-4.418 5.775-2.756 7.275-.871"/><text x="837.981" y="924.628" fill-opacity="0" font-family="Arial,Arial_MSFontService,sans-serif" font-size="76.313">π’‡</text><path fill="#d74514" fill-rule="evenodd" d="M1524 1238V536l262 140.4v421.2Z"/><path fill="#fff" fill-rule="evenodd" d="M1658.13 857.854q4.05 0 7.62.729l-1.82 8.106h-5.23q-.165-2.513-.81-3.566c-.43-.703-1.11-1.054-2.03-1.054-1.08 0-1.96.378-2.63 1.135q-1.02 1.134-1.71 3.08c-.45 1.297-.91 2.999-1.37 5.106l-1.02 4.458h8.68l-1.1 5.066H1648l-7.34 33.881q-2.145 9.847-6.93 14.61c-3.18 3.175-7.17 4.762-11.95 4.762-1.16 0-2.1-.068-2.8-.203l.97-4.539c.54.081 1.03.122 1.46.122 1.54 0 2.82-.851 3.83-2.553 1.02-1.702 1.91-4.256 2.7-7.66l8.67-38.42h-6.12l.73-3.283c1.86-.027 3.18-.162 3.95-.405a3.8 3.8 0 0 0 1.91-1.337q.75-.973 1.44-3.607 1.005-3.85 2.55-6.383a16 16 0 0 1 4.01-4.418c1.65-1.256 3.57-2.175 5.78-2.756 2.2-.581 4.62-.871 7.27-.871"/><text x="1618.98" y="924.628" fill-opacity="0" font-family="Arial,Arial_MSFontService,sans-serif" font-size="76.313">π’‡</text><path d="M1005.5 882.917h476.99v9.167l-476.99-.001Zm472.4-18.333 45.84 22.916-45.84 22.917Z"/><path fill="none" stroke="#000" stroke-miterlimit="8" stroke-width="9.167" d="M1193.5 954.368 1310.375 820.5"/><path fill-rule="evenodd" d="M1244.86 749.415c1.7 0 3.04.56 4.03 1.681.99 1.122 1.48 2.587 1.48 4.398 0 1.432-.33 3.026-.97 4.782l.48.162q3.975-5.592 7.56-8.288c2.39-1.796 4.86-2.695 7.4-2.695q3.765 0 5.79 2.168c1.35 1.446 2.03 3.452 2.03 6.019 0 1.702-.39 4.12-1.18 7.254l-2.63 10.618c-.73 2.945-1.1 5.026-1.1 6.241 0 1.081.18 1.865.53 2.351s.91.73 1.66.73c.81 0 1.68-.331 2.6-.993s2.21-1.925 3.89-3.79l2.31 2.27c-2.33 2.485-4.35 4.302-6.08 5.451-1.73 1.148-3.7 1.722-5.92 1.722-1.75 0-3.16-.628-4.21-1.884-1.06-1.257-1.58-2.858-1.58-4.803 0-1.756.44-4.336 1.33-7.741l1.79-7.011c.65-2.54 1.07-4.417 1.27-5.633.21-1.216.31-2.202.31-2.959q0-2.796-.93-4.032c-.63-.824-1.64-1.236-3.04-1.236-1.14 0-2.36.452-3.67 1.358-1.31.905-2.7 2.269-4.18 4.093q-2.205 2.735-3.54 5.309-1.335 2.573-2.19 6.342l-3.85 17.549h-7.01l5.91-25.695q.9-3.89.9-5.998c0-1.08-.18-1.864-.53-2.35-.35-.487-.91-.73-1.66-.73-.84 0-1.72.345-2.66 1.034-.93.689-2.21 1.938-3.83 3.748l-2.31-2.269c2.49-2.594 4.56-4.438 6.2-5.532 1.65-1.094 3.52-1.641 5.6-1.641"/><text x="1233.06" y="784.486" fill-opacity="0" font-family="Arial,Arial_MSFontService,sans-serif" font-size="40.081">π‘›</text><path fill-rule="evenodd" d="M1254.45 992.855h16.78l-.45 1.986c-1.19.135-2.11.486-2.77 1.054-.67.567-1.13 1.357-1.4 2.371-.27 1.013-.41 2.374-.41 4.074 0 .4.04 1.62.12 3.65l1.14 29.66v3.24h.4l17.55-31.65q1.545-2.79 2.31-4.8c.51-1.34.77-2.52.77-3.546q0-3.405-4.05-4.053l.44-1.986h16.58l-.45 1.986c-.72.108-1.42.385-2.08.831s-1.41 1.189-2.23 2.229c-.83 1.04-2.1 3.049-3.83 6.019l-25.94 44.9h-5.39l-2.71-45.18c-.11-1.76-.31-3.27-.59-4.523-.29-1.257-.73-2.236-1.34-2.939s-1.57-1.148-2.9-1.337Zm-18.81-.648c2.46 0 4.74.148 6.83.445q3.135.447 6.99 1.622l-2.43 10.986h-3.89c-.22-3.33-.94-5.725-2.17-7.197q-1.845-2.21-5.94-2.209c-3.72 0-7.19 1.864-10.39 5.596-3.2 3.73-5.74 8.65-7.6 14.77s-2.8 11.8-2.8 17.04c0 4.11.73 7.13 2.19 9.08 1.46 1.94 3.7 2.92 6.73 2.92 2.03 0 3.8-.31 5.31-.91 1.51-.61 2.93-1.64 4.25-3.08q1.995-2.175 3.93-6.06h3.9l-2.48 11.51c-5.05 1.4-10.34 2.1-15.88 2.1-5.08 0-8.95-1.46-11.59-4.37-2.65-2.92-3.98-7.19-3.98-12.81q0-5.955 2.13-13.74c1.42-5.19 3.43-9.74 6.02-13.66 2.59-3.91 5.66-6.9 9.2-8.953q5.31-3.08 11.67-3.08"/><text x="1206.62" y="1041.75" fill-opacity="0" font-family="Arial,Arial_MSFontService,sans-serif" font-size="56.617">π¶π‘‰</text><path fill-rule="evenodd" d="M1309.23 1026.66h1.82c-.04 1.09-.07 2.07-.09 2.93s-.03 1.7-.04 2.52c-.01.81-.02 1.61-.02 2.41v22.64q0 .915.06 1.59c.04.45.11.82.2 1.13s.2.57.35.79.33.41.52.57c.24.23.56.42.96.55.39.13.9.24 1.52.32q.915.135 2.22.21c.86.05 1.9.09 3.11.11v2.59h-23.62v-2.59c1.17-.04 2.16-.09 2.98-.14.81-.05 1.51-.12 2.08-.21a9 9 0 0 0 1.39-.29c.34-.11.65-.25.91-.41.27-.17.51-.37.71-.58.2-.2.36-.47.48-.79.12-.31.21-.7.28-1.16.07-.45.1-1.02.1-1.69v-21.36c0-.77-.14-1.32-.44-1.64s-.73-.48-1.28-.48c-.62 0-1.53.32-2.74.96-1.21.63-2.78 1.58-4.71 2.83-.26-.46-.5-.92-.71-1.37-.22-.46-.45-.93-.69-1.4 2.46-1.35 4.9-2.7 7.31-4.04 2.42-1.34 4.86-2.67 7.34-4"/><text x="1294.58" y="1060.22" fill-opacity="0" font-family="Arial,Arial_MSFontService,sans-serif" font-size="38.363">1</text><path fill-rule="evenodd" d="M1150.87 495.169c-1.29 0-2.57.412-3.83 1.236-1.25.824-2.65 2.188-4.19 4.093s-2.8 3.857-3.77 5.856c-.97 2-1.8 4.553-2.47 7.66l-.37 1.702q-.6 2.838-.6 5.512c0 2.134.46 3.674 1.39 4.62.94.946 2.48 1.419 4.64 1.419 1.11 0 2.17-.183 3.17-.548q1.5-.546 3.06-1.803c1.04-.838 2.02-1.939 2.95-3.303.94-1.364 1.79-3.046 2.58-5.046.78-1.999 1.39-4.14 1.82-6.423s.65-4.465.65-6.545q0-4.215-1.2-6.323c-.79-1.405-2.07-2.107-3.83-2.107m-7.09-23.303h2.35l-7.13 28.369.53.162c2.62-3.512 5.08-6.052 7.37-7.619 2.3-1.567 4.6-2.351 6.89-2.351q4.425 0 6.87 3.364c1.64 2.242 2.45 5.404 2.45 9.483 0 4.458-.89 8.842-2.69 13.151-1.8 4.31-4.29 7.728-7.48 10.254s-6.75 3.789-10.7 3.789c-3.59 0-6.78-.878-9.56-2.634l-3.73 2.634-2.59-.648 10.49-46.323q.93-4.134.93-5.998c0-1.135-.34-1.932-1.03-2.391s-1.92-.716-3.71-.77l.49-2.108Z"/><text x="1126.36" y="523.143" fill-opacity="0" font-family="Arial,Arial_MSFontService,sans-serif" font-size="58.602">π‘</text><path fill-rule="evenodd" d="M1219.24 232.384h15.69l-.45 1.986c-1.13.108-2 .439-2.59.993-.6.554-.89 1.412-.89 2.574 0 1.648.37 3.809 1.13 6.484l4.3 15.279 9.97-13.334q3.03-4.052 3.99-6.018c.63-1.31.95-2.465.95-3.465 0-.757-.26-1.337-.77-1.743-.51-.405-1.26-.662-2.23-.77l.45-1.986h15.19l-.44 1.986q-.975.202-1.68.588-.72.386-1.62 1.236c-.61.567-1.44 1.479-2.48 2.736q-1.56 1.884-3.99 5.045l-15.76 20.467-2.52 11.469c-.24 1.081-.41 1.925-.5 2.533-.1.608-.18 1.256-.25 1.945-.06.689-.1 1.304-.1 1.844 0 .838.14 1.493.41 1.966s.67.817 1.21 1.033 1.48.378 2.8.486l-.45 1.986h-17.06l.45-1.986c1.08-.162 1.88-.378 2.39-.648s.97-.689 1.36-1.256q.585-.852 1.17-2.675c.39-1.216.86-3.053 1.4-5.512l2.39-11.185-5.87-20.467c-.9-3.134-1.6-5.255-2.11-6.363-.52-1.107-1.06-1.891-1.64-2.35s-1.35-.757-2.29-.892Z"/><text x="1218.8" y="280.789" fill-opacity="0" font-family="Arial,Arial_MSFontService,sans-serif" font-size="55.32">π‘</text><path fill-rule="evenodd" d="M1269.09 266.185h1.81q-.06 1.638-.09 2.934c-.02.863-.03 1.702-.04 2.516s-.02 1.619-.02 2.413v22.637q0 .923.06 1.593c.04.447.11.824.2 1.132s.2.571.35.789.33.407.52.566q.36.358.96.551c.4.129.9.239 1.52.328q.915.134 2.22.208c.86.05 1.9.085 3.11.105v2.591h-23.62v-2.591a119 119 0 0 0 2.98-.134c.81-.05 1.51-.119 2.08-.209a10 10 0 0 0 1.39-.298c.34-.109.65-.243.91-.402.27-.178.51-.372.71-.581q.3-.312.48-.789c.12-.318.21-.705.28-1.161s.1-1.023.1-1.698v-21.356c0-.775-.14-1.321-.44-1.638-.3-.318-.73-.477-1.28-.477-.62 0-1.53.318-2.74.953q-1.815.954-4.71 2.83c-.26-.457-.5-.914-.71-1.37q-.33-.686-.69-1.4c2.46-1.351 4.9-2.696 7.31-4.036 2.42-1.34 4.86-2.676 7.35-4.006"/><text x="1254.43" y="299.753" fill-opacity="0" font-family="Arial,Arial_MSFontService,sans-serif" font-size="38.363">1</text><path fill="#d74514" d="M1525 564h51v116h-51zm0 524h51v116h-51zM743 564h51v116h-51zm0 524h51v116h-51z"/><path d="M1246.917 324.5v302.042h236.721v-9.167H1251.5l4.583 4.583V324.5Zm232.138 320.375 45.833-22.917-45.833-22.916Z"/><path fill="none" stroke="#000" stroke-miterlimit="8" stroke-width="9.167" d="M1193.5 537.368 1310.375 403.5"/><path fill-rule="evenodd" d="M435.624 233.351h15.684l-.446 1.986q-1.702.162-2.593.993-.892.831-.892 2.574 0 2.472 1.135 6.484l4.296 15.279 9.969-13.334q3.04-4.053 3.992-6.018.953-1.965.953-3.465 0-1.135-.77-1.743-.771-.608-2.229-.77l.445-1.986h15.198l-.446 1.986q-.973.202-1.681.588-.71.385-1.622 1.236-.911.85-2.472 2.735a190 190 0 0 0-3.992 5.046l-15.765 20.466-2.512 11.47a41 41 0 0 0-.507 2.533 34 34 0 0 0-.243 1.945 19 19 0 0 0-.102 1.844q0 1.257.406 1.966.405.709 1.216 1.033t2.796.486l-.446 1.986h-17.062l.446-1.986q1.621-.243 2.391-.648t1.358-1.256 1.175-2.675 1.398-5.512l2.391-11.186-5.876-20.466q-1.337-4.701-2.108-6.363-.77-1.661-1.641-2.35t-2.29-.892Z"/><text x="435.178" y="281.756" fill-opacity="0" font-family="Arial,Arial_MSFontService,sans-serif" font-size="55.32">π‘</text><path fill-rule="evenodd" d="M484.926 269.832q-2.085 0-3.485 1.087-1.4 1.088-2.219 3.187-.819 2.1-1.161 5.123t-.343 6.866q0 4.438.432 7.67.432 3.231 1.34 5.316t2.279 3.068 3.276.983q1.787 0 3.128-.923 1.34-.924 2.219-2.875.878-1.95 1.325-4.944t.447-7.074q0-4.587-.492-7.893-.49-3.306-1.385-5.436-.893-2.129-2.248-3.142t-3.113-1.013m.119-2.889q3.545 0 6.061 1.326 2.517 1.325 4.111 3.782t2.338 6.002.745 8.012q0 9.918-3.515 14.997-3.515 5.078-10.187 5.078-6.612 0-9.829-4.795-3.216-4.795-3.217-14.535 0-5.094.998-8.817t2.8-6.18 4.274-3.664 5.421-1.206"/><text x="471.552" y="301.241" fill-opacity="0" font-family="Arial,Arial_MSFontService,sans-serif" font-size="39.197">0</text><path d="M464.917 325.5v302.042h236.721v-9.167H469.5l4.583 4.583V325.5Zm232.138 320.375 45.833-22.917-45.833-22.916Z"/><path fill="none" stroke="#000" stroke-miterlimit="8" stroke-width="9.167" d="M410.5 537.368 527.375 403.5"/><path fill-rule="evenodd" d="M398.054 495.169q-1.946 0-3.83 1.236t-4.194 4.093-3.77 5.856q-1.458 3-2.472 7.66l-.364 1.702a26.2 26.2 0 0 0-.608 5.512q0 3.201 1.398 4.62t4.64 1.419a9.1 9.1 0 0 0 3.161-.548q1.5-.546 3.06-1.803t2.959-3.303 2.573-5.046a36 36 0 0 0 1.824-6.423q.648-3.425.648-6.545 0-4.215-1.195-6.323-1.196-2.107-3.83-2.107m-7.092-23.303h2.35l-7.133 28.369.527.162q3.932-5.268 7.376-7.619t6.89-2.351q4.418 0 6.869 3.364 2.452 3.364 2.452 9.483 0 6.687-2.695 13.151-2.695 6.465-7.477 10.254-4.783 3.789-10.699 3.789-5.39 0-9.565-2.634l-3.728 2.634-2.594-.648 10.496-46.323q.933-4.134.933-5.998 0-1.702-1.034-2.391t-3.708-.77l.486-2.108Z"/><text x="373.535" y="523.143" fill-opacity="0" font-family="Arial,Arial_MSFontService,sans-serif" font-size="58.602">π‘</text><path d="M224.5 1104.92h476.985v9.16H224.5Zm472.402-18.34 45.833 22.92-45.833 22.92Z"/><path fill="none" stroke="#000" stroke-miterlimit="8" stroke-width="9.167" d="m412.5 1176.37 116.875-133.868"/><path fill-rule="evenodd" d="M463.856 972.165q2.553 0 4.033 1.681 1.479 1.682 1.479 4.398 0 2.148-.973 4.782l.487.162q3.971-5.592 7.558-8.288 3.586-2.695 7.396-2.695 3.77 0 5.796 2.168t2.026 6.019q0 2.553-1.175 7.254l-2.635 10.618q-1.094 4.417-1.094 6.246c0 1.08.176 1.86.527 2.35.351.48.905.73 1.662.73.81 0 1.675-.34 2.593-1 .919-.66 2.216-1.92 3.891-3.79l2.31 2.27c-2.324 2.49-4.35 4.31-6.079 5.45-1.729 1.15-3.702 1.73-5.917 1.73q-2.634 0-4.215-1.89c-1.054-1.25-1.581-2.86-1.581-4.8q0-2.64 1.338-7.742l1.783-7.011q.973-3.81 1.277-5.633.303-1.824.304-2.959 0-2.796-.932-4.032-.933-1.236-3.04-1.236-1.702 0-3.668 1.358-1.966 1.357-4.174 4.093-2.21 2.735-3.546 5.309-1.337 2.573-2.189 6.342l-3.85 17.551h-7.011l5.917-25.697q.891-3.89.892-5.998 0-1.62-.527-2.35-.526-.73-1.662-.73-1.256 0-2.654 1.034-1.399 1.033-3.83 3.748l-2.31-2.269q3.728-3.891 6.2-5.532t5.593-1.641"/><text x="452.063" y="1007.24" fill-opacity="0" font-family="Arial,Arial_MSFontService,sans-serif" font-size="40.081">π‘›</text><path fill-rule="evenodd" d="M326.352 1215.61h16.778l-.445 1.98q-1.784.21-2.776 1.05c-.662.57-1.128 1.36-1.399 2.38-.27 1.01-.405 2.37-.405 4.07 0 .4.041 1.62.122 3.65l1.134 29.66v3.24h.406l17.548-31.65q1.54-2.79 2.31-4.8c.513-1.34.77-2.52.77-3.55q0-3.405-4.053-4.05l.446-1.98h16.576l-.446 1.98c-.729.11-1.425.39-2.087.83-.662.45-1.405 1.19-2.229 2.23s-2.101 3.05-3.83 6.02l-25.937 44.9h-5.391l-2.715-45.18c-.108-1.76-.304-3.27-.588-4.52q-.425-1.89-1.337-2.94c-.608-.7-1.574-1.15-2.898-1.34Zm-23.368 0h16.211l-.445 1.98c-1.027.22-1.763.46-2.209.73s-.844.68-1.196 1.22c-.351.54-.716 1.38-1.094 2.53q-.567 1.725-1.418 5.61l-6.931 31.45c-.351 1.6-.58 2.86-.689 3.79s-.162 1.78-.162 2.53q0 1.83.912 2.58c.608.5 1.628.8 3.06.91l-.446 1.98h-16.211l.446-1.98c1.027-.16 1.797-.43 2.31-.79.513-.37.946-.87 1.297-1.52q.526-.975.973-2.37c.297-.93.743-2.74 1.337-5.41l6.89-31.21c.594-2.7.891-4.88.891-6.52 0-1.27-.317-2.16-.952-2.66q-.952-.75-3.019-.87Z"/><text x="292.366" y="1264.58" fill-opacity="0" font-family="Arial,Arial_MSFontService,sans-serif" font-size="55.968">πΌπ‘‰</text><path fill-rule="evenodd" d="M404.697 1252.93h49.93v5.39h-49.93Zm0-16.82h49.93v5.39h-49.93Z"/><text x="404.697" y="1255.54" fill-opacity="0" font-family="Arial,Arial_MSFontService,sans-serif" font-size="22.209">=</text><path fill-rule="evenodd" d="M536.746 1215.61h16.778l-.446 1.98q-1.783.21-2.776 1.05c-.662.57-1.128 1.36-1.398 2.38-.27 1.01-.405 2.37-.405 4.07 0 .4.04 1.62.121 3.65l1.135 29.66v3.24h.405l17.549-31.65q1.539-2.79 2.31-4.8c.513-1.34.77-2.52.77-3.55q0-3.405-4.053-4.05l.446-1.98h16.576l-.446 1.98c-.73.11-1.425.39-2.087.83-.662.45-1.405 1.19-2.229 2.23s-2.101 3.05-3.83 6.02l-25.938 44.9h-5.39l-2.715-45.18c-.108-1.76-.304-3.27-.588-4.52q-.426-1.89-1.337-2.94c-.608-.7-1.574-1.15-2.898-1.34Zm-18.807-.65c2.458 0 4.735.15 6.829.44q3.14.45 6.991 1.62l-2.432 10.99h-3.891c-.216-3.33-.939-5.72-2.168-7.2-1.229-1.47-3.208-2.21-5.937-2.21-3.729 0-7.194 1.87-10.395 5.6-3.202 3.73-5.735 8.65-7.599 14.77q-2.797 9.18-2.797 17.04c0 4.11.73 7.13 2.189 9.08 1.459 1.94 3.701 2.92 6.727 2.92 2.027 0 3.796-.31 5.309-.91 1.513-.61 2.932-1.64 4.256-3.08q1.986-2.175 3.931-6.06h3.891l-2.473 11.51q-7.578 2.1-15.886 2.1c-5.08 0-8.943-1.46-11.591-4.37q-3.972-4.38-3.972-12.81 0-5.955 2.128-13.74c1.418-5.19 3.424-9.74 6.018-13.66 2.594-3.91 5.66-6.9 9.2-8.95 3.539-2.06 7.43-3.08 11.672-3.08"/><text x="488.921" y="1264.5" fill-opacity="0" font-family="Arial,Arial_MSFontService,sans-serif" font-size="56.617">π¶π‘‰</text><path fill-rule="evenodd" d="M590.992 1252.09q-2.085 0-3.485 1.08c-.933.73-1.673 1.79-2.219 3.19s-.933 3.11-1.162 5.12q-.342 3.03-.342 6.87c0 2.96.144 5.51.432 7.67.288 2.15.734 3.93 1.34 5.32q.909 2.085 2.279 3.06 1.37.99 3.276.99 1.787 0 3.127-.93c.894-.61 1.634-1.57 2.219-2.87q.879-1.95 1.326-4.95c.298-1.99.447-4.35.447-7.07q0-4.59-.492-7.89c-.328-2.21-.789-4.02-1.385-5.44s-1.345-2.47-2.249-3.14c-.903-.68-1.941-1.01-3.112-1.01m.119-2.89q3.544 0 6.061 1.32c1.678.89 3.048 2.15 4.111 3.79q1.593 2.445 2.338 6 .744 3.54.744 8.01 0 9.915-3.514 15-3.515 5.07-10.187 5.07c-4.408 0-7.684-1.59-9.829-4.79s-3.217-8.04-3.217-14.54c0-3.39.333-6.33.998-8.81s1.598-4.55 2.8-6.18c1.201-1.64 2.626-2.86 4.274-3.67q2.472-1.2 5.421-1.2"/><text x="577.618" y="1283.49" fill-opacity="0" font-family="Arial,Arial_MSFontService,sans-serif" font-size="39.197">0</text><path fill="#d74514" fill-rule="evenodd" d="M2912 1239V538l263 140.2v420.6Z"/><path fill="#fff" fill-rule="evenodd" d="M3046.88 859.811q4.05 0 7.62.73l-1.82 8.105h-5.23q-.165-2.513-.81-3.566c-.43-.703-1.11-1.054-2.03-1.054-1.08 0-1.96.378-2.63 1.135q-1.02 1.134-1.71 3.08c-.45 1.297-.91 2.999-1.37 5.106l-1.02 4.458h8.68l-1.1 5.066h-8.71l-7.34 33.881q-2.145 9.849-6.93 14.61c-3.18 3.175-7.17 4.762-11.95 4.762-1.16 0-2.1-.067-2.8-.202l.97-4.54a10 10 0 0 0 1.46.122c1.54 0 2.82-.851 3.83-2.553 1.02-1.702 1.91-4.256 2.7-7.66l8.67-38.42h-6.12l.73-3.282c1.86-.028 3.18-.163 3.95-.406a3.8 3.8 0 0 0 1.91-1.337q.75-.973 1.44-3.607 1.005-3.85 2.55-6.383a16 16 0 0 1 4.01-4.418c1.65-1.256 3.57-2.175 5.78-2.756 2.2-.58 4.62-.871 7.27-.871"/><text x="3007.73" y="926.585" fill-opacity="0" font-family="Arial,Arial_MSFontService,sans-serif" font-size="76.313">π’‡</text><path d="M2394.5 884.917h476.99v9.167l-476.99-.001Zm472.4-18.333 45.84 22.916-45.84 22.917Z"/><path fill="none" stroke="#000" stroke-miterlimit="8" stroke-width="9.167" d="M2582.5 956.368 2699.375 822.5"/><path fill-rule="evenodd" d="M2633.61 751.372c1.7 0 3.04.56 4.03 1.682s1.48 2.587 1.48 4.397c0 1.432-.33 3.026-.97 4.782l.48.162q3.975-5.592 7.56-8.288c2.39-1.796 4.86-2.695 7.4-2.695q3.765 0 5.79 2.169c1.35 1.445 2.03 3.451 2.03 6.018 0 1.702-.39 4.12-1.18 7.254l-2.63 10.618c-.73 2.945-1.1 5.026-1.1 6.242 0 1.08.18 1.864.53 2.35s.91.73 1.66.73c.81 0 1.68-.331 2.6-.993s2.21-1.925 3.89-3.79l2.31 2.27c-2.33 2.486-4.35 4.303-6.08 5.451s-3.7 1.722-5.92 1.722c-1.75 0-3.16-.628-4.21-1.884-1.06-1.257-1.58-2.857-1.58-4.803 0-1.756.44-4.336 1.33-7.74l1.79-7.012c.65-2.539 1.07-4.417 1.27-5.633.21-1.216.31-2.202.31-2.958q0-2.797-.93-4.033c-.63-.824-1.64-1.236-3.04-1.236-1.14 0-2.36.453-3.67 1.358s-2.7 2.269-4.18 4.093q-2.205 2.736-3.54 5.309t-2.19 6.343l-3.85 17.548h-7.01l5.91-25.694q.9-3.891.9-5.999c0-1.08-.18-1.864-.53-2.35s-.91-.73-1.66-.73c-.84 0-1.72.345-2.66 1.034-.93.689-2.21 1.938-3.83 3.749l-2.31-2.27c2.49-2.594 4.56-4.438 6.2-5.532 1.65-1.094 3.52-1.641 5.6-1.641"/><text x="2621.81" y="786.443" fill-opacity="0" font-family="Arial,Arial_MSFontService,sans-serif" font-size="40.081">π‘›</text><path fill-rule="evenodd" d="M2603.35 994.812h16.77l-.44 1.986c-1.19.135-2.12.486-2.78 1.054-.66.567-1.12 1.357-1.4 2.368-.27 1.02-.4 2.37-.4 4.08 0 .4.04 1.62.12 3.64l1.14 29.67v3.24h.4l17.55-31.65c1.03-1.86 1.8-3.47 2.31-4.8.51-1.34.77-2.52.77-3.55q0-3.404-4.05-4.052l.44-1.986h16.58l-.45 1.986c-.73.108-1.42.385-2.08.831-.67.446-1.41 1.189-2.23 2.229-.83 1.042-2.1 3.042-3.83 6.022l-25.94 44.9h-5.39l-2.72-45.19c-.1-1.75-.3-3.26-.58-4.52-.29-1.253-.73-2.232-1.34-2.935s-1.58-1.148-2.9-1.337Zm-18.81-.648c2.46 0 4.73.148 6.83.445q3.135.446 6.99 1.622l-2.43 10.979h-3.89c-.22-3.32-.94-5.72-2.17-7.19q-1.845-2.21-5.94-2.209c-3.73 0-7.19 1.864-10.39 5.589-3.21 3.73-5.74 8.66-7.6 14.78-1.87 6.12-2.8 11.8-2.8 17.04 0 4.1.73 7.13 2.19 9.08 1.46 1.94 3.7 2.91 6.73 2.91 2.02 0 3.79-.3 5.31-.91 1.51-.61 2.93-1.63 4.25-3.08q1.995-2.16 3.93-6.06h3.89l-2.47 11.51c-5.05 1.41-10.35 2.11-15.89 2.11-5.07 0-8.94-1.46-11.59-4.38-2.64-2.91-3.97-7.18-3.97-12.8q0-5.955 2.13-13.74c1.42-5.19 3.42-9.74 6.02-13.66 2.59-3.92 5.66-6.903 9.2-8.956q5.31-3.08 11.67-3.08"/><text x="2555.52" y="1043.7" fill-opacity="0" font-family="Arial,Arial_MSFontService,sans-serif" font-size="56.617">π¶π‘‰</text><path fill-rule="evenodd" d="M2649.25 1028.34h12.57l-.33 1.79c-.69.18-1.24.33-1.65.46s-.75.41-1.04.82q-.435.63-.78 1.86c-.22.83-.52 2.03-.87 3.62l-6.05 26.93h7.77c1.1 0 2.04-.1 2.83-.28.8-.19 1.53-.59 2.21-1.2.67-.6 1.32-1.46 1.95-2.57q.93-1.665 2.07-4.44h3.27l-3.06 11.65h-26.24l.32-1.82c.62-.1 1.13-.22 1.52-.37.4-.15.75-.44 1.06-.87.31-.42.59-1.06.83-1.92.25-.85.54-2.04.88-3.57l4.89-21.72c.2-.87.34-1.64.44-2.32.1-.67.15-1.25.15-1.73 0-.87-.23-1.49-.68-1.86-.46-.37-1.29-.56-2.5-.58Z"/><text x="2641.9" y="1062.15" fill-opacity="0" font-family="Arial,Arial_MSFontService,sans-serif" font-size="38.631">πΏ</text><path fill-rule="evenodd" d="M2679.22 1047.26h34.32v4.56h-34.32Z"/><text x="2679.22" y="1051.25" fill-opacity="0" font-family="Arial,Arial_MSFontService,sans-serif" font-size="4.557">β’</text><path fill-rule="evenodd" d="M2737.84 1028.61h1.81q-.06 1.635-.09 2.94c-.02.86-.03 1.7-.04 2.51-.01.82-.02 1.62-.02 2.42v22.63c0 .62.02 1.15.06 1.6.04.44.11.82.2 1.13s.21.57.36.79c.14.22.32.4.52.56.24.24.55.42.95.55s.9.24 1.52.33q.915.135 2.22.21c.86.05 1.9.08 3.11.1v2.6h-23.62v-2.6c1.17-.04 2.17-.08 2.98-.13s1.51-.12 2.08-.21a10 10 0 0 0 1.39-.3c.35-.11.65-.24.91-.4.28-.18.51-.37.71-.58s.36-.47.48-.79.21-.7.28-1.16.11-1.02.11-1.7v-21.35c0-.78-.15-1.32-.45-1.64s-.73-.48-1.28-.48c-.62 0-1.53.32-2.74.95-1.21.64-2.78 1.58-4.71 2.83-.26-.45-.49-.91-.71-1.37-.22-.45-.45-.92-.69-1.4 2.46-1.35 4.9-2.69 7.31-4.03 2.42-1.34 4.86-2.68 7.35-4.01"/><text x="2723.18" y="1062.18" fill-opacity="0" font-family="Arial,Arial_MSFontService,sans-serif" font-size="38.363">1</text><path fill-rule="evenodd" d="M2539.62 497.126c-1.29 0-2.57.412-3.83 1.236-1.25.824-2.65 2.189-4.19 4.093-1.54 1.905-2.8 3.857-3.77 5.857s-1.8 4.552-2.47 7.659l-.37 1.702q-.6 2.838-.6 5.512c0 2.135.46 3.675 1.39 4.62.94.946 2.48 1.419 4.64 1.419a9.2 9.2 0 0 0 3.17-.547q1.5-.547 3.06-1.804c1.04-.837 2.02-1.938 2.95-3.303.94-1.364 1.79-3.046 2.58-5.046.78-1.999 1.39-4.14 1.82-6.423s.65-4.465.65-6.545q0-4.215-1.2-6.323c-.79-1.404-2.07-2.107-3.83-2.107m-7.09-23.303h2.35l-7.13 28.369.53.162c2.62-3.512 5.08-6.052 7.37-7.619 2.3-1.567 4.6-2.351 6.89-2.351q4.425 0 6.87 3.364c1.64 2.243 2.45 5.404 2.45 9.484 0 4.458-.89 8.841-2.69 13.151-1.8 4.309-4.29 7.727-7.48 10.253s-6.75 3.789-10.7 3.789c-3.59 0-6.78-.878-9.56-2.634l-3.73 2.634-2.59-.648 10.49-46.323q.93-4.134.93-5.998c0-1.135-.34-1.932-1.03-2.391s-1.92-.716-3.71-.77l.49-2.107Z"/><text x="2515.11" y="525.1" fill-opacity="0" font-family="Arial,Arial_MSFontService,sans-serif" font-size="58.602">π‘</text><path fill-rule="evenodd" d="M2568.14 234.342h15.68l-.44 1.985c-1.14.109-2 .439-2.59.993q-.9.831-.9 2.574 0 2.472 1.14 6.484l4.29 15.279 9.97-13.333c2.03-2.702 3.36-4.708 4-6.019.63-1.31.95-2.465.95-3.465 0-.756-.26-1.337-.77-1.743-.52-.405-1.26-.661-2.23-.77l.45-1.985h15.19l-.44 1.985q-.975.203-1.68.588c-.48.257-1.02.669-1.63 1.236-.6.568-1.43 1.479-2.47 2.736q-1.56 1.884-3.99 5.045l-15.77 20.467-2.51 11.469c-.24 1.081-.41 1.925-.5 2.533-.1.608-.18 1.256-.25 1.945s-.1 1.304-.1 1.844c0 .838.14 1.493.41 1.966s.67.817 1.21 1.033 1.47.379 2.8.487l-.45 1.985h-17.06l.45-1.985c1.08-.163 1.87-.379 2.39-.649.51-.27.96-.689 1.36-1.256q.585-.851 1.17-2.675c.39-1.216.86-3.053 1.4-5.512l2.39-11.185-5.88-20.467q-1.335-4.701-2.1-6.362c-.52-1.108-1.06-1.892-1.65-2.351-.58-.459-1.34-.756-2.29-.892Z"/><text x="2567.69" y="282.746" fill-opacity="0" font-family="Arial,Arial_MSFontService,sans-serif" font-size="55.32">π‘</text><path fill-rule="evenodd" d="M2609.1 267.874h12.57l-.33 1.787q-1.035.269-1.65.462c-.41.129-.75.402-1.04.819q-.435.625-.78 1.861c-.22.824-.52 2.031-.87 3.619l-6.05 26.926h7.77c1.1 0 2.04-.094 2.83-.283.8-.189 1.53-.586 2.21-1.191q1.005-.909 1.95-2.577.93-1.668 2.07-4.438h3.27l-3.06 11.646h-26.24l.32-1.817c.62-.099 1.13-.223 1.52-.372.4-.149.75-.437 1.06-.864s.59-1.067.83-1.921c.25-.854.54-2.045.88-3.574l4.89-21.714c.2-.873.34-1.648.44-2.323q.15-1.013.15-1.727c0-.874-.23-1.495-.68-1.862-.46-.367-1.29-.561-2.5-.581Z"/><text x="2601.75" y="301.676" fill-opacity="0" font-family="Arial,Arial_MSFontService,sans-serif" font-size="38.631">πΏ</text><path fill-rule="evenodd" d="M2639.07 286.787h34.32v4.558h-34.32Z"/><text x="2639.07" y="290.775" fill-opacity="0" font-family="Arial,Arial_MSFontService,sans-serif" font-size="4.557">β’</text><path fill-rule="evenodd" d="M2697.69 268.142h1.81q-.06 1.638-.09 2.934c-.02.863-.03 1.702-.04 2.517-.01.814-.02 1.618-.02 2.412v22.637q0 .923.06 1.593c.04.447.11.824.2 1.132q.135.462.36.79c.14.218.32.407.52.565.24.239.55.422.95.551s.9.239 1.52.328q.915.134 2.22.209c.86.049 1.9.084 3.11.104v2.591h-23.62v-2.591c1.17-.04 2.17-.085 2.98-.134.81-.05 1.51-.119 2.08-.209a10 10 0 0 0 1.39-.298c.35-.109.65-.243.91-.402.28-.178.51-.372.71-.58q.3-.313.48-.79c.12-.317.21-.705.28-1.161s.11-1.023.11-1.698v-21.356q0-1.162-.45-1.638c-.3-.318-.73-.477-1.28-.477-.62 0-1.53.318-2.74.953q-1.815.954-4.71 2.83c-.26-.457-.49-.914-.71-1.37q-.33-.686-.69-1.4c2.46-1.35 4.9-2.696 7.31-4.036 2.42-1.34 4.86-2.676 7.35-4.006"/><text x="2683.03" y="301.71" fill-opacity="0" font-family="Arial,Arial_MSFontService,sans-serif" font-size="38.363">1</text><path fill="#d74514" d="M2913 566h52v116h-52zm0 524h52v116h-52z"/><path d="M2635.917 326.5v302.042h236.721v-9.167H2640.5l4.583 4.583V326.5Zm232.138 320.375 45.833-22.917-45.833-22.916Z"/><path fill="none" stroke="#000" stroke-miterlimit="8" stroke-width="9.167" d="M2582.5 538.368 2699.375 404.5"/><path fill-rule="evenodd" d="M2347.56 885.586c1.4 0 2.58.493 3.52 1.479.95.986 1.42 2.236 1.42 3.749s-.47 2.762-1.42 3.748c-.94.986-2.12 1.48-3.52 1.48-1.41 0-2.58-.494-3.53-1.48-.94-.986-1.42-2.235-1.42-3.748s.48-2.763 1.42-3.749c.95-.986 2.12-1.479 3.53-1.479m-24.56 0c1.4 0 2.58.493 3.52 1.479.95.986 1.42 2.236 1.42 3.749s-.47 2.762-1.42 3.748c-.94.986-2.12 1.48-3.52 1.48-1.41 0-2.58-.494-3.53-1.48-.94-.986-1.42-2.235-1.42-3.748s.48-2.763 1.42-3.749c.95-.986 2.12-1.479 3.53-1.479m-24.56 0c1.4 0 2.58.493 3.52 1.479.95.986 1.42 2.236 1.42 3.749s-.47 2.762-1.42 3.748c-.94.986-2.12 1.48-3.52 1.48-1.41 0-2.58-.494-3.53-1.48-.94-.986-1.42-2.235-1.42-3.748s.48-2.763 1.42-3.749c.95-.986 2.12-1.479 3.53-1.479"/><text x="2293.49" y="894.735" fill-opacity="0" font-family="Arial,Arial_MSFontService,sans-serif" font-size="10.456">β‹―</text><path d="m1786.52 894.104 427.257-1.843-.039-9.166-427.258 1.843Zm422.753 16.51 45.734-23.114-45.932-22.719Z"/><path fill="none" stroke="#000" stroke-miterlimit="8" stroke-width="9.167" d="M1974.5 956.368 2091.375 822.5"/><path fill-rule="evenodd" d="M2025.86 751.436c1.7 0 3.04.56 4.03 1.681.99 1.122 1.48 2.587 1.48 4.398 0 1.432-.33 3.026-.97 4.782l.48.162q3.975-5.592 7.56-8.288c2.39-1.796 4.86-2.695 7.4-2.695q3.765 0 5.79 2.168c1.35 1.446 2.03 3.452 2.03 6.019 0 1.702-.39 4.12-1.18 7.254l-2.63 10.618c-.73 2.945-1.09 5.026-1.09 6.241 0 1.081.17 1.865.52 2.351s.91.73 1.66.73c.81 0 1.68-.331 2.6-.993s2.21-1.925 3.89-3.79l2.31 2.27c-2.33 2.485-4.35 4.302-6.08 5.451-1.73 1.148-3.7 1.722-5.92 1.722-1.75 0-3.16-.628-4.21-1.884-1.06-1.257-1.58-2.858-1.58-4.803 0-1.756.44-4.336 1.33-7.741l1.79-7.011c.65-2.54 1.07-4.417 1.27-5.633.21-1.216.31-2.202.31-2.959q0-2.796-.93-4.032c-.63-.824-1.64-1.236-3.04-1.236-1.14 0-2.36.452-3.67 1.358-1.31.905-2.7 2.269-4.18 4.093q-2.205 2.735-3.54 5.309-1.335 2.573-2.19 6.342l-3.85 17.549h-7.01l5.92-25.695c.59-2.593.89-4.593.89-5.998 0-1.08-.18-1.864-.53-2.35-.35-.487-.91-.73-1.66-.73-.84 0-1.72.345-2.66 1.034-.93.689-2.21 1.938-3.83 3.748l-2.31-2.269c2.49-2.594 4.56-4.438 6.2-5.532 1.65-1.094 3.52-1.641 5.6-1.641"/><text x="2014.06" y="786.507" fill-opacity="0" font-family="Arial,Arial_MSFontService,sans-serif" font-size="40.081">π‘›</text><path d="m3176.52 892.104 427.257-1.843-.039-9.166-427.258 1.843Zm422.753 16.51 45.734-23.114-45.932-22.719Z"/><path fill="none" stroke="#000" stroke-miterlimit="8" stroke-width="9.167" d="M3363.5 954.368 3480.375 820.5"/><path fill-rule="evenodd" d="M3415.41 749.415c1.7 0 3.04.56 4.03 1.681.98 1.122 1.48 2.587 1.48 4.398 0 1.432-.33 3.026-.98 4.782l.49.162q3.975-5.592 7.56-8.288c2.39-1.796 4.86-2.695 7.4-2.695q3.765 0 5.79 2.168c1.35 1.446 2.03 3.452 2.03 6.019 0 1.702-.39 4.12-1.18 7.254l-2.63 10.618c-.73 2.945-1.1 5.026-1.1 6.241 0 1.081.18 1.865.53 2.351s.91.73 1.66.73c.81 0 1.68-.331 2.6-.993.91-.662 2.21-1.925 3.89-3.79l2.31 2.27c-2.33 2.485-4.35 4.302-6.08 5.451-1.73 1.148-3.7 1.722-5.92 1.722-1.76 0-3.16-.628-4.21-1.884-1.06-1.257-1.58-2.858-1.58-4.803 0-1.756.44-4.336 1.33-7.741l1.79-7.011c.64-2.54 1.07-4.417 1.27-5.633s.31-2.202.31-2.959c0-1.864-.31-3.208-.94-4.032-.62-.824-1.63-1.236-3.04-1.236q-1.695 0-3.66 1.358c-1.31.905-2.71 2.269-4.18 4.093q-2.205 2.735-3.54 5.309c-.9 1.715-1.62 3.83-2.19 6.342l-3.85 17.549h-7.01l5.91-25.695q.9-3.89.9-5.998c0-1.08-.18-1.864-.53-2.35-.35-.487-.91-.73-1.66-.73-.84 0-1.73.345-2.66 1.034s-2.21 1.938-3.83 3.748l-2.31-2.269c2.49-2.594 4.55-4.438 6.2-5.532s3.52-1.641 5.6-1.641"/><text x="3403.61" y="784.486" fill-opacity="0" font-family="Arial,Arial_MSFontService,sans-serif" font-size="40.081">π‘›</text><path fill-rule="evenodd" d="M3701.03 858.8h16.78l-.45 1.986c-1.19.135-2.11.486-2.77 1.053-.67.568-1.13 1.358-1.4 2.371s-.41 2.371-.41 4.073q0 .607.12 3.648l1.14 29.666v3.242h.4l17.55-31.652q1.545-2.796 2.31-4.802c.52-1.338.77-2.52.77-3.547q0-3.404-4.05-4.052l.45-1.986h16.57l-.44 1.986c-.73.108-1.43.385-2.09.83-.66.446-1.41 1.189-2.23 2.229s-2.1 3.047-3.83 6.019l-25.94 44.904h-5.39l-2.71-45.188c-.11-1.756-.31-3.262-.59-4.519-.29-1.256-.73-2.235-1.34-2.938-.61-.702-1.57-1.148-2.9-1.337Zm-18.81-.649c2.46 0 4.74.149 6.83.446q3.15.446 6.99 1.621l-2.43 10.983h-3.89c-.22-3.323-.94-5.721-2.17-7.193q-1.845-2.21-5.94-2.209c-3.72 0-7.19 1.864-10.39 5.593s-5.74 8.652-7.6 14.772c-1.86 6.119-2.8 11.8-2.8 17.042q0 6.159 2.19 9.078c1.46 1.945 3.7 2.918 6.73 2.918q3.045 0 5.31-.912c1.51-.608 2.93-1.635 4.25-3.08 1.33-1.446 2.64-3.465 3.94-6.059h3.89l-2.48 11.51c-5.05 1.405-10.34 2.107-15.88 2.107-5.08 0-8.95-1.459-11.59-4.377-2.65-2.918-3.98-7.187-3.98-12.807q0-5.957 2.13-13.738c1.42-5.188 3.43-9.74 6.02-13.658s5.66-6.903 9.2-8.957q5.31-3.08 11.67-3.08"/><text x="3653.2" y="907.691" fill-opacity="0" font-family="Arial,Arial_MSFontService,sans-serif" font-size="56.617">π¶π‘‰</text><path fill-rule="evenodd" d="M3746.94 892.332h12.56l-.32 1.787c-.7.179-1.25.333-1.66.462-.4.129-.75.402-1.04.819s-.54 1.037-.77 1.861-.52 2.031-.88 3.619l-6.05 26.926h7.78c1.09 0 2.03-.094 2.83-.283.79-.188 1.52-.586 2.2-1.191.67-.606 1.33-1.465 1.95-2.577q.945-1.668 2.07-4.438h3.28l-3.07 11.646h-26.24l.33-1.817c.61-.099 1.12-.223 1.52-.372q.585-.223 1.05-.864.465-.64.84-1.921c.24-.854.54-2.045.88-3.574l4.88-21.713q.3-1.31.45-2.324t.15-1.727q0-1.31-.69-1.862c-.46-.367-1.29-.561-2.5-.581Z"/><text x="3739.58" y="926.134" fill-opacity="0" font-family="Arial,Arial_MSFontService,sans-serif" font-size="38.631">πΏ</text></g></svg>