<svg width="3415" height="790" xmlns="http://www.w3.org/2000/svg" xmlns:xlink="http://www.w3.org/1999/xlink" overflow="hidden"><defs><clipPath id="clip0"><rect x="166" y="1374" width="3415" height="790"/></clipPath></defs><g clip-path="url(#clip0)" transform="translate(-166 -1374)"><rect x="166" y="1448" width="237" height="308" fill="#F8CCB9"/><path d="M257.286 1576.22 276.171 1576.22 279.333 1610.06 298.542 1576.22 317.388 1576.22 316.82 1578.9C315.28 1579.33 314.146 1580.09 313.416 1581.17 312.687 1582.25 311.998 1584.25 311.349 1587.17L303.973 1620.6C303.784 1621.47 303.649 1622.22 303.568 1622.85 303.487 1623.49 303.446 1624.32 303.446 1625.34 303.446 1626.48 303.71 1627.31 304.237 1627.84 304.763 1628.36 305.621 1628.71 306.81 1628.87L306.243 1631.54 285.857 1631.54 286.425 1628.87C287.965 1628.44 289.1 1627.68 289.829 1626.6 290.559 1625.52 291.248 1623.52 291.896 1620.6L295.625 1603.58C296.867 1597.96 298.326 1592.3 300.001 1586.6L299.191 1586.6C297.921 1588.92 296.557 1591.34 295.098 1593.85L276.86 1625.42 270.295 1625.42 267.62 1601.07C266.999 1595.29 266.593 1590.33 266.404 1586.19L265.756 1586.19C264.675 1592.87 263.648 1598.41 262.676 1602.81L258.745 1620.6C258.556 1621.47 258.42 1622.22 258.339 1622.85 258.258 1623.49 258.218 1624.32 258.218 1625.34 258.218 1626.48 258.481 1627.31 259.008 1627.84 259.535 1628.36 260.393 1628.71 261.582 1628.87L261.014 1631.54 246.141 1631.54 246.708 1628.87C248.248 1628.44 249.383 1627.68 250.112 1626.6 250.842 1625.52 251.531 1623.52 252.179 1620.6L259.555 1587.17C259.906 1585.57 260.082 1583.99 260.082 1582.42 260.082 1581.29 259.819 1580.46 259.292 1579.93 258.765 1579.41 257.907 1579.06 256.718 1578.9Z" fill="#D74514" fill-rule="evenodd"/><text fill="#000000" fill-opacity="0" font-family="Arial,Arial_MSFontService,sans-serif" font-size="55.3198" x="246.141" y="1624.63">𝑴</text><path d="M753 2054.5C753 1994.02 801.801 1945 862 1945 922.199 1945 971 1994.02 971 2054.5 971 2114.98 922.199 2164 862 2164 801.801 2164 753 2114.98 753 2054.5Z" fill="#FDEFE8" fill-rule="evenodd"/><path d="M840.07 2028.85 860.455 2028.85 859.888 2031.53C858.347 2031.96 857.213 2032.71 856.483 2033.8 855.754 2034.88 855.065 2036.88 854.416 2039.79L851.579 2052.64 868.763 2052.64 871.6 2039.79C871.951 2038.2 872.127 2036.62 872.127 2035.05 872.127 2033.92 871.863 2033.09 871.336 2032.56 870.81 2032.03 869.952 2031.69 868.763 2031.53L869.33 2028.85 889.716 2028.85 889.148 2031.53C887.608 2031.96 886.473 2032.71 885.744 2033.8 885.014 2034.88 884.326 2036.88 883.677 2039.79L876.301 2073.23C876.112 2074.09 875.977 2074.84 875.896 2075.48 875.815 2076.11 875.774 2076.94 875.774 2077.97 875.774 2079.1 876.038 2079.94 876.565 2080.46 877.091 2080.99 877.949 2081.33 879.138 2081.5L878.571 2084.17 858.185 2084.17 858.753 2081.5C860.293 2081.06 861.428 2080.31 862.157 2079.23 862.887 2078.15 863.576 2076.15 864.224 2073.23L867.628 2057.75 850.445 2057.75 847.04 2073.23C846.851 2074.12 846.716 2074.88 846.635 2075.5 846.554 2076.12 846.513 2076.94 846.513 2077.97 846.513 2079.1 846.777 2079.94 847.304 2080.46 847.831 2080.99 848.688 2081.33 849.877 2081.5L849.31 2084.17 828.925 2084.17 829.492 2081.5C831.032 2081.06 832.167 2080.31 832.896 2079.23 833.626 2078.15 834.315 2076.15 834.963 2073.23L842.339 2039.79C842.69 2038.2 842.866 2036.62 842.866 2035.05 842.866 2033.92 842.603 2033.09 842.076 2032.56 841.549 2032.03 840.691 2031.69 839.502 2031.53Z" fill="#D74514" fill-rule="evenodd"/><text fill="#000000" fill-opacity="0" font-family="Arial,Arial_MSFontService,sans-serif" font-size="55.3198" x="828.925" y="2077.26">𝑯</text><path d="M954 1602C954 1541.8 1002.8 1493 1063 1493 1123.2 1493 1172 1541.8 1172 1602 1172 1662.2 1123.2 1711 1063 1711 1002.8 1711 954 1662.2 954 1602Z" fill="#FDEFE8" fill-rule="evenodd"/><path d="M1063.98 1576.22 1070.3 1576.22 1070.3 1639.65 1063.98 1639.65ZM1049.79 1576.22 1056.11 1576.22 1056.11 1639.65 1049.79 1639.65Z" fill="#D74514" fill-rule="evenodd"/><text fill="#000000" fill-opacity="0" font-family="Arial,Arial_MSFontService,sans-serif" font-size="63.4253" x="1049.79" y="1631.72">∥</text><rect x="2420" y="1374" width="237" height="308" fill="#F8CCB9"/><path d="M2511.45 1502.27 2530.34 1502.27 2533.5 1536.11 2552.71 1502.27 2571.55 1502.27 2570.99 1504.95C2569.45 1505.38 2568.31 1506.14 2567.58 1507.22 2566.85 1508.3 2566.16 1510.3 2565.51 1513.21L2558.14 1546.65C2557.95 1547.51 2557.81 1548.26 2557.73 1548.9 2557.65 1549.53 2557.61 1550.36 2557.61 1551.39 2557.61 1552.53 2557.87 1553.36 2558.4 1553.88 2558.93 1554.41 2559.79 1554.76 2560.97 1554.92L2560.41 1557.59 2540.02 1557.59 2540.59 1554.92C2542.13 1554.49 2543.26 1553.73 2543.99 1552.65 2544.72 1551.57 2545.41 1549.57 2546.06 1546.65L2549.79 1529.63C2551.03 1524.01 2552.49 1518.35 2554.17 1512.65L2553.36 1512.65C2552.09 1514.97 2550.72 1517.39 2549.26 1519.9L2531.03 1551.47 2524.46 1551.47 2521.78 1527.12C2521.16 1521.33 2520.76 1516.38 2520.57 1512.24L2519.92 1512.24C2518.84 1518.92 2517.81 1524.45 2516.84 1528.86L2512.91 1546.65C2512.72 1547.51 2512.59 1548.26 2512.5 1548.9 2512.42 1549.53 2512.38 1550.36 2512.38 1551.39 2512.38 1552.53 2512.65 1553.36 2513.17 1553.88 2513.7 1554.41 2514.56 1554.76 2515.75 1554.92L2515.18 1557.59 2500.31 1557.59 2500.87 1554.92C2502.41 1554.49 2503.55 1553.73 2504.28 1552.65 2505.01 1551.57 2505.7 1549.57 2506.34 1546.65L2513.72 1513.21C2514.07 1511.62 2514.25 1510.04 2514.25 1508.47 2514.25 1507.34 2513.98 1506.51 2513.46 1505.98 2512.93 1505.45 2512.07 1505.11 2510.88 1504.95Z" fill="#D74514" fill-rule="evenodd"/><text fill="#000000" fill-opacity="0" font-family="Arial,Arial_MSFontService,sans-serif" font-size="55.3198" x="2500.31" y="1550.68">𝑴</text><rect x="2420" y="1685" width="237" height="146" fill="#FDEFE8"/><path d="M3103 1602C3103 1541.8 3151.8 1493 3212 1493 3272.2 1493 3321 1541.8 3321 1602 3321 1662.2 3272.2 1711 3212 1711 3151.8 1711 3103 1662.2 3103 1602Z" fill="#FDEFE8" fill-rule="evenodd"/><path d="M3189.8 1576.22 3210.18 1576.22 3209.62 1578.9C3208.08 1579.33 3206.94 1580.09 3206.21 1581.17 3205.48 1582.25 3204.79 1584.25 3204.15 1587.17L3201.31 1600.01 3218.49 1600.01 3221.33 1587.17C3221.68 1585.57 3221.86 1583.99 3221.86 1582.42 3221.86 1581.29 3221.59 1580.46 3221.07 1579.93 3220.54 1579.41 3219.68 1579.06 3218.49 1578.9L3219.06 1576.22 3239.45 1576.22 3238.88 1578.9C3237.34 1579.33 3236.2 1580.09 3235.47 1581.17 3234.74 1582.25 3234.06 1584.25 3233.41 1587.17L3226.03 1620.6C3225.84 1621.47 3225.71 1622.22 3225.63 1622.85 3225.54 1623.49 3225.5 1624.32 3225.5 1625.34 3225.5 1626.48 3225.77 1627.31 3226.29 1627.84 3226.82 1628.36 3227.68 1628.71 3228.87 1628.87L3228.3 1631.54 3207.92 1631.54 3208.48 1628.87C3210.02 1628.44 3211.16 1627.68 3211.89 1626.6 3212.62 1625.52 3213.31 1623.52 3213.95 1620.6L3217.36 1605.12 3200.17 1605.12 3196.77 1620.6C3196.58 1621.49 3196.45 1622.25 3196.36 1622.87 3196.28 1623.49 3196.24 1624.32 3196.24 1625.34 3196.24 1626.48 3196.51 1627.31 3197.03 1627.84 3197.56 1628.36 3198.42 1628.71 3199.61 1628.87L3199.04 1631.54 3178.65 1631.54 3179.22 1628.87C3180.76 1628.44 3181.9 1627.68 3182.63 1626.6 3183.36 1625.52 3184.04 1623.52 3184.69 1620.6L3192.07 1587.17C3192.42 1585.57 3192.6 1583.99 3192.6 1582.42 3192.6 1581.29 3192.33 1580.46 3191.81 1579.93 3191.28 1579.41 3190.42 1579.06 3189.23 1578.9Z" fill="#D74514" fill-rule="evenodd"/><text fill="#000000" fill-opacity="0" font-family="Arial,Arial_MSFontService,sans-serif" font-size="55.3198" x="3178.65" y="1624.63">𝑯</text><path d="M3389.02 1874C3387.64 1874 3386.28 1874.46 3384.94 1875.4 3383.6 1876.33 3382.14 1877.82 3380.55 1879.87 3378.95 1881.93 3377.71 1883.95 3376.82 1885.95 3375.93 1887.95 3375.22 1890.25 3374.71 1892.84L3374.39 1894.54C3374.11 1895.98 3373.95 1897.07 3373.88 1897.83 3373.81 1898.58 3373.78 1899.33 3373.78 1900.06 3373.78 1902.16 3374.23 1903.7 3375.13 1904.66 3376.04 1905.62 3377.6 1906.1 3379.82 1906.1 3381.19 1906.1 3382.46 1905.83 3383.63 1905.28 3384.79 1904.74 3385.89 1903.96 3386.93 1902.93 3387.97 1901.91 3388.91 1900.66 3389.74 1899.21 3390.58 1897.75 3391.33 1896.05 3391.99 1894.12 3392.66 1892.19 3393.16 1890.2 3393.49 1888.16 3393.83 1886.12 3394 1884.21 3394 1882.43 3394 1879.59 3393.6 1877.48 3392.8 1876.08 3392.01 1874.69 3390.74 1874 3389.02 1874ZM3270.84 1872.5C3268.03 1872.5 3265.58 1873.67 3263.49 1876.02 3261.39 1878.37 3259.74 1881.74 3258.54 1886.12 3257.34 1890.49 3256.74 1894.26 3256.74 1897.42 3256.74 1900.39 3257.35 1902.59 3258.58 1904.01 3259.81 1905.43 3261.67 1906.14 3264.15 1906.14 3266.8 1906.14 3269.15 1904.95 3271.21 1902.57 3273.26 1900.19 3274.88 1896.86 3276.07 1892.58 3277.26 1888.3 3277.85 1884.53 3277.85 1881.29 3277.85 1878.37 3277.28 1876.18 3276.15 1874.71 3275.02 1873.23 3273.25 1872.5 3270.84 1872.5ZM3515.25 1872.42C3512.52 1872.42 3509.89 1873.79 3507.36 1876.55 3504.84 1879.31 3502.9 1883.04 3501.55 1887.74 3505.36 1887.71 3508.63 1887.36 3511.36 1886.7 3514.08 1886.04 3516.18 1884.99 3517.64 1883.54 3519.1 1882.1 3519.83 1880.14 3519.83 1877.69 3519.83 1876.04 3519.44 1874.75 3518.67 1873.82 3517.9 1872.88 3516.76 1872.42 3515.25 1872.42ZM3431.17 1872.42C3428.38 1872.42 3425.88 1873.54 3423.67 1875.78 3421.45 1878.02 3419.72 1881.03 3418.48 1884.8 3417.24 1888.57 3416.62 1892.33 3416.62 1896.08 3416.62 1898.89 3417 1901 3417.77 1902.39 3418.54 1903.78 3419.83 1904.47 3421.64 1904.47 3423.42 1904.47 3425.17 1903.7 3426.89 1902.16 3428.61 1900.62 3430.38 1898.43 3432.2 1895.58 3434.02 1892.73 3435.31 1889.44 3436.07 1885.71L3436.43 1883.97C3436.68 1882.86 3436.84 1881.9 3436.92 1881.09 3437 1880.28 3437.04 1879.4 3437.04 1878.46 3437.04 1876.38 3436.6 1874.85 3435.7 1873.88 3434.81 1872.9 3433.3 1872.42 3431.17 1872.42ZM3271.65 1869.26C3275.97 1869.26 3279.27 1870.44 3281.54 1872.8 3283.81 1875.17 3284.94 1878.55 3284.94 1882.95 3284.94 1886.09 3284.4 1889.44 3283.3 1893 3282.21 1896.57 3280.71 1899.57 3278.8 1902 3276.9 1904.43 3274.62 1906.26 3271.98 1907.49 3269.33 1908.72 3266.29 1909.34 3262.86 1909.34 3258.67 1909.34 3255.42 1908.16 3253.11 1905.81 3250.8 1903.46 3249.65 1900.08 3249.65 1895.68 3249.65 1893.52 3249.97 1891.02 3250.62 1888.18 3251.46 1884.35 3252.86 1881 3254.83 1878.13 3256.81 1875.27 3259.24 1873.07 3262.13 1871.55 3265.02 1870.02 3268.19 1869.26 3271.65 1869.26ZM3516.71 1869.22C3519.97 1869.22 3522.43 1869.88 3524.06 1871.2 3525.7 1872.53 3526.51 1874.59 3526.51 1877.4 3526.51 1881.99 3524.36 1885.44 3520.05 1887.74 3515.74 1890.03 3509.34 1891.18 3500.86 1891.18 3500.53 1892.8 3500.37 1894.56 3500.37 1896.45 3500.37 1899.29 3500.93 1901.35 3502.03 1902.63 3503.14 1903.91 3504.95 1904.56 3507.47 1904.56 3509.95 1904.56 3512.2 1904.01 3514.21 1902.93 3516.23 1901.85 3518.35 1900.19 3520.6 1897.95L3523.11 1900.58C3520.49 1903.47 3517.83 1905.65 3515.15 1907.11 3512.46 1908.57 3509.33 1909.3 3505.76 1909.3 3501.85 1909.3 3498.81 1908.1 3496.66 1905.71 3494.52 1903.32 3493.44 1899.99 3493.44 1895.72 3493.44 1892.83 3493.96 1889.73 3495 1886.42 3496.04 1883.11 3497.62 1880.14 3499.72 1877.5 3501.83 1874.87 3504.36 1872.83 3507.3 1871.38 3510.25 1869.94 3513.38 1869.22 3516.71 1869.22ZM3462.91 1869.22C3464.61 1869.22 3465.96 1869.78 3466.95 1870.9 3467.93 1872.02 3468.42 1873.48 3468.42 1875.29 3468.42 1876.65 3468.17 1878.04 3467.65 1879.47L3468.18 1879.67C3470.83 1876.08 3473.38 1873.44 3475.82 1871.77 3478.27 1870.09 3480.74 1869.26 3483.26 1869.26 3485.23 1869.26 3486.88 1869.4 3488.2 1869.7L3486.26 1878.78 3482.08 1878.78C3481.92 1877.65 3481.69 1876.77 3481.39 1876.15 3481.1 1875.52 3480.74 1875.09 3480.34 1874.85 3479.93 1874.61 3479.42 1874.48 3478.8 1874.48 3477.83 1874.48 3476.77 1874.9 3475.62 1875.74 3474.47 1876.58 3473.18 1877.89 3471.75 1879.67 3470.32 1881.45 3469.17 1883.17 3468.32 1884.82 3467.47 1886.47 3466.76 1888.56 3466.2 1891.1L3462.35 1908.65 3455.33 1908.65 3461.21 1882.95C3461.59 1881.33 3461.83 1880.08 3461.94 1879.19 3462.05 1878.29 3462.1 1877.55 3462.1 1876.96 3462.1 1875.88 3461.93 1875.09 3461.58 1874.61 3461.22 1874.12 3460.67 1873.88 3459.91 1873.88 3459.08 1873.88 3458.19 1874.22 3457.26 1874.91 3456.33 1875.6 3455.05 1876.85 3453.43 1878.66L3451.12 1876.39C3453.6 1873.79 3455.69 1871.95 3457.36 1870.86 3459.04 1869.76 3460.89 1869.22 3462.91 1869.22ZM3430.35 1869.22C3432.11 1869.22 3433.75 1869.41 3435.28 1869.8 3436.81 1870.19 3438.38 1870.89 3440 1871.89L3443.73 1869.22 3446.32 1869.86 3440.36 1895.56C3439.77 1898.12 3439.47 1900.12 3439.47 1901.56 3439.47 1902.64 3439.65 1903.42 3440 1903.91 3440.35 1904.39 3440.91 1904.64 3441.66 1904.64 3442.47 1904.64 3443.34 1904.31 3444.26 1903.64 3445.17 1902.98 3446.47 1901.72 3448.15 1899.85L3450.46 1902.12C3448.02 1904.72 3445.95 1906.56 3444.24 1907.66 3442.52 1908.75 3440.66 1909.3 3438.66 1909.3 3436.99 1909.3 3435.65 1908.74 3434.65 1907.64 3433.65 1906.53 3433.15 1905.06 3433.15 1903.22 3433.15 1901.73 3433.46 1900.15 3434.08 1898.48L3433.56 1898.31C3430.96 1902.1 3428.5 1904.87 3426.18 1906.62 3423.86 1908.38 3421.4 1909.26 3418.8 1909.26 3415.83 1909.26 3413.53 1908.14 3411.89 1905.89 3410.26 1903.65 3409.44 1900.5 3409.44 1896.45 3409.44 1891.8 3410.35 1887.34 3412.18 1883.06 3414 1878.77 3416.51 1875.4 3419.7 1872.92 3422.88 1870.45 3426.44 1869.22 3430.35 1869.22ZM3371.95 1869.22C3373.63 1869.22 3374.96 1869.77 3375.95 1870.88 3376.93 1871.98 3377.42 1873.46 3377.42 1875.29 3377.42 1876.81 3377.11 1878.4 3376.49 1880.08L3376.98 1880.24C3381.98 1872.92 3386.95 1869.26 3391.89 1869.26 3394.84 1869.26 3397.13 1870.38 3398.76 1872.62 3400.4 1874.86 3401.21 1878.02 3401.21 1882.1 3401.21 1886.56 3400.32 1890.94 3398.52 1895.25 3396.72 1899.56 3394.23 1902.98 3391.04 1905.51 3387.85 1908.03 3384.29 1909.3 3380.34 1909.3 3376.75 1909.3 3373.76 1908.51 3371.39 1906.95L3369.52 1915.82C3369.12 1917.74 3368.91 1919.32 3368.91 1920.56 3368.91 1921.75 3369.22 1922.6 3369.83 1923.1 3370.43 1923.6 3371.62 1923.93 3373.37 1924.09L3373.05 1926.08 3360.52 1926.08 3370.29 1883.08C3370.86 1880.59 3371.14 1878.55 3371.14 1876.96 3371.14 1875.88 3370.97 1875.09 3370.62 1874.61 3370.26 1874.12 3369.71 1873.88 3368.95 1873.88 3368.12 1873.88 3367.23 1874.22 3366.3 1874.91 3365.37 1875.6 3364.09 1876.85 3362.47 1878.66L3360.16 1876.39C3362.59 1873.85 3364.65 1872.02 3366.34 1870.9 3368.03 1869.78 3369.9 1869.22 3371.95 1869.22ZM3301.95 1869.22C3303.66 1869.22 3305 1869.78 3305.99 1870.9 3306.97 1872.02 3307.47 1873.48 3307.47 1875.29 3307.47 1876.78 3307.15 1878.36 3306.53 1880.04L3307.02 1880.2C3309.5 1876.5 3311.98 1873.75 3314.44 1871.95 3316.89 1870.15 3319.38 1869.26 3321.89 1869.26 3324.49 1869.26 3326.46 1869.99 3327.81 1871.46 3329.16 1872.94 3329.84 1875.06 3329.84 1877.85L3329.84 1878.42C3329.84 1878.6 3329.82 1878.81 3329.8 1879.02 3332.12 1875.73 3334.44 1873.27 3336.75 1871.67 3339.06 1870.06 3341.45 1869.26 3343.94 1869.26 3346.43 1869.26 3348.34 1869.97 3349.69 1871.4 3351.05 1872.84 3351.72 1874.85 3351.72 1877.44 3351.72 1879.14 3351.33 1881.56 3350.55 1884.7L3347.91 1895.31C3347.18 1898.26 3346.82 1900.34 3346.82 1901.56 3346.82 1902.64 3346.99 1903.42 3347.34 1903.91 3347.7 1904.39 3348.25 1904.64 3349.01 1904.64 3349.82 1904.64 3350.68 1904.31 3351.6 1903.64 3352.52 1902.98 3353.81 1901.72 3355.49 1899.85L3357.8 1902.12C3355.48 1904.58 3353.45 1906.39 3351.72 1907.55 3349.99 1908.72 3348.02 1909.3 3345.8 1909.3 3344.05 1909.3 3342.64 1908.67 3341.59 1907.41 3340.54 1906.16 3340.01 1904.56 3340.01 1902.61 3340.01 1900.85 3340.45 1898.27 3341.35 1894.87L3343.13 1887.86C3343.78 1885.32 3344.2 1883.44 3344.41 1882.22 3344.61 1881.01 3344.71 1880.02 3344.71 1879.27 3344.71 1877.4 3344.4 1876.06 3343.78 1875.23 3343.16 1874.41 3342.14 1874 3340.74 1874 3339.6 1874 3338.39 1874.42 3337.09 1875.27 3335.79 1876.13 3334.43 1877.45 3333 1879.25 3331.57 1881.04 3330.4 1882.81 3329.49 1884.55 3328.59 1886.3 3327.86 1888.43 3327.32 1890.94L3323.64 1908.65 3316.62 1908.65 3321.28 1888.06C3321.85 1885.55 3322.24 1883.69 3322.44 1882.49 3322.64 1881.29 3322.74 1880.25 3322.74 1879.39 3322.74 1877.44 3322.4 1876.06 3321.71 1875.23 3321.02 1874.41 3319.95 1874 3318.49 1874 3317.46 1874 3316.29 1874.42 3314.98 1875.27 3313.67 1876.13 3312.27 1877.49 3310.79 1879.37 3309.3 1881.25 3308.14 1883.05 3307.3 1884.78 3306.47 1886.51 3305.76 1888.61 3305.2 1891.1L3301.35 1908.65 3294.33 1908.65 3300.25 1882.95C3300.85 1880.36 3301.14 1878.36 3301.14 1876.96 3301.14 1875.88 3300.97 1875.09 3300.62 1874.61 3300.26 1874.12 3299.71 1873.88 3298.95 1873.88 3298.12 1873.88 3297.23 1874.22 3296.3 1874.91 3295.37 1875.6 3294.09 1876.85 3292.47 1878.66L3290.16 1876.39C3292.54 1873.9 3294.58 1872.09 3296.3 1870.94 3298.02 1869.79 3299.9 1869.22 3301.95 1869.22ZM3230.68 1852.68C3233.13 1852.68 3235.41 1852.83 3237.5 1853.13 3239.6 1853.42 3241.93 1853.96 3244.5 1854.75L3242.06 1865.73 3238.17 1865.73C3237.96 1862.41 3237.23 1860.01 3236.01 1858.54 3234.78 1857.06 3232.8 1856.33 3230.07 1856.33 3226.34 1856.33 3222.87 1858.19 3219.67 1861.92 3216.47 1865.65 3213.94 1870.57 3212.07 1876.69 3210.21 1882.81 3209.28 1888.49 3209.28 1893.73 3209.28 1897.84 3210.01 1900.87 3211.47 1902.81 3212.93 1904.76 3215.17 1905.73 3218.19 1905.73 3220.22 1905.73 3221.99 1905.43 3223.5 1904.82 3225.02 1904.21 3226.43 1903.18 3227.76 1901.74 3229.08 1900.29 3230.39 1898.27 3231.69 1895.68L3235.58 1895.68 3233.11 1907.19C3228.06 1908.59 3222.76 1909.3 3217.22 1909.3 3212.14 1909.3 3208.28 1907.84 3205.63 1904.92 3202.98 1902 3201.66 1897.73 3201.66 1892.11 3201.66 1888.14 3202.37 1883.56 3203.79 1878.37 3205.2 1873.19 3207.21 1868.63 3209.8 1864.72 3212.4 1860.8 3215.46 1857.81 3219 1855.76 3222.54 1853.71 3226.43 1852.68 3230.68 1852.68Z" fill-rule="evenodd"/><text fill="#000000" fill-opacity="0" font-family="Arial,Arial_MSFontService,sans-serif" font-size="73.395" x="3201.66" y="1916.9">𝐶𝑜𝑚𝑝𝑎𝑟𝑒</text><path d="M403.5 1597.92 913.02 1597.92 913.02 1607.08 403.5 1607.08ZM908.437 1579.58 954.27 1602.5 908.437 1625.42Z"/><path d="M525.215 1688.72C527.7 1688.72 530.004 1688.89 532.124 1689.22 534.245 1689.56 536.589 1690.14 539.156 1690.95L536.886 1701.36 532.996 1701.36C532.888 1699.07 532.536 1697.26 531.942 1695.95 531.348 1694.64 530.497 1693.7 529.389 1693.13 528.281 1692.57 526.809 1692.28 524.971 1692.28 522.729 1692.28 520.757 1692.74 519.054 1693.66 517.352 1694.58 516.055 1695.83 515.164 1697.41 514.272 1698.99 513.826 1700.75 513.826 1702.7 513.826 1704.73 514.36 1706.5 515.427 1708.03 516.494 1709.56 518.541 1711.36 521.567 1713.44 524.215 1715.28 526.234 1716.92 527.626 1718.36 529.017 1719.81 530.044 1721.34 530.706 1722.96 531.368 1724.58 531.699 1726.46 531.699 1728.6 531.699 1731.89 530.909 1734.82 529.328 1737.37 527.747 1739.92 525.518 1741.9 522.641 1743.29 519.764 1744.68 516.488 1745.37 512.813 1745.37 510.327 1745.37 507.646 1745.17 504.768 1744.77 501.891 1744.36 499.318 1743.85 497.048 1743.23L499.48 1732.08 503.37 1732.08C503.37 1735.38 504.134 1737.83 505.66 1739.44 507.187 1741.04 509.544 1741.85 512.732 1741.85 516.407 1741.85 519.298 1740.85 521.405 1738.85 523.512 1736.85 524.566 1734.07 524.566 1730.5 524.566 1728.85 524.276 1727.4 523.695 1726.14 523.114 1724.89 522.236 1723.69 521.06 1722.54 519.885 1721.39 518.19 1720.07 515.974 1718.59 513.975 1717.24 512.313 1715.9 510.989 1714.59 509.666 1713.28 508.612 1711.82 507.828 1710.2 507.045 1708.58 506.653 1706.77 506.653 1704.77 506.653 1701.58 507.423 1698.77 508.963 1696.34 510.503 1693.9 512.678 1692.03 515.488 1690.7 518.298 1689.38 521.54 1688.72 525.215 1688.72Z" fill-rule="evenodd"/><text fill="#000000" fill-opacity="0" font-family="Arial,Arial_MSFontService,sans-serif" font-size="56.6572" x="497.048" y="1738.29">𝑆</text><path d="M524.083 1781.5 524.083 1901.24 514.917 1901.24 514.917 1781.5ZM542.417 1896.66 519.5 1942.49 496.583 1896.66Z"/><path d="M0-4.58333 303.025-4.58333 303.025 84.796 293.858 84.796 293.858 0 298.441 4.58333 0 4.58333ZM321.358 80.2127 298.441 126.046 275.525 80.2127Z" transform="matrix(1.83697e-16 1 1 -1.83697e-16 285.5 1756.5)"/><path d="M0-4.58333 96.4535-4.58333 96.4535 302.135 87.2869 302.135 87.2869 0 91.8702 4.58333 0 4.58333ZM114.787 297.552 91.8702 343.385 68.9535 297.552Z" transform="matrix(1 0 0 -1 971.5 2054.89)"/><path d="M2908.55 1852.68C2911.04 1852.68 2913.34 1852.85 2915.46 1853.19 2917.58 1853.52 2919.93 1854.1 2922.5 1854.91L2920.23 1865.32 2916.34 1865.32C2916.23 1863.03 2915.88 1861.22 2915.28 1859.91 2914.69 1858.6 2913.84 1857.67 2912.73 1857.1 2911.62 1856.53 2910.15 1856.25 2908.31 1856.25 2906.07 1856.25 2904.1 1856.71 2902.39 1857.62 2900.69 1858.54 2899.4 1859.79 2898.5 1861.37 2897.61 1862.95 2897.17 1864.72 2897.17 1866.66 2897.17 1868.69 2897.7 1870.46 2898.77 1871.99 2899.83 1873.52 2901.88 1875.32 2904.91 1877.4 2907.55 1879.24 2909.57 1880.88 2910.97 1882.33 2912.36 1883.77 2913.38 1885.3 2914.05 1886.93 2914.71 1888.55 2915.04 1890.42 2915.04 1892.56 2915.04 1895.86 2914.25 1898.78 2912.67 1901.33 2911.09 1903.89 2908.86 1905.86 2905.98 1907.25 2903.1 1908.64 2899.83 1909.34 2896.15 1909.34 2893.67 1909.34 2890.99 1909.13 2888.11 1908.73 2885.23 1908.32 2882.66 1907.81 2880.39 1907.19L2882.82 1896.04 2886.71 1896.04C2886.71 1899.34 2887.47 1901.79 2889 1903.4 2890.53 1905.01 2892.88 1905.81 2896.07 1905.81 2899.75 1905.81 2902.64 1904.81 2904.74 1902.81 2906.85 1900.81 2907.91 1898.03 2907.91 1894.46 2907.91 1892.82 2907.62 1891.36 2907.03 1890.11 2906.45 1888.85 2905.58 1887.65 2904.4 1886.5 2903.22 1885.35 2901.53 1884.03 2899.31 1882.55 2897.31 1881.2 2895.65 1879.87 2894.33 1878.56 2893.01 1877.25 2891.95 1875.78 2891.17 1874.16 2890.38 1872.54 2889.99 1870.73 2889.99 1868.73 2889.99 1865.54 2890.76 1862.73 2892.3 1860.3 2893.84 1857.87 2896.02 1855.99 2898.83 1854.67 2901.64 1853.34 2904.88 1852.68 2908.55 1852.68Z" fill-rule="evenodd"/><text fill="#000000" fill-opacity="0" font-family="Arial,Arial_MSFontService,sans-serif" font-size="56.6572" x="2880.39" y="1902.26">𝑆</text><path d="M4.58333-1.64008e-05 4.58355 59.6042-4.58312 59.6043-4.58333 1.64008e-05ZM22.9169 55.0209 0.000360892 100.854-22.9165 55.021Z" transform="matrix(1 0 0 -1 2903.5 1812.35)"/><path d="M3321.5 1597.92 3369.36 1597.92 3369.36 1771.35 3360.2 1771.35 3360.2 1602.5 3364.78 1607.08 3321.5 1607.08ZM3387.7 1766.76 3364.78 1812.6 3341.86 1766.76Z"/><path d="M2657.5 1753.92 2906.98 1753.92 2906.98 2028.51 2902.4 2023.93 3364.38 2023.93 3359.8 2028.51 3359.8 1987.26 3368.96 1987.26 3368.96 2033.1 2897.82 2033.1 2897.82 1758.5 2902.4 1763.08 2657.5 1763.08ZM3341.46 1991.85 3364.38 1946.01 3387.3 1991.85Z"/><path d="M2377.04 1877.81 2393.26 1877.81 2392.81 1879.8C2391.78 1880.02 2391.05 1880.26 2390.6 1880.53 2390.16 1880.8 2389.76 1881.2 2389.41 1881.74 2389.05 1882.28 2388.69 1883.13 2388.31 1884.28 2387.93 1885.43 2387.46 1887.3 2386.89 1889.89L2384.14 1902.29 2405.9 1902.29 2408.66 1889.85C2408.9 1888.74 2409.11 1887.56 2409.28 1886.3 2409.46 1885.05 2409.55 1884.05 2409.55 1883.33 2409.55 1882.06 2409.23 1881.17 2408.59 1880.67 2407.96 1880.17 2406.95 1879.88 2405.58 1879.8L2406.02 1877.81 2422.23 1877.81 2421.79 1879.8C2420.76 1880.02 2420.02 1880.26 2419.58 1880.53 2419.13 1880.8 2418.73 1881.2 2418.38 1881.74 2418.03 1882.28 2417.67 1883.13 2417.29 1884.28 2416.91 1885.43 2416.44 1887.3 2415.87 1889.89L2408.94 1921.34C2408.59 1922.93 2408.36 1924.2 2408.25 1925.13 2408.14 1926.06 2408.09 1926.91 2408.09 1927.66 2408.09 1928.88 2408.39 1929.74 2409 1930.24 2409.61 1930.74 2410.63 1931.04 2412.06 1931.15L2411.61 1933.13 2395.4 1933.13 2395.85 1931.15C2396.88 1930.99 2397.65 1930.72 2398.16 1930.36 2398.67 1929.99 2399.1 1929.49 2399.46 1928.84 2399.81 1928.19 2400.13 1927.4 2400.43 1926.47 2400.73 1925.53 2401.17 1923.73 2401.77 1921.06L2405.09 1906.02 2383.33 1906.02 2379.96 1921.34C2379.67 1922.69 2379.45 1923.81 2379.31 1924.68 2379.18 1925.56 2379.11 1926.55 2379.11 1927.66 2379.11 1928.82 2379.38 1929.66 2379.92 1930.17 2380.46 1930.69 2381.52 1931.01 2383.08 1931.15L2382.64 1933.13 2366.43 1933.13 2366.87 1931.15C2367.9 1930.99 2368.67 1930.72 2369.18 1930.36 2369.7 1929.99 2370.13 1929.49 2370.48 1928.84 2370.83 1928.19 2371.15 1927.4 2371.45 1926.47 2371.75 1925.53 2372.19 1923.73 2372.79 1921.06L2379.68 1889.85C2379.92 1888.74 2380.13 1887.56 2380.31 1886.3 2380.48 1885.05 2380.57 1884.05 2380.57 1883.33 2380.57 1882.06 2380.25 1881.17 2379.62 1880.67 2378.98 1880.17 2377.98 1879.88 2376.6 1879.8Z" fill-rule="evenodd"/><text fill="#000000" fill-opacity="0" font-family="Arial,Arial_MSFontService,sans-serif" font-size="55.3198" x="2366.43" y="1926.22">𝐻</text><path d="M2683.73 1871.02C2691.62 1873.1 2697.68 1877.59 2701.91 1884.49 2706.14 1891.4 2708.25 1899.73 2708.25 1909.48 2708.25 1919.26 2706.15 1927.59 2701.93 1934.46 2697.72 1941.34 2691.65 1945.82 2683.73 1947.9L2682.76 1944.78C2689 1942.7 2693.64 1938.59 2696.68 1932.46 2699.72 1926.33 2701.24 1918.53 2701.24 1909.07 2701.24 1899.94 2699.73 1892.36 2696.7 1886.32 2693.68 1880.28 2688.99 1876.22 2682.64 1874.14ZM2458.49 1871.02 2459.59 1874.14C2453.26 1876.22 2448.58 1880.28 2445.54 1886.32 2442.5 1892.36 2440.98 1899.94 2440.98 1909.07 2440.98 1918.53 2442.5 1926.33 2445.54 1932.46 2448.58 1938.59 2453.22 1942.7 2459.47 1944.78L2458.49 1947.9C2450.58 1945.82 2444.51 1941.34 2440.3 1934.46 2436.08 1927.59 2433.97 1919.26 2433.97 1909.48 2433.97 1899.73 2436.09 1891.4 2440.32 1884.49 2444.54 1877.59 2450.6 1873.1 2458.49 1871.02Z" fill-rule="evenodd"/><path d="M2473.76 1877.81 2488.23 1877.81 2492.85 1917.12 2516.48 1877.81 2529.25 1877.81 2528.8 1879.8C2527.77 1880.02 2527.04 1880.26 2526.59 1880.53 2526.15 1880.8 2525.74 1881.2 2525.38 1881.74 2525.01 1882.28 2524.65 1883.13 2524.28 1884.28 2523.92 1885.43 2523.45 1887.3 2522.88 1889.89L2515.95 1921.34C2515.6 1922.93 2515.37 1924.2 2515.26 1925.13 2515.16 1926.06 2515.1 1926.91 2515.1 1927.66 2515.1 1928.88 2515.41 1929.74 2516.01 1930.24 2516.62 1930.74 2517.64 1931.04 2519.07 1931.15L2518.63 1933.13 2502.42 1933.13 2502.86 1931.15C2503.89 1930.99 2504.66 1930.72 2505.17 1930.36 2505.69 1929.99 2506.12 1929.49 2506.47 1928.84 2506.82 1928.19 2507.14 1927.4 2507.44 1926.47 2507.74 1925.53 2508.18 1923.73 2508.78 1921.06L2514.17 1896.62C2514.93 1893.24 2515.79 1889.88 2516.76 1886.53L2516.2 1886.53C2515.36 1888.12 2513.47 1891.36 2510.52 1896.25L2492.08 1926.69 2487.66 1926.69 2484.3 1900.63C2483.81 1896.96 2483.27 1892.01 2482.68 1885.8L2481.87 1885.8C2480.95 1891.85 2479.92 1897.46 2478.79 1902.62L2474.66 1921.34C2474.09 1923.91 2473.8 1926.01 2473.8 1927.66 2473.8 1928.88 2474.11 1929.74 2474.72 1930.24 2475.32 1930.74 2476.34 1931.04 2477.78 1931.15L2477.33 1933.13 2463.15 1933.13 2463.59 1931.15C2464.62 1930.99 2465.39 1930.72 2465.9 1930.36 2466.41 1929.99 2466.85 1929.49 2467.2 1928.84 2467.55 1928.19 2467.87 1927.4 2468.17 1926.47 2468.47 1925.53 2468.91 1923.73 2469.51 1921.06L2476.4 1889.85C2476.67 1888.69 2476.88 1887.58 2477.05 1886.53 2477.21 1885.47 2477.29 1884.41 2477.29 1883.33 2477.29 1882.06 2476.97 1881.17 2476.34 1880.67 2475.7 1880.17 2474.7 1879.88 2473.32 1879.8Z" fill-rule="evenodd"/><text fill="#000000" fill-opacity="0" font-family="Arial,Arial_MSFontService,sans-serif" font-size="55.3198" x="2463.15" y="1926.22">𝑀</text><path d="M2597.83 1877.81 2604.16 1877.81 2604.16 1941.24 2597.83 1941.24ZM2583.65 1877.81 2589.97 1877.81 2589.97 1941.24 2583.65 1941.24Z" fill-rule="evenodd"/><text fill="#000000" fill-opacity="0" font-family="Arial,Arial_MSFontService,sans-serif" font-size="63.4253" x="2583.65" y="1933.31">∥</text><path d="M2664.73 1877.16C2667.21 1877.16 2669.52 1877.33 2671.64 1877.67 2673.76 1878.01 2676.1 1878.58 2678.67 1879.39L2676.4 1889.81 2672.51 1889.81C2672.4 1887.51 2672.05 1885.71 2671.46 1884.4 2670.86 1883.09 2670.01 1882.15 2668.9 1881.58 2667.79 1881.02 2666.32 1880.73 2664.48 1880.73 2662.24 1880.73 2660.27 1881.19 2658.57 1882.11 2656.87 1883.03 2655.57 1884.28 2654.68 1885.86 2653.79 1887.44 2653.34 1889.2 2653.34 1891.15 2653.34 1893.17 2653.87 1894.95 2654.94 1896.48 2656.01 1898 2658.05 1899.81 2661.08 1901.89 2663.73 1903.72 2665.75 1905.37 2667.14 1906.81 2668.53 1908.26 2669.56 1909.79 2670.22 1911.41 2670.88 1913.03 2671.21 1914.91 2671.21 1917.04 2671.21 1920.34 2670.42 1923.26 2668.84 1925.82 2667.26 1928.37 2665.03 1930.34 2662.15 1931.73 2659.28 1933.13 2656 1933.82 2652.33 1933.82 2649.84 1933.82 2647.16 1933.62 2644.28 1933.21 2641.4 1932.81 2638.83 1932.3 2636.56 1931.67L2638.99 1920.53 2642.88 1920.53C2642.88 1923.83 2643.65 1926.28 2645.17 1927.88 2646.7 1929.49 2649.06 1930.3 2652.25 1930.3 2655.92 1930.3 2658.81 1929.3 2660.92 1927.3 2663.03 1925.3 2664.08 1922.52 2664.08 1918.95 2664.08 1917.3 2663.79 1915.85 2663.21 1914.59 2662.63 1913.34 2661.75 1912.13 2660.57 1910.98 2659.4 1909.84 2657.7 1908.52 2655.49 1907.03 2653.49 1905.68 2651.83 1904.35 2650.5 1903.04 2649.18 1901.73 2648.13 1900.27 2647.34 1898.64 2646.56 1897.02 2646.17 1895.21 2646.17 1893.21 2646.17 1890.03 2646.94 1887.22 2648.48 1884.78 2650.02 1882.35 2652.19 1880.47 2655 1879.15 2657.81 1877.83 2661.05 1877.16 2664.73 1877.16Z" fill-rule="evenodd"/><text fill="#000000" fill-opacity="0" font-family="Arial,Arial_MSFontService,sans-serif" font-size="56.6572" x="2636.56" y="1926.74">𝑆</text><path d="M0.104788-4.58214 93.3669-2.44934 93.1574 6.71493-0.104788 4.58214ZM89.2039-20.8827 134.501 3.07589 88.1561 24.9387Z" transform="matrix(1 0 0 -1 2657.5 1605.58)"/><path d="M411 2054.5C411 1994.02 459.801 1945 520 1945 580.199 1945 629 1994.02 629 2054.5 629 2114.98 580.199 2164 520 2164 459.801 2164 411 2114.98 411 2054.5Z" fill="#FDEFE8" fill-rule="evenodd"/><path d="M520.606 2028.85 526.929 2028.85 526.929 2092.28 520.606 2092.28ZM506.422 2028.85 512.744 2028.85 512.744 2092.28 506.422 2092.28Z" fill="#D74514" fill-rule="evenodd"/><text fill="#000000" fill-opacity="0" font-family="Arial,Arial_MSFontService,sans-serif" font-size="63.4253" x="506.422" y="2084.35">∥</text><path d="M629.5 2050.92 712.349 2050.92 712.349 2060.08 629.5 2060.08ZM707.766 2032.58 753.599 2055.5 707.765 2078.42Z"/><path d="M2792 1602.5C2792 1542.02 2840.8 1493 2901 1493 2961.2 1493 3010 1542.02 3010 1602.5 3010 1662.97 2961.2 1712 2901 1712 2840.8 1712 2792 1662.97 2792 1602.5Z" fill="#FDEFE8" fill-rule="evenodd"/><path d="M2901.87 1576.61 2908.2 1576.61 2908.2 1640.04 2901.87 1640.04ZM2887.69 1576.61 2894.01 1576.61 2894.01 1640.04 2887.69 1640.04Z" fill="#D74514" fill-rule="evenodd"/><text fill="#000000" fill-opacity="0" font-family="Arial,Arial_MSFontService,sans-serif" font-size="63.4253" x="2887.69" y="1632.11">∥</text><path d="M0.0192995-4.58329 51.3317-4.36722 51.2931 4.79936-0.0192995 4.58329ZM46.8256-22.7197 92.562 0.389764 46.6326 23.1132Z" transform="matrix(1 0 0 -1 3010.5 1602.89)"/><path d="M0.0209398-4.58329 92.0305-4.16292 91.9886 5.00365-0.0209398 4.58329ZM87.531-22.517 133.259 0.608825 87.3216 23.3159Z" transform="matrix(1 0 0 -1 1171.5 1603.11)"/><path d="M1304 1602C1304 1541.8 1352.8 1493 1413 1493 1473.2 1493 1522 1541.8 1522 1602 1522 1662.2 1473.2 1711 1413 1711 1352.8 1711 1304 1662.2 1304 1602Z" fill="#FDEFE8" fill-rule="evenodd"/><path d="M1396.32 1576.04 1435.68 1576.04 1432.8 1589.09 1427.61 1589.09C1427.48 1586.52 1427.23 1584.73 1426.88 1583.7 1426.53 1582.67 1425.99 1581.93 1425.26 1581.47 1424.53 1581.01 1423.5 1580.78 1422.18 1580.78L1412.01 1580.78 1407.71 1600.23 1413.35 1600.23C1414.43 1600.23 1415.34 1600.06 1416.08 1599.71 1416.82 1599.36 1417.51 1598.77 1418.15 1597.95 1418.78 1597.12 1419.41 1595.98 1420.03 1594.52L1424.49 1594.52 1420.6 1610.97 1416.43 1610.97C1416.43 1609.41 1416.33 1608.21 1416.14 1607.37 1415.95 1606.53 1415.6 1605.92 1415.09 1605.54 1414.58 1605.17 1413.7 1604.98 1412.45 1604.98L1406.7 1604.98 1401.92 1626.62 1411.04 1626.62C1412.22 1626.62 1413.15 1626.54 1413.81 1626.38 1414.47 1626.21 1415.08 1625.96 1415.64 1625.61 1416.19 1625.25 1416.83 1624.69 1417.56 1623.92 1418.29 1623.15 1419.01 1622.18 1419.73 1621.01 1420.44 1619.83 1421.18 1618.42 1421.94 1616.77L1427.45 1616.77 1423.72 1631.36 1385.18 1631.36 1385.75 1628.69C1387.29 1628.25 1388.42 1627.5 1389.15 1626.42 1389.88 1625.33 1390.57 1623.34 1391.22 1620.42L1398.59 1586.98C1398.94 1585.39 1399.12 1583.81 1399.12 1582.24 1399.12 1581.11 1398.86 1580.28 1398.33 1579.75 1397.8 1579.22 1396.95 1578.88 1395.76 1578.71Z" fill="#D74514" fill-rule="evenodd"/><text fill="#000000" fill-opacity="0" font-family="Arial,Arial_MSFontService,sans-serif" font-size="55.3198" x="1385.18" y="1624.45">𝑬</text><path d="M1393.3 1853.75 1409.51 1853.75 1409.07 1855.74C1408.04 1855.96 1407.3 1856.2 1406.86 1856.47 1406.41 1856.74 1406.01 1857.14 1405.66 1857.68 1405.31 1858.22 1404.95 1859.07 1404.57 1860.22 1404.19 1861.37 1403.72 1863.24 1403.15 1865.83L1400.27 1878.76 1401.61 1878.76C1402.74 1878.76 1403.78 1878.57 1404.71 1878.19 1405.64 1877.81 1406.73 1877.12 1407.97 1876.12 1409.21 1875.12 1411.19 1873.29 1413.91 1870.61 1416.62 1867.94 1418.56 1865.9 1419.7 1864.51 1420.85 1863.12 1421.69 1861.92 1422.22 1860.91 1422.74 1859.89 1423.01 1858.97 1423.01 1858.13 1423.01 1857.45 1422.74 1856.91 1422.2 1856.49 1421.66 1856.07 1420.89 1855.82 1419.89 1855.74L1420.33 1853.75 1437.72 1853.75 1437.27 1855.74C1436.19 1855.9 1434.97 1856.46 1433.61 1857.42 1432.24 1858.38 1430.15 1860.25 1427.34 1863.03L1411.62 1878.35 1420.25 1899.1C1421.14 1901.24 1421.88 1902.78 1422.46 1903.72 1423.04 1904.67 1423.74 1905.42 1424.55 1905.97 1425.36 1906.53 1426.36 1906.9 1427.55 1907.09L1427.1 1909.07 1411.46 1909.07 1411.9 1907.09C1413.36 1906.95 1414.09 1906.3 1414.09 1905.14 1414.09 1904.41 1413.94 1903.58 1413.65 1902.65 1413.35 1901.72 1413 1900.75 1412.59 1899.75L1407.32 1886.86C1406.7 1885.32 1406.16 1884.24 1405.7 1883.62 1405.24 1883 1404.76 1882.57 1404.24 1882.33 1403.73 1882.08 1402.93 1881.96 1401.85 1881.96L1399.58 1881.96 1396.22 1897.28C1395.87 1898.9 1395.64 1900.18 1395.53 1901.11 1395.42 1902.04 1395.37 1902.87 1395.37 1903.6 1395.37 1904.82 1395.67 1905.68 1396.28 1906.18 1396.89 1906.68 1397.91 1906.98 1399.34 1907.09L1398.89 1909.07 1382.68 1909.07 1383.13 1907.09C1384.16 1906.93 1384.93 1906.66 1385.44 1906.3 1385.95 1905.93 1386.38 1905.43 1386.74 1904.78 1387.09 1904.13 1387.41 1903.34 1387.71 1902.41 1388.01 1901.47 1388.45 1899.67 1389.05 1897L1395.94 1865.79C1396.53 1863.09 1396.83 1860.91 1396.83 1859.27 1396.83 1858 1396.51 1857.11 1395.87 1856.61 1395.24 1856.11 1394.23 1855.82 1392.86 1855.74Z" fill-rule="evenodd"/><text fill="#000000" fill-opacity="0" font-family="Arial,Arial_MSFontService,sans-serif" font-size="55.3198" x="1382.68" y="1902.16">𝐾</text><path d="M4.58333-1.64008e-05 4.58355 59.6042-4.58312 59.6043-4.58333 1.64008e-05ZM22.9169 55.0209 0.000360892 100.854-22.9165 55.021Z" transform="matrix(1 0 0 -1 1411.5 1813.35)"/><path d="M1522.5 1597.92 1665.81 1597.92 1665.81 1607.08 1522.5 1607.08ZM1661.23 1579.58 1707.06 1602.5 1661.23 1625.42Z"/><path d="M2088 1602C2088 1541.8 2136.8 1493 2197 1493 2257.2 1493 2306 1541.8 2306 1602 2306 1662.2 2257.2 1711 2197 1711 2136.8 1711 2088 1662.2 2088 1602Z" fill="#FDEFE8" fill-rule="evenodd"/><path d="M2194.91 1580.78C2193.55 1580.78 2192.51 1580.81 2191.78 1580.86L2181.77 1626.42C2183.02 1626.52 2184.02 1626.58 2184.77 1626.58 2188.26 1626.58 2191.26 1625.89 2193.79 1624.51 2196.32 1623.13 2198.56 1621.03 2200.52 1618.21 2202.48 1615.39 2204.02 1611.94 2205.14 1607.87 2206.26 1603.81 2206.82 1599.72 2206.82 1595.61 2206.82 1592.83 2206.51 1590.49 2205.89 1588.6 2205.27 1586.71 2204.41 1585.19 2203.31 1584.02 2202.22 1582.86 2200.95 1582.03 2199.51 1581.53 2198.06 1581.03 2196.53 1580.78 2194.91 1580.78ZM2176.14 1576.04 2192.55 1576.04C2197.01 1576.04 2200.58 1576.28 2203.25 1576.77 2205.69 1577.2 2207.91 1577.94 2209.92 1579 2211.93 1580.05 2213.52 1581.21 2214.68 1582.48 2216.17 1584.05 2217.34 1586.02 2218.19 1588.38 2219.04 1590.74 2219.47 1593.52 2219.47 1596.71 2219.47 1600.3 2219.06 1603.75 2218.25 1607.04 2217.44 1610.34 2216.24 1613.39 2214.66 1616.18 2213.08 1618.98 2211.19 1621.38 2208.99 1623.4 2206.79 1625.41 2204.58 1626.98 2202.36 1628.1 2200.15 1629.22 2197.65 1630.04 2194.86 1630.57 2192.08 1631.1 2188.79 1631.36 2184.98 1631.36L2165 1631.36 2165.56 1628.69C2167.1 1628.25 2168.24 1627.5 2168.97 1626.42 2169.7 1625.33 2170.39 1623.34 2171.03 1620.42L2178.41 1586.98C2178.76 1585.39 2178.94 1583.81 2178.94 1582.24 2178.94 1581.11 2178.67 1580.28 2178.15 1579.75 2177.62 1579.22 2176.76 1578.88 2175.57 1578.71Z" fill="#D74514" fill-rule="evenodd"/><text fill="#000000" fill-opacity="0" font-family="Arial,Arial_MSFontService,sans-serif" font-size="55.3198" x="2165" y="1624.45">𝑫</text><path d="M4.58333-1.64007e-05 4.58355 59.6046-4.58312 59.6046-4.58333 1.64007e-05ZM22.9169 55.0212 0.000360892 100.855-22.9165 55.0214Z" transform="matrix(1 0 0 -1 2197.5 1812.35)"/><rect x="1707" y="1374" width="237" height="459" fill="#D74514"/><path d="M1464.05 1976.48 1501.34 1976.48 1498.54 1988.93 1494.65 1988.93C1494.54 1986.58 1494.34 1984.81 1494.04 1983.62 1493.74 1982.43 1493.39 1981.61 1492.97 1981.17 1492.55 1980.72 1492.05 1980.42 1491.47 1980.27 1490.89 1980.12 1490.06 1980.05 1488.98 1980.05L1475.76 1980.05 1471.14 2001.29 1478.88 2001.29C1480.8 2001.29 1482.27 2000.83 1483.28 1999.93 1484.29 1999.02 1485.31 1997.53 1486.34 1995.45L1490.03 1995.45 1486.38 2011.01 1482.94 2011.01C1482.94 2008.85 1482.8 2007.39 1482.53 2006.62 1482.26 2005.85 1481.86 2005.36 1481.34 2005.16 1480.81 2004.95 1479.86 2004.85 1478.48 2004.85L1470.37 2004.85 1465.19 2028.24 1477.18 2028.24C1478.78 2028.24 1480.04 2028.08 1480.97 2027.75 1481.9 2027.43 1482.78 2026.9 1483.61 2026.17 1484.43 2025.44 1485.25 2024.42 1486.08 2023.11 1486.9 2021.8 1487.88 2020.02 1489.02 2017.78L1492.95 2017.78 1489.38 2031.8 1453.43 2031.8 1453.88 2029.82C1454.91 2029.66 1455.68 2029.39 1456.19 2029.03 1456.7 2028.66 1457.13 2028.16 1457.49 2027.51 1457.84 2026.86 1458.16 2026.07 1458.46 2025.14 1458.76 2024.21 1459.2 2022.4 1459.8 2019.73L1466.69 1988.52C1467.28 1985.82 1467.58 1983.64 1467.58 1982 1467.58 1980.73 1467.26 1979.84 1466.62 1979.34 1465.99 1978.84 1464.98 1978.55 1463.6 1978.47Z" fill="#D74514" fill-rule="evenodd"/><text fill="#000000" fill-opacity="0" font-family="Arial,Arial_MSFontService,sans-serif" font-size="55.3198" x="1453.43" y="2024.89">𝐸</text><path d="M1507.58 2010.02 1520.15 2010.02 1519.83 2011.8C1519.37 2011.92 1518.98 2012.02 1518.67 2012.1 1518.35 2012.18 1518.06 2012.3 1517.82 2012.46 1517.57 2012.62 1517.35 2012.83 1517.18 2013.1 1517 2013.37 1516.82 2013.73 1516.65 2014.2 1516.49 2014.67 1516.31 2015.25 1516.12 2015.96 1515.93 2016.66 1515.72 2017.53 1515.48 2018.56L1513.54 2027.32 1514.38 2027.32C1514.83 2027.32 1515.25 2027.29 1515.63 2027.23 1516 2027.17 1516.38 2027.07 1516.74 2026.92 1517.11 2026.77 1517.49 2026.57 1517.88 2026.31 1518.26 2026.05 1518.7 2025.72 1519.2 2025.33 1521.27 2023.72 1522.99 2022.28 1524.38 2021.01 1525.77 2019.74 1526.9 2018.61 1527.76 2017.64 1528.63 2016.67 1529.24 2015.84 1529.61 2015.15 1529.98 2014.47 1530.16 2013.9 1530.16 2013.44 1530.16 2012.97 1529.97 2012.59 1529.6 2012.32 1529.22 2012.06 1528.6 2011.91 1527.75 2011.89L1528.08 2010.02 1541.63 2010.02 1541.21 2011.89C1540.76 2011.93 1540.32 2012.02 1539.92 2012.16 1539.51 2012.3 1539.04 2012.55 1538.5 2012.92 1537.97 2013.29 1537.33 2013.79 1536.58 2014.44 1535.84 2015.08 1534.9 2015.92 1533.77 2016.96L1522.15 2027.44 1528.88 2041.44C1529.4 2042.53 1529.84 2043.4 1530.22 2044.03 1530.6 2044.67 1530.99 2045.17 1531.38 2045.55 1531.78 2045.93 1532.23 2046.2 1532.74 2046.37 1533.24 2046.54 1533.88 2046.69 1534.63 2046.83L1534.15 2048.65 1521.88 2048.65 1522.3 2046.83C1522.85 2046.79 1523.27 2046.67 1523.55 2046.46 1523.83 2046.25 1523.97 2045.99 1523.97 2045.67 1523.95 2045.45 1523.92 2045.22 1523.88 2044.98 1523.84 2044.75 1523.77 2044.48 1523.67 2044.19 1523.57 2043.91 1523.44 2043.57 1523.28 2043.18 1523.12 2042.79 1522.92 2042.33 1522.69 2041.8L1518.69 2033.28C1518.36 2032.52 1518.05 2031.93 1517.79 2031.49 1517.52 2031.05 1517.24 2030.72 1516.95 2030.48 1516.66 2030.24 1516.34 2030.09 1515.97 2030.02 1515.6 2029.95 1515.14 2029.91 1514.58 2029.91L1512.95 2029.91C1512.79 2030.73 1512.6 2031.6 1512.38 2032.53 1512.16 2033.47 1511.94 2034.42 1511.73 2035.38 1511.51 2036.34 1511.3 2037.29 1511.1 2038.22 1510.9 2039.16 1510.72 2040.02 1510.56 2040.83 1510.4 2041.63 1510.28 2042.35 1510.18 2042.97 1510.08 2043.6 1510.03 2044.08 1510.03 2044.42 1510.03 2045.25 1510.27 2045.84 1510.76 2046.19 1511.24 2046.54 1512.07 2046.75 1513.24 2046.83L1512.77 2048.65 1500.23 2048.65 1500.56 2046.83C1501.17 2046.73 1501.67 2046.62 1502.06 2046.49 1502.45 2046.36 1502.79 2046.08 1503.1 2045.65 1503.41 2045.23 1503.69 2044.59 1503.95 2043.73 1504.21 2042.88 1504.51 2041.67 1504.84 2040.1L1509.73 2018.39C1509.93 2017.51 1510.08 2016.74 1510.18 2016.06 1510.28 2015.39 1510.33 2014.81 1510.33 2014.34 1510.33 2013.46 1510.1 2012.84 1509.64 2012.47 1509.18 2012.11 1508.35 2011.91 1507.14 2011.89Z" fill="#D74514" fill-rule="evenodd"/><text fill="#000000" fill-opacity="0" font-family="Arial,Arial_MSFontService,sans-serif" font-size="38.6313" x="1500.23" y="2043.82">𝐾</text><path d="M2103.9 1969.48 2121.98 1969.48 2121.98 2046.77 2103.9 2046.77 2103.9 2043.65 2115.25 2043.65 2115.25 1972.6 2103.9 1972.6ZM1556.27 1969.48 1574.34 1969.48 1574.34 1972.6 1563 1972.6 1563 2043.65 1574.34 2043.65 1574.34 2046.77 1556.27 2046.77Z" fill="#D74514" fill-rule="evenodd"/><path d="M1588.75 1976.48 1603.22 1976.48 1607.84 2015.8 1631.47 1976.48 1644.23 1976.48 1643.79 1978.47C1642.76 1978.69 1642.02 1978.93 1641.58 1979.2 1641.13 1979.47 1640.73 1979.87 1640.36 1980.42 1640 1980.96 1639.63 1981.8 1639.27 1982.95 1638.9 1984.1 1638.44 1985.97 1637.87 1988.56L1630.94 2020.01C1630.59 2021.6 1630.36 2022.87 1630.25 2023.8 1630.14 2024.73 1630.09 2025.58 1630.09 2026.33 1630.09 2027.55 1630.39 2028.41 1631 2028.91 1631.61 2029.41 1632.63 2029.71 1634.06 2029.82L1633.61 2031.8 1617.4 2031.8 1617.85 2029.82C1618.88 2029.66 1619.65 2029.39 1620.16 2029.03 1620.67 2028.66 1621.11 2028.16 1621.46 2027.51 1621.81 2026.86 1622.13 2026.07 1622.43 2025.14 1622.73 2024.21 1623.17 2022.4 1623.77 2019.73L1629.16 1995.29C1629.91 1991.91 1630.78 1988.55 1631.75 1985.2L1631.18 1985.2C1630.35 1986.79 1628.45 1990.03 1625.51 1994.92L1607.07 2025.36 1602.65 2025.36 1599.29 1999.3C1598.8 1995.63 1598.26 1990.68 1597.67 1984.47L1596.86 1984.47C1595.94 1990.52 1594.91 1996.13 1593.78 2001.29L1589.64 2020.01C1589.08 2022.58 1588.79 2024.68 1588.79 2026.33 1588.79 2027.55 1589.1 2028.41 1589.7 2028.91 1590.31 2029.41 1591.33 2029.71 1592.76 2029.82L1592.32 2031.8 1578.13 2031.8 1578.58 2029.82C1579.61 2029.66 1580.38 2029.39 1580.89 2029.03 1581.4 2028.66 1581.83 2028.16 1582.19 2027.51 1582.54 2026.86 1582.86 2026.07 1583.16 2025.14 1583.46 2024.21 1583.9 2022.4 1584.5 2019.73L1591.39 1988.52C1591.66 1987.36 1591.87 1986.25 1592.03 1985.2 1592.2 1984.14 1592.28 1983.08 1592.28 1982 1592.28 1980.73 1591.96 1979.84 1591.32 1979.34 1590.69 1978.84 1589.68 1978.55 1588.31 1978.47Z" fill="#D74514" fill-rule="evenodd"/><text fill="#000000" fill-opacity="0" font-family="Arial,Arial_MSFontService,sans-serif" font-size="55.3198" x="1578.13" y="2024.89">𝑀</text><path d="M1712.82 1976.48 1719.14 1976.48 1719.14 2039.91 1712.82 2039.91ZM1698.64 1976.48 1704.96 1976.48 1704.96 2039.91 1698.64 2039.91Z" fill="#D74514" fill-rule="evenodd"/><text fill="#000000" fill-opacity="0" font-family="Arial,Arial_MSFontService,sans-serif" font-size="63.4253" x="1698.64" y="2031.98">∥</text><path d="M1763.87 1976.48 1780.08 1976.48 1779.63 1978.47C1778.61 1978.69 1777.87 1978.93 1777.43 1979.2 1776.98 1979.47 1776.58 1979.87 1776.23 1980.42 1775.88 1980.96 1775.51 1981.8 1775.14 1982.95 1774.76 1984.1 1774.29 1985.97 1773.72 1988.56L1770.96 2000.96 1792.72 2000.96 1795.48 1988.52C1795.72 1987.41 1795.93 1986.23 1796.11 1984.97 1796.28 1983.72 1796.37 1982.73 1796.37 1982 1796.37 1980.73 1796.05 1979.84 1795.42 1979.34 1794.79 1978.84 1793.78 1978.55 1792.4 1978.47L1792.85 1976.48 1809.06 1976.48 1808.61 1978.47C1807.58 1978.69 1806.85 1978.93 1806.4 1979.2 1805.96 1979.47 1805.56 1979.87 1805.21 1980.42 1804.86 1980.96 1804.49 1981.8 1804.11 1982.95 1803.73 1984.1 1803.26 1985.97 1802.69 1988.56L1795.76 2020.01C1795.41 2021.6 1795.18 2022.87 1795.08 2023.8 1794.97 2024.73 1794.91 2025.58 1794.91 2026.33 1794.91 2027.55 1795.22 2028.41 1795.83 2028.91 1796.43 2029.41 1797.45 2029.71 1798.89 2029.82L1798.44 2031.8 1782.23 2031.8 1782.67 2029.82C1783.7 2029.66 1784.47 2029.39 1784.98 2029.03 1785.5 2028.66 1785.93 2028.16 1786.28 2027.51 1786.63 2026.86 1786.96 2026.07 1787.25 2025.14 1787.55 2024.21 1788 2022.4 1788.59 2019.73L1791.91 2004.69 1770.15 2004.69 1766.79 2020.01C1766.49 2021.36 1766.27 2022.48 1766.14 2023.35 1766 2024.23 1765.94 2025.22 1765.94 2026.33 1765.94 2027.49 1766.21 2028.33 1766.75 2028.85 1767.29 2029.36 1768.34 2029.68 1769.91 2029.82L1769.46 2031.8 1753.25 2031.8 1753.7 2029.82C1754.72 2029.66 1755.49 2029.39 1756.01 2029.03 1756.52 2028.66 1756.95 2028.16 1757.3 2027.51 1757.66 2026.86 1757.98 2026.07 1758.28 2025.14 1758.57 2024.21 1759.02 2022.4 1759.61 2019.73L1766.5 1988.52C1766.75 1987.41 1766.96 1986.23 1767.13 1984.97 1767.31 1983.72 1767.4 1982.73 1767.4 1982 1767.4 1980.73 1767.08 1979.84 1766.44 1979.34 1765.81 1978.84 1764.8 1978.55 1763.42 1978.47Z" fill="#D74514" fill-rule="evenodd"/><text fill="#000000" fill-opacity="0" font-family="Arial,Arial_MSFontService,sans-serif" font-size="55.3198" x="1753.25" y="2024.89">𝐻</text><path d="M2070.56 1969.69C2078.45 1971.77 2084.51 1976.26 2088.74 1983.17 2092.96 1990.07 2095.08 1998.4 2095.08 2008.15 2095.08 2017.93 2092.97 2026.26 2088.76 2033.14 2084.54 2040.01 2078.48 2044.49 2070.56 2046.57L2069.59 2043.45C2075.83 2041.37 2080.47 2037.26 2083.51 2031.13 2086.55 2025 2088.07 2017.2 2088.07 2007.74 2088.07 1998.61 2086.55 1991.03 2083.53 1984.99 2080.5 1978.95 2075.81 1974.89 2069.46 1972.81ZM1845.32 1969.69 1846.41 1972.81C1840.09 1974.89 1835.41 1978.95 1832.37 1984.99 1829.33 1991.03 1827.81 1998.61 1827.81 2007.74 1827.81 2017.2 1829.33 2025 1832.37 2031.13 1835.41 2037.26 1840.05 2041.37 1846.29 2043.45L1845.32 2046.57C1837.4 2044.49 1831.34 2040.01 1827.12 2033.14 1822.91 2026.26 1820.8 2017.93 1820.8 2008.15 1820.8 1998.4 1822.91 1990.07 1827.14 1983.17 1831.37 1976.26 1837.43 1971.77 1845.32 1969.69Z" fill="#D74514" fill-rule="evenodd"/><path d="M1860.59 1976.48 1875.06 1976.48 1879.68 2015.8 1903.3 1976.48 1916.07 1976.48 1915.62 1978.47C1914.6 1978.69 1913.86 1978.93 1913.42 1979.2 1912.97 1979.47 1912.56 1979.87 1912.2 1980.42 1911.84 1980.96 1911.47 1981.8 1911.11 1982.95 1910.74 1984.1 1910.28 1985.97 1909.71 1988.56L1902.78 2020.01C1902.43 2021.6 1902.2 2022.87 1902.09 2023.8 1901.98 2024.73 1901.93 2025.58 1901.93 2026.33 1901.93 2027.55 1902.23 2028.41 1902.84 2028.91 1903.45 2029.41 1904.47 2029.71 1905.9 2029.82L1905.45 2031.8 1889.24 2031.8 1889.69 2029.82C1890.71 2029.66 1891.48 2029.39 1892 2029.03 1892.51 2028.66 1892.94 2028.16 1893.29 2027.51 1893.65 2026.86 1893.97 2026.07 1894.27 2025.14 1894.56 2024.21 1895.01 2022.4 1895.6 2019.73L1900.99 1995.29C1901.75 1991.91 1902.62 1988.55 1903.59 1985.2L1903.02 1985.2C1902.18 1986.79 1900.29 1990.03 1897.35 1994.92L1878.91 2025.36 1874.49 2025.36 1871.13 1999.3C1870.64 1995.63 1870.1 1990.68 1869.5 1984.47L1868.69 1984.47C1867.78 1990.52 1866.75 1996.13 1865.61 2001.29L1861.48 2020.01C1860.91 2022.58 1860.63 2024.68 1860.63 2026.33 1860.63 2027.55 1860.93 2028.41 1861.54 2028.91 1862.15 2029.41 1863.17 2029.71 1864.6 2029.82L1864.15 2031.8 1849.97 2031.8 1850.42 2029.82C1851.44 2029.66 1852.21 2029.39 1852.73 2029.03 1853.24 2028.66 1853.67 2028.16 1854.02 2027.51 1854.37 2026.86 1854.7 2026.07 1855 2025.14 1855.29 2024.21 1855.74 2022.4 1856.33 2019.73L1863.22 1988.52C1863.49 1987.36 1863.71 1986.25 1863.87 1985.2 1864.03 1984.14 1864.11 1983.08 1864.11 1982 1864.11 1980.73 1863.8 1979.84 1863.16 1979.34 1862.53 1978.84 1861.52 1978.55 1860.14 1978.47Z" fill="#D74514" fill-rule="evenodd"/><text fill="#000000" fill-opacity="0" font-family="Arial,Arial_MSFontService,sans-serif" font-size="55.3198" x="1849.97" y="2024.89">𝑀</text><path d="M1984.66 1976.48 1990.98 1976.48 1990.98 2039.91 1984.66 2039.91ZM1970.47 1976.48 1976.8 1976.48 1976.8 2039.91 1970.47 2039.91Z" fill="#D74514" fill-rule="evenodd"/><text fill="#000000" fill-opacity="0" font-family="Arial,Arial_MSFontService,sans-serif" font-size="63.4253" x="1970.47" y="2031.98">∥</text><path d="M2051.55 1975.84C2054.04 1975.84 2056.34 1976 2058.46 1976.34 2060.58 1976.68 2062.93 1977.25 2065.49 1978.06L2063.23 1988.48 2059.33 1988.48C2059.23 1986.18 2058.88 1984.38 2058.28 1983.07 2057.69 1981.76 2056.84 1980.82 2055.73 1980.25 2054.62 1979.69 2053.15 1979.4 2051.31 1979.4 2049.07 1979.4 2047.1 1979.86 2045.39 1980.78 2043.69 1981.7 2042.39 1982.95 2041.5 1984.53 2040.61 1986.11 2040.17 1987.87 2040.17 1989.82 2040.17 1991.84 2040.7 1993.62 2041.77 1995.15 2042.83 1996.67 2044.88 1998.48 2047.91 2000.56 2050.55 2002.39 2052.57 2004.04 2053.96 2005.48 2055.36 2006.93 2056.38 2008.46 2057.04 2010.08 2057.71 2011.7 2058.04 2013.58 2058.04 2015.71 2058.04 2019.01 2057.25 2021.94 2055.67 2024.49 2054.09 2027.04 2051.86 2029.01 2048.98 2030.41 2046.1 2031.8 2042.83 2032.49 2039.15 2032.49 2036.67 2032.49 2033.98 2032.29 2031.11 2031.89 2028.23 2031.48 2025.66 2030.97 2023.39 2030.34L2025.82 2019.2 2029.71 2019.2C2029.71 2022.5 2030.47 2024.95 2032 2026.56 2033.53 2028.16 2035.88 2028.97 2039.07 2028.97 2042.75 2028.97 2045.64 2027.97 2047.74 2025.97 2049.85 2023.97 2050.9 2021.19 2050.9 2017.62 2050.9 2015.97 2050.61 2014.52 2050.03 2013.26 2049.45 2012.01 2048.57 2010.8 2047.4 2009.66 2046.22 2008.51 2044.53 2007.19 2042.31 2005.7 2040.31 2004.35 2038.65 2003.02 2037.33 2001.71 2036 2000.4 2034.95 1998.94 2034.17 1997.32 2033.38 1995.69 2032.99 1993.88 2032.99 1991.88 2032.99 1988.7 2033.76 1985.89 2035.3 1983.45 2036.84 1981.02 2039.02 1979.15 2041.83 1977.82 2044.64 1976.5 2047.88 1975.84 2051.55 1975.84Z" fill="#D74514" fill-rule="evenodd"/><text fill="#000000" fill-opacity="0" font-family="Arial,Arial_MSFontService,sans-serif" font-size="56.6572" x="2023.39" y="2025.41">𝑆</text><path d="M2182.62 1853.75 2198.83 1853.75 2198.38 1855.74C2197.35 1855.96 2196.62 1856.2 2196.17 1856.47 2195.73 1856.74 2195.33 1857.14 2194.98 1857.68 2194.62 1858.22 2194.26 1859.07 2193.88 1860.22 2193.5 1861.37 2193.03 1863.24 2192.46 1865.83L2189.59 1878.76 2190.92 1878.76C2192.06 1878.76 2193.09 1878.57 2194.02 1878.19 2194.96 1877.81 2196.04 1877.12 2197.29 1876.12 2198.53 1875.12 2200.51 1873.29 2203.22 1870.61 2205.94 1867.94 2207.87 1865.9 2209.02 1864.51 2210.17 1863.12 2211 1861.92 2211.53 1860.91 2212.06 1859.89 2212.32 1858.97 2212.32 1858.13 2212.32 1857.45 2212.05 1856.91 2211.51 1856.49 2210.97 1856.07 2210.2 1855.82 2209.2 1855.74L2209.65 1853.75 2227.03 1853.75 2226.59 1855.74C2225.51 1855.9 2224.28 1856.46 2222.92 1857.42 2221.56 1858.38 2219.47 1860.25 2216.66 1863.03L2200.93 1878.35 2209.57 1899.1C2210.46 1901.24 2211.19 1902.78 2211.77 1903.72 2212.36 1904.67 2213.05 1905.42 2213.86 1905.97 2214.67 1906.53 2215.67 1906.9 2216.86 1907.09L2216.42 1909.07 2200.77 1909.07 2201.22 1907.09C2202.68 1906.95 2203.41 1906.3 2203.41 1905.14 2203.41 1904.41 2203.26 1903.58 2202.96 1902.65 2202.66 1901.72 2202.31 1900.75 2201.91 1899.75L2196.64 1886.86C2196.02 1885.32 2195.48 1884.24 2195.02 1883.62 2194.56 1883 2194.07 1882.57 2193.56 1882.33 2193.04 1882.08 2192.25 1881.96 2191.17 1881.96L2188.9 1881.96 2185.53 1897.28C2185.18 1898.9 2184.95 1900.18 2184.84 1901.11 2184.74 1902.04 2184.68 1902.87 2184.68 1903.6 2184.68 1904.82 2184.99 1905.68 2185.59 1906.18 2186.2 1906.68 2187.22 1906.98 2188.65 1907.09L2188.21 1909.07 2172 1909.07 2172.44 1907.09C2173.47 1906.93 2174.24 1906.66 2174.75 1906.3 2175.27 1905.93 2175.7 1905.43 2176.05 1904.78 2176.4 1904.13 2176.73 1903.34 2177.02 1902.41 2177.32 1901.47 2177.77 1899.67 2178.36 1897L2185.25 1865.79C2185.84 1863.09 2186.14 1860.91 2186.14 1859.27 2186.14 1858 2185.82 1857.11 2185.19 1856.61 2184.55 1856.11 2183.55 1855.82 2182.17 1855.74Z" fill-rule="evenodd"/><text fill="#000000" fill-opacity="0" font-family="Arial,Arial_MSFontService,sans-serif" font-size="55.3198" x="2172" y="1902.16">𝐾</text><path d="M0.0506546-4.58305 102.506-3.45066 102.405 5.71545-0.0506546 4.58305ZM98.1254-21.8335 143.703 1.58829 97.6189 23.997Z" transform="matrix(1 0 0 -1 1944.5 1604.09)"/><path d="M2306.5 1597.92 2379.45 1597.92 2379.45 1607.08 2306.5 1607.08ZM2374.86 1579.58 2420.7 1602.5 2374.86 1625.42Z"/></g></svg>