<svg xmlns="http://www.w3.org/2000/svg" width="2232" height="2350" overflow="hidden"><defs><clipPath id="a"><path d="M534 0h2232v2350H534z"/></clipPath></defs><g clip-path="url(#a)" transform="translate(-534)"><path fill="#d74514" d="M704 547h433v325H704z"/><text fill="#fff" font-family="Microsoft YaHei,Microsoft YaHei_MSFontService,sans-serif" font-size="83" font-weight="700" transform="translate(839.322 690)">DES<tspan x="-1.444" y="99">ε ε―†</tspan></text><path fill="none" stroke="#d74514" stroke-miterlimit="8" stroke-width="9.167" d="M845.5 341.5c0-40.869 33.131-74 74-74s74 33.131 74 74-33.131 74-74 74-74-33.131-74-74Zm148.13 0H845.501m73.999 74.129V267.5"/><path d="m924.083 415.464.724 91.07-9.166.073-.724-91.07Zm19.02 86.341-22.551 46.014-23.281-45.65Z"/><path fill-rule="evenodd" d="M897.627 44.559q-2.513 0-5.268.121l-5.512 24.56h4.215q4.904 0 7.923-1.014 3.02-1.013 4.944-3.14 1.926-2.128 2.979-5.046t1.054-6.403q0-4.702-2.391-6.89t-7.944-2.188m-16.981-3.567h17.873q4.822 0 7.923.75t5.106 2.31a9.56 9.56 0 0 1 2.999 3.951q.993 2.391.993 5.553 0 6.078-2.877 10.537-2.877 4.458-7.802 6.565-4.923 2.108-11.813 2.108-4.134 0-6.89-.163l-2.594 11.915a48 48 0 0 0-.506 2.554 32 32 0 0 0-.243 1.925 19 19 0 0 0-.102 1.844q0 1.256.405 1.965.406.71 1.216 1.034.811.324 2.797.486l-.446 1.986h-16.657l.446-1.986q1.54-.243 2.31-.79.77-.548 1.297-1.52.526-.973.973-2.37.446-1.4 1.337-5.411l6.89-31.206q.891-4.053.891-6.404 0-1.986-.932-2.755-.932-.77-3.039-.892Z"/><text x="870.028" y="89.397" fill-opacity="0" font-family="Arial,Arial_MSFontService,sans-serif" font-size="55.32">π‘ƒ</text><path fill-rule="evenodd" d="M928.042 74.792h1.817a220 220 0 0 0-.134 5.451q-.015 1.22-.015 2.413v22.636q0 .924.059 1.594.06.67.194 1.132t.357.789.522.566q.357.357.953.551.595.193 1.519.328.923.133 2.219.208t3.112.104v2.592h-23.619v-2.592q1.757-.059 2.978-.134a23 23 0 0 0 2.085-.208 10 10 0 0 0 1.385-.298q.522-.163.909-.402.417-.268.714-.581.298-.313.477-.789.178-.477.283-1.162.104-.686.104-1.698V83.936q0-1.161-.447-1.638-.446-.476-1.28-.476-.923 0-2.741.953-1.816.952-4.706 2.83a22 22 0 0 1-.714-1.37 96 96 0 0 0-.685-1.4q3.693-2.025 7.312-4.036t7.342-4.007"/><text x="913.388" y="108.36" fill-opacity="0" font-family="Arial,Arial_MSFontService,sans-serif" font-size="38.363">1</text><path d="m924.083 134.5.001 91.727h-9.167V134.5Zm18.334 87.144L919.5 267.477l-22.916-45.833Z"/><path fill-rule="evenodd" d="M901.05 1089.74c2.458 0 4.735.15 6.828.44 2.094.3 4.425.84 6.991 1.63l-2.431 10.98h-3.891q-.324-4.98-2.168-7.2c-1.229-1.47-3.208-2.2-5.937-2.2-3.729 0-7.194 1.86-10.396 5.59-3.201 3.73-5.734 8.65-7.598 14.77q-2.797 9.18-2.797 17.04c0 4.11.73 7.14 2.189 9.08 1.459 1.95 3.701 2.92 6.727 2.92 2.027 0 3.796-.31 5.309-.91 1.513-.61 2.932-1.64 4.256-3.08q1.986-2.175 3.931-6.06h3.89l-2.472 11.51c-5.052 1.4-10.348 2.11-15.886 2.11q-7.62 0-11.591-4.38-3.972-4.38-3.972-12.81 0-5.955 2.128-13.74c1.418-5.18 3.424-9.74 6.018-13.65 2.594-3.92 5.66-6.91 9.2-8.96s7.43-3.08 11.672-3.08"/><text x="872.032" y="1139.28" fill-opacity="0" font-family="Arial,Arial_MSFontService,sans-serif" font-size="56.617">π¶</text><path fill-rule="evenodd" d="M929.199 1124.19h1.817a219 219 0 0 0-.149 7.86v22.64q0 .915.06 1.59c.039.45.104.82.193 1.13s.209.57.358.79q.223.33.521.57c.238.24.556.42.953.55q.596.195 1.519.33c.616.09 1.355.16 2.219.2.864.05 1.901.09 3.113.11v2.59h-23.62v-2.59c1.172-.04 2.164-.09 2.979-.13a23 23 0 0 0 2.085-.21 10 10 0 0 0 1.385-.3c.347-.11.65-.24.908-.4.278-.18.516-.38.715-.58.198-.21.357-.48.476-.79.12-.32.214-.71.283-1.16.07-.46.105-1.03.105-1.7v-21.36c0-.77-.149-1.32-.447-1.64-.298-.31-.725-.47-1.281-.47-.615 0-1.529.31-2.74.95s-2.78 1.58-4.706 2.83c-.258-.46-.497-.91-.715-1.37a98 98 0 0 0-.685-1.4c2.462-1.35 4.9-2.7 7.312-4.04s4.86-2.67 7.342-4"/><text x="914.545" y="1157.76" fill-opacity="0" font-family="Arial,Arial_MSFontService,sans-serif" font-size="38.363">1</text><path d="m915.969 872.473-.807 135.667 9.167.055.806-135.668Zm-19.113 130.975 22.644 45.969 23.189-45.697ZM615.5 705.917h48.125v9.167l-48.125-.001Zm43.542-18.333 45.833 22.916-45.833 22.917Z"/><path fill-rule="evenodd" d="M544.789 683.944H561l-.446 1.986q-1.54.324-2.209.729-.668.405-1.195 1.216t-1.094 2.533-1.419 5.613l-2.877 12.928h1.337q1.702 0 3.1-.567t3.263-2.067 5.937-5.512 5.796-6.099q1.722-2.088 2.512-3.607t.791-2.776q0-1.014-.811-1.642-.81-.627-2.31-.749l.446-1.986h17.386l-.446 1.986q-1.621.242-3.668 1.682-2.046 1.438-6.261 5.613l-15.725 15.319 8.633 20.75q1.337 3.201 2.208 4.62.872 1.418 2.088 2.249 1.215.831 2.999 1.115l-.446 1.986h-15.644l.446-1.986q2.189-.203 2.189-1.945 0-1.095-.446-2.493a41 41 0 0 0-1.054-2.898l-5.269-12.887q-.931-2.31-1.621-3.243-.688-.931-1.459-1.296-.77-.365-2.391-.365h-2.269l-3.364 15.319q-.527 2.432-.689 3.83a22 22 0 0 0-.162 2.492q0 1.824.912 2.574t3.06.912l-.446 1.986h-16.211l.446-1.986q1.539-.244 2.31-.79.77-.548 1.297-1.52.527-.973.972-2.371.446-1.399 1.338-5.41l6.889-31.207q.892-4.052.892-6.524 0-1.905-.953-2.655-.952-.75-3.019-.871Z"/><text x="534.171" y="732.349" fill-opacity="0" font-family="Arial,Arial_MSFontService,sans-serif" font-size="55.32">πΎ</text><path fill="#d74514" d="M1379 547h432v325h-432z"/><text fill="#fff" font-family="Microsoft YaHei,Microsoft YaHei_MSFontService,sans-serif" font-size="83" font-weight="700" transform="translate(1513.95 690)">DES<tspan x="-1.444" y="99">ε ε―†</tspan></text><path fill="none" stroke="#d74514" stroke-miterlimit="8" stroke-width="9.167" d="M1520.5 341.5c0-40.869 33.13-74 74-74s74 33.131 74 74-33.13 74-74 74-74-33.131-74-74Zm148.13 0h-148.129m73.999 74.129V267.5"/><path d="m1599.08 415.464.73 91.07-9.17.073-.72-91.07Zm19.02 86.341-22.55 46.014-23.28-45.65Z"/><path fill-rule="evenodd" d="M1571.3 44.559c-1.68 0-3.43.04-5.27.121l-5.51 24.56h4.21c3.27 0 5.91-.338 7.93-1.014 2.01-.675 3.66-1.722 4.94-3.14 1.29-1.419 2.28-3.1 2.98-5.046q1.05-2.918 1.05-6.403c0-3.135-.79-5.431-2.39-6.89-1.59-1.459-4.24-2.188-7.94-2.188m-16.98-3.567h17.87q4.83 0 7.92.75c2.07.5 3.77 1.27 5.11 2.31a9.5 9.5 0 0 1 3 3.951q.99 2.391.99 5.553c0 4.052-.96 7.565-2.87 10.537-1.92 2.972-4.52 5.16-7.81 6.565-3.28 1.405-7.22 2.108-11.81 2.108-2.76 0-5.05-.055-6.89-.163l-2.59 11.915q-.375 1.663-.51 2.554c-.09.594-.18 1.236-.24 1.925-.07.689-.1 1.303-.1 1.844 0 .837.13 1.493.4 1.965.27.473.68.818 1.22 1.034q.81.324 2.79.486l-.44 1.986h-16.66l.45-1.986q1.53-.243 2.31-.79.765-.548 1.29-1.52c.35-.648.68-1.439.98-2.37.29-.933.74-2.737 1.33-5.411l6.89-31.206c.6-2.702.89-4.837.89-6.404q0-1.986-.93-2.755c-.62-.514-1.63-.811-3.04-.892Z"/><text x="1543.7" y="89.397" fill-opacity="0" font-family="Arial,Arial_MSFontService,sans-serif" font-size="55.32">π‘ƒ</text><path fill-rule="evenodd" d="M1601.29 74.584c2.07 0 3.83.233 5.29.7s2.65 1.097 3.56 1.891a6.9 6.9 0 0 1 1.98 2.86c.41 1.112.61 2.313.61 3.603 0 .775-.05 1.495-.16 2.16a8.8 8.8 0 0 1-.57 1.966 11.4 11.4 0 0 1-1.06 1.95c-.43.656-.98 1.351-1.63 2.086-.5.635-1.15 1.37-1.94 2.204q-1.185 1.25-2.61 2.68c-.94.954-1.93 1.946-2.96 2.979a214 214 0 0 0-3.01 3.068 67 67 0 0 0-2.68 2.949c-.81.953-1.48 1.826-1.99 2.621h11.02c.93 0 1.67-.035 2.23-.105q.84-.104 1.38-.461c.37-.239.68-.601.94-1.087q.39-.73.9-2.011h2.77c-.1 1.41-.2 2.83-.29 4.259s-.18 2.85-.28 4.26h-25.23v-1.549c.48-1.072 1.03-2.13 1.67-3.172s1.35-2.1 2.14-3.172c.8-1.073 1.7-2.18 2.72-3.321a81 81 0 0 1 3.36-3.56q2.805-2.8 4.56-4.78c1.17-1.32 2.09-2.497 2.77-3.53.67-1.032 1.14-1.986 1.38-2.86.25-.873.38-1.806.38-2.799 0-1.013-.15-1.946-.44-2.8a6.1 6.1 0 0 0-1.23-2.174q-.81-.894-2.04-1.4c-.83-.338-1.77-.506-2.85-.506-1.84 0-3.39.501-4.64 1.504-1.25 1.002-2.23 2.457-2.92 4.363h-3.9v-5.808c2.54-1.052 4.88-1.817 7.01-2.293s4.06-.715 5.76-.715"/><text x="1587.56" y="108.334" fill-opacity="0" font-family="Arial,Arial_MSFontService,sans-serif" font-size="38.572">2</text><path d="M1599.08 134.5v91.727h-9.16V134.5Zm18.34 87.144-22.92 45.833-22.92-45.833Z"/><path fill-rule="evenodd" d="M1574.72 1089.74c2.46 0 4.74.15 6.83.44 2.09.3 4.43.84 6.99 1.63l-2.43 10.98h-3.89c-.22-3.32-.94-5.72-2.17-7.2-1.23-1.47-3.21-2.2-5.94-2.2-3.72 0-7.19 1.86-10.39 5.59s-5.74 8.65-7.6 14.77-2.8 11.8-2.8 17.04c0 4.11.73 7.14 2.19 9.08 1.46 1.95 3.7 2.92 6.73 2.92 2.03 0 3.8-.31 5.31-.91 1.51-.61 2.93-1.64 4.25-3.08 1.33-1.45 2.64-3.47 3.94-6.06h3.89l-2.48 11.51c-5.05 1.4-10.34 2.11-15.88 2.11-5.08 0-8.95-1.46-11.59-4.38-2.65-2.92-3.98-7.19-3.98-12.81q0-5.955 2.13-13.74c1.42-5.18 3.43-9.74 6.02-13.65 2.59-3.92 5.66-6.91 9.2-8.96s7.43-3.08 11.67-3.08"/><text x="1545.7" y="1139.28" fill-opacity="0" font-family="Arial,Arial_MSFontService,sans-serif" font-size="56.617">π¶</text><path fill-rule="evenodd" d="M1602.45 1123.98c2.07 0 3.83.23 5.29.7s2.64 1.1 3.56 1.89a6.9 6.9 0 0 1 1.98 2.86c.4 1.11.61 2.31.61 3.6 0 .78-.06 1.5-.17 2.16-.11.67-.29 1.32-.56 1.97-.27.64-.62 1.29-1.06 1.95-.44.65-.98 1.35-1.64 2.08-.49.64-1.14 1.37-1.93 2.21-.8.83-1.67 1.73-2.61 2.68s-1.93 1.95-2.96 2.98c-1.04 1.03-2.04 2.05-3.01 3.07-.97 1.01-1.87 1.99-2.68 2.94-.82.96-1.48 1.83-2 2.63h11.02c.94 0 1.68-.04 2.24-.11.55-.07 1.01-.22 1.38-.46s.68-.6.94-1.09c.26-.48.56-1.15.89-2.01h2.77c-.1 1.41-.19 2.83-.28 4.26s-.18 2.85-.28 4.26h-25.23V1161c.48-1.07 1.03-2.13 1.67-3.17a42 42 0 0 1 2.14-3.17c.8-1.07 1.7-2.18 2.71-3.32 1.02-1.15 2.14-2.33 3.37-3.56 1.86-1.87 3.38-3.46 4.56-4.78 1.17-1.32 2.09-2.5 2.77-3.53.67-1.04 1.13-1.99 1.38-2.86.25-.88.37-1.81.37-2.8 0-1.01-.14-1.95-.43-2.8-.29-.86-.7-1.58-1.24-2.18-.53-.59-1.21-1.06-2.04-1.4-.82-.33-1.77-.5-2.84-.5q-2.775 0-4.65 1.5c-1.25 1-2.22 2.46-2.92 4.37h-3.9v-5.81c2.54-1.06 4.88-1.82 7.02-2.3 2.13-.47 4.05-.71 5.76-.71"/><text x="1588.72" y="1157.73" fill-opacity="0" font-family="Arial,Arial_MSFontService,sans-serif" font-size="38.572">2</text><path d="m1590.967 872.473-.807 135.667 9.167.055.806-135.668Zm-19.113 130.975 22.644 45.969 23.189-45.697ZM1289.5 705.917h48.12v9.167l-48.12-.001Zm43.54-18.333 45.83 22.916-45.83 22.917Z"/><path fill-rule="evenodd" d="M1219.41 683.944h16.21l-.44 1.986c-1.03.216-1.77.459-2.21.729q-.675.405-1.2 1.216c-.35.54-.71 1.385-1.09 2.533s-.85 3.019-1.42 5.613l-2.88 12.928h1.34c1.14 0 2.17-.189 3.1-.567s2.02-1.067 3.26-2.067q1.875-1.5 5.94-5.512c2.72-2.675 4.65-4.708 5.8-6.099 1.14-1.392 1.98-2.594 2.51-3.607s.79-1.939.79-2.776q0-1.014-.81-1.642t-2.31-.749l.44-1.986h17.39l-.45 1.986q-1.62.242-3.66 1.682c-1.37.959-3.45 2.83-6.26 5.613l-15.73 15.319 8.63 20.75c.9 2.134 1.63 3.674 2.21 4.62s1.28 1.695 2.09 2.249q1.215.831 3 1.115l-.45 1.986h-15.64l.44-1.986q2.19-.203 2.19-1.945c0-.73-.15-1.561-.44-2.493-.3-.932-.65-1.898-1.06-2.898l-5.26-12.887c-.63-1.54-1.17-2.621-1.63-3.243s-.94-1.053-1.45-1.296q-.78-.365-2.4-.365h-2.27l-3.36 15.319q-.525 2.432-.69 3.83c-.11.932-.16 1.763-.16 2.492 0 1.216.3 2.074.91 2.574q.915.75 3.06.912l-.44 1.986h-16.22l.45-1.986q1.545-.244 2.31-.79c.51-.365.95-.872 1.3-1.52.35-.649.67-1.439.97-2.371s.74-2.736 1.34-5.41l6.89-31.207c.59-2.701.89-4.876.89-6.524 0-1.27-.32-2.155-.95-2.655-.64-.5-1.65-.79-3.02-.871Z"/><text x="1208.79" y="732.349" fill-opacity="0" font-family="Arial,Arial_MSFontService,sans-serif" font-size="55.32">πΎ</text><path d="M925.083 873.3v82.498l-4.583-4.584h263.48l-4.59 4.584V336.917h299.37v9.166h-294.78l4.58-4.583v618.881H915.917V873.3Zm549.087-554.717 45.84 22.917-45.84 22.917Z"/><path fill="#d74514" d="M2334 547h432v325h-432z"/><text fill="#fff" font-family="Microsoft YaHei,Microsoft YaHei_MSFontService,sans-serif" font-size="83" font-weight="700" transform="translate(2468.7 690)">DES<tspan x="-1.444" y="99">ε ε―†</tspan></text><path fill="none" stroke="#d74514" stroke-miterlimit="8" stroke-width="9.167" d="M2475.5 341.5c0-40.869 33.13-74 74-74s74 33.131 74 74-33.13 74-74 74-74-33.131-74-74Zm148.13 0h-148.129m73.999 74.129V267.5"/><path d="m2554.08 415.464.73 91.07-9.17.073-.72-91.07Zm19.02 86.341-22.55 46.014-23.28-45.65Z"/><path fill-rule="evenodd" d="M2520.19 44.559c-1.67 0-3.43.04-5.26.121l-5.52 24.56h4.22q4.905 0 7.92-1.014 3.015-1.013 4.95-3.14c1.28-1.419 2.27-3.1 2.98-5.046q1.05-2.918 1.05-6.403c0-3.135-.8-5.431-2.39-6.89-1.6-1.459-4.24-2.188-7.95-2.188m-16.98-3.567h17.88q4.815 0 7.92.75c2.07.5 3.77 1.27 5.11 2.31a9.6 9.6 0 0 1 2.99 3.951c.67 1.594 1 3.445 1 5.553q0 6.078-2.88 10.537-2.88 4.458-7.8 6.565t-11.82 2.108c-2.75 0-5.05-.055-6.88-.163l-2.6 11.915a60 60 0 0 0-.51 2.554q-.135.891-.24 1.925c-.07.689-.1 1.303-.1 1.844 0 .837.14 1.493.41 1.965.27.473.67.818 1.21 1.034s1.47.378 2.8.486l-.45 1.986h-16.65l.44-1.986q1.545-.243 2.31-.79c.51-.365.95-.872 1.3-1.52s.67-1.439.97-2.37c.3-.933.74-2.737 1.34-5.411l6.89-31.206c.59-2.702.89-4.837.89-6.404q0-1.986-.93-2.755c-.62-.514-1.64-.811-3.04-.892Z"/><text x="2492.6" y="89.397" fill-opacity="0" font-family="Arial,Arial_MSFontService,sans-serif" font-size="55.32">π‘ƒ</text><path fill-rule="evenodd" d="M2541.67 74.524h10.28c.93 2.482 1.89 4.98 2.87 7.491a887 887 0 0 1 2.9 7.521c.96 2.502 1.87 4.97 2.76 7.402q1.32 3.648 2.43 7.133h.38q.33-1.907.84-4.512c.33-1.738.73-3.54 1.19-5.406.34-1.41.68-2.86 1.03-4.349.34-1.49.67-2.919.96-4.289.3-1.37.55-2.636.73-3.798.19-1.161.29-2.12.29-2.874 0-.874-.23-1.494-.67-1.861q-.675-.552-2.49-.581l.42-1.877h11.05l-.39 1.787c-.68.199-1.21.373-1.61.522s-.73.436-1.01.863-.54 1.048-.79 1.862-.54 1.986-.88 3.515l-6.73 30.083h-4.5a799 799 0 0 0-3.23-8.161c-1.1-2.741-2.18-5.481-3.25-8.221-1.06-2.74-2.08-5.46-3.05-8.161s-1.86-5.362-2.65-7.983h-.39q-.15.923-.36 2.145c-.13.814-.29 1.693-.46 2.636s-.34 1.911-.53 2.904-.39 1.986-.58 2.978c-.18.755-.4 1.634-.64 2.636-.25 1.003-.51 2.075-.76 3.217-.26 1.142-.52 2.299-.79 3.47s-.51 2.289-.73 3.351-.39 2.03-.52 2.904-.2 1.559-.2 2.055q0 1.251.72 1.772c.47.348 1.29.561 2.44.641l-.33 1.817h-11.11l.39-1.817c.6-.1 1.09-.219 1.49-.358s.74-.422 1.04-.849c.3-.426.58-1.067.85-1.921s.57-2.055.91-3.604l4.88-21.713c.18-.794.32-1.534.41-2.22.08-.684.13-1.295.13-1.83q0-1.312-.69-1.862c-.45-.368-1.29-.561-2.5-.581Z"/><text x="2534.31" y="108.327" fill-opacity="0" font-family="Arial,Arial_MSFontService,sans-serif" font-size="38.631">π‘</text><path d="M2554.08 134.5v91.727h-9.16V134.5Zm18.34 87.144-22.92 45.833-22.92-45.833Z"/><path fill-rule="evenodd" d="M2523.62 1089.74c2.46 0 4.73.15 6.83.44 2.09.3 4.42.84 6.99 1.63l-2.44 10.98h-3.89q-.315-4.98-2.16-7.2c-1.23-1.47-3.21-2.2-5.94-2.2-3.73 0-7.2 1.86-10.4 5.59s-5.73 8.65-7.6 14.77q-2.79 9.18-2.79 17.04c0 4.11.73 7.14 2.19 9.08 1.46 1.95 3.7 2.92 6.72 2.92 2.03 0 3.8-.31 5.31-.91 1.52-.61 2.93-1.64 4.26-3.08q1.98-2.175 3.93-6.06h3.89l-2.47 11.51c-5.05 1.4-10.35 2.11-15.89 2.11-5.08 0-8.94-1.46-11.59-4.38s-3.97-7.19-3.97-12.81q0-5.955 2.13-13.74c1.42-5.18 3.42-9.74 6.01-13.65 2.6-3.92 5.67-6.91 9.2-8.96 3.54-2.05 7.43-3.08 11.68-3.08"/><text x="2494.6" y="1139.28" fill-opacity="0" font-family="Arial,Arial_MSFontService,sans-serif" font-size="56.617">π¶</text><path fill-rule="evenodd" d="M2542.83 1123.92h10.27c.94 2.48 1.89 4.98 2.88 7.49.98 2.51 1.95 5.02 2.9 7.52s1.87 4.97 2.76 7.4c.88 2.44 1.69 4.81 2.42 7.14h.39c.22-1.27.5-2.78.83-4.52.34-1.73.74-3.54 1.2-5.4.33-1.41.68-2.86 1.02-4.35.35-1.49.67-2.92.97-4.29s.54-2.64.73-3.8.28-2.12.28-2.87c0-.88-.22-1.5-.67-1.86-.44-.37-1.27-.56-2.48-.58l.41-1.88h11.05l-.38 1.79c-.68.19-1.21.37-1.61.52s-.74.43-1.01.86c-.28.43-.55 1.05-.79 1.86-.25.82-.54 1.99-.88 3.52l-6.73 30.08h-4.5c-1.05-2.7-2.13-5.42-3.23-8.16s-2.19-5.48-3.25-8.22-2.08-5.46-3.05-8.16c-.98-2.7-1.86-5.36-2.65-7.98h-.39c-.1.61-.22 1.33-.36 2.14s-.29 1.69-.46 2.64c-.17.94-.35 1.91-.54 2.9-.18.99-.38 1.99-.58 2.98-.18.75-.39 1.63-.64 2.63-.25 1.01-.5 2.08-.76 3.22-.25 1.14-.52 2.3-.79 3.47-.26 1.17-.51 2.29-.73 3.35-.21 1.06-.39 2.03-.52 2.91-.13.87-.19 1.55-.19 2.05 0 .84.24 1.43.71 1.77.48.35 1.3.56 2.45.64l-.33 1.82h-11.11l.39-1.82c.59-.1 1.09-.21 1.49-.35.39-.14.74-.43 1.04-.85.3-.43.58-1.07.85-1.92.27-.86.57-2.06.91-3.61l4.88-21.71c.18-.8.31-1.54.4-2.22.09-.69.14-1.3.14-1.83q0-1.32-.69-1.86c-.46-.37-1.29-.56-2.5-.58Z"/><text x="2535.47" y="1157.72" fill-opacity="0" font-family="Arial,Arial_MSFontService,sans-serif" font-size="38.631">π‘</text><path d="m2545.967 872.473-.807 135.667 9.167.055.806-135.668Zm-19.113 130.975 22.644 45.969 23.189-45.697ZM2244.5 705.917h48.12v9.167l-48.12-.001Zm43.54-18.333 45.83 22.916-45.83 22.917Z"/><path fill-rule="evenodd" d="M2174.16 683.944h16.21l-.44 1.986c-1.03.216-1.77.459-2.21.729q-.675.405-1.2 1.216c-.35.54-.71 1.385-1.09 2.533s-.85 3.019-1.42 5.613l-2.88 12.928h1.34c1.13 0 2.17-.189 3.1-.567s2.02-1.067 3.26-2.067c1.25-1 3.22-2.837 5.94-5.512s4.65-4.708 5.8-6.099c1.14-1.392 1.98-2.594 2.51-3.607s.79-1.939.79-2.776q0-1.014-.81-1.642t-2.31-.749l.44-1.986h17.39l-.45 1.986q-1.62.242-3.66 1.682c-1.37.959-3.46 2.83-6.26 5.613l-15.73 15.319 8.63 20.75c.89 2.134 1.63 3.674 2.21 4.62s1.28 1.695 2.09 2.249q1.215.831 3 1.115l-.45 1.986h-15.64l.44-1.986q2.19-.203 2.19-1.945c0-.73-.15-1.561-.44-2.493-.3-.932-.65-1.898-1.06-2.898l-5.27-12.887q-.93-2.31-1.62-3.243c-.46-.621-.94-1.053-1.46-1.296-.51-.244-1.31-.365-2.39-.365h-2.27l-3.36 15.319q-.525 2.432-.69 3.83c-.11.932-.16 1.763-.16 2.492 0 1.216.3 2.074.91 2.574q.915.75 3.06.912l-.45 1.986h-16.21l.45-1.986q1.545-.244 2.31-.79c.51-.365.95-.872 1.3-1.52.35-.649.67-1.439.97-2.371s.74-2.736 1.34-5.41l6.89-31.207c.59-2.701.89-4.876.89-6.524 0-1.27-.32-2.155-.95-2.655-.64-.5-1.65-.79-3.02-.871Z"/><text x="2163.54" y="732.349" fill-opacity="0" font-family="Arial,Arial_MSFontService,sans-serif" font-size="55.32">πΎ</text><path fill-rule="evenodd" d="M2004.03 710.327c1.41 0 2.58.493 3.53 1.479.94.987 1.42 2.236 1.42 3.749s-.48 2.763-1.42 3.749c-.95.986-2.12 1.479-3.53 1.479-1.4 0-2.58-.493-3.52-1.479-.95-.986-1.42-2.236-1.42-3.749s.47-2.762 1.42-3.749c.94-.986 2.12-1.479 3.52-1.479m-24.56 0c1.41 0 2.58.493 3.53 1.479.94.987 1.42 2.236 1.42 3.749s-.48 2.763-1.42 3.749c-.95.986-2.12 1.479-3.53 1.479-1.4 0-2.58-.493-3.52-1.479-.95-.986-1.42-2.236-1.42-3.749s.47-2.762 1.42-3.749c.94-.986 2.12-1.479 3.52-1.479m-24.56 0c1.41 0 2.58.493 3.53 1.479.94.987 1.42 2.236 1.42 3.749s-.48 2.763-1.42 3.749c-.95.986-2.12 1.479-3.53 1.479-1.4 0-2.58-.493-3.52-1.479-.95-.986-1.42-2.236-1.42-3.749s.47-2.762 1.42-3.749c.94-.986 2.12-1.479 3.52-1.479"/><text x="1949.97" y="719.476" fill-opacity="0" font-family="Arial,Arial_MSFontService,sans-serif" font-size="10.456">β‹―</text><path fill-rule="evenodd" d="M624.117 41.909h16.779l-.446 1.986q-1.783.203-2.776 1.053-.993.852-1.399 2.371-.405 1.52-.405 4.073 0 .608.122 3.648l1.134 29.666v3.242h.406l17.548-31.652q1.54-2.796 2.31-4.803.77-2.005.77-3.546 0-3.404-4.053-4.052l.446-1.986h16.576l-.446 1.986a5 5 0 0 0-2.087.83q-.993.67-2.229 2.23t-3.83 6.018L636.6 97.877h-5.391l-2.715-45.188q-.162-2.634-.588-4.519-.425-1.884-1.337-2.938t-2.898-1.337Zm-23.367 0h16.21l-.445 1.986q-1.54.324-2.209.73t-1.196 1.215-1.094 2.533-1.418 5.613l-6.931 31.45q-.526 2.39-.688 3.788a22 22 0 0 0-.163 2.533q0 1.824.912 2.574t3.06.912l-.446 1.986h-16.211l.446-1.986q1.54-.243 2.31-.79.77-.548 1.297-1.52.527-.974.973-2.371.446-1.399 1.337-5.41l6.89-31.207q.891-4.052.891-6.525 0-1.905-.952-2.654-.952-.75-3.019-.871Z"/><text x="590.131" y="90.881" fill-opacity="0" font-family="Arial,Arial_MSFontService,sans-serif" font-size="55.968">πΌπ‘‰</text><path d="M638.917 135.5v210.709H804.53v-9.167H643.5l4.583 4.583V135.5Zm161.03 229.042 45.834-22.917-45.834-22.916Z"/><path fill-rule="evenodd" d="M2139.4 314.204c2.46 0 4.74.148 6.83.445q3.15.447 6.99 1.621l-2.43 10.983h-3.89c-.21-3.323-.94-5.721-2.17-7.193-1.23-1.473-3.2-2.209-5.93-2.209-3.73 0-7.2 1.864-10.4 5.593s-5.73 8.652-7.6 14.772q-2.79 9.18-2.79 17.042c0 4.107.73 7.133 2.18 9.078 1.46 1.945 3.71 2.918 6.73 2.918q3.045 0 5.31-.912t4.26-3.08q1.98-2.168 3.93-6.059h3.89l-2.47 11.51c-5.06 1.405-10.35 2.107-15.89 2.107-5.08 0-8.94-1.459-11.59-4.377s-3.97-7.187-3.97-12.806c0-3.972.71-8.552 2.12-13.739 1.42-5.188 3.43-9.74 6.02-13.658 2.6-3.917 5.66-6.903 9.2-8.956q5.31-3.08 11.67-3.08"/><text x="2110.39" y="363.743" fill-opacity="0" font-family="Arial,Arial_MSFontService,sans-serif" font-size="56.617">π¶</text><path fill-rule="evenodd" d="M2158.61 348.384h10.28c.93 2.482 1.89 4.979 2.87 7.491a643 643 0 0 1 2.91 7.521c.95 2.502 1.87 4.969 2.75 7.402q1.335 3.648 2.43 7.133h.39c.22-1.271.5-2.775.83-4.512.34-1.738.74-3.54 1.19-5.406.34-1.41.68-2.86 1.03-4.349s.67-2.919.97-4.289.54-2.636.73-3.798.28-2.119.28-2.874c0-.874-.22-1.494-.67-1.862-.44-.367-1.27-.56-2.48-.58l.41-1.877h11.05l-.38 1.787c-.68.199-1.22.373-1.61.522q-.6.222-1.02.863c-.27.427-.54 1.048-.79 1.862a51 51 0 0 0-.87 3.515l-6.74 30.083h-4.49c-1.06-2.701-2.13-5.421-3.23-8.162-1.11-2.74-2.19-5.48-3.25-8.22a362 362 0 0 1-3.05-8.161c-.98-2.701-1.86-5.362-2.65-7.983h-.39q-.15.924-.36 2.145c-.14.814-.29 1.692-.46 2.636q-.255 1.415-.54 2.904c-.19.993-.38 1.985-.58 2.978-.18.755-.39 1.633-.64 2.636s-.5 2.075-.76 3.217-.52 2.298-.79 3.47a153 153 0 0 0-.73 3.351c-.22 1.062-.39 2.03-.52 2.904s-.19 1.559-.19 2.055c0 .834.24 1.425.71 1.772.48.348 1.29.561 2.45.641l-.33 1.817h-11.11l.39-1.817a9 9 0 0 0 1.48-.358q.6-.208 1.05-.849c.29-.427.58-1.067.85-1.921.26-.854.57-2.055.9-3.604l4.89-21.713c.18-.794.31-1.534.4-2.219s.13-1.296.13-1.832c0-.874-.22-1.494-.68-1.862-.46-.367-1.29-.56-2.5-.58Z"/><text x="2151.26" y="382.187" fill-opacity="0" font-family="Arial,Arial_MSFontService,sans-serif" font-size="38.631">π‘</text><path fill-rule="evenodd" d="M2201.04 367.298h34.32v4.557h-34.32Z"/><text x="2201.04" y="371.285" fill-opacity="0" font-family="Arial,Arial_MSFontService,sans-serif" font-size="4.557">β’</text><path fill-rule="evenodd" d="M2259.66 348.652h1.81q-.06 1.638-.09 2.934c-.02.864-.03 1.703-.04 2.517s-.02 1.618-.02 2.413v22.636q0 .924.06 1.594c.04.447.11.824.2 1.132q.135.461.36.789c.14.218.32.407.52.566.23.238.55.422.95.551s.9.238 1.52.328q.915.133 2.22.208c.86.05 1.9.084 3.11.104v2.592h-23.62v-2.592c1.17-.039 2.16-.084 2.98-.134.81-.049 1.51-.119 2.08-.208.58-.09 1.04-.189 1.39-.298s.65-.243.91-.402c.28-.179.51-.373.71-.581q.3-.313.48-.789c.12-.318.21-.705.28-1.162s.11-1.023.11-1.698v-21.356q0-1.161-.45-1.638c-.3-.318-.73-.476-1.28-.476-.62 0-1.53.317-2.74.953q-1.815.952-4.71 2.829c-.26-.456-.49-.913-.71-1.37q-.33-.685-.69-1.4c2.46-1.35 4.9-2.695 7.31-4.036 2.42-1.34 4.86-2.675 7.35-4.006"/><text x="2245" y="382.22" fill-opacity="0" font-family="Arial,Arial_MSFontService,sans-serif" font-size="38.363">1</text><path d="M2314.5 336.917h118.92v9.166H2314.5Zm114.34-18.334 45.83 22.917-45.83 22.917Z"/><path fill="#d74514" d="M704 1460h433v325H704z"/><text fill="#fff" font-family="Microsoft YaHei,Microsoft YaHei_MSFontService,sans-serif" font-size="83" font-weight="700" transform="translate(839.322 1603)">DES<tspan x="-1.444" y="99">θ§£ε―†</tspan></text><path fill="none" stroke="#d74514" stroke-miterlimit="8" stroke-width="9.167" d="M845.5 1995.5c0-40.87 33.131-74 74-74s74 33.13 74 74-33.131 74-74 74-74-33.13-74-74Zm148.13 0H845.501m73.999 74.13v-148.129"/><path d="m916.563 1785.444-1.143 93.833 9.166.112 1.143-93.833Zm-19.42 89.027 22.357 46.109 23.474-45.55Z"/><path fill-rule="evenodd" d="M897.033 2260.59q-2.512 0-5.268.12l-5.512 24.56h4.215q4.904 0 7.923-1.02c2.013-.67 3.661-1.72 4.944-3.14 1.284-1.41 2.277-3.1 2.979-5.04.702-1.95 1.054-4.08 1.054-6.4 0-3.14-.797-5.44-2.391-6.89q-2.391-2.19-7.944-2.19m-16.981-3.57h17.873q4.822 0 7.923.75t5.106 2.31a9.6 9.6 0 0 1 2.999 3.95q.993 2.4.993 5.55c0 4.06-.959 7.57-2.877 10.54q-2.877 4.455-7.802 6.57-4.923 2.1-11.813 2.1c-2.756 0-5.053-.05-6.89-.16l-2.594 11.92c-.243 1.1-.412 1.96-.506 2.55s-.176 1.24-.244 1.93c-.067.68-.101 1.3-.101 1.84 0 .84.135 1.49.405 1.96.271.48.676.82 1.216 1.04.541.21 1.473.38 2.797.48l-.446 1.99h-16.657l.446-1.99c1.027-.16 1.797-.42 2.31-.79.513-.36.946-.87 1.297-1.52q.527-.96.972-2.37c.298-.93.743-2.73 1.338-5.41l6.89-31.2c.594-2.7.891-4.84.891-6.41 0-1.32-.311-2.24-.932-2.75-.621-.52-1.635-.81-3.04-.89Z"/><text x="869.434" y="2305.43" fill-opacity="0" font-family="Arial,Arial_MSFontService,sans-serif" font-size="55.32">π‘ƒ</text><path fill-rule="evenodd" d="M927.448 2290.82h1.817a221 221 0 0 0-.134 5.45c-.01.82-.015 1.62-.015 2.41v22.64q0 .93.059 1.59.06.675.194 1.14c.089.3.208.57.357.79.149.21.323.4.522.56.238.24.556.42.953.55q.595.195 1.519.33t2.219.21c.863.05 1.901.08 3.112.1v2.59h-23.619v-2.59c1.171-.04 2.164-.08 2.978-.13a23 23 0 0 0 2.085-.21 10 10 0 0 0 1.385-.3c.348-.11.65-.24.909-.4.278-.18.516-.37.714-.58.199-.21.358-.47.477-.79s.213-.7.283-1.16.104-1.02.104-1.7v-21.36c0-.77-.149-1.32-.447-1.63q-.446-.48-1.28-.48c-.616 0-1.529.32-2.741.95-1.211.64-2.78 1.58-4.706 2.83a20 20 0 0 1-.714-1.37c-.219-.45-.447-.92-.686-1.4 2.463-1.35 4.9-2.69 7.313-4.03s4.86-2.68 7.342-4.01"/><text x="912.793" y="2324.39" fill-opacity="0" font-family="Arial,Arial_MSFontService,sans-serif" font-size="38.363">1</text><path fill-rule="evenodd" d="M900.456 1218.58q3.688 0 6.828.45 3.141.435 6.991 1.62l-2.431 10.98h-3.891c-.216-3.32-.939-5.72-2.168-7.19s-3.208-2.21-5.937-2.21c-3.729 0-7.194 1.86-10.396 5.59-3.201 3.73-5.734 8.65-7.598 14.77-1.865 6.12-2.797 11.8-2.797 17.05 0 4.1.73 7.13 2.189 9.07 1.459 1.95 3.701 2.92 6.727 2.92 2.027 0 3.796-.3 5.309-.91s2.932-1.63 4.256-3.08q1.986-2.175 3.931-6.06h3.89l-2.472 11.51c-5.052 1.41-10.348 2.11-15.886 2.11q-7.62 0-11.591-4.38-3.972-4.38-3.972-12.81c0-3.97.709-8.55 2.128-13.73 1.418-5.19 3.424-9.74 6.018-13.66s5.66-6.91 9.2-8.96 7.43-3.08 11.672-3.08"/><text x="871.438" y="1268.12" fill-opacity="0" font-family="Arial,Arial_MSFontService,sans-serif" font-size="56.617">π¶</text><path fill-rule="evenodd" d="M928.605 1253.03h1.817a219 219 0 0 0-.149 7.86v22.64q0 .93.06 1.59.059.675.193 1.14c.09.3.209.57.358.78q.223.33.521.57c.238.24.556.42.953.55q.596.195 1.519.33t2.219.21c.864.05 1.901.08 3.113.1v2.59h-23.62v-2.59c1.172-.04 2.164-.08 2.979-.13a23 23 0 0 0 2.085-.21 10 10 0 0 0 1.385-.3c.347-.11.65-.24.908-.4.278-.18.516-.37.715-.58s.357-.47.476-.79c.12-.32.214-.71.283-1.16.07-.46.105-1.02.105-1.7v-21.36c0-.77-.149-1.32-.447-1.63q-.447-.48-1.281-.48c-.615 0-1.529.32-2.74.95-1.211.64-2.78 1.58-4.706 2.83-.258-.45-.497-.91-.715-1.37-.219-.45-.447-.92-.685-1.4 2.462-1.35 4.9-2.69 7.312-4.03s4.86-2.68 7.342-4.01"/><text x="913.951" y="1286.6" fill-opacity="0" font-family="Arial,Arial_MSFontService,sans-serif" font-size="38.363">1</text><path d="M615.5 1618.92h48.125v9.16H615.5Zm43.542-18.34 45.833 22.92-45.833 22.92Z"/><path fill-rule="evenodd" d="M544.789 1596.96H561l-.446 1.99c-1.027.21-1.763.46-2.209.73-.445.27-.844.67-1.195 1.21s-.716 1.39-1.094 2.53c-.379 1.15-.851 3.02-1.419 5.62l-2.877 12.93h1.337q1.702 0 3.1-.57t3.263-2.07c1.243-1 3.222-2.84 5.937-5.51 2.715-2.68 4.647-4.71 5.796-6.1 1.148-1.39 1.985-2.59 2.512-3.61.527-1.01.791-1.94.791-2.77 0-.68-.271-1.23-.811-1.64q-.81-.63-2.31-.75l.446-1.99h17.386l-.446 1.99q-1.621.24-3.668 1.68-2.046 1.44-6.261 5.61l-15.725 15.32 8.633 20.75q1.337 3.195 2.208 4.62t2.088 2.25c.81.55 1.81.93 2.999 1.11l-.446 1.99h-15.644l.446-1.99c1.459-.13 2.189-.78 2.189-1.94q0-1.095-.446-2.49c-.297-.94-.649-1.9-1.054-2.9l-5.269-12.89q-.931-2.31-1.621-3.24c-.459-.62-.945-1.05-1.459-1.3q-.77-.36-2.391-.36h-2.269l-3.364 15.32c-.351 1.62-.581 2.89-.689 3.83a22 22 0 0 0-.162 2.49c0 1.21.304 2.07.912 2.57s1.628.81 3.06.91l-.446 1.99h-16.211l.446-1.99c1.026-.16 1.796-.42 2.31-.79.513-.36.945-.87 1.297-1.52q.527-.96.972-2.37c.297-.93.743-2.73 1.338-5.41l6.889-31.2c.595-2.7.892-4.88.892-6.53 0-1.27-.318-2.15-.953-2.65q-.952-.75-3.019-.87Z"/><text x="534.171" y="1645.37" fill-opacity="0" font-family="Arial,Arial_MSFontService,sans-serif" font-size="55.32">πΎ</text><path fill="#d74514" d="M1379 1460h432v325h-432z"/><text fill="#fff" font-family="Microsoft YaHei,Microsoft YaHei_MSFontService,sans-serif" font-size="83" font-weight="700" transform="translate(1513.95 1603)">DES<tspan x="-1.444" y="99">θ§£ε―†</tspan></text><path fill="none" stroke="#d74514" stroke-miterlimit="8" stroke-width="9.167" d="M1519.5 1995.5c0-40.87 33.13-74 74-74s74 33.13 74 74-33.13 74-74 74-74-33.13-74-74Zm148.13 0h-148.129m73.999 74.13v-148.129"/><path fill-rule="evenodd" d="M1570.71 2260.59c-1.68 0-3.44.04-5.27.12l-5.51 24.56h4.21q4.905 0 7.92-1.02c2.02-.67 3.66-1.72 4.95-3.14 1.28-1.41 2.27-3.1 2.98-5.04.7-1.95 1.05-4.08 1.05-6.4 0-3.14-.8-5.44-2.39-6.89-1.59-1.46-4.24-2.19-7.94-2.19m-16.99-3.57h17.88q4.815 0 7.92.75c2.07.5 3.77 1.27 5.11 2.31 1.33 1.04 2.33 2.36 3 3.95q.99 2.4.99 5.55c0 4.06-.96 7.57-2.88 10.54q-2.88 4.455-7.8 6.57c-3.28 1.4-7.22 2.1-11.81 2.1-2.76 0-5.06-.05-6.89-.16l-2.6 11.92c-.24 1.1-.41 1.96-.5 2.55-.1.59-.18 1.24-.25 1.93-.06.68-.1 1.3-.1 1.84 0 .84.14 1.49.41 1.96.27.48.67.82 1.21 1.04.54.21 1.48.38 2.8.48l-.45 1.99h-16.65l.44-1.99c1.03-.16 1.8-.42 2.31-.79.52-.36.95-.87 1.3-1.52.35-.64.67-1.43.97-2.37.3-.93.75-2.73 1.34-5.41l6.89-31.2c.59-2.7.89-4.84.89-6.41 0-1.32-.31-2.24-.93-2.75-.62-.52-1.64-.81-3.04-.89Z"/><text x="1543.11" y="2305.43" fill-opacity="0" font-family="Arial,Arial_MSFontService,sans-serif" font-size="55.32">π‘ƒ</text><path fill-rule="evenodd" d="M1600.7 2290.61c2.06 0 3.83.24 5.29.7 1.46.47 2.64 1.1 3.56 1.89.91.8 1.57 1.75 1.98 2.86.4 1.12.61 2.32.61 3.61 0 .77-.06 1.49-.17 2.16-.11.66-.29 1.32-.56 1.96-.27.65-.62 1.3-1.06 1.95-.44.66-.98 1.35-1.64 2.09-.49.63-1.14 1.37-1.93 2.2-.8.84-1.67 1.73-2.61 2.68-.94.96-1.93 1.95-2.96 2.98a171 171 0 0 0-3.01 3.07c-.98 1.01-1.87 1.99-2.68 2.95-.82.95-1.48 1.82-2 2.62h11.02c.93 0 1.68-.04 2.24-.11.55-.06 1.01-.22 1.38-.46s.68-.6.94-1.08c.26-.49.55-1.16.89-2.01h2.77c-.1 1.41-.19 2.83-.28 4.25-.09 1.43-.18 2.85-.28 4.26h-25.23v-1.54c.47-1.08 1.03-2.13 1.67-3.18a42 42 0 0 1 2.14-3.17c.8-1.07 1.7-2.18 2.71-3.32a82 82 0 0 1 3.37-3.56c1.86-1.87 3.38-3.46 4.55-4.78 1.18-1.32 2.1-2.5 2.77-3.53.68-1.03 1.14-1.99 1.39-2.86s.37-1.81.37-2.8c0-1.01-.14-1.94-.43-2.8-.29-.85-.7-1.58-1.24-2.17-.53-.6-1.21-1.06-2.04-1.4-.82-.34-1.77-.51-2.84-.51-1.85 0-3.4.5-4.65 1.51-1.25 1-2.22 2.45-2.92 4.36h-3.9v-5.81c2.54-1.05 4.88-1.82 7.02-2.29q3.195-.72 5.76-.72"/><text x="1586.97" y="2324.36" fill-opacity="0" font-family="Arial,Arial_MSFontService,sans-serif" font-size="38.572">2</text><path fill-rule="evenodd" d="M1574.13 1218.58c2.46 0 4.73.15 6.83.45q3.135.435 6.99 1.62l-2.43 10.98h-3.89c-.22-3.32-.94-5.72-2.17-7.19s-3.21-2.21-5.94-2.21c-3.73 0-7.19 1.86-10.4 5.59-3.2 3.73-5.73 8.65-7.59 14.77-1.87 6.12-2.8 11.8-2.8 17.05 0 4.1.73 7.13 2.19 9.07 1.46 1.95 3.7 2.92 6.73 2.92 2.02 0 3.79-.3 5.3-.91 1.52-.61 2.94-1.63 4.26-3.08q1.98-2.175 3.93-6.06h3.89l-2.47 11.51c-5.05 1.41-10.35 2.11-15.89 2.11-5.08 0-8.94-1.46-11.59-4.38s-3.97-7.19-3.97-12.81c0-3.97.71-8.55 2.13-13.73 1.42-5.19 3.42-9.74 6.02-13.66 2.59-3.92 5.66-6.91 9.2-8.96s7.43-3.08 11.67-3.08"/><text x="1545.11" y="1268.12" fill-opacity="0" font-family="Arial,Arial_MSFontService,sans-serif" font-size="56.617">π¶</text><path fill-rule="evenodd" d="M1601.86 1252.82c2.06 0 3.82.23 5.28.7s2.65 1.1 3.56 1.89c.92.8 1.58 1.75 1.98 2.86.41 1.11.61 2.32.61 3.61 0 .77-.05 1.49-.16 2.16-.11.66-.3 1.32-.57 1.96-.26.65-.62 1.3-1.05 1.95-.44.66-.99 1.35-1.64 2.09-.5.63-1.14 1.37-1.94 2.2-.79.84-1.66 1.73-2.6 2.68-.95.96-1.93 1.95-2.97 2.98-1.03 1.03-2.03 2.06-3.01 3.07-.97 1.01-1.86 1.99-2.68 2.95-.81.95-1.48 1.82-1.99 2.62h11.02c.93 0 1.68-.04 2.23-.11.56-.07 1.02-.22 1.39-.46s.68-.6.94-1.08c.25-.49.55-1.16.89-2.02h2.77c-.1 1.41-.19 2.83-.28 4.26s-.19 2.85-.29 4.26h-25.22v-1.55c.47-1.07 1.03-2.13 1.66-3.17.64-1.04 1.35-2.1 2.15-3.17.79-1.07 1.7-2.18 2.71-3.32s2.13-2.33 3.36-3.56c1.87-1.87 3.39-3.46 4.56-4.78s2.1-2.5 2.77-3.53c.68-1.03 1.14-1.99 1.39-2.86.24-.87.37-1.81.37-2.8 0-1.01-.15-1.95-.43-2.8-.29-.85-.7-1.58-1.24-2.17-.54-.6-1.22-1.07-2.04-1.4-.82-.34-1.77-.51-2.84-.51q-2.775 0-4.65 1.5c-1.25 1.01-2.22 2.46-2.92 4.37h-3.9v-5.81c2.54-1.05 4.88-1.82 7.01-2.29 2.14-.48 4.06-.72 5.77-.72"/><text x="1588.13" y="1286.57" fill-opacity="0" font-family="Arial,Arial_MSFontService,sans-serif" font-size="38.572">2</text><path d="M1289.5 1618.92h48.12v9.16h-48.12Zm43.54-18.34 45.83 22.92-45.83 22.92Z"/><path fill-rule="evenodd" d="M1219.41 1596.96h16.21l-.44 1.99c-1.03.21-1.77.46-2.21.73-.45.27-.85.67-1.2 1.21s-.71 1.39-1.09 2.53c-.38 1.15-.85 3.02-1.42 5.62l-2.88 12.93h1.34c1.14 0 2.17-.19 3.1-.57s2.02-1.07 3.26-2.07c1.25-1 3.23-2.84 5.94-5.51 2.72-2.68 4.65-4.71 5.8-6.1 1.14-1.39 1.98-2.59 2.51-3.61.53-1.01.79-1.94.79-2.77 0-.68-.27-1.23-.81-1.64q-.81-.63-2.31-.75l.44-1.99h17.39l-.45 1.99q-1.62.24-3.66 1.68c-1.37.96-3.45 2.83-6.26 5.61l-15.73 15.32 8.63 20.75c.9 2.13 1.63 3.67 2.21 4.62s1.28 1.7 2.09 2.25 1.81.93 3 1.11l-.45 1.99h-15.64l.44-1.99c1.46-.13 2.19-.78 2.19-1.94 0-.73-.15-1.56-.44-2.49-.3-.94-.65-1.9-1.06-2.9l-5.26-12.89c-.63-1.54-1.17-2.62-1.63-3.24s-.94-1.05-1.45-1.3q-.78-.36-2.4-.36h-2.27l-3.36 15.32c-.35 1.62-.58 2.89-.69 3.83-.11.93-.16 1.76-.16 2.49 0 1.21.3 2.07.91 2.57s1.63.81 3.06.91l-.44 1.99h-16.22l.45-1.99c1.03-.16 1.8-.42 2.31-.79.51-.36.95-.87 1.3-1.52.35-.64.67-1.43.97-2.37.3-.93.74-2.73 1.34-5.41l6.89-31.2c.59-2.7.89-4.88.89-6.53 0-1.27-.32-2.15-.95-2.65-.64-.5-1.65-.79-3.02-.87Z"/><text x="1208.79" y="1645.37" fill-opacity="0" font-family="Arial,Arial_MSFontService,sans-serif" font-size="55.32">πΎ</text><path d="M925.083 1460.5v-82.499l-4.583 4.584h259.748l-4.583-4.584v621.644h302.498v-9.167h-297.915l4.584 4.584v-621.644H915.917v87.082Zm548.497 557.478 45.833-22.916-45.833-22.917Z"/><path fill="#d74514" d="M2334 1460h432v325h-432z"/><text fill="#fff" font-family="Microsoft YaHei,Microsoft YaHei_MSFontService,sans-serif" font-size="83" font-weight="700" transform="translate(2468.7 1603)">DES<tspan x="-1.444" y="99">θ§£ε―†</tspan></text><path fill="none" stroke="#d74514" stroke-miterlimit="8" stroke-width="9.167" d="M2474.5 1995.5c0-40.87 33.13-74 74-74s74 33.13 74 74-33.13 74-74 74-74-33.13-74-74Zm148.13 0h-148.129m73.999 74.13v-148.129"/><path fill-rule="evenodd" d="M2519.6 2260.59c-1.67 0-3.43.04-5.27.12l-5.51 24.56h4.21c3.27 0 5.92-.34 7.93-1.02 2.01-.67 3.66-1.72 4.94-3.14 1.29-1.41 2.28-3.1 2.98-5.04.7-1.95 1.05-4.08 1.05-6.4 0-3.14-.79-5.44-2.39-6.89-1.59-1.46-4.24-2.19-7.94-2.19m-16.98-3.57h17.87c3.22 0 5.86.25 7.93.75q3.09.75 5.1 2.31a9.55 9.55 0 0 1 3 3.95q.99 2.4.99 5.55c0 4.06-.96 7.57-2.87 10.54-1.92 2.97-4.52 5.16-7.81 6.57-3.28 1.4-7.22 2.1-11.81 2.1-2.76 0-5.05-.05-6.89-.16l-2.59 11.92c-.25 1.1-.41 1.96-.51 2.55-.09.59-.17 1.24-.24 1.93-.07.68-.1 1.3-.1 1.84 0 .84.13 1.49.4 1.96.27.48.68.82 1.22 1.04.54.21 1.47.38 2.79.48l-.44 1.99H2492l.45-1.99c1.02-.16 1.79-.42 2.31-.79.51-.36.94-.87 1.29-1.52.36-.64.68-1.43.98-2.37.29-.93.74-2.73 1.33-5.41l6.89-31.2c.6-2.7.9-4.84.9-6.41 0-1.32-.32-2.24-.94-2.75-.62-.52-1.63-.81-3.04-.89Z"/><text x="2492" y="2305.43" fill-opacity="0" font-family="Arial,Arial_MSFontService,sans-serif" font-size="55.32">π‘ƒ</text><path fill-rule="evenodd" d="M2541.08 2290.55h10.27c.93 2.48 1.89 4.98 2.88 7.49.98 2.52 1.95 5.02 2.9 7.52.95 2.51 1.87 4.97 2.75 7.41.89 2.43 1.7 4.81 2.43 7.13h.39c.22-1.27.5-2.78.83-4.51.34-1.74.74-3.54 1.19-5.41.34-1.41.68-2.86 1.03-4.35s.67-2.92.97-4.29.54-2.63.73-3.79c.19-1.17.28-2.12.28-2.88 0-.87-.22-1.49-.67-1.86-.44-.37-1.27-.56-2.48-.58l.41-1.88h11.05l-.38 1.79c-.68.2-1.22.37-1.61.52-.4.15-.74.44-1.02.86-.27.43-.54 1.05-.78 1.87-.25.81-.55 1.98-.88 3.51l-6.73 30.08h-4.5c-1.05-2.7-2.13-5.42-3.23-8.16-1.11-2.74-2.19-5.48-3.25-8.22s-2.08-5.46-3.05-8.16c-.98-2.7-1.86-5.36-2.65-7.98h-.39c-.1.61-.22 1.33-.36 2.14-.14.82-.29 1.7-.46 2.64s-.35 1.91-.54 2.9a262 262 0 0 1-.58 2.98c-.18.76-.39 1.64-.64 2.64s-.5 2.07-.76 3.21c-.26 1.15-.52 2.3-.79 3.47-.26 1.18-.51 2.29-.73 3.36-.22 1.06-.39 2.03-.52 2.9s-.19 1.56-.19 2.05c0 .84.24 1.43.71 1.78.48.34 1.29.56 2.45.64l-.33 1.81h-11.11l.39-1.81c.59-.1 1.09-.22 1.48-.36.4-.14.75-.42 1.05-.85s.58-1.07.85-1.92c.26-.85.57-2.06.9-3.6l4.89-21.72c.18-.79.31-1.53.4-2.22.09-.68.14-1.29.14-1.83q0-1.305-.69-1.86c-.46-.37-1.29-.56-2.5-.58Z"/><text x="2533.72" y="2324.36" fill-opacity="0" font-family="Arial,Arial_MSFontService,sans-serif" font-size="38.631">π‘</text><path fill-rule="evenodd" d="M2523.02 1218.58c2.46 0 4.74.15 6.83.45q3.15.435 6.99 1.62l-2.43 10.98h-3.89c-.22-3.32-.94-5.72-2.17-7.19s-3.21-2.21-5.94-2.21c-3.72 0-7.19 1.86-10.39 5.59s-5.74 8.65-7.6 14.77-2.8 11.8-2.8 17.05c0 4.1.73 7.13 2.19 9.07 1.46 1.95 3.7 2.92 6.73 2.92 2.03 0 3.8-.3 5.31-.91s2.93-1.63 4.25-3.08c1.33-1.45 2.64-3.47 3.94-6.06h3.89l-2.48 11.51c-5.05 1.41-10.34 2.11-15.88 2.11-5.08 0-8.95-1.46-11.59-4.38-2.65-2.92-3.98-7.19-3.98-12.81 0-3.97.71-8.55 2.13-13.73 1.42-5.19 3.43-9.74 6.02-13.66s5.66-6.91 9.2-8.96 7.43-3.08 11.67-3.08"/><text x="2494" y="1268.12" fill-opacity="0" font-family="Arial,Arial_MSFontService,sans-serif" font-size="56.617">π¶</text><path fill-rule="evenodd" d="M2542.23 1252.76h10.28c.93 2.48 1.89 4.98 2.87 7.49.99 2.51 1.95 5.02 2.91 7.52.95 2.51 1.87 4.97 2.75 7.41.89 2.43 1.69 4.81 2.43 7.13h.39c.21-1.27.49-2.78.83-4.51.34-1.74.73-3.54 1.19-5.41.34-1.41.68-2.86 1.03-4.35s.67-2.92.97-4.29.54-2.63.73-3.79c.19-1.17.28-2.12.28-2.88 0-.87-.22-1.49-.67-1.86s-1.28-.56-2.49-.58l.42-1.88h11.05l-.39 1.79c-.67.2-1.21.37-1.61.52-.39.15-.73.44-1.01.86-.28.43-.54 1.05-.79 1.87-.25.81-.54 1.98-.88 3.51l-6.73 30.08h-4.5c-1.05-2.7-2.12-5.42-3.23-8.16q-1.65-4.11-3.24-8.22c-1.07-2.74-2.08-5.46-3.06-8.16-.97-2.7-1.85-5.36-2.65-7.98h-.38c-.1.61-.22 1.33-.36 2.14-.14.82-.3 1.7-.46 2.64-.17.94-.35 1.91-.54 2.9a262 262 0 0 1-.58 2.98c-.18.76-.39 1.63-.64 2.64-.25 1-.5 2.07-.76 3.21-.26 1.15-.52 2.3-.79 3.47-.27 1.18-.51 2.29-.73 3.35-.22 1.07-.39 2.04-.52 2.91s-.19 1.56-.19 2.05c0 .84.23 1.43.71 1.78.48.34 1.29.56 2.44.64l-.32 1.81h-11.11l.38-1.81c.6-.1 1.09-.22 1.49-.36s.75-.42 1.04-.85c.3-.43.59-1.07.85-1.92.27-.85.57-2.06.91-3.6l4.89-21.72c.17-.79.31-1.53.4-2.22.09-.68.13-1.29.13-1.83 0-.87-.23-1.49-.68-1.86-.46-.37-1.29-.56-2.5-.58Z"/><text x="2534.88" y="1286.56" fill-opacity="0" font-family="Arial,Arial_MSFontService,sans-serif" font-size="38.631">π‘</text><path d="M2244.5 1618.92h48.12v9.16h-48.12Zm43.54-18.34 45.83 22.92-45.83 22.92Z"/><path fill-rule="evenodd" d="M2174.16 1596.96h16.21l-.44 1.99c-1.03.21-1.77.46-2.21.73-.45.27-.85.67-1.2 1.21s-.71 1.39-1.09 2.53c-.38 1.15-.85 3.02-1.42 5.62l-2.88 12.93h1.34c1.13 0 2.17-.19 3.1-.57s2.02-1.07 3.26-2.07c1.25-1 3.22-2.84 5.94-5.51 2.72-2.68 4.65-4.71 5.8-6.1 1.14-1.39 1.98-2.59 2.51-3.61.53-1.01.79-1.94.79-2.77 0-.68-.27-1.23-.81-1.64q-.81-.63-2.31-.75l.44-1.99h17.39l-.45 1.99q-1.62.24-3.66 1.68c-1.37.96-3.46 2.83-6.26 5.61l-15.73 15.32 8.63 20.75c.89 2.13 1.63 3.67 2.21 4.62s1.28 1.7 2.09 2.25 1.81.93 3 1.11l-.45 1.99h-15.64l.44-1.99c1.46-.13 2.19-.78 2.19-1.94 0-.73-.15-1.56-.44-2.49-.3-.94-.65-1.9-1.06-2.9l-5.27-12.89q-.93-2.31-1.62-3.24c-.46-.62-.94-1.05-1.46-1.3-.51-.24-1.31-.36-2.39-.36h-2.27l-3.36 15.32c-.35 1.62-.58 2.89-.69 3.83-.11.93-.16 1.76-.16 2.49 0 1.21.3 2.07.91 2.57s1.63.81 3.06.91l-.45 1.99h-16.21l.45-1.99c1.03-.16 1.8-.42 2.31-.79.51-.36.95-.87 1.3-1.52.35-.64.67-1.43.97-2.37.3-.93.74-2.73 1.34-5.41l6.89-31.2c.59-2.7.89-4.88.89-6.53 0-1.27-.32-2.15-.95-2.65-.64-.5-1.65-.79-3.02-.87Z"/><text x="2163.54" y="1645.37" fill-opacity="0" font-family="Arial,Arial_MSFontService,sans-serif" font-size="55.32">πΎ</text><path fill-rule="evenodd" d="M2004.03 1623.34c1.41 0 2.58.5 3.53 1.48.94.99 1.42 2.24 1.42 3.75s-.48 2.76-1.42 3.75c-.95.99-2.12 1.48-3.53 1.48-1.4 0-2.58-.49-3.52-1.48-.95-.99-1.42-2.24-1.42-3.75s.47-2.76 1.42-3.75c.94-.98 2.12-1.48 3.52-1.48m-24.56 0c1.41 0 2.58.5 3.53 1.48.94.99 1.42 2.24 1.42 3.75s-.48 2.76-1.42 3.75c-.95.99-2.12 1.48-3.53 1.48-1.4 0-2.58-.49-3.52-1.48-.95-.99-1.42-2.24-1.42-3.75s.47-2.76 1.42-3.75c.94-.98 2.12-1.48 3.52-1.48m-24.56 0c1.41 0 2.58.5 3.53 1.48.94.99 1.42 2.24 1.42 3.75s-.48 2.76-1.42 3.75c-.95.99-2.12 1.48-3.53 1.48-1.4 0-2.58-.49-3.52-1.48-.95-.99-1.42-2.24-1.42-3.75s.47-2.76 1.42-3.75c.94-.98 2.12-1.48 3.52-1.48"/><text x="1949.97" y="1632.49" fill-opacity="0" font-family="Arial,Arial_MSFontService,sans-serif" font-size="10.456">β‹―</text><path fill-rule="evenodd" d="M621.388 1968.81h16.779l-.446 1.99c-1.189.13-2.114.49-2.776 1.05q-.993.855-1.398 2.37c-.271 1.02-.406 2.37-.406 4.08 0 .4.041 1.62.122 3.64l1.135 29.67v3.24h.405l17.548-31.65q1.54-2.79 2.31-4.8c.514-1.34.77-2.52.77-3.55q0-3.405-4.052-4.05l.446-1.99H668.4l-.446 1.99c-.729.11-1.425.38-2.087.83s-1.405 1.19-2.229 2.23-2.1 3.05-3.83 6.02l-25.937 44.9h-5.39l-2.716-45.19c-.108-1.75-.304-3.26-.587-4.52-.284-1.25-.73-2.23-1.338-2.93-.608-.71-1.573-1.15-2.897-1.34Zm-23.367 0h16.211l-.446 1.99c-1.027.22-1.763.46-2.209.73s-.844.67-1.195 1.21-.716 1.39-1.095 2.54q-.567 1.725-1.418 5.61l-6.93 31.45c-.351 1.59-.581 2.86-.689 3.79s-.162 1.78-.162 2.53q0 1.83.912 2.58c.607.5 1.627.8 3.059.91l-.445 1.98h-16.211l.445-1.98c1.027-.16 1.797-.43 2.311-.79.513-.37.945-.87 1.296-1.52q.528-.975.973-2.37c.297-.94.743-2.74 1.337-5.41l6.89-31.21c.595-2.7.892-4.88.892-6.52 0-1.27-.318-2.16-.953-2.66q-.952-.75-3.019-.87Z"/><text x="587.403" y="2017.79" fill-opacity="0" font-family="Arial,Arial_MSFontService,sans-serif" font-size="55.968">πΌπ‘‰</text><path fill-rule="evenodd" d="M2138.81 1968.16c2.46 0 4.74.15 6.83.45q3.135.45 6.99 1.62l-2.43 10.98h-3.89c-.22-3.32-.94-5.72-2.17-7.19s-3.21-2.21-5.94-2.21c-3.73 0-7.19 1.87-10.39 5.6-3.2 3.72-5.74 8.65-7.6 14.77-1.87 6.12-2.8 11.8-2.8 17.04 0 4.11.73 7.13 2.19 9.08 1.46 1.94 3.7 2.92 6.73 2.92 2.02 0 3.79-.31 5.31-.92 1.51-.6 2.93-1.63 4.25-3.08q1.995-2.16 3.93-6.06h3.89l-2.47 11.51c-5.05 1.41-10.35 2.11-15.88 2.11-5.08 0-8.95-1.46-11.6-4.38-2.64-2.91-3.97-7.18-3.97-12.8q0-5.955 2.13-13.74c1.42-5.19 3.43-9.74 6.02-13.66s5.66-6.9 9.2-8.96c3.54-2.05 7.43-3.08 11.67-3.08"/><text x="2109.79" y="2017.7" fill-opacity="0" font-family="Arial,Arial_MSFontService,sans-serif" font-size="56.617">π¶</text><path fill-rule="evenodd" d="M2158.02 2002.35h10.28c.93 2.48 1.89 4.97 2.87 7.49.98 2.51 1.95 5.02 2.9 7.52.96 2.5 1.88 4.97 2.76 7.4s1.69 4.81 2.43 7.13h.38c.22-1.27.5-2.77.84-4.51s.73-3.54 1.19-5.41c.34-1.41.68-2.86 1.03-4.34.35-1.49.67-2.92.97-4.29.29-1.37.54-2.64.73-3.8.18-1.16.28-2.12.28-2.88 0-.87-.22-1.49-.67-1.86-.45-.36-1.28-.56-2.49-.58l.42-1.87h11.05l-.39 1.78c-.67.2-1.21.38-1.61.52-.39.15-.73.44-1.01.87-.28.42-.54 1.05-.79 1.86s-.54 1.98-.88 3.51l-6.73 30.09h-4.5c-1.05-2.7-2.13-5.42-3.23-8.16s-2.18-5.48-3.25-8.22c-1.06-2.75-2.08-5.47-3.05-8.17s-1.85-5.36-2.65-7.98h-.39c-.1.62-.21 1.33-.35 2.15-.14.81-.3 1.69-.47 2.63-.16.95-.34 1.91-.53 2.91-.19.99-.38 1.98-.58 2.97-.18.76-.39 1.64-.64 2.64s-.5 2.08-.76 3.22-.52 2.3-.79 3.47-.51 2.29-.73 3.35-.39 2.03-.52 2.9c-.13.88-.2 1.56-.2 2.06q0 1.245.72 1.77c.48.35 1.29.56 2.44.64l-.33 1.82h-11.11l.39-1.82c.6-.1 1.09-.22 1.49-.36s.74-.42 1.04-.85c.3-.42.58-1.06.85-1.92.27-.85.57-2.05.91-3.6l4.88-21.71c.18-.8.32-1.54.41-2.22.09-.69.13-1.3.13-1.84 0-.87-.23-1.49-.68-1.86-.46-.36-1.29-.56-2.51-.58Z"/><text x="2150.66" y="2036.15" fill-opacity="0" font-family="Arial,Arial_MSFontService,sans-serif" font-size="38.631">π‘</text><path fill-rule="evenodd" d="M2200.45 2021.26h34.31v4.56h-34.31Z"/><text x="2200.45" y="2025.25" fill-opacity="0" font-family="Arial,Arial_MSFontService,sans-serif" font-size="4.557">β’</text><path fill-rule="evenodd" d="M2259.06 2002.61h1.82c-.04 1.1-.07 2.07-.09 2.94-.02.86-.03 1.7-.04 2.51-.01.82-.02 1.62-.02 2.42v22.63c0 .62.02 1.15.06 1.6.04.44.1.82.19 1.13s.21.57.36.79.32.41.52.56c.24.24.56.43.96.56.39.12.9.23 1.51.32q.93.135 2.22.21c.87.05 1.9.09 3.12.11v2.59h-23.62v-2.59c1.17-.04 2.16-.09 2.97-.14.82-.05 1.51-.12 2.09-.21s1.04-.19 1.38-.29c.35-.11.66-.25.91-.41.28-.18.52-.37.72-.58s.36-.47.47-.79c.12-.31.22-.7.29-1.16s.1-1.02.1-1.7v-21.35c0-.78-.15-1.32-.44-1.64q-.45-.48-1.29-.48c-.61 0-1.52.32-2.74.96-1.21.63-2.78 1.57-4.7 2.83-.26-.46-.5-.92-.72-1.37-.22-.46-.44-.93-.68-1.4 2.46-1.35 4.9-2.7 7.31-4.04s4.86-2.68 7.34-4.01"/><text x="2244.41" y="2036.18" fill-opacity="0" font-family="Arial,Arial_MSFontService,sans-serif" font-size="38.363">1</text><path d="M2314.5 1990.92h118.92v9.16H2314.5Zm114.34-18.34 45.83 22.92-45.83 22.92Zm-838.273-187.136-1.143 93.833 9.166.112 1.143-93.833Zm-19.42 89.027 22.357 46.109 23.474-45.55Zm974.42-89.027-1.143 93.833 9.166.112 1.143-93.833Zm-19.42 89.027 22.357 46.109 23.474-45.55ZM681.5 1990.92h122.718v9.16H681.5Zm118.135-18.34 45.833 22.92-45.833 22.92Zm115.282 96.92v106.074h9.166V2069.5Zm-18.334 101.491 22.917 45.833 22.916-45.833Zm692.334-101.491v106.074h9.166V2069.5Zm-18.334 101.491 22.917 45.833 22.916-45.833Zm973.334-101.491v106.074h9.166V2069.5Zm-18.334 101.491 22.917 45.833 22.916-45.833Zm-1601.5-858.541 1.188 106.96-9.166.1-1.188-106.96Zm19.469 102.17-22.406 46.08-23.424-45.57Zm654.528-102.17 1.19 106.96-9.17.1-1.18-106.96Zm19.47 102.17-22.4 46.08-23.43-45.57Zm935.53-102.17 1.19 106.96-9.17.1-1.18-106.96Zm19.47 102.17-22.4 46.08-23.43-45.57Z"/></g></svg>