<svg width="2540" height="1126" xmlns="http://www.w3.org/2000/svg" xmlns:xlink="http://www.w3.org/1999/xlink" overflow="hidden"><defs><clipPath id="clip0"><rect x="398" y="258" width="2540" height="1126"/></clipPath></defs><g clip-path="url(#clip0)" transform="translate(-398 -258)"><rect x="398" y="258" width="995" height="1126" fill="#FDEFE8"/><text fill="#D74514" font-family="Microsoft YaHei,Microsoft YaHei_MSFontService,sans-serif" font-weight="700" font-size="83" transform="matrix(1 0 0 1 700.161 499)">用户<tspan font-size="83" x="189.635" y="0">Alice</tspan><tspan font-size="83" x="-193.921" y="149">选择一随机数</tspan></text><path d="M1037.1 592.931 1057.73 592.931 1057.12 595.606C1055.96 595.714 1055.12 596.072 1054.59 596.68 1054.06 597.288 1053.8 598.078 1053.8 599.051 1053.8 599.861 1053.95 600.827 1054.24 601.948 1054.54 603.07 1055 604.414 1055.62 605.981L1058.18 612.708 1063.61 605.981C1065.34 603.819 1066.54 602.192 1067.21 601.097 1067.89 600.003 1068.23 599.091 1068.23 598.362 1068.23 597.443 1068 596.788 1067.54 596.396 1067.08 596.004 1066.32 595.741 1065.27 595.606L1065.88 592.931 1082.74 592.931 1082.13 595.646C1081.48 595.755 1080.83 596.011 1080.18 596.416 1079.53 596.822 1078.65 597.578 1077.53 598.686 1076.41 599.794 1074.55 601.861 1071.95 604.887L1060.32 618.382 1067.5 637.065C1068.58 639.902 1069.54 641.949 1070.39 643.205 1071.25 644.462 1072.37 645.252 1073.78 645.576L1073.21 648.251 1052.54 648.251 1053.11 645.576C1055.24 645.36 1056.31 644.387 1056.31 642.658 1056.31 641.685 1056.19 640.699 1055.95 639.7 1055.7 638.7 1055.35 637.592 1054.89 636.376L1051.29 626.852 1042.9 636.863C1041.65 638.349 1040.78 639.524 1040.26 640.389 1039.75 641.253 1039.49 642.104 1039.49 642.942 1039.49 644.563 1040.49 645.441 1042.49 645.576L1041.92 648.251 1025.02 648.251 1025.59 645.576C1026.7 645.279 1027.8 644.657 1028.89 643.712 1029.99 642.766 1032.06 640.551 1035.12 637.065L1049.1 621.26 1042.9 604.887C1042.46 603.779 1041.94 602.523 1041.34 601.118 1040.73 599.713 1040.17 598.639 1039.67 597.896 1039.18 597.153 1038.69 596.619 1038.22 596.295 1037.74 595.971 1037.17 595.741 1036.49 595.606Z" fill="#D74514" fill-rule="evenodd"/><text fill="#000000" fill-opacity="0" font-family="Arial,Arial_MSFontService,sans-serif" font-size="55.3198" x="1025.02" y="641.336">𝑿</text><path d="M1107.5 631.646 1098.3 649.011 1108.01 649.011 1107.89 641.862C1107.85 639.321 1107.83 637.216 1107.83 635.548 1107.83 634.277 1107.84 632.976 1107.86 631.646ZM1107.08 624.229 1115.66 624.229 1116.94 656.07C1116.98 657.202 1117.06 658.219 1117.18 659.123 1117.3 660.026 1117.49 660.766 1117.75 661.342 1118.01 661.918 1118.33 662.34 1118.72 662.608 1119.1 662.876 1119.59 663.049 1120.19 663.129L1119.74 665.095 1104.34 665.095 1104.79 663.129C1105.66 663.069 1106.35 662.846 1106.86 662.459 1107.37 662.071 1107.72 661.545 1107.92 660.88 1108.12 660.215 1108.22 659.287 1108.22 658.095 1108.22 657.241 1108.2 656.348 1108.16 655.414L1108.1 652.496 1096.45 652.496 1096.03 653.24C1094.92 655.246 1094.18 656.765 1093.82 657.797 1093.45 658.83 1093.26 659.783 1093.26 660.657 1093.26 662.086 1094.11 662.91 1095.8 663.129L1095.35 665.095 1082.78 665.095 1083.23 663.129C1083.92 662.97 1084.53 662.702 1085.06 662.325 1085.58 661.947 1086.09 661.436 1086.56 660.791 1087.04 660.145 1087.71 659.038 1088.59 657.47Z" fill="#D74514" fill-rule="evenodd"/><text fill="#000000" fill-opacity="0" font-family="Arial,Arial_MSFontService,sans-serif" font-size="40.8652" x="1082.78" y="659.987">𝑨</text><path d="M1205.73 599.375 1205.73 605.454 1161.72 624.542 1205.73 643.631 1205.73 649.71 1155.64 627.379 1155.64 621.706Z" fill="#D74514" fill-rule="evenodd"/><text fill="#000000" fill-opacity="0" font-family="Arial,Arial_MSFontService,sans-serif" font-size="50.335" x="1155.64" y="643.418">&lt;</text><path d="M1267.06 613.357C1265.28 613.357 1263.46 614.228 1261.61 615.971 1259.76 617.714 1258.28 619.733 1257.17 622.03 1256.06 624.326 1255.05 627.568 1254.13 631.756L1253.81 633.256C1253.37 635.255 1253.16 637.214 1253.16 639.132 1253.16 641.105 1253.49 642.523 1254.15 643.388 1254.81 644.252 1255.93 644.685 1257.49 644.685 1258.85 644.685 1260.07 644.381 1261.18 643.773 1262.29 643.165 1263.34 642.172 1264.32 640.794 1265.31 639.416 1266.27 637.64 1267.2 635.465 1268.13 633.29 1268.94 630.689 1269.61 627.663 1270.29 624.637 1270.63 621.827 1270.63 619.233 1270.63 617.234 1270.34 615.755 1269.75 614.796 1269.17 613.836 1268.28 613.357 1267.06 613.357ZM1249.19 607.399C1251.43 607.399 1253.22 608.028 1254.56 609.284 1255.89 610.54 1256.56 612.195 1256.56 614.248 1256.56 614.924 1256.48 615.572 1256.32 616.194L1256.72 616.518C1259.21 613.357 1261.61 611.047 1263.94 609.588 1266.26 608.129 1268.95 607.399 1272 607.399 1275.06 607.399 1277.43 608.507 1279.12 610.723 1280.8 612.938 1281.65 616.14 1281.65 620.328 1281.65 623.975 1281.12 627.595 1280.07 631.189 1279.01 634.782 1277.5 637.883 1275.53 640.49 1273.56 643.097 1271.08 645.151 1268.09 646.65 1265.11 648.15 1261.74 648.899 1257.98 648.899 1255.58 648.899 1253.25 648.481 1251.01 647.643L1249.47 654.857C1249.23 656.046 1249.05 656.971 1248.94 657.633 1248.84 658.295 1248.78 658.91 1248.78 659.477 1248.78 660.639 1249.09 661.476 1249.69 661.99 1250.3 662.503 1251.35 662.841 1252.83 663.003L1252.39 665.678 1235.53 665.678 1245.78 620.084C1246.19 618.274 1246.39 616.937 1246.39 616.072 1246.39 615.181 1246.24 614.492 1245.94 614.005 1245.65 613.519 1245.13 613.276 1244.4 613.276 1243.57 613.276 1242.66 613.654 1241.69 614.411 1240.72 615.167 1239.58 616.288 1238.28 617.774L1235.37 614.856C1238.07 612.101 1240.47 610.169 1242.56 609.061 1244.65 607.953 1246.86 607.399 1249.19 607.399Z" fill="#D74514" fill-rule="evenodd"/><text fill="#000000" fill-opacity="0" font-family="Arial,Arial_MSFontService,sans-serif" font-size="58.2783" x="1235.37" y="658.393">𝒑</text><text fill="#D74514" font-family="Microsoft YaHei,Microsoft YaHei_MSFontService,sans-serif" font-weight="700" font-size="83" transform="matrix(1 0 0 1 503.284 798)">计算</text><path d="M697.742 742.948 717.56 742.948 716.952 745.623C714.844 745.866 713.791 747.109 713.791 749.351 713.791 750.783 714.061 752.701 714.601 755.106L717.803 769.939 727.084 756.484C728.57 754.349 729.542 752.722 730.002 751.6 730.461 750.479 730.691 749.351 730.691 748.216 730.691 747.46 730.474 746.872 730.042 746.453 729.61 746.035 728.853 745.758 727.773 745.623L728.381 742.948 744.997 742.948 744.389 745.623C743.686 745.785 743.038 746.075 742.444 746.494 741.849 746.913 741.012 747.737 739.931 748.966 738.85 750.195 737.297 752.242 735.27 755.106L719.586 776.748 717.236 787.366C717.046 788.149 716.911 788.885 716.83 789.574 716.749 790.263 716.709 791.094 716.709 792.067 716.709 793.31 717.026 794.188 717.661 794.701 718.296 795.215 719.289 795.512 720.64 795.593L720.072 798.268 698.552 798.268 699.12 795.593C700.309 795.431 701.254 795.079 701.957 794.539 702.659 793.999 703.247 793.195 703.72 792.128 704.193 791.06 704.672 789.46 705.158 787.325L707.549 776.342 702.281 753.809C701.876 752.107 701.477 750.716 701.085 749.635 700.694 748.554 700.302 747.743 699.91 747.203 699.518 746.663 699.133 746.284 698.755 746.068 698.377 745.852 697.836 745.704 697.134 745.623Z" fill="#D74514" fill-rule="evenodd"/><text fill="#000000" fill-opacity="0" font-family="Arial,Arial_MSFontService,sans-serif" font-size="55.3198" x="697.134" y="791.353">𝒀</text><path d="M769.389 781.663 760.185 799.027 769.895 799.027 769.776 791.879C769.737 789.337 769.717 787.232 769.717 785.564 769.717 784.294 769.727 782.993 769.746 781.663ZM768.972 774.246 777.55 774.246 778.831 806.086C778.871 807.218 778.95 808.236 779.069 809.139 779.188 810.043 779.377 810.783 779.635 811.358 779.893 811.934 780.216 812.356 780.603 812.624 780.99 812.892 781.482 813.066 782.078 813.146L781.631 815.111 766.232 815.111 766.679 813.146C767.552 813.086 768.242 812.863 768.749 812.475 769.255 812.088 769.607 811.562 769.806 810.897 770.005 810.232 770.104 809.303 770.104 808.112 770.104 807.258 770.084 806.364 770.044 805.431L769.985 802.512 758.339 802.512 757.922 803.257C756.81 805.262 756.07 806.781 755.703 807.814 755.335 808.846 755.152 809.8 755.152 810.673 755.152 812.103 755.996 812.927 757.683 813.146L757.237 815.111 744.667 815.111 745.114 813.146C745.809 812.987 746.42 812.719 746.946 812.341 747.472 811.964 747.974 811.453 748.45 810.807 748.927 810.162 749.602 809.055 750.475 807.486Z" fill="#D74514" fill-rule="evenodd"/><text fill="#000000" fill-opacity="0" font-family="Arial,Arial_MSFontService,sans-serif" font-size="40.8652" x="744.667" y="810.003">𝑨</text><path d="M817.529 780.273 867.458 780.273 867.458 785.664 817.529 785.664ZM817.529 763.455 867.458 763.455 867.458 768.845 817.529 768.845Z" fill="#D74514" fill-rule="evenodd"/><text fill="#000000" fill-opacity="0" font-family="Arial,Arial_MSFontService,sans-serif" font-size="22.209" x="817.529" y="782.887">=</text><path d="M924.732 761.631C922.219 761.631 919.99 762.894 918.045 765.42 916.099 767.946 914.532 771.344 913.344 775.613 912.155 779.882 911.56 783.705 911.56 787.082 911.56 789.054 911.851 790.527 912.432 791.5 913.013 792.472 913.911 792.958 915.127 792.958 916.91 792.958 918.727 792.087 920.578 790.344 922.429 788.602 923.921 786.555 925.056 784.205 926.191 781.854 927.204 778.639 928.096 774.559L928.42 773.06C928.852 771.06 929.068 769.061 929.068 767.062 929.068 765.278 928.731 763.927 928.055 763.009 927.38 762.09 926.272 761.631 924.732 761.631ZM924.245 757.416C928.271 757.416 931.703 758.389 934.539 760.334L938.471 757.416 943.01 758.064 936.444 785.623C936.039 787.325 935.836 788.865 935.836 790.243 935.836 791.135 935.985 791.824 936.282 792.31 936.579 792.796 937.093 793.04 937.822 793.04 938.66 793.04 939.565 792.661 940.537 791.905 941.51 791.148 942.645 790.027 943.942 788.541L946.86 791.459C944.023 794.296 941.578 796.248 939.524 797.315 937.471 798.382 935.309 798.916 933.04 798.916 930.77 798.916 928.974 798.288 927.65 797.031 926.326 795.775 925.664 794.12 925.664 792.067 925.664 791.391 925.745 790.743 925.907 790.122L925.34 790.041C923.367 792.364 921.672 794.114 920.254 795.289 918.835 796.464 917.329 797.362 915.735 797.984 914.141 798.605 912.371 798.916 910.426 798.916 907.183 798.916 904.725 797.815 903.05 795.613 901.375 793.411 900.537 790.203 900.537 785.988 900.537 782.34 901.064 778.72 902.118 775.126 903.171 771.533 904.684 768.433 906.657 765.825 908.629 763.218 911.108 761.165 914.093 759.665 917.079 758.166 920.463 757.416 924.245 757.416Z" fill="#D74514" fill-rule="evenodd"/><text fill="#000000" fill-opacity="0" font-family="Arial,Arial_MSFontService,sans-serif" font-size="41.5" x="900.537" y="793.729">𝒂</text><path d="M955.522 727.407 970.682 727.407 970.236 729.372C969.382 729.452 968.761 729.715 968.374 730.162 967.987 730.609 967.793 731.189 967.793 731.904 967.793 732.5 967.902 733.21 968.121 734.034 968.339 734.858 968.677 735.846 969.133 736.997L971.01 741.942 975.001 736.997C976.272 735.409 977.156 734.213 977.652 733.408 978.148 732.604 978.397 731.934 978.397 731.398 978.397 730.723 978.228 730.241 977.89 729.953 977.553 729.665 976.997 729.472 976.222 729.372L976.669 727.407 989.06 727.407 988.613 729.402C988.136 729.482 987.66 729.67 987.183 729.968 986.707 730.266 986.056 730.822 985.232 731.636 984.408 732.45 983.043 733.969 981.137 736.193L972.589 746.112 977.861 759.843C978.655 761.928 979.365 763.432 979.99 764.355 980.616 765.279 981.445 765.859 982.477 766.098L982.06 768.063 966.87 768.063 967.287 766.098C968.855 765.939 969.64 765.224 969.64 763.953 969.64 763.238 969.55 762.513 969.372 761.779 969.193 761.044 968.935 760.23 968.597 759.336L965.946 752.337 959.781 759.694C958.868 760.786 958.222 761.65 957.845 762.285 957.468 762.921 957.279 763.546 957.279 764.162 957.279 765.353 958.014 765.998 959.483 766.098L959.066 768.063 946.646 768.063 947.063 766.098C947.877 765.879 948.686 765.422 949.49 764.727 950.294 764.032 951.818 762.404 954.062 759.843L964.338 748.227 959.781 736.193C959.463 735.379 959.081 734.456 958.634 733.423 958.187 732.391 957.78 731.601 957.413 731.055 957.046 730.509 956.688 730.117 956.341 729.879 955.993 729.641 955.571 729.472 955.075 729.372Z" fill="#D74514" fill-rule="evenodd"/><text fill="#000000" fill-opacity="0" font-family="Arial,Arial_MSFontService,sans-serif" font-size="40.6567" x="946.646" y="762.981">𝑿</text><path d="M1009.04 752.907 1001.5 767.14 1009.46 767.14 1009.36 761.281C1009.33 759.198 1009.31 757.472 1009.31 756.105 1009.31 755.063 1009.32 753.997 1009.33 752.907ZM1008.7 746.828 1015.73 746.828 1016.78 772.926C1016.81 773.854 1016.88 774.688 1016.97 775.429 1017.07 776.169 1017.23 776.776 1017.44 777.248 1017.65 777.72 1017.91 778.066 1018.23 778.285 1018.55 778.505 1018.95 778.647 1019.44 778.713L1019.07 780.324 1006.45 780.324 1006.82 778.713C1007.53 778.664 1008.1 778.481 1008.52 778.163 1008.93 777.846 1009.22 777.414 1009.38 776.869 1009.54 776.324 1009.63 775.563 1009.63 774.587 1009.63 773.887 1009.61 773.154 1009.58 772.389L1009.53 769.997 999.983 769.997 999.641 770.607C998.73 772.251 998.123 773.496 997.822 774.342 997.521 775.189 997.37 775.97 997.37 776.686 997.37 777.858 998.062 778.534 999.446 778.713L999.079 780.324 988.777 780.324 989.143 778.713C989.713 778.582 990.213 778.363 990.644 778.053 991.076 777.744 991.487 777.325 991.877 776.796 992.268 776.267 992.821 775.36 993.537 774.074Z" fill="#D74514" fill-rule="evenodd"/><text fill="#000000" fill-opacity="0" font-family="Arial,Arial_MSFontService,sans-serif" font-size="33.4961" x="988.777" y="776.137">𝑨</text><path d="M1193.76 761.631C1191.25 761.631 1189.29 762.948 1187.9 765.582 1186.51 768.217 1185.82 771.925 1185.82 776.707 1185.82 782.03 1186.4 786.001 1187.56 788.622 1188.72 791.243 1190.53 792.553 1192.99 792.553 1194.15 792.553 1195.31 792.263 1196.45 791.682 1197.6 791.101 1198.57 790.209 1199.35 789.007 1200.13 787.805 1200.53 786.42 1200.53 784.853L1200.53 771.357C1200.53 768.061 1199.97 765.616 1198.86 764.022 1197.76 762.428 1196.05 761.631 1193.76 761.631ZM1144.23 761.631C1141.56 761.631 1139.62 762.907 1138.42 765.461 1137.21 768.014 1136.61 772.046 1136.61 777.558 1136.61 783.286 1137.25 787.575 1138.54 790.426 1139.82 793.276 1141.76 794.701 1144.35 794.701 1146.92 794.701 1148.81 793.452 1150.03 790.952 1151.24 788.453 1151.85 784.461 1151.85 778.977 1151.85 773.168 1151.21 768.824 1149.93 765.947 1148.64 763.07 1146.74 761.631 1144.23 761.631ZM1144.39 757.416C1150.93 757.416 1155.86 759.138 1159.19 762.583 1162.51 766.028 1164.17 771.074 1164.17 777.72 1164.17 784.583 1162.41 789.831 1158.9 793.465 1155.39 797.099 1150.34 798.916 1143.75 798.916 1137.4 798.916 1132.57 797.18 1129.26 793.708 1125.95 790.236 1124.29 785.15 1124.29 778.45 1124.29 773.695 1125.16 769.736 1126.91 766.575 1128.65 763.414 1131.02 761.097 1134.02 759.625 1137.02 758.152 1140.48 757.416 1144.39 757.416ZM1078.34 757.416C1081.28 757.416 1083.59 758.004 1085.27 759.179 1086.94 760.354 1088.16 762.063 1088.91 764.306 1091.64 761.766 1094.01 759.983 1096.03 758.956 1098.04 757.929 1100.14 757.416 1102.33 757.416 1104.49 757.416 1106.28 757.7 1107.7 758.267 1109.12 758.834 1110.29 759.713 1111.2 760.901 1112.12 762.09 1112.79 763.576 1113.21 765.359 1113.63 767.143 1113.84 769.277 1113.84 771.763L1113.84 786.555C1113.84 789.122 1113.92 790.892 1114.08 791.864 1114.24 792.837 1114.58 793.614 1115.1 794.195 1115.61 794.775 1116.55 795.242 1117.93 795.593L1117.93 798.268 1098.4 798.268 1098.4 795.593C1099.61 795.296 1100.45 794.863 1100.91 794.296 1101.37 793.729 1101.69 792.945 1101.86 791.945 1102.04 790.946 1102.13 789.162 1102.13 786.596L1102.13 775.734C1102.13 773.303 1102.05 771.324 1101.88 769.797 1101.72 768.271 1101.41 767.075 1100.95 766.21 1100.49 765.346 1099.94 764.724 1099.31 764.346 1098.68 763.968 1097.84 763.779 1096.82 763.779 1096.11 763.779 1095.47 763.887 1094.87 764.103 1094.28 764.319 1093.68 764.65 1093.07 765.096 1092.46 765.542 1091.94 765.994 1091.51 766.454 1091.08 766.913 1090.73 767.426 1090.47 767.994 1090.22 768.561 1090.04 769.196 1089.95 769.898 1089.85 770.601 1089.81 771.749 1089.81 773.343L1089.81 786.555C1089.81 788.96 1089.87 790.696 1090.01 791.763 1090.14 792.83 1090.47 793.654 1090.98 794.235 1091.49 794.816 1092.36 795.269 1093.58 795.593L1093.58 798.268 1074.28 798.268 1074.28 795.593C1075.53 795.296 1076.39 794.863 1076.86 794.296 1077.33 793.729 1077.65 792.952 1077.81 791.966 1077.97 790.979 1078.05 789.189 1078.05 786.596L1078.05 775.734C1078.05 773.951 1078.02 772.445 1077.95 771.216 1077.88 769.986 1077.77 768.993 1077.61 768.237 1077.45 767.48 1077.22 766.818 1076.94 766.251 1076.66 765.684 1076.33 765.224 1075.97 764.873 1075.6 764.522 1075.17 764.252 1074.67 764.062 1074.17 763.873 1073.54 763.779 1072.78 763.779 1071.79 763.779 1070.74 764.09 1069.64 764.711 1068.55 765.332 1067.63 766.197 1066.89 767.305 1066.15 768.412 1065.77 769.601 1065.77 770.871L1065.77 786.555C1065.77 789.095 1065.85 790.871 1066 791.885 1066.15 792.898 1066.46 793.695 1066.95 794.276 1067.44 794.857 1068.29 795.296 1069.5 795.593L1069.5 798.268 1050.09 798.268 1050.09 795.593C1051.39 795.242 1052.28 794.782 1052.78 794.215 1053.28 793.647 1053.62 792.877 1053.8 791.905 1053.97 790.932 1054.06 789.162 1054.06 786.596L1054.06 769.939C1054.06 767.94 1054.03 766.46 1053.96 765.501 1053.89 764.542 1053.73 763.772 1053.47 763.191 1053.22 762.61 1052.83 762.137 1052.3 761.773 1051.77 761.408 1050.86 761.091 1049.56 760.82L1049.56 758.064 1060.67 757.74 1065.77 757.74 1065.17 763.576 1065.65 763.698C1068.11 761.401 1070.33 759.78 1072.3 758.834 1074.27 757.889 1076.28 757.416 1078.34 757.416ZM1207.17 740.232 1212.24 740.232 1212.24 786.434C1212.24 788.487 1212.27 789.987 1212.34 790.932 1212.41 791.878 1212.56 792.634 1212.81 793.202 1213.05 793.769 1213.44 794.235 1213.98 794.6 1214.52 794.965 1215.43 795.282 1216.7 795.552L1216.7 798.268 1205.67 798.632 1200.77 798.632 1201.13 792.796 1200.53 792.756C1198.58 794.728 1196.53 796.248 1194.39 797.315 1192.24 798.382 1190.18 798.916 1188.21 798.916 1183.29 798.916 1179.61 797.227 1177.16 793.85 1174.72 790.473 1173.49 785.393 1173.49 778.612 1173.49 774.019 1174.24 770.148 1175.72 767.001 1177.21 763.853 1179.42 761.469 1182.35 759.848 1185.28 758.227 1188.81 757.416 1192.95 757.416 1194.14 757.416 1195.31 757.49 1196.45 757.639 1197.6 757.788 1198.96 758.078 1200.53 758.51L1200.53 754.822C1200.53 751.931 1200.49 749.885 1200.4 748.682 1200.32 747.48 1200.16 746.561 1199.9 745.927 1199.64 745.292 1199.26 744.799 1198.74 744.447 1198.23 744.096 1197.3 743.785 1195.95 743.515L1195.95 740.8Z" fill="#D74514" fill-rule="evenodd"/><text fill="#000000" fill-opacity="0" font-family="Arial,Arial_MSFontService,sans-serif" font-size="58.6836" x="1049.56" y="791.581">𝐦𝐨𝐝</text><path d="M1270.02 763.374C1268.23 763.374 1266.42 764.245 1264.56 765.988 1262.71 767.73 1261.23 769.75 1260.13 772.046 1259.02 774.343 1258.01 777.585 1257.09 781.773L1256.76 783.272C1256.33 785.272 1256.11 787.231 1256.11 789.149 1256.11 791.121 1256.45 792.54 1257.11 793.404 1257.77 794.269 1258.88 794.701 1260.45 794.701 1261.8 794.701 1263.03 794.397 1264.14 793.789 1265.25 793.181 1266.29 792.188 1267.28 790.811 1268.27 789.433 1269.23 787.656 1270.16 785.481 1271.09 783.306 1271.89 780.706 1272.57 777.68 1273.24 774.654 1273.58 771.844 1273.58 769.25 1273.58 767.251 1273.29 765.771 1272.71 764.812 1272.13 763.853 1271.23 763.374 1270.02 763.374ZM1252.14 757.416C1254.39 757.416 1256.18 758.044 1257.51 759.301 1258.85 760.557 1259.52 762.212 1259.52 764.265 1259.52 764.941 1259.44 765.589 1259.28 766.21L1259.68 766.535C1262.17 763.374 1264.57 761.063 1266.89 759.604 1269.22 758.146 1271.91 757.416 1274.96 757.416 1278.01 757.416 1280.38 758.524 1282.07 760.739 1283.76 762.955 1284.61 766.156 1284.61 770.344 1284.61 773.992 1284.08 777.612 1283.02 781.206 1281.97 784.799 1280.46 787.899 1278.49 790.507 1276.51 793.114 1274.03 795.167 1271.05 796.667 1268.06 798.166 1264.69 798.916 1260.94 798.916 1258.53 798.916 1256.21 798.497 1253.97 797.66L1252.43 804.874C1252.18 806.062 1252.01 806.988 1251.9 807.65 1251.79 808.312 1251.74 808.926 1251.74 809.494 1251.74 810.655 1252.04 811.493 1252.65 812.006 1253.26 812.52 1254.3 812.857 1255.79 813.02L1255.34 815.694 1238.49 815.694 1248.74 770.101C1249.14 768.291 1249.35 766.953 1249.35 766.089 1249.35 765.197 1249.2 764.508 1248.9 764.022 1248.6 763.536 1248.09 763.292 1247.36 763.292 1246.52 763.292 1245.62 763.671 1244.65 764.427 1243.67 765.184 1242.54 766.305 1241.24 767.791L1238.32 764.873C1241.02 762.117 1243.42 760.185 1245.52 759.078 1247.61 757.97 1249.82 757.416 1252.14 757.416Z" fill="#D74514" fill-rule="evenodd"/><text fill="#000000" fill-opacity="0" font-family="Arial,Arial_MSFontService,sans-serif" font-size="58.2783" x="1238.32" y="808.41">𝒑</text><text fill="#D74514" font-family="Microsoft YaHei,Microsoft YaHei_MSFontService,sans-serif" font-weight="700" font-size="83" transform="matrix(1 0 0 1 519.027 1228)">计算</text><path d="M722.118 1172.96 742.503 1172.96 741.936 1175.63C740.396 1176.07 739.261 1176.82 738.532 1177.9 737.802 1178.98 737.113 1180.98 736.465 1183.9L733.425 1197.6 734.033 1197.6C735.168 1197.6 736.194 1197.4 737.113 1197.01 738.032 1196.62 739.045 1195.98 740.153 1195.11 741.26 1194.23 743.071 1192.55 745.583 1190.06 748.096 1187.57 749.913 1185.66 751.034 1184.31 752.156 1182.95 752.953 1181.81 753.425 1180.88 753.898 1179.95 754.135 1179.09 754.135 1178.31 754.135 1177.36 753.918 1176.71 753.486 1176.34 753.054 1175.98 752.338 1175.74 751.338 1175.63L751.946 1172.96 771.723 1172.96 771.116 1175.71C770.224 1175.9 769.44 1176.16 768.765 1176.48 768.089 1176.81 767.245 1177.39 766.232 1178.23 765.219 1179.06 763.713 1180.44 761.713 1182.36L747.042 1196.42 755.594 1217.5C756.404 1219.5 757.12 1221.04 757.742 1222.14 758.363 1223.23 758.991 1224.03 759.626 1224.53 760.261 1225.03 761.092 1225.4 762.118 1225.64L761.592 1228.28 741.328 1228.28 741.936 1225.6C742.665 1225.52 743.179 1225.33 743.476 1225.04 743.773 1224.74 743.922 1224.25 743.922 1223.58 743.922 1222.93 743.787 1222.1 743.516 1221.08 743.246 1220.07 742.665 1218.42 741.774 1216.12L738.086 1206.56C737.572 1205.23 737.093 1204.27 736.647 1203.66 736.201 1203.05 735.728 1202.62 735.229 1202.38 734.729 1202.14 734.006 1202.02 733.06 1202.02L732.452 1202.02 729.089 1217.34C728.9 1218.23 728.764 1218.98 728.683 1219.58 728.602 1220.19 728.562 1221.02 728.562 1222.08 728.562 1223.21 728.825 1224.04 729.352 1224.57 729.879 1225.1 730.737 1225.44 731.926 1225.6L731.358 1228.28 710.973 1228.28 711.54 1225.6C713.08 1225.17 714.215 1224.41 714.945 1223.33 715.674 1222.25 716.363 1220.25 717.012 1217.34L724.388 1183.9C724.739 1182.31 724.914 1180.73 724.914 1179.16 724.914 1178.02 724.651 1177.19 724.124 1176.67 723.597 1176.14 722.739 1175.8 721.551 1175.63Z" fill="#D74514" fill-rule="evenodd"/><text fill="#000000" fill-opacity="0" font-family="Arial,Arial_MSFontService,sans-serif" font-size="55.3198" x="710.973" y="1221.36">𝑲</text><path d="M800.639 1210.28 850.569 1210.28 850.569 1215.67 800.639 1215.67ZM800.639 1193.46 850.569 1193.46 850.569 1198.86 800.639 1198.86Z" fill="#D74514" fill-rule="evenodd"/><text fill="#000000" fill-opacity="0" font-family="Arial,Arial_MSFontService,sans-serif" font-size="22.209" x="800.639" y="1212.9">=</text><path d="M884.215 1172.96 904.033 1172.96 903.425 1175.63C901.317 1175.88 900.264 1177.12 900.264 1179.36 900.264 1180.79 900.534 1182.71 901.074 1185.12L904.276 1199.95 913.557 1186.49C915.043 1184.36 916.015 1182.73 916.475 1181.61 916.934 1180.49 917.164 1179.36 917.164 1178.23 917.164 1177.47 916.947 1176.88 916.515 1176.46 916.083 1176.04 915.326 1175.77 914.246 1175.63L914.853 1172.96 931.47 1172.96 930.862 1175.63C930.159 1175.8 929.511 1176.09 928.916 1176.5 928.322 1176.92 927.484 1177.75 926.404 1178.98 925.323 1180.21 923.769 1182.25 921.743 1185.12L906.059 1206.76 903.708 1217.38C903.519 1218.16 903.384 1218.9 903.303 1219.58 903.222 1220.27 903.182 1221.1 903.182 1222.08 903.182 1223.32 903.499 1224.2 904.134 1224.71 904.769 1225.22 905.762 1225.52 907.113 1225.6L906.545 1228.28 885.025 1228.28 885.593 1225.6C886.781 1225.44 887.727 1225.09 888.43 1224.55 889.132 1224.01 889.72 1223.21 890.193 1222.14 890.665 1221.07 891.145 1219.47 891.631 1217.34L894.022 1206.35 888.754 1183.82C888.349 1182.12 887.95 1180.73 887.558 1179.65 887.167 1178.56 886.775 1177.75 886.383 1177.21 885.991 1176.67 885.606 1176.29 885.228 1176.08 884.85 1175.86 884.309 1175.71 883.607 1175.63Z" fill="#D74514" fill-rule="evenodd"/><text fill="#000000" fill-opacity="0" font-family="Arial,Arial_MSFontService,sans-serif" font-size="55.3198" x="883.607" y="1221.36">𝒀</text><path d="M949.011 1234.49 945.556 1250.28C946.39 1250.34 947.661 1250.37 949.369 1250.37 951.831 1250.37 953.782 1249.91 955.222 1249 956.661 1248.08 957.728 1246.8 958.423 1245.16 959.118 1243.51 959.466 1241.82 959.466 1240.09 959.466 1236.36 957.351 1234.49 953.122 1234.49ZM956.398 1216.68C955.008 1216.68 953.837 1216.73 952.883 1216.83L949.756 1231.01 954.402 1231.01C956.15 1231.01 957.674 1230.62 958.974 1229.83 960.275 1229.05 961.273 1227.96 961.968 1226.57 962.663 1225.18 963.01 1223.58 963.01 1221.77 963.01 1220.07 962.474 1218.79 961.402 1217.95 960.33 1217.1 958.662 1216.68 956.398 1216.68ZM941.416 1213.2 958.513 1213.2C962.008 1213.2 964.733 1213.5 966.689 1214.12 968.645 1214.74 970.06 1215.65 970.933 1216.86 971.807 1218.07 972.244 1219.6 972.244 1221.45 972.244 1224.21 971.484 1226.48 969.965 1228.27 968.446 1230.05 965.999 1231.6 962.623 1232.91L962.564 1233.24C964.43 1234 965.875 1235.05 966.897 1236.4 967.92 1237.75 968.431 1239.31 968.431 1241.08 968.431 1243.5 967.85 1245.61 966.689 1247.42 965.527 1249.23 963.676 1250.75 961.134 1251.99 958.592 1253.23 954.68 1253.85 949.399 1253.85L933.225 1253.85 933.642 1251.89C934.774 1251.57 935.608 1251.01 936.144 1250.22 936.68 1249.42 937.187 1247.96 937.663 1245.81L943.084 1221.24C943.342 1220.07 943.471 1218.91 943.471 1217.75 943.471 1216.92 943.278 1216.31 942.891 1215.92 942.503 1215.53 941.873 1215.28 940.999 1215.16Z" fill="#D74514" fill-rule="evenodd"/><text fill="#000000" fill-opacity="0" font-family="Arial,Arial_MSFontService,sans-serif" font-size="40.6567" x="933.225" y="1248.77">𝑩</text><path d="M939.778 1144.54 954.939 1144.54 954.492 1146.5C953.638 1146.58 953.017 1146.85 952.63 1147.29 952.243 1147.74 952.049 1148.32 952.049 1149.04 952.049 1149.63 952.159 1150.34 952.377 1151.17 952.596 1151.99 952.933 1152.98 953.39 1154.13L955.266 1159.07 959.257 1154.13C960.528 1152.54 961.412 1151.34 961.908 1150.54 962.405 1149.74 962.653 1149.07 962.653 1148.53 962.653 1147.85 962.484 1147.37 962.147 1147.08 961.809 1146.8 961.253 1146.6 960.479 1146.5L960.925 1144.54 973.316 1144.54 972.869 1146.53C972.393 1146.61 971.916 1146.8 971.44 1147.1 970.963 1147.4 970.313 1147.95 969.489 1148.77 968.665 1149.58 967.299 1151.1 965.393 1153.32L956.845 1163.24 962.117 1176.97C962.911 1179.06 963.621 1180.56 964.246 1181.49 964.872 1182.41 965.701 1182.99 966.734 1183.23L966.317 1185.19 951.126 1185.19 951.543 1183.23C953.112 1183.07 953.896 1182.36 953.896 1181.08 953.896 1180.37 953.807 1179.64 953.628 1178.91 953.449 1178.18 953.191 1177.36 952.854 1176.47L950.203 1169.47 944.037 1176.82C943.124 1177.92 942.478 1178.78 942.101 1179.42 941.724 1180.05 941.535 1180.68 941.535 1181.29 941.535 1182.48 942.27 1183.13 943.739 1183.23L943.322 1185.19 930.902 1185.19 931.319 1183.23C932.133 1183.01 932.942 1182.55 933.746 1181.86 934.551 1181.16 936.075 1179.54 938.318 1176.97L948.594 1165.36 944.037 1153.32C943.72 1152.51 943.337 1151.59 942.891 1150.55 942.444 1149.52 942.037 1148.73 941.669 1148.19 941.302 1147.64 940.945 1147.25 940.597 1147.01 940.25 1146.77 939.828 1146.6 939.331 1146.5Z" fill="#D74514" fill-rule="evenodd"/><text fill="#000000" fill-opacity="0" font-family="Arial,Arial_MSFontService,sans-serif" font-size="40.6567" x="930.902" y="1180.11">𝑿</text><path d="M993.297 1170.04 985.753 1184.27 993.712 1184.27 993.614 1178.41C993.581 1176.33 993.565 1174.6 993.565 1173.24 993.565 1172.19 993.573 1171.13 993.59 1170.04ZM992.955 1163.96 999.986 1163.96 1001.04 1190.06C1001.07 1190.99 1001.13 1191.82 1001.23 1192.56 1001.33 1193.3 1001.48 1193.91 1001.7 1194.38 1001.91 1194.85 1002.17 1195.2 1002.49 1195.42 1002.81 1195.64 1003.21 1195.78 1003.7 1195.84L1003.33 1197.46 990.709 1197.46 991.075 1195.84C991.791 1195.79 992.357 1195.61 992.772 1195.29 993.187 1194.98 993.476 1194.55 993.638 1194 993.801 1193.46 993.883 1192.69 993.883 1191.72 993.883 1191.02 993.866 1190.29 993.834 1189.52L993.785 1187.13 984.239 1187.13 983.897 1187.74C982.986 1189.38 982.379 1190.63 982.078 1191.47 981.777 1192.32 981.627 1193.1 981.627 1193.82 981.627 1194.99 982.318 1195.66 983.702 1195.84L983.336 1197.46 973.033 1197.46 973.399 1195.84C973.969 1195.71 974.469 1195.49 974.901 1195.18 975.332 1194.88 975.743 1194.46 976.134 1193.93 976.524 1193.4 977.078 1192.49 977.794 1191.21Z" fill="#D74514" fill-rule="evenodd"/><text fill="#000000" fill-opacity="0" font-family="Arial,Arial_MSFontService,sans-serif" font-size="33.4961" x="973.033" y="1193.27">𝑨</text><path d="M1178.01 1191.64C1175.5 1191.64 1173.55 1192.96 1172.16 1195.59 1170.77 1198.23 1170.07 1201.94 1170.07 1206.72 1170.07 1212.04 1170.65 1216.01 1171.81 1218.63 1172.98 1221.25 1174.79 1222.56 1177.24 1222.56 1178.41 1222.56 1179.56 1222.27 1180.71 1221.69 1181.86 1221.11 1182.82 1220.22 1183.61 1219.02 1184.39 1217.82 1184.78 1216.43 1184.78 1214.86L1184.78 1201.37C1184.78 1198.07 1184.23 1195.63 1183.12 1194.03 1182.01 1192.44 1180.31 1191.64 1178.01 1191.64ZM1128.49 1191.64C1125.81 1191.64 1123.87 1192.92 1122.67 1195.47 1121.47 1198.02 1120.87 1202.06 1120.87 1207.57 1120.87 1213.3 1121.51 1217.59 1122.79 1220.44 1124.08 1223.29 1126.02 1224.71 1128.61 1224.71 1131.18 1224.71 1133.07 1223.46 1134.28 1220.96 1135.5 1218.46 1136.11 1214.47 1136.11 1208.99 1136.11 1203.18 1135.47 1198.83 1134.18 1195.96 1132.9 1193.08 1131 1191.64 1128.49 1191.64ZM1128.65 1187.43C1135.19 1187.43 1140.12 1189.15 1143.44 1192.59 1146.77 1196.04 1148.43 1201.08 1148.43 1207.73 1148.43 1214.59 1146.67 1219.84 1143.16 1223.48 1139.65 1227.11 1134.59 1228.93 1128 1228.93 1121.65 1228.93 1116.82 1227.19 1113.51 1223.72 1110.2 1220.25 1108.55 1215.16 1108.55 1208.46 1108.55 1203.7 1109.42 1199.75 1111.16 1196.59 1112.91 1193.42 1115.28 1191.11 1118.27 1189.64 1121.27 1188.16 1124.73 1187.43 1128.65 1187.43ZM1062.59 1187.43C1065.54 1187.43 1067.85 1188.01 1069.52 1189.19 1071.2 1190.36 1072.41 1192.07 1073.17 1194.32 1075.9 1191.78 1078.27 1189.99 1080.28 1188.97 1082.3 1187.94 1084.4 1187.43 1086.59 1187.43 1088.75 1187.43 1090.54 1187.71 1091.96 1188.28 1093.37 1188.84 1094.54 1189.72 1095.46 1190.91 1096.38 1192.1 1097.05 1193.59 1097.47 1195.37 1097.89 1197.15 1098.1 1199.29 1098.1 1201.77L1098.1 1216.57C1098.1 1219.13 1098.18 1220.9 1098.34 1221.87 1098.5 1222.85 1098.84 1223.62 1099.35 1224.2 1099.86 1224.79 1100.81 1225.25 1102.19 1225.6L1102.19 1228.28 1082.65 1228.28 1082.65 1225.6C1083.87 1225.31 1084.71 1224.87 1085.17 1224.31 1085.63 1223.74 1085.94 1222.96 1086.12 1221.96 1086.3 1220.96 1086.38 1219.17 1086.38 1216.61L1086.38 1205.74C1086.38 1203.31 1086.3 1201.33 1086.14 1199.81 1085.98 1198.28 1085.67 1197.09 1085.21 1196.22 1084.75 1195.36 1084.2 1194.73 1083.57 1194.36 1082.93 1193.98 1082.1 1193.79 1081.07 1193.79 1080.37 1193.79 1079.72 1193.9 1079.13 1194.11 1078.53 1194.33 1077.93 1194.66 1077.32 1195.11 1076.72 1195.55 1076.2 1196 1075.76 1196.46 1075.33 1196.92 1074.99 1197.44 1074.73 1198 1074.47 1198.57 1074.3 1199.21 1074.2 1199.91 1074.11 1200.61 1074.06 1201.76 1074.06 1203.35L1074.06 1216.57C1074.06 1218.97 1074.13 1220.71 1074.27 1221.77 1074.4 1222.84 1074.72 1223.66 1075.24 1224.25 1075.75 1224.83 1076.62 1225.28 1077.83 1225.6L1077.83 1228.28 1058.54 1228.28 1058.54 1225.6C1059.78 1225.31 1060.64 1224.87 1061.11 1224.31 1061.59 1223.74 1061.9 1222.96 1062.07 1221.98 1062.23 1220.99 1062.31 1219.2 1062.31 1216.61L1062.31 1205.74C1062.31 1203.96 1062.28 1202.46 1062.21 1201.23 1062.14 1200 1062.03 1199 1061.86 1198.25 1061.7 1197.49 1061.48 1196.83 1061.2 1196.26 1060.91 1195.69 1060.59 1195.23 1060.22 1194.88 1059.86 1194.53 1059.43 1194.26 1058.93 1194.07 1058.43 1193.88 1057.8 1193.79 1057.04 1193.79 1056.04 1193.79 1054.99 1194.1 1053.9 1194.72 1052.81 1195.34 1051.89 1196.21 1051.14 1197.32 1050.4 1198.42 1050.03 1199.61 1050.03 1200.88L1050.03 1216.57C1050.03 1219.11 1050.1 1220.88 1050.25 1221.89 1050.4 1222.91 1050.72 1223.71 1051.21 1224.29 1051.69 1224.87 1052.54 1225.31 1053.76 1225.6L1053.76 1228.28 1034.35 1228.28 1034.35 1225.6C1035.64 1225.25 1036.54 1224.79 1037.04 1224.23 1037.54 1223.66 1037.88 1222.89 1038.05 1221.92 1038.23 1220.94 1038.32 1219.17 1038.32 1216.61L1038.32 1199.95C1038.32 1197.95 1038.28 1196.47 1038.22 1195.51 1038.15 1194.55 1037.99 1193.78 1037.73 1193.2 1037.47 1192.62 1037.08 1192.15 1036.55 1191.78 1036.03 1191.42 1035.12 1191.1 1033.82 1190.83L1033.82 1188.07 1044.92 1187.75 1050.03 1187.75 1049.42 1193.59 1049.91 1193.71C1052.37 1191.41 1054.58 1189.79 1056.55 1188.84 1058.53 1187.9 1060.54 1187.43 1062.59 1187.43ZM1191.43 1170.24 1196.5 1170.24 1196.5 1216.44C1196.5 1218.5 1196.53 1220 1196.6 1220.94 1196.66 1221.89 1196.82 1222.64 1197.06 1223.21 1197.31 1223.78 1197.7 1224.25 1198.24 1224.61 1198.78 1224.97 1199.68 1225.29 1200.95 1225.56L1200.95 1228.28 1189.93 1228.64 1185.03 1228.64 1185.39 1222.81 1184.78 1222.77C1182.84 1224.74 1180.79 1226.26 1178.64 1227.33 1176.49 1228.39 1174.43 1228.93 1172.46 1228.93 1167.55 1228.93 1163.86 1227.24 1161.42 1223.86 1158.97 1220.48 1157.75 1215.4 1157.75 1208.62 1157.75 1204.03 1158.49 1200.16 1159.98 1197.01 1161.47 1193.86 1163.67 1191.48 1166.61 1189.86 1169.54 1188.24 1173.07 1187.43 1177.2 1187.43 1178.39 1187.43 1179.56 1187.5 1180.71 1187.65 1181.86 1187.8 1183.22 1188.09 1184.78 1188.52L1184.78 1184.83C1184.78 1181.94 1184.74 1179.9 1184.66 1178.69 1184.58 1177.49 1184.41 1176.57 1184.15 1175.94 1183.9 1175.3 1183.51 1174.81 1183 1174.46 1182.49 1174.11 1181.55 1173.8 1180.2 1173.53L1180.2 1170.81Z" fill="#D74514" fill-rule="evenodd"/><text fill="#000000" fill-opacity="0" font-family="Arial,Arial_MSFontService,sans-serif" font-size="58.6836" x="1033.82" y="1221.59">𝐦𝐨𝐝</text><path d="M1254.27 1193.38C1252.49 1193.38 1250.67 1194.26 1248.82 1196 1246.97 1197.74 1245.49 1199.76 1244.38 1202.06 1243.28 1204.35 1242.26 1207.6 1241.34 1211.78L1241.02 1213.28C1240.59 1215.28 1240.37 1217.24 1240.37 1219.16 1240.37 1221.13 1240.7 1222.55 1241.36 1223.41 1242.03 1224.28 1243.14 1224.71 1244.71 1224.71 1246.06 1224.71 1247.29 1224.41 1248.4 1223.8 1249.5 1223.19 1250.55 1222.2 1251.54 1220.82 1252.52 1219.44 1253.48 1217.67 1254.41 1215.49 1255.35 1213.32 1256.15 1210.72 1256.82 1207.69 1257.5 1204.66 1257.84 1201.85 1257.84 1199.26 1257.84 1197.26 1257.55 1195.78 1256.97 1194.82 1256.39 1193.86 1255.49 1193.38 1254.27 1193.38ZM1236.4 1187.43C1238.64 1187.43 1240.43 1188.05 1241.77 1189.31 1243.11 1190.57 1243.78 1192.22 1243.78 1194.28 1243.78 1194.95 1243.69 1195.6 1243.53 1196.22L1243.94 1196.55C1246.42 1193.38 1248.83 1191.07 1251.15 1189.61 1253.47 1188.16 1256.16 1187.43 1259.22 1187.43 1262.27 1187.43 1264.64 1188.53 1266.33 1190.75 1268.02 1192.97 1268.86 1196.17 1268.86 1200.35 1268.86 1204 1268.33 1207.62 1267.28 1211.22 1266.23 1214.81 1264.71 1217.91 1262.74 1220.52 1260.77 1223.12 1258.29 1225.18 1255.31 1226.68 1252.32 1228.18 1248.95 1228.93 1245.19 1228.93 1242.79 1228.93 1240.47 1228.51 1238.22 1227.67L1236.68 1234.88C1236.44 1236.07 1236.26 1237 1236.16 1237.66 1236.05 1238.32 1235.99 1238.94 1235.99 1239.5 1235.99 1240.67 1236.3 1241.5 1236.91 1242.02 1237.51 1242.53 1238.56 1242.87 1240.05 1243.03L1239.6 1245.7 1222.74 1245.7 1232.99 1200.11C1233.4 1198.3 1233.6 1196.96 1233.6 1196.1 1233.6 1195.21 1233.45 1194.52 1233.16 1194.03 1232.86 1193.55 1232.35 1193.3 1231.62 1193.3 1230.78 1193.3 1229.87 1193.68 1228.9 1194.44 1227.93 1195.19 1226.79 1196.32 1225.5 1197.8L1222.58 1194.88C1225.28 1192.13 1227.68 1190.2 1229.77 1189.09 1231.87 1187.98 1234.08 1187.43 1236.4 1187.43Z" fill="#D74514" fill-rule="evenodd"/><text fill="#000000" fill-opacity="0" font-family="Arial,Arial_MSFontService,sans-serif" font-size="58.2783" x="1222.58" y="1238.42">𝒑</text><rect x="1943" y="258" width="995" height="1126" fill="#FDEFE8"/><text fill="#D74514" font-family="Microsoft YaHei,Microsoft YaHei_MSFontService,sans-serif" font-weight="700" font-size="83" transform="matrix(1 0 0 1 2262.79 499)">用户<tspan font-size="83" x="189.636" y="0">Bob</tspan><tspan font-size="83" x="-213.675" y="149">选择一随机数</tspan></text><path d="M2579.98 592.885 2600.61 592.885 2600 595.56C2598.84 595.668 2597.99 596.026 2597.47 596.634 2596.94 597.242 2596.67 598.032 2596.67 599.005 2596.67 599.815 2596.82 600.781 2597.12 601.903 2597.42 603.024 2597.88 604.368 2598.5 605.935L2601.05 612.663 2606.48 605.935C2608.21 603.774 2609.41 602.146 2610.09 601.052 2610.76 599.957 2611.1 599.045 2611.1 598.316 2611.1 597.397 2610.87 596.742 2610.41 596.35 2609.95 595.959 2609.2 595.695 2608.14 595.56L2608.75 592.885 2625.61 592.885 2625 595.601C2624.35 595.709 2623.71 595.965 2623.06 596.371 2622.41 596.776 2621.52 597.532 2620.4 598.64 2619.28 599.748 2617.42 601.815 2614.83 604.841L2603.2 618.336 2610.37 637.02C2611.45 639.856 2612.42 641.903 2613.27 643.159 2614.12 644.416 2615.25 645.206 2616.65 645.53L2616.09 648.205 2595.42 648.205 2595.99 645.53C2598.12 645.314 2599.19 644.341 2599.19 642.612 2599.19 641.64 2599.07 640.654 2598.82 639.654 2598.58 638.654 2598.23 637.546 2597.77 636.331L2594.16 626.807 2585.77 636.817C2584.53 638.303 2583.65 639.478 2583.14 640.343 2582.63 641.207 2582.37 642.058 2582.37 642.896 2582.37 644.517 2583.37 645.395 2585.37 645.53L2584.8 648.205 2567.9 648.205 2568.47 645.53C2569.58 645.233 2570.68 644.612 2571.77 643.666 2572.86 642.72 2574.94 640.505 2577.99 637.02L2591.97 621.214 2585.77 604.841C2585.34 603.733 2584.82 602.477 2584.21 601.072 2583.6 599.667 2583.05 598.593 2582.55 597.85 2582.05 597.107 2581.56 596.573 2581.09 596.249 2580.62 595.925 2580.05 595.695 2579.37 595.56Z" fill="#D74514" fill-rule="evenodd"/><text fill="#000000" fill-opacity="0" font-family="Arial,Arial_MSFontService,sans-serif" font-size="55.3198" x="2567.9" y="641.29">𝑿</text><path d="M2643.53 645.688 2640.07 661.475C2640.91 661.534 2642.18 661.564 2643.88 661.564 2646.35 661.564 2648.3 661.107 2649.74 660.194 2651.18 659.28 2652.24 658 2652.94 656.352 2653.63 654.703 2653.98 653.016 2653.98 651.288 2653.98 647.555 2651.87 645.688 2647.64 645.688ZM2650.91 627.877C2649.52 627.877 2648.35 627.927 2647.4 628.026L2644.27 642.204 2648.92 642.204C2650.67 642.204 2652.19 641.811 2653.49 641.027 2654.79 640.243 2655.79 639.156 2656.48 637.766 2657.18 636.376 2657.53 634.777 2657.53 632.97 2657.53 631.263 2656.99 629.987 2655.92 629.143 2654.85 628.299 2653.18 627.877 2650.91 627.877ZM2635.93 624.392 2653.03 624.392C2656.52 624.392 2659.25 624.7 2661.2 625.315 2663.16 625.931 2664.57 626.844 2665.45 628.056 2666.32 629.267 2666.76 630.796 2666.76 632.643 2666.76 635.403 2666 637.676 2664.48 639.463 2662.96 641.25 2660.51 642.799 2657.14 644.11L2657.08 644.438C2658.95 645.192 2660.39 646.244 2661.41 647.595 2662.44 648.945 2662.95 650.504 2662.95 652.271 2662.95 654.694 2662.37 656.808 2661.2 658.615 2660.04 660.422 2658.19 661.946 2655.65 663.187 2653.11 664.428 2649.2 665.049 2643.91 665.049L2627.74 665.049 2628.16 663.083C2629.29 662.765 2630.12 662.209 2630.66 661.415 2631.2 660.621 2631.7 659.151 2632.18 657.007L2637.6 632.434C2637.86 631.263 2637.99 630.101 2637.99 628.949 2637.99 628.115 2637.79 627.505 2637.41 627.117 2637.02 626.73 2636.39 626.477 2635.51 626.358Z" fill="#D74514" fill-rule="evenodd"/><text fill="#000000" fill-opacity="0" font-family="Arial,Arial_MSFontService,sans-serif" font-size="40.6567" x="2627.74" y="659.967">𝑩</text><path d="M2752.05 599.329 2752.05 605.408 2708.03 624.497 2752.05 643.585 2752.05 649.664 2701.95 627.333 2701.95 621.66Z" fill="#D74514" fill-rule="evenodd"/><text fill="#000000" fill-opacity="0" font-family="Arial,Arial_MSFontService,sans-serif" font-size="50.335" x="2701.95" y="643.372">&lt;</text><path d="M2813.37 613.311C2811.59 613.311 2809.77 614.182 2807.92 615.925 2806.07 617.668 2804.59 619.687 2803.48 621.984 2802.38 624.28 2801.36 627.523 2800.44 631.71L2800.12 633.21C2799.69 635.209 2799.47 637.168 2799.47 639.086 2799.47 641.059 2799.8 642.477 2800.46 643.342 2801.13 644.206 2802.24 644.639 2803.81 644.639 2805.16 644.639 2806.39 644.335 2807.5 643.727 2808.6 643.119 2809.65 642.126 2810.64 640.748 2811.62 639.37 2812.58 637.594 2813.51 635.419 2814.45 633.244 2815.25 630.643 2815.93 627.617 2816.6 624.591 2816.94 621.781 2816.94 619.188 2816.94 617.188 2816.65 615.709 2816.07 614.75 2815.49 613.791 2814.59 613.311 2813.37 613.311ZM2795.5 607.354C2797.74 607.354 2799.53 607.982 2800.87 609.238 2802.21 610.494 2802.88 612.149 2802.88 614.203 2802.88 614.878 2802.8 615.527 2802.63 616.148L2803.04 616.472C2805.52 613.311 2807.93 611.001 2810.25 609.542 2812.58 608.083 2815.26 607.354 2818.32 607.354 2821.37 607.354 2823.74 608.461 2825.43 610.677 2827.12 612.892 2827.96 616.094 2827.96 620.282 2827.96 623.929 2827.44 627.55 2826.38 631.143 2825.33 634.737 2823.82 637.837 2821.84 640.444 2819.87 643.051 2817.39 645.105 2814.41 646.604 2811.42 648.104 2808.05 648.854 2804.29 648.854 2801.89 648.854 2799.57 648.435 2797.32 647.597L2795.78 654.811C2795.54 656 2795.37 656.925 2795.26 657.587 2795.15 658.249 2795.09 658.864 2795.09 659.431 2795.09 660.593 2795.4 661.43 2796.01 661.944 2796.61 662.457 2797.66 662.795 2799.15 662.957L2798.7 665.632 2781.84 665.632 2792.1 620.039C2792.5 618.228 2792.7 616.891 2792.7 616.026 2792.7 615.135 2792.56 614.446 2792.26 613.959 2791.96 613.473 2791.45 613.23 2790.72 613.23 2789.88 613.23 2788.98 613.608 2788 614.365 2787.03 615.121 2785.9 616.242 2784.6 617.729L2781.68 614.811C2784.38 612.055 2786.78 610.123 2788.87 609.015 2790.97 607.907 2793.18 607.354 2795.5 607.354Z" fill="#D74514" fill-rule="evenodd"/><text fill="#000000" fill-opacity="0" font-family="Arial,Arial_MSFontService,sans-serif" font-size="58.2783" x="2781.68" y="658.347">𝒑</text><text fill="#D74514" font-family="Microsoft YaHei,Microsoft YaHei_MSFontService,sans-serif" font-weight="700" font-size="83" transform="matrix(1 0 0 1 2044.72 798)">计算</text><path d="M2239.17 742.902 2258.99 742.902 2258.38 745.577C2256.28 745.82 2255.22 747.063 2255.22 749.305 2255.22 750.737 2255.49 752.656 2256.03 755.06L2259.24 769.893 2268.52 756.438C2270 754.304 2270.97 752.676 2271.43 751.555 2271.89 750.433 2272.12 749.305 2272.12 748.17 2272.12 747.414 2271.91 746.826 2271.47 746.408 2271.04 745.989 2270.29 745.712 2269.2 745.577L2269.81 742.902 2286.43 742.902 2285.82 745.577C2285.12 745.739 2284.47 746.029 2283.88 746.448 2283.28 746.867 2282.44 747.691 2281.36 748.92 2280.28 750.15 2278.73 752.196 2276.7 755.06L2261.02 776.702 2258.67 787.32C2258.48 788.103 2258.34 788.84 2258.26 789.529 2258.18 790.218 2258.14 791.048 2258.14 792.021 2258.14 793.264 2258.46 794.142 2259.09 794.655 2259.73 795.169 2260.72 795.466 2262.07 795.547L2261.5 798.222 2239.98 798.222 2240.55 795.547C2241.74 795.385 2242.69 795.034 2243.39 794.493 2244.09 793.953 2244.68 793.149 2245.15 792.082 2245.62 791.015 2246.1 789.414 2246.59 787.279L2248.98 776.296 2243.71 753.763C2243.31 752.061 2242.91 750.67 2242.52 749.589 2242.13 748.508 2241.73 747.698 2241.34 747.157 2240.95 746.617 2240.57 746.239 2240.19 746.023 2239.81 745.806 2239.27 745.658 2238.57 745.577Z" fill="#D74514" fill-rule="evenodd"/><text fill="#000000" fill-opacity="0" font-family="Arial,Arial_MSFontService,sans-serif" font-size="55.3198" x="2238.57" y="791.307">𝒀</text><path d="M2303.97 795.705 2300.52 811.491C2301.35 811.551 2302.62 811.581 2304.33 811.581 2306.79 811.581 2308.74 811.124 2310.18 810.211 2311.62 809.297 2312.69 808.016 2313.38 806.368 2314.08 804.72 2314.43 803.032 2314.43 801.305 2314.43 797.572 2312.31 795.705 2308.08 795.705ZM2311.36 777.894C2309.97 777.894 2308.8 777.943 2307.84 778.043L2304.72 792.22 2309.36 792.22C2311.11 792.22 2312.63 791.828 2313.93 791.044 2315.23 790.259 2316.23 789.172 2316.93 787.782 2317.62 786.392 2317.97 784.794 2317.97 782.987 2317.97 781.279 2317.43 780.003 2316.36 779.159 2315.29 778.316 2313.62 777.894 2311.36 777.894ZM2296.38 774.409 2313.47 774.409C2316.97 774.409 2319.69 774.717 2321.65 775.332 2323.6 775.948 2325.02 776.861 2325.89 778.072 2326.77 779.284 2327.2 780.813 2327.2 782.659 2327.2 785.419 2326.44 787.693 2324.92 789.48 2323.41 791.267 2320.96 792.816 2317.58 794.127L2317.52 794.454C2319.39 795.209 2320.83 796.261 2321.86 797.611 2322.88 798.962 2323.39 800.52 2323.39 802.288 2323.39 804.71 2322.81 806.825 2321.65 808.632 2320.49 810.439 2318.64 811.963 2316.09 813.204 2313.55 814.445 2309.64 815.065 2304.36 815.065L2288.18 815.065 2288.6 813.1C2289.73 812.782 2290.57 812.226 2291.1 811.432 2291.64 810.637 2292.15 809.168 2292.62 807.023L2298.04 782.451C2298.3 781.279 2298.43 780.118 2298.43 778.966 2298.43 778.132 2298.24 777.521 2297.85 777.134 2297.46 776.747 2296.83 776.494 2295.96 776.375Z" fill="#D74514" fill-rule="evenodd"/><text fill="#000000" fill-opacity="0" font-family="Arial,Arial_MSFontService,sans-serif" font-size="40.6567" x="2288.18" y="809.983">𝑩</text><path d="M2362.4 780.228 2412.33 780.228 2412.33 785.618 2362.4 785.618ZM2362.4 763.409 2412.33 763.409 2412.33 768.799 2362.4 768.799Z" fill="#D74514" fill-rule="evenodd"/><text fill="#000000" fill-opacity="0" font-family="Arial,Arial_MSFontService,sans-serif" font-size="22.209" x="2362.4" y="782.842">=</text><path d="M2469.6 761.585C2467.09 761.585 2464.86 762.848 2462.91 765.374 2460.97 767.901 2459.4 771.298 2458.21 775.567 2457.02 779.836 2456.43 783.659 2456.43 787.036 2456.43 789.009 2456.72 790.481 2457.3 791.454 2457.88 792.426 2458.78 792.913 2460 792.913 2461.78 792.913 2463.6 792.041 2465.45 790.299 2467.3 788.556 2468.79 786.509 2469.93 784.159 2471.06 781.808 2472.07 778.593 2472.97 774.513L2473.29 773.014C2473.72 771.014 2473.94 769.015 2473.94 767.016 2473.94 765.232 2473.6 763.882 2472.92 762.963 2472.25 762.044 2471.14 761.585 2469.6 761.585ZM2469.12 757.37C2473.14 757.37 2476.57 758.343 2479.41 760.288L2483.34 757.37 2487.88 758.019 2481.31 785.577C2480.91 787.279 2480.71 788.819 2480.71 790.197 2480.71 791.089 2480.85 791.778 2481.15 792.264 2481.45 792.751 2481.96 792.994 2482.69 792.994 2483.53 792.994 2484.43 792.615 2485.41 791.859 2486.38 791.102 2487.51 789.981 2488.81 788.495L2491.73 791.413C2488.89 794.25 2486.45 796.202 2484.39 797.269 2482.34 798.337 2480.18 798.87 2477.91 798.87 2475.64 798.87 2473.84 798.242 2472.52 796.986 2471.2 795.729 2470.53 794.074 2470.53 792.021 2470.53 791.346 2470.61 790.697 2470.78 790.076L2470.21 789.995C2468.24 792.318 2466.54 794.068 2465.12 795.243 2463.7 796.418 2462.2 797.317 2460.6 797.938 2459.01 798.559 2457.24 798.87 2455.3 798.87 2452.05 798.87 2449.59 797.769 2447.92 795.567 2446.24 793.365 2445.41 790.157 2445.41 785.942 2445.41 782.294 2445.93 778.674 2446.99 775.081 2448.04 771.487 2449.55 768.387 2451.53 765.78 2453.5 763.172 2455.98 761.119 2458.96 759.619 2461.95 758.12 2465.33 757.37 2469.12 757.37Z" fill="#D74514" fill-rule="evenodd"/><text fill="#000000" fill-opacity="0" font-family="Arial,Arial_MSFontService,sans-serif" font-size="41.5" x="2445.41" y="793.683">𝒂</text><path d="M2500.39 727.361 2515.55 727.361 2515.11 729.327C2514.25 729.406 2513.63 729.669 2513.24 730.116 2512.86 730.563 2512.66 731.144 2512.66 731.858 2512.66 732.454 2512.77 733.164 2512.99 733.988 2513.21 734.812 2513.55 735.8 2514 736.952L2515.88 741.896 2519.87 736.952C2521.14 735.363 2522.03 734.167 2522.52 733.363 2523.02 732.558 2523.27 731.888 2523.27 731.352 2523.27 730.677 2523.1 730.195 2522.76 729.907 2522.42 729.62 2521.87 729.426 2521.09 729.327L2521.54 727.361 2533.93 727.361 2533.48 729.356C2533.01 729.436 2532.53 729.625 2532.05 729.922 2531.58 730.22 2530.93 730.776 2530.1 731.59 2529.28 732.404 2527.91 733.924 2526.01 736.147L2517.46 746.066 2522.73 759.797C2523.52 761.882 2524.23 763.386 2524.86 764.309 2525.49 765.233 2526.31 765.813 2527.35 766.052L2526.93 768.018 2511.74 768.018 2512.16 766.052C2513.73 765.893 2514.51 765.178 2514.51 763.907 2514.51 763.192 2514.42 762.468 2514.24 761.733 2514.06 760.998 2513.8 760.184 2513.47 759.291L2510.82 752.291 2504.65 759.648C2503.74 760.74 2503.09 761.604 2502.71 762.239 2502.34 762.875 2502.15 763.5 2502.15 764.116 2502.15 765.307 2502.88 765.952 2504.35 766.052L2503.94 768.018 2491.52 768.018 2491.93 766.052C2492.75 765.833 2493.56 765.377 2494.36 764.682 2495.16 763.987 2496.69 762.358 2498.93 759.797L2509.21 748.181 2504.65 736.147C2504.33 735.333 2503.95 734.41 2503.5 733.377 2503.06 732.345 2502.65 731.556 2502.28 731.01 2501.92 730.463 2501.56 730.071 2501.21 729.833 2500.86 729.595 2500.44 729.426 2499.94 729.327Z" fill="#D74514" fill-rule="evenodd"/><text fill="#000000" fill-opacity="0" font-family="Arial,Arial_MSFontService,sans-serif" font-size="40.6567" x="2491.52" y="762.935">𝑿</text><path d="M2548.29 764.409 2545.46 777.348C2546.15 777.397 2547.19 777.422 2548.59 777.422 2550.61 777.422 2552.21 777.047 2553.39 776.299 2554.57 775.55 2555.44 774.5 2556.01 773.149 2556.58 771.798 2556.86 770.415 2556.86 768.999 2556.86 765.939 2555.13 764.409 2551.66 764.409ZM2554.35 749.809C2553.21 749.809 2552.25 749.85 2551.47 749.931L2548.91 761.552 2552.71 761.552C2554.15 761.552 2555.4 761.231 2556.46 760.588 2557.53 759.945 2558.35 759.054 2558.92 757.915 2559.48 756.775 2559.77 755.465 2559.77 753.984 2559.77 752.584 2559.33 751.539 2558.45 750.847 2557.57 750.155 2556.21 749.809 2554.35 749.809ZM2542.07 746.953 2556.08 746.953C2558.95 746.953 2561.18 747.205 2562.78 747.71 2564.39 748.214 2565.55 748.963 2566.26 749.956 2566.98 750.949 2567.34 752.202 2567.34 753.716 2567.34 755.978 2566.72 757.841 2565.47 759.306 2564.23 760.771 2562.22 762.041 2559.45 763.115L2559.4 763.383C2560.93 764.002 2562.12 764.865 2562.96 765.971 2563.79 767.078 2564.21 768.356 2564.21 769.804 2564.21 771.79 2563.74 773.523 2562.78 775.005 2561.83 776.486 2560.31 777.735 2558.23 778.752 2556.15 779.769 2552.94 780.278 2548.61 780.278L2535.36 780.278 2535.7 778.667C2536.62 778.406 2537.31 777.951 2537.75 777.299 2538.19 776.648 2538.6 775.444 2538.99 773.686L2543.44 753.545C2543.65 752.584 2543.75 751.632 2543.75 750.688 2543.75 750.005 2543.6 749.504 2543.28 749.187 2542.96 748.869 2542.44 748.662 2541.73 748.564Z" fill="#D74514" fill-rule="evenodd"/><text fill="#000000" fill-opacity="0" font-family="Arial,Arial_MSFontService,sans-serif" font-size="33.3252" x="2535.36" y="776.112">𝑩</text><path d="M2741.49 761.585C2738.98 761.585 2737.03 762.902 2735.64 765.536 2734.25 768.171 2733.55 771.879 2733.55 776.661 2733.55 781.984 2734.13 785.955 2735.29 788.576 2736.45 791.197 2738.26 792.507 2740.72 792.507 2741.88 792.507 2743.04 792.217 2744.19 791.636 2745.34 791.055 2746.3 790.164 2747.09 788.961 2747.87 787.759 2748.26 786.374 2748.26 784.807L2748.26 771.312C2748.26 768.015 2747.71 765.57 2746.6 763.976 2745.49 762.382 2743.79 761.585 2741.49 761.585ZM2691.97 761.585C2689.29 761.585 2687.35 762.862 2686.15 765.415 2684.95 767.968 2684.35 772.001 2684.35 777.512 2684.35 783.24 2684.99 787.529 2686.27 790.38 2687.56 793.23 2689.49 794.655 2692.09 794.655 2694.65 794.655 2696.55 793.406 2697.76 790.907 2698.98 788.407 2699.58 784.415 2699.58 778.931 2699.58 773.122 2698.94 768.779 2697.66 765.901 2696.38 763.024 2694.48 761.585 2691.97 761.585ZM2692.13 757.37C2698.67 757.37 2703.6 759.093 2706.92 762.537 2710.24 765.982 2711.91 771.028 2711.91 777.674 2711.91 784.537 2710.15 789.785 2706.64 793.419 2703.12 797.053 2698.07 798.87 2691.48 798.87 2685.13 798.87 2680.3 797.134 2676.99 793.662 2673.68 790.191 2672.03 785.104 2672.03 778.404 2672.03 773.649 2672.9 769.69 2674.64 766.529 2676.38 763.368 2678.75 761.051 2681.75 759.579 2684.75 758.106 2688.21 757.37 2692.13 757.37ZM2626.07 757.37C2629.02 757.37 2631.33 757.958 2633 759.133 2634.68 760.308 2635.89 762.017 2636.65 764.26 2639.38 761.72 2641.75 759.937 2643.76 758.91 2645.77 757.884 2647.88 757.37 2650.06 757.37 2652.22 757.37 2654.01 757.654 2655.43 758.221 2656.85 758.789 2658.02 759.667 2658.94 760.856 2659.86 762.044 2660.53 763.53 2660.95 765.314 2661.36 767.097 2661.57 769.231 2661.57 771.717L2661.57 786.509C2661.57 789.076 2661.65 790.846 2661.82 791.818 2661.98 792.791 2662.32 793.568 2662.83 794.149 2663.34 794.73 2664.29 795.196 2665.67 795.547L2665.67 798.222 2646.13 798.222 2646.13 795.547C2647.35 795.25 2648.19 794.817 2648.65 794.25 2649.1 793.683 2649.42 792.899 2649.6 791.899 2649.77 790.9 2649.86 789.117 2649.86 786.55L2649.86 775.689C2649.86 773.257 2649.78 771.278 2649.62 769.751 2649.46 768.225 2649.14 767.029 2648.69 766.165 2648.23 765.3 2647.68 764.679 2647.04 764.3 2646.41 763.922 2645.58 763.733 2644.55 763.733 2643.85 763.733 2643.2 763.841 2642.61 764.057 2642.01 764.273 2641.41 764.604 2640.8 765.05 2640.2 765.496 2639.68 765.948 2639.24 766.408 2638.81 766.867 2638.47 767.38 2638.21 767.948 2637.95 768.515 2637.78 769.15 2637.68 769.853 2637.59 770.555 2637.54 771.703 2637.54 773.297L2637.54 786.509C2637.54 788.914 2637.61 790.65 2637.74 791.717 2637.88 792.784 2638.2 793.608 2638.72 794.189 2639.23 794.77 2640.09 795.223 2641.31 795.547L2641.31 798.222 2622.02 798.222 2622.02 795.547C2623.26 795.25 2624.12 794.817 2624.59 794.25 2625.06 793.683 2625.38 792.906 2625.54 791.92 2625.71 790.934 2625.79 789.144 2625.79 786.55L2625.79 775.689C2625.79 773.905 2625.75 772.399 2625.69 771.17 2625.62 769.94 2625.5 768.948 2625.34 768.191 2625.18 767.434 2624.96 766.773 2624.67 766.205 2624.39 765.638 2624.07 765.178 2623.7 764.827 2623.34 764.476 2622.9 764.206 2622.4 764.017 2621.9 763.828 2621.28 763.733 2620.52 763.733 2619.52 763.733 2618.47 764.044 2617.38 764.665 2616.28 765.286 2615.37 766.151 2614.62 767.259 2613.88 768.367 2613.51 769.555 2613.51 770.825L2613.51 786.509C2613.51 789.049 2613.58 790.826 2613.73 791.839 2613.88 792.852 2614.2 793.649 2614.68 794.23 2615.17 794.811 2616.02 795.25 2617.24 795.547L2617.24 798.222 2597.82 798.222 2597.82 795.547C2599.12 795.196 2600.02 794.736 2600.52 794.169 2601.02 793.602 2601.36 792.832 2601.53 791.859 2601.71 790.886 2601.8 789.117 2601.8 786.55L2601.8 769.893C2601.8 767.894 2601.76 766.415 2601.69 765.455 2601.63 764.496 2601.46 763.726 2601.21 763.145 2600.95 762.564 2600.56 762.092 2600.03 761.727 2599.51 761.362 2598.59 761.045 2597.3 760.774L2597.3 758.019 2608.4 757.694 2613.51 757.694 2612.9 763.53 2613.39 763.652C2615.84 761.355 2618.06 759.734 2620.03 758.789 2622.01 757.843 2624.02 757.37 2626.07 757.37ZM2754.91 740.187 2759.97 740.187 2759.97 786.388C2759.97 788.441 2760.01 789.941 2760.07 790.886 2760.14 791.832 2760.3 792.588 2760.54 793.156 2760.78 793.723 2761.18 794.189 2761.72 794.554 2762.26 794.919 2763.16 795.236 2764.43 795.506L2764.43 798.222 2753.41 798.586 2748.5 798.586 2748.87 792.751 2748.26 792.71C2746.32 794.682 2744.27 796.202 2742.12 797.269 2739.97 798.337 2737.91 798.87 2735.94 798.87 2731.02 798.87 2727.34 797.182 2724.9 793.804 2722.45 790.427 2721.23 785.348 2721.23 778.566 2721.23 773.973 2721.97 770.103 2723.46 766.955 2724.94 763.807 2727.15 761.423 2730.08 759.802 2733.02 758.181 2736.55 757.37 2740.68 757.37 2741.87 757.37 2743.04 757.444 2744.19 757.593 2745.34 757.742 2746.69 758.032 2748.26 758.464L2748.26 754.776C2748.26 751.885 2748.22 749.839 2748.14 748.637 2748.06 747.434 2747.89 746.516 2747.63 745.881 2747.38 745.246 2746.99 744.753 2746.48 744.401 2745.96 744.05 2745.03 743.74 2743.68 743.469L2743.68 740.754Z" fill="#D74514" fill-rule="evenodd"/><text fill="#000000" fill-opacity="0" font-family="Arial,Arial_MSFontService,sans-serif" font-size="58.6836" x="2597.3" y="791.535">𝐦𝐨𝐝</text><path d="M2817.75 763.328C2815.97 763.328 2814.15 764.199 2812.3 765.942 2810.45 767.684 2808.97 769.704 2807.86 772.001 2806.75 774.297 2805.74 777.539 2804.82 781.727L2804.5 783.227C2804.06 785.226 2803.85 787.185 2803.85 789.103 2803.85 791.075 2804.18 792.494 2804.84 793.358 2805.5 794.223 2806.62 794.655 2808.19 794.655 2809.54 794.655 2810.77 794.351 2811.87 793.743 2812.98 793.136 2814.03 792.143 2815.01 790.765 2816 789.387 2816.96 787.61 2817.89 785.435 2818.82 783.26 2819.63 780.66 2820.3 777.634 2820.98 774.608 2821.32 771.798 2821.32 769.204 2821.32 767.205 2821.03 765.726 2820.44 764.766 2819.86 763.807 2818.97 763.328 2817.75 763.328ZM2799.88 757.37C2802.12 757.37 2803.91 757.998 2805.25 759.255 2806.58 760.511 2807.25 762.166 2807.25 764.219 2807.25 764.895 2807.17 765.543 2807.01 766.165L2807.42 766.489C2809.9 763.328 2812.31 761.018 2814.63 759.559 2816.95 758.1 2819.64 757.37 2822.69 757.37 2825.75 757.37 2828.12 758.478 2829.81 760.693 2831.5 762.909 2832.34 766.111 2832.34 770.298 2832.34 773.946 2831.81 777.566 2830.76 781.16 2829.71 784.753 2828.19 787.854 2826.22 790.461 2824.25 793.068 2821.77 795.121 2818.78 796.621 2815.8 798.12 2812.43 798.87 2808.67 798.87 2806.27 798.87 2803.94 798.451 2801.7 797.614L2800.16 804.828C2799.92 806.016 2799.74 806.942 2799.63 807.604 2799.53 808.266 2799.47 808.88 2799.47 809.448 2799.47 810.61 2799.78 811.447 2800.38 811.961 2800.99 812.474 2802.04 812.812 2803.52 812.974L2803.08 815.648 2786.22 815.648 2796.47 770.055C2796.88 768.245 2797.08 766.908 2797.08 766.043 2797.08 765.151 2796.93 764.462 2796.64 763.976 2796.34 763.49 2795.82 763.247 2795.09 763.247 2794.26 763.247 2793.35 763.625 2792.38 764.381 2791.41 765.138 2790.27 766.259 2788.98 767.745L2786.06 764.827C2788.76 762.071 2791.16 760.14 2793.25 759.032 2795.34 757.924 2797.55 757.37 2799.88 757.37Z" fill="#D74514" fill-rule="evenodd"/><text fill="#000000" fill-opacity="0" font-family="Arial,Arial_MSFontService,sans-serif" font-size="58.2783" x="2786.06" y="808.364">𝒑</text><text fill="#D74514" font-family="Microsoft YaHei,Microsoft YaHei_MSFontService,sans-serif" font-weight="700" font-size="83" transform="matrix(1 0 0 1 2062.18 1228)">计算</text><path d="M2265.27 1172.91 2285.65 1172.91 2285.09 1175.59C2283.55 1176.02 2282.41 1176.78 2281.68 1177.86 2280.95 1178.94 2280.26 1180.94 2279.62 1183.85L2276.58 1197.55 2277.18 1197.55C2278.32 1197.55 2279.35 1197.36 2280.26 1196.97 2281.18 1196.57 2282.2 1195.94 2283.3 1195.06 2284.41 1194.18 2286.22 1192.5 2288.73 1190.01 2291.25 1187.53 2293.06 1185.61 2294.19 1184.26 2295.31 1182.91 2296.1 1181.77 2296.58 1180.84 2297.05 1179.9 2297.29 1179.05 2297.29 1178.26 2297.29 1177.32 2297.07 1176.66 2296.64 1176.3 2296.2 1175.93 2295.49 1175.7 2294.49 1175.59L2295.1 1172.91 2314.87 1172.91 2314.27 1175.67C2313.38 1175.86 2312.59 1176.11 2311.92 1176.44 2311.24 1176.76 2310.4 1177.34 2309.38 1178.18 2308.37 1179.02 2306.86 1180.4 2304.86 1182.31L2290.19 1196.38 2298.74 1217.45C2299.56 1219.45 2300.27 1221 2300.89 1222.09 2301.51 1223.19 2302.14 1223.98 2302.78 1224.48 2303.41 1224.98 2304.24 1225.35 2305.27 1225.6L2304.74 1228.23 2284.48 1228.23 2285.09 1225.56C2285.82 1225.48 2286.33 1225.29 2286.63 1224.99 2286.92 1224.69 2287.07 1224.21 2287.07 1223.53 2287.07 1222.88 2286.94 1222.05 2286.67 1221.04 2286.4 1220.03 2285.82 1218.37 2284.92 1216.07L2281.24 1206.51C2280.72 1205.19 2280.24 1204.22 2279.8 1203.61 2279.35 1203 2278.88 1202.58 2278.38 1202.34 2277.88 1202.09 2277.16 1201.97 2276.21 1201.97L2275.6 1201.97 2272.24 1217.29C2272.05 1218.18 2271.92 1218.93 2271.83 1219.54 2271.75 1220.15 2271.71 1220.98 2271.71 1222.03 2271.71 1223.17 2271.98 1224 2272.5 1224.52 2273.03 1225.05 2273.89 1225.4 2275.08 1225.56L2274.51 1228.23 2254.12 1228.23 2254.69 1225.56C2256.23 1225.13 2257.37 1224.37 2258.1 1223.29 2258.83 1222.21 2259.51 1220.21 2260.16 1217.29L2267.54 1183.85C2267.89 1182.26 2268.07 1180.68 2268.07 1179.11 2268.07 1177.98 2267.8 1177.15 2267.28 1176.62 2266.75 1176.09 2265.89 1175.75 2264.7 1175.59Z" fill="#D74514" fill-rule="evenodd"/><text fill="#000000" fill-opacity="0" font-family="Arial,Arial_MSFontService,sans-serif" font-size="55.3198" x="2254.12" y="1221.32">𝑲</text><path d="M2343.79 1210.24 2393.72 1210.24 2393.72 1215.63 2343.79 1215.63ZM2343.79 1193.42 2393.72 1193.42 2393.72 1198.81 2343.79 1198.81Z" fill="#D74514" fill-rule="evenodd"/><text fill="#000000" fill-opacity="0" font-family="Arial,Arial_MSFontService,sans-serif" font-size="22.209" x="2343.79" y="1212.85">=</text><path d="M2427.37 1172.91 2447.18 1172.91 2446.58 1175.59C2444.47 1175.83 2443.41 1177.07 2443.41 1179.32 2443.41 1180.75 2443.68 1182.67 2444.23 1185.07L2447.43 1199.9 2456.71 1186.45C2458.19 1184.31 2459.17 1182.69 2459.63 1181.56 2460.08 1180.44 2460.31 1179.32 2460.31 1178.18 2460.31 1177.42 2460.1 1176.84 2459.67 1176.42 2459.23 1176 2458.48 1175.72 2457.4 1175.59L2458 1172.91 2474.62 1172.91 2474.01 1175.59C2473.31 1175.75 2472.66 1176.04 2472.07 1176.46 2471.47 1176.88 2470.64 1177.7 2469.55 1178.93 2468.47 1180.16 2466.92 1182.21 2464.89 1185.07L2449.21 1206.71 2446.86 1217.33C2446.67 1218.11 2446.54 1218.85 2446.45 1219.54 2446.37 1220.23 2446.33 1221.06 2446.33 1222.03 2446.33 1223.27 2446.65 1224.15 2447.28 1224.67 2447.92 1225.18 2448.91 1225.48 2450.26 1225.56L2449.7 1228.23 2428.18 1228.23 2428.74 1225.56C2429.93 1225.4 2430.88 1225.04 2431.58 1224.5 2432.28 1223.96 2432.87 1223.16 2433.34 1222.09 2433.82 1221.03 2434.3 1219.42 2434.78 1217.29L2437.17 1206.31 2431.9 1183.77C2431.5 1182.07 2431.1 1180.68 2430.71 1179.6 2430.32 1178.52 2429.93 1177.71 2429.53 1177.17 2429.14 1176.63 2428.76 1176.25 2428.38 1176.03 2428 1175.82 2427.46 1175.67 2426.76 1175.59Z" fill="#D74514" fill-rule="evenodd"/><text fill="#000000" fill-opacity="0" font-family="Arial,Arial_MSFontService,sans-serif" font-size="55.3198" x="2426.76" y="1221.32">𝒀</text><path d="M2499.01 1220.45 2489.81 1237.81 2499.52 1237.81 2499.4 1230.67C2499.36 1228.12 2499.34 1226.02 2499.34 1224.35 2499.34 1223.08 2499.35 1221.78 2499.37 1220.45ZM2498.6 1213.03 2507.17 1213.03 2508.45 1244.87C2508.49 1246.01 2508.57 1247.02 2508.69 1247.93 2508.81 1248.83 2509 1249.57 2509.26 1250.15 2509.52 1250.72 2509.84 1251.14 2510.23 1251.41 2510.61 1251.68 2511.11 1251.85 2511.7 1251.93L2511.25 1253.9 2495.86 1253.9 2496.3 1251.93C2497.18 1251.87 2497.87 1251.65 2498.37 1251.26 2498.88 1250.88 2499.23 1250.35 2499.43 1249.68 2499.63 1249.02 2499.73 1248.09 2499.73 1246.9 2499.73 1246.05 2499.71 1245.15 2499.67 1244.22L2499.61 1241.3 2487.96 1241.3 2487.55 1242.04C2486.43 1244.05 2485.69 1245.57 2485.33 1246.6 2484.96 1247.63 2484.78 1248.59 2484.78 1249.46 2484.78 1250.89 2485.62 1251.71 2487.31 1251.93L2486.86 1253.9 2474.29 1253.9 2474.74 1251.93C2475.43 1251.77 2476.04 1251.51 2476.57 1251.13 2477.1 1250.75 2477.6 1250.24 2478.07 1249.59 2478.55 1248.95 2479.23 1247.84 2480.1 1246.27Z" fill="#D74514" fill-rule="evenodd"/><text fill="#000000" fill-opacity="0" font-family="Arial,Arial_MSFontService,sans-serif" font-size="40.8652" x="2474.29" y="1248.79">𝑨</text><path d="M2482.93 1144.49 2498.09 1144.49 2497.64 1146.46C2496.79 1146.54 2496.17 1146.8 2495.78 1147.25 2495.39 1147.69 2495.2 1148.27 2495.2 1148.99 2495.2 1149.59 2495.31 1150.3 2495.53 1151.12 2495.75 1151.94 2496.08 1152.93 2496.54 1154.08L2498.42 1159.03 2502.41 1154.08C2503.68 1152.49 2504.56 1151.3 2505.06 1150.49 2505.56 1149.69 2505.8 1149.02 2505.8 1148.48 2505.8 1147.81 2505.64 1147.33 2505.3 1147.04 2504.96 1146.75 2504.4 1146.56 2503.63 1146.46L2504.08 1144.49 2516.47 1144.49 2516.02 1146.49C2515.54 1146.57 2515.07 1146.76 2514.59 1147.05 2514.11 1147.35 2513.46 1147.91 2512.64 1148.72 2511.82 1149.54 2510.45 1151.05 2508.54 1153.28L2500 1163.2 2505.27 1176.93C2506.06 1179.01 2506.77 1180.52 2507.4 1181.44 2508.02 1182.36 2508.85 1182.94 2509.88 1183.18L2509.47 1185.15 2494.28 1185.15 2494.69 1183.18C2496.26 1183.02 2497.05 1182.31 2497.05 1181.04 2497.05 1180.32 2496.96 1179.6 2496.78 1178.86 2496.6 1178.13 2496.34 1177.32 2496 1176.42L2493.35 1169.42 2487.19 1176.78C2486.27 1177.87 2485.63 1178.74 2485.25 1179.37 2484.88 1180.01 2484.69 1180.63 2484.69 1181.25 2484.69 1182.44 2485.42 1183.08 2486.89 1183.18L2486.47 1185.15 2474.05 1185.15 2474.47 1183.18C2475.28 1182.96 2476.09 1182.51 2476.9 1181.81 2477.7 1181.12 2479.23 1179.49 2481.47 1176.93L2491.75 1165.31 2487.19 1153.28C2486.87 1152.46 2486.49 1151.54 2486.04 1150.51 2485.59 1149.48 2485.19 1148.69 2484.82 1148.14 2484.45 1147.59 2484.1 1147.2 2483.75 1146.96 2483.4 1146.73 2482.98 1146.56 2482.48 1146.46Z" fill="#D74514" fill-rule="evenodd"/><text fill="#000000" fill-opacity="0" font-family="Arial,Arial_MSFontService,sans-serif" font-size="40.6567" x="2474.05" y="1180.07">𝑿</text><path d="M2530.83 1181.54 2528 1194.48C2528.68 1194.53 2529.73 1194.55 2531.13 1194.55 2533.14 1194.55 2534.74 1194.18 2535.92 1193.43 2537.1 1192.68 2537.98 1191.63 2538.55 1190.28 2539.12 1188.93 2539.4 1187.55 2539.4 1186.13 2539.4 1183.07 2537.67 1181.54 2534.2 1181.54ZM2536.89 1166.94C2535.75 1166.94 2534.79 1166.98 2534.01 1167.06L2531.44 1178.68 2535.25 1178.68C2536.68 1178.68 2537.93 1178.36 2539 1177.72 2540.07 1177.08 2540.88 1176.19 2541.45 1175.05 2542.02 1173.91 2542.31 1172.6 2542.31 1171.12 2542.31 1169.72 2541.87 1168.67 2540.99 1167.98 2540.11 1167.29 2538.74 1166.94 2536.89 1166.94ZM2524.61 1164.08 2538.62 1164.08C2541.49 1164.08 2543.72 1164.34 2545.32 1164.84 2546.93 1165.35 2548.09 1166.09 2548.8 1167.09 2549.52 1168.08 2549.88 1169.33 2549.88 1170.85 2549.88 1173.11 2549.25 1174.97 2548.01 1176.44 2546.76 1177.9 2544.76 1179.17 2541.99 1180.25L2541.94 1180.51C2543.47 1181.13 2544.66 1182 2545.49 1183.1 2546.33 1184.21 2546.75 1185.49 2546.75 1186.94 2546.75 1188.92 2546.27 1190.65 2545.32 1192.14 2544.37 1193.62 2542.85 1194.87 2540.77 1195.88 2538.69 1196.9 2535.48 1197.41 2531.15 1197.41L2517.89 1197.41 2518.23 1195.8C2519.16 1195.54 2519.85 1195.08 2520.29 1194.43 2520.73 1193.78 2521.14 1192.58 2521.53 1190.82L2525.97 1170.68C2526.19 1169.72 2526.29 1168.76 2526.29 1167.82 2526.29 1167.14 2526.13 1166.64 2525.82 1166.32 2525.5 1166 2524.98 1165.79 2524.27 1165.7Z" fill="#D74514" fill-rule="evenodd"/><text fill="#000000" fill-opacity="0" font-family="Arial,Arial_MSFontService,sans-serif" font-size="33.3252" x="2517.89" y="1193.24">𝑩</text><path d="M2724.03 1191.6C2721.52 1191.6 2719.57 1192.91 2718.17 1195.55 2716.78 1198.18 2716.09 1201.89 2716.09 1206.67 2716.09 1211.99 2716.67 1215.97 2717.83 1218.59 2718.99 1221.21 2720.8 1222.52 2723.26 1222.52 2724.42 1222.52 2725.58 1222.23 2726.73 1221.65 2727.87 1221.07 2728.84 1220.17 2729.62 1218.97 2730.41 1217.77 2730.8 1216.38 2730.8 1214.82L2730.8 1201.32C2730.8 1198.03 2730.24 1195.58 2729.14 1193.99 2728.03 1192.39 2726.33 1191.6 2724.03 1191.6ZM2674.5 1191.6C2671.83 1191.6 2669.89 1192.87 2668.69 1195.43 2667.49 1197.98 2666.88 1202.01 2666.88 1207.52 2666.88 1213.25 2667.53 1217.54 2668.81 1220.39 2670.09 1223.24 2672.03 1224.67 2674.62 1224.67 2677.19 1224.67 2679.08 1223.42 2680.3 1220.92 2681.51 1218.42 2682.12 1214.43 2682.12 1208.94 2682.12 1203.13 2681.48 1198.79 2680.2 1195.91 2678.91 1193.03 2677.02 1191.6 2674.5 1191.6ZM2674.67 1187.38C2681.2 1187.38 2686.13 1189.1 2689.46 1192.55 2692.78 1195.99 2694.44 1201.04 2694.44 1207.68 2694.44 1214.55 2692.69 1219.8 2689.17 1223.43 2685.66 1227.06 2680.61 1228.88 2674.02 1228.88 2667.67 1228.88 2662.84 1227.14 2659.53 1223.67 2656.22 1220.2 2654.56 1215.11 2654.56 1208.41 2654.56 1203.66 2655.44 1199.7 2657.18 1196.54 2658.92 1193.38 2661.29 1191.06 2664.29 1189.59 2667.29 1188.12 2670.75 1187.38 2674.67 1187.38ZM2608.61 1187.38C2611.55 1187.38 2613.86 1187.97 2615.54 1189.14 2617.21 1190.32 2618.43 1192.03 2619.19 1194.27 2621.92 1191.73 2624.29 1189.95 2626.3 1188.92 2628.31 1187.89 2630.41 1187.38 2632.6 1187.38 2634.76 1187.38 2636.55 1187.66 2637.97 1188.23 2639.39 1188.8 2640.56 1189.68 2641.48 1190.87 2642.4 1192.05 2643.06 1193.54 2643.48 1195.32 2643.9 1197.11 2644.11 1199.24 2644.11 1201.73L2644.11 1216.52C2644.11 1219.09 2644.19 1220.86 2644.35 1221.83 2644.52 1222.8 2644.85 1223.58 2645.37 1224.16 2645.88 1224.74 2646.83 1225.21 2648.2 1225.56L2648.2 1228.23 2628.67 1228.23 2628.67 1225.56C2629.89 1225.26 2630.72 1224.83 2631.18 1224.26 2631.64 1223.69 2631.96 1222.91 2632.14 1221.91 2632.31 1220.91 2632.4 1219.13 2632.4 1216.56L2632.4 1205.7C2632.4 1203.27 2632.32 1201.29 2632.16 1199.76 2631.99 1198.24 2631.68 1197.04 2631.22 1196.18 2630.76 1195.31 2630.22 1194.69 2629.58 1194.31 2628.95 1193.93 2628.12 1193.74 2627.09 1193.74 2626.39 1193.74 2625.74 1193.85 2625.14 1194.07 2624.55 1194.28 2623.95 1194.61 2623.34 1195.06 2622.73 1195.51 2622.21 1195.96 2621.78 1196.42 2621.35 1196.88 2621 1197.39 2620.75 1197.96 2620.49 1198.53 2620.31 1199.16 2620.22 1199.86 2620.13 1200.57 2620.08 1201.71 2620.08 1203.31L2620.08 1216.52C2620.08 1218.92 2620.15 1220.66 2620.28 1221.73 2620.42 1222.79 2620.74 1223.62 2621.25 1224.2 2621.77 1224.78 2622.63 1225.23 2623.85 1225.56L2623.85 1228.23 2604.56 1228.23 2604.56 1225.56C2605.8 1225.26 2606.66 1224.83 2607.13 1224.26 2607.6 1223.69 2607.92 1222.92 2608.08 1221.93 2608.24 1220.94 2608.33 1219.15 2608.33 1216.56L2608.33 1205.7C2608.33 1203.92 2608.29 1202.41 2608.22 1201.18 2608.16 1199.95 2608.04 1198.96 2607.88 1198.2 2607.72 1197.44 2607.49 1196.78 2607.21 1196.22 2606.93 1195.65 2606.6 1195.19 2606.24 1194.84 2605.87 1194.49 2605.44 1194.22 2604.94 1194.03 2604.44 1193.84 2603.81 1193.74 2603.06 1193.74 2602.06 1193.74 2601.01 1194.05 2599.92 1194.68 2598.82 1195.3 2597.9 1196.16 2597.16 1197.27 2596.42 1198.38 2596.05 1199.57 2596.05 1200.84L2596.05 1216.52C2596.05 1219.06 2596.12 1220.84 2596.27 1221.85 2596.42 1222.86 2596.73 1223.66 2597.22 1224.24 2597.71 1224.82 2598.56 1225.26 2599.77 1225.56L2599.77 1228.23 2580.36 1228.23 2580.36 1225.56C2581.66 1225.21 2582.56 1224.75 2583.06 1224.18 2583.56 1223.61 2583.89 1222.84 2584.07 1221.87 2584.25 1220.9 2584.33 1219.13 2584.33 1216.56L2584.33 1199.9C2584.33 1197.9 2584.3 1196.42 2584.23 1195.47 2584.16 1194.51 2584 1193.74 2583.75 1193.16 2583.49 1192.57 2583.1 1192.1 2582.57 1191.74 2582.04 1191.37 2581.13 1191.06 2579.83 1190.78L2579.83 1188.03 2590.94 1187.7 2596.05 1187.7 2595.44 1193.54 2595.92 1193.66C2598.38 1191.37 2600.6 1189.74 2602.57 1188.8 2604.54 1187.85 2606.56 1187.38 2608.61 1187.38ZM2737.44 1170.2 2742.51 1170.2 2742.51 1216.4C2742.51 1218.45 2742.54 1219.95 2742.61 1220.9 2742.68 1221.84 2742.83 1222.6 2743.08 1223.17 2743.32 1223.73 2743.71 1224.2 2744.25 1224.56 2744.79 1224.93 2745.7 1225.25 2746.97 1225.52L2746.97 1228.23 2735.95 1228.6 2731.04 1228.6 2731.41 1222.76 2730.8 1222.72C2728.85 1224.69 2726.81 1226.21 2724.66 1227.28 2722.51 1228.35 2720.45 1228.88 2718.48 1228.88 2713.56 1228.88 2709.88 1227.19 2707.43 1223.81 2704.99 1220.44 2703.77 1215.36 2703.77 1208.58 2703.77 1203.98 2704.51 1200.11 2706 1196.97 2707.48 1193.82 2709.69 1191.43 2712.62 1189.81 2715.55 1188.19 2719.09 1187.38 2723.22 1187.38 2724.41 1187.38 2725.58 1187.45 2726.73 1187.6 2727.87 1187.75 2729.23 1188.04 2730.8 1188.47L2730.8 1184.79C2730.8 1181.9 2730.76 1179.85 2730.68 1178.65 2730.6 1177.44 2730.43 1176.53 2730.17 1175.89 2729.91 1175.26 2729.53 1174.76 2729.02 1174.41 2728.5 1174.06 2727.57 1173.75 2726.22 1173.48L2726.22 1170.76Z" fill="#D74514" fill-rule="evenodd"/><text fill="#000000" fill-opacity="0" font-family="Arial,Arial_MSFontService,sans-serif" font-size="58.6836" x="2579.83" y="1221.55">𝐦𝐨𝐝</text><path d="M2800.29 1193.34C2798.5 1193.34 2796.69 1194.21 2794.84 1195.95 2792.99 1197.69 2791.51 1199.71 2790.4 1202.01 2789.29 1204.31 2788.28 1207.55 2787.36 1211.74L2787.03 1213.24C2786.6 1215.24 2786.39 1217.2 2786.39 1219.11 2786.39 1221.09 2786.72 1222.5 2787.38 1223.37 2788.04 1224.23 2789.16 1224.67 2790.72 1224.67 2792.07 1224.67 2793.3 1224.36 2794.41 1223.75 2795.52 1223.15 2796.57 1222.15 2797.55 1220.78 2798.54 1219.4 2799.5 1217.62 2800.43 1215.45 2801.36 1213.27 2802.17 1210.67 2802.84 1207.64 2803.52 1204.62 2803.85 1201.81 2803.85 1199.21 2803.85 1197.22 2803.56 1195.74 2802.98 1194.78 2802.4 1193.82 2801.5 1193.34 2800.29 1193.34ZM2782.41 1187.38C2784.66 1187.38 2786.45 1188.01 2787.78 1189.27 2789.12 1190.52 2789.79 1192.18 2789.79 1194.23 2789.79 1194.91 2789.71 1195.55 2789.55 1196.18L2789.95 1196.5C2792.44 1193.34 2794.84 1191.03 2797.17 1189.57 2799.49 1188.11 2802.18 1187.38 2805.23 1187.38 2808.28 1187.38 2810.66 1188.49 2812.34 1190.7 2814.03 1192.92 2814.88 1196.12 2814.88 1200.31 2814.88 1203.96 2814.35 1207.58 2813.3 1211.17 2812.24 1214.76 2810.73 1217.86 2808.76 1220.47 2806.79 1223.08 2804.31 1225.13 2801.32 1226.63 2798.34 1228.13 2794.96 1228.88 2791.21 1228.88 2788.8 1228.88 2786.48 1228.46 2784.24 1227.62L2782.7 1234.84C2782.46 1236.03 2782.28 1236.95 2782.17 1237.61 2782.06 1238.28 2782.01 1238.89 2782.01 1239.46 2782.01 1240.62 2782.31 1241.46 2782.92 1241.97 2783.53 1242.48 2784.58 1242.82 2786.06 1242.98L2785.62 1245.66 2768.76 1245.66 2779.01 1200.07C2779.42 1198.26 2779.62 1196.92 2779.62 1196.05 2779.62 1195.16 2779.47 1194.47 2779.17 1193.99 2778.88 1193.5 2778.36 1193.26 2777.63 1193.26 2776.79 1193.26 2775.89 1193.64 2774.92 1194.39 2773.94 1195.15 2772.81 1196.27 2771.51 1197.76L2768.59 1194.84C2771.3 1192.08 2773.69 1190.15 2775.79 1189.04 2777.88 1187.93 2780.09 1187.38 2782.41 1187.38Z" fill="#D74514" fill-rule="evenodd"/><text fill="#000000" fill-opacity="0" font-family="Arial,Arial_MSFontService,sans-serif" font-size="58.2783" x="2768.59" y="1238.37">𝒑</text><path d="M1747.93 1145.39 1767.75 1145.39 1767.14 1148.07C1765.03 1148.31 1763.98 1149.55 1763.98 1151.8 1763.98 1153.23 1764.25 1155.15 1764.79 1157.55L1767.99 1172.38 1777.27 1158.93C1778.76 1156.79 1779.73 1155.17 1780.19 1154.05 1780.65 1152.92 1780.88 1151.8 1780.88 1150.66 1780.88 1149.91 1780.66 1149.32 1780.23 1148.9 1779.8 1148.48 1779.04 1148.2 1777.96 1148.07L1778.57 1145.39 1795.19 1145.39 1794.58 1148.07C1793.88 1148.23 1793.23 1148.52 1792.63 1148.94 1792.04 1149.36 1791.2 1150.18 1790.12 1151.41 1789.04 1152.64 1787.49 1154.69 1785.46 1157.55L1769.78 1179.19 1767.42 1189.81C1767.24 1190.59 1767.1 1191.33 1767.02 1192.02 1766.94 1192.71 1766.9 1193.54 1766.9 1194.51 1766.9 1195.76 1767.22 1196.63 1767.85 1197.15 1768.48 1197.66 1769.48 1197.96 1770.83 1198.04L1770.26 1200.71 1748.74 1200.71 1749.31 1198.04C1750.5 1197.88 1751.44 1197.52 1752.15 1196.98 1752.85 1196.44 1753.44 1195.64 1753.91 1194.57 1754.38 1193.51 1754.86 1191.9 1755.35 1189.77L1757.74 1178.79 1752.47 1156.25C1752.06 1154.55 1751.67 1153.16 1751.27 1152.08 1750.88 1151 1750.49 1150.19 1750.1 1149.65 1749.71 1149.11 1749.32 1148.73 1748.94 1148.51 1748.57 1148.3 1748.03 1148.15 1747.32 1148.07Z" fill-rule="evenodd"/><text fill="#000000" fill-opacity="0" font-family="Arial,Arial_MSFontService,sans-serif" font-size="55.3198" x="1747.32" y="1193.8">𝒀</text><path d="M1819.58 1184.11 1810.37 1201.47 1820.08 1201.47 1819.97 1194.32C1819.93 1191.78 1819.91 1189.68 1819.91 1188.01 1819.91 1186.74 1819.92 1185.44 1819.94 1184.11ZM1819.16 1176.69 1827.74 1176.69 1829.02 1208.53C1829.06 1209.66 1829.14 1210.68 1829.26 1211.58 1829.38 1212.49 1829.57 1213.23 1829.82 1213.8 1830.08 1214.38 1830.4 1214.8 1830.79 1215.07 1831.18 1215.34 1831.67 1215.51 1832.27 1215.59L1831.82 1217.56 1816.42 1217.56 1816.87 1215.59C1817.74 1215.53 1818.43 1215.31 1818.94 1214.92 1819.44 1214.53 1819.8 1214.01 1819.99 1213.34 1820.19 1212.68 1820.29 1211.75 1820.29 1210.56 1820.29 1209.7 1820.27 1208.81 1820.23 1207.88L1820.17 1204.96 1808.53 1204.96 1808.11 1205.7C1807 1207.71 1806.26 1209.23 1805.89 1210.26 1805.52 1211.29 1805.34 1212.24 1805.34 1213.12 1805.34 1214.55 1806.18 1215.37 1807.87 1215.59L1807.43 1217.56 1794.86 1217.56 1795.3 1215.59C1796 1215.43 1796.61 1215.16 1797.13 1214.79 1797.66 1214.41 1798.16 1213.9 1798.64 1213.25 1799.12 1212.61 1799.79 1211.5 1800.66 1209.93Z" fill-rule="evenodd"/><text fill="#000000" fill-opacity="0" font-family="Arial,Arial_MSFontService,sans-serif" font-size="40.8652" x="1794.86" y="1212.45">𝑨</text><path d="M1499.17 1145.39 1518.99 1145.39 1518.38 1148.07C1516.27 1148.31 1515.22 1149.55 1515.22 1151.8 1515.22 1153.23 1515.49 1155.15 1516.03 1157.55L1519.23 1172.38 1528.51 1158.93C1530 1156.79 1530.97 1155.17 1531.43 1154.05 1531.89 1152.92 1532.12 1151.8 1532.12 1150.66 1532.12 1149.91 1531.9 1149.32 1531.47 1148.9 1531.04 1148.48 1530.28 1148.2 1529.2 1148.07L1529.81 1145.39 1546.43 1145.39 1545.82 1148.07C1545.12 1148.23 1544.47 1148.52 1543.87 1148.94 1543.28 1149.36 1542.44 1150.18 1541.36 1151.41 1540.28 1152.64 1538.73 1154.69 1536.7 1157.55L1521.02 1179.19 1518.67 1189.81C1518.48 1190.59 1518.34 1191.33 1518.26 1192.02 1518.18 1192.71 1518.14 1193.54 1518.14 1194.51 1518.14 1195.76 1518.46 1196.63 1519.09 1197.15 1519.73 1197.66 1520.72 1197.96 1522.07 1198.04L1521.5 1200.71 1499.98 1200.71 1500.55 1198.04C1501.74 1197.88 1502.68 1197.52 1503.39 1196.98 1504.09 1196.44 1504.68 1195.64 1505.15 1194.57 1505.62 1193.51 1506.1 1191.9 1506.59 1189.77L1508.98 1178.79 1503.71 1156.25C1503.31 1154.55 1502.91 1153.16 1502.52 1152.08 1502.12 1151 1501.73 1150.19 1501.34 1149.65 1500.95 1149.11 1500.56 1148.73 1500.18 1148.51 1499.81 1148.3 1499.27 1148.15 1498.56 1148.07Z" fill-rule="evenodd"/><text fill="#000000" fill-opacity="0" font-family="Arial,Arial_MSFontService,sans-serif" font-size="55.3198" x="1498.56" y="1193.8">𝒀</text><path d="M1563.97 1198.2 1560.51 1213.98C1561.35 1214.04 1562.62 1214.07 1564.33 1214.07 1566.79 1214.07 1568.74 1213.62 1570.18 1212.7 1571.62 1211.79 1572.69 1210.51 1573.38 1208.86 1574.08 1207.21 1574.42 1205.52 1574.42 1203.8 1574.42 1200.06 1572.31 1198.2 1568.08 1198.2ZM1571.35 1180.38C1569.96 1180.38 1568.79 1180.43 1567.84 1180.53L1564.71 1194.71 1569.36 1194.71C1571.11 1194.71 1572.63 1194.32 1573.93 1193.53 1575.23 1192.75 1576.23 1191.66 1576.92 1190.27 1577.62 1188.88 1577.97 1187.29 1577.97 1185.48 1577.97 1183.77 1577.43 1182.49 1576.36 1181.65 1575.29 1180.81 1573.62 1180.38 1571.35 1180.38ZM1556.37 1176.9 1573.47 1176.9C1576.96 1176.9 1579.69 1177.21 1581.65 1177.82 1583.6 1178.44 1585.02 1179.35 1585.89 1180.56 1586.76 1181.77 1587.2 1183.3 1587.2 1185.15 1587.2 1187.91 1586.44 1190.18 1584.92 1191.97 1583.4 1193.76 1580.96 1195.31 1577.58 1196.62L1577.52 1196.95C1579.39 1197.7 1580.83 1198.75 1581.85 1200.1 1582.88 1201.45 1583.39 1203.01 1583.39 1204.78 1583.39 1207.2 1582.81 1209.32 1581.65 1211.12 1580.48 1212.93 1578.63 1214.45 1576.09 1215.7 1573.55 1216.94 1569.64 1217.56 1564.36 1217.56L1548.18 1217.56 1548.6 1215.59C1549.73 1215.27 1550.56 1214.72 1551.1 1213.92 1551.64 1213.13 1552.14 1211.66 1552.62 1209.51L1558.04 1184.94C1558.3 1183.77 1558.43 1182.61 1558.43 1181.46 1558.43 1180.62 1558.23 1180.01 1557.85 1179.63 1557.46 1179.24 1556.83 1178.98 1555.96 1178.87Z" fill-rule="evenodd"/><text fill="#000000" fill-opacity="0" font-family="Arial,Arial_MSFontService,sans-serif" font-size="40.6567" x="1548.18" y="1212.47">𝑩</text><path d="M1396.83 616.354 1918.06 1168.44 1911.39 1174.73 1390.17 622.646ZM1928.24 1152.52 1943.04 1201.58 1894.91 1183.99Z"/><path d="M3.33273-3.1464 524.556 548.942 517.89 555.235-3.33273 3.1464ZM534.74 533.024 549.541 582.083 501.413 564.488Z" transform="matrix(-1 0 0 1 1943.04 619.5)"/></g></svg>