<svg xmlns="http://www.w3.org/2000/svg" width="2281" height="2549" overflow="hidden"><defs><clipPath id="a"><path d="M2674 128h2281v2549H2674z"/></clipPath></defs><g clip-path="url(#a)" transform="translate(-2674 -128)"><path fill="#5d1709" d="M4692.69 577.917H3573.75v9.167h1118.94Zm-1114.35-18.333L3532.5 582.5l45.84 22.917ZM4172 655.917h-599.254v9.167H4172Zm-594.67-18.333-45.833 22.916 45.833 22.917Z"/><path fill="#d74514" fill-rule="evenodd" d="M2831.39 130.799h529.56v239.508h-529.56Zm529.56 0h529.55v239.508h-529.55Zm529.55 0h529.55v239.508H3890.5Zm529.55 0h529.55v239.508h-529.55Z"/><path fill="none" stroke="#000" stroke-linejoin="round" stroke-miterlimit="10" stroke-width="4.583" d="M3360.95 128.507v244.092m529.55-244.092v244.092m529.55-244.092v244.092M2831.39 128.507v244.092M4949.6 128.507v244.092m-2120.5-241.8h2122.79M2829.1 370.307h2122.79"/><text fill="#fff" font-family="DengXian,DengXian_MSFontService,sans-serif" font-size="83" font-weight="700" transform="translate(3068.38 278)">A<tspan x="532.416" y="0">B</tspan><tspan x="1061.39" y="0">C</tspan><tspan x="1586.94" y="0">D</tspan></text><path fill="#f8ccb9" fill-rule="evenodd" d="M3299 660c0-64.065 51.94-116 116-116s116 51.935 116 116-51.94 116-116 116-116-51.935-116-116"/><path fill="#d74514" fill-rule="evenodd" d="M3408.9 651.324q-4.125 0-7.41 3.343c-2.19 2.229-3.91 5.235-5.17 9.018-1.26 3.782-1.88 7.551-1.88 11.307 0 2.81.4 4.91 1.21 6.302q1.215 2.087 3.81 2.087c1.38 0 2.75-.473 4.12-1.418 1.36-.946 2.82-2.446 4.37-4.499 1.56-2.053 2.76-4.012 3.63-5.876.86-1.865 1.6-4.188 2.21-6.971s.91-5.201.91-7.255c0-2.107-.45-3.64-1.34-4.599s-2.38-1.439-4.46-1.439m-.64-3.202c1.7 0 3.31.203 4.82.608s3.04 1.094 4.58 2.067l3.73-2.675 2.59.649-4.17 18.885c-.3 1.324-.98 4.661-2.03 10.011q-1.665 8.511-2.7 12.036c-.68 2.351-1.54 4.492-2.57 6.424a17.9 17.9 0 0 1-3.97 5.046c-1.62 1.431-3.59 2.539-5.9 3.323s-5.04 1.175-8.2 1.175c-10.22 0-15.32-2.972-15.32-8.916 0-1.513.46-2.891 1.37-4.134.92-1.243 2.4-2.553 4.42-3.931l2.92 2.351a14 14 0 0 0-1.3 1.844q-.525.911-.75 1.763c-.14.567-.22 1.243-.22 2.026q0 3.04 2.19 4.438c1.46.932 3.66 1.398 6.61 1.398 3.32 0 5.99-.75 8-2.249s3.73-3.911 5.17-7.234q2.145-4.986 4.17-15.077l-.57-.121q-3.93 5.39-7.29 7.862t-7.26 2.472q-4.41 0-6.87-3.323c-1.63-2.215-2.45-5.377-2.45-9.483 0-4.62.91-9.058 2.72-13.314 1.81-4.255 4.32-7.639 7.54-10.152q4.815-3.768 10.74-3.769"/><text x="3379.12" y="698.477" fill-opacity="0" font-family="Arial,Arial_MSFontService,sans-serif" font-size="57.549">𝑔</text><path fill="#fdefe8" fill-rule="evenodd" d="M2891 1659.5c0-64.34 90.89-116.5 203-116.5s203 52.16 203 116.5-90.89 116.5-203 116.5-203-52.16-203-116.5"/><path fill="#d74514" fill-rule="evenodd" d="M3060.77 1631.75h16.21l-.44 1.99c-1.03.22-1.77.46-2.21.73-.45.27-.85.68-1.2 1.22s-.71 1.38-1.09 2.53-.85 3.02-1.42 5.61l-8.67 39.52h9.97c1.81 0 3.23-.18 4.27-.53s2.03-.99 2.96-1.93c.93-.93 1.85-2.19 2.74-3.79.89-1.59 1.79-3.58 2.71-5.95h3.93l-4.09 15.92h-34.29l.45-1.98c1.03-.16 1.8-.43 2.31-.79.51-.37.95-.87 1.3-1.52s.67-1.44.97-2.37.74-2.74 1.34-5.41l6.89-31.21c.59-2.7.89-4.88.89-6.52 0-1.27-.32-2.16-.95-2.66-.64-.5-1.65-.79-3.02-.87Zm59.85-.64c2.48 0 4.79.16 6.91.5s4.46.91 7.03 1.72l-2.27 10.42h-3.89c-.11-2.3-.46-4.1-1.05-5.41-.6-1.31-1.45-2.25-2.56-2.82-1.1-.56-2.58-.85-4.41-.85-2.25 0-4.22.46-5.92 1.38s-3 2.17-3.89 3.75-1.34 3.34-1.34 5.29c0 2.02.53 3.8 1.6 5.33 1.07 1.52 3.12 3.33 6.14 5.41 2.65 1.83 4.67 3.48 6.06 4.92 1.39 1.45 2.42 2.98 3.08 4.6s.99 3.5.99 5.63c0 3.3-.79 6.23-2.37 8.78s-3.81 4.52-6.68 5.92c-2.88 1.39-6.16 2.08-9.83 2.08-2.49 0-5.17-.2-8.05-.6-2.87-.41-5.45-.92-7.72-1.54l2.43-11.15h3.89c0 3.3.77 5.75 2.29 7.36 1.53 1.6 3.89 2.41 7.08 2.41q5.505 0 8.67-3c2.11-2 3.16-4.78 3.16-8.35 0-1.65-.29-3.1-.87-4.36-.58-1.25-1.46-2.46-2.64-3.6-1.17-1.15-2.87-2.47-5.08-3.96-2-1.35-3.66-2.68-4.99-3.99a16.1 16.1 0 0 1-3.16-4.39c-.78-1.63-1.17-3.44-1.17-5.44 0-3.18.77-5.99 2.31-8.42 1.54-2.44 3.71-4.31 6.52-5.64 2.81-1.32 6.05-1.98 9.73-1.98m-87.29 0c2.46 0 4.74.14 6.83.44q3.15.45 6.99 1.62l-2.43 10.99h-3.89c-.22-3.33-.94-5.73-2.17-7.2s-3.21-2.21-5.93-2.21c-3.73 0-7.2 1.87-10.4 5.6-3.2 3.72-5.73 8.65-7.6 14.77-1.86 6.12-2.8 11.8-2.8 17.04 0 4.11.73 7.13 2.19 9.08 1.46 1.94 3.7 2.92 6.73 2.92 2.03 0 3.8-.31 5.31-.92 1.51-.6 2.93-1.63 4.26-3.08 1.32-1.44 2.63-3.46 3.93-6.05h3.89l-2.48 11.51c-5.05 1.4-10.34 2.1-15.88 2.1-5.08 0-8.95-1.46-11.59-4.37-2.65-2.92-3.97-7.19-3.97-12.81 0-3.97.7-8.55 2.12-13.74s3.43-9.74 6.02-13.66c2.6-3.92 5.66-6.9 9.2-8.95 3.54-2.06 7.43-3.08 11.67-3.08"/><text x="3004.32" y="1680.68" fill-opacity="0" font-family="Arial,Arial_MSFontService,sans-serif" font-size="56.657">𝐶𝐿𝑆</text><path fill="#d74514" fill-rule="evenodd" d="M3151.88 1664.72c1.89 0 3.7.14 5.44.43s3.56.75 5.47 1.39l-1.7 7.56h-3.25c-.06-1.11-.23-2.07-.52-2.87-.29-.81-.69-1.46-1.21-1.97-.51-.5-1.17-.88-1.96-1.13-.8-.25-1.74-.37-2.83-.37-1.17 0-2.24.16-3.19.48-.95.31-1.77.76-2.44 1.35-.68.59-1.2 1.29-1.57 2.12-.36.82-.55 1.72-.55 2.69 0 .74.09 1.41.27 2.03.18.61.49 1.21.93 1.78.43.58 1.03 1.17 1.8 1.76.76.6 1.73 1.25 2.9 1.97 1.43.89 2.66 1.73 3.68 2.53 1.02.79 1.86 1.62 2.5 2.47.65.85 1.12 1.76 1.42 2.73.29.96.44 2.04.44 3.23 0 1.72-.34 3.3-1.02 4.73-.69 1.43-1.66 2.66-2.92 3.7-1.26 1.03-2.77 1.83-4.53 2.39-1.76.57-3.72.85-5.88.85-1.83 0-3.8-.15-5.9-.46-2.11-.31-4.18-.76-6.23-1.35l1.76-8.05h3.16c.06 2.39.69 4.11 1.9 5.19 1.22 1.07 3.08 1.61 5.6 1.61 1.3 0 2.46-.17 3.49-.51s1.91-.83 2.62-1.46c.72-.64 1.26-1.41 1.64-2.32.38-.92.56-1.94.56-3.07 0-.8-.09-1.52-.29-2.16q-.3-.975-1.05-1.92c-.49-.64-1.16-1.28-2.01-1.94-.84-.65-1.89-1.37-3.14-2.14-1.25-.78-2.34-1.55-3.26-2.31-.92-.77-1.69-1.56-2.31-2.38-.61-.83-1.08-1.69-1.38-2.58-.31-.89-.47-1.85-.47-2.86 0-1.67.33-3.18.99-4.54.65-1.36 1.59-2.53 2.81-3.52q1.83-1.47 4.44-2.28c1.74-.53 3.67-.8 5.79-.8"/><text x="3131.03" y="1699.59" fill-opacity="0" font-family="Arial,Arial_MSFontService,sans-serif" font-size="39.852">𝑆</text><path fill="#5d1709" d="M3086.917 733.5v146.203h9.166V733.5Zm-18.334 141.619 22.917 45.834 22.916-45.834Zm18.334 193.381v146.94h9.166V1068.5Zm-18.334 142.356 22.917 45.834 22.916-45.833Zm27.497 194.544 2.05 97.24-9.16.19-2.05-97.23Zm20.28 92.27-21.94 46.3-23.88-45.34Zm-26.443 278.83v99.442h9.166V1776.5Zm-18.334 94.858 22.916 45.834 22.917-45.833ZM3299.55 665.349l-91.85-.873.09-9.167 91.85.874Zm-87.44 17.503L3166.5 659.5l46.05-22.479Zm-122.273-312.414-2.357 173.171 9.166.125 2.357-173.172Zm-20.627 168.339 22.291 46.141 23.538-45.517Z"/><path fill="#d74514" fill-rule="evenodd" d="M2831.39 2432.75h529.56v239.5h-529.56Zm529.56 0h529.55v239.5h-529.55Zm529.55 0h529.55v239.5H3890.5Zm529.55 0h529.55v239.5h-529.55Z"/><path fill="none" stroke="#000" stroke-linejoin="round" stroke-miterlimit="10" stroke-width="4.583" d="M3360.95 2430.45v244.1m529.55-244.1v244.1m529.55-244.1v244.1m-1588.66-244.1v244.1m2118.21-244.1v244.1m-2120.5-241.8h2122.79m-2122.79 239.5h2122.79"/><text fill="#fff" font-family="DengXian,DengXian_MSFontService,sans-serif" font-size="83" font-weight="700" transform="translate(3068.38 2580)">A<tspan x="532.416" y="0">B</tspan><tspan x="1061.39" y="0">C</tspan><tspan x="1586.94" y="0">D</tspan></text><path fill="none" stroke="#5d1709" stroke-miterlimit="8" stroke-width="9.167" d="M3094.5 2065.5v123.03m542-1818.03v1817.47m537-1817.47v1817.47m521-1817.47v1817.47m-1600 .53 550 144.49"/><path fill="#5d1709" d="M3649.08 2332.5v59.23h-9.16v-59.23Zm18.34 54.65-22.92 45.83-22.92-45.83Zm-568.34-54.65v59.23h-9.16v-59.23Zm18.34 54.65-22.92 45.83-22.92-45.83Zm1060.66-54.65v59.23h-9.16v-59.23Zm18.34 54.65-22.92 45.83-22.92-45.83Zm502.66-48.65v59.23h-9.16v-59.23Zm18.34 54.65-22.92 45.83-22.92-45.83Z"/><path fill="none" stroke="#5d1709" stroke-miterlimit="8" stroke-width="9.167" d="m3632.5 2188.5 539.42 144.49m.58-144.49 521.8 144.49m-1.98-144.49L3094.5 2330.922"/><path fill="none" stroke="#fff" stroke-miterlimit="8" stroke-width="9.167" d="M3626.5 370.5v1817.47m19-1817.47v1817.47m519-1817.47v1817.47m19-1817.47v1817.47"/><path fill="#d74514" fill-rule="evenodd" d="M2686.35 965.408h16.38l-.45 1.986c-1.16.189-2.09.588-2.77 1.196-.69.607-1.04 1.492-1.04 2.654 0 1.729.45 3.904 1.34 6.525l3.36 9.808 7.5-9.484c1.16-1.459 2.07-2.654 2.72-3.586.64-.933 1.11-1.757 1.39-2.473.29-.716.43-1.344.43-1.884 0-.73-.22-1.351-.65-1.864s-1.17-.811-2.23-.892l.45-1.986h15.12l-.45 1.986c-.81.243-1.57.635-2.29 1.175q-1.08.811-2.55 2.432c-.99 1.081-2.82 3.215-5.5 6.403l-12.07 14.428 5.91 16.458c.9 2.48 1.63 4.38 2.19 5.69.57 1.31 1.07 2.28 1.5 2.9.35.46.72.82 1.1 1.07.38.26 1.01.52 1.9.79l-.4 1.99h-16.38l.41-1.99c1.24-.19 2.19-.61 2.86-1.27.66-.67.99-1.52.99-2.58 0-1.59-.33-3.36-.97-5.31l-4.22-12.358-9.24 11.548c-1.38 1.73-2.38 3.14-3 4.24-.62 1.09-.93 2.03-.93 2.81 0 1.06.25 1.78.75 2.17q.75.585 2.13.75l-.45 1.99h-15.07l.4-1.99c.84-.27 1.6-.66 2.29-1.17.69-.52 1.58-1.39 2.68-2.62 1.09-1.23 3-3.46 5.73-6.7l12.85-15.283-6-16.657c-1-2.783-1.78-4.708-2.35-5.775q-.855-1.6-1.68-2.249-.84-.65-2.13-.892Z"/><text x="2674.12" y="1013.81" fill-opacity="0" font-family="Arial,Arial_MSFontService,sans-serif" font-size="55.32">𝑋</text><path fill="#d74514" fill-rule="evenodd" d="M2808.55 958.406h18.07v77.284h-18.07v-3.12h11.35v-71.043h-11.35Zm-69.05 0h18.08v3.121h-11.35v71.043h11.35v3.12h-18.08Zm40.75 4.368h2.35l-7.94 35.38h1.3c2.02 0 4.3-.885 6.83-2.654q3.78-2.655 6.06-4.924c1.51-1.513 2.27-2.972 2.27-4.377q0-1.986-2.76-2.229l.45-1.986h13.13l.77 1.986a123 123 0 0 1-7.14 5.957l-10.05 7.781 3.97 14.632c.33 1.24.62 2.14.88 2.69.25.56.55.97.89 1.24.33.27.79.41 1.35.41q1.065 0 2.52-1.14c.97-.76 2.08-1.85 3.32-3.28l2.31 2.27c-2.43 2.56-4.44 4.35-6.04 5.35q-2.385 1.5-4.62 1.5c-1.83 0-3.29-.52-4.37-1.56-1.09-1.04-1.94-2.78-2.56-5.21l-2.67-10.54q-.405-1.575-.81-2.19c-.27-.4-.58-.67-.94-.81-.35-.13-.97-.2-1.86-.2h-2.8l-4.21 19.86h-7.01l10.41-46.325q.525-2.35.75-3.668c.15-.878.23-1.654.23-2.33 0-1.135-.35-1.932-1.04-2.391s-1.92-.716-3.71-.77l.49-2.107Z"/><text x="2762.87" y="1014.05" fill-opacity="0" font-family="Arial,Arial_MSFontService,sans-serif" font-size="58.602">𝑘</text><path fill="#d74514" fill-rule="evenodd" d="M2701.44 1300.65h42.31l-3.16 14.27h-3.89c0-2.62-.07-4.59-.21-5.9-.13-1.31-.39-2.31-.77-3-.37-.69-.84-1.16-1.39-1.42-.56-.25-1.54-.38-2.94-.38h-6l-8.8 39.96c-.24 1.05-.41 1.89-.5 2.51-.1.62-.18 1.28-.24 1.97-.07.69-.11 1.3-.11 1.84 0 .84.14 1.49.41 1.97.27.47.67.81 1.21 1.03.55.22 1.48.38 2.8.49l-.44 1.98h-17.07l.45-1.98c1.08-.17 1.88-.38 2.39-.65s.97-.69 1.36-1.26q.585-.855 1.17-2.67c.4-1.22.86-3.06 1.4-5.52l8.67-39.67h-5.14c-1.68 0-3.01.24-4.01.73-1 .48-2 1.39-3 2.71-1 1.33-2.22 3.54-3.65 6.65h-3.89Z"/><text x="2698.4" y="1349.06" fill-opacity="0" font-family="Arial,Arial_MSFontService,sans-serif" font-size="55.32">𝑇</text><path fill="#d74514" fill-rule="evenodd" d="M2806.23 1293.65h18.07v77.28h-18.07v-3.12h11.34v-71.04h-11.34Zm-50.35 0h18.08v3.12h-11.35v71.04h11.35v3.12h-18.08Zm36.46 23.21h2.39l-5.84 26.02c-.59 2.65-.89 4.65-.89 6 0 1.08.18 1.86.53 2.35s.9.73 1.66.73c.81 0 1.67-.33 2.59-.99.92-.67 2.22-1.93 3.89-3.79l2.31 2.27c-2.64 2.78-4.79 4.67-6.44 5.67q-2.475 1.5-5.55 1.5c-1.76 0-3.16-.64-4.22-1.93-1.05-1.28-1.58-2.92-1.58-4.92q0-3.075 1.14-7.86l3.04-13.25c.62-2.71.93-4.73.93-6.08 0-1.22-.29-2.04-.87-2.48-.58-.43-1.73-.67-3.43-.72l.45-2.15Zm-1.1-15.52h7.18l-1.87 7.86h-7.17Z"/><text x="2781.19" y="1349.71" fill-opacity="0" font-family="Arial,Arial_MSFontService,sans-serif" font-size="55.279">𝑖</text><path fill="#5d1709" d="m2841.56 1323.92 135.61 1.7-.11 9.16-135.62-1.7Zm131.26-16.69 45.54 23.49-46.11 22.34Zm-131.29-318.313 135.61.877-.06 9.166-135.61-.877Zm131.15-17.486 45.68 23.213-45.98 22.616Z"/><path fill="none" stroke="#d74514" stroke-miterlimit="8" stroke-width="9.167" d="M3017.5 659.5c0-40.869 33.35-74 74.5-74s74.5 33.131 74.5 74-33.35 74-74.5 74-74.5-33.131-74.5-74Zm148.13 0h-148.129m73.999 74.129V585.5m-74 409c0-40.869 33.35-74 74.5-74s74.5 33.131 74.5 74-33.35 74-74.5 74-74.5-33.13-74.5-74Zm148.13 0h-148.129m73.999 74.13V920.501m-74 410.999c0-40.87 33.35-74 74.5-74s74.5 33.13 74.5 74-33.35 74-74.5 74-74.5-33.13-74.5-74Zm148.13 0h-148.129m73.999 74.13v-148.129m-71 733.999c0-40.87 33.13-74 74-74s74 33.13 74 74-33.13 74-74 74-74-33.13-74-74Zm148.13 0h-148.129m73.999 74.13v-148.129"/><path fill="#5d1709" d="M3636.11 728.917h-63.358v9.167h63.358Zm-58.774-18.334-45.834 22.917 45.834 22.917Zm58.634 1276.334h-426.225v9.167h426.225Zm-421.642-18.333-45.833 22.916 45.833 22.917Z"/></g></svg>