<svg xmlns="http://www.w3.org/2000/svg" width="1957" height="2742" overflow="hidden"><defs><clipPath id="a"><path d="M395 101h1957v2742H395z"/></clipPath></defs><g clip-path="url(#a)" transform="translate(-395 -101)"><path fill="#d74514" d="M395 566h801v219H395z"/><path fill="#fff" fill-rule="evenodd" d="m679.018 678.244-2.27 8.105h24.074v-8.105Zm28.288-13.212v7.7h22.047v-7.7Zm-27.721-28.774h6.971a74 74 0 0 1-4.134 7.619h23.506v5.025h-19.453a171 171 0 0 1 6.565 7.052l-4.539 3.566h36.475a138 138 0 0 0-6.484-8.105l3.444-2.513h-6.889q-3.162 5.026-6.768 9.078-1.783-1.782-4.945-3.971 6.809-6.97 11.429-17.751h6.971a111 111 0 0 1-3.729 7.619h25.532v5.025h-20.425a103 103 0 0 1 6.646 7.133l-4.62 3.485h10.456v21.642h-6.241v-2.918h-22.047v8.105h32.584a468 468 0 0 1-.811 13.861q-.567 10.213-10.375 10.213-4.944 0-12.239-.081-.567-3-1.378-6.404 7.944.406 12.402.406 4.782 0 5.187-4.783.405-3.809.568-7.7h-25.938v24.803h-6.484v-22.857q-11.307 13.697-34.043 20.912a138 138 0 0 0-3.405-5.188q19.737-5.794 31.369-17.67h-24.641v-5.512l3.891-13.617h26.829v-7.7h-28.369v-5.512h15.927a171 171 0 0 0-6.687-8.186l3.242-2.432h-5.958q-4.822 6.444-11.145 11.834-1.62-1.945-4.052-4.377 10.293-8.348 15.805-20.101"/><text x="663.374" y="706.613" fill-opacity="0" font-family="Arial,Arial_MSFontService,sans-serif" font-size="80.406">第</text><text fill="#fff" font-family="Microsoft YaHei,Microsoft YaHei_MSFontService,sans-serif" font-size="83" font-weight="700" transform="translate(769.942 706)">1 <tspan x="75.625" y="0">轮</tspan></text><path d="m464.083 785.5.001 169.846h-9.167V785.5Zm18.334 165.262L459.5 996.596l-22.916-45.834ZM1128.08 785.5v169.846h-9.16V785.5Zm18.34 165.262-22.92 45.834-22.92-45.834ZM685.083 785.5l.001 169.846h-9.167V785.5Zm18.334 165.262L680.5 996.596l-22.916-45.834ZM906.083 785.5l.001 169.846h-9.167V785.5Zm18.334 165.262-22.916 45.834-22.917-45.834Z"/><path fill-rule="evenodd" d="M473.314 849.083h16.9l-.446 1.986q-1.824.121-2.857 1.074-1.034.952-1.439 2.593t-.405 4.641v1.378q0 .73.04 1.499l.365 15.846q.04 1.743.041 8.633l-.041 8.47h.405l22.412-46.12h6.12v27.032q0 6.687-.365 19.088h.405l16.414-31.733a61 61 0 0 0 1.965-4.195q1.034-2.41 1.034-4.154 0-3.404-4.053-4.052l.446-1.986h16.576l-.446 1.986q-1.865.243-3.567 2.046-1.701 1.804-4.539 7.032l-24.357 44.782h-6.241v-29.666q0-7.214.365-15.035h-.405l-21.683 44.701h-6.362l-1.905-45.066q-.163-3.363-.709-5.147-.547-1.783-1.48-2.594-.931-.81-2.634-1.053Z"/><text x="472.868" y="897.949" fill-opacity="0" font-family="Arial,Arial_MSFontService,sans-serif" font-size="55.847">𝑊</text><path fill-rule="evenodd" d="M589.351 882.883h1.817a203 203 0 0 0-.134 5.451q-.015 1.221-.015 2.412v22.637q0 .924.06 1.594.059.67.193 1.131.135.462.358.79.223.327.521.566.357.357.953.551.596.193 1.519.327.923.135 2.219.209t3.113.104v2.591h-23.62v-2.591q1.758-.06 2.978-.134 1.222-.074 2.085-.209a10 10 0 0 0 1.385-.297q.522-.165.909-.402a4 4 0 0 0 .715-.581q.297-.313.476-.79.179-.476.283-1.161.105-.685.105-1.698v-21.356q0-1.161-.447-1.638t-1.281-.477q-.924 0-2.74.953-1.817.954-4.706 2.83a23 23 0 0 1-.715-1.37 98 98 0 0 0-.685-1.4q3.693-2.025 7.312-4.036a558 558 0 0 1 7.342-4.006m-35 0h1.817a203 203 0 0 0-.134 5.451q-.015 1.221-.015 2.412v22.637q0 .924.06 1.594.059.67.193 1.131.135.462.358.79.223.327.521.566.357.357.953.551.596.193 1.519.327.923.135 2.219.209t3.113.104v2.591h-23.62v-2.591q1.758-.06 2.978-.134 1.222-.074 2.085-.209a10 10 0 0 0 1.385-.297q.522-.165.909-.402a4 4 0 0 0 .715-.581q.297-.313.476-.79.179-.476.283-1.161.105-.685.105-1.698v-21.356q0-1.161-.447-1.638t-1.281-.477q-.924 0-2.74.953-1.817.954-4.706 2.83a23 23 0 0 1-.715-1.37 98 98 0 0 0-.685-1.4q3.693-2.025 7.312-4.036a558 558 0 0 1 7.342-4.006"/><text x="539.697" y="916.451" fill-opacity="0" font-family="Arial,Arial_MSFontService,sans-serif" font-size="38.363">11</text><path fill="#d74514" d="M395 996h801v218H395z"/><path fill="#fff" fill-rule="evenodd" d="m679.018 1107.82-2.27 8.11h24.074v-8.11Zm28.288-13.21v7.7h22.047v-7.7Zm-27.721-28.77h6.971a74 74 0 0 1-4.134 7.61h23.506v5.03h-19.453a173 173 0 0 1 6.565 7.05l-4.539 3.57h36.475c-2.189-2.95-4.35-5.65-6.484-8.11l3.444-2.51h-6.889c-2.108 3.35-4.364 6.38-6.768 9.08-1.189-1.19-2.837-2.51-4.945-3.97 4.539-4.65 8.349-10.57 11.429-17.75h6.971a111 111 0 0 1-3.729 7.61h25.532v5.03h-20.425c2.35 2.3 4.566 4.67 6.646 7.13l-4.62 3.49h10.456v21.64h-6.241v-2.92h-22.047v8.11h32.584a469 469 0 0 1-.811 13.86c-.378 6.81-3.836 10.21-10.375 10.21-3.296 0-7.376-.03-12.239-.08-.378-2-.837-4.13-1.378-6.4 5.296.27 9.43.4 12.402.4 3.188 0 4.917-1.59 5.187-4.78.27-2.54.459-5.11.568-7.7h-25.938v24.8h-6.484v-22.86c-7.538 9.14-18.886 16.11-34.043 20.92q-1.46-2.355-3.405-5.19 19.737-5.79 31.369-17.67h-24.641v-5.51l3.891-13.62h26.829v-7.7h-28.369v-5.51h15.927a170 170 0 0 0-6.687-8.19l3.242-2.43h-5.958c-3.215 4.3-6.93 8.24-11.145 11.83-1.08-1.29-2.431-2.75-4.052-4.37q10.293-8.355 15.805-20.1"/><text x="663.374" y="1136.19" fill-opacity="0" font-family="Arial,Arial_MSFontService,sans-serif" font-size="80.406">第</text><text fill="#fff" font-family="Microsoft YaHei,Microsoft YaHei_MSFontService,sans-serif" font-size="83" font-weight="700" transform="translate(769.942 1135)">2 <tspan x="75.625" y="0">轮</tspan></text><path fill-rule="evenodd" d="M691.624 849.083h16.9l-.446 1.986q-1.823.121-2.857 1.074-1.033.952-1.439 2.593-.405 1.642-.405 4.641v1.378q0 .73.041 1.499l.364 15.846q.041 1.743.041 8.633l-.041 8.47h.406l22.411-46.12h6.12v27.032q0 6.687-.365 19.088h.406l16.413-31.733a61 61 0 0 0 1.966-4.195q1.033-2.41 1.033-4.154 0-3.404-4.053-4.052l.446-1.986h16.576l-.446 1.986q-1.865.243-3.566 2.046-1.702 1.804-4.539 7.032l-24.357 44.782h-6.242v-29.666q0-7.214.365-15.035h-.405l-21.682 44.701h-6.363l-1.905-45.066q-.162-3.363-.709-5.147-.548-1.783-1.479-2.594-.933-.81-2.635-1.053Z"/><text x="691.178" y="897.949" fill-opacity="0" font-family="Arial,Arial_MSFontService,sans-serif" font-size="55.847">𝑊</text><path fill-rule="evenodd" d="M772.661 882.883h1.817a237 237 0 0 0-.134 5.451q-.015 1.221-.015 2.412v22.637q0 .924.06 1.594t.194 1.131.357.79q.224.327.521.566.357.357.953.551.596.193 1.519.327.924.135 2.219.209 1.296.074 3.113.104v2.591h-23.62v-2.591q1.758-.06 2.979-.134t2.085-.209a10 10 0 0 0 1.385-.297q.52-.165.908-.402a4 4 0 0 0 .715-.581 2.3 2.3 0 0 0 .477-.79q.178-.476.283-1.161t.104-1.698v-21.356q0-1.161-.447-1.638t-1.281-.477q-.923 0-2.74.953-1.817.954-4.706 2.83a23 23 0 0 1-.715-1.37 88 88 0 0 0-.685-1.4q3.693-2.025 7.312-4.036a558 558 0 0 1 7.342-4.006m32.677-.208q3.098 0 5.287.7t3.559 1.891a6.86 6.86 0 0 1 1.981 2.859q.61 1.668.611 3.604 0 1.162-.164 2.16a8.8 8.8 0 0 1-.566 1.965 11.5 11.5 0 0 1-1.057 1.951 19 19 0 0 1-1.639 2.085 30 30 0 0 1-1.936 2.204q-1.191 1.251-2.606 2.681t-2.964 2.979a214 214 0 0 0-3.008 3.068 68 68 0 0 0-2.68 2.948q-1.222 1.43-1.996 2.621h11.02q1.4 0 2.234-.104.834-.103 1.385-.462.551-.357.939-1.087.387-.729.893-2.01h2.77q-.148 2.114-.283 4.259-.134 2.144-.283 4.259h-25.228v-1.548a28 28 0 0 1 1.668-3.173 43 43 0 0 1 2.145-3.172 49 49 0 0 1 2.71-3.321 82 82 0 0 1 3.366-3.559q2.799-2.8 4.557-4.781t2.77-3.529q1.013-1.55 1.385-2.86a10.2 10.2 0 0 0 .372-2.799q0-1.52-.432-2.8-.431-1.281-1.236-2.174-.804-.894-2.04-1.4-1.236-.507-2.844-.507-2.77 0-4.647 1.504t-2.919 4.364h-3.902v-5.808q3.813-1.579 7.015-2.294 3.201-.714 5.763-.714"/><text x="758.007" y="916.425" fill-opacity="0" font-family="Arial,Arial_MSFontService,sans-serif" font-size="38.572">12</text><path fill-rule="evenodd" d="M917.897 849.083h16.9l-.446 1.986q-1.823.121-2.857 1.074-1.033.952-1.439 2.593-.405 1.642-.405 4.641v1.378q0 .73.041 1.499l.364 15.846q.042 1.743.041 8.633l-.041 8.47h.406l22.411-46.12h6.12v27.032q0 6.687-.365 19.088h.406l16.413-31.733a61 61 0 0 0 1.966-4.195q1.033-2.41 1.033-4.154 0-3.404-4.053-4.052l.446-1.986h16.576l-.446 1.986q-1.865.243-3.566 2.046-1.702 1.804-4.539 7.032l-24.357 44.782h-6.242v-29.666q0-7.214.365-15.035h-.405l-21.682 44.701h-6.363l-1.905-45.066q-.162-3.363-.709-5.147-.547-1.783-1.479-2.594-.933-.81-2.635-1.053Z"/><text x="917.451" y="897.949" fill-opacity="0" font-family="Arial,Arial_MSFontService,sans-serif" font-size="55.847">𝑊</text><path fill-rule="evenodd" d="M998.934 882.883h1.816q-.06 1.638-.09 2.934c-.02.864-.03 1.703-.04 2.517s-.02 1.618-.02 2.412v22.637q0 .924.06 1.594c.04.446.11.824.2 1.131.08.308.2.571.35.79.15.218.33.407.52.566q.36.357.96.551c.39.129.9.238 1.52.327q.915.135 2.22.209c.86.049 1.9.084 3.11.104v2.591h-23.622v-2.591q1.758-.06 2.979-.134t2.085-.209a10 10 0 0 0 1.385-.297q.52-.165.908-.402.418-.269.715-.581a2.3 2.3 0 0 0 .477-.79q.178-.476.283-1.161t.104-1.698v-21.356q0-1.161-.447-1.638t-1.281-.477q-.923 0-2.74.953-1.817.954-4.706 2.83a23 23 0 0 1-.715-1.37 88 88 0 0 0-.685-1.4q3.693-2.025 7.312-4.036a558 558 0 0 1 7.342-4.006m32.616-.208c1.59 0 3.07.168 4.45.506s2.58.849 3.59 1.534q1.53 1.028 2.37 2.561c.57 1.023.85 2.209.85 3.56q0 1.906-.54 3.365-.525 1.46-1.65 2.651c-.74.795-1.66 1.514-2.74 2.16-1.08.645-2.33 1.266-3.74 1.861v.358c1.33.238 2.57.62 3.73 1.146 1.15.527 2.16 1.192 3.02 1.996a9.2 9.2 0 0 1 2.04 2.785c.5 1.052.74 2.214.74 3.485 0 1.588-.29 3.063-.89 4.423a9.6 9.6 0 0 1-2.68 3.529q-1.785 1.49-4.41 2.324c-1.75.556-3.79.834-6.13.834-1.85 0-3.73-.184-5.63-.551a38 38 0 0 1-5.42-1.445v-6.434h3.84c.32.993.69 1.842 1.13 2.547q.66 1.058 1.53 1.728c.59.446 1.26.769 2.03.968q1.14.297 2.61.298 3.84 0 5.82-1.832t1.98-5.555q0-3.962-2.61-6.002c-1.73-1.36-4.31-2.04-7.73-2.04h-2.62v-2.86c2.09-.099 3.89-.392 5.41-.878 1.52-.487 2.78-1.117 3.8-1.892 1.01-.774 1.76-1.677 2.26-2.71s.74-2.135.74-3.306c0-1.906-.56-3.411-1.69-4.513-1.14-1.102-2.77-1.653-4.92-1.653-1.8 0-3.32.497-4.54 1.49-1.22.992-2.16 2.472-2.81 4.438h-3.79v-5.868c2.35-.993 4.55-1.743 6.63-2.249 2.07-.506 4.07-.759 5.97-.759"/><text x="984.28" y="916.868" fill-opacity="0" font-family="Arial,Arial_MSFontService,sans-serif" font-size="39.078">13</text><path fill-rule="evenodd" d="M1136.21 849.083h16.9l-.45 1.986c-1.21.081-2.17.439-2.86 1.074-.68.635-1.16 1.499-1.43 2.593-.27 1.095-.41 2.641-.41 4.641v1.378c0 .486.01.986.04 1.499l.37 15.846c.02 1.162.04 4.04.04 8.633l-.04 8.47h.4l22.41-46.12h6.12v27.032q0 6.687-.36 19.088h.4l16.42-31.733c.62-1.189 1.27-2.587 1.96-4.195.69-1.607 1.04-2.992 1.04-4.154 0-2.269-1.36-3.62-4.06-4.052l.45-1.986h16.57l-.44 1.986q-1.86.243-3.57 2.046c-1.13 1.203-2.65 3.546-4.54 7.032l-24.35 44.782h-6.25v-29.666c0-4.809.13-9.821.37-15.035h-.41l-21.68 44.701h-6.36l-1.91-45.066c-.1-2.242-.34-3.958-.7-5.147-.37-1.189-.86-2.053-1.48-2.594-.63-.54-1.5-.891-2.64-1.053Z"/><text x="1135.76" y="897.949" fill-opacity="0" font-family="Arial,Arial_MSFontService,sans-serif" font-size="55.847">𝑊</text><path fill-rule="evenodd" d="M1251.32 890.061c-1.9 2.76-3.81 5.501-5.7 8.221-1.9 2.72-3.81 5.451-5.74 8.191v.357h11.44v-5.986q0-1.014.03-2.502c.02-.993.05-2.001.08-3.024.03-1.022.06-1.995.1-2.919q.06-1.384.12-2.338Zm.87-6.969h4.73v23.738h.54q1.215 0 1.98-.119c.5-.079.91-.243 1.22-.491.31-.249.56-.596.77-1.043s.44-1.027.67-1.742h2.54c-.06 1.092-.13 2.174-.2 3.246s-.13 2.165-.19 3.277h-7.33v3.902c0 1.151.03 2.045.08 2.68s.19 1.132.44 1.49c.25.357.62.625 1.1.804q.735.268 2.04.625v1.787h-12.86v-1.787c.59-.159 1.1-.303 1.52-.432.41-.129.76-.278 1.04-.446.28-.169.48-.368.61-.596q.195-.342.3-.864.105-.52.12-1.31c.01-.527.01-1.177.01-1.951v-3.902h-16.77v-2.353q4.44-6.166 8.82-12.257t8.82-12.256m-34.95-.209h1.82q-.06 1.638-.09 2.934c-.02.864-.03 1.703-.04 2.517s-.02 1.618-.02 2.412v22.637q0 .924.06 1.594c.04.446.11.824.2 1.131s.2.571.35.79c.15.218.33.407.52.566q.36.357.96.551c.39.129.9.238 1.52.327q.915.135 2.22.209c.86.049 1.9.084 3.11.104v2.591h-23.62v-2.591c1.17-.04 2.16-.084 2.98-.134.81-.05 1.51-.119 2.08-.209a10 10 0 0 0 1.39-.297c.34-.11.65-.244.91-.402.27-.179.51-.373.71-.581q.3-.313.48-.79c.12-.317.21-.704.28-1.161s.1-1.023.1-1.698v-21.356c0-.774-.14-1.32-.44-1.638s-.73-.477-1.28-.477c-.62 0-1.53.318-2.74.953q-1.815.954-4.71 2.83c-.26-.457-.5-.913-.71-1.37q-.33-.685-.69-1.4c2.46-1.35 4.9-2.696 7.31-4.036 2.42-1.34 4.86-2.676 7.34-4.006"/><text x="1202.59" y="916.451" fill-opacity="0" font-family="Arial,Arial_MSFontService,sans-serif" font-size="38.363">14</text><text font-family="Microsoft YaHei,Microsoft YaHei_MSFontService,sans-serif" font-size="83" font-weight="400" transform="translate(530.028 205)">64 <tspan x="120.885" y="0">比特明文</tspan></text><path fill-rule="evenodd" d="M1016.94 149.845h16.37l-.45 1.986c-1.16.189-2.08.588-2.77 1.196-.69.607-1.04 1.492-1.04 2.654 0 1.729.45 3.904 1.34 6.525l3.37 9.808 7.49-9.484c1.16-1.459 2.07-2.654 2.72-3.586.65-.933 1.11-1.757 1.4-2.473q.42-1.074.42-1.884c0-.73-.21-1.351-.65-1.864-.43-.514-1.17-.811-2.23-.892l.45-1.986h15.12l-.45 1.986c-.81.243-1.57.635-2.29 1.175-.71.541-1.57 1.351-2.55 2.432q-1.485 1.621-5.49 6.403l-12.08 14.428 5.92 16.454q1.335 3.729 2.19 5.694c.56 1.311 1.06 2.276 1.49 2.898.36.459.72.817 1.1 1.074s1.01.52 1.9.79l-.4 1.986h-16.37l.4-1.986c1.24-.189 2.2-.615 2.86-1.276q.99-.993.99-2.574c0-1.594-.32-3.364-.97-5.309l-4.22-12.361-9.24 11.55q-2.055 2.594-3 4.236-.93 1.641-.93 2.816 0 1.581.75 2.168t2.13.75l-.45 1.986h-15.07l.4-1.986a7.8 7.8 0 0 0 2.29-1.175c.69-.514 1.58-1.385 2.68-2.614q1.635-1.844 5.73-6.707l12.85-15.279-6-16.657c-1-2.783-1.78-4.708-2.35-5.775q-.855-1.6-1.68-2.249c-.56-.433-1.26-.73-2.13-.892Z"/><text x="1004.7" y="198.25" fill-opacity="0" font-family="Arial,Arial_MSFontService,sans-serif" font-size="55.32">𝑋</text><path d="M800.714 242.5v166.44H464.5l4.583-4.584v120.607h-9.167v-125.19h336.215l-4.584 4.583V242.5ZM487.416 520.379 464.5 566.213l-22.917-45.834Z"/><path fill="#d74514" d="M443 566h42v54h-42zm221 0h41v54h-41zm221 0h42v54h-42zm221 0h42v54h-42z"/><path d="M800.136 242.5v166.439H684.5l4.583-4.583v120.606h-9.166V399.773h115.636l-4.584 4.583V242.5Zm-92.719 277.879L684.5 566.212l-22.917-45.833Z"/><path d="M790.917 242.5v166.44h114.872l-4.583-4.584v120.607h9.166v-125.19H795.5l4.583 4.583V242.5Zm91.955 277.879 22.917 45.834 22.917-45.834Z"/><path d="M790.917 242.5v166.44h336.214l-4.583-4.584v120.607h9.166v-125.19H795.5l4.583 4.583V242.5Zm313.297 277.879 22.917 45.834 22.917-45.834Z"/><path fill-rule="evenodd" d="M492.262 442.417h16.373l-.446 1.986q-1.742.283-2.776 1.195t-1.033 2.655q0 2.594 1.337 6.525l3.364 9.807 7.497-9.483q1.743-2.188 2.716-3.587.972-1.398 1.398-2.472t.426-1.884q0-1.095-.649-1.865-.648-.77-2.229-.891l.446-1.986h15.117l-.446 1.986a7.2 7.2 0 0 0-2.29 1.175q-1.074.81-2.553 2.432-1.48 1.62-5.492 6.403l-12.077 14.428 5.917 16.454q1.337 3.729 2.189 5.694.85 1.965 1.499 2.898.527.689 1.094 1.074.569.384 1.905.79l-.405 1.986h-16.373l.405-1.986q1.864-.284 2.857-1.277t.993-2.573q0-2.391-.972-5.309l-4.215-12.361-9.24 11.55q-2.067 2.594-2.999 4.235-.933 1.642-.933 2.817 0 1.58.75 2.168t2.128.75l-.446 1.986h-15.076l.405-1.986a7.8 7.8 0 0 0 2.29-1.175q1.033-.77 2.675-2.614 1.64-1.844 5.734-6.708l12.848-15.278-5.999-16.657q-1.499-4.175-2.35-5.775-.85-1.601-1.682-2.25-.83-.648-2.128-.891Z"/><text x="480.023" y="490.822" fill-opacity="0" font-family="Arial,Arial_MSFontService,sans-serif" font-size="55.32">𝑋</text><path fill-rule="evenodd" d="M548.737 476.217h1.817a219 219 0 0 0-.149 7.864v22.636q0 .924.06 1.594t.193 1.132q.135.461.358.789.224.327.521.566.357.357.953.551a9.5 9.5 0 0 0 1.519.328 27 27 0 0 0 2.219.208q1.296.075 3.113.104v2.592h-23.62v-2.592q1.757-.059 2.979-.134a23 23 0 0 0 2.085-.208 10 10 0 0 0 1.385-.298q.52-.163.908-.402a4 4 0 0 0 .715-.581q.297-.313.476-.789.18-.477.283-1.162.105-.686.105-1.698v-21.356q0-1.161-.447-1.638t-1.281-.476q-.923 0-2.74.953-1.817.952-4.706 2.829a22 22 0 0 1-.715-1.37 88 88 0 0 0-.685-1.4q3.693-2.025 7.312-4.036a569 569 0 0 1 7.342-4.006"/><text x="534.083" y="509.785" fill-opacity="0" font-family="Arial,Arial_MSFontService,sans-serif" font-size="38.363">1</text><path fill-rule="evenodd" d="M709.621 442.417h16.374l-.446 1.986q-1.743.283-2.776 1.195-1.034.912-1.034 2.655 0 2.594 1.338 6.525l3.363 9.807 7.498-9.483q1.743-2.188 2.715-3.587.974-1.398 1.398-2.472.426-1.074.426-1.884 0-1.095-.649-1.865-.648-.77-2.229-.891l.446-1.986h15.117l-.446 1.986a7.3 7.3 0 0 0-2.29 1.175q-1.074.81-2.553 2.432-1.479 1.62-5.491 6.403l-12.077 14.428 5.917 16.454q1.337 3.729 2.188 5.694.85 1.965 1.5 2.898.527.689 1.094 1.074.567.384 1.905.79l-.406 1.986H724.13l.406-1.986q1.864-.284 2.857-1.277t.993-2.573q0-2.391-.973-5.309l-4.215-12.361-9.24 11.55q-2.067 2.594-2.999 4.235-.933 1.642-.932 2.817 0 1.58.749 2.168.75.588 2.128.75l-.446 1.986h-15.076l.405-1.986a7.8 7.8 0 0 0 2.29-1.175q1.034-.77 2.675-2.614t5.735-6.708l12.847-15.278-5.998-16.657q-1.5-4.175-2.351-5.775-.85-1.601-1.682-2.25-.831-.648-2.127-.891Z"/><text x="697.382" y="490.822" fill-opacity="0" font-family="Arial,Arial_MSFontService,sans-serif" font-size="55.32">𝑋</text><path fill-rule="evenodd" d="M765.675 476.009q3.099 0 5.287.7 2.19.7 3.56 1.891a6.87 6.87 0 0 1 1.98 2.859q.61 1.669.611 3.604 0 1.163-.164 2.16a9 9 0 0 1-.566 1.966q-.402.967-1.057 1.951a19 19 0 0 1-1.638 2.085 31 31 0 0 1-1.936 2.204q-1.192 1.25-2.607 2.68t-2.963 2.979a208 208 0 0 0-3.009 3.068 69 69 0 0 0-2.68 2.948q-1.221 1.43-1.996 2.622h11.021q1.4 0 2.234-.105.833-.104 1.385-.461.55-.358.938-1.087.387-.73.893-2.011h2.77q-.148 2.115-.283 4.259a494 494 0 0 1-.283 4.26h-25.228v-1.549a28 28 0 0 1 1.668-3.172 43 43 0 0 1 2.145-3.172 49 49 0 0 1 2.71-3.322 83 83 0 0 1 3.366-3.559q2.8-2.8 4.557-4.78t2.77-3.53 1.385-2.859.373-2.8q0-1.52-.432-2.8-.432-1.281-1.236-2.174-.804-.894-2.041-1.4-1.236-.507-2.844-.506-2.77 0-4.647 1.504-1.876 1.504-2.919 4.363h-3.901v-5.808q3.811-1.579 7.014-2.293t5.763-.715"/><text x="751.944" y="509.759" fill-opacity="0" font-family="Arial,Arial_MSFontService,sans-serif" font-size="38.572">2</text><path fill-rule="evenodd" d="M935.894 442.417h16.374l-.446 1.986q-1.743.283-2.776 1.195-1.034.912-1.034 2.655 0 2.594 1.338 6.525l3.363 9.807 7.498-9.483q1.743-2.188 2.715-3.587.974-1.398 1.398-2.472.426-1.074.426-1.884 0-1.095-.648-1.865-.65-.77-2.23-.891l.446-1.986h15.117l-.446 1.986a7.3 7.3 0 0 0-2.29 1.175q-1.074.81-2.553 2.432-1.479 1.62-5.491 6.403l-12.077 14.428 5.917 16.454q1.337 3.729 2.188 5.694.85 1.965 1.5 2.898.527.689 1.094 1.074.567.384 1.905.79l-.406 1.986h-16.373l.406-1.986q1.864-.284 2.857-1.277t.993-2.573q0-2.391-.973-5.309l-4.215-12.361-9.24 11.55q-2.067 2.594-2.999 4.235-.933 1.642-.932 2.817 0 1.58.749 2.168.75.588 2.128.75l-.446 1.986h-15.076l.405-1.986a7.8 7.8 0 0 0 2.29-1.175q1.034-.77 2.675-2.614t5.735-6.708l12.847-15.278-5.998-16.657q-1.5-4.175-2.351-5.775-.85-1.601-1.682-2.25-.831-.648-2.127-.891Z"/><text x="923.655" y="490.822" fill-opacity="0" font-family="Arial,Arial_MSFontService,sans-serif" font-size="55.32">𝑋</text><path fill-rule="evenodd" d="M991.889 476.009q2.382 0 4.453.506 2.07.507 3.589 1.534a7.46 7.46 0 0 1 2.369 2.562c.56 1.022.85 2.209.85 3.559q0 1.906-.54 3.366a7.9 7.9 0 0 1-1.65 2.651c-.75.794-1.66 1.514-2.742 2.159q-1.623.968-3.738 1.862v.357q1.996.357 3.723 1.147a11.4 11.4 0 0 1 3.027 1.995 9.2 9.2 0 0 1 2.04 2.785c.49 1.053.74 2.214.74 3.485 0 1.589-.3 3.063-.89 4.423a9.6 9.6 0 0 1-2.68 3.53q-1.79 1.49-4.411 2.323-2.621.834-6.136.834-2.77 0-5.629-.551a38.6 38.6 0 0 1-5.421-1.445v-6.433h3.842q.477 1.489 1.132 2.546t1.534 1.728a5.6 5.6 0 0 0 2.025.968q1.147.298 2.607.298 3.841 0 5.823-1.832 1.98-1.832 1.98-5.555 0-3.961-2.606-6.002t-7.729-2.04h-2.621v-2.859q3.128-.15 5.406-.879 2.279-.73 3.797-1.891 1.52-1.162 2.264-2.711a7.5 7.5 0 0 0 .745-3.306q0-2.859-1.698-4.512t-4.915-1.653q-2.71 0-4.542 1.489t-2.815 4.438h-3.782v-5.868q3.514-1.489 6.627-2.249 3.113-.759 5.972-.759"/><text x="978.843" y="510.202" fill-opacity="0" font-family="Arial,Arial_MSFontService,sans-serif" font-size="39.078">3</text><path fill-rule="evenodd" d="M1154.2 442.417h16.38l-.45 1.986c-1.16.189-2.09.587-2.77 1.195-.69.608-1.04 1.493-1.04 2.655 0 1.729.45 3.904 1.34 6.525l3.36 9.807 7.5-9.483c1.16-1.459 2.07-2.654 2.72-3.587.64-.932 1.11-1.756 1.39-2.472.29-.716.43-1.344.43-1.884 0-.73-.22-1.351-.65-1.865-.43-.513-1.17-.81-2.23-.891l.45-1.986h15.12l-.45 1.986c-.81.243-1.57.635-2.29 1.175q-1.08.81-2.55 2.432c-.99 1.08-2.82 3.215-5.5 6.403l-12.07 14.428 5.91 16.454q1.35 3.729 2.19 5.694.855 1.965 1.5 2.898c.35.459.72.817 1.1 1.074.38.256 1.01.52 1.9.79l-.4 1.986h-16.38l.41-1.986c1.24-.189 2.19-.615 2.86-1.277q.99-.992.99-2.573c0-1.594-.33-3.364-.97-5.309l-4.22-12.361-9.24 11.55q-2.07 2.594-3 4.235t-.93 2.817q0 1.58.75 2.168t2.13.75l-.45 1.986h-15.07l.4-1.986a7.8 7.8 0 0 0 2.29-1.175c.69-.514 1.58-1.385 2.68-2.614q1.635-1.844 5.73-6.708l12.85-15.278-6-16.657c-1-2.783-1.78-4.708-2.35-5.775q-.855-1.601-1.68-2.25-.84-.648-2.13-.891Z"/><text x="1141.97" y="490.822" fill-opacity="0" font-family="Arial,Arial_MSFontService,sans-serif" font-size="55.32">𝑋</text><path fill-rule="evenodd" d="M1211.66 483.396c-1.91 2.76-3.81 5.5-5.71 8.22q-2.835 4.081-5.73 8.191v.358h11.44v-5.987q0-1.012.03-2.502c.02-.993.04-2.001.07-3.023a207 207 0 0 1 .23-5.257Zm.86-6.97h4.74v23.739h.53c.82 0 1.48-.04 1.99-.12.5-.079.91-.243 1.22-.491.3-.248.56-.596.77-1.043s.43-1.027.67-1.742h2.53c-.06 1.092-.12 2.174-.19 3.247s-.14 2.164-.19 3.276h-7.33v3.902c0 1.152.02 2.045.07 2.681q.075.952.45 1.489c.25.357.62.625 1.1.804q.735.268 2.04.625v1.788h-12.87v-1.788c.6-.158 1.11-.302 1.52-.431q.63-.194 1.05-.447c.27-.169.48-.368.61-.596s.23-.516.29-.864q.105-.52.12-1.31c.01-.526.02-1.177.02-1.951v-3.902h-16.77v-2.353q4.44-6.165 8.82-12.257c2.91-4.06 5.85-8.146 8.81-12.256"/><text x="1194.89" y="509.811" fill-opacity="0" font-family="Arial,Arial_MSFontService,sans-serif" font-size="38.155">4</text><path fill-rule="evenodd" d="M1384.63 570.33h35.1l-.44 1.945-36.88 49.646h12.96c1.38 0 2.5-.115 3.35-.345q1.275-.344 2.25-1.033t1.98-1.864c.68-.784 1.36-1.75 2.05-2.898q1.035-1.722 2.37-4.803h3.89l-3.12 14.671h-35.95l.41-1.985 36.8-49.606h-12.44c-1.52 0-2.72.135-3.61.405q-1.335.406-2.49 1.439c-.77.689-1.58 1.648-2.42 2.877-.83 1.23-1.81 2.979-2.91 5.249h-3.89Z"/><text x="1372.19" y="618.734" fill-opacity="0" font-family="Arial,Arial_MSFontService,sans-serif" font-size="55.32">𝑍</text><path fill-rule="evenodd" d="M1436.28 604.13h1.82q-.06 1.638-.09 2.934c-.02.863-.04 1.702-.04 2.517-.01.814-.02 1.618-.02 2.412v22.637q0 .923.06 1.593c.04.447.1.824.19 1.132q.135.462.36.789c.15.219.32.408.52.566q.36.358.96.551c.39.13.9.239 1.51.328q.93.134 2.22.209c.87.049 1.9.084 3.12.104v2.591h-23.62v-2.591q1.755-.06 2.97-.134c.82-.05 1.51-.119 2.09-.209q.87-.133 1.38-.298c.35-.109.65-.243.91-.402q.42-.267.72-.58c.2-.209.36-.472.47-.79.12-.317.22-.705.29-1.161s.1-1.023.1-1.698v-21.356q0-1.163-.45-1.638c-.29-.318-.72-.477-1.28-.477-.61 0-1.52.318-2.74.953-1.21.636-2.78 1.579-4.7 2.83q-.39-.686-.72-1.37c-.22-.457-.44-.924-.68-1.4 2.46-1.35 4.9-2.696 7.31-4.036s4.86-2.676 7.34-4.006"/><text x="1421.63" y="637.698" fill-opacity="0" font-family="Arial,Arial_MSFontService,sans-serif" font-size="38.363">1</text><path d="M1339.57 591.917h-103.816v9.167h103.816Zm-99.233-18.333-45.833 22.916 45.833 22.917Z"/><path fill-rule="evenodd" d="M1384.63 721.17h35.1l-.44 1.946-36.88 49.646h12.96c1.38 0 2.5-.115 3.35-.345q1.275-.345 2.25-1.033.975-.69 1.98-1.865c.68-.783 1.36-1.749 2.05-2.897q1.035-1.723 2.37-4.803h3.89l-3.12 14.671h-35.95l.41-1.986 36.8-49.605h-12.44c-1.52 0-2.72.135-3.61.405q-1.335.405-2.49 1.439c-.77.689-1.58 1.648-2.42 2.877-.83 1.229-1.81 2.979-2.91 5.248h-3.89Z"/><text x="1372.19" y="769.575" fill-opacity="0" font-family="Arial,Arial_MSFontService,sans-serif" font-size="55.32">𝑍</text><path fill-rule="evenodd" d="M1437.02 773.586c-1.33 0-2.55.179-3.68.536a15 15 0 0 0-3.2 1.46c-.41.278-.74.536-.97.774-.22.239-.39.522-.5.849-.11.328-.19.735-.23 1.221s-.05 1.147-.05 1.981q0 10.544 7.65 10.544c1.39 0 2.59-.204 3.59-.611q1.5-.61 2.46-1.757c.63-.764 1.1-1.708 1.4-2.83.29-1.121.44-2.397.44-3.827 0-2.661-.59-4.716-1.78-6.165-1.2-1.45-2.9-2.175-5.13-2.175m7.9-18.824c.23.278.45.546.65.804q.3.388.66.775v1.757c-2.41-.04-4.57.278-6.5.953-1.92.675-3.62 1.663-5.09 2.964q-2.205 1.95-3.69 4.795c-1 1.896-1.77 4.036-2.33 6.419l.33.149c.82-.556 1.62-1.038 2.41-1.445.8-.407 1.6-.744 2.42-1.013.81-.268 1.65-.461 2.53-.58.87-.119 1.8-.179 2.8-.179 1.75 0 3.29.258 4.63.774 1.34.517 2.48 1.271 3.41 2.264s1.64 2.184 2.11 3.574q.72 2.085.72 4.647c0 1.807-.3 3.485-.89 5.033-.6 1.549-1.49 2.88-2.68 3.992-1.2 1.112-2.67 1.975-4.43 2.591q-2.64.923-6.18.923-6.705 0-10.11-3.827c-2.27-2.552-3.41-6.31-3.41-11.274 0-2.224.25-4.353.74-6.389a23.5 23.5 0 0 1 2.19-5.689 22.4 22.4 0 0 1 3.5-4.765 23.5 23.5 0 0 1 10.07-6.166c1.97-.605 4.01-.968 6.14-1.087"/><text x="1422.28" y="789.06" fill-opacity="0" font-family="Arial,Arial_MSFontService,sans-serif" font-size="39.197">6</text><path d="M1339.57 742.917h-103.816v9.167h103.816Zm-99.233-18.333-45.833 22.916 45.833 22.917Z"/><path fill-rule="evenodd" d="M1286.73 691.262c1.41 0 2.58.493 3.53 1.479s1.42 2.236 1.42 3.749-.47 2.763-1.42 3.749-2.12 1.479-3.53 1.479c-1.4 0-2.58-.493-3.52-1.479-.95-.986-1.42-2.236-1.42-3.749s.47-2.763 1.42-3.749c.94-.986 2.12-1.479 3.52-1.479m0-21.56c1.41 0 2.58.493 3.53 1.479s1.42 2.236 1.42 3.749-.47 2.762-1.42 3.748-2.12 1.48-3.53 1.48c-1.4 0-2.58-.494-3.52-1.48-.95-.986-1.42-2.235-1.42-3.748s.47-2.763 1.42-3.749c.94-.986 2.12-1.479 3.52-1.479m0-21.561c1.41 0 2.58.493 3.53 1.479s1.42 2.236 1.42 3.749-.47 2.763-1.42 3.749-2.12 1.479-3.53 1.479c-1.4 0-2.58-.493-3.52-1.479-.95-.986-1.42-2.236-1.42-3.749s.47-2.763 1.42-3.749c.94-.986 2.12-1.479 3.52-1.479"/><text x="1281.79" y="695.021" fill-opacity="0" font-family="Arial,Arial_MSFontService,sans-serif" font-size="53.577">⋮</text><path fill-rule="evenodd" d="M1384.63 1004.71h35.1l-.44 1.94-36.88 49.65h12.96c1.38 0 2.5-.12 3.35-.35s1.6-.57 2.25-1.03 1.31-1.08 1.98-1.87c.68-.78 1.36-1.74 2.05-2.89s1.48-2.75 2.37-4.81h3.89l-3.12 14.68h-35.95l.41-1.99 36.8-49.61h-12.44c-1.52 0-2.72.14-3.61.41q-1.335.405-2.49 1.44c-.77.69-1.58 1.65-2.42 2.88-.83 1.22-1.81 2.97-2.91 5.24h-3.89Z"/><text x="1372.19" y="1053.11" fill-opacity="0" font-family="Arial,Arial_MSFontService,sans-serif" font-size="55.32">𝑍</text><path fill-rule="evenodd" d="M1423.68 1038.86h25.91v1.43l-17.48 36.73h-4.56v-1.34l16.03-31.16v-.44h-12.63c-.88 0-1.56.06-2.04.2-.49.14-.92.34-1.3.6-.16.14-.3.28-.42.43s-.23.35-.35.6-.25.57-.38.98-.28.93-.46 1.56h-2.98Z"/><text x="1423.02" y="1072.25" fill-opacity="0" font-family="Arial,Arial_MSFontService,sans-serif" font-size="38.155">7</text><path d="M1339.57 1026.917h-103.816v9.167h103.816Zm-99.233-18.333-45.833 22.916 45.833 22.917Z"/><path fill-rule="evenodd" d="M1384.63 1155.55h35.1l-.44 1.94-36.88 49.65h12.96c1.38 0 2.5-.12 3.35-.35s1.6-.57 2.25-1.03q.975-.69 1.98-1.86c.68-.79 1.36-1.75 2.05-2.9s1.48-2.75 2.37-4.81h3.89l-3.12 14.68h-35.95l.41-1.99 36.8-49.61h-12.44c-1.52 0-2.72.14-3.61.41q-1.335.405-2.49 1.44c-.77.69-1.58 1.65-2.42 2.88-.83 1.23-1.81 2.97-2.91 5.24h-3.89Z"/><text x="1372.19" y="1203.95" fill-opacity="0" font-family="Arial,Arial_MSFontService,sans-serif" font-size="55.32">𝑍</text><path fill-rule="evenodd" d="M1436.28 1189.35h1.82c-.04 1.09-.07 2.07-.09 2.93s-.04 1.7-.04 2.52c-.01.81-.02 1.62-.02 2.41v22.64q0 .915.06 1.59c.04.45.1.82.19 1.13s.21.57.36.79.32.41.52.57c.24.24.56.42.96.55.39.13.9.24 1.51.33.62.08 1.36.15 2.22.2.87.05 1.9.09 3.12.11v2.59h-23.62v-2.59c1.17-.04 2.16-.09 2.97-.14.82-.05 1.51-.11 2.09-.2q.87-.135 1.38-.3c.35-.11.65-.25.91-.4.28-.18.52-.38.72-.59.2-.2.36-.47.47-.78.12-.32.22-.71.29-1.17.07-.45.1-1.02.1-1.69v-21.36c0-.77-.15-1.32-.45-1.64-.29-.32-.72-.47-1.28-.47-.61 0-1.52.31-2.74.95-1.21.63-2.78 1.58-4.7 2.83-.26-.46-.5-.92-.72-1.37-.22-.46-.44-.93-.68-1.4 2.46-1.35 4.9-2.7 7.31-4.04s4.86-2.67 7.34-4m32.68-.21c2.06 0 3.83.23 5.29.7 1.46.46 2.64 1.09 3.56 1.89a6.9 6.9 0 0 1 1.98 2.86c.4 1.11.61 2.31.61 3.6 0 .78-.06 1.5-.17 2.16-.11.67-.3 1.32-.56 1.97-.27.64-.62 1.29-1.06 1.95-.44.65-.98 1.35-1.64 2.08-.5.64-1.14 1.37-1.93 2.21-.8.83-1.67 1.73-2.61 2.68s-1.93 1.94-2.96 2.98c-1.04 1.03-2.04 2.05-3.01 3.06-.98 1.02-1.87 2-2.68 2.95-.82.96-1.48 1.83-2 2.62h11.02c.93 0 1.68-.03 2.24-.1.55-.07 1.01-.22 1.38-.46s.68-.6.94-1.09c.26-.48.55-1.16.89-2.01h2.77c-.1 1.41-.19 2.83-.28 4.26s-.18 2.85-.28 4.26h-25.23v-1.55a26 26 0 0 1 1.67-3.17 42 42 0 0 1 2.14-3.17c.79-1.08 1.7-2.18 2.71-3.32 1.01-1.15 2.14-2.33 3.37-3.56 1.86-1.87 3.38-3.46 4.55-4.78 1.18-1.32 2.1-2.5 2.77-3.53.68-1.04 1.14-1.99 1.39-2.86.25-.88.37-1.81.37-2.8 0-1.02-.14-1.95-.43-2.8-.29-.86-.7-1.58-1.24-2.18-.53-.59-1.21-1.06-2.04-1.4-.82-.33-1.77-.5-2.84-.5q-2.775 0-4.65 1.5c-1.25 1-2.22 2.46-2.92 4.36h-3.9v-5.8c2.54-1.06 4.88-1.82 7.02-2.3 2.13-.47 4.05-.71 5.76-.71"/><text x="1421.63" y="1222.89" fill-opacity="0" font-family="Arial,Arial_MSFontService,sans-serif" font-size="38.572">12</text><path d="M1339.57 1176.917h-103.816v9.167h103.816Zm-99.233-18.333-45.833 22.916 45.833 22.917Z"/><path fill-rule="evenodd" d="M1286.73 1125.64c1.41 0 2.58.49 3.53 1.48.95.98 1.42 2.23 1.42 3.75 0 1.51-.47 2.76-1.42 3.74-.95.99-2.12 1.48-3.53 1.48-1.4 0-2.58-.49-3.52-1.48-.95-.98-1.42-2.23-1.42-3.74 0-1.52.47-2.77 1.42-3.75.94-.99 2.12-1.48 3.52-1.48m0-21.56c1.41 0 2.58.49 3.53 1.48.95.98 1.42 2.23 1.42 3.75 0 1.51-.47 2.76-1.42 3.74-.95.99-2.12 1.48-3.53 1.48-1.4 0-2.58-.49-3.52-1.48-.95-.98-1.42-2.23-1.42-3.74 0-1.52.47-2.77 1.42-3.75.94-.99 2.12-1.48 3.52-1.48m0-21.56c1.41 0 2.58.49 3.53 1.48.95.98 1.42 2.23 1.42 3.74 0 1.52-.47 2.77-1.42 3.75-.95.99-2.12 1.48-3.53 1.48-1.4 0-2.58-.49-3.52-1.48-.95-.98-1.42-2.23-1.42-3.75 0-1.51.47-2.76 1.42-3.74.94-.99 2.12-1.48 3.52-1.48"/><text x="1281.79" y="1129.4" fill-opacity="0" font-family="Arial,Arial_MSFontService,sans-serif" font-size="53.577">⋮</text><path d="m464.083 1211.5.001 169.85h-9.167V1211.5Zm18.334 165.26L459.5 1422.6l-22.916-45.84Zm645.663-165.26v169.85h-9.16V1211.5Zm18.34 165.26-22.92 45.84-22.92-45.84ZM685.083 1211.5l.001 169.85h-9.167V1211.5Zm18.334 165.26L680.5 1422.6l-22.916-45.84Zm202.666-165.26.001 169.85h-9.167V1211.5Zm18.334 165.26-22.916 45.84-22.917-45.84Z"/><path fill-rule="evenodd" d="M472.363 1275.5h16.9l-.446 1.98c-1.216.09-2.168.44-2.857 1.08-.689.63-1.169 1.5-1.439 2.59-.27 1.1-.405 2.64-.405 4.64v1.38q0 .735.04 1.5l.365 15.85c.027 1.16.041 4.04.041 8.63l-.041 8.47h.405l22.412-46.12h6.12v27.03c0 4.46-.122 10.82-.365 19.09h.405l16.414-31.73a61 61 0 0 0 1.965-4.2c.689-1.61 1.034-2.99 1.034-4.15 0-2.27-1.351-3.62-4.053-4.06l.446-1.98h16.575l-.445 1.98c-1.243.17-2.432.85-3.567 2.05s-2.648 3.55-4.539 7.03l-24.357 44.79h-6.241v-29.67c0-4.81.122-9.82.365-15.04h-.406l-21.682 44.71h-6.362l-1.905-45.07c-.108-2.24-.345-3.96-.709-5.15-.365-1.19-.858-2.05-1.48-2.59-.621-.54-1.499-.89-2.634-1.06Z"/><text x="471.917" y="1324.36" fill-opacity="0" font-family="Arial,Arial_MSFontService,sans-serif" font-size="55.847">𝑊</text><path fill-rule="evenodd" d="M590.302 1309.3h1.817a204 204 0 0 0-.134 5.45c-.01.81-.015 1.62-.015 2.41v22.64c0 .61.02 1.15.06 1.59.039.45.104.83.193 1.13.09.31.209.57.358.79q.223.33.521.57c.238.24.556.42.953.55q.595.195 1.519.33t2.219.21c.864.05 1.901.08 3.113.1v2.59h-23.62v-2.59c1.172-.04 2.164-.08 2.978-.13q1.222-.075 2.085-.21a10 10 0 0 0 1.385-.3c.348-.11.651-.24.909-.4.278-.18.516-.37.715-.58s.357-.47.476-.79.214-.71.283-1.16c.07-.46.104-1.03.104-1.7v-21.36c0-.77-.148-1.32-.446-1.64-.298-.31-.725-.47-1.281-.47-.616 0-1.529.32-2.74.95-1.212.64-2.78 1.58-4.706 2.83-.258-.46-.497-.91-.715-1.37a98 98 0 0 0-.685-1.4c2.462-1.35 4.899-2.69 7.312-4.04 2.413-1.34 4.86-2.67 7.342-4m-37.323-.21c2.065 0 3.827.23 5.287.7q2.189.705 3.559 1.89a6.9 6.9 0 0 1 1.981 2.86q.61 1.665.61 3.6 0 1.17-.163 2.16c-.11.67-.298 1.32-.566 1.97q-.402.975-1.058 1.95c-.437.66-.983 1.35-1.638 2.09-.496.63-1.142 1.37-1.936 2.2s-1.663 1.73-2.606 2.68-1.931 1.95-2.964 2.98a175 175 0 0 0-3.008 3.07 63 63 0 0 0-2.681 2.95c-.814.95-1.479 1.82-1.995 2.62h11.02c.933 0 1.678-.04 2.234-.11s1.018-.22 1.385-.46.68-.6.938-1.09q.387-.72.894-2.01h2.77q-.149 2.115-.283 4.26-.135 2.145-.283 4.26h-25.228v-1.55a27.5 27.5 0 0 1 1.668-3.17 43 43 0 0 1 2.144-3.17 49 49 0 0 1 2.711-3.32 82 82 0 0 1 3.366-3.56c1.866-1.87 3.385-3.46 4.557-4.78 1.171-1.32 2.095-2.5 2.77-3.53s1.136-1.99 1.385-2.86c.248-.87.372-1.81.372-2.8 0-1.01-.144-1.95-.432-2.8s-.7-1.58-1.236-2.17c-.536-.6-1.216-1.07-2.04-1.4q-1.236-.51-2.845-.51-2.77 0-4.646 1.5c-1.251 1.01-2.224 2.46-2.919 4.37h-3.902v-5.81c2.542-1.05 4.88-1.82 7.014-2.29q3.202-.72 5.764-.72"/><text x="539.248" y="1342.84" fill-opacity="0" font-family="Arial,Arial_MSFontService,sans-serif" font-size="38.572">21</text><path fill-rule="evenodd" d="M690.673 1275.5h16.9l-.446 1.98c-1.216.09-2.168.44-2.857 1.08-.689.63-1.168 1.5-1.439 2.59-.27 1.1-.405 2.64-.405 4.64v1.38q0 .735.041 1.5l.364 15.85c.027 1.16.041 4.04.041 8.63l-.041 8.47h.406l22.411-46.12h6.12v27.03c0 4.46-.122 10.82-.365 19.09h.405l16.414-31.73a61 61 0 0 0 1.966-4.2c.688-1.61 1.033-2.99 1.033-4.15 0-2.27-1.351-3.62-4.053-4.06l.446-1.98h16.576l-.446 1.98c-1.243.17-2.432.85-3.567 2.05-1.134 1.2-2.647 3.55-4.539 7.03l-24.357 44.79h-6.241v-29.67c0-4.81.122-9.82.365-15.04H725l-21.682 44.71h-6.363l-1.905-45.07c-.108-2.24-.344-3.96-.709-5.15s-.858-2.05-1.479-2.59-1.5-.89-2.635-1.06Z"/><text x="690.227" y="1324.36" fill-opacity="0" font-family="Arial,Arial_MSFontService,sans-serif" font-size="55.847">𝑊</text><path fill-rule="evenodd" d="M806.289 1309.09c2.065 0 3.828.23 5.287.7q2.189.705 3.559 1.89c.914.8 1.574 1.75 1.981 2.86q.61 1.665.611 3.6 0 1.17-.164 2.16a9 9 0 0 1-.566 1.97q-.403.975-1.057 1.95c-.437.66-.983 1.35-1.639 2.09-.496.63-1.141 1.37-1.936 2.2s-1.663 1.73-2.606 2.68-1.931 1.95-2.964 2.98a175 175 0 0 0-3.008 3.07 63 63 0 0 0-2.68 2.95c-.815.95-1.48 1.82-1.996 2.62h11.02c.934 0 1.678-.04 2.234-.11s1.018-.22 1.385-.46c.368-.24.68-.6.939-1.09q.387-.72.893-2.01h2.77q-.148 2.115-.283 4.26t-.283 4.26h-25.228v-1.55a28 28 0 0 1 1.668-3.17 43 43 0 0 1 2.145-3.17 49 49 0 0 1 2.71-3.32 83 83 0 0 1 3.366-3.56c1.866-1.87 3.385-3.46 4.557-4.78s2.095-2.5 2.77-3.53 1.137-1.99 1.385-2.86.372-1.81.372-2.8c0-1.01-.144-1.95-.432-2.8-.287-.85-.7-1.58-1.236-2.17-.536-.6-1.216-1.07-2.04-1.4q-1.236-.51-2.844-.51-2.77 0-4.647 1.5c-1.251 1.01-2.224 2.46-2.919 4.37h-3.902v-5.81c2.542-1.05 4.88-1.82 7.015-2.29q3.201-.72 5.763-.72m-35 0c2.065 0 3.828.23 5.287.7q2.189.705 3.559 1.89c.914.8 1.574 1.75 1.981 2.86q.61 1.665.611 3.6 0 1.17-.164 2.16a9 9 0 0 1-.566 1.97q-.403.975-1.057 1.95c-.437.66-.983 1.35-1.639 2.09-.496.63-1.141 1.37-1.936 2.2s-1.663 1.73-2.606 2.68-1.931 1.95-2.964 2.98a175 175 0 0 0-3.008 3.07 63 63 0 0 0-2.68 2.95c-.815.95-1.48 1.82-1.996 2.62h11.02c.934 0 1.678-.04 2.234-.11s1.018-.22 1.385-.46c.368-.24.68-.6.939-1.09q.387-.72.893-2.01h2.77q-.148 2.115-.283 4.26t-.283 4.26h-25.228v-1.55a28 28 0 0 1 1.668-3.17 43 43 0 0 1 2.145-3.17 49 49 0 0 1 2.71-3.32 83 83 0 0 1 3.366-3.56c1.866-1.87 3.385-3.46 4.557-4.78s2.095-2.5 2.77-3.53 1.137-1.99 1.385-2.86.372-1.81.372-2.8c0-1.01-.144-1.95-.432-2.8-.287-.85-.7-1.58-1.236-2.17-.536-.6-1.216-1.07-2.04-1.4q-1.236-.51-2.844-.51-2.77 0-4.647 1.5c-1.251 1.01-2.224 2.46-2.919 4.37h-3.902v-5.81c2.542-1.05 4.88-1.82 7.015-2.29q3.201-.72 5.763-.72"/><text x="757.558" y="1342.84" fill-opacity="0" font-family="Arial,Arial_MSFontService,sans-serif" font-size="38.572">22</text><path fill-rule="evenodd" d="M916.946 1275.5h16.9l-.446 1.98c-1.216.09-2.168.44-2.857 1.08-.689.63-1.168 1.5-1.439 2.59-.27 1.1-.405 2.64-.405 4.64v1.38q0 .735.041 1.5l.364 15.85c.027 1.16.041 4.04.041 8.63l-.041 8.47h.406l22.411-46.12h6.12v27.03c0 4.46-.122 10.82-.365 19.09h.405l16.414-31.73a61 61 0 0 0 1.966-4.2c.688-1.61 1.033-2.99 1.033-4.15 0-2.27-1.351-3.62-4.053-4.06l.446-1.98h16.576l-.446 1.98c-1.243.17-2.432.85-3.566 2.05-1.135 1.2-2.648 3.55-4.54 7.03l-24.356 44.79h-6.242v-29.67c0-4.81.122-9.82.365-15.04h-.405l-21.682 44.71h-6.363l-1.905-45.07c-.108-2.24-.344-3.96-.709-5.15s-.858-2.05-1.479-2.59-1.5-.89-2.635-1.06Z"/><text x="916.5" y="1324.36" fill-opacity="0" font-family="Arial,Arial_MSFontService,sans-serif" font-size="55.847">𝑊</text><path fill-rule="evenodd" d="M1032.5 1309.09c1.59 0 3.08.17 4.46.51 1.38.33 2.57.85 3.58 1.53 1.02.69 1.81 1.54 2.37 2.56.57 1.02.85 2.21.85 3.56 0 1.27-.18 2.39-.53 3.37-.36.97-.91 1.85-1.66 2.65-.74.79-1.66 1.51-2.74 2.16-1.08.64-2.33 1.26-3.74 1.86v.36c1.33.23 2.58.62 3.73 1.14 1.15.53 2.16 1.19 3.02 2 .86.8 1.54 1.73 2.04 2.78.5 1.06.75 2.22.75 3.49 0 1.59-.3 3.06-.9 4.42-.59 1.36-1.49 2.54-2.68 3.53s-2.66 1.77-4.41 2.32c-1.74.56-3.79.84-6.13.84-1.85 0-3.73-.19-5.63-.55-1.91-.37-3.72-.85-5.42-1.45v-6.43h3.84c.32.99.69 1.84 1.13 2.55.44.7.95 1.28 1.53 1.72a5.7 5.7 0 0 0 2.03.97q1.14.3 2.61.3 3.84 0 5.82-1.83c1.32-1.22 1.98-3.08 1.98-5.56q0-3.96-2.61-6c-1.73-1.36-4.31-2.04-7.73-2.04h-2.62v-2.86c2.09-.1 3.89-.39 5.41-.88 1.52-.48 2.78-1.11 3.8-1.89 1.01-.77 1.76-1.68 2.26-2.71s.75-2.13.75-3.31c0-1.9-.57-3.41-1.7-4.51q-1.695-1.65-4.92-1.65c-1.8 0-3.32.5-4.54 1.49s-2.16 2.47-2.81 4.44h-3.79v-5.87q3.525-1.485 6.63-2.25c2.08-.51 4.07-.76 5.97-.76m-34.938 0c2.065 0 3.828.23 5.288.7s2.64 1.1 3.56 1.89c.91.8 1.57 1.75 1.98 2.86s.61 2.31.61 3.6c0 .78-.05 1.5-.16 2.16-.11.67-.3 1.32-.57 1.97s-.62 1.3-1.06 1.95c-.43.66-.98 1.35-1.64 2.09-.49.63-1.14 1.37-1.93 2.2-.8.83-1.66 1.73-2.61 2.68-.94.95-1.929 1.95-2.962 2.98a175 175 0 0 0-3.008 3.07 63 63 0 0 0-2.68 2.95c-.815.95-1.48 1.82-1.996 2.62h11.016c.94 0 1.68-.04 2.24-.11.55-.07 1.02-.22 1.38-.46.37-.24.68-.6.94-1.09q.39-.72.9-2.01h2.77c-.1 1.41-.2 2.83-.29 4.26s-.18 2.85-.28 4.26h-25.229v-1.55a28 28 0 0 1 1.668-3.17 43 43 0 0 1 2.145-3.17 49 49 0 0 1 2.71-3.32 83 83 0 0 1 3.366-3.56c1.866-1.87 3.385-3.46 4.557-4.78s2.093-2.5 2.773-3.53c.67-1.03 1.13-1.99 1.38-2.86s.37-1.81.37-2.8c0-1.01-.14-1.95-.43-2.8s-.7-1.58-1.23-2.17c-.54-.6-1.22-1.07-2.044-1.4q-1.236-.51-2.844-.51-2.77 0-4.647 1.5c-1.251 1.01-2.224 2.46-2.919 4.37h-3.902v-5.81c2.542-1.05 4.88-1.82 7.015-2.29q3.201-.72 5.763-.72"/><text x="983.831" y="1343.28" fill-opacity="0" font-family="Arial,Arial_MSFontService,sans-serif" font-size="39.078">23</text><path fill-rule="evenodd" d="M1135.26 1275.5h16.9l-.45 1.98c-1.22.09-2.17.44-2.86 1.08-.69.63-1.17 1.5-1.44 2.59-.27 1.1-.4 2.64-.4 4.64v1.38c0 .49.01.99.04 1.5l.36 15.85c.03 1.16.05 4.04.05 8.63l-.05 8.47h.41l22.41-46.12h6.12v27.03c0 4.46-.12 10.82-.36 19.09h.4l16.42-31.73c.62-1.19 1.27-2.59 1.96-4.2s1.03-2.99 1.03-4.15c0-2.27-1.35-3.62-4.05-4.06l.45-1.98h16.57l-.44 1.98c-1.25.17-2.43.85-3.57 2.05-1.13 1.2-2.65 3.55-4.54 7.03l-24.36 44.79h-6.24v-29.67c0-4.81.13-9.82.37-15.04h-.41l-21.68 44.71h-6.36l-1.91-45.07c-.1-2.24-.34-3.96-.71-5.15-.36-1.19-.85-2.05-1.48-2.59-.62-.54-1.49-.89-2.63-1.06Z"/><text x="1134.81" y="1324.36" fill-opacity="0" font-family="Arial,Arial_MSFontService,sans-serif" font-size="55.847">𝑊</text><path fill-rule="evenodd" d="M1252.27 1316.48c-1.9 2.76-3.81 5.5-5.7 8.22-1.9 2.72-3.81 5.45-5.74 8.19v.36h11.44v-5.99c0-.68.01-1.51.03-2.5.02-1 .05-2 .08-3.03.03-1.02.06-1.99.1-2.91q.06-1.395.12-2.34Zm.87-6.97h4.73v23.74h.54q1.215 0 1.98-.12c.51-.08.91-.25 1.22-.49.31-.25.57-.6.77-1.05.21-.44.44-1.02.67-1.74h2.54c-.06 1.09-.13 2.17-.2 3.25-.07 1.07-.13 2.16-.19 3.27h-7.33v3.91c0 1.15.03 2.04.08 2.68.05.63.2 1.13.44 1.49.25.35.62.62 1.11.8.48.18 1.16.39 2.04.62v1.79h-12.87v-1.79c.59-.15 1.1-.3 1.52-.43.41-.13.76-.27 1.04-.44s.48-.37.61-.6.23-.52.3-.86c.07-.35.11-.79.12-1.31.01-.53.01-1.18.01-1.95v-3.91h-16.77v-2.35c2.96-4.11 5.9-8.2 8.82-12.26s5.86-8.14 8.82-12.25m-37.27-.42c2.07 0 3.83.23 5.29.7s2.65 1.1 3.56 1.89c.91.8 1.57 1.75 1.98 2.86s.61 2.31.61 3.6c0 .78-.05 1.5-.16 2.16-.11.67-.3 1.32-.57 1.97s-.62 1.3-1.06 1.95c-.43.66-.98 1.35-1.64 2.09-.49.63-1.14 1.37-1.93 2.2-.8.83-1.66 1.73-2.61 2.68-.94.95-1.93 1.95-2.96 2.98s-2.04 2.05-3.01 3.07c-.97 1.01-1.87 1.99-2.68 2.95-.81.95-1.48 1.82-2 2.62h11.02c.94 0 1.68-.04 2.24-.11.55-.07 1.02-.22 1.38-.46.37-.24.68-.6.94-1.09q.39-.72.9-2.01h2.77c-.1 1.41-.2 2.83-.29 4.26s-.18 2.85-.28 4.26h-25.23v-1.55c.48-1.07 1.03-2.13 1.67-3.17a42 42 0 0 1 2.14-3.17c.8-1.07 1.7-2.18 2.71-3.32 1.02-1.14 2.14-2.33 3.37-3.56 1.87-1.87 3.39-3.46 4.56-4.78s2.09-2.5 2.77-3.53c.67-1.03 1.13-1.99 1.38-2.86s.37-1.81.37-2.8c0-1.01-.14-1.95-.43-2.8s-.7-1.58-1.23-2.17c-.54-.6-1.22-1.07-2.04-1.4q-1.245-.51-2.85-.51c-1.84 0-3.39.5-4.64 1.5-1.26 1.01-2.23 2.46-2.92 4.37h-3.91v-5.81c2.55-1.05 4.88-1.82 7.02-2.29q3.195-.72 5.76-.72"/><text x="1202.14" y="1342.84" fill-opacity="0" font-family="Arial,Arial_MSFontService,sans-serif" font-size="38.572">24</text><path d="m465.083 1532.5.001 169.85h-9.167V1532.5Zm18.334 165.26L460.5 1743.6l-22.916-45.84Zm645.663-165.26v169.85h-9.16V1532.5Zm18.34 165.26-22.92 45.84-22.92-45.84ZM687.083 1532.5v169.85h-9.166V1532.5Zm18.334 165.26L682.5 1743.6l-22.917-45.84Zm202.666-165.26v169.85h-9.166V1532.5Zm18.334 165.26L903.5 1743.6l-22.917-45.84Z"/><path fill-rule="evenodd" d="M473.568 1596.37h16.9l-.446 1.98q-1.824.12-2.857 1.08c-.689.63-1.169 1.5-1.439 2.59s-.405 2.64-.405 4.64v1.38q0 .72.04 1.5l.365 15.84c.027 1.17.041 4.04.041 8.64l-.041 8.47h.405l22.412-46.12h6.12v27.03c0 4.46-.122 10.82-.365 19.09h.405l16.414-31.74a61 61 0 0 0 1.965-4.19c.689-1.61 1.034-2.99 1.034-4.16 0-2.26-1.351-3.62-4.053-4.05l.446-1.98h16.575l-.445 1.98c-1.243.16-2.432.85-3.567 2.05s-2.648 3.54-4.539 7.03l-24.357 44.78h-6.241v-29.66c0-4.81.122-9.82.365-15.04h-.405l-21.683 44.7h-6.362l-1.905-45.06c-.108-2.25-.345-3.96-.709-5.15-.365-1.19-.858-2.05-1.48-2.59-.621-.54-1.499-.9-2.634-1.06Z"/><text x="473.122" y="1645.23" fill-opacity="0" font-family="Arial,Arial_MSFontService,sans-serif" font-size="55.847">𝑊</text><path fill-rule="evenodd" d="M542.002 1630.52h25.913v1.43l-17.484 36.73h-4.557v-1.34l16.024-31.16v-.44h-12.629c-.873 0-1.553.07-2.04.2q-.73.21-1.296.6c-.159.14-.298.28-.417.43a3.2 3.2 0 0 0-.357.6c-.119.25-.243.57-.372.98q-.193.615-.462 1.56h-2.979Zm49.505-.35h1.817a204 204 0 0 0-.134 5.45c-.01.81-.015 1.62-.015 2.41v22.64q0 .915.06 1.59c.039.45.104.82.193 1.13s.209.57.358.79q.223.33.521.57c.238.24.556.42.953.55q.596.195 1.519.33c.616.08 1.355.15 2.219.2s1.901.09 3.113.11v2.59h-23.62v-2.59c1.172-.04 2.164-.09 2.978-.14s1.51-.11 2.085-.2a10 10 0 0 0 1.385-.3c.348-.11.651-.25.909-.4.278-.18.516-.38.715-.59.198-.2.357-.47.476-.78q.179-.48.283-1.17c.07-.45.105-1.02.105-1.69v-21.36c0-.77-.149-1.32-.447-1.64s-.725-.47-1.281-.47c-.616 0-1.529.31-2.74.95-1.212.63-2.78 1.58-4.706 2.83-.258-.46-.497-.92-.715-1.37a64 64 0 0 0-.685-1.4c2.462-1.35 4.899-2.7 7.312-4.04s4.86-2.67 7.342-4"/><text x="541.346" y="1663.86" fill-opacity="0" font-family="Arial,Arial_MSFontService,sans-serif" font-size="38.512">71</text><path fill-rule="evenodd" d="M691.878 1596.37h16.9l-.446 1.98q-1.824.12-2.857 1.08c-.689.63-1.168 1.5-1.439 2.59-.27 1.09-.405 2.64-.405 4.64v1.38q0 .72.041 1.5l.364 15.84c.027 1.17.041 4.04.041 8.64l-.041 8.47h.406l22.411-46.12h6.12v27.03c0 4.46-.122 10.82-.365 19.09h.405l16.414-31.74a61 61 0 0 0 1.966-4.19c.688-1.61 1.033-2.99 1.033-4.16 0-2.26-1.351-3.62-4.053-4.05l.446-1.98h16.576l-.446 1.98c-1.243.16-2.432.85-3.566 2.05-1.135 1.2-2.648 3.54-4.54 7.03l-24.356 44.78h-6.242v-29.66c0-4.81.122-9.82.365-15.04h-.405l-21.682 44.7h-6.363l-1.905-45.06c-.108-2.25-.344-3.96-.709-5.15s-.858-2.05-1.479-2.59-1.5-.9-2.635-1.06Z"/><text x="691.432" y="1645.23" fill-opacity="0" font-family="Arial,Arial_MSFontService,sans-serif" font-size="55.847">𝑊</text><path fill-rule="evenodd" d="M760.312 1630.52h25.913v1.43l-17.484 36.73h-4.557v-1.34l16.024-31.16v-.44H767.58c-.874 0-1.554.07-2.041.2q-.73.21-1.295.6c-.159.14-.298.28-.417.43q-.179.225-.358.6c-.119.25-.243.57-.372.98q-.193.615-.462 1.56h-2.978Zm47.182-.56c2.065 0 3.828.23 5.287.7q2.189.69 3.559 1.89a6.85 6.85 0 0 1 1.981 2.86q.61 1.665.611 3.6 0 1.17-.164 2.16a9 9 0 0 1-.566 1.97q-.403.96-1.057 1.95c-.437.65-.983 1.35-1.639 2.08-.496.64-1.141 1.37-1.936 2.21-.794.83-1.663 1.73-2.606 2.68s-1.931 1.94-2.964 2.98a219 219 0 0 0-3.008 3.06c-.973 1.02-1.866 2-2.68 2.95-.815.96-1.48 1.83-1.996 2.62h11.02c.934 0 1.678-.03 2.234-.1s1.018-.22 1.385-.46c.368-.24.68-.6.939-1.09.258-.48.556-1.16.893-2.01h2.77q-.148 2.115-.283 4.26t-.283 4.26h-25.228v-1.55a28 28 0 0 1 1.668-3.17 43 43 0 0 1 2.145-3.17 47 47 0 0 1 2.71-3.32 77 77 0 0 1 3.366-3.56c1.866-1.87 3.385-3.46 4.557-4.78s2.095-2.5 2.77-3.53c.675-1.04 1.137-1.99 1.385-2.86.248-.88.372-1.81.372-2.8 0-1.02-.144-1.95-.432-2.8-.287-.86-.7-1.58-1.236-2.18-.536-.59-1.216-1.06-2.04-1.4-.824-.33-1.772-.5-2.844-.5q-2.77 0-4.647 1.5c-1.251 1-2.224 2.46-2.919 4.36h-3.902v-5.8c2.542-1.06 4.88-1.82 7.015-2.3 2.134-.47 4.055-.71 5.763-.71"/><text x="759.657" y="1663.84" fill-opacity="0" font-family="Arial,Arial_MSFontService,sans-serif" font-size="38.721">72</text><path fill-rule="evenodd" d="M918.151 1596.37h16.9l-.446 1.98q-1.824.12-2.857 1.08c-.689.63-1.168 1.5-1.439 2.59-.27 1.09-.405 2.64-.405 4.64v1.38q0 .72.041 1.5l.364 15.84c.027 1.17.041 4.04.041 8.64l-.041 8.47h.406l22.411-46.12h6.12v27.03c0 4.46-.122 10.82-.365 19.09h.405l16.414-31.74a61 61 0 0 0 1.966-4.19c.688-1.61 1.033-2.99 1.033-4.16 0-2.26-1.351-3.62-4.053-4.05l.446-1.98h16.576l-.446 1.98c-1.243.16-2.432.85-3.566 2.05-1.135 1.2-2.648 3.54-4.54 7.03l-24.356 44.78h-6.242v-29.66c0-4.81.122-9.82.365-15.04h-.405l-21.682 44.7h-6.363l-1.905-45.06c-.108-2.25-.344-3.96-.709-5.15s-.858-2.05-1.479-2.59-1.5-.9-2.635-1.06Z"/><text x="917.705" y="1645.23" fill-opacity="0" font-family="Arial,Arial_MSFontService,sans-serif" font-size="55.847">𝑊</text><path fill-rule="evenodd" d="M986.585 1630.52h25.915v1.43l-17.486 36.73h-4.557v-1.34l16.023-31.16v-.44h-12.627c-.874 0-1.554.07-2.041.2q-.73.21-1.295.6c-.159.14-.298.28-.417.43q-.179.225-.358.6c-.119.25-.243.57-.372.98q-.193.615-.462 1.56h-2.978Zm47.125-.56c1.59 0 3.07.17 4.45.5 1.38.34 2.58.85 3.59 1.54 1.01.68 1.8 1.54 2.37 2.56.56 1.02.85 2.21.85 3.56q0 1.905-.54 3.36c-.36.98-.91 1.86-1.65 2.66-.75.79-1.66 1.51-2.74 2.15-1.09.65-2.33 1.27-3.74 1.87v.35c1.33.24 2.57.62 3.72 1.15s2.16 1.19 3.03 2c.86.8 1.54 1.73 2.04 2.78.49 1.05.74 2.22.74 3.49 0 1.58-.3 3.06-.89 4.42a9.6 9.6 0 0 1-2.68 3.53c-1.2.99-2.66 1.77-4.41 2.32-1.75.56-3.79.84-6.14.84-1.84 0-3.72-.19-5.63-.56-1.9-.36-3.71-.84-5.42-1.44v-6.43h3.84c.32.99.7 1.84 1.14 2.54.43.71.94 1.28 1.53 1.73s1.26.77 2.03.97c.76.2 1.63.3 2.6.3 2.56 0 4.5-.61 5.82-1.84q1.98-1.83 1.98-5.55c0-2.64-.86-4.64-2.6-6s-4.32-2.04-7.73-2.04h-2.62v-2.86c2.08-.1 3.89-.39 5.4-.88 1.52-.49 2.79-1.12 3.8-1.89 1.01-.78 1.77-1.68 2.27-2.71.49-1.03.74-2.14.74-3.31 0-1.9-.57-3.41-1.7-4.51s-2.77-1.65-4.91-1.65c-1.81 0-3.32.49-4.54 1.49-1.23.99-2.16 2.47-2.82 4.43h-3.78v-5.86q3.51-1.5 6.63-2.25c2.07-.51 4.06-.76 5.97-.76"/><text x="985.93" y="1664.15" fill-opacity="0" font-family="Arial,Arial_MSFontService,sans-serif" font-size="39.078">73</text><path fill-rule="evenodd" d="M1136.46 1596.37h16.9l-.44 1.98c-1.22.08-2.17.44-2.86 1.08-.69.63-1.17 1.5-1.44 2.59s-.41 2.64-.41 4.64v1.38c0 .48.02.98.04 1.5l.37 15.84c.03 1.17.04 4.04.04 8.64l-.04 8.47h.4l22.42-46.12h6.12v27.03c0 4.46-.13 10.82-.37 19.09h.41l16.41-31.74c.62-1.19 1.28-2.58 1.97-4.19.68-1.61 1.03-2.99 1.03-4.16 0-2.26-1.35-3.62-4.05-4.05l.44-1.98h16.58l-.45 1.98c-1.24.16-2.43.85-3.56 2.05-1.14 1.2-2.65 3.54-4.54 7.03l-24.36 44.78h-6.24v-29.66c0-4.81.12-9.82.36-15.04h-.4l-21.68 44.7h-6.37l-1.9-45.06c-.11-2.25-.35-3.96-.71-5.15-.37-1.19-.86-2.05-1.48-2.59s-1.5-.9-2.63-1.06Z"/><text x="1136.02" y="1645.23" fill-opacity="0" font-family="Arial,Arial_MSFontService,sans-serif" font-size="55.847">𝑊</text><path fill-rule="evenodd" d="M1253.48 1637.34c-1.91 2.76-3.81 5.5-5.71 8.23q-2.835 4.08-5.73 8.19v.35h11.44v-5.98c0-.68.01-1.51.03-2.51.02-.99.04-2 .07-3.02s.07-1.99.11-2.92c.04-.92.08-1.7.11-2.34Zm-48.58-6.82h25.91v1.43l-17.49 36.73h-4.55v-1.34l16.02-31.16v-.44h-12.63c-.87 0-1.55.07-2.04.2-.48.14-.92.34-1.29.6-.16.14-.3.28-.42.43q-.18.225-.36.6c-.12.25-.24.57-.37.98s-.28.93-.46 1.56h-2.98Zm49.44-.15h4.74v23.74h.53q1.23 0 1.98-.12c.51-.08.92-.24 1.22-.49.31-.25.57-.59.78-1.04s.43-1.03.67-1.74h2.53a315 315 0 0 1-.19 3.24c-.07 1.08-.14 2.17-.2 3.28h-7.32v3.9c0 1.15.02 2.05.07 2.68.05.64.2 1.14.45 1.49.25.36.61.63 1.1.81s1.17.38 2.04.62v1.79h-12.87v-1.79c.6-.16 1.11-.3 1.52-.43.42-.13.77-.28 1.04-.45.28-.17.49-.36.62-.59.12-.23.22-.52.29-.87.07-.34.11-.78.12-1.31.01-.52.02-1.17.02-1.95v-3.9h-16.77v-2.35c2.96-4.11 5.9-8.2 8.81-12.26 2.92-4.06 5.86-8.14 8.82-12.26"/><text x="1204.24" y="1663.89" fill-opacity="0" font-family="Arial,Arial_MSFontService,sans-serif" font-size="38.304">74</text><path fill-rule="evenodd" d="M464.751 1498.4q2.108 0 3.526 1.47 1.419 1.485 1.419 3.75 0 2.28-1.419 3.75c-.945.99-2.121 1.48-3.526 1.48s-2.58-.49-3.526-1.48q-1.418-1.47-1.418-3.75 0-2.265 1.418-3.75 1.419-1.47 3.526-1.47m0-21.57c1.405 0 2.581.5 3.526 1.48q1.419 1.485 1.419 3.75 0 2.28-1.419 3.75c-.945.99-2.121 1.48-3.526 1.48s-2.58-.49-3.526-1.48q-1.418-1.47-1.418-3.75 0-2.265 1.418-3.75c.946-.98 2.121-1.48 3.526-1.48m0-21.56c1.405 0 2.581.5 3.526 1.48q1.419 1.485 1.419 3.75c0 1.52-.473 2.76-1.419 3.75-.945.99-2.121 1.48-3.526 1.48s-2.58-.49-3.526-1.48-1.418-2.23-1.418-3.75q0-2.265 1.418-3.75c.946-.98 2.121-1.48 3.526-1.48"/><text x="459.807" y="1502.15" fill-opacity="0" font-family="Arial,Arial_MSFontService,sans-serif" font-size="53.577">⋮</text><path fill-rule="evenodd" d="M685.751 1498.4q2.107 0 3.526 1.47 1.418 1.485 1.418 3.75 0 2.28-1.418 3.75c-.946.99-2.121 1.48-3.526 1.48s-2.58-.49-3.526-1.48q-1.418-1.47-1.418-3.75 0-2.265 1.418-3.75 1.419-1.47 3.526-1.47m0-21.57c1.405 0 2.58.5 3.526 1.48q1.418 1.485 1.418 3.75 0 2.28-1.418 3.75c-.946.99-2.121 1.48-3.526 1.48s-2.58-.49-3.526-1.48q-1.418-1.47-1.418-3.75 0-2.265 1.418-3.75c.946-.98 2.121-1.48 3.526-1.48m0-21.56c1.405 0 2.58.5 3.526 1.48q1.418 1.485 1.418 3.75c0 1.52-.473 2.76-1.418 3.75-.946.99-2.121 1.48-3.526 1.48s-2.58-.49-3.526-1.48-1.418-2.23-1.418-3.75q0-2.265 1.418-3.75c.946-.98 2.121-1.48 3.526-1.48"/><text x="680.807" y="1502.15" fill-opacity="0" font-family="Arial,Arial_MSFontService,sans-serif" font-size="53.577">⋮</text><path fill-rule="evenodd" d="M903.917 1498.4q2.107 0 3.526 1.47 1.419 1.485 1.419 3.75 0 2.28-1.419 3.75c-.946.99-2.121 1.48-3.526 1.48s-2.58-.49-3.526-1.48q-1.418-1.47-1.418-3.75 0-2.265 1.418-3.75 1.419-1.47 3.526-1.47m0-21.57c1.405 0 2.58.5 3.526 1.48q1.419 1.485 1.419 3.75 0 2.28-1.419 3.75c-.946.99-2.121 1.48-3.526 1.48s-2.58-.49-3.526-1.48q-1.418-1.47-1.418-3.75 0-2.265 1.418-3.75c.946-.98 2.121-1.48 3.526-1.48m0-21.56c1.405 0 2.58.5 3.526 1.48q1.419 1.485 1.419 3.75c0 1.52-.473 2.76-1.419 3.75s-2.121 1.48-3.526 1.48-2.58-.49-3.526-1.48-1.418-2.23-1.418-3.75q0-2.265 1.418-3.75c.946-.98 2.121-1.48 3.526-1.48"/><text x="898.973" y="1502.15" fill-opacity="0" font-family="Arial,Arial_MSFontService,sans-serif" font-size="53.577">⋮</text><path fill-rule="evenodd" d="M1124.92 1498.4c1.4 0 2.58.49 3.52 1.47.95.99 1.42 2.24 1.42 3.75 0 1.52-.47 2.77-1.42 3.75-.94.99-2.12 1.48-3.52 1.48-1.41 0-2.58-.49-3.53-1.48-.94-.98-1.42-2.23-1.42-3.75 0-1.51.48-2.76 1.42-3.75.95-.98 2.12-1.47 3.53-1.47m0-21.57c1.4 0 2.58.5 3.52 1.48.95.99 1.42 2.24 1.42 3.75 0 1.52-.47 2.77-1.42 3.75-.94.99-2.12 1.48-3.52 1.48-1.41 0-2.58-.49-3.53-1.48-.94-.98-1.42-2.23-1.42-3.75 0-1.51.48-2.76 1.42-3.75.95-.98 2.12-1.48 3.53-1.48m0-21.56c1.4 0 2.58.5 3.52 1.48.95.99 1.42 2.24 1.42 3.75 0 1.52-.47 2.76-1.42 3.75-.94.99-2.12 1.48-3.52 1.48-1.41 0-2.58-.49-3.53-1.48-.94-.99-1.42-2.23-1.42-3.75 0-1.51.48-2.76 1.42-3.75.95-.98 2.12-1.48 3.53-1.48"/><text x="1119.97" y="1502.15" fill-opacity="0" font-family="Arial,Arial_MSFontService,sans-serif" font-size="53.577">⋮</text><path fill="#d74514" d="M395 1746h801v218H395z"/><path fill="#fff" fill-rule="evenodd" d="m679.018 1858.09-2.27 8.11h24.074v-8.11Zm28.288-13.21v7.7h22.047v-7.7Zm-27.721-28.78h6.971a73 73 0 0 1-4.134 7.62h23.506v5.03h-19.453a173 173 0 0 1 6.565 7.05l-4.539 3.57h36.475c-2.189-2.95-4.35-5.65-6.484-8.11l3.444-2.51h-6.889c-2.108 3.35-4.364 6.38-6.768 9.08-1.189-1.19-2.837-2.52-4.945-3.97q6.809-6.975 11.429-17.76h6.971a109 109 0 0 1-3.729 7.62h25.532v5.03h-20.425c2.35 2.3 4.566 4.67 6.646 7.13l-4.62 3.49h10.456v21.64h-6.241v-2.92h-22.047v8.11h32.584a469 469 0 0 1-.811 13.86c-.378 6.81-3.836 10.21-10.375 10.21-3.296 0-7.376-.03-12.239-.08-.378-2-.837-4.14-1.378-6.4 5.296.27 9.43.4 12.402.4 3.188 0 4.917-1.59 5.187-4.78.27-2.54.459-5.11.568-7.7h-25.938v24.8h-6.484v-22.86c-7.538 9.14-18.886 16.11-34.043 20.92q-1.46-2.355-3.405-5.19 19.737-5.805 31.369-17.67h-24.641v-5.51l3.891-13.62h26.829v-7.7h-28.369v-5.51h15.927a170 170 0 0 0-6.687-8.19l3.242-2.43h-5.958a73 73 0 0 1-11.145 11.83c-1.08-1.29-2.431-2.75-4.052-4.37 6.862-5.57 12.131-12.27 15.805-20.11"/><text x="663.374" y="1886.46" fill-opacity="0" font-family="Arial,Arial_MSFontService,sans-serif" font-size="80.406">第</text><text fill="#fff" font-family="Microsoft YaHei,Microsoft YaHei_MSFontService,sans-serif" font-size="83" font-weight="700" transform="translate(769.942 1885)">8 <tspan x="75.625" y="0">轮</tspan></text><path d="m464.083 1964.5.001 169.85h-9.167V1964.5Zm18.334 165.26L459.5 2175.6l-22.916-45.84Zm645.663-165.26v169.85h-9.16V1964.5Zm18.34 165.26-22.92 45.84-22.92-45.84ZM685.083 1964.5l.001 169.85h-9.167V1964.5Zm18.334 165.26L680.5 2175.6l-22.916-45.84Zm202.666-165.26.001 169.85h-9.167V1964.5Zm18.334 165.26-22.916 45.84-22.917-45.84Z"/><path fill-rule="evenodd" d="M472.363 2028.93h16.9l-.446 1.99c-1.216.08-2.168.43-2.857 1.07-.689.63-1.169 1.5-1.439 2.59-.27 1.1-.405 2.64-.405 4.64v1.38q0 .735.04 1.5l.365 15.85c.027 1.16.041 4.04.041 8.63l-.041 8.47h.405l22.412-46.12h6.12v27.03c0 4.46-.122 10.82-.365 19.09h.405l16.414-31.73a61 61 0 0 0 1.965-4.2c.689-1.61 1.034-2.99 1.034-4.15q0-3.405-4.053-4.05l.446-1.99h16.575l-.445 1.99q-1.865.24-3.567 2.04c-1.135 1.2-2.648 3.55-4.539 7.03l-24.357 44.79h-6.241v-29.67c0-4.81.122-9.82.365-15.04h-.406l-21.682 44.71h-6.362l-1.905-45.07c-.108-2.24-.345-3.96-.709-5.15-.365-1.19-.858-2.05-1.48-2.59q-.931-.81-2.634-1.05Z"/><text x="471.917" y="2077.8" fill-opacity="0" font-family="Arial,Arial_MSFontService,sans-serif" font-size="55.847">𝑊</text><path fill-rule="evenodd" d="M552.86 2082.89c-1.351 0-2.517.19-3.5.56-.983.36-1.792.88-2.428 1.54a6 6 0 0 0-1.385 2.42c-.287.94-.431 1.99-.431 3.14 0 1.23.158 2.35.476 3.35q.477 1.5 1.474 2.58.999 1.065 2.473 1.65c.983.39 2.129.58 3.44.58 1.37 0 2.527-.2 3.47-.61q1.414-.615 2.323-1.65a6.5 6.5 0 0 0 1.325-2.45q.417-1.395.417-2.91c0-1.3-.178-2.45-.536-3.47-.357-1.03-.868-1.88-1.534-2.57q-.997-1.02-2.427-1.59t-3.157-.57m.059-17.48q-3.574 0-5.45 1.83c-1.251 1.22-1.877 2.96-1.877 5.2 0 1.15.144 2.19.432 3.11.288.93.74 1.72 1.355 2.39q.924.99 2.323 1.5t3.307.51q2.054 0 3.44-.57c.923-.38 1.668-.89 2.234-1.55q.849-.975 1.236-2.28a9.5 9.5 0 0 0 .387-2.75c0-1.19-.184-2.25-.551-3.16a7 7 0 0 0-1.519-2.34 6 6 0 0 0-2.323-1.43c-.904-.31-1.902-.46-2.994-.46m37.383-2.68h1.817a204 204 0 0 0-.134 5.45c-.01.81-.015 1.62-.015 2.41v22.64q0 .93.06 1.59.059.675.193 1.14c.09.3.209.57.358.78q.223.33.521.57c.238.24.556.42.953.55q.595.195 1.519.33t2.219.21c.864.05 1.901.08 3.113.1v2.59h-23.62v-2.59c1.172-.04 2.164-.08 2.978-.13q1.222-.075 2.085-.21a10 10 0 0 0 1.385-.3c.348-.11.651-.24.909-.4.278-.18.516-.37.715-.58s.357-.47.476-.79.214-.71.283-1.16c.07-.46.104-1.03.104-1.7v-21.36c0-.77-.148-1.32-.446-1.63q-.447-.48-1.281-.48c-.616 0-1.529.32-2.74.95-1.212.64-2.78 1.58-4.706 2.83-.258-.46-.497-.91-.715-1.37a98 98 0 0 0-.685-1.4c2.462-1.35 4.899-2.69 7.312-4.03s4.86-2.68 7.342-4.01m-37.293-.21q3.484 0 6.001.72 2.517.705 4.14 1.98c1.083.84 1.887 1.85 2.413 3.02q.789 1.755.789 3.9c0 2.03-.556 3.75-1.668 5.18s-2.799 2.67-5.063 3.7q0 .09.015.24c.01.1.015.17.015.23 2.343.84 4.09 2.06 5.242 3.67s1.727 3.45 1.727 5.54c0 1.65-.327 3.15-.982 4.51-.656 1.36-1.599 2.53-2.83 3.52-1.231.98-2.711 1.73-4.438 2.26-1.728.52-3.674.79-5.838.79q-3.038 0-5.525-.72c-1.658-.47-3.078-1.17-4.259-2.08a9.5 9.5 0 0 1-2.741-3.35c-.645-1.32-.968-2.81-.968-4.46 0-1.19.164-2.24.492-3.17.327-.92.789-1.75 1.385-2.48.596-.74 1.325-1.39 2.189-1.97s1.832-1.13 2.904-1.67v-.39c-2.224-.95-3.857-2.17-4.9-3.64-1.042-1.48-1.563-3.25-1.563-5.29-.04-1.49.288-2.86.983-4.1s1.653-2.29 2.874-3.17q1.832-1.305 4.334-2.04c1.668-.49 3.425-.73 5.272-.73"/><text x="539.039" y="2096.87" fill-opacity="0" font-family="Arial,Arial_MSFontService,sans-serif" font-size="39.257">81</text><path fill="#d74514" d="M395 2175h801v219H395z"/><path fill="#fff" fill-rule="evenodd" d="M666.912 2295.7v7.78h11.185v-7.78Zm0-12.24v7.7h11.185v-7.7Zm23.1-2.51h5.188v29.5h-5.188Zm-28.288-2.43h21.561v39.88c0 4.75-2.189 7.13-6.566 7.13-1.675 0-3.782-.03-6.322-.08-.27-1.19-.648-2.86-1.135-5.03 2.162.17 4.134.25 5.917.25q2.918 0 2.918-3.24v-9.41h-11.185v18.24h-5.188Zm40.69-1.46h5.511v39.47c0 6-2.539 9.03-7.619 9.08-2.756.06-5.917 0-9.483-.16-.27-2-.649-4.03-1.135-6.08 3.404.43 6.322.65 8.754.65 2.648 0 3.972-1.41 3.972-4.22Zm-17.427-23.99c-4.053 5.08-8.43 9.67-13.131 13.78h25.127c-4.593-4-8.592-8.59-11.996-13.78m66.222-5.59h7.051v30.39h21.318v-22.94h6.889v32.1h-6.889v-3H758.26v31.77h23.749v-23.1h6.809v32.18h-6.809v-2.92h-60.953v-29.26h6.89v23.1h23.263v-31.77h-27.964v-29.1h6.889v22.94h21.075Zm-69.302-.41h8.43l-1.378 1.78q9.483 14.265 23.749 20.43c-1.838 2.16-3.243 4.02-4.215 5.59a68 68 0 0 1-10.213-6.97v4.05h-28.126v-3.56a100 100 0 0 1-9.97 7.29c-1.621-2.11-3.053-3.75-4.296-4.94q16.13-9.405 26.019-23.67m-38.501-.57 5.836 1.3c-1.027 3.94-2 7.67-2.918 11.18h14.671v5.19h-16.049q-3.567 13.14-6.403 22.29h7.295v-14.75h5.349v14.75h7.781v5.35h-7.781v11.11c2.864-.38 5.782-.81 8.754-1.3-.27 2.05-.459 3.92-.567 5.59q-4.134.57-8.187 1.14v18.07h-5.349v-17.26c-4.377.65-8.781 1.32-13.212 2.02l-.892-5.91q6.97-.735 14.104-1.62v-11.84h-12.969v-5.59q3.08-8.67 6.403-22.05h-7.133v-5.19h8.43q1.378-5.835 2.837-12.48"/><text x="631.734" y="2316.43" fill-opacity="0" font-family="Arial,Arial_MSFontService,sans-serif" font-size="79.92">输出</text><text fill="#fff" font-family="Microsoft YaHei,Microsoft YaHei_MSFontService,sans-serif" font-size="83" font-weight="700" transform="translate(795.437 2315)">变换</text><path fill-rule="evenodd" d="M690.673 2028.93h16.9l-.446 1.99c-1.216.08-2.168.43-2.857 1.07-.689.63-1.168 1.5-1.439 2.59-.27 1.1-.405 2.64-.405 4.64v1.38q0 .735.041 1.5l.364 15.85c.027 1.16.041 4.04.041 8.63l-.041 8.47h.406l22.411-46.12h6.12v27.03c0 4.46-.122 10.82-.365 19.09h.405l16.414-31.73a61 61 0 0 0 1.966-4.2c.688-1.61 1.033-2.99 1.033-4.15q0-3.405-4.053-4.05l.446-1.99h16.576l-.446 1.99q-1.865.24-3.567 2.04c-1.134 1.2-2.647 3.55-4.539 7.03l-24.357 44.79h-6.241v-29.67c0-4.81.122-9.82.365-15.04H725l-21.682 44.71h-6.363l-1.905-45.07c-.108-2.24-.344-3.96-.709-5.15s-.858-2.05-1.479-2.59q-.933-.81-2.635-1.05Z"/><text x="690.227" y="2077.8" fill-opacity="0" font-family="Arial,Arial_MSFontService,sans-serif" font-size="55.847">𝑊</text><path fill-rule="evenodd" d="M771.17 2082.89c-1.35 0-2.517.19-3.5.56-.983.36-1.792.88-2.427 1.54a5.96 5.96 0 0 0-1.385 2.42c-.288.94-.432 1.99-.432 3.14 0 1.23.159 2.35.476 3.35q.477 1.5 1.475 2.58.997 1.065 2.472 1.65c.983.39 2.13.58 3.44.58 1.37 0 2.527-.2 3.47-.61q1.415-.615 2.323-1.65a6.5 6.5 0 0 0 1.326-2.45q.417-1.395.417-2.91c0-1.3-.179-2.45-.536-3.47-.358-1.03-.869-1.88-1.534-2.57q-.999-1.02-2.428-1.59-1.43-.57-3.157-.57m.06-17.48q-3.574 0-5.451 1.83c-1.251 1.22-1.877 2.96-1.877 5.2 0 1.15.144 2.19.432 3.11.288.93.74 1.72 1.356 2.39q.922.99 2.323 1.5t3.306.51q2.055 0 3.44-.57c.923-.38 1.668-.89 2.234-1.55q.849-.975 1.236-2.28a9.5 9.5 0 0 0 .387-2.75c0-1.19-.183-2.25-.551-3.16a7 7 0 0 0-1.519-2.34 6 6 0 0 0-2.323-1.43c-.904-.31-1.901-.46-2.993-.46m35.059-2.89c2.065 0 3.828.23 5.287.7q2.189.705 3.559 1.89c.914.8 1.574 1.75 1.981 2.86s.611 2.32.611 3.61q0 1.155-.164 2.16a8.8 8.8 0 0 1-.566 1.96q-.403.975-1.057 1.95c-.437.66-.983 1.35-1.639 2.09-.496.63-1.141 1.37-1.936 2.2-.794.84-1.663 1.73-2.606 2.68s-1.931 1.95-2.964 2.98a219 219 0 0 0-3.008 3.07 63 63 0 0 0-2.68 2.95c-.815.95-1.48 1.82-1.996 2.62h11.02c.934 0 1.678-.04 2.234-.11s1.018-.22 1.385-.46c.368-.24.68-.6.939-1.09q.387-.72.893-2.01h2.77q-.148 2.115-.283 4.26t-.283 4.26h-25.228v-1.55a28 28 0 0 1 1.668-3.17 43 43 0 0 1 2.145-3.17 49 49 0 0 1 2.71-3.32 83 83 0 0 1 3.366-3.56c1.866-1.87 3.385-3.46 4.557-4.78s2.095-2.5 2.77-3.53 1.137-1.99 1.385-2.86.372-1.81.372-2.8c0-1.01-.144-1.95-.432-2.8-.287-.85-.7-1.58-1.236-2.17-.536-.6-1.216-1.07-2.04-1.4q-1.236-.51-2.844-.51-2.77 0-4.647 1.5c-1.251 1.01-2.224 2.46-2.919 4.37h-3.902v-5.81c2.542-1.05 4.88-1.82 7.015-2.29q3.201-.72 5.763-.72m-34.97 0q3.485 0 6.002.72 2.517.705 4.14 1.98c1.082.84 1.886 1.85 2.412 3.02q.79 1.755.79 3.9c0 2.03-.556 3.75-1.668 5.18s-2.8 2.67-5.064 3.7q0 .09.015.24c.01.1.015.17.015.23 2.343.84 4.091 2.06 5.242 3.67 1.152 1.61 1.728 3.45 1.728 5.54 0 1.65-.328 3.15-.983 4.51s-1.599 2.53-2.83 3.52c-1.231.98-2.71 1.73-4.438 2.26-1.727.52-3.673.79-5.838.79q-3.038 0-5.525-.72c-1.658-.47-3.078-1.17-4.259-2.08a9.46 9.46 0 0 1-2.74-3.35c-.646-1.32-.968-2.81-.968-4.46 0-1.19.163-2.24.491-3.17.328-.92.789-1.75 1.385-2.48.596-.74 1.326-1.39 2.189-1.97.864-.58 1.832-1.13 2.904-1.67v-.39c-2.224-.95-3.857-2.17-4.899-3.64-1.043-1.48-1.564-3.25-1.564-5.29-.04-1.49.288-2.86.983-4.1s1.653-2.29 2.874-3.17q1.832-1.305 4.334-2.04c1.668-.49 3.425-.73 5.272-.73"/><text x="757.35" y="2096.87" fill-opacity="0" font-family="Arial,Arial_MSFontService,sans-serif" font-size="39.257">82</text><path fill-rule="evenodd" d="M916.946 2028.93h16.9l-.446 1.99c-1.216.08-2.168.43-2.857 1.07-.689.63-1.168 1.5-1.439 2.59-.27 1.1-.405 2.64-.405 4.64v1.38q0 .735.041 1.5l.364 15.85c.027 1.16.041 4.04.041 8.63l-.041 8.47h.406l22.411-46.12h6.12v27.03c0 4.46-.122 10.82-.365 19.09h.405l16.414-31.73a61 61 0 0 0 1.966-4.2c.688-1.61 1.033-2.99 1.033-4.15q0-3.405-4.053-4.05l.446-1.99h16.576l-.446 1.99q-1.865.24-3.566 2.04c-1.135 1.2-2.648 3.55-4.54 7.03l-24.356 44.79h-6.242v-29.67c0-4.81.122-9.82.365-15.04h-.405l-21.682 44.71h-6.363l-1.905-45.07c-.108-2.24-.344-3.96-.709-5.15s-.858-2.05-1.479-2.59q-.933-.81-2.635-1.05Z"/><text x="916.5" y="2077.8" fill-opacity="0" font-family="Arial,Arial_MSFontService,sans-serif" font-size="55.847">𝑊</text><path fill-rule="evenodd" d="M997.443 2082.89c-1.35 0-2.517.19-3.5.56-.983.36-1.792.88-2.427 1.54a5.96 5.96 0 0 0-1.385 2.42c-.288.94-.432 1.99-.432 3.14 0 1.23.159 2.35.476 3.35q.477 1.5 1.475 2.58.997 1.065 2.472 1.65c.983.39 2.13.58 3.44.58 1.37 0 2.528-.2 3.468-.61.95-.41 1.72-.96 2.33-1.65a6.6 6.6 0 0 0 1.32-2.45q.42-1.395.42-2.91c0-1.3-.18-2.45-.54-3.47-.36-1.03-.87-1.88-1.53-2.57a7 7 0 0 0-2.43-1.59q-1.43-.57-3.157-.57m.06-17.48q-3.575 0-5.451 1.83c-1.251 1.22-1.877 2.96-1.877 5.2 0 1.15.144 2.19.432 3.11.288.93.74 1.72 1.356 2.39q.922.99 2.323 1.5t3.306.51q2.057 0 3.438-.57c.93-.38 1.67-.89 2.24-1.55q.84-.975 1.23-2.28c.26-.86.39-1.78.39-2.75 0-1.19-.18-2.25-.55-3.16s-.88-1.69-1.52-2.34a6.1 6.1 0 0 0-2.32-1.43c-.908-.31-1.905-.46-2.997-.46m34.997-2.89c1.59 0 3.08.17 4.46.51s2.57.85 3.58 1.53c1.02.69 1.81 1.54 2.37 2.56.57 1.03.85 2.21.85 3.56 0 1.27-.18 2.4-.53 3.37-.36.97-.91 1.85-1.66 2.65-.74.79-1.66 1.51-2.74 2.16-1.08.64-2.33 1.26-3.74 1.86v.36c1.33.24 2.58.62 3.73 1.14 1.15.53 2.16 1.2 3.02 2s1.54 1.73 2.04 2.78c.5 1.06.75 2.22.75 3.49 0 1.59-.3 3.06-.9 4.42-.59 1.36-1.49 2.54-2.68 3.53-1.19 1-2.66 1.77-4.41 2.33-1.74.55-3.79.83-6.13.83-1.85 0-3.73-.18-5.63-.55-1.91-.37-3.72-.85-5.42-1.45v-6.43h3.84c.32.99.69 1.84 1.13 2.55.44.7.95 1.28 1.53 1.72a5.7 5.7 0 0 0 2.03.97q1.14.3 2.61.3 3.84 0 5.82-1.83c1.32-1.22 1.98-3.07 1.98-5.56q0-3.96-2.61-6c-1.73-1.36-4.31-2.04-7.73-2.04h-2.62v-2.86c2.09-.1 3.89-.39 5.41-.88 1.52-.48 2.78-1.11 3.8-1.89 1.01-.77 1.76-1.68 2.26-2.71q.75-1.545.75-3.3c0-1.91-.57-3.41-1.7-4.52q-1.695-1.65-4.92-1.65c-1.8 0-3.32.5-4.54 1.49s-2.16 2.47-2.81 4.44h-3.79v-5.87q3.525-1.485 6.63-2.25c2.08-.51 4.07-.76 5.97-.76m-34.908 0c2.323 0 4.328.24 5.998.72q2.52.705 4.14 1.98c1.09.84 1.89 1.85 2.42 3.02.52 1.17.79 2.47.79 3.9 0 2.03-.56 3.75-1.67 5.18s-2.8 2.67-5.07 3.7c0 .06.01.14.02.24s.01.17.01.23c2.35.84 4.09 2.06 5.25 3.67 1.15 1.61 1.72 3.45 1.72 5.54 0 1.65-.32 3.15-.98 4.51-.65 1.36-1.6 2.53-2.83 3.52-1.23.98-2.71 1.73-4.44 2.26-1.72.52-3.67.79-5.835.79q-3.038 0-5.525-.72c-1.658-.47-3.078-1.17-4.259-2.08a9.46 9.46 0 0 1-2.74-3.35c-.646-1.32-.968-2.81-.968-4.46 0-1.19.163-2.24.491-3.17.328-.92.789-1.75 1.385-2.48.596-.74 1.326-1.39 2.189-1.97.864-.58 1.832-1.13 2.904-1.67v-.39c-2.224-.95-3.857-2.17-4.899-3.64-1.043-1.48-1.564-3.25-1.564-5.29-.04-1.49.288-2.86.983-4.1s1.653-2.29 2.874-3.17q1.832-1.305 4.334-2.04c1.668-.49 3.425-.73 5.272-.73"/><text x="983.623" y="2096.87" fill-opacity="0" font-family="Arial,Arial_MSFontService,sans-serif" font-size="39.257">83</text><path fill-rule="evenodd" d="M1135.26 2028.93h16.9l-.45 1.99c-1.22.08-2.17.43-2.86 1.07-.69.63-1.17 1.5-1.44 2.59-.27 1.1-.4 2.64-.4 4.64v1.38c0 .49.01.99.04 1.5l.36 15.85c.03 1.16.05 4.04.05 8.63l-.05 8.47h.41l22.41-46.12h6.12v27.03c0 4.46-.12 10.82-.36 19.09h.4l16.42-31.73c.62-1.19 1.27-2.59 1.96-4.2s1.03-2.99 1.03-4.15q0-3.405-4.05-4.05l.45-1.99h16.57l-.44 1.99c-1.25.16-2.43.84-3.57 2.04-1.13 1.2-2.65 3.55-4.54 7.03l-24.36 44.79h-6.24v-29.67c0-4.81.13-9.82.37-15.04h-.41l-21.68 44.71h-6.36l-1.91-45.07c-.1-2.24-.34-3.96-.71-5.15-.36-1.19-.85-2.05-1.48-2.59-.62-.54-1.49-.89-2.63-1.05Z"/><text x="1134.81" y="2077.8" fill-opacity="0" font-family="Arial,Arial_MSFontService,sans-serif" font-size="55.847">𝑊</text><path fill-rule="evenodd" d="M1215.75 2082.89c-1.35 0-2.51.19-3.5.56-.98.36-1.79.88-2.42 1.54-.64.67-1.1 1.47-1.39 2.42-.29.94-.43 1.99-.43 3.14 0 1.23.16 2.35.48 3.35q.465 1.5 1.47 2.58c.67.71 1.49 1.26 2.47 1.65.99.39 2.13.58 3.44.58 1.37 0 2.53-.2 3.47-.61.95-.41 1.72-.96 2.33-1.65a6.6 6.6 0 0 0 1.32-2.45q.42-1.395.42-2.91c0-1.3-.18-2.45-.54-3.47-.36-1.03-.87-1.88-1.53-2.57a7 7 0 0 0-2.43-1.59c-.95-.38-2-.57-3.16-.57m36.52-12.98c-1.9 2.76-3.81 5.5-5.7 8.22-1.9 2.72-3.81 5.45-5.74 8.19v.36h11.44v-5.99c0-.67.01-1.51.03-2.5s.05-2 .08-3.02c.03-1.03.06-2 .1-2.92q.06-1.395.12-2.34Zm-36.46-4.5c-2.38 0-4.2.61-5.45 1.83s-1.87 2.96-1.87 5.2c0 1.15.14 2.19.43 3.11.29.93.74 1.72 1.35 2.39.62.66 1.39 1.16 2.33 1.5q1.395.51 3.3.51c1.37 0 2.52-.19 3.44-.57.93-.38 1.67-.89 2.24-1.55q.84-.975 1.23-2.28c.26-.86.39-1.78.39-2.75 0-1.19-.18-2.25-.55-3.16s-.88-1.69-1.52-2.34a6.1 6.1 0 0 0-2.32-1.43c-.91-.31-1.9-.46-3-.46m37.33-2.47h4.73v23.74h.54q1.215 0 1.98-.12c.51-.08.91-.25 1.22-.49.31-.25.57-.6.77-1.05.21-.44.44-1.02.67-1.74h2.54c-.06 1.09-.13 2.18-.2 3.25s-.13 2.16-.19 3.27h-7.33v3.91c0 1.15.03 2.04.08 2.68.05.63.2 1.13.44 1.49.25.35.62.62 1.11.8q.72.27 2.04.63v1.78h-12.87v-1.78c.59-.16 1.1-.31 1.52-.44.41-.13.76-.27 1.04-.44s.48-.37.61-.6.23-.51.3-.86.11-.79.12-1.31c.01-.53.01-1.18.01-1.95v-3.91h-16.77v-2.35c2.96-4.11 5.9-8.19 8.82-12.26 2.92-4.06 5.86-8.14 8.82-12.25m-37.24-.42q3.495 0 6 .72 2.52.705 4.14 1.98c1.09.84 1.89 1.85 2.42 3.02.52 1.17.79 2.47.79 3.9 0 2.03-.56 3.75-1.67 5.18s-2.8 2.67-5.07 3.7c0 .06.01.14.02.24s.01.17.01.23c2.35.84 4.09 2.06 5.25 3.67 1.15 1.61 1.72 3.45 1.72 5.54 0 1.65-.32 3.15-.98 4.51-.65 1.36-1.6 2.53-2.83 3.52-1.23.98-2.71 1.73-4.44 2.26-1.72.52-3.67.79-5.83.79-2.03 0-3.87-.24-5.53-.72-1.66-.47-3.08-1.17-4.26-2.08a9.5 9.5 0 0 1-2.74-3.35c-.64-1.32-.97-2.81-.97-4.46 0-1.19.17-2.24.49-3.17.33-.92.79-1.75 1.39-2.48.6-.74 1.32-1.39 2.19-1.97.86-.58 1.83-1.13 2.9-1.67v-.39c-2.22-.95-3.85-2.17-4.9-3.64-1.04-1.48-1.56-3.25-1.56-5.29-.04-1.49.29-2.86.98-4.1.7-1.24 1.66-2.29 2.88-3.17 1.22-.87 2.66-1.55 4.33-2.04s3.43-.73 5.27-.73"/><text x="1201.93" y="2096.87" fill-opacity="0" font-family="Arial,Arial_MSFontService,sans-serif" font-size="39.257">84</text><path fill="#d74514" d="M443 2340h42v54h-42zm221 0h41v54h-41zm221 0h42v54h-42zm221 0h42v54h-42z"/><path fill-rule="evenodd" d="M1384.63 1750.18h35.1l-.44 1.94-36.88 49.65h12.96c1.38 0 2.5-.12 3.35-.35s1.6-.57 2.25-1.03q.975-.69 1.98-1.86c.68-.79 1.36-1.75 2.05-2.9q1.035-1.725 2.37-4.8h3.89l-3.12 14.67h-35.95l.41-1.99 36.8-49.61h-12.44c-1.52 0-2.72.14-3.61.41q-1.335.405-2.49 1.44c-.77.69-1.58 1.65-2.42 2.88-.83 1.23-1.81 2.97-2.91 5.24h-3.89Z"/><text x="1372.19" y="1798.58" fill-opacity="0" font-family="Arial,Arial_MSFontService,sans-serif" font-size="55.32">𝑍</text><path fill-rule="evenodd" d="M1437.26 1791.15c-1.91 2.76-3.81 5.51-5.7 8.23-1.9 2.72-3.81 5.45-5.74 8.19v.35h11.44v-5.98c0-.68.01-1.51.03-2.51.02-.99.05-2 .08-3.02s.06-1.99.1-2.92q.06-1.38.12-2.34Zm.86-6.97h4.74v23.74h.54q1.215 0 1.98-.12c.5-.07.91-.24 1.22-.49s.56-.59.77-1.04.43-1.03.67-1.74h2.53c-.05 1.09-.12 2.17-.19 3.24-.07 1.08-.13 2.17-.19 3.28h-7.33v3.9c0 1.15.03 2.05.08 2.68.04.64.19 1.14.44 1.49.25.36.62.63 1.1.81.49.18 1.17.38 2.04.62v1.79h-12.86v-1.79c.59-.16 1.1-.3 1.52-.43.41-.13.76-.28 1.04-.45.28-.16.48-.36.61-.59q.195-.345.3-.87c.07-.34.11-.78.12-1.31.01-.52.01-1.17.01-1.95v-3.9h-16.77v-2.35c2.96-4.11 5.9-8.2 8.82-12.26s5.86-8.14 8.81-12.26m32.68-.41c1.59 0 3.07.17 4.45.5 1.38.34 2.58.85 3.59 1.54a7.24 7.24 0 0 1 2.37 2.56c.57 1.02.85 2.21.85 3.56q0 1.905-.54 3.36c-.35.98-.9 1.86-1.65 2.66-.74.79-1.66 1.51-2.74 2.16-1.08.64-2.33 1.26-3.74 1.86v.35c1.33.24 2.57.62 3.73 1.15 1.15.53 2.16 1.19 3.02 2 .86.8 1.54 1.73 2.04 2.78s.74 2.22.74 3.49c0 1.58-.29 3.06-.89 4.42a9.6 9.6 0 0 1-2.68 3.53c-1.19.99-2.66 1.77-4.41 2.32-1.75.56-3.79.84-6.13.84-1.85 0-3.73-.19-5.63-.55-1.91-.37-3.72-.85-5.42-1.45v-6.43h3.84c.32.99.69 1.84 1.13 2.54.44.71.95 1.28 1.53 1.73.59.45 1.26.77 2.03.97q1.14.3 2.61.3 3.84 0 5.82-1.83c1.32-1.23 1.98-3.08 1.98-5.56q0-3.96-2.61-6c-1.73-1.36-4.31-2.04-7.73-2.04h-2.62v-2.86c2.09-.1 3.89-.39 5.41-.88s2.78-1.12 3.8-1.89c1.01-.78 1.76-1.68 2.26-2.71s.74-2.14.74-3.31c0-1.9-.56-3.41-1.69-4.51-1.14-1.1-2.77-1.65-4.92-1.65-1.8 0-3.32.49-4.54 1.49-1.22.99-2.16 2.47-2.81 4.43h-3.79v-5.86c2.35-1 4.55-1.75 6.63-2.25 2.07-.51 4.07-.76 5.97-.76"/><text x="1420.49" y="1817.96" fill-opacity="0" font-family="Arial,Arial_MSFontService,sans-serif" font-size="39.078">43</text><path d="M1339.57 1771.917h-103.816v9.167h103.816Zm-99.233-18.333-45.833 22.916 45.833 22.917Z"/><path fill-rule="evenodd" d="M1384.63 1901.02h35.1l-.44 1.94-36.88 49.65h12.96c1.38 0 2.5-.12 3.35-.35s1.6-.57 2.25-1.03q.975-.69 1.98-1.86c.68-.79 1.36-1.75 2.05-2.9q1.035-1.725 2.37-4.8h3.89l-3.12 14.67h-35.95l.41-1.99 36.8-49.6h-12.44c-1.52 0-2.72.13-3.61.4q-1.335.405-2.49 1.44c-.77.69-1.58 1.65-2.42 2.88-.83 1.23-1.81 2.98-2.91 5.25h-3.89Z"/><text x="1372.19" y="1949.42" fill-opacity="0" font-family="Arial,Arial_MSFontService,sans-serif" font-size="55.32">𝑍</text><path fill-rule="evenodd" d="M1470.74 1954.98c-1.35 0-2.51.19-3.5.55-.98.37-1.79.89-2.43 1.55-.63.67-1.09 1.47-1.38 2.41-.29.95-.43 1.99-.43 3.15 0 1.23.16 2.34.47 3.35.32 1 .81 1.86 1.48 2.57.66.72 1.49 1.27 2.47 1.66.98.38 2.13.58 3.44.58 1.37 0 2.53-.21 3.47-.61.94-.41 1.72-.96 2.32-1.66.61-.69 1.05-1.51 1.33-2.44s.42-1.9.42-2.92c0-1.29-.18-2.44-.54-3.47-.36-1.02-.87-1.87-1.53-2.56a6.9 6.9 0 0 0-2.43-1.59c-.95-.38-2.01-.57-3.16-.57m-33.48-12.98q-2.865 4.14-5.7 8.22c-1.9 2.72-3.81 5.45-5.74 8.19v.35h11.44v-5.98c0-.68.01-1.51.03-2.5.02-1 .05-2 .08-3.03.03-1.02.06-1.99.1-2.92.04-.92.08-1.7.12-2.33Zm33.54-4.5c-2.38 0-4.2.61-5.45 1.83s-1.88 2.95-1.88 5.2c0 1.15.15 2.19.44 3.11.28.92.74 1.72 1.35 2.38.62.67 1.39 1.17 2.32 1.51.94.33 2.04.5 3.31.5 1.37 0 2.52-.19 3.44-.56.92-.38 1.67-.9 2.23-1.55.57-.66.98-1.42 1.24-2.28q.39-1.29.39-2.76c0-1.19-.19-2.24-.55-3.15-.37-.92-.88-1.7-1.52-2.34a5.9 5.9 0 0 0-2.33-1.43c-.9-.31-1.9-.46-2.99-.46m-32.68-2.47h4.74v23.73h.54c.81 0 1.47-.04 1.98-.11.5-.08.91-.25 1.22-.5.31-.24.56-.59.77-1.04s.43-1.03.67-1.74h2.53c-.05 1.09-.12 2.17-.19 3.25-.07 1.07-.13 2.16-.19 3.27h-7.33v3.9c0 1.16.03 2.05.08 2.68.04.64.19 1.14.44 1.49.25.36.62.63 1.1.81.49.18 1.17.39 2.04.62v1.79h-12.86v-1.79c.59-.16 1.1-.3 1.52-.43.41-.13.76-.28 1.04-.45.28-.16.48-.36.61-.59s.23-.52.3-.86q.105-.525.12-1.32c.01-.52.01-1.17.01-1.95v-3.9h-16.77v-2.35c2.96-4.11 5.9-8.2 8.82-12.26s5.86-8.14 8.81-12.25m32.77-.42c2.32 0 4.32.24 6 .71q2.52.72 4.14 1.98c1.08.85 1.89 1.86 2.42 3.03q.78 1.755.78 3.9c0 2.02-.55 3.75-1.66 5.18-1.12 1.43-2.8 2.66-5.07 3.7 0 .05.01.13.02.23s.01.18.01.24c2.35.84 4.09 2.06 5.25 3.67 1.15 1.6 1.72 3.45 1.72 5.54 0 1.64-.32 3.15-.98 4.51a10.06 10.06 0 0 1-2.83 3.51c-1.23.99-2.71 1.74-4.44 2.27-1.73.52-3.67.79-5.84.79q-3.03 0-5.52-.72c-1.66-.48-3.08-1.17-4.26-2.08a9.5 9.5 0 0 1-2.74-3.36c-.65-1.32-.97-2.8-.97-4.45 0-1.19.17-2.25.49-3.17.33-.92.79-1.75 1.39-2.49.59-.73 1.32-1.39 2.19-1.96.86-.58 1.83-1.13 2.9-1.67v-.39c-2.22-.95-3.86-2.17-4.9-3.65q-1.56-2.22-1.56-5.28c-.04-1.49.29-2.86.98-4.1.7-1.24 1.65-2.3 2.88-3.17 1.22-.87 2.66-1.56 4.33-2.04 1.67-.49 3.42-.73 5.27-.73"/><text x="1420.49" y="1968.96" fill-opacity="0" font-family="Arial,Arial_MSFontService,sans-serif" font-size="39.257">48</text><path d="M1339.57 1922.917h-103.816v9.167h103.816Zm-99.233-18.333-45.833 22.916 45.833 22.917Z"/><path fill-rule="evenodd" d="M1286.73 1871.11c1.41 0 2.58.49 3.53 1.48.95.98 1.42 2.23 1.42 3.75 0 1.51-.47 2.76-1.42 3.75-.95.98-2.12 1.47-3.53 1.47-1.4 0-2.58-.49-3.52-1.47-.95-.99-1.42-2.24-1.42-3.75 0-1.52.47-2.77 1.42-3.75.94-.99 2.12-1.48 3.52-1.48m0-21.56c1.41 0 2.58.49 3.53 1.48.95.98 1.42 2.23 1.42 3.75 0 1.51-.47 2.76-1.42 3.75-.95.98-2.12 1.47-3.53 1.47-1.4 0-2.58-.49-3.52-1.47-.95-.99-1.42-2.24-1.42-3.75 0-1.52.47-2.77 1.42-3.75.94-.99 2.12-1.48 3.52-1.48m0-21.56c1.41 0 2.58.49 3.53 1.48.95.98 1.42 2.23 1.42 3.75 0 1.51-.47 2.76-1.42 3.74-.95.99-2.12 1.48-3.53 1.48-1.4 0-2.58-.49-3.52-1.48-.95-.98-1.42-2.23-1.42-3.74 0-1.52.47-2.77 1.42-3.75.94-.99 2.12-1.48 3.52-1.48"/><text x="1281.79" y="1874.87" fill-opacity="0" font-family="Arial,Arial_MSFontService,sans-serif" font-size="53.577">⋮</text><path fill-rule="evenodd" d="M1384.63 2184.55h35.1l-.44 1.95-36.88 49.64h12.96c1.38 0 2.5-.11 3.35-.34s1.6-.58 2.25-1.03c.65-.46 1.31-1.09 1.98-1.87.68-.78 1.36-1.75 2.05-2.9.69-1.14 1.48-2.75 2.37-4.8h3.89l-3.12 14.67h-35.95l.41-1.98 36.8-49.61h-12.44c-1.52 0-2.72.14-3.61.41s-1.72.75-2.49 1.43c-.77.69-1.58 1.65-2.42 2.88-.83 1.23-1.81 2.98-2.91 5.25h-3.89Z"/><text x="1372.19" y="2232.96" fill-opacity="0" font-family="Arial,Arial_MSFontService,sans-serif" font-size="55.32">𝑍</text><path fill-rule="evenodd" d="M1437.26 2225.53q-2.865 4.14-5.7 8.22c-1.9 2.72-3.81 5.45-5.74 8.19v.36h11.44v-5.99c0-.67.01-1.51.03-2.5s.05-2 .08-3.02c.03-1.03.06-2 .1-2.92q.06-1.38.12-2.34Zm33.06-4.5c-1.37 0-2.55.22-3.55.66a6.66 6.66 0 0 0-2.51 1.84c-.66.8-1.16 1.77-1.49 2.91-.32 1.14-.49 2.42-.49 3.83 0 2.6.58 4.61 1.73 6.03s2.89 2.13 5.21 2.13c1.33 0 2.58-.18 3.74-.52 1.16-.35 2.21-.82 3.14-1.42.4-.26.71-.5.93-.73.21-.23.39-.47.53-.74s.23-.61.26-1.03.04-.97.04-1.67c0-1.59-.13-3.07-.4-4.45s-.71-2.57-1.31-3.58c-.61-1-1.39-1.79-2.36-2.38-.96-.58-2.11-.88-3.47-.88m-32.2-2.47h4.74v23.74h.54q1.215 0 1.98-.12c.5-.08.91-.24 1.22-.49s.56-.6.77-1.04c.21-.45.43-1.03.67-1.75h2.53c-.05 1.1-.12 2.18-.19 3.25s-.13 2.16-.19 3.28h-7.33v3.9c0 1.15.03 2.04.08 2.68.04.64.19 1.13.44 1.49s.62.62 1.1.8q.735.27 2.04.63v1.79h-12.86v-1.79c.59-.16 1.1-.3 1.52-.43.41-.13.76-.28 1.04-.45s.48-.37.61-.6c.13-.22.23-.51.3-.86s.11-.78.12-1.31.01-1.18.01-1.95v-3.9h-16.77v-2.36c2.96-4.11 5.9-8.19 8.82-12.25s5.86-8.15 8.81-12.26m32.59-.42c2.15 0 4.03.36 5.66 1.06 1.63.71 3 1.73 4.11 3.07s1.96 3 2.53 4.97q.87 2.97.87 6.81c0 3.39-.46 6.48-1.39 9.26q-1.38 4.17-3.96 7.17a19.3 19.3 0 0 1-6.19 4.75c-2.42 1.17-5.09 1.84-8.03 2.02l-1.34-1.52v-1.81q3.42 0 6-1.14 2.58-1.125 4.41-3.12c1.22-1.33 2.18-2.91 2.87-4.74.7-1.83 1.13-3.83 1.31-6.02l-.27-.14c-1.68 1.05-3.33 1.84-4.92 2.36-1.6.53-3.36.79-5.26.79-1.75 0-3.29-.26-4.63-.77-1.34-.52-2.47-1.26-3.38-2.22-.92-.96-1.61-2.13-2.07-3.5-.47-1.37-.7-2.94-.7-4.71 0-1.7.3-3.32.9-4.84a11.1 11.1 0 0 1 2.73-3.99c1.21-1.14 2.72-2.05 4.53-2.72 1.8-.68 3.88-1.02 6.22-1.02"/><text x="1420.49" y="2252.36" fill-opacity="0" font-family="Arial,Arial_MSFontService,sans-serif" font-size="39.108">49</text><path d="M1339.57 2205.917h-103.816v9.167h103.816Zm-99.233-18.333-45.833 22.916 45.833 22.917Z"/><path fill-rule="evenodd" d="M1384.63 2335.39h35.1l-.44 1.95-36.88 49.64h12.96c1.38 0 2.5-.11 3.35-.34s1.6-.57 2.25-1.03 1.31-1.08 1.98-1.87c.68-.78 1.36-1.75 2.05-2.9q1.035-1.71 2.37-4.8h3.89l-3.12 14.67h-35.95l.41-1.98 36.8-49.61h-12.44c-1.52 0-2.72.14-3.61.41q-1.335.405-2.49 1.44c-.77.68-1.58 1.64-2.42 2.87-.83 1.23-1.81 2.98-2.91 5.25h-3.89Z"/><text x="1372.19" y="2383.8" fill-opacity="0" font-family="Arial,Arial_MSFontService,sans-serif" font-size="55.32">𝑍</text><path fill-rule="evenodd" d="M1470.86 2368.98c2.07 0 3.83.24 5.29.7 1.46.47 2.64 1.1 3.56 1.9.91.79 1.57 1.74 1.98 2.86.41 1.11.61 2.31.61 3.6 0 .77-.06 1.49-.17 2.16-.1.66-.29 1.32-.56 1.96-.27.65-.62 1.3-1.06 1.96-.44.65-.98 1.35-1.64 2.08-.49.64-1.14 1.37-1.93 2.2-.8.84-1.67 1.73-2.61 2.69-.94.95-1.93 1.94-2.96 2.97-1.04 1.04-2.04 2.06-3.01 3.07s-1.87 2-2.68 2.95c-.82.95-1.48 1.83-2 2.62h11.02c.94 0 1.68-.03 2.24-.1.55-.07 1.01-.23 1.38-.46.37-.24.68-.61.94-1.09.26-.49.56-1.16.89-2.01h2.77c-.1 1.41-.19 2.83-.28 4.26s-.18 2.85-.28 4.26h-25.23v-1.55c.48-1.07 1.03-2.13 1.67-3.17.63-1.05 1.35-2.1 2.14-3.18.8-1.07 1.7-2.18 2.71-3.32 1.02-1.14 2.14-2.33 3.37-3.56 1.87-1.86 3.38-3.46 4.56-4.78 1.17-1.32 2.09-2.49 2.77-3.53.67-1.03 1.13-1.98 1.38-2.86.25-.87.37-1.8.37-2.8 0-1.01-.14-1.94-.43-2.8-.29-.85-.7-1.57-1.23-2.17-.54-.6-1.22-1.06-2.04-1.4q-1.245-.51-2.85-.51c-1.85 0-3.39.5-4.65 1.51-1.25 1-2.22 2.45-2.91 4.36h-3.91v-5.81c2.54-1.05 4.88-1.81 7.02-2.29q3.195-.72 5.76-.72m-26.48-1.43h2.68l-.42 7.21h-17.45v11.65c1.05-.36 2.2-.65 3.45-.86 1.26-.22 2.52-.33 3.79-.33 1.82 0 3.48.25 4.96.76 1.48.5 2.75 1.23 3.81 2.17s1.89 2.09 2.47 3.43c.59 1.34.88 2.84.88 4.51 0 1.91-.33 3.6-.98 5.09-.66 1.49-1.6 2.76-2.82 3.8s-2.71 1.84-4.47 2.38c-1.75.55-3.73.82-5.94.82-1.75 0-3.53-.17-5.36-.5-1.83-.34-3.72-.84-5.69-1.49v-6.62h3.81c.6 2.01 1.49 3.44 2.68 4.31q1.8 1.29 4.71 1.29c2.6 0 4.57-.67 5.9-2.02s1.99-3.47 1.99-6.35c0-2.76-.7-4.81-2.11-6.15s-3.39-2.01-5.93-2.01q-1.005 0-1.83.03t-1.62.15c-.54.08-1.07.19-1.6.33l-1.77.48-2.44-1.34v-18.74h16.5c.48-.02.86-.05 1.15-.09.28-.04.52-.13.7-.27s.33-.33.47-.58.3-.6.48-1.06"/><text x="1423.29" y="2403.1" fill-opacity="0" font-family="Arial,Arial_MSFontService,sans-serif" font-size="40.627">52</text><path d="M1339.57 2356.917h-103.816v9.167h103.816Zm-99.233-18.333-45.833 22.916 45.833 22.917Z"/><path fill-rule="evenodd" d="M1286.73 2305.48c1.41 0 2.58.5 3.53 1.48.95.99 1.42 2.24 1.42 3.75 0 1.52-.47 2.77-1.42 3.75-.95.99-2.12 1.48-3.53 1.48-1.4 0-2.58-.49-3.52-1.48-.95-.98-1.42-2.23-1.42-3.75 0-1.51.47-2.76 1.42-3.75.94-.98 2.12-1.48 3.52-1.48m0-21.56c1.41 0 2.58.5 3.53 1.48.95.99 1.42 2.24 1.42 3.75 0 1.52-.47 2.76-1.42 3.75s-2.12 1.48-3.53 1.48c-1.4 0-2.58-.49-3.52-1.48-.95-.99-1.42-2.23-1.42-3.75 0-1.51.47-2.76 1.42-3.75.94-.98 2.12-1.48 3.52-1.48m0-21.56c1.41 0 2.58.5 3.53 1.48.95.99 1.42 2.24 1.42 3.75s-.47 2.76-1.42 3.75-2.12 1.48-3.53 1.48c-1.4 0-2.58-.49-3.52-1.48-.95-.99-1.42-2.24-1.42-3.75s.47-2.76 1.42-3.75c.94-.98 2.12-1.48 3.52-1.48"/><text x="1281.79" y="2309.24" fill-opacity="0" font-family="Arial,Arial_MSFontService,sans-serif" font-size="53.577">⋮</text><text font-family="Microsoft YaHei,Microsoft YaHei_MSFontService,sans-serif" font-size="83" font-weight="400" transform="translate(714.37 2773)">密文</text><path d="M459.917 2394.5v145.833h337.647l-4.583-4.583v100h9.166v-104.583H464.5l4.583 4.583V2394.5Zm314.73 236.667L797.564 2677l22.917-45.833Z"/><path d="M679.917 2394.5v145.833h117.069l-4.584-4.583v100h9.167v-104.583H684.5l4.583 4.583V2394.5Zm94.152 236.667L796.986 2677l22.916-45.833Z"/><path d="M910.939 2394.5v145.83H797.5l4.583-4.58v100h-9.166v-104.58h113.439l-4.583 4.58V2394.5Zm-90.522 236.67L797.5 2677l-22.917-45.83Z"/><path d="M1132.28 2394.5v145.83H797.5l4.583-4.58v100h-9.166v-104.58H1127.7l-4.59 4.58V2394.5Zm-311.863 236.67L797.5 2677l-22.917-45.83Z"/><path fill-rule="evenodd" d="M492.215 2432.12h15.684l-.446 1.98c-1.135.11-1.999.44-2.594 1-.594.55-.891 1.41-.891 2.57q0 2.475 1.135 6.48l4.295 15.28 9.97-13.33c2.027-2.7 3.357-4.71 3.992-6.02s.952-2.46.952-3.46c0-.76-.256-1.34-.77-1.75-.513-.4-1.256-.66-2.229-.77l.446-1.98h15.198l-.446 1.98c-.648.14-1.209.33-1.682.59s-1.013.67-1.621 1.24c-.608.56-1.432 1.48-2.472 2.73-1.04 1.26-2.371 2.94-3.992 5.05l-15.765 20.47-2.513 11.46a42 42 0 0 0-.506 2.54c-.095.61-.176 1.25-.243 1.94-.068.69-.102 1.31-.102 1.85 0 .83.135 1.49.406 1.96.27.48.675.82 1.215 1.04q.811.315 2.797.48l-.446 1.99h-17.062l.446-1.99c1.08-.16 1.878-.38 2.391-.65s.966-.69 1.358-1.25c.391-.57.783-1.46 1.175-2.68.392-1.21.858-3.05 1.398-5.51l2.391-11.18-5.876-20.47q-1.337-4.71-2.108-6.36c-.513-1.11-1.06-1.9-1.641-2.35q-.871-.69-2.29-.9Z"/><text x="491.769" y="2480.52" fill-opacity="0" font-family="Arial,Arial_MSFontService,sans-serif" font-size="55.32">𝑌</text><path fill-rule="evenodd" d="M542.057 2465.92h1.817a219 219 0 0 0-.149 7.86v22.64q0 .915.06 1.59c.039.45.104.83.193 1.13.09.31.209.57.358.79q.223.33.521.57c.238.24.556.42.953.55q.596.195 1.519.33t2.219.21c.864.05 1.901.08 3.113.1v2.59h-23.62v-2.59c1.172-.04 2.164-.08 2.979-.13q1.221-.075 2.084-.21a10 10 0 0 0 1.386-.3c.347-.11.65-.24.908-.4.278-.18.516-.37.715-.58s.357-.47.476-.79.214-.71.283-1.16c.07-.46.105-1.03.105-1.7v-21.36c0-.77-.149-1.32-.447-1.64-.298-.31-.725-.47-1.281-.47-.616 0-1.529.32-2.74.95-1.211.64-2.78 1.58-4.706 2.83-.258-.46-.497-.91-.715-1.37a98 98 0 0 0-.685-1.4c2.462-1.35 4.899-2.7 7.312-4.04s4.86-2.67 7.342-4"/><text x="527.403" y="2499.49" fill-opacity="0" font-family="Arial,Arial_MSFontService,sans-serif" font-size="38.363">1</text><path fill-rule="evenodd" d="M709.574 2432.12h15.684l-.446 1.98c-1.134.11-1.999.44-2.593 1-.595.55-.892 1.41-.892 2.57q0 2.475 1.135 6.48l4.296 15.28 9.969-13.33c2.027-2.7 3.357-4.71 3.992-6.02s.953-2.46.953-3.46c0-.76-.257-1.34-.77-1.75-.514-.4-1.257-.66-2.229-.77l.445-1.98h15.198l-.446 1.98c-.648.14-1.209.33-1.681.59-.473.26-1.014.67-1.622 1.24-.607.56-1.432 1.48-2.472 2.73-1.04 1.26-2.371 2.94-3.992 5.05l-15.765 20.47-2.512 11.46a41 41 0 0 0-.507 2.54c-.095.61-.176 1.25-.243 1.94-.068.69-.102 1.31-.102 1.85 0 .83.135 1.49.406 1.96.27.48.675.82 1.216 1.04q.81.315 2.796.48l-.446 1.99h-17.062l.446-1.99c1.081-.16 1.878-.38 2.391-.65s.966-.69 1.358-1.25c.391-.57.783-1.46 1.175-2.68.392-1.21.858-3.05 1.398-5.51l2.391-11.18-5.876-20.47q-1.338-4.71-2.108-6.36c-.513-1.11-1.06-1.9-1.641-2.35q-.871-.69-2.29-.9Z"/><text x="709.128" y="2480.52" fill-opacity="0" font-family="Arial,Arial_MSFontService,sans-serif" font-size="55.32">𝑌</text><path fill-rule="evenodd" d="M758.995 2465.71c2.065 0 3.828.23 5.287.7q2.189.705 3.559 1.89c.914.8 1.574 1.75 1.981 2.86q.61 1.665.611 3.6 0 1.17-.164 2.16a9 9 0 0 1-.566 1.97c-.268.64-.621 1.3-1.057 1.95-.437.66-.983 1.35-1.639 2.09-.496.63-1.141 1.37-1.936 2.2s-1.663 1.73-2.606 2.68-1.931 1.95-2.964 2.98a175 175 0 0 0-3.008 3.07 64 64 0 0 0-2.681 2.95c-.814.95-1.479 1.82-1.995 2.62h11.02c.934 0 1.678-.04 2.234-.11s1.018-.22 1.385-.46c.368-.24.68-.6.939-1.09q.387-.72.893-2.01h2.77q-.148 2.115-.283 4.26t-.283 4.26h-25.228v-1.55a28 28 0 0 1 1.668-3.17 43 43 0 0 1 2.145-3.17 49 49 0 0 1 2.71-3.32 83 83 0 0 1 3.366-3.56c1.866-1.87 3.385-3.46 4.557-4.78s2.095-2.5 2.77-3.53 1.137-1.99 1.385-2.86c.248-.88.372-1.81.372-2.8 0-1.01-.144-1.95-.432-2.8-.287-.85-.7-1.58-1.236-2.18-.536-.59-1.216-1.06-2.04-1.4-.824-.33-1.772-.5-2.844-.5q-2.77 0-4.647 1.5c-1.251 1.01-2.224 2.46-2.919 4.37h-3.902v-5.81c2.542-1.05 4.88-1.82 7.015-2.3 2.134-.47 4.055-.71 5.763-.71"/><text x="745.264" y="2499.46" fill-opacity="0" font-family="Arial,Arial_MSFontService,sans-serif" font-size="38.572">2</text><path fill-rule="evenodd" d="M935.847 2432.12h15.684l-.446 1.98c-1.134.11-1.999.44-2.593 1-.595.55-.892 1.41-.892 2.57q0 2.475 1.135 6.48l4.296 15.28L963 2446.1c2.027-2.7 3.357-4.71 3.992-6.02s.953-2.46.953-3.46c0-.76-.257-1.34-.77-1.75-.514-.4-1.257-.66-2.229-.77l.445-1.98h15.198l-.446 1.98c-.648.14-1.209.33-1.681.59-.473.26-1.014.67-1.622 1.24-.607.56-1.431 1.48-2.472 2.73-1.04 1.26-2.371 2.94-3.992 5.05l-15.765 20.47-2.512 11.46a41 41 0 0 0-.507 2.54c-.095.61-.176 1.25-.243 1.94-.068.69-.102 1.31-.102 1.85 0 .83.136 1.49.406 1.96.27.48.675.82 1.216 1.04q.81.315 2.796.48l-.446 1.99h-17.062l.446-1.99c1.081-.16 1.878-.38 2.391-.65s.966-.69 1.358-1.25c.391-.57.783-1.46 1.175-2.68.392-1.21.858-3.05 1.398-5.51l2.391-11.18-5.876-20.47q-1.338-4.71-2.108-6.36c-.513-1.11-1.06-1.9-1.641-2.35q-.871-.69-2.29-.9Z"/><text x="935.401" y="2480.52" fill-opacity="0" font-family="Arial,Arial_MSFontService,sans-serif" font-size="55.32">𝑌</text><path fill-rule="evenodd" d="M985.209 2465.71q2.382 0 4.452.51 2.071.495 3.59 1.53c1.012.69 1.802 1.54 2.367 2.56.566 1.02.849 2.21.849 3.56 0 1.27-.178 2.39-.536 3.37a7.8 7.8 0 0 1-1.653 2.65q-1.117 1.185-2.74 2.16-1.623.96-3.738 1.86v.36c1.33.23 2.571.62 3.723 1.14 1.152.53 2.159 1.19 3.023 2 .864.8 1.544 1.73 2.04 2.78.497 1.06.745 2.22.745 3.49 0 1.59-.298 3.06-.893 4.42-.596 1.36-1.49 2.54-2.681 3.53s-2.661 1.77-4.408 2.32q-2.622.84-6.136.84c-1.847 0-3.723-.19-5.629-.55a38 38 0 0 1-5.421-1.45v-6.43h3.842q.477 1.485 1.132 2.55c.437.7.948 1.28 1.534 1.72.585.45 1.261.77 2.025.97q1.147.3 2.606.3 3.843 0 5.823-1.83c1.321-1.22 1.981-3.08 1.981-5.56q0-3.96-2.606-6-2.607-2.04-7.729-2.04h-2.622v-2.86c2.085-.1 3.887-.39 5.406-.88 1.52-.48 2.785-1.12 3.798-1.89s1.767-1.68 2.264-2.71a7.5 7.5 0 0 0 .744-3.31c0-1.9-.566-3.41-1.697-4.51q-1.698-1.65-4.915-1.65c-1.807 0-3.321.49-4.542 1.49q-1.832 1.485-2.815 4.44h-3.783v-5.87q3.516-1.485 6.628-2.25c2.075-.51 4.065-.76 5.972-.76"/><text x="972.163" y="2499.9" fill-opacity="0" font-family="Arial,Arial_MSFontService,sans-serif" font-size="39.078">3</text><path fill-rule="evenodd" d="M1154.16 2432.12h15.68l-.44 1.98c-1.14.11-2 .44-2.6 1-.59.55-.89 1.41-.89 2.57q0 2.475 1.14 6.48l4.29 15.28 9.97-13.33c2.03-2.7 3.36-4.71 3.99-6.02.64-1.31.96-2.46.96-3.46 0-.76-.26-1.34-.78-1.75-.51-.4-1.25-.66-2.22-.77l.44-1.98h15.2l-.45 1.98c-.64.14-1.21.33-1.68.59s-1.01.67-1.62 1.24c-.61.56-1.43 1.48-2.47 2.73-1.04 1.26-2.37 2.94-3.99 5.05l-15.77 20.47-2.51 11.46a51 51 0 0 0-.51 2.54c-.09.61-.17 1.25-.24 1.94s-.1 1.31-.1 1.85c0 .83.13 1.49.4 1.96.27.48.68.82 1.22 1.04.54.21 1.47.37 2.8.48l-.45 1.99h-17.06l.44-1.99c1.08-.16 1.88-.38 2.39-.65.52-.27.97-.69 1.36-1.25.39-.57.79-1.46 1.18-2.68.39-1.21.86-3.05 1.4-5.51l2.39-11.18-5.88-20.47c-.89-3.14-1.59-5.26-2.11-6.36-.51-1.11-1.06-1.9-1.64-2.35-.58-.46-1.34-.76-2.29-.9Z"/><text x="1153.71" y="2480.52" fill-opacity="0" font-family="Arial,Arial_MSFontService,sans-serif" font-size="55.32">𝑌</text><path fill-rule="evenodd" d="M1204.98 2473.1c-1.91 2.76-3.81 5.5-5.71 8.22q-2.835 4.08-5.73 8.19v.36h11.44v-5.99c0-.68.01-1.51.03-2.5.02-1 .04-2 .07-3.03.03-1.02.07-1.99.11-2.92.04-.92.08-1.7.12-2.33Zm.86-6.97h4.74v23.74h.53q1.23 0 1.98-.12c.51-.08.92-.25 1.23-.5.3-.24.56-.59.77-1.04.21-.44.43-1.03.67-1.74h2.53c-.06 1.09-.12 2.17-.19 3.25-.07 1.07-.14 2.16-.19 3.27h-7.33v3.9c0 1.16.02 2.05.07 2.69.05.63.2 1.13.45 1.48.25.36.61.63 1.1.81s1.17.39 2.04.62v1.79h-12.87v-1.79c.6-.15 1.11-.3 1.52-.43.42-.13.77-.28 1.05-.44.27-.17.48-.37.61-.6s.22-.52.29-.86c.07-.35.11-.79.12-1.31.01-.53.02-1.18.02-1.96v-3.9h-16.77v-2.35c2.96-4.11 5.9-8.2 8.82-12.26 2.91-4.06 5.85-8.14 8.81-12.25"/><text x="1188.21" y="2499.51" fill-opacity="0" font-family="Arial,Arial_MSFontService,sans-serif" font-size="38.155">4</text><text font-family="Microsoft YaHei,Microsoft YaHei_MSFontService,sans-serif" font-size="83" font-weight="400" transform="translate(1664.14 206)">128<tspan x="169.01" y="0">比特密钥</tspan></text><path fill-rule="evenodd" d="M2200.63 151.098h35.1l-.45 1.945-36.88 49.646h12.97c1.38 0 2.49-.115 3.35-.344a7 7 0 0 0 2.25-1.034c.64-.459 1.31-1.081 1.98-1.864.68-.784 1.36-1.75 2.05-2.898q1.035-1.722 2.37-4.802h3.89l-3.12 14.671h-35.95l.41-1.986 36.79-49.606h-12.44q-2.265 0-3.6.406c-.9.27-1.73.749-2.5 1.438s-1.57 1.648-2.41 2.878c-.84 1.229-1.81 2.979-2.92 5.248h-3.89Z"/><text x="2188.19" y="199.503" fill-opacity="0" font-family="Arial,Arial_MSFontService,sans-serif" font-size="55.32">𝑍</text><path fill="#d74514" d="M1551 554h801v218h-801z"/><path fill="#fff" fill-rule="evenodd" d="M1713.95 628.15h63.22v6.323l-27.15 19.858v5.755h35.5v6.079h-35.5v25.532c0 7.241-3.78 10.862-11.35 10.862-2.48 0-6.75-.054-12.8-.163-.22-2.161-.54-4.62-.98-7.375 3.95.486 8.11.756 12.49.81 3.83 0 5.75-1.945 5.75-5.836v-23.83h-37.69v-6.079h37.69v-8.916l23.26-16.941h-52.44Z"/><text x="1705.44" y="693.258" fill-opacity="0" font-family="Arial,Arial_MSFontService,sans-serif" font-size="74.408">子</text><text fill="#fff" font-family="Microsoft YaHei,Microsoft YaHei_MSFontService,sans-serif" font-size="83" font-weight="700" transform="translate(1786.32 692)">密钥生成器</text><path d="M1956.08 244.5v268.914h-9.16V244.5Zm18.34 264.33-22.92 45.834-22.92-45.833ZM1786.08 768.5v162.042h-9.16V768.5Zm18.34 157.458-22.92 45.834-22.92-45.833Z"/><path fill="none" stroke="#000" stroke-miterlimit="8" stroke-width="9.167" d="m1836.79 809.5-123.293 96.25"/><path fill-rule="evenodd" d="M1916.49 875.223c-1.32 0-2.6.149-3.83.446s-2.39.729-3.47 1.297a17.8 17.8 0 0 0-3.16 2.148 3.5 3.5 0 0 0-.73.932c-.27.513-.44 1.148-.52 1.904-.08.757-.13 2.027-.13 3.81 0 5.16.87 9.092 2.6 11.793q2.595 4.053 7.86 4.053c2.03 0 3.73-.351 5.11-1.054a8.9 8.9 0 0 0 3.34-2.897c.85-1.23 1.46-2.675 1.82-4.337.37-1.661.55-3.465.55-5.41 0-3.999-.82-7.113-2.47-9.342s-3.97-3.343-6.97-3.343m10.41-26.789 1.67 2.229v1.986q-6.24 0-11.07 2.675c-3.21 1.783-5.88 4.404-8 7.862s-3.62 7.565-4.48 12.321l.4.162c2.27-1.621 4.51-2.81 6.71-3.567 2.2-.756 4.59-1.134 7.16-1.134q4.575 0 7.8 2.006c2.14 1.337 3.76 3.215 4.84 5.633q1.62 3.627 1.62 8.49c0 3.513-.67 6.613-2.03 9.301-1.35 2.689-3.43 4.803-6.26 6.343-2.82 1.54-6.3 2.31-10.43 2.31-5.92 0-10.38-1.837-13.4-5.512-3.01-3.674-4.52-9.091-4.52-16.251 0-4.809.76-9.308 2.27-13.496 1.52-4.188 3.66-7.842 6.45-10.962 2.78-3.121 6.01-5.58 9.68-7.376 3.68-1.797 7.54-2.804 11.59-3.02m-55.07 0h2.23c-.17 2.594-.25 6.188-.25 10.781v34.61q0 2.35.27 3.546.255 1.196.93 1.945c.44.5 1.09.892 1.92 1.176.84.283 1.89.5 3.16.648s2.95.25 5.03.304v2.959h-29.95v-2.959q4.5-.202 6.42-.547 1.935-.345 2.94-1.033c.68-.46 1.17-1.108 1.48-1.946s.47-2.202.47-4.093v-32.868q0-1.62-.57-2.371c-.38-.499-.93-.749-1.66-.749q-1.305 0-3.69 1.337c-1.59.892-3.57 2.121-5.92 3.688l-1.78-3.121Z"/><text x="1852.86" y="897.974" fill-opacity="0" font-family="Arial,Arial_MSFontService,sans-serif" font-size="56.617">16</text><path d="M2102.08 773.5v162.042h-9.16V773.5Zm18.34 157.458-22.92 45.834-22.92-45.834Z"/><path fill="none" stroke="#000" stroke-miterlimit="8" stroke-width="9.167" d="m2152.79 815.5-123.293 96.25"/><path fill-rule="evenodd" d="M2232.24 880.947c-1.32 0-2.6.148-3.83.445-1.22.298-2.38.73-3.46 1.297a17.5 17.5 0 0 0-3.16 2.148c-.33.297-.57.608-.73.932-.27.514-.45 1.149-.53 1.905q-.12 1.135-.12 3.81c0 5.16.86 9.091 2.59 11.793s4.35 4.053 7.87 4.053q3.03 0 5.1-1.054c1.38-.702 2.5-1.668 3.35-2.897.85-1.23 1.46-2.675 1.82-4.337s.55-3.465.55-5.41c0-3.999-.83-7.113-2.48-9.342-1.64-2.229-3.97-3.343-6.97-3.343m10.42-26.789 1.66 2.229v1.986c-4.16 0-7.85.892-11.06 2.675q-4.83 2.675-8.01 7.862c-2.12 3.458-3.61 7.565-4.48 12.32l.41.162c2.27-1.621 4.51-2.809 6.71-3.566s4.58-1.135 7.15-1.135q4.575 0 7.8 2.006c2.15 1.338 3.76 3.216 4.85 5.634q1.62 3.627 1.62 8.49c0 3.513-.68 6.613-2.03 9.301s-3.44 4.803-6.26 6.343c-2.83 1.54-6.3 2.31-10.44 2.31-5.91 0-10.38-1.837-13.39-5.512s-4.52-9.092-4.52-16.251c0-4.81.76-9.308 2.27-13.496s3.66-7.842 6.44-10.963c2.79-3.12 6.01-5.579 9.69-7.376a29.7 29.7 0 0 1 11.59-3.019m-55.08 0h2.23q-.24 3.89-.24 10.78v34.611c0 1.567.09 2.749.26 3.546q.27 1.195.93 1.945c.45.5 1.09.892 1.93 1.175s1.89.5 3.16.649 2.94.25 5.02.304v2.958h-29.95v-2.958c3-.135 5.14-.318 6.43-.547q1.92-.345 2.94-1.034c.67-.459 1.17-1.107 1.48-1.945s.46-2.202.46-4.093v-32.868q0-1.621-.57-2.371c-.37-.5-.93-.75-1.66-.75q-1.29 0-3.69 1.338-2.385 1.337-5.91 3.688l-1.79-3.121Z"/><text x="2168.61" y="903.698" fill-opacity="0" font-family="Arial,Arial_MSFontService,sans-serif" font-size="56.617">16</text><path fill-rule="evenodd" d="M1766.64 1004.71h35.1l-.45 1.94-36.88 49.65h12.97c1.38 0 2.49-.12 3.34-.35s1.6-.57 2.25-1.03 1.31-1.08 1.99-1.87c.67-.78 1.35-1.74 2.04-2.89s1.48-2.75 2.37-4.81h3.9l-3.13 14.68h-35.94l.4-1.99 36.8-49.61h-12.44c-1.51 0-2.72.14-3.61.41q-1.335.405-2.49 1.44c-.77.69-1.57 1.65-2.41 2.88-.84 1.22-1.81 2.97-2.92 5.24h-3.89Z"/><text x="1754.2" y="1053.11" fill-opacity="0" font-family="Arial,Arial_MSFontService,sans-serif" font-size="55.32">𝑍</text><path fill-rule="evenodd" d="M1818.29 1038.51h1.81c-.04 1.09-.07 2.07-.09 2.93s-.03 1.7-.04 2.52c-.01.81-.02 1.61-.02 2.41v22.64q0 .915.06 1.59c.04.45.11.82.2 1.13s.21.57.35.79c.15.22.33.41.53.57.23.23.55.42.95.55s.9.24 1.52.32q.915.135 2.22.21c.86.05 1.9.09 3.11.11v2.59h-23.62v-2.59c1.17-.04 2.16-.09 2.98-.14.81-.05 1.51-.12 2.08-.2a10 10 0 0 0 1.39-.3c.35-.11.65-.25.91-.4.27-.18.51-.38.71-.59.2-.2.36-.47.48-.79.12-.31.21-.7.28-1.16.07-.45.11-1.02.11-1.69v-21.36c0-.77-.15-1.32-.45-1.64s-.73-.48-1.28-.48c-.62 0-1.53.32-2.74.96-1.21.63-2.78 1.58-4.71 2.83-.26-.46-.49-.92-.71-1.37-.22-.46-.45-.93-.69-1.4 2.46-1.35 4.9-2.7 7.31-4.04 2.42-1.34 4.86-2.67 7.35-4"/><text x="1803.63" y="1072.07" fill-opacity="0" font-family="Arial,Arial_MSFontService,sans-serif" font-size="38.363">1</text><path fill-rule="evenodd" d="M2078.17 1004.71h35.1l-.45 1.94-36.88 49.65h12.97c1.38 0 2.5-.12 3.35-.35s1.6-.57 2.25-1.03c.64-.46 1.31-1.08 1.98-1.87.68-.78 1.36-1.74 2.05-2.89s1.48-2.75 2.37-4.81h3.89l-3.12 14.68h-35.95l.41-1.99 36.8-49.61h-12.45c-1.51 0-2.71.14-3.6.41-.9.27-1.73.75-2.5 1.44s-1.57 1.65-2.41 2.88c-.84 1.22-1.81 2.97-2.92 5.24h-3.89Z"/><text x="2065.73" y="1053.11" fill-opacity="0" font-family="Arial,Arial_MSFontService,sans-serif" font-size="55.32">𝑍</text><path fill-rule="evenodd" d="M2164.4 1038.3c2.06 0 3.83.23 5.29.7 1.46.46 2.64 1.09 3.56 1.89a6.9 6.9 0 0 1 1.98 2.86c.4 1.11.61 2.31.61 3.6 0 .78-.06 1.5-.17 2.16-.11.67-.29 1.32-.56 1.97-.27.64-.62 1.29-1.06 1.95-.44.65-.98 1.35-1.64 2.08-.49.64-1.14 1.37-1.93 2.21-.8.83-1.67 1.72-2.61 2.68-.94.95-1.93 1.94-2.96 2.98-1.04 1.03-2.04 2.05-3.01 3.06-.98 1.02-1.87 2-2.68 2.95-.82.96-1.48 1.83-2 2.62h11.02c.93 0 1.68-.03 2.24-.1.55-.07 1.01-.22 1.38-.46s.68-.6.94-1.09.55-1.16.89-2.01h2.77c-.1 1.41-.19 2.83-.28 4.26s-.18 2.85-.28 4.26h-25.23v-1.55a26 26 0 0 1 1.67-3.17 42 42 0 0 1 2.14-3.17c.79-1.08 1.7-2.18 2.71-3.33 1.01-1.14 2.14-2.32 3.37-3.55 1.86-1.87 3.38-3.46 4.55-4.79 1.18-1.32 2.1-2.49 2.77-3.52.68-1.04 1.14-1.99 1.39-2.86.25-.88.37-1.81.37-2.8 0-1.02-.14-1.95-.43-2.8-.29-.86-.7-1.58-1.24-2.18-.53-.59-1.21-1.06-2.04-1.4-.82-.34-1.77-.5-2.84-.5q-2.775 0-4.65 1.5c-1.25 1-2.22 2.46-2.92 4.36h-3.9v-5.8c2.54-1.06 4.88-1.82 7.02-2.3 2.13-.47 4.05-.71 5.76-.71m-26.48-1.43h2.68l-.42 7.21h-17.45v11.64c1.05-.36 2.2-.64 3.45-.86s2.51-.33 3.79-.33c1.82 0 3.48.25 4.95.76 1.48.51 2.75 1.23 3.82 2.17 1.06.95 1.88 2.09 2.47 3.43.58 1.34.88 2.84.88 4.51 0 1.91-.33 3.61-.99 5.09-.65 1.49-1.59 2.76-2.81 3.8s-2.71 1.84-4.47 2.39q-2.64.81-5.94.81c-1.75 0-3.53-.16-5.36-.5s-3.72-.84-5.69-1.49v-6.61h3.81c.6 2 1.49 3.44 2.68 4.3s2.76 1.3 4.71 1.3c2.6 0 4.57-.68 5.9-2.03s1.99-3.46 1.99-6.34c0-2.76-.7-4.81-2.11-6.15s-3.39-2.01-5.93-2.01c-.67 0-1.29.01-1.83.03-.55.02-1.09.06-1.62.14-.54.08-1.07.19-1.6.33-.52.14-1.12.3-1.77.48l-2.44-1.34v-18.74h16.5c.47-.02.86-.05 1.14-.09.29-.04.53-.13.7-.26.18-.14.34-.34.48-.59.14-.24.3-.6.48-1.05"/><text x="2116.83" y="1072.42" fill-opacity="0" font-family="Arial,Arial_MSFontService,sans-serif" font-size="40.627">52</text></g></svg>