<svg xmlns="http://www.w3.org/2000/svg" width="2758" height="1934" overflow="hidden"><defs><clipPath id="a"><path d="M252 141h2758v1934H252z"/></clipPath></defs><g clip-path="url(#a)" transform="translate(-252 -141)"><path fill="#d74514" d="M252 141h501v219H252z"/><path fill="#fff" fill-rule="evenodd" d="M534.92 229.586q-3.486 0-4.58.081V252.2h4.013q4.134 0 6.545-1.459t3.364-3.952q.952-2.491.952-6.18 0-5.512-2.594-8.268-2.594-2.755-7.7-2.755m-21.479-4.742h23.627q5.836 0 9.706 1.054 3.87 1.053 6.16 2.897a12.1 12.1 0 0 1 3.506 4.56q1.216 2.715 1.216 6.403 0 3.972-1.398 6.808-1.399 2.838-3.769 4.722t-6.343 3.546v.405q2.998 1.297 4.965 3.465 1.965 2.169 3.546 5.492l2.553 5.512q1.703 3.687 3.384 5.532 1.682 1.844 3.992 2.249v2.675h-15.603q-2.35-3.243-5.309-9.646l-3.161-6.93q-1.418-3.08-2.432-4.377-1.013-1.297-2.087-1.783-1.074-.487-3.303-.487h-2.351v13.05q0 3.04.284 4.256.284 1.215 1.094 1.945.811.73 2.999 1.297v2.675h-21.276v-2.675q2.188-.567 2.978-1.297t1.074-1.925.284-4.276v-34.934q0-3.08-.263-4.276-.264-1.196-1.074-1.925-.811-.73-2.999-1.337Zm-90 0h39.189v12.888h-5.552q-1.337-3.85-2.269-5.208t-2.229-2.148-4.418-.79h-7.822v20.628h5.188q1.905 0 2.938-.588 1.034-.587 1.702-1.965.67-1.378 1.115-3.891h4.579v17.67h-4.579q-.486-2.553-1.175-3.951-.69-1.4-1.703-1.966t-2.877-.567h-5.188v15.035q0 3.161.325 4.397.324 1.237 1.276 1.986.952.75 3.303 1.115v2.675h-21.803v-2.675q2.148-.527 2.938-1.277t1.094-1.945q.304-1.196.304-4.316v-34.894q0-3.08-.263-4.276-.264-1.196-1.074-1.925-.811-.73-2.999-1.337Zm-46 0h21.276v2.675q-2.148.567-2.938 1.296t-1.114 1.946q-.325 1.215-.325 4.215v40.365h7.863q2.553 0 4.154-.953 1.6-.952 2.756-3.201t2.289-7.396h5.553l-.892 16.373h-38.622v-2.675q2.188-.567 2.978-1.297t1.074-1.945.284-4.296v-34.894q0-3.08-.263-4.276-.264-1.196-1.074-1.925-.811-.73-2.999-1.337Zm113.831-.649q3.607 0 6.889.385 3.283.386 7.498 1.358v11.753h-5.552q-1.095-4.58-3.243-6.667t-6.2-2.087q-3.648 0-5.857 1.905t-2.208 5.187q0 2.35.912 4.073.911 1.723 3.059 3.364t6.242 3.749q4.985 2.593 7.842 5.086t4.215 5.431 1.357 6.829q0 4.984-2.31 8.652t-6.727 5.633q-4.418 1.966-10.213 1.966-4.134 0-8.612-.466-4.479-.466-8.41-1.358v-12.482h5.552q1.014 4.822 3.385 7.194 2.37 2.37 6.95 2.37 4.012 0 6.261-2.067 2.25-2.066 2.25-5.876 0-3.728-2.169-6.221t-7.517-5.167q-4.458-2.188-7.437-4.519t-4.701-5.41q-1.723-3.08-1.723-7.052 0-4.985 2.472-8.47t7.154-5.289q4.68-1.804 10.841-1.804"/><text x="377.441" y="273.735" fill-opacity="0" font-family="Arial,Arial_MSFontService,sans-serif" font-size="56.617">𝐋𝐅𝐒𝐑</text><path fill="#fff" fill-rule="evenodd" d="M589.106 255.874h3.812q-.178 2.859-.178 7.923v24.9q0 1.728.193 2.607.194.878.685 1.429t1.415.864 2.323.477 3.694.223v2.71h-25.705v-2.71q3.306-.149 4.721-.402t2.16-.76 1.087-1.429q.342-.924.342-3.009v-21.534q0-1.221-.461-1.758-.462-.536-1.266-.536-.745 0-2.1.685-1.356.685-4.453 2.8l-1.817-3.157Z"/><text x="573.558" y="291.866" fill-opacity="0" font-family="Arial,Arial_MSFontService,sans-serif" font-size="41.133">𝟏</text><path d="M753.5 246.917h205.955v9.167l-205.955-.001Zm201.372-18.333 45.838 22.917-45.838 22.916Z"/><path fill="#d74514" d="M252 386h501v219H252z"/><path fill="#fff" fill-rule="evenodd" d="M534.92 474.598q-3.486 0-4.58.081v22.533h4.013q4.134 0 6.545-1.459t3.364-3.951q.952-2.493.952-6.181 0-5.511-2.594-8.267-2.594-2.757-7.7-2.756m-21.479-4.742h23.627q5.836 0 9.706 1.054 3.87 1.053 6.16 2.898a12.1 12.1 0 0 1 3.506 4.559q1.216 2.716 1.216 6.403 0 3.972-1.398 6.809-1.399 2.837-3.769 4.721-2.371 1.886-6.343 3.546v.406q2.998 1.296 4.965 3.465 1.965 2.168 3.546 5.491l2.553 5.512q1.703 3.688 3.384 5.532 1.682 1.844 3.992 2.249v2.675h-15.603q-2.35-3.242-5.309-9.646l-3.161-6.93q-1.418-3.08-2.432-4.377-1.013-1.296-2.087-1.783t-3.303-.486h-2.351v13.05q0 3.039.284 4.255t1.094 1.945 2.999 1.297v2.675h-21.276v-2.675q2.188-.567 2.978-1.297t1.074-1.925q.284-1.196.284-4.275v-34.935q0-3.08-.263-4.276-.264-1.195-1.074-1.925-.811-.73-2.999-1.337Zm-90 0h39.189v12.888h-5.552q-1.337-3.85-2.269-5.208-.933-1.357-2.229-2.148-1.297-.79-4.418-.79h-7.822v20.628h5.188q1.905 0 2.938-.587 1.034-.588 1.702-1.966.67-1.378 1.115-3.891h4.579v17.67h-4.579q-.486-2.553-1.175-3.951t-1.703-1.966-2.877-.567h-5.188v15.036q0 3.16.325 4.397.324 1.236 1.276 1.986.952.749 3.303 1.114v2.675h-21.803v-2.675q2.148-.527 2.938-1.276.79-.75 1.094-1.946t.304-4.316v-34.894q0-3.08-.263-4.276-.264-1.195-1.074-1.925-.811-.73-2.999-1.337Zm-46 0h21.276v2.675q-2.148.567-2.938 1.297t-1.114 1.945-.325 4.215v40.365h7.863q2.553 0 4.154-.952t2.756-3.202 2.289-7.396h5.553l-.892 16.373h-38.622v-2.675q2.188-.567 2.978-1.297.79-.729 1.074-1.945t.284-4.296v-34.894q0-3.08-.263-4.276-.264-1.195-1.074-1.925-.811-.73-2.999-1.337Zm113.831-.648q3.607 0 6.889.385 3.283.384 7.498 1.357v11.753h-5.552q-1.095-4.58-3.243-6.666-2.148-2.088-6.2-2.088-3.648 0-5.857 1.905t-2.208 5.188q0 2.35.912 4.073.911 1.722 3.059 3.363t6.242 3.749q4.985 2.594 7.842 5.086t4.215 5.431 1.357 6.829q0 4.984-2.31 8.653-2.31 3.667-6.727 5.633-4.418 1.965-10.213 1.965-4.134 0-8.612-.466-4.479-.466-8.41-1.357v-12.483h5.552q1.014 4.823 3.385 7.194t6.95 2.371q4.012 0 6.261-2.067t2.25-5.877q0-3.728-2.169-6.221t-7.517-5.167q-4.458-2.188-7.437-4.519t-4.701-5.41-1.723-7.052q0-4.984 2.472-8.47t7.154-5.289q4.68-1.803 10.841-1.803"/><text x="377.441" y="518.747" fill-opacity="0" font-family="Arial,Arial_MSFontService,sans-serif" font-size="56.617">𝐋𝐅𝐒𝐑</text><path fill="#fff" fill-rule="evenodd" d="M586.783 500.886q4.378 0 7.148 1.177t4.006 3.187 1.236 4.691q0 2.353-.878 4.379-.88 2.025-3.038 4.616-2.16 2.592-7.283 7.417-1.578 1.49-3.768 3.916-2.189 2.428-3.47 4.155v.298h10.574q1.937 0 2.889-.283.954-.282 1.504-.983.551-.7.909-2.099h3.425l-.685 10.663h-27.283v-1.966q2.293-5.272 9.382-13.582 3.217-3.783 4.9-6.225t2.517-4.617.834-4.497q0-3.277-1.46-5.138-1.46-1.862-3.991-1.862-4.855 0-6.225 7h-5.362v-7.03q4.855-1.965 7.834-2.591t6.285-.626"/><text x="572.069" y="536.878" fill-opacity="0" font-family="Arial,Arial_MSFontService,sans-serif" font-size="41.133">𝟐</text><path fill="#d74514" d="M1001 141h507v464h-507z"/><text fill="#fff" font-family="Microsoft YaHei,Microsoft YaHei_MSFontService,sans-serif" font-size="83" font-weight="700" transform="translate(1234.66 304)">J<tspan x="-9.167" y="198">K</tspan></text><path d="M753.5 501.083h205.955v-9.167H753.5Zm201.372 18.333 45.833-22.916-45.833-22.917ZM1508.5 368.917h651.12v9.167l-651.12-.001Zm646.54-18.333 45.83 22.917-45.83 22.916Z"/><path fill-rule="evenodd" d="M1615.82 280.476c-2.78 0-5.28 1.121-7.49 3.364q-3.33 3.363-5.19 9.017-1.86 5.653-1.86 11.287c0 2.81.38 4.911 1.15 6.302q1.155 2.087 3.87 2.087 2.67 0 5.25-2.31 2.565-2.31 5.31-6.586 2.73-4.276 3.87-9.868l.36-1.743c.25-1.107.41-2.067.49-2.877q.12-1.216.12-2.634c0-2.081-.44-3.607-1.34-4.58-.89-.973-2.4-1.459-4.54-1.459m-.81-3.202c1.76 0 3.4.196 4.93.588 1.52.392 3.1 1.087 4.72 2.087l3.73-2.675 2.59.649-5.96 25.694c-.59 2.567-.89 4.566-.89 5.998 0 1.081.18 1.864.53 2.351s.9.729 1.66.729c.81 0 1.68-.331 2.6-.993.91-.662 2.21-1.925 3.89-3.789l2.31 2.27c-2.44 2.593-4.51 4.437-6.23 5.532-1.71 1.094-3.57 1.641-5.57 1.641-1.67 0-3.01-.554-4.01-1.662q-1.5-1.662-1.5-4.417 0-2.23.93-4.742l-.52-.162q-3.9 5.674-7.38 8.308t-7.38 2.634c-2.97 0-5.27-1.121-6.91-3.363-1.63-2.243-2.45-5.391-2.45-9.443 0-4.647.91-9.112 2.74-13.395 1.82-4.282 4.33-7.659 7.52-10.131 3.18-2.473 6.74-3.709 10.65-3.709"/><text x="1594.1" y="312.346" fill-opacity="0" font-family="Arial,Arial_MSFontService,sans-serif" font-size="40.081">𝑎</text><path fill-rule="evenodd" d="M1653.34 297.869q-2.085 0-3.48 1.087-1.41 1.087-2.22 3.187c-.55 1.4-.93 3.107-1.16 5.123s-.35 4.304-.35 6.865c0 2.959.15 5.515.44 7.67.28 2.154.73 3.927 1.34 5.317q.9 2.085 2.28 3.067 1.365.983 3.27.983c1.19 0 2.24-.307 3.13-.923q1.335-.924 2.22-2.874c.58-1.301 1.03-2.949 1.32-4.945q.45-2.993.45-7.074c0-3.058-.16-5.689-.49-7.893s-.79-4.016-1.39-5.435c-.59-1.42-1.34-2.468-2.24-3.143q-1.365-1.012-3.12-1.012m.12-2.89c2.36 0 4.39.442 6.06 1.326q2.52 1.325 4.11 3.783 1.605 2.457 2.34 6.001.75 3.545.75 8.012c0 6.613-1.18 11.612-3.52 14.997-2.34 3.386-5.74 5.079-10.18 5.079-4.41 0-7.69-1.599-9.83-4.796-2.15-3.197-3.22-8.042-3.22-14.535 0-3.395.33-6.334 1-8.816.66-2.482 1.6-4.543 2.8-6.181s2.62-2.859 4.27-3.663 3.46-1.207 5.42-1.207"/><text x="1639.97" y="329.277" fill-opacity="0" font-family="Arial,Arial_MSFontService,sans-serif" font-size="39.197">0</text><path fill-rule="evenodd" d="M1700.02 280.476q-4.17 0-7.5 3.364c-2.21 2.242-3.94 5.248-5.18 9.017-1.25 3.769-1.87 7.531-1.87 11.287 0 2.81.39 4.911 1.16 6.302q1.155 2.087 3.87 2.087c1.78 0 3.53-.77 5.24-2.31q2.58-2.31 5.31-6.586 2.745-4.276 3.87-9.868l.37-1.743c.24-1.107.4-2.067.49-2.877q.12-1.216.12-2.634c0-2.081-.45-3.607-1.34-4.58s-2.4-1.459-4.54-1.459m-.81-3.202q2.64 0 4.92.588c1.53.392 3.1 1.087 4.73 2.087l3.72-2.675 2.6.649-5.96 25.694c-.59 2.567-.89 4.566-.89 5.998 0 1.081.17 1.864.53 2.351.35.486.9.729 1.66.729.81 0 1.67-.331 2.59-.993s2.22-1.925 3.89-3.789l2.31 2.27c-2.43 2.593-4.5 4.437-6.22 5.532-1.71 1.094-3.57 1.641-5.57 1.641-1.68 0-3.01-.554-4.01-1.662q-1.5-1.662-1.5-4.417 0-2.23.93-4.742l-.53-.162c-2.59 3.783-5.05 6.552-7.37 8.308q-3.495 2.634-7.38 2.634c-2.97 0-5.28-1.121-6.91-3.363s-2.45-5.391-2.45-9.443q0-6.97 2.73-13.395c1.83-4.282 4.33-7.659 7.52-10.131s6.74-3.709 10.66-3.709"/><text x="1678.3" y="312.346" fill-opacity="0" font-family="Arial,Arial_MSFontService,sans-serif" font-size="40.081">𝑎</text><path fill-rule="evenodd" d="M1738.08 295.188h1.82q-.06 1.638-.09 2.934c-.02.864-.04 1.702-.05 2.517-.01.814-.01 1.618-.01 2.412v22.637q0 .923.06 1.593c.04.447.1.824.19 1.132q.135.462.36.79c.15.218.32.407.52.565.24.239.55.422.95.551s.91.239 1.52.328q.93.134 2.22.209c.86.049 1.9.084 3.11.104v2.591h-23.62v-2.591c1.17-.04 2.17-.085 2.98-.134.82-.05 1.51-.119 2.09-.209a10 10 0 0 0 1.38-.298c.35-.109.65-.243.91-.402.28-.178.52-.372.71-.58q.3-.313.48-.79c.12-.317.21-.705.28-1.161s.11-1.023.11-1.698v-21.356q0-1.162-.45-1.638c-.3-.318-.72-.477-1.28-.477-.61 0-1.53.318-2.74.953q-1.815.954-4.71 2.83c-.25-.457-.49-.914-.71-1.37q-.33-.686-.69-1.4c2.47-1.35 4.9-2.696 7.32-4.036 2.41-1.34 4.86-2.676 7.34-4.006"/><text x="1723.42" y="328.756" fill-opacity="0" font-family="Arial,Arial_MSFontService,sans-serif" font-size="38.363">1</text><path fill-rule="evenodd" d="M1782.31 280.476c-2.78 0-5.28 1.121-7.49 3.364q-3.33 3.363-5.19 9.017-1.86 5.653-1.86 11.287c0 2.81.38 4.911 1.15 6.302q1.155 2.087 3.87 2.087 2.67 0 5.25-2.31 2.565-2.31 5.31-6.586 2.73-4.276 3.87-9.868l.36-1.743c.25-1.107.41-2.067.49-2.877q.12-1.216.12-2.634c0-2.081-.45-3.607-1.34-4.58s-2.4-1.459-4.54-1.459m-.81-3.202c1.76 0 3.4.196 4.93.588 1.52.392 3.1 1.087 4.72 2.087l3.73-2.675 2.59.649-5.96 25.694c-.59 2.567-.89 4.566-.89 5.998 0 1.081.18 1.864.53 2.351s.9.729 1.66.729c.81 0 1.68-.331 2.59-.993q1.38-.993 3.9-3.789l2.31 2.27c-2.44 2.593-4.51 4.437-6.23 5.532-1.71 1.094-3.57 1.641-5.57 1.641-1.67 0-3.01-.554-4.01-1.662q-1.5-1.662-1.5-4.417 0-2.23.93-4.742l-.52-.162q-3.9 5.674-7.38 8.308t-7.38 2.634c-2.97 0-5.27-1.121-6.91-3.363-1.63-2.243-2.45-5.391-2.45-9.443 0-4.647.91-9.112 2.74-13.395 1.82-4.282 4.33-7.659 7.52-10.131 3.18-2.473 6.74-3.709 10.65-3.709"/><text x="1760.59" y="312.346" fill-opacity="0" font-family="Arial,Arial_MSFontService,sans-serif" font-size="40.081">𝑎</text><path fill-rule="evenodd" d="M1819.95 294.979c2.07 0 3.83.234 5.29.7 1.46.467 2.64 1.097 3.56 1.892a6.9 6.9 0 0 1 1.98 2.859c.41 1.112.61 2.313.61 3.604 0 .775-.06 1.494-.16 2.16q-.165.998-.57 1.965c-.27.646-.62 1.296-1.06 1.951-.44.656-.98 1.351-1.64 2.085-.49.636-1.14 1.37-1.93 2.204q-1.2 1.251-2.61 2.681c-.94.953-1.93 1.946-2.96 2.979a214 214 0 0 0-3.01 3.067 68 68 0 0 0-2.68 2.949 25 25 0 0 0-2 2.621h11.02c.94 0 1.68-.035 2.24-.104.55-.07 1.02-.223 1.38-.462.37-.238.68-.6.94-1.087.26-.486.56-1.157.89-2.01h2.77c-.09 1.409-.19 2.829-.28 4.259s-.18 2.849-.28 4.259h-25.23v-1.549a28 28 0 0 1 1.67-3.172c.63-1.042 1.35-2.1 2.14-3.172.8-1.072 1.7-2.179 2.71-3.321a88 88 0 0 1 3.37-3.559c1.87-1.867 3.38-3.46 4.56-4.781 1.17-1.32 2.09-2.497 2.77-3.529q1.005-1.55 1.38-2.86c.25-.873.37-1.807.37-2.799 0-1.013-.14-1.946-.43-2.8q-.435-1.281-1.23-2.175-.81-.893-2.04-1.4-1.245-.506-2.85-.506c-1.85 0-3.39.502-4.65 1.504q-1.875 1.505-2.91 4.364h-3.91v-5.808c2.55-1.053 4.88-1.817 7.02-2.294q3.195-.714 5.76-.715"/><text x="1806.22" y="328.73" fill-opacity="0" font-family="Arial,Arial_MSFontService,sans-serif" font-size="38.572">2</text><path fill-rule="evenodd" d="M1866.51 280.476q-4.17 0-7.5 3.364c-2.21 2.242-3.94 5.248-5.18 9.017-1.25 3.769-1.87 7.531-1.87 11.287 0 2.81.39 4.911 1.16 6.302q1.155 2.087 3.87 2.087c1.78 0 3.53-.77 5.24-2.31q2.58-2.31 5.31-6.586 2.745-4.276 3.87-9.868l.37-1.743c.24-1.107.4-2.067.49-2.877q.12-1.216.12-2.634c0-2.081-.45-3.607-1.34-4.58s-2.41-1.459-4.54-1.459m-.81-3.202q2.64 0 4.92.588c1.53.392 3.1 1.087 4.73 2.087l3.72-2.675 2.6.649-5.96 25.694c-.59 2.567-.89 4.566-.89 5.998 0 1.081.17 1.864.53 2.351.35.486.9.729 1.66.729.81 0 1.67-.331 2.59-.993s2.22-1.925 3.89-3.789l2.31 2.27c-2.43 2.593-4.5 4.437-6.22 5.532s-3.57 1.641-5.57 1.641c-1.68 0-3.01-.554-4.01-1.662q-1.5-1.662-1.5-4.417 0-2.23.93-4.742l-.53-.162c-2.59 3.783-5.05 6.552-7.37 8.308q-3.495 2.634-7.38 2.634c-2.97 0-5.28-1.121-6.91-3.363-1.64-2.243-2.45-5.391-2.45-9.443q0-6.97 2.73-13.395c1.83-4.282 4.33-7.659 7.52-10.131s6.74-3.709 10.66-3.709"/><text x="1844.79" y="312.346" fill-opacity="0" font-family="Arial,Arial_MSFontService,sans-serif" font-size="40.081">𝑎</text><path fill-rule="evenodd" d="M1904.09 294.979c1.59 0 3.07.169 4.45.507s2.58.849 3.59 1.534a7.46 7.46 0 0 1 2.37 2.561c.56 1.023.85 2.209.85 3.56q0 1.905-.54 3.365a7.9 7.9 0 0 1-1.65 2.651c-.75.794-1.66 1.514-2.74 2.16a31 31 0 0 1-3.74 1.861v.358q1.995.357 3.72 1.146 1.725.79 3.03 1.996a9.2 9.2 0 0 1 2.04 2.785c.49 1.052.74 2.214.74 3.485 0 1.588-.3 3.063-.89 4.423a9.6 9.6 0 0 1-2.68 3.529c-1.2.993-2.66 1.768-4.41 2.324s-3.79.834-6.14.834c-1.84 0-3.72-.184-5.63-.551-1.9-.368-3.71-.849-5.42-1.445v-6.434h3.84q.48 1.49 1.14 2.547.645 1.058 1.53 1.727c.59.447 1.26.77 2.03.969.76.198 1.63.297 2.6.297q3.84 0 5.82-1.831c1.32-1.222 1.99-3.073 1.99-5.555q0-3.962-2.61-6.002c-1.74-1.36-4.31-2.04-7.73-2.04h-2.62v-2.86c2.08-.099 3.89-.392 5.4-.878 1.52-.487 2.79-1.117 3.8-1.892s1.77-1.678 2.27-2.71c.49-1.033.74-2.135.74-3.306 0-1.907-.57-3.411-1.7-4.513s-2.77-1.653-4.91-1.653c-1.81 0-3.32.497-4.54 1.489-1.23.993-2.16 2.473-2.82 4.438h-3.78v-5.867q3.51-1.49 6.63-2.249 3.105-.76 5.97-.76"/><text x="1891.04" y="329.173" fill-opacity="0" font-family="Arial,Arial_MSFontService,sans-serif" font-size="39.078">3</text><path fill-rule="evenodd" d="M1950.71 280.476q-4.185 0-7.5 3.364-3.33 3.363-5.19 9.017-1.86 5.653-1.86 11.287c0 2.81.38 4.911 1.15 6.302q1.155 2.087 3.87 2.087c1.79 0 3.53-.77 5.25-2.31q2.58-2.31 5.31-6.586t3.87-9.868l.36-1.743c.25-1.107.41-2.067.49-2.877q.12-1.216.12-2.634c0-2.081-.44-3.607-1.33-4.58-.9-.973-2.41-1.459-4.54-1.459m-.81-3.202q2.625 0 4.92.588c1.53.392 3.1 1.087 4.72 2.087l3.73-2.675 2.59.649-5.95 25.694q-.9 3.85-.9 5.998c0 1.081.18 1.864.53 2.351s.91.729 1.66.729c.81 0 1.68-.331 2.6-.993.91-.662 2.21-1.925 3.89-3.789l2.31 2.27c-2.43 2.593-4.51 4.437-6.22 5.532q-2.58 1.641-5.58 1.641c-1.67 0-3.01-.554-4.01-1.662q-1.5-1.662-1.5-4.417 0-2.23.93-4.742l-.52-.162q-3.9 5.674-7.38 8.308c-2.32 1.756-4.78 2.634-7.37 2.634-2.98 0-5.28-1.121-6.91-3.363q-2.46-3.365-2.46-9.443c0-4.647.92-9.112 2.74-13.395s4.33-7.659 7.52-10.131c3.18-2.473 6.74-3.709 10.66-3.709"/><text x="1928.98" y="312.346" fill-opacity="0" font-family="Arial,Arial_MSFontService,sans-serif" font-size="40.081">𝑎</text><path fill-rule="evenodd" d="M1989.74 302.366q-2.85 4.14-5.7 8.221-2.85 4.08-5.73 8.191v.357h11.43v-5.987q0-1.013.03-2.502c.02-.992.05-2 .08-3.023.03-1.022.06-1.995.1-2.919q.06-1.384.12-2.338Zm.87-6.97h4.73v23.739h.54q1.215 0 1.98-.119c.51-.079.91-.243 1.22-.491.31-.249.57-.596.77-1.043.21-.447.44-1.028.68-1.742h2.53c-.06 1.092-.13 2.174-.2 3.246s-.13 2.165-.19 3.277h-7.33v3.901c0 1.152.03 2.046.08 2.681s.2 1.132.44 1.489q.375.537 1.11.805.72.267 2.04.625v1.787h-12.87v-1.787c.59-.159 1.1-.303 1.52-.432.41-.129.76-.278 1.04-.447s.48-.367.61-.595q.195-.344.3-.864.105-.521.12-1.311c.01-.526.01-1.176.01-1.951v-3.901h-16.77v-2.353q4.44-6.166 8.82-12.257t8.82-12.257"/><text x="1972.97" y="328.782" fill-opacity="0" font-family="Arial,Arial_MSFontService,sans-serif" font-size="38.155">4</text><path fill-rule="evenodd" d="M2082.78 287.771c1.4 0 2.58.493 3.52 1.479.95.986 1.42 2.236 1.42 3.749s-.47 2.763-1.42 3.749c-.94.986-2.12 1.479-3.52 1.479-1.41 0-2.58-.493-3.53-1.479s-1.42-2.236-1.42-3.749.47-2.763 1.42-3.749 2.12-1.479 3.53-1.479m-24.56 0c1.4 0 2.58.493 3.52 1.479.95.986 1.42 2.236 1.42 3.749s-.47 2.763-1.42 3.749c-.94.986-2.12 1.479-3.52 1.479-1.41 0-2.58-.493-3.53-1.479s-1.42-2.236-1.42-3.749.47-2.763 1.42-3.749 2.12-1.479 3.53-1.479m-24.56 0c1.4 0 2.58.493 3.52 1.479.95.986 1.42 2.236 1.42 3.749s-.47 2.763-1.42 3.749c-.94.986-2.12 1.479-3.52 1.479-1.41 0-2.58-.493-3.53-1.479-.94-.986-1.42-2.236-1.42-3.749s.48-2.763 1.42-3.749c.95-.986 2.12-1.479 3.53-1.479"/><text x="2028.71" y="296.92" fill-opacity="0" font-family="Arial,Arial_MSFontService,sans-serif" font-size="10.456">⋯</text><path fill="#d74514" d="M252 631h501v219H252z"/><path fill="#fff" fill-rule="evenodd" d="M534.92 719.61q-3.486 0-4.58.081v22.533h4.013q4.134 0 6.545-1.458 2.411-1.46 3.364-3.952t.952-6.18q0-5.512-2.594-8.268t-7.7-2.756m-21.479-4.741h23.627q5.836 0 9.706 1.053 3.87 1.054 6.16 2.898a12.1 12.1 0 0 1 3.506 4.559q1.216 2.716 1.216 6.404 0 3.971-1.398 6.808-1.399 2.837-3.769 4.722-2.371 1.884-6.343 3.546v.405q2.998 1.298 4.965 3.465 1.965 2.168 3.546 5.492l2.553 5.511q1.703 3.688 3.384 5.532 1.682 1.844 3.992 2.25v2.674h-15.603q-2.35-3.241-5.309-9.645l-3.161-6.93q-1.418-3.081-2.432-4.377-1.013-1.297-2.087-1.783-1.074-.487-3.303-.487h-2.351v13.05q0 3.04.284 4.255.284 1.216 1.094 1.946.811.729 2.999 1.297v2.674h-21.276v-2.674q2.188-.568 2.978-1.297.79-.73 1.074-1.925t.284-4.276v-34.935q0-3.08-.263-4.275-.264-1.196-1.074-1.925-.811-.73-2.999-1.338Zm-90 0h39.189v12.887h-5.552q-1.337-3.849-2.269-5.208t-2.229-2.147q-1.297-.79-4.418-.791h-7.822v20.629h5.188q1.905 0 2.938-.588t1.702-1.966q.67-1.377 1.115-3.89h4.579v17.67h-4.579q-.486-2.553-1.175-3.952-.69-1.398-1.703-1.965t-2.877-.568h-5.188v15.036q0 3.16.325 4.397.324 1.236 1.276 1.986t3.303 1.115v2.674h-21.803v-2.674q2.148-.528 2.938-1.277.79-.75 1.094-1.945t.304-4.317v-34.894q0-3.08-.263-4.275-.264-1.196-1.074-1.925-.811-.73-2.999-1.338Zm-46 0h21.276v2.674q-2.148.568-2.938 1.297-.79.73-1.114 1.946T394.34 725v40.366h7.863q2.553 0 4.154-.953t2.756-3.201q1.155-2.25 2.289-7.397h5.553l-.892 16.373h-38.622v-2.674q2.188-.568 2.978-1.297.79-.73 1.074-1.946t.284-4.296v-34.894q0-3.08-.263-4.275-.264-1.196-1.074-1.925-.811-.73-2.999-1.338Zm113.831-.649q3.607 0 6.889.385t7.498 1.358v11.753h-5.552q-1.095-4.58-3.243-6.667t-6.2-2.087q-3.648 0-5.857 1.905-2.208 1.904-2.208 5.187 0 2.35.912 4.073.911 1.722 3.059 3.364t6.242 3.749q4.985 2.593 7.842 5.086 2.856 2.492 4.215 5.43 1.357 2.939 1.357 6.829 0 4.986-2.31 8.653t-6.727 5.633q-4.418 1.966-10.213 1.966-4.134 0-8.612-.466-4.479-.467-8.41-1.358v-12.482h5.552q1.014 4.823 3.385 7.193 2.37 2.371 6.95 2.371 4.012 0 6.261-2.067t2.25-5.876q0-3.73-2.169-6.221-2.168-2.493-7.517-5.167-4.458-2.189-7.437-4.519t-4.701-5.411-1.723-7.051q0-4.985 2.472-8.471t7.154-5.288q4.68-1.804 10.841-1.804"/><text x="377.441" y="763.76" fill-opacity="0" font-family="Arial,Arial_MSFontService,sans-serif" font-size="56.617">𝐋𝐅𝐒𝐑</text><path fill="#fff" fill-rule="evenodd" d="M586.872 745.899q5.63 0 8.995 2.293 3.366 2.294 3.366 6.404 0 3.455-1.981 5.957-1.98 2.502-6.627 4.647v.268q4.348.803 6.865 3.485 2.517 2.68 2.517 6.642 0 3.455-1.683 6.15-1.682 2.696-5.108 4.23-3.424 1.534-8.31 1.534-3.366 0-6.612-.611-3.247-.61-5.659-1.713v-7.476h5.361q.864 3.396 2.442 4.93 1.58 1.534 4.141 1.534 6.314 0 6.314-7.804 0-4.2-2.219-6.255t-6.746-2.055h-2.353v-3.396q5.183-.208 7.863-2.427t2.681-6.419q0-3.306-1.341-4.989t-3.902-1.683q-2.502 0-4.11 1.787t-2.204 5.243h-5.361v-7.059q7.534-3.217 13.671-3.217"/><text x="572.635" y="782.307" fill-opacity="0" font-family="Arial,Arial_MSFontService,sans-serif" font-size="41.61">𝟑</text><path d="M753.5 736.917h205.955v9.167l-205.955-.001Zm201.372-18.333 45.838 22.916-45.838 22.917Z"/><path fill="#d74514" d="M252 876h501v219H252z"/><path fill="#fff" fill-rule="evenodd" d="M534.92 964.623q-3.486 0-4.58.081v22.533h4.013q4.134 0 6.545-1.459t3.364-3.952q.952-2.491.952-6.18 0-5.512-2.594-8.268-2.594-2.755-7.7-2.755m-21.479-4.742h23.627q5.836 0 9.706 1.054 3.87 1.053 6.16 2.897a12.1 12.1 0 0 1 3.506 4.56q1.216 2.715 1.216 6.403 0 3.971-1.398 6.809-1.399 2.837-3.769 4.721t-6.343 3.546v.405q2.998 1.298 4.965 3.465 1.965 2.168 3.546 5.492l2.553 5.507c1.135 2.46 2.263 4.31 3.384 5.54q1.682 1.845 3.992 2.25v2.67h-15.603c-1.567-2.16-3.337-5.38-5.309-9.64l-3.161-6.935q-1.418-3.08-2.432-4.377-1.013-1.297-2.087-1.783t-3.303-.486h-2.351v13.051c0 2.02.095 3.44.284 4.25q.284 1.215 1.094 1.95c.541.49 1.54.92 2.999 1.3v2.67h-21.276v-2.67c1.459-.38 2.451-.81 2.978-1.3s.885-1.13 1.074-1.93c.189-.79.284-2.22.284-4.27v-34.936q0-3.08-.263-4.276-.264-1.196-1.074-1.925-.811-.73-2.999-1.337Zm-90 0h39.189v12.888h-5.552q-1.337-3.85-2.269-5.208-.933-1.357-2.229-2.148-1.297-.79-4.418-.79h-7.822v20.628h5.188q1.905 0 2.938-.588 1.034-.587 1.702-1.965.67-1.378 1.115-3.891h4.579v17.67h-4.579q-.486-2.553-1.175-3.951t-1.703-1.966-2.877-.567h-5.188v15.037c0 2.11.109 3.57.325 4.4q.324 1.23 1.276 1.98c.635.5 1.736.87 3.303 1.12v2.67h-21.803v-2.67c1.432-.36 2.411-.78 2.938-1.28q.79-.75 1.094-1.95c.203-.79.304-2.23.304-4.31v-34.896q0-3.08-.263-4.276-.264-1.196-1.074-1.925-.811-.73-2.999-1.337Zm-46 0h21.276v2.675q-2.148.567-2.938 1.297-.79.729-1.114 1.945-.325 1.215-.325 4.215v40.367h7.863c1.702 0 3.087-.32 4.154-.95q1.6-.96 2.756-3.21c.77-1.5 1.533-3.96 2.289-7.392h5.553l-.892 16.372h-38.622v-2.67c1.459-.38 2.451-.81 2.978-1.3q.79-.735 1.074-1.95t.284-4.29v-34.896q0-3.08-.263-4.276-.264-1.196-1.074-1.925-.811-.73-2.999-1.337Zm113.831-.649q3.607 0 6.889.385 3.283.386 7.498 1.358v11.753h-5.552q-1.095-4.58-3.243-6.667t-6.2-2.087q-3.648 0-5.857 1.905t-2.208 5.187q0 2.35.912 4.073.911 1.723 3.059 3.364t6.242 3.749q4.985 2.594 7.842 5.086t4.215 5.431q1.357 2.938 1.357 6.829c0 3.322-.77 6.212-2.31 8.652-1.54 2.45-3.782 4.32-6.727 5.63s-6.35 1.97-10.213 1.97c-2.756 0-5.627-.16-8.612-.47q-4.479-.465-8.41-1.35v-12.49h5.552q1.014 4.83 3.385 7.2t6.95 2.37q4.012 0 6.261-2.07t2.25-5.88q0-3.722-2.169-6.217-2.168-2.493-7.517-5.167-4.458-2.188-7.437-4.519t-4.701-5.41q-1.723-3.08-1.723-7.052 0-4.985 2.472-8.47t7.154-5.289q4.68-1.803 10.841-1.804"/><text x="377.441" y="1008.77" fill-opacity="0" font-family="Arial,Arial_MSFontService,sans-serif" font-size="56.617">𝐋𝐅𝐒𝐑</text><path fill="#fff" fill-rule="evenodd" d="m586.366 1000.65-10.187 15.34v.51h10.187v-6.82q0-4.29.298-9.03Zm2.114-9.471h6.702v25.321h.923c.973 0 1.658-.07 2.056-.2.397-.13.739-.37 1.027-.73.288-.35.561-.99.819-1.9h3.128l-.358 6.58h-7.595v4.44c0 1.49.089 2.53.268 3.14s.452 1.06.819 1.36c.368.29 1.077.59 2.13.89v1.96h-15.22v-1.96c1.052-.28 1.772-.59 2.159-.94q.58-.525.804-1.38c.149-.58.224-1.6.224-3.07v-4.44h-15.965v-3.22Z"/><text x="570.401" y="1026.94" fill-opacity="0" font-family="Arial,Arial_MSFontService,sans-serif" font-size="40.865">𝟒</text><path fill="#d74514" d="M1001 631h507v464h-507z"/><text fill="#fff" font-family="Microsoft YaHei,Microsoft YaHei_MSFontService,sans-serif" font-size="83" font-weight="700" transform="translate(1234.66 794)">J<tspan x="-9.167" y="198">K</tspan></text><path d="M753.5 991.083h205.955v-9.167H753.5Zm201.372 18.333 45.833-22.916-45.833-22.917ZM1508.5 858.917h651.12v9.167l-651.12-.001Zm646.54-18.333 45.83 22.916-45.83 22.917Z"/><path fill-rule="evenodd" d="M1627.49 772.081c-1.3 0-2.57.412-3.83 1.236s-2.65 2.189-4.19 4.094c-1.54 1.904-2.8 3.856-3.77 5.856-.98 1.999-1.8 4.552-2.48 7.659l-.36 1.703a26 26 0 0 0-.61 5.511c0 2.135.47 3.675 1.4 4.62s2.48 1.419 4.64 1.419a9.1 9.1 0 0 0 3.16-.547q1.5-.547 3.06-1.804c1.04-.837 2.03-1.938 2.96-3.303s1.79-3.046 2.57-5.045c.79-2 1.39-4.141 1.83-6.424.43-2.283.65-4.465.65-6.545q0-4.215-1.2-6.322c-.8-1.405-2.07-2.108-3.83-2.108m-7.09-23.303h2.35l-7.13 28.369.52.162q3.93-5.268 7.38-7.619c2.29-1.567 4.59-2.35 6.89-2.35q4.41 0 6.87 3.363c1.63 2.243 2.45 5.404 2.45 9.484q0 6.686-2.7 13.151-2.685 6.464-7.47 10.253c-3.19 2.526-6.76 3.79-10.7 3.79-3.6 0-6.78-.879-9.57-2.635l-3.73 2.635-2.59-.649 10.5-46.323q.93-4.133.93-5.998c0-1.134-.34-1.932-1.03-2.391s-1.93-.716-3.71-.77l.48-2.107Z"/><text x="1602.97" y="800.055" fill-opacity="0" font-family="Arial,Arial_MSFontService,sans-serif" font-size="58.602">𝑏</text><path fill-rule="evenodd" d="M1658.98 787.893q-2.085 0-3.48 1.087-1.41 1.088-2.22 3.187-.825 2.1-1.17 5.123c-.22 2.016-.34 4.304-.34 6.866 0 2.959.15 5.515.43 7.67.29 2.154.74 3.926 1.34 5.316q.915 2.085 2.28 3.068c.92.655 2.01.983 3.28.983 1.19 0 2.23-.308 3.13-.923q1.335-.924 2.22-2.875.87-1.95 1.32-4.944.45-2.992.45-7.074c0-3.058-.17-5.689-.49-7.893-.33-2.204-.79-4.016-1.39-5.436q-.885-2.129-2.25-3.142c-.9-.675-1.94-1.013-3.11-1.013m.12-2.889q3.54 0 6.06 1.326 2.52 1.325 4.11 3.782t2.34 6.002c.5 2.363.74 5.034.74 8.012q0 9.918-3.51 14.997c-2.34 3.386-5.74 5.078-10.19 5.078-4.41 0-7.68-1.598-9.83-4.795q-3.21-4.796-3.21-14.535 0-5.094.99-8.817c.67-2.482 1.6-4.542 2.8-6.18 1.21-1.638 2.63-2.859 4.28-3.664 1.65-.804 3.45-1.206 5.42-1.206"/><text x="1645.61" y="819.302" fill-opacity="0" font-family="Arial,Arial_MSFontService,sans-serif" font-size="39.197">0</text><path fill-rule="evenodd" d="M1707.93 772.081c-1.3 0-2.58.412-3.83 1.236q-1.89 1.236-4.2 4.094c-1.54 1.904-2.79 3.856-3.77 5.856-.97 1.999-1.79 4.552-2.47 7.659l-.36 1.703a26 26 0 0 0-.61 5.511c0 2.135.47 3.675 1.4 4.62s2.48 1.419 4.64 1.419a9.1 9.1 0 0 0 3.16-.547q1.5-.547 3.06-1.804c1.04-.837 2.03-1.938 2.96-3.303s1.79-3.046 2.57-5.045 1.39-4.141 1.82-6.424c.44-2.283.65-4.465.65-6.545 0-2.81-.4-4.917-1.19-6.322-.8-1.405-2.08-2.108-3.83-2.108m-7.09-23.303h2.35l-7.14 28.369.53.162q3.93-5.268 7.38-7.619c2.29-1.567 4.59-2.35 6.89-2.35 2.94 0 5.23 1.121 6.86 3.363q2.46 3.364 2.46 9.484 0 6.686-2.7 13.151c-1.79 4.309-4.29 7.727-7.48 10.253-3.18 2.526-6.75 3.79-10.69 3.79q-5.4 0-9.57-2.635l-3.73 2.635-2.59-.649 10.5-46.323q.93-4.133.93-5.998c0-1.134-.35-1.932-1.04-2.391s-1.92-.716-3.7-.77l.48-2.107Z"/><text x="1683.41" y="800.055" fill-opacity="0" font-family="Arial,Arial_MSFontService,sans-serif" font-size="58.602">𝑏</text><path fill-rule="evenodd" d="M1739.96 785.213h1.81c-.03 1.092-.06 2.07-.08 2.933-.02.864-.04 1.703-.05 2.517s-.01 1.619-.01 2.413v22.637q0 .922.06 1.593c.04.447.1.824.19 1.132q.135.462.36.789c.15.219.32.407.52.566.24.238.55.422.95.551s.9.238 1.52.328q.93.134 2.22.208c.86.05 1.9.085 3.11.105v2.591h-23.62v-2.591c1.17-.04 2.17-.085 2.98-.134.81-.05 1.51-.12 2.09-.209a10 10 0 0 0 1.38-.298c.35-.109.65-.243.91-.402.28-.179.52-.372.71-.581q.3-.312.48-.789c.12-.318.21-.705.28-1.162s.11-1.022.11-1.697v-21.356q0-1.162-.45-1.639c-.3-.317-.72-.476-1.28-.476-.62 0-1.53.318-2.74.953q-1.815.953-4.71 2.83a30 30 0 0 1-.71-1.371q-.33-.684-.69-1.399c2.47-1.351 4.9-2.696 7.32-4.036 2.41-1.341 4.86-2.676 7.34-4.006"/><text x="1725.3" y="818.78" fill-opacity="0" font-family="Arial,Arial_MSFontService,sans-serif" font-size="38.363">1</text><path fill-rule="evenodd" d="M1786.46 772.081c-1.29 0-2.57.412-3.83 1.236-1.25.824-2.65 2.189-4.19 4.094-1.54 1.904-2.8 3.856-3.77 5.856s-1.8 4.552-2.47 7.659l-.37 1.703c-.4 1.891-.61 3.728-.61 5.511 0 2.135.47 3.675 1.4 4.62.94.946 2.48 1.419 4.64 1.419a9.1 9.1 0 0 0 3.16-.547q1.5-.547 3.06-1.804c1.04-.837 2.03-1.938 2.96-3.303q1.395-2.046 2.58-5.045c.78-2 1.39-4.141 1.82-6.424s.65-4.465.65-6.545q0-4.215-1.2-6.322c-.79-1.405-2.07-2.108-3.83-2.108m-7.09-23.303h2.35l-7.13 28.369.53.162c2.62-3.512 5.07-6.052 7.37-7.619s4.59-2.35 6.89-2.35q4.425 0 6.87 3.363c1.64 2.243 2.45 5.404 2.45 9.484 0 4.458-.9 8.841-2.69 13.151-1.8 4.309-4.29 7.727-7.48 10.253s-6.75 3.79-10.7 3.79c-3.59 0-6.78-.879-9.56-2.635l-3.73 2.635-2.6-.649 10.5-46.323q.93-4.133.93-5.998c0-1.134-.34-1.932-1.03-2.391s-1.93-.716-3.71-.77l.49-2.107Z"/><text x="1761.94" y="800.055" fill-opacity="0" font-family="Arial,Arial_MSFontService,sans-serif" font-size="58.602">𝑏</text><path fill-rule="evenodd" d="M1818.07 785.004c2.07 0 3.83.233 5.29.7s2.65 1.097 3.56 1.891a6.9 6.9 0 0 1 1.98 2.86c.41 1.112.61 2.313.61 3.604 0 .774-.05 1.494-.16 2.159a8.8 8.8 0 0 1-.57 1.966c-.27.645-.62 1.296-1.06 1.951-.43.655-.98 1.35-1.64 2.085-.49.635-1.14 1.37-1.93 2.204-.8.834-1.66 1.728-2.61 2.681-.94.953-1.93 1.946-2.96 2.978a214 214 0 0 0-3.01 3.068 68 68 0 0 0-2.68 2.949c-.81.953-1.48 1.827-2 2.621h11.02c.94 0 1.68-.035 2.24-.104.55-.07 1.02-.224 1.38-.462.37-.238.68-.601.94-1.087q.39-.73.9-2.011h2.77c-.1 1.41-.2 2.83-.29 4.26s-.18 2.849-.28 4.259h-25.23v-1.549c.48-1.072 1.03-2.13 1.67-3.172.63-1.043 1.35-2.1 2.14-3.172.8-1.072 1.7-2.179 2.71-3.321a88 88 0 0 1 3.37-3.56q2.805-2.8 4.56-4.78c1.17-1.321 2.09-2.497 2.77-3.53q1.005-1.548 1.38-2.859c.25-.874.37-1.807.37-2.8 0-1.013-.14-1.946-.43-2.8q-.435-1.28-1.23-2.174-.81-.894-2.04-1.4-1.245-.506-2.85-.506c-1.84 0-3.39.501-4.64 1.504-1.26 1.003-2.23 2.457-2.92 4.363h-3.91v-5.808c2.55-1.052 4.88-1.817 7.02-2.293q3.195-.715 5.76-.715"/><text x="1804.34" y="818.754" fill-opacity="0" font-family="Arial,Arial_MSFontService,sans-serif" font-size="38.572">2</text><path fill-rule="evenodd" d="M1866.9 772.081c-1.3 0-2.57.412-3.83 1.236s-2.65 2.189-4.19 4.094c-1.54 1.904-2.8 3.856-3.77 5.856-.98 1.999-1.8 4.552-2.48 7.659l-.36 1.703a26 26 0 0 0-.61 5.511c0 2.135.47 3.675 1.4 4.62s2.48 1.419 4.64 1.419a9.1 9.1 0 0 0 3.16-.547q1.5-.547 3.06-1.804c1.04-.837 2.03-1.938 2.96-3.303s1.79-3.046 2.57-5.045q1.185-3 1.83-6.424c.43-2.283.65-4.465.65-6.545q0-4.215-1.2-6.322c-.8-1.405-2.07-2.108-3.83-2.108m-7.09-23.303h2.35l-7.13 28.369.52.162q3.93-5.268 7.38-7.619c2.3-1.567 4.59-2.35 6.89-2.35q4.41 0 6.87 3.363c1.63 2.243 2.45 5.404 2.45 9.484q0 6.686-2.7 13.151-2.685 6.464-7.47 10.253c-3.19 2.526-6.76 3.79-10.7 3.79-3.6 0-6.78-.879-9.57-2.635l-3.72 2.635-2.6-.649 10.5-46.323q.93-4.133.93-5.998c0-1.134-.34-1.932-1.03-2.391s-1.93-.716-3.71-.77l.48-2.107Z"/><text x="1842.38" y="800.055" fill-opacity="0" font-family="Arial,Arial_MSFontService,sans-serif" font-size="58.602">𝑏</text><path fill-rule="evenodd" d="M1898.45 785.004c1.59 0 3.07.169 4.45.506 1.38.338 2.58.849 3.59 1.534a7.45 7.45 0 0 1 2.37 2.562c.57 1.023.85 2.209.85 3.559q0 1.907-.54 3.366c-.35.973-.91 1.857-1.65 2.651s-1.66 1.514-2.74 2.159c-1.08.646-2.33 1.266-3.74 1.862v.357q1.995.358 3.72 1.147a11.3 11.3 0 0 1 3.03 1.996 9.2 9.2 0 0 1 2.04 2.784c.49 1.053.74 2.215.74 3.485 0 1.589-.3 3.063-.89 4.423a9.6 9.6 0 0 1-2.68 3.53q-1.785 1.49-4.41 2.323c-1.75.556-3.79.834-6.14.834-1.84 0-3.72-.183-5.62-.551a39 39 0 0 1-5.43-1.444v-6.434h3.85c.31.993.69 1.842 1.13 2.547q.66 1.057 1.53 1.727c.59.447 1.26.77 2.03.968.76.199 1.63.298 2.6.298 2.57 0 4.51-.611 5.83-1.832q1.98-1.832 1.98-5.555 0-3.961-2.61-6.001c-1.74-1.361-4.31-2.041-7.73-2.041h-2.62v-2.859c2.09-.099 3.89-.392 5.41-.879 1.52-.486 2.78-1.117 3.79-1.891 1.02-.774 1.77-1.678 2.27-2.711.49-1.032.74-2.134.74-3.306 0-1.906-.56-3.41-1.69-4.512-1.14-1.102-2.77-1.653-4.92-1.653-1.81 0-3.32.496-4.54 1.489q-1.83 1.49-2.82 4.438h-3.78v-5.868q3.51-1.488 6.63-2.248 3.105-.76 5.97-.76"/><text x="1885.4" y="819.197" fill-opacity="0" font-family="Arial,Arial_MSFontService,sans-serif" font-size="39.078">3</text><path fill-rule="evenodd" d="M1947.34 772.081c-1.3 0-2.58.412-3.83 1.236q-1.89 1.236-4.2 4.094c-1.54 1.904-2.79 3.856-3.77 5.856-.97 1.999-1.79 4.552-2.47 7.659l-.36 1.703a26 26 0 0 0-.61 5.511c0 2.135.47 3.675 1.4 4.62s2.48 1.419 4.64 1.419a9.1 9.1 0 0 0 3.16-.547q1.5-.547 3.06-1.804c1.04-.837 2.03-1.938 2.96-3.303s1.79-3.046 2.57-5.045 1.39-4.141 1.82-6.424c.44-2.283.65-4.465.65-6.545 0-2.81-.4-4.917-1.19-6.322-.8-1.405-2.08-2.108-3.83-2.108m-7.09-23.303h2.35l-7.14 28.369.53.162q3.93-5.268 7.38-7.619c2.29-1.567 4.59-2.35 6.89-2.35q4.41 0 6.87 3.363c1.63 2.243 2.45 5.404 2.45 9.484q0 6.686-2.7 13.151c-1.79 4.309-4.29 7.727-7.48 10.253-3.18 2.526-6.75 3.79-10.69 3.79q-5.4 0-9.57-2.635l-3.73 2.635-2.59-.649 10.5-46.323q.93-4.133.93-5.998c0-1.134-.35-1.932-1.04-2.391-.68-.459-1.92-.716-3.7-.77l.48-2.107Z"/><text x="1922.82" y="800.055" fill-opacity="0" font-family="Arial,Arial_MSFontService,sans-serif" font-size="58.602">𝑏</text><path fill-rule="evenodd" d="M1980.35 792.391c-1.91 2.76-3.81 5.5-5.71 8.221q-2.835 4.08-5.73 8.19v.358h11.44v-5.987q0-1.012.03-2.502c.02-.993.04-2 .07-3.023s.07-1.996.11-2.919.08-1.703.11-2.338Zm.86-6.97h4.74v23.739h.53q1.23 0 1.98-.119c.51-.08.92-.244 1.22-.492q.465-.372.78-1.042c.21-.447.43-1.028.67-1.743h2.53c-.06 1.092-.12 2.175-.19 3.247s-.14 2.164-.2 3.276h-7.32v3.902c0 1.152.02 2.045.07 2.681q.075.953.45 1.489c.25.357.61.626 1.1.804q.735.268 2.04.626v1.787h-12.87v-1.787c.6-.159 1.11-.303 1.52-.432a4.4 4.4 0 0 0 1.04-.447c.28-.169.49-.367.62-.596.12-.228.22-.516.29-.863q.105-.522.12-1.311c.01-.526.02-1.176.02-1.951v-3.902h-16.77v-2.353c2.96-4.11 5.9-8.196 8.81-12.256q4.38-6.092 8.82-12.257"/><text x="1963.58" y="818.807" fill-opacity="0" font-family="Arial,Arial_MSFontService,sans-serif" font-size="38.155">4</text><path fill-rule="evenodd" d="M2073.38 777.796c1.4 0 2.58.493 3.53 1.479q1.41 1.48 1.41 3.749t-1.41 3.748c-.95.987-2.13 1.48-3.53 1.48s-2.58-.493-3.53-1.48q-1.41-1.479-1.41-3.748t1.41-3.749c.95-.986 2.13-1.479 3.53-1.479m-24.56 0c1.41 0 2.58.493 3.53 1.479q1.41 1.48 1.41 3.749t-1.41 3.748c-.95.987-2.12 1.48-3.53 1.48-1.4 0-2.58-.493-3.53-1.48q-1.41-1.479-1.41-3.748t1.41-3.749c.95-.986 2.13-1.479 3.53-1.479m-24.56 0c1.41 0 2.58.493 3.53 1.479.94.986 1.42 2.236 1.42 3.749s-.48 2.762-1.42 3.748c-.95.987-2.12 1.48-3.53 1.48-1.4 0-2.58-.493-3.53-1.48q-1.41-1.479-1.41-3.748t1.41-3.749c.95-.986 2.13-1.479 3.53-1.479"/><text x="2019.32" y="786.945" fill-opacity="0" font-family="Arial,Arial_MSFontService,sans-serif" font-size="10.456">⋯</text><path fill="#d74514" d="M252 1121h501v219H252z"/><path fill="#fff" fill-rule="evenodd" d="M534.92 1209.63q-3.486 0-4.58.09v22.53h4.013c2.756 0 4.937-.49 6.545-1.46s2.729-2.29 3.364-3.95q.952-2.49.952-6.18c0-3.68-.865-6.43-2.594-8.27q-2.594-2.76-7.7-2.76m-21.479-4.74h23.627c3.891 0 7.126.35 9.706 1.06 2.58.7 4.634 1.66 6.16 2.89a12.14 12.14 0 0 1 3.506 4.56c.811 1.81 1.216 3.95 1.216 6.41q0 3.96-1.398 6.81c-.932 1.89-2.189 3.46-3.769 4.72-1.581 1.25-3.695 2.44-6.343 3.54v.41c1.999.86 3.654 2.02 4.965 3.46q1.965 2.175 3.546 5.49l2.553 5.52c1.135 2.46 2.263 4.3 3.384 5.53q1.682 1.845 3.992 2.25v2.67h-15.603c-1.567-2.16-3.337-5.37-5.309-9.64l-3.161-6.93q-1.418-3.09-2.432-4.38c-.675-.86-1.371-1.46-2.087-1.78-.716-.33-1.817-.49-3.303-.49h-2.351v13.05q0 3.045.284 4.26c.189.81.554 1.45 1.094 1.94.541.49 1.54.92 2.999 1.3v2.67h-21.276v-2.67c1.459-.38 2.451-.81 2.978-1.3q.79-.735 1.074-1.92c.189-.8.284-2.23.284-4.28v-34.93c0-2.06-.088-3.48-.263-4.28q-.264-1.2-1.074-1.92c-.541-.49-1.54-.94-2.999-1.34Zm-90 0h39.189v12.89h-5.552c-.891-2.57-1.648-4.3-2.269-5.21-.622-.9-1.365-1.62-2.229-2.15-.865-.52-2.337-.79-4.418-.79h-7.822v20.63h5.188c1.27 0 2.249-.19 2.938-.58.689-.4 1.257-1.05 1.702-1.97s.818-2.22 1.115-3.89h4.579v17.67h-4.579c-.324-1.7-.716-3.02-1.175-3.95s-1.027-1.59-1.703-1.97q-1.013-.57-2.877-.57h-5.188v15.04c0 2.11.109 3.57.325 4.4q.324 1.23 1.276 1.98c.635.5 1.736.87 3.303 1.12v2.67h-21.803v-2.67c1.432-.35 2.411-.78 2.938-1.28s.891-1.15 1.094-1.94q.304-1.2.304-4.32v-34.89c0-2.06-.088-3.48-.263-4.28q-.264-1.2-1.074-1.92c-.541-.49-1.54-.94-2.999-1.34Zm-46 0h21.276v2.68q-2.148.57-2.938 1.29-.79.735-1.114 1.95c-.216.81-.325 2.22-.325 4.21v40.37h7.863c1.702 0 3.087-.32 4.154-.95 1.067-.64 1.986-1.7 2.756-3.2s1.533-3.97 2.289-7.4h5.553l-.892 16.37h-38.622v-2.67c1.459-.38 2.451-.81 2.978-1.3s.885-1.13 1.074-1.94.284-2.25.284-4.3v-34.89c0-2.06-.088-3.48-.263-4.28q-.264-1.2-1.074-1.92c-.541-.49-1.54-.94-2.999-1.34Zm113.831-.65q3.607 0 6.889.39c2.189.26 4.688.71 7.498 1.36v11.75h-5.552c-.73-3.05-1.811-5.28-3.243-6.67s-3.498-2.08-6.2-2.08c-2.432 0-4.384.63-5.857 1.9q-2.208 1.905-2.208 5.19c0 1.57.304 2.92.912 4.07s1.627 2.27 3.059 3.37c1.432 1.09 3.513 2.34 6.242 3.74 3.323 1.73 5.937 3.43 7.842 5.09q2.856 2.49 4.215 5.43c.905 1.96 1.357 4.24 1.357 6.83 0 3.32-.77 6.21-2.31 8.65q-2.31 3.675-6.727 5.64c-2.945 1.31-6.35 1.96-10.213 1.96-2.756 0-5.627-.15-8.612-.46-2.986-.32-5.789-.77-8.41-1.36v-12.49h5.552q1.014 4.83 3.385 7.2t6.95 2.37q4.012 0 6.261-2.07c1.5-1.38 2.25-3.33 2.25-5.87 0-2.49-.723-4.56-2.169-6.22-1.445-1.67-3.951-3.39-7.517-5.17-2.972-1.46-5.451-2.97-7.437-4.52s-3.553-3.36-4.701-5.41c-1.149-2.05-1.723-4.41-1.723-7.05 0-3.33.824-6.15 2.472-8.47 1.649-2.33 4.033-4.09 7.154-5.29s6.734-1.81 10.841-1.81"/><text x="377.441" y="1253.78" fill-opacity="0" font-family="Arial,Arial_MSFontService,sans-serif" font-size="56.617">𝐋𝐅𝐒𝐑</text><path fill="#fff" fill-rule="evenodd" d="M596.046 1234.43h3.276l-.595 9.51h-18.289v10.72c1.192-.36 2.408-.62 3.649-.79s2.765-.25 4.572-.25c2.462 0 4.622.45 6.478 1.37 1.857.91 3.297 2.23 4.319 3.97q1.534 2.61 1.534 6.12c0 4.03-1.335 7.12-4.006 9.25-2.671 2.14-6.508 3.2-11.512 3.2-2.085 0-4.21-.21-6.374-.62-2.164-.42-4.021-.99-5.57-1.7v-7.45h5.391c.497 2.17 1.291 3.78 2.383 4.84 1.092 1.07 2.502 1.6 4.23 1.6q3.247 0 4.795-2.01 1.55-2.01 1.549-6.21c0-2.76-.665-4.87-1.996-6.32s-3.256-2.17-5.778-2.17q-1.46 0-3.142.27c-1.122.17-2.12.39-2.994.65l-2.68-1.67v-20.34h17.603q1.578 0 2.129-.39c.368-.26.71-.78 1.028-1.58"/><text x="573.528" y="1272.15" fill-opacity="0" font-family="Arial,Arial_MSFontService,sans-serif" font-size="43.099">𝟓</text><path d="M753.5 1226.92h205.955v9.16H753.5Zm201.372-18.34 45.838 22.92-45.838 22.92Z"/><path fill="#d74514" d="M252 1366h501v219H252z"/><path fill="#fff" fill-rule="evenodd" d="M534.92 1454.65c-2.324 0-3.85.02-4.58.08v22.53h4.013c2.756 0 4.937-.49 6.545-1.46s2.729-2.29 3.364-3.95q.952-2.49.952-6.18c0-3.67-.865-6.43-2.594-8.27-1.729-1.83-4.296-2.75-7.7-2.75m-21.479-4.74h23.627q5.836 0 9.706 1.05c2.58.7 4.634 1.67 6.16 2.9a12.14 12.14 0 0 1 3.506 4.56c.811 1.81 1.216 3.94 1.216 6.4q0 3.975-1.398 6.81c-.932 1.89-2.189 3.46-3.769 4.72s-3.695 2.44-6.343 3.55v.4c1.999.87 3.654 2.02 4.965 3.47q1.965 2.16 3.546 5.49l2.553 5.51c1.135 2.46 2.263 4.3 3.384 5.53q1.682 1.845 3.992 2.25v2.68h-15.603c-1.567-2.17-3.337-5.38-5.309-9.65l-3.161-6.93q-1.418-3.075-2.432-4.38c-.675-.86-1.371-1.46-2.087-1.78s-1.817-.49-3.303-.49h-2.351v13.05q0 3.045.284 4.26c.189.81.554 1.46 1.094 1.94.541.49 1.54.92 2.999 1.3v2.68h-21.276v-2.68c1.459-.38 2.451-.81 2.978-1.3q.79-.72 1.074-1.92c.189-.8.284-2.22.284-4.28v-34.93c0-2.06-.088-3.48-.263-4.28-.176-.79-.534-1.44-1.074-1.92-.541-.49-1.54-.93-2.999-1.34Zm-90 0h39.189v12.88h-5.552c-.891-2.56-1.648-4.3-2.269-5.2-.622-.91-1.365-1.63-2.229-2.15-.865-.53-2.337-.79-4.418-.79h-7.822v20.63h5.188c1.27 0 2.249-.2 2.938-.59s1.257-1.05 1.702-1.97.818-2.21 1.115-3.89h4.579v17.67h-4.579c-.324-1.7-.716-3.02-1.175-3.95s-1.027-1.59-1.703-1.97c-.675-.37-1.634-.56-2.877-.56h-5.188v15.03c0 2.11.109 3.58.325 4.4s.641 1.49 1.276 1.99q.952.75 3.303 1.11v2.68h-21.803v-2.68c1.432-.35 2.411-.78 2.938-1.28s.891-1.14 1.094-1.94q.304-1.2.304-4.32v-34.89c0-2.06-.088-3.48-.263-4.28-.176-.79-.534-1.44-1.074-1.92-.541-.49-1.54-.93-2.999-1.34Zm-46 0h21.276v2.67c-1.432.38-2.411.81-2.938 1.3-.527.48-.898 1.13-1.114 1.94s-.325 2.22-.325 4.22v40.36h7.863c1.702 0 3.087-.32 4.154-.95s1.986-1.7 2.756-3.2 1.533-3.97 2.289-7.4h5.553l-.892 16.38h-38.622v-2.68c1.459-.38 2.451-.81 2.978-1.3.527-.48.885-1.13 1.074-1.94s.284-2.24.284-4.3v-34.89c0-2.06-.088-3.48-.263-4.28-.176-.79-.534-1.44-1.074-1.92-.541-.49-1.54-.93-2.999-1.34Zm113.831-.65c2.404 0 4.701.13 6.889.38 2.189.26 4.688.71 7.498 1.36v11.75h-5.552q-1.095-4.575-3.243-6.66c-1.432-1.4-3.498-2.09-6.2-2.09-2.432 0-4.384.63-5.857 1.9q-2.208 1.905-2.208 5.19c0 1.57.304 2.93.912 4.07.608 1.15 1.627 2.27 3.059 3.37q2.148 1.635 6.242 3.75c3.323 1.73 5.937 3.42 7.842 5.08q2.856 2.49 4.215 5.43c.905 1.96 1.357 4.24 1.357 6.83 0 3.33-.77 6.21-2.31 8.65q-2.31 3.675-6.727 5.64c-2.945 1.31-6.35 1.96-10.213 1.96-2.756 0-5.627-.15-8.612-.46a72 72 0 0 1-8.41-1.36v-12.48h5.552c.676 3.21 1.804 5.61 3.385 7.19q2.37 2.37 6.95 2.37 4.012 0 6.261-2.07c1.5-1.37 2.25-3.33 2.25-5.87 0-2.49-.723-4.56-2.169-6.22-1.445-1.66-3.951-3.39-7.517-5.17-2.972-1.46-5.451-2.96-7.437-4.52-1.986-1.55-3.553-3.36-4.701-5.41q-1.723-3.075-1.723-7.05c0-3.32.824-6.15 2.472-8.47s4.033-4.09 7.154-5.29q4.68-1.8 10.841-1.8"/><text x="377.441" y="1498.8" fill-opacity="0" font-family="Arial,Arial_MSFontService,sans-serif" font-size="56.617">𝐋𝐅𝐒𝐑</text><path fill="#fff" fill-rule="evenodd" d="M587.855 1501.13c-.973 0-1.886.14-2.74.43s-1.609.68-2.264 1.16c-.655.49-1.097.89-1.325 1.19-.229.31-.393.75-.492 1.33s-.149 1.59-.149 3.04q0 5.445 1.519 8.19c1.013 1.83 2.562 2.74 4.647 2.74q3.186 0 4.765-2.31c1.053-1.54 1.579-3.92 1.579-7.13q0-4.26-1.415-6.45-1.414-2.19-4.125-2.19m7.744-20.19 1.608 2.05v1.85c-4.348.1-7.873 1.44-10.573 4.03q-4.052 3.885-5.391 11.13l.297.12c1.549-1.08 3.108-1.86 4.677-2.36 1.568-.49 3.286-.74 5.153-.74q3.425 0 5.882 1.5c1.638 1.01 2.874 2.42 3.708 4.25.834 1.82 1.251 3.95 1.251 6.37q0 3.96-1.668 6.99c-1.112 2.01-2.824 3.59-5.138 4.72s-5.147 1.7-8.503 1.7c-3.078 0-5.724-.62-7.938-1.85s-3.907-3.05-5.078-5.45q-1.758-3.6-1.758-8.76c0-4.65.978-8.84 2.934-12.6 1.956-3.75 4.731-6.77 8.325-9.05q5.391-3.435 12.212-3.9"/><text x="572.128" y="1517.34" fill-opacity="0" font-family="Arial,Arial_MSFontService,sans-serif" font-size="41.61">𝟔</text><path fill="#d74514" d="M1001 1121h507v464h-507z"/><text fill="#fff" font-family="Microsoft YaHei,Microsoft YaHei_MSFontService,sans-serif" font-size="83" font-weight="700" transform="translate(1234.66 1284)">J<tspan x="-9.167" y="198">K</tspan></text><path d="M753.5 1481.083h205.955v-9.167H753.5Zm201.372 18.333 45.833-22.916-45.833-22.917ZM1508.5 1348.92h651.12v9.16H1508.5Zm646.54-18.34 45.83 22.92-45.83 22.92Z"/><path fill-rule="evenodd" d="M1641.77 1257.36c3.59 0 6.9.41 9.93 1.22l-1.99 9.16h-4.25c-.06-2.05-.23-3.54-.51-4.46q-.42-1.38-1.38-2.07c-.63-.46-1.53-.68-2.69-.68-2.73 0-5.18 1.08-7.36 3.26-2.17 2.17-3.95 5.25-5.33 9.24-1.38 3.98-2.06 7.81-2.06 11.49 0 2.75.54 4.8 1.62 6.14 1.08 1.33 2.7 2 4.86 2 2.46 0 4.59-.46 6.38-1.39 1.8-.94 3.7-2.4 5.7-4.4l2.47 2.47c-2.54 2.81-5.1 4.86-7.68 6.16s-5.36 1.95-8.33 1.95c-3.92 0-6.89-1.17-8.91-3.49-2.03-2.32-3.04-5.7-3.04-10.13 0-2.89.54-6.07 1.62-9.53 1.08-3.45 2.66-6.49 4.74-9.11 2.08-2.63 4.51-4.58 7.29-5.88 2.79-1.3 5.76-1.95 8.92-1.95"/><text x="1619.2" y="1292.44" fill-opacity="0" font-family="Arial,Arial_MSFontService,sans-serif" font-size="40.081">𝑐</text><path fill-rule="evenodd" d="M1668.4 1277.92c-1.39 0-2.55.36-3.49 1.08-.93.73-1.67 1.79-2.21 3.19-.55 1.4-.94 3.11-1.17 5.12-.22 2.02-.34 4.31-.34 6.87 0 2.96.14 5.52.43 7.67s.74 3.93 1.34 5.32q.915 2.085 2.28 3.06c.92.66 2.01.99 3.28.99 1.19 0 2.23-.31 3.13-.93.89-.61 1.63-1.57 2.21-2.87.59-1.3 1.03-2.95 1.33-4.94q.45-3 .45-7.08c0-3.06-.17-5.69-.49-7.89-.33-2.21-.79-4.02-1.39-5.44s-1.35-2.46-2.25-3.14c-.9-.67-1.94-1.01-3.11-1.01m.12-2.89q3.54 0 6.06 1.32c1.68.89 3.05 2.15 4.11 3.79 1.06 1.63 1.84 3.64 2.34 6 .49 2.36.74 5.03.74 8.01q0 9.915-3.51 15c-2.35 3.38-5.74 5.08-10.19 5.08-4.41 0-7.68-1.6-9.83-4.8-2.14-3.2-3.21-8.04-3.21-14.53q0-5.1.99-8.82c.67-2.48 1.6-4.54 2.8-6.18s2.63-2.86 4.28-3.67c1.65-.8 3.45-1.2 5.42-1.2"/><text x="1655.03" y="1309.33" fill-opacity="0" font-family="Arial,Arial_MSFontService,sans-serif" font-size="39.197">0</text><path fill-rule="evenodd" d="M1715.93 1257.36c3.59 0 6.9.41 9.93 1.22l-1.99 9.16h-4.25c-.06-2.05-.23-3.54-.51-4.46q-.42-1.38-1.38-2.07c-.63-.46-1.53-.68-2.69-.68-2.73 0-5.18 1.08-7.36 3.26-2.17 2.17-3.95 5.25-5.33 9.24q-2.07 5.97-2.07 11.49c0 2.75.54 4.8 1.63 6.14 1.08 1.33 2.7 2 4.86 2 2.46 0 4.58-.46 6.38-1.39 1.8-.94 3.7-2.4 5.7-4.4l2.47 2.47c-2.54 2.81-5.1 4.86-7.68 6.16s-5.36 1.95-8.33 1.95c-3.92 0-6.89-1.17-8.92-3.49-2.02-2.32-3.04-5.7-3.04-10.13 0-2.89.54-6.07 1.63-9.53 1.08-3.45 2.66-6.49 4.74-9.11 2.08-2.63 4.51-4.58 7.29-5.88s5.76-1.95 8.92-1.95"/><text x="1693.35" y="1292.44" fill-opacity="0" font-family="Arial,Arial_MSFontService,sans-serif" font-size="40.081">𝑐</text><path fill-rule="evenodd" d="M1743.1 1275.24h1.81c-.04 1.09-.07 2.07-.08 2.93-.02.86-.04 1.7-.05 2.52-.01.81-.01 1.62-.01 2.41v22.64q0 .915.06 1.59c.03.45.1.82.19 1.13s.21.57.36.79.32.41.52.57c.24.24.55.42.95.55s.9.24 1.52.33 1.35.15 2.22.2c.86.05 1.9.09 3.11.11v2.59h-23.62v-2.59c1.17-.04 2.17-.09 2.98-.14.81-.04 1.51-.11 2.08-.2a10 10 0 0 0 1.39-.3c.35-.11.65-.24.91-.4.28-.18.51-.38.71-.58.2-.21.36-.48.48-.79.12-.32.21-.71.28-1.17.07-.45.11-1.02.11-1.69v-21.36c0-.77-.15-1.32-.45-1.64-.3-.31-.72-.47-1.28-.47-.62 0-1.53.31-2.74.95-1.21.63-2.78 1.58-4.71 2.83-.26-.46-.49-.91-.71-1.37s-.45-.92-.69-1.4c2.47-1.35 4.9-2.7 7.32-4.04 2.41-1.34 4.86-2.67 7.34-4"/><text x="1728.44" y="1308.8" fill-opacity="0" font-family="Arial,Arial_MSFontService,sans-serif" font-size="38.363">1</text><path fill-rule="evenodd" d="M1788.18 1257.36c3.6 0 6.91.41 9.93 1.22l-1.98 9.16h-4.26c-.05-2.05-.22-3.54-.5-4.46q-.435-1.38-1.38-2.07c-.64-.46-1.54-.68-2.7-.68-2.73 0-5.18 1.08-7.35 3.26-2.18 2.17-3.95 5.25-5.33 9.24q-2.07 5.97-2.07 11.49c0 2.75.54 4.8 1.62 6.14 1.08 1.33 2.7 2 4.87 2 2.45 0 4.58-.46 6.38-1.39 1.79-.94 3.69-2.4 5.69-4.4l2.47 2.47c-2.54 2.81-5.1 4.86-7.68 6.16s-5.35 1.95-8.32 1.95c-3.92 0-6.89-1.17-8.92-3.49s-3.04-5.7-3.04-10.13c0-2.89.54-6.07 1.62-9.53 1.08-3.45 2.66-6.49 4.74-9.11 2.08-2.63 4.52-4.58 7.3-5.88q4.17-1.95 8.91-1.95"/><text x="1765.61" y="1292.44" fill-opacity="0" font-family="Arial,Arial_MSFontService,sans-serif" font-size="40.081">𝑐</text><path fill-rule="evenodd" d="M1814.93 1275.03c2.07 0 3.83.23 5.29.7s2.65 1.1 3.56 1.89a6.9 6.9 0 0 1 1.98 2.86c.41 1.11.61 2.31.61 3.6 0 .78-.05 1.5-.16 2.16-.11.67-.3 1.32-.57 1.97-.27.64-.62 1.29-1.06 1.95-.43.65-.98 1.35-1.64 2.08-.49.64-1.14 1.37-1.93 2.21-.8.83-1.66 1.73-2.61 2.68-.94.95-1.93 1.94-2.96 2.98-1.03 1.03-2.04 2.05-3.01 3.07-.97 1.01-1.87 1.99-2.68 2.94-.81.96-1.48 1.83-2 2.63h11.02c.94 0 1.68-.04 2.24-.11.55-.07 1.02-.22 1.38-.46.37-.24.68-.6.94-1.09q.39-.72.9-2.01h2.77c-.1 1.41-.2 2.83-.29 4.26s-.18 2.85-.28 4.26h-25.23v-1.55c.48-1.07 1.03-2.13 1.67-3.17s1.35-2.1 2.14-3.17c.8-1.08 1.7-2.18 2.71-3.32 1.02-1.15 2.14-2.33 3.37-3.56 1.87-1.87 3.39-3.46 4.56-4.78s2.09-2.5 2.77-3.53c.67-1.04 1.13-1.99 1.38-2.86.25-.88.37-1.81.37-2.8 0-1.02-.14-1.95-.43-2.8-.29-.86-.7-1.58-1.23-2.18-.54-.59-1.22-1.06-2.04-1.4-.83-.33-1.78-.5-2.85-.5-1.84 0-3.39.5-4.64 1.5-1.26 1-2.23 2.46-2.92 4.36h-3.91v-5.8c2.55-1.06 4.88-1.82 7.02-2.3 2.13-.47 4.05-.71 5.76-.71"/><text x="1801.2" y="1308.78" fill-opacity="0" font-family="Arial,Arial_MSFontService,sans-serif" font-size="38.572">2</text><path fill-rule="evenodd" d="M1862.34 1257.36c3.6 0 6.91.41 9.93 1.22l-1.98 9.16h-4.26c-.05-2.05-.22-3.54-.51-4.46-.28-.92-.74-1.61-1.37-2.07-.64-.46-1.54-.68-2.7-.68-2.73 0-5.18 1.08-7.35 3.26-2.18 2.17-3.96 5.25-5.33 9.24q-2.07 5.97-2.07 11.49c0 2.75.54 4.8 1.62 6.14 1.08 1.33 2.7 2 4.86 2 2.46 0 4.59-.46 6.39-1.39 1.79-.94 3.69-2.4 5.69-4.4l2.47 2.47c-2.54 2.81-5.1 4.86-7.68 6.16s-5.35 1.95-8.33 1.95c-3.91 0-6.89-1.17-8.91-3.49-2.03-2.32-3.04-5.7-3.04-10.13 0-2.89.54-6.07 1.62-9.53 1.08-3.45 2.66-6.49 4.74-9.11 2.08-2.63 4.51-4.58 7.3-5.88q4.17-1.95 8.91-1.95"/><text x="1839.77" y="1292.44" fill-opacity="0" font-family="Arial,Arial_MSFontService,sans-serif" font-size="40.081">𝑐</text><path fill-rule="evenodd" d="M1889.03 1275.03c1.59 0 3.07.17 4.45.5 1.38.34 2.58.85 3.59 1.54a7.24 7.24 0 0 1 2.37 2.56c.57 1.02.85 2.21.85 3.56 0 1.27-.18 2.39-.54 3.37-.35.97-.9 1.85-1.65 2.65-.74.79-1.66 1.51-2.74 2.16-1.08.64-2.33 1.26-3.74 1.86v.35c1.33.24 2.57.63 3.73 1.15 1.15.53 2.16 1.19 3.02 2 .86.8 1.54 1.73 2.04 2.78s.74 2.22.74 3.49c0 1.59-.29 3.06-.89 4.42a9.6 9.6 0 0 1-2.68 3.53c-1.19.99-2.66 1.77-4.41 2.32-1.75.56-3.79.84-6.13.84-1.85 0-3.73-.19-5.63-.55-1.91-.37-3.72-.85-5.42-1.45v-6.43h3.84c.32.99.69 1.84 1.13 2.54.44.71.95 1.28 1.53 1.73.59.45 1.26.77 2.03.97q1.14.3 2.61.3 3.84 0 5.82-1.83c1.32-1.23 1.98-3.08 1.98-5.56q0-3.96-2.61-6c-1.73-1.36-4.31-2.04-7.73-2.04h-2.62v-2.86c2.09-.1 3.89-.39 5.41-.88s2.78-1.12 3.8-1.89c1.01-.78 1.76-1.68 2.26-2.71s.74-2.14.74-3.31c0-1.9-.56-3.41-1.69-4.51-1.14-1.1-2.77-1.65-4.92-1.65-1.81 0-3.32.49-4.54 1.49-1.22.99-2.16 2.47-2.82 4.43h-3.78v-5.86c2.35-1 4.55-1.75 6.63-2.25 2.07-.51 4.07-.76 5.97-.76"/><text x="1875.99" y="1309.22" fill-opacity="0" font-family="Arial,Arial_MSFontService,sans-serif" font-size="39.078">3</text><path fill-rule="evenodd" d="M1936.5 1257.36c3.59 0 6.9.41 9.93 1.22l-1.99 9.16h-4.25c-.06-2.05-.22-3.54-.51-4.46q-.42-1.38-1.38-2.07c-.63-.46-1.53-.68-2.69-.68-2.73 0-5.18 1.08-7.36 3.26-2.17 2.17-3.95 5.25-5.33 9.24-1.37 3.98-2.06 7.81-2.06 11.49 0 2.75.54 4.8 1.62 6.14 1.08 1.33 2.7 2 4.86 2 2.46 0 4.59-.46 6.38-1.39 1.8-.94 3.7-2.4 5.7-4.4l2.47 2.47c-2.54 2.81-5.1 4.86-7.68 6.16s-5.36 1.95-8.33 1.95c-3.91 0-6.89-1.17-8.91-3.49-2.03-2.32-3.04-5.7-3.04-10.13 0-2.89.54-6.07 1.62-9.53 1.08-3.45 2.66-6.49 4.74-9.11 2.08-2.63 4.51-4.58 7.29-5.88 2.79-1.3 5.76-1.95 8.92-1.95"/><text x="1913.93" y="1292.44" fill-opacity="0" font-family="Arial,Arial_MSFontService,sans-serif" font-size="40.081">𝑐</text><path fill-rule="evenodd" d="M1964.65 1282.42q-2.865 4.14-5.7 8.22c-1.9 2.72-3.81 5.45-5.74 8.19v.35h11.44v-5.98c0-.68.01-1.51.03-2.5.02-1 .04-2.01.07-3.03s.07-1.99.11-2.92c.04-.92.08-1.7.12-2.33Zm.86-6.97h4.74v23.73h.53c.82 0 1.48-.04 1.99-.11.5-.08.91-.25 1.22-.5.3-.24.56-.59.77-1.04s.43-1.03.67-1.74h2.53c-.06 1.09-.12 2.17-.19 3.25-.07 1.07-.13 2.16-.19 3.27h-7.33v3.9c0 1.16.02 2.05.07 2.68.05.64.2 1.14.45 1.49.25.36.62.63 1.1.81.49.18 1.17.38 2.04.62v1.79h-12.86v-1.79c.59-.16 1.1-.3 1.51-.43q.63-.195 1.05-.45c.27-.16.48-.36.61-.59q.195-.345.3-.87c.06-.34.1-.78.11-1.31.01-.52.02-1.17.02-1.95v-3.9h-16.77v-2.35c2.96-4.11 5.9-8.2 8.82-12.26s5.85-8.14 8.81-12.25"/><text x="1947.88" y="1308.83" fill-opacity="0" font-family="Arial,Arial_MSFontService,sans-serif" font-size="38.155">4</text><path fill-rule="evenodd" d="M2057.68 1267.82c1.41 0 2.58.49 3.53 1.48.94.99 1.42 2.23 1.42 3.75 0 1.51-.48 2.76-1.42 3.75-.95.98-2.12 1.48-3.53 1.48-1.4 0-2.58-.5-3.52-1.48-.95-.99-1.42-2.24-1.42-3.75 0-1.52.47-2.76 1.42-3.75.94-.99 2.12-1.48 3.52-1.48m-24.56 0c1.41 0 2.58.49 3.53 1.48.94.99 1.42 2.23 1.42 3.75 0 1.51-.48 2.76-1.42 3.75-.95.98-2.12 1.48-3.53 1.48-1.4 0-2.58-.5-3.52-1.48-.95-.99-1.42-2.24-1.42-3.75 0-1.52.47-2.76 1.42-3.75.94-.99 2.12-1.48 3.52-1.48m-24.56 0c1.41 0 2.58.49 3.53 1.48.94.99 1.42 2.23 1.42 3.75 0 1.51-.48 2.76-1.42 3.75-.95.98-2.12 1.48-3.53 1.48-1.4 0-2.58-.5-3.52-1.48-.95-.99-1.42-2.24-1.42-3.75 0-1.52.47-2.76 1.42-3.75.94-.99 2.12-1.48 3.52-1.48"/><text x="2003.62" y="1276.97" fill-opacity="0" font-family="Arial,Arial_MSFontService,sans-serif" font-size="10.456">⋯</text><path fill="#d74514" d="M252 1612h501v218H252z"/><path fill="#fff" fill-rule="evenodd" d="M534.92 1699.66c-2.324 0-3.85.03-4.58.08v22.53h4.013c2.756 0 4.937-.48 6.545-1.46 1.607-.97 2.729-2.29 3.364-3.95q.952-2.49.952-6.18c0-3.67-.865-6.43-2.594-8.27-1.729-1.83-4.296-2.75-7.7-2.75m-21.479-4.74h23.627q5.836 0 9.706 1.05c2.58.7 4.634 1.67 6.16 2.9a12.14 12.14 0 0 1 3.506 4.56c.811 1.81 1.216 3.94 1.216 6.4q0 3.975-1.398 6.81c-.932 1.89-2.189 3.46-3.769 4.72s-3.695 2.44-6.343 3.55v.4c1.999.87 3.654 2.02 4.965 3.47q1.965 2.16 3.546 5.49l2.553 5.51c1.135 2.46 2.263 4.3 3.384 5.53q1.682 1.845 3.992 2.25v2.68h-15.603c-1.567-2.16-3.337-5.38-5.309-9.65l-3.161-6.93q-1.418-3.075-2.432-4.38c-.675-.86-1.371-1.45-2.087-1.78-.716-.32-1.817-.49-3.303-.49h-2.351v13.05q0 3.045.284 4.26t1.094 1.95q.811.72 2.999 1.29v2.68h-21.276v-2.68q2.188-.57 2.978-1.29c.527-.49.885-1.13 1.074-1.93s.284-2.22.284-4.28v-34.93c0-2.05-.088-3.48-.263-4.28q-.264-1.185-1.074-1.92c-.541-.49-1.54-.93-2.999-1.34Zm-90 0h39.189v12.88h-5.552c-.891-2.56-1.648-4.3-2.269-5.2a7.3 7.3 0 0 0-2.229-2.15c-.865-.53-2.337-.79-4.418-.79h-7.822v20.63h5.188c1.27 0 2.249-.2 2.938-.59s1.257-1.05 1.702-1.97c.446-.91.818-2.21 1.115-3.89h4.579v17.67h-4.579c-.324-1.7-.716-3.02-1.175-3.95s-1.027-1.59-1.703-1.96q-1.013-.57-2.877-.57h-5.188v15.03c0 2.11.109 3.58.325 4.4.216.83.641 1.49 1.276 1.99q.952.75 3.303 1.11v2.68h-21.803v-2.68c1.432-.35 2.411-.77 2.938-1.27q.79-.75 1.094-1.95t.304-4.32v-34.89c0-2.05-.088-3.48-.263-4.28q-.264-1.185-1.074-1.92c-.541-.49-1.54-.93-2.999-1.34Zm-46 0h21.276v2.67c-1.432.38-2.411.81-2.938 1.3s-.898 1.13-1.114 1.94-.325 2.22-.325 4.22v40.36h7.863c1.702 0 3.087-.31 4.154-.95 1.067-.63 1.986-1.7 2.756-3.2s1.533-3.96 2.289-7.4h5.553l-.892 16.38h-38.622v-2.68q2.188-.57 2.978-1.29.79-.735 1.074-1.95c.189-.81.284-2.24.284-4.3v-34.89c0-2.05-.088-3.48-.263-4.28q-.264-1.185-1.074-1.92c-.541-.49-1.54-.93-2.999-1.34Zm113.831-.65c2.404 0 4.701.13 6.889.38 2.189.26 4.688.71 7.498 1.36v11.75h-5.552q-1.095-4.575-3.243-6.66c-1.432-1.39-3.498-2.09-6.2-2.09-2.432 0-4.384.64-5.857 1.91s-2.208 2.99-2.208 5.18q0 2.355.912 4.08c.608 1.14 1.627 2.27 3.059 3.36q2.148 1.635 6.242 3.75c3.323 1.73 5.937 3.42 7.842 5.08 1.904 1.67 3.309 3.48 4.215 5.44.905 1.95 1.357 4.23 1.357 6.82 0 3.33-.77 6.21-2.31 8.66-1.54 2.44-3.782 4.32-6.727 5.63s-6.35 1.97-10.213 1.97c-2.756 0-5.627-.16-8.612-.47s-5.789-.76-8.41-1.36v-12.48h5.552c.676 3.21 1.804 5.61 3.385 7.19q2.37 2.37 6.95 2.37c2.675 0 4.762-.69 6.261-2.06q2.25-2.07 2.25-5.88c0-2.49-.723-4.56-2.169-6.22-1.445-1.66-3.951-3.38-7.517-5.17-2.972-1.46-5.451-2.96-7.437-4.52-1.986-1.55-3.553-3.35-4.701-5.41q-1.723-3.075-1.723-7.05c0-3.32.824-6.15 2.472-8.47s4.033-4.09 7.154-5.29q4.68-1.8 10.841-1.8"/><text x="377.441" y="1743.81" fill-opacity="0" font-family="Arial,Arial_MSFontService,sans-serif" font-size="56.617">𝐋𝐅𝐒𝐑</text><path fill="#fff" fill-rule="evenodd" d="M573.379 1726.42h28.535v1.97l-16.531 38.78h-6.106v-2.06l14.952-30.29v-.44h-13.254c-.954 0-1.728.09-2.324.26-.595.18-1.087.53-1.474 1.03-.387.51-.76 1.55-1.117 3.11h-3.455Z"/><text x="572.605" y="1762.08" fill-opacity="0" font-family="Arial,Arial_MSFontService,sans-serif" font-size="40.746">𝟕</text><path d="M753.5 1716.92h205.955v9.16H753.5Zm201.372-18.34 45.838 22.92-45.838 22.92Z"/><path fill="#d74514" d="M252 1857h501v218H252z"/><path fill="#fff" fill-rule="evenodd" d="M534.92 1944.67c-2.324 0-3.85.03-4.58.08v22.54h4.013c2.756 0 4.937-.49 6.545-1.46 1.607-.98 2.729-2.29 3.364-3.95.634-1.67.952-3.73.952-6.19 0-3.67-.865-6.43-2.594-8.26q-2.594-2.76-7.7-2.76m-21.479-4.74h23.627q5.836 0 9.706 1.05c2.58.71 4.634 1.67 6.16 2.9a12.14 12.14 0 0 1 3.506 4.56c.811 1.81 1.216 3.95 1.216 6.4q0 3.975-1.398 6.81c-.932 1.89-2.189 3.47-3.769 4.72-1.581 1.26-3.695 2.44-6.343 3.55v.41c1.999.86 3.654 2.01 4.965 3.46q1.965 2.175 3.546 5.49l2.553 5.51c1.135 2.46 2.263 4.31 3.384 5.54 1.121 1.22 2.452 1.97 3.992 2.24v2.68h-15.603c-1.567-2.16-3.337-5.38-5.309-9.65l-3.161-6.93c-.946-2.05-1.756-3.51-2.432-4.37-.675-.87-1.371-1.46-2.087-1.79q-1.074-.48-3.303-.48h-2.351v13.05c0 2.02.095 3.44.284 4.25q.284 1.215 1.094 1.95c.541.48 1.54.92 2.999 1.29v2.68h-21.276v-2.68c1.459-.37 2.451-.81 2.978-1.29.527-.49.885-1.13 1.074-1.93.189-.79.284-2.22.284-4.27v-34.94c0-2.05-.088-3.48-.263-4.27-.176-.8-.534-1.44-1.074-1.93-.541-.48-1.54-.93-2.999-1.34Zm-90 0h39.189v12.89h-5.552c-.891-2.57-1.648-4.31-2.269-5.21a7.3 7.3 0 0 0-2.229-2.15c-.865-.53-2.337-.79-4.418-.79h-7.822v20.63h5.188c1.27 0 2.249-.2 2.938-.59s1.257-1.04 1.702-1.96.818-2.22 1.115-3.89h4.579v17.67h-4.579c-.324-1.71-.716-3.02-1.175-3.96-.46-.93-1.027-1.58-1.703-1.96q-1.013-.57-2.877-.57h-5.188v15.04c0 2.1.109 3.57.325 4.39.216.83.641 1.49 1.276 1.99q.952.75 3.303 1.11v2.68h-21.803v-2.68c1.432-.35 2.411-.77 2.938-1.27q.79-.75 1.094-1.95c.203-.79.304-2.23.304-4.31v-34.9c0-2.05-.088-3.48-.263-4.27-.176-.8-.534-1.44-1.074-1.93-.541-.48-1.54-.93-2.999-1.34Zm-46 0h21.276v2.67c-1.432.38-2.411.81-2.938 1.3q-.79.735-1.114 1.95c-.216.81-.325 2.21-.325 4.21v40.37h7.863q2.553 0 4.154-.96c1.067-.63 1.986-1.7 2.756-3.2s1.533-3.96 2.289-7.39h5.553l-.892 16.37h-38.622v-2.68c1.459-.37 2.451-.81 2.978-1.29q.79-.735 1.074-1.95t.284-4.29v-34.9c0-2.05-.088-3.48-.263-4.27-.176-.8-.534-1.44-1.074-1.93-.541-.48-1.54-.93-2.999-1.34Zm113.831-.65q3.607 0 6.889.39c2.189.25 4.688.71 7.498 1.35v11.76h-5.552c-.73-3.06-1.811-5.28-3.243-6.67s-3.498-2.09-6.2-2.09c-2.432 0-4.384.64-5.857 1.91q-2.208 1.905-2.208 5.19c0 1.56.304 2.92.912 4.07q.911 1.725 3.059 3.36 2.148 1.65 6.242 3.75c3.323 1.73 5.937 3.43 7.842 5.09q2.856 2.49 4.215 5.43c.905 1.96 1.357 4.23 1.357 6.83 0 3.32-.77 6.2-2.31 8.65-1.54 2.44-3.782 4.32-6.727 5.63s-6.35 1.97-10.213 1.97c-2.756 0-5.627-.16-8.612-.47s-5.789-.76-8.41-1.36v-12.48h5.552c.676 3.22 1.804 5.61 3.385 7.2q2.37 2.37 6.95 2.37 4.012 0 6.261-2.07t2.25-5.88c0-2.48-.723-4.56-2.169-6.22-1.445-1.66-3.951-3.38-7.517-5.17-2.972-1.45-5.451-2.96-7.437-4.51-1.986-1.56-3.553-3.36-4.701-5.41-1.149-2.06-1.723-4.41-1.723-7.06 0-3.32.824-6.14 2.472-8.47 1.649-2.32 4.033-4.08 7.154-5.29q4.68-1.8 10.841-1.8"/><text x="377.441" y="1988.82" fill-opacity="0" font-family="Arial,Arial_MSFontService,sans-serif" font-size="56.617">𝐋𝐅𝐒𝐑</text><path fill="#fff" fill-rule="evenodd" d="M586.932 1992.64q-3.069 0-4.617 2.07c-1.033 1.38-1.549 3.37-1.549 5.98 0 2.83.521 4.97 1.564 6.4 1.042 1.43 2.596 2.14 4.661 2.14 2.006 0 3.525-.7 4.557-2.11s1.549-3.39 1.549-5.93q0-3.99-1.668-6.27t-4.497-2.28m.149-18.34c-1.966 0-3.451.59-4.453 1.78s-1.505 2.95-1.505 5.27c0 2.61.512 4.6 1.534 5.98q1.534 2.07 4.483 2.07 2.89 0 4.334-1.95c.963-1.3 1.444-3.16 1.444-5.56q0-3.69-1.504-5.64t-4.333-1.95m.148-3.34c4.826 0 8.469.88 10.932 2.65 2.462 1.77 3.693 4.27 3.693 7.51 0 2.14-.561 4.02-1.683 5.63-1.122 1.6-2.815 2.9-5.078 3.87l.059.39q3.456 1.335 5.228 3.87c1.181 1.69 1.772 3.7 1.772 6.04q0 3.525-1.877 6.15-1.876 2.64-5.406 4.08c-2.353.97-5.108 1.45-8.265 1.45-2.998 0-5.615-.44-7.848-1.33q-3.351-1.32-5.198-3.87t-1.847-6c0-2.24.576-4.19 1.728-5.84q1.728-2.475 5.391-4.08l-.06-.39c-4.388-1.9-6.582-5.07-6.582-9.5q0-3.03 1.891-5.46c1.261-1.62 3.053-2.89 5.377-3.8s4.914-1.37 7.773-1.37"/><text x="571.711" y="2007.39" fill-opacity="0" font-family="Arial,Arial_MSFontService,sans-serif" font-size="41.64">𝟖</text><path fill="#d74514" d="M1001 1612h507v463h-507z"/><text fill="#fff" font-family="Microsoft YaHei,Microsoft YaHei_MSFontService,sans-serif" font-size="83" font-weight="700" transform="translate(1234.66 1774)">J<tspan x="-9.167" y="198">K</tspan></text><path d="M753.5 1971.083h205.955v-9.167H753.5Zm201.372 18.333 45.833-22.916-45.833-22.917ZM1508.5 1838.92h651.12v9.16H1508.5Zm646.54-18.34 45.83 22.92-45.83 22.92Z"/><path fill-rule="evenodd" d="M1611.45 1750.55c-2.76 0-5.23 1.11-7.42 3.34s-3.91 5.24-5.17 9.02c-1.25 3.78-1.88 7.55-1.88 11.31 0 2.81.38 4.91 1.15 6.3s2.06 2.09 3.87 2.09c.84 0 1.69-.19 2.56-.55.86-.37 1.76-.95 2.69-1.76s1.85-1.8 2.76-2.96q1.35-1.74 2.49-3.51c.76-1.17 1.46-2.56 2.11-4.17s1.2-3.55 1.66-5.82l.36-1.74c.41-1.95.61-3.78.61-5.51 0-2.11-.44-3.64-1.34-4.6-.89-.96-2.37-1.44-4.45-1.44m16.98-21.72h2.39l-10.09 44.86c-.6 2.65-.89 4.65-.89 6 0 1.08.17 1.86.52 2.35s.91.73 1.66.73c.82 0 1.68-.33 2.6-.99.92-.67 2.21-1.93 3.89-3.79l2.31 2.27c-2.49 2.62-4.58 4.47-6.28 5.55s-3.54 1.62-5.51 1.62c-1.68 0-3.02-.55-4.02-1.66s-1.5-2.58-1.5-4.42c0-1.49.31-3.07.94-4.74l-.53-.16c-2.59 3.78-5.05 6.55-7.38 8.3-2.32 1.76-4.78 2.64-7.37 2.64-2.97 0-5.28-1.12-6.91-3.36-1.64-2.25-2.45-5.4-2.45-9.45 0-4.64.91-9.11 2.73-13.39s4.33-7.66 7.52-10.13c3.19-2.48 6.74-3.71 10.66-3.71 1.65 0 3.17.17 4.56.5 1.39.34 2.81.93 4.27 1.77l2.11-9.36c.22-.9.41-1.88.57-2.96s.24-2.03.24-2.84-.15-1.43-.45-1.84c-.29-.42-.72-.73-1.27-.92-.56-.18-1.55-.32-2.98-.4l.49-2.11Z"/><text x="1589.81" y="1780.1" fill-opacity="0" font-family="Arial,Arial_MSFontService,sans-serif" font-size="58.602">𝑑</text><path fill-rule="evenodd" d="M1650.76 1767.94c-1.39 0-2.55.36-3.48 1.09-.93.72-1.67 1.79-2.22 3.19s-.93 3.1-1.16 5.12c-.23 2.01-.34 4.3-.34 6.86 0 2.96.14 5.52.43 7.67.29 2.16.73 3.93 1.34 5.32.6 1.39 1.36 2.41 2.28 3.07.91.65 2 .98 3.27.98 1.2 0 2.24-.31 3.13-.92q1.335-.93 2.22-2.88c.59-1.3 1.03-2.94 1.33-4.94.29-2 .44-4.35.44-7.07 0-3.06-.16-5.69-.49-7.9q-.495-3.3-1.38-5.43-.9-2.13-2.25-3.15c-.91-.67-1.94-1.01-3.12-1.01m.12-2.89c2.37 0 4.39.44 6.07 1.33q2.505 1.32 4.11 3.78c1.06 1.64 1.84 3.64 2.33 6q.75 3.555.75 8.01c0 6.62-1.17 11.62-3.52 15-2.34 3.39-5.74 5.08-10.18 5.08-4.41 0-7.69-1.6-9.83-4.8-2.15-3.19-3.22-8.04-3.22-14.53 0-3.4.33-6.33 1-8.82.66-2.48 1.6-4.54 2.8-6.18s2.62-2.86 4.27-3.66c1.65-.81 3.46-1.21 5.42-1.21"/><text x="1637.39" y="1799.35" fill-opacity="0" font-family="Arial,Arial_MSFontService,sans-serif" font-size="39.197">0</text><path fill-rule="evenodd" d="M1697.36 1750.55c-2.75 0-5.23 1.11-7.42 3.34-2.18 2.23-3.91 5.24-5.16 9.02q-1.89 5.67-1.89 11.31c0 2.81.39 4.91 1.16 6.3s2.06 2.09 3.87 2.09c.84 0 1.69-.19 2.55-.55.87-.37 1.76-.95 2.7-1.76.93-.81 1.85-1.8 2.75-2.96.91-1.16 1.74-2.33 2.5-3.51q1.125-1.755 2.1-4.17c.65-1.61 1.2-3.55 1.66-5.82l.37-1.74c.4-1.95.61-3.78.61-5.51 0-2.11-.45-3.64-1.34-4.6s-2.38-1.44-4.46-1.44m16.98-21.72h2.39l-10.09 44.86c-.59 2.65-.89 4.65-.89 6 0 1.08.18 1.86.53 2.35s.9.73 1.66.73c.81 0 1.67-.33 2.59-.99.92-.67 2.22-1.93 3.89-3.79l2.31 2.27c-2.48 2.62-4.58 4.47-6.28 5.55s-3.54 1.62-5.51 1.62c-1.68 0-3.01-.55-4.01-1.66s-1.5-2.58-1.5-4.42q0-2.235.93-4.74l-.53-.16c-2.59 3.78-5.05 6.55-7.37 8.3-2.33 1.76-4.78 2.64-7.38 2.64-2.97 0-5.27-1.12-6.91-3.36-1.63-2.25-2.45-5.4-2.45-9.45 0-4.64.91-9.11 2.74-13.39 1.82-4.28 4.33-7.66 7.51-10.13 3.19-2.48 6.74-3.71 10.66-3.71 1.65 0 3.17.17 4.56.5 1.39.34 2.82.93 4.28 1.77l2.1-9.36c.22-.9.41-1.88.57-2.96s.24-2.03.24-2.84-.14-1.43-.44-1.84c-.3-.42-.72-.73-1.28-.92-.55-.18-1.54-.32-2.98-.4l.49-2.11Z"/><text x="1675.72" y="1780.1" fill-opacity="0" font-family="Arial,Arial_MSFontService,sans-serif" font-size="58.602">𝑑</text><path fill-rule="evenodd" d="M1737.22 1765.26h1.82q-.06 1.635-.09 2.94c-.02.86-.04 1.7-.05 2.51-.01.82-.01 1.62-.01 2.41v22.64q0 .93.06 1.59c.04.45.1.83.19 1.14.09.3.21.57.36.79.15.21.32.4.52.56.24.24.56.42.95.55.4.13.91.24 1.52.33q.93.135 2.22.21c.86.05 1.9.08 3.11.1v2.59h-23.62v-2.59c1.17-.04 2.17-.08 2.98-.13.82-.05 1.51-.12 2.09-.21q.855-.135 1.38-.3c.35-.11.65-.24.91-.4.28-.18.52-.37.72-.58.19-.21.35-.47.47-.79s.22-.7.28-1.16c.07-.46.11-1.02.11-1.7v-21.35c0-.78-.15-1.33-.45-1.64-.3-.32-.72-.48-1.28-.48-.61 0-1.53.32-2.74.95-1.21.64-2.78 1.58-4.7 2.83-.26-.45-.5-.91-.72-1.37-.22-.45-.45-.92-.68-1.4 2.46-1.35 4.89-2.69 7.31-4.03 2.41-1.34 4.86-2.68 7.34-4.01"/><text x="1722.57" y="1798.83" fill-opacity="0" font-family="Arial,Arial_MSFontService,sans-serif" font-size="38.363">1</text><path fill-rule="evenodd" d="M1781.37 1750.55c-2.75 0-5.22 1.11-7.41 3.34s-3.91 5.24-5.17 9.02-1.88 7.55-1.88 11.31c0 2.81.38 4.91 1.15 6.3s2.06 2.09 3.87 2.09c.84 0 1.69-.19 2.55-.55.87-.37 1.77-.95 2.7-1.76s1.85-1.8 2.76-2.96q1.35-1.74 2.49-3.51c.75-1.17 1.46-2.56 2.11-4.17.64-1.61 1.2-3.55 1.66-5.82l.36-1.74c.41-1.95.61-3.78.61-5.51 0-2.11-.45-3.64-1.34-4.6s-2.38-1.44-4.46-1.44m16.98-21.72h2.4l-10.1 44.86c-.59 2.65-.89 4.65-.89 6 0 1.08.18 1.86.53 2.35s.91.73 1.66.73c.81 0 1.68-.33 2.6-.99.91-.67 2.21-1.93 3.89-3.79l2.31 2.27c-2.49 2.62-4.58 4.47-6.29 5.55-1.7 1.08-3.54 1.62-5.51 1.62-1.67 0-3.01-.55-4.01-1.66s-1.5-2.58-1.5-4.42q0-2.235.93-4.74l-.52-.16c-2.6 3.78-5.06 6.55-7.38 8.3q-3.48 2.64-7.38 2.64c-2.97 0-5.27-1.12-6.91-3.36-1.63-2.25-2.45-5.4-2.45-9.45 0-4.64.91-9.11 2.74-13.39 1.82-4.28 4.33-7.66 7.52-10.13 3.18-2.48 6.74-3.71 10.65-3.71 1.65 0 3.17.17 4.56.5 1.4.34 2.82.93 4.28 1.77l2.11-9.36c.21-.9.4-1.88.56-2.96.17-1.08.25-2.03.25-2.84s-.15-1.43-.45-1.84c-.3-.42-.72-.73-1.27-.92-.56-.18-1.55-.32-2.98-.4l.48-2.11Z"/><text x="1759.73" y="1780.1" fill-opacity="0" font-family="Arial,Arial_MSFontService,sans-serif" font-size="58.602">𝑑</text><path fill-rule="evenodd" d="M1820.81 1765.05c2.07 0 3.83.24 5.29.7 1.46.47 2.64 1.1 3.56 1.89.91.8 1.57 1.75 1.98 2.86.4 1.12.61 2.32.61 3.61 0 .77-.06 1.49-.17 2.16-.1.66-.29 1.32-.56 1.96-.27.65-.62 1.3-1.06 1.95-.44.66-.98 1.35-1.64 2.09-.49.63-1.14 1.37-1.93 2.2-.8.84-1.67 1.73-2.61 2.68-.94.96-1.93 1.95-2.96 2.98a171 171 0 0 0-3.01 3.07c-.97 1.01-1.87 2-2.68 2.95-.82.95-1.48 1.83-2 2.62h11.02c.94 0 1.68-.04 2.24-.1.55-.07 1.01-.23 1.38-.47.37-.23.68-.6.94-1.08.26-.49.56-1.16.89-2.01h2.77c-.1 1.41-.19 2.83-.28 4.26s-.18 2.84-.28 4.25h-25.23v-1.54c.48-1.08 1.03-2.13 1.67-3.18a42 42 0 0 1 2.14-3.17c.8-1.07 1.7-2.18 2.71-3.32 1.02-1.14 2.14-2.33 3.37-3.56 1.87-1.87 3.38-3.46 4.56-4.78 1.17-1.32 2.09-2.5 2.77-3.53.67-1.03 1.13-1.98 1.38-2.86.25-.87.37-1.81.37-2.8 0-1.01-.14-1.94-.43-2.8-.29-.85-.7-1.58-1.23-2.17-.54-.6-1.22-1.06-2.05-1.4-.82-.34-1.77-.51-2.84-.51-1.85 0-3.4.5-4.65 1.51-1.25 1-2.22 2.45-2.92 4.36h-3.9v-5.81c2.54-1.05 4.88-1.82 7.02-2.29q3.195-.72 5.76-.72"/><text x="1807.08" y="1798.8" fill-opacity="0" font-family="Arial,Arial_MSFontService,sans-serif" font-size="38.572">2</text><path fill-rule="evenodd" d="M1867.29 1750.55c-2.76 0-5.23 1.11-7.42 3.34s-3.91 5.24-5.17 9.02c-1.25 3.78-1.88 7.55-1.88 11.31 0 2.81.39 4.91 1.16 6.3s2.06 2.09 3.87 2.09c.83 0 1.68-.19 2.55-.55.86-.37 1.76-.95 2.69-1.76.94-.81 1.85-1.8 2.76-2.96q1.365-1.74 2.49-3.51c.76-1.17 1.46-2.56 2.11-4.17s1.2-3.55 1.66-5.82l.37-1.74c.4-1.95.6-3.78.6-5.51 0-2.11-.44-3.64-1.33-4.6-.9-.96-2.38-1.44-4.46-1.44m16.98-21.72h2.39l-10.09 44.86c-.6 2.65-.89 4.65-.89 6 0 1.08.17 1.86.52 2.35.36.49.91.73 1.67.73.81 0 1.67-.33 2.59-.99.92-.67 2.22-1.93 3.89-3.79l2.31 2.27c-2.49 2.62-4.58 4.47-6.28 5.55s-3.54 1.62-5.51 1.62c-1.68 0-3.02-.55-4.02-1.66-.99-1.11-1.49-2.58-1.49-4.42q0-2.235.93-4.74l-.53-.16c-2.59 3.78-5.05 6.55-7.38 8.3-2.32 1.76-4.78 2.64-7.37 2.64-2.97 0-5.28-1.12-6.91-3.36-1.64-2.25-2.45-5.4-2.45-9.45 0-4.64.91-9.11 2.73-13.39 1.83-4.28 4.33-7.66 7.52-10.13 3.19-2.48 6.74-3.71 10.66-3.71 1.65 0 3.17.17 4.56.5 1.39.34 2.82.93 4.27 1.77l2.11-9.36c.22-.9.41-1.88.57-2.96s.24-2.03.24-2.84-.15-1.43-.44-1.84c-.3-.42-.73-.73-1.28-.92-.55-.18-1.55-.32-2.98-.4l.49-2.11Z"/><text x="1845.65" y="1780.1" fill-opacity="0" font-family="Arial,Arial_MSFontService,sans-serif" font-size="58.602">𝑑</text><path fill-rule="evenodd" d="M1906.67 1765.05c1.58 0 3.07.17 4.45.51s2.58.85 3.59 1.53c1.01.69 1.8 1.54 2.37 2.56.56 1.03.84 2.21.84 3.56 0 1.27-.17 2.4-.53 3.37s-.91 1.86-1.65 2.65c-.75.79-1.66 1.51-2.74 2.16-1.09.65-2.33 1.27-3.74 1.86v.36c1.33.24 2.57.62 3.72 1.15 1.15.52 2.16 1.19 3.02 1.99a8.9 8.9 0 0 1 2.04 2.79q.75 1.575.75 3.48c0 1.59-.3 3.06-.9 4.42-.59 1.36-1.48 2.54-2.68 3.53-1.19 1-2.66 1.77-4.4 2.33-1.75.55-3.8.83-6.14.83-1.85 0-3.72-.18-5.63-.55s-3.71-.85-5.42-1.44v-6.44h3.84c.32.99.7 1.84 1.13 2.55.44.7.95 1.28 1.54 1.73.58.44 1.26.77 2.02.96q1.155.3 2.61.3 3.84 0 5.82-1.83t1.98-5.55c0-2.65-.87-4.65-2.6-6.01-1.74-1.36-4.32-2.04-7.73-2.04h-2.62v-2.86q3.12-.15 5.4-.87c1.52-.49 2.79-1.12 3.8-1.9 1.01-.77 1.77-1.67 2.26-2.71q.75-1.545.75-3.3c0-1.91-.57-3.41-1.7-4.52-1.13-1.1-2.77-1.65-4.91-1.65-1.81 0-3.32.5-4.55 1.49-1.22.99-2.16 2.47-2.81 4.44h-3.78v-5.87c2.34-.99 4.55-1.74 6.62-2.25 2.08-.5 4.07-.76 5.98-.76"/><text x="1893.62" y="1799.25" fill-opacity="0" font-family="Arial,Arial_MSFontService,sans-serif" font-size="39.078">3</text><path fill-rule="evenodd" d="M1953.2 1750.55c-2.75 0-5.22 1.11-7.41 3.34s-3.91 5.24-5.17 9.02q-1.89 5.67-1.89 11.31c0 2.81.39 4.91 1.16 6.3s2.06 2.09 3.87 2.09c.84 0 1.69-.19 2.55-.55.87-.37 1.77-.95 2.7-1.76s1.85-1.8 2.75-2.96c.91-1.16 1.74-2.33 2.5-3.51.75-1.17 1.46-2.56 2.1-4.17.65-1.61 1.21-3.55 1.67-5.82l.36-1.74c.41-1.95.61-3.78.61-5.51 0-2.11-.45-3.64-1.34-4.6s-2.38-1.44-4.46-1.44m16.98-21.72h2.4l-10.1 44.86c-.59 2.65-.89 4.65-.89 6 0 1.08.18 1.86.53 2.35s.9.73 1.66.73c.81 0 1.68-.33 2.59-.99.92-.67 2.22-1.93 3.9-3.79l2.31 2.27c-2.49 2.62-4.58 4.47-6.29 5.55-1.7 1.08-3.54 1.62-5.51 1.62-1.67 0-3.01-.55-4.01-1.66s-1.5-2.58-1.5-4.42q0-2.235.93-4.74l-.52-.16c-2.6 3.78-5.06 6.55-7.38 8.3q-3.48 2.64-7.38 2.64c-2.97 0-5.27-1.12-6.91-3.36-1.63-2.25-2.45-5.4-2.45-9.45 0-4.64.91-9.11 2.74-13.39 1.82-4.28 4.33-7.66 7.51-10.13 3.19-2.48 6.75-3.71 10.66-3.71 1.65 0 3.17.17 4.56.5 1.39.34 2.82.93 4.28 1.77l2.11-9.36c.21-.9.4-1.88.56-2.96.17-1.08.25-2.03.25-2.84s-.15-1.43-.45-1.84c-.3-.42-.72-.73-1.28-.92-.55-.18-1.54-.32-2.97-.4l.48-2.11Z"/><text x="1931.56" y="1780.1" fill-opacity="0" font-family="Arial,Arial_MSFontService,sans-serif" font-size="58.602">𝑑</text><path fill-rule="evenodd" d="M1994.04 1772.44q-2.865 4.14-5.7 8.22c-1.9 2.72-3.81 5.45-5.74 8.19v.36h11.44v-5.99c0-.67.01-1.51.03-2.5s.04-2 .07-3.02a201 201 0 0 1 .23-5.26Zm.86-6.97h4.74v23.74h.54q1.215 0 1.98-.12c.5-.08.91-.24 1.22-.49s.56-.6.77-1.04c.21-.45.43-1.03.67-1.75h2.53c-.06 1.1-.12 2.18-.19 3.25s-.13 2.16-.19 3.28h-7.33v3.9c0 1.15.02 2.04.07 2.68.05.63.2 1.13.45 1.49s.62.62 1.1.8q.735.27 2.04.63v1.78h-12.86v-1.78c.59-.16 1.1-.31 1.51-.43q.63-.195 1.05-.45c.28-.17.48-.37.61-.6s.23-.51.3-.86.11-.78.12-1.31c0-.53.01-1.18.01-1.95v-3.9h-16.77v-2.36c2.96-4.11 5.9-8.19 8.82-12.25s5.86-8.15 8.81-12.26"/><text x="1977.27" y="1798.86" fill-opacity="0" font-family="Arial,Arial_MSFontService,sans-serif" font-size="38.155">4</text><path fill-rule="evenodd" d="M2087.07 1757.84c1.41 0 2.58.5 3.53 1.48.94.99 1.42 2.24 1.42 3.75 0 1.52-.48 2.76-1.42 3.75-.95.99-2.12 1.48-3.53 1.48-1.4 0-2.58-.49-3.52-1.48-.95-.99-1.42-2.23-1.42-3.75 0-1.51.47-2.76 1.42-3.75.94-.98 2.12-1.48 3.52-1.48m-24.56 0c1.41 0 2.58.5 3.53 1.48.94.99 1.42 2.24 1.42 3.75 0 1.52-.48 2.76-1.42 3.75-.95.99-2.12 1.48-3.53 1.48-1.4 0-2.58-.49-3.52-1.48-.95-.99-1.42-2.23-1.42-3.75 0-1.51.47-2.76 1.42-3.75.94-.98 2.12-1.48 3.52-1.48m-24.56 0c1.41 0 2.58.5 3.53 1.48.95.99 1.42 2.24 1.42 3.75 0 1.52-.47 2.76-1.42 3.75s-2.12 1.48-3.53 1.48c-1.4 0-2.58-.49-3.52-1.48-.95-.99-1.42-2.23-1.42-3.75 0-1.51.47-2.76 1.42-3.75.94-.98 2.12-1.48 3.52-1.48"/><text x="2033.01" y="1766.99" fill-opacity="0" font-family="Arial,Arial_MSFontService,sans-serif" font-size="10.456">⋯</text><path fill="#d74514" d="M2200 141h181v1934h-181z"/><path d="m2381.6 1103.92 541.14 12.32-.21 9.17-541.13-12.33Zm536.98-6.11 45.3 23.96-46.35 21.86Z"/><path fill-rule="evenodd" d="M2440.59 1015.67c-2.78 0-5.28 1.12-7.5 3.37-2.21 2.24-3.94 5.25-5.19 9.01-1.24 3.77-1.86 7.54-1.86 11.29 0 2.81.39 4.91 1.16 6.3s2.06 2.09 3.87 2.09c1.78 0 3.53-.77 5.24-2.31 1.72-1.54 3.49-3.73 5.31-6.59 1.83-2.85 3.12-6.14 3.87-9.86l.37-1.75c.24-1.1.4-2.06.48-2.87.09-.81.13-1.69.13-2.64 0-2.08-.45-3.61-1.34-4.58s-2.41-1.46-4.54-1.46m-.81-3.2c1.75 0 3.4.2 4.92.59 1.53.39 3.1 1.09 4.72 2.09l3.73-2.68 2.6.65-5.96 25.69c-.6 2.57-.89 4.57-.89 6 0 1.08.17 1.87.52 2.35.36.49.91.73 1.67.73.81 0 1.67-.33 2.59-.99s2.22-1.93 3.89-3.79l2.31 2.27c-2.43 2.59-4.5 4.44-6.22 5.53-1.72 1.1-3.57 1.64-5.57 1.64-1.68 0-3.02-.55-4.02-1.66s-1.49-2.58-1.49-4.42q0-2.22.93-4.74l-.53-.16q-3.885 5.67-7.38 8.31c-2.32 1.75-4.78 2.63-7.37 2.63-2.97 0-5.28-1.12-6.91-3.36-1.64-2.24-2.45-5.39-2.45-9.44 0-4.65.91-9.12 2.73-13.4 1.83-4.28 4.33-7.66 7.52-10.13s6.74-3.71 10.66-3.71"/><text x="2418.87" y="1047.54" fill-opacity="0" font-family="Arial,Arial_MSFontService,sans-serif" font-size="40.081">𝑎</text><path fill-rule="evenodd" d="M2478.11 1033.07c-1.39 0-2.55.36-3.49 1.08-.93.73-1.67 1.79-2.22 3.19-.54 1.4-.93 3.11-1.16 5.12-.23 2.02-.34 4.31-.34 6.87 0 2.96.14 5.51.43 7.67.29 2.15.74 3.92 1.34 5.31.61 1.39 1.37 2.42 2.28 3.07.91.66 2.01.99 3.28.99q1.785 0 3.12-.93c.9-.61 1.64-1.57 2.22-2.87.59-1.3 1.03-2.95 1.33-4.95.3-1.99.45-4.35.45-7.07 0-3.06-.17-5.69-.5-7.89-.32-2.21-.79-4.02-1.38-5.44-.6-1.42-1.35-2.47-2.25-3.14-.9-.68-1.94-1.01-3.11-1.01m.12-2.89q3.54 0 6.06 1.32 2.52 1.335 4.11 3.78c1.06 1.64 1.84 3.64 2.34 6.01.49 2.36.74 5.03.74 8.01q0 9.915-3.51 15c-2.35 3.38-5.74 5.07-10.19 5.07-4.41 0-7.68-1.59-9.83-4.79-2.14-3.2-3.22-8.04-3.22-14.54 0-3.39.34-6.33 1-8.81.67-2.49 1.6-4.55 2.8-6.18 1.2-1.64 2.63-2.86 4.28-3.67 1.64-.8 3.45-1.2 5.42-1.2"/><text x="2464.73" y="1064.47" fill-opacity="0" font-family="Arial,Arial_MSFontService,sans-serif" font-size="39.197">0</text><path fill-rule="evenodd" d="M2527.05 1017.25c-1.29 0-2.57.42-3.83 1.24-1.25.82-2.65 2.19-4.19 4.09-1.54 1.91-2.8 3.86-3.77 5.86s-1.8 4.55-2.47 7.66l-.37 1.7c-.4 1.89-.6 3.73-.6 5.51 0 2.14.46 3.68 1.39 4.62.94.95 2.48 1.42 4.64 1.42 1.11 0 2.17-.18 3.17-.55q1.5-.54 3.06-1.8c1.04-.84 2.02-1.94 2.95-3.3.94-1.37 1.79-3.05 2.58-5.05.78-2 1.39-4.14 1.82-6.42s.65-4.47.65-6.55c0-2.81-.4-4.91-1.2-6.32-.79-1.4-2.07-2.11-3.83-2.11m-7.09-23.299h2.35l-7.13 28.369.53.16c2.62-3.51 5.08-6.05 7.37-7.62 2.3-1.56 4.6-2.35 6.89-2.35 2.95 0 5.24 1.12 6.87 3.37 1.64 2.24 2.45 5.4 2.45 9.48 0 4.46-.89 8.84-2.69 13.15s-4.29 7.73-7.48 10.25c-3.19 2.53-6.75 3.79-10.7 3.79-3.59 0-6.78-.87-9.56-2.63l-3.73 2.63-2.59-.65 10.49-46.32q.93-4.126.93-5.996c0-1.135-.34-1.932-1.03-2.391s-1.92-.716-3.71-.77l.49-2.108Z"/><text x="2502.54" y="1045.23" fill-opacity="0" font-family="Arial,Arial_MSFontService,sans-serif" font-size="58.602">𝑏</text><path fill-rule="evenodd" d="M2559.09 1030.39h1.81c-.04 1.09-.07 2.07-.09 2.93s-.03 1.7-.04 2.52c-.01.81-.02 1.61-.02 2.41v22.64q0 .915.06 1.59c.04.45.11.82.2 1.13s.2.57.35.79.33.41.53.57c.23.23.55.42.95.55s.9.24 1.52.32q.915.135 2.22.21c.86.05 1.9.09 3.11.11v2.59h-23.62v-2.59c1.17-.04 2.16-.09 2.98-.14.81-.05 1.51-.12 2.08-.21a9 9 0 0 0 1.39-.29c.34-.11.65-.25.91-.41.27-.17.51-.37.71-.58.2-.2.36-.47.48-.79.12-.31.21-.7.28-1.16.07-.45.1-1.02.1-1.69v-21.36c0-.78-.14-1.32-.44-1.64s-.73-.48-1.28-.48c-.62 0-1.53.32-2.74.96-1.21.63-2.78 1.58-4.71 2.83-.26-.46-.5-.92-.71-1.37-.22-.46-.45-.93-.69-1.4 2.46-1.35 4.9-2.7 7.31-4.04 2.42-1.34 4.86-2.67 7.35-4"/><text x="2544.43" y="1063.95" fill-opacity="0" font-family="Arial,Arial_MSFontService,sans-serif" font-size="38.363">1</text><path fill-rule="evenodd" d="M2604.17 1012.51c3.6 0 6.9.41 9.93 1.22l-1.99 9.16h-4.25c-.05-2.06-.22-3.54-.51-4.46-.28-.92-.74-1.61-1.37-2.07q-.96-.69-2.7-.69c-2.73 0-5.18 1.09-7.36 3.27-2.17 2.17-3.95 5.25-5.33 9.24-1.37 3.98-2.06 7.81-2.06 11.49 0 2.75.54 4.8 1.62 6.14 1.08 1.33 2.7 2 4.86 2 2.46 0 4.59-.46 6.39-1.4 1.79-.93 3.69-2.39 5.69-4.39l2.47 2.47c-2.54 2.81-5.1 4.86-7.68 6.16s-5.35 1.94-8.33 1.94c-3.91 0-6.89-1.16-8.91-3.48-2.03-2.33-3.04-5.7-3.04-10.13 0-2.89.54-6.07 1.62-9.53q1.62-5.19 4.74-9.12c2.08-2.62 4.51-4.58 7.3-5.87q4.17-1.95 8.91-1.95"/><text x="2581.6" y="1047.58" fill-opacity="0" font-family="Arial,Arial_MSFontService,sans-serif" font-size="40.081">𝑐</text><path fill-rule="evenodd" d="M2630.92 1030.18c2.07 0 3.83.23 5.29.7 1.46.46 2.64 1.09 3.56 1.89a6.9 6.9 0 0 1 1.98 2.86c.4 1.11.61 2.31.61 3.6 0 .78-.06 1.5-.17 2.16-.11.67-.29 1.32-.56 1.97-.27.64-.62 1.29-1.06 1.95-.44.65-.98 1.35-1.64 2.08-.49.64-1.14 1.37-1.93 2.21-.8.83-1.67 1.72-2.61 2.68-.94.95-1.93 1.94-2.96 2.98-1.04 1.03-2.04 2.05-3.01 3.06-.97 1.02-1.87 2-2.68 2.95-.82.96-1.48 1.83-2 2.62h11.02c.94 0 1.68-.03 2.24-.1.55-.07 1.01-.22 1.38-.46s.68-.6.94-1.09.56-1.16.89-2.01h2.77c-.1 1.41-.19 2.83-.28 4.26s-.18 2.85-.28 4.26h-25.23v-1.55c.48-1.07 1.03-2.13 1.67-3.17.63-1.05 1.35-2.1 2.14-3.17.8-1.08 1.7-2.18 2.71-3.33 1.01-1.14 2.14-2.32 3.37-3.56 1.86-1.86 3.38-3.46 4.56-4.78 1.17-1.32 2.09-2.49 2.77-3.53q1.005-1.545 1.38-2.85c.25-.88.37-1.81.37-2.8 0-1.02-.14-1.95-.43-2.8-.29-.86-.7-1.58-1.24-2.18-.53-.59-1.21-1.06-2.04-1.4-.82-.34-1.77-.5-2.84-.5q-2.775 0-4.65 1.5c-1.25 1-2.22 2.46-2.92 4.36h-3.9v-5.81c2.54-1.05 4.88-1.81 7.02-2.29 2.13-.48 4.05-.71 5.76-.71"/><text x="2617.19" y="1063.93" fill-opacity="0" font-family="Arial,Arial_MSFontService,sans-serif" font-size="38.572">2</text><path fill-rule="evenodd" d="M2677.4 1015.67c-2.76 0-5.23 1.12-7.42 3.35s-3.91 5.23-5.17 9.01c-1.25 3.79-1.88 7.56-1.88 11.31 0 2.81.38 4.91 1.15 6.3s2.06 2.09 3.88 2.09c.83 0 1.68-.18 2.55-.55.86-.36 1.76-.95 2.69-1.76.94-.81 1.85-1.8 2.76-2.96.9-1.16 1.74-2.33 2.49-3.5.76-1.18 1.46-2.57 2.11-4.18s1.2-3.54 1.66-5.81l.37-1.75c.4-1.94.6-3.78.6-5.51 0-2.11-.44-3.64-1.33-4.6-.9-.96-2.38-1.44-4.46-1.44m16.98-21.719h2.39l-10.09 44.859c-.6 2.65-.89 4.65-.89 6 0 1.08.17 1.87.52 2.35.36.49.91.73 1.67.73.81 0 1.67-.33 2.59-.99s2.21-1.93 3.89-3.79l2.31 2.27c-2.49 2.62-4.58 4.47-6.28 5.55s-3.54 1.62-5.51 1.62c-1.68 0-3.02-.55-4.02-1.66s-1.5-2.58-1.5-4.42c0-1.48.32-3.06.94-4.74l-.53-.16q-3.885 5.67-7.38 8.31c-2.32 1.75-4.78 2.63-7.37 2.63-2.97 0-5.28-1.12-6.91-3.36-1.64-2.24-2.45-5.39-2.45-9.44 0-4.65.91-9.12 2.73-13.4 1.83-4.28 4.33-7.66 7.52-10.13s6.74-3.71 10.66-3.71q2.475 0 4.56.51c1.39.34 2.81.92 4.27 1.76l2.11-9.36c.22-.89.41-1.88.57-2.96s.24-2.03.24-2.836c0-.811-.15-1.425-.44-1.844-.3-.419-.73-.723-1.28-.912s-1.55-.324-2.98-.405l.49-2.108Z"/><text x="2655.76" y="1045.23" fill-opacity="0" font-family="Arial,Arial_MSFontService,sans-serif" font-size="58.602">𝑑</text><path fill-rule="evenodd" d="M2716.78 1030.18c1.58 0 3.07.17 4.45.5 1.38.34 2.57.85 3.59 1.54 1.01.68 1.8 1.54 2.37 2.56.56 1.02.84 2.21.84 3.56 0 1.27-.17 2.39-.53 3.36-.36.98-.91 1.86-1.66 2.65-.74.8-1.65 1.52-2.74 2.16-1.08.65-2.32 1.27-3.73 1.87v.35c1.33.24 2.57.62 3.72 1.15s2.16 1.19 3.02 2c.87.8 1.55 1.73 2.04 2.78q.75 1.575.75 3.48c0 1.59-.3 3.07-.9 4.43-.59 1.36-1.49 2.53-2.68 3.53-1.19.99-2.66 1.76-4.4 2.32-1.75.56-3.8.83-6.14.83-1.85 0-3.72-.18-5.63-.55a38 38 0 0 1-5.42-1.44v-6.43h3.84c.32.99.7 1.84 1.13 2.54.44.71.95 1.28 1.54 1.73.58.45 1.26.77 2.02.97q1.155.3 2.61.3c2.56 0 4.5-.61 5.82-1.84q1.98-1.83 1.98-5.55c0-2.64-.87-4.64-2.6-6-1.74-1.36-4.32-2.04-7.73-2.04h-2.62v-2.86c2.08-.1 3.88-.39 5.4-.88s2.79-1.12 3.8-1.89c1.01-.78 1.77-1.68 2.26-2.71.5-1.04.75-2.14.75-3.31 0-1.91-.57-3.41-1.7-4.51s-2.77-1.65-4.91-1.65c-1.81 0-3.33.49-4.55 1.48-1.22 1-2.16 2.48-2.81 4.44h-3.78v-5.87c2.34-.99 4.55-1.74 6.62-2.24 2.08-.51 4.07-.76 5.98-.76"/><text x="2703.73" y="1064.37" fill-opacity="0" font-family="Arial,Arial_MSFontService,sans-serif" font-size="39.078">3</text><path fill-rule="evenodd" d="M2763.39 1015.67c-2.78 0-5.28 1.12-7.49 3.37-2.22 2.24-3.95 5.25-5.19 9.01-1.24 3.77-1.87 7.54-1.87 11.29 0 2.81.39 4.91 1.16 6.3s2.06 2.09 3.87 2.09q2.67 0 5.25-2.31c1.71-1.54 3.48-3.73 5.31-6.59 1.82-2.85 3.11-6.14 3.87-9.86l.36-1.75c.25-1.1.41-2.06.49-2.87q.12-1.215.12-2.64c0-2.08-.45-3.61-1.34-4.58s-2.4-1.46-4.54-1.46m-.81-3.2c1.76 0 3.4.2 4.93.59 1.52.39 3.1 1.09 4.72 2.09l3.73-2.68 2.59.65-5.96 25.69c-.59 2.57-.89 4.57-.89 6 0 1.08.18 1.87.53 2.35.35.49.9.73 1.66.73.81 0 1.68-.33 2.59-.99.92-.66 2.22-1.93 3.89-3.79l2.31 2.27c-2.43 2.59-4.5 4.44-6.22 5.53-1.71 1.1-3.57 1.64-5.57 1.64-1.67 0-3.01-.55-4.01-1.66s-1.5-2.58-1.5-4.42q0-2.22.93-4.74l-.53-.16c-2.59 3.78-5.05 6.55-7.37 8.31-2.32 1.75-4.78 2.63-7.38 2.63-2.97 0-5.27-1.12-6.91-3.36-1.63-2.24-2.45-5.39-2.45-9.44 0-4.65.91-9.12 2.74-13.4 1.82-4.28 4.33-7.66 7.51-10.13 3.19-2.47 6.75-3.71 10.66-3.71"/><text x="2741.67" y="1047.54" fill-opacity="0" font-family="Arial,Arial_MSFontService,sans-serif" font-size="40.081">𝑎</text><path fill-rule="evenodd" d="M2802.43 1037.56q-2.865 4.14-5.7 8.22c-1.9 2.72-3.81 5.45-5.74 8.19v.36h11.44v-5.98c0-.68.01-1.51.03-2.51.02-.99.04-2 .07-3.02a207 207 0 0 1 .23-5.26Zm.86-6.97h4.74v23.74h.54q1.215 0 1.98-.12c.5-.08.91-.24 1.22-.49s.56-.59.77-1.04.43-1.03.67-1.74h2.53a315 315 0 0 1-.19 3.24c-.07 1.08-.13 2.17-.19 3.28h-7.33v3.9c0 1.15.02 2.05.07 2.68.05.64.2 1.13.45 1.49s.62.63 1.1.81c.49.17 1.17.38 2.04.62v1.79h-12.86v-1.79c.59-.16 1.1-.3 1.52-.43.41-.13.76-.28 1.04-.45s.48-.36.61-.59q.195-.345.3-.87c.07-.34.11-.78.12-1.31.01-.52.01-1.17.01-1.95v-3.9h-16.77v-2.35c2.96-4.11 5.9-8.2 8.82-12.26s5.86-8.15 8.81-12.26"/><text x="2785.66" y="1063.98" fill-opacity="0" font-family="Arial,Arial_MSFontService,sans-serif" font-size="38.155">4</text><path fill-rule="evenodd" d="M2895.46 1022.97c1.41 0 2.58.49 3.53 1.48.94.98 1.42 2.23 1.42 3.75 0 1.51-.48 2.76-1.42 3.74-.95.99-2.12 1.48-3.53 1.48-1.4 0-2.58-.49-3.52-1.48-.95-.98-1.42-2.23-1.42-3.74 0-1.52.47-2.77 1.42-3.75.94-.99 2.12-1.48 3.52-1.48m-24.56 0c1.41 0 2.58.49 3.53 1.48.95.98 1.42 2.23 1.42 3.75 0 1.51-.47 2.76-1.42 3.74-.95.99-2.12 1.48-3.53 1.48-1.4 0-2.58-.49-3.52-1.48-.95-.98-1.42-2.23-1.42-3.74 0-1.52.47-2.77 1.42-3.75.94-.99 2.12-1.48 3.52-1.48m-24.56 0c1.41 0 2.58.49 3.53 1.48.95.98 1.42 2.23 1.42 3.75 0 1.51-.47 2.76-1.42 3.74-.95.99-2.12 1.48-3.53 1.48-1.4 0-2.58-.49-3.52-1.48-.95-.98-1.42-2.23-1.42-3.74 0-1.52.47-2.77 1.42-3.75.94-.99 2.12-1.48 3.52-1.48"/><text x="2841.4" y="1032.12" fill-opacity="0" font-family="Arial,Arial_MSFontService,sans-serif" font-size="10.456">⋯</text></g></svg>