<svg width="2712" height="362" xmlns="http://www.w3.org/2000/svg" xmlns:xlink="http://www.w3.org/1999/xlink" overflow="hidden"><defs><clipPath id="clip0"><rect x="915" y="1042" width="2712" height="362"/></clipPath></defs><g clip-path="url(#clip0)" transform="translate(-915 -1042)"><rect x="1416" y="1128" width="501" height="219" fill="#D74514"/><path d="M1698.84 1216.42C1696.52 1216.42 1694.99 1216.44 1694.26 1216.5L1694.26 1239.03 1698.27 1239.03C1701.03 1239.03 1703.21 1238.54 1704.82 1237.57 1706.42 1236.6 1707.55 1235.28 1708.18 1233.62 1708.82 1231.96 1709.13 1229.9 1709.13 1227.44 1709.13 1223.76 1708.27 1221.01 1706.54 1219.17 1704.81 1217.33 1702.24 1216.42 1698.84 1216.42ZM1677.36 1211.67 1700.99 1211.67C1704.88 1211.67 1708.11 1212.02 1710.69 1212.73 1713.27 1213.43 1715.33 1214.4 1716.85 1215.63 1718.38 1216.85 1719.55 1218.37 1720.36 1220.18 1721.17 1221.99 1721.57 1224.13 1721.57 1226.59 1721.57 1229.24 1721.11 1231.51 1720.18 1233.4 1719.24 1235.29 1717.99 1236.86 1716.41 1238.12 1714.83 1239.37 1712.71 1240.56 1710.07 1241.66L1710.07 1242.07C1712.06 1242.93 1713.72 1244.09 1715.03 1245.53 1716.34 1246.98 1717.52 1248.81 1718.58 1251.03L1721.13 1256.54C1722.26 1259 1723.39 1260.84 1724.51 1262.07 1725.63 1263.3 1726.97 1264.05 1728.51 1264.32L1728.51 1266.99 1712.9 1266.99C1711.33 1264.83 1709.57 1261.62 1707.59 1257.35L1704.43 1250.42C1703.49 1248.36 1702.68 1246.91 1702 1246.04 1701.32 1245.18 1700.63 1244.58 1699.91 1244.26 1699.2 1243.93 1698.1 1243.77 1696.61 1243.77L1694.26 1243.77 1694.26 1256.82C1694.26 1258.85 1694.35 1260.27 1694.54 1261.08 1694.73 1261.89 1695.1 1262.54 1695.64 1263.02 1696.18 1263.51 1697.18 1263.94 1698.64 1264.32L1698.64 1266.99 1677.36 1266.99 1677.36 1264.32C1678.82 1263.94 1679.81 1263.51 1680.34 1263.02 1680.87 1262.54 1681.22 1261.89 1681.41 1261.1 1681.6 1260.3 1681.7 1258.87 1681.7 1256.82L1681.7 1221.89C1681.7 1219.83 1681.61 1218.41 1681.43 1217.61 1681.26 1216.81 1680.9 1216.17 1680.36 1215.69 1679.82 1215.2 1678.82 1214.75 1677.36 1214.35ZM1587.36 1211.67 1626.55 1211.67 1626.55 1224.56 1621 1224.56C1620.11 1221.99 1619.35 1220.26 1618.73 1219.35 1618.11 1218.45 1617.36 1217.73 1616.5 1217.21 1615.63 1216.68 1614.16 1216.42 1612.08 1216.42L1604.26 1216.42 1604.26 1237.04 1609.45 1237.04C1610.72 1237.04 1611.7 1236.85 1612.39 1236.46 1613.07 1236.06 1613.64 1235.41 1614.09 1234.49 1614.53 1233.57 1614.9 1232.28 1615.2 1230.6L1619.78 1230.6 1619.78 1248.27 1615.2 1248.27C1614.88 1246.57 1614.49 1245.25 1614.03 1244.32 1613.57 1243.39 1613 1242.73 1612.32 1242.35 1611.65 1241.97 1610.69 1241.79 1609.45 1241.79L1604.26 1241.79 1604.26 1256.82C1604.26 1258.93 1604.37 1260.39 1604.58 1261.22 1604.8 1262.04 1605.23 1262.7 1605.86 1263.2 1606.5 1263.7 1607.6 1264.08 1609.16 1264.32L1609.16 1266.99 1587.36 1266.99 1587.36 1264.32C1588.79 1263.97 1589.77 1263.54 1590.3 1263.04 1590.82 1262.54 1591.19 1261.89 1591.39 1261.1 1591.59 1260.3 1591.7 1258.86 1591.7 1256.78L1591.7 1221.89C1591.7 1219.83 1591.61 1218.41 1591.43 1217.61 1591.26 1216.81 1590.9 1216.17 1590.36 1215.69 1589.82 1215.2 1588.82 1214.75 1587.36 1214.35ZM1541.36 1211.67 1562.64 1211.67 1562.64 1214.35C1561.2 1214.73 1560.23 1215.16 1559.7 1215.65 1559.17 1216.13 1558.8 1216.78 1558.58 1217.59 1558.37 1218.4 1558.26 1219.81 1558.26 1221.81L1558.26 1262.17 1566.12 1262.17C1567.82 1262.17 1569.21 1261.85 1570.28 1261.22 1571.34 1260.58 1572.26 1259.52 1573.03 1258.02 1573.8 1256.52 1574.57 1254.05 1575.32 1250.62L1580.87 1250.62 1579.98 1266.99 1541.36 1266.99 1541.36 1264.32C1542.82 1263.94 1543.81 1263.51 1544.34 1263.02 1544.87 1262.54 1545.22 1261.89 1545.41 1261.08 1545.6 1260.27 1545.7 1258.83 1545.7 1256.78L1545.7 1221.89C1545.7 1219.83 1545.61 1218.41 1545.43 1217.61 1545.26 1216.81 1544.9 1216.17 1544.36 1215.69 1543.82 1215.2 1542.82 1214.75 1541.36 1214.35ZM1655.19 1211.03C1657.6 1211.03 1659.89 1211.15 1662.08 1211.41 1664.27 1211.67 1666.77 1212.12 1669.58 1212.77L1669.58 1224.52 1664.03 1224.52C1663.3 1221.47 1662.22 1219.25 1660.78 1217.85 1659.35 1216.46 1657.28 1215.77 1654.58 1215.77 1652.15 1215.77 1650.2 1216.4 1648.73 1217.67 1647.25 1218.94 1646.52 1220.67 1646.52 1222.86 1646.52 1224.43 1646.82 1225.78 1647.43 1226.93 1648.04 1228.08 1649.06 1229.2 1650.49 1230.3 1651.92 1231.39 1654 1232.64 1656.73 1234.04 1660.05 1235.77 1662.67 1237.47 1664.57 1239.13 1666.48 1240.79 1667.88 1242.6 1668.79 1244.56 1669.69 1246.52 1670.15 1248.8 1670.15 1251.39 1670.15 1254.71 1669.38 1257.6 1667.84 1260.04 1666.3 1262.49 1664.05 1264.37 1661.11 1265.68 1658.16 1266.99 1654.76 1267.64 1650.89 1267.64 1648.14 1267.64 1645.27 1267.49 1642.28 1267.18 1639.3 1266.87 1636.49 1266.41 1633.87 1265.82L1633.87 1253.34 1639.43 1253.34C1640.1 1256.55 1641.23 1258.95 1642.81 1260.53 1644.39 1262.11 1646.71 1262.9 1649.76 1262.9 1652.43 1262.9 1654.52 1262.21 1656.02 1260.83 1657.52 1259.46 1658.27 1257.5 1658.27 1254.96 1658.27 1252.47 1657.55 1250.4 1656.1 1248.74 1654.66 1247.07 1652.15 1245.35 1648.58 1243.57 1645.61 1242.11 1643.13 1240.6 1641.15 1239.05 1639.16 1237.5 1637.6 1235.69 1636.45 1233.64 1635.3 1231.59 1634.72 1229.24 1634.72 1226.59 1634.72 1223.26 1635.55 1220.44 1637.2 1218.12 1638.84 1215.79 1641.23 1214.03 1644.35 1212.83 1647.47 1211.63 1651.08 1211.03 1655.19 1211.03Z" fill="#FFFFFF" fill-rule="evenodd"/><text fill="#000000" fill-opacity="0" font-family="Arial,Arial_MSFontService,sans-serif" font-size="56.6167" x="1541.36" y="1260.56">𝐋𝐅𝐒𝐑</text><path d="M1753.02 1242.7 1756.84 1242.7C1756.72 1244.61 1756.66 1247.25 1756.66 1250.63L1756.66 1275.53C1756.66 1276.68 1756.72 1277.55 1756.85 1278.13 1756.98 1278.72 1757.21 1279.2 1757.54 1279.56 1757.86 1279.93 1758.34 1280.22 1758.95 1280.43 1759.57 1280.64 1760.34 1280.79 1761.28 1280.9 1762.21 1281.01 1763.44 1281.09 1764.97 1281.13L1764.97 1283.84 1739.26 1283.84 1739.26 1281.13C1741.47 1281.03 1743.04 1280.89 1743.99 1280.72 1744.93 1280.56 1745.65 1280.3 1746.14 1279.97 1746.64 1279.63 1747 1279.15 1747.23 1278.54 1747.46 1277.92 1747.57 1276.92 1747.57 1275.53L1747.57 1253.99C1747.57 1253.18 1747.42 1252.59 1747.11 1252.24 1746.8 1251.88 1746.38 1251.7 1745.85 1251.7 1745.35 1251.7 1744.65 1251.93 1743.75 1252.38 1742.84 1252.84 1741.36 1253.77 1739.29 1255.18L1737.48 1252.03Z" fill="#FFFFFF" fill-rule="evenodd"/><text fill="#000000" fill-opacity="0" font-family="Arial,Arial_MSFontService,sans-serif" font-size="41.1333" x="1737.48" y="1278.7">𝟏</text><rect x="2763" y="1128" width="501" height="219" fill="#D74514"/><path d="M3045.6 1216.42C3043.27 1216.42 3041.75 1216.44 3041.02 1216.5L3041.02 1239.03 3045.03 1239.03C3047.78 1239.03 3049.97 1238.54 3051.57 1237.57 3053.18 1236.6 3054.3 1235.28 3054.94 1233.62 3055.57 1231.96 3055.89 1229.9 3055.89 1227.44 3055.89 1223.76 3055.03 1221.01 3053.3 1219.17 3051.57 1217.33 3049 1216.42 3045.6 1216.42ZM3024.12 1211.67 3047.74 1211.67C3051.63 1211.67 3054.87 1212.02 3057.45 1212.73 3060.03 1213.43 3062.08 1214.4 3063.61 1215.62 3065.14 1216.85 3066.31 1218.37 3067.12 1220.18 3067.93 1221.99 3068.33 1224.13 3068.33 1226.59 3068.33 1229.24 3067.87 1231.5 3066.93 1233.4 3066 1235.29 3064.75 1236.86 3063.16 1238.12 3061.58 1239.37 3059.47 1240.56 3056.82 1241.66L3056.82 1242.07C3058.82 1242.93 3060.48 1244.09 3061.79 1245.53 3063.1 1246.98 3064.28 1248.81 3065.33 1251.03L3067.89 1256.54C3069.02 1259 3070.15 1260.84 3071.27 1262.07 3072.39 1263.3 3073.72 1264.05 3075.26 1264.32L3075.26 1266.99 3059.66 1266.99C3058.09 1264.83 3056.32 1261.62 3054.35 1257.35L3051.19 1250.42C3050.24 1248.36 3049.43 1246.91 3048.76 1246.04 3048.08 1245.18 3047.39 1244.58 3046.67 1244.26 3045.95 1243.93 3044.85 1243.77 3043.37 1243.77L3041.02 1243.77 3041.02 1256.82C3041.02 1258.85 3041.11 1260.27 3041.3 1261.08 3041.49 1261.89 3041.85 1262.54 3042.39 1263.02 3042.93 1263.51 3043.93 1263.94 3045.39 1264.32L3045.39 1266.99 3024.12 1266.99 3024.12 1264.32C3025.58 1263.94 3026.57 1263.51 3027.1 1263.02 3027.62 1262.54 3027.98 1261.89 3028.17 1261.1 3028.36 1260.3 3028.45 1258.87 3028.45 1256.82L3028.45 1221.89C3028.45 1219.83 3028.36 1218.41 3028.19 1217.61 3028.01 1216.81 3027.66 1216.17 3027.12 1215.69 3026.58 1215.2 3025.58 1214.75 3024.12 1214.35ZM2934.12 1211.67 2973.31 1211.67 2973.31 1224.56 2967.75 1224.56C2966.86 1221.99 2966.11 1220.26 2965.48 1219.35 2964.86 1218.45 2964.12 1217.73 2963.26 1217.21 2962.39 1216.68 2960.92 1216.42 2958.84 1216.42L2951.02 1216.42 2951.02 1237.04 2956.2 1237.04C2957.47 1237.04 2958.45 1236.85 2959.14 1236.46 2959.83 1236.06 2960.4 1235.41 2960.84 1234.49 2961.29 1233.57 2961.66 1232.27 2961.96 1230.6L2966.54 1230.6 2966.54 1248.27 2961.96 1248.27C2961.63 1246.57 2961.24 1245.25 2960.78 1244.32 2960.32 1243.39 2959.76 1242.73 2959.08 1242.35 2958.41 1241.97 2957.45 1241.79 2956.2 1241.79L2951.02 1241.79 2951.02 1256.82C2951.02 1258.93 2951.12 1260.39 2951.34 1261.22 2951.56 1262.04 2951.98 1262.7 2952.62 1263.2 2953.25 1263.7 2954.35 1264.08 2955.92 1264.32L2955.92 1266.99 2934.12 1266.99 2934.12 1264.32C2935.55 1263.97 2936.53 1263.54 2937.05 1263.04 2937.58 1262.54 2937.95 1261.89 2938.15 1261.1 2938.35 1260.3 2938.45 1258.86 2938.45 1256.78L2938.45 1221.89C2938.45 1219.83 2938.36 1218.41 2938.19 1217.61 2938.01 1216.81 2937.66 1216.17 2937.12 1215.69 2936.58 1215.2 2935.58 1214.75 2934.12 1214.35ZM2888.12 1211.67 2909.39 1211.67 2909.39 1214.35C2907.96 1214.73 2906.98 1215.16 2906.46 1215.65 2905.93 1216.13 2905.56 1216.78 2905.34 1217.59 2905.12 1218.4 2905.02 1219.81 2905.02 1221.81L2905.02 1262.17 2912.88 1262.17C2914.58 1262.17 2915.97 1261.85 2917.03 1261.22 2918.1 1260.58 2919.02 1259.52 2919.79 1258.02 2920.56 1256.52 2921.32 1254.05 2922.08 1250.62L2927.63 1250.62 2926.74 1266.99 2888.12 1266.99 2888.12 1264.32C2889.58 1263.94 2890.57 1263.51 2891.1 1263.02 2891.62 1262.54 2891.98 1261.89 2892.17 1261.08 2892.36 1260.27 2892.45 1258.83 2892.45 1256.78L2892.45 1221.89C2892.45 1219.83 2892.36 1218.41 2892.19 1217.61 2892.01 1216.81 2891.66 1216.17 2891.12 1215.69 2890.58 1215.2 2889.58 1214.75 2888.12 1214.35ZM3001.95 1211.02C3004.35 1211.02 3006.65 1211.15 3008.84 1211.41 3011.03 1211.67 3013.52 1212.12 3016.33 1212.77L3016.33 1224.52 3010.78 1224.52C3010.05 1221.47 3008.97 1219.25 3007.54 1217.85 3006.11 1216.46 3004.04 1215.77 3001.34 1215.77 2998.91 1215.77 2996.96 1216.4 2995.48 1217.67 2994.01 1218.94 2993.27 1220.67 2993.27 1222.86 2993.27 1224.43 2993.58 1225.78 2994.19 1226.93 2994.79 1228.08 2995.81 1229.2 2997.25 1230.3 2998.68 1231.39 3000.76 1232.64 3003.49 1234.04 3006.81 1235.77 3009.42 1237.47 3011.33 1239.13 3013.23 1240.79 3014.64 1242.6 3015.54 1244.56 3016.45 1246.52 3016.9 1248.8 3016.9 1251.39 3016.9 1254.71 3016.13 1257.6 3014.59 1260.04 3013.05 1262.49 3010.81 1264.37 3007.86 1265.68 3004.92 1266.99 3001.52 1267.64 2997.65 1267.64 2994.9 1267.64 2992.03 1267.49 2989.04 1267.18 2986.05 1266.86 2983.25 1266.41 2980.63 1265.82L2980.63 1253.34 2986.18 1253.34C2986.86 1256.55 2987.99 1258.95 2989.57 1260.53 2991.15 1262.11 2993.46 1262.9 2996.52 1262.9 2999.19 1262.9 3001.28 1262.21 3002.78 1260.83 3004.28 1259.46 3005.03 1257.5 3005.03 1254.96 3005.03 1252.47 3004.3 1250.4 3002.86 1248.74 3001.41 1247.07 2998.91 1245.35 2995.34 1243.57 2992.37 1242.11 2989.89 1240.6 2987.9 1239.05 2985.92 1237.5 2984.35 1235.69 2983.2 1233.64 2982.06 1231.59 2981.48 1229.24 2981.48 1226.59 2981.48 1223.26 2982.31 1220.44 2983.95 1218.12 2985.6 1215.79 2987.99 1214.03 2991.11 1212.83 2994.23 1211.63 2997.84 1211.02 3001.95 1211.02Z" fill="#FFFFFF" fill-rule="evenodd"/><text fill="#000000" fill-opacity="0" font-family="Arial,Arial_MSFontService,sans-serif" font-size="56.6167" x="2888.12" y="1260.56">𝐋𝐅𝐒𝐑</text><path d="M3097.46 1242.7C3100.38 1242.7 3102.76 1243.1 3104.61 1243.88 3106.45 1244.66 3107.79 1245.73 3108.61 1247.07 3109.44 1248.41 3109.85 1249.97 3109.85 1251.76 3109.85 1253.33 3109.56 1254.79 3108.97 1256.14 3108.38 1257.49 3107.37 1259.03 3105.93 1260.75 3104.49 1262.48 3102.07 1264.95 3098.65 1268.17 3097.6 1269.16 3096.34 1270.47 3094.88 1272.09 3093.42 1273.7 3092.27 1275.09 3091.41 1276.24L3091.41 1276.54 3101.99 1276.54C3103.28 1276.54 3104.24 1276.45 3104.88 1276.26 3105.51 1276.07 3106.01 1275.74 3106.38 1275.27 3106.75 1274.81 3107.05 1274.11 3107.29 1273.17L3110.71 1273.17 3110.03 1283.84 3082.74 1283.84 3082.74 1281.87C3084.27 1278.36 3087.4 1273.83 3092.13 1268.29 3094.27 1265.77 3095.9 1263.69 3097.03 1262.06 3098.15 1260.44 3098.99 1258.9 3099.54 1257.45 3100.1 1256 3100.38 1254.5 3100.38 1252.95 3100.38 1250.77 3099.89 1249.05 3098.92 1247.81 3097.95 1246.57 3096.61 1245.95 3094.93 1245.95 3091.69 1245.95 3089.61 1248.28 3088.7 1252.95L3083.34 1252.95 3083.34 1245.92C3086.58 1244.61 3089.19 1243.75 3091.17 1243.33 3093.16 1242.91 3095.25 1242.7 3097.46 1242.7Z" fill="#FFFFFF" fill-rule="evenodd"/><text fill="#000000" fill-opacity="0" font-family="Arial,Arial_MSFontService,sans-serif" font-size="41.1333" x="3082.74" y="1278.7">𝟐</text><path d="M2229 1128 2338 1128C2398.2 1128 2447 1177.02 2447 1237.5 2447 1297.98 2398.2 1347 2338 1347L2229 1347Z" fill="#5D1709" fill-rule="evenodd"/><path d="M5.31307e-06-4.58333 270.075-4.58302 270.075 4.58365-5.31307e-06 4.58333ZM265.492-22.9164 311.325 0.000360892 265.492 22.917Z" transform="matrix(1 0 0 -1 1917.5 1237.5)"/><path d="M2447.5 1232.92 2722.07 1232.92 2722.07 1242.08 2447.5 1242.08ZM2717.48 1214.58 2763.32 1237.5 2717.48 1260.42Z"/><path d="M-2.1448e-06 4.58333-82.4971 4.58333-77.9138 0-77.9138 191.741-82.4971 187.158 656.8 187.158 652.216 191.741 652.216-4.58297 771.209-4.58297 771.209 4.58369 656.8 4.58369 661.383 0.000360892 661.383 196.325-87.0804 196.325-87.0804-4.58333 2.1448e-06-4.58333ZM766.625-22.9163 812.459 0.000360892 766.625 22.917Z" transform="matrix(1 -1.22465e-16 -1.22465e-16 -1 1416.5 1238.5)"/><path d="M915.5 1232.92 1375.38 1232.92 1375.38 1242.08 915.5 1242.08ZM1370.8 1214.58 1416.63 1237.5 1370.8 1260.42Z"/><path d="M3264.5 1232.92 3539.07 1232.92 3539.07 1242.08 3264.5 1242.08ZM3534.48 1214.58 3580.32 1237.5 3534.48 1260.42Z"/><path d="M3429.17 1137.85 3430.22 1137.85C3436.57 1137.96 3441.32 1139.41 3444.47 1142.21 3447.62 1145.01 3449.19 1149.21 3449.19 1154.83 3449.19 1157.08 3448.87 1159.63 3448.24 1162.49 3447.6 1165.36 3447.29 1167.28 3447.29 1168.25 3447.29 1170.11 3447.93 1171.63 3449.21 1172.81 3450.49 1173.98 3452.43 1174.61 3455.03 1174.69L3455.03 1178.02C3452.43 1178.1 3450.49 1178.72 3449.21 1179.9 3447.93 1181.08 3447.29 1182.59 3447.29 1184.46 3447.29 1185.43 3447.6 1187.35 3448.24 1190.21 3448.87 1193.08 3449.19 1195.63 3449.19 1197.87 3449.19 1203.68 3447.62 1207.99 3444.47 1210.78 3441.32 1213.58 3436.57 1215.03 3430.22 1215.14L3429.17 1215.14 3429.17 1212.06 3429.78 1212.06C3433.7 1212.06 3436.76 1211.04 3438.98 1209 3441.19 1206.96 3442.3 1203.49 3442.3 1198.6 3442.3 1196.71 3442.03 1194.37 3441.49 1191.59 3440.95 1188.81 3440.68 1186.82 3440.68 1185.63 3440.68 1183.34 3441.36 1181.45 3442.71 1179.98 3444.06 1178.51 3445.67 1177.42 3447.53 1176.72L3447.53 1175.99C3445.67 1175.29 3444.06 1174.2 3442.71 1172.73 3441.36 1171.25 3440.68 1169.37 3440.68 1167.07 3440.68 1165.88 3440.95 1163.9 3441.49 1161.12 3442.03 1158.33 3442.3 1156 3442.3 1154.1 3442.3 1149.4 3441.19 1146.03 3438.98 1143.99 3436.76 1141.95 3433.7 1140.93 3429.78 1140.93L3429.17 1140.93ZM3345.8 1137.85 3346.86 1137.85 3346.86 1140.93 3346.25 1140.93C3342.33 1140.93 3339.27 1141.95 3337.05 1143.99 3334.84 1146.03 3333.73 1149.39 3333.73 1154.06 3333.73 1155.95 3334 1158.29 3334.54 1161.07 3335.08 1163.86 3335.35 1165.84 3335.35 1167.03 3335.35 1169.33 3334.67 1171.21 3333.32 1172.69 3331.97 1174.16 3330.36 1175.25 3328.5 1175.95L3328.5 1176.68C3330.36 1177.38 3331.97 1178.47 3333.32 1179.94 3334.67 1181.41 3335.35 1183.3 3335.35 1185.59 3335.35 1186.78 3335.08 1188.77 3334.54 1191.55 3334 1194.33 3333.73 1196.67 3333.73 1198.56 3333.73 1203.48 3334.84 1206.96 3337.05 1209 3339.27 1211.04 3342.33 1212.06 3346.25 1212.06L3346.86 1212.06 3346.86 1215.14 3345.8 1215.14C3339.46 1215.03 3334.71 1213.58 3331.56 1210.78 3328.41 1207.99 3326.84 1203.67 3326.84 1197.83 3326.84 1195.59 3327.16 1193.04 3327.79 1190.17 3328.43 1187.31 3328.74 1185.39 3328.74 1184.42 3328.74 1182.55 3328.1 1181.03 3326.82 1179.86 3325.53 1178.68 3323.6 1178.06 3321 1177.97L3321 1174.65C3323.6 1174.57 3325.53 1173.94 3326.82 1172.77 3328.1 1171.59 3328.74 1170.07 3328.74 1168.21 3328.74 1167.24 3328.43 1165.32 3327.79 1162.45 3327.16 1159.59 3326.84 1157.04 3326.84 1154.79 3326.84 1149.2 3328.41 1145.01 3331.56 1142.21 3334.71 1139.41 3339.46 1137.96 3345.8 1137.85Z" fill-rule="evenodd"/><path d="M3375.93 1160.78C3379.52 1160.78 3382.83 1161.19 3385.86 1162L3383.87 1171.16 3379.61 1171.16C3379.56 1169.1 3379.39 1167.62 3379.11 1166.7 3378.82 1165.78 3378.37 1165.09 3377.73 1164.63 3377.1 1164.17 3376.2 1163.94 3375.04 1163.94 3372.31 1163.94 3369.85 1165.03 3367.68 1167.21 3365.5 1169.38 3363.73 1172.46 3362.35 1176.45 3360.97 1180.43 3360.28 1184.26 3360.28 1187.94 3360.28 1190.69 3360.82 1192.74 3361.9 1194.08 3362.99 1195.41 3364.61 1196.08 3366.77 1196.08 3369.23 1196.08 3371.35 1195.62 3373.15 1194.68 3374.95 1193.75 3376.85 1192.29 3378.84 1190.29L3381.32 1192.76C3378.78 1195.57 3376.22 1197.62 3373.64 1198.92 3371.06 1200.22 3368.28 1200.86 3365.31 1200.86 3361.39 1200.86 3358.42 1199.7 3356.39 1197.38 3354.37 1195.05 3353.35 1191.68 3353.35 1187.25 3353.35 1184.36 3353.89 1181.18 3354.97 1177.72 3356.05 1174.26 3357.64 1171.22 3359.72 1168.6 3361.8 1165.98 3364.23 1164.02 3367.01 1162.73 3369.79 1161.43 3372.77 1160.78 3375.93 1160.78Z" fill-rule="evenodd"/><text fill="#000000" fill-opacity="0" font-family="Arial,Arial_MSFontService,sans-serif" font-size="40.0815" x="3353.35" y="1195.85">𝑐</text><path d="M3400.98 1176.36 3403.12 1176.36 3397.88 1199.53 3398.71 1199.53C3399.47 1199.53 3400.28 1199.38 3401.16 1199.06 3402.03 1198.74 3402.9 1198.33 3403.76 1197.82 3404.63 1197.32 3405.46 1196.74 3406.25 1196.11 3407.04 1195.47 3407.74 1194.83 3408.35 1194.19 3408.95 1193.54 3409.44 1192.93 3409.79 1192.36 3410.15 1191.78 3410.33 1191.29 3410.33 1190.9 3410.33 1190.42 3410.17 1190.03 3409.85 1189.74 3409.54 1189.44 3408.96 1189.24 3408.13 1189.14L3408.48 1187.23 3419.21 1187.23 3419.95 1189.08C3418.7 1190.15 3417.5 1191.15 3416.35 1192.06 3415.19 1192.97 3414.07 1193.85 3412.97 1194.69 3411.86 1195.54 3410.76 1196.37 3409.66 1197.18 3408.56 1198 3407.43 1198.84 3406.28 1199.71 3406.76 1201.22 3407.24 1202.76 3407.74 1204.32 3408.23 1205.87 3408.73 1207.42 3409.23 1208.95 3409.47 1209.76 3409.69 1210.46 3409.9 1211.05 3410.11 1211.63 3410.33 1212.11 3410.57 1212.48 3410.81 1212.84 3411.06 1213.12 3411.34 1213.3 3411.62 1213.47 3411.96 1213.56 3412.36 1213.56 3412.63 1213.56 3412.92 1213.51 3413.22 1213.41 3413.52 1213.32 3413.85 1213.14 3414.22 1212.88 3414.58 1212.62 3415 1212.27 3415.47 1211.82 3415.93 1211.37 3416.47 1210.81 3417.06 1210.14L3419.09 1212.07C3418.15 1213.03 3417.28 1213.85 3416.48 1214.55 3415.68 1215.24 3414.91 1215.81 3414.19 1216.26 3413.46 1216.71 3412.76 1217.03 3412.09 1217.24 3411.41 1217.45 3410.73 1217.55 3410.03 1217.55 3408.78 1217.55 3407.77 1217.24 3407.01 1216.62 3406.24 1215.99 3405.59 1215.1 3405.06 1213.94 3404.52 1212.77 3404.03 1211.37 3403.58 1209.72 3403.14 1208.07 3402.62 1206.24 3402.02 1204.21 3401.88 1203.73 3401.75 1203.35 3401.62 1203.06 3401.49 1202.78 3401.32 1202.56 3401.13 1202.41 3400.93 1202.26 3400.68 1202.17 3400.38 1202.13 3400.08 1202.09 3399.71 1202.07 3399.25 1202.07L3397.34 1202.07 3394.07 1217.02 3388.35 1217.02 3395.56 1185.03C3395.79 1183.98 3395.96 1183.15 3396.06 1182.54 3396.16 1181.94 3396.21 1181.4 3396.21 1180.92 3396.21 1180.54 3396.15 1180.21 3396.02 1179.94 3395.89 1179.66 3395.68 1179.43 3395.38 1179.27 3395.08 1179.1 3394.68 1178.97 3394.19 1178.89 3393.69 1178.81 3393.07 1178.76 3392.34 1178.74L3392.79 1176.72Z" fill-rule="evenodd"/><text fill="#000000" fill-opacity="0" font-family="Arial,Arial_MSFontService,sans-serif" font-size="41.1929" x="3388.35" y="1212.41">𝑘</text><text font-family="Microsoft YaHei,Microsoft YaHei_MSFontService,sans-serif" font-weight="400" font-size="83" transform="matrix(1 0 0 1 1000.66 1334)">时钟脉冲</text></g></svg>