<svg width="1826" height="1061" xmlns="http://www.w3.org/2000/svg" xmlns:xlink="http://www.w3.org/1999/xlink" overflow="hidden"><defs><clipPath id="clip0"><rect x="243" y="123" width="1826" height="1061"/></clipPath></defs><g clip-path="url(#clip0)" transform="translate(-243 -123)"><rect x="243" y="214" width="502" height="218" fill="#D74514"/><path d="M526.061 302.098C523.738 302.098 522.211 302.125 521.482 302.179L521.482 324.712 525.494 324.712C528.25 324.712 530.431 324.226 532.039 323.253 533.647 322.281 534.768 320.964 535.403 319.302 536.038 317.64 536.355 315.58 536.355 313.122 536.355 309.447 535.491 306.691 533.761 304.854 532.032 303.017 529.466 302.098 526.061 302.098ZM504.582 297.356 528.209 297.356C532.1 297.356 535.335 297.708 537.915 298.41 540.496 299.113 542.549 300.079 544.076 301.308 545.602 302.537 546.771 304.057 547.581 305.867 548.392 307.677 548.797 309.812 548.797 312.271 548.797 314.918 548.331 317.188 547.399 319.079 546.467 320.97 545.21 322.544 543.63 323.801 542.049 325.057 539.935 326.239 537.287 327.347L537.287 327.752C539.287 328.617 540.942 329.772 542.252 331.217 543.562 332.663 544.744 334.493 545.798 336.709L548.351 342.22C549.486 344.679 550.614 346.523 551.735 347.752 552.857 348.982 554.187 349.731 555.727 350.001L555.727 352.676 540.124 352.676C538.557 350.515 536.787 347.3 534.815 343.031L531.654 336.101C530.708 334.047 529.898 332.588 529.222 331.724 528.547 330.859 527.851 330.265 527.135 329.94 526.419 329.616 525.318 329.454 523.832 329.454L521.482 329.454 521.482 342.504C521.482 344.53 521.576 345.949 521.765 346.759 521.954 347.57 522.319 348.218 522.86 348.705 523.4 349.191 524.4 349.623 525.859 350.001L525.859 352.676 504.582 352.676 504.582 350.001C506.041 349.623 507.034 349.191 507.56 348.705 508.087 348.218 508.445 347.577 508.634 346.78 508.824 345.983 508.918 344.557 508.918 342.504L508.918 307.569C508.918 305.516 508.83 304.091 508.655 303.294 508.479 302.497 508.121 301.855 507.581 301.369 507.04 300.882 506.041 300.437 504.582 300.031ZM414.582 297.356 453.772 297.356 453.772 310.244 448.219 310.244C447.328 307.677 446.571 305.942 445.95 305.036 445.328 304.131 444.585 303.415 443.721 302.888 442.856 302.362 441.384 302.098 439.303 302.098L431.482 302.098 431.482 322.727 436.669 322.727C437.939 322.727 438.918 322.531 439.607 322.139 440.296 321.747 440.864 321.092 441.31 320.173 441.755 319.255 442.127 317.958 442.424 316.283L447.004 316.283 447.004 333.953 442.424 333.953C442.1 332.251 441.708 330.933 441.249 330.001 440.789 329.069 440.222 328.414 439.547 328.036 438.871 327.657 437.912 327.468 436.669 327.468L431.482 327.468 431.482 342.504C431.482 344.611 431.59 346.077 431.806 346.901 432.022 347.725 432.448 348.387 433.082 348.887 433.717 349.387 434.818 349.758 436.385 350.001L436.385 352.676 414.582 352.676 414.582 350.001C416.014 349.65 416.993 349.225 417.52 348.725 418.047 348.225 418.412 347.577 418.614 346.78 418.817 345.983 418.918 344.544 418.918 342.463L418.918 307.569C418.918 305.516 418.83 304.091 418.655 303.294 418.479 302.497 418.121 301.855 417.581 301.369 417.04 300.882 416.041 300.437 414.582 300.031ZM368.582 297.356 389.859 297.356 389.859 300.031C388.427 300.41 387.447 300.842 386.92 301.328 386.393 301.814 386.022 302.463 385.806 303.273 385.59 304.084 385.482 305.489 385.482 307.488L385.482 347.854 393.344 347.854C395.046 347.854 396.431 347.536 397.498 346.901 398.565 346.266 399.484 345.199 400.254 343.699 401.024 342.2 401.787 339.735 402.544 336.303L408.096 336.303 407.204 352.676 368.582 352.676 368.582 350.001C370.041 349.623 371.034 349.191 371.56 348.705 372.087 348.218 372.445 347.57 372.634 346.759 372.824 345.949 372.918 344.517 372.918 342.463L372.918 307.569C372.918 305.516 372.83 304.091 372.655 303.294 372.479 302.497 372.121 301.855 371.581 301.369 371.04 300.882 370.041 300.437 368.582 300.031ZM482.413 296.708C484.817 296.708 487.114 296.836 489.302 297.093 491.491 297.35 493.99 297.802 496.8 298.451L496.8 310.204 491.248 310.204C490.518 307.151 489.438 304.928 488.006 303.537 486.574 302.145 484.507 301.45 481.805 301.45 479.373 301.45 477.421 302.085 475.949 303.355 474.476 304.624 473.74 306.354 473.74 308.542 473.74 310.109 474.044 311.467 474.652 312.615 475.26 313.763 476.28 314.885 477.712 315.979 479.144 317.073 481.224 318.323 483.953 319.728 487.276 321.457 489.89 323.152 491.795 324.814 493.7 326.475 495.105 328.286 496.01 330.244 496.915 332.203 497.367 334.48 497.367 337.073 497.367 340.397 496.597 343.281 495.057 345.726 493.517 348.171 491.275 350.049 488.33 351.359 485.385 352.67 481.98 353.325 478.117 353.325 475.361 353.325 472.49 353.169 469.505 352.859 466.519 352.548 463.716 352.095 461.095 351.501L461.095 339.019 466.648 339.019C467.323 342.234 468.451 344.632 470.032 346.212 471.612 347.793 473.929 348.583 476.982 348.583 479.657 348.583 481.744 347.894 483.244 346.516 484.743 345.138 485.493 343.179 485.493 340.64 485.493 338.154 484.77 336.08 483.325 334.419 481.879 332.757 479.373 331.035 475.807 329.251 472.835 327.793 470.356 326.286 468.37 324.733 466.384 323.179 464.817 321.376 463.669 319.322 462.521 317.269 461.946 314.918 461.946 312.271 461.946 308.947 462.771 306.124 464.419 303.8 466.067 301.477 468.451 299.714 471.572 298.512 474.692 297.309 478.306 296.708 482.413 296.708Z" fill="#FFFFFF" fill-rule="evenodd"/><text fill="#000000" fill-opacity="0" font-family="Arial,Arial_MSFontService,sans-serif" font-size="56.6167" x="368.582" y="346.248">𝐋𝐅𝐒𝐑</text><path d="M580.247 328.387 584.06 328.387C583.94 330.293 583.881 332.934 583.881 336.31L583.881 361.21C583.881 362.362 583.945 363.23 584.074 363.816 584.204 364.402 584.432 364.879 584.76 365.246 585.087 365.613 585.559 365.901 586.174 366.11 586.79 366.318 587.564 366.477 588.498 366.586 589.431 366.695 590.662 366.77 592.191 366.81L592.191 369.52 566.486 369.52 566.486 366.81C568.69 366.71 570.264 366.576 571.207 366.408 572.15 366.239 572.87 365.986 573.367 365.648 573.863 365.31 574.226 364.834 574.454 364.218 574.682 363.603 574.796 362.6 574.796 361.21L574.796 339.675C574.796 338.861 574.643 338.275 574.335 337.918 574.027 337.561 573.605 337.382 573.069 337.382 572.572 337.382 571.872 337.61 570.969 338.067 570.065 338.524 568.581 339.457 566.516 340.867L564.699 337.71Z" fill="#FFFFFF" fill-rule="evenodd"/><text fill="#000000" fill-opacity="0" font-family="Arial,Arial_MSFontService,sans-serif" font-size="41.1333" x="564.699" y="364.378">𝟏</text><path d="M0-4.58333 706.202-4.58333 706.202 197.09 697.035 197.09 697.035 0 701.618 4.58333 0 4.58333ZM724.535 192.507 701.618 238.34 678.702 192.507Z" transform="matrix(1 0 0 -1 745.5 1018.84)"/><path d="M3.69108e-06-4.58333 406.882-4.58301 406.882 4.58366-3.69108e-06 4.58333ZM402.298-22.9163 448.132 0.000360892 402.298 22.917Z" transform="matrix(1 0 0 -1 745.5 323.5)"/><text font-family="Microsoft YaHei,Microsoft YaHei_MSFontService,sans-serif" font-weight="400" font-size="83" transform="matrix(1 0 0 1 1114.99 1114)">选择控制</text><rect x="243" y="562" width="502" height="218" fill="#D74514"/><path d="M526.061 649.679C523.738 649.679 522.211 649.706 521.482 649.76L521.482 672.293 525.494 672.293C528.25 672.293 530.431 671.807 532.039 670.834 533.647 669.861 534.768 668.544 535.403 666.883 536.038 665.221 536.355 663.161 536.355 660.702 536.355 657.028 535.491 654.272 533.761 652.435 532.032 650.597 529.466 649.679 526.061 649.679ZM504.582 644.937 528.209 644.937C532.1 644.937 535.335 645.288 537.915 645.991 540.496 646.693 542.549 647.659 544.076 648.888 545.602 650.118 546.771 651.637 547.581 653.448 548.392 655.258 548.797 657.392 548.797 659.851 548.797 662.499 548.331 664.768 547.399 666.66 546.467 668.551 545.21 670.125 543.63 671.381 542.049 672.637 539.935 673.819 537.287 674.927L537.287 675.332C539.287 676.197 540.942 677.352 542.252 678.798 543.562 680.243 544.744 682.073 545.798 684.289L548.351 689.801C549.486 692.259 550.614 694.103 551.735 695.333 552.857 696.562 554.187 697.312 555.727 697.582L555.727 700.257 540.124 700.257C538.557 698.095 536.787 694.88 534.815 690.611L531.654 683.681C530.708 681.628 529.898 680.169 529.222 679.304 528.547 678.44 527.851 677.845 527.135 677.521 526.419 677.197 525.318 677.035 523.832 677.035L521.482 677.035 521.482 690.084C521.482 692.111 521.576 693.529 521.765 694.34 521.954 695.15 522.319 695.799 522.86 696.285 523.4 696.771 524.4 697.204 525.859 697.582L525.859 700.257 504.582 700.257 504.582 697.582C506.041 697.204 507.034 696.771 507.56 696.285 508.087 695.799 508.445 695.157 508.634 694.36 508.824 693.563 508.918 692.138 508.918 690.084L508.918 655.15C508.918 653.096 508.83 651.671 508.655 650.874 508.479 650.077 508.121 649.435 507.581 648.949 507.04 648.463 506.041 648.017 504.582 647.612ZM414.582 644.937 453.772 644.937 453.772 657.825 448.219 657.825C447.328 655.258 446.571 653.522 445.95 652.617 445.328 651.712 444.585 650.996 443.721 650.469 442.856 649.942 441.384 649.679 439.303 649.679L431.482 649.679 431.482 670.307 436.669 670.307C437.939 670.307 438.918 670.111 439.607 669.719 440.296 669.328 440.864 668.672 441.31 667.754 441.755 666.835 442.127 665.538 442.424 663.863L447.004 663.863 447.004 681.533 442.424 681.533C442.1 679.831 441.708 678.514 441.249 677.582 440.789 676.65 440.222 675.994 439.547 675.616 438.871 675.238 437.912 675.049 436.669 675.049L431.482 675.049 431.482 690.084C431.482 692.192 431.59 693.658 431.806 694.482 432.022 695.306 432.448 695.968 433.082 696.467 433.717 696.967 434.818 697.339 436.385 697.582L436.385 700.257 414.582 700.257 414.582 697.582C416.014 697.231 416.993 696.805 417.52 696.305 418.047 695.806 418.412 695.157 418.614 694.36 418.817 693.563 418.918 692.124 418.918 690.044L418.918 655.15C418.918 653.096 418.83 651.671 418.655 650.874 418.479 650.077 418.121 649.435 417.581 648.949 417.04 648.463 416.041 648.017 414.582 647.612ZM368.582 644.937 389.859 644.937 389.859 647.612C388.427 647.99 387.447 648.422 386.92 648.909 386.393 649.395 386.022 650.043 385.806 650.854 385.59 651.664 385.482 653.069 385.482 655.069L385.482 695.434 393.344 695.434C395.046 695.434 396.431 695.117 397.498 694.482 398.565 693.847 399.484 692.779 400.254 691.28 401.024 689.78 401.787 687.315 402.544 683.884L408.096 683.884 407.204 700.257 368.582 700.257 368.582 697.582C370.041 697.204 371.034 696.771 371.56 696.285 372.087 695.799 372.445 695.15 372.634 694.34 372.824 693.529 372.918 692.097 372.918 690.044L372.918 655.15C372.918 653.096 372.83 651.671 372.655 650.874 372.479 650.077 372.121 649.435 371.581 648.949 371.04 648.463 370.041 648.017 368.582 647.612ZM482.413 644.289C484.817 644.289 487.114 644.417 489.302 644.674 491.491 644.93 493.99 645.383 496.8 646.031L496.8 657.784 491.248 657.784C490.518 654.731 489.438 652.509 488.006 651.117 486.574 649.726 484.507 649.03 481.805 649.03 479.373 649.03 477.421 649.665 475.949 650.935 474.476 652.205 473.74 653.934 473.74 656.122 473.74 657.69 474.044 659.047 474.652 660.195 475.26 661.344 476.28 662.465 477.712 663.559 479.144 664.654 481.224 665.903 483.953 667.308 487.276 669.037 489.89 670.733 491.795 672.394 493.7 674.056 495.105 675.866 496.01 677.825 496.915 679.784 497.367 682.06 497.367 684.654 497.367 687.977 496.597 690.861 495.057 693.306 493.517 695.751 491.275 697.629 488.33 698.94 485.385 700.25 481.98 700.905 478.117 700.905 475.361 700.905 472.49 700.75 469.505 700.439 466.519 700.128 463.716 699.676 461.095 699.081L461.095 686.599 466.648 686.599C467.323 689.814 468.451 692.212 470.032 693.793 471.612 695.373 473.929 696.164 476.982 696.164 479.657 696.164 481.744 695.475 483.244 694.097 484.743 692.719 485.493 690.76 485.493 688.22 485.493 685.734 484.77 683.661 483.325 681.999 481.879 680.338 479.373 678.615 475.807 676.832 472.835 675.373 470.356 673.867 468.37 672.313 466.384 670.76 464.817 668.956 463.669 666.903 462.521 664.849 461.946 662.499 461.946 659.851 461.946 656.528 462.771 653.704 464.419 651.381 466.067 649.057 468.451 647.294 471.572 646.092 474.692 644.89 478.306 644.289 482.413 644.289Z" fill="#FFFFFF" fill-rule="evenodd"/><text fill="#000000" fill-opacity="0" font-family="Arial,Arial_MSFontService,sans-serif" font-size="56.6167" x="368.582" y="693.828">𝐋𝐅𝐒𝐑</text><path d="M578.013 675.967C581.766 675.967 584.764 676.732 587.008 678.261 589.252 679.79 590.374 681.924 590.374 684.664 590.374 686.968 589.714 688.954 588.393 690.622 587.073 692.289 584.864 693.838 581.766 695.268L581.766 695.536C584.665 696.072 586.954 697.234 588.632 699.021 590.31 700.808 591.148 703.022 591.148 705.663 591.148 707.966 590.587 710.017 589.466 711.814 588.344 713.611 586.641 715.021 584.357 716.043 582.074 717.066 579.304 717.577 576.047 717.577 573.804 717.577 571.599 717.374 569.435 716.966 567.271 716.559 565.384 715.989 563.776 715.254L563.776 707.778 569.137 707.778C569.713 710.041 570.527 711.685 571.58 712.707 572.632 713.73 574.012 714.241 575.72 714.241 579.929 714.241 582.034 711.64 582.034 706.437 582.034 703.638 581.294 701.553 579.815 700.183 578.336 698.812 576.087 698.127 573.069 698.127L570.716 698.127 570.716 694.732C574.171 694.593 576.792 693.784 578.579 692.304 580.366 690.825 581.26 688.685 581.26 685.886 581.26 683.682 580.813 682.019 579.919 680.897 579.026 679.775 577.725 679.214 576.018 679.214 574.35 679.214 572.979 679.81 571.907 681.001 570.835 682.192 570.1 683.94 569.703 686.243L564.342 686.243 564.342 679.184C569.366 677.039 573.923 675.967 578.013 675.967Z" fill="#FFFFFF" fill-rule="evenodd"/><text fill="#000000" fill-opacity="0" font-family="Arial,Arial_MSFontService,sans-serif" font-size="41.6099" x="563.776" y="712.376">𝟑</text><rect x="243" y="909" width="502" height="219" fill="#D74514"/><path d="M526.061 997.259C523.738 997.259 522.211 997.286 521.482 997.34L521.482 1019.87 525.494 1019.87C528.25 1019.87 530.431 1019.39 532.039 1018.41 533.647 1017.44 534.768 1016.12 535.403 1014.46 536.038 1012.8 536.355 1010.74 536.355 1008.28 536.355 1004.61 535.491 1001.85 533.761 1000.02 532.032 998.178 529.466 997.259 526.061 997.259ZM504.582 992.517 528.209 992.517C532.1 992.517 535.335 992.869 537.915 993.571 540.496 994.274 542.549 995.24 544.076 996.469 545.602 997.698 546.771 999.218 547.581 1001.03 548.392 1002.84 548.797 1004.97 548.797 1007.43 548.797 1010.08 548.331 1012.35 547.399 1014.24 546.467 1016.13 545.21 1017.71 543.63 1018.96 542.049 1020.22 539.935 1021.4 537.287 1022.51L537.287 1022.91C539.287 1023.78 540.942 1024.93 542.252 1026.38 543.562 1027.82 544.744 1029.65 545.798 1031.87L548.351 1037.38C549.486 1039.84 550.614 1041.68 551.735 1042.91 552.857 1044.14 554.187 1044.89 555.727 1045.16L555.727 1047.84 540.124 1047.84C538.557 1045.68 536.787 1042.46 534.815 1038.19L531.654 1031.26C530.708 1029.21 529.898 1027.75 529.222 1026.88 528.547 1026.02 527.851 1025.43 527.135 1025.1 526.419 1024.78 525.318 1024.62 523.832 1024.62L521.482 1024.62 521.482 1037.66C521.482 1039.69 521.576 1041.11 521.765 1041.92 521.954 1042.73 522.319 1043.38 522.86 1043.87 523.4 1044.35 524.4 1044.78 525.859 1045.16L525.859 1047.84 504.582 1047.84 504.582 1045.16C506.041 1044.78 507.034 1044.35 507.56 1043.87 508.087 1043.38 508.445 1042.74 508.634 1041.94 508.824 1041.14 508.918 1039.72 508.918 1037.66L508.918 1002.73C508.918 1000.68 508.83 999.252 508.655 998.455 508.479 997.658 508.121 997.016 507.581 996.53 507.04 996.043 506.041 995.598 504.582 995.192ZM414.582 992.517 453.772 992.517 453.772 1005.41 448.219 1005.41C447.328 1002.84 446.571 1001.1 445.95 1000.2 445.328 999.292 444.585 998.576 443.721 998.049 442.856 997.523 441.384 997.259 439.303 997.259L431.482 997.259 431.482 1017.89 436.669 1017.89C437.939 1017.89 438.918 1017.69 439.607 1017.3 440.296 1016.91 440.864 1016.25 441.31 1015.33 441.755 1014.42 442.127 1013.12 442.424 1011.44L447.004 1011.44 447.004 1029.11 442.424 1029.11C442.1 1027.41 441.708 1026.09 441.249 1025.16 440.789 1024.23 440.222 1023.57 439.547 1023.2 438.871 1022.82 437.912 1022.63 436.669 1022.63L431.482 1022.63 431.482 1037.66C431.482 1039.77 431.59 1041.24 431.806 1042.06 432.022 1042.89 432.448 1043.55 433.082 1044.05 433.717 1044.55 434.818 1044.92 436.385 1045.16L436.385 1047.84 414.582 1047.84 414.582 1045.16C416.014 1044.81 416.993 1044.39 417.52 1043.89 418.047 1043.39 418.412 1042.74 418.614 1041.94 418.817 1041.14 418.918 1039.7 418.918 1037.62L418.918 1002.73C418.918 1000.68 418.83 999.252 418.655 998.455 418.479 997.658 418.121 997.016 417.581 996.53 417.04 996.043 416.041 995.598 414.582 995.192ZM368.582 992.517 389.859 992.517 389.859 995.192C388.427 995.57 387.447 996.003 386.92 996.489 386.393 996.975 386.022 997.624 385.806 998.434 385.59 999.245 385.482 1000.65 385.482 1002.65L385.482 1043.01 393.344 1043.01C395.046 1043.01 396.431 1042.7 397.498 1042.06 398.565 1041.43 399.484 1040.36 400.254 1038.86 401.024 1037.36 401.787 1034.9 402.544 1031.46L408.096 1031.46 407.204 1047.84 368.582 1047.84 368.582 1045.16C370.041 1044.78 371.034 1044.35 371.56 1043.87 372.087 1043.38 372.445 1042.73 372.634 1041.92 372.824 1041.11 372.918 1039.68 372.918 1037.62L372.918 1002.73C372.918 1000.68 372.83 999.252 372.655 998.455 372.479 997.658 372.121 997.016 371.581 996.53 371.04 996.043 370.041 995.598 368.582 995.192ZM482.413 991.869C484.817 991.869 487.114 991.997 489.302 992.254 491.491 992.511 493.99 992.963 496.8 993.612L496.8 1005.36 491.248 1005.36C490.518 1002.31 489.438 1000.09 488.006 998.698 486.574 997.306 484.507 996.611 481.805 996.611 479.373 996.611 477.421 997.246 475.949 998.516 474.476 999.785 473.74 1001.51 473.74 1003.7 473.74 1005.27 474.044 1006.63 474.652 1007.78 475.26 1008.92 476.28 1010.05 477.712 1011.14 479.144 1012.23 481.224 1013.48 483.953 1014.89 487.276 1016.62 489.89 1018.31 491.795 1019.97 493.7 1021.64 495.105 1023.45 496.01 1025.41 496.915 1027.36 497.367 1029.64 497.367 1032.23 497.367 1035.56 496.597 1038.44 495.057 1040.89 493.517 1043.33 491.275 1045.21 488.33 1046.52 485.385 1047.83 481.98 1048.49 478.117 1048.49 475.361 1048.49 472.49 1048.33 469.505 1048.02 466.519 1047.71 463.716 1047.26 461.095 1046.66L461.095 1034.18 466.648 1034.18C467.323 1037.39 468.451 1039.79 470.032 1041.37 471.612 1042.95 473.929 1043.74 476.982 1043.74 479.657 1043.74 481.744 1043.06 483.244 1041.68 484.743 1040.3 485.493 1038.34 485.493 1035.8 485.493 1033.31 484.77 1031.24 483.325 1029.58 481.879 1027.92 479.373 1026.2 475.807 1024.41 472.835 1022.95 470.356 1021.45 468.37 1019.89 466.384 1018.34 464.817 1016.54 463.669 1014.48 462.521 1012.43 461.946 1010.08 461.946 1007.43 461.946 1004.11 462.771 1001.28 464.419 998.961 466.067 996.638 468.451 994.875 471.572 993.672 474.692 992.47 478.306 991.869 482.413 991.869Z" fill="#FFFFFF" fill-rule="evenodd"/><text fill="#000000" fill-opacity="0" font-family="Arial,Arial_MSFontService,sans-serif" font-size="56.6167" x="368.582" y="1041.41">𝐋𝐅𝐒𝐑</text><path d="M577.924 1023.55C580.843 1023.55 583.226 1023.94 585.072 1024.72 586.919 1025.51 588.254 1026.57 589.078 1027.91 589.902 1029.25 590.314 1030.82 590.314 1032.6 590.314 1034.17 590.022 1035.63 589.436 1036.98 588.85 1038.33 587.837 1039.87 586.398 1041.6 584.958 1043.33 582.531 1045.8 579.115 1049.01 578.063 1050.01 576.807 1051.31 575.347 1052.93 573.888 1054.55 572.731 1055.93 571.877 1057.09L571.877 1057.38 582.451 1057.38C583.742 1057.38 584.705 1057.29 585.34 1057.1 585.976 1056.91 586.477 1056.58 586.844 1056.12 587.212 1055.65 587.515 1054.95 587.753 1054.02L591.178 1054.02 590.493 1064.68 563.21 1064.68 563.21 1062.72C564.739 1059.2 567.866 1054.67 572.592 1049.13 574.737 1046.61 576.37 1044.54 577.492 1042.91 578.614 1041.28 579.453 1039.74 580.009 1038.29 580.565 1036.84 580.843 1035.34 580.843 1033.79 580.843 1031.61 580.356 1029.9 579.383 1028.66 578.41 1027.41 577.08 1026.79 575.392 1026.79 572.155 1026.79 570.08 1029.13 569.167 1033.79L563.806 1033.79 563.806 1026.76C567.042 1025.45 569.654 1024.59 571.639 1024.17 573.625 1023.76 575.72 1023.55 577.924 1023.55Z" fill="#FFFFFF" fill-rule="evenodd"/><text fill="#000000" fill-opacity="0" font-family="Arial,Arial_MSFontService,sans-serif" font-size="41.1333" x="563.21" y="1059.54">𝟐</text><rect x="1193" y="214" width="507" height="566" fill="#D74514"/><text fill="#FFFFFF" font-family="Microsoft YaHei,Microsoft YaHei_MSFontService,sans-serif" font-weight="700" font-size="83" transform="matrix(1 0 0 1 1239.96 526)">多路复合器</text><path d="M1014.8 151.63C1021.93 151.981 1027.38 154.561 1031.15 159.37 1034.92 164.179 1036.8 171.623 1036.8 181.701 1036.8 185.321 1036.39 189.82 1035.57 195.196 1034.74 200.573 1034.33 204.072 1034.33 205.693 1034.33 209.476 1035.12 212.434 1036.68 214.568 1038.25 216.703 1040.53 217.797 1043.53 217.851L1043.53 221.337C1040.51 221.418 1038.22 222.532 1036.66 224.68 1035.11 226.828 1034.33 229.753 1034.33 233.454 1034.33 234.94 1034.74 238.628 1035.57 244.518 1036.39 250.408 1036.8 254.907 1036.8 258.014 1036.8 267.443 1035.02 274.684 1031.45 279.736 1027.89 284.789 1022.34 287.423 1014.8 287.639L1014.8 284.397C1017.18 284.235 1019.27 283.661 1021.08 282.675 1022.89 281.688 1024.46 280.196 1025.78 278.196 1027.1 276.251 1028.08 273.738 1028.7 270.658 1029.32 267.578 1029.63 263.877 1029.63 259.554 1029.63 257.635 1029.27 253.576 1028.54 247.375 1027.81 241.175 1027.44 237.399 1027.44 236.048 1027.44 231.401 1028.43 227.726 1030.4 225.025 1032.37 222.323 1034.18 220.648 1035.83 219.999L1035.83 219.189C1034.18 218.594 1032.37 216.912 1030.4 214.143 1028.43 211.374 1027.44 207.679 1027.44 203.059 1027.44 201.005 1027.81 197.297 1028.54 191.934 1029.27 186.571 1029.63 182.39 1029.63 179.391 1029.63 175.095 1029.29 171.427 1028.6 168.388 1027.91 165.348 1026.92 162.856 1025.62 160.91 1024.32 158.965 1022.76 157.513 1020.94 156.554 1019.11 155.594 1017.07 155.034 1014.8 154.872ZM873.763 151.63 873.763 154.872C871.493 155.034 869.44 155.594 867.602 156.554 865.765 157.513 864.205 158.965 862.922 160.91 861.638 162.856 860.652 165.348 859.963 168.388 859.274 171.427 858.93 175.095 858.93 179.391 858.93 182.39 859.294 186.571 860.024 191.934 860.753 197.297 861.118 201.005 861.118 203.059 861.118 207.679 860.125 211.374 858.139 214.143 856.154 216.912 854.35 218.594 852.729 219.189L852.729 219.999C854.35 220.648 856.154 222.323 858.139 225.025 860.125 227.726 861.118 231.401 861.118 236.048 861.118 237.399 860.753 241.175 860.024 247.375 859.294 253.576 858.93 257.635 858.93 259.554 858.93 263.877 859.24 267.578 859.862 270.658 860.483 273.738 861.442 276.251 862.739 278.196 864.09 280.196 865.671 281.688 867.481 282.675 869.291 283.661 871.385 284.235 873.763 284.397L873.763 287.639C866.198 287.423 860.638 284.789 857.086 279.736 853.533 274.684 851.756 267.443 851.756 258.014 851.756 254.907 852.168 250.408 852.992 244.518 853.816 238.628 854.228 234.94 854.228 233.454 854.228 229.753 853.452 226.828 851.898 224.68 850.345 222.532 848.055 221.418 845.029 221.337L845.029 217.851C848.028 217.797 850.311 216.703 851.878 214.568 853.445 212.434 854.228 209.476 854.228 205.693 854.228 204.072 853.816 200.573 852.992 195.196 852.168 189.82 851.756 185.321 851.756 181.701 851.756 171.623 853.634 164.179 857.39 159.37 861.145 154.561 866.603 151.981 873.763 151.63Z" fill-rule="evenodd"/><path d="M902.046 207.089C899.264 207.089 896.764 208.21 894.549 210.452 892.333 212.695 890.604 215.701 889.361 219.47 888.119 223.239 887.497 227.001 887.497 230.756 887.497 233.566 887.882 235.667 888.652 237.058 889.422 238.45 890.712 239.146 892.523 239.146 894.306 239.146 896.055 238.376 897.771 236.836 899.486 235.296 901.256 233.1 903.08 230.25 904.904 227.399 906.194 224.11 906.95 220.381L907.315 218.639C907.558 217.531 907.72 216.572 907.801 215.761 907.882 214.951 907.923 214.073 907.923 213.127 907.923 211.047 907.477 209.52 906.586 208.547 905.694 207.575 904.181 207.089 902.046 207.089ZM901.236 203.887C902.992 203.887 904.633 204.083 906.16 204.474 907.687 204.866 909.26 205.562 910.881 206.562L914.61 203.887 917.204 204.535 911.246 230.23C910.652 232.796 910.355 234.796 910.355 236.228 910.355 237.308 910.53 238.092 910.881 238.578 911.233 239.065 911.786 239.308 912.543 239.308 913.354 239.308 914.218 238.977 915.137 238.315 916.055 237.653 917.352 236.39 919.027 234.526L921.337 236.795C918.906 239.389 916.832 241.233 915.117 242.327 913.401 243.421 911.543 243.968 909.544 243.968 907.869 243.968 906.531 243.415 905.532 242.307 904.532 241.199 904.032 239.727 904.032 237.889 904.032 236.403 904.343 234.823 904.964 233.148L904.438 232.985C901.844 236.768 899.385 239.537 897.062 241.294 894.738 243.05 892.279 243.928 889.686 243.928 886.714 243.928 884.41 242.807 882.776 240.564 881.141 238.322 880.324 235.174 880.324 231.121 880.324 226.474 881.236 222.009 883.059 217.727 884.883 213.445 887.389 210.067 890.577 207.595 893.765 205.123 897.318 203.887 901.236 203.887Z" fill-rule="evenodd"/><text fill="#000000" fill-opacity="0" font-family="Arial,Arial_MSFontService,sans-serif" font-size="40.0815" x="880.324" y="238.958">𝑎</text><path d="M937.986 227.482 940.13 227.482 934.888 250.655 935.722 250.655C936.477 250.655 937.291 250.496 938.164 250.178 939.038 249.861 939.907 249.449 940.771 248.942 941.634 248.436 942.463 247.865 943.258 247.23 944.052 246.594 944.752 245.954 945.358 245.308 945.963 244.663 946.445 244.052 946.802 243.477 947.16 242.901 947.338 242.414 947.338 242.017 947.338 241.541 947.179 241.153 946.862 240.855 946.544 240.558 945.968 240.359 945.134 240.26L945.492 238.354 956.214 238.354 956.959 240.2C955.708 241.272 954.507 242.265 953.355 243.179 952.203 244.092 951.076 244.971 949.974 245.815 948.872 246.659 947.77 247.488 946.668 248.302 945.566 249.116 944.439 249.96 943.287 250.834 943.764 252.343 944.251 253.877 944.747 255.435 945.243 256.994 945.74 258.538 946.236 260.067 946.474 260.881 946.698 261.581 946.906 262.167 947.115 262.753 947.338 263.229 947.577 263.596 947.815 263.964 948.073 264.237 948.351 264.416 948.629 264.594 948.966 264.684 949.364 264.684 949.642 264.684 949.93 264.634 950.227 264.535 950.525 264.435 950.858 264.257 951.225 263.999 951.593 263.74 952.01 263.388 952.476 262.941 952.943 262.494 953.474 261.933 954.07 261.258L956.095 263.194C955.162 264.147 954.293 264.972 953.489 265.667 952.685 266.362 951.92 266.932 951.195 267.379 950.471 267.826 949.771 268.154 949.096 268.362 948.42 268.571 947.735 268.675 947.04 268.675 945.789 268.675 944.782 268.362 944.017 267.737 943.253 267.111 942.602 266.218 942.066 265.056 941.53 263.894 941.039 262.489 940.592 260.841 940.145 259.193 939.624 257.356 939.028 255.331 938.889 254.855 938.755 254.472 938.626 254.184 938.497 253.896 938.333 253.678 938.135 253.529 937.936 253.38 937.688 253.286 937.39 253.246 937.092 253.206 936.715 253.187 936.258 253.187L934.352 253.187 931.076 268.139 925.357 268.139 932.565 236.149C932.803 235.097 932.972 234.268 933.071 233.662 933.17 233.057 933.22 232.516 933.22 232.039 933.22 231.662 933.156 231.334 933.026 231.056 932.897 230.778 932.684 230.555 932.386 230.386 932.088 230.217 931.691 230.093 931.195 230.014 930.698 229.934 930.083 229.885 929.348 229.865L929.795 227.839Z" fill-rule="evenodd"/><text fill="#000000" fill-opacity="0" font-family="Arial,Arial_MSFontService,sans-serif" font-size="41.1929" x="925.357" y="263.526">𝑘</text><path d="M985.804 156.166C991.603 157.695 996.055 160.996 999.163 166.069 1002.27 171.143 1003.82 177.264 1003.82 184.432 1003.82 191.62 1002.28 197.741 999.178 202.794 996.08 207.848 991.622 211.139 985.804 212.668L985.09 210.375C989.677 208.846 993.087 205.828 995.321 201.32 997.555 196.813 998.672 191.084 998.672 184.134 998.672 177.423 997.56 171.848 995.336 167.41 993.112 162.972 989.667 159.988 985 158.459ZM947.3 156.166 948.104 158.459C943.457 159.988 940.017 162.972 937.783 167.41 935.549 171.848 934.433 177.423 934.433 184.134 934.433 191.084 935.549 196.813 937.783 201.32 940.017 205.828 943.428 208.846 948.015 210.375L947.3 212.668C941.482 211.139 937.024 207.848 933.926 202.794 930.829 197.741 929.28 191.62 929.28 184.432 929.28 177.264 930.833 171.143 933.941 166.069 937.049 160.996 941.502 157.695 947.3 156.166Z" fill-rule="evenodd"/><path d="M969.025 163.386 970.842 163.386C970.803 164.478 970.773 165.456 970.753 166.32 970.733 167.183 970.718 168.022 970.708 168.837 970.698 169.651 970.693 170.455 970.693 171.249L970.693 193.886C970.693 194.501 970.713 195.033 970.753 195.479 970.793 195.926 970.857 196.303 970.947 196.611 971.036 196.919 971.155 197.182 971.304 197.4 971.453 197.619 971.627 197.808 971.825 197.966 972.064 198.205 972.381 198.388 972.778 198.517 973.176 198.646 973.682 198.756 974.297 198.845 974.913 198.934 975.653 199.004 976.516 199.054 977.38 199.103 978.418 199.138 979.629 199.158L979.629 201.749 956.009 201.749 956.009 199.158C957.181 199.118 958.174 199.073 958.988 199.024 959.802 198.974 960.497 198.905 961.073 198.815 961.649 198.726 962.11 198.627 962.458 198.517 962.805 198.408 963.108 198.274 963.366 198.115 963.644 197.937 963.883 197.743 964.081 197.535 964.28 197.326 964.439 197.063 964.558 196.745 964.677 196.428 964.771 196.04 964.841 195.584 964.91 195.127 964.945 194.561 964.945 193.886L964.945 172.53C964.945 171.755 964.796 171.209 964.498 170.892 964.2 170.574 963.773 170.415 963.217 170.415 962.602 170.415 961.688 170.733 960.477 171.368 959.266 172.004 957.697 172.947 955.771 174.198 955.513 173.741 955.275 173.284 955.056 172.828 954.838 172.371 954.609 171.904 954.371 171.428 956.833 170.078 959.271 168.732 961.683 167.392 964.096 166.052 966.543 164.716 969.025 163.386Z" fill-rule="evenodd"/><text fill="#000000" fill-opacity="0" font-family="Arial,Arial_MSFontService,sans-serif" font-size="38.3633" x="954.371" y="196.954">1</text><path d="M1017.54 499.209C1024.67 499.561 1030.12 502.141 1033.89 506.95 1037.66 511.759 1039.54 519.203 1039.54 529.281 1039.54 532.901 1039.13 537.4 1038.31 542.776 1037.48 548.153 1037.07 551.652 1037.07 553.273 1037.07 557.055 1037.85 560.014 1039.42 562.148 1040.99 564.283 1043.27 565.377 1046.27 565.431L1046.27 568.916C1043.24 568.997 1040.95 570.112 1039.4 572.26 1037.85 574.408 1037.07 577.332 1037.07 581.034 1037.07 582.52 1037.48 586.208 1038.31 592.098 1039.13 597.988 1039.54 602.486 1039.54 605.594 1039.54 615.023 1037.76 622.264 1034.19 627.316 1030.63 632.369 1025.07 635.003 1017.54 635.219L1017.54 631.977C1019.91 631.815 1022.01 631.241 1023.82 630.254 1025.63 629.268 1027.19 627.776 1028.52 625.776 1029.84 623.831 1030.81 621.318 1031.44 618.238 1032.06 615.158 1032.37 611.456 1032.37 607.134 1032.37 605.215 1032 601.156 1031.27 594.955 1030.54 588.754 1030.18 584.979 1030.18 583.628 1030.18 578.981 1031.17 575.306 1033.14 572.604 1035.11 569.902 1036.92 568.227 1038.57 567.579L1038.57 566.768C1036.92 566.174 1035.11 564.492 1033.14 561.723 1031.17 558.953 1030.18 555.259 1030.18 550.638 1030.18 548.585 1030.54 544.877 1031.27 539.514 1032 534.151 1032.37 529.97 1032.37 526.971 1032.37 522.675 1032.02 519.007 1031.33 515.967 1030.65 512.928 1029.65 510.435 1028.36 508.49 1027.06 506.545 1025.5 505.092 1023.68 504.133 1021.85 503.174 1019.8 502.614 1017.54 502.451ZM876.5 499.209 876.5 502.451C874.23 502.614 872.177 503.174 870.34 504.133 868.503 505.092 866.942 506.545 865.659 508.49 864.376 510.435 863.389 512.928 862.7 515.967 862.011 519.007 861.667 522.675 861.667 526.971 861.667 529.97 862.032 534.151 862.761 539.514 863.491 544.877 863.855 548.585 863.855 550.638 863.855 555.259 862.863 558.953 860.877 561.723 858.891 564.492 857.087 566.174 855.466 566.768L855.466 567.579C857.087 568.227 858.891 569.902 860.877 572.604 862.863 575.306 863.855 578.981 863.855 583.628 863.855 584.979 863.491 588.754 862.761 594.955 862.032 601.156 861.667 605.215 861.667 607.134 861.667 611.456 861.978 615.158 862.599 618.238 863.221 621.318 864.18 623.831 865.477 625.776 866.827 627.776 868.408 629.268 870.218 630.254 872.028 631.241 874.122 631.815 876.5 631.977L876.5 635.219C868.935 635.003 863.376 632.369 859.823 627.316 856.27 622.264 854.494 615.023 854.494 605.594 854.494 602.486 854.906 597.988 855.73 592.098 856.554 586.208 856.966 582.52 856.966 581.034 856.966 577.332 856.189 574.408 854.635 572.26 853.082 570.112 850.792 568.997 847.766 568.916L847.766 565.431C850.765 565.377 853.048 564.283 854.615 562.148 856.182 560.014 856.966 557.055 856.966 553.273 856.966 551.652 856.554 548.153 855.73 542.776 854.906 537.4 854.494 532.901 854.494 529.281 854.494 519.203 856.371 511.759 860.127 506.95 863.882 502.141 869.34 499.561 876.5 499.209Z" fill-rule="evenodd"/><path d="M904.784 554.668C902.001 554.668 899.502 555.79 897.286 558.032 895.071 560.275 893.342 563.28 892.099 567.049 890.856 570.818 890.234 574.581 890.234 578.336 890.234 581.146 890.62 583.247 891.39 584.638 892.16 586.03 893.45 586.725 895.26 586.725 897.043 586.725 898.793 585.955 900.508 584.415 902.224 582.875 903.994 580.68 905.817 577.83 907.641 574.979 908.931 571.69 909.688 567.961L910.052 566.219C910.296 565.111 910.458 564.152 910.539 563.341 910.62 562.531 910.66 561.652 910.66 560.707 910.66 558.626 910.214 557.1 909.323 556.127 908.431 555.155 906.918 554.668 904.784 554.668ZM903.973 551.467C905.729 551.467 907.371 551.662 908.897 552.054 910.424 552.446 911.998 553.142 913.619 554.141L917.347 551.467 919.941 552.115 913.984 577.809C913.389 580.376 913.092 582.375 913.092 583.807 913.092 584.888 913.268 585.672 913.619 586.158 913.97 586.644 914.524 586.888 915.28 586.888 916.091 586.888 916.956 586.557 917.874 585.895 918.793 585.233 920.09 583.97 921.765 582.105L924.075 584.375C921.643 586.969 919.57 588.813 917.854 589.907 916.138 591.001 914.281 591.548 912.281 591.548 910.606 591.548 909.269 590.994 908.269 589.887 907.269 588.779 906.77 587.306 906.77 585.469 906.77 583.983 907.08 582.402 907.702 580.727L907.175 580.565C904.581 584.348 902.122 587.117 899.799 588.873 897.475 590.63 895.017 591.508 892.423 591.508 889.451 591.508 887.148 590.386 885.513 588.144 883.878 585.901 883.061 582.754 883.061 578.701 883.061 574.054 883.973 569.589 885.797 565.307 887.62 561.024 890.126 557.647 893.315 555.175 896.503 552.703 900.056 551.467 903.973 551.467Z" fill-rule="evenodd"/><text fill="#000000" fill-opacity="0" font-family="Arial,Arial_MSFontService,sans-serif" font-size="40.0815" x="883.061" y="586.538">𝑎</text><path d="M940.723 575.062 942.868 575.062 937.625 598.235 938.459 598.235C939.214 598.235 940.028 598.076 940.902 597.758 941.776 597.44 942.644 597.028 943.508 596.522 944.372 596.016 945.201 595.445 945.995 594.809 946.789 594.174 947.489 593.533 948.095 592.888 948.701 592.243 949.182 591.632 949.539 591.056 949.897 590.48 950.076 589.994 950.076 589.597 950.076 589.12 949.917 588.733 949.599 588.435 949.281 588.137 948.706 587.939 947.872 587.84L948.229 585.933 958.952 585.933 959.696 587.78C958.445 588.852 957.244 589.845 956.092 590.758 954.941 591.672 953.814 592.551 952.712 593.394 951.61 594.238 950.508 595.067 949.405 595.882 948.303 596.696 947.177 597.54 946.025 598.413 946.501 599.922 946.988 601.456 947.484 603.015 947.981 604.574 948.477 606.118 948.974 607.647 949.212 608.461 949.435 609.161 949.644 609.747 949.852 610.332 950.076 610.809 950.314 611.176 950.552 611.544 950.81 611.817 951.088 611.995 951.366 612.174 951.704 612.263 952.101 612.263 952.379 612.263 952.667 612.214 952.965 612.114 953.263 612.015 953.595 611.836 953.963 611.578 954.33 611.32 954.747 610.968 955.214 610.521 955.68 610.074 956.211 609.513 956.807 608.838L958.832 610.774C957.899 611.727 957.03 612.551 956.226 613.246 955.422 613.941 954.658 614.512 953.933 614.959 953.208 615.406 952.508 615.733 951.833 615.942 951.158 616.15 950.473 616.255 949.778 616.255 948.527 616.255 947.519 615.942 946.755 615.316 945.99 614.691 945.34 613.797 944.804 612.636 944.268 611.474 943.776 610.069 943.329 608.421 942.883 606.773 942.361 604.936 941.766 602.911 941.627 602.434 941.493 602.052 941.363 601.764 941.234 601.476 941.071 601.258 940.872 601.109 940.673 600.96 940.425 600.866 940.127 600.826 939.83 600.786 939.452 600.766 938.996 600.766L937.089 600.766 933.813 615.718 928.094 615.718 935.302 583.729C935.54 582.677 935.709 581.848 935.809 581.242 935.908 580.636 935.957 580.095 935.957 579.619 935.957 579.242 935.893 578.914 935.764 578.636 935.635 578.358 935.421 578.135 935.123 577.966 934.826 577.797 934.428 577.673 933.932 577.593 933.436 577.514 932.82 577.464 932.085 577.445L932.532 575.419Z" fill-rule="evenodd"/><text fill="#000000" fill-opacity="0" font-family="Arial,Arial_MSFontService,sans-serif" font-size="41.1929" x="928.094" y="611.105">𝑘</text><path d="M988.542 503.746C994.34 505.275 998.793 508.576 1001.9 513.649 1005.01 518.723 1006.56 524.843 1006.56 532.012 1006.56 539.2 1005.01 545.321 1001.92 550.374 998.818 555.428 994.36 558.719 988.542 560.248L987.827 557.955C992.414 556.426 995.824 553.407 998.058 548.9 1000.29 544.392 1001.41 538.664 1001.41 531.714 1001.41 525.002 1000.3 519.427 998.073 514.99 995.849 510.552 992.404 507.568 987.738 506.039ZM950.037 503.746 950.841 506.039C946.195 507.568 942.755 510.552 940.521 514.99 938.287 519.427 937.17 525.002 937.17 531.714 937.17 538.664 938.287 544.392 940.521 548.9 942.755 553.407 946.165 556.426 950.752 557.955L950.037 560.248C944.219 558.719 939.761 555.428 936.664 550.374 933.566 545.321 932.017 539.2 932.017 532.012 932.017 524.843 933.571 518.723 936.678 513.649 939.786 508.576 944.239 505.275 950.037 503.746Z" fill-rule="evenodd"/><path d="M969.38 510.757C970.969 510.757 972.453 510.926 973.833 511.263 975.213 511.601 976.409 512.112 977.422 512.797 978.435 513.482 979.224 514.336 979.79 515.359 980.356 516.382 980.639 517.568 980.639 518.918 980.639 520.189 980.46 521.311 980.103 522.284 979.745 523.257 979.194 524.141 978.45 524.935 977.705 525.729 976.792 526.449 975.709 527.094 974.627 527.74 973.381 528.36 971.971 528.956L971.971 529.313C973.302 529.552 974.543 529.934 975.694 530.46 976.846 530.986 977.854 531.651 978.718 532.456 979.581 533.26 980.262 534.188 980.758 535.241 981.254 536.293 981.503 537.455 981.503 538.725 981.503 540.314 981.205 541.788 980.609 543.148 980.013 544.509 979.12 545.685 977.928 546.678 976.737 547.671 975.268 548.445 973.52 549.001 971.773 549.557 969.727 549.835 967.384 549.835 965.538 549.835 963.661 549.652 961.755 549.284 959.849 548.917 958.042 548.435 956.334 547.84L956.334 541.406 960.176 541.406C960.494 542.399 960.871 543.248 961.308 543.953 961.745 544.658 962.256 545.233 962.842 545.68 963.428 546.127 964.103 546.45 964.868 546.648 965.632 546.847 966.501 546.946 967.474 546.946 970.035 546.946 971.976 546.336 973.297 545.114 974.617 543.893 975.277 542.042 975.277 539.559 975.277 536.918 974.409 534.918 972.671 533.558 970.934 532.198 968.357 531.517 964.942 531.517L962.321 531.517 962.321 528.658C964.406 528.559 966.208 528.266 967.727 527.779 969.246 527.293 970.512 526.662 971.525 525.888 972.537 525.114 973.292 524.21 973.788 523.178 974.285 522.145 974.533 521.043 974.533 519.871 974.533 517.965 973.967 516.461 972.835 515.359 971.703 514.257 970.065 513.706 967.921 513.706 966.114 513.706 964.599 514.202 963.378 515.195 962.157 516.188 961.219 517.667 960.564 519.633L956.781 519.633 956.781 513.765C959.124 512.773 961.333 512.023 963.408 511.517 965.483 511.01 967.474 510.757 969.38 510.757Z" fill-rule="evenodd"/><text fill="#000000" fill-opacity="0" font-family="Arial,Arial_MSFontService,sans-serif" font-size="39.0781" x="956.334" y="544.951">3</text><path d="M3.69108e-06-4.58333 406.882-4.58301 406.882 4.58366-3.69108e-06 4.58333ZM402.298-22.9163 448.132 0.000360892 402.298 22.917Z" transform="matrix(1 0 0 -1 745.5 671.5)"/><path d="M1026.96 852.635C1034.09 852.986 1039.54 855.567 1043.31 860.376 1047.08 865.185 1048.96 872.629 1048.96 882.706 1048.96 886.327 1048.55 890.825 1047.73 896.202 1046.9 901.579 1046.49 905.078 1046.49 906.699 1046.49 910.481 1047.27 913.44 1048.84 915.574 1050.41 917.709 1052.69 918.803 1055.69 918.857L1055.69 922.342C1052.66 922.423 1050.37 923.538 1048.82 925.686 1047.27 927.834 1046.49 930.758 1046.49 934.46 1046.49 935.946 1046.9 939.634 1047.73 945.524 1048.55 951.414 1048.96 955.912 1048.96 959.019 1048.96 968.449 1047.18 975.69 1043.61 980.742 1040.05 985.794 1034.49 988.429 1026.96 988.645L1026.96 985.403C1029.33 985.241 1031.43 984.666 1033.24 983.68 1035.05 982.694 1036.62 981.201 1037.94 979.202 1039.26 977.257 1040.24 974.744 1040.86 971.664 1041.48 968.584 1041.79 964.882 1041.79 960.559 1041.79 958.641 1041.42 954.582 1040.7 948.381 1039.97 942.18 1039.6 938.404 1039.6 937.054 1039.6 932.406 1040.59 928.732 1042.56 926.03 1044.53 923.328 1046.34 921.653 1047.99 921.005L1047.99 920.194C1046.34 919.6 1044.53 917.918 1042.56 915.149 1040.59 912.379 1039.6 908.684 1039.6 904.064 1039.6 902.011 1039.97 898.303 1040.7 892.94 1041.42 887.576 1041.79 883.395 1041.79 880.396 1041.79 876.1 1041.45 872.433 1040.76 869.393 1040.07 866.354 1039.07 863.861 1037.78 861.916 1036.48 859.971 1034.92 858.518 1033.1 857.559 1031.27 856.6 1029.23 856.039 1026.96 855.877ZM885.921 852.635 885.921 855.877C883.652 856.039 881.599 856.6 879.761 857.559 877.924 858.518 876.364 859.971 875.08 861.916 873.797 863.861 872.811 866.354 872.122 869.393 871.433 872.433 871.088 876.1 871.088 880.396 871.088 883.395 871.453 887.576 872.183 892.94 872.912 898.303 873.277 902.011 873.277 904.064 873.277 908.684 872.284 912.379 870.298 915.149 868.312 917.918 866.509 919.6 864.888 920.194L864.888 921.005C866.509 921.653 868.312 923.328 870.298 926.03 872.284 928.732 873.277 932.406 873.277 937.054 873.277 938.404 872.912 942.18 872.183 948.381 871.453 954.582 871.088 958.641 871.088 960.559 871.088 964.882 871.399 968.584 872.021 971.664 872.642 974.744 873.601 977.257 874.898 979.202 876.249 981.201 877.829 982.694 879.64 983.68 881.45 984.666 883.544 985.241 885.921 985.403L885.921 988.645C878.356 988.429 872.797 985.794 869.244 980.742 865.692 975.69 863.915 968.449 863.915 959.019 863.915 955.912 864.327 951.414 865.151 945.524 865.975 939.634 866.387 935.946 866.387 934.46 866.387 930.758 865.61 927.834 864.057 925.686 862.503 923.538 860.214 922.423 857.188 922.342L857.188 918.857C860.187 918.803 862.47 917.709 864.037 915.574 865.604 913.44 866.387 910.481 866.387 906.699 866.387 905.078 865.975 901.579 865.151 896.202 864.327 890.825 863.915 886.327 863.915 882.706 863.915 872.629 865.793 865.185 869.548 860.376 873.304 855.567 878.762 852.986 885.921 852.635Z" fill-rule="evenodd"/><path d="M914.205 908.094C911.422 908.094 908.923 909.215 906.708 911.458 904.492 913.7 902.763 916.706 901.52 920.475 900.277 924.244 899.656 928.007 899.656 931.762 899.656 934.572 900.041 936.673 900.811 938.064 901.581 939.456 902.871 940.151 904.681 940.151 906.465 940.151 908.214 939.381 909.93 937.841 911.645 936.301 913.415 934.106 915.239 931.255 917.062 928.405 918.353 925.116 919.109 921.387L919.474 919.644C919.717 918.537 919.879 917.578 919.96 916.767 920.041 915.956 920.082 915.078 920.082 914.133 920.082 912.052 919.636 910.526 918.744 909.553 917.853 908.58 916.34 908.094 914.205 908.094ZM913.395 904.892C915.151 904.892 916.792 905.088 918.319 905.48 919.845 905.872 921.419 906.568 923.04 907.567L926.769 904.892 929.362 905.541 923.405 931.235C922.811 933.802 922.513 935.801 922.513 937.233 922.513 938.314 922.689 939.098 923.04 939.584 923.391 940.07 923.945 940.313 924.702 940.313 925.512 940.313 926.377 939.982 927.296 939.32 928.214 938.659 929.511 937.395 931.186 935.531L933.496 937.801C931.065 940.394 928.991 942.238 927.275 943.333 925.56 944.427 923.702 944.974 921.703 944.974 920.028 944.974 918.69 944.42 917.691 943.312 916.691 942.205 916.191 940.732 916.191 938.895 916.191 937.409 916.502 935.828 917.123 934.153L916.596 933.991C914.003 937.774 911.544 940.543 909.22 942.299 906.897 944.055 904.438 944.933 901.844 944.933 898.872 944.933 896.569 943.812 894.935 941.57 893.3 939.327 892.483 936.18 892.483 932.127 892.483 927.48 893.394 923.015 895.218 918.733 897.042 914.45 899.548 911.073 902.736 908.601 905.924 906.129 909.477 904.892 913.395 904.892Z" fill-rule="evenodd"/><text fill="#000000" fill-opacity="0" font-family="Arial,Arial_MSFontService,sans-serif" font-size="40.0815" x="892.483" y="939.964">𝑎</text><path d="M950.145 928.488 952.289 928.488 947.047 951.66 947.881 951.66C948.635 951.66 949.45 951.502 950.323 951.184 951.197 950.866 952.066 950.454 952.929 949.948 953.793 949.441 954.622 948.871 955.417 948.235 956.211 947.6 956.911 946.959 957.516 946.314 958.122 945.669 958.604 945.058 958.961 944.482 959.318 943.906 959.497 943.42 959.497 943.023 959.497 942.546 959.338 942.159 959.021 941.861 958.703 941.563 958.127 941.365 957.293 941.265L957.65 939.359 968.373 939.359 969.118 941.206C967.867 942.278 966.665 943.271 965.514 944.184 964.362 945.098 963.235 945.976 962.133 946.82 961.031 947.664 959.929 948.493 958.827 949.307 957.725 950.122 956.598 950.965 955.446 951.839 955.923 953.348 956.409 954.882 956.906 956.441 957.402 958 957.899 959.544 958.395 961.073 958.633 961.887 958.857 962.587 959.065 963.172 959.274 963.758 959.497 964.235 959.735 964.602 959.974 964.969 960.232 965.242 960.51 965.421 960.788 965.6 961.125 965.689 961.522 965.689 961.8 965.689 962.088 965.64 962.386 965.54 962.684 965.441 963.017 965.262 963.384 965.004 963.751 964.746 964.168 964.394 964.635 963.947 965.102 963.5 965.633 962.939 966.229 962.264L968.254 964.2C967.321 965.153 966.452 965.977 965.648 966.672 964.844 967.367 964.079 967.938 963.354 968.385 962.629 968.832 961.93 969.159 961.254 969.368 960.579 969.576 959.894 969.68 959.199 969.68 957.948 969.68 956.94 969.368 956.176 968.742 955.412 968.117 954.761 967.223 954.225 966.062 953.689 964.9 953.198 963.495 952.751 961.847 952.304 960.199 951.783 958.362 951.187 956.337 951.048 955.86 950.914 955.478 950.785 955.19 950.656 954.902 950.492 954.684 950.293 954.535 950.095 954.386 949.847 954.292 949.549 954.252 949.251 954.212 948.874 954.192 948.417 954.192L946.511 954.192 943.234 969.144 937.516 969.144 944.724 937.155C944.962 936.103 945.131 935.274 945.23 934.668 945.329 934.062 945.379 933.521 945.379 933.045 945.379 932.667 945.314 932.34 945.185 932.062 945.056 931.784 944.843 931.56 944.545 931.392 944.247 931.223 943.85 931.099 943.354 931.019 942.857 930.94 942.242 930.89 941.507 930.87L941.954 928.845Z" fill-rule="evenodd"/><text fill="#000000" fill-opacity="0" font-family="Arial,Arial_MSFontService,sans-serif" font-size="41.1929" x="937.516" y="964.531">𝑘</text><path d="M997.963 857.171C1003.76 858.7 1008.21 862.002 1011.32 867.075 1014.43 872.148 1015.98 878.269 1015.98 885.438 1015.98 892.626 1014.43 898.747 1011.34 903.8 1008.24 908.854 1003.78 912.145 997.963 913.674L997.248 911.38C1001.84 909.851 1005.25 906.833 1007.48 902.326 1009.71 897.818 1010.83 892.09 1010.83 885.14 1010.83 878.428 1009.72 872.853 1007.49 868.415 1005.27 863.977 1001.83 860.994 997.159 859.465ZM959.459 857.171 960.263 859.465C955.616 860.994 952.176 863.977 949.942 868.415 947.708 872.853 946.591 878.428 946.591 885.14 946.591 892.09 947.708 897.818 949.942 902.326 952.176 906.833 955.586 909.851 960.173 911.38L959.459 913.674C953.641 912.145 949.183 908.854 946.085 903.8 942.987 898.747 941.439 892.626 941.439 885.438 941.439 878.269 942.992 872.148 946.1 867.075 949.208 862.002 953.66 858.7 959.459 857.171Z" fill-rule="evenodd"/><path d="M978.861 864.183C980.926 864.183 982.688 864.416 984.148 864.883 985.607 865.35 986.794 865.98 987.707 866.774 988.621 867.569 989.281 868.522 989.688 869.634 990.095 870.746 990.299 871.947 990.299 873.238 990.299 874.012 990.244 874.732 990.135 875.397 990.026 876.062 989.837 876.718 989.569 877.363 989.301 878.008 988.948 878.659 988.511 879.314 988.075 879.969 987.529 880.664 986.873 881.399 986.377 882.034 985.731 882.769 984.937 883.603 984.143 884.437 983.274 885.33 982.331 886.284 981.388 887.237 980.4 888.23 979.367 889.262 978.335 890.295 977.332 891.317 976.359 892.33 975.386 893.343 974.493 894.326 973.678 895.279 972.864 896.232 972.199 897.106 971.683 897.9L982.703 897.9C983.637 897.9 984.381 897.865 984.937 897.796 985.493 897.726 985.955 897.572 986.322 897.334 986.69 897.096 987.002 896.733 987.26 896.247 987.519 895.76 987.816 895.09 988.154 894.236L990.924 894.236C990.825 895.646 990.73 897.066 990.641 898.495 990.552 899.925 990.457 901.345 990.358 902.755L965.13 902.755 965.13 901.206C965.607 900.134 966.163 899.076 966.798 898.034 967.433 896.991 968.148 895.934 968.943 894.862 969.737 893.789 970.64 892.682 971.653 891.541 972.666 890.399 973.788 889.212 975.019 887.981 976.885 886.115 978.404 884.521 979.576 883.201 980.747 881.88 981.671 880.704 982.346 879.671 983.021 878.639 983.483 877.686 983.731 876.812 983.979 875.938 984.103 875.005 984.103 874.012 984.103 872.999 983.959 872.066 983.671 871.212 983.383 870.358 982.971 869.634 982.435 869.038 981.899 868.442 981.219 867.976 980.395 867.638 979.571 867.3 978.623 867.132 977.55 867.132 975.704 867.132 974.155 867.633 972.904 868.636 971.653 869.639 970.68 871.093 969.985 872.999L966.083 872.999 966.083 867.191C968.625 866.139 970.963 865.374 973.098 864.898 975.232 864.421 977.153 864.183 978.861 864.183Z" fill-rule="evenodd"/><text fill="#000000" fill-opacity="0" font-family="Arial,Arial_MSFontService,sans-serif" font-size="38.5718" x="965.13" y="897.933">2</text><path d="M1700.5 492.917 1980.71 492.917 1980.71 502.084 1700.5 502.083ZM1976.13 474.584 2021.96 497.5 1976.13 520.417Z"/><path d="M1892.5 372.778 1893.55 372.778C1899.9 372.886 1904.65 374.338 1907.8 377.135 1910.95 379.931 1912.52 384.139 1912.52 389.759 1912.52 392.001 1912.2 394.555 1911.57 397.419 1910.93 400.282 1910.61 402.201 1910.61 403.173 1910.61 405.038 1911.26 406.557 1912.54 407.733 1913.82 408.908 1915.76 409.536 1918.36 409.617L1918.36 412.941C1915.76 413.022 1913.82 413.65 1912.54 414.825 1911.26 416 1910.61 417.52 1910.61 419.384 1910.61 420.357 1910.93 422.275 1911.57 425.139 1912.2 428.003 1912.52 430.556 1912.52 432.799 1912.52 438.608 1910.95 442.91 1907.8 445.707 1904.65 448.503 1899.9 449.955 1893.55 450.064L1892.5 450.064 1892.5 446.983 1893.11 446.983C1897.02 446.983 1900.09 445.964 1902.31 443.924 1904.52 441.884 1905.63 438.419 1905.63 433.528 1905.63 431.637 1905.36 429.3 1904.82 426.517 1904.28 423.734 1904.01 421.748 1904.01 420.56 1904.01 418.263 1904.68 416.379 1906.04 414.906 1907.39 413.434 1908.99 412.346 1910.86 411.644L1910.86 410.914C1908.99 410.212 1907.39 409.124 1906.04 407.652 1904.68 406.179 1904.01 404.295 1904.01 401.998 1904.01 400.809 1904.28 398.823 1904.82 396.041 1905.36 393.258 1905.63 390.921 1905.63 389.029 1905.63 384.328 1904.52 380.958 1902.31 378.918 1900.09 376.878 1897.02 375.858 1893.11 375.858L1892.5 375.858ZM1802.85 372.778 1803.91 372.778 1803.91 375.858 1803.3 375.858C1799.38 375.858 1796.32 376.878 1794.1 378.918 1791.88 380.958 1790.78 384.315 1790.78 388.989 1790.78 390.88 1791.05 393.217 1791.59 396 1792.13 398.783 1792.4 400.769 1792.4 401.958 1792.4 404.254 1791.72 406.139 1790.37 407.611 1789.02 409.084 1787.41 410.171 1785.55 410.874L1785.55 411.603C1787.41 412.306 1789.02 413.393 1790.37 414.866 1791.72 416.338 1792.4 418.223 1792.4 420.519 1792.4 421.708 1792.13 423.694 1791.59 426.477 1791.05 429.26 1790.78 431.597 1790.78 433.488 1790.78 438.405 1791.88 441.884 1794.1 443.924 1796.32 445.964 1799.38 446.983 1803.3 446.983L1803.91 446.983 1803.91 450.064 1802.85 450.064C1796.5 449.955 1791.76 448.503 1788.61 445.707 1785.46 442.91 1783.89 438.594 1783.89 432.758 1783.89 430.516 1784.2 427.963 1784.84 425.099 1785.47 422.235 1785.79 420.316 1785.79 419.344 1785.79 417.48 1785.15 415.96 1783.87 414.785 1782.58 413.609 1780.64 412.981 1778.05 412.9L1778.05 409.577C1780.64 409.496 1782.58 408.868 1783.87 407.692 1785.15 406.517 1785.79 404.997 1785.79 403.133 1785.79 402.16 1785.47 400.242 1784.84 397.378 1784.2 394.514 1783.89 391.961 1783.89 389.718 1783.89 384.126 1785.46 379.931 1788.61 377.135 1791.76 374.338 1796.5 372.886 1802.85 372.778Z" fill-rule="evenodd"/><path d="M1834.39 400.449C1833.1 400.449 1831.82 400.861 1830.56 401.685 1829.31 402.509 1827.91 403.874 1826.37 405.778 1824.83 407.683 1823.57 409.635 1822.6 411.635 1821.63 413.634 1820.8 416.187 1820.13 419.294L1819.76 420.996C1819.36 422.888 1819.16 424.725 1819.16 426.508 1819.16 428.643 1819.62 430.183 1820.55 431.128 1821.49 432.074 1823.03 432.547 1825.19 432.547 1826.3 432.547 1827.36 432.364 1828.36 432 1829.36 431.635 1830.38 431.034 1831.42 430.196 1832.46 429.359 1833.44 428.258 1834.37 426.893 1835.31 425.529 1836.16 423.847 1836.95 421.848 1837.73 419.848 1838.34 417.707 1838.77 415.424 1839.2 413.141 1839.42 410.959 1839.42 408.879 1839.42 406.069 1839.02 403.961 1838.22 402.557 1837.43 401.152 1836.15 400.449 1834.39 400.449ZM1827.3 377.146 1829.65 377.146 1822.52 405.515 1823.05 405.677C1825.67 402.165 1828.13 399.625 1830.42 398.058 1832.72 396.491 1835.02 395.707 1837.31 395.707 1840.26 395.707 1842.55 396.829 1844.18 399.071 1845.82 401.314 1846.63 404.475 1846.63 408.555 1846.63 413.013 1845.73 417.396 1843.94 421.706 1842.14 426.015 1839.65 429.433 1836.46 431.959 1833.27 434.485 1829.71 435.748 1825.76 435.748 1822.17 435.748 1818.98 434.87 1816.2 433.114L1812.47 435.748 1809.88 435.1 1820.37 388.777C1820.99 386.021 1821.3 384.022 1821.3 382.779 1821.3 381.644 1820.96 380.847 1820.27 380.388 1819.58 379.929 1818.35 379.672 1816.56 379.618L1817.05 377.511Z" fill-rule="evenodd"/><text fill="#000000" fill-opacity="0" font-family="Arial,Arial_MSFontService,sans-serif" font-size="58.6025" x="1809.88" y="428.423">𝑏</text><path d="M1864.31 411.287 1866.45 411.287 1861.21 434.46 1862.04 434.46C1862.8 434.46 1863.61 434.301 1864.48 433.983 1865.36 433.666 1866.23 433.254 1867.09 432.747 1867.95 432.241 1868.78 431.67 1869.58 431.035 1870.37 430.399 1871.07 429.759 1871.68 429.113 1872.28 428.468 1872.76 427.857 1873.12 427.282 1873.48 426.706 1873.66 426.219 1873.66 425.822 1873.66 425.346 1873.5 424.958 1873.18 424.661 1872.86 424.363 1872.29 424.164 1871.45 424.065L1871.81 422.159 1882.53 422.159 1883.28 424.005C1882.03 425.078 1880.83 426.07 1879.67 426.984 1878.52 427.897 1877.4 428.776 1876.29 429.62 1875.19 430.464 1874.09 431.293 1872.99 432.107 1871.89 432.921 1870.76 433.765 1869.61 434.639 1870.08 436.148 1870.57 437.682 1871.07 439.24 1871.56 440.799 1872.06 442.343 1872.56 443.872 1872.79 444.686 1873.02 445.386 1873.23 445.972 1873.43 446.558 1873.66 447.034 1873.9 447.401 1874.13 447.769 1874.39 448.042 1874.67 448.221 1874.95 448.399 1875.29 448.489 1875.68 448.489 1875.96 448.489 1876.25 448.439 1876.55 448.34 1876.84 448.24 1877.18 448.062 1877.54 447.804 1877.91 447.545 1878.33 447.193 1878.8 446.746 1879.26 446.299 1879.79 445.738 1880.39 445.063L1882.41 446.999C1881.48 447.953 1880.61 448.777 1879.81 449.472 1879 450.167 1878.24 450.737 1877.52 451.184 1876.79 451.631 1876.09 451.959 1875.42 452.167 1874.74 452.376 1874.06 452.48 1873.36 452.48 1872.11 452.48 1871.1 452.167 1870.34 451.542 1869.57 450.916 1868.92 450.023 1868.39 448.861 1867.85 447.699 1867.36 446.294 1866.91 444.646 1866.46 442.998 1865.94 441.161 1865.35 439.136 1865.21 438.66 1865.07 438.277 1864.95 437.989 1864.82 437.701 1864.65 437.483 1864.45 437.334 1864.26 437.185 1864.01 437.091 1863.71 437.051 1863.41 437.011 1863.03 436.992 1862.58 436.992L1860.67 436.992 1857.4 451.944 1851.68 451.944 1858.88 419.954C1859.12 418.902 1859.29 418.073 1859.39 417.467 1859.49 416.862 1859.54 416.321 1859.54 415.844 1859.54 415.467 1859.48 415.139 1859.35 414.861 1859.22 414.583 1859 414.36 1858.71 414.191 1858.41 414.022 1858.01 413.898 1857.51 413.819 1857.02 413.739 1856.4 413.69 1855.67 413.67L1856.11 411.644Z" fill-rule="evenodd"/><text fill="#000000" fill-opacity="0" font-family="Arial,Arial_MSFontService,sans-serif" font-size="41.1929" x="1851.68" y="447.331">𝑘</text></g></svg>