<svg xmlns="http://www.w3.org/2000/svg" width="4664" height="1748" overflow="hidden"><defs><clipPath id="a"><path d="M-18 243h4664v1748H-18z"/></clipPath></defs><g clip-path="url(#a)" transform="translate(18 -243)"><path fill="#d74514" d="M1735.5 919.917h889.17v9.166H1735.5Zm884.58-18.334 45.84 22.917-45.84 22.917Z"/><path fill="#f8ccb9" d="M471 243h583v477H471z"/><text fill="#d74514" font-family="Microsoft YaHei,Microsoft YaHei_MSFontService,sans-serif" font-size="83" font-weight="700" transform="translate(633.15 511)">消息</text><path fill="#d74514" fill-rule="evenodd" d="M829.857 455.424h18.886l3.161 33.84 19.21-33.84h18.845l-.567 2.675q-2.31.649-3.405 2.269t-2.066 5.998l-7.376 33.435q-.285 1.298-.406 2.25t-.121 2.492q0 1.703.79 2.492.79.79 2.574 1.034l-.568 2.675h-20.385l.567-2.675q2.31-.648 3.405-2.27 1.094-1.62 2.066-5.998l3.729-17.021a258 258 0 0 1 4.377-16.981h-.811a318 318 0 0 1-4.093 7.254l-18.237 31.571h-6.566l-2.674-24.357q-.933-8.673-1.216-14.873h-.649q-1.62 10.01-3.08 16.616l-3.931 17.791a26 26 0 0 0-.405 2.25q-.122.952-.122 2.492 0 1.703.791 2.492.79.79 2.573 1.034l-.567 2.675h-14.874l.567-2.675q2.31-.648 3.405-2.27 1.094-1.62 2.067-5.998l7.376-33.435q.527-2.39.527-4.741 0-1.703-.791-2.493-.79-.79-2.573-1.033Z"/><text x="818.712" y="503.829" fill-opacity="0" font-family="Arial,Arial_MSFontService,sans-serif" font-size="55.32">𝑴</text><path fill="#d74514" d="M471 997h583v222H471z"/><text fill="#fff" font-family="DengXian,DengXian_MSFontService,sans-serif" font-size="83" font-weight="700" transform="translate(577.004 1136)">MAC <tspan x="205.677" y="0" font-family="Microsoft YaHei,Microsoft YaHei_MSFontService,sans-serif">函数</tspan></text><path fill="#d74514" d="M471 1547h583v222H471z"/><text fill="#fff" font-family="DengXian,DengXian_MSFontService,sans-serif" font-size="83" font-weight="700" transform="translate(618.254 1686)">MAC <tspan x="205.677" y="0" font-family="Microsoft YaHei,Microsoft YaHei_MSFontService,sans-serif">值</tspan></text><path fill="#f8ccb9" d="M1151 686h584v476h-584z"/><text fill="#d74514" font-family="Microsoft YaHei,Microsoft YaHei_MSFontService,sans-serif" font-size="83" font-weight="700" transform="translate(1313.77 953)">消息</text><path fill="#d74514" fill-rule="evenodd" d="M1510.48 898.107h18.89l3.16 33.841 19.21-33.841h18.84l-.56 2.675c-1.54.433-2.68 1.189-3.41 2.27s-1.42 3.08-2.06 5.998l-7.38 33.435c-.19.864-.32 1.614-.41 2.249q-.12.952-.12 2.493c0 1.134.27 1.965.79 2.492q.795.79 2.58 1.034l-.57 2.674h-20.39l.57-2.674c1.54-.433 2.68-1.189 3.41-2.27s1.41-3.08 2.06-5.998l3.73-17.022q1.86-8.429 4.38-16.981h-.81a320 320 0 0 1-4.1 7.255l-18.23 31.571h-6.57l-2.67-24.357c-.62-5.782-1.03-10.74-1.22-14.874h-.65c-1.08 6.674-2.11 12.212-3.08 16.616l-3.93 17.792c-.19.864-.32 1.614-.4 2.249-.09.635-.13 1.466-.13 2.493 0 1.134.27 1.965.79 2.492q.795.79 2.58 1.034l-.57 2.674h-14.87l.56-2.674c1.54-.433 2.68-1.189 3.41-2.27q1.095-1.621 2.07-5.998l7.37-33.435c.35-1.594.53-3.175.53-4.742 0-1.135-.26-1.965-.79-2.492q-.795-.79-2.58-1.034Z"/><text x="1499.34" y="946.512" fill-opacity="0" font-family="Arial,Arial_MSFontService,sans-serif" font-size="55.32">𝑴</text><path fill="#fdefe8" d="M1151 1162h584v222h-584z"/><text fill="#d74514" font-family="Microsoft YaHei,Microsoft YaHei_MSFontService,sans-serif" font-size="83" font-weight="700" transform="translate(1319.22 1303)">认证码<tspan x="-1287.38" y="-165" fill="#000" font-weight="400">密钥</tspan></text><path fill-rule="evenodd" d="M234.4 1082.39h16.211l-.446 1.99c-1.026.21-1.763.46-2.208.73s-.845.67-1.196 1.21-.716 1.39-1.094 2.53c-.379 1.15-.851 3.02-1.419 5.62l-2.877 12.93h1.337q1.702 0 3.101-.57 1.398-.57 3.262-2.07c1.243-1 3.222-2.84 5.937-5.51s4.647-4.71 5.796-6.1c1.148-1.39 1.986-2.59 2.512-3.61.527-1.01.791-1.93.791-2.77 0-.68-.271-1.22-.811-1.64q-.81-.63-2.31-.75l.446-1.99h17.386l-.446 1.99q-1.62.24-3.667 1.68t-6.262 5.61l-15.725 15.32 8.633 20.75q1.337 3.21 2.209 4.62.87 1.425 2.087 2.25c.81.55 1.81.93 2.999 1.11l-.446 1.99h-15.644l.446-1.99c1.459-.13 2.189-.78 2.189-1.94q0-1.095-.446-2.49c-.297-.94-.649-1.9-1.054-2.9l-5.268-12.89q-.933-2.31-1.622-3.24c-.459-.62-.945-1.05-1.459-1.3q-.77-.36-2.391-.36h-2.269l-3.364 15.32c-.351 1.62-.581 2.89-.689 3.83a22 22 0 0 0-.162 2.49c0 1.22.304 2.07.912 2.57s1.628.81 3.06.91l-.446 1.99h-16.211l.446-1.99c1.026-.16 1.796-.42 2.31-.79.513-.36.945-.87 1.297-1.52q.526-.96.972-2.37c.298-.93.743-2.73 1.338-5.41l6.889-31.2c.595-2.7.892-4.88.892-6.53 0-1.27-.317-2.15-.952-2.65q-.953-.75-3.02-.87Z"/><text x="223.782" y="1130.8" fill-opacity="0" font-family="Arial,Arial_MSFontService,sans-serif" font-size="55.32">𝐾</text><path d="M323.5 1103.92h106.431v9.16H323.5Zm101.847-18.34 45.834 22.92-45.834 22.92ZM767.083 720.5l.001 236.434h-9.167V720.5Zm18.334 231.85L762.5 998.184l-22.916-45.834Zm-18.334 267.15.001 286.85h-9.167V1219.5Zm18.334 282.27L762.5 1547.6l-22.916-45.83Zm269.083 161.363h393.384V1425.75h-9.166v232.8l4.583-4.583H1054.5Zm411.718-232.8-22.917-45.833-22.917 45.833ZM1054.5 476.917h393.38V644.6h-9.16V481.5l4.58 4.583h-388.8Zm411.72 163.1-22.92 45.833-22.92-45.833Z"/><path fill="#f8ccb9" d="M2665 686h584v476h-584z"/><text fill="#d74514" font-family="Microsoft YaHei,Microsoft YaHei_MSFontService,sans-serif" font-size="83" font-weight="700" transform="translate(2827.84 953)">消息</text><path fill="#d74514" fill-rule="evenodd" d="M3024.55 898.107h18.88l3.16 33.841 19.21-33.841h18.85l-.57 2.675c-1.54.433-2.67 1.189-3.4 2.27q-1.095 1.621-2.07 5.998l-7.37 33.435a26 26 0 0 0-.41 2.249q-.12.952-.12 2.493c0 1.134.26 1.965.79 2.492s1.38.871 2.57 1.034l-.57 2.674h-20.38l.57-2.674c1.54-.433 2.67-1.189 3.4-2.27q1.095-1.621 2.07-5.998l3.73-17.022c1.24-5.619 2.7-11.28 4.37-16.981h-.81a318 318 0 0 1-4.09 7.255l-18.24 31.571h-6.56l-2.68-24.357c-.62-5.782-1.02-10.74-1.21-14.874h-.65c-1.08 6.674-2.11 12.212-3.08 16.616l-3.93 17.792a26 26 0 0 0-.41 2.249q-.12.952-.12 2.493c0 1.134.26 1.965.79 2.492s1.38.871 2.57 1.034l-.56 2.674h-14.88l.57-2.674c1.54-.433 2.67-1.189 3.4-2.27q1.095-1.621 2.07-5.998l7.38-33.435c.35-1.594.52-3.175.52-4.742 0-1.135-.26-1.965-.79-2.492-.52-.527-1.38-.872-2.57-1.034Z"/><text x="3013.4" y="946.512" fill-opacity="0" font-family="Arial,Arial_MSFontService,sans-serif" font-size="55.32">𝑴</text><path fill="#fdefe8" d="M2665 1162h584v222h-584z"/><text fill="#d74514" font-family="Microsoft YaHei,Microsoft YaHei_MSFontService,sans-serif" font-size="83" font-weight="700" transform="translate(2833.28 1303)">认证码</text><path fill="#d74514" d="M3394 480h584v222h-584z"/><text fill="#fff" font-family="DengXian,DengXian_MSFontService,sans-serif" font-size="83" font-weight="700" transform="translate(3500.39 619)">MAC <tspan x="205.677" y="0" font-family="Microsoft YaHei,Microsoft YaHei_MSFontService,sans-serif">函数</tspan></text><path fill="#d74514" d="M3394 940h584v222h-584z"/><text fill="#fff" font-family="DengXian,DengXian_MSFontService,sans-serif" font-size="83" font-weight="700" transform="translate(3541.64 1079)">MAC <tspan x="205.677" y="0" font-family="Microsoft YaHei,Microsoft YaHei_MSFontService,sans-serif">值</tspan></text><path fill="#d74514" fill-rule="evenodd" d="m3402 1487 292-111 292 111-292 111Z"/><text fill="#fff" font-family="Microsoft YaHei,Microsoft YaHei_MSFontService,sans-serif" font-size="83" font-weight="700" transform="translate(3611.81 1516)">相等</text><path fill="#d74514" d="M3402 1769h584v222h-584z"/><text fill="#fff" font-family="Microsoft YaHei,Microsoft YaHei_MSFontService,sans-serif" font-size="83" font-weight="700" transform="translate(3529.31 1909)">认证有效</text><path fill="#d74514" d="M4063 1769h583v222h-583z"/><text fill="#fff" font-family="Microsoft YaHei,Microsoft YaHei_MSFontService,sans-serif" font-size="83" font-weight="700" transform="translate(4189.37 1909)">认证无效</text><path fill="#d74514" fill-rule="evenodd" d="M1937.78 874.461c-7.45-34.459 30.9-66.194 85.64-70.881 22.19-1.899 44.75.94 64.06 8.064 20.47-24.287 68.31-33.516 106.84-20.616 6.74 2.256 12.92 5.115 18.36 8.488 15.94-20.131 54.78-28.31 86.73-18.268 8.85 2.779 16.57 6.799 22.56 11.75 25.7-19.037 71.1-21.389 101.42-5.252 12.74 6.782 21.32 16.137 24.29 26.46 42.1 7.231 66.93 34.62 55.47 61.175a39 39 0 0 1-3.62 6.547c33.77 27.67 25.5 67.33-18.46 88.582-13.69 6.616-29.85 10.899-46.93 12.437-.38 29.773-39.06 53.713-86.39 53.473-15.81-.08-31.28-2.91-44.7-8.18-16.01 33.37-71.85 52.24-124.72 42.13-22.16-4.23-41.31-13.19-54.17-25.34-54.14 20.56-124.41 9.5-156.95-24.69-.41-.43-.82-.87-1.21-1.3-35.43 2.61-67.52-13.31-71.68-35.551-2.22-11.855 4-23.721 16.99-32.436-30.68-11.369-40.98-36.322-23.02-55.735 10.37-11.2 28.55-18.604 48.95-19.935Z"/><text fill="#fff" font-family="Microsoft YaHei,Microsoft YaHei_MSFontService,sans-serif" font-size="83" font-weight="700" transform="translate(2012.23 947)">公开信道<tspan x="2217.13" y="-326" fill="#000" font-weight="400">密钥</tspan></text><path fill-rule="evenodd" d="M4431.93 565.574h16.21l-.44 1.986c-1.03.216-1.77.459-2.21.729q-.675.406-1.2 1.216c-.35.541-.71 1.385-1.09 2.533s-.85 3.019-1.42 5.613l-2.88 12.928h1.34c1.13 0 2.17-.189 3.1-.567s2.02-1.067 3.26-2.067q1.86-1.5 5.94-5.512c2.71-2.674 4.65-4.708 5.79-6.099q1.725-2.087 2.52-3.607c.52-1.013.79-1.938.79-2.776q0-1.013-.81-1.641t-2.31-.75l.44-1.986h17.39l-.45 1.986c-1.08.162-2.3.723-3.67 1.682-1.36.959-3.45 2.83-6.26 5.613l-15.72 15.319 8.63 20.75c.89 2.135 1.63 3.675 2.21 4.62s1.28 1.696 2.09 2.25q1.215.83 3 1.114l-.45 1.986h-15.64l.44-1.986q2.19-.202 2.19-1.945c0-.73-.15-1.561-.44-2.493-.3-.932-.65-1.898-1.06-2.897l-5.27-12.888q-.93-2.31-1.62-3.242c-.46-.622-.94-1.054-1.46-1.297-.51-.243-1.31-.365-2.39-.365h-2.27l-3.36 15.319q-.525 2.432-.69 3.83c-.11.932-.16 1.763-.16 2.493 0 1.215.3 2.073.91 2.573q.915.75 3.06.912l-.45 1.986h-16.21l.45-1.986q1.545-.244 2.31-.79c.51-.365.94-.872 1.3-1.52.35-.648.67-1.439.97-2.371s.74-2.735 1.34-5.41l6.88-31.206q.9-4.053.9-6.525 0-1.905-.96-2.655c-.63-.5-1.64-.79-3.02-.871Z"/><text x="4421.31" y="613.979" fill-opacity="0" font-family="Arial,Arial_MSFontService,sans-serif" font-size="55.32">𝐾</text><path d="M4189.32 586.917h-169.565v9.167h169.565Zm-164.982-18.333-45.833 22.916 45.833 22.917ZM3691.08 1162.32l6.93 172.4-9.16.36-6.93-172.4Zm25.06 167.08-21.06 46.72-24.74-44.88Zm-25.06-626.9v196.767h-9.16V702.5Zm18.34 192.184-22.92 45.833-22.92-45.833Zm-10.34 703.816v129.92h-9.16V1598.5Zm18.34 125.33-22.92 45.84-22.92-45.84Zm-764.503-339.33v107.25h408.782v-9.167H2957.5l4.583 4.584V1384.5Zm404.199 125.583 45.833-22.916-45.833-22.917ZM2952.92 685.7v-98.783h400.2v9.166H2957.5l4.58-4.583v94.2Zm395.61-117.117 45.84 22.917-45.84 22.917Zm637.97 914.337h372.82v245.45h-9.17V1487.5l4.59 4.58H3986.5Zm391.15 240.86-22.91 45.84-22.92-45.84Z"/><text font-family="Microsoft YaHei,Microsoft YaHei_MSFontService,sans-serif" font-size="83" font-weight="400" transform="translate(4135.59 1450)">否<tspan x="-389.996" y="234">是</tspan></text></g></svg>