<svg width="2675" height="2723" xmlns="http://www.w3.org/2000/svg" xmlns:xlink="http://www.w3.org/1999/xlink" overflow="hidden"><defs><clipPath id="clip0"><rect x="452" y="97" width="2675" height="2723"/></clipPath></defs><g clip-path="url(#clip0)" transform="translate(-452 -97)"><rect x="485" y="364" width="636" height="219" fill="#F8CCB9"/><text fill="#D74514" font-family="Microsoft YaHei,Microsoft YaHei_MSFontService,sans-serif" font-weight="700" font-size="83" transform="matrix(1 0 0 1 638.068 503)">εε§‹<tspan font-size="83" x="165" y="0">η½®ζΆ</tspan></text><rect x="485" y="709" width="636" height="219" fill="#D74514"/><text fill="#FFFFFF" font-family="Microsoft YaHei,Microsoft YaHei_MSFontService,sans-serif" font-weight="700" font-size="83" transform="matrix(1 0 0 1 695.073 848)">η¬¬<tspan font-size="83" x="82.5" y="0">1</tspan><tspan font-size="83" x="133.49" y="0">θ½®</tspan></text><path d="M808.083 583.5 808.083 668.499 798.917 668.499 798.917 583.5ZM826.417 663.916 803.5 709.749 780.583 663.916Z"/><rect x="485" y="1054" width="636" height="218" fill="#D74514"/><text fill="#FFFFFF" font-family="Microsoft YaHei,Microsoft YaHei_MSFontService,sans-serif" font-weight="700" font-size="83" transform="matrix(1 0 0 1 695.073 1193)">η¬¬<tspan font-size="83" x="82.5" y="0">2</tspan><tspan font-size="83" x="133.49" y="0">θ½®</tspan></text><path d="M808.083 928.5 808.083 1013.5 798.917 1013.5 798.917 928.5ZM826.417 1008.92 803.5 1054.75 780.583 1008.92Z"/><rect x="485" y="1612" width="636" height="219" fill="#D74514"/><text fill="#FFFFFF" font-family="Microsoft YaHei,Microsoft YaHei_MSFontService,sans-serif" font-weight="700" font-size="83" transform="matrix(1 0 0 1 669.579 1751)">η¬¬<tspan font-size="83" x="82.5" y="0">1</tspan><tspan font-size="83" x="133.49" y="0">6</tspan><tspan font-size="83" x="184.479" y="0">θ½®</tspan></text><rect x="485" y="1957" width="636" height="218" fill="#F8CCB9"/><text fill="#D74514" font-family="Microsoft YaHei,Microsoft YaHei_MSFontService,sans-serif" font-weight="700" font-size="83" transform="matrix(1 0 0 1 638.068 2096)">ε·¦ε³<tspan font-size="83" x="165" y="0">δΊ¤ζΆ</tspan></text><path d="M808.083 1831.5 808.083 1916.5 798.917 1916.5 798.917 1831.5ZM826.417 1911.92 803.5 1957.75 780.583 1911.92Z"/><rect x="485" y="2302" width="636" height="218" fill="#F8CCB9"/><text fill="#D74514" font-family="Microsoft YaHei,Microsoft YaHei_MSFontService,sans-serif" font-weight="700" font-size="83" transform="matrix(1 0 0 1 596.818 2440)">ι€†<tspan font-size="83" x="82.5" y="0">εε§‹</tspan><tspan font-size="83" x="247.5" y="0">η½®ζΆ</tspan></text><path d="M808.083 2175.5 808.083 2260.5 798.917 2260.5 798.917 2175.5ZM826.417 2255.92 803.5 2301.75 780.583 2255.92Z"/><path d="M808.083 1272.5 808.083 1571.12 798.917 1571.12 798.917 1272.5ZM826.417 1566.53 803.5 1612.37 780.583 1566.53Z"/><path d="M505.083 238.5 505.084 323.5 495.917 323.5 495.917 238.5ZM523.417 318.916 500.5 364.75 477.584 318.916Z"/><path d="M1115.08 238.5 1115.08 323.5 1105.92 323.5 1105.92 238.5ZM1133.42 318.916 1110.5 364.75 1087.58 318.916Z"/><path d="M699.083 238.5 699.083 323.5 689.917 323.5 689.917 238.5ZM717.417 318.916 694.5 364.75 671.583 318.916Z"/><path d="M914.387 298.253C915.792 298.253 916.967 298.746 917.913 299.732 918.858 300.718 919.331 301.968 919.331 303.481 919.331 304.994 918.858 306.244 917.913 307.23 916.967 308.216 915.792 308.709 914.387 308.709 912.982 308.709 911.807 308.216 910.861 307.23 909.915 306.244 909.442 304.994 909.442 303.481 909.442 301.968 909.915 300.718 910.861 299.732 911.807 298.746 912.982 298.253 914.387 298.253ZM889.827 298.253C891.232 298.253 892.407 298.746 893.353 299.732 894.299 300.718 894.772 301.968 894.772 303.481 894.772 304.994 894.299 306.244 893.353 307.23 892.407 308.216 891.232 308.709 889.827 308.709 888.422 308.709 887.247 308.216 886.301 307.23 885.356 306.244 884.883 304.994 884.883 303.481 884.883 301.968 885.356 300.718 886.301 299.732 887.247 298.746 888.422 298.253 889.827 298.253ZM865.268 298.253C866.673 298.253 867.848 298.746 868.794 299.732 869.739 300.718 870.212 301.968 870.212 303.481 870.212 304.994 869.739 306.244 868.794 307.23 867.848 308.216 866.673 308.709 865.268 308.709 863.863 308.709 862.687 308.216 861.742 307.23 860.796 306.244 860.323 304.994 860.323 303.481 860.323 301.968 860.796 300.718 861.742 299.732 862.687 298.746 863.863 298.253 865.268 298.253Z" fill-rule="evenodd"/><text fill="#000000" fill-opacity="0" font-family="Arial,Arial_MSFontService,sans-serif" font-size="10.4561" x="860.323" y="307.402">β‹―</text><path d="M503.083 2527.5 503.084 2612.5 493.917 2612.5 493.917 2527.5ZM521.417 2607.92 498.5 2653.75 475.583 2607.92Z"/><path d="M1113.08 2527.5 1113.08 2612.5 1103.92 2612.5 1103.92 2527.5ZM1131.42 2607.92 1108.5 2653.75 1085.58 2607.92Z"/><path d="M697.083 2527.5 697.084 2612.5 687.917 2612.5 687.917 2527.5ZM715.417 2607.92 692.501 2653.75 669.584 2607.92Z"/><path d="M912.24 2587.3C913.645 2587.3 914.82 2587.79 915.766 2588.78 916.711 2589.77 917.184 2591.02 917.184 2592.53 917.184 2594.04 916.711 2595.29 915.766 2596.28 914.82 2597.26 913.645 2597.76 912.24 2597.76 910.835 2597.76 909.66 2597.26 908.714 2596.28 907.768 2595.29 907.296 2594.04 907.296 2592.53 907.296 2591.02 907.768 2589.77 908.714 2588.78 909.66 2587.79 910.835 2587.3 912.24 2587.3ZM887.68 2587.3C889.085 2587.3 890.261 2587.79 891.206 2588.78 892.152 2589.77 892.625 2591.02 892.625 2592.53 892.625 2594.04 892.152 2595.29 891.206 2596.28 890.261 2597.26 889.085 2597.76 887.68 2597.76 886.275 2597.76 885.1 2597.26 884.154 2596.28 883.209 2595.29 882.736 2594.04 882.736 2592.53 882.736 2591.02 883.209 2589.77 884.154 2588.78 885.1 2587.79 886.275 2587.3 887.68 2587.3ZM863.121 2587.3C864.526 2587.3 865.701 2587.79 866.647 2588.78 867.592 2589.77 868.065 2591.02 868.065 2592.53 868.065 2594.04 867.592 2595.29 866.647 2596.28 865.701 2597.26 864.526 2597.76 863.121 2597.76 861.716 2597.76 860.54 2597.26 859.595 2596.28 858.649 2595.29 858.176 2594.04 858.176 2592.53 858.176 2591.02 858.649 2589.77 859.595 2588.78 860.54 2587.79 861.716 2587.3 863.121 2587.3Z" fill-rule="evenodd"/><text fill="#000000" fill-opacity="0" font-family="Arial,Arial_MSFontService,sans-serif" font-size="10.4561" x="858.176" y="2596.45">β‹―</text><rect x="1470" y="709" width="636" height="219" fill="#F8CCB9"/><text fill="#D74514" font-family="Microsoft YaHei,Microsoft YaHei_MSFontService,sans-serif" font-weight="700" font-size="83" transform="matrix(1 0 0 1 1597.42 848)">η½®ζΆ<tspan font-size="83" x="165" y="0">ι€‰ζ‹©</tspan><tspan font-size="83" x="330" y="0">2</tspan></text><rect x="1470" y="1054" width="636" height="218" fill="#F8CCB9"/><text fill="#D74514" font-family="Microsoft YaHei,Microsoft YaHei_MSFontService,sans-serif" font-weight="700" font-size="83" transform="matrix(1 0 0 1 1597.42 1193)">η½®ζΆ<tspan font-size="83" x="165" y="0">ι€‰ζ‹©</tspan><tspan font-size="83" x="330" y="0">2</tspan></text><rect x="1470" y="1612" width="636" height="219" fill="#F8CCB9"/><text fill="#D74514" font-family="Microsoft YaHei,Microsoft YaHei_MSFontService,sans-serif" font-weight="700" font-size="83" transform="matrix(1 0 0 1 1597.42 1751)">η½®ζΆ<tspan font-size="83" x="165" y="0">ι€‰ζ‹©</tspan><tspan font-size="83" x="330" y="0">2</tspan><tspan fill="#000000" font-weight="400" font-size="83" x="-1007.47" y="-1550">64</tspan><tspan fill="#000000" font-weight="400" font-size="83" x="-911.224" y="-1550">ζ―”η‰Ήζζ–‡</tspan><tspan fill="#000000" font-weight="400" font-size="83" x="-1007.47" y="999">64</tspan><tspan fill="#000000" font-weight="400" font-size="83" x="-911.224" y="999">ζ―”η‰Ήε―†ζ–‡</tspan></text><path d="M889.516 1455.95C890.921 1455.95 892.096 1456.45 893.042 1457.43 893.988 1458.42 894.461 1459.67 894.461 1461.18 894.461 1462.69 893.988 1463.94 893.042 1464.93 892.096 1465.92 890.921 1466.41 889.516 1466.41 888.111 1466.41 886.936 1465.92 885.99 1464.93 885.045 1463.94 884.572 1462.69 884.572 1461.18 884.572 1459.67 885.045 1458.42 885.99 1457.43 886.936 1456.45 888.111 1455.95 889.516 1455.95ZM889.516 1434.39C890.921 1434.39 892.096 1434.89 893.042 1435.87 893.988 1436.86 894.461 1438.11 894.461 1439.62 894.461 1441.13 893.988 1442.38 893.042 1443.37 892.096 1444.36 890.921 1444.85 889.516 1444.85 888.111 1444.85 886.936 1444.36 885.99 1443.37 885.045 1442.38 884.572 1441.13 884.572 1439.62 884.572 1438.11 885.045 1436.86 885.99 1435.87 886.936 1434.89 888.111 1434.39 889.516 1434.39ZM889.516 1412.83C890.921 1412.83 892.096 1413.33 893.042 1414.31 893.988 1415.3 894.461 1416.55 894.461 1418.06 894.461 1419.57 893.988 1420.82 893.042 1421.81 892.096 1422.8 890.921 1423.29 889.516 1423.29 888.111 1423.29 886.936 1422.8 885.99 1421.81 885.045 1420.82 884.572 1419.57 884.572 1418.06 884.572 1416.55 885.045 1415.3 885.99 1414.31 886.936 1413.33 888.111 1412.83 889.516 1412.83Z" fill-rule="evenodd"/><text fill="#000000" fill-opacity="0" font-family="Arial,Arial_MSFontService,sans-serif" font-size="53.5771" x="884.572" y="1459.71">β‹®</text><rect x="2455" y="364" width="636" height="219" fill="#F8CCB9"/><text fill="#D74514" font-family="Microsoft YaHei,Microsoft YaHei_MSFontService,sans-serif" font-weight="700" font-size="83" transform="matrix(1 0 0 1 2607.76 503)">εε§‹<tspan font-size="83" x="165" y="0">η½®ζΆ</tspan></text><rect x="2455" y="709" width="636" height="219" fill="#D74514"/><text fill="#FFFFFF" font-family="Microsoft YaHei,Microsoft YaHei_MSFontService,sans-serif" font-weight="700" font-size="83" transform="matrix(1 0 0 1 2664.76 848)">η¬¬<tspan font-size="83" x="82.5" y="0">1</tspan><tspan font-size="83" x="133.49" y="0">θ½®</tspan></text><path d="M2778.08 583.5 2778.08 668.499 2768.92 668.499 2768.92 583.5ZM2796.42 663.916 2773.5 709.749 2750.58 663.916Z"/><rect x="2455" y="1054" width="636" height="218" fill="#D74514"/><text fill="#FFFFFF" font-family="Microsoft YaHei,Microsoft YaHei_MSFontService,sans-serif" font-weight="700" font-size="83" transform="matrix(1 0 0 1 2664.76 1193)">η¬¬<tspan font-size="83" x="82.5" y="0">2</tspan><tspan font-size="83" x="133.49" y="0">θ½®</tspan></text><path d="M2778.08 928.5 2778.08 1013.5 2768.92 1013.5 2768.92 928.5ZM2796.42 1008.92 2773.5 1054.75 2750.58 1008.92Z"/><rect x="2455" y="1612" width="636" height="219" fill="#D74514"/><text fill="#FFFFFF" font-family="Microsoft YaHei,Microsoft YaHei_MSFontService,sans-serif" font-weight="700" font-size="83" transform="matrix(1 0 0 1 2639.27 1751)">η¬¬<tspan font-size="83" x="82.5" y="0">1</tspan><tspan font-size="83" x="133.49" y="0">6</tspan><tspan font-size="83" x="184.479" y="0">θ½®</tspan></text><path d="M2778.08 1272.5 2778.08 1571.12 2768.92 1571.12 2768.92 1272.5ZM2796.42 1566.53 2773.5 1612.37 2750.58 1566.53Z"/><path d="M2475.08 238.5 2475.08 323.5 2465.92 323.5 2465.92 238.5ZM2493.42 318.916 2470.5 364.75 2447.58 318.916Z"/><path d="M3085.08 238.5 3085.08 323.5 3075.92 323.5 3075.92 238.5ZM3103.42 318.916 3080.5 364.75 3057.58 318.916Z"/><path d="M2668.08 238.5 2668.08 323.5 2658.92 323.5 2658.92 238.5ZM2686.42 318.916 2663.5 364.75 2640.58 318.916Z"/><path d="M2884.07 298.253C2885.48 298.253 2886.65 298.746 2887.6 299.732 2888.55 300.718 2889.02 301.968 2889.02 303.481 2889.02 304.994 2888.55 306.244 2887.6 307.23 2886.65 308.216 2885.48 308.709 2884.07 308.709 2882.67 308.709 2881.49 308.216 2880.55 307.23 2879.6 306.244 2879.13 304.994 2879.13 303.481 2879.13 301.968 2879.6 300.718 2880.55 299.732 2881.49 298.746 2882.67 298.253 2884.07 298.253ZM2859.51 298.253C2860.92 298.253 2862.09 298.746 2863.04 299.732 2863.99 300.718 2864.46 301.968 2864.46 303.481 2864.46 304.994 2863.99 306.244 2863.04 307.23 2862.09 308.216 2860.92 308.709 2859.51 308.709 2858.11 308.709 2856.93 308.216 2855.99 307.23 2855.04 306.244 2854.57 304.994 2854.57 303.481 2854.57 301.968 2855.04 300.718 2855.99 299.732 2856.93 298.746 2858.11 298.253 2859.51 298.253ZM2834.96 298.253C2836.36 298.253 2837.54 298.746 2838.48 299.732 2839.43 300.718 2839.9 301.968 2839.9 303.481 2839.9 304.994 2839.43 306.244 2838.48 307.23 2837.54 308.216 2836.36 308.709 2834.96 308.709 2833.55 308.709 2832.37 308.216 2831.43 307.23 2830.48 306.244 2830.01 304.994 2830.01 303.481 2830.01 301.968 2830.48 300.718 2831.43 299.732 2832.37 298.746 2833.55 298.253 2834.96 298.253Z" fill-rule="evenodd"/><text fill="#000000" fill-opacity="0" font-family="Arial,Arial_MSFontService,sans-serif" font-size="10.4561" x="2830.01" y="307.402">β‹―</text><text font-family="Microsoft YaHei,Microsoft YaHei_MSFontService,sans-serif" font-weight="400" font-size="83" transform="matrix(1 0 0 1 2559.63 201)">5<tspan font-size="83" x="48.125" y="0">6</tspan><tspan font-size="83" x="96.25" y="0">ζ―”η‰Ήε―†ι’¥</tspan></text><path d="M2859.2 1455.95C2860.61 1455.95 2861.78 1456.45 2862.73 1457.43 2863.68 1458.42 2864.15 1459.67 2864.15 1461.18 2864.15 1462.69 2863.68 1463.94 2862.73 1464.93 2861.78 1465.92 2860.61 1466.41 2859.2 1466.41 2857.8 1466.41 2856.62 1465.92 2855.68 1464.93 2854.73 1463.94 2854.26 1462.69 2854.26 1461.18 2854.26 1459.67 2854.73 1458.42 2855.68 1457.43 2856.62 1456.45 2857.8 1455.95 2859.2 1455.95ZM2859.2 1434.39C2860.61 1434.39 2861.78 1434.89 2862.73 1435.87 2863.68 1436.86 2864.15 1438.11 2864.15 1439.62 2864.15 1441.13 2863.68 1442.38 2862.73 1443.37 2861.78 1444.36 2860.61 1444.85 2859.2 1444.85 2857.8 1444.85 2856.62 1444.36 2855.68 1443.37 2854.73 1442.38 2854.26 1441.13 2854.26 1439.62 2854.26 1438.11 2854.73 1436.86 2855.68 1435.87 2856.62 1434.89 2857.8 1434.39 2859.2 1434.39ZM2859.2 1412.83C2860.61 1412.83 2861.78 1413.33 2862.73 1414.31 2863.68 1415.3 2864.15 1416.55 2864.15 1418.06 2864.15 1419.57 2863.68 1420.82 2862.73 1421.81 2861.78 1422.8 2860.61 1423.29 2859.2 1423.29 2857.8 1423.29 2856.62 1422.8 2855.68 1421.81 2854.73 1420.82 2854.26 1419.57 2854.26 1418.06 2854.26 1416.55 2854.73 1415.3 2855.68 1414.31 2856.62 1413.33 2857.8 1412.83 2859.2 1412.83Z" fill-rule="evenodd"/><text fill="#000000" fill-opacity="0" font-family="Arial,Arial_MSFontService,sans-serif" font-size="53.5771" x="2854.26" y="1459.71">β‹®</text><path d="M4.73848e-06-4.58333 307.826-4.58301 307.826 4.58365-4.73848e-06 4.58333ZM303.243-22.9164 349.076 0.000360892 303.243 22.917Z" transform="matrix(-1 0 0 1 1470.58 1721.5)"/><path d="M4.73848e-06-4.58333 307.826-4.58301 307.826 4.58365-4.73848e-06 4.58333ZM303.243-22.9164 349.076 0.000360892 303.243 22.917Z" transform="matrix(-1 0 0 1 1470.58 1163.5)"/><path d="M4.73848e-06-4.58333 307.826-4.58301 307.826 4.58365-4.73848e-06 4.58333ZM303.243-22.9164 349.076 0.000360892 303.243 22.917Z" transform="matrix(-1 0 0 1 1470.58 818.5)"/><path d="M4.73848e-06-4.58333 307.826-4.58301 307.826 4.58365-4.73848e-06 4.58333ZM303.243-22.9164 349.076 0.000360892 303.243 22.917Z" transform="matrix(-1 0 0 1 2455.58 1721.5)"/><path d="M4.73848e-06-4.58333 307.826-4.58301 307.826 4.58365-4.73848e-06 4.58333ZM303.243-22.9164 349.076 0.000360892 303.243 22.917Z" transform="matrix(-1 0 0 1 2455.58 1163.5)"/><path d="M4.73848e-06-4.58333 307.826-4.58301 307.826 4.58365-4.73848e-06 4.58333ZM303.243-22.9164 349.076 0.000360892 303.243 22.917Z" transform="matrix(-1 0 0 1 2455.58 818.5)"/><path d="M1282.63 703.557 1298.84 703.557 1298.39 705.543C1297.37 705.759 1296.63 706.002 1296.18 706.272 1295.74 706.542 1295.34 706.948 1294.99 707.488 1294.64 708.028 1294.27 708.873 1293.89 710.021 1293.52 711.169 1293.04 713.04 1292.48 715.634L1289.6 728.562 1290.94 728.562C1292.07 728.562 1293.1 728.373 1294.04 727.995 1294.97 727.617 1296.06 726.928 1297.3 725.928 1298.54 724.928 1300.52 723.091 1303.24 720.416 1305.95 717.741 1307.88 715.708 1309.03 714.317 1310.18 712.925 1311.02 711.723 1311.54 710.71 1312.07 709.697 1312.33 708.771 1312.33 707.934 1312.33 707.258 1312.06 706.711 1311.52 706.292 1310.98 705.874 1310.21 705.624 1309.21 705.543L1309.66 703.557 1327.05 703.557 1326.6 705.543C1325.52 705.705 1324.3 706.265 1322.93 707.225 1321.57 708.184 1319.48 710.055 1316.67 712.838L1300.95 728.157 1309.58 748.907C1310.47 751.041 1311.21 752.581 1311.79 753.527 1312.37 754.473 1313.06 755.222 1313.87 755.776 1314.69 756.33 1315.68 756.702 1316.87 756.891L1316.43 758.877 1300.78 758.877 1301.23 756.891C1302.69 756.756 1303.42 756.107 1303.42 754.946 1303.42 754.216 1303.27 753.385 1302.97 752.453 1302.68 751.521 1302.32 750.555 1301.92 749.555L1296.65 736.668C1296.03 735.128 1295.49 734.047 1295.03 733.426 1294.57 732.804 1294.08 732.372 1293.57 732.129 1293.06 731.885 1292.26 731.764 1291.18 731.764L1288.91 731.764 1285.55 747.083C1285.19 748.704 1284.97 749.981 1284.86 750.913 1284.75 751.845 1284.7 752.676 1284.7 753.406 1284.7 754.621 1285 755.479 1285.61 755.979 1286.21 756.479 1287.23 756.783 1288.67 756.891L1288.22 758.877 1272.01 758.877 1272.46 756.891C1273.48 756.729 1274.25 756.465 1274.77 756.101 1275.28 755.736 1275.71 755.229 1276.06 754.581 1276.41 753.932 1276.74 753.142 1277.04 752.21 1277.33 751.278 1277.78 749.474 1278.37 746.8L1285.26 715.594C1285.86 712.892 1286.15 710.717 1286.15 709.069 1286.15 707.799 1285.84 706.914 1285.2 706.414 1284.57 705.914 1283.56 705.624 1282.18 705.543Z" fill-rule="evenodd"/><text fill="#000000" fill-opacity="0" font-family="Arial,Arial_MSFontService,sans-serif" font-size="55.3198" x="1272.01" y="751.962">πΎ</text><path d="M1339.17 737.357 1340.98 737.357C1340.94 738.449 1340.91 739.427 1340.9 740.291 1340.88 741.155 1340.86 741.994 1340.85 742.808 1340.84 743.622 1340.84 744.426 1340.84 745.22L1340.84 767.857C1340.84 768.473 1340.86 769.004 1340.9 769.451 1340.93 769.897 1341 770.275 1341.09 770.583 1341.18 770.89 1341.3 771.153 1341.45 771.372 1341.59 771.59 1341.77 771.779 1341.97 771.938 1342.21 772.176 1342.52 772.36 1342.92 772.489 1343.32 772.618 1343.82 772.727 1344.44 772.816 1345.06 772.906 1345.79 772.975 1346.66 773.025 1347.52 773.075 1348.56 773.109 1349.77 773.129L1349.77 775.72 1326.15 775.72 1326.15 773.129C1327.32 773.089 1328.32 773.045 1329.13 772.995 1329.94 772.945 1330.64 772.876 1331.21 772.787 1331.79 772.697 1332.25 772.598 1332.6 772.489 1332.95 772.38 1333.25 772.246 1333.51 772.087 1333.79 771.908 1334.02 771.714 1334.22 771.506 1334.42 771.297 1334.58 771.034 1334.7 770.717 1334.82 770.399 1334.91 770.012 1334.98 769.555 1335.05 769.098 1335.09 768.532 1335.09 767.857L1335.09 746.501C1335.09 745.727 1334.94 745.181 1334.64 744.863 1334.34 744.545 1333.92 744.386 1333.36 744.386 1332.74 744.386 1331.83 744.704 1330.62 745.34 1329.41 745.975 1327.84 746.918 1325.91 748.169 1325.65 747.712 1325.42 747.256 1325.2 746.799 1324.98 746.342 1324.75 745.876 1324.51 745.399 1326.98 744.049 1329.41 742.704 1331.83 741.363 1334.24 740.023 1336.69 738.688 1339.17 737.357Z" fill-rule="evenodd"/><text fill="#000000" fill-opacity="0" font-family="Arial,Arial_MSFontService,sans-serif" font-size="38.3633" x="1324.51" y="770.925">1</text><path d="M1281.68 1060.49 1297.89 1060.49 1297.44 1062.47C1296.42 1062.69 1295.68 1062.93 1295.23 1063.2 1294.79 1063.47 1294.39 1063.88 1294.04 1064.42 1293.69 1064.96 1293.32 1065.8 1292.94 1066.95 1292.57 1068.1 1292.09 1069.97 1291.53 1072.56L1288.65 1085.49 1289.99 1085.49C1291.12 1085.49 1292.15 1085.3 1293.09 1084.92 1294.02 1084.55 1295.11 1083.86 1296.35 1082.86 1297.59 1081.86 1299.57 1080.02 1302.29 1077.35 1305 1074.67 1306.93 1072.64 1308.08 1071.25 1309.23 1069.85 1310.07 1068.65 1310.59 1067.64 1311.12 1066.63 1311.38 1065.7 1311.38 1064.86 1311.38 1064.19 1311.11 1063.64 1310.57 1063.22 1310.03 1062.8 1309.26 1062.55 1308.26 1062.47L1308.71 1060.49 1326.1 1060.49 1325.65 1062.47C1324.57 1062.63 1323.35 1063.19 1321.98 1064.15 1320.62 1065.11 1318.53 1066.98 1315.72 1069.77L1300 1085.09 1308.63 1105.84C1309.52 1107.97 1310.26 1109.51 1310.84 1110.46 1311.42 1111.4 1312.11 1112.15 1312.92 1112.71 1313.73 1113.26 1314.73 1113.63 1315.92 1113.82L1315.48 1115.81 1299.83 1115.81 1300.28 1113.82C1301.74 1113.68 1302.47 1113.04 1302.47 1111.87 1302.47 1111.15 1302.32 1110.31 1302.02 1109.38 1301.72 1108.45 1301.37 1107.48 1300.97 1106.48L1295.7 1093.6C1295.08 1092.06 1294.54 1090.98 1294.08 1090.35 1293.62 1089.73 1293.13 1089.3 1292.62 1089.06 1292.11 1088.81 1291.31 1088.69 1290.23 1088.69L1287.96 1088.69 1284.6 1104.01C1284.24 1105.63 1284.01 1106.91 1283.91 1107.84 1283.8 1108.77 1283.74 1109.61 1283.74 1110.33 1283.74 1111.55 1284.05 1112.41 1284.66 1112.91 1285.26 1113.41 1286.28 1113.71 1287.72 1113.82L1287.27 1115.81 1271.06 1115.81 1271.5 1113.82C1272.53 1113.66 1273.3 1113.39 1273.81 1113.03 1274.33 1112.66 1274.76 1112.16 1275.11 1111.51 1275.46 1110.86 1275.79 1110.07 1276.08 1109.14 1276.38 1108.21 1276.83 1106.4 1277.42 1103.73L1284.31 1072.52C1284.91 1069.82 1285.2 1067.65 1285.2 1066 1285.2 1064.73 1284.89 1063.84 1284.25 1063.34 1283.62 1062.84 1282.61 1062.55 1281.23 1062.47Z" fill-rule="evenodd"/><text fill="#000000" fill-opacity="0" font-family="Arial,Arial_MSFontService,sans-serif" font-size="55.3198" x="1271.06" y="1108.89">πΎ</text><path d="M1337.8 1094.08C1339.86 1094.08 1341.62 1094.31 1343.08 1094.78 1344.54 1095.24 1345.73 1095.87 1346.64 1096.67 1347.56 1097.46 1348.22 1098.42 1348.62 1099.53 1349.03 1100.64 1349.23 1101.84 1349.23 1103.13 1349.23 1103.91 1349.18 1104.63 1349.07 1105.29 1348.96 1105.96 1348.77 1106.61 1348.5 1107.26 1348.24 1107.9 1347.88 1108.55 1347.45 1109.21 1347.01 1109.86 1346.46 1110.56 1345.81 1111.29 1345.31 1111.93 1344.67 1112.66 1343.87 1113.5 1343.08 1114.33 1342.21 1115.23 1341.27 1116.18 1340.32 1117.13 1339.33 1118.12 1338.3 1119.16 1337.27 1120.19 1336.27 1121.21 1335.29 1122.22 1334.32 1123.24 1333.43 1124.22 1332.61 1125.17 1331.8 1126.13 1331.13 1127 1330.62 1127.79L1341.64 1127.79C1342.57 1127.79 1343.32 1127.76 1343.87 1127.69 1344.43 1127.62 1344.89 1127.47 1345.26 1127.23 1345.62 1126.99 1345.94 1126.63 1346.19 1126.14 1346.45 1125.66 1346.75 1124.98 1347.09 1124.13L1349.86 1124.13C1349.76 1125.54 1349.66 1126.96 1349.58 1128.39 1349.49 1129.82 1349.39 1131.24 1349.29 1132.65L1324.06 1132.65 1324.06 1131.1C1324.54 1130.03 1325.1 1128.97 1325.73 1127.93 1326.37 1126.89 1327.08 1125.83 1327.88 1124.76 1328.67 1123.68 1329.57 1122.58 1330.59 1121.44 1331.6 1120.29 1332.72 1119.11 1333.95 1117.88 1335.82 1116.01 1337.34 1114.42 1338.51 1113.1 1339.68 1111.78 1340.61 1110.6 1341.28 1109.57 1341.96 1108.53 1342.42 1107.58 1342.67 1106.71 1342.91 1105.83 1343.04 1104.9 1343.04 1103.91 1343.04 1102.89 1342.89 1101.96 1342.61 1101.11 1342.32 1100.25 1341.91 1099.53 1341.37 1098.93 1340.83 1098.34 1340.15 1097.87 1339.33 1097.53 1338.51 1097.2 1337.56 1097.03 1336.48 1097.03 1334.64 1097.03 1333.09 1097.53 1331.84 1098.53 1330.59 1099.53 1329.61 1100.99 1328.92 1102.89L1325.02 1102.89 1325.02 1097.09C1327.56 1096.03 1329.9 1095.27 1332.03 1094.79 1334.17 1094.32 1336.09 1094.08 1337.8 1094.08Z" fill-rule="evenodd"/><text fill="#000000" fill-opacity="0" font-family="Arial,Arial_MSFontService,sans-serif" font-size="38.5718" x="1324.06" y="1127.83">2</text><path d="M1265.15 1616.55 1281.37 1616.55 1280.92 1618.54C1279.89 1618.75 1279.16 1619 1278.71 1619.27 1278.27 1619.54 1277.87 1619.94 1277.52 1620.48 1277.16 1621.02 1276.8 1621.87 1276.42 1623.02 1276.04 1624.16 1275.57 1626.04 1275 1628.63L1272.13 1641.56 1273.46 1641.56C1274.6 1641.56 1275.63 1641.37 1276.56 1640.99 1277.49 1640.61 1278.58 1639.92 1279.83 1638.92 1281.07 1637.92 1283.05 1636.09 1285.76 1633.41 1288.48 1630.74 1290.41 1628.7 1291.56 1627.31 1292.71 1625.92 1293.54 1624.72 1294.07 1623.71 1294.6 1622.69 1294.86 1621.77 1294.86 1620.93 1294.86 1620.25 1294.59 1619.71 1294.05 1619.29 1293.51 1618.87 1292.74 1618.62 1291.74 1618.54L1292.19 1616.55 1309.57 1616.55 1309.13 1618.54C1308.05 1618.7 1306.82 1619.26 1305.46 1620.22 1304.09 1621.18 1302.01 1623.05 1299.2 1625.83L1283.47 1641.15 1292.11 1661.9C1293 1664.04 1293.73 1665.58 1294.31 1666.52 1294.89 1667.47 1295.59 1668.22 1296.4 1668.77 1297.21 1669.33 1298.21 1669.7 1299.4 1669.89L1298.95 1671.87 1283.31 1671.87 1283.76 1669.89C1285.22 1669.75 1285.94 1669.1 1285.94 1667.94 1285.94 1667.21 1285.8 1666.38 1285.5 1665.45 1285.2 1664.52 1284.85 1663.55 1284.45 1662.55L1279.18 1649.66C1278.56 1648.12 1278.02 1647.04 1277.56 1646.42 1277.1 1645.8 1276.61 1645.37 1276.1 1645.12 1275.58 1644.88 1274.79 1644.76 1273.71 1644.76L1271.44 1644.76 1268.07 1660.08C1267.72 1661.7 1267.49 1662.98 1267.38 1663.91 1267.28 1664.84 1267.22 1665.67 1267.22 1666.4 1267.22 1667.62 1267.53 1668.47 1268.13 1668.97 1268.74 1669.47 1269.76 1669.78 1271.19 1669.89L1270.75 1671.87 1254.54 1671.87 1254.98 1669.89C1256.01 1669.72 1256.78 1669.46 1257.29 1669.1 1257.81 1668.73 1258.24 1668.22 1258.59 1667.58 1258.94 1666.93 1259.26 1666.14 1259.56 1665.21 1259.86 1664.27 1260.3 1662.47 1260.9 1659.8L1267.79 1628.59C1268.38 1625.89 1268.68 1623.71 1268.68 1622.06 1268.68 1620.79 1268.36 1619.91 1267.73 1619.41 1267.09 1618.91 1266.09 1618.62 1264.71 1618.54Z" fill-rule="evenodd"/><text fill="#000000" fill-opacity="0" font-family="Arial,Arial_MSFontService,sans-serif" font-size="55.3198" x="1254.54" y="1664.96">πΎ</text><path d="M1355.53 1668.97C1354.2 1668.97 1352.98 1669.15 1351.85 1669.5 1350.73 1669.86 1349.66 1670.35 1348.65 1670.96 1348.23 1671.24 1347.91 1671.5 1347.68 1671.74 1347.46 1671.98 1347.29 1672.26 1347.18 1672.59 1347.07 1672.92 1346.99 1673.32 1346.95 1673.81 1346.91 1674.3 1346.89 1674.96 1346.89 1675.79 1346.89 1682.82 1349.45 1686.33 1354.55 1686.33 1355.94 1686.33 1357.14 1686.13 1358.14 1685.72 1359.14 1685.32 1359.96 1684.73 1360.6 1683.97 1361.23 1683.2 1361.7 1682.26 1362 1681.14 1362.29 1680.01 1362.44 1678.74 1362.44 1677.31 1362.44 1674.65 1361.85 1672.59 1360.66 1671.14 1359.46 1669.69 1357.76 1668.97 1355.53 1668.97ZM1321.69 1650.35 1323.51 1650.35C1323.47 1651.44 1323.44 1652.42 1323.42 1653.29 1323.4 1654.15 1323.39 1654.99 1323.38 1655.8 1323.37 1656.62 1323.36 1657.42 1323.36 1658.22L1323.36 1680.85C1323.36 1681.47 1323.38 1682 1323.42 1682.45 1323.46 1682.89 1323.53 1683.27 1323.61 1683.58 1323.7 1683.89 1323.82 1684.15 1323.97 1684.37 1324.12 1684.59 1324.29 1684.77 1324.49 1684.93 1324.73 1685.17 1325.05 1685.36 1325.45 1685.48 1325.84 1685.61 1326.35 1685.72 1326.97 1685.81 1327.58 1685.9 1328.32 1685.97 1329.18 1686.02 1330.05 1686.07 1331.09 1686.1 1332.3 1686.12L1332.3 1688.72 1308.68 1688.72 1308.68 1686.12C1309.85 1686.09 1310.84 1686.04 1311.66 1685.99 1312.47 1685.94 1313.17 1685.87 1313.74 1685.78 1314.32 1685.69 1314.78 1685.59 1315.13 1685.48 1315.47 1685.38 1315.78 1685.24 1316.03 1685.08 1316.31 1684.9 1316.55 1684.71 1316.75 1684.5 1316.95 1684.29 1317.11 1684.03 1317.23 1683.71 1317.34 1683.39 1317.44 1683.01 1317.51 1682.55 1317.58 1682.09 1317.61 1681.53 1317.61 1680.85L1317.61 1659.5C1317.61 1658.72 1317.46 1658.18 1317.17 1657.86 1316.87 1657.54 1316.44 1657.38 1315.89 1657.38 1315.27 1657.38 1314.36 1657.7 1313.15 1658.34 1311.93 1658.97 1310.37 1659.91 1308.44 1661.16 1308.18 1660.71 1307.94 1660.25 1307.72 1659.79 1307.51 1659.34 1307.28 1658.87 1307.04 1658.39 1309.5 1657.04 1311.94 1655.7 1314.35 1654.36 1316.76 1653.02 1319.21 1651.68 1321.69 1650.35ZM1363.43 1650.14C1363.66 1650.42 1363.88 1650.69 1364.08 1650.95 1364.28 1651.21 1364.5 1651.46 1364.74 1651.72L1364.74 1653.48C1362.33 1653.44 1360.17 1653.76 1358.24 1654.43 1356.32 1655.11 1354.62 1656.1 1353.15 1657.4 1351.68 1658.7 1350.45 1660.3 1349.46 1662.19 1348.46 1664.09 1347.69 1666.23 1347.13 1668.61L1347.46 1668.76C1348.27 1668.2 1349.08 1667.72 1349.87 1667.32 1350.67 1666.91 1351.47 1666.57 1352.29 1666.3 1353.1 1666.03 1353.94 1665.84 1354.82 1665.72 1355.69 1665.6 1356.62 1665.54 1357.62 1665.54 1359.36 1665.54 1360.91 1665.8 1362.25 1666.32 1363.59 1666.83 1364.73 1667.59 1365.66 1668.58 1366.59 1669.57 1367.3 1670.77 1367.77 1672.16 1368.25 1673.55 1368.49 1675.09 1368.49 1676.8 1368.49 1678.61 1368.19 1680.29 1367.59 1681.84 1367 1683.38 1366.11 1684.71 1364.91 1685.83 1363.72 1686.94 1362.25 1687.8 1360.49 1688.42 1358.73 1689.03 1356.67 1689.34 1354.31 1689.34 1349.84 1689.34 1346.47 1688.07 1344.2 1685.51 1341.93 1682.96 1340.79 1679.2 1340.79 1674.24 1340.79 1672.02 1341.04 1669.89 1341.53 1667.85 1342.03 1665.82 1342.76 1663.92 1343.72 1662.16 1344.69 1660.41 1345.85 1658.82 1347.22 1657.4 1348.59 1655.98 1350.12 1654.75 1351.81 1653.7 1353.5 1652.66 1355.32 1651.84 1357.29 1651.23 1359.26 1650.63 1361.3 1650.26 1363.43 1650.14Z" fill-rule="evenodd"/><text fill="#000000" fill-opacity="0" font-family="Arial,Arial_MSFontService,sans-serif" font-size="39.1973" x="1307.04" y="1684.44">16</text><path d="M1810.88 1455.95C1812.29 1455.95 1813.47 1456.45 1814.41 1457.43 1815.36 1458.42 1815.83 1459.67 1815.83 1461.18 1815.83 1462.69 1815.36 1463.94 1814.41 1464.93 1813.47 1465.92 1812.29 1466.41 1810.88 1466.41 1809.48 1466.41 1808.3 1465.92 1807.36 1464.93 1806.41 1463.94 1805.94 1462.69 1805.94 1461.18 1805.94 1459.67 1806.41 1458.42 1807.36 1457.43 1808.3 1456.45 1809.48 1455.95 1810.88 1455.95ZM1810.88 1434.39C1812.29 1434.39 1813.47 1434.89 1814.41 1435.87 1815.36 1436.86 1815.83 1438.11 1815.83 1439.62 1815.83 1441.13 1815.36 1442.38 1814.41 1443.37 1813.47 1444.36 1812.29 1444.85 1810.88 1444.85 1809.48 1444.85 1808.3 1444.36 1807.36 1443.37 1806.41 1442.38 1805.94 1441.13 1805.94 1439.62 1805.94 1438.11 1806.41 1436.86 1807.36 1435.87 1808.3 1434.89 1809.48 1434.39 1810.88 1434.39ZM1810.88 1412.83C1812.29 1412.83 1813.47 1413.33 1814.41 1414.31 1815.36 1415.3 1815.83 1416.55 1815.83 1418.06 1815.83 1419.57 1815.36 1420.82 1814.41 1421.81 1813.47 1422.8 1812.29 1423.29 1810.88 1423.29 1809.48 1423.29 1808.3 1422.8 1807.36 1421.81 1806.41 1420.82 1805.94 1419.57 1805.94 1418.06 1805.94 1416.55 1806.41 1415.3 1807.36 1414.31 1808.3 1413.33 1809.48 1412.83 1810.88 1412.83Z" fill-rule="evenodd"/><text fill="#000000" fill-opacity="0" font-family="Arial,Arial_MSFontService,sans-serif" font-size="53.5771" x="1805.94" y="1459.71">β‹®</text></g></svg>