<svg xmlns="http://www.w3.org/2000/svg" width="3416" height="2590" overflow="hidden"><defs><clipPath id="a"><path d="M210 145h3416v2590H210z"/></clipPath></defs><g clip-path="url(#a)" transform="translate(-210 -145)"><path fill="#f8ccb9" d="M210 2026h238v308H210z"/><path fill="#d74514" fill-rule="evenodd" d="M301.566 2154h18.886l3.161 33.84 19.21-33.84h18.845l-.567 2.68c-1.54.43-2.675 1.19-3.405 2.27q-1.094 1.62-2.066 6l-7.376 33.43q-.285 1.305-.406 2.25-.121.96-.121 2.49 0 1.71.79 2.49c.527.53 1.385.88 2.573 1.04l-.567 2.67h-20.385l.567-2.67c1.54-.43 2.675-1.19 3.405-2.27q1.094-1.62 2.066-6l3.729-17.02a257 257 0 0 1 4.377-16.98h-.811c-1.27 2.32-2.634 4.74-4.093 7.25l-18.237 31.57h-6.566l-2.674-24.35c-.622-5.79-1.027-10.74-1.216-14.88h-.649q-1.62 10.02-3.08 16.62l-3.931 17.79q-.284 1.305-.405 2.25-.122.96-.122 2.49 0 1.71.79 2.49c.527.53 1.385.88 2.574 1.04l-.567 2.67h-14.874l.567-2.67c1.54-.43 2.675-1.19 3.405-2.27q1.094-1.62 2.067-6l7.376-33.43c.351-1.6.526-3.18.526-4.75q0-1.695-.79-2.49c-.527-.53-1.384-.87-2.573-1.03Z"/><text x="290.421" y="2202.41" fill-opacity="0" font-family="Arial,Arial_MSFontService,sans-serif" font-size="55.32">𝑴</text><path fill="#fdefe8" fill-rule="evenodd" d="M1042 2626c0-60.2 48.8-109 109-109s109 48.8 109 109-48.8 109-109 109-109-48.8-109-109"/><path fill="#d74514" fill-rule="evenodd" d="M1159.31 2599.47c4.62 0 9.16.66 13.62 1.99l-2.6 11.83h-5.3c-.09-2.4-.33-4.21-.73-5.43-.41-1.22-1.04-2.13-1.91-2.74-.86-.6-2.04-.91-3.52-.91-2.27 0-4.52.89-6.73 2.68-2.22 1.78-4.26 4.48-6.14 8.08-1.88 3.61-3.39 7.87-4.54 12.79s-1.72 9.35-1.72 13.29c0 2.27.21 4.15.62 5.64.42 1.48 1.15 2.63 2.19 3.44s2.48 1.22 4.32 1.22c2.81 0 5.14-.71 6.99-2.11 1.85-1.41 3.52-3.82 5.01-7.26h5.3l-2.59 11.96c-2.62.76-5.23 1.3-7.82 1.64-2.6.34-5.38.51-8.35.51-5.75 0-10.17-1.58-13.25-4.72-3.08-3.15-4.62-7.68-4.62-13.6 0-2.24.24-4.82.73-7.74.78-4.62 2.08-8.89 3.89-12.81s4.08-7.2 6.83-9.87c2.74-2.66 5.82-4.64 9.24-5.93 3.41-1.3 7.11-1.95 11.08-1.95"/><text x="1127.54" y="2649.01" fill-opacity="0" font-family="Arial,Arial_MSFontService,sans-serif" font-size="56.617">𝑪</text><path fill="#fdefe8" fill-rule="evenodd" d="M1318 2173.5c0-60.48 48.8-109.5 109-109.5s109 49.02 109 109.5c0 60.47-48.8 109.5-109 109.5s-109-49.03-109-109.5"/><path fill="#d74514" fill-rule="evenodd" d="M1427.64 2147.49h6.32v63.43h-6.32Zm-14.18 0h6.32v63.43h-6.32Z"/><text x="1413.46" y="2202.99" fill-opacity="0" font-family="Arial,Arial_MSFontService,sans-serif" font-size="63.425">∥</text><path fill="#d74514" d="M1716 1947h238v309h-238zm0 320h238v146h-238z"/><path fill="#fdefe8" fill-rule="evenodd" d="M2125 2180c0-60.2 48.8-109 109-109s109 48.8 109 109-48.8 109-109 109-109-48.8-109-109"/><path fill="#d74514" fill-rule="evenodd" d="M2242.56 2153.35c4.62 0 9.16.67 13.62 1.99l-2.6 11.83h-5.31c-.08-2.4-.32-4.21-.73-5.43-.4-1.21-1.04-2.12-1.9-2.73-.87-.61-2.04-.91-3.53-.91-2.27 0-4.51.89-6.73 2.67-2.21 1.78-4.26 4.48-6.14 8.09-1.87 3.6-3.39 7.87-4.53 12.78-1.15 4.92-1.73 9.35-1.73 13.3 0 2.27.21 4.14.63 5.63s1.15 2.63 2.19 3.44 2.48 1.22 4.32 1.22c2.81 0 5.14-.7 6.99-2.11 1.85-1.4 3.52-3.82 5-7.25h5.31l-2.59 11.95c-2.62.76-5.23 1.31-7.82 1.65-2.6.33-5.38.5-8.35.5-5.76 0-10.18-1.57-13.26-4.72s-4.62-7.68-4.62-13.6c0-2.24.25-4.82.73-7.74.79-4.62 2.08-8.89 3.89-12.8 1.81-3.92 4.09-7.21 6.83-9.87q4.125-3.99 9.24-5.94c3.42-1.3 7.12-1.95 11.09-1.95"/><text x="2210.78" y="2202.89" fill-opacity="0" font-family="Arial,Arial_MSFontService,sans-serif" font-size="56.617">𝑪</text><path fill-rule="evenodd" d="M2635.8 2451.78c-1.38 0-2.74.46-4.08 1.4-1.33.93-2.8 2.42-4.39 4.47-1.6 2.06-2.84 4.08-3.73 6.08s-1.6 4.3-2.11 6.89l-.32 1.7c-.27 1.44-.44 2.53-.51 3.29-.07.75-.1 1.5-.1 2.23 0 2.1.45 3.64 1.36 4.6.9.96 2.46 1.43 4.68 1.43q2.055 0 3.81-.81c1.16-.54 2.26-1.32 3.3-2.35 1.04-1.02 1.98-2.27 2.82-3.73.83-1.45 1.58-3.15 2.24-5.08.67-1.93 1.17-3.92 1.5-5.96q.51-3.06.51-5.73c0-2.84-.4-4.95-1.19-6.35-.8-1.39-2.06-2.08-3.79-2.08m-118.18-1.5c-2.81 0-5.26 1.17-7.35 3.52-2.1 2.35-3.75 5.72-4.95 10.09q-1.8 6.57-1.8 11.31c0 2.97.61 5.17 1.84 6.59s3.09 2.13 5.57 2.13c2.65 0 5-1.19 7.06-3.57q3.075-3.57 4.86-9.99c1.19-4.28 1.78-8.05 1.78-11.29 0-2.92-.56-5.11-1.7-6.58-1.13-1.48-2.9-2.21-5.31-2.21m244.41-.08c-2.73 0-5.36 1.37-7.89 4.13-2.52 2.76-4.46 6.48-5.81 11.19 3.81-.03 7.08-.38 9.81-1.04 2.72-.66 4.82-1.71 6.28-3.16 1.46-1.44 2.19-3.4 2.19-5.86 0-1.64-.39-2.93-1.16-3.87-.77-.93-1.91-1.39-3.42-1.39m-84.08 0q-4.185 0-7.5 3.36c-2.22 2.24-3.95 5.25-5.19 9.02q-1.86 5.655-1.86 11.28c0 2.81.38 4.91 1.15 6.31.77 1.39 2.06 2.08 3.87 2.08 1.79 0 3.53-.77 5.25-2.31s3.49-3.73 5.31-6.58q2.73-4.275 3.87-9.87l.36-1.74c.25-1.11.41-2.07.49-2.88q.12-1.215.12-2.64c0-2.08-.44-3.6-1.34-4.57-.89-.98-2.4-1.46-4.53-1.46m-159.52-3.16c4.33 0 7.62 1.18 9.89 3.54 2.27 2.37 3.41 5.75 3.41 10.15q0 4.71-1.65 10.05c-1.09 3.57-2.59 6.57-4.49 9-1.91 2.43-4.19 4.26-6.83 5.49-2.65 1.23-5.69 1.85-9.12 1.85-4.19 0-7.44-1.18-9.75-3.53s-3.46-5.73-3.46-10.13c0-2.16.32-4.66.97-7.5.84-3.84 2.24-7.19 4.21-10.05 1.98-2.86 4.41-5.06 7.3-6.59 2.89-1.52 6.06-2.28 9.52-2.28m245.06-.05c3.26 0 5.72.67 7.35 1.99 1.64 1.32 2.45 3.39 2.45 6.2 0 4.59-2.15 8.04-6.46 10.34-4.31 2.29-10.71 3.44-19.19 3.44-.32 1.62-.49 3.38-.49 5.27 0 2.84.56 4.9 1.66 6.18 1.11 1.28 2.92 1.92 5.44 1.92 2.48 0 4.73-.54 6.74-1.62 2.02-1.08 4.14-2.74 6.39-4.98l2.51 2.63c-2.62 2.89-5.28 5.07-7.96 6.53q-4.035 2.19-9.39 2.19c-3.91 0-6.95-1.2-9.09-3.59-2.15-2.39-3.23-5.72-3.23-9.99q0-4.335 1.56-9.3c1.04-3.31 2.62-6.28 4.72-8.92 2.11-2.63 4.64-4.67 7.58-6.12 2.95-1.44 6.08-2.17 9.41-2.17m-53.8 0c1.71 0 3.05.57 4.04 1.69.98 1.12 1.48 2.58 1.48 4.39 0 1.35-.26 2.75-.77 4.18l.52.2c2.65-3.59 5.2-6.23 7.64-7.9 2.45-1.68 4.93-2.51 7.44-2.51 1.97 0 3.62.14 4.94.44l-1.94 9.08h-4.18c-.16-1.14-.39-2.01-.69-2.64q-.435-.93-1.05-1.29c-.41-.25-.92-.37-1.54-.37q-1.455 0-3.18 1.26t-3.87 3.93c-1.43 1.78-2.58 3.5-3.43 5.15s-1.56 3.74-2.12 6.28l-3.85 17.55h-7.02l5.88-25.7c.38-1.62.62-2.87.73-3.77.11-.89.16-1.63.16-2.22 0-1.09-.17-1.87-.52-2.36-.36-.48-.91-.72-1.67-.72-.83 0-1.72.34-2.65 1.03s-2.21 1.94-3.83 3.75l-2.31-2.27c2.49-2.6 4.57-4.44 6.24-5.53a9.9 9.9 0 0 1 5.55-1.65m-32.55 0c1.75 0 3.39.2 4.92.59s3.1 1.09 4.72 2.09l3.73-2.68 2.59.65-5.95 25.7q-.9 3.84-.9 6c0 1.08.18 1.86.53 2.35.35.48.91.73 1.66.73.81 0 1.68-.34 2.6-1 .91-.66 2.21-1.92 3.89-3.79l2.31 2.27c-2.43 2.6-4.51 4.44-6.22 5.53q-2.58 1.65-5.58 1.65c-1.67 0-3.01-.56-4.01-1.67-1-1.1-1.5-2.58-1.5-4.41q0-2.235.93-4.74l-.52-.17q-3.9 5.685-7.38 8.31-3.48 2.64-7.38 2.64c-2.97 0-5.27-1.13-6.9-3.37-1.64-2.24-2.46-5.39-2.46-9.44 0-4.65.92-9.11 2.74-13.4 1.82-4.28 4.33-7.65 7.52-10.13 3.18-2.47 6.74-3.71 10.66-3.71m-58.41 0c1.68 0 3.01.56 4 1.67.98 1.1 1.48 2.58 1.48 4.41 0 1.52-.32 3.11-.94 4.79l.49.16q7.5-10.98 14.91-10.98 4.425 0 6.87 3.36c1.64 2.24 2.45 5.4 2.45 9.48 0 4.46-.89 8.84-2.69 13.15s-4.29 7.73-7.48 10.26c-3.19 2.52-6.75 3.79-10.7 3.79-3.59 0-6.58-.79-8.95-2.35l-1.87 8.87c-.4 1.92-.61 3.5-.61 4.74 0 1.19.31 2.04.92 2.54.6.5 1.79.83 3.54.99l-.32 1.98h-12.52l9.76-43c.57-2.48.85-4.52.85-6.11 0-1.09-.17-1.87-.52-2.36-.35-.48-.91-.72-1.67-.72-.83 0-1.72.34-2.65 1.03s-2.21 1.94-3.83 3.75l-2.31-2.27q3.645-3.81 6.18-5.49a9.95 9.95 0 0 1 5.61-1.69m-70 0c1.71 0 3.05.57 4.04 1.69.98 1.12 1.48 2.58 1.48 4.39 0 1.49-.32 3.07-.94 4.75l.49.16c2.49-3.7 4.96-6.45 7.42-8.25s4.94-2.69 7.45-2.69c2.6 0 4.57.73 5.92 2.2 1.35 1.48 2.03 3.6 2.03 6.39v.56c0 .19-.02.4-.04.61 2.32-3.29 4.64-5.75 6.95-7.35 2.31-1.61 4.7-2.41 7.19-2.41s4.4.71 5.76 2.14c1.35 1.43 2.02 3.45 2.02 6.04q0 2.55-1.17 7.26l-2.64 10.61c-.73 2.95-1.09 5.03-1.09 6.25 0 1.08.17 1.86.52 2.35.36.48.91.73 1.67.73.81 0 1.67-.34 2.59-1s2.22-1.92 3.89-3.79l2.31 2.27c-2.32 2.46-4.35 4.27-6.08 5.43-1.73 1.17-3.7 1.75-5.92 1.75-1.75 0-3.16-.63-4.21-1.89-1.05-1.25-1.58-2.86-1.58-4.8 0-1.76.44-4.34 1.34-7.74l1.78-7.01c.65-2.54 1.07-4.42 1.28-5.64.2-1.21.3-2.2.3-2.95 0-1.87-.31-3.21-.93-4.04-.62-.82-1.64-1.23-3.04-1.23-1.14 0-2.35.42-3.65 1.27s-2.66 2.18-4.09 3.98c-1.43 1.79-2.6 3.56-3.51 5.3-.9 1.75-1.63 3.87-2.17 6.39l-3.68 17.71h-7.02l4.67-20.59c.56-2.51.95-4.37 1.15-5.57.2-1.21.3-2.24.3-3.1 0-1.95-.34-3.33-1.03-4.16-.69-.82-1.76-1.23-3.22-1.23-1.03 0-2.2.42-3.51 1.27s-2.71 2.22-4.19 4.1c-1.49 1.87-2.65 3.68-3.49 5.41-.83 1.73-1.54 3.83-2.1 6.32l-3.85 17.55h-7.02l5.92-25.7c.6-2.59.89-4.59.89-5.99 0-1.09-.17-1.87-.52-2.36-.35-.48-.91-.72-1.67-.72-.83 0-1.72.34-2.65 1.03s-2.21 1.94-3.83 3.75l-2.31-2.27c2.38-2.49 4.42-4.3 6.14-5.45s3.6-1.73 5.65-1.73m-71.27-16.53c2.46 0 4.73.15 6.83.45q3.135.435 6.99 1.62l-2.44 10.98h-3.89c-.21-3.32-.93-5.72-2.16-7.19-1.23-1.48-3.21-2.21-5.94-2.21-3.73 0-7.19 1.86-10.4 5.59-3.2 3.73-5.73 8.65-7.6 14.77q-2.79 9.18-2.79 17.04c0 4.11.73 7.14 2.19 9.08 1.46 1.95 3.7 2.92 6.72 2.92 2.03 0 3.8-.3 5.31-.91 1.52-.61 2.93-1.64 4.26-3.08q1.98-2.175 3.93-6.06h3.89l-2.47 11.51c-5.05 1.4-10.35 2.11-15.89 2.11-5.08 0-8.94-1.46-11.59-4.38s-3.97-7.19-3.97-12.81q0-5.955 2.13-13.74c1.42-5.18 3.42-9.74 6.01-13.65 2.6-3.92 5.67-6.91 9.2-8.96 3.54-2.05 7.43-3.08 11.68-3.08"/><text x="2448.44" y="2494.68" fill-opacity="0" font-family="Arial,Arial_MSFontService,sans-serif" font-size="73.395">𝐶𝑜𝑚𝑝𝑎𝑟𝑒</text><path d="M448.5 2175.92h90.459v9.16H448.5Zm85.876-18.34 45.833 22.92-45.833 22.92Z"/><path fill-rule="evenodd" d="M1119.84 2263.61h16.21l-.45 1.98c-1.03.22-1.76.46-2.21.73-.44.27-.84.68-1.19 1.22-.36.54-.72 1.38-1.1 2.53s-.85 3.02-1.42 5.62l-2.87 12.92h1.33c1.14 0 2.17-.19 3.1-.56.94-.38 2.02-1.07 3.27-2.07 1.24-1 3.22-2.84 5.93-5.51 2.72-2.68 4.65-4.71 5.8-6.1s1.98-2.6 2.51-3.61.79-1.94.79-2.77q0-1.02-.81-1.65-.81-.615-2.31-.75l.45-1.98h17.38l-.44 1.98c-1.08.17-2.31.73-3.67 1.69s-3.45 2.83-6.26 5.61l-15.73 15.32 8.64 20.75c.89 2.13 1.62 3.67 2.2 4.62.59.94 1.28 1.69 2.09 2.25q1.215.825 3 1.11l-.44 1.99h-15.65l.45-1.99c1.46-.13 2.19-.78 2.19-1.94 0-.73-.15-1.56-.45-2.5-.3-.93-.65-1.89-1.05-2.89l-5.27-12.89q-.93-2.31-1.62-3.24c-.46-.62-.95-1.06-1.46-1.3-.52-.24-1.31-.36-2.39-.36h-2.27l-3.37 15.32c-.35 1.62-.58 2.89-.69 3.82-.1.94-.16 1.77-.16 2.5 0 1.21.31 2.07.91 2.57.61.5 1.63.8 3.06.91l-.44 1.99h-16.21l.44-1.99c1.03-.16 1.8-.42 2.31-.79.52-.36.95-.87 1.3-1.52s.68-1.44.97-2.37c.3-.93.75-2.73 1.34-5.41l6.89-31.2c.59-2.71.89-4.88.89-6.53 0-1.27-.32-2.15-.95-2.65-.64-.5-1.64-.79-3.02-.88Z"/><text x="1109.22" y="2312.01" fill-opacity="0" font-family="Arial,Arial_MSFontService,sans-serif" font-size="55.32">𝐾</text><path fill-rule="evenodd" d="M1176.37 2297.41h1.82c-.04 1.09-.07 2.07-.09 2.93-.02.87-.03 1.71-.04 2.52s-.02 1.62-.02 2.41v22.64c0 .61.02 1.15.06 1.59.04.45.11.83.2 1.13.09.31.2.58.35.79.15.22.33.41.52.57.24.24.56.42.96.55.39.13.9.24 1.52.33q.915.135 2.22.21c.86.05 1.9.08 3.11.1v2.59h-23.62v-2.59c1.17-.04 2.16-.08 2.98-.13.81-.05 1.51-.12 2.08-.21a10 10 0 0 0 1.39-.3c.34-.11.65-.24.91-.4.27-.18.51-.37.71-.58s.36-.47.48-.79.21-.71.28-1.16c.07-.46.1-1.03.1-1.7v-21.36c0-.77-.14-1.32-.44-1.64-.3-.31-.73-.47-1.28-.47-.62 0-1.53.32-2.74.95-1.22.64-2.78 1.58-4.71 2.83-.26-.46-.5-.91-.71-1.37-.22-.46-.45-.92-.69-1.4 2.46-1.35 4.9-2.69 7.31-4.03 2.42-1.35 4.86-2.68 7.34-4.01"/><text x="1161.72" y="2330.98" fill-opacity="0" font-family="Arial,Arial_MSFontService,sans-serif" font-size="38.363">1</text><path d="M1156.08 2356.5v119.74h-9.16V2356.5Zm18.34 115.16-22.92 45.83-22.92-45.83ZM797.5 2175.92h126.77v450.7l-4.584-4.59h80.934v9.17h-85.517v-450.7l4.583 4.58H797.5Zm198.539 427.78 45.831 22.92-45.831 22.91Zm264.461 27.773h171.254v-306.718h-9.167v302.135l4.583-4.583H1260.5Zm189.587-302.135-22.917-45.833-22.916 45.833Z"/><path fill="#fdefe8" fill-rule="evenodd" d="M579 2180c0-60.2 48.801-109 109-109s109 48.8 109 109-48.801 109-109 109-109-48.8-109-109"/><path fill="#d74514" fill-rule="evenodd" d="M671.736 2154h39.352l-2.878 13.05h-5.187c-.135-2.56-.378-4.36-.73-5.39-.351-1.02-.891-1.77-1.621-2.23-.729-.46-1.756-.68-3.08-.68H687.42l-4.296 19.45h5.633c1.081 0 1.993-.18 2.736-.53s1.432-.94 2.067-1.76c.635-.83 1.263-1.97 1.884-3.43h4.458l-3.89 16.46h-4.175c0-1.57-.094-2.77-.283-3.61s-.541-1.44-1.054-1.82q-.77-.57-2.634-.57h-5.755l-4.782 21.64h9.118q1.783 0 2.776-.24a6 6 0 0 0 1.824-.77q.831-.525 1.925-1.68c.73-.77 1.452-1.75 2.168-2.92.716-1.18 1.453-2.59 2.209-4.24h5.512l-3.729 14.59h-38.541l.567-2.67c1.54-.43 2.675-1.19 3.404-2.27q1.095-1.62 2.067-6l7.376-33.43c.352-1.6.527-3.18.527-4.75q0-1.695-.79-2.49c-.527-.53-1.385-.87-2.574-1.03Z"/><text x="660.591" y="2202.41" fill-opacity="0" font-family="Arial,Arial_MSFontService,sans-serif" font-size="55.32">𝑬</text><path fill-rule="evenodd" d="M657.013 2431.11h16.211l-.446 1.98c-1.027.22-1.763.46-2.209.73s-.844.68-1.195 1.22-.716 1.38-1.095 2.53c-.378 1.15-.851 3.02-1.418 5.62l-2.877 12.92h1.337c1.135 0 2.168-.19 3.1-.56q1.398-.57 3.263-2.07c1.243-1 3.222-2.84 5.937-5.51 2.715-2.68 4.647-4.71 5.795-6.1 1.149-1.39 1.986-2.6 2.513-3.61s.79-1.94.79-2.78c0-.67-.27-1.22-.81-1.64q-.812-.63-2.31-.75l.446-1.98h17.386l-.446 1.98c-1.081.17-2.303.73-3.668 1.69-1.364.95-3.451 2.83-6.261 5.61l-15.725 15.32 8.633 20.75q1.337 3.195 2.208 4.62.872 1.41 2.087 2.25 1.217.825 2.999 1.11l-.445 1.99h-15.644l.446-1.99c1.459-.13 2.188-.78 2.188-1.94 0-.73-.148-1.56-.445-2.5a41 41 0 0 0-1.054-2.89l-5.269-12.89q-.932-2.31-1.621-3.24c-.459-.62-.945-1.06-1.459-1.3-.513-.24-1.31-.37-2.391-.37h-2.269l-3.364 15.32c-.351 1.63-.581 2.9-.689 3.83-.108.94-.162 1.77-.162 2.5 0 1.21.304 2.07.912 2.57.607.5 1.627.8 3.059.91l-.445 1.99h-16.211l.445-1.99c1.027-.16 1.797-.42 2.311-.79.513-.36.945-.87 1.296-1.52q.528-.975.973-2.37c.297-.93.743-2.73 1.337-5.41l6.89-31.21c.595-2.7.892-4.87.892-6.52 0-1.27-.318-2.16-.953-2.65-.635-.5-1.641-.8-3.019-.88Z"/><text x="646.395" y="2479.51" fill-opacity="0" font-family="Arial,Arial_MSFontService,sans-serif" font-size="55.32">𝐾</text><path fill-rule="evenodd" d="M713.131 2464.7c2.065 0 3.827.23 5.287.7q2.189.705 3.559 1.89c.914.8 1.574 1.75 1.981 2.86q.61 1.665.61 3.6 0 1.17-.163 2.16c-.11.67-.298 1.32-.566 1.97-.268.64-.621 1.3-1.058 1.95-.437.66-.983 1.35-1.638 2.09-.496.63-1.142 1.37-1.936 2.2s-1.663 1.73-2.606 2.68-1.931 1.95-2.964 2.98a175 175 0 0 0-3.008 3.07 63 63 0 0 0-2.681 2.95c-.814.95-1.479 1.82-1.995 2.62h11.02c.933 0 1.678-.04 2.234-.11s1.018-.22 1.385-.46.68-.6.938-1.09q.387-.72.894-2.01h2.77q-.149 2.115-.283 4.26t-.283 4.26H699.4v-1.55a28 28 0 0 1 1.668-3.17 43 43 0 0 1 2.144-3.17 49 49 0 0 1 2.711-3.32 82 82 0 0 1 3.366-3.56c1.866-1.87 3.385-3.46 4.557-4.78 1.171-1.32 2.095-2.5 2.77-3.53s1.137-1.99 1.385-2.86c.248-.88.372-1.81.372-2.8 0-1.01-.144-1.95-.432-2.8s-.7-1.58-1.236-2.18c-.536-.59-1.216-1.06-2.04-1.4-.824-.33-1.772-.5-2.845-.5q-2.77 0-4.646 1.5c-1.251 1.01-2.224 2.46-2.919 4.37h-3.902v-5.81c2.542-1.05 4.88-1.82 7.014-2.3 2.135-.47 4.056-.71 5.764-.71"/><text x="699.4" y="2498.45" fill-opacity="0" font-family="Arial,Arial_MSFontService,sans-serif" font-size="38.572">2</text><path d="m684.697 2390.39-.461-59.61 9.166-.07.461 59.61Zm-18.759-54.88 22.562-46.01 23.27 45.65Zm870.562-166.59h139.2v9.16h-139.2Zm134.62-18.34 45.83 22.92-45.83 22.92Zm-873.563 34.013 478.93-5.994-.115-9.166-478.93 5.994Zm474.576 12.395 45.543-23.488-46.116-22.342Z"/><path fill-rule="evenodd" d="M2203.08 2431.11h16.21l-.44 1.98c-1.03.22-1.77.46-2.21.73-.45.27-.85.68-1.2 1.22s-.71 1.38-1.09 2.53-.85 3.02-1.42 5.62l-2.88 12.92h1.34c1.14 0 2.17-.19 3.1-.56.93-.38 2.02-1.07 3.26-2.07 1.25-1 3.23-2.84 5.94-5.51 2.72-2.68 4.65-4.71 5.8-6.1 1.14-1.39 1.98-2.6 2.51-3.61s.79-1.94.79-2.78c0-.67-.27-1.22-.81-1.64q-.81-.63-2.31-.75l.44-1.98h17.39l-.45 1.98c-1.08.17-2.3.73-3.66 1.69-1.37.95-3.45 2.83-6.26 5.61l-15.73 15.32 8.63 20.75c.89 2.13 1.63 3.67 2.21 4.62.58.94 1.28 1.69 2.09 2.25q1.215.825 3 1.11l-.45 1.99h-15.64l.44-1.99c1.46-.13 2.19-.78 2.19-1.94 0-.73-.15-1.56-.44-2.5-.3-.93-.65-1.89-1.06-2.89l-5.27-12.89q-.93-2.31-1.62-3.24c-.46-.62-.94-1.06-1.46-1.3-.51-.24-1.31-.37-2.39-.37h-2.27l-3.36 15.32c-.35 1.63-.58 2.9-.69 3.83-.11.94-.16 1.77-.16 2.5 0 1.21.3 2.07.91 2.57s1.63.8 3.06.91l-.44 1.99h-16.22l.45-1.99c1.03-.16 1.8-.42 2.31-.79.51-.36.95-.87 1.3-1.52s.67-1.44.97-2.37.74-2.73 1.34-5.41l6.89-31.21c.59-2.7.89-4.87.89-6.52 0-1.27-.32-2.16-.95-2.65-.64-.5-1.65-.8-3.02-.88Z"/><text x="2192.46" y="2479.51" fill-opacity="0" font-family="Arial,Arial_MSFontService,sans-serif" font-size="55.32">𝐾</text><path fill-rule="evenodd" d="M2259.62 2464.91h1.82c-.04 1.09-.07 2.07-.09 2.93-.02.87-.04 1.7-.05 2.52-.01.81-.01 1.62-.01 2.41v22.64q0 .915.06 1.59c.04.45.1.83.19 1.13.09.31.21.57.36.79s.32.41.52.57c.24.24.56.42.95.55.4.13.91.24 1.52.33q.93.135 2.22.21c.87.05 1.9.08 3.12.1v2.59h-23.62v-2.59c1.17-.04 2.16-.08 2.97-.13.82-.05 1.51-.12 2.09-.21.57-.09 1.04-.19 1.38-.3.35-.11.65-.24.91-.4.28-.18.52-.37.72-.58s.35-.47.47-.79.22-.71.29-1.16c.07-.46.1-1.03.1-1.7v-21.36c0-.77-.15-1.32-.45-1.64-.29-.31-.72-.47-1.28-.47-.61 0-1.53.32-2.74.95-1.21.64-2.78 1.58-4.7 2.83-.26-.46-.5-.91-.72-1.37s-.44-.92-.68-1.4c2.46-1.35 4.9-2.7 7.31-4.04s4.86-2.67 7.34-4"/><text x="2244.97" y="2498.48" fill-opacity="0" font-family="Arial,Arial_MSFontService,sans-serif" font-size="38.363">1</text><path d="M2239.083 2390.35v-59.605h-9.166v59.605Zm18.334-55.021-22.917-45.834-22.916 45.834Zm86.083-159.409h272.26v173.43h-9.16V2180.5l4.58 4.58H2343.5Zm290.6 168.84-22.92 45.84-22.92-45.84Zm-679.6-8.84h98.23v270.19l-4.59-4.58h563.74l-4.58 4.58v-41.25h9.16v45.84h-572.9v-270.2l4.58 4.58h-93.64Zm634.46 233.53 22.92-45.84 22.92 45.84Z"/><path fill="#fdefe8" fill-rule="evenodd" d="M2828 2186.5c0-60.48 48.8-109.5 109-109.5s109 49.02 109 109.5-48.8 109.5-109 109.5-109-49.02-109-109.5"/><path fill="#d74514" fill-rule="evenodd" d="M2935.41 2165.26c-1.35 0-2.39.02-3.12.08l-10.01 45.55c1.25.11 2.25.16 3 .16 3.49 0 6.49-.69 9.02-2.07 2.53-1.37 4.77-3.47 6.73-6.3 1.96-2.82 3.5-6.27 4.62-10.33 1.12-4.07 1.68-8.15 1.68-12.26 0-2.78-.31-5.12-.93-7.01s-1.48-3.42-2.58-4.58q-1.635-1.74-3.81-2.49c-1.44-.5-2.98-.75-4.6-.75m-18.76-4.75h16.41c4.46 0 8.03.25 10.7.73 2.43.44 4.66 1.18 6.67 2.23 2.01 1.06 3.6 2.22 4.76 3.49 1.49 1.56 2.66 3.53 3.51 5.89.85 2.37 1.27 5.14 1.27 8.33 0 3.6-.4 7.04-1.21 10.34-.81 3.29-2.01 6.34-3.59 9.14-1.58 2.79-3.47 5.2-5.67 7.21s-4.41 3.58-6.63 4.7c-2.21 1.12-4.71 1.95-7.5 2.47-2.78.53-6.08.79-9.89.79h-19.98l.57-2.67c1.54-.43 2.68-1.19 3.41-2.27s1.41-3.08 2.06-6l7.38-33.43c.35-1.6.53-3.18.53-4.75 0-1.13-.27-1.96-.79-2.49-.53-.52-1.39-.87-2.58-1.03Z"/><text x="2905.5" y="2208.92" fill-opacity="0" font-family="Arial,Arial_MSFontService,sans-serif" font-size="55.32">𝑫</text><path d="M1954.5 2106.463h98.065v-150.518l-4.583 4.583h890.12l-4.583-4.583v80.306h9.167v-84.889h-899.287v150.518l4.583-4.583H1954.5Zm960.686-74.795 22.916 45.833 22.918-45.833Z"/><path fill-rule="evenodd" d="M2905.16 2431.11h16.21l-.45 1.98c-1.02.22-1.76.46-2.21.73-.44.27-.84.68-1.19 1.22s-.72 1.38-1.1 2.53c-.37 1.15-.85 3.02-1.41 5.62l-2.88 12.92h1.34c1.13 0 2.16-.19 3.1-.56.93-.38 2.02-1.07 3.26-2.07s3.22-2.84 5.94-5.51c2.71-2.68 4.64-4.71 5.79-6.1s1.99-2.6 2.51-3.61c.53-1.01.79-1.94.79-2.78 0-.67-.27-1.22-.81-1.64q-.81-.63-2.31-.75l.45-1.98h17.39l-.45 1.98c-1.08.17-2.3.73-3.67 1.69-1.36.95-3.45 2.83-6.26 5.61l-15.72 15.32 8.63 20.75c.89 2.13 1.63 3.67 2.21 4.62.58.94 1.27 1.69 2.08 2.25q1.215.825 3 1.11l-.44 1.99h-15.65l.45-1.99c1.46-.13 2.19-.78 2.19-1.94 0-.73-.15-1.56-.45-2.5-.3-.93-.65-1.89-1.05-2.89l-5.27-12.89q-.93-2.31-1.62-3.24c-.46-.62-.95-1.06-1.46-1.3s-1.31-.37-2.39-.37h-2.27l-3.36 15.32c-.36 1.63-.59 2.9-.69 3.83-.11.94-.17 1.77-.17 2.5 0 1.21.31 2.07.92 2.57.6.5 1.62.8 3.06.91l-.45 1.99h-16.21l.44-1.99c1.03-.16 1.8-.42 2.31-.79.52-.36.95-.87 1.3-1.52s.68-1.44.97-2.37c.3-.93.75-2.73 1.34-5.41l6.89-31.21c.6-2.7.89-4.87.89-6.52 0-1.27-.31-2.16-.95-2.65-.63-.5-1.64-.8-3.02-.88Z"/><text x="2894.54" y="2479.51" fill-opacity="0" font-family="Arial,Arial_MSFontService,sans-serif" font-size="55.32">𝐾</text><path fill-rule="evenodd" d="M2961.28 2464.7c2.06 0 3.82.23 5.28.7s2.65 1.1 3.56 1.89c.91.8 1.58 1.75 1.98 2.86.41 1.11.61 2.31.61 3.6 0 .78-.05 1.5-.16 2.16-.11.67-.3 1.32-.57 1.97-.26.64-.62 1.3-1.05 1.95-.44.66-.99 1.35-1.64 2.09-.5.63-1.14 1.37-1.94 2.2-.79.83-1.66 1.73-2.6 2.68-.95.95-1.94 1.95-2.97 2.98s-2.03 2.05-3.01 3.07c-.97 1.01-1.86 1.99-2.68 2.95-.81.95-1.48 1.82-1.99 2.62h11.02c.93 0 1.68-.04 2.23-.11.56-.07 1.02-.22 1.39-.46.36-.24.68-.6.93-1.09q.39-.72.9-2.01h2.77c-.1 1.41-.2 2.83-.28 4.26-.09 1.43-.19 2.85-.29 4.26h-25.23v-1.55c.48-1.07 1.04-2.13 1.67-3.17.64-1.04 1.35-2.1 2.15-3.17.79-1.07 1.69-2.18 2.71-3.32 1.01-1.14 2.13-2.33 3.36-3.56 1.87-1.87 3.39-3.46 4.56-4.78s2.1-2.5 2.77-3.53c.68-1.03 1.14-1.99 1.39-2.86.24-.88.37-1.81.37-2.8 0-1.01-.15-1.95-.43-2.8-.29-.85-.7-1.58-1.24-2.18-.54-.59-1.22-1.06-2.04-1.4-.82-.33-1.77-.5-2.85-.5-1.84 0-3.39.5-4.64 1.5-1.25 1.01-2.23 2.46-2.92 4.37h-3.9v-5.81c2.54-1.05 4.88-1.82 7.01-2.3 2.14-.47 4.06-.71 5.77-.71"/><text x="2947.54" y="2498.45" fill-opacity="0" font-family="Arial,Arial_MSFontService,sans-serif" font-size="38.572">2</text><path d="M2942.083 2390.84v-53.094h-9.166v53.094Zm18.334-48.51-22.917-45.834-22.916 45.833Z"/><path fill="#f8ccb9" d="M3317 2034h237v309h-237z"/><path fill="#d74514" fill-rule="evenodd" d="M3408.24 2162.74h18.88l3.16 33.84 19.21-33.84h18.85l-.57 2.68c-1.54.43-2.67 1.19-3.4 2.27s-1.42 3.08-2.07 5.99l-7.38 33.44c-.18.86-.32 1.61-.4 2.25q-.12.945-.12 2.49c0 1.14.26 1.97.79 2.49.53.53 1.38.88 2.57 1.04l-.57 2.67h-20.38l.57-2.67c1.54-.44 2.67-1.19 3.4-2.27q1.095-1.62 2.07-6l3.73-17.02c1.24-5.62 2.7-11.28 4.37-16.98h-.81a320 320 0 0 1-4.09 7.25l-18.24 31.57h-6.56l-2.68-24.35c-.62-5.79-1.02-10.74-1.21-14.88h-.65c-1.08 6.68-2.11 12.21-3.08 16.62l-3.93 17.79c-.19.86-.33 1.61-.41 2.25q-.12.945-.12 2.49c0 1.14.26 1.97.79 2.49.53.53 1.38.88 2.57 1.04l-.56 2.67h-14.88l.57-2.67c1.54-.44 2.67-1.19 3.4-2.27q1.095-1.62 2.07-6l7.38-33.44c.35-1.59.52-3.17.52-4.74 0-1.13-.26-1.96-.79-2.49-.52-.53-1.38-.87-2.57-1.03Z"/><text x="3397.09" y="2211.15" fill-opacity="0" font-family="Arial,Arial_MSFontService,sans-serif" font-size="55.32">𝑴</text><path d="m3046.54 2181.92 229.23 1.89-.08 9.16-229.23-1.89Zm224.79-16.49 45.65 23.3-46.02 22.54Zm-1316.83 10.49h130.18v9.16H1954.5Zm125.6-18.34 45.83 22.92-45.83 22.92Z"/><path fill="#d74514" fill-rule="evenodd" d="M1628.35 2470.4c2.46 0 4.73.15 6.83.44 2.09.3 4.42.84 6.99 1.63l-2.44 10.98h-3.89q-.315-4.98-2.16-7.2c-1.23-1.47-3.21-2.2-5.94-2.2-3.73 0-7.19 1.86-10.4 5.59-3.2 3.73-5.73 8.65-7.6 14.77q-2.79 9.18-2.79 17.04c0 4.11.73 7.14 2.19 9.08 1.46 1.95 3.7 2.92 6.72 2.92 2.03 0 3.8-.3 5.31-.91 1.52-.61 2.93-1.64 4.26-3.08q1.98-2.175 3.93-6.06h3.89l-2.47 11.51c-5.05 1.4-10.35 2.11-15.89 2.11-5.08 0-8.94-1.46-11.59-4.38s-3.97-7.19-3.97-12.81q0-5.955 2.13-13.74c1.42-5.18 3.42-9.74 6.02-13.65 2.59-3.92 5.66-6.91 9.19-8.96 3.54-2.05 7.43-3.08 11.68-3.08"/><text x="1599.33" y="2519.94" fill-opacity="0" font-family="Arial,Arial_MSFontService,sans-serif" font-size="56.617">𝐶</text><path fill="#d74514" fill-rule="evenodd" d="M2122.43 2452.55c8.43 2.21 14.93 7.96 19.5 17.22 4.56 9.27 6.85 20.24 6.85 32.91s-2.29 23.64-6.85 32.91q-6.855 13.905-19.5 17.22l-1.01-3.32c6.54-2.46 11.49-7.81 14.85-16.07 3.37-8.25 5.05-18.49 5.05-30.7 0-12.24-1.68-22.49-5.05-30.76-3.36-8.27-8.31-13.63-14.85-16.09Zm-442.04 0 1.01 3.32c-6.54 2.46-11.49 7.82-14.85 16.09-3.37 8.27-5.05 18.52-5.05 30.76 0 12.21 1.68 22.45 5.05 30.7 3.36 8.26 8.31 13.61 14.85 16.07l-1.01 3.32q-12.645-3.315-19.5-17.22c-4.56-9.27-6.85-20.24-6.85-32.91s2.29-23.64 6.85-32.91c4.57-9.26 11.07-15.01 19.5-17.22m16.34 18.5h16.22l-.45 1.98c-1.03.22-1.76.46-2.21.73s-.84.68-1.2 1.22c-.35.54-.71 1.38-1.09 2.53s-.85 3.02-1.42 5.61l-2.88 12.93h1.34c1.14 0 2.17-.19 3.1-.56q1.395-.57 3.27-2.07c1.24-1 3.22-2.84 5.93-5.51 2.72-2.68 4.65-4.71 5.8-6.1s1.98-2.6 2.51-3.61.79-1.94.79-2.78c0-.67-.27-1.22-.81-1.64q-.81-.63-2.31-.75l.45-1.98h17.38l-.44 1.98c-1.08.17-2.31.73-3.67 1.68-1.37.96-3.45 2.83-6.26 5.62l-15.73 15.32 8.63 20.75c.9 2.13 1.63 3.67 2.21 4.62.58.94 1.28 1.69 2.09 2.25q1.215.825 3 1.11l-.45 1.99h-15.64l.45-1.99c1.46-.13 2.18-.78 2.18-1.94 0-.73-.14-1.56-.44-2.5-.3-.93-.65-1.89-1.05-2.89l-5.27-12.89c-.62-1.54-1.17-2.62-1.62-3.24-.46-.63-.95-1.06-1.46-1.3-.52-.24-1.31-.37-2.39-.37h-2.27l-3.37 15.32c-.35 1.62-.58 2.9-.69 3.83-.1.94-.16 1.77-.16 2.5 0 1.21.3 2.07.91 2.57s1.63.8 3.06.91l-.44 1.99h-16.21l.44-1.99c1.03-.16 1.8-.42 2.31-.79.52-.36.95-.87 1.3-1.52s.67-1.44.97-2.37.74-2.74 1.34-5.41l6.89-31.21c.59-2.7.89-4.87.89-6.52 0-1.27-.32-2.16-.95-2.66-.64-.5-1.64-.79-3.02-.87Z"/><text x="1686.12" y="2519.45" fill-opacity="0" font-family="Arial,Arial_MSFontService,sans-serif" font-size="55.32">𝐾</text><path fill="#d74514" fill-rule="evenodd" d="M1753.27 2504.85h1.82c-.04 1.09-.07 2.07-.09 2.93-.02.87-.03 1.7-.04 2.52-.01.81-.02 1.62-.02 2.41v22.64q0 .915.06 1.59c.04.45.11.82.19 1.13.09.31.21.57.36.79s.32.41.52.57c.24.24.56.42.96.55.39.13.9.24 1.52.33.61.09 1.35.16 2.21.21.87.04 1.91.08 3.12.1v2.59h-23.62v-2.59c1.17-.04 2.16-.09 2.98-.13.81-.05 1.5-.12 2.08-.21a10 10 0 0 0 1.39-.3c.34-.11.65-.24.9-.4.28-.18.52-.38.72-.58.2-.21.36-.48.48-.79.11-.32.21-.71.28-1.16.07-.46.1-1.03.1-1.7v-21.36c0-.77-.15-1.32-.44-1.64-.3-.31-.73-.47-1.28-.47-.62 0-1.53.31-2.74.95-1.22.64-2.78 1.58-4.71 2.83-.26-.46-.5-.91-.72-1.37-.21-.46-.44-.92-.68-1.4 2.46-1.35 4.9-2.7 7.31-4.04s4.86-2.67 7.34-4"/><text x="1738.62" y="2538.42" fill-opacity="0" font-family="Arial,Arial_MSFontService,sans-serif" font-size="38.363">1</text><path fill="#d74514" fill-rule="evenodd" d="M1776.96 2516.96h7.09c.38 1.9.57 3.76.57 5.6 0 1.89-.32 3.62-.97 5.18-.65 1.57-1.68 3.13-3.1 4.69-1.42 1.55-3.37 3.26-5.86 5.12l-2.19-2.47q2.07-1.95 3-3.51c.62-1.04 1.07-2.22 1.34-3.54.27-1.33.41-2.99.41-4.99 0-2.05-.1-4.08-.29-6.08"/><text x="1772.5" y="2534.98" fill-opacity="0" font-family="Arial,Arial_MSFontService,sans-serif" font-size="20.588">,</text><path fill="#d74514" fill-rule="evenodd" d="M1815.4 2471.05h37.28l-2.79 12.44h-3.9c-.1-2.35-.31-4.12-.6-5.31-.3-1.19-.66-2.01-1.08-2.45a3.05 3.05 0 0 0-1.5-.89c-.58-.15-1.41-.23-2.49-.23h-13.21l-4.62 21.24h7.74c1.92 0 3.38-.45 4.4-1.36 1.01-.9 2.03-2.4 3.06-4.48h3.68l-3.64 15.57h-3.45c0-2.16-.13-3.63-.4-4.4s-.67-1.26-1.2-1.46-1.48-.3-2.86-.3h-8.1l-5.19 23.38h12c1.59 0 2.85-.16 3.79-.49.93-.32 1.81-.85 2.63-1.58.83-.73 1.65-1.75 2.47-3.06.83-1.31 1.81-3.08 2.94-5.33h3.93l-3.56 14.03h-35.95l.44-1.99c1.03-.16 1.8-.42 2.31-.79.52-.36.95-.87 1.3-1.52s.68-1.44.97-2.37c.3-.93.75-2.74 1.34-5.41l6.89-31.21c.6-2.7.89-4.87.89-6.52 0-1.27-.31-2.16-.95-2.66-.63-.5-1.64-.79-3.02-.87Z"/><text x="1804.78" y="2519.45" fill-opacity="0" font-family="Arial,Arial_MSFontService,sans-serif" font-size="55.32">𝐸</text><path fill="#d74514" fill-rule="evenodd" d="M2087.18 2464.25c7.89 2.08 13.95 6.58 18.18 13.48s6.34 15.23 6.34 24.98c0 9.78-2.1 18.11-6.32 24.99-4.21 6.87-10.28 11.35-18.2 13.43l-.97-3.12c6.24-2.08 10.88-6.18 13.92-12.32 3.04-6.13 4.56-13.93 4.56-23.38 0-9.13-1.51-16.72-4.54-22.76-3.02-6.04-7.71-10.1-14.06-12.18Zm-198.1 0 1.09 3.12q-9.48 3.12-14.04 12.18c-3.04 6.04-4.56 13.63-4.56 22.76 0 9.45 1.52 17.25 4.56 23.38 3.04 6.14 7.68 10.24 13.92 12.32l-.97 3.12c-7.92-2.08-13.99-6.56-18.2-13.43-4.22-6.88-6.32-15.21-6.32-24.99 0-9.75 2.11-18.08 6.34-24.98s10.29-11.4 18.18-13.48m15.35 6.8h16.21l-.45 1.98c-1.02.22-1.76.46-2.21.73-.44.27-.84.68-1.19 1.22s-.72 1.38-1.1 2.53c-.37 1.15-.85 3.02-1.41 5.61l-2.88 12.93h1.34c1.13 0 2.16-.19 3.1-.56.93-.38 2.02-1.07 3.26-2.07s3.22-2.84 5.94-5.51c2.71-2.68 4.64-4.71 5.79-6.1s1.99-2.6 2.51-3.61c.53-1.01.79-1.94.79-2.78 0-.67-.27-1.22-.81-1.64q-.81-.63-2.31-.75l.45-1.98h17.39l-.45 1.98c-1.08.17-2.3.73-3.67 1.68-1.36.96-3.45 2.83-6.26 5.62l-15.72 15.32 8.63 20.75c.89 2.13 1.63 3.67 2.21 4.62.58.94 1.27 1.69 2.08 2.25.82.55 1.81.92 3 1.11l-.44 1.99h-15.65l.45-1.99c1.46-.13 2.19-.78 2.19-1.94 0-.73-.15-1.56-.45-2.5-.29-.93-.65-1.89-1.05-2.89l-5.27-12.89q-.93-2.31-1.62-3.24c-.46-.63-.95-1.06-1.46-1.3s-1.31-.37-2.39-.37h-2.27l-3.36 15.32c-.36 1.62-.58 2.9-.69 3.83-.11.94-.17 1.77-.17 2.5 0 1.21.31 2.07.92 2.57.6.5 1.62.8 3.06.91l-.45 1.99h-16.21l.45-1.99c1.02-.16 1.79-.42 2.31-.79.51-.36.94-.87 1.29-1.52s.68-1.44.98-2.37c.29-.93.74-2.74 1.33-5.41l6.89-31.21c.6-2.7.89-4.87.89-6.52 0-1.27-.31-2.16-.95-2.66-.63-.5-1.64-.79-3.02-.87Z"/><text x="1893.81" y="2519.45" fill-opacity="0" font-family="Arial,Arial_MSFontService,sans-serif" font-size="55.32">𝐾</text><path fill="#d74514" fill-rule="evenodd" d="M1960.55 2504.64c2.06 0 3.82.23 5.28.7s2.65 1.1 3.56 1.89a6.73 6.73 0 0 1 1.98 2.86c.41 1.11.61 2.31.61 3.6 0 .78-.05 1.5-.16 2.16-.11.67-.3 1.32-.57 1.97-.26.64-.62 1.29-1.05 1.95-.44.66-.99 1.35-1.64 2.08a31 31 0 0 1-1.94 2.21c-.79.83-1.66 1.73-2.6 2.68-.95.95-1.94 1.95-2.97 2.98s-2.03 2.05-3.01 3.07c-.97 1.01-1.86 1.99-2.68 2.94-.81.96-1.48 1.83-1.99 2.63h11.02c.93 0 1.68-.04 2.23-.11.56-.07 1.02-.22 1.39-.46.36-.24.68-.6.94-1.09.25-.48.55-1.15.89-2.01h2.77c-.1 1.41-.19 2.83-.28 4.26s-.19 2.85-.29 4.26h-25.22v-1.55c.47-1.07 1.03-2.13 1.66-3.17.64-1.04 1.35-2.1 2.15-3.17.79-1.07 1.7-2.18 2.71-3.32 1.01-1.15 2.13-2.33 3.36-3.56 1.87-1.87 3.39-3.46 4.56-4.78s2.1-2.5 2.77-3.53c.68-1.04 1.14-1.99 1.39-2.86.24-.88.37-1.81.37-2.8 0-1.01-.15-1.95-.43-2.8-.29-.86-.7-1.58-1.24-2.18-.54-.59-1.22-1.06-2.04-1.4-.82-.33-1.77-.5-2.84-.5q-2.775 0-4.65 1.5c-1.25 1-2.23 2.46-2.92 4.37h-3.9v-5.81c2.54-1.06 4.88-1.82 7.01-2.3 2.14-.47 4.06-.71 5.77-.71"/><text x="1946.82" y="2538.39" fill-opacity="0" font-family="Arial,Arial_MSFontService,sans-serif" font-size="38.572">2</text><path fill="#d74514" fill-rule="evenodd" d="M1986.56 2516.96h7.09c.38 1.9.57 3.76.57 5.6 0 1.89-.33 3.62-.98 5.18-.64 1.57-1.68 3.13-3.1 4.69-1.41 1.55-3.37 3.26-5.85 5.12l-2.19-2.47q2.07-1.95 3-3.51c.62-1.04 1.07-2.22 1.34-3.54.27-1.33.4-2.99.4-4.99 0-2.05-.09-4.08-.28-6.08"/><text x="1982.1" y="2534.98" fill-opacity="0" font-family="Arial,Arial_MSFontService,sans-serif" font-size="20.588">,</text><path fill="#d74514" fill-rule="evenodd" d="M2024.91 2471.05h14.47l4.62 39.31 23.63-39.31h12.76l-.44 1.98c-1.03.22-1.77.46-2.21.73-.45.27-.85.68-1.22 1.22-.36.54-.73 1.38-1.09 2.53-.37 1.15-.83 3.02-1.4 5.61l-6.93 31.45c-.35 1.6-.58 2.86-.69 3.79s-.16 1.78-.16 2.54c0 1.21.3 2.07.91 2.57s1.63.8 3.06.91l-.44 1.99h-16.22l.45-1.99c1.03-.16 1.8-.42 2.31-.79.51-.36.95-.87 1.3-1.52s.67-1.44.97-2.37.74-2.74 1.34-5.41l5.39-24.44c.75-3.38 1.62-6.74 2.59-10.09h-.57c-.83 1.59-2.73 4.84-5.67 9.73l-18.44 30.43h-4.42l-3.36-26.06c-.49-3.67-1.03-8.61-1.62-14.83h-.81c-.92 6.05-1.95 11.66-3.08 16.82l-4.14 18.72c-.56 2.57-.85 4.68-.85 6.33 0 1.21.31 2.07.91 2.57.61.5 1.63.8 3.06.91l-.44 1.99h-14.19l.45-1.99c1.03-.16 1.8-.42 2.31-.79.51-.36.94-.87 1.3-1.52.35-.65.67-1.44.97-2.37s.74-2.74 1.34-5.41l6.89-31.21c.27-1.16.48-2.27.64-3.32.17-1.05.25-2.12.25-3.2 0-1.27-.32-2.16-.96-2.66-.63-.5-1.64-.79-3.01-.87Z"/><text x="2014.29" y="2519.45" fill-opacity="0" font-family="Arial,Arial_MSFontService,sans-serif" font-size="55.32">𝑀</text><path fill="#d74514" fill-rule="evenodd" d="M1677.38 1842.32h37.29l-2.8 12.44h-3.89c-.11-2.35-.31-4.12-.61-5.31-.29-1.19-.65-2-1.07-2.45a3.05 3.05 0 0 0-1.5-.89c-.58-.15-1.41-.22-2.49-.22h-13.21l-4.62 21.23h7.74c1.91 0 3.38-.45 4.39-1.36q1.53-1.35 3.06-4.47h3.69l-3.65 15.56h-3.44c0-2.16-.14-3.63-.41-4.4s-.67-1.25-1.19-1.46c-.53-.2-1.48-.3-2.86-.3h-8.1l-5.19 23.38h11.99c1.6 0 2.86-.16 3.79-.48.94-.33 1.81-.85 2.64-1.58.82-.73 1.65-1.75 2.47-3.06s1.8-3.09 2.94-5.33h3.93l-3.57 14.02h-35.94l.44-1.99c1.03-.16 1.8-.42 2.31-.79.51-.36.95-.87 1.3-1.52.35-.64.67-1.44.97-2.37s.74-2.73 1.34-5.41l6.89-31.2c.59-2.71.89-4.88.89-6.53 0-1.27-.32-2.15-.95-2.65-.64-.5-1.64-.79-3.02-.87Z"/><text x="1666.77" y="1890.72" fill-opacity="0" font-family="Arial,Arial_MSFontService,sans-serif" font-size="55.32">𝐸</text><path fill="#d74514" fill-rule="evenodd" d="M1949.17 1835.53q11.835 3.12 18.18 13.47c4.23 6.9 6.34 15.23 6.34 24.99 0 9.78-2.11 18.1-6.32 24.98-4.22 6.88-10.28 11.36-18.2 13.44l-.97-3.12c6.24-2.09 10.88-6.19 13.92-12.33 3.04-6.13 4.56-13.92 4.56-23.38 0-9.13-1.51-16.72-4.54-22.76-3.03-6.03-7.71-10.09-14.06-12.17Zm-198.11 0 1.1 3.12c-6.33 2.08-11.01 6.14-14.05 12.17-3.04 6.04-4.56 13.63-4.56 22.76 0 9.46 1.52 17.25 4.56 23.38 3.04 6.14 7.68 10.24 13.93 12.33l-.98 3.12c-7.91-2.08-13.98-6.56-18.19-13.44-4.22-6.88-6.33-15.2-6.33-24.98 0-9.76 2.12-18.09 6.35-24.99 4.22-6.9 10.28-11.39 18.17-13.47m15.35 6.79h16.22l-.45 1.99c-1.03.21-1.76.45-2.21.72-.44.28-.84.68-1.19 1.22-.36.54-.72 1.39-1.1 2.53-.38 1.15-.85 3.02-1.42 5.62l-2.87 12.92h1.33c1.14 0 2.17-.18 3.1-.56.94-.38 2.02-1.07 3.27-2.07 1.24-1 3.22-2.84 5.93-5.51 2.72-2.68 4.65-4.71 5.8-6.1s1.98-2.59 2.51-3.61c.53-1.01.79-1.94.79-2.77 0-.68-.27-1.23-.81-1.64q-.81-.63-2.31-.75l.45-1.99h17.38l-.44 1.99c-1.08.16-2.31.72-3.67 1.68-1.37.96-3.45 2.83-6.26 5.61l-15.73 15.32 8.64 20.75c.89 2.13 1.62 3.67 2.2 4.62s1.28 1.7 2.09 2.25q1.215.825 3 1.11l-.45 1.99h-15.64l.45-1.99c1.46-.13 2.18-.78 2.18-1.94 0-.73-.14-1.56-.44-2.49-.3-.94-.65-1.9-1.05-2.9l-5.27-12.89q-.93-2.31-1.62-3.24c-.46-.62-.95-1.06-1.46-1.3-.52-.24-1.31-.36-2.39-.36h-2.27l-3.37 15.32c-.35 1.62-.58 2.89-.69 3.83-.1.93-.16 1.76-.16 2.49 0 1.21.31 2.07.91 2.57.61.5 1.63.81 3.06.91l-.44 1.99h-16.21l.44-1.99c1.03-.16 1.8-.42 2.31-.79.52-.36.95-.87 1.3-1.52.35-.64.67-1.44.97-2.37s.74-2.73 1.34-5.41l6.89-31.2c.59-2.71.89-4.88.89-6.53 0-1.27-.32-2.15-.95-2.65-.64-.5-1.64-.79-3.02-.87Z"/><text x="1755.8" y="1890.72" fill-opacity="0" font-family="Arial,Arial_MSFontService,sans-serif" font-size="55.32">𝐾</text><path fill="#d74514" fill-rule="evenodd" d="M1822.53 1875.91c2.07 0 3.83.23 5.29.7s2.65 1.1 3.56 1.89c.91.8 1.57 1.75 1.98 2.86s.61 2.32.61 3.61c0 .77-.05 1.49-.16 2.16-.11.66-.3 1.32-.57 1.96-.27.65-.62 1.3-1.06 1.95-.43.66-.98 1.35-1.64 2.09-.49.63-1.14 1.37-1.93 2.2-.8.84-1.66 1.73-2.61 2.68-.94.96-1.93 1.95-2.96 2.98s-2.04 2.06-3.01 3.07-1.87 1.99-2.68 2.95c-.81.95-1.48 1.82-2 2.62h11.02c.94 0 1.68-.04 2.24-.11.55-.07 1.02-.22 1.38-.46.37-.24.68-.6.94-1.08.26-.49.56-1.16.9-2.02h2.77c-.1 1.41-.2 2.83-.29 4.26s-.18 2.85-.28 4.26h-25.23v-1.55c.48-1.07 1.03-2.13 1.67-3.17a42 42 0 0 1 2.14-3.17c.8-1.07 1.7-2.18 2.71-3.32 1.02-1.14 2.14-2.33 3.37-3.56 1.87-1.87 3.39-3.46 4.56-4.78s2.09-2.5 2.77-3.53c.67-1.03 1.13-1.99 1.38-2.86s.37-1.81.37-2.8c0-1.01-.14-1.95-.43-2.8s-.7-1.58-1.23-2.17c-.54-.6-1.22-1.07-2.04-1.4q-1.245-.51-2.85-.51c-1.84 0-3.39.5-4.64 1.5-1.26 1.01-2.23 2.46-2.92 4.37h-3.91v-5.81c2.55-1.05 4.88-1.82 7.02-2.29q3.195-.72 5.76-.72"/><text x="1808.8" y="1909.66" fill-opacity="0" font-family="Arial,Arial_MSFontService,sans-serif" font-size="38.572">2</text><path fill="#d74514" fill-rule="evenodd" d="M1848.54 1888.24h7.1c.37 1.89.56 3.75.56 5.59 0 1.89-.32 3.62-.97 5.19-.65 1.56-1.68 3.12-3.1 4.68-1.42 1.55-3.37 3.26-5.86 5.12l-2.18-2.47c1.37-1.29 2.37-2.46 2.99-3.5.63-1.04 1.07-2.23 1.34-3.55s.41-2.98.41-4.98c0-2.06-.1-4.08-.29-6.08"/><text x="1844.09" y="1906.25" fill-opacity="0" font-family="Arial,Arial_MSFontService,sans-serif" font-size="20.588">,</text><path fill="#d74514" fill-rule="evenodd" d="M1886.9 1842.32h14.47l4.62 39.31 23.62-39.31h12.77l-.45 1.99c-1.02.21-1.76.45-2.2.72-.45.28-.86.68-1.22 1.22-.37.54-.73 1.39-1.09 2.53-.37 1.15-.84 3.02-1.4 5.62l-6.93 31.45c-.35 1.59-.58 2.85-.69 3.79-.11.93-.16 1.77-.16 2.53 0 1.21.3 2.07.91 2.57s1.63.81 3.06.91l-.45 1.99h-16.21l.45-1.99c1.02-.16 1.79-.42 2.31-.79.51-.36.94-.87 1.29-1.52.35-.64.68-1.44.98-2.37.29-.93.74-2.73 1.33-5.41l5.39-24.44c.76-3.37 1.62-6.74 2.6-10.09h-.57c-.84 1.6-2.73 4.84-5.67 9.73l-18.44 30.44h-4.42l-3.36-26.06c-.49-3.68-1.03-8.62-1.63-14.84h-.81c-.92 6.06-1.94 11.66-3.08 16.82l-4.13 18.73c-.57 2.56-.85 4.67-.85 6.32 0 1.21.3 2.07.91 2.57s1.63.81 3.06.91l-.45 1.99h-14.18l.45-1.99c1.02-.16 1.79-.42 2.31-.79.51-.36.94-.87 1.29-1.52.35-.64.68-1.44.98-2.37.29-.93.74-2.73 1.33-5.41l6.89-31.2c.27-1.17.49-2.27.65-3.33.16-1.05.24-2.12.24-3.2 0-1.27-.31-2.15-.95-2.65-.63-.5-1.64-.79-3.02-.87Z"/><text x="1876.28" y="1890.72" fill-opacity="0" font-family="Arial,Arial_MSFontService,sans-serif" font-size="55.32">𝑀</text><path fill="#f8ccb9" d="M212 1048h237v308H212z"/><path fill="#d74514" fill-rule="evenodd" d="M303.509 1176.15h18.886l3.161 33.84 19.21-33.84h18.845l-.567 2.67c-1.54.44-2.675 1.19-3.405 2.27q-1.094 1.62-2.066 6l-7.376 33.44c-.189.86-.325 1.61-.406 2.24-.081.64-.121 1.47-.121 2.5q0 1.695.79 2.49c.527.53 1.385.87 2.574 1.03l-.568 2.68h-20.385l.567-2.68c1.54-.43 2.675-1.19 3.405-2.27.729-1.08 1.418-3.08 2.066-5.99l3.729-17.03a257 257 0 0 1 4.377-16.98h-.811a321 321 0 0 1-4.093 7.26l-18.237 31.57h-6.566l-2.674-24.36c-.622-5.78-1.027-10.74-1.216-14.87h-.649c-1.08 6.67-2.107 12.21-3.08 16.61l-3.931 17.8c-.189.86-.324 1.61-.405 2.24-.081.64-.122 1.47-.122 2.5q0 1.695.791 2.49c.526.53 1.384.87 2.573 1.03l-.567 2.68h-14.874l.567-2.68c1.541-.43 2.675-1.19 3.405-2.27.729-1.08 1.418-3.08 2.067-5.99l7.376-33.44q.527-2.385.527-4.74 0-1.71-.791-2.49c-.527-.53-1.384-.88-2.573-1.04Z"/><text x="292.364" y="1224.55" fill-opacity="0" font-family="Arial,Arial_MSFontService,sans-serif" font-size="55.32">𝑴</text><path fill="#fdefe8" fill-rule="evenodd" d="M579 1654.5c0-60.48 48.801-109.5 109-109.5s109 49.02 109 109.5S748.199 1764 688 1764s-109-49.02-109-109.5"/><path fill="#d74514" fill-rule="evenodd" d="M696.671 1628.13q6.93 0 13.617 1.98l-2.593 11.84h-5.31q-.121-3.615-.729-5.43c-.405-1.22-1.04-2.13-1.905-2.74-.864-.61-2.04-.91-3.526-.91q-3.404 0-6.727 2.67c-2.216 1.79-4.262 4.48-6.14 8.09-1.878 3.6-3.391 7.87-4.539 12.78-1.148 4.92-1.723 9.35-1.723 13.3 0 2.27.21 4.14.629 5.63.418 1.49 1.148 2.63 2.188 3.45 1.04.81 2.479 1.21 4.316 1.21 2.81 0 5.14-.7 6.991-2.11 1.851-1.4 3.519-3.82 5.005-7.25h5.309l-2.593 11.95a52.6 52.6 0 0 1-7.822 1.65c-2.594.33-5.377.5-8.349.5-5.755 0-10.172-1.57-13.252-4.72s-4.62-7.68-4.62-13.6q0-3.36.729-7.74c.784-4.62 2.081-8.89 3.891-12.8q2.715-5.88 6.829-9.87t9.24-5.94c3.418-1.3 7.112-1.94 11.084-1.94"/><text x="664.898" y="1677.67" fill-opacity="0" font-family="Arial,Arial_MSFontService,sans-serif" font-size="56.617">𝑪</text><path fill="#fdefe8" fill-rule="evenodd" d="M855 1202c0-60.2 48.801-109 109-109 60.2 0 109 48.8 109 109s-48.8 109-109 109c-60.199 0-109-48.8-109-109"/><path fill="#d74514" fill-rule="evenodd" d="M965.001 1176.15h6.322v63.42h-6.322Zm-14.185 0h6.322v63.42h-6.322Z"/><text x="950.816" y="1231.65" fill-opacity="0" font-family="Arial,Arial_MSFontService,sans-serif" font-size="63.425">∥</text><path fill="#f8ccb9" d="M2515 974h237v308h-237z"/><path fill="#d74514" fill-rule="evenodd" d="M2606.06 1102.2h18.89l3.16 33.84 19.21-33.84h18.85l-.57 2.67c-1.54.43-2.68 1.19-3.41 2.27-.72 1.08-1.41 3.08-2.06 6l-7.38 33.43c-.19.87-.32 1.62-.4 2.25a21 21 0 0 0-.13 2.5c0 1.13.27 1.96.8 2.49.52.52 1.38.87 2.57 1.03l-.57 2.68h-20.38l.56-2.68c1.54-.43 2.68-1.19 3.41-2.27s1.42-3.08 2.06-6l3.73-17.02c1.25-5.62 2.7-11.28 4.38-16.98h-.81c-1.27 2.32-2.63 4.74-4.09 7.26l-18.24 31.57h-6.57l-2.67-24.36c-.62-5.78-1.03-10.74-1.22-14.87h-.65c-1.08 6.67-2.1 12.21-3.08 16.61l-3.93 17.79c-.19.87-.32 1.62-.4 2.25-.08.64-.12 1.47-.12 2.5 0 1.13.26 1.96.79 2.49.52.52 1.38.87 2.57 1.03l-.57 2.68h-14.87l.57-2.68c1.54-.43 2.67-1.19 3.4-2.27q1.095-1.62 2.07-6l7.37-33.43c.36-1.6.53-3.18.53-4.74 0-1.14-.26-1.97-.79-2.5-.53-.52-1.38-.87-2.57-1.03Z"/><text x="2594.92" y="1150.6" fill-opacity="0" font-family="Arial,Arial_MSFontService,sans-serif" font-size="55.32">𝑴</text><path fill="#fdefe8" d="M2515 1285h237v146h-237z"/><path fill="#fdefe8" fill-rule="evenodd" d="M2923 1202c0-60.2 49.02-109 109.5-109s109.5 48.8 109.5 109-49.02 109-109.5 109-109.5-48.8-109.5-109"/><path fill="#d74514" fill-rule="evenodd" d="M3040.89 1175.5c4.62 0 9.16.66 13.62 1.99l-2.6 11.83h-5.3c-.09-2.41-.33-4.22-.73-5.43-.41-1.22-1.04-2.13-1.91-2.74-.86-.6-2.04-.91-3.52-.91-2.27 0-4.52.89-6.73 2.68-2.22 1.78-4.26 4.47-6.14 8.08s-3.39 7.87-4.54 12.79c-1.15 4.91-1.72 9.35-1.72 13.29 0 2.27.21 4.15.62 5.63q.63 2.235 2.19 3.45c1.04.81 2.48 1.21 4.32 1.21q4.215 0 6.99-2.1 2.775-2.115 5.01-7.26h5.3l-2.59 11.96c-2.62.75-5.23 1.3-7.82 1.64s-5.38.51-8.35.51c-5.75 0-10.17-1.58-13.25-4.73-3.08-3.14-4.62-7.68-4.62-13.59 0-2.24.24-4.82.73-7.74.78-4.62 2.08-8.89 3.89-12.81s4.08-7.21 6.83-9.87q4.11-3.99 9.24-5.94c3.41-1.29 7.11-1.94 11.08-1.94"/><text x="3009.12" y="1225.04" fill-opacity="0" font-family="Arial,Arial_MSFontService,sans-serif" font-size="56.617">𝑪</text><path fill-rule="evenodd" d="M3434.13 1473.92c-1.38 0-2.74.47-4.07 1.4-1.34.93-2.81 2.42-4.4 4.48-1.6 2.05-2.84 4.08-3.73 6.08s-1.59 4.29-2.11 6.89l-.32 1.7c-.27 1.43-.44 2.52-.51 3.28s-.1 1.5-.1 2.23c0 2.11.45 3.64 1.36 4.6q1.35 1.44 4.68 1.44 2.07 0 3.81-.81c1.16-.54 2.26-1.33 3.3-2.35 1.04-1.03 1.98-2.27 2.82-3.73s1.59-3.16 2.25-5.09 1.16-3.91 1.5-5.95.5-3.96.5-5.74c0-2.84-.39-4.95-1.19-6.34s-2.06-2.09-3.79-2.09m-118.18-1.5c-2.8 0-5.26 1.18-7.35 3.53s-3.74 5.71-4.95 10.09c-1.2 4.38-1.8 8.14-1.8 11.31 0 2.97.62 5.16 1.85 6.58 1.22 1.42 3.08 2.13 5.57 2.13q3.975 0 7.05-3.57 3.075-3.555 4.86-9.99c1.19-4.28 1.79-8.04 1.79-11.28 0-2.92-.57-5.12-1.71-6.59-1.13-1.47-2.9-2.21-5.31-2.21m244.41-.08c-2.73 0-5.36 1.38-7.88 4.13q-3.795 4.14-5.82 11.19c3.81-.03 7.08-.37 9.81-1.03 2.73-.67 4.82-1.72 6.28-3.16 1.46-1.45 2.19-3.4 2.19-5.86 0-1.65-.39-2.94-1.16-3.87s-1.91-1.4-3.42-1.4m-84.08 0q-4.17 0-7.5 3.36c-2.21 2.25-3.94 5.25-5.19 9.02-1.24 3.77-1.86 7.53-1.86 11.29 0 2.81.38 4.91 1.15 6.3s2.06 2.09 3.88 2.09c1.78 0 3.53-.77 5.24-2.31 1.72-1.54 3.49-3.74 5.31-6.59q2.745-4.275 3.87-9.87l.37-1.74q.36-1.665.48-2.88c.08-.81.13-1.69.13-2.63 0-2.08-.45-3.61-1.34-4.58s-2.41-1.46-4.54-1.46m-159.51-3.16c4.32 0 7.61 1.18 9.88 3.55 2.27 2.36 3.41 5.74 3.41 10.15 0 3.13-.55 6.48-1.64 10.05q-1.65 5.34-4.5 9c-1.91 2.43-4.18 4.26-6.83 5.49s-5.69 1.84-9.12 1.84c-4.19 0-7.44-1.17-9.75-3.52-2.31-2.36-3.46-5.73-3.46-10.14 0-2.16.32-4.66.97-7.49.84-3.84 2.24-7.19 4.22-10.05 1.97-2.87 4.4-5.06 7.29-6.59s6.07-2.29 9.53-2.29m245.05-.04q4.905 0 7.35 1.98 2.46 1.995 2.46 6.21c0 4.59-2.16 8.03-6.47 10.33s-10.7 3.44-19.19 3.44c-.32 1.63-.48 3.38-.48 5.27 0 2.84.55 4.9 1.66 6.18 1.11 1.29 2.92 1.93 5.43 1.93q3.72 0 6.75-1.62c2.01-1.08 4.14-2.74 6.38-4.99l2.51 2.64c-2.62 2.89-5.27 5.06-7.96 6.52s-5.82 2.19-9.38 2.19c-3.92 0-6.95-1.19-9.1-3.59-2.15-2.39-3.22-5.72-3.22-9.99q0-4.335 1.56-9.3c1.04-3.31 2.61-6.28 4.72-8.91 2.11-2.64 4.63-4.68 7.58-6.12 2.94-1.45 6.08-2.17 9.4-2.17m-53.79 0c1.7 0 3.04.56 4.03 1.68s1.48 2.59 1.48 4.4c0 1.35-.26 2.74-.77 4.17l.53.21c2.64-3.6 5.19-6.23 7.63-7.91 2.45-1.67 4.93-2.51 7.44-2.51q2.955 0 4.95.45l-1.95 9.07h-4.17c-.17-1.13-.4-2.01-.69-2.63-.3-.62-.65-1.05-1.06-1.3-.4-.24-.92-.36-1.54-.36-.97 0-2.03.42-3.18 1.25-1.15.84-2.44 2.15-3.87 3.94-1.43 1.78-2.57 3.49-3.42 5.14s-1.56 3.74-2.13 6.28l-3.85 17.55h-7.01l5.87-25.69c.38-1.62.63-2.88.73-3.77.11-.89.17-1.64.17-2.23 0-1.08-.18-1.86-.53-2.35s-.91-.73-1.66-.73c-.84 0-1.72.34-2.66 1.03-.93.69-2.21 1.94-3.83 3.75l-2.31-2.27c2.49-2.59 4.57-4.44 6.24-5.53 1.68-1.09 3.53-1.64 5.56-1.64m-32.56 0c1.75 0 3.4.19 4.92.59 1.53.39 3.1 1.08 4.72 2.08l3.73-2.67 2.6.65-5.96 25.69c-.6 2.57-.89 4.57-.89 6 0 1.08.17 1.86.52 2.35.36.49.91.73 1.67.73.81 0 1.67-.33 2.59-.99s2.21-1.93 3.89-3.79l2.31 2.27c-2.43 2.59-4.51 4.43-6.22 5.53-1.72 1.09-3.57 1.64-5.57 1.64-1.68 0-3.02-.55-4.02-1.66s-1.5-2.58-1.5-4.42c0-1.48.32-3.07.94-4.74l-.53-.16q-3.885 5.67-7.38 8.31c-2.32 1.75-4.78 2.63-7.37 2.63-2.97 0-5.28-1.12-6.91-3.36-1.64-2.25-2.45-5.39-2.45-9.45 0-4.64.91-9.11 2.73-13.39 1.83-4.28 4.33-7.66 7.52-10.13s6.74-3.71 10.66-3.71m-58.4 0c1.67 0 3 .55 3.99 1.66s1.48 2.58 1.48 4.42c0 1.51-.31 3.11-.93 4.78l.48.16c5-7.32 9.97-10.98 14.92-10.98q4.41 0 6.87 3.36c1.63 2.25 2.45 5.41 2.45 9.49 0 4.45-.9 8.84-2.7 13.15-1.79 4.31-4.29 7.73-7.47 10.25-3.19 2.53-6.76 3.79-10.7 3.79-3.6 0-6.58-.78-8.96-2.35l-1.86 8.88c-.41 1.91-.61 3.49-.61 4.74 0 1.19.3 2.03.91 2.53s1.79.83 3.55.99l-.33 1.99h-12.52l9.77-43c.56-2.49.85-4.53.85-6.12 0-1.08-.18-1.86-.53-2.35s-.91-.73-1.66-.73c-.84 0-1.72.34-2.66 1.03-.93.69-2.21 1.94-3.83 3.75l-2.31-2.27q3.66-3.81 6.18-5.49c1.69-1.12 3.56-1.68 5.62-1.68m-70 0c1.7 0 3.04.56 4.03 1.68s1.48 2.59 1.48 4.4q0 2.22-.93 4.74l.48.16c2.49-3.7 4.96-6.45 7.42-8.25 2.46-1.79 4.94-2.69 7.46-2.69 2.59 0 4.56.74 5.91 2.21s2.03 3.6 2.03 6.38v.57c0 .19-.01.39-.04.61 2.32-3.3 4.64-5.75 6.95-7.36s4.71-2.41 7.19-2.41c2.49 0 4.41.72 5.76 2.15s2.02 3.44 2.02 6.04c0 1.7-.39 4.12-1.17 7.25l-2.63 10.62c-.73 2.94-1.1 5.02-1.1 6.24 0 1.08.18 1.86.53 2.35s.9.73 1.66.73c.81 0 1.67-.33 2.59-.99s2.22-1.93 3.89-3.79l2.31 2.27c-2.32 2.46-4.35 4.27-6.08 5.43-1.72 1.16-3.7 1.74-5.91 1.74-1.76 0-3.16-.63-4.22-1.88-1.05-1.26-1.58-2.86-1.58-4.81 0-1.75.45-4.33 1.34-7.74l1.78-7.01c.65-2.54 1.08-4.42 1.28-5.63.2-1.22.3-2.2.3-2.96 0-1.86-.31-3.21-.93-4.03-.62-.83-1.63-1.24-3.04-1.24-1.13 0-2.35.43-3.65 1.28-1.29.85-2.66 2.17-4.09 3.97s-2.6 3.57-3.5 5.31c-.91 1.74-1.63 3.87-2.17 6.38l-3.69 17.71h-7.01l4.66-20.59c.57-2.51.95-4.37 1.15-5.57.21-1.2.31-2.23.31-3.1 0-1.94-.35-3.33-1.04-4.15-.68-.83-1.76-1.24-3.22-1.24-1.02 0-2.19.43-3.5 1.28s-2.71 2.21-4.2 4.09c-1.48 1.88-2.65 3.68-3.48 5.41-.84 1.73-1.54 3.84-2.11 6.32l-3.85 17.55h-7.01l5.91-25.69q.9-3.9.9-6c0-1.08-.18-1.86-.53-2.35s-.91-.73-1.66-.73c-.84 0-1.72.34-2.66 1.03-.93.69-2.21 1.94-3.83 3.75l-2.31-2.27c2.38-2.48 4.43-4.3 6.14-5.45a9.95 9.95 0 0 1 5.66-1.72m-71.28-16.54c2.46 0 4.73.15 6.83.45q3.135.45 6.99 1.62l-2.43 10.98h-3.89c-.22-3.32-.94-5.72-2.17-7.19s-3.21-2.21-5.94-2.21c-3.73 0-7.19 1.87-10.39 5.59-3.21 3.73-5.74 8.66-7.6 14.78-1.87 6.12-2.8 11.8-2.8 17.04 0 4.1.73 7.13 2.19 9.08 1.46 1.94 3.7 2.91 6.73 2.91 2.02 0 3.79-.3 5.31-.91 1.51-.61 2.93-1.63 4.25-3.08q1.995-2.16 3.93-6.06h3.89l-2.47 11.51c-5.05 1.41-10.35 2.11-15.89 2.11-5.07 0-8.94-1.46-11.59-4.38-2.64-2.91-3.97-7.18-3.97-12.8q0-5.955 2.13-13.74c1.42-5.19 3.42-9.74 6.02-13.66 2.59-3.92 5.66-6.9 9.2-8.96 3.54-2.05 7.43-3.08 11.67-3.08"/><text x="3246.77" y="1516.82" fill-opacity="0" font-family="Arial,Arial_MSFontService,sans-serif" font-size="73.395">𝐶𝑜𝑚𝑝𝑎𝑟𝑒</text><path d="M449.5 1197.92h364.32v9.16H449.5Zm359.737-18.34 45.833 22.92-45.833 22.92Z"/><path fill-rule="evenodd" d="M657.195 1292.26h16.211l-.445 1.99c-1.027.22-1.763.46-2.209.73s-.844.67-1.196 1.21c-.351.55-.716 1.39-1.094 2.54q-.567 1.725-1.418 5.61l-2.878 12.93h1.338q1.702 0 3.1-.57t3.262-2.07c1.243-.99 3.222-2.83 5.938-5.51 2.715-2.67 4.647-4.7 5.795-6.1q1.722-2.085 2.513-3.6c.527-1.02.79-1.94.79-2.78 0-.67-.27-1.22-.811-1.64q-.81-.63-2.31-.75l.446-1.99h17.386l-.445 1.99q-1.622.24-3.668 1.68t-6.262 5.61l-15.724 15.32 8.632 20.75q1.338 3.21 2.209 4.62.871 1.425 2.087 2.25c.811.56 1.81.93 2.999 1.12l-.446 1.98h-15.643l.445-1.98q2.189-.21 2.189-1.95 0-1.095-.446-2.49c-.297-.93-.648-1.9-1.054-2.9l-5.268-12.89q-.933-2.31-1.621-3.24-.689-.93-1.459-1.29c-.514-.25-1.311-.37-2.391-.37h-2.27l-3.364 15.32c-.351 1.62-.58 2.9-.689 3.83a22 22 0 0 0-.162 2.49q0 1.83.912 2.58c.608.5 1.628.8 3.06.91l-.446 1.98h-16.211l.446-1.98c1.027-.16 1.797-.43 2.31-.79.513-.37.946-.87 1.297-1.52q.526-.975.973-2.37c.297-.94.743-2.74 1.337-5.41l6.89-31.21c.594-2.7.891-4.88.891-6.52 0-1.27-.317-2.16-.952-2.66q-.952-.75-3.019-.87Z"/><text x="646.577" y="1340.67" fill-opacity="0" font-family="Arial,Arial_MSFontService,sans-serif" font-size="55.32">𝐾</text><path fill-rule="evenodd" d="M713.735 1326.06h1.817a222 222 0 0 0-.134 5.45c-.01.82-.015 1.62-.015 2.42v22.63c0 .62.019 1.15.059 1.6.04.44.104.82.194 1.13.089.31.208.57.357.79s.323.41.521.56c.239.24.556.43.954.56.397.12.903.23 1.519.32q.923.135 2.219.21c.863.05 1.901.09 3.112.11v2.59h-23.619v-2.59c1.171-.04 2.164-.09 2.978-.14a23 23 0 0 0 2.085-.21c.576-.09 1.038-.19 1.385-.29.348-.11.65-.25.909-.41.278-.18.516-.37.714-.58.199-.21.358-.47.477-.79.119-.31.213-.7.283-1.16.069-.45.104-1.02.104-1.7v-21.35c0-.78-.149-1.32-.447-1.64q-.447-.48-1.28-.48-.924 0-2.741.96c-1.211.63-2.78 1.57-4.706 2.83-.258-.46-.496-.92-.715-1.37-.218-.46-.446-.93-.685-1.4 2.463-1.35 4.9-2.7 7.313-4.04s4.86-2.68 7.342-4.01"/><text x="699.08" y="1359.63" fill-opacity="0" font-family="Arial,Arial_MSFontService,sans-serif" font-size="38.363">1</text><path d="m693.083 1384.5.001 119.74h-9.167V1384.5Zm18.334 115.16-22.917 45.83-22.916-45.83Zm-384.5-143.16v303.025h211.746v-9.167H331.5l4.583 4.583V1356.5Zm207.162 321.358 45.834-22.917-45.834-22.916Zm263.421-18.385h171.254v-306.718h-9.167v302.135l4.583-4.583H797.5Zm189.587-302.135-22.917-45.833-22.916 45.833Z"/><path fill="#fdefe8" fill-rule="evenodd" d="M1224 1202c0-60.2 49.02-109 109.5-109s109.5 48.8 109.5 109-49.02 109-109.5 109-109.5-48.8-109.5-109"/><path fill="#d74514" fill-rule="evenodd" d="M1316.98 1176.15h39.35l-2.88 13.05h-5.18c-.14-2.57-.38-4.37-.73-5.39-.35-1.03-.89-1.77-1.62-2.23s-1.76-.69-3.08-.69h-10.18l-4.29 19.45h5.63c1.08 0 1.99-.17 2.74-.52.74-.36 1.43-.94 2.06-1.77q.96-1.23 1.89-3.42h4.46l-3.89 16.45h-4.18c0-1.56-.09-2.77-.28-3.6-.19-.84-.54-1.45-1.06-1.83-.51-.38-1.39-.57-2.63-.57h-5.76l-4.78 21.65h9.12c1.19 0 2.12-.08 2.78-.25.66-.16 1.27-.42 1.82-.77s1.2-.91 1.93-1.68 1.45-1.74 2.16-2.92c.72-1.17 1.46-2.58 2.21-4.23h5.51l-3.72 14.59h-38.55l.57-2.68c1.54-.43 2.68-1.19 3.41-2.27s1.41-3.08 2.06-5.99l7.38-33.44c.35-1.59.53-3.17.53-4.74 0-1.14-.27-1.97-.79-2.49-.53-.53-1.39-.88-2.58-1.04Z"/><text x="1305.83" y="1224.55" fill-opacity="0" font-family="Arial,Arial_MSFontService,sans-serif" font-size="55.32">𝑬</text><path fill-rule="evenodd" d="M1302.26 1453.25h16.21l-.45 1.99c-1.03.21-1.76.46-2.21.73-.44.27-.84.67-1.19 1.21s-.72 1.39-1.1 2.54c-.38 1.14-.85 3.02-1.42 5.61l-2.87 12.93h1.33c1.14 0 2.17-.19 3.11-.57.93-.38 2.01-1.07 3.26-2.07 1.24-1 3.22-2.83 5.93-5.51 2.72-2.67 4.65-4.71 5.8-6.1s1.99-2.59 2.51-3.6c.53-1.02.79-1.94.79-2.78 0-.68-.27-1.22-.81-1.64q-.81-.63-2.31-.75l.45-1.99h17.38l-.44 1.99c-1.08.16-2.3.72-3.67 1.68-1.36.96-3.45 2.83-6.26 5.61l-15.73 15.32 8.64 20.75c.89 2.14 1.63 3.68 2.21 4.62.58.95 1.27 1.7 2.08 2.25.81.56 1.81.93 3 1.12l-.44 1.98h-15.65l.45-1.98q2.19-.21 2.19-1.95 0-1.095-.45-2.49c-.3-.93-.65-1.9-1.05-2.9l-5.27-12.89q-.93-2.31-1.62-3.24c-.46-.62-.95-1.05-1.46-1.3-.51-.24-1.31-.36-2.39-.36h-2.27l-3.37 15.32c-.35 1.62-.58 2.9-.68 3.83-.11.93-.17 1.76-.17 2.49 0 1.22.31 2.07.92 2.57.6.5 1.62.81 3.06.92l-.45 1.98h-16.21l.44-1.98c1.03-.17 1.8-.43 2.31-.79.52-.37.95-.88 1.3-1.52.35-.65.68-1.44.97-2.37.3-.94.75-2.74 1.34-5.42l6.89-31.2c.6-2.7.89-4.88.89-6.53 0-1.27-.32-2.15-.95-2.65s-1.64-.79-3.02-.87Z"/><text x="1291.64" y="1501.66" fill-opacity="0" font-family="Arial,Arial_MSFontService,sans-serif" font-size="55.32">𝐾</text><path fill-rule="evenodd" d="M1358.37 1486.84c2.07 0 3.83.24 5.29.7 1.46.47 2.65 1.1 3.56 1.9q1.365 1.185 1.98 2.85c.41 1.12.61 2.32.61 3.61 0 .77-.05 1.49-.16 2.16-.11.66-.3 1.32-.57 1.96q-.405.975-1.05 1.95c-.44.66-.99 1.36-1.64 2.09-.5.64-1.14 1.37-1.94 2.2-.79.84-1.66 1.73-2.61 2.68-.94.96-1.93 1.95-2.96 2.98-1.03 1.04-2.03 2.06-3.01 3.07-.97 1.01-1.86 2-2.68 2.95-.81.95-1.48 1.83-1.99 2.62h11.02c.93 0 1.67-.03 2.23-.1s1.02-.23 1.39-.47c.36-.23.68-.6.93-1.08q.39-.735.9-2.01h2.77c-.1 1.41-.2 2.83-.29 4.26-.08 1.43-.18 2.85-.28 4.26h-25.23v-1.55a29 29 0 0 1 1.67-3.18 45.7 45.7 0 0 1 4.86-6.49c1.01-1.14 2.13-2.33 3.36-3.56 1.87-1.86 3.39-3.46 4.56-4.78s2.09-2.5 2.77-3.53c.67-1.03 1.14-1.98 1.38-2.86.25-.87.38-1.8.38-2.8 0-1.01-.15-1.94-.43-2.8-.29-.85-.7-1.58-1.24-2.17-.54-.6-1.22-1.06-2.04-1.4-.83-.34-1.77-.51-2.85-.51-1.84 0-3.39.5-4.64 1.51-1.25 1-2.23 2.45-2.92 4.36h-3.9v-5.81c2.54-1.05 4.88-1.81 7.01-2.29q3.21-.72 5.76-.72"/><text x="1344.64" y="1520.59" fill-opacity="0" font-family="Arial,Arial_MSFontService,sans-serif" font-size="38.572">2</text><path d="m1330.7 1412.39-.46-59.61 9.16-.07.46 59.61Zm-18.76-54.88 22.56-46.01 23.27 45.65Zm-238.44-159.59h109.92v9.16H1073.5Zm105.34-18.34 45.83 22.92-45.83 22.92Zm264.67 27.073 220.189-.478-.02-9.167-220.189.479Zm215.645 17.865 45.784-23.016-45.883-22.817Z"/><path fill-rule="evenodd" d="M3001.42 1453.25h16.21l-.45 1.99c-1.03.21-1.76.46-2.21.73-.44.27-.84.67-1.19 1.21s-.72 1.39-1.1 2.54c-.38 1.14-.85 3.02-1.42 5.61l-2.87 12.93h1.33c1.14 0 2.17-.19 3.1-.57.94-.38 2.02-1.07 3.27-2.07 1.24-1 3.22-2.83 5.93-5.51 2.72-2.67 4.65-4.71 5.8-6.1s1.98-2.59 2.51-3.6c.53-1.02.79-1.94.79-2.78 0-.68-.27-1.22-.81-1.64q-.81-.63-2.31-.75l.45-1.99h17.38l-.44 1.99c-1.08.16-2.31.72-3.67 1.68s-3.45 2.83-6.26 5.61l-15.73 15.32 8.64 20.75c.89 2.14 1.62 3.68 2.2 4.62.59.95 1.28 1.7 2.09 2.25.81.56 1.81.93 3 1.12l-.44 1.98h-15.65l.45-1.98q2.19-.21 2.19-1.95 0-1.095-.45-2.49c-.3-.93-.65-1.9-1.05-2.9l-5.27-12.89q-.93-2.31-1.62-3.24c-.46-.62-.95-1.05-1.46-1.3-.52-.24-1.31-.36-2.39-.36h-2.27l-3.37 15.32c-.35 1.62-.58 2.9-.69 3.83-.1.93-.16 1.76-.16 2.49 0 1.22.31 2.07.91 2.57.61.5 1.63.81 3.06.92l-.44 1.98h-16.21l.44-1.98c1.03-.17 1.8-.43 2.31-.79.52-.37.95-.88 1.3-1.52.35-.65.68-1.44.97-2.37.3-.94.75-2.74 1.34-5.42l6.89-31.2c.59-2.7.89-4.88.89-6.53 0-1.27-.32-2.15-.95-2.65-.64-.5-1.64-.79-3.02-.87Z"/><text x="2990.8" y="1501.66" fill-opacity="0" font-family="Arial,Arial_MSFontService,sans-serif" font-size="55.32">𝐾</text><path fill-rule="evenodd" d="M3057.95 1487.05h1.82q-.06 1.635-.09 2.94c-.02.86-.03 1.7-.04 2.51-.01.82-.02 1.62-.02 2.42v22.63c0 .62.02 1.15.06 1.6.04.44.11.82.2 1.13s.2.57.35.79.33.4.52.56c.24.24.56.43.96.55.39.13.9.24 1.52.33q.915.135 2.22.21c.86.05 1.9.08 3.11.1v2.6h-23.62v-2.6c1.17-.04 2.16-.08 2.98-.13.81-.05 1.51-.12 2.08-.21a10 10 0 0 0 1.39-.3c.34-.11.65-.24.91-.4.27-.18.51-.37.71-.58s.36-.47.48-.79.21-.7.28-1.16.1-1.02.1-1.7v-21.35c0-.78-.14-1.32-.44-1.64s-.73-.48-1.28-.48c-.62 0-1.53.32-2.74.96q-1.815.945-4.71 2.82c-.26-.45-.5-.91-.71-1.37-.22-.45-.45-.92-.69-1.4 2.46-1.35 4.9-2.69 7.31-4.03 2.42-1.34 4.86-2.68 7.34-4.01"/><text x="3043.3" y="1520.62" fill-opacity="0" font-family="Arial,Arial_MSFontService,sans-serif" font-size="38.363">1</text><path d="M3038.083 1412.35v-59.605h-9.166v59.605Zm18.334-55.021-22.917-45.834-22.916 45.834Zm86.083-159.409h272.26v173.43h-9.16V1202.5l4.58 4.58H3142.5Zm290.6 168.84-22.92 45.84-22.92-45.84Zm-680.6-12.84h119.13v274.59l-4.59-4.58h542.84l-4.58 4.58v-41.25h9.16v45.84h-552v-274.6l4.58 4.58H2752.5Zm634.46 237.93 22.92-45.84 22.92 45.84Z"/><path fill="#d74514" d="M1704 972h237v459h-237z"/><path fill="#fdefe8" fill-rule="evenodd" d="M2110 1201.5c0-60.48 48.8-109.5 109-109.5s109 49.02 109 109.5-48.8 109.5-109 109.5-109-49.02-109-109.5"/><path fill="#d74514" fill-rule="evenodd" d="M2217.01 1180.28c-1.35 0-2.39.03-3.12.08l-10.01 45.55c1.24.11 2.24.17 3 .17 3.48 0 6.49-.69 9.02-2.07q3.78-2.07 6.72-6.3c1.96-2.83 3.5-6.27 4.62-10.34 1.12-4.06 1.68-8.15 1.68-12.26 0-2.78-.31-5.12-.93-7.01s-1.48-3.42-2.57-4.58c-1.1-1.16-2.36-1.99-3.81-2.49s-2.98-.75-4.6-.75m-18.76-4.74h16.41c4.46 0 8.02.24 10.7.73 2.43.43 4.65 1.17 6.67 2.23 2.01 1.05 3.6 2.21 4.76 3.48 1.48 1.57 2.65 3.54 3.5 5.9s1.28 5.14 1.28 8.33c0 3.59-.41 7.04-1.22 10.33-.81 3.3-2 6.34-3.58 9.14s-3.48 5.2-5.68 7.22c-2.2 2.01-4.41 3.57-6.62 4.7-2.22 1.12-4.72 1.94-7.5 2.47s-6.08.79-9.89.79h-19.98l.57-2.68c1.54-.43 2.67-1.19 3.4-2.27s1.42-3.08 2.07-5.99l7.38-33.44c.35-1.59.52-3.17.52-4.74 0-1.14-.26-1.97-.79-2.49-.53-.53-1.38-.87-2.57-1.04Z"/><text x="2187.1" y="1223.94" fill-opacity="0" font-family="Arial,Arial_MSFontService,sans-serif" font-size="55.32">𝑫</text><path fill-rule="evenodd" d="M2186.75 1446.13h16.21l-.44 1.99c-1.03.21-1.76.46-2.21.73s-.84.67-1.2 1.21c-.35.54-.71 1.39-1.09 2.54s-.85 3.02-1.42 5.61l-2.88 12.93h1.34c1.14 0 2.17-.19 3.1-.57s2.02-1.07 3.26-2.07c1.25-1 3.23-2.83 5.94-5.51 2.72-2.67 4.65-4.71 5.8-6.1s1.98-2.59 2.51-3.6c.53-1.02.79-1.94.79-2.78 0-.68-.27-1.22-.81-1.64q-.81-.63-2.31-.75l.45-1.99h17.38l-.44 1.99c-1.09.16-2.31.72-3.67 1.68-1.37.96-3.45 2.83-6.26 5.61l-15.73 15.32 8.63 20.75c.9 2.14 1.63 3.68 2.21 4.62.58.95 1.28 1.7 2.09 2.25.81.56 1.81.93 3 1.12l-.45 1.98h-15.64l.45-1.98c1.45-.14 2.18-.79 2.18-1.95 0-.73-.14-1.56-.44-2.49s-.65-1.9-1.06-2.9l-5.26-12.89c-.63-1.54-1.17-2.62-1.63-3.24-.45-.62-.94-1.05-1.45-1.3-.52-.24-1.31-.36-2.4-.36h-2.26l-3.37 15.32c-.35 1.62-.58 2.9-.69 3.83s-.16 1.76-.16 2.49c0 1.22.3 2.07.91 2.57s1.63.81 3.06.92l-.44 1.98h-16.21l.44-1.98c1.03-.17 1.8-.43 2.31-.79.51-.37.95-.87 1.3-1.52s.67-1.44.97-2.37c.3-.94.74-2.74 1.34-5.41l6.89-31.21c.59-2.7.89-4.88.89-6.53 0-1.27-.32-2.15-.95-2.65-.64-.5-1.64-.79-3.02-.87Z"/><text x="2176.14" y="1494.54" fill-opacity="0" font-family="Arial,Arial_MSFontService,sans-serif" font-size="55.32">𝐾</text><path fill-rule="evenodd" d="M2242.87 1479.72c2.07 0 3.83.24 5.29.7 1.46.47 2.64 1.1 3.56 1.9.91.79 1.57 1.74 1.98 2.86.41 1.11.61 2.31.61 3.6 0 .77-.06 1.49-.16 2.16-.11.66-.3 1.32-.57 1.96-.27.65-.62 1.3-1.06 1.96-.44.65-.98 1.35-1.64 2.08-.49.64-1.14 1.37-1.93 2.2-.8.84-1.67 1.73-2.61 2.69-.94.95-1.93 1.94-2.96 2.97-1.03 1.04-2.04 2.06-3.01 3.07s-1.87 2-2.68 2.95c-.82.95-1.48 1.83-2 2.62h11.02c.94 0 1.68-.03 2.24-.1.55-.07 1.02-.23 1.38-.46.37-.24.68-.61.94-1.09.26-.49.56-1.16.89-2.01h2.77c-.1 1.41-.19 2.83-.28 4.26s-.18 2.85-.28 4.26h-25.23v-1.55c.48-1.07 1.03-2.13 1.67-3.17.63-1.05 1.35-2.1 2.14-3.18.8-1.07 1.7-2.18 2.71-3.32 1.02-1.14 2.14-2.33 3.37-3.56 1.87-1.86 3.38-3.46 4.56-4.78 1.17-1.32 2.09-2.49 2.77-3.53.67-1.03 1.13-1.98 1.38-2.86.25-.87.37-1.8.37-2.8 0-1.01-.14-1.94-.43-2.8-.29-.85-.7-1.57-1.23-2.17-.54-.6-1.22-1.06-2.04-1.4q-1.245-.51-2.85-.51c-1.85 0-3.39.5-4.65 1.51-1.25 1-2.22 2.45-2.91 4.36h-3.91v-5.81c2.55-1.05 4.88-1.81 7.02-2.29q3.195-.72 5.76-.72"/><text x="2229.14" y="1513.47" fill-opacity="0" font-family="Arial,Arial_MSFontService,sans-serif" font-size="38.572">2</text><path d="M2224.083 1405.84v-53.094h-9.166v53.094Zm18.334-48.51-22.917-45.834-22.916 45.833Zm-300.916-151.207 127.027-.03-.002-9.167-127.027.03Zm122.448 18.304 45.828-22.928-45.839-22.905Zm264.551-27.507h145.46v9.16H2328.5Zm140.87-18.34 45.84 22.92-45.84 22.92Z"/><path fill="#d74514" fill-rule="evenodd" d="M1406.97 1574.44h37.29l-2.8 12.44h-3.89c-.11-2.35-.31-4.12-.61-5.31s-.65-2.01-1.07-2.45q-.63-.675-1.5-.9c-.58-.14-1.41-.22-2.5-.22h-13.21l-4.62 21.24h7.74c1.92 0 3.39-.45 4.4-1.36 1.01-.9 2.03-2.4 3.06-4.48h3.69l-3.65 15.56h-3.44c0-2.16-.14-3.62-.41-4.39s-.67-1.26-1.19-1.46c-.53-.2-1.48-.31-2.86-.31h-8.11l-5.18 23.39h11.99c1.6 0 2.86-.16 3.79-.49.93-.32 1.81-.85 2.63-1.58.83-.73 1.65-1.75 2.48-3.06.82-1.31 1.8-3.08 2.94-5.33h3.93l-3.57 14.03h-35.95l.45-1.99c1.02-.16 1.79-.43 2.31-.79.51-.37.94-.87 1.3-1.52.35-.65.67-1.44.97-2.37.29-.93.74-2.74 1.34-5.41l6.88-31.21c.6-2.7.9-4.87.9-6.52 0-1.27-.32-2.16-.96-2.66-.63-.5-1.64-.79-3.02-.87Z"/><text x="1396.35" y="1622.84" fill-opacity="0" font-family="Arial,Arial_MSFontService,sans-serif" font-size="55.32">𝐸</text><path fill="#d74514" fill-rule="evenodd" d="M2151.57 1567.64c7.89 2.08 13.95 6.57 18.18 13.48 4.23 6.9 6.34 15.23 6.34 24.98 0 9.78-2.1 18.11-6.32 24.99-4.21 6.87-10.28 11.35-18.2 13.43l-.97-3.12c6.24-2.08 10.88-6.19 13.92-12.32s4.56-13.93 4.56-23.38c0-9.14-1.51-16.72-4.54-22.76-3.02-6.04-7.71-10.1-14.06-12.18Zm-670.92 0 1.09 3.12q-9.48 3.12-14.04 12.18c-3.04 6.04-4.56 13.62-4.56 22.76 0 9.45 1.52 17.25 4.56 23.38s7.68 10.24 13.92 12.32l-.97 3.12c-7.92-2.08-13.98-6.56-18.2-13.43-4.21-6.88-6.32-15.21-6.32-24.99 0-9.75 2.12-18.08 6.34-24.98 4.23-6.91 10.29-11.4 18.18-13.48m15.35 6.8h16.21l-.44 1.98c-1.03.22-1.77.46-2.21.73-.45.27-.85.68-1.2 1.22s-.71 1.38-1.09 2.53-.85 3.02-1.42 5.61l-2.88 12.93h1.34c1.13 0 2.17-.19 3.1-.57s2.02-1.06 3.26-2.06c1.25-1 3.22-2.84 5.94-5.52 2.72-2.67 4.65-4.7 5.8-6.09 1.14-1.4 1.98-2.6 2.51-3.61.52-1.01.79-1.94.79-2.78 0-.67-.27-1.22-.81-1.64q-.81-.63-2.31-.75l.44-1.98h17.39l-.45 1.98q-1.62.24-3.66 1.68c-1.37.96-3.46 2.83-6.27 5.62l-15.72 15.32 8.63 20.75c.89 2.13 1.63 3.67 2.21 4.62.58.94 1.28 1.69 2.09 2.24.81.56 1.81.93 3 1.12l-.45 1.99h-15.64l.44-1.99c1.46-.14 2.19-.78 2.19-1.95 0-.73-.15-1.56-.44-2.49-.3-.93-.65-1.9-1.06-2.9l-5.27-12.88c-.62-1.54-1.16-2.62-1.62-3.25-.46-.62-.94-1.05-1.46-1.29-.51-.25-1.31-.37-2.39-.37h-2.27l-3.36 15.32c-.35 1.62-.58 2.9-.69 3.83s-.16 1.76-.16 2.49c0 1.22.3 2.08.91 2.58s1.63.8 3.06.91l-.45 1.99h-16.21l.45-1.99c1.03-.16 1.8-.43 2.31-.79.51-.37.95-.87 1.3-1.52s.67-1.44.97-2.37.74-2.74 1.34-5.41l6.89-31.21c.59-2.7.89-4.87.89-6.52 0-1.27-.32-2.16-.95-2.66-.64-.5-1.65-.79-3.02-.87Z"/><text x="1485.38" y="1622.84" fill-opacity="0" font-family="Arial,Arial_MSFontService,sans-serif" font-size="55.32">𝐾</text><path fill="#d74514" fill-rule="evenodd" d="M1552.12 1608.03c2.06 0 3.83.23 5.29.7 1.46.46 2.64 1.09 3.56 1.89a6.9 6.9 0 0 1 1.98 2.86c.4 1.11.61 2.31.61 3.6 0 .78-.06 1.5-.17 2.16-.11.67-.29 1.32-.56 1.97-.27.64-.62 1.29-1.06 1.95-.44.65-.98 1.35-1.64 2.08-.49.64-1.14 1.37-1.93 2.21-.8.83-1.67 1.72-2.61 2.68-.94.95-1.93 1.94-2.96 2.98-1.04 1.03-2.04 2.05-3.01 3.06-.98 1.02-1.87 2-2.68 2.95-.82.96-1.48 1.83-2 2.62h11.02c.94 0 1.68-.03 2.24-.1.55-.07 1.01-.22 1.38-.46s.68-.6.94-1.09.56-1.16.89-2.01h2.77c-.1 1.41-.19 2.83-.28 4.26s-.18 2.85-.28 4.26h-25.23v-1.55c.48-1.07 1.03-2.13 1.67-3.17a42 42 0 0 1 2.14-3.17c.8-1.08 1.7-2.18 2.71-3.33 1.01-1.14 2.14-2.32 3.37-3.55 1.86-1.87 3.38-3.46 4.55-4.79 1.18-1.32 2.1-2.49 2.77-3.52.68-1.04 1.14-1.99 1.39-2.86.25-.88.37-1.81.37-2.8 0-1.02-.14-1.95-.43-2.8-.29-.86-.7-1.58-1.24-2.18-.53-.59-1.21-1.06-2.04-1.4-.82-.34-1.77-.5-2.84-.5q-2.775 0-4.65 1.5c-1.25 1-2.22 2.46-2.92 4.36h-3.9v-5.8c2.54-1.06 4.88-1.82 7.02-2.3 2.13-.47 4.05-.71 5.76-.71"/><text x="1538.39" y="1641.78" fill-opacity="0" font-family="Arial,Arial_MSFontService,sans-serif" font-size="38.572">2</text><path fill="#d74514" fill-rule="evenodd" d="M1578.13 1620.35h7.09c.38 1.89.57 3.76.57 5.6 0 1.89-.32 3.62-.97 5.18-.65 1.57-1.68 3.13-3.1 4.68-1.42 1.56-3.37 3.27-5.86 5.13l-2.19-2.47q2.07-1.95 3-3.51c.62-1.04 1.07-2.22 1.34-3.54.27-1.33.4-2.99.4-4.99 0-2.05-.09-4.08-.28-6.08"/><text x="1573.67" y="1638.37" fill-opacity="0" font-family="Arial,Arial_MSFontService,sans-serif" font-size="20.588">,</text><path fill="#d74514" fill-rule="evenodd" d="M2121.81 1567.43h18.07v77.29h-18.07v-3.12h11.35v-71.05h-11.35Zm-508.93 0h18.07v3.12h-11.34v71.05h11.34v3.12h-18.07Zm32.48 7.01h14.47l4.62 39.31 23.63-39.31h12.76l-.44 1.98c-1.03.22-1.77.46-2.21.73-.45.27-.85.68-1.22 1.22-.36.54-.73 1.38-1.09 2.53-.37 1.15-.83 3.02-1.4 5.61l-6.93 31.45c-.35 1.6-.58 2.86-.69 3.79s-.16 1.78-.16 2.53c0 1.22.3 2.08.91 2.58s1.63.8 3.06.91l-.45 1.99h-16.21l.45-1.99c1.03-.16 1.8-.43 2.31-.79.51-.37.94-.87 1.3-1.52.35-.65.67-1.44.97-2.37s.74-2.74 1.34-5.41l5.39-24.44c.75-3.38 1.62-6.74 2.59-10.09h-.57c-.84 1.59-2.73 4.83-5.67 9.73l-18.44 30.43h-4.42l-3.36-26.06c-.49-3.67-1.03-8.62-1.62-14.83h-.81c-.92 6.05-1.95 11.66-3.08 16.82l-4.14 18.72c-.57 2.57-.85 4.68-.85 6.32 0 1.22.3 2.08.91 2.58s1.63.8 3.06.91l-.44 1.99h-14.19l.45-1.99c1.02-.16 1.79-.43 2.31-.79.51-.37.94-.87 1.29-1.52.36-.65.68-1.44.98-2.37.29-.93.74-2.74 1.33-5.41l6.89-31.21c.27-1.16.49-2.27.65-3.32.17-1.06.25-2.12.25-3.2 0-1.27-.32-2.16-.96-2.66-.63-.5-1.64-.79-3.02-.87Z"/><text x="1634.74" y="1622.84" fill-opacity="0" font-family="Arial,Arial_MSFontService,sans-serif" font-size="55.32">𝑀</text><path fill="#d74514" fill-rule="evenodd" d="M1769.43 1574.44h6.32v63.42h-6.32Zm-14.18 0h6.32v63.42h-6.32Z"/><text x="1755.25" y="1629.93" fill-opacity="0" font-family="Arial,Arial_MSFontService,sans-serif" font-size="63.425">∥</text><path fill="#d74514" fill-rule="evenodd" d="M1842.04 1573.79c2.46 0 4.73.15 6.83.44q3.135.45 6.99 1.62l-2.43 10.99h-3.89c-.22-3.33-.94-5.72-2.17-7.2-1.23-1.47-3.21-2.21-5.94-2.21-3.73 0-7.19 1.87-10.39 5.6-3.21 3.73-5.74 8.65-7.6 14.77-1.87 6.12-2.8 11.8-2.8 17.04 0 4.11.73 7.13 2.19 9.08 1.46 1.94 3.7 2.92 6.73 2.92 2.02 0 3.79-.31 5.31-.91 1.51-.61 2.93-1.64 4.25-3.08q1.995-2.175 3.93-6.06h3.89l-2.47 11.51c-5.05 1.4-10.35 2.1-15.89 2.1-5.08 0-8.94-1.46-11.59-4.37-2.64-2.92-3.97-7.19-3.97-12.81q0-5.955 2.13-13.74c1.42-5.19 3.42-9.74 6.02-13.66 2.59-3.91 5.66-6.9 9.2-8.95 3.54-2.06 7.43-3.08 11.67-3.08"/><text x="1813.02" y="1623.33" fill-opacity="0" font-family="Arial,Arial_MSFontService,sans-serif" font-size="56.617">𝐶</text><path fill="#d74514" fill-rule="evenodd" d="M2088.46 1567.64c7.89 2.08 13.95 6.57 18.18 13.48 4.23 6.9 6.34 15.23 6.34 24.98 0 9.78-2.11 18.11-6.32 24.99-4.22 6.87-10.28 11.35-18.2 13.43l-.97-3.12c6.24-2.08 10.88-6.19 13.92-12.32s4.56-13.93 4.56-23.38c0-9.14-1.51-16.72-4.54-22.76s-7.71-10.1-14.06-12.18Zm-196.2 0 1.09 3.12q-9.48 3.12-14.04 12.18c-3.04 6.04-4.56 13.62-4.56 22.76 0 9.45 1.52 17.25 4.56 23.38s7.68 10.24 13.92 12.32l-.97 3.12c-7.92-2.08-13.99-6.56-18.2-13.43-4.22-6.88-6.32-15.21-6.32-24.99 0-9.75 2.11-18.08 6.34-24.98 4.23-6.91 10.29-11.4 18.18-13.48m15.35 6.8h16.21l-.45 1.98c-1.02.22-1.76.46-2.21.73-.44.27-.84.68-1.19 1.22s-.72 1.38-1.1 2.53c-.37 1.15-.85 3.02-1.41 5.61l-2.88 12.93h1.34c1.13 0 2.16-.19 3.1-.57.93-.38 2.02-1.06 3.26-2.06q1.86-1.5 5.94-5.52 4.065-4.005 5.79-6.09c1.15-1.4 1.99-2.6 2.51-3.61.53-1.01.79-1.94.79-2.78 0-.67-.27-1.22-.81-1.64q-.81-.63-2.31-.75l.45-1.98h17.39l-.45 1.98c-1.08.16-2.3.72-3.67 1.68-1.36.96-3.45 2.83-6.26 5.62l-15.72 15.32 8.63 20.75c.89 2.13 1.63 3.67 2.21 4.62.58.94 1.27 1.69 2.08 2.24.82.56 1.81.93 3 1.12l-.44 1.99h-15.65l.45-1.99c1.46-.14 2.19-.78 2.19-1.95q0-1.095-.45-2.49c-.29-.93-.65-1.9-1.05-2.9l-5.27-12.88c-.62-1.54-1.16-2.62-1.62-3.25-.46-.62-.95-1.05-1.46-1.29-.51-.25-1.31-.37-2.39-.37h-2.27l-3.36 15.32c-.36 1.62-.59 2.9-.69 3.83-.11.93-.17 1.76-.17 2.49 0 1.22.31 2.08.92 2.58.6.5 1.62.8 3.06.91l-.45 1.99h-16.21l.45-1.99c1.02-.16 1.79-.43 2.31-.79.51-.37.94-.87 1.29-1.52s.68-1.44.98-2.37c.29-.93.74-2.74 1.33-5.41l6.89-31.21c.6-2.7.89-4.87.89-6.52 0-1.27-.31-2.16-.95-2.66-.63-.5-1.64-.79-3.02-.87Z"/><text x="1896.99" y="1622.84" fill-opacity="0" font-family="Arial,Arial_MSFontService,sans-serif" font-size="55.32">𝐾</text><path fill="#d74514" fill-rule="evenodd" d="M1964.15 1608.24h1.81c-.04 1.09-.07 2.07-.09 2.93s-.03 1.7-.04 2.52c-.01.81-.01 1.61-.01 2.41v22.64c0 .61.02 1.14.05 1.59.04.45.11.82.2 1.13s.21.57.36.79c.14.22.32.41.52.57.24.23.55.42.95.55s.9.24 1.52.32q.915.135 2.22.21c.86.05 1.9.09 3.11.11v2.59h-23.62v-2.59c1.17-.04 2.17-.09 2.98-.14s1.51-.12 2.08-.2a10 10 0 0 0 1.39-.3c.35-.11.65-.25.91-.4.28-.18.51-.38.71-.59.2-.2.36-.47.48-.79.12-.31.21-.7.28-1.16.07-.45.11-1.02.11-1.69v-21.36c0-.77-.15-1.32-.45-1.64s-.72-.48-1.28-.48c-.62 0-1.53.32-2.74.96-1.21.63-2.78 1.58-4.71 2.83-.26-.46-.49-.92-.71-1.37-.22-.46-.45-.93-.69-1.4 2.47-1.35 4.9-2.7 7.32-4.04 2.41-1.34 4.86-2.67 7.34-4"/><text x="1949.49" y="1641.8" fill-opacity="0" font-family="Arial,Arial_MSFontService,sans-serif" font-size="38.363">1</text><path fill="#d74514" fill-rule="evenodd" d="M1987.84 1620.35h7.09c.38 1.89.56 3.76.56 5.6 0 1.89-.32 3.62-.97 5.18-.65 1.57-1.68 3.13-3.1 4.68q-2.13 2.34-5.85 5.13l-2.19-2.47c1.38-1.3 2.37-2.47 3-3.51.62-1.04 1.06-2.22 1.33-3.54.27-1.33.41-2.99.41-4.99 0-2.05-.1-4.08-.28-6.08"/><text x="1983.38" y="1638.37" fill-opacity="0" font-family="Arial,Arial_MSFontService,sans-serif" font-size="20.588">,</text><path fill="#d74514" fill-rule="evenodd" d="M2026.19 1574.44h14.47l4.62 39.31 23.63-39.31h12.76l-.44 1.98c-1.03.22-1.77.46-2.21.73-.45.27-.85.68-1.22 1.22-.36.54-.73 1.38-1.09 2.53-.37 1.15-.83 3.02-1.4 5.61l-6.93 31.45c-.35 1.6-.58 2.86-.69 3.79s-.16 1.78-.16 2.53c0 1.22.3 2.08.91 2.58s1.63.8 3.06.91l-.45 1.99h-16.21l.45-1.99c1.02-.16 1.79-.43 2.31-.79.51-.37.94-.87 1.29-1.52.36-.65.68-1.44.98-2.37.29-.93.74-2.74 1.33-5.41l5.39-24.44c.76-3.38 1.63-6.74 2.6-10.09h-.57c-.84 1.59-2.73 4.83-5.67 9.73l-18.44 30.43h-4.42l-3.36-26.06c-.49-3.67-1.03-8.62-1.62-14.83h-.82c-.91 6.05-1.94 11.66-3.08 16.82l-4.13 18.72c-.57 2.57-.85 4.68-.85 6.32 0 1.22.3 2.08.91 2.58s1.63.8 3.06.91l-.44 1.99h-14.19l.45-1.99c1.02-.16 1.79-.43 2.31-.79.51-.37.94-.87 1.29-1.52.36-.65.68-1.44.98-2.37.29-.93.74-2.74 1.33-5.41l6.89-31.21c.27-1.16.49-2.27.65-3.32.16-1.06.25-2.12.25-3.2 0-1.27-.32-2.16-.96-2.66-.63-.5-1.64-.79-3.02-.87Z"/><text x="2015.57" y="1622.84" fill-opacity="0" font-family="Arial,Arial_MSFontService,sans-serif" font-size="55.32">𝑀</text><path d="M2752.5 1197.92h130.18v9.16H2752.5Zm125.6-18.34 45.83 22.92-45.83 22.92Z"/><path fill-rule="evenodd" d="M2509.16 1473.35c2.46 0 4.73.15 6.83.45 2.09.29 4.42.84 6.99 1.62l-2.43 10.98h-3.89c-.22-3.32-.94-5.72-2.17-7.19s-3.21-2.21-5.94-2.21c-3.73 0-7.19 1.86-10.39 5.59-3.21 3.73-5.74 8.65-7.6 14.77-1.87 6.12-2.8 11.8-2.8 17.05 0 4.1.73 7.13 2.19 9.07 1.46 1.95 3.7 2.92 6.73 2.92 2.02 0 3.79-.3 5.31-.91 1.51-.61 2.93-1.63 4.25-3.08s2.64-3.46 3.93-6.06h3.89l-2.47 11.51c-5.05 1.41-10.35 2.11-15.89 2.11-5.08 0-8.94-1.46-11.59-4.38-2.64-2.92-3.97-7.19-3.97-12.8q0-5.97 2.13-13.74c1.42-5.19 3.42-9.74 6.02-13.66 2.59-3.92 5.66-6.9 9.2-8.96 3.54-2.05 7.43-3.08 11.67-3.08"/><text x="2480.14" y="1522.89" fill-opacity="0" font-family="Arial,Arial_MSFontService,sans-serif" font-size="56.617">𝐶</text><path fill-rule="evenodd" d="M2755.58 1467.21q11.835 3.12 18.18 13.47c4.23 6.9 6.34 15.23 6.34 24.99 0 9.78-2.11 18.11-6.32 24.98-4.22 6.88-10.28 11.36-18.2 13.44l-.97-3.12c6.24-2.08 10.88-6.19 13.92-12.32 3.04-6.14 4.56-13.93 4.56-23.39 0-9.13-1.51-16.72-4.54-22.75-3.03-6.04-7.71-10.1-14.06-12.18Zm-196.2 0 1.09 3.12q-9.48 3.12-14.04 12.18c-3.04 6.03-4.56 13.62-4.56 22.75 0 9.46 1.52 17.25 4.56 23.39 3.04 6.13 7.68 10.24 13.92 12.32l-.97 3.12c-7.92-2.08-13.99-6.56-18.2-13.44-4.22-6.87-6.32-15.2-6.32-24.98 0-9.76 2.11-18.09 6.34-24.99q6.345-10.35 18.18-13.47m15.35 6.79h16.21l-.45 1.99c-1.02.21-1.76.46-2.21.73-.44.27-.84.67-1.19 1.21s-.72 1.39-1.1 2.53c-.37 1.15-.85 3.02-1.41 5.62l-2.88 12.93h1.34c1.13 0 2.16-.19 3.1-.57.93-.38 2.02-1.07 3.26-2.07s3.22-2.84 5.94-5.51c2.71-2.68 4.64-4.71 5.79-6.1s1.99-2.59 2.51-3.61c.53-1.01.79-1.94.79-2.77 0-.68-.27-1.23-.81-1.64q-.81-.63-2.31-.75l.45-1.99h17.39l-.45 1.99c-1.08.16-2.3.72-3.67 1.68-1.36.96-3.45 2.83-6.26 5.61l-15.72 15.32 8.63 20.75c.89 2.13 1.63 3.67 2.21 4.62s1.27 1.7 2.08 2.25 1.81.93 3 1.11l-.44 1.99h-15.65l.45-1.99c1.46-.13 2.19-.78 2.19-1.94q0-1.095-.45-2.49c-.3-.94-.65-1.9-1.05-2.9l-5.27-12.89q-.93-2.31-1.62-3.24c-.46-.62-.95-1.05-1.46-1.3-.51-.24-1.31-.36-2.39-.36h-2.27l-3.36 15.32c-.36 1.62-.59 2.89-.69 3.83-.11.93-.17 1.76-.17 2.49 0 1.21.31 2.07.92 2.57.6.5 1.62.81 3.06.91l-.45 1.99h-16.21l.44-1.99c1.03-.16 1.8-.42 2.31-.79.52-.36.95-.87 1.3-1.52.35-.64.68-1.43.97-2.37.3-.93.75-2.73 1.34-5.41l6.89-31.2c.6-2.7.89-4.88.89-6.53 0-1.27-.31-2.15-.95-2.65-.63-.5-1.64-.79-3.02-.87Z"/><text x="2564.11" y="1522.41" fill-opacity="0" font-family="Arial,Arial_MSFontService,sans-serif" font-size="55.32">𝐾</text><path fill-rule="evenodd" d="M2631.27 1507.8h1.81c-.04 1.09-.07 2.07-.09 2.93-.02.87-.03 1.71-.04 2.52-.01.82-.02 1.62-.02 2.41v22.64q0 .93.06 1.59c.04.45.11.83.2 1.14.09.3.21.57.36.79.14.21.32.4.52.56.23.24.55.42.95.55s.9.24 1.52.33q.915.135 2.22.21c.86.05 1.9.08 3.11.1v2.59h-23.62v-2.59c1.17-.04 2.16-.08 2.98-.13.81-.05 1.51-.12 2.08-.21a10 10 0 0 0 1.39-.3c.35-.11.65-.24.91-.4.28-.18.51-.37.71-.58s.36-.47.48-.79.21-.7.28-1.16.11-1.02.11-1.7v-21.36c0-.77-.15-1.32-.45-1.63-.3-.32-.73-.48-1.28-.48-.62 0-1.53.32-2.74.95-1.21.64-2.78 1.58-4.71 2.83-.26-.45-.49-.91-.71-1.37-.22-.45-.45-.92-.69-1.4 2.46-1.35 4.9-2.69 7.31-4.03 2.42-1.34 4.86-2.68 7.35-4.01"/><text x="2616.61" y="1541.37" fill-opacity="0" font-family="Arial,Arial_MSFontService,sans-serif" font-size="38.363">1</text><path fill-rule="evenodd" d="M2654.95 1519.92h7.1c.38 1.89.56 3.75.56 5.59 0 1.89-.32 3.62-.97 5.19s-1.68 3.13-3.1 4.68q-2.13 2.325-5.85 5.13l-2.19-2.48c1.37-1.29 2.37-2.46 3-3.5.62-1.04 1.06-2.22 1.33-3.55.27-1.32.41-2.98.41-4.98 0-2.06-.1-4.08-.29-6.08"/><text x="2650.5" y="1537.93" fill-opacity="0" font-family="Arial,Arial_MSFontService,sans-serif" font-size="20.588">,</text><path fill-rule="evenodd" d="M2693.31 1474h14.47l4.62 39.31 23.62-39.31h12.77l-.45 1.99c-1.02.21-1.76.46-2.2.73-.45.27-.85.67-1.22 1.21-.36.54-.73 1.39-1.09 2.53-.37 1.15-.83 3.02-1.4 5.62l-6.93 31.45c-.35 1.59-.58 2.85-.69 3.79-.11.93-.16 1.77-.16 2.53 0 1.21.3 2.07.91 2.57s1.63.81 3.06.91l-.45 1.99h-16.21l.45-1.99c1.02-.16 1.79-.42 2.31-.79.51-.36.94-.87 1.29-1.52.36-.64.68-1.43.98-2.37.29-.93.74-2.73 1.33-5.41l5.39-24.43c.76-3.38 1.63-6.75 2.6-10.1h-.57c-.84 1.6-2.73 4.84-5.67 9.73l-18.44 30.44h-4.42l-3.36-26.06c-.49-3.68-1.03-8.62-1.63-14.84h-.81c-.91 6.06-1.94 11.66-3.08 16.82l-4.13 18.73c-.57 2.56-.85 4.67-.85 6.32 0 1.21.3 2.07.91 2.57s1.63.81 3.06.91l-.44 1.99h-14.19l.45-1.99c1.02-.16 1.79-.42 2.31-.79.51-.36.94-.87 1.29-1.52.35-.64.68-1.43.98-2.37.29-.93.74-2.73 1.33-5.41l6.89-31.2c.27-1.16.49-2.27.65-3.33.16-1.05.24-2.12.24-3.2 0-1.27-.31-2.15-.95-2.65-.63-.5-1.64-.79-3.02-.87Z"/><text x="2682.69" y="1522.41" fill-opacity="0" font-family="Arial,Arial_MSFontService,sans-serif" font-size="55.32">𝑀</text><path fill="#f8ccb9" d="M210 219h238v308H210z"/><path fill="#d74514" fill-rule="evenodd" d="M301.566 347.3h18.886l3.161 33.84 19.21-33.84h18.845l-.567 2.675q-2.31.648-3.405 2.269t-2.066 5.998l-7.376 33.435q-.285 1.298-.406 2.25-.121.951-.121 2.492 0 1.703.79 2.492.79.79 2.573 1.034l-.567 2.675h-20.385l.567-2.675q2.31-.648 3.405-2.27 1.094-1.62 2.066-5.998l3.729-17.021a258 258 0 0 1 4.377-16.981h-.811a322 322 0 0 1-4.093 7.254L321.141 396.5h-6.566l-2.674-24.357q-.933-8.673-1.216-14.873h-.649q-1.62 10.01-3.08 16.616l-3.931 17.791a26 26 0 0 0-.405 2.25q-.122.951-.122 2.492 0 1.703.79 2.492.79.79 2.574 1.034l-.567 2.675h-14.874l.567-2.675q2.31-.648 3.405-2.27 1.094-1.62 2.067-5.998l7.376-33.435a22 22 0 0 0 .526-4.741q0-1.702-.79-2.493t-2.573-1.033Z"/><text x="290.421" y="395.705" fill-opacity="0" font-family="Arial,Arial_MSFontService,sans-serif" font-size="55.32">𝑴</text><path fill="#fdefe8" fill-rule="evenodd" d="M577 826c0-60.199 49.025-109 109.5-109S796 765.801 796 826s-49.025 109-109.5 109S577 886.199 577 826"/><path fill="#d74514" fill-rule="evenodd" d="M694.728 799.278q6.93 0 13.617 1.986l-2.593 11.834h-5.31q-.121-3.607-.729-5.431-.607-1.824-1.905-2.736-1.297-.91-3.526-.911-3.404 0-6.727 2.674-3.323 2.676-6.14 8.086t-4.539 12.786-1.723 13.293q0 3.404.629 5.633.628 2.23 2.188 3.445 1.56 1.216 4.316 1.216 4.215 0 6.991-2.108t5.005-7.254h5.309l-2.593 11.956a53 53 0 0 1-7.822 1.641q-3.891.507-8.349.507-8.632 0-13.252-4.722-4.62-4.721-4.62-13.597 0-3.364.729-7.74 1.176-6.93 3.891-12.807 2.715-5.876 6.829-9.869 4.113-3.991 9.24-5.937 5.127-1.945 11.084-1.945"/><text x="662.955" y="848.818" fill-opacity="0" font-family="Arial,Arial_MSFontService,sans-serif" font-size="56.617">𝑪</text><path fill="#fdefe8" fill-rule="evenodd" d="M853 373c0-60.199 48.801-109 109-109 60.2 0 109 48.801 109 109s-48.8 109-109 109c-60.199 0-109-48.801-109-109"/><path fill="#d74514" fill-rule="evenodd" d="M963.058 347.3h6.322v63.425h-6.322Zm-14.185 0h6.322v63.425h-6.322Z"/><text x="948.873" y="402.797" fill-opacity="0" font-family="Arial,Arial_MSFontService,sans-serif" font-size="63.425">∥</text><path fill="#f8ccb9" d="M1716 145h238v308h-238z"/><path fill="#d74514" fill-rule="evenodd" d="M1807.73 273.348h18.89l3.16 33.84 19.21-33.84h18.84l-.56 2.675c-1.54.432-2.68 1.189-3.41 2.269q-1.095 1.621-2.07 5.998l-7.37 33.435c-.19.865-.33 1.615-.41 2.25q-.12.952-.12 2.492c0 1.135.26 1.966.79 2.493q.795.79 2.58 1.033l-.57 2.675h-20.39l.57-2.675c1.54-.432 2.67-1.189 3.4-2.27q1.095-1.62 2.07-5.998l3.73-17.021q1.86-8.43 4.38-16.981h-.81a317 317 0 0 1-4.1 7.254l-18.23 31.571h-6.57l-2.67-24.357c-.63-5.782-1.03-10.74-1.22-14.873h-.65c-1.08 6.673-2.11 12.212-3.08 16.616l-3.93 17.791c-.19.865-.32 1.615-.41 2.25q-.12.952-.12 2.492c0 1.135.27 1.966.79 2.493q.795.79 2.58 1.033l-.57 2.675h-14.87l.56-2.675c1.54-.432 2.68-1.189 3.41-2.27s1.42-3.08 2.06-5.998l7.38-33.435c.35-1.594.53-3.174.53-4.741 0-1.135-.27-1.966-.79-2.493q-.795-.79-2.58-1.033Z"/><text x="1796.59" y="321.753" fill-opacity="0" font-family="Arial,Arial_MSFontService,sans-serif" font-size="55.32">𝑴</text><path fill="#fdefe8" d="M1716 456h238v146h-238z"/><path fill="#fdefe8" fill-rule="evenodd" d="M2923 373c0-60.199 48.8-109 109-109s109 48.801 109 109-48.8 109-109 109-109-48.801-109-109"/><path fill="#d74514" fill-rule="evenodd" d="M3040.06 346.651q6.93 0 13.62 1.986l-2.6 11.834h-5.31c-.08-2.404-.32-4.215-.73-5.43-.4-1.216-1.04-2.128-1.9-2.736-.87-.608-2.04-.912-3.53-.912-2.27 0-4.51.892-6.73 2.675-2.21 1.783-4.26 4.478-6.14 8.085-1.87 3.607-3.39 7.869-4.53 12.786-1.15 4.918-1.73 9.349-1.73 13.293q0 3.405.63 5.634t2.19 3.445 4.32 1.215q4.215 0 6.99-2.107c1.85-1.405 3.52-3.823 5-7.254h5.31l-2.59 11.955a53 53 0 0 1-7.82 1.642c-2.6.337-5.38.506-8.35.506q-8.64 0-13.26-4.721-4.62-4.722-4.62-13.597c0-2.243.25-4.823.73-7.741.79-4.62 2.08-8.889 3.89-12.807 1.81-3.917 4.09-7.207 6.83-9.868q4.125-3.991 9.24-5.937c3.42-1.297 7.12-1.946 11.09-1.946"/><text x="3008.28" y="396.191" fill-opacity="0" font-family="Arial,Arial_MSFontService,sans-serif" font-size="56.617">𝑪</text><path fill-rule="evenodd" d="M3433.3 645.073q-2.07 0-4.08 1.398c-1.33.932-2.8 2.425-4.39 4.479-1.6 2.053-2.84 4.079-3.73 6.079s-1.6 4.296-2.11 6.889l-.32 1.702q-.405 2.149-.51 3.283c-.07.757-.1 1.5-.1 2.229 0 2.108.45 3.641 1.36 4.6q1.35 1.439 4.68 1.439 2.055 0 3.81-.811 1.74-.81 3.3-2.35t2.82-3.729c.83-1.459 1.58-3.154 2.24-5.086a35.4 35.4 0 0 0 1.5-5.958q.51-3.059.51-5.734c0-2.837-.4-4.951-1.19-6.343-.8-1.391-2.06-2.087-3.79-2.087m-118.18-1.499q-4.215 0-7.35 3.525-3.15 3.527-4.95 10.092t-1.8 11.307c0 2.972.61 5.167 1.84 6.586 1.23 1.418 3.09 2.127 5.57 2.127 2.65 0 5-1.188 7.06-3.566q3.075-3.567 4.86-9.99c1.19-4.283 1.78-8.045 1.78-11.287 0-2.918-.56-5.113-1.7-6.586q-1.695-2.208-5.31-2.208m244.41-.081q-4.095 0-7.89 4.133c-2.52 2.756-4.46 6.485-5.81 11.186q5.715-.04 9.81-1.034c2.72-.661 4.82-1.715 6.28-3.161q2.19-2.168 2.19-5.856c0-1.648-.39-2.938-1.16-3.87q-1.155-1.398-3.42-1.398m-84.08 0q-4.185 0-7.5 3.363-3.33 3.365-5.19 9.018t-1.86 11.287c0 2.809.38 4.91 1.15 6.302q1.155 2.087 3.87 2.087c1.79 0 3.53-.77 5.25-2.31q2.58-2.31 5.31-6.586t3.87-9.868l.36-1.743c.25-1.108.41-2.067.49-2.878q.12-1.215.12-2.634c0-2.08-.44-3.607-1.34-4.579q-1.335-1.46-4.53-1.459m-159.52-3.162c4.33 0 7.62 1.182 9.89 3.547 2.27 2.364 3.41 5.748 3.41 10.152q0 4.701-1.65 10.05c-1.09 3.567-2.59 6.566-4.49 8.998-1.91 2.431-4.19 4.262-6.83 5.491q-3.975 1.844-9.12 1.844-6.285 0-9.75-3.526c-2.31-2.351-3.46-5.728-3.46-10.132 0-2.161.32-4.66.97-7.497.84-3.837 2.24-7.187 4.21-10.051 1.98-2.864 4.41-5.059 7.3-6.586 2.89-1.526 6.06-2.29 9.52-2.29m245.06-.04c3.26 0 5.72.662 7.35 1.986 1.64 1.324 2.45 3.391 2.45 6.2 0 4.593-2.15 8.038-6.46 10.335-4.31 2.296-10.71 3.445-19.19 3.445a27 27 0 0 0-.49 5.268c0 2.837.56 4.897 1.66 6.181 1.11 1.283 2.92 1.925 5.44 1.925 2.48 0 4.73-.541 6.74-1.621 2.02-1.081 4.14-2.743 6.39-4.985l2.51 2.634c-2.62 2.891-5.28 5.066-7.96 6.525q-4.035 2.188-9.39 2.188c-3.91 0-6.95-1.195-9.09-3.586-2.15-2.391-3.23-5.721-3.23-9.99q0-4.336 1.56-9.301c1.04-3.31 2.62-6.282 4.72-8.916 2.11-2.635 4.64-4.674 7.58-6.12 2.95-1.445 6.08-2.168 9.41-2.168m-53.8 0c1.71 0 3.05.561 4.04 1.682.98 1.121 1.48 2.587 1.48 4.397 0 1.351-.26 2.742-.77 4.174l.52.203c2.65-3.593 5.2-6.228 7.64-7.903q3.675-2.513 7.44-2.513c1.97 0 3.62.149 4.94.446l-1.94 9.078h-4.18q-.24-1.702-.69-2.634-.435-.932-1.05-1.297c-.41-.243-.92-.365-1.54-.365q-1.455 0-3.18 1.257t-3.87 3.931c-1.43 1.783-2.58 3.499-3.43 5.147s-1.56 3.742-2.12 6.282l-3.85 17.548h-7.02l5.88-25.694c.38-1.621.62-2.878.73-3.769.11-.892.16-1.635.16-2.229 0-1.081-.17-1.865-.52-2.351-.36-.486-.91-.729-1.67-.729-.83 0-1.72.344-2.65 1.033s-2.21 1.939-3.83 3.749l-2.31-2.27q3.735-3.891 6.24-5.532a9.96 9.96 0 0 1 5.55-1.641m-32.55 0q2.625 0 4.92.588c1.53.391 3.1 1.087 4.72 2.087l3.73-2.675 2.59.648-5.95 25.695q-.9 3.85-.9 5.998c0 1.08.18 1.864.53 2.35.35.487.91.73 1.66.73.81 0 1.68-.331 2.6-.993.91-.662 2.21-1.925 3.89-3.789l2.31 2.269c-2.43 2.594-4.51 4.438-6.22 5.532q-2.58 1.641-5.58 1.641c-1.67 0-3.01-.553-4.01-1.661q-1.5-1.661-1.5-4.418 0-2.229.93-4.741l-.52-.162q-3.9 5.673-7.38 8.308t-7.38 2.634q-4.455 0-6.9-3.364-2.46-3.363-2.46-9.443c0-4.647.92-9.112 2.74-13.394s4.33-7.66 7.52-10.132c3.18-2.472 6.74-3.708 10.66-3.708m-58.41 0c1.68 0 3.01.554 4 1.662.98 1.107 1.48 2.58 1.48 4.417 0 1.513-.32 3.107-.94 4.782l.49.162q7.5-10.983 14.91-10.983 4.425 0 6.87 3.364c1.64 2.243 2.45 5.404 2.45 9.484 0 4.458-.89 8.841-2.69 13.151-1.8 4.309-4.29 7.727-7.48 10.253s-6.75 3.789-10.7 3.789c-3.59 0-6.58-.783-8.95-2.35l-1.87 8.875c-.4 1.919-.61 3.499-.61 4.742 0 1.189.31 2.033.92 2.533.6.5 1.79.831 3.54.993l-.32 1.986h-12.52l9.76-43c.57-2.485.85-4.525.85-6.119 0-1.081-.17-1.865-.52-2.351s-.91-.729-1.67-.729c-.83 0-1.72.344-2.65 1.033s-2.21 1.939-3.83 3.749l-2.31-2.27q3.645-3.81 6.18-5.491 2.535-1.682 5.61-1.682m-70 0c1.71 0 3.05.561 4.04 1.682.98 1.121 1.48 2.587 1.48 4.397 0 1.486-.32 3.067-.94 4.742l.49.162c2.49-3.702 4.96-6.451 7.42-8.248s4.94-2.695 7.45-2.695c2.6 0 4.57.737 5.92 2.209 1.35 1.473 2.03 3.6 2.03 6.383v.568c0 .189-.02.391-.04.608 2.32-3.297 4.64-5.749 6.95-7.356s4.7-2.412 7.19-2.412 4.4.716 5.76 2.148c1.35 1.432 2.02 3.445 2.02 6.039q0 2.553-1.17 7.254l-2.64 10.619c-.73 2.945-1.09 5.025-1.09 6.241 0 1.08.17 1.864.52 2.35.36.487.91.73 1.67.73.81 0 1.67-.331 2.59-.993s2.22-1.925 3.89-3.789l2.31 2.269c-2.32 2.459-4.35 4.269-6.08 5.431s-3.7 1.742-5.92 1.742c-1.75 0-3.16-.628-4.21-1.884s-1.58-2.857-1.58-4.803c0-1.756.44-4.336 1.34-7.74l1.78-7.012c.65-2.539 1.07-4.417 1.28-5.633q.3-1.824.3-2.958 0-2.797-.93-4.033c-.62-.824-1.64-1.236-3.04-1.236-1.14 0-2.35.426-3.65 1.277s-2.66 2.175-4.09 3.971q-2.145 2.696-3.51 5.309c-.9 1.743-1.63 3.871-2.17 6.384l-3.68 17.71h-7.02l4.67-20.588c.56-2.513.95-4.37 1.15-5.572q.3-1.804.3-3.101c0-1.945-.34-3.33-1.03-4.154s-1.76-1.236-3.22-1.236q-1.545 0-3.51 1.277c-1.31.851-2.71 2.215-4.19 4.093-1.49 1.878-2.65 3.681-3.49 5.41-.83 1.73-1.54 3.837-2.1 6.323l-3.85 17.548h-7.02l5.92-25.694c.6-2.594.89-4.593.89-5.998 0-1.081-.17-1.865-.52-2.351s-.91-.729-1.67-.729c-.83 0-1.72.344-2.65 1.033s-2.21 1.939-3.83 3.749l-2.31-2.27c2.38-2.485 4.42-4.302 6.14-5.451 1.72-1.148 3.6-1.722 5.65-1.722m-71.27-16.535c2.46 0 4.73.148 6.83.446q3.135.445 6.99 1.621l-2.44 10.983h-3.89q-.315-4.986-2.16-7.194-1.845-2.21-5.94-2.209c-3.73 0-7.19 1.864-10.4 5.593-3.2 3.728-5.73 8.653-7.6 14.772q-2.79 9.18-2.79 17.042 0 6.16 2.19 9.078t6.72 2.918q3.045 0 5.31-.912c1.52-.608 2.93-1.634 4.26-3.08q1.98-2.168 3.93-6.059h3.89l-2.47 11.51c-5.05 1.405-10.35 2.107-15.89 2.107-5.08 0-8.94-1.459-11.59-4.377s-3.97-7.186-3.97-12.806q0-5.957 2.13-13.739c1.42-5.187 3.42-9.74 6.01-13.658 2.6-3.917 5.67-6.903 9.2-8.956 3.54-2.054 7.43-3.08 11.68-3.08"/><text x="3245.94" y="687.976" fill-opacity="0" font-family="Arial,Arial_MSFontService,sans-serif" font-size="73.395">𝐶𝑜𝑚𝑝𝑎𝑟𝑒</text><path d="M448.5 368.917h364.32v9.167l-364.32-.001Zm359.737-18.333 45.833 22.917-45.833 22.916Z"/><path fill-rule="evenodd" d="M668.934 463.416h16.211l-.446 1.985q-1.54.325-2.209.73-.668.405-1.196 1.216t-1.094 2.533-1.418 5.613l-2.878 12.928h1.338q1.702 0 3.1-.567 1.398-.569 3.263-2.067 1.863-1.5 5.937-5.512 4.073-4.013 5.795-6.099 1.722-2.088 2.513-3.607t.79-2.777q0-1.012-.81-1.641-.812-.628-2.31-.75l.445-1.985h17.387l-.446 1.985q-1.621.243-3.668 1.682t-6.261 5.613l-15.725 15.32 8.632 20.75q1.338 3.201 2.209 4.62.872 1.418 2.087 2.249 1.216.83 2.999 1.115l-.446 1.985H687.09l.446-1.985q2.188-.203 2.188-1.946 0-1.094-.446-2.492a41 41 0 0 0-1.053-2.898l-5.269-12.888q-.932-2.31-1.621-3.242t-1.459-1.297-2.391-.364h-2.27l-3.363 15.319q-.528 2.432-.689 3.83a22 22 0 0 0-.162 2.492q0 1.824.911 2.574.912.748 3.06.912l-.446 1.985h-16.211l.446-1.985q1.54-.244 2.31-.791t1.297-1.52.973-2.37q.446-1.399 1.337-5.411l6.89-31.206q.892-4.053.892-6.525 0-1.905-.953-2.654-.952-.75-3.019-.872Z"/><text x="658.315" y="511.82" fill-opacity="0" font-family="Arial,Arial_MSFontService,sans-serif" font-size="55.32">𝐾</text><path d="m691.083 556.5.001 119.739h-9.167V556.5Zm18.334 115.155L686.5 717.489l-22.916-45.834ZM324.917 527.5v303.025h211.746v-9.167H329.5l4.583 4.583V527.5Zm207.162 321.358 45.834-22.917-45.834-22.916Zm264.421-18.39h171.254V523.75h-9.167v302.135l4.583-4.583H796.5Zm189.587-302.135L963.17 482.5l-22.916 45.833Zm85.413-159.416h596.97v9.167l-596.97-.001Zm592.38-18.333 45.84 22.917-45.84 22.916Z"/><path fill-rule="evenodd" d="M3014.26 624.404h16.21l-.44 1.986c-1.03.216-1.76.459-2.21.73s-.84.675-1.2 1.215c-.35.541-.71 1.385-1.09 2.533-.38 1.149-.85 3.02-1.42 5.613l-2.88 12.929h1.34c1.14 0 2.17-.19 3.1-.568s2.02-1.067 3.26-2.067q1.875-1.5 5.94-5.511c2.72-2.675 4.65-4.708 5.8-6.1s1.98-2.594 2.51-3.607.79-1.938.79-2.776q0-1.013-.81-1.641t-2.31-.75l.45-1.986h17.38l-.44 1.986c-1.09.162-2.31.723-3.67 1.682-1.37.959-3.45 2.83-6.26 5.613l-15.73 15.319 8.63 20.75c.9 2.135 1.63 3.675 2.21 4.62s1.28 1.696 2.09 2.25q1.215.83 3 1.114l-.45 1.986h-15.64l.45-1.986c1.45-.135 2.18-.783 2.18-1.945 0-.73-.14-1.56-.44-2.493s-.65-1.898-1.06-2.897l-5.26-12.888c-.63-1.54-1.17-2.621-1.63-3.242-.45-.622-.94-1.054-1.45-1.297-.52-.243-1.31-.365-2.4-.365h-2.26l-3.37 15.32q-.525 2.431-.69 3.829a21 21 0 0 0-.16 2.493c0 1.216.3 2.073.91 2.573q.915.75 3.06.912l-.44 1.986h-16.21l.44-1.986q1.545-.243 2.31-.79c.51-.365.95-.871 1.3-1.52.35-.648.67-1.439.97-2.371s.74-2.735 1.34-5.41l6.89-31.206c.59-2.702.89-4.877.89-6.525 0-1.27-.32-2.155-.95-2.655-.64-.499-1.64-.79-3.02-.871Z"/><text x="3003.65" y="672.809" fill-opacity="0" font-family="Arial,Arial_MSFontService,sans-serif" font-size="55.32">𝐾</text><path d="M3037.083 583.355V523.75h-9.166v59.605Zm18.334-55.021L3032.5 482.5l-22.916 45.834Zm86.083-159.417h272.26v173.429h-9.16V373.5l4.58 4.583H3141.5Zm290.6 168.846-22.92 45.833-22.92-45.833Zm-1477.6-12.846h623.48v274.598l-4.59-4.583h835.99l-4.58 4.583v-41.251h9.16v45.835h-845.15V529.5l4.58 4.583H1954.5Zm1431.96 237.93 22.92-45.833 22.92 45.833Z"/><path fill-rule="evenodd" d="M1716.11 648.24c2.46 0 4.74.149 6.83.446q3.15.446 6.99 1.621l-2.43 10.983h-3.89c-.21-3.323-.94-5.721-2.17-7.193-1.23-1.473-3.2-2.209-5.93-2.209-3.73 0-7.2 1.864-10.4 5.593s-5.73 8.652-7.6 14.772q-2.79 9.18-2.79 17.042 0 6.159 2.19 9.078c1.45 1.945 3.7 2.918 6.72 2.918q3.045 0 5.31-.912t4.26-3.08q1.98-2.168 3.93-6.059h3.89l-2.47 11.51c-5.06 1.405-10.35 2.107-15.89 2.107-5.08 0-8.94-1.459-11.59-4.377s-3.97-7.187-3.97-12.806q0-5.958 2.13-13.739c1.41-5.188 3.42-9.74 6.01-13.658 2.6-3.918 5.66-6.903 9.2-8.956q5.31-3.081 11.67-3.081"/><text x="1687.1" y="697.78" fill-opacity="0" font-family="Arial,Arial_MSFontService,sans-serif" font-size="56.617">𝐶</text><path fill-rule="evenodd" d="M1935.18 642.095c7.88 2.08 13.94 6.572 18.17 13.475s6.34 15.232 6.34 24.985c0 9.781-2.1 18.109-6.32 24.985-4.21 6.876-10.28 11.355-18.19 13.435l-.98-3.121q9.36-3.12 13.92-12.32t4.56-23.384c0-9.132-1.51-16.718-4.54-22.756-3.02-6.039-7.71-10.098-14.06-12.179Zm-168.85 0 1.1 3.12c-6.33 2.081-11.01 6.14-14.05 12.179q-4.56 9.058-4.56 22.756 0 14.184 4.56 23.384t13.92 12.32l-.97 3.121c-7.91-2.08-13.98-6.559-18.19-13.435q-6.33-10.314-6.33-24.985c0-9.753 2.12-18.082 6.35-24.985 4.22-6.903 10.28-11.395 18.17-13.475m15.35 6.794h16.21l-.44 1.986c-1.03.216-1.76.459-2.21.729s-.84.676-1.2 1.216c-.35.54-.71 1.385-1.09 2.533s-.85 3.019-1.42 5.613l-2.88 12.928h1.34c1.14 0 2.17-.189 3.1-.567s2.02-1.067 3.26-2.067q1.875-1.5 5.94-5.512c2.72-2.675 4.65-4.708 5.8-6.099s1.98-2.594 2.51-3.607.79-1.939.79-2.776q0-1.014-.81-1.641-.81-.629-2.31-.75l.45-1.986h17.38l-.44 1.986c-1.08.162-2.31.722-3.67 1.682-1.37.959-3.45 2.83-6.26 5.613L1800 673.489l8.63 20.75c.9 2.134 1.63 3.675 2.21 4.62s1.28 1.696 2.09 2.249q1.215.831 3 1.115l-.45 1.986h-15.64l.45-1.986c1.45-.135 2.18-.784 2.18-1.945 0-.73-.14-1.561-.44-2.493s-.65-1.898-1.06-2.898L1795.71 682c-.63-1.54-1.17-2.621-1.63-3.242-.45-.622-.94-1.054-1.45-1.297-.52-.243-1.31-.365-2.4-.365h-2.26l-3.37 15.319q-.525 2.432-.69 3.83c-.11.932-.16 1.763-.16 2.493 0 1.215.3 2.073.91 2.573q.915.75 3.06.912l-.44 1.986h-16.21l.44-1.986q1.545-.244 2.31-.79c.51-.365.95-.872 1.3-1.52.35-.649.67-1.439.97-2.371s.74-2.736 1.34-5.41l6.89-31.206c.59-2.702.89-4.877.89-6.525 0-1.27-.32-2.155-.95-2.655-.64-.5-1.64-.79-3.02-.871Z"/><text x="1771.07" y="697.294" fill-opacity="0" font-family="Arial,Arial_MSFontService,sans-serif" font-size="55.32">𝐾</text><path fill-rule="evenodd" d="M1834.55 694.806h7.09q.57 2.838.57 5.593c0 1.891-.33 3.621-.97 5.188-.65 1.567-1.69 3.127-3.1 4.681-1.42 1.553-3.38 3.262-5.86 5.126l-2.19-2.472q2.07-1.945 3-3.505c.62-1.041 1.07-2.223 1.34-3.547s.4-2.985.4-4.985c0-2.053-.09-4.079-.28-6.079"/><text x="1830.09" y="712.821" fill-opacity="0" font-family="Arial,Arial_MSFontService,sans-serif" font-size="20.588">,</text><path fill-rule="evenodd" d="M1872.9 648.889h14.47l4.62 39.311 23.63-39.311h12.76l-.44 1.986c-1.03.216-1.76.459-2.21.729s-.85.676-1.22 1.216c-.36.54-.73 1.385-1.09 2.533s-.83 3.019-1.4 5.613l-6.93 31.449q-.525 2.39-.69 3.79a22 22 0 0 0-.16 2.533c0 1.215.3 2.073.91 2.573q.915.75 3.06.912l-.44 1.986h-16.21l.44-1.986q1.545-.244 2.31-.79c.51-.365.95-.872 1.3-1.52.35-.649.67-1.439.97-2.371s.74-2.736 1.34-5.41l5.39-24.438c.75-3.378 1.62-6.741 2.59-10.092h-.57q-1.245 2.392-5.67 9.727l-18.44 30.436h-4.42l-3.36-26.059q-.735-5.512-1.62-14.833h-.81c-.92 6.052-1.95 11.658-3.08 16.819l-4.14 18.723c-.56 2.567-.85 4.674-.85 6.323 0 1.215.31 2.073.91 2.573q.915.75 3.06.912l-.44 1.986h-14.19l.45-1.986q1.545-.244 2.31-.79c.51-.365.95-.872 1.3-1.52.35-.649.67-1.439.97-2.371s.74-2.736 1.34-5.41l6.89-31.206c.27-1.162.48-2.27.65-3.324q.24-1.58.24-3.201c0-1.27-.32-2.155-.95-2.655-.64-.5-1.65-.79-3.02-.871Z"/><text x="1862.28" y="697.294" fill-opacity="0" font-family="Arial,Arial_MSFontService,sans-serif" font-size="55.32">𝑀</text><path d="m1954.5 368.917 927.69.583-.01 9.166-927.68-.583Zm923.11-17.753 45.82 22.945-45.85 22.888Z"/></g></svg>