<svg xmlns="http://www.w3.org/2000/svg" width="2232" height="1814" overflow="hidden"><defs><clipPath id="a"><path d="M527 98h2232v1814H527z"/></clipPath></defs><g clip-path="url(#a)" transform="translate(-527 -98)"><path fill="#d74514" d="M697 384h433v325H697z"/><text fill="#fff" font-family="Microsoft YaHei,Microsoft YaHei_MSFontService,sans-serif" font-size="83" font-weight="700" transform="translate(832.447 527)">DES<tspan x="-1.444" y="99">ๅๅฏ</tspan></text><path d="m917.083 232.468.767 110.927-9.166.063-.767-110.926Zm19.068 106.217-22.599 45.99-23.233-45.674Z"/><path fill-rule="evenodd" d="M890.752 142.739q-2.513 0-5.268.121l-5.512 24.56h4.215q4.904 0 7.923-1.014 3.02-1.013 4.944-3.14 1.926-2.129 2.979-5.046t1.054-6.403q0-4.701-2.391-6.89t-7.944-2.188m-16.981-3.567h17.873q4.822 0 7.923.75t5.106 2.31a9.55 9.55 0 0 1 2.999 3.951q.993 2.391.993 5.553 0 6.078-2.877 10.537-2.877 4.458-7.802 6.565-4.923 2.108-11.813 2.108-4.134 0-6.89-.163l-2.594 11.915a48 48 0 0 0-.506 2.554 32 32 0 0 0-.243 1.925 19 19 0 0 0-.102 1.844q0 1.256.405 1.965.406.71 1.216 1.034.811.324 2.797.486l-.446 1.986h-16.657l.446-1.986q1.54-.243 2.31-.79.77-.548 1.297-1.52t.973-2.371q.446-1.398 1.337-5.41l6.89-31.206q.891-4.053.891-6.404 0-1.985-.932-2.755t-3.039-.892Z"/><text x="863.153" y="187.577" fill-opacity="0" font-family="Arial,Arial_MSFontService,sans-serif" font-size="55.32">๐</text><path fill-rule="evenodd" d="M921.167 172.972h1.817a221 221 0 0 0-.134 5.451q-.015 1.22-.015 2.413v22.636q0 .924.059 1.594.06.67.194 1.132t.357.789.522.566q.357.357.953.551.595.193 1.519.328.923.133 2.219.208t3.112.104v2.592h-23.619v-2.592q1.757-.059 2.978-.134a23 23 0 0 0 2.085-.208 10 10 0 0 0 1.385-.298q.522-.163.909-.402.417-.268.714-.581.298-.313.477-.789.178-.477.283-1.162a11.5 11.5 0 0 0 .104-1.698v-21.356q0-1.161-.447-1.638-.446-.476-1.28-.476-.923 0-2.741.953-1.816.952-4.706 2.829a22 22 0 0 1-.714-1.37q-.328-.684-.685-1.4 3.693-2.025 7.312-4.035a551 551 0 0 1 7.342-4.007"/><text x="906.513" y="206.54" fill-opacity="0" font-family="Arial,Arial_MSFontService,sans-serif" font-size="38.363">1</text><path fill-rule="evenodd" d="M894.175 926.669q3.688 0 6.828.445 3.141.447 6.991 1.621l-2.431 10.983h-3.891q-.324-4.985-2.168-7.193-1.844-2.21-5.937-2.209-5.593 0-10.396 5.593-4.802 5.592-7.598 14.772t-2.797 17.042q0 6.16 2.189 9.078t6.727 2.918q3.04 0 5.309-.912t4.256-3.08 3.931-6.059h3.89l-2.472 11.51q-7.578 2.107-15.886 2.107-7.62 0-11.591-4.377-3.972-4.377-3.972-12.806 0-5.958 2.128-13.739 2.127-7.782 6.018-13.658t9.2-8.956 11.672-3.08"/><text x="865.157" y="976.208" fill-opacity="0" font-family="Arial,Arial_MSFontService,sans-serif" font-size="56.617">๐ถ</text><path fill-rule="evenodd" d="M922.324 961.117h1.817a219 219 0 0 0-.149 7.864v22.636q0 .924.06 1.594.059.67.193 1.132.135.461.358.789.223.327.521.566.357.357.953.551a9.5 9.5 0 0 0 1.519.328 27 27 0 0 0 2.219.208q1.295.074 3.113.104v2.592h-23.62v-2.592q1.757-.059 2.979-.134a23 23 0 0 0 2.085-.208 10 10 0 0 0 1.385-.298q.52-.163.908-.402a4 4 0 0 0 .715-.581q.297-.313.476-.789.18-.477.283-1.162.105-.686.105-1.698v-21.356q0-1.161-.447-1.638t-1.281-.476q-.923 0-2.74.953-1.817.952-4.706 2.829a22 22 0 0 1-.715-1.37 98 98 0 0 0-.685-1.4q3.693-2.025 7.312-4.036a569 569 0 0 1 7.342-4.006"/><text x="907.67" y="994.685" fill-opacity="0" font-family="Arial,Arial_MSFontService,sans-serif" font-size="38.363">1</text><path d="m908.969 709.473-.807 135.667 9.167.055.806-135.668Zm-19.113 130.975 22.644 45.969 23.189-45.697ZM608.5 542.917h48.125v9.167l-48.125-.001Zm43.542-18.333 45.833 22.916-45.833 22.917Z"/><path fill-rule="evenodd" d="M537.914 520.874h16.211l-.446 1.986q-1.54.324-2.209.729-.668.406-1.195 1.216t-1.094 2.533-1.419 5.613l-2.877 12.928h1.337q1.702 0 3.1-.567t3.263-2.067 5.937-5.512 5.796-6.099q1.722-2.088 2.512-3.607t.791-2.776q0-1.014-.811-1.642-.81-.627-2.31-.749l.446-1.986h17.386l-.446 1.986q-1.621.243-3.668 1.682-2.046 1.438-6.261 5.613l-15.725 15.319 8.633 20.75q1.337 3.201 2.208 4.62.872 1.418 2.088 2.249 1.215.831 2.999 1.115l-.446 1.986H556.07l.446-1.986q2.189-.203 2.189-1.945 0-1.095-.446-2.493a41 41 0 0 0-1.054-2.898l-5.269-12.887q-.931-2.31-1.621-3.242-.688-.933-1.459-1.297-.77-.365-2.391-.365h-2.269l-3.364 15.319q-.527 2.432-.689 3.83a22 22 0 0 0-.162 2.493q0 1.823.912 2.573t3.06.912l-.446 1.986h-16.211l.446-1.986q1.539-.244 2.31-.79.77-.548 1.297-1.52.527-.973.972-2.371.446-1.399 1.338-5.41l6.889-31.206q.892-4.053.892-6.525 0-1.905-.953-2.655-.952-.75-3.019-.871Z"/><text x="527.296" y="569.279" fill-opacity="0" font-family="Arial,Arial_MSFontService,sans-serif" font-size="55.32">๐พ</text><path fill="#d74514" d="M1372 384h432v325h-432z"/><text fill="#fff" font-family="Microsoft YaHei,Microsoft YaHei_MSFontService,sans-serif" font-size="83" font-weight="700" transform="translate(1507.07 527)">DES<tspan x="-1.444" y="99">ๅๅฏ</tspan></text><path d="m1592.08 232.468.77 110.927-9.17.063-.76-110.926Zm19.07 106.217-22.6 45.99-23.23-45.674Z"/><path fill-rule="evenodd" d="M1564.42 142.739c-1.67 0-3.43.04-5.26.121l-5.52 24.56h4.22q4.905 0 7.92-1.014c2.02-.675 3.66-1.722 4.95-3.14 1.28-1.419 2.27-3.101 2.98-5.046q1.05-2.918 1.05-6.403c0-3.134-.8-5.431-2.39-6.89-1.6-1.459-4.24-2.188-7.95-2.188m-16.98-3.567h17.88q4.815 0 7.92.75c2.07.5 3.77 1.27 5.11 2.31q1.995 1.56 3 3.951.99 2.391.99 5.553 0 6.078-2.88 10.537-2.88 4.458-7.8 6.565c-3.28 1.405-7.22 2.108-11.81 2.108-2.76 0-5.06-.054-6.89-.163l-2.6 11.915c-.24 1.108-.41 1.959-.5 2.554-.1.594-.18 1.236-.25 1.925s-.1 1.303-.1 1.844c0 .837.14 1.493.41 1.965.27.473.67.818 1.21 1.034s1.47.378 2.8.486l-.45 1.986h-16.65l.44-1.986q1.545-.243 2.31-.79c.51-.365.95-.872 1.3-1.52s.67-1.439.97-2.371.74-2.735 1.34-5.41l6.89-31.206c.59-2.702.89-4.837.89-6.404q0-1.985-.93-2.755c-.62-.514-1.64-.811-3.04-.892Z"/><text x="1536.83" y="187.577" fill-opacity="0" font-family="Arial,Arial_MSFontService,sans-serif" font-size="55.32">๐</text><path fill-rule="evenodd" d="M1594.42 172.764c2.06 0 3.83.233 5.29.7 1.45.467 2.64 1.097 3.55 1.891a6.86 6.86 0 0 1 1.99 2.86c.4 1.112.61 2.313.61 3.604 0 .774-.06 1.494-.17 2.159a9.3 9.3 0 0 1-.56 1.966c-.27.645-.62 1.296-1.06 1.951s-.98 1.35-1.64 2.085c-.5.635-1.14 1.37-1.94 2.204-.79.834-1.66 1.727-2.6 2.681q-1.41 1.429-2.97 2.978a212 212 0 0 0-3 3.068 61 61 0 0 0-2.68 2.949c-.82.953-1.48 1.826-2 2.621h11.02c.93 0 1.68-.035 2.23-.105.56-.069 1.02-.223 1.39-.461s.68-.601.94-1.087c.26-.487.55-1.157.89-2.011h2.77c-.1 1.41-.19 2.83-.28 4.259s-.19 2.85-.28 4.26h-25.23v-1.549c.47-1.072 1.03-2.13 1.67-3.172.63-1.043 1.35-2.1 2.14-3.172a48 48 0 0 1 2.71-3.321 76 76 0 0 1 3.37-3.56c1.86-1.866 3.38-3.46 4.55-4.78s2.1-2.497 2.77-3.53c.68-1.032 1.14-1.985 1.39-2.859s.37-1.807.37-2.8c0-1.013-.14-1.946-.43-2.8s-.7-1.578-1.24-2.174q-.795-.894-2.04-1.4c-.82-.338-1.77-.506-2.84-.506q-2.775 0-4.65 1.504c-1.25 1.003-2.22 2.457-2.92 4.363h-3.9v-5.808c2.54-1.052 4.88-1.817 7.01-2.293 2.14-.477 4.06-.715 5.77-.715"/><text x="1580.69" y="206.514" fill-opacity="0" font-family="Arial,Arial_MSFontService,sans-serif" font-size="38.572">2</text><path fill-rule="evenodd" d="M1567.85 926.669c2.46 0 4.73.148 6.83.445q3.135.447 6.99 1.621l-2.43 10.983h-3.9q-.315-4.985-2.16-7.193-1.845-2.21-5.94-2.209c-3.73 0-7.19 1.864-10.4 5.593q-4.8 5.592-7.59 14.772c-1.87 6.12-2.8 11.8-2.8 17.042q0 6.16 2.19 9.078t6.72 2.918q3.045 0 5.31-.912 2.28-.912 4.26-3.08t3.93-6.059h3.89l-2.47 11.51c-5.05 1.405-10.35 2.107-15.89 2.107-5.08 0-8.94-1.459-11.59-4.377s-3.97-7.187-3.97-12.806q0-5.958 2.13-13.739c1.42-5.188 3.42-9.74 6.02-13.658 2.59-3.917 5.66-6.903 9.2-8.956 3.53-2.054 7.43-3.08 11.67-3.08"/><text x="1538.83" y="976.208" fill-opacity="0" font-family="Arial,Arial_MSFontService,sans-serif" font-size="56.617">๐ถ</text><path fill-rule="evenodd" d="M1595.58 960.909q3.09 0 5.28.7c1.46.466 2.65 1.097 3.56 1.891a6.74 6.74 0 0 1 1.98 2.859c.41 1.112.61 2.314.61 3.605 0 .774-.05 1.494-.16 2.159q-.165.997-.57 1.966c-.26.645-.62 1.295-1.05 1.951-.44.655-.99 1.35-1.64 2.085-.5.635-1.14 1.37-1.94 2.204-.79.834-1.66 1.727-2.6 2.68l-2.97 2.979a275 275 0 0 0-3.01 3.068 74 74 0 0 0-2.68 2.949c-.81.953-1.48 1.826-1.99 2.621h11.02c.93 0 1.68-.035 2.23-.105.56-.069 1.02-.223 1.39-.461.36-.239.68-.601.93-1.087q.39-.73.9-2.011h2.77c-.1 1.41-.2 2.83-.28 4.259-.09 1.43-.19 2.85-.29 4.26h-25.23v-1.549c.48-1.073 1.04-2.13 1.67-3.172.64-1.043 1.35-2.1 2.15-3.172.79-1.073 1.69-2.18 2.71-3.322a81 81 0 0 1 3.36-3.559q2.805-2.8 4.56-4.78c1.17-1.321 2.1-2.497 2.77-3.53.68-1.032 1.14-1.986 1.39-2.859.24-.874.37-1.807.37-2.8 0-1.013-.15-1.946-.43-2.8-.29-.854-.7-1.579-1.24-2.174q-.81-.894-2.04-1.4c-.82-.338-1.77-.506-2.84-.506q-2.775 0-4.65 1.504c-1.25 1.002-2.23 2.457-2.92 4.363h-3.9v-5.808c2.54-1.052 4.88-1.817 7.01-2.293 2.14-.477 4.06-.715 5.77-.715"/><text x="1581.84" y="994.659" fill-opacity="0" font-family="Arial,Arial_MSFontService,sans-serif" font-size="38.572">2</text><path d="m1583.967 709.473-.807 135.667 9.167.055.806-135.668Zm-19.113 130.975 22.644 45.969 23.189-45.697ZM1283.5 542.917h48.13v9.167l-48.13-.001Zm43.54-18.333 45.84 22.916-45.84 22.917Z"/><path fill-rule="evenodd" d="M1212.54 520.874h16.21l-.45 1.986c-1.02.216-1.76.459-2.21.729-.44.27-.84.676-1.19 1.216s-.72 1.385-1.1 2.533c-.37 1.148-.85 3.019-1.41 5.613l-2.88 12.928h1.34c1.13 0 2.16-.189 3.1-.567.93-.378 2.02-1.067 3.26-2.067q1.86-1.5 5.94-5.512 4.065-4.013 5.79-6.099c1.15-1.392 1.99-2.594 2.51-3.607.53-1.013.79-1.939.79-2.776q0-1.014-.81-1.642t-2.31-.749l.45-1.986h17.39l-.45 1.986c-1.08.162-2.3.722-3.67 1.682-1.36.959-3.45 2.83-6.26 5.613l-15.72 15.319 8.63 20.75c.89 2.134 1.63 3.674 2.21 4.62s1.27 1.695 2.08 2.249q1.215.831 3 1.115l-.44 1.986h-15.65l.45-1.986q2.19-.203 2.19-1.945 0-1.095-.45-2.493c-.29-.932-.65-1.898-1.05-2.898l-5.27-12.887q-.93-2.31-1.62-3.242c-.46-.622-.95-1.054-1.46-1.297s-1.31-.365-2.39-.365h-2.27l-3.36 15.319q-.54 2.432-.69 3.83c-.11.932-.17 1.763-.17 2.493 0 1.215.31 2.073.92 2.573q.9.75 3.06.912l-.45 1.986h-16.21l.45-1.986q1.53-.244 2.31-.79.765-.548 1.29-1.52c.35-.649.68-1.439.97-2.371.3-.932.75-2.736 1.34-5.41l6.89-31.206c.6-2.702.89-4.877.89-6.525 0-1.27-.31-2.155-.95-2.655-.63-.5-1.64-.79-3.02-.871Z"/><text x="1201.92" y="569.279" fill-opacity="0" font-family="Arial,Arial_MSFontService,sans-serif" font-size="55.32">๐พ</text><path fill="#d74514" d="M2327 384h432v325h-432z"/><text fill="#fff" font-family="Microsoft YaHei,Microsoft YaHei_MSFontService,sans-serif" font-size="83" font-weight="700" transform="translate(2461.82 527)">DES<tspan x="-1.444" y="99">ๅๅฏ</tspan></text><path d="m2547.08 232.468.77 110.927-9.17.063-.76-110.926Zm19.07 106.217-22.6 45.99-23.23-45.674Z"/><path fill-rule="evenodd" d="M2513.32 142.739c-1.68 0-3.43.04-5.27.121l-5.51 24.56h4.21c3.27 0 5.91-.338 7.93-1.014 2.01-.675 3.66-1.722 4.94-3.14s2.28-3.101 2.98-5.046q1.05-2.918 1.05-6.403c0-3.134-.79-5.431-2.39-6.89-1.59-1.459-4.24-2.188-7.94-2.188m-16.98-3.567h17.87q4.83 0 7.92.75c2.07.5 3.77 1.27 5.11 2.31a9.5 9.5 0 0 1 3 3.951q.99 2.391.99 5.553 0 6.078-2.88 10.537-2.865 4.458-7.8 6.565c-3.28 1.405-7.22 2.108-11.81 2.108-2.76 0-5.05-.054-6.89-.163l-2.59 11.915q-.375 1.662-.51 2.554c-.09.594-.18 1.236-.24 1.925-.07.689-.1 1.303-.1 1.844 0 .837.13 1.493.4 1.965.27.473.68.818 1.22 1.034q.81.324 2.79.486l-.44 1.986h-16.66l.45-1.986q1.53-.243 2.31-.79.765-.548 1.29-1.52c.35-.648.68-1.439.98-2.371.29-.932.74-2.735 1.33-5.41l6.89-31.206c.6-2.702.89-4.837.89-6.404q0-1.985-.93-2.755c-.62-.514-1.63-.811-3.04-.892Z"/><text x="2485.72" y="187.577" fill-opacity="0" font-family="Arial,Arial_MSFontService,sans-serif" font-size="55.32">๐</text><path fill-rule="evenodd" d="M2534.79 172.704h10.28c.93 2.482 1.89 4.979 2.87 7.491a643 643 0 0 1 2.91 7.521c.95 2.502 1.87 4.969 2.75 7.402q1.335 3.648 2.43 7.133h.39c.22-1.271.49-2.775.83-4.512.34-1.738.74-3.54 1.19-5.406.34-1.41.68-2.86 1.03-4.349s.67-2.919.97-4.289.54-2.636.73-3.798.28-2.119.28-2.874c0-.873-.22-1.494-.67-1.861-.45-.368-1.27-.561-2.49-.581l.42-1.877h11.05l-.39 1.787c-.67.199-1.21.373-1.6.522q-.6.224-1.02.863c-.27.427-.54 1.048-.79 1.862a51 51 0 0 0-.87 3.515l-6.74 30.083h-4.49a801 801 0 0 0-3.24-8.161q-1.65-4.111-3.24-8.221a360 360 0 0 1-3.05-8.161c-.98-2.701-1.86-5.362-2.66-7.983h-.38q-.15.924-.36 2.145c-.14.814-.29 1.693-.46 2.636q-.255 1.415-.54 2.904c-.19.993-.38 1.986-.58 2.978-.18.755-.39 1.634-.64 2.636s-.5 2.075-.76 3.217-.52 2.299-.79 3.47-.51 2.289-.73 3.351-.39 2.03-.52 2.904-.19 1.559-.19 2.055c0 .834.24 1.425.71 1.772.48.348 1.29.561 2.44.641l-.32 1.817h-11.11l.38-1.817c.6-.099 1.1-.219 1.49-.358q.6-.209 1.05-.849c.29-.426.58-1.067.85-1.921.26-.853.57-2.055.9-3.604l4.89-21.713c.18-.794.31-1.534.4-2.219s.13-1.296.13-1.832c0-.873-.22-1.494-.68-1.861-.46-.368-1.29-.561-2.5-.581Z"/><text x="2527.44" y="206.507" fill-opacity="0" font-family="Arial,Arial_MSFontService,sans-serif" font-size="38.631">๐</text><path fill-rule="evenodd" d="M2516.74 926.669c2.46 0 4.74.148 6.83.445q3.135.447 6.99 1.621l-2.43 10.983h-3.89c-.22-3.323-.94-5.721-2.17-7.193q-1.845-2.21-5.94-2.209c-3.72 0-7.19 1.864-10.39 5.593s-5.74 8.652-7.6 14.772-2.8 11.8-2.8 17.042q0 6.16 2.19 9.078c1.46 1.945 3.7 2.918 6.73 2.918q3.045 0 5.31-.912c1.51-.608 2.93-1.635 4.25-3.08q1.995-2.168 3.93-6.059h3.9l-2.48 11.51c-5.05 1.405-10.34 2.107-15.88 2.107-5.08 0-8.95-1.459-11.59-4.377-2.65-2.918-3.98-7.187-3.98-12.806q0-5.958 2.13-13.739c1.42-5.188 3.43-9.74 6.02-13.658s5.66-6.903 9.2-8.956q5.31-3.08 11.67-3.08"/><text x="2487.72" y="976.208" fill-opacity="0" font-family="Arial,Arial_MSFontService,sans-serif" font-size="56.617">๐ถ</text><path fill-rule="evenodd" d="M2535.95 960.849h10.28c.93 2.482 1.89 4.979 2.87 7.491q1.47 3.768 2.91 7.521c.95 2.502 1.87 4.969 2.75 7.402q1.32 3.648 2.43 7.133h.39c.21-1.271.49-2.775.83-4.512.34-1.738.73-3.54 1.19-5.406.34-1.41.68-2.86 1.03-4.349s.67-2.919.97-4.289c.29-1.37.54-2.636.73-3.798.18-1.161.28-2.119.28-2.874 0-.874-.22-1.494-.67-1.861q-.675-.552-2.49-.581l.42-1.877h11.05l-.39 1.787c-.67.199-1.21.373-1.61.522-.39.149-.73.436-1.01.863s-.54 1.048-.79 1.862-.54 1.986-.88 3.515l-6.73 30.083h-4.5a808 808 0 0 0-3.23-8.162q-1.65-4.11-3.24-8.22a361 361 0 0 1-3.06-8.161c-.97-2.701-1.85-5.362-2.65-7.983h-.39a90 90 0 0 1-.35 2.145c-.14.814-.3 1.693-.46 2.636q-.255 1.414-.54 2.904c-.19.993-.38 1.985-.58 2.978-.18.755-.39 1.634-.64 2.636s-.5 2.075-.76 3.217-.52 2.298-.79 3.47-.51 2.289-.73 3.351-.39 2.03-.52 2.904-.2 1.559-.2 2.055q0 1.251.72 1.772c.48.348 1.29.561 2.44.641l-.33 1.817h-11.11l.39-1.817c.6-.1 1.09-.219 1.49-.358s.75-.422 1.04-.849c.3-.427.58-1.067.85-1.921s.57-2.055.91-3.604l4.89-21.713c.17-.794.31-1.534.4-2.219s.13-1.296.13-1.832c0-.874-.23-1.494-.68-1.861-.46-.368-1.29-.561-2.51-.581Z"/><text x="2528.59" y="994.652" fill-opacity="0" font-family="Arial,Arial_MSFontService,sans-serif" font-size="38.631">๐</text><path d="m2538.967 709.473-.807 135.667 9.167.055.806-135.668Zm-19.113 130.975 22.644 45.969 23.189-45.697ZM2237.5 542.917h48.12v9.167l-48.12-.001Zm43.54-18.333 45.84 22.916-45.84 22.917Z"/><path fill-rule="evenodd" d="M2167.29 520.874h16.21l-.45 1.986c-1.02.216-1.76.459-2.21.729-.44.27-.84.676-1.19 1.216s-.72 1.385-1.1 2.533c-.37 1.148-.85 3.019-1.41 5.613l-2.88 12.928h1.34c1.13 0 2.16-.189 3.1-.567.93-.378 2.02-1.067 3.26-2.067q1.86-1.5 5.94-5.512 4.065-4.013 5.79-6.099c1.15-1.392 1.99-2.594 2.51-3.607.53-1.013.79-1.939.79-2.776q0-1.014-.81-1.642t-2.31-.749l.45-1.986h17.39l-.45 1.986c-1.08.162-2.3.722-3.67 1.682-1.36.959-3.45 2.83-6.26 5.613l-15.72 15.319 8.63 20.75c.89 2.134 1.63 3.674 2.21 4.62s1.27 1.695 2.08 2.249q1.215.831 3 1.115l-.44 1.986h-15.65l.45-1.986q2.19-.203 2.19-1.945 0-1.095-.45-2.493t-1.05-2.898l-5.27-12.887q-.93-2.31-1.62-3.242c-.46-.622-.95-1.054-1.46-1.297s-1.31-.365-2.39-.365h-2.27l-3.36 15.319q-.54 2.432-.69 3.83c-.11.932-.17 1.763-.17 2.493 0 1.215.31 2.073.92 2.573q.9.75 3.06.912l-.45 1.986h-16.21l.44-1.986q1.545-.244 2.31-.79c.52-.365.95-.872 1.3-1.52.35-.649.68-1.439.97-2.371.3-.932.75-2.736 1.34-5.41l6.89-31.206c.6-2.702.89-4.877.89-6.525 0-1.27-.31-2.155-.95-2.655-.63-.5-1.64-.79-3.02-.871Z"/><text x="2156.67" y="569.279" fill-opacity="0" font-family="Arial,Arial_MSFontService,sans-serif" font-size="55.32">๐พ</text><path fill-rule="evenodd" d="M1997.16 547.257c1.4 0 2.58.493 3.52 1.479.95.987 1.42 2.236 1.42 3.749s-.47 2.763-1.42 3.749c-.94.986-2.12 1.479-3.52 1.479-1.41 0-2.58-.493-3.53-1.479-.94-.986-1.42-2.236-1.42-3.749s.48-2.762 1.42-3.749c.95-.986 2.12-1.479 3.53-1.479m-24.56 0c1.4 0 2.58.493 3.52 1.479.95.987 1.42 2.236 1.42 3.749s-.47 2.763-1.42 3.749c-.94.986-2.12 1.479-3.52 1.479-1.41 0-2.58-.493-3.53-1.479-.94-.986-1.42-2.236-1.42-3.749s.48-2.762 1.42-3.749c.95-.986 2.12-1.479 3.53-1.479m-24.56 0c1.4 0 2.58.493 3.52 1.479.95.987 1.42 2.236 1.42 3.749s-.47 2.763-1.42 3.749c-.94.986-2.12 1.479-3.52 1.479-1.41 0-2.58-.493-3.53-1.479-.94-.986-1.42-2.236-1.42-3.749s.48-2.762 1.42-3.749c.95-.986 2.12-1.479 3.53-1.479"/><text x="1943.09" y="556.406" fill-opacity="0" font-family="Arial,Arial_MSFontService,sans-serif" font-size="10.456">โฏ</text><path fill="#d74514" d="M697 1315h433v326H697z"/><text fill="#fff" font-family="Microsoft YaHei,Microsoft YaHei_MSFontService,sans-serif" font-size="83" font-weight="700" transform="translate(832.447 1458)">DES<tspan x="-1.444" y="99">่งฃๅฏ</tspan></text><path d="m909.563 1641.445-1.155 97.1 9.166.109 1.155-97.1Zm-19.433 92.299 22.37 46.102 23.46-45.557Z"/><path fill-rule="evenodd" d="M890.158 1823.42q-2.512 0-5.268.12l-5.512 24.56h4.215q4.904 0 7.923-1.02c2.013-.67 3.661-1.72 4.944-3.14q1.926-2.13 2.979-5.04c.702-1.95 1.054-4.08 1.054-6.41 0-3.13-.797-5.43-2.391-6.89s-4.242-2.18-7.944-2.18m-16.981-3.57h17.873q4.822 0 7.923.75t5.106 2.31a9.6 9.6 0 0 1 2.999 3.95c.662 1.59.993 3.45.993 5.55 0 4.06-.959 7.57-2.877 10.54q-2.877 4.455-7.802 6.57-4.923 2.1-11.813 2.1c-2.756 0-5.053-.05-6.89-.16l-2.594 11.92q-.365 1.65-.506 2.55-.142.885-.244 1.92c-.067.69-.101 1.31-.101 1.85 0 .84.135 1.49.405 1.96.271.48.676.82 1.216 1.04q.811.315 2.797.48l-.446 1.99h-16.657l.446-1.99c1.027-.16 1.797-.42 2.31-.79.513-.36.946-.87 1.297-1.52q.527-.975.972-2.37c.298-.93.743-2.73 1.338-5.41l6.89-31.2c.594-2.71.891-4.84.891-6.41 0-1.32-.311-2.24-.932-2.75-.621-.52-1.635-.81-3.04-.9Z"/><text x="862.559" y="1868.25" fill-opacity="0" font-family="Arial,Arial_MSFontService,sans-serif" font-size="55.32">๐</text><path fill-rule="evenodd" d="M920.573 1853.65h1.817a221 221 0 0 0-.134 5.45c-.01.81-.015 1.62-.015 2.41v22.64c0 .61.02 1.15.059 1.59.04.45.105.83.194 1.13a2.62 2.62 0 0 0 .879 1.36c.238.24.556.42.953.55q.595.195 1.519.33t2.219.21c.863.05 1.901.08 3.112.1v2.59h-23.619v-2.59c1.171-.04 2.164-.08 2.978-.13a23 23 0 0 0 2.085-.21 10 10 0 0 0 1.385-.3c.348-.11.65-.24.909-.4.278-.18.516-.37.714-.58.199-.21.358-.47.477-.79s.213-.71.283-1.16c.069-.46.104-1.03.104-1.7v-21.36c0-.77-.149-1.32-.447-1.63q-.446-.48-1.28-.48c-.616 0-1.529.32-2.741.95-1.211.64-2.78 1.58-4.706 2.83-.258-.46-.496-.91-.714-1.37-.219-.46-.447-.92-.686-1.4 2.463-1.35 4.9-2.69 7.313-4.03s4.86-2.68 7.342-4.01"/><text x="905.918" y="1887.22" fill-opacity="0" font-family="Arial,Arial_MSFontService,sans-serif" font-size="38.363">1</text><path fill-rule="evenodd" d="M893.581 1073.6c2.458 0 4.735.15 6.828.44q3.141.45 6.991 1.62l-2.431 10.99h-3.891c-.216-3.33-.939-5.72-2.168-7.2-1.229-1.47-3.208-2.21-5.937-2.21-3.729 0-7.194 1.87-10.396 5.6-3.201 3.73-5.734 8.65-7.598 14.77q-2.797 9.18-2.797 17.04c0 4.11.73 7.13 2.189 9.08 1.459 1.94 3.701 2.92 6.727 2.92 2.027 0 3.796-.31 5.309-.91 1.513-.61 2.932-1.64 4.256-3.08q1.986-2.175 3.931-6.06h3.89l-2.472 11.51q-7.578 2.1-15.886 2.1c-5.08 0-8.944-1.45-11.591-4.37q-3.972-4.38-3.972-12.81 0-5.955 2.128-13.74c1.418-5.19 3.424-9.74 6.018-13.66 2.594-3.91 5.66-6.9 9.2-8.95 3.539-2.06 7.43-3.08 11.672-3.08"/><text x="864.563" y="1123.14" fill-opacity="0" font-family="Arial,Arial_MSFontService,sans-serif" font-size="56.617">๐ถ</text><path fill-rule="evenodd" d="M921.73 1108.05h1.817a219 219 0 0 0-.149 7.86v22.64q0 .915.06 1.59c.039.45.104.82.193 1.13s.209.57.358.79q.223.33.521.57c.238.23.556.42.953.55q.596.195 1.519.33c.616.08 1.355.15 2.219.2s1.901.09 3.113.11v2.59h-23.62v-2.59c1.172-.04 2.164-.09 2.979-.14.814-.05 1.509-.12 2.085-.2a10 10 0 0 0 1.385-.3c.347-.11.65-.25.908-.4.278-.18.516-.38.715-.59.198-.2.357-.47.476-.78q.18-.48.283-1.17c.07-.45.105-1.02.105-1.69v-21.36c0-.77-.149-1.32-.447-1.64s-.725-.47-1.281-.47c-.615 0-1.529.31-2.74.95-1.211.63-2.78 1.58-4.706 2.83-.258-.46-.497-.92-.715-1.37a64 64 0 0 0-.685-1.4c2.462-1.35 4.9-2.7 7.312-4.04s4.86-2.67 7.342-4"/><text x="907.076" y="1141.61" fill-opacity="0" font-family="Arial,Arial_MSFontService,sans-serif" font-size="38.363">1</text><path d="M608.5 1473.92h48.125v9.16H608.5Zm43.542-18.34 45.833 22.92-45.833 22.92Z"/><path fill-rule="evenodd" d="M537.914 1451.98h16.211l-.446 1.98c-1.027.22-1.763.46-2.209.73-.445.27-.844.68-1.195 1.22s-.716 1.38-1.094 2.53q-.568 1.725-1.419 5.61l-2.877 12.93h1.337q1.702 0 3.1-.57c.933-.37 2.02-1.06 3.263-2.06s3.222-2.84 5.937-5.51c2.715-2.68 4.647-4.71 5.796-6.1 1.148-1.4 1.985-2.6 2.512-3.61s.791-1.94.791-2.78c0-.67-.271-1.22-.811-1.64q-.81-.63-2.31-.75l.446-1.98h17.386l-.446 1.98q-1.621.24-3.668 1.68c-1.364.96-3.451 2.83-6.261 5.62l-15.725 15.32 8.633 20.75q1.337 3.195 2.208 4.62.872 1.41 2.088 2.25 1.215.825 2.999 1.11l-.446 1.99H556.07l.446-1.99q2.189-.195 2.189-1.95c0-.72-.149-1.56-.446-2.49a41 41 0 0 0-1.054-2.9l-5.269-12.88c-.621-1.54-1.161-2.62-1.621-3.25q-.688-.93-1.459-1.29c-.513-.25-1.31-.37-2.391-.37h-2.269l-3.364 15.32c-.351 1.62-.581 2.9-.689 3.83s-.162 1.77-.162 2.49q0 1.83.912 2.58c.608.5 1.628.8 3.06.91l-.446 1.99h-16.211l.446-1.99c1.026-.16 1.796-.43 2.31-.79.513-.36.945-.87 1.297-1.52q.527-.975.972-2.37c.297-.93.743-2.74 1.338-5.41l6.889-31.21c.595-2.7.892-4.87.892-6.52 0-1.27-.318-2.16-.953-2.66q-.952-.75-3.019-.87Z"/><text x="527.296" y="1500.38" fill-opacity="0" font-family="Arial,Arial_MSFontService,sans-serif" font-size="55.32">๐พ</text><path fill="#d74514" d="M1372 1315h432v326h-432z"/><text fill="#fff" font-family="Microsoft YaHei,Microsoft YaHei_MSFontService,sans-serif" font-size="83" font-weight="700" transform="translate(1507.07 1458)">DES<tspan x="-1.444" y="99">่งฃๅฏ</tspan></text><path fill-rule="evenodd" d="M1563.83 1823.42c-1.67 0-3.43.04-5.27.12l-5.51 24.56h4.22c3.26 0 5.91-.34 7.92-1.02 2.01-.67 3.66-1.72 4.94-3.14 1.29-1.42 2.28-3.1 2.98-5.04.7-1.95 1.06-4.08 1.06-6.41 0-3.13-.8-5.43-2.4-6.89-1.59-1.46-4.24-2.18-7.94-2.18m-16.98-3.57h17.87c3.22 0 5.86.25 7.93.75q3.09.75 5.1 2.31a9.55 9.55 0 0 1 3 3.95c.66 1.59.99 3.45.99 5.55 0 4.06-.96 7.57-2.87 10.54q-2.88 4.455-7.8 6.57-4.935 2.1-11.82 2.1c-2.75 0-5.05-.05-6.89-.16l-2.59 11.92c-.25 1.1-.41 1.95-.51 2.55q-.135.885-.24 1.92c-.07.69-.1 1.31-.1 1.85 0 .84.13 1.49.4 1.96.27.48.68.82 1.22 1.04q.81.315 2.79.48l-.44 1.99h-16.66l.45-1.99c1.02-.16 1.79-.42 2.31-.79.51-.36.94-.87 1.29-1.52.36-.65.68-1.44.98-2.37.29-.93.74-2.73 1.33-5.41l6.89-31.2c.6-2.71.9-4.84.9-6.41 0-1.32-.31-2.24-.94-2.75-.62-.52-1.63-.81-3.04-.9Z"/><text x="1536.23" y="1868.25" fill-opacity="0" font-family="Arial,Arial_MSFontService,sans-serif" font-size="55.32">๐</text><path fill-rule="evenodd" d="M1593.82 1853.44c2.07 0 3.83.23 5.29.7s2.65 1.1 3.56 1.89c.91.8 1.57 1.75 1.98 2.86s.61 2.31.61 3.61c0 .77-.05 1.49-.16 2.15-.11.67-.3 1.33-.57 1.97-.27.65-.62 1.3-1.06 1.95-.43.66-.98 1.35-1.63 2.09-.5.63-1.15 1.37-1.94 2.2s-1.66 1.73-2.61 2.68c-.94.95-1.93 1.95-2.96 2.98s-2.03 2.06-3.01 3.07c-.97 1.01-1.86 1.99-2.68 2.95-.81.95-1.48 1.82-1.99 2.62h11.02c.93 0 1.67-.04 2.23-.11s1.02-.22 1.39-.46c.36-.24.68-.6.93-1.09q.39-.72.9-2.01h2.77c-.1 1.41-.2 2.83-.29 4.26-.08 1.43-.18 2.85-.28 4.26h-25.23v-1.55c.48-1.07 1.04-2.13 1.67-3.17.64-1.04 1.35-2.1 2.15-3.17.79-1.07 1.69-2.18 2.71-3.32 1.01-1.14 2.13-2.33 3.36-3.56 1.87-1.87 3.39-3.46 4.56-4.78s2.09-2.5 2.77-3.53c.67-1.03 1.14-1.99 1.38-2.86.25-.87.38-1.81.38-2.8 0-1.01-.15-1.95-.44-2.8-.28-.85-.7-1.58-1.23-2.17-.54-.6-1.22-1.07-2.04-1.4-.83-.34-1.77-.51-2.85-.51-1.84 0-3.39.5-4.64 1.5-1.25 1.01-2.23 2.46-2.92 4.37h-3.9v-5.81c2.54-1.05 4.88-1.82 7.01-2.29q3.21-.72 5.76-.72"/><text x="1580.09" y="1887.19" fill-opacity="0" font-family="Arial,Arial_MSFontService,sans-serif" font-size="38.572">2</text><path fill-rule="evenodd" d="M1567.25 1073.6c2.46 0 4.74.15 6.83.44q3.15.45 6.99 1.62l-2.43 10.99h-3.89c-.22-3.33-.94-5.72-2.17-7.2-1.23-1.47-3.21-2.21-5.93-2.21-3.73 0-7.2 1.87-10.4 5.6s-5.73 8.65-7.6 14.77c-1.86 6.12-2.8 11.8-2.8 17.04 0 4.11.73 7.13 2.19 9.08 1.46 1.94 3.7 2.92 6.73 2.92 2.03 0 3.8-.31 5.31-.91 1.51-.61 2.93-1.64 4.26-3.08q1.98-2.175 3.93-6.06h3.89l-2.48 11.51c-5.05 1.4-10.34 2.1-15.88 2.1-5.08 0-8.94-1.45-11.59-4.37s-3.97-7.19-3.97-12.81c0-3.97.7-8.55 2.12-13.74s3.43-9.74 6.02-13.66c2.6-3.91 5.66-6.9 9.2-8.95 3.54-2.06 7.43-3.08 11.67-3.08"/><text x="1538.24" y="1123.14" fill-opacity="0" font-family="Arial,Arial_MSFontService,sans-serif" font-size="56.617">๐ถ</text><path fill-rule="evenodd" d="M1594.98 1107.84c2.07 0 3.83.23 5.29.7 1.46.46 2.64 1.09 3.56 1.89a6.9 6.9 0 0 1 1.98 2.86c.41 1.11.61 2.31.61 3.6 0 .78-.06 1.5-.16 2.16-.11.67-.3 1.32-.57 1.97-.27.64-.62 1.29-1.06 1.95-.43.65-.98 1.35-1.64 2.08-.49.64-1.14 1.37-1.93 2.21-.8.83-1.67 1.72-2.61 2.68-.94.95-1.93 1.94-2.96 2.98-1.03 1.03-2.04 2.05-3.01 3.06-.97 1.02-1.87 2-2.68 2.95-.82.96-1.48 1.83-2 2.62h11.02c.94 0 1.68-.03 2.24-.1.55-.07 1.02-.22 1.38-.46.37-.24.68-.6.94-1.09s.56-1.16.89-2.01h2.77c-.09 1.41-.19 2.83-.28 4.26s-.18 2.85-.28 4.26h-25.23v-1.55c.48-1.07 1.03-2.13 1.67-3.17a42 42 0 0 1 2.14-3.17c.8-1.08 1.7-2.18 2.71-3.32 1.02-1.15 2.14-2.33 3.37-3.56 1.87-1.87 3.38-3.46 4.56-4.78 1.17-1.33 2.09-2.5 2.77-3.53.67-1.04 1.13-1.99 1.38-2.86.25-.88.37-1.81.37-2.8 0-1.02-.14-1.95-.43-2.8-.29-.86-.7-1.58-1.23-2.18-.54-.59-1.22-1.06-2.04-1.4-.83-.33-1.78-.5-2.85-.5-1.85 0-3.39.5-4.65 1.5-1.25 1-2.22 2.46-2.91 4.36h-3.91v-5.8c2.55-1.06 4.88-1.82 7.02-2.3 2.13-.47 4.05-.71 5.76-.71"/><text x="1581.25" y="1141.59" fill-opacity="0" font-family="Arial,Arial_MSFontService,sans-serif" font-size="38.572">2</text><path d="M1283.5 1473.92h48.13v9.16h-48.13Zm43.54-18.34 45.84 22.92-45.84 22.92Z"/><path fill-rule="evenodd" d="M1212.54 1451.98h16.21l-.45 1.98c-1.02.22-1.76.46-2.21.73-.44.27-.84.68-1.19 1.22s-.72 1.38-1.1 2.53c-.37 1.15-.85 3.02-1.41 5.61l-2.88 12.93h1.34c1.13 0 2.16-.19 3.1-.57.93-.37 2.02-1.06 3.26-2.06s3.22-2.84 5.94-5.51c2.71-2.68 4.64-4.71 5.79-6.1 1.15-1.4 1.99-2.6 2.51-3.61.53-1.01.79-1.94.79-2.78 0-.67-.27-1.22-.81-1.64q-.81-.63-2.31-.75l.45-1.98h17.39l-.45 1.98c-1.08.16-2.3.72-3.67 1.68-1.36.96-3.45 2.83-6.26 5.62l-15.72 15.32 8.63 20.75c.89 2.13 1.63 3.67 2.21 4.62.58.94 1.27 1.69 2.08 2.25q1.215.825 3 1.11l-.44 1.99h-15.65l.45-1.99q2.19-.195 2.19-1.95c0-.72-.15-1.56-.45-2.49-.29-.93-.65-1.9-1.05-2.9l-5.27-12.88c-.62-1.54-1.16-2.62-1.62-3.25-.46-.62-.95-1.05-1.46-1.29-.51-.25-1.31-.37-2.39-.37h-2.27l-3.36 15.32c-.36 1.62-.59 2.9-.69 3.83-.11.93-.17 1.77-.17 2.49 0 1.22.31 2.08.92 2.58.6.5 1.62.8 3.06.91l-.45 1.99h-16.21l.45-1.99c1.02-.16 1.79-.43 2.31-.79.51-.36.94-.87 1.29-1.52s.68-1.44.97-2.37c.3-.93.75-2.74 1.34-5.41l6.89-31.21c.6-2.7.89-4.87.89-6.52 0-1.27-.31-2.16-.95-2.66-.63-.5-1.64-.79-3.02-.87Z"/><text x="1201.92" y="1500.38" fill-opacity="0" font-family="Arial,Arial_MSFontService,sans-serif" font-size="55.32">๐พ</text><path fill="#d74514" d="M2327 1315h432v326h-432z"/><text fill="#fff" font-family="Microsoft YaHei,Microsoft YaHei_MSFontService,sans-serif" font-size="83" font-weight="700" transform="translate(2461.82 1458)">DES<tspan x="-1.444" y="99">่งฃๅฏ</tspan></text><path fill-rule="evenodd" d="M2512.73 1823.42c-1.68 0-3.44.04-5.27.12l-5.51 24.56h4.21q4.905 0 7.92-1.02c2.02-.67 3.66-1.72 4.95-3.14 1.28-1.42 2.27-3.1 2.98-5.04.7-1.95 1.05-4.08 1.05-6.41 0-3.13-.8-5.43-2.39-6.89-1.6-1.46-4.24-2.18-7.94-2.18m-16.99-3.57h17.88q4.815 0 7.92.75c2.07.5 3.77 1.27 5.11 2.31 1.33 1.04 2.33 2.36 3 3.95.66 1.59.99 3.45.99 5.55 0 4.06-.96 7.57-2.88 10.54q-2.88 4.455-7.8 6.57c-3.28 1.4-7.22 2.1-11.81 2.1-2.76 0-5.06-.05-6.89-.16l-2.6 11.92c-.24 1.1-.41 1.95-.5 2.55-.1.59-.18 1.23-.25 1.92s-.1 1.31-.1 1.85c0 .84.14 1.49.41 1.96.27.48.67.82 1.21 1.04.54.21 1.47.37 2.8.48l-.45 1.99h-16.65l.44-1.99c1.03-.16 1.8-.42 2.31-.79.52-.36.95-.87 1.3-1.52s.67-1.44.97-2.37.74-2.73 1.34-5.41l6.89-31.2c.59-2.71.89-4.84.89-6.41 0-1.32-.31-2.24-.93-2.75-.62-.52-1.64-.81-3.04-.9Z"/><text x="2485.13" y="1868.25" fill-opacity="0" font-family="Arial,Arial_MSFontService,sans-serif" font-size="55.32">๐</text><path fill-rule="evenodd" d="M2534.2 1853.38h10.28c.93 2.48 1.89 4.98 2.87 7.49s1.95 5.02 2.9 7.52c.96 2.5 1.88 4.97 2.76 7.4.88 2.44 1.69 4.81 2.43 7.14h.38c.22-1.27.5-2.78.84-4.51.34-1.74.73-3.54 1.19-5.41.34-1.41.68-2.86 1.03-4.35.34-1.49.67-2.92.97-4.29.29-1.37.54-2.63.72-3.8.19-1.16.29-2.12.29-2.87 0-.87-.23-1.49-.67-1.86-.45-.37-1.28-.56-2.49-.58l.42-1.88h11.05l-.39 1.79c-.67.2-1.21.37-1.61.52-.39.15-.73.44-1.01.86-.28.43-.54 1.05-.79 1.86-.25.82-.54 1.99-.88 3.52l-6.73 30.08h-4.5c-1.05-2.7-2.13-5.42-3.23-8.16s-2.18-5.48-3.25-8.22c-1.06-2.74-2.08-5.46-3.05-8.16s-1.86-5.36-2.65-7.98h-.39c-.1.61-.22 1.33-.35 2.14-.14.82-.3 1.69-.47 2.64-.16.94-.34 1.91-.53 2.9s-.38 1.99-.58 2.98c-.18.75-.39 1.63-.64 2.64-.25 1-.5 2.07-.76 3.21s-.52 2.3-.79 3.47-.51 2.29-.73 3.35c-.22 1.07-.39 2.03-.52 2.91-.13.87-.2 1.56-.2 2.05 0 .84.24 1.43.72 1.78.47.34 1.29.56 2.44.64l-.33 1.81h-11.11l.39-1.81c.6-.1 1.09-.22 1.49-.36s.74-.42 1.04-.85.58-1.07.85-1.92c.27-.86.57-2.06.91-3.61l4.88-21.71c.18-.79.32-1.53.41-2.22.09-.68.13-1.29.13-1.83 0-.87-.23-1.49-.68-1.86-.46-.37-1.3-.56-2.51-.58Z"/><text x="2526.84" y="1887.18" fill-opacity="0" font-family="Arial,Arial_MSFontService,sans-serif" font-size="38.631">๐</text><path fill-rule="evenodd" d="M2516.15 1073.6c2.46 0 4.73.15 6.83.44q3.135.45 6.99 1.62l-2.43 10.99h-3.89c-.22-3.33-.94-5.72-2.17-7.2-1.23-1.47-3.21-2.21-5.94-2.21-3.73 0-7.19 1.87-10.4 5.6-3.2 3.73-5.73 8.65-7.59 14.77-1.87 6.12-2.8 11.8-2.8 17.04 0 4.11.73 7.13 2.19 9.08 1.46 1.94 3.7 2.92 6.73 2.92 2.02 0 3.79-.31 5.3-.91 1.52-.61 2.94-1.64 4.26-3.08q1.98-2.175 3.93-6.06h3.89l-2.47 11.51c-5.05 1.4-10.35 2.1-15.89 2.1-5.08 0-8.94-1.45-11.59-4.37s-3.97-7.19-3.97-12.81q0-5.955 2.13-13.74c1.42-5.19 3.42-9.74 6.02-13.66 2.59-3.91 5.66-6.9 9.2-8.95 3.53-2.06 7.43-3.08 11.67-3.08"/><text x="2487.13" y="1123.14" fill-opacity="0" font-family="Arial,Arial_MSFontService,sans-serif" font-size="56.617">๐ถ</text><path fill-rule="evenodd" d="M2535.36 1107.78h10.27c.94 2.48 1.89 4.98 2.88 7.49.98 2.51 1.95 5.02 2.9 7.52s1.87 4.97 2.76 7.4c.88 2.43 1.69 4.81 2.42 7.13h.39c.22-1.27.5-2.77.84-4.51.33-1.74.73-3.54 1.19-5.4.33-1.41.68-2.86 1.02-4.35.35-1.49.67-2.92.97-4.29s.54-2.64.73-3.8.28-2.12.28-2.87c0-.88-.22-1.5-.67-1.86-.44-.37-1.27-.57-2.48-.59l.41-1.87h11.05l-.38 1.79c-.68.19-1.21.37-1.61.52s-.74.43-1.01.86c-.28.43-.54 1.05-.79 1.86-.25.82-.54 1.99-.88 3.52l-6.73 30.08h-4.5c-1.05-2.7-2.13-5.42-3.23-8.16s-2.19-5.48-3.25-8.22-2.08-5.46-3.05-8.16-1.86-5.36-2.65-7.99h-.39c-.1.62-.22 1.33-.36 2.15-.14.81-.29 1.69-.46 2.63-.17.95-.35 1.92-.53 2.91-.19.99-.39 1.98-.59 2.98-.17.75-.39 1.63-.64 2.63-.24 1.01-.5 2.08-.76 3.22-.25 1.14-.52 2.3-.78 3.47-.27 1.17-.52 2.29-.73 3.35-.22 1.06-.4 2.03-.53 2.9-.13.88-.19 1.56-.19 2.06q0 1.245.72 1.77c.47.35 1.29.56 2.44.64l-.33 1.82H2528l.39-1.82c.59-.1 1.09-.22 1.49-.36.39-.13.74-.42 1.04-.84.3-.43.58-1.07.85-1.93.27-.85.57-2.05.91-3.6l4.88-21.71c.18-.8.31-1.54.4-2.22.09-.69.14-1.3.14-1.83q0-1.32-.69-1.86c-.45-.37-1.29-.57-2.5-.59Z"/><text x="2528" y="1141.58" fill-opacity="0" font-family="Arial,Arial_MSFontService,sans-serif" font-size="38.631">๐</text><path d="M2237.5 1473.92h48.12v9.16h-48.12Zm43.54-18.34 45.84 22.92-45.84 22.92Z"/><path fill-rule="evenodd" d="M2167.29 1451.98h16.21l-.45 1.98c-1.02.22-1.76.46-2.21.73-.44.27-.84.68-1.19 1.22s-.72 1.38-1.1 2.53c-.37 1.15-.85 3.02-1.41 5.61l-2.88 12.93h1.34c1.13 0 2.16-.19 3.1-.57.93-.37 2.02-1.06 3.26-2.06s3.22-2.84 5.94-5.51c2.71-2.68 4.64-4.71 5.79-6.1 1.15-1.4 1.99-2.6 2.51-3.61.53-1.01.79-1.94.79-2.78 0-.67-.27-1.22-.81-1.64q-.81-.63-2.31-.75l.45-1.98h17.39l-.45 1.98c-1.08.16-2.3.72-3.67 1.68-1.36.96-3.45 2.83-6.26 5.62l-15.72 15.32 8.63 20.75c.89 2.13 1.63 3.67 2.21 4.62.58.94 1.27 1.69 2.08 2.25q1.215.825 3 1.11l-.44 1.99h-15.65l.45-1.99q2.19-.195 2.19-1.95c0-.72-.15-1.56-.45-2.49s-.65-1.9-1.05-2.9l-5.27-12.88c-.62-1.54-1.16-2.62-1.62-3.25-.46-.62-.95-1.05-1.46-1.29-.51-.25-1.31-.37-2.39-.37h-2.27l-3.36 15.32c-.36 1.62-.59 2.9-.69 3.83-.11.93-.17 1.77-.17 2.49 0 1.22.31 2.08.92 2.58.6.5 1.62.8 3.06.91l-.45 1.99h-16.21l.44-1.99c1.03-.16 1.8-.43 2.31-.79.52-.36.95-.87 1.3-1.52s.68-1.44.97-2.37c.3-.93.75-2.74 1.34-5.41l6.89-31.21c.6-2.7.89-4.87.89-6.52 0-1.27-.31-2.16-.95-2.66-.63-.5-1.64-.79-3.02-.87Z"/><text x="2156.67" y="1500.38" fill-opacity="0" font-family="Arial,Arial_MSFontService,sans-serif" font-size="55.32">๐พ</text><path fill-rule="evenodd" d="M1997.16 1478.36c1.4 0 2.58.49 3.52 1.48.95.98 1.42 2.23 1.42 3.75 0 1.51-.47 2.76-1.42 3.75-.94.98-2.12 1.48-3.52 1.48-1.41 0-2.58-.5-3.53-1.48-.94-.99-1.42-2.24-1.42-3.75 0-1.52.48-2.77 1.42-3.75.95-.99 2.12-1.48 3.53-1.48m-24.56 0c1.4 0 2.58.49 3.52 1.48.95.98 1.42 2.23 1.42 3.75 0 1.51-.47 2.76-1.42 3.75-.94.98-2.12 1.48-3.52 1.48-1.41 0-2.58-.5-3.53-1.48-.94-.99-1.42-2.24-1.42-3.75 0-1.52.48-2.77 1.42-3.75.95-.99 2.12-1.48 3.53-1.48m-24.56 0c1.4 0 2.58.49 3.52 1.48.95.98 1.42 2.23 1.42 3.75 0 1.51-.47 2.76-1.42 3.75-.94.98-2.12 1.48-3.52 1.48-1.41 0-2.58-.5-3.53-1.48-.94-.99-1.42-2.24-1.42-3.75 0-1.52.48-2.77 1.42-3.75.95-.99 2.12-1.48 3.53-1.48"/><text x="1943.09" y="1487.51" fill-opacity="0" font-family="Arial,Arial_MSFontService,sans-serif" font-size="10.456">โฏ</text><path d="m1583.567 1641.445-1.155 97.1 9.166.109 1.155-97.1Zm-19.433 92.299 22.37 46.102 23.46-45.557Zm974.433-92.299-1.155 97.1 9.166.109 1.155-97.1Zm-19.433 92.299 22.37 46.102 23.46-45.557ZM917.083 1167.45l1.188 106.96-9.166.1-1.188-106.96Zm19.469 102.17-22.406 46.08-23.424-45.57Zm654.528-102.17 1.19 106.96-9.17.1-1.18-106.96Zm19.47 102.17-22.4 46.08-23.43-45.57Zm935.53-102.17 1.19 106.96-9.17.1-1.18-106.96Zm19.47 102.17-22.4 46.08-23.43-45.57Z"/></g></svg>