<svg xmlns="http://www.w3.org/2000/svg" width="3414" height="791" overflow="hidden"><defs><clipPath id="a"><path d="M167-2895h3414v791H167z"/></clipPath></defs><g clip-path="url(#a)" transform="translate(-167 2895)"><path fill="#f8ccb9" d="M167-2820h237v309H167z"/><path fill="#d74514" fill-rule="evenodd" d="M258.395-2691.24h18.886l3.161 33.84 19.21-33.84h18.845l-.567 2.67c-1.54.43-2.675 1.19-3.404 2.27q-1.095 1.62-2.067 6l-7.376 33.43q-.284 1.305-.405 2.25c-.081.64-.122 1.47-.122 2.5q0 1.695.79 2.49c.527.53 1.385.87 2.574 1.03l-.568 2.68h-20.385l.568-2.68c1.54-.43 2.674-1.19 3.404-2.27q1.094-1.62 2.067-6l3.728-17.02a257 257 0 0 1 4.377-16.98h-.81c-1.27 2.33-2.635 4.74-4.094 7.26l-18.237 31.57h-6.565l-2.675-24.36c-.622-5.78-1.027-10.74-1.216-14.87h-.648c-1.081 6.67-2.108 12.21-3.08 16.61l-3.932 17.79q-.284 1.305-.405 2.25c-.081.64-.121 1.47-.121 2.5q0 1.695.79 2.49c.527.53 1.385.87 2.573 1.03l-.567 2.68H247.25l.568-2.68c1.54-.43 2.675-1.19 3.404-2.27q1.095-1.62 2.067-6l7.376-33.43c.351-1.59.527-3.18.527-4.74q0-1.71-.791-2.49c-.526-.53-1.384-.88-2.573-1.04Z"/><text x="247.25" y="-2642.84" fill-opacity="0" font-family="Arial,Arial_MSFontService,sans-serif" font-size="55.32">𝑴</text><path fill="#fdefe8" fill-rule="evenodd" d="M534-2213c0-60.2 48.801-109 109-109s109 48.8 109 109-48.801 109-109 109-109-48.8-109-109"/><path fill="#d74514" fill-rule="evenodd" d="M621.179-2238.62h20.386l-.568 2.68c-1.54.43-2.674 1.19-3.404 2.27q-1.094 1.62-2.067 6l-2.837 12.84h17.184l2.837-12.84c.351-1.6.527-3.18.527-4.75q0-1.695-.791-2.49c-.527-.53-1.384-.87-2.573-1.03l.567-2.68h20.385l-.567 2.68c-1.54.43-2.675 1.19-3.404 2.27q-1.095 1.62-2.067 6l-7.376 33.43q-.283 1.305-.405 2.25-.122.96-.122 2.49c0 1.14.263 1.97.79 2.5.527.52 1.385.87 2.574 1.03l-.568 2.67h-20.385l.568-2.67c1.54-.43 2.674-1.19 3.404-2.27q1.094-1.62 2.067-6l3.404-15.48h-17.184l-3.404 15.48c-.189.89-.324 1.65-.405 2.27s-.122 1.45-.122 2.47c0 1.14.264 1.97.791 2.5.526.52 1.384.87 2.573 1.03l-.567 2.67h-20.386l.568-2.67c1.54-.43 2.675-1.19 3.404-2.27q1.095-1.62 2.067-6l7.376-33.43c.351-1.6.527-3.18.527-4.75q0-1.695-.79-2.49c-.527-.53-1.385-.87-2.574-1.03Z"/><text x="610.034" y="-2190.21" fill-opacity="0" font-family="Arial,Arial_MSFontService,sans-serif" font-size="55.32">𝑯</text><path fill="#fdefe8" fill-rule="evenodd" d="M810-2665.5c0-60.48 48.801-109.5 109-109.5s109 49.02 109 109.5S979.199-2556 919-2556s-109-49.02-109-109.5"/><path fill="#d74514" fill-rule="evenodd" d="M919.887-2691.24h6.322v63.42h-6.322Zm-14.185 0h6.323v63.42h-6.323Z"/><text x="905.702" y="-2635.75" fill-opacity="0" font-family="Arial,Arial_MSFontService,sans-serif" font-size="63.425">∥</text><path fill="#f8ccb9" d="M2470-2894h237v309h-237z"/><path fill="#d74514" fill-rule="evenodd" d="M2560.95-2765.19h18.89l3.16 33.84 19.21-33.84h18.84l-.56 2.67c-1.54.43-2.68 1.19-3.41 2.27q-1.095 1.62-2.07 6l-7.37 33.43c-.19.87-.33 1.62-.41 2.25q-.12.96-.12 2.49c0 1.14.26 1.97.79 2.5.53.52 1.39.87 2.57 1.03l-.56 2.67h-20.39l.57-2.67c1.54-.43 2.67-1.19 3.4-2.27q1.095-1.62 2.07-6l3.73-17.02q1.86-8.43 4.38-16.98h-.81c-1.27 2.32-2.64 4.74-4.1 7.25l-18.23 31.58h-6.57l-2.68-24.36c-.62-5.78-1.02-10.74-1.21-14.88h-.65c-1.08 6.68-2.11 12.22-3.08 16.62l-3.93 17.79c-.19.87-.32 1.62-.41 2.25q-.12.96-.12 2.49c0 1.14.27 1.97.79 2.5.53.52 1.39.87 2.58 1.03l-.57 2.67h-14.87l.56-2.67c1.54-.43 2.68-1.19 3.41-2.27s1.42-3.08 2.06-6l7.38-33.43c.35-1.6.53-3.18.53-4.74 0-1.14-.27-1.97-.79-2.5-.53-.52-1.39-.87-2.58-1.03Z"/><text x="2549.81" y="-2716.79" fill-opacity="0" font-family="Arial,Arial_MSFontService,sans-serif" font-size="55.32">𝑴</text><path fill="#fdefe8" d="M2470-2582h237v145h-237z"/><path fill="#fdefe8" fill-rule="evenodd" d="M2878-2665.5c0-60.48 49.02-109.5 109.5-109.5 60.47 0 109.5 49.02 109.5 109.5s-49.03 109.5-109.5 109.5c-60.48 0-109.5-49.02-109.5-109.5"/><path fill="#d74514" fill-rule="evenodd" d="M2985.6-2686.5c-1.35 0-2.4.03-3.12.08l-10.01 45.55c1.24.11 2.24.16 2.99.16 3.49 0 6.5-.68 9.02-2.06 2.53-1.38 4.77-3.48 6.73-6.3 1.96-2.83 3.5-6.27 4.62-10.34 1.12-4.06 1.68-8.15 1.68-12.26 0-2.78-.31-5.12-.93-7.01s-1.48-3.42-2.57-4.58q-1.65-1.74-3.81-2.49c-1.45-.5-2.98-.75-4.6-.75m-18.77-4.74h16.42c4.45 0 8.02.24 10.69.73 2.44.43 4.66 1.17 6.67 2.23 2.01 1.05 3.6 2.21 4.76 3.48 1.49 1.57 2.66 3.53 3.51 5.9.85 2.36 1.28 5.14 1.28 8.33 0 3.59-.41 7.03-1.22 10.33s-2.01 6.34-3.59 9.14-3.47 5.2-5.67 7.21c-2.2 2.02-4.41 3.58-6.63 4.7-2.21 1.13-4.71 1.95-7.49 2.48-2.79.52-6.08.79-9.89.79h-19.98l.56-2.68c1.54-.43 2.68-1.19 3.41-2.27q1.095-1.62 2.07-6l7.37-33.43c.35-1.59.53-3.18.53-4.74 0-1.14-.27-1.97-.79-2.49-.53-.53-1.39-.88-2.58-1.04Z"/><text x="2955.69" y="-2642.84" fill-opacity="0" font-family="Arial,Arial_MSFontService,sans-serif" font-size="55.32">𝑫</text><path fill-rule="evenodd" d="M3389.02-2393.47c-1.38 0-2.74.47-4.08 1.4s-2.8 2.42-4.39 4.48c-1.6 2.05-2.84 4.08-3.73 6.08s-1.6 4.29-2.11 6.89l-.32 1.7c-.28 1.43-.44 2.52-.51 3.28s-.1 1.5-.1 2.23c0 2.11.45 3.64 1.35 4.6.91.96 2.47 1.44 4.69 1.44q2.055 0 3.81-.81c1.16-.54 2.26-1.33 3.3-2.35 1.04-1.03 1.98-2.27 2.81-3.73.84-1.46 1.59-3.16 2.25-5.09.67-1.93 1.17-3.92 1.5-5.96.34-2.03.51-3.95.51-5.73 0-2.84-.4-4.95-1.2-6.34-.79-1.39-2.06-2.09-3.78-2.09m-118.18-1.5c-2.81 0-5.26 1.18-7.35 3.53-2.1 2.35-3.75 5.71-4.95 10.09s-1.8 8.14-1.8 11.31c0 2.97.61 5.16 1.84 6.58s3.09 2.13 5.57 2.13c2.65 0 5-1.19 7.06-3.57q3.075-3.57 4.86-9.99c1.19-4.28 1.78-8.04 1.78-11.28 0-2.92-.57-5.12-1.7-6.59s-2.9-2.21-5.31-2.21m244.41-.08c-2.73 0-5.36 1.38-7.89 4.13-2.52 2.76-4.46 6.49-5.81 11.19 3.81-.03 7.08-.37 9.81-1.03 2.72-.67 4.82-1.72 6.28-3.17q2.19-2.16 2.19-5.85c0-1.65-.39-2.94-1.16-3.87s-1.91-1.4-3.42-1.4m-84.08 0q-4.185 0-7.5 3.36c-2.22 2.25-3.95 5.25-5.19 9.02s-1.86 7.53-1.86 11.29c0 2.81.38 4.91 1.15 6.3s2.06 2.09 3.87 2.09q2.67 0 5.25-2.31c1.72-1.54 3.49-3.74 5.31-6.59q2.73-4.275 3.87-9.87l.36-1.74c.25-1.11.41-2.07.49-2.88s.12-1.69.12-2.63c0-2.08-.44-3.61-1.34-4.58-.89-.97-2.4-1.46-4.53-1.46m-159.52-3.16c4.32 0 7.62 1.18 9.89 3.54 2.27 2.37 3.4 5.75 3.4 10.16 0 3.13-.54 6.48-1.64 10.05-1.09 3.56-2.59 6.56-4.5 8.99-1.9 2.44-4.18 4.27-6.82 5.5-2.65 1.23-5.69 1.84-9.12 1.84-4.19 0-7.44-1.17-9.75-3.53-2.31-2.35-3.46-5.72-3.46-10.13 0-2.16.32-4.66.97-7.49.84-3.84 2.24-7.19 4.21-10.06 1.98-2.86 4.41-5.05 7.3-6.58s6.06-2.29 9.52-2.29m245.06-.04c3.26 0 5.72.66 7.35 1.98 1.64 1.33 2.45 3.39 2.45 6.2 0 4.6-2.15 8.04-6.46 10.34s-10.71 3.44-19.19 3.44c-.33 1.63-.49 3.38-.49 5.27 0 2.84.56 4.9 1.66 6.18 1.11 1.29 2.92 1.93 5.44 1.93 2.48 0 4.73-.54 6.74-1.62 2.02-1.08 4.14-2.75 6.39-4.99l2.51 2.64c-2.62 2.89-5.28 5.06-7.96 6.52q-4.035 2.19-9.39 2.19c-3.91 0-6.95-1.2-9.1-3.59-2.14-2.39-3.22-5.72-3.22-9.99q0-4.335 1.56-9.3c1.04-3.31 2.62-6.28 4.72-8.91 2.11-2.64 4.64-4.68 7.58-6.12 2.95-1.45 6.08-2.17 9.41-2.17m-53.8 0c1.7 0 3.05.56 4.04 1.68.98 1.12 1.47 2.59 1.47 4.4 0 1.35-.25 2.74-.77 4.17l.53.2c2.65-3.59 5.2-6.22 7.64-7.9 2.45-1.67 4.92-2.51 7.44-2.51 1.97 0 3.62.15 4.94.44l-1.94 9.08h-4.18c-.16-1.13-.39-2.01-.69-2.63-.29-.62-.65-1.06-1.05-1.3-.41-.24-.92-.36-1.54-.36-.97 0-2.03.42-3.18 1.25q-1.725 1.26-3.87 3.93c-1.43 1.79-2.58 3.5-3.43 5.15s-1.56 3.74-2.12 6.28l-3.85 17.55h-7.02l5.88-25.69c.38-1.62.62-2.88.73-3.77s.16-1.64.16-2.23c0-1.08-.17-1.87-.52-2.35-.36-.49-.91-.73-1.67-.73-.83 0-1.72.34-2.65 1.03s-2.21 1.94-3.83 3.75l-2.31-2.27c2.48-2.59 4.57-4.44 6.24-5.53a10 10 0 0 1 5.55-1.64m-32.56 0c1.76 0 3.4.19 4.93.59 1.53.39 3.1 1.08 4.72 2.08l3.73-2.67 2.59.65-5.96 25.69c-.59 2.57-.89 4.57-.89 6 0 1.08.18 1.86.53 2.35s.91.73 1.66.73c.81 0 1.68-.33 2.6-.99.91-.67 2.21-1.93 3.89-3.79l2.31 2.27c-2.44 2.59-4.51 4.43-6.22 5.53-1.72 1.09-3.58 1.64-5.58 1.64-1.67 0-3.01-.55-4.01-1.66s-1.5-2.58-1.5-4.42q0-2.235.93-4.74l-.52-.16q-3.9 5.67-7.38 8.31c-2.32 1.75-4.78 2.63-7.38 2.63-2.97 0-5.27-1.12-6.91-3.36-1.63-2.25-2.45-5.39-2.45-9.45 0-4.64.91-9.11 2.74-13.39 1.82-4.28 4.33-7.66 7.52-10.13 3.18-2.48 6.74-3.71 10.65-3.71m-58.4 0c1.68 0 3.01.55 4 1.66.98 1.11 1.47 2.58 1.47 4.42 0 1.51-.31 3.1-.93 4.78l.49.16q7.5-10.98 14.91-10.98 4.425 0 6.87 3.36c1.64 2.25 2.45 5.41 2.45 9.49 0 4.45-.89 8.84-2.69 13.15s-4.29 7.72-7.48 10.25-6.75 3.79-10.7 3.79c-3.59 0-6.58-.78-8.95-2.35l-1.87 8.87c-.4 1.92-.61 3.5-.61 4.75 0 1.19.31 2.03.92 2.53.6.5 1.79.83 3.54.99l-.32 1.99h-12.53l9.77-43c.57-2.49.85-4.53.85-6.12 0-1.08-.17-1.87-.52-2.35-.36-.49-.91-.73-1.67-.73-.83 0-1.72.34-2.65 1.03s-2.21 1.94-3.83 3.75l-2.31-2.27q3.645-3.81 6.18-5.49t5.61-1.68m-70 0c1.71 0 3.05.56 4.04 1.68.98 1.12 1.48 2.59 1.48 4.4 0 1.48-.32 3.06-.94 4.74l.49.16c2.48-3.7 4.96-6.45 7.42-8.25 2.45-1.79 4.94-2.69 7.45-2.69 2.6 0 4.57.74 5.92 2.21s2.03 3.6 2.03 6.38v.57c0 .19-.02.39-.04.61 2.32-3.3 4.64-5.75 6.95-7.36s4.7-2.41 7.19-2.41 4.4.71 5.75 2.15c1.36 1.43 2.03 3.44 2.03 6.04 0 1.7-.39 4.12-1.17 7.25l-2.64 10.62c-.73 2.94-1.09 5.02-1.09 6.24 0 1.08.17 1.86.52 2.35.36.49.91.73 1.67.73.81 0 1.67-.33 2.59-.99.92-.67 2.21-1.93 3.89-3.79l2.31 2.27c-2.32 2.46-4.35 4.27-6.08 5.43s-3.7 1.74-5.92 1.74c-1.75 0-3.16-.63-4.21-1.88-1.05-1.26-1.58-2.86-1.58-4.81 0-1.75.44-4.33 1.34-7.74l1.78-7.01c.65-2.54 1.07-4.42 1.28-5.63.2-1.22.3-2.2.3-2.96 0-1.87-.31-3.21-.93-4.03-.62-.83-1.64-1.24-3.04-1.24-1.14 0-2.35.43-3.65 1.28s-2.66 2.17-4.09 3.97q-2.145 2.7-3.51 5.31c-.9 1.74-1.63 3.87-2.17 6.38l-3.68 17.71h-7.02l4.66-20.59c.57-2.51.96-4.37 1.16-5.57s.3-2.23.3-3.1c0-1.94-.34-3.33-1.03-4.15-.69-.83-1.76-1.24-3.22-1.24-1.03 0-2.2.43-3.51 1.28s-2.71 2.21-4.19 4.09c-1.49 1.88-2.65 3.68-3.49 5.41-.83 1.73-1.54 3.84-2.1 6.32l-3.85 17.55h-7.02l5.92-25.69c.6-2.6.89-4.6.89-6 0-1.08-.17-1.87-.52-2.35-.36-.49-.91-.73-1.67-.73-.83 0-1.72.34-2.65 1.03s-2.21 1.94-3.83 3.75l-2.31-2.27c2.38-2.48 4.42-4.3 6.14-5.45a9.94 9.94 0 0 1 5.65-1.72m-71.27-16.54c2.45 0 4.73.15 6.82.45 2.1.3 4.43.84 7 1.62l-2.44 10.98h-3.89c-.21-3.32-.94-5.72-2.16-7.19-1.23-1.47-3.21-2.21-5.94-2.21-3.73 0-7.2 1.86-10.4 5.59s-5.73 8.66-7.6 14.78q-2.79 9.18-2.79 17.04c0 4.1.73 7.13 2.19 9.08q2.19 2.91 6.72 2.91c2.03 0 3.8-.3 5.31-.91 1.52-.61 2.93-1.63 4.26-3.08q1.98-2.16 3.93-6.06h3.89l-2.47 11.51c-5.05 1.41-10.35 2.11-15.89 2.11-5.08 0-8.94-1.46-11.59-4.38s-3.97-7.18-3.97-12.8q0-5.97 2.13-13.74c1.41-5.19 3.42-9.74 6.01-13.66 2.6-3.92 5.66-6.9 9.2-8.96 3.54-2.05 7.43-3.08 11.68-3.08"/><text x="3201.66" y="-2350.57" fill-opacity="0" font-family="Arial,Arial_MSFontService,sans-serif" font-size="73.395">𝐶𝑜𝑚𝑝𝑎𝑟𝑒</text><path d="M404.5-2669.08h364.32v9.16H404.5Zm359.737-18.34 45.833 22.92-45.833 22.92Zm-482.32 176.92v303.025h211.746v-9.167H286.5l4.583 4.583V-2510.5Zm207.162 321.358 45.834-22.917-45.834-22.916Zm263.421-18.385h171.254v-306.718h-9.167v302.135l4.583-4.583H752.5Zm189.587-302.135-22.917-45.833-22.916 45.833Z"/><path fill="#fdefe8" fill-rule="evenodd" d="M1179-2665.5c0-60.48 49.02-109.5 109.5-109.5s109.5 49.02 109.5 109.5-49.02 109.5-109.5 109.5-109.5-49.02-109.5-109.5"/><path fill="#d74514" fill-rule="evenodd" d="M1271.87-2691.24h39.35l-2.88 13.05h-5.19c-.13-2.57-.38-4.37-.73-5.39-.35-1.03-.89-1.77-1.62-2.23s-1.75-.69-3.08-.69h-10.17l-4.3 19.45h5.64c1.08 0 1.99-.17 2.73-.52.75-.36 1.43-.94 2.07-1.77.63-.82 1.26-1.96 1.88-3.42h4.46l-3.89 16.45h-4.17c0-1.57-.1-2.77-.29-3.61-.19-.83-.54-1.44-1.05-1.82s-1.39-.57-2.63-.57h-5.76l-4.78 21.65h9.12c1.19 0 2.11-.09 2.77-.25.67-.16 1.27-.42 1.83-.77q.825-.525 1.92-1.68c.73-.77 1.45-1.74 2.17-2.92.72-1.17 1.45-2.58 2.21-4.23h5.51l-3.73 14.59h-38.54l.57-2.68c1.54-.43 2.67-1.19 3.4-2.27q1.095-1.62 2.07-6l7.38-33.43c.35-1.59.52-3.18.52-4.74 0-1.14-.26-1.97-.79-2.49-.52-.53-1.38-.88-2.57-1.04Z"/><text x="1260.72" y="-2642.84" fill-opacity="0" font-family="Arial,Arial_MSFontService,sans-serif" font-size="55.32">𝑬</text><path fill-rule="evenodd" d="M1271.79-2414.14H1288l-.45 1.99c-1.02.21-1.76.46-2.21.73-.44.27-.84.67-1.19 1.21s-.72 1.39-1.1 2.54c-.38 1.14-.85 3.01-1.42 5.61l-2.87 12.93h1.33c1.14 0 2.17-.19 3.11-.57.93-.38 2.01-1.07 3.26-2.07 1.24-1 3.22-2.83 5.93-5.51 2.72-2.67 4.65-4.71 5.8-6.1s1.99-2.59 2.51-3.61c.53-1.01.79-1.93.79-2.77 0-.68-.27-1.22-.81-1.64q-.81-.63-2.31-.75l.45-1.99h17.38l-.44 1.99c-1.08.16-2.3.72-3.67 1.68-1.36.96-3.45 2.83-6.26 5.61l-15.73 15.32 8.64 20.75c.89 2.14 1.63 3.68 2.21 4.62.58.95 1.27 1.7 2.08 2.25.81.56 1.81.93 3 1.12l-.44 1.98h-15.65l.45-1.98q2.19-.21 2.19-1.95 0-1.095-.45-2.49c-.3-.93-.65-1.9-1.05-2.9l-5.27-12.89q-.93-2.31-1.62-3.24c-.46-.62-.95-1.05-1.46-1.3-.51-.24-1.31-.36-2.39-.36h-2.27l-3.37 15.32c-.35 1.62-.58 2.9-.68 3.83-.11.93-.17 1.76-.17 2.49 0 1.22.31 2.07.92 2.57.6.5 1.62.81 3.06.92l-.45 1.98h-16.21l.44-1.98c1.03-.17 1.8-.43 2.31-.79.52-.37.95-.88 1.3-1.52.35-.65.68-1.44.97-2.38.3-.93.75-2.73 1.34-5.41l6.89-31.2c.6-2.7.89-4.88.89-6.53 0-1.27-.32-2.15-.95-2.65s-1.64-.79-3.02-.87Z"/><text x="1261.17" y="-2365.73" fill-opacity="0" font-family="Arial,Arial_MSFontService,sans-serif" font-size="55.32">𝐾</text><path d="m1284.7-2454.61-.46-59.61 9.16-.07.46 59.61Zm-18.76-54.88 22.56-46.01 23.27 45.65Zm-237.44-159.59h109.92v9.16H1028.5Zm105.34-18.34 45.83 22.92-45.83 22.92Zm264.67 27.073 220.189-.478-.02-9.167-220.189.479Zm215.645 17.865 45.784-23.016-45.883-22.817ZM3097.5-2669.08h272.26v173.43h-9.16v-168.85l4.58 4.58H3097.5Zm290.6 168.84-22.92 45.84-22.92-45.84Zm-680.6-13.84h119.12v274.6l-4.58-4.59h542.84l-4.58 4.59v-41.26h9.16v45.84h-552v-274.6l4.58 4.58H2707.5Zm634.46 237.93 22.92-45.84 22.92 45.84Z"/><path fill="#d74514" d="M1659-2895h237v458h-237z"/><path fill="#fdefe8" fill-rule="evenodd" d="M2065-2666c0-60.2 48.8-109 109-109s109 48.8 109 109-48.8 109-109 109-109-48.8-109-109"/><path fill="#d74514" fill-rule="evenodd" d="M2171.9-2687.11c-1.35 0-2.39.03-3.12.08l-10.01 45.55c1.24.11 2.24.17 2.99.17 3.49 0 6.5-.69 9.02-2.07 2.53-1.38 4.77-3.48 6.73-6.3 1.96-2.83 3.5-6.27 4.62-10.34 1.12-4.06 1.68-8.15 1.68-12.26 0-2.78-.31-5.12-.93-7.01s-1.48-3.42-2.57-4.58q-1.65-1.74-3.81-2.49c-1.45-.5-2.98-.75-4.6-.75m-18.77-4.74h16.42c4.45 0 8.02.24 10.69.73 2.44.43 4.66 1.17 6.67 2.23 2.01 1.05 3.6 2.21 4.76 3.48 1.49 1.57 2.66 3.53 3.51 5.9.85 2.36 1.28 5.14 1.28 8.33 0 3.59-.41 7.04-1.22 10.33-.81 3.3-2.01 6.34-3.59 9.14s-3.47 5.2-5.67 7.21c-2.2 2.02-4.41 3.58-6.63 4.71-2.21 1.12-4.71 1.94-7.49 2.47-2.79.52-6.08.79-9.89.79h-19.98l.56-2.68c1.54-.43 2.68-1.19 3.41-2.27s1.42-3.08 2.07-5.99l7.37-33.44c.35-1.59.53-3.17.53-4.74 0-1.14-.26-1.97-.79-2.49-.53-.53-1.39-.88-2.58-1.04Z"/><text x="2141.99" y="-2643.45" fill-opacity="0" font-family="Arial,Arial_MSFontService,sans-serif" font-size="55.32">𝑫</text><path fill-rule="evenodd" d="M2156.28-2421.26h16.21l-.44 1.99c-1.03.21-1.76.46-2.21.73s-.84.67-1.2 1.21c-.35.54-.71 1.39-1.09 2.54-.38 1.14-.85 3.02-1.42 5.61l-2.88 12.93h1.34c1.14 0 2.17-.19 3.1-.57s2.02-1.07 3.26-2.07c1.25-1 3.23-2.83 5.94-5.51 2.72-2.67 4.65-4.71 5.8-6.1s1.98-2.59 2.51-3.61c.53-1.01.79-1.93.79-2.77 0-.68-.27-1.22-.81-1.64q-.81-.63-2.31-.75l.45-1.99h17.38l-.44 1.99c-1.09.16-2.31.72-3.67 1.68-1.37.96-3.45 2.83-6.26 5.61l-15.73 15.32 8.63 20.75c.9 2.14 1.63 3.68 2.21 4.62.58.95 1.28 1.7 2.09 2.25.81.56 1.81.93 3 1.12l-.45 1.98h-15.64l.45-1.98c1.45-.14 2.18-.79 2.18-1.95 0-.73-.14-1.56-.44-2.49s-.65-1.9-1.06-2.9l-5.26-12.89c-.63-1.54-1.17-2.62-1.63-3.24-.45-.62-.94-1.05-1.45-1.3-.52-.24-1.31-.36-2.4-.36h-2.26l-3.37 15.32c-.35 1.62-.58 2.9-.69 3.83s-.16 1.76-.16 2.49c0 1.22.3 2.07.91 2.57s1.63.81 3.06.92l-.44 1.98h-16.21l.44-1.98c1.03-.17 1.8-.43 2.31-.79.51-.37.95-.88 1.3-1.52.35-.65.67-1.44.97-2.38.3-.93.74-2.73 1.34-5.41l6.89-31.2c.59-2.7.89-4.88.89-6.53 0-1.27-.32-2.15-.95-2.65-.64-.5-1.64-.79-3.02-.87Z"/><text x="2145.67" y="-2372.85" fill-opacity="0" font-family="Arial,Arial_MSFontService,sans-serif" font-size="55.32">𝐾</text><path d="M2179.083-2462.16v-53.094h-9.166v53.094Zm18.334-48.51-22.917-45.834-22.916 45.833Zm-300.916-150.207 127.027-.03-.002-9.167-127.027.03Zm122.448 18.304 45.828-22.928-45.839-22.905Zm264.551-27.507h145.46v9.16H2283.5Zm140.87-18.34 45.84 22.92-45.84 22.92Z"/><path fill="#d74514" fill-rule="evenodd" d="M1490.33-2292.96h37.28l-2.79 12.45h-3.89c-.11-2.35-.32-4.12-.61-5.31-.3-1.19-.66-2.01-1.08-2.45-.42-.45-.91-.75-1.5-.9-.58-.14-1.41-.22-2.49-.22h-13.21l-4.62 21.24h7.74c1.92 0 3.38-.46 4.4-1.36 1.01-.91 2.03-2.4 3.06-4.48h3.69l-3.65 15.56h-3.45c0-2.16-.13-3.62-.4-4.39s-.67-1.26-1.2-1.46c-.52-.21-1.48-.31-2.85-.31h-8.11l-5.19 23.39h12c1.59 0 2.86-.16 3.79-.49.93-.32 1.81-.85 2.63-1.58.83-.73 1.65-1.75 2.47-3.06.83-1.31 1.81-3.09 2.94-5.33h3.93l-3.56 14.02h-35.95l.45-1.98c1.02-.16 1.79-.43 2.31-.79.51-.37.94-.87 1.29-1.52s.68-1.44.97-2.37c.3-.93.75-2.74 1.34-5.41l6.89-31.21c.6-2.7.89-4.88.89-6.52 0-1.27-.31-2.16-.95-2.66-.63-.5-1.64-.79-3.02-.87Z"/><text x="1479.71" y="-2244.55" fill-opacity="0" font-family="Arial,Arial_MSFontService,sans-serif" font-size="55.32">𝐸</text><path fill="#d74514" fill-rule="evenodd" d="M1533.86-2259.42h12.57l-.33 1.78c-.45.12-.84.22-1.16.3s-.6.2-.85.36-.46.37-.64.64-.35.63-.52 1.1-.35 1.05-.53 1.76c-.19.7-.41 1.57-.65 2.6l-1.93 8.76h.83c.46 0 .88-.03 1.25-.09.38-.06.75-.16 1.12-.31s.75-.35 1.13-.61c.39-.26.83-.59 1.33-.98 2.06-1.61 3.79-3.05 5.18-4.32s2.52-2.4 3.38-3.37 1.48-1.8 1.85-2.49c.37-.68.55-1.25.55-1.71 0-.47-.19-.85-.57-1.11-.37-.27-.99-.42-1.84-.44l.32-1.87h13.56l-.42 1.87c-.46.04-.89.13-1.3.27-.4.14-.88.39-1.41.76-.54.37-1.18.87-1.92 1.52-.75.65-1.69 1.48-2.82 2.52l-11.61 10.48 6.73 14c.51 1.09.96 1.96 1.34 2.59.38.64.76 1.14 1.16 1.52s.85.65 1.36.82c.5.17 1.13.32 1.89.46l-.48 1.82h-12.27l.42-1.82c.55-.04.97-.16 1.25-.37.27-.21.41-.47.41-.79q-.03-.33-.09-.69c-.04-.23-.11-.5-.2-.78q-.15-.435-.39-1.02c-.16-.38-.36-.85-.6-1.38l-3.99-8.52c-.34-.76-.64-1.35-.91-1.79a3.8 3.8 0 0 0-.83-1.01c-.29-.24-.62-.39-.98-.46-.37-.07-.83-.11-1.39-.11h-1.64c-.16.82-.34 1.69-.56 2.62q-.33 1.41-.66 2.85c-.22.96-.43 1.91-.62 2.84q-.3 1.41-.54 2.61c-.16.8-.29 1.52-.39 2.14-.1.63-.15 1.11-.15 1.45 0 .83.25 1.42.73 1.77.49.35 1.32.56 2.49.64l-.48 1.82h-12.54l.33-1.82c.62-.1 1.12-.21 1.51-.34.38-.13.73-.41 1.04-.84.31-.42.59-1.06.85-1.92.26-.85.55-2.06.89-3.63l4.89-21.71c.19-.88.34-1.65.44-2.33.1-.67.15-1.25.15-1.72 0-.88-.23-1.5-.68-1.87-.46-.36-1.29-.56-2.51-.58Z"/><text x="1526.5" y="-2225.62" fill-opacity="0" font-family="Arial,Arial_MSFontService,sans-serif" font-size="38.631">𝐾</text><path fill="#d74514" fill-rule="evenodd" d="M1982.48-2299.96h18.08v77.29h-18.08v-3.12h11.35v-71.05h-11.35Zm-399.93 0h18.07v3.12h-11.35v71.05h11.35v3.12h-18.07Zm32.48 7h14.47l4.62 39.32 23.62-39.32h12.77l-.45 1.99c-1.02.22-1.76.46-2.2.73-.45.27-.86.68-1.22 1.22-.37.54-.73 1.38-1.09 2.53-.37 1.15-.84 3.02-1.4 5.61l-6.93 31.45c-.35 1.59-.58 2.86-.69 3.79s-.16 1.78-.16 2.53c0 1.22.3 2.08.91 2.58s1.63.8 3.06.91l-.45 1.98h-16.21l.45-1.98c1.02-.16 1.79-.43 2.31-.79.51-.37.94-.87 1.29-1.52s.68-1.44.98-2.37c.29-.93.74-2.74 1.33-5.41l5.39-24.44c.76-3.38 1.62-6.74 2.6-10.09h-.57q-1.26 2.385-5.67 9.72l-18.44 30.44h-4.42l-3.37-26.06c-.48-3.67-1.02-8.62-1.62-14.83h-.81c-.92 6.05-1.94 11.66-3.08 16.82l-4.13 18.72c-.57 2.57-.85 4.67-.85 6.32 0 1.22.3 2.08.91 2.58s1.63.8 3.06.91l-.45 1.98h-14.18l.45-1.98c1.02-.16 1.79-.43 2.31-.79.51-.37.94-.87 1.29-1.52s.68-1.44.97-2.37c.3-.93.75-2.74 1.34-5.41l6.89-31.21c.27-1.16.49-2.27.65-3.32.16-1.06.24-2.12.24-3.2 0-1.27-.31-2.16-.95-2.66-.63-.5-1.64-.79-3.02-.87Z"/><text x="1604.41" y="-2244.55" fill-opacity="0" font-family="Arial,Arial_MSFontService,sans-serif" font-size="55.32">𝑀</text><path fill="#d74514" fill-rule="evenodd" d="M1739.1-2292.96h6.32v63.43h-6.32Zm-14.19 0h6.33v63.43h-6.33Z"/><text x="1724.91" y="-2237.46" fill-opacity="0" font-family="Arial,Arial_MSFontService,sans-serif" font-size="63.425">∥</text><path fill="#d74514" fill-rule="evenodd" d="M1790.15-2292.96h16.21l-.45 1.99c-1.03.22-1.76.46-2.21.73-.44.27-.84.68-1.19 1.22s-.72 1.38-1.1 2.53-.85 3.02-1.42 5.61l-2.75 12.4H1819l2.76-12.44c.24-1.11.45-2.29.63-3.55.17-1.25.26-2.24.26-2.97 0-1.27-.32-2.16-.95-2.66-.64-.5-1.64-.79-3.02-.87l.44-1.99h16.21l-.44 1.99c-1.03.22-1.76.46-2.21.73s-.84.68-1.2 1.22c-.35.54-.71 1.38-1.09 2.53s-.85 3.02-1.42 5.61l-6.93 31.45c-.35 1.59-.58 2.86-.69 3.79s-.16 1.78-.16 2.53c0 1.22.3 2.08.91 2.58s1.63.8 3.06.91l-.44 1.98h-16.21l.44-1.98c1.03-.16 1.8-.43 2.31-.79.51-.37.95-.87 1.3-1.52s.67-1.44.97-2.37.74-2.74 1.34-5.41l3.32-15.04h-21.76l-3.37 15.32c-.29 1.35-.51 2.47-.64 3.34-.14.88-.21 1.88-.21 2.98q0 1.74.81 2.52c.54.51 1.6.83 3.16.97l-.44 1.98h-16.21l.44-1.98c1.03-.16 1.8-.43 2.31-.79.52-.37.95-.87 1.3-1.52s.68-1.44.97-2.37c.3-.93.75-2.74 1.34-5.41l6.89-31.21c.24-1.11.45-2.29.63-3.55.17-1.25.26-2.24.26-2.97 0-1.27-.32-2.16-.95-2.66-.64-.5-1.64-.79-3.02-.87Z"/><text x="1779.53" y="-2244.55" fill-opacity="0" font-family="Arial,Arial_MSFontService,sans-serif" font-size="55.32">𝐻</text><path fill="#d74514" fill-rule="evenodd" d="M1949.14-2299.75c7.89 2.08 13.95 6.57 18.17 13.48 4.23 6.9 6.35 15.23 6.35 24.98q0 14.67-6.33 24.99c-4.21 6.87-10.28 11.35-18.19 13.43l-.97-3.12c6.24-2.08 10.88-6.19 13.92-12.32s4.56-13.93 4.56-23.38c0-9.14-1.52-16.72-4.54-22.76q-4.545-9.06-14.07-12.18Zm-77.55 0 1.1 3.12q-9.48 3.12-14.04 12.18c-3.04 6.04-4.56 13.62-4.56 22.76 0 9.45 1.52 17.25 4.56 23.38s7.68 10.24 13.92 12.32l-.98 3.12c-7.91-2.08-13.98-6.56-18.19-13.43-4.22-6.88-6.32-15.21-6.32-24.99 0-9.75 2.11-18.08 6.34-24.98 4.23-6.91 10.29-11.4 18.17-13.48m15.28 6.79h14.46l4.62 39.32 23.63-39.32h12.77l-.45 1.99c-1.03.22-1.76.46-2.21.73-.44.27-.85.68-1.21 1.22-.37.54-.73 1.38-1.1 2.53-.36 1.15-.83 3.02-1.4 5.61l-6.93 31.45c-.35 1.59-.58 2.86-.68 3.79-.11.93-.17 1.78-.17 2.53 0 1.22.31 2.08.91 2.58.61.5 1.63.8 3.06.91l-.44 1.98h-16.21l.44-1.98c1.03-.16 1.8-.43 2.31-.79.52-.37.95-.87 1.3-1.52s.68-1.44.97-2.37c.3-.93.75-2.74 1.34-5.41l5.39-24.44c.76-3.38 1.62-6.74 2.59-10.09h-.56c-.84 1.59-2.73 4.83-5.68 9.72l-18.44 30.44h-4.41l-3.37-26.06c-.48-3.67-1.02-8.62-1.62-14.83h-.81c-.92 6.05-1.94 11.66-3.08 16.82l-4.13 18.72c-.57 2.57-.85 4.67-.85 6.32 0 1.22.3 2.08.91 2.58s1.63.8 3.06.91l-.45 1.98h-14.18l.44-1.98c1.03-.16 1.8-.43 2.31-.79.52-.37.95-.87 1.3-1.52s.68-1.44.97-2.37c.3-.93.75-2.74 1.34-5.41l6.89-31.21c.27-1.16.49-2.27.65-3.32.16-1.06.24-2.12.24-3.2 0-1.27-.32-2.16-.95-2.66-.64-.5-1.64-.79-3.02-.87Z"/><text x="1876.25" y="-2244.55" fill-opacity="0" font-family="Arial,Arial_MSFontService,sans-serif" font-size="55.32">𝑀</text><path d="M2707.5-2669.08h130.18v9.16H2707.5Zm125.6-18.34 45.83 22.92-45.83 22.92Z"/><path fill-rule="evenodd" d="M2496.84-2393.39h16.21l-.44 1.99c-1.03.21-1.77.45-2.21.72-.45.28-.85.68-1.2 1.22s-.71 1.39-1.09 2.53c-.38 1.15-.85 3.02-1.42 5.62l-2.75 12.4h21.76l2.75-12.44c.25-1.11.46-2.29.63-3.55.18-1.26.27-2.25.27-2.98 0-1.27-.32-2.15-.96-2.65-.63-.5-1.64-.79-3.02-.87l.45-1.99h16.21l-.45 1.99c-1.02.21-1.76.45-2.2.72-.45.28-.85.68-1.2 1.22s-.72 1.39-1.09 2.53c-.38 1.15-.85 3.02-1.42 5.62l-6.93 31.45c-.35 1.59-.58 2.85-.69 3.79-.11.93-.16 1.77-.16 2.53 0 1.21.3 2.07.91 2.57s1.63.81 3.06.91l-.45 1.99h-16.21l.45-1.99c1.02-.16 1.79-.42 2.31-.79.51-.36.94-.87 1.29-1.52.36-.64.68-1.44.98-2.37.29-.93.74-2.73 1.33-5.41l3.33-15.03h-21.77l-3.36 15.32c-.3 1.35-.51 2.46-.65 3.34-.13.88-.2 1.87-.2 2.98 0 1.16.27 2 .81 2.51s1.59.84 3.16.97l-.44 1.99h-16.22l.45-1.99c1.03-.16 1.8-.42 2.31-.79.51-.36.95-.87 1.3-1.52.35-.64.67-1.44.97-2.37s.74-2.73 1.34-5.41l6.89-31.2c.24-1.11.45-2.29.63-3.55.17-1.26.26-2.25.26-2.98 0-1.27-.32-2.15-.95-2.65-.64-.5-1.65-.79-3.02-.87Z"/><text x="2486.22" y="-2344.99" fill-opacity="0" font-family="Arial,Arial_MSFontService,sans-serif" font-size="55.32">𝐻</text><path fill-rule="evenodd" d="M2655.83-2400.18q11.835 3.12 18.18 13.47c4.23 6.9 6.34 15.23 6.34 24.99 0 9.78-2.1 18.1-6.32 24.98-4.21 6.88-10.28 11.36-18.2 13.44l-.97-3.13c6.24-2.08 10.88-6.18 13.92-12.32 3.04-6.13 4.56-13.92 4.56-23.38 0-9.13-1.51-16.72-4.54-22.76-3.02-6.03-7.71-10.09-14.06-12.17Zm-77.54 0 1.1 3.12c-6.33 2.08-11.01 6.14-14.05 12.17-3.04 6.04-4.56 13.63-4.56 22.76 0 9.46 1.52 17.25 4.56 23.38 3.04 6.14 7.68 10.24 13.92 12.32l-.97 3.13c-7.92-2.08-13.98-6.56-18.2-13.44-4.21-6.88-6.32-15.2-6.32-24.98 0-9.76 2.12-18.09 6.34-24.99q6.345-10.35 18.18-13.47m15.27 6.79h14.47l4.62 39.31 23.63-39.31h12.76l-.44 1.99c-1.03.21-1.77.45-2.21.72-.45.28-.85.68-1.22 1.22-.36.54-.73 1.39-1.09 2.53-.37 1.15-.83 3.02-1.4 5.62l-6.93 31.45c-.35 1.59-.58 2.85-.69 3.79-.11.93-.16 1.77-.16 2.53 0 1.21.3 2.07.91 2.57s1.63.81 3.06.91l-.44 1.99h-16.22l.45-1.99c1.03-.16 1.8-.42 2.31-.79.51-.36.95-.87 1.3-1.52.35-.64.67-1.44.97-2.37s.74-2.73 1.34-5.41l5.39-24.44c.75-3.37 1.62-6.74 2.59-10.09h-.57c-.83 1.6-2.72 4.84-5.67 9.73l-18.44 30.44h-4.42l-3.36-26.06c-.49-3.68-1.03-8.62-1.62-14.84h-.81c-.92 6.06-1.95 11.66-3.08 16.82l-4.14 18.73c-.56 2.56-.85 4.67-.85 6.32 0 1.21.31 2.07.91 2.57.61.5 1.63.81 3.06.91l-.44 1.99h-14.19l.45-1.99c1.03-.16 1.8-.42 2.31-.79.51-.36.95-.87 1.3-1.52.35-.64.67-1.44.97-2.37s.74-2.73 1.34-5.41l6.89-31.2c.27-1.17.48-2.27.64-3.33.17-1.05.25-2.12.25-3.2 0-1.27-.32-2.15-.95-2.65-.64-.5-1.65-.79-3.02-.87Z"/><text x="2582.94" y="-2344.99" fill-opacity="0" font-family="Arial,Arial_MSFontService,sans-serif" font-size="55.32">𝑀</text></g></svg>