<svg width="2268" height="2549" xmlns="http://www.w3.org/2000/svg" xmlns:xlink="http://www.w3.org/1999/xlink" overflow="hidden"><defs><clipPath id="clip0"><rect x="2829" y="128" width="2268" height="2549"/></clipPath></defs><g clip-path="url(#clip0)" transform="translate(-2829 -128)"><path d="M2831.39 130.799 3255.04 130.799 3255.04 370.307 2831.39 370.307Z" fill="#D74514" fill-rule="evenodd"/><path d="M3255.04 130.799 3678.68 130.799 3678.68 370.307 3255.04 370.307Z" fill="#D74514" fill-rule="evenodd"/><path d="M3678.68 130.799 4102.32 130.799 4102.32 370.307 3678.68 370.307Z" fill="#D74514" fill-rule="evenodd"/><path d="M4102.32 130.799 4525.96 130.799 4525.96 370.307 4102.32 370.307Z" fill="#D74514" fill-rule="evenodd"/><path d="M4525.96 130.799 4949.6 130.799 4949.6 370.307 4525.96 370.307Z" fill="#D74514" fill-rule="evenodd"/><path d="M3255.04 128.507 3255.04 372.599" stroke="#000000" stroke-width="4.58333" stroke-linejoin="round" stroke-miterlimit="10" fill="none" fill-rule="evenodd"/><path d="M3678.68 128.507 3678.68 372.599" stroke="#000000" stroke-width="4.58333" stroke-linejoin="round" stroke-miterlimit="10" fill="none" fill-rule="evenodd"/><path d="M4102.32 128.507 4102.32 372.599" stroke="#000000" stroke-width="4.58333" stroke-linejoin="round" stroke-miterlimit="10" fill="none" fill-rule="evenodd"/><path d="M4525.96 128.507 4525.96 372.599" stroke="#000000" stroke-width="4.58333" stroke-linejoin="round" stroke-miterlimit="10" fill="none" fill-rule="evenodd"/><path d="M2831.39 128.507 2831.39 372.599" stroke="#000000" stroke-width="4.58333" stroke-linejoin="round" stroke-miterlimit="10" fill="none" fill-rule="evenodd"/><path d="M4949.6 128.507 4949.6 372.599" stroke="#000000" stroke-width="4.58333" stroke-linejoin="round" stroke-miterlimit="10" fill="none" fill-rule="evenodd"/><path d="M2829.1 130.799 4951.89 130.799" stroke="#000000" stroke-width="4.58333" stroke-linejoin="round" stroke-miterlimit="10" fill="none" fill-rule="evenodd"/><path d="M2829.1 370.307 4951.89 370.307" stroke="#000000" stroke-width="4.58333" stroke-linejoin="round" stroke-miterlimit="10" fill="none" fill-rule="evenodd"/><text fill="#FFFFFF" font-family="DengXian,DengXian_MSFontService,sans-serif" font-weight="700" font-size="83" transform="matrix(1 0 0 1 3015.43 278)">A<tspan font-size="83" x="426.506" y="0">B</tspan><tspan font-size="83" x="849.574" y="0">C</tspan><tspan font-size="83" x="1269.2" y="0">D</tspan><tspan font-size="83" x="1700.87" y="0">E</tspan></text><path d="M3129 1209C3129 1144.94 3194.81 1093 3276 1093 3357.19 1093 3423 1144.94 3423 1209 3423 1273.07 3357.19 1325 3276 1325 3194.81 1325 3129 1273.07 3129 1209Z" fill="#FDEFE8" fill-rule="evenodd"/><path d="M3241.08 1181.26 3257.29 1181.26 3256.85 1183.25C3255.82 1183.47 3255.08 1183.71 3254.64 1183.98 3254.19 1184.25 3253.79 1184.65 3253.44 1185.2 3253.09 1185.74 3252.73 1186.58 3252.35 1187.73 3251.97 1188.88 3251.5 1190.75 3250.93 1193.34L3242.26 1232.86 3252.23 1232.86C3254.04 1232.86 3255.46 1232.68 3256.5 1232.33 3257.54 1231.98 3258.53 1231.34 3259.46 1230.4 3260.39 1229.47 3261.31 1228.21 3262.2 1226.61 3263.09 1225.02 3263.99 1223.03 3264.91 1220.66L3268.84 1220.66 3264.75 1236.58 3230.46 1236.58 3230.91 1234.6C3231.94 1234.44 3232.71 1234.17 3233.22 1233.81 3233.73 1233.44 3234.17 1232.94 3234.52 1232.29 3234.87 1231.64 3235.19 1230.85 3235.49 1229.92 3235.79 1228.98 3236.23 1227.18 3236.83 1224.51L3243.72 1193.3C3244.31 1190.6 3244.61 1188.42 3244.61 1186.78 3244.61 1185.51 3244.29 1184.62 3243.66 1184.12 3243.02 1183.62 3242.01 1183.33 3240.64 1183.25ZM3300.93 1180.62C3303.41 1180.62 3305.72 1180.78 3307.84 1181.12 3309.96 1181.46 3312.3 1182.03 3314.87 1182.84L3312.6 1193.26 3308.71 1193.26C3308.6 1190.96 3308.25 1189.16 3307.66 1187.85 3307.06 1186.54 3306.21 1185.6 3305.1 1185.03 3303.99 1184.47 3302.52 1184.18 3300.69 1184.18 3298.44 1184.18 3296.47 1184.64 3294.77 1185.56 3293.07 1186.48 3291.77 1187.73 3290.88 1189.31 3289.99 1190.89 3289.54 1192.65 3289.54 1194.6 3289.54 1196.62 3290.07 1198.4 3291.14 1199.93 3292.21 1201.45 3294.25 1203.26 3297.28 1205.34 3299.93 1207.17 3301.95 1208.82 3303.34 1210.26 3304.73 1211.71 3305.76 1213.24 3306.42 1214.86 3307.08 1216.48 3307.41 1218.36 3307.41 1220.49 3307.41 1223.79 3306.62 1226.72 3305.04 1229.27 3303.46 1231.82 3301.23 1233.79 3298.35 1235.19 3295.48 1236.58 3292.2 1237.27 3288.53 1237.27 3286.04 1237.27 3283.36 1237.07 3280.48 1236.66 3277.6 1236.26 3275.03 1235.75 3272.76 1235.12L3275.19 1223.98 3279.08 1223.98C3279.08 1227.28 3279.85 1229.73 3281.37 1231.34 3282.9 1232.94 3285.26 1233.75 3288.45 1233.75 3292.12 1233.75 3295.01 1232.75 3297.12 1230.75 3299.23 1228.75 3300.28 1225.97 3300.28 1222.4 3300.28 1220.75 3299.99 1219.3 3299.41 1218.04 3298.83 1216.79 3297.95 1215.58 3296.77 1214.44 3295.6 1213.29 3293.9 1211.97 3291.69 1210.48 3289.69 1209.13 3288.03 1207.8 3286.7 1206.49 3285.38 1205.18 3284.33 1203.72 3283.54 1202.1 3282.76 1200.47 3282.37 1198.66 3282.37 1196.66 3282.37 1193.48 3283.14 1190.67 3284.68 1188.23 3286.22 1185.8 3288.39 1183.93 3291.2 1182.6 3294.01 1181.28 3297.25 1180.62 3300.93 1180.62ZM3213.64 1180.62C3216.1 1180.62 3218.38 1180.76 3220.47 1181.06 3222.57 1181.36 3224.9 1181.9 3227.46 1182.68L3225.03 1193.67 3221.14 1193.67C3220.92 1190.34 3220.2 1187.94 3218.97 1186.47 3217.74 1185 3215.76 1184.26 3213.03 1184.26 3209.31 1184.26 3205.84 1186.13 3202.64 1189.86 3199.44 1193.58 3196.9 1198.51 3195.04 1204.63 3193.18 1210.75 3192.24 1216.43 3192.24 1221.67 3192.24 1225.78 3192.97 1228.8 3194.43 1230.75 3195.89 1232.69 3198.13 1233.67 3201.16 1233.67 3203.19 1233.67 3204.96 1233.36 3206.47 1232.75 3207.98 1232.15 3209.4 1231.12 3210.72 1229.67 3212.05 1228.23 3213.36 1226.21 3214.66 1223.62L3218.55 1223.62 3216.07 1235.12C3211.02 1236.53 3205.73 1237.23 3200.19 1237.23 3195.11 1237.23 3191.24 1235.77 3188.6 1232.86 3185.95 1229.94 3184.62 1225.67 3184.62 1220.05 3184.62 1216.08 3185.33 1211.5 3186.75 1206.31 3188.17 1201.12 3190.18 1196.57 3192.77 1192.65 3195.36 1188.73 3198.43 1185.75 3201.97 1183.7 3205.51 1181.64 3209.4 1180.62 3213.64 1180.62Z" fill="#D74514" fill-rule="evenodd"/><text fill="#000000" fill-opacity="0" font-family="Arial,Arial_MSFontService,sans-serif" font-size="56.6572" x="3184.62" y="1230.19">𝐶𝐿𝑆</text><path d="M3338.76 1213.43 3341.44 1213.43 3341.02 1220.63 3323.57 1220.63 3323.57 1232.28C3324.62 1231.92 3325.77 1231.63 3327.02 1231.42 3328.28 1231.2 3329.54 1231.09 3330.81 1231.09 3332.63 1231.09 3334.29 1231.34 3335.77 1231.85 3337.25 1232.35 3338.52 1233.08 3339.58 1234.02 3340.64 1234.97 3341.47 1236.11 3342.05 1237.45 3342.64 1238.79 3342.93 1240.29 3342.93 1241.96 3342.93 1243.87 3342.6 1245.56 3341.95 1247.05 3341.29 1248.54 3340.35 1249.81 3339.13 1250.85 3337.91 1251.89 3336.42 1252.69 3334.66 1253.23 3332.91 1253.78 3330.93 1254.05 3328.72 1254.05 3326.98 1254.05 3325.19 1253.88 3323.36 1253.55 3321.53 1253.21 3319.64 1252.71 3317.67 1252.06L3317.67 1245.45 3321.48 1245.45C3322.08 1247.45 3322.97 1248.89 3324.17 1249.75 3325.36 1250.61 3326.93 1251.04 3328.87 1251.04 3331.47 1251.04 3333.44 1250.37 3334.77 1249.02 3336.1 1247.67 3336.76 1245.55 3336.76 1242.68 3336.76 1239.92 3336.06 1237.86 3334.65 1236.52 3333.24 1235.18 3331.26 1234.51 3328.72 1234.51 3328.05 1234.51 3327.44 1234.52 3326.89 1234.54 3326.34 1234.56 3325.8 1234.61 3325.27 1234.69 3324.73 1234.77 3324.2 1234.88 3323.67 1235.02 3323.15 1235.16 3322.56 1235.32 3321.9 1235.5L3319.46 1234.16 3319.46 1215.42 3335.96 1215.42C3336.44 1215.4 3336.82 1215.37 3337.11 1215.33 3337.4 1215.29 3337.63 1215.2 3337.81 1215.06 3337.99 1214.93 3338.14 1214.73 3338.28 1214.48 3338.42 1214.24 3338.58 1213.88 3338.76 1213.43Z" fill="#D74514" fill-rule="evenodd"/><text fill="#000000" fill-opacity="0" font-family="Arial,Arial_MSFontService,sans-serif" font-size="40.627" x="3317.67" y="1248.97">5</text><path d="M3042.5 368.5 3049.73 2187.84" stroke="#5D1709" stroke-width="9.16667" stroke-miterlimit="8" fill="none" fill-rule="evenodd"/><path d="M2831.39 2432.75 3255.04 2432.75 3255.04 2672.25 2831.39 2672.25Z" fill="#D74514" fill-rule="evenodd"/><path d="M3255.04 2432.75 3678.68 2432.75 3678.68 2672.25 3255.04 2672.25Z" fill="#D74514" fill-rule="evenodd"/><path d="M3678.68 2432.75 4102.32 2432.75 4102.32 2672.25 3678.68 2672.25Z" fill="#D74514" fill-rule="evenodd"/><path d="M4102.32 2432.75 4525.96 2432.75 4525.96 2672.25 4102.32 2672.25Z" fill="#D74514" fill-rule="evenodd"/><path d="M4525.96 2432.75 4949.6 2432.75 4949.6 2672.25 4525.96 2672.25Z" fill="#D74514" fill-rule="evenodd"/><path d="M3255.04 2430.45 3255.04 2674.55" stroke="#000000" stroke-width="4.58333" stroke-linejoin="round" stroke-miterlimit="10" fill="none" fill-rule="evenodd"/><path d="M3678.68 2430.45 3678.68 2674.55" stroke="#000000" stroke-width="4.58333" stroke-linejoin="round" stroke-miterlimit="10" fill="none" fill-rule="evenodd"/><path d="M4102.32 2430.45 4102.32 2674.55" stroke="#000000" stroke-width="4.58333" stroke-linejoin="round" stroke-miterlimit="10" fill="none" fill-rule="evenodd"/><path d="M4525.96 2430.45 4525.96 2674.55" stroke="#000000" stroke-width="4.58333" stroke-linejoin="round" stroke-miterlimit="10" fill="none" fill-rule="evenodd"/><path d="M2831.39 2430.45 2831.39 2674.55" stroke="#000000" stroke-width="4.58333" stroke-linejoin="round" stroke-miterlimit="10" fill="none" fill-rule="evenodd"/><path d="M4949.6 2430.45 4949.6 2674.55" stroke="#000000" stroke-width="4.58333" stroke-linejoin="round" stroke-miterlimit="10" fill="none" fill-rule="evenodd"/><path d="M2829.1 2432.75 4951.89 2432.75" stroke="#000000" stroke-width="4.58333" stroke-linejoin="round" stroke-miterlimit="10" fill="none" fill-rule="evenodd"/><path d="M2829.1 2672.25 4951.89 2672.25" stroke="#000000" stroke-width="4.58333" stroke-linejoin="round" stroke-miterlimit="10" fill="none" fill-rule="evenodd"/><text fill="#FFFFFF" font-family="DengXian,DengXian_MSFontService,sans-serif" font-weight="700" font-size="83" transform="matrix(1 0 0 1 3015.43 2580)">A<tspan font-size="83" x="426.506" y="0">B</tspan><tspan font-size="83" x="849.574" y="0">C</tspan><tspan font-size="83" x="1269.2" y="0">D</tspan><tspan font-size="83" x="1700.87" y="0">E</tspan></text><path d="M3048.5 2190.5 3469.02 2332.97" stroke="#5D1709" stroke-width="9.16667" stroke-miterlimit="8" fill="none" fill-rule="evenodd"/><path d="M3474.08 2330.5 3474.08 2389.73 3464.92 2389.73 3464.92 2330.5ZM3492.42 2385.15 3469.5 2430.98 3446.58 2385.15Z" fill="#5D1709"/><path d="M3053.08 2330.5 3053.08 2389.73 3043.92 2389.73 3043.92 2330.5ZM3071.42 2385.15 3048.5 2430.98 3025.58 2385.15Z" fill="#5D1709"/><path d="M3901.08 2333.5 3901.08 2392.73 3891.92 2392.73 3891.92 2333.5ZM3919.42 2388.15 3896.5 2433.98 3873.58 2388.15Z" fill="#5D1709"/><path d="M4322.08 2333.5 4322.08 2392.73 4312.92 2392.73 4312.92 2333.5ZM4340.42 2388.15 4317.5 2433.98 4294.58 2388.15Z" fill="#5D1709"/><path d="M3471.5 2195.5 3896.5 2335.9" stroke="#5D1709" stroke-width="9.16667" stroke-miterlimit="8" fill="none" fill-rule="evenodd"/><path d="M3893.5 2192.5 4315.65 2335.82" stroke="#5D1709" stroke-width="9.16667" stroke-miterlimit="8" fill="none" fill-rule="evenodd"/><path d="M0 0 1697.3 137.382" stroke="#5D1709" stroke-width="9.16667" stroke-miterlimit="8" fill="none" fill-rule="evenodd" transform="matrix(-1 0 0 1 4745.8 2192.5)"/><path d="M4666.5 890.5C4666.5 849.631 4699.63 816.5 4740.5 816.5 4781.37 816.5 4814.5 849.631 4814.5 890.5 4814.5 931.369 4781.37 964.5 4740.5 964.5 4699.63 964.5 4666.5 931.369 4666.5 890.5Z" stroke="#D74514" stroke-width="9.16667" stroke-miterlimit="8" fill="none" fill-rule="evenodd"/><path d="M0 0 148.129 0.000360892" stroke="#D74514" stroke-width="9.16667" stroke-miterlimit="8" fill="none" fill-rule="evenodd" transform="matrix(-1 0 0 1 4814.63 890.5)"/><path d="M0 0 0.000360892 148.129" stroke="#D74514" stroke-width="9.16667" stroke-miterlimit="8" fill="none" fill-rule="evenodd" transform="matrix(1 0 0 -1 4740.5 964.629)"/><path d="M4967.05 1524.08 4983.95 1524.08 4983.51 1526.06C4982.29 1526.14 4981.34 1526.5 4980.65 1527.14 4979.96 1527.77 4979.48 1528.64 4979.21 1529.73 4978.94 1530.82 4978.81 1532.37 4978.81 1534.37L4978.81 1535.75C4978.81 1536.23 4978.82 1536.73 4978.85 1537.25L4979.21 1553.09C4979.24 1554.26 4979.25 1557.13 4979.25 1561.73L4979.21 1570.2 4979.62 1570.2 5002.03 1524.08 5008.15 1524.08 5008.15 1551.11C5008.15 1555.57 5008.03 1561.93 5007.78 1570.2L5008.19 1570.2 5024.6 1538.46C5025.23 1537.27 5025.88 1535.88 5026.57 1534.27 5027.26 1532.66 5027.6 1531.28 5027.6 1530.11 5027.6 1527.85 5026.25 1526.49 5023.55 1526.06L5024 1524.08 5040.57 1524.08 5040.13 1526.06C5038.88 1526.22 5037.69 1526.91 5036.56 1528.11 5035.42 1529.31 5033.91 1531.65 5032.02 1535.14L5007.66 1579.92 5001.42 1579.92 5001.42 1550.26C5001.42 1545.45 5001.54 1540.44 5001.79 1535.22L5001.38 1535.22 4979.7 1579.92 4973.34 1579.92 4971.43 1534.86C4971.32 1532.61 4971.09 1530.9 4970.72 1529.71 4970.36 1528.52 4969.86 1527.66 4969.24 1527.12 4968.62 1526.58 4967.74 1526.22 4966.61 1526.06Z" fill="#D74514" fill-rule="evenodd"/><text fill="#000000" fill-opacity="0" font-family="Arial,Arial_MSFontService,sans-serif" font-size="55.8467" x="4966.61" y="1572.94">𝑊</text><path d="M5042.7 1558.89 5047.34 1558.89 5045.65 1566.45 5055.77 1566.45 5055.09 1569.76 5044.99 1569.76 5041.95 1582.24C5041.75 1583.07 5041.59 1583.82 5041.46 1584.49 5041.33 1585.15 5041.23 1585.76 5041.15 1586.29 5041.07 1586.83 5041.01 1587.31 5040.98 1587.75 5040.95 1588.19 5040.94 1588.59 5040.94 1588.97 5040.94 1590.16 5041.19 1591.1 5041.68 1591.77 5042.18 1592.45 5042.99 1592.78 5044.13 1592.78 5045.08 1592.78 5046.09 1592.43 5047.16 1591.73 5048.24 1591.02 5049.46 1589.92 5050.83 1588.41L5052.88 1590.49C5051.87 1591.62 5050.91 1592.59 5049.99 1593.38 5049.08 1594.17 5048.19 1594.82 5047.31 1595.33 5046.44 1595.84 5045.58 1596.2 5044.72 1596.43 5043.87 1596.66 5042.99 1596.78 5042.1 1596.78 5039.74 1596.78 5037.98 1596.22 5036.81 1595.11 5035.65 1594 5035.07 1592.36 5035.07 1590.19 5035.07 1589.46 5035.13 1588.65 5035.24 1587.77 5035.34 1586.88 5035.5 1586.02 5035.7 1585.19L5039.24 1569.76 5034.12 1569.76 5034.71 1567.47C5035.91 1567.47 5036.83 1567.35 5037.5 1567.12 5038.16 1566.9 5038.73 1566.58 5039.18 1566.19 5039.48 1565.91 5039.77 1565.57 5040.05 1565.16 5040.32 1564.75 5040.6 1564.26 5040.88 1563.68 5041.16 1563.11 5041.44 1562.43 5041.73 1561.64 5042.02 1560.86 5042.34 1559.94 5042.7 1558.89Z" fill="#D74514" fill-rule="evenodd"/><text fill="#000000" fill-opacity="0" font-family="Arial,Arial_MSFontService,sans-serif" font-size="37.8867" x="5034.12" y="1592.04">𝑡</text><path d="M4401 625.5C4401 561.159 4466.81 509 4548 509 4629.19 509 4695 561.159 4695 625.5 4695 689.841 4629.19 742 4548 742 4466.81 742 4401 689.841 4401 625.5Z" fill="#FDEFE8" fill-rule="evenodd"/><path d="M4543.16 594.873C4545.81 594.873 4548.09 595.09 4550.01 595.522L4548.43 602.411 4544.86 602.411C4544.48 600.871 4543.99 599.764 4543.38 599.088 4542.77 598.413 4541.88 598.075 4540.69 598.075 4539.15 598.075 4537.84 598.501 4536.77 599.352 4535.71 600.203 4534.8 601.466 4534.04 603.141 4533.28 604.816 4532.58 607.072 4531.93 609.909L4530.92 614.327 4541.33 614.327 4540.44 618.42 4529.99 618.42 4522.45 653.76C4521.21 659.623 4519.3 663.993 4516.73 666.87 4514.17 669.748 4510.94 671.186 4507.05 671.186 4505.91 671.186 4505.02 671.119 4504.37 670.984L4505.06 667.417C4505.33 667.498 4505.97 667.539 4506.97 667.539 4508.18 667.539 4509.22 667.228 4510.09 666.607 4510.95 665.985 4511.76 664.905 4512.5 663.365 4513.24 661.825 4513.92 659.69 4514.55 656.961L4523.26 618.42 4516.41 618.42 4517.02 615.623C4518.83 615.515 4520.13 615.367 4520.93 615.178 4521.73 614.988 4522.35 614.705 4522.79 614.327 4523.24 613.948 4523.62 613.455 4523.93 612.847 4524.24 612.239 4524.64 611.125 4525.12 609.504 4526.56 604.641 4528.76 600.986 4531.75 598.541 4534.74 596.096 4538.54 594.873 4543.16 594.873Z" fill="#D74514" fill-rule="evenodd"/><text fill="#000000" fill-opacity="0" font-family="Arial,Arial_MSFontService,sans-serif" font-size="76.313" x="4504.37" y="661.647">𝑓</text><path d="M4550.17 632.564 4554.82 632.564 4553.12 640.129 4563.25 640.129 4562.56 643.435 4552.46 643.435 4549.43 655.915C4549.23 656.749 4549.06 657.499 4548.93 658.164 4548.81 658.829 4548.7 659.43 4548.62 659.966 4548.54 660.502 4548.49 660.989 4548.46 661.426 4548.43 661.862 4548.41 662.27 4548.41 662.647 4548.41 663.838 4548.66 664.772 4549.16 665.447 4549.65 666.122 4550.47 666.459 4551.6 666.459 4552.55 666.459 4553.57 666.107 4554.64 665.402 4555.71 664.697 4556.93 663.59 4558.3 662.081L4560.36 664.166C4559.34 665.298 4558.38 666.261 4557.47 667.055 4556.55 667.849 4555.66 668.5 4554.79 669.006 4553.91 669.512 4553.05 669.88 4552.2 670.108 4551.34 670.336 4550.47 670.451 4549.57 670.451 4547.21 670.451 4545.45 669.895 4544.29 668.783 4543.13 667.671 4542.55 666.032 4542.55 663.868 4542.55 663.133 4542.6 662.324 4542.71 661.441 4542.82 660.557 4542.97 659.698 4543.17 658.864L4546.72 643.435 4541.59 643.435 4542.19 641.142C4543.38 641.142 4544.31 641.028 4544.97 640.799 4545.64 640.571 4546.2 640.258 4546.66 639.861 4546.95 639.583 4547.24 639.241 4547.52 638.834 4547.8 638.427 4548.08 637.935 4548.35 637.359 4548.63 636.783 4548.91 636.103 4549.2 635.319 4549.49 634.535 4549.81 633.616 4550.17 632.564Z" fill="#D74514" fill-rule="evenodd"/><text fill="#000000" fill-opacity="0" font-family="Arial,Arial_MSFontService,sans-serif" font-size="37.8867" x="4541.59" y="665.715">𝑡</text><path d="M4745.08 368.499 4745.14 774.8 4735.97 774.801 4735.92 368.501ZM4763.47 770.214 4740.56 816.05 4717.64 770.22Z" fill="#5D1709"/><path d="M0-4.58333 152.713-4.58333 152.713 76.804 143.546 76.804 143.546 0 148.13 4.58333 0 4.58333ZM171.046 72.2207 148.13 118.054 125.213 72.2207Z" fill="#5D1709" transform="matrix(1.83697e-16 1 1 -1.83697e-16 4548.5 742.5)"/><path d="M4665.5 1209.5C4665.5 1168.63 4698.63 1135.5 4739.5 1135.5 4780.37 1135.5 4813.5 1168.63 4813.5 1209.5 4813.5 1250.37 4780.37 1283.5 4739.5 1283.5 4698.63 1283.5 4665.5 1250.37 4665.5 1209.5Z" stroke="#D74514" stroke-width="9.16667" stroke-miterlimit="8" fill="none" fill-rule="evenodd"/><path d="M0 0 148.129 0.000360892" stroke="#D74514" stroke-width="9.16667" stroke-miterlimit="8" fill="none" fill-rule="evenodd" transform="matrix(-1 0 0 1 4813.63 1209.5)"/><path d="M0 0 0.000360892 148.129" stroke="#D74514" stroke-width="9.16667" stroke-miterlimit="8" fill="none" fill-rule="evenodd" transform="matrix(1 0 0 -1 4739.5 1283.63)"/><path d="M4668.5 1552.5C4668.5 1511.63 4701.63 1478.5 4742.5 1478.5 4783.37 1478.5 4816.5 1511.63 4816.5 1552.5 4816.5 1593.37 4783.37 1626.5 4742.5 1626.5 4701.63 1626.5 4668.5 1593.37 4668.5 1552.5Z" stroke="#D74514" stroke-width="9.16667" stroke-miterlimit="8" fill="none" fill-rule="evenodd"/><path d="M0 0 148.129 0.000360892" stroke="#D74514" stroke-width="9.16667" stroke-miterlimit="8" fill="none" fill-rule="evenodd" transform="matrix(-1 0 0 1 4816.63 1552.5)"/><path d="M0 0 0.000360892 148.129" stroke="#D74514" stroke-width="9.16667" stroke-miterlimit="8" fill="none" fill-rule="evenodd" transform="matrix(1 0 0 -1 4742.5 1626.63)"/><path d="M4668.5 1896.5C4668.5 1855.63 4701.63 1822.5 4742.5 1822.5 4783.37 1822.5 4816.5 1855.63 4816.5 1896.5 4816.5 1937.37 4783.37 1970.5 4742.5 1970.5 4701.63 1970.5 4668.5 1937.37 4668.5 1896.5Z" stroke="#D74514" stroke-width="9.16667" stroke-miterlimit="8" fill="none" fill-rule="evenodd"/><path d="M0 0 148.129 0.000360892" stroke="#D74514" stroke-width="9.16667" stroke-miterlimit="8" fill="none" fill-rule="evenodd" transform="matrix(-1 0 0 1 4816.63 1896.5)"/><path d="M0 0 0.000360892 148.129" stroke="#D74514" stroke-width="9.16667" stroke-miterlimit="8" fill="none" fill-rule="evenodd" transform="matrix(1 0 0 -1 4742.5 1970.63)"/><path d="M4.58328-0.0230823 5.23626 129.636-3.93029 129.682-4.58328 0.0230823ZM23.5463 124.96 0.860728 170.909-22.2865 125.191Z" fill="#5D1709" transform="matrix(-1 0 0 1 4740.36 964.5)"/><path d="M4744.08 1283.43 4746.33 1436.87 4737.17 1437 4734.92 1283.57ZM4764.6 1432.02 4742.35 1478.18 4718.77 1432.69Z" fill="#5D1709"/><path d="M4.58333-8.42207e-06 4.58362 155.149-4.58305 155.149-4.58333 8.42207e-06ZM22.9169 150.566 0.000360892 196.399-22.9164 150.566Z" fill="#5D1709" transform="matrix(-1 0 0 1 4742.5 1626.5)"/><path d="M3423.5 1204.92 4624.08 1204.92 4624.08 1214.08 3423.5 1214.08ZM4619.5 1186.58 4665.33 1209.5 4619.5 1232.42Z" fill="#5D1709"/><path d="M0.116366-4.58186 38.6546-3.6031 38.4218 5.56061-0.116366 4.58186ZM34.5382-22.0469 79.7749 2.02605 33.3745 23.7717Z" fill="#5D1709" transform="matrix(1 0 0 -1 3049.5 1211.53)"/><path d="M3320 1896.5C3320 1832.16 3385.81 1780 3467 1780 3548.19 1780 3614 1832.16 3614 1896.5 3614 1960.84 3548.19 2013 3467 2013 3385.81 2013 3320 1960.84 3320 1896.5Z" fill="#FDEFE8" fill-rule="evenodd"/><path d="M3414.53 1868.7 3430.74 1868.7 3430.3 1870.68C3429.27 1870.9 3428.53 1871.14 3428.09 1871.41 3427.64 1871.68 3427.24 1872.09 3426.89 1872.63 3426.54 1873.17 3426.18 1874.01 3425.8 1875.16 3425.42 1876.31 3424.95 1878.18 3424.38 1880.77L3415.71 1920.29 3425.68 1920.29C3427.49 1920.29 3428.91 1920.11 3429.95 1919.76 3430.99 1919.41 3431.98 1918.77 3432.91 1917.84 3433.84 1916.9 3434.76 1915.64 3435.65 1914.05 3436.54 1912.45 3437.44 1910.47 3438.36 1908.09L3442.29 1908.09 3438.2 1924.02 3403.91 1924.02 3404.36 1922.03C3405.39 1921.87 3406.16 1921.61 3406.67 1921.24 3407.18 1920.88 3407.62 1920.37 3407.97 1919.72 3408.32 1919.07 3408.64 1918.28 3408.94 1917.35 3409.24 1916.42 3409.68 1914.61 3410.28 1911.94L3417.17 1880.73C3417.76 1878.03 3418.06 1875.86 3418.06 1874.21 3418.06 1872.94 3417.74 1872.05 3417.11 1871.55 3416.47 1871.05 3415.46 1870.76 3414.09 1870.68ZM3474.38 1868.05C3476.86 1868.05 3479.17 1868.22 3481.29 1868.55 3483.41 1868.89 3485.75 1869.47 3488.32 1870.28L3486.05 1880.69 3482.16 1880.69C3482.05 1878.4 3481.7 1876.59 3481.11 1875.28 3480.51 1873.97 3479.66 1873.03 3478.55 1872.47 3477.45 1871.9 3475.97 1871.61 3474.14 1871.61 3471.89 1871.61 3469.92 1872.07 3468.22 1872.99 3466.52 1873.91 3465.22 1875.16 3464.33 1876.74 3463.44 1878.32 3462.99 1880.08 3462.99 1882.03 3462.99 1884.06 3463.52 1885.83 3464.59 1887.36 3465.66 1888.89 3467.7 1890.69 3470.73 1892.77 3473.38 1894.61 3475.4 1896.25 3476.79 1897.69 3478.18 1899.14 3479.21 1900.67 3479.87 1902.29 3480.53 1903.92 3480.86 1905.79 3480.86 1907.93 3480.86 1911.22 3480.07 1914.15 3478.49 1916.7 3476.91 1919.25 3474.68 1921.23 3471.8 1922.62 3468.93 1924.01 3465.65 1924.71 3461.98 1924.71 3459.49 1924.71 3456.81 1924.5 3453.93 1924.1 3451.05 1923.69 3448.48 1923.18 3446.21 1922.56L3448.64 1911.41 3452.53 1911.41C3452.53 1914.71 3453.3 1917.16 3454.82 1918.77 3456.35 1920.38 3458.71 1921.18 3461.9 1921.18 3465.57 1921.18 3468.46 1920.18 3470.57 1918.18 3472.68 1916.18 3473.73 1913.4 3473.73 1909.83 3473.73 1908.18 3473.44 1906.73 3472.86 1905.48 3472.28 1904.22 3471.4 1903.02 3470.22 1901.87 3469.05 1900.72 3467.35 1899.4 3465.14 1897.92 3463.14 1896.57 3461.48 1895.24 3460.15 1893.93 3458.83 1892.61 3457.78 1891.15 3456.99 1889.53 3456.21 1887.91 3455.82 1886.1 3455.82 1884.1 3455.82 1880.91 3456.59 1878.1 3458.13 1875.67 3459.67 1873.24 3461.84 1871.36 3464.65 1870.03 3467.46 1868.71 3470.7 1868.05 3474.38 1868.05ZM3387.09 1868.05C3389.55 1868.05 3391.83 1868.2 3393.92 1868.49 3396.02 1868.79 3398.35 1869.33 3400.91 1870.12L3398.48 1881.1 3394.59 1881.1C3394.37 1877.77 3393.65 1875.38 3392.42 1873.9 3391.19 1872.43 3389.21 1871.7 3386.48 1871.7 3382.76 1871.7 3379.29 1873.56 3376.09 1877.29 3372.89 1881.02 3370.35 1885.94 3368.49 1892.06 3366.63 1898.18 3365.69 1903.86 3365.69 1909.1 3365.69 1913.21 3366.42 1916.24 3367.88 1918.18 3369.34 1920.13 3371.58 1921.1 3374.61 1921.1 3376.64 1921.1 3378.41 1920.79 3379.92 1920.19 3381.43 1919.58 3382.85 1918.55 3384.17 1917.11 3385.5 1915.66 3386.81 1913.64 3388.11 1911.05L3392 1911.05 3389.52 1922.56C3384.47 1923.96 3379.18 1924.67 3373.64 1924.67 3368.56 1924.67 3364.69 1923.21 3362.05 1920.29 3359.4 1917.37 3358.08 1913.1 3358.08 1907.48 3358.08 1903.51 3358.78 1898.93 3360.2 1893.74 3361.62 1888.56 3363.63 1884 3366.22 1880.08 3368.81 1876.17 3371.88 1873.18 3375.42 1871.13 3378.96 1869.08 3382.85 1868.05 3387.09 1868.05Z" fill="#D74514" fill-rule="evenodd"/><text fill="#000000" fill-opacity="0" font-family="Arial,Arial_MSFontService,sans-serif" font-size="56.6572" x="3358.08" y="1917.62">𝐶𝐿𝑆</text><path d="M3538.57 1905.18C3537.18 1905.18 3536.02 1905.54 3535.09 1906.26 3534.15 1906.99 3533.42 1908.05 3532.87 1909.45 3532.32 1910.85 3531.94 1912.56 3531.71 1914.57 3531.48 1916.59 3531.36 1918.88 3531.36 1921.44 3531.36 1924.4 3531.51 1926.96 3531.8 1929.11 3532.08 1931.26 3532.53 1933.04 3533.14 1934.43 3533.74 1935.82 3534.5 1936.84 3535.42 1937.49 3536.33 1938.15 3537.42 1938.48 3538.69 1938.48 3539.88 1938.48 3540.93 1938.17 3541.82 1937.55 3542.71 1936.94 3543.45 1935.98 3544.04 1934.68 3544.62 1933.38 3545.07 1931.73 3545.36 1929.74 3545.66 1927.74 3545.81 1925.38 3545.81 1922.66 3545.81 1919.6 3545.65 1916.97 3545.32 1914.77 3544.99 1912.56 3544.53 1910.75 3543.93 1909.33 3543.34 1907.91 3542.59 1906.87 3541.69 1906.19 3540.78 1905.52 3539.74 1905.18 3538.57 1905.18ZM3538.69 1902.29C3541.05 1902.29 3543.08 1902.73 3544.75 1903.61 3546.43 1904.5 3547.8 1905.76 3548.86 1907.4 3549.93 1909.03 3550.71 1911.04 3551.2 1913.4 3551.7 1915.76 3551.95 1918.43 3551.95 1921.41 3551.95 1928.02 3550.77 1933.02 3548.43 1936.41 3546.09 1939.79 3542.69 1941.49 3538.25 1941.49 3533.84 1941.49 3530.56 1939.89 3528.42 1936.69 3526.27 1933.49 3525.2 1928.65 3525.2 1922.16 3525.2 1918.76 3525.53 1915.82 3526.2 1913.34 3526.86 1910.86 3527.8 1908.8 3529 1907.16 3530.2 1905.52 3531.62 1904.3 3533.27 1903.49 3534.92 1902.69 3536.73 1902.29 3538.69 1902.29ZM3503.63 1902.29C3505.22 1902.29 3506.71 1902.46 3508.09 1902.79 3509.47 1903.13 3510.66 1903.64 3511.67 1904.33 3512.69 1905.01 3513.48 1905.87 3514.04 1906.89 3514.61 1907.91 3514.89 1909.1 3514.89 1910.45 3514.89 1911.72 3514.71 1912.84 3514.35 1913.82 3514 1914.79 3513.45 1915.67 3512.7 1916.47 3511.96 1917.26 3511.04 1917.98 3509.96 1918.63 3508.88 1919.27 3507.63 1919.89 3506.22 1920.49L3506.22 1920.84C3507.55 1921.08 3508.8 1921.47 3509.95 1921.99 3511.1 1922.52 3512.11 1923.18 3512.97 1923.99 3513.83 1924.79 3514.51 1925.72 3515.01 1926.77 3515.51 1927.82 3515.75 1928.99 3515.75 1930.26 3515.75 1931.85 3515.46 1933.32 3514.86 1934.68 3514.27 1936.04 3513.37 1937.22 3512.18 1938.21 3510.99 1939.2 3509.52 1939.98 3507.77 1940.53 3506.03 1941.09 3503.98 1941.37 3501.64 1941.37 3499.79 1941.37 3497.91 1941.18 3496.01 1940.82 3494.1 1940.45 3492.29 1939.97 3490.59 1939.37L3490.59 1932.94 3494.43 1932.94C3494.75 1933.93 3495.12 1934.78 3495.56 1935.48 3496 1936.19 3496.51 1936.76 3497.09 1937.21 3497.68 1937.66 3498.36 1937.98 3499.12 1938.18 3499.88 1938.38 3500.75 1938.48 3501.73 1938.48 3504.29 1938.48 3506.23 1937.87 3507.55 1936.65 3508.87 1935.42 3509.53 1933.57 3509.53 1931.09 3509.53 1928.45 3508.66 1926.45 3506.92 1925.09 3505.19 1923.73 3502.61 1923.05 3499.19 1923.05L3496.57 1923.05 3496.57 1920.19C3498.66 1920.09 3500.46 1919.8 3501.98 1919.31 3503.5 1918.82 3504.76 1918.19 3505.78 1917.42 3506.79 1916.65 3507.54 1915.74 3508.04 1914.71 3508.54 1913.68 3508.79 1912.57 3508.79 1911.4 3508.79 1909.5 3508.22 1907.99 3507.09 1906.89 3505.96 1905.79 3504.32 1905.24 3502.17 1905.24 3500.37 1905.24 3498.85 1905.73 3497.63 1906.73 3496.41 1907.72 3495.47 1909.2 3494.82 1911.16L3491.03 1911.16 3491.03 1905.3C3493.38 1904.3 3495.59 1903.55 3497.66 1903.05 3499.74 1902.54 3501.73 1902.29 3503.63 1902.29Z" fill="#D74514" fill-rule="evenodd"/><text fill="#000000" fill-opacity="0" font-family="Arial,Arial_MSFontService,sans-serif" font-size="39.1973" x="3490.59" y="1936.59">30</text><path d="M3472.08 1626.5 3472.08 1739.46 3462.92 1739.46 3462.92 1626.5ZM3490.42 1734.88 3467.5 1780.71 3444.58 1734.88Z" fill="#5D1709"/><path d="M3468.5 372.5 3468.5 1671.71" stroke="#5D1709" stroke-width="9.16667" stroke-miterlimit="8" fill="none" fill-rule="evenodd"/><path d="M3459.5 372.5 3459.5 1671.71" stroke="#FFFFFF" stroke-width="9.16667" stroke-miterlimit="8" fill="none" fill-rule="evenodd"/><path d="M3477.5 372.5 3477.5 1671.71" stroke="#FFFFFF" stroke-width="9.16667" stroke-miterlimit="8" fill="none" fill-rule="evenodd"/><path d="M0.00435739-4.58333 933.201-3.69614 933.193 5.47053-0.00435739 4.58333ZM928.636-22.0338 974.447 0.926411 928.592 23.7995Z" fill="#5D1709" transform="matrix(1 0 0 -1 3469.5 544.426)"/><path d="M3895.5 372.5 3895.5 2189.97" stroke="#5D1709" stroke-width="9.16667" stroke-miterlimit="8" fill="none" fill-rule="evenodd"/><path d="M3885.5 372.5 3885.5 2189.97" stroke="#FFFFFF" stroke-width="9.16667" stroke-miterlimit="8" fill="none" fill-rule="evenodd"/><path d="M3904.5 372.5 3904.5 2189.97" stroke="#FFFFFF" stroke-width="9.16667" stroke-miterlimit="8" fill="none" fill-rule="evenodd"/><path d="M3893.5 621.917 4359.74 621.917 4359.74 631.084 3893.5 631.083ZM4355.15 603.584 4400.99 626.501 4355.15 649.417Z" fill="#5D1709"/><path d="M4318.5 375.5 4318.5 2192.97" stroke="#5D1709" stroke-width="9.16667" stroke-miterlimit="8" fill="none" fill-rule="evenodd"/><path d="M4308.5 375.5 4308.5 2192.97" stroke="#FFFFFF" stroke-width="9.16667" stroke-miterlimit="8" fill="none" fill-rule="evenodd"/><path d="M4327.5 375.5 4327.5 2192.97" stroke="#FFFFFF" stroke-width="9.16667" stroke-miterlimit="8" fill="none" fill-rule="evenodd"/><path d="M4318.5 703.917 4403.62 703.917 4403.62 713.083 4318.5 713.083ZM4399.04 685.583 4444.88 708.5 4399.04 731.417Z" fill="#5D1709"/><path d="M4748.08 2333.5 4748.08 2392.73 4738.92 2392.73 4738.92 2333.5ZM4766.42 2388.15 4743.5 2433.98 4720.58 2388.15Z" fill="#5D1709"/><path d="M3467.5 2013.5 3469.89 2195.94" stroke="#5D1709" stroke-width="9.16667" stroke-miterlimit="8" fill="none" fill-rule="evenodd"/><path d="M4320.5 2192.5 4743.91 2330.32" stroke="#5D1709" stroke-width="9.16667" stroke-miterlimit="8" fill="none" fill-rule="evenodd"/><path d="M0 0 0.000360892 224.815" stroke="#5D1709" stroke-width="9.16667" stroke-miterlimit="8" fill="none" fill-rule="evenodd" transform="matrix(-1 0 0 1 4742.5 1970.5)"/><path d="M4983.42 1868.7 4999.63 1868.7 4999.18 1870.68C4998.16 1870.9 4997.42 1871.14 4996.97 1871.41 4996.53 1871.68 4996.13 1872.09 4995.78 1872.63 4995.43 1873.17 4995.06 1874.01 4994.68 1875.16 4994.31 1876.31 4993.83 1878.18 4993.27 1880.77L4990.39 1893.7 4991.73 1893.7C4992.86 1893.7 4993.89 1893.51 4994.83 1893.13 4995.76 1892.76 4996.85 1892.07 4998.09 1891.07 4999.33 1890.07 5001.31 1888.23 5004.02 1885.56 5006.74 1882.88 5008.67 1880.85 5009.82 1879.46 5010.97 1878.07 5011.81 1876.86 5012.33 1875.85 5012.86 1874.84 5013.12 1873.91 5013.12 1873.07 5013.12 1872.4 5012.85 1871.85 5012.31 1871.43 5011.77 1871.01 5011 1870.76 5010 1870.68L5010.45 1868.7 5027.83 1868.7 5027.39 1870.68C5026.31 1870.84 5025.09 1871.41 5023.72 1872.36 5022.36 1873.32 5020.27 1875.19 5017.46 1877.98L5001.74 1893.3 5010.37 1914.05C5011.26 1916.18 5012 1917.72 5012.58 1918.67 5013.16 1919.61 5013.85 1920.36 5014.66 1920.92 5015.47 1921.47 5016.47 1921.84 5017.66 1922.03L5017.22 1924.02 5001.57 1924.02 5002.02 1922.03C5003.48 1921.9 5004.21 1921.25 5004.21 1920.09 5004.21 1919.36 5004.06 1918.53 5003.76 1917.59 5003.46 1916.66 5003.11 1915.69 5002.71 1914.7L4997.44 1901.81C4996.82 1900.27 4996.28 1899.19 4995.82 1898.57 4995.36 1897.94 4994.87 1897.51 4994.36 1897.27 4993.85 1897.03 4993.05 1896.9 4991.97 1896.9L4989.7 1896.9 4986.33 1912.22C4985.98 1913.84 4985.75 1915.12 4985.65 1916.05 4985.54 1916.99 4985.48 1917.82 4985.48 1918.55 4985.48 1919.76 4985.79 1920.62 4986.4 1921.12 4987 1921.62 4988.02 1921.92 4989.46 1922.03L4989.01 1924.02 4972.8 1924.02 4973.24 1922.03C4974.27 1921.87 4975.04 1921.61 4975.55 1921.24 4976.07 1920.88 4976.5 1920.37 4976.85 1919.72 4977.2 1919.07 4977.53 1918.28 4977.82 1917.35 4978.12 1916.42 4978.57 1914.61 4979.16 1911.94L4986.05 1880.73C4986.65 1878.03 4986.94 1875.86 4986.94 1874.21 4986.94 1872.94 4986.63 1872.05 4985.99 1871.55 4985.36 1871.05 4984.35 1870.76 4982.97 1870.68Z" fill="#D74514" fill-rule="evenodd"/><text fill="#000000" fill-opacity="0" font-family="Arial,Arial_MSFontService,sans-serif" font-size="55.3198" x="4972.8" y="1917.1">𝐾</text><path d="M5034.56 1903.51 5039.21 1903.51 5037.51 1911.08 5047.64 1911.08 5046.95 1914.38 5036.85 1914.38 5033.82 1926.86C5033.62 1927.7 5033.45 1928.44 5033.32 1929.11 5033.2 1929.78 5033.09 1930.38 5033.01 1930.91 5032.93 1931.45 5032.88 1931.93 5032.85 1932.37 5032.82 1932.81 5032.8 1933.22 5032.8 1933.59 5032.8 1934.78 5033.05 1935.72 5033.55 1936.39 5034.04 1937.07 5034.86 1937.41 5035.99 1937.41 5036.94 1937.41 5037.96 1937.05 5039.03 1936.35 5040.1 1935.64 5041.32 1934.54 5042.69 1933.03L5044.75 1935.11C5043.73 1936.24 5042.77 1937.21 5041.86 1938 5040.94 1938.8 5040.05 1939.45 5039.18 1939.95 5038.3 1940.46 5037.44 1940.83 5036.59 1941.05 5035.73 1941.28 5034.86 1941.4 5033.97 1941.4 5031.6 1941.4 5029.84 1940.84 5028.68 1939.73 5027.52 1938.62 5026.94 1936.98 5026.94 1934.81 5026.94 1934.08 5026.99 1933.27 5027.1 1932.39 5027.21 1931.5 5027.36 1930.64 5027.56 1929.81L5031.11 1914.38 5025.98 1914.38 5026.58 1912.09C5027.77 1912.09 5028.7 1911.97 5029.36 1911.75 5030.03 1911.52 5030.59 1911.2 5031.05 1910.81 5031.34 1910.53 5031.63 1910.19 5031.91 1909.78 5032.19 1909.37 5032.47 1908.88 5032.74 1908.31 5033.02 1907.73 5033.31 1907.05 5033.59 1906.26 5033.88 1905.48 5034.2 1904.56 5034.56 1903.51Z" fill="#D74514" fill-rule="evenodd"/><text fill="#000000" fill-opacity="0" font-family="Arial,Arial_MSFontService,sans-serif" font-size="37.8867" x="5025.98" y="1936.66">𝑡</text><path d="M1.24642e-05-4.58333 91.4574-4.58308 91.4573 4.58358-1.24642e-05 4.58333ZM86.8741-22.9164 132.707 0.000360892 86.874 22.9169Z" fill="#5D1709" transform="matrix(-1 0 0 1 4949.21 1552.5)"/><path d="M4949.21 1901.18 4857.75 1901.11 4857.75 1891.95 4949.21 1892.01ZM4862.32 1919.45 4816.5 1896.5 4862.35 1873.61Z" fill="#5D1709"/></g></svg>