<svg xmlns="http://www.w3.org/2000/svg" width="2675" height="2723" overflow="hidden"><defs><clipPath id="a"><path d="M452 97h2675v2723H452z"/></clipPath></defs><g clip-path="url(#a)" transform="translate(-452 -97)"><path fill="#f8ccb9" d="M485 364h636v219H485z"/><text fill="#d74514" font-family="Microsoft YaHei,Microsoft YaHei_MSFontService,sans-serif" font-size="83" font-weight="700" transform="translate(638.068 503)">εε§‹<tspan x="165" y="0">η½®ζΆ</tspan></text><path fill="#d74514" d="M485 709h636v219H485z"/><text fill="#fff" font-family="Microsoft YaHei,Microsoft YaHei_MSFontService,sans-serif" font-size="83" font-weight="700" transform="translate(695.073 848)">η¬¬<tspan x="82.5" y="0">1</tspan><tspan x="133.49" y="0">θ½®</tspan></text><path d="M808.083 583.5v84.999h-9.166V583.5Zm18.334 80.416L803.5 709.749l-22.917-45.833Z"/><path fill="#d74514" d="M485 1054h636v218H485z"/><text fill="#fff" font-family="Microsoft YaHei,Microsoft YaHei_MSFontService,sans-serif" font-size="83" font-weight="700" transform="translate(695.073 1193)">η¬¬<tspan x="82.5" y="0">2</tspan><tspan x="133.49" y="0">θ½®</tspan></text><path d="M808.083 928.5v85h-9.166v-85Zm18.334 80.42-22.917 45.83-22.917-45.83Z"/><path fill="#d74514" d="M485 1612h636v219H485z"/><text fill="#fff" font-family="Microsoft YaHei,Microsoft YaHei_MSFontService,sans-serif" font-size="83" font-weight="700" transform="translate(669.579 1751)">η¬¬<tspan x="82.5" y="0">1</tspan><tspan x="133.49" y="0">6</tspan><tspan x="184.479" y="0">θ½®</tspan></text><path fill="#f8ccb9" d="M485 1957h636v218H485z"/><text fill="#d74514" font-family="Microsoft YaHei,Microsoft YaHei_MSFontService,sans-serif" font-size="83" font-weight="700" transform="translate(638.068 2096)">ε·¦ε³<tspan x="165" y="0">δΊ¤ζΆ</tspan></text><path d="M808.083 1831.5v85h-9.166v-85Zm18.334 80.42-22.917 45.83-22.917-45.83Z"/><path fill="#f8ccb9" d="M485 2302h636v218H485z"/><text fill="#d74514" font-family="Microsoft YaHei,Microsoft YaHei_MSFontService,sans-serif" font-size="83" font-weight="700" transform="translate(596.818 2440)">ι€†<tspan x="82.5" y="0">εε§‹</tspan><tspan x="247.5" y="0">η½®ζΆ</tspan></text><path d="M808.083 2175.5v85h-9.166v-85Zm18.334 80.42-22.917 45.83-22.917-45.83Zm-18.334-983.42v298.62h-9.166V1272.5Zm18.334 294.03-22.917 45.84-22.917-45.84ZM505.083 238.5l.001 85h-9.167v-85Zm18.334 80.416L500.5 364.75l-22.916-45.834ZM1115.08 238.5v85h-9.16v-85Zm18.34 80.416-22.92 45.834-22.92-45.834ZM699.083 238.5v85h-9.166v-85Zm18.334 80.416L694.5 364.75l-22.917-45.834Z"/><path fill-rule="evenodd" d="M914.387 298.253q2.107 0 3.526 1.479t1.418 3.749-1.418 3.749q-1.419 1.479-3.526 1.479t-3.526-1.479q-1.419-1.48-1.419-3.749t1.419-3.749 3.526-1.479m-24.56 0q2.107 0 3.526 1.479t1.419 3.749-1.419 3.749-3.526 1.479-3.526-1.479q-1.418-1.48-1.418-3.749t1.418-3.749 3.526-1.479m-24.559 0q2.107 0 3.526 1.479t1.418 3.749-1.418 3.749q-1.419 1.479-3.526 1.479-2.108 0-3.526-1.479-1.419-1.48-1.419-3.749t1.419-3.749 3.526-1.479"/><text x="860.323" y="307.402" fill-opacity="0" font-family="Arial,Arial_MSFontService,sans-serif" font-size="10.456">β‹―</text><path d="m503.083 2527.5.001 85h-9.167v-85Zm18.334 80.42-22.917 45.83-22.917-45.83Zm591.663-80.42v85h-9.16v-85Zm18.34 80.42-22.92 45.83-22.92-45.83Zm-434.337-80.42.001 85h-9.167v-85Zm18.334 80.42-22.916 45.83-22.917-45.83Z"/><path fill-rule="evenodd" d="M912.24 2587.3c1.405 0 2.58.49 3.526 1.48q1.418 1.485 1.418 3.75t-1.418 3.75c-.946.98-2.121 1.48-3.526 1.48s-2.58-.5-3.526-1.48q-1.419-1.485-1.418-3.75 0-2.265 1.418-3.75c.946-.99 2.121-1.48 3.526-1.48m-24.56 0c1.405 0 2.581.49 3.526 1.48q1.419 1.485 1.419 3.75t-1.419 3.75c-.945.98-2.121 1.48-3.526 1.48s-2.58-.5-3.526-1.48q-1.418-1.485-1.418-3.75t1.418-3.75c.946-.99 2.121-1.48 3.526-1.48m-24.559 0c1.405 0 2.58.49 3.526 1.48q1.418 1.485 1.418 3.75t-1.418 3.75c-.946.98-2.121 1.48-3.526 1.48s-2.581-.5-3.526-1.48q-1.419-1.485-1.419-3.75t1.419-3.75c.945-.99 2.121-1.48 3.526-1.48"/><text x="858.176" y="2596.45" fill-opacity="0" font-family="Arial,Arial_MSFontService,sans-serif" font-size="10.456">β‹―</text><path fill="#f8ccb9" d="M1470 709h636v219h-636z"/><text fill="#d74514" font-family="Microsoft YaHei,Microsoft YaHei_MSFontService,sans-serif" font-size="83" font-weight="700" transform="translate(1597.42 848)">η½®ζΆ<tspan x="165" y="0">ι€‰ζ‹©</tspan><tspan x="330" y="0">2</tspan></text><path fill="#f8ccb9" d="M1470 1054h636v218h-636z"/><text fill="#d74514" font-family="Microsoft YaHei,Microsoft YaHei_MSFontService,sans-serif" font-size="83" font-weight="700" transform="translate(1597.42 1193)">η½®ζΆ<tspan x="165" y="0">ι€‰ζ‹©</tspan><tspan x="330" y="0">2</tspan></text><path fill="#f8ccb9" d="M1470 1612h636v219h-636z"/><text fill="#d74514" font-family="Microsoft YaHei,Microsoft YaHei_MSFontService,sans-serif" font-size="83" font-weight="700" transform="translate(1597.42 1751)">η½®ζΆ<tspan x="165" y="0">ι€‰ζ‹©</tspan><tspan x="330" y="0">2</tspan><tspan x="-1007.47" y="-1550" fill="#000" font-weight="400">64</tspan><tspan x="-911.224" y="-1550" fill="#000" font-weight="400">ζ―”η‰Ήζζ–‡</tspan><tspan x="-1007.47" y="999" fill="#000" font-weight="400">64</tspan><tspan x="-911.224" y="999" fill="#000" font-weight="400">ζ―”η‰Ήε―†ζ–‡</tspan></text><path fill-rule="evenodd" d="M889.516 1455.95c1.405 0 2.58.5 3.526 1.48q1.419 1.485 1.419 3.75t-1.419 3.75c-.946.99-2.121 1.48-3.526 1.48s-2.58-.49-3.526-1.48q-1.418-1.485-1.418-3.75t1.418-3.75c.946-.98 2.121-1.48 3.526-1.48m0-21.56c1.405 0 2.58.5 3.526 1.48q1.419 1.485 1.419 3.75t-1.419 3.75c-.946.99-2.121 1.48-3.526 1.48s-2.58-.49-3.526-1.48q-1.418-1.485-1.418-3.75t1.418-3.75c.946-.98 2.121-1.48 3.526-1.48m0-21.56c1.405 0 2.58.5 3.526 1.48q1.419 1.485 1.419 3.75t-1.419 3.75c-.946.99-2.121 1.48-3.526 1.48s-2.58-.49-3.526-1.48q-1.418-1.485-1.418-3.75t1.418-3.75c.946-.98 2.121-1.48 3.526-1.48"/><text x="884.572" y="1459.71" fill-opacity="0" font-family="Arial,Arial_MSFontService,sans-serif" font-size="53.577">β‹®</text><path fill="#f8ccb9" d="M2455 364h636v219h-636z"/><text fill="#d74514" font-family="Microsoft YaHei,Microsoft YaHei_MSFontService,sans-serif" font-size="83" font-weight="700" transform="translate(2607.76 503)">εε§‹<tspan x="165" y="0">η½®ζΆ</tspan></text><path fill="#d74514" d="M2455 709h636v219h-636z"/><text fill="#fff" font-family="Microsoft YaHei,Microsoft YaHei_MSFontService,sans-serif" font-size="83" font-weight="700" transform="translate(2664.76 848)">η¬¬<tspan x="82.5" y="0">1</tspan><tspan x="133.49" y="0">θ½®</tspan></text><path d="M2778.08 583.5v84.999h-9.16V583.5Zm18.34 80.416-22.92 45.833-22.92-45.833Z"/><path fill="#d74514" d="M2455 1054h636v218h-636z"/><text fill="#fff" font-family="Microsoft YaHei,Microsoft YaHei_MSFontService,sans-serif" font-size="83" font-weight="700" transform="translate(2664.76 1193)">η¬¬<tspan x="82.5" y="0">2</tspan><tspan x="133.49" y="0">θ½®</tspan></text><path d="M2778.08 928.5v85h-9.16v-85Zm18.34 80.42-22.92 45.83-22.92-45.83Z"/><path fill="#d74514" d="M2455 1612h636v219h-636z"/><text fill="#fff" font-family="Microsoft YaHei,Microsoft YaHei_MSFontService,sans-serif" font-size="83" font-weight="700" transform="translate(2639.27 1751)">η¬¬<tspan x="82.5" y="0">1</tspan><tspan x="133.49" y="0">6</tspan><tspan x="184.479" y="0">θ½®</tspan></text><path d="M2778.08 1272.5v298.62h-9.16V1272.5Zm18.34 294.03-22.92 45.84-22.92-45.84ZM2475.08 238.5v85h-9.16v-85Zm18.34 80.416-22.92 45.834-22.92-45.834Zm591.66-80.416v85h-9.16v-85Zm18.34 80.416-22.92 45.834-22.92-45.834ZM2668.08 238.5v85h-9.16v-85Zm18.34 80.416-22.92 45.834-22.92-45.834Z"/><path fill-rule="evenodd" d="M2884.07 298.253c1.41 0 2.58.493 3.53 1.479s1.42 2.236 1.42 3.749-.47 2.763-1.42 3.749-2.12 1.479-3.53 1.479c-1.4 0-2.58-.493-3.52-1.479-.95-.986-1.42-2.236-1.42-3.749s.47-2.763 1.42-3.749c.94-.986 2.12-1.479 3.52-1.479m-24.56 0c1.41 0 2.58.493 3.53 1.479s1.42 2.236 1.42 3.749-.47 2.763-1.42 3.749-2.12 1.479-3.53 1.479c-1.4 0-2.58-.493-3.52-1.479-.95-.986-1.42-2.236-1.42-3.749s.47-2.763 1.42-3.749c.94-.986 2.12-1.479 3.52-1.479m-24.55 0c1.4 0 2.58.493 3.52 1.479.95.986 1.42 2.236 1.42 3.749s-.47 2.763-1.42 3.749c-.94.986-2.12 1.479-3.52 1.479-1.41 0-2.59-.493-3.53-1.479-.95-.986-1.42-2.236-1.42-3.749s.47-2.763 1.42-3.749c.94-.986 2.12-1.479 3.53-1.479"/><text x="2830.01" y="307.402" fill-opacity="0" font-family="Arial,Arial_MSFontService,sans-serif" font-size="10.456">β‹―</text><text font-family="Microsoft YaHei,Microsoft YaHei_MSFontService,sans-serif" font-size="83" font-weight="400" transform="translate(2559.63 201)">5<tspan x="48.125" y="0">6</tspan><tspan x="96.25" y="0">ζ―”η‰Ήε―†ι’¥</tspan></text><path fill-rule="evenodd" d="M2859.2 1455.95c1.41 0 2.58.5 3.53 1.48.95.99 1.42 2.24 1.42 3.75s-.47 2.76-1.42 3.75-2.12 1.48-3.53 1.48c-1.4 0-2.58-.49-3.52-1.48-.95-.99-1.42-2.24-1.42-3.75s.47-2.76 1.42-3.75c.94-.98 2.12-1.48 3.52-1.48m0-21.56c1.41 0 2.58.5 3.53 1.48.95.99 1.42 2.24 1.42 3.75s-.47 2.76-1.42 3.75-2.12 1.48-3.53 1.48c-1.4 0-2.58-.49-3.52-1.48-.95-.99-1.42-2.24-1.42-3.75s.47-2.76 1.42-3.75c.94-.98 2.12-1.48 3.52-1.48m0-21.56c1.41 0 2.58.5 3.53 1.48.95.99 1.42 2.24 1.42 3.75s-.47 2.76-1.42 3.75-2.12 1.48-3.53 1.48c-1.4 0-2.58-.49-3.52-1.48-.95-.99-1.42-2.24-1.42-3.75s.47-2.76 1.42-3.75c.94-.98 2.12-1.48 3.52-1.48"/><text x="2854.26" y="1459.71" fill-opacity="0" font-family="Arial,Arial_MSFontService,sans-serif" font-size="53.577">β‹®</text><path d="M1470.58 1716.917h-307.826v9.167h307.826Zm-303.243-18.333-45.833 22.916 45.833 22.917Zm303.243-539.667h-307.826v9.167h307.826Zm-303.243-18.333-45.833 22.916 45.833 22.917Zm303.243-326.667h-307.826v9.167h307.826Zm-303.243-18.333-45.833 22.916 45.833 22.917Zm1288.243 921.333h-307.826v9.167h307.826Zm-303.243-18.333-45.833 22.916 45.833 22.917Zm303.243-539.667h-307.826v9.167h307.826Zm-303.243-18.333-45.833 22.916 45.833 22.917Zm303.243-326.667h-307.826v9.167h307.826Zm-303.243-18.333-45.833 22.916 45.833 22.917Z"/><path fill-rule="evenodd" d="M1282.63 703.557h16.21l-.45 1.986c-1.02.216-1.76.459-2.21.729-.44.27-.84.676-1.19 1.216s-.72 1.385-1.1 2.533c-.37 1.148-.85 3.019-1.41 5.613l-2.88 12.928h1.34c1.13 0 2.16-.189 3.1-.567.93-.378 2.02-1.067 3.26-2.067q1.86-1.5 5.94-5.512 4.065-4.012 5.79-6.099c1.15-1.392 1.99-2.594 2.51-3.607.53-1.013.79-1.939.79-2.776q0-1.014-.81-1.642t-2.31-.749l.45-1.986h17.39l-.45 1.986c-1.08.162-2.3.722-3.67 1.682-1.36.959-3.45 2.83-6.26 5.613l-15.72 15.319 8.63 20.75c.89 2.134 1.63 3.674 2.21 4.62s1.27 1.695 2.08 2.249c.82.554 1.81.926 3 1.115l-.44 1.986h-15.65l.45-1.986q2.19-.203 2.19-1.945 0-1.095-.45-2.493c-.29-.932-.65-1.898-1.05-2.898l-5.27-12.887q-.93-2.31-1.62-3.242c-.46-.622-.95-1.054-1.46-1.297-.51-.244-1.31-.365-2.39-.365h-2.27l-3.36 15.319c-.36 1.621-.58 2.898-.69 3.83s-.16 1.763-.16 2.493c0 1.215.3 2.073.91 2.573q.9.75 3.06.912l-.45 1.986h-16.21l.45-1.986q1.53-.244 2.31-.79.765-.548 1.29-1.52c.35-.649.68-1.439.98-2.371.29-.932.74-2.736 1.33-5.41l6.89-31.206c.6-2.702.89-4.877.89-6.525 0-1.27-.31-2.155-.95-2.655-.63-.5-1.64-.79-3.02-.871Z"/><text x="1272.01" y="751.962" fill-opacity="0" font-family="Arial,Arial_MSFontService,sans-serif" font-size="55.32">πΎ</text><path fill-rule="evenodd" d="M1339.17 737.357h1.81c-.04 1.092-.07 2.07-.08 2.934-.02.864-.04 1.703-.05 2.517s-.01 1.618-.01 2.412v22.637q0 .924.06 1.594c.03.446.1.824.19 1.132q.135.46.36.789c.14.218.32.407.52.566.24.238.55.422.95.551s.9.238 1.52.327 1.35.159 2.22.209c.86.05 1.9.084 3.11.104v2.591h-23.62v-2.591c1.17-.04 2.17-.084 2.98-.134s1.51-.119 2.08-.208c.58-.09 1.04-.189 1.39-.298s.65-.243.91-.402c.28-.179.51-.373.71-.581q.3-.313.48-.789c.12-.318.21-.705.28-1.162s.11-1.023.11-1.698v-21.356q0-1.161-.45-1.638c-.3-.318-.72-.477-1.28-.477-.62 0-1.53.318-2.74.954q-1.815.952-4.71 2.829c-.26-.457-.49-.913-.71-1.37q-.33-.685-.69-1.4c2.47-1.35 4.9-2.695 7.32-4.036 2.41-1.34 4.86-2.675 7.34-4.006"/><text x="1324.51" y="770.925" fill-opacity="0" font-family="Arial,Arial_MSFontService,sans-serif" font-size="38.363">1</text><path fill-rule="evenodd" d="M1281.68 1060.49h16.21l-.45 1.98c-1.02.22-1.76.46-2.21.73-.44.27-.84.68-1.19 1.22s-.72 1.38-1.1 2.53c-.37 1.15-.85 3.02-1.41 5.61l-2.88 12.93h1.34c1.13 0 2.16-.19 3.1-.57.93-.37 2.02-1.06 3.26-2.06s3.22-2.84 5.94-5.51c2.71-2.68 4.64-4.71 5.79-6.1 1.15-1.4 1.99-2.6 2.51-3.61.53-1.01.79-1.94.79-2.78 0-.67-.27-1.22-.81-1.64q-.81-.63-2.31-.75l.45-1.98h17.39l-.45 1.98c-1.08.16-2.3.72-3.67 1.68-1.36.96-3.45 2.83-6.26 5.62l-15.72 15.32 8.63 20.75c.89 2.13 1.63 3.67 2.21 4.62.58.94 1.27 1.69 2.08 2.25q1.215.825 3 1.11l-.44 1.99h-15.65l.45-1.99c1.46-.14 2.19-.78 2.19-1.95 0-.72-.15-1.56-.45-2.49s-.65-1.9-1.05-2.9l-5.27-12.88c-.62-1.54-1.16-2.62-1.62-3.25-.46-.62-.95-1.05-1.46-1.29-.51-.25-1.31-.37-2.39-.37h-2.27l-3.36 15.32c-.36 1.62-.59 2.9-.69 3.83-.11.93-.17 1.77-.17 2.49 0 1.22.31 2.08.92 2.58.6.5 1.62.8 3.06.91l-.45 1.99h-16.21l.44-1.99c1.03-.16 1.8-.43 2.31-.79.52-.37.95-.87 1.3-1.52s.68-1.44.97-2.37c.3-.93.75-2.74 1.34-5.41l6.89-31.21c.6-2.7.89-4.87.89-6.52 0-1.27-.31-2.16-.95-2.66-.63-.5-1.64-.79-3.02-.87Z"/><text x="1271.06" y="1108.89" fill-opacity="0" font-family="Arial,Arial_MSFontService,sans-serif" font-size="55.32">πΎ</text><path fill-rule="evenodd" d="M1337.8 1094.08c2.06 0 3.82.23 5.28.7 1.46.46 2.65 1.09 3.56 1.89a6.73 6.73 0 0 1 1.98 2.86c.41 1.11.61 2.31.61 3.6 0 .78-.05 1.5-.16 2.16-.11.67-.3 1.32-.57 1.97-.26.64-.62 1.29-1.05 1.95-.44.65-.99 1.35-1.64 2.08a31 31 0 0 1-1.94 2.21c-.79.83-1.66 1.73-2.6 2.68-.95.95-1.94 1.94-2.97 2.98-1.03 1.03-2.03 2.05-3.01 3.06-.97 1.02-1.86 2-2.68 2.95-.81.96-1.48 1.83-1.99 2.62h11.02c.93 0 1.68-.03 2.23-.1.56-.07 1.02-.22 1.39-.46.36-.24.68-.6.93-1.09.26-.48.56-1.16.9-2.01h2.77c-.1 1.41-.2 2.83-.28 4.26-.09 1.43-.19 2.85-.29 4.26h-25.23v-1.55c.48-1.07 1.04-2.13 1.67-3.17.64-1.04 1.35-2.1 2.15-3.17.79-1.08 1.69-2.18 2.71-3.32 1.01-1.15 2.13-2.33 3.36-3.56 1.87-1.87 3.39-3.46 4.56-4.78s2.1-2.5 2.77-3.53c.68-1.04 1.14-1.99 1.39-2.86.24-.88.37-1.81.37-2.8 0-1.02-.15-1.95-.43-2.8-.29-.86-.7-1.58-1.24-2.18-.54-.59-1.22-1.06-2.04-1.4-.82-.33-1.77-.5-2.85-.5-1.84 0-3.39.5-4.64 1.5s-2.23 2.46-2.92 4.36h-3.9v-5.8c2.54-1.06 4.88-1.82 7.01-2.3 2.14-.47 4.06-.71 5.77-.71"/><text x="1324.06" y="1127.83" fill-opacity="0" font-family="Arial,Arial_MSFontService,sans-serif" font-size="38.572">2</text><path fill-rule="evenodd" d="M1265.15 1616.55h16.22l-.45 1.99c-1.03.21-1.76.46-2.21.73-.44.27-.84.67-1.19 1.21-.36.54-.72 1.39-1.1 2.54-.38 1.14-.85 3.02-1.42 5.61l-2.87 12.93h1.33c1.14 0 2.17-.19 3.1-.57q1.395-.57 3.27-2.07c1.24-1 3.22-2.83 5.93-5.51 2.72-2.67 4.65-4.71 5.8-6.1s1.98-2.59 2.51-3.6c.53-1.02.79-1.94.79-2.78 0-.68-.27-1.22-.81-1.64q-.81-.63-2.31-.75l.45-1.99h17.38l-.44 1.99c-1.08.16-2.31.72-3.67 1.68-1.37.96-3.45 2.83-6.26 5.61l-15.73 15.32 8.64 20.75c.89 2.14 1.62 3.68 2.2 4.62.58.95 1.28 1.7 2.09 2.25.81.56 1.81.93 3 1.12l-.45 1.98h-15.64l.45-1.98c1.46-.14 2.18-.79 2.18-1.95 0-.73-.14-1.56-.44-2.49s-.65-1.9-1.05-2.9l-5.27-12.89q-.93-2.31-1.62-3.24c-.46-.62-.95-1.05-1.46-1.3-.52-.24-1.31-.36-2.39-.36h-2.27l-3.37 15.32c-.35 1.62-.58 2.9-.69 3.83-.1.93-.16 1.76-.16 2.49 0 1.22.31 2.07.91 2.57.61.5 1.63.81 3.06.92l-.44 1.98h-16.21l.44-1.98c1.03-.17 1.8-.43 2.31-.79.52-.37.95-.88 1.3-1.52.35-.65.67-1.44.97-2.37.3-.94.74-2.74 1.34-5.41l6.89-31.21c.59-2.7.89-4.88.89-6.53 0-1.27-.32-2.15-.95-2.65-.64-.5-1.64-.79-3.02-.87Z"/><text x="1254.54" y="1664.96" fill-opacity="0" font-family="Arial,Arial_MSFontService,sans-serif" font-size="55.32">πΎ</text><path fill-rule="evenodd" d="M1355.53 1668.97c-1.33 0-2.55.18-3.68.53-1.12.36-2.19.85-3.2 1.46-.42.28-.74.54-.97.78-.22.24-.39.52-.5.85s-.19.73-.23 1.22q-.06.735-.06 1.98c0 7.03 2.56 10.54 7.66 10.54 1.39 0 2.59-.2 3.59-.61 1-.4 1.82-.99 2.46-1.75.63-.77 1.1-1.71 1.4-2.83.29-1.13.44-2.4.44-3.83 0-2.66-.59-4.72-1.78-6.17-1.2-1.45-2.9-2.17-5.13-2.17m-33.84-18.62h1.82q-.06 1.635-.09 2.94c-.02.86-.03 1.7-.04 2.51-.01.82-.02 1.62-.02 2.42v22.63c0 .62.02 1.15.06 1.6.04.44.11.82.19 1.13.09.31.21.57.36.79s.32.4.52.56c.24.24.56.43.96.55.39.13.9.24 1.52.33.61.09 1.35.16 2.21.21.87.05 1.91.08 3.12.1v2.6h-23.62v-2.6c1.17-.03 2.16-.08 2.98-.13.81-.05 1.51-.12 2.08-.21a10 10 0 0 0 1.39-.3c.34-.1.65-.24.9-.4.28-.18.52-.37.72-.58s.36-.47.48-.79c.11-.32.21-.7.28-1.16s.1-1.02.1-1.7v-21.35c0-.78-.15-1.32-.44-1.64-.3-.32-.73-.48-1.28-.48-.62 0-1.53.32-2.74.96-1.22.63-2.78 1.57-4.71 2.82-.26-.45-.5-.91-.72-1.37-.21-.45-.44-.92-.68-1.4 2.46-1.35 4.9-2.69 7.31-4.03s4.86-2.68 7.34-4.01m41.74-.21c.23.28.45.55.65.81s.42.51.66.77v1.76c-2.41-.04-4.57.28-6.5.95-1.92.68-3.62 1.67-5.09 2.97s-2.7 2.9-3.69 4.79c-1 1.9-1.77 4.04-2.33 6.42l.33.15c.81-.56 1.62-1.04 2.41-1.44.8-.41 1.6-.75 2.42-1.02.81-.27 1.65-.46 2.53-.58.87-.12 1.8-.18 2.8-.18 1.74 0 3.29.26 4.63.78 1.34.51 2.48 1.27 3.41 2.26s1.64 2.19 2.11 3.58c.48 1.39.72 2.93.72 4.64q0 2.715-.9 5.04c-.59 1.54-1.48 2.87-2.68 3.99-1.19 1.11-2.66 1.97-4.42 2.59-1.76.61-3.82.92-6.18.92-4.47 0-7.84-1.27-10.11-3.83-2.27-2.55-3.41-6.31-3.41-11.27 0-2.22.25-4.35.74-6.39.5-2.03 1.23-3.93 2.19-5.69a22.6 22.6 0 0 1 3.5-4.76 23.8 23.8 0 0 1 4.59-3.7c1.69-1.04 3.51-1.86 5.48-2.47 1.97-.6 4.01-.97 6.14-1.09"/><text x="1307.04" y="1684.44" fill-opacity="0" font-family="Arial,Arial_MSFontService,sans-serif" font-size="39.197">16</text><path fill-rule="evenodd" d="M1810.88 1455.95c1.41 0 2.59.5 3.53 1.48.95.99 1.42 2.24 1.42 3.75s-.47 2.76-1.42 3.75c-.94.99-2.12 1.48-3.53 1.48-1.4 0-2.58-.49-3.52-1.48-.95-.99-1.42-2.24-1.42-3.75s.47-2.76 1.42-3.75c.94-.98 2.12-1.48 3.52-1.48m0-21.56c1.41 0 2.59.5 3.53 1.48.95.99 1.42 2.24 1.42 3.75s-.47 2.76-1.42 3.75c-.94.99-2.12 1.48-3.53 1.48-1.4 0-2.58-.49-3.52-1.48-.95-.99-1.42-2.24-1.42-3.75s.47-2.76 1.42-3.75c.94-.98 2.12-1.48 3.52-1.48m0-21.56c1.41 0 2.59.5 3.53 1.48.95.99 1.42 2.24 1.42 3.75s-.47 2.76-1.42 3.75c-.94.99-2.12 1.48-3.53 1.48-1.4 0-2.58-.49-3.52-1.48-.95-.99-1.42-2.24-1.42-3.75s.47-2.76 1.42-3.75c.94-.98 2.12-1.48 3.52-1.48"/><text x="1805.94" y="1459.71" fill-opacity="0" font-family="Arial,Arial_MSFontService,sans-serif" font-size="53.577">β‹®</text></g></svg>