<svg width="3415" height="790" xmlns="http://www.w3.org/2000/svg" xmlns:xlink="http://www.w3.org/1999/xlink" overflow="hidden"><defs><clipPath id="clip0"><rect x="174" y="520" width="3415" height="790"/></clipPath></defs><g clip-path="url(#clip0)" transform="translate(-174 -520)"><rect x="174" y="594" width="237" height="309" fill="#F8CCB9"/><path d="M264.898 722.731 283.783 722.731 286.944 756.571 306.154 722.731 325 722.731 324.432 725.406C322.892 725.838 321.757 726.595 321.028 727.675 320.298 728.756 319.609 730.755 318.961 733.673L311.585 767.109C311.396 767.973 311.261 768.723 311.18 769.358 311.099 769.993 311.058 770.824 311.058 771.85 311.058 772.985 311.322 773.816 311.849 774.343 312.375 774.87 313.233 775.214 314.422 775.376L313.855 778.051 293.469 778.051 294.037 775.376C295.577 774.944 296.712 774.187 297.441 773.107 298.171 772.026 298.859 770.026 299.508 767.109L303.236 750.087C304.479 744.467 305.938 738.807 307.613 733.106L306.803 733.106C305.533 735.43 304.169 737.848 302.71 740.36L284.472 771.931 277.907 771.931 275.232 747.574C274.611 741.792 274.205 736.835 274.016 732.701L273.368 732.701C272.287 739.374 271.26 744.913 270.288 749.317L266.357 767.109C266.167 767.973 266.032 768.723 265.951 769.358 265.87 769.993 265.83 770.824 265.83 771.85 265.83 772.985 266.093 773.816 266.62 774.343 267.147 774.87 268.005 775.214 269.193 775.376L268.626 778.051 253.753 778.051 254.32 775.376C255.86 774.944 256.995 774.187 257.724 773.107 258.454 772.026 259.143 770.026 259.791 767.109L267.167 733.673C267.518 732.079 267.694 730.499 267.694 728.932 267.694 727.797 267.431 726.966 266.904 726.439 266.377 725.912 265.519 725.568 264.33 725.406Z" fill="#D74514" fill-rule="evenodd"/><text fill="#000000" fill-opacity="0" font-family="Arial,Arial_MSFontService,sans-serif" font-size="55.3198" x="253.753" y="771.136">𝑴</text><path d="M871 1201C871 1140.8 919.801 1092 980 1092 1040.2 1092 1089 1140.8 1089 1201 1089 1261.2 1040.2 1310 980 1310 919.801 1310 871 1261.2 871 1201Z" fill="#FDEFE8" fill-rule="evenodd"/><path d="M957.682 1175.36 978.067 1175.36 977.499 1178.03C975.959 1178.46 974.825 1179.22 974.095 1180.3 973.366 1181.38 972.677 1183.38 972.028 1186.3L969.191 1199.15 986.375 1199.15 989.212 1186.3C989.563 1184.71 989.739 1183.13 989.739 1181.56 989.739 1180.42 989.475 1179.59 988.948 1179.07 988.422 1178.54 987.564 1178.19 986.375 1178.03L986.942 1175.36 1007.33 1175.36 1006.76 1178.03C1005.22 1178.46 1004.09 1179.22 1003.36 1180.3 1002.63 1181.38 1001.94 1183.38 1001.29 1186.3L993.913 1219.74C993.724 1220.6 993.589 1221.35 993.508 1221.98 993.427 1222.62 993.386 1223.45 993.386 1224.48 993.386 1225.61 993.65 1226.44 994.176 1226.97 994.703 1227.5 995.561 1227.84 996.75 1228L996.183 1230.68 975.797 1230.68 976.365 1228C977.905 1227.57 979.039 1226.81 979.769 1225.73 980.498 1224.65 981.187 1222.65 981.836 1219.74L985.24 1204.25 968.057 1204.25 964.652 1219.74C964.463 1220.63 964.328 1221.38 964.247 1222 964.166 1222.63 964.125 1223.45 964.125 1224.48 964.125 1225.61 964.389 1226.44 964.916 1226.97 965.443 1227.5 966.3 1227.84 967.489 1228L966.922 1230.68 946.537 1230.68 947.104 1228C948.644 1227.57 949.779 1226.81 950.508 1225.73 951.238 1224.65 951.927 1222.65 952.575 1219.74L959.951 1186.3C960.302 1184.71 960.478 1183.13 960.478 1181.56 960.478 1180.42 960.215 1179.59 959.688 1179.07 959.161 1178.54 958.303 1178.19 957.114 1178.03Z" fill="#D74514" fill-rule="evenodd"/><text fill="#000000" fill-opacity="0" font-family="Arial,Arial_MSFontService,sans-serif" font-size="55.3198" x="946.537" y="1223.76">𝑯</text><path d="M1146 748.5C1146 688.025 1195.02 639 1255.5 639 1315.98 639 1365 688.025 1365 748.5 1365 808.975 1315.98 858 1255.5 858 1195.02 858 1146 808.975 1146 748.5Z" fill="#FDEFE8" fill-rule="evenodd"/><path d="M1256.39 722.731 1262.71 722.731 1262.71 786.156 1256.39 786.156ZM1242.2 722.731 1248.53 722.731 1248.53 786.156 1242.2 786.156Z" fill="#D74514" fill-rule="evenodd"/><text fill="#000000" fill-opacity="0" font-family="Arial,Arial_MSFontService,sans-serif" font-size="63.4253" x="1242.2" y="778.228">∥</text><rect x="1680" y="520" width="237" height="309" fill="#F8CCB9"/><path d="M1771.06 648.779 1789.95 648.779 1793.11 682.62 1812.32 648.779 1831.16 648.779 1830.6 651.454C1829.06 651.886 1827.92 652.643 1827.19 653.724 1826.46 654.804 1825.77 656.804 1825.13 659.722L1817.75 693.157C1817.56 694.021 1817.43 694.771 1817.34 695.406 1817.26 696.041 1817.22 696.872 1817.22 697.898 1817.22 699.033 1817.49 699.864 1818.01 700.391 1818.54 700.918 1819.4 701.262 1820.59 701.424L1820.02 704.099 1799.63 704.099 1800.2 701.424C1801.74 700.992 1802.88 700.235 1803.61 699.155 1804.34 698.074 1805.02 696.075 1805.67 693.157L1809.4 676.135C1810.64 670.515 1812.1 664.855 1813.78 659.154L1812.97 659.154C1811.7 661.478 1810.33 663.896 1808.87 666.409L1790.64 697.979 1784.07 697.979 1781.4 673.622C1780.78 667.841 1780.37 662.883 1780.18 658.749L1779.53 658.749C1778.45 665.422 1777.43 670.961 1776.45 675.365L1772.52 693.157C1772.33 694.021 1772.2 694.771 1772.12 695.406 1772.04 696.041 1771.99 696.872 1771.99 697.898 1771.99 699.033 1772.26 699.864 1772.78 700.391 1773.31 700.918 1774.17 701.262 1775.36 701.424L1774.79 704.099 1759.92 704.099 1760.48 701.424C1762.02 700.992 1763.16 700.235 1763.89 699.155 1764.62 698.074 1765.31 696.075 1765.96 693.157L1773.33 659.722C1773.68 658.128 1773.86 656.547 1773.86 654.98 1773.86 653.845 1773.6 653.014 1773.07 652.487 1772.54 651.961 1771.68 651.616 1770.49 651.454Z" fill="#D74514" fill-rule="evenodd"/><text fill="#000000" fill-opacity="0" font-family="Arial,Arial_MSFontService,sans-serif" font-size="55.3198" x="1759.92" y="697.184">𝑴</text><rect x="1680" y="832" width="237" height="145" fill="#FDEFE8"/><path d="M2886 748.5C2886 688.025 2934.8 639 2995 639 3055.2 639 3104 688.025 3104 748.5 3104 808.975 3055.2 858 2995 858 2934.8 858 2886 808.975 2886 748.5Z" fill="#FDEFE8" fill-rule="evenodd"/><path d="M2973.01 722.731 2993.4 722.731 2992.83 725.406C2991.29 725.838 2990.15 726.595 2989.43 727.675 2988.7 728.756 2988.01 730.755 2987.36 733.673L2984.52 746.521 3001.7 746.521 3004.54 733.673C3004.89 732.079 3005.07 730.499 3005.07 728.932 3005.07 727.797 3004.81 726.966 3004.28 726.439 3003.75 725.912 3002.89 725.568 3001.7 725.406L3002.27 722.731 3022.66 722.731 3022.09 725.406C3020.55 725.838 3019.42 726.595 3018.69 727.675 3017.96 728.756 3017.27 730.755 3016.62 733.673L3009.24 767.109C3009.05 767.973 3008.92 768.723 3008.84 769.358 3008.76 769.993 3008.72 770.824 3008.72 771.85 3008.72 772.985 3008.98 773.816 3009.51 774.343 3010.03 774.87 3010.89 775.214 3012.08 775.376L3011.51 778.051 2991.13 778.051 2991.69 775.376C2993.23 774.944 2994.37 774.187 2995.1 773.107 2995.83 772.026 2996.52 770.026 2997.17 767.109L3000.57 751.627 2983.39 751.627 2979.98 767.109C2979.79 768 2979.66 768.757 2979.58 769.378 2979.5 769.999 2979.46 770.824 2979.46 771.85 2979.46 772.985 2979.72 773.816 2980.25 774.343 2980.77 774.87 2981.63 775.214 2982.82 775.376L2982.25 778.051 2961.87 778.051 2962.43 775.376C2963.97 774.944 2965.11 774.187 2965.84 773.107 2966.57 772.026 2967.26 770.026 2967.91 767.109L2975.28 733.673C2975.63 732.079 2975.81 730.499 2975.81 728.932 2975.81 727.797 2975.54 726.966 2975.02 726.439 2974.49 725.912 2973.63 725.568 2972.44 725.406Z" fill="#D74514" fill-rule="evenodd"/><text fill="#000000" fill-opacity="0" font-family="Arial,Arial_MSFontService,sans-serif" font-size="55.3198" x="2961.87" y="771.136">𝑯</text><path d="M3396.63 1020.5C3395.25 1020.5 3393.89 1020.97 3392.55 1021.9 3391.22 1022.83 3389.75 1024.33 3388.16 1026.38 3386.56 1028.43 3385.32 1030.46 3384.43 1032.46 3383.54 1034.46 3382.83 1036.76 3382.32 1039.35L3382 1041.05C3381.73 1042.48 3381.56 1043.58 3381.49 1044.33 3381.42 1045.09 3381.39 1045.83 3381.39 1046.56 3381.39 1048.67 3381.84 1050.2 3382.75 1051.16 3383.65 1052.12 3385.21 1052.6 3387.43 1052.6 3388.81 1052.6 3390.08 1052.33 3391.24 1051.79 3392.4 1051.25 3393.5 1050.47 3394.54 1049.44 3395.58 1048.41 3396.52 1047.17 3397.36 1045.71 3398.19 1044.25 3398.94 1042.56 3399.61 1040.63 3400.27 1038.69 3400.77 1036.71 3401.11 1034.67 3401.44 1032.63 3401.61 1030.72 3401.61 1028.93 3401.61 1026.1 3401.21 1023.98 3400.42 1022.59 3399.62 1021.2 3398.36 1020.5 3396.63 1020.5ZM3278.45 1019C3275.64 1019 3273.19 1020.18 3271.1 1022.53 3269 1024.88 3267.36 1028.25 3266.15 1032.62 3264.95 1037 3264.35 1040.77 3264.35 1043.93 3264.35 1046.9 3264.96 1049.1 3266.19 1050.51 3267.42 1051.93 3269.28 1052.64 3271.77 1052.64 3274.41 1052.64 3276.76 1051.45 3278.82 1049.08 3280.87 1046.7 3282.49 1043.37 3283.68 1039.09 3284.87 1034.8 3285.46 1031.04 3285.46 1027.8 3285.46 1024.88 3284.9 1022.69 3283.76 1021.21 3282.63 1019.74 3280.86 1019 3278.45 1019ZM3522.86 1018.92C3520.13 1018.92 3517.5 1020.3 3514.98 1023.06 3512.45 1025.81 3510.51 1029.54 3509.16 1034.24 3512.97 1034.22 3516.24 1033.87 3518.97 1033.21 3521.7 1032.55 3523.79 1031.49 3525.25 1030.05 3526.71 1028.6 3527.44 1026.65 3527.44 1024.19 3527.44 1022.54 3527.05 1021.25 3526.28 1020.32 3525.51 1019.39 3524.37 1018.92 3522.86 1018.92ZM3438.78 1018.92C3435.99 1018.92 3433.5 1020.05 3431.28 1022.29 3429.06 1024.53 3427.34 1027.54 3426.09 1031.3 3424.85 1035.07 3424.23 1038.84 3424.23 1042.59 3424.23 1045.4 3424.61 1047.5 3425.38 1048.89 3426.15 1050.29 3427.44 1050.98 3429.25 1050.98 3431.04 1050.98 3432.79 1050.21 3434.5 1048.67 3436.22 1047.13 3437.99 1044.94 3439.81 1042.09 3441.63 1039.23 3442.92 1035.95 3443.68 1032.22L3444.05 1030.47C3444.29 1029.37 3444.45 1028.41 3444.53 1027.6 3444.61 1026.79 3444.65 1025.91 3444.65 1024.96 3444.65 1022.88 3444.21 1021.36 3443.32 1020.38 3442.42 1019.41 3440.91 1018.92 3438.78 1018.92ZM3279.26 1015.76C3283.59 1015.76 3286.88 1016.94 3289.15 1019.31 3291.42 1021.67 3292.56 1025.06 3292.56 1029.46 3292.56 1032.6 3292.01 1035.95 3290.92 1039.51 3289.82 1043.08 3288.32 1046.08 3286.42 1048.51 3284.51 1050.94 3282.24 1052.77 3279.59 1054 3276.94 1055.23 3273.9 1055.84 3270.47 1055.84 3266.28 1055.84 3263.03 1054.67 3260.72 1052.32 3258.41 1049.97 3257.26 1046.59 3257.26 1042.19 3257.26 1040.03 3257.58 1037.53 3258.23 1034.69 3259.07 1030.85 3260.47 1027.5 3262.44 1024.64 3264.42 1021.77 3266.85 1019.58 3269.74 1018.05 3272.63 1016.53 3275.81 1015.76 3279.26 1015.76ZM3524.32 1015.72C3527.59 1015.72 3530.04 1016.38 3531.67 1017.71 3533.31 1019.03 3534.12 1021.1 3534.12 1023.91 3534.12 1028.5 3531.97 1031.95 3527.66 1034.24 3523.35 1036.54 3516.95 1037.69 3508.47 1037.69 3508.15 1039.31 3507.98 1041.07 3507.98 1042.96 3507.98 1045.79 3508.54 1047.85 3509.65 1049.14 3510.75 1050.42 3512.56 1051.06 3515.08 1051.06 3517.56 1051.06 3519.81 1050.52 3521.82 1049.44 3523.84 1048.36 3525.97 1046.7 3528.21 1044.46L3530.72 1047.09C3528.1 1049.98 3525.45 1052.16 3522.76 1053.62 3520.07 1055.07 3516.94 1055.8 3513.38 1055.8 3509.46 1055.8 3506.42 1054.61 3504.28 1052.22 3502.13 1049.83 3501.05 1046.5 3501.05 1042.23 3501.05 1039.34 3501.57 1036.24 3502.61 1032.93 3503.66 1029.62 3505.23 1026.64 3507.34 1024.01 3509.44 1021.38 3511.97 1019.34 3514.92 1017.89 3517.86 1016.44 3520.99 1015.72 3524.32 1015.72ZM3470.52 1015.72C3472.23 1015.72 3473.57 1016.28 3474.56 1017.4 3475.54 1018.53 3476.04 1019.99 3476.04 1021.8 3476.04 1023.15 3475.78 1024.54 3475.27 1025.98L3475.79 1026.18C3478.44 1022.58 3480.99 1019.95 3483.43 1018.28 3485.88 1016.6 3488.36 1015.76 3490.87 1015.76 3492.84 1015.76 3494.49 1015.91 3495.81 1016.21L3493.87 1025.29 3489.69 1025.29C3489.53 1024.15 3489.3 1023.27 3489.01 1022.65 3488.71 1022.03 3488.36 1021.6 3487.95 1021.36 3487.55 1021.11 3487.03 1020.99 3486.41 1020.99 3485.44 1020.99 3484.38 1021.41 3483.23 1022.25 3482.08 1023.08 3480.79 1024.4 3479.36 1026.18 3477.93 1027.96 3476.79 1029.68 3475.94 1031.33 3475.08 1032.97 3474.38 1035.07 3473.81 1037.61L3469.96 1055.16 3462.95 1055.16 3468.82 1029.46C3469.2 1027.84 3469.44 1026.58 3469.55 1025.69 3469.66 1024.8 3469.71 1024.06 3469.71 1023.46 3469.71 1022.38 3469.54 1021.6 3469.19 1021.11 3468.84 1020.63 3468.28 1020.38 3467.53 1020.38 3466.69 1020.38 3465.8 1020.73 3464.87 1021.42 3463.94 1022.11 3462.66 1023.35 3461.04 1025.17L3458.73 1022.9C3461.22 1020.3 3463.3 1018.46 3464.97 1017.36 3466.65 1016.27 3468.5 1015.72 3470.52 1015.72ZM3437.97 1015.72C3439.72 1015.72 3441.36 1015.92 3442.89 1016.31 3444.42 1016.7 3445.99 1017.4 3447.61 1018.4L3451.34 1015.72 3453.93 1016.37 3447.98 1042.06C3447.38 1044.63 3447.09 1046.63 3447.09 1048.06 3447.09 1049.14 3447.26 1049.93 3447.61 1050.41 3447.96 1050.9 3448.52 1051.14 3449.27 1051.14 3450.08 1051.14 3450.95 1050.81 3451.87 1050.15 3452.79 1049.49 3454.08 1048.23 3455.76 1046.36L3458.07 1048.63C3455.64 1051.22 3453.56 1053.07 3451.85 1054.16 3450.13 1055.26 3448.27 1055.8 3446.27 1055.8 3444.6 1055.8 3443.26 1055.25 3442.26 1054.14 3441.26 1053.03 3440.76 1051.56 3440.76 1049.72 3440.76 1048.24 3441.07 1046.66 3441.7 1044.98L3441.17 1044.82C3438.57 1048.6 3436.12 1051.37 3433.79 1053.13 3431.47 1054.89 3429.01 1055.76 3426.42 1055.76 3423.44 1055.76 3421.14 1054.64 3419.51 1052.4 3417.87 1050.16 3417.05 1047.01 3417.05 1042.96 3417.05 1038.31 3417.97 1033.84 3419.79 1029.56 3421.61 1025.28 3424.12 1021.9 3427.31 1019.43 3430.5 1016.96 3434.05 1015.72 3437.97 1015.72ZM3379.57 1015.72C3381.24 1015.72 3382.57 1016.28 3383.56 1017.38 3384.54 1018.49 3385.04 1019.96 3385.04 1021.8 3385.04 1023.31 3384.73 1024.91 3384.1 1026.58L3384.59 1026.75C3389.59 1019.42 3394.56 1015.76 3399.5 1015.76 3402.45 1015.76 3404.74 1016.88 3406.37 1019.13 3408.01 1021.37 3408.83 1024.53 3408.83 1028.61 3408.83 1033.07 3407.93 1037.45 3406.13 1041.76 3404.33 1046.07 3401.84 1049.49 3398.65 1052.01 3395.47 1054.54 3391.9 1055.8 3387.95 1055.8 3384.36 1055.8 3381.38 1055.02 3379 1053.45L3377.13 1062.33C3376.73 1064.25 3376.53 1065.83 3376.53 1067.07 3376.53 1068.26 3376.83 1069.1 3377.44 1069.6 3378.05 1070.1 3379.23 1070.43 3380.98 1070.6L3380.66 1072.58 3368.14 1072.58 3377.9 1029.58C3378.47 1027.1 3378.75 1025.06 3378.75 1023.46 3378.75 1022.38 3378.58 1021.6 3378.23 1021.11 3377.88 1020.63 3377.32 1020.38 3376.57 1020.38 3375.73 1020.38 3374.84 1020.73 3373.91 1021.42 3372.98 1022.11 3371.7 1023.35 3370.08 1025.17L3367.77 1022.9C3370.2 1020.36 3372.26 1018.53 3373.95 1017.4 3375.64 1016.28 3377.51 1015.72 3379.57 1015.72ZM3309.57 1015.72C3311.27 1015.72 3312.61 1016.28 3313.6 1017.4 3314.58 1018.53 3315.08 1019.99 3315.08 1021.8 3315.08 1023.29 3314.77 1024.87 3314.15 1026.54L3314.63 1026.71C3317.12 1023 3319.59 1020.25 3322.05 1018.46 3324.51 1016.66 3326.99 1015.76 3329.5 1015.76 3332.1 1015.76 3334.07 1016.5 3335.42 1017.97 3336.77 1019.44 3337.45 1021.57 3337.45 1024.35L3337.45 1024.92C3337.45 1025.11 3337.43 1025.31 3337.41 1025.53 3339.73 1022.23 3342.05 1019.78 3344.36 1018.17 3346.67 1016.57 3349.07 1015.76 3351.55 1015.76 3354.04 1015.76 3355.96 1016.48 3357.31 1017.91 3358.66 1019.34 3359.33 1021.36 3359.33 1023.95 3359.33 1025.65 3358.94 1028.07 3358.16 1031.2L3355.52 1041.82C3354.79 1044.77 3354.43 1046.85 3354.43 1048.06 3354.43 1049.14 3354.6 1049.93 3354.96 1050.41 3355.31 1050.9 3355.86 1051.14 3356.62 1051.14 3357.43 1051.14 3358.29 1050.81 3359.21 1050.15 3360.13 1049.49 3361.43 1048.23 3363.1 1046.36L3365.41 1048.63C3363.09 1051.09 3361.06 1052.9 3359.33 1054.06 3357.6 1055.22 3355.63 1055.8 3353.42 1055.8 3351.66 1055.8 3350.25 1055.18 3349.2 1053.92 3348.15 1052.66 3347.62 1051.06 3347.62 1049.12 3347.62 1047.36 3348.07 1044.78 3348.96 1041.38L3350.74 1034.36C3351.39 1031.83 3351.82 1029.95 3352.02 1028.73 3352.22 1027.52 3352.32 1026.53 3352.32 1025.77 3352.32 1023.91 3352.01 1022.56 3351.39 1021.74 3350.77 1020.92 3349.76 1020.5 3348.35 1020.5 3347.22 1020.5 3346 1020.93 3344.7 1021.78 3343.41 1022.63 3342.04 1023.96 3340.61 1025.75 3339.18 1027.55 3338.01 1029.32 3337.1 1031.06 3336.2 1032.8 3335.48 1034.93 3334.94 1037.44L3331.25 1055.16 3324.24 1055.16 3328.9 1034.57C3329.46 1032.05 3329.85 1030.2 3330.05 1028.99 3330.25 1027.79 3330.36 1026.76 3330.36 1025.89 3330.36 1023.95 3330.01 1022.56 3329.32 1021.74 3328.63 1020.92 3327.56 1020.5 3326.1 1020.5 3325.07 1020.5 3323.91 1020.93 3322.59 1021.78 3321.28 1022.63 3319.89 1024 3318.4 1025.87 3316.91 1027.75 3315.75 1029.56 3314.92 1031.28 3314.08 1033.01 3313.38 1035.12 3312.81 1037.61L3308.96 1055.16 3301.95 1055.16 3307.86 1029.46C3308.46 1026.87 3308.75 1024.87 3308.75 1023.46 3308.75 1022.38 3308.58 1021.6 3308.23 1021.11 3307.88 1020.63 3307.32 1020.38 3306.57 1020.38 3305.73 1020.38 3304.84 1020.73 3303.91 1021.42 3302.98 1022.11 3301.7 1023.35 3300.08 1025.17L3297.77 1022.9C3300.15 1020.41 3302.2 1018.59 3303.91 1017.44 3305.63 1016.3 3307.51 1015.72 3309.57 1015.72ZM3238.29 999.187C3240.75 999.187 3243.02 999.336 3245.12 999.633 3247.21 999.93 3249.54 1000.47 3252.11 1001.25L3249.68 1012.24 3245.79 1012.24C3245.57 1008.91 3244.85 1006.52 3243.62 1005.04 3242.39 1003.57 3240.41 1002.83 3237.68 1002.83 3233.95 1002.83 3230.49 1004.7 3227.28 1008.43 3224.08 1012.16 3221.55 1017.08 3219.69 1023.2 3217.82 1029.32 3216.89 1035 3216.89 1040.24 3216.89 1044.35 3217.62 1047.37 3219.08 1049.32 3220.54 1051.26 3222.78 1052.24 3225.81 1052.24 3227.83 1052.24 3229.6 1051.93 3231.11 1051.33 3232.63 1050.72 3234.05 1049.69 3235.37 1048.25 3236.69 1046.8 3238 1044.78 3239.3 1042.19L3243.19 1042.19 3240.72 1053.7C3235.67 1055.1 3230.37 1055.8 3224.83 1055.8 3219.75 1055.8 3215.89 1054.34 3213.24 1051.43 3210.59 1048.51 3209.27 1044.24 3209.27 1038.62 3209.27 1034.65 3209.98 1030.07 3211.4 1024.88 3212.82 1019.69 3214.82 1015.14 3217.42 1011.22 3220.01 1007.31 3223.08 1004.32 3226.62 1002.27 3230.16 1000.21 3234.05 999.187 3238.29 999.187Z" fill-rule="evenodd"/><text fill="#000000" fill-opacity="0" font-family="Arial,Arial_MSFontService,sans-serif" font-size="73.395" x="3209.27" y="1063.41">𝐶𝑜𝑚𝑝𝑎𝑟𝑒</text><path d="M411.5 744.917 1105.82 744.917 1105.82 754.084 411.5 754.083ZM1101.24 726.584 1147.07 749.5 1101.24 772.417Z"/><path d="M607.626 835.224C610.112 835.224 612.415 835.393 614.536 835.731 616.657 836.069 619.001 836.643 621.568 837.453L619.298 847.869 615.408 847.869C615.3 845.572 614.948 843.769 614.354 842.458 613.76 841.148 612.909 840.209 611.801 839.642 610.693 839.074 609.221 838.791 607.383 838.791 605.141 838.791 603.168 839.25 601.466 840.169 599.764 841.087 598.467 842.337 597.576 843.917 596.684 845.498 596.238 847.261 596.238 849.206 596.238 851.233 596.772 853.009 597.839 854.536 598.906 856.062 600.953 857.866 603.979 859.946 606.627 861.783 608.646 863.424 610.038 864.87 611.429 866.315 612.456 867.849 613.118 869.47 613.78 871.091 614.111 872.969 614.111 875.103 614.111 878.399 613.321 881.324 611.74 883.877 610.159 886.431 607.93 888.403 605.053 889.794 602.176 891.186 598.9 891.881 595.225 891.881 592.739 891.881 590.058 891.679 587.18 891.274 584.303 890.868 581.729 890.355 579.46 889.734L581.892 878.589 585.782 878.589C585.782 881.885 586.545 884.337 588.072 885.944 589.599 887.552 591.956 888.356 595.144 888.356 598.819 888.356 601.709 887.356 603.817 885.357 605.924 883.357 606.978 880.574 606.978 877.008 606.978 875.36 606.688 873.908 606.107 872.651 605.526 871.395 604.648 870.193 603.472 869.044 602.297 867.896 600.602 866.579 598.386 865.093 596.387 863.742 594.725 862.411 593.401 861.101 592.077 859.791 591.024 858.325 590.24 856.704 589.457 855.083 589.065 853.272 589.065 851.273 589.065 848.085 589.835 845.275 591.375 842.843 592.915 840.412 595.09 838.534 597.9 837.21 600.71 835.886 603.952 835.224 607.626 835.224Z" fill-rule="evenodd"/><text fill="#000000" fill-opacity="0" font-family="Arial,Arial_MSFontService,sans-serif" font-size="56.6572" x="579.46" y="884.799">𝑆</text><path d="M607.083 928.5 607.084 1048.24 597.917 1048.24 597.917 928.5ZM625.417 1043.66 602.5 1089.49 579.584 1043.66Z"/><path d="M0-4.58333 303.025-4.58333 303.025 159.596 293.858 159.596 293.858 0 298.441 4.58333 0 4.58333ZM321.358 155.013 298.441 200.846 275.525 155.013Z" transform="matrix(1.83697e-16 1 1 -1.83697e-16 292.5 903.5)"/><path d="M0-4.58333 171.254-4.58333 171.254 302.135 162.087 302.135 162.087 0 166.67 4.58333 0 4.58333ZM189.587 297.552 166.67 343.385 143.754 297.552Z" transform="matrix(1 0 0 -1 1089.5 1201.89)"/><path d="M0.00867303-4.58333 280.497-4.05256 280.48 5.11409-0.00867303 4.58333ZM275.948-22.3945 321.738 0.608825 275.861 23.4387Z" transform="matrix(1 0 0 -1 1365.5 749.109)"/><path d="M2528.97 999.187C2531.45 999.187 2533.76 999.356 2535.88 999.694 2538 1000.03 2540.34 1000.61 2542.91 1001.42L2540.64 1011.83 2536.75 1011.83C2536.64 1009.53 2536.29 1007.73 2535.69 1006.42 2535.1 1005.11 2534.25 1004.17 2533.14 1003.6 2532.03 1003.04 2530.56 1002.75 2528.72 1002.75 2526.48 1002.75 2524.51 1003.21 2522.81 1004.13 2521.1 1005.05 2519.81 1006.3 2518.92 1007.88 2518.02 1009.46 2517.58 1011.22 2517.58 1013.17 2517.58 1015.2 2518.11 1016.97 2519.18 1018.5 2520.25 1020.02 2522.29 1021.83 2525.32 1023.91 2527.97 1025.75 2529.99 1027.39 2531.38 1028.83 2532.77 1030.28 2533.8 1031.81 2534.46 1033.43 2535.12 1035.05 2535.45 1036.93 2535.45 1039.07 2535.45 1042.36 2534.66 1045.29 2533.08 1047.84 2531.5 1050.39 2529.27 1052.37 2526.39 1053.76 2523.52 1055.15 2520.24 1055.84 2516.56 1055.84 2514.08 1055.84 2511.4 1055.64 2508.52 1055.24 2505.64 1054.83 2503.07 1054.32 2500.8 1053.7L2503.23 1042.55 2507.12 1042.55C2507.12 1045.85 2507.89 1048.3 2509.41 1049.91 2510.94 1051.51 2513.3 1052.32 2516.48 1052.32 2520.16 1052.32 2523.05 1051.32 2525.16 1049.32 2527.26 1047.32 2528.32 1044.54 2528.32 1040.97 2528.32 1039.32 2528.03 1037.87 2527.45 1036.61 2526.87 1035.36 2525.99 1034.16 2524.81 1033.01 2523.64 1031.86 2521.94 1030.54 2519.73 1029.06 2517.73 1027.7 2516.07 1026.37 2514.74 1025.06 2513.42 1023.75 2512.36 1022.29 2511.58 1020.67 2510.8 1019.05 2510.4 1017.24 2510.4 1015.24 2510.4 1012.05 2511.17 1009.24 2512.71 1006.81 2514.25 1004.37 2516.43 1002.5 2519.24 1001.17 2522.05 999.849 2525.29 999.187 2528.97 999.187Z" fill-rule="evenodd"/><text fill="#000000" fill-opacity="0" font-family="Arial,Arial_MSFontService,sans-serif" font-size="56.6572" x="2500.8" y="1048.76">𝑆</text><path d="M4.58333-1.64008e-05 4.58355 59.6042-4.58312 59.6043-4.58333 1.64008e-05ZM22.9169 55.0209 0.000360892 100.854-22.9165 55.021Z" transform="matrix(1 0 0 -1 2523.5 959.354)"/><path d="M3104.5 744.917 3376.76 744.917 3376.76 918.346 3367.6 918.346 3367.6 749.5 3372.18 754.083 3104.5 754.083ZM3395.1 913.763 3372.18 959.596 3349.26 913.763Z"/><path d="M1917.5 899.917 2238.48 899.917 2238.48 1174.52 2233.89 1169.93 3372.38 1169.93 3367.8 1174.52 3367.8 1133.26 3376.96 1133.26 3376.96 1179.1 2229.31 1179.1 2229.31 904.5 2233.89 909.083 1917.5 909.083ZM3349.46 1137.85 3372.38 1092.01 3395.3 1137.85Z"/><path d="M1622.01 1024.32 1659.3 1024.32 1656.5 1036.76 1652.61 1036.76C1652.5 1034.41 1652.3 1032.64 1652 1031.45 1651.7 1030.26 1651.35 1029.45 1650.93 1029 1650.51 1028.56 1650.01 1028.26 1649.43 1028.11 1648.85 1027.96 1648.02 1027.89 1646.94 1027.89L1633.72 1027.89 1629.1 1049.12 1636.84 1049.12C1638.76 1049.12 1640.23 1048.67 1641.24 1047.77 1642.26 1046.86 1643.28 1045.37 1644.3 1043.29L1647.99 1043.29 1644.34 1058.85 1640.9 1058.85C1640.9 1056.69 1640.76 1055.22 1640.49 1054.45 1640.22 1053.68 1639.82 1053.2 1639.3 1052.99 1638.77 1052.79 1637.82 1052.69 1636.44 1052.69L1628.33 1052.69 1623.15 1076.07 1635.14 1076.07C1636.74 1076.07 1638 1075.91 1638.93 1075.59 1639.86 1075.26 1640.74 1074.74 1641.57 1074.01 1642.39 1073.28 1643.21 1072.26 1644.04 1070.95 1644.86 1069.64 1645.84 1067.86 1646.98 1065.62L1650.91 1065.62 1647.34 1079.64 1611.39 1079.64 1611.84 1077.65C1612.87 1077.49 1613.64 1077.23 1614.15 1076.86 1614.66 1076.5 1615.1 1075.99 1615.45 1075.34 1615.8 1074.7 1616.12 1073.91 1616.42 1072.97 1616.72 1072.04 1617.16 1070.24 1617.76 1067.56L1624.65 1036.36C1625.24 1033.66 1625.54 1031.48 1625.54 1029.83 1625.54 1028.56 1625.22 1027.68 1624.59 1027.18 1623.95 1026.68 1622.94 1026.39 1621.57 1026.31Z" fill-rule="evenodd"/><text fill="#000000" fill-opacity="0" font-family="Arial,Arial_MSFontService,sans-serif" font-size="55.3198" x="1611.39" y="1072.73">𝐸</text><path d="M1665.55 1057.85 1678.12 1057.85 1677.79 1059.64C1677.33 1059.76 1676.94 1059.86 1676.63 1059.94 1676.31 1060.02 1676.03 1060.14 1675.78 1060.29 1675.53 1060.45 1675.32 1060.67 1675.14 1060.94 1674.96 1061.2 1674.78 1061.57 1674.62 1062.04 1674.45 1062.5 1674.27 1063.09 1674.08 1063.79 1673.89 1064.5 1673.68 1065.37 1673.44 1066.4L1671.5 1075.16 1672.34 1075.16C1672.79 1075.16 1673.21 1075.13 1673.59 1075.07 1673.97 1075.01 1674.34 1074.9 1674.7 1074.76 1675.07 1074.61 1675.45 1074.4 1675.84 1074.14 1676.22 1073.89 1676.67 1073.56 1677.16 1073.16 1679.23 1071.55 1680.95 1070.11 1682.34 1068.84 1683.73 1067.57 1684.86 1066.45 1685.73 1065.48 1686.59 1064.5 1687.2 1063.68 1687.57 1062.99 1687.94 1062.31 1688.12 1061.73 1688.12 1061.28 1688.12 1060.8 1687.93 1060.43 1687.56 1060.16 1687.18 1059.89 1686.56 1059.75 1685.71 1059.73L1686.04 1057.85 1699.59 1057.85 1699.17 1059.73C1698.72 1059.77 1698.28 1059.86 1697.88 1060 1697.47 1060.14 1697 1060.39 1696.46 1060.76 1695.93 1061.12 1695.29 1061.63 1694.54 1062.28 1693.8 1062.92 1692.86 1063.76 1691.73 1064.79L1680.11 1075.28 1686.84 1089.28C1687.36 1090.37 1687.81 1091.23 1688.18 1091.87 1688.56 1092.5 1688.95 1093.01 1689.34 1093.39 1689.74 1093.76 1690.19 1094.04 1690.7 1094.21 1691.21 1094.37 1691.84 1094.53 1692.59 1094.67L1692.11 1096.48 1679.84 1096.48 1680.26 1094.67C1680.82 1094.63 1681.23 1094.5 1681.51 1094.29 1681.79 1094.09 1681.93 1093.82 1681.93 1093.51 1681.91 1093.29 1681.88 1093.06 1681.84 1092.82 1681.8 1092.58 1681.73 1092.32 1681.63 1092.03 1681.53 1091.74 1681.4 1091.41 1681.24 1091.02 1681.08 1090.63 1680.89 1090.17 1680.65 1089.63L1676.66 1081.11C1676.32 1080.36 1676.02 1079.76 1675.75 1079.33 1675.48 1078.89 1675.2 1078.55 1674.91 1078.31 1674.63 1078.08 1674.3 1077.92 1673.93 1077.85 1673.56 1077.78 1673.1 1077.75 1672.55 1077.75L1670.91 1077.75C1670.75 1078.56 1670.56 1079.44 1670.34 1080.37 1670.12 1081.3 1669.9 1082.25 1669.69 1083.21 1669.47 1084.18 1669.26 1085.13 1669.06 1086.06 1668.86 1086.99 1668.68 1087.86 1668.52 1088.67 1668.37 1089.47 1668.24 1090.18 1668.14 1090.81 1668.04 1091.44 1667.99 1091.92 1667.99 1092.25 1667.99 1093.09 1668.23 1093.68 1668.72 1094.03 1669.2 1094.37 1670.03 1094.59 1671.21 1094.67L1670.73 1096.48 1658.19 1096.48 1658.52 1094.67C1659.13 1094.57 1659.63 1094.45 1660.02 1094.32 1660.41 1094.2 1660.76 1093.92 1661.06 1093.49 1661.37 1093.06 1661.65 1092.42 1661.91 1091.57 1662.17 1090.72 1662.47 1089.5 1662.81 1087.94L1667.69 1066.22C1667.89 1065.35 1668.04 1064.57 1668.14 1063.9 1668.24 1063.22 1668.29 1062.65 1668.29 1062.17 1668.29 1061.3 1668.06 1060.68 1667.6 1060.31 1667.14 1059.94 1666.31 1059.75 1665.1 1059.73Z" fill-rule="evenodd"/><text fill="#000000" fill-opacity="0" font-family="Arial,Arial_MSFontService,sans-serif" font-size="38.6313" x="1658.19" y="1091.65">𝐾</text><path d="M1939.13 1017.32 1957.21 1017.32 1957.21 1094.6 1939.13 1094.6 1939.13 1091.48 1950.48 1091.48 1950.48 1020.44 1939.13 1020.44ZM1714.23 1017.32 1732.31 1017.32 1732.31 1020.44 1720.96 1020.44 1720.96 1091.48 1732.31 1091.48 1732.31 1094.6 1714.23 1094.6Z" fill-rule="evenodd"/><path d="M1746.79 1024.32 1763 1024.32 1762.56 1026.31C1761.53 1026.52 1760.8 1026.77 1760.35 1027.04 1759.9 1027.31 1759.51 1027.71 1759.15 1028.25 1758.8 1028.79 1758.44 1029.64 1758.06 1030.78 1757.68 1031.93 1757.21 1033.8 1756.64 1036.4L1753.89 1048.8 1775.65 1048.8 1778.4 1036.36C1778.65 1035.25 1778.86 1034.07 1779.03 1032.81 1779.21 1031.55 1779.3 1030.56 1779.3 1029.83 1779.3 1028.56 1778.98 1027.68 1778.34 1027.18 1777.71 1026.68 1776.7 1026.39 1775.32 1026.31L1775.77 1024.32 1791.98 1024.32 1791.54 1026.31C1790.51 1026.52 1789.77 1026.77 1789.33 1027.04 1788.88 1027.31 1788.48 1027.71 1788.13 1028.25 1787.78 1028.79 1787.41 1029.64 1787.04 1030.78 1786.66 1031.93 1786.19 1033.8 1785.62 1036.4L1778.69 1067.85C1778.34 1069.44 1778.11 1070.7 1778 1071.64 1777.89 1072.57 1777.84 1073.41 1777.84 1074.17 1777.84 1075.38 1778.14 1076.24 1778.75 1076.74 1779.36 1077.24 1780.38 1077.55 1781.81 1077.65L1781.36 1079.64 1765.15 1079.64 1765.6 1077.65C1766.62 1077.49 1767.39 1077.23 1767.91 1076.86 1768.42 1076.5 1768.85 1075.99 1769.2 1075.34 1769.56 1074.7 1769.88 1073.91 1770.18 1072.97 1770.47 1072.04 1770.92 1070.24 1771.51 1067.56L1774.84 1052.53 1753.07 1052.53 1749.71 1067.85C1749.41 1069.2 1749.2 1070.31 1749.06 1071.19 1748.93 1072.07 1748.86 1073.06 1748.86 1074.17 1748.86 1075.33 1749.13 1076.17 1749.67 1076.68 1750.21 1077.19 1751.26 1077.52 1752.83 1077.65L1752.39 1079.64 1736.17 1079.64 1736.62 1077.65C1737.65 1077.49 1738.42 1077.23 1738.93 1076.86 1739.44 1076.5 1739.88 1075.99 1740.23 1075.34 1740.58 1074.7 1740.9 1073.91 1741.2 1072.97 1741.5 1072.04 1741.94 1070.24 1742.54 1067.56L1749.43 1036.36C1749.67 1035.25 1749.88 1034.07 1750.06 1032.81 1750.23 1031.55 1750.32 1030.56 1750.32 1029.83 1750.32 1028.56 1750 1027.68 1749.37 1027.18 1748.73 1026.68 1747.73 1026.39 1746.35 1026.31Z" fill-rule="evenodd"/><text fill="#000000" fill-opacity="0" font-family="Arial,Arial_MSFontService,sans-serif" font-size="55.3198" x="1736.17" y="1072.73">𝐻</text><path d="M1905.78 1017.53C1913.67 1019.61 1919.73 1024.1 1923.96 1031 1928.19 1037.9 1930.3 1046.23 1930.3 1055.99 1930.3 1065.77 1928.2 1074.1 1923.98 1080.97 1919.77 1087.85 1913.7 1092.33 1905.78 1094.41L1904.81 1091.29C1911.05 1089.21 1915.69 1085.1 1918.73 1078.97 1921.77 1072.83 1923.29 1065.04 1923.29 1055.58 1923.29 1046.45 1921.78 1038.86 1918.75 1032.82 1915.73 1026.79 1911.04 1022.73 1904.69 1020.65ZM1828.24 1017.53 1829.34 1020.65C1823.01 1022.73 1818.33 1026.79 1815.29 1032.82 1812.25 1038.86 1810.73 1046.45 1810.73 1055.58 1810.73 1065.04 1812.25 1072.83 1815.29 1078.97 1818.33 1085.1 1822.97 1089.21 1829.21 1091.29L1828.24 1094.41C1820.32 1092.33 1814.26 1087.85 1810.04 1080.97 1805.83 1074.1 1803.72 1065.77 1803.72 1055.99 1803.72 1046.23 1805.84 1037.9 1810.06 1031 1814.29 1024.1 1820.35 1019.61 1828.24 1017.53Z" fill-rule="evenodd"/><path d="M1843.51 1024.32 1857.98 1024.32 1862.6 1063.63 1886.23 1024.32 1898.99 1024.32 1898.55 1026.31C1897.52 1026.52 1896.79 1026.77 1896.34 1027.04 1895.89 1027.31 1895.49 1027.71 1895.12 1028.25 1894.76 1028.79 1894.39 1029.64 1894.03 1030.78 1893.66 1031.93 1893.2 1033.8 1892.63 1036.4L1885.7 1067.85C1885.35 1069.44 1885.12 1070.7 1885.01 1071.64 1884.9 1072.57 1884.85 1073.41 1884.85 1074.17 1884.85 1075.38 1885.15 1076.24 1885.76 1076.74 1886.37 1077.24 1887.39 1077.55 1888.82 1077.65L1888.38 1079.64 1872.16 1079.64 1872.61 1077.65C1873.64 1077.49 1874.41 1077.23 1874.92 1076.86 1875.43 1076.5 1875.87 1075.99 1876.22 1075.34 1876.57 1074.7 1876.89 1073.91 1877.19 1072.97 1877.49 1072.04 1877.93 1070.24 1878.53 1067.56L1883.92 1043.12C1884.67 1039.75 1885.54 1036.38 1886.51 1033.03L1885.94 1033.03C1885.11 1034.63 1883.22 1037.87 1880.27 1042.76L1861.83 1073.2 1857.41 1073.2 1854.05 1047.14C1853.56 1043.46 1853.02 1038.52 1852.43 1032.3L1851.62 1032.3C1850.7 1038.36 1849.67 1043.96 1848.54 1049.12L1844.4 1067.85C1843.84 1070.41 1843.55 1072.52 1843.55 1074.17 1843.55 1075.38 1843.86 1076.24 1844.46 1076.74 1845.07 1077.24 1846.09 1077.55 1847.52 1077.65L1847.08 1079.64 1832.89 1079.64 1833.34 1077.65C1834.37 1077.49 1835.14 1077.23 1835.65 1076.86 1836.16 1076.5 1836.6 1075.99 1836.95 1075.34 1837.3 1074.7 1837.62 1073.91 1837.92 1072.97 1838.22 1072.04 1838.66 1070.24 1839.26 1067.56L1846.15 1036.36C1846.42 1035.2 1846.63 1034.09 1846.79 1033.03 1846.96 1031.98 1847.04 1030.91 1847.04 1029.83 1847.04 1028.56 1846.72 1027.68 1846.09 1027.18 1845.45 1026.68 1844.44 1026.39 1843.07 1026.31Z" fill-rule="evenodd"/><text fill="#000000" fill-opacity="0" font-family="Arial,Arial_MSFontService,sans-serif" font-size="55.3198" x="1832.89" y="1072.73">𝑀</text><path d="M0.0331744-4.58321 454.086-1.29668 454.019 7.86975-0.0331744 4.58321ZM449.635-19.6627 495.301 3.5851 449.303 26.1694Z" transform="matrix(1 0 0 -1 1917.5 753.085)"/><path d="M493 1201C493 1140.8 541.801 1092 602 1092 662.199 1092 711 1140.8 711 1201 711 1261.2 662.199 1310 602 1310 541.801 1310 493 1261.2 493 1201Z" fill="#FDEFE8" fill-rule="evenodd"/><path d="M603.018 1175.36 609.341 1175.36 609.341 1238.78 603.018 1238.78ZM588.834 1175.36 595.156 1175.36 595.156 1238.78 588.834 1238.78Z" fill="#D74514" fill-rule="evenodd"/><text fill="#000000" fill-opacity="0" font-family="Arial,Arial_MSFontService,sans-serif" font-size="63.4253" x="588.834" y="1230.85">∥</text><path d="M711.5 1196.92 829.549 1196.92 829.549 1206.08 711.5 1206.08ZM824.966 1178.58 870.799 1201.5 824.966 1224.42Z"/><path d="M2412 749C2412 688.801 2461.02 640 2521.5 640 2581.98 640 2631 688.801 2631 749 2631 809.199 2581.98 858 2521.5 858 2461.02 858 2412 809.199 2412 749Z" fill="#FDEFE8" fill-rule="evenodd"/><path d="M2522.29 723.121 2528.61 723.121 2528.61 786.546 2522.29 786.546ZM2508.1 723.121 2514.42 723.121 2514.42 786.546 2508.1 786.546Z" fill="#D74514" fill-rule="evenodd"/><text fill="#000000" fill-opacity="0" font-family="Arial,Arial_MSFontService,sans-serif" font-size="63.4253" x="2508.1" y="778.618">∥</text><path d="M0.00699562-4.58333 214.119-4.25653 214.105 4.91013-0.00699562 4.58333ZM209.564-22.5968 255.362 0.389764 209.494 23.2364Z" transform="matrix(1 0 0 -1 2631.5 749.89)"/></g></svg>