<svg width="2796" height="724" xmlns="http://www.w3.org/2000/svg" xmlns:xlink="http://www.w3.org/1999/xlink" overflow="hidden"><defs><clipPath id="clip0"><rect x="127" y="1332" width="2796" height="724"/></clipPath></defs><g clip-path="url(#clip0)" transform="translate(-127 -1332)"><path d="M127 1708.5C127 1608.26 208.26 1527 308.5 1527 408.74 1527 490 1608.26 490 1708.5 490 1808.74 408.74 1890 308.5 1890 208.26 1890 127 1808.74 127 1708.5Z" fill="#D74514" fill-rule="evenodd"/><text fill="#FFFFFF" font-family="Microsoft YaHei,Microsoft YaHei_MSFontService,sans-serif" font-weight="700" font-size="83" transform="matrix(1 0 0 1 277.536 1738)">A</text><path d="M2560 1694.5C2560 1594.26 2641.26 1513 2741.5 1513 2841.74 1513 2923 1594.26 2923 1694.5 2923 1794.74 2841.74 1876 2741.5 1876 2641.26 1876 2560 1794.74 2560 1694.5Z" fill="#D74514" fill-rule="evenodd"/><text fill="#FFFFFF" font-family="Microsoft YaHei,Microsoft YaHei_MSFontService,sans-serif" font-weight="700" font-size="83" transform="matrix(1 0 0 1 2713.6 1724)">B<tspan fill="#000000" font-weight="400" font-size="83" x="-1397.74" y="-287">①</tspan></text><path d="M1451.18 1384.88C1449.51 1384.88 1447.75 1384.92 1445.91 1385L1440.4 1409.56 1444.62 1409.56C1447.89 1409.56 1450.53 1409.22 1452.54 1408.54 1454.55 1407.87 1456.2 1406.82 1457.48 1405.4 1458.77 1403.98 1459.76 1402.3 1460.46 1400.36 1461.17 1398.41 1461.52 1396.28 1461.52 1393.95 1461.52 1390.82 1460.72 1388.52 1459.13 1387.06 1457.53 1385.6 1454.88 1384.88 1451.18 1384.88ZM1485.2 1381.31 1501.41 1381.31 1500.97 1383.29C1499.94 1383.51 1499.2 1383.75 1498.76 1384.02 1498.31 1384.29 1497.91 1384.7 1497.56 1385.24 1497.21 1385.78 1496.85 1386.62 1496.47 1387.77 1496.09 1388.92 1495.62 1390.79 1495.05 1393.39L1492.17 1406.31 1493.51 1406.31C1494.64 1406.31 1495.68 1406.13 1496.61 1405.75 1497.54 1405.37 1498.63 1404.68 1499.87 1403.68 1501.12 1402.68 1503.09 1400.84 1505.81 1398.17 1508.53 1395.49 1510.46 1393.46 1511.61 1392.07 1512.75 1390.68 1513.59 1389.48 1514.12 1388.46 1514.64 1387.45 1514.91 1386.52 1514.91 1385.69 1514.91 1385.01 1514.64 1384.46 1514.1 1384.04 1513.56 1383.63 1512.79 1383.38 1511.79 1383.29L1512.23 1381.31 1529.62 1381.31 1529.17 1383.29C1528.09 1383.46 1526.87 1384.02 1525.51 1384.98 1524.14 1385.94 1522.05 1387.81 1519.24 1390.59L1503.52 1405.91 1512.15 1426.66C1513.04 1428.79 1513.78 1430.33 1514.36 1431.28 1514.94 1432.22 1515.64 1432.97 1516.45 1433.53 1517.26 1434.08 1518.26 1434.45 1519.45 1434.64L1519 1436.63 1503.36 1436.63 1503.8 1434.64C1505.26 1434.51 1505.99 1433.86 1505.99 1432.7 1505.99 1431.97 1505.84 1431.14 1505.55 1430.21 1505.25 1429.27 1504.9 1428.31 1504.49 1427.31L1499.22 1414.42C1498.6 1412.88 1498.06 1411.8 1497.6 1411.18 1497.14 1410.56 1496.66 1410.12 1496.14 1409.88 1495.63 1409.64 1494.83 1409.52 1493.75 1409.52L1491.48 1409.52 1488.12 1424.84C1487.77 1426.46 1487.54 1427.73 1487.43 1428.67 1487.32 1429.6 1487.27 1430.43 1487.27 1431.16 1487.27 1432.37 1487.57 1433.23 1488.18 1433.73 1488.79 1434.23 1489.81 1434.53 1491.24 1434.64L1490.79 1436.63 1474.58 1436.63 1475.03 1434.64C1476.06 1434.48 1476.83 1434.22 1477.34 1433.85 1477.85 1433.49 1478.29 1432.98 1478.64 1432.33 1478.99 1431.68 1479.31 1430.89 1479.61 1429.96 1479.91 1429.03 1480.35 1427.23 1480.95 1424.55L1487.84 1393.35C1488.43 1390.64 1488.73 1388.47 1488.73 1386.82 1488.73 1385.55 1488.41 1384.67 1487.78 1384.17 1487.14 1383.67 1486.13 1383.38 1484.76 1383.29ZM1434.2 1381.31 1452.07 1381.31C1455.29 1381.31 1457.93 1381.56 1460 1382.06 1462.06 1382.56 1463.77 1383.33 1465.1 1384.37 1466.44 1385.41 1467.44 1386.73 1468.1 1388.32 1468.76 1389.91 1469.1 1391.76 1469.1 1393.87 1469.1 1397.93 1468.14 1401.44 1466.22 1404.41 1464.3 1407.38 1461.7 1409.57 1458.42 1410.97 1455.13 1412.38 1451.2 1413.08 1446.6 1413.08 1443.85 1413.08 1441.55 1413.03 1439.71 1412.92L1437.12 1424.84C1436.88 1425.94 1436.71 1426.79 1436.61 1427.39 1436.52 1427.98 1436.44 1428.62 1436.37 1429.31 1436.3 1430 1436.27 1430.62 1436.27 1431.16 1436.27 1431.99 1436.4 1432.65 1436.67 1433.12 1436.94 1433.6 1437.35 1433.94 1437.89 1434.16 1438.43 1434.37 1439.36 1434.53 1440.69 1434.64L1440.24 1436.63 1423.58 1436.63 1424.03 1434.64C1425.06 1434.48 1425.83 1434.22 1426.34 1433.85 1426.85 1433.49 1427.29 1432.98 1427.64 1432.33 1427.99 1431.68 1428.31 1430.89 1428.61 1429.96 1428.91 1429.03 1429.35 1427.23 1429.95 1424.55L1436.84 1393.35C1437.43 1390.64 1437.73 1388.51 1437.73 1386.94 1437.73 1385.62 1437.42 1384.7 1436.8 1384.19 1436.17 1383.67 1435.16 1383.38 1433.76 1383.29Z" fill-rule="evenodd"/><text fill="#000000" fill-opacity="0" font-family="Arial,Arial_MSFontService,sans-serif" font-size="55.3198" x="1423.58" y="1429.71">𝑃𝐾</text><path d="M1545.58 1420.86C1543.85 1423.68 1542.14 1426.5 1540.44 1429.33 1538.74 1432.16 1537.03 1435 1535.3 1437.84L1546.77 1437.84C1546.67 1436.56 1546.57 1435.32 1546.47 1434.1 1546.37 1432.88 1546.29 1431.59 1546.23 1430.24 1546.17 1428.89 1546.12 1427.45 1546.07 1425.92 1546.02 1424.39 1545.99 1422.7 1545.99 1420.86ZM1545.46 1414.33 1550.37 1414.33 1553.08 1445.82C1553.16 1446.83 1553.29 1447.68 1553.46 1448.38 1553.62 1449.07 1553.86 1449.65 1554.16 1450.11 1554.45 1450.56 1554.83 1450.91 1555.27 1451.15 1555.72 1451.39 1556.28 1451.56 1556.95 1451.66L1556.51 1453.47 1543.52 1453.47 1543.97 1451.66C1544.52 1451.56 1545.02 1451.43 1545.44 1451.28 1545.87 1451.13 1546.22 1450.89 1546.5 1450.54 1546.78 1450.19 1546.99 1449.72 1547.14 1449.12 1547.29 1448.53 1547.36 1447.75 1547.36 1446.8 1547.36 1446.44 1547.35 1446.03 1547.33 1445.56 1547.31 1445.1 1547.29 1444.61 1547.26 1444.09 1547.23 1443.57 1547.19 1443.04 1547.14 1442.5 1547.09 1441.95 1547.05 1441.42 1547.01 1440.9L1533.66 1440.9C1533.21 1441.58 1532.75 1442.27 1532.31 1442.99 1531.86 1443.7 1531.45 1444.4 1531.09 1445.09 1530.72 1445.77 1530.43 1446.45 1530.21 1447.13 1529.99 1447.8 1529.88 1448.47 1529.88 1449.12 1529.88 1450.57 1530.94 1451.42 1533.07 1451.66L1532.68 1453.47 1519.66 1453.47 1519.99 1451.66C1520.53 1451.56 1521.01 1451.4 1521.44 1451.19 1521.86 1450.99 1522.31 1450.66 1522.78 1450.21 1523.24 1449.76 1523.75 1449.16 1524.3 1448.39 1524.84 1447.63 1525.5 1446.62 1526.28 1445.37Z" fill-rule="evenodd"/><text fill="#000000" fill-opacity="0" font-family="Arial,Arial_MSFontService,sans-serif" font-size="39.1377" x="1519.66" y="1448.58">𝐴</text><path d="M1609.64 1381.31 1615.96 1381.31 1615.96 1444.73 1609.64 1444.73ZM1595.45 1381.31 1601.78 1381.31 1601.78 1444.73 1595.45 1444.73Z" fill-rule="evenodd"/><text fill="#000000" fill-opacity="0" font-family="Arial,Arial_MSFontService,sans-serif" font-size="63.4253" x="1595.45" y="1436.81">∥</text><path d="M1726.5 1384.83C1725.31 1384.83 1724.03 1384.88 1722.65 1384.96L1712.16 1432.9C1712.94 1432.98 1714.44 1433.02 1716.65 1433.02 1721.03 1433.02 1724.75 1432.26 1727.8 1430.73 1730.85 1429.21 1733.49 1426.81 1735.7 1423.56 1737.92 1420.3 1739.55 1416.87 1740.61 1413.26 1741.66 1409.66 1742.19 1405.85 1742.19 1401.86 1742.19 1396.21 1740.87 1391.96 1738.23 1389.11 1735.6 1386.26 1731.69 1384.83 1726.5 1384.83ZM1711.02 1381.31 1726.38 1381.31C1730.46 1381.31 1733.77 1381.62 1736.31 1382.24 1738.85 1382.86 1741.22 1383.98 1743.42 1385.6 1745.62 1387.23 1747.28 1389.38 1748.39 1392.07 1749.49 1394.76 1750.05 1397.94 1750.05 1401.61 1750.05 1405.26 1749.63 1408.75 1748.79 1412.07 1747.95 1415.39 1746.75 1418.45 1745.19 1421.25 1743.62 1424.04 1741.74 1426.48 1739.55 1428.54 1737.36 1430.61 1735.24 1432.2 1733.19 1433.31 1731.14 1434.41 1728.84 1435.24 1726.3 1435.8 1723.76 1436.35 1720.8 1436.63 1717.42 1436.63L1700.4 1436.63 1700.85 1434.64C1701.87 1434.48 1702.64 1434.22 1703.16 1433.85 1703.67 1433.49 1704.1 1432.98 1704.46 1432.33 1704.81 1431.68 1705.13 1430.89 1705.43 1429.96 1705.72 1429.03 1706.17 1427.23 1706.77 1424.55L1713.65 1393.35C1714.25 1390.64 1714.55 1388.47 1714.55 1386.82 1714.55 1385.55 1714.23 1384.67 1713.59 1384.17 1712.96 1383.67 1711.95 1383.38 1710.57 1383.29ZM1679.02 1381.31 1695.23 1381.31 1694.79 1383.29C1693.76 1383.51 1693.02 1383.75 1692.58 1384.02 1692.13 1384.29 1691.73 1384.7 1691.38 1385.24 1691.03 1385.78 1690.67 1386.62 1690.29 1387.77 1689.91 1388.92 1689.44 1390.79 1688.87 1393.39L1681.94 1424.84C1681.59 1426.43 1681.36 1427.69 1681.25 1428.62 1681.14 1429.56 1681.09 1430.4 1681.09 1431.16 1681.09 1432.37 1681.39 1433.23 1682 1433.73 1682.61 1434.23 1683.63 1434.53 1685.06 1434.64L1684.61 1436.63 1668.4 1436.63 1668.85 1434.64C1669.87 1434.48 1670.64 1434.22 1671.16 1433.85 1671.67 1433.49 1672.1 1432.98 1672.46 1432.33 1672.81 1431.68 1673.13 1430.89 1673.43 1429.96 1673.72 1429.03 1674.17 1427.23 1674.77 1424.55L1681.65 1393.35C1682.25 1390.64 1682.55 1388.47 1682.55 1386.82 1682.55 1385.55 1682.23 1384.67 1681.59 1384.17 1680.96 1383.67 1679.95 1383.38 1678.57 1383.29Z" fill-rule="evenodd"/><text fill="#000000" fill-opacity="0" font-family="Arial,Arial_MSFontService,sans-serif" font-size="55.3198" x="1668.4" y="1429.71">𝐼𝐷</text><path d="M1772.11 1420.86C1770.38 1423.68 1768.67 1426.5 1766.97 1429.33 1765.27 1432.16 1763.56 1435 1761.83 1437.84L1773.3 1437.84C1773.2 1436.56 1773.1 1435.32 1773 1434.1 1772.9 1432.88 1772.82 1431.59 1772.76 1430.24 1772.7 1428.89 1772.65 1427.45 1772.6 1425.92 1772.55 1424.39 1772.53 1422.7 1772.53 1420.86ZM1771.99 1414.33 1776.9 1414.33 1779.61 1445.82C1779.69 1446.83 1779.82 1447.68 1779.99 1448.38 1780.16 1449.07 1780.39 1449.65 1780.69 1450.11 1780.98 1450.56 1781.36 1450.91 1781.8 1451.15 1782.25 1451.39 1782.81 1451.56 1783.49 1451.66L1783.04 1453.47 1770.05 1453.47 1770.5 1451.66C1771.06 1451.56 1771.55 1451.43 1771.97 1451.28 1772.4 1451.13 1772.75 1450.89 1773.03 1450.54 1773.31 1450.19 1773.52 1449.72 1773.67 1449.12 1773.82 1448.53 1773.9 1447.75 1773.9 1446.8 1773.9 1446.44 1773.89 1446.03 1773.87 1445.56 1773.85 1445.1 1773.82 1444.61 1773.79 1444.09 1773.76 1443.57 1773.72 1443.04 1773.67 1442.5 1773.62 1441.95 1773.58 1441.42 1773.54 1440.9L1760.19 1440.9C1759.74 1441.58 1759.29 1442.27 1758.84 1442.99 1758.39 1443.7 1757.99 1444.4 1757.62 1445.09 1757.25 1445.77 1756.96 1446.45 1756.74 1447.13 1756.52 1447.8 1756.41 1448.47 1756.41 1449.12 1756.41 1450.57 1757.47 1451.42 1759.6 1451.66L1759.21 1453.47 1746.2 1453.47 1746.52 1451.66C1747.06 1451.56 1747.54 1451.4 1747.97 1451.19 1748.39 1450.99 1748.84 1450.66 1749.31 1450.21 1749.77 1449.76 1750.28 1449.16 1750.83 1448.39 1751.37 1447.63 1752.03 1446.62 1752.81 1445.37Z" fill-rule="evenodd"/><text fill="#000000" fill-opacity="0" font-family="Arial,Arial_MSFontService,sans-serif" font-size="39.1377" x="1746.2" y="1448.58">𝐴</text><text font-family="Microsoft YaHei,Microsoft YaHei_MSFontService,sans-serif" font-weight="400" font-size="83" transform="matrix(1 0 0 1 1344.77 1986)">②</text><path d="M1463.11 1930.62 1500.4 1930.62 1497.6 1943.07 1493.71 1943.07C1493.6 1940.72 1493.4 1938.95 1493.1 1937.76 1492.8 1936.57 1492.45 1935.75 1492.03 1935.31 1491.61 1934.86 1491.11 1934.56 1490.53 1934.41 1489.95 1934.27 1489.12 1934.19 1488.04 1934.19L1474.82 1934.19 1470.2 1955.43 1477.94 1955.43C1479.86 1955.43 1481.33 1954.98 1482.34 1954.07 1483.35 1953.16 1484.37 1951.67 1485.4 1949.59L1489.09 1949.59 1485.44 1965.15 1482 1965.15C1482 1962.99 1481.86 1961.53 1481.59 1960.76 1481.32 1959.99 1480.92 1959.5 1480.4 1959.3 1479.87 1959.1 1478.92 1958.99 1477.54 1958.99L1469.43 1958.99 1464.25 1982.38 1476.24 1982.38C1477.84 1982.38 1479.1 1982.22 1480.03 1981.89 1480.96 1981.57 1481.84 1981.04 1482.67 1980.31 1483.49 1979.58 1484.31 1978.56 1485.14 1977.25 1485.96 1975.94 1486.94 1974.16 1488.08 1971.92L1492.01 1971.92 1488.44 1985.94 1452.49 1985.94 1452.94 1983.96C1453.97 1983.8 1454.74 1983.53 1455.25 1983.17 1455.76 1982.8 1456.19 1982.3 1456.55 1981.65 1456.9 1981 1457.22 1980.21 1457.52 1979.28 1457.82 1978.35 1458.26 1976.54 1458.86 1973.87L1465.75 1942.66C1466.34 1939.96 1466.64 1937.78 1466.64 1936.14 1466.64 1934.87 1466.32 1933.98 1465.68 1933.48 1465.05 1932.98 1464.04 1932.69 1462.67 1932.61Z" fill-rule="evenodd"/><text fill="#000000" fill-opacity="0" font-family="Arial,Arial_MSFontService,sans-serif" font-size="55.3198" x="1452.49" y="1979.03">𝐸</text><path d="M1519.78 1967.31C1519.07 1967.31 1518.38 1967.32 1517.73 1967.34 1517.07 1967.36 1516.42 1967.39 1515.79 1967.43L1512.01 1983.55 1515.58 1983.55C1517.9 1983.59 1519.83 1983.36 1521.36 1982.86 1522.89 1982.37 1524.11 1981.66 1525.04 1980.75 1525.96 1979.83 1526.61 1978.76 1526.99 1977.53 1527.37 1976.3 1527.55 1974.96 1527.55 1973.51 1527.55 1971.35 1526.93 1969.77 1525.68 1968.79 1524.43 1967.81 1522.46 1967.31 1519.78 1967.31ZM1545.65 1964.16 1558.21 1964.16 1557.89 1965.94C1557.43 1966.06 1557.04 1966.16 1556.73 1966.24 1556.41 1966.32 1556.12 1966.44 1555.88 1966.6 1555.63 1966.76 1555.41 1966.97 1555.24 1967.24 1555.06 1967.51 1554.88 1967.88 1554.71 1968.34 1554.55 1968.81 1554.37 1969.39 1554.18 1970.1 1553.99 1970.8 1553.78 1971.67 1553.54 1972.71L1551.6 1981.46 1552.44 1981.46C1552.89 1981.46 1553.31 1981.43 1553.69 1981.37 1554.06 1981.31 1554.44 1981.21 1554.8 1981.06 1555.17 1980.91 1555.55 1980.71 1555.94 1980.45 1556.32 1980.19 1556.76 1979.86 1557.26 1979.47 1559.33 1977.86 1561.05 1976.42 1562.44 1975.15 1563.83 1973.88 1564.96 1972.76 1565.82 1971.78 1566.69 1970.81 1567.3 1969.98 1567.67 1969.3 1568.04 1968.61 1568.22 1968.04 1568.22 1967.58 1568.22 1967.11 1568.03 1966.73 1567.66 1966.47 1567.28 1966.2 1566.66 1966.05 1565.81 1966.03L1566.14 1964.16 1579.69 1964.16 1579.27 1966.03C1578.82 1966.07 1578.38 1966.16 1577.98 1966.3 1577.57 1966.44 1577.1 1966.69 1576.56 1967.06 1576.03 1967.43 1575.39 1967.93 1574.64 1968.58 1573.9 1969.23 1572.96 1970.06 1571.83 1971.1L1560.21 1981.58 1566.94 1995.58C1567.46 1996.67 1567.9 1997.54 1568.28 1998.17 1568.66 1998.81 1569.05 1999.31 1569.44 1999.69 1569.84 2000.07 1570.29 2000.34 1570.8 2000.51 1571.31 2000.68 1571.94 2000.83 1572.69 2000.97L1572.21 2002.79 1559.94 2002.79 1560.36 2000.97C1560.92 2000.93 1561.33 2000.81 1561.61 2000.6 1561.89 2000.39 1562.03 2000.13 1562.03 1999.81 1562.01 1999.59 1561.98 1999.36 1561.94 1999.12 1561.9 1998.89 1561.83 1998.62 1561.73 1998.34 1561.63 1998.05 1561.5 1997.71 1561.34 1997.32 1561.18 1996.94 1560.98 1996.47 1560.75 1995.94L1556.76 1987.42C1556.42 1986.66 1556.11 1986.07 1555.85 1985.63 1555.58 1985.2 1555.3 1984.86 1555.01 1984.62 1554.72 1984.38 1554.4 1984.23 1554.03 1984.16 1553.66 1984.09 1553.2 1984.05 1552.64 1984.05L1551.01 1984.05C1550.85 1984.87 1550.66 1985.74 1550.44 1986.67 1550.22 1987.61 1550 1988.56 1549.79 1989.52 1549.57 1990.48 1549.36 1991.43 1549.16 1992.36 1548.96 1993.3 1548.78 1994.17 1548.62 1994.97 1548.46 1995.77 1548.34 1996.49 1548.24 1997.11 1548.14 1997.74 1548.09 1998.22 1548.09 1998.56 1548.09 1999.39 1548.33 1999.98 1548.82 2000.33 1549.3 2000.68 1550.13 2000.89 1551.3 2000.97L1550.83 2002.79 1538.29 2002.79 1538.62 2000.97C1539.23 2000.87 1539.73 2000.76 1540.12 2000.63 1540.51 2000.5 1540.85 2000.22 1541.16 1999.8 1541.47 1999.37 1541.75 1998.73 1542.01 1997.87 1542.27 1997.02 1542.57 1995.81 1542.9 1994.24L1547.79 1972.53C1547.99 1971.65 1548.14 1970.88 1548.24 1970.2 1548.34 1969.53 1548.39 1968.95 1548.39 1968.48 1548.39 1967.6 1548.16 1966.98 1547.7 1966.61 1547.24 1966.25 1546.41 1966.05 1545.2 1966.03ZM1506.65 1964.16 1520.11 1964.16C1522.25 1964.16 1524.15 1964.32 1525.81 1964.65 1527.47 1964.98 1528.87 1965.5 1530.01 1966.23 1531.15 1966.95 1532.02 1967.9 1532.62 1969.06 1533.21 1970.22 1533.53 1971.64 1533.57 1973.33 1533.57 1975.54 1533.16 1977.48 1532.33 1979.15 1531.51 1980.83 1530.35 1982.23 1528.86 1983.34 1527.38 1984.45 1525.59 1985.29 1523.5 1985.86 1521.42 1986.42 1519.12 1986.69 1516.59 1986.67 1515.5 1986.67 1514.52 1986.66 1513.64 1986.65 1512.77 1986.63 1512.04 1986.6 1511.44 1986.56 1511.22 1987.59 1510.97 1988.71 1510.7 1989.92 1510.42 1991.13 1510.16 1992.3 1509.92 1993.42 1509.68 1994.54 1509.48 1995.57 1509.33 1996.49 1509.17 1997.41 1509.09 1998.1 1509.09 1998.56 1509.09 1998.96 1509.14 1999.3 1509.25 1999.59 1509.36 1999.87 1509.54 2000.12 1509.79 2000.32 1510.04 2000.52 1510.39 2000.66 1510.84 2000.76 1511.3 2000.86 1511.89 2000.93 1512.6 2000.97L1512.19 2002.79 1499.29 2002.79 1499.62 2000.97C1500.23 2000.87 1500.74 2000.75 1501.13 2000.6 1501.53 2000.45 1501.88 2000.16 1502.19 1999.74 1502.5 1999.31 1502.78 1998.67 1503.03 1997.81 1503.27 1996.96 1503.57 1995.77 1503.9 1994.24L1508.79 1972.53C1508.99 1971.65 1509.14 1970.88 1509.24 1970.2 1509.34 1969.53 1509.39 1968.97 1509.39 1968.54 1509.39 1967.64 1509.16 1967.01 1508.72 1966.63 1508.27 1966.25 1507.43 1966.05 1506.2 1966.03Z" fill-rule="evenodd"/><text fill="#000000" fill-opacity="0" font-family="Arial,Arial_MSFontService,sans-serif" font-size="38.6313" x="1499.29" y="1997.96">𝑃𝐾</text><path d="M1600.06 1981.09C1603.5 1981.09 1606.88 1981.63 1610.22 1982.72L1608.7 1989.49 1605.58 1989.49C1605.45 1987.65 1604.89 1986.29 1603.89 1985.41 1602.9 1984.53 1601.34 1984.09 1599.21 1984.09 1597.29 1984.09 1595.73 1984.57 1594.54 1985.53 1593.36 1986.49 1592.76 1987.8 1592.76 1989.46 1592.76 1990.68 1593.13 1991.75 1593.86 1992.66 1594.59 1993.57 1596.02 1994.66 1598.13 1995.91 1600.09 1997.05 1601.57 1998.06 1602.58 1998.95 1603.59 1999.84 1604.35 2000.82 1604.87 2001.9 1605.39 2002.98 1605.65 2004.23 1605.65 2005.63 1605.65 2007.56 1605.13 2009.3 1604.08 2010.83 1603.03 2012.36 1601.51 2013.55 1599.54 2014.4 1597.56 2015.26 1595.28 2015.68 1592.69 2015.68 1589.45 2015.68 1585.71 2015.11 1581.46 2013.97L1583 2006.92 1586.12 2006.92C1586.22 2008.97 1586.82 2010.45 1587.92 2011.36 1589.01 2012.27 1590.78 2012.73 1593.2 2012.73 1595.41 2012.73 1597.15 2012.18 1598.4 2011.08 1599.65 2009.98 1600.28 2008.5 1600.28 2006.63 1600.28 2005.41 1599.89 2004.29 1599.11 2003.27 1598.33 2002.25 1596.73 2001.05 1594.32 1999.67 1591.87 1998.25 1590.09 1996.83 1588.99 1995.41 1587.89 1993.98 1587.34 1992.42 1587.34 1990.71 1587.34 1988.8 1587.85 1987.12 1588.87 1985.67 1589.89 1984.21 1591.35 1983.08 1593.27 1982.29 1595.2 1981.49 1597.46 1981.09 1600.06 1981.09Z" fill-rule="evenodd"/><text fill="#000000" fill-opacity="0" font-family="Arial,Arial_MSFontService,sans-serif" font-size="34.5947" x="1581.46" y="2011.36">𝑆</text><path d="M1734.03 1923.62 1752.1 1923.62 1752.1 2000.91 1734.03 2000.91 1734.03 1997.79 1745.38 1997.79 1745.38 1926.74 1734.03 1926.74ZM1625.91 1923.62 1643.99 1923.62 1643.99 1926.74 1632.64 1926.74 1632.64 1997.79 1643.99 1997.79 1643.99 2000.91 1625.91 2000.91Z" fill-rule="evenodd"/><path d="M1658.48 1930.62 1674.69 1930.62 1674.24 1932.61C1673.21 1932.83 1672.48 1933.07 1672.03 1933.34 1671.59 1933.61 1671.19 1934.02 1670.84 1934.56 1670.49 1935.1 1670.12 1935.94 1669.74 1937.09 1669.36 1938.24 1668.89 1940.11 1668.32 1942.7L1665.45 1955.63 1666.78 1955.63C1667.92 1955.63 1668.95 1955.44 1669.88 1955.06 1670.82 1954.68 1671.9 1954 1673.15 1953 1674.39 1952 1676.37 1950.16 1679.08 1947.48 1681.8 1944.81 1683.73 1942.78 1684.88 1941.39 1686.03 1939.99 1686.86 1938.79 1687.39 1937.78 1687.92 1936.76 1688.18 1935.84 1688.18 1935 1688.18 1934.33 1687.91 1933.78 1687.37 1933.36 1686.83 1932.94 1686.06 1932.69 1685.06 1932.61L1685.51 1930.62 1702.89 1930.62 1702.45 1932.61C1701.37 1932.77 1700.14 1933.33 1698.78 1934.29 1697.42 1935.25 1695.33 1937.12 1692.52 1939.91L1676.79 1955.23 1685.43 1975.98C1686.32 1978.11 1687.05 1979.65 1687.64 1980.6 1688.22 1981.54 1688.91 1982.29 1689.72 1982.84 1690.53 1983.4 1691.53 1983.77 1692.72 1983.96L1692.28 1985.94 1676.63 1985.94 1677.08 1983.96C1678.54 1983.82 1679.27 1983.18 1679.27 1982.01 1679.27 1981.28 1679.12 1980.45 1678.82 1979.52 1678.52 1978.59 1678.17 1977.62 1677.77 1976.62L1672.5 1963.74C1671.88 1962.2 1671.34 1961.12 1670.88 1960.49 1670.42 1959.87 1669.93 1959.44 1669.42 1959.2 1668.9 1958.95 1668.11 1958.83 1667.03 1958.83L1664.76 1958.83 1661.39 1974.15C1661.04 1975.77 1660.81 1977.05 1660.7 1977.98 1660.6 1978.91 1660.54 1979.74 1660.54 1980.47 1660.54 1981.69 1660.85 1982.55 1661.45 1983.05 1662.06 1983.55 1663.08 1983.85 1664.51 1983.96L1664.07 1985.94 1647.86 1985.94 1648.3 1983.96C1649.33 1983.8 1650.1 1983.53 1650.61 1983.17 1651.13 1982.8 1651.56 1982.3 1651.91 1981.65 1652.26 1981 1652.59 1980.21 1652.88 1979.28 1653.18 1978.35 1653.63 1976.54 1654.22 1973.87L1661.11 1942.66C1661.7 1939.96 1662 1937.78 1662 1936.14 1662 1934.87 1661.68 1933.98 1661.05 1933.48 1660.41 1932.98 1659.41 1932.69 1658.03 1932.61Z" fill-rule="evenodd"/><text fill="#000000" fill-opacity="0" font-family="Arial,Arial_MSFontService,sans-serif" font-size="55.3198" x="1647.86" y="1979.03">𝐾</text><path d="M1716.55 1963.59C1718.43 1963.59 1720.24 1963.74 1721.98 1964.02 1723.72 1964.31 1725.54 1964.77 1727.45 1965.41L1725.75 1972.97 1722.5 1972.97C1722.44 1971.86 1722.27 1970.9 1721.98 1970.1 1721.69 1969.3 1721.29 1968.64 1720.77 1968.13 1720.26 1967.63 1719.6 1967.25 1718.81 1967 1718.01 1966.75 1717.07 1966.63 1715.98 1966.63 1714.81 1966.63 1713.75 1966.79 1712.79 1967.11 1711.84 1967.42 1711.03 1967.88 1710.35 1968.46 1709.67 1969.05 1709.15 1969.75 1708.79 1970.58 1708.42 1971.4 1708.24 1972.3 1708.24 1973.27 1708.24 1974.01 1708.32 1974.68 1708.5 1975.3 1708.68 1975.91 1708.99 1976.51 1709.43 1977.08 1709.86 1977.66 1710.46 1978.25 1711.23 1978.84 1711.99 1979.44 1712.96 1980.09 1714.13 1980.81 1715.56 1981.7 1716.79 1982.54 1717.81 1983.34 1718.83 1984.13 1719.67 1984.96 1720.31 1985.81 1720.96 1986.66 1721.43 1987.57 1721.73 1988.54 1722.03 1989.5 1722.17 1990.58 1722.17 1991.77 1722.17 1993.5 1721.83 1995.07 1721.15 1996.5 1720.46 1997.93 1719.49 1999.16 1718.23 2000.2 1716.97 2001.23 1715.46 2002.03 1713.7 2002.59 1711.94 2003.16 1709.98 2003.44 1707.82 2003.44 1705.99 2003.44 1704.03 2003.29 1701.92 2002.98 1699.82 2002.67 1697.74 2002.22 1695.7 2001.63L1697.45 1993.58 1700.61 1993.58C1700.67 1995.97 1701.31 1997.7 1702.52 1998.77 1703.73 1999.84 1705.59 2000.38 1708.12 2000.38 1709.41 2000.38 1710.57 2000.21 1711.6 1999.87 1712.63 1999.53 1713.51 1999.05 1714.22 1998.41 1714.94 1997.77 1715.48 1997 1715.86 1996.09 1716.24 1995.17 1716.43 1994.15 1716.43 1993.02 1716.43 1992.22 1716.33 1991.51 1716.13 1990.86 1715.93 1990.21 1715.58 1989.57 1715.09 1988.94 1714.59 1988.3 1713.92 1987.66 1713.08 1987 1712.23 1986.35 1711.18 1985.63 1709.93 1984.86 1708.68 1984.08 1707.59 1983.31 1706.67 1982.55 1705.75 1981.79 1704.98 1980.99 1704.36 1980.17 1703.75 1979.34 1703.29 1978.48 1702.98 1977.59 1702.67 1976.7 1702.52 1975.74 1702.52 1974.73 1702.52 1973.06 1702.84 1971.55 1703.5 1970.19 1704.15 1968.83 1705.09 1967.66 1706.31 1966.67 1707.54 1965.69 1709.01 1964.93 1710.75 1964.4 1712.49 1963.86 1714.42 1963.59 1716.55 1963.59Z" fill-rule="evenodd"/><text fill="#000000" fill-opacity="0" font-family="Arial,Arial_MSFontService,sans-serif" font-size="39.8525" x="1695.7" y="1998.46">𝑆</text><path d="M0.967692-4.48001 765.265 160.61 763.329 169.57-0.967692 4.48001ZM764.655 141.722 804.617 173.799 754.978 186.522Z" transform="matrix(1 0 0 -1 437.5 1580.3)"/><path d="M438.2 1832.97 1202.05 1951.08 1200.65 1960.14 436.8 1842.03ZM1200.32 1932.26 1242.12 1961.91 1193.32 1977.55Z"/><path d="M1866.46 1402.02 2574.96 1553.54 2573.04 1562.51 1864.54 1410.98ZM2574.31 1534.66 2614.33 1566.65 2564.72 1579.48Z"/><path d="M0.830977-4.50737 709.099 126.068 707.437 135.083-0.830977 4.50737ZM707.916 107.208 748.835 138.055 699.606 152.282Z" transform="matrix(1 0 0 -1 1865.5 1961.55)"/></g></svg>