<svg xmlns="http://www.w3.org/2000/svg" width="2797" height="733" overflow="hidden"><defs><clipPath id="a"><path d="M171 2084h2797v733H171z"/></clipPath></defs><g clip-path="url(#a)" transform="translate(-171 -2084)"><path fill="#d74514" fill-rule="evenodd" d="M171 2465.5c0-100.24 81.26-181.5 181.5-181.5S534 2365.26 534 2465.5 452.74 2647 352.5 2647 171 2565.74 171 2465.5"/><text fill="#fff" font-family="Microsoft YaHei,Microsoft YaHei_MSFontService,sans-serif" font-size="83" font-weight="700" transform="translate(321.985 2495)">A</text><path fill="#d74514" fill-rule="evenodd" d="M2605 2451.5c0-100.24 81.26-181.5 181.5-181.5s181.5 81.26 181.5 181.5-81.26 181.5-181.5 181.5-181.5-81.26-181.5-181.5"/><text fill="#fff" font-family="Microsoft YaHei,Microsoft YaHei_MSFontService,sans-serif" font-size="83" font-weight="700" transform="translate(2758.05 2481)">B<tspan x="-1486.76" y="-293" fill="#000" font-weight="400">β‘ </tspan></text><path fill-rule="evenodd" d="M1389.63 2133.17h37.29l-2.8 12.44h-3.89c-.11-2.35-.31-4.12-.61-5.31s-.65-2.01-1.07-2.45a3.05 3.05 0 0 0-1.5-.89c-.58-.15-1.41-.23-2.49-.23h-13.22l-4.62 21.24h7.74c1.92 0 3.39-.45 4.4-1.36 1.01-.9 2.03-2.4 3.06-4.48h3.69l-3.65 15.57h-3.44c0-2.16-.14-3.63-.41-4.4s-.67-1.26-1.19-1.46c-.53-.2-1.48-.3-2.86-.3h-8.11l-5.18 23.38h11.99c1.6 0 2.86-.16 3.79-.49.93-.32 1.81-.85 2.64-1.58.82-.73 1.64-1.75 2.47-3.06.82-1.31 1.8-3.08 2.94-5.33h3.93l-3.57 14.03h-35.95l.45-1.99c1.03-.16 1.8-.42 2.31-.79.51-.36.94-.87 1.3-1.52.35-.65.67-1.44.97-2.37s.74-2.74 1.34-5.41l6.89-31.21c.59-2.7.89-4.87.89-6.52 0-1.27-.32-2.16-.96-2.66-.63-.5-1.64-.79-3.01-.87Z"/><text x="1379.01" y="2181.57" fill-opacity="0" font-family="Arial,Arial_MSFontService,sans-serif" font-size="55.32">πΈ</text><path fill-rule="evenodd" d="M1446.3 2169.86c-.71 0-1.4.01-2.05.03-.66.02-1.31.05-1.94.09l-3.78 16.11h3.57c2.32.04 4.25-.19 5.78-.69 1.53-.49 2.75-1.2 3.68-2.11.92-.91 1.57-1.99 1.95-3.22s.56-2.57.56-4.02c0-2.16-.62-3.74-1.87-4.72s-3.22-1.47-5.9-1.47m25.87-3.16h12.56l-.32 1.79c-.46.12-.85.22-1.16.29-.32.08-.61.2-.85.36-.25.16-.47.37-.64.64-.18.27-.36.64-.53 1.1-.16.47-.34 1.06-.53 1.76-.19.71-.4 1.58-.64 2.61l-1.94 8.75h.84c.45 0 .87-.02 1.25-.08a5 5 0 0 0 1.11-.32c.37-.15.75-.35 1.14-.61.38-.26.83-.58 1.32-.98 2.07-1.61 3.79-3.05 5.18-4.32s2.52-2.39 3.38-3.37c.87-.97 1.48-1.8 1.85-2.48.37-.69.55-1.26.55-1.72 0-.47-.19-.84-.56-1.11-.38-.27-1-.41-1.85-.43l.33-1.88h13.55l-.42 1.88a6 6 0 0 0-1.29.26c-.41.14-.88.4-1.42.76-.53.37-1.17.88-1.92 1.52-.74.65-1.68 1.49-2.81 2.52l-11.62 10.48 6.73 14c.52 1.1.96 1.96 1.34 2.59.38.64.77 1.15 1.16 1.52.4.38.85.65 1.36.82s1.14.33 1.89.46l-.48 1.82h-12.27l.42-1.82c.56-.04.97-.16 1.25-.37s.42-.47.42-.79c-.02-.22-.05-.44-.09-.68s-.11-.5-.21-.79-.23-.63-.39-1.01c-.16-.39-.36-.85-.59-1.39l-3.99-8.52c-.34-.75-.65-1.35-.91-1.79-.27-.43-.55-.77-.84-1.01s-.61-.39-.98-.46-.83-.1-1.39-.1h-1.63c-.16.81-.35 1.68-.57 2.62-.22.93-.44 1.88-.65 2.84q-.33 1.44-.63 2.85c-.2.93-.38 1.8-.54 2.6-.16.81-.28 1.52-.38 2.15q-.15.93-.15 1.44c0 .84.24 1.43.73 1.77.48.35 1.31.56 2.48.64l-.47 1.82h-12.54l.33-1.82c.61-.1 1.11-.21 1.5-.34s.73-.41 1.04-.83c.31-.43.59-1.07.85-1.92.26-.86.56-2.07.9-3.64l4.88-21.71c.2-.87.35-1.65.45-2.32.1-.68.15-1.25.15-1.73q0-1.32-.69-1.86c-.46-.37-1.29-.56-2.5-.58Zm-39 0h13.46c2.14 0 4.04.16 5.7.49s3.06.85 4.2 1.58c1.14.72 2.01 1.67 2.61 2.83.59 1.16.91 2.59.95 4.27 0 2.21-.41 4.15-1.24 5.83-.82 1.67-1.98 3.07-3.46 4.18q-2.235 1.665-5.37 2.52c-2.08.56-4.38.84-6.91.82-1.09 0-2.07-.01-2.95-.03-.87-.02-1.6-.05-2.2-.09-.22 1.03-.47 2.15-.74 3.36-.28 1.22-.54 2.38-.78 3.5-.24 1.13-.44 2.15-.59 3.07q-.24 1.38-.24 2.07c0 .4.05.74.16 1.03s.29.53.54.73q.375.3 1.05.45c.46.1 1.05.16 1.76.2l-.41 1.82h-12.9l.33-1.82c.61-.1 1.12-.22 1.52-.37.39-.15.74-.43 1.05-.86q.465-.645.84-1.92c.24-.86.54-2.05.88-3.58l4.88-21.71c.2-.87.35-1.65.45-2.32.1-.68.15-1.24.15-1.67 0-.9-.23-1.53-.67-1.91-.45-.38-1.29-.57-2.52-.59Z"/><text x="1425.81" y="2200.5" fill-opacity="0" font-family="Arial,Arial_MSFontService,sans-serif" font-size="38.631">π‘ƒπΎ</text><path fill-rule="evenodd" d="m1519.72 2201.82-2.76 12.65q.9.12 3.84.12c2.37 0 4.19-.16 5.44-.48q1.875-.48 3.15-1.47a6.04 6.04 0 0 0 1.87-2.43c.4-.96.6-2.14.6-3.56 0-1.09-.24-1.99-.72-2.69-.49-.71-1.21-1.24-2.17-1.6s-2.37-.54-4.24-.54Zm8.13-14.6c-1.79 0-3.41.07-4.86.22l-2.58 11.38h4.44c2.8 0 4.85-.29 6.16-.87s2.31-1.4 2.99-2.45c.69-1.06 1.03-2.3 1.03-3.71 0-1.06-.26-1.93-.78-2.59-.52-.67-1.28-1.17-2.27-1.49-1-.33-2.37-.49-4.13-.49m-13.45-2.95h14.57c2.12 0 3.92.16 5.41.5 1.49.33 2.7.82 3.62 1.47.91.65 1.59 1.4 2.02 2.23s.65 1.83.65 3c0 2.11-.64 3.88-1.93 5.3-1.29 1.41-3.26 2.58-5.93 3.49v.39q4.86 1.92 4.86 6.57c0 3.36-1.39 5.94-4.17 7.71-2.77 1.77-6.89 2.66-12.34 2.66h-12.99l.42-1.81c.84-.13 1.46-.34 1.83-.63s.7-.77.96-1.43c.27-.66.61-1.87 1.02-3.62l4.12-18.66c.31-1.44.47-2.53.47-3.24 0-.51-.08-.9-.23-1.19-.16-.28-.46-.51-.9-.67s-1.06-.25-1.88-.27Z"/><text x="1508.17" y="2213.43" fill-opacity="0" font-family="Arial,Arial_MSFontService,sans-serif" font-size="33.325">πµ</text><path fill-rule="evenodd" d="M1896.41 2126.17h18.07v77.28h-18.07v-3.12h11.35v-71.04h-11.35Zm-337.68 0h18.08v3.12h-11.35v71.04h11.35v3.12h-18.08Zm32.49 7h12.93l10.69 31.57c1.54 4.54 2.73 8.37 3.57 11.51h.45c.21-1.65.71-4.39 1.48-8.23s1.47-7.19 2.12-10.05l2.84-12.77c.59-2.67.89-4.85.89-6.52 0-1.27-.32-2.16-.95-2.66-.64-.5-1.64-.79-3.02-.87l.45-1.98h14.18l-.45 1.98c-1.02.22-1.76.46-2.2.73-.45.27-.85.68-1.2 1.22s-.72 1.38-1.09 2.53c-.38 1.15-.85 3.02-1.42 5.61l-9.53 43.25h-5.51l-11.83-34.78c-1.43-4.16-2.69-8.3-3.77-12.44h-.53c-.16 1.38-.61 4.01-1.34 7.89-.72 3.87-1.49 7.66-2.31 11.36l-3.56 16.17c-.57 2.57-.85 4.68-.85 6.33 0 1.21.3 2.07.91 2.57s1.63.8 3.06.91l-.45 1.99h-14.18l.44-1.99c1.03-.16 1.8-.42 2.31-.79.52-.36.95-.87 1.3-1.52s.68-1.44.97-2.37c.3-.93.75-2.74 1.34-5.41l6.89-31.21c.27-1.16.49-2.27.65-3.32s.24-2.12.24-3.2c0-1.27-.31-2.16-.95-2.66-.63-.5-1.64-.79-3.02-.87Z"/><text x="1580.6" y="2181.57" fill-opacity="0" font-family="Arial,Arial_MSFontService,sans-serif" font-size="55.32">π‘</text><path fill-rule="evenodd" d="M1649.88 2166.97h1.81c-.04 1.09-.07 2.07-.09 2.93-.02.87-.03 1.7-.04 2.52-.01.81-.02 1.62-.02 2.41v22.64q0 .915.06 1.59c.04.45.11.83.2 1.13.09.31.21.57.36.79.14.22.32.41.52.57.23.24.55.42.95.55s.9.24 1.52.33q.915.135 2.22.21c.86.05 1.9.08 3.11.1v2.59h-23.62v-2.59c1.17-.04 2.17-.08 2.98-.13s1.51-.12 2.08-.21a10 10 0 0 0 1.39-.3c.35-.11.65-.24.91-.4.28-.18.51-.38.71-.58.2-.21.36-.48.48-.79.12-.32.21-.71.28-1.16.07-.46.11-1.03.11-1.7v-21.36c0-.77-.15-1.32-.45-1.64-.3-.31-.73-.47-1.28-.47-.62 0-1.53.31-2.74.95s-2.78 1.58-4.71 2.83c-.26-.46-.49-.91-.71-1.37s-.45-.92-.69-1.4c2.46-1.35 4.9-2.7 7.31-4.04 2.42-1.34 4.86-2.67 7.35-4"/><text x="1635.22" y="2200.54" fill-opacity="0" font-family="Arial,Arial_MSFontService,sans-serif" font-size="38.363">1</text><path fill-rule="evenodd" d="M1714.23 2133.17h6.32v63.42h-6.32Zm-14.18 0h6.32v63.42h-6.32Z"/><text x="1700.05" y="2188.66" fill-opacity="0" font-family="Arial,Arial_MSFontService,sans-serif" font-size="63.425">β¥</text><path fill-rule="evenodd" d="M1831.1 2136.69c-1.19 0-2.48.04-3.85.12l-10.5 47.95q1.17.12 4.5.12c4.37 0 8.09-.76 11.14-2.29 3.06-1.53 5.69-3.92 7.91-7.17 2.21-3.26 3.85-6.69 4.9-10.3 1.05-3.6 1.58-7.41 1.58-11.41 0-5.64-1.32-9.89-3.95-12.74-2.64-2.85-6.55-4.28-11.73-4.28m-15.49-3.52h15.36q6.12 0 9.93.93c2.54.62 4.91 1.74 7.12 3.36 2.2 1.62 3.85 3.78 4.96 6.47s1.66 5.87 1.66 9.54c0 3.65-.42 7.13-1.25 10.46-.84 3.32-2.04 6.38-3.61 9.18-1.57 2.79-3.45 5.23-5.63 7.29-2.19 2.07-4.31 3.66-6.37 4.76-2.05 1.11-4.35 1.94-6.89 2.5-2.54.55-5.49.83-8.87.83H1805l.44-1.99c1.03-.16 1.8-.42 2.31-.79.52-.36.95-.87 1.3-1.52s.67-1.44.97-2.37.74-2.74 1.34-5.41l6.89-31.21c.59-2.7.89-4.87.89-6.52 0-1.27-.32-2.16-.95-2.66-.64-.5-1.64-.79-3.02-.87Zm-32 0h16.22l-.45 1.98c-1.03.22-1.76.46-2.21.73-.44.27-.84.68-1.19 1.22-.36.54-.72 1.38-1.1 2.53s-.85 3.02-1.42 5.61l-6.93 31.45c-.35 1.6-.58 2.86-.69 3.79-.1.94-.16 1.78-.16 2.54 0 1.21.31 2.07.91 2.57.61.5 1.63.8 3.06.91l-.44 1.99H1773l.44-1.99c1.03-.16 1.8-.42 2.31-.79.52-.36.95-.87 1.3-1.52s.67-1.44.97-2.37.74-2.74 1.34-5.41l6.89-31.21c.59-2.7.89-4.87.89-6.52 0-1.27-.32-2.16-.95-2.66-.64-.5-1.64-.79-3.02-.87Z"/><text x="1773" y="2181.57" fill-opacity="0" font-family="Arial,Arial_MSFontService,sans-serif" font-size="55.32">πΌπ·</text><path fill-rule="evenodd" d="M1876.7 2172.72c-1.73 2.82-3.44 5.64-5.14 8.47-1.69 2.83-3.41 5.66-5.13 8.5h11.46c-.1-1.27-.19-2.51-.29-3.73-.1-1.23-.18-2.51-.24-3.86s-.12-2.79-.17-4.32-.07-3.22-.07-5.06Zm-.12-6.53h4.92l2.71 31.49c.08 1.01.2 1.86.37 2.56.17.69.4 1.27.7 1.73.3.45.67.8 1.12 1.04.44.24 1.01.4 1.68.5l-.45 1.82h-12.98l.44-1.82c.56-.1 1.05-.22 1.48-.37s.78-.4 1.06-.74c.27-.35.49-.82.64-1.42.14-.59.22-1.37.22-2.32 0-.36-.01-.77-.03-1.24-.02-.46-.05-.95-.07-1.47q-.045-.78-.12-1.59c-.05-.55-.1-1.08-.14-1.6h-13.34c-.46.68-.91 1.37-1.36 2.09-.44.71-.85 1.41-1.22 2.1-.37.68-.66 1.36-.88 2.04-.22.67-.32 1.34-.32 1.99 0 1.45 1.06 2.3 3.18 2.53l-.38 1.82h-13.02l.33-1.82c.53-.1 1.01-.25 1.44-.46s.88-.53 1.34-.98c.47-.45.97-1.05 1.52-1.82.55-.76 1.21-1.77 1.98-3.02Z"/><text x="1850.79" y="2200.44" fill-opacity="0" font-family="Arial,Arial_MSFontService,sans-serif" font-size="39.138">π΄</text><text font-family="Microsoft YaHei,Microsoft YaHei_MSFontService,sans-serif" font-size="83" font-weight="400" transform="translate(1287.73 2477)">β‘΅</text><path fill-rule="evenodd" d="M1406.07 2421.66h37.29l-2.8 12.44h-3.89c-.11-2.35-.31-4.12-.61-5.31-.29-1.19-.65-2-1.07-2.45a3.05 3.05 0 0 0-1.5-.89c-.58-.15-1.41-.22-2.49-.22h-13.21l-4.62 21.23h7.74c1.92 0 3.38-.45 4.39-1.36q1.53-1.35 3.06-4.47h3.69l-3.65 15.56h-3.44c0-2.16-.14-3.63-.41-4.4s-.66-1.25-1.19-1.46c-.53-.2-1.48-.3-2.86-.3h-8.1l-5.19 23.38h11.99c1.6 0 2.86-.16 3.79-.48.94-.33 1.81-.85 2.64-1.58.82-.73 1.65-1.75 2.47-3.06s1.8-3.09 2.94-5.33h3.93l-3.57 14.02h-35.94l.44-1.99c1.03-.16 1.8-.42 2.31-.79.51-.36.95-.87 1.3-1.52s.67-1.44.97-2.37.74-2.73 1.34-5.41l6.89-31.2c.59-2.71.89-4.88.89-6.53 0-1.27-.32-2.15-.95-2.65-.64-.5-1.64-.79-3.02-.87Z"/><text x="1395.46" y="2470.06" fill-opacity="0" font-family="Arial,Arial_MSFontService,sans-serif" font-size="55.32">πΈ</text><path fill-rule="evenodd" d="M1462.74 2458.35c-.71 0-1.4.01-2.05.03-.66.02-1.3.05-1.94.09l-3.78 16.11h3.57c2.33.04 4.25-.19 5.78-.68 1.53-.5 2.76-1.2 3.68-2.12a7.6 7.6 0 0 0 1.95-3.21c.38-1.24.57-2.58.57-4.03 0-2.16-.63-3.73-1.88-4.72-1.25-.98-3.22-1.47-5.9-1.47m25.87-3.16h12.57l-.33 1.79c-.46.12-.84.22-1.16.3s-.6.2-.85.35c-.25.16-.46.38-.64.64-.18.27-.35.64-.52 1.11-.17.46-.35 1.05-.54 1.75-.19.71-.4 1.58-.64 2.61l-1.93 8.76h.83c.46 0 .87-.03 1.25-.09s.75-.17 1.12-.32c.36-.14.74-.35 1.13-.61.39-.25.83-.58 1.32-.98q3.105-2.415 5.19-4.32c1.39-1.27 2.51-2.39 3.38-3.36.86-.98 1.48-1.81 1.84-2.49.37-.69.56-1.26.56-1.71 0-.48-.19-.85-.57-1.12s-.99-.41-1.85-.43l.33-1.88h13.55l-.41 1.88c-.46.04-.89.13-1.3.27s-.88.39-1.41.76c-.54.36-1.18.87-1.93 1.51-.74.65-1.68 1.49-2.81 2.52l-11.62 10.49 6.73 13.99c.52 1.1.97 1.96 1.34 2.6.38.63.77 1.14 1.17 1.52.39.37.85.65 1.35.81.51.17 1.14.33 1.89.47l-.47 1.81h-12.27l.41-1.81c.56-.04.98-.17 1.25-.38.28-.2.42-.47.42-.79a10 10 0 0 0-.09-.68c-.04-.24-.11-.5-.21-.79s-.23-.63-.39-1.01c-.15-.39-.35-.85-.59-1.39l-3.99-8.52c-.34-.75-.64-1.35-.91-1.78-.27-.44-.55-.78-.83-1.02-.29-.23-.62-.39-.99-.46-.36-.07-.83-.1-1.38-.1h-1.64c-.16.81-.35 1.69-.57 2.62-.21.93-.43 1.88-.65 2.84-.22.97-.43 1.91-.63 2.85-.2.93-.37 1.8-.53 2.6-.16.81-.29 1.52-.39 2.15-.1.62-.15 1.11-.15 1.44 0 .84.24 1.43.73 1.78.49.34 1.32.56 2.49.64l-.48 1.81h-12.54l.33-1.81c.61-.1 1.12-.22 1.5-.35.39-.13.74-.4 1.05-.83.3-.43.59-1.07.84-1.92.26-.86.56-2.07.9-3.64l4.88-21.71c.2-.87.35-1.65.45-2.32.1-.68.15-1.25.15-1.73q0-1.305-.69-1.86c-.45-.37-1.29-.56-2.5-.58Zm-39 0h13.46c2.15 0 4.05.17 5.7.49 1.66.33 3.06.86 4.2 1.58 1.15.73 2.02 1.67 2.61 2.83.6 1.16.91 2.59.95 4.28q0 3.3-1.23 5.82c-.83 1.68-1.98 3.07-3.47 4.18-1.49 1.12-3.28 1.95-5.36 2.52-2.09.57-4.39.84-6.91.82-1.1 0-2.08-.01-2.95-.03-.88-.02-1.61-.05-2.21-.09-.21 1.03-.46 2.15-.74 3.37a198 198 0 0 0-.78 3.5c-.23 1.12-.43 2.14-.59 3.06q-.24 1.395-.24 2.07c0 .4.06.74.16 1.03.11.29.29.53.54.73s.6.35 1.06.45c.45.1 1.04.17 1.76.21l-.42 1.81h-12.9l.33-1.81c.61-.1 1.12-.23 1.52-.38.39-.15.75-.43 1.06-.86.3-.43.58-1.07.83-1.92s.54-2.05.88-3.58l4.88-21.71c.2-.87.35-1.65.45-2.32.1-.68.15-1.23.15-1.67 0-.89-.23-1.53-.67-1.91-.45-.37-1.29-.57-2.52-.59Z"/><text x="1442.25" y="2488.99" fill-opacity="0" font-family="Arial,Arial_MSFontService,sans-serif" font-size="38.631">π‘ƒπΎ</text><path fill-rule="evenodd" d="m1546.93 2478.08-8.96 14.26h10.08l-.44-5.81c-.04-.82-.1-2.02-.17-3.63-.06-1.6-.09-3.21-.09-4.82Zm-.34-5.88h4.71l2.74 27.19c.16 1.58.5 2.75 1.01 3.51.51.75 1.39 1.21 2.62 1.38l-.39 1.8h-11.94l.39-1.8c.7-.05 1.27-.2 1.69-.44.42-.25.74-.59.95-1.03s.32-1.23.32-2.37c0-.5-.03-1.24-.1-2.22l-.29-2.9h-12.01l-1.57 2.46c-.34.57-.71 1.28-1.12 2.11-.41.84-.61 1.63-.61 2.36 0 1.27 1 1.95 3 2.03l-.39 1.8h-12.18l.42-1.8c.66-.08 1.28-.32 1.85-.72s1.13-.94 1.67-1.6c.55-.67 1.25-1.67 2.11-3.01Z"/><text x="1523.42" y="2501.85" fill-opacity="0" font-family="Arial,Arial_MSFontService,sans-serif" font-size="33.887">π΄</text><path fill-rule="evenodd" d="M1879.97 2414.66h18.07v77.28h-18.07v-3.12h11.34v-71.04h-11.34Zm-305.37 0h18.08v3.12h-11.35v71.04h11.35v3.12h-18.08Zm32.49 7h12.92l10.7 31.57c1.54 4.54 2.73 8.38 3.57 11.51h.45c.21-1.65.71-4.39 1.48-8.23.77-3.83 1.47-7.18 2.12-10.05l2.84-12.76c.59-2.68.89-4.85.89-6.53 0-1.27-.32-2.15-.95-2.65-.64-.5-1.64-.79-3.02-.87l.45-1.99h14.18l-.45 1.99c-1.02.21-1.76.45-2.2.72-.45.28-.85.68-1.2 1.22s-.72 1.39-1.09 2.53c-.38 1.15-.85 3.02-1.42 5.62l-9.53 43.24h-5.51l-11.83-34.77c-1.43-4.16-2.69-8.31-3.77-12.45h-.53c-.16 1.38-.61 4.01-1.34 7.89q-1.08 5.805-2.31 11.37l-3.56 16.17c-.57 2.56-.85 4.67-.85 6.32 0 1.21.3 2.07.91 2.57s1.63.81 3.06.91l-.45 1.99h-14.18l.44-1.99c1.03-.16 1.8-.42 2.31-.79.52-.36.95-.87 1.3-1.52s.68-1.44.97-2.37c.3-.93.75-2.73 1.34-5.41l6.89-31.2c.27-1.17.49-2.27.65-3.33.16-1.05.24-2.12.24-3.2 0-1.27-.31-2.15-.95-2.65-.63-.5-1.64-.79-3.02-.87Z"/><text x="1596.47" y="2470.06" fill-opacity="0" font-family="Arial,Arial_MSFontService,sans-serif" font-size="55.32">π‘</text><path fill-rule="evenodd" d="M1665.75 2455.46h1.81c-.04 1.09-.07 2.07-.09 2.93-.02.87-.03 1.71-.04 2.52s-.02 1.62-.02 2.41v22.64q0 .93.06 1.59c.04.45.11.83.2 1.14.09.3.21.57.36.78.14.22.32.41.52.57.23.24.55.42.95.55s.9.24 1.52.33q.915.135 2.22.21c.86.05 1.9.08 3.11.1v2.59h-23.62v-2.59c1.17-.04 2.16-.08 2.98-.13.81-.05 1.51-.12 2.08-.21a10 10 0 0 0 1.39-.3c.35-.11.65-.24.91-.4.28-.18.51-.37.71-.58s.36-.47.48-.79.21-.71.28-1.16c.07-.46.11-1.03.11-1.7v-21.36c0-.77-.15-1.32-.45-1.63-.3-.32-.73-.48-1.28-.48-.62 0-1.53.32-2.74.95-1.21.64-2.78 1.58-4.71 2.83-.26-.46-.49-.91-.71-1.37s-.45-.92-.69-1.4c2.46-1.35 4.9-2.69 7.31-4.03 2.42-1.34 4.86-2.68 7.35-4.01"/><text x="1651.09" y="2489.03" fill-opacity="0" font-family="Arial,Arial_MSFontService,sans-serif" font-size="38.363">1</text><path fill-rule="evenodd" d="M1730.1 2421.66h6.32v63.42h-6.32Zm-14.18 0h6.32v63.42h-6.32Z"/><text x="1715.92" y="2477.16" fill-opacity="0" font-family="Arial,Arial_MSFontService,sans-serif" font-size="63.425">β¥</text><path fill-rule="evenodd" d="M1799.4 2421.66h12.93l10.7 31.57c1.54 4.54 2.73 8.38 3.57 11.51h.44c.22-1.65.71-4.39 1.48-8.23q1.155-5.745 2.13-10.05l2.84-12.76c.59-2.68.89-4.85.89-6.53 0-1.27-.32-2.15-.95-2.65-.64-.5-1.65-.79-3.02-.87l.44-1.99h14.19l-.45 1.99c-1.03.21-1.76.45-2.21.72-.44.28-.84.68-1.19 1.22s-.72 1.39-1.1 2.53c-.38 1.15-.85 3.02-1.42 5.62l-9.52 43.24h-5.51l-11.84-34.77a171 171 0 0 1-3.76-12.45h-.53c-.16 1.38-.61 4.01-1.34 7.89q-1.095 5.805-2.31 11.37l-3.57 16.17c-.56 2.56-.85 4.67-.85 6.32 0 1.21.31 2.07.92 2.57.6.5 1.62.81 3.06.91l-.45 1.99h-14.18l.44-1.99c1.03-.16 1.8-.42 2.31-.79.51-.36.95-.87 1.3-1.52s.67-1.44.97-2.37.74-2.73 1.34-5.41l6.89-31.2c.27-1.17.48-2.27.65-3.33.16-1.05.24-2.12.24-3.2 0-1.27-.32-2.15-.95-2.65-.64-.5-1.64-.79-3.02-.87Z"/><text x="1788.79" y="2470.06" fill-opacity="0" font-family="Arial,Arial_MSFontService,sans-serif" font-size="55.32">π‘</text><path fill-rule="evenodd" d="M1857.64 2455.25c2.07 0 3.83.23 5.29.7s2.64 1.1 3.56 1.89c.91.8 1.57 1.75 1.98 2.86s.61 2.32.61 3.61c0 .77-.05 1.49-.16 2.16-.11.66-.3 1.32-.57 1.96-.27.65-.62 1.3-1.06 1.95-.43.66-.98 1.35-1.64 2.09-.49.63-1.14 1.37-1.93 2.2-.8.84-1.66 1.73-2.61 2.68-.94.95-1.93 1.95-2.96 2.98s-2.04 2.06-3.01 3.07-1.87 1.99-2.68 2.95c-.81.95-1.48 1.82-2 2.62h11.02c.94 0 1.68-.04 2.24-.11.55-.07 1.02-.22 1.38-.46.37-.24.68-.6.94-1.09q.39-.72.9-2.01h2.77c-.1 1.41-.2 2.83-.29 4.26s-.18 2.85-.28 4.26h-25.23v-1.55c.48-1.07 1.03-2.13 1.67-3.17a42 42 0 0 1 2.14-3.17c.8-1.07 1.7-2.18 2.71-3.32 1.02-1.14 2.14-2.33 3.37-3.56 1.87-1.87 3.39-3.46 4.56-4.78s2.09-2.5 2.77-3.53c.67-1.03 1.13-1.99 1.38-2.86s.37-1.81.37-2.8c0-1.01-.14-1.95-.43-2.8s-.7-1.58-1.23-2.17c-.54-.6-1.22-1.07-2.04-1.4q-1.245-.51-2.85-.51c-1.85 0-3.39.5-4.64 1.5-1.26 1.01-2.23 2.46-2.92 4.37h-3.91v-5.81c2.55-1.05 4.88-1.82 7.02-2.29q3.195-.72 5.76-.72"/><text x="1843.91" y="2489" fill-opacity="0" font-family="Arial,Arial_MSFontService,sans-serif" font-size="38.572">2</text><text font-family="Microsoft YaHei,Microsoft YaHei_MSFontService,sans-serif" font-size="83" font-weight="400" transform="translate(1169.87 2747)">β‘Ά</text><path fill-rule="evenodd" d="M1288.21 2692.11h37.29l-2.8 12.44h-3.89c-.11-2.35-.31-4.12-.61-5.31-.29-1.19-.65-2-1.07-2.45a3.05 3.05 0 0 0-1.5-.89c-.58-.15-1.41-.23-2.49-.23h-13.21l-4.62 21.24h7.74c1.91 0 3.38-.45 4.39-1.36q1.53-1.35 3.06-4.47h3.69l-3.65 15.56h-3.44c0-2.16-.14-3.63-.41-4.4s-.66-1.26-1.19-1.46-1.48-.3-2.86-.3h-8.1l-5.19 23.38h11.99c1.6 0 2.86-.16 3.79-.48.94-.33 1.81-.86 2.64-1.59.82-.72 1.65-1.74 2.47-3.05.82-1.32 1.8-3.09 2.94-5.33h3.93l-3.57 14.02h-35.94l.44-1.99c1.03-.16 1.8-.42 2.31-.79.51-.36.95-.87 1.3-1.52s.67-1.44.97-2.37.74-2.73 1.34-5.41l6.89-31.2c.59-2.71.89-4.88.89-6.53 0-1.27-.32-2.15-.95-2.65-.64-.5-1.64-.79-3.02-.88Z"/><text x="1277.6" y="2740.51" fill-opacity="0" font-family="Arial,Arial_MSFontService,sans-serif" font-size="55.32">πΈ</text><path fill-rule="evenodd" d="M1344.88 2728.8c-.71 0-1.4.01-2.05.03-.66.02-1.3.05-1.94.09l-3.78 16.11h3.57c2.33.04 4.25-.19 5.78-.68 1.53-.5 2.76-1.21 3.68-2.12s1.57-1.98 1.95-3.22q.57-1.845.57-4.02c0-2.16-.63-3.73-1.88-4.72-1.25-.98-3.22-1.47-5.9-1.47m25.87-3.16h12.57l-.33 1.79c-.46.12-.84.22-1.16.3-.32.07-.6.19-.85.35s-.46.38-.64.64c-.18.27-.35.64-.52 1.11-.17.46-.35 1.05-.54 1.75-.19.71-.4 1.58-.64 2.61l-1.94 8.76h.84c.46 0 .87-.03 1.25-.09s.75-.17 1.12-.32c.36-.15.74-.35 1.13-.61.39-.25.83-.58 1.32-.98q3.105-2.415 5.19-4.32c1.39-1.27 2.51-2.39 3.38-3.36.86-.98 1.48-1.81 1.84-2.49.37-.69.55-1.26.55-1.71 0-.48-.18-.85-.56-1.12s-.99-.41-1.85-.43l.33-1.88h13.55l-.41 1.88c-.46.04-.89.13-1.3.27-.41.13-.88.39-1.42.75-.53.37-1.17.88-1.92 1.52-.74.65-1.68 1.49-2.81 2.52l-11.62 10.48 6.73 14c.52 1.1.97 1.96 1.34 2.6.38.63.77 1.14 1.17 1.51.39.38.84.65 1.35.82s1.14.33 1.89.47l-.47 1.81h-12.28l.42-1.81c.56-.04.97-.17 1.25-.38s.42-.47.42-.79c-.02-.22-.05-.44-.09-.68s-.11-.5-.21-.79-.23-.63-.39-1.01c-.15-.39-.35-.85-.59-1.39l-3.99-8.52c-.34-.75-.64-1.35-.91-1.78-.27-.44-.55-.78-.83-1.02a2.15 2.15 0 0 0-.99-.46c-.37-.07-.83-.1-1.38-.1h-1.64c-.16.81-.35 1.68-.57 2.62-.22.93-.43 1.88-.65 2.84-.22.97-.43 1.91-.63 2.85-.2.93-.37 1.8-.53 2.6-.16.81-.29 1.52-.39 2.15q-.15.93-.15 1.44c0 .84.24 1.43.73 1.77.49.35 1.32.57 2.49.65l-.48 1.81h-12.54l.33-1.81c.61-.1 1.12-.22 1.5-.35.39-.13.74-.4 1.05-.83.3-.43.59-1.07.84-1.92.26-.86.56-2.07.9-3.64l4.88-21.71c.2-.87.35-1.65.45-2.32.1-.68.15-1.25.15-1.73q0-1.305-.69-1.86c-.45-.37-1.29-.56-2.5-.58Zm-39 0h13.46c2.15 0 4.05.16 5.7.49 1.66.33 3.06.86 4.2 1.58a7.23 7.23 0 0 1 2.61 2.83c.6 1.16.91 2.59.95 4.27 0 2.21-.41 4.15-1.23 5.83-.83 1.68-1.98 3.07-3.47 4.18s-3.28 1.95-5.36 2.52c-2.09.57-4.39.84-6.91.82-1.1 0-2.08-.01-2.95-.03-.88-.02-1.61-.05-2.21-.09-.22 1.03-.46 2.15-.74 3.36-.28 1.22-.54 2.38-.78 3.5-.23 1.13-.43 2.15-.59 3.07q-.24 1.395-.24 2.07c0 .4.05.74.16 1.03s.29.53.54.73.6.35 1.06.45c.45.1 1.04.17 1.75.21l-.41 1.81h-12.9l.33-1.81c.61-.1 1.12-.23 1.52-.38.39-.15.75-.43 1.05-.86q.465-.645.84-1.92c.25-.86.54-2.05.88-3.58l4.88-21.71c.2-.87.35-1.65.45-2.32.1-.68.15-1.23.15-1.67 0-.89-.23-1.53-.67-1.91-.45-.37-1.29-.57-2.52-.59Z"/><text x="1324.39" y="2759.44" fill-opacity="0" font-family="Arial,Arial_MSFontService,sans-serif" font-size="38.631">π‘ƒπΎ</text><path fill-rule="evenodd" d="m1418.3 2760.76-2.75 12.65c.6.08 1.87.12 3.83.12 2.37 0 4.19-.16 5.44-.48 1.26-.31 2.31-.81 3.15-1.47a6.04 6.04 0 0 0 1.87-2.43c.4-.95.6-2.14.6-3.56 0-1.09-.24-1.98-.72-2.69s-1.2-1.24-2.16-1.6-2.38-.54-4.25-.54Zm8.13-14.6c-1.79 0-3.41.07-4.85.22l-2.59 11.38h4.44c2.8 0 4.86-.29 6.17-.87s2.3-1.39 2.99-2.45c.68-1.06 1.02-2.3 1.02-3.71 0-1.06-.26-1.92-.78-2.59s-1.28-1.16-2.27-1.49-2.37-.49-4.13-.49m-13.45-2.95h14.58c2.11 0 3.92.16 5.4.5 1.49.33 2.7.82 3.62 1.47.92.66 1.59 1.4 2.02 2.23.44.83.65 1.83.65 3 0 2.12-.64 3.88-1.93 5.3-1.28 1.41-3.26 2.58-5.93 3.49v.39c3.24 1.29 4.86 3.47 4.86 6.57 0 3.37-1.39 5.94-4.16 7.71-2.78 1.78-6.89 2.66-12.35 2.66h-12.98l.41-1.8c.85-.13 1.46-.35 1.83-.64.38-.29.7-.77.97-1.43.26-.66.6-1.86 1.01-3.62l4.13-18.65c.3-1.45.46-2.54.46-3.25 0-.51-.08-.9-.23-1.19-.16-.28-.45-.5-.89-.67-.44-.16-1.07-.25-1.88-.27Z"/><text x="1406.76" y="2772.37" fill-opacity="0" font-family="Arial,Arial_MSFontService,sans-serif" font-size="33.325">πµ</text><path fill-rule="evenodd" d="M1996.65 2655.64h19.29v136.17h-19.29v-3.52h11.79v-129.12h-11.79Zm-525.62 0h19.29v3.53h-11.8v129.12h11.8v3.52h-19.29Zm33.86 36.47h37.29l-2.8 12.44h-3.89c-.11-2.35-.31-4.12-.61-5.31s-.65-2-1.07-2.45a3.05 3.05 0 0 0-1.5-.89c-.58-.15-1.41-.23-2.5-.23h-13.21l-4.62 21.24h7.74c1.92 0 3.39-.45 4.4-1.36q1.515-1.35 3.06-4.47h3.69l-3.65 15.56h-3.44c0-2.16-.14-3.63-.41-4.4s-.67-1.26-1.19-1.46c-.53-.2-1.48-.3-2.86-.3h-8.11l-5.18 23.38h11.99c1.6 0 2.86-.16 3.79-.48q1.395-.495 2.64-1.59c.82-.72 1.64-1.74 2.47-3.05.82-1.32 1.8-3.09 2.94-5.33h3.93l-3.57 14.02h-35.95l.45-1.99c1.02-.16 1.8-.42 2.31-.79.51-.36.94-.87 1.3-1.52.35-.65.67-1.44.97-2.37s.74-2.73 1.34-5.41l6.88-31.2c.6-2.71.9-4.88.9-6.53 0-1.27-.32-2.15-.96-2.65-.63-.5-1.64-.79-3.02-.88Z"/><text x="1494.27" y="2740.51" fill-opacity="0" font-family="Arial,Arial_MSFontService,sans-serif" font-size="55.32">πΈ</text><path fill-rule="evenodd" d="M1579.09 2725.64h12.57l-.33 1.79c-.46.12-.84.22-1.16.3-.32.07-.6.19-.85.35s-.46.38-.64.64c-.18.27-.35.64-.52 1.11-.17.46-.35 1.05-.54 1.75-.19.71-.4 1.58-.64 2.61l-1.94 8.76h.84c.45 0 .87-.03 1.25-.09s.75-.17 1.12-.32c.36-.15.74-.35 1.13-.61.39-.25.83-.58 1.32-.98q3.105-2.415 5.19-4.32c1.39-1.27 2.51-2.39 3.38-3.36.86-.98 1.48-1.81 1.84-2.49.37-.69.55-1.26.55-1.71 0-.48-.18-.85-.56-1.12s-.99-.41-1.85-.43l.33-1.88h13.55l-.42 1.88q-.675.06-1.29.27c-.41.13-.88.39-1.42.75-.53.37-1.17.88-1.92 1.52-.74.65-1.68 1.49-2.81 2.52l-11.62 10.48 6.73 14c.52 1.1.97 1.96 1.34 2.6.38.63.77 1.14 1.17 1.51.39.38.84.65 1.35.82s1.14.33 1.89.47l-.47 1.81h-12.28l.42-1.81c.56-.04.97-.17 1.25-.38s.42-.47.42-.79c-.02-.22-.05-.44-.09-.68s-.11-.5-.21-.79-.23-.63-.39-1.01c-.15-.39-.35-.85-.59-1.39l-3.99-8.52c-.34-.75-.64-1.35-.91-1.78q-.405-.66-.84-1.02a2.07 2.07 0 0 0-.98-.46c-.37-.07-.83-.1-1.38-.1h-1.64c-.16.81-.35 1.68-.57 2.62-.22.93-.43 1.88-.65 2.84-.22.97-.43 1.91-.63 2.85-.2.93-.38 1.8-.53 2.6-.16.81-.29 1.52-.39 2.15q-.15.93-.15 1.44c0 .84.24 1.43.73 1.77.49.35 1.31.57 2.49.65l-.48 1.81h-12.54l.33-1.81c.61-.1 1.11-.22 1.5-.35s.74-.4 1.04-.83c.31-.43.6-1.07.85-1.92.26-.86.56-2.07.9-3.64l4.88-21.71c.2-.87.35-1.65.45-2.32.1-.68.15-1.25.15-1.73q0-1.305-.69-1.86c-.45-.37-1.29-.56-2.5-.58Zm-20.25-.57c1.88 0 3.69.15 5.43.44 1.74.28 3.56.75 5.47 1.38l-1.7 7.57h-3.25c-.06-1.12-.23-2.07-.52-2.88-.29-.8-.69-1.46-1.21-1.96-.51-.51-1.17-.89-1.96-1.13-.8-.25-1.74-.38-2.83-.38-1.17 0-2.23.16-3.19.48-.95.32-1.76.77-2.44 1.35-.68.59-1.2 1.3-1.56 2.12-.37.82-.55 1.72-.55 2.69 0 .74.08 1.41.26 2.03s.49 1.21.93 1.79c.43.57 1.03 1.16 1.8 1.75.76.6 1.73 1.26 2.9 1.97 1.43.89 2.66 1.74 3.68 2.53 1.02.8 1.86 1.62 2.5 2.47.65.86 1.12 1.77 1.42 2.73s.44 2.04.44 3.23q0 2.595-1.02 4.74c-.69 1.43-1.66 2.66-2.92 3.69q-1.89 1.545-4.53 2.4c-1.76.56-3.72.85-5.88.85-1.83 0-3.79-.16-5.9-.46-2.1-.31-4.18-.76-6.22-1.36l1.75-8.04h3.16c.06 2.38.7 4.11 1.91 5.18s3.07 1.61 5.6 1.61q1.935 0 3.48-.51c1.03-.33 1.91-.82 2.62-1.46.72-.63 1.26-1.41 1.64-2.32s.57-1.94.57-3.07q0-1.185-.3-2.16c-.2-.64-.55-1.28-1.04-1.92-.5-.63-1.17-1.28-2.01-1.93-.85-.66-1.9-1.37-3.15-2.15-1.25-.77-2.34-1.54-3.26-2.31-.92-.76-1.69-1.56-2.31-2.38a9.5 9.5 0 0 1-1.38-2.58c-.31-.89-.46-1.84-.46-2.86 0-1.66.32-3.18.98-4.54.65-1.36 1.59-2.53 2.81-3.51 1.23-.99 2.7-1.74 4.44-2.28s3.67-.81 5.8-.81"/><text x="1537.99" y="2759.95" fill-opacity="0" font-family="Arial,Arial_MSFontService,sans-serif" font-size="39.852">π‘†πΎ</text><path fill-rule="evenodd" d="m1637.68 2748.53-8.96 14.26h10.08l-.44-5.81c-.04-.82-.1-2.03-.17-3.63-.06-1.6-.09-3.21-.09-4.82Zm-.34-5.88h4.71l2.74 27.19c.16 1.58.5 2.75 1.01 3.51.51.75 1.39 1.21 2.62 1.38l-.39 1.8h-11.94l.39-1.8c.7-.05 1.27-.2 1.69-.44.42-.25.74-.59.95-1.03s.32-1.23.32-2.37c0-.5-.03-1.24-.1-2.22l-.29-2.9h-12.01l-1.57 2.46c-.34.57-.71 1.28-1.12 2.11-.41.84-.61 1.63-.61 2.36 0 1.27 1 1.94 3 2.03l-.39 1.8h-12.18l.42-1.8c.66-.09 1.28-.33 1.85-.72.57-.4 1.13-.94 1.67-1.6.55-.67 1.25-1.67 2.11-3.01Z"/><text x="1614.17" y="2772.3" fill-opacity="0" font-family="Arial,Arial_MSFontService,sans-serif" font-size="33.887">π΄</text><path fill-rule="evenodd" d="M1967.69 2685.11h18.08v77.28h-18.08v-3.12h11.35v-71.04h-11.35Zm-302.34 0h18.08v3.12h-11.35v71.04h11.35v3.12h-18.08Zm32.57 7h16.21l-.45 1.98c-1.02.22-1.76.46-2.21.73-.44.27-.84.68-1.19 1.22s-.72 1.38-1.1 2.53c-.37 1.15-.85 3.02-1.41 5.62l-2.88 12.92h1.34c1.13 0 2.16-.19 3.1-.56.93-.38 2.02-1.07 3.26-2.07s3.22-2.84 5.94-5.51c2.71-2.68 4.64-4.71 5.79-6.1s1.99-2.6 2.51-3.61c.53-1.01.79-1.94.79-2.77q0-1.02-.81-1.65-.81-.615-2.31-.75l.45-1.98h17.39l-.45 1.98c-1.08.17-2.3.73-3.67 1.69-1.36.96-3.45 2.83-6.26 5.61l-15.72 15.32 8.63 20.75c.89 2.13 1.63 3.67 2.21 4.62.58.94 1.27 1.69 2.08 2.25q1.215.825 3 1.11l-.44 1.99h-15.65l.45-1.99c1.46-.13 2.19-.78 2.19-1.94 0-.73-.15-1.56-.45-2.5-.29-.93-.65-1.89-1.05-2.89l-5.27-12.89q-.93-2.31-1.62-3.24c-.46-.62-.95-1.06-1.46-1.3s-1.31-.36-2.39-.36h-2.27l-3.36 15.31c-.36 1.63-.59 2.9-.69 3.83-.11.94-.17 1.77-.17 2.5 0 1.21.31 2.07.92 2.57.6.5 1.62.8 3.06.91l-.45 1.99h-16.21l.45-1.99c1.02-.16 1.79-.42 2.31-.79.51-.36.94-.87 1.29-1.52s.68-1.44.97-2.37c.3-.93.75-2.73 1.34-5.41l6.89-31.2c.6-2.71.89-4.88.89-6.53 0-1.27-.31-2.15-.95-2.65-.63-.5-1.64-.79-3.02-.88Z"/><text x="1687.3" y="2740.51" fill-opacity="0" font-family="Arial,Arial_MSFontService,sans-serif" font-size="55.32">πΎ</text><path fill-rule="evenodd" d="M1755.99 2725.07c1.88 0 3.7.15 5.43.44 1.74.28 3.56.75 5.47 1.38l-1.7 7.57h-3.25c-.06-1.12-.23-2.07-.52-2.88-.28-.8-.69-1.46-1.2-1.96-.52-.51-1.17-.89-1.97-1.13-.79-.25-1.74-.38-2.83-.38-1.17 0-2.23.16-3.19.48-.95.32-1.76.77-2.44 1.35-.67.59-1.19 1.3-1.56 2.12s-.55 1.72-.55 2.69c0 .74.09 1.41.27 2.03.17.62.48 1.21.92 1.79.44.57 1.04 1.16 1.8 1.75.77.6 1.73 1.26 2.9 1.97 1.43.89 2.66 1.74 3.68 2.53 1.03.8 1.86 1.62 2.51 2.47q.96 1.29 1.41 2.73c.3.96.45 2.04.45 3.23 0 1.73-.35 3.31-1.03 4.74-.69 1.43-1.66 2.66-2.92 3.69q-1.89 1.545-4.53 2.4c-1.75.56-3.72.85-5.88.85-1.83 0-3.79-.16-5.9-.46-2.1-.31-4.18-.76-6.22-1.36l1.76-8.04h3.15c.06 2.38.7 4.11 1.91 5.18s3.08 1.61 5.6 1.61q1.935 0 3.48-.51c1.04-.33 1.91-.82 2.62-1.46.72-.63 1.27-1.41 1.64-2.32.38-.91.57-1.94.57-3.07q0-1.185-.3-2.16c-.2-.64-.55-1.28-1.04-1.92-.5-.63-1.17-1.28-2.01-1.93-.85-.66-1.89-1.37-3.14-2.15-1.26-.77-2.34-1.54-3.27-2.31-.92-.76-1.69-1.56-2.3-2.38a9.3 9.3 0 0 1-1.39-2.58c-.31-.89-.46-1.84-.46-2.86 0-1.66.33-3.18.98-4.54q.99-2.04 2.82-3.51c1.22-.99 2.7-1.74 4.43-2.28 1.74-.54 3.67-.81 5.8-.81"/><text x="1735.14" y="2759.95" fill-opacity="0" font-family="Arial,Arial_MSFontService,sans-serif" font-size="39.852">π‘†</text><path fill-rule="evenodd" d="M1817.83 2692.11h6.32v63.42h-6.32Zm-14.19 0h6.33v63.42h-6.33Z"/><text x="1803.64" y="2747.61" fill-opacity="0" font-family="Arial,Arial_MSFontService,sans-serif" font-size="63.425">β¥</text><path fill-rule="evenodd" d="M1887.13 2692.11h12.93l10.7 31.57c1.54 4.54 2.72 8.37 3.56 11.51h.45c.21-1.65.71-4.39 1.48-8.23.77-3.83 1.48-7.18 2.12-10.05l2.84-12.76c.6-2.68.89-4.85.89-6.53 0-1.27-.31-2.15-.95-2.65-.63-.5-1.64-.79-3.02-.88l.45-1.98h14.18l-.44 1.98c-1.03.22-1.77.46-2.21.73-.45.27-.85.68-1.2 1.22s-.71 1.38-1.09 2.53-.85 3.02-1.42 5.62l-9.52 43.24h-5.52l-11.83-34.77c-1.43-4.17-2.69-8.31-3.77-12.45h-.53c-.16 1.38-.6 4.01-1.33 7.89-.73 3.87-1.5 7.66-2.31 11.36l-3.57 16.17c-.57 2.57-.85 4.68-.85 6.33 0 1.21.3 2.07.91 2.57s1.63.8 3.06.91l-.45 1.99h-14.18l.45-1.99c1.02-.16 1.79-.42 2.31-.79.51-.36.94-.87 1.29-1.52s.68-1.44.98-2.37c.29-.93.74-2.73 1.33-5.41l6.89-31.2c.27-1.17.49-2.27.65-3.33.16-1.05.24-2.12.24-3.2 0-1.27-.31-2.15-.95-2.65-.63-.5-1.64-.79-3.02-.88Z"/><text x="1876.51" y="2740.51" fill-opacity="0" font-family="Arial,Arial_MSFontService,sans-serif" font-size="55.32">π‘</text><path fill-rule="evenodd" d="M1945.37 2725.7c2.06 0 3.82.23 5.28.7s2.65 1.1 3.56 1.89c.92.8 1.58 1.75 1.98 2.86.41 1.11.61 2.31.61 3.6 0 .78-.05 1.5-.16 2.16-.11.67-.3 1.32-.57 1.97-.26.65-.62 1.3-1.05 1.95-.44.66-.99 1.35-1.64 2.09-.5.63-1.14 1.37-1.94 2.2-.79.83-1.66 1.73-2.6 2.68-.95.95-1.93 1.95-2.97 2.98-1.03 1.03-2.03 2.05-3 3.07-.98 1.01-1.87 1.99-2.69 2.95-.81.95-1.47 1.82-1.99 2.62h11.02c.93 0 1.68-.04 2.23-.11.56-.07 1.02-.22 1.39-.46s.68-.6.94-1.09c.25-.48.55-1.15.89-2.01h2.77c-.1 1.41-.19 2.83-.28 4.26s-.19 2.85-.29 4.26h-25.22v-1.55c.47-1.07 1.03-2.13 1.66-3.17.64-1.04 1.35-2.1 2.15-3.17.79-1.07 1.7-2.18 2.71-3.32s2.13-2.33 3.36-3.56c1.87-1.87 3.39-3.46 4.56-4.78s2.1-2.5 2.77-3.53c.68-1.03 1.14-1.99 1.39-2.86s.37-1.81.37-2.8c0-1.01-.14-1.95-.43-2.8s-.7-1.58-1.24-2.17c-.53-.6-1.21-1.07-2.04-1.4-.82-.34-1.77-.51-2.84-.51q-2.775 0-4.65 1.5c-1.25 1.01-2.22 2.46-2.92 4.37h-3.9v-5.81c2.54-1.05 4.88-1.82 7.01-2.29 2.14-.48 4.06-.72 5.77-.72"/><text x="1931.64" y="2759.45" fill-opacity="0" font-family="Arial,Arial_MSFontService,sans-serif" font-size="38.572">2</text><path d="m482.574 2341.756 680.844-164.132-2.149-8.911-680.843 164.131Zm680.684-145.235 39.186-33.02-49.928-11.537ZM482.378 2590l596.832 116.51-1.76 8.99L480.622 2599Zm595.842 97.64 40.6 31.27-49.38 13.71Zm123.966-239.722-626.542 12.802.187 9.165 626.543-12.803Zm-622.335-5.62-45.355 23.847 46.292 21.976ZM1994.57 2159.04l625.06 150.5-2.15 8.91-625.05-150.49Zm624.9 131.6 39.19 33.01-49.92 11.55Zm-13.97 157.277h-570.753v9.167H2605.5Zm-566.169-18.333-45.833 22.916 45.833 22.917Zm38.228 293.426 541.399-128.527-2.117-8.919-541.4 128.527Zm541.174-109.631 39.301-32.884-49.887-11.71Z"/></g></svg>