<svg xmlns="http://www.w3.org/2000/svg" width="3945" height="2247" overflow="hidden"><defs><clipPath id="a"><path d="M154 24h3945v2247H154z"/></clipPath></defs><g clip-path="url(#a)" transform="translate(-154 -24)"><path fill="#f8ccb9" d="M154 24h238v308H154z"/><path fill="#d74514" fill-rule="evenodd" d="M245.612 152.07h18.886l3.161 33.84 19.21-33.84h18.845l-.567 2.675q-2.31.648-3.405 2.269t-2.067 5.998l-7.376 33.435a26 26 0 0 0-.405 2.25q-.121.952-.121 2.492 0 1.703.79 2.493t2.573 1.033l-.567 2.675h-20.385l.567-2.675q2.31-.649 3.404-2.269 1.095-1.622 2.067-5.999l3.729-17.021a258 258 0 0 1 4.377-16.981h-.811a320 320 0 0 1-4.093 7.254l-18.237 31.571h-6.566l-2.675-24.357q-.932-8.673-1.215-14.873h-.649q-1.621 10.01-3.08 16.616l-3.931 17.791a26 26 0 0 0-.405 2.25q-.122.952-.122 2.492 0 1.703.79 2.493t2.574 1.033l-.568 2.675h-14.873l.567-2.675q2.31-.649 3.405-2.269 1.094-1.622 2.066-5.999l7.376-33.435a22 22 0 0 0 .527-4.741q0-1.702-.79-2.493t-2.574-1.033Z"/><text x="234.467" y="200.475" fill-opacity="0" font-family="Arial,Arial_MSFontService,sans-serif" font-size="55.32">𝑴</text><path fill="#fdefe8" fill-rule="evenodd" d="M1088 178c0-60.199 48.8-109 109-109s109 48.801 109 109-48.8 109-109 109-109-48.801-109-109"/><path fill="#d74514" fill-rule="evenodd" d="M1180.14 152.07h39.35l-2.88 13.05h-5.18c-.14-2.567-.38-4.364-.73-5.39q-.525-1.54-1.62-2.229c-.73-.46-1.76-.689-3.08-.689h-10.18l-4.29 19.453h5.63c1.08 0 1.99-.176 2.74-.527.74-.351 1.43-.939 2.06-1.763q.96-1.237 1.89-3.424h4.46l-3.89 16.454h-4.18c0-1.567-.09-2.77-.28-3.607s-.54-1.446-1.06-1.824c-.51-.378-1.39-.567-2.63-.567h-5.75l-4.79 21.641h9.12c1.19 0 2.12-.081 2.78-.243a6 6 0 0 0 1.82-.77c.56-.351 1.2-.912 1.93-1.682q1.095-1.155 2.16-2.918c.72-1.175 1.46-2.587 2.21-4.235h5.52l-3.73 14.59h-38.55l.57-2.675c1.54-.432 2.68-1.189 3.41-2.269s1.42-3.081 2.06-5.999l7.38-33.435c.35-1.594.53-3.174.53-4.741 0-1.135-.27-1.966-.79-2.493q-.795-.79-2.58-1.033Z"/><text x="1168.99" y="200.475" fill-opacity="0" font-family="Arial,Arial_MSFontService,sans-serif" font-size="55.32">𝑬</text><path fill="#d74514" d="M2001 24h238v308h-238z"/><path fill="#fdefe8" fill-rule="evenodd" d="M2941 178c0-60.199 48.8-109 109-109s109 48.801 109 109-48.8 109-109 109-109-48.801-109-109"/><path fill="#d74514" fill-rule="evenodd" d="M3048.45 156.812q-2.025 0-3.12.081l-10.01 45.553q1.86.162 3 .162c3.48 0 6.49-.689 9.02-2.067q3.78-2.067 6.72-6.302t4.62-10.335a45.6 45.6 0 0 0 1.69-12.259c0-2.783-.32-5.12-.94-7.011s-1.48-3.418-2.57-4.58q-1.635-1.743-3.81-2.493a14 14 0 0 0-4.6-.749m-18.76-4.742h16.41c4.46 0 8.02.243 10.7.73 2.43.432 4.65 1.175 6.67 2.229 2.01 1.053 3.6 2.215 4.76 3.485 1.48 1.567 2.65 3.533 3.5 5.897s1.28 5.14 1.28 8.328c0 3.593-.41 7.038-1.22 10.334-.81 3.297-2 6.343-3.58 9.139-1.58 2.797-3.47 5.201-5.68 7.214-2.2 2.013-4.41 3.58-6.62 4.701q-3.33 1.683-7.5 2.473c-2.78.526-6.08.79-9.89.79h-19.98l.57-2.675c1.54-.432 2.67-1.189 3.4-2.269q1.095-1.622 2.07-5.999l7.38-33.435c.35-1.594.52-3.174.52-4.741 0-1.135-.26-1.966-.79-2.493-.52-.527-1.38-.871-2.57-1.033Z"/><text x="3018.54" y="200.475" fill-opacity="0" font-family="Arial,Arial_MSFontService,sans-serif" font-size="55.32">𝑫</text><path fill-rule="evenodd" d="M1179.28 468.871h16.21l-.44 1.986c-1.03.216-1.77.46-2.21.73q-.675.405-1.2 1.216c-.35.54-.71 1.384-1.09 2.533-.38 1.148-.85 3.019-1.42 5.613l-2.88 12.928h1.34c1.13 0 2.17-.189 3.1-.568s2.02-1.067 3.26-2.066q1.86-1.5 5.94-5.512c2.71-2.675 4.65-4.708 5.79-6.1q1.725-2.087 2.52-3.606c.52-1.014.79-1.939.79-2.777q0-1.012-.81-1.641-.81-.628-2.31-.75l.44-1.986h17.39l-.45 1.986q-1.62.243-3.66 1.682-2.055 1.438-6.27 5.613l-15.72 15.32 8.63 20.75c.89 2.134 1.63 3.674 2.21 4.62.58.945 1.28 1.695 2.09 2.249q1.215.83 3 1.114l-.45 1.986h-15.64l.44-1.986q2.19-.202 2.19-1.945c0-.729-.15-1.56-.44-2.492-.3-.932-.65-1.898-1.06-2.898l-5.27-12.888q-.93-2.31-1.62-3.242c-.46-.621-.94-1.054-1.46-1.297-.51-.243-1.31-.365-2.39-.365h-2.27l-3.36 15.32q-.525 2.432-.69 3.83c-.11.932-.16 1.763-.16 2.492 0 1.216.3 2.074.91 2.574q.915.749 3.06.911l-.45 1.986h-16.21l.45-1.986q1.545-.243 2.31-.79c.51-.365.94-.871 1.3-1.52.35-.648.67-1.438.97-2.37s.74-2.736 1.34-5.411l6.89-31.206c.59-2.702.89-4.877.89-6.525q0-1.905-.96-2.654c-.63-.5-1.64-.791-3.01-.872Z"/><text x="1168.66" y="517.276" fill-opacity="0" font-family="Arial,Arial_MSFontService,sans-serif" font-size="55.32">𝐾</text><path fill-rule="evenodd" d="M1989.12 402.227h37.28l-2.8 12.442h-3.89c-.1-2.351-.31-4.12-.6-5.309q-.45-1.783-1.08-2.452a3.1 3.1 0 0 0-1.5-.892q-.87-.223-2.49-.223h-13.21l-4.62 21.237h7.74c1.92 0 3.38-.453 4.4-1.358q1.515-1.358 3.06-4.478h3.68l-3.64 15.562H2008c0-2.161-.13-3.627-.4-4.397q-.405-1.155-1.2-1.459c-.53-.203-1.48-.304-2.86-.304h-8.1l-5.19 23.384h12c1.59 0 2.85-.162 3.79-.486.93-.324 1.81-.851 2.63-1.581.82-.729 1.65-1.749 2.47-3.059q1.245-1.966 2.94-5.33h3.93l-3.56 14.023h-35.95l.44-1.986q1.545-.243 2.31-.79c.52-.365.95-.872 1.3-1.52.35-.649.68-1.439.97-2.371.3-.932.75-2.736 1.34-5.41l6.89-31.206c.59-2.702.89-4.877.89-6.525 0-1.27-.32-2.155-.95-2.655-.64-.5-1.64-.79-3.02-.871Z"/><text x="1978.5" y="450.632" fill-opacity="0" font-family="Arial,Arial_MSFontService,sans-serif" font-size="55.32">𝐸</text><path fill-rule="evenodd" d="M2231.64 395.433q11.835 3.12 18.18 13.475c4.22 6.903 6.34 15.232 6.34 24.985 0 9.781-2.11 18.109-6.32 24.985-4.22 6.876-10.28 11.355-18.2 13.435l-.97-3.121q9.36-3.12 13.92-12.32t4.56-23.384c0-9.132-1.52-16.718-4.54-22.756q-4.545-9.058-14.07-12.179Zm-168.84 0 1.09 3.12q-9.48 3.121-14.04 12.179t-4.56 22.756q0 14.184 4.56 23.384t13.92 12.32l-.97 3.121c-7.92-2.08-13.99-6.559-18.2-13.435-4.22-6.876-6.32-15.204-6.32-24.985 0-9.753 2.11-18.082 6.34-24.985q6.345-10.355 18.18-13.475m15.35 6.794h16.21l-.45 1.986c-1.02.216-1.76.459-2.21.729-.44.27-.84.676-1.19 1.216s-.72 1.385-1.1 2.533c-.37 1.148-.85 3.019-1.41 5.613l-2.88 12.928h1.34c1.13 0 2.16-.189 3.1-.567.93-.378 2.02-1.067 3.26-2.067q1.86-1.5 5.94-5.512 4.065-4.013 5.79-6.099c1.15-1.392 1.99-2.594 2.51-3.607.53-1.013.79-1.939.79-2.776q0-1.014-.81-1.641-.81-.628-2.31-.75l.45-1.986h17.39l-.45 1.986c-1.08.162-2.3.723-3.67 1.682-1.36.959-3.45 2.83-6.26 5.613l-15.72 15.319 8.63 20.75c.89 2.134 1.63 3.674 2.21 4.62s1.27 1.696 2.08 2.249q1.215.831 3 1.115l-.44 1.986h-15.65l.45-1.986q2.19-.203 2.19-1.945 0-1.095-.45-2.493t-1.05-2.898l-5.27-12.887q-.93-2.31-1.62-3.242c-.46-.622-.95-1.054-1.46-1.297s-1.31-.365-2.39-.365h-2.27l-3.36 15.319q-.54 2.432-.69 3.83c-.11.932-.17 1.763-.17 2.493 0 1.215.31 2.073.92 2.573q.9.75 3.06.912l-.45 1.986h-16.21l.44-1.986q1.545-.243 2.31-.79c.52-.365.95-.872 1.3-1.52.35-.649.68-1.439.97-2.371.3-.932.75-2.736 1.34-5.41l6.89-31.206c.6-2.702.89-4.877.89-6.525 0-1.27-.31-2.155-.95-2.655-.63-.5-1.64-.79-3.02-.871Z"/><text x="2067.53" y="450.632" fill-opacity="0" font-family="Arial,Arial_MSFontService,sans-serif" font-size="55.32">𝐾</text><path fill-rule="evenodd" d="M2131.01 448.144h7.09q.57 2.838.57 5.593c0 1.891-.32 3.621-.97 5.188s-1.68 3.127-3.1 4.681c-1.42 1.553-3.37 3.262-5.86 5.126l-2.19-2.472q2.07-1.945 3-3.505c.62-1.041 1.07-2.223 1.34-3.547s.41-2.985.41-4.984c0-2.054-.1-4.08-.29-6.08"/><text x="2126.55" y="466.159" fill-opacity="0" font-family="Arial,Arial_MSFontService,sans-serif" font-size="20.588">,</text><path fill-rule="evenodd" d="M2169.37 402.227h14.46l4.62 39.311 23.63-39.311h12.77l-.45 1.986c-1.02.216-1.76.459-2.21.729-.44.27-.85.676-1.21 1.216-.37.54-.73 1.385-1.1 2.533-.36 1.148-.83 3.019-1.39 5.613l-6.93 31.449q-.54 2.39-.69 3.79a22 22 0 0 0-.17 2.533c0 1.215.31 2.073.92 2.573q.9.75 3.06.912l-.45 1.986h-16.21l.44-1.986q1.545-.243 2.31-.79c.52-.365.95-.872 1.3-1.52.35-.649.68-1.439.97-2.371.3-.932.75-2.736 1.34-5.41l5.39-24.438c.76-3.378 1.62-6.741 2.6-10.092h-.57c-.84 1.594-2.73 4.837-5.68 9.727l-18.44 30.436h-4.41l-3.37-26.059q-.72-5.512-1.62-14.833h-.81c-.92 6.052-1.94 11.658-3.08 16.819l-4.13 18.723c-.57 2.567-.85 4.674-.85 6.323 0 1.215.3 2.073.91 2.573q.915.75 3.06.912l-.45 1.986h-14.18l.44-1.986q1.545-.243 2.31-.79c.52-.365.95-.872 1.3-1.52.35-.649.68-1.439.97-2.371.3-.932.75-2.736 1.34-5.41l6.89-31.206c.27-1.162.49-2.27.65-3.324q.24-1.58.24-3.201c0-1.27-.32-2.155-.95-2.655-.64-.5-1.64-.79-3.02-.871Z"/><text x="2158.75" y="450.632" fill-opacity="0" font-family="Arial,Arial_MSFontService,sans-serif" font-size="55.32">𝑀</text><path fill-rule="evenodd" d="M3032.84 468.871h16.21l-.45 1.986c-1.02.216-1.76.46-2.21.73-.44.27-.84.675-1.19 1.216s-.72 1.384-1.1 2.533c-.37 1.148-.85 3.019-1.41 5.613l-2.88 12.928h1.34c1.13 0 2.16-.189 3.1-.568.93-.378 2.02-1.067 3.26-2.066q1.86-1.5 5.94-5.512 4.065-4.012 5.79-6.1c1.15-1.391 1.99-2.593 2.51-3.606.53-1.014.79-1.939.79-2.777q0-1.012-.81-1.641-.81-.628-2.31-.75l.45-1.986h17.39l-.45 1.986c-1.08.162-2.3.723-3.67 1.682-1.36.959-3.45 2.83-6.26 5.613l-15.72 15.32 8.63 20.75c.89 2.134 1.63 3.674 2.21 4.62.58.945 1.27 1.695 2.08 2.249.82.554 1.81.925 3 1.114l-.44 1.986h-15.65l.45-1.986q2.19-.202 2.19-1.945 0-1.094-.45-2.492c-.29-.932-.65-1.898-1.05-2.898l-5.27-12.888q-.93-2.31-1.62-3.242c-.46-.621-.95-1.054-1.46-1.297s-1.31-.365-2.39-.365h-2.27l-3.36 15.32c-.36 1.621-.58 2.898-.69 3.83s-.17 1.763-.17 2.492c0 1.216.31 2.074.92 2.574q.9.749 3.06.911l-.45 1.986h-16.21l.45-1.986q1.53-.243 2.31-.79.765-.547 1.29-1.52c.35-.648.68-1.438.98-2.37.29-.933.74-2.736 1.33-5.411l6.89-31.206c.6-2.702.89-4.877.89-6.525 0-1.27-.31-2.155-.95-2.654-.63-.5-1.64-.791-3.02-.872Z"/><text x="3022.22" y="517.276" fill-opacity="0" font-family="Arial,Arial_MSFontService,sans-serif" font-size="55.32">𝐾</text><path fill="#f8ccb9" d="M3862 24h237v308h-237z"/><path fill="#d74514" fill-rule="evenodd" d="M3953.35 152.07h18.89l3.16 33.84 19.21-33.84h18.85l-.57 2.675c-1.54.432-2.68 1.189-3.4 2.269q-1.095 1.621-2.07 5.998l-7.38 33.435a25 25 0 0 0-.4 2.25q-.12.952-.12 2.492c0 1.135.26 1.966.79 2.493.52.526 1.38.871 2.57 1.033l-.57 2.675h-20.38l.56-2.675c1.54-.432 2.68-1.189 3.41-2.269q1.095-1.622 2.07-5.999l3.72-17.021q1.875-8.43 4.38-16.981h-.81a316 316 0 0 1-4.09 7.254l-18.24 31.571h-6.57l-2.67-24.357c-.62-5.782-1.03-10.739-1.22-14.873h-.65c-1.08 6.673-2.1 12.212-3.08 16.616l-3.93 17.791a25 25 0 0 0-.4 2.25q-.12.952-.12 2.492c0 1.135.26 1.966.79 2.493.52.526 1.38.871 2.57 1.033l-.57 2.675h-14.87l.57-2.675c1.54-.432 2.67-1.189 3.4-2.269q1.095-1.622 2.07-5.999l7.37-33.435c.36-1.594.53-3.174.53-4.741 0-1.135-.26-1.966-.79-2.493s-1.38-.871-2.57-1.033Z"/><text x="3942.21" y="200.475" fill-opacity="0" font-family="Arial,Arial_MSFontService,sans-serif" font-size="55.32">𝑴</text><path d="M392.5 173.917h654.82v9.167l-654.82-.001Zm650.23-18.333 45.84 22.916-45.84 22.917Zm263.77 18.333h654.19v9.167l-654.19-.001Zm649.61-18.333 45.83 22.916-45.83 22.917Zm283.39 18.333h661.31v9.167l-661.31-.001Zm656.72-18.333 45.84 22.916-45.84 22.917Zm263.28 18.333h661.31v9.167l-661.31-.001Zm656.72-18.333 45.84 22.916-45.84 22.917ZM1202.083 428.052V328.75h-9.166v99.302Zm18.334-94.718L1197.5 287.5l-22.916 45.834Zm1834.666 94.718V328.75h-9.166v99.302Zm18.334-94.718L3050.5 287.5l-22.916 45.834Z"/><path fill="#f8ccb9" d="M154 1734h238v308H154z"/><path fill="#d74514" fill-rule="evenodd" d="M245.612 1862.09h18.886l3.161 33.84 19.21-33.84h18.845l-.567 2.67c-1.54.43-2.675 1.19-3.405 2.27q-1.094 1.62-2.067 6l-7.376 33.43q-.284 1.305-.405 2.25-.121.96-.121 2.49c0 1.14.263 1.97.79 2.5.527.52 1.384.87 2.573 1.03l-.567 2.68h-20.385l.567-2.68c1.54-.43 2.675-1.19 3.404-2.27q1.095-1.62 2.067-6l3.729-17.02a257 257 0 0 1 4.377-16.98h-.811c-1.27 2.32-2.634 4.74-4.093 7.25l-18.237 31.58h-6.566l-2.675-24.36c-.621-5.78-1.026-10.74-1.215-14.87h-.649c-1.081 6.67-2.107 12.21-3.08 16.61l-3.931 17.79q-.284 1.305-.405 2.25-.122.96-.122 2.49c0 1.14.263 1.97.79 2.5.527.52 1.385.87 2.574 1.03l-.568 2.68h-14.873l.567-2.68c1.54-.43 2.675-1.19 3.405-2.27q1.094-1.62 2.066-6l7.376-33.43q.528-2.4.527-4.74c0-1.14-.263-1.97-.79-2.5-.527-.52-1.385-.87-2.574-1.03Z"/><text x="234.467" y="1910.49" fill-opacity="0" font-family="Arial,Arial_MSFontService,sans-serif" font-size="55.32">𝑴</text><path fill="#fdefe8" fill-rule="evenodd" d="M629 1888c0-60.2 48.801-109 109-109s109 48.8 109 109-48.801 109-109 109-109-48.8-109-109"/><path fill="#d74514" fill-rule="evenodd" d="M721.289 1862.09h39.352l-2.877 13.05h-5.188c-.135-2.57-.378-4.37-.729-5.39-.351-1.03-.892-1.77-1.621-2.23q-1.095-.69-3.08-.69h-10.173l-4.296 19.45h5.634c1.08 0 1.992-.18 2.735-.53s1.432-.94 2.067-1.76q.952-1.23 1.885-3.42h4.458l-3.891 16.45h-4.174c0-1.57-.095-2.77-.284-3.61-.189-.83-.54-1.44-1.054-1.82q-.77-.57-2.634-.57h-5.755l-4.782 21.64h9.119q1.783 0 2.776-.24c.662-.16 1.27-.42 1.823-.77q.831-.525 1.926-1.68c.729-.77 1.452-1.74 2.168-2.92.716-1.17 1.452-2.59 2.208-4.23h5.512l-3.728 14.59h-38.542l.568-2.68c1.54-.43 2.674-1.19 3.404-2.27q1.093-1.62 2.067-6l7.376-33.43q.527-2.4.527-4.74c0-1.14-.264-1.97-.791-2.5-.527-.52-1.384-.87-2.573-1.03Z"/><text x="710.144" y="1910.49" fill-opacity="0" font-family="Arial,Arial_MSFontService,sans-serif" font-size="55.32">𝑬</text><path fill="#d74514" d="M1084 1734h237v308h-237z"/><path fill-rule="evenodd" d="M754.842 2182.45c-1.432 0-2.945.06-4.539.17l-5.188 23.46h4.783c3.917 0 7.011-.53 9.28-1.58q3.405-1.575 5.391-5.19c1.323-2.4 1.985-5 1.985-7.78 0-1.16-.108-2.19-.324-3.1q-.324-1.35-.851-2.25a6.3 6.3 0 0 0-1.337-1.58c-.541-.46-1.216-.86-2.027-1.19-.81-.34-1.749-.59-2.816-.73-1.068-.15-2.52-.23-4.357-.23m-50.271 0q-2.512 0-5.268.12l-5.512 24.56h4.215c3.269 0 5.91-.33 7.923-1.01 2.013-.67 3.661-1.72 4.944-3.14 1.284-1.42 2.277-3.1 2.979-5.05.703-1.94 1.054-4.08 1.054-6.4 0-3.13-.797-5.43-2.391-6.89q-2.391-2.19-7.944-2.19m34.02-3.56h18.034c2.864 0 5.201.17 7.011.5 1.811.34 3.357.85 4.641 1.52 1.283.68 2.357 1.55 3.222 2.62a11.1 11.1 0 0 1 1.945 3.6c.432 1.34.648 2.77.648 4.28q0 6.24-3.809 10.62c-2.54 2.92-6.282 5.13-11.226 6.64v.45c1.297.97 2.344 2.13 3.141 3.49.797 1.35 1.438 3.22 1.925 5.63l.932 4.7a38 38 0 0 0 1.013 4.01c.378 1.19.831 2.14 1.358 2.84s1.121 1.23 1.783 1.58 1.628.63 2.898.85l-.406 1.99h-11.226c-.864-2.41-1.634-5.27-2.31-8.6l-1.783-8.59q-.446-2.22-1.074-3.75c-.419-1.01-.919-1.79-1.499-2.35a4.33 4.33 0 0 0-2.027-1.09c-.77-.18-1.709-.26-2.816-.26h-4.621l-2.837 12.84c-.243 1.06-.412 1.89-.506 2.52-.095.62-.176 1.27-.243 1.96-.068.69-.102 1.31-.102 1.85 0 .83.135 1.49.406 1.96.27.47.675.82 1.216 1.03.54.22 1.472.38 2.796.49l-.446 1.99h-16.657l.446-1.99c1.027-.16 1.797-.42 2.31-.79.514-.36.946-.87 1.297-1.52q.527-.975.973-2.37c.297-.93.743-2.74 1.337-5.41l6.89-31.21c.594-2.7.891-4.83.891-6.4q0-1.98-.932-2.76c-.621-.51-1.634-.81-3.039-.89Zm-51 0h17.872q4.822 0 7.923.75t5.107 2.31a9.5 9.5 0 0 1 2.999 3.95q.993 2.385.993 5.55c0 4.05-.96 7.57-2.878 10.54s-4.519 5.16-7.801 6.56c-3.283 1.41-7.221 2.11-11.814 2.11-2.756 0-5.053-.05-6.89-.16l-2.594 11.91a47 47 0 0 0-.506 2.56q-.143.885-.243 1.92c-.068.69-.102 1.31-.102 1.85 0 .83.135 1.49.406 1.96.27.47.675.82 1.216 1.03.54.22 1.472.38 2.796.49l-.446 1.99h-16.657l.446-1.99c1.027-.16 1.797-.42 2.31-.79.514-.36.946-.87 1.297-1.52q.527-.975.973-2.37c.297-.93.743-2.74 1.337-5.41l6.89-31.21c.594-2.7.891-4.83.891-6.4q0-1.98-.932-2.76c-.621-.51-1.634-.81-3.039-.89Z"/><text x="676.972" y="2227.29" fill-opacity="0" font-family="Arial,Arial_MSFontService,sans-serif" font-size="55.32">𝑃𝑅</text><path fill-rule="evenodd" d="M797.938 2223.59c-1.172 0-2.264.26-3.276.77a10 10 0 0 0-2.77 2.12c-.834.89-1.574 1.92-2.219 3.1a23 23 0 0 0-1.639 3.72 25 25 0 0 0-1.012 4.03 24.4 24.4 0 0 0-.343 3.98c0 2.15.303 3.74.909 4.78.605 1.04 1.583 1.57 2.933 1.57q1.014 0 1.951-.36c.626-.24 1.286-.62 1.981-1.13q2.621-2.055 4.468-5.01c1.231-1.96 2.154-4.29 2.77-6.97q.417-1.845.655-3.33c.159-1 .238-1.94.238-2.83 0-1.59-.372-2.73-1.117-3.41-.744-.69-1.921-1.03-3.529-1.03m-.536-2.95c1.568 0 2.953.18 4.155.55 1.201.37 2.298.87 3.291 1.51l2.889-2.06 2.413.63-4.498 19.5c-.258 1.12-.437 2.03-.536 2.76-.099.72-.149 1.37-.149 1.92 0 .76.154 1.3.462 1.64q.462.51 1.325.51.537 0 1.058-.21.52-.21 1.132-.66c.407-.3.853-.68 1.34-1.15q.729-.69 1.653-1.68c.318.34.645.67.983 1s.665.65.983.97a55 55 0 0 1-2.711 2.6c-.814.73-1.603 1.32-2.368 1.79s-1.514.81-2.248 1.01c-.735.21-1.5.32-2.294.32-1.43 0-2.542-.47-3.336-1.39s-1.191-2.19-1.191-3.8c0-.89.139-1.74.417-2.56l-.417-.18c-1.013 1.41-1.996 2.61-2.949 3.61q-1.43 1.485-2.829 2.46-1.4.96-2.83 1.41t-2.979.45q-3.544 0-5.48-2.55c-1.291-1.7-1.936-4.16-1.936-7.4 0-1.93.203-3.78.61-5.56.408-1.77.983-3.44 1.728-5a21.5 21.5 0 0 1 2.666-4.26 18.5 18.5 0 0 1 3.395-3.29 15.7 15.7 0 0 1 3.932-2.13c1.39-.51 2.83-.76 4.319-.76"/><text x="780.752" y="2247.72" fill-opacity="0" font-family="Arial,Arial_MSFontService,sans-serif" font-size="30.947">𝑎</text><path fill-rule="evenodd" d="M1029.66 2112.24h37.29l-2.8 12.44h-3.89c-.11-2.35-.31-4.12-.61-5.3-.29-1.19-.65-2.01-1.07-2.46-.42-.44-.92-.74-1.5-.89s-1.41-.22-2.49-.22h-13.21l-4.62 21.24h7.74c1.91 0 3.38-.46 4.39-1.36 1.02-.91 2.04-2.4 3.06-4.48h3.69l-3.65 15.56h-3.44c0-2.16-.14-3.63-.41-4.4s-.67-1.25-1.19-1.45c-.53-.21-1.48-.31-2.86-.31h-8.1l-5.19 23.39h11.99c1.6 0 2.86-.17 3.79-.49.94-.32 1.81-.85 2.64-1.58.82-.73 1.65-1.75 2.47-3.06s1.8-3.09 2.94-5.33h3.93l-3.57 14.02h-35.95l.45-1.98c1.03-.17 1.8-.43 2.31-.79.51-.37.95-.88 1.3-1.52.35-.65.67-1.44.97-2.37.3-.94.74-2.74 1.34-5.41l6.89-31.21c.59-2.7.89-4.88.89-6.53 0-1.27-.32-2.15-.95-2.65-.64-.5-1.64-.79-3.02-.87Z"/><text x="1019.04" y="2160.65" fill-opacity="0" font-family="Arial,Arial_MSFontService,sans-serif" font-size="55.32">𝐸</text><path fill-rule="evenodd" d="M1356.79 2105.45q11.835 3.12 18.18 13.47c4.23 6.91 6.34 15.24 6.34 24.99 0 9.78-2.1 18.11-6.32 24.98-4.21 6.88-10.28 11.36-18.2 13.44l-.97-3.12c6.24-2.08 10.88-6.19 13.92-12.32 3.04-6.14 4.56-13.93 4.56-23.39 0-9.13-1.51-16.71-4.54-22.75-3.02-6.04-7.71-10.1-14.06-12.18Zm-253.45 0 1.1 3.12c-6.33 2.08-11.01 6.14-14.05 12.18s-4.56 13.62-4.56 22.75c0 9.46 1.52 17.25 4.56 23.39 3.04 6.13 7.68 10.24 13.93 12.32l-.98 3.12c-7.91-2.08-13.98-6.56-18.19-13.44-4.22-6.87-6.33-15.2-6.33-24.98 0-9.75 2.12-18.08 6.35-24.99 4.22-6.9 10.28-11.39 18.17-13.47m82.61 10.36c-1.44 0-2.95.05-4.54.16l-5.19 23.47h4.78c3.92 0 7.01-.53 9.28-1.58 2.27-1.06 4.07-2.79 5.39-5.19 1.33-2.41 1.99-5 1.99-7.78 0-1.16-.11-2.2-.33-3.1-.21-.91-.5-1.66-.85-2.25a6.1 6.1 0 0 0-1.33-1.58c-.54-.46-1.22-.86-2.03-1.2s-1.75-.58-2.82-.73c-1.06-.15-2.52-.22-4.35-.22m-50.27 0c-1.68 0-3.44.04-5.27.12l-5.51 24.56h4.21c3.27 0 5.91-.34 7.92-1.01 2.02-.68 3.66-1.73 4.95-3.14 1.28-1.42 2.27-3.1 2.98-5.05.7-1.95 1.05-4.08 1.05-6.4 0-3.14-.8-5.43-2.39-6.89-1.6-1.46-4.24-2.19-7.94-2.19m34.01-3.57h18.04c2.86 0 5.2.17 7.01.51s3.36.84 4.64 1.52c1.28.67 2.36 1.55 3.22 2.61.87 1.07 1.52 2.27 1.95 3.61s.65 2.76.65 4.28c0 4.16-1.27 7.7-3.81 10.61-2.54 2.92-6.29 5.14-11.23 6.65v.45c1.3.97 2.34 2.13 3.14 3.48s1.44 3.23 1.93 5.63l.93 4.71c.3 1.48.63 2.82 1.01 4.01s.83 2.13 1.36 2.83c.53.71 1.12 1.23 1.78 1.59.66.35 1.63.63 2.9.85l-.4 1.98h-11.23c-.87-2.4-1.64-5.27-2.31-8.59l-1.78-8.59q-.45-2.235-1.08-3.75c-.42-1.01-.92-1.8-1.5-2.35s-1.25-.92-2.02-1.09q-1.155-.27-2.82-.27h-4.62l-2.84 12.85c-.24 1.05-.41 1.89-.5 2.51-.1.62-.18 1.28-.25 1.97-.06.69-.1 1.3-.1 1.84 0 .84.14 1.49.41 1.97.27.47.67.81 1.21 1.03s1.47.38 2.8.49l-.45 1.98h-16.65l.44-1.98c1.03-.17 1.8-.43 2.31-.79.52-.37.95-.88 1.3-1.52.35-.65.67-1.44.97-2.37.3-.94.74-2.74 1.34-5.41l6.89-31.21c.59-2.7.89-4.84.89-6.4q0-1.995-.93-2.76c-.62-.51-1.64-.81-3.04-.89Zm-51 0h17.88q4.815 0 7.92.75c2.07.5 3.77 1.27 5.11 2.31 1.33 1.04 2.33 2.36 3 3.95.66 1.6.99 3.45.99 5.56q0 6.075-2.88 10.53t-7.8 6.57c-3.28 1.4-7.22 2.11-11.81 2.11-2.76 0-5.06-.06-6.89-.17l-2.6 11.92c-.24 1.11-.41 1.96-.5 2.55-.1.6-.18 1.24-.25 1.93-.06.69-.1 1.3-.1 1.84 0 .84.14 1.49.41 1.97.27.47.67.81 1.21 1.03s1.47.38 2.8.49l-.45 1.98h-16.65l.44-1.98c1.03-.17 1.8-.43 2.31-.79.52-.37.95-.88 1.3-1.52.35-.65.67-1.44.97-2.37.3-.94.74-2.74 1.34-5.41l6.89-31.21c.59-2.7.89-4.84.89-6.4q0-1.995-.93-2.76c-.62-.51-1.64-.81-3.04-.89Z"/><text x="1108.08" y="2160.65" fill-opacity="0" font-family="Arial,Arial_MSFontService,sans-serif" font-size="55.32">𝑃𝑅</text><path fill-rule="evenodd" d="M1229.04 2156.94q-1.755 0-3.27.78c-1.02.51-1.94 1.22-2.77 2.11-.84.9-1.58 1.93-2.22 3.1-.65 1.17-1.2 2.41-1.64 3.72a24 24 0 0 0-1.01 4.04 24 24 0 0 0-.35 3.98c0 2.14.31 3.73.91 4.78q.915 1.56 2.94 1.56 1.005 0 1.95-.36c.62-.24 1.28-.61 1.98-1.13 1.74-1.37 3.23-3.04 4.46-5 1.24-1.97 2.16-4.29 2.77-6.97.28-1.23.5-2.35.66-3.34s.24-1.93.24-2.83c0-1.59-.37-2.72-1.12-3.41-.74-.68-1.92-1.03-3.53-1.03m-.53-2.94c1.56 0 2.95.18 4.15.55 1.2.36 2.3.87 3.29 1.5l2.89-2.05 2.41.62-4.49 19.51q-.39 1.665-.54 2.76-.15 1.08-.15 1.92c0 .75.15 1.3.46 1.63.31.34.75.51 1.33.51.36 0 .71-.07 1.06-.21.34-.14.72-.35 1.13-.65.4-.3.85-.68 1.34-1.15.48-.47 1.04-1.03 1.65-1.68.32.34.65.67.98 1 .34.32.67.65.99.96-1 1.02-1.9 1.88-2.71 2.61-.82.72-1.61 1.32-2.37 1.79-.77.46-1.52.8-2.25 1.01-.74.21-1.5.31-2.29.31-1.43 0-2.55-.46-3.34-1.38-.79-.93-1.19-2.19-1.19-3.8 0-.89.14-1.75.42-2.56l-.42-.18c-1.01 1.41-2 2.61-2.95 3.6-.95 1-1.9 1.82-2.83 2.46-.93.65-1.88 1.12-2.83 1.42-.95.29-1.95.44-2.98.44-2.36 0-4.19-.85-5.48-2.54-1.29-1.7-1.93-4.17-1.93-7.41 0-1.92.2-3.77.61-5.55.4-1.78.98-3.45 1.72-5q1.125-2.34 2.67-4.26c1.03-1.28 2.16-2.38 3.4-3.3q1.845-1.365 3.93-2.13 2.085-.75 4.32-.75"/><text x="1211.86" y="2181.07" fill-opacity="0" font-family="Arial,Arial_MSFontService,sans-serif" font-size="30.947">𝑎</text><path fill-rule="evenodd" d="M1256.17 2158.16h7.09c.38 1.89.57 3.76.57 5.59 0 1.89-.33 3.62-.98 5.19-.64 1.57-1.68 3.13-3.1 4.68-1.41 1.55-3.37 3.26-5.85 5.13l-2.19-2.47q2.07-1.95 3-3.51c.62-1.04 1.07-2.22 1.34-3.55.27-1.32.4-2.98.4-4.98 0-2.05-.09-4.08-.28-6.08"/><text x="1251.71" y="2176.17" fill-opacity="0" font-family="Arial,Arial_MSFontService,sans-serif" font-size="20.588">,</text><path fill-rule="evenodd" d="M1294.52 2112.24h14.47l4.62 39.31 23.63-39.31H1350l-.44 1.99c-1.03.21-1.77.46-2.21.73-.45.27-.85.67-1.22 1.21-.36.54-.73 1.39-1.09 2.54-.37 1.14-.83 3.02-1.4 5.61l-6.93 31.45c-.35 1.59-.58 2.86-.69 3.79s-.16 1.77-.16 2.53c0 1.22.3 2.07.91 2.57s1.63.81 3.06.92l-.44 1.98h-16.22l.45-1.98c1.03-.17 1.8-.43 2.31-.79.51-.37.95-.88 1.3-1.52.35-.65.67-1.44.97-2.37.3-.94.74-2.74 1.34-5.41l5.39-24.44c.75-3.38 1.62-6.74 2.59-10.09h-.57c-.83 1.59-2.73 4.83-5.67 9.72l-18.44 30.44h-4.42l-3.36-26.06c-.49-3.68-1.03-8.62-1.62-14.83h-.81c-.92 6.05-1.95 11.65-3.08 16.82l-4.14 18.72c-.56 2.57-.85 4.67-.85 6.32 0 1.22.31 2.07.91 2.57.61.5 1.63.81 3.06.92l-.44 1.98h-14.19l.45-1.98c1.03-.17 1.8-.43 2.31-.79.51-.37.94-.88 1.3-1.52.35-.65.67-1.44.97-2.37.3-.94.74-2.74 1.34-5.41l6.89-31.21c.27-1.16.48-2.27.64-3.32.17-1.06.25-2.13.25-3.21 0-1.27-.32-2.15-.95-2.65-.64-.5-1.65-.79-3.02-.87Z"/><text x="1283.9" y="2160.65" fill-opacity="0" font-family="Arial,Arial_MSFontService,sans-serif" font-size="55.32">𝑀</text><path d="M392.5 1883.92h195.967v9.16H392.5Zm191.383-18.34 45.834 22.92-45.834 22.92Zm263.617 18.34h195.89v9.16H847.5Zm191.31-18.34 45.83 22.92-45.83 22.92Zm-295.727 272.47v-99.302h-9.166v99.302Zm18.334-94.718-22.917-45.834-22.916 45.834Z"/><path fill="#fdefe8" fill-rule="evenodd" d="M1551 1888c0-60.2 48.8-109 109-109s109 48.8 109 109-48.8 109-109 109-109-48.8-109-109"/><path fill="#d74514" fill-rule="evenodd" d="M1643.09 1862.09h39.35l-2.87 13.05h-5.19c-.14-2.57-.38-4.37-.73-5.39-.35-1.03-.89-1.77-1.62-2.23s-1.76-.69-3.08-.69h-10.18l-4.29 19.45h5.63c1.08 0 1.99-.18 2.74-.53.74-.35 1.43-.94 2.06-1.76q.96-1.23 1.89-3.42h4.46l-3.89 16.45h-4.18c0-1.57-.09-2.77-.28-3.61-.19-.83-.54-1.44-1.06-1.82-.51-.38-1.39-.57-2.63-.57h-5.75l-4.79 21.64h9.12c1.19 0 2.12-.08 2.78-.24s1.27-.42 1.82-.77c.56-.35 1.2-.91 1.93-1.68s1.45-1.74 2.17-2.92c.71-1.17 1.45-2.59 2.2-4.23h5.52l-3.73 14.59h-38.54l.56-2.68c1.54-.43 2.68-1.19 3.41-2.27s1.42-3.08 2.06-6l7.38-33.43c.35-1.6.53-3.18.53-4.74 0-1.14-.27-1.97-.79-2.5-.53-.52-1.39-.87-2.58-1.03Z"/><text x="1631.95" y="1910.49" fill-opacity="0" font-family="Arial,Arial_MSFontService,sans-serif" font-size="55.32">𝑬</text><path fill="#d74514" d="M2006 1734h237v308h-237z"/><path fill-rule="evenodd" d="M1626.37 2182.45c-1.67 0-3.43.04-5.27.12l-5.51 24.56h4.22c3.27 0 5.91-.33 7.92-1.01 2.01-.67 3.66-1.72 4.94-3.14 1.29-1.42 2.28-3.1 2.98-5.05.71-1.94 1.06-4.08 1.06-6.4 0-3.13-.8-5.43-2.39-6.89q-2.4-2.19-7.95-2.19m31.19-3.56h16.29l-.45 1.98c-1.03.22-1.76.46-2.21.73-.44.27-.85.68-1.21 1.22-.37.54-.73 1.38-1.1 2.53-.36 1.15-.83 3.02-1.4 5.61l-5.06 22.7c-.35 1.54-.63 3.01-.83 4.4-.21 1.39-.31 2.83-.31 4.31 0 2.95.73 5.18 2.17 6.69 1.45 1.51 3.63 2.27 6.55 2.27 2.75 0 5.05-.57 6.89-1.7 1.83-1.14 3.31-2.77 4.41-4.91 1.11-2.13 2.04-4.9 2.8-8.3l5.63-25.5c.6-2.7.9-4.87.9-6.52 0-1.27-.32-2.16-.96-2.66-.63-.5-1.64-.79-3.02-.87l.45-1.98h15.4l-.45 1.98c-1 .22-1.73.47-2.2.75-.48.29-.9.7-1.26 1.24-.37.54-.72 1.39-1.07 2.55q-.54 1.74-1.38 5.55l-5.27 24.28c-1.06 4.84-2.54 8.69-4.46 11.55s-4.32 4.93-7.19 6.2c-2.88 1.27-6.4 1.91-10.56 1.91q-7.005 0-10.74-3.39c-2.49-2.25-3.73-5.54-3.73-9.87 0-1.51.16-3.25.47-5.2.31-1.96.75-4.17 1.31-6.63l4.22-18.89c.62-2.78.93-4.95.93-6.52 0-1.22-.31-2.09-.93-2.62-.62-.52-1.65-.83-3.08-.91Zm-48.17 0h17.87c3.22 0 5.86.25 7.93.75 2.06.5 3.77 1.27 5.1 2.31a9.5 9.5 0 0 1 3 3.95c.67 1.59 1 3.44 1 5.55 0 4.05-.96 7.57-2.88 10.54s-4.52 5.16-7.8 6.56c-3.29 1.41-7.22 2.11-11.82 2.11-2.75 0-5.05-.05-6.89-.16l-2.59 11.91c-.24 1.11-.41 1.96-.51 2.56q-.135.885-.24 1.92c-.07.69-.1 1.31-.1 1.85 0 .83.13 1.49.4 1.96s.68.82 1.22 1.03c.54.22 1.47.38 2.8.49l-.45 1.99h-16.66l.45-1.99c1.03-.16 1.8-.42 2.31-.79.51-.36.95-.87 1.3-1.52s.67-1.44.97-2.37.74-2.74 1.34-5.41l6.89-31.21c.59-2.7.89-4.83.89-6.4q0-1.98-.93-2.76c-.63-.51-1.64-.81-3.04-.89Z"/><text x="1598.77" y="2227.89" fill-opacity="0" font-family="Arial,Arial_MSFontService,sans-serif" font-size="56.009">𝑃𝑈</text><path fill-rule="evenodd" d="M1722.12 2224.63c-.89 0-1.87.29-2.94.88-1.08.59-2.13 1.45-3.18 2.61-1.04 1.15-2 2.57-2.89 4.27q-1.32 2.55-2.1 5.85c-.15 1.08-.33 2.13-.53 3.16s-.3 2-.3 2.89c0 1.61.36 2.74 1.09 3.41.72.66 1.89 1 3.5 1 1.63 0 3.13-.52 4.5-1.57 1.37-1.04 2.54-2.4 3.52-4.09.99-1.69 1.76-3.59 2.31-5.69.56-2.11.84-4.23.84-6.37 0-2.13-.31-3.72-.91-4.77-.61-1.05-1.58-1.58-2.91-1.58m-6.97-14.24h2.15l-4.17 17.01.42.21a41 41 0 0 1 2.9-3.11c.92-.89 1.83-1.61 2.71-2.18.88-.56 1.76-.99 2.64-1.26.87-.28 1.77-.42 2.71-.42 2.34 0 4.15.85 5.42 2.56s1.9 4.2 1.9 7.48c0 2.86-.44 5.55-1.32 8.08-.88 2.54-2.08 4.75-3.59 6.66s-3.26 3.41-5.26 4.51c-1.99 1.11-4.1 1.66-6.33 1.66-1.43 0-2.75-.15-3.96-.44q-1.815-.42-3.54-1.44c-.5.28-1.01.59-1.52.92-.52.34-1 .66-1.46.96-.36-.1-.74-.2-1.13-.29-.4-.09-.78-.19-1.13-.31l7.14-31.93c.22-.99.39-1.81.5-2.44.1-.64.16-1.19.16-1.67 0-.38-.06-.7-.18-.98s-.33-.5-.63-.67c-.29-.17-.69-.3-1.19-.37-.49-.08-1.12-.13-1.87-.15l.44-2.03Z"/><text x="1702.59" y="2246.44" fill-opacity="0" font-family="Arial,Arial_MSFontService,sans-serif" font-size="41.193">𝑏</text><path fill-rule="evenodd" d="M1847.52 2117.24h37.29l-2.8 12.44h-3.89q-.165-3.525-.6-5.31c-.3-1.19-.66-2.01-1.08-2.45a3.05 3.05 0 0 0-1.5-.89c-.58-.15-1.41-.23-2.49-.23h-13.21l-4.62 21.24h7.74c1.92 0 3.38-.45 4.4-1.36 1.01-.9 2.03-2.39 3.05-4.47h3.69l-3.64 15.56h-3.45c0-2.16-.13-3.63-.4-4.4s-.67-1.26-1.2-1.46-1.48-.3-2.86-.3h-8.1l-5.19 23.38h12q2.385 0 3.78-.48 1.41-.495 2.64-1.59c.82-.72 1.65-1.74 2.47-3.06.83-1.31 1.8-3.08 2.94-5.32h3.93l-3.57 14.02h-35.94l.44-1.99c1.03-.16 1.8-.42 2.31-.79.52-.36.95-.87 1.3-1.52s.67-1.44.97-2.37.75-2.73 1.34-5.41l6.89-31.21c.59-2.7.89-4.87.89-6.52 0-1.27-.32-2.15-.95-2.65-.64-.5-1.64-.79-3.02-.88Z"/><text x="1836.91" y="2165.64" fill-opacity="0" font-family="Arial,Arial_MSFontService,sans-serif" font-size="55.32">𝐸</text><path fill-rule="evenodd" d="M2476.47 2098.74q12.645 3.33 19.5 17.22c4.56 9.27 6.85 20.24 6.85 32.91s-2.29 23.64-6.85 32.91q-6.855 13.905-19.5 17.22l-1.01-3.32c6.54-2.46 11.49-7.81 14.85-16.07 3.37-8.25 5.05-18.48 5.05-30.7 0-12.24-1.68-22.49-5.05-30.76-3.36-8.26-8.31-13.63-14.85-16.09Zm-553.44 0 1.01 3.32c-6.54 2.46-11.49 7.83-14.85 16.09-3.37 8.27-5.05 18.52-5.05 30.76 0 12.22 1.68 22.45 5.05 30.7 3.36 8.26 8.31 13.61 14.85 16.07l-1.01 3.32q-12.645-3.315-19.5-17.22-6.84-13.905-6.84-32.91t6.84-32.91q6.855-13.89 19.5-17.22m33.33 22.06c-1.68 0-3.44.05-5.27.13l-5.51 24.56h4.21q4.905 0 7.92-1.02c2.02-.67 3.66-1.72 4.95-3.14 1.28-1.42 2.27-3.1 2.98-5.04.7-1.95 1.05-4.08 1.05-6.41 0-3.13-.8-5.43-2.39-6.89-1.6-1.46-4.24-2.19-7.94-2.19m31.18-3.56h16.29l-.45 1.98c-1.02.22-1.76.46-2.2.73-.45.27-.86.68-1.22 1.22-.37.54-.73 1.38-1.09 2.53-.37 1.15-.84 3.02-1.4 5.62l-5.07 22.69c-.35 1.54-.63 3.01-.83 4.4s-.3 2.83-.3 4.31q0 4.425 2.16 6.69c1.45 1.51 3.63 2.27 6.55 2.27 2.76 0 5.05-.57 6.89-1.7 1.84-1.14 3.31-2.77 4.42-4.91 1.1-2.13 2.04-4.9 2.79-8.3l5.64-25.5c.59-2.7.89-4.87.89-6.52 0-1.27-.32-2.15-.95-2.65-.64-.5-1.65-.79-3.02-.88l.44-1.98h15.4l-.44 1.98c-1 .22-1.74.47-2.21.75-.47.29-.89.7-1.26 1.24-.36.54-.72 1.39-1.07 2.55-.35 1.17-.81 3.02-1.38 5.56l-5.27 24.27c-1.05 4.84-2.54 8.69-4.46 11.55-1.92 2.87-4.31 4.93-7.19 6.2s-6.4 1.91-10.56 1.91q-7.005 0-10.74-3.39c-2.48-2.25-3.73-5.54-3.73-9.87 0-1.51.16-3.24.47-5.2q.465-2.94 1.32-6.63l4.21-18.89c.62-2.78.93-4.95.93-6.52q0-1.83-.93-2.61c-.62-.53-1.65-.83-3.08-.92Zm-48.17 0h17.88q4.815 0 7.92.75c2.07.5 3.77 1.27 5.11 2.31 1.33 1.04 2.33 2.36 3 3.95q.99 2.385.99 5.55c0 4.05-.96 7.57-2.88 10.54s-4.52 5.16-7.8 6.56c-3.28 1.41-7.22 2.11-11.81 2.11-2.76 0-5.06-.05-6.89-.16l-2.6 11.91c-.24 1.11-.41 1.96-.5 2.56-.1.59-.18 1.23-.25 1.92-.06.69-.1 1.31-.1 1.85 0 .83.14 1.49.41 1.96.27.48.67.82 1.21 1.04.54.21 1.48.37 2.8.48l-.45 1.99h-16.65l.44-1.99c1.03-.16 1.8-.42 2.31-.79.52-.36.95-.87 1.3-1.52s.67-1.44.97-2.37.75-2.73 1.34-5.41l6.89-31.21c.59-2.7.89-4.83.89-6.4 0-1.32-.31-2.24-.93-2.75-.62-.52-1.64-.81-3.04-.9Z"/><text x="1928.76" y="2166.25" fill-opacity="0" font-family="Arial,Arial_MSFontService,sans-serif" font-size="56.009">𝑃𝑈</text><path fill-rule="evenodd" d="M2052.11 2162.98c-.9 0-1.88.3-2.95.88-1.07.59-2.13 1.46-3.17 2.61-1.05 1.15-2.01 2.57-2.89 4.27q-1.335 2.55-2.1 5.85c-.16 1.08-.34 2.13-.54 3.16s-.3 2-.3 2.89c0 1.61.37 2.75 1.09 3.41.73.67 1.89 1 3.5 1q2.445 0 4.5-1.56c1.37-1.05 2.54-2.41 3.53-4.1.98-1.69 1.75-3.58 2.31-5.69.55-2.1.83-4.23.83-6.37 0-2.13-.3-3.72-.91-4.77-.6-1.05-1.57-1.58-2.9-1.58m-6.97-14.23h2.14l-4.17 17 .42.21a41 41 0 0 1 2.9-3.11c.93-.89 1.83-1.61 2.71-2.18q1.335-.84 2.64-1.26c.87-.28 1.78-.42 2.71-.42 2.34 0 4.15.85 5.42 2.56s1.91 4.2 1.91 7.48c0 2.86-.44 5.55-1.33 8.09-.88 2.53-2.08 4.75-3.59 6.65-1.51 1.91-3.26 3.41-5.25 4.51-2 1.11-4.11 1.66-6.33 1.66-1.43 0-2.75-.15-3.97-.43-1.21-.29-2.39-.77-3.54-1.45-.5.28-1 .59-1.52.92-.51.34-1 .66-1.46.96-.36-.1-.73-.2-1.13-.28-.4-.09-.77-.2-1.13-.32l7.15-31.93c.22-.99.38-1.8.49-2.44s.16-1.19.16-1.67c0-.37-.06-.7-.18-.98s-.32-.5-.62-.67-.7-.29-1.19-.37c-.5-.08-1.13-.13-1.88-.15l.45-2.03Z"/><text x="2032.57" y="2184.79" fill-opacity="0" font-family="Arial,Arial_MSFontService,sans-serif" font-size="41.193">𝑏</text><path fill-rule="evenodd" d="M2075.66 2163.16h7.09c.38 1.89.57 3.75.57 5.59 0 1.89-.33 3.62-.98 5.19-.65 1.56-1.68 3.12-3.1 4.68-1.42 1.55-3.37 3.26-5.85 5.12l-2.19-2.47c1.38-1.3 2.38-2.46 3-3.5s1.06-2.23 1.33-3.55.41-2.99.41-4.99c0-2.05-.09-4.07-.28-6.07"/><text x="2071.2" y="2181.17" fill-opacity="0" font-family="Arial,Arial_MSFontService,sans-serif" font-size="20.588">,</text><path fill-rule="evenodd" d="M2114.09 2117.24h37.29l-2.8 12.44h-3.89c-.11-2.35-.31-4.12-.61-5.31s-.65-2.01-1.07-2.45a3.05 3.05 0 0 0-1.5-.89c-.58-.15-1.41-.23-2.49-.23h-13.22l-4.62 21.24h7.74c1.92 0 3.39-.45 4.4-1.36q1.515-1.35 3.06-4.47h3.69l-3.65 15.56h-3.44c0-2.16-.14-3.63-.41-4.4s-.67-1.26-1.19-1.46c-.53-.2-1.48-.3-2.86-.3h-8.11l-5.18 23.38h11.99c1.6 0 2.86-.16 3.79-.48q1.395-.495 2.64-1.59c.82-.72 1.64-1.74 2.47-3.06.82-1.31 1.8-3.08 2.94-5.32h3.93l-3.57 14.02h-35.95l.45-1.99c1.03-.16 1.8-.42 2.31-.79.51-.36.94-.87 1.3-1.52.35-.65.67-1.44.97-2.37s.74-2.73 1.34-5.41l6.89-31.21c.59-2.7.89-4.87.89-6.52 0-1.27-.32-2.15-.96-2.65-.63-.5-1.64-.79-3.01-.88Z"/><text x="2103.47" y="2165.64" fill-opacity="0" font-family="Arial,Arial_MSFontService,sans-serif" font-size="55.32">𝐸</text><path fill-rule="evenodd" d="M2441.22 2110.44c7.89 2.08 13.95 6.58 18.18 13.48s6.34 15.23 6.34 24.98c0 9.79-2.11 18.11-6.32 24.99-4.22 6.88-10.28 11.35-18.2 13.43l-.97-3.12c6.24-2.08 10.88-6.18 13.92-12.32 3.04-6.13 4.56-13.92 4.56-23.38 0-9.13-1.51-16.72-4.54-22.76-3.02-6.04-7.71-10.09-14.06-12.18Zm-253.45 0 1.1 3.12c-6.33 2.09-11.01 6.14-14.05 12.18s-4.56 13.63-4.56 22.76c0 9.46 1.52 17.25 4.56 23.38 3.04 6.14 7.68 10.24 13.92 12.32l-.97 3.12c-7.92-2.08-13.98-6.55-18.2-13.43-4.21-6.88-6.32-15.2-6.32-24.99 0-9.75 2.12-18.08 6.34-24.98 4.23-6.9 10.29-11.4 18.18-13.48m82.6 10.36c-1.43 0-2.94.06-4.54.17l-5.18 23.46h4.78c3.92 0 7.01-.52 9.28-1.58 2.27-1.05 4.07-2.78 5.39-5.19 1.32-2.4 1.99-4.99 1.99-7.78 0-1.16-.11-2.19-.33-3.1-.21-.9-.5-1.65-.85-2.25a6.3 6.3 0 0 0-1.34-1.58c-.54-.46-1.21-.86-2.02-1.19-.81-.34-1.75-.58-2.82-.73s-2.52-.23-4.36-.23m-50.27 0c-1.67 0-3.43.05-5.27.13l-5.51 24.56h4.22q4.905 0 7.92-1.02c2.01-.67 3.66-1.72 4.95-3.14q1.92-2.13 2.97-5.04c.71-1.95 1.06-4.08 1.06-6.41 0-3.13-.8-5.43-2.39-6.89q-2.4-2.19-7.95-2.19m34.02-3.56h18.04c2.86 0 5.2.17 7.01.5 1.81.34 3.36.85 4.64 1.52 1.28.68 2.36 1.55 3.22 2.62a11.2 11.2 0 0 1 1.95 3.61c.43 1.33.64 2.76.64 4.27q0 6.24-3.81 10.62c-2.53 2.92-6.28 5.13-11.22 6.65v.44c1.3.97 2.34 2.14 3.14 3.49s1.44 3.23 1.92 5.63l.94 4.7c.29 1.49.63 2.82 1.01 4.01s.83 2.14 1.36 2.84c.52.7 1.12 1.23 1.78 1.58s1.63.64 2.9.85l-.41 1.99h-11.22c-.87-2.41-1.64-5.27-2.31-8.59l-1.79-8.6c-.29-1.48-.65-2.73-1.07-3.74-.42-1.02-.92-1.8-1.5-2.35-.58-.56-1.26-.92-2.03-1.1-.77-.17-1.7-.26-2.81-.26h-4.62l-2.84 12.84q-.36 1.59-.51 2.52c-.09.62-.17 1.27-.24 1.96s-.1 1.31-.1 1.85c0 .83.13 1.49.4 1.96.27.48.68.82 1.22 1.04.54.21 1.47.37 2.8.48l-.45 1.99h-16.66l.45-1.99c1.03-.16 1.8-.42 2.31-.79.51-.36.95-.87 1.3-1.52s.67-1.44.97-2.37.74-2.73 1.34-5.41l6.89-31.21c.59-2.7.89-4.83.89-6.4 0-1.32-.31-2.24-.93-2.75-.63-.52-1.64-.81-3.04-.9Zm-51 0H2221q4.815 0 7.92.75t5.1 2.31a9.55 9.55 0 0 1 3 3.95c.67 1.59 1 3.44 1 5.55 0 4.05-.96 7.57-2.88 10.54s-4.52 5.16-7.8 6.56c-3.29 1.41-7.22 2.11-11.82 2.11-2.75 0-5.05-.05-6.89-.16l-2.59 11.91c-.24 1.11-.41 1.96-.51 2.56q-.135.885-.24 1.92c-.07.69-.1 1.31-.1 1.85 0 .83.13 1.49.4 1.96.27.48.68.82 1.22 1.04.54.21 1.47.37 2.8.48l-.45 1.99h-16.66l.45-1.99c1.03-.16 1.8-.42 2.31-.79.51-.36.95-.87 1.3-1.52s.67-1.44.97-2.37.74-2.73 1.34-5.41l6.89-31.21c.59-2.7.89-4.83.89-6.4 0-1.32-.31-2.24-.93-2.75-.63-.52-1.64-.81-3.04-.9Z"/><text x="2192.5" y="2165.64" fill-opacity="0" font-family="Arial,Arial_MSFontService,sans-serif" font-size="55.32">𝑃𝑅</text><path fill-rule="evenodd" d="M2313.47 2161.94c-1.17 0-2.26.26-3.28.77-1.01.52-1.93 1.23-2.77 2.12-.83.89-1.57 1.93-2.22 3.1-.64 1.17-1.19 2.41-1.63 3.72a25.3 25.3 0 0 0-1.36 8.01c0 2.15.3 3.74.91 4.78.61 1.05 1.58 1.57 2.93 1.57q1.02 0 1.95-.36c.63-.24 1.29-.62 1.99-1.13 1.74-1.37 3.23-3.04 4.46-5.01 1.23-1.96 2.16-4.29 2.77-6.97q.42-1.845.66-3.33c.16-1 .24-1.94.24-2.83 0-1.59-.38-2.73-1.12-3.41-.75-.69-1.92-1.03-3.53-1.03m-.54-2.95c1.57 0 2.96.18 4.16.55s2.3.87 3.29 1.51l2.89-2.06 2.41.63-4.5 19.51c-.25 1.11-.43 2.03-.53 2.75q-.15 1.095-.15 1.92c0 .76.15 1.3.46 1.64s.75.51 1.33.51c.35 0 .71-.07 1.05-.21q.525-.21 1.14-.66c.4-.29.85-.68 1.34-1.14.48-.47 1.03-1.03 1.65-1.69.32.34.64.67.98 1s.67.65.98.97c-.99 1.01-1.89 1.88-2.71 2.61-.81.72-1.6 1.32-2.36 1.78q-1.155.705-2.25 1.02c-.74.2-1.5.31-2.3.31-1.43 0-2.54-.46-3.33-1.39-.8-.92-1.19-2.19-1.19-3.79 0-.9.14-1.75.41-2.57l-.41-.17c-1.02 1.41-2 2.61-2.95 3.6s-1.9 1.81-2.83 2.46c-.93.64-1.88 1.11-2.83 1.41s-1.95.45-2.98.45c-2.36 0-4.19-.85-5.48-2.55s-1.94-4.16-1.94-7.4c0-1.93.21-3.78.61-5.56.41-1.77.99-3.44 1.73-5q1.125-2.34 2.67-4.26c1.03-1.28 2.16-2.38 3.39-3.29s2.55-1.62 3.93-2.13c1.39-.51 2.83-.76 4.32-.76"/><text x="2296.28" y="2186.07" fill-opacity="0" font-family="Arial,Arial_MSFontService,sans-serif" font-size="30.947">𝑎</text><path fill-rule="evenodd" d="M2340.6 2163.16h7.09c.38 1.89.57 3.75.57 5.59 0 1.89-.33 3.62-.98 5.19-.65 1.56-1.68 3.12-3.1 4.68-1.42 1.55-3.37 3.26-5.85 5.12l-2.19-2.47c1.38-1.3 2.38-2.46 3-3.5s1.06-2.23 1.33-3.55.41-2.99.41-4.99c0-2.05-.09-4.07-.28-6.07"/><text x="2336.14" y="2181.17" fill-opacity="0" font-family="Arial,Arial_MSFontService,sans-serif" font-size="20.588">,</text><path fill-rule="evenodd" d="M2378.95 2117.24h14.47l4.62 39.31 23.63-39.31h12.76l-.44 1.98c-1.03.22-1.77.46-2.21.73-.45.27-.85.68-1.22 1.22-.36.54-.73 1.38-1.09 2.53-.37 1.15-.83 3.02-1.4 5.62l-6.93 31.44c-.35 1.6-.58 2.86-.69 3.79-.11.94-.16 1.78-.16 2.54 0 1.21.3 2.07.91 2.57s1.63.8 3.06.91l-.45 1.99h-16.21l.45-1.99c1.03-.16 1.8-.42 2.31-.79.51-.36.94-.87 1.3-1.52.35-.65.67-1.44.97-2.37s.74-2.73 1.34-5.41l5.39-24.44c.75-3.37 1.62-6.74 2.59-10.09h-.57c-.84 1.6-2.73 4.84-5.67 9.73l-18.44 30.43h-4.42l-3.36-26.05c-.49-3.68-1.03-8.62-1.62-14.84h-.81c-.92 6.05-1.95 11.66-3.08 16.82l-4.14 18.72c-.57 2.57-.85 4.68-.85 6.33 0 1.21.3 2.07.91 2.57s1.63.8 3.06.91l-.44 1.99h-14.19l.45-1.99c1.02-.16 1.79-.42 2.31-.79.51-.36.94-.87 1.29-1.52.36-.65.68-1.44.98-2.37.29-.93.74-2.73 1.33-5.41l6.89-31.21c.27-1.16.49-2.26.65-3.32.16-1.05.25-2.12.25-3.2 0-1.27-.32-2.15-.96-2.65-.63-.5-1.64-.79-3.02-.88Z"/><text x="2368.33" y="2165.64" fill-opacity="0" font-family="Arial,Arial_MSFontService,sans-serif" font-size="55.32">𝑀</text><path d="M1313.5 1883.92h195.97v9.16H1313.5Zm191.38-18.34 45.84 22.92-45.84 22.92Zm264.62 18.34h195.89v9.16H1769.5Zm191.31-18.34 45.83 22.92-45.83 22.92Zm-295.727 272.47v-99.302h-9.166v99.302Zm18.334-94.718-22.917-45.834-22.916 45.834Z"/><path fill="#fdefe8" fill-rule="evenodd" d="M2479 1888c0-60.2 48.8-109 109-109s109 48.8 109 109-48.8 109-109 109-109-48.8-109-109"/><path fill="#d74514" fill-rule="evenodd" d="M2585.86 1866.83c-1.35 0-2.4.02-3.12.08l-10.01 45.55c1.24.11 2.24.16 2.99.16 3.49 0 6.5-.69 9.02-2.06 2.53-1.38 4.77-3.48 6.73-6.31 1.96-2.82 3.5-6.26 4.62-10.33s1.68-8.15 1.68-12.26c0-2.78-.31-5.12-.93-7.01s-1.48-3.42-2.57-4.58q-1.65-1.74-3.81-2.49c-1.45-.5-2.98-.75-4.6-.75m-18.77-4.74h16.42c4.45 0 8.02.24 10.69.73 2.44.43 4.66 1.17 6.67 2.22 2.01 1.06 3.6 2.22 4.76 3.49 1.49 1.57 2.66 3.53 3.51 5.9.85 2.36 1.28 5.14 1.28 8.32 0 3.6-.41 7.04-1.22 10.34s-2.01 6.34-3.59 9.14c-1.58 2.79-3.47 5.2-5.67 7.21s-4.41 3.58-6.63 4.7c-2.21 1.12-4.71 1.95-7.49 2.48-2.79.52-6.08.79-9.89.79h-19.98l.56-2.68c1.54-.43 2.68-1.19 3.41-2.27q1.095-1.62 2.07-6l7.37-33.43c.35-1.6.53-3.18.53-4.74 0-1.14-.27-1.97-.79-2.5-.53-.52-1.39-.87-2.58-1.03Z"/><text x="2555.95" y="1910.49" fill-opacity="0" font-family="Arial,Arial_MSFontService,sans-serif" font-size="55.32">𝑫</text><path fill="#d74514" d="M2934 1734h237v308h-237z"/><path fill-rule="evenodd" d="M2604.66 2182.45c-1.44 0-2.95.06-4.54.17l-5.19 23.46h4.78c3.92 0 7.01-.53 9.28-1.58s4.07-2.78 5.39-5.19c1.33-2.4 1.99-5 1.99-7.78 0-1.16-.11-2.19-.33-3.1-.21-.9-.5-1.65-.85-2.25a6.1 6.1 0 0 0-1.34-1.58c-.54-.46-1.21-.86-2.02-1.19-.81-.34-1.75-.59-2.82-.73-1.07-.15-2.52-.23-4.35-.23m-50.28 0c-1.67 0-3.43.04-5.26.12l-5.52 24.56h4.22c3.27 0 5.91-.33 7.92-1.01 2.02-.67 3.66-1.72 4.95-3.14 1.28-1.42 2.27-3.1 2.98-5.05.7-1.94 1.05-4.08 1.05-6.4 0-3.13-.8-5.43-2.39-6.89-1.6-1.46-4.24-2.19-7.95-2.19m34.02-3.56h18.04c2.86 0 5.2.17 7.01.5 1.81.34 3.36.85 4.64 1.52 1.28.68 2.36 1.55 3.22 2.62.87 1.06 1.51 2.27 1.95 3.6.43 1.34.65 2.77.65 4.28q0 6.24-3.81 10.62c-2.54 2.92-6.29 5.13-11.23 6.64v.45c1.3.97 2.34 2.13 3.14 3.49.8 1.35 1.44 3.22 1.93 5.63l.93 4.7c.3 1.49.63 2.82 1.01 4.01s.83 2.14 1.36 2.84 1.12 1.23 1.78 1.58 1.63.63 2.9.85l-.41 1.99h-11.22c-.87-2.41-1.64-5.27-2.31-8.6l-1.78-8.59q-.45-2.22-1.08-3.75c-.42-1.01-.92-1.79-1.5-2.35-.58-.55-1.25-.91-2.02-1.09s-1.71-.26-2.82-.26h-4.62l-2.84 12.84c-.24 1.06-.41 1.89-.51 2.52-.09.62-.17 1.27-.24 1.96s-.1 1.31-.1 1.85c0 .83.14 1.49.41 1.96s.67.82 1.21 1.03c.54.22 1.47.38 2.8.49l-.45 1.99h-16.65l.44-1.99c1.03-.16 1.8-.42 2.31-.79.51-.36.95-.87 1.3-1.52s.67-1.44.97-2.37.74-2.74 1.34-5.41l6.89-31.21c.59-2.7.89-4.83.89-6.4q0-1.98-.93-2.76c-.62-.51-1.64-.81-3.04-.89Zm-51 0h17.88q4.815 0 7.92.75c2.07.5 3.77 1.27 5.11 2.31a9.54 9.54 0 0 1 2.99 3.95c.67 1.59 1 3.44 1 5.55 0 4.05-.96 7.57-2.88 10.54s-4.52 5.16-7.8 6.56c-3.28 1.41-7.22 2.11-11.82 2.11-2.75 0-5.05-.05-6.88-.16l-2.6 11.91c-.24 1.11-.41 1.96-.51 2.56q-.135.885-.24 1.92c-.07.69-.1 1.31-.1 1.85 0 .83.14 1.49.41 1.96s.67.82 1.21 1.03c.54.22 1.47.38 2.8.49l-.45 1.99h-16.65l.44-1.99c1.03-.16 1.8-.42 2.31-.79.51-.36.95-.87 1.3-1.52s.67-1.44.97-2.37.74-2.74 1.34-5.41l6.89-31.21c.59-2.7.89-4.83.89-6.4q0-1.98-.93-2.76c-.62-.51-1.64-.81-3.04-.89Z"/><text x="2526.79" y="2227.29" fill-opacity="0" font-family="Arial,Arial_MSFontService,sans-serif" font-size="55.32">𝑃𝑅</text><path fill-rule="evenodd" d="M2649.75 2224.63c-.9 0-1.88.29-2.95.88s-2.13 1.45-3.17 2.61c-1.05 1.15-2.01 2.57-2.89 4.27q-1.335 2.55-2.1 5.85c-.16 1.08-.34 2.13-.54 3.16s-.3 2-.3 2.89c0 1.61.37 2.74 1.09 3.41.72.66 1.89 1 3.5 1 1.63 0 3.13-.52 4.5-1.57 1.37-1.04 2.54-2.4 3.53-4.09.98-1.69 1.75-3.59 2.31-5.69.55-2.11.83-4.23.83-6.37 0-2.13-.3-3.72-.91-4.77s-1.57-1.58-2.9-1.58m-6.97-14.24h2.14l-4.17 17.01.42.21a41 41 0 0 1 2.9-3.11c.93-.89 1.83-1.61 2.71-2.18.89-.56 1.77-.99 2.64-1.26.87-.28 1.78-.42 2.71-.42 2.34 0 4.15.85 5.42 2.56s1.91 4.2 1.91 7.48c0 2.86-.45 5.55-1.33 8.08-.88 2.54-2.08 4.75-3.59 6.66s-3.26 3.41-5.26 4.51c-1.99 1.11-4.1 1.66-6.32 1.66-1.43 0-2.75-.15-3.97-.44q-1.815-.42-3.54-1.44c-.5.28-1 .59-1.52.92-.52.34-1 .66-1.46.96-.36-.1-.73-.2-1.13-.29s-.78-.19-1.13-.31l7.15-31.93c.21-.99.38-1.81.49-2.44.11-.64.16-1.19.16-1.67 0-.38-.06-.7-.18-.98s-.33-.5-.62-.67c-.3-.17-.7-.3-1.19-.37-.5-.08-1.13-.13-1.88-.15l.45-2.03Z"/><text x="2630.21" y="2246.44" fill-opacity="0" font-family="Arial,Arial_MSFontService,sans-serif" font-size="41.193">𝑏</text><path fill-rule="evenodd" d="M2879.48 2112.24h37.28l-2.8 12.44h-3.89c-.1-2.35-.31-4.12-.6-5.3q-.45-1.785-1.08-2.46c-.42-.44-.92-.74-1.5-.89s-1.41-.22-2.49-.22h-13.21l-4.62 21.24h7.74c1.92 0 3.38-.46 4.4-1.36 1.01-.91 2.03-2.4 3.06-4.48h3.68l-3.64 15.56h-3.45c0-2.16-.13-3.63-.4-4.4s-.67-1.25-1.2-1.45c-.53-.21-1.48-.31-2.86-.31h-8.1l-5.19 23.39h12c1.59 0 2.85-.17 3.79-.49.93-.32 1.81-.85 2.63-1.58s1.65-1.75 2.47-3.06c.83-1.31 1.81-3.09 2.94-5.33h3.93l-3.56 14.02h-35.95l.44-1.98c1.03-.17 1.8-.43 2.31-.79.52-.37.95-.88 1.3-1.52.35-.65.68-1.44.97-2.37.3-.94.75-2.74 1.34-5.41l6.89-31.21c.59-2.7.89-4.88.89-6.53 0-1.27-.32-2.15-.95-2.65-.64-.5-1.64-.79-3.02-.87Z"/><text x="2868.86" y="2160.65" fill-opacity="0" font-family="Arial,Arial_MSFontService,sans-serif" font-size="55.32">𝐸</text><path fill-rule="evenodd" d="M3206.61 2105.45c7.89 2.08 13.95 6.57 18.17 13.47 4.23 6.91 6.35 15.24 6.35 24.99 0 9.78-2.11 18.11-6.33 24.98-4.21 6.88-10.28 11.36-18.19 13.44l-.98-3.12c6.25-2.08 10.89-6.19 13.93-12.32 3.04-6.14 4.55-13.93 4.55-23.39 0-9.13-1.51-16.71-4.53-22.75q-4.545-9.06-14.07-12.18Zm-253.45 0 1.09 3.12q-9.48 3.12-14.04 12.18c-3.04 6.04-4.56 13.62-4.56 22.75 0 9.46 1.52 17.25 4.56 23.39 3.04 6.13 7.68 10.24 13.92 12.32l-.97 3.12c-7.92-2.08-13.99-6.56-18.2-13.44-4.22-6.87-6.32-15.2-6.32-24.98 0-9.75 2.11-18.08 6.34-24.99q6.345-10.35 18.18-13.47m82.6 10.36c-1.43 0-2.95.05-4.54.16l-5.19 23.47h4.78c3.92 0 7.02-.53 9.29-1.58 2.26-1.06 4.06-2.79 5.39-5.19 1.32-2.41 1.98-5 1.98-7.78 0-1.16-.11-2.2-.32-3.1-.22-.91-.5-1.66-.85-2.25-.36-.6-.8-1.12-1.34-1.58s-1.22-.86-2.03-1.2-1.75-.58-2.81-.73c-1.07-.15-2.52-.22-4.36-.22m-50.27 0c-1.68 0-3.43.04-5.27.12l-5.51 24.56h4.21c3.27 0 5.91-.34 7.93-1.01 2.01-.68 3.66-1.73 4.94-3.14 1.28-1.42 2.28-3.1 2.98-5.05s1.05-4.08 1.05-6.4c0-3.14-.79-5.43-2.39-6.89-1.59-1.46-4.24-2.19-7.94-2.19m34.02-3.57h18.03c2.87 0 5.2.17 7.01.51s3.36.84 4.64 1.52c1.29.67 2.36 1.55 3.23 2.61.86 1.07 1.51 2.27 1.94 3.61s.65 2.76.65 4.28c0 4.16-1.27 7.7-3.81 10.61-2.54 2.92-6.28 5.14-11.23 6.65v.45c1.3.97 2.35 2.13 3.14 3.48.8 1.35 1.44 3.23 1.93 5.63l.93 4.71c.3 1.48.64 2.82 1.01 4.01.38 1.19.84 2.13 1.36 2.83.53.71 1.12 1.23 1.79 1.59.66.35 1.62.63 2.89.85l-.4 1.98h-11.23c-.86-2.4-1.63-5.27-2.31-8.59l-1.78-8.59q-.45-2.235-1.08-3.75c-.41-1.01-.91-1.8-1.49-2.35-.59-.55-1.26-.92-2.03-1.09q-1.155-.27-2.82-.27h-4.62l-2.83 12.85c-.25 1.05-.42 1.89-.51 2.51-.1.62-.18 1.28-.24 1.97-.07.69-.11 1.3-.11 1.84 0 .84.14 1.49.41 1.97.27.47.68.81 1.22 1.03s1.47.38 2.79.49l-.44 1.98h-16.66l.44-1.98c1.03-.17 1.8-.43 2.32-.79.51-.37.94-.88 1.29-1.52.35-.65.68-1.44.97-2.37.3-.94.75-2.74 1.34-5.41l6.89-31.21c.6-2.7.89-4.84.89-6.4q0-1.995-.93-2.76c-.62-.51-1.63-.81-3.04-.89Zm-51 0h17.87c3.21 0 5.86.25 7.92.75 2.07.5 3.77 1.27 5.11 2.31a9.55 9.55 0 0 1 3 3.95c.66 1.6.99 3.45.99 5.56q0 6.075-2.88 10.53-2.865 4.455-7.8 6.57c-3.28 1.4-7.22 2.11-11.81 2.11-2.76 0-5.05-.06-6.89-.17l-2.59 11.92q-.375 1.665-.51 2.55c-.1.6-.18 1.24-.24 1.93-.07.69-.11 1.3-.11 1.84 0 .84.14 1.49.41 1.97.27.47.68.81 1.22 1.03s1.47.38 2.79.49l-.44 1.98h-16.66l.44-1.98c1.03-.17 1.8-.43 2.32-.79.51-.37.94-.88 1.29-1.52.35-.65.68-1.44.97-2.37.3-.94.75-2.74 1.34-5.41l6.89-31.21c.6-2.7.89-4.84.89-6.4q0-1.995-.93-2.76c-.62-.51-1.63-.81-3.04-.89Z"/><text x="2957.89" y="2160.65" fill-opacity="0" font-family="Arial,Arial_MSFontService,sans-serif" font-size="55.32">𝑃𝑅</text><path fill-rule="evenodd" d="M3078.85 2156.94q-1.755 0-3.27.78a9.9 9.9 0 0 0-2.77 2.11c-.84.9-1.58 1.93-2.22 3.1-.65 1.17-1.19 2.41-1.64 3.72s-.78 2.66-1.01 4.04-.34 2.71-.34 3.98c0 2.14.3 3.73.9 4.78q.915 1.56 2.94 1.56 1.005 0 1.95-.36c.62-.24 1.28-.61 1.98-1.13 1.75-1.37 3.24-3.04 4.47-5 1.23-1.97 2.15-4.29 2.77-6.97.28-1.23.49-2.35.65-3.34s.24-1.93.24-2.83c0-1.59-.37-2.72-1.12-3.41-.74-.68-1.92-1.03-3.53-1.03m-.53-2.94c1.57 0 2.95.18 4.15.55 1.21.36 2.3.87 3.29 1.5l2.89-2.05 2.42.62-4.5 19.51q-.39 1.665-.54 2.76-.15 1.08-.15 1.92c0 .75.16 1.3.47 1.63.3.34.75.51 1.32.51.36 0 .71-.07 1.06-.21s.72-.35 1.13-.65.85-.68 1.34-1.15q.735-.705 1.65-1.68c.32.34.65.67.99 1 .33.32.66.65.98.96-.99 1.02-1.9 1.88-2.71 2.61-.82.72-1.6 1.32-2.37 1.79-.76.46-1.51.8-2.25 1.01-.73.21-1.5.31-2.29.31-1.43 0-2.54-.46-3.34-1.38-.79-.93-1.19-2.19-1.19-3.8 0-.89.14-1.75.42-2.56l-.42-.18c-1.01 1.41-1.99 2.61-2.95 3.6-.95 1-1.89 1.82-2.83 2.46-.93.65-1.87 1.12-2.83 1.42-.95.29-1.94.44-2.97.44-2.37 0-4.19-.85-5.49-2.54-1.29-1.7-1.93-4.17-1.93-7.41 0-1.92.2-3.77.61-5.55s.98-3.45 1.73-5c.74-1.56 1.63-2.98 2.66-4.26 1.04-1.28 2.17-2.38 3.4-3.3q1.845-1.365 3.93-2.13 2.085-.75 4.32-.75"/><text x="3061.67" y="2181.07" fill-opacity="0" font-family="Arial,Arial_MSFontService,sans-serif" font-size="30.947">𝑎</text><path fill-rule="evenodd" d="M3105.98 2158.16h7.09c.38 1.89.57 3.76.57 5.59 0 1.89-.32 3.62-.97 5.19s-1.68 3.13-3.1 4.68-3.37 3.26-5.86 5.13l-2.19-2.47q2.07-1.95 3-3.51c.62-1.04 1.07-2.22 1.34-3.55.27-1.32.4-2.98.4-4.98 0-2.05-.09-4.08-.28-6.08"/><text x="3101.52" y="2176.17" fill-opacity="0" font-family="Arial,Arial_MSFontService,sans-serif" font-size="20.588">,</text><path fill-rule="evenodd" d="M3144.33 2112.24h14.47l4.62 39.31 23.63-39.31h12.77l-.45 1.99c-1.03.21-1.76.46-2.21.73-.44.27-.85.67-1.21 1.21-.37.54-.73 1.39-1.1 2.54-.36 1.14-.83 3.02-1.4 5.61l-6.93 31.45c-.35 1.59-.58 2.86-.69 3.79-.1.93-.16 1.77-.16 2.53 0 1.22.31 2.07.91 2.57.61.5 1.63.81 3.06.92l-.44 1.98h-16.21l.44-1.98c1.03-.17 1.8-.43 2.31-.79.52-.37.95-.88 1.3-1.52.35-.65.68-1.44.97-2.37.3-.94.75-2.74 1.34-5.41l5.39-24.44c.76-3.38 1.62-6.74 2.59-10.09h-.56c-.84 1.59-2.73 4.83-5.68 9.72l-18.44 30.44h-4.41l-3.37-26.06c-.48-3.68-1.02-8.62-1.62-14.83h-.81c-.92 6.05-1.95 11.65-3.08 16.82l-4.13 18.72c-.57 2.57-.85 4.67-.85 6.32 0 1.22.3 2.07.91 2.57s1.63.81 3.06.92l-.45 1.98h-14.18l.44-1.98c1.03-.17 1.8-.43 2.31-.79.52-.37.95-.88 1.3-1.52.35-.65.67-1.44.97-2.37.3-.94.74-2.74 1.34-5.41l6.89-31.21c.27-1.16.49-2.27.65-3.32q.24-1.59.24-3.21c0-1.27-.32-2.15-.95-2.65-.64-.5-1.64-.79-3.02-.87Z"/><text x="3133.72" y="2160.65" fill-opacity="0" font-family="Arial,Arial_MSFontService,sans-serif" font-size="55.32">𝑀</text><path d="M2241.5 1883.92h195.97v9.16H2241.5Zm191.38-18.34 45.84 22.92-45.84 22.92Zm264.62 18.34h195.89v9.16H2697.5Zm191.31-18.34 45.83 22.92-45.83 22.92Zm-295.727 272.47v-99.302h-9.166v99.302Zm18.334-94.718-22.917-45.834-22.916 45.834Z"/><path fill="#fdefe8" fill-rule="evenodd" d="M3407 1888c0-60.2 48.8-109 109-109s109 48.8 109 109-48.8 109-109 109-109-48.8-109-109"/><path fill="#d74514" fill-rule="evenodd" d="M3513.87 1866.83c-1.35 0-2.39.02-3.12.08l-10.01 45.55c1.24.11 2.24.16 3 .16 3.48 0 6.49-.69 9.01-2.06 2.53-1.38 4.77-3.48 6.73-6.31 1.96-2.82 3.5-6.26 4.62-10.33s1.68-8.15 1.68-12.26c0-2.78-.31-5.12-.93-7.01s-1.48-3.42-2.57-4.58q-1.65-1.74-3.81-2.49c-1.45-.5-2.98-.75-4.6-.75m-18.77-4.74h16.42c4.45 0 8.02.24 10.7.73q3.645.645 6.66 2.22c2.02 1.06 3.6 2.22 4.76 3.49 1.49 1.57 2.66 3.53 3.51 5.9.85 2.36 1.28 5.14 1.28 8.32 0 3.6-.41 7.04-1.22 10.34s-2 6.34-3.59 9.14c-1.58 2.79-3.47 5.2-5.67 7.21s-4.41 3.58-6.63 4.7c-2.21 1.12-4.71 1.95-7.49 2.48-2.79.52-6.08.79-9.89.79h-19.98l.57-2.68c1.54-.43 2.67-1.19 3.4-2.27q1.095-1.62 2.07-6l7.37-33.43c.35-1.6.53-3.18.53-4.74 0-1.14-.26-1.97-.79-2.5-.53-.52-1.39-.87-2.57-1.03Z"/><text x="3483.96" y="1910.49" fill-opacity="0" font-family="Arial,Arial_MSFontService,sans-serif" font-size="55.32">𝑫</text><path fill-rule="evenodd" d="M3482.4 2182.45c-1.68 0-3.44.04-5.27.12l-5.51 24.56h4.21c3.27 0 5.91-.33 7.92-1.01 2.02-.67 3.66-1.72 4.95-3.14 1.28-1.42 2.27-3.1 2.98-5.05.7-1.94 1.05-4.08 1.05-6.4 0-3.13-.8-5.43-2.39-6.89s-4.24-2.19-7.94-2.19m31.18-3.56h16.29l-.45 1.98c-1.02.22-1.76.46-2.2.73-.45.27-.86.68-1.22 1.22s-.73 1.38-1.09 2.53c-.37 1.15-.84 3.02-1.4 5.61l-5.07 22.7c-.35 1.54-.63 3.01-.83 4.4s-.3 2.83-.3 4.31c0 2.95.72 5.18 2.17 6.69 1.44 1.51 3.62 2.27 6.54 2.27 2.76 0 5.05-.57 6.89-1.7 1.84-1.14 3.31-2.77 4.42-4.91 1.11-2.13 2.04-4.9 2.79-8.3l5.64-25.5c.59-2.7.89-4.87.89-6.52 0-1.27-.32-2.16-.95-2.66-.64-.5-1.65-.79-3.02-.87l.44-1.98h15.4l-.44 1.98c-1 .22-1.74.47-2.21.75-.47.29-.89.7-1.26 1.24-.36.54-.72 1.39-1.07 2.55q-.525 1.74-1.38 5.55l-5.27 24.28c-1.05 4.84-2.54 8.69-4.46 11.55-1.91 2.86-4.31 4.93-7.19 6.2s-6.4 1.91-10.56 1.91q-7.005 0-10.74-3.39c-2.48-2.25-3.73-5.54-3.73-9.87 0-1.51.16-3.25.47-5.2q.465-2.94 1.32-6.63l4.21-18.89c.62-2.78.93-4.95.93-6.52 0-1.22-.31-2.09-.93-2.62-.62-.52-1.65-.83-3.08-.91Zm-48.16 0h17.87q4.815 0 7.92.75c2.07.5 3.77 1.27 5.11 2.31a9.65 9.65 0 0 1 3 3.95q.99 2.385.99 5.55c0 4.05-.96 7.57-2.88 10.54s-4.52 5.16-7.8 6.56c-3.28 1.41-7.22 2.11-11.81 2.11-2.76 0-5.06-.05-6.89-.16l-2.6 11.91c-.24 1.11-.41 1.96-.5 2.56-.1.59-.18 1.23-.25 1.92-.06.69-.1 1.31-.1 1.85 0 .83.14 1.49.41 1.96s.67.82 1.21 1.03c.54.22 1.48.38 2.8.49l-.45 1.99h-16.65l.44-1.99c1.03-.16 1.8-.42 2.31-.79.52-.36.95-.87 1.3-1.52s.68-1.44.97-2.37c.3-.93.75-2.74 1.34-5.41l6.89-31.21c.59-2.7.89-4.83.89-6.4q0-1.98-.93-2.76c-.62-.51-1.64-.81-3.04-.89Z"/><text x="3454.8" y="2227.89" fill-opacity="0" font-family="Arial,Arial_MSFontService,sans-serif" font-size="56.009">𝑃𝑈</text><path fill-rule="evenodd" d="M3576.15 2223.59c-1.17 0-2.26.26-3.27.77a9.8 9.8 0 0 0-2.77 2.12c-.84.89-1.58 1.92-2.22 3.1-.65 1.17-1.19 2.41-1.64 3.72s-.79 2.65-1.01 4.03a24 24 0 0 0-.35 3.98c0 2.15.31 3.74.91 4.78.61 1.04 1.59 1.57 2.94 1.57q1.005 0 1.95-.36c.62-.24 1.28-.62 1.98-1.13q2.61-2.055 4.47-5.01c1.23-1.96 2.15-4.29 2.77-6.97.27-1.23.49-2.34.65-3.33.16-1 .24-1.94.24-2.83 0-1.59-.37-2.73-1.12-3.41-.74-.69-1.92-1.03-3.53-1.03m-.53-2.95c1.56 0 2.95.18 4.15.55s2.3.87 3.29 1.51l2.89-2.06 2.41.63-4.49 19.5c-.26 1.12-.44 2.03-.54 2.76-.1.72-.15 1.37-.15 1.92 0 .76.16 1.3.46 1.64.31.34.75.51 1.33.51.36 0 .71-.07 1.06-.21.34-.14.72-.36 1.13-.66.4-.3.85-.68 1.34-1.15.48-.46 1.04-1.02 1.65-1.68.32.34.65.67.98 1 .34.33.67.65.99.97-1 1.01-1.9 1.88-2.71 2.6-.82.73-1.61 1.32-2.37 1.79-.77.47-1.52.81-2.25 1.01-.73.21-1.5.32-2.29.32-1.43 0-2.55-.47-3.34-1.39s-1.19-2.19-1.19-3.8c0-.89.14-1.74.42-2.56l-.42-.18c-1.01 1.41-2 2.61-2.95 3.61-.95.99-1.9 1.81-2.83 2.46-.93.64-1.88 1.11-2.83 1.41s-1.94.45-2.98.45c-2.36 0-4.19-.85-5.48-2.55s-1.93-4.16-1.93-7.4c0-1.93.2-3.78.61-5.56.4-1.77.98-3.44 1.72-5q1.125-2.34 2.67-4.26c1.03-1.28 2.16-2.38 3.4-3.29q1.845-1.365 3.93-2.13c1.39-.51 2.83-.76 4.32-.76"/><text x="3558.97" y="2247.72" fill-opacity="0" font-family="Arial,Arial_MSFontService,sans-serif" font-size="30.947">𝑎</text><path fill="#f8ccb9" d="M3862 1734h237v308h-237z"/><path fill="#d74514" fill-rule="evenodd" d="M3953.35 1862.09h18.89l3.16 33.84 19.21-33.84h18.85l-.57 2.67c-1.54.43-2.68 1.19-3.4 2.27q-1.095 1.62-2.07 6l-7.38 33.43c-.19.87-.32 1.62-.4 2.25q-.12.96-.12 2.49c0 1.14.26 1.97.79 2.5.52.52 1.38.87 2.57 1.03l-.57 2.68h-20.38l.56-2.68c1.54-.43 2.68-1.19 3.41-2.27q1.095-1.62 2.07-6l3.72-17.02a265 265 0 0 1 4.38-16.98h-.81a320 320 0 0 1-4.09 7.25l-18.24 31.58h-6.57l-2.67-24.36c-.62-5.78-1.03-10.74-1.22-14.87h-.65c-1.08 6.67-2.1 12.21-3.08 16.61l-3.93 17.79c-.19.87-.32 1.62-.4 2.25q-.12.96-.12 2.49c0 1.14.26 1.97.79 2.5.52.52 1.38.87 2.57 1.03l-.57 2.68h-14.87l.57-2.68c1.54-.43 2.67-1.19 3.4-2.27q1.095-1.62 2.07-6l7.37-33.43c.36-1.6.53-3.18.53-4.74 0-1.14-.26-1.97-.79-2.5-.53-.52-1.38-.87-2.57-1.03Z"/><text x="3942.21" y="1910.49" fill-opacity="0" font-family="Arial,Arial_MSFontService,sans-serif" font-size="55.32">𝑴</text><path d="M3169.5 1883.92h195.89v9.16H3169.5Zm191.31-18.34 45.83 22.92-45.83 22.92Zm264.69 18.34h195.89v9.16H3625.5Zm191.31-18.34 45.83 22.92-45.83 22.92Zm-295.727 272.47v-99.302h-9.166v99.302Zm18.334-94.718-22.917-45.834-22.916 45.834Z"/><path fill="#f8ccb9" d="M154 561h238v308H154z"/><path fill="#d74514" fill-rule="evenodd" d="M245.612 689.337h18.886l3.161 33.841 19.21-33.841h18.845l-.567 2.675q-2.31.648-3.405 2.27-1.094 1.62-2.067 5.998l-7.376 33.435a26 26 0 0 0-.405 2.249q-.121.953-.121 2.492 0 1.702.79 2.493t2.573 1.033l-.567 2.675h-20.385l.567-2.675q2.31-.648 3.404-2.269 1.095-1.621 2.067-5.998l3.729-17.022a258 258 0 0 1 4.377-16.981h-.811a322 322 0 0 1-4.093 7.255l-18.237 31.571h-6.566l-2.675-24.357q-.932-8.673-1.215-14.874h-.649q-1.621 10.01-3.08 16.616l-3.931 17.792a26 26 0 0 0-.405 2.249q-.122.953-.122 2.492 0 1.702.79 2.493t2.574 1.033l-.568 2.675h-14.873l.567-2.675q2.31-.648 3.405-2.269t2.066-5.998l7.376-33.435q.528-2.391.527-4.742 0-1.703-.79-2.492-.79-.79-2.574-1.034Z"/><text x="234.467" y="737.742" fill-opacity="0" font-family="Arial,Arial_MSFontService,sans-serif" font-size="55.32">𝑴</text><path fill="#fdefe8" fill-rule="evenodd" d="M1088 715c0-60.199 48.8-109 109-109s109 48.801 109 109-48.8 109-109 109-109-48.801-109-109"/><path fill="#d74514" fill-rule="evenodd" d="M1180.14 689.337h39.35l-2.88 13.05h-5.18c-.14-2.567-.38-4.363-.73-5.39q-.525-1.54-1.62-2.229c-.73-.459-1.76-.689-3.08-.689h-10.18l-4.29 19.453h5.63c1.08 0 1.99-.175 2.74-.527.74-.351 1.43-.939 2.06-1.763q.96-1.236 1.89-3.424h4.46l-3.89 16.454h-4.18c0-1.567-.09-2.769-.28-3.607s-.54-1.446-1.06-1.824c-.51-.378-1.39-.567-2.63-.567h-5.75l-4.79 21.641h9.12c1.19 0 2.12-.081 2.78-.243a6 6 0 0 0 1.82-.77c.56-.351 1.2-.912 1.93-1.682q1.095-1.154 2.16-2.918c.72-1.175 1.46-2.587 2.21-4.235h5.52l-3.73 14.59h-38.55l.57-2.675c1.54-.432 2.68-1.188 3.41-2.269s1.42-3.08 2.06-5.998l7.38-33.435c.35-1.594.53-3.175.53-4.742 0-1.135-.27-1.966-.79-2.492q-.795-.79-2.58-1.034Z"/><text x="1168.99" y="737.742" fill-opacity="0" font-family="Arial,Arial_MSFontService,sans-serif" font-size="55.32">𝑬</text><path fill="#d74514" d="M2001 561h238v308h-238z"/><path fill="#fdefe8" fill-rule="evenodd" d="M2941 715c0-60.199 48.8-109 109-109s109 48.801 109 109-48.8 109-109 109-109-48.801-109-109"/><path fill="#d74514" fill-rule="evenodd" d="M3048.45 694.079q-2.025 0-3.12.081l-10.01 45.553q1.86.162 3 .162c3.48 0 6.49-.689 9.02-2.067q3.78-2.067 6.72-6.302t4.62-10.334a45.6 45.6 0 0 0 1.69-12.26c0-2.783-.32-5.12-.94-7.011s-1.48-3.418-2.57-4.58q-1.635-1.743-3.81-2.492c-1.45-.5-2.98-.75-4.6-.75m-18.76-4.742h16.41c4.46 0 8.02.244 10.7.73 2.43.432 4.65 1.175 6.67 2.229 2.01 1.054 3.6 2.215 4.76 3.485 1.48 1.567 2.65 3.533 3.5 5.897s1.28 5.14 1.28 8.328c0 3.594-.41 7.039-1.22 10.335s-2 6.342-3.58 9.139-3.47 5.201-5.68 7.214c-2.2 2.012-4.41 3.579-6.62 4.701q-3.33 1.681-7.5 2.472c-2.78.527-6.08.79-9.89.79h-19.98l.57-2.675c1.54-.432 2.67-1.188 3.4-2.269q1.095-1.621 2.07-5.998l7.38-33.435c.35-1.594.52-3.175.52-4.742 0-1.135-.26-1.966-.79-2.492-.52-.527-1.38-.872-2.57-1.034Z"/><text x="3018.54" y="737.742" fill-opacity="0" font-family="Arial,Arial_MSFontService,sans-serif" font-size="55.32">𝑫</text><path fill-rule="evenodd" d="M1163.42 1009.71c-1.67 0-3.43.04-5.27.12l-5.51 24.56h4.22q4.905 0 7.92-1.02c2.01-.67 3.66-1.72 4.94-3.14 1.29-1.42 2.28-3.1 2.98-5.04.71-1.95 1.06-4.08 1.06-6.41 0-3.13-.8-5.43-2.39-6.89-1.6-1.46-4.25-2.18-7.95-2.18m31.18-3.57h16.3l-.45 1.98c-1.03.22-1.76.46-2.21.73-.44.27-.85.68-1.21 1.22-.37.54-.73 1.38-1.1 2.53-.36 1.15-.83 3.02-1.4 5.62l-5.06 22.69c-.35 1.54-.63 3.01-.83 4.4-.21 1.39-.31 2.83-.31 4.31 0 2.95.73 5.18 2.17 6.69 1.45 1.51 3.63 2.27 6.55 2.27 2.75 0 5.05-.57 6.89-1.7 1.83-1.14 3.31-2.77 4.41-4.9 1.11-2.14 2.04-4.91 2.8-8.31l5.63-25.49c.6-2.71.89-4.88.89-6.53 0-1.27-.31-2.15-.95-2.65-.63-.5-1.64-.79-3.02-.88l.45-1.98h15.4l-.45 1.98c-1 .22-1.73.47-2.21.75-.47.29-.89.7-1.25 1.24-.37.54-.72 1.39-1.08 2.55-.35 1.17-.81 3.02-1.37 5.56l-5.27 24.27c-1.06 4.84-2.54 8.69-4.46 11.55-1.92 2.87-4.32 4.93-7.19 6.2-2.88 1.27-6.4 1.91-10.56 1.91q-7.02 0-10.74-3.39c-2.49-2.25-3.73-5.54-3.73-9.86 0-1.52.16-3.25.47-5.21s.75-4.17 1.31-6.63l4.22-18.88c.62-2.79.93-4.96.93-6.53q0-1.83-.93-2.61c-.62-.53-1.65-.83-3.08-.92Zm-48.16 0h17.87c3.22 0 5.86.25 7.93.75 2.06.5 3.77 1.27 5.1 2.31a9.55 9.55 0 0 1 3 3.95c.66 1.59 1 3.44 1 5.55 0 4.06-.96 7.57-2.88 10.54s-4.52 5.16-7.8 6.56c-3.29 1.41-7.22 2.11-11.82 2.11-2.75 0-5.05-.05-6.89-.16l-2.59 11.92q-.36 1.65-.51 2.55-.135.885-.24 1.92c-.07.69-.1 1.31-.1 1.85 0 .83.13 1.49.4 1.96.27.48.68.82 1.22 1.04.54.21 1.47.37 2.8.48l-.45 1.99h-16.66l.45-1.99c1.03-.16 1.8-.42 2.31-.79.51-.36.94-.87 1.3-1.52.35-.65.67-1.44.97-2.37s.74-2.73 1.34-5.41l6.89-31.2c.59-2.71.89-4.84.89-6.41 0-1.32-.31-2.24-.93-2.75-.63-.52-1.64-.81-3.04-.9Z"/><text x="1135.82" y="1055.15" fill-opacity="0" font-family="Arial,Arial_MSFontService,sans-serif" font-size="56.009">𝑃𝑈</text><path fill-rule="evenodd" d="M1259.17 1051.88c-.89 0-1.87.3-2.94.88-1.08.59-2.13 1.46-3.18 2.61-1.04 1.15-2 2.57-2.89 4.27q-1.32 2.55-2.1 5.85c-.15 1.08-.33 2.13-.53 3.16s-.3 2-.3 2.89c0 1.61.36 2.75 1.09 3.41.72.67 1.89 1 3.5 1 1.63 0 3.12-.52 4.49-1.56 1.37-1.05 2.55-2.41 3.53-4.1.99-1.69 1.76-3.58 2.31-5.69.56-2.1.84-4.23.84-6.37 0-2.13-.31-3.72-.91-4.77-.61-1.05-1.58-1.58-2.91-1.58m-6.97-14.23h2.15l-4.17 17 .42.21a41 41 0 0 1 2.9-3.11c.92-.88 1.83-1.61 2.71-2.18q1.32-.84 2.64-1.26c.87-.28 1.77-.42 2.71-.42 2.34 0 4.15.86 5.42 2.56 1.27 1.71 1.9 4.2 1.9 7.48 0 2.86-.44 5.55-1.32 8.09-.89 2.53-2.08 4.75-3.59 6.65-1.51 1.91-3.26 3.41-5.26 4.52q-2.985 1.65-6.33 1.65c-1.43 0-2.75-.15-3.96-.43-1.21-.29-2.39-.77-3.54-1.45-.5.28-1.01.59-1.52.93-.52.33-1 .65-1.46.95-.36-.1-.74-.2-1.13-.28-.4-.09-.78-.2-1.14-.32l7.15-31.93c.22-.99.39-1.8.49-2.44.11-.63.17-1.19.17-1.67 0-.37-.06-.7-.18-.98s-.33-.5-.63-.67c-.29-.17-.69-.29-1.19-.37-.49-.08-1.12-.13-1.87-.15l.44-2.03Z"/><text x="1239.63" y="1073.69" fill-opacity="0" font-family="Arial,Arial_MSFontService,sans-serif" font-size="41.193">𝑏</text><path fill-rule="evenodd" d="M1947.41 939.494h37.28l-2.79 12.442h-3.89c-.11-2.35-.31-4.12-.61-5.309q-.45-1.783-1.08-2.452a3 3 0 0 0-1.5-.891q-.87-.223-2.49-.223h-13.21l-4.62 21.236h7.74c1.92 0 3.38-.453 4.4-1.358q1.515-1.358 3.06-4.478h3.69l-3.65 15.563h-3.45c0-2.162-.13-3.628-.4-4.398q-.405-1.155-1.2-1.459c-.52-.202-1.48-.304-2.85-.304h-8.11l-5.19 23.385h12c1.59 0 2.86-.162 3.79-.487s1.81-.851 2.63-1.58c.83-.73 1.65-1.75 2.47-3.06q1.245-1.966 2.94-5.329h3.93l-3.56 14.022h-35.95l.45-1.986q1.53-.243 2.31-.79.765-.547 1.29-1.52c.35-.648.68-1.439.97-2.371.3-.932.75-2.735 1.34-5.41l6.89-31.206c.6-2.702.89-4.877.89-6.525 0-1.27-.31-2.155-.95-2.655-.63-.499-1.64-.79-3.02-.871Z"/><text x="1936.79" y="987.899" fill-opacity="0" font-family="Arial,Arial_MSFontService,sans-serif" font-size="55.32">𝐸</text><path fill-rule="evenodd" d="M2273.35 932.7c7.89 2.08 13.95 6.572 18.17 13.475 4.23 6.903 6.35 15.232 6.35 24.985q0 14.671-6.33 24.986c-4.21 6.874-10.28 11.354-18.19 13.434l-.98-3.12c6.25-2.08 10.89-6.19 13.93-12.321 3.03-6.133 4.55-13.927 4.55-23.384q0-13.698-4.53-22.756-4.545-9.057-14.07-12.178Zm-252.26 0 1.09 3.121q-9.48 3.12-14.04 12.178t-4.56 22.756q0 14.185 4.56 23.384c3.04 6.131 7.68 10.241 13.92 12.321l-.97 3.12c-7.92-2.08-13.98-6.56-18.2-13.434-4.21-6.877-6.32-15.205-6.32-24.986 0-9.753 2.11-18.082 6.34-24.985q6.345-10.355 18.18-13.475m32.33 10.361c-1.68 0-3.43.04-5.27.121l-5.51 24.56h4.21c3.27 0 5.91-.338 7.93-1.013 2.01-.676 3.66-1.723 4.94-3.141 1.29-1.419 2.28-3.101 2.98-5.046q1.05-2.918 1.05-6.403c0-3.134-.79-5.431-2.39-6.89-1.59-1.459-4.24-2.188-7.94-2.188m31.18-3.567h16.29l-.44 1.986c-1.03.216-1.76.459-2.21.73s-.85.675-1.22 1.215c-.36.541-.73 1.385-1.09 2.533-.37 1.149-.83 3.02-1.4 5.613l-5.06 22.696a56 56 0 0 0-.84 4.397q-.3 2.087-.3 4.316c0 2.945.72 5.174 2.17 6.687 1.44 1.513 3.63 2.27 6.54 2.27 2.76 0 5.06-.568 6.89-1.703 1.84-1.134 3.31-2.769 4.42-4.903 1.11-2.135 2.04-4.904 2.8-8.308l5.63-25.492c.6-2.702.89-4.877.89-6.525 0-1.27-.32-2.155-.95-2.655-.64-.499-1.64-.79-3.02-.871l.45-1.986h15.4l-.45 1.986c-1 .216-1.73.466-2.21.75-.47.284-.89.696-1.25 1.236q-.555.81-1.08 2.553t-1.38 5.552l-5.26 24.276c-1.06 4.837-2.54 8.687-4.46 11.551q-2.88 4.295-7.2 6.2c-2.87 1.27-6.39 1.905-10.55 1.905q-7.02 0-10.74-3.384c-2.49-2.256-3.73-5.545-3.73-9.868 0-1.513.15-3.249.46-5.208.32-1.959.75-4.168 1.32-6.626l4.22-18.886q.93-4.174.93-6.525 0-1.824-.93-2.614c-.63-.527-1.65-.831-3.08-.912Zm-48.16 0h17.87q4.83 0 7.92.75c2.07.5 3.77 1.27 5.11 2.31a9.5 9.5 0 0 1 3 3.951q.99 2.392.99 5.553c0 4.052-.96 7.565-2.87 10.537-1.92 2.972-4.52 5.16-7.81 6.565-3.28 1.405-7.22 2.108-11.81 2.108-2.76 0-5.05-.054-6.89-.162l-2.59 11.915q-.375 1.66-.51 2.553c-.09.594-.18 1.236-.24 1.925-.07.689-.1 1.304-.1 1.844 0 .837.13 1.493.4 1.965.27.473.68.818 1.22 1.034q.81.324 2.79.486l-.44 1.986h-16.66l.45-1.986q1.53-.243 2.31-.79.765-.547 1.29-1.52c.35-.648.68-1.439.98-2.371.29-.932.74-2.735 1.33-5.41l6.89-31.206c.6-2.702.89-4.836.89-6.403q0-1.986-.93-2.756c-.62-.514-1.63-.811-3.04-.892Z"/><text x="2025.82" y="988.502" fill-opacity="0" font-family="Arial,Arial_MSFontService,sans-serif" font-size="56.009">𝑃𝑈</text><path fill-rule="evenodd" d="M2149.17 985.238c-.89 0-1.88.293-2.95.879s-2.13 1.455-3.17 2.606c-1.04 1.152-2.01 2.577-2.89 4.274q-1.32 2.547-2.1 5.853c-.16 1.072-.34 2.12-.53 3.16-.2 1.03-.3 1.99-.3 2.89 0 1.61.36 2.74 1.08 3.41.73.66 1.9.99 3.5.99q2.445 0 4.5-1.56c1.37-1.04 2.55-2.41 3.53-4.09q1.47-2.537 2.31-5.693c.56-2.105.83-4.23.83-6.374q0-3.188-.9-4.766-.915-1.579-2.91-1.579m-6.97-14.237h2.15l-4.17 17.007.41.209c1.02-1.191 1.98-2.229 2.91-3.113.92-.883 1.82-1.608 2.71-2.174.88-.566 1.76-.988 2.63-1.266a9 9 0 0 1 2.71-.417c2.35 0 4.15.854 5.43 2.562 1.27 1.707 1.9 4.199 1.9 7.476q0 4.289-1.32 8.086c-.89 2.529-2.08 4.749-3.59 6.659-1.51 1.9-3.26 3.41-5.26 4.51q-3 1.65-6.33 1.65c-1.43 0-2.75-.14-3.96-.43s-2.39-.77-3.55-1.44c-.49.28-1 .58-1.51.92-.52.34-1.01.66-1.46.95-.36-.1-.74-.19-1.14-.28-.39-.09-.77-.19-1.13-.31l7.15-31.931c.22-.993.38-1.807.49-2.443.11-.635.17-1.191.17-1.668q0-.566-.18-.983a1.4 1.4 0 0 0-.63-.67c-.3-.169-.69-.293-1.19-.372s-1.12-.129-1.88-.149l.45-2.025Z"/><text x="2129.63" y="1007.04" fill-opacity="0" font-family="Arial,Arial_MSFontService,sans-serif" font-size="41.193">𝑏</text><path fill-rule="evenodd" d="M2172.72 985.412h7.09q.57 2.836.57 5.593c0 1.891-.32 3.62-.97 5.187s-1.68 3.127-3.1 4.678c-1.42 1.56-3.37 3.27-5.86 5.13l-2.19-2.47q2.07-1.95 3-3.51c.62-1.038 1.07-2.22 1.34-3.544s.4-2.986.4-4.985c0-2.054-.09-4.08-.28-6.079"/><text x="2168.26" y="1003.43" fill-opacity="0" font-family="Arial,Arial_MSFontService,sans-serif" font-size="20.588">,</text><path fill-rule="evenodd" d="M2211.07 939.494h14.47l4.62 39.312 23.63-39.312h12.77l-.45 1.986c-1.03.216-1.76.459-2.21.73-.44.27-.85.675-1.21 1.215-.37.541-.73 1.385-1.1 2.533-.36 1.149-.83 3.02-1.4 5.613l-6.93 31.45q-.525 2.391-.69 3.789c-.1.932-.16 1.776-.16 2.533 0 1.216.31 2.074.91 2.573q.915.75 3.06.912l-.44 1.986h-16.21l.44-1.986q1.545-.243 2.31-.79c.52-.365.95-.871 1.3-1.52.35-.648.68-1.439.97-2.371.3-.932.75-2.735 1.34-5.41l5.39-24.438a172 172 0 0 1 2.59-10.091h-.56c-.84 1.594-2.73 4.836-5.68 9.726l-18.44 30.436h-4.41l-3.37-26.059c-.48-3.674-1.03-8.619-1.62-14.833h-.81c-.92 6.052-1.95 11.659-3.08 16.819l-4.13 18.724c-.57 2.566-.86 4.674-.86 6.322 0 1.216.31 2.074.92 2.573q.9.75 3.06.912l-.45 1.986h-14.18l.44-1.986q1.545-.243 2.31-.79c.52-.365.95-.871 1.3-1.52.35-.648.67-1.439.97-2.371s.74-2.735 1.34-5.41l6.89-31.206c.27-1.162.49-2.27.65-3.323q.24-1.58.24-3.202c0-1.27-.32-2.155-.95-2.655-.64-.499-1.64-.79-3.02-.871Z"/><text x="2200.46" y="987.899" fill-opacity="0" font-family="Arial,Arial_MSFontService,sans-serif" font-size="55.32">𝑀</text><path fill-rule="evenodd" d="M3067.25 1009.71c-1.43 0-2.95.05-4.54.16l-5.19 23.46h4.79c3.91 0 7.01-.52 9.28-1.58 2.27-1.05 4.06-2.78 5.39-5.19 1.32-2.4 1.98-4.99 1.98-7.78 0-1.16-.11-2.19-.32-3.1-.22-.9-.5-1.65-.85-2.25a6.3 6.3 0 0 0-1.34-1.58c-.54-.46-1.22-.85-2.03-1.19s-1.75-.58-2.81-.73c-1.07-.15-2.52-.22-4.36-.22m-50.27 0c-1.68 0-3.43.04-5.27.12l-5.51 24.56h4.21c3.27 0 5.91-.34 7.93-1.02 2.01-.67 3.66-1.72 4.94-3.14s2.28-3.1 2.98-5.04c.7-1.95 1.05-4.08 1.05-6.41 0-3.13-.79-5.43-2.39-6.89-1.59-1.46-4.24-2.18-7.94-2.18m34.02-3.57h18.03c2.87 0 5.2.17 7.01.51 1.81.33 3.36.84 4.64 1.52 1.29.67 2.36 1.54 3.23 2.61.86 1.07 1.51 2.27 1.94 3.61.43 1.33.65 2.76.65 4.27q0 6.24-3.81 10.62c-2.54 2.92-6.28 5.13-11.23 6.65v.44c1.3.97 2.35 2.14 3.15 3.49.79 1.35 1.43 3.23 1.92 5.63l.93 4.7c.3 1.49.64 2.83 1.02 4.01.37 1.19.83 2.14 1.35 2.84.53.7 1.12 1.23 1.79 1.58.66.35 1.62.64 2.89.85l-.4 1.99h-11.23c-.86-2.41-1.63-5.27-2.31-8.59l-1.78-8.59c-.3-1.49-.66-2.74-1.07-3.75-.42-1.02-.92-1.8-1.5-2.35-.58-.56-1.26-.92-2.03-1.1-.77-.17-1.71-.26-2.82-.26h-4.62l-2.83 12.85c-.25 1.05-.42 1.89-.51 2.51s-.18 1.27-.24 1.96c-.07.69-.1 1.31-.1 1.85 0 .83.13 1.49.4 1.96.27.48.68.82 1.22 1.04q.81.315 2.79.48l-.44 1.99h-16.66l.45-1.99c1.02-.16 1.79-.42 2.31-.79.51-.36.94-.87 1.29-1.52s.68-1.44.98-2.37c.29-.93.74-2.73 1.33-5.41l6.89-31.2c.6-2.71.89-4.84.89-6.41 0-1.32-.31-2.24-.93-2.75-.62-.52-1.63-.81-3.04-.9Zm-51 0h17.87q4.83 0 7.92.75c2.07.5 3.77 1.27 5.11 2.31a9.55 9.55 0 0 1 3 3.95q.99 2.385.99 5.55c0 4.06-.96 7.57-2.88 10.54-1.91 2.97-4.51 5.16-7.8 6.56-3.28 1.41-7.22 2.11-11.81 2.11-2.76 0-5.05-.05-6.89-.16l-2.59 11.92q-.375 1.65-.51 2.55c-.09.59-.18 1.23-.24 1.92-.07.69-.1 1.31-.1 1.85 0 .83.13 1.49.4 1.96.27.48.68.82 1.22 1.04q.81.315 2.79.48l-.44 1.99h-16.66l.45-1.99c1.02-.16 1.79-.42 2.31-.79.51-.36.94-.87 1.29-1.52s.68-1.44.98-2.37c.29-.93.74-2.73 1.33-5.41l6.89-31.2c.6-2.71.89-4.84.89-6.41 0-1.32-.31-2.24-.93-2.75-.62-.52-1.63-.81-3.04-.9Z"/><text x="2989.38" y="1054.54" fill-opacity="0" font-family="Arial,Arial_MSFontService,sans-serif" font-size="55.32">𝑃𝑅</text><path fill-rule="evenodd" d="M3112.34 1051.88c-.89 0-1.88.3-2.95.88-1.07.59-2.13 1.46-3.17 2.61s-2.01 2.57-2.89 4.27q-1.32 2.55-2.1 5.85c-.16 1.08-.34 2.13-.53 3.16-.2 1.03-.3 2-.3 2.89 0 1.61.36 2.75 1.08 3.41.73.67 1.9 1 3.5 1q2.445 0 4.5-1.56c1.37-1.05 2.55-2.41 3.53-4.1s1.75-3.58 2.31-5.69c.56-2.1.83-4.23.83-6.37q0-3.195-.9-4.77c-.61-1.05-1.58-1.58-2.91-1.58m-6.97-14.23h2.15l-4.17 17 .41.21c1.02-1.19 1.98-2.23 2.91-3.11.92-.88 1.82-1.61 2.71-2.18.88-.56 1.76-.98 2.63-1.26a8.9 8.9 0 0 1 2.71-.42c2.35 0 4.15.86 5.43 2.56 1.27 1.71 1.9 4.2 1.9 7.48 0 2.86-.44 5.55-1.32 8.09-.89 2.53-2.08 4.75-3.59 6.65-1.51 1.91-3.26 3.41-5.26 4.52q-3 1.65-6.33 1.65c-1.43 0-2.75-.15-3.96-.43-1.21-.29-2.39-.77-3.55-1.45-.49.28-1 .59-1.51.93-.52.33-1.01.65-1.46.95-.36-.1-.74-.2-1.14-.28-.39-.09-.77-.2-1.13-.32l7.15-31.93c.22-.99.38-1.8.49-2.44.11-.63.17-1.19.17-1.67 0-.37-.06-.7-.18-.98s-.33-.5-.63-.67-.69-.29-1.19-.37-1.12-.13-1.88-.15l.45-2.03Z"/><text x="3092.8" y="1073.69" fill-opacity="0" font-family="Arial,Arial_MSFontService,sans-serif" font-size="41.193">𝑏</text><path fill="#f8ccb9" d="M3862 561h237v308h-237z"/><path fill="#d74514" fill-rule="evenodd" d="M3953.35 689.337h18.89l3.16 33.841 19.21-33.841h18.85l-.57 2.675c-1.54.432-2.68 1.189-3.4 2.27q-1.095 1.62-2.07 5.998l-7.38 33.435c-.19.864-.32 1.614-.4 2.249q-.12.953-.12 2.492c0 1.135.26 1.966.79 2.493.52.527 1.38.871 2.57 1.033l-.57 2.675h-20.38l.56-2.675c1.54-.432 2.68-1.188 3.41-2.269q1.095-1.621 2.07-5.998l3.72-17.022q1.875-8.43 4.38-16.981h-.81a318 318 0 0 1-4.09 7.255l-18.24 31.571h-6.57l-2.67-24.357c-.62-5.782-1.03-10.74-1.22-14.874h-.65c-1.08 6.674-2.1 12.212-3.08 16.616l-3.93 17.792c-.19.864-.32 1.614-.4 2.249q-.12.953-.12 2.492c0 1.135.26 1.966.79 2.493.52.527 1.38.871 2.57 1.033l-.57 2.675h-14.87l.57-2.675c1.54-.432 2.67-1.188 3.4-2.269q1.095-1.621 2.07-5.998l7.37-33.435c.36-1.594.53-3.175.53-4.742 0-1.135-.26-1.966-.79-2.492-.53-.527-1.38-.872-2.57-1.034Z"/><text x="3942.21" y="737.742" fill-opacity="0" font-family="Arial,Arial_MSFontService,sans-serif" font-size="55.32">𝑴</text><path d="M392.5 710.917h654.82v9.166H392.5Zm650.23-18.334 45.84 22.917-45.84 22.917Zm263.77 18.334h654.19v9.166H1306.5Zm649.61-18.334 45.83 22.917-45.83 22.917Zm283.39 18.334h661.31v9.166H2239.5Zm656.72-18.334 45.84 22.917-45.84 22.917Zm263.28 18.334h661.31v9.166H3159.5Zm656.72-18.334 45.84 22.917-45.84 22.917ZM1202.083 965.052V865.75h-9.166v99.302Zm18.334-94.718L1197.5 824.5l-22.916 45.834Zm1834.666 94.718V865.75h-9.166v99.302Zm18.334-94.718L3050.5 824.5l-22.916 45.834Z"/><path fill="#f8ccb9" d="M154 1126h238v308H154z"/><path fill="#d74514" fill-rule="evenodd" d="M245.612 1253.96h18.886l3.161 33.84 19.21-33.84h18.845l-.567 2.67c-1.54.44-2.675 1.19-3.405 2.27q-1.094 1.62-2.067 6l-7.376 33.44q-.284 1.29-.405 2.25-.121.945-.121 2.49 0 1.695.79 2.49c.527.53 1.384.87 2.573 1.03l-.567 2.68h-20.385l.567-2.68c1.54-.43 2.675-1.18 3.404-2.27.73-1.08 1.419-3.08 2.067-5.99l3.729-17.02a259 259 0 0 1 4.377-16.99h-.811q-1.905 3.495-4.093 7.26l-18.237 31.57h-6.566l-2.675-24.36c-.621-5.78-1.026-10.74-1.215-14.87h-.649q-1.621 10.005-3.08 16.62l-3.931 17.79q-.284 1.29-.405 2.25-.122.945-.122 2.49 0 1.695.79 2.49c.527.53 1.385.87 2.574 1.03l-.568 2.68h-14.873l.567-2.68c1.54-.43 2.675-1.18 3.405-2.27.729-1.08 1.418-3.08 2.066-5.99l7.376-33.44q.528-2.385.527-4.74c0-1.13-.263-1.97-.79-2.49-.527-.53-1.385-.87-2.574-1.04Z"/><text x="234.467" y="1302.36" fill-opacity="0" font-family="Arial,Arial_MSFontService,sans-serif" font-size="55.32">𝑴</text><path fill="#fdefe8" fill-rule="evenodd" d="M1088 1280c0-60.2 48.8-109 109-109s109 48.8 109 109-48.8 109-109 109-109-48.8-109-109"/><path fill="#d74514" fill-rule="evenodd" d="M1180.14 1253.96h39.35l-2.88 13.05h-5.18c-.14-2.57-.38-4.36-.73-5.39s-.89-1.77-1.62-2.23-1.76-.69-3.08-.69h-10.18l-4.29 19.45h5.63c1.08 0 1.99-.17 2.74-.52.74-.35 1.43-.94 2.06-1.77q.96-1.23 1.89-3.42h4.46l-3.89 16.45h-4.18c0-1.56-.09-2.77-.28-3.6-.19-.84-.54-1.45-1.06-1.83-.51-.38-1.39-.56-2.63-.56h-5.75l-4.79 21.64h9.12c1.19 0 2.12-.08 2.78-.25.66-.16 1.27-.41 1.82-.77.56-.35 1.2-.91 1.93-1.68s1.45-1.74 2.16-2.92c.72-1.17 1.46-2.58 2.21-4.23h5.52l-3.73 14.59h-38.55l.57-2.68c1.54-.43 2.68-1.18 3.41-2.27.73-1.08 1.42-3.08 2.06-5.99l7.38-33.44c.35-1.59.53-3.17.53-4.74 0-1.13-.27-1.97-.79-2.49-.53-.53-1.39-.87-2.58-1.04Z"/><text x="1168.99" y="1302.36" fill-opacity="0" font-family="Arial,Arial_MSFontService,sans-serif" font-size="55.32">𝑬</text><path fill="#d74514" d="M2001 1126h238v308h-238z"/><path fill="#fdefe8" fill-rule="evenodd" d="M2941 1280c0-60.2 48.8-109 109-109s109 48.8 109 109-48.8 109-109 109-109-48.8-109-109"/><path fill="#d74514" fill-rule="evenodd" d="M3048.45 1258.7c-1.35 0-2.39.03-3.12.08l-10.01 45.55c1.24.11 2.24.17 3 .17 3.48 0 6.49-.69 9.02-2.07q3.78-2.07 6.72-6.3c1.96-2.83 3.5-6.27 4.62-10.34 1.13-4.06 1.69-8.15 1.69-12.26 0-2.78-.32-5.12-.94-7.01s-1.48-3.42-2.57-4.58q-1.635-1.74-3.81-2.49c-1.45-.5-2.98-.75-4.6-.75m-18.76-4.74h16.41c4.46 0 8.02.24 10.7.73 2.43.43 4.65 1.17 6.67 2.23 2.01 1.05 3.6 2.21 4.76 3.48 1.48 1.57 2.65 3.54 3.5 5.9s1.28 5.14 1.28 8.33c0 3.59-.41 7.04-1.22 10.33-.81 3.3-2 6.35-3.58 9.14-1.58 2.8-3.47 5.2-5.68 7.22-2.2 2.01-4.41 3.58-6.62 4.7-2.22 1.12-4.72 1.94-7.5 2.47s-6.08.79-9.89.79h-19.98l.57-2.68c1.54-.43 2.67-1.18 3.4-2.27.73-1.08 1.42-3.08 2.07-5.99l7.38-33.44c.35-1.59.52-3.17.52-4.74 0-1.13-.26-1.97-.79-2.49-.52-.53-1.38-.87-2.57-1.04Z"/><text x="3018.54" y="1302.36" fill-opacity="0" font-family="Arial,Arial_MSFontService,sans-serif" font-size="55.32">𝑫</text><path fill-rule="evenodd" d="M1213.69 1574.33c-1.43 0-2.94.05-4.54.16l-5.18 23.46h4.78c3.92 0 7.01-.52 9.28-1.58 2.27-1.05 4.07-2.78 5.39-5.18 1.32-2.41 1.99-5 1.99-7.78 0-1.17-.11-2.2-.33-3.11-.22-.9-.5-1.65-.85-2.24-.35-.6-.8-1.13-1.34-1.59-.54-.45-1.21-.85-2.02-1.19s-1.75-.58-2.82-.73-2.52-.22-4.36-.22m-50.27 0c-1.67 0-3.43.04-5.27.12l-5.51 24.56h4.22q4.905 0 7.92-1.02c2.01-.67 3.66-1.72 4.94-3.14 1.29-1.41 2.28-3.1 2.98-5.04.71-1.95 1.06-4.08 1.06-6.4 0-3.14-.8-5.44-2.39-6.89q-2.4-2.19-7.95-2.19m34.02-3.57h18.04c2.86 0 5.2.17 7.01.51 1.81.33 3.35.84 4.64 1.52 1.28.67 2.35 1.54 3.22 2.61.86 1.07 1.51 2.27 1.94 3.61.44 1.34.65 2.76.65 4.27q0 6.24-3.81 10.62c-2.54 2.92-6.28 5.14-11.22 6.65v.44c1.29.98 2.34 2.14 3.14 3.49s1.44 3.23 1.92 5.63l.94 4.7c.29 1.49.63 2.83 1.01 4.02.38 1.18.83 2.13 1.36 2.83.52.71 1.12 1.23 1.78 1.58s1.63.64 2.9.85l-.41 1.99h-11.22c-.87-2.4-1.64-5.27-2.31-8.59l-1.79-8.59c-.29-1.49-.65-2.74-1.07-3.75-.42-1.02-.92-1.8-1.5-2.35-.58-.56-1.26-.92-2.03-1.1-.77-.17-1.71-.26-2.81-.26h-4.62l-2.84 12.85c-.24 1.05-.41 1.89-.51 2.51-.09.62-.17 1.28-.24 1.97-.07.68-.1 1.3-.1 1.84 0 .84.13 1.49.4 1.96.27.48.68.82 1.22 1.04.54.21 1.47.38 2.8.48l-.45 1.99h-16.66l.45-1.99c1.03-.16 1.8-.42 2.31-.79.51-.36.94-.87 1.3-1.52.35-.64.67-1.43.97-2.37.3-.93.74-2.73 1.34-5.41l6.89-31.2c.59-2.7.89-4.84.89-6.41 0-1.32-.31-2.24-.93-2.75-.63-.52-1.64-.81-3.04-.89Zm-51 0h17.87c3.22 0 5.86.25 7.93.75 2.06.5 3.77 1.27 5.1 2.31a9.55 9.55 0 0 1 3 3.95c.66 1.6 1 3.45 1 5.55 0 4.06-.96 7.57-2.88 10.54q-2.88 4.455-7.8 6.57c-3.29 1.4-7.22 2.1-11.82 2.1-2.75 0-5.05-.05-6.89-.16l-2.59 11.92c-.24 1.1-.41 1.96-.51 2.55-.09.59-.17 1.24-.24 1.93-.07.68-.1 1.3-.1 1.84 0 .84.13 1.49.4 1.96.27.48.68.82 1.22 1.04.54.21 1.47.38 2.8.48l-.45 1.99h-16.66l.45-1.99c1.03-.16 1.8-.42 2.31-.79.51-.36.94-.87 1.3-1.52.35-.64.67-1.43.97-2.37.3-.93.74-2.73 1.34-5.41l6.89-31.2c.59-2.7.89-4.84.89-6.41 0-1.32-.31-2.24-.93-2.75-.63-.52-1.64-.81-3.04-.89Z"/><text x="1135.82" y="1619.17" fill-opacity="0" font-family="Arial,Arial_MSFontService,sans-serif" font-size="55.32">𝑃𝑅</text><path fill-rule="evenodd" d="M1256.79 1615.46c-1.17 0-2.26.26-3.28.78-1.01.51-1.93 1.22-2.77 2.11-.83.89-1.57 1.93-2.22 3.1-.64 1.17-1.19 2.41-1.63 3.72-.45 1.31-.79 2.66-1.02 4.04s-.34 2.7-.34 3.97c0 2.15.3 3.74.91 4.78.6 1.05 1.58 1.57 2.93 1.57q1.02 0 1.95-.36c.63-.24 1.29-.61 1.98-1.13 1.75-1.37 3.24-3.04 4.47-5 1.23-1.97 2.16-4.29 2.77-6.97.28-1.24.5-2.35.66-3.34s.24-1.94.24-2.83c0-1.59-.38-2.73-1.12-3.41-.75-.69-1.92-1.03-3.53-1.03m-.54-2.95c1.57 0 2.96.19 4.16.55 1.2.37 2.3.87 3.29 1.51l2.89-2.06 2.41.63-4.5 19.51c-.26 1.11-.43 2.03-.53 2.75q-.15 1.095-.15 1.92c0 .76.15 1.31.46 1.64.31.34.75.51 1.33.51q.525 0 1.05-.21c.35-.14.73-.36 1.13-.65.41-.3.86-.68 1.34-1.15.49-.47 1.04-1.03 1.66-1.68.32.33.64.67.98.99.34.33.67.65.98.97-.99 1.01-1.89 1.88-2.71 2.61-.81.72-1.6 1.32-2.36 1.78q-1.155.705-2.25 1.02c-.74.21-1.5.31-2.3.31q-2.145 0-3.33-1.38c-.8-.93-1.19-2.19-1.19-3.8 0-.9.13-1.75.41-2.56l-.41-.18c-1.02 1.41-2 2.61-2.95 3.6-.96.99-1.9 1.81-2.83 2.46-.94.64-1.88 1.12-2.83 1.41-.96.3-1.95.45-2.98.45-2.36 0-4.19-.85-5.48-2.55-1.29-1.69-1.94-4.16-1.94-7.4 0-1.92.21-3.78.61-5.55.41-1.78.99-3.45 1.73-5.01.75-1.56 1.63-2.98 2.67-4.26 1.03-1.28 2.16-2.37 3.39-3.29q1.845-1.365 3.93-2.13c1.39-.5 2.83-.76 4.32-.76"/><text x="1239.6" y="1639.59" fill-opacity="0" font-family="Arial,Arial_MSFontService,sans-serif" font-size="30.947">𝑎</text><path fill-rule="evenodd" d="M1946.81 1504.12h37.29l-2.8 12.44h-3.89c-.11-2.35-.31-4.12-.61-5.31s-.65-2.01-1.07-2.45c-.42-.45-.92-.75-1.5-.89-.58-.15-1.41-.23-2.49-.23h-13.22l-4.62 21.24h7.74c1.92 0 3.39-.45 4.4-1.36 1.02-.9 2.04-2.4 3.06-4.48h3.69l-3.65 15.57h-3.44c0-2.17-.14-3.63-.41-4.4s-.67-1.26-1.19-1.46c-.53-.2-1.48-.3-2.86-.3h-8.11l-5.18 23.38h11.99c1.6 0 2.86-.16 3.79-.49.93-.32 1.81-.85 2.64-1.58.82-.73 1.64-1.75 2.47-3.06.82-1.31 1.8-3.08 2.94-5.33h3.93l-3.57 14.03h-35.95l.45-1.99c1.03-.16 1.8-.43 2.31-.79s.95-.87 1.3-1.52.67-1.44.97-2.37.74-2.74 1.34-5.41l6.89-31.21c.59-2.7.89-4.87.89-6.52 0-1.27-.32-2.16-.95-2.66-.64-.5-1.65-.79-3.02-.87Z"/><text x="1936.19" y="1552.52" fill-opacity="0" font-family="Arial,Arial_MSFontService,sans-serif" font-size="55.32">𝐸</text><path fill-rule="evenodd" d="M2273.94 1497.32c7.89 2.08 13.95 6.57 18.18 13.48 4.23 6.9 6.34 15.23 6.34 24.98 0 9.78-2.11 18.11-6.32 24.99-4.22 6.87-10.28 11.35-18.2 13.43l-.97-3.12c6.24-2.08 10.88-6.19 13.92-12.32s4.56-13.93 4.56-23.38c0-9.14-1.51-16.72-4.54-22.76-3.02-6.04-7.71-10.1-14.06-12.18Zm-253.45 0 1.1 3.12c-6.33 2.08-11.01 6.14-14.05 12.18s-4.56 13.62-4.56 22.76c0 9.45 1.52 17.25 4.56 23.38s7.68 10.24 13.92 12.32l-.97 3.12c-7.92-2.08-13.98-6.56-18.2-13.43-4.21-6.88-6.32-15.21-6.32-24.99 0-9.75 2.12-18.08 6.34-24.98 4.23-6.91 10.29-11.4 18.18-13.48m82.6 10.36c-1.43 0-2.94.06-4.53.16l-5.19 23.47h4.78c3.92 0 7.01-.53 9.28-1.58s4.07-2.78 5.39-5.19c1.33-2.4 1.99-5 1.99-7.78 0-1.16-.11-2.19-.33-3.1-.21-.9-.5-1.65-.85-2.25a6.3 6.3 0 0 0-1.34-1.58c-.54-.46-1.21-.86-2.02-1.2-.81-.33-1.75-.58-2.82-.72-1.07-.15-2.52-.23-4.36-.23m-50.27 0c-1.67 0-3.43.04-5.26.12l-5.52 24.56h4.22c3.27 0 5.91-.33 7.92-1.01 2.01-.67 3.66-1.72 4.95-3.14 1.28-1.42 2.27-3.1 2.97-5.05.71-1.94 1.06-4.08 1.06-6.4 0-3.13-.8-5.43-2.39-6.89-1.6-1.46-4.24-2.19-7.95-2.19m34.02-3.56h18.04c2.86 0 5.2.16 7.01.5s3.36.85 4.64 1.52c1.28.68 2.36 1.55 3.22 2.62.87 1.06 1.51 2.27 1.95 3.6.43 1.34.64 2.77.64 4.28 0 4.16-1.26 7.7-3.8 10.62s-6.29 5.13-11.23 6.64v.45c1.3.97 2.34 2.13 3.14 3.48.8 1.36 1.44 3.23 1.93 5.64l.93 4.7c.29 1.49.63 2.82 1.01 4.01s.83 2.14 1.36 2.84 1.12 1.23 1.78 1.58 1.63.63 2.9.85l-.41 1.99h-11.22c-.87-2.41-1.64-5.27-2.31-8.6l-1.79-8.59c-.29-1.48-.65-2.73-1.07-3.75-.42-1.01-.92-1.79-1.5-2.35-.58-.55-1.26-.92-2.03-1.09-.77-.18-1.7-.26-2.81-.26h-4.62l-2.84 12.84c-.24 1.06-.41 1.89-.51 2.52-.09.62-.17 1.27-.24 1.96s-.1 1.3-.1 1.84c0 .84.14 1.5.41 1.97s.67.82 1.21 1.03c.54.22 1.47.38 2.8.49l-.45 1.99h-16.66l.45-1.99c1.03-.16 1.8-.43 2.31-.79s.95-.87 1.3-1.52.67-1.44.97-2.37.74-2.74 1.34-5.41l6.89-31.21c.59-2.7.89-4.83.89-6.4q0-1.98-.93-2.76c-.62-.51-1.64-.81-3.04-.89Zm-51 0h17.88q4.815 0 7.92.75c2.07.5 3.77 1.27 5.11 2.31a9.54 9.54 0 0 1 2.99 3.95c.67 1.59 1 3.44 1 5.55 0 4.05-.96 7.56-2.88 10.54-1.92 2.97-4.52 5.16-7.8 6.56-3.28 1.41-7.22 2.11-11.82 2.11-2.75 0-5.05-.05-6.89-.16l-2.59 11.91c-.24 1.11-.41 1.96-.51 2.56q-.135.885-.24 1.92c-.07.69-.1 1.3-.1 1.84 0 .84.14 1.5.41 1.97s.67.82 1.21 1.03c.54.22 1.47.38 2.8.49l-.45 1.99h-16.66l.45-1.99c1.03-.16 1.8-.43 2.31-.79s.95-.87 1.3-1.52.67-1.44.97-2.37.74-2.74 1.34-5.41l6.89-31.21c.59-2.7.89-4.83.89-6.4q0-1.98-.93-2.76c-.62-.51-1.64-.81-3.04-.89Z"/><text x="2025.22" y="1552.52" fill-opacity="0" font-family="Arial,Arial_MSFontService,sans-serif" font-size="55.32">𝑃𝑅</text><path fill-rule="evenodd" d="M2146.19 1548.82c-1.17 0-2.26.26-3.28.77-1.01.52-1.93 1.22-2.77 2.12-.83.89-1.57 1.92-2.21 3.09-.65 1.18-1.2 2.42-1.64 3.73a25 25 0 0 0-1.02 4.03c-.22 1.38-.34 2.71-.34 3.98 0 2.14.3 3.74.91 4.78s1.58 1.56 2.93 1.56c.68 0 1.33-.11 1.95-.35.63-.24 1.29-.62 1.99-1.14 1.74-1.37 3.23-3.03 4.46-5 1.23-1.96 2.16-4.29 2.77-6.97q.42-1.845.66-3.33c.16-1 .24-1.94.24-2.83 0-1.59-.38-2.73-1.12-3.41-.74-.69-1.92-1.03-3.53-1.03m-.54-2.95c1.57 0 2.96.18 4.16.55s2.3.87 3.29 1.5l2.89-2.05 2.41.62-4.5 19.51c-.25 1.12-.43 2.03-.53 2.76q-.15 1.08-.15 1.92c0 .75.15 1.3.46 1.64s.75.5 1.33.5c.35 0 .71-.06 1.05-.2q.525-.21 1.14-.66c.4-.3.85-.68 1.34-1.15q.72-.69 1.65-1.68c.32.34.64.67.98 1s.67.65.99.97c-1 1.01-1.9 1.88-2.72 2.6-.81.73-1.6 1.32-2.36 1.79-.77.47-1.52.8-2.25 1.01-.74.21-1.5.32-2.3.32-1.43 0-2.54-.47-3.33-1.39-.8-.92-1.19-2.19-1.19-3.8 0-.89.14-1.74.41-2.56l-.41-.18c-1.02 1.41-2 2.61-2.95 3.61-.95.99-1.9 1.81-2.83 2.45-.93.65-1.88 1.12-2.83 1.42s-1.95.45-2.98.45c-2.36 0-4.19-.85-5.48-2.55s-1.94-4.17-1.94-7.4c0-1.93.21-3.78.61-5.56.41-1.77.99-3.44 1.73-5q1.125-2.34 2.67-4.26c1.03-1.28 2.16-2.38 3.39-3.29a15.3 15.3 0 0 1 3.94-2.13c1.39-.51 2.83-.76 4.31-.76"/><text x="2129" y="1572.95" fill-opacity="0" font-family="Arial,Arial_MSFontService,sans-serif" font-size="30.947">𝑎</text><path fill-rule="evenodd" d="M2173.32 1550.03h7.09c.38 1.89.57 3.76.57 5.6 0 1.89-.33 3.62-.98 5.18-.65 1.57-1.68 3.13-3.1 4.68q-2.13 2.34-5.85 5.13l-2.19-2.47q2.07-1.95 3-3.51c.62-1.04 1.06-2.22 1.33-3.54.28-1.33.41-2.99.41-4.99 0-2.05-.09-4.08-.28-6.08"/><text x="2168.86" y="1568.05" fill-opacity="0" font-family="Arial,Arial_MSFontService,sans-serif" font-size="20.588">,</text><path fill-rule="evenodd" d="M2211.67 1504.12h14.47l4.62 39.31 23.63-39.31h12.76l-.44 1.98c-1.03.22-1.77.46-2.21.73-.45.27-.85.68-1.22 1.22-.36.54-.73 1.38-1.09 2.53-.37 1.15-.83 3.02-1.4 5.61l-6.93 31.45c-.35 1.6-.58 2.86-.69 3.79s-.16 1.78-.16 2.53c0 1.22.3 2.08.91 2.58s1.63.8 3.06.91l-.45 1.99h-16.21l.45-1.99c1.03-.16 1.8-.43 2.31-.79s.94-.87 1.3-1.52c.35-.65.67-1.44.97-2.37s.74-2.74 1.34-5.41l5.39-24.44c.75-3.38 1.62-6.74 2.59-10.09h-.57c-.84 1.59-2.73 4.84-5.67 9.73l-18.44 30.43h-4.42l-3.36-26.06c-.49-3.67-1.03-8.62-1.62-14.83h-.81c-.92 6.05-1.95 11.66-3.08 16.82l-4.14 18.72c-.57 2.57-.85 4.68-.85 6.32 0 1.22.3 2.08.91 2.58s1.63.8 3.06.91l-.44 1.99h-14.19l.45-1.99c1.02-.16 1.79-.43 2.31-.79.51-.36.94-.87 1.29-1.52.36-.65.68-1.44.98-2.37.29-.93.74-2.74 1.34-5.41l6.88-31.21c.27-1.16.49-2.27.65-3.32.17-1.05.25-2.12.25-3.2 0-1.27-.32-2.16-.96-2.66-.63-.5-1.64-.79-3.02-.87Z"/><text x="2201.05" y="1552.52" fill-opacity="0" font-family="Arial,Arial_MSFontService,sans-serif" font-size="55.32">𝑀</text><path fill-rule="evenodd" d="M3016.98 1574.33c-1.68 0-3.43.04-5.27.12l-5.51 24.56h4.21c3.27 0 5.91-.34 7.93-1.02 2.01-.67 3.66-1.72 4.94-3.14 1.28-1.41 2.28-3.1 2.98-5.04.7-1.95 1.05-4.08 1.05-6.4 0-3.14-.79-5.44-2.39-6.89-1.59-1.46-4.24-2.19-7.94-2.19m31.18-3.57h16.29l-.44 1.99c-1.03.21-1.77.46-2.21.73-.45.27-.85.67-1.22 1.21-.36.54-.73 1.39-1.09 2.53-.37 1.15-.83 3.02-1.4 5.62l-5.07 22.69c-.35 1.54-.62 3.01-.83 4.4q-.3 2.085-.3 4.32c0 2.94.72 5.17 2.17 6.68 1.44 1.52 3.63 2.27 6.54 2.27 2.76 0 5.06-.56 6.89-1.7 1.84-1.13 3.31-2.77 4.42-4.9 1.11-2.14 2.04-4.91 2.8-8.31l5.63-25.49c.59-2.7.89-4.88.89-6.53 0-1.27-.32-2.15-.95-2.65-.64-.5-1.64-.79-3.02-.87l.45-1.99h15.4l-.45 1.99c-1 .21-1.74.46-2.21.75-.47.28-.89.69-1.25 1.23-.37.54-.73 1.39-1.08 2.56q-.525 1.74-1.38 5.55l-5.27 24.27c-1.05 4.84-2.53 8.69-4.45 11.55-1.92 2.87-4.32 4.93-7.2 6.2-2.87 1.27-6.39 1.91-10.55 1.91-4.68 0-8.26-1.13-10.74-3.38-2.49-2.26-3.73-5.55-3.73-9.87 0-1.52.15-3.25.46-5.21q.465-2.94 1.32-6.63l4.22-18.88c.62-2.79.93-4.96.93-6.53q0-1.815-.93-2.61c-.63-.53-1.65-.83-3.08-.91Zm-48.16 0h17.87q4.83 0 7.92.75c2.07.5 3.77 1.27 5.11 2.31a9.55 9.55 0 0 1 3 3.95q.99 2.4.99 5.55c0 4.06-.96 7.57-2.88 10.54q-2.865 4.455-7.8 6.57c-3.28 1.4-7.22 2.1-11.81 2.1-2.76 0-5.05-.05-6.89-.16l-2.59 11.92c-.25 1.1-.42 1.96-.51 2.55s-.18 1.24-.24 1.93c-.07.68-.1 1.3-.1 1.84 0 .84.13 1.49.4 1.96.27.48.68.82 1.22 1.04.54.21 1.47.38 2.79.48l-.44 1.99h-16.66l.45-1.99c1.02-.16 1.79-.42 2.31-.79.51-.36.94-.87 1.29-1.52.35-.64.68-1.43.98-2.37.29-.93.74-2.73 1.33-5.41l6.89-31.2c.6-2.7.89-4.84.89-6.41 0-1.32-.31-2.24-.93-2.75-.62-.52-1.63-.81-3.04-.89Z"/><text x="2989.38" y="1619.77" fill-opacity="0" font-family="Arial,Arial_MSFontService,sans-serif" font-size="56.009">𝑃𝑈</text><path fill-rule="evenodd" d="M3110.74 1615.46c-1.18 0-2.27.26-3.28.78a9.9 9.9 0 0 0-2.77 2.11c-.84.89-1.57 1.93-2.22 3.1s-1.19 2.41-1.64 3.72c-.44 1.31-.78 2.66-1.01 4.04s-.34 2.7-.34 3.97c0 2.15.3 3.74.91 4.78.6 1.05 1.58 1.57 2.93 1.57q1.005 0 1.95-.36c.63-.24 1.29-.61 1.98-1.13 1.75-1.37 3.24-3.04 4.47-5 1.23-1.97 2.15-4.29 2.77-6.97.28-1.24.49-2.35.65-3.34s.24-1.94.24-2.83c0-1.59-.37-2.73-1.12-3.41-.74-.69-1.92-1.03-3.52-1.03m-.54-2.95c1.57 0 2.95.19 4.15.55 1.21.37 2.3.87 3.3 1.51l2.88-2.06 2.42.63-4.5 19.51c-.26 1.11-.44 2.03-.54 2.75q-.15 1.095-.15 1.92c0 .76.16 1.31.47 1.64.3.34.75.51 1.32.51.36 0 .71-.07 1.06-.21s.72-.36 1.13-.65c.41-.3.85-.68 1.34-1.15q.735-.705 1.65-1.68c.32.33.65.67.99.99.33.33.66.65.98.97-.99 1.01-1.9 1.88-2.71 2.61-.81.72-1.6 1.32-2.37 1.78q-1.14.705-2.25 1.02c-.73.21-1.5.31-2.29.31-1.43 0-2.54-.46-3.34-1.38-.79-.93-1.19-2.19-1.19-3.8 0-.9.14-1.75.42-2.56l-.42-.18c-1.01 1.41-1.99 2.61-2.95 3.6-.95.99-1.89 1.81-2.83 2.46-.93.64-1.87 1.12-2.83 1.41q-1.425.45-2.97.45c-2.37 0-4.19-.85-5.48-2.55-1.3-1.69-1.94-4.16-1.94-7.4 0-1.92.2-3.78.61-5.55.41-1.78.98-3.45 1.73-5.01.74-1.56 1.63-2.98 2.66-4.26 1.04-1.28 2.17-2.37 3.4-3.29q1.845-1.365 3.93-2.13c1.39-.5 2.83-.76 4.32-.76"/><text x="3093.55" y="1639.59" fill-opacity="0" font-family="Arial,Arial_MSFontService,sans-serif" font-size="30.947">𝑎</text><path fill="#f8ccb9" d="M3862 1126h237v308h-237z"/><path fill="#d74514" fill-rule="evenodd" d="M3953.35 1253.96h18.89l3.16 33.84 19.21-33.84h18.85l-.57 2.67c-1.54.44-2.68 1.19-3.4 2.27q-1.095 1.62-2.07 6l-7.38 33.44c-.19.86-.32 1.61-.4 2.25q-.12.945-.12 2.49c0 1.13.26 1.96.79 2.49.52.53 1.38.87 2.57 1.03l-.57 2.68h-20.38l.56-2.68c1.54-.43 2.68-1.18 3.41-2.27.73-1.08 1.42-3.08 2.07-5.99l3.72-17.02c1.25-5.62 2.71-11.28 4.38-16.99h-.81c-1.27 2.33-2.63 4.75-4.09 7.26l-18.24 31.57h-6.57l-2.67-24.36c-.62-5.78-1.03-10.74-1.22-14.87h-.65c-1.08 6.67-2.1 12.21-3.08 16.62l-3.93 17.79c-.19.86-.32 1.61-.4 2.25q-.12.945-.12 2.49c0 1.13.26 1.96.79 2.49.52.53 1.38.87 2.57 1.03l-.57 2.68h-14.87l.57-2.68c1.54-.43 2.67-1.18 3.4-2.27.73-1.08 1.42-3.08 2.07-5.99l7.37-33.44c.36-1.59.53-3.17.53-4.74 0-1.13-.26-1.97-.79-2.49-.53-.53-1.38-.87-2.57-1.04Z"/><text x="3942.21" y="1302.36" fill-opacity="0" font-family="Arial,Arial_MSFontService,sans-serif" font-size="55.32">𝑴</text><path d="M392.5 1275.92h654.82v9.16H392.5Zm650.23-18.34 45.84 22.92-45.84 22.92Zm263.77 18.34h654.19v9.16H1306.5Zm649.61-18.34 45.83 22.92-45.83 22.92Zm283.39 18.34h661.31v9.16H2239.5Zm656.72-18.34 45.84 22.92-45.84 22.92Zm263.28 18.34h661.31v9.16H3159.5Zm656.72-18.34 45.84 22.92-45.84 22.92Zm-2614.137 272.47v-99.302h-9.166v99.302Zm18.334-94.718-22.917-45.834-22.916 45.834Zm1834.666 94.718v-99.302h-9.166v99.302Zm18.334-94.718-22.917-45.834-22.916 45.834Z"/></g></svg>