<svg xmlns="http://www.w3.org/2000/svg" width="2997" height="1797" overflow="hidden"><defs><clipPath id="a"><path d="M36 563h2997v1797H36z"/></clipPath></defs><g clip-path="url(#a)" transform="translate(-36 -563)"><path fill="#d74514" fill-rule="evenodd" d="M1481 744.5c0-100.24 81.26-181.5 181.5-181.5S1844 644.26 1844 744.5 1762.74 926 1662.5 926 1481 844.74 1481 744.5"/><text fill="#fff" font-family="Microsoft YaHei,Microsoft YaHei_MSFontService,sans-serif" font-size="83" font-weight="700" transform="translate(1573.48 774)">KDC</text><path fill="#d74514" fill-rule="evenodd" d="M237 2011.5c0-100.24 81.26-181.5 181.5-181.5S600 1911.26 600 2011.5 518.74 2193 418.5 2193 237 2111.74 237 2011.5"/><text fill="#fff" font-family="Microsoft YaHei,Microsoft YaHei_MSFontService,sans-serif" font-size="83" font-weight="700" transform="translate(387.145 2041)">A</text><path fill="#d74514" fill-rule="evenodd" d="M2670 1998.5c0-100.24 81.26-181.5 181.5-181.5s181.5 81.26 181.5 181.5-81.26 181.5-181.5 181.5-181.5-81.26-181.5-181.5"/><text fill="#fff" font-family="Microsoft YaHei,Microsoft YaHei_MSFontService,sans-serif" font-size="83" font-weight="700" transform="translate(2823.21 2028)">B<tspan x="-2626.7" y="-891" fill="#000" font-weight="400">β‘ </tspan></text><path fill-rule="evenodd" d="M362.337 1085.06c-1.189 0-2.472.04-3.85.13l-10.497 47.94q1.175.12 4.499.12c4.377 0 8.092-.76 11.145-2.29 3.053-1.52 5.687-3.92 7.902-7.17 2.216-3.26 3.851-6.69 4.904-10.3 1.054-3.6 1.581-7.41 1.581-11.4q0-8.475-3.952-12.75c-2.634-2.85-6.545-4.28-11.732-4.28m-15.482-3.52h15.36q6.12 0 9.929.93t7.113 3.36c2.202 1.63 3.857 3.78 4.964 6.47q1.662 4.035 1.662 9.54c0 3.65-.419 7.14-1.256 10.46q-1.257 4.98-3.607 9.18c-1.567 2.79-3.445 5.23-5.633 7.29q-3.283 3.105-6.363 4.77-3.08 1.65-6.89 2.49c-2.54.55-5.498.83-8.875.83h-17.022l.446-1.99c1.027-.16 1.797-.42 2.31-.79.513-.36.946-.87 1.297-1.52q.526-.975.973-2.37c.297-.93.742-2.73 1.337-5.41l6.89-31.2c.594-2.71.891-4.88.891-6.53 0-1.27-.317-2.15-.952-2.65s-1.642-.79-3.02-.88Zm-32 0h16.211l-.446 1.98c-1.026.22-1.763.46-2.208.73s-.845.68-1.196 1.22-.716 1.38-1.094 2.53-.851 3.02-1.419 5.62l-6.93 31.44c-.351 1.6-.581 2.86-.689 3.79-.108.94-.162 1.78-.162 2.54 0 1.21.304 2.07.912 2.57s1.628.8 3.06.91l-.446 1.99h-16.211l.446-1.99c1.027-.16 1.797-.42 2.31-.79.513-.36.946-.87 1.297-1.52q.526-.975.973-2.37c.297-.93.743-2.73 1.337-5.41l6.89-31.2c.594-2.71.891-4.88.891-6.53 0-1.27-.317-2.15-.952-2.65s-1.642-.79-3.02-.88Z"/><text x="304.237" y="1129.94" fill-opacity="0" font-family="Arial,Arial_MSFontService,sans-serif" font-size="55.32">πΌπ·</text><path fill-rule="evenodd" d="M407.943 1121.09c-1.728 2.82-3.44 5.64-5.138 8.47s-3.41 5.67-5.138 8.5h11.467c-.099-1.27-.198-2.51-.297-3.73-.1-1.22-.179-2.51-.239-3.86q-.089-2.025-.164-4.32a159 159 0 0 1-.074-5.06Zm-.119-6.53h4.914l2.711 31.49c.079 1.01.203 1.86.372 2.56.169.69.402 1.27.7 1.73.298.45.67.8 1.117 1.04q.67.36 1.683.51l-.447 1.81h-12.986l.447-1.81c.556-.1 1.047-.23 1.474-.38s.779-.39 1.057-.74.492-.82.641-1.42c.149-.59.223-1.37.223-2.32 0-.36-.01-.77-.03-1.24q-.03-.69-.074-1.47-.045-.78-.119-1.59c-.05-.55-.095-1.08-.134-1.6h-13.344a69 69 0 0 0-1.355 2.09q-.67 1.065-1.221 2.1a12 12 0 0 0-.879 2.04 6.4 6.4 0 0 0-.328 1.99c0 1.45 1.063 2.3 3.187 2.54l-.387 1.81H382.03l.328-1.81c.536-.1 1.017-.26 1.444-.47.427-.2.874-.53 1.34-.98s.973-1.05 1.52-1.82c.546-.76 1.206-1.77 1.98-3.02Z"/><text x="382.03" y="1148.81" fill-opacity="0" font-family="Arial,Arial_MSFontService,sans-serif" font-size="39.138">π΄</text><path fill-rule="evenodd" d="M472.005 1081.54h6.322v63.42h-6.322Zm-14.185 0h6.322v63.42h-6.322Z"/><text x="457.82" y="1137.04" fill-opacity="0" font-family="Arial,Arial_MSFontService,sans-serif" font-size="63.425">β¥</text><path fill-rule="evenodd" d="M588.868 1085.06c-1.189 0-2.472.04-3.85.13l-10.497 47.94q1.176.12 4.499.12c4.377 0 8.092-.76 11.145-2.29 3.053-1.52 5.687-3.92 7.903-7.17 2.215-3.26 3.85-6.69 4.903-10.3 1.054-3.6 1.581-7.41 1.581-11.4q0-8.475-3.951-12.75c-2.635-2.85-6.546-4.28-11.733-4.28m-15.481-3.52h15.359q6.12 0 9.93.93t7.112 3.36c2.202 1.63 3.857 3.78 4.965 6.47q1.66 4.035 1.661 9.54c0 3.65-.418 7.14-1.256 10.46q-1.257 4.98-3.607 9.18c-1.567 2.79-3.445 5.23-5.633 7.29q-3.283 3.105-6.363 4.77-3.08 1.65-6.89 2.49c-2.539.55-5.498.83-8.875.83h-17.022l.446-1.99c1.027-.16 1.797-.42 2.31-.79.514-.36.946-.87 1.297-1.52q.527-.975.973-2.37c.297-.93.743-2.73 1.337-5.41l6.89-31.2c.594-2.71.891-4.88.891-6.53 0-1.27-.317-2.15-.952-2.65s-1.641-.79-3.019-.88Zm-32 0h16.21l-.445 1.98c-1.027.22-1.763.46-2.209.73s-.844.68-1.196 1.22c-.351.54-.716 1.38-1.094 2.53s-.851 3.02-1.418 5.62l-6.93 31.44c-.352 1.6-.581 2.86-.689 3.79-.109.94-.163 1.78-.163 2.54 0 1.21.304 2.07.912 2.57s1.628.8 3.06.91l-.446 1.99h-16.211l.446-1.99c1.027-.16 1.797-.42 2.31-.79.514-.36.946-.87 1.297-1.52q.527-.975.973-2.37c.297-.93.743-2.73 1.337-5.41l6.89-31.2c.594-2.71.891-4.88.891-6.53 0-1.27-.317-2.15-.952-2.65s-1.641-.79-3.019-.88Z"/><text x="530.768" y="1129.94" fill-opacity="0" font-family="Arial,Arial_MSFontService,sans-serif" font-size="55.32">πΌπ·</text><path fill-rule="evenodd" d="m627.049 1135.27-3.395 15.27q.715.03 1.802.06t2.576.03c2.145 0 3.997-.18 5.555-.55 1.559-.36 2.85-.94 3.872-1.72q1.535-1.185 2.264-3.06c.487-1.25.73-2.75.73-4.49 0-.92-.139-1.72-.417-2.42q-.417-1.035-1.385-1.74c-.646-.47-1.47-.81-2.472-1.04s-2.229-.34-3.679-.34Zm8.996-17.1c-.954 0-1.862.01-2.726.04s-1.693.09-2.487.17l-3.068 13.79h4.617c2.164 0 3.996-.21 5.495-.61 1.5-.41 2.716-.99 3.649-1.75a6.63 6.63 0 0 0 2.04-2.72c.427-1.06.641-2.26.641-3.59-.04-.85-.209-1.62-.507-2.29-.297-.68-.769-1.24-1.414-1.69-.646-.44-1.48-.78-2.502-1.01-1.023-.23-2.269-.34-3.738-.34m-14.297-3.1h15.607q3.485 0 5.913.57c1.618.37 2.948.92 3.991 1.63q1.564 1.08 2.263 2.58c.467 1 .7 2.15.7 3.44 0 4.89-3.068 8.33-9.203 10.34q0 .15-.015.24c-.01.05-.015.1-.015.14 1.847.74 3.247 1.75 4.2 3.04q1.43 1.935 1.429 4.47c0 1.91-.352 3.61-1.057 5.11q-1.057 2.25-3.262 3.81c-1.469 1.04-3.355 1.85-5.659 2.41-2.303.57-5.063.85-8.28.85h-13.969l.327-1.81a10 10 0 0 0 1.505-.35c.387-.13.734-.4 1.042-.83q.462-.645.849-1.92c.258-.86.556-2.07.894-3.64l4.884-21.71c.199-.87.348-1.65.447-2.32.099-.68.149-1.23.149-1.67 0-.89-.223-1.53-.67-1.91-.447-.37-1.286-.57-2.517-.59Z"/><text x="614.391" y="1148.87" fill-opacity="0" font-family="Arial,Arial_MSFontService,sans-serif" font-size="38.631">πµ</text><path fill-rule="evenodd" d="M722.552 1081.54h6.323v63.42h-6.323Zm-14.184 0h6.322v63.42h-6.322Z"/><text x="708.368" y="1137.04" fill-opacity="0" font-family="Arial,Arial_MSFontService,sans-serif" font-size="63.425">β¥</text><path fill-rule="evenodd" d="M791.853 1081.54h12.929l10.699 31.57c1.54 4.54 2.729 8.37 3.566 11.51h.446c.216-1.65.709-4.39 1.479-8.23q1.155-5.745 2.128-10.05l2.837-12.76c.594-2.68.891-4.85.891-6.53 0-1.27-.317-2.15-.952-2.65s-1.641-.79-3.019-.88l.446-1.98h14.184l-.446 1.98c-1.026.22-1.763.46-2.208.73s-.845.68-1.196 1.22-.716 1.38-1.094 2.53-.851 3.02-1.419 5.62l-9.524 43.24h-5.511l-11.834-34.77a170 170 0 0 1-3.769-12.45h-.527q-.243 2.07-1.338 7.89a392 392 0 0 1-2.31 11.36l-3.566 16.17q-.85 3.855-.851 6.33c0 1.21.304 2.07.912 2.57s1.628.8 3.06.91l-.446 1.99h-14.185l.446-1.99c1.027-.16 1.797-.42 2.31-.79.513-.36.946-.87 1.297-1.52q.526-.975.973-2.37c.297-.93.743-2.73 1.337-5.41l6.89-31.2c.27-1.17.486-2.27.648-3.33.162-1.05.243-2.12.243-3.2 0-1.27-.317-2.15-.952-2.65s-1.641-.79-3.019-.88Z"/><text x="781.235" y="1129.94" fill-opacity="0" font-family="Arial,Arial_MSFontService,sans-serif" font-size="55.32">π‘</text><path fill-rule="evenodd" d="M850.513 1115.34h1.817a219 219 0 0 0-.149 7.86v22.64c0 .61.02 1.15.06 1.59.04.45.104.83.193 1.13a2.6 2.6 0 0 0 .879 1.36c.238.24.556.42.953.55q.596.195 1.519.33.924.135 2.219.21c.864.05 1.902.08 3.113.1v2.59h-23.62v-2.59c1.172-.04 2.165-.08 2.979-.13a23 23 0 0 0 2.085-.21 10 10 0 0 0 1.385-.3c.347-.11.65-.24.908-.4.278-.18.516-.37.715-.58a2.3 2.3 0 0 0 .477-.79c.119-.32.213-.71.282-1.16.07-.46.105-1.03.105-1.7v-21.36c0-.77-.149-1.32-.447-1.64-.298-.31-.725-.47-1.281-.47-.615 0-1.529.32-2.74.95-1.211.64-2.78 1.58-4.706 2.83-.258-.46-.496-.91-.715-1.37s-.447-.92-.685-1.4c2.462-1.35 4.9-2.69 7.312-4.04 2.413-1.34 4.86-2.67 7.342-4"/><text x="835.859" y="1148.91" fill-opacity="0" font-family="Arial,Arial_MSFontService,sans-serif" font-size="38.363">1</text><text font-family="Microsoft YaHei,Microsoft YaHei_MSFontService,sans-serif" font-size="83" font-weight="400" transform="translate(962.002 1275)">β‘΅</text><path fill-rule="evenodd" d="M1080.35 1219.9h37.28l-2.79 12.44h-3.9c-.1-2.35-.31-4.12-.6-5.31-.3-1.19-.66-2-1.08-2.45a3.05 3.05 0 0 0-1.5-.89c-.58-.15-1.41-.22-2.49-.22h-13.21l-4.62 21.23h7.74c1.92 0 3.38-.45 4.4-1.36q1.515-1.35 3.06-4.47h3.68l-3.64 15.56h-3.45c0-2.16-.13-3.63-.4-4.4s-.67-1.25-1.2-1.46c-.53-.2-1.48-.3-2.86-.3h-8.1l-5.19 23.38h12c1.59 0 2.85-.16 3.79-.48.93-.33 1.81-.85 2.63-1.58.83-.73 1.65-1.75 2.47-3.06.83-1.31 1.81-3.09 2.94-5.33h3.93l-3.56 14.02h-35.95l.44-1.99c1.03-.16 1.8-.42 2.31-.79.52-.36.95-.87 1.3-1.52.35-.64.68-1.44.97-2.37.3-.93.75-2.73 1.34-5.41l6.89-31.2c.6-2.71.89-4.88.89-6.53 0-1.27-.31-2.15-.95-2.65-.63-.5-1.64-.79-3.02-.87Z"/><text x="1069.73" y="1268.3" fill-opacity="0" font-family="Arial,Arial_MSFontService,sans-serif" font-size="55.32">πΈ</text><path fill-rule="evenodd" d="M1123.88 1253.43h12.57l-.33 1.79c-.45.12-.84.22-1.16.3s-.6.2-.85.35c-.25.16-.46.38-.64.64-.18.27-.35.64-.52 1.11-.17.46-.35 1.05-.54 1.75-.18.71-.4 1.58-.64 2.61l-1.93 8.76h.83c.46 0 .88-.03 1.25-.09.38-.06.75-.17 1.12-.32.37-.14.74-.35 1.13-.61.39-.25.83-.58 1.33-.98 2.06-1.61 3.79-3.05 5.18-4.32s2.52-2.39 3.38-3.36c.86-.98 1.48-1.81 1.85-2.49.36-.69.55-1.26.55-1.71 0-.48-.19-.85-.57-1.12s-.99-.41-1.84-.43l.32-1.88h13.56l-.42 1.88c-.46.04-.89.13-1.3.27-.4.14-.88.39-1.41.76-.54.36-1.18.87-1.92 1.51q-1.125.975-2.82 2.52l-11.61 10.49 6.73 14c.51 1.09.96 1.95 1.34 2.59.37.63.76 1.14 1.16 1.52.4.37.85.65 1.35.81.51.17 1.14.33 1.9.47l-.48 1.81h-12.27l.41-1.81c.56-.04.98-.17 1.26-.38.27-.2.41-.47.41-.79a10 10 0 0 0-.09-.68c-.04-.24-.11-.5-.21-.79-.09-.29-.22-.63-.38-1.01-.16-.39-.36-.85-.6-1.39l-3.99-8.52c-.34-.75-.64-1.35-.91-1.78-.27-.44-.54-.78-.83-1.02a2.3 2.3 0 0 0-.98-.46c-.37-.07-.83-.1-1.39-.1h-1.64c-.16.81-.35 1.69-.56 2.62-.22.93-.44 1.88-.66 2.84-.22.97-.43 1.92-.62 2.85-.2.93-.38 1.8-.54 2.6-.16.81-.29 1.52-.39 2.15-.1.62-.15 1.11-.15 1.44 0 .84.25 1.43.73 1.78.49.34 1.32.56 2.49.64l-.48 1.81h-12.54l.33-1.81c.62-.1 1.12-.22 1.51-.35.38-.13.73-.4 1.04-.83s.59-1.07.85-1.92c.26-.86.55-2.07.89-3.64l4.89-21.71c.19-.87.34-1.65.44-2.32.1-.68.15-1.25.15-1.73 0-.87-.23-1.49-.68-1.86-.46-.37-1.29-.56-2.51-.58Z"/><text x="1116.52" y="1287.23" fill-opacity="0" font-family="Arial,Arial_MSFontService,sans-serif" font-size="38.631">πΎ</text><path fill-rule="evenodd" d="m1182.25 1276.32-8.96 14.26h10.08l-.44-5.81c-.05-.82-.11-2.02-.17-3.63-.07-1.6-.1-3.21-.1-4.82Zm-.35-5.88h4.72l2.73 27.19c.16 1.58.5 2.75 1.01 3.51.52.75 1.39 1.21 2.63 1.38l-.39 1.8h-11.94l.39-1.8c.7-.05 1.26-.2 1.68-.44.43-.25.74-.59.96-1.03.21-.44.31-1.23.31-2.37q0-.75-.09-2.22l-.3-2.9h-12.01l-1.56 2.46c-.34.57-.72 1.28-1.12 2.11-.41.84-.62 1.63-.62 2.36 0 1.27 1.01 1.95 3.01 2.03l-.39 1.8h-12.19l.42-1.8q1.005-.12 1.86-.72c.56-.4 1.12-.94 1.67-1.6.54-.67 1.25-1.67 2.11-3.01Z"/><text x="1158.73" y="1300.09" fill-opacity="0" font-family="Arial,Arial_MSFontService,sans-serif" font-size="33.887">π΄</text><path fill-rule="evenodd" d="M2571.18 1201.4h18.48v100.27h-18.48v-3.33h10.94v-93.62h-10.94Zm-1361.26 0h18.48v3.32h-10.94v93.62h10.94v3.33h-18.48Zm33.04 18.5h16.21l-.44 1.99c-1.03.21-1.76.45-2.21.72-.45.28-.84.68-1.2 1.22-.35.54-.71 1.39-1.09 2.53-.38 1.15-.85 3.02-1.42 5.62l-2.88 12.92h1.34c1.14 0 2.17-.18 3.1-.56s2.02-1.07 3.26-2.07c1.25-1 3.23-2.84 5.94-5.51 2.72-2.68 4.65-4.71 5.8-6.1s1.98-2.59 2.51-3.61c.53-1.01.79-1.94.79-2.77 0-.68-.27-1.23-.81-1.64q-.81-.63-2.31-.75l.45-1.99h17.38l-.44 1.99c-1.09.16-2.31.72-3.67 1.68-1.37.96-3.45 2.83-6.26 5.61l-15.73 15.32 8.63 20.75c.9 2.13 1.63 3.67 2.21 4.62s1.28 1.7 2.09 2.25q1.215.825 3 1.11l-.45 1.99h-15.64l.45-1.99c1.45-.13 2.18-.78 2.18-1.94 0-.73-.14-1.56-.44-2.49-.3-.94-.65-1.9-1.06-2.9l-5.26-12.89c-.63-1.54-1.17-2.62-1.63-3.24-.45-.62-.94-1.06-1.45-1.3-.52-.24-1.31-.36-2.4-.36h-2.26l-3.37 15.32c-.35 1.62-.58 2.89-.69 3.83-.11.93-.16 1.76-.16 2.49 0 1.21.3 2.07.91 2.57s1.63.81 3.06.91l-.44 1.99h-16.21l.44-1.99c1.03-.16 1.8-.42 2.31-.79.51-.36.95-.87 1.3-1.52.35-.64.67-1.44.97-2.37s.74-2.73 1.34-5.41l6.89-31.2c.59-2.71.89-4.88.89-6.53 0-1.27-.32-2.15-.95-2.65-.64-.5-1.64-.79-3.02-.87Z"/><text x="1232.35" y="1268.3" fill-opacity="0" font-family="Arial,Arial_MSFontService,sans-serif" font-size="55.32">πΎ</text><path fill-rule="evenodd" d="M1301.03 1252.87c1.89 0 3.7.14 5.44.43q2.61.435 5.46 1.38l-1.69 7.57h-3.25c-.06-1.11-.23-2.07-.52-2.88-.29-.8-.69-1.46-1.21-1.96-.51-.51-1.17-.89-1.96-1.13-.8-.25-1.74-.38-2.83-.38-1.17 0-2.24.16-3.19.48s-1.77.77-2.44 1.36c-.68.58-1.2 1.29-1.57 2.11-.36.82-.55 1.72-.55 2.7 0 .73.09 1.41.27 2.02.18.62.49 1.21.92 1.79.44.57 1.04 1.16 1.81 1.76.76.59 1.73 1.25 2.9 1.96 1.43.9 2.66 1.74 3.68 2.53 1.02.8 1.86 1.62 2.5 2.48.65.85 1.12 1.76 1.42 2.72.29.96.44 2.04.44 3.23 0 1.73-.34 3.31-1.03 4.74q-1.02 2.145-2.91 3.69t-4.53 2.4c-1.76.57-3.72.85-5.88.85-1.83 0-3.8-.16-5.9-.46-2.11-.31-4.18-.76-6.23-1.36l1.76-8.04h3.16c.06 2.38.69 4.11 1.9 5.18 1.22 1.07 3.08 1.61 5.6 1.61 1.29 0 2.46-.17 3.49-.51 1.03-.33 1.9-.82 2.62-1.46.71-.63 1.26-1.41 1.64-2.32s.56-1.93.56-3.07c0-.79-.1-1.51-.29-2.16q-.3-.96-1.05-1.92c-.49-.63-1.16-1.28-2.01-1.93-.84-.66-1.89-1.37-3.14-2.15-1.25-.77-2.34-1.54-3.26-2.31-.92-.76-1.69-1.55-2.31-2.38-.61-.82-1.08-1.68-1.38-2.58-.31-.89-.47-1.84-.47-2.85 0-1.67.33-3.19.99-4.55.65-1.36 1.59-2.53 2.81-3.51q1.83-1.47 4.44-2.28c1.74-.54 3.67-.8 5.79-.8"/><text x="1280.18" y="1287.74" fill-opacity="0" font-family="Arial,Arial_MSFontService,sans-serif" font-size="39.852">π‘†</text><path fill-rule="evenodd" d="M1381.21 1219.9h6.32v63.42h-6.32Zm-14.19 0h6.32v63.42h-6.32Z"/><text x="1367.02" y="1275.4" fill-opacity="0" font-family="Arial,Arial_MSFontService,sans-serif" font-size="63.425">β¥</text><path fill="#d74514" fill-rule="evenodd" d="M1498.07 1223.43c-1.19 0-2.47.04-3.85.12l-10.5 47.94q1.185.12 4.5.12c4.38 0 8.09-.76 11.15-2.29 3.05-1.52 5.68-3.91 7.9-7.17s3.85-6.69 4.9-10.29c1.06-3.61 1.58-7.41 1.58-11.41 0-5.65-1.31-9.9-3.95-12.75-2.63-2.85-6.54-4.27-11.73-4.27m-15.48-3.53h15.36q6.12 0 9.93.93c2.54.62 4.91 1.74 7.11 3.37 2.2 1.62 3.86 3.77 4.96 6.46 1.11 2.69 1.67 5.87 1.67 9.54 0 3.65-.42 7.14-1.26 10.46s-2.04 6.38-3.61 9.18c-1.56 2.8-3.44 5.23-5.63 7.29q-3.285 3.105-6.36 4.77c-2.06 1.1-4.35 1.93-6.89 2.49-2.54.55-5.5.83-8.88.83h-17.02l.45-1.99c1.02-.16 1.79-.42 2.31-.79.51-.36.94-.87 1.29-1.52.35-.64.68-1.44.98-2.37.29-.93.74-2.73 1.33-5.41l6.89-31.2c.6-2.71.89-4.88.89-6.53 0-1.27-.31-2.15-.95-2.65-.63-.5-1.64-.79-3.02-.87Zm-32 0h16.21l-.45 1.99c-1.02.21-1.76.45-2.21.72-.44.28-.84.68-1.19 1.22s-.72 1.39-1.09 2.53c-.38 1.15-.86 3.02-1.42 5.62l-6.93 31.45c-.35 1.59-.58 2.85-.69 3.79-.11.93-.16 1.77-.16 2.53 0 1.21.3 2.07.91 2.57s1.63.81 3.06.91l-.45 1.99h-16.21l.45-1.99c1.02-.16 1.79-.42 2.31-.79.51-.36.94-.87 1.29-1.52.35-.64.68-1.44.98-2.37.29-.93.74-2.73 1.33-5.41l6.89-31.2c.6-2.71.89-4.88.89-6.53 0-1.27-.31-2.15-.95-2.65-.63-.5-1.64-.79-3.02-.87Z"/><text x="1439.97" y="1268.3" fill-opacity="0" font-family="Arial,Arial_MSFontService,sans-serif" font-size="55.32">πΌπ·</text><path fill="#d74514" fill-rule="evenodd" d="M1543.68 1259.45c-1.73 2.82-3.44 5.64-5.14 8.47s-3.41 5.67-5.14 8.51h11.47c-.1-1.27-.2-2.52-.3-3.74s-.18-2.51-.24-3.86-.11-2.79-.16-4.32-.08-3.21-.08-5.06Zm-.12-6.52h4.91l2.71 31.48c.08 1.01.21 1.86.37 2.56.17.69.41 1.27.7 1.73.3.45.67.8 1.12 1.04q.675.36 1.68.51l-.44 1.81h-12.99l.45-1.81c.55-.1 1.05-.23 1.47-.38.43-.15.78-.39 1.06-.74s.49-.82.64-1.42c.15-.59.22-1.37.22-2.32q0-.54-.03-1.23c-.02-.47-.04-.96-.07-1.48q-.045-.78-.12-1.59c-.05-.55-.09-1.08-.13-1.6h-13.35c-.45.68-.91 1.37-1.35 2.09-.45.71-.86 1.41-1.22 2.1-.37.68-.66 1.36-.88 2.04-.22.67-.33 1.34-.33 1.99 0 1.45 1.06 2.3 3.19 2.54l-.39 1.81h-13.02l.33-1.81c.54-.1 1.02-.26 1.45-.47.42-.2.87-.53 1.34-.98.46-.45.97-1.05 1.51-1.82.55-.76 1.21-1.77 1.99-3.02Z"/><text x="1517.76" y="1287.17" fill-opacity="0" font-family="Arial,Arial_MSFontService,sans-serif" font-size="39.138">π΄</text><path fill="#d74514" fill-rule="evenodd" d="M1607.74 1219.9h6.32v63.42h-6.32Zm-14.19 0h6.33v63.42h-6.33Z"/><text x="1593.55" y="1275.4" fill-opacity="0" font-family="Arial,Arial_MSFontService,sans-serif" font-size="63.425">β¥</text><path fill="#d74514" fill-rule="evenodd" d="M1724.6 1223.43c-1.19 0-2.47.04-3.85.12l-10.5 47.94q1.185.12 4.5.12c4.38 0 8.09-.76 11.15-2.29 3.05-1.52 5.69-3.91 7.9-7.17 2.22-3.26 3.85-6.69 4.9-10.29 1.06-3.61 1.59-7.41 1.59-11.41q0-8.475-3.96-12.75c-2.63-2.85-6.54-4.27-11.73-4.27m-15.48-3.53h15.36q6.12 0 9.93.93c2.54.62 4.91 1.74 7.11 3.37 2.2 1.62 3.86 3.77 4.97 6.46 1.1 2.69 1.66 5.87 1.66 9.54 0 3.65-.42 7.14-1.26 10.46s-2.04 6.38-3.61 9.18c-1.56 2.8-3.44 5.23-5.63 7.29q-3.285 3.105-6.36 4.77c-2.06 1.1-4.35 1.93-6.89 2.49-2.54.55-5.5.83-8.88.83h-17.02l.45-1.99c1.02-.16 1.79-.42 2.31-.79.51-.36.94-.87 1.29-1.52.36-.64.68-1.44.98-2.37.29-.93.74-2.73 1.33-5.41l6.89-31.2c.6-2.71.9-4.88.9-6.53 0-1.27-.32-2.15-.96-2.65-.63-.5-1.64-.79-3.02-.87Zm-32 0h16.21l-.45 1.99c-1.02.21-1.76.45-2.2.72-.45.28-.85.68-1.2 1.22s-.72 1.39-1.09 2.53c-.38 1.15-.85 3.02-1.42 5.62l-6.93 31.45c-.35 1.59-.58 2.85-.69 3.79-.11.93-.16 1.77-.16 2.53 0 1.21.3 2.07.91 2.57s1.63.81 3.06.91l-.45 1.99h-16.21l.45-1.99c1.02-.16 1.79-.42 2.31-.79.51-.36.94-.87 1.29-1.52.36-.64.68-1.44.98-2.37.29-.93.74-2.73 1.33-5.41l6.89-31.2c.6-2.71.9-4.88.9-6.53 0-1.27-.32-2.15-.96-2.65-.63-.5-1.64-.79-3.02-.87Z"/><text x="1666.5" y="1268.3" fill-opacity="0" font-family="Arial,Arial_MSFontService,sans-serif" font-size="55.32">πΌπ·</text><path fill="#d74514" fill-rule="evenodd" d="m1762.78 1273.63-3.39 15.28q.705.03 1.8.06 1.08.03 2.58.03c2.14 0 3.99-.19 5.55-.56 1.56-.36 2.85-.94 3.87-1.72 1.03-.79 1.78-1.81 2.27-3.06.48-1.25.73-2.75.73-4.49 0-.92-.14-1.72-.42-2.42-.28-.69-.74-1.27-1.39-1.74-.64-.47-1.47-.81-2.47-1.04s-2.23-.34-3.68-.34Zm9-17.1c-.96 0-1.86.01-2.73.04-.86.03-1.69.09-2.48.17l-3.07 13.79h4.61c2.17 0 4-.21 5.5-.61 1.5-.41 2.71-.99 3.65-1.74q1.395-1.14 2.04-2.73c.43-1.06.64-2.26.64-3.59-.04-.85-.21-1.62-.51-2.29a4.03 4.03 0 0 0-1.41-1.69c-.65-.44-1.48-.78-2.5-1.01-1.03-.23-2.27-.34-3.74-.34m-14.3-3.1h15.61q3.48 0 5.91.57c1.62.38 2.95.92 3.99 1.64 1.04.71 1.8 1.57 2.27 2.57.46 1.01.7 2.15.7 3.44 0 4.89-3.07 8.33-9.21 10.34 0 .1 0 .18-.01.24s-.02.11-.02.15q2.775 1.095 4.2 3.03c.95 1.29 1.43 2.78 1.43 4.47 0 1.91-.35 3.61-1.06 5.11-.7 1.5-1.79 2.77-3.26 3.81s-3.35 1.85-5.66 2.41c-2.3.57-5.06.85-8.28.85h-13.97l.33-1.81c.62-.1 1.12-.22 1.51-.35.38-.13.73-.4 1.04-.83s.59-1.07.85-1.92c.26-.86.55-2.07.89-3.64l4.89-21.71c.19-.87.34-1.65.44-2.32.1-.68.15-1.23.15-1.67 0-.89-.22-1.53-.67-1.91-.45-.37-1.28-.57-2.52-.59Z"/><text x="1750.12" y="1287.23" fill-opacity="0" font-family="Arial,Arial_MSFontService,sans-serif" font-size="38.631">πµ</text><path fill="#d74514" fill-rule="evenodd" d="M1858.29 1219.9h6.32v63.42h-6.32Zm-14.19 0h6.32v63.42h-6.32Z"/><text x="1844.1" y="1275.4" fill-opacity="0" font-family="Arial,Arial_MSFontService,sans-serif" font-size="63.425">β¥</text><path fill="#d74514" fill-rule="evenodd" d="M1927.59 1219.9h12.92l10.7 31.57c1.54 4.54 2.73 8.38 3.57 11.51h.45c.21-1.65.71-4.39 1.48-8.23.77-3.83 1.47-7.18 2.12-10.05l2.84-12.76c.59-2.68.89-4.85.89-6.53 0-1.27-.32-2.15-.95-2.65-.64-.5-1.64-.79-3.02-.87l.45-1.99h14.18l-.45 1.99c-1.02.21-1.76.45-2.2.72-.45.28-.85.68-1.2 1.22s-.72 1.39-1.09 2.53c-.38 1.15-.86 3.02-1.42 5.62l-9.53 43.24h-5.51l-11.83-34.77c-1.43-4.16-2.69-8.31-3.77-12.44h-.53c-.16 1.37-.61 4-1.34 7.88q-1.08 5.805-2.31 11.37l-3.56 16.17c-.57 2.56-.85 4.67-.85 6.32 0 1.21.3 2.07.91 2.57s1.63.81 3.06.91l-.45 1.99h-14.18l.44-1.99c1.03-.16 1.8-.42 2.31-.79.52-.36.95-.87 1.3-1.52.35-.64.68-1.44.97-2.37.3-.93.75-2.73 1.34-5.41l6.89-31.2c.27-1.17.49-2.27.65-3.33.16-1.05.24-2.12.24-3.2 0-1.27-.32-2.15-.95-2.65s-1.64-.79-3.02-.87Z"/><text x="1916.97" y="1268.3" fill-opacity="0" font-family="Arial,Arial_MSFontService,sans-serif" font-size="55.32">π‘</text><path fill="#d74514" fill-rule="evenodd" d="M1986.25 1253.7h1.81c-.04 1.09-.07 2.07-.09 2.93-.02.87-.03 1.71-.04 2.52s-.02 1.62-.02 2.41v22.64q0 .93.06 1.59c.04.45.11.83.2 1.14.09.3.21.57.36.78.14.22.32.41.52.57.23.24.55.42.95.55s.9.24 1.52.33q.915.135 2.22.21c.86.05 1.9.08 3.11.1v2.59h-23.62v-2.59c1.17-.04 2.16-.08 2.98-.13.81-.05 1.51-.12 2.08-.21a10 10 0 0 0 1.39-.3c.35-.11.65-.24.91-.4.28-.18.51-.37.71-.58s.36-.47.48-.79.21-.71.28-1.16c.07-.46.11-1.02.11-1.7v-21.36c0-.77-.15-1.32-.45-1.63-.3-.32-.73-.48-1.28-.48-.62 0-1.53.32-2.74.95-1.21.64-2.78 1.58-4.71 2.83-.26-.45-.49-.91-.71-1.37-.22-.45-.45-.92-.69-1.4 2.46-1.35 4.9-2.69 7.31-4.03 2.42-1.34 4.86-2.68 7.35-4.01"/><text x="1971.59" y="1287.27" fill-opacity="0" font-family="Arial,Arial_MSFontService,sans-serif" font-size="38.363">1</text><path fill-rule="evenodd" d="M2068.94 1219.9h6.32v63.42h-6.32Zm-14.19 0h6.32v63.42h-6.32Z"/><text x="2054.75" y="1275.4" fill-opacity="0" font-family="Arial,Arial_MSFontService,sans-serif" font-size="63.425">β¥</text><path fill-rule="evenodd" d="M2138.32 1219.9h37.28l-2.79 12.44h-3.89c-.11-2.35-.32-4.12-.61-5.31-.3-1.19-.66-2-1.08-2.45-.41-.45-.91-.74-1.5-.89-.58-.15-1.41-.22-2.49-.22h-13.21l-4.62 21.23h7.74c1.92 0 3.38-.45 4.4-1.36q1.515-1.35 3.06-4.47h3.69l-3.65 15.56h-3.45c0-2.16-.13-3.63-.4-4.4s-.67-1.25-1.2-1.46c-.52-.2-1.48-.3-2.85-.3h-8.11l-5.19 23.38h12c1.59 0 2.86-.16 3.79-.48.93-.33 1.81-.85 2.63-1.58.83-.73 1.65-1.75 2.47-3.06.83-1.31 1.81-3.09 2.94-5.33h3.93l-3.56 14.02h-35.95l.45-1.99c1.02-.16 1.79-.42 2.31-.79.51-.36.94-.87 1.29-1.52.35-.64.68-1.44.97-2.37.3-.93.75-2.73 1.34-5.41l6.89-31.2c.6-2.71.89-4.88.89-6.53 0-1.27-.31-2.15-.95-2.65-.63-.5-1.64-.79-3.02-.87Z"/><text x="2127.7" y="1268.3" fill-opacity="0" font-family="Arial,Arial_MSFontService,sans-serif" font-size="55.32">πΈ</text><path fill-rule="evenodd" d="M2181.85 1253.43h12.57l-.33 1.79c-.45.12-.84.22-1.16.3s-.6.2-.85.35c-.25.16-.46.38-.64.64-.18.27-.35.64-.52 1.11-.17.46-.35 1.05-.53 1.75-.19.71-.41 1.58-.65 2.61l-1.93 8.76h.83c.46 0 .88-.03 1.25-.09.38-.06.75-.17 1.12-.32.37-.14.75-.35 1.13-.61.39-.25.83-.58 1.33-.98 2.06-1.61 3.79-3.05 5.18-4.32s2.52-2.39 3.38-3.36c.87-.98 1.48-1.81 1.85-2.49.37-.69.55-1.26.55-1.71 0-.48-.19-.85-.57-1.12-.37-.27-.99-.41-1.84-.43l.32-1.88h13.56l-.42 1.88c-.46.04-.89.13-1.3.27-.4.14-.88.39-1.41.76-.54.36-1.18.87-1.92 1.51q-1.125.975-2.82 2.52l-11.61 10.49 6.73 14c.51 1.09.96 1.95 1.34 2.59.38.63.76 1.14 1.16 1.52.4.37.85.65 1.36.81.5.17 1.13.33 1.89.47l-.48 1.81h-12.27l.42-1.81c.55-.04.97-.17 1.25-.38.27-.2.41-.47.41-.79a10 10 0 0 0-.09-.68c-.04-.24-.1-.5-.2-.79s-.23-.63-.39-1.01c-.16-.39-.36-.85-.6-1.39l-3.99-8.52c-.34-.75-.64-1.35-.91-1.78-.26-.44-.54-.78-.83-1.02a2.3 2.3 0 0 0-.98-.46c-.37-.07-.83-.1-1.39-.1h-1.64c-.16.81-.34 1.69-.56 2.62s-.44 1.88-.66 2.84c-.22.97-.43 1.92-.62 2.85-.2.93-.38 1.8-.54 2.6-.16.81-.29 1.52-.39 2.15-.1.62-.15 1.11-.15 1.44 0 .84.25 1.43.73 1.78.49.34 1.32.56 2.49.64l-.48 1.81h-12.54l.33-1.81c.62-.1 1.12-.22 1.51-.35.38-.13.73-.4 1.04-.83s.59-1.07.85-1.92c.26-.86.55-2.07.89-3.64l4.89-21.71c.19-.87.34-1.65.44-2.32.1-.68.15-1.25.15-1.73 0-.87-.23-1.49-.68-1.86-.46-.37-1.29-.56-2.5-.58Z"/><text x="2174.49" y="1287.23" fill-opacity="0" font-family="Arial,Arial_MSFontService,sans-serif" font-size="38.631">πΎ</text><path fill-rule="evenodd" d="m2229.45 1288.55-2.76 12.65c.6.08 1.88.12 3.83.12 2.38 0 4.19-.16 5.45-.48 1.25-.31 2.3-.81 3.15-1.47.84-.67 1.47-1.48 1.87-2.43.39-.95.59-2.14.59-3.55q0-1.635-.72-2.7c-.48-.71-1.2-1.24-2.16-1.6s-2.37-.54-4.25-.54Zm8.13-14.6c-1.79 0-3.41.08-4.86.22l-2.59 11.38h4.45c2.8 0 4.85-.29 6.16-.87s2.31-1.39 2.99-2.45c.69-1.06 1.03-2.3 1.03-3.71 0-1.06-.26-1.92-.78-2.59s-1.28-1.16-2.27-1.49c-1-.32-2.37-.49-4.13-.49m-13.45-2.95h14.57c2.12 0 3.92.17 5.41.5s2.69.82 3.61 1.48c.92.65 1.6 1.39 2.03 2.22s.65 1.83.65 3c0 2.12-.65 3.88-1.93 5.3-1.29 1.41-3.27 2.58-5.93 3.49v.39c3.23 1.29 4.85 3.48 4.85 6.57 0 3.37-1.38 5.94-4.16 7.71-2.77 1.78-6.89 2.66-12.34 2.66h-12.99l.42-1.8c.84-.13 1.45-.34 1.83-.64.37-.29.69-.77.96-1.43s.61-1.86 1.02-3.62l4.12-18.65c.31-1.45.47-2.53.47-3.25 0-.51-.08-.9-.24-1.19-.15-.28-.45-.5-.89-.67-.44-.16-1.06-.25-1.88-.27Z"/><text x="2217.9" y="1300.16" fill-opacity="0" font-family="Arial,Arial_MSFontService,sans-serif" font-size="33.325">πµ</text><path fill-rule="evenodd" d="M2537.75 1213.11q11.835 3.12 18.18 13.47c4.23 6.9 6.34 15.23 6.34 24.99 0 9.78-2.11 18.1-6.32 24.98-4.22 6.88-10.28 11.36-18.2 13.44l-.97-3.13c6.24-2.08 10.88-6.18 13.92-12.32 3.04-6.13 4.56-13.92 4.56-23.38 0-9.13-1.51-16.72-4.54-22.76-3.03-6.03-7.71-10.09-14.06-12.17Zm-246.71 0 1.09 3.12c-6.32 2.08-11 6.14-14.04 12.17-3.04 6.04-4.56 13.63-4.56 22.76 0 9.46 1.52 17.25 4.56 23.38 3.04 6.14 7.68 10.24 13.92 12.32l-.97 3.13c-7.92-2.08-13.99-6.56-18.2-13.44-4.22-6.88-6.32-15.2-6.32-24.98 0-9.76 2.11-18.09 6.34-24.99q6.345-10.35 18.18-13.47m15.35 6.79h16.21l-.45 1.99c-1.02.21-1.76.45-2.21.72-.44.28-.84.68-1.19 1.22s-.72 1.39-1.09 2.53c-.38 1.15-.86 3.02-1.42 5.62l-2.88 12.92h1.34c1.13 0 2.16-.18 3.1-.56.93-.38 2.02-1.07 3.26-2.07s3.22-2.84 5.94-5.51c2.71-2.68 4.64-4.71 5.79-6.1s1.99-2.59 2.51-3.61c.53-1.01.79-1.94.79-2.77 0-.68-.27-1.23-.81-1.64q-.81-.63-2.31-.75l.45-1.99h17.39l-.45 1.99c-1.08.16-2.3.72-3.67 1.68-1.36.96-3.45 2.83-6.26 5.61l-15.72 15.32 8.63 20.75c.89 2.13 1.63 3.67 2.21 4.62s1.27 1.7 2.09 2.25c.81.55 1.81.92 2.99 1.11l-.44 1.99h-15.65l.45-1.99c1.46-.13 2.19-.78 2.19-1.94q0-1.095-.45-2.49c-.29-.94-.65-1.9-1.05-2.9l-5.27-12.89q-.93-2.31-1.62-3.24c-.46-.62-.95-1.06-1.46-1.3s-1.31-.36-2.39-.36h-2.27l-3.36 15.32c-.35 1.62-.58 2.89-.69 3.83-.11.93-.16 1.76-.16 2.49 0 1.21.3 2.07.91 2.57s1.63.81 3.06.91l-.45 1.99h-16.21l.45-1.99c1.02-.16 1.79-.42 2.31-.79.51-.36.94-.87 1.29-1.52.35-.64.68-1.44.98-2.37.29-.93.74-2.73 1.33-5.41l6.89-31.2c.6-2.71.89-4.88.89-6.53 0-1.27-.31-2.15-.95-2.65-.63-.5-1.64-.79-3.02-.87Z"/><text x="2295.77" y="1268.3" fill-opacity="0" font-family="Arial,Arial_MSFontService,sans-serif" font-size="55.32">πΎ</text><path fill-rule="evenodd" d="M2364.46 1252.87c1.88 0 3.7.14 5.43.43 1.74.29 3.56.75 5.47 1.38l-1.7 7.57h-3.24c-.06-1.11-.24-2.07-.53-2.88-.28-.8-.69-1.46-1.2-1.96-.52-.51-1.17-.89-1.97-1.13-.79-.25-1.74-.38-2.83-.38q-1.755 0-3.18.48c-.96.32-1.77.77-2.45 1.36a6.05 6.05 0 0 0-1.56 2.11c-.37.82-.55 1.72-.55 2.7 0 .73.09 1.41.27 2.02.17.62.48 1.21.92 1.79.44.57 1.04 1.16 1.8 1.76.77.59 1.73 1.25 2.91 1.96 1.43.9 2.65 1.74 3.67 2.53 1.03.8 1.86 1.62 2.51 2.48.64.85 1.11 1.76 1.41 2.72s.45 2.04.45 3.23c0 1.73-.35 3.31-1.03 4.74-.69 1.43-1.66 2.66-2.92 3.69q-1.89 1.545-4.53 2.4c-1.75.57-3.71.85-5.88.85-1.83 0-3.79-.16-5.9-.46-2.1-.31-4.18-.76-6.22-1.36l1.76-8.04h3.15c.06 2.38.7 4.11 1.91 5.18s3.08 1.61 5.6 1.61q1.935 0 3.48-.51c1.04-.33 1.91-.82 2.62-1.46.72-.63 1.27-1.41 1.64-2.32.38-.91.57-1.93.57-3.07q0-1.185-.3-2.16c-.2-.64-.55-1.28-1.04-1.92-.5-.63-1.17-1.28-2.01-1.93-.85-.66-1.89-1.37-3.14-2.15-1.26-.77-2.34-1.54-3.27-2.31-.92-.76-1.69-1.55-2.3-2.38a9.3 9.3 0 0 1-1.39-2.58c-.31-.89-.46-1.84-.46-2.85 0-1.67.33-3.19.98-4.55q.99-2.04 2.82-3.51c1.22-.98 2.7-1.74 4.43-2.28 1.74-.54 3.67-.8 5.8-.8"/><text x="2343.61" y="1287.74" fill-opacity="0" font-family="Arial,Arial_MSFontService,sans-serif" font-size="39.852">π‘†</text><path fill-rule="evenodd" d="M2385.63 1265.82h7.09c.38 1.89.57 3.75.57 5.59 0 1.89-.32 3.62-.97 5.19-.65 1.56-1.68 3.12-3.1 4.68-1.42 1.55-3.37 3.26-5.86 5.12l-2.19-2.47c1.38-1.29 2.38-2.46 3-3.5s1.07-2.23 1.34-3.55.4-2.98.4-4.98c0-2.06-.09-4.08-.28-6.08"/><text x="2381.17" y="1283.83" fill-opacity="0" font-family="Arial,Arial_MSFontService,sans-serif" font-size="20.588">,</text><path fill-rule="evenodd" d="M2471.55 1223.43c-1.19 0-2.48.04-3.85.12l-10.5 47.94q1.17.12 4.5.12c4.38 0 8.09-.76 11.14-2.29 3.06-1.52 5.69-3.91 7.91-7.17 2.21-3.26 3.85-6.69 4.9-10.29 1.05-3.61 1.58-7.41 1.58-11.41 0-5.65-1.32-9.9-3.95-12.75s-6.55-4.27-11.73-4.27m-15.48-3.53h15.36c4.08 0 7.38.31 9.92.93s4.92 1.74 7.12 3.37c2.2 1.62 3.85 3.77 4.96 6.46s1.66 5.87 1.66 9.54c0 3.65-.42 7.14-1.25 10.46-.84 3.32-2.04 6.38-3.61 9.18s-3.44 5.23-5.63 7.29c-2.19 2.07-4.31 3.66-6.37 4.77-2.05 1.1-4.35 1.93-6.89 2.49-2.54.55-5.49.83-8.87.83h-17.02l.44-1.99c1.03-.16 1.8-.42 2.31-.79.52-.36.95-.87 1.3-1.52.35-.64.68-1.44.97-2.37.3-.93.75-2.73 1.34-5.41l6.89-31.2c.59-2.71.89-4.88.89-6.53 0-1.27-.32-2.15-.95-2.65-.64-.5-1.64-.79-3.02-.87Zm-32 0h16.21l-.45 1.99c-1.03.21-1.76.45-2.21.72-.44.28-.84.68-1.19 1.22-.36.54-.72 1.39-1.1 2.53-.38 1.15-.85 3.02-1.42 5.62l-6.93 31.45c-.35 1.59-.58 2.85-.69 3.79-.1.93-.16 1.77-.16 2.53 0 1.21.31 2.07.91 2.57.61.5 1.63.81 3.06.91l-.44 1.99h-16.21l.44-1.99c1.03-.16 1.8-.42 2.31-.79.52-.36.95-.87 1.3-1.52.35-.64.68-1.44.97-2.37.3-.93.75-2.73 1.34-5.41l6.89-31.2c.59-2.71.89-4.88.89-6.53 0-1.27-.32-2.15-.95-2.65-.64-.5-1.64-.79-3.02-.87Z"/><text x="2413.45" y="1268.3" fill-opacity="0" font-family="Arial,Arial_MSFontService,sans-serif" font-size="55.32">πΌπ·</text><path fill-rule="evenodd" d="M2517.15 1259.45c-1.72 2.82-3.44 5.64-5.13 8.47-1.7 2.83-3.42 5.67-5.14 8.51h11.46c-.09-1.27-.19-2.52-.29-3.74s-.18-2.51-.24-3.86-.12-2.79-.17-4.32c-.04-1.53-.07-3.21-.07-5.06Zm-.12-6.52h4.92l2.71 31.48c.08 1.01.2 1.86.37 2.56.17.69.4 1.27.7 1.73.3.45.67.8 1.12 1.04q.675.36 1.68.51l-.45 1.81h-12.98l.44-1.81c.56-.1 1.05-.23 1.48-.38s.78-.39 1.06-.74c.27-.35.49-.82.64-1.42.15-.59.22-1.37.22-2.32q0-.54-.03-1.23c-.02-.47-.04-.96-.07-1.48q-.045-.78-.12-1.59c-.05-.55-.1-1.08-.14-1.6h-13.34c-.46.68-.91 1.37-1.36 2.09-.44.71-.85 1.41-1.22 2.1-.36.68-.66 1.36-.88 2.04-.21.67-.32 1.34-.32 1.99 0 1.45 1.06 2.3 3.18 2.54l-.38 1.81h-13.02l.33-1.81c.53-.1 1.02-.26 1.44-.47.43-.2.88-.53 1.34-.98.47-.45.98-1.05 1.52-1.82.55-.76 1.21-1.77 1.98-3.02Z"/><text x="2491.24" y="1287.17" fill-opacity="0" font-family="Arial,Arial_MSFontService,sans-serif" font-size="39.138">π΄</text><text font-family="Microsoft YaHei,Microsoft YaHei_MSFontService,sans-serif" font-size="83" font-weight="400" transform="translate(1387.88 1735)">β‘Ά</text><path fill-rule="evenodd" d="M1506.23 1679.69h37.28l-2.79 12.44h-3.89c-.11-2.35-.31-4.12-.61-5.31s-.66-2.01-1.08-2.45c-.42-.45-.91-.74-1.5-.89-.58-.15-1.41-.23-2.49-.23h-13.21l-4.62 21.24h7.74c1.92 0 3.38-.45 4.4-1.36 1.01-.9 2.03-2.4 3.06-4.48h3.69l-3.65 15.57h-3.45c0-2.16-.13-3.63-.4-4.4s-.67-1.26-1.2-1.46c-.52-.2-1.48-.3-2.85-.3h-8.11l-5.19 23.38h12c1.59 0 2.86-.16 3.79-.49.93-.32 1.81-.85 2.63-1.58.83-.73 1.65-1.75 2.47-3.06.83-1.31 1.81-3.08 2.94-5.33h3.93l-3.56 14.03h-35.95l.45-1.99c1.02-.16 1.79-.42 2.31-.79.51-.36.94-.87 1.29-1.52s.68-1.44.97-2.37c.3-.93.75-2.74 1.34-5.41l6.89-31.21c.6-2.7.89-4.87.89-6.52 0-1.27-.31-2.16-.95-2.66-.63-.5-1.64-.79-3.02-.87Z"/><text x="1495.61" y="1728.09" fill-opacity="0" font-family="Arial,Arial_MSFontService,sans-serif" font-size="55.32">πΈ</text><path fill-rule="evenodd" d="M1549.76 1713.22h12.57l-.33 1.79c-.45.12-.84.22-1.16.29-.32.08-.6.2-.85.36s-.46.37-.64.64-.35.64-.52 1.1c-.17.47-.35 1.06-.53 1.76-.19.71-.41 1.58-.65 2.61l-1.93 8.75h.83c.46 0 .88-.03 1.25-.08.38-.06.75-.17 1.12-.32s.75-.35 1.13-.61c.39-.26.83-.58 1.33-.98 2.06-1.61 3.79-3.05 5.18-4.32s2.52-2.39 3.38-3.37c.86-.97 1.48-1.8 1.85-2.48.37-.69.55-1.26.55-1.72q0-.705-.57-1.11c-.37-.27-.99-.41-1.84-.43l.32-1.88h13.56l-.42 1.88c-.46.04-.89.13-1.3.26-.4.14-.88.4-1.41.76-.54.37-1.18.88-1.92 1.52q-1.125.975-2.82 2.52l-11.61 10.48 6.73 14c.51 1.1.96 1.96 1.34 2.59.38.64.76 1.15 1.16 1.52.4.38.85.65 1.36.82.5.17 1.13.33 1.89.46l-.48 1.82h-12.27l.42-1.82c.55-.04.97-.16 1.25-.37.27-.21.41-.47.41-.79-.02-.22-.05-.44-.09-.68s-.11-.5-.2-.79c-.1-.29-.23-.63-.39-1.01-.16-.39-.36-.85-.6-1.39l-3.99-8.52c-.34-.75-.64-1.35-.91-1.79-.26-.43-.54-.77-.83-1.01s-.62-.39-.98-.46c-.37-.07-.83-.1-1.39-.1h-1.64c-.16.81-.34 1.68-.56 2.62-.22.93-.44 1.88-.66 2.84s-.43 1.91-.62 2.85c-.2.93-.38 1.8-.54 2.6-.16.81-.29 1.52-.39 2.15q-.15.93-.15 1.44c0 .84.25 1.43.73 1.77.49.35 1.32.56 2.49.64l-.48 1.82h-12.54l.33-1.82c.62-.1 1.12-.21 1.51-.34.38-.13.73-.41 1.04-.83.31-.43.59-1.07.85-1.92.26-.86.55-2.07.89-3.64l4.89-21.71c.19-.87.34-1.65.44-2.32.1-.68.15-1.25.15-1.73 0-.88-.23-1.5-.68-1.86-.46-.37-1.29-.56-2.51-.58Z"/><text x="1542.4" y="1747.02" fill-opacity="0" font-family="Arial,Arial_MSFontService,sans-serif" font-size="38.631">πΎ</text><path fill-rule="evenodd" d="m1597.36 1748.34-2.76 12.65c.6.08 1.88.12 3.83.12 2.38 0 4.19-.16 5.45-.48q1.875-.48 3.15-1.47c.84-.67 1.47-1.48 1.87-2.43.39-.96.59-2.14.59-3.56 0-1.09-.24-1.99-.72-2.69-.48-.71-1.2-1.25-2.16-1.6-.96-.36-2.37-.54-4.25-.54Zm8.13-14.6c-1.79 0-3.41.07-4.86.22l-2.59 11.38h4.45c2.8 0 4.85-.29 6.16-.87s2.31-1.4 2.99-2.45c.69-1.06 1.03-2.3 1.03-3.71 0-1.06-.26-1.92-.78-2.59-.53-.67-1.28-1.17-2.27-1.49-1-.33-2.37-.49-4.13-.49m-13.45-2.95h14.57c2.12 0 3.92.16 5.41.5 1.49.33 2.69.82 3.61 1.47s1.6 1.4 2.03 2.23.65 1.83.65 3c0 2.11-.65 3.88-1.93 5.3-1.29 1.41-3.27 2.58-5.93 3.49v.39c3.23 1.28 4.85 3.47 4.85 6.57 0 3.36-1.38 5.94-4.16 7.71-2.77 1.77-6.89 2.66-12.34 2.66h-12.99l.42-1.81q1.26-.195 1.83-.63c.37-.29.69-.77.96-1.43s.61-1.87 1.02-3.62l4.12-18.66c.31-1.44.47-2.53.47-3.24 0-.51-.08-.9-.24-1.19-.15-.28-.45-.51-.89-.67s-1.06-.25-1.88-.27Z"/><text x="1585.81" y="1759.95" fill-opacity="0" font-family="Arial,Arial_MSFontService,sans-serif" font-size="33.325">πµ</text><path fill-rule="evenodd" d="M1905.66 1672.89c7.89 2.08 13.95 6.58 18.18 13.48s6.34 15.23 6.34 24.98c0 9.78-2.11 18.11-6.32 24.99-4.22 6.87-10.28 11.35-18.2 13.43l-.97-3.12c6.24-2.08 10.88-6.18 13.92-12.32 3.04-6.13 4.56-13.93 4.56-23.38 0-9.13-1.51-16.72-4.54-22.76s-7.71-10.1-14.06-12.18Zm-246.71 0 1.09 3.12q-9.48 3.12-14.04 12.18c-3.04 6.04-4.56 13.63-4.56 22.76 0 9.45 1.52 17.25 4.56 23.38 3.04 6.14 7.68 10.24 13.92 12.32l-.97 3.12c-7.92-2.08-13.99-6.56-18.2-13.43-4.21-6.88-6.32-15.21-6.32-24.99 0-9.75 2.11-18.08 6.34-24.98s10.29-11.4 18.18-13.48m15.35 6.8h16.21l-.45 1.98c-1.02.22-1.76.46-2.21.73-.44.27-.84.68-1.19 1.22s-.72 1.38-1.09 2.53c-.38 1.15-.86 3.02-1.42 5.61l-2.88 12.93h1.34c1.13 0 2.16-.19 3.1-.56.93-.38 2.02-1.07 3.26-2.07s3.22-2.84 5.94-5.51c2.71-2.68 4.64-4.71 5.79-6.1s1.99-2.6 2.51-3.61c.53-1.01.8-1.94.8-2.78 0-.67-.28-1.22-.82-1.64q-.81-.63-2.31-.75l.45-1.98h17.39l-.45 1.98c-1.08.17-2.3.73-3.67 1.69-1.36.95-3.45 2.83-6.26 5.61l-15.72 15.32 8.63 20.75c.89 2.13 1.63 3.67 2.21 4.62.58.94 1.27 1.69 2.09 2.25.81.55 1.81.92 2.99 1.11l-.44 1.99h-15.65l.45-1.99c1.46-.13 2.19-.78 2.19-1.94 0-.73-.15-1.56-.45-2.5-.29-.93-.65-1.89-1.05-2.89l-5.27-12.89q-.93-2.31-1.62-3.24c-.46-.63-.95-1.06-1.46-1.3s-1.31-.37-2.39-.37h-2.27l-3.36 15.32c-.35 1.62-.58 2.9-.69 3.83-.11.94-.16 1.77-.16 2.5 0 1.21.3 2.07.91 2.57s1.63.8 3.06.91l-.45 1.99h-16.21l.45-1.99c1.02-.16 1.79-.42 2.31-.79.51-.36.94-.87 1.29-1.52s.68-1.44.98-2.37c.29-.93.74-2.74 1.33-5.41l6.89-31.21c.6-2.7.89-4.87.89-6.52 0-1.27-.31-2.16-.95-2.66-.63-.5-1.64-.79-3.02-.87Z"/><text x="1663.68" y="1728.09" fill-opacity="0" font-family="Arial,Arial_MSFontService,sans-serif" font-size="55.32">πΎ</text><path fill-rule="evenodd" d="M1732.37 1712.65c1.88 0 3.7.15 5.43.44 1.74.28 3.56.75 5.47 1.38l-1.7 7.57h-3.24c-.06-1.12-.24-2.07-.53-2.88-.28-.8-.69-1.46-1.2-1.96-.52-.51-1.17-.89-1.97-1.14-.79-.24-1.74-.37-2.83-.37q-1.755 0-3.18.48c-.96.32-1.77.77-2.45 1.35-.67.59-1.19 1.29-1.56 2.12-.37.82-.55 1.72-.55 2.69 0 .74.09 1.41.27 2.03.17.61.48 1.21.92 1.79.44.57 1.04 1.16 1.8 1.75.77.6 1.73 1.25 2.91 1.97 1.43.89 2.65 1.74 3.67 2.53 1.03.8 1.86 1.62 2.51 2.47q.96 1.29 1.41 2.73c.3.96.45 2.04.45 3.23 0 1.73-.35 3.31-1.03 4.74-.69 1.43-1.66 2.66-2.92 3.69q-1.89 1.545-4.53 2.4c-1.75.56-3.71.85-5.88.85-1.83 0-3.79-.16-5.9-.47-2.1-.3-4.18-.75-6.22-1.35l1.76-8.04h3.15c.06 2.38.7 4.11 1.91 5.18s3.08 1.61 5.6 1.61q1.935 0 3.48-.51c1.04-.34 1.91-.82 2.62-1.46.72-.63 1.27-1.41 1.64-2.32.38-.91.57-1.94.57-3.07q0-1.185-.3-2.16c-.2-.64-.54-1.28-1.04-1.92-.5-.63-1.17-1.28-2.01-1.94-.85-.65-1.89-1.37-3.14-2.14-1.26-.77-2.34-1.54-3.27-2.31-.92-.76-1.69-1.56-2.3-2.38a9.3 9.3 0 0 1-1.39-2.58c-.31-.89-.46-1.84-.46-2.86 0-1.66.33-3.18.98-4.54q.99-2.04 2.82-3.51c1.22-.99 2.7-1.75 4.43-2.28 1.74-.54 3.67-.81 5.8-.81"/><text x="1711.52" y="1747.52" fill-opacity="0" font-family="Arial,Arial_MSFontService,sans-serif" font-size="39.852">π‘†</text><path fill-rule="evenodd" d="M1753.54 1725.6h7.09c.38 1.9.57 3.76.57 5.6 0 1.89-.32 3.62-.97 5.19-.65 1.56-1.68 3.12-3.1 4.68-1.42 1.55-3.37 3.26-5.86 5.12l-2.19-2.47c1.38-1.3 2.38-2.46 3-3.51.62-1.04 1.07-2.22 1.34-3.54.27-1.33.4-2.99.4-4.99 0-2.05-.09-4.08-.28-6.08"/><text x="1749.08" y="1743.62" fill-opacity="0" font-family="Arial,Arial_MSFontService,sans-serif" font-size="20.588">,</text><path fill-rule="evenodd" d="M1839.46 1683.21c-1.19 0-2.48.04-3.85.12l-10.5 47.95q1.17.12 4.5.12c4.38 0 8.09-.76 11.14-2.29 3.06-1.53 5.69-3.92 7.91-7.17 2.21-3.26 3.85-6.69 4.9-10.3 1.05-3.6 1.58-7.41 1.58-11.41 0-5.64-1.32-9.89-3.95-12.74s-6.55-4.28-11.73-4.28m-15.48-3.52h15.36c4.08 0 7.38.31 9.92.93s4.92 1.74 7.12 3.36 3.85 3.78 4.96 6.47 1.66 5.87 1.66 9.54c0 3.65-.42 7.13-1.25 10.46-.84 3.32-2.04 6.38-3.61 9.18-1.57 2.79-3.44 5.23-5.63 7.29-2.19 2.07-4.31 3.66-6.37 4.76-2.05 1.11-4.35 1.94-6.89 2.5-2.54.55-5.49.83-8.87.83h-17.02l.44-1.99c1.03-.16 1.8-.42 2.31-.79.52-.36.95-.87 1.3-1.52s.68-1.44.97-2.37c.3-.93.75-2.74 1.34-5.41l6.89-31.21c.59-2.7.89-4.87.89-6.52 0-1.27-.32-2.16-.95-2.66-.64-.5-1.64-.79-3.02-.87Zm-32 0h16.21l-.45 1.98c-1.03.22-1.76.46-2.21.73-.44.27-.84.68-1.19 1.22s-.72 1.38-1.1 2.53-.85 3.02-1.42 5.61l-6.93 31.45c-.35 1.6-.58 2.86-.69 3.79-.1.94-.16 1.78-.16 2.54 0 1.21.31 2.07.91 2.57.61.5 1.63.8 3.06.91l-.44 1.99h-16.21l.44-1.99c1.03-.16 1.8-.42 2.31-.79.52-.36.95-.87 1.3-1.52s.68-1.44.97-2.37c.3-.93.75-2.74 1.34-5.41l6.89-31.21c.59-2.7.89-4.87.89-6.52 0-1.27-.32-2.16-.95-2.66-.64-.5-1.64-.79-3.02-.87Z"/><text x="1781.36" y="1728.09" fill-opacity="0" font-family="Arial,Arial_MSFontService,sans-serif" font-size="55.32">πΌπ·</text><path fill-rule="evenodd" d="M1885.06 1719.24c-1.72 2.82-3.44 5.64-5.13 8.47-1.7 2.83-3.42 5.66-5.14 8.5h11.46c-.09-1.27-.19-2.51-.29-3.73-.1-1.23-.18-2.51-.24-3.86s-.12-2.79-.17-4.32c-.04-1.53-.07-3.22-.07-5.06Zm-.12-6.53h4.92l2.71 31.49c.08 1.01.2 1.86.37 2.56.17.69.4 1.27.7 1.73.3.45.67.8 1.12 1.04s1.01.4 1.68.5l-.45 1.82h-12.98l.44-1.82c.56-.1 1.05-.22 1.48-.37s.78-.4 1.06-.74c.27-.35.49-.82.64-1.42.15-.59.22-1.37.22-2.32 0-.36-.01-.77-.03-1.24-.02-.46-.04-.96-.07-1.47q-.045-.78-.12-1.59c-.05-.55-.1-1.08-.14-1.6h-13.34c-.46.68-.91 1.37-1.36 2.09-.44.71-.85 1.41-1.22 2.1-.36.68-.66 1.36-.88 2.04-.21.67-.32 1.34-.32 1.99 0 1.45 1.06 2.3 3.18 2.53l-.38 1.82h-13.02l.33-1.82c.53-.1 1.02-.25 1.44-.46.43-.21.88-.53 1.34-.98.47-.45.98-1.05 1.52-1.82.55-.76 1.21-1.77 1.98-3.02Z"/><text x="1859.15" y="1746.96" fill-opacity="0" font-family="Arial,Arial_MSFontService,sans-serif" font-size="39.138">π΄</text><text font-family="Microsoft YaHei,Microsoft YaHei_MSFontService,sans-serif" font-size="83" font-weight="400" transform="translate(1471.39 2023)">β‘£</text><path fill-rule="evenodd" d="M1589.74 1967.87h37.28l-2.8 12.44h-3.89c-.1-2.35-.31-4.12-.6-5.31-.3-1.19-.66-2-1.08-2.45a3.05 3.05 0 0 0-1.5-.89c-.58-.15-1.41-.22-2.49-.22h-13.21l-4.62 21.23h7.74c1.92 0 3.38-.45 4.4-1.36q1.515-1.35 3.06-4.47h3.68l-3.64 15.56h-3.45c0-2.16-.13-3.63-.4-4.4s-.67-1.25-1.2-1.46c-.53-.2-1.48-.3-2.86-.3h-8.1l-5.19 23.38h12c1.59 0 2.85-.16 3.79-.48.93-.33 1.81-.85 2.63-1.58s1.65-1.75 2.47-3.06c.83-1.31 1.81-3.09 2.94-5.33h3.93l-3.56 14.02h-35.95l.44-1.99c1.03-.16 1.8-.42 2.31-.79.52-.36.95-.87 1.3-1.52.35-.64.68-1.43.97-2.37.3-.93.75-2.73 1.34-5.41l6.89-31.2c.59-2.71.89-4.88.89-6.53 0-1.27-.32-2.15-.95-2.65-.64-.5-1.64-.79-3.02-.87Z"/><text x="1579.12" y="2016.27" fill-opacity="0" font-family="Arial,Arial_MSFontService,sans-serif" font-size="55.32">πΈ</text><path fill-rule="evenodd" d="M1633.27 2001.4h12.57l-.33 1.79c-.45.12-.84.22-1.16.3s-.6.2-.85.35c-.25.16-.46.38-.64.64-.18.27-.35.64-.52 1.11-.17.46-.35 1.05-.54 1.75-.19.71-.4 1.58-.64 2.61l-1.93 8.76h.83c.46 0 .87-.03 1.25-.09s.75-.17 1.12-.31c.37-.15.74-.36 1.13-.62.39-.25.83-.58 1.33-.98 2.06-1.61 3.79-3.05 5.18-4.32s2.52-2.39 3.38-3.36c.86-.98 1.48-1.8 1.85-2.49.36-.69.55-1.26.55-1.71 0-.48-.19-.85-.57-1.12s-.99-.41-1.85-.43l.33-1.88h13.55l-.41 1.88c-.46.04-.89.13-1.3.27s-.88.39-1.41.76c-.54.36-1.18.87-1.92 1.52-.75.64-1.69 1.48-2.82 2.51l-11.62 10.49 6.74 14c.51 1.09.96 1.95 1.34 2.59.37.63.76 1.14 1.16 1.52.4.37.85.65 1.35.81.51.17 1.14.33 1.89.47l-.47 1.81h-12.27l.41-1.81c.56-.04.98-.17 1.25-.38.28-.2.42-.47.42-.79a10 10 0 0 0-.09-.68c-.04-.24-.11-.5-.21-.79s-.22-.62-.38-1.01-.36-.85-.6-1.39l-3.99-8.52c-.34-.75-.64-1.35-.91-1.78-.27-.44-.54-.78-.83-1.02-.29-.23-.62-.39-.99-.46-.36-.07-.82-.1-1.38-.1h-1.64c-.16.81-.35 1.69-.56 2.62a261 261 0 0 0-1.29 5.69c-.19.93-.37 1.8-.53 2.6-.16.81-.29 1.52-.39 2.15-.1.62-.15 1.11-.15 1.44 0 .84.25 1.43.73 1.78.49.34 1.32.56 2.49.64l-.48 1.81h-12.54l.33-1.81c.62-.1 1.12-.22 1.5-.35.39-.13.74-.4 1.05-.83s.59-1.07.85-1.92c.25-.85.55-2.07.89-3.63l4.88-21.72c.2-.87.35-1.65.45-2.32.1-.68.15-1.25.15-1.73 0-.87-.23-1.49-.68-1.86-.46-.37-1.3-.56-2.51-.58Z"/><text x="1625.91" y="2035.2" fill-opacity="0" font-family="Arial,Arial_MSFontService,sans-serif" font-size="38.631">πΎ</text><path fill-rule="evenodd" d="M1687.73 2018.33c3.43 0 6.82.55 10.15 1.64l-1.51 6.76h-3.12c-.13-1.84-.7-3.2-1.69-4.07-.99-.88-2.55-1.32-4.69-1.32-1.92 0-3.47.48-4.66 1.44s-1.78 2.27-1.78 3.93c0 1.22.36 2.28 1.1 3.2.73.91 2.15 1.99 4.27 3.24 1.95 1.14 3.43 2.16 4.44 3.04 1.01.89 1.78 1.87 2.3 2.96q.78 1.62.78 3.72c0 1.94-.53 3.67-1.58 5.2s-2.56 2.72-4.54 3.58c-1.97.85-4.26 1.28-6.84 1.28-3.24 0-6.99-.57-11.24-1.71l1.54-7.06h3.13c.1 2.05.69 3.54 1.79 4.45s2.86 1.36 5.29 1.36c2.21 0 3.94-.54 5.2-1.64 1.25-1.1 1.88-2.59 1.88-4.46q0-1.83-1.17-3.36c-.79-1.01-2.38-2.21-4.79-3.6-2.46-1.41-4.23-2.83-5.33-4.26-1.1-1.42-1.65-2.99-1.65-4.7 0-1.9.51-3.58 1.52-5.04 1.02-1.46 2.49-2.58 4.41-3.38s4.18-1.2 6.79-1.2"/><text x="1669.12" y="2048.6" fill-opacity="0" font-family="Arial,Arial_MSFontService,sans-serif" font-size="34.595">π‘†</text><path fill-rule="evenodd" d="M1826.62 1960.87h18.08v77.28h-18.08v-3.12h11.35v-71.04h-11.35Zm-113.04 0h18.07v3.12h-11.34v71.04h11.34v3.12h-18.07Zm32.48 7h12.93l10.7 31.57c1.54 4.54 2.73 8.38 3.57 11.51h.44c.22-1.65.71-4.39 1.48-8.23q1.155-5.745 2.13-10.05l2.83-12.76c.6-2.68.9-4.85.9-6.53 0-1.27-.32-2.15-.96-2.65-.63-.5-1.64-.79-3.02-.87l.45-1.99h14.18l-.44 1.99c-1.03.21-1.76.46-2.21.73s-.84.67-1.2 1.21c-.35.54-.71 1.39-1.09 2.53-.38 1.15-.85 3.02-1.42 5.62l-9.52 43.24h-5.51l-11.84-34.77c-1.43-4.16-2.69-8.31-3.77-12.44h-.52c-.17 1.37-.61 4-1.34 7.88q-1.095 5.805-2.31 11.37l-3.57 16.17c-.56 2.56-.85 4.67-.85 6.32 0 1.21.31 2.07.91 2.57.61.5 1.63.81 3.06.91l-.44 1.99h-14.19l.45-1.99c1.03-.16 1.8-.42 2.31-.79.51-.36.94-.87 1.3-1.52.35-.64.67-1.43.97-2.37.3-.93.74-2.73 1.34-5.41l6.89-31.2c.27-1.17.48-2.27.64-3.33.17-1.05.25-2.12.25-3.2 0-1.27-.32-2.15-.96-2.65-.63-.5-1.64-.79-3.01-.87Z"/><text x="1735.44" y="2016.27" fill-opacity="0" font-family="Arial,Arial_MSFontService,sans-serif" font-size="55.32">π‘</text><path fill-rule="evenodd" d="M1804.3 2001.46c2.06 0 3.83.23 5.29.7s2.64 1.1 3.56 1.89c.91.8 1.57 1.75 1.98 2.86.4 1.11.61 2.32.61 3.61 0 .77-.06 1.49-.17 2.16-.11.66-.29 1.32-.56 1.96-.27.65-.62 1.3-1.06 1.95-.44.66-.98 1.35-1.64 2.09-.49.63-1.14 1.37-1.93 2.2-.8.84-1.67 1.73-2.61 2.68-.94.96-1.93 1.95-2.96 2.98a171 171 0 0 0-3.01 3.07c-.98 1.01-1.87 1.99-2.68 2.95-.82.95-1.48 1.82-2 2.62h11.02c.94 0 1.68-.04 2.24-.11.55-.07 1.01-.22 1.38-.46s.68-.6.94-1.08c.26-.49.56-1.16.89-2.02h2.77c-.1 1.41-.19 2.83-.28 4.26s-.18 2.85-.28 4.26h-25.23v-1.55c.48-1.07 1.03-2.13 1.67-3.17a42 42 0 0 1 2.14-3.17c.8-1.07 1.7-2.18 2.71-3.32a82 82 0 0 1 3.37-3.56c1.86-1.87 3.38-3.46 4.55-4.78 1.18-1.32 2.1-2.5 2.77-3.53.68-1.03 1.14-1.99 1.39-2.86s.37-1.81.37-2.8c0-1.01-.14-1.95-.43-2.8s-.7-1.58-1.24-2.17c-.53-.6-1.21-1.07-2.04-1.4-.82-.34-1.77-.51-2.84-.51q-2.775 0-4.65 1.5c-1.25 1.01-2.22 2.46-2.92 4.37h-3.9v-5.81c2.54-1.05 4.88-1.82 7.02-2.29q3.195-.72 5.76-.72"/><text x="1790.57" y="2035.21" fill-opacity="0" font-family="Arial,Arial_MSFontService,sans-serif" font-size="38.572">2</text><text font-family="Microsoft YaHei,Microsoft YaHei_MSFontService,sans-serif" font-size="83" font-weight="400" transform="translate(1413.32 2290)">β‘¤</text><path fill-rule="evenodd" d="M1531.67 2234.26h37.28l-2.8 12.44h-3.89c-.1-2.35-.31-4.12-.6-5.3q-.45-1.785-1.08-2.46c-.42-.44-.92-.74-1.5-.89s-1.41-.22-2.49-.22h-13.21l-4.62 21.24h7.74c1.92 0 3.38-.46 4.4-1.36 1.01-.91 2.03-2.4 3.06-4.48h3.68l-3.64 15.56h-3.45c0-2.16-.13-3.62-.4-4.39-.27-.78-.67-1.26-1.2-1.46-.53-.21-1.48-.31-2.86-.31h-8.1l-5.19 23.39h12c1.59 0 2.85-.17 3.79-.49.93-.32 1.81-.85 2.63-1.58s1.65-1.75 2.47-3.06c.83-1.31 1.81-3.09 2.94-5.33h3.93l-3.57 14.02h-35.94l.44-1.98c1.03-.17 1.8-.43 2.31-.79.52-.37.95-.87 1.3-1.52s.68-1.44.97-2.37c.3-.94.75-2.74 1.34-5.41l6.89-31.21c.59-2.7.89-4.88.89-6.53 0-1.27-.32-2.15-.95-2.65-.64-.5-1.64-.79-3.02-.87Z"/><text x="1521.05" y="2282.67" fill-opacity="0" font-family="Arial,Arial_MSFontService,sans-serif" font-size="55.32">πΈ</text><path fill-rule="evenodd" d="M1575.2 2267.8h12.57l-.33 1.78c-.46.12-.84.22-1.16.3s-.6.2-.85.36-.46.37-.64.64-.35.63-.52 1.1-.35 1.05-.54 1.76c-.19.7-.4 1.57-.64 2.6l-1.93 8.76h.83c.46 0 .87-.03 1.25-.09s.75-.16 1.12-.31.74-.35 1.13-.61.83-.59 1.33-.99c2.06-1.6 3.79-3.04 5.18-4.31s2.51-2.4 3.38-3.37c.86-.97 1.48-1.8 1.85-2.49.36-.68.55-1.25.55-1.71 0-.48-.19-.85-.57-1.12-.38-.26-.99-.41-1.85-.43l.33-1.87h13.55l-.41 1.87c-.46.04-.89.13-1.3.27s-.88.39-1.41.76c-.54.37-1.18.87-1.92 1.52q-1.125.96-2.82 2.52l-11.62 10.48 6.74 14c.51 1.09.96 1.95 1.34 2.59.37.64.76 1.14 1.16 1.52.39.38.85.65 1.35.82.51.17 1.14.32 1.89.46l-.47 1.82h-12.27l.41-1.82c.56-.04.98-.16 1.25-.37.28-.21.42-.47.42-.79q-.03-.33-.09-.69c-.04-.24-.11-.5-.21-.79-.1-.28-.23-.62-.38-1.01q-.24-.585-.6-1.38l-3.99-8.52c-.34-.76-.64-1.35-.91-1.79s-.55-.77-.83-1.01a2.15 2.15 0 0 0-.99-.46c-.36-.07-.83-.11-1.38-.11h-1.64c-.16.82-.35 1.69-.57 2.62-.21.94-.43 1.88-.65 2.85-.22.96-.43 1.91-.63 2.84-.19.94-.37 1.8-.53 2.61-.16.8-.29 1.52-.39 2.14-.1.63-.15 1.11-.15 1.45 0 .83.24 1.42.73 1.77s1.32.56 2.49.64l-.48 1.82h-12.54l.33-1.82c.62-.1 1.12-.21 1.5-.34q.585-.195 1.05-.84c.3-.42.59-1.06.85-1.92.25-.85.55-2.06.89-3.63l4.88-21.72c.2-.87.35-1.64.45-2.32.1-.67.15-1.25.15-1.73q0-1.305-.69-1.86c-.45-.36-1.29-.56-2.5-.58Z"/><text x="1567.84" y="2301.6" fill-opacity="0" font-family="Arial,Arial_MSFontService,sans-serif" font-size="38.631">πΎ</text><path fill-rule="evenodd" d="M1629.66 2284.73c3.43 0 6.82.54 10.15 1.63l-1.51 6.77h-3.13q-.195-2.76-1.68-4.08c-.99-.88-2.55-1.32-4.69-1.32-1.92 0-3.47.48-4.66 1.44s-1.78 2.27-1.78 3.93c0 1.22.36 2.29 1.1 3.2.73.91 2.15 1.99 4.27 3.25 1.95 1.14 3.43 2.15 4.44 3.04 1.01.88 1.78 1.87 2.3 2.95q.78 1.62.78 3.72c0 1.94-.53 3.67-1.58 5.2s-2.56 2.73-4.54 3.58-4.26 1.28-6.85 1.28c-3.23 0-6.98-.57-11.23-1.71l1.54-7.05h3.13c.09 2.05.69 3.53 1.79 4.44s2.86 1.37 5.29 1.37c2.21 0 3.94-.55 5.2-1.65 1.25-1.1 1.88-2.58 1.88-4.46 0-1.22-.39-2.34-1.17-3.35-.79-1.02-2.38-2.22-4.79-3.6-2.46-1.42-4.24-2.84-5.33-4.26-1.1-1.43-1.65-2.99-1.65-4.7 0-1.91.51-3.59 1.52-5.05 1.02-1.45 2.49-2.58 4.41-3.38 1.92-.79 4.18-1.19 6.79-1.19"/><text x="1611.05" y="2315" fill-opacity="0" font-family="Arial,Arial_MSFontService,sans-serif" font-size="34.595">π‘†</text><path fill-rule="evenodd" d="M1884.69 2227.26h18.08v77.29h-18.08v-3.12h11.35v-71.05h-11.35Zm-229.18 0h18.07v3.12h-11.34v71.05h11.34v3.12h-18.07Zm57.81 4.13c2.65 0 4.93.21 6.85.64l-1.58 6.89h-3.57c-.38-1.54-.87-2.64-1.48-3.32s-1.5-1.01-2.69-1.01c-1.54 0-2.85.42-3.91 1.27-1.07.85-1.98 2.12-2.74 3.79-.76 1.68-1.46 3.93-2.11 6.77l-1.01 4.42h10.42l-.9 4.09h-10.45l-7.54 35.34c-1.24 5.86-3.15 10.23-5.71 13.11q-3.855 4.32-9.69 4.32c-1.13 0-2.03-.07-2.67-.2l.68-3.57c.27.08.91.12 1.91.12q1.815 0 3.12-.93c.86-.62 1.67-1.7 2.41-3.24s1.43-3.68 2.05-6.41l8.71-38.54h-6.85l.61-2.79c1.81-.11 3.11-.26 3.91-.45s1.42-.47 1.86-.85c.45-.38.83-.87 1.14-1.48s.71-1.72 1.2-3.34c1.43-4.87 3.64-8.52 6.62-10.97 2.99-2.44 6.79-3.66 11.41-3.66"/><text x="1674.54" y="2298.16" fill-opacity="0" font-family="Arial,Arial_MSFontService,sans-serif" font-size="76.313">π‘“</text><path fill-rule="evenodd" d="M1851.35 2227.47c7.89 2.08 13.95 6.57 18.17 13.47 4.23 6.91 6.35 15.24 6.35 24.99 0 9.78-2.11 18.11-6.33 24.98-4.21 6.88-10.28 11.36-18.19 13.44l-.97-3.12c6.24-2.08 10.88-6.19 13.92-12.32s4.56-13.93 4.56-23.39c0-9.13-1.52-16.71-4.54-22.75q-4.545-9.06-14.07-12.18Zm-96.73 0 1.1 3.12c-6.32 2.08-11.01 6.14-14.04 12.18-3.04 6.04-4.56 13.62-4.56 22.75 0 9.46 1.52 17.26 4.56 23.39 3.03 6.13 7.68 10.24 13.92 12.32l-.98 3.12c-7.91-2.08-13.98-6.56-18.19-13.44-4.22-6.87-6.33-15.2-6.33-24.98 0-9.75 2.12-18.08 6.35-24.99 4.23-6.9 10.28-11.39 18.17-13.47m15.27 6.79h12.93l10.7 31.57c1.54 4.54 2.73 8.38 3.57 11.51h.44c.22-1.64.71-4.39 1.48-8.22q1.155-5.76 2.13-10.05l2.84-12.77c.59-2.68.89-4.85.89-6.53 0-1.27-.32-2.15-.95-2.65-.64-.5-1.64-.79-3.02-.87l.44-1.99h14.19l-.45 1.99c-1.02.21-1.76.46-2.21.73-.44.27-.84.67-1.19 1.21s-.72 1.39-1.1 2.54c-.37 1.15-.85 3.02-1.41 5.61l-9.53 43.24h-5.51l-11.83-34.77c-1.44-4.16-2.69-8.31-3.77-12.44h-.53c-.16 1.38-.61 4-1.34 7.88q-1.095 5.82-2.31 11.37l-3.56 16.17c-.57 2.57-.86 4.67-.86 6.32 0 1.22.31 2.08.92 2.58.6.49 1.62.8 3.06.91l-.45 1.98h-14.18l.44-1.98c1.03-.17 1.8-.43 2.31-.79.52-.37.95-.87 1.3-1.52s.67-1.44.97-2.37c.3-.94.74-2.74 1.34-5.41l6.89-31.21c.27-1.16.49-2.27.65-3.32.16-1.06.24-2.12.24-3.21 0-1.27-.32-2.15-.95-2.65-.64-.5-1.64-.79-3.02-.87Z"/><text x="1759.28" y="2282.67" fill-opacity="0" font-family="Arial,Arial_MSFontService,sans-serif" font-size="55.32">π‘</text><path fill-rule="evenodd" d="M1828.13 2267.85c2.07 0 3.83.24 5.29.7 1.46.47 2.65 1.1 3.56 1.9.91.79 1.57 1.74 1.98 2.86.41 1.11.61 2.31.61 3.6 0 .77-.05 1.49-.16 2.16-.11.66-.3 1.32-.57 1.96-.27.65-.62 1.3-1.06 1.96-.43.65-.98 1.35-1.63 2.08-.5.64-1.15 1.37-1.94 2.2-.79.84-1.66 1.73-2.61 2.69-.94.95-1.93 1.94-2.96 2.97-1.03 1.04-2.04 2.06-3.01 3.07s-1.87 2-2.68 2.95-1.48 1.83-2 2.62h11.03c.93 0 1.67-.03 2.23-.1s1.02-.23 1.38-.46c.37-.24.68-.6.94-1.09q.39-.735.9-2.01h2.77c-.1 1.41-.2 2.83-.29 4.26s-.18 2.85-.28 4.26h-25.23v-1.55c.48-1.07 1.03-2.13 1.67-3.17.64-1.05 1.35-2.1 2.14-3.18.8-1.07 1.7-2.18 2.72-3.32 1.01-1.14 2.13-2.33 3.36-3.56 1.87-1.86 3.39-3.46 4.56-4.78s2.09-2.49 2.77-3.53c.67-1.03 1.13-1.98 1.38-2.86.25-.87.38-1.8.38-2.8 0-1.01-.15-1.94-.44-2.8-.28-.85-.7-1.57-1.23-2.17-.54-.6-1.22-1.06-2.04-1.4q-1.245-.51-2.85-.51c-1.84 0-3.39.5-4.64 1.51-1.25 1-2.23 2.45-2.92 4.36h-3.9v-5.81c2.54-1.05 4.88-1.81 7.01-2.29s4.06-.72 5.76-.72"/><text x="1814.4" y="2301.6" fill-opacity="0" font-family="Arial,Arial_MSFontService,sans-serif" font-size="38.572">2</text><path d="m423.015 1831.687 107.477-616.765-9.031-1.574-107.476 616.765Zm124.751-609.103-14.708-49.087-30.445 41.219Zm171.324-191.155 725.19-268.315-3.181-8.597-725.19 268.314Zm727.252-249.53 35.034-37.397-50.938-5.589Zm85.283 87.758-212.131 268.24 7.19 5.686 212.131-268.24Zm-223.668 253.273-10.456 50.165 46.406-21.735Zm-125.262 196.127-608.234 534.335 6.05 6.887 608.234-534.336Zm-616.891 517.537-19.308 47.467 49.558-13.033Zm36.462 180.276 685.502-286.243-3.532-8.459-685.502 286.243Zm688.337-267.56 33.464-38.807-51.125-3.487Z"/><path d="m602.011 2008.17 684.619 239.15-3.02 8.65-684.621-239.14Zm686.339 220.33 35.72 36.75-50.83 6.52Z"/><path d="m1425.194 1993.917-783.521 12.964.151 9.165 783.522-12.963Zm-779.242-5.443-45.448 23.672 46.206 22.155ZM2003.49 1706.03l680.68 151.2-1.99 8.95-680.67-151.21Zm680.18 132.31 39.77 32.31-49.71 12.43Zm-13.19 155.577h-727.734v9.167h727.734Zm-723.151-18.333-45.833 22.916 45.833 22.917Zm56.033 294.468 680.43-130.297-1.724-9.003-680.43 130.296Zm679.376-111.429 40.706-31.128-49.326-13.887Z"/></g></svg>