<svg xmlns="http://www.w3.org/2000/svg" width="2202" height="3399" overflow="hidden"><defs><clipPath id="a"><path d="M187-11h2202v3399H187z"/></clipPath></defs><g clip-path="url(#a)" transform="translate(-187 11)"><path fill="#d74514" d="M571 517h1713v359H571z"/><path fill="#fff" fill-rule="evenodd" d="M1121.16 612.784h38.34l-2.88 13.05h-5.19c-.13-2.567-.37-4.363-.73-5.39q-.525-1.54-1.62-2.229c-.73-.459-1.75-.689-3.08-.689h-9.16l-4.45 20.264h5.43q2.385 0 3.87-1.54c.98-1.027 1.98-2.689 2.98-4.985h4.45l-4.25 18.075h-4.18q0-2.837-.3-4.215c-.2-.918-.56-1.58-1.07-1.986-.52-.405-1.31-.608-2.39-.608h-5.56l-3.24 14.631c-.19.864-.32 1.614-.4 2.249-.09.635-.13 1.466-.13 2.493q0 1.863.96 2.634.945.77 2.97.891l-.56 2.675h-20.96l.57-2.675c1.54-.432 2.68-1.188 3.41-2.269s1.42-3.08 2.06-5.998l7.38-33.435c.35-1.594.53-3.175.53-4.742 0-1.135-.27-1.966-.79-2.492q-.795-.79-2.58-1.034Z"/><text x="1110.01" y="661.189" fill-opacity="0" font-family="Arial,Arial_MSFontService,sans-serif" font-size="55.32">𝑭</text><path fill="#fff" fill-rule="evenodd" d="M1165.84 658.702h7.1c.37 1.891.56 3.755.56 5.593 0 1.891-.32 3.62-.97 5.187s-1.68 3.127-3.1 4.681-3.37 3.262-5.86 5.127l-2.18-2.472c1.37-1.297 2.37-2.466 2.99-3.506.63-1.04 1.07-2.222 1.34-3.546s.41-2.986.41-4.985c0-2.053-.1-4.08-.29-6.079"/><text x="1161.39" y="676.716" fill-opacity="0" font-family="Arial,Arial_MSFontService,sans-serif" font-size="20.588">,</text><path fill="#fff" fill-rule="evenodd" d="M1197.23 612.784h44.66l-3.2 14.671h-5.19c-.03-2.999-.2-5.099-.53-6.302q-.48-1.803-1.56-2.715c-.71-.608-1.72-.912-3.02-.912h-3.6l-8.72 39.636c-.19.891-.32 1.648-.4 2.269q-.12.933-.12 2.473c0 1.242.31 2.12.95 2.634.63.513 1.63.81 2.98.891l-.57 2.675h-21.52l.57-2.675c1.19-.162 2.13-.513 2.83-1.053.71-.541 1.29-1.345 1.77-2.412q.705-1.6 1.44-4.802l8.71-39.636h-3.24c-1.49 0-2.69.223-3.61.669s-1.95 1.378-3.08 2.796c-1.14 1.419-2.23 3.29-3.28 5.613h-5.31Z"/><text x="1194.19" y="661.189" fill-opacity="0" font-family="Arial,Arial_MSFontService,sans-serif" font-size="55.32">𝑻</text><path fill="#fff" fill-rule="evenodd" d="M1519.31 605.782h18.08v77.286h-18.08v-3.121h11.35v-71.044h-11.35Zm-267.16 0h18.08v3.121h-11.35v71.044h11.35v3.121h-18.08Zm47.44 6.354h5.19c-.16 2.594-.25 6.187-.25 10.78v33.881q0 2.35.27 3.546.255 1.196.93 1.946.675.749 1.92 1.175c.84.283 1.9.5 3.17.648s2.94.25 5.02.304v3.688h-34.97v-3.688q4.5-.202 6.42-.547t2.94-1.033c.67-.46 1.17-1.108 1.48-1.946s.46-2.202.46-4.093v-29.301c0-1.108-.21-1.905-.62-2.391-.42-.487-1-.73-1.73-.73q-1.005 0-2.85.932-1.845.933-6.06 3.81l-2.48-4.296Z"/><text x="1278.43" y="661.108" fill-opacity="0" font-family="Arial,Arial_MSFontService,sans-serif" font-size="55.968">𝟏</text><path fill="#fff" fill-rule="evenodd" d="M1394.91 639.168c1.41 0 2.58.493 3.53 1.479.94.986 1.42 2.236 1.42 3.749s-.48 2.762-1.42 3.748c-.95.987-2.12 1.48-3.53 1.48-1.4 0-2.58-.493-3.52-1.48-.95-.986-1.42-2.235-1.42-3.748s.47-2.763 1.42-3.749c.94-.986 2.12-1.479 3.52-1.479m-24.56 0c1.41 0 2.58.493 3.53 1.479.94.986 1.42 2.236 1.42 3.749s-.48 2.762-1.42 3.748c-.95.987-2.12 1.48-3.53 1.48-1.4 0-2.58-.493-3.52-1.48-.95-.986-1.42-2.235-1.42-3.748s.47-2.763 1.42-3.749c.94-.986 2.12-1.479 3.52-1.479m-24.56 0c1.41 0 2.58.493 3.53 1.479.94.986 1.42 2.236 1.42 3.749s-.48 2.762-1.42 3.748c-.95.987-2.12 1.48-3.53 1.48-1.4 0-2.58-.493-3.52-1.48-.95-.986-1.42-2.235-1.42-3.748s.47-2.763 1.42-3.749c.94-.986 2.12-1.479 3.52-1.479"/><text x="1340.85" y="648.317" fill-opacity="0" font-family="Arial,Arial_MSFontService,sans-serif" font-size="10.456">⋯</text><path fill="#fff" fill-rule="evenodd" d="M1494.13 639.613c-1.33 0-2.57.196-3.73.588s-2.19.919-3.08 1.581q-1.335.993-1.8 1.621c-.32.419-.54 1.02-.67 1.803q-.21 1.176-.21 4.134 0 7.416 2.07 11.145c1.38 2.486 3.49 3.729 6.32 3.729 2.89 0 5.06-1.047 6.49-3.141s2.15-5.33 2.15-9.707c0-3.863-.65-6.788-1.93-8.774q-1.92-2.979-5.61-2.979m10.53-27.477 2.19 2.796v2.513c-5.91.135-10.71 1.966-14.38 5.491-3.68 3.526-6.12 8.572-7.34 15.137l.41.163q3.15-2.189 6.36-3.202c2.13-.676 4.47-1.013 7.01-1.013 3.11 0 5.77.682 8 2.046 2.23 1.365 3.91 3.29 5.05 5.775 1.13 2.486 1.7 5.377 1.7 8.673 0 3.594-.75 6.762-2.27 9.504q-2.265 4.113-6.99 6.424c-3.15 1.54-7 2.31-11.57 2.31q-6.285 0-10.8-2.513c-3.01-1.675-5.32-4.147-6.91-7.417s-2.39-7.24-2.39-11.915q0-9.483 3.99-17.143c2.66-5.106 6.44-9.213 11.33-12.32s10.43-4.877 16.61-5.309m-57.83 0h5.19c-.17 2.594-.25 6.187-.25 10.78v33.881q0 2.35.27 3.546.255 1.196.93 1.946.675.749 1.92 1.175c.84.283 1.9.5 3.17.648s2.94.25 5.02.304v3.688h-34.97v-3.688c2.99-.135 5.14-.317 6.42-.547q1.92-.345 2.94-1.033c.67-.46 1.17-1.108 1.48-1.946s.46-2.202.46-4.093v-29.301q0-1.662-.63-2.391c-.41-.487-.99-.73-1.72-.73-.67 0-1.63.311-2.85.932q-1.845.933-6.06 3.81l-2.48-4.296Z"/><text x="1425.67" y="661.676" fill-opacity="0" font-family="Arial,Arial_MSFontService,sans-serif" font-size="56.617">𝟏𝟔</text><path fill="#fff" fill-rule="evenodd" d="M1551.88 658.702h7.09c.38 1.891.56 3.755.56 5.593 0 1.891-.32 3.62-.97 5.187s-1.68 3.127-3.1 4.681q-2.13 2.33-5.85 5.127l-2.19-2.472q2.055-1.946 3-3.506c.62-1.04 1.06-2.222 1.33-3.546s.41-2.986.41-4.985c0-2.053-.1-4.08-.28-6.079"/><text x="1547.42" y="676.716" fill-opacity="0" font-family="Arial,Arial_MSFontService,sans-serif" font-size="20.588">,</text><path fill="#fff" fill-rule="evenodd" d="M1588.61 612.784h20.63l-.61 2.675c-1.16.108-2.01.466-2.53 1.074-.53.608-.79 1.398-.79 2.371 0 .811.14 1.776.44 2.898q.45 1.682 1.38 4.032l2.55 6.728 5.43-6.728c1.73-2.161 2.93-3.789 3.61-4.883.68-1.095 1.01-2.006 1.01-2.736q0-1.378-.69-1.966c-.46-.391-1.21-.655-2.27-.79l.61-2.675h16.86l-.61 2.716c-.64.108-1.29.364-1.94.77-.65.405-1.53 1.162-2.66 2.269-1.12 1.108-2.97 3.175-5.57 6.201l-11.63 13.496 7.17 18.683c1.08 2.837 2.05 4.883 2.9 6.14q1.275 1.884 3.39 2.37l-.57 2.675h-20.67l.57-2.675c2.13-.216 3.2-1.188 3.2-2.918 0-.972-.12-1.958-.37-2.958q-.36-1.5-1.05-3.323l-3.61-9.524-8.39 10.01c-1.24 1.486-2.12 2.661-2.63 3.526s-.77 1.716-.77 2.553q0 2.432 3 2.634l-.57 2.675h-16.9l.57-2.675q1.665-.445 3.3-1.864c1.1-.945 3.17-3.161 6.22-6.646l13.98-15.806-6.2-16.373a105 105 0 0 0-1.56-3.769c-.6-1.405-1.16-2.479-1.66-3.222s-.98-1.277-1.46-1.601c-.47-.324-1.04-.554-1.72-.689Z"/><text x="1576.53" y="661.189" fill-opacity="0" font-family="Arial,Arial_MSFontService,sans-serif" font-size="55.32">𝑿</text><path fill="#fff" fill-rule="evenodd" d="M1695.66 605.782h18.07v77.286h-18.07v-3.121H1707v-71.044h-11.34Zm-51.75 0h18.08v3.121h-11.35v71.044h11.35v3.121h-18.08Zm39.13 21.673h4.62l-6.48 27.883a39 39 0 0 0-.55 2.634c-.09.622-.14 1.324-.14 2.108 0 1.053.17 1.783.53 2.188q.525.608 1.5.608c.78 0 1.66-.371 2.63-1.114s2.12-1.871 3.44-3.384l2.92 2.918q-3.975 4.052-7.11 5.754c-2.09 1.135-4.4 1.703-6.91 1.703-2.86 0-4.96-.703-6.28-2.108-1.33-1.405-1.99-3.526-1.99-6.363 0-1.81.3-3.931.89-6.362l3.41-14.104q.93-3.85.93-6.079 0-1.58-.75-2.249c-.5-.446-1.55-.75-3.14-.912l.61-2.675Zm-2.96-15.724h10.38l-2.11 9.929h-10.5Z"/><text x="1669.22" y="661.625" fill-opacity="0" font-family="Arial,Arial_MSFontService,sans-serif" font-size="57.022">𝒊</text><text fill="#fff" font-family="Microsoft YaHei,Microsoft YaHei_MSFontService,sans-serif" font-size="83" font-weight="700" transform="translate(1323.01 817)">16<tspan x="101.979" y="0">步</tspan></text><path fill-rule="evenodd" d="M1440.08 29.702h16.77l-.44 1.986c-1.19.135-2.12.487-2.78 1.054s-1.13 1.358-1.4 2.37c-.27 1.014-.4 2.372-.4 4.074q0 .607.12 3.647l1.14 29.666v3.243h.4l17.55-31.652q1.545-2.797 2.31-4.803c.51-1.337.77-2.52.77-3.546q0-3.404-4.05-4.053l.44-1.986h16.58l-.45 1.986c-.73.108-1.42.385-2.08.831-.67.446-1.41 1.189-2.23 2.23-.83 1.04-2.1 3.045-3.83 6.017l-25.94 44.905h-5.39l-2.72-45.188c-.1-1.756-.3-3.263-.58-4.52-.29-1.255-.73-2.235-1.34-2.937-.61-.703-1.58-1.149-2.9-1.338Zm-18.81-.648c2.46 0 4.73.149 6.83.446q3.135.446 6.99 1.62l-2.43 10.984h-3.89c-.22-3.323-.94-5.721-2.17-7.194q-1.845-2.208-5.94-2.208c-3.73 0-7.19 1.864-10.39 5.592-3.21 3.729-5.74 8.653-7.6 14.773-1.87 6.12-2.8 11.8-2.8 17.041q0 6.16 2.19 9.078c1.46 1.946 3.7 2.918 6.73 2.918q3.03 0 5.31-.912c1.51-.607 2.93-1.634 4.25-3.08q1.995-2.168 3.93-6.058h3.89l-2.47 11.51c-5.05 1.404-10.35 2.107-15.89 2.107-5.08 0-8.94-1.46-11.59-4.377-2.64-2.918-3.97-7.187-3.97-12.807q0-5.958 2.13-13.739c1.42-5.187 3.42-9.74 6.02-13.657 2.59-3.918 5.66-6.904 9.2-8.957q5.31-3.08 11.67-3.08"/><text x="1392.25" y="78.594" fill-opacity="0" font-family="Arial,Arial_MSFontService,sans-serif" font-size="56.617">𝐶𝑉</text><path fill-rule="evenodd" d="M1489.27 74.404c-1.17 0-2.26.253-3.26.76q-1.5.759-2.76 2.085c-.83.883-1.57 1.906-2.23 3.068a21 21 0 0 0-1.65 3.723q-.675 1.98-1.02 4.05c-.22 1.38-.34 2.726-.34 4.036 0 2.145.3 3.738.91 4.78s1.58 1.564 2.93 1.564q1.41 0 3.06-.968 1.65-.967 3.21-2.725c1.05-1.171 1.99-2.586 2.85-4.244.85-1.658 1.5-3.5 1.93-5.525q.39-1.61.66-3.232t.27-2.934c0-1.608-.36-2.75-1.09-3.425-.72-.675-1.88-1.013-3.47-1.013m-.54-2.949c1.51 0 2.87.184 4.07.551s2.31.87 3.32 1.505l2.83-2.056 2.41.626c-1.31 5.897-2.6 11.735-3.88 17.513s-2.48 11.22-3.59 16.323q-.57 2.055-.57 3.336 0 1.102.84 1.563.825.462 2.85.641l-.41 1.966h-10.22c.84-3.257 1.61-6.28 2.34-9.07q1.08-4.185 2.37-9.07l-.48-.119c-.99 1.291-1.96 2.393-2.9 3.307-.95.913-1.87 1.663-2.77 2.248-.91.586-1.81 1.013-2.71 1.281q-1.365.402-2.73.402c-2.36 0-4.19-.849-5.48-2.546-1.29-1.698-1.94-4.165-1.94-7.402 0-1.926.21-3.778.62-5.555.4-1.777.98-3.445 1.72-5.004a22 22 0 0 1 2.67-4.26 18.5 18.5 0 0 1 3.39-3.29 15.7 15.7 0 0 1 3.94-2.13 12.5 12.5 0 0 1 4.31-.76"/><text x="1472.08" y="108.177" fill-opacity="0" font-family="Arial,Arial_MSFontService,sans-serif" font-size="41.967">𝑞</text><path d="M1466 130.5v198.63H766.5l4.583-4.584v152.796h-9.166V319.963h699.493l-4.58 4.583V130.5ZM789.417 472.759 766.5 518.592l-22.917-45.833Z"/><path fill="#d74514" d="M745 518h41v54h-41zm444-1h42v54h-42zm444 0h42v54h-42zm444 0h42v54h-42z"/><path d="M1465.84 130.5v198.295H1210.5l4.58-4.583v152.462h-9.16V319.629h255.34l-4.59 4.583V130.5Zm-232.42 341.591-22.92 45.833-22.92-45.833Z"/><path d="M1456.917 130.5v198.295h197.98l-4.584-4.583v152.462h9.167V319.629H1461.5l4.583 4.583V130.5Zm175.063 341.59 22.917 45.834 22.916-45.834Z"/><path d="M1456.917 130.5v198.296h642.135l-4.584-4.584v152.462h9.167V319.629H1461.5l4.583 4.583V130.5Zm619.218 341.59 22.917 45.834 22.916-45.834Z"/><path fill-rule="evenodd" d="m838.445 404.327-14.428 25.532h15.846l-.689-13.05a278 278 0 0 1-.203-6.687 325 325 0 0 1-.081-5.795Zm.243-8.552h6.119l2.918 45.188q.203 3.202.73 5.005.527 1.804 1.439 2.675.911.872 2.654 1.115l-.446 1.986h-16.859l.446-1.986q2.391-.203 3.566-1.865 1.176-1.661 1.175-5.835 0-1.58-.121-3.445l-.284-5.228h-17.832l-2.229 3.971q-1.581 2.797-2.31 4.803t-.729 3.546q0 3.404 4.093 4.053l-.446 1.986h-16.576l.446-1.986q1.257-.162 2.371-.993t2.371-2.513 3.526-5.572Z"/><text x="803.996" y="444.748" fill-opacity="0" font-family="Arial,Arial_MSFontService,sans-serif" font-size="55.968">𝐴</text><path fill-rule="evenodd" d="m1269.11 422.046-5.02 23.222c1.64.108 3.67.162 6.07.162q6.165 0 9.27-1.398c2.06-.932 3.84-2.587 5.32-4.964 1.49-2.378 2.23-5.309 2.23-8.795 0-2.729-.89-4.782-2.69-6.16s-4.48-2.067-8.05-2.067Zm12-24.803q-3.525 0-6.57.122l-4.58 21.115h5.72c3.18 0 5.72-.257 7.6-.77a11.8 11.8 0 0 0 4.96-2.756q2.145-1.986 3.12-4.357c.65-1.58.97-3.411.97-5.491q0-1.743-.6-3.263c-.41-1.013-1.11-1.877-2.09-2.593-.99-.716-2.12-1.23-3.41-1.54-1.28-.311-2.99-.467-5.12-.467m-18.2-3.566h20.06q6.075 0 9.75 1.277c2.44.851 4.24 2.1 5.39 3.748s1.72 3.715 1.72 6.201q0 5.31-3.24 9.261c-2.16 2.634-5.38 4.654-9.65 6.058l-.08.446c2.51 1 4.45 2.425 5.8 4.276s2.02 3.951 2.02 6.302c0 3.593-.82 6.667-2.47 9.22q-2.475 3.83-7.41 6.18c-3.3 1.567-8.12 2.351-14.47 2.351h-18.04l.45-1.986q1.53-.243 2.31-.79c.51-.365.94-.872 1.3-1.52.35-.648.67-1.439.97-2.371.29-.932.74-2.735 1.34-5.41l6.88-31.206q.9-4.053.9-6.404c0-1.324-.31-2.242-.94-2.756-.62-.513-1.63-.81-3.04-.891Z"/><text x="1252.29" y="442.082" fill-opacity="0" font-family="Arial,Arial_MSFontService,sans-serif" font-size="55.32">𝐵</text><path fill-rule="evenodd" d="M1733.67 393.029c2.45 0 4.73.148 6.82.445 2.1.298 4.43.838 7 1.621l-2.44 10.983h-3.89c-.21-3.323-.94-5.721-2.17-7.193-1.22-1.473-3.2-2.209-5.93-2.209-3.73 0-7.2 1.864-10.4 5.593s-5.73 8.652-7.6 14.772q-2.79 9.18-2.79 17.042 0 6.16 2.19 9.078c1.45 1.945 3.7 2.918 6.72 2.918q3.045 0 5.31-.912c1.52-.608 2.93-1.635 4.26-3.08q1.98-2.169 3.93-6.059h3.89l-2.47 11.51c-5.06 1.405-10.35 2.107-15.89 2.107-5.08 0-8.94-1.459-11.59-4.377s-3.97-7.187-3.97-12.806q0-5.958 2.13-13.739c1.41-5.188 3.42-9.74 6.01-13.658 2.6-3.917 5.66-6.903 9.2-8.956s7.43-3.08 11.68-3.08"/><text x="1704.65" y="442.568" fill-opacity="0" font-family="Arial,Arial_MSFontService,sans-serif" font-size="56.617">𝐶</text><path fill-rule="evenodd" d="M2171.5 397.203c-1.19 0-2.47.04-3.85.121l-10.5 47.944q1.185.122 4.5.122c4.38 0 8.09-.763 11.15-2.29 3.05-1.526 5.68-3.918 7.9-7.173 2.21-3.256 3.85-6.687 4.9-10.294 1.06-3.607 1.58-7.41 1.58-11.409 0-5.646-1.31-9.895-3.95-12.745q-3.945-4.276-11.73-4.276m-15.48-3.526h15.36q6.12 0 9.93.932 3.81.933 7.11 3.364c2.2 1.621 3.86 3.776 4.96 6.464 1.11 2.688 1.67 5.87 1.67 9.544q0 5.472-1.26 10.456c-.84 3.324-2.04 6.383-3.61 9.18s-3.44 5.228-5.63 7.295q-3.285 3.1-6.36 4.762c-2.06 1.107-4.35 1.938-6.89 2.492q-3.81.831-8.88.831h-17.02l.45-1.986q1.53-.243 2.31-.79.765-.548 1.29-1.52c.35-.648.68-1.439.97-2.371.3-.932.75-2.735 1.34-5.41l6.89-31.206c.6-2.702.89-4.877.89-6.525 0-1.27-.31-2.155-.95-2.655-.63-.5-1.64-.79-3.02-.871Z"/><text x="2145.4" y="442.082" fill-opacity="0" font-family="Arial,Arial_MSFontService,sans-serif" font-size="55.32">𝐷</text><path fill="#d74514" d="M745 821h41v54h-41zm444 0h42v54h-42zm444 0h42v54h-42zm444 0h42v54h-42zM571 1054h1713v359H571z"/><path fill="#fff" fill-rule="evenodd" d="M1039.15 1148.39c5.73 0 10.86.77 15.4 2.31l-2.47 11.59h-5.31q0-3.525-.75-5.49c-.5-1.32-1.26-2.25-2.29-2.82s-2.4-.85-4.13-.85c-3.6 0-6.82 1.65-9.69 4.96-2.86 3.31-5.29 8.18-7.29 14.59-2 6.42-3 12.19-3 17.33 0 6.83 2.25 10.25 6.77 10.25 2.16 0 3.94-.68 5.35-2.05 1.4-1.36 2.43-3.47 3.08-6.34l.56-2.55c.22-1 .35-1.83.41-2.49.05-.67.08-1.27.08-1.81 0-1.11-.26-1.94-.77-2.49s-1.39-.91-2.63-1.07l.56-2.68h19.78l-.57 2.68c-1.05.35-1.83.77-2.35 1.27q-.765.75-1.38 2.19c-.4.96-.85 2.56-1.33 4.8l-3.12 13.99-5.6 1.29-2.14-2.87c-3.54 1.91-7.23 2.87-11.07 2.87-5.67 0-10.03-1.59-13.07-4.78s-4.56-7.79-4.56-13.82c0-3.73.64-7.99 1.91-12.79 1.27-4.79 3.23-9.11 5.89-12.96s6.01-6.86 10.03-9.02c4.03-2.16 8.6-3.24 13.7-3.24"/><text x="1007.62" y="1197.93" fill-opacity="0" font-family="Arial,Arial_MSFontService,sans-serif" font-size="56.617">𝑮</text><path fill="#fff" fill-rule="evenodd" d="M1063.15 1194.95h7.1c.37 1.89.56 3.76.56 5.59 0 1.9-.32 3.63-.97 5.19-.65 1.57-1.68 3.13-3.1 4.68-1.42 1.56-3.37 3.27-5.86 5.13l-2.18-2.47q2.055-1.95 3-3.51c.62-1.04 1.06-2.22 1.33-3.54.27-1.33.41-2.99.41-4.99 0-2.05-.1-4.08-.29-6.08"/><text x="1058.7" y="1212.97" fill-opacity="0" font-family="Arial,Arial_MSFontService,sans-serif" font-size="20.588">,</text><path fill="#fff" fill-rule="evenodd" d="M1094.54 1149.03h44.66l-3.2 14.68h-5.19c-.03-3-.2-5.1-.53-6.31-.32-1.2-.84-2.1-1.56-2.71-.71-.61-1.72-.91-3.02-.91h-3.6l-8.72 39.63c-.19.89-.32 1.65-.4 2.27s-.12 1.45-.12 2.47c0 1.25.31 2.12.95 2.64.63.51 1.63.81 2.98.89l-.57 2.67h-21.52l.57-2.67c1.19-.16 2.13-.51 2.83-1.05.71-.54 1.29-1.35 1.77-2.42q.705-1.59 1.44-4.8l8.71-39.63h-3.24c-1.49 0-2.69.22-3.61.66-.92.45-1.95 1.38-3.08 2.8s-2.23 3.29-3.28 5.61h-5.31Z"/><text x="1091.5" y="1197.44" fill-opacity="0" font-family="Arial,Arial_MSFontService,sans-serif" font-size="55.32">𝑻</text><path fill="#fff" fill-rule="evenodd" d="M1465.89 1142.03h18.08v77.29h-18.08v-3.12h11.35v-71.05h-11.35Zm-316.43 0h18.08v3.12h-11.35v71.05h11.35v3.12h-18.08Zm75.04 7h38.83v2.68l-22.5 52.77h-8.3v-2.8l20.34-41.22v-.6h-18.03c-1.3 0-2.35.12-3.16.36-.82.24-1.48.71-2.01 1.4s-1.03 2.1-1.52 4.23h-4.7Zm-27.6-.64h5.19c-.16 2.59-.25 6.18-.25 10.78v33.88c0 1.56.09 2.75.27 3.54q.255 1.2.93 1.95c.45.5 1.09.89 1.93 1.17.83.29 1.89.5 3.16.65s2.94.25 5.02.31v3.68h-34.97v-3.68c3-.14 5.14-.32 6.42-.55s2.26-.58 2.94-1.03c.67-.46 1.17-1.11 1.48-1.95s.46-2.2.46-4.09v-29.3c0-1.11-.21-1.91-.62-2.4-.42-.48-1-.72-1.73-.72q-1.005 0-2.85.93t-6.06 3.81l-2.48-4.3Z"/><text x="1175.74" y="1197.46" fill-opacity="0" font-family="Arial,Arial_MSFontService,sans-serif" font-size="56.09">𝟏𝟕</text><path fill="#fff" fill-rule="evenodd" d="M1341.49 1175.42c1.41 0 2.58.49 3.53 1.48.94.98 1.42 2.23 1.42 3.75 0 1.51-.48 2.76-1.42 3.74-.95.99-2.12 1.48-3.53 1.48-1.4 0-2.58-.49-3.52-1.48-.95-.98-1.42-2.23-1.42-3.74 0-1.52.47-2.77 1.42-3.75.94-.99 2.12-1.48 3.52-1.48m-24.56 0c1.41 0 2.58.49 3.53 1.48.94.98 1.42 2.23 1.42 3.75 0 1.51-.48 2.76-1.42 3.74-.95.99-2.12 1.48-3.53 1.48-1.4 0-2.58-.49-3.52-1.48-.95-.98-1.42-2.23-1.42-3.74 0-1.52.47-2.77 1.42-3.75.94-.99 2.12-1.48 3.52-1.48m-24.56 0c1.41 0 2.58.49 3.53 1.48.94.98 1.42 2.23 1.42 3.75 0 1.51-.48 2.76-1.42 3.74-.95.99-2.12 1.48-3.53 1.48-1.4 0-2.58-.49-3.52-1.48-.95-.98-1.42-2.23-1.42-3.74 0-1.52.47-2.77 1.42-3.75.94-.99 2.12-1.48 3.52-1.48"/><text x="1287.43" y="1184.57" fill-opacity="0" font-family="Arial,Arial_MSFontService,sans-serif" font-size="10.456">⋯</text><path fill="#fff" fill-rule="evenodd" d="M1439.25 1148.39c3.97 0 7.21.53 9.73 1.6 2.51 1.06 4.33 2.51 5.45 4.33 1.12 1.83 1.68 3.95 1.68 6.39 0 2.13-.4 4.12-1.2 5.95-.79 1.84-2.17 3.93-4.13 6.29-1.96 2.35-5.26 5.71-9.91 10.09-1.43 1.35-3.14 3.12-5.13 5.33-1.98 2.2-3.56 4.08-4.72 5.65v.4h14.39c1.76 0 3.07-.12 3.93-.38.87-.26 1.55-.7 2.05-1.34q.75-.945 1.23-2.85h4.66l-.93 14.5h-37.12v-2.67c2.08-4.78 6.33-10.94 12.77-18.48 2.91-3.43 5.14-6.26 6.66-8.47 1.53-2.22 2.67-4.31 3.43-6.28.75-1.98 1.13-4.02 1.13-6.12 0-2.97-.66-5.31-1.98-6.99-1.33-1.69-3.14-2.54-5.44-2.54-4.4 0-7.22 3.18-8.47 9.53h-7.29v-9.57c4.4-1.78 7.96-2.96 10.66-3.52 2.7-.57 5.55-.85 8.55-.85m-48.88 0q7.665 0 12.24 3.12c3.05 2.08 4.58 4.98 4.58 8.71 0 3.13-.9 5.84-2.7 8.11-1.79 2.26-4.8 4.37-9.01 6.32v.36c3.94.73 7.06 2.31 9.34 4.74 2.28 2.44 3.42 5.45 3.42 9.04 0 3.14-.76 5.93-2.29 8.37-1.52 2.45-3.84 4.36-6.95 5.76-3.1 1.39-6.87 2.08-11.3 2.08-3.06 0-6.06-.27-9-.83-2.95-.55-5.51-1.33-7.7-2.33v-10.17h7.29c.79 3.08 1.9 5.31 3.33 6.71 1.43 1.39 3.31 2.08 5.63 2.08 5.73 0 8.59-3.54 8.59-10.61 0-3.81-1-6.65-3.02-8.52q-3.015-2.79-9.18-2.79h-3.2v-4.62c4.7-.19 8.27-1.29 10.7-3.3 2.43-2.02 3.65-4.93 3.65-8.74 0-3-.61-5.26-1.83-6.79-1.21-1.52-2.98-2.29-5.3-2.29-2.27 0-4.14.81-5.6 2.43-1.46 1.63-2.46 4-3 7.14h-7.29v-9.61c6.83-2.92 13.04-4.37 18.6-4.37"/><text x="1371" y="1197.93" fill-opacity="0" font-family="Arial,Arial_MSFontService,sans-serif" font-size="56.617">𝟑𝟐</text><path fill="#fff" fill-rule="evenodd" d="M1498.46 1194.95h7.09c.38 1.89.57 3.76.57 5.59 0 1.9-.33 3.63-.98 5.19-.65 1.57-1.68 3.13-3.1 4.68q-2.13 2.34-5.85 5.13l-2.19-2.47q2.07-1.95 3-3.51c.62-1.04 1.06-2.22 1.33-3.54.27-1.33.41-2.99.41-4.99 0-2.05-.09-4.08-.28-6.08"/><text x="1494" y="1212.97" fill-opacity="0" font-family="Arial,Arial_MSFontService,sans-serif" font-size="20.588">,</text><path fill="#fff" fill-rule="evenodd" d="M1535.19 1149.03h20.63l-.61 2.68c-1.16.11-2.01.47-2.53 1.07-.53.61-.79 1.4-.79 2.37 0 .81.15 1.78.44 2.9.3 1.12.76 2.47 1.38 4.03l2.55 6.73 5.43-6.73c1.73-2.16 2.94-3.79 3.61-4.88.68-1.09 1.01-2.01 1.01-2.74 0-.91-.23-1.57-.68-1.96-.46-.39-1.22-.66-2.27-.79l.6-2.68h16.86l-.6 2.72c-.65.11-1.3.36-1.95.77-.65.4-1.53 1.16-2.65 2.27-1.13 1.11-2.98 3.17-5.58 6.2l-11.63 13.5 7.17 18.68c1.09 2.84 2.05 4.88 2.9 6.14.85 1.25 1.98 2.05 3.39 2.37l-.57 2.67h-20.67l.57-2.67c2.13-.22 3.2-1.19 3.2-2.92 0-.97-.12-1.96-.37-2.96-.24-1-.59-2.1-1.05-3.32l-3.61-9.52-8.39 10.01c-1.24 1.48-2.12 2.66-2.63 3.52-.51.87-.77 1.72-.77 2.56 0 1.62 1 2.49 3 2.63l-.57 2.67h-16.9l.57-2.67q1.665-.45 3.3-1.86c1.1-.95 3.17-3.17 6.22-6.65l13.99-15.81-6.21-16.37c-.43-1.11-.95-2.36-1.56-3.77-.6-1.4-1.16-2.48-1.66-3.22s-.98-1.28-1.46-1.6c-.47-.33-1.04-.56-1.72-.69Z"/><text x="1523.11" y="1197.44" fill-opacity="0" font-family="Arial,Arial_MSFontService,sans-serif" font-size="55.32">𝑿</text><path fill="#fff" fill-rule="evenodd" d="M1801.21 1142.03h18.08v77.29h-18.08v-3.12h11.35v-71.05h-11.35Zm-210.71 0h18.07v3.12h-11.35v71.05h11.35v3.12h-18.07Zm51.52 25.69q-1.935 0-3.48.81c-1.03.54-2 1.41-2.92 2.61s-1.79 2.89-2.61 5.05c-.83 2.16-1.6 4.83-2.33 8.02l-2.11 9.2c-.22.95-.32 1.78-.32 2.51 0 1.49.53 2.67 1.6 3.55 1.06.88 2.48 1.32 4.23 1.32 1.38 0 2.66-.34 3.83-1.02 1.18-.67 2.26-1.74 3.26-3.22 1-1.47 1.92-3.56 2.76-6.26.65-2.13 1.2-4.32 1.66-6.56.57-2.9.85-5.77.85-8.64 0-2.59-.36-4.47-1.09-5.63q-1.095-1.74-3.33-1.74m.37-4.22c4.81 0 8.52 1.29 11.12 3.87 2.61 2.58 3.92 6.21 3.92 10.88q0 7.38-2.82 13.62t-7.92 9.69c-3.41 2.29-7.34 3.44-11.8 3.44-3.67 0-6.51-.54-8.51-1.62l-4.01 18.44h-11.63l7.94-36.03c1.65-7.54 4.45-13.13 8.39-16.8 3.94-3.66 9.05-5.49 15.32-5.49"/><text x="1610.74" y="1214.53" fill-opacity="0" font-family="Arial,Arial_MSFontService,sans-serif" font-size="58.319">𝝆</text><path fill="#fff" fill-rule="evenodd" d="M1679.23 1180.06c2.92 0 5.3.4 7.15 1.18 1.84.79 3.18 1.85 4 3.19.83 1.34 1.24 2.9 1.24 4.69 0 1.57-.29 3.03-.88 4.38s-1.6 2.89-3.04 4.61c-1.44 1.73-3.86 4.2-7.28 7.42-1.05.99-2.31 2.3-3.77 3.92s-2.61 3-3.47 4.15v.3h10.58c1.29 0 2.25-.09 2.89-.28q.945-.285 1.5-.99c.37-.46.67-1.16.91-2.1h3.42l-.68 10.67h-27.29v-1.97c1.53-3.51 4.66-8.04 9.39-13.58 2.14-2.52 3.77-4.6 4.9-6.23 1.12-1.62 1.96-3.16 2.51-4.61q.84-2.175.84-4.5c0-2.18-.49-3.9-1.46-5.14s-2.31-1.86-3.99-1.86c-3.24 0-5.31 2.33-6.23 7h-5.36v-7.03c3.24-1.31 5.85-2.17 7.83-2.59 1.99-.42 4.08-.63 6.29-.63"/><text x="1664.51" y="1216.06" fill-opacity="0" font-family="Arial,Arial_MSFontService,sans-serif" font-size="41.133">𝟐</text><path fill="#fff" fill-rule="evenodd" d="M1767.86 1142.24c7.89 2.08 13.95 6.57 18.18 13.48 4.23 6.9 6.34 15.23 6.34 24.98 0 9.78-2.1 18.11-6.32 24.99-4.21 6.87-10.28 11.35-18.2 13.43l-.97-3.12c6.24-2.08 10.88-6.19 13.92-12.32s4.56-13.93 4.56-23.38c0-9.14-1.51-16.72-4.54-22.76-3.02-6.04-7.71-10.1-14.06-12.18Zm-35.42 0 1.1 3.12c-6.33 2.08-11.01 6.14-14.05 12.18s-4.56 13.62-4.56 22.76c0 9.45 1.52 17.25 4.56 23.38s7.68 10.24 13.92 12.32l-.97 3.12c-7.91-2.08-13.98-6.56-18.2-13.43-4.21-6.88-6.32-15.21-6.32-24.99 0-9.75 2.12-18.08 6.35-24.98 4.22-6.91 10.28-11.4 18.17-13.48m21.92 21.47h4.62l-6.49 27.88c-.27 1.13-.45 2.01-.54 2.63-.1.62-.14 1.33-.14 2.11 0 1.05.17 1.78.52 2.19.35.4.85.61 1.5.61.79 0 1.66-.38 2.64-1.12.97-.74 2.12-1.87 3.44-3.38l2.92 2.92c-2.65 2.7-5.02 4.62-7.11 5.75-2.1 1.14-4.4 1.7-6.91 1.7-2.87 0-4.96-.7-6.29-2.1-1.32-1.41-1.98-3.53-1.98-6.37 0-1.81.3-3.93.89-6.36l3.4-14.1c.63-2.57.94-4.6.94-6.08q0-1.59-.75-2.25c-.5-.45-1.55-.75-3.14-.91l.6-2.68Zm-2.96-15.73h10.38l-2.11 9.93h-10.5Z"/><text x="1740.54" y="1197.87" fill-opacity="0" font-family="Arial,Arial_MSFontService,sans-serif" font-size="57.022">𝒊</text><text fill="#fff" font-family="Microsoft YaHei,Microsoft YaHei_MSFontService,sans-serif" font-size="83" font-weight="700" transform="translate(1323.01 1353)">16<tspan x="101.979" y="0">步</tspan></text><path fill="#d74514" d="M745 1054h41v54h-41zm444 0h42v53h-42zm444 0h42v53h-42zm444 0h42v53h-42zM745 1358h41v54h-41zm444-1h42v54h-42zm444 0h42v54h-42zm444 0h42v54h-42zM571 1583h1713v360H571z"/><path fill="#fff" fill-rule="evenodd" d="M1011.02 1678.95h20.39l-.57 2.68c-1.54.43-2.67 1.19-3.4 2.27s-1.42 3.08-2.07 5.99l-2.84 12.85h17.19l2.83-12.85c.35-1.59.53-3.17.53-4.74 0-1.13-.26-1.96-.79-2.49s-1.39-.87-2.57-1.03l.56-2.68h20.39l-.57 2.68c-1.54.43-2.67 1.19-3.4 2.27s-1.42 3.08-2.07 5.99l-7.38 33.44c-.19.86-.32 1.61-.4 2.25q-.12.945-.12 2.49c0 1.14.26 1.97.79 2.49.52.53 1.38.88 2.57 1.04l-.57 2.67h-20.38l.57-2.67c1.54-.43 2.67-1.19 3.4-2.27q1.095-1.62 2.07-6l3.4-15.48h-17.18l-3.41 15.48c-.19.89-.32 1.65-.4 2.27s-.12 1.44-.12 2.47c0 1.14.26 1.97.79 2.49.52.53 1.38.88 2.57 1.04l-.57 2.67h-20.383l.563-2.67c1.54-.43 2.68-1.19 3.41-2.27q1.095-1.62 2.07-6l7.37-33.44c.35-1.59.53-3.17.53-4.74 0-1.13-.26-1.96-.79-2.49s-1.39-.87-2.57-1.03Z"/><text x="999.877" y="1727.36" fill-opacity="0" font-family="Arial,Arial_MSFontService,sans-serif" font-size="55.32">𝑯</text><path fill="#fff" fill-rule="evenodd" d="M1067.74 1724.87h7.09c.38 1.89.57 3.76.57 5.59 0 1.89-.33 3.62-.98 5.19-.64 1.57-1.68 3.13-3.1 4.68-1.41 1.55-3.37 3.26-5.85 5.13l-2.19-2.47q2.07-1.95 3-3.51c.62-1.04 1.07-2.22 1.34-3.55.27-1.32.4-2.98.4-4.98 0-2.05-.09-4.08-.28-6.08"/><text x="1063.28" y="1742.88" fill-opacity="0" font-family="Arial,Arial_MSFontService,sans-serif" font-size="20.588">,</text><path fill="#fff" fill-rule="evenodd" d="M1099.12 1678.95h44.66l-3.2 14.67h-5.19c-.02-3-.2-5.1-.52-6.3-.33-1.2-.85-2.11-1.56-2.71-.72-.61-1.73-.92-3.02-.92h-3.61l-8.71 39.64c-.19.89-.33 1.65-.41 2.27s-.12 1.44-.12 2.47c0 1.24.32 2.12.95 2.64.64.51 1.63.81 2.98.89l-.57 2.67h-21.52l.57-2.67c1.19-.16 2.13-.52 2.84-1.06.7-.54 1.29-1.34 1.76-2.41.47-1.06.95-2.67 1.44-4.8l8.71-39.64h-3.24c-1.49 0-2.69.23-3.61.67-.92.45-1.94 1.38-3.08 2.8-1.13 1.42-2.23 3.29-3.28 5.61h-5.31Z"/><text x="1096.08" y="1727.36" fill-opacity="0" font-family="Arial,Arial_MSFontService,sans-serif" font-size="55.32">𝑻</text><path fill="#fff" fill-rule="evenodd" d="M1470.48 1671.95h18.07v77.29h-18.07v-3.12h11.34v-71.05h-11.34Zm-316.43 0h18.07v3.12h-11.35v71.05h11.35v3.12h-18.07Zm93.39 6.35q7.665 0 12.24 3.12c3.06 2.09 4.58 4.99 4.58 8.72 0 3.13-.9 5.83-2.69 8.1-1.8 2.27-4.8 4.38-9.02 6.33v.36c3.95.73 7.06 2.31 9.34 4.74 2.29 2.43 3.43 5.45 3.43 9.04 0 3.13-.77 5.92-2.29 8.37-1.53 2.44-3.85 4.36-6.95 5.75-3.11 1.39-6.88 2.09-11.31 2.09-3.05 0-6.05-.28-9-.83-2.94-.55-5.51-1.33-7.7-2.33v-10.17h7.3c.78 3.08 1.89 5.31 3.32 6.7 1.43 1.4 3.31 2.09 5.63 2.09 5.73 0 8.6-3.54 8.6-10.62 0-3.81-1.01-6.64-3.02-8.51q-3.03-2.79-9.18-2.79h-3.21v-4.62c4.71-.19 8.27-1.29 10.7-3.31 2.44-2.01 3.65-4.92 3.65-8.73 0-3-.61-5.26-1.82-6.79-1.22-1.53-2.99-2.29-5.31-2.29-2.27 0-4.14.81-5.59 2.43q-2.19 2.43-3 7.14h-7.3v-9.61q10.26-4.38 18.6-4.38m-49 0q7.665 0 12.24 3.12c3.06 2.09 4.58 4.99 4.58 8.72 0 3.13-.9 5.83-2.69 8.1-1.8 2.27-4.8 4.38-9.02 6.33v.36c3.95.73 7.06 2.31 9.34 4.74 2.29 2.43 3.43 5.45 3.43 9.04 0 3.13-.77 5.92-2.29 8.37-1.53 2.44-3.85 4.36-6.95 5.75-3.11 1.39-6.88 2.09-11.31 2.09-3.05 0-6.05-.28-9-.83-2.94-.55-5.51-1.33-7.7-2.33v-10.17h7.3c.78 3.08 1.89 5.31 3.32 6.7 1.43 1.4 3.31 2.09 5.63 2.09 5.73 0 8.6-3.54 8.6-10.62 0-3.81-1.01-6.64-3.02-8.51q-3.03-2.79-9.18-2.79h-3.21v-4.62c4.71-.19 8.27-1.29 10.7-3.31 2.44-2.01 3.65-4.92 3.65-8.73 0-3-.61-5.26-1.82-6.79-1.22-1.53-2.99-2.29-5.31-2.29-2.27 0-4.14.81-5.59 2.43q-2.19 2.43-3 7.14h-7.3v-9.61q10.26-4.38 18.6-4.38"/><text x="1179.07" y="1727.84" fill-opacity="0" font-family="Arial,Arial_MSFontService,sans-serif" font-size="56.617">𝟑𝟑</text><path fill="#fff" fill-rule="evenodd" d="M1346.08 1705.34c1.4 0 2.58.49 3.52 1.47.95.99 1.42 2.24 1.42 3.75 0 1.52-.47 2.77-1.42 3.75-.94.99-2.12 1.48-3.52 1.48-1.41 0-2.58-.49-3.53-1.48-.95-.98-1.42-2.23-1.42-3.75 0-1.51.47-2.76 1.42-3.75.95-.98 2.12-1.47 3.53-1.47m-24.56 0c1.4 0 2.58.49 3.52 1.47.95.99 1.42 2.24 1.42 3.75 0 1.52-.47 2.77-1.42 3.75-.94.99-2.12 1.48-3.52 1.48-1.41 0-2.58-.49-3.53-1.48-.95-.98-1.42-2.23-1.42-3.75 0-1.51.47-2.76 1.42-3.75.95-.98 2.12-1.47 3.53-1.47m-24.56 0c1.4 0 2.58.49 3.52 1.47.95.99 1.42 2.24 1.42 3.75 0 1.52-.47 2.77-1.42 3.75-.94.99-2.12 1.48-3.52 1.48-1.41 0-2.58-.49-3.53-1.48-.95-.98-1.42-2.23-1.42-3.75 0-1.51.47-2.76 1.42-3.75.95-.98 2.12-1.47 3.53-1.47"/><text x="1292.01" y="1714.48" fill-opacity="0" font-family="Arial,Arial_MSFontService,sans-serif" font-size="10.456">⋯</text><path fill="#fff" fill-rule="evenodd" d="M1444.04 1707.81c-2.79 0-4.88.94-6.29 2.81q-2.1 2.82-2.1 8.13c0 3.86.71 6.77 2.12 8.71 1.42 1.95 3.54 2.92 6.35 2.92 2.73 0 4.79-.96 6.2-2.88 1.4-1.91 2.1-4.6 2.1-8.06 0-3.62-.75-6.46-2.26-8.53-1.52-2.07-3.56-3.1-6.12-3.1m-49.77-16.25-13.86 20.87v.69h13.86v-9.28c0-3.89.13-7.99.4-12.28Zm49.97-8.72q-4.02 0-6.06 2.43c-1.37 1.63-2.05 4.02-2.05 7.18 0 3.54.7 6.25 2.09 8.12 1.39 1.88 3.42 2.82 6.1 2.82 2.62 0 4.59-.88 5.9-2.65s1.96-4.29 1.96-7.56c0-3.35-.68-5.91-2.05-7.68-1.36-1.77-3.33-2.66-5.89-2.66m-47.1-4.17h9.12v34.45h1.26q1.98 0 2.79-.27c.54-.17 1.01-.5 1.4-.99s.77-1.35 1.12-2.59h4.25l-.48 8.95h-10.34v6.04c0 2.03.12 3.45.37 4.28.24.82.61 1.44 1.11 1.84.5.41 1.47.81 2.9 1.22v2.67h-20.71v-2.67c1.43-.38 2.41-.81 2.94-1.28.52-.47.89-1.1 1.09-1.88.2-.79.31-2.18.31-4.18v-6.04h-21.73v-4.37Zm47.3-.37c6.57 0 11.52 1.21 14.87 3.61 3.35 2.41 5.03 5.81 5.03 10.21 0 2.92-.76 5.47-2.29 7.66s-3.83 3.95-6.91 5.27l.08.53c3.14 1.21 5.51 2.97 7.11 5.27 1.61 2.29 2.41 5.04 2.41 8.22q0 4.785-2.55 8.37c-1.7 2.39-4.15 4.25-7.35 5.56-3.21 1.31-6.95 1.96-11.25 1.96q-6.12 0-10.68-1.8c-3.04-1.2-5.4-2.96-7.07-5.27-1.68-2.31-2.51-5.03-2.51-8.17 0-3.05.78-5.7 2.35-7.94 1.56-2.24 4.01-4.09 7.33-5.55l-.08-.53c-5.97-2.59-8.96-6.9-8.96-12.93 0-2.75.86-5.23 2.58-7.43 1.71-2.21 4.15-3.93 7.31-5.17s6.69-1.87 10.58-1.87"/><text x="1372.54" y="1727.88" fill-opacity="0" font-family="Arial,Arial_MSFontService,sans-serif" font-size="56.657">𝟒𝟖</text><path fill="#fff" fill-rule="evenodd" d="M1503.04 1724.87h7.09c.38 1.89.57 3.76.57 5.59 0 1.89-.32 3.62-.97 5.19s-1.69 3.13-3.1 4.68c-1.42 1.55-3.37 3.26-5.86 5.13l-2.19-2.47q2.07-1.95 3-3.51c.62-1.04 1.07-2.22 1.34-3.55.27-1.32.4-2.98.4-4.98 0-2.05-.09-4.08-.28-6.08"/><text x="1498.58" y="1742.88" fill-opacity="0" font-family="Arial,Arial_MSFontService,sans-serif" font-size="20.588">,</text><path fill="#fff" fill-rule="evenodd" d="M1539.77 1678.95h20.63l-.61 2.68c-1.16.11-2 .46-2.53 1.07s-.79 1.4-.79 2.37c0 .81.15 1.78.45 2.9.29 1.12.75 2.47 1.37 4.03l2.56 6.73 5.43-6.73c1.73-2.16 2.93-3.79 3.6-4.88.68-1.1 1.02-2.01 1.02-2.74 0-.92-.23-1.57-.69-1.96s-1.22-.66-2.27-.79l.61-2.68h16.86l-.61 2.72c-.65.11-1.3.36-1.95.77-.65.4-1.53 1.16-2.65 2.27s-2.98 3.17-5.57 6.2l-11.64 13.49 7.18 18.69c1.08 2.83 2.04 4.88 2.9 6.14.85 1.25 1.97 2.04 3.38 2.37l-.57 2.67h-20.67l.57-2.67c2.14-.22 3.2-1.19 3.2-2.92 0-.97-.12-1.96-.36-2.96-.25-1-.6-2.11-1.06-3.32l-3.6-9.53-8.39 10.01c-1.24 1.49-2.12 2.67-2.64 3.53-.51.86-.77 1.72-.77 2.55q0 2.43 3 2.64l-.56 2.67h-16.9l.56-2.67c1.11-.3 2.21-.92 3.31-1.87 1.09-.94 3.16-3.16 6.22-6.64l13.98-15.81-6.2-16.37c-.43-1.11-.95-2.37-1.56-3.77-.61-1.41-1.16-2.48-1.66-3.22-.5-.75-.99-1.28-1.46-1.6-.48-.33-1.05-.56-1.73-.69Z"/><text x="1527.7" y="1727.36" fill-opacity="0" font-family="Arial,Arial_MSFontService,sans-serif" font-size="55.32">𝑿</text><path fill="#fff" fill-rule="evenodd" d="M1805.79 1671.95h18.08v77.29h-18.08v-3.12h11.35v-71.05h-11.35Zm-210.71 0h18.07v3.12h-11.34v71.05h11.34v3.12h-18.07Zm51.53 25.69c-1.3 0-2.46.27-3.49.81-1.02.54-2 1.41-2.92 2.61-.91 1.2-1.79 2.88-2.61 5.05-.82 2.16-1.6 4.83-2.33 8.02l-2.11 9.2c-.21.95-.32 1.78-.32 2.51 0 1.49.53 2.67 1.6 3.55q1.605 1.32 4.23 1.32c1.38 0 2.66-.34 3.83-1.02 1.18-.67 2.27-1.75 3.27-3.22s1.92-3.56 2.75-6.26c.65-2.14 1.21-4.32 1.66-6.57.57-2.89.86-5.76.86-8.63 0-2.59-.37-4.47-1.1-5.63s-1.84-1.74-3.32-1.74m.36-4.22q7.215 0 11.13 3.87c2.6 2.58 3.91 6.21 3.91 10.88q0 7.38-2.82 13.62t-7.92 9.69c-3.41 2.29-7.34 3.44-11.79 3.44q-5.52 0-8.52-1.62l-4.01 18.44h-11.63l7.94-36.03c1.65-7.54 4.45-13.14 8.39-16.8 3.95-3.66 9.05-5.49 15.32-5.49"/><text x="1615.32" y="1744.45" fill-opacity="0" font-family="Arial,Arial_MSFontService,sans-serif" font-size="58.319">𝝆</text><path fill="#fff" fill-rule="evenodd" d="M1683.9 1709.98c3.75 0 6.75.77 9 2.3 2.24 1.53 3.36 3.66 3.36 6.4 0 2.3-.66 4.29-1.98 5.96-1.32 1.66-3.53 3.21-6.63 4.64v.27c2.9.54 5.19 1.7 6.87 3.49 1.68 1.78 2.52 4 2.52 6.64 0 2.3-.56 4.35-1.69 6.15q-1.68 2.7-5.1 4.23-3.435 1.53-8.31 1.53c-2.25 0-4.45-.2-6.62-.61-2.16-.41-4.05-.98-5.66-1.71v-7.48h5.37c.57 2.27 1.39 3.91 2.44 4.93 1.05 1.03 2.43 1.54 4.14 1.54 4.21 0 6.31-2.6 6.31-7.81 0-2.8-.74-4.88-2.22-6.25s-3.72-2.06-6.74-2.06h-2.36v-3.39c3.46-.14 6.08-.95 7.87-2.43 1.78-1.48 2.68-3.62 2.68-6.42 0-2.2-.45-3.87-1.34-4.99q-1.35-1.68-3.9-1.68c-1.67 0-3.04.59-4.11 1.79-1.08 1.19-1.81 2.94-2.21 5.24h-5.36v-7.06c5.02-2.15 9.58-3.22 13.67-3.22"/><text x="1669.66" y="1746.39" fill-opacity="0" font-family="Arial,Arial_MSFontService,sans-serif" font-size="41.61">𝟑</text><path fill="#fff" fill-rule="evenodd" d="M1772.45 1672.16c7.89 2.08 13.95 6.57 18.17 13.47 4.23 6.91 6.35 15.23 6.35 24.99 0 9.78-2.11 18.11-6.33 24.98-4.21 6.88-10.28 11.36-18.19 13.44l-.98-3.12c6.25-2.08 10.89-6.19 13.93-12.32 3.04-6.14 4.56-13.93 4.56-23.39 0-9.13-1.52-16.71-4.54-22.75q-4.545-9.06-14.07-12.18Zm-35.43 0 1.1 3.12q-9.48 3.12-14.04 12.18c-3.04 6.04-4.56 13.62-4.56 22.75 0 9.46 1.52 17.25 4.56 23.39 3.04 6.13 7.68 10.24 13.92 12.32l-.98 3.12c-7.91-2.08-13.98-6.56-18.19-13.44-4.22-6.87-6.32-15.2-6.32-24.98 0-9.76 2.11-18.08 6.34-24.99 4.23-6.9 10.29-11.39 18.17-13.47m21.92 21.46h4.62l-6.48 27.89a38 38 0 0 0-.55 2.63c-.09.62-.14 1.32-.14 2.11 0 1.05.17 1.78.53 2.19q.525.6 1.5.6c.78 0 1.66-.37 2.63-1.11s2.12-1.87 3.44-3.38l2.92 2.91c-2.65 2.71-5.02 4.62-7.11 5.76-2.09 1.13-4.4 1.7-6.91 1.7-2.86 0-4.96-.7-6.28-2.11-1.33-1.4-1.99-3.52-1.99-6.36 0-1.81.3-3.93.89-6.36l3.41-14.11c.62-2.56.93-4.59.93-6.07q0-1.59-.75-2.25c-.5-.45-1.55-.75-3.14-.92l.61-2.67Zm-2.96-15.72h10.38l-2.11 9.93h-10.5Z"/><text x="1745.12" y="1727.79" fill-opacity="0" font-family="Arial,Arial_MSFontService,sans-serif" font-size="57.022">𝒊</text><text fill="#fff" font-family="Microsoft YaHei,Microsoft YaHei_MSFontService,sans-serif" font-size="83" font-weight="700" transform="translate(1323.01 1883)">16<tspan x="101.979" y="0">步</tspan></text><path fill="#d74514" d="M745 1584h41v54h-41zm444-1h42v54h-42zm444 0h42v54h-42zm444 0h42v54h-42zM745 1888h41v54h-41zm444-1h42v54h-42zm444 0h42v54h-42zm444 0h42v54h-42zM571 2112h1713v359H571z"/><path fill="#fff" fill-rule="evenodd" d="M1025.35 2207.43h20.38l-.57 2.67c-1.54.43-2.67 1.19-3.4 2.27q-1.095 1.62-2.07 6l-7.37 33.43c-.19.87-.33 1.62-.41 2.25q-.12.96-.12 2.49c0 1.14.26 1.97.79 2.5.53.52 1.38.87 2.57 1.03l-.56 2.67h-20.39l.57-2.67c1.54-.43 2.67-1.19 3.4-2.27q1.095-1.62 2.07-6l7.37-33.43c.36-1.6.53-3.18.53-4.74 0-1.14-.26-1.97-.79-2.5-.53-.52-1.38-.87-2.57-1.03Z"/><text x="1014.2" y="2255.83" fill-opacity="0" font-family="Arial,Arial_MSFontService,sans-serif" font-size="55.32">𝑰</text><path fill="#fff" fill-rule="evenodd" d="M1053.41 2253.34h7.1c.38 1.89.56 3.76.56 5.6 0 1.89-.32 3.62-.97 5.18-.65 1.57-1.68 3.13-3.1 4.68q-2.13 2.34-5.85 5.13l-2.19-2.47q2.055-1.95 3-3.51c.62-1.04 1.06-2.22 1.33-3.54.27-1.33.41-2.99.41-4.99 0-2.05-.1-4.08-.29-6.08"/><text x="1048.96" y="2271.36" fill-opacity="0" font-family="Arial,Arial_MSFontService,sans-serif" font-size="20.588">,</text><path fill="#fff" fill-rule="evenodd" d="M1084.8 2207.43h44.66l-3.2 14.67h-5.19c-.03-3-.2-5.1-.53-6.31-.32-1.2-.84-2.1-1.56-2.71-.71-.61-1.72-.91-3.02-.91h-3.6l-8.72 39.63c-.19.89-.32 1.65-.4 2.27s-.12 1.45-.12 2.47c0 1.25.31 2.13.95 2.64.63.51 1.63.81 2.98.89l-.57 2.67h-21.52l.57-2.67c1.19-.16 2.13-.51 2.83-1.05.71-.54 1.29-1.35 1.77-2.42q.705-1.59 1.44-4.8l8.71-39.63h-3.24c-1.49 0-2.69.22-3.61.67-.92.44-1.95 1.37-3.08 2.79s-2.23 3.29-3.28 5.61h-5.31Z"/><text x="1081.76" y="2255.83" fill-opacity="0" font-family="Arial,Arial_MSFontService,sans-serif" font-size="55.32">𝑻</text><path fill="#fff" fill-rule="evenodd" d="M1456.15 2200.42h18.08v77.29h-18.08v-3.12h11.35v-71.05h-11.35Zm-316.43 0h18.08v3.12h-11.35v71.05h11.35v3.12h-18.08Zm43.71 19.61-13.86 20.87v.69h13.86v-9.28c0-3.89.14-7.99.41-12.28Zm49.57-8.71c-5.76 0-8.63 4.28-8.63 12.84 0 7.87 2.5 11.8 7.49 11.8 1 0 1.94-.1 2.8-.29.87-.19 1.68-.48 2.45-.87s1.49-.86 2.15-1.42q.99-.825 1.32-1.35c.21-.36.4-.87.55-1.54.14-.68.22-1.6.22-2.76q0-7.95-2.13-12.18c-1.42-2.82-3.49-4.23-6.22-4.23m-46.69-4.18h9.12v34.45h1.25c1.33 0 2.26-.09 2.8-.26.54-.18 1.01-.51 1.4-1 .39-.48.76-1.35 1.11-2.59h4.26l-.49 8.96h-10.33v6.03c0 2.03.12 3.46.36 4.28.25.82.62 1.44 1.12 1.84.5.41 1.46.81 2.9 1.22v2.67h-20.71v-2.67c1.43-.38 2.41-.8 2.93-1.28.53-.47.9-1.1 1.1-1.88s.3-2.18.3-4.18v-6.03h-21.72v-4.38Zm47.09-.36c6.46 0 11.39 1.96 14.8 5.89 3.4 3.93 5.1 9.63 5.1 17.09 0 10.1-2.52 18.06-7.57 23.87-5.06 5.81-12.33 9.06-21.81 9.76l-2.11-2.39v-2.92c2.98-.05 5.51-.51 7.6-1.37 2.1-.87 3.92-2.09 5.47-3.67 1.56-1.58 2.84-3.59 3.85-6.04 1.02-2.45 1.75-5.59 2.21-9.42l-.4-.16c-2.08 1.43-4.13 2.47-6.14 3.12-2.01.64-4.43.97-7.24.97-4.64 0-8.27-1.44-10.88-4.32s-3.91-6.88-3.91-12.01c0-3.6.85-6.81 2.53-9.63 1.69-2.82 4.12-4.99 7.28-6.5 3.16-1.52 6.9-2.27 11.22-2.27"/><text x="1161.71" y="2256.32" fill-opacity="0" font-family="Arial,Arial_MSFontService,sans-serif" font-size="56.617">𝟒𝟗</text><path fill="#fff" fill-rule="evenodd" d="M1331.75 2233.81c1.41 0 2.58.49 3.53 1.48.94.98 1.42 2.23 1.42 3.75 0 1.51-.48 2.76-1.42 3.75-.95.98-2.12 1.47-3.53 1.47-1.4 0-2.58-.49-3.52-1.47-.95-.99-1.42-2.24-1.42-3.75 0-1.52.47-2.77 1.42-3.75.94-.99 2.12-1.48 3.52-1.48m-24.56 0c1.41 0 2.58.49 3.53 1.48.94.98 1.42 2.23 1.42 3.75 0 1.51-.48 2.76-1.42 3.75-.95.98-2.12 1.47-3.53 1.47-1.4 0-2.58-.49-3.52-1.47-.95-.99-1.42-2.24-1.42-3.75 0-1.52.47-2.77 1.42-3.75.94-.99 2.12-1.48 3.52-1.48m-24.56 0c1.41 0 2.58.49 3.53 1.48.95.98 1.42 2.23 1.42 3.75 0 1.51-.47 2.76-1.42 3.75-.95.98-2.12 1.47-3.53 1.47-1.4 0-2.58-.49-3.52-1.47-.95-.99-1.42-2.24-1.42-3.75 0-1.52.47-2.77 1.42-3.75.94-.99 2.12-1.48 3.52-1.48"/><text x="1277.69" y="2242.96" fill-opacity="0" font-family="Arial,Arial_MSFontService,sans-serif" font-size="10.456">⋯</text><path fill="#fff" fill-rule="evenodd" d="M1381.97 2234.25c-1.32 0-2.57.2-3.73.59s-2.19.92-3.08 1.58q-1.335.99-1.8 1.62c-.31.42-.54 1.02-.67 1.81-.14.78-.2 2.16-.2 4.13 0 4.95.68 8.66 2.06 11.15 1.38 2.48 3.49 3.72 6.32 3.72 2.9 0 5.06-1.04 6.49-3.14 1.43-2.09 2.15-5.33 2.15-9.7 0-3.87-.64-6.79-1.93-8.78-1.28-1.98-3.15-2.98-5.61-2.98m46.97-14.22-13.86 20.87v.69h13.86v-9.28c0-3.89.14-7.99.41-12.28Zm2.88-12.89h9.12v34.45h1.26c1.32 0 2.25-.09 2.79-.26.54-.18 1.01-.51 1.4-1 .39-.48.76-1.35 1.11-2.59h4.26l-.49 8.96h-10.33v6.03c0 2.03.12 3.46.36 4.28.25.82.62 1.44 1.12 1.84.5.41 1.46.81 2.9 1.22v2.67h-20.71v-2.67c1.43-.38 2.41-.8 2.93-1.28.53-.47.9-1.1 1.1-1.88s.3-2.18.3-4.18v-6.03h-21.72v-4.38Zm-39.31-.36 2.18 2.79v2.52c-5.91.13-10.71 1.96-14.38 5.49-3.68 3.52-6.12 8.57-7.34 15.13l.41.17c2.1-1.46 4.23-2.53 6.36-3.21 2.13-.67 4.47-1.01 7.01-1.01 3.11 0 5.78.68 8.01 2.05 2.22 1.36 3.91 3.29 5.04 5.77 1.14 2.49 1.7 5.38 1.7 8.68 0 3.59-.75 6.76-2.27 9.5q-2.265 4.11-6.99 6.42c-3.14 1.54-7 2.31-11.57 2.31-4.19 0-7.79-.83-10.8-2.51-3.01-1.67-5.31-4.15-6.91-7.42-1.59-3.27-2.39-7.24-2.39-11.91 0-6.32 1.33-12.04 3.99-17.14 2.66-5.11 6.44-9.22 11.33-12.32q7.335-4.665 16.62-5.31"/><text x="1360.57" y="2256.32" fill-opacity="0" font-family="Arial,Arial_MSFontService,sans-serif" font-size="56.617">𝟔𝟒</text><path fill="#fff" fill-rule="evenodd" d="M1488.72 2253.34h7.09c.38 1.89.57 3.76.57 5.6 0 1.89-.33 3.62-.98 5.18-.64 1.57-1.68 3.13-3.1 4.68q-2.13 2.34-5.85 5.13l-2.19-2.47q2.07-1.95 3-3.51c.62-1.04 1.06-2.22 1.34-3.54.27-1.33.4-2.99.4-4.99 0-2.05-.09-4.08-.28-6.08"/><text x="1484.26" y="2271.36" fill-opacity="0" font-family="Arial,Arial_MSFontService,sans-serif" font-size="20.588">,</text><path fill="#fff" fill-rule="evenodd" d="M1525.45 2207.43h20.63l-.61 2.67c-1.16.11-2.01.47-2.53 1.07-.53.61-.79 1.4-.79 2.37 0 .82.15 1.78.44 2.9.3 1.12.76 2.47 1.38 4.03l2.55 6.73 5.43-6.73c1.73-2.16 2.94-3.78 3.61-4.88.68-1.09 1.01-2 1.01-2.73 0-.92-.23-1.58-.68-1.97-.46-.39-1.22-.66-2.27-.79l.6-2.67h16.86l-.6 2.71c-.65.11-1.3.37-1.95.77-.65.41-1.53 1.16-2.65 2.27-1.13 1.11-2.98 3.17-5.58 6.2l-11.63 13.5 7.18 18.68c1.08 2.84 2.04 4.88 2.89 6.14q1.275 1.89 3.39 2.37l-.57 2.67h-20.67l.57-2.67c2.13-.22 3.2-1.19 3.2-2.92 0-.97-.12-1.96-.37-2.96-.24-1-.59-2.1-1.05-3.32l-3.61-9.52-8.39 10.01c-1.24 1.48-2.12 2.66-2.63 3.52-.51.87-.77 1.72-.77 2.56 0 1.62 1 2.5 3 2.63l-.57 2.67h-16.9l.57-2.67q1.665-.45 3.3-1.86c1.1-.95 3.17-3.17 6.22-6.65l13.99-15.81-6.21-16.37c-.43-1.11-.95-2.36-1.56-3.77-.6-1.4-1.16-2.48-1.66-3.22s-.98-1.28-1.46-1.6c-.47-.33-1.04-.56-1.72-.69Z"/><text x="1513.37" y="2255.83" fill-opacity="0" font-family="Arial,Arial_MSFontService,sans-serif" font-size="55.32">𝑿</text><path fill="#fff" fill-rule="evenodd" d="M1791.47 2200.42h18.08v77.29h-18.08v-3.12h11.35v-71.05h-11.35Zm-210.71 0h18.07v3.12h-11.35v71.05h11.35v3.12h-18.07Zm51.53 25.69c-1.3 0-2.46.27-3.49.81s-2 1.41-2.92 2.61c-.92 1.21-1.79 2.89-2.61 5.05-.83 2.16-1.6 4.83-2.33 8.02l-2.11 9.2c-.22.95-.32 1.79-.32 2.52 0 1.48.53 2.66 1.6 3.54 1.06.88 2.48 1.32 4.23 1.32 1.38 0 2.66-.34 3.83-1.01 1.18-.68 2.26-1.75 3.26-3.23 1-1.47 1.92-3.56 2.76-6.26.65-2.13 1.2-4.32 1.66-6.56.57-2.89.85-5.77.85-8.64 0-2.59-.36-4.47-1.09-5.63s-1.84-1.74-3.32-1.74m.36-4.22c4.81 0 8.52 1.29 11.12 3.87 2.61 2.58 3.92 6.21 3.92 10.89 0 4.91-.94 9.45-2.82 13.61q-2.82 6.24-7.92 9.69c-3.41 2.3-7.34 3.44-11.8 3.44-3.67 0-6.51-.54-8.51-1.62l-4.01 18.44H1601l7.94-36.03c1.65-7.53 4.45-13.13 8.39-16.8 3.95-3.66 9.05-5.49 15.32-5.49"/><text x="1601" y="2272.92" fill-opacity="0" font-family="Arial,Arial_MSFontService,sans-serif" font-size="58.319">𝝆</text><path fill="#fff" fill-rule="evenodd" d="m1669.07 2248.2-10.18 15.33v.51h10.18v-6.82c0-2.86.1-5.87.3-9.02Zm2.12-9.48h6.7v25.32h.92c.97 0 1.66-.06 2.06-.19.39-.13.74-.38 1.02-.73.29-.36.57-1 .82-1.91h3.13l-.36 6.58h-7.59v4.44c0 1.49.09 2.54.27 3.14.18.61.45 1.06.82 1.36.36.3 1.07.59 2.13.89v1.97h-15.22v-1.97c1.05-.28 1.77-.59 2.15-.94q.585-.51.81-1.38c.15-.58.22-1.6.22-3.07v-4.44h-15.96v-3.21Z"/><text x="1653.11" y="2274.48" fill-opacity="0" font-family="Arial,Arial_MSFontService,sans-serif" font-size="40.865">𝟒</text><path fill="#fff" fill-rule="evenodd" d="M1758.12 2200.63c7.89 2.08 13.95 6.57 18.18 13.48 4.23 6.9 6.34 15.23 6.34 24.98 0 9.78-2.1 18.11-6.32 24.99-4.21 6.87-10.28 11.35-18.2 13.43l-.97-3.12c6.24-2.08 10.88-6.19 13.92-12.32s4.56-13.93 4.56-23.38c0-9.14-1.51-16.72-4.54-22.76-3.02-6.04-7.71-10.1-14.06-12.18Zm-35.42 0 1.1 3.12c-6.33 2.08-11.01 6.14-14.05 12.18s-4.56 13.62-4.56 22.76c0 9.45 1.52 17.25 4.56 23.38s7.68 10.24 13.92 12.32l-.97 3.12c-7.91-2.08-13.98-6.56-18.19-13.43q-6.33-10.32-6.33-24.99c0-9.75 2.12-18.08 6.35-24.98 4.22-6.91 10.28-11.4 18.17-13.48m21.92 21.47h4.62l-6.48 27.88c-.28 1.13-.46 2.01-.55 2.63-.1.62-.14 1.33-.14 2.11 0 1.05.17 1.78.52 2.19.35.4.85.61 1.5.61.79 0 1.66-.37 2.64-1.12.97-.74 2.12-1.87 3.44-3.38l2.92 2.92c-2.65 2.7-5.02 4.62-7.11 5.75-2.1 1.14-4.4 1.7-6.91 1.7-2.87 0-4.96-.7-6.28-2.1-1.33-1.41-1.99-3.53-1.99-6.37 0-1.81.3-3.93.89-6.36l3.41-14.1c.62-2.57.93-4.6.93-6.08q0-1.59-.75-2.25c-.5-.45-1.55-.75-3.14-.91l.6-2.68Zm-2.96-15.73h10.38l-2.11 9.93h-10.5Z"/><text x="1730.8" y="2256.27" fill-opacity="0" font-family="Arial,Arial_MSFontService,sans-serif" font-size="57.022">𝒊</text><text fill="#fff" font-family="Microsoft YaHei,Microsoft YaHei_MSFontService,sans-serif" font-size="83" font-weight="700" transform="translate(1323.01 2412)">16<tspan x="101.979" y="0">步</tspan></text><path fill="#d74514" d="M745 2113h41v53h-41zm444-1h42v54h-42zm444 0h42v54h-42zm444 0h42v54h-42zM745 2416h41v54h-41zm444-1h42v54h-42zm444 0h42v54h-42zm444 0h42v54h-42z"/><path d="m771.083 875.5.001 137.6h-9.167V875.5Zm18.334 133.02-22.917 45.83-22.916-45.83ZM1215.08 875.5v137.6h-9.16V875.5Zm18.34 133.02-22.92 45.83-22.92-45.83Zm425.66-133.02v137.6h-9.16V875.5Zm18.34 133.02-22.92 45.83-22.92-45.83Zm425.66-133.02v137.6h-9.16V875.5Zm18.34 133.02-22.92 45.83-22.92-45.83ZM771.083 1412.5l.001 131.27h-9.167V1412.5Zm18.334 126.69-22.917 45.83-22.916-45.83Zm425.663-127.69v131.27h-9.16V1411.5Zm18.34 126.69-22.92 45.83-22.92-45.83Zm425.66-126.69v131.27h-9.16V1411.5Zm18.34 126.69-22.92 45.83-22.92-45.83Zm425.66-126.69v131.27h-9.16V1411.5Zm18.34 126.69-22.92 45.83-22.92-45.83ZM771.083 1942.5l.001 129.83h-9.167V1942.5Zm18.334 125.24-22.917 45.84-22.916-45.84Zm425.663-126.24v129.83h-9.16V1941.5Zm18.34 125.24-22.92 45.84-22.92-45.84Zm425.66-125.24v129.83h-9.16V1941.5Zm18.34 125.24-22.92 45.84-22.92-45.84Zm425.66-125.24v129.83h-9.16V1941.5Zm18.34 125.24-22.92 45.84-22.92-45.84Z"/><path fill-rule="evenodd" d="m838.445 934.391-14.428 25.532h15.846l-.689-13.05a278 278 0 0 1-.203-6.687 325 325 0 0 1-.081-5.795Zm.243-8.551h6.119l2.918 45.188q.203 3.2.73 5.005.527 1.803 1.439 2.675.911.87 2.654 1.114l-.446 1.986h-16.859l.446-1.986q2.391-.203 3.566-1.864 1.176-1.662 1.175-5.836 0-1.58-.121-3.445l-.284-5.228h-17.832l-2.229 3.972q-1.581 2.796-2.31 4.802-.729 2.007-.729 3.546 0 3.405 4.093 4.053l-.446 1.986h-16.576l.446-1.986q1.257-.162 2.371-.993 1.114-.83 2.371-2.513 1.256-1.681 3.526-5.572Z"/><text x="803.996" y="974.812" fill-opacity="0" font-family="Arial,Arial_MSFontService,sans-serif" font-size="55.968">𝐴</text><path fill-rule="evenodd" d="m1269.11 952.11-5.02 23.223c1.64.108 3.67.162 6.07.162q6.165 0 9.27-1.399c2.06-.932 3.84-2.586 5.32-4.964 1.49-2.378 2.23-5.309 2.23-8.795 0-2.728-.89-4.782-2.69-6.16s-4.48-2.067-8.05-2.067Zm12-24.802q-3.525 0-6.57.121l-4.58 21.115h5.72c3.18 0 5.72-.257 7.6-.77a11.8 11.8 0 0 0 4.96-2.756q2.145-1.986 3.12-4.357c.65-1.58.97-3.411.97-5.491a8.8 8.8 0 0 0-.6-3.262c-.41-1.014-1.11-1.878-2.09-2.594-.99-.716-2.12-1.23-3.41-1.54-1.28-.311-2.99-.466-5.12-.466m-18.2-3.567h20.06q6.075 0 9.75 1.277c2.44.851 4.24 2.101 5.39 3.749s1.72 3.715 1.72 6.2q0 5.31-3.24 9.261c-2.16 2.634-5.38 4.654-9.65 6.059l-.08.445c2.51 1 4.45 2.425 5.8 4.276s2.02 3.952 2.02 6.302c0 3.594-.82 6.667-2.47 9.22q-2.475 3.83-7.41 6.181c-3.3 1.567-8.12 2.35-14.47 2.35h-18.04l.45-1.986q1.53-.243 2.31-.79c.51-.365.94-.871 1.3-1.52.35-.648.67-1.439.97-2.371.29-.932.74-2.735 1.34-5.41l6.88-31.206q.9-4.053.9-6.403c0-1.324-.31-2.243-.94-2.756-.62-.514-1.63-.811-3.04-.892Z"/><text x="1252.29" y="972.146" fill-opacity="0" font-family="Arial,Arial_MSFontService,sans-serif" font-size="55.32">𝐵</text><path fill-rule="evenodd" d="M1733.67 923.093c2.45 0 4.73.148 6.82.446 2.1.297 4.43.837 7 1.621l-2.44 10.983h-3.89c-.21-3.324-.94-5.721-2.17-7.194-1.22-1.472-3.2-2.209-5.93-2.209-3.73 0-7.2 1.865-10.4 5.593-3.2 3.729-5.73 8.653-7.6 14.772q-2.79 9.18-2.79 17.042 0 6.16 2.19 9.078c1.45 1.945 3.7 2.918 6.72 2.918q3.045 0 5.31-.912c1.52-.608 2.93-1.634 4.26-3.08q1.98-2.168 3.93-6.059h3.89l-2.47 11.51c-5.06 1.405-10.35 2.108-15.89 2.108-5.08 0-8.94-1.459-11.59-4.377s-3.97-7.187-3.97-12.807q0-5.957 2.13-13.739c1.41-5.187 3.42-9.74 6.01-13.658 2.6-3.917 5.66-6.903 9.2-8.956s7.43-3.08 11.68-3.08"/><text x="1704.65" y="972.632" fill-opacity="0" font-family="Arial,Arial_MSFontService,sans-serif" font-size="56.617">𝐶</text><path fill-rule="evenodd" d="M2171.5 927.267c-1.19 0-2.47.041-3.85.122l-10.5 47.944q1.185.121 4.5.121c4.38 0 8.09-.763 11.15-2.29 3.05-1.526 5.68-3.917 7.9-7.173 2.21-3.256 3.85-6.687 4.9-10.294 1.06-3.607 1.58-7.41 1.58-11.408 0-5.647-1.31-9.896-3.95-12.746q-3.945-4.276-11.73-4.276m-15.48-3.526h15.36q6.12 0 9.93.932 3.81.933 7.11 3.364c2.2 1.621 3.86 3.776 4.96 6.464 1.11 2.689 1.67 5.87 1.67 9.544q0 5.471-1.26 10.457c-.84 3.323-2.04 6.383-3.61 9.179s-3.44 5.228-5.63 7.295q-3.285 3.1-6.36 4.762c-2.06 1.108-4.35 1.938-6.89 2.492q-3.81.831-8.88.831h-17.02l.45-1.986q1.53-.243 2.31-.79.765-.547 1.29-1.52c.35-.648.68-1.439.97-2.371.3-.932.75-2.735 1.34-5.41l6.89-31.206c.6-2.702.89-4.877.89-6.525 0-1.27-.31-2.155-.95-2.655-.63-.499-1.64-.79-3.02-.871Z"/><text x="2145.4" y="972.146" fill-opacity="0" font-family="Arial,Arial_MSFontService,sans-serif" font-size="55.32">𝐷</text><path fill-rule="evenodd" d="m838.445 1476.31-14.428 25.53h15.846l-.689-13.05q-.121-2.67-.203-6.69-.081-4.005-.081-5.79Zm.243-8.55h6.119l2.918 45.19c.135 2.13.379 3.8.73 5s.831 2.09 1.439 2.68q.911.87 2.654 1.11l-.446 1.99h-16.859l.446-1.99q2.391-.21 3.566-1.86c.784-1.11 1.175-3.06 1.175-5.84q0-1.575-.121-3.45l-.284-5.22h-17.832l-2.229 3.97q-1.581 2.79-2.31 4.8c-.486 1.34-.729 2.52-.729 3.55q0 3.405 4.093 4.05l-.446 1.99h-16.576l.446-1.99q1.257-.165 2.371-.99c.743-.56 1.533-1.39 2.371-2.52.837-1.12 2.013-2.97 3.526-5.57Z"/><text x="803.996" y="1516.73" fill-opacity="0" font-family="Arial,Arial_MSFontService,sans-serif" font-size="55.968">𝐴</text><path fill-rule="evenodd" d="m1269.11 1494.03-5.02 23.22c1.64.11 3.67.16 6.07.16 4.11 0 7.2-.46 9.27-1.4 2.06-.93 3.84-2.58 5.32-4.96 1.49-2.38 2.23-5.31 2.23-8.79 0-2.73-.89-4.79-2.69-6.16-1.8-1.38-4.48-2.07-8.05-2.07Zm12-24.8q-3.525 0-6.57.12l-4.58 21.11h5.72c3.18 0 5.72-.25 7.6-.77 1.87-.51 3.53-1.43 4.96-2.75 1.43-1.33 2.47-2.78 3.12-4.36s.97-3.41.97-5.49c0-1.16-.2-2.25-.6-3.26-.41-1.02-1.11-1.88-2.09-2.6a9.7 9.7 0 0 0-3.41-1.54c-1.28-.31-2.99-.46-5.12-.46m-18.2-3.57h20.06c4.05 0 7.3.42 9.75 1.28 2.44.85 4.24 2.1 5.39 3.74 1.15 1.65 1.72 3.72 1.72 6.21 0 3.53-1.08 6.62-3.24 9.26-2.16 2.63-5.38 4.65-9.65 6.05l-.08.45c2.51 1 4.45 2.43 5.8 4.28s2.02 3.95 2.02 6.3c0 3.59-.82 6.66-2.47 9.22q-2.475 3.825-7.41 6.18c-3.3 1.57-8.12 2.35-14.47 2.35h-18.04l.45-1.99c1.02-.16 1.79-.42 2.31-.79.51-.36.94-.87 1.3-1.52.35-.65.67-1.44.97-2.37.29-.93.74-2.73 1.34-5.41l6.88-31.2c.6-2.71.9-4.84.9-6.41 0-1.32-.31-2.24-.94-2.75-.62-.52-1.63-.81-3.04-.9Z"/><text x="1252.29" y="1514.06" fill-opacity="0" font-family="Arial,Arial_MSFontService,sans-serif" font-size="55.32">𝐵</text><path fill-rule="evenodd" d="M1733.67 1465.01c2.45 0 4.73.15 6.82.45 2.1.29 4.43.83 7 1.62l-2.44 10.98h-3.89c-.21-3.32-.94-5.72-2.17-7.19-1.22-1.48-3.2-2.21-5.93-2.21-3.73 0-7.2 1.86-10.4 5.59s-5.73 8.65-7.6 14.77q-2.79 9.18-2.79 17.04c0 4.11.73 7.14 2.19 9.08 1.45 1.95 3.7 2.92 6.72 2.92 2.03 0 3.8-.3 5.31-.91 1.52-.61 2.93-1.64 4.26-3.08q1.98-2.175 3.93-6.06h3.89l-2.47 11.51c-5.06 1.4-10.35 2.11-15.89 2.11-5.08 0-8.94-1.46-11.59-4.38s-3.97-7.19-3.97-12.81q0-5.955 2.13-13.74c1.41-5.18 3.42-9.74 6.01-13.65 2.6-3.92 5.66-6.91 9.2-8.96s7.43-3.08 11.68-3.08"/><text x="1704.65" y="1514.55" fill-opacity="0" font-family="Arial,Arial_MSFontService,sans-serif" font-size="56.617">𝐶</text><path fill-rule="evenodd" d="M2171.5 1469.18c-1.19 0-2.47.05-3.85.13l-10.5 47.94q1.185.12 4.5.12c4.38 0 8.09-.76 11.15-2.29 3.05-1.52 5.68-3.92 7.9-7.17 2.21-3.26 3.85-6.69 4.9-10.3 1.06-3.6 1.58-7.4 1.58-11.4 0-5.65-1.31-9.9-3.95-12.75-2.63-2.85-6.54-4.28-11.73-4.28m-15.48-3.52h15.36q6.12 0 9.93.93t7.11 3.36c2.2 1.63 3.86 3.78 4.96 6.47 1.11 2.69 1.67 5.87 1.67 9.54 0 3.65-.42 7.14-1.26 10.46s-2.04 6.38-3.61 9.18-3.44 5.23-5.63 7.29q-3.285 3.105-6.36 4.77c-2.06 1.1-4.35 1.93-6.89 2.49-2.54.55-5.5.83-8.88.83h-17.02l.45-1.99c1.02-.16 1.79-.42 2.31-.79.51-.36.94-.87 1.29-1.52s.68-1.44.97-2.37c.3-.93.75-2.73 1.34-5.41l6.89-31.2c.6-2.71.89-4.88.89-6.53 0-1.27-.31-2.15-.95-2.65-.63-.5-1.64-.79-3.02-.88Z"/><text x="2145.4" y="1514.06" fill-opacity="0" font-family="Arial,Arial_MSFontService,sans-serif" font-size="55.32">𝐷</text><path fill-rule="evenodd" d="m822.027 2005.94-14.428 25.53h15.846l-.689-13.05q-.122-2.67-.203-6.69-.081-4.005-.081-5.79Zm.243-8.55h6.119l2.918 45.18q.203 3.21.73 5.01t1.439 2.67c.607.59 1.492.96 2.654 1.12l-.446 1.98h-16.859l.446-1.98c1.594-.14 2.783-.76 3.566-1.87.784-1.1 1.175-3.05 1.175-5.83q0-1.575-.121-3.45l-.284-5.22h-17.832l-2.229 3.97q-1.581 2.79-2.31 4.8c-.486 1.34-.729 2.52-.729 3.55q0 3.405 4.093 4.05l-.446 1.98h-16.576l.446-1.98q1.257-.165 2.371-.99 1.114-.84 2.371-2.52c.837-1.12 2.013-2.98 3.526-5.57Z"/><text x="787.578" y="2046.36" fill-opacity="0" font-family="Arial,Arial_MSFontService,sans-serif" font-size="55.968">𝐴</text><path fill-rule="evenodd" d="m1252.69 2023.66-5.02 23.22c1.65.11 3.67.16 6.08.16 4.1 0 7.19-.46 9.26-1.4 2.06-.93 3.84-2.58 5.33-4.96 1.48-2.38 2.23-5.31 2.23-8.8 0-2.72-.9-4.78-2.7-6.16-1.8-1.37-4.48-2.06-8.04-2.06Zm12-24.81c-2.35 0-4.54.05-6.57.13l-4.58 21.11h5.72c3.19 0 5.72-.26 7.6-.77s3.53-1.43 4.96-2.75c1.43-1.33 2.47-2.78 3.12-4.36s.98-3.41.98-5.49c0-1.16-.21-2.25-.61-3.27-.41-1.01-1.1-1.87-2.09-2.59a9.7 9.7 0 0 0-3.4-1.54c-1.29-.31-3-.47-5.13-.47m-18.2-3.56h20.06c4.06 0 7.31.42 9.75 1.28 2.45.85 4.24 2.1 5.39 3.74 1.15 1.65 1.72 3.72 1.72 6.2q0 5.31-3.24 9.27c-2.16 2.63-5.38 4.65-9.64 6.05l-.09.45c2.52 1 4.45 2.42 5.8 4.28 1.35 1.85 2.03 3.95 2.03 6.3 0 3.59-.83 6.66-2.48 9.22-1.64 2.55-4.12 4.61-7.41 6.18-3.3 1.56-8.12 2.35-14.47 2.35h-18.04l.45-1.99c1.03-.16 1.8-.42 2.31-.79.51-.36.95-.87 1.3-1.52s.67-1.44.97-2.37.74-2.73 1.34-5.41l6.89-31.2c.59-2.71.89-4.84.89-6.41 0-1.32-.31-2.24-.93-2.75-.63-.52-1.64-.81-3.04-.9Z"/><text x="1235.87" y="2043.69" fill-opacity="0" font-family="Arial,Arial_MSFontService,sans-serif" font-size="55.32">𝐵</text><path fill-rule="evenodd" d="M1717.25 1994.64c2.46 0 4.73.15 6.83.45q3.135.435 6.99 1.62l-2.43 10.98h-3.9c-.21-3.32-.93-5.72-2.16-7.19-1.23-1.48-3.21-2.21-5.94-2.21-3.73 0-7.19 1.86-10.4 5.59-3.2 3.73-5.73 8.65-7.59 14.77-1.87 6.12-2.8 11.8-2.8 17.04 0 4.11.73 7.14 2.19 9.08 1.46 1.95 3.7 2.92 6.73 2.92 2.02 0 3.79-.3 5.3-.91 1.52-.61 2.94-1.64 4.26-3.08q1.98-2.175 3.93-6.06h3.89l-2.47 11.51c-5.05 1.4-10.35 2.11-15.89 2.11-5.08 0-8.94-1.46-11.59-4.38s-3.97-7.19-3.97-12.81q0-5.955 2.13-13.74c1.42-5.18 3.42-9.74 6.02-13.65 2.59-3.92 5.66-6.91 9.2-8.96 3.53-2.05 7.43-3.08 11.67-3.08"/><text x="1688.23" y="2044.18" fill-opacity="0" font-family="Arial,Arial_MSFontService,sans-serif" font-size="56.617">𝐶</text><path fill-rule="evenodd" d="M2155.08 1998.81c-1.19 0-2.47.04-3.85.13l-10.5 47.94q1.185.12 4.5.12c4.38 0 8.09-.76 11.15-2.29 3.05-1.52 5.68-3.92 7.9-7.17 2.22-3.26 3.85-6.69 4.9-10.3 1.06-3.6 1.58-7.41 1.58-11.4 0-5.65-1.31-9.9-3.95-12.75-2.63-2.85-6.54-4.28-11.73-4.28m-15.48-3.52h15.36q6.12 0 9.93.93t7.11 3.36c2.2 1.63 3.86 3.78 4.97 6.47 1.1 2.69 1.66 5.87 1.66 9.54 0 3.65-.42 7.14-1.26 10.46s-2.04 6.38-3.61 9.18c-1.56 2.79-3.44 5.23-5.63 7.29q-3.285 3.105-6.36 4.77c-2.06 1.1-4.35 1.93-6.89 2.49-2.54.55-5.5.83-8.88.83h-17.02l.45-1.99c1.02-.16 1.79-.42 2.31-.79.51-.36.94-.87 1.29-1.52.36-.65.68-1.44.98-2.37.29-.93.74-2.73 1.33-5.41l6.89-31.2c.6-2.71.9-4.88.9-6.53 0-1.27-.32-2.15-.96-2.65-.63-.5-1.64-.79-3.02-.88Z"/><text x="2128.98" y="2043.69" fill-opacity="0" font-family="Arial,Arial_MSFontService,sans-serif" font-size="55.32">𝐷</text><path d="m771.083 2470.5.001 258.75h-9.167V2470.5Zm18.334 254.17L766.5 2770.5l-22.916-45.83Zm416.62-255.172-.1 259.921 9.166.003.1-259.92Zm-18.432 255.33 22.899 45.842 22.934-45.824Zm462.542-255.332-.201 259.418 9.166.007.201-259.417Zm-18.531 254.82 22.88 45.851 22.953-45.815Zm462.651-254.821-.302 259.417 9.166.01.302-259.417Zm-18.63 254.812 22.863 45.86 22.97-45.807Z"/><path fill-rule="evenodd" d="M233.309 41.206h15.684l-.445 1.985q-1.703.163-2.594.993-.892.831-.892 2.574 0 2.473 1.135 6.484l4.296 15.279 9.97-13.333q3.04-4.053 3.991-6.019.953-1.965.953-3.465 0-1.134-.77-1.743-.77-.608-2.229-.77l.446-1.986h15.197l-.445 1.986q-.973.203-1.682.588-.71.386-1.621 1.236-.912.852-2.473 2.736t-3.991 5.045l-15.766 20.467-2.512 11.469a42 42 0 0 0-.507 2.533 35 35 0 0 0-.243 1.945 19 19 0 0 0-.101 1.844q0 1.257.405 1.966t1.216 1.033q.81.324 2.796.487l-.446 1.985h-17.062l.446-1.986q1.621-.243 2.391-.648t1.358-1.256q.587-.852 1.175-2.675.588-1.824 1.398-5.512l2.391-11.185-5.876-20.467q-1.338-4.701-2.107-6.362t-1.642-2.351q-.871-.689-2.29-.892Z"/><text x="232.863" y="89.61" fill-opacity="0" font-family="Arial,Arial_MSFontService,sans-serif" font-size="55.32">𝑌</text><path fill-rule="evenodd" d="M285.947 85.907a7.1 7.1 0 0 0-3.261.76 10 10 0 0 0-2.755 2.085 15.6 15.6 0 0 0-2.234 3.068 21.6 21.6 0 0 0-1.653 3.723 26 26 0 0 0-1.013 4.05 24.6 24.6 0 0 0-.343 4.036q0 3.217.909 4.781.908 1.564 2.934 1.564 1.4 0 3.053-.968 1.653-.969 3.216-2.726t2.845-4.244q1.28-2.487 1.936-5.525.387-1.61.655-3.232t.268-2.934q0-2.412-1.087-3.425t-3.47-1.013m-.536-2.948q2.263 0 4.066.55 1.802.552 3.321 1.505l2.829-2.055 2.413.625q-1.966 8.846-3.887 17.514a4628 4628 0 0 0-3.589 16.322q-.566 2.055-.566 3.336 0 1.102.834 1.564t2.859.64l-.417 1.966h-10.216q1.25-4.885 2.338-9.07 1.087-4.185 2.368-9.069l-.477-.12q-1.488 1.936-2.904 3.307-1.414 1.37-2.77 2.248-1.355.879-2.71 1.281a9.5 9.5 0 0 1-2.725.402q-3.545 0-5.481-2.546-1.936-2.547-1.936-7.402 0-2.89.611-5.555a24 24 0 0 1 1.727-5.004 21.6 21.6 0 0 1 2.666-4.26 18.6 18.6 0 0 1 3.395-3.29 15.5 15.5 0 0 1 3.932-2.13q2.085-.76 4.319-.76"/><text x="268.761" y="119.68" fill-opacity="0" font-family="Arial,Arial_MSFontService,sans-serif" font-size="41.967">𝑞</text><path d="M275.917 141.5v2154.71H530.12v-9.17H280.5l4.583 4.59V141.5Zm249.619 2173.04 45.834-22.91-45.834-22.92Z"/><path d="M275.917 141.5v1626.24H530.12v-9.17H280.5l4.583 4.58V141.5Zm249.619 1644.57 45.834-22.92-45.834-22.91Z"/><path d="M275.917 141.5v1096.32H530.12v-9.17H280.5l4.583 4.59V141.5Zm249.619 1114.65 45.834-22.91-45.834-22.92Z"/><path d="M275.917 141.5v560.069H530.12v-9.167H280.5l4.583 4.584V141.5Zm249.619 578.402 45.834-22.916-45.834-22.917Z"/><path fill="none" stroke="#000" stroke-miterlimit="8" stroke-width="9.167" d="M1398.5 241.368 1515.375 107.5M221.5 354.367l116.875-133.868"/><path fill-rule="evenodd" d="M439.574 281.618q7.538 0 11.388 3.303t3.85 9.585q0 2.148-.425 3.951a15.5 15.5 0 0 1-1.338 3.567q-.912 1.762-2.452 3.789a67 67 0 0 1-3.404 4.114q-1.865 2.087-6.444 6.95-7.7 8.146-11.307 14.225h15.279q1.986 0 3.201-.243t1.946-.811a3.96 3.96 0 0 0 1.155-1.479q.425-.912 1.074-2.816h3.445l-.689 11.833h-33.354v-1.945q1.741-4.255 4.701-8.713 2.958-4.458 8.389-10.497 4.701-5.187 6.768-7.862 2.27-2.917 3.384-5.046 1.115-2.127 1.601-4.012t.486-3.789q0-3.04-.972-5.37-.973-2.33-2.979-3.668-2.006-1.337-5.046-1.337-7.578 0-10.213 8.429h-4.904v-7.781q4.904-2.31 9.18-3.343 4.275-1.034 7.68-1.034m-43.123 0h2.229q-.243 3.89-.243 10.78v34.611q0 2.35.264 3.546.263 1.195.932 1.945.668.75 1.925 1.176 1.256.425 3.161.648t5.025.304v2.958h-29.949v-2.958q4.498-.202 6.423-.547t2.938-1.034q1.014-.688 1.48-1.945.466-1.256.466-4.093v-32.868q0-1.621-.568-2.371-.567-.75-1.661-.749-1.297 0-3.688 1.337-2.391 1.338-5.917 3.688l-1.784-3.121Zm-37.529-2.026h3.161l-.608 9.402h-23.303v17.792q2.106-.892 4.579-1.338a28 28 0 0 1 4.944-.445q4.823 0 8.552 1.965t5.755 5.593 2.026 8.409q0 5.431-2.27 9.322t-6.565 5.917-10.172 2.026q-7.012 0-14.671-2.878v-8.591h4.904q1.216 4.134 3.667 6.079 2.452 1.945 6.343 1.945 5.39 0 8.146-3.242t2.756-9.686q0-4.296-1.459-7.113-1.46-2.816-3.931-4.073-2.473-1.256-5.755-1.256-2.757 0-4.742.344-1.986.345-4.255 1.074l-3.243-1.904v-26.667h22.331q1.379 0 1.986-.223.608-.224.972-.689.365-.467.852-1.763"/><text x="330.35" y="330.905" fill-opacity="0" font-family="Arial,Arial_MSFontService,sans-serif" font-size="58.643">512</text><path fill-rule="evenodd" d="M1638.2 153.617c-2 0-3.69.311-5.05.932-1.36.622-2.47 1.459-3.32 2.513q-1.275 1.581-1.83 3.708-.54 2.129-.54 4.56 0 2.634.6 4.924c.41 1.526 1.05 2.843 1.93 3.951s2 1.986 3.38 2.634c1.38.649 3.06.973 5.03.973 2.21 0 4.11-.453 5.69-1.358s2.79-2.249 3.61-4.032 1.24-3.891 1.24-6.322c0-2.594-.45-4.83-1.34-6.708-.89-1.877-2.15-3.309-3.77-4.296-1.62-.986-3.5-1.479-5.63-1.479m.2-25.532q-5.115 0-7.8 2.776-2.7 2.776-2.7 7.883 0 2.39.57 4.498c.38 1.405.99 2.621 1.82 3.648q1.26 1.54 3.27 2.452 1.995.91 4.92.911c2.24 0 4.13-.439 5.65-1.317 1.53-.878 2.66-2.161 3.41-3.85q1.11-2.533 1.11-5.856 0-3.648-1.32-6.18c-.87-1.689-2.08-2.939-3.62-3.749q-2.31-1.216-5.31-1.216m.08-3.445q5.835 0 9.81 1.642c2.64 1.094 4.64 2.674 5.97 4.741q2.01 3.1 2.01 7.437 0 4.458-2.19 7.68c-1.46 2.148-3.71 3.897-6.77 5.248l.09.527q4.575 1.783 6.93 5.208c1.56 2.283 2.35 5.032 2.35 8.247 0 3.161-.76 5.944-2.27 8.349-1.52 2.404-3.71 4.262-6.59 5.572s-6.23 1.966-10.07 1.966c-3.59 0-6.75-.601-9.46-1.804q-4.08-1.803-6.33-5.268t-2.25-8.166c0-2.351.41-4.391 1.22-6.12q1.215-2.593 3.18-4.276c1.31-1.121 2.97-2.141 4.97-3.06l-.08-.526c-5.81-2.513-8.72-6.822-8.72-12.929 0-2.782.77-5.268 2.29-7.457 1.53-2.188 3.7-3.904 6.53-5.147 2.82-1.242 5.95-1.864 9.38-1.864m-45.96 0c5.03 0 8.82 1.101 11.39 3.303 2.56 2.202 3.85 5.397 3.85 9.585 0 1.432-.14 2.749-.43 3.951a15.3 15.3 0 0 1-1.34 3.567c-.6 1.175-1.42 2.438-2.45 3.789a66 66 0 0 1-3.4 4.114q-1.86 2.087-6.45 6.95c-5.13 5.431-8.9 10.172-11.3 14.225h15.28c1.32 0 2.39-.081 3.2-.243s1.46-.432 1.94-.811c.49-.378.87-.871 1.16-1.479.28-.608.64-1.547 1.07-2.817h3.45l-.69 11.834h-33.36v-1.945c1.17-2.837 2.73-5.741 4.71-8.713 1.97-2.972 4.76-6.471 8.38-10.497 3.14-3.458 5.39-6.079 6.77-7.862 1.52-1.945 2.64-3.627 3.39-5.046.74-1.418 1.27-2.756 1.6-4.012q.48-1.884.48-3.789c0-2.027-.32-3.817-.97-5.37-.65-1.554-1.64-2.776-2.98-3.668-1.33-.892-3.02-1.337-5.04-1.337-5.06 0-8.46 2.81-10.22 8.429h-4.9v-7.781q4.905-2.31 9.18-3.343 4.275-1.034 7.68-1.034m-43.12 0h2.23c-.17 2.594-.25 6.187-.25 10.78v34.611q0 2.35.27 3.546.255 1.195.93 1.945c.44.5 1.09.892 1.92 1.176.84.283 1.89.499 3.16.648s2.95.25 5.03.304v2.958h-29.95v-2.958q4.5-.203 6.42-.547 1.935-.345 2.94-1.034c.68-.459 1.17-1.107 1.48-1.945s.47-2.202.47-4.093v-32.868q0-1.621-.57-2.371c-.38-.5-.93-.75-1.66-.75q-1.305 0-3.69 1.338c-1.59.891-3.57 2.121-5.92 3.688l-1.78-3.121Z"/><text x="1530.43" y="174.18" fill-opacity="0" font-family="Arial,Arial_MSFontService,sans-serif" font-size="56.617">128</text><path fill="none" stroke="#000" stroke-miterlimit="8" stroke-width="9.167" d="M1461.5 130.5v114.27h922.592v2359.64H2217.99"/><path d="M2269 2599.917h-28.77v244.866l4.582-4.584h-31.062v9.167h35.646V2604.5l-4.584 4.583H2269Zm-50.666 221.949-45.834 22.917 45.834 22.916Z"/><path d="M2269.04 2599.917h-463.916v244.866l4.583-4.583h-39.955v9.166h44.538V2604.5l-4.583 4.583h459.333Zm-494.704 221.949-45.834 22.917 45.834 22.917Z"/><path d="M2269.08 2599.917h-909.369v245.369l4.583-4.583h-38.54v9.166h43.124V2604.5l-4.584 4.583h904.786Zm-938.742 222.452-45.834 22.917 45.834 22.917Z"/><path d="M2269.11 2599.917H917.72v244.867l4.58-4.584h-40.55v9.167h45.13V2604.5l-4.58 4.583h1346.81Zm-1382.78 221.95-45.83 22.917 45.83 22.916Z"/><path fill-rule="evenodd" d="M1375.48 3287.79h16.77l-.44 1.98c-1.19.14-2.12.49-2.78 1.06-.66.56-1.13 1.35-1.4 2.37-.27 1.01-.4 2.37-.4 4.07 0 .41.04 1.62.12 3.65l1.14 29.66v3.25h.4l17.55-31.66q1.545-2.79 2.31-4.8c.51-1.34.77-2.52.77-3.54 0-2.27-1.35-3.62-4.05-4.06l.44-1.98h16.58l-.45 1.98c-.73.11-1.42.39-2.08.83-.67.45-1.41 1.19-2.23 2.23-.83 1.04-2.1 3.05-3.83 6.02l-25.94 44.91h-5.39l-2.72-45.19c-.1-1.76-.3-3.27-.58-4.52-.29-1.26-.73-2.24-1.34-2.94s-1.58-1.15-2.9-1.34Zm-18.81-.65c2.46 0 4.73.15 6.83.44 2.09.3 4.42.84 6.99 1.63l-2.43 10.98h-3.89c-.22-3.33-.94-5.72-2.17-7.2-1.23-1.47-3.21-2.2-5.94-2.2-3.73 0-7.19 1.86-10.39 5.59-3.21 3.73-5.74 8.65-7.6 14.77-1.87 6.12-2.8 11.8-2.8 17.04 0 4.11.73 7.14 2.19 9.08 1.46 1.95 3.7 2.92 6.73 2.92 2.02 0 3.79-.31 5.31-.91 1.51-.61 2.93-1.64 4.25-3.08q1.995-2.175 3.93-6.06h3.89l-2.47 11.51c-5.05 1.4-10.35 2.11-15.89 2.11-5.08 0-8.94-1.46-11.59-4.38-2.64-2.92-3.97-7.19-3.97-12.81q0-5.955 2.13-13.74c1.42-5.18 3.42-9.74 6.02-13.65 2.59-3.92 5.66-6.91 9.2-8.96s7.43-3.08 11.67-3.08"/><text x="1327.65" y="3336.68" fill-opacity="0" font-family="Arial,Arial_MSFontService,sans-serif" font-size="56.617">𝐶𝑉</text><path fill-rule="evenodd" d="M1433.06 3332.49c-1.17 0-2.26.25-3.26.76-1.01.5-1.92 1.2-2.76 2.08-.83.89-1.58 1.91-2.23 3.07a21.6 21.6 0 0 0-1.66 3.72c-.44 1.32-.78 2.67-1.01 4.05a24.6 24.6 0 0 0-.34 4.04c0 2.15.3 3.74.91 4.78.6 1.04 1.58 1.56 2.93 1.56.93 0 1.95-.32 3.05-.96 1.11-.65 2.18-1.56 3.22-2.73s1.99-2.58 2.85-4.24c.85-1.66 1.5-3.5 1.93-5.53.26-1.07.48-2.15.66-3.23s.27-2.06.27-2.93c0-1.61-.37-2.75-1.09-3.43-.73-.67-1.88-1.01-3.47-1.01m-.54-2.95c1.51 0 2.87.18 4.07.55s2.31.87 3.32 1.5l2.83-2.05 2.41.63c-1.31 5.89-2.61 11.73-3.89 17.51s-2.47 11.22-3.59 16.32c-.37 1.37-.56 2.48-.56 3.34 0 .73.28 1.25.83 1.56.56.31 1.51.52 2.86.64l-.41 1.97h-10.22c.83-3.26 1.61-6.28 2.34-9.07.72-2.79 1.51-5.82 2.37-9.07l-.48-.12q-1.485 1.935-2.91 3.3c-.94.92-1.86 1.67-2.77 2.25-.9.59-1.8 1.02-2.71 1.28-.9.27-1.81.41-2.72.41-2.36 0-4.19-.85-5.48-2.55s-1.94-4.17-1.94-7.4c0-1.93.21-3.78.61-5.56.41-1.77.99-3.44 1.73-5q1.11-2.34 2.67-4.26c1.03-1.28 2.16-2.38 3.39-3.29q1.845-1.365 3.93-2.13c1.39-.51 2.83-.76 4.32-.76"/><text x="1415.87" y="3366.26" fill-opacity="0" font-family="Arial,Arial_MSFontService,sans-serif" font-size="41.967">𝑞</text><path fill-rule="evenodd" d="M1469.74 3324.57h4.83v15.66h14.74v4.56h-14.74v15.67h-4.83v-15.67H1455v-4.56h14.74Z"/><text x="1455" y="3355.97" fill-opacity="0" font-family="Arial,Arial_MSFontService,sans-serif" font-size="35.891">+</text><path fill-rule="evenodd" d="M1513.61 3321.59h1.82c-.04 1.09-.07 2.07-.09 2.93s-.04 1.7-.05 2.52c-.01.81-.01 1.62-.01 2.41v22.64q0 .915.06 1.59c.04.45.1.82.19 1.13s.21.57.36.79.32.41.52.57c.24.24.56.42.95.55.4.13.91.24 1.52.33.62.09 1.36.16 2.22.2.87.05 1.9.09 3.11.11v2.59h-23.62v-2.59c1.18-.04 2.17-.09 2.98-.13.82-.05 1.51-.12 2.09-.21.57-.09 1.04-.19 1.38-.3.35-.11.65-.24.91-.4.28-.18.52-.38.72-.58.19-.21.35-.48.47-.79.12-.32.22-.71.29-1.17.07-.45.1-1.02.1-1.69v-21.36c0-.77-.15-1.32-.45-1.64-.29-.31-.72-.47-1.28-.47-.61 0-1.53.31-2.74.95s-2.78 1.58-4.7 2.83c-.26-.46-.5-.91-.72-1.37s-.45-.92-.68-1.4c2.46-1.35 4.9-2.7 7.31-4.04s4.86-2.67 7.34-4"/><text x="1498.96" y="3355.16" fill-opacity="0" font-family="Arial,Arial_MSFontService,sans-serif" font-size="38.363">1</text><path d="M761.917 2918.5v168.988h678.334l-4.583-4.583v123.154h9.167v-127.738H766.5l4.583 4.584V2918.5Zm655.418 282.976 22.916 45.833 22.917-45.833Z"/><path d="M1205.917 2919.5v168.737h234.296l-4.584-4.584v122.904h9.167V3079.07H1210.5l4.583 4.583V2919.5Zm211.379 282.473 22.917 45.834 22.916-45.834Z"/><path d="M1658.41 2918.5v168.99H1439.5l4.58-4.59v123.16h-9.16v-127.74h218.91l-4.59 4.58v-164.4Zm-195.99 282.98-22.92 45.83-22.92-45.83Z"/><path d="M2102.45 2918.5v168.99H1439.5l4.58-4.58v123.15h-9.16v-127.74h662.94l-4.58 4.59V2918.5Zm-640.03 282.98-22.92 45.83-22.92-45.83Z"/><path fill="none" stroke="#000" stroke-miterlimit="8" stroke-width="9.167" d="m1369.5 3239.37 116.875-133.868"/><path fill-rule="evenodd" d="M1606.68 3174.75q-3 0-5.04.93c-1.37.62-2.47 1.46-3.32 2.52-.86 1.05-1.46 2.29-1.83 3.7a18.5 18.5 0 0 0-.55 4.56c0 1.76.21 3.4.61 4.93.41 1.52 1.05 2.84 1.93 3.95s2 1.98 3.38 2.63 3.05.98 5.03.98c2.21 0 4.11-.46 5.69-1.36 1.58-.91 2.78-2.25 3.61-4.03.82-1.79 1.23-3.89 1.23-6.33 0-2.59-.44-4.83-1.33-6.7-.9-1.88-2.15-3.31-3.77-4.3s-3.5-1.48-5.64-1.48m.21-25.53c-3.41 0-6.01.92-7.8 2.78-1.8 1.85-2.7 4.47-2.7 7.88q0 2.385.57 4.5c.38 1.4.98 2.62 1.82 3.64.84 1.03 1.93 1.85 3.26 2.46 1.34.6 2.98.91 4.93.91 2.24 0 4.12-.44 5.65-1.32s2.66-2.16 3.41-3.85c.74-1.69 1.11-3.64 1.11-5.86q0-3.645-1.32-6.18c-.88-1.69-2.08-2.93-3.62-3.75-1.54-.81-3.31-1.21-5.31-1.21m.08-3.45q5.835 0 9.81 1.65c2.64 1.09 4.64 2.67 5.97 4.74 1.34 2.06 2.01 4.54 2.01 7.43q0 4.47-2.19 7.68c-1.46 2.15-3.71 3.9-6.77 5.25l.08.53c3.06 1.19 5.37 2.92 6.93 5.21 1.57 2.28 2.35 5.03 2.35 8.24 0 3.17-.75 5.95-2.26 8.35-1.52 2.41-3.71 4.26-6.59 5.58-2.88 1.31-6.24 1.96-10.07 1.96-3.6 0-6.75-.6-9.46-1.8-2.72-1.2-4.83-2.96-6.33-5.27s-2.25-5.03-2.25-8.17c0-2.35.41-4.39 1.22-6.12s1.87-3.15 3.18-4.27 2.97-2.14 4.97-3.06l-.09-.53c-5.8-2.51-8.71-6.82-8.71-12.93 0-2.78.76-5.27 2.29-7.45 1.53-2.19 3.7-3.91 6.53-5.15 2.82-1.24 5.95-1.87 9.38-1.87m-45.96 0c5.02 0 8.82 1.11 11.39 3.31 2.56 2.2 3.85 5.39 3.85 9.58 0 1.43-.15 2.75-.43 3.95-.28 1.21-.73 2.39-1.34 3.57-.6 1.17-1.42 2.44-2.45 3.79a66 66 0 0 1-3.4 4.11c-1.25 1.39-3.39 3.71-6.45 6.95-5.13 5.43-8.9 10.18-11.3 14.23h15.28c1.32 0 2.39-.08 3.2-.25.81-.16 1.46-.43 1.94-.81.49-.37.87-.87 1.16-1.47.28-.61.64-1.55 1.07-2.82h3.45l-.69 11.83h-33.36v-1.94c1.16-2.84 2.73-5.74 4.7-8.72 1.98-2.97 4.77-6.47 8.39-10.49 3.14-3.46 5.39-6.08 6.77-7.87q2.265-2.91 3.39-5.04c.74-1.42 1.27-2.76 1.6-4.01.32-1.26.48-2.52.48-3.79 0-2.03-.32-3.82-.97-5.37-.65-1.56-1.64-2.78-2.98-3.67s-3.02-1.34-5.04-1.34c-5.06 0-8.46 2.81-10.22 8.43h-4.9v-7.78c3.27-1.54 6.33-2.65 9.18-3.34s5.41-1.04 7.68-1.04m-43.12 0h2.22c-.16 2.6-.24 6.19-.24 10.78v34.61c0 1.57.09 2.75.27 3.55q.255 1.2.93 1.95.66.75 1.92 1.17c.84.29 1.89.5 3.16.65s2.95.25 5.03.3v2.96h-29.95v-2.96q4.5-.195 6.42-.54c1.29-.23 2.27-.58 2.94-1.04.68-.46 1.17-1.1 1.48-1.94s.47-2.2.47-4.1v-32.86q0-1.62-.57-2.37c-.38-.5-.93-.75-1.66-.75-.87 0-2.1.44-3.69 1.33-1.59.9-3.57 2.12-5.92 3.69l-1.78-3.12Z"/><text x="1498.92" y="3195.31" fill-opacity="0" font-family="Arial,Arial_MSFontService,sans-serif" font-size="56.617">128</text><path fill="none" stroke="#d74514" stroke-miterlimit="8" stroke-width="9.167" d="M693.5 2844.5c0-40.87 33.131-74 74-74s74 33.13 74 74-33.131 74-74 74-74-33.13-74-74Zm148.129 0H693.5m74 74.13v-148.129m369 76.999c0-40.87 33.13-74 74-74s74 33.13 74 74-33.13 74-74 74-74-33.13-74-74Zm148.13 0h-148.129m73.999 74.13v-148.129m369 73.999c0-40.87 33.13-74 74-74s74 33.13 74 74-33.13 74-74 74-74-33.13-74-74Zm148.13 0h-148.129m73.999 74.13v-148.129m371 74.999c0-40.87 33.13-74 74-74s74 33.13 74 74-33.13 74-74 74-74-33.13-74-74Zm148.13 0h-148.129m73.999 74.13v-148.129"/></g></svg>