<svg width="2232" height="1183" xmlns="http://www.w3.org/2000/svg" xmlns:xlink="http://www.w3.org/1999/xlink" overflow="hidden"><defs><clipPath id="clip0"><rect x="51" y="127" width="2232" height="1183"/></clipPath></defs><g clip-path="url(#clip0)" transform="translate(-51 -127)"><rect x="221" y="674" width="433" height="325" fill="#D74514"/><text fill="#FFFFFF" font-family="Microsoft YaHei,Microsoft YaHei_MSFontService,sans-serif" font-weight="700" font-size="83" transform="matrix(1 0 0 1 356.556 817)">DES<tspan font-size="83" x="-1.44376" y="99">тіат»є</tspan></text><path d="M414.861 171.393C413.186 171.393 411.43 171.433 409.593 171.514L404.081 196.074 408.296 196.074C411.565 196.074 414.206 195.736 416.219 195.061 418.232 194.385 419.88 193.338 421.163 191.92 422.447 190.501 423.439 188.819 424.142 186.874 424.844 184.929 425.196 182.794 425.196 180.471 425.196 177.337 424.399 175.04 422.805 173.581 421.21 172.122 418.563 171.393 414.861 171.393ZM397.88 167.826 415.753 167.826C418.968 167.826 421.609 168.076 423.676 168.576 425.743 169.076 427.445 169.846 428.782 170.886 430.12 171.926 431.119 173.243 431.781 174.837 432.443 176.432 432.774 178.282 432.774 180.39 432.774 184.442 431.815 187.955 429.897 190.927 427.978 193.899 425.378 196.087 422.095 197.492 418.813 198.897 414.875 199.6 410.282 199.6 407.526 199.6 405.229 199.546 403.392 199.438L400.798 211.353C400.555 212.46 400.386 213.311 400.292 213.906 400.197 214.5 400.116 215.142 400.048 215.831 399.981 216.52 399.947 217.135 399.947 217.675 399.947 218.512 400.082 219.168 400.352 219.64 400.623 220.113 401.028 220.458 401.568 220.674 402.109 220.89 403.041 221.052 404.365 221.16L403.919 223.146 387.262 223.146 387.708 221.16C388.735 220.998 389.505 220.735 390.018 220.37 390.531 220.005 390.964 219.499 391.315 218.85 391.666 218.202 391.99 217.411 392.287 216.479 392.585 215.547 393.03 213.744 393.625 211.069L400.514 179.863C401.109 177.161 401.406 175.027 401.406 173.46 401.406 172.136 401.095 171.217 400.474 170.704 399.853 170.19 398.839 169.893 397.434 169.812Z" fill-rule="evenodd"/><text fill="#000000" fill-opacity="0" font-family="Arial,Arial_MSFontService,sans-serif" font-size="55.3198" x="387.262" y="216.231">­ЮЉЃ</text><path d="M445.276 201.627 447.093 201.627C447.053 202.719 447.023 203.697 447.003 204.56 446.983 205.424 446.968 206.263 446.959 207.077 446.949 207.891 446.944 208.696 446.944 209.49L446.944 232.127C446.944 232.742 446.964 233.273 447.003 233.72 447.043 234.167 447.107 234.544 447.197 234.852 447.286 235.16 447.405 235.423 447.554 235.641 447.703 235.86 447.877 236.048 448.076 236.207 448.314 236.445 448.632 236.629 449.029 236.758 449.426 236.887 449.932 236.996 450.548 237.086 451.163 237.175 451.903 237.245 452.767 237.294 453.63 237.344 454.668 237.379 455.879 237.399L455.879 239.99 432.26 239.99 432.26 237.399C433.431 237.359 434.424 237.314 435.238 237.264 436.052 237.215 436.747 237.145 437.323 237.056 437.899 236.967 438.361 236.867 438.708 236.758 439.056 236.649 439.358 236.515 439.617 236.356 439.895 236.177 440.133 235.984 440.331 235.775 440.53 235.567 440.689 235.304 440.808 234.986 440.927 234.668 441.021 234.281 441.091 233.824 441.16 233.368 441.195 232.802 441.195 232.127L441.195 210.771C441.195 209.996 441.046 209.45 440.748 209.132 440.451 208.815 440.024 208.656 439.468 208.656 438.852 208.656 437.939 208.974 436.727 209.609 435.516 210.244 433.947 211.188 432.021 212.439 431.763 211.982 431.525 211.525 431.306 211.068 431.088 210.612 430.86 210.145 430.621 209.669 433.084 208.318 435.521 206.973 437.934 205.633 440.346 204.292 442.794 202.957 445.276 201.627Z" fill-rule="evenodd"/><text fill="#000000" fill-opacity="0" font-family="Arial,Arial_MSFontService,sans-serif" font-size="38.3633" x="430.621" y="235.194">1</text><path d="M442.083 260.488 443.03 632.664 433.864 632.687 432.917 260.512ZM461.352 628.034 438.552 673.925 415.519 628.151Z"/><path d="M418.284 1216.57C420.742 1216.57 423.018 1216.72 425.112 1217.02 427.206 1217.32 429.537 1217.86 432.103 1218.64L429.672 1229.62 425.781 1229.62C425.565 1226.3 424.842 1223.9 423.613 1222.43 422.384 1220.96 420.404 1220.22 417.676 1220.22 413.947 1220.22 410.482 1222.08 407.28 1225.81 404.079 1229.54 401.546 1234.47 399.681 1240.59 397.817 1246.7 396.885 1252.39 396.885 1257.63 396.885 1261.73 397.615 1264.76 399.074 1266.71 400.533 1268.65 402.775 1269.62 405.801 1269.62 407.827 1269.62 409.597 1269.32 411.11 1268.71 412.623 1268.1 414.042 1267.08 415.366 1265.63 416.689 1264.19 418 1262.17 419.297 1259.57L423.187 1259.57 420.715 1271.08C415.663 1272.49 410.367 1273.19 404.828 1273.19 399.749 1273.19 395.885 1271.73 393.238 1268.81 390.59 1265.89 389.266 1261.63 389.266 1256.01 389.266 1252.03 389.975 1247.45 391.394 1242.27 392.812 1237.08 394.818 1232.53 397.412 1228.61 400.006 1224.69 403.072 1221.71 406.612 1219.65 410.151 1217.6 414.042 1216.57 418.284 1216.57Z" fill-rule="evenodd"/><text fill="#000000" fill-opacity="0" font-family="Arial,Arial_MSFontService,sans-serif" font-size="56.6167" x="389.266" y="1266.11">­ЮљХ</text><path d="M446.433 1251.02 448.25 1251.02C448.21 1252.11 448.181 1253.09 448.161 1253.96 448.141 1254.82 448.126 1255.66 448.116 1256.47 448.106 1257.29 448.101 1258.09 448.101 1258.88L448.101 1281.52C448.101 1282.14 448.121 1282.67 448.161 1283.11 448.2 1283.56 448.265 1283.94 448.354 1284.25 448.444 1284.55 448.563 1284.82 448.712 1285.04 448.861 1285.25 449.034 1285.44 449.233 1285.6 449.471 1285.84 449.789 1286.02 450.186 1286.15 450.583 1286.28 451.09 1286.39 451.705 1286.48 452.321 1286.57 453.06 1286.64 453.924 1286.69 454.788 1286.74 455.825 1286.77 457.037 1286.79L457.037 1289.38 433.417 1289.38 433.417 1286.79C434.589 1286.75 435.581 1286.71 436.396 1286.66 437.21 1286.61 437.905 1286.54 438.48 1286.45 439.056 1286.36 439.518 1286.26 439.865 1286.15 440.213 1286.04 440.516 1285.91 440.774 1285.75 441.052 1285.57 441.29 1285.38 441.489 1285.17 441.687 1284.96 441.846 1284.7 441.965 1284.38 442.084 1284.06 442.179 1283.68 442.248 1283.22 442.318 1282.76 442.353 1282.2 442.353 1281.52L442.353 1260.17C442.353 1259.39 442.204 1258.85 441.906 1258.53 441.608 1258.21 441.181 1258.05 440.625 1258.05 440.009 1258.05 439.096 1258.37 437.885 1259 436.673 1259.64 435.105 1260.58 433.179 1261.83 432.921 1261.38 432.682 1260.92 432.464 1260.46 432.245 1260.01 432.017 1259.54 431.779 1259.06 434.241 1257.71 436.678 1256.37 439.091 1255.03 441.504 1253.69 443.951 1252.35 446.433 1251.02Z" fill-rule="evenodd"/><text fill="#000000" fill-opacity="0" font-family="Arial,Arial_MSFontService,sans-serif" font-size="38.3633" x="431.779" y="1284.59">1</text><path d="M4.58325-0.0272534 5.38997 135.64-3.77653 135.695-4.58325 0.0272534ZM23.6957 130.948 1.052 176.917-22.1368 131.22Z" transform="matrix(-1 0 0 1 438.552 999.5)"/><path d="M132.5 832.917 180.625 832.917 180.625 842.083 132.5 842.083ZM176.042 814.583 221.875 837.5 176.041 860.417Z"/><path d="M62.0229 810.778 78.2339 810.778 77.7881 812.764C76.7614 812.98 76.0251 813.223 75.5793 813.493 75.1335 813.764 74.735 814.169 74.3838 814.709 74.0325 815.25 73.6678 816.094 73.2895 817.242 72.9113 818.39 72.4385 820.261 71.8711 822.855L68.9936 835.783 70.331 835.783C71.4658 835.783 72.4993 835.594 73.4314 835.216 74.3635 834.838 75.451 834.149 76.6938 833.149 77.9367 832.149 79.9158 830.312 82.6311 827.637 85.3464 824.963 87.2782 822.929 88.4265 821.538 89.5748 820.147 90.4123 818.944 90.9392 817.931 91.466 816.918 91.7295 815.993 91.7295 815.155 91.7295 814.479 91.4593 813.932 90.9189 813.514 90.3786 813.095 89.6086 812.845 88.6089 812.764L89.0547 810.778 106.441 810.778 105.995 812.764C104.914 812.926 103.692 813.487 102.327 814.446 100.963 815.405 98.8758 817.276 96.0659 820.059L80.3413 835.378 88.9736 856.128C89.8652 858.263 90.6015 859.803 91.1824 860.748 91.7633 861.694 92.459 862.444 93.2695 862.997 94.0801 863.551 95.0797 863.923 96.2685 864.112L95.8227 866.098 80.1792 866.098 80.625 864.112C82.084 863.977 82.8135 863.328 82.8135 862.167 82.8135 861.437 82.6649 860.606 82.3677 859.674 82.0705 858.742 81.7192 857.776 81.3139 856.777L76.0454 843.889C75.424 842.349 74.8836 841.268 74.4243 840.647 73.965 840.025 73.4787 839.593 72.9653 839.35 72.452 839.107 71.6549 838.985 70.5742 838.985L68.3047 838.985 64.9409 854.304C64.5897 855.925 64.36 857.202 64.2519 858.134 64.1439 859.066 64.0898 859.897 64.0898 860.627 64.0898 861.842 64.3938 862.7 65.0017 863.2 65.6096 863.7 66.6295 864.004 68.0615 864.112L67.6157 866.098 51.4048 866.098 51.8506 864.112C52.8773 863.95 53.6473 863.686 54.1606 863.322 54.674 862.957 55.1063 862.45 55.4575 861.802 55.8087 861.154 56.133 860.363 56.4302 859.431 56.7274 858.499 57.1732 856.695 57.7676 854.021L64.6572 822.815C65.2516 820.113 65.5488 817.938 65.5488 816.29 65.5488 815.02 65.2314 814.135 64.5964 813.635 63.9615 813.135 62.9551 812.845 61.5771 812.764Z" fill-rule="evenodd"/><text fill="#000000" fill-opacity="0" font-family="Arial,Arial_MSFontService,sans-serif" font-size="55.3198" x="51.4048" y="859.183">­ЮљЙ</text><rect x="896" y="674" width="432" height="325" fill="#D74514"/><text fill="#FFFFFF" font-family="Microsoft YaHei,Microsoft YaHei_MSFontService,sans-serif" font-weight="700" font-size="83" transform="matrix(1 0 0 1 1031.18 817)">DES<tspan font-size="83" x="-1.44385" y="99">тіат»є</tspan></text><path d="M1037.5 468C1037.5 426.855 1070.63 393.5 1111.5 393.5 1152.37 393.5 1185.5 426.855 1185.5 468 1185.5 509.145 1152.37 542.5 1111.5 542.5 1070.63 542.5 1037.5 509.145 1037.5 468Z" stroke="#D74514" stroke-width="9.16667" stroke-miterlimit="8" fill="none" fill-rule="evenodd"/><path d="M0 0 148.129 0.000360892" stroke="#D74514" stroke-width="9.16667" stroke-miterlimit="8" fill="none" fill-rule="evenodd" transform="matrix(-1 0 0 1 1185.63 468.5)"/><path d="M0 0 0.000360892 148.129" stroke="#D74514" stroke-width="9.16667" stroke-miterlimit="8" fill="none" fill-rule="evenodd" transform="matrix(1 0 0 -1 1111.5 541.629)"/><path d="M1116.08 542.464 1116.81 633.534 1107.64 633.606 1106.92 542.536ZM1135.1 628.805 1112.55 674.819 1089.27 629.169Z"/><path d="M1088.53 171.393C1086.86 171.393 1085.1 171.433 1083.27 171.514L1077.75 196.074 1081.97 196.074C1085.24 196.074 1087.88 195.736 1089.89 195.061 1091.9 194.385 1093.55 193.338 1094.84 191.92 1096.12 190.501 1097.11 188.819 1097.81 186.874 1098.52 184.929 1098.87 182.794 1098.87 180.471 1098.87 177.337 1098.07 175.04 1096.48 173.581 1094.88 172.122 1092.24 171.393 1088.53 171.393ZM1071.55 167.826 1089.43 167.826C1092.64 167.826 1095.28 168.076 1097.35 168.576 1099.42 169.076 1101.12 169.846 1102.46 170.886 1103.79 171.926 1104.79 173.243 1105.45 174.837 1106.12 176.432 1106.45 178.282 1106.45 180.39 1106.45 184.442 1105.49 187.955 1103.57 190.927 1101.65 193.899 1099.05 196.087 1095.77 197.492 1092.49 198.897 1088.55 199.6 1083.95 199.6 1081.2 199.6 1078.9 199.546 1077.06 199.438L1074.47 211.353C1074.23 212.46 1074.06 213.311 1073.96 213.906 1073.87 214.5 1073.79 215.142 1073.72 215.831 1073.65 216.52 1073.62 217.135 1073.62 217.675 1073.62 218.512 1073.76 219.168 1074.03 219.64 1074.3 220.113 1074.7 220.458 1075.24 220.674 1075.78 220.89 1076.71 221.052 1078.04 221.16L1077.59 223.146 1060.93 223.146 1061.38 221.16C1062.41 220.998 1063.18 220.735 1063.69 220.37 1064.2 220.005 1064.64 219.499 1064.99 218.85 1065.34 218.202 1065.66 217.411 1065.96 216.479 1066.26 215.547 1066.7 213.744 1067.3 211.069L1074.19 179.863C1074.78 177.161 1075.08 175.027 1075.08 173.46 1075.08 172.136 1074.77 171.217 1074.15 170.704 1073.53 170.19 1072.51 169.893 1071.11 169.812Z" fill-rule="evenodd"/><text fill="#000000" fill-opacity="0" font-family="Arial,Arial_MSFontService,sans-serif" font-size="55.3198" x="1060.93" y="216.231">­ЮЉЃ</text><path d="M1118.53 201.418C1120.59 201.418 1122.35 201.651 1123.81 202.118 1125.27 202.585 1126.46 203.215 1127.37 204.009 1128.29 204.804 1128.95 205.757 1129.35 206.869 1129.76 207.981 1129.96 209.182 1129.96 210.473 1129.96 211.247 1129.91 211.967 1129.8 212.632 1129.69 213.297 1129.5 213.953 1129.23 214.598 1128.97 215.243 1128.61 215.894 1128.18 216.549 1127.74 217.204 1127.19 217.899 1126.54 218.634 1126.04 219.269 1125.4 220.004 1124.6 220.838 1123.81 221.672 1122.94 222.566 1122 223.519 1121.05 224.472 1120.07 225.465 1119.03 226.497 1118 227.53 1117 228.552 1116.03 229.565 1115.05 230.578 1114.16 231.561 1113.34 232.514 1112.53 233.467 1111.87 234.341 1111.35 235.135L1122.37 235.135C1123.3 235.135 1124.05 235.1 1124.6 235.031 1125.16 234.961 1125.62 234.807 1125.99 234.569 1126.36 234.331 1126.67 233.968 1126.93 233.482 1127.18 232.995 1127.48 232.325 1127.82 231.471L1130.59 231.471C1130.49 232.881 1130.4 234.301 1130.31 235.731 1130.22 237.16 1130.12 238.58 1130.02 239.99L1104.8 239.99 1104.8 238.441C1105.27 237.369 1105.83 236.311 1106.46 235.269 1107.1 234.226 1107.81 233.169 1108.61 232.097 1109.4 231.024 1110.31 229.917 1111.32 228.776 1112.33 227.634 1113.45 226.448 1114.68 225.216 1116.55 223.35 1118.07 221.756 1119.24 220.436 1120.41 219.115 1121.34 217.939 1122.01 216.906 1122.69 215.874 1123.15 214.921 1123.4 214.047 1123.65 213.173 1123.77 212.24 1123.77 211.247 1123.77 210.234 1123.63 209.301 1123.34 208.447 1123.05 207.594 1122.64 206.869 1122.1 206.273 1121.57 205.677 1120.89 205.211 1120.06 204.873 1119.24 204.536 1118.29 204.367 1117.22 204.367 1115.37 204.367 1113.82 204.868 1112.57 205.871 1111.32 206.874 1110.35 208.328 1109.65 210.234L1105.75 210.234 1105.75 204.426C1108.29 203.374 1110.63 202.609 1112.76 202.133 1114.9 201.656 1116.82 201.418 1118.53 201.418Z" fill-rule="evenodd"/><text fill="#000000" fill-opacity="0" font-family="Arial,Arial_MSFontService,sans-serif" font-size="38.5718" x="1104.8" y="235.168">2</text><path d="M1116.08 260.5 1116.08 352.227 1106.92 352.227 1106.92 260.5ZM1134.42 347.644 1111.5 393.477 1088.58 347.644Z"/><path d="M1091.96 1216.57C1094.41 1216.57 1096.69 1216.72 1098.78 1217.02 1100.88 1217.32 1103.21 1217.86 1105.78 1218.64L1103.34 1229.62 1099.45 1229.62C1099.24 1226.3 1098.51 1223.9 1097.29 1222.43 1096.06 1220.96 1094.08 1220.22 1091.35 1220.22 1087.62 1220.22 1084.15 1222.08 1080.95 1225.81 1077.75 1229.54 1075.22 1234.47 1073.35 1240.59 1071.49 1246.7 1070.56 1252.39 1070.56 1257.63 1070.56 1261.73 1071.29 1264.76 1072.75 1266.71 1074.21 1268.65 1076.45 1269.62 1079.47 1269.62 1081.5 1269.62 1083.27 1269.32 1084.78 1268.71 1086.3 1268.1 1087.71 1267.08 1089.04 1265.63 1090.36 1264.19 1091.67 1262.17 1092.97 1259.57L1096.86 1259.57 1094.39 1271.08C1089.34 1272.49 1084.04 1273.19 1078.5 1273.19 1073.42 1273.19 1069.56 1271.73 1066.91 1268.81 1064.26 1265.89 1062.94 1261.63 1062.94 1256.01 1062.94 1252.03 1063.65 1247.45 1065.07 1242.27 1066.48 1237.08 1068.49 1232.53 1071.08 1228.61 1073.68 1224.69 1076.74 1221.71 1080.28 1219.65 1083.82 1217.6 1087.71 1216.57 1091.96 1216.57Z" fill-rule="evenodd"/><text fill="#000000" fill-opacity="0" font-family="Arial,Arial_MSFontService,sans-serif" font-size="56.6167" x="1062.94" y="1266.11">­ЮљХ</text><path d="M1119.68 1250.81C1121.75 1250.81 1123.51 1251.05 1124.97 1251.51 1126.43 1251.98 1127.62 1252.61 1128.53 1253.4 1129.44 1254.2 1130.1 1255.15 1130.51 1256.26 1130.92 1257.38 1131.12 1258.58 1131.12 1259.87 1131.12 1260.64 1131.07 1261.36 1130.96 1262.03 1130.85 1262.69 1130.66 1263.35 1130.39 1263.99 1130.12 1264.64 1129.77 1265.29 1129.33 1265.94 1128.9 1266.6 1128.35 1267.29 1127.7 1268.03 1127.2 1268.66 1126.55 1269.4 1125.76 1270.23 1124.97 1271.07 1124.1 1271.96 1123.15 1272.91 1122.21 1273.87 1121.22 1274.86 1120.19 1275.89 1119.16 1276.92 1118.16 1277.95 1117.18 1278.96 1116.21 1279.97 1115.32 1280.96 1114.5 1281.91 1113.69 1282.86 1113.02 1283.74 1112.51 1284.53L1123.53 1284.53C1124.46 1284.53 1125.2 1284.49 1125.76 1284.43 1126.32 1284.36 1126.78 1284.2 1127.15 1283.96 1127.51 1283.73 1127.83 1283.36 1128.08 1282.88 1128.34 1282.39 1128.64 1281.72 1128.98 1280.87L1131.75 1280.87C1131.65 1282.28 1131.55 1283.7 1131.46 1285.13 1131.38 1286.56 1131.28 1287.97 1131.18 1289.38L1105.95 1289.38 1105.95 1287.84C1106.43 1286.76 1106.99 1285.71 1107.62 1284.66 1108.26 1283.62 1108.97 1282.56 1109.77 1281.49 1110.56 1280.42 1111.46 1279.31 1112.48 1278.17 1113.49 1277.03 1114.61 1275.84 1115.84 1274.61 1117.71 1272.74 1119.23 1271.15 1120.4 1269.83 1121.57 1268.51 1122.49 1267.33 1123.17 1266.3 1123.84 1265.27 1124.31 1264.32 1124.55 1263.44 1124.8 1262.57 1124.93 1261.63 1124.93 1260.64 1124.93 1259.63 1124.78 1258.7 1124.49 1257.84 1124.21 1256.99 1123.79 1256.26 1123.26 1255.67 1122.72 1255.07 1122.04 1254.61 1121.22 1254.27 1120.39 1253.93 1119.45 1253.76 1118.37 1253.76 1116.53 1253.76 1114.98 1254.26 1113.73 1255.27 1112.48 1256.27 1111.5 1257.72 1110.81 1259.63L1106.91 1259.63 1106.91 1253.82C1109.45 1252.77 1111.79 1252 1113.92 1251.53 1116.06 1251.05 1117.98 1250.81 1119.68 1250.81Z" fill-rule="evenodd"/><text fill="#000000" fill-opacity="0" font-family="Arial,Arial_MSFontService,sans-serif" font-size="38.5718" x="1105.95" y="1284.56">2</text><path d="M4.58325-0.0272534 5.38997 135.64-3.77653 135.695-4.58325 0.0272534ZM23.6957 130.948 1.052 176.917-22.1368 131.22Z" transform="matrix(-1 0 0 1 1112.55 999.5)"/><path d="M807.5 832.917 855.625 832.917 855.625 842.083 807.5 842.083ZM851.042 814.583 896.875 837.5 851.042 860.417Z"/><path d="M736.647 810.778 752.858 810.778 752.412 812.764C751.385 812.98 750.649 813.223 750.203 813.493 749.757 813.764 749.359 814.169 749.007 814.709 748.656 815.25 748.291 816.094 747.913 817.242 747.535 818.39 747.062 820.261 746.495 822.855L743.617 835.783 744.955 835.783C746.089 835.783 747.123 835.594 748.055 835.216 748.987 834.838 750.075 834.149 751.318 833.149 752.56 832.149 754.539 830.312 757.255 827.637 759.97 824.963 761.902 822.929 763.05 821.538 764.198 820.147 765.036 818.944 765.563 817.931 766.09 816.918 766.353 815.993 766.353 815.155 766.353 814.479 766.083 813.932 765.543 813.514 765.002 813.095 764.232 812.845 763.233 812.764L763.678 810.778 781.065 810.778 780.619 812.764C779.538 812.926 778.315 813.487 776.951 814.446 775.587 815.405 773.499 817.276 770.69 820.059L754.965 835.378 763.597 856.128C764.489 858.263 765.225 859.803 765.806 860.748 766.387 861.694 767.083 862.444 767.893 862.997 768.704 863.551 769.703 863.923 770.892 864.112L770.446 866.098 754.803 866.098 755.249 864.112C756.708 863.977 757.437 863.328 757.437 862.167 757.437 861.437 757.289 860.606 756.991 859.674 756.694 858.742 756.343 857.776 755.938 856.777L750.669 843.889C750.048 842.349 749.507 841.268 749.048 840.647 748.589 840.025 748.102 839.593 747.589 839.35 747.076 839.107 746.279 838.985 745.198 838.985L742.928 838.985 739.565 854.304C739.213 855.925 738.984 857.202 738.876 858.134 738.768 859.066 738.714 859.897 738.714 860.627 738.714 861.842 739.017 862.7 739.625 863.2 740.233 863.7 741.253 864.004 742.685 864.112L742.239 866.098 726.028 866.098 726.474 864.112C727.501 863.95 728.271 863.686 728.784 863.322 729.298 862.957 729.73 862.45 730.081 861.802 730.432 861.154 730.757 860.363 731.054 859.431 731.351 858.499 731.797 856.695 732.391 854.021L739.281 822.815C739.875 820.113 740.172 817.938 740.172 816.29 740.172 815.02 739.855 814.135 739.22 813.635 738.585 813.135 737.579 812.845 736.201 812.764Z" fill-rule="evenodd"/><text fill="#000000" fill-opacity="0" font-family="Arial,Arial_MSFontService,sans-serif" font-size="55.3198" x="726.028" y="859.183">­ЮљЙ</text><path d="M443.083 1000.3 443.083 1082.8 438.5 1078.21 701.978 1078.21 697.394 1082.8 697.394 463.917 996.757 463.917 996.757 473.084 701.978 473.084 706.561 468.5 706.561 1087.38 433.917 1087.38 433.917 1000.3ZM992.174 445.584 1038.01 468.5 992.174 491.417Z"/><rect x="1851" y="674" width="432" height="325" fill="#D74514"/><text fill="#FFFFFF" font-family="Microsoft YaHei,Microsoft YaHei_MSFontService,sans-serif" font-weight="700" font-size="83" transform="matrix(1 0 0 1 1985.93 817)">DES<tspan font-size="83" x="-1.44373" y="99">тіат»є</tspan></text><path d="M1992.5 468C1992.5 426.855 2025.63 393.5 2066.5 393.5 2107.37 393.5 2140.5 426.855 2140.5 468 2140.5 509.145 2107.37 542.5 2066.5 542.5 2025.63 542.5 1992.5 509.145 1992.5 468Z" stroke="#D74514" stroke-width="9.16667" stroke-miterlimit="8" fill="none" fill-rule="evenodd"/><path d="M0 0 148.129 0.000360892" stroke="#D74514" stroke-width="9.16667" stroke-miterlimit="8" fill="none" fill-rule="evenodd" transform="matrix(-1 0 0 1 2140.63 468.5)"/><path d="M0 0 0.000360892 148.129" stroke="#D74514" stroke-width="9.16667" stroke-miterlimit="8" fill="none" fill-rule="evenodd" transform="matrix(1 0 0 -1 2066.5 541.629)"/><path d="M2071.08 542.464 2071.81 633.534 2062.64 633.606 2061.92 542.536ZM2090.1 628.805 2067.55 674.819 2044.27 629.169Z"/><path d="M2037.43 171.393C2035.75 171.393 2034 171.433 2032.16 171.514L2026.65 196.074 2030.86 196.074C2034.13 196.074 2036.77 195.736 2038.79 195.061 2040.8 194.385 2042.45 193.338 2043.73 191.92 2045.01 190.501 2046.01 188.819 2046.71 186.874 2047.41 184.929 2047.76 182.794 2047.76 180.471 2047.76 177.337 2046.97 175.04 2045.37 173.581 2043.78 172.122 2041.13 171.393 2037.43 171.393ZM2020.45 167.826 2038.32 167.826C2041.54 167.826 2044.18 168.076 2046.24 168.576 2048.31 169.076 2050.01 169.846 2051.35 170.886 2052.69 171.926 2053.69 173.243 2054.35 174.837 2055.01 176.432 2055.34 178.282 2055.34 180.39 2055.34 184.442 2054.38 187.955 2052.46 190.927 2050.55 193.899 2047.95 196.087 2044.66 197.492 2041.38 198.897 2037.44 199.6 2032.85 199.6 2030.09 199.6 2027.8 199.546 2025.96 199.438L2023.37 211.353C2023.12 212.46 2022.95 213.311 2022.86 213.906 2022.76 214.5 2022.68 215.142 2022.62 215.831 2022.55 216.52 2022.51 217.135 2022.51 217.675 2022.51 218.512 2022.65 219.168 2022.92 219.64 2023.19 220.113 2023.59 220.458 2024.14 220.674 2024.68 220.89 2025.61 221.052 2026.93 221.16L2026.49 223.146 2009.83 223.146 2010.27 221.16C2011.3 220.998 2012.07 220.735 2012.58 220.37 2013.1 220.005 2013.53 219.499 2013.88 218.85 2014.23 218.202 2014.56 217.411 2014.85 216.479 2015.15 215.547 2015.6 213.744 2016.19 211.069L2023.08 179.863C2023.68 177.161 2023.97 175.027 2023.97 173.46 2023.97 172.136 2023.66 171.217 2023.04 170.704 2022.42 170.19 2021.41 169.893 2020 169.812Z" fill-rule="evenodd"/><text fill="#000000" fill-opacity="0" font-family="Arial,Arial_MSFontService,sans-serif" font-size="55.3198" x="2009.83" y="216.231">­ЮЉЃ</text><path d="M2058.9 201.358 2069.18 201.358C2070.11 203.841 2071.07 206.338 2072.05 208.849 2073.04 211.361 2074 213.868 2074.96 216.37 2075.91 218.872 2076.83 221.339 2077.71 223.772 2078.6 226.204 2079.41 228.582 2080.14 230.905L2080.53 230.905C2080.75 229.635 2081.02 228.13 2081.36 226.393 2081.7 224.655 2082.1 222.853 2082.55 220.987 2082.89 219.577 2083.23 218.128 2083.58 216.638 2083.93 215.149 2084.25 213.719 2084.55 212.349 2084.85 210.979 2085.09 209.713 2085.28 208.552 2085.47 207.39 2085.56 206.432 2085.56 205.677 2085.56 204.804 2085.34 204.183 2084.89 203.816 2084.44 203.448 2083.61 203.255 2082.4 203.235L2082.82 201.358 2093.87 201.358 2093.48 203.146C2092.81 203.344 2092.27 203.518 2091.88 203.667 2091.48 203.816 2091.14 204.104 2090.86 204.531 2090.58 204.958 2090.32 205.578 2090.07 206.392 2089.82 207.206 2089.53 208.378 2089.19 209.907L2082.46 239.99 2077.97 239.99C2076.91 237.289 2075.84 234.569 2074.73 231.829 2073.63 229.088 2072.55 226.348 2071.49 223.608 2070.43 220.868 2069.41 218.147 2068.43 215.447 2067.46 212.746 2066.58 210.086 2065.78 207.464L2065.4 207.464C2065.3 208.08 2065.18 208.795 2065.04 209.609 2064.9 210.423 2064.75 211.302 2064.58 212.245 2064.41 213.188 2064.23 214.156 2064.04 215.149 2063.85 216.142 2063.66 217.135 2063.46 218.128 2063.28 218.882 2063.07 219.761 2062.82 220.764 2062.57 221.766 2062.32 222.839 2062.06 223.98 2061.8 225.122 2061.54 226.279 2061.27 227.45 2061 228.622 2060.76 229.739 2060.54 230.801 2060.32 231.863 2060.15 232.831 2060.02 233.705 2059.89 234.579 2059.83 235.264 2059.83 235.76 2059.83 236.594 2060.06 237.185 2060.54 237.533 2061.02 237.88 2061.83 238.094 2062.98 238.173L2062.66 239.99 2051.55 239.99 2051.93 238.173C2052.53 238.074 2053.03 237.954 2053.42 237.816 2053.82 237.677 2054.17 237.394 2054.47 236.967 2054.76 236.54 2055.05 235.899 2055.31 235.045 2055.58 234.192 2055.88 232.99 2056.22 231.441L2061.11 209.728C2061.29 208.934 2061.42 208.194 2061.51 207.509 2061.6 206.824 2061.64 206.213 2061.64 205.677 2061.64 204.804 2061.42 204.183 2060.96 203.816 2060.5 203.448 2059.67 203.255 2058.46 203.235Z" fill-rule="evenodd"/><text fill="#000000" fill-opacity="0" font-family="Arial,Arial_MSFontService,sans-serif" font-size="38.6313" x="2051.55" y="235.161">­ЮЉЂ</text><path d="M2071.08 260.5 2071.08 352.227 2061.92 352.227 2061.92 260.5ZM2089.42 347.644 2066.5 393.477 2043.58 347.644Z"/><path d="M2040.85 1216.57C2043.31 1216.57 2045.59 1216.72 2047.68 1217.02 2049.77 1217.32 2052.1 1217.86 2054.67 1218.64L2052.24 1229.62 2048.35 1229.62C2048.13 1226.3 2047.41 1223.9 2046.18 1222.43 2044.95 1220.96 2042.97 1220.22 2040.24 1220.22 2036.51 1220.22 2033.05 1222.08 2029.85 1225.81 2026.65 1229.54 2024.11 1234.47 2022.25 1240.59 2020.38 1246.7 2019.45 1252.39 2019.45 1257.63 2019.45 1261.73 2020.18 1264.76 2021.64 1266.71 2023.1 1268.65 2025.34 1269.62 2028.37 1269.62 2030.39 1269.62 2032.16 1269.32 2033.68 1268.71 2035.19 1268.1 2036.61 1267.08 2037.93 1265.63 2039.26 1264.19 2040.57 1262.17 2041.86 1259.57L2045.75 1259.57 2043.28 1271.08C2038.23 1272.49 2032.93 1273.19 2027.4 1273.19 2022.32 1273.19 2018.45 1271.73 2015.8 1268.81 2013.16 1265.89 2011.83 1261.63 2011.83 1256.01 2011.83 1252.03 2012.54 1247.45 2013.96 1242.27 2015.38 1237.08 2017.39 1232.53 2019.98 1228.61 2022.57 1224.69 2025.64 1221.71 2029.18 1219.65 2032.72 1217.6 2036.61 1216.57 2040.85 1216.57Z" fill-rule="evenodd"/><text fill="#000000" fill-opacity="0" font-family="Arial,Arial_MSFontService,sans-serif" font-size="56.6167" x="2011.83" y="1266.11">­ЮљХ</text><path d="M2060.06 1250.75 2070.34 1250.75C2071.27 1253.24 2072.23 1255.73 2073.21 1258.24 2074.19 1260.76 2075.16 1263.26 2076.11 1265.77 2077.07 1268.27 2077.99 1270.73 2078.87 1273.17 2079.75 1275.6 2080.56 1277.98 2081.3 1280.3L2081.68 1280.3C2081.9 1279.03 2082.18 1277.53 2082.52 1275.79 2082.86 1274.05 2083.25 1272.25 2083.71 1270.38 2084.05 1268.97 2084.39 1267.52 2084.74 1266.03 2085.08 1264.54 2085.41 1263.11 2085.71 1261.74 2086 1260.37 2086.25 1259.11 2086.44 1257.95 2086.62 1256.78 2086.72 1255.83 2086.72 1255.07 2086.72 1254.2 2086.49 1253.58 2086.05 1253.21 2085.6 1252.84 2084.77 1252.65 2083.56 1252.63L2083.98 1250.75 2095.03 1250.75 2094.64 1252.54C2093.97 1252.74 2093.43 1252.91 2093.03 1253.06 2092.64 1253.21 2092.3 1253.5 2092.02 1253.93 2091.74 1254.35 2091.48 1254.97 2091.23 1255.79 2090.98 1256.6 2090.69 1257.77 2090.35 1259.3L2083.62 1289.38 2079.12 1289.38C2078.07 1286.68 2076.99 1283.96 2075.89 1281.22 2074.79 1278.48 2073.71 1275.74 2072.64 1273 2071.58 1270.26 2070.56 1267.54 2069.59 1264.84 2068.62 1262.14 2067.73 1259.48 2066.94 1256.86L2066.55 1256.86C2066.45 1257.47 2066.33 1258.19 2066.2 1259 2066.06 1259.82 2065.9 1260.7 2065.73 1261.64 2065.57 1262.58 2065.39 1263.55 2065.2 1264.54 2065.01 1265.54 2064.82 1266.53 2064.62 1267.52 2064.44 1268.28 2064.23 1269.16 2063.98 1270.16 2063.73 1271.16 2063.48 1272.23 2063.22 1273.38 2062.96 1274.52 2062.7 1275.67 2062.43 1276.85 2062.16 1278.02 2061.92 1279.13 2061.7 1280.2 2061.48 1281.26 2061.31 1282.23 2061.18 1283.1 2061.05 1283.97 2060.98 1284.66 2060.98 1285.16 2060.98 1285.99 2061.22 1286.58 2061.7 1286.93 2062.18 1287.28 2062.99 1287.49 2064.14 1287.57L2063.81 1289.38 2052.7 1289.38 2053.09 1287.57C2053.69 1287.47 2054.18 1287.35 2054.58 1287.21 2054.98 1287.07 2055.32 1286.79 2055.62 1286.36 2055.92 1285.93 2056.2 1285.29 2056.47 1284.44 2056.74 1283.59 2057.04 1282.39 2057.38 1280.84L2062.26 1259.12C2062.44 1258.33 2062.58 1257.59 2062.67 1256.9 2062.76 1256.22 2062.8 1255.61 2062.8 1255.07 2062.8 1254.2 2062.57 1253.58 2062.12 1253.21 2061.66 1252.84 2060.82 1252.65 2059.61 1252.63Z" fill-rule="evenodd"/><text fill="#000000" fill-opacity="0" font-family="Arial,Arial_MSFontService,sans-serif" font-size="38.6313" x="2052.7" y="1284.56">­ЮЉЂ</text><path d="M4.58325-0.0272534 5.38997 135.64-3.77653 135.695-4.58325 0.0272534ZM23.6957 130.948 1.052 176.917-22.1368 131.22Z" transform="matrix(-1 0 0 1 2067.55 999.5)"/><path d="M1761.5 832.917 1809.62 832.917 1809.62 842.083 1761.5 842.083ZM1805.04 814.583 1850.87 837.5 1805.04 860.417Z"/><path d="M1691.4 810.778 1707.61 810.778 1707.16 812.764C1706.13 812.98 1705.4 813.223 1704.95 813.493 1704.51 813.764 1704.11 814.169 1703.76 814.709 1703.41 815.25 1703.04 816.094 1702.66 817.242 1702.28 818.39 1701.81 820.261 1701.24 822.855L1698.37 835.783 1699.7 835.783C1700.84 835.783 1701.87 835.594 1702.8 835.216 1703.74 834.838 1704.82 834.149 1706.07 833.149 1707.31 832.149 1709.29 830.312 1712 827.637 1714.72 824.963 1716.65 822.929 1717.8 821.538 1718.95 820.147 1719.79 818.944 1720.31 817.931 1720.84 816.918 1721.1 815.993 1721.1 815.155 1721.1 814.479 1720.83 813.932 1720.29 813.514 1719.75 813.095 1718.98 812.845 1717.98 812.764L1718.43 810.778 1735.81 810.778 1735.37 812.764C1734.29 812.926 1733.06 813.487 1731.7 814.446 1730.34 815.405 1728.25 817.276 1725.44 820.059L1709.71 835.378 1718.35 856.128C1719.24 858.263 1719.97 859.803 1720.56 860.748 1721.14 861.694 1721.83 862.444 1722.64 862.997 1723.45 863.551 1724.45 863.923 1725.64 864.112L1725.2 866.098 1709.55 866.098 1710 864.112C1711.46 863.977 1712.19 863.328 1712.19 862.167 1712.19 861.437 1712.04 860.606 1711.74 859.674 1711.44 858.742 1711.09 857.776 1710.69 856.777L1705.42 843.889C1704.8 842.349 1704.26 841.268 1703.8 840.647 1703.34 840.025 1702.85 839.593 1702.34 839.35 1701.83 839.107 1701.03 838.985 1699.95 838.985L1697.68 838.985 1694.31 854.304C1693.96 855.925 1693.73 857.202 1693.62 858.134 1693.52 859.066 1693.46 859.897 1693.46 860.627 1693.46 861.842 1693.77 862.7 1694.37 863.2 1694.98 863.7 1696 864.004 1697.43 864.112L1696.99 866.098 1680.78 866.098 1681.22 864.112C1682.25 863.95 1683.02 863.686 1683.53 863.322 1684.05 862.957 1684.48 862.45 1684.83 861.802 1685.18 861.154 1685.51 860.363 1685.8 859.431 1686.1 858.499 1686.55 856.695 1687.14 854.021L1694.03 822.815C1694.62 820.113 1694.92 817.938 1694.92 816.29 1694.92 815.02 1694.6 814.135 1693.97 813.635 1693.33 813.135 1692.33 812.845 1690.95 812.764Z" fill-rule="evenodd"/><text fill="#000000" fill-opacity="0" font-family="Arial,Arial_MSFontService,sans-serif" font-size="55.3198" x="1680.78" y="859.183">­ЮљЙ</text><path d="M1521.27 837.161C1522.67 837.161 1523.85 837.654 1524.79 838.641 1525.74 839.627 1526.21 840.876 1526.21 842.389 1526.21 843.902 1525.74 845.152 1524.79 846.138 1523.85 847.124 1522.67 847.617 1521.27 847.617 1519.86 847.617 1518.69 847.124 1517.74 846.138 1516.79 845.152 1516.32 843.902 1516.32 842.389 1516.32 840.876 1516.79 839.627 1517.74 838.641 1518.69 837.654 1519.86 837.161 1521.27 837.161ZM1496.71 837.161C1498.11 837.161 1499.29 837.654 1500.23 838.641 1501.18 839.627 1501.65 840.876 1501.65 842.389 1501.65 843.902 1501.18 845.152 1500.23 846.138 1499.29 847.124 1498.11 847.617 1496.71 847.617 1495.3 847.617 1494.13 847.124 1493.18 846.138 1492.23 845.152 1491.76 843.902 1491.76 842.389 1491.76 840.876 1492.23 839.627 1493.18 838.641 1494.13 837.654 1495.3 837.161 1496.71 837.161ZM1472.15 837.161C1473.55 837.161 1474.73 837.654 1475.67 838.641 1476.62 839.627 1477.09 840.876 1477.09 842.389 1477.09 843.902 1476.62 845.152 1475.67 846.138 1474.73 847.124 1473.55 847.617 1472.15 847.617 1470.74 847.617 1469.57 847.124 1468.62 846.138 1467.68 845.152 1467.2 843.902 1467.2 842.389 1467.2 840.876 1467.68 839.627 1468.62 838.641 1469.57 837.654 1470.74 837.161 1472.15 837.161Z" fill-rule="evenodd"/><text fill="#000000" fill-opacity="0" font-family="Arial,Arial_MSFontService,sans-serif" font-size="10.4561" x="1467.2" y="846.31">РІ»</text><path d="M1656.64 441.038C1659.1 441.038 1661.37 441.186 1663.47 441.484 1665.56 441.781 1667.89 442.321 1670.46 443.105L1668.03 454.088 1664.14 454.088C1663.92 450.764 1663.2 448.366 1661.97 446.894 1660.74 445.421 1658.76 444.685 1656.03 444.685 1652.3 444.685 1648.84 446.549 1645.64 450.278 1642.43 454.006 1639.9 458.931 1638.04 465.05 1636.17 471.17 1635.24 476.85 1635.24 482.092 1635.24 486.199 1635.97 489.225 1637.43 491.17 1638.89 493.115 1641.13 494.088 1644.16 494.088 1646.18 494.088 1647.95 493.784 1649.47 493.176 1650.98 492.568 1652.4 491.542 1653.72 490.096 1655.04 488.651 1656.36 486.631 1657.65 484.037L1661.54 484.037 1659.07 495.547C1654.02 496.952 1648.72 497.654 1643.18 497.654 1638.1 497.654 1634.24 496.195 1631.59 493.277 1628.95 490.359 1627.62 486.091 1627.62 480.471 1627.62 476.499 1628.33 471.92 1629.75 466.732 1631.17 461.545 1633.17 456.992 1635.77 453.074 1638.36 449.157 1641.43 446.171 1644.97 444.118 1648.51 442.064 1652.4 441.038 1656.64 441.038Z" fill-rule="evenodd"/><text fill="#000000" fill-opacity="0" font-family="Arial,Arial_MSFontService,sans-serif" font-size="56.6167" x="1627.62" y="490.577">­ЮљХ</text><path d="M1675.85 475.218 1686.12 475.218C1687.06 477.701 1688.02 480.197 1689 482.709 1689.98 485.221 1690.95 487.728 1691.9 490.23 1692.86 492.732 1693.77 495.199 1694.66 497.632 1695.54 500.064 1696.35 502.442 1697.09 504.765L1697.47 504.765C1697.69 503.494 1697.97 501.99 1698.31 500.253 1698.64 498.515 1699.04 496.713 1699.5 494.847 1699.84 493.437 1700.18 491.987 1700.53 490.498 1700.87 489.009 1701.2 487.579 1701.49 486.209 1701.79 484.839 1702.03 483.573 1702.22 482.411 1702.41 481.25 1702.51 480.292 1702.51 479.537 1702.51 478.664 1702.28 478.043 1701.84 477.676 1701.39 477.308 1700.56 477.115 1699.35 477.095L1699.77 475.218 1710.82 475.218 1710.43 477.005C1709.75 477.204 1709.22 477.378 1708.82 477.527 1708.42 477.676 1708.09 477.964 1707.81 478.391 1707.53 478.817 1707.27 479.438 1707.02 480.252 1706.77 481.066 1706.48 482.238 1706.14 483.767L1699.41 513.85 1694.91 513.85C1693.86 511.149 1692.78 508.429 1691.68 505.689 1690.58 502.948 1689.5 500.208 1688.43 497.468 1687.37 494.728 1686.35 492.007 1685.38 489.307 1684.41 486.606 1683.52 483.945 1682.73 481.324L1682.34 481.324C1682.24 481.94 1682.12 482.655 1681.98 483.469 1681.85 484.283 1681.69 485.162 1681.52 486.105 1681.35 487.048 1681.18 488.016 1680.99 489.009 1680.8 490.002 1680.6 490.995 1680.41 491.987 1680.23 492.742 1680.01 493.621 1679.77 494.623 1679.52 495.626 1679.26 496.698 1679.01 497.84 1678.75 498.982 1678.48 500.139 1678.22 501.31 1677.95 502.482 1677.71 503.599 1677.49 504.661 1677.27 505.723 1677.09 506.691 1676.97 507.565 1676.84 508.439 1676.77 509.124 1676.77 509.62 1676.77 510.454 1677.01 511.045 1677.49 511.392 1677.96 511.74 1678.78 511.953 1679.93 512.033L1679.6 513.85 1668.49 513.85 1668.88 512.033C1669.47 511.934 1669.97 511.814 1670.37 511.675 1670.77 511.536 1671.11 511.253 1671.41 510.827 1671.71 510.4 1671.99 509.759 1672.26 508.905 1672.53 508.052 1672.83 506.85 1673.17 505.301L1678.05 483.588C1678.23 482.794 1678.37 482.054 1678.45 481.369 1678.54 480.684 1678.59 480.073 1678.59 479.537 1678.59 478.664 1678.36 478.043 1677.9 477.676 1677.45 477.308 1676.61 477.115 1675.4 477.095Z" fill-rule="evenodd"/><text fill="#000000" fill-opacity="0" font-family="Arial,Arial_MSFontService,sans-serif" font-size="38.6313" x="1668.49" y="509.021">­ЮЉЂ</text><path d="M1718.28 494.132 1752.59 494.132 1752.59 498.689 1718.28 498.689Z" fill-rule="evenodd"/><text fill="#000000" fill-opacity="0" font-family="Arial,Arial_MSFontService,sans-serif" font-size="4.55713" x="1718.28" y="498.119">Рѕњ</text><path d="M1776.89 475.486 1778.71 475.486C1778.67 476.579 1778.64 477.557 1778.62 478.42 1778.6 479.284 1778.58 480.123 1778.57 480.937 1778.56 481.751 1778.56 482.555 1778.56 483.35L1778.56 505.986C1778.56 506.602 1778.58 507.133 1778.62 507.58 1778.66 508.027 1778.72 508.404 1778.81 508.712 1778.9 509.02 1779.02 509.283 1779.17 509.501 1779.32 509.72 1779.49 509.908 1779.69 510.067 1779.93 510.305 1780.25 510.489 1780.64 510.618 1781.04 510.747 1781.55 510.856 1782.16 510.946 1782.78 511.035 1783.52 511.105 1784.38 511.154 1785.25 511.204 1786.28 511.239 1787.49 511.258L1787.49 513.85 1763.87 513.85 1763.87 511.258C1765.05 511.219 1766.04 511.174 1766.85 511.124 1767.67 511.075 1768.36 511.005 1768.94 510.916 1769.51 510.827 1769.98 510.727 1770.32 510.618 1770.67 510.509 1770.97 510.375 1771.23 510.216 1771.51 510.037 1771.75 509.844 1771.95 509.635 1772.14 509.427 1772.3 509.164 1772.42 508.846 1772.54 508.528 1772.64 508.141 1772.71 507.684 1772.78 507.228 1772.81 506.662 1772.81 505.986L1772.81 484.63C1772.81 483.856 1772.66 483.31 1772.36 482.992 1772.07 482.675 1771.64 482.516 1771.08 482.516 1770.47 482.516 1769.55 482.833 1768.34 483.469 1767.13 484.104 1765.56 485.047 1763.64 486.298 1763.38 485.842 1763.14 485.385 1762.92 484.928 1762.7 484.472 1762.47 484.005 1762.24 483.528 1764.7 482.178 1767.14 480.833 1769.55 479.493 1771.96 478.152 1774.41 476.817 1776.89 475.486Z" fill-rule="evenodd"/><text fill="#000000" fill-opacity="0" font-family="Arial,Arial_MSFontService,sans-serif" font-size="38.3633" x="1762.24" y="509.054">1</text><path d="M1832.5 463.917 1951.42 463.917 1951.42 473.084 1832.5 473.083ZM1946.84 445.584 1992.67 468.5 1946.84 491.417Z"/></g></svg>