<svg xmlns="http://www.w3.org/2000/svg" width="4039" height="3734" overflow="hidden"><defs><clipPath id="a"><path d="M239-1526h4039v3734H239z"/></clipPath></defs><g clip-path="url(#a)" transform="translate(-239 1526)"><path fill="#d74514" d="M598-948h433v326H598z"/><text fill="#fff" font-family="Microsoft YaHei,Microsoft YaHei_MSFontService,sans-serif" font-size="83" font-weight="700" transform="translate(733.404 -805)">DES<tspan x="-1.444" y="99">加</tspan><tspan x="81.056" y="99">密</tspan></text><path d="M509.5-789.083h48.125v9.167l-48.125-.001Zm43.542-18.333 45.833 22.916-45.833 22.917Z"/><path fill-rule="evenodd" d="M438.87-810.835h16.211l-.446 1.986q-1.539.324-2.208.729-.67.406-1.196 1.216-.527.811-1.094 2.533-.567 1.723-1.418 5.613l-2.878 12.929h1.337q1.703 0 3.101-.568 1.398-.567 3.262-2.067t5.938-5.511q4.073-4.012 5.795-6.1t2.513-3.607q.79-1.52.79-2.776 0-1.012-.811-1.641-.81-.628-2.31-.75l.446-1.986h17.386l-.445 1.986q-1.622.243-3.668 1.682-2.047 1.438-6.262 5.613l-15.724 15.319 8.632 20.75q1.338 3.202 2.209 4.62t2.087 2.25q1.215.83 2.999 1.114l-.446 1.986h-15.643l.445-1.986q2.189-.202 2.189-1.945 0-1.094-.446-2.493a40 40 0 0 0-1.054-2.897l-5.268-12.888q-.933-2.31-1.621-3.242-.69-.933-1.459-1.297-.771-.365-2.391-.365h-2.27l-3.364 15.32q-.527 2.431-.689 3.829a22 22 0 0 0-.162 2.493q0 1.823.912 2.573t3.06.912l-.446 1.986h-16.211l.446-1.986q1.54-.243 2.31-.79t1.297-1.52q.526-.972.973-2.371.446-1.398 1.337-5.41l6.89-31.206q.891-4.053.891-6.525 0-1.905-.952-2.655-.953-.749-3.019-.871Z"/><text x="428.252" y="-762.43" fill-opacity="0" font-family="Arial,Arial_MSFontService,sans-serif" font-size="55.32">𝐾</text><path fill="#fdefe8" d="M701-460h703v219H701z"/><text fill="#d74514" font-family="Microsoft YaHei,Microsoft YaHei_MSFontService,sans-serif" font-size="83" font-weight="700" transform="translate(748.906 -323)">丢弃</text><path fill="#d74514" fill-rule="evenodd" d="M962.922-351.341q-1.986 0-3.728.587-1.743.588-3.081 1.581-1.336.993-1.803 1.621-.466.629-.669 1.803-.202 1.176-.202 4.134 0 7.416 2.067 11.145 2.066 3.729 6.322 3.729 4.336 0 6.484-3.141t2.148-9.707q0-5.795-1.925-8.774-1.924-2.978-5.613-2.978m46.978-14.226-13.865 20.872v.689h13.865v-9.281c0-3.89.13-7.984.4-12.28Zm2.87-12.887h9.12v34.448h1.26q1.98 0 2.79-.263c.54-.176 1.01-.507 1.4-.993.39-.487.77-1.351 1.12-2.594h4.25l-.48 8.956h-10.34v6.039c0 2.026.12 3.452.37 4.276q.36 1.236 1.11 1.844c.5.405 1.47.81 2.9 1.215v2.675h-20.71v-2.675q2.145-.567 2.94-1.276c.52-.473.89-1.101 1.09-1.885.2-.783.31-2.175.31-4.174v-6.039h-21.727v-4.376Zm-39.311-.365 2.189 2.796v2.513q-8.875.203-14.388 5.492-5.511 5.288-7.335 15.137l.405.162q3.162-2.189 6.363-3.202t7.011-1.013q4.66 0 8.004 2.046 3.344 2.047 5.046 5.776t1.702 8.672q0 5.391-2.269 9.504t-6.991 6.424-11.571 2.31q-6.282 0-10.8-2.513-4.52-2.512-6.91-7.416t-2.391-11.916q0-9.483 3.992-17.143t11.327-12.32 16.616-5.309"/><text x="941.524" y="-329.279" fill-opacity="0" font-family="Arial,Arial_MSFontService,sans-serif" font-size="56.617">𝟔𝟒</text><path fill="#d74514" fill-rule="evenodd" d="M1059.74-349.275h49.93v5.391h-49.93Z"/><text x="1059.74" y="-344.558" fill-opacity="0" font-family="Arial,Arial_MSFontService,sans-serif" font-size="5.39">−</text><path fill="#d74514" fill-rule="evenodd" d="M1155.87-363.5h4.62l-8.55 39.393c-1.46 6.727-3.84 11.638-7.15 14.732s-7.82 4.64-13.52 4.64c-1.27 0-2.55-.176-3.85-.527l1.1-4.417q1.125.324 2.67.324c1.22 0 2.21-.169 2.98-.507s1.46-.918 2.09-1.742q.93-1.236 1.74-3.628c.54-1.594 1.13-3.836 1.78-6.727l6.57-29.18q.93-4.134.93-6.079 0-1.58-.75-2.249c-.5-.446-1.55-.75-3.14-.912l.61-2.675Zm-2.88-15.724h10.38l-2.11 9.929h-10.49Z"/><text x="1127.42" y="-314.046" fill-opacity="0" font-family="Arial,Arial_MSFontService,sans-serif" font-size="74.489">𝒋</text><text fill="#d74514" font-family="Microsoft YaHei,Microsoft YaHei_MSFontService,sans-serif" font-size="83" font-weight="700" transform="translate(1190.62 -323)">比特</text><path fill="#f8ccb9" d="M239-460h472v219H239z"/><text fill="#d74514" font-family="Microsoft YaHei,Microsoft YaHei_MSFontService,sans-serif" font-size="83" font-weight="700" transform="translate(311.439 -323)">选</text><path fill="#d74514" fill-rule="evenodd" d="M438.822-363.5h4.62l-8.551 39.393q-2.189 10.09-7.153 14.732-4.965 4.64-13.516 4.64a14.7 14.7 0 0 1-3.85-.527l1.094-4.417q1.135.324 2.675.324 1.824 0 2.979-.507 1.154-.506 2.087-1.742.932-1.236 1.742-3.628.811-2.39 1.784-6.727l6.565-29.18q.932-4.134.932-6.079 0-1.58-.75-2.249-.749-.669-3.14-.912l.607-2.675Zm-2.877-15.724h10.375l-2.108 9.929h-10.496Z"/><text x="410.372" y="-314.046" fill-opacity="0" font-family="Arial,Arial_MSFontService,sans-serif" font-size="74.489">𝒋</text><text fill="#d74514" font-family="Microsoft YaHei,Microsoft YaHei_MSFontService,sans-serif" font-size="83" font-weight="700" transform="translate(473.575 -323)">比特</text><path fill="#fdefe8" d="M972-1369h432v218H972z"/><path fill="#d74514" fill-rule="evenodd" d="M1098.81-1271.41h4.62l-8.55 39.4c-1.46 6.72-3.85 11.63-7.16 14.73-3.31 3.09-7.81 4.64-13.51 4.64-1.27 0-2.55-.18-3.85-.53l1.09-4.42c.76.22 1.65.33 2.68.33 1.21 0 2.21-.17 2.98-.51s1.46-.92 2.08-1.74 1.21-2.03 1.75-3.63c.54-1.59 1.13-3.83 1.78-6.73l6.56-29.17c.63-2.76.94-4.79.94-6.08q0-1.59-.75-2.25c-.5-.45-1.55-.75-3.14-.92l.6-2.67Zm-2.88-15.72h10.38l-2.11 9.93h-10.5Z"/><text x="1070.36" y="-1221.95" fill-opacity="0" font-family="Arial,Arial_MSFontService,sans-serif" font-size="74.489">𝒋</text><text fill="#d74514" font-family="Microsoft YaHei,Microsoft YaHei_MSFontService,sans-serif" font-size="83" font-weight="700" transform="translate(1133.56 -1231)">比特</text><path fill="#f8ccb9" d="M239-1369h733v218H239z"/><path fill="#d74514" fill-rule="evenodd" d="M422.138-1259.25c-1.324 0-2.567.2-3.729.59s-2.188.92-3.08 1.58q-1.337.99-1.803 1.62c-.311.42-.534 1.02-.669 1.81-.135.78-.203 2.16-.203 4.13 0 4.94.689 8.66 2.067 11.14 1.378 2.49 3.486 3.73 6.323 3.73 2.891 0 5.052-1.04 6.484-3.14 1.432-2.09 2.148-5.33 2.148-9.7 0-3.87-.642-6.79-1.925-8.78-1.283-1.98-3.155-2.98-5.613-2.98m46.973-14.22-13.86 20.87v.69h13.86v-9.28c0-3.89.136-7.99.406-12.28Zm2.878-12.89h9.119v34.45h1.256q1.986 0 2.796-.27.811-.255 1.399-.99c.391-.48.763-1.35 1.114-2.59h4.255l-.486 8.95h-10.334v6.04c0 2.03.121 3.45.364 4.28.243.82.615 1.44 1.115 1.84.5.41 1.466.81 2.898 1.22v2.67h-20.71v-2.67c1.432-.38 2.411-.81 2.938-1.28s.892-1.1 1.095-1.88c.202-.79.303-2.18.303-4.18v-6.04h-21.722v-4.37Zm-39.314-.37 2.188 2.8v2.51c-5.917.14-10.712 1.97-14.387 5.5-3.674 3.52-6.119 8.57-7.335 15.13l.405.16c2.107-1.45 4.228-2.52 6.363-3.2 2.134-.67 4.471-1.01 7.011-1.01 3.107 0 5.775.68 8.004 2.05 2.229 1.36 3.911 3.29 5.046 5.77q1.702 3.735 1.702 8.67 0 5.4-2.27 9.51t-6.99 6.42q-4.722 2.31-11.571 2.31c-4.188 0-7.788-.84-10.801-2.51-3.012-1.68-5.315-4.15-6.909-7.42q-2.392-4.905-2.392-11.91c0-6.32 1.331-12.04 3.992-17.15 2.662-5.1 6.437-9.21 11.328-12.32q7.335-4.65 16.616-5.31"/><text x="400.739" y="-1237.19" fill-opacity="0" font-family="Arial,Arial_MSFontService,sans-serif" font-size="56.617">𝟔𝟒</text><path fill="#d74514" fill-rule="evenodd" d="M518.952-1257.18h49.929v5.39h-49.929Z"/><text x="518.952" y="-1252.46" fill-opacity="0" font-family="Arial,Arial_MSFontService,sans-serif" font-size="5.39">−</text><path fill="#d74514" fill-rule="evenodd" d="M615.087-1271.41h4.621l-8.552 39.4q-2.188 10.08-7.153 14.73c-3.31 3.09-7.815 4.64-13.516 4.64-1.27 0-2.553-.18-3.85-.53l1.094-4.42q1.136.33 2.675.33 1.824 0 2.979-.51t2.087-1.74 1.743-3.63c.54-1.59 1.135-3.83 1.783-6.73l6.565-29.17c.622-2.76.933-4.79.933-6.08q0-1.59-.75-2.25c-.5-.45-1.547-.75-3.141-.92l.608-2.67Zm-2.877-15.72h10.375l-2.107 9.93h-10.497Z"/><text x="586.637" y="-1221.95" fill-opacity="0" font-family="Arial,Arial_MSFontService,sans-serif" font-size="74.489">𝒋</text><text fill="#d74514" font-family="Microsoft YaHei,Microsoft YaHei_MSFontService,sans-serif" font-size="83" font-weight="700" transform="translate(649.84 -1231)">比特</text><path d="M819.083-1150.5v162.042h-9.166V-1150.5Zm18.334 157.458L814.5-947.208l-22.917-45.834ZM819.083-621.5v121.458h-9.166V-621.5Zm18.334 116.875L814.5-458.792l-22.917-45.833Z"/><path fill="none" stroke="#000" stroke-miterlimit="8" stroke-width="9.167" d="M869.793-1108.5 746.5-1012.25M869.793-603.5 746.5-507.25"/><path fill-rule="evenodd" d="M903.802-1043.29c-1.324 0-2.6.15-3.83.44-1.229.3-2.384.73-3.465 1.3s-2.134 1.28-3.161 2.15c-.324.29-.567.61-.729.93-.271.51-.446 1.15-.527 1.9q-.122 1.14-.122 3.81c0 5.16.865 9.1 2.594 11.8q2.594 4.05 7.862 4.05 3.04 0 5.107-1.05c1.378-.71 2.492-1.67 3.343-2.9s1.459-2.68 1.824-4.34.547-3.46.547-5.41c0-4-.824-7.11-2.472-9.34s-3.972-3.34-6.971-3.34m46.811-17.27-15.846 25.17v.57h15.846v-10.09c0-2.54.04-5.39.121-8.54q.122-4.71.284-7.11Zm1.175-9.16h5.795v34.9h.852c1.567 0 2.688-.12 3.363-.35a3.5 3.5 0 0 0 1.682-1.21c.446-.58.858-1.54 1.236-2.86h3.08l-.486 8.35h-9.727v6.64c0 1.81.061 3.14.183 3.98.121.83.324 1.5.608 1.98.283.49.702.89 1.256 1.22.554.32 1.452.65 2.695.97v1.99h-16.454v-1.99q2.512-.645 3.364-1.44.851-.78 1.114-2.25c.176-.97.264-2.46.264-4.46v-6.64H928.08v-3.04Zm-37.57-.36 1.661 2.23v1.98c-4.16 0-7.848.89-11.064 2.68q-4.822 2.67-8.004 7.86c-2.121 3.46-3.613 7.57-4.478 12.32l.405.16c2.27-1.62 4.506-2.81 6.708-3.56q3.303-1.14 7.153-1.14 4.58 0 7.801 2.01c2.148 1.33 3.762 3.21 4.843 5.63q1.621 3.63 1.621 8.49 0 5.265-2.026 9.3c-1.351 2.69-3.438 4.8-6.262 6.34q-4.235 2.31-10.435 2.31c-5.917 0-10.382-1.83-13.395-5.51-3.012-3.67-4.518-9.09-4.518-16.25 0-4.81.756-9.31 2.269-13.49 1.513-4.19 3.661-7.85 6.444-10.97s6.011-5.58 9.686-7.37c3.674-1.8 7.538-2.81 11.591-3.02"/><text x="884.228" y="-1020.54" fill-opacity="0" font-family="Arial,Arial_MSFontService,sans-serif" font-size="56.617">64</text><path fill-rule="evenodd" d="M903.802-536.609q-1.986 0-3.83.446a15 15 0 0 0-3.465 1.297 17.7 17.7 0 0 0-3.161 2.148 3.3 3.3 0 0 0-.729.932q-.406.77-.527 1.905-.122 1.134-.122 3.809 0 7.741 2.594 11.794 2.594 4.052 7.862 4.052 3.04 0 5.107-1.053 2.067-1.054 3.343-2.898t1.824-4.336q.547-2.493.547-5.411 0-5.998-2.472-9.341-2.472-3.344-6.971-3.344m46.811-17.265-15.846 25.168v.567h15.846v-10.091q0-3.81.121-8.531.122-4.722.284-7.113Zm1.175-9.159h5.795v34.894h.852q2.35 0 3.363-.344a3.5 3.5 0 0 0 1.682-1.216q.669-.871 1.236-2.857h3.08l-.486 8.348h-9.727v6.647q0 2.715.183 3.972.182 1.256.608 1.985.425.73 1.256 1.216.83.486 2.695.973v1.986h-16.454v-1.986q2.512-.648 3.364-1.439.851-.79 1.114-2.249t.264-4.458v-6.647H928.08v-3.039Zm-37.57-.365 1.661 2.229v1.986q-6.24 0-11.064 2.675-4.822 2.675-8.004 7.862t-4.478 12.321l.405.162q3.405-2.431 6.708-3.567 3.303-1.134 7.153-1.134 4.58 0 7.801 2.006t4.843 5.633 1.621 8.491q0 5.268-2.026 9.301-2.026 4.032-6.262 6.342t-10.435 2.31q-8.876 0-13.395-5.512-4.518-5.511-4.518-16.251 0-7.214 2.269-13.496 2.27-6.281 6.444-10.962 4.174-4.682 9.686-7.376a29.7 29.7 0 0 1 11.591-3.02"/><text x="884.228" y="-513.858" fill-opacity="0" font-family="Arial,Arial_MSFontService,sans-serif" font-size="56.617">64</text><path fill="none" stroke="#d74514" stroke-miterlimit="8" stroke-width="9.167" d="M403.5 18c0-41.145 33.131-74.5 74-74.5s74 33.355 74 74.5-33.131 74.5-74 74.5-74-33.355-74-74.5Zm148.129-.5H403.5m74 74.13V-56.5"/><path fill-rule="evenodd" d="M1012.38-8.986c2.46 0 4.73.149 6.83.446q3.135.446 6.99 1.621l-2.43 10.983h-3.89c-.22-3.323-.94-5.721-2.17-7.193q-1.845-2.21-5.94-2.21c-3.73 0-7.19 1.865-10.39 5.594q-4.807 5.592-7.603 14.772t-2.796 17.042q0 6.159 2.188 9.078t6.728 2.918q3.034 0 5.313-.912c1.51-.608 2.93-1.635 4.25-3.08q1.995-2.168 3.93-6.06h3.89l-2.47 11.51c-5.05 1.406-10.35 2.108-15.886 2.108q-7.619 0-11.591-4.377-3.97-4.377-3.971-12.807 0-5.956 2.127-13.738 2.128-7.781 6.019-13.658t9.202-8.957q5.31-3.08 11.67-3.08"/><text x="983.362" y="40.554" fill-opacity="0" font-family="Arial,Arial_MSFontService,sans-serif" font-size="56.617">𝐶</text><path fill-rule="evenodd" d="M1040.53 25.463h1.82q-.06 1.638-.09 2.934c-.02.864-.04 1.703-.05 2.517s-.01 1.618-.01 2.412v22.637q0 .924.06 1.594c.04.446.1.824.19 1.131q.135.462.36.79c.15.218.32.407.52.566.24.238.55.422.95.55.4.13.91.239 1.52.328q.93.135 2.22.209c.86.05 1.9.084 3.11.104v2.591h-23.62v-2.591c1.17-.04 2.17-.084 2.98-.134.82-.05 1.51-.12 2.09-.209q.855-.133 1.38-.297c.35-.11.65-.244.91-.402.28-.18.52-.373.71-.581q.3-.313.48-.79c.12-.317.21-.705.28-1.161s.11-1.023.11-1.698V34.607q0-1.161-.45-1.638c-.3-.318-.72-.477-1.28-.477-.61 0-1.53.318-2.74.954q-1.815.952-4.71 2.83c-.25-.458-.49-.914-.71-1.371a88 88 0 0 0-.69-1.4c2.47-1.35 4.9-2.696 7.32-4.036 2.41-1.34 4.86-2.675 7.34-4.006"/><text x="1025.87" y="59.031" fill-opacity="0" font-family="Arial,Arial_MSFontService,sans-serif" font-size="38.363">1</text><path fill-rule="evenodd" d="M455.317 253.828q-2.512 0-5.268.121l-5.512 24.56h4.215q4.904 0 7.923-1.013 3.02-1.014 4.944-3.141 1.925-2.129 2.979-5.046 1.053-2.918 1.054-6.403 0-4.701-2.391-6.89t-7.944-2.188m-16.981-3.567h17.873q4.822 0 7.923.75t5.106 2.31a9.55 9.55 0 0 1 2.999 3.952q.993 2.39.993 5.552 0 6.08-2.877 10.537t-7.802 6.565q-4.923 2.108-11.813 2.108-4.134 0-6.89-.162l-2.594 11.915a47 47 0 0 0-.506 2.553 32 32 0 0 0-.244 1.925 19 19 0 0 0-.101 1.844q0 1.256.405 1.966.406.708 1.216 1.033.811.324 2.797.486l-.446 1.986h-16.657l.446-1.986q1.54-.243 2.31-.79t1.297-1.52.972-2.371q.446-1.398 1.338-5.41l6.89-31.206q.891-4.053.891-6.403 0-1.986-.932-2.756t-3.04-.892Z"/><text x="427.718" y="298.666" fill-opacity="0" font-family="Arial,Arial_MSFontService,sans-serif" font-size="55.32">𝑃</text><path fill-rule="evenodd" d="M485.732 284.062h1.817a221 221 0 0 0-.134 5.45q-.015 1.222-.015 2.413v22.637q0 .923.059 1.593.06.67.194 1.132t.357.789.522.566q.357.357.953.551.595.193 1.519.328a26 26 0 0 0 2.219.208q1.295.075 3.112.105v2.591h-23.619v-2.591q1.757-.06 2.978-.134t2.085-.209a10 10 0 0 0 1.385-.298q.521-.163.909-.402.417-.268.714-.581a2.3 2.3 0 0 0 .477-.789q.178-.477.283-1.162t.104-1.697v-21.356q0-1.162-.447-1.639-.446-.476-1.28-.476-.923 0-2.741.953-1.817.953-4.706 2.83a23 23 0 0 1-.714-1.371 88 88 0 0 0-.686-1.399q3.694-2.026 7.313-4.036a540 540 0 0 1 7.342-4.006"/><text x="471.077" y="317.629" fill-opacity="0" font-family="Arial,Arial_MSFontService,sans-serif" font-size="38.363">1</text><path d="M551.5 22.084h379.175v-9.167H551.5Zm374.592 18.333L971.925 17.5 926.092-5.417ZM482.083 210.215V133.75h-9.166v76.465Zm18.334-71.882L477.5 92.499l-22.916 45.834ZM480.083-240.55l1.56 143.286-9.166.1-1.56-143.286Zm19.842 138.503-22.416 46.08-23.414-45.581Z"/><path fill-rule="evenodd" d="M569.021-1461.96H585.8l-.446 1.98c-1.189.14-2.114.49-2.776 1.06q-.993.84-1.398 2.37c-.271 1.01-.406 2.37-.406 4.07 0 .41.041 1.62.122 3.65l1.135 29.66v3.25h.405l17.548-31.66q1.54-2.79 2.31-4.8t.77-3.54c0-2.27-1.35-3.62-4.052-4.06l.445-1.98h16.576l-.446 1.98c-.729.11-1.425.39-2.087.83-.662.45-1.405 1.19-2.229 2.23s-2.1 3.05-3.83 6.02l-25.937 44.91h-5.39l-2.716-45.19c-.108-1.76-.304-3.27-.587-4.52q-.426-1.89-1.338-2.94c-.608-.7-1.573-1.15-2.897-1.34Zm-23.367 0h16.211l-.446 1.98c-1.027.22-1.763.46-2.209.73s-.844.68-1.195 1.22-.716 1.38-1.095 2.53q-.567 1.725-1.418 5.61l-6.93 31.45c-.352 1.6-.581 2.86-.689 3.79s-.162 1.78-.162 2.54c0 1.21.304 2.07.912 2.57.607.5 1.627.8 3.059.91l-.445 1.99h-16.211l.445-1.99c1.027-.16 1.797-.42 2.31-.79.514-.36.946-.87 1.297-1.52q.528-.975.973-2.37c.297-.93.743-2.74 1.337-5.41l6.89-31.21c.594-2.7.892-4.87.892-6.52 0-1.27-.318-2.16-.953-2.66q-.952-.75-3.019-.87Z"/><text x="535.036" y="-1412.99" fill-opacity="0" font-family="Arial,Arial_MSFontService,sans-serif" font-size="55.968">𝐼𝑉</text><text font-family="Microsoft YaHei,Microsoft YaHei_MSFontService,sans-serif" font-size="83" font-weight="400" transform="translate(643.046 -1407)">(<tspan x="27.5" y="0">移位寄存器</tspan><tspan x="440" y="0">)</tspan></text><path fill="#d74514" d="M1954-948h433v326h-433z"/><text fill="#fff" font-family="Microsoft YaHei,Microsoft YaHei_MSFontService,sans-serif" font-size="83" font-weight="700" transform="translate(2089.31 -805)">DES<tspan x="-1.444" y="99">加</tspan><tspan x="81.056" y="99">密</tspan></text><path d="M1865.5-789.083h48.12v9.167l-48.12-.001Zm43.54-18.333 45.84 22.916-45.84 22.917Z"/><path fill-rule="evenodd" d="M1794.77-810.835h16.21l-.44 1.986c-1.03.216-1.76.459-2.21.729-.45.271-.84.676-1.2 1.216-.35.541-.71 1.385-1.09 2.533-.38 1.149-.85 3.02-1.42 5.613l-2.88 12.929h1.34c1.14 0 2.17-.19 3.1-.568s2.02-1.067 3.26-2.067q1.875-1.5 5.94-5.511c2.72-2.675 4.65-4.708 5.8-6.1s1.98-2.594 2.51-3.607.79-1.938.79-2.776q0-1.012-.81-1.641-.81-.628-2.31-.75l.45-1.986h17.38l-.44 1.986c-1.09.162-2.31.723-3.67 1.682-1.37.959-3.45 2.83-6.26 5.613l-15.73 15.319 8.63 20.75c.9 2.135 1.63 3.675 2.21 4.62s1.28 1.696 2.09 2.25q1.215.83 3 1.114l-.45 1.986h-15.64l.45-1.986c1.45-.135 2.18-.783 2.18-1.945 0-.73-.14-1.56-.44-2.493s-.65-1.898-1.06-2.897l-5.26-12.888c-.63-1.54-1.17-2.621-1.63-3.242-.45-.622-.94-1.054-1.45-1.297-.52-.243-1.31-.365-2.4-.365h-2.26l-3.37 15.32q-.525 2.431-.69 3.829c-.11.932-.16 1.763-.16 2.493 0 1.216.3 2.073.91 2.573q.915.75 3.06.912l-.44 1.986h-16.21l.44-1.986q1.545-.243 2.31-.79c.51-.365.95-.871 1.3-1.52.35-.648.67-1.439.97-2.371s.74-2.735 1.34-5.41l6.89-31.206c.59-2.702.89-4.877.89-6.525 0-1.27-.32-2.155-.95-2.655-.64-.499-1.64-.79-3.02-.871Z"/><text x="1784.16" y="-762.43" fill-opacity="0" font-family="Arial,Arial_MSFontService,sans-serif" font-size="55.32">𝐾</text><path fill="#fdefe8" d="M2057-460h703v219h-703z"/><text fill="#d74514" font-family="Microsoft YaHei,Microsoft YaHei_MSFontService,sans-serif" font-size="83" font-weight="700" transform="translate(2104.81 -323)">丢弃</text><path fill="#d74514" fill-rule="evenodd" d="M2318.82-351.341q-1.98 0-3.72.587c-1.17.392-2.19.919-3.08 1.581-.9.662-1.5 1.202-1.81 1.621s-.53 1.02-.67 1.803c-.13.784-.2 2.162-.2 4.134q0 7.416 2.07 11.145c1.38 2.486 3.48 3.729 6.32 3.729 2.89 0 5.05-1.047 6.49-3.141 1.43-2.094 2.14-5.33 2.14-9.707q0-5.795-1.92-8.774c-1.29-1.986-3.16-2.978-5.62-2.978m46.98-14.226-13.86 20.872v.689h13.86v-9.281c0-3.89.13-7.984.4-12.28Zm2.88-12.887h9.11v34.448h1.26c1.33 0 2.26-.088 2.8-.263s1-.507 1.4-.993q.585-.73 1.11-2.594h4.26l-.49 8.956h-10.34v6.039c0 2.026.13 3.452.37 4.276q.36 1.236 1.11 1.844c.5.405 1.47.81 2.9 1.215v2.675h-20.71v-2.675q2.145-.567 2.94-1.276c.53-.473.89-1.101 1.09-1.885.21-.783.31-2.175.31-4.174v-6.039h-21.72v-4.376Zm-39.32-.365 2.19 2.796v2.513c-5.92.135-10.71 1.966-14.39 5.492-3.67 3.525-6.12 8.571-7.33 15.137l.4.162c2.11-1.459 4.23-2.527 6.37-3.202 2.13-.675 4.47-1.013 7.01-1.013 3.1 0 5.77.682 8 2.046 2.23 1.365 3.91 3.29 5.05 5.776 1.13 2.485 1.7 5.376 1.7 8.672 0 3.594-.76 6.762-2.27 9.504q-2.265 4.113-6.99 6.424c-3.15 1.54-7.01 2.31-11.57 2.31q-6.285 0-10.8-2.513c-3.01-1.675-5.32-4.147-6.91-7.416-1.6-3.27-2.39-7.241-2.39-11.916q0-9.483 3.99-17.143c2.66-5.106 6.44-9.213 11.33-12.32s10.42-4.877 16.61-5.309"/><text x="2297.43" y="-329.279" fill-opacity="0" font-family="Arial,Arial_MSFontService,sans-serif" font-size="56.617">𝟔𝟒</text><path fill="#d74514" fill-rule="evenodd" d="M2415.64-349.275h49.93v5.391h-49.93Z"/><text x="2415.64" y="-344.558" fill-opacity="0" font-family="Arial,Arial_MSFontService,sans-serif" font-size="5.39">−</text><path fill="#d74514" fill-rule="evenodd" d="M2511.77-363.5h4.62l-8.55 39.393c-1.46 6.727-3.84 11.638-7.15 14.732s-7.81 4.64-13.52 4.64c-1.27 0-2.55-.176-3.85-.527l1.1-4.417q1.14.324 2.67.324c1.22 0 2.21-.169 2.98-.507s1.47-.918 2.09-1.742q.93-1.236 1.74-3.628c.54-1.594 1.14-3.836 1.79-6.727l6.56-29.18q.93-4.134.93-6.079 0-1.58-.75-2.249c-.5-.446-1.54-.75-3.14-.912l.61-2.675Zm-2.87-15.724h10.37l-2.11 9.929h-10.49Z"/><text x="2483.32" y="-314.046" fill-opacity="0" font-family="Arial,Arial_MSFontService,sans-serif" font-size="74.489">𝒋</text><text fill="#d74514" font-family="Microsoft YaHei,Microsoft YaHei_MSFontService,sans-serif" font-size="83" font-weight="700" transform="translate(2546.53 -323)">比特</text><path fill="#f8ccb9" d="M1595-460h472v219h-472z"/><text fill="#d74514" font-family="Microsoft YaHei,Microsoft YaHei_MSFontService,sans-serif" font-size="83" font-weight="700" transform="translate(1667.34 -323)">选</text><path fill="#d74514" fill-rule="evenodd" d="M1794.72-363.5h4.62l-8.55 39.393c-1.46 6.727-3.84 11.638-7.15 14.732s-7.81 4.64-13.52 4.64c-1.27 0-2.55-.176-3.85-.527l1.1-4.417q1.14.324 2.67.324c1.22 0 2.21-.169 2.98-.507s1.47-.918 2.09-1.742q.93-1.236 1.74-3.628c.54-1.594 1.14-3.836 1.79-6.727l6.56-29.18q.93-4.134.93-6.079 0-1.58-.75-2.249c-.5-.446-1.54-.75-3.14-.912l.61-2.675Zm-2.87-15.724h10.37l-2.11 9.929h-10.49Z"/><text x="1766.27" y="-314.046" fill-opacity="0" font-family="Arial,Arial_MSFontService,sans-serif" font-size="74.489">𝒋</text><text fill="#d74514" font-family="Microsoft YaHei,Microsoft YaHei_MSFontService,sans-serif" font-size="83" font-weight="700" transform="translate(1829.48 -323)">比特</text><path fill="#fdefe8" d="M2327-1369h433v218h-433z"/><path fill="#d74514" fill-rule="evenodd" d="M2454.71-1271.41h4.62l-8.55 39.4c-1.46 6.72-3.84 11.63-7.15 14.73-3.31 3.09-7.82 4.64-13.52 4.64-1.27 0-2.55-.18-3.85-.53l1.1-4.42q1.125.33 2.67.33c1.22 0 2.21-.17 2.98-.51s1.47-.92 2.09-1.74q.93-1.23 1.74-3.63c.54-1.59 1.13-3.83 1.78-6.73l6.57-29.17c.62-2.76.93-4.79.93-6.08q0-1.59-.75-2.25c-.5-.45-1.55-.75-3.14-.92l.61-2.67Zm-2.88-15.72h10.38l-2.11 9.93h-10.49Z"/><text x="2426.26" y="-1221.95" fill-opacity="0" font-family="Arial,Arial_MSFontService,sans-serif" font-size="74.489">𝒋</text><text fill="#d74514" font-family="Microsoft YaHei,Microsoft YaHei_MSFontService,sans-serif" font-size="83" font-weight="700" transform="translate(2489.46 -1231)">比特</text><path fill="#f8ccb9" d="M1595-1369h732v218h-732z"/><path fill="#d74514" fill-rule="evenodd" d="M1778.04-1259.25c-1.32 0-2.57.2-3.73.59s-2.19.92-3.08 1.58q-1.335.99-1.8 1.62c-.31.42-.53 1.02-.67 1.81-.14.78-.2 2.16-.2 4.13 0 4.94.69 8.66 2.06 11.14 1.38 2.49 3.49 3.73 6.33 3.73 2.89 0 5.05-1.04 6.48-3.14 1.43-2.09 2.15-5.33 2.15-9.7 0-3.87-.64-6.79-1.93-8.78-1.28-1.98-3.15-2.98-5.61-2.98m46.97-14.22-13.86 20.87v.69h13.86v-9.28c0-3.89.14-7.99.41-12.28Zm2.88-12.89h9.12v34.45h1.26q1.98 0 2.79-.27c.54-.17 1.01-.5 1.4-.99.39-.48.76-1.35 1.12-2.59h4.25l-.49 8.95h-10.33v6.04c0 2.03.12 3.45.37 4.28.24.82.61 1.44 1.11 1.84.5.41 1.47.81 2.9 1.22v2.67h-20.71v-2.67c1.43-.38 2.41-.81 2.94-1.28.52-.47.89-1.1 1.09-1.88.2-.79.3-2.18.3-4.18v-6.04h-21.72v-4.37Zm-39.31-.37 2.19 2.8v2.51c-5.92.14-10.72 1.97-14.39 5.5-3.68 3.52-6.12 8.57-7.34 15.13l.41.16c2.11-1.45 4.23-2.52 6.36-3.2 2.14-.67 4.47-1.01 7.01-1.01 3.11 0 5.78.68 8.01 2.05 2.23 1.36 3.91 3.29 5.04 5.77 1.14 2.49 1.7 5.38 1.7 8.67 0 3.6-.75 6.77-2.26 9.51-1.52 2.74-3.85 4.88-7 6.42-3.14 1.54-7 2.31-11.57 2.31-4.18 0-7.78-.84-10.8-2.51-3.01-1.68-5.31-4.15-6.91-7.42-1.59-3.27-2.39-7.24-2.39-11.91 0-6.32 1.33-12.04 3.99-17.15 2.67-5.1 6.44-9.21 11.33-12.32q7.335-4.65 16.62-5.31"/><text x="1756.64" y="-1237.19" fill-opacity="0" font-family="Arial,Arial_MSFontService,sans-serif" font-size="56.617">𝟔𝟒</text><path fill="#d74514" fill-rule="evenodd" d="M1874.85-1257.18h49.93v5.39h-49.93Z"/><text x="1874.85" y="-1252.46" fill-opacity="0" font-family="Arial,Arial_MSFontService,sans-serif" font-size="5.39">−</text><path fill="#d74514" fill-rule="evenodd" d="M1970.99-1271.41h4.62l-8.55 39.4c-1.46 6.72-3.84 11.63-7.15 14.73-3.31 3.09-7.82 4.64-13.52 4.64-1.27 0-2.55-.18-3.85-.53l1.09-4.42c.76.22 1.65.33 2.68.33 1.22 0 2.21-.17 2.98-.51s1.46-.92 2.09-1.74q.93-1.23 1.74-3.63c.54-1.59 1.13-3.83 1.78-6.73l6.57-29.17c.62-2.76.93-4.79.93-6.08q0-1.59-.75-2.25c-.5-.45-1.55-.75-3.14-.92l.61-2.67Zm-2.88-15.72h10.38l-2.11 9.93h-10.5Z"/><text x="1942.54" y="-1221.95" fill-opacity="0" font-family="Arial,Arial_MSFontService,sans-serif" font-size="74.489">𝒋</text><text fill="#d74514" font-family="Microsoft YaHei,Microsoft YaHei_MSFontService,sans-serif" font-size="83" font-weight="700" transform="translate(2005.74 -1231)">比特</text><path d="M2175.08-1150.5v162.042h-9.16V-1150.5Zm18.34 157.458-22.92 45.834-22.92-45.834ZM2175.08-621.5v121.458h-9.16V-621.5Zm18.34 116.875-22.92 45.833-22.92-45.833Z"/><path fill="none" stroke="#d74514" stroke-miterlimit="8" stroke-width="9.167" d="M1759.5 18c0-41.145 33.13-74.5 74-74.5s74 33.355 74 74.5-33.13 74.5-74 74.5-74-33.355-74-74.5Zm148.13-.5h-148.129m73.999 74.13V-56.5"/><path fill-rule="evenodd" d="M2367.33-8.986c2.46 0 4.74.149 6.83.446q3.135.446 6.99 1.621l-2.43 10.983h-3.89c-.22-3.323-.94-5.721-2.17-7.193q-1.845-2.21-5.94-2.21c-3.73 0-7.19 1.865-10.39 5.594s-5.74 8.652-7.6 14.772c-1.87 6.12-2.8 11.8-2.8 17.042q0 6.159 2.19 9.078c1.46 1.945 3.7 2.918 6.73 2.918q3.045 0 5.31-.912c1.51-.608 2.93-1.635 4.25-3.08q1.995-2.168 3.93-6.06h3.9l-2.48 11.51c-5.05 1.406-10.34 2.108-15.88 2.108-5.08 0-8.95-1.459-11.59-4.377-2.65-2.918-3.98-7.187-3.98-12.807q0-5.956 2.13-13.738c1.42-5.188 3.43-9.74 6.02-13.658s5.66-6.903 9.2-8.957q5.31-3.08 11.67-3.08"/><text x="2338.31" y="40.554" fill-opacity="0" font-family="Arial,Arial_MSFontService,sans-serif" font-size="56.617">𝐶</text><path fill-rule="evenodd" d="M2395.06 25.255c2.06 0 3.83.233 5.29.7s2.64 1.097 3.56 1.89a6.9 6.9 0 0 1 1.98 2.86c.4 1.112.61 2.314.61 3.604 0 .775-.06 1.495-.17 2.16a8.8 8.8 0 0 1-.56 1.965c-.27.646-.62 1.296-1.06 1.951-.44.656-.98 1.35-1.64 2.085-.49.636-1.14 1.37-1.93 2.205q-1.2 1.25-2.61 2.68c-.94.953-1.93 1.946-2.96 2.979a171 171 0 0 0-3.01 3.067 62 62 0 0 0-2.68 2.95 25 25 0 0 0-2 2.62h11.02c.94 0 1.68-.034 2.24-.104q.825-.104 1.38-.462c.37-.238.68-.6.94-1.087.26-.486.56-1.156.89-2.01h2.77c-.1 1.41-.19 2.83-.28 4.26s-.18 2.849-.28 4.258h-25.23v-1.548c.48-1.073 1.03-2.13 1.67-3.173.63-1.042 1.35-2.1 2.14-3.172.8-1.072 1.7-2.179 2.71-3.32a81 81 0 0 1 3.37-3.56c1.86-1.867 3.38-3.46 4.55-4.78 1.18-1.321 2.1-2.498 2.77-3.53.68-1.033 1.14-1.986 1.39-2.86s.37-1.806.37-2.8c0-1.012-.14-1.945-.43-2.8-.29-.853-.7-1.578-1.24-2.173q-.795-.894-2.04-1.4c-.82-.338-1.77-.507-2.84-.507q-2.775 0-4.65 1.505c-1.25 1.002-2.22 2.457-2.92 4.363h-3.9v-5.808q3.81-1.579 7.02-2.294 3.195-.714 5.76-.714"/><text x="2381.33" y="59.005" fill-opacity="0" font-family="Arial,Arial_MSFontService,sans-serif" font-size="38.572">2</text><path fill-rule="evenodd" d="M1810.27 253.828c-1.68 0-3.43.04-5.27.121l-5.51 24.56h4.21c3.27 0 5.91-.338 7.93-1.013 2.01-.676 3.66-1.723 4.94-3.141 1.28-1.419 2.28-3.101 2.98-5.046q1.05-2.918 1.05-6.403c0-3.134-.79-5.431-2.39-6.89-1.59-1.459-4.24-2.188-7.94-2.188m-16.98-3.567h17.87q4.83 0 7.92.75c2.07.5 3.77 1.27 5.11 2.31a9.5 9.5 0 0 1 3 3.952q.99 2.39.99 5.552 0 6.08-2.88 10.537-2.865 4.458-7.8 6.565c-3.28 1.405-7.22 2.108-11.81 2.108-2.76 0-5.05-.054-6.89-.162l-2.59 11.915q-.375 1.66-.51 2.553-.15.891-.24 1.925c-.07.689-.11 1.304-.11 1.844 0 .837.14 1.493.41 1.966s.68.817 1.22 1.033q.81.324 2.79.486l-.44 1.986h-16.66l.45-1.986q1.53-.243 2.31-.79.765-.547 1.29-1.52c.35-.648.68-1.439.98-2.371.29-.932.74-2.735 1.33-5.41l6.89-31.206c.6-2.702.89-4.836.89-6.403q0-1.986-.93-2.756c-.62-.514-1.63-.811-3.04-.892Z"/><text x="1782.67" y="298.666" fill-opacity="0" font-family="Arial,Arial_MSFontService,sans-serif" font-size="55.32">𝑃</text><path fill-rule="evenodd" d="M1840.26 283.853c2.07 0 3.83.233 5.29.7s2.65 1.097 3.56 1.891a6.9 6.9 0 0 1 1.98 2.86c.41 1.112.61 2.313.61 3.604 0 .774-.05 1.494-.16 2.159a8.8 8.8 0 0 1-.57 1.966c-.27.645-.62 1.296-1.06 1.951-.43.655-.98 1.35-1.64 2.085-.49.635-1.14 1.37-1.93 2.204-.8.834-1.66 1.728-2.61 2.681-.94.953-1.93 1.946-2.96 2.978a214 214 0 0 0-3.01 3.068 68 68 0 0 0-2.68 2.949c-.81.953-1.48 1.827-2 2.621h11.02c.94 0 1.68-.035 2.24-.104.55-.07 1.02-.224 1.38-.462.37-.238.68-.601.94-1.087q.39-.73.9-2.011h2.77c-.1 1.41-.2 2.83-.29 4.26s-.18 2.849-.28 4.259h-25.23v-1.549c.48-1.072 1.03-2.13 1.67-3.172.63-1.043 1.35-2.1 2.14-3.172.8-1.072 1.7-2.179 2.71-3.321a88 88 0 0 1 3.37-3.56q2.805-2.8 4.56-4.78c1.17-1.321 2.09-2.497 2.77-3.53q1.005-1.548 1.38-2.859c.25-.874.37-1.807.37-2.8 0-1.013-.14-1.946-.43-2.8q-.435-1.28-1.23-2.174-.81-.894-2.04-1.4-1.245-.506-2.85-.506c-1.84 0-3.39.501-4.64 1.504-1.26 1.003-2.23 2.457-2.92 4.363h-3.91v-5.808c2.55-1.052 4.88-1.817 7.02-2.293q3.195-.715 5.76-.715"/><text x="1826.53" y="317.603" fill-opacity="0" font-family="Arial,Arial_MSFontService,sans-serif" font-size="38.572">2</text><path d="M1907.5 22.084h379.175v-9.167H1907.5Zm374.592 18.333 45.833-22.917-45.833-22.917Zm-444.009 169.798V133.75h-9.166v76.465Zm18.334-71.882L1833.5 92.499l-22.916 45.834ZM1836.08-240.55l1.56 143.286-9.16.1-1.56-143.286Zm19.85 138.503-22.42 46.08-23.42-45.581Z"/><path fill="#d74514" d="M3471-948h433v326h-433z"/><text fill="#fff" font-family="Microsoft YaHei,Microsoft YaHei_MSFontService,sans-serif" font-size="83" font-weight="700" transform="translate(3606.26 -805)">DES<tspan x="-1.444" y="99">加</tspan><tspan x="81.056" y="99">密</tspan></text><path d="M3382.5-789.083h48.12v9.167l-48.12-.001Zm43.54-18.333 45.84 22.916-45.84 22.917Z"/><path fill-rule="evenodd" d="M3311.73-810.835h16.21l-.45 1.986c-1.02.216-1.76.459-2.2.729q-.675.406-1.2 1.216c-.35.541-.72 1.385-1.09 2.533-.38 1.149-.86 3.02-1.42 5.613l-2.88 12.929h1.34c1.13 0 2.17-.19 3.1-.568s2.02-1.067 3.26-2.067q1.86-1.5 5.94-5.511 4.065-4.012 5.79-6.1t2.52-3.607c.52-1.013.79-1.938.79-2.776q0-1.012-.81-1.641-.825-.628-2.31-.75l.44-1.986h17.39l-.45 1.986c-1.08.162-2.3.723-3.67 1.682-1.36.959-3.45 2.83-6.26 5.613l-15.72 15.319 8.63 20.75c.89 2.135 1.63 3.675 2.21 4.62s1.28 1.696 2.09 2.25 1.81.925 2.99 1.114l-.44 1.986h-15.64l.44-1.986q2.19-.202 2.19-1.945 0-1.094-.45-2.493-.435-1.398-1.05-2.897l-5.27-12.888q-.93-2.31-1.62-3.242c-.46-.622-.94-1.054-1.46-1.297-.51-.243-1.31-.365-2.39-.365h-2.27l-3.36 15.32q-.525 2.431-.69 3.829c-.11.932-.16 1.763-.16 2.493 0 1.216.3 2.073.91 2.573q.915.75 3.06.912l-.45 1.986h-16.21l.45-1.986q1.53-.243 2.31-.79.765-.547 1.29-1.52c.36-.648.68-1.439.98-2.371.29-.932.74-2.735 1.33-5.41l6.89-31.206q.9-4.053.9-6.525 0-1.905-.96-2.655c-.63-.499-1.64-.79-3.02-.871Z"/><text x="3301.11" y="-762.43" fill-opacity="0" font-family="Arial,Arial_MSFontService,sans-serif" font-size="55.32">𝐾</text><path fill="#fdefe8" d="M3573-460h704v219h-704z"/><text fill="#d74514" font-family="Microsoft YaHei,Microsoft YaHei_MSFontService,sans-serif" font-size="83" font-weight="700" transform="translate(3621.76 -323)">丢弃</text><path fill="#d74514" fill-rule="evenodd" d="M3835.78-351.341c-1.32 0-2.57.195-3.73.587s-2.19.919-3.08 1.581q-1.335.993-1.8 1.621c-.31.419-.53 1.02-.67 1.803-.14.784-.2 2.162-.2 4.134 0 4.944.69 8.659 2.06 11.145q2.07 3.729 6.33 3.729 4.335 0 6.48-3.141c1.43-2.094 2.15-5.33 2.15-9.707 0-3.863-.64-6.788-1.93-8.774q-1.92-2.978-5.61-2.978m46.97-14.226-13.86 20.872v.689h13.86v-9.281c0-3.89.14-7.984.41-12.28Zm2.88-12.887h9.12v34.448h1.26q1.98 0 2.79-.263c.54-.176 1.01-.507 1.4-.993.39-.487.76-1.351 1.12-2.594h4.25l-.49 8.956h-10.33v6.039c0 2.026.12 3.452.37 4.276q.36 1.236 1.11 1.844c.5.405 1.47.81 2.9 1.215v2.675h-20.71v-2.675q2.145-.567 2.94-1.276c.52-.473.89-1.101 1.09-1.885q.3-1.175.3-4.174v-6.039h-21.72v-4.376Zm-39.31-.365 2.19 2.796v2.513c-5.92.135-10.72 1.966-14.39 5.492-3.68 3.525-6.12 8.571-7.34 15.137l.41.162q3.165-2.189 6.36-3.202c2.14-.675 4.47-1.013 7.01-1.013q4.665 0 8.01 2.046 3.345 2.047 5.04 5.776c1.14 2.485 1.7 5.376 1.7 8.672 0 3.594-.75 6.762-2.26 9.504-1.52 2.742-3.85 4.884-7 6.424-3.14 1.54-7 2.31-11.57 2.31q-6.27 0-10.8-2.513c-3.01-1.675-5.31-4.147-6.91-7.416-1.59-3.27-2.39-7.241-2.39-11.916q0-9.483 3.99-17.143c2.67-5.106 6.44-9.213 11.33-12.32q7.335-4.66 16.62-5.309"/><text x="3814.38" y="-329.279" fill-opacity="0" font-family="Arial,Arial_MSFontService,sans-serif" font-size="56.617">𝟔𝟒</text><path fill="#d74514" fill-rule="evenodd" d="M3932.59-349.275h49.93v5.391h-49.93Z"/><text x="3932.59" y="-344.558" fill-opacity="0" font-family="Arial,Arial_MSFontService,sans-serif" font-size="5.39">−</text><path fill="#d74514" fill-rule="evenodd" d="M4028.73-363.5h4.62l-8.55 39.393c-1.46 6.727-3.84 11.638-7.15 14.732s-7.82 4.64-13.52 4.64c-1.27 0-2.55-.176-3.85-.527l1.09-4.417c.76.216 1.65.324 2.68.324 1.22 0 2.21-.169 2.98-.507s1.46-.918 2.09-1.742q.93-1.236 1.74-3.628c.54-1.594 1.13-3.836 1.78-6.727l6.57-29.18q.93-4.134.93-6.079 0-1.58-.75-2.249c-.5-.446-1.55-.75-3.14-.912l.61-2.675Zm-2.88-15.724h10.38l-2.11 9.929h-10.5Z"/><text x="4000.28" y="-314.046" fill-opacity="0" font-family="Arial,Arial_MSFontService,sans-serif" font-size="74.489">𝒋</text><text fill="#d74514" font-family="Microsoft YaHei,Microsoft YaHei_MSFontService,sans-serif" font-size="83" font-weight="700" transform="translate(4063.48 -323)">比特</text><path fill="#f8ccb9" d="M3112-460h472v219h-472z"/><text fill="#d74514" font-family="Microsoft YaHei,Microsoft YaHei_MSFontService,sans-serif" font-size="83" font-weight="700" transform="translate(3184.3 -323)">选</text><path fill="#d74514" fill-rule="evenodd" d="M3311.68-363.5h4.62l-8.55 39.393c-1.46 6.727-3.84 11.638-7.15 14.732s-7.82 4.64-13.52 4.64c-1.27 0-2.55-.176-3.85-.527l1.09-4.417c.76.216 1.65.324 2.68.324 1.22 0 2.21-.169 2.98-.507s1.46-.918 2.09-1.742q.93-1.236 1.74-3.628c.54-1.594 1.13-3.836 1.78-6.727l6.57-29.18q.93-4.134.93-6.079 0-1.58-.75-2.249c-.5-.446-1.55-.75-3.14-.912l.61-2.675Zm-2.88-15.724h10.38l-2.11 9.929h-10.5Z"/><text x="3283.23" y="-314.046" fill-opacity="0" font-family="Arial,Arial_MSFontService,sans-serif" font-size="74.489">𝒋</text><text fill="#d74514" font-family="Microsoft YaHei,Microsoft YaHei_MSFontService,sans-serif" font-size="83" font-weight="700" transform="translate(3346.43 -323)">比特</text><path fill="#fdefe8" d="M3844-1369h433v218h-433z"/><path fill="#d74514" fill-rule="evenodd" d="M3971.67-1271.41h4.62l-8.55 39.4c-1.46 6.72-3.85 11.63-7.16 14.73-3.31 3.09-7.81 4.64-13.51 4.64-1.27 0-2.56-.18-3.85-.53l1.09-4.42c.76.22 1.65.33 2.68.33 1.21 0 2.21-.17 2.98-.51s1.46-.92 2.08-1.74q.93-1.23 1.74-3.63c.55-1.59 1.14-3.83 1.79-6.73l6.56-29.17c.62-2.76.94-4.79.94-6.08q0-1.59-.75-2.25c-.5-.45-1.55-.75-3.14-.92l.6-2.67Zm-2.88-15.72h10.38l-2.11 9.93h-10.5Z"/><text x="3943.22" y="-1221.95" fill-opacity="0" font-family="Arial,Arial_MSFontService,sans-serif" font-size="74.489">𝒋</text><text fill="#d74514" font-family="Microsoft YaHei,Microsoft YaHei_MSFontService,sans-serif" font-size="83" font-weight="700" transform="translate(4006.42 -1231)">比特</text><path fill="#f8ccb9" d="M3112-1369h732v218h-732z"/><path fill="#d74514" fill-rule="evenodd" d="M3295-1259.25c-1.33 0-2.57.2-3.73.59s-2.19.92-3.08 1.58-1.49 1.2-1.81 1.62c-.31.42-.53 1.02-.66 1.81-.14.78-.21 2.16-.21 4.13 0 4.94.69 8.66 2.07 11.14 1.38 2.49 3.49 3.73 6.32 3.73 2.89 0 5.05-1.04 6.49-3.14 1.43-2.09 2.14-5.33 2.14-9.7 0-3.87-.64-6.79-1.92-8.78-1.28-1.98-3.15-2.98-5.61-2.98m46.97-14.22-13.86 20.87v.69h13.86v-9.28c0-3.89.14-7.99.41-12.28Zm2.88-12.89h9.12v34.45h1.25c1.33 0 2.26-.09 2.8-.27.54-.17 1.01-.5 1.4-.99.39-.48.76-1.35 1.11-2.59h4.26l-.49 8.95h-10.33v6.04c0 2.03.12 3.45.36 4.28.24.82.62 1.44 1.12 1.84.5.41 1.46.81 2.89 1.22v2.67h-20.71v-2.67c1.44-.38 2.42-.81 2.94-1.28.53-.47.89-1.1 1.1-1.88.2-.79.3-2.18.3-4.18v-6.04h-21.72v-4.37Zm-39.32-.37 2.19 2.8v2.51c-5.91.14-10.71 1.97-14.39 5.5-3.67 3.52-6.11 8.57-7.33 15.13l.4.16c2.11-1.45 4.23-2.52 6.37-3.2 2.13-.67 4.47-1.01 7.01-1.01 3.11 0 5.77.68 8 2.05 2.23 1.36 3.91 3.29 5.05 5.77 1.13 2.49 1.7 5.38 1.7 8.67 0 3.6-.76 6.77-2.27 9.51q-2.265 4.11-6.99 6.42c-3.15 1.54-7 2.31-11.57 2.31-4.19 0-7.79-.84-10.8-2.51-3.01-1.68-5.32-4.15-6.91-7.42s-2.39-7.24-2.39-11.91c0-6.32 1.33-12.04 3.99-17.15 2.66-5.1 6.44-9.21 11.33-12.32 4.89-3.1 10.43-4.87 16.61-5.31"/><text x="3273.6" y="-1237.19" fill-opacity="0" font-family="Arial,Arial_MSFontService,sans-serif" font-size="56.617">𝟔𝟒</text><path fill="#d74514" fill-rule="evenodd" d="M3391.81-1257.18h49.93v5.39h-49.93Z"/><text x="3391.81" y="-1252.46" fill-opacity="0" font-family="Arial,Arial_MSFontService,sans-serif" font-size="5.39">−</text><path fill="#d74514" fill-rule="evenodd" d="M3487.95-1271.41h4.62l-8.55 39.4c-1.46 6.72-3.85 11.63-7.16 14.73-3.31 3.09-7.81 4.64-13.51 4.64-1.27 0-2.56-.18-3.85-.53l1.09-4.42c.76.22 1.65.33 2.68.33q1.815 0 2.97-.51c.77-.34 1.47-.92 2.09-1.74q.93-1.23 1.74-3.63c.54-1.59 1.14-3.83 1.79-6.73l6.56-29.17c.62-2.76.93-4.79.93-6.08q0-1.59-.75-2.25c-.5-.45-1.54-.75-3.14-.92l.61-2.67Zm-2.88-15.72h10.37l-2.1 9.93h-10.5Z"/><text x="3459.5" y="-1221.95" fill-opacity="0" font-family="Arial,Arial_MSFontService,sans-serif" font-size="74.489">𝒋</text><text fill="#d74514" font-family="Microsoft YaHei,Microsoft YaHei_MSFontService,sans-serif" font-size="83" font-weight="700" transform="translate(3522.7 -1231)">比特</text><path d="M3692.08-1150.5v162.042h-9.16V-1150.5Zm18.34 157.458-22.92 45.834-22.92-45.834ZM3692.08-621.5v121.458h-9.16V-621.5Zm18.34 116.875-22.92 45.833-22.92-45.833Z"/><path fill="none" stroke="#d74514" stroke-miterlimit="8" stroke-width="9.167" d="M3276.5 18c0-41.145 33.13-74.5 74-74.5s74 33.355 74 74.5-33.13 74.5-74 74.5-74-33.355-74-74.5Zm148.13-.5h-148.129m73.999 74.13V-56.5"/><path fill-rule="evenodd" d="M3874.67-8.986c2.46 0 4.74.149 6.83.446q3.15.446 6.99 1.621l-2.43 10.983h-3.89c-.21-3.323-.94-5.721-2.17-7.193-1.23-1.473-3.21-2.21-5.93-2.21-3.73 0-7.2 1.865-10.4 5.594s-5.73 8.652-7.6 14.772q-2.79 9.18-2.79 17.042c0 4.106.72 7.132 2.18 9.078s3.71 2.918 6.73 2.918q3.045 0 5.31-.912t4.26-3.08q1.98-2.168 3.93-6.06h3.89l-2.47 11.51c-5.06 1.406-10.35 2.108-15.89 2.108-5.08 0-8.94-1.459-11.59-4.377s-3.97-7.187-3.97-12.807c0-3.971.71-8.55 2.12-13.738 1.42-5.188 3.43-9.74 6.02-13.658 2.6-3.918 5.66-6.903 9.2-8.957q5.31-3.08 11.67-3.08"/><text x="3845.66" y="40.554" fill-opacity="0" font-family="Arial,Arial_MSFontService,sans-serif" font-size="56.617">𝐶</text><path fill-rule="evenodd" d="M3893.88 25.195h11.38l3.9 26.866 17.19-26.866h9.95l-.36 1.787c-.66.179-1.18.338-1.58.477s-.73.412-1.01.819q-.42.61-.78 1.861a90 90 0 0 0-.89 3.604l-4.85 21.773q-.3 1.46-.45 2.368-.15.909-.15 1.713c0 .834.24 1.425.71 1.772.48.348 1.31.561 2.48.64l-.42 1.817h-12.66l.39-1.817c.63-.119 1.13-.258 1.47-.416.35-.16.62-.368.82-.626.22-.199.45-.63.7-1.296.25-.665.51-1.484.79-2.457q.42-1.46.84-3.261c.27-1.202.56-2.458.86-3.768s.58-2.636.86-3.977q.42-2.01.84-3.857a95 95 0 0 1 1.23-5.48q.375-1.46.72-2.726c.23-.844.43-1.494.61-1.95h-.42l-17.48 27.283h-3.46l-4.23-28.207h-.5q-.3 1.906-.81 4.78c-.34 1.917-.77 4.166-1.31 6.747-.22.913-.45 1.886-.68 2.919q-.36 1.548-.75 3.187c-.26 1.092-.51 2.174-.76 3.247s-.46 2.08-.65 3.023q-.285 1.415-.45 2.576c-.11.775-.16 1.39-.16 1.847 0 .834.23 1.425.71 1.772.48.348 1.29.561 2.44.64l-.32 1.817h-11.11l.38-1.817c.58-.099 1.07-.213 1.46-.342.4-.13.75-.402 1.06-.82.31-.416.6-1.052.86-1.905.27-.854.57-2.075.91-3.664l4.89-21.713c.18-.795.31-1.534.4-2.22.09-.684.13-1.295.13-1.831 0-.874-.22-1.494-.68-1.862-.46-.367-1.29-.56-2.5-.58Z"/><text x="3886.53" y="58.997" fill-opacity="0" font-family="Arial,Arial_MSFontService,sans-serif" font-size="38.631">𝑀</text><path fill-rule="evenodd" d="M3317.61 253.828c-1.67 0-3.43.04-5.27.121l-5.51 24.56h4.22q4.905 0 7.92-1.013c2.01-.676 3.66-1.723 4.94-3.141 1.29-1.419 2.28-3.101 2.98-5.046s1.06-4.08 1.06-6.403q0-4.701-2.4-6.89c-1.59-1.459-4.24-2.188-7.94-2.188m-16.98-3.567h17.87c3.22 0 5.86.25 7.93.75 2.06.5 3.77 1.27 5.1 2.31a9.5 9.5 0 0 1 3 3.952q.99 2.39.99 5.552c0 4.053-.95 7.565-2.87 10.537q-2.88 4.458-7.8 6.565-4.935 2.108-11.82 2.108c-2.75 0-5.05-.054-6.89-.162l-2.59 11.915a60 60 0 0 0-.51 2.553q-.135.891-.24 1.925c-.07.689-.1 1.304-.1 1.844 0 .837.13 1.493.4 1.966s.68.817 1.22 1.033q.81.324 2.79.486l-.44 1.986h-16.66l.45-1.986q1.53-.243 2.31-.79.765-.547 1.29-1.52c.36-.648.68-1.439.98-2.371.29-.932.74-2.735 1.34-5.41l6.88-31.206q.9-4.053.9-6.403c0-1.324-.31-2.243-.94-2.756-.62-.514-1.63-.811-3.04-.892Z"/><text x="3290.01" y="298.666" fill-opacity="0" font-family="Arial,Arial_MSFontService,sans-serif" font-size="55.32">𝑃</text><path fill-rule="evenodd" d="M3339.09 283.794h11.37l3.91 26.866 17.18-26.866h9.95l-.36 1.787c-.65.178-1.18.337-1.58.476-.39.139-.73.412-1.01.819s-.53 1.028-.77 1.862q-.36 1.25-.9 3.604l-4.85 21.773q-.3 1.46-.45 2.368t-.15 1.712q0 1.251.72 1.773c.47.347 1.3.561 2.47.64l-.42 1.817h-12.66l.39-1.817c.64-.119 1.13-.258 1.48-.417.34-.159.62-.367.81-.626.22-.198.46-.63.7-1.295.25-.665.52-1.484.79-2.457q.42-1.46.84-3.262c.28-1.201.56-2.457.86-3.768q.45-1.966.87-3.976c.27-1.34.55-2.626.83-3.857q.21-1.072.54-2.547c.21-.983.45-1.961.7-2.934.24-.973.48-1.881.71-2.725s.43-1.494.61-1.951h-.42l-17.48 27.283h-3.45l-4.23-28.206h-.51c-.2 1.271-.47 2.864-.8 4.78q-.51 2.874-1.32 6.747c-.21.913-.44 1.886-.68 2.918q-.36 1.549-.75 3.188c-.25 1.092-.51 2.174-.75 3.246q-.375 1.608-.66 3.023t-.45 2.577c-.11.774-.16 1.39-.16 1.846 0 .834.24 1.425.71 1.773.48.347 1.3.561 2.45.64l-.33 1.817h-11.11l.39-1.817c.57-.099 1.06-.213 1.46-.343.39-.129.75-.402 1.05-.819q.465-.625.87-1.906c.27-.854.57-2.075.91-3.663l4.88-21.714c.18-.794.31-1.534.4-2.219s.14-1.296.14-1.832q0-1.31-.69-1.861c-.46-.368-1.29-.561-2.5-.581Z"/><text x="3331.73" y="317.596" fill-opacity="0" font-family="Arial,Arial_MSFontService,sans-serif" font-size="38.631">𝑀</text><path d="M3424.5 22.084h379.175v-9.167H3424.5Zm374.592 18.333 45.833-22.917-45.833-22.917Zm-444.009 169.798V133.75h-9.166v76.465Zm18.334-71.882L3350.5 92.499l-22.916 45.834ZM3353.08-240.55l1.56 143.286-9.16.1-1.56-143.286Zm19.85 138.503-22.42 46.08-23.42-45.581ZM480.083-240.117v82.495l-4.583-4.583h1044.02l-4.58 4.583V-1455.58h1033.74v45.83h-9.16V-1451l4.58 4.59H1519.52l4.59-4.59v1297.961H470.917v-87.078ZM2567.02-1414.33l-22.92 45.83-22.92-45.83Z"/><path fill="#d74514" d="M2416.02-1405.083h-590.27v9.167h590.27Zm-585.686-18.333-45.833 22.916 45.833 22.917Zm2102.686 15.333h-590.27v9.167h590.27Zm-585.686-18.333-45.833 22.916 45.833 22.917Z"/><path fill-rule="evenodd" d="M2950.67-1485.16c2.46 0 4.73.15 6.83.45q3.135.435 6.99 1.62l-2.43 10.98h-3.89c-.22-3.32-.94-5.72-2.17-7.19-1.23-1.48-3.21-2.21-5.94-2.21-3.73 0-7.19 1.86-10.39 5.59s-5.74 8.65-7.6 14.77c-1.87 6.12-2.8 11.8-2.8 17.05 0 4.1.73 7.13 2.19 9.07 1.46 1.95 3.7 2.92 6.73 2.92 2.02 0 3.79-.3 5.31-.91 1.51-.61 2.93-1.64 4.25-3.08q1.995-2.175 3.93-6.06h3.89l-2.47 11.51c-5.05 1.41-10.35 2.11-15.89 2.11-5.07 0-8.94-1.46-11.59-4.38-2.64-2.92-3.97-7.19-3.97-12.81 0-3.97.71-8.55 2.13-13.73 1.42-5.19 3.42-9.74 6.02-13.66 2.59-3.92 5.66-6.91 9.2-8.96s7.43-3.08 11.67-3.08"/><text x="2921.65" y="-1435.62" fill-opacity="0" font-family="Arial,Arial_MSFontService,sans-serif" font-size="56.617">𝐶</text><path fill-rule="evenodd" d="M2969.88-1450.98h11.38l3.9 26.87 17.19-26.87h9.94l-.35 1.79c-.66.18-1.19.34-1.58.48-.4.13-.74.41-1.02.81-.27.41-.53 1.03-.77 1.87-.24.83-.54 2.03-.89 3.6l-4.86 21.77c-.2.98-.35 1.77-.44 2.37q-.15.915-.15 1.71c0 .84.23 1.43.71 1.78.48.34 1.3.56 2.47.64l-.41 1.81h-12.66l.38-1.81c.64-.12 1.13-.26 1.48-.42s.62-.37.82-.63c.22-.2.45-.63.7-1.29.25-.67.51-1.49.79-2.46s.55-2.06.83-3.26.57-2.46.87-3.77c.29-1.31.58-2.63.86-3.98.28-1.34.55-2.62.83-3.85q.21-1.08.54-2.55c.22-.98.45-1.96.7-2.93.25-.98.49-1.88.71-2.73.23-.84.44-1.49.61-1.95h-.41l-17.49 27.28h-3.45l-4.23-28.2h-.51c-.2 1.27-.46 2.86-.8 4.78-.34 1.91-.78 4.16-1.31 6.74-.22.92-.45 1.89-.69 2.92-.24 1.04-.48 2.1-.74 3.19s-.51 2.17-.76 3.25c-.25 1.07-.47 2.08-.66 3.02s-.33 1.8-.44 2.58c-.11.77-.17 1.39-.17 1.84 0 .84.24 1.43.72 1.78.47.34 1.29.56 2.44.64l-.33 1.81h-11.11l.39-1.81c.58-.1 1.06-.22 1.46-.35s.75-.4 1.06-.82c.3-.41.59-1.05.86-1.9.27-.86.57-2.08.91-3.67l4.88-21.71c.18-.79.32-1.53.41-2.22.09-.68.13-1.29.13-1.83q0-1.305-.69-1.86c-.45-.37-1.29-.56-2.5-.58Z"/><text x="2962.52" y="-1417.18" fill-opacity="0" font-family="Arial,Arial_MSFontService,sans-serif" font-size="38.631">𝑀</text><path fill-rule="evenodd" d="M3019.83-1432.06h34.31v4.55h-34.31Z"/><text x="3019.83" y="-1428.08" fill-opacity="0" font-family="Arial,Arial_MSFontService,sans-serif" font-size="4.557">−</text><path fill-rule="evenodd" d="M3078.44-1450.71h1.81c-.03 1.09-.06 2.07-.08 2.93-.02.87-.04 1.71-.05 2.52s-.01 1.62-.01 2.41v22.64q0 .93.06 1.59c.04.45.1.83.19 1.13a2.63 2.63 0 0 0 .88 1.36c.24.24.55.42.95.55s.9.24 1.52.33q.93.135 2.22.21c.86.05 1.9.08 3.11.1v2.59h-23.62v-2.59c1.17-.04 2.17-.08 2.98-.13s1.51-.12 2.09-.21q.855-.135 1.38-.3c.35-.11.65-.24.91-.4.28-.18.52-.37.71-.58.2-.21.36-.47.48-.79s.21-.71.28-1.16c.07-.46.11-1.03.11-1.7v-21.36c0-.77-.15-1.32-.45-1.63-.3-.32-.72-.48-1.28-.48-.62 0-1.53.32-2.74.95-1.21.64-2.78 1.58-4.71 2.83a30 30 0 0 1-.71-1.37c-.22-.46-.45-.92-.69-1.4 2.47-1.35 4.9-2.69 7.32-4.03 2.41-1.34 4.86-2.68 7.34-4.01"/><text x="3063.78" y="-1417.14" fill-opacity="0" font-family="Arial,Arial_MSFontService,sans-serif" font-size="38.363">1</text><path d="M3112.5-1463.08h952.91v52.52h-9.16v-47.94l4.58 4.58H3112.5Zm971.25 47.94-22.92 45.83-22.92-45.83Z"/><path fill-rule="evenodd" d="M2958.29-349.793c1.4 0 2.58.493 3.52 1.479.95.986 1.42 2.236 1.42 3.749s-.47 2.762-1.42 3.748c-.94.986-2.12 1.48-3.52 1.48-1.41 0-2.58-.494-3.53-1.48s-1.42-2.235-1.42-3.748.47-2.763 1.42-3.749 2.12-1.479 3.53-1.479m-24.56 0c1.4 0 2.58.493 3.52 1.479.95.986 1.42 2.236 1.42 3.749s-.47 2.762-1.42 3.748c-.94.986-2.12 1.48-3.52 1.48-1.41 0-2.58-.494-3.53-1.48s-1.42-2.235-1.42-3.748.47-2.763 1.42-3.749 2.12-1.479 3.53-1.479m-24.56 0c1.4 0 2.58.493 3.52 1.479.95.986 1.42 2.236 1.42 3.749s-.47 2.762-1.42 3.748c-.94.986-2.12 1.48-3.52 1.48-1.41 0-2.58-.494-3.53-1.48-.94-.986-1.42-2.235-1.42-3.748s.48-2.763 1.42-3.749c.95-.986 2.12-1.479 3.53-1.479"/><text x="2904.22" y="-340.644" fill-opacity="0" font-family="Arial,Arial_MSFontService,sans-serif" font-size="10.456">⋯</text><path fill="#d74514" d="M598 918h433v325H598z"/><text fill="#fff" font-family="Microsoft YaHei,Microsoft YaHei_MSFontService,sans-serif" font-size="83" font-weight="700" transform="translate(733.404 1060)">DES<tspan x="-1.444" y="99">解密</tspan></text><path d="M509.5 1075.92h48.125v9.16H509.5Zm43.542-18.34 45.833 22.92-45.833 22.92Z"/><path fill-rule="evenodd" d="M438.87 1054.55h16.211l-.446 1.99c-1.026.22-1.762.46-2.208.73s-.845.67-1.196 1.22c-.351.54-.716 1.38-1.094 2.53q-.567 1.725-1.418 5.61l-2.878 12.93h1.337q1.703 0 3.101-.57c.932-.38 2.019-1.07 3.262-2.06q1.864-1.5 5.938-5.52c2.715-2.67 4.647-4.7 5.795-6.1q1.722-2.085 2.513-3.6c.526-1.02.79-1.94.79-2.78 0-.67-.27-1.22-.811-1.64q-.81-.63-2.31-.75l.446-1.99h17.386l-.445 1.99q-1.622.24-3.668 1.68t-6.262 5.61l-15.724 15.32 8.632 20.75q1.338 3.21 2.209 4.62.871 1.425 2.087 2.25c.81.56 1.81.93 2.999 1.12l-.446 1.98h-15.643l.445-1.98q2.189-.21 2.189-1.95 0-1.095-.446-2.49c-.297-.93-.648-1.9-1.054-2.9l-5.268-12.89q-.933-2.31-1.621-3.24-.69-.93-1.459-1.29c-.514-.25-1.311-.37-2.391-.37h-2.27l-3.364 15.32c-.351 1.62-.581 2.9-.689 3.83a22 22 0 0 0-.162 2.49q0 1.83.912 2.58c.608.5 1.628.8 3.06.91l-.446 1.98h-16.211l.446-1.98c1.027-.16 1.797-.43 2.31-.79.513-.37.946-.87 1.297-1.52q.526-.975.973-2.37c.297-.94.743-2.74 1.337-5.41l6.89-31.21c.594-2.7.891-4.88.891-6.52 0-1.27-.317-2.16-.952-2.66q-.953-.75-3.019-.87Z"/><text x="428.252" y="1102.96" fill-opacity="0" font-family="Arial,Arial_MSFontService,sans-serif" font-size="55.32">𝐾</text><path fill="#fdefe8" d="M701 1406h703v218H701z"/><text fill="#d74514" font-family="Microsoft YaHei,Microsoft YaHei_MSFontService,sans-serif" font-size="83" font-weight="700" transform="translate(748.906 1543)">丢弃</text><path fill="#d74514" fill-rule="evenodd" d="M962.922 1514.05c-1.324 0-2.567.19-3.728.59-1.162.39-2.189.91-3.081 1.58q-1.336.99-1.803 1.62t-.669 1.8c-.135.78-.202 2.16-.202 4.13 0 4.95.689 8.66 2.067 11.15 1.377 2.48 3.485 3.73 6.322 3.73 2.891 0 5.052-1.05 6.484-3.14 1.432-2.1 2.148-5.33 2.148-9.71 0-3.86-.642-6.79-1.925-8.77-1.283-1.99-3.154-2.98-5.613-2.98m46.978-14.23-13.865 20.87v.69h13.865v-9.28c0-3.89.13-7.98.4-12.28Zm2.87-12.89h9.12v34.45h1.26c1.32 0 2.25-.08 2.79-.26s1.01-.51 1.4-.99c.39-.49.77-1.35 1.12-2.6h4.25l-.48 8.96h-10.34v6.04c0 2.02.12 3.45.37 4.27.24.83.61 1.44 1.11 1.85.5.4 1.47.81 2.9 1.21v2.68h-20.71v-2.68c1.43-.38 2.41-.8 2.94-1.27.52-.48.89-1.1 1.09-1.89.2-.78.31-2.17.31-4.17v-6.04h-21.727v-4.38Zm-39.311-.36 2.189 2.8v2.51q-8.875.195-14.388 5.49c-3.674 3.53-6.119 8.57-7.335 15.14l.405.16c2.108-1.46 4.229-2.53 6.363-3.2q3.202-1.02 7.011-1.02c3.107 0 5.775.69 8.004 2.05 2.229 1.37 3.911 3.29 5.046 5.78q1.702 3.72 1.702 8.67c0 3.59-.756 6.76-2.269 9.5-1.513 2.75-3.844 4.89-6.991 6.43q-4.722 2.31-11.571 2.31-6.282 0-10.8-2.52-4.52-2.505-6.91-7.41c-1.594-3.27-2.391-7.24-2.391-11.92 0-6.32 1.33-12.03 3.992-17.14s6.437-9.21 11.327-12.32q7.335-4.665 16.616-5.31"/><text x="941.524" y="1536.11" fill-opacity="0" font-family="Arial,Arial_MSFontService,sans-serif" font-size="56.617">𝟔𝟒</text><path fill="#d74514" fill-rule="evenodd" d="M1059.74 1516.11h49.93v5.39h-49.93Z"/><text x="1059.74" y="1520.83" fill-opacity="0" font-family="Arial,Arial_MSFontService,sans-serif" font-size="5.39">−</text><path fill="#d74514" fill-rule="evenodd" d="M1155.87 1501.89h4.62l-8.55 39.39c-1.46 6.73-3.84 11.64-7.15 14.73-3.31 3.1-7.82 4.64-13.52 4.64-1.27 0-2.55-.17-3.85-.52l1.1-4.42c.75.22 1.64.32 2.67.32 1.22 0 2.21-.17 2.98-.5.77-.34 1.46-.92 2.09-1.75.62-.82 1.2-2.03 1.74-3.62.54-1.6 1.13-3.84 1.78-6.73l6.57-29.18c.62-2.76.93-4.78.93-6.08q0-1.575-.75-2.25c-.5-.44-1.55-.75-3.14-.91l.61-2.68Zm-2.88-15.73h10.38l-2.11 9.93h-10.49Z"/><text x="1127.42" y="1551.34" fill-opacity="0" font-family="Arial,Arial_MSFontService,sans-serif" font-size="74.489">𝒋</text><text fill="#d74514" font-family="Microsoft YaHei,Microsoft YaHei_MSFontService,sans-serif" font-size="83" font-weight="700" transform="translate(1190.62 1543)">比特</text><path fill="#f8ccb9" d="M239 1406h472v218H239z"/><text fill="#d74514" font-family="Microsoft YaHei,Microsoft YaHei_MSFontService,sans-serif" font-size="83" font-weight="700" transform="translate(311.439 1543)">选</text><path fill="#d74514" fill-rule="evenodd" d="M438.822 1501.89h4.62l-8.551 39.39q-2.189 10.095-7.153 14.73c-3.31 3.1-7.815 4.64-13.516 4.64-1.27 0-2.553-.17-3.85-.52l1.094-4.42c.757.22 1.648.32 2.675.32 1.216 0 2.209-.17 2.979-.5.77-.34 1.465-.92 2.087-1.75.621-.82 1.202-2.03 1.742-3.62.541-1.6 1.135-3.84 1.784-6.73l6.565-29.18c.621-2.76.932-4.78.932-6.08q0-1.575-.75-2.25c-.499-.44-1.546-.75-3.14-.91l.607-2.68Zm-2.877-15.73h10.375l-2.108 9.93h-10.496Z"/><text x="410.372" y="1551.34" fill-opacity="0" font-family="Arial,Arial_MSFontService,sans-serif" font-size="74.489">𝒋</text><text fill="#d74514" font-family="Microsoft YaHei,Microsoft YaHei_MSFontService,sans-serif" font-size="83" font-weight="700" transform="translate(473.575 1543)">比特</text><path fill="#fdefe8" d="M972 496h432v218H972z"/><path fill="#d74514" fill-rule="evenodd" d="M1098.81 593.983h4.62l-8.55 39.393c-1.46 6.727-3.85 11.638-7.16 14.731s-7.81 4.641-13.51 4.641c-1.27 0-2.55-.176-3.85-.527l1.09-4.418c.76.216 1.65.325 2.68.325 1.21 0 2.21-.169 2.98-.507s1.46-.919 2.08-1.743 1.21-2.033 1.75-3.627 1.13-3.837 1.78-6.727l6.56-29.18c.63-2.756.94-4.782.94-6.079q0-1.581-.75-2.249c-.5-.446-1.55-.75-3.14-.912l.6-2.675Zm-2.88-15.725h10.38l-2.11 9.93h-10.5Z"/><text x="1070.36" y="643.437" fill-opacity="0" font-family="Arial,Arial_MSFontService,sans-serif" font-size="74.489">𝒋</text><text fill="#d74514" font-family="Microsoft YaHei,Microsoft YaHei_MSFontService,sans-serif" font-size="83" font-weight="700" transform="translate(1133.56 635)">比特</text><path fill="#f8ccb9" d="M239 496h733v218H239z"/><path fill="#d74514" fill-rule="evenodd" d="M422.138 606.141a11.6 11.6 0 0 0-3.729.588q-1.742.588-3.08 1.58-1.337.993-1.803 1.622-.466.628-.669 1.803t-.203 4.134q0 7.416 2.067 11.145t6.323 3.728q4.336 0 6.484-3.141t2.148-9.706q0-5.795-1.925-8.774t-5.613-2.979m46.973-14.225-13.86 20.872v.689h13.86v-9.281q0-5.836.406-12.28Zm2.878-12.888h9.119v34.449h1.256q1.986 0 2.796-.264.811-.262 1.399-.993.587-.73 1.114-2.593h4.255l-.486 8.956h-10.334v6.039q0 3.039.364 4.275.365 1.236 1.115 1.844t2.898 1.216v2.675h-20.71v-2.675q2.148-.567 2.938-1.276t1.095-1.885q.303-1.175.303-4.174v-6.039h-21.722v-4.377Zm-39.314-.364 2.188 2.796v2.513q-8.875.202-14.387 5.491-5.511 5.29-7.335 15.137l.405.162q3.16-2.188 6.363-3.201 3.201-1.014 7.011-1.014 4.66 0 8.004 2.047t5.046 5.775q1.702 3.729 1.702 8.673 0 5.39-2.27 9.504t-6.99 6.423q-4.722 2.31-11.571 2.31-6.282 0-10.801-2.512-4.518-2.513-6.909-7.417t-2.392-11.915q0-9.483 3.992-17.143t11.328-12.32 16.616-5.309"/><text x="400.739" y="628.203" fill-opacity="0" font-family="Arial,Arial_MSFontService,sans-serif" font-size="56.617">𝟔𝟒</text><path fill="#d74514" fill-rule="evenodd" d="M518.952 608.208h49.929v5.39h-49.929Z"/><text x="518.952" y="612.924" fill-opacity="0" font-family="Arial,Arial_MSFontService,sans-serif" font-size="5.39">−</text><path fill="#d74514" fill-rule="evenodd" d="M615.087 593.983h4.621l-8.552 39.393q-2.188 10.091-7.153 14.731t-13.516 4.641a14.7 14.7 0 0 1-3.85-.527l1.094-4.418q1.136.324 2.675.325 1.824 0 2.979-.507t2.087-1.743 1.743-3.627q.81-2.392 1.783-6.727l6.565-29.18q.933-4.134.933-6.079 0-1.581-.75-2.249t-3.141-.912l.608-2.675Zm-2.877-15.725h10.375l-2.107 9.93h-10.497Z"/><text x="586.637" y="643.437" fill-opacity="0" font-family="Arial,Arial_MSFontService,sans-serif" font-size="74.489">𝒋</text><text fill="#d74514" font-family="Microsoft YaHei,Microsoft YaHei_MSFontService,sans-serif" font-size="83" font-weight="700" transform="translate(649.84 635)">比特</text><path d="M819.083 714.5v162.042h-9.166V714.5Zm18.334 157.459L814.5 917.792l-22.917-45.833ZM819.083 1243.5v121.46h-9.166V1243.5Zm18.334 116.87-22.917 45.84-22.917-45.84Z"/><path fill="none" stroke="#000" stroke-miterlimit="8" stroke-width="9.167" d="M869.793 756.5 746.5 852.75m123.293 409.75L746.5 1358.75"/><path fill-rule="evenodd" d="M903.802 822.096q-1.986 0-3.83.445-1.843.447-3.465 1.297a17.8 17.8 0 0 0-3.161 2.148 3.3 3.3 0 0 0-.729.932q-.406.771-.527 1.905-.122 1.135-.122 3.81 0 7.74 2.594 11.793t7.862 4.053q3.04 0 5.107-1.054 2.067-1.053 3.343-2.898 1.276-1.843 1.824-4.336.547-2.493.547-5.41 0-5.999-2.472-9.342t-6.971-3.343m46.811-17.265-15.846 25.167v.568h15.846v-10.092q0-3.809.121-8.531.122-4.72.284-7.112Zm1.175-9.159h5.795v34.894h.852q2.35 0 3.363-.345a3.5 3.5 0 0 0 1.682-1.216q.669-.87 1.236-2.857h3.08l-.486 8.349h-9.727v6.646q0 2.716.183 3.972.182 1.257.608 1.986.425.73 1.256 1.216.83.486 2.695.972v1.986h-16.454v-1.986q2.512-.648 3.364-1.438t1.114-2.25q.264-1.458.264-4.458v-6.646H928.08v-3.04Zm-37.57-.365 1.661 2.229v1.986q-6.24 0-11.064 2.675-4.822 2.675-8.004 7.862t-4.478 12.32l.405.162q3.405-2.431 6.708-3.566t7.153-1.135q4.58 0 7.801 2.006t4.843 5.634q1.621 3.627 1.621 8.49 0 5.268-2.026 9.301t-6.262 6.343-10.435 2.31q-8.876 0-13.395-5.512-4.518-5.513-4.518-16.251 0-7.215 2.269-13.496t6.444-10.963q4.174-4.68 9.686-7.376a29.7 29.7 0 0 1 11.591-3.019"/><text x="884.228" y="844.847" fill-opacity="0" font-family="Arial,Arial_MSFontService,sans-serif" font-size="56.617">64</text><path fill-rule="evenodd" d="M903.802 1328.78q-1.986 0-3.83.45c-1.229.29-2.384.73-3.465 1.29a18 18 0 0 0-3.161 2.15q-.486.45-.729.93c-.271.52-.446 1.15-.527 1.91q-.122 1.125-.122 3.81 0 7.74 2.594 11.79t7.862 4.05q3.04 0 5.107-1.05a8.9 8.9 0 0 0 3.343-2.9c.851-1.23 1.459-2.67 1.824-4.33.365-1.67.547-3.47.547-5.42 0-3.99-.824-7.11-2.472-9.34s-3.972-3.34-6.971-3.34m46.811-17.26-15.846 25.16v.57h15.846v-10.09c0-2.54.04-5.38.121-8.53q.122-4.725.284-7.11Zm1.175-9.16h5.795v34.89h.852c1.567 0 2.688-.11 3.363-.34a3.5 3.5 0 0 0 1.682-1.22c.446-.58.858-1.53 1.236-2.86h3.08l-.486 8.35h-9.727v6.65c0 1.81.061 3.13.183 3.97.121.84.324 1.5.608 1.99.283.48.702.89 1.256 1.21.554.33 1.452.65 2.695.97v1.99h-16.454v-1.99q2.512-.645 3.364-1.44c.567-.52.939-1.27 1.114-2.24.176-.98.264-2.46.264-4.46v-6.65H928.08v-3.04Zm-37.57-.37 1.661 2.23v1.99q-6.24 0-11.064 2.67-4.822 2.67-8.004 7.86c-2.121 3.46-3.613 7.57-4.478 12.32l.405.17c2.27-1.63 4.506-2.81 6.708-3.57q3.303-1.14 7.153-1.14 4.58 0 7.801 2.01c2.148 1.34 3.762 3.22 4.843 5.63q1.621 3.63 1.621 8.49c0 3.52-.675 6.62-2.026 9.31-1.351 2.68-3.438 4.8-6.262 6.34q-4.235 2.31-10.435 2.31c-5.917 0-10.382-1.84-13.395-5.51q-4.518-5.52-4.518-16.26c0-4.8.756-9.3 2.269-13.49s3.661-7.84 6.444-10.96q4.174-4.68 9.686-7.38c3.674-1.8 7.538-2.8 11.591-3.02"/><text x="884.228" y="1351.53" fill-opacity="0" font-family="Arial,Arial_MSFontService,sans-serif" font-size="56.617">64</text><path fill="none" stroke="#d74514" stroke-miterlimit="8" stroke-width="9.167" d="M403.5 1883.5c0-40.87 33.131-74 74-74s74 33.13 74 74-33.131 74-74 74-74-33.13-74-74Zm148.129 0H403.5m74 74.13v-148.129"/><path fill-rule="evenodd" d="M1012.38 1856.4c2.46 0 4.73.15 6.83.45q3.135.45 6.99 1.62l-2.43 10.98h-3.89c-.22-3.32-.94-5.72-2.17-7.19s-3.21-2.21-5.94-2.21c-3.73 0-7.19 1.86-10.39 5.59-3.206 3.73-5.738 8.66-7.603 14.78q-2.796 9.18-2.796 17.04c0 4.1.729 7.13 2.188 9.08q2.189 2.91 6.728 2.91c2.023 0 3.793-.3 5.313-.91 1.51-.61 2.93-1.63 4.25-3.08q1.995-2.16 3.93-6.06h3.89l-2.47 11.51c-5.05 1.41-10.35 2.11-15.886 2.11q-7.619 0-11.591-4.38c-2.647-2.92-3.971-7.18-3.971-12.8q0-5.97 2.127-13.74c1.419-5.19 3.425-9.74 6.019-13.66s5.66-6.9 9.202-8.96c3.54-2.05 7.43-3.08 11.67-3.08"/><text x="983.362" y="1905.94" fill-opacity="0" font-family="Arial,Arial_MSFontService,sans-serif" font-size="56.617">𝐶</text><path fill-rule="evenodd" d="M1040.53 1890.85h1.82q-.06 1.635-.09 2.94c-.02.86-.04 1.7-.05 2.51-.01.82-.01 1.62-.01 2.42v22.63c0 .62.02 1.15.06 1.6.04.44.1.82.19 1.13.09.3.21.57.36.79.15.21.32.4.52.56.24.24.55.42.95.55s.91.24 1.52.33q.93.135 2.22.21c.86.05 1.9.08 3.11.1v2.6h-23.62v-2.6c1.17-.04 2.17-.08 2.98-.13.82-.05 1.51-.12 2.09-.21q.855-.135 1.38-.3c.35-.11.65-.24.91-.4.28-.18.52-.37.71-.58.2-.21.36-.47.48-.79s.21-.7.28-1.16.11-1.02.11-1.7V1900c0-.78-.15-1.32-.45-1.64s-.72-.48-1.28-.48c-.61 0-1.53.32-2.74.95-1.21.64-2.78 1.58-4.71 2.83-.25-.45-.49-.91-.71-1.37-.22-.45-.45-.92-.69-1.4 2.47-1.35 4.9-2.69 7.32-4.03 2.41-1.34 4.86-2.68 7.34-4.01"/><text x="1025.87" y="1924.42" fill-opacity="0" font-family="Arial,Arial_MSFontService,sans-serif" font-size="38.363">1</text><path fill-rule="evenodd" d="M455.317 2119.22q-2.512 0-5.268.12l-5.512 24.56h4.215q4.904 0 7.923-1.02c2.013-.67 3.661-1.72 4.944-3.14 1.284-1.41 2.276-3.1 2.979-5.04.702-1.95 1.054-4.08 1.054-6.41 0-3.13-.797-5.43-2.391-6.88q-2.392-2.19-7.944-2.19m-16.981-3.57h17.873q4.822 0 7.923.75t5.106 2.31a9.6 9.6 0 0 1 2.999 3.95q.993 2.4.993 5.55c0 4.06-.959 7.57-2.877 10.54q-2.877 4.455-7.802 6.57-4.923 2.1-11.813 2.1c-2.756 0-5.053-.05-6.89-.16l-2.594 11.92c-.243 1.1-.412 1.96-.506 2.55s-.176 1.24-.244 1.92c-.067.69-.101 1.31-.101 1.85 0 .84.135 1.49.405 1.96.271.48.676.82 1.216 1.04.541.21 1.473.38 2.797.48l-.446 1.99h-16.657l.446-1.99c1.027-.16 1.797-.42 2.31-.79.513-.36.946-.87 1.297-1.52q.527-.96.972-2.37c.298-.93.743-2.73 1.338-5.41l6.89-31.2c.594-2.71.891-4.84.891-6.41 0-1.32-.311-2.24-.932-2.75-.621-.52-1.635-.81-3.04-.89Z"/><text x="427.718" y="2164.05" fill-opacity="0" font-family="Arial,Arial_MSFontService,sans-serif" font-size="55.32">𝑃</text><path fill-rule="evenodd" d="M485.732 2149.45h1.817a221 221 0 0 0-.134 5.45c-.01.82-.015 1.62-.015 2.41v22.64q0 .93.059 1.59.06.675.194 1.14c.089.3.208.57.357.79.149.21.323.4.522.56.238.24.556.42.953.55q.595.195 1.519.33t2.219.21c.863.05 1.901.08 3.112.1v2.59h-23.619v-2.59c1.171-.04 2.164-.08 2.978-.13a23 23 0 0 0 2.085-.21 10 10 0 0 0 1.385-.3c.348-.11.65-.24.909-.4.278-.18.516-.37.714-.58.199-.21.358-.47.477-.79s.213-.71.283-1.16c.069-.46.104-1.02.104-1.7v-21.36c0-.77-.149-1.32-.447-1.63q-.446-.48-1.28-.48c-.616 0-1.529.32-2.741.95-1.211.64-2.78 1.58-4.706 2.83a20 20 0 0 1-.714-1.37c-.219-.45-.447-.92-.686-1.4 2.463-1.35 4.9-2.69 7.313-4.03s4.86-2.68 7.342-4.01"/><text x="471.077" y="2183.02" fill-opacity="0" font-family="Arial,Arial_MSFontService,sans-serif" font-size="38.363">1</text><path d="M971.925 1878.917H592.75v9.167h379.175Zm-374.592-18.333L551.5 1883.5l45.833 22.917Zm-115.25 96.916.001 76.47h-9.167v-76.47Zm18.334 71.88-22.917 45.84-22.916-45.84Zm-20.334-404.93 1.56 143.29-9.166.1-1.56-143.29Zm19.842 138.5-22.416 46.08-23.414-45.58Z"/><path fill-rule="evenodd" d="M569.021 403.426H585.8l-.446 1.986q-1.783.202-2.776 1.053-.993.852-1.398 2.371-.406 1.52-.406 4.073 0 .607.122 3.648l1.135 29.666v3.242h.405l17.548-31.652q1.54-2.796 2.31-4.802.77-2.007.77-3.547 0-3.404-4.052-4.052l.445-1.986h16.576l-.446 1.986a5 5 0 0 0-2.087.83q-.993.669-2.229 2.229t-3.83 6.019l-25.937 44.904h-5.39l-2.716-45.188q-.162-2.634-.587-4.519-.426-1.884-1.338-2.938-.911-1.053-2.897-1.337Zm-23.367 0h16.211l-.446 1.986q-1.54.324-2.209.729t-1.195 1.216-1.095 2.533q-.567 1.722-1.418 5.613l-6.93 31.449q-.528 2.391-.689 3.789a22 22 0 0 0-.162 2.533q0 1.824.912 2.574.91.75 3.059.912l-.445 1.986h-16.211l.445-1.986q1.54-.243 2.31-.79.77-.548 1.297-1.52.528-.973.973-2.371.446-1.398 1.337-5.411l6.89-31.206q.892-4.052.892-6.524 0-1.905-.953-2.655-.952-.75-3.019-.871Z"/><text x="535.036" y="452.398" fill-opacity="0" font-family="Arial,Arial_MSFontService,sans-serif" font-size="55.968">𝐼𝑉</text><text font-family="Microsoft YaHei,Microsoft YaHei_MSFontService,sans-serif" font-size="83" font-weight="400" transform="translate(643.046 459)">(<tspan x="27.5" y="0">移位寄存器</tspan><tspan x="440" y="0">)</tspan></text><path fill="#d74514" d="M1954 918h433v325h-433z"/><text fill="#fff" font-family="Microsoft YaHei,Microsoft YaHei_MSFontService,sans-serif" font-size="83" font-weight="700" transform="translate(2089.31 1060)">DES<tspan x="-1.444" y="99">解密</tspan></text><path d="M1865.5 1075.92h48.12v9.16h-48.12Zm43.54-18.34 45.84 22.92-45.84 22.92Z"/><path fill-rule="evenodd" d="M1794.77 1054.55h16.21l-.44 1.99c-1.03.22-1.76.46-2.21.73s-.84.67-1.2 1.22c-.35.54-.71 1.38-1.09 2.53s-.85 3.02-1.42 5.61l-2.88 12.93h1.34c1.14 0 2.17-.19 3.1-.57s2.02-1.07 3.26-2.06q1.875-1.5 5.94-5.52c2.72-2.67 4.65-4.7 5.8-6.1 1.15-1.39 1.98-2.59 2.51-3.6.53-1.02.79-1.94.79-2.78 0-.67-.27-1.22-.81-1.64q-.81-.63-2.31-.75l.45-1.99h17.38l-.44 1.99c-1.09.16-2.31.72-3.67 1.68-1.37.96-3.45 2.83-6.26 5.61l-15.73 15.32 8.63 20.75c.9 2.14 1.63 3.68 2.21 4.62.58.95 1.28 1.7 2.09 2.25.81.56 1.81.93 3 1.12l-.45 1.98h-15.64l.45-1.98c1.45-.14 2.18-.79 2.18-1.95 0-.73-.14-1.56-.44-2.49s-.65-1.9-1.06-2.9l-5.26-12.89c-.63-1.54-1.17-2.62-1.63-3.24-.45-.62-.94-1.05-1.45-1.29-.52-.25-1.31-.37-2.4-.37h-2.26l-3.37 15.32c-.35 1.62-.58 2.9-.69 3.83s-.16 1.76-.16 2.49c0 1.22.3 2.08.91 2.58s1.63.8 3.06.91l-.44 1.98h-16.21l.44-1.98c1.03-.16 1.8-.43 2.31-.79.51-.37.95-.87 1.3-1.52s.67-1.44.97-2.37c.3-.94.74-2.74 1.34-5.41l6.89-31.21c.59-2.7.89-4.88.89-6.52 0-1.27-.32-2.16-.95-2.66-.64-.5-1.64-.79-3.02-.87Z"/><text x="1784.16" y="1102.96" fill-opacity="0" font-family="Arial,Arial_MSFontService,sans-serif" font-size="55.32">𝐾</text><path fill="#fdefe8" d="M2057 1406h703v218h-703z"/><text fill="#d74514" font-family="Microsoft YaHei,Microsoft YaHei_MSFontService,sans-serif" font-size="83" font-weight="700" transform="translate(2104.81 1543)">丢弃</text><path fill="#d74514" fill-rule="evenodd" d="M2318.82 1514.05c-1.32 0-2.56.19-3.72.59-1.17.39-2.19.91-3.08 1.58-.9.66-1.5 1.2-1.81 1.62s-.53 1.02-.67 1.8c-.13.78-.2 2.16-.2 4.13 0 4.95.69 8.66 2.07 11.15 1.38 2.48 3.48 3.73 6.32 3.73 2.89 0 5.05-1.05 6.49-3.14 1.43-2.1 2.14-5.33 2.14-9.71 0-3.86-.64-6.79-1.92-8.77-1.29-1.99-3.16-2.98-5.62-2.98m46.98-14.23-13.86 20.87v.69h13.86v-9.28c0-3.89.13-7.98.4-12.28Zm2.88-12.89h9.11v34.45h1.26c1.33 0 2.26-.08 2.8-.26s1-.51 1.4-.99c.39-.49.76-1.35 1.11-2.6h4.26l-.49 8.96h-10.34v6.04c0 2.02.13 3.45.37 4.27.24.83.61 1.44 1.11 1.85.5.4 1.47.81 2.9 1.21v2.68h-20.71v-2.68c1.43-.38 2.41-.8 2.94-1.27.53-.48.89-1.1 1.09-1.89.21-.78.31-2.17.31-4.17v-6.04h-21.72v-4.38Zm-39.32-.36 2.19 2.8v2.51c-5.92.13-10.71 1.96-14.39 5.49-3.67 3.53-6.12 8.57-7.33 15.14l.4.16c2.11-1.46 4.23-2.53 6.37-3.2 2.13-.68 4.47-1.02 7.01-1.02 3.1 0 5.77.69 8 2.05 2.23 1.37 3.91 3.29 5.05 5.78 1.13 2.48 1.7 5.37 1.7 8.67 0 3.59-.76 6.76-2.27 9.5-1.51 2.75-3.84 4.89-6.99 6.43s-7.01 2.31-11.57 2.31q-6.285 0-10.8-2.52c-3.01-1.67-5.32-4.14-6.91-7.41-1.6-3.27-2.39-7.24-2.39-11.92 0-6.32 1.33-12.03 3.99-17.14s6.44-9.21 11.33-12.32 10.42-4.88 16.61-5.31"/><text x="2297.43" y="1536.11" fill-opacity="0" font-family="Arial,Arial_MSFontService,sans-serif" font-size="56.617">𝟔𝟒</text><path fill="#d74514" fill-rule="evenodd" d="M2415.64 1516.11h49.93v5.39h-49.93Z"/><text x="2415.64" y="1520.83" fill-opacity="0" font-family="Arial,Arial_MSFontService,sans-serif" font-size="5.39">−</text><path fill="#d74514" fill-rule="evenodd" d="M2511.77 1501.89h4.62l-8.55 39.39c-1.46 6.73-3.84 11.64-7.15 14.73-3.31 3.1-7.81 4.64-13.52 4.64-1.27 0-2.55-.17-3.85-.52l1.1-4.42c.76.22 1.65.32 2.67.32 1.22 0 2.21-.17 2.98-.5.77-.34 1.47-.92 2.09-1.75.62-.82 1.2-2.03 1.74-3.62.54-1.6 1.14-3.84 1.79-6.73l6.56-29.18c.62-2.76.93-4.78.93-6.08q0-1.575-.75-2.25c-.5-.44-1.54-.75-3.14-.91l.61-2.68Zm-2.87-15.73h10.37l-2.11 9.93h-10.49Z"/><text x="2483.32" y="1551.34" fill-opacity="0" font-family="Arial,Arial_MSFontService,sans-serif" font-size="74.489">𝒋</text><text fill="#d74514" font-family="Microsoft YaHei,Microsoft YaHei_MSFontService,sans-serif" font-size="83" font-weight="700" transform="translate(2546.53 1543)">比特</text><path fill="#f8ccb9" d="M1595 1406h472v218h-472z"/><text fill="#d74514" font-family="Microsoft YaHei,Microsoft YaHei_MSFontService,sans-serif" font-size="83" font-weight="700" transform="translate(1667.34 1543)">选</text><path fill="#d74514" fill-rule="evenodd" d="M1794.72 1501.89h4.62l-8.55 39.39c-1.46 6.73-3.84 11.64-7.15 14.73-3.31 3.1-7.81 4.64-13.52 4.64-1.27 0-2.55-.17-3.85-.52l1.1-4.42c.76.22 1.65.32 2.67.32 1.22 0 2.21-.17 2.98-.5.77-.34 1.47-.92 2.09-1.75.62-.82 1.2-2.03 1.74-3.62.54-1.6 1.14-3.84 1.79-6.73l6.56-29.18c.62-2.76.93-4.78.93-6.08q0-1.575-.75-2.25c-.5-.44-1.54-.75-3.14-.91l.61-2.68Zm-2.87-15.73h10.37l-2.11 9.93h-10.49Z"/><text x="1766.27" y="1551.34" fill-opacity="0" font-family="Arial,Arial_MSFontService,sans-serif" font-size="74.489">𝒋</text><text fill="#d74514" font-family="Microsoft YaHei,Microsoft YaHei_MSFontService,sans-serif" font-size="83" font-weight="700" transform="translate(1829.48 1543)">比特</text><path fill="#fdefe8" d="M2327 496h433v218h-433z"/><path fill="#d74514" fill-rule="evenodd" d="M2454.71 593.983h4.62l-8.55 39.393c-1.46 6.727-3.84 11.638-7.15 14.731s-7.82 4.641-13.52 4.641c-1.27 0-2.55-.176-3.85-.527l1.1-4.418q1.125.324 2.67.325c1.22 0 2.21-.169 2.98-.507s1.47-.919 2.09-1.743q.93-1.236 1.74-3.627c.54-1.594 1.13-3.837 1.78-6.727l6.57-29.18q.93-4.134.93-6.079 0-1.581-.75-2.249c-.5-.446-1.55-.75-3.14-.912l.61-2.675Zm-2.88-15.725h10.38l-2.11 9.93h-10.49Z"/><text x="2426.26" y="643.437" fill-opacity="0" font-family="Arial,Arial_MSFontService,sans-serif" font-size="74.489">𝒋</text><text fill="#d74514" font-family="Microsoft YaHei,Microsoft YaHei_MSFontService,sans-serif" font-size="83" font-weight="700" transform="translate(2489.46 635)">比特</text><path fill="#f8ccb9" d="M1595 496h732v218h-732z"/><path fill="#d74514" fill-rule="evenodd" d="M1778.04 606.141c-1.32 0-2.57.196-3.73.588s-2.19.919-3.08 1.58q-1.335.993-1.8 1.622c-.31.418-.53 1.02-.67 1.803-.14.784-.2 2.161-.2 4.134 0 4.944.69 8.659 2.06 11.145q2.07 3.728 6.33 3.728 4.335 0 6.48-3.141c1.43-2.093 2.15-5.329 2.15-9.706 0-3.863-.64-6.788-1.93-8.774q-1.92-2.979-5.61-2.979m46.97-14.225-13.86 20.872v.689h13.86v-9.281c0-3.891.14-7.984.41-12.28Zm2.88-12.888h9.12v34.449h1.26q1.98 0 2.79-.264c.54-.175 1.01-.506 1.4-.993.39-.486.76-1.351 1.12-2.593h4.25l-.49 8.956h-10.33v6.039c0 2.026.12 3.451.37 4.275q.36 1.236 1.11 1.844c.5.406 1.47.811 2.9 1.216v2.675h-20.71v-2.675q2.145-.567 2.94-1.276c.52-.473.89-1.101 1.09-1.885q.3-1.175.3-4.174v-6.039h-21.72v-4.377Zm-39.31-.364 2.19 2.796v2.513c-5.92.135-10.72 1.965-14.39 5.491-3.68 3.526-6.12 8.572-7.34 15.137l.41.162q3.165-2.188 6.36-3.201c2.14-.676 4.47-1.014 7.01-1.014q4.665 0 8.01 2.047t5.04 5.775c1.14 2.486 1.7 5.377 1.7 8.673 0 3.594-.75 6.761-2.26 9.504-1.52 2.742-3.85 4.883-7 6.423-3.14 1.54-7 2.31-11.57 2.31q-6.27 0-10.8-2.512c-3.01-1.675-5.31-4.148-6.91-7.417-1.59-3.269-2.39-7.241-2.39-11.915q0-9.483 3.99-17.143c2.67-5.106 6.44-9.213 11.33-12.32q7.335-4.66 16.62-5.309"/><text x="1756.64" y="628.203" fill-opacity="0" font-family="Arial,Arial_MSFontService,sans-serif" font-size="56.617">𝟔𝟒</text><path fill="#d74514" fill-rule="evenodd" d="M1874.85 608.208h49.93v5.39h-49.93Z"/><text x="1874.85" y="612.924" fill-opacity="0" font-family="Arial,Arial_MSFontService,sans-serif" font-size="5.39">−</text><path fill="#d74514" fill-rule="evenodd" d="M1970.99 593.983h4.62l-8.55 39.393c-1.46 6.727-3.84 11.638-7.15 14.731s-7.82 4.641-13.52 4.641c-1.27 0-2.55-.176-3.85-.527l1.09-4.418c.76.216 1.65.325 2.68.325 1.22 0 2.21-.169 2.98-.507s1.46-.919 2.09-1.743q.93-1.236 1.74-3.627c.54-1.594 1.13-3.837 1.78-6.727l6.57-29.18q.93-4.134.93-6.079 0-1.581-.75-2.249c-.5-.446-1.55-.75-3.14-.912l.61-2.675Zm-2.88-15.725h10.38l-2.11 9.93h-10.5Z"/><text x="1942.54" y="643.437" fill-opacity="0" font-family="Arial,Arial_MSFontService,sans-serif" font-size="74.489">𝒋</text><text fill="#d74514" font-family="Microsoft YaHei,Microsoft YaHei_MSFontService,sans-serif" font-size="83" font-weight="700" transform="translate(2005.74 635)">比特</text><path d="M2175.08 714.5v162.042h-9.16V714.5Zm18.34 157.459-22.92 45.833-22.92-45.833Zm-18.34 371.541v121.46h-9.16V1243.5Zm18.34 116.87-22.92 45.84-22.92-45.84Z"/><path fill="none" stroke="#d74514" stroke-miterlimit="8" stroke-width="9.167" d="M1759.5 1883.5c0-40.87 33.13-74 74-74s74 33.13 74 74-33.13 74-74 74-74-33.13-74-74Zm148.13 0h-148.129m73.999 74.13v-148.129"/><path fill-rule="evenodd" d="M2367.33 1856.4c2.46 0 4.74.15 6.83.45q3.135.45 6.99 1.62l-2.43 10.98h-3.89c-.22-3.32-.94-5.72-2.17-7.19s-3.21-2.21-5.94-2.21c-3.73 0-7.19 1.86-10.39 5.59s-5.74 8.66-7.6 14.78c-1.87 6.12-2.8 11.8-2.8 17.04 0 4.1.73 7.13 2.19 9.08 1.46 1.94 3.7 2.91 6.73 2.91 2.03 0 3.8-.3 5.31-.91s2.93-1.63 4.25-3.08q1.995-2.16 3.93-6.06h3.9l-2.48 11.51c-5.05 1.41-10.34 2.11-15.88 2.11-5.08 0-8.95-1.46-11.59-4.38-2.65-2.92-3.98-7.18-3.98-12.8q0-5.97 2.13-13.74c1.42-5.19 3.43-9.74 6.02-13.66s5.66-6.9 9.2-8.96c3.54-2.05 7.43-3.08 11.67-3.08"/><text x="2338.31" y="1905.94" fill-opacity="0" font-family="Arial,Arial_MSFontService,sans-serif" font-size="56.617">𝐶</text><path fill-rule="evenodd" d="M2395.06 1890.64c2.06 0 3.83.24 5.29.7 1.46.47 2.64 1.1 3.56 1.89.91.8 1.57 1.75 1.98 2.86.4 1.12.61 2.32.61 3.61 0 .77-.06 1.49-.17 2.16-.11.66-.29 1.32-.56 1.96-.27.65-.62 1.3-1.06 1.95-.44.66-.98 1.35-1.64 2.09-.49.63-1.14 1.37-1.93 2.2-.8.84-1.67 1.73-2.61 2.68-.94.96-1.93 1.95-2.96 2.98-1.04 1.04-2.04 2.06-3.01 3.07-.98 1.01-1.87 2-2.68 2.95-.82.95-1.48 1.83-2 2.62h11.02c.94 0 1.68-.03 2.24-.1.55-.07 1.01-.23 1.38-.47.37-.23.68-.6.94-1.08.26-.49.56-1.16.89-2.01h2.77c-.1 1.41-.19 2.83-.28 4.26s-.18 2.85-.28 4.26h-25.23v-1.55c.48-1.08 1.03-2.13 1.67-3.18a42 42 0 0 1 2.14-3.17c.8-1.07 1.7-2.18 2.71-3.32a82 82 0 0 1 3.37-3.56c1.86-1.86 3.38-3.46 4.55-4.78 1.18-1.32 2.1-2.5 2.77-3.53.68-1.03 1.14-1.98 1.39-2.86.25-.87.37-1.8.37-2.8 0-1.01-.14-1.94-.43-2.8-.29-.85-.7-1.58-1.24-2.17-.53-.6-1.21-1.06-2.04-1.4-.82-.34-1.77-.51-2.84-.51-1.85 0-3.4.5-4.65 1.51-1.25 1-2.22 2.45-2.92 4.36h-3.9v-5.81c2.54-1.05 4.88-1.82 7.02-2.29q3.195-.72 5.76-.72"/><text x="2381.33" y="1924.39" fill-opacity="0" font-family="Arial,Arial_MSFontService,sans-serif" font-size="38.572">2</text><path fill-rule="evenodd" d="M1810.27 2119.22c-1.68 0-3.43.04-5.27.12l-5.51 24.56h4.21c3.27 0 5.91-.34 7.93-1.02 2.01-.67 3.66-1.72 4.94-3.14 1.28-1.41 2.28-3.1 2.98-5.04.7-1.95 1.05-4.08 1.05-6.41 0-3.13-.79-5.43-2.39-6.88-1.59-1.46-4.24-2.19-7.94-2.19m-16.98-3.57h17.87q4.83 0 7.92.75c2.07.5 3.77 1.27 5.11 2.31a9.55 9.55 0 0 1 3 3.95q.99 2.4.99 5.55c0 4.06-.96 7.57-2.88 10.54q-2.865 4.455-7.8 6.57c-3.28 1.4-7.22 2.1-11.81 2.1-2.76 0-5.05-.05-6.89-.16l-2.59 11.92c-.25 1.1-.42 1.96-.51 2.55-.1.59-.18 1.24-.24 1.92-.07.69-.11 1.31-.11 1.85 0 .84.14 1.49.41 1.96.27.48.68.82 1.22 1.04.54.21 1.47.38 2.79.48l-.44 1.99h-16.66l.45-1.99c1.02-.16 1.79-.42 2.31-.79.51-.36.94-.87 1.29-1.52.35-.64.68-1.43.98-2.37.29-.93.74-2.73 1.33-5.41l6.89-31.2c.6-2.71.89-4.84.89-6.41 0-1.32-.31-2.24-.93-2.75-.62-.52-1.63-.81-3.04-.89Z"/><text x="1782.67" y="2164.05" fill-opacity="0" font-family="Arial,Arial_MSFontService,sans-serif" font-size="55.32">𝑃</text><path fill-rule="evenodd" d="M1840.26 2149.24c2.07 0 3.83.24 5.29.7 1.46.47 2.65 1.1 3.56 1.89.91.8 1.57 1.75 1.98 2.86s.61 2.32.61 3.61c0 .77-.05 1.49-.16 2.16-.11.66-.3 1.32-.57 1.96-.27.65-.62 1.3-1.06 1.95-.43.66-.98 1.35-1.64 2.09-.49.63-1.14 1.37-1.93 2.2-.8.84-1.66 1.73-2.61 2.68-.94.96-1.93 1.95-2.96 2.98s-2.04 2.06-3.01 3.07-1.87 1.99-2.68 2.95c-.81.95-1.48 1.82-2 2.62h11.02c.94 0 1.68-.04 2.24-.11.55-.07 1.02-.22 1.38-.46.37-.24.68-.6.94-1.08q.39-.735.9-2.01h2.77c-.1 1.41-.2 2.82-.29 4.25s-.18 2.85-.28 4.26h-25.23v-1.55c.48-1.07 1.03-2.12 1.67-3.17a42 42 0 0 1 2.14-3.17c.8-1.07 1.7-2.18 2.71-3.32 1.02-1.14 2.14-2.33 3.37-3.56 1.87-1.87 3.39-3.46 4.56-4.78s2.09-2.5 2.77-3.53c.67-1.03 1.13-1.99 1.38-2.86s.37-1.81.37-2.8c0-1.01-.14-1.95-.43-2.8s-.7-1.58-1.23-2.17c-.54-.6-1.22-1.07-2.04-1.4q-1.245-.51-2.85-.51c-1.84 0-3.39.5-4.64 1.5-1.26 1.01-2.23 2.46-2.92 4.37h-3.91v-5.81c2.55-1.05 4.88-1.82 7.02-2.29q3.195-.72 5.76-.72"/><text x="1826.53" y="2182.99" fill-opacity="0" font-family="Arial,Arial_MSFontService,sans-serif" font-size="38.572">2</text><path d="M2327.93 1878.917h-379.175v9.167h379.175Zm-374.592-18.333-45.833 22.916 45.833 22.917ZM1838.08 1957.5v76.47h-9.16v-76.47Zm18.34 71.88-22.92 45.84-22.92-45.84Zm-20.34-404.93 1.56 143.29-9.16.1-1.56-143.29Zm19.85 138.5-22.42 46.08-23.42-45.58Z"/><path fill="#d74514" d="M3471 918h433v325h-433z"/><text fill="#fff" font-family="Microsoft YaHei,Microsoft YaHei_MSFontService,sans-serif" font-size="83" font-weight="700" transform="translate(3606.26 1060)">DES<tspan x="-1.444" y="99">解</tspan><tspan x="81.056" y="99">密</tspan></text><path d="M3382.5 1075.92h48.12v9.16h-48.12Zm43.54-18.34 45.84 22.92-45.84 22.92Z"/><path fill-rule="evenodd" d="M3311.73 1054.55h16.21l-.45 1.99c-1.02.22-1.76.46-2.2.73-.45.27-.85.67-1.2 1.22-.35.54-.72 1.38-1.09 2.53-.38 1.15-.86 3.02-1.42 5.61l-2.88 12.93h1.34c1.13 0 2.17-.19 3.1-.57s2.02-1.07 3.26-2.06q1.86-1.5 5.94-5.52c2.71-2.67 4.64-4.7 5.79-6.1q1.725-2.085 2.52-3.6c.52-1.02.79-1.94.79-2.78 0-.67-.27-1.22-.81-1.64q-.825-.63-2.31-.75l.44-1.99h17.39l-.45 1.99c-1.08.16-2.3.72-3.67 1.68-1.36.96-3.45 2.83-6.26 5.61l-15.72 15.32 8.63 20.75c.89 2.14 1.63 3.68 2.21 4.62.58.95 1.28 1.7 2.09 2.25.81.56 1.81.93 2.99 1.12l-.44 1.98h-15.64l.44-1.98q2.19-.21 2.19-1.95 0-1.095-.45-2.49c-.29-.93-.64-1.9-1.05-2.9l-5.27-12.89q-.93-2.31-1.62-3.24c-.46-.62-.94-1.05-1.46-1.29-.51-.25-1.31-.37-2.39-.37h-2.27l-3.36 15.32c-.35 1.62-.58 2.9-.69 3.83s-.16 1.76-.16 2.49c0 1.22.3 2.08.91 2.58s1.63.8 3.06.91l-.45 1.98h-16.21l.45-1.98c1.02-.16 1.79-.43 2.31-.79.51-.37.94-.87 1.29-1.52.36-.65.68-1.44.98-2.37.29-.94.74-2.74 1.33-5.41l6.89-31.21c.6-2.7.9-4.88.9-6.52 0-1.27-.32-2.16-.96-2.66-.63-.5-1.64-.79-3.02-.87Z"/><text x="3301.11" y="1102.96" fill-opacity="0" font-family="Arial,Arial_MSFontService,sans-serif" font-size="55.32">𝐾</text><path fill="#fdefe8" d="M3573 1406h704v218h-704z"/><text fill="#d74514" font-family="Microsoft YaHei,Microsoft YaHei_MSFontService,sans-serif" font-size="83" font-weight="700" transform="translate(3621.76 1543)">丢弃</text><path fill="#d74514" fill-rule="evenodd" d="M3835.78 1514.05c-1.32 0-2.57.19-3.73.59-1.16.39-2.19.91-3.08 1.58q-1.335.99-1.8 1.62c-.31.42-.53 1.02-.67 1.8s-.2 2.16-.2 4.13c0 4.95.69 8.66 2.06 11.15 1.38 2.48 3.49 3.73 6.33 3.73 2.89 0 5.05-1.05 6.48-3.14 1.43-2.1 2.15-5.33 2.15-9.71 0-3.86-.64-6.79-1.93-8.77-1.28-1.99-3.15-2.98-5.61-2.98m46.97-14.23-13.86 20.87v.69h13.86v-9.28c0-3.89.14-7.98.41-12.28Zm2.88-12.89h9.12v34.45h1.26c1.32 0 2.25-.08 2.79-.26s1.01-.51 1.4-.99c.39-.49.76-1.35 1.12-2.6h4.25l-.49 8.96h-10.33v6.04c0 2.02.12 3.45.37 4.27.24.83.61 1.44 1.11 1.85.5.4 1.47.81 2.9 1.21v2.68h-20.71v-2.68c1.43-.38 2.41-.8 2.94-1.27.52-.48.89-1.1 1.09-1.89q.3-1.17.3-4.17v-6.04h-21.72v-4.38Zm-39.31-.36 2.19 2.8v2.51c-5.92.13-10.72 1.96-14.39 5.49-3.68 3.53-6.12 8.57-7.34 15.14l.41.16c2.11-1.46 4.23-2.53 6.36-3.2 2.14-.68 4.47-1.02 7.01-1.02 3.11 0 5.78.69 8.01 2.05 2.23 1.37 3.91 3.29 5.04 5.78 1.14 2.48 1.7 5.37 1.7 8.67 0 3.59-.75 6.76-2.26 9.5-1.52 2.75-3.85 4.89-7 6.43-3.14 1.54-7 2.31-11.57 2.31q-6.27 0-10.8-2.52c-3.01-1.67-5.31-4.14-6.91-7.41-1.59-3.27-2.39-7.24-2.39-11.92 0-6.32 1.33-12.03 3.99-17.14 2.67-5.11 6.44-9.21 11.33-12.32q7.335-4.665 16.62-5.31"/><text x="3814.38" y="1536.11" fill-opacity="0" font-family="Arial,Arial_MSFontService,sans-serif" font-size="56.617">𝟔𝟒</text><path fill="#d74514" fill-rule="evenodd" d="M3932.59 1516.11h49.93v5.39h-49.93Z"/><text x="3932.59" y="1520.83" fill-opacity="0" font-family="Arial,Arial_MSFontService,sans-serif" font-size="5.39">−</text><path fill="#d74514" fill-rule="evenodd" d="M4028.73 1501.89h4.62l-8.55 39.39c-1.46 6.73-3.84 11.64-7.15 14.73-3.31 3.1-7.82 4.64-13.52 4.64-1.27 0-2.55-.17-3.85-.52l1.09-4.42c.76.22 1.65.32 2.68.32 1.22 0 2.21-.17 2.98-.5.77-.34 1.46-.92 2.09-1.75.62-.82 1.2-2.03 1.74-3.62.54-1.6 1.13-3.84 1.78-6.73l6.57-29.18c.62-2.76.93-4.78.93-6.08q0-1.575-.75-2.25c-.5-.44-1.55-.75-3.14-.91l.61-2.68Zm-2.88-15.73h10.38l-2.11 9.93h-10.5Z"/><text x="4000.28" y="1551.34" fill-opacity="0" font-family="Arial,Arial_MSFontService,sans-serif" font-size="74.489">𝒋</text><text fill="#d74514" font-family="Microsoft YaHei,Microsoft YaHei_MSFontService,sans-serif" font-size="83" font-weight="700" transform="translate(4063.48 1543)">比特</text><path fill="#f8ccb9" d="M3112 1406h472v218h-472z"/><text fill="#d74514" font-family="Microsoft YaHei,Microsoft YaHei_MSFontService,sans-serif" font-size="83" font-weight="700" transform="translate(3184.3 1543)">选</text><path fill="#d74514" fill-rule="evenodd" d="M3311.68 1501.89h4.62l-8.55 39.39c-1.46 6.73-3.84 11.64-7.15 14.73-3.31 3.1-7.82 4.64-13.52 4.64-1.27 0-2.55-.17-3.85-.52l1.09-4.42c.76.22 1.65.32 2.68.32 1.22 0 2.21-.17 2.98-.5.77-.34 1.46-.92 2.09-1.75.62-.82 1.2-2.03 1.74-3.62.54-1.6 1.13-3.84 1.78-6.73l6.57-29.18c.62-2.76.93-4.78.93-6.08q0-1.575-.75-2.25c-.5-.44-1.55-.75-3.14-.91l.61-2.68Zm-2.88-15.73h10.38l-2.11 9.93h-10.5Z"/><text x="3283.23" y="1551.34" fill-opacity="0" font-family="Arial,Arial_MSFontService,sans-serif" font-size="74.489">𝒋</text><text fill="#d74514" font-family="Microsoft YaHei,Microsoft YaHei_MSFontService,sans-serif" font-size="83" font-weight="700" transform="translate(3346.43 1543)">比特</text><path fill="#fdefe8" d="M3844 496h433v218h-433z"/><path fill="#d74514" fill-rule="evenodd" d="M3971.67 593.983h4.62l-8.55 39.393c-1.46 6.727-3.85 11.638-7.16 14.731s-7.81 4.641-13.51 4.641c-1.27 0-2.56-.176-3.85-.527l1.09-4.418c.76.216 1.65.325 2.68.325 1.21 0 2.21-.169 2.98-.507s1.46-.919 2.08-1.743q.93-1.236 1.74-3.627c.55-1.594 1.14-3.837 1.79-6.727l6.56-29.18c.62-2.756.94-4.782.94-6.079q0-1.581-.75-2.249c-.5-.446-1.55-.75-3.14-.912l.6-2.675Zm-2.88-15.725h10.38l-2.11 9.93h-10.5Z"/><text x="3943.22" y="643.437" fill-opacity="0" font-family="Arial,Arial_MSFontService,sans-serif" font-size="74.489">𝒋</text><text fill="#d74514" font-family="Microsoft YaHei,Microsoft YaHei_MSFontService,sans-serif" font-size="83" font-weight="700" transform="translate(4006.42 635)">比特</text><path fill="#f8ccb9" d="M3112 496h732v218h-732z"/><path fill="#d74514" fill-rule="evenodd" d="M3295 606.141c-1.33 0-2.57.196-3.73.588s-2.19.919-3.08 1.58c-.89.662-1.49 1.203-1.81 1.622q-.465.628-.66 1.803-.21 1.175-.21 4.134 0 7.416 2.07 11.145c1.38 2.485 3.49 3.728 6.32 3.728 2.89 0 5.05-1.047 6.49-3.141 1.43-2.093 2.14-5.329 2.14-9.706q0-5.795-1.92-8.774t-5.61-2.979m46.97-14.225-13.86 20.872v.689h13.86v-9.281c0-3.891.14-7.984.41-12.28Zm2.88-12.888h9.12v34.449h1.25c1.33 0 2.26-.088 2.8-.264.54-.175 1.01-.506 1.4-.993q.585-.73 1.11-2.593h4.26l-.49 8.956h-10.33v6.039q0 3.039.36 4.275c.24.824.62 1.439 1.12 1.844.5.406 1.46.811 2.89 1.216v2.675h-20.71v-2.675q2.16-.567 2.94-1.276c.53-.473.89-1.101 1.1-1.885q.3-1.175.3-4.174v-6.039h-21.72v-4.377Zm-39.32-.364 2.19 2.796v2.513c-5.91.135-10.71 1.965-14.39 5.491-3.67 3.526-6.11 8.572-7.33 15.137l.4.162c2.11-1.459 4.23-2.526 6.37-3.201 2.13-.676 4.47-1.014 7.01-1.014 3.11 0 5.77.683 8 2.047s3.91 3.29 5.05 5.775c1.13 2.486 1.7 5.377 1.7 8.673 0 3.594-.76 6.761-2.27 9.504q-2.265 4.113-6.99 6.423c-3.15 1.54-7 2.31-11.57 2.31q-6.285 0-10.8-2.512c-3.01-1.675-5.32-4.148-6.91-7.417s-2.39-7.241-2.39-11.915q0-9.483 3.99-17.143c2.66-5.106 6.44-9.213 11.33-12.32s10.43-4.877 16.61-5.309"/><text x="3273.6" y="628.203" fill-opacity="0" font-family="Arial,Arial_MSFontService,sans-serif" font-size="56.617">𝟔𝟒</text><path fill="#d74514" fill-rule="evenodd" d="M3391.81 608.208h49.93v5.39h-49.93Z"/><text x="3391.81" y="612.924" fill-opacity="0" font-family="Arial,Arial_MSFontService,sans-serif" font-size="5.39">−</text><path fill="#d74514" fill-rule="evenodd" d="M3487.95 593.983h4.62l-8.55 39.393c-1.46 6.727-3.85 11.638-7.16 14.731s-7.81 4.641-13.51 4.641c-1.27 0-2.56-.176-3.85-.527l1.09-4.418c.76.216 1.65.325 2.68.325q1.815 0 2.97-.507c.77-.338 1.47-.919 2.09-1.743q.93-1.236 1.74-3.627c.54-1.594 1.14-3.837 1.79-6.727l6.56-29.18q.93-4.134.93-6.079 0-1.581-.75-2.249c-.5-.446-1.54-.75-3.14-.912l.61-2.675Zm-2.88-15.725h10.37l-2.1 9.93h-10.5Z"/><text x="3459.5" y="643.437" fill-opacity="0" font-family="Arial,Arial_MSFontService,sans-serif" font-size="74.489">𝒋</text><text fill="#d74514" font-family="Microsoft YaHei,Microsoft YaHei_MSFontService,sans-serif" font-size="83" font-weight="700" transform="translate(3522.7 635)">比特</text><path d="M3692.08 714.5v162.042h-9.16V714.5Zm18.34 157.459-22.92 45.833-22.92-45.833Zm-18.34 371.541v121.46h-9.16V1243.5Zm18.34 116.87-22.92 45.84-22.92-45.84Z"/><path fill="none" stroke="#d74514" stroke-miterlimit="8" stroke-width="9.167" d="M3276.5 1883.5c0-40.87 33.13-74 74-74s74 33.13 74 74-33.13 74-74 74-74-33.13-74-74Zm148.13 0h-148.129m73.999 74.13v-148.129"/><path fill-rule="evenodd" d="M3874.67 1856.4c2.46 0 4.74.15 6.83.45q3.15.45 6.99 1.62l-2.43 10.98h-3.89c-.21-3.32-.94-5.72-2.17-7.19s-3.21-2.21-5.93-2.21c-3.73 0-7.2 1.86-10.4 5.59s-5.73 8.66-7.6 14.78q-2.79 9.18-2.79 17.04c0 4.1.72 7.13 2.18 9.08 1.46 1.94 3.71 2.91 6.73 2.91 2.03 0 3.8-.3 5.31-.91s2.93-1.63 4.26-3.08q1.98-2.16 3.93-6.06h3.89l-2.47 11.51c-5.06 1.41-10.35 2.11-15.89 2.11-5.08 0-8.94-1.46-11.59-4.38s-3.97-7.18-3.97-12.8c0-3.98.71-8.56 2.12-13.74 1.42-5.19 3.43-9.74 6.02-13.66 2.6-3.92 5.66-6.9 9.2-8.96 3.54-2.05 7.43-3.08 11.67-3.08"/><text x="3845.66" y="1905.94" fill-opacity="0" font-family="Arial,Arial_MSFontService,sans-serif" font-size="56.617">𝐶</text><path fill-rule="evenodd" d="M3893.88 1890.58h11.38l3.9 26.87 17.19-26.87h9.95l-.36 1.79c-.66.18-1.18.34-1.58.48s-.73.41-1.01.82q-.42.6-.78 1.86c-.23.83-.53 2.03-.89 3.6l-4.85 21.78c-.2.97-.35 1.76-.45 2.36-.1.61-.15 1.18-.15 1.72 0 .83.24 1.42.71 1.77.48.35 1.31.56 2.48.64l-.42 1.82h-12.66l.39-1.82c.63-.12 1.13-.26 1.47-.42.35-.16.62-.37.82-.62.22-.2.45-.63.7-1.3s.51-1.48.79-2.46c.28-.97.56-2.06.84-3.26.27-1.2.56-2.46.86-3.77s.58-2.63.86-3.97.56-2.63.84-3.86a96 96 0 0 1 1.23-5.48q.375-1.455.72-2.73c.23-.84.43-1.49.61-1.95h-.42l-17.48 27.29h-3.46l-4.23-28.21h-.5c-.2 1.27-.47 2.86-.81 4.78s-.77 4.17-1.31 6.75c-.22.91-.45 1.88-.68 2.92q-.36 1.545-.75 3.18c-.26 1.09-.51 2.18-.76 3.25s-.46 2.08-.65 3.02c-.19.95-.34 1.8-.45 2.58-.11.77-.16 1.39-.16 1.85 0 .83.23 1.42.71 1.77s1.29.56 2.44.64l-.32 1.82h-11.11l.38-1.82c.58-.1 1.07-.22 1.46-.34.4-.13.75-.41 1.06-.82.31-.42.6-1.06.86-1.91.27-.85.57-2.07.91-3.66l4.89-21.72c.18-.79.31-1.53.4-2.22.09-.68.13-1.29.13-1.83 0-.87-.22-1.49-.68-1.86s-1.29-.56-2.5-.58Z"/><text x="3886.53" y="1924.39" fill-opacity="0" font-family="Arial,Arial_MSFontService,sans-serif" font-size="38.631">𝑀</text><path fill-rule="evenodd" d="M3317.61 2119.22c-1.67 0-3.43.04-5.27.12l-5.51 24.56h4.22q4.905 0 7.92-1.02c2.01-.67 3.66-1.72 4.94-3.14 1.29-1.41 2.28-3.1 2.98-5.04.7-1.95 1.06-4.08 1.06-6.41 0-3.13-.8-5.43-2.4-6.88-1.59-1.46-4.24-2.19-7.94-2.19m-16.98-3.57h17.87c3.22 0 5.86.25 7.93.75 2.06.5 3.77 1.27 5.1 2.31a9.55 9.55 0 0 1 3 3.95q.99 2.4.99 5.55c0 4.06-.95 7.57-2.87 10.54q-2.88 4.455-7.8 6.57-4.935 2.1-11.82 2.1c-2.75 0-5.05-.05-6.89-.16l-2.59 11.92c-.24 1.1-.41 1.96-.51 2.55-.09.59-.17 1.24-.24 1.92-.07.69-.1 1.31-.1 1.85 0 .84.13 1.49.4 1.96.27.48.68.82 1.22 1.04.54.21 1.47.38 2.79.48l-.44 1.99h-16.66l.45-1.99c1.02-.16 1.79-.42 2.31-.79.51-.36.94-.87 1.29-1.52.36-.64.68-1.43.98-2.37.29-.93.74-2.73 1.34-5.41l6.88-31.2c.6-2.71.9-4.84.9-6.41 0-1.32-.31-2.24-.94-2.75-.62-.52-1.63-.81-3.04-.89Z"/><text x="3290.01" y="2164.05" fill-opacity="0" font-family="Arial,Arial_MSFontService,sans-serif" font-size="55.32">𝑃</text><path fill-rule="evenodd" d="M3339.09 2149.18h11.37l3.91 26.87 17.18-26.87h9.95l-.36 1.79c-.65.18-1.18.34-1.58.48-.39.13-.73.41-1.01.82-.28.4-.53 1.02-.77 1.86q-.36 1.245-.9 3.6l-4.85 21.77q-.3 1.47-.45 2.37-.15.915-.15 1.71c0 .84.24 1.43.72 1.78.47.34 1.3.56 2.47.64l-.42 1.81h-12.66l.39-1.81c.64-.12 1.13-.26 1.48-.42.34-.16.62-.37.81-.63.22-.19.46-.63.7-1.29.25-.67.52-1.49.79-2.46.28-.97.56-2.06.84-3.26s.56-2.46.86-3.77.59-2.63.87-3.97c.27-1.34.55-2.63.83-3.86q.21-1.08.54-2.55c.21-.98.45-1.96.7-2.93.24-.97.48-1.88.71-2.73.23-.84.43-1.49.61-1.95h-.42l-17.48 27.29h-3.45l-4.23-28.21h-.51c-.2 1.27-.47 2.86-.8 4.78-.34 1.92-.78 4.16-1.32 6.75-.21.91-.44 1.88-.68 2.91-.24 1.04-.49 2.1-.75 3.19-.25 1.09-.51 2.18-.75 3.25-.25 1.07-.47 2.08-.66 3.02q-.285 1.41-.45 2.58c-.11.77-.16 1.39-.16 1.84 0 .84.24 1.43.71 1.78.48.34 1.3.56 2.45.64l-.33 1.81h-11.11l.39-1.81c.57-.1 1.06-.22 1.46-.35.39-.12.75-.4 1.05-.81.31-.42.6-1.06.87-1.91s.57-2.08.91-3.66l4.88-21.72c.18-.79.31-1.53.4-2.22.09-.68.14-1.29.14-1.83q0-1.305-.69-1.86c-.46-.37-1.29-.56-2.5-.58Z"/><text x="3331.73" y="2182.98" fill-opacity="0" font-family="Arial,Arial_MSFontService,sans-serif" font-size="38.631">𝑀</text><path d="M3844.93 1878.917h-379.175v9.167h379.175Zm-374.592-18.333-45.833 22.916 45.833 22.917ZM3355.08 1957.5v76.47h-9.16v-76.47Zm18.34 71.88-22.92 45.84-22.92-45.84Zm-20.34-404.93 1.56 143.29-9.16.1-1.56-143.29Zm19.85 138.5-22.42 46.08-23.42-45.58ZM480.083 1624.88v82.5l-4.583-4.59h1044.02l-4.58 4.59V409.421h1033.74v45.829h-9.16v-41.245l4.58 4.583H1519.52l4.59-4.583V1711.96H470.917v-87.08ZM2567.02 450.667 2544.1 496.5l-22.92-45.833Z"/><path fill="#d74514" d="M2416.02 460.917h-590.27v9.167h590.27Zm-585.686-18.333-45.833 22.916 45.833 22.917Zm2102.686 14.333h-590.27v9.167h590.27Zm-585.686-18.333-45.833 22.916 45.833 22.917Z"/><path fill-rule="evenodd" d="M2950.67 380.23c2.46 0 4.73.148 6.83.445q3.135.447 6.99 1.621l-2.43 10.983h-3.89c-.22-3.323-.94-5.721-2.17-7.193q-1.845-2.21-5.94-2.209c-3.73 0-7.19 1.864-10.39 5.593s-5.74 8.652-7.6 14.772c-1.87 6.12-2.8 11.8-2.8 17.042q0 6.16 2.19 9.078c1.46 1.945 3.7 2.918 6.73 2.918q3.03 0 5.31-.912c1.51-.608 2.93-1.635 4.25-3.08q1.995-2.169 3.93-6.059h3.89l-2.47 11.51c-5.05 1.405-10.35 2.107-15.89 2.107-5.07 0-8.94-1.459-11.59-4.377-2.64-2.918-3.97-7.187-3.97-12.806q0-5.958 2.13-13.739c1.42-5.188 3.42-9.74 6.02-13.658 2.59-3.917 5.66-6.903 9.2-8.956q5.31-3.08 11.67-3.08"/><text x="2921.65" y="429.769" fill-opacity="0" font-family="Arial,Arial_MSFontService,sans-serif" font-size="56.617">𝐶</text><path fill-rule="evenodd" d="M2969.88 414.41h11.38l3.9 26.866 17.19-26.866h9.94l-.35 1.787c-.66.179-1.19.338-1.58.477q-.6.208-1.02.819c-.27.407-.53 1.028-.77 1.862s-.54 2.035-.89 3.604l-4.86 21.772c-.2.973-.35 1.763-.44 2.368q-.15.909-.15 1.713c0 .834.23 1.425.71 1.772.48.348 1.3.561 2.47.641l-.41 1.817h-12.66l.38-1.817c.64-.12 1.13-.259 1.48-.417.35-.159.62-.368.82-.626.22-.198.45-.63.7-1.295.25-.666.51-1.485.79-2.458s.55-2.06.83-3.261q.42-1.803.87-3.768c.29-1.311.58-2.636.86-3.976.28-1.341.55-2.626.83-3.858q.21-1.071.54-2.546c.22-.983.45-1.961.7-2.934s.49-1.881.71-2.725c.23-.844.44-1.495.61-1.951h-.41l-17.49 27.283h-3.45l-4.23-28.207h-.51c-.2 1.271-.46 2.865-.8 4.781s-.78 4.165-1.31 6.746q-.33 1.371-.69 2.919c-.24 1.033-.48 2.095-.74 3.187s-.51 2.174-.76 3.247q-.375 1.608-.66 3.023c-.19.943-.33 1.802-.44 2.576-.11.775-.17 1.39-.17 1.847q0 1.251.72 1.772c.47.348 1.29.561 2.44.641l-.33 1.817h-11.11l.39-1.817c.58-.1 1.06-.214 1.46-.343s.75-.402 1.06-.819c.3-.417.59-1.052.86-1.906s.57-2.075.91-3.664l4.88-21.713c.18-.794.32-1.534.41-2.219s.13-1.296.13-1.832q0-1.31-.69-1.862c-.45-.367-1.29-.56-2.5-.58Z"/><text x="2962.52" y="448.213" fill-opacity="0" font-family="Arial,Arial_MSFontService,sans-serif" font-size="38.631">𝑀</text><path fill-rule="evenodd" d="M3019.83 433.324h34.31v4.557h-34.31Z"/><text x="3019.83" y="437.311" fill-opacity="0" font-family="Arial,Arial_MSFontService,sans-serif" font-size="4.557">−</text><path fill-rule="evenodd" d="M3078.44 414.678h1.81c-.03 1.092-.06 2.07-.08 2.934s-.04 1.703-.05 2.517-.01 1.618-.01 2.413v22.636q0 .924.06 1.594c.04.447.1.824.19 1.132q.135.46.36.789c.15.218.32.407.52.566.24.238.55.422.95.551s.9.238 1.52.327q.93.135 2.22.209c.86.05 1.9.084 3.11.104v2.592h-23.62v-2.592c1.17-.039 2.17-.084 2.98-.134.81-.049 1.51-.119 2.09-.208q.855-.135 1.38-.298c.35-.109.65-.243.91-.402.28-.179.52-.373.71-.581q.3-.313.48-.789c.12-.318.21-.705.28-1.162s.11-1.023.11-1.698v-21.356q0-1.161-.45-1.638c-.3-.318-.72-.476-1.28-.476-.62 0-1.53.317-2.74.953q-1.815.952-4.71 2.829c-.25-.456-.49-.913-.71-1.37q-.33-.685-.69-1.4c2.47-1.35 4.9-2.695 7.32-4.036 2.41-1.34 4.86-2.675 7.34-4.006"/><text x="3063.78" y="448.246" fill-opacity="0" font-family="Arial,Arial_MSFontService,sans-serif" font-size="38.363">1</text><path d="M3112.5 402.917h952.91v52.526h-9.16V407.5l4.58 4.583H3112.5Zm971.25 47.942-22.92 45.834-22.92-45.834Z"/><path fill-rule="evenodd" d="M2958.29 1515.6c1.4 0 2.58.49 3.52 1.47.95.99 1.42 2.24 1.42 3.75 0 1.52-.47 2.77-1.42 3.75-.94.99-2.12 1.48-3.52 1.48-1.41 0-2.58-.49-3.53-1.48-.95-.98-1.42-2.23-1.42-3.75 0-1.51.47-2.76 1.42-3.75.95-.98 2.12-1.47 3.53-1.47m-24.56 0c1.4 0 2.58.49 3.52 1.47.95.99 1.42 2.24 1.42 3.75 0 1.52-.47 2.77-1.42 3.75-.94.99-2.12 1.48-3.52 1.48-1.41 0-2.58-.49-3.53-1.48-.95-.98-1.42-2.23-1.42-3.75 0-1.51.47-2.76 1.42-3.75.95-.98 2.12-1.47 3.53-1.47m-24.56 0c1.4 0 2.58.49 3.52 1.47.95.99 1.42 2.24 1.42 3.75 0 1.52-.47 2.77-1.42 3.75-.94.99-2.12 1.48-3.52 1.48-1.41 0-2.58-.49-3.53-1.48-.94-.98-1.42-2.23-1.42-3.75 0-1.51.48-2.76 1.42-3.75.95-.98 2.12-1.47 3.53-1.47"/><text x="2904.22" y="1524.74" fill-opacity="0" font-family="Arial,Arial_MSFontService,sans-serif" font-size="10.456">⋯</text></g></svg>