<svg width="2281" height="2549" xmlns="http://www.w3.org/2000/svg" xmlns:xlink="http://www.w3.org/1999/xlink" overflow="hidden"><defs><clipPath id="clip0"><rect x="2674" y="128" width="2281" height="2549"/></clipPath></defs><g clip-path="url(#clip0)" transform="translate(-2674 -128)"><path d="M1.42571e-06-4.58333 1118.94-4.58298 1118.94 4.58368-1.42571e-06 4.58333ZM1114.35-22.9163 1160.19 0.000360892 1114.35 22.917Z" fill="#5D1709" transform="matrix(-1 0 0 1 4692.69 582.5)"/><path d="M2.58248e-06-4.58333 599.254-4.583 599.254 4.58367-2.58248e-06 4.58333ZM594.67-22.9163 640.503 0.000360892 594.67 22.917Z" fill="#5D1709" transform="matrix(-1 0 0 1 4172 660.5)"/><path d="M2831.39 130.799 3360.95 130.799 3360.95 370.307 2831.39 370.307Z" fill="#D74514" fill-rule="evenodd"/><path d="M3360.95 130.799 3890.5 130.799 3890.5 370.307 3360.95 370.307Z" fill="#D74514" fill-rule="evenodd"/><path d="M3890.5 130.799 4420.05 130.799 4420.05 370.307 3890.5 370.307Z" fill="#D74514" fill-rule="evenodd"/><path d="M4420.05 130.799 4949.6 130.799 4949.6 370.307 4420.05 370.307Z" fill="#D74514" fill-rule="evenodd"/><path d="M3360.95 128.507 3360.95 372.599" stroke="#000000" stroke-width="4.58333" stroke-linejoin="round" stroke-miterlimit="10" fill="none" fill-rule="evenodd"/><path d="M3890.5 128.507 3890.5 372.599" stroke="#000000" stroke-width="4.58333" stroke-linejoin="round" stroke-miterlimit="10" fill="none" fill-rule="evenodd"/><path d="M4420.05 128.507 4420.05 372.599" stroke="#000000" stroke-width="4.58333" stroke-linejoin="round" stroke-miterlimit="10" fill="none" fill-rule="evenodd"/><path d="M2831.39 128.507 2831.39 372.599" stroke="#000000" stroke-width="4.58333" stroke-linejoin="round" stroke-miterlimit="10" fill="none" fill-rule="evenodd"/><path d="M4949.6 128.507 4949.6 372.599" stroke="#000000" stroke-width="4.58333" stroke-linejoin="round" stroke-miterlimit="10" fill="none" fill-rule="evenodd"/><path d="M2829.1 130.799 4951.89 130.799" stroke="#000000" stroke-width="4.58333" stroke-linejoin="round" stroke-miterlimit="10" fill="none" fill-rule="evenodd"/><path d="M2829.1 370.307 4951.89 370.307" stroke="#000000" stroke-width="4.58333" stroke-linejoin="round" stroke-miterlimit="10" fill="none" fill-rule="evenodd"/><text fill="#FFFFFF" font-family="DengXian,DengXian_MSFontService,sans-serif" font-weight="700" font-size="83" transform="matrix(1 0 0 1 3068.38 278)">A<tspan font-size="83" x="532.416" y="0">B</tspan><tspan font-size="83" x="1061.39" y="0">C</tspan><tspan font-size="83" x="1586.94" y="0">D</tspan></text><path d="M3299 660C3299 595.935 3350.94 544 3415 544 3479.06 544 3531 595.935 3531 660 3531 724.065 3479.06 776 3415 776 3350.94 776 3299 724.065 3299 660Z" fill="#F8CCB9" fill-rule="evenodd"/><path d="M3408.9 651.324C3406.15 651.324 3403.68 652.438 3401.49 654.667 3399.3 656.896 3397.58 659.902 3396.32 663.685 3395.06 667.467 3394.44 671.236 3394.44 674.992 3394.44 677.802 3394.84 679.902 3395.65 681.294 3396.46 682.685 3397.73 683.381 3399.46 683.381 3400.84 683.381 3402.21 682.908 3403.58 681.963 3404.94 681.017 3406.4 679.517 3407.95 677.464 3409.51 675.411 3410.71 673.452 3411.58 671.588 3412.44 669.723 3413.18 667.4 3413.79 664.617 3414.4 661.834 3414.7 659.416 3414.7 657.362 3414.7 655.255 3414.25 653.722 3413.36 652.763 3412.47 651.803 3410.98 651.324 3408.9 651.324ZM3408.26 648.122C3409.96 648.122 3411.57 648.325 3413.08 648.73 3414.59 649.135 3416.12 649.824 3417.66 650.797L3421.39 648.122 3423.98 648.771 3419.81 667.656C3419.51 668.98 3418.83 672.317 3417.78 677.667 3416.67 683.341 3415.77 687.353 3415.08 689.703 3414.4 692.054 3413.54 694.195 3412.51 696.127 3411.48 698.059 3410.16 699.741 3408.54 701.173 3406.92 702.604 3404.95 703.712 3402.64 704.496 3400.33 705.279 3397.6 705.671 3394.44 705.671 3384.22 705.671 3379.12 702.699 3379.12 696.755 3379.12 695.242 3379.58 693.864 3380.49 692.621 3381.41 691.378 3382.89 690.068 3384.91 688.69L3387.83 691.041C3387.32 691.662 3386.88 692.277 3386.53 692.885 3386.18 693.493 3385.93 694.08 3385.78 694.648 3385.64 695.215 3385.56 695.891 3385.56 696.674 3385.56 698.7 3386.29 700.18 3387.75 701.112 3389.21 702.044 3391.41 702.51 3394.36 702.51 3397.68 702.51 3400.35 701.76 3402.36 700.261 3404.37 698.761 3406.09 696.35 3407.53 693.027 3408.96 689.703 3410.35 684.678 3411.7 677.95L3411.13 677.829C3408.51 681.422 3406.08 684.043 3403.84 685.691 3401.6 687.339 3399.18 688.163 3396.58 688.163 3393.64 688.163 3391.35 687.056 3389.71 684.84 3388.08 682.625 3387.26 679.463 3387.26 675.357 3387.26 670.737 3388.17 666.299 3389.98 662.043 3391.79 657.788 3394.3 654.404 3397.52 651.891 3400.73 649.379 3404.31 648.122 3408.26 648.122Z" fill="#D74514" fill-rule="evenodd"/><text fill="#000000" fill-opacity="0" font-family="Arial,Arial_MSFontService,sans-serif" font-size="57.5488" x="3379.12" y="698.477">𝑔</text><path d="M2891 1659.5C2891 1595.16 2981.89 1543 3094 1543 3206.11 1543 3297 1595.16 3297 1659.5 3297 1723.84 3206.11 1776 3094 1776 2981.89 1776 2891 1723.84 2891 1659.5Z" fill="#FDEFE8" fill-rule="evenodd"/><path d="M3060.77 1631.75 3076.98 1631.75 3076.54 1633.74C3075.51 1633.96 3074.77 1634.2 3074.33 1634.47 3073.88 1634.74 3073.48 1635.15 3073.13 1635.69 3072.78 1636.23 3072.42 1637.07 3072.04 1638.22 3071.66 1639.37 3071.19 1641.24 3070.62 1643.83L3061.95 1683.35 3071.92 1683.35C3073.73 1683.35 3075.15 1683.17 3076.19 1682.82 3077.23 1682.47 3078.22 1681.83 3079.15 1680.89 3080.08 1679.96 3081 1678.7 3081.89 1677.1 3082.78 1675.51 3083.68 1673.52 3084.6 1671.15L3088.53 1671.15 3084.44 1687.07 3050.15 1687.07 3050.6 1685.09C3051.63 1684.93 3052.4 1684.66 3052.91 1684.3 3053.42 1683.93 3053.86 1683.43 3054.21 1682.78 3054.56 1682.13 3054.88 1681.34 3055.18 1680.41 3055.48 1679.48 3055.92 1677.67 3056.52 1675L3063.41 1643.79C3064 1641.09 3064.3 1638.91 3064.3 1637.27 3064.3 1636 3063.98 1635.11 3063.35 1634.61 3062.71 1634.11 3061.7 1633.82 3060.33 1633.74ZM3120.62 1631.11C3123.1 1631.11 3125.41 1631.27 3127.53 1631.61 3129.65 1631.95 3131.99 1632.52 3134.56 1633.33L3132.29 1643.75 3128.4 1643.75C3128.29 1641.45 3127.94 1639.65 3127.35 1638.34 3126.75 1637.03 3125.9 1636.09 3124.79 1635.52 3123.69 1634.96 3122.21 1634.67 3120.38 1634.67 3118.13 1634.67 3116.16 1635.13 3114.46 1636.05 3112.76 1636.97 3111.46 1638.22 3110.57 1639.8 3109.68 1641.38 3109.23 1643.14 3109.23 1645.09 3109.23 1647.11 3109.76 1648.89 3110.83 1650.42 3111.9 1651.94 3113.95 1653.75 3116.97 1655.83 3119.62 1657.66 3121.64 1659.31 3123.03 1660.75 3124.42 1662.2 3125.45 1663.73 3126.11 1665.35 3126.77 1666.97 3127.1 1668.85 3127.1 1670.98 3127.1 1674.28 3126.31 1677.21 3124.73 1679.76 3123.15 1682.31 3120.92 1684.28 3118.05 1685.68 3115.17 1687.07 3111.89 1687.76 3108.22 1687.76 3105.73 1687.76 3103.05 1687.56 3100.17 1687.16 3097.3 1686.75 3094.72 1686.24 3092.45 1685.62L3094.88 1674.47 3098.77 1674.47C3098.77 1677.77 3099.54 1680.22 3101.06 1681.83 3102.59 1683.43 3104.95 1684.24 3108.14 1684.24 3111.81 1684.24 3114.7 1683.24 3116.81 1681.24 3118.92 1679.24 3119.97 1676.46 3119.97 1672.89 3119.97 1671.24 3119.68 1669.79 3119.1 1668.53 3118.52 1667.28 3117.64 1666.07 3116.46 1664.93 3115.29 1663.78 3113.59 1662.46 3111.38 1660.97 3109.38 1659.62 3107.72 1658.29 3106.39 1656.98 3105.07 1655.67 3104.02 1654.21 3103.23 1652.59 3102.45 1650.96 3102.06 1649.15 3102.06 1647.15 3102.06 1643.97 3102.83 1641.16 3104.37 1638.73 3105.91 1636.29 3108.08 1634.42 3110.89 1633.09 3113.7 1631.77 3116.94 1631.11 3120.62 1631.11ZM3033.33 1631.11C3035.79 1631.11 3038.07 1631.25 3040.16 1631.55 3042.26 1631.85 3044.59 1632.39 3047.15 1633.17L3044.72 1644.16 3040.83 1644.16C3040.61 1640.83 3039.89 1638.43 3038.66 1636.96 3037.43 1635.49 3035.45 1634.75 3032.73 1634.75 3029 1634.75 3025.53 1636.62 3022.33 1640.35 3019.13 1644.07 3016.6 1649 3014.73 1655.12 3012.87 1661.24 3011.93 1666.92 3011.93 1672.16 3011.93 1676.27 3012.66 1679.29 3014.12 1681.24 3015.58 1683.18 3017.82 1684.16 3020.85 1684.16 3022.88 1684.16 3024.65 1683.85 3026.16 1683.24 3027.67 1682.64 3029.09 1681.61 3030.42 1680.16 3031.74 1678.72 3033.05 1676.7 3034.35 1674.11L3038.24 1674.11 3035.76 1685.62C3030.71 1687.02 3025.42 1687.72 3019.88 1687.72 3014.8 1687.72 3010.93 1686.26 3008.29 1683.35 3005.64 1680.43 3004.32 1676.16 3004.32 1670.54 3004.32 1666.57 3005.02 1661.99 3006.44 1656.8 3007.86 1651.61 3009.87 1647.06 3012.46 1643.14 3015.06 1639.22 3018.12 1636.24 3021.66 1634.19 3025.2 1632.13 3029.09 1631.11 3033.33 1631.11Z" fill="#D74514" fill-rule="evenodd"/><text fill="#000000" fill-opacity="0" font-family="Arial,Arial_MSFontService,sans-serif" font-size="56.6572" x="3004.32" y="1680.68">𝐶𝐿𝑆</text><path d="M3151.88 1664.72C3153.77 1664.72 3155.58 1664.86 3157.32 1665.15 3159.06 1665.44 3160.88 1665.9 3162.79 1666.54L3161.09 1674.1 3157.84 1674.1C3157.78 1672.99 3157.61 1672.03 3157.32 1671.23 3157.03 1670.42 3156.63 1669.77 3156.11 1669.26 3155.6 1668.76 3154.94 1668.38 3154.15 1668.13 3153.35 1667.88 3152.41 1667.76 3151.32 1667.76 3150.15 1667.76 3149.08 1667.92 3148.13 1668.24 3147.18 1668.55 3146.36 1669 3145.69 1669.59 3145.01 1670.18 3144.49 1670.88 3144.12 1671.71 3143.76 1672.53 3143.57 1673.43 3143.57 1674.4 3143.57 1675.14 3143.66 1675.81 3143.84 1676.43 3144.02 1677.04 3144.33 1677.64 3144.77 1678.21 3145.2 1678.79 3145.8 1679.38 3146.57 1679.97 3147.33 1680.57 3148.3 1681.22 3149.47 1681.94 3150.9 1682.83 3152.13 1683.67 3153.15 1684.47 3154.17 1685.26 3155.01 1686.09 3155.65 1686.94 3156.3 1687.79 3156.77 1688.7 3157.07 1689.67 3157.36 1690.63 3157.51 1691.71 3157.51 1692.9 3157.51 1694.62 3157.17 1696.2 3156.49 1697.63 3155.8 1699.06 3154.83 1700.29 3153.57 1701.33 3152.31 1702.36 3150.8 1703.16 3149.04 1703.72 3147.28 1704.29 3145.32 1704.57 3143.16 1704.57 3141.33 1704.57 3139.36 1704.42 3137.26 1704.11 3135.15 1703.8 3133.08 1703.35 3131.03 1702.76L3132.79 1694.71 3135.95 1694.71C3136.01 1697.1 3136.64 1698.82 3137.85 1699.9 3139.07 1700.97 3140.93 1701.51 3143.45 1701.51 3144.75 1701.51 3145.91 1701.34 3146.94 1701 3147.97 1700.66 3148.85 1700.17 3149.56 1699.54 3150.28 1698.9 3150.82 1698.13 3151.2 1697.22 3151.58 1696.3 3151.76 1695.28 3151.76 1694.15 3151.76 1693.35 3151.67 1692.63 3151.47 1691.99 3151.27 1691.34 3150.92 1690.7 3150.42 1690.07 3149.93 1689.43 3149.26 1688.79 3148.41 1688.13 3147.57 1687.48 3146.52 1686.76 3145.27 1685.99 3144.02 1685.21 3142.93 1684.44 3142.01 1683.68 3141.09 1682.91 3140.32 1682.12 3139.7 1681.3 3139.09 1680.47 3138.62 1679.61 3138.32 1678.72 3138.01 1677.83 3137.85 1676.87 3137.85 1675.86 3137.85 1674.19 3138.18 1672.68 3138.84 1671.32 3139.49 1669.96 3140.43 1668.79 3141.65 1667.8 3142.87 1666.82 3144.35 1666.06 3146.09 1665.52 3147.83 1664.99 3149.76 1664.72 3151.88 1664.72Z" fill="#D74514" fill-rule="evenodd"/><text fill="#000000" fill-opacity="0" font-family="Arial,Arial_MSFontService,sans-serif" font-size="39.8525" x="3131.03" y="1699.59">𝑆</text><path d="M4.58333-8.82405e-06 4.58361 146.203-4.58305 146.203-4.58333 8.82405e-06ZM22.9169 141.619 0.000360892 187.453-22.9164 141.619Z" fill="#5D1709" transform="matrix(-1 0 0 1 3091.5 733.5)"/><path d="M4.58333-8.78948e-06 4.58362 146.94-4.58305 146.94-4.58333 8.78948e-06ZM22.9169 142.356 0.000360892 188.19-22.9164 142.357Z" fill="#5D1709" transform="matrix(-1 0 0 1 3091.5 1068.5)"/><path d="M3096.08 1405.4 3098.13 1502.64 3088.97 1502.83 3086.92 1405.6ZM3116.36 1497.67 3094.42 1543.97 3070.54 1498.63Z" fill="#5D1709"/><path d="M4.58333-2.35137e-05 4.58384 99.4417-4.58282 99.4418-4.58333 2.35137e-05ZM22.9172 94.8583 0.000721785 140.692-22.9162 94.8585Z" fill="#5D1709" transform="matrix(-1 0 0 1 3094.5 1776.5)"/><path d="M3299.55 665.349 3207.7 664.476 3207.79 655.309 3299.64 656.183ZM3212.11 682.852 3166.5 659.5 3212.55 637.021Z" fill="#5D1709"/><path d="M4.58291-0.0623878 6.94032 173.109-2.2255 173.234-4.58291 0.0623878ZM25.2096 168.277 2.9189 214.418-20.6195 168.901Z" fill="#5D1709" transform="matrix(-1 0 0 1 3094.42 370.5)"/><path d="M2831.39 2432.75 3360.95 2432.75 3360.95 2672.25 2831.39 2672.25Z" fill="#D74514" fill-rule="evenodd"/><path d="M3360.95 2432.75 3890.5 2432.75 3890.5 2672.25 3360.95 2672.25Z" fill="#D74514" fill-rule="evenodd"/><path d="M3890.5 2432.75 4420.05 2432.75 4420.05 2672.25 3890.5 2672.25Z" fill="#D74514" fill-rule="evenodd"/><path d="M4420.05 2432.75 4949.6 2432.75 4949.6 2672.25 4420.05 2672.25Z" fill="#D74514" fill-rule="evenodd"/><path d="M3360.95 2430.45 3360.95 2674.55" stroke="#000000" stroke-width="4.58333" stroke-linejoin="round" stroke-miterlimit="10" fill="none" fill-rule="evenodd"/><path d="M3890.5 2430.45 3890.5 2674.55" stroke="#000000" stroke-width="4.58333" stroke-linejoin="round" stroke-miterlimit="10" fill="none" fill-rule="evenodd"/><path d="M4420.05 2430.45 4420.05 2674.55" stroke="#000000" stroke-width="4.58333" stroke-linejoin="round" stroke-miterlimit="10" fill="none" fill-rule="evenodd"/><path d="M2831.39 2430.45 2831.39 2674.55" stroke="#000000" stroke-width="4.58333" stroke-linejoin="round" stroke-miterlimit="10" fill="none" fill-rule="evenodd"/><path d="M4949.6 2430.45 4949.6 2674.55" stroke="#000000" stroke-width="4.58333" stroke-linejoin="round" stroke-miterlimit="10" fill="none" fill-rule="evenodd"/><path d="M2829.1 2432.75 4951.89 2432.75" stroke="#000000" stroke-width="4.58333" stroke-linejoin="round" stroke-miterlimit="10" fill="none" fill-rule="evenodd"/><path d="M2829.1 2672.25 4951.89 2672.25" stroke="#000000" stroke-width="4.58333" stroke-linejoin="round" stroke-miterlimit="10" fill="none" fill-rule="evenodd"/><text fill="#FFFFFF" font-family="DengXian,DengXian_MSFontService,sans-serif" font-weight="700" font-size="83" transform="matrix(1 0 0 1 3068.38 2580)">A<tspan font-size="83" x="532.416" y="0">B</tspan><tspan font-size="83" x="1061.39" y="0">C</tspan><tspan font-size="83" x="1586.94" y="0">D</tspan></text><path d="M3094.5 2065.5 3094.5 2188.53" stroke="#5D1709" stroke-width="9.16667" stroke-miterlimit="8" fill="none" fill-rule="evenodd"/><path d="M3636.5 370.5 3636.5 2187.97" stroke="#5D1709" stroke-width="9.16667" stroke-miterlimit="8" fill="none" fill-rule="evenodd"/><path d="M4173.5 370.5 4173.5 2187.97" stroke="#5D1709" stroke-width="9.16667" stroke-miterlimit="8" fill="none" fill-rule="evenodd"/><path d="M4694.5 370.5 4694.5 2187.97" stroke="#5D1709" stroke-width="9.16667" stroke-miterlimit="8" fill="none" fill-rule="evenodd"/><path d="M3094.5 2188.5 3644.5 2332.99" stroke="#5D1709" stroke-width="9.16667" stroke-miterlimit="8" fill="none" fill-rule="evenodd"/><path d="M3649.08 2332.5 3649.08 2391.73 3639.92 2391.73 3639.92 2332.5ZM3667.42 2387.15 3644.5 2432.98 3621.58 2387.15Z" fill="#5D1709"/><path d="M3099.08 2332.5 3099.08 2391.73 3089.92 2391.73 3089.92 2332.5ZM3117.42 2387.15 3094.5 2432.98 3071.58 2387.15Z" fill="#5D1709"/><path d="M4178.08 2332.5 4178.08 2391.73 4168.92 2391.73 4168.92 2332.5ZM4196.42 2387.15 4173.5 2432.98 4150.58 2387.15Z" fill="#5D1709"/><path d="M4699.08 2338.5 4699.08 2397.73 4689.92 2397.73 4689.92 2338.5ZM4717.42 2393.15 4694.5 2438.98 4671.58 2393.15Z" fill="#5D1709"/><path d="M3632.5 2188.5 4171.92 2332.99" stroke="#5D1709" stroke-width="9.16667" stroke-miterlimit="8" fill="none" fill-rule="evenodd"/><path d="M4172.5 2188.5 4694.3 2332.99" stroke="#5D1709" stroke-width="9.16667" stroke-miterlimit="8" fill="none" fill-rule="evenodd"/><path d="M0 0 1597.82 142.422" stroke="#5D1709" stroke-width="9.16667" stroke-miterlimit="8" fill="none" fill-rule="evenodd" transform="matrix(-1 0 0 1 4692.32 2188.5)"/><path d="M3626.5 370.5 3626.5 2187.97" stroke="#FFFFFF" stroke-width="9.16667" stroke-miterlimit="8" fill="none" fill-rule="evenodd"/><path d="M3645.5 370.5 3645.5 2187.97" stroke="#FFFFFF" stroke-width="9.16667" stroke-miterlimit="8" fill="none" fill-rule="evenodd"/><path d="M4164.5 370.5 4164.5 2187.97" stroke="#FFFFFF" stroke-width="9.16667" stroke-miterlimit="8" fill="none" fill-rule="evenodd"/><path d="M4183.5 370.5 4183.5 2187.97" stroke="#FFFFFF" stroke-width="9.16667" stroke-miterlimit="8" fill="none" fill-rule="evenodd"/><path d="M2686.35 965.408 2702.73 965.408 2702.28 967.394C2701.12 967.583 2700.19 967.982 2699.51 968.59 2698.82 969.197 2698.47 970.082 2698.47 971.244 2698.47 972.973 2698.92 975.148 2699.81 977.769L2703.17 987.577 2710.67 978.093C2711.83 976.634 2712.74 975.439 2713.39 974.507 2714.03 973.574 2714.5 972.75 2714.78 972.034 2715.07 971.318 2715.21 970.69 2715.21 970.15 2715.21 969.42 2714.99 968.799 2714.56 968.286 2714.13 967.772 2713.39 967.475 2712.33 967.394L2712.78 965.408 2727.9 965.408 2727.45 967.394C2726.64 967.637 2725.88 968.029 2725.16 968.569 2724.44 969.11 2723.59 969.92 2722.61 971.001 2721.62 972.082 2719.79 974.216 2717.11 977.404L2705.04 991.832 2710.95 1008.29C2711.85 1010.77 2712.58 1012.67 2713.14 1013.98 2713.71 1015.29 2714.21 1016.26 2714.64 1016.88 2714.99 1017.34 2715.36 1017.7 2715.74 1017.95 2716.12 1018.21 2716.75 1018.47 2717.64 1018.74L2717.24 1020.73 2700.86 1020.73 2701.27 1018.74C2702.51 1018.55 2703.46 1018.13 2704.13 1017.47 2704.79 1016.8 2705.12 1015.95 2705.12 1014.89 2705.12 1013.3 2704.79 1011.53 2704.15 1009.58L2699.93 997.222 2690.69 1008.77C2689.31 1010.5 2688.31 1011.91 2687.69 1013.01 2687.07 1014.1 2686.76 1015.04 2686.76 1015.82 2686.76 1016.88 2687.01 1017.6 2687.51 1017.99 2688.01 1018.38 2688.72 1018.63 2689.64 1018.74L2689.19 1020.73 2674.12 1020.73 2674.52 1018.74C2675.36 1018.47 2676.12 1018.08 2676.81 1017.57 2677.5 1017.05 2678.39 1016.18 2679.49 1014.95 2680.58 1013.72 2682.49 1011.49 2685.22 1008.25L2698.07 992.967 2692.07 976.31C2691.07 973.527 2690.29 971.602 2689.72 970.535 2689.15 969.468 2688.59 968.718 2688.04 968.286 2687.48 967.853 2686.77 967.556 2685.91 967.394Z" fill="#D74514" fill-rule="evenodd"/><text fill="#000000" fill-opacity="0" font-family="Arial,Arial_MSFontService,sans-serif" font-size="55.3198" x="2674.12" y="1013.81">𝑋</text><path d="M2808.55 958.406 2826.62 958.406 2826.62 1035.69 2808.55 1035.69 2808.55 1032.57 2819.9 1032.57 2819.9 961.527 2808.55 961.527ZM2739.5 958.406 2757.58 958.406 2757.58 961.527 2746.23 961.527 2746.23 1032.57 2757.58 1032.57 2757.58 1035.69 2739.5 1035.69Z" fill="#D74514" fill-rule="evenodd"/><path d="M2780.25 962.774 2782.6 962.774 2774.66 998.154 2775.96 998.154C2777.98 998.154 2780.26 997.269 2782.79 995.5 2785.31 993.73 2787.33 992.089 2788.85 990.576 2790.36 989.063 2791.12 987.604 2791.12 986.199 2791.12 984.875 2790.2 984.132 2788.36 983.97L2788.81 981.984 2801.94 981.984 2802.71 983.97C2800.46 985.996 2798.09 987.982 2795.57 989.927L2785.52 997.708 2789.49 1012.34C2789.82 1013.58 2790.11 1014.48 2790.37 1015.03 2790.62 1015.59 2790.92 1016 2791.26 1016.27 2791.59 1016.54 2792.05 1016.68 2792.61 1016.68 2793.32 1016.68 2794.16 1016.3 2795.13 1015.54 2796.1 1014.78 2797.21 1013.69 2798.45 1012.26L2800.76 1014.53C2798.33 1017.09 2796.32 1018.88 2794.72 1019.88 2793.13 1020.88 2791.59 1021.38 2790.1 1021.38 2788.27 1021.38 2786.81 1020.86 2785.73 1019.82 2784.64 1018.78 2783.79 1017.04 2783.17 1014.61L2780.5 1004.07C2780.23 1003.02 2779.96 1002.29 2779.69 1001.88 2779.42 1001.48 2779.11 1001.21 2778.75 1001.07 2778.4 1000.94 2777.78 1000.87 2776.89 1000.87L2774.09 1000.87 2769.88 1020.73 2762.87 1020.73 2773.28 974.405C2773.63 972.838 2773.88 971.616 2774.03 970.737 2774.18 969.859 2774.26 969.083 2774.26 968.407 2774.26 967.272 2773.91 966.475 2773.22 966.016 2772.53 965.557 2771.3 965.3 2769.51 965.246L2770 963.139Z" fill="#D74514" fill-rule="evenodd"/><text fill="#000000" fill-opacity="0" font-family="Arial,Arial_MSFontService,sans-serif" font-size="58.6025" x="2762.87" y="1014.05">𝑘</text><path d="M2701.44 1300.65 2743.75 1300.65 2740.59 1314.92 2736.7 1314.92C2736.7 1312.3 2736.63 1310.33 2736.49 1309.02 2736.36 1307.71 2736.1 1306.71 2735.72 1306.02 2735.35 1305.33 2734.88 1304.86 2734.33 1304.6 2733.77 1304.35 2732.79 1304.22 2731.39 1304.22L2725.39 1304.22 2716.59 1344.18C2716.35 1345.23 2716.18 1346.07 2716.09 1346.69 2715.99 1347.31 2715.91 1347.97 2715.85 1348.66 2715.78 1349.35 2715.74 1349.96 2715.74 1350.5 2715.74 1351.34 2715.88 1351.99 2716.15 1352.47 2716.42 1352.94 2716.82 1353.28 2717.36 1353.5 2717.91 1353.72 2718.84 1353.88 2720.16 1353.99L2719.72 1355.97 2702.65 1355.97 2703.1 1353.99C2704.18 1353.82 2704.98 1353.61 2705.49 1353.34 2706 1353.07 2706.46 1352.65 2706.85 1352.08 2707.24 1351.51 2707.63 1350.62 2708.02 1349.41 2708.42 1348.19 2708.88 1346.35 2709.42 1343.89L2718.09 1304.22 2712.95 1304.22C2711.27 1304.22 2709.94 1304.46 2708.94 1304.95 2707.94 1305.43 2706.94 1306.34 2705.94 1307.66 2704.94 1308.99 2703.72 1311.2 2702.29 1314.31L2698.4 1314.31Z" fill="#D74514" fill-rule="evenodd"/><text fill="#000000" fill-opacity="0" font-family="Arial,Arial_MSFontService,sans-serif" font-size="55.3198" x="2698.4" y="1349.06">𝑇</text><path d="M2806.23 1293.65 2824.3 1293.65 2824.3 1370.93 2806.23 1370.93 2806.23 1367.81 2817.57 1367.81 2817.57 1296.77 2806.23 1296.77ZM2755.88 1293.65 2773.96 1293.65 2773.96 1296.77 2762.61 1296.77 2762.61 1367.81 2773.96 1367.81 2773.96 1370.93 2755.88 1370.93Z" fill="#D74514" fill-rule="evenodd"/><path d="M2792.34 1316.86 2794.73 1316.86 2788.89 1342.88C2788.3 1345.53 2788 1347.53 2788 1348.88 2788 1349.96 2788.18 1350.74 2788.53 1351.23 2788.88 1351.72 2789.43 1351.96 2790.19 1351.96 2791 1351.96 2791.86 1351.63 2792.78 1350.97 2793.7 1350.3 2795 1349.04 2796.67 1347.18L2798.98 1349.45C2796.34 1352.23 2794.19 1354.12 2792.54 1355.12 2790.89 1356.12 2789.04 1356.62 2786.99 1356.62 2785.23 1356.62 2783.83 1355.98 2782.77 1354.69 2781.72 1353.41 2781.19 1351.77 2781.19 1349.77 2781.19 1347.72 2781.57 1345.1 2782.33 1341.91L2785.37 1328.66C2785.99 1325.95 2786.3 1323.93 2786.3 1322.58 2786.3 1321.36 2786.01 1320.54 2785.43 1320.1 2784.85 1319.67 2783.7 1319.43 2782 1319.38L2782.45 1317.23ZM2791.24 1301.34 2798.42 1301.34 2796.55 1309.2 2789.38 1309.2Z" fill="#D74514" fill-rule="evenodd"/><text fill="#000000" fill-opacity="0" font-family="Arial,Arial_MSFontService,sans-serif" font-size="55.2793" x="2781.19" y="1349.71">𝑖</text><path d="M2841.56 1323.92 2977.17 1325.62 2977.06 1334.78 2841.44 1333.08ZM2972.82 1307.23 3018.36 1330.72 2972.25 1353.06Z" fill="#5D1709"/><path d="M2841.53 988.917 2977.14 989.794 2977.08 998.96 2841.47 998.083ZM2972.68 971.431 3018.36 994.644 2972.38 1017.26Z" fill="#5D1709"/><path d="M3017.5 659.5C3017.5 618.631 3050.85 585.5 3092 585.5 3133.15 585.5 3166.5 618.631 3166.5 659.5 3166.5 700.369 3133.15 733.5 3092 733.5 3050.85 733.5 3017.5 700.369 3017.5 659.5Z" stroke="#D74514" stroke-width="9.16667" stroke-miterlimit="8" fill="none" fill-rule="evenodd"/><path d="M0 0 148.129 0.000360892" stroke="#D74514" stroke-width="9.16667" stroke-miterlimit="8" fill="none" fill-rule="evenodd" transform="matrix(-1 0 0 1 3165.63 659.5)"/><path d="M0 0 0.000360892 148.129" stroke="#D74514" stroke-width="9.16667" stroke-miterlimit="8" fill="none" fill-rule="evenodd" transform="matrix(1 0 0 -1 3091.5 733.629)"/><path d="M3017.5 994.5C3017.5 953.631 3050.85 920.5 3092 920.5 3133.15 920.5 3166.5 953.631 3166.5 994.5 3166.5 1035.37 3133.15 1068.5 3092 1068.5 3050.85 1068.5 3017.5 1035.37 3017.5 994.5Z" stroke="#D74514" stroke-width="9.16667" stroke-miterlimit="8" fill="none" fill-rule="evenodd"/><path d="M0 0 148.129 0.000360892" stroke="#D74514" stroke-width="9.16667" stroke-miterlimit="8" fill="none" fill-rule="evenodd" transform="matrix(-1 0 0 1 3165.63 994.5)"/><path d="M0 0 0.000360892 148.129" stroke="#D74514" stroke-width="9.16667" stroke-miterlimit="8" fill="none" fill-rule="evenodd" transform="matrix(1 0 0 -1 3091.5 1068.63)"/><path d="M3017.5 1331.5C3017.5 1290.63 3050.85 1257.5 3092 1257.5 3133.15 1257.5 3166.5 1290.63 3166.5 1331.5 3166.5 1372.37 3133.15 1405.5 3092 1405.5 3050.85 1405.5 3017.5 1372.37 3017.5 1331.5Z" stroke="#D74514" stroke-width="9.16667" stroke-miterlimit="8" fill="none" fill-rule="evenodd"/><path d="M0 0 148.129 0.000360892" stroke="#D74514" stroke-width="9.16667" stroke-miterlimit="8" fill="none" fill-rule="evenodd" transform="matrix(-1 0 0 1 3165.63 1331.5)"/><path d="M0 0 0.000360892 148.129" stroke="#D74514" stroke-width="9.16667" stroke-miterlimit="8" fill="none" fill-rule="evenodd" transform="matrix(1 0 0 -1 3091.5 1405.63)"/><path d="M3020.5 1991.5C3020.5 1950.63 3053.63 1917.5 3094.5 1917.5 3135.37 1917.5 3168.5 1950.63 3168.5 1991.5 3168.5 2032.37 3135.37 2065.5 3094.5 2065.5 3053.63 2065.5 3020.5 2032.37 3020.5 1991.5Z" stroke="#D74514" stroke-width="9.16667" stroke-miterlimit="8" fill="none" fill-rule="evenodd"/><path d="M0 0 148.129 0.000360892" stroke="#D74514" stroke-width="9.16667" stroke-miterlimit="8" fill="none" fill-rule="evenodd" transform="matrix(-1 0 0 1 3168.63 1991.5)"/><path d="M0 0 0.000360892 148.129" stroke="#D74514" stroke-width="9.16667" stroke-miterlimit="8" fill="none" fill-rule="evenodd" transform="matrix(1 0 0 -1 3094.5 2065.63)"/><path d="M1.58123e-05-4.58333 63.3576-4.58311 63.3575 4.58355-1.58123e-05 4.58333ZM58.7743-22.9165 104.608 0.000360892 58.7741 22.9169Z" fill="#5D1709" transform="matrix(-1 0 0 1 3636.11 733.5)"/><path d="M3.53835e-06-4.58333 426.225-4.583 426.225 4.58366-3.53835e-06 4.58333ZM421.642-22.9163 467.475 0.000360892 421.642 22.917Z" fill="#5D1709" transform="matrix(-1 0 0 1 3635.97 1991.5)"/></g></svg>