<svg width="2232" height="1814" xmlns="http://www.w3.org/2000/svg" xmlns:xlink="http://www.w3.org/1999/xlink" overflow="hidden"><defs><clipPath id="clip0"><rect x="527" y="98" width="2232" height="1814"/></clipPath></defs><g clip-path="url(#clip0)" transform="translate(-527 -98)"><rect x="697" y="384" width="433" height="325" fill="#D74514"/><text fill="#FFFFFF" font-family="Microsoft YaHei,Microsoft YaHei_MSFontService,sans-serif" font-weight="700" font-size="83" transform="matrix(1 0 0 1 832.447 527)">DES<tspan font-size="83" x="-1.44373" y="99">ๅๅฏ</tspan></text><path d="M917.083 232.468 917.85 343.395 908.684 343.458 907.917 232.532ZM936.151 338.685 913.552 384.675 890.319 339.001Z"/><path d="M890.752 142.739C889.077 142.739 887.321 142.779 885.484 142.86L879.972 167.42 884.187 167.42C887.456 167.42 890.097 167.082 892.11 166.406 894.123 165.731 895.771 164.684 897.054 163.266 898.338 161.847 899.331 160.165 900.033 158.22 900.735 156.275 901.087 154.14 901.087 151.817 901.087 148.683 900.29 146.386 898.696 144.927 897.102 143.468 894.454 142.739 890.752 142.739ZM873.771 139.172 891.644 139.172C894.859 139.172 897.5 139.422 899.567 139.922 901.634 140.422 903.336 141.192 904.673 142.232 906.011 143.272 907.01 144.589 907.672 146.183 908.334 147.777 908.665 149.628 908.665 151.736 908.665 155.788 907.706 159.301 905.788 162.273 903.87 165.245 901.269 167.433 897.986 168.838 894.704 170.243 890.766 170.946 886.173 170.946 883.417 170.946 881.12 170.892 879.283 170.783L876.689 182.698C876.446 183.806 876.277 184.657 876.183 185.252 876.088 185.846 876.007 186.488 875.94 187.177 875.872 187.866 875.838 188.48 875.838 189.021 875.838 189.858 875.973 190.514 876.243 190.986 876.514 191.459 876.919 191.804 877.459 192.02 878 192.236 878.932 192.398 880.256 192.506L879.81 194.492 863.153 194.492 863.599 192.506C864.626 192.344 865.396 192.081 865.909 191.716 866.422 191.351 866.855 190.844 867.206 190.196 867.557 189.548 867.881 188.757 868.179 187.825 868.476 186.893 868.922 185.09 869.516 182.415L876.406 151.209C877 148.507 877.297 146.372 877.297 144.805 877.297 143.482 876.986 142.563 876.365 142.05 875.744 141.536 874.73 141.239 873.326 141.158Z" fill-rule="evenodd"/><text fill="#000000" fill-opacity="0" font-family="Arial,Arial_MSFontService,sans-serif" font-size="55.3198" x="863.153" y="187.577">๐</text><path d="M921.167 172.972 922.984 172.972C922.944 174.065 922.914 175.042 922.894 175.906 922.875 176.77 922.86 177.609 922.85 178.423 922.84 179.237 922.835 180.041 922.835 180.836L922.835 203.472C922.835 204.088 922.855 204.619 922.894 205.066 922.934 205.513 922.999 205.89 923.088 206.198 923.177 206.506 923.296 206.769 923.445 206.987 923.594 207.205 923.768 207.394 923.967 207.553 924.205 207.791 924.523 207.975 924.92 208.104 925.317 208.233 925.823 208.342 926.439 208.432 927.054 208.521 927.794 208.59 928.658 208.64 929.522 208.69 930.559 208.725 931.77 208.744L931.77 211.336 908.151 211.336 908.151 208.744C909.322 208.705 910.315 208.66 911.129 208.61 911.943 208.561 912.638 208.491 913.214 208.402 913.79 208.312 914.252 208.213 914.599 208.104 914.947 207.995 915.25 207.861 915.508 207.702 915.786 207.523 916.024 207.33 916.222 207.121 916.421 206.913 916.58 206.649 916.699 206.332 916.818 206.014 916.912 205.627 916.982 205.17 917.052 204.713 917.086 204.148 917.086 203.472L917.086 182.116C917.086 181.342 916.937 180.796 916.639 180.478 916.342 180.161 915.915 180.002 915.359 180.002 914.743 180.002 913.83 180.319 912.618 180.955 911.407 181.59 909.839 182.533 907.912 183.784 907.654 183.328 907.416 182.871 907.198 182.414 906.979 181.958 906.751 181.491 906.513 181.014 908.975 179.664 911.412 178.319 913.825 176.979 916.237 175.638 918.685 174.303 921.167 172.972Z" fill-rule="evenodd"/><text fill="#000000" fill-opacity="0" font-family="Arial,Arial_MSFontService,sans-serif" font-size="38.3633" x="906.513" y="206.54">1</text><path d="M894.175 926.669C896.633 926.669 898.91 926.817 901.003 927.114 903.097 927.412 905.428 927.952 907.994 928.735L905.563 939.718 901.672 939.718C901.456 936.395 900.733 933.997 899.504 932.525 898.275 931.052 896.296 930.316 893.567 930.316 889.838 930.316 886.373 932.18 883.171 935.909 879.97 939.637 877.437 944.561 875.573 950.681 873.708 956.801 872.776 962.481 872.776 967.723 872.776 971.83 873.506 974.856 874.965 976.801 876.424 978.746 878.666 979.719 881.692 979.719 883.719 979.719 885.488 979.415 887.001 978.807 888.514 978.199 889.933 977.172 891.257 975.727 892.581 974.281 893.891 972.262 895.188 969.668L899.078 969.668 896.606 981.178C891.554 982.583 886.258 983.285 880.72 983.285 875.64 983.285 871.776 981.826 869.129 978.908 866.481 975.99 865.157 971.721 865.157 966.102 865.157 962.13 865.866 957.55 867.285 952.363 868.703 947.175 870.709 942.623 873.303 938.705 875.897 934.788 878.963 931.802 882.503 929.749 886.042 927.695 889.933 926.669 894.175 926.669Z" fill-rule="evenodd"/><text fill="#000000" fill-opacity="0" font-family="Arial,Arial_MSFontService,sans-serif" font-size="56.6167" x="865.157" y="976.208">๐ถ</text><path d="M922.324 961.117 924.141 961.117C924.101 962.209 924.072 963.187 924.052 964.051 924.032 964.915 924.017 965.754 924.007 966.568 923.997 967.382 923.992 968.186 923.992 968.981L923.992 991.617C923.992 992.233 924.012 992.764 924.052 993.211 924.091 993.658 924.156 994.035 924.245 994.343 924.335 994.65 924.454 994.914 924.603 995.132 924.752 995.35 924.925 995.539 925.124 995.698 925.362 995.936 925.68 996.12 926.077 996.249 926.474 996.378 926.981 996.487 927.596 996.577 928.212 996.666 928.951 996.735 929.815 996.785 930.679 996.835 931.716 996.869 932.928 996.889L932.928 999.481 909.308 999.481 909.308 996.889C910.48 996.85 911.472 996.805 912.287 996.755 913.101 996.706 913.796 996.636 914.372 996.547 914.947 996.457 915.409 996.358 915.757 996.249 916.104 996.14 916.407 996.006 916.665 995.847 916.943 995.668 917.181 995.474 917.38 995.266 917.578 995.057 917.737 994.794 917.856 994.477 917.976 994.159 918.07 993.772 918.139 993.315 918.209 992.858 918.244 992.292 918.244 991.617L918.244 970.261C918.244 969.487 918.095 968.941 917.797 968.623 917.499 968.305 917.072 968.147 916.516 968.147 915.901 968.147 914.987 968.464 913.776 969.1 912.565 969.735 910.996 970.678 909.07 971.929 908.812 971.473 908.573 971.016 908.355 970.559 908.136 970.102 907.908 969.636 907.67 969.159 910.132 967.809 912.57 966.464 914.982 965.123 917.395 963.783 919.842 962.448 922.324 961.117Z" fill-rule="evenodd"/><text fill="#000000" fill-opacity="0" font-family="Arial,Arial_MSFontService,sans-serif" font-size="38.3633" x="907.67" y="994.685">1</text><path d="M4.58325-0.0272534 5.38997 135.64-3.77653 135.695-4.58325 0.0272534ZM23.6957 130.948 1.052 176.917-22.1368 131.22Z" transform="matrix(-1 0 0 1 913.552 709.5)"/><path d="M608.5 542.917 656.625 542.917 656.625 552.084 608.5 552.083ZM652.042 524.584 697.875 547.5 652.042 570.417Z"/><path d="M537.914 520.874 554.125 520.874 553.679 522.86C552.652 523.076 551.916 523.319 551.47 523.589 551.025 523.859 550.626 524.265 550.275 524.805 549.924 525.345 549.559 526.19 549.181 527.338 548.802 528.486 548.33 530.357 547.762 532.951L544.885 545.879 546.222 545.879C547.357 545.879 548.39 545.69 549.322 545.312 550.255 544.934 551.342 544.245 552.585 543.245 553.828 542.245 555.807 540.408 558.522 537.733 561.237 535.058 563.169 533.025 564.318 531.634 565.466 530.242 566.303 529.04 566.83 528.027 567.357 527.014 567.621 526.088 567.621 525.251 567.621 524.575 567.35 524.028 566.81 523.609 566.27 523.191 565.5 522.941 564.5 522.86L564.946 520.874 582.332 520.874 581.886 522.86C580.805 523.022 579.583 523.582 578.218 524.542 576.854 525.501 574.767 527.372 571.957 530.155L556.232 545.474 564.865 566.224C565.756 568.358 566.493 569.898 567.073 570.844 567.654 571.79 568.35 572.539 569.161 573.093 569.971 573.647 570.971 574.019 572.16 574.208L571.714 576.194 556.07 576.194 556.516 574.208C557.975 574.073 558.705 573.424 558.705 572.263 558.705 571.533 558.556 570.702 558.259 569.77 557.962 568.838 557.61 567.872 557.205 566.872L551.936 553.985C551.315 552.445 550.775 551.364 550.315 550.743 549.856 550.121 549.37 549.689 548.856 549.446 548.343 549.203 547.546 549.081 546.465 549.081L544.196 549.081 540.832 564.4C540.481 566.021 540.251 567.298 540.143 568.23 540.035 569.162 539.981 569.993 539.981 570.723 539.981 571.938 540.285 572.796 540.893 573.296 541.501 573.796 542.521 574.1 543.953 574.208L543.507 576.194 527.296 576.194 527.742 574.208C528.768 574.046 529.538 573.782 530.052 573.418 530.565 573.053 530.997 572.546 531.349 571.898 531.7 571.249 532.024 570.459 532.321 569.527 532.618 568.595 533.064 566.791 533.659 564.117L540.548 532.911C541.143 530.209 541.44 528.034 541.44 526.386 541.44 525.116 541.122 524.231 540.487 523.731 539.853 523.231 538.846 522.941 537.468 522.86Z" fill-rule="evenodd"/><text fill="#000000" fill-opacity="0" font-family="Arial,Arial_MSFontService,sans-serif" font-size="55.3198" x="527.296" y="569.279">๐พ</text><rect x="1372" y="384" width="432" height="325" fill="#D74514"/><text fill="#FFFFFF" font-family="Microsoft YaHei,Microsoft YaHei_MSFontService,sans-serif" font-weight="700" font-size="83" transform="matrix(1 0 0 1 1507.07 527)">DES<tspan font-size="83" x="-1.44373" y="99">ๅๅฏ</tspan></text><path d="M1592.08 232.468 1592.85 343.395 1583.68 343.458 1582.92 232.532ZM1611.15 338.685 1588.55 384.675 1565.32 339.001Z"/><path d="M1564.42 142.739C1562.75 142.739 1560.99 142.779 1559.16 142.86L1553.64 167.42 1557.86 167.42C1561.13 167.42 1563.77 167.082 1565.78 166.406 1567.8 165.731 1569.44 164.684 1570.73 163.266 1572.01 161.847 1573 160.165 1573.71 158.22 1574.41 156.275 1574.76 154.14 1574.76 151.817 1574.76 148.683 1573.96 146.386 1572.37 144.927 1570.77 143.468 1568.13 142.739 1564.42 142.739ZM1547.44 139.172 1565.32 139.172C1568.53 139.172 1571.17 139.422 1573.24 139.922 1575.31 140.422 1577.01 141.192 1578.35 142.232 1579.68 143.272 1580.68 144.589 1581.35 146.183 1582.01 147.777 1582.34 149.628 1582.34 151.736 1582.34 155.788 1581.38 159.301 1579.46 162.273 1577.54 165.245 1574.94 167.433 1571.66 168.838 1568.38 170.243 1564.44 170.946 1559.85 170.946 1557.09 170.946 1554.79 170.892 1552.96 170.783L1550.36 182.698C1550.12 183.806 1549.95 184.657 1549.86 185.252 1549.76 185.846 1549.68 186.488 1549.61 187.177 1549.54 187.866 1549.51 188.48 1549.51 189.021 1549.51 189.858 1549.65 190.514 1549.92 190.986 1550.19 191.459 1550.59 191.804 1551.13 192.02 1551.67 192.236 1552.6 192.398 1553.93 192.506L1553.48 194.492 1536.83 194.492 1537.27 192.506C1538.3 192.344 1539.07 192.081 1539.58 191.716 1540.09 191.351 1540.53 190.844 1540.88 190.196 1541.23 189.548 1541.55 188.757 1541.85 187.825 1542.15 186.893 1542.59 185.09 1543.19 182.415L1550.08 151.209C1550.67 148.507 1550.97 146.372 1550.97 144.805 1550.97 143.482 1550.66 142.563 1550.04 142.05 1549.42 141.536 1548.4 141.239 1547 141.158Z" fill-rule="evenodd"/><text fill="#000000" fill-opacity="0" font-family="Arial,Arial_MSFontService,sans-serif" font-size="55.3198" x="1536.83" y="187.577">๐</text><path d="M1594.42 172.764C1596.48 172.764 1598.25 172.997 1599.71 173.464 1601.16 173.931 1602.35 174.561 1603.26 175.355 1604.18 176.15 1604.84 177.103 1605.25 178.215 1605.65 179.327 1605.86 180.528 1605.86 181.819 1605.86 182.593 1605.8 183.313 1605.69 183.978 1605.58 184.643 1605.39 185.299 1605.13 185.944 1604.86 186.589 1604.51 187.24 1604.07 187.895 1603.63 188.55 1603.09 189.245 1602.43 189.98 1601.93 190.615 1601.29 191.35 1600.49 192.184 1599.7 193.018 1598.83 193.911 1597.89 194.865 1596.95 195.818 1595.96 196.81 1594.92 197.843 1593.89 198.876 1592.89 199.898 1591.92 200.911 1590.94 201.924 1590.05 202.906 1589.24 203.86 1588.42 204.813 1587.76 205.686 1587.24 206.481L1598.26 206.481C1599.19 206.481 1599.94 206.446 1600.49 206.376 1601.05 206.307 1601.51 206.153 1601.88 205.915 1602.25 205.677 1602.56 205.314 1602.82 204.828 1603.08 204.341 1603.37 203.671 1603.71 202.817L1606.48 202.817C1606.38 204.227 1606.29 205.647 1606.2 207.076 1606.11 208.506 1606.01 209.926 1605.92 211.336L1580.69 211.336 1580.69 209.787C1581.16 208.715 1581.72 207.657 1582.36 206.615 1582.99 205.572 1583.71 204.515 1584.5 203.443 1585.29 202.37 1586.2 201.263 1587.21 200.122 1588.22 198.98 1589.34 197.793 1590.58 196.562 1592.44 194.696 1593.96 193.102 1595.13 191.782 1596.3 190.461 1597.23 189.285 1597.9 188.252 1598.58 187.22 1599.04 186.267 1599.29 185.393 1599.54 184.519 1599.66 183.586 1599.66 182.593 1599.66 181.58 1599.52 180.647 1599.23 179.793 1598.94 178.939 1598.53 178.215 1597.99 177.619 1597.46 177.023 1596.78 176.557 1595.95 176.219 1595.13 175.881 1594.18 175.713 1593.11 175.713 1591.26 175.713 1589.71 176.214 1588.46 177.217 1587.21 178.22 1586.24 179.674 1585.54 181.58L1581.64 181.58 1581.64 175.772C1584.18 174.72 1586.52 173.955 1588.65 173.479 1590.79 173.002 1592.71 172.764 1594.42 172.764Z" fill-rule="evenodd"/><text fill="#000000" fill-opacity="0" font-family="Arial,Arial_MSFontService,sans-serif" font-size="38.5718" x="1580.69" y="206.514">2</text><path d="M1567.85 926.669C1570.31 926.669 1572.58 926.817 1574.68 927.114 1576.77 927.412 1579.1 927.952 1581.67 928.735L1579.24 939.718 1575.34 939.718C1575.13 936.395 1574.41 933.997 1573.18 932.525 1571.95 931.052 1569.97 930.316 1567.24 930.316 1563.51 930.316 1560.05 932.18 1556.84 935.909 1553.64 939.637 1551.11 944.561 1549.25 950.681 1547.38 956.801 1546.45 962.481 1546.45 967.723 1546.45 971.83 1547.18 974.856 1548.64 976.801 1550.1 978.746 1552.34 979.719 1555.36 979.719 1557.39 979.719 1559.16 979.415 1560.67 978.807 1562.19 978.199 1563.61 977.172 1564.93 975.727 1566.25 974.281 1567.56 972.262 1568.86 969.668L1572.75 969.668 1570.28 981.178C1565.23 982.583 1559.93 983.285 1554.39 983.285 1549.31 983.285 1545.45 981.826 1542.8 978.908 1540.15 975.99 1538.83 971.721 1538.83 966.102 1538.83 962.13 1539.54 957.55 1540.96 952.363 1542.38 947.175 1544.38 942.623 1546.98 938.705 1549.57 934.788 1552.64 931.802 1556.18 929.749 1559.71 927.695 1563.61 926.669 1567.85 926.669Z" fill-rule="evenodd"/><text fill="#000000" fill-opacity="0" font-family="Arial,Arial_MSFontService,sans-serif" font-size="56.6167" x="1538.83" y="976.208">๐ถ</text><path d="M1595.58 960.909C1597.64 960.909 1599.4 961.142 1600.86 961.609 1602.32 962.075 1603.51 962.706 1604.42 963.5 1605.34 964.294 1606 965.247 1606.4 966.359 1606.81 967.471 1607.01 968.673 1607.01 969.964 1607.01 970.738 1606.96 971.458 1606.85 972.123 1606.74 972.788 1606.55 973.443 1606.28 974.089 1606.02 974.734 1605.66 975.384 1605.23 976.04 1604.79 976.695 1604.24 977.39 1603.59 978.125 1603.09 978.76 1602.45 979.495 1601.65 980.329 1600.86 981.163 1599.99 982.056 1599.05 983.009 1598.1 983.963 1597.11 984.955 1596.08 985.988 1595.05 987.02 1594.05 988.043 1593.07 989.056 1592.1 990.068 1591.21 991.051 1590.39 992.005 1589.58 992.958 1588.91 993.831 1588.4 994.626L1599.42 994.626C1600.35 994.626 1601.1 994.591 1601.65 994.521 1602.21 994.452 1602.67 994.298 1603.04 994.06 1603.4 993.821 1603.72 993.459 1603.97 992.973 1604.23 992.486 1604.53 991.816 1604.87 990.962L1607.64 990.962C1607.54 992.372 1607.44 993.792 1607.36 995.221 1607.27 996.651 1607.17 998.071 1607.07 999.481L1581.84 999.481 1581.84 997.932C1582.32 996.859 1582.88 995.802 1583.51 994.76 1584.15 993.717 1584.86 992.66 1585.66 991.588 1586.45 990.515 1587.35 989.408 1588.37 988.266 1589.38 987.125 1590.5 985.938 1591.73 984.707 1593.6 982.841 1595.12 981.247 1596.29 979.927 1597.46 978.606 1598.39 977.43 1599.06 976.397 1599.74 975.365 1600.2 974.411 1600.45 973.538 1600.69 972.664 1600.82 971.731 1600.82 970.738 1600.82 969.725 1600.67 968.792 1600.39 967.938 1600.1 967.084 1599.69 966.359 1599.15 965.764 1598.61 965.168 1597.93 964.701 1597.11 964.364 1596.29 964.026 1595.34 963.858 1594.27 963.858 1592.42 963.858 1590.87 964.359 1589.62 965.362 1588.37 966.364 1587.39 967.819 1586.7 969.725L1582.8 969.725 1582.8 963.917C1585.34 962.865 1587.68 962.1 1589.81 961.624 1591.95 961.147 1593.87 960.909 1595.58 960.909Z" fill-rule="evenodd"/><text fill="#000000" fill-opacity="0" font-family="Arial,Arial_MSFontService,sans-serif" font-size="38.5718" x="1581.84" y="994.659">2</text><path d="M4.58325-0.0272534 5.38997 135.64-3.77653 135.695-4.58325 0.0272534ZM23.6957 130.948 1.052 176.917-22.1368 131.22Z" transform="matrix(-1 0 0 1 1588.55 709.5)"/><path d="M1283.5 542.917 1331.63 542.917 1331.63 552.084 1283.5 552.083ZM1327.04 524.584 1372.88 547.5 1327.04 570.417Z"/><path d="M1212.54 520.874 1228.75 520.874 1228.3 522.86C1227.28 523.076 1226.54 523.319 1226.09 523.589 1225.65 523.859 1225.25 524.265 1224.9 524.805 1224.55 525.345 1224.18 526.19 1223.8 527.338 1223.43 528.486 1222.95 530.357 1222.39 532.951L1219.51 545.879 1220.85 545.879C1221.98 545.879 1223.01 545.69 1223.95 545.312 1224.88 544.934 1225.97 544.245 1227.21 543.245 1228.45 542.245 1230.43 540.408 1233.15 537.733 1235.86 535.058 1237.79 533.025 1238.94 531.634 1240.09 530.242 1240.93 529.04 1241.45 528.027 1241.98 527.014 1242.24 526.088 1242.24 525.251 1242.24 524.575 1241.97 524.028 1241.43 523.609 1240.89 523.191 1240.12 522.941 1239.12 522.86L1239.57 520.874 1256.96 520.874 1256.51 522.86C1255.43 523.022 1254.21 523.582 1252.84 524.542 1251.48 525.501 1249.39 527.372 1246.58 530.155L1230.86 545.474 1239.49 566.224C1240.38 568.358 1241.12 569.898 1241.7 570.844 1242.28 571.79 1242.97 572.539 1243.78 573.093 1244.59 573.647 1245.59 574.019 1246.78 574.208L1246.34 576.194 1230.69 576.194 1231.14 574.208C1232.6 574.073 1233.33 573.424 1233.33 572.263 1233.33 571.533 1233.18 570.702 1232.88 569.77 1232.59 568.838 1232.23 567.872 1231.83 566.872L1226.56 553.985C1225.94 552.445 1225.4 551.364 1224.94 550.743 1224.48 550.121 1223.99 549.689 1223.48 549.446 1222.97 549.203 1222.17 549.081 1221.09 549.081L1218.82 549.081 1215.46 564.4C1215.1 566.021 1214.87 567.298 1214.77 568.23 1214.66 569.162 1214.6 569.993 1214.6 570.723 1214.6 571.938 1214.91 572.796 1215.52 573.296 1216.12 573.796 1217.14 574.1 1218.58 574.208L1218.13 576.194 1201.92 576.194 1202.37 574.208C1203.39 574.046 1204.16 573.782 1204.68 573.418 1205.19 573.053 1205.62 572.546 1205.97 571.898 1206.32 571.249 1206.65 570.459 1206.94 569.527 1207.24 568.595 1207.69 566.791 1208.28 564.117L1215.17 532.911C1215.77 530.209 1216.06 528.034 1216.06 526.386 1216.06 525.116 1215.75 524.231 1215.11 523.731 1214.48 523.231 1213.47 522.941 1212.09 522.86Z" fill-rule="evenodd"/><text fill="#000000" fill-opacity="0" font-family="Arial,Arial_MSFontService,sans-serif" font-size="55.3198" x="1201.92" y="569.279">๐พ</text><rect x="2327" y="384" width="432" height="325" fill="#D74514"/><text fill="#FFFFFF" font-family="Microsoft YaHei,Microsoft YaHei_MSFontService,sans-serif" font-weight="700" font-size="83" transform="matrix(1 0 0 1 2461.82 527)">DES<tspan font-size="83" x="-1.44385" y="99">ๅๅฏ</tspan></text><path d="M2547.08 232.468 2547.85 343.395 2538.68 343.458 2537.92 232.532ZM2566.15 338.685 2543.55 384.675 2520.32 339.001Z"/><path d="M2513.32 142.739C2511.64 142.739 2509.89 142.779 2508.05 142.86L2502.54 167.42 2506.75 167.42C2510.02 167.42 2512.66 167.082 2514.68 166.406 2516.69 165.731 2518.34 164.684 2519.62 163.266 2520.9 161.847 2521.9 160.165 2522.6 158.22 2523.3 156.275 2523.65 154.14 2523.65 151.817 2523.65 148.683 2522.86 146.386 2521.26 144.927 2519.67 143.468 2517.02 142.739 2513.32 142.739ZM2496.34 139.172 2514.21 139.172C2517.43 139.172 2520.07 139.422 2522.13 139.922 2524.2 140.422 2525.9 141.192 2527.24 142.232 2528.58 143.272 2529.58 144.589 2530.24 146.183 2530.9 147.777 2531.23 149.628 2531.23 151.736 2531.23 155.788 2530.27 159.301 2528.35 162.273 2526.44 165.245 2523.84 167.433 2520.55 168.838 2517.27 170.243 2513.33 170.946 2508.74 170.946 2505.98 170.946 2503.69 170.892 2501.85 170.783L2499.26 182.698C2499.01 183.806 2498.84 184.657 2498.75 185.252 2498.66 185.846 2498.57 186.488 2498.51 187.177 2498.44 187.866 2498.41 188.48 2498.41 189.021 2498.41 189.858 2498.54 190.514 2498.81 190.986 2499.08 191.459 2499.49 191.804 2500.03 192.02 2500.57 192.236 2501.5 192.398 2502.82 192.506L2502.38 194.492 2485.72 194.492 2486.17 192.506C2487.19 192.344 2487.96 192.081 2488.48 191.716 2488.99 191.351 2489.42 190.844 2489.77 190.196 2490.12 189.548 2490.45 188.757 2490.75 187.825 2491.04 186.893 2491.49 185.09 2492.08 182.415L2498.97 151.209C2499.57 148.507 2499.86 146.372 2499.86 144.805 2499.86 143.482 2499.55 142.563 2498.93 142.05 2498.31 141.536 2497.3 141.239 2495.89 141.158Z" fill-rule="evenodd"/><text fill="#000000" fill-opacity="0" font-family="Arial,Arial_MSFontService,sans-serif" font-size="55.3198" x="2485.72" y="187.577">๐</text><path d="M2534.79 172.704 2545.07 172.704C2546 175.186 2546.96 177.683 2547.94 180.195 2548.93 182.707 2549.9 185.214 2550.85 187.716 2551.8 190.218 2552.72 192.685 2553.6 195.118 2554.49 197.55 2555.3 199.928 2556.03 202.251L2556.42 202.251C2556.64 200.98 2556.91 199.476 2557.25 197.739 2557.59 196.001 2557.99 194.199 2558.44 192.333 2558.78 190.923 2559.12 189.473 2559.47 187.984 2559.82 186.495 2560.14 185.065 2560.44 183.695 2560.74 182.325 2560.98 181.059 2561.17 179.897 2561.36 178.736 2561.45 177.778 2561.45 177.023 2561.45 176.15 2561.23 175.529 2560.78 175.162 2560.33 174.794 2559.51 174.601 2558.29 174.581L2558.71 172.704 2569.76 172.704 2569.37 174.491C2568.7 174.69 2568.16 174.864 2567.77 175.013 2567.37 175.162 2567.03 175.45 2566.75 175.876 2566.48 176.303 2566.21 176.924 2565.96 177.738 2565.72 178.552 2565.42 179.724 2565.09 181.253L2558.35 211.336 2553.86 211.336C2552.8 208.635 2551.73 205.915 2550.62 203.175 2549.52 200.434 2548.44 197.694 2547.38 194.954 2546.32 192.214 2545.3 189.493 2544.33 186.793 2543.35 184.092 2542.47 181.431 2541.67 178.81L2541.29 178.81C2541.19 179.426 2541.07 180.141 2540.93 180.955 2540.79 181.769 2540.64 182.648 2540.47 183.591 2540.3 184.534 2540.12 185.502 2539.93 186.495 2539.74 187.488 2539.55 188.481 2539.35 189.473 2539.17 190.228 2538.96 191.107 2538.71 192.109 2538.46 193.112 2538.21 194.184 2537.95 195.326 2537.69 196.468 2537.43 197.625 2537.16 198.796 2536.89 199.968 2536.65 201.085 2536.43 202.147 2536.21 203.209 2536.04 204.177 2535.91 205.051 2535.78 205.925 2535.72 206.61 2535.72 207.106 2535.72 207.94 2535.96 208.531 2536.43 208.878 2536.91 209.226 2537.72 209.439 2538.87 209.519L2538.55 211.336 2527.44 211.336 2527.82 209.519C2528.42 209.42 2528.92 209.3 2529.31 209.161 2529.71 209.022 2530.06 208.739 2530.36 208.312 2530.65 207.886 2530.94 207.245 2531.21 206.391 2531.47 205.538 2531.78 204.336 2532.11 202.787L2537 181.074C2537.18 180.28 2537.31 179.54 2537.4 178.855 2537.49 178.17 2537.53 177.559 2537.53 177.023 2537.53 176.15 2537.31 175.529 2536.85 175.162 2536.39 174.794 2535.56 174.601 2534.35 174.581Z" fill-rule="evenodd"/><text fill="#000000" fill-opacity="0" font-family="Arial,Arial_MSFontService,sans-serif" font-size="38.6313" x="2527.44" y="206.507">๐</text><path d="M2516.74 926.669C2519.2 926.669 2521.48 926.817 2523.57 927.114 2525.66 927.412 2527.99 927.952 2530.56 928.735L2528.13 939.718 2524.24 939.718C2524.02 936.395 2523.3 933.997 2522.07 932.525 2520.84 931.052 2518.86 930.316 2516.13 930.316 2512.41 930.316 2508.94 932.18 2505.74 935.909 2502.54 939.637 2500 944.561 2498.14 950.681 2496.28 956.801 2495.34 962.481 2495.34 967.723 2495.34 971.83 2496.07 974.856 2497.53 976.801 2498.99 978.746 2501.23 979.719 2504.26 979.719 2506.29 979.719 2508.06 979.415 2509.57 978.807 2511.08 978.199 2512.5 977.172 2513.82 975.727 2515.15 974.281 2516.46 972.262 2517.75 969.668L2521.65 969.668 2519.17 981.178C2514.12 982.583 2508.83 983.285 2503.29 983.285 2498.21 983.285 2494.34 981.826 2491.7 978.908 2489.05 975.99 2487.72 971.721 2487.72 966.102 2487.72 962.13 2488.43 957.55 2489.85 952.363 2491.27 947.175 2493.28 942.623 2495.87 938.705 2498.46 934.788 2501.53 931.802 2505.07 929.749 2508.61 927.695 2512.5 926.669 2516.74 926.669Z" fill-rule="evenodd"/><text fill="#000000" fill-opacity="0" font-family="Arial,Arial_MSFontService,sans-serif" font-size="56.6167" x="2487.72" y="976.208">๐ถ</text><path d="M2535.95 960.849 2546.23 960.849C2547.16 963.331 2548.12 965.828 2549.1 968.34 2550.08 970.852 2551.05 973.359 2552.01 975.861 2552.96 978.363 2553.88 980.83 2554.76 983.263 2555.64 985.695 2556.45 988.073 2557.19 990.396L2557.58 990.396C2557.79 989.125 2558.07 987.621 2558.41 985.884 2558.75 984.146 2559.14 982.344 2559.6 980.478 2559.94 979.068 2560.28 977.618 2560.63 976.129 2560.98 974.64 2561.3 973.21 2561.6 971.84 2561.89 970.47 2562.14 969.204 2562.33 968.042 2562.51 966.881 2562.61 965.923 2562.61 965.168 2562.61 964.294 2562.39 963.674 2561.94 963.307 2561.49 962.939 2560.66 962.746 2559.45 962.726L2559.87 960.849 2570.92 960.849 2570.53 962.636C2569.86 962.835 2569.32 963.009 2568.92 963.158 2568.53 963.307 2568.19 963.594 2567.91 964.021 2567.63 964.448 2567.37 965.069 2567.12 965.883 2566.87 966.697 2566.58 967.869 2566.24 969.398L2559.51 999.481 2555.01 999.481C2553.96 996.78 2552.88 994.06 2551.78 991.319 2550.68 988.579 2549.6 985.839 2548.54 983.099 2547.47 980.359 2546.46 977.638 2545.48 974.938 2544.51 972.237 2543.63 969.576 2542.83 966.955L2542.44 966.955C2542.35 967.571 2542.23 968.286 2542.09 969.1 2541.95 969.914 2541.79 970.793 2541.63 971.736 2541.46 972.679 2541.28 973.647 2541.09 974.64 2540.9 975.633 2540.71 976.625 2540.51 977.618 2540.33 978.373 2540.12 979.252 2539.87 980.254 2539.62 981.257 2539.37 982.329 2539.11 983.471 2538.85 984.613 2538.59 985.769 2538.32 986.941 2538.05 988.113 2537.81 989.23 2537.59 990.292 2537.37 991.354 2537.2 992.322 2537.07 993.196 2536.94 994.07 2536.87 994.755 2536.87 995.251 2536.87 996.085 2537.11 996.676 2537.59 997.023 2538.07 997.371 2538.88 997.584 2540.03 997.664L2539.7 999.481 2528.59 999.481 2528.98 997.664C2529.58 997.564 2530.07 997.445 2530.47 997.306 2530.87 997.167 2531.22 996.884 2531.51 996.457 2531.81 996.03 2532.09 995.39 2532.36 994.536 2532.63 993.682 2532.93 992.481 2533.27 990.932L2538.16 969.219C2538.33 968.425 2538.47 967.685 2538.56 967 2538.65 966.315 2538.69 965.704 2538.69 965.168 2538.69 964.294 2538.46 963.674 2538.01 963.307 2537.55 962.939 2536.72 962.746 2535.5 962.726Z" fill-rule="evenodd"/><text fill="#000000" fill-opacity="0" font-family="Arial,Arial_MSFontService,sans-serif" font-size="38.6313" x="2528.59" y="994.652">๐</text><path d="M4.58325-0.0272534 5.38997 135.64-3.77653 135.695-4.58325 0.0272534ZM23.6957 130.948 1.052 176.917-22.1368 131.22Z" transform="matrix(-1 0 0 1 2543.55 709.5)"/><path d="M2237.5 542.917 2285.62 542.917 2285.62 552.084 2237.5 552.083ZM2281.04 524.584 2326.88 547.5 2281.04 570.417Z"/><path d="M2167.29 520.874 2183.5 520.874 2183.05 522.86C2182.03 523.076 2181.29 523.319 2180.84 523.589 2180.4 523.859 2180 524.265 2179.65 524.805 2179.3 525.345 2178.93 526.19 2178.55 527.338 2178.18 528.486 2177.7 530.357 2177.14 532.951L2174.26 545.879 2175.6 545.879C2176.73 545.879 2177.76 545.69 2178.7 545.312 2179.63 544.934 2180.72 544.245 2181.96 543.245 2183.2 542.245 2185.18 540.408 2187.9 537.733 2190.61 535.058 2192.54 533.025 2193.69 531.634 2194.84 530.242 2195.68 529.04 2196.2 528.027 2196.73 527.014 2196.99 526.088 2196.99 525.251 2196.99 524.575 2196.72 524.028 2196.18 523.609 2195.64 523.191 2194.87 522.941 2193.87 522.86L2194.32 520.874 2211.71 520.874 2211.26 522.86C2210.18 523.022 2208.96 523.582 2207.59 524.542 2206.23 525.501 2204.14 527.372 2201.33 530.155L2185.61 545.474 2194.24 566.224C2195.13 568.358 2195.87 569.898 2196.45 570.844 2197.03 571.79 2197.72 572.539 2198.53 573.093 2199.34 573.647 2200.34 574.019 2201.53 574.208L2201.09 576.194 2185.44 576.194 2185.89 574.208C2187.35 574.073 2188.08 573.424 2188.08 572.263 2188.08 571.533 2187.93 570.702 2187.63 569.77 2187.33 568.838 2186.98 567.872 2186.58 566.872L2181.31 553.985C2180.69 552.445 2180.15 551.364 2179.69 550.743 2179.23 550.121 2178.74 549.689 2178.23 549.446 2177.72 549.203 2176.92 549.081 2175.84 549.081L2173.57 549.081 2170.21 564.4C2169.85 566.021 2169.62 567.298 2169.52 568.23 2169.41 569.162 2169.35 569.993 2169.35 570.723 2169.35 571.938 2169.66 572.796 2170.27 573.296 2170.87 573.796 2171.89 574.1 2173.33 574.208L2172.88 576.194 2156.67 576.194 2157.11 574.208C2158.14 574.046 2158.91 573.782 2159.42 573.418 2159.94 573.053 2160.37 572.546 2160.72 571.898 2161.07 571.249 2161.4 570.459 2161.69 569.527 2161.99 568.595 2162.44 566.791 2163.03 564.117L2169.92 532.911C2170.52 530.209 2170.81 528.034 2170.81 526.386 2170.81 525.116 2170.5 524.231 2169.86 523.731 2169.23 523.231 2168.22 522.941 2166.84 522.86Z" fill-rule="evenodd"/><text fill="#000000" fill-opacity="0" font-family="Arial,Arial_MSFontService,sans-serif" font-size="55.3198" x="2156.67" y="569.279">๐พ</text><path d="M1997.16 547.257C1998.56 547.257 1999.74 547.75 2000.68 548.736 2001.63 549.723 2002.1 550.972 2002.1 552.485 2002.1 553.998 2001.63 555.248 2000.68 556.234 1999.74 557.22 1998.56 557.713 1997.16 557.713 1995.75 557.713 1994.58 557.22 1993.63 556.234 1992.69 555.248 1992.21 553.998 1992.21 552.485 1992.21 550.972 1992.69 549.723 1993.63 548.736 1994.58 547.75 1995.75 547.257 1997.16 547.257ZM1972.6 547.257C1974 547.257 1975.18 547.75 1976.12 548.736 1977.07 549.723 1977.54 550.972 1977.54 552.485 1977.54 553.998 1977.07 555.248 1976.12 556.234 1975.18 557.22 1974 557.713 1972.6 557.713 1971.19 557.713 1970.02 557.22 1969.07 556.234 1968.13 555.248 1967.65 553.998 1967.65 552.485 1967.65 550.972 1968.13 549.723 1969.07 548.736 1970.02 547.75 1971.19 547.257 1972.6 547.257ZM1948.04 547.257C1949.44 547.257 1950.62 547.75 1951.56 548.736 1952.51 549.723 1952.98 550.972 1952.98 552.485 1952.98 553.998 1952.51 555.248 1951.56 556.234 1950.62 557.22 1949.44 557.713 1948.04 557.713 1946.63 557.713 1945.46 557.22 1944.51 556.234 1943.57 555.248 1943.09 553.998 1943.09 552.485 1943.09 550.972 1943.57 549.723 1944.51 548.736 1945.46 547.75 1946.63 547.257 1948.04 547.257Z" fill-rule="evenodd"/><text fill="#000000" fill-opacity="0" font-family="Arial,Arial_MSFontService,sans-serif" font-size="10.4561" x="1943.09" y="556.406">โฏ</text><rect x="697" y="1315" width="433" height="326" fill="#D74514"/><text fill="#FFFFFF" font-family="Microsoft YaHei,Microsoft YaHei_MSFontService,sans-serif" font-weight="700" font-size="83" transform="matrix(1 0 0 1 832.447 1458)">DES<tspan font-size="83" x="-1.44373" y="99">่งฃๅฏ</tspan></text><path d="M4.58301-0.0545282 5.73829 97.0447-3.42773 97.1538-4.58301 0.0545282ZM24.0158 92.2436 1.64603 138.346-21.8143 92.7888Z" transform="matrix(-1 0 0 1 914.146 1641.5)"/><path d="M890.158 1823.42C888.483 1823.42 886.727 1823.46 884.89 1823.54L879.378 1848.1 883.593 1848.1C886.862 1848.1 889.503 1847.76 891.516 1847.08 893.529 1846.41 895.177 1845.36 896.46 1843.94 897.744 1842.52 898.737 1840.84 899.439 1838.9 900.141 1836.95 900.493 1834.82 900.493 1832.49 900.493 1829.36 899.696 1827.06 898.102 1825.6 896.508 1824.14 893.86 1823.42 890.158 1823.42ZM873.177 1819.85 891.05 1819.85C894.265 1819.85 896.906 1820.1 898.973 1820.6 901.04 1821.1 902.742 1821.87 904.079 1822.91 905.417 1823.95 906.416 1825.27 907.078 1826.86 907.74 1828.45 908.071 1830.31 908.071 1832.41 908.071 1836.47 907.112 1839.98 905.194 1842.95 903.276 1845.92 900.675 1848.11 897.392 1849.52 894.11 1850.92 890.172 1851.62 885.579 1851.62 882.823 1851.62 880.526 1851.57 878.689 1851.46L876.095 1863.38C875.852 1864.48 875.683 1865.33 875.589 1865.93 875.494 1866.52 875.413 1867.16 875.345 1867.85 875.278 1868.54 875.244 1869.16 875.244 1869.7 875.244 1870.54 875.379 1871.19 875.649 1871.66 875.92 1872.14 876.325 1872.48 876.865 1872.7 877.406 1872.91 878.338 1873.07 879.662 1873.18L879.216 1875.17 862.559 1875.17 863.005 1873.18C864.032 1873.02 864.802 1872.76 865.315 1872.39 865.828 1872.03 866.261 1871.52 866.612 1870.87 866.963 1870.22 867.287 1869.43 867.584 1868.5 867.882 1867.57 868.327 1865.77 868.922 1863.09L875.812 1831.89C876.406 1829.18 876.703 1827.05 876.703 1825.48 876.703 1824.16 876.392 1823.24 875.771 1822.73 875.15 1822.21 874.136 1821.92 872.731 1821.83Z" fill-rule="evenodd"/><text fill="#000000" fill-opacity="0" font-family="Arial,Arial_MSFontService,sans-serif" font-size="55.3198" x="862.559" y="1868.25">๐</text><path d="M920.573 1853.65 922.39 1853.65C922.35 1854.74 922.32 1855.72 922.3 1856.58 922.28 1857.45 922.266 1858.29 922.256 1859.1 922.246 1859.91 922.241 1860.72 922.241 1861.51L922.241 1884.15C922.241 1884.76 922.261 1885.3 922.3 1885.74 922.34 1886.19 922.405 1886.57 922.494 1886.87 922.583 1887.18 922.702 1887.45 922.851 1887.66 923 1887.88 923.174 1888.07 923.373 1888.23 923.611 1888.47 923.929 1888.65 924.326 1888.78 924.723 1888.91 925.229 1889.02 925.845 1889.11 926.46 1889.2 927.2 1889.27 928.064 1889.32 928.927 1889.37 929.965 1889.4 931.176 1889.42L931.176 1892.01 907.557 1892.01 907.557 1889.42C908.728 1889.38 909.721 1889.34 910.535 1889.29 911.349 1889.24 912.044 1889.17 912.62 1889.08 913.196 1888.99 913.658 1888.89 914.005 1888.78 914.353 1888.67 914.655 1888.54 914.914 1888.38 915.192 1888.2 915.43 1888.01 915.628 1887.8 915.827 1887.59 915.986 1887.33 916.105 1887.01 916.224 1886.69 916.318 1886.3 916.388 1885.85 916.457 1885.39 916.492 1884.82 916.492 1884.15L916.492 1862.79C916.492 1862.02 916.343 1861.47 916.045 1861.16 915.748 1860.84 915.321 1860.68 914.765 1860.68 914.149 1860.68 913.236 1861 912.024 1861.63 910.813 1862.27 909.244 1863.21 907.318 1864.46 907.06 1864 906.822 1863.55 906.604 1863.09 906.385 1862.63 906.157 1862.17 905.918 1861.69 908.381 1860.34 910.818 1859 913.231 1857.66 915.643 1856.32 918.091 1854.98 920.573 1853.65Z" fill-rule="evenodd"/><text fill="#000000" fill-opacity="0" font-family="Arial,Arial_MSFontService,sans-serif" font-size="38.3633" x="905.918" y="1887.22">1</text><path d="M893.581 1073.6C896.039 1073.6 898.316 1073.75 900.409 1074.04 902.503 1074.34 904.834 1074.88 907.4 1075.66L904.969 1086.65 901.078 1086.65C900.862 1083.32 900.139 1080.93 898.91 1079.45 897.681 1077.98 895.702 1077.24 892.973 1077.24 889.244 1077.24 885.779 1079.11 882.577 1082.84 879.376 1086.57 876.843 1091.49 874.979 1097.61 873.114 1103.73 872.182 1109.41 872.182 1114.65 872.182 1118.76 872.912 1121.78 874.371 1123.73 875.83 1125.67 878.072 1126.65 881.098 1126.65 883.125 1126.65 884.894 1126.34 886.407 1125.74 887.92 1125.13 889.339 1124.1 890.663 1122.66 891.987 1121.21 893.297 1119.19 894.594 1116.6L898.484 1116.6 896.012 1128.11C890.96 1129.51 885.664 1130.21 880.126 1130.21 875.046 1130.21 871.182 1128.76 868.535 1125.84 865.887 1122.92 864.563 1118.65 864.563 1113.03 864.563 1109.06 865.272 1104.48 866.691 1099.29 868.109 1094.1 870.115 1089.55 872.709 1085.63 875.303 1081.72 878.369 1078.73 881.909 1076.68 885.448 1074.62 889.339 1073.6 893.581 1073.6Z" fill-rule="evenodd"/><text fill="#000000" fill-opacity="0" font-family="Arial,Arial_MSFontService,sans-serif" font-size="56.6167" x="864.563" y="1123.14">๐ถ</text><path d="M921.73 1108.05 923.547 1108.05C923.507 1109.14 923.478 1110.12 923.458 1110.98 923.438 1111.84 923.423 1112.68 923.413 1113.5 923.403 1114.31 923.398 1115.11 923.398 1115.91L923.398 1138.55C923.398 1139.16 923.418 1139.69 923.458 1140.14 923.497 1140.59 923.562 1140.96 923.651 1141.27 923.741 1141.58 923.86 1141.84 924.009 1142.06 924.158 1142.28 924.331 1142.47 924.53 1142.63 924.768 1142.86 925.086 1143.05 925.483 1143.18 925.88 1143.31 926.387 1143.42 927.002 1143.51 927.618 1143.59 928.357 1143.66 929.221 1143.71 930.085 1143.76 931.122 1143.8 932.334 1143.82L932.334 1146.41 908.714 1146.41 908.714 1143.82C909.886 1143.78 910.878 1143.73 911.693 1143.68 912.507 1143.63 913.202 1143.56 913.778 1143.48 914.353 1143.39 914.815 1143.29 915.163 1143.18 915.51 1143.07 915.813 1142.93 916.071 1142.78 916.349 1142.6 916.587 1142.4 916.786 1142.19 916.984 1141.99 917.143 1141.72 917.262 1141.41 917.382 1141.09 917.476 1140.7 917.545 1140.24 917.615 1139.79 917.65 1139.22 917.65 1138.55L917.65 1117.19C917.65 1116.42 917.501 1115.87 917.203 1115.55 916.905 1115.23 916.478 1115.08 915.922 1115.08 915.307 1115.08 914.393 1115.39 913.182 1116.03 911.971 1116.66 910.402 1117.61 908.476 1118.86 908.218 1118.4 907.979 1117.94 907.761 1117.49 907.542 1117.03 907.314 1116.56 907.076 1116.09 909.538 1114.74 911.976 1113.39 914.388 1112.05 916.801 1110.71 919.248 1109.38 921.73 1108.05Z" fill-rule="evenodd"/><text fill="#000000" fill-opacity="0" font-family="Arial,Arial_MSFontService,sans-serif" font-size="38.3633" x="907.076" y="1141.61">1</text><path d="M608.5 1473.92 656.625 1473.92 656.625 1483.08 608.5 1483.08ZM652.042 1455.58 697.875 1478.5 652.042 1501.42Z"/><path d="M537.914 1451.98 554.125 1451.98 553.679 1453.96C552.652 1454.18 551.916 1454.42 551.47 1454.69 551.025 1454.96 550.626 1455.37 550.275 1455.91 549.924 1456.45 549.559 1457.29 549.181 1458.44 548.802 1459.59 548.33 1461.46 547.762 1464.05L544.885 1476.98 546.222 1476.98C547.357 1476.98 548.39 1476.79 549.322 1476.41 550.255 1476.04 551.342 1475.35 552.585 1474.35 553.828 1473.35 555.807 1471.51 558.522 1468.84 561.237 1466.16 563.169 1464.13 564.318 1462.74 565.466 1461.34 566.303 1460.14 566.83 1459.13 567.357 1458.12 567.621 1457.19 567.621 1456.35 567.621 1455.68 567.35 1455.13 566.81 1454.71 566.27 1454.29 565.5 1454.04 564.5 1453.96L564.946 1451.98 582.332 1451.98 581.886 1453.96C580.805 1454.12 579.583 1454.68 578.218 1455.64 576.854 1456.6 574.767 1458.47 571.957 1461.26L556.232 1476.58 564.865 1497.33C565.756 1499.46 566.493 1501 567.073 1501.95 567.654 1502.89 568.35 1503.64 569.161 1504.2 569.971 1504.75 570.971 1505.12 572.16 1505.31L571.714 1507.3 556.07 1507.3 556.516 1505.31C557.975 1505.18 558.705 1504.53 558.705 1503.36 558.705 1502.64 558.556 1501.8 558.259 1500.87 557.962 1499.94 557.61 1498.97 557.205 1497.97L551.936 1485.09C551.315 1483.55 550.775 1482.47 550.315 1481.84 549.856 1481.22 549.37 1480.79 548.856 1480.55 548.343 1480.3 547.546 1480.18 546.465 1480.18L544.196 1480.18 540.832 1495.5C540.481 1497.12 540.251 1498.4 540.143 1499.33 540.035 1500.26 539.981 1501.1 539.981 1501.82 539.981 1503.04 540.285 1503.9 540.893 1504.4 541.501 1504.9 542.521 1505.2 543.953 1505.31L543.507 1507.3 527.296 1507.3 527.742 1505.31C528.768 1505.15 529.538 1504.88 530.052 1504.52 530.565 1504.16 530.997 1503.65 531.349 1503 531.7 1502.35 532.024 1501.56 532.321 1500.63 532.618 1499.7 533.064 1497.89 533.659 1495.22L540.548 1464.01C541.143 1461.31 541.44 1459.14 541.44 1457.49 541.44 1456.22 541.122 1455.33 540.487 1454.83 539.853 1454.33 538.846 1454.04 537.468 1453.96Z" fill-rule="evenodd"/><text fill="#000000" fill-opacity="0" font-family="Arial,Arial_MSFontService,sans-serif" font-size="55.3198" x="527.296" y="1500.38">๐พ</text><rect x="1372" y="1315" width="432" height="326" fill="#D74514"/><text fill="#FFFFFF" font-family="Microsoft YaHei,Microsoft YaHei_MSFontService,sans-serif" font-weight="700" font-size="83" transform="matrix(1 0 0 1 1507.07 1458)">DES<tspan font-size="83" x="-1.44373" y="99">่งฃๅฏ</tspan></text><path d="M1563.83 1823.42C1562.16 1823.42 1560.4 1823.46 1558.56 1823.54L1553.05 1848.1 1557.27 1848.1C1560.53 1848.1 1563.18 1847.76 1565.19 1847.08 1567.2 1846.41 1568.85 1845.36 1570.13 1843.94 1571.42 1842.52 1572.41 1840.84 1573.11 1838.9 1573.81 1836.95 1574.17 1834.82 1574.17 1832.49 1574.17 1829.36 1573.37 1827.06 1571.77 1825.6 1570.18 1824.14 1567.53 1823.42 1563.83 1823.42ZM1546.85 1819.85 1564.72 1819.85C1567.94 1819.85 1570.58 1820.1 1572.65 1820.6 1574.71 1821.1 1576.41 1821.87 1577.75 1822.91 1579.09 1823.95 1580.09 1825.27 1580.75 1826.86 1581.41 1828.45 1581.74 1830.31 1581.74 1832.41 1581.74 1836.47 1580.78 1839.98 1578.87 1842.95 1576.95 1845.92 1574.35 1848.11 1571.07 1849.52 1567.78 1850.92 1563.84 1851.62 1559.25 1851.62 1556.5 1851.62 1554.2 1851.57 1552.36 1851.46L1549.77 1863.38C1549.52 1864.48 1549.36 1865.33 1549.26 1865.93 1549.17 1866.52 1549.09 1867.16 1549.02 1867.85 1548.95 1868.54 1548.92 1869.16 1548.92 1869.7 1548.92 1870.54 1549.05 1871.19 1549.32 1871.66 1549.59 1872.14 1550 1872.48 1550.54 1872.7 1551.08 1872.91 1552.01 1873.07 1553.33 1873.18L1552.89 1875.17 1536.23 1875.17 1536.68 1873.18C1537.7 1873.02 1538.47 1872.76 1538.99 1872.39 1539.5 1872.03 1539.93 1871.52 1540.28 1870.87 1540.64 1870.22 1540.96 1869.43 1541.26 1868.5 1541.55 1867.57 1542 1865.77 1542.59 1863.09L1549.48 1831.89C1550.08 1829.18 1550.38 1827.05 1550.38 1825.48 1550.38 1824.16 1550.07 1823.24 1549.44 1822.73 1548.82 1822.21 1547.81 1821.92 1546.4 1821.83Z" fill-rule="evenodd"/><text fill="#000000" fill-opacity="0" font-family="Arial,Arial_MSFontService,sans-serif" font-size="55.3198" x="1536.23" y="1868.25">๐</text><path d="M1593.82 1853.44C1595.89 1853.44 1597.65 1853.67 1599.11 1854.14 1600.57 1854.61 1601.76 1855.24 1602.67 1856.03 1603.58 1856.83 1604.24 1857.78 1604.65 1858.89 1605.06 1860 1605.26 1861.2 1605.26 1862.5 1605.26 1863.27 1605.21 1863.99 1605.1 1864.65 1604.99 1865.32 1604.8 1865.98 1604.53 1866.62 1604.26 1867.27 1603.91 1867.92 1603.47 1868.57 1603.04 1869.23 1602.49 1869.92 1601.84 1870.66 1601.34 1871.29 1600.69 1872.03 1599.9 1872.86 1599.11 1873.69 1598.24 1874.59 1597.29 1875.54 1596.35 1876.49 1595.36 1877.49 1594.33 1878.52 1593.3 1879.55 1592.3 1880.58 1591.32 1881.59 1590.35 1882.6 1589.46 1883.58 1588.64 1884.54 1587.83 1885.49 1587.16 1886.36 1586.65 1887.16L1597.67 1887.16C1598.6 1887.16 1599.34 1887.12 1599.9 1887.05 1600.46 1886.98 1600.92 1886.83 1601.29 1886.59 1601.65 1886.35 1601.97 1885.99 1602.22 1885.5 1602.48 1885.02 1602.78 1884.35 1603.12 1883.49L1605.89 1883.49C1605.79 1884.9 1605.69 1886.32 1605.6 1887.75 1605.52 1889.18 1605.42 1890.6 1605.32 1892.01L1580.09 1892.01 1580.09 1890.46C1580.57 1889.39 1581.13 1888.33 1581.76 1887.29 1582.4 1886.25 1583.11 1885.19 1583.91 1884.12 1584.7 1883.05 1585.6 1881.94 1586.62 1880.8 1587.63 1879.66 1588.75 1878.47 1589.98 1877.24 1591.85 1875.37 1593.37 1873.78 1594.54 1872.46 1595.71 1871.14 1596.63 1869.96 1597.31 1868.93 1597.98 1867.9 1598.45 1866.94 1598.69 1866.07 1598.94 1865.2 1599.07 1864.26 1599.07 1863.27 1599.07 1862.26 1598.92 1861.32 1598.63 1860.47 1598.35 1859.62 1597.93 1858.89 1597.4 1858.3 1596.86 1857.7 1596.18 1857.23 1595.36 1856.9 1594.53 1856.56 1593.59 1856.39 1592.51 1856.39 1590.67 1856.39 1589.12 1856.89 1587.87 1857.89 1586.62 1858.9 1585.64 1860.35 1584.95 1862.26L1581.05 1862.26 1581.05 1856.45C1583.59 1855.4 1585.93 1854.63 1588.06 1854.16 1590.2 1853.68 1592.12 1853.44 1593.82 1853.44Z" fill-rule="evenodd"/><text fill="#000000" fill-opacity="0" font-family="Arial,Arial_MSFontService,sans-serif" font-size="38.5718" x="1580.09" y="1887.19">2</text><path d="M1567.25 1073.6C1569.71 1073.6 1571.99 1073.75 1574.08 1074.04 1576.18 1074.34 1578.51 1074.88 1581.07 1075.66L1578.64 1086.65 1574.75 1086.65C1574.53 1083.32 1573.81 1080.93 1572.58 1079.45 1571.35 1077.98 1569.37 1077.24 1566.65 1077.24 1562.92 1077.24 1559.45 1079.11 1556.25 1082.84 1553.05 1086.57 1550.52 1091.49 1548.65 1097.61 1546.79 1103.73 1545.85 1109.41 1545.85 1114.65 1545.85 1118.76 1546.58 1121.78 1548.04 1123.73 1549.5 1125.67 1551.74 1126.65 1554.77 1126.65 1556.8 1126.65 1558.57 1126.34 1560.08 1125.74 1561.59 1125.13 1563.01 1124.1 1564.34 1122.66 1565.66 1121.21 1566.97 1119.19 1568.27 1116.6L1572.16 1116.6 1569.68 1128.11C1564.63 1129.51 1559.34 1130.21 1553.8 1130.21 1548.72 1130.21 1544.86 1128.76 1542.21 1125.84 1539.56 1122.92 1538.24 1118.65 1538.24 1113.03 1538.24 1109.06 1538.94 1104.48 1540.36 1099.29 1541.78 1094.1 1543.79 1089.55 1546.38 1085.63 1548.98 1081.72 1552.04 1078.73 1555.58 1076.68 1559.12 1074.62 1563.01 1073.6 1567.25 1073.6Z" fill-rule="evenodd"/><text fill="#000000" fill-opacity="0" font-family="Arial,Arial_MSFontService,sans-serif" font-size="56.6167" x="1538.24" y="1123.14">๐ถ</text><path d="M1594.98 1107.84C1597.05 1107.84 1598.81 1108.07 1600.27 1108.54 1601.73 1109 1602.91 1109.63 1603.83 1110.43 1604.74 1111.22 1605.4 1112.18 1605.81 1113.29 1606.22 1114.4 1606.42 1115.6 1606.42 1116.89 1606.42 1117.67 1606.36 1118.39 1606.26 1119.05 1606.15 1119.72 1605.96 1120.37 1605.69 1121.02 1605.42 1121.66 1605.07 1122.31 1604.63 1122.97 1604.2 1123.62 1603.65 1124.32 1602.99 1125.05 1602.5 1125.69 1601.85 1126.42 1601.06 1127.26 1600.26 1128.09 1599.39 1128.98 1598.45 1129.94 1597.51 1130.89 1596.52 1131.88 1595.49 1132.92 1594.46 1133.95 1593.45 1134.97 1592.48 1135.98 1591.51 1137 1590.61 1137.98 1589.8 1138.93 1588.98 1139.89 1588.32 1140.76 1587.8 1141.55L1598.82 1141.55C1599.76 1141.55 1600.5 1141.52 1601.06 1141.45 1601.61 1141.38 1602.08 1141.23 1602.44 1140.99 1602.81 1140.75 1603.12 1140.39 1603.38 1139.9 1603.64 1139.41 1603.94 1138.74 1604.27 1137.89L1607.04 1137.89C1606.95 1139.3 1606.85 1140.72 1606.76 1142.15 1606.67 1143.58 1606.58 1145 1606.48 1146.41L1581.25 1146.41 1581.25 1144.86C1581.73 1143.79 1582.28 1142.73 1582.92 1141.69 1583.55 1140.65 1584.27 1139.59 1585.06 1138.52 1585.86 1137.44 1586.76 1136.34 1587.77 1135.2 1588.79 1134.05 1589.91 1132.87 1591.14 1131.64 1593.01 1129.77 1594.52 1128.18 1595.7 1126.86 1596.87 1125.53 1597.79 1124.36 1598.47 1123.33 1599.14 1122.29 1599.6 1121.34 1599.85 1120.47 1600.1 1119.59 1600.22 1118.66 1600.22 1117.67 1600.22 1116.65 1600.08 1115.72 1599.79 1114.87 1599.5 1114.01 1599.09 1113.29 1598.56 1112.69 1598.02 1112.1 1597.34 1111.63 1596.52 1111.29 1595.69 1110.96 1594.74 1110.79 1593.67 1110.79 1591.82 1110.79 1590.28 1111.29 1589.02 1112.29 1587.77 1113.29 1586.8 1114.75 1586.11 1116.65L1582.2 1116.65 1582.2 1110.85C1584.75 1109.79 1587.08 1109.03 1589.22 1108.55 1591.35 1108.08 1593.27 1107.84 1594.98 1107.84Z" fill-rule="evenodd"/><text fill="#000000" fill-opacity="0" font-family="Arial,Arial_MSFontService,sans-serif" font-size="38.5718" x="1581.25" y="1141.59">2</text><path d="M1283.5 1473.92 1331.63 1473.92 1331.63 1483.08 1283.5 1483.08ZM1327.04 1455.58 1372.88 1478.5 1327.04 1501.42Z"/><path d="M1212.54 1451.98 1228.75 1451.98 1228.3 1453.96C1227.28 1454.18 1226.54 1454.42 1226.09 1454.69 1225.65 1454.96 1225.25 1455.37 1224.9 1455.91 1224.55 1456.45 1224.18 1457.29 1223.8 1458.44 1223.43 1459.59 1222.95 1461.46 1222.39 1464.05L1219.51 1476.98 1220.85 1476.98C1221.98 1476.98 1223.01 1476.79 1223.95 1476.41 1224.88 1476.04 1225.97 1475.35 1227.21 1474.35 1228.45 1473.35 1230.43 1471.51 1233.15 1468.84 1235.86 1466.16 1237.79 1464.13 1238.94 1462.74 1240.09 1461.34 1240.93 1460.14 1241.45 1459.13 1241.98 1458.12 1242.24 1457.19 1242.24 1456.35 1242.24 1455.68 1241.97 1455.13 1241.43 1454.71 1240.89 1454.29 1240.12 1454.04 1239.12 1453.96L1239.57 1451.98 1256.96 1451.98 1256.51 1453.96C1255.43 1454.12 1254.21 1454.68 1252.84 1455.64 1251.48 1456.6 1249.39 1458.47 1246.58 1461.26L1230.86 1476.58 1239.49 1497.33C1240.38 1499.46 1241.12 1501 1241.7 1501.95 1242.28 1502.89 1242.97 1503.64 1243.78 1504.2 1244.59 1504.75 1245.59 1505.12 1246.78 1505.31L1246.34 1507.3 1230.69 1507.3 1231.14 1505.31C1232.6 1505.18 1233.33 1504.53 1233.33 1503.36 1233.33 1502.64 1233.18 1501.8 1232.88 1500.87 1232.59 1499.94 1232.23 1498.97 1231.83 1497.97L1226.56 1485.09C1225.94 1483.55 1225.4 1482.47 1224.94 1481.84 1224.48 1481.22 1223.99 1480.79 1223.48 1480.55 1222.97 1480.3 1222.17 1480.18 1221.09 1480.18L1218.82 1480.18 1215.46 1495.5C1215.1 1497.12 1214.87 1498.4 1214.77 1499.33 1214.66 1500.26 1214.6 1501.1 1214.6 1501.82 1214.6 1503.04 1214.91 1503.9 1215.52 1504.4 1216.12 1504.9 1217.14 1505.2 1218.58 1505.31L1218.13 1507.3 1201.92 1507.3 1202.37 1505.31C1203.39 1505.15 1204.16 1504.88 1204.68 1504.52 1205.19 1504.16 1205.62 1503.65 1205.97 1503 1206.32 1502.35 1206.65 1501.56 1206.94 1500.63 1207.24 1499.7 1207.69 1497.89 1208.28 1495.22L1215.17 1464.01C1215.77 1461.31 1216.06 1459.14 1216.06 1457.49 1216.06 1456.22 1215.75 1455.33 1215.11 1454.83 1214.48 1454.33 1213.47 1454.04 1212.09 1453.96Z" fill-rule="evenodd"/><text fill="#000000" fill-opacity="0" font-family="Arial,Arial_MSFontService,sans-serif" font-size="55.3198" x="1201.92" y="1500.38">๐พ</text><rect x="2327" y="1315" width="432" height="326" fill="#D74514"/><text fill="#FFFFFF" font-family="Microsoft YaHei,Microsoft YaHei_MSFontService,sans-serif" font-weight="700" font-size="83" transform="matrix(1 0 0 1 2461.82 1458)">DES<tspan font-size="83" x="-1.44385" y="99">่งฃๅฏ</tspan></text><path d="M2512.73 1823.42C2511.05 1823.42 2509.29 1823.46 2507.46 1823.54L2501.95 1848.1 2506.16 1848.1C2509.43 1848.1 2512.07 1847.76 2514.08 1847.08 2516.1 1846.41 2517.74 1845.36 2519.03 1843.94 2520.31 1842.52 2521.3 1840.84 2522.01 1838.9 2522.71 1836.95 2523.06 1834.82 2523.06 1832.49 2523.06 1829.36 2522.26 1827.06 2520.67 1825.6 2519.07 1824.14 2516.43 1823.42 2512.73 1823.42ZM2495.74 1819.85 2513.62 1819.85C2516.83 1819.85 2519.47 1820.1 2521.54 1820.6 2523.61 1821.1 2525.31 1821.87 2526.65 1822.91 2527.98 1823.95 2528.98 1825.27 2529.65 1826.86 2530.31 1828.45 2530.64 1830.31 2530.64 1832.41 2530.64 1836.47 2529.68 1839.98 2527.76 1842.95 2525.84 1845.92 2523.24 1848.11 2519.96 1849.52 2516.68 1850.92 2512.74 1851.62 2508.15 1851.62 2505.39 1851.62 2503.09 1851.57 2501.26 1851.46L2498.66 1863.38C2498.42 1864.48 2498.25 1865.33 2498.16 1865.93 2498.06 1866.52 2497.98 1867.16 2497.91 1867.85 2497.84 1868.54 2497.81 1869.16 2497.81 1869.7 2497.81 1870.54 2497.95 1871.19 2498.22 1871.66 2498.49 1872.14 2498.89 1872.48 2499.43 1872.7 2499.97 1872.91 2500.9 1873.07 2502.23 1873.18L2501.78 1875.17 2485.13 1875.17 2485.57 1873.18C2486.6 1873.02 2487.37 1872.76 2487.88 1872.39 2488.4 1872.03 2488.83 1871.52 2489.18 1870.87 2489.53 1870.22 2489.85 1869.43 2490.15 1868.5 2490.45 1867.57 2490.89 1865.77 2491.49 1863.09L2498.38 1831.89C2498.97 1829.18 2499.27 1827.05 2499.27 1825.48 2499.27 1824.16 2498.96 1823.24 2498.34 1822.73 2497.72 1822.21 2496.7 1821.92 2495.3 1821.83Z" fill-rule="evenodd"/><text fill="#000000" fill-opacity="0" font-family="Arial,Arial_MSFontService,sans-serif" font-size="55.3198" x="2485.13" y="1868.25">๐</text><path d="M2534.2 1853.38 2544.48 1853.38C2545.41 1855.86 2546.37 1858.36 2547.35 1860.87 2548.33 1863.38 2549.3 1865.89 2550.25 1868.39 2551.21 1870.89 2552.13 1873.36 2553.01 1875.79 2553.89 1878.23 2554.7 1880.6 2555.44 1882.93L2555.82 1882.93C2556.04 1881.66 2556.32 1880.15 2556.66 1878.42 2557 1876.68 2557.39 1874.88 2557.85 1873.01 2558.19 1871.6 2558.53 1870.15 2558.88 1868.66 2559.22 1867.17 2559.55 1865.74 2559.85 1864.37 2560.14 1863 2560.39 1861.74 2560.57 1860.57 2560.76 1859.41 2560.86 1858.45 2560.86 1857.7 2560.86 1856.83 2560.63 1856.21 2560.19 1855.84 2559.74 1855.47 2558.91 1855.28 2557.7 1855.26L2558.12 1853.38 2569.17 1853.38 2568.78 1855.17C2568.11 1855.37 2567.57 1855.54 2567.17 1855.69 2566.78 1855.84 2566.44 1856.13 2566.16 1856.55 2565.88 1856.98 2565.62 1857.6 2565.37 1858.41 2565.12 1859.23 2564.83 1860.4 2564.49 1861.93L2557.76 1892.01 2553.26 1892.01C2552.21 1889.31 2551.13 1886.59 2550.03 1883.85 2548.93 1881.11 2547.85 1878.37 2546.78 1875.63 2545.72 1872.89 2544.7 1870.17 2543.73 1867.47 2542.76 1864.77 2541.87 1862.11 2541.08 1859.49L2540.69 1859.49C2540.59 1860.1 2540.47 1860.82 2540.34 1861.63 2540.2 1862.45 2540.04 1863.32 2539.87 1864.27 2539.71 1865.21 2539.53 1866.18 2539.34 1867.17 2539.15 1868.16 2538.96 1869.16 2538.76 1870.15 2538.58 1870.9 2538.37 1871.78 2538.12 1872.79 2537.87 1873.79 2537.62 1874.86 2537.36 1876 2537.1 1877.14 2536.84 1878.3 2536.57 1879.47 2536.3 1880.64 2536.06 1881.76 2535.84 1882.82 2535.62 1883.89 2535.45 1884.85 2535.32 1885.73 2535.19 1886.6 2535.12 1887.29 2535.12 1887.78 2535.12 1888.62 2535.36 1889.21 2535.84 1889.56 2536.31 1889.9 2537.13 1890.12 2538.28 1890.2L2537.95 1892.01 2526.84 1892.01 2527.23 1890.2C2527.83 1890.1 2528.32 1889.98 2528.72 1889.84 2529.12 1889.7 2529.46 1889.42 2529.76 1888.99 2530.06 1888.56 2530.34 1887.92 2530.61 1887.07 2530.88 1886.21 2531.18 1885.01 2531.52 1883.46L2536.4 1861.75C2536.58 1860.96 2536.72 1860.22 2536.81 1859.53 2536.9 1858.85 2536.94 1858.24 2536.94 1857.7 2536.94 1856.83 2536.71 1856.21 2536.26 1855.84 2535.8 1855.47 2534.96 1855.28 2533.75 1855.26Z" fill-rule="evenodd"/><text fill="#000000" fill-opacity="0" font-family="Arial,Arial_MSFontService,sans-serif" font-size="38.6313" x="2526.84" y="1887.18">๐</text><path d="M2516.15 1073.6C2518.61 1073.6 2520.88 1073.75 2522.98 1074.04 2525.07 1074.34 2527.4 1074.88 2529.97 1075.66L2527.54 1086.65 2523.65 1086.65C2523.43 1083.32 2522.71 1080.93 2521.48 1079.45 2520.25 1077.98 2518.27 1077.24 2515.54 1077.24 2511.81 1077.24 2508.35 1079.11 2505.14 1082.84 2501.94 1086.57 2499.41 1091.49 2497.55 1097.61 2495.68 1103.73 2494.75 1109.41 2494.75 1114.65 2494.75 1118.76 2495.48 1121.78 2496.94 1123.73 2498.4 1125.67 2500.64 1126.65 2503.67 1126.65 2505.69 1126.65 2507.46 1126.34 2508.97 1125.74 2510.49 1125.13 2511.91 1124.1 2513.23 1122.66 2514.55 1121.21 2515.86 1119.19 2517.16 1116.6L2521.05 1116.6 2518.58 1128.11C2513.53 1129.51 2508.23 1130.21 2502.69 1130.21 2497.61 1130.21 2493.75 1128.76 2491.1 1125.84 2488.45 1122.92 2487.13 1118.65 2487.13 1113.03 2487.13 1109.06 2487.84 1104.48 2489.26 1099.29 2490.68 1094.1 2492.68 1089.55 2495.28 1085.63 2497.87 1081.72 2500.94 1078.73 2504.48 1076.68 2508.01 1074.62 2511.91 1073.6 2516.15 1073.6Z" fill-rule="evenodd"/><text fill="#000000" fill-opacity="0" font-family="Arial,Arial_MSFontService,sans-serif" font-size="56.6167" x="2487.13" y="1123.14">๐ถ</text><path d="M2535.36 1107.78 2545.63 1107.78C2546.57 1110.26 2547.52 1112.76 2548.51 1115.27 2549.49 1117.78 2550.46 1120.29 2551.41 1122.79 2552.36 1125.29 2553.28 1127.76 2554.17 1130.19 2555.05 1132.62 2555.86 1135 2556.59 1137.32L2556.98 1137.32C2557.2 1136.05 2557.48 1134.55 2557.82 1132.81 2558.15 1131.07 2558.55 1129.27 2559.01 1127.41 2559.34 1126 2559.69 1124.55 2560.03 1123.06 2560.38 1121.57 2560.7 1120.14 2561 1118.77 2561.3 1117.4 2561.54 1116.13 2561.73 1114.97 2561.92 1113.81 2562.01 1112.85 2562.01 1112.1 2562.01 1111.22 2561.79 1110.6 2561.34 1110.24 2560.9 1109.87 2560.07 1109.67 2558.86 1109.65L2559.27 1107.78 2570.32 1107.78 2569.94 1109.57C2569.26 1109.76 2568.73 1109.94 2568.33 1110.09 2567.93 1110.24 2567.59 1110.52 2567.32 1110.95 2567.04 1111.38 2566.78 1112 2566.53 1112.81 2566.28 1113.63 2565.99 1114.8 2565.65 1116.33L2558.92 1146.41 2554.42 1146.41C2553.37 1143.71 2552.29 1140.99 2551.19 1138.25 2550.09 1135.51 2549 1132.77 2547.94 1130.03 2546.88 1127.29 2545.86 1124.57 2544.89 1121.87 2543.92 1119.17 2543.03 1116.51 2542.24 1113.88L2541.85 1113.88C2541.75 1114.5 2541.63 1115.21 2541.49 1116.03 2541.35 1116.84 2541.2 1117.72 2541.03 1118.66 2540.86 1119.61 2540.68 1120.58 2540.5 1121.57 2540.31 1122.56 2540.11 1123.55 2539.91 1124.55 2539.74 1125.3 2539.52 1126.18 2539.27 1127.18 2539.03 1128.19 2538.77 1129.26 2538.51 1130.4 2538.26 1131.54 2537.99 1132.7 2537.73 1133.87 2537.46 1135.04 2537.21 1136.16 2537 1137.22 2536.78 1138.28 2536.6 1139.25 2536.47 1140.12 2536.34 1141 2536.28 1141.68 2536.28 1142.18 2536.28 1143.01 2536.52 1143.6 2537 1143.95 2537.47 1144.3 2538.29 1144.51 2539.44 1144.59L2539.11 1146.41 2528 1146.41 2528.39 1144.59C2528.98 1144.49 2529.48 1144.37 2529.88 1144.23 2530.27 1144.1 2530.62 1143.81 2530.92 1143.39 2531.22 1142.96 2531.5 1142.32 2531.77 1141.46 2532.04 1140.61 2532.34 1139.41 2532.68 1137.86L2537.56 1116.15C2537.74 1115.35 2537.87 1114.61 2537.96 1113.93 2538.05 1113.24 2538.1 1112.63 2538.1 1112.1 2538.1 1111.22 2537.87 1110.6 2537.41 1110.24 2536.96 1109.87 2536.12 1109.67 2534.91 1109.65Z" fill-rule="evenodd"/><text fill="#000000" fill-opacity="0" font-family="Arial,Arial_MSFontService,sans-serif" font-size="38.6313" x="2528" y="1141.58">๐</text><path d="M2237.5 1473.92 2285.62 1473.92 2285.62 1483.08 2237.5 1483.08ZM2281.04 1455.58 2326.88 1478.5 2281.04 1501.42Z"/><path d="M2167.29 1451.98 2183.5 1451.98 2183.05 1453.96C2182.03 1454.18 2181.29 1454.42 2180.84 1454.69 2180.4 1454.96 2180 1455.37 2179.65 1455.91 2179.3 1456.45 2178.93 1457.29 2178.55 1458.44 2178.18 1459.59 2177.7 1461.46 2177.14 1464.05L2174.26 1476.98 2175.6 1476.98C2176.73 1476.98 2177.76 1476.79 2178.7 1476.41 2179.63 1476.04 2180.72 1475.35 2181.96 1474.35 2183.2 1473.35 2185.18 1471.51 2187.9 1468.84 2190.61 1466.16 2192.54 1464.13 2193.69 1462.74 2194.84 1461.34 2195.68 1460.14 2196.2 1459.13 2196.73 1458.12 2196.99 1457.19 2196.99 1456.35 2196.99 1455.68 2196.72 1455.13 2196.18 1454.71 2195.64 1454.29 2194.87 1454.04 2193.87 1453.96L2194.32 1451.98 2211.71 1451.98 2211.26 1453.96C2210.18 1454.12 2208.96 1454.68 2207.59 1455.64 2206.23 1456.6 2204.14 1458.47 2201.33 1461.26L2185.61 1476.58 2194.24 1497.33C2195.13 1499.46 2195.87 1501 2196.45 1501.95 2197.03 1502.89 2197.72 1503.64 2198.53 1504.2 2199.34 1504.75 2200.34 1505.12 2201.53 1505.31L2201.09 1507.3 2185.44 1507.3 2185.89 1505.31C2187.35 1505.18 2188.08 1504.53 2188.08 1503.36 2188.08 1502.64 2187.93 1501.8 2187.63 1500.87 2187.33 1499.94 2186.98 1498.97 2186.58 1497.97L2181.31 1485.09C2180.69 1483.55 2180.15 1482.47 2179.69 1481.84 2179.23 1481.22 2178.74 1480.79 2178.23 1480.55 2177.72 1480.3 2176.92 1480.18 2175.84 1480.18L2173.57 1480.18 2170.21 1495.5C2169.85 1497.12 2169.62 1498.4 2169.52 1499.33 2169.41 1500.26 2169.35 1501.1 2169.35 1501.82 2169.35 1503.04 2169.66 1503.9 2170.27 1504.4 2170.87 1504.9 2171.89 1505.2 2173.33 1505.31L2172.88 1507.3 2156.67 1507.3 2157.11 1505.31C2158.14 1505.15 2158.91 1504.88 2159.42 1504.52 2159.94 1504.16 2160.37 1503.65 2160.72 1503 2161.07 1502.35 2161.4 1501.56 2161.69 1500.63 2161.99 1499.7 2162.44 1497.89 2163.03 1495.22L2169.92 1464.01C2170.52 1461.31 2170.81 1459.14 2170.81 1457.49 2170.81 1456.22 2170.5 1455.33 2169.86 1454.83 2169.23 1454.33 2168.22 1454.04 2166.84 1453.96Z" fill-rule="evenodd"/><text fill="#000000" fill-opacity="0" font-family="Arial,Arial_MSFontService,sans-serif" font-size="55.3198" x="2156.67" y="1500.38">๐พ</text><path d="M1997.16 1478.36C1998.56 1478.36 1999.74 1478.85 2000.68 1479.84 2001.63 1480.82 2002.1 1482.07 2002.1 1483.59 2002.1 1485.1 2001.63 1486.35 2000.68 1487.34 1999.74 1488.32 1998.56 1488.82 1997.16 1488.82 1995.75 1488.82 1994.58 1488.32 1993.63 1487.34 1992.69 1486.35 1992.21 1485.1 1992.21 1483.59 1992.21 1482.07 1992.69 1480.82 1993.63 1479.84 1994.58 1478.85 1995.75 1478.36 1997.16 1478.36ZM1972.6 1478.36C1974 1478.36 1975.18 1478.85 1976.12 1479.84 1977.07 1480.82 1977.54 1482.07 1977.54 1483.59 1977.54 1485.1 1977.07 1486.35 1976.12 1487.34 1975.18 1488.32 1974 1488.82 1972.6 1488.82 1971.19 1488.82 1970.02 1488.32 1969.07 1487.34 1968.13 1486.35 1967.65 1485.1 1967.65 1483.59 1967.65 1482.07 1968.13 1480.82 1969.07 1479.84 1970.02 1478.85 1971.19 1478.36 1972.6 1478.36ZM1948.04 1478.36C1949.44 1478.36 1950.62 1478.85 1951.56 1479.84 1952.51 1480.82 1952.98 1482.07 1952.98 1483.59 1952.98 1485.1 1952.51 1486.35 1951.56 1487.34 1950.62 1488.32 1949.44 1488.82 1948.04 1488.82 1946.63 1488.82 1945.46 1488.32 1944.51 1487.34 1943.57 1486.35 1943.09 1485.1 1943.09 1483.59 1943.09 1482.07 1943.57 1480.82 1944.51 1479.84 1945.46 1478.85 1946.63 1478.36 1948.04 1478.36Z" fill-rule="evenodd"/><text fill="#000000" fill-opacity="0" font-family="Arial,Arial_MSFontService,sans-serif" font-size="10.4561" x="1943.09" y="1487.51">โฏ</text><path d="M4.58301-0.0545282 5.73829 97.0447-3.42773 97.1538-4.58301 0.0545282ZM24.0158 92.2436 1.64603 138.346-21.8143 92.7888Z" transform="matrix(-1 0 0 1 1588.15 1641.5)"/><path d="M4.58301-0.0545282 5.73829 97.0447-3.42773 97.1538-4.58301 0.0545282ZM24.0158 92.2436 1.64603 138.346-21.8143 92.7888Z" transform="matrix(-1 0 0 1 2543.15 1641.5)"/><path d="M917.083 1167.45 918.271 1274.41 909.105 1274.51 907.917 1167.55ZM936.552 1269.62 914.146 1315.7 890.722 1270.13Z"/><path d="M1591.08 1167.45 1592.27 1274.41 1583.1 1274.51 1581.92 1167.55ZM1610.55 1269.62 1588.15 1315.7 1564.72 1270.13Z"/><path d="M2546.08 1167.45 2547.27 1274.41 2538.1 1274.51 2536.92 1167.55ZM2565.55 1269.62 2543.15 1315.7 2519.72 1270.13Z"/></g></svg>