<svg xmlns="http://www.w3.org/2000/svg" width="1826" height="1061" overflow="hidden"><defs><clipPath id="a"><path d="M243 123h1826v1061H243z"/></clipPath></defs><g clip-path="url(#a)" transform="translate(-243 -123)"><path fill="#d74514" d="M243 214h502v218H243z"/><path fill="#fff" fill-rule="evenodd" d="M526.061 302.098q-3.485 0-4.579.081v22.533h4.012q4.134 0 6.545-1.459 2.412-1.458 3.364-3.951t.952-6.18q0-5.512-2.594-8.268t-7.7-2.756m-21.479-4.742h23.627q5.836 0 9.706 1.054 3.871 1.054 6.161 2.898a12.1 12.1 0 0 1 3.505 4.559q1.216 2.715 1.216 6.404 0 3.971-1.398 6.808-1.399 2.837-3.769 4.722-2.371 1.884-6.343 3.546v.405q3 1.298 4.965 3.465 1.965 2.168 3.546 5.492l2.553 5.511q1.702 3.688 3.384 5.532 1.683 1.845 3.992 2.249v2.675h-15.603q-2.35-3.241-5.309-9.645l-3.161-6.93q-1.418-3.081-2.432-4.377-1.013-1.297-2.087-1.784-1.074-.486-3.303-.486h-2.35v13.05q0 3.04.283 4.255.283 1.216 1.095 1.946.81.729 2.999 1.296v2.675h-21.277v-2.675q2.189-.567 2.978-1.296t1.074-1.925q.284-1.196.284-4.276v-34.935q0-3.08-.263-4.275-.264-1.196-1.074-1.925-.811-.73-2.999-1.338Zm-90 0h39.19v12.888h-5.553q-1.337-3.85-2.269-5.208-.933-1.357-2.229-2.148-1.297-.79-4.418-.79h-7.821v20.629h5.187q1.905 0 2.938-.588t1.703-1.966q.668-1.377 1.114-3.89h4.58v17.67h-4.58q-.486-2.553-1.175-3.952-.69-1.398-1.702-1.965-1.014-.568-2.878-.568h-5.187v15.036q0 3.16.324 4.397.325 1.236 1.276 1.986t3.303 1.114v2.675h-21.803v-2.675q2.148-.526 2.938-1.276t1.094-1.945.304-4.317v-34.894q0-3.08-.263-4.275-.264-1.196-1.074-1.925-.811-.73-2.999-1.338Zm-46 0h21.277v2.675q-2.148.568-2.939 1.297-.79.73-1.114 1.945t-.324 4.215v40.366h7.862q2.553 0 4.154-.953 1.6-.952 2.756-3.202 1.155-2.248 2.29-7.396h5.552l-.892 16.373h-38.622v-2.675q2.189-.567 2.978-1.296t1.074-1.946q.284-1.215.284-4.296v-34.894q0-3.08-.263-4.275-.264-1.196-1.074-1.925-.811-.73-2.999-1.338Zm113.831-.648q3.606 0 6.889.385t7.498 1.358v11.753h-5.552q-1.095-4.58-3.242-6.667-2.148-2.088-6.201-2.087-3.648 0-5.856 1.905-2.21 1.904-2.209 5.187 0 2.35.912 4.073.912 1.722 3.06 3.364t6.241 3.749q4.985 2.593 7.842 5.086 2.857 2.492 4.215 5.43 1.357 2.939 1.357 6.829 0 4.986-2.31 8.653t-6.727 5.633-10.213 1.966q-4.134 0-8.612-.466-4.479-.467-8.41-1.358v-12.482h5.553q1.012 4.823 3.384 7.193 2.37 2.371 6.95 2.371 4.012 0 6.262-2.067t2.249-5.876q0-3.73-2.168-6.221-2.169-2.493-7.518-5.168-4.458-2.188-7.437-4.518t-4.701-5.411q-1.722-3.08-1.723-7.051 0-4.986 2.473-8.471t7.153-5.288 10.841-1.804"/><text x="368.582" y="346.248" fill-opacity="0" font-family="Arial,Arial_MSFontService,sans-serif" font-size="56.617">𝐋𝐅𝐒𝐑</text><path fill="#fff" fill-rule="evenodd" d="M580.247 328.387h3.813q-.18 2.859-.179 7.923v24.9q0 1.727.193 2.606.194.88.686 1.43.491.55 1.414.864.923.312 2.324.476t3.693.224v2.71h-25.705v-2.71q3.306-.15 4.721-.402 1.414-.253 2.16-.76.745-.507 1.087-1.43t.342-3.008v-21.535q0-1.221-.461-1.757-.462-.536-1.266-.536-.745 0-2.1.685-1.356.685-4.453 2.8l-1.817-3.157Z"/><text x="564.699" y="364.378" fill-opacity="0" font-family="Arial,Arial_MSFontService,sans-serif" font-size="41.133">𝟏</text><path d="M745.5 1023.423h706.202V821.75h-9.167v197.09l4.583-4.583H745.5Zm724.535-197.09-22.917-45.833-22.916 45.833ZM745.5 328.083h406.882v-9.167H745.5Zm402.298 18.333 45.834-22.916-45.834-22.917Z"/><text font-family="Microsoft YaHei,Microsoft YaHei_MSFontService,sans-serif" font-size="83" font-weight="400" transform="translate(1114.99 1114)">选择控制</text><path fill="#d74514" d="M243 562h502v218H243z"/><path fill="#fff" fill-rule="evenodd" d="M526.061 649.679q-3.485 0-4.579.081v22.533h4.012q4.134 0 6.545-1.459 2.412-1.46 3.364-3.951.952-2.493.952-6.181 0-5.511-2.594-8.267t-7.7-2.756m-21.479-4.742h23.627q5.836 0 9.706 1.054 3.871 1.053 6.161 2.897a12.14 12.14 0 0 1 3.505 4.56q1.216 2.715 1.216 6.403 0 3.972-1.398 6.809-1.399 2.837-3.769 4.721t-6.343 3.546v.405q3 1.297 4.965 3.466 1.965 2.167 3.546 5.491l2.553 5.512q1.702 3.687 3.384 5.532 1.683 1.844 3.992 2.249v2.675h-15.603q-2.35-3.243-5.309-9.646l-3.161-6.93q-1.418-3.08-2.432-4.377-1.013-1.297-2.087-1.783t-3.303-.486h-2.35v13.049q0 3.04.283 4.256.283 1.215 1.095 1.945.81.73 2.999 1.297v2.675h-21.277v-2.675q2.189-.567 2.978-1.297t1.074-1.925q.284-1.195.284-4.276V655.15q0-3.08-.263-4.276-.264-1.196-1.074-1.925-.811-.73-2.999-1.337Zm-90 0h39.19v12.888h-5.553q-1.337-3.85-2.269-5.208t-2.229-2.148-4.418-.79h-7.821v20.628h5.187q1.905 0 2.938-.588 1.034-.587 1.703-1.965.668-1.378 1.114-3.891h4.58v17.67h-4.58q-.486-2.553-1.175-3.951t-1.702-1.966-2.878-.567h-5.187v15.035q0 3.162.324 4.398.325 1.236 1.276 1.985t3.303 1.115v2.675h-21.803v-2.675q2.148-.527 2.938-1.277t1.094-1.945.304-4.316V655.15q0-3.08-.263-4.276-.264-1.196-1.074-1.925-.811-.73-2.999-1.337Zm-46 0h21.277v2.675q-2.148.567-2.939 1.297-.79.729-1.114 1.945-.324 1.215-.324 4.215v40.365h7.862q2.553 0 4.154-.952 1.6-.953 2.756-3.202t2.29-7.396h5.552l-.892 16.373h-38.622v-2.675q2.189-.567 2.978-1.297t1.074-1.945q.284-1.216.284-4.296V655.15q0-3.08-.263-4.276-.264-1.196-1.074-1.925-.811-.73-2.999-1.337Zm113.831-.648q3.606 0 6.889.385t7.498 1.357v11.753h-5.552q-1.095-4.58-3.242-6.667t-6.201-2.087q-3.648 0-5.856 1.905-2.21 1.905-2.209 5.187 0 2.351.912 4.073t3.06 3.364 6.241 3.749q4.985 2.594 7.842 5.086t4.215 5.431q1.357 2.938 1.357 6.829 0 4.985-2.31 8.652-2.31 3.668-6.727 5.634-4.418 1.965-10.213 1.965-4.134 0-8.612-.466-4.479-.466-8.41-1.358v-12.482h5.553q1.012 4.822 3.384 7.194 2.37 2.37 6.95 2.371 4.012 0 6.262-2.067t2.249-5.877q0-3.728-2.168-6.221t-7.518-5.167q-4.458-2.188-7.437-4.519t-4.701-5.41q-1.722-3.08-1.723-7.052 0-4.985 2.473-8.47t7.153-5.289 10.841-1.803"/><text x="368.582" y="693.828" fill-opacity="0" font-family="Arial,Arial_MSFontService,sans-serif" font-size="56.617">𝐋𝐅𝐒𝐑</text><path fill="#fff" fill-rule="evenodd" d="M578.013 675.967q5.63 0 8.995 2.294 3.366 2.293 3.366 6.403 0 3.456-1.981 5.958-1.98 2.5-6.627 4.646v.268q4.349.804 6.866 3.485t2.516 6.642q0 3.455-1.682 6.151-1.683 2.696-5.109 4.229-3.425 1.534-8.31 1.534-3.365 0-6.612-.611-3.246-.61-5.659-1.712v-7.476h5.361q.864 3.395 2.443 4.929 1.578 1.534 4.14 1.534 6.314 0 6.314-7.804 0-4.199-2.219-6.254-2.219-2.056-6.746-2.056h-2.353v-3.395q5.183-.208 7.863-2.428t2.681-6.418q0-3.306-1.341-4.989t-3.901-1.683q-2.502 0-4.111 1.787t-2.204 5.242h-5.361v-7.059q7.536-3.217 13.671-3.217"/><text x="563.776" y="712.376" fill-opacity="0" font-family="Arial,Arial_MSFontService,sans-serif" font-size="41.61">𝟑</text><path fill="#d74514" d="M243 909h502v219H243z"/><path fill="#fff" fill-rule="evenodd" d="M526.061 997.259q-3.485 0-4.579.081v22.53h4.012c2.756 0 4.937-.48 6.545-1.46 1.608-.97 2.729-2.29 3.364-3.95q.952-2.49.952-6.18c0-3.67-.864-6.43-2.594-8.26q-2.593-2.762-7.7-2.761m-21.479-4.742h23.627q5.836 0 9.706 1.054 3.871 1.055 6.161 2.898a12.1 12.1 0 0 1 3.505 4.561c.811 1.81 1.216 3.94 1.216 6.4q0 3.975-1.398 6.81c-.932 1.89-2.189 3.47-3.769 4.72-1.581 1.26-3.695 2.44-6.343 3.55v.4c2 .87 3.655 2.02 4.965 3.47q1.965 2.16 3.546 5.49l2.553 5.51c1.135 2.46 2.263 4.3 3.384 5.53q1.683 1.845 3.992 2.25v2.68h-15.603c-1.567-2.16-3.337-5.38-5.309-9.65l-3.161-6.93q-1.418-3.075-2.432-4.38c-.675-.86-1.371-1.45-2.087-1.78q-1.074-.48-3.303-.48h-2.35v13.04q0 3.045.283 4.26t1.095 1.95q.81.72 2.999 1.29v2.68h-21.277v-2.68q2.189-.57 2.978-1.29c.527-.49.885-1.13 1.074-1.93s.284-2.22.284-4.28v-34.93c0-2.05-.088-3.478-.263-4.275q-.264-1.196-1.074-1.925-.811-.73-2.999-1.338Zm-90 0h39.19v12.893h-5.553c-.891-2.57-1.648-4.31-2.269-5.21q-.933-1.361-2.229-2.151t-4.418-.79h-7.821v20.631h5.187c1.27 0 2.249-.2 2.938-.59s1.257-1.05 1.703-1.97c.445-.91.817-2.21 1.114-3.89h4.58v17.67h-4.58c-.324-1.7-.716-3.02-1.175-3.95s-1.027-1.59-1.702-1.96q-1.014-.57-2.878-.57h-5.187v15.03c0 2.11.108 3.58.324 4.4.216.83.642 1.49 1.276 1.99q.952.75 3.303 1.11v2.68h-21.803v-2.68c1.432-.35 2.411-.77 2.938-1.27q.79-.75 1.094-1.95t.304-4.32v-34.89c0-2.05-.088-3.478-.263-4.275q-.264-1.196-1.074-1.925-.811-.73-2.999-1.338Zm-46 0h21.277v2.675q-2.148.567-2.939 1.297t-1.114 1.945q-.324 1.216-.324 4.216v40.36h7.862c1.702 0 3.087-.31 4.154-.95 1.067-.63 1.986-1.7 2.756-3.2s1.533-3.96 2.29-7.4h5.552l-.892 16.38h-38.622v-2.68q2.189-.57 2.978-1.29.79-.735 1.074-1.95c.19-.81.284-2.24.284-4.3v-34.89c0-2.05-.088-3.478-.263-4.275q-.264-1.196-1.074-1.925-.811-.73-2.999-1.338Zm113.831-.648q3.606 0 6.889.385t7.498 1.358v11.748h-5.552q-1.095-4.574-3.242-6.662t-6.201-2.087q-3.648 0-5.856 1.905c-1.473 1.269-2.209 2.994-2.209 5.184q0 2.355.912 4.08c.608 1.14 1.628 2.27 3.06 3.36q2.148 1.635 6.241 3.75c3.323 1.73 5.937 3.42 7.842 5.08 1.905 1.67 3.31 3.48 4.215 5.44.905 1.95 1.357 4.23 1.357 6.82 0 3.33-.77 6.21-2.31 8.66-1.54 2.44-3.782 4.32-6.727 5.63s-6.35 1.97-10.213 1.97c-2.756 0-5.627-.16-8.612-.47s-5.789-.76-8.41-1.36v-12.48h5.553c.675 3.21 1.803 5.61 3.384 7.19q2.37 2.37 6.95 2.37c2.675 0 4.762-.68 6.262-2.06q2.249-2.07 2.249-5.88c0-2.49-.723-4.56-2.168-6.22s-3.952-3.38-7.518-5.17c-2.972-1.46-5.451-2.96-7.437-4.52-1.986-1.55-3.553-3.35-4.701-5.41q-1.722-3.075-1.723-7.05c0-3.32.825-6.15 2.473-8.469q2.472-3.485 7.153-5.289t10.841-1.803"/><text x="368.582" y="1041.41" fill-opacity="0" font-family="Arial,Arial_MSFontService,sans-serif" font-size="56.617">𝐋𝐅𝐒𝐑</text><path fill="#fff" fill-rule="evenodd" d="M577.924 1023.55q4.379 0 7.148 1.17c1.847.79 3.182 1.85 4.006 3.19s1.236 2.91 1.236 4.69q0 2.355-.878 4.38-.88 2.025-3.038 4.62-2.16 2.595-7.283 7.41c-1.052 1-2.308 2.3-3.768 3.92s-2.616 3-3.47 4.16v.29h10.574c1.291 0 2.254-.09 2.889-.28.636-.19 1.137-.52 1.504-.98q.552-.705.909-2.1h3.425l-.685 10.66H563.21v-1.96q2.293-5.28 9.382-13.59c2.145-2.52 3.778-4.59 4.9-6.22q1.683-2.445 2.517-4.62t.834-4.5q0-3.27-1.46-5.13c-.973-1.25-2.303-1.87-3.991-1.87-3.237 0-5.312 2.34-6.225 7h-5.361v-7.03c3.236-1.31 5.848-2.17 7.833-2.59 1.986-.41 4.081-.62 6.285-.62"/><text x="563.21" y="1059.54" fill-opacity="0" font-family="Arial,Arial_MSFontService,sans-serif" font-size="41.133">𝟐</text><path fill="#d74514" d="M1193 214h507v566h-507z"/><text fill="#fff" font-family="Microsoft YaHei,Microsoft YaHei_MSFontService,sans-serif" font-size="83" font-weight="700" transform="translate(1239.96 526)">多路复合器</text><path fill-rule="evenodd" d="M1014.8 151.63q10.695.526 16.35 7.74c3.77 4.809 5.65 12.253 5.65 22.331q0 5.43-1.23 13.495c-.83 5.377-1.24 8.876-1.24 10.497 0 3.783.79 6.741 2.35 8.875 1.57 2.135 3.85 3.229 6.85 3.283v3.486q-4.53.121-6.87 3.343c-1.55 2.148-2.33 5.073-2.33 8.774 0 1.486.41 5.174 1.24 11.064q1.23 8.835 1.23 13.496c0 9.429-1.78 16.67-5.35 21.722q-5.34 7.58-16.65 7.903v-3.242c2.38-.162 4.47-.736 6.28-1.722 1.81-.987 3.38-2.479 4.7-4.479 1.32-1.945 2.3-4.458 2.92-7.538q.93-4.62.93-11.104c0-1.919-.36-5.978-1.09-12.179-.73-6.2-1.1-9.976-1.1-11.327 0-4.647.99-8.322 2.96-11.023q2.955-4.053 5.43-5.026v-.81q-2.475-.893-5.43-5.046c-1.97-2.769-2.96-6.464-2.96-11.084 0-2.054.37-5.762 1.1-11.125s1.09-9.544 1.09-12.543c0-4.296-.34-7.964-1.03-11.003-.69-3.04-1.68-5.532-2.98-7.478q-1.95-2.917-4.68-4.356c-1.83-.96-3.87-1.52-6.14-1.682Zm-141.037 0v3.242q-3.404.243-6.161 1.682-2.755 1.439-4.68 4.356-1.926 2.918-2.959 7.478t-1.033 11.003q0 4.499 1.094 12.543t1.094 11.125q0 6.93-2.979 11.084-2.978 4.153-5.41 5.046v.81q2.432.973 5.41 5.026 2.979 4.052 2.979 11.023 0 2.027-1.094 11.327t-1.094 12.179q0 6.484.932 11.104.931 4.62 2.877 7.538 2.027 3 4.742 4.479t6.282 1.722v3.242q-11.348-.324-16.677-7.903-5.33-7.578-5.33-21.722 0-4.66 1.236-13.496t1.236-11.064q0-5.552-2.33-8.774t-6.869-3.343v-3.486q4.498-.08 6.849-3.283 2.35-3.2 2.35-8.875 0-2.431-1.236-10.497t-1.236-13.495q0-15.117 5.634-22.331 5.633-7.214 16.373-7.74m28.283 55.459q-4.174 0-7.497 3.363-3.324 3.364-5.188 9.018t-1.864 11.286q0 4.215 1.155 6.302 1.155 2.088 3.871 2.088 2.674 0 5.248-2.31 2.573-2.31 5.309-6.586t3.87-9.869l.365-1.742q.365-1.662.486-2.878.122-1.215.122-2.634 0-3.12-1.337-4.58-1.338-1.458-4.54-1.458m-.81-3.202q2.634 0 4.924.587 2.29.588 4.721 2.088l3.729-2.675 2.594.648-5.958 25.695q-.891 3.85-.891 5.998 0 1.62.526 2.35.527.73 1.662.73 1.216 0 2.594-.993t3.89-3.789l2.31 2.269q-3.647 3.891-6.22 5.532t-5.573 1.641q-2.513 0-4.012-1.661-1.5-1.662-1.5-4.418 0-2.229.932-4.741l-.526-.163q-3.891 5.674-7.376 8.309t-7.376 2.634q-4.458 0-6.91-3.364t-2.452-9.443q0-6.97 2.735-13.394 2.736-6.423 7.518-10.132t10.659-3.708"/><text x="880.324" y="238.958" fill-opacity="0" font-family="Arial,Arial_MSFontService,sans-serif" font-size="40.081">𝑎</text><path fill-rule="evenodd" d="M937.986 227.482h2.144l-5.242 23.173h.834q1.132 0 2.442-.477a16 16 0 0 0 2.607-1.236 21 21 0 0 0 2.487-1.712 20 20 0 0 0 2.1-1.922q.908-.968 1.444-1.831.537-.864.536-1.46 0-.714-.476-1.162-.477-.446-1.728-.595l.358-1.906h10.722l.745 1.846a124 124 0 0 1-3.604 2.979 238 238 0 0 1-6.687 5.123 329 329 0 0 0-3.381 2.532q.716 2.264 1.46 4.601.745 2.339 1.489 4.632.358 1.221.67 2.1t.671 1.429q.357.552.774.82t1.013.268q.417 0 .863-.149.447-.15.998-.536.552-.388 1.251-1.058.7-.67 1.594-1.683l2.025 1.936a44 44 0 0 1-2.606 2.473 18 18 0 0 1-2.294 1.712q-1.086.67-2.099.983a7 7 0 0 1-2.056.313q-1.876 0-3.023-.938-1.146-.939-1.951-2.681-.804-1.743-1.474-4.215a270 270 0 0 0-1.564-5.51 9 9 0 0 0-.402-1.147q-.194-.432-.491-.655a1.6 1.6 0 0 0-.745-.283 9 9 0 0 0-1.132-.059h-1.906l-3.276 14.952h-5.719l7.208-31.99q.357-1.578.506-2.487.149-.907.149-1.623 0-.566-.194-.983a1.5 1.5 0 0 0-.64-.67q-.447-.254-1.191-.372a14 14 0 0 0-1.847-.149l.447-2.026Z"/><text x="925.357" y="263.526" fill-opacity="0" font-family="Arial,Arial_MSFontService,sans-serif" font-size="41.193">𝑘</text><path fill-rule="evenodd" d="M985.804 156.166q8.698 2.294 13.359 9.903 4.659 7.611 4.657 18.363c0 7.188-1.54 13.309-4.642 18.362q-4.647 7.58-13.374 9.874l-.714-2.293q6.88-2.293 10.231-9.055 3.351-6.76 3.351-17.186 0-10.067-3.336-16.724T985 158.459Zm-38.504 0 .804 2.293q-6.97 2.294-10.321 8.951t-3.35 16.724q0 10.425 3.35 17.186 3.351 6.762 10.232 9.055l-.715 2.293q-8.727-2.293-13.374-9.874-4.646-7.58-4.646-18.362 0-10.752 4.661-18.363 4.662-7.61 13.359-9.903m21.725 7.22h1.817a237 237 0 0 0-.134 5.451q-.015 1.221-.015 2.412v22.637q0 .923.06 1.593t.194 1.132.357.789q.224.329.521.566.358.358.953.551.597.194 1.519.328.924.134 2.219.209 1.296.074 3.113.104v2.591h-23.62v-2.591q1.758-.06 2.979-.134t2.085-.209a10 10 0 0 0 1.385-.298q.52-.163.908-.402.418-.267.715-.58.298-.313.477-.79.178-.476.283-1.161t.104-1.698V172.53q0-1.162-.447-1.638-.447-.477-1.281-.477-.923 0-2.74.953-1.817.954-4.706 2.83a23 23 0 0 1-.715-1.37 84 84 0 0 0-.685-1.4q3.693-2.025 7.312-4.036a558 558 0 0 1 7.342-4.006"/><text x="954.371" y="196.954" fill-opacity="0" font-family="Arial,Arial_MSFontService,sans-serif" font-size="38.363">1</text><path fill-rule="evenodd" d="M1017.54 499.209q10.695.528 16.35 7.741c3.77 4.809 5.65 12.253 5.65 22.331q0 5.43-1.23 13.495c-.83 5.377-1.24 8.876-1.24 10.497 0 3.782.78 6.741 2.35 8.875s3.85 3.229 6.85 3.283v3.485q-4.545.122-6.87 3.344c-1.55 2.148-2.33 5.072-2.33 8.774 0 1.486.41 5.174 1.24 11.064q1.23 8.835 1.23 13.496c0 9.429-1.78 16.67-5.35 21.722-3.56 5.053-9.12 7.687-16.65 7.903v-3.242c2.37-.162 4.47-.736 6.28-1.723 1.81-.986 3.37-2.478 4.7-4.478 1.32-1.945 2.29-4.458 2.92-7.538q.93-4.62.93-11.104c0-1.919-.37-5.978-1.1-12.179s-1.09-9.976-1.09-11.327c0-4.647.99-8.322 2.96-11.024q2.955-4.053 5.43-5.025v-.811q-2.475-.891-5.43-5.045c-1.97-2.77-2.96-6.464-2.96-11.085 0-2.053.36-5.761 1.09-11.124s1.1-9.544 1.1-12.543c0-4.296-.35-7.964-1.04-11.004-.68-3.039-1.68-5.532-2.97-7.477q-1.95-2.918-4.68-4.357c-1.83-.959-3.88-1.519-6.14-1.682Zm-141.04 0v3.242q-3.405.244-6.16 1.682-2.756 1.439-4.681 4.357t-2.959 7.477-1.033 11.004q0 4.498 1.094 12.543t1.094 11.124q0 6.93-2.978 11.085-2.98 4.154-5.411 5.045v.811q2.432.972 5.411 5.025t2.978 11.024q0 2.026-1.094 11.327t-1.094 12.179q0 6.484.932 11.104.933 4.62 2.878 7.538 2.026 3 4.741 4.478 2.715 1.48 6.282 1.723v3.242q-11.348-.324-16.677-7.903-5.33-7.578-5.329-21.722 0-4.661 1.236-13.496t1.236-11.064q0-5.552-2.331-8.774t-6.869-3.344v-3.485q4.499-.08 6.849-3.283t2.351-8.875q0-2.432-1.236-10.497t-1.236-13.495q0-15.117 5.633-22.331t16.373-7.741m28.284 55.459q-4.174 0-7.498 3.364t-5.187 9.017q-1.865 5.654-1.865 11.287 0 4.215 1.156 6.302 1.155 2.088 3.87 2.087 2.675 0 5.248-2.31t5.309-6.585 3.871-9.869l.364-1.742q.366-1.662.487-2.878t.121-2.634q0-3.121-1.337-4.58-1.338-1.458-4.539-1.459m-.811-3.201q2.635 0 4.924.587 2.29.588 4.722 2.087l3.728-2.674 2.594.648-5.957 25.694q-.892 3.85-.892 5.998 0 1.622.527 2.351.527.73 1.661.73 1.217 0 2.594-.993 1.379-.993 3.891-3.79l2.31 2.27q-3.648 3.891-6.221 5.532t-5.573 1.641q-2.512 0-4.012-1.661t-1.499-4.418q0-2.23.932-4.742l-.527-.162q-3.891 5.674-7.376 8.308-3.486 2.635-7.376 2.635-4.458 0-6.91-3.364t-2.452-9.443q0-6.97 2.736-13.394 2.734-6.424 7.518-10.132 4.782-3.708 10.658-3.708"/><text x="883.061" y="586.538" fill-opacity="0" font-family="Arial,Arial_MSFontService,sans-serif" font-size="40.081">𝑎</text><path fill-rule="evenodd" d="M940.723 575.062h2.145l-5.243 23.173h.834q1.132 0 2.443-.477a16 16 0 0 0 2.606-1.236 21 21 0 0 0 2.487-1.713 20 20 0 0 0 2.1-1.921q.909-.968 1.444-1.832.537-.864.537-1.459 0-.715-.477-1.162t-1.727-.595l.357-1.907h10.723l.744 1.847a122 122 0 0 1-3.604 2.978 237 237 0 0 1-6.687 5.124 344 344 0 0 0-3.38 2.531q.714 2.264 1.459 4.602a859 859 0 0 0 1.49 4.632q.357 1.221.67 2.1.313.878.67 1.429.357.552.774.819.417.268 1.013.268.417 0 .864-.149.446-.149.998-.536.55-.387 1.251-1.057a29 29 0 0 0 1.593-1.683l2.025 1.936a44 44 0 0 1-2.606 2.472 18 18 0 0 1-2.293 1.713q-1.087.67-2.1.983a7 7 0 0 1-2.055.313q-1.877 0-3.023-.939-1.147-.938-1.951-2.68t-1.475-4.215a270 270 0 0 0-1.563-5.51 9 9 0 0 0-.403-1.147q-.193-.432-.491-.655a1.6 1.6 0 0 0-.745-.283 9 9 0 0 0-1.131-.06h-1.907l-3.276 14.952h-5.719l7.208-31.989q.357-1.578.507-2.487.148-.909.148-1.623 0-.566-.193-.983a1.5 1.5 0 0 0-.641-.67q-.446-.253-1.191-.373a14 14 0 0 0-1.847-.148l.447-2.026Z"/><text x="928.094" y="611.105" fill-opacity="0" font-family="Arial,Arial_MSFontService,sans-serif" font-size="41.193">𝑘</text><path fill-rule="evenodd" d="M988.542 503.746q8.697 2.293 13.358 9.903c3.11 5.074 4.66 11.194 4.66 18.363 0 7.188-1.55 13.309-4.64 18.362q-4.652 7.58-13.378 9.874l-.715-2.293q6.88-2.294 10.231-9.055c2.232-4.508 3.352-10.236 3.352-17.186q.002-10.068-3.337-16.724-3.336-6.657-10.335-8.951Zm-38.505 0 .804 2.293q-6.969 2.294-10.32 8.951-3.351 6.656-3.351 16.724 0 10.424 3.351 17.186 3.35 6.761 10.231 9.055l-.715 2.293q-8.727-2.293-13.373-9.874-4.647-7.58-4.647-18.362 0-10.753 4.661-18.363 4.662-7.61 13.359-9.903m19.343 7.011q2.383 0 4.453.506 2.07.507 3.589 1.534a7.4 7.4 0 0 1 2.368 2.562q.849 1.534.849 3.559 0 1.906-.536 3.366a7.8 7.8 0 0 1-1.653 2.651q-1.117 1.191-2.741 2.159-1.623.968-3.738 1.862v.357q1.996.358 3.723 1.147a11.3 11.3 0 0 1 3.024 1.996 9 9 0 0 1 2.04 2.785q.745 1.579.745 3.484 0 2.383-.894 4.423-.893 2.041-2.681 3.53-1.786 1.49-4.408 2.323-2.621.834-6.136.834a29.7 29.7 0 0 1-5.629-.551 39 39 0 0 1-5.421-1.444v-6.434h3.842q.477 1.49 1.132 2.547t1.534 1.727 2.026.968 2.606.298q3.841 0 5.823-1.832 1.98-1.831 1.98-5.555 0-3.961-2.606-6.001t-7.729-2.041h-2.621v-2.859q3.128-.149 5.406-.879 2.279-.73 3.798-1.891t2.263-2.71a7.5 7.5 0 0 0 .745-3.307q0-2.859-1.698-4.512t-4.914-1.653q-2.711 0-4.543 1.489t-2.814 4.438h-3.783v-5.868q3.514-1.489 6.627-2.248t5.972-.76"/><text x="956.334" y="544.951" fill-opacity="0" font-family="Arial,Arial_MSFontService,sans-serif" font-size="39.078">3</text><path d="M745.5 676.083h406.882v-9.167H745.5Zm402.298 18.333 45.834-22.916-45.834-22.917Z"/><path fill-rule="evenodd" d="M1026.96 852.635q10.695.527 16.35 7.741c3.77 4.809 5.65 12.253 5.65 22.33q0 5.431-1.23 13.496c-.83 5.377-1.24 8.876-1.24 10.497 0 3.782.78 6.741 2.35 8.875s3.85 3.229 6.85 3.283v3.485q-4.545.122-6.87 3.344c-1.55 2.148-2.33 5.072-2.33 8.774 0 1.486.41 5.174 1.24 11.064q1.23 8.835 1.23 13.495c0 9.43-1.78 16.671-5.35 21.723-3.56 5.052-9.12 7.687-16.65 7.903v-3.242c2.37-.162 4.47-.737 6.28-1.723s3.38-2.479 4.7-4.478c1.32-1.945 2.3-4.458 2.92-7.538q.93-4.62.93-11.105c0-1.918-.37-5.977-1.09-12.178-.73-6.201-1.1-9.977-1.1-11.327 0-4.648.99-8.322 2.96-11.024q2.955-4.053 5.43-5.025v-.811q-2.475-.891-5.43-5.045c-1.97-2.77-2.96-6.465-2.96-11.085 0-2.053.37-5.761 1.1-11.124.72-5.364 1.09-9.545 1.09-12.544 0-4.296-.34-7.963-1.03-11.003s-1.69-5.532-2.98-7.477q-1.95-2.918-4.68-4.357c-1.83-.959-3.87-1.52-6.14-1.682Zm-141.039 0v3.242q-3.403.243-6.16 1.682-2.755 1.439-4.681 4.357-1.924 2.918-2.958 7.477t-1.034 11.003q0 4.498 1.095 12.544t1.094 11.124q0 6.93-2.979 11.085-2.979 4.154-5.41 5.045v.811q2.431.972 5.41 5.025t2.979 11.024q0 2.025-1.094 11.327t-1.095 12.178q0 6.485.933 11.105.932 4.62 2.877 7.538 2.026 2.999 4.742 4.478 2.715 1.48 6.281 1.723v3.242q-11.348-.324-16.677-7.903t-5.329-21.723q0-4.66 1.236-13.495t1.236-11.064q0-5.552-2.33-8.774t-6.869-3.344v-3.485q4.499-.08 6.849-3.283t2.35-8.875q0-2.432-1.236-10.497t-1.236-13.496q0-15.116 5.633-22.33 5.634-7.214 16.373-7.741m28.284 55.459q-4.174 0-7.497 3.364-3.324 3.363-5.188 9.017t-1.864 11.287q0 4.215 1.155 6.302 1.155 2.088 3.87 2.087 2.676 0 5.249-2.31t5.309-6.586q2.735-4.275 3.87-9.868l.365-1.743q.365-1.66.486-2.877.122-1.216.122-2.634 0-3.121-1.338-4.58-1.337-1.46-4.539-1.459m-.81-3.202q2.634 0 4.924.588t4.721 2.087l3.729-2.675 2.593.649-5.957 25.694q-.891 3.85-.892 5.998 0 1.622.527 2.351.526.729 1.662.729 1.215 0 2.594-.993 1.377-.992 3.89-3.789l2.31 2.27q-3.647 3.89-6.221 5.532-2.573 1.641-5.572 1.641-2.513 0-4.012-1.662-1.5-1.661-1.5-4.417 0-2.23.932-4.742l-.527-.162q-3.89 5.674-7.376 8.308-3.485 2.634-7.376 2.634-4.458 0-6.909-3.363-2.452-3.364-2.452-9.443 0-6.97 2.735-13.394 2.736-6.424 7.518-10.132t10.659-3.709"/><text x="892.483" y="939.964" fill-opacity="0" font-family="Arial,Arial_MSFontService,sans-serif" font-size="40.081">𝑎</text><path fill-rule="evenodd" d="M950.145 928.488h2.144l-5.242 23.172h.834q1.132 0 2.442-.476 1.311-.477 2.606-1.236a21 21 0 0 0 2.488-1.713 20 20 0 0 0 2.099-1.921q.91-.968 1.445-1.832.536-.864.536-1.459 0-.715-.476-1.162-.477-.446-1.728-.596l.357-1.906h10.723l.745 1.847a124 124 0 0 1-3.604 2.978 250 250 0 0 1-6.687 5.123 345 345 0 0 0-3.381 2.532q.715 2.264 1.46 4.602t1.489 4.632q.358 1.221.67 2.099.313.88.67 1.43t.775.819 1.012.268q.417 0 .864-.149t.998-.536q.55-.387 1.251-1.057t1.594-1.683l2.025 1.936a44 44 0 0 1-2.606 2.472 18 18 0 0 1-2.294 1.713q-1.087.67-2.1.983a7 7 0 0 1-2.055.312q-1.877 0-3.023-.938t-1.951-2.68q-.804-1.743-1.474-4.215a270 270 0 0 0-1.564-5.51 9 9 0 0 0-.402-1.147q-.194-.432-.492-.655a1.56 1.56 0 0 0-.744-.283 9 9 0 0 0-1.132-.06h-1.906l-3.277 14.952h-5.718l7.208-31.989q.357-1.578.506-2.487t.149-1.623q0-.567-.194-.983a1.48 1.48 0 0 0-.64-.67q-.447-.253-1.191-.373a15 15 0 0 0-1.847-.149l.447-2.025Z"/><text x="937.516" y="964.531" fill-opacity="0" font-family="Arial,Arial_MSFontService,sans-serif" font-size="41.193">𝑘</text><path fill-rule="evenodd" d="M997.963 857.171q8.694 2.294 13.357 9.904c3.11 5.073 4.66 11.194 4.66 18.363 0 7.188-1.55 13.309-4.64 18.362q-4.65 7.58-13.377 9.874l-.715-2.294q6.887-2.294 10.232-9.054c2.23-4.508 3.35-10.236 3.35-17.186 0-6.712-1.11-12.287-3.34-16.725-2.22-4.438-5.66-7.421-10.331-8.95Zm-38.504 0 .804 2.294q-6.97 2.293-10.321 8.95t-3.351 16.725q0 10.424 3.351 17.186 3.35 6.76 10.231 9.054l-.714 2.294q-8.727-2.293-13.374-9.874-4.647-7.58-4.646-18.362 0-10.754 4.661-18.363 4.661-7.61 13.359-9.904m19.402 7.012q3.097 0 5.287.7t3.559 1.891a6.87 6.87 0 0 1 1.981 2.86q.61 1.668.611 3.604 0 1.161-.164 2.159a8.8 8.8 0 0 1-.566 1.966 11.4 11.4 0 0 1-1.058 1.951q-.654.983-1.638 2.085a31 31 0 0 1-1.936 2.204q-1.191 1.25-2.606 2.681-1.414 1.43-2.964 2.978a219 219 0 0 0-3.008 3.068 69 69 0 0 0-2.681 2.949q-1.221 1.43-1.995 2.621h11.02q1.4 0 2.234-.104.834-.105 1.385-.462t.938-1.087q.388-.73.894-2.011h2.77q-.149 2.115-.283 4.259t-.283 4.26H965.13v-1.549a28 28 0 0 1 1.668-3.172q.952-1.564 2.145-3.172a48 48 0 0 1 2.71-3.321 82 82 0 0 1 3.366-3.56q2.799-2.8 4.557-4.78 1.757-1.981 2.77-3.53t1.385-2.859.372-2.8q0-1.52-.432-2.8t-1.236-2.174-2.04-1.4-2.845-.506q-2.77 0-4.646 1.504-1.877 1.504-2.919 4.363h-3.902v-5.808q3.813-1.579 7.015-2.293t5.763-.715"/><text x="965.13" y="897.933" fill-opacity="0" font-family="Arial,Arial_MSFontService,sans-serif" font-size="38.572">2</text><path d="M1700.5 492.917h280.21v9.167l-280.21-.001Zm275.63-18.333 45.83 22.916-45.83 22.917Z"/><path fill-rule="evenodd" d="M1892.5 372.778h1.05q9.525.162 14.25 4.357c3.15 2.796 4.72 7.004 4.72 12.624 0 2.242-.32 4.796-.95 7.66q-.96 4.295-.96 5.754c0 1.865.65 3.384 1.93 4.56q1.92 1.763 5.82 1.884v3.324q-3.9.121-5.82 1.884c-1.28 1.175-1.93 2.695-1.93 4.559q0 1.46.96 5.755c.63 2.864.95 5.417.95 7.66 0 5.809-1.57 10.111-4.72 12.908q-4.725 4.194-14.25 4.357h-1.05v-3.081h.61c3.91 0 6.98-1.019 9.2-3.059 2.21-2.04 3.32-5.505 3.32-10.396q0-2.837-.81-7.011-.81-4.175-.81-5.957c0-2.297.67-4.181 2.03-5.654a12.3 12.3 0 0 1 4.82-3.262v-.73a12.3 12.3 0 0 1-4.82-3.262c-1.36-1.473-2.03-3.357-2.03-5.654q0-1.784.81-5.957.81-4.174.81-7.012c0-4.701-1.11-8.071-3.32-10.111-2.22-2.04-5.29-3.06-9.2-3.06h-.61Zm-89.65 0h1.06v3.08h-.61c-3.92 0-6.98 1.02-9.2 3.06s-3.32 5.397-3.32 10.071q0 2.836.81 7.011t.81 5.958c0 2.296-.68 4.181-2.03 5.653a12.4 12.4 0 0 1-4.82 3.263v.729c1.86.703 3.47 1.79 4.82 3.263s2.03 3.357 2.03 5.653q0 1.784-.81 5.958t-.81 7.011c0 4.917 1.1 8.396 3.32 10.436s5.28 3.059 9.2 3.059h.61v3.081h-1.06c-6.35-.109-11.09-1.561-14.24-4.357s-4.72-7.113-4.72-12.949c0-2.242.31-4.795.95-7.659.63-2.864.95-4.783.95-5.755q0-2.796-1.92-4.559-1.935-1.764-5.82-1.885v-3.323q3.885-.121 5.82-1.885 1.92-1.763 1.92-4.559c0-.973-.32-2.891-.95-5.755-.64-2.864-.95-5.417-.95-7.66 0-5.592 1.57-9.787 4.72-12.583 3.15-2.797 7.89-4.249 14.24-4.357m31.54 27.671c-1.29 0-2.57.412-3.83 1.236-1.25.824-2.65 2.189-4.19 4.093-1.54 1.905-2.8 3.857-3.77 5.857s-1.8 4.552-2.47 7.659l-.37 1.702q-.6 2.838-.6 5.512c0 2.135.46 3.675 1.39 4.62.94.946 2.48 1.419 4.64 1.419a9.2 9.2 0 0 0 3.17-.547q1.5-.547 3.06-1.804c1.04-.837 2.02-1.938 2.95-3.303.94-1.364 1.79-3.046 2.58-5.045.78-2 1.39-4.141 1.82-6.424s.65-4.465.65-6.545q0-4.216-1.2-6.322c-.79-1.405-2.07-2.108-3.83-2.108m-7.09-23.303h2.35l-7.13 28.369.53.162c2.62-3.512 5.08-6.052 7.37-7.619 2.3-1.567 4.6-2.351 6.89-2.351q4.425 0 6.87 3.364c1.64 2.243 2.45 5.404 2.45 9.484 0 4.458-.9 8.841-2.69 13.151-1.8 4.309-4.29 7.727-7.48 10.253s-6.75 3.789-10.7 3.789c-3.59 0-6.78-.878-9.56-2.634l-3.73 2.634-2.59-.648 10.49-46.323q.93-4.134.93-5.998c0-1.135-.34-1.932-1.03-2.391s-1.92-.716-3.71-.77l.49-2.107Z"/><text x="1809.88" y="428.423" fill-opacity="0" font-family="Arial,Arial_MSFontService,sans-serif" font-size="58.602">𝑏</text><path fill-rule="evenodd" d="M1864.31 411.287h2.14l-5.24 23.173h.83c.76 0 1.57-.159 2.44-.477a15.5 15.5 0 0 0 2.61-1.236 22 22 0 0 0 2.49-1.712q1.185-.954 2.1-1.922.9-.968 1.44-1.831.54-.864.54-1.46 0-.715-.48-1.161c-.32-.298-.89-.497-1.73-.596l.36-1.906h10.72l.75 1.846a112 112 0 0 1-3.61 2.979 205 205 0 0 1-3.38 2.636q-1.65 1.266-3.3 2.487c-1.1.814-2.23 1.658-3.38 2.532.47 1.509.96 3.043 1.46 4.601.49 1.559.99 3.103 1.49 4.632.23.814.46 1.514.67 2.1.2.586.43 1.062.67 1.429.23.368.49.641.77.82s.62.268 1.01.268q.42 0 .87-.149c.29-.1.63-.278.99-.536q.555-.388 1.26-1.058.69-.67 1.59-1.683l2.02 1.936a44 44 0 0 1-2.6 2.473c-.81.695-1.57 1.265-2.29 1.712q-1.095.67-2.1.983c-.68.209-1.36.313-2.06.313-1.25 0-2.26-.313-3.02-.938q-1.155-.938-1.95-2.681c-.54-1.162-1.03-2.567-1.48-4.215a341 341 0 0 0-1.56-5.51c-.14-.476-.28-.859-.4-1.147-.13-.288-.3-.506-.5-.655-.19-.149-.44-.243-.74-.283s-.68-.059-1.13-.059h-1.91l-3.27 14.952h-5.72l7.2-31.99q.36-1.578.51-2.487.15-.908.15-1.623c0-.377-.06-.705-.19-.983a1.53 1.53 0 0 0-.64-.67q-.45-.253-1.2-.372c-.49-.08-1.11-.129-1.84-.149l.44-2.026Z"/><text x="1851.68" y="447.331" fill-opacity="0" font-family="Arial,Arial_MSFontService,sans-serif" font-size="41.193">𝑘</text></g></svg>