<svg width="3416" height="790" xmlns="http://www.w3.org/2000/svg" xmlns:xlink="http://www.w3.org/1999/xlink" overflow="hidden"><defs><clipPath id="clip0"><rect x="167" y="-333" width="3416" height="790"/></clipPath></defs><g clip-path="url(#clip0)" transform="translate(-167 333)"><rect x="167" y="-259" width="238" height="308" fill="#F8CCB9"/><path d="M258.584-130.762 277.47-130.762 280.631-96.9221 299.841-130.762 318.686-130.762 318.118-128.088C316.578-127.655 315.444-126.899 314.714-125.818 313.985-124.737 313.296-122.738 312.647-119.82L305.271-86.3849C305.082-85.5204 304.947-84.7706 304.866-84.1357 304.785-83.5007 304.744-82.6699 304.744-81.6432 304.744-80.5085 305.008-79.6777 305.535-79.1508 306.062-78.624 306.919-78.2795 308.108-78.1174L307.541-75.4426 287.156-75.4426 287.723-78.1174C289.263-78.5497 290.398-79.3062 291.127-80.3869 291.857-81.4676 292.546-83.467 293.194-86.3849L296.923-103.406C298.165-109.026 299.624-114.687 301.3-120.387L300.489-120.387C299.219-118.064 297.855-115.646 296.396-113.133L278.158-81.5622 271.593-81.5622 268.918-105.919C268.297-111.701 267.892-116.659 267.702-120.793L267.054-120.793C265.973-114.119 264.947-108.58 263.974-104.176L260.043-86.3849C259.854-85.5204 259.719-84.7706 259.638-84.1357 259.556-83.5007 259.516-82.6699 259.516-81.6432 259.516-80.5085 259.779-79.6777 260.306-79.1508 260.833-78.624 261.691-78.2795 262.88-78.1174L262.312-75.4426 247.439-75.4426 248.006-78.1174C249.546-78.5497 250.681-79.3062 251.41-80.3869 252.14-81.4676 252.829-83.467 253.477-86.3849L260.853-119.82C261.205-121.414 261.38-122.995 261.38-124.562 261.38-125.696 261.117-126.527 260.59-127.054 260.063-127.581 259.205-127.925 258.016-128.088Z" fill="#D74514" fill-rule="evenodd"/><text fill="#000000" fill-opacity="0" font-family="Arial,Arial_MSFontService,sans-serif" font-size="55.3198" x="247.439" y="-82.3575">𝑴</text><path d="M722 347.5C722 287.025 770.801 238 831 238 891.199 238 940 287.025 940 347.5 940 407.975 891.199 457 831 457 770.801 457 722 407.975 722 347.5Z" fill="#FDEFE8" fill-rule="evenodd"/><path d="M814.727 321.864 854.079 321.864 851.202 334.914 846.014 334.914C845.879 332.347 845.636 330.551 845.285 329.524 844.933 328.497 844.393 327.754 843.664 327.295 842.934 326.835 841.907 326.606 840.583 326.606L830.411 326.606 826.115 346.059 831.749 346.059C832.829 346.059 833.741 345.883 834.484 345.532 835.227 345.181 835.916 344.593 836.551 343.769 837.186 342.945 837.814 341.804 838.436 340.345L842.894 340.345 839.003 356.799 834.829 356.799C834.829 355.232 834.734 354.029 834.545 353.192 834.356 352.354 834.005 351.746 833.491 351.368 832.978 350.99 832.1 350.801 830.857 350.801L825.102 350.801 820.32 372.442 829.438 372.442C830.627 372.442 831.553 372.361 832.215 372.199 832.877 372.037 833.484 371.78 834.038 371.429 834.592 371.078 835.234 370.517 835.963 369.747 836.693 368.977 837.416 368.005 838.132 366.829 838.848 365.654 839.584 364.242 840.34 362.594L845.852 362.594 842.124 377.184 803.582 377.184 804.149 374.509C805.689 374.077 806.824 373.32 807.554 372.24 808.283 371.159 808.972 369.16 809.621 366.242L816.997 332.807C817.348 331.212 817.523 329.632 817.523 328.065 817.523 326.93 817.26 326.099 816.733 325.572 816.206 325.046 815.348 324.701 814.16 324.539Z" fill="#D74514" fill-rule="evenodd"/><text fill="#000000" fill-opacity="0" font-family="Arial,Arial_MSFontService,sans-serif" font-size="55.3198" x="803.582" y="370.269">𝑬</text><path d="M916-105C916-165.199 964.801-214 1025-214 1085.2-214 1134-165.199 1134-105 1134-44.8009 1085.2 4.00014 1025 4.00014 964.801 4.00014 916-44.8009 916-105Z" fill="#FDEFE8" fill-rule="evenodd"/><path d="M1025.49-130.762 1031.81-130.762 1031.81-67.3371 1025.49-67.3371ZM1011.31-130.762 1017.63-130.762 1017.63-67.3371 1011.31-67.3371Z" fill="#D74514" fill-rule="evenodd"/><text fill="#000000" fill-opacity="0" font-family="Arial,Arial_MSFontService,sans-serif" font-size="63.4253" x="1011.31" y="-75.2653">∥</text><rect x="2420" y="-333" width="238" height="308" fill="#F8CCB9"/><path d="M2511.83-204.714 2530.72-204.714 2533.88-170.874 2553.09-204.714 2571.93-204.714 2571.37-202.039C2569.83-201.607 2568.69-200.851 2567.96-199.77 2567.23-198.689 2566.54-196.69 2565.9-193.772L2558.52-160.337C2558.33-159.472 2558.2-158.723 2558.11-158.088 2558.03-157.453 2557.99-156.622 2557.99-155.595 2557.99-154.46 2558.26-153.63 2558.78-153.103 2559.31-152.576 2560.17-152.231 2561.36-152.069L2560.79-149.394 2540.4-149.394 2540.97-152.069C2542.51-152.502 2543.65-153.258 2544.38-154.339 2545.1-155.42 2545.79-157.419 2546.44-160.337L2550.17-177.358C2551.41-182.978 2552.87-188.638 2554.55-194.339L2553.74-194.339C2552.47-192.016 2551.1-189.598 2549.64-187.085L2531.41-155.514 2524.84-155.514 2522.17-179.871C2521.54-185.653 2521.14-190.611 2520.95-194.745L2520.3-194.745C2519.22-188.071 2518.19-182.532 2517.22-178.128L2513.29-160.337C2513.1-159.472 2512.97-158.723 2512.89-158.088 2512.8-157.453 2512.76-156.622 2512.76-155.595 2512.76-154.46 2513.03-153.63 2513.55-153.103 2514.08-152.576 2514.94-152.231 2516.13-152.069L2515.56-149.394 2500.69-149.394 2501.25-152.069C2502.79-152.502 2503.93-153.258 2504.66-154.339 2505.39-155.42 2506.08-157.419 2506.73-160.337L2514.1-193.772C2514.45-195.366 2514.63-196.947 2514.63-198.514 2514.63-199.648 2514.36-200.479 2513.84-201.006 2513.31-201.533 2512.45-201.877 2511.26-202.039Z" fill="#D74514" fill-rule="evenodd"/><text fill="#000000" fill-opacity="0" font-family="Arial,Arial_MSFontService,sans-serif" font-size="55.3198" x="2500.69" y="-156.309">𝑴</text><rect x="2420" y="-22" width="238" height="146" fill="#FDEFE8"/><path d="M2971-105C2971-165.199 3020.02-214 3080.5-214 3140.98-214 3190-165.199 3190-105 3190-44.8009 3140.98 4.00014 3080.5 4.00014 3020.02 4.00014 2971-44.8009 2971-105Z" fill="#FDEFE8" fill-rule="evenodd"/><path d="M3078.56-126.021C3077.21-126.021 3076.17-125.994 3075.44-125.94L3065.43-80.3869C3066.67-80.2788 3067.67-80.2248 3068.43-80.2248 3071.91-80.2248 3074.92-80.9138 3077.45-82.2917 3079.97-83.6696 3082.21-85.7703 3084.17-88.5937 3086.13-91.4171 3087.67-94.8619 3088.79-98.9282 3089.92-102.994 3090.48-107.081 3090.48-111.188 3090.48-113.971 3090.16-116.308 3089.54-118.199 3088.92-120.09 3088.06-121.617 3086.97-122.779 3085.88-123.94 3084.61-124.771 3083.16-125.271 3081.71-125.771 3080.18-126.021 3078.56-126.021ZM3059.8-130.762 3076.21-130.762C3080.67-130.762 3084.23-130.519 3086.91-130.033 3089.34-129.601 3091.56-128.858 3093.58-127.804 3095.59-126.75 3097.18-125.588 3098.34-124.319 3099.82-122.751 3100.99-120.786 3101.84-118.422 3102.69-116.058 3103.12-113.282 3103.12-110.093 3103.12-106.5 3102.71-103.055 3101.9-99.759 3101.09-96.4627 3099.9-93.4164 3098.32-90.6201 3096.74-87.8237 3094.85-85.419 3092.64-83.4062 3090.44-81.3933 3088.23-79.8263 3086.02-78.705 3083.8-77.5838 3081.3-76.7597 3078.52-76.2328 3075.74-75.706 3072.44-75.4426 3068.63-75.4426L3048.65-75.4426 3049.22-78.1174C3050.76-78.5497 3051.89-79.3062 3052.62-80.3869 3053.35-81.4676 3054.04-83.467 3054.69-86.3849L3062.07-119.82C3062.42-121.414 3062.59-122.995 3062.59-124.562 3062.59-125.696 3062.33-126.527 3061.8-127.054 3061.28-127.581 3060.42-127.925 3059.23-128.088Z" fill="#D74514" fill-rule="evenodd"/><text fill="#000000" fill-opacity="0" font-family="Arial,Arial_MSFontService,sans-serif" font-size="55.3198" x="3048.65" y="-82.3575">𝑫</text><path d="M3390.31 167.011C3388.94 167.011 3387.58 167.477 3386.24 168.409 3384.9 169.341 3383.44 170.834 3381.84 172.887 3380.25 174.941 3379.01 176.967 3378.11 178.966 3377.22 180.966 3376.52 183.262 3376.01 185.856L3375.68 187.558C3375.41 188.99 3375.24 190.084 3375.18 190.841 3375.11 191.598 3375.08 192.34 3375.08 193.07 3375.08 195.177 3375.53 196.711 3376.43 197.67 3377.34 198.629 3378.9 199.109 3381.11 199.109 3382.49 199.109 3383.76 198.838 3384.92 198.298 3386.09 197.758 3387.19 196.974 3388.23 195.947 3389.27 194.921 3390.21 193.678 3391.04 192.219 3391.88 190.76 3392.63 189.065 3393.29 187.133 3393.95 185.201 3394.45 183.215 3394.79 181.175 3395.13 179.135 3395.3 177.224 3395.3 175.441 3395.3 172.604 3394.9 170.49 3394.1 169.098 3393.31 167.707 3392.04 167.011 3390.31 167.011ZM3272.14 165.511C3269.33 165.511 3266.88 166.687 3264.78 169.037 3262.69 171.388 3261.04 174.752 3259.84 179.129 3258.64 183.506 3258.04 187.275 3258.04 190.436 3258.04 193.408 3258.65 195.603 3259.88 197.021 3261.11 198.44 3262.97 199.149 3265.45 199.149 3268.1 199.149 3270.45 197.96 3272.5 195.583 3274.56 193.205 3276.18 189.875 3277.37 185.593 3278.56 181.31 3279.15 177.548 3279.15 174.306 3279.15 171.388 3278.58 169.193 3277.45 167.72 3276.31 166.248 3274.54 165.511 3272.14 165.511ZM3516.54 165.43C3513.82 165.43 3511.19 166.808 3508.66 169.564 3506.14 172.32 3504.2 176.049 3502.85 180.75 3506.66 180.723 3509.92 180.378 3512.65 179.716 3515.38 179.054 3517.48 178.001 3518.94 176.555 3520.39 175.11 3521.12 173.158 3521.12 170.699 3521.12 169.051 3520.74 167.761 3519.97 166.829 3519.2 165.896 3518.06 165.43 3516.54 165.43ZM3432.46 165.43C3429.68 165.43 3427.18 166.552 3424.97 168.794 3422.75 171.037 3421.02 174.042 3419.78 177.811 3418.54 181.58 3417.91 185.343 3417.91 189.098 3417.91 191.908 3418.3 194.009 3419.07 195.4 3419.84 196.792 3421.13 197.487 3422.94 197.487 3424.72 197.487 3426.47 196.717 3428.19 195.177 3429.9 193.637 3431.67 191.442 3433.5 188.592 3435.32 185.741 3436.61 182.452 3437.37 178.723L3437.73 176.981C3437.98 175.873 3438.14 174.914 3438.22 174.103 3438.3 173.293 3438.34 172.415 3438.34 171.469 3438.34 169.389 3437.89 167.862 3437 166.889 3436.11 165.917 3434.6 165.43 3432.46 165.43ZM3272.95 162.269C3277.27 162.269 3280.57 163.451 3282.84 165.815 3285.11 168.179 3286.24 171.563 3286.24 175.967 3286.24 179.102 3285.7 182.452 3284.6 186.018 3283.51 189.585 3282.01 192.584 3280.1 195.015 3278.2 197.447 3275.92 199.277 3273.27 200.507 3270.63 201.736 3267.59 202.351 3264.16 202.351 3259.97 202.351 3256.72 201.175 3254.41 198.825 3252.1 196.474 3250.94 193.097 3250.94 188.693 3250.94 186.532 3251.27 184.032 3251.92 181.195 3252.75 177.359 3254.16 174.009 3256.13 171.145 3258.1 168.281 3260.53 166.086 3263.43 164.559 3266.32 163.032 3269.49 162.269 3272.95 162.269ZM3518 162.229C3521.27 162.229 3523.72 162.891 3525.36 164.215 3526.99 165.538 3527.81 167.605 3527.81 170.415 3527.81 175.008 3525.66 178.453 3521.35 180.75 3517.04 183.046 3510.64 184.195 3502.16 184.195 3501.83 185.816 3501.67 187.572 3501.67 189.463 3501.67 192.3 3502.22 194.36 3503.33 195.643 3504.44 196.927 3506.25 197.569 3508.76 197.569 3511.25 197.569 3513.5 197.028 3515.51 195.947 3517.52 194.867 3519.65 193.205 3521.89 190.963L3524.41 193.597C3521.79 196.488 3519.13 198.663 3516.44 200.122 3513.75 201.581 3510.63 202.31 3507.06 202.31 3503.14 202.31 3500.11 201.115 3497.96 198.724 3495.81 196.332 3494.74 193.002 3494.74 188.734 3494.74 185.843 3495.26 182.742 3496.3 179.433 3497.34 176.123 3498.92 173.151 3501.02 170.517 3503.13 167.882 3505.66 165.842 3508.6 164.397 3511.55 162.951 3514.68 162.229 3518 162.229ZM3464.21 162.229C3465.91 162.229 3467.26 162.789 3468.24 163.911 3469.23 165.032 3469.72 166.498 3469.72 168.308 3469.72 169.659 3469.47 171.05 3468.95 172.482L3469.48 172.685C3472.13 169.091 3474.67 166.457 3477.12 164.782 3479.56 163.107 3482.04 162.269 3484.56 162.269 3486.53 162.269 3488.18 162.418 3489.5 162.715L3487.55 171.793 3483.38 171.793C3483.22 170.658 3482.99 169.78 3482.69 169.159 3482.39 168.537 3482.04 168.105 3481.64 167.862 3481.23 167.619 3480.72 167.497 3480.1 167.497 3479.12 167.497 3478.06 167.916 3476.92 168.754 3475.77 169.591 3474.48 170.902 3473.05 172.685 3471.61 174.468 3470.47 176.184 3469.62 177.832 3468.77 179.48 3468.06 181.574 3467.49 184.113L3463.64 201.662 3456.63 201.662 3462.51 175.967C3462.89 174.346 3463.13 173.09 3463.24 172.198 3463.35 171.307 3463.4 170.564 3463.4 169.969 3463.4 168.889 3463.22 168.105 3462.87 167.619 3462.52 167.132 3461.97 166.889 3461.21 166.889 3460.37 166.889 3459.49 167.234 3458.56 167.923 3457.63 168.612 3456.35 169.861 3454.73 171.672L3452.42 169.402C3454.9 166.808 3456.98 164.964 3458.66 163.87 3460.33 162.776 3462.18 162.229 3464.21 162.229ZM3431.65 162.229C3433.41 162.229 3435.05 162.425 3436.58 162.816 3438.1 163.208 3439.68 163.904 3441.3 164.903L3445.03 162.229 3447.62 162.877 3441.66 188.571C3441.07 191.138 3440.77 193.138 3440.77 194.57 3440.77 195.65 3440.95 196.434 3441.3 196.92 3441.65 197.406 3442.2 197.65 3442.96 197.65 3443.77 197.65 3444.64 197.319 3445.55 196.657 3446.47 195.995 3447.77 194.732 3449.44 192.867L3451.75 195.137C3449.32 197.731 3447.25 199.575 3445.53 200.669 3443.82 201.763 3441.96 202.31 3439.96 202.31 3438.29 202.31 3436.95 201.756 3435.95 200.649 3434.95 199.541 3434.45 198.068 3434.45 196.231 3434.45 194.745 3434.76 193.165 3435.38 191.489L3434.85 191.327C3432.26 195.11 3429.8 197.879 3427.48 199.635 3425.16 201.392 3422.7 202.27 3420.1 202.27 3417.13 202.27 3414.83 201.148 3413.19 198.906 3411.56 196.663 3410.74 193.516 3410.74 189.463 3410.74 184.816 3411.65 180.351 3413.48 176.069 3415.3 171.786 3417.81 168.409 3420.99 165.937 3424.18 163.465 3427.74 162.229 3431.65 162.229ZM3373.25 162.229C3374.93 162.229 3376.26 162.783 3377.24 163.89 3378.23 164.998 3378.72 166.471 3378.72 168.308 3378.72 169.821 3378.41 171.415 3377.79 173.09L3378.28 173.252C3383.28 165.93 3388.25 162.269 3393.19 162.269 3396.14 162.269 3398.43 163.39 3400.06 165.633 3401.69 167.875 3402.51 171.037 3402.51 175.116 3402.51 179.574 3401.61 183.958 3399.82 188.268 3398.02 192.577 3395.53 195.995 3392.34 198.521 3389.15 201.047 3385.59 202.31 3381.64 202.31 3378.05 202.31 3375.06 201.527 3372.68 199.96L3370.82 208.835C3370.41 210.753 3370.21 212.334 3370.21 213.577 3370.21 214.766 3370.52 215.61 3371.12 216.11 3371.73 216.61 3372.91 216.941 3374.67 217.103L3374.35 219.089 3361.82 219.089 3371.59 176.089C3372.16 173.603 3372.44 171.563 3372.44 169.969 3372.44 168.889 3372.27 168.105 3371.91 167.619 3371.56 167.132 3371.01 166.889 3370.25 166.889 3369.41 166.889 3368.53 167.234 3367.6 167.923 3366.67 168.612 3365.39 169.861 3363.77 171.672L3361.46 169.402C3363.89 166.862 3365.95 165.032 3367.64 163.911 3369.33 162.789 3371.2 162.229 3373.25 162.229ZM3303.25 162.229C3304.95 162.229 3306.3 162.789 3307.28 163.911 3308.27 165.032 3308.76 166.498 3308.76 168.308 3308.76 169.794 3308.45 171.374 3307.83 173.049L3308.32 173.212C3310.8 169.51 3313.28 166.761 3315.73 164.964 3318.19 163.168 3320.68 162.269 3323.19 162.269 3325.78 162.269 3327.76 163.005 3329.11 164.478 3330.46 165.95 3331.13 168.078 3331.13 170.861L3331.13 171.428C3331.13 171.618 3331.12 171.82 3331.09 172.036 3333.42 168.74 3335.73 166.288 3338.04 164.681 3340.35 163.073 3342.75 162.269 3345.24 162.269 3347.72 162.269 3349.64 162.985 3350.99 164.417 3352.34 165.849 3353.02 167.862 3353.02 170.456 3353.02 172.158 3352.63 174.576 3351.84 177.71L3349.21 188.328C3348.48 191.273 3348.12 193.354 3348.12 194.57 3348.12 195.65 3348.29 196.434 3348.64 196.92 3348.99 197.406 3349.55 197.65 3350.3 197.65 3351.11 197.65 3351.98 197.319 3352.9 196.657 3353.82 195.995 3355.11 194.732 3356.79 192.867L3359.1 195.137C3356.77 197.596 3354.75 199.406 3353.02 200.568 3351.29 201.729 3349.32 202.31 3347.1 202.31 3345.35 202.31 3343.94 201.682 3342.89 200.426 3341.83 199.169 3341.31 197.569 3341.31 195.623 3341.31 193.867 3341.75 191.287 3342.64 187.882L3344.43 180.871C3345.08 178.332 3345.5 176.454 3345.7 175.238 3345.91 174.022 3346.01 173.036 3346.01 172.279 3346.01 170.415 3345.7 169.071 3345.08 168.247 3344.45 167.423 3343.44 167.011 3342.04 167.011 3340.9 167.011 3339.69 167.436 3338.39 168.288 3337.09 169.139 3335.73 170.462 3334.3 172.259 3332.86 174.056 3331.69 175.826 3330.79 177.568 3329.88 179.311 3329.16 181.439 3328.62 183.951L3324.93 201.662 3317.92 201.662 3322.58 181.074C3323.15 178.561 3323.54 176.704 3323.74 175.501 3323.94 174.299 3324.04 173.266 3324.04 172.401 3324.04 170.456 3323.7 169.071 3323.01 168.247 3322.32 167.423 3321.25 167.011 3319.79 167.011 3318.76 167.011 3317.59 167.436 3316.28 168.288 3314.97 169.139 3313.57 170.503 3312.09 172.381 3310.6 174.259 3309.44 176.062 3308.6 177.791 3307.76 179.52 3307.06 181.628 3306.49 184.113L3302.64 201.662 3295.63 201.662 3301.55 175.967C3302.14 173.374 3302.44 171.374 3302.44 169.969 3302.44 168.889 3302.27 168.105 3301.91 167.619 3301.56 167.132 3301.01 166.889 3300.25 166.889 3299.41 166.889 3298.53 167.234 3297.6 167.923 3296.67 168.612 3295.39 169.861 3293.77 171.672L3291.46 169.402C3293.84 166.916 3295.88 165.099 3297.6 163.951 3299.31 162.803 3301.2 162.229 3303.25 162.229ZM3231.97 145.694C3234.43 145.694 3236.71 145.842 3238.8 146.139 3240.9 146.437 3243.23 146.977 3245.79 147.76L3243.36 158.743 3239.47 158.743C3239.26 155.42 3238.53 153.022 3237.3 151.55 3236.07 150.077 3234.09 149.341 3231.37 149.341 3227.64 149.341 3224.17 151.205 3220.97 154.934 3217.77 158.662 3215.24 163.586 3213.37 169.706 3211.51 175.826 3210.58 181.506 3210.58 186.748 3210.58 190.854 3211.31 193.881 3212.76 195.826 3214.22 197.771 3216.47 198.744 3219.49 198.744 3221.52 198.744 3223.29 198.44 3224.8 197.832 3226.31 197.224 3227.73 196.197 3229.06 194.752 3230.38 193.306 3231.69 191.287 3232.99 188.693L3236.88 188.693 3234.41 200.203C3229.35 201.608 3224.06 202.31 3218.52 202.31 3213.44 202.31 3209.58 200.851 3206.93 197.933 3204.28 195.015 3202.96 190.746 3202.96 185.127 3202.96 181.155 3203.67 176.575 3205.08 171.388 3206.5 166.2 3208.51 161.648 3211.1 157.73 3213.7 153.813 3216.76 150.827 3220.3 148.774 3223.84 146.72 3227.73 145.694 3231.97 145.694Z" fill-rule="evenodd"/><text fill="#000000" fill-opacity="0" font-family="Arial,Arial_MSFontService,sans-serif" font-size="73.395" x="3202.96" y="209.914">𝐶𝑜𝑚𝑝𝑎𝑟𝑒</text><path d="M405.5-109.083 875.237-109.083 875.237-99.9163 405.5-99.9167ZM870.654-127.416 916.487-104.5 870.654-81.583Z"/><path d="M825.028-14.6467 841.239-14.6467 840.794-12.6609C839.767-12.4447 839.031-12.2016 838.585-11.9314 838.139-11.6612 837.74-11.2559 837.389-10.7156 837.038-10.1752 836.673-9.33087 836.295-8.18259 835.917-7.03432 835.444-5.16331 834.877-2.56956L831.999 10.3587 833.337 10.3587C834.471 10.3587 835.505 10.1695 836.437 9.79128 837.369 9.41303 838.456 8.72406 839.699 7.72439 840.942 6.72471 842.921 4.88747 845.637 2.21267 848.352-0.462135 850.284-2.49525 851.432-3.8867 852.58-5.27814 853.418-6.48045 853.945-7.49363 854.472-8.50681 854.735-9.43219 854.735-10.2698 854.735-10.9452 854.465-11.4923 853.924-11.9111 853.384-12.3299 852.614-12.5798 851.614-12.6609L852.06-14.6467 869.446-14.6467 869.001-12.6609C867.92-12.4988 866.697-11.9381 865.333-10.979 863.968-10.0198 861.881-8.14882 859.071-5.36594L843.347 9.95339 851.979 30.7034C852.871 32.8378 853.607 34.3779 854.188 35.3235 854.769 36.2691 855.464 37.0189 856.275 37.5728 857.086 38.1266 858.085 38.4981 859.274 38.6873L858.828 40.6731 843.185 40.6731 843.63 38.6873C845.089 38.5522 845.819 37.9037 845.819 36.742 845.819 36.0125 845.67 35.1817 845.373 34.2495 845.076 33.3174 844.725 32.3515 844.319 31.3518L839.051 18.4641C838.429 16.9241 837.889 15.8434 837.43 15.2219 836.97 14.6005 836.484 14.1682 835.971 13.9251 835.457 13.6819 834.66 13.5603 833.58 13.5603L831.31 13.5603 827.946 28.8797C827.595 30.5008 827.366 31.7774 827.257 32.7095 827.149 33.6416 827.095 34.4724 827.095 35.2019 827.095 36.4177 827.399 37.2756 828.007 37.7754 828.615 38.2752 829.635 38.5792 831.067 38.6873L830.621 40.6731 814.41 40.6731 814.856 38.6873C815.883 38.5252 816.653 38.2617 817.166 37.897 817.68 37.5322 818.112 37.0257 818.463 36.3772 818.814 35.7288 819.138 34.9385 819.436 34.0064 819.733 33.0742 820.179 31.2708 820.773 28.596L827.663-2.61008C828.257-5.3119 828.554-7.48688 828.554-9.13499 828.554-10.4048 828.237-11.2897 827.602-11.7895 826.967-12.2894 825.961-12.5798 824.583-12.6609ZM796.875-15.2951C799.36-15.2951 801.664-15.1263 803.785-14.7886 805.905-14.4508 808.249-13.8767 810.816-13.0661L808.547-2.65061 804.656-2.65061C804.548-4.94716 804.197-6.75063 803.602-8.06101 803.008-9.3714 802.157-10.3103 801.049-10.8777 799.941-11.445 798.469-11.7287 796.631-11.7287 794.389-11.7287 792.417-11.2694 790.714-10.3508 789.012-9.43219 787.715-8.18259 786.824-6.60203 785.932-5.02146 785.486-3.25852 785.486-1.31321 785.486 0.713158 786.02 2.4896 787.087 4.01614 788.154 5.54267 790.201 7.34613 793.227 9.42653 795.875 11.2638 797.895 12.9051 799.286 14.3506 800.677 15.7961 801.704 17.3294 802.366 18.9505 803.028 20.5716 803.359 22.4493 803.359 24.5838 803.359 27.88 802.569 30.8047 800.988 33.3579 799.408 35.9112 797.179 37.8835 794.301 39.2749 791.424 40.6664 788.148 41.3621 784.473 41.3621 781.988 41.3621 779.306 41.1594 776.429 40.7542 773.551 40.3489 770.978 39.8355 768.708 39.2141L771.14 28.0691 775.03 28.0691C775.03 31.3653 775.794 33.8172 777.32 35.4248 778.847 37.0324 781.204 37.8362 784.392 37.8362 788.067 37.8362 790.958 36.8365 793.065 34.8372 795.172 32.8378 796.226 30.055 796.226 26.4885 796.226 24.8404 795.936 23.3882 795.355 22.1319 794.774 20.8755 793.896 19.6732 792.721 18.5249 791.545 17.3766 789.85 16.0595 787.634 14.5735 785.635 13.2226 783.973 11.8919 782.65 10.5816 781.326 9.27118 780.272 7.80544 779.488 6.18435 778.705 4.56326 778.313 2.75303 778.313 0.753685 778.313-2.43446 779.083-5.24436 780.623-7.676 782.163-10.1076 784.338-11.9854 787.148-13.3093 789.958-14.6332 793.2-15.2951 796.875-15.2951Z" fill-rule="evenodd"/><text fill="#000000" fill-opacity="0" font-family="Arial,Arial_MSFontService,sans-serif" font-size="56.6572" x="768.708" y="34.2799">𝑆𝐾</text><path d="M884.956 24.9021C883.228 27.7218 881.516 30.5464 879.818 33.376 878.12 36.2056 876.407 39.0401 874.68 41.8797L886.147 41.8797C886.048 40.6088 885.949 39.3628 885.849 38.1416 885.75 36.9204 885.671 35.6347 885.611 34.2844 885.551 32.9342 885.497 31.4946 885.447 29.9656 885.398 28.4366 885.373 26.7488 885.373 24.9021ZM884.837 18.3792 889.751 18.3792 892.462 49.8621C892.541 50.8748 892.665 51.7286 892.834 52.4236 893.003 53.1186 893.236 53.6944 893.534 54.1511 893.832 54.6078 894.204 54.9553 894.651 55.1936 895.098 55.4319 895.659 55.6007 896.334 55.7L895.887 57.5169 882.901 57.5169 883.347 55.7C883.903 55.6007 884.395 55.4766 884.822 55.3277 885.249 55.1787 885.601 54.9305 885.879 54.583 886.157 54.2355 886.371 53.7639 886.519 53.1682 886.668 52.5725 886.743 51.7981 886.743 50.845 886.743 50.4876 886.733 50.0755 886.713 49.6089 886.693 49.1423 886.668 48.6508 886.639 48.1345 886.609 47.6183 886.569 47.0871 886.519 46.541 886.47 45.995 886.425 45.4638 886.385 44.9475L873.042 44.9475C872.585 45.6227 872.133 46.3176 871.686 47.0325 871.24 47.7473 870.833 48.4473 870.465 49.1323 870.098 49.8174 869.805 50.4975 869.587 51.1726 869.368 51.8478 869.259 52.513 869.259 53.1682 869.259 54.6178 870.321 55.4617 872.446 55.7L872.059 57.5169 859.043 57.5169 859.37 55.7C859.906 55.6007 860.388 55.4468 860.815 55.2383 861.242 55.0298 861.689 54.7022 862.155 54.2554 862.622 53.8086 863.128 53.203 863.674 52.4385 864.22 51.674 864.881 50.6663 865.655 49.4153Z" fill-rule="evenodd"/><text fill="#000000" fill-opacity="0" font-family="Arial,Arial_MSFontService,sans-serif" font-size="39.1377" x="859.043" y="52.6246">𝐴</text><path d="M836.083 77.4998 836.084 197.238 826.917 197.239 826.917 77.4998ZM854.417 192.655 831.5 238.489 808.584 192.655Z"/><path d="M0-4.58333 303.025-4.58333 303.025 58.7627 293.858 58.7627 293.858 0 298.441 4.58333 0 4.58333ZM321.358 54.1793 298.441 100.013 275.525 54.1793Z" transform="matrix(1.83697e-16 1 1 -1.83697e-16 286.5 49.5)"/><path d="M0-4.58333 88.7535-4.58333 88.7535 302.135 79.5869 302.135 79.5869 0 84.1702 4.58333 0 4.58333ZM107.087 297.552 84.1702 343.385 61.2535 297.552Z" transform="matrix(1 0 0 -1 940.5 347.885)"/><path d="M0.0209398-4.58329 92.0305-4.16292 91.9886 5.00365-0.0209398 4.58329ZM87.531-22.517 133.259 0.608825 87.3216 23.3159Z" transform="matrix(1 0 0 -1 1134.5 -104.891)"/><path d="M3047.09 149.908C3045.41 149.908 3043.66 149.949 3041.82 150.03L3036.31 174.59 3040.52 174.59C3043.79 174.59 3046.43 174.252 3048.45 173.576 3050.46 172.901 3052.11 171.854 3053.39 170.435 3054.67 169.017 3055.67 167.335 3056.37 165.39 3057.07 163.445 3057.42 161.31 3057.42 158.986 3057.42 155.852 3056.63 153.556 3055.03 152.097 3053.44 150.638 3050.79 149.908 3047.09 149.908ZM3081.11 146.342 3097.32 146.342 3096.87 148.328C3095.85 148.544 3095.11 148.787 3094.66 149.057 3094.22 149.327 3093.82 149.733 3093.47 150.273 3093.12 150.813 3092.75 151.658 3092.37 152.806 3092 153.954 3091.52 155.825 3090.96 158.419L3088.08 171.347 3089.42 171.347C3090.55 171.347 3091.58 171.158 3092.52 170.78 3093.45 170.402 3094.54 169.713 3095.78 168.713 3097.02 167.713 3099 165.876 3101.72 163.201 3104.43 160.527 3106.36 158.493 3107.51 157.102 3108.66 155.711 3109.5 154.508 3110.02 153.495 3110.55 152.482 3110.81 151.556 3110.81 150.719 3110.81 150.043 3110.54 149.496 3110 149.078 3109.46 148.659 3108.69 148.409 3107.69 148.328L3108.14 146.342 3125.53 146.342 3125.08 148.328C3124 148.49 3122.78 149.051 3121.41 150.01 3120.05 150.969 3117.96 152.84 3115.15 155.623L3099.43 170.942 3108.06 191.692C3108.95 193.827 3109.69 195.367 3110.27 196.312 3110.85 197.258 3111.54 198.008 3112.35 198.561 3113.17 199.115 3114.17 199.487 3115.35 199.676L3114.91 201.662 3099.26 201.662 3099.71 199.676C3101.17 199.541 3101.9 198.892 3101.9 197.731 3101.9 197.001 3101.75 196.17 3101.45 195.238 3101.16 194.306 3100.8 193.34 3100.4 192.34L3095.13 179.453C3094.51 177.913 3093.97 176.832 3093.51 176.211 3093.05 175.589 3092.56 175.157 3092.05 174.914 3091.54 174.671 3090.74 174.549 3089.66 174.549L3087.39 174.549 3084.03 189.868C3083.67 191.489 3083.45 192.766 3083.34 193.698 3083.23 194.63 3083.18 195.461 3083.18 196.191 3083.18 197.406 3083.48 198.264 3084.09 198.764 3084.69 199.264 3085.71 199.568 3087.15 199.676L3086.7 201.662 3070.49 201.662 3070.94 199.676C3071.96 199.514 3072.73 199.25 3073.25 198.886 3073.76 198.521 3074.19 198.014 3074.54 197.366 3074.89 196.717 3075.22 195.927 3075.52 194.995 3075.81 194.063 3076.26 192.259 3076.85 189.585L3083.74 158.379C3084.34 155.677 3084.63 153.502 3084.63 151.854 3084.63 150.584 3084.32 149.699 3083.68 149.199 3083.05 148.699 3082.04 148.409 3080.66 148.328ZM3030.11 146.342 3047.98 146.342C3051.2 146.342 3053.84 146.592 3055.9 147.092 3057.97 147.592 3059.67 148.362 3061.01 149.402 3062.35 150.442 3063.35 151.759 3064.01 153.353 3064.67 154.947 3065 156.798 3065 158.905 3065 162.958 3064.04 166.471 3062.12 169.443 3060.21 172.415 3057.61 174.603 3054.32 176.008 3051.04 177.413 3047.1 178.115 3042.51 178.115 3039.75 178.115 3037.46 178.061 3035.62 177.953L3033.03 189.868C3032.78 190.976 3032.61 191.827 3032.52 192.422 3032.43 193.016 3032.34 193.658 3032.28 194.347 3032.21 195.036 3032.18 195.65 3032.18 196.191 3032.18 197.028 3032.31 197.683 3032.58 198.156 3032.85 198.629 3033.26 198.973 3033.8 199.19 3034.34 199.406 3035.27 199.568 3036.59 199.676L3036.15 201.662 3019.49 201.662 3019.94 199.676C3020.96 199.514 3021.73 199.25 3022.25 198.886 3022.76 198.521 3023.19 198.014 3023.54 197.366 3023.89 196.717 3024.22 195.927 3024.52 194.995 3024.81 194.063 3025.26 192.259 3025.85 189.585L3032.74 158.379C3033.34 155.677 3033.63 153.542 3033.63 151.975 3033.63 150.651 3033.32 149.733 3032.7 149.219 3032.08 148.706 3031.07 148.409 3029.66 148.328Z" fill-rule="evenodd"/><text fill="#000000" fill-opacity="0" font-family="Arial,Arial_MSFontService,sans-serif" font-size="55.3198" x="3019.49" y="194.747">𝑃𝐾</text><path d="M3141.48 185.891C3139.76 188.71 3138.04 191.535 3136.35 194.365 3134.65 197.194 3132.94 200.029 3131.21 202.868L3142.67 202.868C3142.58 201.598 3142.48 200.351 3142.38 199.13 3142.28 197.909 3142.2 196.623 3142.14 195.273 3142.08 193.923 3142.02 192.483 3141.97 190.954 3141.93 189.425 3141.9 187.737 3141.9 185.891ZM3141.36 179.368 3146.28 179.368 3148.99 210.851C3149.07 211.863 3149.19 212.717 3149.36 213.412 3149.53 214.107 3149.76 214.683 3150.06 215.14 3150.36 215.597 3150.73 215.944 3151.18 216.182 3151.63 216.421 3152.19 216.589 3152.86 216.689L3152.41 218.506 3139.43 218.506 3139.88 216.689C3140.43 216.589 3140.92 216.465 3141.35 216.316 3141.78 216.167 3142.13 215.919 3142.41 215.572 3142.68 215.224 3142.9 214.753 3143.05 214.157 3143.2 213.561 3143.27 212.787 3143.27 211.834 3143.27 211.476 3143.26 211.064 3143.24 210.598 3143.22 210.131 3143.2 209.639 3143.17 209.123 3143.14 208.607 3143.1 208.076 3143.05 207.53 3143 206.984 3142.95 206.452 3142.91 205.936L3129.57 205.936C3129.11 206.611 3128.66 207.306 3128.21 208.021 3127.77 208.736 3127.36 209.436 3126.99 210.121 3126.63 210.806 3126.33 211.486 3126.11 212.161 3125.9 212.836 3125.79 213.502 3125.79 214.157 3125.79 215.606 3126.85 216.45 3128.97 216.689L3128.59 218.506 3115.57 218.506 3115.9 216.689C3116.43 216.589 3116.92 216.435 3117.34 216.227 3117.77 216.018 3118.22 215.691 3118.68 215.244 3119.15 214.797 3119.66 214.192 3120.2 213.427 3120.75 212.663 3121.41 211.655 3122.18 210.404Z" fill-rule="evenodd"/><text fill="#000000" fill-opacity="0" font-family="Arial,Arial_MSFontService,sans-serif" font-size="39.1377" x="3115.57" y="213.613">𝐴</text><path d="M4.58333-1.64007e-05 4.58355 59.6046-4.58312 59.6046-4.58333 1.64007e-05ZM22.9169 55.0212 0.000360892 100.855-22.9165 55.0214Z" transform="matrix(1 0 0 -1 3080.5 105.355)"/><path d="M3190.5-109.083 3371.1-109.083 3371.1 64.346 3361.93 64.346 3361.93-104.5 3366.51-99.9167 3190.5-99.9167ZM3389.43 59.7627 3366.51 105.596 3343.6 59.7627Z"/><path d="M2658.5 46.9167 2741.15 46.9167 2741.15 320.69 2736.57 316.107 2773.38 316.107 2773.38 325.274 2731.98 325.274 2731.98 51.5001 2736.57 56.0834 2658.5 56.0834ZM2768.8 297.774 2814.63 320.69 2768.8 343.607Z"/><path d="M2310.5 179.241 2347.79 179.241 2344.99 191.683 2341.1 191.683C2340.99 189.333 2340.79 187.563 2340.49 186.374 2340.19 185.185 2339.84 184.368 2339.42 183.922 2339 183.476 2338.5 183.179 2337.92 183.031 2337.34 182.882 2336.51 182.808 2335.43 182.808L2322.21 182.808 2317.59 204.044 2325.33 204.044C2327.25 204.044 2328.72 203.591 2329.73 202.686 2330.74 201.781 2331.76 200.288 2332.79 198.208L2336.48 198.208 2332.83 213.771 2329.39 213.771C2329.39 211.609 2329.25 210.143 2328.98 209.373 2328.71 208.603 2328.31 208.117 2327.79 207.914 2327.26 207.712 2326.31 207.61 2324.93 207.61L2316.82 207.61 2311.64 230.995 2323.63 230.995C2325.23 230.995 2326.49 230.833 2327.42 230.508 2328.35 230.184 2329.23 229.657 2330.06 228.928 2330.88 228.198 2331.7 227.178 2332.53 225.868 2333.35 224.558 2334.33 222.781 2335.47 220.539L2339.4 220.539 2335.83 234.561 2299.88 234.561 2300.33 232.575C2301.35 232.413 2302.12 232.15 2302.64 231.785 2303.15 231.42 2303.58 230.914 2303.94 230.265 2304.29 229.617 2304.61 228.826 2304.91 227.894 2305.21 226.962 2305.65 225.159 2306.25 222.484L2313.14 191.278C2313.73 188.576 2314.03 186.401 2314.03 184.753 2314.03 183.483 2313.71 182.598 2313.07 182.098 2312.44 181.599 2311.43 181.308 2310.05 181.227Z" fill-rule="evenodd"/><text fill="#000000" fill-opacity="0" font-family="Arial,Arial_MSFontService,sans-serif" font-size="55.3198" x="2299.88" y="227.646">𝐸</text><path d="M2384.7 212.773 2397.27 212.773 2396.94 214.561C2396.48 214.68 2396.09 214.779 2395.78 214.858 2395.46 214.938 2395.18 215.057 2394.93 215.216 2394.68 215.375 2394.47 215.588 2394.29 215.856 2394.11 216.124 2393.94 216.492 2393.77 216.958 2393.6 217.425 2393.42 218.011 2393.23 218.716 2393.04 219.421 2392.83 220.289 2392.59 221.322L2390.65 230.079 2391.49 230.079C2391.95 230.079 2392.36 230.049 2392.74 229.989 2393.12 229.93 2393.49 229.826 2393.86 229.677 2394.22 229.528 2394.6 229.324 2394.99 229.066 2395.38 228.808 2395.82 228.48 2396.31 228.083 2398.38 226.475 2400.11 225.035 2401.5 223.764 2402.89 222.493 2404.01 221.371 2404.88 220.398 2405.74 219.426 2406.36 218.596 2406.72 217.911 2407.09 217.226 2407.27 216.656 2407.27 216.199 2407.27 215.722 2407.09 215.35 2406.71 215.082 2406.33 214.814 2405.72 214.67 2404.86 214.65L2405.19 212.773 2418.74 212.773 2418.32 214.65C2417.87 214.69 2417.44 214.779 2417.03 214.918 2416.62 215.057 2416.15 215.31 2415.61 215.678 2415.08 216.045 2414.44 216.551 2413.69 217.197 2412.95 217.842 2412.01 218.681 2410.88 219.713L2399.26 230.198 2405.99 244.197C2406.51 245.289 2406.96 246.153 2407.33 246.788 2407.71 247.424 2408.1 247.93 2408.5 248.307 2408.89 248.684 2409.34 248.958 2409.85 249.126 2410.36 249.295 2410.99 249.449 2411.74 249.588L2411.27 251.405 2398.99 251.405 2399.41 249.588C2399.97 249.548 2400.38 249.424 2400.66 249.216 2400.94 249.007 2401.08 248.744 2401.08 248.426 2401.06 248.208 2401.03 247.98 2400.99 247.741 2400.95 247.503 2400.88 247.24 2400.78 246.952 2400.68 246.664 2400.55 246.326 2400.39 245.939 2400.24 245.552 2400.04 245.09 2399.8 244.554L2395.81 236.036C2395.47 235.281 2395.17 234.685 2394.9 234.249 2394.63 233.812 2394.35 233.474 2394.06 233.236 2393.78 232.998 2393.45 232.844 2393.08 232.774 2392.71 232.705 2392.25 232.67 2391.7 232.67L2390.06 232.67C2389.9 233.484 2389.71 234.358 2389.49 235.291 2389.27 236.224 2389.06 237.173 2388.84 238.136 2388.62 239.099 2388.41 240.047 2388.21 240.98 2388.01 241.913 2387.83 242.782 2387.68 243.586 2387.52 244.39 2387.39 245.105 2387.29 245.731 2387.19 246.356 2387.14 246.838 2387.14 247.175 2387.14 248.009 2387.38 248.6 2387.87 248.948 2388.36 249.295 2389.18 249.509 2390.36 249.588L2389.88 251.405 2377.34 251.405 2377.67 249.588C2378.28 249.489 2378.78 249.374 2379.17 249.245 2379.56 249.116 2379.91 248.838 2380.21 248.411 2380.52 247.985 2380.81 247.344 2381.06 246.49 2381.32 245.636 2381.62 244.425 2381.96 242.857L2386.84 221.143C2387.04 220.269 2387.19 219.495 2387.29 218.82 2387.39 218.145 2387.44 217.569 2387.44 217.092 2387.44 216.219 2387.21 215.598 2386.75 215.231 2386.3 214.863 2385.46 214.67 2384.25 214.65ZM2364.45 212.208C2366.33 212.208 2368.14 212.352 2369.88 212.639 2371.62 212.927 2373.44 213.389 2375.35 214.024L2373.65 221.59 2370.4 221.59C2370.34 220.478 2370.17 219.52 2369.88 218.716 2369.59 217.911 2369.19 217.256 2368.67 216.75 2368.16 216.243 2367.5 215.866 2366.71 215.618 2365.91 215.37 2364.97 215.246 2363.88 215.246 2362.71 215.246 2361.65 215.405 2360.69 215.722 2359.74 216.04 2358.93 216.492 2358.25 217.077 2357.57 217.663 2357.05 218.368 2356.69 219.192 2356.32 220.016 2356.14 220.915 2356.14 221.888 2356.14 222.622 2356.22 223.298 2356.4 223.913 2356.58 224.529 2356.89 225.124 2357.33 225.7 2357.76 226.276 2358.36 226.862 2359.13 227.458 2359.89 228.053 2360.86 228.709 2362.03 229.423 2363.46 230.317 2364.69 231.161 2365.71 231.955 2366.73 232.749 2367.57 233.573 2368.21 234.427 2368.86 235.281 2369.33 236.19 2369.63 237.153 2369.93 238.116 2370.07 239.193 2370.07 240.384 2370.07 242.112 2369.73 243.69 2369.05 245.12 2368.36 246.55 2367.39 247.781 2366.13 248.814 2364.87 249.846 2363.36 250.645 2361.6 251.211 2359.84 251.777 2357.88 252.06 2355.72 252.06 2353.89 252.06 2351.93 251.906 2349.82 251.598 2347.72 251.291 2345.64 250.839 2343.6 250.243L2345.35 242.201 2348.51 242.201C2348.57 244.584 2349.21 246.312 2350.42 247.384 2351.63 248.456 2353.49 248.992 2356.02 248.992 2357.31 248.992 2358.47 248.823 2359.5 248.486 2360.53 248.148 2361.41 247.662 2362.12 247.026 2362.84 246.391 2363.38 245.617 2363.76 244.703 2364.14 243.79 2364.33 242.767 2364.33 241.635 2364.33 240.841 2364.23 240.121 2364.03 239.476 2363.83 238.831 2363.48 238.19 2362.99 237.555 2362.49 236.919 2361.82 236.274 2360.98 235.619 2360.13 234.963 2359.08 234.249 2357.83 233.474 2356.58 232.7 2355.49 231.93 2354.57 231.166 2353.65 230.401 2352.88 229.607 2352.26 228.783 2351.65 227.959 2351.19 227.1 2350.88 226.207 2350.57 225.313 2350.42 224.36 2350.42 223.347 2350.42 221.679 2350.74 220.165 2351.4 218.805 2352.05 217.445 2352.99 216.273 2354.21 215.29 2355.44 214.307 2356.91 213.548 2358.65 213.012 2360.39 212.476 2362.32 212.208 2364.45 212.208Z" fill-rule="evenodd"/><text fill="#000000" fill-opacity="0" font-family="Arial,Arial_MSFontService,sans-serif" font-size="39.8525" x="2343.6" y="247.079">𝑆𝐾</text><path d="M2443.29 235.662 2434.33 249.92 2444.41 249.92 2443.97 244.11C2443.93 243.296 2443.87 242.087 2443.8 240.484 2443.74 238.881 2443.71 237.274 2443.71 235.662ZM2442.95 229.779 2447.66 229.779 2450.4 256.976C2450.56 258.555 2450.9 259.722 2451.41 260.479 2451.92 261.236 2452.8 261.696 2454.03 261.859L2453.64 263.665 2441.7 263.665 2442.09 261.859C2442.79 261.81 2443.36 261.663 2443.78 261.419 2444.2 261.175 2444.52 260.833 2444.73 260.394 2444.94 259.954 2445.05 259.165 2445.05 258.026 2445.05 257.521 2445.02 256.78 2444.95 255.804L2444.66 252.899 2432.65 252.899 2431.08 255.364C2430.74 255.934 2430.37 256.638 2429.96 257.476 2429.55 258.315 2429.35 259.1 2429.35 259.832 2429.35 261.102 2430.35 261.777 2432.35 261.859L2431.96 263.665 2419.78 263.665 2420.2 261.859C2420.86 261.777 2421.48 261.537 2422.05 261.138 2422.62 260.74 2423.18 260.207 2423.72 259.539 2424.27 258.872 2424.97 257.871 2425.83 256.536Z" fill-rule="evenodd"/><text fill="#000000" fill-opacity="0" font-family="Arial,Arial_MSFontService,sans-serif" font-size="33.8867" x="2419.78" y="259.429">𝐴</text><path d="M2695.87 172.239 2713.94 172.239 2713.94 249.525 2695.87 249.525 2695.87 246.404 2707.21 246.404 2707.21 175.36 2695.87 175.36ZM2470.96 172.239 2489.04 172.239 2489.04 175.36 2477.69 175.36 2477.69 246.404 2489.04 246.404 2489.04 249.525 2470.96 249.525Z" fill-rule="evenodd"/><path d="M2503.53 179.241 2519.74 179.241 2519.29 181.227C2518.27 181.443 2517.53 181.686 2517.08 181.957 2516.64 182.227 2516.24 182.632 2515.89 183.172 2515.54 183.713 2515.17 184.557 2514.79 185.705 2514.42 186.854 2513.94 188.725 2513.38 191.318L2510.62 203.72 2532.38 203.72 2535.14 191.278C2535.38 190.17 2535.59 188.988 2535.77 187.732 2535.94 186.475 2536.03 185.482 2536.03 184.753 2536.03 183.483 2535.71 182.598 2535.08 182.098 2534.44 181.599 2533.44 181.308 2532.06 181.227L2532.5 179.241 2548.72 179.241 2548.27 181.227C2547.24 181.443 2546.51 181.686 2546.06 181.957 2545.62 182.227 2545.22 182.632 2544.87 183.172 2544.51 183.713 2544.15 184.557 2543.77 185.705 2543.39 186.854 2542.92 188.725 2542.35 191.318L2535.42 222.768C2535.07 224.362 2534.84 225.625 2534.73 226.557 2534.63 227.489 2534.57 228.333 2534.57 229.09 2534.57 230.306 2534.88 231.164 2535.48 231.663 2536.09 232.163 2537.11 232.467 2538.54 232.575L2538.1 234.561 2521.89 234.561 2522.33 232.575C2523.36 232.413 2524.13 232.15 2524.64 231.785 2525.16 231.42 2525.59 230.914 2525.94 230.265 2526.29 229.617 2526.61 228.826 2526.91 227.894 2527.21 226.962 2527.66 225.159 2528.25 222.484L2531.57 207.448 2509.81 207.448 2506.45 222.768C2506.15 224.119 2505.93 225.233 2505.8 226.111 2505.66 226.989 2505.59 227.982 2505.59 229.09 2505.59 230.252 2505.86 231.089 2506.41 231.603 2506.95 232.116 2508 232.44 2509.57 232.575L2509.12 234.561 2492.91 234.561 2493.36 232.575C2494.38 232.413 2495.15 232.15 2495.67 231.785 2496.18 231.42 2496.61 230.914 2496.96 230.265 2497.31 229.617 2497.64 228.826 2497.94 227.894 2498.23 226.962 2498.68 225.159 2499.27 222.484L2506.16 191.278C2506.41 190.17 2506.61 188.988 2506.79 187.732 2506.97 186.475 2507.05 185.482 2507.05 184.753 2507.05 183.483 2506.74 182.598 2506.1 182.098 2505.47 181.599 2504.46 181.308 2503.08 181.227Z" fill-rule="evenodd"/><text fill="#000000" fill-opacity="0" font-family="Arial,Arial_MSFontService,sans-serif" font-size="55.3198" x="2492.91" y="227.646">𝐻</text><path d="M2662.52 172.447C2670.41 174.527 2676.47 179.019 2680.7 185.922 2684.92 192.826 2687.04 201.154 2687.04 210.907 2687.04 220.688 2684.93 229.016 2680.72 235.893 2676.5 242.769 2670.44 247.247 2662.52 249.327L2661.55 246.207C2667.79 244.126 2672.43 240.02 2675.47 233.886 2678.51 227.753 2680.03 219.959 2680.03 210.502 2680.03 201.37 2678.51 193.785 2675.49 187.746 2672.46 181.708 2667.77 177.648 2661.43 175.568ZM2584.98 172.447 2586.07 175.568C2579.75 177.648 2575.07 181.708 2572.03 187.746 2568.99 193.785 2567.47 201.37 2567.47 210.502 2567.47 219.959 2568.99 227.753 2572.03 233.886 2575.07 240.02 2579.71 244.126 2585.95 246.207L2584.98 249.327C2577.06 247.247 2570.99 242.769 2566.78 235.893 2562.56 229.016 2560.46 220.688 2560.46 210.907 2560.46 201.154 2562.57 192.826 2566.8 185.922 2571.03 179.019 2577.09 174.527 2584.98 172.447Z" fill-rule="evenodd"/><path d="M2600.25 179.241 2614.72 179.241 2619.34 218.553 2642.96 179.241 2655.73 179.241 2655.28 181.227C2654.26 181.443 2653.52 181.686 2653.07 181.957 2652.63 182.227 2652.22 182.632 2651.86 183.172 2651.49 183.713 2651.13 184.557 2650.76 185.705 2650.4 186.854 2649.93 188.725 2649.37 191.318L2642.44 222.768C2642.08 224.362 2641.85 225.625 2641.75 226.557 2641.64 227.489 2641.58 228.333 2641.58 229.09 2641.58 230.306 2641.89 231.164 2642.5 231.663 2643.1 232.163 2644.12 232.467 2645.56 232.575L2645.11 234.561 2628.9 234.561 2629.35 232.575C2630.37 232.413 2631.14 232.15 2631.66 231.785 2632.17 231.42 2632.6 230.914 2632.95 230.265 2633.3 229.617 2633.63 228.826 2633.93 227.894 2634.22 226.962 2634.67 225.159 2635.26 222.484L2640.65 198.046C2641.41 194.669 2642.27 191.305 2643.25 187.955L2642.68 187.955C2641.84 189.549 2639.95 192.791 2637.01 197.681L2618.57 228.117 2614.15 228.117 2610.78 202.058C2610.3 198.384 2609.76 193.439 2609.16 187.225L2608.35 187.225C2607.43 193.277 2606.41 198.884 2605.27 204.044L2601.14 222.768C2600.57 225.334 2600.29 227.442 2600.29 229.09 2600.29 230.306 2600.59 231.164 2601.2 231.663 2601.81 232.163 2602.83 232.467 2604.26 232.575L2603.81 234.561 2589.63 234.561 2590.07 232.575C2591.1 232.413 2591.87 232.15 2592.38 231.785 2592.9 231.42 2593.33 230.914 2593.68 230.265 2594.03 229.617 2594.36 228.826 2594.65 227.894 2594.95 226.962 2595.4 225.159 2595.99 222.484L2602.88 191.278C2603.15 190.116 2603.37 189.008 2603.53 187.955 2603.69 186.901 2603.77 185.834 2603.77 184.753 2603.77 183.483 2603.46 182.598 2602.82 182.098 2602.19 181.599 2601.18 181.308 2599.8 181.227Z" fill-rule="evenodd"/><text fill="#000000" fill-opacity="0" font-family="Arial,Arial_MSFontService,sans-serif" font-size="55.3198" x="2589.63" y="227.646">𝑀</text><path d="M0.0426121-4.58314 272.309-2.05172 272.224 7.11455-0.0426121 4.58314ZM267.896-20.4269 313.514 2.91493 267.47 25.4045Z" transform="matrix(1 0 0 -1 2658.5 -101.585)"/><path d="M386 347.5C386 287.025 434.801 238 495 238 555.199 238 604 287.025 604 347.5 604 407.975 555.199 457 495 457 434.801 457 386 407.975 386 347.5Z" fill="#FDEFE8" fill-rule="evenodd"/><path d="M472.968 321.864 493.353 321.864 492.786 324.539C491.246 324.971 490.111 325.728 489.381 326.808 488.652 327.889 487.963 329.889 487.314 332.807L484.478 345.654 501.661 345.654 504.498 332.807C504.849 331.212 505.025 329.632 505.025 328.065 505.025 326.93 504.761 326.099 504.235 325.572 503.708 325.046 502.85 324.701 501.661 324.539L502.229 321.864 522.614 321.864 522.046 324.539C520.506 324.971 519.372 325.728 518.642 326.808 517.913 327.889 517.224 329.889 516.575 332.807L509.199 366.242C509.01 367.106 508.875 367.856 508.794 368.491 508.713 369.126 508.672 369.957 508.672 370.983 508.672 372.118 508.936 372.949 509.463 373.476 509.99 374.003 510.847 374.347 512.036 374.509L511.469 377.184 491.083 377.184 491.651 374.509C493.191 374.077 494.326 373.32 495.055 372.24 495.785 371.159 496.474 369.16 497.122 366.242L500.526 350.76 483.343 350.76 479.938 366.242C479.749 367.133 479.614 367.89 479.533 368.511 479.452 369.133 479.412 369.957 479.412 370.983 479.412 372.118 479.675 372.949 480.202 373.476 480.729 374.003 481.587 374.347 482.775 374.509L482.208 377.184 461.823 377.184 462.39 374.509C463.93 374.077 465.065 373.32 465.794 372.24 466.524 371.159 467.213 369.16 467.861 366.242L475.237 332.807C475.589 331.212 475.764 329.632 475.764 328.065 475.764 326.93 475.501 326.099 474.974 325.572 474.447 325.046 473.589 324.701 472.4 324.539Z" fill="#D74514" fill-rule="evenodd"/><text fill="#000000" fill-opacity="0" font-family="Arial,Arial_MSFontService,sans-serif" font-size="55.3198" x="461.823" y="370.269">𝑯</text><path d="M604.5 343.917 681.299 343.917 681.299 353.084 604.5 353.083ZM676.716 325.584 722.549 348.5 676.716 371.417Z"/><path d="M2814 320C2814 259.801 2862.8 211 2923 211 2983.2 211 3032 259.801 3032 320 3032 380.199 2983.2 429 2923 429 2862.8 429 2814 380.199 2814 320Z" fill="#FDEFE8" fill-rule="evenodd"/><path d="M2900.98 294.299 2921.37 294.299 2920.8 296.974C2919.26 297.406 2918.13 298.162 2917.4 299.243 2916.67 300.324 2915.98 302.323 2915.33 305.241L2912.49 318.088 2929.68 318.088 2932.51 305.241C2932.87 303.647 2933.04 302.067 2933.04 300.499 2933.04 299.365 2932.78 298.534 2932.25 298.007 2931.72 297.48 2930.87 297.136 2929.68 296.974L2930.25 294.299 2950.63 294.299 2950.06 296.974C2948.52 297.406 2947.39 298.162 2946.66 299.243 2945.93 300.324 2945.24 302.323 2944.59 305.241L2937.22 338.676C2937.03 339.541 2936.89 340.291 2936.81 340.926 2936.73 341.56 2936.69 342.391 2936.69 343.418 2936.69 344.553 2936.95 345.384 2937.48 345.91 2938.01 346.437 2938.86 346.782 2940.05 346.944L2939.49 349.619 2919.1 349.619 2919.67 346.944C2921.21 346.512 2922.34 345.755 2923.07 344.674 2923.8 343.594 2924.49 341.594 2925.14 338.676L2928.54 323.195 2911.36 323.195 2907.96 338.676C2907.77 339.568 2907.63 340.324 2907.55 340.946 2907.47 341.567 2907.43 342.391 2907.43 343.418 2907.43 344.553 2907.69 345.384 2908.22 345.91 2908.75 346.437 2909.6 346.782 2910.79 346.944L2910.22 349.619 2889.84 349.619 2890.41 346.944C2891.95 346.512 2893.08 345.755 2893.81 344.674 2894.54 343.594 2895.23 341.594 2895.88 338.676L2903.25 305.241C2903.61 303.647 2903.78 302.067 2903.78 300.499 2903.78 299.365 2903.52 298.534 2902.99 298.007 2902.46 297.48 2901.61 297.136 2900.42 296.974Z" fill="#D74514" fill-rule="evenodd"/><text fill="#000000" fill-opacity="0" font-family="Arial,Arial_MSFontService,sans-serif" font-size="55.3198" x="2889.84" y="342.704">𝑯</text><path d="M0-4.58333 337.978-4.58333 337.978 40.4261 328.811 40.4261 328.811 0 333.394 4.58333 0 4.58333ZM356.311 35.8428 333.394 81.6761 310.478 35.8428Z" transform="matrix(1 0 0 -1 3032.5 320.176)"/><path d="M1267-105.5C1267-165.975 1315.8-215 1376-215 1436.2-215 1485-165.975 1485-105.5 1485-45.0247 1436.2 4.00014 1376 4.00014 1315.8 4.00014 1267-45.0247 1267-105.5Z" fill="#FDEFE8" fill-rule="evenodd"/><path d="M1359.56-131.371 1398.91-131.371 1396.03-118.321 1390.85-118.321C1390.71-120.888 1390.47-122.685 1390.12-123.712 1389.76-124.738 1389.22-125.481 1388.49-125.941 1387.77-126.4 1386.74-126.63 1385.41-126.63L1375.24-126.63 1370.95-107.176 1376.58-107.176C1377.66-107.176 1378.57-107.352 1379.32-107.703 1380.06-108.054 1380.75-108.642 1381.38-109.466 1382.02-110.29 1382.65-111.432 1383.27-112.891L1387.72-112.891 1383.83-96.4366 1379.66-96.4366C1379.66-98.0037 1379.56-99.206 1379.38-100.044 1379.19-100.881 1378.84-101.489 1378.32-101.867 1377.81-102.246 1376.93-102.435 1375.69-102.435L1369.93-102.435 1365.15-80.7931 1374.27-80.7931C1375.46-80.7931 1376.38-80.8741 1377.05-81.0363 1377.71-81.1984 1378.32-81.455 1378.87-81.8063 1379.42-82.1575 1380.06-82.7181 1380.79-83.4882 1381.52-84.2582 1382.25-85.2308 1382.96-86.4061 1383.68-87.5814 1384.41-88.9931 1385.17-90.6412L1390.68-90.6412 1386.95-76.0514 1348.41-76.0514 1348.98-78.7262C1350.52-79.1585 1351.66-79.915 1352.38-80.9957 1353.11-82.0765 1353.8-84.0758 1354.45-86.9938L1361.83-120.429C1362.18-122.023 1362.35-123.603 1362.35-125.171 1362.35-126.305 1362.09-127.136 1361.56-127.663 1361.04-128.19 1360.18-128.534 1358.99-128.696Z" fill="#D74514" fill-rule="evenodd"/><text fill="#000000" fill-opacity="0" font-family="Arial,Arial_MSFontService,sans-serif" font-size="55.3198" x="1348.41" y="-82.9664">𝑬</text><path d="M1356.54 146.342 1372.75 146.342 1372.3 148.328C1371.27 148.544 1370.54 148.787 1370.09 149.057 1369.65 149.327 1369.25 149.733 1368.9 150.273 1368.54 150.813 1368.18 151.658 1367.8 152.806 1367.42 153.954 1366.95 155.825 1366.38 158.419L1363.51 171.347 1364.84 171.347C1365.98 171.347 1367.01 171.158 1367.94 170.78 1368.88 170.402 1369.96 169.713 1371.21 168.713 1372.45 167.713 1374.43 165.876 1377.14 163.201 1379.86 160.527 1381.79 158.493 1382.94 157.102 1384.09 155.711 1384.92 154.508 1385.45 153.495 1385.98 152.482 1386.24 151.556 1386.24 150.719 1386.24 150.043 1385.97 149.496 1385.43 149.078 1384.89 148.659 1384.12 148.409 1383.12 148.328L1383.57 146.342 1400.95 146.342 1400.51 148.328C1399.43 148.49 1398.2 149.051 1396.84 150.01 1395.48 150.969 1393.39 152.84 1390.58 155.623L1374.85 170.942 1383.49 191.692C1384.38 193.827 1385.11 195.367 1385.69 196.312 1386.28 197.258 1386.97 198.008 1387.78 198.561 1388.59 199.115 1389.59 199.487 1390.78 199.676L1390.33 201.662 1374.69 201.662 1375.14 199.676C1376.6 199.541 1377.33 198.892 1377.33 197.731 1377.33 197.001 1377.18 196.17 1376.88 195.238 1376.58 194.306 1376.23 193.34 1375.83 192.34L1370.56 179.453C1369.94 177.913 1369.4 176.832 1368.94 176.211 1368.48 175.589 1367.99 175.157 1367.48 174.914 1366.96 174.671 1366.17 174.549 1365.09 174.549L1362.82 174.549 1359.45 189.868C1359.1 191.489 1358.87 192.766 1358.76 193.698 1358.66 194.63 1358.6 195.461 1358.6 196.191 1358.6 197.406 1358.91 198.264 1359.51 198.764 1360.12 199.264 1361.14 199.568 1362.57 199.676L1362.13 201.662 1345.92 201.662 1346.36 199.676C1347.39 199.514 1348.16 199.25 1348.67 198.886 1349.19 198.521 1349.62 198.014 1349.97 197.366 1350.32 196.717 1350.65 195.927 1350.94 194.995 1351.24 194.063 1351.69 192.259 1352.28 189.585L1359.17 158.379C1359.76 155.677 1360.06 153.502 1360.06 151.854 1360.06 150.584 1359.74 149.699 1359.11 149.199 1358.47 148.699 1357.47 148.409 1356.09 148.328Z" fill-rule="evenodd"/><text fill="#000000" fill-opacity="0" font-family="Arial,Arial_MSFontService,sans-serif" font-size="55.3198" x="1345.92" y="194.747">𝐾</text><path d="M4.58333-1.64008e-05 4.58355 59.6042-4.58312 59.6043-4.58333 1.64008e-05ZM22.9169 55.0209 0.000360892 100.854-22.9165 55.021Z" transform="matrix(1 0 0 -1 1374.5 105.354)"/><path d="M1485.5-110.083 1628.81-110.083 1628.81-100.916 1485.5-100.917ZM1624.23-128.416 1670.06-105.5 1624.23-82.5831Z"/><path d="M2051-105.5C2051-165.975 2099.8-215 2160-215 2220.2-215 2269-165.975 2269-105.5 2269-45.0247 2220.2 4.00014 2160 4.00014 2099.8 4.00014 2051-45.0247 2051-105.5Z" fill="#FDEFE8" fill-rule="evenodd"/><path d="M2158.14-126.63C2156.79-126.63 2155.75-126.602 2155.02-126.548L2145.01-80.9957C2146.25-80.8877 2147.25-80.8336 2148.01-80.8336 2151.49-80.8336 2154.5-81.5226 2157.02-82.9005 2159.55-84.2784 2161.79-86.3791 2163.75-89.2025 2165.71-92.0259 2167.25-95.4707 2168.37-99.537 2169.49-103.603 2170.05-107.69 2170.05-111.797 2170.05-114.579 2169.74-116.916 2169.12-118.808 2168.5-120.699 2167.64-122.226 2166.55-123.387 2165.45-124.549 2164.18-125.38 2162.74-125.88 2161.29-126.38 2159.76-126.63 2158.14-126.63ZM2139.38-131.371 2155.79-131.371C2160.25-131.371 2163.81-131.128 2166.49-130.642 2168.92-130.209 2171.14-129.466 2173.15-128.413 2175.17-127.359 2176.75-126.197 2177.92-124.927 2179.4-123.36 2180.57-121.395 2181.42-119.031 2182.27-116.667 2182.7-113.89 2182.7-110.702 2182.7-107.109 2182.29-103.664 2181.48-100.368 2180.67-97.0716 2179.48-94.0253 2177.9-91.2289 2176.32-88.4325 2174.42-86.0279 2172.22-84.015 2170.02-82.0022 2167.81-80.4351 2165.6-79.3138 2163.38-78.1926 2160.88-77.3685 2158.1-76.8417 2155.32-76.3148 2152.02-76.0514 2148.21-76.0514L2128.23-76.0514 2128.8-78.7262C2130.34-79.1585 2131.47-79.915 2132.2-80.9957 2132.93-82.0765 2133.62-84.0758 2134.27-86.9938L2141.64-120.429C2142-122.023 2142.17-123.603 2142.17-125.171 2142.17-126.305 2141.91-127.136 2141.38-127.663 2140.85-128.19 2140-128.534 2138.81-128.696Z" fill="#D74514" fill-rule="evenodd"/><text fill="#000000" fill-opacity="0" font-family="Arial,Arial_MSFontService,sans-serif" font-size="55.3198" x="2128.23" y="-82.9664">𝑫</text><path d="M4.58333-1.64007e-05 4.58355 59.6046-4.58312 59.6046-4.58333 1.64007e-05ZM22.9169 55.0212 0.000360892 100.855-22.9165 55.0214Z" transform="matrix(1 0 0 -1 2160.5 105.355)"/><rect x="1670" y="-333" width="237" height="458" fill="#D74514"/><path d="M1382.05 292.081 1419.33 292.081 1416.54 304.523 1412.65 304.523C1412.54 302.172 1412.33 300.403 1412.04 299.214 1411.74 298.025 1411.38 297.208 1410.96 296.762 1410.54 296.316 1410.04 296.019 1409.46 295.87 1408.88 295.722 1408.05 295.648 1406.97 295.648L1393.76 295.648 1389.14 316.884 1396.88 316.884C1398.8 316.884 1400.26 316.431 1401.28 315.526 1402.29 314.621 1403.31 313.128 1404.34 311.048L1408.03 311.048 1404.38 326.61 1400.93 326.61C1400.93 324.449 1400.8 322.983 1400.53 322.213 1400.26 321.443 1399.86 320.957 1399.33 320.754 1398.81 320.552 1397.85 320.45 1396.47 320.45L1388.37 320.45 1383.18 343.835 1395.18 343.835C1396.77 343.835 1398.04 343.672 1398.97 343.348 1399.9 343.024 1400.78 342.497 1401.6 341.768 1402.43 341.038 1403.25 340.018 1404.07 338.708 1404.9 337.397 1405.88 335.621 1407.01 333.378L1410.94 333.378 1407.38 347.401 1371.43 347.401 1371.87 345.415C1372.9 345.253 1373.67 344.99 1374.18 344.625 1374.7 344.26 1375.13 343.753 1375.48 343.105 1375.83 342.457 1376.16 341.666 1376.45 340.734 1376.75 339.802 1377.2 337.999 1377.79 335.324L1384.68 304.118C1385.28 301.416 1385.57 299.241 1385.57 297.593 1385.57 296.323 1385.26 295.438 1384.62 294.938 1383.99 294.438 1382.98 294.148 1381.6 294.067Z" fill="#D74514" fill-rule="evenodd"/><text fill="#000000" fill-opacity="0" font-family="Arial,Arial_MSFontService,sans-serif" font-size="55.3198" x="1371.43" y="340.486">𝐸</text><path d="M1425.58 325.613 1438.15 325.613 1437.82 327.4C1437.37 327.52 1436.98 327.619 1436.66 327.698 1436.34 327.778 1436.06 327.897 1435.81 328.056 1435.56 328.215 1435.35 328.428 1435.17 328.696 1434.99 328.964 1434.82 329.332 1434.65 329.798 1434.48 330.265 1434.3 330.851 1434.11 331.555 1433.93 332.26 1433.71 333.129 1433.47 334.162L1431.54 342.919 1432.37 342.919C1432.83 342.919 1433.25 342.889 1433.62 342.829 1434 342.77 1434.37 342.665 1434.74 342.516 1435.11 342.367 1435.48 342.164 1435.87 341.906 1436.26 341.648 1436.7 341.32 1437.2 340.923 1439.26 339.315 1440.99 337.875 1442.38 336.604 1443.77 335.333 1444.9 334.211 1445.76 333.238 1446.62 332.265 1447.24 331.436 1447.61 330.751 1447.97 330.066 1448.16 329.495 1448.16 329.039 1448.16 328.562 1447.97 328.19 1447.59 327.922 1447.22 327.654 1446.6 327.51 1445.75 327.49L1446.07 325.613 1459.63 325.613 1459.21 327.49C1458.75 327.53 1458.32 327.619 1457.91 327.758 1457.51 327.897 1457.03 328.15 1456.5 328.517 1455.96 328.885 1455.32 329.391 1454.58 330.036 1453.83 330.682 1452.89 331.521 1451.76 332.553L1440.15 343.038 1446.88 357.037C1447.39 358.129 1447.84 358.993 1448.22 359.628 1448.6 360.263 1448.98 360.77 1449.38 361.147 1449.78 361.524 1450.23 361.797 1450.73 361.966 1451.24 362.135 1451.87 362.289 1452.63 362.428L1452.15 364.245 1439.88 364.245 1440.3 362.428C1440.85 362.388 1441.27 362.264 1441.55 362.055 1441.82 361.847 1441.96 361.584 1441.96 361.266 1441.94 361.048 1441.91 360.819 1441.87 360.581 1441.83 360.343 1441.76 360.08 1441.67 359.792 1441.57 359.504 1441.44 359.166 1441.28 358.779 1441.12 358.392 1440.92 357.93 1440.68 357.394L1436.69 348.876C1436.35 348.121 1436.05 347.525 1435.78 347.088 1435.51 346.652 1435.24 346.314 1434.95 346.076 1434.66 345.837 1434.33 345.684 1433.97 345.614 1433.6 345.545 1433.14 345.51 1432.58 345.51L1430.94 345.51C1430.78 346.324 1430.59 347.198 1430.38 348.131 1430.16 349.064 1429.94 350.012 1429.72 350.975 1429.5 351.938 1429.29 352.887 1429.1 353.82 1428.9 354.753 1428.72 355.622 1428.56 356.426 1428.4 357.23 1428.27 357.945 1428.17 358.571 1428.07 359.196 1428.02 359.678 1428.02 360.015 1428.02 360.849 1428.27 361.44 1428.75 361.787 1429.24 362.135 1430.07 362.348 1431.24 362.428L1430.76 364.245 1418.22 364.245 1418.55 362.428C1419.17 362.329 1419.67 362.214 1420.06 362.085 1420.44 361.956 1420.79 361.678 1421.1 361.251 1421.41 360.824 1421.69 360.184 1421.95 359.33 1422.21 358.476 1422.5 357.265 1422.84 355.696L1427.73 333.983C1427.92 333.109 1428.07 332.335 1428.17 331.66 1428.27 330.985 1428.32 330.409 1428.32 329.932 1428.32 329.059 1428.09 328.438 1427.64 328.071 1427.18 327.703 1426.35 327.51 1425.13 327.49Z" fill="#D74514" fill-rule="evenodd"/><text fill="#000000" fill-opacity="0" font-family="Arial,Arial_MSFontService,sans-serif" font-size="38.6313" x="1418.22" y="359.416">𝐾</text><path d="M2111.2 255.612 2130.49 255.612 2130.49 391.784 2111.2 391.784 2111.2 388.258 2122.99 388.258 2122.99 259.138 2111.2 259.138ZM1487.97 255.612 1507.27 255.612 1507.27 259.138 1495.47 259.138 1495.47 388.258 1507.27 388.258 1507.27 391.784 1487.97 391.784Z" fill="#D74514" fill-rule="evenodd"/><path d="M1521.76 292.081 1536.23 292.081 1540.85 331.393 1564.47 292.081 1577.24 292.081 1576.79 294.067C1575.77 294.283 1575.03 294.526 1574.59 294.796 1574.14 295.067 1573.73 295.472 1573.37 296.012 1573 296.553 1572.64 297.397 1572.28 298.545 1571.91 299.694 1571.44 301.565 1570.88 304.158L1563.95 335.607C1563.6 337.202 1563.37 338.465 1563.26 339.397 1563.15 340.329 1563.1 341.173 1563.1 341.93 1563.1 343.146 1563.4 344.003 1564.01 344.503 1564.62 345.003 1565.64 345.307 1567.07 345.415L1566.62 347.401 1550.41 347.401 1550.86 345.415C1551.88 345.253 1552.65 344.99 1553.17 344.625 1553.68 344.26 1554.11 343.753 1554.46 343.105 1554.81 342.457 1555.14 341.666 1555.44 340.734 1555.73 339.802 1556.18 337.999 1556.77 335.324L1562.16 310.886C1562.92 307.509 1563.78 304.145 1564.76 300.794L1564.19 300.794C1563.35 302.389 1561.46 305.631 1558.52 310.521L1540.08 340.957 1535.66 340.957 1532.29 314.898C1531.81 311.224 1531.27 306.279 1530.67 300.065L1529.86 300.065C1528.94 306.117 1527.92 311.723 1526.78 316.884L1522.65 335.607C1522.08 338.174 1521.8 340.282 1521.8 341.93 1521.8 343.146 1522.1 344.003 1522.71 344.503 1523.32 345.003 1524.34 345.307 1525.77 345.415L1525.32 347.401 1511.14 347.401 1511.59 345.415C1512.61 345.253 1513.38 344.99 1513.9 344.625 1514.41 344.26 1514.84 343.753 1515.19 343.105 1515.54 342.457 1515.87 341.666 1516.16 340.734 1516.46 339.802 1516.91 337.999 1517.5 335.324L1524.39 304.118C1524.66 302.956 1524.88 301.848 1525.04 300.794 1525.2 299.741 1525.28 298.674 1525.28 297.593 1525.28 296.323 1524.97 295.438 1524.33 294.938 1523.7 294.438 1522.69 294.148 1521.31 294.067Z" fill="#D74514" fill-rule="evenodd"/><text fill="#000000" fill-opacity="0" font-family="Arial,Arial_MSFontService,sans-serif" font-size="55.3198" x="1511.14" y="340.486">𝑀</text><path d="M1645.83 292.081 1652.15 292.081 1652.15 355.506 1645.83 355.506ZM1631.64 292.081 1637.97 292.081 1637.97 355.506 1631.64 355.506Z" fill="#D74514" fill-rule="evenodd"/><text fill="#000000" fill-opacity="0" font-family="Arial,Arial_MSFontService,sans-serif" font-size="63.4253" x="1631.64" y="347.578">∥</text><path d="M1696.88 292.081 1734.16 292.081 1731.36 304.523 1727.47 304.523C1727.37 302.172 1727.16 300.403 1726.87 299.214 1726.57 298.025 1726.21 297.208 1725.79 296.762 1725.37 296.316 1724.87 296.019 1724.29 295.87 1723.71 295.722 1722.88 295.648 1721.8 295.648L1708.59 295.648 1703.97 316.884 1711.71 316.884C1713.63 316.884 1715.09 316.431 1716.11 315.526 1717.12 314.621 1718.14 313.128 1719.17 311.048L1722.85 311.048 1719.21 326.61 1715.76 326.61C1715.76 324.449 1715.63 322.983 1715.36 322.213 1715.09 321.443 1714.69 320.957 1714.16 320.754 1713.63 320.552 1712.68 320.45 1711.3 320.45L1703.2 320.45 1698.01 343.835 1710.01 343.835C1711.6 343.835 1712.86 343.672 1713.8 343.348 1714.73 343.024 1715.61 342.497 1716.43 341.768 1717.25 341.038 1718.08 340.018 1718.9 338.708 1719.73 337.397 1720.71 335.621 1721.84 333.378L1725.77 333.378 1722.21 347.401 1686.26 347.401 1686.7 345.415C1687.73 345.253 1688.5 344.99 1689.01 344.625 1689.53 344.26 1689.96 343.753 1690.31 343.105 1690.66 342.457 1690.99 341.666 1691.28 340.734 1691.58 339.802 1692.03 337.999 1692.62 335.324L1699.51 304.118C1700.1 301.416 1700.4 299.241 1700.4 297.593 1700.4 296.323 1700.08 295.438 1699.45 294.938 1698.81 294.438 1697.81 294.148 1696.43 294.067Z" fill="#D74514" fill-rule="evenodd"/><text fill="#000000" fill-opacity="0" font-family="Arial,Arial_MSFontService,sans-serif" font-size="55.3198" x="1686.26" y="340.486">𝐸</text><path d="M1771.07 325.613 1783.64 325.613 1783.31 327.4C1782.86 327.52 1782.47 327.619 1782.15 327.698 1781.84 327.778 1781.55 327.897 1781.3 328.056 1781.06 328.215 1780.84 328.428 1780.66 328.696 1780.48 328.964 1780.31 329.332 1780.14 329.798 1779.97 330.265 1779.79 330.851 1779.61 331.555 1779.42 332.26 1779.2 333.129 1778.97 334.162L1777.03 342.919 1777.86 342.919C1778.32 342.919 1778.74 342.889 1779.11 342.829 1779.49 342.77 1779.86 342.665 1780.23 342.516 1780.6 342.367 1780.98 342.164 1781.36 341.906 1781.75 341.648 1782.19 341.32 1782.69 340.923 1784.75 339.315 1786.48 337.875 1787.87 336.604 1789.26 335.333 1790.39 334.211 1791.25 333.238 1792.12 332.265 1792.73 331.436 1793.1 330.751 1793.47 330.066 1793.65 329.495 1793.65 329.039 1793.65 328.562 1793.46 328.19 1793.08 327.922 1792.71 327.654 1792.09 327.51 1791.24 327.49L1791.56 325.613 1805.12 325.613 1804.7 327.49C1804.24 327.53 1803.81 327.619 1803.4 327.758 1803 327.897 1802.53 328.15 1801.99 328.517 1801.45 328.885 1800.81 329.391 1800.07 330.036 1799.32 330.682 1798.39 331.521 1797.25 332.553L1785.64 343.038 1792.37 357.037C1792.89 358.129 1793.33 358.993 1793.71 359.628 1794.09 360.263 1794.47 360.77 1794.87 361.147 1795.27 361.524 1795.72 361.797 1796.23 361.966 1796.73 362.135 1797.36 362.289 1798.12 362.428L1797.64 364.245 1785.37 364.245 1785.79 362.428C1786.34 362.388 1786.76 362.264 1787.04 362.055 1787.32 361.847 1787.45 361.584 1787.45 361.266 1787.43 361.048 1787.4 360.819 1787.37 360.581 1787.33 360.343 1787.26 360.08 1787.16 359.792 1787.06 359.504 1786.93 359.166 1786.77 358.779 1786.61 358.392 1786.41 357.93 1786.17 357.394L1782.18 348.876C1781.85 348.121 1781.54 347.525 1781.27 347.088 1781.01 346.652 1780.73 346.314 1780.44 346.076 1780.15 345.837 1779.82 345.684 1779.46 345.614 1779.09 345.545 1778.63 345.51 1778.07 345.51L1776.43 345.51C1776.28 346.324 1776.09 347.198 1775.87 348.131 1775.65 349.064 1775.43 350.012 1775.21 350.975 1774.99 351.938 1774.79 352.887 1774.59 353.82 1774.39 354.753 1774.21 355.622 1774.05 356.426 1773.89 357.23 1773.76 357.945 1773.66 358.571 1773.56 359.196 1773.52 359.678 1773.52 360.015 1773.52 360.849 1773.76 361.44 1774.24 361.787 1774.73 362.135 1775.56 362.348 1776.73 362.428L1776.26 364.245 1763.72 364.245 1764.04 362.428C1764.66 362.329 1765.16 362.214 1765.55 362.085 1765.93 361.956 1766.28 361.678 1766.59 361.251 1766.9 360.824 1767.18 360.184 1767.44 359.33 1767.7 358.476 1767.99 357.265 1768.33 355.696L1773.22 333.983C1773.42 333.109 1773.56 332.335 1773.66 331.66 1773.76 330.985 1773.81 330.409 1773.81 329.932 1773.81 329.059 1773.58 328.438 1773.13 328.071 1772.67 327.703 1771.84 327.51 1770.63 327.49ZM1750.82 325.047C1752.71 325.047 1754.52 325.191 1756.26 325.479 1757.99 325.767 1759.82 326.229 1761.72 326.864L1760.02 334.43 1756.78 334.43C1756.72 333.318 1756.54 332.36 1756.26 331.555 1755.97 330.751 1755.57 330.096 1755.05 329.59 1754.53 329.083 1753.88 328.706 1753.08 328.458 1752.29 328.21 1751.35 328.086 1750.25 328.086 1749.08 328.086 1748.02 328.244 1747.07 328.562 1746.11 328.88 1745.3 329.332 1744.63 329.917 1743.95 330.503 1743.43 331.208 1743.06 332.032 1742.69 332.856 1742.51 333.755 1742.51 334.728 1742.51 335.462 1742.6 336.137 1742.78 336.753 1742.96 337.369 1743.27 337.964 1743.7 338.54 1744.14 339.116 1744.74 339.702 1745.5 340.297 1746.27 340.893 1747.24 341.548 1748.41 342.263 1749.84 343.157 1751.06 344.001 1752.09 344.795 1753.11 345.589 1753.94 346.413 1754.59 347.267 1755.23 348.121 1755.71 349.029 1756 349.992 1756.3 350.956 1756.45 352.033 1756.45 353.224 1756.45 354.952 1756.11 356.53 1755.42 357.96 1754.74 359.39 1753.76 360.621 1752.5 361.653 1751.24 362.686 1749.73 363.485 1747.98 364.051 1746.22 364.617 1744.26 364.9 1742.09 364.9 1740.27 364.9 1738.3 364.746 1736.2 364.438 1734.09 364.131 1732.02 363.679 1729.97 363.083L1731.73 355.041 1734.89 355.041C1734.95 357.424 1735.58 359.151 1736.79 360.224 1738 361.296 1739.87 361.832 1742.39 361.832 1743.68 361.832 1744.84 361.663 1745.88 361.326 1746.91 360.988 1747.78 360.502 1748.5 359.866 1749.21 359.231 1749.76 358.456 1750.14 357.543 1750.51 356.63 1750.7 355.607 1750.7 354.475 1750.7 353.681 1750.6 352.961 1750.4 352.316 1750.21 351.67 1749.86 351.03 1749.36 350.395 1748.86 349.759 1748.19 349.114 1747.35 348.459 1746.51 347.803 1745.46 347.088 1744.21 346.314 1742.96 345.54 1741.87 344.77 1740.95 344.006 1740.02 343.241 1739.25 342.447 1738.64 341.623 1738.02 340.799 1737.56 339.94 1737.25 339.046 1736.95 338.153 1736.79 337.2 1736.79 336.187 1736.79 334.519 1737.12 333.005 1737.77 331.645 1738.43 330.285 1739.37 329.113 1740.59 328.13 1741.81 327.147 1743.29 326.388 1745.03 325.852 1746.77 325.315 1748.7 325.047 1750.82 325.047Z" fill="#D74514" fill-rule="evenodd"/><text fill="#000000" fill-opacity="0" font-family="Arial,Arial_MSFontService,sans-serif" font-size="39.8525" x="1729.97" y="359.918">𝑆𝐾</text><path d="M1829.67 348.502 1820.71 362.76 1830.79 362.76 1830.35 356.949C1830.3 356.136 1830.24 354.927 1830.18 353.324 1830.11 351.721 1830.08 350.114 1830.08 348.502ZM1829.32 342.618 1834.04 342.618 1836.77 369.816C1836.93 371.394 1837.27 372.562 1837.78 373.319 1838.3 374.076 1839.17 374.536 1840.41 374.698L1840.02 376.505 1828.08 376.505 1828.47 374.698C1829.17 374.65 1829.73 374.503 1830.15 374.259 1830.58 374.015 1830.9 373.673 1831.11 373.234 1831.32 372.794 1831.42 372.005 1831.42 370.865 1831.42 370.361 1831.39 369.62 1831.33 368.644L1831.03 365.739 1819.02 365.739 1817.46 368.204C1817.12 368.774 1816.74 369.478 1816.34 370.316 1815.93 371.154 1815.73 371.94 1815.73 372.672 1815.73 373.942 1816.73 374.617 1818.73 374.698L1818.34 376.505 1806.16 376.505 1806.57 374.698C1807.24 374.617 1807.86 374.377 1808.43 373.978 1809 373.579 1809.55 373.046 1810.1 372.379 1810.64 371.712 1811.35 370.711 1812.21 369.376Z" fill="#D74514" fill-rule="evenodd"/><text fill="#000000" fill-opacity="0" font-family="Arial,Arial_MSFontService,sans-serif" font-size="33.8867" x="1806.16" y="372.269">𝐴</text><path d="M2082.24 285.079 2100.32 285.079 2100.32 362.365 2082.24 362.365 2082.24 359.244 2093.59 359.244 2093.59 288.2 2082.24 288.2ZM1857.34 285.079 1875.42 285.079 1875.42 288.2 1864.07 288.2 1864.07 359.244 1875.42 359.244 1875.42 362.365 1857.34 362.365Z" fill="#D74514" fill-rule="evenodd"/><path d="M1889.9 292.081 1906.11 292.081 1905.67 294.067C1904.64 294.283 1903.91 294.526 1903.46 294.796 1903.01 295.067 1902.62 295.472 1902.26 296.012 1901.91 296.553 1901.55 297.397 1901.17 298.545 1900.79 299.694 1900.32 301.565 1899.75 304.158L1897 316.56 1918.76 316.56 1921.51 304.118C1921.76 303.01 1921.97 301.828 1922.14 300.572 1922.32 299.315 1922.41 298.322 1922.41 297.593 1922.41 296.323 1922.09 295.438 1921.45 294.938 1920.82 294.438 1919.81 294.148 1918.43 294.067L1918.88 292.081 1935.09 292.081 1934.65 294.067C1933.62 294.283 1932.88 294.526 1932.44 294.796 1931.99 295.067 1931.59 295.472 1931.24 296.012 1930.89 296.553 1930.53 297.397 1930.15 298.545 1929.77 299.694 1929.3 301.565 1928.73 304.158L1921.8 335.607C1921.45 337.202 1921.22 338.465 1921.11 339.397 1921 340.329 1920.95 341.173 1920.95 341.93 1920.95 343.146 1921.25 344.003 1921.86 344.503 1922.47 345.003 1923.49 345.307 1924.92 345.415L1924.47 347.401 1908.26 347.401 1908.71 345.415C1909.73 345.253 1910.5 344.99 1911.02 344.625 1911.53 344.26 1911.96 343.753 1912.31 343.105 1912.67 342.457 1912.99 341.666 1913.29 340.734 1913.58 339.802 1914.03 337.999 1914.62 335.324L1917.95 320.288 1896.19 320.288 1892.82 335.607C1892.52 336.958 1892.31 338.073 1892.17 338.951 1892.04 339.829 1891.97 340.822 1891.97 341.93 1891.97 343.092 1892.24 343.929 1892.78 344.442 1893.32 344.956 1894.37 345.28 1895.94 345.415L1895.5 347.401 1879.29 347.401 1879.73 345.415C1880.76 345.253 1881.53 344.99 1882.04 344.625 1882.55 344.26 1882.99 343.753 1883.34 343.105 1883.69 342.457 1884.01 341.666 1884.31 340.734 1884.61 339.802 1885.05 337.999 1885.65 335.324L1892.54 304.118C1892.78 303.01 1892.99 301.828 1893.17 300.572 1893.34 299.315 1893.43 298.322 1893.43 297.593 1893.43 296.323 1893.11 295.438 1892.48 294.938 1891.84 294.438 1890.84 294.148 1889.46 294.067Z" fill="#D74514" fill-rule="evenodd"/><text fill="#000000" fill-opacity="0" font-family="Arial,Arial_MSFontService,sans-serif" font-size="55.3198" x="1879.29" y="340.486">𝐻</text><path d="M2048.89 285.287C2056.78 287.367 2062.84 291.859 2067.07 298.762 2071.3 305.665 2073.41 313.994 2073.41 323.747 2073.41 333.528 2071.31 341.856 2067.09 348.732 2062.88 355.609 2056.81 360.087 2048.89 362.167L2047.92 359.047C2054.16 356.966 2058.8 352.859 2061.84 346.726 2064.88 340.593 2066.4 332.798 2066.4 323.342 2066.4 314.21 2064.89 306.625 2061.86 300.586 2058.84 294.547 2054.15 290.488 2047.8 288.407ZM1971.35 285.287 1972.45 288.407C1966.12 290.488 1961.44 294.547 1958.4 300.586 1955.36 306.625 1953.84 314.21 1953.84 323.342 1953.84 332.798 1955.36 340.593 1958.4 346.726 1961.44 352.859 1966.08 356.966 1972.32 359.047L1971.35 362.167C1963.44 360.087 1957.37 355.609 1953.15 348.732 1948.94 341.856 1946.83 333.528 1946.83 323.747 1946.83 313.994 1948.95 305.665 1953.17 298.762 1957.4 291.859 1963.46 287.367 1971.35 285.287Z" fill="#D74514" fill-rule="evenodd"/><path d="M1986.62 292.081 2001.09 292.081 2005.71 331.393 2029.34 292.081 2042.1 292.081 2041.66 294.067C2040.63 294.283 2039.9 294.526 2039.45 294.796 2039 295.067 2038.6 295.472 2038.23 296.012 2037.87 296.553 2037.5 297.397 2037.14 298.545 2036.77 299.694 2036.31 301.565 2035.74 304.158L2028.81 335.607C2028.46 337.202 2028.23 338.465 2028.12 339.397 2028.01 340.329 2027.96 341.173 2027.96 341.93 2027.96 343.146 2028.26 344.003 2028.87 344.503 2029.48 345.003 2030.5 345.307 2031.93 345.415L2031.49 347.401 2015.28 347.401 2015.72 345.415C2016.75 345.253 2017.52 344.99 2018.03 344.625 2018.54 344.26 2018.98 343.753 2019.33 343.105 2019.68 342.457 2020 341.666 2020.3 340.734 2020.6 339.802 2021.04 337.999 2021.64 335.324L2027.03 310.886C2027.78 307.509 2028.65 304.145 2029.62 300.794L2029.05 300.794C2028.22 302.389 2026.33 305.631 2023.38 310.521L2004.94 340.957 2000.52 340.957 1997.16 314.898C1996.67 311.224 1996.13 306.279 1995.54 300.065L1994.73 300.065C1993.81 306.117 1992.78 311.723 1991.65 316.884L1987.51 335.607C1986.95 338.174 1986.66 340.282 1986.66 341.93 1986.66 343.146 1986.97 344.003 1987.57 344.503 1988.18 345.003 1989.2 345.307 1990.63 345.415L1990.19 347.401 1976 347.401 1976.45 345.415C1977.48 345.253 1978.25 344.99 1978.76 344.625 1979.27 344.26 1979.71 343.753 1980.06 343.105 1980.41 342.457 1980.73 341.666 1981.03 340.734 1981.33 339.802 1981.77 337.999 1982.37 335.324L1989.26 304.118C1989.53 302.956 1989.74 301.848 1989.9 300.794 1990.07 299.741 1990.15 298.674 1990.15 297.593 1990.15 296.323 1989.83 295.438 1989.2 294.938 1988.56 294.438 1987.55 294.148 1986.18 294.067Z" fill="#D74514" fill-rule="evenodd"/><text fill="#000000" fill-opacity="0" font-family="Arial,Arial_MSFontService,sans-serif" font-size="55.3198" x="1976" y="340.486">𝑀</text><path d="M2145.85 146.342 2162.06 146.342 2161.61 148.328C2160.59 148.544 2159.85 148.787 2159.41 149.057 2158.96 149.327 2158.56 149.733 2158.21 150.273 2157.86 150.813 2157.49 151.658 2157.12 152.806 2156.74 153.954 2156.26 155.825 2155.7 158.419L2152.82 171.347 2154.16 171.347C2155.29 171.347 2156.33 171.158 2157.26 170.78 2158.19 170.402 2159.28 169.713 2160.52 168.713 2161.76 167.713 2163.74 165.876 2166.46 163.201 2169.17 160.527 2171.1 158.493 2172.25 157.102 2173.4 155.711 2174.24 154.508 2174.77 153.495 2175.29 152.482 2175.56 151.556 2175.56 150.719 2175.56 150.043 2175.29 149.496 2174.75 149.078 2174.2 148.659 2173.43 148.409 2172.44 148.328L2172.88 146.342 2190.27 146.342 2189.82 148.328C2188.74 148.49 2187.52 149.051 2186.15 150.01 2184.79 150.969 2182.7 152.84 2179.89 155.623L2164.17 170.942 2172.8 191.692C2173.69 193.827 2174.43 195.367 2175.01 196.312 2175.59 197.258 2176.29 198.008 2177.1 198.561 2177.91 199.115 2178.91 199.487 2180.09 199.676L2179.65 201.662 2164.01 201.662 2164.45 199.676C2165.91 199.541 2166.64 198.892 2166.64 197.731 2166.64 197.001 2166.49 196.17 2166.19 195.238 2165.9 194.306 2165.55 193.34 2165.14 192.34L2159.87 179.453C2159.25 177.913 2158.71 176.832 2158.25 176.211 2157.79 175.589 2157.3 175.157 2156.79 174.914 2156.28 174.671 2155.48 174.549 2154.4 174.549L2152.13 174.549 2148.77 189.868C2148.42 191.489 2148.19 192.766 2148.08 193.698 2147.97 194.63 2147.92 195.461 2147.92 196.191 2147.92 197.406 2148.22 198.264 2148.83 198.764 2149.44 199.264 2150.46 199.568 2151.89 199.676L2151.44 201.662 2135.23 201.662 2135.68 199.676C2136.7 199.514 2137.47 199.25 2137.99 198.886 2138.5 198.521 2138.93 198.014 2139.28 197.366 2139.64 196.717 2139.96 195.927 2140.26 194.995 2140.55 194.063 2141 192.259 2141.59 189.585L2148.48 158.379C2149.08 155.677 2149.38 153.502 2149.38 151.854 2149.38 150.584 2149.06 149.699 2148.42 149.199 2147.79 148.699 2146.78 148.409 2145.4 148.328Z" fill-rule="evenodd"/><text fill="#000000" fill-opacity="0" font-family="Arial,Arial_MSFontService,sans-serif" font-size="55.3198" x="2135.23" y="194.747">𝐾</text><path d="M0.0506546-4.58305 102.506-3.45066 102.405 5.71545-0.0506546 4.58305ZM98.1254-21.8335 143.703 1.58829 97.6189 23.997Z" transform="matrix(1 0 0 -1 1907.5 -103.912)"/><path d="M0.00460974-4.58333 101.926-4.48082 101.917 4.68584-0.00460974 4.58333ZM97.3608-22.8188 143.171 0.143996 97.3147 23.0146Z" transform="matrix(1 0 0 -1 2269.5 -105.356)"/></g></svg>