<svg width="4006" height="1474" xmlns="http://www.w3.org/2000/svg" xmlns:xlink="http://www.w3.org/1999/xlink" overflow="hidden"><defs><clipPath id="clip0"><rect x="90" y="582" width="4006" height="1474"/></clipPath></defs><g clip-path="url(#clip0)" transform="translate(-90 -582)"><rect x="90.0001" y="1075" width="433" height="325" fill="#D74514"/><text fill="#FFFFFF" font-family="Microsoft YaHei,Microsoft YaHei_MSFontService,sans-serif" font-weight="700" font-size="83" transform="matrix(1 0 0 1 223.803 1217)">信源</text><path d="M282.163 1261.17 301.049 1261.17 304.21 1295.01 323.42 1261.17 342.265 1261.17 341.698 1263.85C340.158 1264.28 339.023 1265.04 338.293 1266.12 337.564 1267.2 336.875 1269.2 336.226 1272.12L328.85 1305.55C328.661 1306.42 328.526 1307.17 328.445 1307.8 328.364 1308.44 328.324 1309.27 328.324 1310.29 328.324 1311.43 328.587 1312.26 329.114 1312.79 329.641 1313.31 330.498 1313.66 331.687 1313.82L331.12 1316.49 310.735 1316.49 311.302 1313.82C312.842 1313.39 313.977 1312.63 314.706 1311.55 315.436 1310.47 316.125 1308.47 316.773 1305.55L320.502 1288.53C321.745 1282.91 323.204 1277.25 324.879 1271.55L324.068 1271.55C322.798 1273.87 321.434 1276.29 319.975 1278.8L301.738 1310.37 295.172 1310.37 292.497 1286.02C291.876 1280.24 291.471 1275.28 291.282 1271.14L290.633 1271.14C289.552 1277.82 288.526 1283.36 287.553 1287.76L283.622 1305.55C283.433 1306.42 283.298 1307.17 283.217 1307.8 283.136 1308.44 283.095 1309.27 283.095 1310.29 283.095 1311.43 283.358 1312.26 283.885 1312.79 284.412 1313.31 285.27 1313.66 286.459 1313.82L285.891 1316.49 271.018 1316.49 271.585 1313.82C273.125 1313.39 274.26 1312.63 274.99 1311.55 275.719 1310.47 276.408 1308.47 277.056 1305.55L284.432 1272.12C284.784 1270.52 284.959 1268.94 284.959 1267.37 284.959 1266.24 284.696 1265.41 284.169 1264.88 283.642 1264.36 282.784 1264.01 281.595 1263.85Z" fill="#FFFFFF" fill-rule="evenodd"/><text fill="#000000" fill-opacity="0" font-family="Arial,Arial_MSFontService,sans-serif" font-size="55.3198" x="271.018" y="1309.58">𝑴</text><rect x="924" y="1075" width="611" height="325" fill="#FDEFE8"/><text fill="#D74514" font-family="Microsoft YaHei,Microsoft YaHei_MSFontService,sans-serif" font-weight="700" font-size="83" transform="matrix(1 0 0 1 1105.93 1217)">加密器</text><path d="M1046.31 1275.64C1048.12 1275.64 1050.08 1275.78 1052.19 1276.07 1054.29 1276.35 1056.16 1276.75 1057.78 1277.26L1055.51 1287.15 1048.21 1287.15C1048.27 1286.58 1048.3 1286 1048.3 1285.41 1048.3 1283.46 1048 1282.05 1047.4 1281.17 1046.81 1280.3 1045.93 1279.86 1044.77 1279.86 1042.77 1279.86 1040.87 1281.01 1039.06 1283.3 1037.25 1285.6 1035.73 1288.79 1034.52 1292.87 1033.3 1296.95 1032.69 1300.53 1032.69 1303.61 1032.69 1308.69 1034.54 1311.23 1038.25 1311.23 1040.11 1311.23 1041.87 1310.81 1043.53 1309.97 1045.2 1309.13 1047.08 1307.73 1049.19 1305.75L1052.47 1309.28C1049.63 1312.12 1046.8 1314.14 1043.96 1315.34 1041.12 1316.54 1038 1317.14 1034.6 1317.14 1030.46 1317.14 1027.26 1315.85 1024.97 1313.27 1022.69 1310.69 1021.55 1307.1 1021.55 1302.51 1021.55 1298.22 1022.51 1293.84 1024.45 1289.38 1026.38 1284.92 1029.23 1281.52 1033.02 1279.17 1036.8 1276.82 1041.23 1275.64 1046.31 1275.64Z" fill="#D74514" fill-rule="evenodd"/><text fill="#000000" fill-opacity="0" font-family="Arial,Arial_MSFontService,sans-serif" font-size="41.5" x="1021.55" y="1311.95">𝒄</text><path d="M1088.07 1298.5 1138 1298.5 1138 1303.89 1088.07 1303.89ZM1088.07 1281.68 1138 1281.68 1138 1287.07 1088.07 1287.07Z" fill="#D74514" fill-rule="evenodd"/><text fill="#000000" fill-opacity="0" font-family="Arial,Arial_MSFontService,sans-serif" font-size="22.209" x="1088.07" y="1301.11">=</text><path d="M1180.28 1261.17 1219.63 1261.17 1216.75 1274.22 1211.57 1274.22C1211.43 1271.66 1211.19 1269.86 1210.84 1268.83 1210.49 1267.81 1209.94 1267.06 1209.22 1266.6 1208.49 1266.15 1207.46 1265.92 1206.14 1265.92L1195.96 1265.92 1191.67 1285.37 1197.3 1285.37C1198.38 1285.37 1199.29 1285.19 1200.04 1284.84 1200.78 1284.49 1201.47 1283.9 1202.1 1283.08 1202.74 1282.25 1203.37 1281.11 1203.99 1279.65L1208.45 1279.65 1204.55 1296.11 1200.38 1296.11C1200.38 1294.54 1200.29 1293.34 1200.1 1292.5 1199.91 1291.66 1199.56 1291.06 1199.04 1290.68 1198.53 1290.3 1197.65 1290.11 1196.41 1290.11L1190.65 1290.11 1185.87 1311.75 1194.99 1311.75C1196.18 1311.75 1197.1 1311.67 1197.77 1311.51 1198.43 1311.35 1199.04 1311.09 1199.59 1310.74 1200.14 1310.39 1200.79 1309.83 1201.52 1309.06 1202.24 1308.29 1202.97 1307.31 1203.68 1306.14 1204.4 1304.96 1205.14 1303.55 1205.89 1301.9L1211.4 1301.9 1207.68 1316.49 1169.13 1316.49 1169.7 1313.82C1171.24 1313.39 1172.38 1312.63 1173.11 1311.55 1173.84 1310.47 1174.52 1308.47 1175.17 1305.55L1182.55 1272.12C1182.9 1270.52 1183.08 1268.94 1183.08 1267.37 1183.08 1266.24 1182.81 1265.41 1182.29 1264.88 1181.76 1264.36 1180.9 1264.01 1179.71 1263.85Z" fill="#D74514" fill-rule="evenodd"/><text fill="#000000" fill-opacity="0" font-family="Arial,Arial_MSFontService,sans-serif" font-size="55.3198" x="1169.13" y="1309.58">𝑬</text><path d="M1278.11 1292.2 1281.92 1292.2C1281.8 1294.11 1281.74 1296.75 1281.74 1300.13L1281.74 1325.03C1281.74 1326.18 1281.81 1327.05 1281.94 1327.63 1282.07 1328.22 1282.3 1328.7 1282.62 1329.06 1282.95 1329.43 1283.42 1329.72 1284.04 1329.93 1284.65 1330.14 1285.43 1330.29 1286.36 1330.4 1287.29 1330.51 1288.53 1330.59 1290.05 1330.63L1290.05 1333.34 1264.35 1333.34 1264.35 1330.63C1266.55 1330.53 1268.13 1330.39 1269.07 1330.22 1270.01 1330.06 1270.73 1329.8 1271.23 1329.47 1271.73 1329.13 1272.09 1328.65 1272.32 1328.04 1272.55 1327.42 1272.66 1326.42 1272.66 1325.03L1272.66 1303.49C1272.66 1302.68 1272.51 1302.09 1272.2 1301.74 1271.89 1301.38 1271.47 1301.2 1270.93 1301.2 1270.44 1301.2 1269.74 1301.43 1268.83 1301.88 1267.93 1302.34 1266.44 1303.27 1264.38 1304.68L1262.56 1301.53ZM1237.98 1290.69 1241.35 1290.69 1235.81 1315.76 1236.4 1315.76C1237.12 1315.76 1237.79 1315.64 1238.43 1315.38 1239.2 1315.06 1240.16 1314.49 1241.29 1313.68 1242.82 1312.55 1243.9 1311.66 1244.54 1311.03 1245.17 1310.39 1245.61 1309.79 1245.86 1309.23 1246.11 1308.66 1246.23 1308.08 1246.23 1307.48 1246.23 1307.03 1246.11 1306.64 1245.86 1306.32 1245.61 1306 1245.17 1305.82 1244.54 1305.76L1245.01 1303.79 1255.62 1303.79 1256.36 1305.73C1255.13 1307.08 1253.47 1308.55 1251.39 1310.13L1244.68 1315.17 1247.75 1326.04C1248.11 1327.33 1248.44 1328.2 1248.75 1328.66 1249.06 1329.12 1249.49 1329.35 1250.05 1329.35 1250.56 1329.35 1251.15 1329.08 1251.8 1328.56 1252.46 1328.03 1253.23 1327.24 1254.13 1326.19L1256.27 1328.33C1254.42 1330.32 1252.76 1331.73 1251.27 1332.56 1249.78 1333.4 1248.25 1333.81 1246.68 1333.81 1244.71 1333.81 1243.19 1333.35 1242.09 1332.41 1241 1331.48 1240.21 1329.88 1239.71 1327.62L1238.13 1320.47C1238.03 1319.99 1237.9 1319.62 1237.74 1319.34 1237.59 1319.06 1237.38 1318.86 1237.12 1318.74 1236.86 1318.62 1236.47 1318.56 1235.96 1318.56L1235.21 1318.56 1231.97 1333.34 1223.42 1333.34 1230.95 1299.68C1231.39 1297.73 1231.61 1296.31 1231.61 1295.42 1231.61 1294.98 1231.56 1294.64 1231.48 1294.39 1231.39 1294.15 1231.25 1293.94 1231.07 1293.78 1230.89 1293.62 1230.66 1293.5 1230.36 1293.41 1230.06 1293.32 1229.47 1293.22 1228.6 1293.1L1229.08 1291.16Z" fill="#D74514" fill-rule="evenodd"/><text fill="#000000" fill-opacity="0" font-family="Arial,Arial_MSFontService,sans-serif" font-size="43.1289" x="1223.42" y="1328.42">𝒌𝟏</text><path d="M1410.5 1254.38C1418.39 1256.46 1424.44 1260.95 1428.67 1267.85 1432.9 1274.76 1435.01 1283.09 1435.01 1292.84 1435.01 1302.62 1432.91 1310.95 1428.69 1317.83 1424.48 1324.7 1418.41 1329.18 1410.5 1331.26L1409.52 1328.14C1415.76 1326.06 1420.4 1321.95 1423.44 1315.82 1426.48 1309.69 1428 1301.89 1428 1292.43 1428 1283.3 1426.49 1275.72 1423.46 1269.68 1420.44 1263.64 1415.75 1259.58 1409.4 1257.5ZM1328.67 1254.38 1329.76 1257.5C1323.44 1259.58 1318.76 1263.64 1315.72 1269.68 1312.68 1275.72 1311.16 1283.3 1311.16 1292.43 1311.16 1301.89 1312.68 1309.69 1315.72 1315.82 1318.76 1321.95 1323.4 1326.06 1329.64 1328.14L1328.67 1331.26C1320.75 1329.18 1314.69 1324.7 1310.47 1317.83 1306.26 1310.95 1304.15 1302.62 1304.15 1292.84 1304.15 1283.09 1306.26 1274.76 1310.49 1267.85 1314.72 1260.95 1320.78 1256.46 1328.67 1254.38Z" fill="#D74514" fill-rule="evenodd"/><path d="M1345.88 1275.64C1348.13 1275.64 1349.92 1276.27 1351.25 1277.53 1352.59 1278.78 1353.26 1280.44 1353.26 1282.49 1353.26 1283.17 1353.18 1283.82 1353.02 1284.44L1353.5 1284.68C1355.96 1281.57 1358.35 1279.29 1360.66 1277.83 1362.97 1276.37 1365.65 1275.64 1368.7 1275.64 1371.4 1275.64 1373.53 1276.39 1375.08 1277.87 1376.64 1279.36 1377.45 1281.41 1377.53 1284.03 1379.78 1281.17 1382.04 1279.05 1384.32 1277.69 1386.61 1276.32 1389.19 1275.64 1392.08 1275.64 1394.81 1275.64 1396.95 1276.41 1398.51 1277.95 1400.06 1279.49 1400.84 1281.64 1400.84 1284.4 1400.84 1285.21 1400.77 1286.19 1400.64 1287.35 1400.5 1288.52 1400.3 1289.62 1400.03 1290.68L1396.74 1303.73C1396.45 1304.86 1396.26 1305.74 1396.18 1306.36 1396.1 1306.98 1396.06 1307.69 1396.06 1308.47 1396.06 1309.52 1396.23 1310.25 1396.58 1310.66 1396.93 1311.06 1397.43 1311.27 1398.08 1311.27 1398.87 1311.27 1399.74 1310.89 1400.72 1310.15 1401.69 1309.41 1402.84 1308.28 1404.16 1306.77L1407.08 1309.69C1404.43 1312.39 1402.06 1314.31 1399.97 1315.44 1397.87 1316.57 1395.57 1317.14 1393.06 1317.14 1390.27 1317.14 1388.21 1316.45 1386.86 1315.08 1385.51 1313.7 1384.83 1311.59 1384.83 1308.75 1384.83 1307.86 1384.92 1306.77 1385.11 1305.49 1385.3 1304.21 1385.57 1302.88 1385.92 1301.5L1387.79 1294.45C1388.22 1292.85 1388.61 1291.17 1388.94 1289.4 1389.28 1287.63 1389.45 1286.26 1389.45 1285.29 1389.45 1282.8 1388.48 1281.56 1386.53 1281.56 1385.37 1281.56 1383.95 1282.3 1382.28 1283.79 1380.6 1285.27 1379.22 1286.9 1378.12 1288.67 1377.03 1290.44 1376.18 1292.79 1375.59 1295.7L1371.13 1316.49 1359.46 1316.49 1365.38 1290.72C1365.67 1289.48 1365.88 1288.46 1365.98 1287.66 1366.09 1286.86 1366.15 1286.17 1366.15 1285.57 1366.15 1284.17 1365.9 1283.15 1365.42 1282.51 1364.93 1281.88 1364.16 1281.56 1363.11 1281.56 1361.86 1281.56 1360.4 1282.33 1358.71 1283.87 1357.02 1285.41 1355.66 1287.03 1354.62 1288.73 1353.58 1290.43 1352.75 1292.76 1352.12 1295.7L1347.59 1316.49 1335.95 1316.49 1342.48 1288.33C1342.88 1286.57 1343.09 1285.23 1343.09 1284.31 1343.09 1283.42 1342.94 1282.73 1342.64 1282.25 1342.34 1281.76 1341.83 1281.52 1341.1 1281.52 1340.26 1281.52 1339.36 1281.9 1338.39 1282.65 1337.41 1283.41 1336.28 1284.53 1334.98 1286.02L1332.06 1283.1C1334.77 1280.34 1337.16 1278.41 1339.26 1277.3 1341.35 1276.2 1343.56 1275.64 1345.88 1275.64Z" fill="#D74514" fill-rule="evenodd"/><text fill="#000000" fill-opacity="0" font-family="Arial,Arial_MSFontService,sans-serif" font-size="41.5" x="1332.06" y="1311.95">𝒎</text><rect x="2397" y="1075" width="611" height="325" fill="#FDEFE8"/><text fill="#D74514" font-family="Microsoft YaHei,Microsoft YaHei_MSFontService,sans-serif" font-weight="700" font-size="83" transform="matrix(1 0 0 1 2578.74 1217)">加密器</text><path d="M2500.88 1275.64C2503.13 1275.64 2504.92 1276.27 2506.25 1277.53 2507.59 1278.78 2508.26 1280.44 2508.26 1282.49 2508.26 1283.17 2508.18 1283.82 2508.02 1284.44L2508.5 1284.68C2510.96 1281.57 2513.35 1279.29 2515.66 1277.83 2517.97 1276.37 2520.65 1275.64 2523.7 1275.64 2526.4 1275.64 2528.53 1276.39 2530.08 1277.87 2531.64 1279.36 2532.46 1281.41 2532.54 1284.03 2534.78 1281.17 2537.04 1279.05 2539.32 1277.69 2541.61 1276.32 2544.2 1275.64 2547.09 1275.64 2549.81 1275.64 2551.96 1276.41 2553.51 1277.95 2555.06 1279.49 2555.84 1281.64 2555.84 1284.4 2555.84 1285.21 2555.77 1286.19 2555.64 1287.35 2555.5 1288.52 2555.3 1289.62 2555.03 1290.68L2551.75 1303.73C2551.45 1304.86 2551.26 1305.74 2551.18 1306.36 2551.1 1306.98 2551.06 1307.69 2551.06 1308.47 2551.06 1309.52 2551.23 1310.25 2551.58 1310.66 2551.94 1311.06 2552.44 1311.27 2553.08 1311.27 2553.87 1311.27 2554.75 1310.89 2555.72 1310.15 2556.69 1309.41 2557.84 1308.28 2559.16 1306.77L2562.08 1309.69C2559.43 1312.39 2557.06 1314.31 2554.97 1315.44 2552.87 1316.57 2550.57 1317.14 2548.06 1317.14 2545.28 1317.14 2543.21 1316.45 2541.86 1315.08 2540.51 1313.7 2539.83 1311.59 2539.83 1308.75 2539.83 1307.86 2539.93 1306.77 2540.12 1305.49 2540.3 1304.21 2540.57 1302.88 2540.93 1301.5L2542.79 1294.45C2543.22 1292.85 2543.61 1291.17 2543.95 1289.4 2544.28 1287.63 2544.45 1286.26 2544.45 1285.29 2544.45 1282.8 2543.48 1281.56 2541.53 1281.56 2540.37 1281.56 2538.95 1282.3 2537.28 1283.79 2535.6 1285.27 2534.22 1286.9 2533.12 1288.67 2532.03 1290.44 2531.19 1292.79 2530.59 1295.7L2526.13 1316.49 2514.46 1316.49 2520.38 1290.72C2520.68 1289.48 2520.88 1288.46 2520.99 1287.66 2521.09 1286.86 2521.15 1286.17 2521.15 1285.57 2521.15 1284.17 2520.91 1283.15 2520.42 1282.51 2519.93 1281.88 2519.16 1281.56 2518.11 1281.56 2516.87 1281.56 2515.4 1282.33 2513.71 1283.87 2512.02 1285.41 2510.66 1287.03 2509.62 1288.73 2508.58 1290.43 2507.75 1292.76 2507.13 1295.7L2502.59 1316.49 2490.96 1316.49 2497.48 1288.33C2497.89 1286.57 2498.09 1285.23 2498.09 1284.31 2498.09 1283.42 2497.94 1282.73 2497.64 1282.25 2497.35 1281.76 2496.83 1281.52 2496.1 1281.52 2495.26 1281.52 2494.36 1281.9 2493.39 1282.65 2492.41 1283.41 2491.28 1284.53 2489.98 1286.02L2487.06 1283.1C2489.77 1280.34 2492.16 1278.41 2494.26 1277.3 2496.35 1276.2 2498.56 1275.64 2500.88 1275.64Z" fill="#D74514" fill-rule="evenodd"/><text fill="#000000" fill-opacity="0" font-family="Arial,Arial_MSFontService,sans-serif" font-size="41.5" x="2487.06" y="1311.95">𝒎</text><path d="M2591.82 1298.5 2641.75 1298.5 2641.75 1303.89 2591.82 1303.89ZM2591.82 1281.68 2641.75 1281.68 2641.75 1287.07 2591.82 1287.07Z" fill="#D74514" fill-rule="evenodd"/><text fill="#000000" fill-opacity="0" font-family="Arial,Arial_MSFontService,sans-serif" font-size="22.209" x="2591.82" y="1301.11">=</text><path d="M2702.79 1265.92C2701.44 1265.92 2700.4 1265.94 2699.67 1266L2689.66 1311.55C2690.9 1311.66 2691.9 1311.71 2692.66 1311.71 2696.14 1311.71 2699.15 1311.02 2701.68 1309.64 2704.2 1308.27 2706.44 1306.17 2708.4 1303.34 2710.36 1300.52 2711.9 1297.07 2713.02 1293.01 2714.15 1288.94 2714.71 1284.86 2714.71 1280.75 2714.71 1277.97 2714.39 1275.63 2713.77 1273.74 2713.15 1271.85 2712.29 1270.32 2711.2 1269.16 2710.11 1268 2708.84 1267.17 2707.39 1266.67 2705.94 1266.17 2704.41 1265.92 2702.79 1265.92ZM2684.03 1261.17 2700.44 1261.17C2704.9 1261.17 2708.46 1261.42 2711.14 1261.9 2713.57 1262.34 2715.79 1263.08 2717.81 1264.13 2719.82 1265.19 2721.41 1266.35 2722.57 1267.62 2724.05 1269.18 2725.22 1271.15 2726.07 1273.51 2726.92 1275.88 2727.35 1278.65 2727.35 1281.84 2727.35 1285.44 2726.94 1288.88 2726.13 1292.18 2725.32 1295.47 2724.13 1298.52 2722.55 1301.32 2720.97 1304.11 2719.08 1306.52 2716.87 1308.53 2714.67 1310.54 2712.46 1312.11 2710.25 1313.23 2708.03 1314.35 2705.53 1315.18 2702.75 1315.7 2699.97 1316.23 2696.67 1316.49 2692.86 1316.49L2672.88 1316.49 2673.45 1313.82C2674.99 1313.39 2676.12 1312.63 2676.85 1311.55 2677.58 1310.47 2678.27 1308.47 2678.92 1305.55L2686.3 1272.12C2686.65 1270.52 2686.82 1268.94 2686.82 1267.37 2686.82 1266.24 2686.56 1265.41 2686.03 1264.88 2685.51 1264.36 2684.65 1264.01 2683.46 1263.85Z" fill="#D74514" fill-rule="evenodd"/><text fill="#000000" fill-opacity="0" font-family="Arial,Arial_MSFontService,sans-serif" font-size="55.3198" x="2672.88" y="1309.58">𝑫</text><path d="M2787.56 1292.2C2790.47 1292.2 2792.86 1292.6 2794.7 1293.38 2796.55 1294.16 2797.89 1295.23 2798.71 1296.57 2799.53 1297.91 2799.95 1299.47 2799.95 1301.26 2799.95 1302.83 2799.65 1304.29 2799.07 1305.64 2798.48 1306.99 2797.47 1308.53 2796.03 1310.25 2794.59 1311.98 2792.16 1314.45 2788.75 1317.67 2787.69 1318.66 2786.44 1319.97 2784.98 1321.59 2783.52 1323.21 2782.36 1324.59 2781.51 1325.74L2781.51 1326.04 2792.08 1326.04C2793.37 1326.04 2794.34 1325.95 2794.97 1325.76 2795.61 1325.57 2796.11 1325.24 2796.48 1324.77 2796.84 1324.31 2797.15 1323.61 2797.38 1322.67L2800.81 1322.67 2800.12 1333.34 2772.84 1333.34 2772.84 1331.37C2774.37 1327.86 2777.5 1323.33 2782.22 1317.79 2784.37 1315.27 2786 1313.19 2787.12 1311.56 2788.25 1309.94 2789.08 1308.4 2789.64 1306.95 2790.2 1305.5 2790.47 1304 2790.47 1302.45 2790.47 1300.27 2789.99 1298.55 2789.02 1297.31 2788.04 1296.07 2786.71 1295.45 2785.02 1295.45 2781.79 1295.45 2779.71 1297.78 2778.8 1302.45L2773.44 1302.45 2773.44 1295.42C2776.67 1294.11 2779.29 1293.25 2781.27 1292.83 2783.26 1292.41 2785.35 1292.2 2787.56 1292.2ZM2749.75 1290.69 2753.12 1290.69 2747.58 1315.76 2748.17 1315.76C2748.89 1315.76 2749.56 1315.64 2750.2 1315.38 2750.97 1315.06 2751.93 1314.49 2753.06 1313.68 2754.59 1312.55 2755.67 1311.66 2756.3 1311.03 2756.94 1310.39 2757.38 1309.79 2757.63 1309.23 2757.88 1308.66 2758 1308.08 2758 1307.48 2758 1307.03 2757.88 1306.64 2757.63 1306.32 2757.38 1306 2756.94 1305.82 2756.3 1305.76L2756.78 1303.79 2767.38 1303.79 2768.13 1305.73C2766.9 1307.08 2765.24 1308.55 2763.15 1310.13L2756.45 1315.17 2759.52 1326.04C2759.88 1327.33 2760.21 1328.2 2760.52 1328.66 2760.83 1329.12 2761.26 1329.35 2761.81 1329.35 2762.33 1329.35 2762.92 1329.08 2763.57 1328.56 2764.23 1328.03 2765 1327.24 2765.9 1326.19L2768.04 1328.33C2766.19 1330.32 2764.52 1331.73 2763.04 1332.56 2761.55 1333.4 2760.02 1333.81 2758.45 1333.81 2756.48 1333.81 2754.95 1333.35 2753.86 1332.41 2752.77 1331.48 2751.98 1329.88 2751.48 1327.62L2749.9 1320.47C2749.8 1319.99 2749.67 1319.62 2749.51 1319.34 2749.35 1319.06 2749.15 1318.86 2748.89 1318.74 2748.63 1318.62 2748.24 1318.56 2747.73 1318.56L2746.98 1318.56 2743.73 1333.34 2735.19 1333.34 2742.72 1299.68C2743.16 1297.73 2743.38 1296.31 2743.38 1295.42 2743.38 1294.98 2743.33 1294.64 2743.24 1294.39 2743.15 1294.15 2743.02 1293.94 2742.84 1293.78 2742.66 1293.62 2742.42 1293.5 2742.13 1293.41 2741.83 1293.32 2741.24 1293.22 2740.37 1293.1L2740.85 1291.16Z" fill="#D74514" fill-rule="evenodd"/><text fill="#000000" fill-opacity="0" font-family="Arial,Arial_MSFontService,sans-serif" font-size="43.1289" x="2735.19" y="1328.42">𝒌𝟐</text><path d="M2887.32 1254.38C2895.21 1256.46 2901.26 1260.95 2905.49 1267.85 2909.72 1274.76 2911.84 1283.09 2911.84 1292.84 2911.84 1302.62 2909.73 1310.95 2905.51 1317.83 2901.3 1324.7 2895.23 1329.18 2887.32 1331.26L2886.34 1328.14C2892.58 1326.06 2897.23 1321.95 2900.26 1315.82 2903.3 1309.69 2904.82 1301.89 2904.82 1292.43 2904.82 1283.3 2903.31 1275.72 2900.28 1269.68 2897.26 1263.64 2892.57 1259.58 2886.22 1257.5ZM2840.44 1254.38 2841.53 1257.5C2835.21 1259.58 2830.53 1263.64 2827.49 1269.68 2824.45 1275.72 2822.93 1283.3 2822.93 1292.43 2822.93 1301.89 2824.45 1309.69 2827.49 1315.82 2830.53 1321.95 2835.17 1326.06 2841.41 1328.14L2840.44 1331.26C2832.52 1329.18 2826.45 1324.7 2822.24 1317.83 2818.02 1310.95 2815.92 1302.62 2815.92 1292.84 2815.92 1283.09 2818.03 1274.76 2822.26 1267.85 2826.49 1260.95 2832.55 1256.46 2840.44 1254.38Z" fill="#D74514" fill-rule="evenodd"/><path d="M2871.88 1275.64C2873.69 1275.64 2875.65 1275.78 2877.75 1276.07 2879.86 1276.35 2881.72 1276.75 2883.35 1277.26L2881.08 1287.15 2873.78 1287.15C2873.84 1286.58 2873.86 1286 2873.86 1285.41 2873.86 1283.46 2873.57 1282.05 2872.97 1281.17 2872.38 1280.3 2871.5 1279.86 2870.34 1279.86 2868.34 1279.86 2866.43 1281.01 2864.62 1283.3 2862.81 1285.6 2861.3 1288.79 2860.08 1292.87 2858.87 1296.95 2858.26 1300.53 2858.26 1303.61 2858.26 1308.69 2860.11 1311.23 2863.81 1311.23 2865.68 1311.23 2867.44 1310.81 2869.1 1309.97 2870.76 1309.13 2872.65 1307.73 2874.75 1305.75L2878.04 1309.28C2875.2 1312.12 2872.36 1314.14 2869.53 1315.34 2866.69 1316.54 2863.57 1317.14 2860.16 1317.14 2856.03 1317.14 2852.82 1315.85 2850.54 1313.27 2848.26 1310.69 2847.11 1307.1 2847.11 1302.51 2847.11 1298.22 2848.08 1293.84 2850.01 1289.38 2851.94 1284.92 2854.8 1281.52 2858.58 1279.17 2862.37 1276.82 2866.8 1275.64 2871.88 1275.64Z" fill="#D74514" fill-rule="evenodd"/><text fill="#000000" fill-opacity="0" font-family="Arial,Arial_MSFontService,sans-serif" font-size="41.5" x="2847.11" y="1311.95">𝒄</text><rect x="988" y="1730" width="483" height="326" fill="#F8CCB9"/><text fill="#D74514" font-family="Microsoft YaHei,Microsoft YaHei_MSFontService,sans-serif" font-weight="700" font-size="83" transform="matrix(1 0 0 1 1105.93 1873)">密钥源</text><path d="M1191.87 1916.59 1212.26 1916.59 1211.69 1919.27C1210.15 1919.7 1209.02 1920.45 1208.29 1921.53 1207.56 1922.62 1206.87 1924.61 1206.22 1927.53L1203.18 1941.23 1203.79 1941.23C1204.92 1941.23 1205.95 1941.04 1206.87 1940.64 1207.79 1940.25 1208.8 1939.62 1209.91 1938.74 1211.02 1937.86 1212.83 1936.18 1215.34 1933.69 1217.85 1931.21 1219.67 1929.29 1220.79 1927.94 1221.91 1926.59 1222.71 1925.45 1223.18 1924.51 1223.65 1923.58 1223.89 1922.72 1223.89 1921.94 1223.89 1920.99 1223.68 1920.34 1223.24 1919.97 1222.81 1919.61 1222.09 1919.37 1221.09 1919.27L1221.7 1916.59 1241.48 1916.59 1240.87 1919.35C1239.98 1919.54 1239.2 1919.79 1238.52 1920.12 1237.85 1920.44 1237 1921.02 1235.99 1921.86 1234.98 1922.7 1233.47 1924.07 1231.47 1925.99L1216.8 1940.06 1225.35 1961.13C1226.16 1963.13 1226.88 1964.68 1227.5 1965.77 1228.12 1966.86 1228.75 1967.66 1229.38 1968.16 1230.02 1968.66 1230.85 1969.03 1231.88 1969.28L1231.35 1971.91 1211.08 1971.91 1211.69 1969.24C1212.42 1969.15 1212.94 1968.97 1213.23 1968.67 1213.53 1968.37 1213.68 1967.88 1213.68 1967.21 1213.68 1966.56 1213.54 1965.73 1213.27 1964.72 1213 1963.7 1212.42 1962.05 1211.53 1959.75L1207.84 1950.19C1207.33 1948.86 1206.85 1947.9 1206.4 1947.29 1205.96 1946.68 1205.49 1946.26 1204.99 1946.01 1204.49 1945.77 1203.76 1945.65 1202.82 1945.65L1202.21 1945.65 1198.85 1960.97C1198.66 1961.86 1198.52 1962.61 1198.44 1963.22 1198.36 1963.83 1198.32 1964.66 1198.32 1965.71 1198.32 1966.84 1198.58 1967.68 1199.11 1968.2 1199.64 1968.73 1200.49 1969.07 1201.68 1969.24L1201.11 1971.91 1180.73 1971.91 1181.3 1969.24C1182.84 1968.8 1183.97 1968.05 1184.7 1966.97 1185.43 1965.89 1186.12 1963.89 1186.77 1960.97L1194.14 1927.53C1194.5 1925.94 1194.67 1924.36 1194.67 1922.79 1194.67 1921.66 1194.41 1920.83 1193.88 1920.3 1193.35 1919.77 1192.5 1919.43 1191.31 1919.27Z" fill="#D74514" fill-rule="evenodd"/><text fill="#000000" fill-opacity="0" font-family="Arial,Arial_MSFontService,sans-serif" font-size="55.3198" x="1180.73" y="1965">𝑲</text><path d="M1261.87 1947.62 1265.69 1947.62C1265.57 1949.53 1265.51 1952.17 1265.51 1955.54L1265.51 1980.44C1265.51 1981.6 1265.57 1982.46 1265.7 1983.05 1265.83 1983.64 1266.06 1984.11 1266.39 1984.48 1266.71 1984.85 1267.18 1985.14 1267.8 1985.34 1268.42 1985.55 1269.19 1985.71 1270.12 1985.82 1271.06 1985.93 1272.29 1986 1273.82 1986.04L1273.82 1988.75 1248.11 1988.75 1248.11 1986.04C1250.32 1985.94 1251.89 1985.81 1252.83 1985.64 1253.78 1985.47 1254.5 1985.22 1254.99 1984.88 1255.49 1984.54 1255.85 1984.07 1256.08 1983.45 1256.31 1982.84 1256.42 1981.83 1256.42 1980.44L1256.42 1958.91C1256.42 1958.1 1256.27 1957.51 1255.96 1957.15 1255.65 1956.79 1255.23 1956.62 1254.69 1956.62 1254.2 1956.62 1253.5 1956.84 1252.6 1957.3 1251.69 1957.76 1250.21 1958.69 1248.14 1960.1L1246.33 1956.94Z" fill="#D74514" fill-rule="evenodd"/><text fill="#000000" fill-opacity="0" font-family="Arial,Arial_MSFontService,sans-serif" font-size="41.1333" x="1246.33" y="1983.61">𝟏</text><rect x="2461" y="1730" width="483" height="326" fill="#F8CCB9"/><text fill="#D74514" font-family="Microsoft YaHei,Microsoft YaHei_MSFontService,sans-serif" font-weight="700" font-size="83" transform="matrix(1 0 0 1 2578.74 1873)">密钥源</text><path d="M2664.68 1916.59 2685.07 1916.59 2684.5 1919.27C2682.96 1919.7 2681.83 1920.45 2681.1 1921.53 2680.37 1922.62 2679.68 1924.61 2679.03 1927.53L2675.99 1941.23 2676.6 1941.23C2677.73 1941.23 2678.76 1941.04 2679.68 1940.64 2680.6 1940.25 2681.61 1939.62 2682.72 1938.74 2683.83 1937.86 2685.64 1936.18 2688.15 1933.69 2690.66 1931.21 2692.48 1929.29 2693.6 1927.94 2694.72 1926.59 2695.52 1925.45 2695.99 1924.51 2696.46 1923.58 2696.7 1922.72 2696.7 1921.94 2696.7 1920.99 2696.49 1920.34 2696.05 1919.97 2695.62 1919.61 2694.9 1919.37 2693.9 1919.27L2694.51 1916.59 2714.29 1916.59 2713.68 1919.35C2712.79 1919.54 2712.01 1919.79 2711.33 1920.12 2710.66 1920.44 2709.81 1921.02 2708.8 1921.86 2707.79 1922.7 2706.28 1924.07 2704.28 1925.99L2689.61 1940.06 2698.16 1961.13C2698.97 1963.13 2699.69 1964.68 2700.31 1965.77 2700.93 1966.86 2701.56 1967.66 2702.19 1968.16 2702.83 1968.66 2703.66 1969.03 2704.69 1969.28L2704.16 1971.91 2683.89 1971.91 2684.5 1969.24C2685.23 1969.15 2685.75 1968.97 2686.04 1968.67 2686.34 1968.37 2686.49 1967.88 2686.49 1967.21 2686.49 1966.56 2686.35 1965.73 2686.08 1964.72 2685.81 1963.7 2685.23 1962.05 2684.34 1959.75L2680.65 1950.19C2680.14 1948.86 2679.66 1947.9 2679.21 1947.29 2678.77 1946.68 2678.29 1946.26 2677.8 1946.01 2677.3 1945.77 2676.57 1945.65 2675.63 1945.65L2675.02 1945.65 2671.66 1960.97C2671.47 1961.86 2671.33 1962.61 2671.25 1963.22 2671.17 1963.83 2671.13 1964.66 2671.13 1965.71 2671.13 1966.84 2671.39 1967.68 2671.92 1968.2 2672.45 1968.73 2673.3 1969.07 2674.49 1969.24L2673.92 1971.91 2653.54 1971.91 2654.11 1969.24C2655.65 1968.8 2656.78 1968.05 2657.51 1966.97 2658.24 1965.89 2658.93 1963.89 2659.58 1960.97L2666.95 1927.53C2667.31 1925.94 2667.48 1924.36 2667.48 1922.79 2667.48 1921.66 2667.22 1920.83 2666.69 1920.3 2666.16 1919.77 2665.31 1919.43 2664.12 1919.27Z" fill="#D74514" fill-rule="evenodd"/><text fill="#000000" fill-opacity="0" font-family="Arial,Arial_MSFontService,sans-serif" font-size="55.3198" x="2653.54" y="1965">𝑲</text><path d="M2732.36 1947.62C2735.28 1947.62 2737.66 1948.01 2739.51 1948.8 2741.35 1949.58 2742.69 1950.64 2743.51 1951.98 2744.34 1953.32 2744.75 1954.89 2744.75 1956.68 2744.75 1958.24 2744.46 1959.7 2743.87 1961.05 2743.29 1962.4 2742.27 1963.94 2740.83 1965.67 2739.39 1967.4 2736.97 1969.87 2733.55 1973.09 2732.5 1974.08 2731.24 1975.39 2729.78 1977 2728.32 1978.62 2727.17 1980.01 2726.31 1981.16L2726.31 1981.46 2736.89 1981.46C2738.18 1981.46 2739.14 1981.36 2739.78 1981.17 2740.41 1980.99 2740.91 1980.66 2741.28 1980.19 2741.65 1979.72 2741.95 1979.02 2742.19 1978.09L2745.61 1978.09 2744.93 1988.75 2717.65 1988.75 2717.65 1986.79C2719.17 1983.27 2722.3 1978.75 2727.03 1973.21 2729.17 1970.68 2730.81 1968.61 2731.93 1966.98 2733.05 1965.35 2733.89 1963.81 2734.44 1962.36 2735 1960.91 2735.28 1959.42 2735.28 1957.87 2735.28 1955.68 2734.79 1953.97 2733.82 1952.73 2732.85 1951.49 2731.52 1950.87 2729.83 1950.87 2726.59 1950.87 2724.52 1953.2 2723.6 1957.87L2718.24 1957.87 2718.24 1950.84C2721.48 1949.53 2724.09 1948.66 2726.07 1948.25 2728.06 1947.83 2730.16 1947.62 2732.36 1947.62Z" fill="#D74514" fill-rule="evenodd"/><text fill="#000000" fill-opacity="0" font-family="Arial,Arial_MSFontService,sans-serif" font-size="41.1333" x="2717.65" y="1983.61">𝟐</text><rect x="533" y="582" width="432" height="326" fill="#D74514"/><text fill="#FFFFFF" font-family="Microsoft YaHei,Microsoft YaHei_MSFontService,sans-serif" font-weight="700" font-size="83" transform="matrix(1 0 0 1 666.653 725)">非法<tspan font-size="83" x="-41.25" y="99">接入者</tspan></text><rect x="2788" y="582" width="576" height="325" fill="#D74514"/><text fill="#FFFFFF" font-family="Microsoft YaHei,Microsoft YaHei_MSFontService,sans-serif" font-weight="700" font-size="83" transform="matrix(1 0 0 1 2869.35 724)">密码分析员<tspan font-size="83" x="50.4165" y="99">(</tspan><tspan font-size="83" x="82.5" y="99">窃听者</tspan><tspan font-size="83" x="330" y="99">)</tspan></text><rect x="3438" y="1075" width="432" height="325" fill="#D74514"/><text fill="#FFFFFF" font-family="Microsoft YaHei,Microsoft YaHei_MSFontService,sans-serif" font-weight="700" font-size="83" transform="matrix(1 0 0 1 3529.95 1267)">接收者</text><path d="M683.88 1160.92C685.583 1160.92 686.927 1161.48 687.913 1162.6 688.899 1163.72 689.392 1165.18 689.392 1167 689.392 1168.48 689.081 1170.06 688.46 1171.74L688.946 1171.9C691.432 1168.2 693.904 1165.45 696.363 1163.65 698.822 1161.85 701.307 1160.96 703.82 1160.96 706.414 1160.96 708.386 1161.69 709.737 1163.17 711.088 1164.64 711.763 1166.77 711.763 1169.55L711.763 1170.12C711.763 1170.3 711.75 1170.51 711.723 1170.72 714.046 1167.43 716.363 1164.98 718.673 1163.37 720.983 1161.76 723.381 1160.96 725.867 1160.96 728.352 1160.96 730.271 1161.67 731.622 1163.1 732.973 1164.54 733.648 1166.55 733.648 1169.14 733.648 1170.85 733.256 1173.26 732.473 1176.4L729.839 1187.02C729.109 1189.96 728.744 1192.04 728.744 1193.26 728.744 1194.34 728.92 1195.12 729.271 1195.61 729.622 1196.09 730.176 1196.34 730.933 1196.34 731.743 1196.34 732.608 1196.01 733.526 1195.34 734.445 1194.68 735.742 1193.42 737.417 1191.55L739.727 1193.82C737.404 1196.28 735.377 1198.09 733.648 1199.25 731.919 1200.42 729.947 1201 727.731 1201 725.975 1201 724.57 1200.37 723.516 1199.11 722.463 1197.86 721.936 1196.26 721.936 1194.31 721.936 1192.55 722.381 1189.97 723.273 1186.57L725.056 1179.56C725.705 1177.02 726.13 1175.14 726.333 1173.93 726.536 1172.71 726.637 1171.72 726.637 1170.97 726.637 1169.1 726.326 1167.76 725.705 1166.93 725.083 1166.11 724.07 1165.7 722.665 1165.7 721.53 1165.7 720.315 1166.12 719.018 1166.97 717.721 1167.83 716.356 1169.15 714.924 1170.95 713.492 1172.74 712.324 1174.51 711.419 1176.26 710.514 1178 709.791 1180.13 709.251 1182.64L705.563 1200.35 698.551 1200.35 703.212 1179.76C703.779 1177.25 704.164 1175.39 704.367 1174.19 704.57 1172.99 704.671 1171.95 704.671 1171.09 704.671 1169.14 704.327 1167.76 703.638 1166.93 702.949 1166.11 701.875 1165.7 700.416 1165.7 699.389 1165.7 698.22 1166.12 696.91 1166.97 695.6 1167.83 694.201 1169.19 692.715 1171.07 691.229 1172.95 690.068 1174.75 689.23 1176.48 688.393 1178.21 687.69 1180.32 687.123 1182.8L683.273 1200.35 676.261 1200.35 682.178 1174.65C682.773 1172.06 683.07 1170.06 683.07 1168.66 683.07 1167.58 682.894 1166.79 682.543 1166.31 682.192 1165.82 681.638 1165.58 680.881 1165.58 680.044 1165.58 679.159 1165.92 678.227 1166.61 677.295 1167.3 676.018 1168.55 674.397 1170.36L672.087 1168.09C674.465 1165.6 676.511 1163.79 678.227 1162.64 679.943 1161.49 681.827 1160.92 683.88 1160.92Z" fill-rule="evenodd"/><text fill="#000000" fill-opacity="0" font-family="Arial,Arial_MSFontService,sans-serif" font-size="40.0815" x="672.087" y="1195.99">𝑚</text><path d="M523.5 1233.92 884.024 1233.92 884.024 1243.08 523.5 1243.08ZM879.441 1215.58 925.274 1238.5 879.441 1261.42Z"/><path d="M1535.5 1233.92 2355.92 1233.92 2355.92 1243.08 1535.5 1243.08ZM2351.33 1215.58 2397.17 1238.5 2351.33 1261.42Z"/><path d="M3008.5 1233.92 3396.52 1233.92 3396.52 1243.08 3008.5 1243.08ZM3391.94 1215.58 3437.77 1238.5 3391.94 1261.42Z"/><path d="M3198.4 1131.12C3200.1 1131.12 3201.44 1131.69 3202.43 1132.81 3203.42 1133.93 3203.91 1135.39 3203.91 1137.2 3203.91 1138.69 3203.6 1140.27 3202.98 1141.95L3203.46 1142.11C3205.95 1138.41 3208.42 1135.66 3210.88 1133.86 3213.34 1132.06 3215.82 1131.16 3218.34 1131.16 3220.93 1131.16 3222.9 1131.9 3224.25 1133.37 3225.6 1134.85 3226.28 1136.97 3226.28 1139.76L3226.28 1140.32C3226.28 1140.51 3226.27 1140.72 3226.24 1140.93 3228.56 1137.64 3230.88 1135.18 3233.19 1133.58 3235.5 1131.97 3237.9 1131.16 3240.38 1131.16 3242.87 1131.16 3244.79 1131.88 3246.14 1133.31 3247.49 1134.74 3248.16 1136.76 3248.16 1139.35 3248.16 1141.05 3247.77 1143.47 3246.99 1146.61L3244.35 1157.22C3243.63 1160.17 3243.26 1162.25 3243.26 1163.47 3243.26 1164.55 3243.44 1165.33 3243.79 1165.82 3244.14 1166.3 3244.69 1166.55 3245.45 1166.55 3246.26 1166.55 3247.12 1166.21 3248.04 1165.55 3248.96 1164.89 3250.26 1163.63 3251.93 1161.76L3254.24 1164.03C3251.92 1166.49 3249.89 1168.3 3248.16 1169.46 3246.44 1170.62 3244.46 1171.21 3242.25 1171.21 3240.49 1171.21 3239.09 1170.58 3238.03 1169.32 3236.98 1168.07 3236.45 1166.46 3236.45 1164.52 3236.45 1162.76 3236.9 1160.18 3237.79 1156.78L3239.57 1149.77C3240.22 1147.23 3240.65 1145.35 3240.85 1144.13 3241.05 1142.92 3241.15 1141.93 3241.15 1141.18 3241.15 1139.31 3240.84 1137.97 3240.22 1137.14 3239.6 1136.32 3238.59 1135.91 3237.18 1135.91 3236.05 1135.91 3234.83 1136.33 3233.53 1137.18 3232.24 1138.03 3230.87 1139.36 3229.44 1141.15 3228.01 1142.95 3226.84 1144.72 3225.94 1146.46 3225.03 1148.21 3224.31 1150.33 3223.77 1152.85L3220.08 1170.56 3213.07 1170.56 3217.73 1149.97C3218.3 1147.46 3218.68 1145.6 3218.88 1144.4 3219.09 1143.19 3219.19 1142.16 3219.19 1141.3 3219.19 1139.35 3218.84 1137.97 3218.15 1137.14 3217.46 1136.32 3216.39 1135.91 3214.93 1135.91 3213.91 1135.91 3212.74 1136.33 3211.43 1137.18 3210.12 1138.03 3208.72 1139.4 3207.23 1141.28 3205.75 1143.15 3204.58 1144.96 3203.75 1146.69 3202.91 1148.42 3202.21 1150.52 3201.64 1153.01L3197.79 1170.56 3190.78 1170.56 3196.69 1144.86C3197.29 1142.27 3197.59 1140.27 3197.59 1138.87 3197.59 1137.78 3197.41 1137 3197.06 1136.51 3196.71 1136.03 3196.15 1135.79 3195.4 1135.79 3194.56 1135.79 3193.68 1136.13 3192.74 1136.82 3191.81 1137.51 3190.53 1138.76 3188.91 1140.57L3186.6 1138.3C3188.98 1135.81 3191.03 1134 3192.74 1132.85 3194.46 1131.7 3196.34 1131.12 3198.4 1131.12Z" fill-rule="evenodd"/><text fill="#000000" fill-opacity="0" font-family="Arial,Arial_MSFontService,sans-serif" font-size="40.0815" x="3186.6" y="1166.2">𝑚</text><path d="M965.5 740.917 1685.95 740.917 1685.95 1238.21 1681.37 1233.63 2355.98 1233.63 2355.98 1242.79 1676.78 1242.79 1676.78 745.5 1681.37 750.083 965.5 750.083ZM2351.4 1215.29 2397.23 1238.21 2351.4 1261.13Z"/><path d="M0-4.58333 630.691-4.58333 630.691 493.081 626.107 488.497 1210.97 488.497 1210.97 497.664 621.524 497.664 621.524 0 626.107 4.58333 0 4.58333ZM1206.38 470.164 1252.21 493.081 1206.38 515.997Z" transform="matrix(1 0 0 -1 1535.5 1237.58)"/><path d="M4.58333-5.01239e-06 4.58365 288.75-4.58302 288.75-4.58333 5.01239e-06ZM22.917 284.167 0.000360892 330-22.9164 284.167Z" transform="matrix(1 0 0 -1 1230.5 1730.5)"/><path d="M4.58333-5.01239e-06 4.58365 288.75-4.58302 288.75-4.58333 5.01239e-06ZM22.917 284.167 0.000360892 330-22.9164 284.167Z" transform="matrix(1 0 0 -1 2703.5 1730.5)"/><path d="M1471.5 1893.5 2461.5 1893.5" stroke="#000000" stroke-width="9.16667" stroke-miterlimit="8" stroke-dasharray="27.5 9.16667" fill="none" fill-rule="evenodd"/><path d="M1680.18 1300.75C1683.78 1300.75 1687.09 1301.15 1690.11 1301.96L1688.13 1311.12 1683.87 1311.12C1683.82 1309.07 1683.65 1307.58 1683.37 1306.66 1683.08 1305.75 1682.62 1305.06 1681.99 1304.6 1681.35 1304.14 1680.45 1303.91 1679.29 1303.91 1676.56 1303.91 1674.11 1305 1671.94 1307.17 1669.76 1309.35 1667.99 1312.43 1666.61 1316.41 1665.23 1320.4 1664.54 1324.23 1664.54 1327.9 1664.54 1330.66 1665.08 1332.7 1666.16 1334.04 1667.24 1335.38 1668.86 1336.05 1671.03 1336.05 1673.48 1336.05 1675.61 1335.58 1677.41 1334.65 1679.21 1333.72 1681.1 1332.25 1683.1 1330.25L1685.57 1332.72C1683.04 1335.53 1680.48 1337.59 1677.9 1338.88 1675.31 1340.18 1672.54 1340.83 1669.57 1340.83 1665.65 1340.83 1662.68 1339.67 1660.65 1337.34 1658.62 1335.02 1657.61 1331.64 1657.61 1327.21 1657.61 1324.32 1658.15 1321.15 1659.23 1317.69 1660.31 1314.23 1661.89 1311.19 1663.97 1308.57 1666.05 1305.95 1668.49 1303.99 1671.27 1302.69 1674.05 1301.4 1677.02 1300.75 1680.18 1300.75Z" fill-rule="evenodd"/><text fill="#000000" fill-opacity="0" font-family="Arial,Arial_MSFontService,sans-serif" font-size="40.0815" x="1657.61" y="1335.82">𝑐</text><path d="M1302.71 806.294C1306.31 806.294 1309.62 806.7 1312.64 807.51L1310.66 816.669 1306.4 816.669C1306.35 814.616 1306.18 813.13 1305.9 812.211 1305.61 811.293 1305.15 810.604 1304.52 810.144 1303.88 809.685 1302.98 809.455 1301.82 809.455 1299.09 809.455 1296.64 810.543 1294.47 812.718 1292.29 814.893 1290.52 817.973 1289.14 821.958 1287.76 825.943 1287.07 829.773 1287.07 833.448 1287.07 836.203 1287.61 838.25 1288.69 839.587 1289.77 840.925 1291.39 841.594 1293.56 841.594 1296.01 841.594 1298.14 841.128 1299.94 840.195 1301.74 839.263 1303.63 837.797 1305.63 835.798L1308.1 838.27C1305.57 841.08 1303.01 843.134 1300.42 844.43 1297.84 845.727 1295.07 846.376 1292.1 846.376 1288.18 846.376 1285.21 845.214 1283.18 842.89 1281.15 840.567 1280.14 837.19 1280.14 832.759 1280.14 829.868 1280.68 826.693 1281.76 823.235 1282.84 819.776 1284.42 816.737 1286.5 814.116 1288.58 811.495 1291.02 809.536 1293.8 808.24 1296.58 806.943 1299.55 806.294 1302.71 806.294ZM1323.9 782.14 1331.47 782.14 1331.47 784.45 1321.71 807.956 1318.26 806.943Z" fill-rule="evenodd"/><text fill="#000000" fill-opacity="0" font-family="Arial,Arial_MSFontService,sans-serif" font-size="64.2358" x="1280.14" y="838.346">𝑐′</text><path d="M3870.5 1233.92 4008 1233.92 4008 1243.08 3870.5 1243.08ZM4003.42 1215.58 4049.25 1238.5 4003.42 1261.42Z"/><path d="M3489.45 638.416C3491.15 638.416 3492.49 638.977 3493.48 640.098 3494.47 641.219 3494.96 642.685 3494.96 644.495 3494.96 645.981 3494.65 647.562 3494.03 649.237L3494.51 649.399C3497 645.698 3499.47 642.948 3501.93 641.152 3504.39 639.355 3506.87 638.457 3509.39 638.457 3511.98 638.457 3513.95 639.193 3515.3 640.665 3516.66 642.138 3517.33 644.266 3517.33 647.048L3517.33 647.616C3517.33 647.805 3517.32 648.008 3517.29 648.224 3519.61 644.927 3521.93 642.476 3524.24 640.868 3526.55 639.26 3528.95 638.457 3531.43 638.457 3533.92 638.457 3535.84 639.173 3537.19 640.605 3538.54 642.036 3539.22 644.049 3539.22 646.643 3539.22 648.345 3538.82 650.763 3538.04 653.898L3535.41 664.516C3534.68 667.461 3534.31 669.541 3534.31 670.757 3534.31 671.838 3534.49 672.621 3534.84 673.107 3535.19 673.594 3535.74 673.837 3536.5 673.837 3537.31 673.837 3538.18 673.506 3539.09 672.844 3540.01 672.182 3541.31 670.919 3542.98 669.055L3545.29 671.324C3542.97 673.783 3540.94 675.593 3539.22 676.755 3537.49 677.917 3535.51 678.498 3533.3 678.498 3531.54 678.498 3530.14 677.869 3529.08 676.613 3528.03 675.357 3527.5 673.756 3527.5 671.811 3527.5 670.054 3527.95 667.474 3528.84 664.07L3530.62 657.059C3531.27 654.519 3531.7 652.641 3531.9 651.425 3532.1 650.21 3532.2 649.223 3532.2 648.467 3532.2 646.603 3531.89 645.258 3531.27 644.434 3530.65 643.61 3529.64 643.198 3528.23 643.198 3527.1 643.198 3525.88 643.624 3524.58 644.475 3523.29 645.326 3521.92 646.65 3520.49 648.447 3519.06 650.243 3517.89 652.013 3516.99 653.756 3516.08 655.498 3515.36 657.626 3514.82 660.139L3511.13 677.849 3504.12 677.849 3508.78 657.261C3509.35 654.749 3509.73 652.891 3509.93 651.689 3510.14 650.486 3510.24 649.453 3510.24 648.588 3510.24 646.643 3509.89 645.258 3509.2 644.434 3508.52 643.61 3507.44 643.198 3505.98 643.198 3504.96 643.198 3503.79 643.624 3502.48 644.475 3501.17 645.326 3499.77 646.69 3498.28 648.568 3496.8 650.446 3495.64 652.249 3494.8 653.979 3493.96 655.708 3493.26 657.815 3492.69 660.301L3488.84 677.849 3481.83 677.849 3487.75 652.155C3488.34 649.561 3488.64 647.562 3488.64 646.157 3488.64 645.076 3488.46 644.293 3488.11 643.806 3487.76 643.32 3487.21 643.077 3486.45 643.077 3485.61 643.077 3484.73 643.421 3483.79 644.11 3482.86 644.799 3481.59 646.049 3479.96 647.859L3477.65 645.589C3480.03 643.104 3482.08 641.287 3483.79 640.138 3485.51 638.99 3487.39 638.416 3489.45 638.416ZM3555.69 614.302 3563.27 614.302 3563.27 616.612 3553.5 640.118 3550.06 639.105Z" fill-rule="evenodd"/><text fill="#000000" fill-opacity="0" font-family="Arial,Arial_MSFontService,sans-serif" font-size="64.1953" x="3477.65" y="670.473">𝑚′</text><path d="M3364.5 739.917 3713.8 739.917 3713.8 749.084 3364.5 749.083ZM3709.21 721.584 3755.05 744.5 3709.21 767.417Z"/><text font-family="Microsoft YaHei,Microsoft YaHei_MSFontService,sans-serif" font-weight="400" font-size="83" transform="matrix(1 0 0 1 1801.25 1831)">密钥信道<tspan font-size="83" x="-37.9557" y="-646">通信信道</tspan><tspan font-size="83" x="-736.064" y="-1143">搭线信道</tspan><tspan font-size="83" x="-381.428" y="-1143">(</tspan>主动攻击<tspan font-size="83" x="-23.9282" y="-1143">)</tspan><tspan font-size="83" x="155.804" y="-1141">搭线信道</tspan><tspan font-size="83" x="510.439" y="-1141">(</tspan>被动攻击<tspan font-size="83" x="867.939" y="-1141">)</tspan></text></g></svg>