<svg xmlns="http://www.w3.org/2000/svg" width="4006" height="1474" overflow="hidden"><defs><clipPath id="a"><path d="M90 582h4006v1474H90z"/></clipPath></defs><g clip-path="url(#a)" transform="translate(-90 -582)"><path fill="#d74514" d="M90 1075h433v325H90z"/><text fill="#fff" font-family="Microsoft YaHei,Microsoft YaHei_MSFontService,sans-serif" font-size="83" font-weight="700" transform="translate(223.803 1217)">信源</text><path fill="#fff" fill-rule="evenodd" d="M282.163 1261.17h18.886l3.161 33.84 19.21-33.84h18.845l-.567 2.68c-1.54.43-2.675 1.19-3.405 2.27q-1.094 1.62-2.067 6l-7.376 33.43q-.284 1.305-.405 2.25-.121.96-.121 2.49c0 1.14.263 1.97.79 2.5.527.52 1.384.87 2.573 1.03l-.567 2.67h-20.385l.567-2.67c1.54-.43 2.675-1.19 3.404-2.27q1.095-1.62 2.067-6l3.729-17.02a257 257 0 0 1 4.377-16.98h-.811c-1.27 2.32-2.634 4.74-4.093 7.25l-18.237 31.57h-6.566l-2.675-24.35q-.931-8.67-1.215-14.88h-.649q-1.621 10.02-3.08 16.62l-3.931 17.79q-.284 1.305-.405 2.25-.122.96-.122 2.49c0 1.14.263 1.97.79 2.5.527.52 1.385.87 2.574 1.03l-.568 2.67h-14.873l.567-2.67c1.54-.43 2.675-1.19 3.405-2.27q1.094-1.62 2.066-6l7.376-33.43c.352-1.6.527-3.18.527-4.75q0-1.695-.79-2.49c-.527-.52-1.385-.87-2.574-1.03Z"/><text x="271.018" y="1309.58" fill-opacity="0" font-family="Arial,Arial_MSFontService,sans-serif" font-size="55.32">𝑴</text><path fill="#fdefe8" d="M924 1075h611v325H924z"/><text fill="#d74514" font-family="Microsoft YaHei,Microsoft YaHei_MSFontService,sans-serif" font-size="83" font-weight="700" transform="translate(1105.93 1217)">加密器</text><path fill="#d74514" fill-rule="evenodd" d="M1046.31 1275.64c1.81 0 3.77.14 5.88.43 2.1.28 3.97.68 5.59 1.19l-2.27 9.89h-7.3q.09-.855.09-1.74c0-1.95-.3-3.36-.9-4.24-.59-.87-1.47-1.31-2.63-1.31-2 0-3.9 1.15-5.71 3.44-1.81 2.3-3.33 5.49-4.54 9.57q-1.83 6.12-1.83 10.74c0 5.08 1.85 7.62 5.56 7.62q2.79 0 5.28-1.26c1.67-.84 3.55-2.24 5.66-4.22l3.28 3.53c-2.84 2.84-5.67 4.86-8.51 6.06q-4.26 1.8-9.36 1.8c-4.14 0-7.34-1.29-9.63-3.87-2.28-2.58-3.42-6.17-3.42-10.76 0-4.29.96-8.67 2.9-13.13 1.93-4.46 4.78-7.86 8.57-10.21 3.78-2.35 8.21-3.53 13.29-3.53"/><text x="1021.55" y="1311.95" fill-opacity="0" font-family="Arial,Arial_MSFontService,sans-serif" font-size="41.5">𝒄</text><path fill="#d74514" fill-rule="evenodd" d="M1088.07 1298.5H1138v5.39h-49.93Zm0-16.82H1138v5.39h-49.93Z"/><text x="1088.07" y="1301.11" fill-opacity="0" font-family="Arial,Arial_MSFontService,sans-serif" font-size="22.209">=</text><path fill="#d74514" fill-rule="evenodd" d="M1180.28 1261.17h39.35l-2.88 13.05h-5.18c-.14-2.56-.38-4.36-.73-5.39-.35-1.02-.9-1.77-1.62-2.23-.73-.45-1.76-.68-3.08-.68h-10.18l-4.29 19.45h5.63c1.08 0 1.99-.18 2.74-.53.74-.35 1.43-.94 2.06-1.76.64-.83 1.27-1.97 1.89-3.43h4.46l-3.9 16.46h-4.17c0-1.57-.09-2.77-.28-3.61s-.54-1.44-1.06-1.82c-.51-.38-1.39-.57-2.63-.57h-5.76l-4.78 21.64h9.12c1.19 0 2.11-.08 2.78-.24.66-.16 1.27-.42 1.82-.77s1.2-.91 1.93-1.68c.72-.77 1.45-1.75 2.16-2.92.72-1.18 1.46-2.59 2.21-4.24h5.51l-3.72 14.59h-38.55l.57-2.67c1.54-.43 2.68-1.19 3.41-2.27s1.41-3.08 2.06-6l7.38-33.43c.35-1.6.53-3.18.53-4.75 0-1.13-.27-1.96-.79-2.49-.53-.52-1.39-.87-2.58-1.03Z"/><text x="1169.13" y="1309.58" fill-opacity="0" font-family="Arial,Arial_MSFontService,sans-serif" font-size="55.32">𝑬</text><path fill="#d74514" fill-rule="evenodd" d="M1278.11 1292.2h3.81c-.12 1.91-.18 4.55-.18 7.93v24.9c0 1.15.07 2.02.2 2.6.13.59.36 1.07.68 1.43.33.37.8.66 1.42.87.61.21 1.39.36 2.32.47s2.17.19 3.69.23v2.71h-25.7v-2.71c2.2-.1 3.78-.24 4.72-.41.94-.16 1.66-.42 2.16-.75.5-.34.86-.82 1.09-1.43.23-.62.34-1.62.34-3.01v-21.54c0-.81-.15-1.4-.46-1.75-.31-.36-.73-.54-1.27-.54-.49 0-1.19.23-2.1.68-.9.46-2.39 1.39-4.45 2.8l-1.82-3.15Zm-40.13-1.51h3.37l-5.54 25.07h.59c.72 0 1.39-.12 2.03-.38.77-.32 1.73-.89 2.86-1.7 1.53-1.13 2.61-2.02 3.25-2.65q.945-.96 1.32-1.8c.25-.57.37-1.15.37-1.75 0-.45-.12-.84-.37-1.16s-.69-.5-1.32-.56l.47-1.97h10.61l.74 1.94c-1.23 1.35-2.89 2.82-4.97 4.4l-6.71 5.04 3.07 10.87c.36 1.29.69 2.16 1 2.62s.74.69 1.3.69c.51 0 1.1-.27 1.75-.79.66-.53 1.43-1.32 2.33-2.37l2.14 2.14c-1.85 1.99-3.51 3.4-5 4.23-1.49.84-3.02 1.25-4.59 1.25-1.97 0-3.49-.46-4.59-1.4-1.09-.93-1.88-2.53-2.38-4.79l-1.58-7.15c-.1-.48-.23-.85-.39-1.13a1.33 1.33 0 0 0-.62-.6c-.26-.12-.65-.18-1.16-.18h-.75l-3.24 14.78h-8.55l7.53-33.66q.66-2.925.66-4.26c0-.44-.05-.78-.13-1.03-.09-.24-.23-.45-.41-.61s-.41-.28-.71-.37-.89-.19-1.76-.31l.48-1.94Z"/><text x="1223.42" y="1328.42" fill-opacity="0" font-family="Arial,Arial_MSFontService,sans-serif" font-size="43.129">𝒌𝟏</text><path fill="#d74514" fill-rule="evenodd" d="M1410.5 1254.38c7.89 2.08 13.94 6.57 18.17 13.47 4.23 6.91 6.34 15.24 6.34 24.99 0 9.78-2.1 18.11-6.32 24.99-4.21 6.87-10.28 11.35-18.19 13.43l-.98-3.12c6.24-2.08 10.88-6.19 13.92-12.32s4.56-13.93 4.56-23.39c0-9.13-1.51-16.71-4.54-22.75-3.02-6.04-7.71-10.1-14.06-12.18Zm-81.83 0 1.09 3.12q-9.48 3.12-14.04 12.18c-3.04 6.04-4.56 13.62-4.56 22.75 0 9.46 1.52 17.26 4.56 23.39s7.68 10.24 13.92 12.32l-.97 3.12c-7.92-2.08-13.98-6.56-18.2-13.43-4.21-6.88-6.32-15.21-6.32-24.99 0-9.75 2.11-18.08 6.34-24.99q6.345-10.35 18.18-13.47m17.21 21.26q3.375 0 5.37 1.89c1.34 1.25 2.01 2.91 2.01 4.96q0 1.02-.24 1.95l.48.24c2.46-3.11 4.85-5.39 7.16-6.85q3.465-2.19 8.04-2.19c2.7 0 4.83.75 6.38 2.23 1.56 1.49 2.37 3.54 2.45 6.16 2.25-2.86 4.51-4.98 6.79-6.34 2.29-1.37 4.87-2.05 7.76-2.05 2.73 0 4.87.77 6.43 2.31 1.55 1.54 2.33 3.69 2.33 6.45 0 .81-.07 1.79-.2 2.95-.14 1.17-.34 2.27-.61 3.33l-3.29 13.05c-.29 1.13-.48 2.01-.56 2.63s-.12 1.33-.12 2.11c0 1.05.17 1.78.52 2.19.35.4.85.61 1.5.61.79 0 1.66-.38 2.64-1.12.97-.74 2.12-1.87 3.44-3.38l2.92 2.92c-2.65 2.7-5.02 4.62-7.11 5.75-2.1 1.13-4.4 1.7-6.91 1.7-2.79 0-4.85-.69-6.2-2.06-1.35-1.38-2.03-3.49-2.03-6.33 0-.89.09-1.98.28-3.26q.285-1.92.81-3.99l1.87-7.05c.43-1.6.82-3.28 1.15-5.05q.51-2.655.51-4.11c0-2.49-.97-3.73-2.92-3.73-1.16 0-2.58.74-4.25 2.23a21.9 21.9 0 0 0-4.16 4.88c-1.09 1.77-1.94 4.12-2.53 7.03l-4.46 20.79h-11.67l5.92-25.77c.29-1.24.5-2.26.6-3.06.11-.8.17-1.49.17-2.09 0-1.4-.25-2.42-.73-3.06-.49-.63-1.26-.95-2.31-.95-1.25 0-2.71.77-4.4 2.31s-3.05 3.16-4.09 4.86-1.87 4.03-2.5 6.97l-4.53 20.79h-11.64l6.53-28.16c.4-1.76.61-3.1.61-4.02 0-.89-.15-1.58-.45-2.06-.3-.49-.81-.73-1.54-.73-.84 0-1.74.38-2.71 1.13-.98.76-2.11 1.88-3.41 3.37l-2.92-2.92c2.71-2.76 5.1-4.69 7.2-5.8 2.09-1.1 4.3-1.66 6.62-1.66"/><text x="1332.06" y="1311.95" fill-opacity="0" font-family="Arial,Arial_MSFontService,sans-serif" font-size="41.5">𝒎</text><path fill="#fdefe8" d="M2397 1075h611v325h-611z"/><text fill="#d74514" font-family="Microsoft YaHei,Microsoft YaHei_MSFontService,sans-serif" font-size="83" font-weight="700" transform="translate(2578.74 1217)">加密器</text><path fill="#d74514" fill-rule="evenodd" d="M2500.88 1275.64q3.375 0 5.37 1.89c1.34 1.25 2.01 2.91 2.01 4.96q0 1.02-.24 1.95l.48.24c2.46-3.11 4.85-5.39 7.16-6.85q3.465-2.19 8.04-2.19c2.7 0 4.83.75 6.38 2.23 1.56 1.49 2.38 3.54 2.46 6.16 2.24-2.86 4.5-4.98 6.78-6.34 2.29-1.37 4.88-2.05 7.77-2.05 2.72 0 4.87.77 6.42 2.31s2.33 3.69 2.33 6.45c0 .81-.07 1.79-.2 2.95-.14 1.17-.34 2.27-.61 3.33l-3.28 13.05c-.3 1.13-.49 2.01-.57 2.63s-.12 1.33-.12 2.11c0 1.05.17 1.78.52 2.19.36.4.86.61 1.5.61.79 0 1.67-.38 2.64-1.12s2.12-1.87 3.44-3.38l2.92 2.92c-2.65 2.7-5.02 4.62-7.11 5.75-2.1 1.13-4.4 1.7-6.91 1.7-2.78 0-4.85-.69-6.2-2.06-1.35-1.38-2.03-3.49-2.03-6.33 0-.89.1-1.98.29-3.26q.27-1.92.81-3.99l1.86-7.05c.43-1.6.82-3.28 1.16-5.05.33-1.77.5-3.14.5-4.11 0-2.49-.97-3.73-2.92-3.73-1.16 0-2.58.74-4.25 2.23a21.9 21.9 0 0 0-4.16 4.88c-1.09 1.77-1.93 4.12-2.53 7.03l-4.46 20.79h-11.67l5.92-25.77c.3-1.24.5-2.26.61-3.06.1-.8.16-1.49.16-2.09 0-1.4-.24-2.42-.73-3.06-.49-.63-1.26-.95-2.31-.95-1.24 0-2.71.77-4.4 2.31s-3.05 3.16-4.09 4.86-1.87 4.03-2.49 6.97l-4.54 20.79h-11.63l6.52-28.16c.41-1.76.61-3.1.61-4.02 0-.89-.15-1.58-.45-2.06-.29-.49-.81-.73-1.54-.73-.84 0-1.74.38-2.71 1.13-.98.76-2.11 1.88-3.41 3.37l-2.92-2.92c2.71-2.76 5.1-4.69 7.2-5.8 2.09-1.1 4.3-1.66 6.62-1.66"/><text x="2487.06" y="1311.95" fill-opacity="0" font-family="Arial,Arial_MSFontService,sans-serif" font-size="41.5">𝒎</text><path fill="#d74514" fill-rule="evenodd" d="M2591.82 1298.5h49.93v5.39h-49.93Zm0-16.82h49.93v5.39h-49.93Z"/><text x="2591.82" y="1301.11" fill-opacity="0" font-family="Arial,Arial_MSFontService,sans-serif" font-size="22.209">=</text><path fill="#d74514" fill-rule="evenodd" d="M2702.79 1265.92c-1.35 0-2.39.02-3.12.08l-10.01 45.55c1.24.11 2.24.16 3 .16 3.48 0 6.49-.69 9.02-2.07q3.78-2.055 6.72-6.3c1.96-2.82 3.5-6.27 4.62-10.33 1.13-4.07 1.69-8.15 1.69-12.26 0-2.78-.32-5.12-.94-7.01s-1.48-3.42-2.57-4.58q-1.635-1.74-3.81-2.49c-1.45-.5-2.98-.75-4.6-.75m-18.76-4.75h16.41c4.46 0 8.02.25 10.7.73 2.43.44 4.65 1.18 6.67 2.23 2.01 1.06 3.6 2.22 4.76 3.49 1.48 1.56 2.65 3.53 3.5 5.89.85 2.37 1.28 5.14 1.28 8.33 0 3.6-.41 7.04-1.22 10.34-.81 3.29-2 6.34-3.58 9.14-1.58 2.79-3.47 5.2-5.68 7.21-2.2 2.01-4.41 3.58-6.62 4.7-2.22 1.12-4.72 1.95-7.5 2.47-2.78.53-6.08.79-9.89.79h-19.98l.57-2.67c1.54-.43 2.67-1.19 3.4-2.27q1.095-1.62 2.07-6l7.38-33.43c.35-1.6.52-3.18.52-4.75 0-1.13-.26-1.96-.79-2.49-.52-.52-1.38-.87-2.57-1.03Z"/><text x="2672.88" y="1309.58" fill-opacity="0" font-family="Arial,Arial_MSFontService,sans-serif" font-size="55.32">𝑫</text><path fill="#d74514" fill-rule="evenodd" d="M2787.56 1292.2c2.91 0 5.3.4 7.14 1.18 1.85.78 3.19 1.85 4.01 3.19s1.24 2.9 1.24 4.69c0 1.57-.3 3.03-.88 4.38-.59 1.35-1.6 2.89-3.04 4.61-1.44 1.73-3.87 4.2-7.28 7.42-1.06.99-2.31 2.3-3.77 3.92s-2.62 3-3.47 4.15v.3h10.57c1.29 0 2.26-.09 2.89-.28.64-.19 1.14-.52 1.51-.99.36-.46.67-1.16.9-2.1h3.43l-.69 10.67h-27.28v-1.97c1.53-3.51 4.66-8.04 9.38-13.58 2.15-2.52 3.78-4.6 4.9-6.23 1.13-1.62 1.96-3.16 2.52-4.61s.83-2.95.83-4.5c0-2.18-.48-3.9-1.45-5.14-.98-1.24-2.31-1.86-4-1.86-3.23 0-5.31 2.33-6.22 7h-5.36v-7.03c3.23-1.31 5.85-2.17 7.83-2.59 1.99-.42 4.08-.63 6.29-.63m-37.81-1.51h3.37l-5.54 25.07h.59c.72 0 1.39-.12 2.03-.38.77-.32 1.73-.89 2.86-1.7 1.53-1.13 2.61-2.02 3.24-2.65.64-.64 1.08-1.24 1.33-1.8.25-.57.37-1.15.37-1.75 0-.45-.12-.84-.37-1.16s-.69-.5-1.33-.56l.48-1.97h10.6l.75 1.94c-1.23 1.35-2.89 2.82-4.98 4.4l-6.7 5.04 3.07 10.87c.36 1.29.69 2.16 1 2.62q.465.69 1.29.69c.52 0 1.11-.27 1.76-.79.66-.53 1.43-1.32 2.33-2.37l2.14 2.14c-1.85 1.99-3.52 3.4-5 4.23-1.49.84-3.02 1.25-4.59 1.25-1.97 0-3.5-.46-4.59-1.4-1.09-.93-1.88-2.53-2.38-4.79l-1.58-7.15c-.1-.48-.23-.85-.39-1.13s-.36-.48-.62-.6-.65-.18-1.16-.18h-.75l-3.25 14.78h-8.54l7.53-33.66q.66-2.925.66-4.26c0-.44-.05-.78-.14-1.03a1.5 1.5 0 0 0-.4-.61c-.18-.16-.42-.28-.71-.37-.3-.09-.89-.19-1.76-.31l.48-1.94Z"/><text x="2735.19" y="1328.42" fill-opacity="0" font-family="Arial,Arial_MSFontService,sans-serif" font-size="43.129">𝒌𝟐</text><path fill="#d74514" fill-rule="evenodd" d="M2887.32 1254.38c7.89 2.08 13.94 6.57 18.17 13.47 4.23 6.91 6.35 15.24 6.35 24.99q0 14.67-6.33 24.99c-4.21 6.87-10.28 11.35-18.19 13.43l-.98-3.12c6.24-2.08 10.89-6.19 13.92-12.32 3.04-6.13 4.56-13.93 4.56-23.39 0-9.13-1.51-16.71-4.54-22.75-3.02-6.04-7.71-10.1-14.06-12.18Zm-46.88 0 1.09 3.12q-9.48 3.12-14.04 12.18c-3.04 6.04-4.56 13.62-4.56 22.75 0 9.46 1.52 17.26 4.56 23.39s7.68 10.24 13.92 12.32l-.97 3.12c-7.92-2.08-13.99-6.56-18.2-13.43-4.22-6.88-6.32-15.21-6.32-24.99 0-9.75 2.11-18.08 6.34-24.99q6.345-10.35 18.18-13.47m31.44 21.26c1.81 0 3.77.14 5.87.43 2.11.28 3.97.68 5.6 1.19l-2.27 9.89h-7.3c.06-.57.08-1.15.08-1.74 0-1.95-.29-3.36-.89-4.24-.59-.87-1.47-1.31-2.63-1.31-2 0-3.91 1.15-5.72 3.44-1.81 2.3-3.32 5.49-4.54 9.57-1.21 4.08-1.82 7.66-1.82 10.74q0 7.62 5.55 7.62c1.87 0 3.63-.42 5.29-1.26s3.55-2.24 5.65-4.22l3.29 3.53c-2.84 2.84-5.68 4.86-8.51 6.06-2.84 1.2-5.96 1.8-9.37 1.8-4.13 0-7.34-1.29-9.62-3.87s-3.43-6.17-3.43-10.76c0-4.29.97-8.67 2.9-13.13s4.79-7.86 8.57-10.21c3.79-2.35 8.22-3.53 13.3-3.53"/><text x="2847.11" y="1311.95" fill-opacity="0" font-family="Arial,Arial_MSFontService,sans-serif" font-size="41.5">𝒄</text><path fill="#f8ccb9" d="M988 1730h483v326H988z"/><text fill="#d74514" font-family="Microsoft YaHei,Microsoft YaHei_MSFontService,sans-serif" font-size="83" font-weight="700" transform="translate(1105.93 1873)">密钥源</text><path fill="#d74514" fill-rule="evenodd" d="M1191.87 1916.59h20.39l-.57 2.68c-1.54.43-2.67 1.18-3.4 2.26-.73 1.09-1.42 3.08-2.07 6l-3.04 13.7h.61c1.13 0 2.16-.19 3.08-.59.92-.39 1.93-1.02 3.04-1.9s2.92-2.56 5.43-5.05c2.51-2.48 4.33-4.4 5.45-5.75s1.92-2.49 2.39-3.43c.47-.93.71-1.79.71-2.57 0-.95-.21-1.6-.65-1.97-.43-.36-1.15-.6-2.15-.7l.61-2.68h19.78l-.61 2.76c-.89.19-1.67.44-2.35.77-.67.32-1.52.9-2.53 1.74s-2.52 2.21-4.52 4.13l-14.67 14.07 8.55 21.07c.81 2 1.53 3.55 2.15 4.64s1.25 1.89 1.88 2.39c.64.5 1.47.87 2.5 1.12l-.53 2.63h-20.27l.61-2.67c.73-.09 1.25-.27 1.54-.57.3-.3.45-.79.45-1.46 0-.65-.14-1.48-.41-2.49-.27-1.02-.85-2.67-1.74-4.97l-3.69-9.56c-.51-1.33-.99-2.29-1.44-2.9-.44-.61-.91-1.03-1.41-1.28-.5-.24-1.23-.36-2.17-.36h-.61l-3.36 15.32c-.19.89-.33 1.64-.41 2.25q-.12.915-.12 2.49c0 1.13.26 1.97.79 2.49.53.53 1.38.87 2.57 1.04l-.57 2.67h-20.38l.57-2.67c1.54-.44 2.67-1.19 3.4-2.27q1.095-1.62 2.07-6l7.37-33.44c.36-1.59.53-3.17.53-4.74 0-1.13-.26-1.96-.79-2.49s-1.38-.87-2.57-1.03Z"/><text x="1180.73" y="1965" fill-opacity="0" font-family="Arial,Arial_MSFontService,sans-serif" font-size="55.32">𝑲</text><path fill="#d74514" fill-rule="evenodd" d="M1261.87 1947.62h3.82q-.18 2.865-.18 7.92v24.9c0 1.16.06 2.02.19 2.61s.36 1.06.69 1.43c.32.37.79.66 1.41.86.62.21 1.39.37 2.32.48.94.11 2.17.18 3.7.22v2.71h-25.71v-2.71c2.21-.1 3.78-.23 4.72-.4.95-.17 1.67-.42 2.16-.76.5-.34.86-.81 1.09-1.43.23-.61.34-1.62.34-3.01v-21.53c0-.81-.15-1.4-.46-1.76s-.73-.53-1.27-.53c-.49 0-1.19.22-2.09.68-.91.46-2.39 1.39-4.46 2.8l-1.81-3.16Z"/><text x="1246.33" y="1983.61" fill-opacity="0" font-family="Arial,Arial_MSFontService,sans-serif" font-size="41.133">𝟏</text><path fill="#f8ccb9" d="M2461 1730h483v326h-483z"/><text fill="#d74514" font-family="Microsoft YaHei,Microsoft YaHei_MSFontService,sans-serif" font-size="83" font-weight="700" transform="translate(2578.74 1873)">密钥源</text><path fill="#d74514" fill-rule="evenodd" d="M2664.68 1916.59h20.39l-.57 2.68c-1.54.43-2.67 1.18-3.4 2.26-.73 1.09-1.42 3.08-2.07 6l-3.04 13.7h.61c1.13 0 2.16-.19 3.08-.59.92-.39 1.93-1.02 3.04-1.9s2.92-2.56 5.43-5.05c2.51-2.48 4.33-4.4 5.45-5.75s1.92-2.49 2.39-3.43c.47-.93.71-1.79.71-2.57 0-.95-.21-1.6-.65-1.97-.43-.36-1.15-.6-2.15-.7l.61-2.68h19.78l-.61 2.76c-.89.19-1.67.44-2.35.77-.67.32-1.52.9-2.53 1.74s-2.52 2.21-4.52 4.13l-14.67 14.07 8.55 21.07c.81 2 1.53 3.55 2.15 4.64s1.25 1.89 1.88 2.39c.64.5 1.47.87 2.5 1.12l-.53 2.63h-20.27l.61-2.67c.73-.09 1.25-.27 1.54-.57.3-.3.45-.79.45-1.46 0-.65-.14-1.48-.41-2.49-.27-1.02-.85-2.67-1.74-4.97l-3.69-9.56c-.51-1.33-.99-2.29-1.44-2.9-.44-.61-.92-1.03-1.41-1.28-.5-.24-1.23-.36-2.17-.36h-.61l-3.36 15.32c-.19.89-.33 1.64-.41 2.25q-.12.915-.12 2.49c0 1.13.26 1.97.79 2.49.53.53 1.38.87 2.57 1.04l-.57 2.67h-20.38l.57-2.67c1.54-.44 2.67-1.19 3.4-2.27q1.095-1.62 2.07-6l7.37-33.44c.36-1.59.53-3.17.53-4.74 0-1.13-.26-1.96-.79-2.49s-1.38-.87-2.57-1.03Z"/><text x="2653.54" y="1965" fill-opacity="0" font-family="Arial,Arial_MSFontService,sans-serif" font-size="55.32">𝑲</text><path fill="#d74514" fill-rule="evenodd" d="M2732.36 1947.62c2.92 0 5.3.39 7.15 1.18 1.84.78 3.18 1.84 4 3.18.83 1.34 1.24 2.91 1.24 4.7 0 1.56-.29 3.02-.88 4.37-.58 1.35-1.6 2.89-3.04 4.62s-3.86 4.2-7.28 7.42c-1.05.99-2.31 2.3-3.77 3.91-1.46 1.62-2.61 3.01-3.47 4.16v.3h10.58c1.29 0 2.25-.1 2.89-.29.63-.18 1.13-.51 1.5-.98s.67-1.17.91-2.1h3.42l-.68 10.66h-27.28v-1.96c1.52-3.52 4.65-8.04 9.38-13.58 2.14-2.53 3.78-4.6 4.9-6.23s1.96-3.17 2.51-4.62c.56-1.45.84-2.94.84-4.49 0-2.19-.49-3.9-1.46-5.14q-1.455-1.86-3.99-1.86c-3.24 0-5.31 2.33-6.23 7h-5.36v-7.03c3.24-1.31 5.85-2.18 7.83-2.59 1.99-.42 4.09-.63 6.29-.63"/><text x="2717.65" y="1983.61" fill-opacity="0" font-family="Arial,Arial_MSFontService,sans-serif" font-size="41.133">𝟐</text><path fill="#d74514" d="M533 582h432v326H533z"/><text fill="#fff" font-family="Microsoft YaHei,Microsoft YaHei_MSFontService,sans-serif" font-size="83" font-weight="700" transform="translate(666.653 725)">非法<tspan x="-41.25" y="99">接入者</tspan></text><path fill="#d74514" d="M2788 582h576v325h-576z"/><text fill="#fff" font-family="Microsoft YaHei,Microsoft YaHei_MSFontService,sans-serif" font-size="83" font-weight="700" transform="translate(2869.35 724)">密码分析员<tspan x="50.416" y="99">(</tspan><tspan x="82.5" y="99">窃听者</tspan><tspan x="330" y="99">)</tspan></text><path fill="#d74514" d="M3438 1075h432v325h-432z"/><text fill="#fff" font-family="Microsoft YaHei,Microsoft YaHei_MSFontService,sans-serif" font-size="83" font-weight="700" transform="translate(3529.95 1267)">接收者</text><path fill-rule="evenodd" d="M683.88 1160.92q2.554 0 4.033 1.68c.986 1.12 1.479 2.58 1.479 4.4q0 2.22-.932 4.74l.486.16q3.729-5.55 7.417-8.25c2.459-1.8 4.944-2.69 7.457-2.69 2.594 0 4.566.73 5.917 2.21 1.351 1.47 2.026 3.6 2.026 6.38v.57c0 .18-.013.39-.04.6q3.485-4.935 6.95-7.35c2.31-1.61 4.708-2.41 7.194-2.41s4.404.71 5.755 2.14c1.351 1.44 2.026 3.45 2.026 6.04 0 1.71-.392 4.12-1.175 7.26l-2.634 10.62q-1.095 4.41-1.095 6.24c0 1.08.176 1.86.527 2.35.351.48.905.73 1.662.73.81 0 1.675-.33 2.593-1 .919-.66 2.216-1.92 3.891-3.79l2.31 2.27q-3.485 3.69-6.079 5.43c-1.729 1.17-3.701 1.75-5.917 1.75q-2.634 0-4.215-1.89-1.58-1.875-1.58-4.8 0-2.64 1.337-7.74l1.783-7.01c.649-2.54 1.074-4.42 1.277-5.63.203-1.22.304-2.21.304-2.96 0-1.87-.311-3.21-.932-4.04q-.933-1.23-3.04-1.23c-1.135 0-2.35.42-3.647 1.27-1.297.86-2.662 2.18-4.094 3.98q-2.148 2.685-3.505 5.31c-.905 1.74-1.628 3.87-2.168 6.38l-3.688 17.71h-7.012l4.661-20.59c.567-2.51.952-4.37 1.155-5.57s.304-2.24.304-3.1c0-1.95-.344-3.33-1.033-4.16q-1.034-1.23-3.222-1.23c-1.027 0-2.196.42-3.506 1.27-1.31.86-2.709 2.22-4.195 4.1s-2.647 3.68-3.485 5.41c-.837 1.73-1.54 3.84-2.107 6.32l-3.85 17.55h-7.012l5.917-25.7c.595-2.59.892-4.59.892-5.99 0-1.08-.176-1.87-.527-2.35-.351-.49-.905-.73-1.662-.73-.837 0-1.722.34-2.654 1.03q-1.398 1.035-3.83 3.75l-2.31-2.27c2.378-2.49 4.424-4.3 6.14-5.45a9.94 9.94 0 0 1 5.653-1.72"/><text x="672.087" y="1195.99" fill-opacity="0" font-family="Arial,Arial_MSFontService,sans-serif" font-size="40.081">𝑚</text><path d="M523.5 1233.92h360.524v9.16H523.5Zm355.941-18.34 45.833 22.92-45.833 22.92Zm656.059 18.34h820.42v9.16H1535.5Zm815.83-18.34 45.84 22.92-45.84 22.92Zm657.17 18.34h388.02v9.16H3008.5Zm383.44-18.34 45.83 22.92-45.83 22.92Z"/><path fill-rule="evenodd" d="M3198.4 1131.12c1.7 0 3.04.57 4.03 1.69s1.48 2.58 1.48 4.39c0 1.49-.31 3.07-.93 4.75l.48.16c2.49-3.7 4.96-6.45 7.42-8.25s4.94-2.7 7.46-2.7c2.59 0 4.56.74 5.91 2.21 1.35 1.48 2.03 3.6 2.03 6.39v.56c0 .19-.01.4-.04.61 2.32-3.29 4.64-5.75 6.95-7.35 2.31-1.61 4.71-2.42 7.19-2.42 2.49 0 4.41.72 5.76 2.15s2.02 3.45 2.02 6.04q0 2.55-1.17 7.26l-2.64 10.61c-.72 2.95-1.09 5.03-1.09 6.25 0 1.08.18 1.86.53 2.35.35.48.9.73 1.66.73.81 0 1.67-.34 2.59-1s2.22-1.92 3.89-3.79l2.31 2.27c-2.32 2.46-4.35 4.27-6.08 5.43-1.72 1.16-3.7 1.75-5.91 1.75-1.76 0-3.16-.63-4.22-1.89-1.05-1.25-1.58-2.86-1.58-4.8 0-1.76.45-4.34 1.34-7.74l1.78-7.01c.65-2.54 1.08-4.42 1.28-5.64.2-1.21.3-2.2.3-2.95 0-1.87-.31-3.21-.93-4.04-.62-.82-1.63-1.23-3.04-1.23-1.13 0-2.35.42-3.65 1.27-1.29.85-2.66 2.18-4.09 3.97-1.43 1.8-2.6 3.57-3.5 5.31-.91 1.75-1.63 3.87-2.17 6.39l-3.69 17.71h-7.01l4.66-20.59c.57-2.51.95-4.37 1.15-5.57.21-1.21.31-2.24.31-3.1 0-1.95-.35-3.33-1.04-4.16-.69-.82-1.76-1.23-3.22-1.23-1.02 0-2.19.42-3.5 1.27s-2.71 2.22-4.2 4.1c-1.48 1.87-2.65 3.68-3.48 5.41-.84 1.73-1.54 3.83-2.11 6.32l-3.85 17.55h-7.01l5.91-25.7c.6-2.59.9-4.59.9-5.99 0-1.09-.18-1.87-.53-2.36-.35-.48-.91-.72-1.66-.72-.84 0-1.72.34-2.66 1.03-.93.69-2.21 1.94-3.83 3.75l-2.31-2.27c2.38-2.49 4.43-4.3 6.14-5.45 1.72-1.15 3.6-1.73 5.66-1.73"/><text x="3186.6" y="1166.2" fill-opacity="0" font-family="Arial,Arial_MSFontService,sans-serif" font-size="40.081">𝑚</text><path d="M965.5 740.917h720.45v497.293l-4.58-4.58h674.61v9.16h-679.2V745.5l4.59 4.583H965.5Zm1385.9 474.373 45.83 22.92-45.83 22.92Z"/><path d="M1535.5 1242.163h630.691V744.5l-4.584 4.584h584.863v-9.167h-589.446v497.664l4.583-4.583H1535.5Zm1206.38-474.747 45.83-22.917-45.83-22.916ZM1235.083 1730.5v-288.75h-9.166v288.75Zm18.334-284.167L1230.5 1400.5l-22.916 45.833ZM2708.083 1730.5v-288.75h-9.166v288.75Zm18.334-284.167L2703.5 1400.5l-22.916 45.833Z"/><path fill="none" stroke="#000" stroke-dasharray="27.5 9.16667" stroke-miterlimit="8" stroke-width="9.167" d="M1471.5 1893.5h990"/><path fill-rule="evenodd" d="M1680.18 1300.75c3.6 0 6.91.4 9.93 1.21l-1.98 9.16h-4.26c-.05-2.05-.22-3.54-.5-4.46-.29-.91-.75-1.6-1.38-2.06q-.96-.69-2.7-.69c-2.73 0-5.18 1.09-7.35 3.26-2.18 2.18-3.95 5.26-5.33 9.24q-2.07 5.985-2.07 11.49c0 2.76.54 4.8 1.62 6.14s2.7 2.01 4.87 2.01c2.45 0 4.58-.47 6.38-1.4s3.69-2.4 5.69-4.4l2.47 2.47c-2.53 2.81-5.09 4.87-7.67 6.16-2.59 1.3-5.36 1.95-8.33 1.95-3.92 0-6.89-1.16-8.92-3.49-2.03-2.32-3.04-5.7-3.04-10.13 0-2.89.54-6.06 1.62-9.52q1.62-5.19 4.74-9.12c2.08-2.62 4.52-4.58 7.3-5.88 2.78-1.29 5.75-1.94 8.91-1.94"/><text x="1657.61" y="1335.82" fill-opacity="0" font-family="Arial,Arial_MSFontService,sans-serif" font-size="40.081">𝑐</text><path fill-rule="evenodd" d="M1302.71 806.294q5.4 0 9.93 1.216l-1.98 9.159h-4.26c-.05-2.053-.22-3.539-.5-4.458q-.435-1.377-1.38-2.067-.96-.689-2.7-.689-4.095 0-7.35 3.263c-2.18 2.175-3.95 5.255-5.33 9.24q-2.07 5.977-2.07 11.49 0 4.133 1.62 6.139c1.08 1.338 2.7 2.007 4.87 2.007 2.45 0 4.58-.466 6.38-1.399 1.8-.932 3.69-2.398 5.69-4.397l2.47 2.472q-3.795 4.216-7.68 6.16c-2.58 1.297-5.35 1.946-8.32 1.946-3.92 0-6.89-1.162-8.92-3.486-2.03-2.323-3.04-5.7-3.04-10.131q0-4.337 1.62-9.524 1.62-5.188 4.74-9.119c2.08-2.621 4.52-4.58 7.3-5.876q4.17-1.946 8.91-1.946m21.19-24.154h7.57v2.31l-9.76 23.506-3.45-1.013Z"/><text x="1280.14" y="838.346" fill-opacity="0" font-family="Arial,Arial_MSFontService,sans-serif" font-size="64.236">𝑐′</text><path d="M3870.5 1233.92H4008v9.16h-137.5Zm132.92-18.34 45.83 22.92-45.83 22.92Z"/><path fill-rule="evenodd" d="M3489.45 638.416c1.7 0 3.04.561 4.03 1.682s1.48 2.587 1.48 4.397q0 2.23-.93 4.742l.48.162c2.49-3.701 4.96-6.451 7.42-8.247s4.94-2.695 7.46-2.695q3.885 0 5.91 2.208c1.36 1.473 2.03 3.601 2.03 6.383v.568c0 .189-.01.392-.04.608 2.32-3.297 4.64-5.748 6.95-7.356s4.71-2.411 7.19-2.411q3.735 0 5.76 2.148c1.35 1.431 2.03 3.444 2.03 6.038 0 1.702-.4 4.12-1.18 7.255l-2.63 10.618c-.73 2.945-1.1 5.025-1.1 6.241 0 1.081.18 1.864.53 2.35.35.487.9.73 1.66.73.81 0 1.68-.331 2.59-.993.92-.662 2.22-1.925 3.89-3.789l2.31 2.269c-2.32 2.459-4.35 4.269-6.07 5.431-1.73 1.162-3.71 1.743-5.92 1.743-1.76 0-3.16-.629-4.22-1.885-1.05-1.256-1.58-2.857-1.58-4.802 0-1.757.45-4.337 1.34-7.741l1.78-7.011c.65-2.54 1.08-4.418 1.28-5.634q.3-1.823.3-2.958 0-2.797-.93-4.033c-.62-.824-1.63-1.236-3.04-1.236-1.13 0-2.35.426-3.65 1.277-1.29.851-2.66 2.175-4.09 3.972-1.43 1.796-2.6 3.566-3.5 5.309-.91 1.742-1.63 3.87-2.17 6.383l-3.69 17.71h-7.01l4.66-20.588c.57-2.512.95-4.37 1.15-5.572.21-1.203.31-2.236.31-3.101 0-1.945-.35-3.33-1.04-4.154-.68-.824-1.76-1.236-3.22-1.236-1.02 0-2.19.426-3.5 1.277q-1.965 1.276-4.2 4.093-2.22 2.817-3.48 5.411c-.84 1.729-1.54 3.836-2.11 6.322l-3.85 17.548h-7.01l5.92-25.694c.59-2.594.89-4.593.89-5.998 0-1.081-.18-1.864-.53-2.351s-.9-.729-1.66-.729c-.84 0-1.72.344-2.66 1.033-.93.689-2.2 1.939-3.83 3.749l-2.31-2.27c2.38-2.485 4.43-4.302 6.14-5.451 1.72-1.148 3.6-1.722 5.66-1.722m66.24-24.114h7.58v2.31l-9.77 23.506-3.44-1.013Z"/><text x="3477.65" y="670.473" fill-opacity="0" font-family="Arial,Arial_MSFontService,sans-serif" font-size="64.195">𝑚′</text><path d="M3364.5 739.917h349.3v9.167l-349.3-.001Zm344.71-18.333 45.84 22.916-45.84 22.917Z"/><text font-family="Microsoft YaHei,Microsoft YaHei_MSFontService,sans-serif" font-size="83" font-weight="400" transform="translate(1801.25 1831)">密钥信道<tspan x="-37.956" y="-646">通信信道</tspan><tspan x="-736.064" y="-1143">搭线信道</tspan><tspan x="-381.428" y="-1143">(</tspan>主动攻击<tspan x="-23.928" y="-1143">)</tspan><tspan x="155.804" y="-1141">搭线信道</tspan><tspan x="510.439" y="-1141">(</tspan>被动攻击<tspan x="867.939" y="-1141">)</tspan></text></g></svg>