<svg xmlns="http://www.w3.org/2000/svg" width="1138" height="1443" overflow="hidden"><defs><clipPath id="a"><path d="M589 207h1138v1443H589z"/></clipPath></defs><g clip-path="url(#a)" transform="translate(-589 -207)"><path fill="#fef8f6" fill-rule="evenodd" d="M713.215 398.925h833.005V1451.93H713.215Z"/><path fill="none" stroke="#d74514" stroke-miterlimit="8" stroke-width="9.167" d="M820.5 1225.5h148v148h-148zm148.129 74H820.5m74 74.13v-148.129m-74-662.001c0-40.869 33.131-74 74-74s74 33.131 74 74-33.131 74-74 74-74-33.131-74-74Z"/><path fill="#d74514" fill-rule="evenodd" d="M885 563.5a9.5 9.5 0 0 1 9.5-9.5 9.5 9.5 0 0 1 9.5 9.5 9.5 9.5 0 0 1-9.5 9.5 9.5 9.5 0 0 1-9.5-9.5"/><path fill-rule="evenodd" d="M606.648 537.538h35.096l-.446 1.945-36.879 49.646h12.968q2.067 0 3.344-.344a7 7 0 0 0 2.249-1.034q.973-.689 1.986-1.864t2.047-2.898 2.37-4.802h3.891l-3.121 14.671h-35.947l.405-1.986 36.799-49.606h-12.442q-2.27 0-3.607.406-1.338.405-2.492 1.438-1.155 1.033-2.412 2.878-1.256 1.843-2.918 5.248h-3.89Z"/><text x="594.206" y="585.943" fill-opacity="0" font-family="Arial,Arial_MSFontService,sans-serif" font-size="55.32">𝑍</text><path fill-rule="evenodd" d="M666.392 569.7h2.681l-.417 7.208h-17.454v11.646a23 23 0 0 1 3.455-.864 22 22 0 0 1 3.783-.328q2.74 0 4.959.76t3.812 2.174a9.7 9.7 0 0 1 2.473 3.426q.878 2.01.878 4.512 0 2.86-.983 5.093a10.5 10.5 0 0 1-2.814 3.798q-1.833 1.563-4.468 2.383-2.636.819-5.942.819a29.4 29.4 0 0 1-5.362-.507 42 42 0 0 1-5.689-1.489v-6.612h3.813q.894 3.008 2.681 4.304 1.787 1.295 4.706 1.295 3.902 0 5.897-2.025t1.996-6.344q0-4.14-2.115-6.151-2.115-2.01-5.927-2.01-1.013 0-1.832.03a14.6 14.6 0 0 0-3.217.476q-.79.209-1.772.477l-2.442-1.341v-18.735h16.501q.714-.029 1.146-.089t.7-.268.477-.581q.209-.372.476-1.057"/><text x="645.304" y="605.248" fill-opacity="0" font-family="Arial,Arial_MSFontService,sans-serif" font-size="40.627">5</text><path fill="none" stroke="#d74514" stroke-miterlimit="8" stroke-width="9.167" d="M1279.5 737.5h148v148h-148zm148.13 74h-148.129m73.999 74.129V737.5m-74 296.5c0-41.145 33.13-74.5 74-74.5s74 33.355 74 74.5c0 41.15-33.13 74.5-74 74.5s-74-33.35-74-74.5Z"/><path fill="#d74514" fill-rule="evenodd" d="M1344 1033.5c0-5.25 4.25-9.5 9.5-9.5s9.5 4.25 9.5 9.5-4.25 9.5-9.5 9.5-9.5-4.25-9.5-9.5"/><path d="M889.917 637.5v178.459h348.422v-9.167H894.5l4.583 4.584V637.5Zm343.839 196.792 45.834-22.916-45.834-22.917ZM1358.17 1108.5v196.01h-348.42v-9.17h343.84l-4.58 4.59V1108.5Zm-343.84 214.34-45.83-22.91 45.83-22.92Z"/><path d="m899.083 637.5.001 546.25h-9.167V637.5Zm18.334 541.66L894.5 1225l-22.916-45.84Z"/><path fill="none" stroke="#000" stroke-miterlimit="8" stroke-width="9.167" d="M1353.5 885.5v74.065"/><path d="M691.5 558.917h87.542v9.166H691.5Zm82.959-18.334 45.833 22.917-45.833 22.917ZM899.083 341.5l.001 106.616-9.167.001V341.5Zm18.334 102.033L894.5 489.366l-22.917-45.833Z"/><path fill-rule="evenodd" d="M855.893 248.788h36.556l-2.797 12.442h-3.89q-.162-3.12-.507-4.924t-.973-2.593q-.627-.79-1.519-1.074t-2.675-.284h-12.483l-4.822 22.047h7.578q1.783 0 2.959-.487 1.175-.486 2.188-1.763t2.513-4.356h3.688l-3.931 17.102h-3.567q0-4.093-.263-5.126-.264-1.034-1.013-1.419-.75-.385-2.979-.385h-7.943l-3.202 14.347q-.85 3.81-.851 6.322 0 1.257.405 1.966t1.216 1.033q.81.324 2.796.486l-.445 1.986h-16.657l.446-1.986q1.539-.243 2.31-.79.77-.547 1.297-1.52.526-.972.972-2.37t1.338-5.411l6.889-31.206q.892-4.053.892-6.403 0-1.986-.932-2.756-.933-.77-3.04-.892Z"/><text x="845.275" y="297.193" fill-opacity="0" font-family="Arial,Arial_MSFontService,sans-serif" font-size="55.32">𝐹</text><path fill-rule="evenodd" d="M902.555 282.589h1.817a219 219 0 0 0-.149 7.863v22.637q0 .923.06 1.593t.193 1.132q.135.462.358.789.223.328.521.566.357.358.953.551t1.519.328 2.219.209 3.113.104v2.591h-23.62v-2.591q1.757-.06 2.979-.134 1.221-.075 2.085-.209a10 10 0 0 0 1.385-.298q.52-.163.908-.402a3.8 3.8 0 0 0 .715-.581q.297-.312.476-.789a5.8 5.8 0 0 0 .283-1.161q.105-.685.105-1.698v-21.356q0-1.163-.447-1.638-.447-.477-1.281-.477-.923 0-2.74.953-1.817.954-4.706 2.83a23 23 0 0 1-.715-1.37 84 84 0 0 0-.685-1.4q3.693-2.026 7.312-4.036a558 558 0 0 1 7.342-4.006"/><text x="887.901" y="316.157" fill-opacity="0" font-family="Arial,Arial_MSFontService,sans-serif" font-size="38.363">1</text><path fill-rule="evenodd" d="M1314.1 248.317h36.55l-2.79 12.442h-3.9c-.1-2.08-.27-3.722-.5-4.924s-.56-2.067-.97-2.594c-.42-.527-.93-.885-1.52-1.074-.6-.189-1.49-.283-2.68-.283h-12.48l-4.82 22.046h7.57c1.19 0 2.18-.162 2.96-.486q1.185-.486 2.19-1.763c.68-.851 1.51-2.303 2.51-4.357h3.69l-3.93 17.103h-3.57c0-2.729-.08-4.438-.26-5.127-.17-.689-.51-1.161-1.01-1.418s-1.5-.385-2.98-.385h-7.94l-3.21 14.347c-.56 2.539-.85 4.647-.85 6.322 0 .837.14 1.493.41 1.965.27.473.67.818 1.21 1.034s1.48.378 2.8.486l-.45 1.986h-16.65l.44-1.986q1.545-.243 2.31-.79c.52-.365.95-.871 1.3-1.52.35-.648.68-1.439.97-2.371.3-.932.75-2.735 1.34-5.41l6.89-31.206c.59-2.702.89-4.836.89-6.404q0-1.985-.93-2.755c-.62-.514-1.64-.811-3.04-.892Z"/><text x="1303.48" y="296.722" fill-opacity="0" font-family="Arial,Arial_MSFontService,sans-serif" font-size="55.32">𝐹</text><path fill-rule="evenodd" d="M1360.34 281.909q3.09 0 5.28.7c1.46.467 2.65 1.097 3.56 1.891a6.75 6.75 0 0 1 1.98 2.86c.41 1.112.61 2.313.61 3.604 0 .774-.05 1.494-.16 2.159a8.8 8.8 0 0 1-.57 1.966c-.26.645-.62 1.296-1.05 1.951-.44.655-.99 1.35-1.64 2.085-.5.635-1.14 1.37-1.94 2.204-.79.834-1.66 1.727-2.6 2.681-.95.953-1.93 1.945-2.97 2.978a284 284 0 0 0-3.01 3.068 75 75 0 0 0-2.68 2.949c-.81.953-1.48 1.826-1.99 2.621h11.02c.93 0 1.68-.035 2.23-.105.56-.069 1.02-.223 1.39-.461s.68-.601.94-1.087c.25-.487.55-1.157.89-2.011h2.77c-.1 1.41-.19 2.83-.28 4.259s-.19 2.85-.29 4.26h-25.22v-1.549c.47-1.072 1.03-2.13 1.66-3.172.64-1.043 1.35-2.1 2.15-3.172a48 48 0 0 1 2.71-3.321 81 81 0 0 1 3.36-3.56q2.805-2.8 4.56-4.78c1.17-1.321 2.1-2.497 2.77-3.53.68-1.032 1.14-1.985 1.39-2.859.24-.874.37-1.807.37-2.8 0-1.013-.14-1.946-.43-2.8s-.7-1.578-1.24-2.174c-.53-.596-1.22-1.062-2.04-1.4s-1.77-.506-2.84-.506q-2.775 0-4.65 1.504c-1.25 1.003-2.22 2.457-2.92 4.363h-3.9v-5.808c2.54-1.052 4.88-1.817 7.01-2.293 2.14-.477 4.06-.715 5.77-.715"/><text x="1346.61" y="315.659" fill-opacity="0" font-family="Arial,Arial_MSFontService,sans-serif" font-size="38.572">2</text><path d="M1358.08 341.5v355.028h-9.16V341.5Zm18.34 350.445-22.92 45.833-22.92-45.833Z"/><path fill-rule="evenodd" d="M1625.64 1005.93h35.09l-.44 1.94-36.88 49.65h12.96c1.38 0 2.5-.12 3.35-.35s1.6-.57 2.25-1.03q.975-.69 1.98-1.86c.68-.79 1.36-1.75 2.05-2.9q1.035-1.725 2.37-4.8h3.89l-3.12 14.67h-35.95l.41-1.99 36.8-49.61h-12.44c-1.52 0-2.72.14-3.61.41q-1.335.405-2.49 1.44c-.77.69-1.58 1.65-2.42 2.88-.83 1.23-1.81 2.97-2.91 5.24h-3.89Z"/><text x="1613.19" y="1054.33" fill-opacity="0" font-family="Arial,Arial_MSFontService,sans-serif" font-size="55.32">𝑍</text><path fill-rule="evenodd" d="M1678.02 1058.34c-1.33 0-2.55.18-3.68.54-1.12.36-2.18.84-3.2 1.46-.41.28-.74.53-.97.77-.22.24-.39.52-.5.85s-.19.74-.23 1.22c-.03.49-.05 1.15-.05 1.98 0 7.03 2.55 10.55 7.65 10.55 1.39 0 2.59-.21 3.59-.61 1-.41 1.82-1 2.46-1.76.63-.77 1.1-1.71 1.4-2.83.29-1.12.44-2.4.44-3.83 0-2.66-.59-4.71-1.78-6.16-1.2-1.45-2.9-2.18-5.13-2.18m7.9-18.82c.23.28.45.54.65.8q.3.39.66.78v1.75c-2.41-.04-4.57.28-6.5.96-1.92.67-3.62 1.66-5.09 2.96q-2.205 1.95-3.69 4.8c-1 1.89-1.77 4.03-2.33 6.41l.33.15c.82-.55 1.62-1.03 2.41-1.44.8-.41 1.6-.75 2.42-1.01.81-.27 1.65-.47 2.53-.58.87-.12 1.81-.18 2.8-.18 1.75 0 3.29.26 4.63.77 1.34.52 2.48 1.27 3.41 2.27.93.99 1.64 2.18 2.11 3.57q.72 2.085.72 4.65c0 1.8-.3 3.48-.89 5.03-.6 1.55-1.49 2.88-2.68 3.99-1.2 1.11-2.67 1.98-4.43 2.59q-2.64.93-6.18.93c-4.47 0-7.84-1.28-10.11-3.83s-3.41-6.31-3.41-11.28c0-2.22.25-4.35.74-6.38.5-2.04 1.23-3.94 2.19-5.69a22.4 22.4 0 0 1 3.5-4.77q2.055-2.13 4.59-3.69c1.69-1.05 3.51-1.87 5.48-2.47 1.97-.61 4.01-.97 6.14-1.09"/><text x="1663.28" y="1073.82" fill-opacity="0" font-family="Arial,Arial_MSFontService,sans-serif" font-size="39.197">6</text><path d="m1608.316 1027.917-139.609 1.348.088 9.166 139.61-1.348Zm-135.203-17.029-45.61 23.358 46.052 22.473Z"/><path fill-rule="evenodd" d="M873.688 1556.83c2.567 0 4.917.15 7.052.46q3.201.465 7.011 1.68l-2.472 10.91h-3.891c-.243-3.38-.986-5.81-2.229-7.28s-3.269-2.21-6.079-2.21q-3.404 0-6.363 1.74c-1.972 1.17-3.843 2.9-5.613 5.21-1.769 2.31-3.363 5.22-4.782 8.74a63.3 63.3 0 0 0-3.303 10.98q-1.175 5.715-1.175 10.74c0 4.21.723 7.29 2.168 9.22s3.708 2.9 6.788 2.9q1.662 0 3.405-.39c1.161-.26 2.249-.69 3.262-1.32 1.013-.62 1.912-1.45 2.695-2.51.784-1.05 1.351-2.38 1.702-3.97l.446-1.91c.595-2.53.892-4.71.892-6.52 0-1.27-.318-2.15-.953-2.65s-1.641-.79-3.019-.88l.446-1.98h16.211l-.446 1.98c-1.027.22-1.77.46-2.229.73s-.871.69-1.236 1.24-.723 1.4-1.074 2.53c-.351 1.14-.811 3-1.378 5.6l-2.796 12.72-3.202.89-2.107-3.2c-2.81 1.32-5.026 2.18-6.647 2.57-1.621.4-3.269.59-4.944.59-5.08 0-8.943-1.46-11.591-4.37q-3.972-4.38-3.972-12.81 0-6.045 2.027-13.56c1.35-5.01 3.316-9.49 5.896-13.43q3.871-5.925 9.362-9.18c3.661-2.18 7.707-3.26 12.138-3.26"/><text x="844.265" y="1606.4" fill-opacity="0" font-family="Arial,Arial_MSFontService,sans-serif" font-size="56.657">𝐺</text><path fill-rule="evenodd" d="M906.726 1591.27h1.817a205 205 0 0 0-.134 5.45c-.01.82-.015 1.62-.015 2.42v22.63c0 .62.02 1.15.06 1.6.039.44.104.82.193 1.13s.209.57.358.79.322.41.521.56c.238.24.556.43.953.56.397.12.904.23 1.519.32q.923.135 2.219.21c.864.05 1.901.09 3.113.11v2.59h-23.62v-2.59c1.172-.04 2.164-.09 2.978-.14q1.222-.075 2.085-.21c.576-.09 1.038-.19 1.385-.29.348-.11.651-.25.909-.41.278-.18.516-.37.715-.58s.357-.47.476-.79c.119-.31.214-.7.283-1.16.07-.45.105-1.02.105-1.7v-21.35c0-.78-.149-1.32-.447-1.64q-.447-.48-1.281-.48-.924 0-2.74.96c-1.212.63-2.78 1.58-4.706 2.83-.258-.46-.497-.92-.715-1.37a64 64 0 0 0-.685-1.4c2.462-1.35 4.899-2.7 7.312-4.04s4.86-2.68 7.342-4.01"/><text x="892.072" y="1624.84" fill-opacity="0" font-family="Arial,Arial_MSFontService,sans-serif" font-size="38.363">1</text><path fill-rule="evenodd" d="M1331.89 1556.83c2.57 0 4.92.15 7.05.46 2.14.31 4.47.87 7.01 1.68l-2.47 10.91h-3.89c-.24-3.38-.99-5.81-2.23-7.28s-3.27-2.21-6.08-2.21q-3.405 0-6.36 1.74c-1.97 1.17-3.84 2.9-5.61 5.21s-3.37 5.22-4.79 8.74a64.6 64.6 0 0 0-3.3 10.98q-1.17 5.715-1.17 10.74c0 4.21.72 7.29 2.16 9.22 1.45 1.93 3.71 2.9 6.79 2.9 1.11 0 2.25-.13 3.41-.39s2.25-.69 3.26-1.32c1.01-.62 1.91-1.45 2.69-2.51.79-1.05 1.36-2.38 1.71-3.97l.44-1.91c.6-2.53.89-4.71.89-6.52 0-1.27-.31-2.15-.95-2.65-.63-.5-1.64-.79-3.02-.88l.45-1.98h16.21l-.45 1.98c-1.02.22-1.77.46-2.23.73-.45.27-.87.69-1.23 1.24-.37.55-.72 1.4-1.08 2.53-.35 1.14-.81 3-1.37 5.6l-2.8 12.72-3.2.89-2.11-3.2c-2.81 1.32-5.02 2.18-6.65 2.57-1.62.4-3.26.59-4.94.59-5.08 0-8.94-1.46-11.59-4.37-2.65-2.92-3.97-7.19-3.97-12.81 0-4.03.67-8.55 2.02-13.56 1.36-5.01 3.32-9.49 5.9-13.43q3.87-5.925 9.36-9.18c3.66-2.18 7.71-3.26 12.14-3.26"/><text x="1302.47" y="1606.4" fill-opacity="0" font-family="Arial,Arial_MSFontService,sans-serif" font-size="56.657">𝐺</text><path fill-rule="evenodd" d="M1364.51 1591.07c2.06 0 3.83.23 5.28.7 1.46.46 2.65 1.09 3.56 1.89a6.67 6.67 0 0 1 1.98 2.86c.41 1.11.62 2.31.62 3.6 0 .77-.06 1.49-.17 2.16-.11.66-.3 1.32-.56 1.97-.27.64-.63 1.29-1.06 1.95-.44.65-.98 1.35-1.64 2.08a31 31 0 0 1-1.94 2.21c-.79.83-1.66 1.72-2.6 2.68-.95.95-1.93 1.94-2.97 2.97-1.03 1.04-2.03 2.06-3 3.07-.98 1.02-1.87 2-2.68 2.95-.82.95-1.48 1.83-2 2.62h11.02c.93 0 1.68-.03 2.23-.1.56-.07 1.02-.23 1.39-.46.37-.24.68-.6.94-1.09s.55-1.16.89-2.01h2.77c-.1 1.41-.19 2.83-.28 4.26s-.19 2.85-.29 4.26h-25.22v-1.55c.47-1.07 1.03-2.13 1.66-3.17.64-1.05 1.35-2.1 2.15-3.18.79-1.07 1.7-2.18 2.71-3.32s2.13-2.33 3.37-3.56c1.86-1.86 3.38-3.46 4.55-4.78s2.1-2.49 2.77-3.53c.68-1.03 1.14-1.98 1.39-2.86.25-.87.37-1.8.37-2.8 0-1.01-.14-1.94-.43-2.8-.29-.85-.7-1.57-1.24-2.17-.53-.6-1.21-1.06-2.04-1.4-.82-.34-1.77-.51-2.84-.51-1.85 0-3.4.51-4.65 1.51s-2.22 2.46-2.92 4.36h-3.9v-5.81c2.54-1.05 4.88-1.81 7.01-2.29 2.14-.48 4.06-.71 5.77-.71"/><text x="1350.78" y="1624.82" fill-opacity="0" font-family="Arial,Arial_MSFontService,sans-serif" font-size="38.572">2</text><path d="M889.917 1373.5v102.178h9.166V1373.5Zm-18.334 97.595 22.917 45.833 22.916-45.833Zm477.334-362.595v367.668h9.166V1108.5Zm-18.334 363.085 22.917 45.833 22.916-45.833Z"/></g></svg>