<svg width="2997" height="1797" xmlns="http://www.w3.org/2000/svg" xmlns:xlink="http://www.w3.org/1999/xlink" overflow="hidden"><defs><clipPath id="clip0"><rect x="36" y="563" width="2997" height="1797"/></clipPath></defs><g clip-path="url(#clip0)" transform="translate(-36 -563)"><path d="M1481 744.5C1481 644.26 1562.26 563 1662.5 563 1762.74 563 1844 644.26 1844 744.5 1844 844.74 1762.74 926 1662.5 926 1562.26 926 1481 844.74 1481 744.5Z" fill="#D74514" fill-rule="evenodd"/><text fill="#FFFFFF" font-family="Microsoft YaHei,Microsoft YaHei_MSFontService,sans-serif" font-weight="700" font-size="83" transform="matrix(1 0 0 1 1573.48 774)">KDC</text><path d="M237 2011.5C237 1911.26 318.26 1830 418.5 1830 518.74 1830 600 1911.26 600 2011.5 600 2111.74 518.74 2193 418.5 2193 318.26 2193 237 2111.74 237 2011.5Z" fill="#D74514" fill-rule="evenodd"/><text fill="#FFFFFF" font-family="Microsoft YaHei,Microsoft YaHei_MSFontService,sans-serif" font-weight="700" font-size="83" transform="matrix(1 0 0 1 387.145 2041)">A</text><path d="M2670 1998.5C2670 1898.26 2751.26 1817 2851.5 1817 2951.74 1817 3033 1898.26 3033 1998.5 3033 2098.74 2951.74 2180 2851.5 2180 2751.26 2180 2670 2098.74 2670 1998.5Z" fill="#D74514" fill-rule="evenodd"/><text fill="#FFFFFF" font-family="Microsoft YaHei,Microsoft YaHei_MSFontService,sans-serif" font-weight="700" font-size="83" transform="matrix(1 0 0 1 2823.21 2028)">B<tspan fill="#000000" font-weight="400" font-size="83" x="-2626.7" y="-891">β‘ </tspan></text><path d="M362.337 1085.06C361.148 1085.06 359.865 1085.1 358.487 1085.19L347.99 1133.13C348.774 1133.21 350.273 1133.25 352.489 1133.25 356.866 1133.25 360.581 1132.49 363.634 1130.96 366.687 1129.44 369.321 1127.04 371.536 1123.79 373.752 1120.53 375.387 1117.1 376.44 1113.49 377.494 1109.89 378.021 1106.08 378.021 1102.09 378.021 1096.44 376.704 1092.19 374.069 1089.34 371.435 1086.49 367.524 1085.06 362.337 1085.06ZM346.855 1081.54 362.215 1081.54C366.295 1081.54 369.605 1081.85 372.144 1082.47 374.684 1083.09 377.055 1084.21 379.257 1085.83 381.459 1087.46 383.114 1089.61 384.221 1092.3 385.329 1094.99 385.883 1098.17 385.883 1101.84 385.883 1105.49 385.464 1108.98 384.627 1112.3 383.789 1115.62 382.587 1118.68 381.02 1121.48 379.453 1124.27 377.575 1126.71 375.387 1128.77 373.198 1130.84 371.077 1132.43 369.024 1133.54 366.97 1134.64 364.674 1135.47 362.134 1136.03 359.594 1136.58 356.636 1136.86 353.259 1136.86L336.237 1136.86 336.683 1134.87C337.71 1134.71 338.48 1134.45 338.993 1134.08 339.506 1133.72 339.939 1133.21 340.29 1132.56 340.641 1131.91 340.965 1131.12 341.263 1130.19 341.56 1129.26 342.005 1127.46 342.6 1124.78L349.49 1093.58C350.084 1090.87 350.381 1088.7 350.381 1087.05 350.381 1085.78 350.064 1084.9 349.429 1084.4 348.794 1083.9 347.787 1083.61 346.409 1083.52ZM314.855 1081.54 331.066 1081.54 330.62 1083.52C329.594 1083.74 328.857 1083.98 328.412 1084.25 327.966 1084.52 327.567 1084.93 327.216 1085.47 326.865 1086.01 326.5 1086.85 326.122 1088 325.744 1089.15 325.271 1091.02 324.703 1093.62L317.773 1125.06C317.422 1126.66 317.192 1127.92 317.084 1128.85 316.976 1129.79 316.922 1130.63 316.922 1131.39 316.922 1132.6 317.226 1133.46 317.834 1133.96 318.442 1134.46 319.462 1134.76 320.894 1134.87L320.448 1136.86 304.237 1136.86 304.683 1134.87C305.71 1134.71 306.48 1134.45 306.993 1134.08 307.506 1133.72 307.939 1133.21 308.29 1132.56 308.641 1131.91 308.965 1131.12 309.263 1130.19 309.56 1129.26 310.006 1127.46 310.6 1124.78L317.49 1093.58C318.084 1090.87 318.381 1088.7 318.381 1087.05 318.381 1085.78 318.064 1084.9 317.429 1084.4 316.794 1083.9 315.787 1083.61 314.409 1083.52Z" fill-rule="evenodd"/><text fill="#000000" fill-opacity="0" font-family="Arial,Arial_MSFontService,sans-serif" font-size="55.3198" x="304.237" y="1129.94">πΌπ·</text><path d="M407.943 1121.09C406.215 1123.91 404.503 1126.73 402.805 1129.56 401.107 1132.39 399.395 1135.23 397.667 1138.06L409.134 1138.06C409.035 1136.79 408.936 1135.55 408.837 1134.33 408.737 1133.11 408.658 1131.82 408.598 1130.47 408.539 1129.12 408.484 1127.68 408.434 1126.15 408.385 1124.62 408.36 1122.93 408.36 1121.09ZM407.824 1114.56 412.738 1114.56 415.449 1146.05C415.528 1147.06 415.652 1147.91 415.821 1148.61 415.99 1149.3 416.223 1149.88 416.521 1150.34 416.819 1150.79 417.191 1151.14 417.638 1151.38 418.085 1151.62 418.646 1151.79 419.321 1151.89L418.874 1153.7 405.888 1153.7 406.335 1151.89C406.891 1151.79 407.382 1151.66 407.809 1151.51 408.236 1151.36 408.588 1151.12 408.866 1150.77 409.144 1150.42 409.358 1149.95 409.507 1149.35 409.656 1148.76 409.73 1147.98 409.73 1147.03 409.73 1146.67 409.72 1146.26 409.7 1145.79 409.68 1145.33 409.656 1144.84 409.626 1144.32 409.596 1143.8 409.556 1143.27 409.507 1142.73 409.457 1142.18 409.412 1141.65 409.373 1141.13L396.029 1141.13C395.572 1141.81 395.121 1142.5 394.674 1143.22 394.227 1143.93 393.82 1144.63 393.453 1145.32 393.085 1146 392.792 1146.68 392.574 1147.36 392.355 1148.03 392.246 1148.7 392.246 1149.35 392.246 1150.8 393.309 1151.65 395.433 1151.89L395.046 1153.7 382.03 1153.7 382.358 1151.89C382.894 1151.79 383.375 1151.63 383.802 1151.42 384.229 1151.22 384.676 1150.89 385.142 1150.44 385.609 1149.99 386.115 1149.39 386.662 1148.62 387.208 1147.86 387.868 1146.85 388.642 1145.6Z" fill-rule="evenodd"/><text fill="#000000" fill-opacity="0" font-family="Arial,Arial_MSFontService,sans-serif" font-size="39.1377" x="382.03" y="1148.81">π΄</text><path d="M472.005 1081.54 478.327 1081.54 478.327 1144.96 472.005 1144.96ZM457.82 1081.54 464.142 1081.54 464.142 1144.96 457.82 1144.96Z" fill-rule="evenodd"/><text fill="#000000" fill-opacity="0" font-family="Arial,Arial_MSFontService,sans-serif" font-size="63.4253" x="457.82" y="1137.04">β¥</text><path d="M588.868 1085.06C587.679 1085.06 586.396 1085.1 585.018 1085.19L574.521 1133.13C575.305 1133.21 576.804 1133.25 579.02 1133.25 583.397 1133.25 587.112 1132.49 590.165 1130.96 593.218 1129.44 595.852 1127.04 598.068 1123.79 600.283 1120.53 601.918 1117.1 602.971 1113.49 604.025 1109.89 604.552 1106.08 604.552 1102.09 604.552 1096.44 603.235 1092.19 600.601 1089.34 597.966 1086.49 594.055 1085.06 588.868 1085.06ZM573.387 1081.54 588.746 1081.54C592.826 1081.54 596.136 1081.85 598.676 1082.47 601.215 1083.09 603.586 1084.21 605.788 1085.83 607.99 1087.46 609.645 1089.61 610.753 1092.3 611.86 1094.99 612.414 1098.17 612.414 1101.84 612.414 1105.49 611.996 1108.98 611.158 1112.3 610.32 1115.62 609.118 1118.68 607.551 1121.48 605.984 1124.27 604.106 1126.71 601.918 1128.77 599.729 1130.84 597.608 1132.43 595.555 1133.54 593.502 1134.64 591.205 1135.47 588.665 1136.03 586.126 1136.58 583.167 1136.86 579.79 1136.86L562.768 1136.86 563.214 1134.87C564.241 1134.71 565.011 1134.45 565.524 1134.08 566.038 1133.72 566.47 1133.21 566.821 1132.56 567.172 1131.91 567.497 1131.12 567.794 1130.19 568.091 1129.26 568.537 1127.46 569.131 1124.78L576.021 1093.58C576.615 1090.87 576.912 1088.7 576.912 1087.05 576.912 1085.78 576.595 1084.9 575.96 1084.4 575.325 1083.9 574.319 1083.61 572.941 1083.52ZM541.387 1081.54 557.597 1081.54 557.152 1083.52C556.125 1083.74 555.389 1083.98 554.943 1084.25 554.497 1084.52 554.099 1084.93 553.747 1085.47 553.396 1086.01 553.031 1086.85 552.653 1088 552.275 1089.15 551.802 1091.02 551.235 1093.62L544.305 1125.06C543.953 1126.66 543.724 1127.92 543.616 1128.85 543.507 1129.79 543.453 1130.63 543.453 1131.39 543.453 1132.6 543.757 1133.46 544.365 1133.96 544.973 1134.46 545.993 1134.76 547.425 1134.87L546.979 1136.86 530.768 1136.86 531.214 1134.87C532.241 1134.71 533.011 1134.45 533.524 1134.08 534.038 1133.72 534.47 1133.21 534.821 1132.56 535.172 1131.91 535.497 1131.12 535.794 1130.19 536.091 1129.26 536.537 1127.46 537.131 1124.78L544.021 1093.58C544.615 1090.87 544.912 1088.7 544.912 1087.05 544.912 1085.78 544.595 1084.9 543.96 1084.4 543.325 1083.9 542.319 1083.61 540.941 1083.52Z" fill-rule="evenodd"/><text fill="#000000" fill-opacity="0" font-family="Arial,Arial_MSFontService,sans-serif" font-size="55.3198" x="530.768" y="1129.94">πΌπ·</text><path d="M627.049 1135.27 623.654 1150.54C624.131 1150.56 624.731 1150.58 625.456 1150.6 626.181 1150.62 627.04 1150.63 628.032 1150.63 630.177 1150.63 632.029 1150.45 633.587 1150.08 635.146 1149.72 636.437 1149.14 637.459 1148.36 638.482 1147.57 639.237 1146.55 639.723 1145.3 640.21 1144.05 640.453 1142.55 640.453 1140.81 640.453 1139.89 640.314 1139.09 640.036 1138.39 639.758 1137.7 639.296 1137.12 638.651 1136.65 638.005 1136.18 637.181 1135.84 636.179 1135.61 635.176 1135.38 633.95 1135.27 632.5 1135.27ZM636.045 1118.17C635.091 1118.17 634.183 1118.18 633.319 1118.21 632.456 1118.24 631.626 1118.3 630.832 1118.38L627.764 1132.17 632.381 1132.17C634.545 1132.17 636.377 1131.96 637.876 1131.56 639.376 1131.15 640.592 1130.57 641.525 1129.81 642.458 1129.06 643.138 1128.15 643.565 1127.09 643.992 1126.03 644.206 1124.83 644.206 1123.5 644.166 1122.65 643.997 1121.88 643.699 1121.21 643.402 1120.53 642.93 1119.97 642.285 1119.52 641.639 1119.08 640.805 1118.74 639.783 1118.51 638.76 1118.28 637.514 1118.17 636.045 1118.17ZM621.748 1115.07 637.355 1115.07C639.678 1115.07 641.649 1115.26 643.268 1115.64 644.886 1116.01 646.216 1116.56 647.259 1117.27 648.301 1117.99 649.056 1118.85 649.522 1119.85 649.989 1120.85 650.222 1122 650.222 1123.29 650.222 1128.18 647.154 1131.62 641.019 1133.63 641.019 1133.73 641.014 1133.81 641.004 1133.87 640.994 1133.92 640.989 1133.97 640.989 1134.01 642.836 1134.75 644.236 1135.76 645.189 1137.05 646.142 1138.34 646.618 1139.83 646.618 1141.52 646.618 1143.43 646.266 1145.13 645.561 1146.63 644.856 1148.13 643.769 1149.4 642.299 1150.44 640.83 1151.48 638.944 1152.29 636.64 1152.85 634.337 1153.42 631.577 1153.7 628.36 1153.7L614.391 1153.7 614.718 1151.89C615.334 1151.79 615.835 1151.67 616.223 1151.54 616.61 1151.41 616.957 1151.14 617.265 1150.71 617.573 1150.28 617.856 1149.64 618.114 1148.79 618.372 1147.93 618.67 1146.72 619.008 1145.15L623.892 1123.44C624.091 1122.57 624.24 1121.79 624.339 1121.12 624.438 1120.44 624.488 1119.89 624.488 1119.45 624.488 1118.56 624.265 1117.92 623.818 1117.54 623.371 1117.17 622.532 1116.97 621.301 1116.95Z" fill-rule="evenodd"/><text fill="#000000" fill-opacity="0" font-family="Arial,Arial_MSFontService,sans-serif" font-size="38.6313" x="614.391" y="1148.87">πµ</text><path d="M722.552 1081.54 728.875 1081.54 728.875 1144.96 722.552 1144.96ZM708.368 1081.54 714.69 1081.54 714.69 1144.96 708.368 1144.96Z" fill-rule="evenodd"/><text fill="#000000" fill-opacity="0" font-family="Arial,Arial_MSFontService,sans-serif" font-size="63.4253" x="708.368" y="1137.04">β¥</text><path d="M791.853 1081.54 804.782 1081.54 815.481 1113.11C817.021 1117.65 818.21 1121.48 819.047 1124.62L819.493 1124.62C819.709 1122.97 820.202 1120.23 820.972 1116.39 821.742 1112.56 822.452 1109.21 823.1 1106.34L825.937 1093.58C826.531 1090.9 826.828 1088.73 826.828 1087.05 826.828 1085.78 826.511 1084.9 825.876 1084.4 825.241 1083.9 824.235 1083.61 822.857 1083.52L823.303 1081.54 837.487 1081.54 837.041 1083.52C836.015 1083.74 835.278 1083.98 834.833 1084.25 834.387 1084.52 833.988 1084.93 833.637 1085.47 833.286 1086.01 832.921 1086.85 832.543 1088 832.165 1089.15 831.692 1091.02 831.124 1093.62L821.6 1136.86 816.089 1136.86 804.255 1102.09C802.823 1097.93 801.566 1093.78 800.486 1089.64L799.959 1089.64C799.797 1091.02 799.351 1093.65 798.621 1097.53 797.892 1101.4 797.122 1105.19 796.311 1108.89L792.745 1125.06C792.178 1127.63 791.894 1129.74 791.894 1131.39 791.894 1132.6 792.198 1133.46 792.806 1133.96 793.414 1134.46 794.434 1134.76 795.866 1134.87L795.42 1136.86 781.235 1136.86 781.681 1134.87C782.708 1134.71 783.478 1134.45 783.991 1134.08 784.504 1133.72 784.937 1133.21 785.288 1132.56 785.639 1131.91 785.963 1131.12 786.261 1130.19 786.558 1129.26 787.004 1127.46 787.598 1124.78L794.488 1093.58C794.758 1092.41 794.974 1091.31 795.136 1090.25 795.298 1089.2 795.379 1088.13 795.379 1087.05 795.379 1085.78 795.062 1084.9 794.427 1084.4 793.792 1083.9 792.786 1083.61 791.408 1083.52Z" fill-rule="evenodd"/><text fill="#000000" fill-opacity="0" font-family="Arial,Arial_MSFontService,sans-serif" font-size="55.3198" x="781.235" y="1129.94">π‘</text><path d="M850.513 1115.34 852.33 1115.34C852.29 1116.43 852.261 1117.41 852.241 1118.27 852.221 1119.14 852.206 1119.98 852.196 1120.79 852.186 1121.6 852.181 1122.41 852.181 1123.2L852.181 1145.84C852.181 1146.45 852.201 1146.99 852.241 1147.43 852.281 1147.88 852.345 1148.26 852.434 1148.56 852.524 1148.87 852.643 1149.14 852.792 1149.35 852.941 1149.57 853.115 1149.76 853.313 1149.92 853.551 1150.16 853.869 1150.34 854.266 1150.47 854.663 1150.6 855.17 1150.71 855.785 1150.8 856.401 1150.89 857.141 1150.96 858.004 1151.01 858.868 1151.06 859.906 1151.09 861.117 1151.11L861.117 1153.7 837.497 1153.7 837.497 1151.11C838.669 1151.07 839.662 1151.03 840.476 1150.98 841.29 1150.93 841.985 1150.86 842.561 1150.77 843.137 1150.68 843.598 1150.58 843.946 1150.47 844.293 1150.36 844.596 1150.23 844.854 1150.07 845.132 1149.89 845.37 1149.7 845.569 1149.49 845.768 1149.28 845.926 1149.02 846.046 1148.7 846.165 1148.38 846.259 1147.99 846.328 1147.54 846.398 1147.08 846.433 1146.51 846.433 1145.84L846.433 1124.48C846.433 1123.71 846.284 1123.16 845.986 1122.84 845.688 1122.53 845.261 1122.37 844.705 1122.37 844.09 1122.37 843.176 1122.69 841.965 1123.32 840.754 1123.96 839.185 1124.9 837.259 1126.15 837.001 1125.69 836.763 1125.24 836.544 1124.78 836.326 1124.32 836.097 1123.86 835.859 1123.38 838.321 1122.03 840.759 1120.69 843.171 1119.34 845.584 1118 848.031 1116.67 850.513 1115.34Z" fill-rule="evenodd"/><text fill="#000000" fill-opacity="0" font-family="Arial,Arial_MSFontService,sans-serif" font-size="38.3633" x="835.859" y="1148.91">1</text><text font-family="Microsoft YaHei,Microsoft YaHei_MSFontService,sans-serif" font-weight="400" font-size="83" transform="matrix(1 0 0 1 962.002 1275)">β‘΅</text><path d="M1080.35 1219.9 1117.63 1219.9 1114.84 1232.34 1110.94 1232.34C1110.84 1229.99 1110.63 1228.22 1110.34 1227.03 1110.04 1225.84 1109.68 1225.03 1109.26 1224.58 1108.84 1224.13 1108.34 1223.84 1107.76 1223.69 1107.18 1223.54 1106.35 1223.47 1105.27 1223.47L1092.06 1223.47 1087.44 1244.7 1095.18 1244.7C1097.1 1244.7 1098.56 1244.25 1099.58 1243.34 1100.59 1242.44 1101.61 1240.95 1102.64 1238.87L1106.32 1238.87 1102.68 1254.43 1099.23 1254.43C1099.23 1252.27 1099.1 1250.8 1098.83 1250.03 1098.56 1249.26 1098.16 1248.78 1097.63 1248.57 1097.1 1248.37 1096.15 1248.27 1094.77 1248.27L1086.67 1248.27 1081.48 1271.65 1093.48 1271.65C1095.07 1271.65 1096.33 1271.49 1097.27 1271.17 1098.2 1270.84 1099.08 1270.32 1099.9 1269.59 1100.73 1268.86 1101.55 1267.84 1102.37 1266.53 1103.2 1265.22 1104.18 1263.44 1105.31 1261.2L1109.24 1261.2 1105.68 1275.22 1069.73 1275.22 1070.17 1273.23C1071.2 1273.07 1071.97 1272.81 1072.48 1272.44 1073 1272.08 1073.43 1271.57 1073.78 1270.92 1074.13 1270.28 1074.46 1269.48 1074.75 1268.55 1075.05 1267.62 1075.5 1265.82 1076.09 1263.14L1082.98 1231.94C1083.58 1229.23 1083.87 1227.06 1083.87 1225.41 1083.87 1224.14 1083.56 1223.26 1082.92 1222.76 1082.29 1222.26 1081.28 1221.97 1079.9 1221.89Z" fill-rule="evenodd"/><text fill="#000000" fill-opacity="0" font-family="Arial,Arial_MSFontService,sans-serif" font-size="55.3198" x="1069.73" y="1268.3">πΈ</text><path d="M1123.88 1253.43 1136.45 1253.43 1136.12 1255.22C1135.67 1255.34 1135.28 1255.44 1134.96 1255.52 1134.64 1255.6 1134.36 1255.72 1134.11 1255.87 1133.86 1256.03 1133.65 1256.25 1133.47 1256.51 1133.29 1256.78 1133.12 1257.15 1132.95 1257.62 1132.78 1258.08 1132.6 1258.67 1132.41 1259.37 1132.23 1260.08 1132.01 1260.95 1131.77 1261.98L1129.84 1270.74 1130.67 1270.74C1131.13 1270.74 1131.55 1270.71 1131.92 1270.65 1132.3 1270.59 1132.67 1270.48 1133.04 1270.33 1133.41 1270.19 1133.78 1269.98 1134.17 1269.72 1134.56 1269.47 1135 1269.14 1135.5 1268.74 1137.56 1267.13 1139.29 1265.69 1140.68 1264.42 1142.07 1263.15 1143.2 1262.03 1144.06 1261.06 1144.92 1260.08 1145.54 1259.25 1145.91 1258.57 1146.27 1257.88 1146.46 1257.31 1146.46 1256.86 1146.46 1256.38 1146.27 1256.01 1145.89 1255.74 1145.51 1255.47 1144.9 1255.33 1144.05 1255.31L1144.37 1253.43 1157.93 1253.43 1157.51 1255.31C1157.05 1255.35 1156.62 1255.44 1156.21 1255.58 1155.81 1255.72 1155.33 1255.97 1154.8 1256.34 1154.26 1256.7 1153.62 1257.21 1152.88 1257.85 1152.13 1258.5 1151.19 1259.34 1150.06 1260.37L1138.45 1270.86 1145.18 1284.86C1145.69 1285.95 1146.14 1286.81 1146.52 1287.45 1146.89 1288.08 1147.28 1288.59 1147.68 1288.97 1148.08 1289.34 1148.53 1289.62 1149.03 1289.78 1149.54 1289.95 1150.17 1290.11 1150.93 1290.25L1150.45 1292.06 1138.18 1292.06 1138.59 1290.25C1139.15 1290.21 1139.57 1290.08 1139.85 1289.87 1140.12 1289.67 1140.26 1289.4 1140.26 1289.08 1140.24 1288.87 1140.21 1288.64 1140.17 1288.4 1140.13 1288.16 1140.06 1287.9 1139.96 1287.61 1139.87 1287.32 1139.74 1286.98 1139.58 1286.6 1139.42 1286.21 1139.22 1285.75 1138.98 1285.21L1134.99 1276.69C1134.65 1275.94 1134.35 1275.34 1134.08 1274.91 1133.81 1274.47 1133.54 1274.13 1133.25 1273.89 1132.96 1273.66 1132.63 1273.5 1132.27 1273.43 1131.9 1273.36 1131.44 1273.33 1130.88 1273.33L1129.24 1273.33C1129.08 1274.14 1128.89 1275.02 1128.68 1275.95 1128.46 1276.88 1128.24 1277.83 1128.02 1278.79 1127.8 1279.76 1127.59 1280.71 1127.4 1281.64 1127.2 1282.57 1127.02 1283.44 1126.86 1284.24 1126.7 1285.05 1126.57 1285.76 1126.47 1286.39 1126.37 1287.01 1126.32 1287.5 1126.32 1287.83 1126.32 1288.67 1126.57 1289.26 1127.05 1289.61 1127.54 1289.95 1128.37 1290.17 1129.54 1290.25L1129.06 1292.06 1116.52 1292.06 1116.85 1290.25C1117.47 1290.15 1117.97 1290.03 1118.36 1289.9 1118.74 1289.77 1119.09 1289.5 1119.4 1289.07 1119.71 1288.64 1119.99 1288 1120.25 1287.15 1120.51 1286.29 1120.8 1285.08 1121.14 1283.51L1126.03 1261.8C1126.22 1260.93 1126.37 1260.15 1126.47 1259.48 1126.57 1258.8 1126.62 1258.23 1126.62 1257.75 1126.62 1256.88 1126.39 1256.26 1125.94 1255.89 1125.48 1255.52 1124.65 1255.33 1123.43 1255.31Z" fill-rule="evenodd"/><text fill="#000000" fill-opacity="0" font-family="Arial,Arial_MSFontService,sans-serif" font-size="38.6313" x="1116.52" y="1287.23">πΎ</text><path d="M1182.25 1276.32 1173.29 1290.58 1183.37 1290.58 1182.93 1284.77C1182.88 1283.95 1182.82 1282.75 1182.76 1281.14 1182.69 1279.54 1182.66 1277.93 1182.66 1276.32ZM1181.9 1270.44 1186.62 1270.44 1189.35 1297.63C1189.51 1299.21 1189.85 1300.38 1190.36 1301.14 1190.88 1301.89 1191.75 1302.35 1192.99 1302.52L1192.6 1304.32 1180.66 1304.32 1181.05 1302.52C1181.75 1302.47 1182.31 1302.32 1182.73 1302.08 1183.16 1301.83 1183.47 1301.49 1183.69 1301.05 1183.9 1300.61 1184 1299.82 1184 1298.68 1184 1298.18 1183.97 1297.44 1183.91 1296.46L1183.61 1293.56 1171.6 1293.56 1170.04 1296.02C1169.7 1296.59 1169.32 1297.3 1168.92 1298.13 1168.51 1298.97 1168.3 1299.76 1168.3 1300.49 1168.3 1301.76 1169.31 1302.44 1171.31 1302.52L1170.92 1304.32 1158.73 1304.32 1159.15 1302.52C1159.82 1302.44 1160.44 1302.2 1161.01 1301.8 1161.57 1301.4 1162.13 1300.86 1162.68 1300.2 1163.22 1299.53 1163.93 1298.53 1164.79 1297.19Z" fill-rule="evenodd"/><text fill="#000000" fill-opacity="0" font-family="Arial,Arial_MSFontService,sans-serif" font-size="33.8867" x="1158.73" y="1300.09">π΄</text><path d="M2571.18 1201.4 2589.66 1201.4 2589.66 1301.67 2571.18 1301.67 2571.18 1298.34 2582.12 1298.34 2582.12 1204.72 2571.18 1204.72ZM1209.92 1201.4 1228.4 1201.4 1228.4 1204.72 1217.46 1204.72 1217.46 1298.34 1228.4 1298.34 1228.4 1301.67 1209.92 1301.67Z" fill-rule="evenodd"/><path d="M1242.96 1219.9 1259.17 1219.9 1258.73 1221.89C1257.7 1222.1 1256.97 1222.34 1256.52 1222.61 1256.07 1222.89 1255.68 1223.29 1255.32 1223.83 1254.97 1224.37 1254.61 1225.22 1254.23 1226.36 1253.85 1227.51 1253.38 1229.38 1252.81 1231.98L1249.93 1244.9 1251.27 1244.9C1252.41 1244.9 1253.44 1244.72 1254.37 1244.34 1255.3 1243.96 1256.39 1243.27 1257.63 1242.27 1258.88 1241.27 1260.86 1239.43 1263.57 1236.76 1266.29 1234.08 1268.22 1232.05 1269.37 1230.66 1270.52 1229.27 1271.35 1228.07 1271.88 1227.05 1272.41 1226.04 1272.67 1225.11 1272.67 1224.28 1272.67 1223.6 1272.4 1223.05 1271.86 1222.64 1271.32 1222.22 1270.55 1221.97 1269.55 1221.89L1270 1219.9 1287.38 1219.9 1286.94 1221.89C1285.85 1222.05 1284.63 1222.61 1283.27 1223.57 1281.9 1224.53 1279.82 1226.4 1277.01 1229.18L1261.28 1244.5 1269.91 1265.25C1270.81 1267.38 1271.54 1268.92 1272.12 1269.87 1272.7 1270.82 1273.4 1271.57 1274.21 1272.12 1275.02 1272.67 1276.02 1273.04 1277.21 1273.23L1276.76 1275.22 1261.12 1275.22 1261.57 1273.23C1263.02 1273.1 1263.75 1272.45 1263.75 1271.29 1263.75 1270.56 1263.61 1269.73 1263.31 1268.8 1263.01 1267.86 1262.66 1266.9 1262.25 1265.9L1256.99 1253.01C1256.36 1251.47 1255.82 1250.39 1255.36 1249.77 1254.91 1249.15 1254.42 1248.71 1253.91 1248.47 1253.39 1248.23 1252.6 1248.11 1251.51 1248.11L1249.25 1248.11 1245.88 1263.43C1245.53 1265.05 1245.3 1266.32 1245.19 1267.26 1245.08 1268.19 1245.03 1269.02 1245.03 1269.75 1245.03 1270.96 1245.33 1271.82 1245.94 1272.32 1246.55 1272.82 1247.57 1273.13 1249 1273.23L1248.56 1275.22 1232.35 1275.22 1232.79 1273.23C1233.82 1273.07 1234.59 1272.81 1235.1 1272.44 1235.61 1272.08 1236.05 1271.57 1236.4 1270.92 1236.75 1270.28 1237.07 1269.48 1237.37 1268.55 1237.67 1267.62 1238.11 1265.82 1238.71 1263.14L1245.6 1231.94C1246.19 1229.23 1246.49 1227.06 1246.49 1225.41 1246.49 1224.14 1246.17 1223.26 1245.54 1222.76 1244.9 1222.26 1243.9 1221.97 1242.52 1221.89Z" fill-rule="evenodd"/><text fill="#000000" fill-opacity="0" font-family="Arial,Arial_MSFontService,sans-serif" font-size="55.3198" x="1232.35" y="1268.3">πΎ</text><path d="M1301.03 1252.87C1302.92 1252.87 1304.73 1253.01 1306.47 1253.3 1308.21 1253.59 1310.03 1254.05 1311.93 1254.68L1310.24 1262.25 1306.99 1262.25C1306.93 1261.14 1306.76 1260.18 1306.47 1259.37 1306.18 1258.57 1305.78 1257.91 1305.26 1257.41 1304.75 1256.9 1304.09 1256.52 1303.3 1256.28 1302.5 1256.03 1301.56 1255.9 1300.47 1255.9 1299.3 1255.9 1298.23 1256.06 1297.28 1256.38 1296.33 1256.7 1295.51 1257.15 1294.84 1257.74 1294.16 1258.32 1293.64 1259.03 1293.27 1259.85 1292.91 1260.67 1292.72 1261.57 1292.72 1262.55 1292.72 1263.28 1292.81 1263.96 1292.99 1264.57 1293.17 1265.19 1293.48 1265.78 1293.91 1266.36 1294.35 1266.93 1294.95 1267.52 1295.72 1268.12 1296.48 1268.71 1297.45 1269.37 1298.62 1270.08 1300.05 1270.98 1301.28 1271.82 1302.3 1272.61 1303.32 1273.41 1304.16 1274.23 1304.8 1275.09 1305.45 1275.94 1305.92 1276.85 1306.22 1277.81 1306.51 1278.77 1306.66 1279.85 1306.66 1281.04 1306.66 1282.77 1306.32 1284.35 1305.63 1285.78 1304.95 1287.21 1303.98 1288.44 1302.72 1289.47 1301.46 1290.5 1299.95 1291.3 1298.19 1291.87 1296.43 1292.44 1294.47 1292.72 1292.31 1292.72 1290.48 1292.72 1288.51 1292.56 1286.41 1292.26 1284.3 1291.95 1282.23 1291.5 1280.18 1290.9L1281.94 1282.86 1285.1 1282.86C1285.16 1285.24 1285.79 1286.97 1287 1288.04 1288.22 1289.11 1290.08 1289.65 1292.6 1289.65 1293.89 1289.65 1295.06 1289.48 1296.09 1289.14 1297.12 1288.81 1297.99 1288.32 1298.71 1287.68 1299.42 1287.05 1299.97 1286.27 1300.35 1285.36 1300.73 1284.45 1300.91 1283.43 1300.91 1282.29 1300.91 1281.5 1300.81 1280.78 1300.62 1280.13 1300.42 1279.49 1300.07 1278.85 1299.57 1278.21 1299.08 1277.58 1298.41 1276.93 1297.56 1276.28 1296.72 1275.62 1295.67 1274.91 1294.42 1274.13 1293.17 1273.36 1292.08 1272.59 1291.16 1271.82 1290.24 1271.06 1289.47 1270.27 1288.85 1269.44 1288.24 1268.62 1287.77 1267.76 1287.47 1266.86 1287.16 1265.97 1287 1265.02 1287 1264.01 1287 1262.34 1287.33 1260.82 1287.99 1259.46 1288.64 1258.1 1289.58 1256.93 1290.8 1255.95 1292.02 1254.97 1293.5 1254.21 1295.24 1253.67 1296.98 1253.13 1298.91 1252.87 1301.03 1252.87Z" fill-rule="evenodd"/><text fill="#000000" fill-opacity="0" font-family="Arial,Arial_MSFontService,sans-serif" font-size="39.8525" x="1280.18" y="1287.74">π‘†</text><path d="M1381.21 1219.9 1387.53 1219.9 1387.53 1283.32 1381.21 1283.32ZM1367.02 1219.9 1373.34 1219.9 1373.34 1283.32 1367.02 1283.32Z" fill-rule="evenodd"/><text fill="#000000" fill-opacity="0" font-family="Arial,Arial_MSFontService,sans-serif" font-size="63.4253" x="1367.02" y="1275.4">β¥</text><path d="M1498.07 1223.43C1496.88 1223.43 1495.6 1223.47 1494.22 1223.55L1483.72 1271.49C1484.51 1271.57 1486.01 1271.61 1488.22 1271.61 1492.6 1271.61 1496.31 1270.85 1499.37 1269.32 1502.42 1267.8 1505.05 1265.41 1507.27 1262.15 1509.49 1258.89 1511.12 1255.46 1512.17 1251.86 1513.23 1248.25 1513.75 1244.45 1513.75 1240.45 1513.75 1234.8 1512.44 1230.55 1509.8 1227.7 1507.17 1224.85 1503.26 1223.43 1498.07 1223.43ZM1482.59 1219.9 1497.95 1219.9C1502.03 1219.9 1505.34 1220.21 1507.88 1220.83 1510.42 1221.45 1512.79 1222.57 1514.99 1224.2 1517.19 1225.82 1518.85 1227.97 1519.95 1230.66 1521.06 1233.35 1521.62 1236.53 1521.62 1240.2 1521.62 1243.85 1521.2 1247.34 1520.36 1250.66 1519.52 1253.98 1518.32 1257.04 1516.75 1259.84 1515.19 1262.64 1513.31 1265.07 1511.12 1267.13 1508.93 1269.2 1506.81 1270.79 1504.76 1271.9 1502.7 1273 1500.41 1273.83 1497.87 1274.39 1495.33 1274.94 1492.37 1275.22 1488.99 1275.22L1471.97 1275.22 1472.42 1273.23C1473.44 1273.07 1474.21 1272.81 1474.73 1272.44 1475.24 1272.08 1475.67 1271.57 1476.02 1270.92 1476.37 1270.28 1476.7 1269.48 1477 1268.55 1477.29 1267.62 1477.74 1265.82 1478.33 1263.14L1485.22 1231.94C1485.82 1229.23 1486.11 1227.06 1486.11 1225.41 1486.11 1224.14 1485.8 1223.26 1485.16 1222.76 1484.53 1222.26 1483.52 1221.97 1482.14 1221.89ZM1450.59 1219.9 1466.8 1219.9 1466.35 1221.89C1465.33 1222.1 1464.59 1222.34 1464.14 1222.61 1463.7 1222.89 1463.3 1223.29 1462.95 1223.83 1462.6 1224.37 1462.23 1225.22 1461.86 1226.36 1461.48 1227.51 1461 1229.38 1460.44 1231.98L1453.51 1263.43C1453.16 1265.02 1452.93 1266.28 1452.82 1267.22 1452.71 1268.15 1452.66 1268.99 1452.66 1269.75 1452.66 1270.96 1452.96 1271.82 1453.57 1272.32 1454.18 1272.82 1455.2 1273.13 1456.63 1273.23L1456.18 1275.22 1439.97 1275.22 1440.42 1273.23C1441.44 1273.07 1442.21 1272.81 1442.73 1272.44 1443.24 1272.08 1443.67 1271.57 1444.02 1270.92 1444.37 1270.28 1444.7 1269.48 1445 1268.55 1445.29 1267.62 1445.74 1265.82 1446.33 1263.14L1453.22 1231.94C1453.82 1229.23 1454.11 1227.06 1454.11 1225.41 1454.11 1224.14 1453.8 1223.26 1453.16 1222.76 1452.53 1222.26 1451.52 1221.97 1450.14 1221.89Z" fill="#D74514" fill-rule="evenodd"/><text fill="#000000" fill-opacity="0" font-family="Arial,Arial_MSFontService,sans-serif" font-size="55.3198" x="1439.97" y="1268.3">πΌπ·</text><path d="M1543.68 1259.45C1541.95 1262.27 1540.24 1265.09 1538.54 1267.92 1536.84 1270.75 1535.13 1273.59 1533.4 1276.43L1544.87 1276.43C1544.77 1275.16 1544.67 1273.91 1544.57 1272.69 1544.47 1271.47 1544.39 1270.18 1544.33 1268.83 1544.27 1267.48 1544.22 1266.04 1544.17 1264.51 1544.12 1262.98 1544.09 1261.3 1544.09 1259.45ZM1543.56 1252.93 1548.47 1252.93 1551.18 1284.41C1551.26 1285.42 1551.39 1286.27 1551.55 1286.97 1551.72 1287.66 1551.96 1288.24 1552.25 1288.7 1552.55 1289.15 1552.92 1289.5 1553.37 1289.74 1553.82 1289.98 1554.38 1290.15 1555.05 1290.25L1554.61 1292.06 1541.62 1292.06 1542.07 1290.25C1542.62 1290.15 1543.12 1290.02 1543.54 1289.87 1543.97 1289.72 1544.32 1289.48 1544.6 1289.13 1544.88 1288.78 1545.09 1288.31 1545.24 1287.71 1545.39 1287.12 1545.46 1286.34 1545.46 1285.39 1545.46 1285.03 1545.45 1284.62 1545.43 1284.16 1545.41 1283.69 1545.39 1283.2 1545.36 1282.68 1545.33 1282.16 1545.29 1281.63 1545.24 1281.09 1545.19 1280.54 1545.15 1280.01 1545.11 1279.49L1531.76 1279.49C1531.31 1280.17 1530.85 1280.86 1530.41 1281.58 1529.96 1282.29 1529.55 1282.99 1529.19 1283.68 1528.82 1284.36 1528.53 1285.04 1528.31 1285.72 1528.09 1286.39 1527.98 1287.06 1527.98 1287.71 1527.98 1289.16 1529.04 1290.01 1531.17 1290.25L1530.78 1292.06 1517.76 1292.06 1518.09 1290.25C1518.63 1290.15 1519.11 1289.99 1519.54 1289.78 1519.96 1289.58 1520.41 1289.25 1520.88 1288.8 1521.34 1288.35 1521.85 1287.75 1522.39 1286.98 1522.94 1286.22 1523.6 1285.21 1524.38 1283.96Z" fill="#D74514" fill-rule="evenodd"/><text fill="#000000" fill-opacity="0" font-family="Arial,Arial_MSFontService,sans-serif" font-size="39.1377" x="1517.76" y="1287.17">π΄</text><path d="M1607.74 1219.9 1614.06 1219.9 1614.06 1283.32 1607.74 1283.32ZM1593.55 1219.9 1599.88 1219.9 1599.88 1283.32 1593.55 1283.32Z" fill="#D74514" fill-rule="evenodd"/><text fill="#000000" fill-opacity="0" font-family="Arial,Arial_MSFontService,sans-serif" font-size="63.4253" x="1593.55" y="1275.4">β¥</text><path d="M1724.6 1223.43C1723.41 1223.43 1722.13 1223.47 1720.75 1223.55L1710.25 1271.49C1711.04 1271.57 1712.54 1271.61 1714.75 1271.61 1719.13 1271.61 1722.84 1270.85 1725.9 1269.32 1728.95 1267.8 1731.59 1265.41 1733.8 1262.15 1736.02 1258.89 1737.65 1255.46 1738.7 1251.86 1739.76 1248.25 1740.29 1244.45 1740.29 1240.45 1740.29 1234.8 1738.97 1230.55 1736.33 1227.7 1733.7 1224.85 1729.79 1223.43 1724.6 1223.43ZM1709.12 1219.9 1724.48 1219.9C1728.56 1219.9 1731.87 1220.21 1734.41 1220.83 1736.95 1221.45 1739.32 1222.57 1741.52 1224.2 1743.72 1225.82 1745.38 1227.97 1746.49 1230.66 1747.59 1233.35 1748.15 1236.53 1748.15 1240.2 1748.15 1243.85 1747.73 1247.34 1746.89 1250.66 1746.05 1253.98 1744.85 1257.04 1743.28 1259.84 1741.72 1262.64 1739.84 1265.07 1737.65 1267.13 1735.46 1269.2 1733.34 1270.79 1731.29 1271.9 1729.23 1273 1726.94 1273.83 1724.4 1274.39 1721.86 1274.94 1718.9 1275.22 1715.52 1275.22L1698.5 1275.22 1698.95 1273.23C1699.97 1273.07 1700.74 1272.81 1701.26 1272.44 1701.77 1272.08 1702.2 1271.57 1702.55 1270.92 1702.91 1270.28 1703.23 1269.48 1703.53 1268.55 1703.82 1267.62 1704.27 1265.82 1704.86 1263.14L1711.75 1231.94C1712.35 1229.23 1712.65 1227.06 1712.65 1225.41 1712.65 1224.14 1712.33 1223.26 1711.69 1222.76 1711.06 1222.26 1710.05 1221.97 1708.67 1221.89ZM1677.12 1219.9 1693.33 1219.9 1692.88 1221.89C1691.86 1222.1 1691.12 1222.34 1690.68 1222.61 1690.23 1222.89 1689.83 1223.29 1689.48 1223.83 1689.13 1224.37 1688.76 1225.22 1688.39 1226.36 1688.01 1227.51 1687.54 1229.38 1686.97 1231.98L1680.04 1263.43C1679.69 1265.02 1679.46 1266.28 1679.35 1267.22 1679.24 1268.15 1679.19 1268.99 1679.19 1269.75 1679.19 1270.96 1679.49 1271.82 1680.1 1272.32 1680.71 1272.82 1681.73 1273.13 1683.16 1273.23L1682.71 1275.22 1666.5 1275.22 1666.95 1273.23C1667.97 1273.07 1668.74 1272.81 1669.26 1272.44 1669.77 1272.08 1670.2 1271.57 1670.55 1270.92 1670.91 1270.28 1671.23 1269.48 1671.53 1268.55 1671.82 1267.62 1672.27 1265.82 1672.86 1263.14L1679.75 1231.94C1680.35 1229.23 1680.65 1227.06 1680.65 1225.41 1680.65 1224.14 1680.33 1223.26 1679.69 1222.76 1679.06 1222.26 1678.05 1221.97 1676.67 1221.89Z" fill="#D74514" fill-rule="evenodd"/><text fill="#000000" fill-opacity="0" font-family="Arial,Arial_MSFontService,sans-serif" font-size="55.3198" x="1666.5" y="1268.3">πΌπ·</text><path d="M1762.78 1273.63 1759.39 1288.91C1759.86 1288.93 1760.46 1288.95 1761.19 1288.97 1761.91 1288.99 1762.77 1289 1763.77 1289 1765.91 1289 1767.76 1288.81 1769.32 1288.44 1770.88 1288.08 1772.17 1287.5 1773.19 1286.72 1774.22 1285.93 1774.97 1284.91 1775.46 1283.66 1775.94 1282.41 1776.19 1280.91 1776.19 1279.17 1776.19 1278.25 1776.05 1277.45 1775.77 1276.75 1775.49 1276.06 1775.03 1275.48 1774.38 1275.01 1773.74 1274.54 1772.91 1274.2 1771.91 1273.97 1770.91 1273.74 1769.68 1273.63 1768.23 1273.63ZM1771.78 1256.53C1770.82 1256.53 1769.92 1256.54 1769.05 1256.57 1768.19 1256.6 1767.36 1256.66 1766.57 1256.74L1763.5 1270.53 1768.11 1270.53C1770.28 1270.53 1772.11 1270.32 1773.61 1269.92 1775.11 1269.51 1776.32 1268.93 1777.26 1268.18 1778.19 1267.42 1778.87 1266.51 1779.3 1265.45 1779.73 1264.39 1779.94 1263.19 1779.94 1261.86 1779.9 1261.01 1779.73 1260.24 1779.43 1259.57 1779.13 1258.89 1778.66 1258.33 1778.02 1257.88 1777.37 1257.44 1776.54 1257.1 1775.52 1256.87 1774.49 1256.64 1773.25 1256.53 1771.78 1256.53ZM1757.48 1253.43 1773.09 1253.43C1775.41 1253.43 1777.38 1253.62 1779 1254 1780.62 1254.38 1781.95 1254.92 1782.99 1255.64 1784.03 1256.35 1784.79 1257.21 1785.26 1258.21 1785.72 1259.22 1785.96 1260.36 1785.96 1261.65 1785.96 1266.54 1782.89 1269.98 1776.75 1271.99 1776.75 1272.09 1776.75 1272.17 1776.74 1272.23 1776.73 1272.29 1776.72 1272.34 1776.72 1272.38 1778.57 1273.11 1779.97 1274.12 1780.92 1275.41 1781.87 1276.7 1782.35 1278.19 1782.35 1279.88 1782.35 1281.79 1782 1283.49 1781.29 1284.99 1780.59 1286.49 1779.5 1287.76 1778.03 1288.8 1776.56 1289.84 1774.68 1290.65 1772.37 1291.21 1770.07 1291.78 1767.31 1292.06 1764.09 1292.06L1750.12 1292.06 1750.45 1290.25C1751.07 1290.15 1751.57 1290.03 1751.96 1289.9 1752.34 1289.77 1752.69 1289.5 1753 1289.07 1753.31 1288.64 1753.59 1288 1753.85 1287.15 1754.11 1286.29 1754.4 1285.08 1754.74 1283.51L1759.63 1261.8C1759.82 1260.93 1759.97 1260.15 1760.07 1259.48 1760.17 1258.8 1760.22 1258.25 1760.22 1257.81 1760.22 1256.92 1760 1256.28 1759.55 1255.9 1759.1 1255.53 1758.27 1255.33 1757.03 1255.31Z" fill="#D74514" fill-rule="evenodd"/><text fill="#000000" fill-opacity="0" font-family="Arial,Arial_MSFontService,sans-serif" font-size="38.6313" x="1750.12" y="1287.23">πµ</text><path d="M1858.29 1219.9 1864.61 1219.9 1864.61 1283.32 1858.29 1283.32ZM1844.1 1219.9 1850.42 1219.9 1850.42 1283.32 1844.1 1283.32Z" fill="#D74514" fill-rule="evenodd"/><text fill="#000000" fill-opacity="0" font-family="Arial,Arial_MSFontService,sans-serif" font-size="63.4253" x="1844.1" y="1275.4">β¥</text><path d="M1927.59 1219.9 1940.51 1219.9 1951.21 1251.47C1952.75 1256.01 1953.94 1259.85 1954.78 1262.98L1955.23 1262.98C1955.44 1261.33 1955.94 1258.59 1956.71 1254.75 1957.48 1250.92 1958.18 1247.57 1958.83 1244.7L1961.67 1231.94C1962.26 1229.26 1962.56 1227.09 1962.56 1225.41 1962.56 1224.14 1962.24 1223.26 1961.61 1222.76 1960.97 1222.26 1959.97 1221.97 1958.59 1221.89L1959.04 1219.9 1973.22 1219.9 1972.77 1221.89C1971.75 1222.1 1971.01 1222.34 1970.57 1222.61 1970.12 1222.89 1969.72 1223.29 1969.37 1223.83 1969.02 1224.37 1968.65 1225.22 1968.28 1226.36 1967.9 1227.51 1967.42 1229.38 1966.86 1231.98L1957.33 1275.22 1951.82 1275.22 1939.99 1240.45C1938.56 1236.29 1937.3 1232.14 1936.22 1228.01L1935.69 1228.01C1935.53 1229.38 1935.08 1232.01 1934.35 1235.89 1933.63 1239.76 1932.86 1243.55 1932.04 1247.26L1928.48 1263.43C1927.91 1265.99 1927.63 1268.1 1927.63 1269.75 1927.63 1270.96 1927.93 1271.82 1928.54 1272.32 1929.15 1272.82 1930.17 1273.13 1931.6 1273.23L1931.15 1275.22 1916.97 1275.22 1917.41 1273.23C1918.44 1273.07 1919.21 1272.81 1919.72 1272.44 1920.24 1272.08 1920.67 1271.57 1921.02 1270.92 1921.37 1270.28 1921.7 1269.48 1921.99 1268.55 1922.29 1267.62 1922.74 1265.82 1923.33 1263.14L1930.22 1231.94C1930.49 1230.77 1930.71 1229.67 1930.87 1228.61 1931.03 1227.56 1931.11 1226.49 1931.11 1225.41 1931.11 1224.14 1930.79 1223.26 1930.16 1222.76 1929.53 1222.26 1928.52 1221.97 1927.14 1221.89Z" fill="#D74514" fill-rule="evenodd"/><text fill="#000000" fill-opacity="0" font-family="Arial,Arial_MSFontService,sans-serif" font-size="55.3198" x="1916.97" y="1268.3">π‘</text><path d="M1986.25 1253.7 1988.06 1253.7C1988.02 1254.79 1987.99 1255.77 1987.97 1256.63 1987.95 1257.5 1987.94 1258.34 1987.93 1259.15 1987.92 1259.96 1987.91 1260.77 1987.91 1261.56L1987.91 1284.2C1987.91 1284.82 1987.93 1285.35 1987.97 1285.79 1988.01 1286.24 1988.08 1286.62 1988.17 1286.93 1988.26 1287.23 1988.38 1287.5 1988.53 1287.71 1988.67 1287.93 1988.85 1288.12 1989.05 1288.28 1989.28 1288.52 1989.6 1288.7 1990 1288.83 1990.4 1288.96 1990.9 1289.07 1991.52 1289.16 1992.13 1289.25 1992.87 1289.32 1993.74 1289.37 1994.6 1289.42 1995.64 1289.45 1996.85 1289.47L1996.85 1292.06 1973.23 1292.06 1973.23 1289.47C1974.4 1289.43 1975.39 1289.39 1976.21 1289.34 1977.02 1289.29 1977.72 1289.22 1978.29 1289.13 1978.87 1289.04 1979.33 1288.94 1979.68 1288.83 1980.03 1288.72 1980.33 1288.59 1980.59 1288.43 1980.87 1288.25 1981.1 1288.06 1981.3 1287.85 1981.5 1287.64 1981.66 1287.38 1981.78 1287.06 1981.9 1286.74 1981.99 1286.35 1982.06 1285.9 1982.13 1285.44 1982.17 1284.88 1982.17 1284.2L1982.17 1262.84C1982.17 1262.07 1982.02 1261.52 1981.72 1261.21 1981.42 1260.89 1980.99 1260.73 1980.44 1260.73 1979.82 1260.73 1978.91 1261.05 1977.7 1261.68 1976.49 1262.32 1974.92 1263.26 1972.99 1264.51 1972.73 1264.06 1972.5 1263.6 1972.28 1263.14 1972.06 1262.69 1971.83 1262.22 1971.59 1261.74 1974.05 1260.39 1976.49 1259.05 1978.9 1257.71 1981.32 1256.37 1983.76 1255.03 1986.25 1253.7Z" fill="#D74514" fill-rule="evenodd"/><text fill="#000000" fill-opacity="0" font-family="Arial,Arial_MSFontService,sans-serif" font-size="38.3633" x="1971.59" y="1287.27">1</text><path d="M2068.94 1219.9 2075.26 1219.9 2075.26 1283.32 2068.94 1283.32ZM2054.75 1219.9 2061.07 1219.9 2061.07 1283.32 2054.75 1283.32Z" fill-rule="evenodd"/><text fill="#000000" fill-opacity="0" font-family="Arial,Arial_MSFontService,sans-serif" font-size="63.4253" x="2054.75" y="1275.4">β¥</text><path d="M2138.32 1219.9 2175.6 1219.9 2172.81 1232.34 2168.92 1232.34C2168.81 1229.99 2168.6 1228.22 2168.31 1227.03 2168.01 1225.84 2167.65 1225.03 2167.23 1224.58 2166.82 1224.13 2166.32 1223.84 2165.73 1223.69 2165.15 1223.54 2164.32 1223.47 2163.24 1223.47L2150.03 1223.47 2145.41 1244.7 2153.15 1244.7C2155.07 1244.7 2156.53 1244.25 2157.55 1243.34 2158.56 1242.44 2159.58 1240.95 2160.61 1238.87L2164.3 1238.87 2160.65 1254.43 2157.2 1254.43C2157.2 1252.27 2157.07 1250.8 2156.8 1250.03 2156.53 1249.26 2156.13 1248.78 2155.6 1248.57 2155.08 1248.37 2154.12 1248.27 2152.75 1248.27L2144.64 1248.27 2139.45 1271.65 2151.45 1271.65C2153.04 1271.65 2154.31 1271.49 2155.24 1271.17 2156.17 1270.84 2157.05 1270.32 2157.87 1269.59 2158.7 1268.86 2159.52 1267.84 2160.34 1266.53 2161.17 1265.22 2162.15 1263.44 2163.28 1261.2L2167.21 1261.2 2163.65 1275.22 2127.7 1275.22 2128.15 1273.23C2129.17 1273.07 2129.94 1272.81 2130.46 1272.44 2130.97 1272.08 2131.4 1271.57 2131.75 1270.92 2132.1 1270.28 2132.43 1269.48 2132.72 1268.55 2133.02 1267.62 2133.47 1265.82 2134.06 1263.14L2140.95 1231.94C2141.55 1229.23 2141.84 1227.06 2141.84 1225.41 2141.84 1224.14 2141.53 1223.26 2140.89 1222.76 2140.26 1222.26 2139.25 1221.97 2137.87 1221.89Z" fill-rule="evenodd"/><text fill="#000000" fill-opacity="0" font-family="Arial,Arial_MSFontService,sans-serif" font-size="55.3198" x="2127.7" y="1268.3">πΈ</text><path d="M2181.85 1253.43 2194.42 1253.43 2194.09 1255.22C2193.64 1255.34 2193.25 1255.44 2192.93 1255.52 2192.61 1255.6 2192.33 1255.72 2192.08 1255.87 2191.83 1256.03 2191.62 1256.25 2191.44 1256.51 2191.26 1256.78 2191.09 1257.15 2190.92 1257.62 2190.75 1258.08 2190.57 1258.67 2190.39 1259.37 2190.2 1260.08 2189.98 1260.95 2189.74 1261.98L2187.81 1270.74 2188.64 1270.74C2189.1 1270.74 2189.52 1270.71 2189.89 1270.65 2190.27 1270.59 2190.64 1270.48 2191.01 1270.33 2191.38 1270.19 2191.76 1269.98 2192.14 1269.72 2192.53 1269.47 2192.97 1269.14 2193.47 1268.74 2195.53 1267.13 2197.26 1265.69 2198.65 1264.42 2200.04 1263.15 2201.17 1262.03 2202.03 1261.06 2202.9 1260.08 2203.51 1259.25 2203.88 1258.57 2204.25 1257.88 2204.43 1257.31 2204.43 1256.86 2204.43 1256.38 2204.24 1256.01 2203.86 1255.74 2203.49 1255.47 2202.87 1255.33 2202.02 1255.31L2202.34 1253.43 2215.9 1253.43 2215.48 1255.31C2215.02 1255.35 2214.59 1255.44 2214.18 1255.58 2213.78 1255.72 2213.3 1255.97 2212.77 1256.34 2212.23 1256.7 2211.59 1257.21 2210.85 1257.85 2210.1 1258.5 2209.16 1259.34 2208.03 1260.37L2196.42 1270.86 2203.15 1284.86C2203.66 1285.95 2204.11 1286.81 2204.49 1287.45 2204.87 1288.08 2205.25 1288.59 2205.65 1288.97 2206.05 1289.34 2206.5 1289.62 2207.01 1289.78 2207.51 1289.95 2208.14 1290.11 2208.9 1290.25L2208.42 1292.06 2196.15 1292.06 2196.57 1290.25C2197.12 1290.21 2197.54 1290.08 2197.82 1289.87 2198.09 1289.67 2198.23 1289.4 2198.23 1289.08 2198.21 1288.87 2198.18 1288.64 2198.14 1288.4 2198.1 1288.16 2198.04 1287.9 2197.94 1287.61 2197.84 1287.32 2197.71 1286.98 2197.55 1286.6 2197.39 1286.21 2197.19 1285.75 2196.95 1285.21L2192.96 1276.69C2192.62 1275.94 2192.32 1275.34 2192.05 1274.91 2191.79 1274.47 2191.51 1274.13 2191.22 1273.89 2190.93 1273.66 2190.6 1273.5 2190.24 1273.43 2189.87 1273.36 2189.41 1273.33 2188.85 1273.33L2187.21 1273.33C2187.05 1274.14 2186.87 1275.02 2186.65 1275.95 2186.43 1276.88 2186.21 1277.83 2185.99 1278.79 2185.77 1279.76 2185.56 1280.71 2185.37 1281.64 2185.17 1282.57 2184.99 1283.44 2184.83 1284.24 2184.67 1285.05 2184.54 1285.76 2184.44 1286.39 2184.34 1287.01 2184.29 1287.5 2184.29 1287.83 2184.29 1288.67 2184.54 1289.26 2185.02 1289.61 2185.51 1289.95 2186.34 1290.17 2187.51 1290.25L2187.03 1292.06 2174.49 1292.06 2174.82 1290.25C2175.44 1290.15 2175.94 1290.03 2176.33 1289.9 2176.71 1289.77 2177.06 1289.5 2177.37 1289.07 2177.68 1288.64 2177.96 1288 2178.22 1287.15 2178.48 1286.29 2178.77 1285.08 2179.11 1283.51L2184 1261.8C2184.19 1260.93 2184.34 1260.15 2184.44 1259.48 2184.54 1258.8 2184.59 1258.23 2184.59 1257.75 2184.59 1256.88 2184.36 1256.26 2183.91 1255.89 2183.45 1255.52 2182.62 1255.33 2181.41 1255.31Z" fill-rule="evenodd"/><text fill="#000000" fill-opacity="0" font-family="Arial,Arial_MSFontService,sans-serif" font-size="38.6313" x="2174.49" y="1287.23">πΎ</text><path d="M2229.45 1288.55 2226.69 1301.2C2227.29 1301.28 2228.57 1301.32 2230.52 1301.32 2232.9 1301.32 2234.71 1301.16 2235.97 1300.84 2237.22 1300.53 2238.27 1300.03 2239.12 1299.37 2239.96 1298.7 2240.59 1297.89 2240.99 1296.94 2241.38 1295.99 2241.58 1294.8 2241.58 1293.39 2241.58 1292.3 2241.34 1291.4 2240.86 1290.69 2240.38 1289.98 2239.66 1289.45 2238.7 1289.09 2237.74 1288.73 2236.33 1288.55 2234.45 1288.55ZM2237.58 1273.95C2235.79 1273.95 2234.17 1274.03 2232.72 1274.17L2230.13 1285.55 2234.58 1285.55C2237.38 1285.55 2239.43 1285.26 2240.74 1284.68 2242.05 1284.1 2243.05 1283.29 2243.73 1282.23 2244.42 1281.17 2244.76 1279.93 2244.76 1278.52 2244.76 1277.46 2244.5 1276.6 2243.98 1275.93 2243.46 1275.26 2242.7 1274.77 2241.71 1274.44 2240.71 1274.12 2239.34 1273.95 2237.58 1273.95ZM2224.13 1271 2238.7 1271C2240.82 1271 2242.62 1271.17 2244.11 1271.5 2245.6 1271.83 2246.8 1272.32 2247.72 1272.98 2248.64 1273.63 2249.32 1274.37 2249.75 1275.2 2250.18 1276.03 2250.4 1277.03 2250.4 1278.2 2250.4 1280.32 2249.75 1282.08 2248.47 1283.5 2247.18 1284.91 2245.2 1286.08 2242.54 1286.99L2242.54 1287.38C2245.77 1288.67 2247.39 1290.86 2247.39 1293.95 2247.39 1297.32 2246.01 1299.89 2243.23 1301.66 2240.46 1303.44 2236.34 1304.32 2230.89 1304.32L2217.9 1304.32 2218.32 1302.52C2219.16 1302.39 2219.77 1302.18 2220.15 1301.88 2220.52 1301.59 2220.84 1301.11 2221.11 1300.45 2221.38 1299.79 2221.72 1298.59 2222.13 1296.83L2226.25 1278.18C2226.56 1276.73 2226.72 1275.65 2226.72 1274.93 2226.72 1274.42 2226.64 1274.03 2226.48 1273.74 2226.33 1273.46 2226.03 1273.24 2225.59 1273.07 2225.15 1272.91 2224.53 1272.82 2223.71 1272.8Z" fill-rule="evenodd"/><text fill="#000000" fill-opacity="0" font-family="Arial,Arial_MSFontService,sans-serif" font-size="33.3252" x="2217.9" y="1300.16">πµ</text><path d="M2537.75 1213.11C2545.64 1215.19 2551.7 1219.68 2555.93 1226.58 2560.16 1233.48 2562.27 1241.81 2562.27 1251.57 2562.27 1261.35 2560.16 1269.67 2555.95 1276.55 2551.73 1283.43 2545.67 1287.91 2537.75 1289.99L2536.78 1286.86C2543.02 1284.78 2547.66 1280.68 2550.7 1274.54 2553.74 1268.41 2555.26 1260.62 2555.26 1251.16 2555.26 1242.03 2553.75 1234.44 2550.72 1228.4 2547.69 1222.37 2543.01 1218.31 2536.66 1216.23ZM2291.04 1213.11 2292.13 1216.23C2285.81 1218.31 2281.13 1222.37 2278.09 1228.4 2275.05 1234.44 2273.53 1242.03 2273.53 1251.16 2273.53 1260.62 2275.05 1268.41 2278.09 1274.54 2281.13 1280.68 2285.77 1284.78 2292.01 1286.86L2291.04 1289.99C2283.12 1287.91 2277.05 1283.43 2272.84 1276.55 2268.62 1269.67 2266.52 1261.35 2266.52 1251.57 2266.52 1241.81 2268.63 1233.48 2272.86 1226.58 2277.09 1219.68 2283.15 1215.19 2291.04 1213.11Z" fill-rule="evenodd"/><path d="M2306.39 1219.9 2322.6 1219.9 2322.15 1221.89C2321.13 1222.1 2320.39 1222.34 2319.94 1222.61 2319.5 1222.89 2319.1 1223.29 2318.75 1223.83 2318.4 1224.37 2318.03 1225.22 2317.66 1226.36 2317.28 1227.51 2316.8 1229.38 2316.24 1231.98L2313.36 1244.9 2314.7 1244.9C2315.83 1244.9 2316.86 1244.72 2317.8 1244.34 2318.73 1243.96 2319.82 1243.27 2321.06 1242.27 2322.3 1241.27 2324.28 1239.43 2327 1236.76 2329.71 1234.08 2331.64 1232.05 2332.79 1230.66 2333.94 1229.27 2334.78 1228.07 2335.3 1227.05 2335.83 1226.04 2336.09 1225.11 2336.09 1224.28 2336.09 1223.6 2335.82 1223.05 2335.28 1222.64 2334.74 1222.22 2333.97 1221.97 2332.97 1221.89L2333.42 1219.9 2350.81 1219.9 2350.36 1221.89C2349.28 1222.05 2348.06 1222.61 2346.69 1223.57 2345.33 1224.53 2343.24 1226.4 2340.43 1229.18L2324.71 1244.5 2333.34 1265.25C2334.23 1267.38 2334.97 1268.92 2335.55 1269.87 2336.13 1270.82 2336.82 1271.57 2337.64 1272.12 2338.45 1272.67 2339.45 1273.04 2340.63 1273.23L2340.19 1275.22 2324.54 1275.22 2324.99 1273.23C2326.45 1273.1 2327.18 1272.45 2327.18 1271.29 2327.18 1270.56 2327.03 1269.73 2326.73 1268.8 2326.44 1267.86 2326.08 1266.9 2325.68 1265.9L2320.41 1253.01C2319.79 1251.47 2319.25 1250.39 2318.79 1249.77 2318.33 1249.15 2317.84 1248.71 2317.33 1248.47 2316.82 1248.23 2316.02 1248.11 2314.94 1248.11L2312.67 1248.11 2309.31 1263.43C2308.96 1265.05 2308.73 1266.32 2308.62 1267.26 2308.51 1268.19 2308.46 1269.02 2308.46 1269.75 2308.46 1270.96 2308.76 1271.82 2309.37 1272.32 2309.98 1272.82 2311 1273.13 2312.43 1273.23L2311.98 1275.22 2295.77 1275.22 2296.22 1273.23C2297.24 1273.07 2298.01 1272.81 2298.53 1272.44 2299.04 1272.08 2299.47 1271.57 2299.82 1270.92 2300.17 1270.28 2300.5 1269.48 2300.8 1268.55 2301.09 1267.62 2301.54 1265.82 2302.13 1263.14L2309.02 1231.94C2309.62 1229.23 2309.91 1227.06 2309.91 1225.41 2309.91 1224.14 2309.6 1223.26 2308.96 1222.76 2308.33 1222.26 2307.32 1221.97 2305.94 1221.89Z" fill-rule="evenodd"/><text fill="#000000" fill-opacity="0" font-family="Arial,Arial_MSFontService,sans-serif" font-size="55.3198" x="2295.77" y="1268.3">πΎ</text><path d="M2364.46 1252.87C2366.34 1252.87 2368.16 1253.01 2369.89 1253.3 2371.63 1253.59 2373.45 1254.05 2375.36 1254.68L2373.66 1262.25 2370.42 1262.25C2370.36 1261.14 2370.18 1260.18 2369.89 1259.37 2369.61 1258.57 2369.2 1257.91 2368.69 1257.41 2368.17 1256.9 2367.52 1256.52 2366.72 1256.28 2365.93 1256.03 2364.98 1255.9 2363.89 1255.9 2362.72 1255.9 2361.66 1256.06 2360.71 1256.38 2359.75 1256.7 2358.94 1257.15 2358.26 1257.74 2357.59 1258.32 2357.07 1259.03 2356.7 1259.85 2356.33 1260.67 2356.15 1261.57 2356.15 1262.55 2356.15 1263.28 2356.24 1263.96 2356.42 1264.57 2356.59 1265.19 2356.9 1265.78 2357.34 1266.36 2357.78 1266.93 2358.38 1267.52 2359.14 1268.12 2359.91 1268.71 2360.87 1269.37 2362.05 1270.08 2363.48 1270.98 2364.7 1271.82 2365.72 1272.61 2366.75 1273.41 2367.58 1274.23 2368.23 1275.09 2368.87 1275.94 2369.34 1276.85 2369.64 1277.81 2369.94 1278.77 2370.09 1279.85 2370.09 1281.04 2370.09 1282.77 2369.74 1284.35 2369.06 1285.78 2368.37 1287.21 2367.4 1288.44 2366.14 1289.47 2364.88 1290.5 2363.37 1291.3 2361.61 1291.87 2359.86 1292.44 2357.9 1292.72 2355.73 1292.72 2353.9 1292.72 2351.94 1292.56 2349.83 1292.26 2347.73 1291.95 2345.65 1291.5 2343.61 1290.9L2345.37 1282.86 2348.52 1282.86C2348.58 1285.24 2349.22 1286.97 2350.43 1288.04 2351.64 1289.11 2353.51 1289.65 2356.03 1289.65 2357.32 1289.65 2358.48 1289.48 2359.51 1289.14 2360.55 1288.81 2361.42 1288.32 2362.13 1287.68 2362.85 1287.05 2363.4 1286.27 2363.77 1285.36 2364.15 1284.45 2364.34 1283.43 2364.34 1282.29 2364.34 1281.5 2364.24 1280.78 2364.04 1280.13 2363.84 1279.49 2363.49 1278.85 2363 1278.21 2362.5 1277.58 2361.83 1276.93 2360.99 1276.28 2360.14 1275.62 2359.1 1274.91 2357.85 1274.13 2356.59 1273.36 2355.51 1272.59 2354.58 1271.82 2353.66 1271.06 2352.89 1270.27 2352.28 1269.44 2351.66 1268.62 2351.2 1267.76 2350.89 1266.86 2350.58 1265.97 2350.43 1265.02 2350.43 1264.01 2350.43 1262.34 2350.76 1260.82 2351.41 1259.46 2352.07 1258.1 2353.01 1256.93 2354.23 1255.95 2355.45 1254.97 2356.93 1254.21 2358.66 1253.67 2360.4 1253.13 2362.33 1252.87 2364.46 1252.87Z" fill-rule="evenodd"/><text fill="#000000" fill-opacity="0" font-family="Arial,Arial_MSFontService,sans-serif" font-size="39.8525" x="2343.61" y="1287.74">π‘†</text><path d="M2385.63 1265.82 2392.72 1265.82C2393.1 1267.71 2393.29 1269.57 2393.29 1271.41 2393.29 1273.3 2392.97 1275.03 2392.32 1276.6 2391.67 1278.16 2390.64 1279.72 2389.22 1281.28 2387.8 1282.83 2385.85 1284.54 2383.36 1286.4L2381.17 1283.93C2382.55 1282.64 2383.55 1281.47 2384.17 1280.43 2384.79 1279.39 2385.24 1278.2 2385.51 1276.88 2385.78 1275.56 2385.91 1273.9 2385.91 1271.9 2385.91 1269.84 2385.82 1267.82 2385.63 1265.82Z" fill-rule="evenodd"/><text fill="#000000" fill-opacity="0" font-family="Arial,Arial_MSFontService,sans-serif" font-size="20.5879" x="2381.17" y="1283.83">,</text><path d="M2471.55 1223.43C2470.36 1223.43 2469.07 1223.47 2467.7 1223.55L2457.2 1271.49C2457.98 1271.57 2459.48 1271.61 2461.7 1271.61 2466.08 1271.61 2469.79 1270.85 2472.84 1269.32 2475.9 1267.8 2478.53 1265.41 2480.75 1262.15 2482.96 1258.89 2484.6 1255.46 2485.65 1251.86 2486.7 1248.25 2487.23 1244.45 2487.23 1240.45 2487.23 1234.8 2485.91 1230.55 2483.28 1227.7 2480.65 1224.85 2476.73 1223.43 2471.55 1223.43ZM2456.07 1219.9 2471.43 1219.9C2475.51 1219.9 2478.81 1220.21 2481.35 1220.83 2483.89 1221.45 2486.27 1222.57 2488.47 1224.2 2490.67 1225.82 2492.32 1227.97 2493.43 1230.66 2494.54 1233.35 2495.09 1236.53 2495.09 1240.2 2495.09 1243.85 2494.67 1247.34 2493.84 1250.66 2493 1253.98 2491.8 1257.04 2490.23 1259.84 2488.66 1262.64 2486.79 1265.07 2484.6 1267.13 2482.41 1269.2 2480.29 1270.79 2478.23 1271.9 2476.18 1273 2473.88 1273.83 2471.34 1274.39 2468.8 1274.94 2465.85 1275.22 2462.47 1275.22L2445.45 1275.22 2445.89 1273.23C2446.92 1273.07 2447.69 1272.81 2448.2 1272.44 2448.72 1272.08 2449.15 1271.57 2449.5 1270.92 2449.85 1270.28 2450.18 1269.48 2450.47 1268.55 2450.77 1267.62 2451.22 1265.82 2451.81 1263.14L2458.7 1231.94C2459.29 1229.23 2459.59 1227.06 2459.59 1225.41 2459.59 1224.14 2459.27 1223.26 2458.64 1222.76 2458 1222.26 2457 1221.97 2455.62 1221.89ZM2424.07 1219.9 2440.28 1219.9 2439.83 1221.89C2438.8 1222.1 2438.07 1222.34 2437.62 1222.61 2437.18 1222.89 2436.78 1223.29 2436.43 1223.83 2436.07 1224.37 2435.71 1225.22 2435.33 1226.36 2434.95 1227.51 2434.48 1229.38 2433.91 1231.98L2426.98 1263.43C2426.63 1265.02 2426.4 1266.28 2426.29 1267.22 2426.19 1268.15 2426.13 1268.99 2426.13 1269.75 2426.13 1270.96 2426.44 1271.82 2427.04 1272.32 2427.65 1272.82 2428.67 1273.13 2430.1 1273.23L2429.66 1275.22 2413.45 1275.22 2413.89 1273.23C2414.92 1273.07 2415.69 1272.81 2416.2 1272.44 2416.72 1272.08 2417.15 1271.57 2417.5 1270.92 2417.85 1270.28 2418.18 1269.48 2418.47 1268.55 2418.77 1267.62 2419.22 1265.82 2419.81 1263.14L2426.7 1231.94C2427.29 1229.23 2427.59 1227.06 2427.59 1225.41 2427.59 1224.14 2427.27 1223.26 2426.64 1222.76 2426 1222.26 2425 1221.97 2423.62 1221.89Z" fill-rule="evenodd"/><text fill="#000000" fill-opacity="0" font-family="Arial,Arial_MSFontService,sans-serif" font-size="55.3198" x="2413.45" y="1268.3">πΌπ·</text><path d="M2517.15 1259.45C2515.43 1262.27 2513.71 1265.09 2512.02 1267.92 2510.32 1270.75 2508.6 1273.59 2506.88 1276.43L2518.34 1276.43C2518.25 1275.16 2518.15 1273.91 2518.05 1272.69 2517.95 1271.47 2517.87 1270.18 2517.81 1268.83 2517.75 1267.48 2517.69 1266.04 2517.64 1264.51 2517.6 1262.98 2517.57 1261.3 2517.57 1259.45ZM2517.03 1252.93 2521.95 1252.93 2524.66 1284.41C2524.74 1285.42 2524.86 1286.27 2525.03 1286.97 2525.2 1287.66 2525.43 1288.24 2525.73 1288.7 2526.03 1289.15 2526.4 1289.5 2526.85 1289.74 2527.3 1289.98 2527.86 1290.15 2528.53 1290.25L2528.08 1292.06 2515.1 1292.06 2515.54 1290.25C2516.1 1290.15 2516.59 1290.02 2517.02 1289.87 2517.45 1289.72 2517.8 1289.48 2518.08 1289.13 2518.35 1288.78 2518.57 1288.31 2518.72 1287.71 2518.87 1287.12 2518.94 1286.34 2518.94 1285.39 2518.94 1285.03 2518.93 1284.62 2518.91 1284.16 2518.89 1283.69 2518.87 1283.2 2518.84 1282.68 2518.81 1282.16 2518.77 1281.63 2518.72 1281.09 2518.67 1280.54 2518.62 1280.01 2518.58 1279.49L2505.24 1279.49C2504.78 1280.17 2504.33 1280.86 2503.88 1281.58 2503.44 1282.29 2503.03 1282.99 2502.66 1283.68 2502.3 1284.36 2502 1285.04 2501.78 1285.72 2501.57 1286.39 2501.46 1287.06 2501.46 1287.71 2501.46 1289.16 2502.52 1290.01 2504.64 1290.25L2504.26 1292.06 2491.24 1292.06 2491.57 1290.25C2492.1 1290.15 2492.59 1289.99 2493.01 1289.78 2493.44 1289.58 2493.89 1289.25 2494.35 1288.8 2494.82 1288.35 2495.33 1287.75 2495.87 1286.98 2496.42 1286.22 2497.08 1285.21 2497.85 1283.96Z" fill-rule="evenodd"/><text fill="#000000" fill-opacity="0" font-family="Arial,Arial_MSFontService,sans-serif" font-size="39.1377" x="2491.24" y="1287.17">π΄</text><text font-family="Microsoft YaHei,Microsoft YaHei_MSFontService,sans-serif" font-weight="400" font-size="83" transform="matrix(1 0 0 1 1387.88 1735)">β‘Ά</text><path d="M1506.23 1679.69 1543.51 1679.69 1540.72 1692.13 1536.83 1692.13C1536.72 1689.78 1536.52 1688.01 1536.22 1686.82 1535.92 1685.63 1535.56 1684.81 1535.14 1684.37 1534.72 1683.92 1534.23 1683.63 1533.64 1683.48 1533.06 1683.33 1532.23 1683.25 1531.15 1683.25L1517.94 1683.25 1513.32 1704.49 1521.06 1704.49C1522.98 1704.49 1524.44 1704.04 1525.46 1703.13 1526.47 1702.23 1527.49 1700.73 1528.52 1698.65L1532.21 1698.65 1528.56 1714.22 1525.11 1714.22C1525.11 1712.06 1524.98 1710.59 1524.71 1709.82 1524.44 1709.05 1524.04 1708.56 1523.51 1708.36 1522.99 1708.16 1522.03 1708.06 1520.66 1708.06L1512.55 1708.06 1507.36 1731.44 1519.36 1731.44C1520.95 1731.44 1522.22 1731.28 1523.15 1730.95 1524.08 1730.63 1524.96 1730.1 1525.78 1729.37 1526.61 1728.64 1527.43 1727.62 1528.25 1726.31 1529.08 1725 1530.06 1723.23 1531.19 1720.98L1535.12 1720.98 1531.56 1735.01 1495.61 1735.01 1496.06 1733.02C1497.08 1732.86 1497.85 1732.6 1498.37 1732.23 1498.88 1731.87 1499.31 1731.36 1499.66 1730.71 1500.01 1730.06 1500.34 1729.27 1500.63 1728.34 1500.93 1727.41 1501.38 1725.6 1501.97 1722.93L1508.86 1691.72C1509.46 1689.02 1509.75 1686.85 1509.75 1685.2 1509.75 1683.93 1509.44 1683.04 1508.8 1682.54 1508.17 1682.04 1507.16 1681.75 1505.78 1681.67Z" fill-rule="evenodd"/><text fill="#000000" fill-opacity="0" font-family="Arial,Arial_MSFontService,sans-serif" font-size="55.3198" x="1495.61" y="1728.09">πΈ</text><path d="M1549.76 1713.22 1562.33 1713.22 1562 1715.01C1561.55 1715.13 1561.16 1715.23 1560.84 1715.3 1560.52 1715.38 1560.24 1715.5 1559.99 1715.66 1559.74 1715.82 1559.53 1716.03 1559.35 1716.3 1559.17 1716.57 1559 1716.94 1558.83 1717.4 1558.66 1717.87 1558.48 1718.46 1558.3 1719.16 1558.11 1719.87 1557.89 1720.74 1557.65 1721.77L1555.72 1730.52 1556.55 1730.52C1557.01 1730.52 1557.43 1730.49 1557.8 1730.44 1558.18 1730.38 1558.55 1730.27 1558.92 1730.12 1559.29 1729.97 1559.67 1729.77 1560.05 1729.51 1560.44 1729.25 1560.88 1728.93 1561.38 1728.53 1563.44 1726.92 1565.17 1725.48 1566.56 1724.21 1567.95 1722.94 1569.08 1721.82 1569.94 1720.84 1570.8 1719.87 1571.42 1719.04 1571.79 1718.36 1572.16 1717.67 1572.34 1717.1 1572.34 1716.64 1572.34 1716.17 1572.15 1715.8 1571.77 1715.53 1571.4 1715.26 1570.78 1715.12 1569.93 1715.1L1570.25 1713.22 1583.81 1713.22 1583.39 1715.1C1582.93 1715.14 1582.5 1715.23 1582.09 1715.36 1581.69 1715.5 1581.21 1715.76 1580.68 1716.12 1580.14 1716.49 1579.5 1717 1578.76 1717.64 1578.01 1718.29 1577.07 1719.13 1575.94 1720.16L1564.33 1730.64 1571.06 1744.64C1571.57 1745.74 1572.02 1746.6 1572.4 1747.23 1572.78 1747.87 1573.16 1748.38 1573.56 1748.75 1573.96 1749.13 1574.41 1749.4 1574.92 1749.57 1575.42 1749.74 1576.05 1749.9 1576.81 1750.03L1576.33 1751.85 1564.06 1751.85 1564.48 1750.03C1565.03 1749.99 1565.45 1749.87 1565.73 1749.66 1566 1749.45 1566.14 1749.19 1566.14 1748.87 1566.12 1748.65 1566.09 1748.43 1566.05 1748.19 1566.01 1747.95 1565.94 1747.69 1565.85 1747.4 1565.75 1747.11 1565.62 1746.77 1565.46 1746.39 1565.3 1746 1565.1 1745.54 1564.86 1745L1560.87 1736.48C1560.53 1735.73 1560.23 1735.13 1559.96 1734.69 1559.7 1734.26 1559.42 1733.92 1559.13 1733.68 1558.84 1733.44 1558.51 1733.29 1558.15 1733.22 1557.78 1733.15 1557.32 1733.12 1556.76 1733.12L1555.12 1733.12C1554.96 1733.93 1554.78 1734.8 1554.56 1735.74 1554.34 1736.67 1554.12 1737.62 1553.9 1738.58 1553.68 1739.54 1553.47 1740.49 1553.28 1741.43 1553.08 1742.36 1552.9 1743.23 1552.74 1744.03 1552.58 1744.84 1552.45 1745.55 1552.35 1746.18 1552.25 1746.8 1552.2 1747.28 1552.2 1747.62 1552.2 1748.46 1552.45 1749.05 1552.93 1749.39 1553.42 1749.74 1554.25 1749.95 1555.42 1750.03L1554.94 1751.85 1542.4 1751.85 1542.73 1750.03C1543.35 1749.93 1543.85 1749.82 1544.24 1749.69 1544.62 1749.56 1544.97 1749.28 1545.28 1748.86 1545.59 1748.43 1545.87 1747.79 1546.13 1746.94 1546.39 1746.08 1546.68 1744.87 1547.02 1743.3L1551.91 1721.59C1552.1 1720.72 1552.25 1719.94 1552.35 1719.27 1552.45 1718.59 1552.5 1718.02 1552.5 1717.54 1552.5 1716.66 1552.27 1716.04 1551.82 1715.68 1551.36 1715.31 1550.53 1715.12 1549.31 1715.1Z" fill-rule="evenodd"/><text fill="#000000" fill-opacity="0" font-family="Arial,Arial_MSFontService,sans-serif" font-size="38.6313" x="1542.4" y="1747.02">πΎ</text><path d="M1597.36 1748.34 1594.6 1760.99C1595.2 1761.07 1596.48 1761.11 1598.43 1761.11 1600.81 1761.11 1602.62 1760.95 1603.88 1760.63 1605.13 1760.31 1606.18 1759.82 1607.03 1759.16 1607.87 1758.49 1608.5 1757.68 1608.9 1756.73 1609.29 1755.77 1609.49 1754.59 1609.49 1753.17 1609.49 1752.08 1609.25 1751.18 1608.77 1750.48 1608.29 1749.77 1607.57 1749.23 1606.61 1748.88 1605.65 1748.52 1604.24 1748.34 1602.36 1748.34ZM1605.49 1733.74C1603.7 1733.74 1602.08 1733.81 1600.63 1733.96L1598.04 1745.34 1602.49 1745.34C1605.29 1745.34 1607.34 1745.05 1608.65 1744.47 1609.96 1743.89 1610.96 1743.07 1611.64 1742.02 1612.33 1740.96 1612.67 1739.72 1612.67 1738.31 1612.67 1737.25 1612.41 1736.39 1611.89 1735.72 1611.36 1735.05 1610.61 1734.55 1609.62 1734.23 1608.62 1733.9 1607.25 1733.74 1605.49 1733.74ZM1592.04 1730.79 1606.61 1730.79C1608.73 1730.79 1610.53 1730.95 1612.02 1731.29 1613.51 1731.62 1614.71 1732.11 1615.63 1732.76 1616.55 1733.41 1617.23 1734.16 1617.66 1734.99 1618.09 1735.82 1618.31 1736.82 1618.31 1737.99 1618.31 1740.1 1617.66 1741.87 1616.38 1743.29 1615.09 1744.7 1613.11 1745.87 1610.45 1746.78L1610.45 1747.17C1613.68 1748.45 1615.3 1750.64 1615.3 1753.74 1615.3 1757.1 1613.92 1759.68 1611.14 1761.45 1608.37 1763.22 1604.25 1764.11 1598.8 1764.11L1585.81 1764.11 1586.23 1762.3C1587.07 1762.17 1587.68 1761.96 1588.06 1761.67 1588.43 1761.38 1588.75 1760.9 1589.02 1760.24 1589.29 1759.58 1589.63 1758.37 1590.04 1756.62L1594.16 1737.96C1594.47 1736.52 1594.63 1735.43 1594.63 1734.72 1594.63 1734.21 1594.55 1733.82 1594.39 1733.53 1594.24 1733.25 1593.94 1733.02 1593.5 1732.86 1593.06 1732.7 1592.44 1732.61 1591.62 1732.59Z" fill-rule="evenodd"/><text fill="#000000" fill-opacity="0" font-family="Arial,Arial_MSFontService,sans-serif" font-size="33.3252" x="1585.81" y="1759.95">πµ</text><path d="M1905.66 1672.89C1913.55 1674.97 1919.61 1679.47 1923.84 1686.37 1928.07 1693.27 1930.18 1701.6 1930.18 1711.35 1930.18 1721.13 1928.07 1729.46 1923.86 1736.34 1919.64 1743.21 1913.58 1747.69 1905.66 1749.77L1904.69 1746.65C1910.93 1744.57 1915.57 1740.47 1918.61 1734.33 1921.65 1728.2 1923.17 1720.4 1923.17 1710.95 1923.17 1701.82 1921.66 1694.23 1918.63 1688.19 1915.6 1682.15 1910.92 1678.09 1904.57 1676.01ZM1658.95 1672.89 1660.04 1676.01C1653.72 1678.09 1649.04 1682.15 1646 1688.19 1642.96 1694.23 1641.44 1701.82 1641.44 1710.95 1641.44 1720.4 1642.96 1728.2 1646 1734.33 1649.04 1740.47 1653.68 1744.57 1659.92 1746.65L1658.95 1749.77C1651.03 1747.69 1644.96 1743.21 1640.75 1736.34 1636.54 1729.46 1634.43 1721.13 1634.43 1711.35 1634.43 1701.6 1636.54 1693.27 1640.77 1686.37 1645 1679.47 1651.06 1674.97 1658.95 1672.89Z" fill-rule="evenodd"/><path d="M1674.3 1679.69 1690.51 1679.69 1690.06 1681.67C1689.04 1681.89 1688.3 1682.13 1687.85 1682.4 1687.41 1682.67 1687.01 1683.08 1686.66 1683.62 1686.31 1684.16 1685.94 1685 1685.57 1686.15 1685.19 1687.3 1684.71 1689.17 1684.15 1691.76L1681.27 1704.69 1682.61 1704.69C1683.74 1704.69 1684.77 1704.5 1685.71 1704.13 1686.64 1703.75 1687.73 1703.06 1688.97 1702.06 1690.21 1701.06 1692.19 1699.22 1694.91 1696.55 1697.62 1693.87 1699.55 1691.84 1700.7 1690.45 1701.85 1689.06 1702.69 1687.85 1703.21 1686.84 1703.74 1685.83 1704.01 1684.9 1704.01 1684.06 1704.01 1683.39 1703.73 1682.84 1703.19 1682.42 1702.65 1682 1701.88 1681.75 1700.88 1681.67L1701.33 1679.69 1718.72 1679.69 1718.27 1681.67C1717.19 1681.84 1715.97 1682.4 1714.6 1683.36 1713.24 1684.31 1711.15 1686.19 1708.34 1688.97L1692.62 1704.29 1701.25 1725.04C1702.14 1727.17 1702.88 1728.71 1703.46 1729.66 1704.04 1730.6 1704.73 1731.35 1705.55 1731.91 1706.36 1732.46 1707.36 1732.83 1708.54 1733.02L1708.1 1735.01 1692.45 1735.01 1692.9 1733.02C1694.36 1732.89 1695.09 1732.24 1695.09 1731.08 1695.09 1730.35 1694.94 1729.52 1694.64 1728.58 1694.35 1727.65 1693.99 1726.69 1693.59 1725.69L1688.32 1712.8C1687.7 1711.26 1687.16 1710.18 1686.7 1709.56 1686.24 1708.93 1685.75 1708.5 1685.24 1708.26 1684.73 1708.02 1683.93 1707.89 1682.85 1707.89L1680.58 1707.89 1677.22 1723.21C1676.87 1724.83 1676.64 1726.11 1676.53 1727.04 1676.42 1727.98 1676.37 1728.81 1676.37 1729.54 1676.37 1730.75 1676.67 1731.61 1677.28 1732.11 1677.89 1732.61 1678.91 1732.91 1680.34 1733.02L1679.89 1735.01 1663.68 1735.01 1664.13 1733.02C1665.15 1732.86 1665.92 1732.6 1666.44 1732.23 1666.95 1731.87 1667.38 1731.36 1667.73 1730.71 1668.08 1730.06 1668.41 1729.27 1668.71 1728.34 1669 1727.41 1669.45 1725.6 1670.04 1722.93L1676.93 1691.72C1677.53 1689.02 1677.82 1686.85 1677.82 1685.2 1677.82 1683.93 1677.51 1683.04 1676.87 1682.54 1676.24 1682.04 1675.23 1681.75 1673.85 1681.67Z" fill-rule="evenodd"/><text fill="#000000" fill-opacity="0" font-family="Arial,Arial_MSFontService,sans-serif" font-size="55.3198" x="1663.68" y="1728.09">πΎ</text><path d="M1732.37 1712.65C1734.25 1712.65 1736.07 1712.8 1737.8 1713.09 1739.54 1713.37 1741.36 1713.84 1743.27 1714.47L1741.57 1722.04 1738.33 1722.04C1738.27 1720.92 1738.09 1719.97 1737.8 1719.16 1737.52 1718.36 1737.11 1717.7 1736.6 1717.2 1736.08 1716.69 1735.43 1716.31 1734.63 1716.06 1733.84 1715.82 1732.89 1715.69 1731.8 1715.69 1730.63 1715.69 1729.57 1715.85 1728.62 1716.17 1727.66 1716.49 1726.85 1716.94 1726.17 1717.52 1725.5 1718.11 1724.98 1718.81 1724.61 1719.64 1724.24 1720.46 1724.06 1721.36 1724.06 1722.33 1724.06 1723.07 1724.15 1723.74 1724.33 1724.36 1724.5 1724.97 1724.81 1725.57 1725.25 1726.15 1725.69 1726.72 1726.29 1727.31 1727.05 1727.9 1727.82 1728.5 1728.78 1729.15 1729.96 1729.87 1731.39 1730.76 1732.61 1731.61 1733.63 1732.4 1734.66 1733.2 1735.49 1734.02 1736.14 1734.87 1736.78 1735.73 1737.25 1736.64 1737.55 1737.6 1737.85 1738.56 1738 1739.64 1738 1740.83 1738 1742.56 1737.65 1744.14 1736.97 1745.57 1736.28 1747 1735.31 1748.23 1734.05 1749.26 1732.79 1750.29 1731.28 1751.09 1729.52 1751.66 1727.77 1752.22 1725.81 1752.51 1723.64 1752.51 1721.81 1752.51 1719.85 1752.35 1717.74 1752.04 1715.64 1751.74 1713.56 1751.29 1711.52 1750.69L1713.28 1742.65 1716.43 1742.65C1716.49 1745.03 1717.13 1746.76 1718.34 1747.83 1719.55 1748.9 1721.42 1749.44 1723.94 1749.44 1725.23 1749.44 1726.39 1749.27 1727.42 1748.93 1728.46 1748.59 1729.33 1748.11 1730.04 1747.47 1730.76 1746.84 1731.31 1746.06 1731.68 1745.15 1732.06 1744.24 1732.25 1743.21 1732.25 1742.08 1732.25 1741.29 1732.15 1740.57 1731.95 1739.92 1731.75 1739.28 1731.41 1738.64 1730.91 1738 1730.41 1737.37 1729.74 1736.72 1728.9 1736.06 1728.05 1735.41 1727.01 1734.69 1725.76 1733.92 1724.5 1733.15 1723.42 1732.38 1722.49 1731.61 1721.57 1730.85 1720.8 1730.05 1720.19 1729.23 1719.57 1728.41 1719.11 1727.55 1718.8 1726.65 1718.49 1725.76 1718.34 1724.81 1718.34 1723.79 1718.34 1722.13 1718.67 1720.61 1719.32 1719.25 1719.98 1717.89 1720.92 1716.72 1722.14 1715.74 1723.36 1714.75 1724.84 1713.99 1726.57 1713.46 1728.31 1712.92 1730.24 1712.65 1732.37 1712.65Z" fill-rule="evenodd"/><text fill="#000000" fill-opacity="0" font-family="Arial,Arial_MSFontService,sans-serif" font-size="39.8525" x="1711.52" y="1747.52">π‘†</text><path d="M1753.54 1725.6 1760.63 1725.6C1761.01 1727.5 1761.2 1729.36 1761.2 1731.2 1761.2 1733.09 1760.88 1734.82 1760.23 1736.39 1759.58 1737.95 1758.55 1739.51 1757.13 1741.07 1755.71 1742.62 1753.76 1744.33 1751.27 1746.19L1749.08 1743.72C1750.46 1742.42 1751.46 1741.26 1752.08 1740.21 1752.7 1739.17 1753.15 1737.99 1753.42 1736.67 1753.69 1735.34 1753.82 1733.68 1753.82 1731.68 1753.82 1729.63 1753.73 1727.6 1753.54 1725.6Z" fill-rule="evenodd"/><text fill="#000000" fill-opacity="0" font-family="Arial,Arial_MSFontService,sans-serif" font-size="20.5879" x="1749.08" y="1743.62">,</text><path d="M1839.46 1683.21C1838.27 1683.21 1836.98 1683.25 1835.61 1683.33L1825.11 1731.28C1825.89 1731.36 1827.39 1731.4 1829.61 1731.4 1833.99 1731.4 1837.7 1730.64 1840.75 1729.11 1843.81 1727.58 1846.44 1725.19 1848.66 1721.94 1850.87 1718.68 1852.51 1715.25 1853.56 1711.64 1854.61 1708.04 1855.14 1704.23 1855.14 1700.23 1855.14 1694.59 1853.82 1690.34 1851.19 1687.49 1848.56 1684.64 1844.64 1683.21 1839.46 1683.21ZM1823.98 1679.69 1839.34 1679.69C1843.42 1679.69 1846.72 1680 1849.26 1680.62 1851.8 1681.24 1854.18 1682.36 1856.38 1683.98 1858.58 1685.6 1860.23 1687.76 1861.34 1690.45 1862.45 1693.14 1863 1696.32 1863 1699.99 1863 1703.64 1862.58 1707.12 1861.75 1710.45 1860.91 1713.77 1859.71 1716.83 1858.14 1719.63 1856.57 1722.42 1854.7 1724.86 1852.51 1726.92 1850.32 1728.99 1848.2 1730.58 1846.14 1731.68 1844.09 1732.79 1841.79 1733.62 1839.25 1734.18 1836.71 1734.73 1833.76 1735.01 1830.38 1735.01L1813.36 1735.01 1813.8 1733.02C1814.83 1732.86 1815.6 1732.6 1816.11 1732.23 1816.63 1731.87 1817.06 1731.36 1817.41 1730.71 1817.76 1730.06 1818.09 1729.27 1818.38 1728.34 1818.68 1727.41 1819.13 1725.6 1819.72 1722.93L1826.61 1691.72C1827.2 1689.02 1827.5 1686.85 1827.5 1685.2 1827.5 1683.93 1827.18 1683.04 1826.55 1682.54 1825.91 1682.04 1824.91 1681.75 1823.53 1681.67ZM1791.98 1679.69 1808.19 1679.69 1807.74 1681.67C1806.71 1681.89 1805.98 1682.13 1805.53 1682.4 1805.09 1682.67 1804.69 1683.08 1804.34 1683.62 1803.99 1684.16 1803.62 1685 1803.24 1686.15 1802.86 1687.3 1802.39 1689.17 1801.82 1691.76L1794.89 1723.21C1794.54 1724.81 1794.31 1726.07 1794.2 1727 1794.1 1727.94 1794.04 1728.78 1794.04 1729.54 1794.04 1730.75 1794.35 1731.61 1794.95 1732.11 1795.56 1732.61 1796.58 1732.91 1798.01 1733.02L1797.57 1735.01 1781.36 1735.01 1781.8 1733.02C1782.83 1732.86 1783.6 1732.6 1784.11 1732.23 1784.63 1731.87 1785.06 1731.36 1785.41 1730.71 1785.76 1730.06 1786.09 1729.27 1786.38 1728.34 1786.68 1727.41 1787.13 1725.6 1787.72 1722.93L1794.61 1691.72C1795.2 1689.02 1795.5 1686.85 1795.5 1685.2 1795.5 1683.93 1795.18 1683.04 1794.55 1682.54 1793.91 1682.04 1792.91 1681.75 1791.53 1681.67Z" fill-rule="evenodd"/><text fill="#000000" fill-opacity="0" font-family="Arial,Arial_MSFontService,sans-serif" font-size="55.3198" x="1781.36" y="1728.09">πΌπ·</text><path d="M1885.06 1719.24C1883.34 1722.06 1881.62 1724.88 1879.93 1727.71 1878.23 1730.54 1876.51 1733.37 1874.79 1736.21L1886.25 1736.21C1886.16 1734.94 1886.06 1733.7 1885.96 1732.48 1885.86 1731.25 1885.78 1729.97 1885.72 1728.62 1885.66 1727.27 1885.6 1725.83 1885.55 1724.3 1885.51 1722.77 1885.48 1721.08 1885.48 1719.24ZM1884.94 1712.71 1889.86 1712.71 1892.57 1744.2C1892.65 1745.21 1892.77 1746.06 1892.94 1746.76 1893.11 1747.45 1893.34 1748.03 1893.64 1748.49 1893.94 1748.94 1894.31 1749.29 1894.76 1749.53 1895.21 1749.77 1895.77 1749.93 1896.44 1750.03L1895.99 1751.85 1883.01 1751.85 1883.45 1750.03C1884.01 1749.93 1884.5 1749.81 1884.93 1749.66 1885.36 1749.51 1885.71 1749.26 1885.99 1748.92 1886.26 1748.57 1886.48 1748.1 1886.63 1747.5 1886.78 1746.91 1886.85 1746.13 1886.85 1745.18 1886.85 1744.82 1886.84 1744.41 1886.82 1743.94 1886.8 1743.48 1886.78 1742.98 1886.75 1742.47 1886.72 1741.95 1886.68 1741.42 1886.63 1740.88 1886.58 1740.33 1886.53 1739.8 1886.49 1739.28L1873.15 1739.28C1872.69 1739.96 1872.24 1740.65 1871.79 1741.37 1871.35 1742.08 1870.94 1742.78 1870.57 1743.47 1870.21 1744.15 1869.91 1744.83 1869.69 1745.51 1869.48 1746.18 1869.37 1746.85 1869.37 1747.5 1869.37 1748.95 1870.43 1749.8 1872.55 1750.03L1872.17 1751.85 1859.15 1751.85 1859.48 1750.03C1860.01 1749.93 1860.5 1749.78 1860.92 1749.57 1861.35 1749.36 1861.8 1749.04 1862.26 1748.59 1862.73 1748.14 1863.24 1747.54 1863.78 1746.77 1864.33 1746.01 1864.99 1745 1865.76 1743.75Z" fill-rule="evenodd"/><text fill="#000000" fill-opacity="0" font-family="Arial,Arial_MSFontService,sans-serif" font-size="39.1377" x="1859.15" y="1746.96">π΄</text><text font-family="Microsoft YaHei,Microsoft YaHei_MSFontService,sans-serif" font-weight="400" font-size="83" transform="matrix(1 0 0 1 1471.39 2023)">β‘£</text><path d="M1589.74 1967.87 1627.02 1967.87 1624.22 1980.31 1620.33 1980.31C1620.23 1977.96 1620.02 1976.19 1619.73 1975 1619.43 1973.81 1619.07 1973 1618.65 1972.55 1618.23 1972.1 1617.73 1971.81 1617.15 1971.66 1616.57 1971.51 1615.74 1971.44 1614.66 1971.44L1601.45 1971.44 1596.83 1992.67 1604.57 1992.67C1606.49 1992.67 1607.95 1992.22 1608.97 1991.31 1609.98 1990.41 1611 1988.92 1612.03 1986.84L1615.71 1986.84 1612.07 2002.4 1608.62 2002.4C1608.62 2000.24 1608.49 1998.77 1608.22 1998 1607.95 1997.23 1607.55 1996.75 1607.02 1996.54 1606.49 1996.34 1605.54 1996.24 1604.16 1996.24L1596.06 1996.24 1590.87 2019.62 1602.87 2019.62C1604.46 2019.62 1605.72 2019.46 1606.66 2019.14 1607.59 2018.81 1608.47 2018.29 1609.29 2017.56 1610.11 2016.83 1610.94 2015.81 1611.76 2014.5 1612.59 2013.19 1613.57 2011.41 1614.7 2009.17L1618.63 2009.17 1615.07 2023.19 1579.12 2023.19 1579.56 2021.2C1580.59 2021.04 1581.36 2020.78 1581.87 2020.41 1582.39 2020.05 1582.82 2019.54 1583.17 2018.89 1583.52 2018.25 1583.85 2017.46 1584.14 2016.52 1584.44 2015.59 1584.89 2013.79 1585.48 2011.11L1592.37 1979.91C1592.96 1977.2 1593.26 1975.03 1593.26 1973.38 1593.26 1972.11 1592.94 1971.23 1592.31 1970.73 1591.67 1970.23 1590.67 1969.94 1589.29 1969.86Z" fill-rule="evenodd"/><text fill="#000000" fill-opacity="0" font-family="Arial,Arial_MSFontService,sans-serif" font-size="55.3198" x="1579.12" y="2016.27">πΈ</text><path d="M1633.27 2001.4 1645.84 2001.4 1645.51 2003.19C1645.06 2003.31 1644.67 2003.41 1644.35 2003.49 1644.03 2003.57 1643.75 2003.69 1643.5 2003.84 1643.25 2004 1643.04 2004.22 1642.86 2004.48 1642.68 2004.75 1642.51 2005.12 1642.34 2005.59 1642.17 2006.05 1641.99 2006.64 1641.8 2007.34 1641.61 2008.05 1641.4 2008.92 1641.16 2009.95L1639.23 2018.71 1640.06 2018.71C1640.52 2018.71 1640.93 2018.68 1641.31 2018.62 1641.69 2018.56 1642.06 2018.45 1642.43 2018.31 1642.8 2018.16 1643.17 2017.95 1643.56 2017.69 1643.95 2017.44 1644.39 2017.11 1644.89 2016.71 1646.95 2015.1 1648.68 2013.66 1650.07 2012.39 1651.46 2011.12 1652.59 2010 1653.45 2009.03 1654.31 2008.05 1654.93 2007.23 1655.3 2006.54 1655.66 2005.85 1655.85 2005.28 1655.85 2004.83 1655.85 2004.35 1655.66 2003.98 1655.28 2003.71 1654.9 2003.44 1654.29 2003.3 1653.43 2003.28L1653.76 2001.4 1667.31 2001.4 1666.9 2003.28C1666.44 2003.32 1666.01 2003.41 1665.6 2003.55 1665.19 2003.69 1664.72 2003.94 1664.19 2004.31 1663.65 2004.67 1663.01 2005.18 1662.27 2005.83 1661.52 2006.47 1660.58 2007.31 1659.45 2008.34L1647.83 2018.83 1654.57 2032.83C1655.08 2033.92 1655.53 2034.78 1655.91 2035.42 1656.28 2036.05 1656.67 2036.56 1657.07 2036.94 1657.47 2037.31 1657.92 2037.59 1658.42 2037.75 1658.93 2037.92 1659.56 2038.08 1660.31 2038.22L1659.84 2040.03 1647.57 2040.03 1647.98 2038.22C1648.54 2038.18 1648.96 2038.05 1649.23 2037.84 1649.51 2037.64 1649.65 2037.37 1649.65 2037.05 1649.63 2036.84 1649.6 2036.61 1649.56 2036.37 1649.52 2036.13 1649.45 2035.87 1649.35 2035.58 1649.25 2035.29 1649.13 2034.96 1648.97 2034.57 1648.81 2034.18 1648.61 2033.72 1648.37 2033.18L1644.38 2024.66C1644.04 2023.91 1643.74 2023.31 1643.47 2022.88 1643.2 2022.44 1642.93 2022.1 1642.64 2021.86 1642.35 2021.63 1642.02 2021.47 1641.65 2021.4 1641.29 2021.33 1640.83 2021.3 1640.27 2021.3L1638.63 2021.3C1638.47 2022.11 1638.28 2022.99 1638.07 2023.92 1637.85 2024.85 1637.63 2025.8 1637.41 2026.76 1637.19 2027.73 1636.98 2028.68 1636.78 2029.61 1636.59 2030.54 1636.41 2031.41 1636.25 2032.21 1636.09 2033.02 1635.96 2033.73 1635.86 2034.36 1635.76 2034.98 1635.71 2035.47 1635.71 2035.8 1635.71 2036.64 1635.96 2037.23 1636.44 2037.58 1636.93 2037.92 1637.76 2038.14 1638.93 2038.22L1638.45 2040.03 1625.91 2040.03 1626.24 2038.22C1626.86 2038.12 1627.36 2038 1627.74 2037.87 1628.13 2037.74 1628.48 2037.47 1628.79 2037.04 1629.1 2036.61 1629.38 2035.97 1629.64 2035.12 1629.89 2034.27 1630.19 2033.05 1630.53 2031.49L1635.41 2009.77C1635.61 2008.9 1635.76 2008.12 1635.86 2007.45 1635.96 2006.77 1636.01 2006.2 1636.01 2005.72 1636.01 2004.85 1635.78 2004.23 1635.33 2003.86 1634.87 2003.49 1634.03 2003.3 1632.82 2003.28Z" fill-rule="evenodd"/><text fill="#000000" fill-opacity="0" font-family="Arial,Arial_MSFontService,sans-serif" font-size="38.6313" x="1625.91" y="2035.2">πΎ</text><path d="M1687.73 2018.33C1691.16 2018.33 1694.55 2018.88 1697.88 2019.97L1696.37 2026.73 1693.25 2026.73C1693.12 2024.89 1692.55 2023.53 1691.56 2022.66 1690.57 2021.78 1689.01 2021.34 1686.87 2021.34 1684.95 2021.34 1683.4 2021.82 1682.21 2022.78 1681.02 2023.74 1680.43 2025.05 1680.43 2026.71 1680.43 2027.93 1680.79 2028.99 1681.53 2029.91 1682.26 2030.82 1683.68 2031.9 1685.8 2033.15 1687.75 2034.29 1689.23 2035.31 1690.24 2036.19 1691.25 2037.08 1692.02 2038.06 1692.54 2039.15 1693.06 2040.23 1693.32 2041.47 1693.32 2042.87 1693.32 2044.81 1692.79 2046.54 1691.74 2048.07 1690.69 2049.6 1689.18 2050.79 1687.2 2051.65 1685.23 2052.5 1682.94 2052.93 1680.36 2052.93 1677.12 2052.93 1673.37 2052.36 1669.12 2051.22L1670.66 2044.16 1673.79 2044.16C1673.89 2046.21 1674.48 2047.7 1675.58 2048.61 1676.68 2049.52 1678.44 2049.97 1680.87 2049.97 1683.08 2049.97 1684.81 2049.43 1686.07 2048.33 1687.32 2047.23 1687.95 2045.74 1687.95 2043.87 1687.95 2042.65 1687.56 2041.53 1686.78 2040.51 1685.99 2039.5 1684.4 2038.3 1681.99 2036.91 1679.53 2035.5 1677.76 2034.08 1676.66 2032.65 1675.56 2031.23 1675.01 2029.66 1675.01 2027.95 1675.01 2026.05 1675.52 2024.37 1676.53 2022.91 1677.55 2021.45 1679.02 2020.33 1680.94 2019.53 1682.86 2018.73 1685.12 2018.33 1687.73 2018.33Z" fill-rule="evenodd"/><text fill="#000000" fill-opacity="0" font-family="Arial,Arial_MSFontService,sans-serif" font-size="34.5947" x="1669.12" y="2048.6">π‘†</text><path d="M1826.62 1960.87 1844.7 1960.87 1844.7 2038.15 1826.62 2038.15 1826.62 2035.03 1837.97 2035.03 1837.97 1963.99 1826.62 1963.99ZM1713.58 1960.87 1731.65 1960.87 1731.65 1963.99 1720.31 1963.99 1720.31 2035.03 1731.65 2035.03 1731.65 2038.15 1713.58 2038.15Z" fill-rule="evenodd"/><path d="M1746.06 1967.87 1758.99 1967.87 1769.69 1999.44C1771.23 2003.98 1772.42 2007.82 1773.26 2010.95L1773.7 2010.95C1773.92 2009.3 1774.41 2006.56 1775.18 2002.72 1775.95 1998.89 1776.66 1995.54 1777.31 1992.67L1780.14 1979.91C1780.74 1977.23 1781.04 1975.06 1781.04 1973.38 1781.04 1972.11 1780.72 1971.23 1780.08 1970.73 1779.45 1970.23 1778.44 1969.94 1777.06 1969.86L1777.51 1967.87 1791.69 1967.87 1791.25 1969.86C1790.22 1970.07 1789.49 1970.32 1789.04 1970.59 1788.59 1970.86 1788.2 1971.26 1787.84 1971.8 1787.49 1972.34 1787.13 1973.19 1786.75 1974.33 1786.37 1975.48 1785.9 1977.35 1785.33 1979.95L1775.81 2023.19 1770.3 2023.19 1758.46 1988.42C1757.03 1984.26 1755.77 1980.11 1754.69 1975.98L1754.17 1975.98C1754 1977.35 1753.56 1979.98 1752.83 1983.86 1752.1 1987.73 1751.33 1991.52 1750.52 1995.23L1746.95 2011.4C1746.39 2013.96 1746.1 2016.07 1746.1 2017.72 1746.1 2018.93 1746.41 2019.79 1747.01 2020.29 1747.62 2020.79 1748.64 2021.1 1750.07 2021.2L1749.63 2023.19 1735.44 2023.19 1735.89 2021.2C1736.92 2021.04 1737.69 2020.78 1738.2 2020.41 1738.71 2020.05 1739.14 2019.54 1739.5 2018.89 1739.85 2018.25 1740.17 2017.46 1740.47 2016.52 1740.77 2015.59 1741.21 2013.79 1741.81 2011.11L1748.7 1979.91C1748.97 1978.74 1749.18 1977.64 1749.34 1976.58 1749.51 1975.53 1749.59 1974.46 1749.59 1973.38 1749.59 1972.11 1749.27 1971.23 1748.63 1970.73 1748 1970.23 1746.99 1969.94 1745.62 1969.86Z" fill-rule="evenodd"/><text fill="#000000" fill-opacity="0" font-family="Arial,Arial_MSFontService,sans-serif" font-size="55.3198" x="1735.44" y="2016.27">π‘</text><path d="M1804.3 2001.46C1806.36 2001.46 1808.13 2001.69 1809.59 2002.16 1811.05 2002.63 1812.23 2003.26 1813.15 2004.05 1814.06 2004.85 1814.72 2005.8 1815.13 2006.91 1815.53 2008.02 1815.74 2009.23 1815.74 2010.52 1815.74 2011.29 1815.68 2012.01 1815.57 2012.68 1815.46 2013.34 1815.28 2014 1815.01 2014.64 1814.74 2015.29 1814.39 2015.94 1813.95 2016.59 1813.51 2017.25 1812.97 2017.94 1812.31 2018.68 1811.82 2019.31 1811.17 2020.05 1810.38 2020.88 1809.58 2021.72 1808.71 2022.61 1807.77 2023.56 1806.83 2024.52 1805.84 2025.51 1804.81 2026.54 1803.77 2027.57 1802.77 2028.6 1801.8 2029.61 1800.82 2030.62 1799.93 2031.6 1799.12 2032.56 1798.3 2033.51 1797.64 2034.38 1797.12 2035.18L1808.14 2035.18C1809.08 2035.18 1809.82 2035.14 1810.38 2035.07 1810.93 2035 1811.39 2034.85 1811.76 2034.61 1812.13 2034.37 1812.44 2034.01 1812.7 2033.53 1812.96 2033.04 1813.26 2032.37 1813.59 2031.51L1816.36 2031.51C1816.26 2032.92 1816.17 2034.34 1816.08 2035.77 1815.99 2037.2 1815.9 2038.62 1815.8 2040.03L1790.57 2040.03 1790.57 2038.48C1791.05 2037.41 1791.6 2036.35 1792.24 2035.31 1792.87 2034.27 1793.59 2033.21 1794.38 2032.14 1795.18 2031.07 1796.08 2029.96 1797.09 2028.82 1798.1 2027.68 1799.23 2026.49 1800.46 2025.26 1802.32 2023.39 1803.84 2021.8 1805.01 2020.48 1806.19 2019.16 1807.11 2017.98 1807.78 2016.95 1808.46 2015.92 1808.92 2014.96 1809.17 2014.09 1809.42 2013.22 1809.54 2012.28 1809.54 2011.29 1809.54 2010.28 1809.4 2009.34 1809.11 2008.49 1808.82 2007.64 1808.41 2006.91 1807.87 2006.32 1807.34 2005.72 1806.66 2005.25 1805.83 2004.92 1805.01 2004.58 1804.06 2004.41 1802.99 2004.41 1801.14 2004.41 1799.59 2004.91 1798.34 2005.91 1797.09 2006.92 1796.12 2008.37 1795.42 2010.28L1791.52 2010.28 1791.52 2004.47C1794.06 2003.42 1796.4 2002.65 1798.54 2002.18 1800.67 2001.7 1802.59 2001.46 1804.3 2001.46Z" fill-rule="evenodd"/><text fill="#000000" fill-opacity="0" font-family="Arial,Arial_MSFontService,sans-serif" font-size="38.5718" x="1790.57" y="2035.21">2</text><text font-family="Microsoft YaHei,Microsoft YaHei_MSFontService,sans-serif" font-weight="400" font-size="83" transform="matrix(1 0 0 1 1413.32 2290)">β‘¤</text><path d="M1531.67 2234.26 1568.95 2234.26 1566.15 2246.7 1562.26 2246.7C1562.16 2244.35 1561.95 2242.58 1561.66 2241.4 1561.36 2240.21 1561 2239.39 1560.58 2238.94 1560.16 2238.5 1559.66 2238.2 1559.08 2238.05 1558.5 2237.9 1557.67 2237.83 1556.59 2237.83L1543.38 2237.83 1538.76 2259.07 1546.5 2259.07C1548.42 2259.07 1549.88 2258.61 1550.9 2257.71 1551.91 2256.8 1552.93 2255.31 1553.96 2253.23L1557.64 2253.23 1554 2268.79 1550.55 2268.79C1550.55 2266.63 1550.42 2265.17 1550.15 2264.4 1549.88 2263.62 1549.48 2263.14 1548.95 2262.94 1548.42 2262.73 1547.47 2262.63 1546.09 2262.63L1537.99 2262.63 1532.8 2286.02 1544.8 2286.02C1546.39 2286.02 1547.65 2285.85 1548.59 2285.53 1549.52 2285.21 1550.4 2284.68 1551.22 2283.95 1552.04 2283.22 1552.87 2282.2 1553.69 2280.89 1554.52 2279.58 1555.5 2277.8 1556.63 2275.56L1560.56 2275.56 1556.99 2289.58 1521.05 2289.58 1521.49 2287.6C1522.52 2287.43 1523.29 2287.17 1523.8 2286.81 1524.32 2286.44 1524.75 2285.94 1525.1 2285.29 1525.45 2284.64 1525.78 2283.85 1526.07 2282.92 1526.37 2281.98 1526.82 2280.18 1527.41 2277.51L1534.3 2246.3C1534.89 2243.6 1535.19 2241.42 1535.19 2239.77 1535.19 2238.5 1534.87 2237.62 1534.24 2237.12 1533.6 2236.62 1532.6 2236.33 1531.22 2236.25Z" fill-rule="evenodd"/><text fill="#000000" fill-opacity="0" font-family="Arial,Arial_MSFontService,sans-serif" font-size="55.3198" x="1521.05" y="2282.67">πΈ</text><path d="M1575.2 2267.8 1587.77 2267.8 1587.44 2269.58C1586.98 2269.7 1586.6 2269.8 1586.28 2269.88 1585.96 2269.96 1585.68 2270.08 1585.43 2270.24 1585.18 2270.4 1584.97 2270.61 1584.79 2270.88 1584.61 2271.15 1584.44 2271.51 1584.27 2271.98 1584.1 2272.45 1583.92 2273.03 1583.73 2273.74 1583.54 2274.44 1583.33 2275.31 1583.09 2276.34L1581.16 2285.1 1581.99 2285.1C1582.45 2285.1 1582.86 2285.07 1583.24 2285.01 1583.62 2284.95 1583.99 2284.85 1584.36 2284.7 1584.73 2284.55 1585.1 2284.35 1585.49 2284.09 1585.88 2283.83 1586.32 2283.5 1586.82 2283.1 1588.88 2281.5 1590.61 2280.06 1592 2278.79 1593.39 2277.52 1594.51 2276.39 1595.38 2275.42 1596.24 2274.45 1596.86 2273.62 1597.23 2272.93 1597.59 2272.25 1597.78 2271.68 1597.78 2271.22 1597.78 2270.74 1597.59 2270.37 1597.21 2270.1 1596.83 2269.84 1596.22 2269.69 1595.36 2269.67L1595.69 2267.8 1609.24 2267.8 1608.83 2269.67C1608.37 2269.71 1607.94 2269.8 1607.53 2269.94 1607.12 2270.08 1606.65 2270.33 1606.12 2270.7 1605.58 2271.07 1604.94 2271.57 1604.2 2272.22 1603.45 2272.86 1602.51 2273.7 1601.38 2274.74L1589.76 2285.22 1596.5 2299.22C1597.01 2300.31 1597.46 2301.17 1597.84 2301.81 1598.21 2302.45 1598.6 2302.95 1599 2303.33 1599.39 2303.71 1599.85 2303.98 1600.35 2304.15 1600.86 2304.32 1601.49 2304.47 1602.24 2304.61L1601.77 2306.43 1589.5 2306.43 1589.91 2304.61C1590.47 2304.57 1590.89 2304.45 1591.16 2304.24 1591.44 2304.03 1591.58 2303.77 1591.58 2303.45 1591.56 2303.23 1591.53 2303 1591.49 2302.76 1591.45 2302.52 1591.38 2302.26 1591.28 2301.97 1591.18 2301.69 1591.05 2301.35 1590.9 2300.96 1590.74 2300.57 1590.54 2300.11 1590.3 2299.58L1586.31 2291.06C1585.97 2290.3 1585.67 2289.71 1585.4 2289.27 1585.13 2288.83 1584.85 2288.5 1584.57 2288.26 1584.28 2288.02 1583.95 2287.87 1583.58 2287.8 1583.22 2287.73 1582.75 2287.69 1582.2 2287.69L1580.56 2287.69C1580.4 2288.51 1580.21 2289.38 1579.99 2290.31 1579.78 2291.25 1579.56 2292.19 1579.34 2293.16 1579.12 2294.12 1578.91 2295.07 1578.71 2296 1578.52 2296.94 1578.34 2297.8 1578.18 2298.61 1578.02 2299.41 1577.89 2300.13 1577.79 2300.75 1577.69 2301.38 1577.64 2301.86 1577.64 2302.2 1577.64 2303.03 1577.88 2303.62 1578.37 2303.97 1578.86 2304.32 1579.69 2304.53 1580.86 2304.61L1580.38 2306.43 1567.84 2306.43 1568.17 2304.61C1568.79 2304.51 1569.29 2304.4 1569.67 2304.27 1570.06 2304.14 1570.41 2303.86 1570.72 2303.43 1571.02 2303.01 1571.31 2302.37 1571.57 2301.51 1571.82 2300.66 1572.12 2299.45 1572.46 2297.88L1577.34 2276.16C1577.54 2275.29 1577.69 2274.52 1577.79 2273.84 1577.89 2273.17 1577.94 2272.59 1577.94 2272.11 1577.94 2271.24 1577.71 2270.62 1577.25 2270.25 1576.8 2269.89 1575.96 2269.69 1574.75 2269.67Z" fill-rule="evenodd"/><text fill="#000000" fill-opacity="0" font-family="Arial,Arial_MSFontService,sans-serif" font-size="38.6313" x="1567.84" y="2301.6">πΎ</text><path d="M1629.66 2284.73C1633.09 2284.73 1636.48 2285.27 1639.81 2286.36L1638.3 2293.13 1635.17 2293.13C1635.04 2291.29 1634.48 2289.93 1633.49 2289.05 1632.5 2288.17 1630.94 2287.73 1628.8 2287.73 1626.88 2287.73 1625.33 2288.21 1624.14 2289.17 1622.95 2290.13 1622.36 2291.44 1622.36 2293.1 1622.36 2294.32 1622.72 2295.39 1623.46 2296.3 1624.19 2297.21 1625.61 2298.29 1627.73 2299.55 1629.68 2300.69 1631.16 2301.7 1632.17 2302.59 1633.18 2303.47 1633.95 2304.46 1634.47 2305.54 1634.99 2306.62 1635.25 2307.86 1635.25 2309.26 1635.25 2311.2 1634.72 2312.93 1633.67 2314.46 1632.62 2315.99 1631.11 2317.19 1629.13 2318.04 1627.15 2318.89 1624.87 2319.32 1622.28 2319.32 1619.05 2319.32 1615.3 2318.75 1611.05 2317.61L1612.59 2310.56 1615.72 2310.56C1615.81 2312.61 1616.41 2314.09 1617.51 2315 1618.61 2315.91 1620.37 2316.37 1622.8 2316.37 1625.01 2316.37 1626.74 2315.82 1628 2314.72 1629.25 2313.62 1629.88 2312.14 1629.88 2310.26 1629.88 2309.04 1629.49 2307.92 1628.71 2306.91 1627.92 2305.89 1626.33 2304.69 1623.92 2303.31 1621.46 2301.89 1619.68 2300.47 1618.59 2299.05 1617.49 2297.62 1616.94 2296.06 1616.94 2294.35 1616.94 2292.44 1617.45 2290.76 1618.46 2289.3 1619.48 2287.85 1620.95 2286.72 1622.87 2285.92 1624.79 2285.13 1627.05 2284.73 1629.66 2284.73Z" fill-rule="evenodd"/><text fill="#000000" fill-opacity="0" font-family="Arial,Arial_MSFontService,sans-serif" font-size="34.5947" x="1611.05" y="2315">π‘†</text><path d="M1884.69 2227.26 1902.77 2227.26 1902.77 2304.55 1884.69 2304.55 1884.69 2301.43 1896.04 2301.43 1896.04 2230.38 1884.69 2230.38ZM1655.51 2227.26 1673.58 2227.26 1673.58 2230.38 1662.24 2230.38 1662.24 2301.43 1673.58 2301.43 1673.58 2304.55 1655.51 2304.55Z" fill-rule="evenodd"/><path d="M1713.32 2231.39C1715.97 2231.39 1718.25 2231.6 1720.17 2232.03L1718.59 2238.92 1715.02 2238.92C1714.64 2237.38 1714.15 2236.28 1713.54 2235.6 1712.93 2234.92 1712.04 2234.59 1710.85 2234.59 1709.31 2234.59 1708 2235.01 1706.94 2235.86 1705.87 2236.71 1704.96 2237.98 1704.2 2239.65 1703.44 2241.33 1702.74 2243.58 1702.09 2246.42L1701.08 2250.84 1711.5 2250.84 1710.6 2254.93 1700.15 2254.93 1692.61 2290.27C1691.37 2296.13 1689.46 2300.5 1686.9 2303.38 1684.33 2306.26 1681.1 2307.7 1677.21 2307.7 1676.08 2307.7 1675.18 2307.63 1674.54 2307.5L1675.22 2303.93C1675.49 2304.01 1676.13 2304.05 1677.13 2304.05 1678.34 2304.05 1679.38 2303.74 1680.25 2303.12 1681.11 2302.5 1681.92 2301.42 1682.66 2299.88 1683.4 2298.34 1684.09 2296.2 1684.71 2293.47L1693.42 2254.93 1686.57 2254.93 1687.18 2252.14C1688.99 2252.03 1690.29 2251.88 1691.09 2251.69 1691.89 2251.5 1692.51 2251.22 1692.95 2250.84 1693.4 2250.46 1693.78 2249.97 1694.09 2249.36 1694.4 2248.75 1694.8 2247.64 1695.29 2246.02 1696.72 2241.15 1698.93 2237.5 1701.91 2235.05 1704.9 2232.61 1708.7 2231.39 1713.32 2231.39Z" fill-rule="evenodd"/><text fill="#000000" fill-opacity="0" font-family="Arial,Arial_MSFontService,sans-serif" font-size="76.313" x="1674.54" y="2298.16">π‘“</text><path d="M1851.35 2227.47C1859.24 2229.55 1865.3 2234.04 1869.52 2240.94 1873.75 2247.85 1875.87 2256.18 1875.87 2265.93 1875.87 2275.71 1873.76 2284.04 1869.54 2290.91 1865.33 2297.79 1859.26 2302.27 1851.35 2304.35L1850.38 2301.23C1856.62 2299.15 1861.26 2295.04 1864.3 2288.91 1867.34 2282.78 1868.86 2274.98 1868.86 2265.52 1868.86 2256.39 1867.34 2248.81 1864.32 2242.77 1861.29 2236.73 1856.6 2232.67 1850.25 2230.59ZM1754.62 2227.47 1755.72 2230.59C1749.4 2232.67 1744.71 2236.73 1741.68 2242.77 1738.64 2248.81 1737.12 2256.39 1737.12 2265.52 1737.12 2274.98 1738.64 2282.78 1741.68 2288.91 1744.71 2295.04 1749.36 2299.15 1755.6 2301.23L1754.62 2304.35C1746.71 2302.27 1740.64 2297.79 1736.43 2290.91 1732.21 2284.04 1730.1 2275.71 1730.1 2265.93 1730.1 2256.18 1732.22 2247.85 1736.45 2240.94 1740.68 2234.04 1746.73 2229.55 1754.62 2227.47Z" fill-rule="evenodd"/><path d="M1769.89 2234.26 1782.82 2234.26 1793.52 2265.83C1795.06 2270.37 1796.25 2274.21 1797.09 2277.34L1797.53 2277.34C1797.75 2275.7 1798.24 2272.95 1799.01 2269.12 1799.78 2265.28 1800.49 2261.93 1801.14 2259.07L1803.98 2246.3C1804.57 2243.62 1804.87 2241.45 1804.87 2239.77 1804.87 2238.5 1804.55 2237.62 1803.92 2237.12 1803.28 2236.62 1802.28 2236.33 1800.9 2236.25L1801.34 2234.26 1815.53 2234.26 1815.08 2236.25C1814.06 2236.46 1813.32 2236.71 1812.87 2236.98 1812.43 2237.25 1812.03 2237.65 1811.68 2238.19 1811.33 2238.73 1810.96 2239.58 1810.58 2240.73 1810.21 2241.88 1809.73 2243.75 1809.17 2246.34L1799.64 2289.58 1794.13 2289.58 1782.3 2254.81C1780.86 2250.65 1779.61 2246.5 1778.53 2242.37L1778 2242.37C1777.84 2243.75 1777.39 2246.37 1776.66 2250.25 1775.93 2254.13 1775.16 2257.92 1774.35 2261.62L1770.79 2277.79C1770.22 2280.36 1769.93 2282.46 1769.93 2284.11 1769.93 2285.33 1770.24 2286.19 1770.85 2286.69 1771.45 2287.18 1772.47 2287.49 1773.91 2287.6L1773.46 2289.58 1759.28 2289.58 1759.72 2287.6C1760.75 2287.43 1761.52 2287.17 1762.03 2286.81 1762.55 2286.44 1762.98 2285.94 1763.33 2285.29 1763.68 2284.64 1764 2283.85 1764.3 2282.92 1764.6 2281.98 1765.04 2280.18 1765.64 2277.51L1772.53 2246.3C1772.8 2245.14 1773.02 2244.03 1773.18 2242.98 1773.34 2241.92 1773.42 2240.86 1773.42 2239.77 1773.42 2238.5 1773.1 2237.62 1772.47 2237.12 1771.83 2236.62 1770.83 2236.33 1769.45 2236.25Z" fill-rule="evenodd"/><text fill="#000000" fill-opacity="0" font-family="Arial,Arial_MSFontService,sans-serif" font-size="55.3198" x="1759.28" y="2282.67">π‘</text><path d="M1828.13 2267.85C1830.2 2267.85 1831.96 2268.09 1833.42 2268.55 1834.88 2269.02 1836.07 2269.65 1836.98 2270.45 1837.89 2271.24 1838.55 2272.19 1838.96 2273.31 1839.37 2274.42 1839.57 2275.62 1839.57 2276.91 1839.57 2277.68 1839.52 2278.4 1839.41 2279.07 1839.3 2279.73 1839.11 2280.39 1838.84 2281.03 1838.57 2281.68 1838.22 2282.33 1837.78 2282.99 1837.35 2283.64 1836.8 2284.34 1836.15 2285.07 1835.65 2285.71 1835 2286.44 1834.21 2287.27 1833.42 2288.11 1832.55 2289 1831.6 2289.96 1830.66 2290.91 1829.67 2291.9 1828.64 2292.93 1827.61 2293.97 1826.6 2294.99 1825.63 2296 1824.66 2297.01 1823.76 2298 1822.95 2298.95 1822.14 2299.9 1821.47 2300.78 1820.95 2301.57L1831.98 2301.57C1832.91 2301.57 1833.65 2301.54 1834.21 2301.47 1834.77 2301.4 1835.23 2301.24 1835.59 2301.01 1835.96 2300.77 1836.27 2300.41 1836.53 2299.92 1836.79 2299.43 1837.09 2298.76 1837.43 2297.91L1840.2 2297.91C1840.1 2299.32 1840 2300.74 1839.91 2302.17 1839.82 2303.6 1839.73 2305.02 1839.63 2306.43L1814.4 2306.43 1814.4 2304.88C1814.88 2303.81 1815.43 2302.75 1816.07 2301.71 1816.71 2300.66 1817.42 2299.61 1818.21 2298.53 1819.01 2297.46 1819.91 2296.35 1820.93 2295.21 1821.94 2294.07 1823.06 2292.88 1824.29 2291.65 1826.16 2289.79 1827.68 2288.19 1828.85 2286.87 1830.02 2285.55 1830.94 2284.38 1831.62 2283.34 1832.29 2282.31 1832.75 2281.36 1833 2280.48 1833.25 2279.61 1833.38 2278.68 1833.38 2277.68 1833.38 2276.67 1833.23 2275.74 1832.94 2274.88 1832.66 2274.03 1832.24 2273.31 1831.71 2272.71 1831.17 2272.11 1830.49 2271.65 1829.67 2271.31 1828.84 2270.97 1827.89 2270.8 1826.82 2270.8 1824.98 2270.8 1823.43 2271.3 1822.18 2272.31 1820.93 2273.31 1819.95 2274.76 1819.26 2276.67L1815.36 2276.67 1815.36 2270.86C1817.9 2269.81 1820.24 2269.05 1822.37 2268.57 1824.5 2268.09 1826.43 2267.85 1828.13 2267.85Z" fill-rule="evenodd"/><text fill="#000000" fill-opacity="0" font-family="Arial,Arial_MSFontService,sans-serif" font-size="38.5718" x="1814.4" y="2301.6">2</text><path d="M4.51529-0.786828 111.992 615.978 102.961 617.552-4.51529 0.786828ZM129.266 608.316 114.558 657.403 84.1133 616.184Z" transform="matrix(1 0 0 -1 418.5 1830.9)"/><path d="M1.59043-4.29854 726.78 264.016 723.599 272.613-1.59043 4.29854ZM728.842 245.231 763.876 282.628 712.938 288.217Z" transform="matrix(1 0 0 -1 717.5 1027.13)"/><path d="M3.59501-2.84303 215.726 265.397 208.536 271.083-3.59501 2.84303ZM227.263 250.43 237.719 300.595 191.313 278.86Z" transform="matrix(-1 0 0 1 1535.22 872.5)"/><path d="M3.02497-3.44332 611.259 530.892 605.209 537.779-3.02497 3.44332ZM619.916 514.094 639.224 561.561 589.666 548.528Z" transform="matrix(-1 0 0 1 1185.72 1322.5)"/><path d="M1.76606-4.22942 687.268 282.013 683.736 290.472-1.76606 4.22942ZM690.103 263.33 723.567 302.137 672.442 305.624Z" transform="matrix(1 0 0 -1 600.5 2012.64)"/><path d="M602.011 2008.17 1286.63 2247.32 1283.61 2255.97 598.989 2016.83ZM1288.35 2228.5 1324.07 2265.25 1273.24 2271.77Z"/><path d="M0.0758205-4.58271 783.597 8.3806 783.446 17.546-0.0758205 4.58271ZM779.318-10.026 824.766 13.6457 778.56 35.801Z" transform="matrix(-1 0 0 1 1425.27 1998.5)"/><path d="M2003.49 1706.03 2684.17 1857.23 2682.18 1866.18 2001.51 1714.97ZM2683.67 1838.34 2723.44 1870.65 2673.73 1883.08Z"/><path d="M2.15101e-06-4.58333 727.734-4.58299 727.734 4.58367-2.15101e-06 4.58333ZM723.151-22.9163 768.984 0.000360892 723.151 22.917Z" transform="matrix(-1 0 0 1 2670.48 1998.5)"/><path d="M0.862008-4.50154 681.292 125.795 679.568 134.798-0.862008 4.50154ZM680.238 106.927 720.944 138.055 671.618 151.942Z" transform="matrix(1 0 0 -1 2002.5 2265.55)"/></g></svg>