<svg xmlns="http://www.w3.org/2000/svg" width="4406" height="1679" overflow="hidden"><defs><clipPath id="a"><path d="M108 398h4406v1679H108z"/></clipPath></defs><g clip-path="url(#a)" transform="translate(-108 -398)"><path fill="#f8ccb9" d="M326 623h2756v190H326z"/><text fill="#d74514" font-family="Microsoft YaHei,Microsoft YaHei_MSFontService,sans-serif" font-size="83" font-weight="700" transform="translate(1621.91 747)">ζ¶ζ―</text><path fill="#f8ccb9" d="M326 1151h631v190H326z"/><path fill="#d74514" fill-rule="evenodd" d="M588.304 1220.08h19.818l-.608 2.67c-2.107.24-3.161 1.49-3.161 3.73 0 1.43.27 3.35.811 5.75l3.201 14.84 9.281-13.46c1.486-2.13 2.459-3.76 2.918-4.88s.689-2.25.689-3.38q0-1.14-.649-1.77c-.432-.42-1.188-.69-2.269-.83l.608-2.67h16.616l-.608 2.67a5.4 5.4 0 0 0-1.945.87c-.595.42-1.432 1.25-2.513 2.47-1.081 1.23-2.634 3.28-4.661 6.14l-15.684 21.65-2.35 10.61c-.189.79-.324 1.52-.405 2.21s-.122 1.52-.122 2.5c0 1.24.317 2.12.952 2.63s1.628.81 2.979.89l-.567 2.68h-21.52l.567-2.68q1.784-.24 2.837-1.05c.702-.54 1.29-1.35 1.763-2.41.473-1.07.952-2.67 1.439-4.81l2.391-10.98-5.269-22.53c-.405-1.7-.804-3.1-1.195-4.18q-.588-1.62-1.176-2.43c-.391-.54-.776-.92-1.155-1.13q-.567-.33-1.621-.45Z"/><text x="587.696" y="1268.48" fill-opacity="0" font-family="Arial,Arial_MSFontService,sans-serif" font-size="55.32">π’€</text><path fill="#d74514" fill-rule="evenodd" d="M653.845 1254.44q-2.114 0-3.336 1.86c-.814 1.25-1.4 3.09-1.757 5.54-.357 2.46-.536 5.65-.536 9.58 0 4.37.194 7.84.581 10.43q.58 3.87 1.832 5.7 1.251 1.83 3.335 1.83c.755 0 1.415-.18 1.981-.55s1.072-.94 1.519-1.73c.447-.78.829-1.82 1.147-3.13.318-1.3.546-2.91.685-4.85q.209-2.91.209-6.48c0-3.55-.135-6.54-.403-8.96-.268-2.43-.65-4.29-1.146-5.6-.497-1.31-1.083-2.25-1.758-2.8a3.58 3.58 0 0 0-2.353-.84m.179-3.33c4.885 0 8.529 1.66 10.931 4.99 2.403 3.32 3.604 8.41 3.604 15.26 0 7.03-1.276 12.35-3.827 15.95s-6.3 5.41-11.244 5.41c-4.885 0-8.494-1.7-10.827-5.08q-3.5-5.085-3.5-15.36c0-6.87 1.301-12.11 3.902-15.74q3.902-5.43 10.961-5.43"/><text x="639.161" y="1287.52" fill-opacity="0" font-family="Arial,Arial_MSFontService,sans-serif" font-size="41.61">π</text><path fill="#fdefe8" fill-rule="evenodd" d="M476 1886.5c0-91.96 74.321-166.5 166-166.5s166 74.54 166 166.5S733.679 2053 642 2053s-166-74.54-166-166.5"/><path fill="#d74514" fill-rule="evenodd" d="M540.504 1860.65h20.386l-.568 2.68c-1.54.43-2.675 1.18-3.404 2.26-.73 1.09-1.419 3.08-2.067 6l-2.837 12.85h17.184l2.837-12.85q.526-2.385.526-4.74 0-1.695-.79-2.49c-.527-.53-1.385-.87-2.573-1.03l.567-2.68h20.385l-.567 2.68c-1.54.43-2.675 1.18-3.404 2.26-.73 1.09-1.419 3.08-2.067 6l-7.376 33.44a26 26 0 0 0-.406 2.25q-.121.945-.121 2.49c0 1.13.263 1.97.79 2.49.527.53 1.385.87 2.574 1.04l-.568 2.67H558.62l.567-2.67c1.54-.44 2.675-1.19 3.405-2.27q1.094-1.62 2.067-6l3.404-15.48h-17.184l-3.404 15.48c-.189.89-.324 1.65-.405 2.27s-.122 1.44-.122 2.47c0 1.13.264 1.97.79 2.49.527.53 1.385.87 2.574 1.04l-.567 2.67h-20.386l.568-2.67c1.54-.44 2.674-1.19 3.404-2.27q1.094-1.62 2.067-6l7.376-33.44q.527-2.385.527-4.74 0-1.695-.791-2.49c-.526-.53-1.384-.87-2.573-1.03Z"/><text x="529.359" y="1909.06" fill-opacity="0" font-family="Arial,Arial_MSFontService,sans-serif" font-size="55.32">π‘―</text><path fill="#d74514" fill-rule="evenodd" d="M670.468 1895.64q-1.489 0-2.294.06l-7.356 33.48q1.37.12 2.204.12c2.561 0 4.77-.51 6.627-1.52 1.856-1.01 3.505-2.56 4.944-4.63 1.44-2.08 2.572-4.61 3.396-7.6a33.7 33.7 0 0 0 1.236-9.01c0-2.04-.229-3.76-.685-5.15s-1.087-2.51-1.892-3.37a7 7 0 0 0-2.799-1.83c-1.063-.36-2.19-.55-3.381-.55m-13.791-3.48h12.063c3.277 0 5.898.18 7.864.53 1.787.32 3.42.87 4.899 1.64 1.48.78 2.646 1.63 3.5 2.56 1.092 1.15 1.951 2.6 2.577 4.34q.938 2.595.938 6.12 0 3.96-.894 7.59a26.3 26.3 0 0 1-2.636 6.72c-1.161 2.05-2.551 3.82-4.17 5.3s-3.241 2.63-4.87 3.46c-1.628.82-3.465 1.43-5.51 1.81-2.045.39-4.468.58-7.267.58h-14.684l.417-1.96c1.131-.32 1.965-.88 2.501-1.67q.805-1.185 1.519-4.41l5.421-24.57c.259-1.17.388-2.33.388-3.49q0-1.245-.581-1.83c-.387-.38-1.018-.64-1.892-.76Zm-55.059 0h13.88l2.323 24.87 14.118-24.87h13.85l-.417 1.96c-1.132.32-1.966.88-2.502 1.67-.536.8-1.042 2.26-1.519 4.41l-5.421 24.57c-.139.64-.238 1.19-.297 1.66q-.09.69-.09 1.83 0 1.245.581 1.83c.387.39 1.018.64 1.891.76l-.417 1.96h-14.982l.417-1.96c1.132-.32 1.966-.88 2.502-1.67q.804-1.185 1.519-4.41l2.741-12.51a189 189 0 0 1 3.216-12.48h-.595a219 219 0 0 1-3.009 5.33l-13.403 23.21h-4.825l-1.966-17.9c-.457-4.25-.755-7.9-.893-10.94h-.477c-.794 4.91-1.549 8.98-2.264 12.22l-2.889 13.07c-.139.64-.238 1.19-.298 1.66q-.089.69-.089 1.83 0 1.245.581 1.83c.387.39 1.017.64 1.891.76l-.417 1.96h-10.931l.417-1.96c1.132-.32 1.966-.88 2.502-1.67q.804-1.185 1.519-4.41l5.421-24.57c.258-1.17.387-2.33.387-3.49q0-1.245-.581-1.83c-.387-.38-1.017-.64-1.891-.76Zm117.543-1.97h3.277l-.596 9.5h-18.288v10.73a24 24 0 0 1 3.649-.79c1.241-.17 2.765-.26 4.572-.26 2.462 0 4.621.46 6.478 1.37 1.856.92 3.296 2.24 4.319 3.98q1.534 2.61 1.534 6.12c0 4.03-1.336 7.11-4.006 9.25-2.671 2.13-6.509 3.2-11.512 3.2-2.085 0-4.21-.21-6.374-.62-2.165-.42-4.021-.99-5.57-1.7v-7.45h5.391c.496 2.17 1.291 3.78 2.383 4.84q1.638 1.59 4.229 1.59 3.247 0 4.796-2.01 1.548-2.01 1.548-6.21c0-2.76-.665-4.86-1.995-6.31s-3.257-2.17-5.779-2.17c-.972 0-2.02.08-3.142.26q-1.683.27-2.993.66l-2.681-1.67v-20.34h17.603q1.579 0 2.13-.39c.367-.26.71-.78 1.027-1.58"/><text x="593.427" y="1927.9" fill-opacity="0" font-family="Arial,Arial_MSFontService,sans-serif" font-size="43.099">π‘΄π‘«π“</text><path d="m647.083 1341.5.001 338.2h-9.167v-338.2Zm18.334 333.61-22.917 45.84-22.916-45.84Z"/><path fill="none" stroke="#000" stroke-miterlimit="8" stroke-width="9.167" d="m583.5 1571.37 116.875-133.868"/><path fill-rule="evenodd" d="M804.96 1477.63q7.539 0 11.388 3.3c2.567 2.21 3.851 5.4 3.851 9.59 0 1.43-.142 2.75-.426 3.95q-.426 1.8-1.337 3.57c-.608 1.17-1.426 2.43-2.452 3.79a67 67 0 0 1-3.405 4.11c-1.242 1.39-3.39 3.71-6.443 6.95q-7.7 8.145-11.308 14.22h15.279q1.986 0 3.202-.24t1.945-.81a3.94 3.94 0 0 0 1.155-1.48c.284-.61.642-1.55 1.074-2.81h3.445l-.689 11.83h-33.354v-1.95c1.162-2.83 2.729-5.74 4.701-8.71q2.96-4.455 8.389-10.5c3.134-3.45 5.391-6.08 6.768-7.86 1.513-1.94 2.642-3.63 3.385-5.04q1.113-2.13 1.6-4.02c.325-1.25.487-2.52.487-3.79q0-3.03-.973-5.37-.972-2.325-2.979-3.66c-1.337-.89-3.019-1.34-5.045-1.34q-7.58 0-10.213 8.43h-4.904v-7.78c3.269-1.54 6.329-2.66 9.179-3.35 2.851-.68 5.411-1.03 7.68-1.03m-43.122 0h2.229c-.162 2.59-.243 6.19-.243 10.78v34.61c0 1.57.087 2.75.263 3.55.176.79.486 1.44.932 1.94s1.088.89 1.925 1.18c.838.28 1.891.5 3.161.65q1.905.225 5.026.3v2.96h-29.95v-2.96c2.999-.13 5.14-.32 6.424-.55 1.283-.23 2.262-.57 2.938-1.03q1.012-.69 1.479-1.95c.311-.83.466-2.2.466-4.09v-32.87q0-1.62-.567-2.37-.568-.75-1.662-.75c-.864 0-2.094.45-3.688 1.34q-2.39 1.335-5.917 3.69l-1.783-3.12Zm-37.53-2.03h3.161l-.608 9.41h-23.303v17.79c1.405-.6 2.931-1.04 4.58-1.34 1.648-.3 3.296-.44 4.944-.44 3.215 0 6.065.65 8.551 1.96s4.404 3.18 5.755 5.59c1.351 2.42 2.026 5.22 2.026 8.41 0 3.62-.756 6.73-2.269 9.32-1.513 2.6-3.702 4.57-6.566 5.92s-6.254 2.03-10.172 2.03q-7.01 0-14.671-2.88v-8.59h4.904c.811 2.75 2.033 4.78 3.668 6.08 1.634 1.29 3.748 1.94 6.342 1.94q5.39 0 8.146-3.24t2.756-9.69q0-4.29-1.459-7.11c-.973-1.88-2.283-3.23-3.931-4.07q-2.472-1.26-5.755-1.26c-1.837 0-3.418.12-4.742.35s-2.742.58-4.255 1.07l-3.242-1.9v-26.67h22.33c.919 0 1.581-.08 1.986-.22q.608-.225.973-.69t.851-1.77"/><text x="695.736" y="1526.92" fill-opacity="0" font-family="Arial,Arial_MSFontService,sans-serif" font-size="58.643">512</text><path fill="#d74514" fill-rule="evenodd" d="M626.091 1076.69c5.025 0 8.821 1.11 11.388 3.31s3.85 5.39 3.85 9.58c0 1.43-.142 2.75-.426 3.95q-.425 1.815-1.337 3.57c-.608 1.18-1.425 2.44-2.452 3.79a67 67 0 0 1-3.404 4.11c-1.243 1.39-3.391 3.71-6.444 6.95-5.134 5.43-8.903 10.18-11.307 14.23h15.279q1.985 0 3.201-.24c.811-.17 1.459-.44 1.946-.82.486-.37.871-.87 1.155-1.47q.424-.915 1.074-2.82h3.444l-.689 11.83h-33.354v-1.94c1.162-2.84 2.729-5.74 4.702-8.72 1.972-2.97 4.768-6.47 8.389-10.49q4.701-5.19 6.768-7.86c1.513-1.95 2.641-3.63 3.384-5.05s1.276-2.76 1.601-4.01c.324-1.26.486-2.52.486-3.79q0-3.045-.973-5.37c-.648-1.56-1.641-2.78-2.978-3.67s-3.02-1.34-5.046-1.34q-7.579 0-10.213 8.43h-4.904v-7.78c3.269-1.54 6.329-2.65 9.18-3.34s5.41-1.04 7.68-1.04m-43.123 0h2.229c-.162 2.6-.243 6.19-.243 10.79v34.61q0 2.34.263 3.54.264 1.2.932 1.95.67.75 1.925 1.17c.838.29 1.892.5 3.162.65q1.904.225 5.025.3v2.96h-29.95v-2.96q4.499-.195 6.424-.54c1.283-.23 2.263-.58 2.938-1.04s1.169-1.1 1.479-1.94.466-2.2.466-4.09v-32.87q0-1.62-.567-2.37t-1.662-.75c-.864 0-2.093.44-3.688 1.33q-2.39 1.35-5.917 3.69l-1.783-3.12Zm-37.53-2.02h3.161l-.608 9.4h-23.303v17.79a22 22 0 0 1 4.58-1.34c1.648-.29 3.296-.44 4.944-.44 3.215 0 6.066.65 8.551 1.96 2.486 1.32 4.404 3.18 5.755 5.6s2.027 5.22 2.027 8.41c0 3.62-.757 6.72-2.27 9.32-1.513 2.59-3.701 4.56-6.565 5.92-2.864 1.35-6.255 2.02-10.173 2.02q-7.011 0-14.67-2.88v-8.59h4.903c.811 2.76 2.033 4.78 3.668 6.08q2.452 1.95 6.343 1.95c3.593 0 6.308-1.08 8.146-3.25 1.837-2.16 2.755-5.39 2.755-9.68q0-4.305-1.459-7.11-1.458-2.82-3.931-4.08c-1.648-.83-3.566-1.25-5.755-1.25-1.837 0-3.417.11-4.741.34q-1.986.345-4.256 1.08l-3.242-1.91v-26.67h22.331c.918 0 1.58-.07 1.986-.22q.608-.225.972-.69c.243-.31.527-.9.851-1.76"/><text x="516.867" y="1125.98" fill-opacity="0" font-family="Arial,Arial_MSFontService,sans-serif" font-size="58.643">512</text><path fill="#d74514" fill-rule="evenodd" d="M694.868 1098.01c-1.297 0-2.573.41-3.83 1.24-1.256.82-2.654 2.19-4.194 4.09-1.54 1.91-2.797 3.86-3.769 5.86-.973 2-1.797 4.55-2.472 7.66l-.365 1.7a26.3 26.3 0 0 0-.608 5.51q0 3.21 1.398 4.62c.932.95 2.479 1.42 4.641 1.42 1.107 0 2.161-.18 3.161-.55q1.499-.54 3.06-1.8t2.958-3.3c.932-1.37 1.79-3.05 2.574-5.05q1.175-3 1.823-6.42c.433-2.29.649-4.47.649-6.55 0-2.81-.399-4.92-1.196-6.32-.797-1.41-2.074-2.11-3.83-2.11m33.572-4.46h2.391l-5.836 26.02q-.892 3.975-.892 6c0 1.08.176 1.87.527 2.35.351.49.905.73 1.662.73q1.215 0 2.593-.99c.919-.66 2.216-1.93 3.891-3.79l2.31 2.27q-3.972 4.17-6.444 5.67t-5.552 1.5q-2.634 0-4.215-1.92c-1.054-1.29-1.58-2.93-1.58-4.93q0-3.075 1.134-7.86l3.04-13.25c.621-2.7.932-4.73.932-6.08 0-1.22-.29-2.04-.871-2.47-.581-.44-1.723-.68-3.425-.73l.446-2.15Zm25.027-9.64h5.593l-2.229 10.01h12.32l-.892 4.09h-12.32l-3.607 15.73c-.702 3.05-1.148 5.25-1.337 6.58-.189 1.34-.284 2.41-.284 3.22 0 3.35 1.391 5.03 4.174 5.03 1.189 0 2.452-.45 3.79-1.36 1.337-.9 2.924-2.45 4.762-4.64l2.35 2.43c-2.35 2.84-4.613 4.93-6.788 6.29-2.175 1.35-4.451 2.02-6.829 2.02q-8.47 0-8.47-8.55c0-1.81.23-3.71.689-5.71l4.782-21.04h-6.809l.608-2.79c1.594-.03 2.803-.15 3.628-.37.824-.22 1.513-.51 2.066-.89q.831-.57 1.52-1.62.688-1.05 1.338-2.7.648-1.635 1.945-5.73m-26.122-5.88h7.174l-1.865 7.86h-7.173Zm-39.569-3.32h2.351l-7.133 28.37.527.16q3.93-5.265 7.376-7.62c2.296-1.57 4.593-2.35 6.889-2.35q4.418 0 6.87 3.36c1.634 2.25 2.452 5.41 2.452 9.49 0 4.46-.899 8.84-2.696 13.15-1.796 4.31-4.289 7.73-7.477 10.25-3.188 2.53-6.754 3.79-10.699 3.79-3.593 0-6.782-.88-9.564-2.63l-3.729 2.63-2.594-.65 10.497-46.32c.621-2.76.932-4.75.932-6 0-1.13-.345-1.93-1.033-2.39-.689-.46-1.926-.71-3.709-.77l.487-2.11Z"/><text x="670.349" y="1125.99" fill-opacity="0" font-family="Arial,Arial_MSFontService,sans-serif" font-size="58.602">π‘π‘–π‘΅</text><path fill="#d74514" d="M808.5 1098.92h106.702v9.16H808.5Zm102.119-18.34 45.833 22.92-45.834 22.92Zm-434.889 18.337H367.75v9.167h107.98Zm-103.397-18.333L326.5 1103.5l45.833 22.917Z"/><path d="M108.5 1881.92h326.79v9.16H108.5Zm322.207-18.34 45.833 22.92-45.833 22.92Z"/><path fill="none" stroke="#000" stroke-miterlimit="8" stroke-width="9.167" d="m268.5 1954.37 116.875-133.868"/><path fill-rule="evenodd" d="M381.383 1762.19q-2.999 0-5.046.93c-1.364.62-2.472 1.46-3.323 2.51s-1.459 2.29-1.824 3.71q-.547 2.13-.547 4.56c0 1.75.203 3.4.608 4.92.405 1.53 1.047 2.85 1.925 3.95q1.317 1.665 3.384 2.64c1.378.65 3.053.97 5.026.97 2.215 0 4.113-.45 5.694-1.36 1.58-.9 2.782-2.25 3.607-4.03.824-1.78 1.236-3.89 1.236-6.32 0-2.6-.446-4.83-1.338-6.71-.891-1.88-2.148-3.31-3.769-4.3q-2.432-1.47-5.633-1.47m.203-25.54c-3.405 0-6.005.93-7.802 2.78s-2.695 4.48-2.695 7.88q0 2.4.567 4.5c.379 1.41.986 2.62 1.824 3.65.838 1.02 1.925 1.84 3.263 2.45s2.978.91 4.924.91q3.364 0 5.653-1.32c1.527-.87 2.661-2.16 3.404-3.85.743-1.68 1.115-3.64 1.115-5.85q0-3.645-1.317-6.18t-3.627-3.75c-1.54-.81-3.31-1.22-5.309-1.22m.081-3.44c3.89 0 7.159.55 9.807 1.64q3.972 1.635 5.978 4.74t2.006 7.44q0 4.455-2.188 7.68t-6.768 5.25l.081.52c3.053 1.19 5.363 2.93 6.93 5.21q2.35 3.42 2.35 8.25c0 3.16-.756 5.94-2.269 8.35-1.513 2.4-3.708 4.26-6.586 5.57-2.877 1.31-6.234 1.97-10.071 1.97-3.593 0-6.748-.61-9.463-1.81s-4.823-2.96-6.322-5.27q-2.25-3.465-2.25-8.16 0-3.525 1.216-6.12c.811-1.73 1.871-3.16 3.182-4.28q1.965-1.68 4.964-3.06l-.081-.53c-5.809-2.51-8.713-6.82-8.713-12.92 0-2.79.763-5.27 2.29-7.46 1.526-2.19 3.701-3.9 6.525-5.15q4.234-1.86 9.382-1.86m-45.96 0q7.539 0 11.388 3.3c2.567 2.2 3.85 5.4 3.85 9.59 0 1.43-.141 2.75-.425 3.95s-.73 2.39-1.338 3.56c-.607 1.18-1.425 2.44-2.451 3.79a68 68 0 0 1-3.405 4.12c-1.243 1.39-3.391 3.71-6.444 6.95q-7.7 8.145-11.307 14.22h15.279q1.986 0 3.202-.24t1.945-.81a3.96 3.96 0 0 0 1.155-1.48q.426-.915 1.074-2.82h3.445l-.689 11.84h-33.354v-1.95c1.162-2.84 2.729-5.74 4.701-8.71q2.958-4.455 8.389-10.5 4.701-5.19 6.768-7.86c1.513-1.95 2.641-3.63 3.384-5.05.743-1.41 1.277-2.75 1.601-4.01s.487-2.52.487-3.79q0-3.03-.973-5.37c-.649-1.55-1.641-2.77-2.979-3.67-1.337-.89-3.019-1.33-5.046-1.33q-7.578 0-10.212 8.43h-4.904v-7.78c3.269-1.54 6.329-2.66 9.179-3.35s5.411-1.03 7.68-1.03m-43.122 0h2.229c-.163 2.59-.244 6.19-.244 10.78v34.61c0 1.57.088 2.75.264 3.55.175.79.486 1.44.932 1.94s1.087.89 1.925 1.18c.838.28 1.891.5 3.161.64 1.27.15 2.945.25 5.026.31v2.96h-29.95v-2.96c2.999-.14 5.14-.32 6.423-.55s2.263-.57 2.939-1.03q1.012-.69 1.479-1.95c.311-.84.466-2.2.466-4.09v-32.87q0-1.62-.567-2.37-.568-.75-1.662-.75c-.865 0-2.094.45-3.688 1.34q-2.39 1.335-5.917 3.69l-1.783-3.12Z"/><text x="273.618" y="1782.75" fill-opacity="0" font-family="Arial,Arial_MSFontService,sans-serif" font-size="56.617">128</text><path fill-rule="evenodd" d="M328.595 1976.92h16.779l-.446 1.98c-1.189.14-2.114.49-2.776 1.06q-.993.84-1.399 2.37c-.27 1.01-.405 2.37-.405 4.07 0 .41.041 1.62.122 3.65l1.135 29.66v3.25h.405l17.548-31.66q1.54-2.79 2.31-4.8t.77-3.54c0-2.27-1.351-3.63-4.053-4.06l.446-1.98h16.576l-.446 1.98c-.729.11-1.425.39-2.087.83-.662.45-1.405 1.19-2.229 2.23s-2.101 3.05-3.83 6.02l-25.937 44.91h-5.39l-2.716-45.19c-.108-1.76-.304-3.27-.587-4.52q-.426-1.89-1.338-2.94c-.608-.7-1.574-1.15-2.898-1.34Zm-23.367 0h16.211l-.446 1.98c-1.027.22-1.763.46-2.209.73s-.844.68-1.196 1.22c-.351.54-.716 1.38-1.094 2.53q-.567 1.725-1.418 5.61l-6.93 31.45c-.352 1.6-.581 2.86-.689 3.79s-.163 1.78-.163 2.54c0 1.21.304 2.07.912 2.57s1.628.8 3.06.91l-.446 1.99h-16.211l.446-1.99c1.027-.16 1.797-.42 2.31-.79.514-.36.946-.87 1.297-1.52q.527-.975.973-2.37c.297-.93.743-2.74 1.337-5.41l6.89-31.21c.594-2.7.891-4.87.891-6.52 0-1.27-.317-2.16-.952-2.66q-.952-.75-3.019-.87Z"/><text x="294.609" y="2025.89" fill-opacity="0" font-family="Arial,Arial_MSFontService,sans-serif" font-size="55.968">πΌπ‘‰</text><path fill="#f8ccb9" d="M974 1151h630v190H974z"/><path fill="#d74514" fill-rule="evenodd" d="M1235.96 1220.08h19.82l-.61 2.67c-2.11.24-3.16 1.49-3.16 3.73 0 1.43.27 3.35.81 5.75l3.2 14.84 9.28-13.46c1.49-2.13 2.46-3.76 2.92-4.88s.69-2.25.69-3.38c0-.76-.22-1.35-.65-1.77s-1.19-.69-2.27-.83l.61-2.67h16.61l-.6 2.67c-.71.16-1.35.45-1.95.87-.59.42-1.43 1.25-2.51 2.47-1.08 1.23-2.64 3.28-4.66 6.14l-15.69 21.65-2.35 10.61c-.19.79-.32 1.52-.4 2.21s-.12 1.52-.12 2.5c0 1.24.31 2.12.95 2.63.63.51 1.63.81 2.98.89l-.57 2.68h-21.52l.57-2.68c1.19-.16 2.13-.51 2.83-1.05.71-.54 1.29-1.35 1.77-2.41.47-1.07.95-2.67 1.44-4.81l2.39-10.98-5.27-22.53c-.41-1.7-.8-3.1-1.2-4.18q-.585-1.62-1.17-2.43c-.39-.54-.78-.92-1.16-1.13q-.57-.33-1.62-.45Z"/><text x="1235.35" y="1268.48" fill-opacity="0" font-family="Arial,Arial_MSFontService,sans-serif" font-size="55.32">π’€</text><path fill="#d74514" fill-rule="evenodd" d="M1303.71 1251.11h3.81q-.18 2.85-.18 7.92v24.9c0 1.15.06 2.02.19 2.61.13.58.36 1.06.69 1.43.33.36.8.65 1.41.86.62.21 1.39.37 2.33.48.93.11 2.16.18 3.69.22v2.71h-25.71v-2.71c2.21-.1 3.78-.23 4.73-.4.94-.17 1.66-.42 2.15-.76.5-.34.86-.82 1.09-1.43.23-.62.34-1.62.34-3.01v-21.53c0-.82-.15-1.4-.46-1.76q-.465-.54-1.26-.54-.75 0-2.1.69c-.91.45-2.39 1.39-4.46 2.8l-1.81-3.16Z"/><text x="1288.16" y="1287.1" fill-opacity="0" font-family="Arial,Arial_MSFontService,sans-serif" font-size="41.133">π</text><path fill="#fdefe8" fill-rule="evenodd" d="M1123 1886.5c0-91.96 74.32-166.5 166-166.5s166 74.54 166 166.5-74.32 166.5-166 166.5-166-74.54-166-166.5"/><path fill="#d74514" fill-rule="evenodd" d="M1188.16 1860.65h20.39l-.57 2.68c-1.54.43-2.68 1.18-3.41 2.26-.73 1.09-1.41 3.08-2.06 6l-2.84 12.85h17.18l2.84-12.85c.35-1.59.53-3.17.53-4.74 0-1.13-.27-1.96-.79-2.49-.53-.53-1.39-.87-2.58-1.03l.57-2.68h20.39l-.57 2.68c-1.54.43-2.68 1.18-3.41 2.26-.73 1.09-1.41 3.08-2.06 6l-7.38 33.44c-.19.86-.32 1.61-.4 2.25-.08.63-.13 1.46-.13 2.49 0 1.13.27 1.97.79 2.49.53.53 1.39.87 2.58 1.04l-.57 2.67h-20.38l.56-2.67c1.54-.44 2.68-1.19 3.41-2.27s1.42-3.08 2.06-6l3.41-15.48h-17.19l-3.4 15.48c-.19.89-.32 1.65-.4 2.27-.09.62-.13 1.44-.13 2.47 0 1.13.27 1.97.79 2.49.53.53 1.39.87 2.58 1.04l-.57 2.67h-20.39l.57-2.67c1.54-.44 2.68-1.19 3.41-2.27s1.42-3.08 2.06-6l7.38-33.44c.35-1.59.53-3.17.53-4.74 0-1.13-.27-1.96-.79-2.49-.53-.53-1.39-.87-2.58-1.03Z"/><text x="1177.01" y="1909.06" fill-opacity="0" font-family="Arial,Arial_MSFontService,sans-serif" font-size="55.32">π‘―</text><path fill="#d74514" fill-rule="evenodd" d="M1318.12 1895.64c-.99 0-1.75.02-2.29.06l-7.36 33.48c.92.08 1.65.12 2.21.12 2.56 0 4.77-.51 6.62-1.52 1.86-1.01 3.51-2.56 4.95-4.63 1.44-2.08 2.57-4.61 3.39-7.6.83-2.98 1.24-5.99 1.24-9.01 0-2.04-.23-3.76-.68-5.15-.46-1.39-1.09-2.51-1.9-3.37a6.9 6.9 0 0 0-2.8-1.83c-1.06-.36-2.18-.55-3.38-.55m-13.79-3.48h12.07c3.27 0 5.89.18 7.86.53 1.79.32 3.42.87 4.9 1.64 1.48.78 2.64 1.63 3.5 2.56 1.09 1.15 1.95 2.6 2.58 4.34q.93 2.595.93 6.12c0 2.64-.29 5.17-.89 7.59-.6 2.43-1.47 4.66-2.64 6.72-1.16 2.05-2.55 3.82-4.17 5.3-1.61 1.48-3.24 2.63-4.87 3.46-1.62.82-3.46 1.43-5.51 1.81-2.04.39-4.46.58-7.26.58h-14.69l.42-1.96c1.13-.32 1.97-.88 2.5-1.67.54-.79 1.04-2.26 1.52-4.41l5.42-24.57c.26-1.17.39-2.33.39-3.49 0-.83-.2-1.44-.58-1.83-.39-.38-1.02-.64-1.89-.76Zm-55.06 0h13.88l2.33 24.87 14.11-24.87h13.85l-.41 1.96c-1.13.32-1.97.88-2.5 1.67-.54.8-1.05 2.26-1.52 4.41l-5.42 24.57c-.14.64-.24 1.19-.3 1.66q-.09.69-.09 1.83c0 .83.19 1.44.58 1.83s1.02.64 1.89.76l-.42 1.96h-14.98l.42-1.96c1.13-.32 1.96-.88 2.5-1.67s1.04-2.26 1.52-4.41l2.74-12.51c.91-4.13 1.99-8.29 3.22-12.48h-.6c-.93 1.71-1.93 3.49-3.01 5.33l-13.4 23.21h-4.83l-1.96-17.9c-.46-4.25-.76-7.9-.89-10.94h-.48c-.8 4.91-1.55 8.98-2.27 12.22l-2.88 13.07c-.14.64-.24 1.19-.3 1.66q-.09.69-.09 1.83c0 .83.19 1.44.58 1.83s1.02.64 1.89.76l-.42 1.96h-10.93l.42-1.96c1.13-.32 1.97-.88 2.5-1.67.54-.79 1.04-2.26 1.52-4.41l5.42-24.57c.26-1.17.39-2.33.39-3.49 0-.83-.19-1.44-.58-1.83-.39-.38-1.02-.64-1.89-.76Zm117.55-1.97h3.27l-.59 9.5h-18.29v10.73c1.19-.36 2.41-.62 3.65-.79s2.76-.26 4.57-.26c2.46 0 4.62.46 6.48 1.37 1.86.92 3.29 2.24 4.32 3.98q1.53 2.61 1.53 6.12c0 4.03-1.33 7.11-4 9.25-2.68 2.13-6.51 3.2-11.52 3.2-2.08 0-4.21-.21-6.37-.62-2.17-.42-4.02-.99-5.57-1.7v-7.45h5.39c.5 2.17 1.29 3.78 2.38 4.84q1.65 1.59 4.23 1.59 3.255 0 4.8-2.01c1.03-1.34 1.55-3.41 1.55-6.21 0-2.76-.67-4.86-2-6.31s-3.25-2.17-5.78-2.17c-.97 0-2.02.08-3.14.26s-2.12.4-2.99.66l-2.68-1.67v-20.34h17.6q1.575 0 2.13-.39c.37-.26.71-.78 1.03-1.58"/><text x="1241.08" y="1927.9" fill-opacity="0" font-family="Arial,Arial_MSFontService,sans-serif" font-size="43.099">π‘΄π‘«π“</text><path d="M1294.08 1341.5v338.2h-9.16v-338.2Zm18.34 333.61-22.92 45.84-22.92-45.84Z"/><path fill="none" stroke="#000" stroke-miterlimit="8" stroke-width="9.167" d="m1231.5 1571.37 116.875-133.868"/><path fill-rule="evenodd" d="M1452.62 1477.63c5.02 0 8.82 1.1 11.38 3.3 2.57 2.21 3.85 5.4 3.85 9.59 0 1.43-.14 2.75-.42 3.95-.29 1.2-.73 2.39-1.34 3.57-.61 1.17-1.42 2.43-2.45 3.79a66 66 0 0 1-3.41 4.11c-1.24 1.39-3.39 3.71-6.44 6.95q-7.695 8.145-11.31 14.22h15.28c1.33 0 2.39-.08 3.2-.24.82-.16 1.46-.43 1.95-.81s.87-.87 1.15-1.48c.29-.61.65-1.55 1.08-2.81h3.44l-.69 11.83h-33.35v-1.95c1.16-2.83 2.73-5.74 4.7-8.71s4.77-6.47 8.39-10.5c3.14-3.45 5.39-6.08 6.77-7.86 1.51-1.94 2.64-3.63 3.38-5.04.75-1.42 1.28-2.76 1.6-4.02.33-1.25.49-2.52.49-3.79 0-2.02-.32-3.81-.97-5.37-.65-1.55-1.64-2.77-2.98-3.66s-3.02-1.34-5.05-1.34c-5.05 0-8.45 2.81-10.21 8.43h-4.9v-7.78c3.27-1.54 6.33-2.66 9.18-3.35 2.85-.68 5.41-1.03 7.68-1.03m-43.13 0h2.23c-.16 2.59-.24 6.19-.24 10.78v34.61c0 1.57.09 2.75.26 3.55.18.79.49 1.44.93 1.94.45.5 1.09.89 1.93 1.18.84.28 1.89.5 3.16.65s2.95.25 5.03.3v2.96h-29.95v-2.96c3-.13 5.14-.32 6.42-.55s2.26-.57 2.94-1.03c.67-.46 1.17-1.11 1.48-1.95.31-.83.46-2.2.46-4.09v-32.87c0-1.08-.19-1.87-.56-2.37-.38-.5-.94-.75-1.67-.75-.86 0-2.09.45-3.68 1.34-1.6.89-3.57 2.12-5.92 3.69l-1.78-3.12Zm-37.53-2.03h3.16l-.6 9.41h-23.31v17.79c1.41-.6 2.94-1.04 4.58-1.34 1.65-.3 3.3-.44 4.95-.44 3.21 0 6.06.65 8.55 1.96 2.48 1.31 4.4 3.18 5.75 5.59 1.35 2.42 2.03 5.22 2.03 8.41 0 3.62-.76 6.73-2.27 9.32-1.51 2.6-3.7 4.57-6.57 5.92-2.86 1.35-6.25 2.03-10.17 2.03q-7.005 0-14.67-2.88v-8.59h4.91c.81 2.75 2.03 4.78 3.66 6.08 1.64 1.29 3.75 1.94 6.35 1.94 3.59 0 6.3-1.08 8.14-3.24q2.76-3.24 2.76-9.69c0-2.86-.49-5.23-1.46-7.11s-2.28-3.23-3.93-4.07q-2.475-1.26-5.76-1.26c-1.83 0-3.42.12-4.74.35s-2.74.58-4.25 1.07l-3.25-1.9v-26.67h22.33c.92 0 1.58-.08 1.99-.22.41-.15.73-.38.97-.69.25-.31.53-.9.85-1.77"/><text x="1343.39" y="1526.92" fill-opacity="0" font-family="Arial,Arial_MSFontService,sans-serif" font-size="58.643">512</text><path fill="#d74514" fill-rule="evenodd" d="M1273.75 1076.69c5.02 0 8.82 1.11 11.38 3.31 2.57 2.2 3.85 5.39 3.85 9.58 0 1.43-.14 2.75-.42 3.95-.28 1.21-.73 2.4-1.34 3.57-.61 1.18-1.42 2.44-2.45 3.79a70 70 0 0 1-3.4 4.11c-1.25 1.39-3.4 3.71-6.45 6.95-5.13 5.43-8.9 10.18-11.31 14.23h15.28c1.33 0 2.39-.08 3.2-.24.82-.17 1.46-.44 1.95-.82.49-.37.87-.87 1.16-1.47.28-.61.64-1.55 1.07-2.82h3.44l-.68 11.83h-33.36v-1.94c1.16-2.84 2.73-5.74 4.7-8.72 1.97-2.97 4.77-6.47 8.39-10.49 3.14-3.46 5.39-6.08 6.77-7.86 1.51-1.95 2.64-3.63 3.38-5.05.75-1.42 1.28-2.76 1.6-4.01.33-1.26.49-2.52.49-3.79 0-2.03-.32-3.82-.97-5.37-.65-1.56-1.64-2.78-2.98-3.67s-3.02-1.34-5.05-1.34c-5.05 0-8.45 2.81-10.21 8.43h-4.9v-7.78c3.27-1.54 6.33-2.65 9.18-3.34s5.41-1.04 7.68-1.04m-43.13 0h2.23c-.16 2.6-.24 6.19-.24 10.79v34.61c0 1.56.09 2.74.26 3.54.18.8.49 1.45.94 1.95q.66.75 1.92 1.17c.84.29 1.89.5 3.16.65s2.95.25 5.03.3v2.96h-29.95v-2.96q4.5-.195 6.42-.54c1.28-.23 2.26-.58 2.94-1.04.67-.46 1.17-1.1 1.48-1.94s.46-2.2.46-4.09v-32.87c0-1.08-.19-1.87-.56-2.37-.38-.5-.94-.75-1.66-.75-.87 0-2.1.44-3.69 1.33-1.6.9-3.57 2.13-5.92 3.69l-1.78-3.12Zm-37.53-2.02h3.17l-.61 9.4h-23.31v17.79a22.2 22.2 0 0 1 4.58-1.34c1.65-.29 3.3-.44 4.95-.44 3.21 0 6.06.65 8.55 1.96 2.48 1.32 4.4 3.18 5.75 5.6s2.03 5.22 2.03 8.41c0 3.62-.76 6.72-2.27 9.32-1.51 2.59-3.7 4.56-6.56 5.92-2.87 1.35-6.26 2.02-10.18 2.02q-7.005 0-14.67-2.88v-8.59h4.91c.81 2.76 2.03 4.78 3.66 6.08 1.64 1.3 3.75 1.95 6.35 1.95 3.59 0 6.3-1.08 8.14-3.25 1.84-2.16 2.76-5.39 2.76-9.68 0-2.87-.49-5.24-1.46-7.11q-1.455-2.82-3.93-4.08c-1.65-.83-3.57-1.25-5.76-1.25-1.83 0-3.41.11-4.74.34-1.32.23-2.74.59-4.25 1.08l-3.25-1.91v-26.67h22.33c.92 0 1.58-.07 1.99-.22s.73-.38.97-.69c.25-.31.53-.9.85-1.76"/><text x="1164.52" y="1125.98" fill-opacity="0" font-family="Arial,Arial_MSFontService,sans-serif" font-size="58.643">512</text><path fill="#d74514" fill-rule="evenodd" d="M1342.52 1098.01c-1.29 0-2.57.41-3.83 1.24-1.25.82-2.65 2.19-4.19 4.09-1.54 1.91-2.8 3.86-3.77 5.86s-1.8 4.55-2.47 7.66l-.37 1.7c-.4 1.89-.6 3.73-.6 5.51 0 2.14.46 3.68 1.39 4.62.94.95 2.48 1.42 4.64 1.42 1.11 0 2.17-.18 3.17-.55.99-.36 2.02-.96 3.06-1.8s2.02-1.94 2.95-3.3c.94-1.37 1.79-3.05 2.58-5.05.78-2 1.39-4.14 1.82-6.42.43-2.29.65-4.47.65-6.55 0-2.81-.4-4.92-1.2-6.32-.79-1.41-2.07-2.11-3.83-2.11m33.58-4.46h2.39l-5.84 26.02c-.59 2.65-.89 4.65-.89 6 0 1.08.17 1.87.53 2.35.35.49.9.73 1.66.73.81 0 1.67-.33 2.59-.99s2.22-1.93 3.89-3.79l2.31 2.27c-2.65 2.78-4.79 4.67-6.44 5.67q-2.475 1.5-5.55 1.5c-1.76 0-3.17-.64-4.22-1.92-1.05-1.29-1.58-2.93-1.58-4.93 0-2.05.38-4.67 1.13-7.86l3.04-13.25c.63-2.7.94-4.73.94-6.08 0-1.22-.29-2.04-.87-2.47-.59-.44-1.73-.68-3.43-.73l.45-2.15Zm25.02-9.64h5.6l-2.23 10.01h12.32l-.89 4.09h-12.33l-3.6 15.73c-.7 3.05-1.15 5.25-1.34 6.58-.19 1.34-.28 2.41-.28 3.22 0 3.35 1.39 5.03 4.17 5.03 1.19 0 2.45-.45 3.79-1.36 1.34-.9 2.93-2.45 4.76-4.64l2.35 2.43c-2.35 2.84-4.61 4.93-6.79 6.29-2.17 1.35-4.45 2.02-6.82 2.02-5.65 0-8.47-2.85-8.47-8.55 0-1.81.23-3.71.68-5.71l4.79-21.04h-6.81l.61-2.79c1.59-.03 2.8-.15 3.62-.37.83-.22 1.52-.51 2.07-.89s1.06-.92 1.52-1.62.9-1.6 1.34-2.7c.43-1.09 1.08-3 1.94-5.73m-26.12-5.88h7.17l-1.86 7.86h-7.17Zm-39.57-3.32h2.35l-7.13 28.37.53.16c2.62-3.51 5.08-6.05 7.37-7.62 2.3-1.57 4.6-2.35 6.89-2.35q4.425 0 6.87 3.36c1.64 2.25 2.45 5.41 2.45 9.49 0 4.46-.9 8.84-2.69 13.15-1.8 4.31-4.29 7.73-7.48 10.25-3.19 2.53-6.75 3.79-10.7 3.79-3.59 0-6.78-.88-9.56-2.63l-3.73 2.63-2.6-.65 10.5-46.32c.62-2.76.93-4.75.93-6 0-1.13-.34-1.93-1.03-2.39s-1.92-.71-3.71-.77l.49-2.11Z"/><text x="1318" y="1125.99" fill-opacity="0" font-family="Arial,Arial_MSFontService,sans-serif" font-size="58.602">π‘π‘–π‘΅</text><path fill="#d74514" d="M1455.5 1098.92h106.7v9.16h-106.7Zm102.12-18.34 45.83 22.92-45.83 22.92Zm-433.89 18.337h-107.98v9.167h107.98Zm-103.397-18.333L974.5 1103.5l45.833 22.917Z"/><path d="M808.5 1881.92h274.48v9.16H808.5Zm269.89-18.34 45.84 22.92-45.84 22.92Z"/><path fill="none" stroke="#000" stroke-miterlimit="8" stroke-width="9.167" d="m916.5 1954.37 116.875-133.868"/><path fill-rule="evenodd" d="M1029.04 1762.19c-2 0-3.68.31-5.05.93-1.36.62-2.47 1.46-3.32 2.51s-1.46 2.29-1.82 3.71c-.37 1.42-.55 2.94-.55 4.56 0 1.75.2 3.4.61 4.92.4 1.53 1.04 2.85 1.92 3.95q1.32 1.665 3.39 2.64c1.37.65 3.05.97 5.02.97 2.22 0 4.11-.45 5.7-1.36 1.58-.9 2.78-2.25 3.6-4.03.83-1.78 1.24-3.89 1.24-6.32 0-2.6-.45-4.83-1.34-6.71s-2.15-3.31-3.77-4.3c-1.62-.98-3.5-1.47-5.63-1.47m.2-25.54c-3.4 0-6 .93-7.8 2.78s-2.7 4.48-2.7 7.88q0 2.4.57 4.5c.38 1.41.99 2.62 1.83 3.65.83 1.02 1.92 1.84 3.26 2.45s2.98.91 4.92.91c2.24 0 4.13-.44 5.66-1.32 1.52-.87 2.66-2.16 3.4-3.85.74-1.68 1.11-3.64 1.11-5.85 0-2.43-.43-4.49-1.31-6.18q-1.32-2.535-3.63-3.75c-1.54-.81-3.31-1.22-5.31-1.22m.08-3.44c3.89 0 7.16.55 9.81 1.64s4.64 2.67 5.98 4.74c1.33 2.07 2 4.55 2 7.44 0 2.97-.73 5.53-2.18 7.68-1.46 2.15-3.72 3.9-6.77 5.25l.08.52c3.05 1.19 5.36 2.93 6.93 5.21s2.35 5.03 2.35 8.25c0 3.16-.76 5.94-2.27 8.35-1.51 2.4-3.71 4.26-6.59 5.57-2.87 1.31-6.23 1.97-10.07 1.97-3.59 0-6.75-.61-9.46-1.81-2.72-1.2-4.82-2.96-6.32-5.27q-2.25-3.465-2.25-8.16c0-2.35.4-4.39 1.21-6.12s1.87-3.16 3.19-4.28c1.31-1.12 2.96-2.14 4.96-3.06l-.08-.53c-5.81-2.51-8.71-6.82-8.71-12.92 0-2.79.76-5.27 2.29-7.46 1.52-2.19 3.7-3.9 6.52-5.15 2.82-1.24 5.95-1.86 9.38-1.86m-45.957 0q7.537 0 11.388 3.3c2.567 2.2 3.85 5.4 3.85 9.59 0 1.43-.142 2.75-.426 3.95-.283 1.2-.729 2.39-1.337 3.56-.608 1.18-1.425 2.44-2.452 3.79a68 68 0 0 1-3.404 4.12c-1.243 1.39-3.391 3.71-6.444 6.95q-7.7 8.145-11.307 14.22h15.279q1.986 0 3.201-.24t1.946-.81a3.96 3.96 0 0 0 1.155-1.48q.424-.915 1.074-2.82h3.445l-.689 11.84h-33.354v-1.95c1.161-2.84 2.728-5.74 4.701-8.71q2.958-4.455 8.389-10.5 4.701-5.19 6.768-7.86c1.513-1.95 2.641-3.63 3.384-5.05.743-1.41 1.277-2.75 1.601-4.01s.486-2.52.486-3.79q0-3.03-.973-5.37c-.648-1.55-1.641-2.77-2.978-3.67-1.338-.89-3.02-1.33-5.046-1.33q-7.579 0-10.213 8.43h-4.904v-7.78c3.27-1.54 6.329-2.66 9.18-3.35s5.41-1.03 7.68-1.03m-43.123 0h2.229c-.162 2.59-.243 6.19-.243 10.78v34.61c0 1.57.088 2.75.263 3.55.176.79.487 1.44.933 1.94.445.5 1.087.89 1.925 1.18.837.28 1.891.5 3.161.64 1.27.15 2.945.25 5.025.31v2.96h-29.95v-2.96c2.999-.14 5.141-.32 6.424-.55s2.263-.57 2.938-1.03q1.014-.69 1.479-1.95c.311-.84.467-2.2.467-4.09v-32.87q0-1.62-.568-2.37-.567-.75-1.661-.75c-.865 0-2.094.45-3.688 1.34q-2.392 1.335-5.917 3.69l-1.784-3.12Z"/><text x="921.273" y="1782.75" fill-opacity="0" font-family="Arial,Arial_MSFontService,sans-serif" font-size="56.617">128</text><path fill-rule="evenodd" d="M972.924 1976.92h16.778l-.446 1.98c-1.188.14-2.114.49-2.776 1.06q-.993.84-1.398 2.37c-.27 1.01-.405 2.37-.405 4.07 0 .41.04 1.62.121 3.65l1.135 29.66v3.25h.405l17.552-31.66q1.53-2.79 2.31-4.8c.51-1.34.77-2.52.77-3.54 0-2.27-1.35-3.63-4.06-4.06l.45-1.98h16.58l-.45 1.98c-.73.11-1.43.39-2.09.83-.66.45-1.4 1.19-2.23 2.23-.82 1.04-2.1 3.05-3.83 6.02l-25.934 44.91h-5.39l-2.715-45.19c-.108-1.76-.304-3.27-.588-4.52q-.426-1.89-1.337-2.94c-.608-.7-1.574-1.15-2.898-1.34Zm-18.807-.65c2.458 0 4.735.15 6.829.44 2.093.3 4.424.84 6.991 1.63l-2.432 10.98h-3.891c-.216-3.33-.939-5.72-2.168-7.2-1.229-1.47-3.208-2.2-5.937-2.2-3.729 0-7.194 1.86-10.395 5.59-3.202 3.73-5.735 8.65-7.599 14.77q-2.797 9.18-2.797 17.04c0 4.11.73 7.14 2.189 9.08 1.459 1.95 3.701 2.92 6.727 2.92 2.027 0 3.796-.31 5.309-.91 1.513-.61 2.932-1.64 4.256-3.08q1.986-2.175 3.931-6.06h3.891l-2.473 11.51c-5.052 1.4-10.348 2.11-15.886 2.11q-7.62 0-11.591-4.38-3.972-4.38-3.972-12.81 0-5.955 2.128-13.74c1.418-5.18 3.424-9.74 6.018-13.65 2.594-3.92 5.66-6.91 9.2-8.96s7.43-3.08 11.672-3.08"/><text x="925.099" y="2025.81" fill-opacity="0" font-family="Arial,Arial_MSFontService,sans-serif" font-size="56.617">π¶π‘‰</text><path fill-rule="evenodd" d="M1027.71 2010.72h1.82c-.04 1.09-.07 2.07-.09 2.93s-.04 1.7-.05 2.52c-.01.81-.01 1.62-.01 2.41v22.64q0 .915.06 1.59c.04.45.1.82.19 1.13s.21.57.36.79.32.41.52.57c.24.24.56.42.95.55.4.13.91.24 1.52.33q.93.135 2.22.21c.86.04 1.9.08 3.11.1v2.59h-23.62v-2.59c1.18-.04 2.17-.09 2.98-.13.82-.05 1.51-.12 2.09-.21q.855-.135 1.38-.3c.35-.11.65-.24.91-.4.28-.18.52-.38.72-.58.19-.21.35-.48.47-.79.12-.32.22-.71.29-1.16.06-.46.1-1.03.1-1.7v-21.36c0-.77-.15-1.32-.45-1.64-.3-.31-.72-.47-1.28-.47-.61 0-1.53.31-2.74.95s-2.78 1.58-4.7 2.83c-.26-.46-.5-.91-.72-1.37s-.45-.92-.68-1.4c2.46-1.35 4.9-2.7 7.31-4.04s4.86-2.67 7.34-4"/><text x="1013.06" y="2044.29" fill-opacity="0" font-family="Arial,Arial_MSFontService,sans-serif" font-size="38.363">1</text><path fill="#f8ccb9" d="M2101 1151h631v190h-631z"/><path fill="#d74514" fill-rule="evenodd" d="M2362.78 1215.61h19.82l-.61 2.67c-2.11.25-3.16 1.49-3.16 3.73q0 2.145.81 5.76l3.2 14.83 9.28-13.46c1.49-2.13 2.46-3.76 2.92-4.88s.69-2.25.69-3.38c0-.76-.22-1.35-.65-1.77s-1.19-.69-2.27-.83l.61-2.67h16.61l-.61 2.67c-.7.16-1.35.46-1.94.87-.59.42-1.43 1.25-2.51 2.48s-2.64 3.27-4.66 6.14l-15.69 21.64-2.35 10.62c-.19.78-.32 1.52-.4 2.2-.08.69-.13 1.52-.13 2.5 0 1.24.32 2.12.96 2.63.63.51 1.62.81 2.98.89l-.57 2.68h-21.52l.57-2.68c1.18-.16 2.13-.51 2.83-1.05.71-.54 1.29-1.35 1.77-2.41.47-1.07.95-2.67 1.43-4.8l2.4-10.99-5.27-22.53c-.41-1.7-.81-3.09-1.2-4.18q-.585-1.62-1.17-2.43c-.4-.54-.78-.92-1.16-1.13q-.57-.33-1.62-.45Z"/><text x="2362.17" y="1264.01" fill-opacity="0" font-family="Arial,Arial_MSFontService,sans-serif" font-size="55.32">π’€</text><path fill="#d74514" fill-rule="evenodd" d="M2431 1260.85c-1.87 0-3.5.91-4.91 2.74-1.41 1.82-2.56 4.31-3.44 7.46-.89 3.14-1.33 5.98-1.33 8.5 0 1.45.21 2.53.64 3.25.43.71 1.09 1.07 1.98 1.07 1.31 0 2.65-.64 4.01-1.92s2.45-2.79 3.29-4.51c.83-1.73 1.58-4.09 2.23-7.09l.24-1.11c.32-1.46.48-2.91.48-4.34 0-1.35-.25-2.37-.75-3.04-.49-.68-1.31-1.01-2.44-1.01m-.36-3.1c2.96 0 5.48.71 7.57 2.14l2.68-2.14 3.33.47-7.56 34.44c-.22.97-.36 1.69-.42 2.17a10 10 0 0 0-.09 1.22c0 .88.22 1.49.66 1.85.43.36 1.21.6 2.32.74l-.33 1.97h-12.36l4.86-18.32-.39-.12c-1.63 2.07-3.24 3.6-4.84 4.6-1.6 1.01-3.51 1.51-5.73 1.51-2.27 0-4.02-.82-5.26-2.46s-1.86-4-1.86-7.07c0-2.68.39-5.34 1.16-7.99.77-2.64 1.89-4.92 3.34-6.83q2.175-2.88 5.46-4.53c2.2-1.1 4.68-1.65 7.46-1.65"/><text x="2413.22" y="1295.25" fill-opacity="0" font-family="Arial,Arial_MSFontService,sans-serif" font-size="42.861">π’’</text><path fill="#fdefe8" fill-rule="evenodd" d="M2250 1886.5c0-91.96 74.32-166.5 166-166.5s166 74.54 166 166.5-74.32 166.5-166 166.5-166-74.54-166-166.5"/><path fill="#d74514" fill-rule="evenodd" d="M2315.26 1860.65h20.39l-.57 2.68c-1.54.43-2.67 1.18-3.4 2.26-.73 1.09-1.42 3.08-2.07 6l-2.84 12.85h17.19l2.83-12.85c.36-1.59.53-3.17.53-4.74 0-1.13-.26-1.96-.79-2.49s-1.38-.87-2.57-1.03l.57-2.68h20.38l-.57 2.68c-1.54.43-2.67 1.18-3.4 2.26-.73 1.09-1.42 3.08-2.07 6l-7.37 33.44c-.19.86-.33 1.61-.41 2.25q-.12.945-.12 2.49c0 1.13.26 1.97.79 2.49.53.53 1.38.87 2.57 1.04l-.56 2.67h-20.39l.57-2.67c1.54-.44 2.67-1.19 3.4-2.27q1.095-1.62 2.07-6l3.4-15.48h-17.18l-3.4 15.48c-.19.89-.33 1.65-.41 2.27s-.12 1.44-.12 2.47c0 1.13.26 1.97.79 2.49.53.53 1.38.87 2.57 1.04l-.57 2.67h-20.38l.57-2.67c1.54-.44 2.67-1.19 3.4-2.27q1.095-1.62 2.07-6l7.37-33.44c.36-1.59.53-3.17.53-4.74 0-1.13-.26-1.96-.79-2.49s-1.38-.87-2.57-1.03Z"/><text x="2304.12" y="1909.06" fill-opacity="0" font-family="Arial,Arial_MSFontService,sans-serif" font-size="55.32">π‘―</text><path fill="#d74514" fill-rule="evenodd" d="M2445.23 1895.64c-.99 0-1.76.02-2.3.06l-7.35 33.48c.91.08 1.65.12 2.2.12 2.56 0 4.77-.51 6.63-1.52s3.5-2.56 4.94-4.63c1.44-2.08 2.57-4.61 3.4-7.6.82-2.98 1.23-5.99 1.23-9.01 0-2.04-.22-3.76-.68-5.15s-1.09-2.51-1.89-3.37c-.81-.85-1.74-1.46-2.8-1.83-1.06-.36-2.19-.55-3.38-.55m-13.79-3.48h12.06c3.28 0 5.9.18 7.86.53 1.79.32 3.42.87 4.9 1.64 1.48.78 2.65 1.63 3.5 2.56 1.1 1.15 1.95 2.6 2.58 4.34.63 1.73.94 3.77.94 6.12q0 3.96-.9 7.59c-.59 2.43-1.47 4.66-2.63 6.72-1.16 2.05-2.55 3.82-4.17 5.3s-3.24 2.63-4.87 3.46c-1.63.82-3.47 1.43-5.51 1.81-2.05.39-4.47.58-7.27.58h-14.68l.41-1.96c1.14-.32 1.97-.88 2.51-1.67.53-.79 1.04-2.26 1.51-4.41l5.43-24.57c.25-1.17.38-2.33.38-3.49 0-.83-.19-1.44-.58-1.83-.39-.38-1.02-.64-1.89-.76Zm-55.06 0h13.88l2.32 24.87 14.12-24.87h13.85l-.42 1.96c-1.13.32-1.96.88-2.5 1.67-.54.8-1.04 2.26-1.52 4.41l-5.42 24.57c-.14.64-.24 1.19-.3 1.66q-.09.69-.09 1.83c0 .83.2 1.44.58 1.83.39.39 1.02.64 1.9.76l-.42 1.96h-14.98l.41-1.96c1.14-.32 1.97-.88 2.51-1.67.53-.79 1.04-2.26 1.51-4.41l2.74-12.51c.92-4.13 1.99-8.29 3.22-12.48h-.59c-.94 1.71-1.94 3.49-3.01 5.33l-13.41 23.21h-4.82l-1.97-17.9c-.45-4.25-.75-7.9-.89-10.94h-.48c-.79 4.91-1.55 8.98-2.26 12.22l-2.89 13.07c-.14.64-.24 1.19-.3 1.66q-.09.69-.09 1.83c0 .83.2 1.44.58 1.83.39.39 1.02.64 1.9.76l-.42 1.96h-10.93l.41-1.96c1.14-.32 1.97-.88 2.51-1.67.53-.79 1.04-2.26 1.51-4.41l5.43-24.57c.25-1.17.38-2.33.38-3.49 0-.83-.19-1.44-.58-1.83-.38-.38-1.02-.64-1.89-.76Zm117.54-1.97h3.28l-.6 9.5h-18.29v10.73c1.2-.36 2.41-.62 3.65-.79s2.77-.26 4.57-.26c2.47 0 4.63.46 6.48 1.37 1.86.92 3.3 2.24 4.32 3.98s1.54 3.78 1.54 6.12c0 4.03-1.34 7.11-4.01 9.25-2.67 2.13-6.51 3.2-11.51 3.2-2.09 0-4.21-.21-6.38-.62-2.16-.42-4.02-.99-5.57-1.7v-7.45h5.39c.5 2.17 1.3 3.78 2.39 4.84q1.635 1.59 4.23 1.59c2.16 0 3.76-.67 4.79-2.01 1.04-1.34 1.55-3.41 1.55-6.21 0-2.76-.66-4.86-1.99-6.31s-3.26-2.17-5.78-2.17c-.98 0-2.02.08-3.14.26-1.13.18-2.12.4-3 .66l-2.68-1.67v-20.34h17.6q1.59 0 2.13-.39c.37-.26.71-.78 1.03-1.58"/><text x="2368.19" y="1927.9" fill-opacity="0" font-family="Arial,Arial_MSFontService,sans-serif" font-size="43.099">π‘΄π‘«π“</text><path d="M2421.08 1341.5v338.2h-9.16v-338.2Zm18.34 333.61-22.92 45.84-22.92-45.84Z"/><path fill="none" stroke="#000" stroke-miterlimit="8" stroke-width="9.167" d="m2358.5 1571.37 116.875-133.868"/><path fill-rule="evenodd" d="M2579.72 1477.63c5.03 0 8.82 1.1 11.39 3.3 2.57 2.21 3.85 5.4 3.85 9.59 0 1.43-.14 2.75-.43 3.95-.28 1.2-.73 2.39-1.33 3.57-.61 1.17-1.43 2.43-2.46 3.79a66 66 0 0 1-3.4 4.11c-1.24 1.39-3.39 3.71-6.44 6.95q-7.71 8.145-11.31 14.22h15.28c1.32 0 2.39-.08 3.2-.24s1.46-.43 1.94-.81c.49-.38.88-.87 1.16-1.48s.64-1.55 1.07-2.81h3.45l-.69 11.83h-33.35v-1.95c1.16-2.83 2.72-5.74 4.7-8.71 1.97-2.97 4.76-6.47 8.39-10.5 3.13-3.45 5.39-6.08 6.76-7.86 1.52-1.94 2.64-3.63 3.39-5.04.74-1.42 1.27-2.76 1.6-4.02.32-1.25.48-2.52.48-3.79 0-2.02-.32-3.81-.97-5.37-.65-1.55-1.64-2.77-2.98-3.66-1.33-.89-3.02-1.34-5.04-1.34-5.05 0-8.46 2.81-10.22 8.43h-4.9v-7.78c3.27-1.54 6.33-2.66 9.18-3.35 2.85-.68 5.41-1.03 7.68-1.03m-43.12 0h2.23c-.17 2.59-.25 6.19-.25 10.78v34.61c0 1.57.09 2.75.27 3.55.17.79.48 1.44.93 1.94.44.5 1.09.89 1.92 1.18.84.28 1.9.5 3.17.65s2.94.25 5.02.3v2.96h-29.95v-2.96c3-.13 5.14-.32 6.42-.55 1.29-.23 2.27-.57 2.94-1.03.68-.46 1.17-1.11 1.48-1.95.31-.83.47-2.2.47-4.09v-32.87q0-1.62-.57-2.37c-.38-.5-.93-.75-1.66-.75-.87 0-2.09.45-3.69 1.34-1.59.89-3.57 2.12-5.92 3.69l-1.78-3.12Zm-37.53-2.03h3.16l-.61 9.41h-23.3v17.79c1.4-.6 2.93-1.04 4.58-1.34s3.29-.44 4.94-.44c3.22 0 6.07.65 8.55 1.96 2.49 1.31 4.41 3.18 5.76 5.59 1.35 2.42 2.02 5.22 2.02 8.41 0 3.62-.75 6.73-2.27 9.32-1.51 2.6-3.7 4.57-6.56 5.92s-6.26 2.03-10.17 2.03q-7.02 0-14.67-2.88v-8.59h4.9c.81 2.75 2.03 4.78 3.67 6.08 1.63 1.29 3.75 1.94 6.34 1.94 3.59 0 6.31-1.08 8.15-3.24 1.83-2.16 2.75-5.39 2.75-9.69 0-2.86-.48-5.23-1.46-7.11-.97-1.88-2.28-3.23-3.93-4.07s-3.56-1.26-5.75-1.26c-1.84 0-3.42.12-4.74.35-1.33.23-2.75.58-4.26 1.07l-3.24-1.9v-26.67h22.33c.92 0 1.58-.08 1.98-.22.41-.15.73-.38.98-.69.24-.31.52-.9.85-1.77"/><text x="2470.5" y="1526.92" fill-opacity="0" font-family="Arial,Arial_MSFontService,sans-serif" font-size="58.643">512</text><path fill="#d74514" fill-rule="evenodd" d="M2400.85 1076.69c5.03 0 8.82 1.11 11.39 3.31s3.85 5.39 3.85 9.58c0 1.43-.14 2.75-.43 3.95-.28 1.21-.73 2.4-1.33 3.57-.61 1.18-1.43 2.44-2.46 3.79a66 66 0 0 1-3.4 4.11c-1.24 1.39-3.39 3.71-6.44 6.95-5.14 5.43-8.91 10.18-11.31 14.23H2406c1.32 0 2.39-.08 3.2-.24.81-.17 1.46-.44 1.94-.82.49-.37.88-.87 1.16-1.47.28-.61.64-1.55 1.07-2.82h3.45l-.69 11.83h-33.35v-1.94c1.16-2.84 2.72-5.74 4.7-8.72 1.97-2.97 4.77-6.47 8.39-10.49 3.13-3.46 5.39-6.08 6.76-7.86 1.52-1.95 2.64-3.63 3.39-5.05.74-1.42 1.27-2.76 1.6-4.01.32-1.26.48-2.52.48-3.79 0-2.03-.32-3.82-.97-5.37-.65-1.56-1.64-2.78-2.98-3.67-1.33-.89-3.02-1.34-5.04-1.34-5.05 0-8.46 2.81-10.21 8.43h-4.91v-7.78c3.27-1.54 6.33-2.65 9.18-3.34s5.41-1.04 7.68-1.04m-43.12 0h2.23c-.17 2.6-.25 6.19-.25 10.79v34.61q0 2.34.27 3.54.255 1.2.93 1.95t1.92 1.17c.84.29 1.9.5 3.17.65s2.94.25 5.02.3v2.96h-29.95v-2.96q4.5-.195 6.42-.54c1.29-.23 2.27-.58 2.94-1.04.68-.46 1.17-1.1 1.48-1.94s.47-2.2.47-4.09v-32.87q0-1.62-.57-2.37c-.38-.5-.93-.75-1.66-.75-.87 0-2.09.44-3.69 1.33-1.59.9-3.56 2.13-5.92 3.69l-1.78-3.12Zm-37.53-2.02h3.16l-.61 9.4h-23.3v17.79c1.4-.59 2.93-1.04 4.58-1.34 1.65-.29 3.29-.44 4.94-.44 3.22 0 6.07.65 8.55 1.96 2.49 1.32 4.41 3.18 5.76 5.6s2.02 5.22 2.02 8.41c0 3.62-.75 6.72-2.26 9.32-1.52 2.59-3.71 4.56-6.57 5.92-2.86 1.35-6.25 2.02-10.17 2.02q-7.02 0-14.67-2.88v-8.59h4.9c.81 2.76 2.03 4.78 3.67 6.08 1.63 1.3 3.75 1.95 6.34 1.95 3.59 0 6.31-1.08 8.15-3.25 1.83-2.16 2.75-5.39 2.75-9.68 0-2.87-.48-5.24-1.46-7.11q-1.455-2.82-3.93-4.08c-1.65-.83-3.56-1.25-5.75-1.25-1.84 0-3.42.11-4.74.34q-1.995.345-4.26 1.08l-3.24-1.91v-26.67h22.33c.92 0 1.58-.07 1.98-.22.41-.15.73-.38.98-.69.24-.31.52-.9.85-1.76"/><text x="2291.63" y="1125.98" fill-opacity="0" font-family="Arial,Arial_MSFontService,sans-serif" font-size="58.643">512</text><path fill="#d74514" fill-rule="evenodd" d="M2469.63 1098.01c-1.3 0-2.58.41-3.83 1.24-1.26.82-2.66 2.19-4.2 4.09-1.54 1.91-2.79 3.86-3.77 5.86-.97 2-1.79 4.55-2.47 7.66l-.36 1.7a26 26 0 0 0-.61 5.51c0 2.14.47 3.68 1.4 4.62.93.95 2.48 1.42 4.64 1.42 1.11 0 2.16-.18 3.16-.55q1.5-.54 3.06-1.8c1.04-.84 2.03-1.94 2.96-3.3.93-1.37 1.79-3.05 2.57-5.05.79-2 1.39-4.14 1.83-6.42.43-2.29.64-4.47.64-6.55 0-2.81-.39-4.92-1.19-6.32-.8-1.41-2.08-2.11-3.83-2.11m33.57-4.46h2.39l-5.84 26.02c-.59 2.65-.89 4.65-.89 6 0 1.08.18 1.87.53 2.35.35.49.91.73 1.66.73.81 0 1.68-.33 2.6-.99.91-.66 2.21-1.93 3.89-3.79l2.31 2.27q-3.975 4.17-6.45 5.67t-5.55 1.5c-1.76 0-3.16-.64-4.21-1.92-1.06-1.29-1.59-2.93-1.59-4.93q0-3.075 1.14-7.86l3.04-13.25c.62-2.7.93-4.73.93-6.08 0-1.22-.29-2.04-.87-2.47-.58-.44-1.72-.68-3.42-.73l.44-2.15Zm25.03-9.64h5.59l-2.23 10.01h12.32l-.89 4.09h-12.32l-3.61 15.73c-.7 3.05-1.15 5.25-1.34 6.58-.18 1.34-.28 2.41-.28 3.22 0 3.35 1.39 5.03 4.18 5.03 1.18 0 2.45-.45 3.78-1.36 1.34-.9 2.93-2.45 4.77-4.64l2.35 2.43c-2.35 2.84-4.62 4.93-6.79 6.29-2.18 1.35-4.45 2.02-6.83 2.02-5.65 0-8.47-2.85-8.47-8.55 0-1.81.23-3.71.69-5.71l4.78-21.04h-6.81l.61-2.79c1.59-.03 2.8-.15 3.63-.37.82-.22 1.51-.51 2.06-.89.56-.38 1.07-.92 1.52-1.62.46-.7.91-1.6 1.34-2.7q.645-1.635 1.95-5.73m-26.12-5.88h7.17l-1.87 7.86h-7.17Zm-39.57-3.32h2.35l-7.14 28.37.53.16q3.93-5.265 7.38-7.62c2.29-1.57 4.59-2.35 6.89-2.35q4.41 0 6.87 3.36c1.63 2.25 2.45 5.41 2.45 9.49 0 4.46-.9 8.84-2.7 13.15-1.79 4.31-4.29 7.73-7.47 10.25-3.19 2.53-6.76 3.79-10.7 3.79-3.6 0-6.79-.88-9.57-2.63l-3.73 2.63-2.59-.65 10.5-46.32c.62-2.76.93-4.75.93-6 0-1.13-.35-1.93-1.04-2.39-.68-.46-1.92-.71-3.7-.77l.48-2.11Z"/><text x="2445.11" y="1125.99" fill-opacity="0" font-family="Arial,Arial_MSFontService,sans-serif" font-size="58.602">π‘π‘–π‘΅</text><path fill="#d74514" d="M2582.5 1098.92h106.7v9.16h-106.7Zm102.12-18.34 45.83 22.92-45.83 22.92Zm-433.89 18.337h-107.98v9.167h107.98Zm-103.397-18.333L2101.5 1103.5l45.833 22.917Z"/><path d="M1882.5 1881.92h326.79v9.16H1882.5Zm322.21-18.34 45.83 22.92-45.83 22.92Z"/><path fill="none" stroke="#000" stroke-miterlimit="8" stroke-width="9.167" d="m2043.5 1954.37 116.875-133.868"/><path fill-rule="evenodd" d="M2156.14 1762.19q-3 0-5.04.93c-1.37.62-2.48 1.46-3.33 2.51s-1.46 2.29-1.82 3.71a18.5 18.5 0 0 0-.55 4.56c0 1.75.21 3.4.61 4.92.41 1.53 1.05 2.85 1.93 3.95.87 1.11 2 1.99 3.38 2.64s3.05.97 5.03.97c2.21 0 4.11-.45 5.69-1.36 1.58-.9 2.78-2.25 3.61-4.03.82-1.78 1.23-3.89 1.23-6.32 0-2.6-.44-4.83-1.33-6.71-.9-1.88-2.15-3.31-3.77-4.3q-2.43-1.47-5.64-1.47m.21-25.54c-3.41 0-6.01.93-7.81 2.78-1.79 1.85-2.69 4.48-2.69 7.88q0 2.4.57 4.5c.37 1.41.98 2.62 1.82 3.65.84 1.02 1.93 1.84 3.26 2.45 1.34.61 2.98.91 4.93.91 2.24 0 4.12-.44 5.65-1.32 1.53-.87 2.66-2.16 3.4-3.85.75-1.68 1.12-3.64 1.12-5.85q0-3.645-1.32-6.18t-3.63-3.75c-1.54-.81-3.31-1.22-5.3-1.22m.08-3.44c3.89 0 7.16.55 9.8 1.64 2.65 1.09 4.64 2.67 5.98 4.74q2.01 3.105 2.01 7.44 0 4.455-2.19 7.68c-1.46 2.15-3.72 3.9-6.77 5.25l.08.52c3.06 1.19 5.37 2.93 6.93 5.21 1.57 2.28 2.35 5.03 2.35 8.25 0 3.16-.75 5.94-2.27 8.35-1.51 2.4-3.7 4.26-6.58 5.57s-6.24 1.97-10.07 1.97c-3.6 0-6.75-.61-9.47-1.81-2.71-1.2-4.82-2.96-6.32-5.27q-2.25-3.465-2.25-8.16c0-2.35.41-4.39 1.22-6.12s1.87-3.16 3.18-4.28 2.96-2.14 4.96-3.06l-.08-.53c-5.81-2.51-8.71-6.82-8.71-12.92 0-2.79.76-5.27 2.29-7.46s3.7-3.9 6.52-5.15q4.245-1.86 9.39-1.86m-45.96 0c5.02 0 8.82 1.1 11.39 3.3 2.56 2.2 3.85 5.4 3.85 9.59 0 1.43-.15 2.75-.43 3.95s-.73 2.39-1.34 3.56c-.61 1.18-1.42 2.44-2.45 3.79a70 70 0 0 1-3.4 4.12c-1.25 1.39-3.39 3.71-6.45 6.95-5.13 5.43-8.9 10.17-11.3 14.22h15.27q1.995 0 3.21-.24c.81-.16 1.45-.43 1.94-.81s.87-.87 1.16-1.48c.28-.61.64-1.55 1.07-2.82h3.44l-.68 11.84h-33.36v-1.95c1.16-2.84 2.73-5.74 4.7-8.71 1.98-2.97 4.77-6.47 8.39-10.5 3.14-3.46 5.39-6.08 6.77-7.86 1.51-1.95 2.64-3.63 3.38-5.05.75-1.41 1.28-2.75 1.61-4.01.32-1.26.48-2.52.48-3.79 0-2.02-.32-3.81-.97-5.37-.65-1.55-1.64-2.77-2.98-3.67-1.34-.89-3.02-1.33-5.05-1.33-5.05 0-8.45 2.81-10.21 8.43h-4.9v-7.78c3.27-1.54 6.33-2.66 9.18-3.35s5.41-1.03 7.68-1.03m-43.13 0h2.23c-.16 2.59-.24 6.19-.24 10.78v34.61c0 1.57.09 2.75.26 3.55.18.79.49 1.44.94 1.94.44.5 1.08.89 1.92 1.18.84.28 1.89.5 3.16.64 1.27.15 2.95.25 5.03.31v2.96h-29.95v-2.96c3-.14 5.14-.32 6.42-.55s2.26-.57 2.94-1.03 1.17-1.11 1.48-1.95.47-2.2.47-4.09v-32.87q0-1.62-.57-2.37c-.38-.5-.93-.75-1.66-.75-.87 0-2.1.45-3.69 1.34-1.6.89-3.57 2.12-5.92 3.69l-1.78-3.12Z"/><text x="2048.38" y="1782.75" fill-opacity="0" font-family="Arial,Arial_MSFontService,sans-serif" font-size="56.617">128</text><path fill-rule="evenodd" d="M2101.79 1975.91h16.78l-.44 1.98c-1.19.14-2.12.49-2.78 1.06s-1.13 1.36-1.4 2.37-.4 2.37-.4 4.07c0 .41.04 1.62.12 3.65l1.13 29.67v3.24h.41l17.55-31.65c1.02-1.87 1.79-3.47 2.31-4.81.51-1.33.77-2.52.77-3.54 0-2.27-1.36-3.62-4.06-4.06l.45-1.98h16.57l-.44 1.98c-.73.11-1.43.39-2.09.84-.66.44-1.4 1.18-2.23 2.22-.82 1.04-2.1 3.05-3.83 6.02l-25.93 44.91h-5.39l-2.72-45.19c-.11-1.76-.3-3.26-.59-4.52-.28-1.26-.73-2.24-1.34-2.94-.6-.7-1.57-1.15-2.89-1.34Zm-18.8-.65c2.45 0 4.73.15 6.82.45 2.1.29 4.43.83 7 1.62l-2.44 10.98h-3.89c-.21-3.32-.94-5.72-2.17-7.19-1.22-1.48-3.2-2.21-5.93-2.21-3.73 0-7.2 1.86-10.4 5.59s-5.73 8.65-7.6 14.77q-2.79 9.18-2.79 17.04c0 4.11.73 7.14 2.19 9.08 1.45 1.95 3.7 2.92 6.72 2.92 2.03 0 3.8-.3 5.31-.91 1.52-.61 2.93-1.64 4.26-3.08q1.98-2.175 3.93-6.06h3.89l-2.47 11.51c-5.06 1.4-10.35 2.11-15.89 2.11-5.08 0-8.94-1.46-11.59-4.38s-3.97-7.19-3.97-12.81q0-5.955 2.13-13.74c1.41-5.18 3.42-9.74 6.01-13.65 2.6-3.92 5.66-6.91 9.2-8.96s7.43-3.08 11.68-3.08"/><text x="2053.97" y="2024.8" fill-opacity="0" font-family="Arial,Arial_MSFontService,sans-serif" font-size="56.617">π¶π‘‰</text><path fill-rule="evenodd" d="M2150.99 2020.61c-1.17 0-2.26.25-3.26.76-1.01.51-1.93 1.2-2.76 2.08-.83.89-1.58 1.91-2.23 3.07-.66 1.16-1.21 2.41-1.66 3.73-.44 1.32-.78 2.67-1.01 4.05s-.34 2.72-.34 4.03c0 2.15.3 3.74.91 4.78.6 1.05 1.58 1.57 2.93 1.57.93 0 1.95-.33 3.05-.97 1.11-.65 2.18-1.56 3.22-2.73s1.99-2.58 2.84-4.24c.86-1.66 1.5-3.5 1.94-5.53.26-1.07.48-2.15.66-3.23.17-1.08.26-2.06.26-2.93 0-1.61-.36-2.75-1.08-3.43-.73-.67-1.88-1.01-3.47-1.01m-.54-2.95c1.51 0 2.87.19 4.07.55 1.2.37 2.3.87 3.32 1.51l2.83-2.06 2.41.63c-1.31 5.89-2.61 11.73-3.89 17.51s-2.47 11.22-3.59 16.32c-.37 1.37-.56 2.48-.56 3.34 0 .73.28 1.25.83 1.56.56.31 1.51.52 2.86.64l-.42 1.97h-10.21c.83-3.26 1.61-6.28 2.34-9.07.72-2.79 1.51-5.81 2.36-9.07l-.47-.12c-1 1.29-1.96 2.39-2.91 3.31-.94.91-1.86 1.66-2.77 2.25-.9.58-1.8 1.01-2.71 1.28-.9.26-1.81.4-2.72.4-2.37 0-4.19-.85-5.48-2.55s-1.94-4.16-1.94-7.4c0-1.93.2-3.78.61-5.56.41-1.77.98-3.44 1.73-5 .74-1.56 1.63-2.98 2.66-4.26 1.04-1.28 2.17-2.38 3.4-3.29q1.845-1.365 3.93-2.13c1.39-.51 2.83-.76 4.32-.76"/><text x="2133.8" y="2054.38" fill-opacity="0" font-family="Arial,Arial_MSFontService,sans-serif" font-size="41.967">π‘</text><path fill="#f8ccb9" d="M3212 1151h630v190h-630z"/><path fill="#d74514" fill-rule="evenodd" d="M3435.29 1220.08h19.82l-.61 2.67c-2.1.24-3.16 1.49-3.16 3.73 0 1.43.27 3.35.81 5.75l3.2 14.84 9.29-13.46c1.48-2.13 2.45-3.76 2.91-4.88s.69-2.25.69-3.38c0-.76-.21-1.35-.65-1.77-.43-.42-1.18-.69-2.27-.83l.61-2.67h16.62l-.61 2.67c-.7.16-1.35.45-1.94.87-.6.42-1.44 1.25-2.52 2.47-1.08 1.23-2.63 3.28-4.66 6.14l-15.68 21.65-2.35 10.61c-.19.79-.33 1.52-.41 2.21s-.12 1.52-.12 2.5c0 1.24.32 2.12.95 2.63.64.51 1.63.81 2.98.89l-.57 2.68h-21.52l.57-2.68c1.19-.16 2.14-.51 2.84-1.05s1.29-1.35 1.76-2.41c.47-1.07.95-2.67 1.44-4.81l2.39-10.98-5.27-22.53c-.4-1.7-.8-3.1-1.19-4.18s-.79-1.89-1.18-2.43-.78-.92-1.15-1.13q-.57-.33-1.62-.45Z"/><text x="3434.69" y="1268.48" fill-opacity="0" font-family="Arial,Arial_MSFontService,sans-serif" font-size="55.32">π’€</text><path fill="#d74514" fill-rule="evenodd" d="M3492.49 1251.58h14.99l-.42 1.97c-1.13.32-1.97.87-2.5 1.67-.54.79-1.04 2.26-1.52 4.41l-6.43 29.07h5.62c.98 0 1.73-.08 2.27-.24a4.5 4.5 0 0 0 1.46-.75c.43-.33.92-.8 1.44-1.4.53-.59 1.05-1.37 1.57-2.32.51-.95 1.04-2.14 1.57-3.57h4.06l-3.04 11.82h-27.26l.42-1.97c1.13-.31 1.97-.87 2.5-1.66.54-.8 1.05-2.27 1.52-4.41l5.42-24.57c.26-1.18.39-2.34.39-3.49 0-.83-.19-1.44-.58-1.83s-1.02-.64-1.89-.76Z"/><text x="3484.3" y="1287.16" fill-opacity="0" font-family="Arial,Arial_MSFontService,sans-serif" font-size="40.657">π‘³</text><path fill="#d74514" fill-rule="evenodd" d="M3521.44 1272.52h34.31v4.56h-34.31Z"/><text x="3521.44" y="1276.51" fill-opacity="0" font-family="Arial,Arial_MSFontService,sans-serif" font-size="4.557">β’</text><path fill="#d74514" fill-rule="evenodd" d="M3580.38 1251.11h3.82q-.18 2.85-.18 7.92v24.9c0 1.15.06 2.02.19 2.61.13.58.36 1.06.69 1.43.32.36.79.65 1.41.86s1.39.37 2.32.48c.94.11 2.17.18 3.7.22v2.71h-25.71v-2.71c2.21-.1 3.78-.23 4.72-.4.95-.17 1.67-.42 2.16-.76.5-.34.86-.82 1.09-1.43.23-.62.34-1.62.34-3.01v-21.53c0-.82-.15-1.4-.46-1.76s-.73-.54-1.27-.54q-.735 0-2.1.69c-.9.45-2.38 1.39-4.45 2.8l-1.82-3.16Z"/><text x="3564.83" y="1287.1" fill-opacity="0" font-family="Arial,Arial_MSFontService,sans-serif" font-size="41.133">π</text><path fill="#fdefe8" fill-rule="evenodd" d="M3361 1886.5c0-91.96 74.32-166.5 166-166.5s166 74.54 166 166.5-74.32 166.5-166 166.5-166-74.54-166-166.5"/><path fill="#d74514" fill-rule="evenodd" d="M3426.17 1860.65h20.38l-.57 2.68c-1.54.43-2.67 1.18-3.4 2.26-.73 1.09-1.42 3.08-2.07 6l-2.83 12.85h17.18l2.84-12.85c.35-1.59.52-3.17.52-4.74 0-1.13-.26-1.96-.79-2.49-.52-.53-1.38-.87-2.57-1.03l.57-2.68h20.38l-.57 2.68c-1.54.43-2.67 1.18-3.4 2.26-.73 1.09-1.42 3.08-2.07 6l-7.37 33.44c-.19.86-.33 1.61-.41 2.25q-.12.945-.12 2.49c0 1.13.26 1.97.79 2.49.53.53 1.38.87 2.57 1.04l-.56 2.67h-20.39l.57-2.67c1.54-.44 2.67-1.19 3.4-2.27q1.095-1.62 2.07-6l3.4-15.48h-17.18l-3.4 15.48c-.19.89-.33 1.65-.41 2.27s-.12 1.44-.12 2.47c0 1.13.26 1.97.79 2.49.53.53 1.38.87 2.57 1.04l-.56 2.67h-20.39l.57-2.67c1.54-.44 2.67-1.19 3.4-2.27q1.095-1.62 2.07-6l7.37-33.44c.36-1.59.53-3.17.53-4.74 0-1.13-.26-1.96-.79-2.49s-1.38-.87-2.57-1.03Z"/><text x="3415.02" y="1909.06" fill-opacity="0" font-family="Arial,Arial_MSFontService,sans-serif" font-size="55.32">π‘―</text><path fill="#d74514" fill-rule="evenodd" d="M3556.13 1895.64c-.99 0-1.76.02-2.29.06l-7.36 33.48c.91.08 1.65.12 2.2.12 2.56 0 4.77-.51 6.63-1.52s3.5-2.56 4.94-4.63c1.44-2.08 2.58-4.61 3.4-7.6.82-2.98 1.24-5.99 1.24-9.01 0-2.04-.23-3.76-.69-5.15s-1.09-2.51-1.89-3.37c-.8-.85-1.74-1.46-2.8-1.83-1.06-.36-2.19-.55-3.38-.55m-13.79-3.48h12.06c3.28 0 5.9.18 7.86.53 1.79.32 3.43.87 4.9 1.64 1.48.78 2.65 1.63 3.5 2.56 1.1 1.15 1.96 2.6 2.58 4.34.63 1.73.94 3.77.94 6.12 0 2.64-.3 5.17-.89 7.59-.6 2.43-1.48 4.66-2.64 6.72-1.16 2.05-2.55 3.82-4.17 5.3s-3.24 2.63-4.87 3.46c-1.63.82-3.47 1.43-5.51 1.81-2.05.39-4.47.58-7.27.58h-14.68l.41-1.96c1.14-.32 1.97-.88 2.51-1.67.53-.79 1.04-2.26 1.52-4.41l5.42-24.57c.25-1.17.38-2.33.38-3.49 0-.83-.19-1.44-.58-1.83-.38-.38-1.01-.64-1.89-.76Zm-55.06 0h13.88l2.32 24.87 14.12-24.87h13.85l-.42 1.96c-1.13.32-1.96.88-2.5 1.67-.53.8-1.04 2.26-1.52 4.41l-5.42 24.57c-.14.64-.24 1.19-.3 1.66q-.09.69-.09 1.83c0 .83.2 1.44.59 1.83.38.39 1.01.64 1.89.76l-.42 1.96h-14.98l.41-1.96c1.14-.32 1.97-.88 2.51-1.67.53-.79 1.04-2.26 1.52-4.41l2.74-12.51q1.365-6.195 3.21-12.48h-.59c-.94 1.71-1.94 3.49-3.01 5.33l-13.4 23.21h-4.83l-1.97-17.9c-.45-4.25-.75-7.9-.89-10.94h-.48c-.79 4.91-1.54 8.98-2.26 12.22l-2.89 13.07c-.14.64-.24 1.19-.3 1.66q-.09.69-.09 1.83c0 .83.2 1.44.58 1.83.39.39 1.02.64 1.9.76l-.42 1.96h-10.93l.42-1.96c1.13-.32 1.96-.88 2.5-1.67.53-.79 1.04-2.26 1.52-4.41l5.42-24.57c.26-1.17.38-2.33.38-3.49 0-.83-.19-1.44-.58-1.83-.38-.38-1.01-.64-1.89-.76Zm117.54-1.97h3.28l-.6 9.5h-18.28v10.73c1.19-.36 2.4-.62 3.64-.79s2.77-.26 4.58-.26c2.46 0 4.62.46 6.47 1.37 1.86.92 3.3 2.24 4.32 3.98 1.03 1.74 1.54 3.78 1.54 6.12 0 4.03-1.34 7.11-4.01 9.25-2.67 2.13-6.51 3.2-11.51 3.2-2.09 0-4.21-.21-6.38-.62-2.16-.42-4.02-.99-5.57-1.7v-7.45h5.4c.49 2.17 1.29 3.78 2.38 4.84q1.635 1.59 4.23 1.59c2.16 0 3.76-.67 4.79-2.01 1.04-1.34 1.55-3.41 1.55-6.21 0-2.76-.66-4.86-1.99-6.31s-3.26-2.17-5.78-2.17c-.97 0-2.02.08-3.14.26-1.13.18-2.12.4-3 .66l-2.68-1.67v-20.34h17.61c1.05 0 1.76-.13 2.12-.39.37-.26.71-.78 1.03-1.58"/><text x="3479.09" y="1927.9" fill-opacity="0" font-family="Arial,Arial_MSFontService,sans-serif" font-size="43.099">π‘΄π‘«π“</text><path d="M3532.08 1341.5v338.2h-9.16v-338.2Zm18.34 333.61-22.92 45.84-22.92-45.84Z"/><path fill="none" stroke="#000" stroke-miterlimit="8" stroke-width="9.167" d="m3469.5 1571.37 116.875-133.868"/><path fill-rule="evenodd" d="M3690.62 1477.63c5.03 0 8.82 1.1 11.39 3.3 2.57 2.21 3.85 5.4 3.85 9.59 0 1.43-.14 2.75-.43 3.95-.28 1.2-.73 2.39-1.33 3.57-.61 1.17-1.43 2.43-2.46 3.79a66 66 0 0 1-3.4 4.11c-1.24 1.39-3.39 3.71-6.44 6.95q-7.71 8.145-11.31 14.22h15.28c1.32 0 2.39-.08 3.2-.24q1.215-.24 1.95-.81c.48-.38.87-.87 1.15-1.48s.64-1.55 1.07-2.81h3.45l-.69 11.83h-33.35v-1.95c1.16-2.83 2.72-5.74 4.7-8.71 1.97-2.97 4.77-6.47 8.39-10.5 3.13-3.45 5.39-6.08 6.76-7.86 1.52-1.94 2.65-3.63 3.39-5.04.74-1.42 1.28-2.76 1.6-4.02.32-1.25.49-2.52.49-3.79 0-2.02-.33-3.81-.98-5.37-.65-1.55-1.64-2.77-2.98-3.66-1.33-.89-3.01-1.34-5.04-1.34-5.05 0-8.46 2.81-10.21 8.43h-4.91v-7.78c3.27-1.54 6.33-2.66 9.18-3.35 2.85-.68 5.41-1.03 7.68-1.03m-43.12 0h2.23c-.16 2.59-.25 6.19-.25 10.78v34.61c0 1.57.09 2.75.27 3.55.17.79.48 1.44.93 1.94s1.09.89 1.93 1.18c.83.28 1.89.5 3.16.65s2.94.25 5.02.3v2.96h-29.95v-2.96c3-.13 5.14-.32 6.43-.55 1.28-.23 2.26-.57 2.93-1.03.68-.46 1.17-1.11 1.48-1.95.31-.83.47-2.2.47-4.09v-32.87q0-1.62-.57-2.37c-.38-.5-.93-.75-1.66-.75-.86 0-2.09.45-3.69 1.34q-2.385 1.335-5.91 3.69l-1.79-3.12Zm-37.53-2.03h3.16l-.61 9.41h-23.3v17.79c1.4-.6 2.93-1.04 4.58-1.34s3.29-.44 4.94-.44c3.22 0 6.07.65 8.55 1.96 2.49 1.31 4.41 3.18 5.76 5.59 1.35 2.42 2.03 5.22 2.03 8.41 0 3.62-.76 6.73-2.27 9.32-1.52 2.6-3.71 4.57-6.57 5.92s-6.25 2.03-10.17 2.03q-7.02 0-14.67-2.88v-8.59h4.9c.81 2.75 2.03 4.78 3.67 6.08 1.63 1.29 3.75 1.94 6.34 1.94 3.59 0 6.31-1.08 8.15-3.24 1.83-2.16 2.75-5.39 2.75-9.69 0-2.86-.48-5.23-1.46-7.11-.97-1.88-2.28-3.23-3.93-4.07s-3.56-1.26-5.75-1.26c-1.84 0-3.42.12-4.74.35-1.33.23-2.75.58-4.26 1.07l-3.24-1.9v-26.67h22.33c.92 0 1.58-.08 1.99-.22.4-.15.72-.38.97-.69.24-.31.52-.9.85-1.77"/><text x="3581.4" y="1526.92" fill-opacity="0" font-family="Arial,Arial_MSFontService,sans-serif" font-size="58.643">512</text><path fill="#d74514" fill-rule="evenodd" d="M3511.75 1076.69c5.03 0 8.82 1.11 11.39 3.31s3.85 5.39 3.85 9.58c0 1.43-.14 2.75-.43 3.95-.28 1.21-.73 2.4-1.33 3.57-.61 1.18-1.43 2.44-2.45 3.79a70 70 0 0 1-3.41 4.11c-1.24 1.39-3.39 3.71-6.44 6.95-5.14 5.43-8.91 10.18-11.31 14.23h15.28c1.32 0 2.39-.08 3.2-.24.81-.17 1.46-.44 1.95-.82.48-.37.87-.87 1.15-1.47.28-.61.64-1.55 1.07-2.82h3.45l-.69 11.83h-33.35v-1.94c1.16-2.84 2.73-5.74 4.7-8.72 1.97-2.97 4.77-6.47 8.39-10.49 3.13-3.46 5.39-6.08 6.76-7.86 1.52-1.95 2.65-3.63 3.39-5.05s1.28-2.76 1.6-4.01c.32-1.26.49-2.52.49-3.79 0-2.03-.33-3.82-.98-5.37-.64-1.56-1.64-2.78-2.98-3.67-1.33-.89-3.01-1.34-5.04-1.34-5.05 0-8.46 2.81-10.21 8.43h-4.91v-7.78c3.27-1.54 6.33-2.65 9.18-3.34s5.41-1.04 7.68-1.04m-43.12 0h2.23c-.16 2.6-.25 6.19-.25 10.79v34.61q0 2.34.27 3.54.255 1.2.93 1.95c.45.5 1.09.89 1.93 1.17.83.29 1.89.5 3.16.65s2.94.25 5.02.3v2.96h-29.95v-2.96c3-.13 5.14-.31 6.43-.54 1.28-.23 2.26-.58 2.93-1.04.68-.46 1.17-1.1 1.48-1.94s.47-2.2.47-4.09v-32.87q0-1.62-.57-2.37c-.38-.5-.93-.75-1.66-.75-.86 0-2.09.44-3.69 1.33q-2.385 1.35-5.91 3.69l-1.79-3.12Zm-37.53-2.02h3.16l-.61 9.4h-23.3v17.79c1.4-.59 2.93-1.04 4.58-1.34 1.65-.29 3.3-.44 4.94-.44 3.22 0 6.07.65 8.55 1.96 2.49 1.32 4.41 3.18 5.76 5.6s2.03 5.22 2.03 8.41c0 3.62-.76 6.72-2.27 9.32-1.52 2.59-3.71 4.56-6.57 5.92-2.86 1.35-6.25 2.02-10.17 2.02q-7.02 0-14.67-2.88v-8.59h4.9c.81 2.76 2.03 4.78 3.67 6.08 1.63 1.3 3.75 1.95 6.34 1.95 3.6 0 6.31-1.08 8.15-3.25 1.83-2.16 2.75-5.39 2.75-9.68 0-2.87-.48-5.24-1.46-7.11q-1.455-2.82-3.93-4.08c-1.64-.83-3.56-1.25-5.75-1.25-1.84 0-3.42.11-4.74.34q-1.995.345-4.26 1.08l-3.24-1.91v-26.67h22.33c.92 0 1.58-.07 1.99-.22.4-.15.73-.38.97-.69s.53-.9.85-1.76"/><text x="3402.53" y="1125.98" fill-opacity="0" font-family="Arial,Arial_MSFontService,sans-serif" font-size="58.643">512</text><path fill="#d74514" fill-rule="evenodd" d="M3580.53 1098.01c-1.3 0-2.57.41-3.83 1.24-1.26.82-2.66 2.19-4.2 4.09-1.54 1.91-2.79 3.86-3.76 5.86-.98 2-1.8 4.55-2.48 7.66l-.36 1.7a26 26 0 0 0-.61 5.51c0 2.14.47 3.68 1.4 4.62.93.95 2.48 1.42 4.64 1.42 1.11 0 2.16-.18 3.16-.55q1.5-.54 3.06-1.8c1.04-.84 2.03-1.94 2.96-3.3.93-1.37 1.79-3.05 2.57-5.05.79-2 1.39-4.14 1.83-6.42.43-2.29.64-4.47.64-6.55 0-2.81-.39-4.92-1.19-6.32-.8-1.41-2.07-2.11-3.83-2.11m33.57-4.46h2.39l-5.83 26.02q-.9 3.975-.9 6c0 1.08.18 1.87.53 2.35.35.49.91.73 1.66.73.81 0 1.68-.33 2.6-.99s2.21-1.93 3.89-3.79l2.31 2.27q-3.975 4.17-6.45 5.67c-1.64 1-3.5 1.5-5.55 1.5-1.76 0-3.16-.64-4.21-1.92-1.06-1.29-1.58-2.93-1.58-4.93 0-2.05.37-4.67 1.13-7.86l3.04-13.25c.62-2.7.93-4.73.93-6.08 0-1.22-.29-2.04-.87-2.47-.58-.44-1.72-.68-3.42-.73l.44-2.15Zm25.03-9.64h5.59l-2.23 10.01h12.32l-.89 4.09h-12.32l-3.61 15.73c-.7 3.05-1.15 5.25-1.33 6.58-.19 1.34-.29 2.41-.29 3.22 0 3.35 1.39 5.03 4.18 5.03 1.19 0 2.45-.45 3.79-1.36 1.33-.9 2.92-2.45 4.76-4.64l2.35 2.43c-2.35 2.84-4.62 4.93-6.79 6.29-2.18 1.35-4.45 2.02-6.83 2.02-5.65 0-8.47-2.85-8.47-8.55 0-1.81.23-3.71.69-5.71l4.78-21.04h-6.81l.61-2.79c1.6-.03 2.8-.15 3.63-.37.82-.22 1.51-.51 2.07-.89.55-.38 1.06-.92 1.52-1.62.45-.7.9-1.6 1.33-2.7q.645-1.635 1.95-5.73m-26.12-5.88h7.17l-1.86 7.86h-7.18Zm-39.57-3.32h2.35l-7.14 28.37.53.16q3.93-5.265 7.38-7.62c2.29-1.57 4.59-2.35 6.89-2.35q4.41 0 6.87 3.36c1.63 2.25 2.45 5.41 2.45 9.49 0 4.46-.9 8.84-2.7 13.15-1.79 4.31-4.29 7.73-7.47 10.25-3.19 2.53-6.76 3.79-10.7 3.79-3.6 0-6.78-.88-9.57-2.63l-3.73 2.63-2.59-.65 10.5-46.32c.62-2.76.93-4.75.93-6 0-1.13-.35-1.93-1.03-2.39-.69-.46-1.93-.71-3.71-.77l.48-2.11Z"/><text x="3556.01" y="1125.99" fill-opacity="0" font-family="Arial,Arial_MSFontService,sans-serif" font-size="58.602">π‘π‘–π‘΅</text><path fill="#d74514" d="M3693.5 1098.92h106.7v9.16h-106.7Zm102.12-18.34 45.83 22.92-45.83 22.92Zm-433.89 18.337h-107.98v9.167h107.98Zm-103.397-18.333L3212.5 1103.5l45.833 22.917Z"/><path d="M2993.5 1881.92h326.79v9.16H2993.5Zm322.21-18.34 45.83 22.92-45.83 22.92Z"/><path fill="none" stroke="#000" stroke-miterlimit="8" stroke-width="9.167" d="m3154.5 1954.37 116.875-133.868"/><path fill-rule="evenodd" d="M3267.04 1762.19q-3 0-5.04.93c-1.37.62-2.47 1.46-3.32 2.51-.86 1.05-1.46 2.29-1.83 3.71a18.5 18.5 0 0 0-.55 4.56c0 1.75.21 3.4.61 4.92.41 1.53 1.05 2.85 1.93 3.95.88 1.11 2 1.99 3.38 2.64s3.05.97 5.03.97c2.21 0 4.11-.45 5.69-1.36 1.58-.9 2.78-2.25 3.61-4.03.82-1.78 1.23-3.89 1.23-6.32 0-2.6-.44-4.83-1.33-6.71-.9-1.88-2.15-3.31-3.77-4.3q-2.43-1.47-5.64-1.47m.21-25.54c-3.41 0-6.01.93-7.8 2.78-1.8 1.85-2.7 4.48-2.7 7.88q0 2.4.57 4.5c.38 1.41.98 2.62 1.82 3.65.84 1.02 1.93 1.84 3.26 2.45 1.34.61 2.98.91 4.93.91 2.24 0 4.12-.44 5.65-1.32 1.53-.87 2.66-2.16 3.41-3.85.74-1.68 1.11-3.64 1.11-5.85q0-3.645-1.32-6.18c-.88-1.69-2.08-2.94-3.62-3.75s-3.31-1.22-5.31-1.22m.08-3.44c3.89 0 7.16.55 9.81 1.64 2.64 1.09 4.64 2.67 5.97 4.74q2.01 3.105 2.01 7.44 0 4.455-2.19 7.68c-1.46 2.15-3.71 3.9-6.77 5.25l.08.52c3.06 1.19 5.37 2.93 6.93 5.21 1.57 2.28 2.35 5.03 2.35 8.25 0 3.16-.75 5.94-2.27 8.35-1.51 2.4-3.7 4.26-6.58 5.57s-6.24 1.97-10.07 1.97c-3.6 0-6.75-.61-9.46-1.81-2.72-1.2-4.83-2.96-6.33-5.27q-2.25-3.465-2.25-8.16c0-2.35.41-4.39 1.22-6.12s1.87-3.16 3.18-4.28 2.97-2.14 4.97-3.06l-.09-.53c-5.8-2.51-8.71-6.82-8.71-12.92 0-2.79.76-5.27 2.29-7.46s3.7-3.9 6.53-5.15c2.82-1.24 5.95-1.86 9.38-1.86m-45.96 0c5.02 0 8.82 1.1 11.39 3.3 2.56 2.2 3.85 5.4 3.85 9.59 0 1.43-.15 2.75-.43 3.95s-.73 2.39-1.34 3.56c-.6 1.18-1.42 2.44-2.45 3.79a70 70 0 0 1-3.4 4.12c-1.25 1.39-3.39 3.71-6.45 6.95-5.13 5.43-8.9 10.17-11.3 14.22h15.28c1.32 0 2.39-.08 3.2-.24s1.46-.43 1.94-.81c.49-.38.87-.87 1.16-1.48.28-.61.64-1.55 1.07-2.82h3.45l-.69 11.84h-33.36v-1.95c1.16-2.84 2.73-5.74 4.7-8.71 1.98-2.97 4.77-6.47 8.39-10.5 3.14-3.46 5.39-6.08 6.77-7.86 1.51-1.95 2.64-3.63 3.39-5.05.74-1.41 1.27-2.75 1.6-4.01.32-1.26.48-2.52.48-3.79 0-2.02-.32-3.81-.97-5.37-.65-1.55-1.64-2.77-2.98-3.67-1.34-.89-3.02-1.33-5.04-1.33-5.06 0-8.46 2.81-10.22 8.43h-4.9v-7.78c3.27-1.54 6.33-2.66 9.18-3.35s5.41-1.03 7.68-1.03m-43.12 0h2.22c-.16 2.59-.24 6.19-.24 10.78v34.61c0 1.57.09 2.75.26 3.55.18.79.49 1.44.94 1.94.44.5 1.08.89 1.92 1.18.84.28 1.89.5 3.16.64 1.27.15 2.95.25 5.03.31v2.96h-29.95v-2.96c3-.14 5.14-.32 6.42-.55 1.29-.23 2.27-.57 2.94-1.03.68-.46 1.17-1.11 1.48-1.95s.47-2.2.47-4.09v-32.87q0-1.62-.57-2.37c-.38-.5-.93-.75-1.66-.75-.87 0-2.1.45-3.69 1.34s-3.57 2.12-5.92 3.69l-1.78-3.12Z"/><text x="3159.28" y="1782.75" fill-opacity="0" font-family="Arial,Arial_MSFontService,sans-serif" font-size="56.617">128</text><path fill-rule="evenodd" d="M3171.08 1976.92h16.78l-.45 1.98c-1.19.14-2.11.49-2.78 1.06-.66.56-1.12 1.35-1.39 2.37-.27 1.01-.41 2.37-.41 4.07 0 .41.04 1.62.12 3.65l1.14 29.66v3.25h.4l17.55-31.66q1.545-2.79 2.31-4.8c.51-1.34.77-2.52.77-3.54 0-2.27-1.35-3.63-4.05-4.06l.44-1.98h16.58l-.45 1.98c-.73.11-1.42.39-2.08.83-.67.45-1.41 1.19-2.23 2.23-.83 1.04-2.1 3.05-3.83 6.02l-25.94 44.91h-5.39l-2.72-45.19c-.1-1.76-.3-3.27-.58-4.52-.29-1.26-.73-2.24-1.34-2.94s-1.57-1.15-2.9-1.34Zm-18.81-.65c2.46 0 4.73.15 6.83.44 2.09.3 4.42.84 6.99 1.63l-2.43 10.98h-3.89c-.22-3.33-.94-5.72-2.17-7.2-1.23-1.47-3.21-2.2-5.94-2.2-3.73 0-7.19 1.86-10.39 5.59s-5.74 8.65-7.6 14.77c-1.87 6.12-2.8 11.8-2.8 17.04 0 4.11.73 7.14 2.19 9.08 1.46 1.95 3.7 2.92 6.73 2.92 2.02 0 3.79-.31 5.31-.91 1.51-.61 2.93-1.64 4.25-3.08q1.995-2.175 3.93-6.06h3.89l-2.47 11.51c-5.05 1.4-10.35 2.11-15.89 2.11-5.07 0-8.94-1.46-11.59-4.38-2.64-2.92-3.97-7.19-3.97-12.81q0-5.955 2.13-13.74c1.42-5.18 3.42-9.74 6.02-13.65 2.59-3.92 5.66-6.91 9.2-8.96s7.43-3.08 11.67-3.08"/><text x="3123.25" y="2025.81" fill-opacity="0" font-family="Arial,Arial_MSFontService,sans-serif" font-size="56.617">π¶π‘‰</text><path fill-rule="evenodd" d="M3216.98 2010.45h12.57l-.33 1.79c-.69.18-1.24.33-1.65.46s-.75.4-1.04.82q-.435.615-.78 1.86c-.22.82-.52 2.03-.87 3.62l-6.05 26.92h7.77c1.1 0 2.04-.09 2.83-.28.8-.19 1.53-.59 2.21-1.19q1.005-.915 1.95-2.58.93-1.665 2.07-4.44h3.27l-3.06 11.65h-26.24l.32-1.82c.62-.1 1.13-.22 1.52-.37.4-.15.75-.44 1.06-.86.31-.43.59-1.07.83-1.92.25-.86.55-2.05.88-3.58l4.89-21.71c.2-.87.35-1.65.44-2.32.1-.68.15-1.26.15-1.73 0-.88-.22-1.5-.68-1.86-.46-.37-1.29-.56-2.5-.58Z"/><text x="3209.63" y="2044.25" fill-opacity="0" font-family="Arial,Arial_MSFontService,sans-serif" font-size="38.631">πΏ</text><path fill-rule="evenodd" d="M3246.95 2029.36h34.32v4.56h-34.32Z"/><text x="3246.95" y="2033.35" fill-opacity="0" font-family="Arial,Arial_MSFontService,sans-serif" font-size="4.557">β’</text><path fill-rule="evenodd" d="M3305.57 2010.72h1.81c-.04 1.09-.07 2.07-.08 2.93-.02.86-.04 1.7-.05 2.52-.01.81-.01 1.62-.01 2.41v22.64q0 .915.06 1.59c.03.45.1.82.19 1.13s.21.57.36.79.32.41.52.57c.24.24.55.42.95.55s.9.24 1.52.33 1.35.16 2.22.21c.86.04 1.9.08 3.11.1v2.59h-23.62v-2.59c1.17-.04 2.17-.09 2.98-.13.81-.05 1.51-.12 2.08-.21a10 10 0 0 0 1.39-.3c.35-.11.65-.24.91-.4.28-.18.51-.38.71-.58.2-.21.36-.48.48-.79.12-.32.21-.71.28-1.16.07-.46.11-1.03.11-1.7v-21.36c0-.77-.15-1.32-.45-1.64-.3-.31-.72-.47-1.28-.47-.62 0-1.53.31-2.74.95s-2.78 1.58-4.71 2.83a30 30 0 0 1-.71-1.37c-.22-.46-.45-.92-.69-1.4 2.47-1.35 4.9-2.7 7.32-4.04 2.41-1.34 4.86-2.67 7.34-4"/><text x="3290.91" y="2044.29" fill-opacity="0" font-family="Arial,Arial_MSFontService,sans-serif" font-size="38.363">1</text><path fill-rule="evenodd" d="M1865.38 1246.46c1.4 0 2.58.49 3.52 1.48.95.99 1.42 2.23 1.42 3.75 0 1.51-.47 2.76-1.42 3.75-.94.98-2.12 1.48-3.52 1.48-1.41 0-2.58-.5-3.53-1.48-.94-.99-1.42-2.24-1.42-3.75 0-1.52.48-2.76 1.42-3.75.95-.99 2.12-1.48 3.53-1.48m-24.56 0c1.4 0 2.58.49 3.53 1.48.94.99 1.41 2.23 1.41 3.75q0 2.265-1.41 3.75c-.95.98-2.13 1.48-3.53 1.48-1.41 0-2.58-.5-3.53-1.48q-1.41-1.485-1.41-3.75c0-1.52.47-2.76 1.41-3.75.95-.99 2.12-1.48 3.53-1.48m-24.56 0c1.4 0 2.58.49 3.53 1.48.94.99 1.41 2.23 1.41 3.75q0 2.265-1.41 3.75c-.95.98-2.13 1.48-3.53 1.48-1.41 0-2.58-.5-3.53-1.48q-1.41-1.485-1.41-3.75c0-1.52.47-2.76 1.41-3.75.95-.99 2.12-1.48 3.53-1.48"/><text x="1811.32" y="1255.61" fill-opacity="0" font-family="Arial,Arial_MSFontService,sans-serif" font-size="10.456">β‹―</text><path fill-rule="evenodd" d="M3005.83 1246.46c1.4 0 2.58.49 3.52 1.48.95.99 1.42 2.23 1.42 3.75 0 1.51-.47 2.76-1.42 3.75-.94.98-2.12 1.48-3.52 1.48-1.41 0-2.58-.5-3.53-1.48-.94-.99-1.42-2.24-1.42-3.75 0-1.52.48-2.76 1.42-3.75.95-.99 2.12-1.48 3.53-1.48m-24.56 0c1.4 0 2.58.49 3.52 1.48.95.99 1.42 2.23 1.42 3.75 0 1.51-.47 2.76-1.42 3.75-.94.98-2.12 1.48-3.52 1.48-1.41 0-2.58-.5-3.53-1.48-.94-.99-1.42-2.24-1.42-3.75 0-1.52.48-2.76 1.42-3.75.95-.99 2.12-1.48 3.53-1.48m-24.56 0c1.4 0 2.58.49 3.52 1.48.95.99 1.42 2.23 1.42 3.75 0 1.51-.47 2.76-1.42 3.75-.94.98-2.12 1.48-3.52 1.48-1.41 0-2.58-.5-3.53-1.48-.94-.99-1.42-2.24-1.42-3.75 0-1.52.48-2.76 1.42-3.75.95-.99 2.12-1.48 3.53-1.48"/><text x="2951.76" y="1255.61" fill-opacity="0" font-family="Arial,Arial_MSFontService,sans-serif" font-size="10.456">β‹―</text><path fill="#f8ccb9" d="M3101 623h485v190h-485z"/><path fill="#d74514" fill-rule="evenodd" d="M3307.12 695.826c-1.92 0-3.43.844-4.54 2.533-1.1 1.689-1.9 4.201-2.39 7.538-.48 3.337-.73 7.68-.73 13.03 0 5.944.27 10.672.79 14.184.53 3.513 1.36 6.1 2.5 7.761 1.13 1.662 2.64 2.493 4.54 2.493 1.02 0 1.92-.25 2.69-.75q1.155-.75 2.07-2.351t1.56-4.255.93-6.606c.19-2.634.28-5.573.28-8.815q0-7.254-.54-12.198-.555-4.945-1.56-7.62-1.02-2.675-2.4-3.809c-.91-.757-1.98-1.135-3.2-1.135m-50 0c-1.92 0-3.43.844-4.54 2.533-1.1 1.689-1.9 4.201-2.39 7.538-.48 3.337-.73 7.68-.73 13.03 0 5.944.27 10.672.79 14.184.53 3.513 1.36 6.1 2.5 7.761 1.13 1.662 2.64 2.493 4.54 2.493 1.02 0 1.92-.25 2.69-.75q1.155-.75 2.07-2.351t1.56-4.255.93-6.606c.19-2.634.28-5.573.28-8.815q0-7.254-.54-12.198-.555-4.945-1.56-7.62-1.02-2.675-2.4-3.809c-.91-.757-1.98-1.135-3.2-1.135m50.25-4.539c6.64 0 11.6 2.263 14.87 6.788s4.9 11.449 4.9 20.771c0 9.564-1.73 16.798-5.2 21.702q-5.22 7.356-15.3 7.356-9.975 0-14.73-6.91-4.77-6.91-4.77-20.892 0-14.022 5.31-21.419c3.54-4.931 8.51-7.396 14.92-7.396m-50 0c6.64 0 11.6 2.263 14.87 6.788s4.9 11.449 4.9 20.771c0 9.564-1.73 16.798-5.2 21.702q-5.22 7.356-15.3 7.356-9.975 0-14.73-6.91-4.77-6.91-4.77-20.892 0-14.022 5.31-21.419c3.54-4.931 8.51-7.396 14.92-7.396m-46.25 0h5.19q-.24 3.89-.24 10.78v33.881c0 1.567.08 2.749.26 3.546q.27 1.196.93 1.946c.45.499 1.09.891 1.93 1.175.83.284 1.89.5 3.16.648s2.94.25 5.02.304v3.688h-34.97v-3.688q4.5-.202 6.42-.547c1.29-.23 2.26-.574 2.94-1.033.68-.46 1.17-1.108 1.48-1.946s.47-2.202.47-4.093v-29.301q0-1.662-.63-2.391c-.42-.487-1-.73-1.73-.73q-1.005 0-2.85.932-1.845.933-6.06 3.81l-2.47-4.296Z"/><text x="3189.97" y="740.827" fill-opacity="0" font-family="Arial,Arial_MSFontService,sans-serif" font-size="56.617">πππ</text><path fill="#d74514" fill-rule="evenodd" d="M3404.98 718.319c1.41 0 2.59.493 3.53 1.479.95.986 1.42 2.236 1.42 3.749s-.47 2.762-1.42 3.749c-.94.986-2.12 1.479-3.53 1.479-1.4 0-2.58-.493-3.52-1.479-.95-.987-1.42-2.236-1.42-3.749s.47-2.763 1.42-3.749c.94-.986 2.12-1.479 3.52-1.479m-24.55 0c1.4 0 2.58.493 3.52 1.479.95.986 1.42 2.236 1.42 3.749s-.47 2.762-1.42 3.749c-.94.986-2.12 1.479-3.52 1.479-1.41 0-2.59-.493-3.53-1.479-.95-.987-1.42-2.236-1.42-3.749s.47-2.763 1.42-3.749c.94-.986 2.12-1.479 3.53-1.479m-24.56 0c1.4 0 2.58.493 3.52 1.479.95.986 1.42 2.236 1.42 3.749s-.47 2.762-1.42 3.749c-.94.986-2.12 1.479-3.52 1.479-1.41 0-2.58-.493-3.53-1.479s-1.42-2.236-1.42-3.749.47-2.763 1.42-3.749 2.12-1.479 3.53-1.479"/><text x="3350.92" y="727.468" fill-opacity="0" font-family="Arial,Arial_MSFontService,sans-serif" font-size="10.456">β‹―</text><path fill="#d74514" fill-rule="evenodd" d="M3453.9 695.826c-1.91 0-3.43.844-4.53 2.533q-1.665 2.533-2.4 7.538c-.48 3.337-.73 7.68-.73 13.03 0 5.944.27 10.672.79 14.184.53 3.513 1.36 6.1 2.5 7.761 1.13 1.662 2.65 2.493 4.54 2.493 1.02 0 1.92-.25 2.69-.75q1.155-.75 2.07-2.351t1.56-4.255.93-6.606c.19-2.634.28-5.573.28-8.815q0-7.254-.54-12.198-.555-4.945-1.56-7.62c-.68-1.783-1.48-3.053-2.39-3.809q-1.38-1.135-3.21-1.135m.25-4.539c6.64 0 11.6 2.263 14.87 6.788s4.9 11.449 4.9 20.771c0 9.564-1.73 16.798-5.2 21.702q-5.205 7.356-15.3 7.356-9.975 0-14.73-6.91-4.77-6.91-4.77-20.892 0-14.022 5.31-21.419c3.54-4.931 8.51-7.396 14.92-7.396"/><text x="3433.92" y="740.827" fill-opacity="0" font-family="Arial,Arial_MSFontService,sans-serif" font-size="56.617">π</text><path fill="#f8ccb9" d="M3604 623h237v190h-237z"/><path fill="#d74514" d="M3931 1776h583v221h-583z"/><path fill="#fff" fill-rule="evenodd" d="M4111.3 1889.51c-2.79 0-4.88.93-6.29 2.81q-2.1 2.82-2.1 8.13c0 3.86.71 6.77 2.12 8.71 1.42 1.95 3.54 2.92 6.35 2.92 2.73 0 4.79-.96 6.2-2.88 1.4-1.92 2.11-4.6 2.11-8.06 0-3.62-.76-6.47-2.27-8.53-1.52-2.07-3.56-3.1-6.12-3.1m.2-24.97q-4.02 0-6.06 2.43c-1.36 1.62-2.05 4.01-2.05 7.18 0 3.54.7 6.24 2.09 8.12s3.43 2.82 6.1 2.82c2.62 0 4.59-.89 5.9-2.66s1.96-4.29 1.96-7.55q0-5.04-2.04-7.68c-1.37-1.77-3.33-2.66-5.9-2.66m.2-4.54c6.57 0 11.53 1.2 14.88 3.61 3.35 2.4 5.02 5.81 5.02 10.21 0 2.92-.76 5.47-2.29 7.66s-3.83 3.95-6.91 5.27l.08.53c3.14 1.21 5.51 2.97 7.11 5.27 1.61 2.29 2.42 5.03 2.42 8.22s-.86 5.98-2.56 8.37q-2.55 3.585-7.35 5.55c-3.2 1.31-6.95 1.97-11.25 1.97q-6.12 0-10.68-1.8c-3.04-1.21-5.4-2.96-7.07-5.27-1.68-2.31-2.51-5.04-2.51-8.17 0-3.05.78-5.7 2.35-7.94 1.56-2.25 4.01-4.1 7.33-5.56l-.08-.52c-5.97-2.6-8.95-6.91-8.95-12.93 0-2.76.85-5.23 2.57-7.44 1.71-2.2 4.15-3.92 7.31-5.16 3.17-1.25 6.69-1.87 10.58-1.87m-50.61 0c3.98 0 7.22.54 9.73 1.6 2.51 1.07 4.33 2.52 5.45 4.34s1.68 3.95 1.68 6.38c0 2.14-.4 4.12-1.19 5.96-.8 1.84-2.18 3.93-4.14 6.28-1.95 2.35-5.26 5.72-9.91 10.09-1.43 1.35-3.14 3.13-5.12 5.33-1.99 2.2-3.56 4.09-4.72 5.66v.4h14.38c1.76 0 3.07-.13 3.94-.38.86-.26 1.54-.71 2.04-1.34.5-.64.91-1.59 1.24-2.86h4.66l-.93 14.51h-37.13v-2.67c2.08-4.79 6.34-10.95 12.77-18.49 2.92-3.43 5.14-6.25 6.67-8.47 1.52-2.21 2.66-4.31 3.42-6.28q1.14-2.955 1.14-6.12c0-2.97-.67-5.3-1.99-6.99s-3.13-2.53-5.43-2.53c-4.41 0-7.23 3.17-8.47 9.52h-7.3v-9.56c4.41-1.78 7.96-2.96 10.66-3.53 2.7-.56 5.55-.85 8.55-.85m-45.84 0h5.19c-.16 2.6-.24 6.19-.24 10.78v33.88c0 1.57.09 2.75.26 3.55.18.8.49 1.44.93 1.94.45.5 1.09.9 1.93 1.18s1.89.5 3.16.65 2.95.25 5.03.3v3.69h-34.98v-3.69c3-.13 5.14-.32 6.42-.55 1.29-.22 2.27-.57 2.94-1.03.68-.46 1.17-1.11 1.48-1.94.31-.84.47-2.21.47-4.1v-29.3c0-1.11-.21-1.9-.63-2.39s-.99-.73-1.72-.73c-.68 0-1.63.31-2.86.93q-1.845.93-6.06 3.81l-2.47-4.29Z"/><text x="3994.1" y="1909.58" fill-opacity="0" font-family="Arial,Arial_MSFontService,sans-serif" font-size="56.657">πππ–</text><path fill="#fff" fill-rule="evenodd" d="M4185.13 1881.08c-1.78 0-3.6.87-5.45 2.61a20.5 20.5 0 0 0-4.44 6.06c-1.11 2.3-2.12 5.54-3.04 9.73l-.32 1.49c-.44 2-.65 3.96-.65 5.88q0 2.955.99 4.26c.66.86 1.78 1.29 3.34 1.29 1.36 0 2.59-.3 3.69-.91 1.11-.61 2.16-1.6 3.14-2.98.99-1.38 1.95-3.15 2.88-5.33.93-2.17 1.74-4.77 2.41-7.8q1.02-4.53 1.02-8.43c0-2-.29-3.48-.88-4.44-.58-.95-1.47-1.43-2.69-1.43m37.96-5.76h4.62l-6.48 27.88c-.27 1.14-.45 2.02-.55 2.64-.09.62-.14 1.32-.14 2.11 0 1.05.18 1.78.53 2.18.35.41.85.61 1.5.61.78 0 1.66-.37 2.63-1.11.97-.75 2.12-1.87 3.45-3.39l2.91 2.92c-2.64 2.7-5.02 4.62-7.11 5.76-2.09 1.13-4.4 1.7-6.91 1.7-2.86 0-4.96-.7-6.28-2.11-1.32-1.4-1.99-3.53-1.99-6.36 0-1.81.3-3.93.89-6.36l3.41-14.11c.62-2.57.93-4.59.93-6.08q0-1.575-.75-2.25c-.5-.44-1.55-.75-3.14-.91l.61-2.67Zm26.88-9.69h9.73l-2.35 10.14h9.85l-1.1 5.06h-9.93l-3.93 16.21c-.67 2.79-1.14 4.9-1.4 6.35-.25 1.44-.38 2.66-.38 3.66 0 1.27.23 2.2.69 2.78s1.13.87 2.02.87c1.22 0 2.47-.43 3.75-1.3 1.29-.86 2.67-2.2 4.16-4.01l3.12 3.2c-2.73 3-5.24 5.09-7.52 6.27-2.28 1.17-4.98 1.76-8.09 1.76-3.08 0-5.44-.79-7.09-2.37s-2.47-3.76-2.47-6.55c0-1.27.09-2.48.28-3.62.19-1.15.58-3.04 1.18-5.66l4.17-17.59h-6.32l.77-3.28c1.89 0 3.32-.18 4.3-.53.97-.35 1.79-.87 2.45-1.58.66-.7 1.3-1.77 1.92-3.2.63-1.43 1.35-3.63 2.19-6.61m-29.84-6.03h10.38l-2.11 9.93h-10.49Zm-43.19-1.67h4.74l-6.2 24.81.53.16c2.35-2.76 4.56-4.74 6.63-5.96 2.06-1.21 4.53-1.82 7.39-1.82 3.08 0 5.47 1.11 7.16 3.32 1.69 2.22 2.53 5.42 2.53 9.61 0 2.37-.28 4.99-.85 7.84s-1.37 5.38-2.39 7.58c-1.03 2.2-2.26 4.12-3.69 5.77a20.7 20.7 0 0 1-4.8 4.1 22 22 0 0 1-5.74 2.45c-2.05.55-4.25.83-6.6.83-1.79 0-3.49-.22-5.11-.65s-3.3-1.19-5.03-2.27l-3.76 2.92-4.42-.65 10.25-45.8c.57-2.54.85-4.47.85-5.79 0-.84-.13-1.45-.38-1.83-.26-.37-.6-.64-1.04-.81-.43-.16-1.31-.33-2.63-.52l.65-2.64Z"/><text x="4157.33" y="1909.28" fill-opacity="0" font-family="Arial,Arial_MSFontService,sans-serif" font-size="58.684">π’ƒπ’π’•</text><text fill="#fff" font-family="Microsoft YaHei,Microsoft YaHei_MSFontService,sans-serif" font-size="83" font-weight="700" transform="translate(4292.82 1916)">ζ‘θ¦</text><path d="M3693.5 1891.083h196.315v-9.167H3693.5Zm191.731 18.333 45.834-22.916-45.834-22.917Z"/><path fill="#d74514" fill-rule="evenodd" d="M1598.38 530.076h16.21l-.45 1.986c-1.02.216-1.76.459-2.21.73-.44.27-.84.675-1.19 1.215-.35.541-.72 1.385-1.09 2.533-.38 1.149-.86 3.02-1.42 5.613l-2.88 12.929h1.34c1.13 0 2.16-.189 3.1-.568.93-.378 2.02-1.067 3.26-2.067q1.86-1.5 5.94-5.511 4.065-4.012 5.79-6.1c1.15-1.391 1.99-2.593 2.51-3.607.53-1.013.79-1.938.79-2.776q0-1.013-.81-1.641t-2.31-.75l.45-1.986h17.39l-.45 1.986c-1.08.162-2.3.723-3.67 1.682-1.36.959-3.45 2.83-6.26 5.613l-15.72 15.319 8.63 20.75c.89 2.135 1.63 3.675 2.21 4.621.58.945 1.27 1.695 2.08 2.249q1.23.83 3 1.114l-.44 1.986h-15.65l.45-1.986q2.19-.202 2.19-1.945 0-1.095-.45-2.492c-.29-.933-.65-1.898-1.05-2.898l-5.27-12.888q-.93-2.31-1.62-3.242c-.46-.621-.95-1.054-1.46-1.297s-1.31-.365-2.39-.365h-2.27l-3.36 15.32q-.525 2.431-.69 3.829a21 21 0 0 0-.16 2.493c0 1.216.3 2.074.91 2.573s1.62.804 3.06.912l-.45 1.986h-16.21l.45-1.986q1.53-.243 2.31-.79.765-.547 1.29-1.52c.35-.648.68-1.439.98-2.371.29-.932.74-2.735 1.33-5.41l6.89-31.206c.6-2.702.89-4.877.89-6.525 0-1.27-.31-2.155-.95-2.655-.63-.499-1.64-.79-3.02-.871Z"/><text x="1587.76" y="578.481" fill-opacity="0" font-family="Arial,Arial_MSFontService,sans-serif" font-size="55.32">πΎ</text><path fill="#d74514" fill-rule="evenodd" d="M1692.39 550.745c-1.29 0-2.57.412-3.83 1.236-1.25.824-2.65 2.189-4.19 4.094-1.54 1.904-2.8 3.856-3.77 5.856s-1.8 4.552-2.47 7.659l-.37 1.703q-.6 2.837-.6 5.511c0 2.135.46 3.675 1.39 4.62.94.946 2.48 1.419 4.64 1.419 1.11 0 2.17-.182 3.16-.547q1.5-.547 3.06-1.804c1.04-.837 2.03-1.938 2.96-3.303.94-1.364 1.79-3.046 2.58-5.045.78-2 1.39-4.141 1.82-6.424s.65-4.465.65-6.545q0-4.215-1.2-6.322c-.79-1.405-2.07-2.108-3.83-2.108m33.57-4.458h2.4l-5.84 26.019c-.59 2.648-.89 4.647-.89 5.998 0 1.081.17 1.864.53 2.35.35.487.9.73 1.66.73.81 0 1.67-.331 2.59-.993s2.22-1.925 3.89-3.789l2.31 2.269c-2.65 2.783-4.79 4.674-6.44 5.674q-2.475 1.5-5.55 1.5c-1.76 0-3.17-.642-4.22-1.925-1.05-1.284-1.58-2.925-1.58-4.925 0-2.053.38-4.674 1.13-7.862l3.04-13.252c.63-2.702.94-4.729.94-6.079 0-1.216-.29-2.04-.88-2.473q-.87-.648-3.42-.729l.45-2.148Zm25.03-9.645h5.59l-2.22 10.01h12.32l-.9 4.093h-12.32l-3.6 15.725c-.71 3.053-1.15 5.248-1.34 6.586-.19 1.337-.28 2.411-.28 3.221q0 5.026 4.17 5.026c1.19 0 2.45-.453 3.79-1.358s2.92-2.452 4.76-4.64l2.35 2.431c-2.35 2.837-4.61 4.931-6.79 6.282-2.17 1.351-4.45 2.027-6.82 2.027-5.65 0-8.47-2.851-8.47-8.552 0-1.81.22-3.715.68-5.714l4.79-21.034h-6.81l.61-2.796c1.59-.027 2.8-.149 3.62-.365q1.245-.324 2.07-.891c.55-.379 1.06-.919 1.52-1.622.46-.702.9-1.6 1.34-2.695.43-1.094 1.08-3.005 1.94-5.734m-26.12-5.877h7.17l-1.86 7.863h-7.17Zm-39.57-3.323h2.35l-7.13 28.369.53.162c2.62-3.512 5.08-6.052 7.37-7.619 2.3-1.567 4.6-2.35 6.89-2.35q4.425 0 6.87 3.363c1.64 2.243 2.45 5.404 2.45 9.484 0 4.458-.9 8.841-2.69 13.151-1.8 4.309-4.29 7.727-7.48 10.253s-6.75 3.79-10.7 3.79c-3.59 0-6.78-.879-9.56-2.635l-3.73 2.635-2.6-.649 10.5-46.323q.93-4.133.93-5.998c0-1.134-.34-1.932-1.03-2.391s-1.93-.716-3.71-.77l.49-2.107Z"/><text x="1667.87" y="578.719" fill-opacity="0" font-family="Arial,Arial_MSFontService,sans-serif" font-size="58.602">π‘π‘–π‘΅</text><path fill="#d74514" d="M1812.5 551.917h1228.77v9.167l-1228.77-.001Zm1224.18-18.333 45.84 22.916-45.84 22.917Zm-1493.34 18.333H367.75v9.167h1175.59Zm-1171-18.333L326.5 556.5l45.84 22.917Z"/><path fill="#d74514" fill-rule="evenodd" d="M1684.81 439.43h16.21l-.44 1.985c-1.03.217-1.77.46-2.21.73q-.675.405-1.2 1.216c-.35.54-.71 1.384-1.09 2.533-.38 1.148-.85 3.019-1.42 5.613l-8.67 39.514h9.97c1.81 0 3.23-.176 4.27-.527s2.03-.993 2.96-1.925 1.84-2.195 2.74-3.789c.89-1.594 1.79-3.58 2.71-5.958h3.93l-4.09 15.927h-34.29l.45-1.986q1.53-.243 2.31-.79.765-.547 1.29-1.52c.36-.648.68-1.438.98-2.37.29-.933.74-2.736 1.33-5.411l6.89-31.206q.9-4.053.9-6.525 0-1.905-.96-2.654c-.63-.5-1.64-.791-3.02-.872Z"/><text x="1674.19" y="487.834" fill-opacity="0" font-family="Arial,Arial_MSFontService,sans-serif" font-size="55.32">πΏ</text><path fill="#d74514" fill-rule="evenodd" d="m1747.45 448.832 18.36 18.318 18.36-18.318 3.81 3.769-18.15 18.48 18.19 18.4-4.05 4.053-18.16-18.521-18.72 18.358-3.77-3.809 18.52-18.481-18.44-18.196Z"/><text x="1743.32" y="487.946" fill-opacity="0" font-family="Arial,Arial_MSFontService,sans-serif" font-size="44.702">Γ—</text><path fill="#d74514" fill-rule="evenodd" d="M1928.67 438.781c5.03 0 8.82 1.101 11.39 3.303s3.85 5.397 3.85 9.585q0 2.148-.42 3.951a15.7 15.7 0 0 1-1.34 3.567c-.61 1.175-1.43 2.438-2.45 3.789a70 70 0 0 1-3.41 4.113c-1.24 1.392-3.39 3.709-6.44 6.951-5.14 5.431-8.9 10.172-11.31 14.225h15.28c1.32 0 2.39-.081 3.2-.243q1.215-.243 1.95-.811c.48-.378.87-.871 1.15-1.479.29-.608.64-1.547 1.08-2.817h3.44l-.69 11.834h-33.35v-1.945c1.16-2.837 2.73-5.741 4.7-8.713s4.77-6.471 8.39-10.497c3.13-3.458 5.39-6.079 6.77-7.862 1.51-1.946 2.64-3.627 3.38-5.046.74-1.418 1.28-2.756 1.6-4.012.33-1.256.49-2.52.49-3.789 0-2.027-.33-3.817-.98-5.37-.64-1.554-1.64-2.776-2.97-3.668-1.34-.892-3.02-1.337-5.05-1.337-5.05 0-8.46 2.809-10.21 8.429h-4.91v-7.781q4.905-2.31 9.18-3.343 4.275-1.034 7.68-1.034m-43.12 0h2.23q-.24 3.89-.24 10.78v34.611c0 1.567.08 2.749.26 3.546q.27 1.195.93 1.945c.45.5 1.09.892 1.93 1.175.83.284 1.89.5 3.16.649 1.27.148 2.94.25 5.02.304v2.958h-29.95v-2.958c3-.135 5.14-.318 6.43-.547q1.92-.345 2.94-1.034 1.005-.688 1.47-1.945c.32-.838.47-2.202.47-4.093v-32.868q0-1.621-.57-2.371c-.37-.5-.93-.75-1.66-.75q-1.29 0-3.69 1.338-2.385 1.337-5.91 3.688l-1.79-3.121Zm-37.53-2.026h3.16l-.61 9.402h-23.3v17.792a21.5 21.5 0 0 1 4.58-1.338c1.65-.297 3.3-.446 4.94-.446 3.22 0 6.07.656 8.56 1.966 2.48 1.31 4.4 3.175 5.75 5.593s2.03 5.221 2.03 8.409c0 3.621-.76 6.728-2.27 9.321-1.52 2.594-3.7 4.566-6.57 5.917q-4.29 2.027-10.17 2.027-7.005 0-14.67-2.878v-8.591h4.9c.81 2.755 2.04 4.782 3.67 6.079s3.75 1.945 6.34 1.945c3.6 0 6.31-1.081 8.15-3.242s2.75-5.39 2.75-9.686c0-2.864-.48-5.235-1.45-7.113-.98-1.878-2.29-3.235-3.94-4.073-1.64-.837-3.56-1.256-5.75-1.256q-2.76 0-4.74.344c-1.33.23-2.74.588-4.26 1.074l-3.24-1.905V439.43h22.33c.92 0 1.58-.075 1.99-.223.4-.149.73-.379.97-.689.24-.311.53-.899.85-1.763"/><text x="1819.45" y="488.067" fill-opacity="0" font-family="Arial,Arial_MSFontService,sans-serif" font-size="58.643">512</text><path fill="#d74514" fill-rule="evenodd" d="M1997.45 460.098c-1.3 0-2.57.412-3.83 1.237-1.26.824-2.65 2.188-4.19 4.093s-2.8 3.857-3.77 5.856c-.98 1.999-1.8 4.553-2.48 7.66l-.36 1.702a26 26 0 0 0-.61 5.512c0 2.134.47 3.674 1.4 4.62.93.945 2.48 1.418 4.64 1.418a9.1 9.1 0 0 0 3.16-.547q1.5-.548 3.06-1.803c1.04-.838 2.03-1.939 2.96-3.303.93-1.365 1.79-3.047 2.57-5.046a35 35 0 0 0 1.83-6.424c.43-2.283.65-4.464.65-6.545q0-4.215-1.2-6.322c-.8-1.405-2.07-2.108-3.83-2.108m33.57-4.458h2.39l-5.83 26.019c-.6 2.648-.89 4.647-.89 5.998 0 1.081.17 1.864.52 2.351s.91.729 1.66.729c.81 0 1.68-.331 2.6-.993s2.21-1.925 3.89-3.789l2.31 2.269q-3.975 4.175-6.45 5.674-2.46 1.5-5.55 1.5c-1.75 0-3.16-.642-4.21-1.925-1.06-1.284-1.58-2.925-1.58-4.924 0-2.054.38-4.675 1.13-7.863l3.04-13.252q.93-4.053.93-6.079 0-1.824-.87-2.472-.87-.65-3.42-.73l.44-2.148Zm25.03-9.645h5.59l-2.23 10.01h12.32l-.89 4.093h-12.32l-3.61 15.725c-.7 3.053-1.14 5.248-1.33 6.586-.19 1.337-.29 2.411-.29 3.222 0 3.35 1.39 5.025 4.18 5.025 1.19 0 2.45-.452 3.79-1.358 1.33-.905 2.92-2.452 4.76-4.64l2.35 2.432c-2.35 2.837-4.61 4.93-6.79 6.281-2.17 1.351-4.45 2.027-6.83 2.027-5.64 0-8.47-2.851-8.47-8.552q0-2.715.69-5.714l4.78-21.034h-6.81l.61-2.796q2.4-.04 3.63-.365 1.23-.324 2.07-.891c.55-.379 1.06-.919 1.52-1.621.46-.703.9-1.601 1.33-2.695.44-1.095 1.08-3.006 1.95-5.735m-26.12-5.877h7.17l-1.86 7.863h-7.18Zm-39.57-3.323h2.35l-7.13 28.369.52.162q3.93-5.268 7.38-7.619c2.3-1.567 4.59-2.35 6.89-2.35q4.41 0 6.87 3.364c1.63 2.242 2.45 5.403 2.45 9.483q0 6.687-2.7 13.151-2.685 6.464-7.47 10.253c-3.19 2.527-6.76 3.79-10.7 3.79-3.6 0-6.78-.878-9.57-2.635l-3.72 2.635-2.6-.649 10.5-46.322q.93-4.135.93-5.998c0-1.135-.34-1.932-1.03-2.392s-1.93-.716-3.71-.77l.48-2.107Z"/><text x="1972.93" y="488.072" fill-opacity="0" font-family="Arial,Arial_MSFontService,sans-serif" font-size="58.602">π‘π‘–π‘΅</text><path fill="#d74514" fill-rule="evenodd" d="M2103.87 476.755h49.93v5.39h-49.93Zm0-16.819h49.93v5.39h-49.93Z"/><text x="2103.87" y="479.369" fill-opacity="0" font-family="Arial,Arial_MSFontService,sans-serif" font-size="22.209">=</text><path fill="#d74514" fill-rule="evenodd" d="M2195.47 439.43h12.93l10.7 31.57q2.31 6.809 3.57 11.51h.44c.22-1.648.71-4.39 1.48-8.227q1.155-5.755 2.13-10.051l2.84-12.766c.59-2.675.89-4.85.89-6.525 0-1.27-.32-2.154-.95-2.654-.64-.5-1.65-.791-3.02-.872l.44-1.985h14.19l-.45 1.985c-1.03.217-1.76.46-2.21.73-.44.27-.84.675-1.19 1.216s-.72 1.384-1.1 2.533c-.38 1.148-.85 3.019-1.42 5.613l-9.52 43.242h-5.51l-11.84-34.772a172 172 0 0 1-3.76-12.442h-.53c-.16 1.378-.61 4.005-1.34 7.883q-1.095 5.815-2.31 11.367l-3.57 16.171c-.56 2.567-.85 4.674-.85 6.322 0 1.216.31 2.074.92 2.574q.9.749 3.06.911l-.45 1.986h-14.19l.45-1.986q1.545-.243 2.31-.79c.51-.365.95-.871 1.3-1.52.35-.648.67-1.438.97-2.37s.74-2.736 1.34-5.411l6.89-31.206c.27-1.162.48-2.269.65-3.323q.24-1.58.24-3.202c0-1.27-.32-2.154-.95-2.654-.64-.5-1.64-.791-3.02-.872Z"/><text x="2184.85" y="487.834" fill-opacity="0" font-family="Arial,Arial_MSFontService,sans-serif" font-size="55.32">π‘</text><path fill="#d74514" fill-rule="evenodd" d="m2274.56 448.832 18.36 18.318 18.36-18.318 3.81 3.769-18.16 18.48 18.2 18.4-4.05 4.053-18.16-18.521-18.72 18.358-3.77-3.809 18.52-18.481-18.44-18.196Z"/><text x="2270.43" y="487.946" fill-opacity="0" font-family="Arial,Arial_MSFontService,sans-serif" font-size="44.702">Γ—</text><path fill="#d74514" fill-rule="evenodd" d="M2409.78 438.781c5.02 0 8.82 1.101 11.39 3.303 2.56 2.202 3.85 5.397 3.85 9.585 0 1.432-.14 2.749-.43 3.951a15.3 15.3 0 0 1-1.34 3.567c-.6 1.175-1.42 2.438-2.45 3.789a66 66 0 0 1-3.4 4.113q-1.86 2.088-6.45 6.951c-5.13 5.431-8.9 10.172-11.3 14.225h15.28c1.32 0 2.39-.081 3.2-.243s1.46-.432 1.94-.811c.49-.378.87-.871 1.16-1.479.28-.608.64-1.547 1.07-2.817h3.45l-.69 11.834h-33.36v-1.945c1.17-2.837 2.73-5.741 4.71-8.713 1.97-2.972 4.76-6.471 8.38-10.497 3.14-3.458 5.39-6.079 6.77-7.862 1.52-1.946 2.64-3.627 3.39-5.046.74-1.418 1.27-2.756 1.6-4.012q.48-1.885.48-3.789c0-2.027-.32-3.817-.97-5.37-.65-1.554-1.64-2.776-2.98-3.668q-2.01-1.337-5.04-1.337c-5.06 0-8.46 2.809-10.22 8.429h-4.9v-7.781q4.905-2.31 9.18-3.343 4.275-1.034 7.68-1.034m-46.16 0c3.05 0 5.72.473 8.02 1.419 2.3.945 4.05 2.303 5.27 4.073 1.22 1.769 1.82 3.883 1.82 6.342 0 2.297-.46 4.316-1.37 6.059q-1.38 2.614-3.87 4.559c-1.67 1.297-3.82 2.567-6.47 3.81v.365c1.65.297 3.24.803 4.76 1.519a15.2 15.2 0 0 1 4.08 2.776 13 13 0 0 1 2.85 4.073q1.08 2.371 1.08 5.411c0 3.134-.68 5.917-2.05 8.348-1.36 2.432-3.45 4.35-6.26 5.755s-6.23 2.108-10.25 2.108c-2.33 0-4.83-.264-7.52-.791-2.69-.526-5.16-1.222-7.4-2.087v-8.591h4.87c.94 2.809 2.19 4.849 3.74 6.119 1.56 1.27 3.67 1.905 6.35 1.905 3.51 0 6.16-.959 7.96-2.877q2.7-2.879 2.7-8.511 0-5.917-3.57-9.038c-2.38-2.08-5.86-3.12-10.46-3.12h-3.64v-3.567c3.64-.216 6.72-.918 9.22-2.107 2.49-1.189 4.35-2.716 5.57-4.58 1.21-1.864 1.82-3.958 1.82-6.282 0-2.999-.8-5.309-2.39-6.93s-3.92-2.431-6.97-2.431c-2.54 0-4.61.689-6.2 2.066-1.6 1.378-2.77 3.486-3.53 6.323h-4.86v-7.7c3.13-1.486 6.07-2.594 8.79-3.324 2.73-.729 5.37-1.094 7.91-1.094"/><text x="2346.31" y="488.321" fill-opacity="0" font-family="Arial,Arial_MSFontService,sans-serif" font-size="56.617">32</text><path fill="#d74514" fill-rule="evenodd" d="M2478.72 460.098c-1.29 0-2.57.412-3.83 1.237-1.25.824-2.65 2.188-4.19 4.093s-2.8 3.857-3.77 5.856-1.8 4.553-2.47 7.66l-.37 1.702q-.6 2.836-.6 5.512c0 2.134.46 3.674 1.39 4.62.94.945 2.48 1.418 4.64 1.418 1.11 0 2.17-.182 3.16-.547q1.5-.548 3.06-1.803c1.04-.838 2.03-1.939 2.96-3.303.94-1.365 1.79-3.047 2.58-5.046a36 36 0 0 0 1.82-6.424c.43-2.283.65-4.464.65-6.545q0-4.215-1.2-6.322c-.79-1.405-2.07-2.108-3.83-2.108m33.57-4.458h2.4l-5.84 26.019c-.59 2.648-.89 4.647-.89 5.998 0 1.081.17 1.864.53 2.351.35.486.9.729 1.66.729.81 0 1.67-.331 2.59-.993s2.22-1.925 3.89-3.789l2.31 2.269c-2.65 2.783-4.79 4.675-6.44 5.674q-2.475 1.5-5.55 1.5c-1.76 0-3.17-.642-4.22-1.925-1.05-1.284-1.58-2.925-1.58-4.924 0-2.054.38-4.675 1.13-7.863l3.04-13.252c.63-2.702.94-4.728.94-6.079 0-1.216-.29-2.04-.88-2.472q-.87-.65-3.42-.73l.45-2.148Zm25.03-9.645h5.59l-2.22 10.01h12.32l-.9 4.093h-12.32l-3.6 15.725c-.71 3.053-1.15 5.248-1.34 6.586-.19 1.337-.28 2.411-.28 3.222q0 5.025 4.17 5.025c1.19 0 2.45-.452 3.79-1.358 1.34-.905 2.92-2.452 4.76-4.64l2.35 2.432c-2.35 2.837-4.61 4.93-6.79 6.281-2.17 1.351-4.45 2.027-6.82 2.027-5.65 0-8.48-2.851-8.48-8.552q0-2.715.69-5.714l4.79-21.034h-6.81l.61-2.796c1.59-.027 2.8-.149 3.62-.365q1.245-.324 2.07-.891c.55-.379 1.06-.919 1.52-1.621.46-.703.9-1.601 1.34-2.695.43-1.095 1.08-3.006 1.94-5.735m-26.12-5.877h7.17l-1.86 7.863h-7.17Zm-39.57-3.323h2.35l-7.13 28.369.53.162c2.62-3.512 5.08-6.052 7.37-7.619 2.3-1.567 4.59-2.35 6.89-2.35q4.425 0 6.87 3.364c1.64 2.242 2.45 5.403 2.45 9.483 0 4.458-.9 8.842-2.69 13.151-1.8 4.309-4.29 7.727-7.48 10.253-3.19 2.527-6.75 3.79-10.7 3.79-3.59 0-6.78-.878-9.56-2.635l-3.73 2.635-2.6-.649 10.5-46.322q.93-4.135.93-5.998c0-1.135-.34-1.932-1.03-2.392s-1.93-.716-3.71-.77l.49-2.107Z"/><text x="2454.2" y="488.072" fill-opacity="0" font-family="Arial,Arial_MSFontService,sans-serif" font-size="58.602">π‘π‘–π‘΅</text><path fill="#d74514" d="M2606.5 460.917h1193.99v9.167l-1193.99-.001Zm1189.4-18.333 45.84 22.916-45.84 22.917Zm-2173.785 18.333L367.65 484.156l.17 9.165 1254.465-23.238ZM371.9 465.741l-45.4 23.761 46.25 22.064Z"/><path fill="#d74514" fill-rule="evenodd" d="M1974 936h108v-95h216v95h108l-216 95Z"/></g></svg>