<svg xmlns="http://www.w3.org/2000/svg" width="3416" height="1900" overflow="hidden"><defs><clipPath id="a"><path d="M492 168h3416v1900H492z"/></clipPath></defs><g clip-path="url(#a)" transform="translate(-492 -168)"><path fill="#f8ccb9" d="M492 242h238v308H492z"/><path fill="#d74514" fill-rule="evenodd" d="M583.63 370.119h18.886l3.161 33.84 19.21-33.84h18.845l-.568 2.675q-2.31.649-3.404 2.269t-2.067 5.998l-7.376 33.435a26 26 0 0 0-.405 2.25q-.122.952-.122 2.492 0 1.702.791 2.493.79.79 2.573 1.033l-.567 2.675h-20.385l.567-2.675q2.31-.649 3.404-2.269 1.095-1.622 2.067-5.999l3.729-17.021a258 258 0 0 1 4.377-16.981h-.811a320 320 0 0 1-4.093 7.254l-18.237 31.571h-6.566l-2.675-24.357q-.931-8.672-1.216-14.873h-.648q-1.621 10.01-3.08 16.616l-3.931 17.791a26 26 0 0 0-.405 2.25q-.122.952-.122 2.492 0 1.702.79 2.493t2.574 1.033l-.568 2.675h-14.873l.567-2.675q2.31-.649 3.404-2.269 1.095-1.622 2.067-5.999l7.376-33.435a22 22 0 0 0 .527-4.741q0-1.702-.79-2.493t-2.574-1.033Z"/><text x="572.485" y="418.524" fill-opacity="0" font-family="Arial,Arial_MSFontService,sans-serif" font-size="55.32">𝑴</text><path fill="#fdefe8" fill-rule="evenodd" d="M1189 848.5c0-60.475 49.02-109.5 109.5-109.5S1408 788.025 1408 848.5 1358.98 958 1298.5 958 1189 908.975 1189 848.5"/><path fill="#d74514" fill-rule="evenodd" d="M1281.86 822.746h39.35l-2.88 13.049h-5.19c-.13-2.566-.37-4.363-.73-5.39q-.525-1.54-1.62-2.229c-.73-.459-1.75-.689-3.08-.689h-10.17l-4.3 19.453h5.64q1.62 0 2.73-.526 1.125-.527 2.07-1.763c.64-.824 1.26-1.966 1.88-3.425h4.46l-3.89 16.454h-4.17c0-1.567-.1-2.769-.29-3.607-.18-.837-.54-1.445-1.05-1.824-.51-.378-1.39-.567-2.63-.567h-5.76l-4.78 21.642h9.12c1.19 0 2.11-.081 2.77-.243a6.1 6.1 0 0 0 1.83-.771q.825-.526 1.92-1.681c.73-.77 1.46-1.743 2.17-2.918.72-1.176 1.45-2.587 2.21-4.235h5.51l-3.73 14.589h-38.54l.57-2.674c1.54-.433 2.67-1.189 3.4-2.27q1.095-1.621 2.07-5.998l7.38-33.435c.35-1.594.52-3.175.52-4.742 0-1.135-.26-1.965-.79-2.492-.52-.527-1.38-.872-2.57-1.034Z"/><text x="1270.71" y="871.15" fill-opacity="0" font-family="Arial,Arial_MSFontService,sans-serif" font-size="55.32">𝑬</text><path fill="#fdefe8" fill-rule="evenodd" d="M1465 396c0-60.199 48.8-109 109-109s109 48.801 109 109-48.8 109-109 109-109-48.801-109-109"/><path fill="#d74514" fill-rule="evenodd" d="M1575.12 370.119h6.32v63.425h-6.32Zm-14.18 0h6.32v63.425h-6.32Z"/><text x="1560.94" y="425.616" fill-opacity="0" font-family="Arial,Arial_MSFontService,sans-serif" font-size="63.425">∥</text><path fill="#f8ccb9" d="M1998 168h238v308h-238z"/><path fill="#d74514" fill-rule="evenodd" d="M2089.79 296.167h18.89l3.16 33.84 19.21-33.84h18.85l-.57 2.675c-1.54.432-2.68 1.189-3.4 2.269q-1.095 1.622-2.07 5.999l-7.38 33.435c-.19.864-.32 1.614-.4 2.249q-.12.953-.12 2.492c0 1.135.26 1.966.79 2.493.52.527 1.38.871 2.57 1.033l-.57 2.675h-20.38l.56-2.675c1.54-.432 2.68-1.189 3.41-2.269q1.095-1.621 2.07-5.998l3.72-17.022q1.875-8.43 4.38-16.981h-.81a318 318 0 0 1-4.09 7.255l-18.24 31.57h-6.57l-2.67-24.357c-.62-5.781-1.03-10.739-1.22-14.873h-.65c-1.08 6.673-2.1 12.212-3.08 16.616l-3.93 17.792c-.19.864-.32 1.614-.4 2.249q-.12.953-.12 2.492c0 1.135.26 1.966.79 2.493.52.527 1.38.871 2.57 1.033l-.57 2.675h-14.87l.57-2.675c1.54-.432 2.67-1.189 3.4-2.269q1.095-1.621 2.07-5.998l7.37-33.435c.36-1.595.53-3.175.53-4.742 0-1.135-.26-1.966-.79-2.493s-1.38-.871-2.57-1.033Z"/><text x="2078.65" y="344.572" fill-opacity="0" font-family="Arial,Arial_MSFontService,sans-serif" font-size="55.32">𝑴</text><path fill="#fdefe8" d="M1998 479h238v145h-238z"/><path fill="#fdefe8" fill-rule="evenodd" d="M3205 396c0-60.199 48.8-109 109-109s109 48.801 109 109-48.8 109-109 109-109-48.801-109-109"/><path fill="#d74514" fill-rule="evenodd" d="M3291.74 370.119h20.39l-.57 2.675c-1.54.432-2.67 1.189-3.4 2.269q-1.095 1.621-2.07 5.998l-2.84 12.848h17.19l2.83-12.848c.36-1.594.53-3.174.53-4.741 0-1.135-.26-1.966-.79-2.493s-1.38-.871-2.57-1.033l.56-2.675h20.39l-.57 2.675c-1.54.432-2.67 1.189-3.4 2.269q-1.095 1.621-2.07 5.998l-7.37 33.435c-.19.865-.33 1.615-.41 2.25q-.12.952-.12 2.492c0 1.135.26 1.966.79 2.493s1.38.871 2.57 1.033l-.57 2.675h-20.38l.57-2.675c1.54-.432 2.67-1.189 3.4-2.269q1.095-1.622 2.07-5.999l3.4-15.481h-17.18l-3.41 15.481c-.18.892-.32 1.649-.4 2.27q-.12.931-.12 2.472c0 1.135.26 1.966.79 2.493.52.526 1.38.871 2.57 1.033l-.57 2.675h-20.38l.57-2.675c1.54-.432 2.67-1.189 3.4-2.269q1.095-1.622 2.07-5.999l7.37-33.435c.35-1.594.53-3.174.53-4.741 0-1.135-.26-1.966-.79-2.493s-1.39-.871-2.57-1.033Z"/><text x="3280.6" y="418.524" fill-opacity="0" font-family="Arial,Arial_MSFontService,sans-serif" font-size="55.32">𝑯</text><path fill-rule="evenodd" d="M3715.36 667.892c-1.38 0-2.74.466-4.07 1.399-1.34.932-2.81 2.424-4.4 4.478s-2.84 4.08-3.73 6.079-1.59 4.296-2.11 6.89l-.32 1.702q-.405 2.148-.51 3.282c-.06.757-.1 1.5-.1 2.229 0 2.108.45 3.641 1.36 4.6q1.35 1.439 4.68 1.439 2.07 0 3.81-.811 1.74-.81 3.3-2.35t2.82-3.729 2.25-5.086a37.5 37.5 0 0 0 1.5-5.957c.34-2.04.5-3.952.5-5.735 0-2.837-.39-4.951-1.19-6.343-.8-1.391-2.06-2.087-3.79-2.087m-118.17-1.499c-2.81 0-5.27 1.175-7.36 3.526s-3.74 5.714-4.94 10.091c-1.21 4.377-1.81 8.146-1.81 11.307 0 2.972.62 5.167 1.85 6.586 1.23 1.418 3.08 2.128 5.57 2.128q3.975 0 7.05-3.567 3.075-3.566 4.86-9.99c1.19-4.282 1.79-8.045 1.79-11.287q0-4.377-1.71-6.585c-1.13-1.473-2.9-2.209-5.3-2.209m244.4-.081c-2.73 0-5.36 1.378-7.88 4.134q-3.795 4.133-5.82 11.185 5.715-.04 9.81-1.033c2.73-.662 4.82-1.716 6.28-3.161q2.19-2.169 2.19-5.857c0-1.648-.38-2.938-1.15-3.87s-1.92-1.398-3.43-1.398m-84.08 0q-4.17 0-7.5 3.364-3.315 3.363-5.19 9.017-1.86 5.653-1.86 11.287c0 2.81.39 4.91 1.16 6.302q1.155 2.087 3.87 2.087c1.78 0 3.53-.77 5.24-2.31q2.58-2.31 5.31-6.586 2.745-4.276 3.87-9.868l.37-1.743q.36-1.662.48-2.877c.09-.811.13-1.689.13-2.635 0-2.08-.45-3.607-1.34-4.579-.89-.973-2.41-1.459-4.54-1.459M3598 663.151c4.32 0 7.61 1.182 9.88 3.546s3.41 5.748 3.41 10.152c0 3.134-.55 6.484-1.64 10.051q-1.65 5.349-4.5 8.997c-1.91 2.431-4.18 4.262-6.83 5.491q-3.975 1.844-9.12 1.844-6.285 0-9.75-3.526c-2.31-2.35-3.46-5.728-3.46-10.132 0-2.161.32-4.66.97-7.497.84-3.837 2.24-7.187 4.22-10.051q2.955-4.296 7.29-6.586c2.89-1.526 6.07-2.289 9.53-2.289m245.05-.041c3.27 0 5.72.662 7.36 1.986 1.63 1.324 2.45 3.391 2.45 6.201 0 4.593-2.16 8.038-6.47 10.334-4.31 2.297-10.7 3.445-19.19 3.445q-.48 2.431-.48 5.268c0 2.837.55 4.898 1.66 6.181q1.665 1.925 5.43 1.925 3.72 0 6.75-1.621c2.01-1.081 4.14-2.743 6.38-4.985l2.51 2.634c-2.62 2.891-5.27 5.066-7.96 6.525s-5.82 2.189-9.38 2.189c-3.92 0-6.95-1.196-9.1-3.587s-3.22-5.721-3.22-9.99q0-4.336 1.56-9.301c1.04-3.31 2.61-6.282 4.72-8.916s4.63-4.674 7.58-6.12c2.94-1.445 6.08-2.168 9.4-2.168m-53.79 0c1.7 0 3.04.561 4.03 1.682s1.48 2.587 1.48 4.397c0 1.351-.26 2.743-.77 4.175l.53.202c2.64-3.593 5.19-6.228 7.64-7.903 2.44-1.675 4.92-2.512 7.43-2.512q2.955 0 4.95.445l-1.95 9.079h-4.17q-.255-1.702-.69-2.635c-.3-.621-.65-1.053-1.06-1.297-.4-.243-.91-.364-1.54-.364q-1.455 0-3.18 1.256t-3.87 3.931-3.42 5.147-2.13 6.282l-3.85 17.548h-7.01l5.87-25.694c.38-1.621.63-2.878.73-3.769.11-.892.17-1.635.17-2.229 0-1.081-.18-1.864-.53-2.351s-.91-.729-1.66-.729c-.84 0-1.72.344-2.66 1.033-.93.689-2.21 1.939-3.83 3.749l-2.31-2.27q3.735-3.89 6.24-5.532c1.68-1.094 3.53-1.641 5.56-1.641m-32.56 0q2.64 0 4.92.588c1.53.392 3.1 1.087 4.72 2.087l3.73-2.675 2.6.649-5.96 25.694c-.6 2.567-.89 4.566-.89 5.998 0 1.081.17 1.864.52 2.351.36.486.91.729 1.67.729.81 0 1.67-.331 2.59-.993s2.22-1.925 3.89-3.789l2.31 2.269c-2.43 2.594-4.5 4.438-6.22 5.532s-3.57 1.642-5.57 1.642q-2.52 0-4.02-1.662c-.99-1.108-1.49-2.58-1.49-4.417q0-2.23.93-4.742l-.53-.162q-3.885 5.674-7.38 8.308c-2.32 1.756-4.78 2.634-7.37 2.634-2.97 0-5.28-1.121-6.91-3.364-1.64-2.242-2.45-5.39-2.45-9.443q0-6.97 2.73-13.394c1.83-4.282 4.33-7.659 7.52-10.132s6.74-3.708 10.66-3.708m-58.4 0q2.505 0 3.99 1.662c.99 1.107 1.48 2.58 1.48 4.417q0 2.27-.93 4.782l.48.163c5-7.322 9.97-10.983 14.92-10.983q4.41 0 6.87 3.363c1.63 2.243 2.45 5.404 2.45 9.484q0 6.687-2.7 13.151c-1.79 4.309-4.29 7.727-7.47 10.253-3.19 2.527-6.76 3.79-10.7 3.79-3.6 0-6.58-.784-8.96-2.351l-1.86 8.876c-.41 1.918-.61 3.498-.61 4.741 0 1.189.3 2.033.91 2.533s1.79.831 3.55.993l-.33 1.986h-12.52l9.77-43c.56-2.485.85-4.525.85-6.119 0-1.081-.18-1.864-.53-2.351s-.9-.729-1.66-.729c-.84 0-1.72.344-2.66 1.033-.93.689-2.2 1.939-3.83 3.749l-2.31-2.27q3.66-3.809 6.18-5.491c1.69-1.121 3.56-1.682 5.62-1.682m-70 0c1.7 0 3.04.561 4.03 1.682s1.48 2.587 1.48 4.397q0 2.23-.93 4.742l.48.162c2.49-3.701 4.96-6.451 7.42-8.247s4.94-2.695 7.46-2.695q3.885 0 5.91 2.208c1.35 1.473 2.03 3.601 2.03 6.383v.568c0 .189-.01.392-.04.608 2.32-3.296 4.64-5.748 6.95-7.356s4.71-2.411 7.19-2.411q3.735 0 5.76 2.148c1.35 1.432 2.03 3.444 2.03 6.038 0 1.702-.4 4.12-1.18 7.255l-2.63 10.618c-.73 2.945-1.1 5.025-1.1 6.241 0 1.081.18 1.864.53 2.351s.9.729 1.66.729c.81 0 1.67-.331 2.59-.993s2.22-1.925 3.89-3.789l2.31 2.269c-2.32 2.459-4.35 4.269-6.07 5.431-1.73 1.162-3.71 1.743-5.92 1.743-1.76 0-3.16-.629-4.22-1.885-1.05-1.256-1.58-2.857-1.58-4.802 0-1.757.45-4.337 1.34-7.741l1.78-7.011c.65-2.54 1.08-4.418 1.28-5.634q.3-1.823.3-2.958 0-2.797-.93-4.033c-.62-.824-1.63-1.236-3.04-1.236-1.13 0-2.35.426-3.65 1.277-1.29.851-2.66 2.175-4.09 3.972-1.43 1.796-2.6 3.566-3.5 5.309-.91 1.742-1.63 3.87-2.17 6.383l-3.69 17.71h-7.01l4.66-20.588c.57-2.512.95-4.37 1.15-5.572.21-1.203.31-2.236.31-3.101 0-1.945-.35-3.33-1.04-4.154-.68-.824-1.76-1.236-3.22-1.236-1.02 0-2.19.426-3.5 1.277q-1.965 1.276-4.2 4.093c-1.48 1.878-2.65 3.681-3.48 5.411-.84 1.729-1.54 3.836-2.11 6.322l-3.85 17.548h-7.01l5.92-25.694c.59-2.594.89-4.593.89-5.998 0-1.081-.18-1.864-.53-2.351s-.9-.729-1.66-.729c-.84 0-1.72.344-2.66 1.033-.93.689-2.2 1.939-3.83 3.749l-2.31-2.27c2.38-2.485 4.43-4.302 6.14-5.45 1.72-1.149 3.6-1.723 5.66-1.723m-71.28-16.535c2.46 0 4.74.149 6.83.446q3.135.445 6.99 1.621l-2.43 10.983h-3.89c-.22-3.323-.94-5.721-2.17-7.194q-1.845-2.208-5.94-2.209c-3.73 0-7.19 1.865-10.39 5.593-3.2 3.729-5.74 8.653-7.6 14.772-1.87 6.12-2.8 11.801-2.8 17.042q0 6.16 2.19 9.078c1.46 1.946 3.7 2.918 6.73 2.918q3.03 0 5.31-.912c1.51-.608 2.93-1.634 4.25-3.08q1.995-2.168 3.93-6.059h3.89l-2.47 11.51c-5.05 1.405-10.35 2.108-15.88 2.108-5.08 0-8.95-1.459-11.6-4.377-2.64-2.918-3.97-7.187-3.97-12.807q0-5.957 2.13-13.739c1.42-5.187 3.42-9.74 6.02-13.657 2.59-3.918 5.66-6.904 9.2-8.957q5.31-3.08 11.67-3.08"/><text x="3528" y="710.796" fill-opacity="0" font-family="Arial,Arial_MSFontService,sans-serif" font-size="73.395">𝐶𝑜𝑚𝑝𝑎𝑟𝑒</text><path d="M730.5 391.917h694.32v9.167l-694.32-.001Zm689.74-18.333 45.83 22.916-45.83 22.917Z"/><path fill-rule="evenodd" d="M1292.16 486.235h16.21l-.45 1.986c-1.02.216-1.76.459-2.21.729-.44.27-.84.676-1.19 1.216s-.72 1.385-1.1 2.533c-.37 1.148-.85 3.019-1.41 5.613l-2.88 12.928h1.34c1.13 0 2.16-.189 3.1-.567.93-.379 2.02-1.067 3.26-2.067q1.86-1.5 5.94-5.512 4.065-4.012 5.79-6.099c1.15-1.392 1.99-2.594 2.51-3.607.53-1.013.79-1.939.79-2.776q0-1.014-.81-1.642t-2.31-.749l.45-1.986h17.39l-.45 1.986c-1.08.162-2.3.722-3.67 1.681-1.36.96-3.45 2.831-6.26 5.614l-15.72 15.319 8.63 20.75c.89 2.134 1.63 3.674 2.21 4.62s1.27 1.695 2.08 2.249q1.215.831 3 1.115l-.44 1.986h-15.65l.45-1.986q2.19-.203 2.19-1.946 0-1.094-.45-2.492c-.29-.932-.65-1.898-1.05-2.898l-5.27-12.887q-.93-2.31-1.62-3.243c-.46-.621-.95-1.053-1.46-1.296s-1.31-.365-2.39-.365h-2.27l-3.36 15.319q-.54 2.432-.69 3.83c-.11.932-.17 1.763-.17 2.492 0 1.216.31 2.074.92 2.574q.9.75 3.06.912l-.45 1.986h-16.21l.45-1.986q1.53-.243 2.31-.791.765-.547 1.29-1.519c.35-.649.68-1.439.98-2.371.29-.932.74-2.736 1.33-5.411l6.89-31.206c.6-2.701.89-4.876.89-6.525 0-1.269-.31-2.154-.95-2.654-.63-.5-1.64-.79-3.02-.871Zm-28.16-.649c2.49 0 4.79.169 6.91.507s4.47.912 7.04 1.722l-2.27 10.416h-3.89c-.11-2.297-.46-4.1-1.06-5.411q-.885-1.965-2.55-2.816c-1.11-.568-2.58-.851-4.42-.851-2.24 0-4.21.459-5.92 1.378-1.7.918-3 2.168-3.89 3.748s-1.33 3.344-1.33 5.289c0 2.027.53 3.803 1.6 5.33 1.06 1.526 3.11 3.33 6.14 5.41q3.96 2.756 6.06 4.924c1.39 1.446 2.41 2.979 3.08 4.6q.99 2.432.99 5.633 0 4.944-2.37 8.774t-6.69 5.917c-2.88 1.392-6.15 2.088-9.83 2.088q-3.72 0-8.04-.608c-2.88-.406-5.45-.919-7.72-1.54l2.43-11.145h3.89c0 3.296.76 5.748 2.29 7.355s3.88 2.412 7.07 2.412q5.52 0 8.67-2.999c2.11-2 3.17-4.783 3.17-8.349 0-1.648-.29-3.1-.88-4.357-.58-1.256-1.45-2.458-2.63-3.607-1.18-1.148-2.87-2.465-5.09-3.951q-3-2.027-4.98-3.992c-1.32-1.31-2.38-2.776-3.16-4.397-.79-1.621-1.18-3.432-1.18-5.431q0-4.782 2.31-8.43c1.54-2.431 3.72-4.309 6.53-5.633q4.215-1.986 9.72-1.986"/><text x="1235.84" y="535.161" fill-opacity="0" font-family="Arial,Arial_MSFontService,sans-serif" font-size="56.657">𝑆𝐾</text><path fill-rule="evenodd" d="M1352.09 525.784a831 831 0 0 0-5.14 8.473c-1.7 2.83-3.41 5.665-5.14 8.504h11.47q-.15-1.907-.3-3.738-.15-1.832-.24-3.857c-.06-1.35-.11-2.79-.16-4.319a155 155 0 0 1-.08-5.063Zm-.12-6.523h4.91l2.71 31.483c.08 1.012.2 1.866.37 2.561s.41 1.271.7 1.728c.3.456.67.804 1.12 1.042q.675.357 1.68.506l-.44 1.817h-12.99l.45-1.817a10 10 0 0 0 1.47-.372c.43-.149.78-.397 1.06-.745.28-.347.49-.819.64-1.414.15-.596.22-1.37.22-2.324q0-.536-.03-1.236c-.02-.466-.04-.958-.07-1.474q-.045-.774-.12-1.594c-.05-.546-.1-1.077-.14-1.593h-13.34q-.69 1.012-1.35 2.085-.675 1.072-1.23 2.1c-.36.685-.66 1.365-.87 2.04q-.33 1.012-.33 1.996c0 1.449 1.06 2.293 3.19 2.531l-.39 1.817h-13.02l.33-1.817a5.5 5.5 0 0 0 1.44-.461c.43-.209.88-.536 1.34-.983.47-.447.98-1.053 1.52-1.817q.825-1.147 1.98-3.023Z"/><text x="1326.17" y="553.506" fill-opacity="0" font-family="Arial,Arial_MSFontService,sans-serif" font-size="39.138">𝐴</text><path d="M1303.08 578.5v119.739h-9.16V578.5Zm18.34 115.155-22.92 45.834-22.92-45.834ZM606.917 550.5v303.025h164.179v-9.167H611.5l4.583 4.583V550.5Zm159.596 321.358 45.833-22.917-45.833-22.916Zm641.987-18.39h171.254V546.75h-9.167v302.135l4.583-4.583H1408.5Zm189.587-302.135L1575.17 505.5l-22.916 45.833Zm85.422-150.641 280.488-.53-.017-9.167-280.489.53Zm275.939 17.811 45.79-23.003-45.877-22.83Z"/><path fill-rule="evenodd" d="M2807.4 509.46c-1.67 0-3.43.041-5.26.122l-5.52 24.56h4.22q4.905 0 7.92-1.014 3.015-1.012 4.95-3.141 1.92-2.127 2.97-5.045c.71-1.945 1.06-4.08 1.06-6.403 0-3.135-.8-5.431-2.39-6.89q-2.4-2.189-7.95-2.189m34.02-3.566h16.21l-.44 1.986c-1.03.216-1.77.459-2.21.729q-.675.406-1.2 1.216c-.35.541-.71 1.385-1.09 2.533s-.85 3.019-1.42 5.613l-2.88 12.928h1.34c1.14 0 2.17-.189 3.1-.567s2.02-1.067 3.26-2.067q1.875-1.5 5.94-5.512c2.72-2.674 4.65-4.708 5.8-6.099 1.14-1.391 1.98-2.594 2.51-3.607s.79-1.939.79-2.776q0-1.014-.81-1.641-.81-.628-2.31-.75l.44-1.986h17.39l-.45 1.986q-1.62.243-3.66 1.682c-1.37.959-3.45 2.83-6.26 5.613l-15.73 15.319 8.63 20.75c.89 2.135 1.63 3.675 2.21 4.62s1.28 1.696 2.09 2.249q1.215.831 3 1.115l-.45 1.986h-15.64l.44-1.986q2.19-.203 2.19-1.945c0-.73-.15-1.561-.44-2.493-.3-.932-.65-1.898-1.06-2.897l-5.26-12.888c-.63-1.54-1.17-2.621-1.63-3.242-.46-.622-.94-1.054-1.46-1.297-.51-.243-1.31-.365-2.39-.365h-2.27l-3.36 15.319q-.525 2.432-.69 3.83c-.11.932-.16 1.763-.16 2.493 0 1.215.3 2.073.91 2.573q.915.75 3.06.912l-.44 1.986h-16.22l.45-1.986q1.545-.244 2.31-.79c.51-.365.95-.872 1.3-1.52.35-.649.67-1.439.97-2.371s.74-2.736 1.34-5.41l6.89-31.206c.59-2.702.89-4.877.89-6.525 0-1.27-.32-2.155-.95-2.655-.64-.5-1.65-.79-3.02-.871Zm-51 0h17.88q4.815 0 7.92.75t5.1 2.31a9.5 9.5 0 0 1 3 3.951c.67 1.594 1 3.445 1 5.552q0 6.08-2.88 10.538t-7.8 6.565c-3.29 1.405-7.22 2.107-11.82 2.107-2.75 0-5.05-.054-6.89-.162l-2.59 11.915a60 60 0 0 0-.51 2.554q-.135.891-.24 1.925c-.07.689-.1 1.303-.1 1.844 0 .837.13 1.492.4 1.965.28.473.68.818 1.22 1.034s1.47.378 2.8.486l-.45 1.986h-16.66l.45-1.986q1.545-.244 2.31-.79c.51-.365.95-.872 1.3-1.52.35-.649.67-1.439.97-2.371s.74-2.736 1.34-5.41l6.89-31.206c.59-2.702.89-4.837.89-6.404q0-1.986-.93-2.756c-.62-.513-1.64-.81-3.04-.891Z"/><text x="2779.8" y="554.299" fill-opacity="0" font-family="Arial,Arial_MSFontService,sans-serif" font-size="55.32">𝑃𝐾</text><path fill-rule="evenodd" d="M2901.8 545.443c-1.73 2.819-3.44 5.644-5.14 8.474s-3.41 5.664-5.14 8.503h11.47q-.15-1.905-.3-3.738t-.24-3.857c-.06-1.35-.11-2.79-.16-4.319a155 155 0 0 1-.08-5.063Zm-.12-6.523h4.91l2.71 31.483c.08 1.012.21 1.866.38 2.561.16.695.4 1.271.7 1.728.29.457.67.804 1.11 1.042.45.239 1.01.407 1.69.507l-.45 1.817h-12.99l.45-1.817q.84-.15 1.47-.373c.43-.149.78-.397 1.06-.744.28-.348.49-.819.64-1.415s.22-1.37.22-2.323c0-.358-.01-.77-.02-1.236-.02-.467-.05-.958-.08-1.475q-.045-.774-.12-1.593c-.05-.546-.09-1.077-.13-1.594h-13.35q-.675 1.012-1.35 2.085a31 31 0 0 0-1.22 2.1c-.37.685-.66 1.365-.88 2.04a6.4 6.4 0 0 0-.33 1.996c0 1.449 1.06 2.293 3.19 2.532l-.39 1.817h-13.02l.33-1.817c.54-.1 1.02-.254 1.45-.462.42-.209.87-.536 1.34-.983.46-.447.97-1.052 1.52-1.817q.81-1.146 1.98-3.023Z"/><text x="2875.88" y="573.165" fill-opacity="0" font-family="Arial,Arial_MSFontService,sans-serif" font-size="39.138">𝐴</text><path d="m2836.477 598.477-.36 72.515 9.166.045.36-72.514Zm-18.67 67.84 22.688 45.947 23.144-45.719Zm605.693-274.4h272.26v173.429h-9.16V396.5l4.58 4.583H3423.5Zm290.6 168.846-22.92 45.833-22.92-45.833Zm-1477.6-12.846h252.23V821.69l-4.58-4.583h206.4v9.167h-210.98V552.5l4.58 4.583H2236.5Zm449.47 250.857 45.83 22.916-45.83 22.917Z"/><path fill-rule="evenodd" d="M1906.62 670.7h37.29l-2.8 12.442h-3.89c-.11-2.351-.31-4.121-.61-5.309-.3-1.189-.65-2.006-1.07-2.452a3.1 3.1 0 0 0-1.5-.892q-.87-.222-2.49-.223h-13.22l-4.62 21.237h7.74c1.92 0 3.39-.453 4.4-1.358q1.515-1.358 3.06-4.478h3.69l-3.65 15.562h-3.44c0-2.161-.14-3.627-.41-4.397s-.67-1.256-1.19-1.459c-.53-.203-1.48-.304-2.86-.304h-8.11l-5.18 23.384h11.99c1.6 0 2.86-.162 3.79-.486q1.395-.486 2.64-1.581c.82-.729 1.64-1.749 2.47-3.059q1.23-1.966 2.94-5.33h3.93l-3.57 14.023H1896l.45-1.986q1.545-.244 2.31-.79c.51-.365.94-.872 1.3-1.52.35-.649.67-1.439.97-2.371s.74-2.736 1.34-5.41l6.89-31.207c.59-2.701.89-4.876.89-6.524q0-1.905-.96-2.655c-.63-.5-1.64-.79-3.01-.871Z"/><text x="1896" y="719.105" fill-opacity="0" font-family="Arial,Arial_MSFontService,sans-serif" font-size="55.32">𝐸</text><path fill-rule="evenodd" d="M1980.82 704.232h12.57l-.33 1.787c-.46.119-.84.219-1.16.298s-.6.199-.85.357c-.25.159-.46.373-.64.641s-.35.635-.52 1.102a22 22 0 0 0-.54 1.757c-.19.705-.4 1.574-.64 2.606l-1.94 8.757h.84c.46 0 .87-.03 1.25-.089.38-.06.75-.164 1.12-.313.36-.149.74-.352 1.13-.61q.585-.388 1.32-.983 3.105-2.413 5.19-4.319c1.39-1.271 2.51-2.393 3.38-3.366.86-.973 1.48-1.802 1.84-2.487.37-.685.55-1.256.55-1.713 0-.476-.18-.849-.56-1.117s-.99-.412-1.85-.431l.33-1.877h13.55l-.41 1.877c-.46.039-.89.129-1.3.268s-.88.392-1.42.759q-.795.551-1.92 1.519c-.74.645-1.68 1.484-2.81 2.517l-11.62 10.484 6.73 13.999c.52 1.092.97 1.956 1.34 2.592q.57.952 1.17 1.519.585.565 1.35.819t1.89.462l-.47 1.816h-12.28l.42-1.816c.56-.04.97-.164 1.25-.373q.42-.312.42-.789a9 9 0 0 0-.09-.685 5 5 0 0 0-.21-.789q-.15-.432-.39-1.013a31 31 0 0 0-.59-1.385l-3.99-8.519c-.34-.754-.64-1.35-.91-1.787s-.55-.774-.83-1.013a2.16 2.16 0 0 0-.99-.461q-.555-.105-1.38-.104h-1.64a72 72 0 0 1-.57 2.621c-.22.933-.43 1.881-.65 2.844q-.33 1.444-.63 2.845c-.2.933-.38 1.802-.53 2.606q-.24 1.206-.39 2.144t-.15 1.445c0 .834.24 1.425.73 1.772q.735.521 2.49.641l-.48 1.816h-12.54l.33-1.816c.61-.1 1.12-.214 1.5-.343.39-.129.74-.407 1.04-.834.31-.427.6-1.067.85-1.921q.39-1.28.9-3.634l4.88-21.713q.3-1.31.45-2.324t.15-1.727q0-1.31-.69-1.862c-.45-.367-1.29-.561-2.5-.58Zm-20.25-.566q2.82 0 5.43.432c1.74.288 3.56.75 5.47 1.385l-1.7 7.565h-3.25c-.06-1.112-.23-2.07-.52-2.874q-.435-1.206-1.2-1.966c-.52-.506-1.18-.883-1.97-1.131-.79-.249-1.74-.373-2.83-.373-1.17 0-2.23.159-3.19.477-.95.317-1.76.769-2.44 1.355a6 6 0 0 0-1.56 2.115c-.37.824-.55 1.722-.55 2.695 0 .735.08 1.41.26 2.026q.27.923.93 1.787.645.864 1.8 1.757c.76.596 1.73 1.251 2.9 1.966 1.43.894 2.66 1.737 3.68 2.532s1.86 1.618 2.5 2.472a8.8 8.8 0 0 1 1.42 2.725q.45 1.444.45 3.232c0 1.727-.35 3.306-1.03 4.736a10.8 10.8 0 0 1-2.92 3.693q-1.89 1.55-4.53 2.398t-5.88.849c-1.83 0-3.79-.154-5.9-.462-2.1-.308-4.18-.76-6.22-1.355l1.75-8.042h3.16c.06 2.383.7 4.11 1.91 5.182s3.07 1.609 5.6 1.609q1.935 0 3.48-.507c1.03-.337 1.91-.824 2.62-1.459a6.2 6.2 0 0 0 1.64-2.323q.57-1.37.57-3.068 0-1.191-.3-2.16c-.2-.645-.55-1.285-1.04-1.921q-.75-.952-2.01-1.936-1.275-.983-3.15-2.144a30 30 0 0 1-3.26-2.309q-1.38-1.146-2.31-2.382a9.6 9.6 0 0 1-1.38-2.577 8.7 8.7 0 0 1-.46-2.859c0-1.668.32-3.182.98-4.542a10.15 10.15 0 0 1 2.81-3.515q1.845-1.475 4.44-2.279c1.74-.536 3.67-.804 5.8-.804"/><text x="1939.72" y="738.537" fill-opacity="0" font-family="Arial,Arial_MSFontService,sans-serif" font-size="39.852">𝑆𝐾</text><path fill-rule="evenodd" d="m2039.41 727.121-8.96 14.258h10.08l-.44-5.811c-.04-.814-.1-2.022-.17-3.625q-.09-2.406-.09-4.822Zm-.34-5.884h4.71l2.74 27.197c.16 1.579.5 2.747 1.01 3.504s1.39 1.216 2.62 1.379l-.39 1.807h-11.94l.39-1.807c.7-.049 1.27-.195 1.69-.439s.74-.586.95-1.026c.21-.439.32-1.229.32-2.368 0-.504-.03-1.245-.1-2.222l-.29-2.905h-12.01l-1.57 2.466c-.34.57-.71 1.274-1.12 2.112s-.61 1.623-.61 2.356q0 1.904 3 2.026l-.39 1.807h-12.18l.42-1.807a4.05 4.05 0 0 0 1.85-.72c.57-.399 1.13-.932 1.67-1.599.55-.667 1.25-1.668 2.12-3.003Z"/><text x="2015.9" y="750.888" fill-opacity="0" font-family="Arial,Arial_MSFontService,sans-serif" font-size="33.887">𝐴</text><path fill-rule="evenodd" d="M2291.99 663.698h18.07v77.285h-18.07v-3.12h11.34v-71.045h-11.34Zm-224.9 0h18.07v3.12h-11.35v71.045h11.35v3.12h-18.07Zm32.56 7.002h16.21l-.45 1.986c-1.02.216-1.76.459-2.21.729-.44.27-.84.676-1.19 1.216s-.72 1.385-1.1 2.533c-.37 1.148-.85 3.019-1.41 5.613l-2.76 12.401h21.76l2.76-12.442q.36-1.66.63-3.546c.17-1.256.26-2.249.26-2.978 0-1.27-.32-2.155-.95-2.655-.64-.5-1.64-.79-3.02-.871l.45-1.986h16.21l-.45 1.986c-1.03.216-1.76.459-2.21.729-.44.27-.84.676-1.19 1.216-.36.54-.72 1.385-1.1 2.533s-.85 3.019-1.42 5.613l-6.93 31.449q-.525 2.39-.69 3.79c-.1.932-.16 1.776-.16 2.532 0 1.216.31 2.074.91 2.574q.915.75 3.06.912l-.44 1.986h-16.21l.44-1.986q1.545-.244 2.31-.79c.52-.365.95-.872 1.3-1.52.35-.649.68-1.439.97-2.371.3-.932.75-2.736 1.34-5.41l3.32-15.036h-21.76l-3.36 15.319c-.3 1.351-.52 2.466-.65 3.344-.14.878-.2 1.871-.2 2.978q0 1.743.81 2.513c.54.514 1.59.838 3.16.973l-.45 1.986h-16.21l.45-1.986q1.53-.244 2.31-.79.765-.548 1.29-1.52c.35-.649.68-1.439.98-2.371.29-.932.74-2.736 1.33-5.41l6.89-31.207q.375-1.66.63-3.546c.18-1.256.26-2.249.26-2.978 0-1.27-.31-2.155-.95-2.655-.63-.5-1.64-.79-3.02-.871Z"/><text x="2089.03" y="719.105" fill-opacity="0" font-family="Arial,Arial_MSFontService,sans-serif" font-size="55.32">𝐻</text><path fill-rule="evenodd" d="M2258.64 663.906q11.835 3.12 18.18 13.475c4.22 6.903 6.34 15.231 6.34 24.985 0 9.781-2.11 18.109-6.32 24.985-4.22 6.876-10.28 11.355-18.2 13.435l-.97-3.121q9.36-3.12 13.92-12.32t4.56-23.384c0-9.132-1.52-16.718-4.54-22.756-3.03-6.039-7.72-10.098-14.06-12.179Zm-77.54 0 1.09 3.12q-9.48 3.121-14.04 12.179t-4.56 22.756q0 14.184 4.56 23.384t13.92 12.32l-.97 3.121c-7.92-2.08-13.99-6.559-18.2-13.435-4.22-6.876-6.32-15.204-6.32-24.985 0-9.754 2.11-18.082 6.34-24.985q6.345-10.355 18.18-13.475m15.27 6.794h14.47l4.62 39.311 23.62-39.311h12.77l-.45 1.986c-1.02.216-1.76.459-2.21.729-.44.27-.85.676-1.21 1.216-.37.54-.73 1.385-1.1 2.533-.36 1.148-.83 3.019-1.39 5.613l-6.93 31.449c-.36 1.594-.58 2.857-.69 3.79s-.16 1.776-.16 2.532c0 1.216.3 2.074.91 2.574q.9.75 3.06.912l-.45 1.986h-16.21l.45-1.986q1.53-.244 2.31-.79.765-.548 1.29-1.52c.35-.649.68-1.439.98-2.371.29-.932.74-2.736 1.33-5.41l5.39-24.438c.76-3.378 1.62-6.742 2.6-10.092h-.57q-1.26 2.39-5.67 9.727l-18.44 30.436h-4.42l-3.37-26.059q-.72-5.512-1.62-14.833h-.81c-.92 6.052-1.94 11.658-3.08 16.819l-4.13 18.723c-.57 2.567-.85 4.674-.85 6.322 0 1.216.3 2.074.91 2.574q.915.75 3.06.912l-.45 1.986h-14.18l.44-1.986q1.545-.244 2.31-.79c.52-.365.95-.872 1.3-1.52.35-.649.68-1.439.97-2.371.3-.932.75-2.736 1.34-5.41l6.89-31.207c.27-1.161.49-2.269.65-3.323q.24-1.581.24-3.201c0-1.27-.31-2.155-.95-2.655-.63-.5-1.64-.79-3.02-.871Z"/><text x="2185.75" y="719.105" fill-opacity="0" font-family="Arial,Arial_MSFontService,sans-serif" font-size="55.32">𝑀</text><path d="m2236.5 390.917 927.69.583-.01 9.166-927.68-.583Zm923.11-17.753 45.82 22.945-45.85 22.888Z"/><path fill="#fdefe8" fill-rule="evenodd" d="M812 848.5c0-60.475 48.801-109.5 109-109.5s109 49.025 109 109.5S981.199 958 921 958s-109-49.025-109-109.5"/><path fill="#d74514" fill-rule="evenodd" d="M898.847 822.746h20.385l-.567 2.674q-2.31.649-3.404 2.27-1.095 1.621-2.067 5.998l-2.837 12.847h17.183l2.837-12.847q.528-2.391.527-4.742 0-1.702-.79-2.492t-2.574-1.034l.568-2.674h20.385l-.567 2.674q-2.31.649-3.405 2.27t-2.066 5.998l-7.376 33.435q-.285 1.297-.406 2.249t-.121 2.493q0 1.701.79 2.492t2.573 1.034l-.567 2.674h-20.385l.567-2.674q2.31-.649 3.405-2.27t2.066-5.998l3.405-15.481h-17.184l-3.404 15.481a30 30 0 0 0-.405 2.27q-.123.931-.122 2.472 0 1.701.79 2.492t2.574 1.034l-.568 2.674h-20.385l.567-2.674q2.31-.649 3.405-2.27 1.093-1.621 2.067-5.998l7.376-33.435a22 22 0 0 0 .526-4.742q0-1.702-.79-2.492t-2.573-1.034Z"/><text x="887.702" y="871.15" fill-opacity="0" font-family="Arial,Arial_MSFontService,sans-serif" font-size="55.32">𝑯</text><path d="M1030.5 844.917h118.05v9.166H1030.5Zm113.47-18.334 45.83 22.917-45.83 22.917Z"/><path fill="#fdefe8" fill-rule="evenodd" d="M2731 821c0-60.199 48.8-109 109-109s109 48.801 109 109-48.8 109-109 109-109-48.801-109-109"/><path fill="#d74514" fill-rule="evenodd" d="M2838.31 799.922q-2.025 0-3.12.081l-10.01 45.553q1.86.162 3 .162c3.48 0 6.49-.689 9.02-2.067q3.78-2.067 6.72-6.302t4.62-10.335c1.12-4.066 1.69-8.152 1.69-12.259 0-2.783-.32-5.12-.94-7.011s-1.48-3.418-2.57-4.58q-1.635-1.743-3.81-2.492c-1.45-.5-2.98-.75-4.6-.75m-18.76-4.742h16.41c4.46 0 8.02.243 10.7.73 2.43.432 4.65 1.175 6.67 2.229 2.01 1.053 3.6 2.215 4.76 3.485 1.48 1.567 2.65 3.533 3.5 5.897s1.28 5.14 1.28 8.328c0 3.594-.41 7.038-1.22 10.335-.81 3.296-2 6.342-3.58 9.139s-3.47 5.201-5.68 7.213c-2.2 2.013-4.41 3.58-6.62 4.702q-3.33 1.682-7.5 2.472c-2.78.527-6.08.79-9.89.79h-19.98l.57-2.675c1.54-.432 2.67-1.189 3.4-2.269q1.095-1.621 2.07-5.998l7.38-33.435c.35-1.594.52-3.175.52-4.742 0-1.135-.26-1.966-.79-2.493-.52-.526-1.38-.871-2.57-1.033Z"/><text x="2808.4" y="843.585" fill-opacity="0" font-family="Arial,Arial_MSFontService,sans-serif" font-size="55.32">𝑫</text><path d="M2949.5 825.76h745.894v-45.01h-9.166v40.426l4.583-4.583H2949.5Zm764.228-40.427-22.917-45.833-22.917 45.833Z"/><path fill="#f8ccb9" d="M492 1129h238v308H492z"/><path fill="#d74514" fill-rule="evenodd" d="M583.63 1257.19h18.886l3.161 33.84 19.21-33.84h18.845l-.568 2.68c-1.54.43-2.674 1.19-3.404 2.27-.729 1.08-1.418 3.08-2.067 5.99l-7.376 33.44q-.284 1.29-.405 2.25-.122.945-.122 2.49 0 1.71.791 2.49c.527.53 1.384.88 2.573 1.04l-.567 2.67h-20.385l.567-2.67c1.54-.43 2.675-1.19 3.404-2.27q1.095-1.62 2.067-6l3.729-17.02a257 257 0 0 1 4.377-16.98h-.811c-1.27 2.32-2.634 4.74-4.093 7.25l-18.237 31.57h-6.566l-2.675-24.35c-.621-5.79-1.026-10.74-1.216-14.88h-.648c-1.081 6.68-2.107 12.21-3.08 16.62l-3.931 17.79q-.283 1.29-.405 2.25-.122.945-.122 2.49 0 1.71.79 2.49c.527.53 1.385.88 2.574 1.04l-.568 2.67h-14.873l.567-2.67c1.54-.43 2.675-1.19 3.404-2.27q1.095-1.62 2.067-6l7.376-33.44q.528-2.385.527-4.74 0-1.695-.79-2.49c-.527-.53-1.385-.87-2.574-1.03Z"/><text x="572.485" y="1305.6" fill-opacity="0" font-family="Arial,Arial_MSFontService,sans-serif" font-size="55.32">𝑴</text><path fill="#fdefe8" fill-rule="evenodd" d="M1189 1735.5c0-60.48 49.02-109.5 109.5-109.5s109.5 49.02 109.5 109.5c0 60.47-49.02 109.5-109.5 109.5s-109.5-49.03-109.5-109.5"/><path fill="#d74514" fill-rule="evenodd" d="M1339.35 1728.5c-2.44 0-4.62 1.22-6.57 3.65s-3.53 5.81-4.76 10.13-1.85 8.21-1.85 11.67c0 1.98.29 3.45.88 4.42.58.97 1.47 1.46 2.69 1.46 1.16 0 2.34-.37 3.53-1.11 1.19-.75 2.43-1.9 3.75-3.45q1.965-2.325 3.3-5.61c.89-2.19 1.69-4.95 2.39-8.27l.32-1.5c.44-2 .65-3.94.65-5.84 0-1.86-.34-3.25-1.01-4.17-.68-.92-1.78-1.38-3.32-1.38m-43.99-4.01h4.62l-6.48 27.88c-.27 1.14-.45 2.02-.55 2.64-.09.62-.14 1.32-.14 2.1 0 1.06.18 1.79.53 2.19.35.41.85.61 1.5.61.78 0 1.66-.37 2.63-1.11.97-.75 2.12-1.87 3.45-3.39l2.91 2.92q-3.96 4.05-7.11 5.76c-2.09 1.13-4.4 1.7-6.91 1.7-2.86 0-4.96-.71-6.28-2.11-1.32-1.41-1.99-3.53-1.99-6.36 0-1.81.3-3.93.9-6.37l3.4-14.1c.62-2.57.93-4.59.93-6.08q0-1.575-.75-2.25c-.5-.44-1.54-.75-3.14-.91l.61-2.67Zm43.58-.2c1.92 0 3.68.21 5.29.63 1.61.41 3.25 1.18 4.92 2.29l3.65-2.92 4.54.65-3.49 15.84c-.56 2.6-1.08 5.08-1.54 7.46-1.45 7.4-2.47 12.33-3.04 14.79-.99 4.19-2.02 7.35-3.08 9.48-1.1 2.25-2.53 4.16-4.29 5.74s-3.96 2.78-6.61 3.59c-3.02.94-6.7 1.41-11.02 1.41-5.73 0-10.02-.76-12.89-2.29-2.86-1.52-4.29-3.81-4.29-6.86 0-1.68.59-3.26 1.78-4.75 1.19-1.48 2.94-2.9 5.27-4.25l4.21 3.4c-.73.89-1.23 1.73-1.52 2.52q-.42 1.17-.42 2.55 0 2.76 1.92 4.11c1.29.91 3.21 1.36 5.78 1.36 4.13 0 7.4-1.55 9.81-4.64 2.4-3.09 4.45-8.75 6.16-16.96l-.53-.37c-2.38 3.03-4.66 5.24-6.85 6.63s-4.81 2.09-7.86 2.09c-3.03 0-5.4-1.11-7.12-3.33-1.71-2.21-2.57-5.41-2.57-9.6 0-3.7.54-7.36 1.62-10.96 1.08-3.61 2.62-6.71 4.6-9.3 1.99-2.6 4.46-4.63 7.42-6.1 2.96-1.48 6.34-2.21 10.15-2.21m-78.66-15.12c2.7 0 5.19.14 7.46.43 2.27.28 4.6.79 7.01 1.52l-2.48 11.55h-5.3c-.03-3.03-.63-5.25-1.79-6.65-1.16-1.41-3.04-2.11-5.63-2.11-2.84 0-5.08.77-6.73 2.29-1.65 1.53-2.47 3.63-2.47 6.3 0 1.9.65 3.69 1.97 5.37 1.31 1.69 3.28 3.5 5.93 5.41 2.41 1.79 4.26 3.39 5.55 4.81 1.3 1.42 2.27 2.92 2.92 4.52.65 1.59.98 3.41.98 5.47 0 2.46-.55 4.83-1.63 7.11q-1.62 3.42-4.56 5.82c-1.95 1.59-4.16 2.78-6.62 3.58s-5.72 1.2-9.77 1.2c-2.48 0-5.08-.22-7.8-.65s-5.33-1.04-7.84-1.82l2.51-11.68h5.31c.08 2.38.45 4.25 1.09 5.62q.975 2.04 2.76 2.91c1.19.59 2.76.88 4.7.88 2.95 0 5.27-.85 6.97-2.54s2.56-4.04 2.56-7.07c0-1.57-.28-2.95-.82-4.15-.54-1.21-1.37-2.37-2.49-3.51-1.12-1.13-3.06-2.71-5.81-4.74-2.57-1.89-4.51-3.99-5.82-6.28-1.31-2.3-1.96-4.7-1.96-7.22 0-2.13.45-4.22 1.37-6.28q1.38-3.075 4.08-5.37c1.79-1.52 4.06-2.69 6.78-3.5 2.73-.81 5.92-1.22 9.57-1.22m32.13-.4h10.37l-2.11 9.92h-10.49Z"/><text x="1229.48" y="1773.94" fill-opacity="0" font-family="Arial,Arial_MSFontService,sans-serif" font-size="74.489">𝑺𝒊𝒈</text><path fill="#fdefe8" fill-rule="evenodd" d="M1465 1283c0-60.2 48.8-109 109-109s109 48.8 109 109-48.8 109-109 109-109-48.8-109-109"/><path fill="#d74514" fill-rule="evenodd" d="M1575.12 1257.19h6.32v63.43h-6.32Zm-14.18 0h6.32v63.43h-6.32Z"/><text x="1560.94" y="1312.69" fill-opacity="0" font-family="Arial,Arial_MSFontService,sans-serif" font-size="63.425">∥</text><path fill="#f8ccb9" d="M1998 1055h238v308h-238z"/><path fill="#d74514" fill-rule="evenodd" d="M2089.79 1183.24h18.89l3.16 33.84 19.21-33.84h18.85l-.57 2.68c-1.54.43-2.68 1.18-3.4 2.26q-1.095 1.635-2.07 6l-7.38 33.44c-.19.86-.32 1.61-.4 2.25q-.12.945-.12 2.49c0 1.13.26 1.97.79 2.49.52.53 1.38.87 2.57 1.04l-.57 2.67h-20.38l.56-2.67c1.54-.44 2.68-1.19 3.41-2.27q1.095-1.62 2.07-6l3.72-17.02a265 265 0 0 1 4.38-16.98h-.81a320 320 0 0 1-4.09 7.25l-18.24 31.57h-6.57l-2.67-24.36c-.62-5.78-1.03-10.74-1.22-14.87h-.65c-1.08 6.67-2.1 12.21-3.08 16.62l-3.93 17.79c-.19.86-.32 1.61-.4 2.25q-.12.945-.12 2.49c0 1.13.26 1.97.79 2.49.52.53 1.38.87 2.57 1.04l-.57 2.67h-14.87l.57-2.67c1.54-.44 2.67-1.19 3.4-2.27q1.095-1.62 2.07-6l7.37-33.44c.36-1.59.53-3.17.53-4.74 0-1.13-.26-1.96-.79-2.49s-1.38-.87-2.57-1.03Z"/><text x="2078.65" y="1231.65" fill-opacity="0" font-family="Arial,Arial_MSFontService,sans-serif" font-size="55.32">𝑴</text><path fill="#fdefe8" d="M1998 1368h238v145h-238z"/><path fill="#d74514" fill-rule="evenodd" d="M2109.89 1429.25c2.08 0 4.32.17 6.71.51 2.39.33 4.57.79 6.54 1.35l-2.11 9.69h-5.14c-.25-2.51-.89-4.36-1.93-5.55s-2.53-1.78-4.48-1.78c-1.81 0-3.26.46-4.35 1.39-1.1.94-1.64 2.2-1.64 3.79 0 1.41.46 2.64 1.37 3.69.92 1.05 2.71 2.38 5.35 3.97 2.87 1.7 4.92 3.46 6.16 5.27 1.25 1.81 1.87 3.93 1.87 6.36 0 2.76-.74 5.11-2.21 7.06-1.47 1.94-3.49 3.39-6.04 4.33-2.55.95-5.46 1.42-8.73 1.42-5.24 0-10.27-.65-15.08-1.94l2.27-10.06h5.15c.13 2.44.76 4.34 1.88 5.72s2.85 2.07 5.17 2.07c2.13 0 3.78-.52 4.94-1.56 1.17-1.04 1.75-2.51 1.75-4.4q0-1.71-.57-2.88c-.38-.78-1-1.55-1.86-2.29-.87-.74-2.27-1.71-4.22-2.9-2.7-1.62-4.67-3.3-5.9-5.04-1.23-1.75-1.84-3.7-1.84-5.86 0-3.97 1.49-7.02 4.46-9.16 2.97-2.13 7.13-3.2 12.48-3.2"/><text x="2086.18" y="1465.56" fill-opacity="0" font-family="Arial,Arial_MSFontService,sans-serif" font-size="41.5">𝒔</text><path fill="#fdefe8" fill-rule="evenodd" d="M2426 1275c0-60.2 49.02-109 109.5-109s109.5 48.8 109.5 109-49.02 109-109.5 109-109.5-48.8-109.5-109"/><path fill="#d74514" fill-rule="evenodd" d="M2513.49 1249.08h20.39l-.57 2.67c-1.54.43-2.67 1.19-3.4 2.27q-1.095 1.62-2.07 6l-2.84 12.85h17.19l2.83-12.85c.36-1.6.53-3.18.53-4.74 0-1.14-.26-1.97-.79-2.5-.53-.52-1.38-.87-2.57-1.03l.56-2.67h20.39l-.57 2.67c-1.54.43-2.67 1.19-3.4 2.27q-1.095 1.62-2.07 6l-7.37 33.43c-.19.87-.33 1.62-.41 2.25q-.12.96-.12 2.49c0 1.14.26 1.97.79 2.5.53.52 1.38.87 2.57 1.03l-.57 2.68h-20.38l.57-2.68c1.54-.43 2.67-1.19 3.4-2.27q1.095-1.62 2.07-6l3.4-15.48h-17.18l-3.41 15.48c-.18.89-.32 1.65-.4 2.27s-.12 1.45-.12 2.47c0 1.14.26 1.97.79 2.5.52.52 1.38.87 2.57 1.03l-.57 2.68h-20.38l.57-2.68c1.54-.43 2.67-1.19 3.4-2.27q1.095-1.62 2.07-6l7.37-33.43c.35-1.6.53-3.18.53-4.74 0-1.14-.26-1.97-.79-2.5-.53-.52-1.39-.87-2.57-1.03Z"/><text x="2502.35" y="1297.48" fill-opacity="0" font-family="Arial,Arial_MSFontService,sans-serif" font-size="55.32">𝑯</text><path fill-rule="evenodd" d="M3715.36 1554.97c-1.38 0-2.74.46-4.07 1.39-1.34.94-2.81 2.43-4.4 4.48-1.59 2.06-2.84 4.08-3.73 6.08s-1.59 4.3-2.11 6.89l-.32 1.7c-.27 1.44-.44 2.53-.51 3.29-.06.75-.1 1.5-.1 2.22 0 2.11.45 3.65 1.36 4.6q1.35 1.44 4.68 1.44 2.07 0 3.81-.81c1.16-.54 2.26-1.32 3.3-2.35 1.04-1.02 1.98-2.27 2.82-3.73s1.59-3.15 2.25-5.08 1.16-3.92 1.5-5.96.5-3.95.5-5.73c0-2.84-.39-4.96-1.19-6.35s-2.06-2.08-3.79-2.08m-118.17-1.5c-2.81 0-5.27 1.17-7.36 3.52s-3.74 5.72-4.94 10.09c-1.21 4.38-1.81 8.15-1.81 11.31 0 2.97.62 5.17 1.85 6.59 1.23 1.41 3.08 2.12 5.57 2.12 2.65 0 5-1.18 7.05-3.56q3.075-3.57 4.86-9.99c1.19-4.28 1.79-8.05 1.79-11.29 0-2.92-.57-5.11-1.71-6.58-1.13-1.48-2.9-2.21-5.3-2.21m244.4-.08c-2.73 0-5.36 1.37-7.88 4.13-2.53 2.75-4.47 6.48-5.82 11.18 3.81-.02 7.08-.37 9.81-1.03s4.82-1.71 6.28-3.16 2.19-3.4 2.19-5.86c0-1.64-.38-2.93-1.15-3.87-.77-.93-1.92-1.39-3.43-1.39m-84.08 0q-4.17 0-7.5 3.36c-2.21 2.24-3.94 5.25-5.19 9.02q-1.86 5.655-1.86 11.28c0 2.81.39 4.91 1.16 6.31.77 1.39 2.06 2.08 3.87 2.08 1.78 0 3.53-.77 5.24-2.31 1.72-1.54 3.49-3.73 5.31-6.58q2.745-4.275 3.87-9.87l.37-1.74q.36-1.665.48-2.88c.09-.81.13-1.69.13-2.64 0-2.08-.45-3.6-1.34-4.58-.89-.97-2.41-1.45-4.54-1.45m-159.51-3.17c4.32 0 7.61 1.19 9.88 3.55s3.41 5.75 3.41 10.15c0 3.14-.55 6.49-1.64 10.05q-1.65 5.355-4.5 9c-1.91 2.43-4.18 4.26-6.83 5.49s-5.69 1.85-9.12 1.85c-4.19 0-7.44-1.18-9.75-3.53s-3.46-5.73-3.46-10.13c0-2.16.32-4.66.97-7.5.84-3.84 2.24-7.19 4.22-10.05 1.97-2.86 4.4-5.06 7.29-6.59 2.89-1.52 6.07-2.29 9.53-2.29m245.05-.04c3.27 0 5.72.67 7.36 1.99 1.63 1.32 2.45 3.39 2.45 6.2 0 4.59-2.16 8.04-6.47 10.33-4.31 2.3-10.7 3.45-19.19 3.45-.32 1.62-.48 3.38-.48 5.27 0 2.83.55 4.9 1.66 6.18q1.665 1.92 5.43 1.92 3.72 0 6.75-1.62c2.01-1.08 4.14-2.74 6.38-4.98l2.51 2.63c-2.62 2.89-5.27 5.07-7.96 6.53s-5.82 2.19-9.38 2.19c-3.92 0-6.95-1.2-9.1-3.59s-3.22-5.72-3.22-9.99q0-4.335 1.56-9.3c1.04-3.31 2.61-6.28 4.72-8.92 2.11-2.63 4.63-4.67 7.58-6.12a21.1 21.1 0 0 1 9.4-2.17m-53.79 0c1.7 0 3.04.56 4.03 1.69.99 1.12 1.48 2.58 1.48 4.39 0 1.35-.26 2.75-.77 4.18l.53.2c2.64-3.59 5.19-6.23 7.64-7.9 2.44-1.68 4.92-2.52 7.43-2.52q2.955 0 4.95.45l-1.95 9.08h-4.17c-.17-1.14-.4-2.01-.69-2.64-.3-.62-.65-1.05-1.06-1.29-.4-.25-.91-.37-1.54-.37q-1.455 0-3.18 1.26t-3.87 3.93c-1.43 1.78-2.57 3.5-3.42 5.15-.85 1.64-1.56 3.74-2.13 6.28l-3.85 17.55h-7.01l5.87-25.7c.38-1.62.63-2.88.73-3.77.11-.89.17-1.63.17-2.23 0-1.08-.18-1.86-.53-2.35-.35-.48-.91-.73-1.66-.73-.84 0-1.72.35-2.66 1.04-.93.69-2.21 1.94-3.83 3.75l-2.31-2.27c2.49-2.6 4.57-4.44 6.24-5.54 1.68-1.09 3.53-1.64 5.56-1.64m-32.56 0c1.76 0 3.4.2 4.92.59 1.53.39 3.1 1.09 4.72 2.09l3.73-2.68 2.6.65-5.96 25.7c-.6 2.56-.89 4.56-.89 5.99 0 1.09.17 1.87.52 2.36.36.48.91.72 1.67.72.81 0 1.67-.33 2.59-.99s2.22-1.92 3.89-3.79l2.31 2.27c-2.43 2.6-4.5 4.44-6.22 5.53-1.72 1.1-3.57 1.65-5.57 1.65-1.68 0-3.02-.56-4.02-1.67-.99-1.1-1.49-2.58-1.49-4.41 0-1.49.31-3.07.93-4.75l-.53-.16q-3.885 5.67-7.38 8.31c-2.32 1.76-4.78 2.63-7.37 2.63-2.97 0-5.28-1.12-6.91-3.36-1.64-2.24-2.45-5.39-2.45-9.44 0-4.65.91-9.11 2.73-13.4 1.83-4.28 4.33-7.66 7.52-10.13s6.74-3.71 10.66-3.71m-58.4 0c1.67 0 3 .56 3.99 1.67.99 1.1 1.48 2.58 1.48 4.41 0 1.52-.31 3.11-.93 4.78l.48.17c5-7.32 9.97-10.99 14.92-10.99 2.94 0 5.23 1.13 6.87 3.37 1.63 2.24 2.45 5.4 2.45 9.48 0 4.46-.9 8.84-2.7 13.15-1.79 4.31-4.29 7.73-7.47 10.26-3.19 2.52-6.76 3.79-10.7 3.79-3.6 0-6.58-.79-8.96-2.36l-1.86 8.88c-.41 1.92-.61 3.5-.61 4.74 0 1.19.3 2.03.91 2.53s1.79.84 3.55 1l-.33 1.98h-12.52l9.77-43c.56-2.48.85-4.52.85-6.12 0-1.08-.18-1.86-.53-2.35-.35-.48-.9-.73-1.66-.73-.84 0-1.72.35-2.66 1.04-.93.69-2.2 1.94-3.83 3.75l-2.31-2.27q3.66-3.81 6.18-5.49c1.69-1.13 3.56-1.69 5.62-1.69m-70 0c1.7 0 3.04.56 4.03 1.69.99 1.12 1.48 2.58 1.48 4.39q0 2.235-.93 4.74l.48.17c2.49-3.71 4.96-6.45 7.42-8.25s4.94-2.7 7.46-2.7c2.59 0 4.56.74 5.91 2.21 1.35 1.48 2.03 3.6 2.03 6.39v.56c0 .19-.01.4-.04.61 2.32-3.3 4.64-5.75 6.95-7.35 2.31-1.61 4.71-2.42 7.19-2.42 2.49 0 4.41.72 5.76 2.15s2.03 3.45 2.03 6.04c0 1.7-.4 4.12-1.18 7.26l-2.63 10.61c-.73 2.95-1.1 5.03-1.1 6.24 0 1.09.18 1.87.53 2.36.35.48.9.72 1.66.72.81 0 1.67-.33 2.59-.99s2.22-1.92 3.89-3.79l2.31 2.27c-2.32 2.46-4.35 4.27-6.07 5.43-1.73 1.16-3.71 1.75-5.92 1.75-1.76 0-3.16-.63-4.22-1.89-1.05-1.26-1.58-2.86-1.58-4.8 0-1.76.45-4.34 1.34-7.74l1.78-7.01c.65-2.54 1.08-4.42 1.28-5.64.2-1.21.3-2.2.3-2.96 0-1.86-.31-3.2-.93-4.03-.62-.82-1.63-1.23-3.04-1.23-1.13 0-2.35.42-3.65 1.27-1.29.85-2.66 2.18-4.09 3.97-1.43 1.8-2.6 3.57-3.5 5.31-.91 1.75-1.63 3.87-2.17 6.39l-3.69 17.71h-7.01l4.66-20.59c.57-2.51.95-4.37 1.15-5.57.21-1.21.31-2.24.31-3.1 0-1.95-.35-3.33-1.04-4.16-.68-.82-1.76-1.23-3.22-1.23-1.02 0-2.19.42-3.5 1.27s-2.71 2.22-4.2 4.1c-1.48 1.87-2.65 3.68-3.48 5.41-.84 1.73-1.54 3.83-2.11 6.32l-3.85 17.55h-7.01l5.92-25.7c.59-2.59.89-4.59.89-6 0-1.08-.18-1.86-.53-2.35-.35-.48-.9-.73-1.66-.73-.84 0-1.72.35-2.66 1.04-.93.69-2.2 1.94-3.83 3.75l-2.31-2.27c2.38-2.49 4.43-4.31 6.14-5.45 1.72-1.15 3.6-1.73 5.66-1.73m-71.28-16.53c2.46 0 4.74.15 6.83.44 2.09.3 4.42.84 6.99 1.63l-2.43 10.98h-3.89c-.22-3.32-.94-5.72-2.17-7.2-1.23-1.47-3.21-2.2-5.94-2.2-3.73 0-7.19 1.86-10.39 5.59s-5.74 8.65-7.6 14.77c-1.87 6.12-2.8 11.8-2.8 17.04 0 4.11.73 7.14 2.19 9.08 1.46 1.95 3.7 2.92 6.73 2.92 2.02 0 3.79-.31 5.31-.91 1.51-.61 2.93-1.64 4.25-3.08q1.995-2.175 3.93-6.06h3.89l-2.47 11.51c-5.05 1.4-10.35 2.11-15.88 2.11-5.08 0-8.95-1.46-11.6-4.38-2.64-2.92-3.97-7.19-3.97-12.81q0-5.955 2.13-13.74c1.42-5.18 3.42-9.74 6.02-13.65 2.59-3.92 5.66-6.91 9.2-8.96s7.43-3.08 11.67-3.08"/><text x="3528" y="1597.87" fill-opacity="0" font-family="Arial,Arial_MSFontService,sans-serif" font-size="73.395">𝐶𝑜𝑚𝑝𝑎𝑟𝑒</text><path d="M730.5 1278.92h694.32v9.16H730.5Zm689.74-18.34 45.83 22.92-45.83 22.92Z"/><path fill-rule="evenodd" d="M1369.55 1467.65h16.21l-.44 1.99c-1.03.21-1.76.46-2.21.73s-.84.67-1.2 1.21c-.35.54-.71 1.39-1.09 2.54-.38 1.14-.85 3.02-1.42 5.61l-2.88 12.93h1.34c1.14 0 2.17-.19 3.1-.57s2.02-1.07 3.26-2.07c1.25-1 3.23-2.83 5.94-5.51 2.72-2.67 4.65-4.71 5.8-6.1s1.98-2.59 2.51-3.6c.53-1.02.79-1.94.79-2.78 0-.68-.27-1.22-.81-1.64q-.81-.63-2.31-.75l.45-1.99h17.38l-.44 1.99c-1.08.16-2.31.72-3.67 1.68-1.37.96-3.45 2.83-6.26 5.61l-15.73 15.32 8.63 20.75c.9 2.14 1.63 3.68 2.21 4.62.58.95 1.28 1.7 2.09 2.25.81.56 1.81.93 3 1.12l-.45 1.98h-15.64l.45-1.98c1.45-.14 2.18-.79 2.18-1.95 0-.73-.14-1.56-.44-2.49s-.65-1.9-1.06-2.9l-5.26-12.89q-.945-2.31-1.62-3.24c-.46-.62-.95-1.05-1.46-1.3-.52-.24-1.31-.36-2.4-.36h-2.26l-3.37 15.32c-.35 1.62-.58 2.9-.69 3.83s-.16 1.76-.16 2.49c0 1.22.3 2.07.91 2.57s1.63.81 3.06.92l-.44 1.98h-16.21l.44-1.98c1.03-.17 1.8-.43 2.31-.79.51-.37.95-.88 1.3-1.52.35-.65.67-1.44.97-2.37.3-.94.74-2.74 1.34-5.41l6.89-31.21c.59-2.7.89-4.88.89-6.53 0-1.27-.32-2.15-.95-2.65-.64-.5-1.64-.79-3.02-.87Zm-28.15-.65c2.49 0 4.79.17 6.91.51s4.46.91 7.03 1.72l-2.27 10.42h-3.89c-.11-2.3-.46-4.1-1.05-5.41-.6-1.31-1.45-2.25-2.56-2.82-1.1-.57-2.58-.85-4.41-.85-2.25 0-4.22.46-5.92 1.38s-3 2.17-3.89 3.75-1.34 3.34-1.34 5.29c0 2.02.54 3.8 1.6 5.33 1.07 1.52 3.12 3.33 6.14 5.41q3.975 2.745 6.06 4.92c1.39 1.45 2.42 2.98 3.08 4.6s.99 3.5.99 5.63c0 3.3-.79 6.22-2.37 8.78-1.58 2.55-3.81 4.52-6.68 5.91-2.88 1.4-6.16 2.09-9.83 2.09-2.49 0-5.17-.2-8.05-.61-2.87-.4-5.45-.92-7.72-1.54l2.44-11.14h3.89c0 3.29.76 5.75 2.29 7.35 1.52 1.61 3.88 2.42 7.07 2.42q5.505 0 8.67-3c2.11-2 3.16-4.79 3.16-8.35 0-1.65-.29-3.1-.87-4.36s-1.46-2.46-2.63-3.61c-1.18-1.14-2.87-2.46-5.09-3.95-2-1.35-3.66-2.68-4.99-3.99a16.1 16.1 0 0 1-3.16-4.4q-1.17-2.43-1.17-5.43 0-4.785 2.31-8.43c1.54-2.43 3.71-4.31 6.52-5.63s6.06-1.99 9.73-1.99"/><text x="1313.23" y="1516.58" fill-opacity="0" font-family="Arial,Arial_MSFontService,sans-serif" font-size="56.657">𝑆𝐾</text><path fill-rule="evenodd" d="M1429.48 1507.2c-1.73 2.82-3.44 5.65-5.14 8.48-1.69 2.82-3.41 5.66-5.13 8.5h11.46c-.1-1.27-.2-2.52-.3-3.74-.09-1.22-.17-2.51-.23-3.86s-.12-2.79-.17-4.32c-.05-1.52-.07-3.21-.07-5.06Zm-.12-6.52h4.92l2.71 31.48c.08 1.01.2 1.87.37 2.56.17.7.4 1.27.7 1.73s.67.8 1.12 1.04q.66.36 1.68.51l-.45 1.82h-12.98l.44-1.82c.56-.1 1.05-.22 1.48-.37.42-.15.78-.4 1.05-.75.28-.35.5-.82.64-1.41.15-.6.23-1.37.23-2.33 0-.35-.01-.77-.03-1.23-.02-.47-.05-.96-.08-1.48q-.045-.765-.12-1.59c-.05-.55-.09-1.08-.13-1.59h-13.34c-.46.67-.91 1.37-1.36 2.08-.45.72-.85 1.42-1.22 2.1-.37.69-.66 1.37-.88 2.04-.22.68-.33 1.34-.33 2 0 1.45 1.07 2.29 3.19 2.53l-.39 1.82h-13.01l.33-1.82c.53-.1 1.01-.25 1.44-.46s.87-.54 1.34-.99c.47-.44.97-1.05 1.52-1.81.55-.77 1.21-1.77 1.98-3.03Z"/><text x="1403.57" y="1534.92" fill-opacity="0" font-family="Arial,Arial_MSFontService,sans-serif" font-size="39.138">𝐴</text><path d="m1372.147 1560.49-.132 57.39 9.166.021.132-57.39Zm-18.455 52.765 22.811 45.885 23.022-45.78ZM606.917 1437.5v303.025h164.179v-9.167H611.5l4.583 4.583V1437.5Zm159.596 321.358 45.833-22.917-45.833-22.916Zm641.987-18.385h171.254v-306.718h-9.167v302.135l4.583-4.583H1408.5Zm189.587-302.135-22.917-45.833-22.916 45.833Zm85.422-150.645 280.488-.53-.017-9.167-280.489.53Zm275.939 17.812 45.79-23.004-45.877-22.83Z"/><path fill-rule="evenodd" d="M3204.05 954.441c-1.68 0-3.43.041-5.27.122l-5.51 24.559h4.21c3.27 0 5.91-.338 7.93-1.013 2.01-.675 3.66-1.722 4.94-3.141 1.28-1.418 2.28-3.1 2.98-5.046q1.05-2.917 1.05-6.403c0-3.134-.79-5.43-2.39-6.889-1.59-1.459-4.24-2.189-7.94-2.189m34.02-3.566h16.21l-.45 1.985c-1.02.217-1.76.46-2.21.73-.44.27-.84.675-1.19 1.216s-.72 1.384-1.1 2.533c-.37 1.148-.85 3.019-1.41 5.613l-2.88 12.928h1.34c1.13 0 2.16-.189 3.1-.567.93-.379 2.02-1.068 3.26-2.067q1.86-1.5 5.94-5.512 4.065-4.012 5.79-6.099c1.15-1.392 1.99-2.594 2.51-3.607.53-1.013.79-1.939.79-2.776q0-1.014-.81-1.642t-2.31-.75l.45-1.985h17.39l-.45 1.985c-1.08.163-2.3.723-3.67 1.682-1.36.96-3.45 2.83-6.26 5.613l-15.72 15.32 8.63 20.75c.89 2.134 1.63 3.674 2.21 4.615.58.95 1.27 1.7 2.08 2.25.81.56 1.81.93 3 1.12l-.44 1.98h-15.65l.45-1.98c1.46-.14 2.19-.78 2.19-1.95q0-1.095-.45-2.489c-.29-.932-.65-1.898-1.05-2.898l-5.27-12.888q-.93-2.31-1.62-3.242c-.46-.621-.95-1.053-1.46-1.297-.51-.243-1.31-.364-2.39-.364h-2.27l-3.36 15.319c-.36 1.621-.58 2.898-.69 3.83s-.17 1.763-.17 2.489c0 1.22.31 2.08.92 2.58.6.5 1.62.8 3.06.91l-.45 1.98h-16.21l.45-1.98c1.02-.16 1.79-.43 2.31-.79.51-.37.94-.87 1.29-1.52s.68-1.44.98-2.372c.29-.932.74-2.736 1.33-5.411l6.89-31.206c.6-2.702.89-4.877.89-6.525 0-1.269-.31-2.154-.95-2.654-.63-.5-1.64-.79-3.02-.872Zm-51 0h17.87q4.83 0 7.92.749c2.07.5 3.77 1.27 5.11 2.31a9.53 9.53 0 0 1 3 3.952q.99 2.391.99 5.552 0 6.08-2.88 10.537-2.865 4.458-7.8 6.566c-3.28 1.405-7.22 2.107-11.81 2.107-2.76 0-5.05-.054-6.89-.162l-2.59 11.915q-.375 1.662-.51 2.553-.15.892-.24 1.925a19 19 0 0 0-.11 1.841c0 .84.14 1.5.41 1.97s.68.82 1.22 1.03c.54.22 1.47.38 2.79.49l-.44 1.98h-16.66l.45-1.98c1.02-.16 1.79-.43 2.31-.79.51-.37.94-.87 1.29-1.52s.68-1.44.98-2.372c.29-.932.74-2.736 1.33-5.411l6.89-31.206c.6-2.702.89-4.836.89-6.403q0-1.986-.93-2.756c-.62-.513-1.63-.81-3.04-.892Z"/><text x="3176.45" y="999.279" fill-opacity="0" font-family="Arial,Arial_MSFontService,sans-serif" font-size="55.32">𝑃𝐾</text><path fill-rule="evenodd" d="M3298.44 990.423c-1.72 2.82-3.44 5.645-5.13 8.474-1.7 2.833-3.42 5.663-5.14 8.503h11.46c-.09-1.27-.19-2.52-.29-3.74s-.18-2.5-.24-3.854c-.06-1.35-.12-2.79-.17-4.319a192 192 0 0 1-.07-5.064Zm-.12-6.522h4.92l2.71 31.479c.08 1.02.2 1.87.37 2.56.17.7.4 1.28.7 1.73.3.46.67.81 1.12 1.04.44.24 1.01.41 1.68.51l-.45 1.82h-12.98l.44-1.82c.56-.1 1.05-.22 1.48-.37s.78-.4 1.06-.75c.27-.34.49-.81.64-1.41s.22-1.37.22-2.32c0-.36-.01-.77-.03-1.24s-.04-.96-.07-1.47c-.03-.52-.07-1.05-.12-1.6-.05-.54-.1-1.07-.14-1.59h-13.34c-.46.67-.91 1.37-1.36 2.08-.44.72-.85 1.42-1.22 2.1-.36.69-.66 1.37-.88 2.04-.21.68-.32 1.34-.32 2 0 1.45 1.06 2.29 3.18 2.53l-.38 1.82h-13.02l.33-1.82c.53-.1 1.02-.25 1.44-.46.43-.21.88-.54 1.34-.98.47-.45.98-1.06 1.52-1.82.55-.76 1.21-1.77 1.98-3.02Z"/><text x="3272.53" y="1018.15" fill-opacity="0" font-family="Arial,Arial_MSFontService,sans-serif" font-size="39.138">𝐴</text><path d="M3242.08 1043.5v113.42l-9.16.01V1043.5Zm18.34 108.84-22.92 45.84-22.92-45.84Zm9.08 118.58h425.85v181.54h-9.16V1275.5l4.58 4.58H3269.5Zm444.19 176.96-22.92 45.83-22.92-45.83ZM2234.5 1270.92h151.29v9.16H2234.5Zm146.71-18.34 45.83 22.92-45.83 22.92Z"/><path fill="#fdefe8" fill-rule="evenodd" d="M812 1735.5c0-60.48 48.801-109.5 109-109.5s109 49.02 109 109.5c0 60.47-48.801 109.5-109 109.5s-109-49.03-109-109.5"/><path fill="#d74514" fill-rule="evenodd" d="M898.847 1709.82h20.385l-.567 2.67c-1.54.44-2.675 1.19-3.404 2.27q-1.095 1.62-2.067 6l-2.837 12.85h17.183l2.837-12.85q.528-2.385.527-4.74 0-1.71-.79-2.49c-.527-.53-1.385-.87-2.574-1.04l.568-2.67h20.385l-.567 2.67c-1.54.44-2.675 1.19-3.405 2.27q-1.094 1.62-2.066 6l-7.376 33.44q-.285 1.29-.406 2.25-.121.945-.121 2.49 0 1.695.79 2.49c.527.53 1.385.87 2.573 1.03l-.567 2.68h-20.385l.567-2.68c1.54-.43 2.675-1.18 3.405-2.27.729-1.08 1.418-3.08 2.066-5.99l3.405-15.49h-17.184l-3.404 15.49c-.189.89-.324 1.64-.405 2.27-.082.62-.122 1.44-.122 2.47q0 1.695.79 2.49c.527.53 1.385.87 2.574 1.03l-.568 2.68h-20.385l.567-2.68c1.541-.43 2.675-1.18 3.405-2.27.729-1.08 1.418-3.08 2.067-5.99l7.376-33.44q.526-2.385.526-4.74 0-1.71-.79-2.49c-.527-.53-1.384-.87-2.573-1.04Z"/><text x="887.702" y="1758.22" fill-opacity="0" font-family="Arial,Arial_MSFontService,sans-serif" font-size="55.32">𝑯</text><path d="M1030.5 1731.92h118.05v9.16H1030.5Zm113.47-18.34 45.83 22.92-45.83 22.92Z"/><path fill="#fdefe8" fill-rule="evenodd" d="M3051 1275c0-60.2 48.8-109 109-109s109 48.8 109 109-48.8 109-109 109-109-48.8-109-109"/><path fill="#d74514" fill-rule="evenodd" d="M3167.07 1267.76c-2.51 0-4.78 1.24-6.79 3.73-2.01 2.48-3.67 6.1-4.96 10.86 4.97-.14 8.77-1.09 11.41-2.86 2.63-1.77 3.95-4.27 3.95-7.52 0-1.37-.32-2.42-.96-3.14-.63-.71-1.52-1.07-2.65-1.07m32.42-4.22q3.375 0 5.37 1.89c1.34 1.25 2.01 2.91 2.01 4.96q0 1.095-.45 2.76l.33.12c2.27-3.19 4.64-5.61 7.13-7.25 2.49-1.65 5.24-2.48 8.27-2.48 1.78 0 3.67.26 5.67.77l-2.39 10.91h-7.25c0-1.81-.2-3.07-.59-3.77-.39-.71-1.06-1.06-2.01-1.06-.73 0-1.52.26-2.39.77-.86.52-1.9 1.52-3.1 3-1.2 1.49-2.11 2.91-2.71 4.26-.61 1.35-1.15 3.08-1.61 5.18l-4.57 20.8h-11.64l6.53-28.17c.4-1.76.61-3.09.61-4.01q0-1.335-.45-2.07c-.3-.49-.81-.73-1.54-.73-.84 0-1.74.38-2.71 1.14-.98.75-2.11 1.87-3.41 3.36l-2.92-2.92c2.71-2.75 5.1-4.69 7.2-5.79 2.09-1.11 4.3-1.67 6.62-1.67m-31.41 0c8.27 0 12.4 2.99 12.4 8.96q0 3.075-1.23 5.43c-.83 1.57-2.2 2.99-4.12 4.26-1.91 1.27-4.62 2.29-8.12 3.08-3.5.78-7.72 1.23-12.67 1.33-.35 1.6-.52 3.25-.52 4.95 0 2.51.52 4.4 1.58 5.67 1.05 1.27 2.65 1.91 4.78 1.91 2.38 0 4.53-.48 6.44-1.44 1.92-.96 4.18-2.67 6.77-5.13l3.41 3.41q-4.095 4.62-8.82 6.84c-3.15 1.49-6.56 2.23-10.23 2.23-3.16 0-5.85-.55-8.07-1.66-2.21-1.11-3.88-2.75-5-4.92q-1.68-3.27-1.68-7.8c0-1.41.19-3.2.56-5.39.52-2.98 1.3-5.62 2.35-7.95 1.33-2.86 3.06-5.32 5.19-7.37 2.14-2.06 4.64-3.64 7.52-4.74 2.88-1.11 6.03-1.67 9.46-1.67m-77.88-14.46h20.95l-.61 2.67c-1.18.08-2.11.38-2.77.89-.66.52-1.14 1.2-1.42 2.07-.28.86-.43 2.16-.43 3.89v1.74c0 .6.02 1.23.04 1.91l.29 14.22c.11 5.43.16 10.39.16 14.88h.49l13.09-24.56c2.1-3.95 3.39-6.6 3.87-7.97.47-1.36.71-2.6.71-3.71q0-2.91-3.45-3.36l.61-2.67h17.26l-.6 2.67c-.98.22-1.82.59-2.54 1.11-.71.53-1.38 1.22-2 2.07s-1.54 2.36-2.76 4.52l-25.17 45.23h-10.17l-1.74-43.32c-.06-1.54-.16-2.93-.33-4.16-.16-1.23-.41-2.23-.77-3.02-.35-.78-.79-1.36-1.31-1.72-.53-.37-1.2-.6-2.01-.71Z"/><text x="3089.59" y="1298.05" fill-opacity="0" font-family="Arial,Arial_MSFontService,sans-serif" font-size="55.968">𝑽𝒆𝒓</text><path d="M2120.08 1662.11v82.5l-4.58-4.58h1575.38l-4.58 4.58v-76.86h9.17v81.44H2110.92v-87.08Zm1547.89 10.22 22.91-45.83 22.92 45.83Z"/><path fill-rule="evenodd" d="M1188.12 1378.12c-1.68 0-3.43.04-5.27.12l-5.51 24.56h4.21c3.27 0 5.91-.34 7.93-1.01 2.01-.68 3.66-1.72 4.94-3.14 1.29-1.42 2.28-3.1 2.98-5.05.7-1.94 1.05-4.08 1.05-6.4 0-3.13-.79-5.43-2.39-6.89-1.59-1.46-4.24-2.19-7.94-2.19m34.02-3.56h16.21l-.45 1.98c-1.02.22-1.76.46-2.2.73-.45.27-.85.68-1.2 1.22s-.72 1.38-1.09 2.53c-.38 1.15-.86 3.02-1.42 5.61l-2.88 12.93h1.34c1.13 0 2.17-.19 3.1-.57s2.02-1.06 3.26-2.06q1.86-1.5 5.94-5.52 4.065-4.005 5.79-6.09c1.15-1.4 1.99-2.6 2.52-3.61.52-1.02.79-1.94.79-2.78 0-.67-.27-1.22-.81-1.64-.55-.42-1.32-.67-2.32-.75l.45-1.98h17.39l-.45 1.98c-1.08.16-2.3.72-3.67 1.68-1.36.96-3.45 2.83-6.26 5.62l-15.72 15.32 8.63 20.75c.89 2.13 1.63 3.67 2.21 4.62.58.94 1.28 1.69 2.09 2.24.81.56 1.81.93 2.99 1.12l-.44 1.98h-15.64l.44-1.98c1.46-.14 2.19-.78 2.19-1.95q0-1.095-.45-2.49c-.29-.93-.64-1.9-1.05-2.9l-5.27-12.88c-.62-1.54-1.16-2.62-1.62-3.25-.46-.62-.95-1.05-1.46-1.29-.51-.25-1.31-.37-2.39-.37h-2.27l-3.36 15.32c-.35 1.62-.58 2.9-.69 3.83s-.16 1.76-.16 2.49c0 1.22.3 2.08.91 2.58s1.63.8 3.06.91l-.45 1.98h-16.21l.45-1.98c1.02-.16 1.79-.43 2.31-.79.51-.37.94-.87 1.29-1.52s.68-1.44.98-2.37c.29-.93.74-2.74 1.33-5.41l6.89-31.21c.6-2.7.89-4.88.89-6.52 0-1.27-.31-2.16-.95-2.66-.63-.5-1.64-.79-3.02-.87Zm-51 0h17.87c3.22 0 5.86.24 7.92.74 2.07.5 3.77 1.27 5.11 2.31a9.6 9.6 0 0 1 3 3.96q.99 2.385.99 5.55c0 4.05-.96 7.56-2.87 10.54-1.92 2.97-4.52 5.16-7.81 6.56-3.28 1.41-7.22 2.11-11.81 2.11-2.76 0-5.05-.06-6.89-.16l-2.59 11.91c-.25 1.11-.41 1.96-.51 2.55-.09.6-.18 1.24-.24 1.93-.07.69-.1 1.3-.1 1.84 0 .84.13 1.5.4 1.97s.68.82 1.22 1.03c.54.22 1.47.38 2.79.49l-.44 1.98h-16.66l.45-1.98c1.02-.16 1.79-.43 2.31-.79.51-.37.94-.87 1.29-1.52s.68-1.44.98-2.37c.29-.93.74-2.74 1.33-5.41l6.89-31.21c.6-2.7.89-4.83.89-6.4 0-1.33-.31-2.24-.93-2.76-.62-.51-1.63-.81-3.04-.89Z"/><text x="1160.52" y="1422.96" fill-opacity="0" font-family="Arial,Arial_MSFontService,sans-serif" font-size="55.32">𝑃𝐾</text><path fill-rule="evenodd" d="M1286.5 1407.52c1.96 0 3.82.15 5.57.45 1.74.3 3.52.73 5.33 1.31l-1.82 7.92h-3.22c-.11-2.26-.66-3.94-1.62-5.02s-2.51-1.62-4.63-1.62q-4.68 0-8.28 3.93c-1.01 1.11-1.96 2.48-2.83 4.11s-1.63 3.4-2.28 5.3c-.64 1.91-1.15 3.89-1.52 5.93-.36 2.05-.55 4.04-.55 5.99 0 2.92.55 5.05 1.65 6.4 1.11 1.35 2.82 2.03 5.14 2.03.84 0 1.66-.09 2.46-.26s1.56-.43 2.26-.79c.71-.35 1.33-.82 1.88-1.38.55-.57.98-1.24 1.3-2.01.21-.5.41-1.07.58-1.73.17-.65.3-1.3.4-1.94.1-.63.17-1.21.22-1.72.05-.52.08-.91.08-1.16 0-.88-.24-1.49-.7-1.84-.47-.34-1.31-.55-2.52-.61l.42-1.81h12.66l-.45 1.81c-.72.16-1.26.32-1.64.48s-.69.46-.95.89c-.18.22-.41.83-.69 1.82s-.59 2.18-.94 3.56c-.34 1.38-.7 2.87-1.07 4.48s-.71 3.15-1.03 4.62a32 32 0 0 1-2.5.62c-.3-.33-.58-.69-.86-1.05-.28-.37-.55-.73-.81-1.09-.95.44-1.81.8-2.57 1.09-.77.29-1.49.51-2.18.68q-1.02.255-2.01.36c-.65.07-1.34.1-2.05.1-2.05 0-3.83-.32-5.35-.96-1.52-.65-2.77-1.55-3.77-2.71q-1.485-1.755-2.22-4.14c-.48-1.6-.73-3.37-.73-5.29q0-3.045.6-6.18c.4-2.1 1-4.14 1.82-6.12a29 29 0 0 1 3.04-5.62 21.5 21.5 0 0 1 4.24-4.58c1.62-1.3 3.43-2.34 5.45-3.1 2.02-.77 4.24-1.15 6.69-1.15"/><text x="1264.66" y="1442.39" fill-opacity="0" font-family="Arial,Arial_MSFontService,sans-serif" font-size="39.852">𝐺</text><path d="m1217.067 1467.496-.118 150.488 9.166.007.118-150.487Zm-18.448 145.89 22.88 45.852 22.953-45.816Z"/><path fill-rule="evenodd" d="M1307.01 1973.63h2.35l-7.94 35.38h1.3c2.02 0 4.3-.89 6.82-2.66q3.795-2.655 6.06-4.92c1.52-1.51 2.27-2.97 2.27-4.38 0-1.32-.92-2.07-2.75-2.23l.44-1.98h13.13l.77 1.98c-2.24 2.03-4.62 4.01-7.13 5.96l-10.05 7.78 3.97 14.63q.495 1.86.87 2.7c.26.55.56.96.89 1.23.34.27.79.41 1.36.41q1.05 0 2.52-1.14c.97-.75 2.08-1.85 3.32-3.28l2.31 2.27c-2.43 2.57-4.45 4.35-6.04 5.35q-2.385 1.5-4.62 1.5-2.76 0-4.38-1.56c-1.08-1.04-1.93-2.78-2.55-5.21l-2.68-10.54c-.27-1.05-.54-1.78-.81-2.18q-.405-.615-.93-.81-.525-.21-1.86-.21h-2.8l-4.21 19.86h-7.01l10.41-46.32c.35-1.57.6-2.79.75-3.67s.22-1.65.22-2.33c0-1.13-.34-1.93-1.03-2.39s-1.93-.72-3.71-.77l.49-2.11Z"/><text x="1289.63" y="2024.9" fill-opacity="0" font-family="Arial,Arial_MSFontService,sans-serif" font-size="58.602">𝑘</text><path d="M1303.083 1935.69v-48.942h-9.166v48.942Zm18.334-44.359-22.917-45.833-22.917 45.833Z"/><path fill="#fdefe8" d="M1997 1517h237v145h-237z"/><path fill="#d74514" fill-rule="evenodd" d="M2095.62 1577.98c2.24 0 4.03.62 5.37 1.88 1.33 1.26 2 2.91 2 4.97 0 .73-.15 1.64-.44 2.75l.32.12c2.27-3.19 4.65-5.6 7.13-7.25 2.49-1.65 5.25-2.47 8.27-2.47 1.79 0 3.68.25 5.68.77l-2.4 10.9h-7.25c0-1.81-.2-3.07-.59-3.77s-1.06-1.05-2-1.05c-.73 0-1.53.25-2.39.77-.87.51-1.9 1.51-3.1 2.99-1.21 1.49-2.11 2.91-2.72 4.26s-1.14 3.08-1.6 5.19l-4.58 20.79h-11.63l6.52-28.17c.41-1.75.61-3.09.61-4.01 0-.89-.15-1.58-.44-2.07-.3-.48-.82-.73-1.55-.73-.83 0-1.74.38-2.71 1.14-.97.75-2.11 1.88-3.4 3.36l-2.92-2.92c2.7-2.75 5.1-4.68 7.19-5.79a13.9 13.9 0 0 1 6.63-1.66"/><text x="2081.8" y="1613.72" fill-opacity="0" font-family="Arial,Arial_MSFontService,sans-serif" font-size="40.852">𝒓</text><path d="M2234.5 1594.273h1008.09v-200.52h-9.171v195.937l4.581-4.583H2234.5Zm1026.42-195.937-22.92-45.833-22.914 45.833Z"/><path d="M2236.5 1445.543h851.89v-51.794h-9.167v47.211l4.584-4.583H2236.5Zm870.223-47.21-22.916-45.834-22.917 45.833ZM2645.5 1270.92h365.14v9.16H2645.5Zm360.56-18.34 45.83 22.92-45.83 22.92Z"/><path fill-rule="evenodd" d="M3049.71 1042.47c-1.67 0-3.43.04-5.27.12l-5.51 24.56h4.22c3.26 0 5.91-.34 7.92-1.01 2.01-.68 3.66-1.72 4.94-3.14 1.29-1.42 2.28-3.1 2.98-5.05.7-1.94 1.05-4.08 1.05-6.4 0-3.13-.79-5.43-2.39-6.89-1.59-1.46-4.24-2.19-7.94-2.19m34.02-3.57h16.21l-.45 1.99c-1.02.22-1.76.46-2.2.73-.45.27-.85.68-1.2 1.22s-.72 1.38-1.09 2.53c-.38 1.15-.85 3.02-1.42 5.61l-2.88 12.93h1.34c1.13 0 2.17-.19 3.1-.57s2.02-1.06 3.26-2.06q1.86-1.5 5.94-5.52c2.71-2.67 4.64-4.7 5.79-6.1q1.725-2.085 2.52-3.6c.52-1.02.79-1.94.79-2.78 0-.67-.27-1.22-.81-1.64q-.81-.63-2.31-.75l.44-1.99h17.39l-.45 1.99c-1.08.16-2.3.72-3.67 1.68-1.36.96-3.45 2.83-6.26 5.62l-15.72 15.32 8.63 20.75c.89 2.13 1.63 3.67 2.21 4.62.58.94 1.28 1.69 2.09 2.24.81.56 1.81.93 3 1.12l-.45 1.98h-15.64l.44-1.98c1.46-.14 2.19-.78 2.19-1.95q0-1.095-.45-2.49c-.29-.93-.64-1.9-1.05-2.9l-5.27-12.88c-.62-1.54-1.16-2.62-1.62-3.25-.46-.62-.94-1.05-1.46-1.29-.51-.25-1.31-.37-2.39-.37h-2.27l-3.36 15.32c-.35 1.62-.58 2.9-.69 3.83s-.16 1.76-.16 2.49c0 1.22.3 2.08.91 2.58s1.63.8 3.06.91l-.45 1.98h-16.21l.45-1.98c1.02-.16 1.79-.43 2.31-.79.51-.37.94-.87 1.29-1.52.36-.65.68-1.44.98-2.37.29-.93.74-2.74 1.33-5.41l6.89-31.21c.6-2.7.9-4.88.9-6.52 0-1.27-.32-2.16-.96-2.66-.63-.5-1.64-.79-3.02-.87Zm-51 0h17.87c3.22 0 5.86.25 7.93.75q3.09.75 5.1 2.31a9.5 9.5 0 0 1 3 3.96q.99 2.385.99 5.55c0 4.05-.96 7.56-2.87 10.54-1.92 2.97-4.52 5.16-7.81 6.56-3.28 1.41-7.22 2.11-11.81 2.11-2.75 0-5.05-.06-6.89-.16l-2.59 11.91c-.25 1.11-.41 1.96-.51 2.55-.09.6-.17 1.24-.24 1.93s-.1 1.3-.1 1.84c0 .84.13 1.5.4 1.97s.68.82 1.22 1.03c.54.22 1.47.38 2.79.49l-.44 1.98h-16.66l.45-1.98c1.02-.16 1.79-.43 2.31-.79.51-.37.94-.87 1.29-1.52.36-.65.68-1.44.98-2.37.29-.93.74-2.74 1.33-5.41l6.89-31.21c.6-2.7.9-4.83.9-6.4 0-1.33-.32-2.24-.94-2.76-.62-.51-1.63-.81-3.04-.89Z"/><text x="3022.11" y="1087.31" fill-opacity="0" font-family="Arial,Arial_MSFontService,sans-serif" font-size="55.32">𝑃𝐾</text><path fill-rule="evenodd" d="M3148.09 1071.87c1.96 0 3.82.15 5.57.45 1.74.3 3.52.73 5.33 1.31l-1.82 7.92h-3.21c-.12-2.26-.66-3.94-1.63-5.02-.96-1.08-2.5-1.62-4.63-1.62q-4.68 0-8.28 3.93c-1.01 1.11-1.96 2.48-2.83 4.11s-1.63 3.4-2.28 5.3c-.64 1.91-1.15 3.89-1.52 5.93-.36 2.05-.55 4.04-.55 5.99 0 2.92.55 5.05 1.66 6.4 1.1 1.35 2.81 2.03 5.13 2.03.84 0 1.66-.09 2.46-.26s1.56-.43 2.26-.79c.71-.35 1.33-.82 1.88-1.38.55-.57.98-1.24 1.3-2.01.21-.5.41-1.07.58-1.73.17-.65.3-1.3.4-1.94.1-.63.17-1.21.22-1.72.05-.52.08-.91.08-1.16 0-.88-.24-1.49-.7-1.84-.47-.34-1.31-.55-2.52-.61l.42-1.81h12.66l-.45 1.81c-.72.16-1.26.32-1.64.48s-.69.46-.95.89c-.18.22-.41.83-.69 1.82s-.59 2.18-.94 3.56c-.34 1.38-.7 2.87-1.07 4.48s-.71 3.15-1.03 4.62a32 32 0 0 1-2.5.62c-.3-.33-.58-.69-.86-1.05-.28-.37-.55-.73-.81-1.09-.95.44-1.81.8-2.57 1.09-.77.28-1.49.51-2.18.68q-1.02.255-2.01.36c-.65.07-1.34.1-2.05.1-2.05 0-3.83-.32-5.35-.96-1.52-.65-2.77-1.55-3.77-2.71q-1.485-1.755-2.22-4.14c-.48-1.6-.72-3.37-.72-5.29 0-2.03.19-4.09.59-6.18.4-2.1 1-4.14 1.82-6.12a29 29 0 0 1 3.04-5.62 21.5 21.5 0 0 1 4.24-4.58c1.62-1.31 3.44-2.34 5.45-3.1 2.02-.77 4.25-1.15 6.69-1.15"/><text x="3126.26" y="1106.74" fill-opacity="0" font-family="Arial,Arial_MSFontService,sans-serif" font-size="39.852">𝐺</text><path d="M3088.08 1131.5v25.39h-9.16v-25.39Zm18.34 20.81-22.92 45.83-22.92-45.83Z"/></g></svg>