<svg xmlns="http://www.w3.org/2000/svg" width="3415" height="790" overflow="hidden"><defs><clipPath id="a"><path d="M174-1187h3415v790H174z"/></clipPath></defs><g clip-path="url(#a)" transform="translate(-174 1187)"><path fill="#f8ccb9" d="M174-1113h237v309H174z"/><path fill="#d74514" fill-rule="evenodd" d="M264.898-984.256h18.885l3.161 33.84 19.21-33.84H325l-.568 2.675q-2.31.648-3.404 2.269-1.095 1.622-2.067 5.999l-7.376 33.435a26 26 0 0 0-.405 2.249q-.122.953-.122 2.492 0 1.702.791 2.493.79.79 2.573 1.033l-.567 2.675h-20.386l.568-2.675q2.31-.648 3.404-2.269t2.067-5.998l3.728-17.022a258 258 0 0 1 4.377-16.981h-.81a322 322 0 0 1-4.093 7.255l-18.238 31.57h-6.565l-2.675-24.357q-.932-8.673-1.216-14.873h-.648q-1.622 10.01-3.08 16.616l-3.931 17.792a26 26 0 0 0-.406 2.249q-.121.953-.121 2.492 0 1.702.79 2.493t2.573 1.033l-.567 2.675h-14.873l.567-2.675q2.31-.648 3.404-2.269 1.095-1.621 2.067-5.998l7.376-33.435q.527-2.392.527-4.742 0-1.702-.79-2.493t-2.574-1.033Z"/><text x="253.753" y="-935.851" fill-opacity="0" font-family="Arial,Arial_MSFontService,sans-serif" font-size="55.32">𝑴</text><path fill="#fdefe8" fill-rule="evenodd" d="M871-506c0-60.199 48.801-109 109-109 60.2 0 109 48.801 109 109s-48.8 109-109 109c-60.199 0-109-48.801-109-109"/><path fill="#d74514" fill-rule="evenodd" d="M963.124-531.629h39.356l-2.881 13.049h-5.188q-.202-3.85-.729-5.39t-1.621-2.229-3.08-.689h-10.173l-4.296 19.453h5.634q1.62 0 2.735-.526 1.115-.527 2.067-1.763t1.885-3.425h4.458l-3.891 16.454h-4.174q0-2.35-.284-3.607-.283-1.256-1.054-1.823-.77-.568-2.634-.568h-5.755l-4.782 21.642h9.119q1.783 0 2.776-.243a6.1 6.1 0 0 0 1.823-.77q.831-.527 1.926-1.682t2.168-2.918 2.208-4.235h5.512l-3.728 14.589h-38.542l.568-2.674q2.31-.649 3.404-2.27t2.067-5.998l7.376-33.435q.527-2.391.527-4.742 0-1.701-.791-2.492-.79-.79-2.573-1.034Z"/><text x="951.979" y="-483.225" fill-opacity="0" font-family="Arial,Arial_MSFontService,sans-serif" font-size="55.32">𝑬</text><path fill="#fdefe8" fill-rule="evenodd" d="M1146-958.5c0-60.48 49.02-109.5 109.5-109.5s109.5 49.02 109.5 109.5c0 60.475-49.02 109.5-109.5 109.5S1146-898.025 1146-958.5"/><path fill="#d74514" fill-rule="evenodd" d="M1256.39-984.256h6.32v63.425h-6.32Zm-14.19 0h6.33v63.425h-6.33Z"/><text x="1242.2" y="-928.759" fill-opacity="0" font-family="Arial,Arial_MSFontService,sans-serif" font-size="63.425">∥</text><path fill="#f8ccb9" d="M1680-1187h237v309h-237z"/><path fill="#d74514" fill-rule="evenodd" d="M1771.06-1058.21h18.89l3.16 33.84 19.21-33.84h18.84l-.56 2.68c-1.54.43-2.68 1.19-3.41 2.27s-1.42 3.08-2.06 5.99l-7.38 33.44c-.19.86-.32 1.61-.41 2.25q-.12.945-.12 2.49c0 1.14.27 1.97.79 2.49.53.53 1.39.88 2.58 1.04l-.57 2.67h-20.39l.57-2.67c1.54-.44 2.68-1.19 3.41-2.27s1.41-3.08 2.06-6l3.73-17.02q1.86-8.43 4.38-16.98h-.81c-1.27 2.32-2.64 4.74-4.1 7.25l-18.23 31.57h-6.57l-2.67-24.35c-.62-5.79-1.03-10.74-1.22-14.88h-.65c-1.08 6.68-2.1 12.21-3.08 16.62l-3.93 17.79c-.19.86-.32 1.61-.4 2.25-.08.63-.13 1.46-.13 2.49 0 1.14.27 1.97.79 2.49.53.53 1.39.88 2.58 1.04l-.57 2.67h-14.87l.56-2.67c1.54-.44 2.68-1.19 3.41-2.27q1.095-1.62 2.07-6l7.37-33.44c.35-1.59.53-3.17.53-4.74 0-1.13-.26-1.96-.79-2.49s-1.39-.87-2.58-1.03Z"/><text x="1759.92" y="-1009.8" fill-opacity="0" font-family="Arial,Arial_MSFontService,sans-serif" font-size="55.32">𝑴</text><path fill="#fdefe8" d="M1680-875h237v145h-237z"/><path fill="#fdefe8" fill-rule="evenodd" d="M2886-958.5c0-60.48 48.8-109.5 109-109.5s109 49.02 109 109.5c0 60.475-48.8 109.5-109 109.5s-109-49.025-109-109.5"/><path fill="#d74514" fill-rule="evenodd" d="M2993.21-979.514q-2.025 0-3.12.081l-10.01 45.553q1.86.162 3 .162c3.48 0 6.49-.689 9.01-2.067 2.53-1.378 4.77-3.479 6.73-6.302q2.94-4.235 4.62-10.335a46 46 0 0 0 1.68-12.259q0-4.175-.93-7.011c-.62-1.892-1.48-3.418-2.57-4.58q-1.65-1.743-3.81-2.492c-1.45-.5-2.98-.75-4.6-.75m-18.77-4.742h16.42c4.46 0 8.02.243 10.7.73q3.645.648 6.66 2.229c2.02 1.053 3.6 2.215 4.77 3.485 1.48 1.567 2.65 3.533 3.5 5.897s1.28 5.14 1.28 8.328c0 3.594-.41 7.038-1.22 10.335-.81 3.296-2 6.342-3.59 9.138q-2.37 4.195-5.67 7.214t-6.63 4.702c-2.21 1.121-4.71 1.945-7.49 2.472-2.79.527-6.08.79-9.89.79h-19.98l.57-2.675c1.54-.432 2.67-1.189 3.4-2.269q1.095-1.621 2.07-5.998l7.37-33.435c.35-1.595.53-3.175.53-4.742 0-1.135-.26-1.966-.79-2.493s-1.39-.871-2.57-1.033Z"/><text x="2963.3" y="-935.851" fill-opacity="0" font-family="Arial,Arial_MSFontService,sans-serif" font-size="55.32">𝑫</text><path fill-rule="evenodd" d="M3396.63-686.483q-2.07 0-4.08 1.399c-1.33.932-2.8 2.424-4.39 4.478-1.6 2.053-2.84 4.08-3.73 6.079s-1.6 4.296-2.11 6.89l-.32 1.702q-.405 2.148-.51 3.282c-.07.757-.1 1.5-.1 2.229 0 2.108.45 3.641 1.36 4.6q1.35 1.439 4.68 1.439 2.07 0 3.81-.81 1.74-.811 3.3-2.351t2.82-3.729q1.245-2.188 2.25-5.086a37.4 37.4 0 0 0 1.5-5.957c.33-2.04.5-3.952.5-5.735 0-2.837-.4-4.951-1.19-6.342-.8-1.392-2.06-2.088-3.79-2.088m-118.18-1.499q-4.215 0-7.35 3.526c-2.1 2.35-3.74 5.714-4.95 10.091q-1.8 6.565-1.8 11.307c0 2.972.61 5.167 1.84 6.586q1.845 2.128 5.58 2.128 3.96 0 7.05-3.567 3.075-3.565 4.86-9.99c1.19-4.282 1.78-8.044 1.78-11.287 0-2.918-.56-5.113-1.7-6.585q-1.695-2.21-5.31-2.209m244.41-.081c-2.73 0-5.36 1.378-7.88 4.134q-3.795 4.133-5.82 11.185 5.715-.04 9.81-1.033c2.73-.662 4.82-1.716 6.28-3.161q2.19-2.169 2.19-5.857c0-1.648-.39-2.938-1.16-3.87q-1.155-1.398-3.42-1.398m-84.08 0c-2.79 0-5.28 1.121-7.5 3.364s-3.94 5.248-5.19 9.017q-1.86 5.653-1.86 11.287c0 2.81.38 4.91 1.15 6.302q1.155 2.087 3.87 2.087 2.685 0 5.25-2.31 2.58-2.31 5.31-6.586t3.87-9.868l.37-1.743q.36-1.662.48-2.877.12-1.216.12-2.635c0-2.08-.44-3.607-1.33-4.579-.9-.973-2.41-1.459-4.54-1.459m-159.52-3.161c4.33 0 7.62 1.182 9.89 3.546s3.41 5.748 3.41 10.152c0 3.134-.55 6.484-1.64 10.051q-1.65 5.349-4.5 8.997c-1.91 2.431-4.18 4.262-6.83 5.491q-3.975 1.845-9.12 1.844-6.285 0-9.75-3.526c-2.31-2.35-3.46-5.727-3.46-10.131 0-2.162.32-4.661.97-7.498.84-3.837 2.24-7.187 4.21-10.051 1.98-2.864 4.41-5.059 7.3-6.586 2.89-1.526 6.07-2.289 9.52-2.289m245.06-.041q4.905 0 7.35 1.986c1.64 1.324 2.45 3.391 2.45 6.201 0 4.593-2.15 8.038-6.46 10.334-4.31 2.297-10.71 3.445-19.19 3.445a27 27 0 0 0-.49 5.269c0 2.836.56 4.897 1.67 6.18q1.65 1.925 5.43 1.925c2.48 0 4.73-.54 6.74-1.621q3.03-1.621 6.39-4.985l2.51 2.634c-2.62 2.891-5.27 5.066-7.96 6.525s-5.82 2.189-9.38 2.189c-3.92 0-6.96-1.196-9.1-3.587-2.15-2.391-3.23-5.721-3.23-9.99q0-4.336 1.56-9.301c1.05-3.31 2.62-6.282 4.73-8.916 2.1-2.634 4.63-4.674 7.58-6.12 2.94-1.445 6.07-2.168 9.4-2.168m-53.8 0c1.71 0 3.05.561 4.04 1.682.98 1.121 1.48 2.587 1.48 4.397 0 1.351-.26 2.743-.77 4.175l.52.202c2.65-3.593 5.2-6.227 7.64-7.903q3.675-2.512 7.44-2.512c1.97 0 3.62.148 4.94.445l-1.94 9.079h-4.18c-.16-1.135-.39-2.013-.68-2.635-.3-.621-.65-1.053-1.06-1.297-.4-.243-.92-.364-1.54-.364q-1.455 0-3.18 1.256t-3.87 3.931-3.42 5.147c-.86 1.648-1.56 3.742-2.13 6.282l-3.85 17.548h-7.01l5.87-25.694c.38-1.621.62-2.878.73-3.769.11-.892.16-1.635.16-2.229 0-1.081-.17-1.864-.52-2.351s-.91-.729-1.66-.729c-.84 0-1.73.344-2.66 1.033s-2.21 1.939-3.83 3.749l-2.31-2.269q3.735-3.891 6.24-5.532a9.96 9.96 0 0 1 5.55-1.642m-32.55 0q2.625 0 4.92.588c1.53.392 3.1 1.087 4.72 2.087l3.73-2.675 2.59.649-5.95 25.694c-.6 2.567-.89 4.566-.89 5.998 0 1.081.17 1.864.52 2.351s.91.729 1.66.729c.81 0 1.68-.331 2.6-.993s2.21-1.925 3.89-3.789l2.31 2.269c-2.43 2.594-4.51 4.438-6.22 5.532q-2.58 1.642-5.58 1.642c-1.67 0-3.01-.554-4.01-1.662q-1.5-1.662-1.5-4.417c0-1.486.31-3.067.94-4.742l-.53-.162c-2.6 3.782-5.05 6.552-7.38 8.308-2.32 1.756-4.78 2.634-7.37 2.634-2.98 0-5.28-1.121-6.91-3.364q-2.46-3.363-2.46-9.442c0-4.648.92-9.112 2.74-13.395s4.33-7.659 7.52-10.132 6.74-3.708 10.66-3.708m-58.4 0q2.505 0 3.99 1.662c.98 1.108 1.48 2.58 1.48 4.417 0 1.513-.31 3.107-.94 4.782l.49.163q7.5-10.983 14.91-10.983 4.425 0 6.87 3.363 2.46 3.364 2.46 9.484 0 6.687-2.7 13.151c-1.8 4.309-4.29 7.727-7.48 10.253-3.18 2.527-6.75 3.79-10.7 3.79-3.59 0-6.57-.784-8.95-2.351l-1.87 8.876q-.6 2.877-.6 4.741c0 1.189.3 2.033.91 2.533q.915.75 3.54.993l-.32 1.986h-12.52l9.76-42.999c.57-2.486.85-4.526.85-6.12 0-1.081-.17-1.864-.52-2.351s-.91-.729-1.66-.729c-.84 0-1.73.344-2.66 1.033s-2.21 1.939-3.83 3.749l-2.31-2.269q3.645-3.81 6.18-5.492c1.69-1.121 3.56-1.682 5.62-1.682m-70 0c1.7 0 3.04.561 4.03 1.682.98 1.121 1.48 2.587 1.48 4.397q0 2.23-.93 4.742l.48.162c2.49-3.701 4.96-6.451 7.42-8.247s4.94-2.695 7.45-2.695c2.6 0 4.57.736 5.92 2.208s2.03 3.601 2.03 6.383v.568c0 .189-.02.392-.04.608 2.32-3.296 4.64-5.748 6.95-7.356s4.71-2.411 7.19-2.411q3.735 0 5.76 2.148c1.35 1.432 2.02 3.444 2.02 6.038q0 2.553-1.17 7.255l-2.64 10.618c-.73 2.945-1.09 5.025-1.09 6.241 0 1.081.17 1.864.53 2.351.35.486.9.729 1.66.729.81 0 1.67-.331 2.59-.993s2.22-1.925 3.89-3.789l2.31 2.269c-2.32 2.459-4.35 4.269-6.08 5.431q-2.595 1.743-5.91 1.743c-1.76 0-3.17-.628-4.22-1.885-1.05-1.256-1.58-2.857-1.58-4.802 0-1.756.45-4.337 1.34-7.741l1.78-7.011c.65-2.54 1.08-4.418 1.28-5.634q.3-1.823.3-2.958 0-2.796-.93-4.033c-.62-.824-1.63-1.236-3.04-1.236-1.13 0-2.35.426-3.65 1.277-1.29.851-2.66 2.175-4.09 3.972q-2.145 2.694-3.51 5.309-1.35 2.613-2.16 6.383l-3.69 17.71h-7.01l4.66-20.588c.56-2.512.95-4.37 1.15-5.572s.31-2.236.31-3.1c0-1.946-.35-3.33-1.04-4.155-.69-.824-1.76-1.236-3.22-1.236-1.03 0-2.19.426-3.51 1.277-1.31.851-2.7 2.216-4.19 4.093q-2.235 2.817-3.48 5.411c-.84 1.729-1.54 3.836-2.11 6.322l-3.85 17.548h-7.01l5.91-25.694c.6-2.594.89-4.593.89-5.998 0-1.081-.17-1.864-.52-2.351s-.91-.729-1.66-.729c-.84 0-1.73.344-2.66 1.033s-2.21 1.939-3.83 3.749l-2.31-2.269c2.38-2.486 4.43-4.303 6.14-5.451 1.72-1.149 3.6-1.723 5.66-1.723m-71.28-16.535c2.46 0 4.73.149 6.83.446q3.135.445 6.99 1.621l-2.43 10.983h-3.89c-.22-3.323-.94-5.721-2.17-7.194q-1.845-2.208-5.94-2.209c-3.73 0-7.19 1.865-10.4 5.593q-4.8 5.594-7.59 14.772c-1.87 6.12-2.8 11.801-2.8 17.042q0 6.16 2.19 9.078c1.46 1.946 3.7 2.918 6.73 2.918 2.02 0 3.79-.304 5.3-.912q2.28-.91 4.26-3.08 1.98-2.168 3.93-6.058h3.89l-2.47 11.509c-5.05 1.405-10.35 2.108-15.89 2.108-5.08 0-8.94-1.459-11.59-4.377s-3.97-7.187-3.97-12.807q0-5.957 2.13-13.739c1.42-5.187 3.42-9.74 6.02-13.657 2.59-3.918 5.66-6.904 9.2-8.957q5.31-3.08 11.67-3.08"/><text x="3209.27" y="-643.579" fill-opacity="0" font-family="Arial,Arial_MSFontService,sans-serif" font-size="73.395">𝐶𝑜𝑚𝑝𝑎𝑟𝑒</text><path d="M411.5-962.083h694.32v9.167l-694.32-.001Zm689.74-18.333 45.83 22.917-45.83 22.916Z"/><path fill-rule="evenodd" d="M973.426-868.14h16.211l-.446 1.986q-1.54.324-2.209.729t-1.196 1.216-1.094 2.533-1.418 5.613l-2.878 12.928h1.338q1.702 0 3.1-.567t3.262-2.067 5.938-5.512 5.795-6.099c1.151-1.392 1.991-2.594 2.511-3.607.53-1.013.79-1.939.79-2.776q0-1.014-.81-1.642t-2.31-.749l.45-1.986h17.38l-.44 1.986c-1.08.162-2.31.722-3.67 1.682-1.36.959-3.45 2.83-6.26 5.613l-15.726 15.319 8.636 20.75c.89 2.134 1.62 3.674 2.21 4.62.58.946 1.27 1.695 2.08 2.249q1.215.831 3 1.115l-.44 1.986h-15.648l.446-1.986q2.188-.203 2.188-1.946 0-1.094-.446-2.492a41 41 0 0 0-1.053-2.898l-5.269-12.887q-.932-2.31-1.621-3.243t-1.459-1.296q-.77-.366-2.391-.365h-2.27l-3.363 15.319q-.528 2.432-.689 3.83a22 22 0 0 0-.163 2.492q0 1.824.912 2.574t3.06.912l-.446 1.986h-16.211l.446-1.986q1.54-.244 2.31-.79.77-.548 1.297-1.52.527-.973.973-2.371t1.337-5.411l6.89-31.206q.891-4.052.891-6.524 0-1.905-.952-2.655t-3.019-.871Zm-28.154-.649q3.728 0 6.91.507t7.031 1.722l-2.269 10.416h-3.891q-.162-3.445-1.054-5.411-.891-1.965-2.553-2.816-1.662-.852-4.417-.851-3.364 0-5.917 1.378t-3.891 3.748-1.337 5.289q0 3.04 1.6 5.33 1.602 2.29 6.14 5.41 3.972 2.756 6.059 4.924t3.08 4.6.993 5.633q0 4.944-2.371 8.774t-6.687 5.917-9.828 2.088q-3.728 0-8.044-.608-4.317-.609-7.721-1.54l2.432-11.145h3.891q0 4.944 2.289 7.355t7.072 2.412q5.513 0 8.673-2.999t3.161-8.349q0-2.472-.871-4.357-.871-1.884-2.634-3.607-1.764-1.722-5.086-3.951-3-2.027-4.985-3.992a15.9 15.9 0 0 1-3.161-4.397q-1.176-2.431-1.176-5.431 0-4.782 2.31-8.429t6.525-5.634q4.215-1.986 9.727-1.986"/><text x="917.105" y="-819.214" fill-opacity="0" font-family="Arial,Arial_MSFontService,sans-serif" font-size="56.657">𝑆𝐾</text><path fill-rule="evenodd" d="M1033.35-828.591a1436 1436 0 0 0-5.14 8.474c-1.69 2.829-3.41 5.664-5.13 8.503h11.46c-.09-1.271-.19-2.517-.29-3.738q-.15-1.832-.24-3.857c-.06-1.35-.12-2.79-.17-4.319s-.07-3.217-.07-5.063Zm-.12-6.523h4.92l2.71 31.483c.08 1.012.2 1.866.37 2.561s.4 1.271.7 1.728c.3.456.67.804 1.12 1.042.44.238 1.01.407 1.68.506l-.45 1.817h-12.98l.44-1.817a10 10 0 0 0 1.48-.372c.43-.149.78-.397 1.06-.744.27-.348.49-.82.64-1.415s.22-1.37.22-2.323q0-.537-.03-1.237c-.02-.466-.04-.958-.07-1.474q-.045-.774-.12-1.593c-.05-.547-.1-1.078-.14-1.594h-13.34c-.46.675-.91 1.37-1.36 2.085-.44.715-.85 1.415-1.22 2.1-.36.685-.66 1.365-.88 2.04-.21.675-.32 1.34-.32 1.996q0 2.174 3.18 2.531l-.38 1.817h-13.02l.33-1.817a5.6 5.6 0 0 0 1.44-.461c.43-.209.88-.536 1.34-.983.47-.447.98-1.053 1.52-1.817q.825-1.146 1.98-3.023Z"/><text x="1007.44" y="-800.869" fill-opacity="0" font-family="Arial,Arial_MSFontService,sans-serif" font-size="39.138">𝐴</text><path d="M985.083-775.5v119.739h-9.166V-775.5Zm18.337 115.155-22.92 45.834-22.917-45.834ZM287.917-803.5v303.025h164.179v-9.167H292.5l4.583 4.583V-803.5Zm159.596 321.358 45.833-22.917-45.833-22.916Zm641.987-18.39h171.254V-807.25h-9.167v302.135l4.583-4.583H1089.5Zm189.587-302.135L1256.17-848.5l-22.916 45.833Zm86.422-150.641 280.488-.53-.017-9.167-280.489.53Zm275.939 17.812 45.79-23.004-45.877-22.83Z"/><path fill-rule="evenodd" d="M2961.74-703.585c-1.68 0-3.44.04-5.27.121l-5.51 24.56h4.21q4.905 0 7.92-1.013c2.02-.676 3.66-1.723 4.95-3.141 1.28-1.419 2.27-3.1 2.98-5.046q1.05-2.917 1.05-6.403c0-3.134-.8-5.431-2.39-6.89s-4.24-2.188-7.94-2.188m34.02-3.567h16.21l-.45 1.986c-1.03.216-1.76.46-2.21.73-.44.27-.84.675-1.19 1.216-.36.54-.72 1.384-1.1 2.533-.38 1.148-.85 3.019-1.42 5.613l-2.87 12.928h1.33c1.14 0 2.17-.189 3.1-.568.94-.378 2.02-1.067 3.27-2.066 1.24-1 3.22-2.837 5.93-5.512 2.72-2.675 4.65-4.708 5.8-6.1s1.98-2.593 2.51-3.606c.53-1.014.79-1.939.79-2.777q0-1.012-.81-1.641-.81-.628-2.31-.75l.45-1.986h17.38l-.44 1.986c-1.08.162-2.31.723-3.67 1.682s-3.45 2.83-6.26 5.613l-15.73 15.32 8.64 20.75c.89 2.134 1.62 3.674 2.2 4.62.59.945 1.28 1.695 2.09 2.249q1.215.83 3 1.114l-.44 1.986h-15.65l.45-1.986q2.19-.202 2.19-1.945 0-1.094-.45-2.492t-1.05-2.898l-5.27-12.888q-.93-2.31-1.62-3.242c-.46-.621-.95-1.054-1.46-1.297-.52-.243-1.31-.365-2.39-.365h-2.27l-3.37 15.32q-.525 2.432-.69 3.83c-.1.932-.16 1.763-.16 2.492 0 1.216.31 2.074.91 2.574q.915.749 3.06.911l-.44 1.986h-16.21l.44-1.986q1.545-.243 2.31-.79c.52-.365.95-.871 1.3-1.52.35-.648.68-1.438.97-2.37.3-.933.75-2.736 1.34-5.411l6.89-31.206c.59-2.702.89-4.877.89-6.525 0-1.27-.32-2.155-.95-2.654-.64-.5-1.64-.791-3.02-.872Zm-51 0h17.87q4.815 0 7.92.75c2.07.5 3.77 1.27 5.11 2.31q1.995 1.56 3 3.952.99 2.391.99 5.552 0 6.08-2.88 10.537t-7.8 6.565c-3.28 1.405-7.22 2.108-11.81 2.108-2.76 0-5.06-.054-6.89-.162l-2.6 11.915c-.24 1.108-.41 1.959-.5 2.553-.1.594-.18 1.236-.25 1.925-.06.689-.1 1.304-.1 1.844 0 .838.14 1.493.41 1.966s.67.817 1.21 1.033 1.48.378 2.8.486l-.45 1.986h-16.65l.44-1.986q1.545-.243 2.31-.79c.52-.365.95-.871 1.3-1.52.35-.648.68-1.438.97-2.37.3-.933.75-2.736 1.34-5.411l6.89-31.206c.59-2.702.89-4.836.89-6.403q0-1.986-.93-2.756c-.62-.513-1.64-.811-3.04-.892Z"/><text x="2934.14" y="-658.747" fill-opacity="0" font-family="Arial,Arial_MSFontService,sans-serif" font-size="55.32">𝑃𝐾</text><path fill-rule="evenodd" d="M3056.13-667.603c-1.73 2.82-3.44 5.645-5.14 8.474s-3.41 5.664-5.14 8.504h11.47q-.15-1.907-.3-3.738c-.1-1.221-.17-2.507-.23-3.857s-.12-2.79-.17-4.319-.07-3.217-.07-5.064Zm-.12-6.523h4.92l2.71 31.483c.08 1.013.2 1.867.37 2.562s.4 1.271.7 1.727.67.805 1.12 1.043q.66.357 1.68.506l-.45 1.817h-12.98l.44-1.817a10 10 0 0 0 1.48-.372c.42-.149.78-.397 1.05-.745.28-.347.5-.819.64-1.415.15-.595.23-1.37.23-2.323q0-.536-.03-1.236c-.02-.467-.05-.958-.08-1.474q-.045-.775-.12-1.594c-.05-.546-.09-1.077-.13-1.593h-13.34c-.46.675-.91 1.37-1.36 2.085s-.85 1.414-1.22 2.1c-.37.685-.66 1.365-.88 2.04q-.33 1.012-.33 1.995c0 1.45 1.07 2.294 3.19 2.532l-.39 1.817h-13.01l.33-1.817a5.7 5.7 0 0 0 1.44-.462c.43-.208.87-.536 1.34-.982.47-.447.97-1.053 1.52-1.817q.825-1.148 1.98-3.024Z"/><text x="3030.22" y="-639.88" fill-opacity="0" font-family="Arial,Arial_MSFontService,sans-serif" font-size="39.138">𝐴</text><path d="M3000.083-747.645v-59.605h-9.166v59.605Zm18.334-55.021L2995.5-848.5l-22.916 45.834Zm86.083-159.417h272.26v173.429h-9.16V-957.5l4.58 4.583H3104.5Zm290.6 168.846-22.92 45.833-22.92-45.833Zm-1477.6-13.846h252.23v273.773l-4.58-4.583h206.4v9.166h-210.98V-802.5l4.58 4.583H1917.5Zm449.47 250.856 45.83 22.917-45.83 22.917Z"/><path fill-rule="evenodd" d="M1587.89-683.675h37.28l-2.79 12.442h-3.89c-.11-2.351-.31-4.121-.61-5.309-.3-1.189-.66-2.006-1.07-2.452a3.1 3.1 0 0 0-1.5-.892c-.59-.148-1.42-.223-2.5-.223h-13.21l-4.62 21.237h7.74c1.92 0 3.39-.453 4.4-1.358q1.515-1.358 3.06-4.478h3.69l-3.65 15.562h-3.45c0-2.161-.13-3.627-.4-4.397q-.405-1.155-1.2-1.459c-.52-.203-1.48-.304-2.85-.304h-8.11l-5.19 23.384h12c1.59 0 2.86-.162 3.79-.486s1.81-.851 2.63-1.581c.83-.729 1.65-1.749 2.48-3.059.82-1.311 1.8-3.087 2.93-5.33h3.93l-3.56 14.023h-35.95l.45-1.986q1.53-.244 2.31-.79.765-.548 1.29-1.52c.35-.649.68-1.439.98-2.371.29-.932.74-2.736 1.33-5.41l6.89-31.206c.6-2.702.89-4.877.89-6.525 0-1.27-.31-2.155-.95-2.655-.63-.5-1.64-.79-3.02-.871Z"/><text x="1577.27" y="-635.27" fill-opacity="0" font-family="Arial,Arial_MSFontService,sans-serif" font-size="55.32">𝐸</text><path fill-rule="evenodd" d="M1662.09-650.143h12.56l-.32 1.787-1.16.298c-.32.079-.61.199-.85.357-.25.159-.47.373-.64.641-.18.268-.36.635-.52 1.102q-.255.7-.54 1.757c-.19.705-.4 1.574-.64 2.606l-1.94 8.757h.84c.45 0 .87-.029 1.25-.089.37-.06.75-.164 1.11-.313q.555-.223 1.14-.61c.38-.259.83-.586 1.32-.983 2.07-1.609 3.79-3.048 5.18-4.319s2.52-2.393 3.38-3.366c.87-.973 1.48-1.802 1.85-2.487s.55-1.256.55-1.713c0-.476-.19-.848-.56-1.117-.38-.268-1-.412-1.85-.431l.33-1.877h13.55l-.42 1.877c-.45.039-.89.129-1.29.268-.41.139-.88.392-1.42.759q-.795.552-1.92 1.519c-.74.646-1.68 1.485-2.81 2.517l-11.62 10.484 6.73 13.999c.52 1.093.96 1.956 1.34 2.592.38.635.77 1.142 1.16 1.519.4.377.85.65 1.36.819q.765.254 1.89.462l-.48 1.816h-12.27l.42-1.816c.56-.04.97-.164 1.25-.373q.42-.312.42-.789a9 9 0 0 0-.09-.685 5 5 0 0 0-.21-.789q-.15-.432-.39-1.013c-.16-.387-.36-.849-.59-1.385l-3.99-8.519c-.34-.754-.65-1.35-.91-1.787q-.405-.655-.84-1.012a2.1 2.1 0 0 0-.98-.462c-.37-.07-.83-.104-1.39-.104h-1.63a72 72 0 0 1-.57 2.621c-.22.933-.44 1.881-.65 2.844a214 214 0 0 0-1.17 5.451c-.15.804-.28 1.519-.38 2.144q-.15.938-.15 1.445c0 .834.24 1.425.73 1.772.48.348 1.31.561 2.48.641l-.47 1.816h-12.54l.33-1.816q.915-.15 1.5-.343c.39-.129.74-.407 1.04-.834.31-.427.59-1.067.85-1.921q.39-1.28.9-3.634l4.88-21.713q.3-1.31.45-2.323t.15-1.728q0-1.31-.69-1.862c-.46-.367-1.29-.561-2.5-.58Zm-20.26-.566c1.89 0 3.7.144 5.44.432q2.61.432 5.46 1.385l-1.69 7.566h-3.25c-.06-1.112-.23-2.071-.52-2.875s-.69-1.459-1.21-1.966c-.51-.506-1.17-.883-1.96-1.131-.8-.249-1.74-.373-2.83-.373-1.17 0-2.24.159-3.19.477s-1.77.769-2.44 1.355a6 6 0 0 0-1.57 2.115 6.7 6.7 0 0 0-.55 2.695q0 1.102.27 2.026c.18.615.49 1.211.92 1.787.44.576 1.04 1.161 1.81 1.757.76.596 1.73 1.251 2.9 1.966 1.43.894 2.66 1.738 3.68 2.532s1.86 1.618 2.5 2.472a8.8 8.8 0 0 1 1.42 2.725c.29.963.44 2.041.44 3.232q0 2.59-1.02 4.736a10.8 10.8 0 0 1-2.92 3.693q-1.89 1.55-4.53 2.398t-5.88.849c-1.83 0-3.8-.154-5.9-.462a46 46 0 0 1-6.23-1.355l1.76-8.042h3.16c.06 2.383.69 4.11 1.9 5.182 1.22 1.073 3.08 1.609 5.6 1.609 1.29 0 2.46-.169 3.49-.506 1.03-.338 1.91-.825 2.62-1.46a6.2 6.2 0 0 0 1.64-2.323c.38-.914.56-1.936.56-3.068 0-.794-.09-1.514-.29-2.159q-.3-.968-1.05-1.922-.735-.952-2.01-1.936c-.84-.655-1.89-1.37-3.14-2.144-1.25-.775-2.34-1.544-3.26-2.309q-1.38-1.146-2.31-2.382c-.61-.824-1.08-1.683-1.38-2.577a8.7 8.7 0 0 1-.47-2.859q0-2.502.99-4.542c.65-1.361 1.59-2.532 2.81-3.515q1.83-1.474 4.44-2.279t5.79-.804"/><text x="1620.98" y="-615.838" fill-opacity="0" font-family="Arial,Arial_MSFontService,sans-serif" font-size="39.852">𝑆𝐾</text><path fill-rule="evenodd" d="m1720.68-627.254-8.96 14.258h10.08l-.44-5.811c-.05-.814-.1-2.022-.17-3.625-.06-1.603-.1-3.211-.1-4.822Zm-.34-5.884h4.71l2.73 27.197c.17 1.579.5 2.747 1.02 3.504.51.757 1.38 1.216 2.62 1.379l-.39 1.807h-11.94l.39-1.807c.7-.049 1.26-.195 1.69-.439.42-.244.74-.586.95-1.026.21-.439.32-1.228.32-2.368 0-.504-.04-1.245-.1-2.221l-.29-2.906h-12.02l-1.56 2.466c-.34.57-.71 1.274-1.12 2.112s-.61 1.623-.61 2.356q0 1.904 3 2.026l-.39 1.807h-12.18l.41-1.807a4.05 4.05 0 0 0 1.86-.72c.57-.399 1.13-.932 1.67-1.599.55-.667 1.25-1.668 2.11-3.003Z"/><text x="1697.17" y="-603.487" fill-opacity="0" font-family="Arial,Arial_MSFontService,sans-serif" font-size="33.887">𝐴</text><path fill-rule="evenodd" d="M1973.25-690.677h18.08v77.285h-18.08v-3.12h11.35v-71.045h-11.35Zm-224.9 0h18.08v3.12h-11.35v71.045h11.35v3.12h-18.08Zm32.57 7.002h16.21l-.45 1.986c-1.03.216-1.76.459-2.21.729-.44.27-.84.676-1.19 1.216s-.72 1.385-1.1 2.533-.85 3.019-1.42 5.613l-2.75 12.401h21.76l2.76-12.441q.36-1.662.63-3.547c.17-1.256.26-2.249.26-2.978 0-1.27-.32-2.155-.95-2.655-.64-.5-1.64-.79-3.02-.871l.44-1.986h16.21l-.44 1.986c-1.03.216-1.76.459-2.21.729q-.675.406-1.2 1.216c-.35.54-.71 1.385-1.09 2.533s-.85 3.019-1.42 5.613l-6.93 31.449q-.525 2.39-.69 3.79a22 22 0 0 0-.16 2.533c0 1.215.3 2.073.91 2.573q.915.75 3.06.912l-.44 1.986h-16.22l.45-1.986q1.545-.244 2.31-.79c.51-.365.95-.872 1.3-1.52.35-.649.67-1.439.97-2.371s.74-2.736 1.34-5.41l3.32-15.036h-21.76l-3.37 15.319c-.29 1.351-.51 2.466-.64 3.344a19 19 0 0 0-.21 2.979q0 1.742.81 2.512c.54.514 1.6.838 3.16.973l-.44 1.986h-16.21l.44-1.986q1.545-.244 2.31-.79c.52-.365.95-.872 1.3-1.52.35-.649.68-1.439.97-2.371.3-.932.75-2.736 1.34-5.41l6.89-31.206q.36-1.662.63-3.547c.17-1.256.26-2.249.26-2.978 0-1.27-.32-2.155-.95-2.655-.64-.5-1.64-.79-3.02-.871Z"/><text x="1770.3" y="-635.27" fill-opacity="0" font-family="Arial,Arial_MSFontService,sans-serif" font-size="55.32">𝐻</text><path fill-rule="evenodd" d="M1939.91-690.469c7.89 2.08 13.95 6.572 18.17 13.475 4.23 6.903 6.35 15.231 6.35 24.985q0 14.671-6.33 24.985c-4.21 6.876-10.28 11.355-18.19 13.435l-.98-3.121c6.25-2.08 10.89-6.187 13.93-12.32q4.56-9.2 4.56-23.384c0-9.132-1.52-16.718-4.54-22.756q-4.545-9.058-14.07-12.179Zm-77.55 0 1.1 3.12q-9.48 3.121-14.04 12.179t-4.56 22.756q0 14.184 4.56 23.384t13.92 12.32l-.98 3.121c-7.91-2.08-13.98-6.559-18.19-13.435-4.22-6.876-6.32-15.204-6.32-24.985 0-9.754 2.11-18.082 6.34-24.985s10.28-11.395 18.17-13.475m15.27 6.794h14.47l4.62 39.311 23.63-39.311h12.77l-.45 1.986c-1.03.216-1.76.459-2.21.729-.44.27-.85.676-1.21 1.216-.37.54-.73 1.385-1.1 2.533-.36 1.148-.83 3.019-1.4 5.613l-6.93 31.449q-.525 2.39-.69 3.79c-.1.932-.16 1.776-.16 2.533 0 1.215.31 2.073.91 2.573q.915.75 3.06.912l-.44 1.986h-16.21l.44-1.986q1.545-.244 2.31-.79c.52-.365.95-.872 1.3-1.52.35-.649.68-1.439.97-2.371.3-.932.75-2.736 1.34-5.41l5.39-24.438c.76-3.378 1.62-6.741 2.59-10.092h-.56c-.84 1.594-2.73 4.837-5.68 9.727l-18.44 30.436h-4.41l-3.37-26.059q-.72-5.512-1.62-14.833h-.81c-.92 6.052-1.94 11.658-3.08 16.819l-4.13 18.723c-.57 2.567-.85 4.674-.85 6.323 0 1.215.3 2.073.91 2.573q.915.75 3.06.912l-.45 1.986h-14.18l.44-1.986q1.545-.244 2.31-.79c.52-.365.95-.872 1.3-1.52.35-.649.67-1.439.97-2.371s.75-2.736 1.34-5.41l6.89-31.206c.27-1.162.49-2.27.65-3.324q.24-1.58.24-3.201c0-1.27-.32-2.155-.95-2.655-.64-.5-1.64-.79-3.02-.871Z"/><text x="1867.02" y="-635.27" fill-opacity="0" font-family="Arial,Arial_MSFontService,sans-serif" font-size="55.32">𝑀</text><path d="m1917.5-963.083 927.69.583-.01 9.166-927.68-.583Zm923.11-17.753 45.82 22.945-45.85 22.888Z"/><path fill="#fdefe8" fill-rule="evenodd" d="M493-506c0-60.199 48.801-109 109-109s109 48.801 109 109-48.801 109-109 109-109-48.801-109-109"/><path fill="#d74514" fill-rule="evenodd" d="M580.115-531.629H600.5l-.567 2.674q-2.31.649-3.404 2.27-1.095 1.621-2.067 5.998l-2.837 12.847h17.183l2.837-12.847q.527-2.391.527-4.742 0-1.701-.79-2.492t-2.574-1.034l.568-2.674h20.385l-.567 2.674q-2.31.649-3.405 2.27t-2.067 5.998l-7.376 33.435a26 26 0 0 0-.405 2.249q-.121.952-.121 2.493 0 1.702.79 2.492t2.573 1.034l-.567 2.674h-20.385l.567-2.674q2.31-.649 3.404-2.27 1.095-1.621 2.067-5.998l3.405-15.481H590.49l-3.404 15.481q-.285 1.338-.406 2.27t-.121 2.472q0 1.702.79 2.492t2.574 1.034l-.568 2.674H568.97l.567-2.674q2.31-.649 3.405-2.27t2.066-5.998l7.376-33.435q.528-2.391.527-4.742 0-1.701-.79-2.492t-2.573-1.034Z"/><text x="568.97" y="-483.225" fill-opacity="0" font-family="Arial,Arial_MSFontService,sans-serif" font-size="55.32">𝑯</text><path d="M711.5-510.083h118.049v9.166H711.5Zm113.466-18.334 45.833 22.917-45.833 22.917Z"/><path fill="#fdefe8" fill-rule="evenodd" d="M2412-533.5c0-60.475 49.02-109.5 109.5-109.5S2631-593.975 2631-533.5 2581.98-424 2521.5-424 2412-473.025 2412-533.5"/><path fill="#d74514" fill-rule="evenodd" d="M2499.38-559.195h20.39l-.57 2.675c-1.54.432-2.68 1.189-3.4 2.27q-1.095 1.62-2.07 5.998l-2.84 12.847h17.18l2.84-12.847c.35-1.594.53-3.175.53-4.742 0-1.135-.26-1.966-.79-2.492q-.795-.79-2.58-1.034l.57-2.675h20.39l-.57 2.675c-1.54.432-2.67 1.189-3.4 2.27q-1.095 1.62-2.07 5.998l-7.38 33.435c-.19.864-.32 1.614-.4 2.249q-.12.953-.12 2.492c0 1.135.26 1.966.79 2.493.52.527 1.38.871 2.57 1.033l-.57 2.675h-20.38l.56-2.675c1.54-.432 2.68-1.188 3.41-2.269q1.095-1.621 2.07-5.998l3.4-15.482h-17.18l-3.41 15.482c-.19.891-.32 1.648-.4 2.269q-.12.933-.12 2.472c0 1.135.26 1.966.79 2.493.52.527 1.38.871 2.57 1.033l-.57 2.675h-20.38l.56-2.675c1.54-.432 2.68-1.188 3.41-2.269q1.095-1.621 2.07-5.998l7.37-33.435c.35-1.594.53-3.175.53-4.742 0-1.135-.27-1.966-.79-2.492q-.795-.79-2.58-1.034Z"/><text x="2488.24" y="-510.79" fill-opacity="0" font-family="Arial,Arial_MSFontService,sans-serif" font-size="55.32">𝑯</text><path d="M2631.5-528.24h745.894v-45.01h-9.166v40.426l4.583-4.583H2631.5Zm764.228-40.427-22.917-45.833-22.917 45.833Z"/></g></svg>