<svg width="2232" height="2350" xmlns="http://www.w3.org/2000/svg" xmlns:xlink="http://www.w3.org/1999/xlink" overflow="hidden"><defs><clipPath id="clip0"><rect x="534" y="0" width="2232" height="2350"/></clipPath></defs><g clip-path="url(#clip0)" transform="translate(-534 0)"><rect x="704" y="547" width="433" height="325" fill="#D74514"/><text fill="#FFFFFF" font-family="Microsoft YaHei,Microsoft YaHei_MSFontService,sans-serif" font-weight="700" font-size="83" transform="matrix(1 0 0 1 839.322 690)">DES<tspan font-size="83" x="-1.44373" y="99">ε ε―†</tspan></text><path d="M845.5 341.5C845.5 300.631 878.631 267.5 919.5 267.5 960.369 267.5 993.5 300.631 993.5 341.5 993.5 382.369 960.369 415.5 919.5 415.5 878.631 415.5 845.5 382.369 845.5 341.5Z" stroke="#D74514" stroke-width="9.16667" stroke-miterlimit="8" fill="none" fill-rule="evenodd"/><path d="M0 0 148.129 0.000360892" stroke="#D74514" stroke-width="9.16667" stroke-miterlimit="8" fill="none" fill-rule="evenodd" transform="matrix(-1 0 0 1 993.63 341.5)"/><path d="M0 0 0.000360892 148.129" stroke="#D74514" stroke-width="9.16667" stroke-miterlimit="8" fill="none" fill-rule="evenodd" transform="matrix(1 0 0 -1 919.5 415.629)"/><path d="M924.083 415.464 924.807 506.534 915.641 506.607 914.917 415.537ZM943.103 501.805 920.552 547.819 897.271 502.169Z"/><path d="M897.627 44.5585C895.952 44.5585 894.196 44.599 892.359 44.6801L886.847 69.2396 891.062 69.2396C894.331 69.2396 896.972 68.9019 898.985 68.2264 900.998 67.551 902.646 66.504 903.929 65.0856 905.213 63.6671 906.206 61.9852 906.908 60.0399 907.61 58.0946 907.962 55.9602 907.962 53.6366 907.962 50.5025 907.165 48.2059 905.571 46.747 903.977 45.288 901.329 44.5585 897.627 44.5585ZM880.646 40.9921 898.519 40.9921C901.734 40.9921 904.375 41.242 906.442 41.7418 908.509 42.2417 910.211 43.0117 911.548 44.0519 912.886 45.0921 913.885 46.4092 914.547 48.0033 915.209 49.5974 915.54 51.4481 915.54 53.5555 915.54 57.6083 914.581 61.1207 912.663 64.0927 910.745 67.0647 908.144 69.2531 904.861 70.6581 901.579 72.063 897.641 72.7655 893.048 72.7655 890.292 72.7655 887.995 72.7115 886.158 72.6034L883.564 84.5184C883.321 85.6262 883.152 86.4773 883.058 87.0717 882.963 87.6661 882.882 88.3077 882.815 88.9967 882.747 89.6857 882.713 90.3003 882.713 90.8407 882.713 91.6783 882.848 92.3335 883.118 92.8063 883.389 93.2791 883.794 93.6236 884.334 93.8397 884.875 94.0559 885.807 94.218 887.131 94.326L886.685 96.3119 870.028 96.3119 870.474 94.326C871.501 94.1639 872.271 93.9005 872.784 93.5358 873.297 93.171 873.73 92.6644 874.081 92.016 874.432 91.3676 874.756 90.5773 875.054 89.6451 875.351 88.713 875.797 86.9095 876.391 84.2347L883.281 53.0287C883.875 50.3269 884.172 48.1924 884.172 46.6254 884.172 45.3015 883.861 44.3829 883.24 43.8695 882.619 43.3562 881.605 43.059 880.201 42.9779Z" fill-rule="evenodd"/><text fill="#000000" fill-opacity="0" font-family="Arial,Arial_MSFontService,sans-serif" font-size="55.3198" x="870.028" y="89.3969">π‘ƒ</text><path d="M928.042 74.7924 929.859 74.7924C929.819 75.8845 929.789 76.8624 929.769 77.7262 929.75 78.59 929.735 79.4289 929.725 80.243 929.715 81.0572 929.71 81.8614 929.71 82.6556L929.71 105.292C929.71 105.908 929.73 106.439 929.769 106.886 929.809 107.333 929.874 107.71 929.963 108.018 930.052 108.325 930.171 108.589 930.32 108.807 930.469 109.025 930.643 109.214 930.842 109.373 931.08 109.611 931.398 109.795 931.795 109.924 932.192 110.053 932.698 110.162 933.314 110.252 933.929 110.341 934.669 110.41 935.533 110.46 936.397 110.51 937.434 110.544 938.645 110.564L938.645 113.156 915.026 113.156 915.026 110.564C916.197 110.525 917.19 110.48 918.004 110.43 918.818 110.381 919.513 110.311 920.089 110.222 920.665 110.132 921.127 110.033 921.474 109.924 921.822 109.815 922.125 109.681 922.383 109.522 922.661 109.343 922.899 109.15 923.097 108.941 923.296 108.733 923.455 108.469 923.574 108.152 923.693 107.834 923.787 107.447 923.857 106.99 923.927 106.533 923.961 105.967 923.961 105.292L923.961 83.9364C923.961 83.162 923.812 82.6159 923.514 82.2982 923.217 81.9805 922.79 81.8217 922.234 81.8217 921.618 81.8217 920.705 82.1394 919.493 82.7748 918.282 83.4102 916.714 84.3534 914.787 85.6044 914.529 85.1477 914.291 84.691 914.073 84.2343 913.854 83.7775 913.626 83.3109 913.388 82.8344 915.85 81.4841 918.287 80.1388 920.7 78.7985 923.112 77.4581 925.56 76.1228 928.042 74.7924Z" fill-rule="evenodd"/><text fill="#000000" fill-opacity="0" font-family="Arial,Arial_MSFontService,sans-serif" font-size="38.3633" x="913.388" y="108.36">1</text><path d="M924.083 134.5 924.084 226.227 914.917 226.227 914.917 134.5ZM942.417 221.644 919.5 267.477 896.584 221.644Z"/><path d="M901.05 1089.74C903.508 1089.74 905.785 1089.89 907.878 1090.18 909.972 1090.48 912.303 1091.02 914.869 1091.81L912.438 1102.79 908.547 1102.79C908.331 1099.47 907.608 1097.07 906.379 1095.59 905.15 1094.12 903.171 1093.39 900.442 1093.39 896.713 1093.39 893.248 1095.25 890.046 1098.98 886.845 1102.71 884.312 1107.63 882.448 1113.75 880.583 1119.87 879.651 1125.55 879.651 1130.79 879.651 1134.9 880.381 1137.93 881.84 1139.87 883.299 1141.82 885.541 1142.79 888.567 1142.79 890.594 1142.79 892.363 1142.48 893.876 1141.88 895.389 1141.27 896.808 1140.24 898.132 1138.8 899.456 1137.35 900.766 1135.33 902.063 1132.74L905.953 1132.74 903.481 1144.25C898.429 1145.65 893.133 1146.36 887.595 1146.36 882.515 1146.36 878.651 1144.9 876.004 1141.98 873.356 1139.06 872.032 1134.79 872.032 1129.17 872.032 1125.2 872.741 1120.62 874.16 1115.43 875.578 1110.25 877.584 1105.69 880.178 1101.78 882.772 1097.86 885.838 1094.87 889.378 1092.82 892.917 1090.77 896.808 1089.74 901.05 1089.74Z" fill-rule="evenodd"/><text fill="#000000" fill-opacity="0" font-family="Arial,Arial_MSFontService,sans-serif" font-size="56.6167" x="872.032" y="1139.28">π¶</text><path d="M929.199 1124.19 931.016 1124.19C930.976 1125.28 930.947 1126.26 930.927 1127.12 930.907 1127.98 930.892 1128.82 930.882 1129.64 930.872 1130.45 930.867 1131.26 930.867 1132.05L930.867 1154.69C930.867 1155.3 930.887 1155.83 930.927 1156.28 930.966 1156.73 931.031 1157.1 931.12 1157.41 931.21 1157.72 931.329 1157.98 931.478 1158.2 931.627 1158.42 931.8 1158.61 931.999 1158.77 932.237 1159.01 932.555 1159.19 932.952 1159.32 933.349 1159.45 933.856 1159.56 934.471 1159.65 935.087 1159.74 935.826 1159.81 936.69 1159.85 937.554 1159.9 938.591 1159.94 939.803 1159.96L939.803 1162.55 916.183 1162.55 916.183 1159.96C917.355 1159.92 918.347 1159.87 919.162 1159.83 919.976 1159.78 920.671 1159.71 921.247 1159.62 921.822 1159.53 922.284 1159.43 922.632 1159.32 922.979 1159.21 923.282 1159.08 923.54 1158.92 923.818 1158.74 924.056 1158.54 924.255 1158.34 924.453 1158.13 924.612 1157.86 924.731 1157.55 924.851 1157.23 924.945 1156.84 925.014 1156.39 925.084 1155.93 925.119 1155.36 925.119 1154.69L925.119 1133.33C925.119 1132.56 924.97 1132.01 924.672 1131.69 924.374 1131.38 923.947 1131.22 923.391 1131.22 922.776 1131.22 921.862 1131.53 920.651 1132.17 919.44 1132.81 917.871 1133.75 915.945 1135 915.687 1134.54 915.448 1134.09 915.23 1133.63 915.011 1133.17 914.783 1132.71 914.545 1132.23 917.007 1130.88 919.445 1129.53 921.857 1128.19 924.27 1126.85 926.717 1125.52 929.199 1124.19Z" fill-rule="evenodd"/><text fill="#000000" fill-opacity="0" font-family="Arial,Arial_MSFontService,sans-serif" font-size="38.3633" x="914.545" y="1157.76">1</text><path d="M4.58325-0.0272534 5.38997 135.64-3.77653 135.695-4.58325 0.0272534ZM23.6957 130.948 1.052 176.917-22.1368 131.22Z" transform="matrix(-1 0 0 1 920.552 872.5)"/><path d="M615.5 705.917 663.625 705.917 663.625 715.084 615.5 715.083ZM659.042 687.584 704.875 710.5 659.042 733.417Z"/><path d="M544.789 683.944 561 683.944 560.554 685.93C559.527 686.146 558.791 686.389 558.345 686.659 557.9 686.929 557.501 687.335 557.15 687.875 556.799 688.415 556.434 689.26 556.056 690.408 555.677 691.556 555.205 693.427 554.637 696.021L551.76 708.949 553.097 708.949C554.232 708.949 555.265 708.76 556.197 708.382 557.13 708.004 558.217 707.315 559.46 706.315 560.703 705.315 562.682 703.478 565.397 700.803 568.112 698.128 570.044 696.095 571.193 694.704 572.341 693.312 573.178 692.11 573.705 691.097 574.232 690.084 574.496 689.158 574.496 688.321 574.496 687.645 574.225 687.098 573.685 686.679 573.145 686.261 572.375 686.011 571.375 685.93L571.821 683.944 589.207 683.944 588.761 685.93C587.68 686.092 586.458 686.652 585.093 687.612 583.729 688.571 581.642 690.442 578.832 693.225L563.107 708.544 571.74 729.294C572.631 731.428 573.368 732.968 573.948 733.914 574.529 734.86 575.225 735.609 576.036 736.163 576.846 736.717 577.846 737.089 579.035 737.278L578.589 739.264 562.945 739.264 563.391 737.278C564.85 737.143 565.58 736.494 565.58 735.333 565.58 734.603 565.431 733.772 565.134 732.84 564.837 731.908 564.485 730.942 564.08 729.942L558.811 717.055C558.19 715.515 557.65 714.434 557.19 713.812 556.731 713.191 556.245 712.759 555.731 712.516 555.218 712.272 554.421 712.151 553.34 712.151L551.071 712.151 547.707 727.47C547.356 729.091 547.126 730.368 547.018 731.3 546.91 732.232 546.856 733.063 546.856 733.792 546.856 735.008 547.16 735.866 547.768 736.366 548.376 736.866 549.396 737.17 550.828 737.278L550.382 739.264 534.171 739.264 534.617 737.278C535.643 737.116 536.413 736.852 536.927 736.488 537.44 736.123 537.872 735.616 538.224 734.968 538.575 734.319 538.899 733.529 539.196 732.597 539.493 731.665 539.939 729.861 540.534 727.187L547.423 695.98C548.018 693.279 548.315 691.104 548.315 689.456 548.315 688.186 547.997 687.301 547.362 686.801 546.728 686.301 545.721 686.011 544.343 685.93Z" fill-rule="evenodd"/><text fill="#000000" fill-opacity="0" font-family="Arial,Arial_MSFontService,sans-serif" font-size="55.3198" x="534.171" y="732.349">πΎ</text><rect x="1379" y="547" width="432" height="325" fill="#D74514"/><text fill="#FFFFFF" font-family="Microsoft YaHei,Microsoft YaHei_MSFontService,sans-serif" font-weight="700" font-size="83" transform="matrix(1 0 0 1 1513.95 690)">DES<tspan font-size="83" x="-1.44373" y="99">ε ε―†</tspan></text><path d="M1520.5 341.5C1520.5 300.631 1553.63 267.5 1594.5 267.5 1635.37 267.5 1668.5 300.631 1668.5 341.5 1668.5 382.369 1635.37 415.5 1594.5 415.5 1553.63 415.5 1520.5 382.369 1520.5 341.5Z" stroke="#D74514" stroke-width="9.16667" stroke-miterlimit="8" fill="none" fill-rule="evenodd"/><path d="M0 0 148.129 0.000360892" stroke="#D74514" stroke-width="9.16667" stroke-miterlimit="8" fill="none" fill-rule="evenodd" transform="matrix(-1 0 0 1 1668.63 341.5)"/><path d="M0 0 0.000360892 148.129" stroke="#D74514" stroke-width="9.16667" stroke-miterlimit="8" fill="none" fill-rule="evenodd" transform="matrix(1 0 0 -1 1594.5 415.629)"/><path d="M1599.08 415.464 1599.81 506.534 1590.64 506.607 1589.92 415.537ZM1618.1 501.805 1595.55 547.819 1572.27 502.169Z"/><path d="M1571.3 44.5585C1569.62 44.5585 1567.87 44.599 1566.03 44.6801L1560.52 69.2396 1564.73 69.2396C1568 69.2396 1570.64 68.9019 1572.66 68.2264 1574.67 67.551 1576.32 66.504 1577.6 65.0856 1578.89 63.6671 1579.88 61.9852 1580.58 60.0399 1581.28 58.0946 1581.63 55.9602 1581.63 53.6366 1581.63 50.5025 1580.84 48.2059 1579.24 46.747 1577.65 45.288 1575 44.5585 1571.3 44.5585ZM1554.32 40.9921 1572.19 40.9921C1575.41 40.9921 1578.05 41.242 1580.11 41.7418 1582.18 42.2417 1583.88 43.0117 1585.22 44.0519 1586.56 45.0921 1587.56 46.4092 1588.22 48.0033 1588.88 49.5974 1589.21 51.4481 1589.21 53.5555 1589.21 57.6083 1588.25 61.1207 1586.34 64.0927 1584.42 67.0647 1581.82 69.2531 1578.53 70.6581 1575.25 72.063 1571.31 72.7655 1566.72 72.7655 1563.96 72.7655 1561.67 72.7115 1559.83 72.6034L1557.24 84.5184C1556.99 85.6262 1556.82 86.4773 1556.73 87.0717 1556.64 87.6661 1556.55 88.3077 1556.49 88.9967 1556.42 89.6857 1556.39 90.3003 1556.39 90.8407 1556.39 91.6783 1556.52 92.3335 1556.79 92.8063 1557.06 93.2791 1557.47 93.6236 1558.01 93.8397 1558.55 94.0559 1559.48 94.218 1560.8 94.326L1560.36 96.3119 1543.7 96.3119 1544.15 94.326C1545.17 94.1639 1545.94 93.9005 1546.46 93.5358 1546.97 93.171 1547.4 92.6644 1547.75 92.016 1548.1 91.3676 1548.43 90.5773 1548.73 89.6451 1549.02 88.713 1549.47 86.9095 1550.06 84.2347L1556.95 53.0287C1557.55 50.3269 1557.84 48.1924 1557.84 46.6254 1557.84 45.3015 1557.53 44.3829 1556.91 43.8695 1556.29 43.3562 1555.28 43.059 1553.87 42.9779Z" fill-rule="evenodd"/><text fill="#000000" fill-opacity="0" font-family="Arial,Arial_MSFontService,sans-serif" font-size="55.3198" x="1543.7" y="89.3969">π‘ƒ</text><path d="M1601.29 74.5839C1603.36 74.5839 1605.12 74.8172 1606.58 75.2838 1608.04 75.7505 1609.23 76.3809 1610.14 77.1752 1611.05 77.9694 1611.71 78.9226 1612.12 80.0345 1612.53 81.1465 1612.73 82.3479 1612.73 83.6385 1612.73 84.413 1612.68 85.1328 1612.57 85.798 1612.46 86.4632 1612.27 87.1185 1612 87.7638 1611.73 88.4091 1611.38 89.0594 1610.94 89.7147 1610.51 90.37 1609.96 91.065 1609.31 91.7997 1608.81 92.4351 1608.16 93.1698 1607.37 94.0038 1606.58 94.8378 1605.71 95.7313 1604.76 96.6844 1603.82 97.6376 1602.83 98.6304 1601.8 99.663 1600.77 100.696 1599.76 101.718 1598.79 102.731 1597.82 103.744 1596.92 104.726 1596.11 105.68 1595.3 106.633 1594.63 107.506 1594.12 108.301L1605.14 108.301C1606.07 108.301 1606.81 108.266 1607.37 108.196 1607.93 108.127 1608.39 107.973 1608.75 107.735 1609.12 107.496 1609.43 107.134 1609.69 106.648 1609.95 106.161 1610.25 105.491 1610.59 104.637L1613.36 104.637C1613.26 106.047 1613.16 107.467 1613.07 108.896 1612.98 110.326 1612.89 111.746 1612.79 113.156L1587.56 113.156 1587.56 111.607C1588.04 110.535 1588.59 109.477 1589.23 108.435 1589.87 107.392 1590.58 106.335 1591.37 105.263 1592.17 104.19 1593.07 103.083 1594.09 101.942 1595.1 100.8 1596.22 99.6133 1597.45 98.3822 1599.32 96.5157 1600.84 94.9222 1602.01 93.6017 1603.18 92.2812 1604.1 91.1047 1604.78 90.0721 1605.45 89.0396 1605.92 88.0865 1606.16 87.2128 1606.41 86.3391 1606.54 85.4058 1606.54 84.413 1606.54 83.4003 1606.39 82.467 1606.1 81.6132 1605.82 80.7593 1605.4 80.0345 1604.87 79.4388 1604.33 78.8431 1603.65 78.3765 1602.83 78.0389 1602 77.7014 1601.06 77.5326 1599.98 77.5326 1598.14 77.5326 1596.59 78.034 1595.34 79.0367 1594.09 80.0395 1593.11 81.494 1592.42 83.4003L1588.52 83.4003 1588.52 77.5922C1591.06 76.5398 1593.4 75.7753 1595.53 75.2987 1597.66 74.8221 1599.59 74.5839 1601.29 74.5839Z" fill-rule="evenodd"/><text fill="#000000" fill-opacity="0" font-family="Arial,Arial_MSFontService,sans-serif" font-size="38.5718" x="1587.56" y="108.334">2</text><path d="M1599.08 134.5 1599.08 226.227 1589.92 226.227 1589.92 134.5ZM1617.42 221.644 1594.5 267.477 1571.58 221.644Z"/><path d="M1574.72 1089.74C1577.18 1089.74 1579.46 1089.89 1581.55 1090.18 1583.64 1090.48 1585.98 1091.02 1588.54 1091.81L1586.11 1102.79 1582.22 1102.79C1582 1099.47 1581.28 1097.07 1580.05 1095.59 1578.82 1094.12 1576.84 1093.39 1574.11 1093.39 1570.39 1093.39 1566.92 1095.25 1563.72 1098.98 1560.52 1102.71 1557.98 1107.63 1556.12 1113.75 1554.26 1119.87 1553.32 1125.55 1553.32 1130.79 1553.32 1134.9 1554.05 1137.93 1555.51 1139.87 1556.97 1141.82 1559.21 1142.79 1562.24 1142.79 1564.27 1142.79 1566.04 1142.48 1567.55 1141.88 1569.06 1141.27 1570.48 1140.24 1571.8 1138.8 1573.13 1137.35 1574.44 1135.33 1575.74 1132.74L1579.63 1132.74 1577.15 1144.25C1572.1 1145.65 1566.81 1146.36 1561.27 1146.36 1556.19 1146.36 1552.32 1144.9 1549.68 1141.98 1547.03 1139.06 1545.7 1134.79 1545.7 1129.17 1545.7 1125.2 1546.41 1120.62 1547.83 1115.43 1549.25 1110.25 1551.26 1105.69 1553.85 1101.78 1556.44 1097.86 1559.51 1094.87 1563.05 1092.82 1566.59 1090.77 1570.48 1089.74 1574.72 1089.74Z" fill-rule="evenodd"/><text fill="#000000" fill-opacity="0" font-family="Arial,Arial_MSFontService,sans-serif" font-size="56.6167" x="1545.7" y="1139.28">π¶</text><path d="M1602.45 1123.98C1604.52 1123.98 1606.28 1124.21 1607.74 1124.68 1609.2 1125.15 1610.38 1125.78 1611.3 1126.57 1612.21 1127.36 1612.87 1128.32 1613.28 1129.43 1613.68 1130.54 1613.89 1131.74 1613.89 1133.03 1613.89 1133.81 1613.83 1134.53 1613.72 1135.19 1613.61 1135.86 1613.43 1136.51 1613.16 1137.16 1612.89 1137.8 1612.54 1138.45 1612.1 1139.11 1611.66 1139.76 1611.12 1140.46 1610.46 1141.19 1609.97 1141.83 1609.32 1142.56 1608.53 1143.4 1607.73 1144.23 1606.86 1145.13 1605.92 1146.08 1604.98 1147.03 1603.99 1148.03 1602.96 1149.06 1601.92 1150.09 1600.92 1151.11 1599.95 1152.13 1598.98 1153.14 1598.08 1154.12 1597.27 1155.07 1596.45 1156.03 1595.79 1156.9 1595.27 1157.7L1606.29 1157.7C1607.23 1157.7 1607.97 1157.66 1608.53 1157.59 1609.08 1157.52 1609.54 1157.37 1609.91 1157.13 1610.28 1156.89 1610.59 1156.53 1610.85 1156.04 1611.11 1155.56 1611.41 1154.89 1611.74 1154.03L1614.51 1154.03C1614.41 1155.44 1614.32 1156.86 1614.23 1158.29 1614.14 1159.72 1614.05 1161.14 1613.95 1162.55L1588.72 1162.55 1588.72 1161C1589.2 1159.93 1589.75 1158.87 1590.39 1157.83 1591.02 1156.79 1591.74 1155.73 1592.53 1154.66 1593.33 1153.59 1594.23 1152.48 1595.24 1151.34 1596.26 1150.19 1597.38 1149.01 1598.61 1147.78 1600.47 1145.91 1601.99 1144.32 1603.17 1143 1604.34 1141.68 1605.26 1140.5 1605.94 1139.47 1606.61 1138.43 1607.07 1137.48 1607.32 1136.61 1607.57 1135.73 1607.69 1134.8 1607.69 1133.81 1607.69 1132.8 1607.55 1131.86 1607.26 1131.01 1606.97 1130.15 1606.56 1129.43 1606.02 1128.83 1605.49 1128.24 1604.81 1127.77 1603.98 1127.43 1603.16 1127.1 1602.21 1126.93 1601.14 1126.93 1599.29 1126.93 1597.74 1127.43 1596.49 1128.43 1595.24 1129.43 1594.27 1130.89 1593.57 1132.8L1589.67 1132.8 1589.67 1126.99C1592.21 1125.93 1594.55 1125.17 1596.69 1124.69 1598.82 1124.22 1600.74 1123.98 1602.45 1123.98Z" fill-rule="evenodd"/><text fill="#000000" fill-opacity="0" font-family="Arial,Arial_MSFontService,sans-serif" font-size="38.5718" x="1588.72" y="1157.73">2</text><path d="M4.58325-0.0272534 5.38997 135.64-3.77653 135.695-4.58325 0.0272534ZM23.6957 130.948 1.052 176.917-22.1368 131.22Z" transform="matrix(-1 0 0 1 1595.55 872.5)"/><path d="M1289.5 705.917 1337.62 705.917 1337.62 715.084 1289.5 715.083ZM1333.04 687.584 1378.87 710.5 1333.04 733.417Z"/><path d="M1219.41 683.944 1235.62 683.944 1235.18 685.93C1234.15 686.146 1233.41 686.389 1232.97 686.659 1232.52 686.929 1232.12 687.335 1231.77 687.875 1231.42 688.415 1231.06 689.26 1230.68 690.408 1230.3 691.556 1229.83 693.427 1229.26 696.021L1226.38 708.949 1227.72 708.949C1228.86 708.949 1229.89 708.76 1230.82 708.382 1231.75 708.004 1232.84 707.315 1234.08 706.315 1235.33 705.315 1237.31 703.478 1240.02 700.803 1242.74 698.128 1244.67 696.095 1245.82 694.704 1246.96 693.312 1247.8 692.11 1248.33 691.097 1248.86 690.084 1249.12 689.158 1249.12 688.321 1249.12 687.645 1248.85 687.098 1248.31 686.679 1247.77 686.261 1247 686.011 1246 685.93L1246.44 683.944 1263.83 683.944 1263.38 685.93C1262.3 686.092 1261.08 686.652 1259.72 687.612 1258.35 688.571 1256.27 690.442 1253.46 693.225L1237.73 708.544 1246.36 729.294C1247.26 731.428 1247.99 732.968 1248.57 733.914 1249.15 734.86 1249.85 735.609 1250.66 736.163 1251.47 736.717 1252.47 737.089 1253.66 737.278L1253.21 739.264 1237.57 739.264 1238.01 737.278C1239.47 737.143 1240.2 736.494 1240.2 735.333 1240.2 734.603 1240.05 733.772 1239.76 732.84 1239.46 731.908 1239.11 730.942 1238.7 729.942L1233.44 717.055C1232.81 715.515 1232.27 714.434 1231.81 713.812 1231.35 713.191 1230.87 712.759 1230.36 712.516 1229.84 712.272 1229.04 712.151 1227.96 712.151L1225.69 712.151 1222.33 727.47C1221.98 729.091 1221.75 730.368 1221.64 731.3 1221.53 732.232 1221.48 733.063 1221.48 733.792 1221.48 735.008 1221.78 735.866 1222.39 736.366 1223 736.866 1224.02 737.17 1225.45 737.278L1225.01 739.264 1208.79 739.264 1209.24 737.278C1210.27 737.116 1211.04 736.852 1211.55 736.488 1212.06 736.123 1212.5 735.616 1212.85 734.968 1213.2 734.319 1213.52 733.529 1213.82 732.597 1214.12 731.665 1214.56 729.861 1215.16 727.187L1222.05 695.98C1222.64 693.279 1222.94 691.104 1222.94 689.456 1222.94 688.186 1222.62 687.301 1221.99 686.801 1221.35 686.301 1220.34 686.011 1218.97 685.93Z" fill-rule="evenodd"/><text fill="#000000" fill-opacity="0" font-family="Arial,Arial_MSFontService,sans-serif" font-size="55.3198" x="1208.79" y="732.349">πΎ</text><path d="M925.083 873.3 925.083 955.798 920.5 951.214 1183.98 951.214 1179.39 955.798 1179.39 336.917 1478.76 336.917 1478.76 346.083 1183.98 346.083 1188.56 341.5 1188.56 960.381 915.917 960.381 915.917 873.3ZM1474.17 318.583 1520.01 341.5 1474.17 364.417Z"/><rect x="2334" y="547" width="432" height="325" fill="#D74514"/><text fill="#FFFFFF" font-family="Microsoft YaHei,Microsoft YaHei_MSFontService,sans-serif" font-weight="700" font-size="83" transform="matrix(1 0 0 1 2468.7 690)">DES<tspan font-size="83" x="-1.44385" y="99">ε ε―†</tspan></text><path d="M2475.5 341.5C2475.5 300.631 2508.63 267.5 2549.5 267.5 2590.37 267.5 2623.5 300.631 2623.5 341.5 2623.5 382.369 2590.37 415.5 2549.5 415.5 2508.63 415.5 2475.5 382.369 2475.5 341.5Z" stroke="#D74514" stroke-width="9.16667" stroke-miterlimit="8" fill="none" fill-rule="evenodd"/><path d="M0 0 148.129 0.000360892" stroke="#D74514" stroke-width="9.16667" stroke-miterlimit="8" fill="none" fill-rule="evenodd" transform="matrix(-1 0 0 1 2623.63 341.5)"/><path d="M0 0 0.000360892 148.129" stroke="#D74514" stroke-width="9.16667" stroke-miterlimit="8" fill="none" fill-rule="evenodd" transform="matrix(1 0 0 -1 2549.5 415.629)"/><path d="M2554.08 415.464 2554.81 506.534 2545.64 506.607 2544.92 415.537ZM2573.1 501.805 2550.55 547.819 2527.27 502.169Z"/><path d="M2520.19 44.5585C2518.52 44.5585 2516.76 44.599 2514.93 44.6801L2509.41 69.2396 2513.63 69.2396C2516.9 69.2396 2519.54 68.9019 2521.55 68.2264 2523.56 67.551 2525.21 66.504 2526.5 65.0856 2527.78 63.6671 2528.77 61.9852 2529.48 60.0399 2530.18 58.0946 2530.53 55.9602 2530.53 53.6366 2530.53 50.5025 2529.73 48.2059 2528.14 46.747 2526.54 45.288 2523.9 44.5585 2520.19 44.5585ZM2503.21 40.9921 2521.09 40.9921C2524.3 40.9921 2526.94 41.242 2529.01 41.7418 2531.08 42.2417 2532.78 43.0117 2534.12 44.0519 2535.45 45.0921 2536.45 46.4092 2537.11 48.0033 2537.78 49.5974 2538.11 51.4481 2538.11 53.5555 2538.11 57.6083 2537.15 61.1207 2535.23 64.0927 2533.31 67.0647 2530.71 69.2531 2527.43 70.6581 2524.15 72.063 2520.21 72.7655 2515.61 72.7655 2512.86 72.7655 2510.56 72.7115 2508.73 72.6034L2506.13 84.5184C2505.89 85.6262 2505.72 86.4773 2505.62 87.0717 2505.53 87.6661 2505.45 88.3077 2505.38 88.9967 2505.31 89.6857 2505.28 90.3003 2505.28 90.8407 2505.28 91.6783 2505.42 92.3335 2505.69 92.8063 2505.96 93.2791 2506.36 93.6236 2506.9 93.8397 2507.44 94.0559 2508.37 94.218 2509.7 94.326L2509.25 96.3119 2492.6 96.3119 2493.04 94.326C2494.07 94.1639 2494.84 93.9005 2495.35 93.5358 2495.86 93.171 2496.3 92.6644 2496.65 92.016 2497 91.3676 2497.32 90.5773 2497.62 89.6451 2497.92 88.713 2498.36 86.9095 2498.96 84.2347L2505.85 53.0287C2506.44 50.3269 2506.74 48.1924 2506.74 46.6254 2506.74 45.3015 2506.43 44.3829 2505.81 43.8695 2505.19 43.3562 2504.17 43.059 2502.77 42.9779Z" fill-rule="evenodd"/><text fill="#000000" fill-opacity="0" font-family="Arial,Arial_MSFontService,sans-serif" font-size="55.3198" x="2492.6" y="89.3969">π‘ƒ</text><path d="M2541.67 74.5243 2551.95 74.5243C2552.88 77.0064 2553.84 79.5034 2554.82 82.0153 2555.8 84.5271 2556.77 87.0341 2557.72 89.536 2558.68 92.038 2559.59 94.5052 2560.48 96.9376 2561.36 99.3701 2562.17 101.748 2562.91 104.071L2563.29 104.071C2563.51 102.8 2563.79 101.296 2564.13 99.5587 2564.46 97.8213 2564.86 96.0192 2565.32 94.1527 2565.66 92.7429 2566 91.2933 2566.35 89.8041 2566.69 88.3148 2567.02 86.8851 2567.31 85.515 2567.61 84.1449 2567.86 82.879 2568.04 81.7174 2568.23 80.5558 2568.33 79.5977 2568.33 78.8431 2568.33 77.9694 2568.1 77.3489 2567.66 76.9816 2567.21 76.6142 2566.38 76.4206 2565.17 76.4008L2565.59 74.5243 2576.64 74.5243 2576.25 76.3114C2575.57 76.51 2575.04 76.6837 2574.64 76.8326 2574.24 76.9816 2573.91 77.2695 2573.63 77.6964 2573.35 78.1233 2573.09 78.7439 2572.84 79.558 2572.59 80.3721 2572.3 81.5437 2571.96 83.0726L2565.23 113.156 2560.73 113.156C2559.68 110.455 2558.6 107.735 2557.5 104.995 2556.4 102.254 2555.32 99.514 2554.25 96.7738 2553.19 94.0336 2552.17 91.3132 2551.2 88.6127 2550.23 85.9122 2549.34 83.2513 2548.55 80.6302L2548.16 80.6302C2548.06 81.2458 2547.94 81.9607 2547.8 82.7748 2547.67 83.5889 2547.51 84.4676 2547.34 85.4108 2547.17 86.354 2547 87.322 2546.81 88.3148 2546.62 89.3077 2546.42 90.3005 2546.23 91.2933 2546.05 92.0479 2545.83 92.9266 2545.59 93.9293 2545.34 94.9321 2545.08 96.0044 2544.83 97.1461 2544.57 98.2879 2544.31 99.4445 2544.04 100.616 2543.77 101.788 2543.53 102.905 2543.31 103.967 2543.09 105.029 2542.92 105.997 2542.79 106.871 2542.66 107.745 2542.59 108.43 2542.59 108.926 2542.59 109.76 2542.83 110.351 2543.31 110.698 2543.78 111.046 2544.6 111.259 2545.75 111.339L2545.42 113.156 2534.31 113.156 2534.7 111.339C2535.3 111.239 2535.79 111.12 2536.19 110.981 2536.59 110.842 2536.93 110.559 2537.23 110.132 2537.53 109.706 2537.81 109.065 2538.08 108.211 2538.35 107.357 2538.65 106.156 2538.99 104.607L2543.87 82.8939C2544.05 82.0997 2544.19 81.36 2544.28 80.6749 2544.36 79.9899 2544.41 79.3793 2544.41 78.8431 2544.41 77.9694 2544.18 77.3489 2543.72 76.9816 2543.27 76.6142 2542.43 76.4206 2541.22 76.4008Z" fill-rule="evenodd"/><text fill="#000000" fill-opacity="0" font-family="Arial,Arial_MSFontService,sans-serif" font-size="38.6313" x="2534.31" y="108.327">π‘</text><path d="M2554.08 134.5 2554.08 226.227 2544.92 226.227 2544.92 134.5ZM2572.42 221.644 2549.5 267.477 2526.58 221.644Z"/><path d="M2523.62 1089.74C2526.08 1089.74 2528.35 1089.89 2530.45 1090.18 2532.54 1090.48 2534.87 1091.02 2537.44 1091.81L2535 1102.79 2531.11 1102.79C2530.9 1099.47 2530.18 1097.07 2528.95 1095.59 2527.72 1094.12 2525.74 1093.39 2523.01 1093.39 2519.28 1093.39 2515.81 1095.25 2512.61 1098.98 2509.41 1102.71 2506.88 1107.63 2505.01 1113.75 2503.15 1119.87 2502.22 1125.55 2502.22 1130.79 2502.22 1134.9 2502.95 1137.93 2504.41 1139.87 2505.87 1141.82 2508.11 1142.79 2511.13 1142.79 2513.16 1142.79 2514.93 1142.48 2516.44 1141.88 2517.96 1141.27 2519.37 1140.24 2520.7 1138.8 2522.02 1137.35 2523.33 1135.33 2524.63 1132.74L2528.52 1132.74 2526.05 1144.25C2521 1145.65 2515.7 1146.36 2510.16 1146.36 2505.08 1146.36 2501.22 1144.9 2498.57 1141.98 2495.92 1139.06 2494.6 1134.79 2494.6 1129.17 2494.6 1125.2 2495.31 1120.62 2496.73 1115.43 2498.15 1110.25 2500.15 1105.69 2502.74 1101.78 2505.34 1097.86 2508.41 1094.87 2511.94 1092.82 2515.48 1090.77 2519.37 1089.74 2523.62 1089.74Z" fill-rule="evenodd"/><text fill="#000000" fill-opacity="0" font-family="Arial,Arial_MSFontService,sans-serif" font-size="56.6167" x="2494.6" y="1139.28">π¶</text><path d="M2542.83 1123.92 2553.1 1123.92C2554.04 1126.4 2554.99 1128.9 2555.98 1131.41 2556.96 1133.92 2557.93 1136.43 2558.88 1138.93 2559.83 1141.43 2560.75 1143.9 2561.64 1146.33 2562.52 1148.77 2563.33 1151.14 2564.06 1153.47L2564.45 1153.47C2564.67 1152.2 2564.95 1150.69 2565.28 1148.95 2565.62 1147.22 2566.02 1145.41 2566.48 1143.55 2566.81 1142.14 2567.16 1140.69 2567.5 1139.2 2567.85 1137.71 2568.17 1136.28 2568.47 1134.91 2568.77 1133.54 2569.01 1132.27 2569.2 1131.11 2569.39 1129.95 2569.48 1128.99 2569.48 1128.24 2569.48 1127.36 2569.26 1126.74 2568.81 1126.38 2568.37 1126.01 2567.54 1125.82 2566.33 1125.8L2566.74 1123.92 2577.79 1123.92 2577.41 1125.71C2576.73 1125.9 2576.2 1126.08 2575.8 1126.23 2575.4 1126.38 2575.06 1126.66 2574.79 1127.09 2574.51 1127.52 2574.24 1128.14 2574 1128.95 2573.75 1129.77 2573.46 1130.94 2573.12 1132.47L2566.39 1162.55 2561.89 1162.55C2560.84 1159.85 2559.76 1157.13 2558.66 1154.39 2557.56 1151.65 2556.47 1148.91 2555.41 1146.17 2554.35 1143.43 2553.33 1140.71 2552.36 1138.01 2551.38 1135.31 2550.5 1132.65 2549.71 1130.03L2549.32 1130.03C2549.22 1130.64 2549.1 1131.36 2548.96 1132.17 2548.82 1132.98 2548.67 1133.86 2548.5 1134.81 2548.33 1135.75 2548.15 1136.72 2547.96 1137.71 2547.78 1138.7 2547.58 1139.7 2547.38 1140.69 2547.2 1141.44 2546.99 1142.32 2546.74 1143.32 2546.49 1144.33 2546.24 1145.4 2545.98 1146.54 2545.73 1147.68 2545.46 1148.84 2545.19 1150.01 2544.93 1151.18 2544.68 1152.3 2544.46 1153.36 2544.25 1154.42 2544.07 1155.39 2543.94 1156.27 2543.81 1157.14 2543.75 1157.82 2543.75 1158.32 2543.75 1159.16 2543.99 1159.75 2544.46 1160.09 2544.94 1160.44 2545.76 1160.65 2546.91 1160.73L2546.58 1162.55 2535.47 1162.55 2535.86 1160.73C2536.45 1160.63 2536.95 1160.52 2537.35 1160.38 2537.74 1160.24 2538.09 1159.95 2538.39 1159.53 2538.69 1159.1 2538.97 1158.46 2539.24 1157.61 2539.51 1156.75 2539.81 1155.55 2540.15 1154L2545.03 1132.29C2545.21 1131.49 2545.34 1130.75 2545.43 1130.07 2545.52 1129.38 2545.57 1128.77 2545.57 1128.24 2545.57 1127.36 2545.34 1126.74 2544.88 1126.38 2544.42 1126.01 2543.59 1125.82 2542.38 1125.8Z" fill-rule="evenodd"/><text fill="#000000" fill-opacity="0" font-family="Arial,Arial_MSFontService,sans-serif" font-size="38.6313" x="2535.47" y="1157.72">π‘</text><path d="M4.58325-0.0272534 5.38997 135.64-3.77653 135.695-4.58325 0.0272534ZM23.6957 130.948 1.052 176.917-22.1368 131.22Z" transform="matrix(-1 0 0 1 2550.55 872.5)"/><path d="M2244.5 705.917 2292.62 705.917 2292.62 715.084 2244.5 715.083ZM2288.04 687.584 2333.87 710.5 2288.04 733.417Z"/><path d="M2174.16 683.944 2190.37 683.944 2189.93 685.93C2188.9 686.146 2188.16 686.389 2187.72 686.659 2187.27 686.929 2186.87 687.335 2186.52 687.875 2186.17 688.415 2185.81 689.26 2185.43 690.408 2185.05 691.556 2184.58 693.427 2184.01 696.021L2181.13 708.949 2182.47 708.949C2183.6 708.949 2184.64 708.76 2185.57 708.382 2186.5 708.004 2187.59 707.315 2188.83 706.315 2190.08 705.315 2192.05 703.478 2194.77 700.803 2197.49 698.128 2199.42 696.095 2200.57 694.704 2201.71 693.312 2202.55 692.11 2203.08 691.097 2203.61 690.084 2203.87 689.158 2203.87 688.321 2203.87 687.645 2203.6 687.098 2203.06 686.679 2202.52 686.261 2201.75 686.011 2200.75 685.93L2201.19 683.944 2218.58 683.944 2218.13 685.93C2217.05 686.092 2215.83 686.652 2214.47 687.612 2213.1 688.571 2211.01 690.442 2208.21 693.225L2192.48 708.544 2201.11 729.294C2202 731.428 2202.74 732.968 2203.32 733.914 2203.9 734.86 2204.6 735.609 2205.41 736.163 2206.22 736.717 2207.22 737.089 2208.41 737.278L2207.96 739.264 2192.32 739.264 2192.76 737.278C2194.22 737.143 2194.95 736.494 2194.95 735.333 2194.95 734.603 2194.8 733.772 2194.51 732.84 2194.21 731.908 2193.86 730.942 2193.45 729.942L2188.18 717.055C2187.56 715.515 2187.02 714.434 2186.56 713.812 2186.1 713.191 2185.62 712.759 2185.1 712.516 2184.59 712.272 2183.79 712.151 2182.71 712.151L2180.44 712.151 2177.08 727.47C2176.73 729.091 2176.5 730.368 2176.39 731.3 2176.28 732.232 2176.23 733.063 2176.23 733.792 2176.23 735.008 2176.53 735.866 2177.14 736.366 2177.75 736.866 2178.77 737.17 2180.2 737.278L2179.75 739.264 2163.54 739.264 2163.99 737.278C2165.02 737.116 2165.79 736.852 2166.3 736.488 2166.81 736.123 2167.25 735.616 2167.6 734.968 2167.95 734.319 2168.27 733.529 2168.57 732.597 2168.87 731.665 2169.31 729.861 2169.91 727.187L2176.8 695.98C2177.39 693.279 2177.69 691.104 2177.69 689.456 2177.69 688.186 2177.37 687.301 2176.74 686.801 2176.1 686.301 2175.09 686.011 2173.72 685.93Z" fill-rule="evenodd"/><text fill="#000000" fill-opacity="0" font-family="Arial,Arial_MSFontService,sans-serif" font-size="55.3198" x="2163.54" y="732.349">πΎ</text><path d="M2004.03 710.327C2005.44 710.327 2006.61 710.82 2007.56 711.806 2008.5 712.793 2008.98 714.042 2008.98 715.555 2008.98 717.068 2008.5 718.318 2007.56 719.304 2006.61 720.29 2005.44 720.783 2004.03 720.783 2002.63 720.783 2001.45 720.29 2000.51 719.304 1999.56 718.318 1999.09 717.068 1999.09 715.555 1999.09 714.042 1999.56 712.793 2000.51 711.806 2001.45 710.82 2002.63 710.327 2004.03 710.327ZM1979.47 710.327C1980.88 710.327 1982.05 710.82 1983 711.806 1983.94 712.793 1984.42 714.042 1984.42 715.555 1984.42 717.068 1983.94 718.318 1983 719.304 1982.05 720.29 1980.88 720.783 1979.47 720.783 1978.07 720.783 1976.89 720.29 1975.95 719.304 1975 718.318 1974.53 717.068 1974.53 715.555 1974.53 714.042 1975 712.793 1975.95 711.806 1976.89 710.82 1978.07 710.327 1979.47 710.327ZM1954.91 710.327C1956.32 710.327 1957.49 710.82 1958.44 711.806 1959.38 712.793 1959.86 714.042 1959.86 715.555 1959.86 717.068 1959.38 718.318 1958.44 719.304 1957.49 720.29 1956.32 720.783 1954.91 720.783 1953.51 720.783 1952.33 720.29 1951.39 719.304 1950.44 718.318 1949.97 717.068 1949.97 715.555 1949.97 714.042 1950.44 712.793 1951.39 711.806 1952.33 710.82 1953.51 710.327 1954.91 710.327Z" fill-rule="evenodd"/><text fill="#000000" fill-opacity="0" font-family="Arial,Arial_MSFontService,sans-serif" font-size="10.4561" x="1949.97" y="719.476">β‹―</text><path d="M624.117 41.9087 640.896 41.9087 640.45 43.8946C639.261 44.0297 638.336 44.3809 637.674 44.9483 637.012 45.5157 636.546 46.306 636.275 47.3191 636.005 48.3323 635.87 49.69 635.87 51.3921 635.87 51.7974 635.911 53.0132 635.992 55.0396L637.126 84.7056 637.126 87.9478 637.532 87.9478 655.08 56.2959C656.107 54.4317 656.877 52.8309 657.39 51.4935 657.904 50.156 658.16 48.974 658.16 47.9473 658.16 45.6778 656.809 44.3269 654.107 43.8946L654.553 41.9087 671.129 41.9087 670.683 43.8946C669.954 44.0026 669.258 44.2796 668.596 44.7254 667.934 45.1712 667.191 45.9142 666.367 46.9544 665.543 47.9946 664.266 50.0007 662.537 52.9727L636.6 97.877 631.209 97.877 628.494 52.689C628.386 50.9328 628.19 49.4266 627.906 48.1702 627.623 46.9139 627.177 45.9345 626.569 45.232 625.961 44.5295 624.995 44.0837 623.671 43.8946ZM600.75 41.9087 616.96 41.9087 616.515 43.8946C615.488 44.1107 614.752 44.3539 614.306 44.6241 613.86 44.8942 613.462 45.2995 613.11 45.8399 612.759 46.3803 612.394 47.2246 612.016 48.3728 611.638 49.5211 611.165 51.3921 610.598 53.9859L603.667 85.4351C603.316 87.0292 603.087 88.2923 602.979 89.2244 602.87 90.1565 602.816 91.0009 602.816 91.7574 602.816 92.9732 603.12 93.831 603.728 94.3308 604.336 94.8307 605.356 95.1346 606.788 95.2427L606.342 97.2286 590.131 97.2286 590.577 95.2427C591.604 95.0806 592.374 94.8172 592.887 94.4524 593.401 94.0877 593.833 93.5811 594.184 92.9327 594.535 92.2842 594.86 91.4939 595.157 90.5618 595.454 89.6297 595.9 87.8262 596.494 85.1514L603.384 53.9454C603.978 51.2435 604.275 49.0686 604.275 47.4205 604.275 46.1506 603.958 45.2658 603.323 44.7659 602.688 44.2661 601.682 43.9756 600.304 43.8946Z" fill-rule="evenodd"/><text fill="#000000" fill-opacity="0" font-family="Arial,Arial_MSFontService,sans-serif" font-size="55.9683" x="590.131" y="90.881">πΌπ‘‰</text><path d="M0-4.58333 210.709-4.58333 210.709 161.031 201.542 161.031 201.542 0 206.125 4.58333 0 4.58333ZM229.042 156.447 206.125 202.281 183.209 156.447Z" transform="matrix(1.83697e-16 1 1 -1.83697e-16 643.5 135.5)"/><path d="M2139.4 314.204C2141.86 314.204 2144.14 314.352 2146.23 314.649 2148.33 314.947 2150.66 315.487 2153.22 316.27L2150.79 327.253 2146.9 327.253C2146.69 323.93 2145.96 321.532 2144.73 320.06 2143.5 318.587 2141.53 317.851 2138.8 317.851 2135.07 317.851 2131.6 319.715 2128.4 323.444 2125.2 327.172 2122.67 332.096 2120.8 338.216 2118.94 344.336 2118.01 350.016 2118.01 355.258 2118.01 359.365 2118.74 362.391 2120.19 364.336 2121.65 366.281 2123.9 367.254 2126.92 367.254 2128.95 367.254 2130.72 366.95 2132.23 366.342 2133.74 365.734 2135.16 364.707 2136.49 363.262 2137.81 361.816 2139.12 359.797 2140.42 357.203L2144.31 357.203 2141.84 368.713C2136.78 370.118 2131.49 370.82 2125.95 370.82 2120.87 370.82 2117.01 369.361 2114.36 366.443 2111.71 363.525 2110.39 359.256 2110.39 353.637 2110.39 349.665 2111.1 345.085 2112.51 339.898 2113.93 334.71 2115.94 330.158 2118.53 326.24 2121.13 322.323 2124.19 319.337 2127.73 317.284 2131.27 315.23 2135.16 314.204 2139.4 314.204Z" fill-rule="evenodd"/><text fill="#000000" fill-opacity="0" font-family="Arial,Arial_MSFontService,sans-serif" font-size="56.6167" x="2110.39" y="363.743">π¶</text><path d="M2158.61 348.384 2168.89 348.384C2169.82 350.866 2170.78 353.363 2171.76 355.875 2172.75 358.387 2173.72 360.894 2174.67 363.396 2175.62 365.898 2176.54 368.365 2177.42 370.798 2178.31 373.23 2179.12 375.608 2179.85 377.931L2180.24 377.931C2180.46 376.66 2180.74 375.156 2181.07 373.419 2181.41 371.681 2181.81 369.879 2182.26 368.013 2182.6 366.603 2182.94 365.153 2183.29 363.664 2183.64 362.175 2183.96 360.745 2184.26 359.375 2184.56 358.005 2184.8 356.739 2184.99 355.577 2185.18 354.416 2185.27 353.458 2185.27 352.703 2185.27 351.829 2185.05 351.209 2184.6 350.841 2184.16 350.474 2183.33 350.281 2182.12 350.261L2182.53 348.384 2193.58 348.384 2193.2 350.171C2192.52 350.37 2191.98 350.544 2191.59 350.693 2191.19 350.841 2190.85 351.129 2190.57 351.556 2190.3 351.983 2190.03 352.604 2189.78 353.418 2189.54 354.232 2189.24 355.404 2188.91 356.933L2182.17 387.016 2177.68 387.016C2176.62 384.315 2175.55 381.595 2174.45 378.854 2173.34 376.114 2172.26 373.374 2171.2 370.634 2170.14 367.893 2169.12 365.173 2168.15 362.473 2167.17 359.772 2166.29 357.111 2165.5 354.49L2165.11 354.49C2165.01 355.106 2164.89 355.821 2164.75 356.635 2164.61 357.449 2164.46 358.327 2164.29 359.271 2164.12 360.214 2163.94 361.182 2163.75 362.175 2163.56 363.168 2163.37 364.16 2163.17 365.153 2162.99 365.908 2162.78 366.786 2162.53 367.789 2162.28 368.792 2162.03 369.864 2161.77 371.006 2161.51 372.148 2161.25 373.304 2160.98 374.476 2160.71 375.648 2160.47 376.764 2160.25 377.827 2160.03 378.889 2159.86 379.857 2159.73 380.731 2159.6 381.605 2159.54 382.29 2159.54 382.786 2159.54 383.62 2159.78 384.211 2160.25 384.558 2160.73 384.906 2161.54 385.119 2162.7 385.199L2162.37 387.016 2151.26 387.016 2151.65 385.199C2152.24 385.099 2152.74 384.98 2153.13 384.841 2153.53 384.702 2153.88 384.419 2154.18 383.992 2154.47 383.565 2154.76 382.925 2155.03 382.071 2155.29 381.217 2155.6 380.016 2155.93 378.467L2160.82 356.754C2161 355.96 2161.13 355.22 2161.22 354.535 2161.31 353.85 2161.35 353.239 2161.35 352.703 2161.35 351.829 2161.13 351.209 2160.67 350.841 2160.21 350.474 2159.38 350.281 2158.17 350.261Z" fill-rule="evenodd"/><text fill="#000000" fill-opacity="0" font-family="Arial,Arial_MSFontService,sans-serif" font-size="38.6313" x="2151.26" y="382.187">π‘</text><path d="M2201.04 367.298 2235.36 367.298 2235.36 371.855 2201.04 371.855Z" fill-rule="evenodd"/><text fill="#000000" fill-opacity="0" font-family="Arial,Arial_MSFontService,sans-serif" font-size="4.55713" x="2201.04" y="371.285">β’</text><path d="M2259.66 348.652 2261.47 348.652C2261.43 349.744 2261.4 350.722 2261.38 351.586 2261.36 352.45 2261.35 353.289 2261.34 354.103 2261.33 354.917 2261.32 355.721 2261.32 356.516L2261.32 379.152C2261.32 379.768 2261.34 380.299 2261.38 380.746 2261.42 381.193 2261.49 381.57 2261.58 381.878 2261.67 382.185 2261.79 382.449 2261.94 382.667 2262.08 382.885 2262.26 383.074 2262.46 383.233 2262.69 383.471 2263.01 383.655 2263.41 383.784 2263.81 383.913 2264.31 384.022 2264.93 384.112 2265.54 384.201 2266.28 384.27 2267.15 384.32 2268.01 384.37 2269.05 384.404 2270.26 384.424L2270.26 387.016 2246.64 387.016 2246.64 384.424C2247.81 384.385 2248.8 384.34 2249.62 384.29 2250.43 384.241 2251.13 384.171 2251.7 384.082 2252.28 383.992 2252.74 383.893 2253.09 383.784 2253.44 383.675 2253.74 383.541 2254 383.382 2254.28 383.203 2254.51 383.009 2254.71 382.801 2254.91 382.592 2255.07 382.329 2255.19 382.012 2255.31 381.694 2255.4 381.307 2255.47 380.85 2255.54 380.393 2255.58 379.827 2255.58 379.152L2255.58 357.796C2255.58 357.022 2255.43 356.476 2255.13 356.158 2254.83 355.84 2254.4 355.682 2253.85 355.682 2253.23 355.682 2252.32 355.999 2251.11 356.635 2249.9 357.27 2248.33 358.213 2246.4 359.464 2246.14 359.008 2245.91 358.551 2245.69 358.094 2245.47 357.637 2245.24 357.171 2245 356.694 2247.46 355.344 2249.9 353.999 2252.31 352.658 2254.73 351.318 2257.17 349.983 2259.66 348.652Z" fill-rule="evenodd"/><text fill="#000000" fill-opacity="0" font-family="Arial,Arial_MSFontService,sans-serif" font-size="38.3633" x="2245" y="382.22">1</text><path d="M2314.5 336.917 2433.42 336.917 2433.42 346.083 2314.5 346.083ZM2428.84 318.583 2474.67 341.5 2428.84 364.417Z"/><rect x="704" y="1460" width="433" height="325" fill="#D74514"/><text fill="#FFFFFF" font-family="Microsoft YaHei,Microsoft YaHei_MSFontService,sans-serif" font-weight="700" font-size="83" transform="matrix(1 0 0 1 839.322 1603)">DES<tspan font-size="83" x="-1.44373" y="99">θ§£ε―†</tspan></text><path d="M845.5 1995.5C845.5 1954.63 878.631 1921.5 919.5 1921.5 960.369 1921.5 993.5 1954.63 993.5 1995.5 993.5 2036.37 960.369 2069.5 919.5 2069.5 878.631 2069.5 845.5 2036.37 845.5 1995.5Z" stroke="#D74514" stroke-width="9.16667" stroke-miterlimit="8" fill="none" fill-rule="evenodd"/><path d="M0 0 148.129 0.000360892" stroke="#D74514" stroke-width="9.16667" stroke-miterlimit="8" fill="none" fill-rule="evenodd" transform="matrix(-1 0 0 1 993.63 1995.5)"/><path d="M0 0 0.000360892 148.129" stroke="#D74514" stroke-width="9.16667" stroke-miterlimit="8" fill="none" fill-rule="evenodd" transform="matrix(1 0 0 -1 919.5 2069.63)"/><path d="M4.58299-0.0558342 5.72616 93.7775-3.43983 93.8891-4.58299 0.0558342ZM24.0023 88.9711 1.64567 135.08-21.8276 89.5294Z" transform="matrix(-1 0 0 1 921.146 1785.5)"/><path d="M897.033 2260.59C895.358 2260.59 893.602 2260.63 891.765 2260.71L886.253 2285.27 890.468 2285.27C893.737 2285.27 896.378 2284.93 898.391 2284.25 900.404 2283.58 902.052 2282.53 903.335 2281.11 904.619 2279.7 905.612 2278.01 906.314 2276.07 907.016 2274.12 907.368 2271.99 907.368 2269.67 907.368 2266.53 906.571 2264.23 904.977 2262.78 903.383 2261.32 900.735 2260.59 897.033 2260.59ZM880.052 2257.02 897.925 2257.02C901.14 2257.02 903.781 2257.27 905.848 2257.77 907.915 2258.27 909.617 2259.04 910.954 2260.08 912.292 2261.12 913.291 2262.44 913.953 2264.03 914.615 2265.63 914.946 2267.48 914.946 2269.58 914.946 2273.64 913.987 2277.15 912.069 2280.12 910.151 2283.09 907.55 2285.28 904.267 2286.69 900.985 2288.09 897.047 2288.79 892.454 2288.79 889.698 2288.79 887.401 2288.74 885.564 2288.63L882.97 2300.55C882.727 2301.65 882.558 2302.51 882.464 2303.1 882.369 2303.69 882.288 2304.34 882.22 2305.03 882.153 2305.71 882.119 2306.33 882.119 2306.87 882.119 2307.71 882.254 2308.36 882.524 2308.83 882.795 2309.31 883.2 2309.65 883.74 2309.87 884.281 2310.08 885.213 2310.25 886.537 2310.35L886.091 2312.34 869.434 2312.34 869.88 2310.35C870.907 2310.19 871.677 2309.93 872.19 2309.56 872.703 2309.2 873.136 2308.69 873.487 2308.04 873.838 2307.4 874.162 2306.61 874.459 2305.67 874.757 2304.74 875.202 2302.94 875.797 2300.26L882.687 2269.06C883.281 2266.36 883.578 2264.22 883.578 2262.65 883.578 2261.33 883.267 2260.41 882.646 2259.9 882.025 2259.38 881.011 2259.09 879.606 2259.01Z" fill-rule="evenodd"/><text fill="#000000" fill-opacity="0" font-family="Arial,Arial_MSFontService,sans-serif" font-size="55.3198" x="869.434" y="2305.43">π‘ƒ</text><path d="M927.448 2290.82 929.265 2290.82C929.225 2291.91 929.195 2292.89 929.175 2293.75 929.155 2294.62 929.141 2295.46 929.131 2296.27 929.121 2297.09 929.116 2297.89 929.116 2298.68L929.116 2321.32C929.116 2321.94 929.136 2322.47 929.175 2322.91 929.215 2323.36 929.28 2323.74 929.369 2324.05 929.458 2324.35 929.577 2324.62 929.726 2324.84 929.875 2325.05 930.049 2325.24 930.248 2325.4 930.486 2325.64 930.804 2325.82 931.201 2325.95 931.598 2326.08 932.104 2326.19 932.72 2326.28 933.335 2326.37 934.075 2326.44 934.939 2326.49 935.802 2326.54 936.84 2326.57 938.051 2326.59L938.051 2329.18 914.432 2329.18 914.432 2326.59C915.603 2326.55 916.596 2326.51 917.41 2326.46 918.224 2326.41 918.919 2326.34 919.495 2326.25 920.071 2326.16 920.533 2326.06 920.88 2325.95 921.228 2325.84 921.53 2325.71 921.789 2325.55 922.067 2325.37 922.305 2325.18 922.503 2324.97 922.702 2324.76 922.861 2324.5 922.98 2324.18 923.099 2323.86 923.193 2323.48 923.263 2323.02 923.332 2322.56 923.367 2322 923.367 2321.32L923.367 2299.96C923.367 2299.19 923.218 2298.64 922.92 2298.33 922.623 2298.01 922.196 2297.85 921.64 2297.85 921.024 2297.85 920.111 2298.17 918.899 2298.8 917.688 2299.44 916.119 2300.38 914.193 2301.63 913.935 2301.18 913.697 2300.72 913.479 2300.26 913.26 2299.81 913.032 2299.34 912.793 2298.86 915.256 2297.51 917.693 2296.17 920.106 2294.83 922.518 2293.49 924.966 2292.15 927.448 2290.82Z" fill-rule="evenodd"/><text fill="#000000" fill-opacity="0" font-family="Arial,Arial_MSFontService,sans-serif" font-size="38.3633" x="912.793" y="2324.39">1</text><path d="M900.456 1218.58C902.914 1218.58 905.191 1218.73 907.284 1219.03 909.378 1219.32 911.709 1219.86 914.275 1220.65L911.844 1231.63 907.953 1231.63C907.737 1228.31 907.014 1225.91 905.785 1224.44 904.556 1222.97 902.577 1222.23 899.848 1222.23 896.119 1222.23 892.654 1224.09 889.452 1227.82 886.251 1231.55 883.718 1236.47 881.854 1242.59 879.989 1248.71 879.057 1254.39 879.057 1259.64 879.057 1263.74 879.787 1266.77 881.246 1268.71 882.705 1270.66 884.947 1271.63 887.973 1271.63 890 1271.63 891.769 1271.33 893.282 1270.72 894.795 1270.11 896.214 1269.09 897.538 1267.64 898.862 1266.19 900.172 1264.17 901.469 1261.58L905.359 1261.58 902.887 1273.09C897.835 1274.5 892.539 1275.2 887.001 1275.2 881.921 1275.2 878.057 1273.74 875.41 1270.82 872.762 1267.9 871.438 1263.63 871.438 1258.01 871.438 1254.04 872.147 1249.46 873.566 1244.28 874.984 1239.09 876.99 1234.54 879.584 1230.62 882.178 1226.7 885.244 1223.71 888.784 1221.66 892.323 1219.61 896.214 1218.58 900.456 1218.58Z" fill-rule="evenodd"/><text fill="#000000" fill-opacity="0" font-family="Arial,Arial_MSFontService,sans-serif" font-size="56.6167" x="871.438" y="1268.12">π¶</text><path d="M928.605 1253.03 930.422 1253.03C930.382 1254.12 930.353 1255.1 930.333 1255.96 930.313 1256.83 930.298 1257.67 930.288 1258.48 930.278 1259.29 930.273 1260.1 930.273 1260.89L930.273 1283.53C930.273 1284.15 930.293 1284.68 930.333 1285.12 930.372 1285.57 930.437 1285.95 930.526 1286.26 930.616 1286.56 930.735 1286.83 930.884 1287.04 931.033 1287.26 931.206 1287.45 931.405 1287.61 931.643 1287.85 931.961 1288.03 932.358 1288.16 932.755 1288.29 933.262 1288.4 933.877 1288.49 934.493 1288.58 935.232 1288.65 936.096 1288.7 936.96 1288.75 937.997 1288.78 939.209 1288.8L939.209 1291.39 915.589 1291.39 915.589 1288.8C916.761 1288.76 917.753 1288.72 918.568 1288.67 919.382 1288.62 920.077 1288.55 920.653 1288.46 921.228 1288.37 921.69 1288.27 922.038 1288.16 922.385 1288.05 922.688 1287.92 922.946 1287.76 923.224 1287.58 923.462 1287.39 923.661 1287.18 923.859 1286.97 924.018 1286.71 924.137 1286.39 924.257 1286.07 924.351 1285.68 924.42 1285.23 924.49 1284.77 924.525 1284.21 924.525 1283.53L924.525 1262.17C924.525 1261.4 924.376 1260.85 924.078 1260.54 923.78 1260.22 923.353 1260.06 922.797 1260.06 922.182 1260.06 921.268 1260.38 920.057 1261.01 918.846 1261.65 917.277 1262.59 915.351 1263.84 915.093 1263.39 914.854 1262.93 914.636 1262.47 914.417 1262.02 914.189 1261.55 913.951 1261.07 916.413 1259.72 918.851 1258.38 921.263 1257.04 923.676 1255.7 926.123 1254.36 928.605 1253.03Z" fill-rule="evenodd"/><text fill="#000000" fill-opacity="0" font-family="Arial,Arial_MSFontService,sans-serif" font-size="38.3633" x="913.951" y="1286.6">1</text><path d="M615.5 1618.92 663.625 1618.92 663.625 1628.08 615.5 1628.08ZM659.042 1600.58 704.875 1623.5 659.042 1646.42Z"/><path d="M544.789 1596.96 561 1596.96 560.554 1598.95C559.527 1599.16 558.791 1599.41 558.345 1599.68 557.9 1599.95 557.501 1600.35 557.15 1600.89 556.799 1601.43 556.434 1602.28 556.056 1603.42 555.677 1604.57 555.205 1606.44 554.637 1609.04L551.76 1621.97 553.097 1621.97C554.232 1621.97 555.265 1621.78 556.197 1621.4 557.13 1621.02 558.217 1620.33 559.46 1619.33 560.703 1618.33 562.682 1616.49 565.397 1613.82 568.112 1611.14 570.044 1609.11 571.193 1607.72 572.341 1606.33 573.178 1605.13 573.705 1604.11 574.232 1603.1 574.496 1602.17 574.496 1601.34 574.496 1600.66 574.225 1600.11 573.685 1599.7 573.145 1599.28 572.375 1599.03 571.375 1598.95L571.821 1596.96 589.207 1596.96 588.761 1598.95C587.68 1599.11 586.458 1599.67 585.093 1600.63 583.729 1601.59 581.642 1603.46 578.832 1606.24L563.107 1621.56 571.74 1642.31C572.631 1644.44 573.368 1645.98 573.948 1646.93 574.529 1647.88 575.225 1648.63 576.036 1649.18 576.846 1649.73 577.846 1650.11 579.035 1650.29L578.589 1652.28 562.945 1652.28 563.391 1650.29C564.85 1650.16 565.58 1649.51 565.58 1648.35 565.58 1647.62 565.431 1646.79 565.134 1645.86 564.837 1644.92 564.485 1643.96 564.08 1642.96L558.811 1630.07C558.19 1628.53 557.65 1627.45 557.19 1626.83 556.731 1626.21 556.245 1625.78 555.731 1625.53 555.218 1625.29 554.421 1625.17 553.34 1625.17L551.071 1625.17 547.707 1640.49C547.356 1642.11 547.126 1643.38 547.018 1644.32 546.91 1645.25 546.856 1646.08 546.856 1646.81 546.856 1648.02 547.16 1648.88 547.768 1649.38 548.376 1649.88 549.396 1650.19 550.828 1650.29L550.382 1652.28 534.171 1652.28 534.617 1650.29C535.643 1650.13 536.413 1649.87 536.927 1649.5 537.44 1649.14 537.872 1648.63 538.224 1647.98 538.575 1647.34 538.899 1646.55 539.196 1645.61 539.493 1644.68 539.939 1642.88 540.534 1640.2L547.423 1609C548.018 1606.3 548.315 1604.12 548.315 1602.47 548.315 1601.2 547.997 1600.32 547.362 1599.82 546.728 1599.32 545.721 1599.03 544.343 1598.95Z" fill-rule="evenodd"/><text fill="#000000" fill-opacity="0" font-family="Arial,Arial_MSFontService,sans-serif" font-size="55.3198" x="534.171" y="1645.37">πΎ</text><rect x="1379" y="1460" width="432" height="325" fill="#D74514"/><text fill="#FFFFFF" font-family="Microsoft YaHei,Microsoft YaHei_MSFontService,sans-serif" font-weight="700" font-size="83" transform="matrix(1 0 0 1 1513.95 1603)">DES<tspan font-size="83" x="-1.44373" y="99">θ§£ε―†</tspan></text><path d="M1519.5 1995.5C1519.5 1954.63 1552.63 1921.5 1593.5 1921.5 1634.37 1921.5 1667.5 1954.63 1667.5 1995.5 1667.5 2036.37 1634.37 2069.5 1593.5 2069.5 1552.63 2069.5 1519.5 2036.37 1519.5 1995.5Z" stroke="#D74514" stroke-width="9.16667" stroke-miterlimit="8" fill="none" fill-rule="evenodd"/><path d="M0 0 148.129 0.000360892" stroke="#D74514" stroke-width="9.16667" stroke-miterlimit="8" fill="none" fill-rule="evenodd" transform="matrix(-1 0 0 1 1667.63 1995.5)"/><path d="M0 0 0.000360892 148.129" stroke="#D74514" stroke-width="9.16667" stroke-miterlimit="8" fill="none" fill-rule="evenodd" transform="matrix(1 0 0 -1 1593.5 2069.63)"/><path d="M1570.71 2260.59C1569.03 2260.59 1567.27 2260.63 1565.44 2260.71L1559.93 2285.27 1564.14 2285.27C1567.41 2285.27 1570.05 2284.93 1572.06 2284.25 1574.08 2283.58 1575.72 2282.53 1577.01 2281.11 1578.29 2279.7 1579.28 2278.01 1579.99 2276.07 1580.69 2274.12 1581.04 2271.99 1581.04 2269.67 1581.04 2266.53 1580.24 2264.23 1578.65 2262.78 1577.06 2261.32 1574.41 2260.59 1570.71 2260.59ZM1553.72 2257.02 1571.6 2257.02C1574.81 2257.02 1577.45 2257.27 1579.52 2257.77 1581.59 2258.27 1583.29 2259.04 1584.63 2260.08 1585.96 2261.12 1586.96 2262.44 1587.63 2264.03 1588.29 2265.63 1588.62 2267.48 1588.62 2269.58 1588.62 2273.64 1587.66 2277.15 1585.74 2280.12 1583.82 2283.09 1581.22 2285.28 1577.94 2286.69 1574.66 2288.09 1570.72 2288.79 1566.13 2288.79 1563.37 2288.79 1561.07 2288.74 1559.24 2288.63L1556.64 2300.55C1556.4 2301.65 1556.23 2302.51 1556.14 2303.1 1556.04 2303.69 1555.96 2304.34 1555.89 2305.03 1555.83 2305.71 1555.79 2306.33 1555.79 2306.87 1555.79 2307.71 1555.93 2308.36 1556.2 2308.83 1556.47 2309.31 1556.87 2309.65 1557.41 2309.87 1557.95 2310.08 1558.89 2310.25 1560.21 2310.35L1559.76 2312.34 1543.11 2312.34 1543.55 2310.35C1544.58 2310.19 1545.35 2309.93 1545.86 2309.56 1546.38 2309.2 1546.81 2308.69 1547.16 2308.04 1547.51 2307.4 1547.83 2306.61 1548.13 2305.67 1548.43 2304.74 1548.88 2302.94 1549.47 2300.26L1556.36 2269.06C1556.95 2266.36 1557.25 2264.22 1557.25 2262.65 1557.25 2261.33 1556.94 2260.41 1556.32 2259.9 1555.7 2259.38 1554.68 2259.09 1553.28 2259.01Z" fill-rule="evenodd"/><text fill="#000000" fill-opacity="0" font-family="Arial,Arial_MSFontService,sans-serif" font-size="55.3198" x="1543.11" y="2305.43">π‘ƒ</text><path d="M1600.7 2290.61C1602.76 2290.61 1604.53 2290.85 1605.99 2291.31 1607.45 2291.78 1608.63 2292.41 1609.55 2293.2 1610.46 2294 1611.12 2294.95 1611.53 2296.06 1611.93 2297.18 1612.14 2298.38 1612.14 2299.67 1612.14 2300.44 1612.08 2301.16 1611.97 2301.83 1611.86 2302.49 1611.68 2303.15 1611.41 2303.79 1611.14 2304.44 1610.79 2305.09 1610.35 2305.74 1609.91 2306.4 1609.37 2307.09 1608.71 2307.83 1608.22 2308.46 1607.57 2309.2 1606.78 2310.03 1605.98 2310.87 1605.11 2311.76 1604.17 2312.71 1603.23 2313.67 1602.24 2314.66 1601.21 2315.69 1600.17 2316.72 1599.17 2317.75 1598.2 2318.76 1597.22 2319.77 1596.33 2320.75 1595.52 2321.71 1594.7 2322.66 1594.04 2323.53 1593.52 2324.33L1604.54 2324.33C1605.47 2324.33 1606.22 2324.29 1606.78 2324.22 1607.33 2324.16 1607.79 2324 1608.16 2323.76 1608.53 2323.52 1608.84 2323.16 1609.1 2322.68 1609.36 2322.19 1609.65 2321.52 1609.99 2320.67L1612.76 2320.67C1612.66 2322.08 1612.57 2323.5 1612.48 2324.92 1612.39 2326.35 1612.3 2327.77 1612.2 2329.18L1586.97 2329.18 1586.97 2327.64C1587.44 2326.56 1588 2325.51 1588.64 2324.46 1589.27 2323.42 1589.99 2322.36 1590.78 2321.29 1591.58 2320.22 1592.48 2319.11 1593.49 2317.97 1594.5 2316.83 1595.63 2315.64 1596.86 2314.41 1598.72 2312.54 1600.24 2310.95 1601.41 2309.63 1602.59 2308.31 1603.51 2307.13 1604.18 2306.1 1604.86 2305.07 1605.32 2304.11 1605.57 2303.24 1605.82 2302.37 1605.94 2301.43 1605.94 2300.44 1605.94 2299.43 1605.8 2298.5 1605.51 2297.64 1605.22 2296.79 1604.81 2296.06 1604.27 2295.47 1603.74 2294.87 1603.06 2294.41 1602.23 2294.07 1601.41 2293.73 1600.46 2293.56 1599.39 2293.56 1597.54 2293.56 1595.99 2294.06 1594.74 2295.07 1593.49 2296.07 1592.52 2297.52 1591.82 2299.43L1587.92 2299.43 1587.92 2293.62C1590.46 2292.57 1592.8 2291.8 1594.94 2291.33 1597.07 2290.85 1598.99 2290.61 1600.7 2290.61Z" fill-rule="evenodd"/><text fill="#000000" fill-opacity="0" font-family="Arial,Arial_MSFontService,sans-serif" font-size="38.5718" x="1586.97" y="2324.36">2</text><path d="M1574.13 1218.58C1576.59 1218.58 1578.86 1218.73 1580.96 1219.03 1583.05 1219.32 1585.38 1219.86 1587.95 1220.65L1585.52 1231.63 1581.63 1231.63C1581.41 1228.31 1580.69 1225.91 1579.46 1224.44 1578.23 1222.97 1576.25 1222.23 1573.52 1222.23 1569.79 1222.23 1566.33 1224.09 1563.12 1227.82 1559.92 1231.55 1557.39 1236.47 1555.53 1242.59 1553.66 1248.71 1552.73 1254.39 1552.73 1259.64 1552.73 1263.74 1553.46 1266.77 1554.92 1268.71 1556.38 1270.66 1558.62 1271.63 1561.65 1271.63 1563.67 1271.63 1565.44 1271.33 1566.95 1270.72 1568.47 1270.11 1569.89 1269.09 1571.21 1267.64 1572.53 1266.19 1573.84 1264.17 1575.14 1261.58L1579.03 1261.58 1576.56 1273.09C1571.51 1274.5 1566.21 1275.2 1560.67 1275.2 1555.59 1275.2 1551.73 1273.74 1549.08 1270.82 1546.43 1267.9 1545.11 1263.63 1545.11 1258.01 1545.11 1254.04 1545.82 1249.46 1547.24 1244.28 1548.66 1239.09 1550.66 1234.54 1553.26 1230.62 1555.85 1226.7 1558.92 1223.71 1562.46 1221.66 1566 1219.61 1569.89 1218.58 1574.13 1218.58Z" fill-rule="evenodd"/><text fill="#000000" fill-opacity="0" font-family="Arial,Arial_MSFontService,sans-serif" font-size="56.6167" x="1545.11" y="1268.12">π¶</text><path d="M1601.86 1252.82C1603.92 1252.82 1605.68 1253.05 1607.14 1253.52 1608.6 1253.99 1609.79 1254.62 1610.7 1255.41 1611.62 1256.21 1612.28 1257.16 1612.68 1258.27 1613.09 1259.38 1613.29 1260.59 1613.29 1261.88 1613.29 1262.65 1613.24 1263.37 1613.13 1264.04 1613.02 1264.7 1612.83 1265.36 1612.56 1266 1612.3 1266.65 1611.94 1267.3 1611.51 1267.95 1611.07 1268.61 1610.52 1269.3 1609.87 1270.04 1609.37 1270.67 1608.73 1271.41 1607.93 1272.24 1607.14 1273.08 1606.27 1273.97 1605.33 1274.92 1604.38 1275.88 1603.4 1276.87 1602.36 1277.9 1601.33 1278.93 1600.33 1279.96 1599.35 1280.97 1598.38 1281.98 1597.49 1282.96 1596.67 1283.92 1595.86 1284.87 1595.19 1285.74 1594.68 1286.54L1605.7 1286.54C1606.63 1286.54 1607.38 1286.5 1607.93 1286.43 1608.49 1286.36 1608.95 1286.21 1609.32 1285.97 1609.69 1285.73 1610 1285.37 1610.26 1284.89 1610.51 1284.4 1610.81 1283.73 1611.15 1282.87L1613.92 1282.87C1613.82 1284.28 1613.73 1285.7 1613.64 1287.13 1613.55 1288.56 1613.45 1289.98 1613.35 1291.39L1588.13 1291.39 1588.13 1289.84C1588.6 1288.77 1589.16 1287.71 1589.79 1286.67 1590.43 1285.63 1591.14 1284.57 1591.94 1283.5 1592.73 1282.43 1593.64 1281.32 1594.65 1280.18 1595.66 1279.04 1596.78 1277.85 1598.01 1276.62 1599.88 1274.75 1601.4 1273.16 1602.57 1271.84 1603.74 1270.52 1604.67 1269.34 1605.34 1268.31 1606.02 1267.28 1606.48 1266.32 1606.73 1265.45 1606.97 1264.58 1607.1 1263.64 1607.1 1262.65 1607.1 1261.64 1606.95 1260.7 1606.67 1259.85 1606.38 1259 1605.97 1258.27 1605.43 1257.68 1604.89 1257.08 1604.21 1256.61 1603.39 1256.28 1602.57 1255.94 1601.62 1255.77 1600.55 1255.77 1598.7 1255.77 1597.15 1256.27 1595.9 1257.27 1594.65 1258.28 1593.68 1259.73 1592.98 1261.64L1589.08 1261.64 1589.08 1255.83C1591.62 1254.78 1593.96 1254.01 1596.09 1253.54 1598.23 1253.06 1600.15 1252.82 1601.86 1252.82Z" fill-rule="evenodd"/><text fill="#000000" fill-opacity="0" font-family="Arial,Arial_MSFontService,sans-serif" font-size="38.5718" x="1588.13" y="1286.57">2</text><path d="M1289.5 1618.92 1337.62 1618.92 1337.62 1628.08 1289.5 1628.08ZM1333.04 1600.58 1378.87 1623.5 1333.04 1646.42Z"/><path d="M1219.41 1596.96 1235.62 1596.96 1235.18 1598.95C1234.15 1599.16 1233.41 1599.41 1232.97 1599.68 1232.52 1599.95 1232.12 1600.35 1231.77 1600.89 1231.42 1601.43 1231.06 1602.28 1230.68 1603.42 1230.3 1604.57 1229.83 1606.44 1229.26 1609.04L1226.38 1621.97 1227.72 1621.97C1228.86 1621.97 1229.89 1621.78 1230.82 1621.4 1231.75 1621.02 1232.84 1620.33 1234.08 1619.33 1235.33 1618.33 1237.31 1616.49 1240.02 1613.82 1242.74 1611.14 1244.67 1609.11 1245.82 1607.72 1246.96 1606.33 1247.8 1605.13 1248.33 1604.11 1248.86 1603.1 1249.12 1602.17 1249.12 1601.34 1249.12 1600.66 1248.85 1600.11 1248.31 1599.7 1247.77 1599.28 1247 1599.03 1246 1598.95L1246.44 1596.96 1263.83 1596.96 1263.38 1598.95C1262.3 1599.11 1261.08 1599.67 1259.72 1600.63 1258.35 1601.59 1256.27 1603.46 1253.46 1606.24L1237.73 1621.56 1246.36 1642.31C1247.26 1644.44 1247.99 1645.98 1248.57 1646.93 1249.15 1647.88 1249.85 1648.63 1250.66 1649.18 1251.47 1649.73 1252.47 1650.11 1253.66 1650.29L1253.21 1652.28 1237.57 1652.28 1238.01 1650.29C1239.47 1650.16 1240.2 1649.51 1240.2 1648.35 1240.2 1647.62 1240.05 1646.79 1239.76 1645.86 1239.46 1644.92 1239.11 1643.96 1238.7 1642.96L1233.44 1630.07C1232.81 1628.53 1232.27 1627.45 1231.81 1626.83 1231.35 1626.21 1230.87 1625.78 1230.36 1625.53 1229.84 1625.29 1229.04 1625.17 1227.96 1625.17L1225.69 1625.17 1222.33 1640.49C1221.98 1642.11 1221.75 1643.38 1221.64 1644.32 1221.53 1645.25 1221.48 1646.08 1221.48 1646.81 1221.48 1648.02 1221.78 1648.88 1222.39 1649.38 1223 1649.88 1224.02 1650.19 1225.45 1650.29L1225.01 1652.28 1208.79 1652.28 1209.24 1650.29C1210.27 1650.13 1211.04 1649.87 1211.55 1649.5 1212.06 1649.14 1212.5 1648.63 1212.85 1647.98 1213.2 1647.34 1213.52 1646.55 1213.82 1645.61 1214.12 1644.68 1214.56 1642.88 1215.16 1640.2L1222.05 1609C1222.64 1606.3 1222.94 1604.12 1222.94 1602.47 1222.94 1601.2 1222.62 1600.32 1221.99 1599.82 1221.35 1599.32 1220.34 1599.03 1218.97 1598.95Z" fill-rule="evenodd"/><text fill="#000000" fill-opacity="0" font-family="Arial,Arial_MSFontService,sans-serif" font-size="55.3198" x="1208.79" y="1645.37">πΎ</text><path d="M0 4.58333-82.4986 4.58333-77.9153 0-77.9153 259.748-82.4986 255.165 539.145 255.165 539.145 557.663 529.978 557.663 529.978 259.748 534.562 264.332-87.082 264.332-87.082-4.58333 0-4.58333ZM557.478 553.08 534.562 598.913 511.645 553.08Z" transform="matrix(1.83697e-16 1 1 -1.83697e-16 920.5 1460.5)"/><rect x="2334" y="1460" width="432" height="325" fill="#D74514"/><text fill="#FFFFFF" font-family="Microsoft YaHei,Microsoft YaHei_MSFontService,sans-serif" font-weight="700" font-size="83" transform="matrix(1 0 0 1 2468.7 1603)">DES<tspan font-size="83" x="-1.44385" y="99">θ§£ε―†</tspan></text><path d="M2474.5 1995.5C2474.5 1954.63 2507.63 1921.5 2548.5 1921.5 2589.37 1921.5 2622.5 1954.63 2622.5 1995.5 2622.5 2036.37 2589.37 2069.5 2548.5 2069.5 2507.63 2069.5 2474.5 2036.37 2474.5 1995.5Z" stroke="#D74514" stroke-width="9.16667" stroke-miterlimit="8" fill="none" fill-rule="evenodd"/><path d="M0 0 148.129 0.000360892" stroke="#D74514" stroke-width="9.16667" stroke-miterlimit="8" fill="none" fill-rule="evenodd" transform="matrix(-1 0 0 1 2622.63 1995.5)"/><path d="M0 0 0.000360892 148.129" stroke="#D74514" stroke-width="9.16667" stroke-miterlimit="8" fill="none" fill-rule="evenodd" transform="matrix(1 0 0 -1 2548.5 2069.63)"/><path d="M2519.6 2260.59C2517.93 2260.59 2516.17 2260.63 2514.33 2260.71L2508.82 2285.27 2513.03 2285.27C2516.3 2285.27 2518.95 2284.93 2520.96 2284.25 2522.97 2283.58 2524.62 2282.53 2525.9 2281.11 2527.19 2279.7 2528.18 2278.01 2528.88 2276.07 2529.58 2274.12 2529.93 2271.99 2529.93 2269.67 2529.93 2266.53 2529.14 2264.23 2527.54 2262.78 2525.95 2261.32 2523.3 2260.59 2519.6 2260.59ZM2502.62 2257.02 2520.49 2257.02C2523.71 2257.02 2526.35 2257.27 2528.42 2257.77 2530.48 2258.27 2532.18 2259.04 2533.52 2260.08 2534.86 2261.12 2535.86 2262.44 2536.52 2264.03 2537.18 2265.63 2537.51 2267.48 2537.51 2269.58 2537.51 2273.64 2536.55 2277.15 2534.64 2280.12 2532.72 2283.09 2530.12 2285.28 2526.83 2286.69 2523.55 2288.09 2519.61 2288.79 2515.02 2288.79 2512.26 2288.79 2509.97 2288.74 2508.13 2288.63L2505.54 2300.55C2505.29 2301.65 2505.13 2302.51 2505.03 2303.1 2504.94 2303.69 2504.86 2304.34 2504.79 2305.03 2504.72 2305.71 2504.69 2306.33 2504.69 2306.87 2504.69 2307.71 2504.82 2308.36 2505.09 2308.83 2505.36 2309.31 2505.77 2309.65 2506.31 2309.87 2506.85 2310.08 2507.78 2310.25 2509.1 2310.35L2508.66 2312.34 2492 2312.34 2492.45 2310.35C2493.47 2310.19 2494.24 2309.93 2494.76 2309.56 2495.27 2309.2 2495.7 2308.69 2496.05 2308.04 2496.41 2307.4 2496.73 2306.61 2497.03 2305.67 2497.32 2304.74 2497.77 2302.94 2498.36 2300.26L2505.25 2269.06C2505.85 2266.36 2506.15 2264.22 2506.15 2262.65 2506.15 2261.33 2505.83 2260.41 2505.21 2259.9 2504.59 2259.38 2503.58 2259.09 2502.17 2259.01Z" fill-rule="evenodd"/><text fill="#000000" fill-opacity="0" font-family="Arial,Arial_MSFontService,sans-serif" font-size="55.3198" x="2492" y="2305.43">π‘ƒ</text><path d="M2541.08 2290.55 2551.35 2290.55C2552.28 2293.03 2553.24 2295.53 2554.23 2298.04 2555.21 2300.56 2556.18 2303.06 2557.13 2305.56 2558.08 2308.07 2559 2310.53 2559.88 2312.97 2560.77 2315.4 2561.58 2317.78 2562.31 2320.1L2562.7 2320.1C2562.92 2318.83 2563.2 2317.32 2563.53 2315.59 2563.87 2313.85 2564.27 2312.05 2564.72 2310.18 2565.06 2308.77 2565.4 2307.32 2565.75 2305.83 2566.1 2304.34 2566.42 2302.91 2566.72 2301.54 2567.02 2300.17 2567.26 2298.91 2567.45 2297.75 2567.64 2296.58 2567.73 2295.63 2567.73 2294.87 2567.73 2294 2567.51 2293.38 2567.06 2293.01 2566.62 2292.64 2565.79 2292.45 2564.58 2292.43L2564.99 2290.55 2576.04 2290.55 2575.66 2292.34C2574.98 2292.54 2574.44 2292.71 2574.05 2292.86 2573.65 2293.01 2573.31 2293.3 2573.03 2293.72 2572.76 2294.15 2572.49 2294.77 2572.25 2295.59 2572 2296.4 2571.7 2297.57 2571.37 2299.1L2564.64 2329.18 2560.14 2329.18C2559.09 2326.48 2558.01 2323.76 2556.91 2321.02 2555.8 2318.28 2554.72 2315.54 2553.66 2312.8 2552.6 2310.06 2551.58 2307.34 2550.61 2304.64 2549.63 2301.94 2548.75 2299.28 2547.96 2296.66L2547.57 2296.66C2547.47 2297.27 2547.35 2297.99 2547.21 2298.8 2547.07 2299.62 2546.92 2300.5 2546.75 2301.44 2546.58 2302.38 2546.4 2303.35 2546.21 2304.34 2546.02 2305.34 2545.83 2306.33 2545.63 2307.32 2545.45 2308.08 2545.24 2308.96 2544.99 2309.96 2544.74 2310.96 2544.49 2312.03 2544.23 2313.17 2543.97 2314.32 2543.71 2315.47 2543.44 2316.64 2543.18 2317.82 2542.93 2318.93 2542.71 2320 2542.49 2321.06 2542.32 2322.03 2542.19 2322.9 2542.06 2323.77 2542 2324.46 2542 2324.95 2542 2325.79 2542.24 2326.38 2542.71 2326.73 2543.19 2327.07 2544 2327.29 2545.16 2327.37L2544.83 2329.18 2533.72 2329.18 2534.11 2327.37C2534.7 2327.27 2535.2 2327.15 2535.59 2327.01 2535.99 2326.87 2536.34 2326.59 2536.64 2326.16 2536.94 2325.73 2537.22 2325.09 2537.49 2324.24 2537.75 2323.39 2538.06 2322.18 2538.39 2320.64L2543.28 2298.92C2543.46 2298.13 2543.59 2297.39 2543.68 2296.7 2543.77 2296.02 2543.82 2295.41 2543.82 2294.87 2543.82 2294 2543.59 2293.38 2543.13 2293.01 2542.67 2292.64 2541.84 2292.45 2540.63 2292.43Z" fill-rule="evenodd"/><text fill="#000000" fill-opacity="0" font-family="Arial,Arial_MSFontService,sans-serif" font-size="38.6313" x="2533.72" y="2324.36">π‘</text><path d="M2523.02 1218.58C2525.48 1218.58 2527.76 1218.73 2529.85 1219.03 2531.95 1219.32 2534.28 1219.86 2536.84 1220.65L2534.41 1231.63 2530.52 1231.63C2530.3 1228.31 2529.58 1225.91 2528.35 1224.44 2527.12 1222.97 2525.14 1222.23 2522.41 1222.23 2518.69 1222.23 2515.22 1224.09 2512.02 1227.82 2508.82 1231.55 2506.28 1236.47 2504.42 1242.59 2502.56 1248.71 2501.62 1254.39 2501.62 1259.64 2501.62 1263.74 2502.35 1266.77 2503.81 1268.71 2505.27 1270.66 2507.51 1271.63 2510.54 1271.63 2512.57 1271.63 2514.34 1271.33 2515.85 1270.72 2517.36 1270.11 2518.78 1269.09 2520.1 1267.64 2521.43 1266.19 2522.74 1264.17 2524.04 1261.58L2527.93 1261.58 2525.45 1273.09C2520.4 1274.5 2515.11 1275.2 2509.57 1275.2 2504.49 1275.2 2500.62 1273.74 2497.98 1270.82 2495.33 1267.9 2494 1263.63 2494 1258.01 2494 1254.04 2494.71 1249.46 2496.13 1244.28 2497.55 1239.09 2499.56 1234.54 2502.15 1230.62 2504.74 1226.7 2507.81 1223.71 2511.35 1221.66 2514.89 1219.61 2518.78 1218.58 2523.02 1218.58Z" fill-rule="evenodd"/><text fill="#000000" fill-opacity="0" font-family="Arial,Arial_MSFontService,sans-serif" font-size="56.6167" x="2494" y="1268.12">π¶</text><path d="M2542.23 1252.76 2552.51 1252.76C2553.44 1255.24 2554.4 1257.74 2555.38 1260.25 2556.37 1262.76 2557.33 1265.27 2558.29 1267.77 2559.24 1270.28 2560.16 1272.74 2561.04 1275.18 2561.93 1277.61 2562.73 1279.99 2563.47 1282.31L2563.86 1282.31C2564.07 1281.04 2564.35 1279.53 2564.69 1277.8 2565.03 1276.06 2565.42 1274.26 2565.88 1272.39 2566.22 1270.98 2566.56 1269.53 2566.91 1268.04 2567.26 1266.55 2567.58 1265.12 2567.88 1263.75 2568.18 1262.38 2568.42 1261.12 2568.61 1259.96 2568.8 1258.79 2568.89 1257.84 2568.89 1257.08 2568.89 1256.21 2568.67 1255.59 2568.22 1255.22 2567.77 1254.85 2566.94 1254.66 2565.73 1254.64L2566.15 1252.76 2577.2 1252.76 2576.81 1254.55C2576.14 1254.75 2575.6 1254.92 2575.2 1255.07 2574.81 1255.22 2574.47 1255.51 2574.19 1255.93 2573.91 1256.36 2573.65 1256.98 2573.4 1257.8 2573.15 1258.61 2572.86 1259.78 2572.52 1261.31L2565.79 1291.39 2561.29 1291.39C2560.24 1288.69 2559.17 1285.97 2558.06 1283.23 2556.96 1280.49 2555.88 1277.75 2554.82 1275.01 2553.75 1272.27 2552.74 1269.55 2551.76 1266.85 2550.79 1264.15 2549.91 1261.49 2549.11 1258.87L2548.73 1258.87C2548.63 1259.48 2548.51 1260.2 2548.37 1261.01 2548.23 1261.83 2548.07 1262.71 2547.91 1263.65 2547.74 1264.59 2547.56 1265.56 2547.37 1266.55 2547.18 1267.55 2546.99 1268.54 2546.79 1269.53 2546.61 1270.29 2546.4 1271.16 2546.15 1272.17 2545.9 1273.17 2545.65 1274.24 2545.39 1275.38 2545.13 1276.53 2544.87 1277.68 2544.6 1278.85 2544.33 1280.03 2544.09 1281.14 2543.87 1282.2 2543.65 1283.27 2543.48 1284.24 2543.35 1285.11 2543.22 1285.98 2543.16 1286.67 2543.16 1287.16 2543.16 1288 2543.39 1288.59 2543.87 1288.94 2544.35 1289.28 2545.16 1289.5 2546.31 1289.58L2545.99 1291.39 2534.88 1291.39 2535.26 1289.58C2535.86 1289.48 2536.35 1289.36 2536.75 1289.22 2537.15 1289.08 2537.5 1288.8 2537.79 1288.37 2538.09 1287.94 2538.38 1287.3 2538.64 1286.45 2538.91 1285.6 2539.21 1284.39 2539.55 1282.85L2544.44 1261.13C2544.61 1260.34 2544.75 1259.6 2544.84 1258.91 2544.93 1258.23 2544.97 1257.62 2544.97 1257.08 2544.97 1256.21 2544.74 1255.59 2544.29 1255.22 2543.83 1254.85 2543 1254.66 2541.79 1254.64Z" fill-rule="evenodd"/><text fill="#000000" fill-opacity="0" font-family="Arial,Arial_MSFontService,sans-serif" font-size="38.6313" x="2534.88" y="1286.56">π‘</text><path d="M2244.5 1618.92 2292.62 1618.92 2292.62 1628.08 2244.5 1628.08ZM2288.04 1600.58 2333.87 1623.5 2288.04 1646.42Z"/><path d="M2174.16 1596.96 2190.37 1596.96 2189.93 1598.95C2188.9 1599.16 2188.16 1599.41 2187.72 1599.68 2187.27 1599.95 2186.87 1600.35 2186.52 1600.89 2186.17 1601.43 2185.81 1602.28 2185.43 1603.42 2185.05 1604.57 2184.58 1606.44 2184.01 1609.04L2181.13 1621.97 2182.47 1621.97C2183.6 1621.97 2184.64 1621.78 2185.57 1621.4 2186.5 1621.02 2187.59 1620.33 2188.83 1619.33 2190.08 1618.33 2192.05 1616.49 2194.77 1613.82 2197.49 1611.14 2199.42 1609.11 2200.57 1607.72 2201.71 1606.33 2202.55 1605.13 2203.08 1604.11 2203.61 1603.1 2203.87 1602.17 2203.87 1601.34 2203.87 1600.66 2203.6 1600.11 2203.06 1599.7 2202.52 1599.28 2201.75 1599.03 2200.75 1598.95L2201.19 1596.96 2218.58 1596.96 2218.13 1598.95C2217.05 1599.11 2215.83 1599.67 2214.47 1600.63 2213.1 1601.59 2211.01 1603.46 2208.21 1606.24L2192.48 1621.56 2201.11 1642.31C2202 1644.44 2202.74 1645.98 2203.32 1646.93 2203.9 1647.88 2204.6 1648.63 2205.41 1649.18 2206.22 1649.73 2207.22 1650.11 2208.41 1650.29L2207.96 1652.28 2192.32 1652.28 2192.76 1650.29C2194.22 1650.16 2194.95 1649.51 2194.95 1648.35 2194.95 1647.62 2194.8 1646.79 2194.51 1645.86 2194.21 1644.92 2193.86 1643.96 2193.45 1642.96L2188.18 1630.07C2187.56 1628.53 2187.02 1627.45 2186.56 1626.83 2186.1 1626.21 2185.62 1625.78 2185.1 1625.53 2184.59 1625.29 2183.79 1625.17 2182.71 1625.17L2180.44 1625.17 2177.08 1640.49C2176.73 1642.11 2176.5 1643.38 2176.39 1644.32 2176.28 1645.25 2176.23 1646.08 2176.23 1646.81 2176.23 1648.02 2176.53 1648.88 2177.14 1649.38 2177.75 1649.88 2178.77 1650.19 2180.2 1650.29L2179.75 1652.28 2163.54 1652.28 2163.99 1650.29C2165.02 1650.13 2165.79 1649.87 2166.3 1649.5 2166.81 1649.14 2167.25 1648.63 2167.6 1647.98 2167.95 1647.34 2168.27 1646.55 2168.57 1645.61 2168.87 1644.68 2169.31 1642.88 2169.91 1640.2L2176.8 1609C2177.39 1606.3 2177.69 1604.12 2177.69 1602.47 2177.69 1601.2 2177.37 1600.32 2176.74 1599.82 2176.1 1599.32 2175.09 1599.03 2173.72 1598.95Z" fill-rule="evenodd"/><text fill="#000000" fill-opacity="0" font-family="Arial,Arial_MSFontService,sans-serif" font-size="55.3198" x="2163.54" y="1645.37">πΎ</text><path d="M2004.03 1623.34C2005.44 1623.34 2006.61 1623.84 2007.56 1624.82 2008.5 1625.81 2008.98 1627.06 2008.98 1628.57 2008.98 1630.08 2008.5 1631.33 2007.56 1632.32 2006.61 1633.31 2005.44 1633.8 2004.03 1633.8 2002.63 1633.8 2001.45 1633.31 2000.51 1632.32 1999.56 1631.33 1999.09 1630.08 1999.09 1628.57 1999.09 1627.06 1999.56 1625.81 2000.51 1624.82 2001.45 1623.84 2002.63 1623.34 2004.03 1623.34ZM1979.47 1623.34C1980.88 1623.34 1982.05 1623.84 1983 1624.82 1983.94 1625.81 1984.42 1627.06 1984.42 1628.57 1984.42 1630.08 1983.94 1631.33 1983 1632.32 1982.05 1633.31 1980.88 1633.8 1979.47 1633.8 1978.07 1633.8 1976.89 1633.31 1975.95 1632.32 1975 1631.33 1974.53 1630.08 1974.53 1628.57 1974.53 1627.06 1975 1625.81 1975.95 1624.82 1976.89 1623.84 1978.07 1623.34 1979.47 1623.34ZM1954.91 1623.34C1956.32 1623.34 1957.49 1623.84 1958.44 1624.82 1959.38 1625.81 1959.86 1627.06 1959.86 1628.57 1959.86 1630.08 1959.38 1631.33 1958.44 1632.32 1957.49 1633.31 1956.32 1633.8 1954.91 1633.8 1953.51 1633.8 1952.33 1633.31 1951.39 1632.32 1950.44 1631.33 1949.97 1630.08 1949.97 1628.57 1949.97 1627.06 1950.44 1625.81 1951.39 1624.82 1952.33 1623.84 1953.51 1623.34 1954.91 1623.34Z" fill-rule="evenodd"/><text fill="#000000" fill-opacity="0" font-family="Arial,Arial_MSFontService,sans-serif" font-size="10.4561" x="1949.97" y="1632.49">β‹―</text><path d="M621.388 1968.81 638.167 1968.81 637.721 1970.8C636.532 1970.93 635.607 1971.29 634.945 1971.85 634.283 1972.42 633.817 1973.21 633.547 1974.22 633.276 1975.24 633.141 1976.59 633.141 1978.3 633.141 1978.7 633.182 1979.92 633.263 1981.94L634.398 2011.61 634.398 2014.85 634.803 2014.85 652.351 1983.2C653.378 1981.34 654.148 1979.74 654.661 1978.4 655.175 1977.06 655.431 1975.88 655.431 1974.85 655.431 1972.58 654.081 1971.23 651.379 1970.8L651.825 1968.81 668.4 1968.81 667.954 1970.8C667.225 1970.91 666.529 1971.18 665.867 1971.63 665.205 1972.08 664.462 1972.82 663.638 1973.86 662.814 1974.9 661.538 1976.91 659.808 1979.88L633.871 2024.78 628.481 2024.78 625.765 1979.59C625.657 1977.84 625.461 1976.33 625.178 1975.07 624.894 1973.82 624.448 1972.84 623.84 1972.14 623.232 1971.43 622.267 1970.99 620.943 1970.8ZM598.021 1968.81 614.232 1968.81 613.786 1970.8C612.759 1971.02 612.023 1971.26 611.577 1971.53 611.131 1971.8 610.733 1972.2 610.382 1972.74 610.03 1973.28 609.666 1974.13 609.287 1975.28 608.909 1976.43 608.436 1978.3 607.869 1980.89L600.939 2012.34C600.588 2013.93 600.358 2015.2 600.25 2016.13 600.142 2017.06 600.088 2017.91 600.088 2018.66 600.088 2019.88 600.392 2020.74 601 2021.24 601.607 2021.74 602.627 2022.04 604.059 2022.15L603.614 2024.13 587.403 2024.13 587.848 2022.15C588.875 2021.99 589.645 2021.72 590.159 2021.36 590.672 2020.99 591.104 2020.49 591.455 2019.84 591.807 2019.19 592.131 2018.4 592.428 2017.47 592.725 2016.53 593.171 2014.73 593.765 2012.06L600.655 1980.85C601.25 1978.15 601.547 1975.97 601.547 1974.33 601.547 1973.06 601.229 1972.17 600.594 1971.67 599.959 1971.17 598.953 1970.88 597.575 1970.8Z" fill-rule="evenodd"/><text fill="#000000" fill-opacity="0" font-family="Arial,Arial_MSFontService,sans-serif" font-size="55.9683" x="587.403" y="2017.79">πΌπ‘‰</text><path d="M2138.81 1968.16C2141.27 1968.16 2143.55 1968.31 2145.64 1968.61 2147.73 1968.91 2150.06 1969.45 2152.63 1970.23L2150.2 1981.21 2146.31 1981.21C2146.09 1977.89 2145.37 1975.49 2144.14 1974.02 2142.91 1972.55 2140.93 1971.81 2138.2 1971.81 2134.47 1971.81 2131.01 1973.68 2127.81 1977.41 2124.61 1981.13 2122.07 1986.06 2120.21 1992.18 2118.34 1998.3 2117.41 2003.98 2117.41 2009.22 2117.41 2013.33 2118.14 2016.35 2119.6 2018.3 2121.06 2020.24 2123.3 2021.22 2126.33 2021.22 2128.35 2021.22 2130.12 2020.91 2131.64 2020.3 2133.15 2019.7 2134.57 2018.67 2135.89 2017.22 2137.22 2015.78 2138.53 2013.76 2139.82 2011.16L2143.71 2011.16 2141.24 2022.67C2136.19 2024.08 2130.89 2024.78 2125.36 2024.78 2120.28 2024.78 2116.41 2023.32 2113.76 2020.4 2111.12 2017.49 2109.79 2013.22 2109.79 2007.6 2109.79 2003.63 2110.5 1999.05 2111.92 1993.86 2113.34 1988.67 2115.35 1984.12 2117.94 1980.2 2120.53 1976.28 2123.6 1973.3 2127.14 1971.24 2130.68 1969.19 2134.57 1968.16 2138.81 1968.16Z" fill-rule="evenodd"/><text fill="#000000" fill-opacity="0" font-family="Arial,Arial_MSFontService,sans-serif" font-size="56.6167" x="2109.79" y="2017.7">π¶</text><path d="M2158.02 2002.35 2168.3 2002.35C2169.23 2004.83 2170.19 2007.32 2171.17 2009.84 2172.15 2012.35 2173.12 2014.86 2174.07 2017.36 2175.03 2019.86 2175.95 2022.33 2176.83 2024.76 2177.71 2027.19 2178.52 2029.57 2179.26 2031.89L2179.64 2031.89C2179.86 2030.62 2180.14 2029.12 2180.48 2027.38 2180.82 2025.64 2181.21 2023.84 2181.67 2021.97 2182.01 2020.56 2182.35 2019.11 2182.7 2017.63 2183.05 2016.14 2183.37 2014.71 2183.67 2013.34 2183.96 2011.97 2184.21 2010.7 2184.4 2009.54 2184.58 2008.38 2184.68 2007.42 2184.68 2006.66 2184.68 2005.79 2184.46 2005.17 2184.01 2004.8 2183.56 2004.44 2182.73 2004.24 2181.52 2004.22L2181.94 2002.35 2192.99 2002.35 2192.6 2004.13C2191.93 2004.33 2191.39 2004.51 2190.99 2004.65 2190.6 2004.8 2190.26 2005.09 2189.98 2005.52 2189.7 2005.94 2189.44 2006.57 2189.19 2007.38 2188.94 2008.19 2188.65 2009.36 2188.31 2010.89L2181.58 2040.98 2177.08 2040.98C2176.03 2038.28 2174.95 2035.56 2173.85 2032.82 2172.75 2030.08 2171.67 2027.34 2170.6 2024.6 2169.54 2021.85 2168.52 2019.13 2167.55 2016.43 2166.58 2013.73 2165.7 2011.07 2164.9 2008.45L2164.51 2008.45C2164.41 2009.07 2164.3 2009.78 2164.16 2010.6 2164.02 2011.41 2163.86 2012.29 2163.69 2013.23 2163.53 2014.18 2163.35 2015.14 2163.16 2016.14 2162.97 2017.13 2162.78 2018.12 2162.58 2019.11 2162.4 2019.87 2162.19 2020.75 2161.94 2021.75 2161.69 2022.75 2161.44 2023.83 2161.18 2024.97 2160.92 2026.11 2160.66 2027.27 2160.39 2028.44 2160.12 2029.61 2159.88 2030.73 2159.66 2031.79 2159.44 2032.85 2159.27 2033.82 2159.14 2034.69 2159.01 2035.57 2158.94 2036.25 2158.94 2036.75 2158.94 2037.58 2159.18 2038.17 2159.66 2038.52 2160.14 2038.87 2160.95 2039.08 2162.1 2039.16L2161.77 2040.98 2150.66 2040.98 2151.05 2039.16C2151.65 2039.06 2152.14 2038.94 2152.54 2038.8 2152.94 2038.66 2153.28 2038.38 2153.58 2037.95 2153.88 2037.53 2154.16 2036.89 2154.43 2036.03 2154.7 2035.18 2155 2033.98 2155.34 2032.43L2160.22 2010.72C2160.4 2009.92 2160.54 2009.18 2160.63 2008.5 2160.72 2007.81 2160.76 2007.2 2160.76 2006.66 2160.76 2005.79 2160.53 2005.17 2160.08 2004.8 2159.62 2004.44 2158.79 2004.24 2157.57 2004.22Z" fill-rule="evenodd"/><text fill="#000000" fill-opacity="0" font-family="Arial,Arial_MSFontService,sans-serif" font-size="38.6313" x="2150.66" y="2036.15">π‘</text><path d="M2200.45 2021.26 2234.76 2021.26 2234.76 2025.82 2200.45 2025.82Z" fill-rule="evenodd"/><text fill="#000000" fill-opacity="0" font-family="Arial,Arial_MSFontService,sans-serif" font-size="4.55713" x="2200.45" y="2025.25">β’</text><path d="M2259.06 2002.61 2260.88 2002.61C2260.84 2003.71 2260.81 2004.68 2260.79 2005.55 2260.77 2006.41 2260.76 2007.25 2260.75 2008.06 2260.74 2008.88 2260.73 2009.68 2260.73 2010.48L2260.73 2033.11C2260.73 2033.73 2260.75 2034.26 2260.79 2034.71 2260.83 2035.15 2260.89 2035.53 2260.98 2035.84 2261.07 2036.15 2261.19 2036.41 2261.34 2036.63 2261.49 2036.85 2261.66 2037.04 2261.86 2037.19 2262.1 2037.43 2262.42 2037.62 2262.82 2037.75 2263.21 2037.87 2263.72 2037.98 2264.33 2038.07 2264.95 2038.16 2265.69 2038.23 2266.55 2038.28 2267.42 2038.33 2268.45 2038.37 2269.67 2038.39L2269.67 2040.98 2246.05 2040.98 2246.05 2038.39C2247.22 2038.35 2248.21 2038.3 2249.02 2038.25 2249.84 2038.2 2250.53 2038.13 2251.11 2038.04 2251.69 2037.95 2252.15 2037.85 2252.49 2037.75 2252.84 2037.64 2253.15 2037.5 2253.4 2037.34 2253.68 2037.16 2253.92 2036.97 2254.12 2036.76 2254.32 2036.55 2254.48 2036.29 2254.59 2035.97 2254.71 2035.66 2254.81 2035.27 2254.88 2034.81 2254.95 2034.35 2254.98 2033.79 2254.98 2033.11L2254.98 2011.76C2254.98 2010.98 2254.83 2010.44 2254.54 2010.12 2254.24 2009.8 2253.81 2009.64 2253.25 2009.64 2252.64 2009.64 2251.73 2009.96 2250.51 2010.6 2249.3 2011.23 2247.73 2012.17 2245.81 2013.43 2245.55 2012.97 2245.31 2012.51 2245.09 2012.06 2244.87 2011.6 2244.65 2011.13 2244.41 2010.66 2246.87 2009.31 2249.31 2007.96 2251.72 2006.62 2254.13 2005.28 2256.58 2003.94 2259.06 2002.61Z" fill-rule="evenodd"/><text fill="#000000" fill-opacity="0" font-family="Arial,Arial_MSFontService,sans-serif" font-size="38.3633" x="2244.41" y="2036.18">1</text><path d="M2314.5 1990.92 2433.42 1990.92 2433.42 2000.08 2314.5 2000.08ZM2428.84 1972.58 2474.67 1995.5 2428.84 2018.42Z"/><path d="M4.58299-0.0558342 5.72616 93.7775-3.43983 93.8891-4.58299 0.0558342ZM24.0023 88.9711 1.64567 135.08-21.8276 89.5294Z" transform="matrix(-1 0 0 1 1595.15 1785.5)"/><path d="M4.58299-0.0558342 5.72616 93.7775-3.43983 93.8891-4.58299 0.0558342ZM24.0023 88.9711 1.64567 135.08-21.8276 89.5294Z" transform="matrix(-1 0 0 1 2550.15 1785.5)"/><path d="M681.5 1990.92 804.218 1990.92 804.218 2000.08 681.5 2000.08ZM799.635 1972.58 845.468 1995.5 799.635 2018.42Z"/><path d="M4.58333-1.12276e-05 4.58359 106.074-4.58307 106.074-4.58333 1.12276e-05ZM22.9169 101.491 0.000360892 147.324-22.9164 101.491Z" transform="matrix(-1 0 0 1 919.5 2069.5)"/><path d="M4.58333-1.12276e-05 4.58359 106.074-4.58307 106.074-4.58333 1.12276e-05ZM22.9169 101.491 0.000360892 147.324-22.9164 101.491Z" transform="matrix(-1 0 0 1 1593.5 2069.5)"/><path d="M4.58333-1.12276e-05 4.58359 106.074-4.58307 106.074-4.58333 1.12276e-05ZM22.9169 101.491 0.000360892 147.324-22.9164 101.491Z" transform="matrix(-1 0 0 1 2548.5 2069.5)"/><path d="M924.083 1312.45 925.271 1419.41 916.105 1419.51 914.917 1312.55ZM943.552 1414.62 921.146 1460.7 897.722 1415.13Z"/><path d="M1598.08 1312.45 1599.27 1419.41 1590.1 1419.51 1588.92 1312.55ZM1617.55 1414.62 1595.15 1460.7 1571.72 1415.13Z"/><path d="M2553.08 1312.45 2554.27 1419.41 2545.1 1419.51 2543.92 1312.55ZM2572.55 1414.62 2550.15 1460.7 2526.72 1415.13Z"/></g></svg>