<svg width="1826" height="591" xmlns="http://www.w3.org/2000/svg" xmlns:xlink="http://www.w3.org/1999/xlink" overflow="hidden"><defs><clipPath id="clip0"><rect x="2186" y="1304" width="1826" height="591"/></clipPath></defs><g clip-path="url(#clip0)" transform="translate(-2186 -1304)"><rect x="2186" y="1329" width="502" height="218" fill="#D74514"/><path d="M2469.09 1416.67C2466.76 1416.67 2465.24 1416.7 2464.51 1416.75L2464.51 1439.28 2468.52 1439.28C2471.28 1439.28 2473.46 1438.8 2475.06 1437.82 2476.67 1436.85 2477.79 1435.53 2478.43 1433.87 2479.06 1432.21 2479.38 1430.15 2479.38 1427.69 2479.38 1424.02 2478.52 1421.26 2476.79 1419.42 2475.06 1417.59 2472.49 1416.67 2469.09 1416.67ZM2447.61 1411.93 2471.23 1411.93C2475.13 1411.93 2478.36 1412.28 2480.94 1412.98 2483.52 1413.68 2485.57 1414.65 2487.1 1415.88 2488.63 1417.11 2489.8 1418.63 2490.61 1420.44 2491.42 1422.25 2491.82 1424.38 2491.82 1426.84 2491.82 1429.49 2491.36 1431.76 2490.42 1433.65 2489.49 1435.54 2488.24 1437.11 2486.66 1438.37 2485.07 1439.63 2482.96 1440.81 2480.31 1441.92L2480.31 1442.32C2482.31 1443.19 2483.97 1444.34 2485.28 1445.79 2486.59 1447.23 2487.77 1449.06 2488.82 1451.28L2491.38 1456.79C2492.51 1459.25 2493.64 1461.09 2494.76 1462.32 2495.88 1463.55 2497.21 1464.3 2498.75 1464.57L2498.75 1467.25 2483.15 1467.25C2481.58 1465.09 2479.81 1461.87 2477.84 1457.6L2474.68 1450.67C2473.73 1448.62 2472.92 1447.16 2472.25 1446.29 2471.57 1445.43 2470.88 1444.84 2470.16 1444.51 2469.44 1444.19 2468.34 1444.02 2466.86 1444.02L2464.51 1444.02 2464.51 1457.07C2464.51 1459.1 2464.6 1460.52 2464.79 1461.33 2464.98 1462.14 2465.34 1462.79 2465.89 1463.28 2466.43 1463.76 2467.43 1464.19 2468.88 1464.57L2468.88 1467.25 2447.61 1467.25 2447.61 1464.57C2449.07 1464.19 2450.06 1463.76 2450.59 1463.28 2451.11 1462.79 2451.47 1462.15 2451.66 1461.35 2451.85 1460.55 2451.94 1459.13 2451.94 1457.07L2451.94 1422.14C2451.94 1420.09 2451.86 1418.66 2451.68 1417.86 2451.5 1417.07 2451.15 1416.43 2450.61 1415.94 2450.07 1415.45 2449.07 1415.01 2447.61 1414.6ZM2357.61 1411.93 2396.8 1411.93 2396.8 1424.81 2391.24 1424.81C2390.35 1422.25 2389.6 1420.51 2388.98 1419.61 2388.35 1418.7 2387.61 1417.99 2386.75 1417.46 2385.88 1416.93 2384.41 1416.67 2382.33 1416.67L2374.51 1416.67 2374.51 1437.3 2379.69 1437.3C2380.96 1437.3 2381.94 1437.1 2382.63 1436.71 2383.32 1436.32 2383.89 1435.66 2384.33 1434.74 2384.78 1433.83 2385.15 1432.53 2385.45 1430.85L2390.03 1430.85 2390.03 1448.52 2385.45 1448.52C2385.13 1446.82 2384.73 1445.5 2384.27 1444.57 2383.81 1443.64 2383.25 1442.98 2382.57 1442.61 2381.9 1442.23 2380.94 1442.04 2379.69 1442.04L2374.51 1442.04 2374.51 1457.07C2374.51 1459.18 2374.62 1460.65 2374.83 1461.47 2375.05 1462.3 2375.47 1462.96 2376.11 1463.46 2376.74 1463.96 2377.84 1464.33 2379.41 1464.57L2379.41 1467.25 2357.61 1467.25 2357.61 1464.57C2359.04 1464.22 2360.02 1463.8 2360.55 1463.3 2361.07 1462.8 2361.44 1462.15 2361.64 1461.35 2361.84 1460.55 2361.94 1459.11 2361.94 1457.03L2361.94 1422.14C2361.94 1420.09 2361.86 1418.66 2361.68 1417.86 2361.5 1417.07 2361.15 1416.43 2360.61 1415.94 2360.07 1415.45 2359.07 1415.01 2357.61 1414.6ZM2311.61 1411.93 2332.88 1411.93 2332.88 1414.6C2331.45 1414.98 2330.47 1415.41 2329.95 1415.9 2329.42 1416.39 2329.05 1417.03 2328.83 1417.84 2328.62 1418.65 2328.51 1420.06 2328.51 1422.06L2328.51 1462.42 2336.37 1462.42C2338.07 1462.42 2339.46 1462.11 2340.52 1461.47 2341.59 1460.84 2342.51 1459.77 2343.28 1458.27 2344.05 1456.77 2344.81 1454.31 2345.57 1450.87L2351.12 1450.87 2350.23 1467.25 2311.61 1467.25 2311.61 1464.57C2313.07 1464.19 2314.06 1463.76 2314.59 1463.28 2315.11 1462.79 2315.47 1462.14 2315.66 1461.33 2315.85 1460.52 2315.94 1459.09 2315.94 1457.03L2315.94 1422.14C2315.94 1420.09 2315.86 1418.66 2315.68 1417.86 2315.5 1417.07 2315.15 1416.43 2314.61 1415.94 2314.07 1415.45 2313.07 1415.01 2311.61 1414.6ZM2425.44 1411.28C2427.84 1411.28 2430.14 1411.41 2432.33 1411.66 2434.52 1411.92 2437.02 1412.37 2439.83 1413.02L2439.83 1424.77 2434.27 1424.77C2433.54 1421.72 2432.46 1419.5 2431.03 1418.11 2429.6 1416.72 2427.53 1416.02 2424.83 1416.02 2422.4 1416.02 2420.45 1416.66 2418.97 1417.93 2417.5 1419.2 2416.77 1420.92 2416.77 1423.11 2416.77 1424.68 2417.07 1426.04 2417.68 1427.19 2418.29 1428.33 2419.31 1429.46 2420.74 1430.55 2422.17 1431.64 2424.25 1432.89 2426.98 1434.3 2430.3 1436.03 2432.92 1437.72 2434.82 1439.38 2436.73 1441.05 2438.13 1442.86 2439.04 1444.82 2439.94 1446.77 2440.39 1449.05 2440.39 1451.64 2440.39 1454.97 2439.62 1457.85 2438.08 1460.3 2436.54 1462.74 2434.3 1464.62 2431.36 1465.93 2428.41 1467.24 2425.01 1467.9 2421.14 1467.9 2418.39 1467.9 2415.52 1467.74 2412.53 1467.43 2409.54 1467.12 2406.74 1466.67 2404.12 1466.07L2404.12 1453.59 2409.67 1453.59C2410.35 1456.8 2411.48 1459.2 2413.06 1460.78 2414.64 1462.36 2416.95 1463.15 2420.01 1463.15 2422.68 1463.15 2424.77 1462.46 2426.27 1461.09 2427.77 1459.71 2428.52 1457.75 2428.52 1455.21 2428.52 1452.72 2427.8 1450.65 2426.35 1448.99 2424.9 1447.33 2422.4 1445.61 2418.83 1443.82 2415.86 1442.36 2413.38 1440.86 2411.4 1439.3 2409.41 1437.75 2407.84 1435.95 2406.69 1433.89 2405.55 1431.84 2404.97 1429.49 2404.97 1426.84 2404.97 1423.52 2405.8 1420.69 2407.44 1418.37 2409.09 1416.05 2411.48 1414.28 2414.6 1413.08 2417.72 1411.88 2421.33 1411.28 2425.44 1411.28Z" fill="#FFFFFF" fill-rule="evenodd"/><text fill="#000000" fill-opacity="0" font-family="Arial,Arial_MSFontService,sans-serif" font-size="56.6167" x="2311.61" y="1460.82">𝐋𝐅𝐒𝐑</text><path d="M2523.27 1442.96 2527.08 1442.96C2526.97 1444.86 2526.91 1447.5 2526.91 1450.88L2526.91 1475.78C2526.91 1476.93 2526.97 1477.8 2527.1 1478.39 2527.23 1478.97 2527.46 1479.45 2527.78 1479.82 2528.11 1480.18 2528.58 1480.47 2529.2 1480.68 2529.82 1480.89 2530.59 1481.05 2531.52 1481.16 2532.46 1481.27 2533.69 1481.34 2535.22 1481.38L2535.22 1484.09 2509.51 1484.09 2509.51 1481.38C2511.72 1481.28 2513.29 1481.15 2514.23 1480.98 2515.18 1480.81 2515.9 1480.56 2516.39 1480.22 2516.89 1479.88 2517.25 1479.4 2517.48 1478.79 2517.71 1478.17 2517.82 1477.17 2517.82 1475.78L2517.82 1454.25C2517.82 1453.43 2517.67 1452.85 2517.36 1452.49 2517.05 1452.13 2516.63 1451.95 2516.09 1451.95 2515.6 1451.95 2514.9 1452.18 2513.99 1452.64 2513.09 1453.09 2511.61 1454.03 2509.54 1455.44L2507.72 1452.28Z" fill="#FFFFFF" fill-rule="evenodd"/><text fill="#000000" fill-opacity="0" font-family="Arial,Arial_MSFontService,sans-serif" font-size="41.1333" x="2507.72" y="1478.95">𝟏</text><path d="M3.69108e-06-4.58333 406.882-4.58301 406.882 4.58366-3.69108e-06 4.58333ZM402.298-22.9163 448.132 0.000360892 402.298 22.917Z" transform="matrix(1 0 0 -1 2688.5 1438.5)"/><rect x="2186" y="1676" width="502" height="219" fill="#D74514"/><path d="M2469.09 1764.25C2466.76 1764.25 2465.24 1764.28 2464.51 1764.33L2464.51 1786.86 2468.52 1786.86C2471.28 1786.86 2473.46 1786.38 2475.06 1785.4 2476.67 1784.43 2477.79 1783.11 2478.43 1781.45 2479.06 1779.79 2479.38 1777.73 2479.38 1775.27 2479.38 1771.6 2478.52 1768.84 2476.79 1767.01 2475.06 1765.17 2472.49 1764.25 2469.09 1764.25ZM2447.61 1759.51 2471.23 1759.51C2475.13 1759.51 2478.36 1759.86 2480.94 1760.56 2483.52 1761.26 2485.57 1762.23 2487.1 1763.46 2488.63 1764.69 2489.8 1766.21 2490.61 1768.02 2491.42 1769.83 2491.82 1771.96 2491.82 1774.42 2491.82 1777.07 2491.36 1779.34 2490.42 1781.23 2489.49 1783.12 2488.24 1784.7 2486.66 1785.95 2485.07 1787.21 2482.96 1788.39 2480.31 1789.5L2480.31 1789.9C2482.31 1790.77 2483.97 1791.92 2485.28 1793.37 2486.59 1794.81 2487.77 1796.64 2488.82 1798.86L2491.38 1804.37C2492.51 1806.83 2493.64 1808.67 2494.76 1809.9 2495.88 1811.13 2497.21 1811.88 2498.75 1812.15L2498.75 1814.83 2483.15 1814.83C2481.58 1812.67 2479.81 1809.45 2477.84 1805.18L2474.68 1798.25C2473.73 1796.2 2472.92 1794.74 2472.25 1793.87 2471.57 1793.01 2470.88 1792.42 2470.16 1792.09 2469.44 1791.77 2468.34 1791.61 2466.86 1791.61L2464.51 1791.61 2464.51 1804.66C2464.51 1806.68 2464.6 1808.1 2464.79 1808.91 2464.98 1809.72 2465.34 1810.37 2465.89 1810.86 2466.43 1811.34 2467.43 1811.77 2468.88 1812.15L2468.88 1814.83 2447.61 1814.83 2447.61 1812.15C2449.07 1811.77 2450.06 1811.34 2450.59 1810.86 2451.11 1810.37 2451.47 1809.73 2451.66 1808.93 2451.85 1808.13 2451.94 1806.71 2451.94 1804.66L2451.94 1769.72C2451.94 1767.67 2451.86 1766.24 2451.68 1765.44 2451.5 1764.65 2451.15 1764.01 2450.61 1763.52 2450.07 1763.03 2449.07 1762.59 2447.61 1762.18ZM2357.61 1759.51 2396.8 1759.51 2396.8 1772.4 2391.24 1772.4C2390.35 1769.83 2389.6 1768.09 2388.98 1767.19 2388.35 1766.28 2387.61 1765.57 2386.75 1765.04 2385.88 1764.51 2384.41 1764.25 2382.33 1764.25L2374.51 1764.25 2374.51 1784.88 2379.69 1784.88C2380.96 1784.88 2381.94 1784.68 2382.63 1784.29 2383.32 1783.9 2383.89 1783.24 2384.33 1782.32 2384.78 1781.41 2385.15 1780.11 2385.45 1778.43L2390.03 1778.43 2390.03 1796.1 2385.45 1796.1C2385.13 1794.4 2384.73 1793.08 2384.27 1792.15 2383.81 1791.22 2383.25 1790.57 2382.57 1790.19 2381.9 1789.81 2380.94 1789.62 2379.69 1789.62L2374.51 1789.62 2374.51 1804.66C2374.51 1806.76 2374.62 1808.23 2374.83 1809.05 2375.05 1809.88 2375.47 1810.54 2376.11 1811.04 2376.74 1811.54 2377.84 1811.91 2379.41 1812.15L2379.41 1814.83 2357.61 1814.83 2357.61 1812.15C2359.04 1811.8 2360.02 1811.38 2360.55 1810.88 2361.07 1810.38 2361.44 1809.73 2361.64 1808.93 2361.84 1808.13 2361.94 1806.69 2361.94 1804.61L2361.94 1769.72C2361.94 1767.67 2361.86 1766.24 2361.68 1765.44 2361.5 1764.65 2361.15 1764.01 2360.61 1763.52 2360.07 1763.03 2359.07 1762.59 2357.61 1762.18ZM2311.61 1759.51 2332.88 1759.51 2332.88 1762.18C2331.45 1762.56 2330.47 1762.99 2329.95 1763.48 2329.42 1763.97 2329.05 1764.61 2328.83 1765.42 2328.62 1766.24 2328.51 1767.64 2328.51 1769.64L2328.51 1810 2336.37 1810C2338.07 1810 2339.46 1809.69 2340.52 1809.05 2341.59 1808.42 2342.51 1807.35 2343.28 1805.85 2344.05 1804.35 2344.81 1801.89 2345.57 1798.45L2351.12 1798.45 2350.23 1814.83 2311.61 1814.83 2311.61 1812.15C2313.07 1811.77 2314.06 1811.34 2314.59 1810.86 2315.11 1810.37 2315.47 1809.72 2315.66 1808.91 2315.85 1808.1 2315.94 1806.67 2315.94 1804.61L2315.94 1769.72C2315.94 1767.67 2315.86 1766.24 2315.68 1765.44 2315.5 1764.65 2315.15 1764.01 2314.61 1763.52 2314.07 1763.03 2313.07 1762.59 2311.61 1762.18ZM2425.44 1758.86C2427.84 1758.86 2430.14 1758.99 2432.33 1759.24 2434.52 1759.5 2437.02 1759.95 2439.83 1760.6L2439.83 1772.35 2434.27 1772.35C2433.54 1769.3 2432.46 1767.08 2431.03 1765.69 2429.6 1764.3 2427.53 1763.6 2424.83 1763.6 2422.4 1763.6 2420.45 1764.24 2418.97 1765.51 2417.5 1766.78 2416.77 1768.5 2416.77 1770.69 2416.77 1772.26 2417.07 1773.62 2417.68 1774.77 2418.29 1775.91 2419.31 1777.04 2420.74 1778.13 2422.17 1779.22 2424.25 1780.47 2426.98 1781.88 2430.3 1783.61 2432.92 1785.3 2434.82 1786.96 2436.73 1788.63 2438.13 1790.44 2439.04 1792.4 2439.94 1794.35 2440.39 1796.63 2440.39 1799.22 2440.39 1802.55 2439.62 1805.43 2438.08 1807.88 2436.54 1810.32 2434.3 1812.2 2431.36 1813.51 2428.41 1814.82 2425.01 1815.48 2421.14 1815.48 2418.39 1815.48 2415.52 1815.32 2412.53 1815.01 2409.54 1814.7 2406.74 1814.25 2404.12 1813.65L2404.12 1801.17 2409.67 1801.17C2410.35 1804.38 2411.48 1806.78 2413.06 1808.36 2414.64 1809.94 2416.95 1810.73 2420.01 1810.73 2422.68 1810.73 2424.77 1810.05 2426.27 1808.67 2427.77 1807.29 2428.52 1805.33 2428.52 1802.79 2428.52 1800.31 2427.8 1798.23 2426.35 1796.57 2424.9 1794.91 2422.4 1793.19 2418.83 1791.4 2415.86 1789.94 2413.38 1788.44 2411.4 1786.88 2409.41 1785.33 2407.84 1783.53 2406.69 1781.47 2405.55 1779.42 2404.97 1777.07 2404.97 1774.42 2404.97 1771.1 2405.8 1768.28 2407.44 1765.95 2409.09 1763.63 2411.48 1761.86 2414.6 1760.66 2417.72 1759.46 2421.33 1758.86 2425.44 1758.86Z" fill="#FFFFFF" fill-rule="evenodd"/><text fill="#000000" fill-opacity="0" font-family="Arial,Arial_MSFontService,sans-serif" font-size="56.6167" x="2311.61" y="1808.4">𝐋𝐅𝐒𝐑</text><path d="M2520.95 1790.54C2523.87 1790.54 2526.25 1790.93 2528.1 1791.71 2529.94 1792.5 2531.28 1793.56 2532.1 1794.9 2532.93 1796.24 2533.34 1797.81 2533.34 1799.59 2533.34 1801.16 2533.05 1802.62 2532.46 1803.97 2531.88 1805.32 2530.86 1806.86 2529.42 1808.59 2527.98 1810.32 2525.56 1812.79 2522.14 1816 2521.09 1817 2519.83 1818.3 2518.37 1819.92 2516.91 1821.54 2515.76 1822.92 2514.9 1824.08L2514.9 1824.37 2525.48 1824.37C2526.77 1824.37 2527.73 1824.28 2528.37 1824.09 2529 1823.9 2529.5 1823.57 2529.87 1823.11 2530.24 1822.64 2530.54 1821.94 2530.78 1821.01L2534.2 1821.01 2533.52 1831.67 2506.24 1831.67 2506.24 1829.71C2507.76 1826.19 2510.89 1821.66 2515.62 1816.12 2517.76 1813.6 2519.4 1811.53 2520.52 1809.9 2521.64 1808.27 2522.48 1806.73 2523.03 1805.28 2523.59 1803.83 2523.87 1802.33 2523.87 1800.78 2523.87 1798.6 2523.38 1796.89 2522.41 1795.65 2521.44 1794.4 2520.11 1793.78 2518.42 1793.78 2515.18 1793.78 2513.11 1796.12 2512.19 1800.78L2506.83 1800.78 2506.83 1793.75C2510.07 1792.44 2512.68 1791.58 2514.66 1791.16 2516.65 1790.75 2518.75 1790.54 2520.95 1790.54Z" fill="#FFFFFF" fill-rule="evenodd"/><text fill="#000000" fill-opacity="0" font-family="Arial,Arial_MSFontService,sans-serif" font-size="41.1333" x="2506.24" y="1826.53">𝟐</text><rect x="3136" y="1329" width="507" height="566" fill="#D74514"/><text fill="#FFFFFF" font-family="Microsoft YaHei,Microsoft YaHei_MSFontService,sans-serif" font-weight="700" font-size="83" transform="matrix(1 0 0 1 3369.75 1493)">J<tspan font-size="83" x="-9.16675" y="297">K</tspan></text><path d="M2936.21 1338.28 2937.26 1338.28C2943.61 1338.39 2948.36 1339.84 2951.51 1342.64 2954.66 1345.43 2956.23 1349.64 2956.23 1355.26 2956.23 1357.5 2955.91 1360.06 2955.28 1362.92 2954.64 1365.78 2954.33 1367.7 2954.33 1368.68 2954.33 1370.54 2954.97 1372.06 2956.25 1373.23 2957.53 1374.41 2959.47 1375.04 2962.07 1375.12L2962.07 1378.44C2959.47 1378.52 2957.53 1379.15 2956.25 1380.33 2954.97 1381.5 2954.33 1383.02 2954.33 1384.89 2954.33 1385.86 2954.64 1387.78 2955.28 1390.64 2955.91 1393.51 2956.23 1396.06 2956.23 1398.3 2956.23 1404.11 2954.66 1408.41 2951.51 1411.21 2948.36 1414.01 2943.61 1415.46 2937.26 1415.57L2936.21 1415.57 2936.21 1412.49 2936.82 1412.49C2940.74 1412.49 2943.8 1411.47 2946.02 1409.43 2948.23 1407.39 2949.34 1403.92 2949.34 1399.03 2949.34 1397.14 2949.07 1394.8 2948.53 1392.02 2947.99 1389.24 2947.72 1387.25 2947.72 1386.06 2947.72 1383.77 2948.4 1381.88 2949.75 1380.41 2951.1 1378.94 2952.71 1377.85 2954.57 1377.15L2954.57 1376.42C2952.71 1375.71 2951.1 1374.63 2949.75 1373.15 2948.4 1371.68 2947.72 1369.8 2947.72 1367.5 2947.72 1366.31 2947.99 1364.33 2948.53 1361.54 2949.07 1358.76 2949.34 1356.42 2949.34 1354.53 2949.34 1349.83 2948.23 1346.46 2946.02 1344.42 2943.8 1342.38 2940.74 1341.36 2936.82 1341.36L2936.21 1341.36ZM2842.81 1338.28 2843.86 1338.28 2843.86 1341.36 2843.25 1341.36C2839.33 1341.36 2836.27 1342.38 2834.05 1344.42 2831.84 1346.46 2830.73 1349.82 2830.73 1354.49 2830.73 1356.38 2831 1358.72 2831.54 1361.5 2832.08 1364.29 2832.35 1366.27 2832.35 1367.46 2832.35 1369.76 2831.68 1371.64 2830.32 1373.11 2828.97 1374.59 2827.37 1375.67 2825.5 1376.38L2825.5 1377.11C2827.37 1377.81 2828.97 1378.9 2830.32 1380.37 2831.68 1381.84 2832.35 1383.72 2832.35 1386.02 2832.35 1387.21 2832.08 1389.2 2831.54 1391.98 2831 1394.76 2830.73 1397.1 2830.73 1398.99 2830.73 1403.91 2831.84 1407.39 2834.05 1409.43 2836.27 1411.47 2839.33 1412.49 2843.25 1412.49L2843.86 1412.49 2843.86 1415.57 2842.81 1415.57C2836.46 1415.46 2831.71 1414.01 2828.56 1411.21 2825.41 1408.41 2823.84 1404.1 2823.84 1398.26 2823.84 1396.02 2824.16 1393.46 2824.79 1390.6 2825.43 1387.74 2825.74 1385.82 2825.74 1384.85 2825.74 1382.98 2825.1 1381.46 2823.82 1380.29 2822.54 1379.11 2820.6 1378.48 2818 1378.4L2818 1375.08C2820.6 1375 2822.54 1374.37 2823.82 1373.19 2825.1 1372.02 2825.74 1370.5 2825.74 1368.64 2825.74 1367.66 2825.43 1365.74 2824.79 1362.88 2824.16 1360.02 2823.84 1357.46 2823.84 1355.22 2823.84 1349.63 2825.41 1345.43 2828.56 1342.64 2831.71 1339.84 2836.46 1338.39 2842.81 1338.28Z" fill-rule="evenodd"/><path d="M2872.08 1364.37C2869.29 1364.37 2866.8 1365.49 2864.58 1367.73 2862.36 1369.98 2860.64 1372.98 2859.39 1376.75 2858.15 1380.52 2857.53 1384.28 2857.53 1388.04 2857.53 1390.85 2857.91 1392.95 2858.68 1394.34 2859.45 1395.73 2860.74 1396.43 2862.55 1396.43 2864.34 1396.43 2866.09 1395.66 2867.8 1394.12 2869.52 1392.58 2871.29 1390.38 2873.11 1387.53 2874.93 1384.68 2876.22 1381.39 2876.98 1377.66L2877.35 1375.92C2877.59 1374.81 2877.75 1373.85 2877.83 1373.04 2877.91 1372.23 2877.95 1371.35 2877.95 1370.41 2877.95 1368.33 2877.51 1366.8 2876.62 1365.83 2875.73 1364.86 2874.21 1364.37 2872.08 1364.37ZM2871.27 1361.17C2873.02 1361.17 2874.66 1361.36 2876.19 1361.76 2877.72 1362.15 2879.29 1362.84 2880.91 1363.84L2884.64 1361.17 2887.23 1361.82 2881.28 1387.51C2880.68 1390.08 2880.39 1392.08 2880.39 1393.51 2880.39 1394.59 2880.56 1395.37 2880.91 1395.86 2881.26 1396.35 2881.82 1396.59 2882.57 1396.59 2883.38 1396.59 2884.25 1396.26 2885.17 1395.6 2886.09 1394.94 2887.38 1393.67 2889.06 1391.81L2891.37 1394.08C2888.94 1396.67 2886.86 1398.52 2885.15 1399.61 2883.43 1400.7 2881.57 1401.25 2879.58 1401.25 2877.9 1401.25 2876.56 1400.7 2875.56 1399.59 2874.56 1398.48 2874.06 1397.01 2874.06 1395.17 2874.06 1393.69 2874.37 1392.1 2875 1390.43L2874.47 1390.27C2871.88 1394.05 2869.42 1396.82 2867.09 1398.58 2864.77 1400.33 2862.31 1401.21 2859.72 1401.21 2856.74 1401.21 2854.44 1400.09 2852.81 1397.85 2851.17 1395.6 2850.35 1392.46 2850.35 1388.4 2850.35 1383.76 2851.27 1379.29 2853.09 1375.01 2854.91 1370.73 2857.42 1367.35 2860.61 1364.88 2863.8 1362.41 2867.35 1361.17 2871.27 1361.17Z" fill-rule="evenodd"/><text fill="#000000" fill-opacity="0" font-family="Arial,Arial_MSFontService,sans-serif" font-size="40.0815" x="2850.35" y="1396.24">𝑎</text><path d="M2908.02 1376.79 2910.16 1376.79 2904.92 1399.96 2905.75 1399.96C2906.51 1399.96 2907.32 1399.8 2908.2 1399.49 2909.07 1399.17 2909.94 1398.76 2910.8 1398.25 2911.67 1397.74 2912.49 1397.17 2913.29 1396.54 2914.08 1395.9 2914.78 1395.26 2915.39 1394.62 2915.99 1393.97 2916.48 1393.36 2916.83 1392.78 2917.19 1392.21 2917.37 1391.72 2917.37 1391.32 2917.37 1390.85 2917.21 1390.46 2916.89 1390.16 2916.58 1389.86 2916 1389.67 2915.17 1389.57L2915.52 1387.66 2926.25 1387.66 2926.99 1389.51C2925.74 1390.58 2924.54 1391.57 2923.39 1392.49 2922.23 1393.4 2921.11 1394.28 2920.01 1395.12 2918.9 1395.97 2917.8 1396.79 2916.7 1397.61 2915.6 1398.42 2914.47 1399.27 2913.32 1400.14 2913.8 1401.65 2914.28 1403.18 2914.78 1404.74 2915.27 1406.3 2915.77 1407.85 2916.27 1409.37 2916.51 1410.19 2916.73 1410.89 2916.94 1411.47 2917.15 1412.06 2917.37 1412.54 2917.61 1412.9 2917.85 1413.27 2918.1 1413.54 2918.38 1413.72 2918.66 1413.9 2919 1413.99 2919.39 1413.99 2919.67 1413.99 2919.96 1413.94 2920.26 1413.84 2920.56 1413.74 2920.89 1413.56 2921.26 1413.31 2921.62 1413.05 2922.04 1412.7 2922.51 1412.25 2922.97 1411.8 2923.51 1411.24 2924.1 1410.57L2926.13 1412.5C2925.19 1413.45 2924.32 1414.28 2923.52 1414.97 2922.72 1415.67 2921.95 1416.24 2921.23 1416.69 2920.5 1417.13 2919.8 1417.46 2919.13 1417.67 2918.45 1417.88 2917.77 1417.98 2917.07 1417.98 2915.82 1417.98 2914.81 1417.67 2914.05 1417.04 2913.28 1416.42 2912.63 1415.52 2912.1 1414.36 2911.56 1413.2 2911.07 1411.8 2910.62 1410.15 2910.18 1408.5 2909.66 1406.66 2909.06 1404.64 2908.92 1404.16 2908.79 1403.78 2908.66 1403.49 2908.53 1403.2 2908.36 1402.99 2908.17 1402.84 2907.97 1402.69 2907.72 1402.59 2907.42 1402.55 2907.12 1402.51 2906.75 1402.49 2906.29 1402.49L2904.38 1402.49 2901.11 1417.45 2895.39 1417.45 2902.6 1385.46C2902.83 1384.4 2903 1383.58 2903.1 1382.97 2903.2 1382.36 2903.25 1381.82 2903.25 1381.35 2903.25 1380.97 2903.19 1380.64 2903.06 1380.36 2902.93 1380.09 2902.72 1379.86 2902.42 1379.69 2902.12 1379.52 2901.72 1379.4 2901.23 1379.32 2900.73 1379.24 2900.11 1379.19 2899.38 1379.17L2899.83 1377.15Z" fill-rule="evenodd"/><text fill="#000000" fill-opacity="0" font-family="Arial,Arial_MSFontService,sans-serif" font-size="41.1929" x="2895.39" y="1412.83">𝑘</text><path d="M3.69108e-06-4.58333 406.882-4.58301 406.882 4.58366-3.69108e-06 4.58333ZM402.298-22.9163 448.132 0.000360892 402.298 22.917Z" transform="matrix(1 0 0 -1 2688.5 1785.5)"/><path d="M3643.5 1607.92 3923.71 1607.92 3923.71 1617.08 3643.5 1617.08ZM3919.13 1589.58 3964.96 1612.5 3919.13 1635.42Z"/><path d="M3832.38 1487.35 3833.44 1487.35C3839.79 1487.46 3844.54 1488.91 3847.68 1491.71 3850.83 1494.5 3852.41 1498.71 3852.41 1504.33 3852.41 1506.57 3852.09 1509.13 3851.45 1511.99 3850.82 1514.85 3850.5 1516.77 3850.5 1517.74 3850.5 1519.61 3851.14 1521.13 3852.43 1522.3 3853.71 1523.48 3855.65 1524.11 3858.24 1524.19L3858.24 1527.51C3855.65 1527.59 3853.71 1528.22 3852.43 1529.4 3851.14 1530.57 3850.5 1532.09 3850.5 1533.96 3850.5 1534.93 3850.82 1536.85 3851.45 1539.71 3852.09 1542.57 3852.41 1545.13 3852.41 1547.37 3852.41 1553.18 3850.83 1557.48 3847.68 1560.28 3844.54 1563.07 3839.79 1564.53 3833.44 1564.63L3832.38 1564.63 3832.38 1561.55 3832.99 1561.55C3836.91 1561.55 3839.98 1560.53 3842.19 1558.49 3844.41 1556.45 3845.52 1552.99 3845.52 1548.1 3845.52 1546.21 3845.25 1543.87 3844.71 1541.09 3844.16 1538.3 3843.89 1536.32 3843.89 1535.13 3843.89 1532.83 3844.57 1530.95 3845.92 1529.48 3847.27 1528 3848.88 1526.92 3850.74 1526.21L3850.74 1525.48C3848.88 1524.78 3847.27 1523.69 3845.92 1522.22 3844.57 1520.75 3843.89 1518.87 3843.89 1516.57 3843.89 1515.38 3844.16 1513.39 3844.71 1510.61 3845.25 1507.83 3845.52 1505.49 3845.52 1503.6 3845.52 1498.9 3844.41 1495.53 3842.19 1493.49 3839.98 1491.45 3836.91 1490.43 3832.99 1490.43L3832.38 1490.43ZM3749.02 1487.35 3750.07 1487.35 3750.07 1490.43 3749.46 1490.43C3745.55 1490.43 3742.48 1491.45 3740.26 1493.49 3738.05 1495.53 3736.94 1498.89 3736.94 1503.56 3736.94 1505.45 3737.21 1507.79 3737.75 1510.57 3738.29 1513.35 3738.56 1515.34 3738.56 1516.53 3738.56 1518.82 3737.89 1520.71 3736.54 1522.18 3735.19 1523.65 3733.58 1524.74 3731.71 1525.44L3731.71 1526.17C3733.58 1526.88 3735.19 1527.96 3736.54 1529.44 3737.89 1530.91 3738.56 1532.79 3738.56 1535.09 3738.56 1536.28 3738.29 1538.26 3737.75 1541.05 3737.21 1543.83 3736.94 1546.17 3736.94 1548.06 3736.94 1552.98 3738.05 1556.45 3740.26 1558.49 3742.48 1560.53 3745.55 1561.55 3749.46 1561.55L3750.07 1561.55 3750.07 1564.63 3749.02 1564.63C3742.67 1564.53 3737.92 1563.07 3734.77 1560.28 3731.63 1557.48 3730.05 1553.17 3730.05 1547.33 3730.05 1545.09 3730.37 1542.53 3731 1539.67 3731.64 1536.81 3731.96 1534.89 3731.96 1533.91 3731.96 1532.05 3731.31 1530.53 3730.03 1529.36 3728.75 1528.18 3726.81 1527.55 3724.22 1527.47L3724.22 1524.15C3726.81 1524.07 3728.75 1523.44 3730.03 1522.26 3731.31 1521.09 3731.96 1519.57 3731.96 1517.7 3731.96 1516.73 3731.64 1514.81 3731 1511.95 3730.37 1509.08 3730.05 1506.53 3730.05 1504.29 3730.05 1498.7 3731.63 1494.5 3734.77 1491.71 3737.92 1488.91 3742.67 1487.46 3749.02 1487.35Z" fill-rule="evenodd"/><path d="M3779.14 1510.28C3782.73 1510.28 3786.04 1510.68 3789.07 1511.49L3787.08 1520.65 3782.83 1520.65C3782.77 1518.6 3782.61 1517.11 3782.32 1516.19 3782.04 1515.28 3781.58 1514.59 3780.94 1514.13 3780.31 1513.67 3779.41 1513.44 3778.25 1513.44 3775.52 1513.44 3773.07 1514.53 3770.89 1516.7 3768.72 1518.88 3766.94 1521.96 3765.56 1525.94 3764.19 1529.93 3763.5 1533.76 3763.5 1537.43 3763.5 1540.19 3764.04 1542.23 3765.12 1543.57 3766.2 1544.91 3767.82 1545.58 3769.98 1545.58 3772.44 1545.58 3774.57 1545.11 3776.36 1544.18 3778.16 1543.25 3780.06 1541.78 3782.06 1539.78L3784.53 1542.25C3781.99 1545.06 3779.43 1547.12 3776.85 1548.41 3774.27 1549.71 3771.49 1550.36 3768.52 1550.36 3764.6 1550.36 3761.63 1549.2 3759.61 1546.87 3757.58 1544.55 3756.57 1541.17 3756.57 1536.74 3756.57 1533.85 3757.11 1530.68 3758.19 1527.22 3759.27 1523.76 3760.85 1520.72 3762.93 1518.1 3765.01 1515.48 3767.44 1513.52 3770.22 1512.22 3773.01 1510.93 3775.98 1510.28 3779.14 1510.28Z" fill-rule="evenodd"/><text fill="#000000" fill-opacity="0" font-family="Arial,Arial_MSFontService,sans-serif" font-size="40.0815" x="3756.57" y="1545.35">𝑐</text><path d="M3804.19 1525.86 3806.34 1525.86 3801.09 1549.03 3801.93 1549.03C3802.68 1549.03 3803.5 1548.87 3804.37 1548.55 3805.24 1548.24 3806.11 1547.82 3806.98 1547.32 3807.84 1546.81 3808.67 1546.24 3809.46 1545.61 3810.26 1544.97 3810.96 1544.33 3811.56 1543.68 3812.17 1543.04 3812.65 1542.43 3813.01 1541.85 3813.36 1541.28 3813.54 1540.79 3813.54 1540.39 3813.54 1539.92 3813.38 1539.53 3813.07 1539.23 3812.75 1538.93 3812.17 1538.73 3811.34 1538.64L3811.7 1536.73 3822.42 1536.73 3823.16 1538.58C3821.91 1539.65 3820.71 1540.64 3819.56 1541.55 3818.41 1542.47 3817.28 1543.35 3816.18 1544.19 3815.08 1545.03 3813.98 1545.86 3812.87 1546.68 3811.77 1547.49 3810.64 1548.34 3809.49 1549.21 3809.97 1550.72 3810.46 1552.25 3810.95 1553.81 3811.45 1555.37 3811.95 1556.91 3812.44 1558.44 3812.68 1559.26 3812.9 1559.96 3813.11 1560.54 3813.32 1561.13 3813.54 1561.6 3813.78 1561.97 3814.02 1562.34 3814.28 1562.61 3814.56 1562.79 3814.83 1562.97 3815.17 1563.06 3815.57 1563.06 3815.85 1563.06 3816.14 1563.01 3816.43 1562.91 3816.73 1562.81 3817.06 1562.63 3817.43 1562.37 3817.8 1562.12 3818.22 1561.76 3818.68 1561.32 3819.15 1560.87 3819.68 1560.31 3820.28 1559.63L3822.3 1561.57C3821.37 1562.52 3820.5 1563.35 3819.69 1564.04 3818.89 1564.74 3818.13 1565.31 3817.4 1565.75 3816.68 1566.2 3815.98 1566.53 3815.3 1566.74 3814.63 1566.95 3813.94 1567.05 3813.25 1567.05 3811.99 1567.05 3810.99 1566.74 3810.22 1566.11 3809.46 1565.49 3808.81 1564.59 3808.27 1563.43 3807.74 1562.27 3807.24 1560.86 3806.8 1559.22 3806.35 1557.57 3805.83 1555.73 3805.23 1553.71 3805.09 1553.23 3804.96 1552.85 3804.83 1552.56 3804.7 1552.27 3804.54 1552.05 3804.34 1551.9 3804.14 1551.76 3803.89 1551.66 3803.6 1551.62 3803.3 1551.58 3802.92 1551.56 3802.46 1551.56L3800.56 1551.56 3797.28 1566.51 3791.56 1566.51 3798.77 1534.53C3799.01 1533.47 3799.18 1532.64 3799.28 1532.04 3799.38 1531.43 3799.43 1530.89 3799.43 1530.41 3799.43 1530.04 3799.36 1529.71 3799.23 1529.43 3799.1 1529.15 3798.89 1528.93 3798.59 1528.76 3798.29 1528.59 3797.9 1528.47 3797.4 1528.39 3796.9 1528.31 3796.29 1528.26 3795.55 1528.24L3796 1526.21Z" fill-rule="evenodd"/><text fill="#000000" fill-opacity="0" font-family="Arial,Arial_MSFontService,sans-serif" font-size="41.1929" x="3791.56" y="1561.9">𝑘</text><path d="M2935.99 1685.86 2937.04 1685.86C2943.39 1685.97 2948.14 1687.42 2951.29 1690.22 2954.44 1693.01 2956.01 1697.22 2956.01 1702.84 2956.01 1705.08 2955.69 1707.64 2955.06 1710.5 2954.42 1713.36 2954.11 1715.28 2954.11 1716.26 2954.11 1718.12 2954.75 1719.64 2956.03 1720.82 2957.32 1721.99 2959.25 1722.62 2961.85 1722.7L2961.85 1726.02C2959.25 1726.1 2957.32 1726.73 2956.03 1727.91 2954.75 1729.08 2954.11 1730.6 2954.11 1732.47 2954.11 1733.44 2954.42 1735.36 2955.06 1738.22 2955.69 1741.09 2956.01 1743.64 2956.01 1745.88 2956.01 1751.69 2954.44 1755.99 2951.29 1758.79 2948.14 1761.59 2943.39 1763.04 2937.04 1763.15L2935.99 1763.15 2935.99 1760.07 2936.6 1760.07C2940.52 1760.07 2943.58 1759.05 2945.8 1757.01 2948.01 1754.97 2949.12 1751.5 2949.12 1746.61 2949.12 1744.72 2948.85 1742.38 2948.31 1739.6 2947.77 1736.82 2947.5 1734.83 2947.5 1733.64 2947.5 1731.35 2948.18 1729.46 2949.53 1727.99 2950.88 1726.52 2952.49 1725.43 2954.35 1724.73L2954.35 1724C2952.49 1723.29 2950.88 1722.21 2949.53 1720.73 2948.18 1719.26 2947.5 1717.38 2947.5 1715.08 2947.5 1713.89 2947.77 1711.91 2948.31 1709.12 2948.85 1706.34 2949.12 1704 2949.12 1702.11 2949.12 1697.41 2948.01 1694.04 2945.8 1692 2943.58 1689.96 2940.52 1688.94 2936.6 1688.94L2935.99 1688.94ZM2846.35 1685.86 2847.4 1685.86 2847.4 1688.94 2846.79 1688.94C2842.87 1688.94 2839.81 1689.96 2837.59 1692 2835.38 1694.04 2834.27 1697.4 2834.27 1702.07 2834.27 1703.96 2834.54 1706.3 2835.08 1709.08 2835.62 1711.87 2835.89 1713.85 2835.89 1715.04 2835.89 1717.34 2835.21 1719.22 2833.86 1720.69 2832.51 1722.17 2830.91 1723.25 2829.04 1723.96L2829.04 1724.69C2830.91 1725.39 2832.51 1726.48 2833.86 1727.95 2835.21 1729.42 2835.89 1731.3 2835.89 1733.6 2835.89 1734.79 2835.62 1736.78 2835.08 1739.56 2834.54 1742.34 2834.27 1744.68 2834.27 1746.57 2834.27 1751.49 2835.38 1754.97 2837.59 1757.01 2839.81 1759.05 2842.87 1760.07 2846.79 1760.07L2847.4 1760.07 2847.4 1763.15 2846.35 1763.15C2840 1763.04 2835.25 1761.59 2832.1 1758.79 2828.95 1755.99 2827.38 1751.68 2827.38 1745.84 2827.38 1743.6 2827.7 1741.05 2828.33 1738.18 2828.97 1735.32 2829.28 1733.4 2829.28 1732.43 2829.28 1730.56 2828.64 1729.04 2827.36 1727.87 2826.08 1726.69 2824.14 1726.06 2821.54 1725.98L2821.54 1722.66C2824.14 1722.58 2826.08 1721.95 2827.36 1720.77 2828.64 1719.6 2829.28 1718.08 2829.28 1716.22 2829.28 1715.24 2828.97 1713.32 2828.33 1710.46 2827.7 1707.6 2827.38 1705.04 2827.38 1702.8 2827.38 1697.21 2828.95 1693.01 2832.1 1690.22 2835.25 1687.42 2840 1685.97 2846.35 1685.86Z" fill-rule="evenodd"/><path d="M2877.89 1713.53C2876.59 1713.53 2875.31 1713.94 2874.06 1714.77 2872.8 1715.59 2871.4 1716.96 2869.86 1718.86 2868.32 1720.77 2867.07 1722.72 2866.09 1724.72 2865.12 1726.72 2864.3 1729.27 2863.62 1732.38L2863.26 1734.08C2862.85 1735.97 2862.65 1737.81 2862.65 1739.59 2862.65 1741.72 2863.11 1743.26 2864.05 1744.21 2864.98 1745.16 2866.53 1745.63 2868.69 1745.63 2869.79 1745.63 2870.85 1745.45 2871.85 1745.08 2872.85 1744.72 2873.87 1744.12 2874.91 1743.28 2875.95 1742.44 2876.93 1741.34 2877.87 1739.98 2878.8 1738.61 2879.66 1736.93 2880.44 1734.93 2881.22 1732.93 2881.83 1730.79 2882.26 1728.51 2882.7 1726.22 2882.91 1724.04 2882.91 1721.96 2882.91 1719.15 2882.51 1717.04 2881.72 1715.64 2880.92 1714.23 2879.64 1713.53 2877.89 1713.53ZM2870.79 1690.23 2873.14 1690.23 2866.01 1718.6 2866.54 1718.76C2869.16 1715.25 2871.62 1712.71 2873.91 1711.14 2876.21 1709.57 2878.51 1708.79 2880.8 1708.79 2883.75 1708.79 2886.04 1709.91 2887.67 1712.15 2889.31 1714.4 2890.13 1717.56 2890.13 1721.64 2890.13 1726.09 2889.23 1730.48 2887.43 1734.79 2885.63 1739.1 2883.14 1742.52 2879.95 1745.04 2876.77 1747.57 2873.2 1748.83 2869.25 1748.83 2865.66 1748.83 2862.47 1747.95 2859.69 1746.2L2855.96 1748.83 2853.37 1748.18 2863.86 1701.86C2864.49 1699.1 2864.8 1697.1 2864.8 1695.86 2864.8 1694.73 2864.45 1693.93 2863.76 1693.47 2863.07 1693.01 2861.84 1692.75 2860.05 1692.7L2860.54 1690.59Z" fill-rule="evenodd"/><text fill="#000000" fill-opacity="0" font-family="Arial,Arial_MSFontService,sans-serif" font-size="58.6025" x="2853.37" y="1741.51">𝑏</text><path d="M2907.8 1724.37 2909.94 1724.37 2904.7 1747.54 2905.53 1747.54C2906.29 1747.54 2907.1 1747.38 2907.98 1747.07 2908.85 1746.75 2909.72 1746.34 2910.58 1745.83 2911.45 1745.32 2912.28 1744.75 2913.07 1744.12 2913.86 1743.48 2914.56 1742.84 2915.17 1742.2 2915.78 1741.55 2916.26 1740.94 2916.61 1740.36 2916.97 1739.79 2917.15 1739.3 2917.15 1738.9 2917.15 1738.43 2916.99 1738.04 2916.67 1737.74 2916.36 1737.44 2915.78 1737.25 2914.95 1737.15L2915.3 1735.24 2926.03 1735.24 2926.77 1737.09C2925.52 1738.16 2924.32 1739.15 2923.17 1740.07 2922.02 1740.98 2920.89 1741.86 2919.79 1742.7 2918.68 1743.55 2917.58 1744.38 2916.48 1745.19 2915.38 1746 2914.25 1746.85 2913.1 1747.72 2913.58 1749.23 2914.06 1750.76 2914.56 1752.32 2915.06 1753.88 2915.55 1755.43 2916.05 1756.95 2916.29 1757.77 2916.51 1758.47 2916.72 1759.05 2916.93 1759.64 2917.15 1760.12 2917.39 1760.48 2917.63 1760.85 2917.89 1761.12 2918.16 1761.3 2918.44 1761.48 2918.78 1761.57 2919.18 1761.57 2919.45 1761.57 2919.74 1761.52 2920.04 1761.42 2920.34 1761.32 2920.67 1761.14 2921.04 1760.89 2921.4 1760.63 2921.82 1760.28 2922.29 1759.83 2922.75 1759.38 2923.29 1758.82 2923.88 1758.15L2925.91 1760.08C2924.97 1761.03 2924.11 1761.86 2923.3 1762.55 2922.5 1763.25 2921.73 1763.82 2921.01 1764.27 2920.28 1764.71 2919.58 1765.04 2918.91 1765.25 2918.23 1765.46 2917.55 1765.56 2916.85 1765.56 2915.6 1765.56 2914.59 1765.25 2913.83 1764.62 2913.06 1764 2912.41 1763.1 2911.88 1761.94 2911.34 1760.78 2910.85 1759.38 2910.4 1757.73 2909.96 1756.08 2909.44 1754.24 2908.84 1752.22 2908.7 1751.74 2908.57 1751.36 2908.44 1751.07 2908.31 1750.78 2908.15 1750.57 2907.95 1750.42 2907.75 1750.27 2907.5 1750.17 2907.2 1750.13 2906.9 1750.09 2906.53 1750.07 2906.07 1750.07L2904.16 1750.07 2900.89 1765.03 2895.17 1765.03 2902.38 1733.04C2902.62 1731.98 2902.78 1731.16 2902.88 1730.55 2902.98 1729.94 2903.03 1729.4 2903.03 1728.93 2903.03 1728.55 2902.97 1728.22 2902.84 1727.94 2902.71 1727.67 2902.5 1727.44 2902.2 1727.27 2901.9 1727.1 2901.5 1726.98 2901.01 1726.9 2900.51 1726.82 2899.89 1726.77 2899.16 1726.75L2899.61 1724.73Z" fill-rule="evenodd"/><text fill="#000000" fill-opacity="0" font-family="Arial,Arial_MSFontService,sans-serif" font-size="41.1929" x="2895.17" y="1760.41">𝑘</text></g></svg>