<svg xmlns="http://www.w3.org/2000/svg" width="3416" height="790" overflow="hidden"><defs><clipPath id="a"><path d="M167-333h3416v790H167z"/></clipPath></defs><g clip-path="url(#a)" transform="translate(-167 333)"><path fill="#f8ccb9" d="M167-259h238V49H167z"/><path fill="#d74514" fill-rule="evenodd" d="M258.584-130.762h18.886l3.161 33.84 19.21-33.84h18.845l-.568 2.674q-2.31.649-3.404 2.27t-2.067 5.998l-7.376 33.435a26 26 0 0 0-.405 2.25q-.122.951-.122 2.492 0 1.702.791 2.492.79.79 2.573 1.034l-.567 2.674h-20.385l.567-2.674q2.31-.65 3.404-2.27 1.095-1.62 2.067-5.998l3.729-17.021a256 256 0 0 1 4.377-16.981h-.811a325 325 0 0 1-4.093 7.254l-18.238 31.57h-6.565l-2.675-24.356q-.931-8.673-1.216-14.874h-.648q-1.621 10.011-3.08 16.617l-3.931 17.791a26 26 0 0 0-.405 2.25q-.123.951-.122 2.492 0 1.702.79 2.492t2.574 1.034l-.568 2.674h-14.873l.567-2.674q2.31-.65 3.404-2.27 1.095-1.62 2.067-5.998l7.376-33.435q.527-2.391.527-4.742 0-1.701-.79-2.492t-2.574-1.034Z"/><text x="247.439" y="-82.358" fill-opacity="0" font-family="Arial,Arial_MSFontService,sans-serif" font-size="55.32">𝑴</text><path fill="#fdefe8" fill-rule="evenodd" d="M722 347.5c0-60.475 48.801-109.5 109-109.5s109 49.025 109 109.5S891.199 457 831 457s-109-49.025-109-109.5"/><path fill="#d74514" fill-rule="evenodd" d="M814.727 321.864h39.352l-2.877 13.05h-5.188q-.202-3.85-.729-5.39-.528-1.54-1.621-2.229-1.095-.69-3.081-.689h-10.172l-4.296 19.453h5.634q1.62 0 2.735-.527t2.067-1.763 1.885-3.424h4.458l-3.891 16.454h-4.174q0-2.351-.284-3.607-.283-1.257-1.054-1.824-.77-.567-2.634-.567h-5.755l-4.782 21.641h9.118q1.784 0 2.777-.243a6.1 6.1 0 0 0 1.823-.77q.831-.527 1.925-1.682t2.169-2.918q1.074-1.763 2.208-4.235h5.512l-3.728 14.59h-38.542l.567-2.675q2.31-.649 3.405-2.269t2.067-5.998l7.376-33.435q.526-2.392.526-4.742 0-1.703-.79-2.493t-2.573-1.033Z"/><text x="803.582" y="370.269" fill-opacity="0" font-family="Arial,Arial_MSFontService,sans-serif" font-size="55.32">𝑬</text><path fill="#fdefe8" fill-rule="evenodd" d="M916-105c0-60.199 48.801-109 109-109 60.2 0 109 48.801 109 109 0 60.2-48.8 109-109 109-60.199 0-109-48.8-109-109"/><path fill="#d74514" fill-rule="evenodd" d="M1025.49-130.762h6.32v63.425h-6.32Zm-14.18 0h6.32v63.425h-6.32Z"/><text x="1011.31" y="-75.265" fill-opacity="0" font-family="Arial,Arial_MSFontService,sans-serif" font-size="63.425">∥</text><path fill="#f8ccb9" d="M2420-333h238v308h-238z"/><path fill="#d74514" fill-rule="evenodd" d="M2511.83-204.714h18.89l3.16 33.84 19.21-33.84h18.84l-.56 2.675c-1.54.432-2.68 1.188-3.41 2.269s-1.42 3.08-2.06 5.998l-7.38 33.435c-.19.865-.32 1.614-.41 2.249q-.12.952-.12 2.493c0 1.135.27 1.965.79 2.492q.795.79 2.58 1.034l-.57 2.675h-20.39l.57-2.675c1.54-.433 2.68-1.189 3.41-2.27.72-1.081 1.41-3.08 2.06-5.998l3.73-17.021q1.86-8.43 4.38-16.981h-.81a322 322 0 0 1-4.1 7.254l-18.23 31.571h-6.57l-2.67-24.357c-.63-5.782-1.03-10.74-1.22-14.874h-.65c-1.08 6.674-2.11 12.213-3.08 16.617l-3.93 17.791c-.19.865-.32 1.614-.4 2.249-.09.635-.13 1.466-.13 2.493 0 1.135.27 1.965.79 2.492q.795.79 2.58 1.034l-.57 2.675h-14.87l.56-2.675c1.54-.433 2.68-1.189 3.41-2.27q1.095-1.621 2.07-5.998l7.37-33.435c.35-1.594.53-3.175.53-4.742 0-1.134-.27-1.965-.79-2.492q-.795-.79-2.58-1.033Z"/><text x="2500.69" y="-156.309" fill-opacity="0" font-family="Arial,Arial_MSFontService,sans-serif" font-size="55.32">𝑴</text><path fill="#fdefe8" d="M2420-22h238v146h-238z"/><path fill="#fdefe8" fill-rule="evenodd" d="M2971-105c0-60.199 49.02-109 109.5-109S3190-165.199 3190-105c0 60.2-49.02 109-109.5 109S2971-44.8 2971-105"/><path fill="#d74514" fill-rule="evenodd" d="M3078.56-126.021q-2.025 0-3.12.081l-10.01 45.553q1.86.162 3 .162c3.48 0 6.49-.689 9.02-2.067q3.78-2.066 6.72-6.302t4.62-10.334a45.6 45.6 0 0 0 1.69-12.26c0-2.783-.32-5.12-.94-7.011s-1.48-3.418-2.57-4.58q-1.635-1.742-3.81-2.492c-1.45-.5-2.98-.75-4.6-.75m-18.76-4.741h16.41c4.46 0 8.02.243 10.7.729 2.43.432 4.65 1.175 6.67 2.229 2.01 1.054 3.6 2.216 4.76 3.485 1.48 1.568 2.65 3.533 3.5 5.897s1.28 5.14 1.28 8.329c0 3.593-.41 7.038-1.22 10.334s-2 6.343-3.58 9.139-3.47 5.201-5.68 7.214c-2.2 2.013-4.41 3.58-6.62 4.701q-3.33 1.681-7.5 2.472c-2.78.527-6.08.79-9.89.79h-19.98l.57-2.674c1.54-.433 2.67-1.19 3.4-2.27q1.095-1.62 2.07-5.998l7.38-33.435c.35-1.594.52-3.175.52-4.742 0-1.134-.26-1.965-.79-2.492-.52-.527-1.38-.871-2.57-1.034Z"/><text x="3048.65" y="-82.358" fill-opacity="0" font-family="Arial,Arial_MSFontService,sans-serif" font-size="55.32">𝑫</text><path fill-rule="evenodd" d="M3390.31 167.011c-1.37 0-2.73.466-4.07 1.398s-2.8 2.425-4.4 4.478c-1.59 2.054-2.83 4.08-3.73 6.079q-1.335 3-2.1 6.89l-.33 1.702c-.27 1.432-.44 2.526-.5 3.283-.07.757-.1 1.499-.1 2.229q0 3.161 1.35 4.6 1.365 1.439 4.68 1.439 2.07 0 3.81-.811c1.17-.54 2.27-1.324 3.31-2.351s1.98-2.269 2.81-3.728q1.26-2.188 2.25-5.086a37.4 37.4 0 0 0 1.5-5.958q.51-3.06.51-5.734 0-4.255-1.2-6.343c-.79-1.391-2.06-2.087-3.79-2.087m-118.17-1.5c-2.81 0-5.26 1.176-7.36 3.526-2.09 2.351-3.74 5.715-4.94 10.092q-1.8 6.566-1.8 11.307c0 2.972.61 5.167 1.84 6.585s3.09 2.128 5.57 2.128q3.975 0 7.05-3.566c2.06-2.378 3.68-5.708 4.87-9.99 1.19-4.283 1.78-8.045 1.78-11.287 0-2.918-.57-5.113-1.7-6.586q-1.71-2.208-5.31-2.209m244.4-.081c-2.72 0-5.35 1.378-7.88 4.134-2.52 2.756-4.46 6.485-5.81 11.186 3.81-.027 7.07-.372 9.8-1.034s4.83-1.715 6.29-3.161c1.45-1.445 2.18-3.397 2.18-5.856 0-1.648-.38-2.938-1.15-3.87-.77-.933-1.91-1.399-3.43-1.399m-84.08 0c-2.78 0-5.28 1.122-7.49 3.364q-3.33 3.364-5.19 9.017c-1.24 3.769-1.87 7.532-1.87 11.287 0 2.81.39 4.911 1.16 6.302q1.155 2.088 3.87 2.087 2.67 0 5.25-2.31 2.565-2.31 5.31-6.585 2.73-4.276 3.87-9.869l.36-1.742c.25-1.108.41-2.067.49-2.878q.12-1.215.12-2.634c0-2.08-.45-3.607-1.34-4.58s-2.4-1.459-4.54-1.459m-159.51-3.161c4.32 0 7.62 1.182 9.89 3.546s3.4 5.748 3.4 10.152c0 3.135-.54 6.485-1.64 10.051q-1.635 5.35-4.5 8.997c-1.9 2.432-4.18 4.262-6.83 5.492-2.64 1.229-5.68 1.844-9.11 1.844q-6.285 0-9.75-3.526c-2.31-2.351-3.47-5.728-3.47-10.132 0-2.161.33-4.661.98-7.498.83-3.836 2.24-7.186 4.21-10.05s4.4-5.059 7.3-6.586c2.89-1.527 6.06-2.29 9.52-2.29m245.05-.04c3.27 0 5.72.662 7.36 1.986 1.63 1.323 2.45 3.39 2.45 6.2 0 4.593-2.15 8.038-6.46 10.335-4.31 2.296-10.71 3.445-19.19 3.445-.33 1.621-.49 3.377-.49 5.268 0 2.837.55 4.897 1.66 6.18q1.665 1.926 5.43 1.926 3.735 0 6.75-1.622c2.01-1.08 4.14-2.742 6.38-4.984l2.52 2.634c-2.62 2.891-5.28 5.066-7.97 6.525s-5.81 2.188-9.38 2.188c-3.92 0-6.95-1.195-9.1-3.586s-3.22-5.722-3.22-9.99q0-4.337 1.56-9.301c1.04-3.31 2.62-6.282 4.72-8.916 2.11-2.635 4.64-4.675 7.58-6.12 2.95-1.446 6.08-2.168 9.4-2.168m-53.79 0c1.7 0 3.05.56 4.03 1.682.99 1.121 1.48 2.587 1.48 4.397 0 1.351-.25 2.742-.77 4.174l.53.203c2.65-3.594 5.19-6.228 7.64-7.903q3.66-2.513 7.44-2.513c1.97 0 3.62.149 4.94.446l-1.95 9.078h-4.17q-.24-1.702-.69-2.634-.45-.933-1.05-1.297c-.41-.243-.92-.365-1.54-.365q-1.47 0-3.18 1.257-1.725 1.256-3.87 3.931c-1.44 1.783-2.58 3.499-3.43 5.147q-1.275 2.472-2.13 6.281l-3.85 17.549h-7.01l5.88-25.695c.38-1.621.62-2.877.73-3.769.11-.891.16-1.634.16-2.229 0-1.08-.18-1.864-.53-2.35-.35-.487-.9-.73-1.66-.73-.84 0-1.72.345-2.65 1.034s-2.21 1.938-3.83 3.749l-2.31-2.27q3.72-3.891 6.24-5.532 2.505-1.641 5.55-1.641m-32.56 0c1.76 0 3.4.196 4.93.587 1.52.392 3.1 1.088 4.72 2.087l3.73-2.674 2.59.648-5.96 25.694c-.59 2.567-.89 4.567-.89 5.999 0 1.08.18 1.864.53 2.35s.9.73 1.66.73c.81 0 1.68-.331 2.59-.993.92-.662 2.22-1.925 3.89-3.79l2.31 2.27c-2.43 2.594-4.5 4.438-6.22 5.532-1.71 1.094-3.57 1.641-5.57 1.641-1.67 0-3.01-.554-4.01-1.661q-1.5-1.662-1.5-4.418 0-2.228.93-4.742l-.53-.162c-2.59 3.783-5.05 6.552-7.37 8.308q-3.48 2.635-7.38 2.635c-2.97 0-5.27-1.122-6.91-3.364-1.63-2.243-2.45-5.39-2.45-9.443 0-4.647.91-9.112 2.74-13.394 1.82-4.283 4.33-7.66 7.51-10.132 3.19-2.472 6.75-3.708 10.66-3.708m-58.4 0q2.52 0 3.99 1.661c.99 1.108 1.48 2.581 1.48 4.418q0 2.27-.93 4.782l.49.162q7.5-10.983 14.91-10.983 4.425 0 6.87 3.364c1.63 2.242 2.45 5.404 2.45 9.483 0 4.458-.9 8.842-2.69 13.152-1.8 4.309-4.29 7.727-7.48 10.253s-6.75 3.789-10.7 3.789c-3.59 0-6.58-.783-8.96-2.35l-1.86 8.875c-.41 1.918-.61 3.499-.61 4.742 0 1.189.31 2.033.91 2.533.61.5 1.79.831 3.55.993l-.32 1.986h-12.53l9.77-43c.57-2.486.85-4.526.85-6.12 0-1.08-.17-1.864-.53-2.35-.35-.487-.9-.73-1.66-.73-.84 0-1.72.345-2.65 1.034s-2.21 1.938-3.83 3.749l-2.31-2.27q3.645-3.81 6.18-5.491 2.535-1.683 5.61-1.682m-70 0c1.7 0 3.05.56 4.03 1.682.99 1.121 1.48 2.587 1.48 4.397q0 2.229-.93 4.741l.49.163c2.48-3.702 4.96-6.451 7.41-8.248 2.46-1.796 4.95-2.695 7.46-2.695 2.59 0 4.57.736 5.92 2.209 1.35 1.472 2.02 3.6 2.02 6.383v.567c0 .19-.01.392-.04.608 2.33-3.296 4.64-5.748 6.95-7.355q3.465-2.412 7.2-2.412c2.48 0 4.4.716 5.75 2.148s2.03 3.445 2.03 6.039c0 1.702-.39 4.12-1.18 7.254l-2.63 10.618c-.73 2.945-1.09 5.026-1.09 6.242 0 1.08.17 1.864.52 2.35s.91.73 1.66.73c.81 0 1.68-.331 2.6-.993s2.21-1.925 3.89-3.79l2.31 2.27c-2.33 2.459-4.35 4.269-6.08 5.431s-3.7 1.742-5.92 1.742c-1.75 0-3.16-.628-4.21-1.884-1.06-1.257-1.58-2.857-1.58-4.803 0-1.756.44-4.336 1.33-7.741l1.79-7.011c.65-2.539 1.07-4.417 1.27-5.633.21-1.216.31-2.202.31-2.959q0-2.796-.93-4.032c-.63-.824-1.64-1.236-3.04-1.236-1.14 0-2.35.425-3.65 1.277s-2.66 2.174-4.09 3.971q-2.16 2.696-3.51 5.309c-.91 1.743-1.63 3.871-2.17 6.383l-3.69 17.711h-7.01l4.66-20.588c.57-2.513.96-4.37 1.16-5.573q.3-1.803.3-3.1c0-1.945-.34-3.33-1.03-4.154s-1.76-1.236-3.22-1.236q-1.545 0-3.51 1.277c-1.31.851-2.71 2.215-4.19 4.093-1.49 1.878-2.65 3.681-3.49 5.41s-1.54 3.837-2.11 6.322l-3.85 17.549h-7.01l5.92-25.695c.59-2.593.89-4.593.89-5.998 0-1.08-.17-1.864-.53-2.35-.35-.487-.9-.73-1.66-.73-.84 0-1.72.345-2.65 1.034s-2.21 1.938-3.83 3.749l-2.31-2.27c2.38-2.486 4.42-4.303 6.14-5.451a9.94 9.94 0 0 1 5.65-1.722m-71.28-16.535c2.46 0 4.74.148 6.83.445q3.15.447 6.99 1.621l-2.43 10.983h-3.89c-.21-3.323-.94-5.721-2.17-7.193-1.23-1.473-3.21-2.209-5.93-2.209-3.73 0-7.2 1.864-10.4 5.593s-5.73 8.652-7.6 14.772q-2.79 9.18-2.79 17.042c0 4.106.73 7.133 2.18 9.078 1.46 1.945 3.71 2.918 6.73 2.918q3.045 0 5.31-.912t4.26-3.08q1.98-2.168 3.93-6.059h3.89l-2.47 11.51c-5.06 1.405-10.35 2.107-15.89 2.107-5.08 0-8.94-1.459-11.59-4.377s-3.97-7.187-3.97-12.806c0-3.972.71-8.552 2.12-13.739 1.42-5.188 3.43-9.74 6.02-13.658 2.6-3.917 5.66-6.903 9.2-8.956q5.31-3.08 11.67-3.08"/><text x="3202.96" y="209.914" fill-opacity="0" font-family="Arial,Arial_MSFontService,sans-serif" font-size="73.395">𝐶𝑜𝑚𝑝𝑎𝑟𝑒</text><path d="M405.5-109.083h469.737v9.167H405.5Zm465.154-18.333 45.833 22.916-45.833 22.917Z"/><path fill-rule="evenodd" d="M825.028-14.647h16.211l-.445 1.986q-1.54.325-2.209.73-.67.405-1.196 1.215-.527.81-1.094 2.533t-1.418 5.613l-2.878 12.929h1.338q1.702 0 3.1-.568 1.398-.567 3.262-2.067t5.938-5.511q4.073-4.012 5.795-6.1 1.722-2.086 2.513-3.607.79-1.52.79-2.776 0-1.012-.811-1.641-.81-.629-2.31-.75l.446-1.986h17.386l-.445 1.986q-1.622.243-3.668 1.682t-6.262 5.613l-15.724 15.32 8.632 20.75q1.338 3.201 2.209 4.62.871 1.418 2.087 2.249 1.216.83 2.999 1.114l-.446 1.986h-15.643l.445-1.986q2.189-.202 2.189-1.945 0-1.094-.446-2.492a40 40 0 0 0-1.054-2.898l-5.268-12.888q-.933-2.31-1.621-3.242-.69-.932-1.459-1.297-.771-.365-2.391-.365h-2.27l-3.364 15.32q-.526 2.43-.689 3.83a22 22 0 0 0-.162 2.492q0 1.824.912 2.573.912.75 3.06.912l-.446 1.986H814.41l.446-1.986q1.54-.243 2.31-.79t1.297-1.52.973-2.37 1.337-5.411l6.89-31.206q.891-4.053.891-6.525 0-1.905-.952-2.655t-3.019-.87Zm-28.153-.648q3.728 0 6.91.506 3.18.507 7.031 1.723l-2.269 10.415h-3.891q-.162-3.444-1.054-5.41-.891-1.966-2.553-2.817-1.661-.85-4.418-.85-3.363 0-5.917 1.377t-3.89 3.749q-1.338 2.37-1.338 5.289 0 3.04 1.601 5.33t6.14 5.41q3.972 2.755 6.059 4.924 2.087 2.167 3.08 4.6.993 2.43.993 5.633 0 4.944-2.371 8.774t-6.687 5.917-9.828 2.087q-3.728 0-8.044-.608-4.317-.607-7.721-1.54l2.432-11.145h3.89q0 4.944 2.29 7.356 2.29 2.41 7.072 2.411 5.513 0 8.673-2.999t3.161-8.349q0-2.472-.871-4.356-.871-1.885-2.634-3.607-1.764-1.722-5.087-3.951-2.999-2.027-4.984-3.992a15.9 15.9 0 0 1-3.162-4.398q-1.175-2.43-1.175-5.43 0-4.782 2.31-8.43t6.525-5.633 9.727-1.986"/><text x="768.708" y="34.28" fill-opacity="0" font-family="Arial,Arial_MSFontService,sans-serif" font-size="56.657">𝑆𝐾</text><path fill-rule="evenodd" d="M884.956 24.902q-2.592 4.23-5.138 8.474-2.547 4.245-5.138 8.504h11.467q-.148-1.907-.298-3.738a106 106 0 0 1-.238-3.858q-.09-2.026-.164-4.318a159 159 0 0 1-.074-5.064Zm-.119-6.523h4.914l2.711 31.483q.118 1.52.372 2.562.253 1.042.7 1.727t1.117 1.043 1.683.506l-.447 1.817h-12.986l.446-1.817a10 10 0 0 0 1.475-.372 2.3 2.3 0 0 0 1.057-.745q.417-.522.64-1.415.224-.894.224-2.323 0-.536-.03-1.236t-.074-1.474-.12-1.594q-.074-.819-.134-1.593h-13.343a69 69 0 0 0-1.356 2.084 38 38 0 0 0-1.221 2.1q-.55 1.028-.878 2.04a6.4 6.4 0 0 0-.328 1.996q0 2.175 3.187 2.532l-.387 1.817h-13.016l.327-1.817a5.6 5.6 0 0 0 1.445-.462q.64-.312 1.34-.983.7-.67 1.519-1.817a57 57 0 0 0 1.981-3.023Z"/><text x="859.043" y="52.625" fill-opacity="0" font-family="Arial,Arial_MSFontService,sans-serif" font-size="39.138">𝐴</text><path d="m836.083 77.5.001 119.738-9.167.001V77.499Zm18.334 115.155L831.5 238.489l-22.916-45.834ZM281.917 49.5v303.025h63.346v-9.167H286.5l4.583 4.583V49.5Zm58.762 321.358 45.834-22.917-45.834-22.916Zm599.821-18.39h88.754V45.75h-9.167v302.135l4.583-4.583H940.5Zm107.087-302.135L1024.67 4.5l-22.917 45.833Zm86.933-150.641 92.01-.42-.041-9.167-92.01.42Zm87.511 17.934 45.728-23.126-45.937-22.707Z"/><path fill-rule="evenodd" d="M3047.09 149.908c-1.68 0-3.43.041-5.27.122l-5.51 24.56h4.21c3.27 0 5.91-.338 7.93-1.014 2.01-.675 3.66-1.722 4.94-3.141 1.28-1.418 2.28-3.1 2.98-5.045q1.05-2.918 1.05-6.404c0-3.134-.79-5.43-2.39-6.889-1.59-1.459-4.24-2.189-7.94-2.189m34.02-3.566h16.21l-.45 1.986c-1.02.216-1.76.459-2.21.729-.44.27-.84.676-1.19 1.216s-.72 1.385-1.1 2.533c-.37 1.148-.85 3.019-1.41 5.613l-2.88 12.928h1.34c1.13 0 2.16-.189 3.1-.567.93-.378 2.02-1.067 3.26-2.067q1.86-1.5 5.94-5.512 4.065-4.012 5.79-6.099c1.15-1.391 1.99-2.594 2.51-3.607.53-1.013.79-1.939.79-2.776q0-1.014-.81-1.641-.81-.629-2.31-.75l.45-1.986h17.39l-.45 1.986c-1.08.162-2.3.723-3.67 1.682-1.36.959-3.45 2.83-6.26 5.613l-15.72 15.319 8.63 20.75c.89 2.135 1.63 3.675 2.21 4.62s1.27 1.696 2.08 2.249q1.23.831 3 1.115l-.44 1.986h-15.65l.45-1.986q2.19-.203 2.19-1.945 0-1.095-.45-2.493c-.29-.932-.65-1.898-1.05-2.898l-5.27-12.887q-.93-2.31-1.62-3.242c-.46-.622-.95-1.054-1.46-1.297s-1.31-.365-2.39-.365h-2.27l-3.36 15.319c-.36 1.621-.58 2.898-.69 3.83s-.16 1.763-.16 2.493c0 1.215.3 2.073.91 2.573q.9.75 3.06.912l-.45 1.986h-16.21l.45-1.986q1.53-.243 2.31-.79.765-.548 1.29-1.52c.35-.649.68-1.439.98-2.371.29-.932.74-2.736 1.33-5.41l6.89-31.206c.6-2.702.89-4.877.89-6.525 0-1.27-.31-2.155-.95-2.655-.63-.5-1.64-.79-3.02-.871Zm-51 0h17.87q4.83 0 7.92.75c2.07.5 3.77 1.27 5.11 2.31a9.5 9.5 0 0 1 3 3.951q.99 2.391.99 5.552 0 6.08-2.88 10.538-2.865 4.458-7.8 6.565c-3.28 1.405-7.22 2.107-11.81 2.107-2.76 0-5.05-.054-6.89-.162l-2.59 11.915q-.375 1.662-.51 2.554c-.09.594-.18 1.236-.24 1.925-.07.689-.1 1.303-.1 1.844 0 .837.13 1.492.4 1.965s.68.817 1.22 1.034q.81.324 2.79.486l-.44 1.986h-16.66l.45-1.986q1.53-.243 2.31-.79.765-.548 1.29-1.52c.35-.649.68-1.439.98-2.371.29-.932.74-2.736 1.33-5.41l6.89-31.206c.6-2.702.89-4.837.89-6.404q0-1.986-.93-2.756c-.62-.513-1.63-.81-3.04-.891Z"/><text x="3019.49" y="194.747" fill-opacity="0" font-family="Arial,Arial_MSFontService,sans-serif" font-size="55.32">𝑃𝐾</text><path fill-rule="evenodd" d="M3141.48 185.891c-1.72 2.819-3.44 5.644-5.13 8.474-1.7 2.829-3.41 5.664-5.14 8.503h11.46c-.09-1.27-.19-2.517-.29-3.738q-.15-1.832-.24-3.857c-.06-1.35-.12-2.79-.17-4.319-.04-1.529-.07-3.217-.07-5.063Zm-.12-6.523h4.92l2.71 31.483c.08 1.012.2 1.866.37 2.561s.4 1.271.7 1.728.67.804 1.12 1.042q.675.358 1.68.507l-.45 1.817h-12.98l.45-1.817q.825-.15 1.47-.373c.43-.149.78-.397 1.06-.744.27-.348.49-.819.64-1.415s.22-1.37.22-2.323q0-.537-.03-1.236c-.02-.467-.04-.959-.07-1.475q-.045-.774-.12-1.593c-.05-.546-.1-1.078-.14-1.594h-13.34c-.46.675-.91 1.37-1.36 2.085-.44.715-.85 1.415-1.22 2.1-.36.685-.66 1.365-.88 2.04a6.7 6.7 0 0 0-.32 1.996q0 2.174 3.18 2.532l-.38 1.817h-13.02l.33-1.817c.53-.1 1.02-.254 1.44-.462.43-.209.88-.536 1.34-.983.47-.447.98-1.052 1.52-1.817q.825-1.146 1.98-3.023Z"/><text x="3115.57" y="213.613" fill-opacity="0" font-family="Arial,Arial_MSFontService,sans-serif" font-size="39.138">𝐴</text><path d="M3085.083 105.355V45.75h-9.166v59.605Zm18.334-55.021L3080.5 4.5l-22.916 45.834Zm87.083-159.417h180.6V64.346h-9.17V-104.5l4.58 4.583H3190.5Zm198.93 168.846-22.92 45.833-22.91-45.833ZM2658.5 46.917h82.65V320.69l-4.58-4.583h36.81v9.167h-41.4V51.5l4.59 4.583h-78.07Zm110.3 250.857 45.83 22.916-45.83 22.917Z"/><path fill-rule="evenodd" d="M2310.5 179.241h37.29l-2.8 12.442h-3.89c-.11-2.35-.31-4.12-.61-5.309s-.65-2.006-1.07-2.452a3.07 3.07 0 0 0-1.5-.891q-.87-.223-2.49-.223h-13.22l-4.62 21.236h7.74c1.92 0 3.39-.453 4.4-1.358q1.515-1.358 3.06-4.478h3.69l-3.65 15.563h-3.44c0-2.162-.14-3.628-.41-4.398s-.67-1.256-1.19-1.459c-.53-.202-1.48-.304-2.86-.304h-8.11l-5.18 23.385h11.99c1.6 0 2.86-.162 3.79-.487q1.395-.486 2.64-1.58c.82-.73 1.64-1.75 2.47-3.06q1.23-1.965 2.94-5.329h3.93l-3.57 14.022h-35.95l.45-1.986q1.53-.243 2.31-.79c.51-.365.94-.871 1.3-1.52.35-.648.67-1.439.97-2.371s.74-2.735 1.34-5.41l6.89-31.206c.59-2.702.89-4.877.89-6.525q0-1.905-.96-2.655c-.63-.499-1.64-.79-3.02-.871Z"/><text x="2299.88" y="227.646" fill-opacity="0" font-family="Arial,Arial_MSFontService,sans-serif" font-size="55.32">𝐸</text><path fill-rule="evenodd" d="M2384.7 212.773h12.57l-.33 1.788c-.46.119-.85.218-1.16.297-.32.08-.6.199-.85.358a2.2 2.2 0 0 0-.64.64c-.18.268-.35.636-.52 1.102q-.255.7-.54 1.758c-.19.705-.4 1.573-.64 2.606l-1.94 8.757h.84c.46 0 .87-.03 1.25-.09.38-.059.75-.163 1.12-.312.36-.149.74-.353 1.13-.611q.585-.387 1.32-.983 3.105-2.412 5.19-4.319c1.39-1.271 2.51-2.393 3.38-3.366.86-.972 1.48-1.802 1.84-2.487.37-.685.55-1.255.55-1.712 0-.477-.18-.849-.56-1.117s-.99-.412-1.85-.432l.33-1.877h13.55l-.42 1.877q-.675.06-1.29.268c-.41.139-.88.392-1.42.76q-.795.55-1.92 1.519c-.74.645-1.68 1.484-2.81 2.516l-11.62 10.485 6.73 13.999c.52 1.092.97 1.956 1.34 2.591q.57.954 1.17 1.519.585.566 1.35.819.765.254 1.89.462l-.47 1.817h-12.28l.42-1.817c.56-.04.97-.164 1.25-.372q.42-.313.42-.79a9 9 0 0 0-.09-.685 5 5 0 0 0-.21-.789q-.15-.432-.39-1.013a31 31 0 0 0-.59-1.385l-3.99-8.518c-.34-.755-.64-1.351-.91-1.787q-.405-.656-.84-1.013a2.1 2.1 0 0 0-.98-.462 7.7 7.7 0 0 0-1.38-.104h-1.64q-.24 1.221-.57 2.621c-.22.933-.43 1.882-.65 2.845q-.33 1.445-.63 2.844c-.2.933-.38 1.802-.53 2.606q-.24 1.206-.39 2.145-.15.938-.15 1.444c0 .834.24 1.425.73 1.773s1.31.561 2.49.64l-.48 1.817h-12.54l.33-1.817a10 10 0 0 0 1.5-.343c.39-.129.74-.407 1.04-.834.31-.426.6-1.067.85-1.921q.39-1.281.9-3.633l4.88-21.714q.3-1.31.45-2.323t.15-1.728q0-1.31-.69-1.861c-.45-.368-1.29-.561-2.5-.581Zm-20.25-.565q2.82 0 5.43.431c1.74.288 3.56.75 5.47 1.385l-1.7 7.566h-3.25c-.06-1.112-.23-2.07-.52-2.874s-.69-1.46-1.21-1.966c-.51-.507-1.17-.884-1.96-1.132-.8-.248-1.74-.372-2.83-.372-1.17 0-2.23.159-3.19.476-.95.318-1.76.77-2.44 1.355a5.85 5.85 0 0 0-1.56 2.115c-.37.824-.55 1.723-.55 2.696 0 .734.08 1.41.26 2.025q.27.924.93 1.787.645.864 1.8 1.758c.76.595 1.73 1.251 2.9 1.965 1.43.894 2.66 1.738 3.68 2.532s1.86 1.618 2.5 2.472a8.8 8.8 0 0 1 1.42 2.726c.3.963.44 2.04.44 3.231q0 2.591-1.02 4.736a10.8 10.8 0 0 1-2.92 3.694q-1.89 1.548-4.53 2.397t-5.88.849c-1.83 0-3.79-.154-5.9-.462-2.1-.307-4.18-.759-6.22-1.355l1.75-8.042h3.16c.06 2.383.7 4.111 1.91 5.183s3.07 1.608 5.6 1.608q1.935 0 3.48-.506c1.03-.338 1.91-.824 2.62-1.46a6.2 6.2 0 0 0 1.64-2.323q.57-1.37.57-3.068 0-1.191-.3-2.159c-.2-.645-.55-1.286-1.04-1.921q-.75-.954-2.01-1.936-1.275-.983-3.15-2.145c-1.25-.774-2.34-1.544-3.26-2.308q-1.38-1.147-2.31-2.383a9.6 9.6 0 0 1-1.38-2.576 8.7 8.7 0 0 1-.46-2.86c0-1.668.32-3.182.98-4.542.65-1.36 1.59-2.532 2.81-3.515 1.23-.983 2.7-1.742 4.44-2.278s3.67-.804 5.8-.804"/><text x="2343.6" y="247.079" fill-opacity="0" font-family="Arial,Arial_MSFontService,sans-serif" font-size="39.852">𝑆𝐾</text><path fill-rule="evenodd" d="m2443.29 235.662-8.96 14.258h10.08l-.44-5.81c-.04-.814-.1-2.023-.17-3.626q-.09-2.404-.09-4.822Zm-.34-5.883h4.71l2.74 27.197c.16 1.579.5 2.746 1.01 3.503s1.39 1.217 2.62 1.38l-.39 1.806h-11.94l.39-1.806c.7-.049 1.27-.196 1.69-.44s.74-.586.95-1.025c.21-.44.32-1.229.32-2.368 0-.505-.03-1.246-.1-2.222l-.29-2.905h-12.01l-1.57 2.465c-.34.57-.71 1.274-1.12 2.112s-.61 1.624-.61 2.356q0 1.904 3 2.027l-.39 1.806h-12.18l.42-1.806a4.1 4.1 0 0 0 1.85-.721c.57-.398 1.13-.931 1.67-1.599.55-.667 1.25-1.668 2.11-3.003Z"/><text x="2419.78" y="259.429" fill-opacity="0" font-family="Arial,Arial_MSFontService,sans-serif" font-size="33.887">𝐴</text><path fill-rule="evenodd" d="M2695.87 172.239h18.07v77.286h-18.07v-3.121h11.34V175.36h-11.34Zm-224.91 0h18.08v3.121h-11.35v71.044h11.35v3.121h-18.08Zm32.57 7.002h16.21l-.45 1.986c-1.02.216-1.76.459-2.21.73-.44.27-.84.675-1.19 1.215-.35.541-.72 1.385-1.1 2.533-.37 1.149-.85 3.02-1.41 5.613l-2.76 12.402h21.76l2.76-12.442q.36-1.662.63-3.546c.17-1.257.26-2.25.26-2.979 0-1.27-.32-2.155-.95-2.655-.64-.499-1.64-.79-3.02-.871l.44-1.986h16.22l-.45 1.986c-1.03.216-1.76.459-2.21.73-.44.27-.84.675-1.19 1.215-.36.541-.72 1.385-1.1 2.533-.38 1.149-.85 3.02-1.42 5.613l-6.93 31.45q-.525 2.391-.69 3.789c-.1.932-.16 1.776-.16 2.533 0 1.216.31 2.074.91 2.573q.915.75 3.06.912l-.44 1.986h-16.21l.44-1.986q1.545-.243 2.31-.79c.52-.365.95-.871 1.3-1.52.35-.648.67-1.439.97-2.371s.75-2.735 1.34-5.41l3.32-15.036h-21.76l-3.36 15.32c-.3 1.351-.52 2.465-.65 3.343a19 19 0 0 0-.21 2.979c0 1.162.27 1.999.82 2.513.54.513 1.59.837 3.16.972l-.45 1.986h-16.21l.45-1.986q1.53-.243 2.31-.79.765-.547 1.29-1.52c.35-.648.68-1.439.98-2.371.29-.932.74-2.735 1.33-5.41l6.89-31.206c.25-1.108.45-2.29.63-3.546.18-1.257.26-2.25.26-2.979 0-1.27-.31-2.155-.95-2.655-.63-.499-1.64-.79-3.02-.871Z"/><text x="2492.91" y="227.646" fill-opacity="0" font-family="Arial,Arial_MSFontService,sans-serif" font-size="55.32">𝐻</text><path fill-rule="evenodd" d="M2662.52 172.447q11.835 3.12 18.18 13.475c4.22 6.904 6.34 15.232 6.34 24.985 0 9.781-2.11 18.109-6.32 24.986-4.22 6.876-10.28 11.354-18.2 13.434l-.97-3.12q9.36-3.12 13.92-12.321 4.56-9.199 4.56-23.384c0-9.132-1.52-16.717-4.54-22.756-3.03-6.038-7.72-10.098-14.06-12.178Zm-77.54 0 1.09 3.121q-9.48 3.12-14.04 12.178t-4.56 22.756q0 14.185 4.56 23.384t13.92 12.321l-.97 3.12c-7.92-2.08-13.99-6.558-18.2-13.434-4.22-6.877-6.32-15.205-6.32-24.986 0-9.753 2.11-18.081 6.34-24.985q6.345-10.355 18.18-13.475m15.27 6.794h14.47l4.62 39.312 23.62-39.312h12.77l-.45 1.986c-1.02.216-1.76.459-2.21.73-.44.27-.85.675-1.21 1.215-.37.541-.73 1.385-1.1 2.533-.36 1.149-.83 3.02-1.39 5.613l-6.93 31.45q-.54 2.391-.69 3.789a22 22 0 0 0-.17 2.533c0 1.216.31 2.074.92 2.573q.9.75 3.06.912l-.45 1.986h-16.21l.45-1.986q1.53-.243 2.31-.79.765-.547 1.29-1.52c.35-.648.68-1.439.98-2.371.29-.932.74-2.735 1.33-5.41l5.39-24.438c.76-3.377 1.62-6.741 2.6-10.091h-.57q-1.26 2.391-5.67 9.726l-18.44 30.436h-4.42l-3.37-26.059q-.72-5.512-1.62-14.833h-.81c-.92 6.052-1.94 11.659-3.08 16.819l-4.13 18.724c-.57 2.566-.85 4.674-.85 6.322 0 1.216.3 2.074.91 2.573q.915.75 3.06.912l-.45 1.986h-14.18l.44-1.986q1.545-.243 2.31-.79c.52-.365.95-.871 1.3-1.52.35-.648.68-1.439.97-2.371.3-.932.75-2.735 1.34-5.41l6.89-31.206c.27-1.162.49-2.27.65-3.323q.24-1.58.24-3.202c0-1.27-.31-2.155-.95-2.655-.63-.499-1.64-.79-3.02-.871Z"/><text x="2589.63" y="227.646" fill-opacity="0" font-family="Arial,Arial_MSFontService,sans-serif" font-size="55.32">𝑀</text><path d="m2658.543-97.002 272.266-2.531-.085-9.167-272.267 2.532Zm267.853 15.844 45.618-23.342-46.044-22.49Z"/><path fill="#fdefe8" fill-rule="evenodd" d="M386 347.5c0-60.475 48.801-109.5 109-109.5s109 49.025 109 109.5S555.199 457 495 457s-109-49.025-109-109.5"/><path fill="#d74514" fill-rule="evenodd" d="M472.968 321.864h20.385l-.567 2.675q-2.31.649-3.405 2.269-1.094 1.622-2.067 5.999l-2.836 12.847h17.183l2.837-12.847q.527-2.392.527-4.742 0-1.703-.79-2.493t-2.574-1.033l.568-2.675h20.385l-.568 2.675q-2.31.649-3.404 2.269-1.094 1.622-2.067 5.999l-7.376 33.435a26 26 0 0 0-.405 2.249q-.122.953-.122 2.492 0 1.703.791 2.493.79.79 2.573 1.033l-.567 2.675h-20.386l.568-2.675q2.31-.649 3.404-2.269 1.095-1.621 2.067-5.998l3.404-15.482h-17.183l-3.405 15.482a30 30 0 0 0-.405 2.269q-.121.933-.121 2.472 0 1.703.79 2.493t2.573 1.033l-.567 2.675h-20.385l.567-2.675q2.31-.649 3.404-2.269 1.095-1.621 2.067-5.998l7.376-33.435q.527-2.392.527-4.742 0-1.703-.79-2.493t-2.574-1.033Z"/><text x="461.823" y="370.269" fill-opacity="0" font-family="Arial,Arial_MSFontService,sans-serif" font-size="55.32">𝑯</text><path d="M604.5 343.917h76.799v9.167l-76.799-.001Zm72.216-18.333 45.833 22.916-45.833 22.917Z"/><path fill="#fdefe8" fill-rule="evenodd" d="M2814 320c0-60.199 48.8-109 109-109s109 48.801 109 109-48.8 109-109 109-109-48.801-109-109"/><path fill="#d74514" fill-rule="evenodd" d="M2900.98 294.299h20.39l-.57 2.675c-1.54.432-2.67 1.188-3.4 2.269q-1.095 1.621-2.07 5.998l-2.84 12.847h17.19l2.83-12.847c.36-1.594.53-3.174.53-4.742 0-1.134-.26-1.965-.79-2.492s-1.38-.871-2.57-1.033l.57-2.675h20.38l-.57 2.675c-1.54.432-2.67 1.188-3.4 2.269q-1.095 1.621-2.07 5.998l-7.37 33.435c-.19.865-.33 1.615-.41 2.25q-.12.951-.12 2.492c0 1.135.26 1.966.79 2.492.53.527 1.38.872 2.57 1.034l-.56 2.675h-20.39l.57-2.675c1.54-.432 2.67-1.189 3.4-2.27q1.095-1.62 2.07-5.998l3.4-15.481h-17.18l-3.4 15.481c-.19.892-.33 1.648-.41 2.27q-.12.931-.12 2.472c0 1.135.26 1.966.79 2.492.53.527 1.38.872 2.57 1.034l-.57 2.675h-20.38l.57-2.675c1.54-.432 2.67-1.189 3.4-2.27q1.095-1.62 2.07-5.998l7.37-33.435c.36-1.594.53-3.174.53-4.742 0-1.134-.26-1.965-.79-2.492s-1.38-.871-2.57-1.033Z"/><text x="2889.84" y="342.704" fill-opacity="0" font-family="Arial,Arial_MSFontService,sans-serif" font-size="55.32">𝑯</text><path d="M3032.5 324.76h337.978v-45.01h-9.167v40.426l4.583-4.583H3032.5Zm356.311-40.427-22.917-45.833-22.916 45.833Z"/><path fill="#fdefe8" fill-rule="evenodd" d="M1267-105.5c0-60.475 48.8-109.5 109-109.5s109 49.025 109 109.5S1436.2 4 1376 4s-109-49.025-109-109.5"/><path fill="#d74514" fill-rule="evenodd" d="M1359.56-131.371h39.35l-2.88 13.05h-5.18c-.14-2.567-.38-4.364-.73-5.391-.36-1.026-.9-1.769-1.63-2.229-.72-.459-1.75-.689-3.08-.689h-10.17l-4.29 19.454h5.63c1.08 0 1.99-.176 2.74-.527.74-.351 1.43-.939 2.06-1.763q.96-1.236 1.89-3.425h4.45l-3.89 16.454h-4.17c0-1.567-.1-2.769-.28-3.607-.19-.837-.54-1.445-1.06-1.823-.51-.379-1.39-.568-2.63-.568h-5.76l-4.78 21.642h9.12c1.19 0 2.11-.081 2.78-.243a6 6 0 0 0 1.82-.77q.825-.528 1.92-1.682c.73-.77 1.46-1.743 2.17-2.918.72-1.175 1.45-2.587 2.21-4.235h5.51l-3.73 14.59h-38.54l.57-2.675c1.54-.433 2.68-1.189 3.4-2.27q1.095-1.62 2.07-5.998l7.38-33.435c.35-1.594.52-3.174.52-4.742 0-1.134-.26-1.965-.79-2.492-.52-.527-1.38-.871-2.57-1.033Z"/><text x="1348.41" y="-82.966" fill-opacity="0" font-family="Arial,Arial_MSFontService,sans-serif" font-size="55.32">𝑬</text><path fill-rule="evenodd" d="M1356.54 146.342h16.21l-.45 1.986c-1.03.216-1.76.459-2.21.729-.44.27-.84.676-1.19 1.216-.36.54-.72 1.385-1.1 2.533s-.85 3.019-1.42 5.613l-2.87 12.928h1.33c1.14 0 2.17-.189 3.1-.567.94-.378 2.02-1.067 3.27-2.067 1.24-1 3.22-2.837 5.93-5.512 2.72-2.674 4.65-4.708 5.8-6.099s1.98-2.594 2.51-3.607.79-1.939.79-2.776q0-1.014-.81-1.641-.81-.629-2.31-.75l.45-1.986h17.38l-.44 1.986c-1.08.162-2.31.723-3.67 1.682s-3.45 2.83-6.26 5.613l-15.73 15.319 8.64 20.75c.89 2.135 1.62 3.675 2.2 4.62.59.946 1.28 1.696 2.09 2.249q1.215.831 3 1.115l-.45 1.986h-15.64l.45-1.986q2.19-.203 2.19-1.945 0-1.095-.45-2.493t-1.05-2.898l-5.27-12.887q-.93-2.31-1.62-3.242c-.46-.622-.95-1.054-1.46-1.297-.52-.243-1.31-.365-2.39-.365h-2.27l-3.37 15.319q-.525 2.432-.69 3.83c-.1.932-.16 1.763-.16 2.493 0 1.215.31 2.073.91 2.573q.915.75 3.06.912l-.44 1.986h-16.21l.44-1.986q1.545-.243 2.31-.79c.52-.365.95-.872 1.3-1.52.35-.649.68-1.439.97-2.371.3-.932.75-2.736 1.34-5.41l6.89-31.206c.59-2.702.89-4.877.89-6.525 0-1.27-.32-2.155-.95-2.655-.64-.5-1.64-.79-3.02-.871Z"/><text x="1345.92" y="194.747" fill-opacity="0" font-family="Arial,Arial_MSFontService,sans-serif" font-size="55.32">𝐾</text><path d="M1379.083 105.354V45.75h-9.166v59.604Zm18.334-55.02L1374.5 4.5l-22.917 45.833Zm88.083-160.417h143.31v9.167l-143.31-.001Zm138.73-18.333 45.83 22.916-45.83 22.917Z"/><path fill="#fdefe8" fill-rule="evenodd" d="M2051-105.5c0-60.475 48.8-109.5 109-109.5s109 49.025 109 109.5S2220.2 4 2160 4s-109-49.025-109-109.5"/><path fill="#d74514" fill-rule="evenodd" d="M2158.14-126.63q-2.025 0-3.12.082l-10.01 45.552q1.86.162 3 .162c3.48 0 6.49-.689 9.01-2.066 2.53-1.378 4.77-3.48 6.73-6.302q2.94-4.236 4.62-10.335a46 46 0 0 0 1.68-12.26q0-4.173-.93-7.011c-.62-1.891-1.48-3.418-2.57-4.579q-1.65-1.743-3.81-2.493c-1.45-.5-2.98-.75-4.6-.75m-18.76-4.741h16.41c4.46 0 8.02.243 10.7.729q3.645.65 6.66 2.229c2.02 1.054 3.6 2.216 4.77 3.486 1.48 1.567 2.65 3.532 3.5 5.896s1.28 5.141 1.28 8.329c0 3.593-.41 7.038-1.22 10.334s-2 6.343-3.58 9.14c-1.58 2.795-3.48 5.2-5.68 7.213s-4.41 3.58-6.62 4.701q-3.33 1.681-7.5 2.472c-2.78.527-6.08.79-9.89.79h-19.98l.57-2.674c1.54-.433 2.67-1.189 3.4-2.27q1.095-1.62 2.07-5.998l7.37-33.435c.36-1.594.53-3.174.53-4.742 0-1.134-.26-1.965-.79-2.492s-1.38-.871-2.57-1.033Z"/><text x="2128.23" y="-82.966" fill-opacity="0" font-family="Arial,Arial_MSFontService,sans-serif" font-size="55.32">𝑫</text><path d="M2165.083 105.355V45.75h-9.166v59.605Zm18.334-55.021L2160.5 4.5l-22.916 45.834Z"/><path fill="#d74514" d="M1670-333h237v458h-237z"/><path fill="#d74514" fill-rule="evenodd" d="M1382.05 292.081h37.28l-2.79 12.442h-3.89c-.11-2.351-.32-4.12-.61-5.309q-.45-1.783-1.08-2.452a3.1 3.1 0 0 0-1.5-.892q-.87-.222-2.49-.222h-13.21l-4.62 21.236h7.74c1.92 0 3.38-.453 4.4-1.358q1.515-1.358 3.06-4.478h3.69l-3.65 15.562h-3.45c0-2.161-.13-3.627-.4-4.397q-.405-1.155-1.2-1.459c-.52-.202-1.48-.304-2.86-.304h-8.1l-5.19 23.385h12c1.59 0 2.86-.163 3.79-.487s1.81-.851 2.63-1.58c.83-.73 1.65-1.75 2.47-3.06q1.245-1.966 2.94-5.33h3.93l-3.56 14.023h-35.95l.44-1.986q1.545-.243 2.31-.79c.52-.365.95-.872 1.3-1.52s.68-1.439.97-2.371c.3-.932.75-2.735 1.34-5.41l6.89-31.206c.6-2.702.89-4.877.89-6.525 0-1.27-.31-2.155-.95-2.655-.63-.5-1.64-.79-3.02-.871Z"/><text x="1371.43" y="340.486" fill-opacity="0" font-family="Arial,Arial_MSFontService,sans-serif" font-size="55.32">𝐸</text><path fill="#d74514" fill-rule="evenodd" d="M1425.58 325.613h12.57l-.33 1.787c-.45.12-.84.219-1.16.298-.32.08-.6.199-.85.358a2.2 2.2 0 0 0-.64.64c-.18.268-.35.636-.52 1.102q-.255.7-.54 1.757c-.18.705-.4 1.574-.64 2.607l-1.93 8.757h.83c.46 0 .88-.03 1.25-.09a5 5 0 0 0 1.12-.313c.37-.149.74-.352 1.13-.61s.83-.586 1.33-.983c2.06-1.608 3.79-3.048 5.18-4.319s2.52-2.393 3.38-3.366 1.48-1.802 1.85-2.487c.36-.685.55-1.256.55-1.712q0-.715-.57-1.117c-.37-.268-.99-.412-1.84-.432l.32-1.877h13.56l-.42 1.877c-.46.04-.89.129-1.3.268-.4.139-.88.392-1.41.759q-.81.552-1.92 1.519-1.125.969-2.82 2.517l-11.61 10.485 6.73 13.999c.51 1.092.96 1.956 1.34 2.591s.76 1.142 1.16 1.519q.6.565 1.35.819c.51.169 1.14.323 1.9.462l-.48 1.817h-12.27l.42-1.817c.55-.04.97-.164 1.25-.373.27-.208.41-.471.41-.789a9 9 0 0 0-.09-.685 6 6 0 0 0-.2-.789q-.15-.432-.39-1.013a53 53 0 0 0-.6-1.385l-3.99-8.518c-.34-.755-.64-1.351-.91-1.788-.27-.436-.54-.774-.83-1.012a2.2 2.2 0 0 0-.98-.462 7.7 7.7 0 0 0-1.39-.104h-1.64c-.16.814-.35 1.688-.56 2.621q-.33 1.4-.66 2.844c-.22.963-.43 1.912-.62 2.845q-.3 1.4-.54 2.606t-.39 2.145-.15 1.444c0 .834.25 1.425.73 1.772q.735.522 2.49.641l-.48 1.817h-12.54l.33-1.817a10 10 0 0 0 1.51-.343c.38-.129.73-.407 1.04-.834s.59-1.067.85-1.921.55-2.065.89-3.634l4.89-21.713c.19-.874.34-1.648.44-2.323q.15-1.012.15-1.728c0-.873-.23-1.494-.68-1.861-.46-.368-1.29-.561-2.51-.581Z"/><text x="1418.22" y="359.416" fill-opacity="0" font-family="Arial,Arial_MSFontService,sans-serif" font-size="38.631">𝐾</text><path fill="#d74514" fill-rule="evenodd" d="M2111.2 255.612h19.29v136.172h-19.29v-3.526h11.79v-129.12h-11.79Zm-623.23 0h19.3v3.526h-11.8v129.12h11.8v3.526h-19.3Zm33.79 36.469h14.47l4.62 39.312 23.62-39.312h12.77l-.45 1.986c-1.02.216-1.76.459-2.2.729-.45.271-.86.676-1.22 1.216-.37.541-.73 1.385-1.09 2.533-.37 1.149-.84 3.02-1.4 5.613l-6.93 31.449q-.525 2.392-.69 3.79a22 22 0 0 0-.16 2.533c0 1.216.3 2.073.91 2.573q.915.75 3.06.912l-.45 1.986h-16.21l.45-1.986q1.53-.243 2.31-.79.765-.548 1.29-1.52c.35-.648.68-1.439.98-2.371.29-.932.74-2.735 1.33-5.41l5.39-24.438c.76-3.377 1.62-6.741 2.6-10.092h-.57q-1.26 2.392-5.67 9.727l-18.44 30.436h-4.42l-3.37-26.059q-.72-5.512-1.62-14.833h-.81c-.92 6.052-1.94 11.658-3.08 16.819l-4.13 18.723c-.57 2.567-.85 4.675-.85 6.323 0 1.216.3 2.073.91 2.573q.915.75 3.06.912l-.45 1.986h-14.18l.45-1.986q1.53-.243 2.31-.79.765-.548 1.29-1.52c.35-.648.68-1.439.97-2.371.3-.932.75-2.735 1.34-5.41l6.89-31.206c.27-1.162.49-2.27.65-3.324q.24-1.58.24-3.201c0-1.27-.31-2.155-.95-2.655-.63-.5-1.64-.79-3.02-.871Z"/><text x="1511.14" y="340.486" fill-opacity="0" font-family="Arial,Arial_MSFontService,sans-serif" font-size="55.32">𝑀</text><path fill="#d74514" fill-rule="evenodd" d="M1645.83 292.081h6.32v63.425h-6.32Zm-14.19 0h6.33v63.425h-6.33Z"/><text x="1631.64" y="347.578" fill-opacity="0" font-family="Arial,Arial_MSFontService,sans-serif" font-size="63.425">∥</text><path fill="#d74514" fill-rule="evenodd" d="M1696.88 292.081h37.28l-2.8 12.442h-3.89c-.1-2.351-.31-4.12-.6-5.309q-.45-1.783-1.08-2.452a3.1 3.1 0 0 0-1.5-.892q-.87-.222-2.49-.222h-13.21l-4.62 21.236h7.74c1.92 0 3.38-.453 4.4-1.358q1.515-1.358 3.06-4.478h3.68l-3.64 15.562h-3.45c0-2.161-.13-3.627-.4-4.397q-.405-1.155-1.2-1.459c-.53-.202-1.48-.304-2.86-.304h-8.1l-5.19 23.385h12c1.59 0 2.85-.163 3.79-.487.93-.324 1.81-.851 2.63-1.58s1.65-1.75 2.47-3.06q1.245-1.966 2.94-5.33h3.93l-3.56 14.023h-35.95l.44-1.986q1.545-.243 2.31-.79c.52-.365.95-.872 1.3-1.52s.68-1.439.97-2.371c.3-.932.75-2.735 1.34-5.41l6.89-31.206c.59-2.702.89-4.877.89-6.525 0-1.27-.32-2.155-.95-2.655-.64-.5-1.64-.79-3.02-.871Z"/><text x="1686.26" y="340.486" fill-opacity="0" font-family="Arial,Arial_MSFontService,sans-serif" font-size="55.32">𝐸</text><path fill="#d74514" fill-rule="evenodd" d="M1771.07 325.613h12.57l-.33 1.787c-.45.12-.84.219-1.16.298-.31.08-.6.199-.85.358-.24.159-.46.372-.64.64s-.35.636-.52 1.102-.35 1.053-.53 1.757c-.19.705-.41 1.574-.64 2.607l-1.94 8.757h.83c.46 0 .88-.03 1.25-.09a5 5 0 0 0 1.12-.313c.37-.149.75-.352 1.13-.61.39-.258.83-.586 1.33-.983 2.06-1.608 3.79-3.048 5.18-4.319s2.52-2.393 3.38-3.366c.87-.973 1.48-1.802 1.85-2.487s.55-1.256.55-1.712q0-.715-.57-1.117c-.37-.268-.99-.412-1.84-.432l.32-1.877h13.56l-.42 1.877c-.46.04-.89.129-1.3.268q-.6.209-1.41.759-.81.552-1.92 1.519c-.75.646-1.68 1.485-2.82 2.517l-11.61 10.485 6.73 13.999c.52 1.092.96 1.956 1.34 2.591s.76 1.142 1.16 1.519.85.65 1.36.819q.75.253 1.89.462l-.48 1.817h-12.27l.42-1.817c.55-.04.97-.164 1.25-.373.28-.208.41-.471.41-.789-.02-.218-.05-.447-.08-.685a5 5 0 0 0-.21-.789q-.15-.432-.39-1.013a53 53 0 0 0-.6-1.385l-3.99-8.518a15 15 0 0 0-.91-1.788c-.26-.436-.54-.774-.83-1.012a2.2 2.2 0 0 0-.98-.462 7.7 7.7 0 0 0-1.39-.104h-1.64c-.15.814-.34 1.688-.56 2.621q-.33 1.4-.66 2.844c-.22.963-.42 1.912-.62 2.845q-.3 1.4-.54 2.606t-.39 2.145c-.1.625-.14 1.107-.14 1.444q0 1.251.72 1.772.735.522 2.49.641l-.47 1.817h-12.54l.32-1.817a10 10 0 0 0 1.51-.343c.38-.129.73-.407 1.04-.834s.59-1.067.85-1.921.55-2.065.89-3.634l4.89-21.713c.2-.874.34-1.648.44-2.323q.15-1.012.15-1.728c0-.873-.23-1.494-.68-1.861-.46-.368-1.29-.561-2.5-.581Zm-20.25-.566c1.89 0 3.7.144 5.44.432 1.73.288 3.56.75 5.46 1.385l-1.7 7.566h-3.24c-.06-1.112-.24-2.07-.52-2.875-.29-.804-.69-1.459-1.21-1.965-.52-.507-1.17-.884-1.97-1.132-.79-.248-1.73-.372-2.83-.372q-1.755 0-3.18.476c-.96.318-1.77.77-2.44 1.355a6 6 0 0 0-1.57 2.115c-.37.824-.55 1.723-.55 2.696q0 1.101.27 2.025c.18.616.49 1.211.92 1.787q.66.864 1.8 1.757 1.155.894 2.91 1.966a46 46 0 0 1 3.68 2.532c1.02.794 1.85 1.618 2.5 2.472.64.854 1.12 1.762 1.41 2.725q.45 1.446.45 3.232c0 1.728-.34 3.306-1.03 4.736-.68 1.43-1.66 2.661-2.92 3.693s-2.77 1.832-4.52 2.398c-1.76.566-3.72.849-5.89.849-1.82 0-3.79-.154-5.89-.462a46 46 0 0 1-6.23-1.355l1.76-8.042h3.16c.06 2.383.69 4.11 1.9 5.183s3.08 1.608 5.6 1.608c1.29 0 2.45-.169 3.49-.506 1.03-.338 1.9-.824 2.62-1.46a6.35 6.35 0 0 0 1.64-2.323c.37-.913.56-1.936.56-3.068q0-1.191-.3-2.159c-.19-.646-.54-1.286-1.04-1.921q-.75-.954-2.01-1.936c-.84-.656-1.89-1.371-3.14-2.145s-2.34-1.544-3.26-2.308q-1.395-1.147-2.31-2.383a9.4 9.4 0 0 1-1.39-2.577 8.9 8.9 0 0 1-.46-2.859c0-1.668.33-3.182.98-4.542q.99-2.04 2.82-3.515 1.83-1.474 4.44-2.278 2.61-.805 5.79-.805"/><text x="1729.97" y="359.918" fill-opacity="0" font-family="Arial,Arial_MSFontService,sans-serif" font-size="39.852">𝑆𝐾</text><path fill="#d74514" fill-rule="evenodd" d="m1829.67 348.502-8.96 14.258h10.08l-.44-5.811c-.05-.813-.11-2.022-.17-3.625-.07-1.603-.1-3.21-.1-4.822Zm-.35-5.884h4.72l2.73 27.198c.16 1.578.5 2.746 1.01 3.503.52.757 1.39 1.217 2.63 1.379l-.39 1.807h-11.94l.39-1.807q1.05-.072 1.68-.439.645-.366.96-1.025c.21-.44.31-1.229.31-2.369q0-.756-.09-2.221l-.3-2.905h-12.01l-1.56 2.465c-.34.57-.72 1.274-1.12 2.112-.41.838-.61 1.624-.61 2.356q0 1.905 3 2.026l-.39 1.807h-12.18l.41-1.807a4.05 4.05 0 0 0 1.86-.72c.57-.399 1.12-.932 1.67-1.599.54-.667 1.25-1.668 2.11-3.003Z"/><text x="1806.16" y="372.269" fill-opacity="0" font-family="Arial,Arial_MSFontService,sans-serif" font-size="33.887">𝐴</text><path fill="#d74514" fill-rule="evenodd" d="M2082.24 285.079h18.08v77.286h-18.08v-3.121h11.35V288.2h-11.35Zm-224.9 0h18.08v3.121h-11.35v71.044h11.35v3.121h-18.08Zm32.56 7.002h16.21l-.44 1.986c-1.03.216-1.76.459-2.21.729-.45.271-.84.676-1.2 1.216-.35.541-.71 1.385-1.09 2.533-.38 1.149-.85 3.02-1.42 5.613L1897 316.56h21.76l2.75-12.442q.375-1.662.63-3.546.27-1.885.27-2.979 0-1.905-.96-2.655c-.63-.5-1.64-.79-3.02-.871l.45-1.986h16.21l-.44 1.986c-1.03.216-1.77.459-2.21.729q-.675.406-1.2 1.216c-.35.541-.71 1.385-1.09 2.533-.38 1.149-.85 3.02-1.42 5.613l-6.93 31.449q-.525 2.392-.69 3.79a22 22 0 0 0-.16 2.533c0 1.216.3 2.073.91 2.573q.915.75 3.06.912l-.45 1.986h-16.21l.45-1.986q1.53-.243 2.31-.79.765-.548 1.29-1.52c.36-.648.68-1.439.98-2.371.29-.932.74-2.735 1.33-5.41l3.33-15.036h-21.76l-3.37 15.319c-.3 1.351-.51 2.466-.65 3.344-.13.878-.2 1.871-.2 2.979q0 1.743.81 2.512c.54.514 1.59.838 3.16.973l-.44 1.986h-16.21l.44-1.986q1.545-.243 2.31-.79c.51-.365.95-.872 1.3-1.52s.67-1.439.97-2.371.74-2.735 1.34-5.41l6.89-31.206q.36-1.662.63-3.546c.17-1.257.26-2.25.26-2.979 0-1.27-.32-2.155-.95-2.655-.64-.5-1.64-.79-3.02-.871Z"/><text x="1879.29" y="340.486" fill-opacity="0" font-family="Arial,Arial_MSFontService,sans-serif" font-size="55.32">𝐻</text><path fill="#d74514" fill-rule="evenodd" d="M2048.89 285.287q11.835 3.12 18.18 13.475c4.23 6.903 6.34 15.232 6.34 24.985 0 9.781-2.1 18.109-6.32 24.985-4.21 6.877-10.28 11.355-18.2 13.435l-.97-3.12q9.36-3.121 13.92-12.321t4.56-23.384c0-9.132-1.51-16.717-4.54-22.756-3.02-6.039-7.71-10.098-14.06-12.179Zm-77.54 0 1.1 3.12c-6.33 2.081-11.01 6.14-14.05 12.179q-4.56 9.058-4.56 22.756 0 14.184 4.56 23.384t13.92 12.321l-.97 3.12c-7.91-2.08-13.98-6.558-18.2-13.435-4.21-6.876-6.32-15.204-6.32-24.985 0-9.753 2.12-18.082 6.34-24.985q6.345-10.355 18.18-13.475m15.27 6.794h14.47l4.62 39.312 23.63-39.312h12.76l-.44 1.986c-1.03.216-1.76.459-2.21.729-.45.271-.85.676-1.22 1.216-.36.541-.73 1.385-1.09 2.533-.37 1.149-.83 3.02-1.4 5.613l-6.93 31.449q-.525 2.392-.69 3.79a22 22 0 0 0-.16 2.533c0 1.216.3 2.073.91 2.573q.915.75 3.06.912l-.44 1.986h-16.21l.44-1.986q1.545-.243 2.31-.79c.51-.365.95-.872 1.3-1.52s.67-1.439.97-2.371.74-2.735 1.34-5.41l5.39-24.438c.75-3.377 1.62-6.741 2.59-10.092h-.57q-1.245 2.392-5.67 9.727l-18.44 30.436h-4.42l-3.36-26.059q-.735-5.512-1.62-14.833h-.81c-.92 6.052-1.95 11.658-3.08 16.819l-4.14 18.723c-.56 2.567-.85 4.675-.85 6.323 0 1.216.31 2.073.91 2.573q.915.75 3.06.912l-.44 1.986H1976l.45-1.986q1.545-.243 2.31-.79c.51-.365.95-.872 1.3-1.52s.67-1.439.97-2.371.74-2.735 1.34-5.41l6.89-31.206c.27-1.162.48-2.27.64-3.324.17-1.053.25-2.12.25-3.201 0-1.27-.32-2.155-.95-2.655-.64-.5-1.65-.79-3.02-.871Z"/><text x="1976" y="340.486" fill-opacity="0" font-family="Arial,Arial_MSFontService,sans-serif" font-size="55.32">𝑀</text><path fill-rule="evenodd" d="M2145.85 146.342h16.21l-.45 1.986c-1.02.216-1.76.459-2.2.729q-.675.405-1.2 1.216c-.35.54-.72 1.385-1.09 2.533-.38 1.148-.86 3.019-1.42 5.613l-2.88 12.928h1.34c1.13 0 2.17-.189 3.1-.567s2.02-1.067 3.26-2.067q1.86-1.5 5.94-5.512 4.065-4.012 5.79-6.099t2.52-3.607c.52-1.013.79-1.939.79-2.776q0-1.014-.81-1.641-.825-.629-2.31-.75l.44-1.986h17.39l-.45 1.986c-1.08.162-2.3.723-3.67 1.682-1.36.959-3.45 2.83-6.26 5.613l-15.72 15.319 8.63 20.75c.89 2.135 1.63 3.675 2.21 4.62s1.28 1.696 2.09 2.249 1.81.926 2.99 1.115l-.44 1.986h-15.64l.44-1.986q2.19-.203 2.19-1.945 0-1.095-.45-2.493-.435-1.398-1.05-2.898l-5.27-12.887q-.93-2.31-1.62-3.242c-.46-.622-.95-1.054-1.46-1.297s-1.31-.365-2.39-.365h-2.27l-3.36 15.319q-.525 2.432-.69 3.83c-.11.932-.16 1.763-.16 2.493 0 1.215.3 2.073.91 2.573q.915.75 3.06.912l-.45 1.986h-16.21l.45-1.986q1.53-.243 2.31-.79.765-.548 1.29-1.52c.36-.649.68-1.439.98-2.371.29-.932.74-2.736 1.33-5.41l6.89-31.206q.9-4.053.9-6.525 0-1.905-.96-2.655c-.63-.5-1.64-.79-3.02-.871Z"/><text x="2135.23" y="194.747" fill-opacity="0" font-family="Arial,Arial_MSFontService,sans-serif" font-size="55.32">𝐾</text><path d="m1907.55-99.329 102.456-1.132-.101-9.166-102.456 1.132Zm98.075 17.25 45.578-23.421-46.084-22.409Zm263.88-18.694 101.921-.102-.009-9.167-101.922.103Zm97.356 18.236 45.81-22.963-45.856-22.87Z"/></g></svg>