<svg xmlns="http://www.w3.org/2000/svg" width="3415" height="790" overflow="hidden"><defs><clipPath id="a"><path d="M174-2040h3415v790H174z"/></clipPath></defs><g clip-path="url(#a)" transform="translate(-174 2040)"><path fill="#f8ccb9" d="M174-1966h237v308H174z"/><path fill="#d74514" fill-rule="evenodd" d="M264.898-1837.75h18.885l3.161 33.84 19.21-33.84H325l-.568 2.68c-1.54.43-2.675 1.18-3.404 2.26q-1.095 1.635-2.067 6l-7.376 33.44q-.284 1.29-.405 2.25-.122.945-.122 2.49c0 1.13.264 1.97.791 2.49.526.53 1.384.87 2.573 1.04l-.567 2.67h-20.386l.568-2.67c1.54-.44 2.675-1.19 3.404-2.27q1.094-1.62 2.067-6l3.728-17.02a257 257 0 0 1 4.377-16.98h-.81c-1.27 2.32-2.634 4.74-4.093 7.25l-18.238 31.57h-6.565l-2.675-24.36c-.621-5.78-1.027-10.74-1.216-14.87h-.648q-1.622 10.005-3.08 16.62l-3.931 17.79q-.285 1.29-.406 2.25-.121.945-.121 2.49c0 1.13.263 1.97.79 2.49.527.53 1.385.87 2.573 1.04l-.567 2.67h-14.873l.567-2.67c1.54-.44 2.675-1.19 3.404-2.27q1.095-1.62 2.067-6l7.376-33.44q.527-2.385.527-4.74 0-1.695-.79-2.49c-.527-.53-1.385-.87-2.574-1.03Z"/><text x="253.753" y="-1789.34" fill-opacity="0" font-family="Arial,Arial_MSFontService,sans-serif" font-size="55.32">𝑴</text><path fill="#fdefe8" fill-rule="evenodd" d="M871-1359.5c0-60.48 48.801-109.5 109-109.5 60.2 0 109 49.02 109 109.5S1040.2-1250 980-1250c-60.199 0-109-49.02-109-109.5"/><path fill="#d74514" fill-rule="evenodd" d="M963.124-1385.12h39.356l-2.881 13.05h-5.188c-.135-2.57-.378-4.37-.729-5.39-.351-1.03-.892-1.77-1.621-2.23q-1.095-.69-3.08-.69h-10.173l-4.296 19.45h5.634c1.08 0 1.992-.17 2.735-.52.743-.36 1.432-.94 2.067-1.77q.952-1.23 1.885-3.42h4.458l-3.891 16.45h-4.174c0-1.57-.095-2.77-.284-3.61-.189-.83-.54-1.44-1.054-1.82q-.77-.57-2.634-.57h-5.755l-4.782 21.65h9.119c1.188 0 2.114-.09 2.776-.25s1.27-.42 1.823-.77q.831-.525 1.926-1.68c.729-.77 1.452-1.74 2.168-2.92q1.074-1.755 2.208-4.23h5.512l-3.728 14.59h-38.542l.568-2.68c1.54-.43 2.674-1.19 3.404-2.27q1.093-1.62 2.067-6l7.376-33.43c.351-1.59.527-3.18.527-4.74q0-1.71-.791-2.49c-.527-.53-1.384-.88-2.573-1.04Z"/><text x="951.979" y="-1336.72" fill-opacity="0" font-family="Arial,Arial_MSFontService,sans-serif" font-size="55.32">𝑬</text><path fill="#fdefe8" fill-rule="evenodd" d="M1146-1812c0-60.2 49.02-109 109.5-109s109.5 48.8 109.5 109-49.02 109-109.5 109-109.5-48.8-109.5-109"/><path fill="#d74514" fill-rule="evenodd" d="M1256.39-1837.75h6.32v63.43h-6.32Zm-14.19 0h6.33v63.43h-6.33Z"/><text x="1242.2" y="-1782.25" fill-opacity="0" font-family="Arial,Arial_MSFontService,sans-serif" font-size="63.425">∥</text><path fill="#f8ccb9" d="M1680-2040h237v308h-237z"/><path fill="#d74514" fill-rule="evenodd" d="M1771.06-1911.7h18.89l3.16 33.84 19.21-33.84h18.84l-.56 2.67c-1.54.44-2.68 1.19-3.41 2.27s-1.42 3.08-2.06 6l-7.38 33.44c-.19.86-.32 1.61-.41 2.25q-.12.945-.12 2.49c0 1.13.27 1.96.79 2.49.53.53 1.39.87 2.58 1.03l-.57 2.68h-20.39l.57-2.68c1.54-.43 2.68-1.19 3.41-2.27s1.41-3.08 2.06-5.99l3.73-17.03q1.86-8.43 4.38-16.98h-.81c-1.27 2.33-2.64 4.75-4.1 7.26l-18.23 31.57h-6.57l-2.67-24.36c-.62-5.78-1.03-10.74-1.22-14.87h-.65c-1.08 6.67-2.1 12.21-3.08 16.61l-3.93 17.8c-.19.86-.32 1.61-.4 2.25-.08.63-.13 1.46-.13 2.49 0 1.13.27 1.96.79 2.49.53.53 1.39.87 2.58 1.03l-.57 2.68h-14.87l.56-2.68c1.54-.43 2.68-1.19 3.41-2.27s1.42-3.08 2.07-5.99l7.37-33.44c.35-1.59.53-3.17.53-4.74 0-1.14-.26-1.97-.79-2.49-.53-.53-1.39-.87-2.58-1.04Z"/><text x="1759.92" y="-1863.3" fill-opacity="0" font-family="Arial,Arial_MSFontService,sans-serif" font-size="55.32">𝑴</text><path fill="#fdefe8" d="M1680-1729h237v146h-237z"/><path fill="#fdefe8" fill-rule="evenodd" d="M2886-1812c0-60.2 48.8-109 109-109s109 48.8 109 109-48.8 109-109 109-109-48.8-109-109"/><path fill="#d74514" fill-rule="evenodd" d="M2993.21-1833.01c-1.35 0-2.39.03-3.12.08l-10.01 45.56c1.24.1 2.24.16 3 .16 3.48 0 6.49-.69 9.01-2.07 2.53-1.38 4.77-3.48 6.73-6.3s3.5-6.27 4.62-10.34a46 46 0 0 0 1.68-12.25c0-2.79-.31-5.12-.93-7.02-.62-1.89-1.48-3.41-2.57-4.58q-1.65-1.74-3.81-2.49c-1.45-.5-2.98-.75-4.6-.75m-18.77-4.74h16.42c4.46 0 8.02.24 10.7.73 2.43.43 4.65 1.18 6.66 2.23 2.02 1.05 3.6 2.21 4.77 3.48 1.48 1.57 2.65 3.54 3.5 5.9.85 2.37 1.28 5.14 1.28 8.33 0 3.59-.41 7.04-1.22 10.33-.81 3.3-2 6.35-3.59 9.14-1.58 2.8-3.47 5.2-5.67 7.22-2.2 2.01-4.41 3.58-6.63 4.7-2.21 1.12-4.71 1.94-7.49 2.47-2.79.53-6.08.79-9.89.79h-19.98l.57-2.67c1.54-.44 2.67-1.19 3.4-2.27q1.095-1.62 2.07-6l7.37-33.44c.35-1.59.53-3.17.53-4.74 0-1.13-.26-1.96-.79-2.49s-1.39-.87-2.57-1.03Z"/><text x="2963.3" y="-1789.34" fill-opacity="0" font-family="Arial,Arial_MSFontService,sans-serif" font-size="55.32">𝑫</text><path fill-rule="evenodd" d="M3396.63-1539.98c-1.38 0-2.74.47-4.08 1.4-1.33.93-2.8 2.43-4.39 4.48-1.6 2.05-2.84 4.08-3.73 6.08s-1.6 4.3-2.11 6.89l-.32 1.7c-.27 1.43-.44 2.53-.51 3.28-.07.76-.1 1.5-.1 2.23 0 2.11.45 3.64 1.36 4.6q1.35 1.44 4.68 1.44 2.07 0 3.81-.81c1.16-.54 2.26-1.32 3.3-2.35s1.98-2.27 2.82-3.73c.83-1.46 1.58-3.15 2.25-5.08.66-1.94 1.16-3.92 1.5-5.96.33-2.04.5-3.95.5-5.74 0-2.83-.4-4.95-1.19-6.34-.8-1.39-2.06-2.09-3.79-2.09m-118.18-1.5c-2.81 0-5.26 1.18-7.35 3.53-2.1 2.35-3.74 5.71-4.95 10.09q-1.8 6.57-1.8 11.31c0 2.97.61 5.17 1.84 6.58q1.845 2.13 5.58 2.13c2.64 0 4.99-1.19 7.05-3.56q3.075-3.57 4.86-9.99c1.19-4.29 1.78-8.05 1.78-11.29 0-2.92-.56-5.11-1.7-6.59-1.13-1.47-2.9-2.21-5.31-2.21m244.41-.08c-2.73 0-5.36 1.38-7.88 4.14-2.53 2.75-4.47 6.48-5.82 11.18 3.81-.02 7.08-.37 9.81-1.03s4.82-1.72 6.28-3.16c1.46-1.45 2.19-3.4 2.19-5.86 0-1.65-.39-2.94-1.16-3.87s-1.91-1.4-3.42-1.4m-84.08 0c-2.79 0-5.28 1.12-7.5 3.37-2.22 2.24-3.94 5.25-5.19 9.01-1.24 3.77-1.86 7.54-1.86 11.29 0 2.81.38 4.91 1.15 6.3s2.06 2.09 3.87 2.09q2.685 0 5.25-2.31c1.72-1.54 3.49-3.73 5.31-6.59 1.82-2.85 3.11-6.14 3.87-9.86l.37-1.75c.24-1.1.4-2.06.48-2.87q.12-1.215.12-2.64c0-2.08-.44-3.6-1.33-4.58-.9-.97-2.41-1.46-4.54-1.46m-159.52-3.16c4.33 0 7.62 1.18 9.89 3.55 2.27 2.36 3.41 5.75 3.41 10.15 0 3.13-.55 6.48-1.64 10.05q-1.65 5.355-4.5 9c-1.91 2.43-4.18 4.26-6.83 5.49s-5.69 1.84-9.12 1.84c-4.19 0-7.44-1.17-9.75-3.52s-3.46-5.73-3.46-10.13c0-2.17.32-4.66.97-7.5.84-3.84 2.24-7.19 4.21-10.05 1.98-2.87 4.41-5.06 7.3-6.59 2.89-1.52 6.07-2.29 9.52-2.29m245.06-.04c3.27 0 5.72.66 7.35 1.99 1.64 1.32 2.45 3.39 2.45 6.2 0 4.59-2.15 8.04-6.46 10.33-4.31 2.3-10.71 3.45-19.19 3.45-.32 1.62-.49 3.37-.49 5.27 0 2.83.56 4.89 1.67 6.18q1.65 1.92 5.43 1.92c2.48 0 4.73-.54 6.74-1.62q3.03-1.62 6.39-4.98l2.51 2.63c-2.62 2.89-5.27 5.07-7.96 6.52-2.69 1.46-5.82 2.19-9.38 2.19-3.92 0-6.96-1.19-9.1-3.58-2.15-2.39-3.23-5.72-3.23-9.99q0-4.335 1.56-9.3c1.05-3.31 2.62-6.29 4.73-8.92 2.1-2.63 4.63-4.67 7.58-6.12 2.94-1.45 6.07-2.17 9.4-2.17m-53.8 0c1.71 0 3.05.56 4.04 1.68.98 1.12 1.48 2.59 1.48 4.4 0 1.35-.26 2.74-.77 4.18l.52.2c2.65-3.6 5.2-6.23 7.64-7.91 2.45-1.67 4.93-2.51 7.44-2.51 1.97 0 3.62.15 4.94.45l-1.94 9.08h-4.18c-.16-1.14-.39-2.02-.68-2.64-.3-.62-.65-1.05-1.06-1.29-.4-.25-.92-.37-1.54-.37q-1.455 0-3.18 1.26-1.725 1.245-3.87 3.93c-1.43 1.78-2.57 3.5-3.42 5.14-.86 1.65-1.56 3.75-2.13 6.29l-3.85 17.54h-7.01l5.87-25.69c.38-1.62.62-2.88.73-3.77s.16-1.63.16-2.23c0-1.08-.17-1.86-.52-2.35-.35-.48-.91-.73-1.66-.73-.84 0-1.73.35-2.66 1.04-.93.68-2.21 1.93-3.83 3.74l-2.31-2.26c2.49-2.6 4.57-4.44 6.24-5.54a10 10 0 0 1 5.55-1.64m-32.55 0c1.75 0 3.39.2 4.92.59s3.1 1.09 4.72 2.09l3.73-2.68 2.59.65-5.95 25.69c-.6 2.57-.89 4.57-.89 6 0 1.08.17 1.87.52 2.35.35.49.91.73 1.66.73.81 0 1.68-.33 2.6-.99s2.21-1.93 3.89-3.79l2.31 2.27c-2.43 2.59-4.51 4.44-6.22 5.53-1.72 1.1-3.58 1.64-5.58 1.64-1.67 0-3.01-.55-4.01-1.66s-1.5-2.58-1.5-4.42c0-1.48.31-3.06.94-4.74l-.53-.16c-2.6 3.78-5.05 6.55-7.38 8.31-2.32 1.75-4.78 2.63-7.37 2.63-2.98 0-5.28-1.12-6.91-3.36-1.64-2.24-2.46-5.39-2.46-9.44 0-4.65.92-9.12 2.74-13.4s4.33-7.66 7.52-10.13 6.74-3.71 10.66-3.71m-58.4 0c1.67 0 3 .56 3.99 1.66.98 1.11 1.48 2.58 1.48 4.42 0 1.51-.31 3.11-.94 4.78l.49.17c5-7.33 9.97-10.99 14.91-10.99 2.95 0 5.24 1.12 6.87 3.37q2.46 3.36 2.46 9.48c0 4.46-.9 8.84-2.7 13.15s-4.29 7.73-7.48 10.25c-3.18 2.53-6.75 3.79-10.7 3.79-3.59 0-6.57-.78-8.95-2.35l-1.87 8.88q-.6 2.88-.6 4.74c0 1.19.3 2.03.91 2.53s1.79.83 3.54 1l-.32 1.98h-12.52l9.76-43c.57-2.48.85-4.52.85-6.12 0-1.08-.17-1.86-.52-2.35-.35-.48-.91-.73-1.66-.73-.84 0-1.73.35-2.66 1.04-.93.68-2.21 1.93-3.83 3.74l-2.31-2.26c2.43-2.54 4.49-4.38 6.18-5.5s3.56-1.68 5.62-1.68m-70 0c1.7 0 3.04.56 4.03 1.68.98 1.12 1.48 2.59 1.48 4.4q0 2.235-.93 4.74l.48.16c2.49-3.7 4.96-6.45 7.42-8.24 2.46-1.8 4.94-2.7 7.45-2.7 2.6 0 4.57.74 5.92 2.21s2.03 3.6 2.03 6.38v.57c0 .19-.02.39-.04.61 2.32-3.3 4.64-5.75 6.95-7.36 2.31-1.6 4.71-2.41 7.19-2.41 2.49 0 4.41.72 5.76 2.15s2.02 3.45 2.02 6.04c0 1.7-.39 4.12-1.17 7.25l-2.64 10.62c-.73 2.95-1.09 5.03-1.09 6.24 0 1.08.17 1.87.53 2.35.35.49.9.73 1.66.73.81 0 1.67-.33 2.59-.99s2.22-1.93 3.89-3.79l2.31 2.27c-2.32 2.46-4.35 4.27-6.08 5.43q-2.595 1.74-5.91 1.74c-1.76 0-3.17-.62-4.22-1.88s-1.58-2.86-1.58-4.8c0-1.76.45-4.34 1.34-7.74l1.78-7.02c.65-2.54 1.08-4.41 1.28-5.63.2-1.21.3-2.2.3-2.96 0-1.86-.31-3.21-.93-4.03s-1.63-1.24-3.04-1.24c-1.13 0-2.35.43-3.65 1.28-1.29.85-2.66 2.18-4.09 3.97q-2.145 2.7-3.51 5.31c-.9 1.74-1.62 3.87-2.16 6.38l-3.69 17.71h-7.01l4.66-20.58c.56-2.52.95-4.37 1.15-5.58.2-1.2.31-2.23.31-3.1 0-1.94-.35-3.33-1.04-4.15s-1.76-1.24-3.22-1.24c-1.03 0-2.19.43-3.51 1.28-1.31.85-2.7 2.22-4.19 4.09-1.49 1.88-2.65 3.69-3.48 5.41-.84 1.73-1.54 3.84-2.11 6.33l-3.85 17.54h-7.01l5.91-25.69c.6-2.59.89-4.59.89-6 0-1.08-.17-1.86-.52-2.35-.35-.48-.91-.73-1.66-.73-.84 0-1.73.35-2.66 1.04-.93.68-2.21 1.93-3.83 3.74l-2.31-2.26c2.38-2.49 4.43-4.31 6.14-5.46 1.72-1.14 3.6-1.72 5.66-1.72m-71.28-16.53c2.46 0 4.73.15 6.83.44q3.135.45 6.99 1.62l-2.43 10.99h-3.89c-.22-3.33-.94-5.72-2.17-7.2-1.23-1.47-3.21-2.21-5.94-2.21-3.73 0-7.19 1.87-10.4 5.6-3.2 3.73-5.73 8.65-7.59 14.77-1.87 6.12-2.8 11.8-2.8 17.04 0 4.11.73 7.13 2.19 9.08 1.46 1.94 3.7 2.92 6.73 2.92 2.02 0 3.79-.31 5.3-.92 1.52-.6 2.94-1.63 4.26-3.08 1.32-1.44 2.63-3.46 3.93-6.05h3.89l-2.47 11.51c-5.05 1.4-10.35 2.1-15.89 2.1-5.08 0-8.94-1.46-11.59-4.37-2.65-2.92-3.97-7.19-3.97-12.81q0-5.955 2.13-13.74c1.42-5.19 3.42-9.74 6.02-13.66 2.59-3.91 5.66-6.9 9.2-8.95 3.54-2.06 7.43-3.08 11.67-3.08"/><text x="3209.27" y="-1497.07" fill-opacity="0" font-family="Arial,Arial_MSFontService,sans-serif" font-size="73.395">𝐶𝑜𝑚𝑝𝑎𝑟𝑒</text><path d="M411.5-1816.08h694.32v9.16H411.5Zm689.74-18.34 45.83 22.92-45.83 22.92Z"/><path fill-rule="evenodd" d="M962.265-1721.63h16.211l-.446 1.98c-1.026.22-1.763.46-2.208.73s-.845.68-1.196 1.22-.716 1.38-1.094 2.53q-.567 1.725-1.419 5.61l-2.877 12.93h1.337q1.702 0 3.101-.57c.932-.37 2.019-1.06 3.262-2.06s3.222-2.84 5.937-5.51c2.716-2.68 4.647-4.71 5.796-6.1 1.148-1.4 1.986-2.6 2.512-3.61.527-1.01.791-1.94.791-2.78 0-.67-.271-1.22-.811-1.64q-.81-.63-2.31-.75l.446-1.98h17.383l-.44 1.98c-1.08.16-2.31.72-3.67 1.68s-3.452 2.83-6.262 5.62l-15.725 15.32 8.633 20.75q1.337 3.195 2.209 4.62.87 1.41 2.087 2.25 1.215.825 2.999 1.11l-.446 1.99h-15.644l.446-1.99c1.459-.13 2.189-.78 2.189-1.94 0-.73-.149-1.57-.446-2.5a41 41 0 0 0-1.054-2.9l-5.268-12.88c-.622-1.54-1.162-2.62-1.621-3.25q-.69-.93-1.459-1.29c-.514-.25-1.311-.37-2.392-.37h-2.269l-3.364 15.32c-.351 1.62-.581 2.9-.689 3.83s-.162 1.77-.162 2.49q0 1.83.912 2.58c.608.5 1.628.8 3.06.91l-.446 1.99h-16.211l.446-1.99c1.026-.16 1.796-.43 2.31-.79.513-.36.945-.87 1.297-1.52q.526-.975.972-2.37c.298-.93.743-2.74 1.338-5.41l6.889-31.21c.595-2.7.892-4.87.892-6.52 0-1.27-.317-2.16-.952-2.66q-.953-.75-3.02-.87Z"/><text x="951.647" y="-1673.23" fill-opacity="0" font-family="Arial,Arial_MSFontService,sans-serif" font-size="55.32">𝐾</text><path d="M985.083-1629.5v119.74h-9.166v-119.74Zm18.337 115.16-22.92 45.83-22.917-45.83ZM287.917-1657.5v303.025h164.179v-9.167H292.5l4.583 4.583V-1657.5Zm159.596 321.358 45.833-22.917-45.833-22.916Zm641.987-18.385h171.254v-306.718h-9.167v302.135l4.583-4.583H1089.5Zm189.587-302.135-22.917-45.833-22.916 45.833Zm86.422-150.645 280.488-.53-.017-9.167-280.489.53Zm275.939 17.812 45.79-23.004-45.877-22.83Z"/><path fill-rule="evenodd" d="M2977.59-1560.65h16.22l-.45 1.99c-1.03.22-1.76.46-2.21.73-.44.27-.84.68-1.19 1.22-.36.54-.72 1.38-1.1 2.53s-.85 3.02-1.42 5.61l-2.87 12.93h1.33c1.14 0 2.17-.19 3.1-.57.94-.38 2.02-1.06 3.27-2.06 1.24-1 3.22-2.84 5.93-5.52 2.72-2.67 4.65-4.7 5.8-6.1 1.15-1.39 1.98-2.59 2.51-3.6.53-1.02.79-1.94.79-2.78 0-.67-.27-1.22-.81-1.64q-.81-.63-2.31-.75l.45-1.99h17.38l-.44 1.99c-1.08.16-2.31.72-3.67 1.68-1.37.96-3.45 2.83-6.26 5.62l-15.73 15.32 8.64 20.75c.89 2.13 1.62 3.67 2.2 4.62.59.94 1.28 1.69 2.09 2.24.81.56 1.81.93 3 1.12l-.45 1.98h-15.64l.45-1.98c1.46-.14 2.19-.78 2.19-1.95q0-1.095-.45-2.49c-.3-.93-.65-1.9-1.05-2.9l-5.27-12.88c-.62-1.54-1.16-2.62-1.62-3.25-.46-.62-.95-1.05-1.46-1.29-.52-.25-1.31-.37-2.39-.37h-2.27l-3.37 15.32c-.35 1.62-.58 2.9-.69 3.83-.1.93-.16 1.76-.16 2.49 0 1.22.31 2.08.91 2.58.61.5 1.63.8 3.06.91l-.44 1.98h-16.21l.44-1.98c1.03-.16 1.8-.43 2.31-.79.52-.37.95-.87 1.3-1.52s.68-1.44.97-2.37c.3-.93.75-2.74 1.34-5.41l6.89-31.21c.59-2.7.89-4.88.89-6.52 0-1.27-.32-2.16-.95-2.66-.64-.5-1.64-.79-3.02-.87Z"/><text x="2966.98" y="-1512.24" fill-opacity="0" font-family="Arial,Arial_MSFontService,sans-serif" font-size="55.32">𝐾</text><path d="M3000.083-1601.65v-59.605h-9.166v59.605Zm18.334-55.021-22.917-45.834-22.916 45.834Zm86.083-159.409h272.26v173.43h-9.16v-168.85l4.58 4.58H3104.5Zm290.6 168.84-22.92 45.84-22.92-45.84Zm-1477.6-12.84h252.23v273.77l-4.58-4.58h206.4v9.16h-210.98v-273.77l4.58 4.58H1917.5Zm449.47 250.85 45.83 22.92-45.83 22.92Z"/><path fill-rule="evenodd" d="M1622.01-1536.16h37.29l-2.8 12.44h-3.89c-.11-2.35-.31-4.12-.61-5.31s-.65-2-1.07-2.45a3.05 3.05 0 0 0-1.5-.89c-.58-.15-1.41-.22-2.49-.22h-13.22l-4.62 21.23h7.74c1.92 0 3.39-.45 4.4-1.36q1.53-1.35 3.06-4.47h3.69l-3.65 15.56h-3.44c0-2.16-.14-3.63-.41-4.4s-.67-1.25-1.19-1.46c-.53-.2-1.48-.3-2.86-.3h-8.11l-5.18 23.38h11.99c1.6 0 2.86-.16 3.79-.48.93-.33 1.81-.85 2.64-1.58.82-.73 1.64-1.75 2.47-3.06.82-1.31 1.8-3.09 2.94-5.33h3.93l-3.57 14.02h-35.95l.45-1.99c1.03-.16 1.8-.42 2.31-.79.51-.36.95-.87 1.3-1.52.35-.64.67-1.44.97-2.37s.74-2.73 1.34-5.41l6.89-31.2c.59-2.71.89-4.88.89-6.53 0-1.27-.32-2.15-.95-2.65-.64-.5-1.65-.79-3.02-.87Z"/><text x="1611.39" y="-1487.76" fill-opacity="0" font-family="Arial,Arial_MSFontService,sans-serif" font-size="55.32">𝐸</text><path fill-rule="evenodd" d="M1665.55-1502.63h12.57l-.33 1.79c-.46.12-.85.22-1.16.3-.32.08-.6.2-.85.35-.25.16-.46.38-.64.64-.18.27-.36.64-.52 1.11-.17.46-.35 1.05-.54 1.75-.19.71-.4 1.58-.64 2.61l-1.94 8.76h.84c.45 0 .87-.03 1.25-.09s.75-.17 1.11-.31c.37-.15.75-.36 1.14-.62.38-.25.83-.58 1.32-.98 2.07-1.61 3.79-3.05 5.18-4.32q2.085-1.905 3.39-3.36c.86-.98 1.47-1.81 1.84-2.49.37-.69.55-1.26.55-1.71 0-.48-.19-.85-.56-1.12-.38-.27-1-.41-1.85-.43l.33-1.88h13.55l-.42 1.88c-.45.04-.89.13-1.29.27-.41.14-.88.39-1.42.76-.53.36-1.17.87-1.92 1.52-.74.64-1.68 1.48-2.81 2.51l-11.62 10.49 6.73 14c.52 1.09.97 1.95 1.34 2.59.38.63.77 1.14 1.16 1.52.4.37.85.65 1.36.81.51.17 1.14.33 1.89.47l-.48 1.81h-12.27l.42-1.81c.56-.04.97-.17 1.25-.38.28-.2.42-.47.42-.79a10 10 0 0 0-.09-.68c-.04-.24-.11-.5-.21-.79s-.23-.63-.39-1.01c-.16-.39-.35-.85-.59-1.39l-3.99-8.52c-.34-.75-.64-1.35-.91-1.78q-.405-.66-.84-1.02c-.28-.23-.61-.39-.98-.46s-.83-.1-1.38-.1h-1.64c-.16.81-.35 1.69-.57 2.62s-.44 1.88-.65 2.84q-.33 1.455-.63 2.85c-.2.93-.38 1.8-.54 2.6-.15.81-.28 1.52-.38 2.15-.1.62-.15 1.11-.15 1.44 0 .84.24 1.43.73 1.78.48.34 1.31.56 2.49.64l-.48 1.81h-12.54l.33-1.81c.61-.1 1.11-.22 1.5-.35s.74-.4 1.04-.83c.31-.43.59-1.07.85-1.92.26-.86.56-2.07.9-3.64l4.88-21.71c.2-.87.35-1.65.45-2.32.1-.68.15-1.25.15-1.73q0-1.305-.69-1.86c-.46-.37-1.29-.56-2.5-.58Z"/><text x="1658.19" y="-1468.83" fill-opacity="0" font-family="Arial,Arial_MSFontService,sans-serif" font-size="38.631">𝐾</text><path fill-rule="evenodd" d="M1939.13-1543.16h18.08v77.28h-18.08v-3.12h11.35v-71.04h-11.35Zm-224.9 0h18.08v3.12h-11.35v71.04h11.35v3.12h-18.08Zm32.56 7H1763l-.44 1.99c-1.03.21-1.76.45-2.21.73-.45.27-.84.67-1.2 1.21-.35.54-.71 1.39-1.09 2.53-.38 1.15-.85 3.02-1.42 5.62l-2.75 12.4h21.76l2.75-12.44c.25-1.11.46-2.29.63-3.55.18-1.26.27-2.25.27-2.98 0-1.27-.32-2.15-.96-2.65-.63-.5-1.64-.79-3.02-.87l.45-1.99h16.21l-.44 1.99c-1.03.21-1.77.45-2.21.73-.45.27-.85.67-1.2 1.21s-.72 1.39-1.09 2.53c-.38 1.15-.85 3.02-1.42 5.62l-6.93 31.45c-.35 1.59-.58 2.85-.69 3.79-.11.93-.16 1.77-.16 2.53 0 1.21.3 2.07.91 2.57s1.63.81 3.06.91l-.45 1.99h-16.21l.45-1.99c1.02-.16 1.79-.42 2.31-.79.51-.36.94-.87 1.29-1.52.36-.64.68-1.44.98-2.37.29-.93.74-2.73 1.33-5.41l3.33-15.03h-21.77l-3.36 15.32c-.3 1.35-.51 2.46-.65 3.34-.13.88-.2 1.87-.2 2.98 0 1.16.27 2 .81 2.51s1.59.84 3.16.97l-.44 1.99h-16.22l.45-1.99c1.03-.16 1.8-.42 2.31-.79.51-.36.95-.87 1.3-1.52.35-.64.67-1.44.97-2.37s.74-2.73 1.34-5.41l6.89-31.2c.24-1.11.45-2.29.63-3.55.17-1.26.26-2.25.26-2.98 0-1.27-.32-2.15-.95-2.65-.64-.5-1.64-.79-3.02-.87Z"/><text x="1736.17" y="-1487.76" fill-opacity="0" font-family="Arial,Arial_MSFontService,sans-serif" font-size="55.32">𝐻</text><path fill-rule="evenodd" d="M1905.78-1542.95q11.835 3.12 18.18 13.47c4.23 6.9 6.34 15.23 6.34 24.99 0 9.78-2.1 18.1-6.32 24.98-4.21 6.88-10.28 11.36-18.2 13.44l-.97-3.12c6.24-2.09 10.88-6.19 13.92-12.33 3.04-6.13 4.56-13.92 4.56-23.38 0-9.13-1.51-16.72-4.54-22.76-3.02-6.03-7.71-10.09-14.06-12.17Zm-77.54 0 1.1 3.12c-6.33 2.08-11.01 6.14-14.05 12.17-3.04 6.04-4.56 13.63-4.56 22.76 0 9.46 1.52 17.25 4.56 23.38 3.04 6.14 7.68 10.24 13.92 12.33l-.97 3.12c-7.92-2.08-13.98-6.56-18.2-13.44-4.21-6.88-6.32-15.2-6.32-24.98 0-9.76 2.12-18.09 6.34-24.99q6.345-10.35 18.18-13.47m15.27 6.79h14.47l4.62 39.31 23.63-39.31h12.76l-.44 1.99c-1.03.21-1.76.45-2.21.73-.45.27-.85.67-1.22 1.21-.36.54-.73 1.39-1.09 2.53-.37 1.15-.83 3.02-1.4 5.62l-6.93 31.45c-.35 1.59-.58 2.85-.69 3.79-.11.93-.16 1.77-.16 2.53 0 1.21.3 2.07.91 2.57s1.63.81 3.06.91l-.44 1.99h-16.22l.45-1.99c1.03-.16 1.8-.42 2.31-.79.51-.36.95-.87 1.3-1.52.35-.64.67-1.44.97-2.37s.74-2.73 1.34-5.41l5.39-24.44c.75-3.37 1.62-6.74 2.59-10.09h-.57c-.83 1.6-2.72 4.84-5.67 9.73l-18.44 30.44h-4.42l-3.36-26.06c-.49-3.68-1.03-8.62-1.62-14.84h-.81c-.92 6.06-1.95 11.66-3.08 16.82l-4.14 18.73c-.56 2.56-.85 4.67-.85 6.32 0 1.21.31 2.07.91 2.57.61.5 1.63.81 3.06.91l-.44 1.99h-14.19l.45-1.99c1.03-.16 1.8-.42 2.31-.79.51-.36.95-.87 1.3-1.52.35-.64.67-1.44.97-2.37s.74-2.73 1.34-5.41l6.89-31.2c.27-1.17.48-2.27.64-3.33.17-1.05.25-2.12.25-3.2 0-1.27-.32-2.15-.95-2.65-.64-.5-1.65-.79-3.02-.87Z"/><text x="1832.89" y="-1487.76" fill-opacity="0" font-family="Arial,Arial_MSFontService,sans-serif" font-size="55.32">𝑀</text><path d="m1917.5-1817.08 927.69.58-.01 9.17-927.68-.59Zm923.11-17.76 45.82 22.95-45.85 22.89Z"/><path fill="#fdefe8" fill-rule="evenodd" d="M493-1359.5c0-60.48 48.801-109.5 109-109.5s109 49.02 109 109.5S662.199-1250 602-1250s-109-49.02-109-109.5"/><path fill="#d74514" fill-rule="evenodd" d="M580.115-1385.12H600.5l-.567 2.67c-1.54.43-2.675 1.19-3.404 2.27q-1.095 1.62-2.067 6l-2.837 12.85h17.183l2.837-12.85c.351-1.59.527-3.18.527-4.74q0-1.71-.79-2.49c-.527-.53-1.385-.88-2.574-1.04l.568-2.67h20.385l-.567 2.67c-1.54.43-2.675 1.19-3.405 2.27q-1.094 1.62-2.067 6l-7.376 33.43q-.284 1.305-.405 2.25c-.081.64-.121 1.47-.121 2.5q0 1.695.79 2.49c.527.53 1.385.87 2.573 1.03l-.567 2.68h-20.385l.567-2.68c1.54-.43 2.675-1.19 3.404-2.27q1.095-1.62 2.067-6l3.405-15.48H590.49l-3.404 15.48c-.19.9-.325 1.65-.406 2.27-.081.63-.121 1.45-.121 2.48q0 1.695.79 2.49c.527.53 1.385.87 2.574 1.03l-.568 2.68H568.97l.567-2.68c1.54-.43 2.675-1.19 3.405-2.27q1.094-1.62 2.066-6l7.376-33.43c.352-1.59.527-3.18.527-4.74q0-1.71-.79-2.49c-.527-.53-1.385-.88-2.573-1.04Z"/><text x="568.97" y="-1336.72" fill-opacity="0" font-family="Arial,Arial_MSFontService,sans-serif" font-size="55.32">𝑯</text><path d="M711.5-1363.08h118.049v9.16H711.5Zm113.466-18.34 45.833 22.92-45.833 22.92Z"/><path fill="#fdefe8" fill-rule="evenodd" d="M2412-1387c0-60.2 49.02-109 109.5-109s109.5 48.8 109.5 109-49.02 109-109.5 109-109.5-48.8-109.5-109"/><path fill="#d74514" fill-rule="evenodd" d="M2499.38-1412.69h20.39l-.57 2.68c-1.54.43-2.68 1.19-3.4 2.27-.73 1.08-1.42 3.08-2.07 5.99l-2.84 12.85h17.18l2.84-12.85c.35-1.59.53-3.17.53-4.74 0-1.13-.26-1.96-.79-2.49s-1.39-.87-2.58-1.03l.57-2.68h20.39l-.57 2.68c-1.54.43-2.67 1.19-3.4 2.27s-1.42 3.08-2.07 5.99l-7.38 33.44c-.19.86-.32 1.61-.4 2.25q-.12.945-.12 2.49c0 1.14.26 1.97.79 2.49.52.53 1.38.87 2.57 1.04l-.57 2.67h-20.38l.56-2.67c1.54-.44 2.68-1.19 3.41-2.27q1.095-1.62 2.07-6l3.4-15.48h-17.18l-3.41 15.48c-.19.89-.32 1.65-.4 2.27s-.12 1.44-.12 2.47c0 1.14.26 1.97.79 2.49.52.53 1.38.87 2.57 1.04l-.57 2.67h-20.38l.56-2.67c1.54-.44 2.68-1.19 3.41-2.27q1.095-1.62 2.07-6l7.37-33.44c.35-1.59.53-3.17.53-4.74 0-1.13-.27-1.96-.79-2.49-.53-.53-1.39-.87-2.58-1.03Z"/><text x="2488.24" y="-1364.28" fill-opacity="0" font-family="Arial,Arial_MSFontService,sans-serif" font-size="55.32">𝑯</text><path d="M2631.5-1382.237h745.894v-45.01h-9.166v40.427l4.583-4.583H2631.5Zm764.228-40.426-22.917-45.833-22.917 45.833Z"/></g></svg>