<svg width="3114" height="810" xmlns="http://www.w3.org/2000/svg" xmlns:xlink="http://www.w3.org/1999/xlink" overflow="hidden"><defs><clipPath id="clip0"><rect x="534" y="515" width="3114" height="810"/></clipPath></defs><g clip-path="url(#clip0)" transform="translate(-534 -515)"><rect x="621" y="515" width="369" height="219" fill="#FDEFE8"/><path d="M774.861 617.325C772.348 617.325 770.119 618.588 768.174 621.115 766.229 623.641 764.662 627.038 763.473 631.307 762.284 635.576 761.69 639.399 761.69 642.776 761.69 644.749 761.98 646.221 762.561 647.194 763.142 648.167 764.04 648.653 765.256 648.653 767.039 648.653 768.856 647.782 770.707 646.039 772.558 644.296 774.05 642.25 775.185 639.899 776.32 637.548 777.333 634.333 778.225 630.254L778.549 628.754C778.981 626.755 779.197 624.755 779.197 622.756 779.197 620.973 778.86 619.622 778.184 618.703 777.509 617.785 776.401 617.325 774.861 617.325ZM774.375 613.11C778.4 613.11 781.832 614.083 784.669 616.028L788.6 613.11 793.139 613.759 786.573 641.318C786.168 643.02 785.965 644.56 785.965 645.938 785.965 646.829 786.114 647.518 786.411 648.005 786.708 648.491 787.222 648.734 787.951 648.734 788.789 648.734 789.694 648.356 790.667 647.599 791.639 646.843 792.774 645.721 794.071 644.235L796.989 647.153C794.152 649.99 791.707 651.942 789.653 653.01 787.6 654.077 785.439 654.61 783.169 654.61 780.9 654.61 779.103 653.982 777.779 652.726 776.455 651.47 775.793 649.815 775.793 647.761 775.793 647.086 775.874 646.437 776.036 645.816L775.469 645.735C773.497 648.059 771.801 649.808 770.383 650.983 768.964 652.159 767.458 653.057 765.864 653.678 764.27 654.3 762.5 654.61 760.555 654.61 757.313 654.61 754.854 653.509 753.179 651.307 751.504 649.106 750.666 645.897 750.666 641.682 750.666 638.035 751.193 634.414 752.247 630.821 753.3 627.227 754.813 624.127 756.786 621.52 758.758 618.913 761.237 616.859 764.223 615.36 767.208 613.86 770.592 613.11 774.375 613.11Z" fill="#D74514" fill-rule="evenodd"/><text fill="#000000" fill-opacity="0" font-family="Arial,Arial_MSFontService,sans-serif" font-size="41.5" x="750.666" y="649.423">𝒂</text><path d="M808.272 640.782C809.92 640.782 811.236 641.244 812.218 642.167 813.201 643.091 813.693 644.307 813.693 645.816 813.693 646.312 813.633 646.789 813.514 647.246L813.812 647.484C815.678 645.161 817.451 643.463 819.129 642.391 820.807 641.318 822.767 640.782 825.011 640.782 827.056 640.782 828.66 641.358 829.821 642.51 830.983 643.662 831.564 645.23 831.564 647.216 831.564 647.851 831.499 648.646 831.37 649.599 831.241 650.552 831.087 651.396 830.909 652.13L828.556 661.423C828.218 662.754 828.049 663.915 828.049 664.908 828.049 665.683 828.178 666.219 828.436 666.517 828.695 666.815 829.062 666.964 829.539 666.964 830.114 666.964 830.76 666.69 831.475 666.144 832.189 665.598 833.033 664.769 834.006 663.657L836.151 665.802C834.205 667.788 832.462 669.197 830.924 670.031 829.385 670.865 827.692 671.282 825.845 671.282 823.74 671.282 822.201 670.761 821.228 669.719 820.255 668.676 819.769 667.142 819.769 665.117 819.769 663.667 820.057 661.811 820.633 659.547L821.943 654.603C822.281 653.332 822.569 652.076 822.807 650.835 823.045 649.594 823.164 648.576 823.164 647.782 823.164 646.888 822.976 646.223 822.599 645.786 822.221 645.349 821.685 645.131 820.99 645.131 820.017 645.131 818.905 645.707 817.654 646.859 816.403 648.01 815.401 649.226 814.646 650.507 813.891 651.788 813.296 653.461 812.859 655.526L809.523 670.806 800.975 670.806 805.77 650.105C806.068 648.814 806.217 647.831 806.217 647.156 806.217 646.501 806.108 645.995 805.889 645.637 805.671 645.28 805.293 645.101 804.757 645.101 804.142 645.101 803.477 645.379 802.762 645.935 802.047 646.491 801.213 647.315 800.26 648.407L798.115 646.263C800.101 644.237 801.863 642.818 803.402 642.004 804.941 641.189 806.564 640.782 808.272 640.782Z" fill="#D74514" fill-rule="evenodd"/><text fill="#000000" fill-opacity="0" font-family="Arial,Arial_MSFontService,sans-serif" font-size="30.5" x="798.115" y="667.47">𝒏</text><rect x="1241" y="515" width="369" height="219" fill="#FDEFE8"/><path d="M1354.78 617.325C1352.27 617.325 1350.04 618.588 1348.09 621.115 1346.15 623.641 1344.58 627.038 1343.39 631.307 1342.2 635.576 1341.61 639.399 1341.61 642.776 1341.61 644.749 1341.9 646.221 1342.48 647.194 1343.06 648.167 1343.96 648.653 1345.17 648.653 1346.96 648.653 1348.77 647.782 1350.62 646.039 1352.47 644.296 1353.97 642.25 1355.1 639.899 1356.24 637.548 1357.25 634.333 1358.14 630.254L1358.47 628.754C1358.9 626.755 1359.11 624.755 1359.11 622.756 1359.11 620.973 1358.78 619.622 1358.1 618.703 1357.43 617.785 1356.32 617.325 1354.78 617.325ZM1354.29 613.11C1358.32 613.11 1361.75 614.083 1364.59 616.028L1368.52 613.11 1373.06 613.759 1366.49 641.318C1366.09 643.02 1365.88 644.56 1365.88 645.938 1365.88 646.829 1366.03 647.518 1366.33 648.005 1366.63 648.491 1367.14 648.734 1367.87 648.734 1368.71 648.734 1369.61 648.356 1370.58 647.599 1371.56 646.843 1372.69 645.721 1373.99 644.235L1376.91 647.153C1374.07 649.99 1371.62 651.942 1369.57 653.01 1367.52 654.077 1365.36 654.61 1363.09 654.61 1360.82 654.61 1359.02 653.982 1357.7 652.726 1356.37 651.47 1355.71 649.815 1355.71 647.761 1355.71 647.086 1355.79 646.437 1355.95 645.816L1355.39 645.735C1353.41 648.059 1351.72 649.808 1350.3 650.983 1348.88 652.159 1347.38 653.057 1345.78 653.678 1344.19 654.3 1342.42 654.61 1340.47 654.61 1337.23 654.61 1334.77 653.509 1333.1 651.307 1331.42 649.106 1330.58 645.897 1330.58 641.682 1330.58 638.035 1331.11 634.414 1332.16 630.821 1333.22 627.227 1334.73 624.127 1336.7 621.52 1338.68 618.913 1341.15 616.859 1344.14 615.36 1347.13 613.86 1350.51 613.11 1354.29 613.11Z" fill="#D74514" fill-rule="evenodd"/><text fill="#000000" fill-opacity="0" font-family="Arial,Arial_MSFontService,sans-serif" font-size="41.5" x="1330.58" y="649.423">𝒂</text><path d="M1388.19 640.782C1389.84 640.782 1391.15 641.244 1392.14 642.167 1393.12 643.091 1393.61 644.307 1393.61 645.816 1393.61 646.312 1393.55 646.789 1393.43 647.246L1393.73 647.484C1395.6 645.161 1397.37 643.463 1399.05 642.391 1400.72 641.318 1402.68 640.782 1404.93 640.782 1406.97 640.782 1408.58 641.358 1409.74 642.51 1410.9 643.662 1411.48 645.23 1411.48 647.216 1411.48 647.851 1411.42 648.646 1411.29 649.599 1411.16 650.552 1411 651.396 1410.83 652.13L1408.47 661.423C1408.14 662.754 1407.97 663.915 1407.97 664.908 1407.97 665.683 1408.1 666.219 1408.35 666.517 1408.61 666.815 1408.98 666.964 1409.46 666.964 1410.03 666.964 1410.68 666.69 1411.39 666.144 1412.11 665.598 1412.95 664.769 1413.92 663.657L1416.07 665.802C1414.12 667.788 1412.38 669.197 1410.84 670.031 1409.3 670.865 1407.61 671.282 1405.76 671.282 1403.66 671.282 1402.12 670.761 1401.15 669.719 1400.17 668.676 1399.69 667.142 1399.69 665.117 1399.69 663.667 1399.97 661.811 1400.55 659.547L1401.86 654.603C1402.2 653.332 1402.49 652.076 1402.72 650.835 1402.96 649.594 1403.08 648.576 1403.08 647.782 1403.08 646.888 1402.89 646.223 1402.52 645.786 1402.14 645.349 1401.6 645.131 1400.91 645.131 1399.93 645.131 1398.82 645.707 1397.57 646.859 1396.32 648.01 1395.32 649.226 1394.56 650.507 1393.81 651.788 1393.21 653.461 1392.78 655.526L1389.44 670.806 1380.89 670.806 1385.69 650.105C1385.99 648.814 1386.13 647.831 1386.13 647.156 1386.13 646.501 1386.02 645.995 1385.81 645.637 1385.59 645.28 1385.21 645.101 1384.67 645.101 1384.06 645.101 1383.39 645.379 1382.68 645.935 1381.96 646.491 1381.13 647.315 1380.18 648.407L1378.03 646.263C1380.02 644.237 1381.78 642.818 1383.32 642.004 1384.86 641.189 1386.48 640.782 1388.19 640.782Z" fill="#D74514" fill-rule="evenodd"/><text fill="#000000" fill-opacity="0" font-family="Arial,Arial_MSFontService,sans-serif" font-size="30.5" x="1378.03" y="667.47">𝒏</text><path d="M1421.31 651.088 1455.62 651.088 1455.62 655.645 1421.31 655.645Z" fill="#D74514" fill-rule="evenodd"/><text fill="#000000" fill-opacity="0" font-family="Arial,Arial_MSFontService,sans-serif" font-size="4.55713" x="1421.31" y="655.076">−</text><path d="M1480.25 629.672 1484.06 629.672C1483.94 631.579 1483.88 634.22 1483.88 637.595L1483.88 662.496C1483.88 663.647 1483.95 664.516 1484.08 665.102 1484.21 665.688 1484.44 666.164 1484.76 666.532 1485.09 666.899 1485.56 667.187 1486.18 667.395 1486.79 667.604 1487.57 667.763 1488.5 667.872 1489.43 667.981 1490.67 668.056 1492.19 668.095L1492.19 670.806 1466.49 670.806 1466.49 668.095C1468.69 667.996 1470.27 667.862 1471.21 667.693 1472.15 667.524 1472.87 667.271 1473.37 666.934 1473.87 666.596 1474.23 666.12 1474.46 665.504 1474.69 664.888 1474.8 663.886 1474.8 662.496L1474.8 640.961C1474.8 640.147 1474.65 639.561 1474.34 639.204 1474.03 638.846 1473.61 638.668 1473.07 638.668 1472.58 638.668 1471.88 638.896 1470.97 639.353 1470.07 639.809 1468.58 640.743 1466.52 642.152L1464.7 638.995Z" fill="#D74514" fill-rule="evenodd"/><text fill="#000000" fill-opacity="0" font-family="Arial,Arial_MSFontService,sans-serif" font-size="41.1333" x="1464.7" y="665.664">𝟏</text><rect x="2186" y="515" width="369" height="219" fill="#FDEFE8"/><path d="M2341.68 617.325C2339.17 617.325 2336.94 618.588 2334.99 621.115 2333.05 623.641 2331.48 627.038 2330.29 631.307 2329.1 635.576 2328.51 639.399 2328.51 642.776 2328.51 644.749 2328.8 646.221 2329.38 647.194 2329.96 648.167 2330.86 648.653 2332.07 648.653 2333.86 648.653 2335.67 647.782 2337.52 646.039 2339.37 644.296 2340.87 642.25 2342 639.899 2343.14 637.548 2344.15 634.333 2345.04 630.254L2345.37 628.754C2345.8 626.755 2346.01 624.755 2346.01 622.756 2346.01 620.973 2345.68 619.622 2345 618.703 2344.33 617.785 2343.22 617.325 2341.68 617.325ZM2341.19 613.11C2345.22 613.11 2348.65 614.083 2351.49 616.028L2355.42 613.11 2359.96 613.759 2353.39 641.318C2352.98 643.02 2352.78 644.56 2352.78 645.938 2352.78 646.829 2352.93 647.518 2353.23 648.005 2353.53 648.491 2354.04 648.734 2354.77 648.734 2355.61 648.734 2356.51 648.356 2357.48 647.599 2358.46 646.843 2359.59 645.721 2360.89 644.235L2363.81 647.153C2360.97 649.99 2358.52 651.942 2356.47 653.01 2354.42 654.077 2352.26 654.61 2349.99 654.61 2347.72 654.61 2345.92 653.982 2344.6 652.726 2343.27 651.47 2342.61 649.815 2342.61 647.761 2342.61 647.086 2342.69 646.437 2342.85 645.816L2342.29 645.735C2340.31 648.059 2338.62 649.808 2337.2 650.983 2335.78 652.159 2334.27 653.057 2332.68 653.678 2331.09 654.3 2329.32 654.61 2327.37 654.61 2324.13 654.61 2321.67 653.509 2320 651.307 2318.32 649.106 2317.48 645.897 2317.48 641.682 2317.48 638.035 2318.01 634.414 2319.06 630.821 2320.12 627.227 2321.63 624.127 2323.6 621.52 2325.57 618.913 2328.05 616.859 2331.04 615.36 2334.02 613.86 2337.41 613.11 2341.19 613.11Z" fill="#D74514" fill-rule="evenodd"/><text fill="#000000" fill-opacity="0" font-family="Arial,Arial_MSFontService,sans-serif" font-size="41.5" x="2317.48" y="649.423">𝒂</text><path d="M2382.33 629.672C2385.25 629.672 2387.63 630.065 2389.47 630.849 2391.32 631.633 2392.66 632.696 2393.48 634.036 2394.3 635.376 2394.72 636.94 2394.72 638.727 2394.72 640.296 2394.42 641.755 2393.84 643.106 2393.25 644.456 2392.24 645.995 2390.8 647.722 2389.36 649.45 2386.93 651.922 2383.52 655.139 2382.47 656.132 2381.21 657.437 2379.75 659.056 2378.29 660.674 2377.13 662.059 2376.28 663.211L2376.28 663.508 2386.85 663.508C2388.14 663.508 2389.11 663.414 2389.74 663.225 2390.38 663.037 2390.88 662.709 2391.25 662.243 2391.61 661.776 2391.92 661.076 2392.16 660.143L2395.58 660.143 2394.9 670.806 2367.61 670.806 2367.61 668.84C2369.14 665.325 2372.27 660.798 2376.99 655.258 2379.14 652.736 2380.77 650.661 2381.89 649.033 2383.02 647.405 2383.86 645.866 2384.41 644.416 2384.97 642.967 2385.25 641.467 2385.25 639.919 2385.25 637.734 2384.76 636.022 2383.79 634.781 2382.81 633.54 2381.48 632.919 2379.79 632.919 2376.56 632.919 2374.48 635.252 2373.57 639.919L2368.21 639.919 2368.21 632.889C2371.44 631.579 2374.06 630.715 2376.04 630.298 2378.03 629.881 2380.12 629.672 2382.33 629.672Z" fill="#D74514" fill-rule="evenodd"/><text fill="#000000" fill-opacity="0" font-family="Arial,Arial_MSFontService,sans-serif" font-size="41.1333" x="2367.61" y="665.664">𝟐</text><rect x="2802" y="515" width="369" height="219" fill="#FDEFE8"/><path d="M2957.04 617.325C2954.53 617.325 2952.3 618.588 2950.35 621.115 2948.41 623.641 2946.84 627.038 2945.65 631.307 2944.46 635.576 2943.87 639.399 2943.87 642.776 2943.87 644.749 2944.16 646.221 2944.74 647.194 2945.32 648.167 2946.22 648.653 2947.43 648.653 2949.22 648.653 2951.03 647.782 2952.88 646.039 2954.74 644.296 2956.23 642.25 2957.36 639.899 2958.5 637.548 2959.51 634.333 2960.4 630.254L2960.73 628.754C2961.16 626.755 2961.38 624.755 2961.38 622.756 2961.38 620.973 2961.04 619.622 2960.36 618.703 2959.69 617.785 2958.58 617.325 2957.04 617.325ZM2956.55 613.11C2960.58 613.11 2964.01 614.083 2966.85 616.028L2970.78 613.11 2975.32 613.759 2968.75 641.318C2968.35 643.02 2968.14 644.56 2968.14 645.938 2968.14 646.829 2968.29 647.518 2968.59 648.005 2968.89 648.491 2969.4 648.734 2970.13 648.734 2970.97 648.734 2971.87 648.356 2972.84 647.599 2973.82 646.843 2974.95 645.721 2976.25 644.235L2979.17 647.153C2976.33 649.99 2973.88 651.942 2971.83 653.01 2969.78 654.077 2967.62 654.61 2965.35 654.61 2963.08 654.61 2961.28 653.982 2959.96 652.726 2958.63 651.47 2957.97 649.815 2957.97 647.761 2957.97 647.086 2958.05 646.437 2958.21 645.816L2957.65 645.735C2955.67 648.059 2953.98 649.808 2952.56 650.983 2951.14 652.159 2949.64 653.057 2948.04 653.678 2946.45 654.3 2944.68 654.61 2942.73 654.61 2939.49 654.61 2937.03 653.509 2935.36 651.307 2933.68 649.106 2932.84 645.897 2932.84 641.682 2932.84 638.035 2933.37 634.414 2934.42 630.821 2935.48 627.227 2936.99 624.127 2938.96 621.52 2940.94 618.913 2943.41 616.859 2946.4 615.36 2949.39 613.86 2952.77 613.11 2956.55 613.11Z" fill="#D74514" fill-rule="evenodd"/><text fill="#000000" fill-opacity="0" font-family="Arial,Arial_MSFontService,sans-serif" font-size="41.5" x="2932.84" y="649.423">𝒂</text><path d="M3000.01 629.672 3003.82 629.672C3003.7 631.579 3003.64 634.22 3003.64 637.595L3003.64 662.496C3003.64 663.647 3003.71 664.516 3003.84 665.102 3003.97 665.688 3004.2 666.164 3004.52 666.532 3004.85 666.899 3005.32 667.187 3005.94 667.395 3006.55 667.604 3007.33 667.763 3008.26 667.872 3009.19 667.981 3010.43 668.056 3011.95 668.095L3011.95 670.806 2986.25 670.806 2986.25 668.095C2988.45 667.996 2990.03 667.862 2990.97 667.693 2991.91 667.524 2992.63 667.271 2993.13 666.934 2993.63 666.596 2993.99 666.12 2994.22 665.504 2994.45 664.888 2994.56 663.886 2994.56 662.496L2994.56 640.961C2994.56 640.147 2994.41 639.561 2994.1 639.204 2993.79 638.846 2993.37 638.668 2992.83 638.668 2992.34 638.668 2991.64 638.896 2990.73 639.353 2989.83 639.809 2988.35 640.743 2986.28 642.152L2984.46 638.995Z" fill="#D74514" fill-rule="evenodd"/><text fill="#000000" fill-opacity="0" font-family="Arial,Arial_MSFontService,sans-serif" font-size="41.1333" x="2984.46" y="665.664">𝟏</text><rect x="1315" y="1019" width="1339" height="218" fill="#D74514"/><path d="M1727.67 1099.55C1730.37 1099.55 1732.91 1099.8 1735.29 1100.28L1733.47 1108.39 1728.24 1108.39C1728.13 1106.71 1727.86 1105.53 1727.43 1104.82 1727 1104.12 1726.32 1103.77 1725.4 1103.77 1724.32 1103.77 1723.44 1104.15 1722.77 1104.9 1722.09 1105.66 1721.52 1106.69 1721.07 1107.98 1720.61 1109.28 1720.15 1110.98 1719.69 1113.09L1718.67 1117.55 1727.35 1117.55 1726.25 1122.61 1717.54 1122.61 1710.2 1156.5C1708.77 1163.06 1706.46 1167.93 1703.27 1171.11 1700.09 1174.28 1696.1 1175.87 1691.32 1175.87 1690.16 1175.87 1689.22 1175.8 1688.52 1175.67L1689.49 1171.13C1690.04 1171.21 1690.52 1171.25 1690.95 1171.25 1692.49 1171.25 1693.77 1170.4 1694.78 1168.69 1695.8 1166.99 1696.7 1164.44 1697.48 1161.03L1706.15 1122.61 1700.03 1122.61 1700.76 1119.33C1702.63 1119.31 1703.94 1119.17 1704.71 1118.93 1705.48 1118.68 1706.12 1118.24 1706.62 1117.59 1707.12 1116.94 1707.6 1115.74 1708.06 1113.98 1708.73 1111.42 1709.58 1109.29 1710.61 1107.6 1711.64 1105.91 1712.97 1104.44 1714.62 1103.18 1716.27 1101.93 1718.19 1101.01 1720.4 1100.43 1722.6 1099.85 1725.02 1099.55 1727.67 1099.55Z" fill="#FFFFFF" fill-rule="evenodd"/><text fill="#000000" fill-opacity="0" font-family="Arial,Arial_MSFontService,sans-serif" font-size="76.313" x="1688.52" y="1166.33">𝒇</text><path d="M2223.8 1095.64C2231.69 1097.72 2237.75 1102.21 2241.97 1109.11 2246.2 1116.02 2248.32 1124.34 2248.32 1134.1 2248.32 1143.88 2246.21 1152.21 2241.99 1159.08 2237.78 1165.96 2231.71 1170.44 2223.8 1172.52L2222.82 1169.4C2229.07 1167.32 2233.71 1163.21 2236.75 1157.08 2239.79 1150.94 2241.31 1143.15 2241.31 1133.69 2241.31 1124.56 2239.79 1116.98 2236.77 1110.94 2233.74 1104.9 2229.05 1100.84 2222.7 1098.76ZM1767.35 1095.64 1768.44 1098.76C1762.12 1100.84 1757.44 1104.9 1754.4 1110.94 1751.36 1116.98 1749.84 1124.56 1749.84 1133.69 1749.84 1143.15 1751.36 1150.94 1754.4 1157.08 1757.44 1163.21 1762.08 1167.32 1768.32 1169.4L1767.35 1172.52C1759.43 1170.44 1753.37 1165.96 1749.15 1159.08 1744.94 1152.21 1742.83 1143.88 1742.83 1134.1 1742.83 1124.34 1744.95 1116.02 1749.17 1109.11 1753.4 1102.21 1759.46 1097.72 1767.35 1095.64Z" fill="#FFFFFF" fill-rule="evenodd"/><path d="M1798.22 1121.12C1795.71 1121.12 1793.48 1122.38 1791.54 1124.9 1789.59 1127.43 1788.02 1130.83 1786.84 1135.1 1785.65 1139.37 1785.05 1143.19 1785.05 1146.57 1785.05 1148.54 1785.34 1150.01 1785.92 1150.98 1786.5 1151.96 1787.4 1152.44 1788.62 1152.44 1790.4 1152.44 1792.22 1151.57 1794.07 1149.83 1795.92 1148.09 1797.41 1146.04 1798.55 1143.69 1799.68 1141.34 1800.7 1138.12 1801.59 1134.04L1801.91 1132.54C1802.34 1130.54 1802.56 1128.55 1802.56 1126.55 1802.56 1124.76 1802.22 1123.41 1801.55 1122.49 1800.87 1121.57 1799.76 1121.12 1798.22 1121.12ZM1797.74 1116.9C1801.76 1116.9 1805.19 1117.87 1808.03 1119.82L1811.96 1116.9 1816.5 1117.55 1809.94 1145.11C1809.53 1146.81 1809.33 1148.35 1809.33 1149.73 1809.33 1150.62 1809.48 1151.31 1809.77 1151.79 1810.07 1152.28 1810.58 1152.52 1811.31 1152.52 1812.15 1152.52 1813.06 1152.15 1814.03 1151.39 1815 1150.63 1816.14 1149.51 1817.43 1148.03L1820.35 1150.94C1817.52 1153.78 1815.07 1155.73 1813.02 1156.8 1810.96 1157.87 1808.8 1158.4 1806.53 1158.4 1804.26 1158.4 1802.47 1157.77 1801.14 1156.52 1799.82 1155.26 1799.16 1153.6 1799.16 1151.55 1799.16 1150.88 1799.24 1150.23 1799.4 1149.61L1798.83 1149.53C1796.86 1151.85 1795.16 1153.6 1793.75 1154.77 1792.33 1155.95 1790.82 1156.85 1789.23 1157.47 1787.63 1158.09 1785.86 1158.4 1783.92 1158.4 1780.68 1158.4 1778.22 1157.3 1776.54 1155.1 1774.87 1152.9 1774.03 1149.69 1774.03 1145.47 1774.03 1141.82 1774.56 1138.2 1775.61 1134.61 1776.66 1131.02 1778.18 1127.92 1780.15 1125.31 1782.12 1122.7 1784.6 1120.65 1787.59 1119.15 1790.57 1117.65 1793.96 1116.9 1797.74 1116.9Z" fill="#FFFFFF" fill-rule="evenodd"/><text fill="#000000" fill-opacity="0" font-family="Arial,Arial_MSFontService,sans-serif" font-size="41.5" x="1774.03" y="1153.21">𝒂</text><path d="M1841.2 1133.46 1845.01 1133.46C1844.89 1135.37 1844.83 1138.01 1844.83 1141.39L1844.83 1166.29C1844.83 1167.44 1844.89 1168.31 1845.02 1168.89 1845.15 1169.48 1845.38 1169.95 1845.71 1170.32 1846.04 1170.69 1846.51 1170.98 1847.12 1171.19 1847.74 1171.39 1848.51 1171.55 1849.45 1171.66 1850.38 1171.77 1851.61 1171.85 1853.14 1171.89L1853.14 1174.6 1827.44 1174.6 1827.44 1171.89C1829.64 1171.79 1831.21 1171.65 1832.16 1171.48 1833.1 1171.31 1833.82 1171.06 1834.32 1170.72 1834.81 1170.39 1835.17 1169.91 1835.4 1169.29 1835.63 1168.68 1835.75 1167.68 1835.75 1166.29L1835.75 1144.75C1835.75 1143.94 1835.59 1143.35 1835.28 1142.99 1834.98 1142.64 1834.55 1142.46 1834.02 1142.46 1833.52 1142.46 1832.82 1142.69 1831.92 1143.14 1831.01 1143.6 1829.53 1144.53 1827.46 1145.94L1825.65 1142.79Z" fill="#FFFFFF" fill-rule="evenodd"/><text fill="#000000" fill-opacity="0" font-family="Arial,Arial_MSFontService,sans-serif" font-size="41.1333" x="1825.65" y="1169.45">𝟏</text><path d="M1865.7 1148.35 1872.79 1148.35C1873.17 1150.24 1873.36 1152.11 1873.36 1153.94 1873.36 1155.83 1873.04 1157.56 1872.39 1159.13 1871.74 1160.7 1870.71 1162.26 1869.29 1163.81 1867.87 1165.36 1865.92 1167.07 1863.43 1168.94L1861.24 1166.47C1862.62 1165.17 1863.62 1164 1864.24 1162.96 1864.86 1161.92 1865.31 1160.74 1865.58 1159.41 1865.85 1158.09 1865.99 1156.43 1865.99 1154.43 1865.99 1152.38 1865.89 1150.35 1865.7 1148.35Z" fill="#FFFFFF" fill-rule="evenodd"/><text fill="#000000" fill-opacity="0" font-family="Arial,Arial_MSFontService,sans-serif" font-size="20.5879" x="1861.24" y="1166.36">,</text><path d="M1919.66 1121.12C1917.15 1121.12 1914.92 1122.38 1912.97 1124.9 1911.03 1127.43 1909.46 1130.83 1908.27 1135.1 1907.08 1139.37 1906.49 1143.19 1906.49 1146.57 1906.49 1148.54 1906.78 1150.01 1907.36 1150.98 1907.94 1151.96 1908.84 1152.44 1910.05 1152.44 1911.84 1152.44 1913.65 1151.57 1915.51 1149.83 1917.36 1148.09 1918.85 1146.04 1919.98 1143.69 1921.12 1141.34 1922.13 1138.12 1923.02 1134.04L1923.35 1132.54C1923.78 1130.54 1924 1128.55 1924 1126.55 1924 1124.76 1923.66 1123.41 1922.98 1122.49 1922.31 1121.57 1921.2 1121.12 1919.66 1121.12ZM1919.17 1116.9C1923.2 1116.9 1926.63 1117.87 1929.47 1119.82L1933.4 1116.9 1937.94 1117.55 1931.37 1145.11C1930.97 1146.81 1930.76 1148.35 1930.76 1149.73 1930.76 1150.62 1930.91 1151.31 1931.21 1151.79 1931.51 1152.28 1932.02 1152.52 1932.75 1152.52 1933.59 1152.52 1934.49 1152.15 1935.47 1151.39 1936.44 1150.63 1937.57 1149.51 1938.87 1148.03L1941.79 1150.94C1938.95 1153.78 1936.51 1155.73 1934.45 1156.8 1932.4 1157.87 1930.24 1158.4 1927.97 1158.4 1925.7 1158.4 1923.9 1157.77 1922.58 1156.52 1921.25 1155.26 1920.59 1153.6 1920.59 1151.55 1920.59 1150.88 1920.67 1150.23 1920.83 1149.61L1920.27 1149.53C1918.3 1151.85 1916.6 1153.6 1915.18 1154.77 1913.76 1155.95 1912.26 1156.85 1910.66 1157.47 1909.07 1158.09 1907.3 1158.4 1905.35 1158.4 1902.11 1158.4 1899.65 1157.3 1897.98 1155.1 1896.3 1152.9 1895.46 1149.69 1895.46 1145.47 1895.46 1141.82 1895.99 1138.2 1897.05 1134.61 1898.1 1131.02 1899.61 1127.92 1901.58 1125.31 1903.56 1122.7 1906.04 1120.65 1909.02 1119.15 1912.01 1117.65 1915.39 1116.9 1919.17 1116.9Z" fill="#FFFFFF" fill-rule="evenodd"/><text fill="#000000" fill-opacity="0" font-family="Arial,Arial_MSFontService,sans-serif" font-size="41.5" x="1895.46" y="1153.21">𝒂</text><path d="M1960.31 1133.46C1963.23 1133.46 1965.61 1133.85 1967.46 1134.64 1969.3 1135.42 1970.64 1136.49 1971.46 1137.83 1972.29 1139.17 1972.7 1140.73 1972.7 1142.52 1972.7 1144.09 1972.41 1145.55 1971.82 1146.9 1971.23 1148.25 1970.22 1149.78 1968.78 1151.51 1967.34 1153.24 1964.91 1155.71 1961.5 1158.93 1960.45 1159.92 1959.19 1161.23 1957.73 1162.85 1956.27 1164.46 1955.12 1165.85 1954.26 1167L1954.26 1167.3 1964.84 1167.3C1966.13 1167.3 1967.09 1167.2 1967.72 1167.02 1968.36 1166.83 1968.86 1166.5 1969.23 1166.03 1969.6 1165.57 1969.9 1164.87 1970.14 1163.93L1973.56 1163.93 1972.88 1174.6 1945.59 1174.6 1945.59 1172.63C1947.12 1169.12 1950.25 1164.59 1954.98 1159.05 1957.12 1156.53 1958.75 1154.45 1959.88 1152.82 1961 1151.19 1961.84 1149.66 1962.39 1148.21 1962.95 1146.76 1963.23 1145.26 1963.23 1143.71 1963.23 1141.52 1962.74 1139.81 1961.77 1138.57 1960.79 1137.33 1959.46 1136.71 1957.78 1136.71 1954.54 1136.71 1952.46 1139.04 1951.55 1143.71L1946.19 1143.71 1946.19 1136.68C1949.43 1135.37 1952.04 1134.51 1954.02 1134.09 1956.01 1133.67 1958.1 1133.46 1960.31 1133.46Z" fill="#FFFFFF" fill-rule="evenodd"/><text fill="#000000" fill-opacity="0" font-family="Arial,Arial_MSFontService,sans-serif" font-size="41.1333" x="1945.59" y="1169.45">𝟐</text><path d="M1987.14 1148.35 1994.23 1148.35C1994.61 1150.24 1994.8 1152.11 1994.8 1153.94 1994.8 1155.83 1994.47 1157.56 1993.82 1159.13 1993.18 1160.7 1992.14 1162.26 1990.72 1163.81 1989.31 1165.36 1987.35 1167.07 1984.87 1168.94L1982.68 1166.47C1984.06 1165.17 1985.06 1164 1985.68 1162.96 1986.3 1161.92 1986.75 1160.74 1987.02 1159.41 1987.29 1158.09 1987.42 1156.43 1987.42 1154.43 1987.42 1152.38 1987.33 1150.35 1987.14 1148.35Z" fill="#FFFFFF" fill-rule="evenodd"/><text fill="#000000" fill-opacity="0" font-family="Arial,Arial_MSFontService,sans-serif" font-size="20.5879" x="1982.68" y="1166.36">,</text><path d="M2072.75 1128.82C2074.15 1128.82 2075.33 1129.31 2076.27 1130.29 2077.22 1131.28 2077.69 1132.53 2077.69 1134.04 2077.69 1135.56 2077.22 1136.81 2076.27 1137.79 2075.33 1138.78 2074.15 1139.27 2072.75 1139.27 2071.34 1139.27 2070.17 1138.78 2069.22 1137.79 2068.28 1136.81 2067.8 1135.56 2067.8 1134.04 2067.8 1132.53 2068.28 1131.28 2069.22 1130.29 2070.17 1129.31 2071.34 1128.82 2072.75 1128.82ZM2048.19 1128.82C2049.59 1128.82 2050.77 1129.31 2051.71 1130.29 2052.66 1131.28 2053.13 1132.53 2053.13 1134.04 2053.13 1135.56 2052.66 1136.81 2051.71 1137.79 2050.77 1138.78 2049.59 1139.27 2048.19 1139.27 2046.78 1139.27 2045.61 1138.78 2044.66 1137.79 2043.72 1136.81 2043.24 1135.56 2043.24 1134.04 2043.24 1132.53 2043.72 1131.28 2044.66 1130.29 2045.61 1129.31 2046.78 1128.82 2048.19 1128.82ZM2023.63 1128.82C2025.03 1128.82 2026.21 1129.31 2027.15 1130.29 2028.1 1131.28 2028.57 1132.53 2028.57 1134.04 2028.57 1135.56 2028.1 1136.81 2027.15 1137.79 2026.21 1138.78 2025.03 1139.27 2023.63 1139.27 2022.22 1139.27 2021.05 1138.78 2020.1 1137.79 2019.16 1136.81 2018.68 1135.56 2018.68 1134.04 2018.68 1132.53 2019.16 1131.28 2020.1 1130.29 2021.05 1129.31 2022.22 1128.82 2023.63 1128.82Z" fill="#FFFFFF" fill-rule="evenodd"/><text fill="#000000" fill-opacity="0" font-family="Arial,Arial_MSFontService,sans-serif" font-size="10.4561" x="2018.68" y="1137.96">⋯</text><path d="M2102.29 1148.35 2109.39 1148.35C2109.76 1150.24 2109.95 1152.11 2109.95 1153.94 2109.95 1155.83 2109.63 1157.56 2108.98 1159.13 2108.33 1160.7 2107.3 1162.26 2105.88 1163.81 2104.46 1165.36 2102.51 1167.07 2100.02 1168.94L2097.84 1166.47C2099.21 1165.17 2100.21 1164 2100.83 1162.96 2101.46 1161.92 2101.9 1160.74 2102.17 1159.41 2102.44 1158.09 2102.58 1156.43 2102.58 1154.43 2102.58 1152.38 2102.48 1150.35 2102.29 1148.35Z" fill="#FFFFFF" fill-rule="evenodd"/><text fill="#000000" fill-opacity="0" font-family="Arial,Arial_MSFontService,sans-serif" font-size="20.5879" x="2097.84" y="1166.36">,</text><path d="M2156.25 1121.12C2153.74 1121.12 2151.51 1122.38 2149.56 1124.9 2147.62 1127.43 2146.05 1130.83 2144.86 1135.1 2143.67 1139.37 2143.08 1143.19 2143.08 1146.57 2143.08 1148.54 2143.37 1150.01 2143.95 1150.98 2144.53 1151.96 2145.43 1152.44 2146.65 1152.44 2148.43 1152.44 2150.25 1151.57 2152.1 1149.83 2153.95 1148.09 2155.44 1146.04 2156.58 1143.69 2157.71 1141.34 2158.72 1138.12 2159.61 1134.04L2159.94 1132.54C2160.37 1130.54 2160.59 1128.55 2160.59 1126.55 2160.59 1124.76 2160.25 1123.41 2159.57 1122.49 2158.9 1121.57 2157.79 1121.12 2156.25 1121.12ZM2155.76 1116.9C2159.79 1116.9 2163.22 1117.87 2166.06 1119.82L2169.99 1116.9 2174.53 1117.55 2167.96 1145.11C2167.56 1146.81 2167.36 1148.35 2167.36 1149.73 2167.36 1150.62 2167.5 1151.31 2167.8 1151.79 2168.1 1152.28 2168.61 1152.52 2169.34 1152.52 2170.18 1152.52 2171.08 1152.15 2172.06 1151.39 2173.03 1150.63 2174.16 1149.51 2175.46 1148.03L2178.38 1150.94C2175.54 1153.78 2173.1 1155.73 2171.04 1156.8 2168.99 1157.87 2166.83 1158.4 2164.56 1158.4 2162.29 1158.4 2160.49 1157.77 2159.17 1156.52 2157.84 1155.26 2157.18 1153.6 2157.18 1151.55 2157.18 1150.88 2157.26 1150.23 2157.43 1149.61L2156.86 1149.53C2154.89 1151.85 2153.19 1153.6 2151.77 1154.77 2150.35 1155.95 2148.85 1156.85 2147.25 1157.47 2145.66 1158.09 2143.89 1158.4 2141.94 1158.4 2138.7 1158.4 2136.24 1157.3 2134.57 1155.1 2132.89 1152.9 2132.06 1149.69 2132.06 1145.47 2132.06 1141.82 2132.58 1138.2 2133.64 1134.61 2134.69 1131.02 2136.2 1127.92 2138.18 1125.31 2140.15 1122.7 2142.63 1120.65 2145.61 1119.15 2148.6 1117.65 2151.98 1116.9 2155.76 1116.9Z" fill="#FFFFFF" fill-rule="evenodd"/><text fill="#000000" fill-opacity="0" font-family="Arial,Arial_MSFontService,sans-serif" font-size="41.5" x="2132.06" y="1153.21">𝒂</text><path d="M2189.66 1144.57C2191.31 1144.57 2192.63 1145.03 2193.61 1145.96 2194.59 1146.88 2195.08 1148.1 2195.08 1149.61 2195.08 1150.1 2195.02 1150.58 2194.9 1151.04L2195.2 1151.27C2197.07 1148.95 2198.84 1147.25 2200.52 1146.18 2202.2 1145.11 2204.16 1144.57 2206.4 1144.57 2208.45 1144.57 2210.05 1145.15 2211.21 1146.3 2212.37 1147.45 2212.95 1149.02 2212.95 1151.01 2212.95 1151.64 2212.89 1152.44 2212.76 1153.39 2212.63 1154.34 2212.48 1155.19 2212.3 1155.92L2209.95 1165.21C2209.61 1166.54 2209.44 1167.71 2209.44 1168.7 2209.44 1169.47 2209.57 1170.01 2209.83 1170.31 2210.08 1170.6 2210.45 1170.75 2210.93 1170.75 2211.5 1170.75 2212.15 1170.48 2212.86 1169.93 2213.58 1169.39 2214.42 1168.56 2215.4 1167.45L2217.54 1169.59C2215.59 1171.58 2213.85 1172.99 2212.31 1173.82 2210.77 1174.66 2209.08 1175.07 2207.24 1175.07 2205.13 1175.07 2203.59 1174.55 2202.62 1173.51 2201.65 1172.47 2201.16 1170.93 2201.16 1168.91 2201.16 1167.46 2201.45 1165.6 2202.02 1163.34L2203.33 1158.39C2203.67 1157.12 2203.96 1155.87 2204.2 1154.62 2204.44 1153.38 2204.55 1152.37 2204.55 1151.57 2204.55 1150.68 2204.37 1150.01 2203.99 1149.58 2203.61 1149.14 2203.08 1148.92 2202.38 1148.92 2201.41 1148.92 2200.3 1149.5 2199.04 1150.65 2197.79 1151.8 2196.79 1153.02 2196.04 1154.3 2195.28 1155.58 2194.69 1157.25 2194.25 1159.32L2190.91 1174.6 2182.36 1174.6 2187.16 1153.9C2187.46 1152.6 2187.61 1151.62 2187.61 1150.95 2187.61 1150.29 2187.5 1149.78 2187.28 1149.43 2187.06 1149.07 2186.68 1148.89 2186.15 1148.89 2185.53 1148.89 2184.87 1149.17 2184.15 1149.73 2183.44 1150.28 2182.6 1151.11 2181.65 1152.2L2179.51 1150.05C2181.49 1148.03 2183.25 1146.61 2184.79 1145.79 2186.33 1144.98 2187.95 1144.57 2189.66 1144.57Z" fill="#FFFFFF" fill-rule="evenodd"/><text fill="#000000" fill-opacity="0" font-family="Arial,Arial_MSFontService,sans-serif" font-size="30.5" x="2179.51" y="1171.26">𝒏</text><path d="M1910.52 625.026C1911.92 625.026 1913.1 625.519 1914.05 626.505 1914.99 627.491 1915.46 628.741 1915.46 630.254 1915.46 631.767 1914.99 633.016 1914.05 634.002 1913.1 634.988 1911.92 635.482 1910.52 635.482 1909.11 635.482 1907.94 634.988 1906.99 634.002 1906.05 633.016 1905.58 631.767 1905.58 630.254 1905.58 628.741 1906.05 627.491 1906.99 626.505 1907.94 625.519 1909.11 625.026 1910.52 625.026ZM1885.96 625.026C1887.36 625.026 1888.54 625.519 1889.49 626.505 1890.43 627.491 1890.9 628.741 1890.9 630.254 1890.9 631.767 1890.43 633.016 1889.49 634.002 1888.54 634.988 1887.36 635.482 1885.96 635.482 1884.55 635.482 1883.38 634.988 1882.43 634.002 1881.49 633.016 1881.02 631.767 1881.02 630.254 1881.02 628.741 1881.49 627.491 1882.43 626.505 1883.38 625.519 1884.55 625.026 1885.96 625.026ZM1861.4 625.026C1862.81 625.026 1863.98 625.519 1864.93 626.505 1865.87 627.491 1866.34 628.741 1866.34 630.254 1866.34 631.767 1865.87 633.016 1864.93 634.002 1863.98 634.988 1862.81 635.482 1861.4 635.482 1860 635.482 1858.82 634.988 1857.87 634.002 1856.93 633.016 1856.46 631.767 1856.46 630.254 1856.46 628.741 1856.93 627.491 1857.87 626.505 1858.82 625.519 1860 625.026 1861.4 625.026Z" fill="#D74514" fill-rule="evenodd"/><text fill="#000000" fill-opacity="0" font-family="Arial,Arial_MSFontService,sans-serif" font-size="10.4561" x="1856.46" y="634.175">⋯</text><path d="M990.5 619.917 1199.8 619.917 1199.8 629.084 990.5 629.083ZM1195.22 601.584 1241.05 624.5 1195.22 647.417Z"/><path d="M1610.5 619.917 1793.21 619.917 1793.21 629.084 1610.5 629.083ZM1788.63 601.584 1834.46 624.5 1788.63 647.417Z"/><path d="M1962.5 619.917 2145.21 619.917 2145.21 629.084 1962.5 629.083ZM2140.63 601.584 2186.46 624.5 2140.63 647.417Z"/><path d="M2555.5 619.917 2760.43 619.917 2760.43 629.084 2555.5 629.083ZM2755.85 601.584 2801.68 624.5 2755.85 647.417Z"/><path d="M806.578 730.045 1945.66 1005.65 1943.5 1014.56 804.422 738.955ZM1945.51 986.755 1984.67 1019.81 1934.74 1031.3Z"/><path d="M1427.58 730.417 1950.27 996.984 1946.11 1005.15 1423.42 738.583ZM1954.52 978.57 1984.94 1019.81 1933.7 1019.4Z"/><path d="M2.72335-3.68651 355.756 257.111 350.309 264.484-2.72335 3.68651ZM362.963 239.641 386.211 285.307 335.729 276.506Z" transform="matrix(-1 0 0 1 2371.71 734.5)"/><path d="M1.25565-4.40798 963.157 269.599 960.646 278.415-1.25565 4.40798ZM963.771 250.711 1001.57 285.307 951.214 294.791Z" transform="matrix(-1 0 0 1 2987.07 734.5)"/><path d="M0 4.58333-82.5016 4.58333-77.9183 0-77.9183 1446.26-82.5016 1441.67 613.031 1441.67 608.448 1446.26 608.448 1405.01 617.615 1405.01 617.615 1450.84-87.085 1450.84-87.085-4.58333 0-4.58333ZM590.115 1409.6 613.031 1363.76 635.948 1409.6Z" transform="matrix(-6.12323e-17 -1 -1 6.12323e-17 1985.26 1237.53)"/><path d="M3171.5 619.917 3559.71 619.917 3559.71 629.084 3171.5 629.083ZM3555.13 601.584 3600.96 624.5 3555.13 647.417Z"/><text font-family="Microsoft YaHei,Microsoft YaHei_MSFontService,sans-serif" font-weight="400" font-size="83" transform="matrix(1 0 0 1 3204.67 751)">输出序列</text></g></svg>