<svg width="2969" height="1127" xmlns="http://www.w3.org/2000/svg" xmlns:xlink="http://www.w3.org/1999/xlink" overflow="hidden"><defs><clipPath id="clip0"><rect x="649" y="975" width="2969" height="1127"/></clipPath></defs><g clip-path="url(#clip0)" transform="translate(-649 -975)"><rect x="987" y="1883" width="449" height="219" fill="#FDEFE8"/><path d="M1087.08 1962.08 1126.43 1962.08 1123.55 1975.13 1118.36 1975.13C1118.23 1972.56 1117.98 1970.77 1117.63 1969.74 1117.28 1968.71 1116.74 1967.97 1116.01 1967.51 1115.28 1967.05 1114.26 1966.82 1112.93 1966.82L1102.76 1966.82 1098.46 1986.28 1104.1 1986.28C1105.18 1986.28 1106.09 1986.1 1106.83 1985.75 1107.58 1985.4 1108.27 1984.81 1108.9 1983.99 1109.53 1983.16 1110.16 1982.02 1110.78 1980.56L1115.24 1980.56 1111.35 1997.02 1107.18 1997.02C1107.18 1995.45 1107.08 1994.25 1106.89 1993.41 1106.7 1992.57 1106.35 1991.96 1105.84 1991.58 1105.33 1991.21 1104.45 1991.02 1103.21 1991.02L1097.45 1991.02 1092.67 2012.66 1101.79 2012.66C1102.98 2012.66 1103.9 2012.58 1104.56 2012.42 1105.23 2012.25 1105.83 2012 1106.39 2011.65 1106.94 2011.29 1107.58 2010.73 1108.31 2009.96 1109.04 2009.19 1109.76 2008.22 1110.48 2007.05 1111.2 2005.87 1111.93 2004.46 1112.69 2002.81L1118.2 2002.81 1114.47 2017.4 1075.93 2017.4 1076.5 2014.73C1078.04 2014.29 1079.17 2013.54 1079.9 2012.46 1080.63 2011.38 1081.32 2009.38 1081.97 2006.46L1089.35 1973.02C1089.7 1971.43 1089.87 1969.85 1089.87 1968.28 1089.87 1967.15 1089.61 1966.32 1089.08 1965.79 1088.56 1965.26 1087.7 1964.92 1086.51 1964.76Z" fill="#D74514" fill-rule="evenodd"/><text fill="#000000" fill-opacity="0" font-family="Arial,Arial_MSFontService,sans-serif" font-size="55.3198" x="1075.93" y="2010.49">𝑬</text><path d="M1134.5 2004.7 1157.2 2004.7 1158.24 2006.66 1144.78 2023.61C1142.58 2026.39 1140.54 2028.79 1138.67 2030.82L1138.88 2031.09 1144.51 2031.09C1145.47 2031.09 1146.28 2030.92 1146.97 2030.58 1147.65 2030.24 1148.32 2029.63 1148.98 2028.73 1149.64 2027.84 1150.32 2026.58 1151.04 2024.95L1154.19 2024.95 1152.2 2034.24 1129.26 2034.24 1128.22 2032.28 1141.41 2015.66C1143.6 2012.9 1145.72 2010.39 1147.79 2008.12L1147.58 2007.85 1141.98 2007.85C1141.23 2007.85 1140.54 2008 1139.93 2008.3 1139.31 2008.6 1138.7 2009.11 1138.09 2009.84 1137.49 2010.56 1136.73 2011.77 1135.81 2013.45L1132.63 2013.45Z" fill="#D74514" fill-rule="evenodd"/><text fill="#000000" fill-opacity="0" font-family="Arial,Arial_MSFontService,sans-serif" font-size="29.5469" x="1128.22" y="2030.55">𝒛</text><path d="M1170.16 2022.02 1172.94 2022.02 1169.03 2038.81C1168.87 2039.5 1168.76 2040.03 1168.7 2040.4 1168.65 2040.78 1168.62 2041.2 1168.62 2041.67 1168.62 2042.31 1168.72 2042.75 1168.94 2042.99 1169.15 2043.23 1169.45 2043.36 1169.84 2043.36 1170.31 2043.36 1170.84 2043.13 1171.43 2042.68 1172.01 2042.24 1172.7 2041.56 1173.5 2040.65L1175.26 2042.4C1173.66 2044.03 1172.23 2045.19 1170.97 2045.87 1169.71 2046.55 1168.32 2046.9 1166.81 2046.9 1165.09 2046.9 1163.82 2046.47 1163.03 2045.63 1162.23 2044.78 1161.83 2043.5 1161.83 2041.79 1161.83 2040.7 1162.01 2039.42 1162.37 2037.96L1164.42 2029.46C1164.79 2027.92 1164.98 2026.7 1164.98 2025.8 1164.98 2025.17 1164.83 2024.72 1164.53 2024.45 1164.23 2024.18 1163.6 2024 1162.64 2023.9L1163 2022.29ZM1168.37 2012.55 1174.62 2012.55 1173.35 2018.53 1167.03 2018.53Z" fill="#D74514" fill-rule="evenodd"/><text fill="#000000" fill-opacity="0" font-family="Arial,Arial_MSFontService,sans-serif" font-size="34.3506" x="1161.83" y="2042.6">𝒊</text><path d="M1292.84 1955.29C1300.73 1957.37 1306.79 1961.86 1311.02 1968.76 1315.25 1975.67 1317.36 1983.99 1317.36 1993.75 1317.36 2003.53 1315.25 2011.86 1311.04 2018.73 1306.82 2025.61 1300.76 2030.09 1292.84 2032.17L1291.87 2029.05C1298.11 2026.97 1302.75 2022.86 1305.79 2016.73 1308.83 2010.59 1310.35 2002.8 1310.35 1993.34 1310.35 1984.21 1308.84 1976.62 1305.81 1970.59 1302.78 1964.55 1298.1 1960.49 1291.75 1958.41ZM1214.47 1955.29 1215.57 1958.41C1209.24 1960.49 1204.56 1964.55 1201.52 1970.59 1198.48 1976.62 1196.96 1984.21 1196.96 1993.34 1196.96 2002.8 1198.48 2010.59 1201.52 2016.73 1204.56 2022.86 1209.2 2026.97 1215.44 2029.05L1214.47 2032.17C1206.56 2030.09 1200.49 2025.61 1196.28 2018.73 1192.06 2011.86 1189.95 2003.53 1189.95 1993.75 1189.95 1983.99 1192.07 1975.67 1196.3 1968.76 1200.52 1961.86 1206.58 1957.37 1214.47 1955.29Z" fill="#D74514" fill-rule="evenodd"/><path d="M1235.58 1976.55C1237.74 1976.55 1239.39 1976.87 1240.52 1977.52 1241.66 1978.17 1242.59 1979.3 1243.32 1980.91 1244.05 1982.51 1244.74 1985.09 1245.39 1988.63L1245.79 1988.63C1247.79 1985.82 1249.34 1983.7 1250.45 1982.28 1251.56 1980.87 1252.59 1979.73 1253.53 1978.88 1254.48 1978.03 1255.4 1977.43 1256.29 1977.08 1257.18 1976.72 1258.23 1976.55 1259.45 1976.55 1260.8 1976.55 1262.16 1976.79 1263.54 1977.28L1261.64 1986.03 1257.99 1986.03C1257.86 1984.9 1257.36 1984.33 1256.49 1984.33 1256.11 1984.33 1255.71 1984.43 1255.3 1984.61 1254.88 1984.8 1254.32 1985.23 1253.63 1985.89 1252.94 1986.55 1252.09 1987.51 1251.06 1988.77 1250.03 1990.02 1248.49 1991.94 1246.44 1994.5 1247.39 2000.2 1248.16 2004.29 1248.77 2006.76 1249.38 2009.23 1250.01 2010.84 1250.66 2011.56 1251.03 2011.97 1251.49 2012.17 1252.03 2012.17 1252.71 2012.17 1253.34 2011.91 1253.92 2011.38 1254.5 2010.86 1255.25 2009.67 1256.17 2007.84L1259.85 2009.54C1258.29 2012.4 1256.51 2014.54 1254.53 2015.94 1252.54 2017.35 1250.21 2018.05 1247.53 2018.05 1245.89 2018.05 1244.57 2017.84 1243.58 2017.42 1242.6 2017 1241.76 2016.31 1241.07 2015.33 1240.38 2014.36 1239.77 2012.99 1239.25 2011.22 1238.72 2009.45 1238.23 2007.13 1237.77 2004.27L1237.36 2004.27C1235.07 2007.57 1233.23 2010.08 1231.85 2011.81 1230.47 2013.54 1229.29 2014.83 1228.3 2015.7 1227.32 2016.56 1226.37 2017.17 1225.47 2017.52 1224.56 2017.87 1223.47 2018.05 1222.2 2018.05 1221.61 2018.05 1220.89 2017.97 1220.04 2017.83 1219.19 2017.68 1218.54 2017.52 1218.11 2017.36L1220.02 2008.57 1223.66 2008.57C1223.69 2009.13 1223.83 2009.56 1224.09 2009.84 1224.35 2010.13 1224.68 2010.27 1225.08 2010.27 1225.57 2010.27 1226.02 2010.17 1226.44 2009.96 1226.86 2009.76 1227.44 2009.31 1228.18 2008.61 1228.93 2007.9 1229.86 2006.87 1231 2005.51 1232.13 2004.14 1234.05 2001.74 1236.75 1998.31 1236.19 1995.12 1235.65 1992.38 1235.15 1990.07 1234.65 1987.76 1234.2 1986.08 1233.8 1985.04 1233.39 1984 1233.01 1983.3 1232.64 1982.95 1232.28 1982.6 1231.86 1982.43 1231.4 1982.43 1230.86 1982.43 1230.39 1982.57 1229.99 1982.85 1229.58 1983.13 1229.16 1983.59 1228.71 1984.23 1228.26 1984.86 1227.78 1985.71 1227.27 1986.76L1223.58 1985.06C1225.15 1982.2 1226.91 1980.06 1228.87 1978.66 1230.83 1977.25 1233.07 1976.55 1235.58 1976.55Z" fill="#D74514" fill-rule="evenodd"/><text fill="#000000" fill-opacity="0" font-family="Arial,Arial_MSFontService,sans-serif" font-size="41.5" x="1218.11" y="2012.86">𝒙</text><path d="M1278.77 2004.37 1282.17 2004.37 1277.4 2024.86C1277.21 2025.7 1277.07 2026.34 1277 2026.8 1276.93 2027.25 1276.9 2027.77 1276.9 2028.35 1276.9 2029.12 1277.03 2029.66 1277.29 2029.96 1277.54 2030.25 1277.91 2030.4 1278.39 2030.4 1278.96 2030.4 1279.61 2030.13 1280.32 2029.58 1281.04 2029.04 1281.88 2028.21 1282.86 2027.1L1285 2029.24C1283.05 2031.23 1281.31 2032.64 1279.77 2033.47 1278.23 2034.3 1276.54 2034.72 1274.69 2034.72 1272.59 2034.72 1271.05 2034.2 1270.08 2033.17 1269.1 2032.14 1268.62 2030.58 1268.62 2028.5 1268.62 2027.17 1268.84 2025.61 1269.27 2023.82L1271.78 2013.45C1272.23 2011.57 1272.46 2010.08 1272.46 2008.99 1272.46 2008.21 1272.28 2007.66 1271.91 2007.33 1271.54 2007.01 1270.77 2006.78 1269.6 2006.66L1270.05 2004.7ZM1276.6 1992.81 1284.23 1992.81 1282.68 2000.11 1274.96 2000.11Z" fill="#D74514" fill-rule="evenodd"/><text fill="#000000" fill-opacity="0" font-family="Arial,Arial_MSFontService,sans-serif" font-size="41.9077" x="1268.62" y="2029.48">𝒊</text><path d="M1112.68 1104.51 1115.03 1104.51 1107.09 1139.89 1108.38 1139.89C1110.41 1139.89 1112.69 1139.01 1115.21 1137.24 1117.74 1135.47 1119.76 1133.83 1121.27 1132.31 1122.79 1130.8 1123.54 1129.34 1123.54 1127.94 1123.54 1126.61 1122.62 1125.87 1120.79 1125.71L1121.23 1123.72 1134.36 1123.72 1135.13 1125.71C1132.89 1127.73 1130.51 1129.72 1128 1131.66L1117.95 1139.45 1121.92 1154.08C1122.24 1155.32 1122.54 1156.22 1122.79 1156.77 1123.05 1157.32 1123.35 1157.74 1123.68 1158.01 1124.02 1158.28 1124.47 1158.41 1125.04 1158.41 1125.74 1158.41 1126.58 1158.03 1127.55 1157.28 1128.53 1156.52 1129.63 1155.43 1130.88 1153.99L1133.19 1156.26C1130.76 1158.83 1128.74 1160.61 1127.15 1161.61 1125.55 1162.61 1124.01 1163.11 1122.53 1163.11 1120.69 1163.11 1119.23 1162.59 1118.15 1161.55 1117.07 1160.51 1116.22 1158.78 1115.6 1156.35L1112.92 1145.81C1112.65 1144.75 1112.38 1144.03 1112.11 1143.62 1111.84 1143.21 1111.53 1142.94 1111.18 1142.81 1110.83 1142.67 1110.21 1142.61 1109.32 1142.61L1106.52 1142.61 1102.31 1162.47 1095.29 1162.47 1105.71 1116.14C1106.06 1114.58 1106.31 1113.35 1106.46 1112.47 1106.61 1111.6 1106.68 1110.82 1106.68 1110.14 1106.68 1109.01 1106.34 1108.21 1105.65 1107.75 1104.96 1107.29 1103.72 1107.04 1101.94 1106.98L1102.43 1104.88Z" fill-rule="evenodd"/><text fill="#000000" fill-opacity="0" font-family="Arial,Arial_MSFontService,sans-serif" font-size="58.6025" x="1095.29" y="1155.79">𝑘</text><path d="M4.58333-8.22255e-06 4.58362 159.915-4.58305 159.915-4.58333 8.22255e-06ZM22.9169 155.332 0.000360892 201.165-22.9164 155.332Z" transform="matrix(-1 0 0 1 1211.5 1682.5)"/><rect x="649" y="1283" width="1124" height="399" fill="#F8CCB9"/><text fill="#D74514" font-family="Microsoft YaHei,Microsoft YaHei_MSFontService,sans-serif" font-weight="700" font-size="83" transform="matrix(1 0 0 1 922.6 1611)">滚动密钥生成器</text><rect x="705" y="1338" width="166" height="162" fill="#FFFFFF"/><rect x="1537" y="1338" width="166" height="162" fill="#FFFFFF"/><rect x="886" y="1338" width="635" height="162" fill="#FFFFFF"/><path d="M1215.84 1419.42C1217.25 1419.42 1218.42 1419.91 1219.37 1420.9 1220.32 1421.89 1220.79 1423.14 1220.79 1424.65 1220.79 1426.16 1220.32 1427.41 1219.37 1428.4 1218.42 1429.38 1217.25 1429.88 1215.84 1429.88 1214.44 1429.88 1213.26 1429.38 1212.32 1428.4 1211.37 1427.41 1210.9 1426.16 1210.9 1424.65 1210.9 1423.14 1211.37 1421.89 1212.32 1420.9 1213.26 1419.91 1214.44 1419.42 1215.84 1419.42ZM1191.28 1419.42C1192.69 1419.42 1193.86 1419.91 1194.81 1420.9 1195.76 1421.89 1196.23 1423.14 1196.23 1424.65 1196.23 1426.16 1195.76 1427.41 1194.81 1428.4 1193.86 1429.38 1192.69 1429.88 1191.28 1429.88 1189.88 1429.88 1188.7 1429.38 1187.76 1428.4 1186.81 1427.41 1186.34 1426.16 1186.34 1424.65 1186.34 1423.14 1186.81 1421.89 1187.76 1420.9 1188.7 1419.91 1189.88 1419.42 1191.28 1419.42ZM1166.72 1419.42C1168.13 1419.42 1169.3 1419.91 1170.25 1420.9 1171.2 1421.89 1171.67 1423.14 1171.67 1424.65 1171.67 1426.16 1171.2 1427.41 1170.25 1428.4 1169.3 1429.38 1168.13 1429.88 1166.72 1429.88 1165.32 1429.88 1164.14 1429.38 1163.2 1428.4 1162.25 1427.41 1161.78 1426.16 1161.78 1424.65 1161.78 1423.14 1162.25 1421.89 1163.2 1420.9 1164.14 1419.91 1165.32 1419.42 1166.72 1419.42Z" fill="#D74514" fill-rule="evenodd"/><text fill="#000000" fill-opacity="0" font-family="Arial,Arial_MSFontService,sans-serif" font-size="10.4561" x="1161.78" y="1428.57">⋯</text><rect x="2784" y="1883" width="449" height="219" fill="#FDEFE8"/><path d="M2898.33 1966.82C2896.98 1966.82 2895.94 1966.85 2895.21 1966.9L2885.2 2012.46C2886.44 2012.56 2887.44 2012.62 2888.2 2012.62 2891.68 2012.62 2894.69 2011.93 2897.22 2010.55 2899.74 2009.17 2901.98 2007.07 2903.94 2004.25 2905.9 2001.43 2907.44 1997.98 2908.56 1993.92 2909.68 1989.85 2910.25 1985.76 2910.25 1981.66 2910.25 1978.87 2909.93 1976.54 2909.31 1974.64 2908.69 1972.75 2907.83 1971.23 2906.74 1970.06 2905.65 1968.9 2904.38 1968.07 2902.93 1967.57 2901.48 1967.07 2899.95 1966.82 2898.33 1966.82ZM2879.57 1962.08 2895.98 1962.08C2900.44 1962.08 2904 1962.32 2906.68 1962.81 2909.11 1963.24 2911.33 1963.99 2913.35 1965.04 2915.36 1966.09 2916.95 1967.25 2918.11 1968.52 2919.59 1970.09 2920.76 1972.06 2921.61 1974.42 2922.46 1976.79 2922.89 1979.56 2922.89 1982.75 2922.89 1986.34 2922.48 1989.79 2921.67 1993.08 2920.86 1996.38 2919.67 1999.43 2918.09 2002.22 2916.51 2005.02 2914.62 2007.42 2912.41 2009.44 2910.21 2011.45 2908 2013.02 2905.79 2014.14 2903.57 2015.26 2901.07 2016.08 2898.29 2016.61 2895.51 2017.14 2892.21 2017.4 2888.4 2017.4L2868.42 2017.4 2868.99 2014.73C2870.53 2014.29 2871.66 2013.54 2872.39 2012.46 2873.12 2011.38 2873.81 2009.38 2874.46 2006.46L2881.84 1973.02C2882.19 1971.43 2882.36 1969.85 2882.36 1968.28 2882.36 1967.15 2882.1 1966.32 2881.57 1965.79 2881.05 1965.26 2880.19 1964.92 2879 1964.76Z" fill="#D74514" fill-rule="evenodd"/><text fill="#000000" fill-opacity="0" font-family="Arial,Arial_MSFontService,sans-serif" font-size="55.3198" x="2868.42" y="2010.49">𝑫</text><path d="M2935.02 2004.7 2957.71 2004.7 2958.75 2006.66 2945.29 2023.61C2943.09 2026.39 2941.05 2028.79 2939.19 2030.82L2939.39 2031.09 2945.02 2031.09C2945.98 2031.09 2946.8 2030.92 2947.48 2030.58 2948.17 2030.24 2948.84 2029.63 2949.49 2028.73 2950.15 2027.84 2950.83 2026.58 2951.55 2024.95L2954.7 2024.95 2952.71 2034.24 2929.77 2034.24 2928.73 2032.28 2941.93 2015.66C2944.11 2012.9 2946.23 2010.39 2948.3 2008.12L2948.09 2007.85 2942.49 2007.85C2941.74 2007.85 2941.05 2008 2940.44 2008.3 2939.82 2008.6 2939.21 2009.11 2938.6 2009.84 2938 2010.56 2937.24 2011.77 2936.33 2013.45L2933.14 2013.45Z" fill="#D74514" fill-rule="evenodd"/><text fill="#000000" fill-opacity="0" font-family="Arial,Arial_MSFontService,sans-serif" font-size="29.5469" x="2928.73" y="2030.55">𝒛</text><path d="M2970.67 2022.02 2973.45 2022.02 2969.54 2038.81C2969.38 2039.5 2969.27 2040.03 2969.21 2040.4 2969.16 2040.78 2969.13 2041.2 2969.13 2041.67 2969.13 2042.31 2969.23 2042.75 2969.45 2042.99 2969.66 2043.23 2969.96 2043.36 2970.35 2043.36 2970.82 2043.36 2971.35 2043.13 2971.94 2042.68 2972.52 2042.24 2973.21 2041.56 2974.01 2040.65L2975.77 2042.4C2974.17 2044.03 2972.75 2045.19 2971.48 2045.87 2970.22 2046.55 2968.84 2046.9 2967.32 2046.9 2965.6 2046.9 2964.34 2046.47 2963.54 2045.63 2962.74 2044.78 2962.34 2043.5 2962.34 2041.79 2962.34 2040.7 2962.52 2039.42 2962.88 2037.96L2964.93 2029.46C2965.3 2027.92 2965.49 2026.7 2965.49 2025.8 2965.49 2025.17 2965.34 2024.72 2965.04 2024.45 2964.74 2024.18 2964.11 2024 2963.15 2023.9L2963.51 2022.29ZM2968.88 2012.55 2975.13 2012.55 2973.86 2018.53 2967.54 2018.53Z" fill="#D74514" fill-rule="evenodd"/><text fill="#000000" fill-opacity="0" font-family="Arial,Arial_MSFontService,sans-serif" font-size="34.3506" x="2962.34" y="2042.6">𝒊</text><path d="M3095.07 1955.29C3102.96 1957.37 3109.02 1961.86 3113.25 1968.76 3117.48 1975.67 3119.59 1983.99 3119.59 1993.75 3119.59 2003.53 3117.48 2011.86 3113.27 2018.73 3109.05 2025.61 3102.99 2030.09 3095.07 2032.17L3094.1 2029.05C3100.34 2026.97 3104.98 2022.86 3108.02 2016.73 3111.06 2010.59 3112.58 2002.8 3112.58 1993.34 3112.58 1984.21 3111.06 1976.62 3108.04 1970.59 3105.01 1964.55 3100.33 1960.49 3093.98 1958.41ZM3014.98 1955.29 3016.08 1958.41C3009.76 1960.49 3005.07 1964.55 3002.03 1970.59 2999 1976.62 2997.48 1984.21 2997.48 1993.34 2997.48 2002.8 2999 2010.59 3002.03 2016.73 3005.07 2022.86 3009.71 2026.97 3015.96 2029.05L3014.98 2032.17C3007.07 2030.09 3001 2025.61 2996.79 2018.73 2992.57 2011.86 2990.46 2003.53 2990.46 1993.75 2990.46 1983.99 2992.58 1975.67 2996.81 1968.76 3001.04 1961.86 3007.09 1957.37 3014.98 1955.29Z" fill="#D74514" fill-rule="evenodd"/><path d="M3032.93 1976.55C3035.01 1976.55 3036.69 1976.85 3037.97 1977.46 3039.26 1978.07 3040.28 1978.91 3041.03 1979.97 3041.79 1981.04 3042.4 1982.4 3042.86 1984.05 3043.24 1985.34 3043.68 1987.63 3044.2 1990.9 3045.03 1996.22 3045.75 2001.45 3046.34 2006.58 3049.34 2002.28 3051.65 1998.1 3053.25 1994.02 3054.86 1989.94 3055.66 1986.29 3055.66 1983.07 3055.66 1982.05 3055.42 1981.27 3054.94 1980.74 3054.45 1980.22 3053.6 1979.93 3052.38 1979.87L3052.95 1977.2 3064.38 1977.2 3065.8 1979.87C3065.26 1981.74 3064.42 1983.99 3063.28 1986.64 3061.61 1990.53 3059.35 1994.89 3056.52 1999.73 3053.95 2004.08 3051.15 2008.43 3048.13 2012.78 3044.59 2017.86 3041.51 2021.96 3038.89 2025.08 3036.27 2028.2 3034 2030.5 3032.08 2031.99 3030.56 2033.13 3029.12 2033.93 3027.74 2034.4 3026.36 2034.87 3024.9 2035.11 3023.36 2035.11 3021.36 2035.11 3019.47 2034.81 3017.69 2034.22L3019.72 2025.06 3023.97 2025.06C3024 2026.2 3024.17 2027.03 3024.48 2027.57 3024.79 2028.11 3025.35 2028.38 3026.16 2028.38 3026.81 2028.38 3027.42 2028.27 3027.98 2028.04 3028.55 2027.81 3029.27 2027.36 3030.13 2026.68 3031 2026.01 3032.08 2024.91 3033.39 2023.38 3034.71 2021.85 3036.18 2020.01 3037.83 2017.85 3037.29 2014.55 3036.6 2010.67 3035.75 2006.19 3034.89 2001.72 3034.06 1997.66 3033.25 1994 3032.44 1990.34 3031.85 1987.86 3031.47 1986.56 3031.09 1985.26 3030.73 1984.34 3030.38 1983.78 3030.02 1983.23 3029.7 1982.86 3029.4 1982.69 3029.11 1982.51 3028.79 1982.43 3028.47 1982.43 3027.8 1982.43 3027.17 1982.7 3026.61 1983.26 3026.04 1983.81 3025.3 1984.98 3024.38 1986.76L3020.69 1985.06C3022.26 1982.22 3024.04 1980.1 3026.04 1978.68 3028.04 1977.26 3030.33 1976.55 3032.93 1976.55Z" fill="#D74514" fill-rule="evenodd"/><text fill="#000000" fill-opacity="0" font-family="Arial,Arial_MSFontService,sans-serif" font-size="58.562" x="3017.69" y="2027.79">𝒚</text><path d="M3081 2004.37 3084.4 2004.37 3079.63 2024.86C3079.44 2025.7 3079.3 2026.34 3079.23 2026.8 3079.16 2027.25 3079.13 2027.77 3079.13 2028.35 3079.13 2029.12 3079.26 2029.66 3079.52 2029.96 3079.77 2030.25 3080.14 2030.4 3080.62 2030.4 3081.19 2030.4 3081.84 2030.13 3082.55 2029.58 3083.27 2029.04 3084.11 2028.21 3085.08 2027.1L3087.23 2029.24C3085.28 2031.23 3083.54 2032.64 3082 2033.47 3080.46 2034.3 3078.77 2034.72 3076.92 2034.72 3074.82 2034.72 3073.28 2034.2 3072.31 2033.17 3071.33 2032.14 3070.85 2030.58 3070.85 2028.5 3070.85 2027.17 3071.07 2025.61 3071.5 2023.82L3074 2013.45C3074.46 2011.57 3074.69 2010.08 3074.69 2008.99 3074.69 2008.21 3074.51 2007.66 3074.14 2007.33 3073.77 2007.01 3073 2006.78 3071.83 2006.66L3072.28 2004.7ZM3078.83 1992.81 3086.46 1992.81 3084.91 2000.11 3077.19 2000.11Z" fill="#D74514" fill-rule="evenodd"/><text fill="#000000" fill-opacity="0" font-family="Arial,Arial_MSFontService,sans-serif" font-size="41.9077" x="3070.85" y="2029.48">𝒊</text><rect x="1449" y="983" width="1339" height="133" fill="#D74514"/><text fill="#FFFFFF" font-family="Microsoft YaHei,Microsoft YaHei_MSFontService,sans-serif" font-weight="700" font-size="83" transform="matrix(1 0 0 1 1953.17 1079)">安全信道</text><path d="M0-4.58333 241.943-4.58333 241.943 191.837 232.777 191.837 232.777 0 237.36 4.58333 0 4.58333ZM260.277 187.253 237.36 233.087 214.443 187.253Z" transform="matrix(-1 1.22465e-16 1.22465e-16 1 1448.86 1050.5)"/><rect x="2447" y="1283" width="1124" height="399" fill="#F8CCB9"/><text fill="#D74514" font-family="Microsoft YaHei,Microsoft YaHei_MSFontService,sans-serif" font-weight="700" font-size="83" transform="matrix(1 0 0 1 2719.96 1611)">滚动密钥生成器</text><rect x="2502" y="1338" width="166" height="162" fill="#FFFFFF"/><rect x="3334" y="1338" width="166" height="162" fill="#FFFFFF"/><rect x="2683" y="1338" width="635" height="162" fill="#FFFFFF"/><path d="M3013.2 1419.42C3014.61 1419.42 3015.78 1419.91 3016.73 1420.9 3017.67 1421.89 3018.15 1423.14 3018.15 1424.65 3018.15 1426.16 3017.67 1427.41 3016.73 1428.4 3015.78 1429.38 3014.61 1429.88 3013.2 1429.88 3011.8 1429.88 3010.62 1429.38 3009.68 1428.4 3008.73 1427.41 3008.26 1426.16 3008.26 1424.65 3008.26 1423.14 3008.73 1421.89 3009.68 1420.9 3010.62 1419.91 3011.8 1419.42 3013.2 1419.42ZM2988.64 1419.42C2990.05 1419.42 2991.22 1419.91 2992.17 1420.9 2993.12 1421.89 2993.59 1423.14 2993.59 1424.65 2993.59 1426.16 2993.12 1427.41 2992.17 1428.4 2991.22 1429.38 2990.05 1429.88 2988.64 1429.88 2987.24 1429.88 2986.06 1429.38 2985.12 1428.4 2984.17 1427.41 2983.7 1426.16 2983.7 1424.65 2983.7 1423.14 2984.17 1421.89 2985.12 1420.9 2986.06 1419.91 2987.24 1419.42 2988.64 1419.42ZM2964.08 1419.42C2965.49 1419.42 2966.66 1419.91 2967.61 1420.9 2968.56 1421.89 2969.03 1423.14 2969.03 1424.65 2969.03 1426.16 2968.56 1427.41 2967.61 1428.4 2966.66 1429.38 2965.49 1429.88 2964.08 1429.88 2962.68 1429.88 2961.5 1429.38 2960.56 1428.4 2959.61 1427.41 2959.14 1426.16 2959.14 1424.65 2959.14 1423.14 2959.61 1421.89 2960.56 1420.9 2961.5 1419.91 2962.68 1419.42 2964.08 1419.42Z" fill="#D74514" fill-rule="evenodd"/><text fill="#000000" fill-opacity="0" font-family="Arial,Arial_MSFontService,sans-serif" font-size="10.4561" x="2959.14" y="1428.57">⋯</text><path d="M2788.5 1045.92 3014.16 1045.92 3014.16 1242.34 3005 1242.34 3005 1050.5 3009.58 1055.08 2788.5 1055.08ZM3032.5 1237.75 3009.58 1283.59 2986.66 1237.75Z"/><path d="M3113.64 1108.05 3115.99 1108.05 3108.05 1143.43 3109.35 1143.43C3111.37 1143.43 3113.65 1142.55 3116.18 1140.78 3118.7 1139.01 3120.72 1137.37 3122.24 1135.85 3123.75 1134.34 3124.51 1132.88 3124.51 1131.48 3124.51 1130.15 3123.59 1129.41 3121.75 1129.25L3122.2 1127.26 3135.33 1127.26 3136.1 1129.25C3133.85 1131.27 3131.48 1133.26 3128.96 1135.2L3118.91 1142.98 3122.88 1157.62C3123.21 1158.86 3123.5 1159.76 3123.76 1160.31 3124.01 1160.86 3124.31 1161.28 3124.65 1161.55 3124.98 1161.82 3125.44 1161.95 3126 1161.95 3126.71 1161.95 3127.54 1161.57 3128.52 1160.82 3129.49 1160.06 3130.6 1158.97 3131.84 1157.53L3134.15 1159.8C3131.72 1162.37 3129.71 1164.15 3128.11 1165.15 3126.52 1166.15 3124.98 1166.65 3123.49 1166.65 3121.65 1166.65 3120.2 1166.13 3119.11 1165.09 3118.03 1164.05 3117.18 1162.32 3116.56 1159.88L3113.89 1149.35C3113.62 1148.29 3113.35 1147.56 3113.08 1147.16 3112.81 1146.75 3112.5 1146.48 3112.14 1146.35 3111.79 1146.21 3111.17 1146.15 3110.28 1146.15L3107.48 1146.15 3103.27 1166 3096.26 1166 3106.67 1119.68C3107.02 1118.11 3107.27 1116.89 3107.42 1116.01 3107.57 1115.14 3107.65 1114.36 3107.65 1113.68 3107.65 1112.55 3107.3 1111.75 3106.61 1111.29 3105.92 1110.83 3104.69 1110.58 3102.9 1110.52L3103.39 1108.42Z" fill-rule="evenodd"/><text fill="#000000" fill-opacity="0" font-family="Arial,Arial_MSFontService,sans-serif" font-size="58.6025" x="3096.26" y="1159.33">𝑘</text><path d="M4.58333-8.22255e-06 4.58362 159.915-4.58305 159.915-4.58333 8.22255e-06ZM22.9169 155.332 0.000360892 201.165-22.9164 155.332Z" transform="matrix(-1 0 0 1 3009.5 1682.5)"/><path d="M1092.54 1763.72 1121.36 1763.72 1122.13 1765.75 1102.8 1787.96C1099.04 1792.26 1095.78 1795.9 1093.03 1798.9L1093.27 1799.19 1102.43 1799.19C1104.05 1799.19 1105.29 1799.1 1106.16 1798.92 1107.02 1798.75 1107.78 1798.42 1108.43 1797.93 1109.08 1797.44 1109.75 1796.71 1110.43 1795.72 1111.12 1794.74 1111.98 1793.19 1113.01 1791.08L1116.61 1791.08 1114.14 1802.47 1084.8 1802.47 1084.03 1800.48 1106.2 1774.95C1109.33 1771.36 1111.63 1768.8 1113.09 1767.29L1112.85 1767.01 1103.36 1767.01C1101.96 1767.01 1100.93 1767.1 1100.28 1767.29 1099.63 1767.48 1098.99 1767.81 1098.34 1768.28 1097.69 1768.76 1096.99 1769.46 1096.25 1770.39 1095.51 1771.32 1094.68 1772.65 1093.76 1774.38L1090.15 1774.38Z" fill-rule="evenodd"/><text fill="#000000" fill-opacity="0" font-family="Arial,Arial_MSFontService,sans-serif" font-size="38.7441" x="1084.03" y="1797.63">𝑧</text><path d="M1135.4 1789.2 1136.86 1789.2 1132.45 1809.04C1132.18 1810.21 1131.98 1811.14 1131.87 1811.84 1131.76 1812.53 1131.71 1813.16 1131.71 1813.71 1131.71 1814.47 1131.86 1815.01 1132.17 1815.35 1132.48 1815.69 1132.94 1815.86 1133.56 1815.86 1133.91 1815.86 1134.27 1815.79 1134.63 1815.65 1134.99 1815.51 1135.37 1815.29 1135.77 1814.99 1136.18 1814.7 1136.63 1814.31 1137.11 1813.85 1137.6 1813.38 1138.14 1812.82 1138.74 1812.16L1140.76 1814.13C1139.73 1815.18 1138.79 1816.07 1137.95 1816.8 1137.1 1817.52 1136.31 1818.11 1135.55 1818.57 1134.8 1819.02 1134.06 1819.35 1133.33 1819.55 1132.61 1819.75 1131.84 1819.85 1131.02 1819.85 1130.27 1819.85 1129.59 1819.71 1128.98 1819.43 1128.38 1819.15 1127.86 1818.77 1127.42 1818.29 1126.98 1817.8 1126.65 1817.22 1126.41 1816.54 1126.17 1815.87 1126.05 1815.12 1126.05 1814.31 1126.05 1813.65 1126.13 1812.84 1126.29 1811.87 1126.45 1810.89 1126.65 1809.84 1126.9 1808.69 1127.15 1807.55 1127.42 1806.36 1127.72 1805.11 1128.02 1803.85 1128.31 1802.61 1128.6 1801.38 1128.88 1800.15 1129.14 1798.96 1129.37 1797.82 1129.6 1796.68 1129.76 1795.64 1129.86 1794.71 1129.9 1794.55 1129.92 1794.4 1129.92 1794.25 1129.92 1794.1 1129.92 1793.97 1129.92 1793.85 1129.88 1793.07 1129.61 1792.51 1129.1 1792.15 1128.6 1791.79 1127.7 1791.59 1126.41 1791.55L1126.76 1789.53ZM1133.67 1777.2 1139.63 1777.2 1138.17 1783.6 1132.27 1783.6Z" fill-rule="evenodd"/><text fill="#000000" fill-opacity="0" font-family="Arial,Arial_MSFontService,sans-serif" font-size="42.6523" x="1126.05" y="1814.52">𝑖</text><path d="M3086.64 1758.62 3115.45 1758.62 3116.22 1760.65 3096.89 1782.86C3093.14 1787.15 3089.88 1790.8 3087.12 1793.8L3087.37 1794.08 3096.53 1794.08C3098.15 1794.08 3099.39 1793.99 3100.26 1793.82 3101.12 1793.64 3101.88 1793.31 3102.53 1792.83 3103.17 1792.34 3103.84 1791.6 3104.53 1790.62 3105.22 1789.63 3106.08 1788.08 3107.1 1785.98L3110.71 1785.98 3108.24 1797.37 3078.9 1797.37 3078.13 1795.38 3100.3 1769.85C3103.43 1766.25 3105.73 1763.7 3107.19 1762.19L3106.94 1761.9 3097.46 1761.9C3096.05 1761.9 3095.03 1762 3094.38 1762.19 3093.73 1762.38 3093.08 1762.71 3092.43 1763.18 3091.79 1763.65 3091.09 1764.36 3090.35 1765.29 3089.6 1766.22 3088.77 1767.55 3087.85 1769.28L3084.25 1769.28Z" fill-rule="evenodd"/><text fill="#000000" fill-opacity="0" font-family="Arial,Arial_MSFontService,sans-serif" font-size="38.7441" x="3078.13" y="1792.52">𝑧</text><path d="M3129.5 1784.1 3130.96 1784.1 3126.55 1803.93C3126.27 1805.1 3126.08 1806.04 3125.97 1806.73 3125.86 1807.43 3125.81 1808.05 3125.81 1808.61 3125.81 1809.36 3125.96 1809.91 3126.27 1810.25 3126.58 1810.59 3127.04 1810.75 3127.65 1810.75 3128.01 1810.75 3128.37 1810.68 3128.72 1810.55 3129.08 1810.41 3129.46 1810.19 3129.87 1809.89 3130.28 1809.59 3130.73 1809.21 3131.21 1808.74 3131.7 1808.28 3132.24 1807.72 3132.84 1807.06L3134.86 1809.03C3133.83 1810.08 3132.89 1810.97 3132.05 1811.69 3131.2 1812.42 3130.4 1813.01 3129.65 1813.46 3128.89 1813.92 3128.15 1814.25 3127.43 1814.45 3126.7 1814.65 3125.94 1814.75 3125.12 1814.75 3124.37 1814.75 3123.69 1814.61 3123.08 1814.33 3122.47 1814.05 3121.95 1813.67 3121.52 1813.18 3121.08 1812.7 3120.74 1812.11 3120.5 1811.44 3120.27 1810.76 3120.15 1810.02 3120.15 1809.21 3120.15 1808.55 3120.23 1807.74 3120.39 1806.76 3120.54 1805.79 3120.75 1804.73 3121 1803.59 3121.24 1802.45 3121.52 1801.25 3121.81 1800 3122.11 1798.75 3122.41 1797.51 3122.69 1796.28 3122.98 1795.05 3123.24 1793.86 3123.47 1792.72 3123.7 1791.58 3123.86 1790.54 3123.96 1789.61 3124 1789.45 3124.02 1789.29 3124.02 1789.15 3124.02 1789 3124.02 1788.86 3124.02 1788.74 3123.98 1787.97 3123.71 1787.4 3123.2 1787.05 3122.69 1786.69 3121.79 1786.49 3120.5 1786.45L3120.86 1784.42ZM3127.77 1772.09 3133.73 1772.09 3132.27 1778.5 3126.37 1778.5Z" fill-rule="evenodd"/><text fill="#000000" fill-opacity="0" font-family="Arial,Arial_MSFontService,sans-serif" font-size="42.6523" x="3120.15" y="1809.41">𝑖</text><path d="M2130.72 1992.91C2132.13 1992.91 2133.3 1993.4 2134.25 1994.39 2135.19 1995.38 2135.67 1996.63 2135.67 1998.14 2135.67 1999.65 2135.19 2000.9 2134.25 2001.89 2133.3 2002.87 2132.13 2003.37 2130.72 2003.37 2129.32 2003.37 2128.14 2002.87 2127.2 2001.89 2126.25 2000.9 2125.78 1999.65 2125.78 1998.14 2125.78 1996.63 2126.25 1995.38 2127.2 1994.39 2128.14 1993.4 2129.32 1992.91 2130.72 1992.91ZM2106.16 1992.91C2107.57 1992.91 2108.74 1993.4 2109.69 1994.39 2110.63 1995.38 2111.11 1996.63 2111.11 1998.14 2111.11 1999.65 2110.63 2000.9 2109.69 2001.89 2108.74 2002.87 2107.57 2003.37 2106.16 2003.37 2104.76 2003.37 2103.58 2002.87 2102.64 2001.89 2101.69 2000.9 2101.22 1999.65 2101.22 1998.14 2101.22 1996.63 2101.69 1995.38 2102.64 1994.39 2103.58 1993.4 2104.76 1992.91 2106.16 1992.91ZM2081.6 1992.91C2083.01 1992.91 2084.18 1993.4 2085.13 1994.39 2086.07 1995.38 2086.55 1996.63 2086.55 1998.14 2086.55 1999.65 2086.07 2000.9 2085.13 2001.89 2084.18 2002.87 2083.01 2003.37 2081.6 2003.37 2080.2 2003.37 2079.02 2002.87 2078.08 2001.89 2077.13 2000.9 2076.66 1999.65 2076.66 1998.14 2076.66 1996.63 2077.13 1995.38 2078.08 1994.39 2079.02 1993.4 2080.2 1992.91 2081.6 1992.91Z" fill-rule="evenodd"/><text fill="#000000" fill-opacity="0" font-family="Arial,Arial_MSFontService,sans-serif" font-size="10.4561" x="2076.66" y="2002.06">⋯</text><path d="M1436.5 1987.92 1927.04 1987.92 1927.04 1997.08 1436.5 1997.08ZM1922.46 1969.58 1968.29 1992.5 1922.46 2015.42Z"/><path d="M2269.5 1987.92 2743.76 1987.92 2743.76 1997.08 2269.5 1997.08ZM2739.18 1969.58 2785.01 1992.5 2739.18 2015.42Z"/><path d="M649.5 1987.92 936.274 1987.92 936.274 1997.08 649.5 1997.08ZM931.691 1969.58 977.524 1992.5 931.691 2015.42Z"/><path d="M3233.5 1987.92 3529.82 1987.92 3529.82 1997.08 3233.5 1997.08ZM3525.24 1969.58 3571.07 1992.5 3525.24 2015.42Z"/><path d="M781.932 1896.67C782.77 1896.67 783.506 1896.77 784.141 1896.96 784.776 1897.15 785.336 1897.44 785.823 1897.83 786.309 1898.22 786.741 1898.73 787.12 1899.35 787.498 1899.97 787.862 1900.81 788.214 1901.88 788.565 1902.95 788.896 1904.27 789.207 1905.85 789.517 1907.43 789.794 1909.07 790.037 1910.78L790.443 1910.78C793.036 1907.13 795.002 1904.46 796.339 1902.77 797.677 1901.08 798.805 1899.83 799.724 1899 800.642 1898.18 801.527 1897.6 802.378 1897.26 803.229 1896.92 804.357 1896.75 805.762 1896.75 807.032 1896.75 808.072 1896.92 808.883 1897.24L807.262 1904.58 804.425 1904.58C804.263 1903.44 803.79 1902.87 803.006 1902.87 802.763 1902.87 802.506 1902.91 802.236 1902.99 801.966 1903.08 801.635 1903.25 801.243 1903.52 800.852 1903.79 800.277 1904.32 799.521 1905.1 798.764 1905.89 797.913 1906.84 796.968 1907.98 796.022 1909.11 795.049 1910.3 794.05 1911.55L791.294 1914.99C791.78 1917.58 792.239 1919.83 792.672 1921.72 793.104 1923.61 793.489 1925.18 793.827 1926.44 794.164 1927.7 794.462 1928.69 794.718 1929.42 794.975 1930.15 795.252 1930.7 795.549 1931.06 795.846 1931.42 796.15 1931.68 796.461 1931.83 796.772 1931.98 797.13 1932.05 797.535 1932.05 798.265 1932.05 798.974 1931.77 799.663 1931.2 800.352 1930.63 801.345 1929.35 802.641 1927.35L805.276 1929.09C803.384 1931.9 801.676 1933.88 800.149 1935.03 798.622 1936.18 796.806 1936.75 794.698 1936.75 793.536 1936.75 792.55 1936.54 791.74 1936.13 790.929 1935.71 790.227 1935.04 789.632 1934.12 789.038 1933.2 788.511 1931.77 788.052 1929.82 787.214 1926.37 786.701 1923.72 786.512 1921.88L786.106 1921.88C783.242 1925.91 781.115 1928.8 779.723 1930.55 778.332 1932.31 777.184 1933.61 776.278 1934.44 775.373 1935.28 774.495 1935.87 773.644 1936.21 772.793 1936.54 771.665 1936.71 770.26 1936.71 768.99 1936.71 767.95 1936.55 767.14 1936.23L768.761 1928.89 771.598 1928.89C771.76 1930.03 772.232 1930.59 773.016 1930.59 773.394 1930.59 773.793 1930.49 774.212 1930.29 774.63 1930.09 775.232 1929.6 776.015 1928.83 776.799 1928.06 777.879 1926.85 779.257 1925.2 780.635 1923.56 782.634 1921.08 785.255 1917.79 784.85 1915.65 784.431 1913.6 783.999 1911.63 783.567 1909.65 783.121 1907.82 782.661 1906.12 782.202 1904.41 781.824 1903.3 781.527 1902.77 781.23 1902.24 780.912 1901.88 780.574 1901.68 780.237 1901.47 779.811 1901.37 779.298 1901.37 778.73 1901.37 778.217 1901.5 777.758 1901.76 777.298 1902.02 776.799 1902.46 776.258 1903.1 775.718 1903.73 775.002 1904.72 774.11 1906.07L771.476 1904.33C773.178 1901.77 774.813 1899.85 776.38 1898.58 777.947 1897.31 779.798 1896.67 781.932 1896.67Z" fill-rule="evenodd"/><text fill="#000000" fill-opacity="0" font-family="Arial,Arial_MSFontService,sans-serif" font-size="40.0815" x="767.14" y="1931.74">𝑥</text><path d="M823.533 1922.84 824.993 1922.84 820.584 1942.67C820.306 1943.84 820.113 1944.78 820.004 1945.47 819.894 1946.17 819.84 1946.79 819.84 1947.35 819.84 1948.1 819.994 1948.65 820.301 1948.99 820.609 1949.33 821.071 1949.49 821.686 1949.49 822.044 1949.49 822.401 1949.42 822.759 1949.29 823.116 1949.15 823.498 1948.93 823.905 1948.63 824.312 1948.33 824.759 1947.95 825.246 1947.48 825.732 1947.02 826.273 1946.46 826.869 1945.8L828.894 1947.77C827.862 1948.82 826.924 1949.71 826.08 1950.43 825.236 1951.16 824.437 1951.75 823.682 1952.2 822.927 1952.66 822.188 1952.99 821.463 1953.19 820.738 1953.39 819.969 1953.49 819.155 1953.49 818.4 1953.49 817.72 1953.35 817.114 1953.07 816.509 1952.79 815.987 1952.41 815.551 1951.92 815.114 1951.44 814.776 1950.85 814.538 1950.18 814.3 1949.5 814.181 1948.76 814.181 1947.95 814.181 1947.29 814.26 1946.48 814.419 1945.5 814.578 1944.53 814.781 1943.47 815.029 1942.33 815.278 1941.19 815.551 1939.99 815.849 1938.74 816.146 1937.49 816.439 1936.25 816.727 1935.02 817.015 1933.79 817.273 1932.6 817.502 1931.46 817.73 1930.32 817.894 1929.28 817.993 1928.35 818.033 1928.19 818.053 1928.03 818.053 1927.89 818.053 1927.74 818.053 1927.6 818.053 1927.48 818.013 1926.71 817.74 1926.14 817.234 1925.79 816.727 1925.43 815.829 1925.23 814.538 1925.19L814.895 1923.16ZM821.806 1910.83 827.763 1910.83 826.303 1917.24 820.406 1917.24Z" fill-rule="evenodd"/><text fill="#000000" fill-opacity="0" font-family="Arial,Arial_MSFontService,sans-serif" font-size="42.6523" x="814.181" y="1948.15">𝑖</text><path d="M3370.75 1885.72C3371.59 1885.72 3372.32 1885.82 3372.96 1886.01 3373.59 1886.19 3374.15 1886.48 3374.64 1886.88 3375.13 1887.27 3375.56 1887.77 3375.94 1888.4 3376.32 1889.02 3376.68 1889.86 3377.03 1890.93 3377.38 1892 3377.71 1893.32 3378.02 1894.9 3378.34 1896.48 3378.61 1898.12 3378.86 1899.82L3379.26 1899.82C3381.85 1896.18 3383.82 1893.51 3385.16 1891.82 3386.49 1890.13 3387.62 1888.88 3388.54 1888.05 3389.46 1887.23 3390.34 1886.65 3391.2 1886.31 3392.05 1885.97 3393.17 1885.8 3394.58 1885.8 3395.85 1885.8 3396.89 1885.96 3397.7 1886.29L3396.08 1893.62 3393.24 1893.62C3393.08 1892.49 3392.61 1891.92 3391.82 1891.92 3391.58 1891.92 3391.32 1891.96 3391.05 1892.04 3390.78 1892.12 3390.45 1892.3 3390.06 1892.57 3389.67 1892.84 3389.1 1893.37 3388.34 1894.15 3387.58 1894.93 3386.73 1895.89 3385.79 1897.03 3384.84 1898.16 3383.87 1899.35 3382.87 1900.59L3380.11 1904.04C3380.6 1906.63 3381.06 1908.88 3381.49 1910.77 3381.92 1912.66 3382.31 1914.23 3382.64 1915.49 3382.98 1916.75 3383.28 1917.74 3383.54 1918.47 3383.79 1919.2 3384.07 1919.74 3384.37 1920.11 3384.66 1920.47 3384.97 1920.73 3385.28 1920.88 3385.59 1921.03 3385.95 1921.1 3386.35 1921.1 3387.08 1921.1 3387.79 1920.82 3388.48 1920.25 3389.17 1919.68 3390.16 1918.4 3391.46 1916.4L3394.09 1918.14C3392.2 1920.95 3390.49 1922.93 3388.97 1924.08 3387.44 1925.23 3385.62 1925.8 3383.52 1925.8 3382.35 1925.8 3381.37 1925.59 3380.56 1925.17 3379.75 1924.76 3379.04 1924.09 3378.45 1923.17 3377.86 1922.25 3377.33 1920.82 3376.87 1918.87 3376.03 1915.41 3375.52 1912.77 3375.33 1910.93L3374.92 1910.93C3372.06 1914.96 3369.93 1917.85 3368.54 1919.6 3367.15 1921.36 3366 1922.66 3365.1 1923.49 3364.19 1924.33 3363.31 1924.92 3362.46 1925.26 3361.61 1925.59 3360.48 1925.76 3359.08 1925.76 3357.81 1925.76 3356.77 1925.6 3355.96 1925.28L3357.58 1917.94 3360.42 1917.94C3360.58 1919.08 3361.05 1919.64 3361.83 1919.64 3362.21 1919.64 3362.61 1919.54 3363.03 1919.34 3363.45 1919.14 3364.05 1918.65 3364.83 1917.88 3365.62 1917.11 3366.7 1915.9 3368.07 1914.25 3369.45 1912.6 3371.45 1910.13 3374.07 1906.84 3373.67 1904.7 3373.25 1902.65 3372.82 1900.68 3372.38 1898.7 3371.94 1896.87 3371.48 1895.16 3371.02 1893.46 3370.64 1892.35 3370.34 1891.82 3370.05 1891.29 3369.73 1890.93 3369.39 1890.73 3369.05 1890.52 3368.63 1890.42 3368.12 1890.42 3367.55 1890.42 3367.03 1890.55 3366.58 1890.81 3366.12 1891.06 3365.62 1891.51 3365.08 1892.15 3364.54 1892.78 3363.82 1893.77 3362.93 1895.12L3360.29 1893.38C3362 1890.81 3363.63 1888.9 3365.2 1887.63 3366.76 1886.36 3368.62 1885.72 3370.75 1885.72Z" fill-rule="evenodd"/><text fill="#000000" fill-opacity="0" font-family="Arial,Arial_MSFontService,sans-serif" font-size="40.0815" x="3355.96" y="1920.79">𝑥</text><path d="M3412.35 1911.89 3413.81 1911.89 3409.4 1931.72C3409.12 1932.89 3408.93 1933.83 3408.82 1934.52 3408.71 1935.22 3408.66 1935.84 3408.66 1936.4 3408.66 1937.15 3408.81 1937.7 3409.12 1938.04 3409.43 1938.37 3409.89 1938.54 3410.5 1938.54 3410.86 1938.54 3411.22 1938.47 3411.58 1938.33 3411.93 1938.2 3412.32 1937.98 3412.72 1937.68 3413.13 1937.38 3413.58 1937 3414.06 1936.53 3414.55 1936.07 3415.09 1935.51 3415.69 1934.85L3417.71 1936.82C3416.68 1937.87 3415.74 1938.76 3414.9 1939.48 3414.05 1940.21 3413.25 1940.8 3412.5 1941.25 3411.75 1941.71 3411.01 1942.04 3410.28 1942.24 3409.56 1942.44 3408.79 1942.53 3407.97 1942.53 3407.22 1942.53 3406.54 1942.4 3405.93 1942.12 3405.33 1941.84 3404.81 1941.46 3404.37 1940.97 3403.93 1940.48 3403.59 1939.9 3403.36 1939.23 3403.12 1938.55 3403 1937.81 3403 1936.99 3403 1936.34 3403.08 1935.53 3403.24 1934.55 3403.4 1933.58 3403.6 1932.52 3403.85 1931.38 3404.1 1930.24 3404.37 1929.04 3404.67 1927.79 3404.96 1926.54 3405.26 1925.3 3405.54 1924.07 3405.83 1922.84 3406.09 1921.65 3406.32 1920.51 3406.55 1919.37 3406.71 1918.33 3406.81 1917.4 3406.85 1917.24 3406.87 1917.08 3406.87 1916.93 3406.87 1916.79 3406.87 1916.65 3406.87 1916.53 3406.83 1915.76 3406.56 1915.19 3406.05 1914.83 3405.54 1914.48 3404.65 1914.28 3403.36 1914.24L3403.71 1912.21ZM3410.62 1899.88 3416.58 1899.88 3415.12 1906.29 3409.22 1906.29Z" fill-rule="evenodd"/><text fill="#000000" fill-opacity="0" font-family="Arial,Arial_MSFontService,sans-serif" font-size="42.6523" x="3403" y="1937.2">𝑖</text><path d="M1667.57 1897.85C1668.68 1897.85 1669.62 1897.99 1670.41 1898.29 1670.95 1898.51 1671.49 1898.87 1672.03 1899.37 1672.57 1899.87 1673.05 1900.56 1673.47 1901.45 1673.89 1902.34 1674.25 1903.34 1674.56 1904.45 1674.87 1905.56 1675.22 1907.15 1675.59 1909.23 1676.24 1912.72 1676.87 1916.39 1677.48 1920.24 1678.09 1924.09 1678.61 1927.66 1679.04 1930.96 1681.66 1927.17 1683.88 1923.47 1685.71 1919.85 1687.53 1916.23 1688.84 1913.08 1689.64 1910.41 1690.43 1907.73 1690.83 1905.56 1690.83 1903.88 1690.83 1902.61 1690.56 1901.75 1690.02 1901.29 1689.48 1900.83 1688.56 1900.56 1687.27 1900.48L1687.67 1898.49 1698.33 1898.49 1699.42 1900.52C1697.37 1906.14 1694.59 1912.15 1691.08 1918.56 1687.62 1924.82 1683.66 1931.06 1679.2 1937.28 1674.93 1943.2 1671.38 1947.48 1668.54 1950.13 1666.57 1951.94 1664.67 1953.23 1662.83 1954.02 1661.37 1954.61 1659.82 1954.91 1658.17 1954.91 1657.6 1954.91 1656.94 1954.86 1656.2 1954.77 1655.46 1954.67 1654.88 1954.54 1654.48 1954.38L1656.22 1946.52 1659.42 1946.52C1659.42 1948.25 1660.02 1949.11 1661.21 1949.11 1662.77 1949.11 1664.6 1948.13 1666.68 1946.17 1668.76 1944.22 1671.2 1941.26 1674.01 1937.32 1673.23 1932.59 1672.16 1926.89 1670.81 1920.22 1669.38 1913.08 1668.43 1908.67 1667.97 1906.96 1667.41 1904.91 1666.81 1903.6 1666.19 1903.03 1665.81 1902.68 1665.34 1902.51 1664.77 1902.51 1663.91 1902.51 1663.1 1902.86 1662.34 1903.56 1661.58 1904.26 1660.65 1905.48 1659.55 1907.21L1656.91 1905.46C1658.78 1902.68 1660.52 1900.72 1662.14 1899.57 1663.76 1898.42 1665.57 1897.85 1667.57 1897.85Z" fill-rule="evenodd"/><text fill="#000000" fill-opacity="0" font-family="Arial,Arial_MSFontService,sans-serif" font-size="57.0625" x="1654.48" y="1947.78">𝑦</text><path d="M1712.4 1923.97 1713.86 1923.97 1709.45 1943.81C1709.17 1944.98 1708.98 1945.91 1708.87 1946.61 1708.76 1947.3 1708.71 1947.93 1708.71 1948.48 1708.71 1949.24 1708.86 1949.78 1709.17 1950.12 1709.48 1950.46 1709.94 1950.63 1710.55 1950.63 1710.91 1950.63 1711.27 1950.56 1711.63 1950.42 1711.98 1950.28 1712.37 1950.06 1712.77 1949.76 1713.18 1949.47 1713.63 1949.08 1714.11 1948.62 1714.6 1948.15 1715.14 1947.59 1715.74 1946.93L1717.76 1948.9C1716.73 1949.95 1715.79 1950.84 1714.95 1951.57 1714.1 1952.29 1713.3 1952.88 1712.55 1953.34 1711.8 1953.79 1711.06 1954.12 1710.33 1954.32 1709.61 1954.52 1708.84 1954.62 1708.02 1954.62 1707.27 1954.62 1706.59 1954.48 1705.98 1954.2 1705.38 1953.92 1704.86 1953.54 1704.42 1953.05 1703.98 1952.57 1703.64 1951.99 1703.41 1951.31 1703.17 1950.64 1703.05 1949.89 1703.05 1949.08 1703.05 1948.42 1703.13 1947.61 1703.29 1946.64 1703.45 1945.66 1703.65 1944.61 1703.9 1943.46 1704.15 1942.32 1704.42 1941.13 1704.72 1939.87 1705.01 1938.62 1705.31 1937.38 1705.59 1936.15 1705.88 1934.92 1706.14 1933.73 1706.37 1932.59 1706.6 1931.45 1706.76 1930.41 1706.86 1929.48 1706.9 1929.32 1706.92 1929.17 1706.92 1929.02 1706.92 1928.87 1706.92 1928.73 1706.92 1928.62 1706.88 1927.84 1706.61 1927.28 1706.1 1926.92 1705.59 1926.56 1704.7 1926.36 1703.41 1926.32L1703.76 1924.3ZM1710.67 1911.97 1716.63 1911.97 1715.17 1918.37 1709.27 1918.37Z" fill-rule="evenodd"/><text fill="#000000" fill-opacity="0" font-family="Arial,Arial_MSFontService,sans-serif" font-size="42.6523" x="1703.05" y="1949.29">𝑖</text><path d="M2500.3 1896.71C2501.41 1896.71 2502.36 1896.86 2503.14 1897.16 2503.68 1897.37 2504.22 1897.73 2504.76 1898.23 2505.3 1898.73 2505.78 1899.43 2506.2 1900.32 2506.62 1901.21 2506.98 1902.21 2507.29 1903.32 2507.6 1904.43 2507.95 1906.02 2508.33 1908.1 2508.97 1911.59 2509.6 1915.25 2510.21 1919.1 2510.82 1922.95 2511.34 1926.53 2511.77 1929.82 2514.39 1926.04 2516.61 1922.34 2518.44 1918.72 2520.26 1915.1 2521.57 1911.95 2522.37 1909.28 2523.17 1906.6 2523.56 1904.43 2523.56 1902.75 2523.56 1901.48 2523.29 1900.62 2522.75 1900.16 2522.21 1899.7 2521.3 1899.43 2520 1899.35L2520.4 1897.36 2531.06 1897.36 2532.16 1899.39C2530.1 1905.01 2527.32 1911.02 2523.81 1917.42 2520.35 1923.69 2516.39 1929.93 2511.93 1936.15 2507.66 1942.06 2504.11 1946.35 2501.27 1948.99 2499.3 1950.8 2497.4 1952.1 2495.56 1952.88 2494.1 1953.48 2492.55 1953.78 2490.9 1953.78 2490.33 1953.78 2489.68 1953.73 2488.93 1953.63 2488.19 1953.54 2487.62 1953.41 2487.21 1953.25L2488.95 1945.39 2492.16 1945.39C2492.16 1947.12 2492.75 1947.98 2493.94 1947.98 2495.51 1947.98 2497.33 1947 2499.41 1945.04 2501.49 1943.08 2503.94 1940.13 2506.75 1936.19 2505.96 1931.46 2504.9 1925.76 2503.54 1919.08 2502.11 1911.95 2501.17 1907.53 2500.71 1905.83 2500.14 1903.78 2499.55 1902.47 2498.92 1901.9 2498.55 1901.55 2498.07 1901.37 2497.51 1901.37 2496.64 1901.37 2495.83 1901.72 2495.07 1902.43 2494.32 1903.13 2493.39 1904.35 2492.28 1906.07L2489.64 1904.33C2491.51 1901.55 2493.25 1899.58 2494.87 1898.44 2496.49 1897.29 2498.3 1896.71 2500.3 1896.71Z" fill-rule="evenodd"/><text fill="#000000" fill-opacity="0" font-family="Arial,Arial_MSFontService,sans-serif" font-size="57.0625" x="2487.21" y="1946.64">𝑦</text><path d="M2545.13 1922.84 2546.59 1922.84 2542.18 1942.67C2541.91 1943.84 2541.71 1944.78 2541.6 1945.47 2541.49 1946.17 2541.44 1946.79 2541.44 1947.35 2541.44 1948.1 2541.59 1948.65 2541.9 1948.99 2542.21 1949.33 2542.67 1949.49 2543.29 1949.49 2543.64 1949.49 2544 1949.42 2544.36 1949.29 2544.72 1949.15 2545.1 1948.93 2545.51 1948.63 2545.91 1948.33 2546.36 1947.95 2546.85 1947.48 2547.33 1947.02 2547.87 1946.46 2548.47 1945.8L2550.49 1947.77C2549.46 1948.82 2548.52 1949.71 2547.68 1950.43 2546.84 1951.16 2546.04 1951.75 2545.28 1952.2 2544.53 1952.66 2543.79 1952.99 2543.06 1953.19 2542.34 1953.39 2541.57 1953.49 2540.75 1953.49 2540 1953.49 2539.32 1953.35 2538.71 1953.07 2538.11 1952.79 2537.59 1952.41 2537.15 1951.92 2536.71 1951.44 2536.38 1950.85 2536.14 1950.18 2535.9 1949.5 2535.78 1948.76 2535.78 1947.95 2535.78 1947.29 2535.86 1946.48 2536.02 1945.5 2536.18 1944.53 2536.38 1943.47 2536.63 1942.33 2536.88 1941.19 2537.15 1939.99 2537.45 1938.74 2537.75 1937.49 2538.04 1936.25 2538.33 1935.02 2538.61 1933.79 2538.87 1932.6 2539.1 1931.46 2539.33 1930.32 2539.49 1929.28 2539.59 1928.35 2539.63 1928.19 2539.65 1928.03 2539.65 1927.89 2539.65 1927.74 2539.65 1927.6 2539.65 1927.48 2539.61 1926.71 2539.34 1926.14 2538.83 1925.79 2538.33 1925.43 2537.43 1925.23 2536.14 1925.19L2536.5 1923.16ZM2543.41 1910.83 2549.36 1910.83 2547.9 1917.24 2542.01 1917.24Z" fill-rule="evenodd"/><text fill="#000000" fill-opacity="0" font-family="Arial,Arial_MSFontService,sans-serif" font-size="42.6523" x="2535.78" y="1948.15">𝑖</text></g></svg>