<svg xmlns="http://www.w3.org/2000/svg" width="2796" height="724" overflow="hidden"><defs><clipPath id="a"><path d="M127 1332h2796v724H127z"/></clipPath></defs><g clip-path="url(#a)" transform="translate(-127 -1332)"><path fill="#d74514" fill-rule="evenodd" d="M127 1708.5c0-100.24 81.26-181.5 181.5-181.5S490 1608.26 490 1708.5 408.74 1890 308.5 1890 127 1808.74 127 1708.5"/><text fill="#fff" font-family="Microsoft YaHei,Microsoft YaHei_MSFontService,sans-serif" font-size="83" font-weight="700" transform="translate(277.536 1738)">A</text><path fill="#d74514" fill-rule="evenodd" d="M2560 1694.5c0-100.24 81.26-181.5 181.5-181.5s181.5 81.26 181.5 181.5-81.26 181.5-181.5 181.5-181.5-81.26-181.5-181.5"/><text fill="#fff" font-family="Microsoft YaHei,Microsoft YaHei_MSFontService,sans-serif" font-size="83" font-weight="700" transform="translate(2713.6 1724)">B<tspan x="-1397.74" y="-287" fill="#000" font-weight="400">①</tspan></text><path fill-rule="evenodd" d="M1451.18 1384.88c-1.67 0-3.43.04-5.27.12l-5.51 24.56h4.22q4.905 0 7.92-1.02c2.01-.67 3.66-1.72 4.94-3.14 1.29-1.42 2.28-3.1 2.98-5.04.71-1.95 1.06-4.08 1.06-6.41 0-3.13-.8-5.43-2.39-6.89-1.6-1.46-4.25-2.18-7.95-2.18m34.02-3.57h16.21l-.44 1.98c-1.03.22-1.77.46-2.21.73-.45.27-.85.68-1.2 1.22s-.71 1.38-1.09 2.53-.85 3.02-1.42 5.62l-2.88 12.92h1.34c1.13 0 2.17-.18 3.1-.56s2.02-1.07 3.26-2.07c1.25-1 3.22-2.84 5.94-5.51 2.72-2.68 4.65-4.71 5.8-6.1 1.14-1.39 1.98-2.59 2.51-3.61.52-1.01.79-1.94.79-2.77q0-1.02-.81-1.65-.81-.615-2.31-.75l.44-1.98h17.39l-.45 1.98c-1.08.17-2.3.73-3.66 1.69q-2.055 1.44-6.27 5.61l-15.72 15.32 8.63 20.75c.89 2.13 1.63 3.67 2.21 4.62.58.94 1.28 1.69 2.09 2.25q1.215.825 3 1.11l-.45 1.99h-15.64l.44-1.99c1.46-.13 2.19-.78 2.19-1.94 0-.73-.15-1.56-.44-2.49-.3-.94-.65-1.9-1.06-2.9l-5.27-12.89q-.93-2.31-1.62-3.24c-.46-.62-.94-1.06-1.46-1.3-.51-.24-1.31-.36-2.39-.36h-2.27l-3.36 15.32c-.35 1.62-.58 2.89-.69 3.83-.11.93-.16 1.76-.16 2.49 0 1.21.3 2.07.91 2.57s1.63.8 3.06.91l-.45 1.99h-16.21l.45-1.99c1.03-.16 1.8-.42 2.31-.79.51-.36.95-.87 1.3-1.52s.67-1.44.97-2.37.74-2.73 1.34-5.41l6.89-31.2c.59-2.71.89-4.88.89-6.53 0-1.27-.32-2.15-.95-2.65-.64-.5-1.65-.79-3.02-.88Zm-51 0h17.87c3.22 0 5.86.25 7.93.75 2.06.5 3.77 1.27 5.1 2.31a9.55 9.55 0 0 1 3 3.95c.66 1.59 1 3.44 1 5.55 0 4.06-.96 7.57-2.88 10.54s-4.52 5.16-7.8 6.56c-3.29 1.41-7.22 2.11-11.82 2.11-2.75 0-5.05-.05-6.89-.16l-2.59 11.92q-.36 1.65-.51 2.55-.135.885-.24 1.92c-.07.69-.1 1.31-.1 1.85 0 .83.13 1.49.4 1.96.27.48.68.82 1.22 1.04.54.21 1.47.37 2.8.48l-.45 1.99h-16.66l.45-1.99c1.03-.16 1.8-.42 2.31-.79.51-.36.95-.87 1.3-1.52s.67-1.44.97-2.37.74-2.73 1.34-5.41l6.89-31.2c.59-2.71.89-4.84.89-6.41 0-1.32-.31-2.24-.93-2.75-.63-.52-1.64-.81-3.04-.9Z"/><text x="1423.58" y="1429.71" fill-opacity="0" font-family="Arial,Arial_MSFontService,sans-serif" font-size="55.32">𝑃𝐾</text><path fill-rule="evenodd" d="M1545.58 1420.86c-1.73 2.82-3.44 5.64-5.14 8.47s-3.41 5.67-5.14 8.51h11.47c-.1-1.28-.2-2.52-.3-3.74s-.18-2.51-.24-3.86-.11-2.79-.16-4.32-.08-3.22-.08-5.06Zm-.12-6.53h4.91l2.71 31.49c.08 1.01.21 1.86.38 2.56.16.69.4 1.27.7 1.73.29.45.67.8 1.11 1.04q.675.36 1.68.51l-.44 1.81h-12.99l.45-1.81c.55-.1 1.05-.23 1.47-.38.43-.15.78-.39 1.06-.74s.49-.82.64-1.42c.15-.59.22-1.37.22-2.32 0-.36-.01-.77-.03-1.24-.02-.46-.04-.95-.07-1.47q-.045-.78-.12-1.59c-.05-.55-.09-1.08-.13-1.6h-13.35c-.45.68-.91 1.37-1.35 2.09-.45.71-.86 1.41-1.22 2.1-.37.68-.66 1.36-.88 2.04-.22.67-.33 1.34-.33 1.99 0 1.45 1.06 2.3 3.19 2.54l-.39 1.81h-13.02l.33-1.81c.54-.1 1.02-.26 1.45-.47.42-.2.87-.53 1.34-.98.46-.45.97-1.05 1.52-1.82.54-.76 1.2-1.77 1.98-3.02Z"/><text x="1519.66" y="1448.58" fill-opacity="0" font-family="Arial,Arial_MSFontService,sans-serif" font-size="39.138">𝐴</text><path fill-rule="evenodd" d="M1609.64 1381.31h6.32v63.42h-6.32Zm-14.19 0h6.33v63.42h-6.33Z"/><text x="1595.45" y="1436.81" fill-opacity="0" font-family="Arial,Arial_MSFontService,sans-serif" font-size="63.425">∥</text><path fill-rule="evenodd" d="M1726.5 1384.83c-1.19 0-2.47.05-3.85.13l-10.49 47.94c.78.08 2.28.12 4.49.12 4.38 0 8.1-.76 11.15-2.29 3.05-1.52 5.69-3.92 7.9-7.17 2.22-3.26 3.85-6.69 4.91-10.3 1.05-3.6 1.58-7.41 1.58-11.4q0-8.475-3.96-12.75c-2.63-2.85-6.54-4.28-11.73-4.28m-15.48-3.52h15.36q6.12 0 9.93.93t7.11 3.36c2.2 1.63 3.86 3.78 4.97 6.47 1.1 2.69 1.66 5.87 1.66 9.54 0 3.65-.42 7.14-1.26 10.46q-1.26 4.98-3.6 9.18c-1.57 2.79-3.45 5.23-5.64 7.29q-3.285 3.105-6.36 4.77c-2.05 1.1-4.35 1.93-6.89 2.49-2.54.55-5.5.83-8.88.83h-17.02l.45-1.99c1.02-.16 1.79-.42 2.31-.79.51-.36.94-.87 1.3-1.52.35-.65.67-1.44.97-2.37.29-.93.74-2.73 1.34-5.41l6.88-31.2c.6-2.71.9-4.88.9-6.53 0-1.27-.32-2.15-.96-2.65-.63-.5-1.64-.79-3.02-.88Zm-32 0h16.21l-.44 1.98c-1.03.22-1.77.46-2.21.73-.45.27-.85.68-1.2 1.22s-.71 1.38-1.09 2.53-.85 3.02-1.42 5.62l-6.93 31.45q-.525 2.385-.69 3.78c-.11.94-.16 1.78-.16 2.54 0 1.21.3 2.07.91 2.57s1.63.8 3.06.91l-.45 1.99h-16.21l.45-1.99c1.02-.16 1.79-.42 2.31-.79.51-.36.94-.87 1.3-1.52.35-.65.67-1.44.97-2.37.29-.93.74-2.73 1.34-5.41l6.88-31.2c.6-2.71.9-4.88.9-6.53 0-1.27-.32-2.15-.96-2.65-.63-.5-1.64-.79-3.02-.88Z"/><text x="1668.4" y="1429.71" fill-opacity="0" font-family="Arial,Arial_MSFontService,sans-serif" font-size="55.32">𝐼𝐷</text><path fill-rule="evenodd" d="M1772.11 1420.86c-1.73 2.82-3.44 5.64-5.14 8.47s-3.41 5.67-5.14 8.51h11.47c-.1-1.28-.2-2.52-.3-3.74s-.18-2.51-.24-3.86-.11-2.79-.16-4.32-.07-3.22-.07-5.06Zm-.12-6.53h4.91l2.71 31.49c.08 1.01.21 1.86.38 2.56.17.69.4 1.27.7 1.73.29.45.67.8 1.11 1.04.45.24 1.01.41 1.69.51l-.45 1.81h-12.99l.45-1.81c.56-.1 1.05-.23 1.47-.38.43-.15.78-.39 1.06-.74s.49-.82.64-1.42c.15-.59.23-1.37.23-2.32 0-.36-.01-.77-.03-1.24-.02-.46-.05-.95-.08-1.47q-.045-.78-.12-1.59c-.05-.55-.09-1.08-.13-1.6h-13.35c-.45.68-.9 1.37-1.35 2.09-.45.71-.85 1.41-1.22 2.1-.37.68-.66 1.36-.88 2.04-.22.67-.33 1.34-.33 1.99 0 1.45 1.06 2.3 3.19 2.54l-.39 1.81h-13.01l.32-1.81c.54-.1 1.02-.26 1.45-.47.42-.2.87-.53 1.34-.98.46-.45.97-1.05 1.52-1.82.54-.76 1.2-1.77 1.98-3.02Z"/><text x="1746.2" y="1448.58" fill-opacity="0" font-family="Arial,Arial_MSFontService,sans-serif" font-size="39.138">𝐴</text><text font-family="Microsoft YaHei,Microsoft YaHei_MSFontService,sans-serif" font-size="83" font-weight="400" transform="translate(1344.77 1986)">②</text><path fill-rule="evenodd" d="M1463.11 1930.62h37.29l-2.8 12.45h-3.89c-.11-2.35-.31-4.12-.61-5.31s-.65-2.01-1.07-2.45q-.63-.675-1.5-.9c-.58-.14-1.41-.22-2.49-.22h-13.22l-4.62 21.24h7.74c1.92 0 3.39-.45 4.4-1.36s2.03-2.4 3.06-4.48h3.69l-3.65 15.56H1482c0-2.16-.14-3.62-.41-4.39s-.67-1.26-1.19-1.46c-.53-.2-1.48-.31-2.86-.31h-8.11l-5.18 23.39h11.99c1.6 0 2.86-.16 3.79-.49.93-.32 1.81-.85 2.64-1.58.82-.73 1.64-1.75 2.47-3.06.82-1.31 1.8-3.09 2.94-5.33h3.93l-3.57 14.02h-35.95l.45-1.98c1.03-.16 1.8-.43 2.31-.79.51-.37.94-.87 1.3-1.52.35-.65.67-1.44.97-2.37s.74-2.74 1.34-5.41l6.89-31.21c.59-2.7.89-4.88.89-6.52 0-1.27-.32-2.16-.96-2.66-.63-.5-1.64-.79-3.01-.87Z"/><text x="1452.49" y="1979.03" fill-opacity="0" font-family="Arial,Arial_MSFontService,sans-serif" font-size="55.32">𝐸</text><path fill-rule="evenodd" d="M1519.78 1967.31c-.71 0-1.4.01-2.05.03-.66.02-1.31.05-1.94.09l-3.78 16.12h3.57c2.32.04 4.25-.19 5.78-.69 1.53-.49 2.75-1.2 3.68-2.11.92-.92 1.57-1.99 1.95-3.22s.56-2.57.56-4.02c0-2.16-.62-3.74-1.87-4.72s-3.22-1.48-5.9-1.48m25.87-3.15h12.56l-.32 1.78c-.46.12-.85.22-1.16.3-.32.08-.61.2-.85.36-.25.16-.47.37-.64.64-.18.27-.36.64-.53 1.1-.16.47-.34 1.05-.53 1.76-.19.7-.4 1.57-.64 2.61l-1.94 8.75h.84c.45 0 .87-.03 1.25-.09.37-.06.75-.16 1.11-.31.37-.15.75-.35 1.14-.61.38-.26.82-.59 1.32-.98 2.07-1.61 3.79-3.05 5.18-4.32s2.52-2.39 3.38-3.37c.87-.97 1.48-1.8 1.85-2.48.37-.69.55-1.26.55-1.72 0-.47-.19-.85-.56-1.11-.38-.27-1-.42-1.85-.44l.33-1.87h13.55l-.42 1.87c-.45.04-.89.13-1.29.27-.41.14-.88.39-1.42.76-.53.37-1.17.87-1.92 1.52-.74.65-1.68 1.48-2.81 2.52l-11.62 10.48 6.73 14c.52 1.09.96 1.96 1.34 2.59.38.64.77 1.14 1.16 1.52.4.38.85.65 1.36.82s1.14.32 1.89.46l-.48 1.82h-12.27l.42-1.82c.56-.04.97-.16 1.25-.37s.42-.47.42-.79q-.03-.33-.09-.69c-.04-.23-.11-.5-.21-.78q-.15-.435-.39-1.02c-.16-.38-.36-.85-.59-1.38l-3.99-8.52c-.34-.76-.65-1.35-.91-1.79-.27-.43-.55-.77-.84-1.01s-.61-.39-.98-.46-.83-.11-1.39-.11h-1.63c-.16.82-.35 1.69-.57 2.62-.22.94-.44 1.89-.65 2.85-.22.96-.43 1.91-.63 2.84q-.3 1.41-.54 2.61c-.16.8-.28 1.52-.38 2.14-.1.63-.15 1.11-.15 1.45 0 .83.24 1.42.73 1.77.48.35 1.31.56 2.48.64l-.47 1.82h-12.54l.33-1.82c.61-.1 1.11-.21 1.5-.34s.73-.41 1.04-.83c.31-.43.59-1.07.85-1.93.26-.85.56-2.06.89-3.63l4.89-21.71c.2-.88.35-1.65.45-2.33.1-.67.15-1.25.15-1.72 0-.88-.23-1.5-.69-1.87-.46-.36-1.29-.56-2.5-.58Zm-39 0h13.46c2.14 0 4.04.16 5.7.49s3.06.85 4.2 1.58c1.14.72 2.01 1.67 2.61 2.83.59 1.16.91 2.58.95 4.27 0 2.21-.41 4.15-1.24 5.82-.82 1.68-1.98 3.08-3.47 4.19-1.48 1.11-3.27 1.95-5.36 2.52-2.08.56-4.38.83-6.91.81-1.09 0-2.07-.01-2.95-.02-.87-.02-1.6-.05-2.2-.09-.22 1.03-.47 2.15-.74 3.36-.28 1.21-.54 2.38-.78 3.5s-.44 2.15-.59 3.07q-.24 1.38-.24 2.07c0 .4.05.74.16 1.03.11.28.29.53.54.73s.6.34 1.05.44c.46.1 1.05.17 1.76.21l-.41 1.82h-12.9l.33-1.82c.61-.1 1.12-.22 1.51-.37.4-.15.75-.44 1.06-.86.31-.43.59-1.07.84-1.93.24-.85.54-2.04.87-3.57l4.89-21.71c.2-.88.35-1.65.45-2.33.1-.67.15-1.23.15-1.66 0-.9-.23-1.53-.67-1.91q-.675-.57-2.52-.6Z"/><text x="1499.29" y="1997.96" fill-opacity="0" font-family="Arial,Arial_MSFontService,sans-serif" font-size="38.631">𝑃𝐾</text><path fill-rule="evenodd" d="M1600.06 1981.09c3.44 0 6.82.54 10.16 1.63l-1.52 6.77h-3.12c-.13-1.84-.69-3.2-1.69-4.08q-1.485-1.32-4.68-1.32c-1.92 0-3.48.48-4.67 1.44-1.18.96-1.78 2.27-1.78 3.93 0 1.22.37 2.29 1.1 3.2s2.16 2 4.27 3.25c1.96 1.14 3.44 2.15 4.45 3.04s1.77 1.87 2.29 2.95.78 2.33.78 3.73c0 1.93-.52 3.67-1.57 5.2s-2.57 2.72-4.54 3.57c-1.98.86-4.26 1.28-6.85 1.28-3.24 0-6.98-.57-11.23-1.71l1.54-7.05h3.12q.15 3.075 1.8 4.44c1.09.91 2.86 1.37 5.28 1.37 2.21 0 3.95-.55 5.2-1.65s1.88-2.58 1.88-4.45q0-1.83-1.17-3.36c-.78-1.02-2.38-2.22-4.79-3.6-2.45-1.42-4.23-2.84-5.33-4.26-1.1-1.43-1.65-2.99-1.65-4.7q0-2.865 1.53-5.04c1.02-1.46 2.48-2.59 4.4-3.38 1.93-.8 4.19-1.2 6.79-1.2"/><text x="1581.46" y="2011.36" fill-opacity="0" font-family="Arial,Arial_MSFontService,sans-serif" font-size="34.595">𝑆</text><path fill-rule="evenodd" d="M1734.03 1923.62h18.07v77.29h-18.07v-3.12h11.35v-71.05h-11.35Zm-108.12 0h18.08v3.12h-11.35v71.05h11.35v3.12h-18.08Zm32.57 7h16.21l-.45 1.99c-1.03.22-1.76.46-2.21.73-.44.27-.84.68-1.19 1.22s-.72 1.38-1.1 2.53-.85 3.02-1.42 5.61l-2.87 12.93h1.33c1.14 0 2.17-.19 3.1-.57.94-.38 2.02-1.06 3.27-2.06 1.24-1 3.22-2.84 5.93-5.52 2.72-2.67 4.65-4.7 5.8-6.09 1.15-1.4 1.98-2.6 2.51-3.61.53-1.02.79-1.94.79-2.78 0-.67-.27-1.22-.81-1.64q-.81-.63-2.31-.75l.45-1.99h17.38l-.44 1.99c-1.08.16-2.31.72-3.67 1.68s-3.45 2.83-6.26 5.62l-15.73 15.32 8.64 20.75c.89 2.13 1.62 3.67 2.21 4.62.58.94 1.27 1.69 2.08 2.24.81.56 1.81.93 3 1.12l-.44 1.98h-15.65l.45-1.98c1.46-.14 2.19-.78 2.19-1.95q0-1.095-.45-2.49c-.3-.93-.65-1.9-1.05-2.9l-5.27-12.88c-.62-1.54-1.16-2.62-1.62-3.25-.46-.62-.95-1.05-1.46-1.29-.52-.25-1.31-.37-2.39-.37h-2.27l-3.37 15.32c-.35 1.62-.58 2.9-.69 3.83-.1.93-.16 1.76-.16 2.49 0 1.22.31 2.08.91 2.58.61.5 1.63.8 3.06.91l-.44 1.98h-16.21l.44-1.98c1.03-.16 1.8-.43 2.31-.79.52-.37.95-.87 1.3-1.52s.68-1.44.97-2.37c.3-.93.75-2.74 1.34-5.41l6.89-31.21c.59-2.7.89-4.88.89-6.52 0-1.27-.32-2.16-.95-2.66-.64-.5-1.64-.79-3.02-.87Z"/><text x="1647.86" y="1979.03" fill-opacity="0" font-family="Arial,Arial_MSFontService,sans-serif" font-size="55.32">𝐾</text><path fill-rule="evenodd" d="M1716.55 1963.59c1.88 0 3.69.15 5.43.43 1.74.29 3.56.75 5.47 1.39l-1.7 7.56h-3.25c-.06-1.11-.23-2.07-.52-2.87s-.69-1.46-1.21-1.97c-.51-.5-1.17-.88-1.96-1.13-.8-.25-1.74-.37-2.83-.37-1.17 0-2.23.16-3.19.48-.95.31-1.76.77-2.44 1.35-.68.59-1.2 1.29-1.56 2.12-.37.82-.55 1.72-.55 2.69 0 .74.08 1.41.26 2.03.18.61.49 1.21.93 1.78.43.58 1.03 1.17 1.8 1.76.76.6 1.73 1.25 2.9 1.97 1.43.89 2.66 1.73 3.68 2.53 1.02.79 1.86 1.62 2.5 2.47.65.85 1.12 1.76 1.42 2.73.3.96.44 2.04.44 3.23 0 1.73-.34 3.3-1.02 4.73-.69 1.43-1.66 2.66-2.92 3.7-1.26 1.03-2.77 1.83-4.53 2.39-1.76.57-3.72.85-5.88.85-1.83 0-3.79-.15-5.9-.46-2.1-.31-4.18-.76-6.22-1.35l1.75-8.05h3.16c.06 2.39.7 4.12 1.91 5.19s3.07 1.61 5.6 1.61q1.935 0 3.48-.51c1.03-.34 1.91-.82 2.62-1.46.72-.64 1.26-1.41 1.64-2.32.38-.92.57-1.94.57-3.07 0-.8-.1-1.51-.3-2.16s-.55-1.29-1.04-1.92c-.5-.64-1.17-1.28-2.01-1.94-.85-.65-1.9-1.37-3.15-2.14-1.25-.78-2.34-1.55-3.26-2.31s-1.69-1.56-2.31-2.38a9.8 9.8 0 0 1-1.38-2.58c-.31-.89-.46-1.85-.46-2.86 0-1.67.32-3.18.98-4.54.65-1.36 1.59-2.53 2.81-3.52 1.23-.98 2.7-1.74 4.44-2.27 1.74-.54 3.67-.81 5.8-.81"/><text x="1695.7" y="1998.46" fill-opacity="0" font-family="Arial,Arial_MSFontService,sans-serif" font-size="39.852">𝑆</text><path d="m438.468 1584.78 764.297-165.09-1.936-8.96-764.297 165.09Zm763.687-146.202 39.962-32.077-49.639-12.723ZM438.2 1832.97l763.85 118.11-1.4 9.06-763.85-118.11Zm762.12 99.29 41.8 29.65-48.8 15.64Zm666.14-530.24 708.5 151.52-1.92 8.97-708.5-151.53Zm707.85 132.64 40.02 31.99-49.61 12.83Zm-707.979 431.397 708.268-130.575-1.662-9.015-708.268 130.576Zm707.085-111.715 40.919-30.847-49.229-14.227Z"/></g></svg>