<svg width="1138" height="1443" xmlns="http://www.w3.org/2000/svg" xmlns:xlink="http://www.w3.org/1999/xlink" overflow="hidden"><defs><clipPath id="clip0"><rect x="589" y="207" width="1138" height="1443"/></clipPath></defs><g clip-path="url(#clip0)" transform="translate(-589 -207)"><path d="M713.215 398.925 1546.22 398.925 1546.22 1451.93 713.215 1451.93Z" fill="#FEF8F6" fill-rule="evenodd"/><rect x="820.5" y="1225.5" width="148" height="148" stroke="#D74514" stroke-width="9.16667" stroke-miterlimit="8" fill="none"/><path d="M0 0 148.129 0.000360892" stroke="#D74514" stroke-width="9.16667" stroke-miterlimit="8" fill="none" fill-rule="evenodd" transform="matrix(-1 0 0 1 968.629 1299.5)"/><path d="M0 0 0.000360892 148.129" stroke="#D74514" stroke-width="9.16667" stroke-miterlimit="8" fill="none" fill-rule="evenodd" transform="matrix(1 0 0 -1 894.5 1373.63)"/><path d="M820.5 563.5C820.5 522.631 853.631 489.5 894.5 489.5 935.369 489.5 968.5 522.631 968.5 563.5 968.5 604.369 935.369 637.5 894.5 637.5 853.631 637.5 820.5 604.369 820.5 563.5Z" stroke="#D74514" stroke-width="9.16667" stroke-miterlimit="8" fill="none" fill-rule="evenodd"/><path d="M885 563.5C885 558.253 889.253 554 894.5 554 899.747 554 904 558.253 904 563.5 904 568.747 899.747 573 894.5 573 889.253 573 885 568.747 885 563.5Z" fill="#D74514" fill-rule="evenodd"/><path d="M606.648 537.538 641.744 537.538 641.298 539.483 604.419 589.129 617.387 589.129C618.765 589.129 619.88 589.014 620.731 588.785 621.582 588.555 622.332 588.21 622.98 587.751 623.629 587.292 624.29 586.67 624.966 585.887 625.641 585.103 626.324 584.137 627.013 582.989 627.702 581.841 628.492 580.24 629.383 578.187L633.274 578.187 630.153 592.858 594.206 592.858 594.611 590.872 631.41 541.266 618.968 541.266C617.455 541.266 616.253 541.401 615.361 541.672 614.469 541.942 613.639 542.421 612.869 543.11 612.099 543.799 611.295 544.758 610.457 545.988 609.62 547.217 608.647 548.966 607.539 551.236L603.649 551.236Z" fill-rule="evenodd"/><text fill="#000000" fill-opacity="0" font-family="Arial,Arial_MSFontService,sans-serif" font-size="55.3198" x="594.206" y="585.943">𝑍</text><path d="M666.392 569.7 669.073 569.7 668.656 576.908 651.202 576.908 651.202 588.554C652.254 588.196 653.406 587.909 654.657 587.69 655.908 587.472 657.169 587.362 658.44 587.362 660.267 587.362 661.92 587.616 663.399 588.122 664.878 588.628 666.149 589.353 667.211 590.296 668.274 591.239 669.098 592.381 669.684 593.722 670.269 595.062 670.562 596.566 670.562 598.234 670.562 600.14 670.235 601.838 669.579 603.327 668.924 604.817 667.986 606.082 666.765 607.125 665.543 608.167 664.054 608.962 662.297 609.508 660.54 610.054 658.559 610.327 656.355 610.327 654.607 610.327 652.82 610.158 650.993 609.82 649.167 609.483 647.27 608.986 645.304 608.331L645.304 601.719 649.117 601.719C649.713 603.724 650.606 605.159 651.798 606.023 652.989 606.887 654.558 607.318 656.504 607.318 659.105 607.318 661.071 606.643 662.401 605.293 663.732 603.943 664.397 601.828 664.397 598.949 664.397 596.189 663.692 594.139 662.282 592.798 660.872 591.458 658.896 590.788 656.355 590.788 655.68 590.788 655.069 590.798 654.523 590.818 653.977 590.837 653.436 590.887 652.9 590.966 652.364 591.046 651.832 591.155 651.306 591.294 650.78 591.433 650.189 591.592 649.534 591.771L647.092 590.43 647.092 571.695 663.593 571.695C664.069 571.676 664.451 571.646 664.739 571.606 665.027 571.566 665.26 571.477 665.439 571.338 665.618 571.199 665.777 571.005 665.916 570.757 666.055 570.509 666.214 570.157 666.392 569.7Z" fill-rule="evenodd"/><text fill="#000000" fill-opacity="0" font-family="Arial,Arial_MSFontService,sans-serif" font-size="40.627" x="645.304" y="605.248">5</text><rect x="1279.5" y="737.5" width="148" height="148" stroke="#D74514" stroke-width="9.16667" stroke-miterlimit="8" fill="none"/><path d="M0 0 148.129 0.000360892" stroke="#D74514" stroke-width="9.16667" stroke-miterlimit="8" fill="none" fill-rule="evenodd" transform="matrix(-1 0 0 1 1427.63 811.5)"/><path d="M0 0 0.000360892 148.129" stroke="#D74514" stroke-width="9.16667" stroke-miterlimit="8" fill="none" fill-rule="evenodd" transform="matrix(1 0 0 -1 1353.5 885.629)"/><path d="M1279.5 1034C1279.5 992.855 1312.63 959.5 1353.5 959.5 1394.37 959.5 1427.5 992.855 1427.5 1034 1427.5 1075.15 1394.37 1108.5 1353.5 1108.5 1312.63 1108.5 1279.5 1075.15 1279.5 1034Z" stroke="#D74514" stroke-width="9.16667" stroke-miterlimit="8" fill="none" fill-rule="evenodd"/><path d="M1344 1033.5C1344 1028.25 1348.25 1024 1353.5 1024 1358.75 1024 1363 1028.25 1363 1033.5 1363 1038.75 1358.75 1043 1353.5 1043 1348.25 1043 1344 1038.75 1344 1033.5Z" fill="#D74514" fill-rule="evenodd"/><path d="M0-4.58333 178.459-4.58333 178.459 343.839 169.292 343.839 169.292 0 173.876 4.58333 0 4.58333ZM196.792 339.256 173.876 385.09 150.959 339.256Z" transform="matrix(1.83697e-16 1 1 -1.83697e-16 894.5 637.5)"/><path d="M1358.17 1108.5 1358.17 1304.51 1009.75 1304.51 1009.75 1295.34 1353.59 1295.34 1349.01 1299.93 1349.01 1108.5ZM1014.33 1322.84 968.5 1299.93 1014.33 1277.01Z"/><path d="M899.083 637.5 899.084 1183.75 889.917 1183.75 889.917 637.5ZM917.417 1179.16 894.5 1225 871.584 1179.16Z"/><path d="M0 0 0.000360892 74.0649" stroke="#000000" stroke-width="9.16667" stroke-miterlimit="8" fill="none" fill-rule="evenodd" transform="matrix(-1 0 0 1 1353.5 885.5)"/><path d="M691.5 558.917 779.042 558.917 779.042 568.083 691.5 568.083ZM774.459 540.583 820.292 563.5 774.459 586.417Z"/><path d="M899.083 341.5 899.084 448.116 889.917 448.117 889.917 341.5ZM917.417 443.533 894.5 489.366 871.583 443.533Z"/><path d="M855.893 248.788 892.449 248.788 889.652 261.23 885.762 261.23C885.654 259.15 885.485 257.509 885.255 256.306 885.025 255.104 884.701 254.239 884.282 253.713 883.864 253.186 883.357 252.828 882.763 252.639 882.168 252.449 881.277 252.355 880.088 252.355L867.605 252.355 862.783 274.402 870.361 274.402C871.55 274.402 872.536 274.24 873.32 273.915 874.103 273.591 874.833 273.004 875.508 272.152 876.184 271.301 877.021 269.849 878.021 267.796L881.709 267.796 877.778 284.898 874.211 284.898C874.211 282.169 874.124 280.461 873.948 279.772 873.772 279.083 873.435 278.61 872.935 278.353 872.435 278.096 871.442 277.968 869.956 277.968L862.013 277.968 858.811 292.315C858.244 294.855 857.96 296.962 857.96 298.637 857.96 299.475 858.095 300.13 858.365 300.603 858.635 301.076 859.041 301.42 859.581 301.636 860.121 301.852 861.054 302.014 862.377 302.122L861.932 304.108 845.275 304.108 845.721 302.122C846.747 301.96 847.517 301.697 848.031 301.332 848.544 300.967 848.976 300.461 849.328 299.812 849.679 299.164 850.003 298.374 850.3 297.442 850.597 296.509 851.043 294.706 851.638 292.031L858.527 260.825C859.122 258.123 859.419 255.989 859.419 254.422 859.419 253.098 859.108 252.179 858.487 251.666 857.865 251.153 856.852 250.855 855.447 250.774Z" fill-rule="evenodd"/><text fill="#000000" fill-opacity="0" font-family="Arial,Arial_MSFontService,sans-serif" font-size="55.3198" x="845.275" y="297.193">𝐹</text><path d="M902.555 282.589 904.372 282.589C904.332 283.681 904.303 284.659 904.283 285.523 904.263 286.386 904.248 287.225 904.238 288.039 904.228 288.854 904.223 289.658 904.223 290.452L904.223 313.089C904.223 313.704 904.243 314.236 904.283 314.682 904.323 315.129 904.387 315.506 904.476 315.814 904.566 316.122 904.685 316.385 904.834 316.603 904.983 316.822 905.156 317.01 905.355 317.169 905.593 317.408 905.911 317.591 906.308 317.72 906.705 317.849 907.212 317.959 907.827 318.048 908.443 318.137 909.182 318.207 910.046 318.257 910.91 318.306 911.948 318.341 913.159 318.361L913.159 320.952 889.539 320.952 889.539 318.361C890.711 318.321 891.703 318.276 892.518 318.227 893.332 318.177 894.027 318.108 894.603 318.018 895.178 317.929 895.64 317.83 895.988 317.72 896.335 317.611 896.638 317.477 896.896 317.318 897.174 317.14 897.412 316.946 897.611 316.737 897.809 316.529 897.968 316.266 898.087 315.948 898.207 315.63 898.301 315.243 898.37 314.787 898.44 314.33 898.475 313.764 898.475 313.089L898.475 291.733C898.475 290.958 898.326 290.412 898.028 290.095 897.73 289.777 897.303 289.618 896.747 289.618 896.132 289.618 895.218 289.936 894.007 290.571 892.796 291.207 891.227 292.15 889.301 293.401 889.043 292.944 888.804 292.487 888.586 292.031 888.368 291.574 888.139 291.107 887.901 290.631 890.363 289.281 892.801 287.935 895.213 286.595 897.626 285.255 900.073 283.919 902.555 282.589Z" fill-rule="evenodd"/><text fill="#000000" fill-opacity="0" font-family="Arial,Arial_MSFontService,sans-serif" font-size="38.3633" x="887.901" y="316.157">1</text><path d="M1314.1 248.317 1350.65 248.317 1347.86 260.759 1343.96 260.759C1343.86 258.679 1343.69 257.037 1343.46 255.835 1343.23 254.633 1342.9 253.768 1342.49 253.241 1342.07 252.714 1341.56 252.356 1340.97 252.167 1340.37 251.978 1339.48 251.884 1338.29 251.884L1325.81 251.884 1320.99 273.93 1328.56 273.93C1329.75 273.93 1330.74 273.768 1331.52 273.444 1332.31 273.12 1333.04 272.532 1333.71 271.681 1334.39 270.83 1335.22 269.378 1336.22 267.324L1339.91 267.324 1335.98 284.427 1332.41 284.427C1332.41 281.698 1332.33 279.989 1332.15 279.3 1331.98 278.611 1331.64 278.139 1331.14 277.882 1330.64 277.625 1329.64 277.497 1328.16 277.497L1320.22 277.497 1317.01 291.844C1316.45 294.383 1316.16 296.491 1316.16 298.166 1316.16 299.003 1316.3 299.659 1316.57 300.131 1316.84 300.604 1317.24 300.949 1317.78 301.165 1318.32 301.381 1319.26 301.543 1320.58 301.651L1320.13 303.637 1303.48 303.637 1303.92 301.651C1304.95 301.489 1305.72 301.226 1306.23 300.861 1306.75 300.496 1307.18 299.99 1307.53 299.341 1307.88 298.693 1308.21 297.902 1308.5 296.97 1308.8 296.038 1309.25 294.235 1309.84 291.56L1316.73 260.354C1317.32 257.652 1317.62 255.518 1317.62 253.95 1317.62 252.627 1317.31 251.708 1316.69 251.195 1316.07 250.681 1315.05 250.384 1313.65 250.303Z" fill-rule="evenodd"/><text fill="#000000" fill-opacity="0" font-family="Arial,Arial_MSFontService,sans-serif" font-size="55.3198" x="1303.48" y="296.722">𝐹</text><path d="M1360.34 281.909C1362.4 281.909 1364.16 282.142 1365.62 282.609 1367.08 283.076 1368.27 283.706 1369.18 284.5 1370.1 285.295 1370.76 286.248 1371.16 287.36 1371.57 288.472 1371.77 289.673 1371.77 290.964 1371.77 291.738 1371.72 292.458 1371.61 293.123 1371.5 293.788 1371.31 294.444 1371.04 295.089 1370.78 295.734 1370.42 296.385 1369.99 297.04 1369.55 297.695 1369 298.39 1368.35 299.125 1367.85 299.76 1367.21 300.495 1366.41 301.329 1365.62 302.163 1364.75 303.056 1363.81 304.01 1362.86 304.963 1361.88 305.955 1360.84 306.988 1359.81 308.021 1358.81 309.043 1357.83 310.056 1356.86 311.069 1355.97 312.052 1355.15 313.005 1354.34 313.958 1353.67 314.831 1353.16 315.626L1364.18 315.626C1365.11 315.626 1365.86 315.591 1366.41 315.521 1366.97 315.452 1367.43 315.298 1367.8 315.06 1368.17 314.822 1368.48 314.459 1368.74 313.973 1368.99 313.486 1369.29 312.816 1369.63 311.962L1372.4 311.962C1372.3 313.372 1372.21 314.792 1372.12 316.221 1372.03 317.651 1371.93 319.071 1371.83 320.481L1346.61 320.481 1346.61 318.932C1347.08 317.86 1347.64 316.802 1348.27 315.76 1348.91 314.717 1349.62 313.66 1350.42 312.588 1351.21 311.515 1352.12 310.408 1353.13 309.267 1354.14 308.125 1355.26 306.938 1356.49 305.707 1358.36 303.841 1359.88 302.247 1361.05 300.927 1362.22 299.606 1363.15 298.43 1363.82 297.397 1364.5 296.365 1364.96 295.412 1365.21 294.538 1365.45 293.664 1365.58 292.731 1365.58 291.738 1365.58 290.725 1365.44 289.792 1365.15 288.938 1364.86 288.084 1364.45 287.36 1363.91 286.764 1363.38 286.168 1362.69 285.702 1361.87 285.364 1361.05 285.026 1360.1 284.858 1359.03 284.858 1357.18 284.858 1355.63 285.359 1354.38 286.362 1353.13 287.365 1352.16 288.819 1351.46 290.725L1347.56 290.725 1347.56 284.917C1350.1 283.865 1352.44 283.1 1354.57 282.624 1356.71 282.147 1358.63 281.909 1360.34 281.909Z" fill-rule="evenodd"/><text fill="#000000" fill-opacity="0" font-family="Arial,Arial_MSFontService,sans-serif" font-size="38.5718" x="1346.61" y="315.659">2</text><path d="M1358.08 341.5 1358.08 696.528 1348.92 696.528 1348.92 341.5ZM1376.42 691.945 1353.5 737.778 1330.58 691.945Z"/><path d="M1625.64 1005.93 1660.73 1005.93 1660.29 1007.87 1623.41 1057.52 1636.37 1057.52C1637.75 1057.52 1638.87 1057.4 1639.72 1057.17 1640.57 1056.94 1641.32 1056.6 1641.97 1056.14 1642.62 1055.68 1643.28 1055.06 1643.95 1054.28 1644.63 1053.49 1645.31 1052.53 1646 1051.38 1646.69 1050.23 1647.48 1048.63 1648.37 1046.58L1652.26 1046.58 1649.14 1061.25 1613.19 1061.25 1613.6 1059.26 1650.4 1009.65 1637.96 1009.65C1636.44 1009.65 1635.24 1009.79 1634.35 1010.06 1633.46 1010.33 1632.63 1010.81 1631.86 1011.5 1631.09 1012.19 1630.28 1013.15 1629.44 1014.38 1628.61 1015.61 1627.63 1017.35 1626.53 1019.62L1622.64 1019.62Z" fill-rule="evenodd"/><text fill="#000000" fill-opacity="0" font-family="Arial,Arial_MSFontService,sans-serif" font-size="55.3198" x="1613.19" y="1054.33">𝑍</text><path d="M1678.02 1058.34C1676.69 1058.34 1675.47 1058.52 1674.34 1058.88 1673.22 1059.24 1672.16 1059.72 1671.14 1060.34 1670.73 1060.62 1670.4 1060.87 1670.17 1061.11 1669.95 1061.35 1669.78 1061.63 1669.67 1061.96 1669.56 1062.29 1669.48 1062.7 1669.44 1063.18 1669.41 1063.67 1669.39 1064.33 1669.39 1065.16 1669.39 1072.19 1671.94 1075.71 1677.04 1075.71 1678.43 1075.71 1679.63 1075.5 1680.63 1075.1 1681.63 1074.69 1682.45 1074.1 1683.09 1073.34 1683.72 1072.57 1684.19 1071.63 1684.49 1070.51 1684.78 1069.39 1684.93 1068.11 1684.93 1066.68 1684.93 1064.02 1684.34 1061.97 1683.15 1060.52 1681.95 1059.07 1680.25 1058.34 1678.02 1058.34ZM1685.92 1039.52C1686.15 1039.8 1686.37 1040.06 1686.57 1040.32 1686.77 1040.58 1686.99 1040.84 1687.23 1041.1L1687.23 1042.85C1684.82 1042.81 1682.66 1043.13 1680.73 1043.81 1678.81 1044.48 1677.11 1045.47 1675.64 1046.77 1674.17 1048.07 1672.94 1049.67 1671.95 1051.57 1670.95 1053.46 1670.18 1055.6 1669.62 1057.98L1669.95 1058.13C1670.77 1057.58 1671.57 1057.1 1672.36 1056.69 1673.16 1056.28 1673.96 1055.94 1674.78 1055.68 1675.59 1055.41 1676.43 1055.21 1677.31 1055.1 1678.18 1054.98 1679.12 1054.92 1680.11 1054.92 1681.86 1054.92 1683.4 1055.18 1684.74 1055.69 1686.08 1056.21 1687.22 1056.96 1688.15 1057.96 1689.08 1058.95 1689.79 1060.14 1690.26 1061.53 1690.74 1062.92 1690.98 1064.47 1690.98 1066.18 1690.98 1067.98 1690.68 1069.66 1690.09 1071.21 1689.49 1072.76 1688.6 1074.09 1687.41 1075.2 1686.21 1076.31 1684.74 1077.18 1682.98 1077.79 1681.22 1078.41 1679.16 1078.72 1676.8 1078.72 1672.33 1078.72 1668.96 1077.44 1666.69 1074.89 1664.42 1072.34 1663.28 1068.58 1663.28 1063.61 1663.28 1061.39 1663.53 1059.26 1664.02 1057.23 1664.52 1055.19 1665.25 1053.29 1666.21 1051.54 1667.18 1049.78 1668.34 1048.19 1669.71 1046.77 1671.08 1045.35 1672.61 1044.12 1674.3 1043.08 1675.99 1042.03 1677.81 1041.21 1679.78 1040.61 1681.75 1040 1683.79 1039.64 1685.92 1039.52Z" fill-rule="evenodd"/><text fill="#000000" fill-opacity="0" font-family="Arial,Arial_MSFontService,sans-serif" font-size="39.1973" x="1663.28" y="1073.82">6</text><path d="M0.0442546-4.58312 139.653-3.23505 139.565 5.93119-0.0442546 4.58312ZM135.247-21.6118 180.857 1.74636 134.805 24.2194Z" transform="matrix(-1 0 0 1 1608.36 1032.5)"/><path d="M873.688 1556.83C876.255 1556.83 878.605 1556.98 880.74 1557.29 882.874 1557.6 885.211 1558.16 887.751 1558.97L885.279 1569.88 881.388 1569.88C881.145 1566.5 880.402 1564.07 879.159 1562.6 877.916 1561.13 875.89 1560.39 873.08 1560.39 870.811 1560.39 868.69 1560.97 866.717 1562.13 864.745 1563.3 862.874 1565.03 861.104 1567.34 859.335 1569.65 857.741 1572.56 856.322 1576.08 854.904 1579.59 853.803 1583.25 853.019 1587.06 852.236 1590.87 851.844 1594.45 851.844 1597.8 851.844 1602.01 852.567 1605.09 854.012 1607.02 855.458 1608.95 857.72 1609.92 860.8 1609.92 861.908 1609.92 863.043 1609.79 864.205 1609.53 865.366 1609.27 866.454 1608.84 867.467 1608.21 868.48 1607.59 869.379 1606.76 870.162 1605.7 870.946 1604.65 871.513 1603.32 871.864 1601.73L872.31 1599.82C872.905 1597.29 873.202 1595.11 873.202 1593.3 873.202 1592.03 872.884 1591.15 872.249 1590.65 871.614 1590.15 870.608 1589.86 869.23 1589.77L869.676 1587.79 885.887 1587.79 885.441 1589.77C884.414 1589.99 883.671 1590.23 883.212 1590.5 882.753 1590.77 882.341 1591.19 881.976 1591.74 881.611 1592.29 881.253 1593.14 880.902 1594.27 880.551 1595.41 880.091 1597.27 879.524 1599.87L876.728 1612.59 873.526 1613.48 871.419 1610.28C868.609 1611.6 866.393 1612.46 864.772 1612.85 863.151 1613.25 861.503 1613.44 859.828 1613.44 854.748 1613.44 850.885 1611.98 848.237 1609.07 845.589 1606.15 844.265 1601.88 844.265 1596.26 844.265 1592.23 844.941 1587.71 846.292 1582.7 847.642 1577.69 849.608 1573.21 852.188 1569.27 854.769 1565.32 857.889 1562.26 861.55 1560.09 865.211 1557.91 869.257 1556.83 873.688 1556.83Z" fill-rule="evenodd"/><text fill="#000000" fill-opacity="0" font-family="Arial,Arial_MSFontService,sans-serif" font-size="56.6572" x="844.265" y="1606.4">𝐺</text><path d="M906.726 1591.27 908.543 1591.27C908.503 1592.37 908.473 1593.34 908.454 1594.21 908.434 1595.07 908.419 1595.91 908.409 1596.72 908.399 1597.54 908.394 1598.34 908.394 1599.14L908.394 1621.77C908.394 1622.39 908.414 1622.92 908.454 1623.37 908.493 1623.81 908.558 1624.19 908.647 1624.5 908.737 1624.81 908.856 1625.07 909.005 1625.29 909.154 1625.51 909.327 1625.7 909.526 1625.85 909.764 1626.09 910.082 1626.28 910.479 1626.41 910.876 1626.53 911.383 1626.64 911.998 1626.73 912.614 1626.82 913.353 1626.89 914.217 1626.94 915.081 1626.99 916.118 1627.03 917.33 1627.05L917.33 1629.64 893.71 1629.64 893.71 1627.05C894.882 1627.01 895.874 1626.96 896.688 1626.91 897.503 1626.86 898.198 1626.79 898.773 1626.7 899.349 1626.61 899.811 1626.51 900.158 1626.41 900.506 1626.3 900.809 1626.16 901.067 1626 901.345 1625.82 901.583 1625.63 901.782 1625.42 901.98 1625.21 902.139 1624.95 902.258 1624.63 902.377 1624.32 902.472 1623.93 902.541 1623.47 902.611 1623.02 902.646 1622.45 902.646 1621.77L902.646 1600.42C902.646 1599.64 902.497 1599.1 902.199 1598.78 901.901 1598.46 901.474 1598.3 900.918 1598.3 900.302 1598.3 899.389 1598.62 898.178 1599.26 896.966 1599.89 895.398 1600.84 893.472 1602.09 893.214 1601.63 892.975 1601.17 892.757 1600.72 892.538 1600.26 892.31 1599.79 892.072 1599.32 894.534 1597.97 896.971 1596.62 899.384 1595.28 901.797 1593.94 904.244 1592.6 906.726 1591.27Z" fill-rule="evenodd"/><text fill="#000000" fill-opacity="0" font-family="Arial,Arial_MSFontService,sans-serif" font-size="38.3633" x="892.072" y="1624.84">1</text><path d="M1331.89 1556.83C1334.46 1556.83 1336.81 1556.98 1338.94 1557.29 1341.08 1557.6 1343.41 1558.16 1345.95 1558.97L1343.48 1569.88 1339.59 1569.88C1339.35 1566.5 1338.6 1564.07 1337.36 1562.6 1336.12 1561.13 1334.09 1560.39 1331.28 1560.39 1329.01 1560.39 1326.89 1560.97 1324.92 1562.13 1322.95 1563.3 1321.08 1565.03 1319.31 1567.34 1317.54 1569.65 1315.94 1572.56 1314.52 1576.08 1313.11 1579.59 1312.01 1583.25 1311.22 1587.06 1310.44 1590.87 1310.05 1594.45 1310.05 1597.8 1310.05 1602.01 1310.77 1605.09 1312.21 1607.02 1313.66 1608.95 1315.92 1609.92 1319 1609.92 1320.11 1609.92 1321.25 1609.79 1322.41 1609.53 1323.57 1609.27 1324.66 1608.84 1325.67 1608.21 1326.68 1607.59 1327.58 1606.76 1328.36 1605.7 1329.15 1604.65 1329.72 1603.32 1330.07 1601.73L1330.51 1599.82C1331.11 1597.29 1331.4 1595.11 1331.4 1593.3 1331.4 1592.03 1331.09 1591.15 1330.45 1590.65 1329.82 1590.15 1328.81 1589.86 1327.43 1589.77L1327.88 1587.79 1344.09 1587.79 1343.64 1589.77C1342.62 1589.99 1341.87 1590.23 1341.41 1590.5 1340.96 1590.77 1340.54 1591.19 1340.18 1591.74 1339.81 1592.29 1339.46 1593.14 1339.1 1594.27 1338.75 1595.41 1338.29 1597.27 1337.73 1599.87L1334.93 1612.59 1331.73 1613.48 1329.62 1610.28C1326.81 1611.6 1324.6 1612.46 1322.97 1612.85 1321.35 1613.25 1319.71 1613.44 1318.03 1613.44 1312.95 1613.44 1309.09 1611.98 1306.44 1609.07 1303.79 1606.15 1302.47 1601.88 1302.47 1596.26 1302.47 1592.23 1303.14 1587.71 1304.49 1582.7 1305.85 1577.69 1307.81 1573.21 1310.39 1569.27 1312.97 1565.32 1316.09 1562.26 1319.75 1560.09 1323.41 1557.91 1327.46 1556.83 1331.89 1556.83Z" fill-rule="evenodd"/><text fill="#000000" fill-opacity="0" font-family="Arial,Arial_MSFontService,sans-serif" font-size="56.6572" x="1302.47" y="1606.4">𝐺</text><path d="M1364.51 1591.07C1366.57 1591.07 1368.34 1591.3 1369.79 1591.77 1371.25 1592.23 1372.44 1592.86 1373.35 1593.66 1374.27 1594.45 1374.93 1595.4 1375.33 1596.52 1375.74 1597.63 1375.95 1598.83 1375.95 1600.12 1375.95 1600.89 1375.89 1601.61 1375.78 1602.28 1375.67 1602.94 1375.48 1603.6 1375.22 1604.25 1374.95 1604.89 1374.59 1605.54 1374.16 1606.2 1373.72 1606.85 1373.18 1607.55 1372.52 1608.28 1372.02 1608.92 1371.38 1609.65 1370.58 1610.49 1369.79 1611.32 1368.92 1612.21 1367.98 1613.17 1367.03 1614.12 1366.05 1615.11 1365.01 1616.14 1363.98 1617.18 1362.98 1618.2 1362.01 1619.21 1361.03 1620.23 1360.14 1621.21 1359.33 1622.16 1358.51 1623.11 1357.85 1623.99 1357.33 1624.78L1368.35 1624.78C1369.28 1624.78 1370.03 1624.75 1370.58 1624.68 1371.14 1624.61 1371.6 1624.45 1371.97 1624.22 1372.34 1623.98 1372.65 1623.62 1372.91 1623.13 1373.17 1622.64 1373.46 1621.97 1373.8 1621.12L1376.57 1621.12C1376.47 1622.53 1376.38 1623.95 1376.29 1625.38 1376.2 1626.81 1376.1 1628.23 1376 1629.64L1350.78 1629.64 1350.78 1628.09C1351.25 1627.02 1351.81 1625.96 1352.44 1624.92 1353.08 1623.87 1353.79 1622.82 1354.59 1621.74 1355.38 1620.67 1356.29 1619.56 1357.3 1618.42 1358.31 1617.28 1359.43 1616.09 1360.67 1614.86 1362.53 1613 1364.05 1611.4 1365.22 1610.08 1366.39 1608.76 1367.32 1607.59 1367.99 1606.55 1368.67 1605.52 1369.13 1604.57 1369.38 1603.69 1369.63 1602.82 1369.75 1601.89 1369.75 1600.89 1369.75 1599.88 1369.61 1598.95 1369.32 1598.09 1369.03 1597.24 1368.62 1596.52 1368.08 1595.92 1367.55 1595.32 1366.87 1594.86 1366.04 1594.52 1365.22 1594.18 1364.27 1594.01 1363.2 1594.01 1361.35 1594.01 1359.8 1594.52 1358.55 1595.52 1357.3 1596.52 1356.33 1597.98 1355.63 1599.88L1351.73 1599.88 1351.73 1594.07C1354.27 1593.02 1356.61 1592.26 1358.74 1591.78 1360.88 1591.3 1362.8 1591.07 1364.51 1591.07Z" fill-rule="evenodd"/><text fill="#000000" fill-opacity="0" font-family="Arial,Arial_MSFontService,sans-serif" font-size="38.5718" x="1350.78" y="1624.82">2</text><path d="M4.58333-1.15325e-05 4.58359 102.178-4.58308 102.178-4.58333 1.15325e-05ZM22.9169 97.5946 0.000360892 143.428-22.9164 97.5947Z" transform="matrix(-1 0 0 1 894.5 1373.5)"/><path d="M4.58333-4.04504e-06 4.58366 367.668-4.58301 367.668-4.58333 4.04504e-06ZM22.917 363.085 0.000360892 408.918-22.9163 363.085Z" transform="matrix(-1 0 0 1 1353.5 1108.5)"/></g></svg>