<svg xmlns="http://www.w3.org/2000/svg" width="3114" height="810" overflow="hidden"><defs><clipPath id="a"><path d="M534 515h3114v810H534z"/></clipPath></defs><g clip-path="url(#a)" transform="translate(-534 -515)"><path fill="#fdefe8" d="M621 515h369v219H621z"/><path fill="#d74514" fill-rule="evenodd" d="M774.861 617.325q-3.77 0-6.687 3.79t-4.701 10.192q-1.783 6.404-1.783 11.469 0 2.959.871 4.418t2.695 1.459q2.675 0 5.451-2.614a20.7 20.7 0 0 0 4.478-6.14q1.702-3.527 3.04-9.645l.324-1.5q.648-2.999.648-5.998 0-2.674-1.013-4.053-1.013-1.377-3.323-1.378m-.486-4.215q6.038 0 10.294 2.918l3.931-2.918 4.539.649-6.566 27.559q-.608 2.553-.608 4.62 0 1.337.446 2.067.446.729 1.54.729 1.257 0 2.716-1.135 1.458-1.135 3.404-3.364l2.918 2.918q-4.255 4.255-7.336 5.857-3.08 1.6-6.484 1.6t-5.39-1.884-1.986-4.965q0-1.013.243-1.945l-.567-.081q-2.958 3.486-5.086 5.248-2.128 1.764-4.519 2.695-2.391.932-5.309.932-4.863 0-7.376-3.303t-2.513-9.625q0-5.471 1.581-10.861t4.539-9.301 7.437-6.16q4.477-2.25 10.152-2.25"/><text x="750.666" y="649.423" fill-opacity="0" font-family="Arial,Arial_MSFontService,sans-serif" font-size="41.5">𝒂</text><path fill="#d74514" fill-rule="evenodd" d="M808.272 640.782q2.473 0 3.946 1.385 1.475 1.386 1.475 3.649 0 .744-.179 1.43l.298.238q2.8-3.485 5.317-5.093 2.517-1.61 5.882-1.609 3.068 0 4.81 1.728 1.743 1.728 1.743 4.706 0 .953-.194 2.383a25 25 0 0 1-.461 2.531l-2.353 9.293q-.507 1.996-.507 3.485 0 1.162.387 1.609.388.447 1.103.447.863 0 1.936-.82 1.071-.819 2.531-2.487l2.145 2.145q-2.92 2.978-5.227 4.229-2.309 1.251-5.079 1.251-3.158 0-4.617-1.563-1.46-1.564-1.459-4.602 0-2.175.864-5.57l1.31-4.944q.507-1.907.864-3.768.357-1.862.357-3.053 0-1.34-.565-1.996-.567-.655-1.609-.655-1.46 0-3.336 1.728-1.876 1.726-3.008 3.648-1.132 1.921-1.787 5.019l-3.336 15.28h-8.548l4.795-20.701q.447-1.937.447-2.949 0-.982-.328-1.519t-1.132-.536q-.923 0-1.995.834t-2.502 2.472l-2.145-2.144q2.979-3.038 5.287-4.259a10.26 10.26 0 0 1 4.87-1.222"/><text x="798.115" y="667.47" fill-opacity="0" font-family="Arial,Arial_MSFontService,sans-serif" font-size="30.5">𝒏</text><path fill="#fdefe8" d="M1241 515h369v219h-369z"/><path fill="#d74514" fill-rule="evenodd" d="M1354.78 617.325q-3.765 0-6.69 3.79c-1.94 2.526-3.51 5.923-4.7 10.192s-1.78 8.092-1.78 11.469q0 2.959.87 4.418c.58.973 1.48 1.459 2.69 1.459 1.79 0 3.6-.871 5.45-2.614a20.7 20.7 0 0 0 4.48-6.14c1.14-2.351 2.15-5.566 3.04-9.645l.33-1.5c.43-1.999.64-3.999.64-5.998 0-1.783-.33-3.134-1.01-4.053-.67-.918-1.78-1.378-3.32-1.378m-.49-4.215c4.03 0 7.46.973 10.3 2.918l3.93-2.918 4.54.649-6.57 27.559c-.4 1.702-.61 3.242-.61 4.62q0 1.337.45 2.067c.3.486.81.729 1.54.729.84 0 1.74-.378 2.71-1.135.98-.756 2.11-1.878 3.41-3.364l2.92 2.918c-2.84 2.837-5.29 4.789-7.34 5.857q-3.075 1.6-6.48 1.6c-2.27 0-4.07-.628-5.39-1.884-1.33-1.256-1.99-2.911-1.99-4.965q0-1.013.24-1.945l-.56-.081c-1.98 2.324-3.67 4.073-5.09 5.248-1.42 1.176-2.92 2.074-4.52 2.695q-2.385.932-5.31.932c-3.24 0-5.7-1.101-7.37-3.303q-2.52-3.302-2.52-9.625c0-3.647.53-7.268 1.58-10.861 1.06-3.594 2.57-6.694 4.54-9.301 1.98-2.607 4.45-4.661 7.44-6.16s6.37-2.25 10.15-2.25"/><text x="1330.58" y="649.423" fill-opacity="0" font-family="Arial,Arial_MSFontService,sans-serif" font-size="41.5">𝒂</text><path fill="#d74514" fill-rule="evenodd" d="M1388.19 640.782c1.65 0 2.96.462 3.95 1.385q1.47 1.386 1.47 3.649 0 .744-.18 1.43l.3.238c1.87-2.323 3.64-4.021 5.32-5.093q2.505-1.61 5.88-1.609c2.04 0 3.65.576 4.81 1.728q1.74 1.728 1.74 4.706c0 .635-.06 1.43-.19 2.383s-.29 1.797-.46 2.531l-2.36 9.293c-.33 1.331-.5 2.492-.5 3.485 0 .775.13 1.311.38 1.609q.39.447 1.11.447c.57 0 1.22-.274 1.93-.82.72-.546 1.56-1.375 2.53-2.487l2.15 2.145c-1.95 1.986-3.69 3.395-5.23 4.229s-3.23 1.251-5.08 1.251c-2.1 0-3.64-.521-4.61-1.563-.98-1.043-1.46-2.577-1.46-4.602 0-1.45.28-3.306.86-5.57l1.31-4.944c.34-1.271.63-2.527.86-3.768q.36-1.862.36-3.053c0-.894-.19-1.559-.56-1.996-.38-.437-.92-.655-1.61-.655-.98 0-2.09.576-3.34 1.728-1.25 1.151-2.25 2.367-3.01 3.648-.75 1.281-1.35 2.954-1.78 5.019l-3.34 15.28h-8.55l4.8-20.701c.3-1.291.44-2.274.44-2.949 0-.655-.11-1.161-.32-1.519q-.33-.536-1.14-.536c-.61 0-1.28.278-1.99.834-.72.556-1.55 1.38-2.5 2.472l-2.15-2.144c1.99-2.026 3.75-3.445 5.29-4.259a10.26 10.26 0 0 1 4.87-1.222"/><text x="1378.03" y="667.47" fill-opacity="0" font-family="Arial,Arial_MSFontService,sans-serif" font-size="30.5">𝒏</text><path fill="#d74514" fill-rule="evenodd" d="M1421.31 651.088h34.31v4.557h-34.31Z"/><text x="1421.31" y="655.076" fill-opacity="0" font-family="Arial,Arial_MSFontService,sans-serif" font-size="4.557">−</text><path fill="#d74514" fill-rule="evenodd" d="M1480.25 629.672h3.81q-.18 2.86-.18 7.923v24.901c0 1.151.07 2.02.2 2.606s.36 1.062.68 1.43c.33.367.8.655 1.42.863.61.209 1.39.368 2.32.477s2.17.184 3.69.223v2.711h-25.7v-2.711c2.2-.099 3.78-.233 4.72-.402q1.41-.254 2.16-.759c.5-.338.86-.814 1.09-1.43s.34-1.618.34-3.008v-21.535c0-.814-.15-1.4-.46-1.757-.31-.358-.73-.536-1.27-.536q-.735 0-2.1.685c-.9.456-2.39 1.39-4.45 2.799l-1.82-3.157Z"/><text x="1464.7" y="665.664" fill-opacity="0" font-family="Arial,Arial_MSFontService,sans-serif" font-size="41.133">𝟏</text><path fill="#fdefe8" d="M2186 515h369v219h-369z"/><path fill="#d74514" fill-rule="evenodd" d="M2341.68 617.325q-3.765 0-6.69 3.79c-1.94 2.526-3.51 5.923-4.7 10.192s-1.78 8.092-1.78 11.469q0 2.959.87 4.418c.58.973 1.48 1.459 2.69 1.459 1.79 0 3.6-.871 5.45-2.614a20.7 20.7 0 0 0 4.48-6.14c1.14-2.351 2.15-5.566 3.04-9.645l.33-1.5c.43-1.999.64-3.999.64-5.998 0-1.783-.33-3.134-1.01-4.053-.67-.918-1.78-1.378-3.32-1.378m-.49-4.215c4.03 0 7.46.973 10.3 2.918l3.93-2.918 4.54.649-6.57 27.559c-.41 1.702-.61 3.242-.61 4.62q0 1.337.45 2.067c.3.486.81.729 1.54.729.84 0 1.74-.378 2.71-1.135.98-.756 2.11-1.878 3.41-3.364l2.92 2.918c-2.84 2.837-5.29 4.789-7.34 5.857q-3.075 1.6-6.48 1.6c-2.27 0-4.07-.628-5.39-1.884-1.33-1.256-1.99-2.911-1.99-4.965q0-1.013.24-1.945l-.56-.081c-1.98 2.324-3.67 4.073-5.09 5.248-1.42 1.176-2.93 2.074-4.52 2.695q-2.385.932-5.31.932c-3.24 0-5.7-1.101-7.37-3.303q-2.52-3.302-2.52-9.625c0-3.647.53-7.268 1.58-10.861 1.06-3.594 2.57-6.694 4.54-9.301q2.955-3.911 7.44-6.16c2.98-1.5 6.37-2.25 10.15-2.25"/><text x="2317.48" y="649.423" fill-opacity="0" font-family="Arial,Arial_MSFontService,sans-serif" font-size="41.5">𝒂</text><path fill="#d74514" fill-rule="evenodd" d="M2382.33 629.672q4.38 0 7.14 1.177c1.85.784 3.19 1.847 4.01 3.187s1.24 2.904 1.24 4.691c0 1.569-.3 3.028-.88 4.379-.59 1.35-1.6 2.889-3.04 4.616-1.44 1.728-3.87 4.2-7.28 7.417-1.05.993-2.31 2.298-3.77 3.917s-2.62 3.003-3.47 4.155v.297h10.57c1.29 0 2.26-.094 2.89-.283.64-.188 1.14-.516 1.51-.982.36-.467.67-1.167.91-2.1h3.42l-.68 10.663h-27.29v-1.966c1.53-3.515 4.66-8.042 9.38-13.582 2.15-2.522 3.78-4.597 4.9-6.225q1.695-2.442 2.52-4.617.84-2.174.84-4.497c0-2.185-.49-3.897-1.46-5.138-.98-1.241-2.31-1.862-4-1.862-3.23 0-5.31 2.333-6.22 7h-5.36v-7.03c3.23-1.31 5.85-2.174 7.83-2.591 1.99-.417 4.08-.626 6.29-.626"/><text x="2367.61" y="665.664" fill-opacity="0" font-family="Arial,Arial_MSFontService,sans-serif" font-size="41.133">𝟐</text><path fill="#fdefe8" d="M2802 515h369v219h-369z"/><path fill="#d74514" fill-rule="evenodd" d="M2957.04 617.325q-3.765 0-6.69 3.79c-1.94 2.526-3.51 5.923-4.7 10.192s-1.78 8.092-1.78 11.469q0 2.959.87 4.418c.58.973 1.48 1.459 2.69 1.459 1.79 0 3.6-.871 5.45-2.614 1.86-1.743 3.35-3.789 4.48-6.14 1.14-2.351 2.15-5.566 3.04-9.645l.33-1.5c.43-1.999.65-3.999.65-5.998q0-2.674-1.02-4.053c-.67-.918-1.78-1.378-3.32-1.378m-.49-4.215c4.03 0 7.46.973 10.3 2.918l3.93-2.918 4.54.649-6.57 27.559c-.4 1.702-.61 3.242-.61 4.62q0 1.337.45 2.067c.3.486.81.729 1.54.729.84 0 1.74-.378 2.71-1.135.98-.756 2.11-1.878 3.41-3.364l2.92 2.918c-2.84 2.837-5.29 4.789-7.34 5.857q-3.075 1.6-6.48 1.6c-2.27 0-4.07-.628-5.39-1.884-1.33-1.256-1.99-2.911-1.99-4.965q0-1.013.24-1.945l-.56-.081c-1.98 2.324-3.67 4.073-5.09 5.248-1.42 1.176-2.92 2.074-4.52 2.695q-2.385.932-5.31.932c-3.24 0-5.7-1.101-7.37-3.303q-2.52-3.302-2.52-9.625c0-3.647.53-7.268 1.58-10.861 1.06-3.594 2.57-6.694 4.54-9.301 1.98-2.607 4.45-4.661 7.44-6.16s6.37-2.25 10.15-2.25"/><text x="2932.84" y="649.423" fill-opacity="0" font-family="Arial,Arial_MSFontService,sans-serif" font-size="41.5">𝒂</text><path fill="#d74514" fill-rule="evenodd" d="M3000.01 629.672h3.81q-.18 2.86-.18 7.923v24.901c0 1.151.07 2.02.2 2.606s.36 1.062.68 1.43c.33.367.8.655 1.42.863.61.209 1.39.368 2.32.477s2.17.184 3.69.223v2.711h-25.7v-2.711c2.2-.099 3.78-.233 4.72-.402q1.41-.254 2.16-.759c.5-.338.86-.814 1.09-1.43s.34-1.618.34-3.008v-21.535c0-.814-.15-1.4-.46-1.757-.31-.358-.73-.536-1.27-.536q-.735 0-2.1.685c-.9.456-2.38 1.39-4.45 2.799l-1.82-3.157Z"/><text x="2984.46" y="665.664" fill-opacity="0" font-family="Arial,Arial_MSFontService,sans-serif" font-size="41.133">𝟏</text><path fill="#d74514" d="M1315 1019h1339v218H1315z"/><path fill="#fff" fill-rule="evenodd" d="M1727.67 1099.55c2.7 0 5.24.25 7.62.73l-1.82 8.11h-5.23c-.11-1.68-.38-2.86-.81-3.57-.43-.7-1.11-1.05-2.03-1.05-1.08 0-1.96.38-2.63 1.13-.68.76-1.25 1.79-1.7 3.08-.46 1.3-.92 3-1.38 5.11l-1.02 4.46h8.68l-1.1 5.06h-8.71l-7.34 33.89q-2.145 9.84-6.93 14.61c-3.18 3.17-7.17 4.76-11.95 4.76-1.16 0-2.1-.07-2.8-.2l.97-4.54c.55.08 1.03.12 1.46.12 1.54 0 2.82-.85 3.83-2.56 1.02-1.7 1.92-4.25 2.7-7.66l8.67-38.42h-6.12l.73-3.28c1.87-.02 3.18-.16 3.95-.4.77-.25 1.41-.69 1.91-1.34s.98-1.85 1.44-3.61c.67-2.56 1.52-4.69 2.55-6.38s2.36-3.16 4.01-4.42c1.65-1.25 3.57-2.17 5.78-2.75 2.2-.58 4.62-.88 7.27-.88"/><text x="1688.52" y="1166.33" fill-opacity="0" font-family="Arial,Arial_MSFontService,sans-serif" font-size="76.313">𝒇</text><path fill="#fff" fill-rule="evenodd" d="M2223.8 1095.64c7.89 2.08 13.95 6.57 18.17 13.47 4.23 6.91 6.35 15.23 6.35 24.99 0 9.78-2.11 18.11-6.33 24.98-4.21 6.88-10.28 11.36-18.19 13.44l-.98-3.12c6.25-2.08 10.89-6.19 13.93-12.32 3.04-6.14 4.56-13.93 4.56-23.39 0-9.13-1.52-16.71-4.54-22.75q-4.545-9.06-14.07-12.18Zm-456.45 0 1.09 3.12q-9.48 3.12-14.04 12.18c-3.04 6.04-4.56 13.62-4.56 22.75 0 9.46 1.52 17.25 4.56 23.39 3.04 6.13 7.68 10.24 13.92 12.32l-.97 3.12c-7.92-2.08-13.98-6.56-18.2-13.44-4.21-6.87-6.32-15.2-6.32-24.98 0-9.76 2.12-18.08 6.34-24.99q6.345-10.35 18.18-13.47m30.87 25.48c-2.51 0-4.74 1.26-6.68 3.78-1.95 2.53-3.52 5.93-4.7 10.2-1.19 4.27-1.79 8.09-1.79 11.47q0 2.955.87 4.41c.58.98 1.48 1.46 2.7 1.46 1.78 0 3.6-.87 5.45-2.61s3.34-3.79 4.48-6.14c1.13-2.35 2.15-5.57 3.04-9.65l.32-1.5c.43-2 .65-3.99.65-5.99 0-1.79-.34-3.14-1.01-4.06-.68-.92-1.79-1.37-3.33-1.37m-.48-4.22c4.02 0 7.45.97 10.29 2.92l3.93-2.92 4.54.65-6.56 27.56c-.41 1.7-.61 3.24-.61 4.62 0 .89.15 1.58.44 2.06.3.49.81.73 1.54.73.84 0 1.75-.37 2.72-1.13s2.11-1.88 3.4-3.36l2.92 2.91c-2.83 2.84-5.28 4.79-7.33 5.86-2.06 1.07-4.22 1.6-6.49 1.6s-4.06-.63-5.39-1.88c-1.32-1.26-1.98-2.92-1.98-4.97 0-.67.08-1.32.24-1.94l-.57-.08c-1.97 2.32-3.67 4.07-5.08 5.24-1.42 1.18-2.93 2.08-4.52 2.7q-2.4.93-5.31.93-4.86 0-7.38-3.3c-1.67-2.2-2.51-5.41-2.51-9.63 0-3.65.53-7.27 1.58-10.86s2.57-6.69 4.54-9.3 4.45-4.66 7.44-6.16c2.98-1.5 6.37-2.25 10.15-2.25"/><text x="1774.03" y="1153.21" fill-opacity="0" font-family="Arial,Arial_MSFontService,sans-serif" font-size="41.5">𝒂</text><path fill="#fff" fill-rule="evenodd" d="M1841.2 1133.46h3.81c-.12 1.91-.18 4.55-.18 7.93v24.9c0 1.15.06 2.02.19 2.6.13.59.36 1.06.69 1.43q.495.555 1.41.87c.62.2 1.39.36 2.33.47.93.11 2.16.19 3.69.23v2.71h-25.7v-2.71c2.2-.1 3.77-.24 4.72-.41.94-.17 1.66-.42 2.16-.76.49-.33.85-.81 1.08-1.43.23-.61.35-1.61.35-3v-21.54c0-.81-.16-1.4-.47-1.76-.3-.35-.73-.53-1.26-.53-.5 0-1.2.23-2.1.68-.91.46-2.39 1.39-4.46 2.8l-1.81-3.15Z"/><text x="1825.65" y="1169.45" fill-opacity="0" font-family="Arial,Arial_MSFontService,sans-serif" font-size="41.133">𝟏</text><path fill="#fff" fill-rule="evenodd" d="M1865.7 1148.35h7.09c.38 1.89.57 3.76.57 5.59 0 1.89-.32 3.62-.97 5.19s-1.68 3.13-3.1 4.68-3.37 3.26-5.86 5.13l-2.19-2.47q2.07-1.95 3-3.51c.62-1.04 1.07-2.22 1.34-3.55.27-1.32.41-2.98.41-4.98 0-2.05-.1-4.08-.29-6.08"/><text x="1861.24" y="1166.36" fill-opacity="0" font-family="Arial,Arial_MSFontService,sans-serif" font-size="20.588">,</text><path fill="#fff" fill-rule="evenodd" d="M1919.66 1121.12q-3.765 0-6.69 3.78c-1.94 2.53-3.51 5.93-4.7 10.2s-1.78 8.09-1.78 11.47q0 2.955.87 4.41c.58.98 1.48 1.46 2.69 1.46 1.79 0 3.6-.87 5.46-2.61 1.85-1.74 3.34-3.79 4.47-6.14 1.14-2.35 2.15-5.57 3.04-9.65l.33-1.5c.43-2 .65-3.99.65-5.99 0-1.79-.34-3.14-1.02-4.06-.67-.92-1.78-1.37-3.32-1.37m-.49-4.22c4.03 0 7.46.97 10.3 2.92l3.93-2.92 4.54.65-6.57 27.56c-.4 1.7-.61 3.24-.61 4.62 0 .89.15 1.58.45 2.06.3.49.81.73 1.54.73.84 0 1.74-.37 2.72-1.13.97-.76 2.1-1.88 3.4-3.36l2.92 2.91c-2.84 2.84-5.28 4.79-7.34 5.86a13.8 13.8 0 0 1-6.48 1.6c-2.27 0-4.07-.63-5.39-1.88-1.33-1.26-1.99-2.92-1.99-4.97 0-.67.08-1.32.24-1.94l-.56-.08c-1.97 2.32-3.67 4.07-5.09 5.24-1.42 1.18-2.92 2.08-4.52 2.7q-2.385.93-5.31.93c-3.24 0-5.7-1.1-7.37-3.3q-2.52-3.3-2.52-9.63 0-5.475 1.59-10.86 1.575-5.385 4.53-9.3c1.98-2.61 4.46-4.66 7.44-6.16 2.99-1.5 6.37-2.25 10.15-2.25"/><text x="1895.46" y="1153.21" fill-opacity="0" font-family="Arial,Arial_MSFontService,sans-serif" font-size="41.5">𝒂</text><path fill="#fff" fill-rule="evenodd" d="M1960.31 1133.46c2.92 0 5.3.39 7.15 1.18 1.84.78 3.18 1.85 4 3.19.83 1.34 1.24 2.9 1.24 4.69 0 1.57-.29 3.03-.88 4.38s-1.6 2.88-3.04 4.61-3.87 4.2-7.28 7.42c-1.05.99-2.31 2.3-3.77 3.92-1.46 1.61-2.61 3-3.47 4.15v.3h10.58c1.29 0 2.25-.1 2.88-.28.64-.19 1.14-.52 1.51-.99.37-.46.67-1.16.91-2.1h3.42l-.68 10.67h-27.29v-1.97c1.53-3.51 4.66-8.04 9.39-13.58 2.14-2.52 3.77-4.6 4.9-6.23 1.12-1.63 1.96-3.16 2.51-4.61q.84-2.175.84-4.5c0-2.19-.49-3.9-1.46-5.14q-1.47-1.86-3.99-1.86c-3.24 0-5.32 2.33-6.23 7h-5.36v-7.03c3.24-1.31 5.85-2.17 7.83-2.59 1.99-.42 4.08-.63 6.29-.63"/><text x="1945.59" y="1169.45" fill-opacity="0" font-family="Arial,Arial_MSFontService,sans-serif" font-size="41.133">𝟐</text><path fill="#fff" fill-rule="evenodd" d="M1987.14 1148.35h7.09c.38 1.89.57 3.76.57 5.59 0 1.89-.33 3.62-.98 5.19-.64 1.57-1.68 3.13-3.1 4.68-1.41 1.55-3.37 3.26-5.85 5.13l-2.19-2.47q2.07-1.95 3-3.51c.62-1.04 1.07-2.22 1.34-3.55.27-1.32.4-2.98.4-4.98 0-2.05-.09-4.08-.28-6.08"/><text x="1982.68" y="1166.36" fill-opacity="0" font-family="Arial,Arial_MSFontService,sans-serif" font-size="20.588">,</text><path fill="#fff" fill-rule="evenodd" d="M2072.75 1128.82c1.4 0 2.58.49 3.52 1.47.95.99 1.42 2.24 1.42 3.75 0 1.52-.47 2.77-1.42 3.75-.94.99-2.12 1.48-3.52 1.48-1.41 0-2.58-.49-3.53-1.48-.94-.98-1.42-2.23-1.42-3.75 0-1.51.48-2.76 1.42-3.75.95-.98 2.12-1.47 3.53-1.47m-24.56 0c1.4 0 2.58.49 3.52 1.47.95.99 1.42 2.24 1.42 3.75 0 1.52-.47 2.77-1.42 3.75-.94.99-2.12 1.48-3.52 1.48-1.41 0-2.58-.49-3.53-1.48-.94-.98-1.42-2.23-1.42-3.75 0-1.51.48-2.76 1.42-3.75.95-.98 2.12-1.47 3.53-1.47m-24.56 0c1.4 0 2.58.49 3.52 1.47.95.99 1.42 2.24 1.42 3.75 0 1.52-.47 2.77-1.42 3.75-.94.99-2.12 1.48-3.52 1.48-1.41 0-2.58-.49-3.53-1.48-.94-.98-1.42-2.23-1.42-3.75 0-1.51.48-2.76 1.42-3.75.95-.98 2.12-1.47 3.53-1.47"/><text x="2018.68" y="1137.96" fill-opacity="0" font-family="Arial,Arial_MSFontService,sans-serif" font-size="10.456">⋯</text><path fill="#fff" fill-rule="evenodd" d="M2102.29 1148.35h7.1c.37 1.89.56 3.76.56 5.59 0 1.89-.32 3.62-.97 5.19s-1.68 3.13-3.1 4.68-3.37 3.26-5.86 5.13l-2.18-2.47c1.37-1.3 2.37-2.47 2.99-3.51.63-1.04 1.07-2.22 1.34-3.55.27-1.32.41-2.98.41-4.98 0-2.05-.1-4.08-.29-6.08"/><text x="2097.84" y="1166.36" fill-opacity="0" font-family="Arial,Arial_MSFontService,sans-serif" font-size="20.588">,</text><path fill="#fff" fill-rule="evenodd" d="M2156.25 1121.12q-3.765 0-6.69 3.78c-1.94 2.53-3.51 5.93-4.7 10.2s-1.78 8.09-1.78 11.47q0 2.955.87 4.41c.58.98 1.48 1.46 2.7 1.46 1.78 0 3.6-.87 5.45-2.61s3.34-3.79 4.48-6.14c1.13-2.35 2.14-5.57 3.03-9.65l.33-1.5c.43-2 .65-3.99.65-5.99 0-1.79-.34-3.14-1.02-4.06-.67-.92-1.78-1.37-3.32-1.37m-.49-4.22c4.03 0 7.46.97 10.3 2.92l3.93-2.92 4.54.65-6.57 27.56q-.6 2.55-.6 4.62c0 .89.14 1.58.44 2.06.3.49.81.73 1.54.73.84 0 1.74-.37 2.72-1.13.97-.76 2.1-1.88 3.4-3.36l2.92 2.91c-2.84 2.84-5.28 4.79-7.34 5.86a13.8 13.8 0 0 1-6.48 1.6c-2.27 0-4.07-.63-5.39-1.88-1.33-1.26-1.99-2.92-1.99-4.97 0-.67.08-1.32.25-1.94l-.57-.08c-1.97 2.32-3.67 4.07-5.09 5.24-1.42 1.18-2.92 2.08-4.52 2.7q-2.385.93-5.31.93c-3.24 0-5.7-1.1-7.37-3.3-1.68-2.2-2.51-5.41-2.51-9.63 0-3.65.52-7.27 1.58-10.86 1.05-3.59 2.56-6.69 4.54-9.3 1.97-2.61 4.45-4.66 7.43-6.16 2.99-1.5 6.37-2.25 10.15-2.25"/><text x="2132.06" y="1153.21" fill-opacity="0" font-family="Arial,Arial_MSFontService,sans-serif" font-size="41.5">𝒂</text><path fill="#fff" fill-rule="evenodd" d="M2189.66 1144.57c1.65 0 2.97.46 3.95 1.39.98.92 1.47 2.14 1.47 3.65 0 .49-.06.97-.18 1.43l.3.23c1.87-2.32 3.64-4.02 5.32-5.09s3.64-1.61 5.88-1.61c2.05 0 3.65.58 4.81 1.73q1.74 1.725 1.74 4.71c0 .63-.06 1.43-.19 2.38s-.28 1.8-.46 2.53l-2.35 9.29c-.34 1.33-.51 2.5-.51 3.49 0 .77.13 1.31.39 1.61.25.29.62.44 1.1.44.57 0 1.22-.27 1.93-.82.72-.54 1.56-1.37 2.54-2.48l2.14 2.14c-1.95 1.99-3.69 3.4-5.23 4.23-1.54.84-3.23 1.25-5.07 1.25q-3.165 0-4.62-1.56c-.97-1.04-1.46-2.58-1.46-4.6 0-1.45.29-3.31.86-5.57l1.31-4.95c.34-1.27.63-2.52.87-3.77.24-1.24.35-2.25.35-3.05 0-.89-.18-1.56-.56-1.99-.38-.44-.91-.66-1.61-.66-.97 0-2.08.58-3.34 1.73-1.25 1.15-2.25 2.37-3 3.65-.76 1.28-1.35 2.95-1.79 5.02l-3.34 15.28h-8.55l4.8-20.7c.3-1.3.45-2.28.45-2.95 0-.66-.11-1.17-.33-1.52-.22-.36-.6-.54-1.13-.54-.62 0-1.28.28-2 .84-.71.55-1.55 1.38-2.5 2.47l-2.14-2.15q2.97-3.03 5.28-4.26c1.54-.81 3.16-1.22 4.87-1.22"/><text x="2179.51" y="1171.26" fill-opacity="0" font-family="Arial,Arial_MSFontService,sans-serif" font-size="30.5">𝒏</text><path fill="#d74514" fill-rule="evenodd" d="M1910.52 625.026c1.4 0 2.58.493 3.53 1.479q1.41 1.48 1.41 3.749t-1.41 3.748c-.95.986-2.13 1.48-3.53 1.48-1.41 0-2.58-.494-3.53-1.48q-1.41-1.479-1.41-3.748t1.41-3.749c.95-.986 2.12-1.479 3.53-1.479m-24.56 0c1.4 0 2.58.493 3.53 1.479q1.41 1.48 1.41 3.749t-1.41 3.748c-.95.986-2.13 1.48-3.53 1.48-1.41 0-2.58-.494-3.53-1.48q-1.41-1.479-1.41-3.748t1.41-3.749c.95-.986 2.12-1.479 3.53-1.479m-24.56 0c1.41 0 2.58.493 3.53 1.479q1.41 1.48 1.41 3.749t-1.41 3.748c-.95.986-2.12 1.48-3.53 1.48-1.4 0-2.58-.494-3.53-1.48q-1.41-1.479-1.41-3.748t1.41-3.749c.95-.986 2.13-1.479 3.53-1.479"/><text x="1856.46" y="634.175" fill-opacity="0" font-family="Arial,Arial_MSFontService,sans-serif" font-size="10.456">⋯</text><path d="M990.5 619.917h209.3v9.167l-209.3-.001Zm204.72-18.333 45.83 22.916-45.83 22.917Zm415.28 18.333h182.71v9.167l-182.71-.001Zm178.13-18.333 45.83 22.916-45.83 22.917Zm173.87 18.333h182.71v9.167l-182.71-.001Zm178.13-18.333 45.83 22.916-45.83 22.917Zm414.87 18.333h204.93v9.167l-204.93-.001Zm200.35-18.333 45.83 22.916-45.83 22.917ZM806.578 730.045 1945.66 1005.65l-2.16 8.91L804.422 738.955Zm1138.932 256.71 39.16 33.055-49.93 11.49Z"/><path d="m1427.58 730.417 522.69 266.567-4.16 8.166-522.69-266.567Zm526.94 248.153 30.42 41.24-51.24-.41Zm414.467-247.757-353.033 260.798 5.447 7.373 353.032-260.797Zm-360.24 243.328-23.248 45.666 50.482-8.801Z"/><path d="m2985.814 730.092-961.901 274.007 2.511 8.816 961.902-274.007ZM2023.3 985.211l-37.799 34.596 50.356 9.484Zm-42.623 252.319v82.502l4.583-4.584H539l4.59 4.584V624.499l-4.59 4.583h41.25v-9.167h-45.83v704.7h1455.423v-87.085ZM575.66 647.415l45.84-22.916-45.84-22.917Zm2595.84-27.498h388.21v9.167l-388.21-.001Zm383.63-18.333 45.83 22.916-45.83 22.917Z"/><text font-family="Microsoft YaHei,Microsoft YaHei_MSFontService,sans-serif" font-size="83" font-weight="400" transform="translate(3204.67 751)">输出序列</text></g></svg>