<svg width="2796" height="723" xmlns="http://www.w3.org/2000/svg" xmlns:xlink="http://www.w3.org/1999/xlink" overflow="hidden"><defs><clipPath id="clip0"><rect x="99" y="592" width="2796" height="723"/></clipPath></defs><g clip-path="url(#clip0)" transform="translate(-99 -592)"><path d="M99 967.5C99 867.26 180.26 786 280.5 786 380.74 786 462 867.26 462 967.5 462 1067.74 380.74 1149 280.5 1149 180.26 1149 99 1067.74 99 967.5Z" fill="#D74514" fill-rule="evenodd"/><text fill="#FFFFFF" font-family="Microsoft YaHei,Microsoft YaHei_MSFontService,sans-serif" font-weight="700" font-size="83" transform="matrix(1 0 0 1 249.645 997)">A</text><path d="M2532 954.5C2532 854.26 2613.26 773 2713.5 773 2813.74 773 2895 854.26 2895 954.5 2895 1054.74 2813.74 1136 2713.5 1136 2613.26 1136 2532 1054.74 2532 954.5Z" fill="#D74514" fill-rule="evenodd"/><text fill="#FFFFFF" font-family="Microsoft YaHei,Microsoft YaHei_MSFontService,sans-serif" font-weight="700" font-size="83" transform="matrix(1 0 0 1 2685.71 984)">B<tspan fill="#000000" font-weight="400" font-size="83" x="-1459.18" y="-288">β‘ </tspan></text><path d="M1544 659.799C1541.27 659.799 1538.65 661.177 1536.12 663.933 1533.59 666.689 1531.65 670.417 1530.3 675.118 1534.11 675.091 1537.38 674.747 1540.11 674.085 1542.84 673.423 1544.93 672.369 1546.39 670.924 1547.85 669.478 1548.58 667.526 1548.58 665.068 1548.58 663.42 1548.2 662.129 1547.43 661.197 1546.66 660.265 1545.52 659.799 1544 659.799ZM1450.84 659.799C1448.08 659.799 1445.61 660.914 1443.42 663.143 1441.24 665.372 1439.51 668.377 1438.26 672.16 1437 675.943 1436.37 679.712 1436.37 683.467 1436.37 686.277 1436.76 688.378 1437.53 689.769 1438.3 691.161 1439.59 691.856 1441.4 691.856 1442.23 691.856 1443.09 691.674 1443.95 691.309 1444.82 690.944 1445.71 690.357 1446.65 689.546 1447.58 688.736 1448.5 687.75 1449.4 686.588 1450.31 685.426 1451.14 684.257 1451.89 683.082 1452.65 681.907 1453.35 680.515 1454 678.908 1454.65 677.3 1455.2 675.362 1455.66 673.092L1456.03 671.349C1456.43 669.404 1456.64 667.567 1456.64 665.838 1456.64 663.73 1456.19 662.197 1455.3 661.238 1454.41 660.279 1452.92 659.799 1450.84 659.799ZM1411 659.799C1408.27 659.799 1405.65 661.177 1403.12 663.933 1400.59 666.689 1398.65 670.417 1397.3 675.118 1401.11 675.091 1404.38 674.747 1407.11 674.085 1409.84 673.423 1411.93 672.369 1413.39 670.924 1414.85 669.478 1415.58 667.526 1415.58 665.068 1415.58 663.42 1415.2 662.129 1414.43 661.197 1413.66 660.265 1412.52 659.799 1411 659.799ZM1580.56 656.638C1583.07 656.638 1585.36 656.787 1587.43 657.084 1589.49 657.381 1591.55 657.894 1593.61 658.624L1591.78 667.135 1588.5 667.135C1588.2 664.73 1587.41 662.906 1586.13 661.663 1584.85 660.421 1582.83 659.799 1580.07 659.799 1577.94 659.799 1576.21 660.346 1574.88 661.44 1573.56 662.535 1572.9 663.973 1572.9 665.757 1572.9 666.729 1573.07 667.587 1573.4 668.33 1573.74 669.073 1574.42 669.89 1575.45 670.782 1576.48 671.674 1578.07 672.768 1580.23 674.065 1581.94 675.091 1583.3 676.03 1584.33 676.881 1585.35 677.732 1586.16 678.577 1586.76 679.414 1587.35 680.252 1587.78 681.137 1588.05 682.069 1588.33 683.001 1588.46 684.129 1588.46 685.453 1588.46 687.858 1587.82 689.918 1586.54 691.633 1585.25 693.349 1583.51 694.626 1581.31 695.463 1579.11 696.301 1576.6 696.72 1573.79 696.72 1571.55 696.72 1569.34 696.551 1567.18 696.213 1565.02 695.875 1562.62 695.301 1559.97 694.491L1561.91 685.656 1565.08 685.656C1565.18 688.249 1565.91 690.208 1567.26 691.532 1568.62 692.856 1570.76 693.518 1573.71 693.518 1576.28 693.518 1578.28 692.944 1579.73 691.795 1581.17 690.647 1581.89 689.019 1581.89 686.912 1581.89 685.696 1581.69 684.649 1581.29 683.771 1580.88 682.893 1580.22 682.049 1579.3 681.238 1578.38 680.428 1576.92 679.414 1574.92 678.199 1572.82 676.929 1571.18 675.78 1570 674.754 1568.82 673.727 1567.94 672.613 1567.35 671.41 1566.75 670.208 1566.45 668.823 1566.45 667.256 1566.45 665.122 1567.03 663.251 1568.18 661.643 1569.32 660.036 1570.97 658.799 1573.1 657.935 1575.23 657.07 1577.72 656.638 1580.56 656.638ZM1545.46 656.597C1548.73 656.597 1551.18 657.259 1552.82 658.583 1554.45 659.907 1555.27 661.974 1555.27 664.784 1555.27 669.377 1553.11 672.822 1548.8 675.118 1544.5 677.415 1538.1 678.563 1529.61 678.563 1529.29 680.184 1529.13 681.941 1529.13 683.832 1529.13 686.669 1529.68 688.729 1530.79 690.012 1531.9 691.296 1533.71 691.937 1536.22 691.937 1538.71 691.937 1540.96 691.397 1542.97 690.316 1544.98 689.235 1547.11 687.574 1549.35 685.331L1551.86 687.966C1549.24 690.857 1546.59 693.032 1543.9 694.491 1541.21 695.95 1538.09 696.679 1534.52 696.679 1530.6 696.679 1527.57 695.483 1525.42 693.092 1523.27 690.701 1522.2 687.371 1522.2 683.102 1522.2 680.211 1522.72 677.111 1523.76 673.801 1524.8 670.492 1526.37 667.52 1528.48 664.885 1530.59 662.251 1533.11 660.211 1536.06 658.766 1539 657.32 1542.14 656.597 1545.46 656.597ZM1483.03 656.597C1484.76 656.597 1486.13 657.178 1487.13 658.34 1488.13 659.502 1488.63 661.069 1488.63 663.041 1488.63 665.176 1488.21 667.837 1487.37 671.025L1485.59 678.036C1485.13 679.82 1484.8 681.211 1484.59 682.211 1484.39 683.21 1484.24 684.075 1484.15 684.805 1484.05 685.534 1484.01 686.142 1484.01 686.628 1484.01 688.492 1484.32 689.837 1484.94 690.661 1485.56 691.485 1486.57 691.897 1487.98 691.897 1489.11 691.897 1490.34 691.444 1491.65 690.539 1492.96 689.634 1494.35 688.27 1495.82 686.446 1497.29 684.622 1498.47 682.852 1499.37 681.137 1500.26 679.421 1500.99 677.307 1501.55 674.794L1505.4 657.246 1512.42 657.246 1506.5 682.94C1505.9 685.534 1505.61 687.533 1505.61 688.938 1505.61 690.019 1505.78 690.803 1506.13 691.289 1506.49 691.775 1507.04 692.018 1507.8 692.018 1508.61 692.018 1509.47 691.687 1510.39 691.025 1511.31 690.364 1512.6 689.1 1514.28 687.236L1516.59 689.506C1514.13 692.126 1512.04 693.977 1510.31 695.058 1508.58 696.139 1506.74 696.679 1504.8 696.679 1503.12 696.679 1501.78 696.125 1500.78 695.017 1499.78 693.91 1499.28 692.437 1499.28 690.6 1499.28 689.141 1499.61 687.547 1500.26 685.818L1499.77 685.656C1497.1 689.411 1494.56 692.18 1492.17 693.964 1489.78 695.747 1487.33 696.638 1484.82 696.638 1482.3 696.638 1480.37 695.916 1479.02 694.47 1477.67 693.025 1476.99 691.019 1476.99 688.452 1476.99 686.75 1477.39 684.332 1478.17 681.198L1480.8 670.579C1481.53 667.634 1481.9 665.554 1481.9 664.338 1481.9 663.257 1481.72 662.474 1481.37 661.988 1481.02 661.501 1480.47 661.258 1479.71 661.258 1478.87 661.258 1477.99 661.603 1477.06 662.292 1476.12 662.981 1474.85 664.23 1473.23 666.04L1470.92 663.771C1473.21 661.447 1474.94 659.853 1476.1 658.989 1477.27 658.124 1478.38 657.509 1479.45 657.145 1480.51 656.78 1481.71 656.597 1483.03 656.597ZM1450.11 656.597C1451.79 656.597 1453.38 656.793 1454.89 657.185 1456.41 657.577 1457.97 658.273 1459.59 659.272L1463.32 656.597 1465.92 657.246 1455.54 703.326C1455.08 705.379 1454.85 706.919 1454.85 707.946 1454.85 709.134 1455.16 709.979 1455.76 710.479 1456.37 710.978 1457.57 711.309 1459.35 711.471L1458.99 713.457 1446.34 713.457 1453.31 686.871 1452.74 686.628C1450.42 689.897 1448.05 692.383 1445.63 694.085 1443.21 695.787 1440.86 696.638 1438.56 696.638 1435.59 696.638 1433.29 695.517 1431.65 693.275 1430.02 691.032 1429.2 687.885 1429.2 683.832 1429.2 679.185 1430.11 674.72 1431.93 670.438 1433.76 666.155 1436.26 662.778 1439.45 660.306 1442.64 657.834 1446.19 656.597 1450.11 656.597ZM1412.46 656.597C1415.73 656.597 1418.18 657.259 1419.82 658.583 1421.45 659.907 1422.27 661.974 1422.27 664.784 1422.27 669.377 1420.11 672.822 1415.8 675.118 1411.5 677.415 1405.1 678.563 1396.61 678.563 1396.29 680.184 1396.13 681.941 1396.13 683.832 1396.13 686.669 1396.68 688.729 1397.79 690.012 1398.9 691.296 1400.71 691.937 1403.22 691.937 1405.71 691.937 1407.96 691.397 1409.97 690.316 1411.98 689.235 1414.11 687.574 1416.35 685.331L1418.86 687.966C1416.24 690.857 1413.59 693.032 1410.9 694.491 1408.21 695.95 1405.09 696.679 1401.52 696.679 1397.6 696.679 1394.57 695.483 1392.42 693.092 1390.27 690.701 1389.2 687.371 1389.2 683.102 1389.2 680.211 1389.72 677.111 1390.76 673.801 1391.8 670.492 1393.37 667.52 1395.48 664.885 1397.59 662.251 1400.11 660.211 1403.06 658.766 1406 657.32 1409.14 656.597 1412.46 656.597ZM1612.79 647.276 1618.38 647.276 1616.15 657.286 1628.47 657.286 1627.58 661.38 1615.26 661.38 1611.65 677.104C1610.95 680.157 1610.51 682.353 1610.32 683.69 1610.13 685.027 1610.03 686.101 1610.03 686.912 1610.03 690.262 1611.42 691.937 1614.21 691.937 1615.4 691.937 1616.66 691.485 1618 690.58 1619.33 689.675 1620.92 688.128 1622.76 685.939L1625.11 688.371C1622.76 691.208 1620.5 693.302 1618.32 694.653 1616.15 696.004 1613.87 696.679 1611.49 696.679 1605.85 696.679 1603.02 693.829 1603.02 688.128 1603.02 686.318 1603.25 684.413 1603.71 682.413L1608.49 661.38 1601.68 661.38 1602.29 658.583C1603.89 658.556 1605.1 658.435 1605.92 658.219 1606.74 658.002 1607.43 657.705 1607.99 657.327 1608.54 656.949 1609.05 656.408 1609.51 655.706 1609.97 655.003 1610.41 654.105 1610.84 653.011 1611.28 651.917 1611.92 650.005 1612.79 647.276ZM1361.12 644.277C1359.69 644.277 1358.18 644.331 1356.58 644.439L1351.4 667.905 1356.18 667.905C1360.1 667.905 1363.19 667.378 1365.46 666.324 1367.73 665.27 1369.53 663.541 1370.85 661.137 1372.17 658.732 1372.84 656.138 1372.84 653.355 1372.84 652.193 1372.73 651.16 1372.51 650.255 1372.29 649.35 1372.01 648.6 1371.66 648.006 1371.31 647.411 1370.86 646.884 1370.32 646.425 1369.78 645.966 1369.11 645.567 1368.3 645.23 1367.49 644.892 1366.55 644.649 1365.48 644.5 1364.41 644.351 1362.96 644.277 1361.12 644.277ZM1344.87 640.711 1362.91 640.711C1365.77 640.711 1368.11 640.88 1369.92 641.217 1371.73 641.555 1373.27 642.062 1374.56 642.737 1375.84 643.413 1376.91 644.284 1377.78 645.351 1378.64 646.418 1379.29 647.621 1379.72 648.958 1380.16 650.295 1380.37 651.721 1380.37 653.234 1380.37 657.395 1379.1 660.934 1376.56 663.852 1374.02 666.77 1370.28 668.985 1365.34 670.498L1365.34 670.944C1366.63 671.917 1367.68 673.079 1368.48 674.43 1369.28 675.78 1369.92 677.658 1370.4 680.063L1371.34 684.764C1371.63 686.25 1371.97 687.587 1372.35 688.776 1372.73 689.965 1373.18 690.911 1373.71 691.613 1374.23 692.316 1374.83 692.842 1375.49 693.194 1376.15 693.545 1377.12 693.829 1378.39 694.045L1377.98 696.031 1366.76 696.031C1365.89 693.626 1365.12 690.762 1364.45 687.439L1362.66 678.847C1362.37 677.361 1362.01 676.111 1361.59 675.098 1361.17 674.085 1360.67 673.302 1360.09 672.748 1359.51 672.194 1358.83 671.829 1358.06 671.653 1357.29 671.478 1356.35 671.39 1355.25 671.39L1350.63 671.39 1347.79 684.237C1347.55 685.291 1347.38 686.128 1347.28 686.75 1347.19 687.371 1347.11 688.026 1347.04 688.715 1346.97 689.404 1346.94 690.019 1346.94 690.559 1346.94 691.397 1347.07 692.052 1347.34 692.525 1347.61 692.998 1348.02 693.342 1348.56 693.558 1349.1 693.775 1350.03 693.937 1351.36 694.045L1350.91 696.031 1334.25 696.031 1334.7 694.045C1335.73 693.883 1336.5 693.619 1337.01 693.254 1337.52 692.89 1337.95 692.383 1338.31 691.735 1338.66 691.086 1338.98 690.296 1339.28 689.364 1339.58 688.432 1340.02 686.628 1340.62 683.953L1347.51 652.747C1348.1 650.046 1348.4 647.911 1348.4 646.344 1348.4 645.02 1348.09 644.102 1347.47 643.588 1346.84 643.075 1345.83 642.778 1344.43 642.697Z" fill-rule="evenodd"/><text fill="#000000" fill-opacity="0" font-family="Arial,Arial_MSFontService,sans-serif" font-size="72.7466" x="1334.25" y="704.364">π‘…π‘’π‘π‘Άπ‘’π‘ π‘΅</text><path d="M1677.4 640.711 1683.72 640.711 1683.72 704.136 1677.4 704.136ZM1663.22 640.711 1669.54 640.711 1669.54 704.136 1663.22 704.136Z" fill-rule="evenodd"/><text fill="#000000" fill-opacity="0" font-family="Arial,Arial_MSFontService,sans-serif" font-size="63.4253" x="1663.22" y="696.208">β¥</text><path d="M1746.7 640.711 1759.63 640.711 1770.33 672.282C1771.87 676.821 1773.06 680.657 1773.9 683.791L1774.34 683.791C1774.56 682.143 1775.05 679.401 1775.82 675.564 1776.59 671.728 1777.3 668.377 1777.95 665.513L1780.79 652.747C1781.38 650.073 1781.68 647.898 1781.68 646.222 1781.68 644.953 1781.36 644.068 1780.73 643.568 1780.09 643.068 1779.08 642.778 1777.71 642.697L1778.15 640.711 1792.34 640.711 1791.89 642.697C1790.86 642.913 1790.13 643.156 1789.68 643.426 1789.24 643.696 1788.84 644.102 1788.49 644.642 1788.14 645.182 1787.77 646.027 1787.39 647.175 1787.01 648.323 1786.54 650.194 1785.97 652.788L1776.45 696.031 1770.94 696.031 1759.1 661.258C1757.67 657.097 1756.42 652.95 1755.34 648.816L1754.81 648.816C1754.65 650.194 1754.2 652.822 1753.47 656.699 1752.74 660.576 1751.97 664.365 1751.16 668.067L1747.59 684.237C1747.03 686.804 1746.74 688.911 1746.74 690.559 1746.74 691.775 1747.05 692.633 1747.66 693.133 1748.26 693.633 1749.28 693.937 1750.71 694.045L1750.27 696.031 1736.08 696.031 1736.53 694.045C1737.56 693.883 1738.33 693.619 1738.84 693.254 1739.35 692.89 1739.79 692.383 1740.14 691.735 1740.49 691.086 1740.81 690.296 1741.11 689.364 1741.41 688.432 1741.85 686.628 1742.45 683.953L1749.34 652.747C1749.61 651.586 1749.82 650.478 1749.99 649.424 1750.15 648.37 1750.23 647.303 1750.23 646.222 1750.23 644.953 1749.91 644.068 1749.28 643.568 1748.64 643.068 1747.63 642.778 1746.26 642.697Z" fill-rule="evenodd"/><text fill="#000000" fill-opacity="0" font-family="Arial,Arial_MSFontService,sans-serif" font-size="55.3198" x="1736.08" y="689.116">π‘</text><path d="M1805.36 674.511 1807.18 674.511C1807.14 675.603 1807.11 676.581 1807.09 677.445 1807.07 678.309 1807.06 679.148 1807.05 679.962 1807.04 680.776 1807.03 681.58 1807.03 682.374L1807.03 705.011C1807.03 705.627 1807.05 706.158 1807.09 706.605 1807.13 707.051 1807.19 707.429 1807.28 707.736 1807.37 708.044 1807.49 708.307 1807.64 708.526 1807.79 708.744 1807.96 708.933 1808.16 709.092 1808.4 709.33 1808.72 709.514 1809.12 709.643 1809.51 709.772 1810.02 709.881 1810.63 709.97 1811.25 710.06 1811.99 710.129 1812.85 710.179 1813.72 710.228 1814.75 710.263 1815.97 710.283L1815.97 712.874 1792.35 712.874 1792.35 710.283C1793.52 710.243 1794.51 710.199 1795.33 710.149 1796.14 710.099 1796.83 710.03 1797.41 709.94 1797.99 709.851 1798.45 709.752 1798.8 709.643 1799.14 709.533 1799.45 709.399 1799.7 709.241 1799.98 709.062 1800.22 708.868 1800.42 708.66 1800.62 708.451 1800.78 708.188 1800.89 707.87 1801.01 707.553 1801.11 707.166 1801.18 706.709 1801.25 706.252 1801.28 705.686 1801.28 705.011L1801.28 683.655C1801.28 682.881 1801.13 682.335 1800.84 682.017 1800.54 681.699 1800.11 681.54 1799.55 681.54 1798.94 681.54 1798.03 681.858 1796.81 682.493 1795.6 683.129 1794.03 684.072 1792.11 685.323 1791.85 684.866 1791.61 684.41 1791.39 683.953 1791.18 683.496 1790.95 683.03 1790.71 682.553 1793.17 681.203 1795.61 679.857 1798.02 678.517 1800.43 677.177 1802.88 675.841 1805.36 674.511Z" fill-rule="evenodd"/><text fill="#000000" fill-opacity="0" font-family="Arial,Arial_MSFontService,sans-serif" font-size="38.3633" x="1790.71" y="708.079">1</text><text font-family="Microsoft YaHei,Microsoft YaHei_MSFontService,sans-serif" font-weight="400" font-size="83" transform="matrix(1 0 0 1 743.363 979)">β‘΅</text><path d="M861.708 923.691 898.993 923.691 896.197 936.133 892.306 936.133C892.198 933.782 891.995 932.013 891.698 930.824 891.401 929.635 891.043 928.818 890.624 928.372 890.205 927.926 889.705 927.629 889.125 927.48 888.544 927.332 887.713 927.258 886.632 927.258L873.42 927.258 868.8 948.494 876.541 948.494C878.459 948.494 879.925 948.041 880.938 947.136 881.951 946.231 882.971 944.738 883.998 942.658L887.686 942.658 884.038 958.22 880.594 958.22C880.594 956.059 880.458 954.593 880.188 953.823 879.918 953.053 879.52 952.567 878.993 952.364 878.466 952.162 877.513 952.06 876.135 952.06L868.03 952.06 862.843 975.445 874.839 975.445C876.433 975.445 877.696 975.282 878.628 974.958 879.56 974.634 880.438 974.107 881.262 973.378 882.086 972.648 882.91 971.628 883.734 970.318 884.558 969.007 885.538 967.231 886.673 964.988L890.604 964.988 887.037 979.011 851.09 979.011 851.535 977.025C852.562 976.863 853.332 976.6 853.845 976.235 854.359 975.87 854.791 975.363 855.142 974.715 855.494 974.067 855.818 973.276 856.115 972.344 856.412 971.412 856.858 969.609 857.452 966.934L864.342 935.728C864.936 933.026 865.234 930.851 865.234 929.203 865.234 927.933 864.916 927.048 864.281 926.548 863.646 926.048 862.64 925.758 861.262 925.677Z" fill-rule="evenodd"/><text fill="#000000" fill-opacity="0" font-family="Arial,Arial_MSFontService,sans-serif" font-size="55.3198" x="851.09" y="972.096">πΈ</text><path d="M958.242 957.223 970.811 957.223 970.484 959.01C970.027 959.13 969.64 959.229 969.322 959.308 969.004 959.388 968.721 959.507 968.473 959.666 968.225 959.825 968.011 960.038 967.833 960.306 967.654 960.574 967.48 960.942 967.311 961.408 967.143 961.875 966.964 962.461 966.775 963.165 966.587 963.87 966.373 964.739 966.135 965.772L964.199 974.529 965.033 974.529C965.49 974.529 965.906 974.499 966.284 974.439 966.661 974.38 967.033 974.275 967.401 974.126 967.768 973.977 968.145 973.774 968.533 973.516 968.92 973.258 969.362 972.93 969.858 972.533 971.923 970.924 973.651 969.485 975.041 968.214 976.431 966.943 977.557 965.821 978.421 964.848 979.285 963.875 979.901 963.046 980.268 962.361 980.635 961.676 980.819 961.105 980.819 960.649 980.819 960.172 980.63 959.8 980.253 959.532 979.876 959.264 979.26 959.12 978.406 959.1L978.734 957.223 992.286 957.223 991.869 959.1C991.413 959.14 990.981 959.229 990.574 959.368 990.167 959.507 989.695 959.76 989.159 960.127 988.623 960.495 987.982 961.001 987.238 961.646 986.493 962.292 985.555 963.131 984.423 964.163L972.807 974.648 979.538 988.647C980.054 989.739 980.501 990.603 980.879 991.238 981.256 991.873 981.643 992.38 982.04 992.757 982.437 993.134 982.889 993.407 983.395 993.576 983.902 993.745 984.532 993.899 985.287 994.038L984.81 995.855 972.539 995.855 972.956 994.038C973.512 993.998 973.929 993.874 974.207 993.665 974.485 993.457 974.624 993.194 974.624 992.876 974.604 992.658 974.574 992.429 974.534 992.191 974.495 991.953 974.425 991.69 974.326 991.402 974.227 991.114 974.097 990.776 973.939 990.389 973.78 990.002 973.581 989.54 973.343 989.004L969.352 980.486C969.014 979.731 968.711 979.135 968.443 978.698 968.175 978.262 967.897 977.924 967.609 977.686 967.321 977.447 966.994 977.294 966.626 977.224 966.259 977.155 965.797 977.12 965.241 977.12L963.603 977.12C963.444 977.934 963.256 978.808 963.037 979.741 962.819 980.674 962.6 981.622 962.382 982.585 962.164 983.548 961.955 984.497 961.756 985.43 961.558 986.363 961.379 987.232 961.22 988.036 961.061 988.84 960.932 989.555 960.833 990.181 960.734 990.806 960.684 991.288 960.684 991.625 960.684 992.459 960.927 993.05 961.414 993.397 961.9 993.745 962.729 993.958 963.901 994.038L963.424 995.855 950.885 995.855 951.213 994.038C951.828 993.938 952.329 993.824 952.717 993.695 953.104 993.566 953.451 993.288 953.759 992.861 954.067 992.434 954.35 991.794 954.608 990.94 954.866 990.086 955.164 988.875 955.502 987.306L960.386 965.593C960.585 964.719 960.734 963.945 960.833 963.27 960.932 962.595 960.982 962.019 960.982 961.542 960.982 960.668 960.754 960.048 960.297 959.681 959.84 959.313 959.006 959.12 957.795 959.1ZM905.182 957.223 916.56 957.223 920.462 984.09 937.648 957.223 947.596 957.223 947.239 959.01C946.584 959.189 946.057 959.348 945.66 959.487 945.263 959.626 944.926 959.899 944.648 960.306 944.37 960.713 944.111 961.334 943.873 962.168 943.635 963.002 943.337 964.203 942.98 965.772L938.125 987.545C937.926 988.518 937.777 989.307 937.678 989.913 937.579 990.518 937.529 991.089 937.529 991.625 937.529 992.459 937.767 993.05 938.244 993.397 938.72 993.745 939.544 993.958 940.716 994.038L940.299 995.855 927.64 995.855 928.027 994.038C928.663 993.919 929.154 993.78 929.502 993.621 929.849 993.462 930.122 993.253 930.321 992.995 930.539 992.797 930.773 992.365 931.021 991.7 931.269 991.034 931.532 990.215 931.81 989.242 932.088 988.269 932.366 987.182 932.644 985.981 932.922 984.78 933.21 983.524 933.508 982.213 933.806 980.903 934.094 979.577 934.372 978.237 934.65 976.896 934.928 975.611 935.206 974.38 935.345 973.665 935.523 972.816 935.742 971.833 935.96 970.85 936.194 969.872 936.442 968.899 936.69 967.926 936.928 967.018 937.157 966.174 937.385 965.33 937.589 964.68 937.767 964.223L937.35 964.223 919.866 991.506 916.411 991.506 912.182 963.299 911.675 963.299C911.477 964.57 911.209 966.164 910.871 968.08 910.534 969.996 910.097 972.245 909.561 974.826 909.342 975.74 909.114 976.713 908.876 977.745 908.637 978.778 908.389 979.84 908.131 980.932 907.873 982.024 907.62 983.107 907.371 984.179 907.123 985.251 906.905 986.259 906.716 987.202 906.528 988.145 906.379 989.004 906.269 989.779 906.16 990.553 906.106 991.168 906.106 991.625 906.106 992.459 906.344 993.05 906.82 993.397 907.297 993.745 908.111 993.958 909.263 994.038L908.935 995.855 897.825 995.855 898.213 994.038C898.788 993.938 899.275 993.824 899.672 993.695 900.069 993.566 900.422 993.293 900.729 992.876 901.037 992.459 901.325 991.824 901.593 990.97 901.861 990.116 902.164 988.895 902.502 987.306L907.386 965.593C907.565 964.799 907.699 964.059 907.788 963.374 907.878 962.689 907.922 962.078 907.922 961.542 907.922 960.668 907.694 960.048 907.237 959.681 906.781 959.313 905.947 959.12 904.735 959.1Z" fill-rule="evenodd"/><text fill="#000000" fill-opacity="0" font-family="Arial,Arial_MSFontService,sans-serif" font-size="38.6313" x="897.825" y="991.026">π‘€πΎ</text><path d="M997.93 982.432C999.232 982.432 1000.25 982.855 1000.97 983.701 1001.69 984.547 1002.06 985.679 1002.06 987.095 1002.06 987.681 1002 988.201 1001.89 988.657L1002.2 988.779C1003.75 986.663 1005.31 985.076 1006.89 984.018 1008.47 982.961 1010.11 982.432 1011.82 982.432 1015.4 982.432 1017.19 984.173 1017.19 987.656L1017.19 988.12C1017.19 988.283 1017.18 988.445 1017.14 988.608L1017.39 988.608C1018.93 986.492 1020.48 984.934 1022.03 983.933 1023.57 982.932 1025.2 982.432 1026.91 982.432 1028.78 982.432 1030.17 982.912 1031.06 983.872 1031.96 984.832 1032.4 986.199 1032.4 987.974 1032.4 988.901 1032.18 990.366 1031.72 992.368L1030.03 999.302C1029.66 1000.83 1029.44 1001.79 1029.38 1002.17 1029.31 1002.55 1029.28 1002.93 1029.28 1003.31 1029.28 1004.46 1029.82 1005.04 1030.89 1005.04 1031.56 1005.04 1032.23 1004.78 1032.9 1004.26 1033.58 1003.74 1034.4 1002.96 1035.38 1001.94L1037.21 1003.72C1035.5 1005.43 1034.01 1006.67 1032.74 1007.46 1031.48 1008.24 1030.15 1008.63 1028.77 1008.63 1027.43 1008.63 1026.34 1008.17 1025.49 1007.25 1024.65 1006.33 1024.22 1005.18 1024.22 1003.79 1024.22 1002.3 1024.53 1000.47 1025.15 998.301L1026.35 993.784C1026.92 991.668 1027.2 989.984 1027.2 988.73 1027.2 986.891 1026.43 985.972 1024.88 985.972 1023.89 985.972 1022.95 986.265 1022.08 986.85 1021.2 987.436 1020.3 988.25 1019.38 989.292 1018.46 990.334 1017.73 991.375 1017.19 992.417 1016.66 993.459 1016.25 994.59 1015.97 995.81L1013.31 1008.12 1008.06 1008.12 1011.41 993.808C1011.94 991.546 1012.21 989.853 1012.21 988.73 1012.21 986.891 1011.4 985.972 1009.77 985.972 1008.76 985.972 1007.79 986.285 1006.85 986.911 1005.92 987.538 1004.99 988.376 1004.08 989.426 1003.17 990.476 1002.46 991.505 1001.93 992.515 1001.41 993.524 1001.04 994.622 1000.81 995.81L998.248 1008.12 992.95 1008.12 996.758 991.855C997.182 990.032 997.393 988.673 997.393 987.778 997.393 986.623 996.864 986.045 995.806 986.045 995.139 986.045 994.464 986.305 993.78 986.826 993.096 987.347 992.274 988.112 991.314 989.121L989.459 987.363C991.168 985.654 992.657 984.405 993.926 983.616 995.196 982.826 996.531 982.432 997.93 982.432Z" fill-rule="evenodd"/><text fill="#000000" fill-opacity="0" font-family="Arial,Arial_MSFontService,sans-serif" font-size="26.1963" x="989.459" y="1005.35">π‘</text><path d="M2279.65 916.689 2297.73 916.689 2297.73 993.975 2279.65 993.975 2279.65 990.854 2291 990.854 2291 919.81 2279.65 919.81ZM1053.06 916.689 1071.14 916.689 1071.14 919.81 1059.79 919.81 1059.79 990.854 1071.14 990.854 1071.14 993.975 1053.06 993.975Z" fill-rule="evenodd"/><path d="M1085.63 923.691 1101.84 923.691 1101.39 925.677C1100.36 925.893 1099.63 926.136 1099.18 926.406 1098.74 926.677 1098.34 927.082 1097.99 927.622 1097.64 928.163 1097.27 929.007 1096.89 930.155 1096.51 931.303 1096.04 933.174 1095.47 935.768L1092.6 948.696 1093.93 948.696C1095.07 948.696 1096.1 948.507 1097.03 948.129 1097.97 947.751 1099.05 947.062 1100.3 946.062 1101.54 945.062 1103.52 943.225 1106.23 940.55 1108.95 937.876 1110.88 935.843 1112.03 934.451 1113.18 933.06 1114.02 931.857 1114.54 930.844 1115.07 929.831 1115.33 928.906 1115.33 928.068 1115.33 927.393 1115.06 926.845 1114.52 926.427 1113.98 926.008 1113.21 925.758 1112.21 925.677L1112.66 923.691 1130.04 923.691 1129.6 925.677C1128.52 925.839 1127.3 926.4 1125.93 927.359 1124.57 928.318 1122.48 930.189 1119.67 932.972L1103.94 948.291 1112.58 969.041C1113.47 971.176 1114.2 972.716 1114.79 973.661 1115.37 974.607 1116.06 975.357 1116.87 975.911 1117.68 976.464 1118.68 976.836 1119.87 977.025L1119.43 979.011 1103.78 979.011 1104.23 977.025C1105.69 976.89 1106.42 976.242 1106.42 975.08 1106.42 974.35 1106.27 973.519 1105.97 972.587 1105.67 971.655 1105.32 970.689 1104.92 969.69L1099.65 956.802C1099.03 955.262 1098.49 954.181 1098.03 953.56 1097.57 952.938 1097.08 952.506 1096.57 952.263 1096.06 952.02 1095.26 951.898 1094.18 951.898L1091.91 951.898 1088.54 967.217C1088.19 968.839 1087.96 970.115 1087.86 971.047 1087.75 971.979 1087.69 972.81 1087.69 973.54 1087.69 974.756 1088 975.613 1088.61 976.113 1089.21 976.613 1090.23 976.917 1091.67 977.025L1091.22 979.011 1075.01 979.011 1075.45 977.025C1076.48 976.863 1077.25 976.6 1077.76 976.235 1078.28 975.87 1078.71 975.363 1079.06 974.715 1079.41 974.067 1079.74 973.276 1080.03 972.344 1080.33 971.412 1080.78 969.609 1081.37 966.934L1088.26 935.728C1088.86 933.026 1089.15 930.851 1089.15 929.203 1089.15 927.933 1088.83 927.048 1088.2 926.548 1087.57 926.048 1086.56 925.758 1085.18 925.677Z" fill-rule="evenodd"/><text fill="#000000" fill-opacity="0" font-family="Arial,Arial_MSFontService,sans-serif" font-size="55.3198" x="1075.01" y="972.096">πΎ</text><path d="M1143.7 956.657C1145.58 956.657 1147.39 956.801 1149.13 957.089 1150.87 957.377 1152.69 957.839 1154.6 958.474L1152.9 966.04 1149.65 966.04C1149.59 964.928 1149.42 963.97 1149.13 963.165 1148.84 962.361 1148.44 961.706 1147.93 961.2 1147.41 960.693 1146.75 960.316 1145.96 960.068 1145.17 959.82 1144.22 959.695 1143.13 959.695 1141.96 959.695 1140.9 959.854 1139.94 960.172 1138.99 960.49 1138.18 960.942 1137.5 961.527 1136.83 962.113 1136.3 962.818 1135.94 963.642 1135.57 964.466 1135.39 965.365 1135.39 966.338 1135.39 967.072 1135.48 967.747 1135.65 968.363 1135.83 968.979 1136.14 969.574 1136.58 970.15 1137.01 970.726 1137.61 971.312 1138.38 971.907 1139.14 972.503 1140.11 973.158 1141.28 973.873 1142.71 974.767 1143.94 975.611 1144.96 976.405 1145.98 977.199 1146.82 978.023 1147.46 978.877 1148.11 979.731 1148.58 980.639 1148.88 981.602 1149.18 982.566 1149.33 983.643 1149.33 984.834 1149.33 986.562 1148.98 988.14 1148.3 989.57 1147.61 991 1146.64 992.231 1145.38 993.263 1144.12 994.296 1142.61 995.095 1140.85 995.661 1139.09 996.227 1137.13 996.51 1134.97 996.51 1133.14 996.51 1131.18 996.356 1129.07 996.048 1126.97 995.74 1124.89 995.289 1122.85 994.693L1124.6 986.651 1127.76 986.651C1127.82 989.034 1128.46 990.761 1129.67 991.834 1130.88 992.906 1132.75 993.442 1135.27 993.442 1136.56 993.442 1137.72 993.273 1138.75 992.936 1139.78 992.598 1140.66 992.112 1141.37 991.476 1142.09 990.841 1142.63 990.066 1143.01 989.153 1143.39 988.24 1143.58 987.217 1143.58 986.085 1143.58 985.291 1143.48 984.571 1143.28 983.926 1143.08 983.28 1142.73 982.64 1142.24 982.005 1141.74 981.369 1141.07 980.724 1140.23 980.069 1139.38 979.413 1138.33 978.698 1137.08 977.924 1135.83 977.15 1134.75 976.38 1133.82 975.616 1132.9 974.851 1132.13 974.057 1131.51 973.233 1130.9 972.409 1130.44 971.55 1130.13 970.656 1129.82 969.763 1129.67 968.81 1129.67 967.797 1129.67 966.129 1129.99 964.615 1130.65 963.255 1131.31 961.895 1132.24 960.723 1133.46 959.74 1134.69 958.757 1136.17 957.998 1137.9 957.462 1139.64 956.925 1141.57 956.657 1143.7 956.657Z" fill-rule="evenodd"/><text fill="#000000" fill-opacity="0" font-family="Arial,Arial_MSFontService,sans-serif" font-size="39.8525" x="1122.85" y="991.528">π‘†</text><path d="M1223.87 923.691 1230.19 923.691 1230.19 987.116 1223.87 987.116ZM1209.68 923.691 1216.01 923.691 1216.01 987.116 1209.68 987.116Z" fill-rule="evenodd"/><text fill="#000000" fill-opacity="0" font-family="Arial,Arial_MSFontService,sans-serif" font-size="63.4253" x="1209.68" y="979.188">β¥</text><path d="M1474.05 942.779C1471.32 942.779 1468.69 944.157 1466.17 946.913 1463.64 949.669 1461.7 953.398 1460.35 958.099 1464.16 958.072 1467.43 957.727 1470.16 957.065 1472.89 956.403 1474.98 955.35 1476.44 953.904 1477.9 952.459 1478.63 950.507 1478.63 948.048 1478.63 946.4 1478.24 945.11 1477.47 944.178 1476.7 943.246 1475.56 942.779 1474.05 942.779ZM1380.89 942.779C1378.13 942.779 1375.66 943.894 1373.47 946.123 1371.28 948.352 1369.56 951.358 1368.3 955.14 1367.05 958.923 1366.42 962.692 1366.42 966.447 1366.42 969.257 1366.8 971.358 1367.57 972.749 1368.34 974.141 1369.63 974.837 1371.44 974.837 1372.28 974.837 1373.13 974.654 1374 974.289 1374.86 973.925 1375.76 973.337 1376.69 972.527 1377.62 971.716 1378.54 970.73 1379.45 969.568 1380.35 968.406 1381.18 967.238 1381.94 966.062 1382.7 964.887 1383.4 963.496 1384.05 961.888 1384.7 960.281 1385.25 958.342 1385.71 956.072L1386.07 954.33C1386.48 952.384 1386.68 950.547 1386.68 948.818 1386.68 946.711 1386.24 945.177 1385.34 944.218 1384.45 943.259 1382.97 942.779 1380.89 942.779ZM1341.05 942.779C1338.32 942.779 1335.69 944.157 1333.17 946.913 1330.64 949.669 1328.7 953.398 1327.35 958.099 1331.16 958.072 1334.43 957.727 1337.16 957.065 1339.89 956.403 1341.98 955.35 1343.44 953.904 1344.9 952.459 1345.63 950.507 1345.63 948.048 1345.63 946.4 1345.24 945.11 1344.47 944.178 1343.7 943.246 1342.56 942.779 1341.05 942.779ZM1510.6 939.618C1513.12 939.618 1515.41 939.767 1517.47 940.064 1519.54 940.361 1521.6 940.875 1523.65 941.604L1521.83 950.115 1518.55 950.115C1518.25 947.71 1517.46 945.887 1516.18 944.644 1514.89 943.401 1512.87 942.779 1510.12 942.779 1507.98 942.779 1506.25 943.327 1504.93 944.421 1503.61 945.515 1502.94 946.954 1502.94 948.737 1502.94 949.71 1503.11 950.568 1503.45 951.31 1503.79 952.053 1504.47 952.871 1505.5 953.762 1506.52 954.654 1508.12 955.748 1510.28 957.045 1511.98 958.072 1513.35 959.011 1514.37 959.862 1515.4 960.713 1516.21 961.557 1516.8 962.395 1517.4 963.232 1517.83 964.117 1518.1 965.049 1518.37 965.981 1518.51 967.109 1518.51 968.433 1518.51 970.838 1517.87 972.898 1516.58 974.614 1515.3 976.329 1513.56 977.606 1511.35 978.444 1509.15 979.281 1506.65 979.7 1503.84 979.7 1501.59 979.7 1499.39 979.531 1497.23 979.193 1495.07 978.856 1492.66 978.281 1490.02 977.471L1491.96 968.636 1495.12 968.636C1495.23 971.23 1495.96 973.188 1497.31 974.512 1498.66 975.836 1500.81 976.498 1503.76 976.498 1506.32 976.498 1508.33 975.924 1509.77 974.776 1511.22 973.628 1511.94 972 1511.94 969.892 1511.94 968.676 1511.74 967.63 1511.33 966.751 1510.93 965.873 1510.27 965.029 1509.35 964.218 1508.43 963.408 1506.97 962.395 1504.97 961.179 1502.86 959.909 1501.22 958.761 1500.05 957.734 1498.87 956.707 1497.99 955.593 1497.39 954.391 1496.8 953.188 1496.5 951.804 1496.5 950.237 1496.5 948.102 1497.07 946.231 1498.22 944.623 1499.37 943.016 1501.01 941.78 1503.15 940.915 1505.28 940.051 1507.77 939.618 1510.6 939.618ZM1475.51 939.578C1478.78 939.578 1481.23 940.24 1482.86 941.564 1484.5 942.888 1485.32 944.954 1485.32 947.764 1485.32 952.357 1483.16 955.802 1478.85 958.099 1474.54 960.395 1468.15 961.544 1459.66 961.544 1459.34 963.165 1459.18 964.921 1459.18 966.812 1459.18 969.649 1459.73 971.709 1460.84 972.993 1461.94 974.276 1463.76 974.918 1466.27 974.918 1468.75 974.918 1471 974.377 1473.02 973.297 1475.03 972.216 1477.16 970.554 1479.4 968.312L1481.91 970.946C1479.29 973.837 1476.64 976.012 1473.95 977.471 1471.26 978.93 1468.13 979.659 1464.57 979.659 1460.65 979.659 1457.62 978.464 1455.47 976.073 1453.32 973.682 1452.25 970.352 1452.25 966.083 1452.25 963.192 1452.77 960.091 1453.81 956.782 1454.85 953.472 1456.42 950.5 1458.53 947.866 1460.63 945.231 1463.16 943.192 1466.11 941.746 1469.05 940.301 1472.18 939.578 1475.51 939.578ZM1413.08 939.578C1414.81 939.578 1416.17 940.159 1417.17 941.32 1418.17 942.482 1418.67 944.049 1418.67 946.022 1418.67 948.156 1418.25 950.817 1417.42 954.006L1415.63 961.017C1415.17 962.8 1414.84 964.191 1414.64 965.191 1414.44 966.191 1414.29 967.055 1414.19 967.785 1414.1 968.514 1414.05 969.122 1414.05 969.609 1414.05 971.473 1414.36 972.817 1414.98 973.641 1415.61 974.465 1416.62 974.877 1418.02 974.877 1419.16 974.877 1420.38 974.425 1421.69 973.519 1423 972.614 1424.39 971.25 1425.87 969.426 1427.34 967.602 1428.52 965.833 1429.41 964.117 1430.3 962.401 1431.03 960.287 1431.6 957.775L1435.45 940.226 1442.46 940.226 1436.55 965.921C1435.95 968.514 1435.65 970.514 1435.65 971.919 1435.65 972.999 1435.83 973.783 1436.18 974.269 1436.53 974.756 1437.09 974.999 1437.84 974.999 1438.65 974.999 1439.52 974.668 1440.44 974.006 1441.35 973.344 1442.65 972.081 1444.33 970.216L1446.64 972.486C1444.18 975.107 1442.08 976.958 1440.36 978.038 1438.63 979.119 1436.79 979.659 1434.84 979.659 1433.17 979.659 1431.83 979.105 1430.83 977.998 1429.83 976.89 1429.33 975.417 1429.33 973.58 1429.33 972.121 1429.66 970.527 1430.3 968.798L1429.82 968.636C1427.14 972.391 1424.61 975.161 1422.22 976.944 1419.83 978.727 1417.38 979.619 1414.86 979.619 1412.35 979.619 1410.42 978.896 1409.07 977.451 1407.72 976.005 1407.04 973.999 1407.04 971.432 1407.04 969.73 1407.43 967.312 1408.22 964.178L1410.85 953.56C1411.58 950.615 1411.95 948.534 1411.95 947.319 1411.95 946.238 1411.77 945.454 1411.42 944.968 1411.07 944.482 1410.51 944.238 1409.76 944.238 1408.92 944.238 1408.03 944.583 1407.1 945.272 1406.17 945.961 1404.89 947.21 1403.27 949.021L1400.96 946.751C1403.26 944.428 1404.99 942.833 1406.15 941.969 1407.31 941.104 1408.43 940.49 1409.49 940.125 1410.56 939.76 1411.76 939.578 1413.08 939.578ZM1380.16 939.578C1381.83 939.578 1383.43 939.774 1384.94 940.165 1386.45 940.557 1388.02 941.253 1389.64 942.253L1393.37 939.578 1395.96 940.226 1385.59 986.306C1385.13 988.359 1384.9 989.899 1384.9 990.926 1384.9 992.115 1385.2 992.959 1385.81 993.459 1386.42 993.959 1387.61 994.29 1389.4 994.452L1389.03 996.438 1376.39 996.438 1383.36 969.852 1382.79 969.609C1380.47 972.878 1378.1 975.363 1375.68 977.066 1373.26 978.768 1370.9 979.619 1368.61 979.619 1365.64 979.619 1363.33 978.498 1361.7 976.255 1360.06 974.013 1359.25 970.865 1359.25 966.812 1359.25 962.165 1360.16 957.7 1361.98 953.418 1363.8 949.135 1366.31 945.758 1369.5 943.286 1372.69 940.814 1376.24 939.578 1380.16 939.578ZM1342.51 939.578C1345.78 939.578 1348.23 940.24 1349.86 941.564 1351.5 942.888 1352.32 944.954 1352.32 947.764 1352.32 952.357 1350.16 955.802 1345.85 958.099 1341.54 960.395 1335.15 961.544 1326.66 961.544 1326.34 963.165 1326.18 964.921 1326.18 966.812 1326.18 969.649 1326.73 971.709 1327.84 972.993 1328.94 974.276 1330.76 974.918 1333.27 974.918 1335.75 974.918 1338 974.377 1340.02 973.297 1342.03 972.216 1344.16 970.554 1346.4 968.312L1348.91 970.946C1346.29 973.837 1343.64 976.012 1340.95 977.471 1338.26 978.93 1335.13 979.659 1331.57 979.659 1327.65 979.659 1324.62 978.464 1322.47 976.073 1320.32 973.682 1319.25 970.352 1319.25 966.083 1319.25 963.192 1319.77 960.091 1320.81 956.782 1321.85 953.472 1323.42 950.5 1325.53 947.866 1327.63 945.231 1330.16 943.192 1333.11 941.746 1336.05 940.301 1339.18 939.578 1342.51 939.578ZM1542.84 930.257 1548.43 930.257 1546.2 940.267 1558.52 940.267 1557.63 944.36 1545.31 944.36 1541.7 960.085C1541 963.138 1540.55 965.333 1540.36 966.67 1540.17 968.008 1540.08 969.082 1540.08 969.892 1540.08 973.243 1541.47 974.918 1544.25 974.918 1545.44 974.918 1546.71 974.465 1548.04 973.56 1549.38 972.655 1550.97 971.108 1552.81 968.92L1555.16 971.351C1552.81 974.188 1550.54 976.282 1548.37 977.633 1546.19 978.984 1543.92 979.659 1541.54 979.659 1535.89 979.659 1533.07 976.809 1533.07 971.108 1533.07 969.298 1533.3 967.393 1533.76 965.394L1538.54 944.36 1531.73 944.36 1532.34 941.564C1533.93 941.537 1535.14 941.415 1535.97 941.199 1536.79 940.983 1537.48 940.686 1538.03 940.307 1538.59 939.929 1539.09 939.389 1539.55 938.686 1540.01 937.984 1540.46 937.085 1540.89 935.991 1541.32 934.897 1541.97 932.985 1542.84 930.257ZM1291.17 927.258C1289.74 927.258 1288.22 927.312 1286.63 927.42L1281.44 950.885 1286.23 950.885C1290.14 950.885 1293.24 950.358 1295.51 949.304 1297.78 948.251 1299.57 946.521 1300.9 944.117 1302.22 941.712 1302.88 939.119 1302.88 936.336 1302.88 935.174 1302.77 934.14 1302.56 933.235 1302.34 932.33 1302.06 931.58 1301.71 930.986 1301.36 930.392 1300.91 929.865 1300.37 929.405 1299.83 928.946 1299.15 928.548 1298.34 928.21 1297.53 927.872 1296.59 927.629 1295.53 927.48 1294.46 927.332 1293.01 927.258 1291.17 927.258ZM1274.92 923.691 1292.95 923.691C1295.82 923.691 1298.15 923.86 1299.96 924.198 1301.77 924.535 1303.32 925.042 1304.6 925.717 1305.89 926.393 1306.96 927.264 1307.83 928.331 1308.69 929.399 1309.34 930.601 1309.77 931.938 1310.2 933.276 1310.42 934.701 1310.42 936.214 1310.42 940.375 1309.15 943.914 1306.61 946.832 1304.07 949.75 1300.33 951.966 1295.38 953.479L1295.38 953.924C1296.68 954.897 1297.73 956.059 1298.53 957.41 1299.32 958.761 1299.96 960.639 1300.45 963.043L1301.38 967.744C1301.68 969.23 1302.02 970.568 1302.4 971.757 1302.77 972.945 1303.23 973.891 1303.75 974.593 1304.28 975.296 1304.87 975.823 1305.54 976.174 1306.2 976.525 1307.16 976.809 1308.43 977.025L1308.03 979.011 1296.8 979.011C1295.94 976.606 1295.17 973.742 1294.49 970.419L1292.71 961.827C1292.41 960.341 1292.05 959.092 1291.64 958.079 1291.22 957.065 1290.72 956.282 1290.14 955.728 1289.56 955.174 1288.88 954.809 1288.11 954.634 1287.34 954.458 1286.4 954.37 1285.29 954.37L1280.67 954.37 1277.84 967.217C1277.59 968.271 1277.42 969.109 1277.33 969.73 1277.23 970.352 1277.15 971.007 1277.09 971.696 1277.02 972.385 1276.98 972.999 1276.98 973.54 1276.98 974.377 1277.12 975.032 1277.39 975.505 1277.66 975.978 1278.07 976.323 1278.61 976.539 1279.15 976.755 1280.08 976.917 1281.4 977.025L1280.96 979.011 1264.3 979.011 1264.75 977.025C1265.77 976.863 1266.54 976.6 1267.06 976.235 1267.57 975.87 1268 975.363 1268.35 974.715 1268.7 974.067 1269.03 973.276 1269.33 972.344 1269.62 971.412 1270.07 969.609 1270.66 966.934L1277.55 935.728C1278.15 933.026 1278.44 930.891 1278.44 929.324 1278.44 928 1278.13 927.082 1277.51 926.569 1276.89 926.055 1275.88 925.758 1274.47 925.677Z" fill-rule="evenodd"/><text fill="#000000" fill-opacity="0" font-family="Arial,Arial_MSFontService,sans-serif" font-size="72.7466" x="1264.3" y="987.344">π‘…π‘’π‘π‘Άπ‘’π‘ π‘΅</text><path d="M1607.45 923.691 1613.77 923.691 1613.77 987.116 1607.45 987.116ZM1593.26 923.691 1599.59 923.691 1599.59 987.116 1593.26 987.116Z" fill-rule="evenodd"/><text fill="#000000" fill-opacity="0" font-family="Arial,Arial_MSFontService,sans-serif" font-size="63.4253" x="1593.26" y="979.188">β¥</text><path d="M1724.31 927.217C1723.12 927.217 1721.84 927.258 1720.46 927.339L1709.97 975.282C1710.75 975.363 1712.25 975.404 1714.46 975.404 1718.84 975.404 1722.56 974.641 1725.61 973.114 1728.66 971.588 1731.3 969.197 1733.51 965.941 1735.73 962.685 1737.36 959.254 1738.42 955.647 1739.47 952.04 1740 948.237 1740 944.238 1740 938.592 1738.68 934.343 1736.04 931.493 1733.41 928.642 1729.5 927.217 1724.31 927.217ZM1708.83 923.691 1724.19 923.691C1728.27 923.691 1731.58 924.002 1734.12 924.623 1736.66 925.245 1739.03 926.366 1741.23 927.987 1743.43 929.608 1745.09 931.763 1746.2 934.451 1747.3 937.139 1747.86 940.321 1747.86 943.995 1747.86 947.643 1747.44 951.128 1746.6 954.451 1745.76 957.775 1744.56 960.834 1743 963.631 1741.43 966.427 1739.55 968.859 1737.36 970.926 1735.17 972.993 1733.05 974.58 1731 975.688 1728.95 976.795 1726.65 977.626 1724.11 978.18 1721.57 978.734 1718.61 979.011 1715.23 979.011L1698.21 979.011 1698.66 977.025C1699.68 976.863 1700.45 976.6 1700.97 976.235 1701.48 975.87 1701.91 975.363 1702.27 974.715 1702.62 974.067 1702.94 973.276 1703.24 972.344 1703.54 971.412 1703.98 969.609 1704.58 966.934L1711.46 935.728C1712.06 933.026 1712.36 930.851 1712.36 929.203 1712.36 927.933 1712.04 927.048 1711.4 926.548 1710.77 926.048 1709.76 925.758 1708.38 925.677ZM1676.83 923.691 1693.04 923.691 1692.6 925.677C1691.57 925.893 1690.83 926.136 1690.39 926.406 1689.94 926.677 1689.54 927.082 1689.19 927.622 1688.84 928.163 1688.48 929.007 1688.1 930.155 1687.72 931.303 1687.25 933.174 1686.68 935.768L1679.75 967.217C1679.4 968.812 1679.17 970.075 1679.06 971.007 1678.95 971.939 1678.9 972.783 1678.9 973.54 1678.9 974.756 1679.2 975.613 1679.81 976.113 1680.42 976.613 1681.44 976.917 1682.87 977.025L1682.42 979.011 1666.21 979.011 1666.66 977.025C1667.68 976.863 1668.45 976.6 1668.97 976.235 1669.48 975.87 1669.91 975.363 1670.27 974.715 1670.62 974.067 1670.94 973.276 1671.24 972.344 1671.54 971.412 1671.98 969.609 1672.58 966.934L1679.46 935.728C1680.06 933.026 1680.36 930.851 1680.36 929.203 1680.36 927.933 1680.04 927.048 1679.4 926.548 1678.77 926.048 1677.76 925.758 1676.38 925.677Z" fill-rule="evenodd"/><text fill="#000000" fill-opacity="0" font-family="Arial,Arial_MSFontService,sans-serif" font-size="55.3198" x="1666.21" y="972.096">πΌπ·</text><path d="M1762.49 977.418 1759.1 992.697C1759.57 992.717 1760.18 992.737 1760.9 992.757 1761.62 992.777 1762.48 992.787 1763.48 992.787 1765.62 992.787 1767.47 992.603 1769.03 992.236 1770.59 991.868 1771.88 991.293 1772.9 990.508 1773.93 989.724 1774.68 988.706 1775.17 987.455 1775.65 986.204 1775.9 984.705 1775.9 982.958 1775.9 982.044 1775.76 981.24 1775.48 980.545 1775.2 979.85 1774.74 979.269 1774.09 978.803 1773.45 978.336 1772.63 977.989 1771.62 977.76 1770.62 977.532 1769.39 977.418 1767.94 977.418ZM1771.49 960.321C1770.54 960.321 1769.63 960.336 1768.76 960.366 1767.9 960.395 1767.07 960.45 1766.28 960.529L1763.21 974.32 1767.83 974.32C1769.99 974.32 1771.82 974.116 1773.32 973.709 1774.82 973.302 1776.04 972.722 1776.97 971.967 1777.9 971.212 1778.58 970.304 1779.01 969.242 1779.44 968.179 1779.65 966.983 1779.65 965.653 1779.61 964.799 1779.44 964.034 1779.14 963.359 1778.85 962.684 1778.37 962.123 1777.73 961.676 1777.08 961.229 1776.25 960.892 1775.23 960.664 1774.2 960.435 1772.96 960.321 1771.49 960.321ZM1757.19 957.223 1772.8 957.223C1775.12 957.223 1777.09 957.412 1778.71 957.789 1780.33 958.167 1781.66 958.713 1782.7 959.427 1783.75 960.142 1784.5 961.001 1784.97 962.004 1785.43 963.007 1785.67 964.153 1785.67 965.444 1785.67 970.329 1782.6 973.774 1776.46 975.779 1776.46 975.879 1776.46 975.958 1776.45 976.018 1776.44 976.077 1776.43 976.127 1776.43 976.167 1778.28 976.901 1779.68 977.914 1780.63 979.205 1781.59 980.495 1782.06 981.985 1782.06 983.673 1782.06 985.579 1781.71 987.281 1781.01 988.781 1780.3 990.28 1779.21 991.551 1777.74 992.593 1776.27 993.636 1774.39 994.44 1772.08 995.006 1769.78 995.572 1767.02 995.855 1763.8 995.855L1749.83 995.855 1750.16 994.038C1750.78 993.938 1751.28 993.824 1751.67 993.695 1752.05 993.566 1752.4 993.288 1752.71 992.861 1753.02 992.434 1753.3 991.794 1753.56 990.94 1753.82 990.086 1754.11 988.875 1754.45 987.306L1759.34 965.593C1759.53 964.719 1759.68 963.945 1759.78 963.27 1759.88 962.595 1759.93 962.039 1759.93 961.602 1759.93 960.708 1759.71 960.073 1759.26 959.695 1758.82 959.318 1757.98 959.12 1756.74 959.1Z" fill-rule="evenodd"/><text fill="#000000" fill-opacity="0" font-family="Arial,Arial_MSFontService,sans-serif" font-size="38.6313" x="1749.83" y="991.026">πµ</text><path d="M1858 923.691 1864.32 923.691 1864.32 987.116 1858 987.116ZM1843.81 923.691 1850.13 923.691 1850.13 987.116 1843.81 987.116Z" fill-rule="evenodd"/><text fill="#000000" fill-opacity="0" font-family="Arial,Arial_MSFontService,sans-serif" font-size="63.4253" x="1843.81" y="979.188">β¥</text><path d="M1934.29 920.814C1936.94 920.814 1939.22 921.03 1941.14 921.462L1939.56 928.352 1936 928.352C1935.62 926.812 1935.12 925.704 1934.52 925.029 1933.91 924.353 1933.01 924.015 1931.82 924.015 1930.28 924.015 1928.98 924.441 1927.91 925.292 1926.84 926.143 1925.93 927.406 1925.18 929.081 1924.42 930.756 1923.72 933.012 1923.07 935.849L1922.05 940.267 1932.47 940.267 1931.58 944.36 1921.12 944.36 1913.58 979.7C1912.34 985.563 1910.44 989.933 1907.87 992.81 1905.3 995.688 1902.07 997.127 1898.18 997.127 1897.05 997.127 1896.16 997.059 1895.51 996.924L1896.2 993.358C1896.47 993.439 1897.1 993.479 1898.1 993.479 1899.32 993.479 1900.36 993.168 1901.22 992.547 1902.09 991.926 1902.89 990.845 1903.63 989.305 1904.38 987.765 1905.06 985.63 1905.68 982.902L1914.39 944.36 1907.55 944.36 1908.15 941.564C1909.96 941.456 1911.27 941.307 1912.06 941.118 1912.86 940.929 1913.48 940.645 1913.93 940.267 1914.37 939.889 1914.75 939.395 1915.06 938.788 1915.37 938.18 1915.77 937.065 1916.26 935.444 1917.69 930.581 1919.9 926.927 1922.89 924.481 1925.87 922.036 1929.67 920.814 1934.29 920.814Z" fill-rule="evenodd"/><text fill="#000000" fill-opacity="0" font-family="Arial,Arial_MSFontService,sans-serif" font-size="76.313" x="1895.51" y="987.588">π‘“</text><path d="M2070.42 916.897C2078.31 918.977 2084.37 923.469 2088.6 930.372 2092.82 937.275 2094.94 945.604 2094.94 955.357 2094.94 965.138 2092.83 973.466 2088.62 980.342 2084.4 987.219 2078.34 991.697 2070.42 993.777L2069.45 990.657C2075.69 988.576 2080.33 984.469 2083.37 978.336 2086.41 972.203 2087.93 964.408 2087.93 954.952 2087.93 945.82 2086.41 938.234 2083.39 932.196 2080.36 926.157 2075.67 922.098 2069.33 920.017ZM1975.6 916.897 1976.69 920.017C1970.37 922.098 1965.69 926.157 1962.65 932.196 1959.61 938.234 1958.09 945.82 1958.09 954.952 1958.09 964.408 1959.61 972.203 1962.65 978.336 1965.69 984.469 1970.33 988.576 1976.57 990.657L1975.6 993.777C1967.68 991.697 1961.62 987.219 1957.4 980.342 1953.19 973.466 1951.08 965.138 1951.08 955.357 1951.08 945.604 1953.19 937.275 1957.42 930.372 1961.65 923.469 1967.71 918.977 1975.6 916.897Z" fill-rule="evenodd"/><path d="M1990.87 923.691 2003.8 923.691 2014.5 955.262C2016.04 959.801 2017.22 963.638 2018.06 966.772L2018.51 966.772C2018.72 965.124 2019.22 962.381 2019.99 958.545 2020.76 954.708 2021.47 951.358 2022.11 948.494L2024.95 935.728C2025.55 933.053 2025.84 930.878 2025.84 929.203 2025.84 927.933 2025.53 927.048 2024.89 926.548 2024.26 926.048 2023.25 925.758 2021.87 925.677L2022.32 923.691 2036.5 923.691 2036.06 925.677C2035.03 925.893 2034.29 926.136 2033.85 926.406 2033.4 926.677 2033 927.082 2032.65 927.622 2032.3 928.163 2031.94 929.007 2031.56 930.155 2031.18 931.303 2030.71 933.174 2030.14 935.768L2020.62 979.011 2015.1 979.011 2003.27 944.238C2001.84 940.078 2000.58 935.93 1999.5 931.797L1998.97 931.797C1998.81 933.174 1998.37 935.802 1997.64 939.679 1996.91 943.556 1996.14 947.346 1995.33 951.047L1991.76 967.217C1991.19 969.784 1990.91 971.892 1990.91 973.54 1990.91 974.756 1991.21 975.613 1991.82 976.113 1992.43 976.613 1993.45 976.917 1994.88 977.025L1994.43 979.011 1980.25 979.011 1980.7 977.025C1981.72 976.863 1982.49 976.6 1983.01 976.235 1983.52 975.87 1983.95 975.363 1984.3 974.715 1984.65 974.067 1984.98 973.276 1985.28 972.344 1985.57 971.412 1986.02 969.609 1986.61 966.934L1993.5 935.728C1993.77 934.566 1993.99 933.458 1994.15 932.404 1994.31 931.351 1994.39 930.284 1994.39 929.203 1994.39 927.933 1994.08 927.048 1993.44 926.548 1992.81 926.048 1991.8 925.758 1990.42 925.677Z" fill-rule="evenodd"/><text fill="#000000" fill-opacity="0" font-family="Arial,Arial_MSFontService,sans-serif" font-size="55.3198" x="1980.25" y="972.096">π‘</text><path d="M2049.53 957.491 2051.34 957.491C2051.31 958.583 2051.28 959.561 2051.26 960.425 2051.24 961.289 2051.22 962.128 2051.21 962.942 2051.2 963.756 2051.2 964.56 2051.2 965.355L2051.2 987.991C2051.2 988.607 2051.22 989.138 2051.26 989.585 2051.3 990.032 2051.36 990.409 2051.45 990.717 2051.54 991.025 2051.66 991.288 2051.81 991.506 2051.96 991.724 2052.13 991.913 2052.33 992.072 2052.57 992.31 2052.88 992.494 2053.28 992.623 2053.68 992.752 2054.18 992.861 2054.8 992.951 2055.42 993.04 2056.16 993.109 2057.02 993.159 2057.88 993.209 2058.92 993.244 2060.13 993.263L2060.13 995.855 2036.51 995.855 2036.51 993.263C2037.68 993.224 2038.68 993.179 2039.49 993.129 2040.3 993.08 2041 993.01 2041.58 992.921 2042.15 992.831 2042.61 992.732 2042.96 992.623 2043.31 992.514 2043.61 992.38 2043.87 992.221 2044.15 992.042 2044.39 991.849 2044.58 991.64 2044.78 991.432 2044.94 991.168 2045.06 990.851 2045.18 990.533 2045.27 990.146 2045.34 989.689 2045.41 989.232 2045.45 988.667 2045.45 987.991L2045.45 966.635C2045.45 965.861 2045.3 965.315 2045 964.997 2044.7 964.68 2044.28 964.521 2043.72 964.521 2043.1 964.521 2042.19 964.838 2040.98 965.474 2039.77 966.109 2038.2 967.052 2036.27 968.303 2036.02 967.847 2035.78 967.39 2035.56 966.933 2035.34 966.477 2035.11 966.01 2034.87 965.533 2037.34 964.183 2039.77 962.838 2042.19 961.497 2044.6 960.157 2047.05 958.822 2049.53 957.491Z" fill-rule="evenodd"/><text fill="#000000" fill-opacity="0" font-family="Arial,Arial_MSFontService,sans-serif" font-size="38.3633" x="2034.87" y="991.059">1</text><path d="M2148.12 923.691 2154.44 923.691 2154.44 987.116 2148.12 987.116ZM2133.94 923.691 2140.26 923.691 2140.26 987.116 2133.94 987.116Z" fill-rule="evenodd"/><text fill="#000000" fill-opacity="0" font-family="Arial,Arial_MSFontService,sans-serif" font-size="63.4253" x="2133.94" y="979.188">β¥</text><path d="M2199.09 923.691 2212.02 923.691 2222.72 955.262C2224.26 959.801 2225.45 963.638 2226.28 966.772L2226.73 966.772C2226.94 965.124 2227.44 962.381 2228.21 958.545 2228.98 954.708 2229.69 951.358 2230.34 948.494L2233.17 935.728C2233.77 933.053 2234.06 930.878 2234.06 929.203 2234.06 927.933 2233.75 927.048 2233.11 926.548 2232.48 926.048 2231.47 925.758 2230.09 925.677L2230.54 923.691 2244.72 923.691 2244.28 925.677C2243.25 925.893 2242.51 926.136 2242.07 926.406 2241.62 926.677 2241.22 927.082 2240.87 927.622 2240.52 928.163 2240.16 929.007 2239.78 930.155 2239.4 931.303 2238.93 933.174 2238.36 935.768L2228.84 979.011 2223.32 979.011 2211.49 944.238C2210.06 940.078 2208.8 935.93 2207.72 931.797L2207.19 931.797C2207.03 933.174 2206.59 935.802 2205.86 939.679 2205.13 943.556 2204.36 947.346 2203.55 951.047L2199.98 967.217C2199.41 969.784 2199.13 971.892 2199.13 973.54 2199.13 974.756 2199.43 975.613 2200.04 976.113 2200.65 976.613 2201.67 976.917 2203.1 977.025L2202.66 979.011 2188.47 979.011 2188.92 977.025C2189.94 976.863 2190.71 976.6 2191.23 976.235 2191.74 975.87 2192.17 975.363 2192.52 974.715 2192.88 974.067 2193.2 973.276 2193.5 972.344 2193.79 971.412 2194.24 969.609 2194.83 966.934L2201.72 935.728C2201.99 934.566 2202.21 933.458 2202.37 932.404 2202.53 931.351 2202.61 930.284 2202.61 929.203 2202.61 927.933 2202.3 927.048 2201.66 926.548 2201.03 926.048 2200.02 925.758 2198.64 925.677Z" fill-rule="evenodd"/><text fill="#000000" fill-opacity="0" font-family="Arial,Arial_MSFontService,sans-serif" font-size="55.3198" x="2188.47" y="972.096">π‘</text><path d="M2257.33 957.283C2259.39 957.283 2261.16 957.516 2262.61 957.983 2264.07 958.449 2265.26 959.08 2266.17 959.874 2267.09 960.668 2267.75 961.622 2268.15 962.734 2268.56 963.846 2268.77 965.047 2268.77 966.338 2268.77 967.112 2268.71 967.832 2268.6 968.497 2268.49 969.162 2268.3 969.818 2268.04 970.463 2267.77 971.108 2267.42 971.758 2266.98 972.414 2266.54 973.069 2266 973.764 2265.34 974.499 2264.84 975.134 2264.2 975.869 2263.4 976.703 2262.61 977.537 2261.74 978.43 2260.8 979.383 2259.85 980.337 2258.87 981.329 2257.83 982.362 2256.8 983.395 2255.8 984.417 2254.83 985.43 2253.85 986.443 2252.96 987.425 2252.15 988.379 2251.33 989.332 2250.67 990.205 2250.15 991L2261.17 991C2262.1 991 2262.85 990.965 2263.4 990.895 2263.96 990.826 2264.42 990.672 2264.79 990.434 2265.16 990.195 2265.47 989.833 2265.73 989.347 2265.99 988.86 2266.28 988.19 2266.62 987.336L2269.39 987.336C2269.29 988.746 2269.2 990.166 2269.11 991.595 2269.02 993.025 2268.92 994.445 2268.82 995.855L2243.6 995.855 2243.6 994.306C2244.07 993.234 2244.63 992.176 2245.26 991.134 2245.9 990.091 2246.62 989.034 2247.41 987.962 2248.2 986.889 2249.11 985.782 2250.12 984.641 2251.13 983.499 2252.25 982.312 2253.49 981.081 2255.35 979.215 2256.87 977.621 2258.04 976.301 2259.21 974.98 2260.14 973.804 2260.81 972.771 2261.49 971.739 2261.95 970.786 2262.2 969.912 2262.45 969.038 2262.57 968.105 2262.57 967.112 2262.57 966.099 2262.43 965.166 2262.14 964.312 2261.85 963.458 2261.44 962.734 2260.9 962.138 2260.37 961.542 2259.69 961.076 2258.86 960.738 2258.04 960.4 2257.09 960.232 2256.02 960.232 2254.17 960.232 2252.62 960.733 2251.37 961.736 2250.12 962.739 2249.15 964.193 2248.45 966.099L2244.55 966.099 2244.55 960.291C2247.09 959.239 2249.43 958.474 2251.56 957.998 2253.7 957.521 2255.62 957.283 2257.33 957.283Z" fill-rule="evenodd"/><text fill="#000000" fill-opacity="0" font-family="Arial,Arial_MSFontService,sans-serif" font-size="38.5718" x="2243.6" y="991.033">2</text><text font-family="Microsoft YaHei,Microsoft YaHei_MSFontService,sans-serif" font-weight="400" font-size="83" transform="matrix(1 0 0 1 1275.82 1245)">β‘Ά</text><path d="M1394.17 1190.03 1431.45 1190.03 1428.65 1202.47 1424.76 1202.47C1424.66 1200.12 1424.45 1198.35 1424.16 1197.16 1423.86 1195.97 1423.5 1195.15 1423.08 1194.71 1422.66 1194.26 1422.16 1193.96 1421.58 1193.82 1421 1193.67 1420.17 1193.59 1419.09 1193.59L1405.88 1193.59 1401.26 1214.83 1409 1214.83C1410.92 1214.83 1412.38 1214.38 1413.4 1213.47 1414.41 1212.57 1415.43 1211.07 1416.46 1208.99L1420.14 1208.99 1416.5 1224.56 1413.05 1224.56C1413.05 1222.39 1412.92 1220.93 1412.65 1220.16 1412.38 1219.39 1411.98 1218.9 1411.45 1218.7 1410.92 1218.5 1409.97 1218.4 1408.59 1218.4L1400.49 1218.4 1395.3 1241.78 1407.3 1241.78C1408.89 1241.78 1410.15 1241.62 1411.09 1241.29 1412.02 1240.97 1412.9 1240.44 1413.72 1239.71 1414.54 1238.98 1415.37 1237.96 1416.19 1236.65 1417.02 1235.34 1418 1233.57 1419.13 1231.32L1423.06 1231.32 1419.49 1245.35 1383.55 1245.35 1383.99 1243.36C1385.02 1243.2 1385.79 1242.94 1386.3 1242.57 1386.82 1242.21 1387.25 1241.7 1387.6 1241.05 1387.95 1240.4 1388.28 1239.61 1388.57 1238.68 1388.87 1237.75 1389.32 1235.94 1389.91 1233.27L1396.8 1202.06C1397.39 1199.36 1397.69 1197.19 1397.69 1195.54 1397.69 1194.27 1397.37 1193.38 1396.74 1192.88 1396.1 1192.38 1395.1 1192.09 1393.72 1192.01Z" fill-rule="evenodd"/><text fill="#000000" fill-opacity="0" font-family="Arial,Arial_MSFontService,sans-serif" font-size="55.3198" x="1383.55" y="1238.43">πΈ</text><path d="M1437.7 1223.56 1450.27 1223.56 1449.94 1225.35C1449.48 1225.47 1449.1 1225.56 1448.78 1225.64 1448.46 1225.72 1448.18 1225.84 1447.93 1226 1447.68 1226.16 1447.47 1226.37 1447.29 1226.64 1447.11 1226.91 1446.94 1227.28 1446.77 1227.74 1446.6 1228.21 1446.42 1228.8 1446.23 1229.5 1446.04 1230.21 1445.83 1231.07 1445.59 1232.11L1443.66 1240.86 1444.49 1240.86C1444.95 1240.86 1445.36 1240.83 1445.74 1240.78 1446.12 1240.72 1446.49 1240.61 1446.86 1240.46 1447.23 1240.31 1447.6 1240.11 1447.99 1239.85 1448.38 1239.59 1448.82 1239.27 1449.32 1238.87 1451.38 1237.26 1453.11 1235.82 1454.5 1234.55 1455.89 1233.28 1457.01 1232.16 1457.88 1231.18 1458.74 1230.21 1459.36 1229.38 1459.73 1228.7 1460.09 1228.01 1460.28 1227.44 1460.28 1226.98 1460.28 1226.51 1460.09 1226.14 1459.71 1225.87 1459.33 1225.6 1458.72 1225.46 1457.86 1225.44L1458.19 1223.56 1471.74 1223.56 1471.33 1225.44C1470.87 1225.48 1470.44 1225.56 1470.03 1225.7 1469.62 1225.84 1469.15 1226.1 1468.62 1226.46 1468.08 1226.83 1467.44 1227.34 1466.7 1227.98 1465.95 1228.63 1465.01 1229.47 1463.88 1230.5L1452.26 1240.98 1459 1254.98C1459.51 1256.07 1459.96 1256.94 1460.34 1257.57 1460.71 1258.21 1461.1 1258.72 1461.5 1259.09 1461.89 1259.47 1462.35 1259.74 1462.85 1259.91 1463.36 1260.08 1463.99 1260.23 1464.74 1260.37L1464.27 1262.19 1452 1262.19 1452.41 1260.37C1452.97 1260.33 1453.39 1260.21 1453.66 1260 1453.94 1259.79 1454.08 1259.53 1454.08 1259.21 1454.06 1258.99 1454.03 1258.77 1453.99 1258.53 1453.95 1258.29 1453.88 1258.03 1453.78 1257.74 1453.68 1257.45 1453.55 1257.11 1453.4 1256.72 1453.24 1256.34 1453.04 1255.88 1452.8 1255.34L1448.81 1246.82C1448.47 1246.07 1448.17 1245.47 1447.9 1245.03 1447.63 1244.6 1447.35 1244.26 1447.07 1244.02 1446.78 1243.78 1446.45 1243.63 1446.08 1243.56 1445.72 1243.49 1445.25 1243.46 1444.7 1243.46L1443.06 1243.46C1442.9 1244.27 1442.71 1245.14 1442.49 1246.08 1442.28 1247.01 1442.06 1247.96 1441.84 1248.92 1441.62 1249.88 1441.41 1250.83 1441.21 1251.77 1441.02 1252.7 1440.84 1253.57 1440.68 1254.37 1440.52 1255.18 1440.39 1255.89 1440.29 1256.52 1440.19 1257.14 1440.14 1257.62 1440.14 1257.96 1440.14 1258.8 1440.38 1259.39 1440.87 1259.73 1441.36 1260.08 1442.19 1260.29 1443.36 1260.37L1442.88 1262.19 1430.34 1262.19 1430.67 1260.37C1431.29 1260.27 1431.79 1260.16 1432.17 1260.03 1432.56 1259.9 1432.91 1259.62 1433.22 1259.2 1433.52 1258.77 1433.81 1258.13 1434.07 1257.28 1434.32 1256.42 1434.62 1255.21 1434.96 1253.64L1439.84 1231.93C1440.04 1231.06 1440.19 1230.28 1440.29 1229.61 1440.39 1228.93 1440.44 1228.35 1440.44 1227.88 1440.44 1227 1440.21 1226.38 1439.75 1226.02 1439.3 1225.65 1438.46 1225.46 1437.25 1225.44Z" fill-rule="evenodd"/><text fill="#000000" fill-opacity="0" font-family="Arial,Arial_MSFontService,sans-serif" font-size="38.6313" x="1430.34" y="1257.36">πΎ</text><path d="M1492.16 1240.49C1495.59 1240.49 1498.98 1241.04 1502.31 1242.13L1500.8 1248.89 1497.67 1248.89C1497.54 1247.05 1496.98 1245.69 1495.99 1244.81 1495 1243.93 1493.44 1243.49 1491.3 1243.49 1489.38 1243.49 1487.83 1243.97 1486.64 1244.93 1485.45 1245.89 1484.86 1247.2 1484.86 1248.86 1484.86 1250.09 1485.22 1251.15 1485.96 1252.06 1486.69 1252.97 1488.11 1254.06 1490.23 1255.31 1492.18 1256.45 1493.66 1257.46 1494.67 1258.35 1495.68 1259.24 1496.45 1260.22 1496.97 1261.3 1497.49 1262.39 1497.75 1263.63 1497.75 1265.03 1497.75 1266.96 1497.22 1268.7 1496.17 1270.23 1495.12 1271.76 1493.61 1272.95 1491.63 1273.8 1489.65 1274.66 1487.37 1275.09 1484.78 1275.09 1481.55 1275.09 1477.8 1274.52 1473.55 1273.38L1475.09 1266.32 1478.22 1266.32C1478.31 1268.37 1478.91 1269.85 1480.01 1270.76 1481.11 1271.68 1482.87 1272.13 1485.3 1272.13 1487.51 1272.13 1489.24 1271.58 1490.5 1270.48 1491.75 1269.39 1492.38 1267.9 1492.38 1266.03 1492.38 1264.81 1491.99 1263.69 1491.21 1262.67 1490.42 1261.65 1488.83 1260.45 1486.42 1259.07 1483.96 1257.65 1482.18 1256.23 1481.09 1254.81 1479.99 1253.39 1479.44 1251.82 1479.44 1250.11 1479.44 1248.21 1479.95 1246.53 1480.96 1245.07 1481.98 1243.61 1483.45 1242.48 1485.37 1241.69 1487.29 1240.89 1489.55 1240.49 1492.16 1240.49Z" fill-rule="evenodd"/><text fill="#000000" fill-opacity="0" font-family="Arial,Arial_MSFontService,sans-serif" font-size="34.5947" x="1473.55" y="1270.76">π‘†</text><path d="M1747.19 1183.02 1765.27 1183.02 1765.27 1260.31 1747.19 1260.31 1747.19 1257.19 1758.54 1257.19 1758.54 1186.15 1747.19 1186.15ZM1518.01 1183.02 1536.08 1183.02 1536.08 1186.15 1524.74 1186.15 1524.74 1257.19 1536.08 1257.19 1536.08 1260.31 1518.01 1260.31Z" fill-rule="evenodd"/><path d="M1575.82 1187.15C1578.47 1187.15 1580.75 1187.37 1582.67 1187.8L1581.09 1194.69 1577.52 1194.69C1577.14 1193.15 1576.65 1192.04 1576.04 1191.36 1575.43 1190.69 1574.54 1190.35 1573.35 1190.35 1571.81 1190.35 1570.5 1190.78 1569.44 1191.63 1568.37 1192.48 1567.46 1193.74 1566.7 1195.42 1565.94 1197.09 1565.24 1199.35 1564.59 1202.19L1563.58 1206.6 1574 1206.6 1573.1 1210.7 1562.65 1210.7 1555.11 1246.04C1553.87 1251.9 1551.96 1256.27 1549.4 1259.15 1546.83 1262.02 1543.6 1263.46 1539.71 1263.46 1538.58 1263.46 1537.68 1263.4 1537.04 1263.26L1537.72 1259.69C1537.99 1259.77 1538.63 1259.82 1539.63 1259.82 1540.84 1259.82 1541.88 1259.5 1542.75 1258.88 1543.61 1258.26 1544.42 1257.18 1545.16 1255.64 1545.9 1254.1 1546.59 1251.97 1547.21 1249.24L1555.92 1210.7 1549.07 1210.7 1549.68 1207.9C1551.49 1207.79 1552.79 1207.64 1553.59 1207.45 1554.39 1207.26 1555.01 1206.98 1555.45 1206.6 1555.9 1206.22 1556.28 1205.73 1556.59 1205.12 1556.9 1204.52 1557.3 1203.4 1557.79 1201.78 1559.22 1196.92 1561.43 1193.26 1564.41 1190.82 1567.4 1188.37 1571.2 1187.15 1575.82 1187.15Z" fill-rule="evenodd"/><text fill="#000000" fill-opacity="0" font-family="Arial,Arial_MSFontService,sans-serif" font-size="76.313" x="1537.04" y="1253.92">π‘“</text><path d="M1713.85 1183.23C1721.74 1185.31 1727.8 1189.8 1732.02 1196.71 1736.25 1203.61 1738.37 1211.94 1738.37 1221.69 1738.37 1231.47 1736.26 1239.8 1732.04 1246.68 1727.83 1253.55 1721.76 1258.03 1713.85 1260.11L1712.88 1256.99C1719.12 1254.91 1723.76 1250.81 1726.8 1244.67 1729.84 1238.54 1731.36 1230.74 1731.36 1221.29 1731.36 1212.16 1729.84 1204.57 1726.82 1198.53 1723.79 1192.49 1719.1 1188.43 1712.75 1186.35ZM1617.12 1183.23 1618.22 1186.35C1611.9 1188.43 1607.21 1192.49 1604.18 1198.53 1601.14 1204.57 1599.62 1212.16 1599.62 1221.29 1599.62 1230.74 1601.14 1238.54 1604.18 1244.67 1607.21 1250.81 1611.86 1254.91 1618.1 1256.99L1617.12 1260.11C1609.21 1258.03 1603.14 1253.55 1598.93 1246.68 1594.71 1239.8 1592.6 1231.47 1592.6 1221.69 1592.6 1211.94 1594.72 1203.61 1598.95 1196.71 1603.18 1189.8 1609.23 1185.31 1617.12 1183.23Z" fill-rule="evenodd"/><path d="M1632.39 1190.03 1645.32 1190.03 1656.02 1221.6C1657.56 1226.14 1658.75 1229.97 1659.59 1233.11L1660.03 1233.11C1660.25 1231.46 1660.74 1228.72 1661.51 1224.88 1662.28 1221.04 1662.99 1217.69 1663.64 1214.83L1666.48 1202.06C1667.07 1199.39 1667.37 1197.21 1667.37 1195.54 1667.37 1194.27 1667.05 1193.38 1666.42 1192.88 1665.78 1192.38 1664.78 1192.09 1663.4 1192.01L1663.84 1190.03 1678.03 1190.03 1677.58 1192.01C1676.56 1192.23 1675.82 1192.47 1675.37 1192.74 1674.93 1193.01 1674.53 1193.42 1674.18 1193.96 1673.83 1194.5 1673.46 1195.34 1673.08 1196.49 1672.71 1197.64 1672.23 1199.51 1671.67 1202.1L1662.14 1245.35 1656.63 1245.35 1644.8 1210.57C1643.36 1206.41 1642.11 1202.27 1641.03 1198.13L1640.5 1198.13C1640.34 1199.51 1639.89 1202.14 1639.16 1206.02 1638.43 1209.89 1637.66 1213.68 1636.85 1217.38L1633.29 1233.55C1632.72 1236.12 1632.43 1238.23 1632.43 1239.88 1632.43 1241.09 1632.74 1241.95 1633.35 1242.45 1633.95 1242.95 1634.97 1243.25 1636.41 1243.36L1635.96 1245.35 1621.78 1245.35 1622.22 1243.36C1623.25 1243.2 1624.02 1242.94 1624.53 1242.57 1625.05 1242.21 1625.48 1241.7 1625.83 1241.05 1626.18 1240.4 1626.5 1239.61 1626.8 1238.68 1627.1 1237.75 1627.54 1235.94 1628.14 1233.27L1635.03 1202.06C1635.3 1200.9 1635.52 1199.79 1635.68 1198.74 1635.84 1197.69 1635.92 1196.62 1635.92 1195.54 1635.92 1194.27 1635.6 1193.38 1634.97 1192.88 1634.33 1192.38 1633.33 1192.09 1631.95 1192.01Z" fill-rule="evenodd"/><text fill="#000000" fill-opacity="0" font-family="Arial,Arial_MSFontService,sans-serif" font-size="55.3198" x="1621.78" y="1238.43">π‘</text><path d="M1690.63 1223.62C1692.7 1223.62 1694.46 1223.85 1695.92 1224.32 1697.38 1224.79 1698.57 1225.42 1699.48 1226.21 1700.39 1227 1701.05 1227.96 1701.46 1229.07 1701.87 1230.18 1702.07 1231.38 1702.07 1232.67 1702.07 1233.45 1702.02 1234.17 1701.91 1234.83 1701.8 1235.5 1701.61 1236.15 1701.34 1236.8 1701.07 1237.44 1700.72 1238.09 1700.28 1238.75 1699.85 1239.4 1699.3 1240.1 1698.65 1240.83 1698.15 1241.47 1697.5 1242.2 1696.71 1243.04 1695.92 1243.87 1695.05 1244.77 1694.1 1245.72 1693.16 1246.67 1692.17 1247.67 1691.14 1248.7 1690.11 1249.73 1689.1 1250.75 1688.13 1251.77 1687.16 1252.78 1686.26 1253.76 1685.45 1254.71 1684.64 1255.67 1683.97 1256.54 1683.45 1257.34L1694.48 1257.34C1695.41 1257.34 1696.15 1257.3 1696.71 1257.23 1697.27 1257.16 1697.73 1257.01 1698.09 1256.77 1698.46 1256.53 1698.77 1256.17 1699.03 1255.68 1699.29 1255.2 1699.59 1254.53 1699.93 1253.67L1702.7 1253.67C1702.6 1255.08 1702.5 1256.5 1702.41 1257.93 1702.32 1259.36 1702.23 1260.78 1702.13 1262.19L1676.9 1262.19 1676.9 1260.64C1677.38 1259.57 1677.93 1258.51 1678.57 1257.47 1679.21 1256.43 1679.92 1255.37 1680.71 1254.3 1681.51 1253.23 1682.41 1252.12 1683.43 1250.98 1684.44 1249.83 1685.56 1248.65 1686.79 1247.42 1688.66 1245.55 1690.18 1243.96 1691.35 1242.64 1692.52 1241.32 1693.44 1240.14 1694.12 1239.11 1694.79 1238.07 1695.25 1237.12 1695.5 1236.25 1695.75 1235.37 1695.88 1234.44 1695.88 1233.45 1695.88 1232.44 1695.73 1231.5 1695.44 1230.65 1695.16 1229.79 1694.74 1229.07 1694.21 1228.47 1693.67 1227.88 1692.99 1227.41 1692.17 1227.07 1691.34 1226.74 1690.39 1226.57 1689.32 1226.57 1687.48 1226.57 1685.93 1227.07 1684.68 1228.07 1683.43 1229.07 1682.45 1230.53 1681.76 1232.44L1677.86 1232.44 1677.86 1226.63C1680.4 1225.57 1682.74 1224.81 1684.87 1224.33 1687 1223.86 1688.93 1223.62 1690.63 1223.62Z" fill-rule="evenodd"/><text fill="#000000" fill-opacity="0" font-family="Arial,Arial_MSFontService,sans-serif" font-size="38.5718" x="1676.9" y="1257.37">2</text><path d="M1.00081-4.47273 737.473 160.319 735.472 169.265-1.00081 4.47273ZM737.003 141.427 776.726 173.799 726.995 186.154Z" transform="matrix(1 0 0 -1 409.5 840.299)"/><path d="M410.225 1091.97 1146.22 1209.86 1144.77 1218.91 408.775 1101.03ZM1144.59 1191.03 1186.23 1220.91 1137.34 1236.29Z"/><path d="M0.253866-4.5763 205.05 6.78461 204.543 15.9372-0.253866 4.5763ZM201.49-11.7744 245.983 13.6457 198.951 33.9885Z" transform="matrix(-1 0 0 1 708.483 954.5)"/><path d="M1866.49 662.026 2547.17 813.234 2545.18 822.182 1864.51 670.974ZM2546.67 794.343 2586.44 826.653 2536.73 839.085Z"/><path d="M8.69653e-06-4.58333 148.951-4.58305 148.951 4.58362-8.69653e-06 4.58333ZM144.368-22.9164 190.201 0.000360892 144.368 22.9169Z" transform="matrix(-1 0 0 1 2532.7 954.5)"/><path d="M0.862008-4.50154 681.292 125.795 679.568 134.798-0.862008 4.50154ZM680.238 106.927 720.944 138.055 671.618 151.942Z" transform="matrix(1 0 0 -1 1865.5 1220.55)"/></g></svg>