<svg xmlns="http://www.w3.org/2000/svg" width="2969" height="1127" overflow="hidden"><defs><clipPath id="a"><path d="M649 975h2969v1127H649z"/></clipPath></defs><g clip-path="url(#a)" transform="translate(-649 -975)"><path fill="#fdefe8" d="M987 1883h449v219H987z"/><path fill="#d74514" fill-rule="evenodd" d="M1087.08 1962.08h39.35l-2.88 13.05h-5.19c-.13-2.57-.38-4.36-.73-5.39s-.89-1.77-1.62-2.23-1.75-.69-3.08-.69h-10.17l-4.3 19.46h5.64c1.08 0 1.99-.18 2.73-.53.75-.35 1.44-.94 2.07-1.76.63-.83 1.26-1.97 1.88-3.43h4.46l-3.89 16.46h-4.17c0-1.57-.1-2.77-.29-3.61q-.285-1.26-1.05-1.83c-.51-.37-1.39-.56-2.63-.56h-5.76l-4.78 21.64h9.12c1.19 0 2.11-.08 2.77-.24.67-.17 1.27-.42 1.83-.77.55-.36 1.19-.92 1.92-1.69s1.45-1.74 2.17-2.91c.72-1.18 1.45-2.59 2.21-4.24h5.51l-3.73 14.59h-38.54l.57-2.67c1.54-.44 2.67-1.19 3.4-2.27q1.095-1.62 2.07-6l7.38-33.44c.35-1.59.52-3.17.52-4.74 0-1.13-.26-1.96-.79-2.49-.52-.53-1.38-.87-2.57-1.03Z"/><text x="1075.93" y="2010.49" fill-opacity="0" font-family="Arial,Arial_MSFontService,sans-serif" font-size="55.32">𝑬</text><path fill="#d74514" fill-rule="evenodd" d="M1134.5 2004.7h22.7l1.04 1.96-13.46 16.95c-2.2 2.78-4.24 5.18-6.11 7.21l.21.27h5.63c.96 0 1.77-.17 2.46-.51.68-.34 1.35-.95 2.01-1.85.66-.89 1.34-2.15 2.06-3.78h3.15l-1.99 9.29h-22.94l-1.04-1.96 13.19-16.62c2.19-2.76 4.31-5.27 6.38-7.54l-.21-.27h-5.6c-.75 0-1.44.15-2.05.45-.62.3-1.23.81-1.84 1.54-.6.72-1.36 1.93-2.28 3.61h-3.18Z"/><text x="1128.22" y="2030.55" fill-opacity="0" font-family="Arial,Arial_MSFontService,sans-serif" font-size="29.547">𝒛</text><path fill="#d74514" fill-rule="evenodd" d="M1170.16 2022.02h2.78l-3.91 16.79q-.24 1.035-.33 1.59c-.05.38-.08.8-.08 1.27 0 .64.1 1.08.32 1.32.21.24.51.37.9.37.47 0 1-.23 1.59-.68.58-.44 1.27-1.12 2.07-2.03l1.76 1.75c-1.6 1.63-3.03 2.79-4.29 3.47s-2.65 1.03-4.16 1.03c-1.72 0-2.99-.43-3.78-1.27q-1.2-1.275-1.2-3.84c0-1.09.18-2.37.54-3.83l2.05-8.5c.37-1.54.56-2.76.56-3.66q0-.945-.45-1.35c-.3-.27-.93-.45-1.89-.55l.36-1.61Zm-1.79-9.47h6.25l-1.27 5.98h-6.32Z"/><text x="1161.83" y="2042.6" fill-opacity="0" font-family="Arial,Arial_MSFontService,sans-serif" font-size="34.351">𝒊</text><path fill="#d74514" fill-rule="evenodd" d="M1292.84 1955.29q11.835 3.12 18.18 13.47c4.23 6.91 6.34 15.23 6.34 24.99 0 9.78-2.11 18.11-6.32 24.98-4.22 6.88-10.28 11.36-18.2 13.44l-.97-3.12c6.24-2.08 10.88-6.19 13.92-12.32 3.04-6.14 4.56-13.93 4.56-23.39 0-9.13-1.51-16.72-4.54-22.75-3.03-6.04-7.71-10.1-14.06-12.18Zm-78.37 0 1.1 3.12c-6.33 2.08-11.01 6.14-14.05 12.18-3.04 6.03-4.56 13.62-4.56 22.75 0 9.46 1.52 17.25 4.56 23.39 3.04 6.13 7.68 10.24 13.92 12.32l-.97 3.12c-7.91-2.08-13.98-6.56-18.19-13.44-4.22-6.87-6.33-15.2-6.33-24.98 0-9.76 2.12-18.08 6.35-24.99 4.22-6.9 10.28-11.39 18.17-13.47m21.11 21.26c2.16 0 3.81.32 4.94.97 1.14.65 2.07 1.78 2.8 3.39.73 1.6 1.42 4.18 2.07 7.72h.4c2-2.81 3.55-4.93 4.66-6.35 1.11-1.41 2.14-2.55 3.08-3.4q1.425-1.275 2.76-1.8c.89-.36 1.94-.53 3.16-.53 1.35 0 2.71.24 4.09.73l-1.9 8.75h-3.65c-.13-1.13-.63-1.7-1.5-1.7-.38 0-.78.1-1.19.28-.42.19-.98.62-1.67 1.28s-1.54 1.62-2.57 2.88c-1.03 1.25-2.57 3.17-4.62 5.73.95 5.7 1.72 9.79 2.33 12.26s1.24 4.08 1.89 4.8c.37.41.83.61 1.37.61.68 0 1.31-.26 1.89-.79.58-.52 1.33-1.71 2.25-3.54l3.68 1.7c-1.56 2.86-3.34 5-5.32 6.4-1.99 1.41-4.32 2.11-7 2.11-1.64 0-2.96-.21-3.95-.63-.98-.42-1.82-1.11-2.51-2.09-.69-.97-1.3-2.34-1.82-4.11-.53-1.77-1.02-4.09-1.48-6.95h-.41c-2.29 3.3-4.13 5.81-5.51 7.54s-2.56 3.02-3.55 3.89c-.98.86-1.93 1.47-2.83 1.82-.91.35-2 .53-3.27.53-.59 0-1.31-.08-2.16-.22-.85-.15-1.5-.31-1.93-.47l1.91-8.79h3.64c.03.56.17.99.43 1.27.26.29.59.43.99.43.49 0 .94-.1 1.36-.31q.63-.3 1.74-1.35c.75-.71 1.68-1.74 2.82-3.1 1.13-1.37 3.05-3.77 5.75-7.2-.56-3.19-1.1-5.93-1.6-8.24s-.95-3.99-1.35-5.03c-.41-1.04-.79-1.74-1.16-2.09-.36-.35-.78-.52-1.24-.52q-.81 0-1.41.42c-.41.28-.83.74-1.28 1.38-.45.63-.93 1.48-1.44 2.53l-3.69-1.7c1.57-2.86 3.33-5 5.29-6.4 1.96-1.41 4.2-2.11 6.71-2.11"/><text x="1218.11" y="2012.86" fill-opacity="0" font-family="Arial,Arial_MSFontService,sans-serif" font-size="41.5">𝒙</text><path fill="#d74514" fill-rule="evenodd" d="M1278.77 2004.37h3.4l-4.77 20.49c-.19.84-.33 1.48-.4 1.94-.07.45-.1.97-.1 1.55 0 .77.13 1.31.39 1.61.25.29.62.44 1.1.44.57 0 1.22-.27 1.93-.82.72-.54 1.56-1.37 2.54-2.48l2.14 2.14c-1.95 1.99-3.69 3.4-5.23 4.23s-3.23 1.25-5.08 1.25c-2.1 0-3.64-.52-4.61-1.55-.98-1.03-1.46-2.59-1.46-4.67 0-1.33.22-2.89.65-4.68l2.51-10.37c.45-1.88.68-3.37.68-4.46 0-.78-.18-1.33-.55-1.66-.37-.32-1.14-.55-2.31-.67l.45-1.96Zm-2.17-11.56h7.63l-1.55 7.3h-7.72Z"/><text x="1268.62" y="2029.48" fill-opacity="0" font-family="Arial,Arial_MSFontService,sans-serif" font-size="41.908">𝒊</text><path fill-rule="evenodd" d="M1112.68 1104.51h2.35l-7.94 35.38h1.29c2.03 0 4.31-.88 6.83-2.65 2.53-1.77 4.55-3.41 6.06-4.93 1.52-1.51 2.27-2.97 2.27-4.37 0-1.33-.92-2.07-2.75-2.23l.44-1.99h13.13l.77 1.99c-2.24 2.02-4.62 4.01-7.13 5.95l-10.05 7.79 3.97 14.63c.32 1.24.62 2.14.87 2.69.26.55.56.97.89 1.24.34.27.79.4 1.36.4.7 0 1.54-.38 2.51-1.13.98-.76 2.08-1.85 3.33-3.29l2.31 2.27c-2.43 2.57-4.45 4.35-6.04 5.35q-2.4 1.5-4.62 1.5-2.76 0-4.38-1.56c-1.08-1.04-1.93-2.77-2.55-5.2l-2.68-10.54c-.27-1.06-.54-1.78-.81-2.19q-.405-.615-.93-.81c-.35-.14-.97-.2-1.86-.2h-2.8l-4.21 19.86h-7.02l10.42-46.33c.35-1.56.6-2.79.75-3.67.15-.87.22-1.65.22-2.33 0-1.13-.34-1.93-1.03-2.39s-1.93-.71-3.71-.77l.49-2.1Z"/><text x="1095.29" y="1155.79" fill-opacity="0" font-family="Arial,Arial_MSFontService,sans-serif" font-size="58.602">𝑘</text><path d="M1206.917 1682.5v159.915h9.166V1682.5Zm-18.334 155.332 22.917 45.833 22.916-45.833Z"/><path fill="#f8ccb9" d="M649 1283h1124v399H649z"/><text fill="#d74514" font-family="Microsoft YaHei,Microsoft YaHei_MSFontService,sans-serif" font-size="83" font-weight="700" transform="translate(922.6 1611)">滚动密钥生成器</text><path fill="#fff" d="M705 1338h166v162H705zm832 0h166v162h-166zm-651 0h635v162H886z"/><path fill="#d74514" fill-rule="evenodd" d="M1215.84 1419.42c1.41 0 2.58.49 3.53 1.48s1.42 2.24 1.42 3.75-.47 2.76-1.42 3.75c-.95.98-2.12 1.48-3.53 1.48-1.4 0-2.58-.5-3.52-1.48-.95-.99-1.42-2.24-1.42-3.75s.47-2.76 1.42-3.75c.94-.99 2.12-1.48 3.52-1.48m-24.56 0c1.41 0 2.58.49 3.53 1.48s1.42 2.24 1.42 3.75-.47 2.76-1.42 3.75c-.95.98-2.12 1.48-3.53 1.48-1.4 0-2.58-.5-3.52-1.48-.95-.99-1.42-2.24-1.42-3.75s.47-2.76 1.42-3.75c.94-.99 2.12-1.48 3.52-1.48m-24.56 0c1.41 0 2.58.49 3.53 1.48s1.42 2.24 1.42 3.75-.47 2.76-1.42 3.75c-.95.98-2.12 1.48-3.53 1.48-1.4 0-2.58-.5-3.52-1.48-.95-.99-1.42-2.24-1.42-3.75s.47-2.76 1.42-3.75c.94-.99 2.12-1.48 3.52-1.48"/><text x="1161.78" y="1428.57" fill-opacity="0" font-family="Arial,Arial_MSFontService,sans-serif" font-size="10.456">⋯</text><path fill="#fdefe8" d="M2784 1883h449v219h-449z"/><path fill="#d74514" fill-rule="evenodd" d="M2898.33 1966.82c-1.35 0-2.39.03-3.12.08l-10.01 45.56c1.24.1 2.24.16 3 .16 3.48 0 6.49-.69 9.02-2.07q3.78-2.07 6.72-6.3c1.96-2.82 3.5-6.27 4.62-10.33 1.12-4.07 1.69-8.16 1.69-12.26 0-2.79-.32-5.12-.94-7.02-.62-1.89-1.48-3.41-2.57-4.58q-1.635-1.74-3.81-2.49c-1.45-.5-2.98-.75-4.6-.75m-18.76-4.74h16.41c4.46 0 8.02.24 10.7.73 2.43.43 4.65 1.18 6.67 2.23 2.01 1.05 3.6 2.21 4.76 3.48 1.48 1.57 2.65 3.54 3.5 5.9.85 2.37 1.28 5.14 1.28 8.33 0 3.59-.41 7.04-1.22 10.33-.81 3.3-2 6.35-3.58 9.14-1.58 2.8-3.47 5.2-5.68 7.22-2.2 2.01-4.41 3.58-6.62 4.7-2.22 1.12-4.72 1.94-7.5 2.47s-6.08.79-9.89.79h-19.98l.57-2.67c1.54-.44 2.67-1.19 3.4-2.27q1.095-1.62 2.07-6l7.38-33.44c.35-1.59.52-3.17.52-4.74 0-1.13-.26-1.96-.79-2.49-.52-.53-1.38-.87-2.57-1.03Z"/><text x="2868.42" y="2010.49" fill-opacity="0" font-family="Arial,Arial_MSFontService,sans-serif" font-size="55.32">𝑫</text><path fill="#d74514" fill-rule="evenodd" d="M2935.02 2004.7h22.69l1.04 1.96-13.46 16.95c-2.2 2.78-4.24 5.18-6.1 7.21l.2.27h5.63q1.44 0 2.46-.51c.69-.34 1.36-.95 2.01-1.85.66-.89 1.34-2.15 2.06-3.78h3.15l-1.99 9.29h-22.94l-1.04-1.96 13.2-16.62c2.18-2.76 4.3-5.27 6.37-7.54l-.21-.27h-5.6c-.75 0-1.44.15-2.05.45-.62.3-1.23.81-1.84 1.54-.6.72-1.36 1.93-2.27 3.61h-3.19Z"/><text x="2928.73" y="2030.55" fill-opacity="0" font-family="Arial,Arial_MSFontService,sans-serif" font-size="29.547">𝒛</text><path fill="#d74514" fill-rule="evenodd" d="M2970.67 2022.02h2.78l-3.91 16.79q-.24 1.035-.33 1.59c-.05.38-.08.8-.08 1.27 0 .64.1 1.08.32 1.32.21.24.51.37.9.37.47 0 1-.23 1.59-.68.58-.44 1.27-1.12 2.07-2.03l1.76 1.75c-1.6 1.63-3.02 2.79-4.29 3.47-1.26.68-2.64 1.03-4.16 1.03-1.72 0-2.98-.43-3.78-1.27q-1.2-1.275-1.2-3.84c0-1.09.18-2.37.54-3.83l2.05-8.5c.37-1.54.56-2.76.56-3.66q0-.945-.45-1.35c-.3-.27-.93-.45-1.89-.55l.36-1.61Zm-1.79-9.47h6.25l-1.27 5.98h-6.32Z"/><text x="2962.34" y="2042.6" fill-opacity="0" font-family="Arial,Arial_MSFontService,sans-serif" font-size="34.351">𝒊</text><path fill="#d74514" fill-rule="evenodd" d="M3095.07 1955.29q11.835 3.12 18.18 13.47c4.23 6.91 6.34 15.23 6.34 24.99 0 9.78-2.11 18.11-6.32 24.98-4.22 6.88-10.28 11.36-18.2 13.44l-.97-3.12c6.24-2.08 10.88-6.19 13.92-12.32 3.04-6.14 4.56-13.93 4.56-23.39 0-9.13-1.52-16.72-4.54-22.75-3.03-6.04-7.71-10.1-14.06-12.18Zm-80.09 0 1.1 3.12c-6.32 2.08-11.01 6.14-14.05 12.18-3.03 6.03-4.55 13.62-4.55 22.75 0 9.46 1.52 17.25 4.55 23.39 3.04 6.13 7.68 10.24 13.93 12.32l-.98 3.12c-7.91-2.08-13.98-6.56-18.19-13.44-4.22-6.87-6.33-15.2-6.33-24.98 0-9.76 2.12-18.08 6.35-24.99 4.23-6.9 10.28-11.39 18.17-13.47m17.95 21.26c2.08 0 3.76.3 5.04.91 1.29.61 2.31 1.45 3.06 2.51q1.14 1.605 1.83 4.08c.38 1.29.82 3.58 1.34 6.85.83 5.32 1.55 10.55 2.14 15.68 3-4.3 5.31-8.48 6.91-12.56 1.61-4.08 2.41-7.73 2.41-10.95 0-1.02-.24-1.8-.72-2.33-.49-.52-1.34-.81-2.56-.87l.57-2.67h11.43l1.42 2.67c-.54 1.87-1.38 4.12-2.52 6.77-1.67 3.89-3.93 8.25-6.76 13.09-2.57 4.35-5.37 8.7-8.39 13.05q-5.31 7.62-9.24 12.3c-2.62 3.12-4.89 5.42-6.81 6.91-1.52 1.14-2.96 1.94-4.34 2.41s-2.84.71-4.38.71c-2 0-3.89-.3-5.67-.89l2.03-9.16h4.25c.03 1.14.2 1.97.51 2.51q.465.81 1.68.81c.65 0 1.26-.11 1.82-.34.57-.23 1.29-.68 2.15-1.36.87-.67 1.95-1.77 3.26-3.3 1.32-1.53 2.79-3.37 4.44-5.53a475 475 0 0 0-4.58-23.85c-.81-3.66-1.4-6.14-1.78-7.44s-.74-2.22-1.09-2.78c-.36-.55-.68-.92-.98-1.09-.29-.18-.61-.26-.93-.26-.67 0-1.3.27-1.86.83-.57.55-1.31 1.72-2.23 3.5l-3.69-1.7c1.57-2.84 3.35-4.96 5.35-6.38s4.29-2.13 6.89-2.13"/><text x="3017.69" y="2027.79" fill-opacity="0" font-family="Arial,Arial_MSFontService,sans-serif" font-size="58.562">𝒚</text><path fill="#d74514" fill-rule="evenodd" d="M3081 2004.37h3.4l-4.77 20.49c-.19.84-.33 1.48-.4 1.94-.07.45-.1.97-.1 1.55 0 .77.13 1.31.39 1.61.25.29.62.44 1.1.44.57 0 1.22-.27 1.93-.82.72-.54 1.56-1.37 2.53-2.48l2.15 2.14c-1.95 1.99-3.69 3.4-5.23 4.23s-3.23 1.25-5.08 1.25c-2.1 0-3.64-.52-4.61-1.55-.98-1.03-1.46-2.59-1.46-4.67 0-1.33.22-2.89.65-4.68l2.5-10.37c.46-1.88.69-3.37.69-4.46 0-.78-.18-1.33-.55-1.66-.37-.32-1.14-.55-2.31-.67l.45-1.96Zm-2.17-11.56h7.63l-1.55 7.3h-7.72Z"/><text x="3070.85" y="2029.48" fill-opacity="0" font-family="Arial,Arial_MSFontService,sans-serif" font-size="41.908">𝒊</text><path fill="#d74514" d="M1449 983h1339v133H1449z"/><text fill="#fff" font-family="Microsoft YaHei,Microsoft YaHei_MSFontService,sans-serif" font-size="83" font-weight="700" transform="translate(1953.17 1079)">安全信道</text><path d="M1448.86 1045.917h-241.943v196.42h9.166V1050.5l-4.583 4.583h237.36Zm-260.277 191.836 22.917 45.834 22.917-45.834Z"/><path fill="#f8ccb9" d="M2447 1283h1124v399H2447z"/><text fill="#d74514" font-family="Microsoft YaHei,Microsoft YaHei_MSFontService,sans-serif" font-size="83" font-weight="700" transform="translate(2719.96 1611)">滚动密钥生成器</text><path fill="#fff" d="M2502 1338h166v162h-166zm832 0h166v162h-166zm-651 0h635v162h-635z"/><path fill="#d74514" fill-rule="evenodd" d="M3013.2 1419.42c1.41 0 2.58.49 3.53 1.48.94.99 1.42 2.24 1.42 3.75s-.48 2.76-1.42 3.75c-.95.98-2.12 1.48-3.53 1.48-1.4 0-2.58-.5-3.52-1.48-.95-.99-1.42-2.24-1.42-3.75s.47-2.76 1.42-3.75c.94-.99 2.12-1.48 3.52-1.48m-24.56 0c1.41 0 2.58.49 3.53 1.48s1.42 2.24 1.42 3.75-.47 2.76-1.42 3.75c-.95.98-2.12 1.48-3.53 1.48-1.4 0-2.58-.5-3.52-1.48-.95-.99-1.42-2.24-1.42-3.75s.47-2.76 1.42-3.75c.94-.99 2.12-1.48 3.52-1.48m-24.56 0c1.41 0 2.58.49 3.53 1.48s1.42 2.24 1.42 3.75-.47 2.76-1.42 3.75c-.95.98-2.12 1.48-3.53 1.48-1.4 0-2.58-.5-3.52-1.48-.95-.99-1.42-2.24-1.42-3.75s.47-2.76 1.42-3.75c.94-.99 2.12-1.48 3.52-1.48"/><text x="2959.14" y="1428.57" fill-opacity="0" font-family="Arial,Arial_MSFontService,sans-serif" font-size="10.456">⋯</text><path d="M2788.5 1045.92h225.66v196.42H3005V1050.5l4.58 4.58H2788.5Zm244 191.83-22.92 45.84-22.92-45.84Z"/><path fill-rule="evenodd" d="M3113.64 1108.05h2.35l-7.94 35.38h1.3c2.02 0 4.3-.88 6.83-2.65 2.52-1.77 4.54-3.41 6.06-4.93 1.51-1.51 2.27-2.97 2.27-4.37 0-1.33-.92-2.07-2.76-2.23l.45-1.99h13.13l.77 1.99c-2.25 2.02-4.62 4.01-7.14 5.95l-10.05 7.78 3.97 14.64c.33 1.24.62 2.14.88 2.69.25.55.55.97.89 1.24.33.27.79.4 1.35.4.71 0 1.54-.38 2.52-1.13.97-.76 2.08-1.85 3.32-3.29l2.31 2.27c-2.43 2.57-4.44 4.35-6.04 5.35q-2.385 1.5-4.62 1.5c-1.84 0-3.29-.52-4.38-1.56-1.08-1.04-1.93-2.77-2.55-5.21l-2.67-10.53q-.405-1.59-.81-2.19c-.27-.41-.58-.68-.94-.81-.35-.14-.97-.2-1.86-.2h-2.8l-4.21 19.85h-7.01l10.41-46.32c.35-1.57.6-2.79.75-3.67.15-.87.23-1.65.23-2.33 0-1.13-.35-1.93-1.04-2.39s-1.92-.71-3.71-.77l.49-2.1Z"/><text x="3096.26" y="1159.33" fill-opacity="0" font-family="Arial,Arial_MSFontService,sans-serif" font-size="58.602">𝑘</text><path d="M3004.917 1682.5v159.915h9.166V1682.5Zm-18.334 155.332 22.917 45.833 22.916-45.833Z"/><path fill-rule="evenodd" d="M1092.54 1763.72h28.82l.77 2.03-19.33 22.21c-3.76 4.3-7.02 7.94-9.77 10.94l.24.29h9.16c1.62 0 2.86-.09 3.73-.27.86-.17 1.62-.5 2.27-.99s1.32-1.22 2-2.21c.69-.98 1.55-2.53 2.58-4.64h3.6l-2.47 11.39h-29.34l-.77-1.99 22.17-25.53c3.13-3.59 5.43-6.15 6.89-7.66l-.24-.28h-9.49c-1.4 0-2.43.09-3.08.28s-1.29.52-1.94.99c-.65.48-1.35 1.18-2.09 2.11q-1.11 1.395-2.49 3.99h-3.61Z"/><text x="1084.03" y="1797.63" fill-opacity="0" font-family="Arial,Arial_MSFontService,sans-serif" font-size="38.744">𝑧</text><path fill-rule="evenodd" d="M1135.4 1789.2h1.46l-4.41 19.84c-.27 1.17-.47 2.1-.58 2.8-.11.69-.16 1.32-.16 1.87 0 .76.15 1.3.46 1.64s.77.51 1.39.51c.35 0 .71-.07 1.07-.21q.54-.21 1.14-.66c.41-.29.86-.68 1.34-1.14.49-.47 1.03-1.03 1.63-1.69l2.02 1.97a49 49 0 0 1-2.81 2.67c-.85.72-1.64 1.31-2.4 1.77-.75.45-1.49.78-2.22.98q-1.08.3-2.31.3-1.125 0-2.04-.42-.9-.42-1.56-1.14c-.44-.49-.77-1.07-1.01-1.75-.24-.67-.36-1.42-.36-2.23 0-.66.08-1.47.24-2.44.16-.98.36-2.03.61-3.18.25-1.14.52-2.33.82-3.58.3-1.26.59-2.5.88-3.73.28-1.23.54-2.42.77-3.56s.39-2.18.49-3.11c.04-.16.06-.31.06-.46v-.4c-.04-.78-.31-1.34-.82-1.7-.5-.36-1.4-.56-2.69-.6l.35-2.02Zm-1.73-12h5.96l-1.46 6.4h-5.9Z"/><text x="1126.05" y="1814.52" fill-opacity="0" font-family="Arial,Arial_MSFontService,sans-serif" font-size="42.652">𝑖</text><path fill-rule="evenodd" d="M3086.64 1758.62h28.81l.77 2.03-19.33 22.21c-3.75 4.29-7.01 7.94-9.77 10.94l.25.28h9.16c1.62 0 2.86-.09 3.73-.26.86-.18 1.62-.51 2.27-.99.64-.49 1.31-1.23 2-2.21.69-.99 1.55-2.54 2.57-4.64h3.61l-2.47 11.39h-29.34l-.77-1.99 22.17-25.53c3.13-3.6 5.43-6.15 6.89-7.66l-.25-.29h-9.48c-1.41 0-2.43.1-3.08.29q-.975.285-1.95.99c-.64.47-1.34 1.18-2.08 2.11-.75.93-1.58 2.26-2.5 3.99h-3.6Z"/><text x="3078.13" y="1792.52" fill-opacity="0" font-family="Arial,Arial_MSFontService,sans-serif" font-size="38.744">𝑧</text><path fill-rule="evenodd" d="M3129.5 1784.1h1.46l-4.41 19.83c-.28 1.17-.47 2.11-.58 2.8-.11.7-.16 1.32-.16 1.88 0 .75.15 1.3.46 1.64s.77.5 1.38.5c.36 0 .72-.07 1.07-.2.36-.14.74-.36 1.15-.66s.86-.68 1.34-1.15c.49-.46 1.03-1.02 1.63-1.68l2.02 1.97a46 46 0 0 1-2.81 2.66q-1.275 1.095-2.4 1.77-1.14.69-2.22.99c-.73.2-1.49.3-2.31.3q-1.125 0-2.04-.42a4.6 4.6 0 0 1-1.56-1.15c-.44-.48-.78-1.07-1.02-1.74-.23-.68-.35-1.42-.35-2.23 0-.66.08-1.47.24-2.45.15-.97.36-2.03.61-3.17.24-1.14.52-2.34.81-3.59.3-1.25.6-2.49.88-3.72.29-1.23.55-2.42.78-3.56s.39-2.18.49-3.11c.04-.16.06-.32.06-.46v-.41c-.04-.77-.31-1.34-.82-1.69q-.765-.54-2.7-.6l.36-2.03Zm-1.73-12.01h5.96l-1.46 6.41h-5.9Z"/><text x="3120.15" y="1809.41" fill-opacity="0" font-family="Arial,Arial_MSFontService,sans-serif" font-size="42.652">𝑖</text><path fill-rule="evenodd" d="M2130.72 1992.91c1.41 0 2.58.49 3.53 1.48.94.99 1.42 2.24 1.42 3.75s-.48 2.76-1.42 3.75c-.95.98-2.12 1.48-3.53 1.48-1.4 0-2.58-.5-3.52-1.48-.95-.99-1.42-2.24-1.42-3.75s.47-2.76 1.42-3.75c.94-.99 2.12-1.48 3.52-1.48m-24.56 0c1.41 0 2.58.49 3.53 1.48.94.99 1.42 2.24 1.42 3.75s-.48 2.76-1.42 3.75c-.95.98-2.12 1.48-3.53 1.48-1.4 0-2.58-.5-3.52-1.48-.95-.99-1.42-2.24-1.42-3.75s.47-2.76 1.42-3.75c.94-.99 2.12-1.48 3.52-1.48m-24.56 0c1.41 0 2.58.49 3.53 1.48.94.99 1.42 2.24 1.42 3.75s-.48 2.76-1.42 3.75c-.95.98-2.12 1.48-3.53 1.48-1.4 0-2.58-.5-3.52-1.48-.95-.99-1.42-2.24-1.42-3.75s.47-2.76 1.42-3.75c.94-.99 2.12-1.48 3.52-1.48"/><text x="2076.66" y="2002.06" fill-opacity="0" font-family="Arial,Arial_MSFontService,sans-serif" font-size="10.456">⋯</text><path d="M1436.5 1987.92h490.54v9.16H1436.5Zm485.96-18.34 45.83 22.92-45.83 22.92Zm347.04 18.34h474.26v9.16H2269.5Zm469.68-18.34 45.83 22.92-45.83 22.92ZM649.5 1987.92h286.774v9.16H649.5Zm282.191-18.34 45.833 22.92-45.833 22.92Zm2301.809 18.34h296.32v9.16H3233.5Zm291.74-18.34 45.83 22.92-45.83 22.92Z"/><path fill-rule="evenodd" d="M781.932 1896.67c.838 0 1.574.1 2.209.29q.952.285 1.682.87c.486.39.918.9 1.297 1.52s.742 1.46 1.094 2.53c.351 1.07.682 2.39.993 3.97s.587 3.22.83 4.93h.406q3.89-5.475 5.896-8.01c1.338-1.69 2.466-2.94 3.385-3.77q1.377-1.23 2.654-1.74t3.384-.51c1.27 0 2.31.17 3.121.49l-1.621 7.34h-2.837q-.243-1.71-1.419-1.71-.365 0-.77.12c-.27.09-.601.26-.993.53-.391.27-.966.8-1.722 1.58-.757.79-1.608 1.74-2.553 2.88q-1.42 1.695-2.918 3.57l-2.756 3.44c.486 2.59.945 4.84 1.378 6.73s.817 3.46 1.155 4.72c.337 1.26.635 2.25.891 2.98.257.73.534 1.28.831 1.64s.601.62.912.77.669.22 1.074.22c.73 0 1.439-.28 2.128-.85s1.682-1.85 2.978-3.85l2.635 1.74q-2.837 4.215-5.127 5.94c-1.527 1.15-3.343 1.72-5.451 1.72-1.162 0-2.148-.21-2.958-.62q-1.216-.63-2.108-2.01c-.594-.92-1.121-2.35-1.58-4.3-.838-3.45-1.351-6.1-1.54-7.94h-.406q-4.295 6.045-6.383 8.67c-1.391 1.76-2.539 3.06-3.445 3.89q-1.357 1.26-2.634 1.77c-.851.33-1.979.5-3.384.5q-1.905 0-3.12-.48l1.621-7.34h2.837c.162 1.14.634 1.7 1.418 1.7q.567 0 1.196-.3c.418-.2 1.02-.69 1.803-1.46q1.176-1.155 3.242-3.63c1.378-1.64 3.377-4.12 5.998-7.41a218 218 0 0 0-1.256-6.16c-.432-1.98-.878-3.81-1.338-5.51-.459-1.71-.837-2.82-1.134-3.35s-.615-.89-.953-1.09c-.337-.21-.763-.31-1.276-.31q-.852 0-1.54.39c-.46.26-.959.7-1.5 1.34q-.81.945-2.148 2.97l-2.634-1.74c1.702-2.56 3.337-4.48 4.904-5.75s3.418-1.91 5.552-1.91"/><text x="767.14" y="1931.74" fill-opacity="0" font-family="Arial,Arial_MSFontService,sans-serif" font-size="40.081">𝑥</text><path fill-rule="evenodd" d="M823.533 1922.84h1.46l-4.409 19.83a39 39 0 0 0-.58 2.8c-.11.7-.164 1.32-.164 1.88 0 .75.154 1.3.461 1.64s.77.5 1.385.5c.358 0 .715-.07 1.073-.2q.535-.21 1.146-.66c.407-.3.854-.68 1.341-1.15a30 30 0 0 0 1.623-1.68l2.025 1.97c-1.032 1.05-1.97 1.94-2.814 2.66q-1.266 1.095-2.398 1.77-1.132.69-2.219.99t-2.308.3q-1.132 0-2.041-.42a4.7 4.7 0 0 1-1.563-1.15c-.437-.48-.775-1.07-1.013-1.74a6.7 6.7 0 0 1-.357-2.23c0-.66.079-1.47.238-2.45.159-.97.362-2.03.61-3.17.249-1.14.522-2.34.82-3.59q.446-1.875.878-3.72c.288-1.23.546-2.42.775-3.56s.392-2.18.491-3.11c.04-.16.06-.32.06-.46v-.41c-.04-.77-.313-1.34-.819-1.69q-.76-.54-2.696-.6l.357-2.03Zm-1.727-12.01h5.957l-1.46 6.41h-5.897Z"/><text x="814.181" y="1948.15" fill-opacity="0" font-family="Arial,Arial_MSFontService,sans-serif" font-size="42.652">𝑖</text><path fill-rule="evenodd" d="M3370.75 1885.72c.84 0 1.57.1 2.21.29q.945.27 1.68.87c.49.39.92.89 1.3 1.52.38.62.74 1.46 1.09 2.53s.68 2.39.99 3.97c.32 1.58.59 3.22.84 4.92h.4c2.59-3.64 4.56-6.31 5.9-8 1.33-1.69 2.46-2.94 3.38-3.77.92-.82 1.8-1.4 2.66-1.74.85-.34 1.97-.51 3.38-.51 1.27 0 2.31.16 3.12.49l-1.62 7.33h-2.84c-.16-1.13-.63-1.7-1.42-1.7-.24 0-.5.04-.77.12s-.6.26-.99.53-.96.8-1.72 1.58q-1.14 1.17-2.55 2.88c-.95 1.13-1.92 2.32-2.92 3.56l-2.76 3.45c.49 2.59.95 4.84 1.38 6.73s.82 3.46 1.15 4.72c.34 1.26.64 2.25.9 2.98.25.73.53 1.27.83 1.64.29.36.6.62.91.77s.67.22 1.07.22c.73 0 1.44-.28 2.13-.85s1.68-1.85 2.98-3.85l2.63 1.74c-1.89 2.81-3.6 4.79-5.12 5.94-1.53 1.15-3.35 1.72-5.45 1.72-1.17 0-2.15-.21-2.96-.63-.81-.41-1.52-1.08-2.11-2s-1.12-2.35-1.58-4.3c-.84-3.46-1.35-6.1-1.54-7.94h-.41c-2.86 4.03-4.99 6.92-6.38 8.67-1.39 1.76-2.54 3.06-3.44 3.89q-1.365 1.26-2.64 1.77c-.85.33-1.98.5-3.38.5q-1.905 0-3.12-.48l1.62-7.34h2.84c.16 1.14.63 1.7 1.41 1.7q.57 0 1.2-.3c.42-.2 1.02-.69 1.8-1.46q1.185-1.155 3.24-3.63 2.07-2.475 6-7.41c-.4-2.14-.82-4.19-1.25-6.16-.44-1.98-.88-3.81-1.34-5.52-.46-1.7-.84-2.81-1.14-3.34-.29-.53-.61-.89-.95-1.09-.34-.21-.76-.31-1.27-.31-.57 0-1.09.13-1.54.39-.46.25-.96.7-1.5 1.34-.54.63-1.26 1.62-2.15 2.97l-2.64-1.74c1.71-2.57 3.34-4.48 4.91-5.75 1.56-1.27 3.42-1.91 5.55-1.91"/><text x="3355.96" y="1920.79" fill-opacity="0" font-family="Arial,Arial_MSFontService,sans-serif" font-size="40.081">𝑥</text><path fill-rule="evenodd" d="M3412.35 1911.89h1.46l-4.41 19.83c-.28 1.17-.47 2.11-.58 2.8-.11.7-.16 1.32-.16 1.88 0 .75.15 1.3.46 1.64.31.33.77.5 1.38.5q.54 0 1.08-.21c.35-.13.74-.35 1.14-.65.41-.3.86-.68 1.34-1.15.49-.46 1.03-1.02 1.63-1.68l2.02 1.97a46 46 0 0 1-2.81 2.66q-1.275 1.095-2.4 1.77-1.125.69-2.22.99c-.72.2-1.49.29-2.31.29-.75 0-1.43-.13-2.04-.41-.6-.28-1.12-.66-1.56-1.15a5 5 0 0 1-1.01-1.74c-.24-.68-.36-1.42-.36-2.24 0-.65.08-1.46.24-2.44.16-.97.36-2.03.61-3.17s.52-2.34.82-3.59c.29-1.25.59-2.49.87-3.72.29-1.23.55-2.42.78-3.56s.39-2.18.49-3.11c.04-.16.06-.32.06-.47v-.4c-.04-.77-.31-1.34-.82-1.7-.51-.35-1.4-.55-2.69-.59l.35-2.03Zm-1.73-12.01h5.96l-1.46 6.41h-5.9Z"/><text x="3403" y="1937.2" fill-opacity="0" font-family="Arial,Arial_MSFontService,sans-serif" font-size="42.652">𝑖</text><path fill-rule="evenodd" d="M1667.57 1897.85c1.11 0 2.05.14 2.84.44q.81.33 1.62 1.08c.54.5 1.02 1.19 1.44 2.08s.78 1.89 1.09 3 .66 2.7 1.03 4.78q.975 5.235 1.89 11.01c.61 3.85 1.13 7.42 1.56 10.72 2.62-3.79 4.84-7.49 6.67-11.11 1.82-3.62 3.13-6.77 3.93-9.44.79-2.68 1.19-4.85 1.19-6.53 0-1.27-.27-2.13-.81-2.59s-1.46-.73-2.75-.81l.4-1.99h10.66l1.09 2.03c-2.05 5.62-4.83 11.63-8.34 18.04q-5.19 9.39-11.88 18.72c-4.27 5.92-7.82 10.2-10.66 12.85-1.97 1.81-3.87 3.1-5.71 3.89-1.46.59-3.01.89-4.66.89-.57 0-1.23-.05-1.97-.14-.74-.1-1.32-.23-1.72-.39l1.74-7.86h3.2c0 1.73.6 2.59 1.79 2.59 1.56 0 3.39-.98 5.47-2.94 2.08-1.95 4.52-4.91 7.33-8.85-.78-4.73-1.85-10.43-3.2-17.1-1.43-7.14-2.38-11.55-2.84-13.26-.56-2.05-1.16-3.36-1.78-3.93-.38-.35-.85-.52-1.42-.52q-1.29 0-2.43 1.05c-.76.7-1.69 1.92-2.79 3.65l-2.64-1.75c1.87-2.78 3.61-4.74 5.23-5.89s3.43-1.72 5.43-1.72"/><text x="1654.48" y="1947.78" fill-opacity="0" font-family="Arial,Arial_MSFontService,sans-serif" font-size="57.063">𝑦</text><path fill-rule="evenodd" d="M1712.4 1923.97h1.46l-4.41 19.84c-.28 1.17-.47 2.1-.58 2.8-.11.69-.16 1.32-.16 1.87 0 .76.15 1.3.46 1.64q.465.51 1.38.51.54 0 1.08-.21c.35-.14.74-.36 1.14-.66.41-.29.86-.68 1.34-1.14.49-.47 1.03-1.03 1.63-1.69l2.02 1.97a49 49 0 0 1-2.81 2.67q-1.275 1.08-2.4 1.77c-.75.45-1.49.78-2.22.98q-1.08.3-2.31.3-1.125 0-2.04-.42c-.6-.28-1.12-.66-1.56-1.15-.44-.48-.78-1.06-1.01-1.74-.24-.67-.36-1.42-.36-2.23 0-.66.08-1.47.24-2.44.16-.98.36-2.03.61-3.18.25-1.14.52-2.33.82-3.59.29-1.25.59-2.49.87-3.72.29-1.23.55-2.42.78-3.56s.39-2.18.49-3.11c.04-.16.06-.31.06-.46v-.4c-.04-.78-.31-1.34-.82-1.7s-1.4-.56-2.69-.6l.35-2.02Zm-1.73-12h5.96l-1.46 6.4h-5.9Z"/><text x="1703.05" y="1949.29" fill-opacity="0" font-family="Arial,Arial_MSFontService,sans-serif" font-size="42.652">𝑖</text><path fill-rule="evenodd" d="M2500.3 1896.71c1.11 0 2.06.15 2.84.45.54.21 1.08.57 1.62 1.07s1.02 1.2 1.44 2.09.78 1.89 1.09 3 .66 2.7 1.04 4.78c.64 3.49 1.27 7.15 1.88 11s1.13 7.43 1.56 10.72c2.62-3.78 4.84-7.48 6.67-11.1 1.82-3.62 3.13-6.77 3.93-9.44.8-2.68 1.19-4.85 1.19-6.53 0-1.27-.27-2.13-.81-2.59s-1.45-.73-2.75-.81l.4-1.99h10.66l1.1 2.03c-2.06 5.62-4.84 11.63-8.35 18.03-3.46 6.27-7.42 12.51-11.88 18.73-4.27 5.91-7.82 10.2-10.66 12.84-1.97 1.81-3.87 3.11-5.71 3.89-1.46.6-3.01.9-4.66.9-.57 0-1.22-.05-1.97-.15-.74-.09-1.31-.22-1.72-.38l1.74-7.86h3.21c0 1.73.59 2.59 1.78 2.59 1.57 0 3.39-.98 5.47-2.94s4.53-4.91 7.34-8.85c-.79-4.73-1.85-10.43-3.21-17.11-1.43-7.13-2.37-11.55-2.83-13.25-.57-2.05-1.16-3.36-1.79-3.93-.37-.35-.85-.53-1.41-.53-.87 0-1.68.35-2.44 1.06-.75.7-1.68 1.92-2.79 3.64l-2.64-1.74c1.87-2.78 3.61-4.75 5.23-5.89a9.17 9.17 0 0 1 5.43-1.73"/><text x="2487.21" y="1946.64" fill-opacity="0" font-family="Arial,Arial_MSFontService,sans-serif" font-size="57.063">𝑦</text><path fill-rule="evenodd" d="M2545.13 1922.84h1.46l-4.41 19.83c-.27 1.17-.47 2.11-.58 2.8-.11.7-.16 1.32-.16 1.88 0 .75.15 1.3.46 1.64s.77.5 1.39.5c.35 0 .71-.07 1.07-.2.36-.14.74-.36 1.15-.66.4-.3.85-.68 1.34-1.15q.72-.69 1.62-1.68l2.02 1.97a46 46 0 0 1-2.81 2.66q-1.26 1.095-2.4 1.77-1.125.69-2.22.99-1.08.3-2.31.3-1.125 0-2.04-.42c-.6-.28-1.12-.66-1.56-1.15-.44-.48-.77-1.07-1.01-1.74-.24-.68-.36-1.42-.36-2.23 0-.66.08-1.47.24-2.45.16-.97.36-2.03.61-3.17s.52-2.34.82-3.59.59-2.49.88-3.72c.28-1.23.54-2.42.77-3.56s.39-2.18.49-3.11c.04-.16.06-.32.06-.46v-.41c-.04-.77-.31-1.34-.82-1.69-.5-.36-1.4-.56-2.69-.6l.36-2.03Zm-1.72-12.01h5.95l-1.46 6.41h-5.89Z"/><text x="2535.78" y="1948.15" fill-opacity="0" font-family="Arial,Arial_MSFontService,sans-serif" font-size="42.652">𝑖</text></g></svg>