<svg width="3414" height="791" xmlns="http://www.w3.org/2000/svg" xmlns:xlink="http://www.w3.org/1999/xlink" overflow="hidden"><defs><clipPath id="clip0"><rect x="167" y="-2895" width="3414" height="791"/></clipPath></defs><g clip-path="url(#clip0)" transform="translate(-167 2895)"><rect x="167" y="-2820" width="237" height="309" fill="#F8CCB9"/><path d="M258.395-2691.24 277.281-2691.24 280.442-2657.4 299.652-2691.24 318.497-2691.24 317.93-2688.57C316.39-2688.14 315.255-2687.38 314.526-2686.3 313.796-2685.22 313.107-2683.22 312.459-2680.3L305.083-2646.87C304.894-2646 304.759-2645.25 304.678-2644.62 304.597-2643.98 304.556-2643.15 304.556-2642.12 304.556-2640.99 304.819-2640.16 305.346-2639.63 305.873-2639.1 306.731-2638.76 307.92-2638.6L307.352-2635.92 286.967-2635.92 287.535-2638.6C289.075-2639.03 290.209-2639.79 290.939-2640.87 291.668-2641.95 292.357-2643.95 293.006-2646.87L296.734-2663.89C297.977-2669.51 299.436-2675.17 301.111-2680.87L300.301-2680.87C299.031-2678.54 297.666-2676.13 296.207-2673.61L277.97-2642.04 271.405-2642.04 268.73-2666.4C268.108-2672.18 267.703-2677.14 267.514-2681.27L266.866-2681.27C265.785-2674.6 264.758-2669.06 263.786-2664.66L259.854-2646.87C259.665-2646 259.53-2645.25 259.449-2644.62 259.368-2643.98 259.328-2643.15 259.328-2642.12 259.328-2640.99 259.591-2640.16 260.118-2639.63 260.645-2639.1 261.503-2638.76 262.691-2638.6L262.124-2635.92 247.25-2635.92 247.818-2638.6C249.358-2639.03 250.493-2639.79 251.222-2640.87 251.952-2641.95 252.641-2643.95 253.289-2646.87L260.665-2680.3C261.016-2681.89 261.192-2683.48 261.192-2685.04 261.192-2686.18 260.928-2687.01 260.401-2687.53 259.875-2688.06 259.017-2688.41 257.828-2688.57Z" fill="#D74514" fill-rule="evenodd"/><text fill="#000000" fill-opacity="0" font-family="Arial,Arial_MSFontService,sans-serif" font-size="55.3198" x="247.25" y="-2642.84">𝑴</text><path d="M534-2213C534-2273.2 582.801-2322 643-2322 703.199-2322 752-2273.2 752-2213 752-2152.8 703.199-2104 643-2104 582.801-2104 534-2152.8 534-2213Z" fill="#FDEFE8" fill-rule="evenodd"/><path d="M621.179-2238.62 641.565-2238.62 640.997-2235.94C639.457-2235.51 638.323-2234.75 637.593-2233.67 636.864-2232.59 636.175-2230.59 635.526-2227.67L632.689-2214.83 649.873-2214.83 652.71-2227.67C653.061-2229.27 653.237-2230.85 653.237-2232.42 653.237-2233.55 652.973-2234.38 652.446-2234.91 651.919-2235.44 651.062-2235.78 649.873-2235.94L650.44-2238.62 670.825-2238.62 670.258-2235.94C668.718-2235.51 667.583-2234.75 666.854-2233.67 666.124-2232.59 665.435-2230.59 664.787-2227.67L657.411-2194.24C657.222-2193.37 657.087-2192.62 657.006-2191.99 656.925-2191.35 656.884-2190.52 656.884-2189.5 656.884-2188.36 657.147-2187.53 657.674-2187 658.201-2186.48 659.059-2186.13 660.248-2185.97L659.68-2183.3 639.295-2183.3 639.863-2185.97C641.403-2186.4 642.537-2187.16 643.267-2188.24 643.996-2189.32 644.685-2191.32 645.334-2194.24L648.738-2209.72 631.554-2209.72 628.15-2194.24C627.961-2193.35 627.826-2192.59 627.745-2191.97 627.664-2191.35 627.623-2190.52 627.623-2189.5 627.623-2188.36 627.887-2187.53 628.414-2187 628.94-2186.48 629.798-2186.13 630.987-2185.97L630.42-2183.3 610.034-2183.3 610.602-2185.97C612.142-2186.4 613.277-2187.16 614.006-2188.24 614.736-2189.32 615.425-2191.32 616.073-2194.24L623.449-2227.67C623.8-2229.27 623.976-2230.85 623.976-2232.42 623.976-2233.55 623.712-2234.38 623.186-2234.91 622.659-2235.44 621.801-2235.78 620.612-2235.94Z" fill="#D74514" fill-rule="evenodd"/><text fill="#000000" fill-opacity="0" font-family="Arial,Arial_MSFontService,sans-serif" font-size="55.3198" x="610.034" y="-2190.21">𝑯</text><path d="M810-2665.5C810-2725.98 858.801-2775 919-2775 979.199-2775 1028-2725.98 1028-2665.5 1028-2605.02 979.199-2556 919-2556 858.801-2556 810-2605.02 810-2665.5Z" fill="#FDEFE8" fill-rule="evenodd"/><path d="M919.887-2691.24 926.209-2691.24 926.209-2627.82 919.887-2627.82ZM905.702-2691.24 912.025-2691.24 912.025-2627.82 905.702-2627.82Z" fill="#D74514" fill-rule="evenodd"/><text fill="#000000" fill-opacity="0" font-family="Arial,Arial_MSFontService,sans-serif" font-size="63.4253" x="905.702" y="-2635.75">∥</text><rect x="2470" y="-2894" width="237" height="309" fill="#F8CCB9"/><path d="M2560.95-2765.19 2579.84-2765.19 2583-2731.35 2602.21-2765.19 2621.05-2765.19 2620.49-2762.52C2618.95-2762.09 2617.81-2761.33 2617.08-2760.25 2616.35-2759.17 2615.66-2757.17 2615.01-2754.25L2607.64-2720.82C2607.45-2719.95 2607.31-2719.2 2607.23-2718.57 2607.15-2717.93 2607.11-2717.1 2607.11-2716.08 2607.11-2714.94 2607.37-2714.11 2607.9-2713.58 2608.43-2713.06 2609.29-2712.71 2610.47-2712.55L2609.91-2709.88 2589.52-2709.88 2590.09-2712.55C2591.63-2712.98 2592.76-2713.74 2593.49-2714.82 2594.22-2715.9 2594.91-2717.9 2595.56-2720.82L2599.29-2737.84C2600.53-2743.46 2601.99-2749.12 2603.67-2754.82L2602.86-2754.82C2601.59-2752.5 2600.22-2750.08 2598.76-2747.57L2580.53-2715.99 2573.96-2715.99 2571.28-2740.35C2570.66-2746.13 2570.26-2751.09 2570.07-2755.23L2569.42-2755.23C2568.34-2748.55 2567.31-2743.01 2566.34-2738.61L2562.41-2720.82C2562.22-2719.95 2562.09-2719.2 2562-2718.57 2561.92-2717.93 2561.88-2717.1 2561.88-2716.08 2561.88-2714.94 2562.15-2714.11 2562.67-2713.58 2563.2-2713.06 2564.06-2712.71 2565.25-2712.55L2564.68-2709.88 2549.81-2709.88 2550.37-2712.55C2551.91-2712.98 2553.05-2713.74 2553.78-2714.82 2554.51-2715.9 2555.2-2717.9 2555.84-2720.82L2563.22-2754.25C2563.57-2755.85 2563.75-2757.43 2563.75-2758.99 2563.75-2760.13 2563.48-2760.96 2562.96-2761.49 2562.43-2762.01 2561.57-2762.36 2560.38-2762.52Z" fill="#D74514" fill-rule="evenodd"/><text fill="#000000" fill-opacity="0" font-family="Arial,Arial_MSFontService,sans-serif" font-size="55.3198" x="2549.81" y="-2716.79">𝑴</text><rect x="2470" y="-2582" width="237" height="145" fill="#FDEFE8"/><path d="M2878-2665.5C2878-2725.98 2927.02-2775 2987.5-2775 3047.97-2775 3097-2725.98 3097-2665.5 3097-2605.02 3047.97-2556 2987.5-2556 2927.02-2556 2878-2605.02 2878-2665.5Z" fill="#FDEFE8" fill-rule="evenodd"/><path d="M2985.6-2686.5C2984.25-2686.5 2983.2-2686.47 2982.48-2686.42L2972.47-2640.87C2973.71-2640.76 2974.71-2640.71 2975.46-2640.71 2978.95-2640.71 2981.96-2641.39 2984.48-2642.77 2987.01-2644.15 2989.25-2646.25 2991.21-2649.07 2993.17-2651.9 2994.71-2655.34 2995.83-2659.41 2996.95-2663.47 2997.51-2667.56 2997.51-2671.67 2997.51-2674.45 2997.2-2676.79 2996.58-2678.68 2995.96-2680.57 2995.1-2682.1 2994.01-2683.26 2992.91-2684.42 2991.64-2685.25 2990.2-2685.75 2988.75-2686.25 2987.22-2686.5 2985.6-2686.5ZM2966.83-2691.24 2983.25-2691.24C2987.7-2691.24 2991.27-2691 2993.94-2690.51 2996.38-2690.08 2998.6-2689.34 3000.61-2688.28 3002.62-2687.23 3004.21-2686.07 3005.37-2684.8 3006.86-2683.23 3008.03-2681.27 3008.88-2678.9 3009.73-2676.54 3010.16-2673.76 3010.16-2670.57 3010.16-2666.98 3009.75-2663.54 3008.94-2660.24 3008.13-2656.94 3006.93-2653.9 3005.35-2651.1 3003.77-2648.3 3001.88-2645.9 2999.68-2643.89 2997.48-2641.87 2995.27-2640.31 2993.05-2639.19 2990.84-2638.06 2988.34-2637.24 2985.56-2636.71 2982.77-2636.19 2979.48-2635.92 2975.67-2635.92L2955.69-2635.92 2956.25-2638.6C2957.79-2639.03 2958.93-2639.79 2959.66-2640.87 2960.39-2641.95 2961.08-2643.95 2961.73-2646.87L2969.1-2680.3C2969.45-2681.89 2969.63-2683.48 2969.63-2685.04 2969.63-2686.18 2969.36-2687.01 2968.84-2687.53 2968.31-2688.06 2967.45-2688.41 2966.26-2688.57Z" fill="#D74514" fill-rule="evenodd"/><text fill="#000000" fill-opacity="0" font-family="Arial,Arial_MSFontService,sans-serif" font-size="55.3198" x="2955.69" y="-2642.84">𝑫</text><path d="M3389.02-2393.47C3387.64-2393.47 3386.28-2393 3384.94-2392.07 3383.6-2391.14 3382.14-2389.65 3380.55-2387.59 3378.95-2385.54 3377.71-2383.51 3376.82-2381.51 3375.93-2379.51 3375.22-2377.22 3374.71-2374.62L3374.39-2372.92C3374.11-2371.49 3373.95-2370.4 3373.88-2369.64 3373.81-2368.88 3373.78-2368.14 3373.78-2367.41 3373.78-2365.3 3374.23-2363.77 3375.13-2362.81 3376.04-2361.85 3377.6-2361.37 3379.82-2361.37 3381.19-2361.37 3382.46-2361.64 3383.63-2362.18 3384.79-2362.72 3385.89-2363.51 3386.93-2364.53 3387.97-2365.56 3388.91-2366.8 3389.74-2368.26 3390.58-2369.72 3391.33-2371.42 3391.99-2373.35 3392.66-2375.28 3393.16-2377.27 3393.49-2379.31 3393.83-2381.34 3394-2383.26 3394-2385.04 3394-2387.88 3393.6-2389.99 3392.8-2391.38 3392.01-2392.77 3390.74-2393.47 3389.02-2393.47ZM3270.84-2394.97C3268.03-2394.97 3265.58-2393.79 3263.49-2391.44 3261.39-2389.09 3259.74-2385.73 3258.54-2381.35 3257.34-2376.97 3256.74-2373.21 3256.74-2370.04 3256.74-2367.07 3257.35-2364.88 3258.58-2363.46 3259.81-2362.04 3261.67-2361.33 3264.15-2361.33 3266.8-2361.33 3269.15-2362.52 3271.21-2364.9 3273.26-2367.28 3274.88-2370.61 3276.07-2374.89 3277.26-2379.17 3277.85-2382.93 3277.85-2386.17 3277.85-2389.09 3277.28-2391.29 3276.15-2392.76 3275.02-2394.23 3273.25-2394.97 3270.84-2394.97ZM3515.25-2395.05C3512.52-2395.05 3509.89-2393.67 3507.36-2390.92 3504.84-2388.16 3502.9-2384.43 3501.55-2379.73 3505.36-2379.76 3508.63-2380.1 3511.36-2380.76 3514.08-2381.43 3516.18-2382.48 3517.64-2383.93 3519.1-2385.37 3519.83-2387.32 3519.83-2389.78 3519.83-2391.43 3519.44-2392.72 3518.67-2393.65 3517.9-2394.58 3516.76-2395.05 3515.25-2395.05ZM3431.17-2395.05C3428.38-2395.05 3425.88-2393.93 3423.67-2391.69 3421.45-2389.44 3419.72-2386.44 3418.48-2382.67 3417.24-2378.9 3416.62-2375.14 3416.62-2371.38 3416.62-2368.57 3417-2366.47 3417.77-2365.08 3418.54-2363.69 3419.83-2362.99 3421.64-2362.99 3423.42-2362.99 3425.17-2363.76 3426.89-2365.3 3428.61-2366.84 3430.38-2369.04 3432.2-2371.89 3434.02-2374.74 3435.31-2378.03 3436.07-2381.76L3436.43-2383.5C3436.68-2384.61 3436.84-2385.57 3436.92-2386.38 3437-2387.19 3437.04-2388.07 3437.04-2389.01 3437.04-2391.09 3436.6-2392.62 3435.7-2393.59 3434.81-2394.56 3433.3-2395.05 3431.17-2395.05ZM3271.65-2398.21C3275.97-2398.21 3279.27-2397.03 3281.54-2394.67 3283.81-2392.3 3284.94-2388.92 3284.94-2384.51 3284.94-2381.38 3284.4-2378.03 3283.3-2374.46 3282.21-2370.9 3280.71-2367.9 3278.8-2365.47 3276.9-2363.03 3274.62-2361.2 3271.98-2359.97 3269.33-2358.74 3266.29-2358.13 3262.86-2358.13 3258.67-2358.13 3255.42-2359.3 3253.11-2361.66 3250.8-2364.01 3249.65-2367.38 3249.65-2371.79 3249.65-2373.95 3249.97-2376.45 3250.62-2379.28 3251.46-2383.12 3252.86-2386.47 3254.83-2389.34 3256.81-2392.2 3259.24-2394.39 3262.13-2395.92 3265.02-2397.45 3268.19-2398.21 3271.65-2398.21ZM3516.71-2398.25C3519.97-2398.25 3522.43-2397.59 3524.06-2396.27 3525.7-2394.94 3526.51-2392.88 3526.51-2390.07 3526.51-2385.47 3524.36-2382.03 3520.05-2379.73 3515.74-2377.43 3509.34-2376.29 3500.86-2376.29 3500.53-2374.66 3500.37-2372.91 3500.37-2371.02 3500.37-2368.18 3500.93-2366.12 3502.03-2364.84 3503.14-2363.55 3504.95-2362.91 3507.47-2362.91 3509.95-2362.91 3512.2-2363.45 3514.21-2364.53 3516.23-2365.61 3518.35-2367.28 3520.6-2369.52L3523.11-2366.88C3520.49-2363.99 3517.83-2361.82 3515.15-2360.36 3512.46-2358.9 3509.33-2358.17 3505.76-2358.17 3501.85-2358.17 3498.81-2359.37 3496.66-2361.76 3494.52-2364.15 3493.44-2367.48 3493.44-2371.75 3493.44-2374.64 3493.96-2377.74 3495-2381.05 3496.04-2384.36 3497.62-2387.33 3499.72-2389.96 3501.83-2392.6 3504.36-2394.64 3507.3-2396.08 3510.25-2397.53 3513.38-2398.25 3516.71-2398.25ZM3462.91-2398.25C3464.61-2398.25 3465.96-2397.69 3466.95-2396.57 3467.93-2395.45 3468.42-2393.98 3468.42-2392.17 3468.42-2390.82 3468.17-2389.43 3467.65-2388L3468.18-2387.8C3470.83-2391.39 3473.38-2394.02 3475.82-2395.7 3478.27-2397.37 3480.74-2398.21 3483.26-2398.21 3485.23-2398.21 3486.88-2398.06 3488.2-2397.77L3486.26-2388.69 3482.08-2388.69C3481.92-2389.82 3481.69-2390.7 3481.39-2391.32 3481.1-2391.94 3480.74-2392.38 3480.34-2392.62 3479.93-2392.86 3479.42-2392.98 3478.8-2392.98 3477.83-2392.98 3476.77-2392.56 3475.62-2391.73 3474.47-2390.89 3473.18-2389.58 3471.75-2387.8 3470.32-2386.01 3469.17-2384.3 3468.32-2382.65 3467.47-2381 3466.76-2378.91 3466.2-2376.37L3462.35-2358.82 3455.33-2358.82 3461.21-2384.51C3461.59-2386.13 3461.83-2387.39 3461.94-2388.28 3462.05-2389.17 3462.1-2389.92 3462.1-2390.51 3462.1-2391.59 3461.93-2392.38 3461.58-2392.86 3461.22-2393.35 3460.67-2393.59 3459.91-2393.59 3459.08-2393.59 3458.19-2393.25 3457.26-2392.56 3456.33-2391.87 3455.05-2390.62 3453.43-2388.81L3451.12-2391.08C3453.6-2393.67 3455.69-2395.52 3457.36-2396.61 3459.04-2397.7 3460.89-2398.25 3462.91-2398.25ZM3430.35-2398.25C3432.11-2398.25 3433.75-2398.06 3435.28-2397.66 3436.81-2397.27 3438.38-2396.58 3440-2395.58L3443.73-2398.25 3446.32-2397.6 3440.36-2371.91C3439.77-2369.34 3439.47-2367.34 3439.47-2365.91 3439.47-2364.83 3439.65-2364.05 3440-2363.56 3440.35-2363.07 3440.91-2362.83 3441.66-2362.83 3442.47-2362.83 3443.34-2363.16 3444.26-2363.82 3445.17-2364.49 3446.47-2365.75 3448.15-2367.61L3450.46-2365.34C3448.02-2362.75 3445.95-2360.91 3444.24-2359.81 3442.52-2358.72 3440.66-2358.17 3438.66-2358.17 3436.99-2358.17 3435.65-2358.72 3434.65-2359.83 3433.65-2360.94 3433.15-2362.41 3433.15-2364.25 3433.15-2365.74 3433.46-2367.32 3434.08-2368.99L3433.56-2369.15C3430.96-2365.37 3428.5-2362.6 3426.18-2360.84 3423.86-2359.09 3421.4-2358.21 3418.8-2358.21 3415.83-2358.21 3413.53-2359.33 3411.89-2361.57 3410.26-2363.82 3409.44-2366.96 3409.44-2371.02 3409.44-2375.66 3410.35-2380.13 3412.18-2384.41 3414-2388.69 3416.51-2392.07 3419.7-2394.54 3422.88-2397.02 3426.44-2398.25 3430.35-2398.25ZM3371.95-2398.25C3373.63-2398.25 3374.96-2397.7 3375.95-2396.59 3376.93-2395.48 3377.42-2394.01 3377.42-2392.17 3377.42-2390.66 3377.11-2389.07 3376.49-2387.39L3376.98-2387.23C3381.98-2394.55 3386.95-2398.21 3391.89-2398.21 3394.84-2398.21 3397.13-2397.09 3398.76-2394.85 3400.4-2392.6 3401.21-2389.44 3401.21-2385.36 3401.21-2380.91 3400.32-2376.52 3398.52-2372.21 3396.72-2367.9 3394.23-2364.49 3391.04-2361.96 3387.85-2359.43 3384.29-2358.17 3380.34-2358.17 3376.75-2358.17 3373.76-2358.95 3371.39-2360.52L3369.52-2351.65C3369.12-2349.73 3368.91-2348.15 3368.91-2346.9 3368.91-2345.71 3369.22-2344.87 3369.83-2344.37 3370.43-2343.87 3371.62-2343.54 3373.37-2343.38L3373.05-2341.39 3360.52-2341.39 3370.29-2384.39C3370.86-2386.88 3371.14-2388.92 3371.14-2390.51 3371.14-2391.59 3370.97-2392.38 3370.62-2392.86 3370.26-2393.35 3369.71-2393.59 3368.95-2393.59 3368.12-2393.59 3367.23-2393.25 3366.3-2392.56 3365.37-2391.87 3364.09-2390.62 3362.47-2388.81L3360.16-2391.08C3362.59-2393.62 3364.65-2395.45 3366.34-2396.57 3368.03-2397.69 3369.9-2398.25 3371.95-2398.25ZM3301.95-2398.25C3303.66-2398.25 3305-2397.69 3305.99-2396.57 3306.97-2395.45 3307.47-2393.98 3307.47-2392.17 3307.47-2390.69 3307.15-2389.11 3306.53-2387.43L3307.02-2387.27C3309.5-2390.97 3311.98-2393.72 3314.44-2395.52 3316.89-2397.31 3319.38-2398.21 3321.89-2398.21 3324.49-2398.21 3326.46-2397.47 3327.81-2396 3329.16-2394.53 3329.84-2392.4 3329.84-2389.62L3329.84-2389.05C3329.84-2388.86 3329.82-2388.66 3329.8-2388.44 3332.12-2391.74 3334.44-2394.19 3336.75-2395.8 3339.06-2397.41 3341.45-2398.21 3343.94-2398.21 3346.43-2398.21 3348.34-2397.5 3349.69-2396.06 3351.05-2394.63 3351.72-2392.62 3351.72-2390.02 3351.72-2388.32 3351.33-2385.9 3350.55-2382.77L3347.91-2372.15C3347.18-2369.21 3346.82-2367.13 3346.82-2365.91 3346.82-2364.83 3346.99-2364.05 3347.34-2363.56 3347.7-2363.07 3348.25-2362.83 3349.01-2362.83 3349.82-2362.83 3350.68-2363.16 3351.6-2363.82 3352.52-2364.49 3353.81-2365.75 3355.49-2367.61L3357.8-2365.34C3355.48-2362.88 3353.45-2361.07 3351.72-2359.91 3349.99-2358.75 3348.02-2358.17 3345.8-2358.17 3344.05-2358.17 3342.64-2358.8 3341.59-2360.05 3340.54-2361.31 3340.01-2362.91 3340.01-2364.86 3340.01-2366.61 3340.45-2369.19 3341.35-2372.6L3343.13-2379.61C3343.78-2382.15 3344.2-2384.03 3344.41-2385.24 3344.61-2386.46 3344.71-2387.44 3344.71-2388.2 3344.71-2390.07 3344.4-2391.41 3343.78-2392.23 3343.16-2393.06 3342.14-2393.47 3340.74-2393.47 3339.6-2393.47 3338.39-2393.04 3337.09-2392.19 3335.79-2391.34 3334.43-2390.02 3333-2388.22 3331.57-2386.42 3330.4-2384.65 3329.49-2382.91 3328.59-2381.17 3327.86-2379.04 3327.32-2376.53L3323.64-2358.82 3316.62-2358.82 3321.28-2379.41C3321.85-2381.92 3322.24-2383.78 3322.44-2384.98 3322.64-2386.18 3322.74-2387.21 3322.74-2388.08 3322.74-2390.02 3322.4-2391.41 3321.71-2392.23 3321.02-2393.06 3319.95-2393.47 3318.49-2393.47 3317.46-2393.47 3316.29-2393.04 3314.98-2392.19 3313.67-2391.34 3312.27-2389.98 3310.79-2388.1 3309.3-2386.22 3308.14-2384.42 3307.3-2382.69 3306.47-2380.96 3305.76-2378.85 3305.2-2376.37L3301.35-2358.82 3294.33-2358.82 3300.25-2384.51C3300.85-2387.11 3301.14-2389.11 3301.14-2390.51 3301.14-2391.59 3300.97-2392.38 3300.62-2392.86 3300.26-2393.35 3299.71-2393.59 3298.95-2393.59 3298.12-2393.59 3297.23-2393.25 3296.3-2392.56 3295.37-2391.87 3294.09-2390.62 3292.47-2388.81L3290.16-2391.08C3292.54-2393.56 3294.58-2395.38 3296.3-2396.53 3298.02-2397.68 3299.9-2398.25 3301.95-2398.25ZM3230.68-2414.79C3233.13-2414.79 3235.41-2414.64 3237.5-2414.34 3239.6-2414.04 3241.93-2413.5 3244.5-2412.72L3242.06-2401.74 3238.17-2401.74C3237.96-2405.06 3237.23-2407.46 3236.01-2408.93 3234.78-2410.4 3232.8-2411.14 3230.07-2411.14 3226.34-2411.14 3222.87-2409.28 3219.67-2405.55 3216.47-2401.82 3213.94-2396.89 3212.07-2390.77 3210.21-2384.65 3209.28-2378.97 3209.28-2373.73 3209.28-2369.63 3210.01-2366.6 3211.47-2364.65 3212.93-2362.71 3215.17-2361.74 3218.19-2361.74 3220.22-2361.74 3221.99-2362.04 3223.5-2362.65 3225.02-2363.26 3226.43-2364.28 3227.76-2365.73 3229.08-2367.17 3230.39-2369.19 3231.69-2371.79L3235.58-2371.79 3233.11-2360.28C3228.06-2358.87 3222.76-2358.17 3217.22-2358.17 3212.14-2358.17 3208.28-2359.63 3205.63-2362.55 3202.98-2365.47 3201.66-2369.73 3201.66-2375.35 3201.66-2379.33 3202.37-2383.91 3203.79-2389.09 3205.2-2394.28 3207.21-2398.83 3209.8-2402.75 3212.4-2406.67 3215.46-2409.65 3219-2411.71 3222.54-2413.76 3226.43-2414.79 3230.68-2414.79Z" fill-rule="evenodd"/><text fill="#000000" fill-opacity="0" font-family="Arial,Arial_MSFontService,sans-serif" font-size="73.395" x="3201.66" y="-2350.57">𝐶𝑜𝑚𝑝𝑎𝑟𝑒</text><path d="M404.5-2669.08 768.82-2669.08 768.82-2659.92 404.5-2659.92ZM764.237-2687.42 810.07-2664.5 764.237-2641.58Z"/><path d="M0-4.58333 303.025-4.58333 303.025 207.163 293.858 207.163 293.858 0 298.441 4.58333 0 4.58333ZM321.358 202.579 298.441 248.413 275.525 202.579Z" transform="matrix(1.83697e-16 1 1 -1.83697e-16 286.5 -2510.5)"/><path d="M0-4.58333 171.254-4.58333 171.254 302.135 162.087 302.135 162.087 0 166.67 4.58333 0 4.58333ZM189.587 297.552 166.67 343.385 143.754 297.552Z" transform="matrix(1 0 0 -1 752.5 -2212.11)"/><path d="M1179-2665.5C1179-2725.98 1228.02-2775 1288.5-2775 1348.98-2775 1398-2725.98 1398-2665.5 1398-2605.02 1348.98-2556 1288.5-2556 1228.02-2556 1179-2605.02 1179-2665.5Z" fill="#FDEFE8" fill-rule="evenodd"/><path d="M1271.87-2691.24 1311.22-2691.24 1308.34-2678.19 1303.15-2678.19C1303.02-2680.76 1302.77-2682.56 1302.42-2683.58 1302.07-2684.61 1301.53-2685.35 1300.8-2685.81 1300.07-2686.27 1299.05-2686.5 1297.72-2686.5L1287.55-2686.5 1283.25-2667.05 1288.89-2667.05C1289.97-2667.05 1290.88-2667.22 1291.62-2667.57 1292.37-2667.93 1293.05-2668.51 1293.69-2669.34 1294.32-2670.16 1294.95-2671.3 1295.57-2672.76L1300.03-2672.76 1296.14-2656.31 1291.97-2656.31C1291.97-2657.88 1291.87-2659.08 1291.68-2659.92 1291.49-2660.75 1291.14-2661.36 1290.63-2661.74 1290.12-2662.12 1289.24-2662.31 1288-2662.31L1282.24-2662.31 1277.46-2640.66 1286.58-2640.66C1287.77-2640.66 1288.69-2640.75 1289.35-2640.91 1290.02-2641.07 1290.62-2641.33 1291.18-2641.68 1291.73-2642.03 1292.37-2642.59 1293.1-2643.36 1293.83-2644.13 1294.55-2645.1 1295.27-2646.28 1295.99-2647.45 1296.72-2648.86 1297.48-2650.51L1302.99-2650.51 1299.26-2635.92 1260.72-2635.92 1261.29-2638.6C1262.83-2639.03 1263.96-2639.79 1264.69-2640.87 1265.42-2641.95 1266.11-2643.95 1266.76-2646.87L1274.14-2680.3C1274.49-2681.89 1274.66-2683.48 1274.66-2685.04 1274.66-2686.18 1274.4-2687.01 1273.87-2687.53 1273.35-2688.06 1272.49-2688.41 1271.3-2688.57Z" fill="#D74514" fill-rule="evenodd"/><text fill="#000000" fill-opacity="0" font-family="Arial,Arial_MSFontService,sans-serif" font-size="55.3198" x="1260.72" y="-2642.84">𝑬</text><path d="M1271.79-2414.14 1288-2414.14 1287.55-2412.15C1286.53-2411.94 1285.79-2411.69 1285.34-2411.42 1284.9-2411.15 1284.5-2410.75 1284.15-2410.21 1283.8-2409.67 1283.43-2408.82 1283.05-2407.67 1282.67-2406.53 1282.2-2404.66 1281.63-2402.06L1278.76-2389.13 1280.09-2389.13C1281.23-2389.13 1282.26-2389.32 1283.2-2389.7 1284.13-2390.08 1285.21-2390.77 1286.46-2391.77 1287.7-2392.77 1289.68-2394.6 1292.39-2397.28 1295.11-2399.95 1297.04-2401.99 1298.19-2403.38 1299.34-2404.77 1300.18-2405.97 1300.7-2406.99 1301.23-2408 1301.49-2408.92 1301.49-2409.76 1301.49-2410.44 1301.22-2410.98 1300.68-2411.4 1300.14-2411.82 1299.37-2412.07 1298.37-2412.15L1298.82-2414.14 1316.2-2414.14 1315.76-2412.15C1314.68-2411.99 1313.46-2411.43 1312.09-2410.47 1310.73-2409.51 1308.64-2407.64 1305.83-2404.86L1290.1-2389.54 1298.74-2368.79C1299.63-2366.65 1300.37-2365.11 1300.95-2364.17 1301.53-2363.22 1302.22-2362.47 1303.03-2361.92 1303.84-2361.36 1304.84-2360.99 1306.03-2360.8L1305.59-2358.82 1289.94-2358.82 1290.39-2360.8C1291.85-2360.94 1292.58-2361.59 1292.58-2362.75 1292.58-2363.48 1292.43-2364.31 1292.13-2365.24 1291.83-2366.17 1291.48-2367.14 1291.08-2368.14L1285.81-2381.03C1285.19-2382.57 1284.65-2383.65 1284.19-2384.27 1283.73-2384.89 1283.24-2385.32 1282.73-2385.57 1282.22-2385.81 1281.42-2385.93 1280.34-2385.93L1278.07-2385.93 1274.7-2370.61C1274.35-2368.99 1274.12-2367.71 1274.02-2366.78 1273.91-2365.85 1273.85-2365.02 1273.85-2364.29 1273.85-2363.07 1274.16-2362.22 1274.77-2361.72 1275.37-2361.22 1276.39-2360.91 1277.83-2360.8L1277.38-2358.82 1261.17-2358.82 1261.61-2360.8C1262.64-2360.97 1263.41-2361.23 1263.92-2361.59 1264.44-2361.96 1264.87-2362.47 1265.22-2363.11 1265.57-2363.76 1265.9-2364.55 1266.19-2365.49 1266.49-2366.42 1266.94-2368.22 1267.53-2370.9L1274.42-2402.1C1275.02-2404.8 1275.31-2406.98 1275.31-2408.63 1275.31-2409.9 1274.99-2410.78 1274.36-2411.28 1273.73-2411.78 1272.72-2412.07 1271.34-2412.15Z" fill-rule="evenodd"/><text fill="#000000" fill-opacity="0" font-family="Arial,Arial_MSFontService,sans-serif" font-size="55.3198" x="1261.17" y="-2365.73">𝐾</text><path d="M1284.7-2454.61 1284.24-2514.22 1293.4-2514.29 1293.86-2454.68ZM1265.94-2509.49 1288.5-2555.5 1311.77-2509.85Z"/><path d="M1028.5-2669.08 1138.42-2669.08 1138.42-2659.92 1028.5-2659.92ZM1133.84-2687.42 1179.67-2664.5 1133.84-2641.58Z"/><path d="M0.0099648-4.58332 220.199-4.1046 220.179 5.06204-0.0099648 4.58332ZM215.655-22.4479 261.439 0.568406 215.556 23.3854Z" transform="matrix(1 0 0 -1 1398.5 -2664.93)"/><path d="M3097.5-2669.08 3369.76-2669.08 3369.76-2495.65 3360.6-2495.65 3360.6-2664.5 3365.18-2659.92 3097.5-2659.92ZM3388.1-2500.24 3365.18-2454.4 3342.26-2500.24Z"/><path d="M2707.5-2514.08 2826.62-2514.08 2826.62-2239.48 2822.04-2244.07 3364.88-2244.07 3360.3-2239.48 3360.3-2280.74 3369.46-2280.74 3369.46-2234.9 2817.46-2234.9 2817.46-2509.5 2822.04-2504.92 2707.5-2504.92ZM3341.96-2276.15 3364.88-2321.99 3387.8-2276.15Z"/><rect x="1659" y="-2895" width="237" height="458" fill="#D74514"/><path d="M2065-2666C2065-2726.2 2113.8-2775 2174-2775 2234.2-2775 2283-2726.2 2283-2666 2283-2605.8 2234.2-2557 2174-2557 2113.8-2557 2065-2605.8 2065-2666Z" fill="#FDEFE8" fill-rule="evenodd"/><path d="M2171.9-2687.11C2170.55-2687.11 2169.51-2687.08 2168.78-2687.03L2158.77-2641.48C2160.01-2641.37 2161.01-2641.31 2161.76-2641.31 2165.25-2641.31 2168.26-2642 2170.78-2643.38 2173.31-2644.76 2175.55-2646.86 2177.51-2649.68 2179.47-2652.51 2181.01-2655.95 2182.13-2660.02 2183.25-2664.08 2183.81-2668.17 2183.81-2672.28 2183.81-2675.06 2183.5-2677.4 2182.88-2679.29 2182.26-2681.18 2181.4-2682.71 2180.31-2683.87 2179.21-2685.03 2177.94-2685.86 2176.5-2686.36 2175.05-2686.86 2173.52-2687.11 2171.9-2687.11ZM2153.13-2691.85 2169.55-2691.85C2174-2691.85 2177.57-2691.61 2180.24-2691.12 2182.68-2690.69 2184.9-2689.95 2186.91-2688.89 2188.92-2687.84 2190.51-2686.68 2191.67-2685.41 2193.16-2683.84 2194.33-2681.88 2195.18-2679.51 2196.03-2677.15 2196.46-2674.37 2196.46-2671.18 2196.46-2667.59 2196.05-2664.14 2195.24-2660.85 2194.43-2657.55 2193.23-2654.51 2191.65-2651.71 2190.07-2648.91 2188.18-2646.51 2185.98-2644.5 2183.78-2642.48 2181.57-2640.92 2179.35-2639.79 2177.14-2638.67 2174.64-2637.85 2171.86-2637.32 2169.07-2636.8 2165.78-2636.53 2161.97-2636.53L2141.99-2636.53 2142.55-2639.21C2144.09-2639.64 2145.23-2640.4 2145.96-2641.48 2146.69-2642.56 2147.38-2644.56 2148.03-2647.47L2155.4-2680.91C2155.75-2682.5 2155.93-2684.08 2155.93-2685.65 2155.93-2686.79 2155.67-2687.62 2155.14-2688.14 2154.61-2688.67 2153.75-2689.02 2152.56-2689.18Z" fill="#D74514" fill-rule="evenodd"/><text fill="#000000" fill-opacity="0" font-family="Arial,Arial_MSFontService,sans-serif" font-size="55.3198" x="2141.99" y="-2643.45">𝑫</text><path d="M2156.28-2421.26 2172.49-2421.26 2172.05-2419.27C2171.02-2419.06 2170.29-2418.81 2169.84-2418.54 2169.39-2418.27 2169-2417.87 2168.64-2417.33 2168.29-2416.79 2167.93-2415.94 2167.55-2414.79 2167.17-2413.65 2166.7-2411.77 2166.13-2409.18L2163.25-2396.25 2164.59-2396.25C2165.73-2396.25 2166.76-2396.44 2167.69-2396.82 2168.62-2397.2 2169.71-2397.89 2170.95-2398.89 2172.2-2399.89 2174.18-2401.72 2176.89-2404.4 2179.61-2407.07 2181.54-2409.11 2182.69-2410.5 2183.84-2411.89 2184.67-2413.09 2185.2-2414.11 2185.73-2415.12 2185.99-2416.04 2185.99-2416.88 2185.99-2417.56 2185.72-2418.1 2185.18-2418.52 2184.64-2418.94 2183.87-2419.19 2182.87-2419.27L2183.32-2421.26 2200.7-2421.26 2200.26-2419.27C2199.17-2419.11 2197.95-2418.55 2196.59-2417.59 2195.22-2416.63 2193.14-2414.76 2190.33-2411.98L2174.6-2396.66 2183.23-2375.91C2184.13-2373.77 2184.86-2372.23 2185.44-2371.29 2186.02-2370.34 2186.72-2369.59 2187.53-2369.04 2188.34-2368.48 2189.34-2368.11 2190.53-2367.92L2190.08-2365.94 2174.44-2365.94 2174.89-2367.92C2176.34-2368.06 2177.07-2368.71 2177.07-2369.87 2177.07-2370.6 2176.93-2371.43 2176.63-2372.36 2176.33-2373.29 2175.98-2374.26 2175.57-2375.26L2170.31-2388.15C2169.68-2389.69 2169.14-2390.77 2168.68-2391.39 2168.23-2392.01 2167.74-2392.44 2167.23-2392.69 2166.71-2392.93 2165.92-2393.05 2164.83-2393.05L2162.57-2393.05 2159.2-2377.73C2158.85-2376.11 2158.62-2374.83 2158.51-2373.9 2158.4-2372.97 2158.35-2372.14 2158.35-2371.41 2158.35-2370.19 2158.65-2369.34 2159.26-2368.84 2159.87-2368.34 2160.89-2368.03 2162.32-2367.92L2161.88-2365.94 2145.67-2365.94 2146.11-2367.92C2147.14-2368.09 2147.91-2368.35 2148.42-2368.71 2148.93-2369.08 2149.37-2369.59 2149.72-2370.23 2150.07-2370.88 2150.39-2371.67 2150.69-2372.61 2150.99-2373.54 2151.43-2375.34 2152.03-2378.02L2158.92-2409.22C2159.51-2411.92 2159.81-2414.1 2159.81-2415.75 2159.81-2417.02 2159.49-2417.9 2158.86-2418.4 2158.22-2418.9 2157.22-2419.19 2155.84-2419.27Z" fill-rule="evenodd"/><text fill="#000000" fill-opacity="0" font-family="Arial,Arial_MSFontService,sans-serif" font-size="55.3198" x="2145.67" y="-2372.85">𝐾</text><path d="M4.58333-1.75325e-05 4.58354 53.0941-4.58313 53.0941-4.58333 1.75325e-05ZM22.9169 48.5107 0.000360892 94.3441-22.9165 48.5109Z" transform="matrix(1 0 0 -1 2174.5 -2462.16)"/><path d="M0.00111074-4.58333 127.028-4.55255 127.026 4.61412-0.00111074 4.58333ZM122.449-22.887 168.277 0.0407808 122.438 22.9463Z" transform="matrix(1 0 0 -1 1896.5 -2665.46)"/><path d="M2283.5-2670.08 2428.96-2670.08 2428.96-2660.92 2283.5-2660.92ZM2424.37-2688.42 2470.21-2665.5 2424.37-2642.58Z"/><path d="M1490.33-2292.96 1527.61-2292.96 1524.82-2280.51 1520.93-2280.51C1520.82-2282.86 1520.61-2284.63 1520.32-2285.82 1520.02-2287.01 1519.66-2287.83 1519.24-2288.27 1518.82-2288.72 1518.33-2289.02 1517.74-2289.17 1517.16-2289.31 1516.33-2289.39 1515.25-2289.39L1502.04-2289.39 1497.42-2268.15 1505.16-2268.15C1507.08-2268.15 1508.54-2268.61 1509.56-2269.51 1510.57-2270.42 1511.59-2271.91 1512.62-2273.99L1516.31-2273.99 1512.66-2258.43 1509.21-2258.43C1509.21-2260.59 1509.08-2262.05 1508.81-2262.82 1508.54-2263.59 1508.14-2264.08 1507.61-2264.28 1507.09-2264.49 1506.13-2264.59 1504.76-2264.59L1496.65-2264.59 1491.46-2241.2 1503.46-2241.2C1505.05-2241.2 1506.32-2241.36 1507.25-2241.69 1508.18-2242.01 1509.06-2242.54 1509.88-2243.27 1510.71-2244 1511.53-2245.02 1512.35-2246.33 1513.18-2247.64 1514.16-2249.42 1515.29-2251.66L1519.22-2251.66 1515.66-2237.64 1479.71-2237.64 1480.16-2239.62C1481.18-2239.78 1481.95-2240.05 1482.47-2240.41 1482.98-2240.78 1483.41-2241.28 1483.76-2241.93 1484.11-2242.58 1484.44-2243.37 1484.73-2244.3 1485.03-2245.23 1485.48-2247.04 1486.07-2249.71L1492.96-2280.92C1493.56-2283.62 1493.85-2285.8 1493.85-2287.44 1493.85-2288.71 1493.54-2289.6 1492.9-2290.1 1492.27-2290.6 1491.26-2290.89 1489.88-2290.97Z" fill="#D74514" fill-rule="evenodd"/><text fill="#000000" fill-opacity="0" font-family="Arial,Arial_MSFontService,sans-serif" font-size="55.3198" x="1479.71" y="-2244.55">𝐸</text><path d="M1533.86-2259.42 1546.43-2259.42 1546.1-2257.64C1545.65-2257.52 1545.26-2257.42 1544.94-2257.34 1544.62-2257.26 1544.34-2257.14 1544.09-2256.98 1543.84-2256.82 1543.63-2256.61 1543.45-2256.34 1543.27-2256.07 1543.1-2255.71 1542.93-2255.24 1542.76-2254.77 1542.58-2254.19 1542.4-2253.48 1542.21-2252.78 1541.99-2251.91 1541.75-2250.88L1539.82-2242.12 1540.65-2242.12C1541.11-2242.12 1541.53-2242.15 1541.9-2242.21 1542.28-2242.27 1542.65-2242.37 1543.02-2242.52 1543.39-2242.67 1543.77-2242.87 1544.15-2243.13 1544.54-2243.39 1544.98-2243.72 1545.48-2244.11 1547.54-2245.72 1549.27-2247.16 1550.66-2248.43 1552.05-2249.7 1553.18-2250.83 1554.04-2251.8 1554.9-2252.77 1555.52-2253.6 1555.89-2254.29 1556.26-2254.97 1556.44-2255.54 1556.44-2256 1556.44-2256.47 1556.25-2256.85 1555.87-2257.11 1555.5-2257.38 1554.88-2257.53 1554.03-2257.55L1554.35-2259.42 1567.91-2259.42 1567.49-2257.55C1567.03-2257.51 1566.6-2257.42 1566.19-2257.28 1565.79-2257.14 1565.31-2256.89 1564.78-2256.52 1564.24-2256.15 1563.6-2255.65 1562.86-2255 1562.11-2254.35 1561.17-2253.52 1560.04-2252.48L1548.43-2242 1555.16-2228C1555.67-2226.91 1556.12-2226.04 1556.5-2225.41 1556.88-2224.77 1557.26-2224.27 1557.66-2223.89 1558.06-2223.51 1558.51-2223.24 1559.02-2223.07 1559.52-2222.9 1560.15-2222.75 1560.91-2222.61L1560.43-2220.79 1548.16-2220.79 1548.58-2222.61C1549.13-2222.65 1549.55-2222.77 1549.83-2222.98 1550.1-2223.19 1550.24-2223.45 1550.24-2223.77 1550.22-2223.99 1550.19-2224.22 1550.15-2224.46 1550.11-2224.69 1550.04-2224.96 1549.95-2225.24 1549.85-2225.53 1549.72-2225.87 1549.56-2226.26 1549.4-2226.64 1549.2-2227.11 1548.96-2227.64L1544.97-2236.16C1544.63-2236.92 1544.33-2237.51 1544.06-2237.95 1543.8-2238.39 1543.52-2238.72 1543.23-2238.96 1542.94-2239.2 1542.61-2239.35 1542.25-2239.42 1541.88-2239.49 1541.42-2239.53 1540.86-2239.53L1539.22-2239.53C1539.06-2238.71 1538.88-2237.84 1538.66-2236.91 1538.44-2235.97 1538.22-2235.02 1538-2234.06 1537.78-2233.1 1537.57-2232.15 1537.38-2231.22 1537.18-2230.28 1537-2229.41 1536.84-2228.61 1536.68-2227.81 1536.55-2227.09 1536.45-2226.47 1536.35-2225.84 1536.3-2225.36 1536.3-2225.02 1536.3-2224.19 1536.55-2223.6 1537.03-2223.25 1537.52-2222.9 1538.35-2222.69 1539.52-2222.61L1539.04-2220.79 1526.5-2220.79 1526.83-2222.61C1527.45-2222.71 1527.95-2222.82 1528.34-2222.95 1528.72-2223.08 1529.07-2223.36 1529.38-2223.79 1529.69-2224.21 1529.97-2224.85 1530.23-2225.71 1530.49-2226.56 1530.78-2227.77 1531.12-2229.34L1536.01-2251.05C1536.2-2251.93 1536.35-2252.7 1536.45-2253.38 1536.55-2254.05 1536.6-2254.63 1536.6-2255.1 1536.6-2255.98 1536.37-2256.6 1535.92-2256.97 1535.46-2257.33 1534.63-2257.53 1533.41-2257.55Z" fill="#D74514" fill-rule="evenodd"/><text fill="#000000" fill-opacity="0" font-family="Arial,Arial_MSFontService,sans-serif" font-size="38.6313" x="1526.5" y="-2225.62">𝐾</text><path d="M1982.48-2299.96 2000.56-2299.96 2000.56-2222.67 1982.48-2222.67 1982.48-2225.79 1993.83-2225.79 1993.83-2296.84 1982.48-2296.84ZM1582.55-2299.96 1600.62-2299.96 1600.62-2296.84 1589.27-2296.84 1589.27-2225.79 1600.62-2225.79 1600.62-2222.67 1582.55-2222.67Z" fill="#D74514" fill-rule="evenodd"/><path d="M1615.03-2292.96 1629.5-2292.96 1634.12-2253.64 1657.74-2292.96 1670.51-2292.96 1670.06-2290.97C1669.04-2290.75 1668.3-2290.51 1667.86-2290.24 1667.41-2289.97 1667-2289.56 1666.64-2289.02 1666.27-2288.48 1665.91-2287.64 1665.55-2286.49 1665.18-2285.34 1664.71-2283.47 1664.15-2280.88L1657.22-2249.43C1656.87-2247.84 1656.64-2246.57 1656.53-2245.64 1656.42-2244.71 1656.37-2243.86 1656.37-2243.11 1656.37-2241.89 1656.67-2241.03 1657.28-2240.53 1657.89-2240.03 1658.91-2239.73 1660.34-2239.62L1659.89-2237.64 1643.68-2237.64 1644.13-2239.62C1645.15-2239.78 1645.92-2240.05 1646.44-2240.41 1646.95-2240.78 1647.38-2241.28 1647.73-2241.93 1648.08-2242.58 1648.41-2243.37 1648.71-2244.3 1649-2245.23 1649.45-2247.04 1650.04-2249.71L1655.43-2274.15C1656.19-2277.53 1657.05-2280.89 1658.03-2284.24L1657.46-2284.24C1656.62-2282.65 1654.73-2279.41 1651.79-2274.52L1633.35-2244.08 1628.93-2244.08 1625.56-2270.14C1625.08-2273.81 1624.54-2278.76 1623.94-2284.97L1623.13-2284.97C1622.21-2278.92 1621.19-2273.31 1620.05-2268.15L1615.92-2249.43C1615.35-2246.86 1615.07-2244.76 1615.07-2243.11 1615.07-2241.89 1615.37-2241.03 1615.98-2240.53 1616.59-2240.03 1617.61-2239.73 1619.04-2239.62L1618.59-2237.64 1604.41-2237.64 1604.86-2239.62C1605.88-2239.78 1606.65-2240.05 1607.17-2240.41 1607.68-2240.78 1608.11-2241.28 1608.46-2241.93 1608.81-2242.58 1609.14-2243.37 1609.43-2244.3 1609.73-2245.23 1610.18-2247.04 1610.77-2249.71L1617.66-2280.92C1617.93-2282.08 1618.15-2283.19 1618.31-2284.24 1618.47-2285.3 1618.55-2286.36 1618.55-2287.44 1618.55-2288.71 1618.24-2289.6 1617.6-2290.1 1616.97-2290.6 1615.96-2290.89 1614.58-2290.97Z" fill="#D74514" fill-rule="evenodd"/><text fill="#000000" fill-opacity="0" font-family="Arial,Arial_MSFontService,sans-serif" font-size="55.3198" x="1604.41" y="-2244.55">𝑀</text><path d="M1739.1-2292.96 1745.42-2292.96 1745.42-2229.53 1739.1-2229.53ZM1724.91-2292.96 1731.24-2292.96 1731.24-2229.53 1724.91-2229.53Z" fill="#D74514" fill-rule="evenodd"/><text fill="#000000" fill-opacity="0" font-family="Arial,Arial_MSFontService,sans-serif" font-size="63.4253" x="1724.91" y="-2237.46">∥</text><path d="M1790.15-2292.96 1806.36-2292.96 1805.91-2290.97C1804.88-2290.75 1804.15-2290.51 1803.7-2290.24 1803.26-2289.97 1802.86-2289.56 1802.51-2289.02 1802.16-2288.48 1801.79-2287.64 1801.41-2286.49 1801.03-2285.34 1800.56-2283.47 1799.99-2280.88L1797.24-2268.48 1819-2268.48 1821.76-2280.92C1822-2282.03 1822.21-2283.21 1822.39-2284.47 1822.56-2285.72 1822.65-2286.71 1822.65-2287.44 1822.65-2288.71 1822.33-2289.6 1821.7-2290.1 1821.06-2290.6 1820.06-2290.89 1818.68-2290.97L1819.12-2292.96 1835.33-2292.96 1834.89-2290.97C1833.86-2290.75 1833.13-2290.51 1832.68-2290.24 1832.23-2289.97 1831.84-2289.56 1831.48-2289.02 1831.13-2288.48 1830.77-2287.64 1830.39-2286.49 1830.01-2285.34 1829.54-2283.47 1828.97-2280.88L1822.04-2249.43C1821.69-2247.84 1821.46-2246.57 1821.35-2245.64 1821.24-2244.71 1821.19-2243.86 1821.19-2243.11 1821.19-2241.89 1821.49-2241.03 1822.1-2240.53 1822.71-2240.03 1823.73-2239.73 1825.16-2239.62L1824.72-2237.64 1808.51-2237.64 1808.95-2239.62C1809.98-2239.78 1810.75-2240.05 1811.26-2240.41 1811.77-2240.78 1812.21-2241.28 1812.56-2241.93 1812.91-2242.58 1813.23-2243.37 1813.53-2244.3 1813.83-2245.23 1814.27-2247.04 1814.87-2249.71L1818.19-2264.75 1796.43-2264.75 1793.06-2249.43C1792.77-2248.08 1792.55-2246.96 1792.42-2246.09 1792.28-2245.21 1792.21-2244.21 1792.21-2243.11 1792.21-2241.95 1792.48-2241.11 1793.02-2240.59 1793.56-2240.08 1794.62-2239.76 1796.18-2239.62L1795.74-2237.64 1779.53-2237.64 1779.97-2239.62C1781-2239.78 1781.77-2240.05 1782.28-2240.41 1782.8-2240.78 1783.23-2241.28 1783.58-2241.93 1783.93-2242.58 1784.26-2243.37 1784.55-2244.3 1784.85-2245.23 1785.3-2247.04 1785.89-2249.71L1792.78-2280.92C1793.02-2282.03 1793.23-2283.21 1793.41-2284.47 1793.58-2285.72 1793.67-2286.71 1793.67-2287.44 1793.67-2288.71 1793.35-2289.6 1792.72-2290.1 1792.08-2290.6 1791.08-2290.89 1789.7-2290.97Z" fill="#D74514" fill-rule="evenodd"/><text fill="#000000" fill-opacity="0" font-family="Arial,Arial_MSFontService,sans-serif" font-size="55.3198" x="1779.53" y="-2244.55">𝐻</text><path d="M1949.14-2299.75C1957.03-2297.67 1963.09-2293.18 1967.31-2286.27 1971.54-2279.37 1973.66-2271.04 1973.66-2261.29 1973.66-2251.51 1971.55-2243.18 1967.33-2236.3 1963.12-2229.43 1957.05-2224.95 1949.14-2222.87L1948.17-2225.99C1954.41-2228.07 1959.05-2232.18 1962.09-2238.31 1965.13-2244.44 1966.65-2252.24 1966.65-2261.69 1966.65-2270.83 1965.13-2278.41 1962.11-2284.45 1959.08-2290.49 1954.39-2294.55 1948.04-2296.63ZM1871.59-2299.75 1872.69-2296.63C1866.37-2294.55 1861.69-2290.49 1858.65-2284.45 1855.61-2278.41 1854.09-2270.83 1854.09-2261.69 1854.09-2252.24 1855.61-2244.44 1858.65-2238.31 1861.69-2232.18 1866.33-2228.07 1872.57-2225.99L1871.59-2222.87C1863.68-2224.95 1857.61-2229.43 1853.4-2236.3 1849.18-2243.18 1847.08-2251.51 1847.08-2261.29 1847.08-2271.04 1849.19-2279.37 1853.42-2286.27 1857.65-2293.18 1863.71-2297.67 1871.59-2299.75Z" fill="#D74514" fill-rule="evenodd"/><path d="M1886.87-2292.96 1901.33-2292.96 1905.95-2253.64 1929.58-2292.96 1942.35-2292.96 1941.9-2290.97C1940.87-2290.75 1940.14-2290.51 1939.69-2290.24 1939.25-2289.97 1938.84-2289.56 1938.48-2289.02 1938.11-2288.48 1937.75-2287.64 1937.38-2286.49 1937.02-2285.34 1936.55-2283.47 1935.98-2280.88L1929.05-2249.43C1928.7-2247.84 1928.47-2246.57 1928.37-2245.64 1928.26-2244.71 1928.2-2243.86 1928.2-2243.11 1928.2-2241.89 1928.51-2241.03 1929.11-2240.53 1929.72-2240.03 1930.74-2239.73 1932.17-2239.62L1931.73-2237.64 1915.52-2237.64 1915.96-2239.62C1916.99-2239.78 1917.76-2240.05 1918.27-2240.41 1918.79-2240.78 1919.22-2241.28 1919.57-2241.93 1919.92-2242.58 1920.25-2243.37 1920.54-2244.3 1920.84-2245.23 1921.29-2247.04 1921.88-2249.71L1927.27-2274.15C1928.03-2277.53 1928.89-2280.89 1929.86-2284.24L1929.3-2284.24C1928.46-2282.65 1926.57-2279.41 1923.62-2274.52L1905.18-2244.08 1900.77-2244.08 1897.4-2270.14C1896.92-2273.81 1896.38-2278.76 1895.78-2284.97L1894.97-2284.97C1894.05-2278.92 1893.03-2273.31 1891.89-2268.15L1887.76-2249.43C1887.19-2246.86 1886.91-2244.76 1886.91-2243.11 1886.91-2241.89 1887.21-2241.03 1887.82-2240.53 1888.43-2240.03 1889.45-2239.73 1890.88-2239.62L1890.43-2237.64 1876.25-2237.64 1876.69-2239.62C1877.72-2239.78 1878.49-2240.05 1879-2240.41 1879.52-2240.78 1879.95-2241.28 1880.3-2241.93 1880.65-2242.58 1880.98-2243.37 1881.27-2244.3 1881.57-2245.23 1882.02-2247.04 1882.61-2249.71L1889.5-2280.92C1889.77-2282.08 1889.99-2283.19 1890.15-2284.24 1890.31-2285.3 1890.39-2286.36 1890.39-2287.44 1890.39-2288.71 1890.07-2289.6 1889.44-2290.1 1888.8-2290.6 1887.8-2290.89 1886.42-2290.97Z" fill="#D74514" fill-rule="evenodd"/><text fill="#000000" fill-opacity="0" font-family="Arial,Arial_MSFontService,sans-serif" font-size="55.3198" x="1876.25" y="-2244.55">𝑀</text><path d="M2707.5-2669.08 2837.68-2669.08 2837.68-2659.92 2707.5-2659.92ZM2833.1-2687.42 2878.93-2664.5 2833.1-2641.58Z"/><path d="M2496.84-2393.39 2513.05-2393.39 2512.61-2391.4C2511.58-2391.19 2510.84-2390.95 2510.4-2390.68 2509.95-2390.4 2509.55-2390 2509.2-2389.46 2508.85-2388.92 2508.49-2388.07 2508.11-2386.93 2507.73-2385.78 2507.26-2383.91 2506.69-2381.31L2503.94-2368.91 2525.7-2368.91 2528.45-2381.35C2528.7-2382.46 2528.91-2383.64 2529.08-2384.9 2529.26-2386.16 2529.35-2387.15 2529.35-2387.88 2529.35-2389.15 2529.03-2390.03 2528.39-2390.53 2527.76-2391.03 2526.75-2391.32 2525.37-2391.4L2525.82-2393.39 2542.03-2393.39 2541.58-2391.4C2540.56-2391.19 2539.82-2390.95 2539.38-2390.68 2538.93-2390.4 2538.53-2390 2538.18-2389.46 2537.83-2388.92 2537.46-2388.07 2537.09-2386.93 2536.71-2385.78 2536.24-2383.91 2535.67-2381.31L2528.74-2349.86C2528.39-2348.27 2528.16-2347.01 2528.05-2346.07 2527.94-2345.14 2527.89-2344.3 2527.89-2343.54 2527.89-2342.33 2528.19-2341.47 2528.8-2340.97 2529.41-2340.47 2530.43-2340.16 2531.86-2340.06L2531.41-2338.07 2515.2-2338.07 2515.65-2340.06C2516.67-2340.22 2517.44-2340.48 2517.96-2340.85 2518.47-2341.21 2518.9-2341.72 2519.25-2342.37 2519.61-2343.01 2519.93-2343.81 2520.23-2344.74 2520.52-2345.67 2520.97-2347.47 2521.56-2350.15L2524.89-2365.18 2503.12-2365.18 2499.76-2349.86C2499.46-2348.51 2499.25-2347.4 2499.11-2346.52 2498.98-2345.64 2498.91-2344.65 2498.91-2343.54 2498.91-2342.38 2499.18-2341.54 2499.72-2341.03 2500.26-2340.52 2501.31-2340.19 2502.88-2340.06L2502.44-2338.07 2486.22-2338.07 2486.67-2340.06C2487.7-2340.22 2488.47-2340.48 2488.98-2340.85 2489.49-2341.21 2489.93-2341.72 2490.28-2342.37 2490.63-2343.01 2490.95-2343.81 2491.25-2344.74 2491.55-2345.67 2491.99-2347.47 2492.59-2350.15L2499.48-2381.35C2499.72-2382.46 2499.93-2383.64 2500.11-2384.9 2500.28-2386.16 2500.37-2387.15 2500.37-2387.88 2500.37-2389.15 2500.05-2390.03 2499.42-2390.53 2498.78-2391.03 2497.77-2391.32 2496.4-2391.4Z" fill-rule="evenodd"/><text fill="#000000" fill-opacity="0" font-family="Arial,Arial_MSFontService,sans-serif" font-size="55.3198" x="2486.22" y="-2344.99">𝐻</text><path d="M2655.83-2400.18C2663.72-2398.1 2669.78-2393.61 2674.01-2386.71 2678.24-2379.81 2680.35-2371.48 2680.35-2361.72 2680.35-2351.94 2678.25-2343.62 2674.03-2336.74 2669.82-2329.86 2663.75-2325.38 2655.83-2323.3L2654.86-2326.43C2661.1-2328.51 2665.74-2332.61 2668.78-2338.75 2671.82-2344.88 2673.34-2352.67 2673.34-2362.13 2673.34-2371.26 2671.83-2378.85 2668.8-2384.89 2665.78-2390.92 2661.09-2394.98 2654.74-2397.06ZM2578.29-2400.18 2579.39-2397.06C2573.06-2394.98 2568.38-2390.92 2565.34-2384.89 2562.3-2378.85 2560.78-2371.26 2560.78-2362.13 2560.78-2352.67 2562.3-2344.88 2565.34-2338.75 2568.38-2332.61 2573.02-2328.51 2579.26-2326.43L2578.29-2323.3C2570.37-2325.38 2564.31-2329.86 2560.09-2336.74 2555.88-2343.62 2553.77-2351.94 2553.77-2361.72 2553.77-2371.48 2555.89-2379.81 2560.11-2386.71 2564.34-2393.61 2570.4-2398.1 2578.29-2400.18Z" fill-rule="evenodd"/><path d="M2593.56-2393.39 2608.03-2393.39 2612.65-2354.08 2636.28-2393.39 2649.04-2393.39 2648.6-2391.4C2647.57-2391.19 2646.83-2390.95 2646.39-2390.68 2645.94-2390.4 2645.54-2390 2645.17-2389.46 2644.81-2388.92 2644.44-2388.07 2644.08-2386.93 2643.71-2385.78 2643.25-2383.91 2642.68-2381.31L2635.75-2349.86C2635.4-2348.27 2635.17-2347.01 2635.06-2346.07 2634.95-2345.14 2634.9-2344.3 2634.9-2343.54 2634.9-2342.33 2635.2-2341.47 2635.81-2340.97 2636.42-2340.47 2637.44-2340.16 2638.87-2340.06L2638.43-2338.07 2622.21-2338.07 2622.66-2340.06C2623.69-2340.22 2624.46-2340.48 2624.97-2340.85 2625.48-2341.21 2625.92-2341.72 2626.27-2342.37 2626.62-2343.01 2626.94-2343.81 2627.24-2344.74 2627.54-2345.67 2627.98-2347.47 2628.58-2350.15L2633.97-2374.59C2634.72-2377.96 2635.59-2381.33 2636.56-2384.68L2635.99-2384.68C2635.16-2383.08 2633.27-2379.84 2630.32-2374.95L2611.88-2344.51 2607.46-2344.51 2604.1-2370.57C2603.61-2374.25 2603.07-2379.19 2602.48-2385.41L2601.67-2385.41C2600.75-2379.35 2599.72-2373.75 2598.59-2368.59L2594.45-2349.86C2593.89-2347.3 2593.6-2345.19 2593.6-2343.54 2593.6-2342.33 2593.91-2341.47 2594.51-2340.97 2595.12-2340.47 2596.14-2340.16 2597.57-2340.06L2597.13-2338.07 2582.94-2338.07 2583.39-2340.06C2584.42-2340.22 2585.19-2340.48 2585.7-2340.85 2586.21-2341.21 2586.65-2341.72 2587-2342.37 2587.35-2343.01 2587.67-2343.81 2587.97-2344.74 2588.27-2345.67 2588.71-2347.47 2589.31-2350.15L2596.2-2381.35C2596.47-2382.52 2596.68-2383.62 2596.84-2384.68 2597.01-2385.73 2597.09-2386.8 2597.09-2387.88 2597.09-2389.15 2596.77-2390.03 2596.14-2390.53 2595.5-2391.03 2594.49-2391.32 2593.12-2391.4Z" fill-rule="evenodd"/><text fill="#000000" fill-opacity="0" font-family="Arial,Arial_MSFontService,sans-serif" font-size="55.3198" x="2582.94" y="-2344.99">𝑀</text></g></svg>