<svg xmlns="http://www.w3.org/2000/svg" width="1595" height="1280" overflow="hidden"><defs><clipPath id="a"><path d="M713 154h1595v1280H713z"/></clipPath></defs><g clip-path="url(#a)" transform="translate(-713 -154)"><path fill-rule="evenodd" d="M1090.33 230.591h2.35l-7.95 35.381h1.3c2.03 0 4.3-.885 6.83-2.655q3.795-2.654 6.06-4.924c1.51-1.513 2.27-2.972 2.27-4.377q0-1.986-2.76-2.229l.45-1.986h13.13l.77 1.986a122 122 0 0 1-7.13 5.958l-10.05 7.781 3.97 14.63q.48 1.865.87 2.695c.26.554.55.966.89 1.237.34.27.79.405 1.36.405.7 0 1.54-.378 2.51-1.135.97-.756 2.08-1.851 3.32-3.283l2.31 2.27q-3.645 3.85-6.03 5.349-2.4 1.5-4.62 1.5-2.76 0-4.38-1.56t-2.55-5.208l-2.68-10.537q-.405-1.58-.81-2.189-.405-.608-.93-.81c-.35-.135-.97-.203-1.87-.203h-2.79l-4.22 19.859h-7.01l10.42-46.323q.525-2.35.75-3.668c.15-.878.22-1.655.22-2.33 0-1.135-.35-1.932-1.03-2.391-.69-.46-1.93-.716-3.71-.77l.48-2.108Z"/><text x="1072.94" y="281.869" fill-opacity="0" font-family="Arial,Arial_MSFontService,sans-serif" font-size="58.602">𝑘</text><path fill="#fdefe8" d="M800 975h418v235H800z"/><path fill="#d74514" fill-rule="evenodd" d="M987.67 1089.34c-3.107.37-5.883 1.5-8.328 3.38s-4.337 4.3-5.674 7.25q-2.007 4.44-2.006 9.75c0 2.89.446 5 1.337 6.32.892 1.33 2.351 1.99 4.377 1.99s3.891-.99 5.593-2.98 3.053-4.66 4.053-8.02q1.499-5.055 1.499-9.87c0-3.43-.284-6.04-.851-7.82m5.431-7.95h16.249l-1.7 7.54h-11.874v.16a15.3 15.3 0 0 1 2.674 4.87 17.5 17.5 0 0 1 .892 5.59c0 3.97-1.013 7.81-3.04 11.53q-3.039 5.565-7.902 8.37-4.864 2.79-11.267 2.79c-5.025 0-8.923-1.32-11.692-3.97s-4.154-6.32-4.154-11.02q0-4.905 1.601-9.12c1.067-2.81 2.56-5.3 4.478-7.48 1.918-2.17 4.066-3.93 6.444-5.29 2.377-1.35 5.113-2.35 8.206-2.99 3.094-.65 6.789-.98 11.085-.98"/><text x="961.287" y="1117.14" fill-opacity="0" font-family="Arial,Arial_MSFontService,sans-serif" font-size="40.852">𝝈</text><path fill="#d74514" fill-rule="evenodd" d="M1024.1 1108.56h3.4l-4.77 20.5c-.2.83-.33 1.48-.4 1.93-.07.46-.11.98-.11 1.55 0 .78.13 1.31.39 1.61s.63.45 1.1.45c.58 0 1.23-.28 1.94-.82.71-.55 1.56-1.38 2.53-2.49l2.15 2.15c-1.95 1.98-3.69 3.39-5.23 4.22-1.54.84-3.23 1.26-5.08 1.26-2.1 0-3.64-.52-4.62-1.55-.97-1.04-1.46-2.59-1.46-4.68q0-1.995.66-4.68l2.5-10.36q.69-2.835.69-4.47c0-.77-.19-1.32-.55-1.65-.37-.33-1.14-.55-2.31-.67l.44-1.97Zm-2.17-11.55h7.62l-1.55 7.3h-7.71Z"/><text x="1013.94" y="1133.68" fill-opacity="0" font-family="Arial,Arial_MSFontService,sans-serif" font-size="41.908">𝒊</text><path fill="#fdefe8" fill-rule="evenodd" d="M859 533c0-84.5 68.277-153 152.5-153 84.22 0 152.5 68.5 152.5 153s-68.28 153-152.5 153C927.277 686 859 617.5 859 533"/><path fill="#d74514" fill-rule="evenodd" d="M1015.09 526.696c-1.44 0-2.78 1.02-4.04 3.059-1.25 2.04-2.29 4.898-3.1 8.572l-4.66 21.317c3.19-.567 5.99-2.087 8.39-4.559q3.615-3.708 5.55-9.483 1.95-5.775 1.95-11.855c0-2.215-.36-3.944-1.07-5.187-.72-1.243-1.73-1.864-3.02-1.864m-19.173-4.256 2.635 3.324q-6.039 5.795-8.997 11.55-2.96 5.755-2.959 11.712 0 4.053 1.702 6.606t5.35 3.769l3.728-17.345c1.405-6.539 3.684-11.436 6.854-14.692 3.16-3.255 7.02-4.883 11.59-4.883q6.645 0 10.41 3.647c2.51 2.432 3.77 5.823 3.77 10.173 0 5.052-1.15 9.672-3.44 13.86-2.3 4.188-5.56 7.484-9.77 9.889-4.22 2.404-8.98 3.674-14.31 3.809l-3.726 16.981h-9.848l3.81-17.345q-8.511-.77-13.05-4.54-4.539-3.768-4.539-9.969 0-7.498 5.268-14.266 5.27-6.768 15.522-12.28"/><text x="975.127" y="573.54" fill-opacity="0" font-family="Arial,Arial_MSFontService,sans-serif" font-size="58.4">𝝋</text><path fill="#fdefe8" fill-rule="evenodd" d="M1579 1092c0-84.5 68.28-153 152.5-153s152.5 68.5 152.5 153-68.28 153-152.5 153-152.5-68.5-152.5-153"/><path fill="#d74514" fill-rule="evenodd" d="M1727.17 1065.38h9.8l-11.83 53.54c3.19-.63 5.96-1.92 8.33-3.89 2.36-1.98 4.18-4.53 5.45-7.66 1.27-3.14 1.9-6.57 1.9-10.3 0-2.24-.15-4.41-.46-6.5q-.465-3.15-1.32-5.49l.49-2.68h10.94c.51 2.27.77 4.77.77 7.5 0 6-1.09 11.51-3.26 16.53-2.18 5.03-5.25 9.01-9.2 11.94-3.96 2.93-8.79 4.52-14.49 4.76l-3.73 16.98h-9.85l3.77-17.1c-5.46-.43-9.62-1.78-12.48-4.03-2.87-2.26-4.3-5.25-4.3-8.98 0-.84.08-1.85.23-3.04.14-1.19.34-2.3.58-3.32l2.11-8.76q.285-1.125.45-2.37c.1-.82.16-1.52.16-2.08 0-.92-.15-1.62-.45-2.09-.29-.47-.79-.71-1.5-.71-.7 0-1.42.23-2.14.69-.73.46-1.63 1.24-2.68 2.35l-2.92-2.88c1.7-1.59 3.25-2.83 4.64-3.71s2.71-1.48 3.95-1.82q1.875-.51 4.26-.51c2.65 0 4.65.66 6.02 1.99 1.36 1.32 2.04 3.27 2.04 5.83 0 2-.29 4.19-.89 6.57l-2.06 8.19c-.57 2.24-.86 4.44-.86 6.6 0 2.22.57 3.96 1.71 5.23 1.13 1.27 2.85 2.11 5.14 2.51Z"/><text x="1691.54" y="1130.77" fill-opacity="0" font-family="Arial,Arial_MSFontService,sans-serif" font-size="74.732">𝝍</text><path d="M1218.5 1087.92h319.62v9.16H1218.5Zm315.04-18.34 45.83 22.92-45.83 22.92Z"/><path d="M1218.21 1088.19h82.5l-4.58 4.58V533.5l4.58 4.583h-94.96v-9.166h99.55v568.433h-87.09Zm-7.88-531.773L1164.5 533.5l45.83-22.917Zm-351.165-27.5H713.417v568.438h45.833v-9.167H718l4.583 4.583V533.5L718 538.083h141.165Zm-104.499 586.771 45.834-22.917-45.834-22.916Zm1129.834-18.605h264.321v-9.167H1884.5Zm259.738 18.333 45.833-22.916-45.834-22.917ZM1007.39 1433.75l-2.02-181.95 9.17-.1 2.02 181.95Zm-20.297-177.17 22.407-46.08 23.42 45.58Zm749.99 167v-136.833h-9.166v136.833Zm18.334-132.25-22.917-45.833-22.916 45.833ZM1016.08 154.5v185.253h-9.16V154.5Zm18.34 180.67-22.92 45.833-22.916-45.833Z"/><path fill-rule="evenodd" d="M1081.89 1303.73h2.35l-7.94 35.38h1.3c2.02 0 4.3-.89 6.82-2.66 2.53-1.76 4.55-3.41 6.06-4.92 1.52-1.51 2.27-2.97 2.27-4.38 0-1.32-.92-2.06-2.75-2.23l.44-1.98h13.13l.77 1.98c-2.24 2.03-4.62 4.02-7.13 5.96l-10.05 7.78 3.97 14.63q.495 1.875.87 2.7c.26.55.56.97.9 1.24.33.27.79.4 1.35.4.71 0 1.54-.38 2.52-1.13.97-.76 2.08-1.85 3.32-3.29l2.31 2.27c-2.43 2.57-4.45 4.35-6.04 5.35q-2.385 1.5-4.62 1.5-2.76 0-4.38-1.56c-1.08-1.04-1.93-2.77-2.55-5.21l-2.67-10.53c-.28-1.06-.55-1.79-.82-2.19q-.405-.615-.93-.81-.525-.21-1.86-.21h-2.8l-4.21 19.86h-7.01l10.41-46.32c.35-1.57.6-2.79.75-3.67s.22-1.65.22-2.33c0-1.13-.34-1.93-1.03-2.39s-1.92-.71-3.71-.77l.49-2.11Z"/><text x="1064.51" y="1355.01" fill-opacity="0" font-family="Arial,Arial_MSFontService,sans-serif" font-size="58.602">𝑘</text><path fill-rule="evenodd" d="M1813.71 1303.73h2.35l-7.94 35.38h1.3c2.02 0 4.3-.89 6.83-2.66 2.52-1.76 4.54-3.41 6.06-4.92 1.51-1.51 2.26-2.97 2.26-4.38 0-1.32-.91-2.06-2.75-2.23l.44-1.98h13.14l.77 1.98a119 119 0 0 1-7.14 5.96l-10.05 7.78 3.97 14.63c.33 1.25.62 2.15.88 2.7.25.55.55.97.89 1.24.33.27.79.4 1.35.4.71 0 1.54-.38 2.52-1.13.97-.76 2.08-1.85 3.32-3.29l2.31 2.27c-2.43 2.57-4.44 4.35-6.04 5.35q-2.385 1.5-4.62 1.5c-1.84 0-3.29-.52-4.38-1.56-1.08-1.04-1.93-2.77-2.55-5.21l-2.67-10.53q-.405-1.59-.81-2.19c-.27-.41-.58-.68-.94-.81q-.525-.21-1.86-.21h-2.8l-4.21 19.86h-7.01l10.41-46.32c.35-1.57.6-2.79.75-3.67s.23-1.65.23-2.33c0-1.13-.35-1.93-1.04-2.39s-1.92-.71-3.71-.77l.49-2.11Z"/><text x="1796.33" y="1355.01" fill-opacity="0" font-family="Arial,Arial_MSFontService,sans-serif" font-size="58.602">𝑘</text><path fill-rule="evenodd" d="M2213.56 1082.85h28.82l.77 2.03-19.34 22.21c-3.75 4.29-7.01 7.94-9.76 10.94l.24.28h9.16c1.62 0 2.86-.09 3.73-.26.86-.18 1.62-.51 2.27-.99.65-.49 1.31-1.23 2-2.21.69-.99 1.55-2.54 2.58-4.64h3.6l-2.47 11.39h-29.34l-.77-1.99 22.17-25.53c3.13-3.6 5.43-6.15 6.89-7.66l-.25-.29h-9.48c-1.4 0-2.43.1-3.08.29s-1.3.52-1.94.99c-.65.47-1.35 1.18-2.09 2.11s-1.58 2.26-2.49 3.99h-3.61Z"/><text x="2205.05" y="1116.75" fill-opacity="0" font-family="Arial,Arial_MSFontService,sans-serif" font-size="38.744">𝑧</text><path fill-rule="evenodd" d="M2256.42 1108.33h1.46l-4.41 19.83c-.28 1.17-.47 2.11-.58 2.8-.11.7-.16 1.32-.16 1.88 0 .75.15 1.3.46 1.64s.77.5 1.38.5c.36 0 .72-.07 1.08-.2.35-.14.74-.36 1.14-.66.41-.3.86-.68 1.34-1.15.49-.46 1.03-1.02 1.63-1.68l2.02 1.97a46 46 0 0 1-2.81 2.66q-1.275 1.095-2.4 1.77c-.76.46-1.49.79-2.22.99q-1.08.3-2.31.3-1.125 0-2.04-.42a4.7 4.7 0 0 1-1.56-1.15 5 5 0 0 1-1.01-1.74c-.24-.68-.36-1.42-.36-2.23 0-.66.08-1.47.24-2.45.16-.97.36-2.03.61-3.17s.52-2.34.82-3.59c.29-1.25.59-2.49.87-3.72.29-1.23.55-2.42.78-3.56s.39-2.18.49-3.11c.04-.16.06-.32.06-.47v-.4c-.04-.77-.31-1.34-.82-1.7-.51-.35-1.4-.55-2.69-.59l.35-2.03Zm-1.73-12.01h5.96l-1.46 6.41h-5.9Z"/><text x="2247.07" y="1133.64" fill-opacity="0" font-family="Arial,Arial_MSFontService,sans-serif" font-size="42.652">𝑖</text></g></svg>