<svg xmlns="http://www.w3.org/2000/svg" width="2330" height="2352" overflow="hidden"><defs><clipPath id="a"><path d="M607-2h2330v2352H607z"/></clipPath></defs><g clip-path="url(#a)" transform="translate(-607 2)"><path fill="#d74514" d="M778 1460h432v325H778z"/><text fill="#fff" font-family="Microsoft YaHei,Microsoft YaHei_MSFontService,sans-serif" font-size="83" font-weight="700" transform="translate(914.783 1603)">A<tspan x="61.875" y="0">ES</tspan><tspan x="-3.163" y="99">è§£å¯†</tspan></text><path fill="none" stroke="#d74514" stroke-miterlimit="8" stroke-width="9.167" d="M918.5 1995.5c0-40.87 33.355-74 74.5-74 41.15 0 74.5 33.13 74.5 74s-33.35 74-74.5 74c-41.145 0-74.5-33.13-74.5-74Zm148.13 0H918.501m73.999 74.13v-148.129"/><path d="m989.563 1785.444-1.143 93.833 9.166.112 1.143-93.833Zm-19.42 89.027 22.357 46.109 23.474-45.55Z"/><path fill-rule="evenodd" d="M970.775 2260.59q-2.513 0-5.268.12l-5.512 24.56h4.215q4.903 0 7.923-1.02c2.013-.67 3.661-1.72 4.944-3.14 1.284-1.41 2.277-3.1 2.979-5.04.703-1.95 1.054-4.08 1.054-6.4 0-3.14-.797-5.44-2.391-6.89q-2.391-2.19-7.944-2.19m-16.981-3.57h17.873q4.822 0 7.923.75t5.107 2.31a9.6 9.6 0 0 1 2.999 3.95q.993 2.4.993 5.55c0 4.06-.96 7.57-2.878 10.54q-2.877 4.455-7.801 6.57-4.924 2.1-11.814 2.1c-2.756 0-5.053-.05-6.89-.16l-2.594 11.92c-.243 1.1-.412 1.96-.506 2.55s-.176 1.24-.243 1.93c-.068.68-.102 1.3-.102 1.84 0 .84.135 1.49.406 1.96.27.48.675.82 1.215 1.04.541.21 1.473.38 2.797.48l-.446 1.99h-16.657l.446-1.99c1.027-.16 1.797-.42 2.31-.79.514-.36.946-.87 1.297-1.52q.527-.96.973-2.37c.297-.93.743-2.73 1.337-5.41l6.89-31.2c.594-2.7.891-4.84.891-6.41 0-1.32-.31-2.24-.932-2.75-.621-.52-1.634-.81-3.039-.89Z"/><text x="943.176" y="2305.43" fill-opacity="0" font-family="Arial,Arial_MSFontService,sans-serif" font-size="55.32">ğ‘ƒ</text><path fill-rule="evenodd" d="M1001.19 2290.82h1.82c-.04 1.09-.07 2.07-.09 2.93-.02.87-.04 1.71-.05 2.52-.01.82-.01 1.62-.01 2.41v22.64q0 .93.06 1.59c.04.45.1.83.19 1.14.09.3.21.57.36.79.15.21.32.4.52.56.24.24.56.42.95.55.4.13.91.24 1.52.33q.93.135 2.22.21c.86.05 1.9.08 3.11.1v2.59h-23.616v-2.59c1.171-.04 2.164-.08 2.978-.13q1.222-.075 2.085-.21a10 10 0 0 0 1.385-.3c.348-.11.651-.24.909-.4.278-.18.516-.37.715-.58s.357-.47.476-.79.214-.7.283-1.16c.07-.46.104-1.02.104-1.7v-21.36c0-.77-.148-1.32-.446-1.63q-.447-.48-1.281-.48c-.616 0-1.529.32-2.74.95-1.212.64-2.78 1.58-4.706 2.83-.259-.45-.497-.91-.715-1.37-.219-.45-.447-.92-.685-1.4 2.462-1.35 4.899-2.69 7.312-4.03s4.86-2.68 7.342-4.01"/><text x="986.536" y="2324.39" fill-opacity="0" font-family="Arial,Arial_MSFontService,sans-serif" font-size="38.363">1</text><text font-family="Microsoft YaHei,Microsoft YaHei_MSFontService,sans-serif" font-size="83" font-weight="400" transform="translate(832.918 1275)">Counter</text><path d="M689.5 1618.92h48.125v9.16H689.5Zm43.542-18.34 45.833 22.92-45.833 22.92Z"/><path fill-rule="evenodd" d="M618.531 1596.96h16.211l-.446 1.99c-1.026.21-1.763.46-2.208.73s-.845.67-1.196 1.21-.716 1.39-1.094 2.53c-.378 1.15-.851 3.02-1.419 5.62l-2.877 12.93h1.337q1.703 0 3.101-.57t3.262-2.07c1.243-1 3.222-2.84 5.937-5.51 2.716-2.68 4.648-4.71 5.796-6.1s1.986-2.59 2.513-3.61c.526-1.01.79-1.94.79-2.77 0-.68-.27-1.23-.811-1.64q-.81-.63-2.31-.75l.446-1.99h17.386l-.446 1.99q-1.62.24-3.667 1.68t-6.262 5.61l-15.724 15.32 8.632 20.75q1.338 3.195 2.209 4.62t2.087 2.25c.81.55 1.81.93 2.999 1.11l-.446 1.99h-15.643l.445-1.99c1.459-.13 2.189-.78 2.189-1.94q0-1.095-.446-2.49c-.297-.94-.648-1.9-1.054-2.9l-5.268-12.89q-.933-2.31-1.621-3.24c-.46-.62-.946-1.05-1.459-1.3q-.771-.36-2.391-.36h-2.27l-3.364 15.32c-.351 1.62-.581 2.89-.689 3.83a22 22 0 0 0-.162 2.49c0 1.21.304 2.07.912 2.57s1.628.81 3.06.91l-.446 1.99h-16.211l.446-1.99c1.027-.16 1.797-.42 2.31-.79.513-.36.946-.87 1.297-1.52q.526-.96.972-2.37c.298-.93.743-2.73 1.338-5.41l6.89-31.2c.594-2.7.891-4.88.891-6.53 0-1.27-.317-2.15-.952-2.65q-.953-.75-3.02-.87Z"/><text x="607.913" y="1645.37" fill-opacity="0" font-family="Arial,Arial_MSFontService,sans-serif" font-size="55.32">ğ¾</text><path fill="#d74514" d="M1453 1460h432v325h-432z"/><text fill="#fff" font-family="Microsoft YaHei,Microsoft YaHei_MSFontService,sans-serif" font-size="83" font-weight="700" transform="translate(1589.41 1603)">A<tspan x="61.875" y="0">ES</tspan><tspan x="-3.163" y="99">è§£å¯†</tspan></text><path fill="none" stroke="#d74514" stroke-miterlimit="8" stroke-width="9.167" d="M1593.5 1995.5c0-40.87 33.13-74 74-74s74 33.13 74 74-33.13 74-74 74-74-33.13-74-74Zm148.13 0h-148.129m73.999 74.13v-148.129"/><path fill-rule="evenodd" d="M1644.45 2260.59c-1.68 0-3.43.04-5.27.12l-5.51 24.56h4.21c3.27 0 5.91-.34 7.93-1.02 2.01-.67 3.66-1.72 4.94-3.14 1.28-1.41 2.28-3.1 2.98-5.04.7-1.95 1.05-4.08 1.05-6.4 0-3.14-.79-5.44-2.39-6.89-1.59-1.46-4.24-2.19-7.94-2.19m-16.98-3.57h17.87c3.21 0 5.86.25 7.92.75 2.07.5 3.77 1.27 5.11 2.31a9.55 9.55 0 0 1 3 3.95q.99 2.4.99 5.55c0 4.06-.96 7.57-2.88 10.54-1.91 2.97-4.52 5.16-7.8 6.57-3.28 1.4-7.22 2.1-11.81 2.1-2.76 0-5.05-.05-6.89-.16l-2.59 11.92c-.25 1.1-.42 1.96-.51 2.55-.1.59-.18 1.24-.24 1.93-.07.68-.11 1.3-.11 1.84 0 .84.14 1.49.41 1.96.27.48.67.82 1.22 1.04.54.21 1.47.38 2.79.48l-.44 1.99h-16.66l.44-1.99c1.03-.16 1.8-.42 2.31-.79.52-.36.95-.87 1.3-1.52.35-.64.68-1.43.97-2.37.3-.93.75-2.73 1.34-5.41l6.89-31.2c.6-2.7.89-4.84.89-6.41 0-1.32-.31-2.24-.93-2.75-.62-.52-1.63-.81-3.04-.89Z"/><text x="1616.85" y="2305.43" fill-opacity="0" font-family="Arial,Arial_MSFontService,sans-serif" font-size="55.32">ğ‘ƒ</text><path fill-rule="evenodd" d="M1674.44 2290.61c2.07 0 3.83.24 5.29.7 1.46.47 2.64 1.1 3.56 1.89.91.8 1.57 1.75 1.98 2.86.41 1.12.61 2.32.61 3.61 0 .77-.06 1.49-.16 2.16-.11.66-.3 1.32-.57 1.96-.27.65-.62 1.3-1.06 1.95-.43.66-.98 1.35-1.64 2.09-.49.63-1.14 1.37-1.93 2.2-.8.84-1.67 1.73-2.61 2.68-.94.96-1.93 1.95-2.96 2.98s-2.04 2.06-3.01 3.07-1.87 1.99-2.68 2.95c-.82.95-1.48 1.82-2 2.62h11.02c.94 0 1.68-.04 2.24-.11.55-.06 1.02-.22 1.38-.46.37-.24.68-.6.94-1.08.26-.49.56-1.16.89-2.01h2.77c-.09 1.41-.19 2.83-.28 4.25-.09 1.43-.18 2.85-.28 4.26h-25.23v-1.54c.48-1.08 1.03-2.13 1.67-3.18a42 42 0 0 1 2.14-3.17c.8-1.07 1.7-2.18 2.71-3.32 1.02-1.14 2.14-2.33 3.37-3.56 1.87-1.87 3.38-3.46 4.56-4.78 1.17-1.32 2.09-2.5 2.77-3.53.67-1.03 1.13-1.99 1.38-2.86s.37-1.81.37-2.8c0-1.01-.14-1.94-.43-2.8-.29-.85-.7-1.58-1.23-2.17-.54-.6-1.22-1.06-2.04-1.4q-1.245-.51-2.85-.51c-1.85 0-3.39.5-4.65 1.51-1.25 1-2.22 2.45-2.91 4.36h-3.91v-5.81c2.55-1.05 4.88-1.82 7.02-2.29q3.195-.72 5.76-.72"/><text x="1660.71" y="2324.36" fill-opacity="0" font-family="Arial,Arial_MSFontService,sans-serif" font-size="38.572">2</text><text font-family="Microsoft YaHei,Microsoft YaHei_MSFontService,sans-serif" font-size="83" font-weight="400" transform="translate(1452.83 1275)">Counter+1</text><path d="M1363.5 1618.92h48.13v9.16h-48.13Zm43.54-18.34 45.84 22.92-45.84 22.92Z"/><path fill-rule="evenodd" d="M1293.15 1596.96h16.22l-.45 1.99c-1.03.21-1.76.46-2.21.73-.44.27-.84.67-1.19 1.21-.36.54-.72 1.39-1.1 2.53-.38 1.15-.85 3.02-1.42 5.62l-2.87 12.93h1.33c1.14 0 2.17-.19 3.1-.57.94-.38 2.02-1.07 3.27-2.07 1.24-1 3.22-2.84 5.93-5.51 2.72-2.68 4.65-4.71 5.8-6.1s1.98-2.59 2.51-3.61c.53-1.01.79-1.94.79-2.77 0-.68-.27-1.23-.81-1.64q-.81-.63-2.31-.75l.45-1.99h17.38l-.44 1.99c-1.08.16-2.31.72-3.67 1.68-1.37.96-3.45 2.83-6.26 5.61l-15.73 15.32 8.64 20.75c.89 2.13 1.62 3.67 2.2 4.62.59.95 1.28 1.7 2.09 2.25s1.81.93 3 1.11l-.45 1.99h-15.64l.45-1.99c1.46-.13 2.19-.78 2.19-1.94q0-1.095-.45-2.49c-.3-.94-.65-1.9-1.05-2.9l-5.27-12.89q-.93-2.31-1.62-3.24c-.46-.62-.95-1.05-1.46-1.3-.52-.24-1.31-.36-2.39-.36h-2.27l-3.37 15.32c-.35 1.62-.58 2.89-.69 3.83-.1.93-.16 1.76-.16 2.49 0 1.21.31 2.07.91 2.57.61.5 1.63.81 3.06.91l-.44 1.99h-16.21l.44-1.99c1.03-.16 1.8-.42 2.31-.79.52-.36.95-.87 1.3-1.52.35-.64.67-1.43.97-2.37.3-.93.75-2.73 1.34-5.41l6.89-31.2c.59-2.7.89-4.88.89-6.53 0-1.27-.32-2.15-.95-2.65-.64-.5-1.64-.79-3.02-.87Z"/><text x="1282.54" y="1645.37" fill-opacity="0" font-family="Arial,Arial_MSFontService,sans-serif" font-size="55.32">ğ¾</text><path fill="#d74514" d="M2407 1460h433v325h-433z"/><text fill="#fff" font-family="Microsoft YaHei,Microsoft YaHei_MSFontService,sans-serif" font-size="83" font-weight="700" transform="translate(2544.16 1603)">A<tspan x="61.875" y="0">ES</tspan><tspan x="-3.163" y="99">è§£å¯†</tspan></text><path fill="none" stroke="#d74514" stroke-miterlimit="8" stroke-width="9.167" d="M2548.5 1995.5c0-40.87 33.13-74 74-74s74 33.13 74 74-33.13 74-74 74-74-33.13-74-74Zm148.13 0h-148.129m73.999 74.13v-148.129"/><path fill-rule="evenodd" d="M2593.34 2260.59c-1.67 0-3.43.04-5.27.12l-5.51 24.56h4.22q4.905 0 7.92-1.02c2.01-.67 3.66-1.72 4.94-3.14 1.29-1.41 2.28-3.1 2.98-5.04.71-1.95 1.06-4.08 1.06-6.4 0-3.14-.8-5.44-2.39-6.89q-2.4-2.19-7.95-2.19m-16.98-3.57h17.87c3.22 0 5.86.25 7.93.75 2.06.5 3.77 1.27 5.1 2.31a9.55 9.55 0 0 1 3 3.95c.66 1.6 1 3.45 1 5.55 0 4.06-.96 7.57-2.88 10.54q-2.88 4.455-7.8 6.57c-3.29 1.4-7.22 2.1-11.82 2.1-2.75 0-5.05-.05-6.89-.16l-2.59 11.92c-.24 1.1-.41 1.96-.51 2.55-.09.59-.17 1.24-.24 1.93-.07.68-.1 1.3-.1 1.84 0 .84.13 1.49.4 1.96.27.48.68.82 1.22 1.04.54.21 1.47.38 2.8.48l-.45 1.99h-16.66l.45-1.99c1.03-.16 1.8-.42 2.31-.79.51-.36.94-.87 1.3-1.52.35-.64.67-1.43.97-2.37.3-.93.74-2.73 1.34-5.41l6.89-31.2c.59-2.7.89-4.84.89-6.41 0-1.32-.31-2.24-.93-2.75-.63-.52-1.64-.81-3.04-.89Z"/><text x="2565.74" y="2305.43" fill-opacity="0" font-family="Arial,Arial_MSFontService,sans-serif" font-size="55.32">ğ‘ƒ</text><path fill-rule="evenodd" d="M2614.82 2290.55h10.27c.94 2.48 1.89 4.98 2.88 7.49.98 2.52 1.95 5.02 2.9 7.52.95 2.51 1.87 4.97 2.76 7.41.88 2.43 1.69 4.81 2.42 7.13h.39c.22-1.27.5-2.78.84-4.51.33-1.74.73-3.54 1.19-5.41.33-1.41.68-2.86 1.02-4.35.35-1.49.67-2.92.97-4.29s.54-2.63.73-3.79c.19-1.17.29-2.12.29-2.88 0-.87-.23-1.49-.68-1.86-.44-.37-1.27-.56-2.48-.58l.41-1.88h11.06l-.39 1.79c-.68.2-1.21.37-1.61.52s-.74.44-1.01.86c-.28.43-.54 1.05-.79 1.87-.25.81-.54 1.98-.88 3.51l-6.73 30.08h-4.5c-1.05-2.7-2.13-5.42-3.23-8.16s-2.19-5.48-3.25-8.22-2.08-5.46-3.05-8.16-1.86-5.36-2.65-7.98h-.39c-.1.61-.22 1.33-.36 2.14-.14.82-.29 1.7-.46 2.64s-.35 1.91-.53 2.9c-.19 1-.39 1.99-.59 2.98-.17.76-.39 1.64-.64 2.64-.24 1-.5 2.07-.76 3.21-.25 1.15-.52 2.3-.78 3.47-.27 1.18-.52 2.29-.73 3.36-.22 1.06-.4 2.03-.53 2.9-.12.87-.19 1.56-.19 2.05 0 .84.24 1.43.72 1.78.47.34 1.29.56 2.44.64l-.33 1.81h-11.11l.39-1.81c.59-.1 1.09-.22 1.49-.36.39-.14.74-.42 1.04-.85s.58-1.07.85-1.92.57-2.06.91-3.6l4.88-21.72c.18-.79.31-1.53.4-2.22.09-.68.14-1.29.14-1.83q0-1.305-.69-1.86c-.45-.37-1.29-.56-2.5-.58Z"/><text x="2607.46" y="2324.36" fill-opacity="0" font-family="Arial,Arial_MSFontService,sans-serif" font-size="38.631">ğ‘</text><text font-family="Microsoft YaHei,Microsoft YaHei_MSFontService,sans-serif" font-size="83" font-weight="400" transform="translate(2356.3 1275)">Counter+N<tspan x="447.448" y="0">-</tspan><tspan x="482.969" y="0">1</tspan></text><path d="M2318.5 1618.92h48.12v9.16h-48.12Zm43.54-18.34 45.84 22.92-45.84 22.92Z"/><path fill-rule="evenodd" d="M2247.9 1596.96h16.22l-.45 1.99c-1.03.21-1.76.46-2.21.73s-.84.67-1.19 1.21c-.36.54-.72 1.39-1.1 2.53-.38 1.15-.85 3.02-1.42 5.62l-2.87 12.93h1.33c1.14 0 2.17-.19 3.1-.57q1.395-.57 3.27-2.07c1.24-1 3.22-2.84 5.93-5.51 2.72-2.68 4.65-4.71 5.8-6.1s1.98-2.59 2.51-3.61c.53-1.01.79-1.94.79-2.77 0-.68-.27-1.23-.81-1.64q-.81-.63-2.31-.75l.45-1.99h17.38l-.44 1.99c-1.08.16-2.31.72-3.67 1.68-1.37.96-3.45 2.83-6.26 5.61l-15.73 15.32 8.63 20.75c.9 2.13 1.63 3.67 2.21 4.62s1.28 1.7 2.09 2.25 1.81.93 3 1.11l-.45 1.99h-15.64l.45-1.99c1.46-.13 2.18-.78 2.18-1.94 0-.73-.14-1.56-.44-2.49-.3-.94-.65-1.9-1.05-2.9l-5.27-12.89c-.62-1.54-1.17-2.62-1.62-3.24-.46-.62-.95-1.05-1.46-1.3-.52-.24-1.31-.36-2.39-.36h-2.27l-3.37 15.32c-.35 1.62-.58 2.89-.69 3.83-.1.93-.16 1.76-.16 2.49 0 1.21.31 2.07.91 2.57.61.5 1.63.81 3.06.91l-.44 1.99h-16.21l.44-1.99c1.03-.16 1.8-.42 2.31-.79.52-.36.95-.87 1.3-1.52.35-.64.67-1.43.97-2.37.3-.93.74-2.73 1.34-5.41l6.89-31.2c.59-2.7.89-4.88.89-6.53 0-1.27-.32-2.15-.95-2.65-.64-.5-1.64-.79-3.02-.87Z"/><text x="2237.29" y="1645.37" fill-opacity="0" font-family="Arial,Arial_MSFontService,sans-serif" font-size="55.32">ğ¾</text><path fill-rule="evenodd" d="M2077.77 1623.34c1.41 0 2.58.5 3.53 1.48.95.99 1.42 2.24 1.42 3.75s-.47 2.76-1.42 3.75-2.12 1.48-3.53 1.48c-1.4 0-2.58-.49-3.52-1.48-.95-.99-1.42-2.24-1.42-3.75s.47-2.76 1.42-3.75c.94-.98 2.12-1.48 3.52-1.48m-24.56 0c1.41 0 2.58.5 3.53 1.48.95.99 1.42 2.24 1.42 3.75s-.47 2.76-1.42 3.75-2.12 1.48-3.53 1.48c-1.4 0-2.58-.49-3.52-1.48-.95-.99-1.42-2.24-1.42-3.75s.47-2.76 1.42-3.75c.94-.98 2.12-1.48 3.52-1.48m-24.55 0c1.4 0 2.58.5 3.52 1.48.95.99 1.42 2.24 1.42 3.75s-.47 2.76-1.42 3.75c-.94.99-2.12 1.48-3.52 1.48-1.41 0-2.59-.49-3.53-1.48-.95-.99-1.42-2.24-1.42-3.75s.47-2.76 1.42-3.75c.94-.98 2.12-1.48 3.53-1.48"/><text x="2023.71" y="1632.49" fill-opacity="0" font-family="Arial,Arial_MSFontService,sans-serif" font-size="10.456">â‹¯</text><path fill-rule="evenodd" d="M695.718 1968.16q3.688 0 6.829.45t6.991 1.62l-2.431 10.98h-3.891c-.216-3.32-.939-5.72-2.168-7.19s-3.209-2.21-5.938-2.21c-3.728 0-7.193 1.87-10.395 5.6-3.202 3.72-5.734 8.65-7.599 14.77q-2.796 9.18-2.796 17.04c0 4.11.729 7.13 2.188 9.08 1.459 1.94 3.702 2.92 6.728 2.92 2.026 0 3.796-.31 5.309-.92 1.513-.6 2.931-1.63 4.255-3.08q1.986-2.16 3.932-6.06h3.89l-2.472 11.51c-5.052 1.41-10.348 2.11-15.887 2.11q-7.619 0-11.591-4.38c-2.647-2.91-3.971-7.18-3.971-12.8q0-5.955 2.127-13.74c1.419-5.19 3.425-9.74 6.019-13.66 2.593-3.92 5.66-6.9 9.199-8.96 3.54-2.05 7.43-3.08 11.672-3.08"/><text x="666.701" y="2017.7" fill-opacity="0" font-family="Arial,Arial_MSFontService,sans-serif" font-size="56.617">ğ¶</text><path fill-rule="evenodd" d="M723.868 2002.61h1.817a222 222 0 0 0-.134 5.45c-.01.82-.015 1.62-.015 2.42v22.63c0 .62.02 1.15.059 1.6.04.44.105.82.194 1.13s.208.57.357.79.323.41.522.56c.238.24.556.43.953.56.397.12.903.23 1.519.32q.923.135 2.219.21a76 76 0 0 0 3.112.11v2.59h-23.619v-2.59c1.171-.04 2.164-.09 2.978-.14a23 23 0 0 0 2.085-.21c.576-.09 1.038-.19 1.385-.29.348-.11.651-.25.909-.41.278-.18.516-.37.715-.58s.357-.47.476-.79c.119-.31.214-.7.283-1.16.07-.46.104-1.02.104-1.7v-21.35c0-.78-.149-1.32-.446-1.64q-.447-.48-1.281-.48-.924 0-2.74.96c-1.212.63-2.78 1.57-4.707 2.83a26 26 0 0 1-.714-1.37 64 64 0 0 0-.685-1.4c2.462-1.35 4.899-2.7 7.312-4.04 2.412-1.34 4.86-2.68 7.342-4.01"/><text x="709.214" y="2036.18" fill-opacity="0" font-family="Arial,Arial_MSFontService,sans-serif" font-size="38.363">1</text><path fill-rule="evenodd" d="M2306.97 1968.16c2.46 0 4.74.15 6.83.45q3.135.45 6.99 1.62l-2.43 10.98h-3.89c-.22-3.32-.94-5.72-2.17-7.19s-3.21-2.21-5.94-2.21c-3.72 0-7.19 1.87-10.39 5.6-3.2 3.72-5.74 8.65-7.6 14.77s-2.8 11.8-2.8 17.04c0 4.11.73 7.13 2.19 9.08 1.46 1.94 3.7 2.92 6.73 2.92 2.03 0 3.8-.31 5.31-.92 1.51-.6 2.93-1.63 4.25-3.08q1.995-2.16 3.93-6.06h3.9l-2.48 11.51c-5.05 1.41-10.34 2.11-15.88 2.11-5.08 0-8.95-1.46-11.59-4.38-2.65-2.91-3.98-7.18-3.98-12.8q0-5.955 2.13-13.74c1.42-5.19 3.43-9.74 6.02-13.66s5.66-6.9 9.2-8.96c3.54-2.05 7.43-3.08 11.67-3.08"/><text x="2277.95" y="2017.7" fill-opacity="0" font-family="Arial,Arial_MSFontService,sans-serif" font-size="56.617">ğ¶</text><path fill-rule="evenodd" d="M2326.18 2002.35h10.28c.93 2.48 1.89 4.97 2.87 7.49.98 2.51 1.95 5.02 2.91 7.52.95 2.5 1.87 4.97 2.75 7.4s1.69 4.81 2.43 7.13h.39c.21-1.27.49-2.77.83-4.51s.73-3.54 1.19-5.41c.34-1.41.68-2.86 1.03-4.34.35-1.49.67-2.92.97-4.29.29-1.37.54-2.64.73-3.8s.28-2.12.28-2.88c0-.87-.22-1.49-.67-1.86-.45-.36-1.28-.56-2.49-.58l.42-1.87h11.05l-.39 1.78c-.67.2-1.21.38-1.61.52-.39.15-.73.44-1.01.87-.28.42-.54 1.05-.79 1.86s-.54 1.98-.88 3.51l-6.73 30.09h-4.5c-1.05-2.7-2.13-5.42-3.23-8.16q-1.65-4.11-3.24-8.22c-1.07-2.75-2.08-5.47-3.06-8.17-.97-2.7-1.85-5.36-2.65-7.98h-.39c-.09.62-.21 1.33-.35 2.15-.14.81-.3 1.69-.46 2.63a311 311 0 0 1-1.12 5.88c-.18.76-.39 1.64-.64 2.64s-.5 2.08-.76 3.22-.52 2.3-.79 3.47-.51 2.29-.73 3.35-.39 2.03-.52 2.9c-.13.88-.2 1.56-.2 2.06q0 1.245.72 1.77c.48.35 1.29.56 2.44.64l-.33 1.82h-11.11l.39-1.82c.6-.1 1.09-.22 1.49-.36s.75-.42 1.04-.85c.3-.42.58-1.06.85-1.92.27-.85.57-2.05.91-3.6l4.89-21.71c.17-.8.31-1.54.4-2.22.09-.69.13-1.3.13-1.84 0-.87-.23-1.49-.68-1.86-.46-.36-1.29-.56-2.51-.58Z"/><text x="2318.82" y="2036.15" fill-opacity="0" font-family="Arial,Arial_MSFontService,sans-serif" font-size="38.631">ğ‘</text><path d="M2388.5 1990.92h118.92v9.16H2388.5Zm114.34-18.34 45.83 22.92-45.83 22.92Zm-838.273-187.136-1.143 93.833 9.166.112 1.143-93.833Zm-19.42 89.027 22.357 46.109 23.474-45.55Zm974.42-89.027-1.143 93.833 9.166.112 1.143-93.833Zm-19.42 89.027 22.357 46.109 23.474-45.55ZM754.5 1990.92h122.718v9.16H754.5Zm118.135-18.34 45.833 22.92-45.833 22.92Zm115.282 96.92v106.074h9.166V2069.5Zm-18.334 101.491 22.917 45.833 22.916-45.833Zm693.334-101.491v106.074h9.166V2069.5Zm-18.334 101.491 22.917 45.833 22.916-45.833Zm973.334-101.491v106.074h9.166V2069.5Zm-18.334 101.491 22.917 45.833 22.916-45.833Zm-1602.5-858.541 1.188 107.13-9.166.1-1.188-107.13Zm19.467 102.34-22.404 46.09-23.424-45.58Zm655.53-102.34 1.19 107.13-9.16.1-1.19-107.13Zm19.47 102.34-22.4 46.09-23.43-45.58Zm935.53-102.34 1.19 107.13-9.16.1-1.19-107.13Zm19.47 102.34-22.4 46.09-23.43-45.58Z"/><path fill-rule="evenodd" d="M1372.23 1968.16c2.46 0 4.73.15 6.83.45q3.135.45 6.99 1.62l-2.44 10.98h-3.89c-.21-3.32-.93-5.72-2.16-7.19s-3.21-2.21-5.94-2.21c-3.73 0-7.19 1.87-10.4 5.6-3.2 3.72-5.73 8.65-7.6 14.77q-2.79 9.18-2.79 17.04c0 4.11.73 7.13 2.19 9.08 1.46 1.94 3.7 2.92 6.72 2.92 2.03 0 3.8-.31 5.31-.92 1.52-.6 2.93-1.63 4.26-3.08q1.98-2.16 3.93-6.06h3.89l-2.47 11.51c-5.05 1.41-10.35 2.11-15.89 2.11-5.08 0-8.94-1.46-11.59-4.38-2.65-2.91-3.97-7.18-3.97-12.8q0-5.955 2.13-13.74c1.42-5.19 3.42-9.74 6.01-13.66 2.6-3.92 5.67-6.9 9.2-8.96 3.54-2.05 7.43-3.08 11.68-3.08"/><text x="1343.21" y="2017.7" fill-opacity="0" font-family="Arial,Arial_MSFontService,sans-serif" font-size="56.617">ğ¶</text><path fill-rule="evenodd" d="M1399.95 2002.41c2.07 0 3.83.23 5.29.7 1.46.46 2.65 1.09 3.56 1.89.91.79 1.57 1.74 1.98 2.86.41 1.11.61 2.31.61 3.6 0 .77-.05 1.49-.16 2.16-.11.66-.3 1.32-.57 1.97q-.405.96-1.05 1.95c-.44.65-.99 1.35-1.64 2.08a31 31 0 0 1-1.94 2.21c-.79.83-1.66 1.72-2.61 2.68-.94.95-1.93 1.94-2.96 2.97-1.03 1.04-2.03 2.06-3.01 3.07-.97 1.01-1.86 2-2.68 2.95-.81.95-1.48 1.83-1.99 2.62h11.02c.93 0 1.68-.03 2.23-.1.56-.07 1.02-.23 1.39-.46.36-.24.68-.6.93-1.09q.39-.735.9-2.01h2.77c-.1 1.41-.2 2.83-.29 4.26-.08 1.43-.18 2.85-.28 4.26h-25.23v-1.55c.48-1.07 1.04-2.13 1.67-3.17.64-1.05 1.35-2.1 2.15-3.18.79-1.07 1.69-2.18 2.71-3.32 1.01-1.14 2.13-2.33 3.36-3.56 1.87-1.86 3.39-3.46 4.56-4.78s2.09-2.49 2.77-3.53c.67-1.03 1.14-1.98 1.38-2.86.25-.87.38-1.8.38-2.8 0-1.01-.15-1.94-.43-2.8-.29-.85-.7-1.57-1.24-2.17s-1.22-1.06-2.04-1.4c-.83-.34-1.77-.51-2.85-.51-1.84 0-3.39.51-4.64 1.51s-2.23 2.46-2.92 4.36h-3.9v-5.81c2.54-1.05 4.88-1.81 7.01-2.29 2.14-.48 4.06-.71 5.76-.71"/><text x="1386.22" y="2036.16" fill-opacity="0" font-family="Arial,Arial_MSFontService,sans-serif" font-size="38.572">2</text><path d="M1432.5 1990.92h122.72v9.16H1432.5Zm118.13-18.34 45.84 22.92-45.84 22.92Z"/><path fill="#d74514" d="M778 287h432v326H778z"/><text fill="#fff" font-family="Microsoft YaHei,Microsoft YaHei_MSFontService,sans-serif" font-size="83" font-weight="700" transform="translate(914.783 430)">A<tspan x="61.875" y="0">ES</tspan><tspan x="-3.163" y="99">åŠ </tspan><tspan x="79.338" y="99">å¯†</tspan></text><path fill="none" stroke="#d74514" stroke-miterlimit="8" stroke-width="9.167" d="M918.5 822.5c0-40.869 33.355-74 74.5-74 41.15 0 74.5 33.131 74.5 74s-33.35 74-74.5 74c-41.145 0-74.5-33.131-74.5-74Zm148.13 0H918.501m73.999 74.129V748.5"/><path d="m989.563 613.444-1.143 93.834 9.166.111 1.143-93.833Zm-19.42 89.027L992.5 748.58l23.474-45.55Z"/><path fill-rule="evenodd" d="M974.198 1083.67q3.688 0 6.829.45t6.991 1.62l-2.432 10.98h-3.891c-.216-3.32-.939-5.72-2.168-7.19s-3.208-2.21-5.937-2.21c-3.729 0-7.194 1.87-10.395 5.6-3.202 3.72-5.735 8.65-7.599 14.77q-2.797 9.18-2.797 17.04c0 4.11.73 7.13 2.189 9.08 1.459 1.94 3.701 2.92 6.727 2.92 2.027 0 3.796-.31 5.309-.92 1.513-.6 2.932-1.63 4.256-3.08q1.986-2.16 3.931-6.06h3.891l-2.473 11.51c-5.052 1.41-10.348 2.11-15.886 2.11q-7.62 0-11.591-4.38c-2.648-2.91-3.972-7.18-3.972-12.8q0-5.955 2.128-13.74c1.418-5.19 3.424-9.74 6.018-13.66s5.661-6.9 9.2-8.96c3.539-2.05 7.43-3.08 11.672-3.08"/><text x="945.18" y="1133.21" fill-opacity="0" font-family="Arial,Arial_MSFontService,sans-serif" font-size="56.617">ğ¶</text><path fill-rule="evenodd" d="M1002.35 1118.12h1.81c-.04 1.1-.07 2.07-.09 2.94-.01.86-.03 1.7-.04 2.51-.01.82-.01 1.62-.01 2.42v22.63c0 .62.02 1.15.05 1.6.04.44.11.82.2 1.13s.21.57.36.79c.14.22.32.41.52.56.24.24.55.43.95.56.4.12.9.23 1.52.32q.915.135 2.22.21c.86.05 1.9.09 3.11.11v2.59h-23.619v-2.59c1.172-.04 2.165-.09 2.979-.14a23 23 0 0 0 2.085-.21c.576-.09 1.037-.19 1.385-.29.347-.11.65-.25.908-.41.278-.18.516-.37.715-.58a2.3 2.3 0 0 0 .477-.79c.119-.31.213-.7.283-1.16s.104-1.02.104-1.7v-21.35c0-.78-.149-1.32-.447-1.64q-.447-.48-1.281-.48-.923 0-2.74.96c-1.211.63-2.78 1.57-4.706 2.83-.258-.46-.496-.92-.715-1.37a60 60 0 0 0-.685-1.4c2.462-1.35 4.9-2.7 7.312-4.04a539 539 0 0 1 7.345-4.01"/><text x="987.693" y="1151.69" fill-opacity="0" font-family="Arial,Arial_MSFontService,sans-serif" font-size="38.363">1</text><text font-family="Microsoft YaHei,Microsoft YaHei_MSFontService,sans-serif" font-size="83" font-weight="400" transform="translate(832.918 102)">Counter</text><path d="M689.5 445.917h48.125v9.167l-48.125-.001Zm43.542-18.333 45.833 22.917-45.833 22.916Z"/><path fill-rule="evenodd" d="M618.531 424.263h16.211l-.446 1.986q-1.54.324-2.208.729-.67.406-1.196 1.216-.527.811-1.094 2.533t-1.419 5.613l-2.877 12.928h1.337q1.703 0 3.101-.567t3.262-2.067 5.937-5.512 5.796-6.099 2.513-3.607.79-2.776q0-1.013-.811-1.641-.81-.628-2.31-.75l.446-1.986h17.386l-.446 1.986q-1.62.243-3.667 1.682t-6.262 5.613l-15.724 15.319 8.632 20.75q1.338 3.202 2.209 4.62.871 1.42 2.087 2.249 1.215.831 2.999 1.115l-.446 1.986h-15.643l.445-1.986q2.189-.203 2.189-1.945 0-1.095-.446-2.493a40 40 0 0 0-1.054-2.897l-5.268-12.888q-.933-2.31-1.621-3.242-.69-.933-1.459-1.297-.771-.365-2.391-.365h-2.27l-3.364 15.319q-.527 2.432-.689 3.83a22 22 0 0 0-.162 2.493q0 1.823.912 2.573t3.06.912l-.446 1.986h-16.211l.446-1.986q1.54-.243 2.31-.79.77-.548 1.297-1.52.526-.973.972-2.371t1.338-5.41l6.89-31.206q.891-4.053.891-6.525 0-1.905-.952-2.655-.953-.75-3.02-.871Z"/><text x="607.913" y="472.668" fill-opacity="0" font-family="Arial,Arial_MSFontService,sans-serif" font-size="55.32">ğ¾</text><path fill="#d74514" d="M1453 287h432v326h-432z"/><text fill="#fff" font-family="Microsoft YaHei,Microsoft YaHei_MSFontService,sans-serif" font-size="83" font-weight="700" transform="translate(1589.41 430)">A<tspan x="61.875" y="0">ES</tspan><tspan x="-3.163" y="99">åŠ </tspan><tspan x="79.337" y="99">å¯†</tspan></text><path fill="none" stroke="#d74514" stroke-miterlimit="8" stroke-width="9.167" d="M1593.5 822.5c0-40.869 33.13-74 74-74s74 33.131 74 74-33.13 74-74 74-74-33.131-74-74Zm148.13 0h-148.129m73.999 74.129V748.5"/><path fill-rule="evenodd" d="M1647.87 1083.67c2.46 0 4.74.15 6.83.45q3.135.45 6.99 1.62l-2.43 10.98h-3.89c-.22-3.32-.94-5.72-2.17-7.19s-3.21-2.21-5.94-2.21c-3.73 0-7.19 1.87-10.39 5.6-3.2 3.72-5.74 8.65-7.6 14.77-1.87 6.12-2.8 11.8-2.8 17.04 0 4.11.73 7.13 2.19 9.08 1.46 1.94 3.7 2.92 6.73 2.92 2.02 0 3.79-.31 5.31-.92 1.51-.6 2.93-1.63 4.25-3.08q1.995-2.16 3.93-6.06h3.89l-2.47 11.51c-5.05 1.41-10.35 2.11-15.88 2.11-5.08 0-8.95-1.46-11.6-4.38-2.64-2.91-3.97-7.18-3.97-12.8q0-5.955 2.13-13.74c1.42-5.19 3.43-9.74 6.02-13.66s5.66-6.9 9.2-8.96c3.54-2.05 7.43-3.08 11.67-3.08"/><text x="1618.85" y="1133.21" fill-opacity="0" font-family="Arial,Arial_MSFontService,sans-serif" font-size="56.617">ğ¶</text><path fill-rule="evenodd" d="M1675.6 1117.92c2.06 0 3.83.23 5.29.69 1.46.47 2.64 1.1 3.55 1.9.92.79 1.58 1.74 1.99 2.86.4 1.11.61 2.31.61 3.6 0 .77-.06 1.49-.17 2.16-.11.66-.3 1.32-.56 1.96-.27.65-.62 1.3-1.06 1.96-.44.65-.98 1.35-1.64 2.08-.5.64-1.14 1.37-1.94 2.2-.79.84-1.66 1.73-2.6 2.69-.94.95-1.93 1.94-2.96 2.97-1.04 1.04-2.04 2.06-3.01 3.07-.98 1.01-1.87 2-2.68 2.95-.82.95-1.48 1.83-2 2.62h11.02c.93 0 1.68-.03 2.23-.1.56-.07 1.02-.23 1.39-.46.37-.24.68-.6.94-1.09s.55-1.16.89-2.01h2.77c-.1 1.41-.19 2.83-.28 4.26s-.18 2.85-.28 4.26h-25.23v-1.55a26 26 0 0 1 1.67-3.17c.63-1.05 1.35-2.1 2.14-3.18.79-1.07 1.7-2.18 2.71-3.32a82 82 0 0 1 3.37-3.56c1.86-1.86 3.38-3.46 4.55-4.78 1.18-1.32 2.1-2.49 2.77-3.53.68-1.03 1.14-1.98 1.39-2.86.25-.87.37-1.8.37-2.8 0-1.01-.14-1.94-.43-2.8-.29-.85-.7-1.57-1.24-2.17-.53-.6-1.21-1.06-2.04-1.4-.82-.34-1.77-.51-2.84-.51-1.85 0-3.4.51-4.65 1.51s-2.22 2.46-2.92 4.36h-3.9v-5.81c2.54-1.05 4.88-1.81 7.02-2.29 2.13-.48 4.05-.71 5.76-.71"/><text x="1661.87" y="1151.67" fill-opacity="0" font-family="Arial,Arial_MSFontService,sans-serif" font-size="38.572">2</text><text font-family="Microsoft YaHei,Microsoft YaHei_MSFontService,sans-serif" font-size="83" font-weight="400" transform="translate(1452.83 102)">Counter+1</text><path d="M1363.5 445.917h48.13v9.167l-48.13-.001Zm43.54-18.333 45.84 22.917-45.84 22.916Z"/><path fill-rule="evenodd" d="M1293.15 424.263h16.22l-.45 1.986c-1.03.216-1.76.459-2.21.729-.44.271-.84.676-1.19 1.216-.36.541-.72 1.385-1.1 2.533s-.85 3.019-1.42 5.613l-2.87 12.928h1.33c1.14 0 2.17-.189 3.1-.567.94-.378 2.02-1.067 3.27-2.067 1.24-1 3.22-2.837 5.93-5.512 2.72-2.674 4.65-4.708 5.8-6.099s1.98-2.594 2.51-3.607.79-1.938.79-2.776q0-1.013-.81-1.641t-2.31-.75l.45-1.986h17.38l-.44 1.986c-1.08.162-2.31.723-3.67 1.682-1.37.959-3.45 2.83-6.26 5.613l-15.73 15.319 8.64 20.75c.89 2.135 1.62 3.675 2.2 4.62.59.946 1.28 1.696 2.09 2.249q1.215.831 3 1.115l-.45 1.986h-15.64l.45-1.986q2.19-.203 2.19-1.945 0-1.095-.45-2.493a45 45 0 0 0-1.05-2.897l-5.27-12.888q-.93-2.31-1.62-3.242c-.46-.622-.95-1.054-1.46-1.297-.52-.243-1.31-.365-2.39-.365h-2.27l-3.37 15.319q-.525 2.432-.69 3.83c-.1.932-.16 1.763-.16 2.493 0 1.215.31 2.073.91 2.573q.915.75 3.06.912l-.44 1.986h-16.21l.44-1.986q1.545-.243 2.31-.79c.52-.365.95-.872 1.3-1.52.35-.649.67-1.439.97-2.371s.75-2.736 1.34-5.41l6.89-31.206c.59-2.702.89-4.877.89-6.525 0-1.27-.32-2.155-.95-2.655-.64-.5-1.64-.79-3.02-.871Z"/><text x="1282.54" y="472.668" fill-opacity="0" font-family="Arial,Arial_MSFontService,sans-serif" font-size="55.32">ğ¾</text><path fill="#d74514" d="M2407 287h433v326h-433z"/><text fill="#fff" font-family="Microsoft YaHei,Microsoft YaHei_MSFontService,sans-serif" font-size="83" font-weight="700" transform="translate(2544.16 430)">A<tspan x="61.875" y="0">ES</tspan><tspan x="-3.163" y="99">åŠ </tspan><tspan x="79.337" y="99">å¯†</tspan></text><path fill="none" stroke="#d74514" stroke-miterlimit="8" stroke-width="9.167" d="M2548.5 822.5c0-40.869 33.13-74 74-74s74 33.131 74 74-33.13 74-74 74-74-33.131-74-74Zm148.13 0h-148.129m73.999 74.129V748.5"/><path fill-rule="evenodd" d="M2596.76 1083.67c2.46 0 4.74.15 6.83.45q3.15.45 6.99 1.62l-2.43 10.98h-3.89c-.21-3.32-.94-5.72-2.17-7.19s-3.2-2.21-5.93-2.21c-3.73 0-7.2 1.87-10.4 5.6-3.2 3.72-5.73 8.65-7.6 14.77q-2.79 9.18-2.79 17.04c0 4.11.73 7.13 2.18 9.08 1.46 1.94 3.71 2.92 6.73 2.92 2.03 0 3.8-.31 5.31-.92 1.51-.6 2.93-1.63 4.26-3.08q1.98-2.16 3.93-6.06h3.89l-2.47 11.51c-5.06 1.41-10.35 2.11-15.89 2.11-5.08 0-8.94-1.46-11.59-4.38-2.65-2.91-3.97-7.18-3.97-12.8 0-3.97.71-8.55 2.12-13.74 1.42-5.19 3.43-9.74 6.02-13.66 2.6-3.92 5.66-6.9 9.2-8.96 3.54-2.05 7.43-3.08 11.67-3.08"/><text x="2567.75" y="1133.21" fill-opacity="0" font-family="Arial,Arial_MSFontService,sans-serif" font-size="56.617">ğ¶</text><path fill-rule="evenodd" d="M2615.97 1117.86h10.28c.93 2.48 1.89 4.97 2.87 7.49a643 643 0 0 1 2.91 7.52c.95 2.5 1.87 4.97 2.75 7.4.89 2.43 1.7 4.81 2.43 7.13h.39c.22-1.27.49-2.77.83-4.51s.74-3.54 1.19-5.41c.34-1.41.68-2.86 1.03-4.34.35-1.49.67-2.92.97-4.29s.54-2.64.73-3.8.28-2.12.28-2.88c0-.87-.22-1.49-.67-1.86-.44-.36-1.27-.56-2.48-.58l.41-1.87h11.05l-.38 1.78c-.68.2-1.22.37-1.61.52q-.6.225-1.02.87c-.27.42-.54 1.05-.79 1.86-.24.81-.54 1.98-.87 3.51l-6.74 30.09h-4.49c-1.06-2.7-2.13-5.42-3.23-8.16-1.11-2.74-2.19-5.48-3.25-8.23-1.06-2.74-2.08-5.46-3.05-8.16-.98-2.7-1.86-5.36-2.66-7.98h-.38c-.1.62-.22 1.33-.36 2.15-.14.81-.29 1.69-.46 2.63-.17.95-.35 1.91-.54 2.91-.19.99-.38 1.98-.58 2.97-.18.76-.39 1.64-.64 2.64s-.5 2.08-.76 3.22-.52 2.3-.79 3.47-.51 2.29-.73 3.35-.39 2.03-.52 2.9c-.13.88-.19 1.56-.19 2.06 0 .83.24 1.42.71 1.77.48.35 1.29.56 2.45.64l-.33 1.82h-11.11l.38-1.82c.6-.1 1.1-.22 1.49-.36.4-.14.75-.42 1.05-.85.29-.42.58-1.06.85-1.92.26-.85.57-2.05.9-3.6l4.89-21.71c.18-.8.31-1.54.4-2.22.09-.69.13-1.3.13-1.84 0-.87-.22-1.49-.68-1.86-.46-.36-1.29-.56-2.5-.58Z"/><text x="2608.62" y="1151.66" fill-opacity="0" font-family="Arial,Arial_MSFontService,sans-serif" font-size="38.631">ğ‘</text><text font-family="Microsoft YaHei,Microsoft YaHei_MSFontService,sans-serif" font-size="83" font-weight="400" transform="translate(2356.3 102)">Counter+N<tspan x="447.448" y="0">-</tspan><tspan x="482.969" y="0">1</tspan></text><path d="M2318.5 445.917h48.12v9.167l-48.12-.001Zm43.54-18.333 45.84 22.917-45.84 22.916Z"/><path fill-rule="evenodd" d="M2247.9 424.263h16.22l-.45 1.986c-1.03.216-1.76.459-2.21.729-.45.271-.84.676-1.19 1.216-.36.541-.72 1.385-1.1 2.533s-.85 3.019-1.42 5.613l-2.87 12.928h1.33c1.14 0 2.17-.189 3.1-.567q1.395-.567 3.27-2.067c1.24-1 3.22-2.837 5.93-5.512 2.72-2.674 4.65-4.708 5.8-6.099s1.98-2.594 2.51-3.607.79-1.938.79-2.776q0-1.013-.81-1.641t-2.31-.75l.45-1.986h17.38l-.44 1.986c-1.08.162-2.31.723-3.67 1.682-1.37.959-3.45 2.83-6.26 5.613l-15.73 15.319 8.63 20.75c.9 2.135 1.63 3.675 2.21 4.62s1.28 1.696 2.09 2.249q1.215.831 3 1.115l-.45 1.986h-15.64l.45-1.986c1.46-.135 2.18-.784 2.18-1.945 0-.73-.14-1.561-.44-2.493a45 45 0 0 0-1.05-2.897l-5.27-12.888c-.62-1.54-1.17-2.621-1.62-3.242-.46-.622-.95-1.054-1.46-1.297-.52-.243-1.31-.365-2.39-.365h-2.27l-3.37 15.319q-.525 2.432-.69 3.83c-.1.932-.16 1.763-.16 2.493 0 1.215.31 2.073.91 2.573q.915.75 3.06.912l-.44 1.986h-16.21l.44-1.986q1.545-.243 2.31-.79c.52-.365.95-.872 1.3-1.52.35-.649.67-1.439.97-2.371s.74-2.736 1.34-5.41l6.89-31.206c.59-2.702.89-4.877.89-6.525 0-1.27-.32-2.155-.95-2.655-.64-.5-1.64-.79-3.02-.871Z"/><text x="2237.29" y="472.668" fill-opacity="0" font-family="Arial,Arial_MSFontService,sans-serif" font-size="55.32">ğ¾</text><path fill-rule="evenodd" d="M2077.77 450.646c1.41 0 2.58.493 3.53 1.48.95.986 1.42 2.235 1.42 3.748s-.47 2.763-1.42 3.749-2.12 1.479-3.53 1.479c-1.4 0-2.58-.493-3.52-1.479-.95-.986-1.42-2.236-1.42-3.749s.47-2.762 1.42-3.748c.94-.987 2.12-1.48 3.52-1.48m-24.56 0c1.41 0 2.58.493 3.53 1.48.95.986 1.42 2.235 1.42 3.748s-.47 2.763-1.42 3.749-2.12 1.479-3.53 1.479c-1.4 0-2.58-.493-3.52-1.479-.95-.986-1.42-2.236-1.42-3.749s.47-2.762 1.42-3.748c.94-.987 2.12-1.48 3.52-1.48m-24.55 0c1.4 0 2.58.493 3.52 1.48.95.986 1.42 2.235 1.42 3.748s-.47 2.763-1.42 3.749c-.94.986-2.12 1.479-3.52 1.479-1.41 0-2.59-.493-3.53-1.479-.95-.986-1.42-2.236-1.42-3.749s.47-2.762 1.42-3.748c.94-.987 2.12-1.48 3.53-1.48"/><text x="2023.71" y="459.795" fill-opacity="0" font-family="Arial,Arial_MSFontService,sans-serif" font-size="10.456">â‹¯</text><path fill-rule="evenodd" d="M692.296 799.682q-2.512 0-5.268.122l-5.512 24.56h4.215q4.903 0 7.923-1.014 3.02-1.013 4.944-3.14 1.925-2.129 2.979-5.046 1.053-2.918 1.054-6.403 0-4.702-2.392-6.89-2.39-2.189-7.943-2.189m-16.981-3.566h17.873q4.822 0 7.923.75t5.106 2.31a9.55 9.55 0 0 1 2.999 3.951q.993 2.391.993 5.553 0 6.079-2.877 10.537-2.878 4.458-7.802 6.565t-11.814 2.107q-4.133 0-6.889-.162l-2.594 11.915a48 48 0 0 0-.506 2.554 32 32 0 0 0-.244 1.925 19 19 0 0 0-.101 1.844q0 1.255.405 1.965t1.216 1.034 2.796.486l-.445 1.986h-16.657l.446-1.986q1.539-.244 2.31-.79.77-.548 1.297-1.52t.972-2.371q.446-1.398 1.338-5.41l6.889-31.206q.892-4.053.892-6.404 0-1.986-.932-2.756-.933-.77-3.04-.891Z"/><text x="664.697" y="844.521" fill-opacity="0" font-family="Arial,Arial_MSFontService,sans-serif" font-size="55.32">ğ‘ƒ</text><path fill-rule="evenodd" d="M722.711 829.916h1.817a220 220 0 0 0-.135 5.451 218 218 0 0 0-.014 2.413v22.636q0 .924.059 1.594.06.67.194 1.132.133.461.357.789.224.327.521.566.358.357.954.551.595.193 1.519.328.923.133 2.219.208t3.112.104v2.592h-23.619v-2.592q1.757-.059 2.978-.134a23 23 0 0 0 2.085-.208 10 10 0 0 0 1.385-.298q.52-.163.908-.402.418-.269.715-.581.298-.313.477-.789.178-.477.283-1.162.104-.686.104-1.698V839.06q0-1.161-.447-1.638t-1.28-.476q-.923 0-2.741.953-1.817.952-4.706 2.829a23 23 0 0 1-.715-1.37 80 80 0 0 0-.685-1.4q3.694-2.025 7.313-4.036t7.342-4.006"/><text x="708.056" y="863.484" fill-opacity="0" font-family="Arial,Arial_MSFontService,sans-serif" font-size="38.363">1</text><path fill-rule="evenodd" d="M2302.39 799.682c-1.67 0-3.43.041-5.27.122l-5.51 24.56h4.22q4.905 0 7.92-1.014c2.01-.675 3.66-1.722 4.94-3.14 1.29-1.419 2.28-3.101 2.98-5.046.71-1.945 1.06-4.08 1.06-6.403 0-3.135-.8-5.431-2.39-6.89q-2.4-2.189-7.95-2.189m-16.98-3.566h17.87c3.22 0 5.86.25 7.93.75 2.06.5 3.77 1.27 5.1 2.31a9.5 9.5 0 0 1 3 3.951c.66 1.594 1 3.445 1 5.553q0 6.079-2.88 10.537t-7.8 6.565c-3.29 1.405-7.22 2.107-11.82 2.107-2.75 0-5.05-.054-6.89-.162l-2.59 11.915a60 60 0 0 0-.51 2.554q-.135.891-.24 1.925c-.07.689-.1 1.303-.1 1.844 0 .837.13 1.492.4 1.965s.68.818 1.22 1.034 1.47.378 2.8.486l-.45 1.986h-16.66l.45-1.986q1.545-.244 2.31-.79c.51-.365.94-.872 1.3-1.52.35-.648.67-1.439.97-2.371s.74-2.735 1.34-5.41l6.89-31.206c.59-2.702.89-4.837.89-6.404 0-1.324-.31-2.242-.94-2.756q-.93-.77-3.03-.891Z"/><text x="2274.79" y="844.521" fill-opacity="0" font-family="Arial,Arial_MSFontService,sans-serif" font-size="55.32">ğ‘ƒ</text><path fill-rule="evenodd" d="M2323.87 829.648h10.27c.94 2.482 1.89 4.979 2.88 7.491.98 2.512 1.95 5.019 2.9 7.521q1.425 3.753 2.76 7.402c.88 2.432 1.69 4.81 2.42 7.133h.39c.22-1.271.5-2.775.83-4.512q.51-2.607 1.2-5.406c.33-1.41.68-2.86 1.02-4.349.35-1.489.67-2.919.97-4.289s.54-2.636.73-3.798.28-2.119.28-2.874c0-.874-.22-1.494-.67-1.861-.44-.368-1.27-.561-2.48-.581l.41-1.877h11.05l-.38 1.787c-.68.199-1.21.373-1.61.522s-.74.436-1.01.863c-.28.427-.54 1.048-.79 1.862s-.54 1.986-.88 3.515l-6.73 30.083h-4.5a808 808 0 0 0-3.23-8.162c-1.1-2.74-2.19-5.48-3.25-8.22a360 360 0 0 1-3.05-8.161c-.97-2.701-1.86-5.362-2.65-7.983h-.39q-.15.924-.36 2.145c-.14.814-.29 1.693-.46 2.636q-.255 1.414-.54 2.904c-.18.993-.38 1.985-.58 2.978-.17.755-.39 1.634-.64 2.636-.24 1.003-.5 2.075-.76 3.217-.25 1.142-.52 2.298-.79 3.47-.26 1.172-.51 2.289-.72 3.351-.22 1.062-.4 2.03-.53 2.904s-.19 1.559-.19 2.055q0 1.251.72 1.772c.47.348 1.29.561 2.44.641l-.33 1.817h-11.11l.39-1.817c.59-.1 1.09-.219 1.49-.358.39-.139.74-.422 1.04-.849s.58-1.067.85-1.921.57-2.055.91-3.604l4.88-21.713c.18-.794.31-1.534.4-2.219s.14-1.296.14-1.832q0-1.31-.69-1.861c-.45-.368-1.29-.561-2.5-.581Z"/><text x="2316.51" y="863.451" fill-opacity="0" font-family="Arial,Arial_MSFontService,sans-serif" font-size="38.631">ğ‘</text><path d="M2388.5 817.917h118.92v9.167l-118.92-.001Zm114.34-18.333 45.83 22.916-45.83 22.917Zm-838.273-186.14-1.143 93.834 9.166.111 1.143-93.833Zm-19.42 89.027 22.357 46.109 23.474-45.55Zm974.42-89.027-1.143 93.834 9.166.111 1.143-93.833Zm-19.42 89.027 22.357 46.109 23.474-45.55ZM754.5 817.917h122.718v9.167l-122.718-.001Zm118.135-18.333 45.833 22.916-45.833 22.917ZM987.917 896.5v106.074h9.166V896.5Zm-18.334 101.491 22.917 45.833 22.916-45.833ZM1662.917 896.5v106.074h9.166V896.5Zm-18.334 101.491 22.917 45.833 22.916-45.833ZM2617.917 896.5v106.074h9.166V896.5Zm-18.334 101.491 22.917 45.833 22.916-45.833Zm-1602.5-858.542 1.188 107.13-9.166.102-1.188-107.13Zm19.467 102.344-22.404 46.085-23.424-45.577Zm655.53-102.344 1.19 107.13-9.16.102-1.19-107.13Zm19.47 102.344-22.4 46.084-23.43-45.576Zm935.53-102.344 1.19 107.13-9.16.102-1.19-107.13Zm19.47 102.344-22.4 46.084-23.43-45.576Z"/><path fill-rule="evenodd" d="M1368.8 799.682c-1.67 0-3.43.041-5.26.122l-5.52 24.56h4.22q4.905 0 7.92-1.014 3.015-1.013 4.95-3.14 1.92-2.129 2.97-5.046c.71-1.945 1.06-4.08 1.06-6.403 0-3.135-.8-5.431-2.39-6.89-1.6-1.459-4.24-2.189-7.95-2.189m-16.98-3.566h17.88q4.815 0 7.92.75c2.07.5 3.77 1.27 5.11 2.31a9.6 9.6 0 0 1 2.99 3.951c.67 1.594 1 3.445 1 5.553q0 6.079-2.88 10.537t-7.8 6.565-11.82 2.107c-2.75 0-5.05-.054-6.89-.162l-2.59 11.915a60 60 0 0 0-.51 2.554q-.135.891-.24 1.925c-.07.689-.1 1.303-.1 1.844 0 .837.14 1.492.41 1.965s.67.818 1.21 1.034 1.47.378 2.8.486l-.45 1.986h-16.65l.44-1.986q1.545-.244 2.31-.79c.51-.365.95-.872 1.3-1.52s.67-1.439.97-2.371.74-2.735 1.34-5.41l6.89-31.206c.59-2.702.89-4.837.89-6.404q0-1.986-.93-2.756c-.62-.513-1.64-.81-3.04-.891Z"/><text x="1341.21" y="844.521" fill-opacity="0" font-family="Arial,Arial_MSFontService,sans-serif" font-size="55.32">ğ‘ƒ</text><path fill-rule="evenodd" d="M1398.8 829.708q3.09 0 5.28.7c1.46.466 2.65 1.097 3.56 1.891a6.74 6.74 0 0 1 1.98 2.86c.41 1.112.62 2.313.62 3.604 0 .774-.06 1.494-.17 2.159s-.3 1.32-.56 1.966c-.27.645-.63 1.295-1.06 1.951-.44.655-.98 1.35-1.64 2.085-.5.635-1.14 1.37-1.94 2.204-.79.834-1.66 1.727-2.6 2.68-.95.954-1.93 1.946-2.97 2.979a207 207 0 0 0-3 3.068 67 67 0 0 0-2.69 2.949c-.81.953-1.47 1.826-1.99 2.621h11.02c.93 0 1.68-.035 2.23-.105.56-.069 1.02-.223 1.39-.461s.68-.601.94-1.087c.26-.487.55-1.157.89-2.011h2.77c-.1 1.41-.19 2.83-.28 4.259s-.19 2.85-.29 4.26h-25.22v-1.549c.47-1.072 1.03-2.13 1.66-3.172.64-1.043 1.35-2.1 2.15-3.172.79-1.073 1.7-2.18 2.71-3.322a76 76 0 0 1 3.37-3.559c1.86-1.866 3.38-3.46 4.55-4.78s2.1-2.497 2.77-3.53c.68-1.032 1.14-1.986 1.39-2.859.25-.874.37-1.807.37-2.8 0-1.013-.14-1.946-.43-2.8s-.7-1.578-1.24-2.174q-.795-.894-2.04-1.4c-.82-.338-1.77-.506-2.84-.506q-2.775 0-4.65 1.504c-1.25 1.002-2.22 2.457-2.92 4.363h-3.9v-5.808c2.54-1.052 4.88-1.817 7.01-2.293 2.14-.477 4.06-.715 5.77-.715"/><text x="1385.07" y="863.458" fill-opacity="0" font-family="Arial,Arial_MSFontService,sans-serif" font-size="38.572">2</text><path d="M1432.5 817.917h122.72v9.167l-122.72-.001Zm118.13-18.333 45.84 22.916-45.84 22.917Z"/></g></svg>