<svg xmlns="http://www.w3.org/2000/svg" width="2232" height="1183" overflow="hidden"><defs><clipPath id="a"><path d="M51 127h2232v1183H51z"/></clipPath></defs><g clip-path="url(#a)" transform="translate(-51 -127)"><path fill="#d74514" d="M221 674h433v325H221z"/><text fill="#fff" font-family="Microsoft YaHei,Microsoft YaHei_MSFontService,sans-serif" font-size="83" font-weight="700" transform="translate(356.556 817)">DES<tspan x="-1.444" y="99">тіат»є</tspan></text><path fill-rule="evenodd" d="M414.861 171.393q-2.513 0-5.268.121l-5.512 24.56h4.215q4.903 0 7.923-1.013 3.02-1.014 4.944-3.141 1.925-2.129 2.979-5.046 1.053-2.918 1.054-6.403 0-4.701-2.391-6.89t-7.944-2.188m-16.981-3.567h17.873q4.823 0 7.923.75t5.106 2.31a9.55 9.55 0 0 1 2.999 3.951q.993 2.392.993 5.553 0 6.078-2.877 10.537-2.878 4.458-7.802 6.565t-11.813 2.108q-4.134 0-6.89-.162l-2.594 11.915a47 47 0 0 0-.506 2.553 32 32 0 0 0-.244 1.925 19 19 0 0 0-.101 1.844q0 1.256.405 1.965.406.71 1.216 1.034.811.324 2.797.486l-.446 1.986h-16.657l.446-1.986q1.54-.243 2.31-.79t1.297-1.52q.526-.972.972-2.371.446-1.398 1.338-5.41l6.889-31.206q.892-4.053.892-6.403 0-1.986-.932-2.756t-3.04-.892Z"/><text x="387.262" y="216.231" fill-opacity="0" font-family="Arial,Arial_MSFontService,sans-serif" font-size="55.32">­ЮЉЃ</text><path fill-rule="evenodd" d="M445.276 201.627h1.817a221 221 0 0 0-.134 5.45q-.015 1.221-.015 2.413v22.637q0 .923.059 1.593.06.67.194 1.132t.357.789q.223.328.522.566.357.357.953.551.595.193 1.519.328a26 26 0 0 0 2.219.208q1.295.075 3.112.105v2.591H432.26v-2.591q1.757-.06 2.978-.135a23 23 0 0 0 2.085-.208 10 10 0 0 0 1.385-.298q.521-.163.909-.402.417-.268.714-.581a2.3 2.3 0 0 0 .477-.789q.178-.477.283-1.162t.104-1.697v-21.356q0-1.162-.447-1.639-.446-.476-1.28-.476-.924 0-2.741.953t-4.706 2.83a23 23 0 0 1-.715-1.371 80 80 0 0 0-.685-1.399q3.694-2.026 7.313-4.036a540 540 0 0 1 7.342-4.006"/><text x="430.621" y="235.194" fill-opacity="0" font-family="Arial,Arial_MSFontService,sans-serif" font-size="38.363">1</text><path d="m442.083 260.488.947 372.176-9.166.023-.947-372.175Zm19.269 367.546-22.8 45.891-23.033-45.774Z"/><path fill-rule="evenodd" d="M418.284 1216.57q3.687 0 6.828.45t6.991 1.62l-2.431 10.98h-3.891c-.216-3.32-.939-5.72-2.168-7.19s-3.209-2.21-5.937-2.21c-3.729 0-7.194 1.86-10.396 5.59-3.201 3.73-5.734 8.66-7.599 14.78-1.864 6.11-2.796 11.8-2.796 17.04 0 4.1.73 7.13 2.189 9.08q2.188 2.91 6.727 2.91c2.026 0 3.796-.3 5.309-.91s2.932-1.63 4.256-3.08q1.985-2.16 3.931-6.06h3.89l-2.472 11.51c-5.052 1.41-10.348 2.11-15.887 2.11q-7.619 0-11.59-4.38c-2.648-2.92-3.972-7.18-3.972-12.8q0-5.97 2.128-13.74c1.418-5.19 3.424-9.74 6.018-13.66s5.66-6.9 9.2-8.96c3.539-2.05 7.43-3.08 11.672-3.08"/><text x="389.266" y="1266.11" fill-opacity="0" font-family="Arial,Arial_MSFontService,sans-serif" font-size="56.617">­ЮљХ</text><path fill-rule="evenodd" d="M446.433 1251.02h1.817a216 216 0 0 0-.149 7.86v22.64q0 .93.06 1.59.059.675.193 1.14c.09.3.209.57.358.79.149.21.322.4.521.56.238.24.556.42.953.55q.596.195 1.519.33.924.135 2.219.21c.864.05 1.901.08 3.113.1v2.59h-23.62v-2.59c1.172-.04 2.164-.08 2.979-.13q1.221-.075 2.084-.21a10 10 0 0 0 1.385-.3c.348-.11.651-.24.909-.4.278-.18.516-.37.715-.58s.357-.47.476-.79.214-.7.283-1.16c.07-.46.105-1.02.105-1.7v-21.35c0-.78-.149-1.32-.447-1.64q-.447-.48-1.281-.48c-.616 0-1.529.32-2.74.95-1.212.64-2.78 1.58-4.706 2.83-.258-.45-.497-.91-.715-1.37-.219-.45-.447-.92-.685-1.4 2.462-1.35 4.899-2.69 7.312-4.03s4.86-2.68 7.342-4.01"/><text x="431.779" y="1284.59" fill-opacity="0" font-family="Arial,Arial_MSFontService,sans-serif" font-size="38.363">1</text><path d="m433.969 999.473-.807 135.667 9.167.055.806-135.668Zm-19.113 130.975 22.644 45.969 23.189-45.697ZM132.5 832.917h48.125v9.166H132.5Zm43.542-18.334 45.833 22.917-45.834 22.917Z"/><path fill-rule="evenodd" d="M62.023 810.778h16.21l-.445 1.986q-1.54.324-2.209.729-.668.406-1.195 1.216-.528.811-1.094 2.533-.569 1.722-1.419 5.613l-2.877 12.928h1.337q1.702 0 3.1-.567t3.263-2.067 5.937-5.512 5.796-6.099 2.512-3.607.79-2.776q0-1.014-.81-1.641-.81-.629-2.31-.75l.446-1.986h17.386l-.446 1.986q-1.621.243-3.668 1.682-2.046 1.439-6.261 5.613L80.34 835.378l8.633 20.75q1.337 3.202 2.208 4.62.872 1.42 2.087 2.249 1.216.831 3 1.115l-.446 1.986H80.179l.446-1.986q2.189-.203 2.189-1.945-.001-1.095-.446-2.493a40 40 0 0 0-1.054-2.897l-5.269-12.888q-.931-2.31-1.62-3.242-.69-.933-1.46-1.297-.77-.365-2.39-.365h-2.27l-3.364 15.319q-.526 2.432-.69 3.83a22 22 0 0 0-.161 2.493q0 1.823.912 2.573.911.75 3.06.912l-.446 1.986H51.405l.446-1.986q1.539-.244 2.31-.79.77-.548 1.297-1.52.526-.973.972-2.371t1.338-5.41l6.89-31.206q.89-4.053.89-6.525 0-1.905-.952-2.655-.951-.75-3.019-.871Z"/><text x="51.405" y="859.183" fill-opacity="0" font-family="Arial,Arial_MSFontService,sans-serif" font-size="55.32">­ЮљЙ</text><path fill="#d74514" d="M896 674h432v325H896z"/><text fill="#fff" font-family="Microsoft YaHei,Microsoft YaHei_MSFontService,sans-serif" font-size="83" font-weight="700" transform="translate(1031.18 817)">DES<tspan x="-1.444" y="99">тіат»є</tspan></text><path fill="none" stroke="#d74514" stroke-miterlimit="8" stroke-width="9.167" d="M1037.5 468c0-41.145 33.13-74.5 74-74.5s74 33.355 74 74.5-33.13 74.5-74 74.5-74-33.355-74-74.5Zm148.13.5h-148.129m73.999 73.129V393.5"/><path d="m1116.08 542.464.73 91.07-9.17.072-.72-91.07Zm19.02 86.341-22.55 46.014-23.28-45.65Z"/><path fill-rule="evenodd" d="M1088.53 171.393c-1.67 0-3.43.04-5.26.121l-5.52 24.56h4.22q4.905 0 7.92-1.013 3.015-1.014 4.95-3.141 1.92-2.129 2.97-5.046c.71-1.945 1.06-4.08 1.06-6.403 0-3.134-.8-5.431-2.39-6.89-1.6-1.459-4.24-2.188-7.95-2.188m-16.98-3.567h17.88q4.815 0 7.92.75c2.07.5 3.77 1.27 5.11 2.31a9.6 9.6 0 0 1 2.99 3.951c.67 1.595 1 3.445 1 5.553q0 6.078-2.88 10.537-2.88 4.458-7.8 6.565t-11.82 2.108c-2.75 0-5.05-.054-6.89-.162l-2.59 11.915a60 60 0 0 0-.51 2.553q-.135.891-.24 1.925c-.07.689-.1 1.304-.1 1.844 0 .837.14 1.493.41 1.965.27.473.67.818 1.21 1.034s1.47.378 2.8.486l-.45 1.986h-16.66l.45-1.986q1.545-.243 2.31-.79c.51-.365.95-.871 1.3-1.52.35-.648.67-1.439.97-2.371s.74-2.735 1.34-5.41l6.89-31.206c.59-2.702.89-4.836.89-6.403q0-1.986-.93-2.756c-.62-.514-1.64-.811-3.04-.892Z"/><text x="1060.93" y="216.231" fill-opacity="0" font-family="Arial,Arial_MSFontService,sans-serif" font-size="55.32">­ЮЉЃ</text><path fill-rule="evenodd" d="M1118.53 201.418q3.09 0 5.28.7c1.46.467 2.65 1.097 3.56 1.891a6.75 6.75 0 0 1 1.98 2.86c.41 1.112.61 2.313.61 3.604 0 .774-.05 1.494-.16 2.159a8.8 8.8 0 0 1-.57 1.966c-.26.645-.62 1.296-1.05 1.951-.44.655-.99 1.35-1.64 2.085-.5.635-1.14 1.37-1.94 2.204-.79.834-1.66 1.728-2.6 2.681-.95.953-1.93 1.946-2.97 2.978a212 212 0 0 0-3 3.068 68 68 0 0 0-2.69 2.949c-.81.953-1.47 1.827-1.99 2.621h11.02c.93 0 1.68-.035 2.23-.104.56-.07 1.02-.224 1.39-.462s.68-.601.94-1.087c.25-.487.55-1.157.89-2.011h2.77c-.1 1.41-.19 2.83-.28 4.26s-.19 2.849-.29 4.259h-25.22v-1.549c.47-1.072 1.03-2.13 1.66-3.172.64-1.043 1.35-2.1 2.15-3.172a48 48 0 0 1 2.71-3.321 81 81 0 0 1 3.36-3.56q2.805-2.8 4.56-4.78c1.17-1.321 2.1-2.497 2.77-3.53.68-1.032 1.14-1.985 1.39-2.859s.37-1.807.37-2.8c0-1.013-.14-1.946-.43-2.8s-.7-1.578-1.24-2.174q-.795-.894-2.04-1.4c-.82-.337-1.77-.506-2.84-.506q-2.775 0-4.65 1.504c-1.25 1.003-2.22 2.457-2.92 4.363h-3.9v-5.808c2.54-1.052 4.88-1.817 7.01-2.293 2.14-.477 4.06-.715 5.77-.715"/><text x="1104.8" y="235.168" fill-opacity="0" font-family="Arial,Arial_MSFontService,sans-serif" font-size="38.572">2</text><path d="M1116.08 260.5v91.727h-9.16V260.5Zm18.34 87.144-22.92 45.833-22.92-45.833Z"/><path fill-rule="evenodd" d="M1091.96 1216.57c2.45 0 4.73.15 6.82.45 2.1.3 4.43.84 7 1.62l-2.44 10.98h-3.89c-.21-3.32-.94-5.72-2.16-7.19-1.23-1.47-3.21-2.21-5.94-2.21-3.73 0-7.2 1.86-10.4 5.59s-5.73 8.66-7.6 14.78c-1.86 6.11-2.79 11.8-2.79 17.04 0 4.1.73 7.13 2.19 9.08q2.19 2.91 6.72 2.91c2.03 0 3.8-.3 5.31-.91 1.52-.61 2.93-1.63 4.26-3.08q1.98-2.16 3.93-6.06h3.89l-2.47 11.51c-5.05 1.41-10.35 2.11-15.89 2.11-5.08 0-8.94-1.46-11.59-4.38s-3.97-7.18-3.97-12.8q0-5.97 2.13-13.74c1.41-5.19 3.42-9.74 6.01-13.66 2.6-3.92 5.66-6.9 9.2-8.96 3.54-2.05 7.43-3.08 11.68-3.08"/><text x="1062.94" y="1266.11" fill-opacity="0" font-family="Arial,Arial_MSFontService,sans-serif" font-size="56.617">­ЮљХ</text><path fill-rule="evenodd" d="M1119.68 1250.81c2.07 0 3.83.24 5.29.7 1.46.47 2.65 1.1 3.56 1.89.91.8 1.57 1.75 1.98 2.86.41 1.12.61 2.32.61 3.61 0 .77-.05 1.49-.16 2.16-.11.66-.3 1.32-.57 1.96-.27.65-.62 1.3-1.06 1.95-.43.66-.98 1.35-1.63 2.09-.5.63-1.15 1.37-1.94 2.2-.79.84-1.66 1.73-2.61 2.68-.94.96-1.93 1.95-2.96 2.98s-2.03 2.06-3.01 3.07c-.97 1.01-1.86 2-2.68 2.95-.81.95-1.48 1.83-1.99 2.62h11.02c.93 0 1.67-.04 2.23-.1.56-.07 1.02-.23 1.39-.47.36-.23.68-.6.93-1.08q.39-.735.9-2.01h2.77c-.1 1.41-.2 2.83-.29 4.26-.08 1.43-.18 2.84-.28 4.25h-25.23v-1.54a29 29 0 0 1 1.67-3.18c.64-1.04 1.35-2.1 2.15-3.17.79-1.07 1.69-2.18 2.71-3.32 1.01-1.14 2.13-2.33 3.36-3.56 1.87-1.87 3.39-3.46 4.56-4.78s2.09-2.5 2.77-3.53c.67-1.03 1.14-1.98 1.38-2.86.25-.87.38-1.81.38-2.8 0-1.01-.15-1.94-.44-2.8-.28-.85-.7-1.58-1.23-2.17-.54-.6-1.22-1.06-2.04-1.4-.83-.34-1.77-.51-2.85-.51-1.84 0-3.39.5-4.64 1.51-1.25 1-2.23 2.45-2.92 4.36h-3.9v-5.81c2.54-1.05 4.88-1.82 7.01-2.29q3.21-.72 5.76-.72"/><text x="1105.95" y="1284.56" fill-opacity="0" font-family="Arial,Arial_MSFontService,sans-serif" font-size="38.572">2</text><path d="m1107.967 999.473-.807 135.667 9.167.055.806-135.668Zm-19.113 130.975 22.644 45.969 23.189-45.697ZM807.5 832.917h48.125v9.166H807.5Zm43.542-18.334 45.833 22.917-45.833 22.917Z"/><path fill-rule="evenodd" d="M736.647 810.778h16.211l-.446 1.986q-1.54.324-2.209.729-.669.406-1.196 1.216-.527.811-1.094 2.533t-1.418 5.613l-2.878 12.928h1.338q1.702 0 3.1-.567t3.263-2.067q1.863-1.5 5.937-5.512t5.795-6.099 2.513-3.607q.79-1.52.79-2.776 0-1.014-.81-1.641-.812-.629-2.31-.75l.445-1.986h17.387l-.446 1.986q-1.622.243-3.668 1.682t-6.261 5.613l-15.725 15.319 8.632 20.75q1.338 3.202 2.209 4.62.872 1.42 2.087 2.249 1.216.831 2.999 1.115l-.446 1.986h-15.643l.446-1.986q2.188-.203 2.188-1.945 0-1.095-.446-2.493a40 40 0 0 0-1.053-2.897l-5.269-12.888q-.932-2.31-1.621-3.242-.689-.933-1.459-1.297-.77-.365-2.391-.365h-2.27l-3.363 15.319q-.528 2.432-.689 3.83a22 22 0 0 0-.162 2.493q0 1.823.911 2.573.912.75 3.06.912l-.446 1.986h-16.211l.446-1.986q1.54-.244 2.31-.79.77-.548 1.297-1.52.527-.973.973-2.371t1.337-5.41l6.89-31.206q.891-4.053.891-6.525 0-1.905-.952-2.655t-3.019-.871Z"/><text x="726.028" y="859.183" fill-opacity="0" font-family="Arial,Arial_MSFontService,sans-serif" font-size="55.32">­ЮљЙ</text><path d="M443.083 1000.3v82.5l-4.583-4.59h263.478l-4.584 4.59V463.917h299.363v9.167H701.978l4.583-4.584v618.88H433.917v-87.08Zm549.091-554.716 45.836 22.916-45.836 22.917Z"/><path fill="#d74514" d="M1851 674h432v325h-432z"/><text fill="#fff" font-family="Microsoft YaHei,Microsoft YaHei_MSFontService,sans-serif" font-size="83" font-weight="700" transform="translate(1985.93 817)">DES<tspan x="-1.444" y="99">тіат»є</tspan></text><path fill="none" stroke="#d74514" stroke-miterlimit="8" stroke-width="9.167" d="M1992.5 468c0-41.145 33.13-74.5 74-74.5s74 33.355 74 74.5-33.13 74.5-74 74.5-74-33.355-74-74.5Zm148.13.5h-148.129m73.999 73.129V393.5"/><path d="m2071.08 542.464.73 91.07-9.17.072-.72-91.07Zm19.02 86.341-22.55 46.014-23.28-45.65Z"/><path fill-rule="evenodd" d="M2037.43 171.393c-1.68 0-3.43.04-5.27.121l-5.51 24.56h4.21c3.27 0 5.91-.338 7.93-1.013 2.01-.676 3.66-1.723 4.94-3.141 1.28-1.419 2.28-3.101 2.98-5.046q1.05-2.918 1.05-6.403c0-3.134-.79-5.431-2.39-6.89-1.59-1.459-4.24-2.188-7.94-2.188m-16.98-3.567h17.87q4.83 0 7.92.75c2.07.5 3.77 1.27 5.11 2.31a9.5 9.5 0 0 1 3 3.951q.99 2.392.99 5.553 0 6.078-2.88 10.537-2.865 4.458-7.8 6.565c-3.28 1.405-7.22 2.108-11.81 2.108-2.76 0-5.05-.054-6.89-.162l-2.59 11.915q-.375 1.66-.51 2.553-.15.891-.24 1.925c-.07.689-.11 1.304-.11 1.844 0 .837.14 1.493.41 1.965.27.473.67.818 1.22 1.034q.81.324 2.79.486l-.44 1.986h-16.66l.44-1.986q1.545-.243 2.31-.79c.52-.365.95-.871 1.3-1.52.35-.648.68-1.439.97-2.371.3-.932.75-2.735 1.34-5.41l6.89-31.206c.6-2.702.89-4.836.89-6.403q0-1.986-.93-2.756c-.62-.514-1.63-.811-3.04-.892Z"/><text x="2009.83" y="216.231" fill-opacity="0" font-family="Arial,Arial_MSFontService,sans-serif" font-size="55.32">­ЮЉЃ</text><path fill-rule="evenodd" d="M2058.9 201.358h10.28c.93 2.483 1.89 4.98 2.87 7.491.99 2.512 1.95 5.019 2.91 7.521.95 2.502 1.87 4.969 2.75 7.402q1.335 3.648 2.43 7.133h.39c.22-1.27.49-2.775.83-4.512.34-1.738.74-3.54 1.19-5.406.34-1.41.68-2.859 1.03-4.349.35-1.489.67-2.919.97-4.289s.54-2.636.73-3.797.28-2.12.28-2.875c0-.873-.22-1.494-.67-1.861q-.675-.552-2.49-.581l.42-1.877h11.05l-.39 1.788c-.67.198-1.21.372-1.6.521q-.6.223-1.02.864c-.28.427-.54 1.047-.79 1.861s-.54 1.986-.88 3.515l-6.73 30.083h-4.49a801 801 0 0 0-3.24-8.161q-1.65-4.111-3.24-8.221t-3.06-8.161c-.97-2.701-1.85-5.361-2.65-7.983h-.38q-.15.924-.36 2.145c-.14.814-.29 1.693-.46 2.636q-.255 1.415-.54 2.904c-.19.993-.38 1.986-.58 2.979-.18.754-.39 1.633-.64 2.636-.25 1.002-.5 2.075-.76 3.216s-.52 2.299-.79 3.47-.51 2.289-.73 3.351-.39 2.03-.52 2.904-.19 1.559-.19 2.055c0 .834.23 1.425.71 1.773s1.29.561 2.44.64l-.32 1.817h-11.11l.38-1.817c.6-.099 1.1-.219 1.49-.357q.6-.209 1.05-.849c.29-.427.58-1.068.84-1.922.27-.853.57-2.055.91-3.604l4.89-21.713c.18-.794.31-1.534.4-2.219s.13-1.296.13-1.832c0-.873-.22-1.494-.68-1.861-.46-.368-1.29-.561-2.5-.581Z"/><text x="2051.55" y="235.161" fill-opacity="0" font-family="Arial,Arial_MSFontService,sans-serif" font-size="38.631">­ЮЉЂ</text><path d="M2071.08 260.5v91.727h-9.16V260.5Zm18.34 87.144-22.92 45.833-22.92-45.833Z"/><path fill-rule="evenodd" d="M2040.85 1216.57c2.46 0 4.74.15 6.83.45q3.135.45 6.99 1.62l-2.43 10.98h-3.89c-.22-3.32-.94-5.72-2.17-7.19s-3.21-2.21-5.94-2.21c-3.73 0-7.19 1.86-10.39 5.59s-5.74 8.66-7.6 14.78c-1.87 6.11-2.8 11.8-2.8 17.04 0 4.1.73 7.13 2.19 9.08 1.46 1.94 3.7 2.91 6.73 2.91 2.02 0 3.79-.3 5.31-.91 1.51-.61 2.93-1.63 4.25-3.08q1.995-2.16 3.93-6.06h3.89l-2.47 11.51c-5.05 1.41-10.35 2.11-15.88 2.11-5.08 0-8.95-1.46-11.6-4.38-2.64-2.92-3.97-7.18-3.97-12.8q0-5.97 2.13-13.74c1.42-5.19 3.43-9.74 6.02-13.66s5.66-6.9 9.2-8.96c3.54-2.05 7.43-3.08 11.67-3.08"/><text x="2011.83" y="1266.11" fill-opacity="0" font-family="Arial,Arial_MSFontService,sans-serif" font-size="56.617">­ЮљХ</text><path fill-rule="evenodd" d="M2060.06 1250.75h10.28c.93 2.49 1.89 4.98 2.87 7.49.98 2.52 1.95 5.02 2.9 7.53.96 2.5 1.88 4.96 2.76 7.4.88 2.43 1.69 4.81 2.43 7.13h.38c.22-1.27.5-2.77.84-4.51s.73-3.54 1.19-5.41c.34-1.41.68-2.86 1.03-4.35.34-1.49.67-2.92.97-4.29.29-1.37.54-2.63.73-3.79.18-1.17.28-2.12.28-2.88 0-.87-.23-1.49-.67-1.86-.45-.37-1.28-.56-2.49-.58l.42-1.88h11.05l-.39 1.79c-.67.2-1.21.37-1.61.52-.39.15-.73.44-1.01.87-.28.42-.54 1.04-.79 1.86-.25.81-.54 1.98-.88 3.51l-6.73 30.08h-4.5c-1.05-2.7-2.13-5.42-3.23-8.16s-2.18-5.48-3.25-8.22c-1.06-2.74-2.08-5.46-3.05-8.16s-1.86-5.36-2.65-7.98h-.39c-.1.61-.22 1.33-.35 2.14-.14.82-.3 1.7-.47 2.64-.16.94-.34 1.91-.53 2.9a262 262 0 0 1-.58 2.98c-.18.76-.39 1.64-.64 2.64s-.5 2.07-.76 3.22c-.26 1.14-.52 2.29-.79 3.47-.27 1.17-.51 2.28-.73 3.35-.22 1.06-.39 2.03-.52 2.9s-.2 1.56-.2 2.06q0 1.245.72 1.77c.48.35 1.29.56 2.44.64l-.33 1.81h-11.11l.39-1.81c.6-.1 1.09-.22 1.49-.36s.74-.42 1.04-.85.58-1.07.85-1.92.57-2.05.91-3.6l4.88-21.72c.18-.79.32-1.53.41-2.22.09-.68.13-1.29.13-1.83 0-.87-.23-1.49-.68-1.86-.46-.37-1.3-.56-2.51-.58Z"/><text x="2052.7" y="1284.56" fill-opacity="0" font-family="Arial,Arial_MSFontService,sans-serif" font-size="38.631">­ЮЉЂ</text><path d="m2062.967 999.473-.807 135.667 9.167.055.806-135.668Zm-19.113 130.975 22.644 45.969 23.189-45.697ZM1761.5 832.917h48.12v9.166h-48.12Zm43.54-18.334 45.83 22.917-45.83 22.917Z"/><path fill-rule="evenodd" d="M1691.4 810.778h16.21l-.45 1.986c-1.03.216-1.76.459-2.21.729-.44.271-.84.676-1.19 1.216-.35.541-.72 1.385-1.1 2.533s-.85 3.019-1.42 5.613l-2.87 12.928h1.33c1.14 0 2.17-.189 3.1-.567.94-.378 2.02-1.067 3.27-2.067 1.24-1 3.22-2.837 5.93-5.512 2.72-2.674 4.65-4.708 5.8-6.099s1.99-2.594 2.51-3.607c.53-1.013.79-1.938.79-2.776q0-1.014-.81-1.641-.81-.629-2.31-.75l.45-1.986h17.38l-.44 1.986c-1.08.162-2.31.723-3.67 1.682s-3.45 2.83-6.26 5.613l-15.73 15.319 8.64 20.75c.89 2.135 1.62 3.675 2.21 4.62.58.946 1.27 1.696 2.08 2.249q1.215.831 3 1.115l-.44 1.986h-15.65l.45-1.986q2.19-.203 2.19-1.945 0-1.095-.45-2.493a45 45 0 0 0-1.05-2.897l-5.27-12.888q-.93-2.31-1.62-3.242c-.46-.622-.95-1.054-1.46-1.297s-1.31-.365-2.39-.365h-2.27l-3.37 15.319q-.525 2.432-.69 3.83c-.1.932-.16 1.763-.16 2.493 0 1.215.31 2.073.91 2.573q.915.75 3.06.912l-.44 1.986h-16.21l.44-1.986q1.545-.244 2.31-.79c.52-.365.95-.872 1.3-1.52s.68-1.439.97-2.371c.3-.932.75-2.736 1.34-5.41l6.89-31.206c.59-2.702.89-4.877.89-6.525 0-1.27-.32-2.155-.95-2.655-.64-.5-1.64-.79-3.02-.871Z"/><text x="1680.78" y="859.183" fill-opacity="0" font-family="Arial,Arial_MSFontService,sans-serif" font-size="55.32">­ЮљЙ</text><path fill-rule="evenodd" d="M1521.27 837.161c1.4 0 2.58.493 3.52 1.48.95.986 1.42 2.235 1.42 3.748s-.47 2.763-1.42 3.749c-.94.986-2.12 1.479-3.52 1.479-1.41 0-2.58-.493-3.53-1.479s-1.42-2.236-1.42-3.749.47-2.762 1.42-3.748 2.12-1.48 3.53-1.48m-24.56 0c1.4 0 2.58.493 3.52 1.48.95.986 1.42 2.235 1.42 3.748s-.47 2.763-1.42 3.749c-.94.986-2.12 1.479-3.52 1.479-1.41 0-2.58-.493-3.53-1.479s-1.42-2.236-1.42-3.749.47-2.762 1.42-3.748 2.12-1.48 3.53-1.48m-24.56 0c1.4 0 2.58.493 3.52 1.48.95.986 1.42 2.235 1.42 3.748s-.47 2.763-1.42 3.749c-.94.986-2.12 1.479-3.52 1.479-1.41 0-2.58-.493-3.53-1.479-.94-.986-1.42-2.236-1.42-3.749s.48-2.762 1.42-3.748c.95-.987 2.12-1.48 3.53-1.48"/><text x="1467.2" y="846.31" fill-opacity="0" font-family="Arial,Arial_MSFontService,sans-serif" font-size="10.456">РІ»</text><path fill-rule="evenodd" d="M1656.64 441.038c2.46 0 4.73.148 6.83.446q3.135.445 6.99 1.621l-2.43 10.983h-3.89c-.22-3.324-.94-5.722-2.17-7.194q-1.845-2.21-5.94-2.209c-3.73 0-7.19 1.864-10.39 5.593-3.21 3.728-5.74 8.653-7.6 14.772-1.87 6.12-2.8 11.8-2.8 17.042q0 6.16 2.19 9.078c1.46 1.945 3.7 2.918 6.73 2.918q3.03 0 5.31-.912c1.51-.608 2.93-1.634 4.25-3.08 1.32-1.445 2.64-3.465 3.93-6.059h3.89l-2.47 11.51c-5.05 1.405-10.35 2.107-15.89 2.107-5.08 0-8.94-1.459-11.59-4.377-2.64-2.918-3.97-7.186-3.97-12.806q0-5.957 2.13-13.739c1.42-5.187 3.42-9.74 6.02-13.658 2.59-3.917 5.66-6.903 9.2-8.956q5.31-3.08 11.67-3.08"/><text x="1627.62" y="490.577" fill-opacity="0" font-family="Arial,Arial_MSFontService,sans-serif" font-size="56.617">­ЮљХ</text><path fill-rule="evenodd" d="M1675.85 475.218h10.27q1.41 3.724 2.88 7.491c.98 2.512 1.95 5.019 2.9 7.521.96 2.502 1.87 4.969 2.76 7.402q1.32 3.648 2.43 7.133h.38q.33-1.906.84-4.512c.33-1.738.73-3.54 1.19-5.406.34-1.41.68-2.86 1.03-4.349.34-1.489.67-2.919.96-4.289.3-1.37.54-2.636.73-3.798s.29-2.119.29-2.874c0-.873-.23-1.494-.67-1.861q-.675-.551-2.49-.581l.42-1.877h11.05l-.39 1.787c-.68.199-1.21.373-1.61.522s-.73.437-1.01.864c-.28.426-.54 1.047-.79 1.861s-.54 1.986-.88 3.515l-6.73 30.083h-4.5a799 799 0 0 0-3.23-8.161c-1.1-2.741-2.18-5.481-3.25-8.221a360 360 0 0 1-3.05-8.161c-.97-2.701-1.86-5.362-2.65-7.983h-.39q-.15.924-.36 2.145c-.13.814-.29 1.693-.46 2.636s-.34 1.911-.53 2.904-.39 1.986-.58 2.978c-.18.755-.4 1.634-.64 2.636-.25 1.003-.51 2.075-.76 3.217-.26 1.142-.53 2.299-.79 3.47-.27 1.172-.51 2.289-.73 3.351s-.4 2.03-.52 2.904c-.13.874-.2 1.559-.2 2.055q0 1.251.72 1.772c.47.348 1.29.561 2.44.641l-.33 1.817h-11.11l.39-1.817a9.4 9.4 0 0 0 1.49-.358c.4-.139.74-.422 1.04-.848.3-.427.58-1.068.85-1.922s.57-2.055.91-3.604l4.88-21.713c.18-.794.32-1.534.4-2.219.09-.685.14-1.296.14-1.832q0-1.31-.69-1.861c-.45-.368-1.29-.561-2.5-.581Z"/><text x="1668.49" y="509.021" fill-opacity="0" font-family="Arial,Arial_MSFontService,sans-serif" font-size="38.631">­ЮЉЂ</text><path fill-rule="evenodd" d="M1718.28 494.132h34.31v4.557h-34.31Z"/><text x="1718.28" y="498.119" fill-opacity="0" font-family="Arial,Arial_MSFontService,sans-serif" font-size="4.557">Рѕњ</text><path fill-rule="evenodd" d="M1776.89 475.486h1.82q-.06 1.64-.09 2.934c-.02.864-.04 1.703-.05 2.517s-.01 1.618-.01 2.413v22.636q0 .924.06 1.594c.04.447.1.824.19 1.132q.135.462.36.789c.15.219.32.407.52.566.24.238.56.422.95.551.4.129.91.238 1.52.328q.93.134 2.22.208c.87.05 1.9.085 3.11.104v2.592h-23.62v-2.592c1.18-.039 2.17-.084 2.98-.134a23 23 0 0 0 2.09-.208c.57-.089 1.04-.189 1.38-.298.35-.109.65-.243.91-.402q.42-.268.72-.581c.19-.208.35-.471.47-.789a5.8 5.8 0 0 0 .29-1.162c.07-.456.1-1.022.1-1.698V484.63q0-1.161-.45-1.638c-.29-.317-.72-.476-1.28-.476-.61 0-1.53.317-2.74.953s-2.78 1.578-4.7 2.829q-.39-.684-.72-1.37c-.22-.456-.45-.923-.68-1.4 2.46-1.35 4.9-2.695 7.31-4.035s4.86-2.676 7.34-4.007"/><text x="1762.24" y="509.054" fill-opacity="0" font-family="Arial,Arial_MSFontService,sans-serif" font-size="38.363">1</text><path d="M1832.5 463.917h118.92v9.167l-118.92-.001Zm114.34-18.333 45.83 22.916-45.83 22.917Z"/></g></svg>