<svg xmlns="http://www.w3.org/2000/svg" width="3415" height="790" overflow="hidden"><defs><clipPath id="a"><path d="M166 1374h3415v790H166z"/></clipPath></defs><g clip-path="url(#a)" transform="translate(-166 -1374)"><path fill="#f8ccb9" d="M166 1448h237v308H166z"/><path fill="#d74514" fill-rule="evenodd" d="M257.286 1576.22h18.885l3.162 33.84 19.209-33.84h18.846l-.568 2.68c-1.54.43-2.674 1.19-3.404 2.27q-1.094 1.62-2.067 6l-7.376 33.43q-.284 1.305-.405 2.25-.122.96-.122 2.49c0 1.14.264 1.97.791 2.5.526.52 1.384.87 2.573 1.03l-.567 2.67h-20.386l.568-2.67c1.54-.43 2.675-1.19 3.404-2.27q1.095-1.62 2.067-6l3.729-17.02a257 257 0 0 1 4.376-16.98h-.81c-1.27 2.32-2.634 4.74-4.093 7.25l-18.238 31.57h-6.565l-2.675-24.35q-.932-8.67-1.216-14.88h-.648q-1.622 10.02-3.08 16.62l-3.931 17.79q-.284 1.305-.406 2.25-.121.96-.121 2.49c0 1.14.263 1.97.79 2.5.527.52 1.385.87 2.574 1.03l-.568 2.67h-14.873l.567-2.67c1.54-.43 2.675-1.19 3.404-2.27q1.095-1.62 2.067-6l7.376-33.43c.351-1.6.527-3.18.527-4.75q0-1.695-.79-2.49c-.527-.52-1.385-.87-2.574-1.03Z"/><text x="246.141" y="1624.63" fill-opacity="0" font-family="Arial,Arial_MSFontService,sans-serif" font-size="55.32">𝑴</text><path fill="#fdefe8" fill-rule="evenodd" d="M753 2054.5c0-60.48 48.801-109.5 109-109.5s109 49.02 109 109.5S922.199 2164 862 2164s-109-49.02-109-109.5"/><path fill="#d74514" fill-rule="evenodd" d="M840.07 2028.85h20.385l-.567 2.68c-1.541.43-2.675 1.18-3.405 2.27-.729 1.08-1.418 3.08-2.067 5.99l-2.837 12.85h17.184l2.837-12.85q.527-2.385.527-4.74 0-1.695-.791-2.49c-.526-.53-1.384-.87-2.573-1.03l.567-2.68h20.386l-.568 2.68c-1.54.43-2.675 1.18-3.404 2.27-.73 1.08-1.418 3.08-2.067 5.99l-7.376 33.44q-.283 1.29-.405 2.25-.122.945-.122 2.49c0 1.13.264 1.97.791 2.49.526.53 1.384.87 2.573 1.04l-.567 2.67h-20.386l.568-2.67c1.54-.44 2.675-1.19 3.404-2.27q1.095-1.62 2.067-6l3.404-15.48h-17.183l-3.405 15.48c-.189.89-.324 1.65-.405 2.27s-.122 1.44-.122 2.47c0 1.13.264 1.97.791 2.49.527.53 1.384.87 2.573 1.04l-.567 2.67h-20.385l.567-2.67c1.54-.44 2.675-1.19 3.404-2.27q1.095-1.62 2.067-6l7.376-33.44q.527-2.385.527-4.74 0-1.695-.79-2.49c-.527-.53-1.385-.87-2.574-1.03Z"/><text x="828.925" y="2077.26" fill-opacity="0" font-family="Arial,Arial_MSFontService,sans-serif" font-size="55.32">𝑯</text><path fill="#fdefe8" fill-rule="evenodd" d="M954 1602c0-60.2 48.8-109 109-109s109 48.8 109 109-48.8 109-109 109-109-48.8-109-109"/><path fill="#d74514" fill-rule="evenodd" d="M1063.98 1576.22h6.32v63.43h-6.32Zm-14.19 0h6.32v63.43h-6.32Z"/><text x="1049.79" y="1631.72" fill-opacity="0" font-family="Arial,Arial_MSFontService,sans-serif" font-size="63.425">∥</text><path fill="#f8ccb9" d="M2420 1374h237v308h-237z"/><path fill="#d74514" fill-rule="evenodd" d="M2511.45 1502.27h18.89l3.16 33.84 19.21-33.84h18.84l-.56 2.68c-1.54.43-2.68 1.19-3.41 2.27s-1.42 3.08-2.07 5.99l-7.37 33.44c-.19.86-.33 1.61-.41 2.25q-.12.945-.12 2.49c0 1.14.26 1.97.79 2.49.53.53 1.39.88 2.57 1.04l-.56 2.67h-20.39l.57-2.67c1.54-.43 2.67-1.19 3.4-2.27q1.095-1.62 2.07-6l3.73-17.02q1.86-8.43 4.38-16.98h-.81c-1.27 2.32-2.64 4.74-4.1 7.25l-18.23 31.57h-6.57l-2.68-24.35c-.62-5.79-1.02-10.74-1.21-14.88h-.65c-1.08 6.68-2.11 12.21-3.08 16.62l-3.93 17.79c-.19.86-.32 1.61-.41 2.25q-.12.945-.12 2.49c0 1.14.27 1.97.79 2.49.53.53 1.39.88 2.58 1.04l-.57 2.67h-14.87l.56-2.67c1.54-.43 2.68-1.19 3.41-2.27s1.42-3.08 2.06-6l7.38-33.44c.35-1.59.53-3.17.53-4.74 0-1.13-.27-1.96-.79-2.49-.53-.53-1.39-.87-2.58-1.03Z"/><text x="2500.31" y="1550.68" fill-opacity="0" font-family="Arial,Arial_MSFontService,sans-serif" font-size="55.32">𝑴</text><path fill="#fdefe8" d="M2420 1685h237v146h-237z"/><path fill="#fdefe8" fill-rule="evenodd" d="M3103 1602c0-60.2 48.8-109 109-109s109 48.8 109 109-48.8 109-109 109-109-48.8-109-109"/><path fill="#d74514" fill-rule="evenodd" d="M3189.8 1576.22h20.38l-.56 2.68c-1.54.43-2.68 1.19-3.41 2.27s-1.42 3.08-2.06 6l-2.84 12.84h17.18l2.84-12.84c.35-1.6.53-3.18.53-4.75 0-1.13-.27-1.96-.79-2.49-.53-.52-1.39-.87-2.58-1.03l.57-2.68h20.39l-.57 2.68c-1.54.43-2.68 1.19-3.41 2.27s-1.41 3.08-2.06 6l-7.38 33.43c-.19.87-.32 1.62-.4 2.25-.09.64-.13 1.47-.13 2.49 0 1.14.27 1.97.79 2.5.53.52 1.39.87 2.58 1.03l-.57 2.67h-20.38l.56-2.67c1.54-.43 2.68-1.19 3.41-2.27s1.42-3.08 2.06-6l3.41-15.48h-17.19l-3.4 15.48c-.19.89-.32 1.65-.41 2.27-.08.62-.12 1.45-.12 2.47 0 1.14.27 1.97.79 2.5.53.52 1.39.87 2.58 1.03l-.57 2.67h-20.39l.57-2.67c1.54-.43 2.68-1.19 3.41-2.27s1.41-3.08 2.06-6l7.38-33.43c.35-1.6.53-3.18.53-4.75 0-1.13-.27-1.96-.79-2.49-.53-.52-1.39-.87-2.58-1.03Z"/><text x="3178.65" y="1624.63" fill-opacity="0" font-family="Arial,Arial_MSFontService,sans-serif" font-size="55.32">𝑯</text><path fill-rule="evenodd" d="M3389.02 1874c-1.38 0-2.74.46-4.08 1.4-1.34.93-2.8 2.42-4.39 4.47-1.6 2.06-2.84 4.08-3.73 6.08s-1.6 4.3-2.11 6.89l-.32 1.7c-.28 1.44-.44 2.53-.51 3.29-.07.75-.1 1.5-.1 2.23 0 2.1.45 3.64 1.35 4.6.91.96 2.47 1.44 4.69 1.44 1.37 0 2.64-.27 3.81-.82 1.16-.54 2.26-1.32 3.3-2.35 1.04-1.02 1.98-2.27 2.81-3.72.84-1.46 1.59-3.16 2.25-5.09.67-1.93 1.17-3.92 1.5-5.96q.51-3.06.51-5.73c0-2.84-.4-4.95-1.2-6.35-.79-1.39-2.06-2.08-3.78-2.08m-118.18-1.5c-2.81 0-5.26 1.17-7.35 3.52-2.1 2.35-3.75 5.72-4.95 10.1-1.2 4.37-1.8 8.14-1.8 11.3 0 2.97.61 5.17 1.84 6.59s3.09 2.13 5.57 2.13c2.65 0 5-1.19 7.06-3.57q3.075-3.57 4.86-9.99c1.19-4.28 1.78-8.05 1.78-11.29 0-2.92-.57-5.11-1.7-6.58-1.13-1.48-2.9-2.21-5.31-2.21m244.41-.08c-2.73 0-5.36 1.37-7.89 4.13-2.52 2.76-4.46 6.49-5.81 11.19 3.81-.03 7.08-.38 9.81-1.04 2.72-.66 4.82-1.71 6.28-3.16 1.46-1.44 2.19-3.4 2.19-5.85 0-1.65-.39-2.94-1.16-3.87-.77-.94-1.91-1.4-3.42-1.4m-84.08 0q-4.185 0-7.5 3.36c-2.22 2.24-3.95 5.25-5.19 9.02q-1.86 5.655-1.86 11.28c0 2.81.38 4.92 1.15 6.31s2.06 2.08 3.87 2.08q2.67 0 5.25-2.31c1.72-1.54 3.49-3.73 5.31-6.58q2.73-4.275 3.87-9.87l.36-1.74c.25-1.11.41-2.07.49-2.88s.12-1.69.12-2.63c0-2.08-.44-3.61-1.34-4.58-.89-.98-2.4-1.46-4.53-1.46m-159.52-3.16c4.32 0 7.62 1.18 9.89 3.54 2.27 2.37 3.4 5.75 3.4 10.15 0 3.14-.54 6.49-1.64 10.05q-1.635 5.355-4.5 9c-1.9 2.43-4.18 4.26-6.82 5.49-2.65 1.23-5.69 1.85-9.12 1.85-4.19 0-7.44-1.18-9.75-3.53s-3.46-5.73-3.46-10.13c0-2.16.32-4.66.97-7.5.84-3.83 2.24-7.18 4.21-10.05 1.98-2.86 4.41-5.06 7.3-6.58 2.89-1.53 6.06-2.29 9.52-2.29m245.06-.04c3.26 0 5.72.66 7.35 1.98 1.64 1.33 2.45 3.39 2.45 6.2 0 4.59-2.15 8.04-6.46 10.34-4.31 2.29-10.71 3.44-19.19 3.44-.33 1.62-.49 3.38-.49 5.27 0 2.84.56 4.9 1.66 6.18 1.11 1.28 2.92 1.93 5.44 1.93 2.48 0 4.73-.55 6.74-1.63 2.02-1.08 4.14-2.74 6.39-4.98l2.51 2.63c-2.62 2.89-5.28 5.07-7.96 6.53q-4.035 2.19-9.39 2.19c-3.91 0-6.95-1.2-9.1-3.59-2.14-2.39-3.22-5.72-3.22-9.99q0-4.335 1.56-9.3c1.04-3.31 2.62-6.28 4.72-8.92 2.11-2.63 4.64-4.67 7.58-6.12 2.95-1.44 6.08-2.16 9.41-2.16m-53.8 0c1.7 0 3.05.56 4.04 1.68.98 1.12 1.47 2.58 1.47 4.39 0 1.36-.25 2.75-.77 4.18l.53.2c2.65-3.59 5.2-6.23 7.64-7.9 2.45-1.68 4.92-2.51 7.44-2.51 1.97 0 3.62.14 4.94.44l-1.94 9.08h-4.18c-.16-1.13-.39-2.01-.69-2.63-.29-.63-.65-1.06-1.05-1.3-.41-.24-.92-.37-1.54-.37q-1.455 0-3.18 1.26t-3.87 3.93c-1.43 1.78-2.58 3.5-3.43 5.15s-1.56 3.74-2.12 6.28l-3.85 17.55h-7.02l5.88-25.7c.38-1.62.62-2.87.73-3.76.11-.9.16-1.64.16-2.23 0-1.08-.17-1.87-.52-2.35-.36-.49-.91-.73-1.67-.73-.83 0-1.72.34-2.65 1.03s-2.21 1.94-3.83 3.75l-2.31-2.27c2.48-2.6 4.57-4.44 6.24-5.53 1.68-1.1 3.53-1.64 5.55-1.64m-32.56 0c1.76 0 3.4.19 4.93.58s3.1 1.09 4.72 2.09l3.73-2.67 2.59.64-5.96 25.7c-.59 2.56-.89 4.56-.89 6 0 1.08.18 1.86.53 2.35.35.48.91.73 1.66.73.81 0 1.68-.33 2.6-1 .91-.66 2.21-1.92 3.89-3.79l2.31 2.27c-2.44 2.6-4.51 4.44-6.22 5.54-1.72 1.09-3.58 1.64-5.58 1.64-1.67 0-3.01-.56-4.01-1.66-1-1.11-1.5-2.58-1.5-4.42q0-2.235.93-4.74l-.52-.17q-3.9 5.685-7.38 8.31-3.48 2.64-7.38 2.64c-2.97 0-5.27-1.12-6.91-3.37-1.63-2.24-2.45-5.39-2.45-9.44 0-4.65.91-9.11 2.74-13.39 1.82-4.29 4.33-7.66 7.52-10.14 3.18-2.47 6.74-3.7 10.65-3.7m-58.4 0c1.68 0 3.01.55 4 1.66.98 1.1 1.47 2.58 1.47 4.41 0 1.52-.31 3.11-.93 4.79l.49.16q7.5-10.98 14.91-10.98 4.425 0 6.87 3.36c1.64 2.24 2.45 5.4 2.45 9.48 0 4.46-.89 8.84-2.69 13.15s-4.29 7.73-7.48 10.26c-3.19 2.52-6.75 3.79-10.7 3.79-3.59 0-6.58-.79-8.95-2.35l-1.87 8.87c-.4 1.92-.61 3.5-.61 4.74 0 1.19.31 2.04.92 2.54.6.5 1.79.83 3.54.99l-.32 1.99h-12.53l9.77-43c.57-2.49.85-4.53.85-6.12 0-1.08-.17-1.87-.52-2.35-.36-.49-.91-.73-1.67-.73-.83 0-1.72.34-2.65 1.03s-2.21 1.94-3.83 3.75l-2.31-2.27q3.645-3.81 6.18-5.49t5.61-1.68m-70 0c1.71 0 3.05.56 4.04 1.68.98 1.12 1.48 2.58 1.48 4.39 0 1.49-.32 3.07-.94 4.75l.49.16c2.48-3.7 4.96-6.45 7.42-8.25 2.45-1.8 4.94-2.69 7.45-2.69 2.6 0 4.57.73 5.92 2.2 1.35 1.48 2.03 3.6 2.03 6.39v.57c0 .18-.02.39-.04.6 2.32-3.29 4.64-5.75 6.95-7.35 2.31-1.61 4.7-2.41 7.19-2.41s4.4.71 5.75 2.14c1.36 1.44 2.03 3.45 2.03 6.04q0 2.55-1.17 7.26l-2.64 10.61c-.73 2.95-1.09 5.03-1.09 6.25 0 1.08.17 1.86.52 2.35.36.48.91.73 1.67.73.81 0 1.67-.33 2.59-1 .92-.66 2.21-1.92 3.89-3.79l2.31 2.27c-2.32 2.46-4.35 4.27-6.08 5.43-1.73 1.17-3.7 1.75-5.92 1.75-1.75 0-3.16-.63-4.21-1.89-1.05-1.25-1.58-2.85-1.58-4.8 0-1.76.44-4.34 1.34-7.74l1.78-7.01c.65-2.54 1.07-4.42 1.28-5.64.2-1.21.3-2.2.3-2.95 0-1.87-.31-3.21-.93-4.04-.62-.82-1.64-1.23-3.04-1.23-1.14 0-2.35.42-3.65 1.27-1.3.86-2.66 2.18-4.09 3.98-1.43 1.79-2.6 3.56-3.51 5.3-.9 1.75-1.63 3.88-2.17 6.39l-3.68 17.71h-7.02l4.66-20.59c.57-2.51.96-4.37 1.16-5.57s.3-2.24.3-3.1c0-1.95-.34-3.33-1.03-4.16-.69-.82-1.76-1.23-3.22-1.23-1.03 0-2.2.42-3.51 1.27-1.31.86-2.71 2.22-4.19 4.1-1.49 1.88-2.65 3.68-3.49 5.41-.83 1.73-1.54 3.83-2.1 6.32l-3.85 17.55h-7.02l5.92-25.7c.6-2.59.89-4.59.89-5.99 0-1.08-.17-1.87-.52-2.35-.36-.49-.91-.73-1.67-.73-.83 0-1.72.34-2.65 1.03s-2.21 1.94-3.83 3.75l-2.31-2.27c2.38-2.49 4.42-4.3 6.14-5.45a9.94 9.94 0 0 1 5.65-1.72m-71.27-16.54c2.45 0 4.73.15 6.82.45 2.1.29 4.43.83 7 1.62l-2.44 10.98h-3.89c-.21-3.32-.94-5.72-2.16-7.19-1.23-1.48-3.21-2.21-5.94-2.21-3.73 0-7.2 1.86-10.4 5.59s-5.73 8.65-7.6 14.77q-2.79 9.18-2.79 17.04c0 4.11.73 7.14 2.19 9.08 1.46 1.95 3.7 2.92 6.72 2.92 2.03 0 3.8-.3 5.31-.91 1.52-.61 2.93-1.64 4.26-3.08q1.98-2.175 3.93-6.06h3.89l-2.47 11.51c-5.05 1.4-10.35 2.11-15.89 2.11-5.08 0-8.94-1.46-11.59-4.38s-3.97-7.19-3.97-12.81q0-5.955 2.13-13.74c1.41-5.18 3.42-9.74 6.01-13.65 2.6-3.92 5.66-6.91 9.2-8.96s7.43-3.08 11.68-3.08"/><text x="3201.66" y="1916.9" fill-opacity="0" font-family="Arial,Arial_MSFontService,sans-serif" font-size="73.395">𝐶𝑜𝑚𝑝𝑎𝑟𝑒</text><path d="M403.5 1597.92h509.52v9.16H403.5Zm504.937-18.34 45.833 22.92-45.833 22.92Z"/><path fill-rule="evenodd" d="M525.215 1688.72c2.485 0 4.789.17 6.909.5 2.121.34 4.465.92 7.032 1.73l-2.27 10.41h-3.89c-.108-2.29-.46-4.1-1.054-5.41q-.891-1.965-2.553-2.82c-1.108-.56-2.58-.85-4.418-.85q-3.363 0-5.917 1.38t-3.89 3.75c-.892 1.58-1.338 3.34-1.338 5.29 0 2.03.534 3.8 1.601 5.33s3.114 3.33 6.14 5.41q3.972 2.76 6.059 4.92c1.391 1.45 2.418 2.98 3.08 4.6q.993 2.43.993 5.64c0 3.29-.79 6.22-2.371 8.77s-3.81 4.53-6.687 5.92-6.153 2.08-9.828 2.08q-3.728 0-8.045-.6c-2.877-.41-5.45-.92-7.72-1.54l2.432-11.15h3.89c0 3.3.764 5.75 2.29 7.36 1.527 1.6 3.884 2.41 7.072 2.41q5.513 0 8.673-3c2.107-2 3.161-4.78 3.161-8.35 0-1.65-.29-3.1-.871-4.36q-.871-1.875-2.635-3.6c-1.175-1.15-2.87-2.47-5.086-3.95-1.999-1.35-3.661-2.69-4.985-4a15.9 15.9 0 0 1-3.161-4.39q-1.175-2.43-1.175-5.43 0-4.785 2.31-8.43c1.54-2.44 3.715-4.31 6.525-5.64q4.215-1.98 9.727-1.98"/><text x="497.048" y="1738.29" fill-opacity="0" font-family="Arial,Arial_MSFontService,sans-serif" font-size="56.657">𝑆</text><path d="M524.083 1781.5v119.74h-9.166V1781.5Zm18.334 115.16-22.917 45.83-22.917-45.83Zm-261.5-140.16v303.025h89.379v-9.167H285.5l4.583 4.583V1756.5Zm84.796 321.358 45.833-22.917-45.833-22.916Zm605.787-18.385h96.454v-306.718h-9.167v302.135l4.583-4.583H971.5Zm114.787-302.135-22.917-45.833-22.916 45.833Z"/><path fill-rule="evenodd" d="M2908.55 1852.68c2.49 0 4.79.17 6.91.51 2.12.33 4.47.91 7.04 1.72l-2.27 10.41h-3.89c-.11-2.29-.46-4.1-1.06-5.41-.59-1.31-1.44-2.24-2.55-2.81s-2.58-.85-4.42-.85c-2.24 0-4.21.46-5.92 1.37-1.7.92-2.99 2.17-3.89 3.75-.89 1.58-1.33 3.35-1.33 5.29 0 2.03.53 3.8 1.6 5.33 1.06 1.53 3.11 3.33 6.14 5.41 2.64 1.84 4.66 3.48 6.06 4.93 1.39 1.44 2.41 2.97 3.08 4.6.66 1.62.99 3.49.99 5.63 0 3.3-.79 6.22-2.37 8.77-1.58 2.56-3.81 4.53-6.69 5.92s-6.15 2.09-9.83 2.09c-2.48 0-5.16-.21-8.04-.61-2.88-.41-5.45-.92-7.72-1.54l2.43-11.15h3.89c0 3.3.76 5.75 2.29 7.36s3.88 2.41 7.07 2.41q5.52 0 8.67-3c2.11-2 3.17-4.78 3.17-8.35 0-1.64-.29-3.1-.88-4.35-.58-1.26-1.45-2.46-2.63-3.61s-2.87-2.47-5.09-3.95q-3-2.025-4.98-3.99a15.9 15.9 0 0 1-3.16-4.4c-.79-1.62-1.18-3.43-1.18-5.43q0-4.785 2.31-8.43c1.54-2.43 3.72-4.31 6.53-5.63 2.81-1.33 6.05-1.99 9.72-1.99"/><text x="2880.39" y="1902.26" fill-opacity="0" font-family="Arial,Arial_MSFontService,sans-serif" font-size="56.657">𝑆</text><path d="M2908.083 1812.35v-59.604h-9.166v59.604Zm18.334-55.02-22.917-45.834-22.916 45.833Zm395.083-159.41h47.86v173.43h-9.16V1602.5l4.58 4.58h-43.28Zm66.2 168.84-22.92 45.84-22.92-45.84Z"/><path d="M2657.5 1753.92h249.48v274.59l-4.58-4.58h461.98l-4.58 4.58v-41.25h9.16v45.84h-471.14v-274.6l4.58 4.58h-244.9Zm683.96 237.93 22.92-45.84 22.92 45.84Z"/><path fill-rule="evenodd" d="M2377.04 1877.81h16.22l-.45 1.99c-1.03.22-1.76.46-2.21.73-.44.27-.84.67-1.19 1.21-.36.54-.72 1.39-1.1 2.54s-.85 3.02-1.42 5.61l-2.75 12.4h21.76l2.76-12.44c.24-1.11.45-2.29.62-3.55.18-1.25.27-2.25.27-2.97 0-1.27-.32-2.16-.96-2.66-.63-.5-1.64-.79-3.01-.87l.44-1.99h16.21l-.44 1.99c-1.03.22-1.77.46-2.21.73-.45.27-.85.67-1.2 1.21s-.71 1.39-1.09 2.54-.85 3.02-1.42 5.61l-6.93 31.45c-.35 1.59-.58 2.86-.69 3.79s-.16 1.78-.16 2.53c0 1.22.3 2.08.91 2.58s1.63.8 3.06.91l-.45 1.98h-16.21l.45-1.98c1.03-.16 1.8-.43 2.31-.79.51-.37.94-.87 1.3-1.52.35-.65.67-1.44.97-2.37.3-.94.74-2.74 1.34-5.41l3.32-15.04h-21.76l-3.37 15.32a69 69 0 0 0-.65 3.34c-.13.88-.2 1.87-.2 2.98 0 1.16.27 2 .81 2.51.54.52 1.6.84 3.16.98l-.44 1.98h-16.21l.44-1.98c1.03-.16 1.8-.43 2.31-.79.52-.37.95-.87 1.3-1.52s.67-1.44.97-2.37c.3-.94.74-2.74 1.34-5.41l6.89-31.21c.24-1.11.45-2.29.63-3.55.17-1.25.26-2.25.26-2.97 0-1.27-.32-2.16-.95-2.66-.64-.5-1.64-.79-3.02-.87Z"/><text x="2366.43" y="1926.22" fill-opacity="0" font-family="Arial,Arial_MSFontService,sans-serif" font-size="55.32">𝐻</text><path fill-rule="evenodd" d="M2683.73 1871.02q11.835 3.12 18.18 13.47c4.23 6.91 6.34 15.24 6.34 24.99 0 9.78-2.1 18.11-6.32 24.98-4.21 6.88-10.28 11.36-18.2 13.44l-.97-3.12c6.24-2.08 10.88-6.19 13.92-12.32s4.56-13.93 4.56-23.39c0-9.13-1.51-16.71-4.54-22.75-3.02-6.04-7.71-10.1-14.06-12.18Zm-225.24 0 1.1 3.12c-6.33 2.08-11.01 6.14-14.05 12.18s-4.56 13.62-4.56 22.75c0 9.46 1.52 17.26 4.56 23.39s7.68 10.24 13.93 12.32l-.98 3.12c-7.91-2.08-13.98-6.56-18.19-13.44-4.22-6.87-6.33-15.2-6.33-24.98 0-9.75 2.12-18.08 6.35-24.99 4.22-6.9 10.28-11.39 18.17-13.47m15.27 6.79h14.47l4.62 39.31 23.63-39.31h12.77l-.45 1.99c-1.03.22-1.76.46-2.21.73-.44.27-.85.67-1.21 1.21-.37.54-.73 1.39-1.1 2.54-.36 1.15-.83 3.02-1.4 5.61l-6.93 31.45c-.35 1.59-.58 2.86-.69 3.79-.1.93-.16 1.78-.16 2.53 0 1.22.31 2.08.91 2.58.61.5 1.63.8 3.06.91l-.44 1.98h-16.21l.44-1.98c1.03-.16 1.8-.43 2.31-.79.52-.37.95-.87 1.3-1.52s.67-1.44.97-2.37c.3-.94.74-2.74 1.34-5.41l5.39-24.44c.76-3.38 1.62-6.74 2.59-10.09h-.56c-.84 1.59-2.73 4.83-5.68 9.72l-18.44 30.44h-4.42l-3.36-26.06c-.49-3.67-1.03-8.62-1.62-14.83h-.81c-.92 6.05-1.95 11.66-3.08 16.82l-4.13 18.72c-.57 2.57-.86 4.67-.86 6.32 0 1.22.31 2.08.92 2.58.6.5 1.62.8 3.06.91l-.45 1.98h-14.18l.44-1.98c1.03-.16 1.8-.43 2.31-.79.51-.37.95-.87 1.3-1.52s.67-1.44.97-2.37c.3-.94.74-2.74 1.34-5.41l6.89-31.21c.27-1.16.48-2.27.65-3.32.16-1.06.24-2.12.24-3.2 0-1.27-.32-2.16-.95-2.66-.64-.5-1.64-.79-3.02-.87Z"/><text x="2463.15" y="1926.22" fill-opacity="0" font-family="Arial,Arial_MSFontService,sans-serif" font-size="55.32">𝑀</text><path fill-rule="evenodd" d="M2597.83 1877.81h6.33v63.43h-6.33Zm-14.18 0h6.32v63.43h-6.32Z"/><text x="2583.65" y="1933.31" fill-opacity="0" font-family="Arial,Arial_MSFontService,sans-serif" font-size="63.425">∥</text><path fill-rule="evenodd" d="M2664.73 1877.16c2.48 0 4.79.17 6.91.51s4.46.91 7.03 1.72l-2.27 10.42h-3.89c-.11-2.3-.46-4.1-1.05-5.41-.6-1.31-1.45-2.25-2.56-2.82-1.11-.56-2.58-.85-4.42-.85q-3.36 0-5.91 1.38c-1.7.92-3 2.17-3.89 3.75s-1.34 3.34-1.34 5.29c0 2.02.53 3.8 1.6 5.33 1.07 1.52 3.11 3.33 6.14 5.41 2.65 1.83 4.67 3.48 6.06 4.92 1.39 1.45 2.42 2.98 3.08 4.6s.99 3.5.99 5.63c0 3.3-.79 6.22-2.37 8.78q-2.37 3.825-6.69 5.91c-2.87 1.4-6.15 2.09-9.82 2.09-2.49 0-5.17-.2-8.05-.61-2.88-.4-5.45-.91-7.72-1.54l2.43-11.14h3.89c0 3.3.77 5.75 2.29 7.35 1.53 1.61 3.89 2.42 7.08 2.42q5.505 0 8.67-3c2.11-2 3.16-4.78 3.16-8.35 0-1.65-.29-3.1-.87-4.36-.58-1.25-1.46-2.46-2.64-3.61-1.17-1.14-2.87-2.46-5.08-3.95-2-1.35-3.66-2.68-4.99-3.99a16 16 0 0 1-3.16-4.4q-1.17-2.43-1.17-5.43 0-4.77 2.31-8.43c1.54-2.43 3.71-4.31 6.52-5.63s6.05-1.99 9.73-1.99"/><text x="2636.56" y="1926.74" fill-opacity="0" font-family="Arial,Arial_MSFontService,sans-serif" font-size="56.657">𝑆</text><path d="m2657.605 1610.162 93.262-2.133-.21-9.164-93.262 2.133Zm89.099 16.3 45.297-23.958-46.345-21.863Z"/><path fill="#fdefe8" fill-rule="evenodd" d="M411 2054.5c0-60.48 48.801-109.5 109-109.5s109 49.02 109 109.5S580.199 2164 520 2164s-109-49.02-109-109.5"/><path fill="#d74514" fill-rule="evenodd" d="M520.606 2028.85h6.323v63.43h-6.323Zm-14.184 0h6.322v63.43h-6.322Z"/><text x="506.422" y="2084.35" fill-opacity="0" font-family="Arial,Arial_MSFontService,sans-serif" font-size="63.425">∥</text><path d="M629.5 2050.92h82.849v9.16H629.5Zm78.266-18.34 45.833 22.92-45.834 22.92Z"/><path fill="#fdefe8" fill-rule="evenodd" d="M2792 1602.5c0-60.48 48.8-109.5 109-109.5s109 49.02 109 109.5c0 60.47-48.8 109.5-109 109.5s-109-49.03-109-109.5"/><path fill="#d74514" fill-rule="evenodd" d="M2901.87 1576.61h6.33v63.43h-6.33Zm-14.18 0h6.32v63.43h-6.32Z"/><text x="2887.69" y="1632.11" fill-opacity="0" font-family="Arial,Arial_MSFontService,sans-serif" font-size="63.425">∥</text><path d="m3010.52 1607.473 51.312-.216-.039-9.166-51.312.216Zm46.806 18.137 45.736-23.11-45.93-22.723Zm-1885.806-17.917 92.01-.42-.041-9.167-92.01.42Zm87.511 17.934 45.728-23.126-45.937-22.707Z"/><path fill="#fdefe8" fill-rule="evenodd" d="M1304 1602c0-60.2 48.8-109 109-109s109 48.8 109 109-48.8 109-109 109-109-48.8-109-109"/><path fill="#d74514" fill-rule="evenodd" d="M1396.32 1576.04h39.36l-2.88 13.05h-5.19c-.13-2.57-.38-4.36-.73-5.39s-.89-1.77-1.62-2.23-1.76-.69-3.08-.69h-10.17l-4.3 19.45h5.64c1.08 0 1.99-.17 2.73-.52s1.43-.94 2.07-1.76c.63-.83 1.26-1.97 1.88-3.43h4.46l-3.89 16.45h-4.17c0-1.56-.1-2.76-.29-3.6q-.285-1.26-1.05-1.83c-.51-.37-1.39-.56-2.64-.56h-5.75l-4.78 21.64h9.12c1.18 0 2.11-.08 2.77-.24.66-.17 1.27-.42 1.83-.77.55-.36 1.19-.92 1.92-1.69s1.45-1.74 2.17-2.91c.71-1.18 1.45-2.59 2.21-4.24h5.51l-3.73 14.59h-38.54l.57-2.67c1.54-.44 2.67-1.19 3.4-2.27.73-1.09 1.42-3.08 2.07-6l7.37-33.44c.35-1.59.53-3.17.53-4.74 0-1.13-.26-1.96-.79-2.49s-1.38-.87-2.57-1.04Z"/><text x="1385.18" y="1624.45" fill-opacity="0" font-family="Arial,Arial_MSFontService,sans-serif" font-size="55.32">𝑬</text><path fill-rule="evenodd" d="M1393.3 1853.75h16.21l-.44 1.99c-1.03.22-1.77.46-2.21.73-.45.27-.85.67-1.2 1.21s-.71 1.39-1.09 2.54-.85 3.02-1.42 5.61l-2.88 12.93h1.34c1.13 0 2.17-.19 3.1-.57s2.02-1.07 3.26-2.07 3.22-2.83 5.94-5.51c2.71-2.67 4.65-4.71 5.79-6.1q1.725-2.085 2.52-3.6c.52-1.02.79-1.94.79-2.78 0-.68-.27-1.22-.81-1.64q-.81-.63-2.31-.75l.44-1.99h17.39l-.45 1.99q-1.62.24-3.66 1.68-2.055 1.44-6.27 5.61l-15.72 15.32 8.63 20.75c.89 2.14 1.63 3.68 2.21 4.62.58.95 1.28 1.7 2.09 2.25.81.56 1.81.93 3 1.12l-.45 1.98h-15.64l.44-1.98q2.19-.21 2.19-1.95c0-.73-.15-1.56-.44-2.49-.3-.93-.65-1.9-1.06-2.9l-5.27-12.89q-.93-2.31-1.62-3.24c-.46-.62-.94-1.05-1.46-1.29-.51-.25-1.31-.37-2.39-.37h-2.27l-3.36 15.32c-.35 1.62-.58 2.9-.69 3.83s-.16 1.76-.16 2.49c0 1.22.3 2.08.91 2.58s1.63.8 3.06.91l-.45 1.98h-16.21l.45-1.98c1.03-.16 1.8-.43 2.31-.79.51-.37.94-.87 1.3-1.52.35-.65.67-1.44.97-2.37.3-.94.74-2.74 1.34-5.41l6.89-31.21c.59-2.7.89-4.88.89-6.52 0-1.27-.32-2.16-.96-2.66-.63-.5-1.64-.79-3.01-.87Z"/><text x="1382.68" y="1902.16" fill-opacity="0" font-family="Arial,Arial_MSFontService,sans-serif" font-size="55.32">𝐾</text><path d="M1416.083 1813.35v-59.604h-9.166v59.604Zm18.334-55.02-22.917-45.834-22.917 45.833Zm88.083-160.41h143.31v9.16H1522.5Zm138.73-18.34 45.83 22.92-45.83 22.92Z"/><path fill="#fdefe8" fill-rule="evenodd" d="M2088 1602c0-60.2 48.8-109 109-109s109 48.8 109 109-48.8 109-109 109-109-48.8-109-109"/><path fill="#d74514" fill-rule="evenodd" d="M2194.91 1580.78c-1.36 0-2.4.03-3.13.08l-10.01 45.56c1.25.1 2.25.16 3 .16 3.49 0 6.49-.69 9.02-2.07s4.77-3.48 6.73-6.3 3.5-6.27 4.62-10.34c1.12-4.06 1.68-8.15 1.68-12.26 0-2.78-.31-5.12-.93-7.01s-1.48-3.41-2.58-4.58c-1.09-1.16-2.36-1.99-3.8-2.49-1.45-.5-2.98-.75-4.6-.75m-18.77-4.74h16.41c4.46 0 8.03.24 10.7.73 2.44.43 4.66 1.17 6.67 2.23 2.01 1.05 3.6 2.21 4.76 3.48 1.49 1.57 2.66 3.54 3.51 5.9s1.28 5.14 1.28 8.33c0 3.59-.41 7.04-1.22 10.33-.81 3.3-2.01 6.35-3.59 9.14-1.58 2.8-3.47 5.2-5.67 7.22-2.2 2.01-4.41 3.58-6.63 4.7-2.21 1.12-4.71 1.94-7.5 2.47-2.78.53-6.07.79-9.88.79H2165l.56-2.67c1.54-.44 2.68-1.19 3.41-2.27.73-1.09 1.42-3.08 2.06-6l7.38-33.44c.35-1.59.53-3.17.53-4.74 0-1.13-.27-1.96-.79-2.49-.53-.53-1.39-.87-2.58-1.04Z"/><text x="2165" y="1624.45" fill-opacity="0" font-family="Arial,Arial_MSFontService,sans-serif" font-size="55.32">𝑫</text><path d="M2202.083 1812.35v-59.605h-9.166v59.605Zm18.334-55.021-22.917-45.834-22.916 45.834Z"/><path fill="#d74514" d="M1707 1374h237v459h-237z"/><path fill="#d74514" fill-rule="evenodd" d="M1464.05 1976.48h37.29l-2.8 12.45h-3.89c-.11-2.35-.31-4.12-.61-5.31s-.65-2.01-1.07-2.45q-.63-.675-1.5-.9c-.58-.15-1.41-.22-2.49-.22h-13.22l-4.62 21.24h7.74c1.92 0 3.39-.46 4.4-1.36 1.01-.91 2.03-2.4 3.06-4.48h3.69l-3.65 15.56h-3.44c0-2.16-.14-3.62-.41-4.39s-.67-1.26-1.19-1.46c-.53-.21-1.48-.31-2.86-.31h-8.11l-5.18 23.39h11.99c1.6 0 2.86-.16 3.79-.49.93-.32 1.81-.85 2.64-1.58.82-.73 1.64-1.75 2.47-3.06.82-1.31 1.8-3.09 2.94-5.33h3.93l-3.57 14.02h-35.95l.45-1.98c1.03-.16 1.8-.43 2.31-.79.51-.37.94-.87 1.3-1.52.35-.65.67-1.44.97-2.37s.74-2.74 1.34-5.41l6.89-31.21c.59-2.7.89-4.88.89-6.52 0-1.27-.32-2.16-.96-2.66-.63-.5-1.64-.79-3.02-.87Z"/><text x="1453.43" y="2024.89" fill-opacity="0" font-family="Arial,Arial_MSFontService,sans-serif" font-size="55.32">𝐸</text><path fill="#d74514" fill-rule="evenodd" d="M1507.58 2010.02h12.57l-.32 1.78c-.46.12-.85.22-1.16.3-.32.08-.61.2-.85.36-.25.16-.47.37-.64.64-.18.27-.36.63-.53 1.1-.16.47-.34 1.05-.53 1.76-.19.7-.4 1.57-.64 2.6l-1.94 8.76h.84c.45 0 .87-.03 1.25-.09.37-.06.75-.16 1.11-.31.37-.15.75-.35 1.14-.61.38-.26.82-.59 1.32-.98 2.07-1.61 3.79-3.05 5.18-4.32s2.52-2.4 3.38-3.37c.87-.97 1.48-1.8 1.85-2.49.37-.68.55-1.25.55-1.71 0-.47-.19-.85-.56-1.12-.38-.26-1-.41-1.85-.43l.33-1.87h13.55l-.42 1.87c-.45.04-.89.13-1.29.27-.41.14-.88.39-1.42.76-.53.37-1.17.87-1.92 1.52-.74.64-1.68 1.48-2.81 2.52l-11.62 10.48 6.73 14c.52 1.09.96 1.96 1.34 2.59.38.64.77 1.14 1.16 1.52.4.38.85.65 1.36.82.5.17 1.14.32 1.89.46l-.48 1.82h-12.27l.42-1.82c.55-.04.97-.16 1.25-.37s.42-.47.42-.79q-.03-.33-.09-.69c-.04-.23-.11-.5-.21-.79-.1-.28-.23-.62-.39-1.01s-.36-.85-.59-1.38l-4-8.52c-.33-.76-.64-1.35-.9-1.79-.27-.44-.55-.77-.84-1.01s-.61-.39-.98-.46-.83-.11-1.39-.11h-1.63c-.16.82-.35 1.69-.57 2.62-.22.94-.44 1.89-.65 2.85a184 184 0 0 0-1.17 5.45c-.16.8-.28 1.52-.38 2.14-.1.63-.15 1.11-.15 1.45 0 .83.24 1.42.73 1.77.48.35 1.31.56 2.48.64l-.47 1.82h-12.54l.33-1.82c.61-.1 1.11-.21 1.5-.34s.73-.41 1.04-.84c.31-.42.59-1.06.85-1.92.26-.85.56-2.06.89-3.63l4.89-21.71c.2-.88.35-1.65.45-2.33.1-.67.15-1.25.15-1.72 0-.88-.23-1.5-.69-1.87-.46-.36-1.29-.56-2.5-.58Z"/><text x="1500.23" y="2043.82" fill-opacity="0" font-family="Arial,Arial_MSFontService,sans-serif" font-size="38.631">𝐾</text><path fill="#d74514" fill-rule="evenodd" d="M2103.9 1969.48h18.08v77.29h-18.08v-3.12h11.35v-71.05h-11.35Zm-547.63 0h18.07v3.12H1563v71.05h11.34v3.12h-18.07Zm32.48 7h14.47l4.62 39.32 23.63-39.32h12.76l-.44 1.99c-1.03.22-1.77.46-2.21.73-.45.27-.85.67-1.22 1.22-.36.54-.73 1.38-1.09 2.53-.37 1.15-.83 3.02-1.4 5.61l-6.93 31.45c-.35 1.59-.58 2.86-.69 3.79s-.16 1.78-.16 2.53c0 1.22.3 2.08.91 2.58s1.63.8 3.06.91l-.45 1.98h-16.21l.45-1.98c1.03-.16 1.8-.43 2.31-.79.51-.37.95-.87 1.3-1.52s.67-1.44.97-2.37.74-2.74 1.34-5.41l5.39-24.44c.75-3.38 1.62-6.74 2.59-10.09h-.57c-.83 1.59-2.73 4.83-5.67 9.72l-18.44 30.44h-4.42l-3.36-26.06c-.49-3.67-1.03-8.62-1.62-14.83h-.81c-.92 6.05-1.95 11.66-3.08 16.82l-4.14 18.72c-.56 2.57-.85 4.67-.85 6.32 0 1.22.31 2.08.91 2.58.61.5 1.63.8 3.06.91l-.44 1.98h-14.19l.45-1.98c1.03-.16 1.8-.43 2.31-.79.51-.37.94-.87 1.3-1.52.35-.65.67-1.44.97-2.37s.74-2.74 1.34-5.41l6.89-31.21c.27-1.16.48-2.27.64-3.32.17-1.06.25-2.12.25-3.2 0-1.27-.32-2.16-.96-2.66-.63-.5-1.64-.79-3.01-.87Z"/><text x="1578.13" y="2024.89" fill-opacity="0" font-family="Arial,Arial_MSFontService,sans-serif" font-size="55.32">𝑀</text><path fill="#d74514" fill-rule="evenodd" d="M1712.82 1976.48h6.32v63.43h-6.32Zm-14.18 0h6.32v63.43h-6.32Z"/><text x="1698.64" y="2031.98" fill-opacity="0" font-family="Arial,Arial_MSFontService,sans-serif" font-size="63.425">∥</text><path fill="#d74514" fill-rule="evenodd" d="M1763.87 1976.48h16.21l-.45 1.99c-1.02.22-1.76.46-2.2.73-.45.27-.85.67-1.2 1.22-.35.54-.72 1.38-1.09 2.53-.38 1.15-.85 3.02-1.42 5.61l-2.76 12.4h21.76l2.76-12.44c.24-1.11.45-2.29.63-3.55.17-1.25.26-2.24.26-2.97 0-1.27-.32-2.16-.95-2.66s-1.64-.79-3.02-.87l.45-1.99h16.21l-.45 1.99c-1.03.22-1.76.46-2.21.73-.44.27-.84.67-1.19 1.22-.35.54-.72 1.38-1.1 2.53s-.85 3.02-1.42 5.61l-6.93 31.45c-.35 1.59-.58 2.86-.68 3.79-.11.93-.17 1.78-.17 2.53 0 1.22.31 2.08.92 2.58.6.5 1.62.8 3.06.91l-.45 1.98h-16.21l.44-1.98c1.03-.16 1.8-.43 2.31-.79.52-.37.95-.87 1.3-1.52s.68-1.44.97-2.37c.3-.93.75-2.74 1.34-5.41l3.32-15.04h-21.76l-3.36 15.32c-.3 1.35-.52 2.47-.65 3.34-.14.88-.2 1.87-.2 2.98q0 1.74.81 2.52c.54.51 1.59.83 3.16.97l-.45 1.98h-16.21l.45-1.98c1.02-.16 1.79-.43 2.31-.79.51-.37.94-.87 1.29-1.52.36-.65.68-1.44.98-2.37.29-.93.74-2.74 1.33-5.41l6.89-31.21c.25-1.11.46-2.29.63-3.55q.27-1.875.27-2.97c0-1.27-.32-2.16-.96-2.66-.63-.5-1.64-.79-3.02-.87Z"/><text x="1753.25" y="2024.89" fill-opacity="0" font-family="Arial,Arial_MSFontService,sans-serif" font-size="55.32">𝐻</text><path fill="#d74514" fill-rule="evenodd" d="M2070.56 1969.69c7.89 2.08 13.95 6.57 18.18 13.48 4.22 6.9 6.34 15.23 6.34 24.98 0 9.78-2.11 18.11-6.32 24.99-4.22 6.87-10.28 11.35-18.2 13.43l-.97-3.12c6.24-2.08 10.88-6.19 13.92-12.32s4.56-13.93 4.56-23.39c0-9.13-1.52-16.71-4.54-22.75q-4.545-9.06-14.07-12.18Zm-225.24 0 1.09 3.12q-9.48 3.12-14.04 12.18c-3.04 6.04-4.56 13.62-4.56 22.75 0 9.46 1.52 17.26 4.56 23.39s7.68 10.24 13.92 12.32l-.97 3.12c-7.92-2.08-13.98-6.56-18.2-13.43-4.21-6.88-6.32-15.21-6.32-24.99 0-9.75 2.11-18.08 6.34-24.98 4.23-6.91 10.29-11.4 18.18-13.48m15.27 6.79h14.47l4.62 39.32 23.62-39.32h12.77l-.45 1.99c-1.02.22-1.76.46-2.2.73-.45.27-.86.67-1.22 1.22-.36.54-.73 1.38-1.09 2.53-.37 1.15-.83 3.02-1.4 5.61l-6.93 31.45c-.35 1.59-.58 2.86-.69 3.79s-.16 1.78-.16 2.53c0 1.22.3 2.08.91 2.58s1.63.8 3.06.91l-.45 1.98h-16.21l.45-1.98c1.02-.16 1.79-.43 2.31-.79.51-.37.94-.87 1.29-1.52.36-.65.68-1.44.98-2.37.29-.93.74-2.74 1.33-5.41l5.39-24.44c.76-3.38 1.63-6.74 2.6-10.09h-.57q-1.26 2.385-5.67 9.72l-18.44 30.44h-4.42l-3.36-26.06c-.49-3.67-1.03-8.62-1.63-14.83h-.81c-.91 6.05-1.94 11.66-3.08 16.82l-4.13 18.72c-.57 2.57-.85 4.67-.85 6.32 0 1.22.3 2.08.91 2.58s1.63.8 3.06.91l-.45 1.98h-14.18l.45-1.98c1.02-.16 1.79-.43 2.31-.79.51-.37.94-.87 1.29-1.52s.68-1.44.98-2.37c.29-.93.74-2.74 1.33-5.41l6.89-31.21c.27-1.16.49-2.27.65-3.32.16-1.06.24-2.12.24-3.2 0-1.27-.31-2.16-.95-2.66-.63-.5-1.64-.79-3.02-.87Z"/><text x="1849.97" y="2024.89" fill-opacity="0" font-family="Arial,Arial_MSFontService,sans-serif" font-size="55.32">𝑀</text><path fill="#d74514" fill-rule="evenodd" d="M1984.66 1976.48h6.32v63.43h-6.32Zm-14.19 0h6.33v63.43h-6.33Z"/><text x="1970.47" y="2031.98" fill-opacity="0" font-family="Arial,Arial_MSFontService,sans-serif" font-size="63.425">∥</text><path fill="#d74514" fill-rule="evenodd" d="M2051.55 1975.84c2.49 0 4.79.16 6.91.5s4.47.91 7.03 1.72l-2.26 10.42h-3.9c-.1-2.3-.45-4.1-1.05-5.41q-.885-1.965-2.55-2.82c-1.11-.56-2.58-.85-4.42-.85-2.24 0-4.21.46-5.92 1.38-1.7.92-3 2.17-3.89 3.75s-1.33 3.34-1.33 5.29c0 2.02.53 3.8 1.6 5.33 1.06 1.52 3.11 3.33 6.14 5.41 2.64 1.83 4.66 3.48 6.05 4.92 1.4 1.45 2.42 2.98 3.08 4.6.67 1.62 1 3.5 1 5.63 0 3.3-.79 6.23-2.37 8.78s-3.81 4.52-6.69 5.92c-2.88 1.39-6.15 2.08-9.83 2.08-2.48 0-5.17-.2-8.04-.6-2.88-.41-5.45-.92-7.72-1.55l2.43-11.14h3.89c0 3.3.76 5.75 2.29 7.36 1.53 1.6 3.88 2.41 7.07 2.41q5.52 0 8.67-3c2.11-2 3.16-4.78 3.16-8.35 0-1.65-.29-3.1-.87-4.36-.58-1.25-1.46-2.46-2.63-3.6-1.18-1.15-2.87-2.47-5.09-3.96q-3-2.025-4.98-3.99a15.7 15.7 0 0 1-3.16-4.39c-.79-1.63-1.18-3.44-1.18-5.44q0-4.77 2.31-8.43c1.54-2.43 3.72-4.3 6.53-5.63q4.215-1.98 9.72-1.98"/><text x="2023.39" y="2025.41" fill-opacity="0" font-family="Arial,Arial_MSFontService,sans-serif" font-size="56.657">𝑆</text><path fill-rule="evenodd" d="M2182.62 1853.75h16.21l-.45 1.99c-1.03.22-1.76.46-2.21.73-.44.27-.84.67-1.19 1.21-.36.54-.72 1.39-1.1 2.54s-.85 3.02-1.42 5.61l-2.87 12.93h1.33c1.14 0 2.17-.19 3.1-.57.94-.38 2.02-1.07 3.27-2.07 1.24-1 3.22-2.83 5.93-5.51 2.72-2.67 4.65-4.71 5.8-6.1s1.98-2.59 2.51-3.6c.53-1.02.79-1.94.79-2.78 0-.68-.27-1.22-.81-1.64q-.81-.63-2.31-.75l.45-1.99h17.38l-.44 1.99c-1.08.16-2.31.72-3.67 1.68s-3.45 2.83-6.26 5.61l-15.73 15.32 8.64 20.75c.89 2.14 1.62 3.68 2.2 4.62.59.95 1.28 1.7 2.09 2.25.81.56 1.81.93 3 1.12l-.44 1.98h-15.65l.45-1.98q2.19-.21 2.19-1.95 0-1.095-.45-2.49c-.3-.93-.65-1.9-1.05-2.9l-5.27-12.89q-.93-2.31-1.62-3.24c-.46-.62-.95-1.05-1.46-1.29-.52-.25-1.31-.37-2.39-.37h-2.27l-3.37 15.32c-.35 1.62-.58 2.9-.69 3.83-.1.93-.16 1.76-.16 2.49 0 1.22.31 2.08.91 2.58.61.5 1.63.8 3.06.91l-.44 1.98H2172l.44-1.98c1.03-.16 1.8-.43 2.31-.79.52-.37.95-.87 1.3-1.52s.68-1.44.97-2.37c.3-.94.75-2.74 1.34-5.41l6.89-31.21c.59-2.7.89-4.88.89-6.52 0-1.27-.32-2.16-.95-2.66-.64-.5-1.64-.79-3.02-.87Z"/><text x="2172" y="1902.16" fill-opacity="0" font-family="Arial,Arial_MSFontService,sans-serif" font-size="55.32">𝐾</text><path d="m1944.55 1608.673 102.456-1.132-.101-9.166-102.456 1.132Zm98.075 17.25 45.578-23.421-46.084-22.409Zm263.875-28.003h72.95v9.16h-72.95Zm68.36-18.34 45.84 22.92-45.84 22.92Z"/></g></svg>