<svg xmlns="http://www.w3.org/2000/svg" width="2887" height="1126" overflow="hidden"><defs><clipPath id="a"><path d="M280 791h2887v1126H280z"/></clipPath></defs><g clip-path="url(#a)" transform="translate(-280 -791)"><path fill="#fdefe8" d="M297 834h743v1041H297z"/><text fill="#d74514" font-family="Microsoft YaHei,Microsoft YaHei_MSFontService,sans-serif" font-size="83" font-weight="700" transform="translate(330.457 1012)">A</text><path fill-rule="evenodd" d="M341.683 1105.67h20.629l-.608 2.67q-1.743.165-2.533 1.08t-.79 2.37c0 .81.148 1.77.445 2.9.298 1.12.757 2.46 1.378 4.03l2.554 6.73 5.43-6.73q2.594-3.24 3.607-4.89 1.013-1.635 1.013-2.73c0-.92-.229-1.57-.689-1.97-.459-.39-1.215-.65-2.269-.79l.608-2.67h16.859l-.608 2.71c-.648.11-1.297.37-1.945.77-.649.41-1.533 1.17-2.655 2.27-1.121 1.11-2.978 3.18-5.572 6.2l-11.632 13.5 7.174 18.68c1.081 2.84 2.046 4.89 2.898 6.14q1.276 1.89 3.384 2.37l-.568 2.68h-20.669l.568-2.68c2.134-.21 3.201-1.19 3.201-2.91 0-.98-.121-1.96-.364-2.96q-.366-1.5-1.054-3.33l-3.607-9.52-8.389 10.01c-1.243 1.49-2.121 2.66-2.635 3.53q-.77 1.29-.77 2.55c0 1.62 1 2.5 2.999 2.63l-.567 2.68h-16.9l.568-2.68q1.66-.435 3.303-1.86c1.094-.95 3.167-3.16 6.22-6.65l13.982-15.8-6.2-16.38a118 118 0 0 0-1.561-3.76c-.607-1.41-1.161-2.48-1.661-3.23-.5-.74-.986-1.27-1.459-1.6q-.71-.48-1.723-.69Z"/><text x="329.606" y="1154.07" fill-opacity="0" font-family="Arial,Arial_MSFontService,sans-serif" font-size="55.32">ğ‘¿</text><path fill-rule="evenodd" d="m412.083 1144.38-9.203 17.37h9.71l-.119-7.15c-.04-2.54-.06-4.65-.06-6.31 0-1.28.01-2.58.03-3.91Zm-.417-7.41h8.579l1.28 31.84c.04 1.13.119 2.15.239 3.05q.178 1.35.565 2.22c.259.58.581 1 .968 1.27.388.26.879.44 1.475.52l-.447 1.96h-15.399l.447-1.96c.874-.06 1.564-.29 2.07-.67.506-.39.859-.92 1.057-1.58q.298-1.005.298-2.79c0-.85-.02-1.74-.059-2.68l-.06-2.92h-11.646l-.417.75c-1.112 2-1.852 3.52-2.219 4.55-.367 1.04-.551 1.99-.551 2.86 0 1.43.844 2.26 2.532 2.48l-.447 1.96h-12.569l.446-1.96a5 5 0 0 0 1.832-.81q.79-.57 1.504-1.53c.477-.65 1.152-1.75 2.026-3.32Z"/><text x="387.362" y="1172.72" fill-opacity="0" font-family="Arial,Arial_MSFontService,sans-serif" font-size="40.865">ğ‘¨</text><path fill-rule="evenodd" d="M510.315 1112.11v6.08l-44.013 19.09 44.013 19.09v6.08l-50.092-22.33v-5.68Z"/><text x="460.223" y="1156.16" fill-opacity="0" font-family="Arial,Arial_MSFontService,sans-serif" font-size="50.335">&lt;</text><path fill-rule="evenodd" d="M571.641 1126.09c-1.783 0-3.6.88-5.451 2.62a20.4 20.4 0 0 0-4.438 6.06c-1.107 2.29-2.121 5.54-3.039 9.72l-.324 1.5q-.65 3-.649 5.88 0 2.955.993 4.26.992 1.29 3.344 1.29c1.35 0 2.58-.3 3.688-.91 1.107-.61 2.154-1.6 3.14-2.98s1.946-3.15 2.878-5.33q1.398-3.255 2.411-7.8t1.013-8.43q0-3-.871-4.44t-2.695-1.44m-17.873-5.95c2.243 0 4.033.63 5.37 1.88 1.338 1.26 2.006 2.91 2.006 4.97 0 .67-.081 1.32-.243 1.94l.406.33q3.728-4.755 7.213-6.93 3.486-2.19 8.065-2.19c3.053 0 5.424 1.1 7.113 3.32s2.533 5.42 2.533 9.61q0 5.46-1.581 10.86-1.58 5.385-4.539 9.3c-1.972 2.6-4.451 4.66-7.437 6.16q-4.478 2.25-10.111 2.25-3.607 0-6.971-1.26l-1.54 7.21a77 77 0 0 0-.527 2.78c-.108.66-.162 1.28-.162 1.84 0 1.17.304 2 .912 2.52.608.51 1.655.85 3.141 1.01l-.446 2.68h-16.859l10.253-45.6c.405-1.81.608-3.15.608-4.01q0-1.335-.446-2.07c-.297-.48-.81-.73-1.54-.73q-1.255 0-2.715 1.14c-.973.75-2.108 1.88-3.404 3.36l-2.918-2.92q4.052-4.125 7.193-5.79a13.95 13.95 0 0 1 6.626-1.66"/><text x="539.949" y="1171.13" fill-opacity="0" font-family="Arial,Arial_MSFontService,sans-serif" font-size="58.278">ğ’‘</text><path fill-rule="evenodd" d="M335.28 1255.69h19.818l-.608 2.67c-2.107.24-3.161 1.49-3.161 3.73 0 1.43.27 3.35.81 5.75l3.202 14.84 9.281-13.46c1.486-2.13 2.458-3.76 2.918-4.88q.689-1.68.689-3.39c0-.75-.216-1.34-.649-1.76-.432-.42-1.189-.69-2.269-.83l.608-2.67h16.616l-.608 2.67q-1.054.24-1.945.87c-.595.42-1.432 1.24-2.513 2.47s-2.634 3.28-4.661 6.14l-15.684 21.64-2.35 10.62c-.189.79-.325 1.52-.406 2.21a22 22 0 0 0-.121 2.49q0 1.875.952 2.64c.635.51 1.628.81 2.979.89l-.567 2.68h-21.52l.567-2.68q1.783-.24 2.837-1.05c.702-.54 1.29-1.35 1.763-2.41.473-1.07.952-2.67 1.439-4.81l2.391-10.98-5.269-22.53c-.405-1.71-.804-3.1-1.195-4.18q-.588-1.62-1.176-2.43c-.392-.54-.777-.92-1.155-1.13q-.567-.33-1.621-.45Z"/><text x="334.672" y="1304.09" fill-opacity="0" font-family="Arial,Arial_MSFontService,sans-serif" font-size="55.32">ğ’€</text><path fill-rule="evenodd" d="m406.927 1294.4-9.203 17.36h9.709l-.119-7.14c-.039-2.55-.059-4.65-.059-6.32q0-1.905.03-3.9Zm-.417-7.42h8.578l1.281 31.84c.04 1.14.119 2.15.238 3.06q.179 1.35.566 2.22.387.855.968 1.26c.387.27.879.44 1.475.52l-.447 1.97H403.77l.447-1.97c.873-.06 1.563-.28 2.07-.67.506-.38.859-.91 1.057-1.58.199-.66.298-1.59.298-2.78 0-.85-.02-1.75-.06-2.68l-.059-2.92h-11.646l-.417.74q-1.668 3.015-2.219 4.56c-.367 1.03-.551 1.99-.551 2.86 0 1.43.844 2.25 2.532 2.47l-.447 1.97h-12.57l.447-1.97c.695-.16 1.306-.42 1.832-.8s1.028-.89 1.504-1.54c.477-.64 1.152-1.75 2.026-3.32Z"/><text x="382.205" y="1322.74" fill-opacity="0" font-family="Arial,Arial_MSFontService,sans-serif" font-size="40.865">ğ‘¨</text><path fill-rule="evenodd" d="M455.067 1293.01h49.929v5.39h-49.929Zm0-16.82h49.929v5.39h-49.929Z"/><text x="455.067" y="1295.62" fill-opacity="0" font-family="Arial,Arial_MSFontService,sans-serif" font-size="22.209">=</text><path fill-rule="evenodd" d="M562.27 1274.37c-2.513 0-4.742 1.26-6.687 3.79-1.945 2.52-3.513 5.92-4.701 10.19-1.189 4.27-1.783 8.09-1.783 11.47 0 1.97.29 3.44.871 4.42.581.97 1.479 1.46 2.695 1.46 1.783 0 3.6-.88 5.451-2.62s3.343-3.79 4.478-6.14 2.148-5.56 3.04-9.64l.324-1.5q.648-3 .648-6c0-1.78-.337-3.14-1.013-4.05q-1.013-1.38-3.323-1.38m-.486-4.22c4.025 0 7.457.98 10.294 2.92l3.931-2.92 4.539.65-6.566 27.56q-.608 2.55-.608 4.62 0 1.335.446 2.07c.297.48.811.73 1.54.73q1.257 0 2.716-1.14c.972-.75 2.107-1.88 3.404-3.36l2.918 2.92c-2.837 2.83-5.282 4.79-7.336 5.85a13.8 13.8 0 0 1-6.484 1.6c-2.27 0-4.066-.62-5.39-1.88s-1.986-2.91-1.986-4.97c0-.67.081-1.32.243-1.94l-.567-.08q-2.96 3.48-5.086 5.25c-1.419 1.17-2.925 2.07-4.519 2.69q-2.391.93-5.309.93-4.863 0-7.376-3.3c-1.675-2.2-2.513-5.41-2.513-9.62 0-3.65.527-7.27 1.581-10.87q1.58-5.385 4.539-9.3c1.972-2.6 4.451-4.66 7.436-6.16q4.479-2.25 10.153-2.25"/><text x="538.075" y="1306.47" fill-opacity="0" font-family="Arial,Arial_MSFontService,sans-serif" font-size="41.5">ğ’‚</text><path fill-rule="evenodd" d="M593.06 1240.14h15.16l-.446 1.97c-.854.08-1.475.34-1.862.79q-.58.675-.581 1.74 0 .9.328 2.13c.218.83.556 1.81 1.013 2.96l1.876 4.95 3.991-4.95c1.271-1.58 2.155-2.78 2.651-3.58q.745-1.215.745-2.01c0-.68-.169-1.16-.507-1.45s-.893-.48-1.668-.58l.447-1.97h12.391l-.447 2q-.714.12-1.43.57c-.476.29-1.126.85-1.95 1.66q-1.237 1.23-4.096 4.56l-8.548 9.92 5.272 13.73c.794 2.09 1.504 3.59 2.129 4.51.626.93 1.455 1.51 2.487 1.75l-.417 1.96h-15.19l.417-1.96c1.569-.16 2.353-.88 2.353-2.15 0-.71-.089-1.44-.268-2.17-.179-.74-.437-1.55-.775-2.45l-2.65-7-6.166 7.36c-.913 1.09-1.559 1.96-1.936 2.59-.377.64-.566 1.26-.566 1.88 0 1.19.735 1.84 2.204 1.94l-.417 1.96h-12.42l.417-1.96q1.221-.33 2.427-1.38c.805-.69 2.329-2.32 4.572-4.88l10.276-11.62-4.557-12.03c-.318-.81-.7-1.74-1.147-2.77q-.669-1.545-1.221-2.37c-.367-.54-.725-.94-1.072-1.17q-.522-.36-1.266-.51Z"/><text x="584.184" y="1275.72" fill-opacity="0" font-family="Arial,Arial_MSFontService,sans-serif" font-size="40.657">ğ‘¿</text><path fill-rule="evenodd" d="m646.578 1265.64-7.543 14.24h7.959l-.098-5.86c-.033-2.09-.049-3.81-.049-5.18 0-1.04.008-2.11.024-3.2Zm-.341-6.07h7.031l1.05 26.09c.032.93.097 1.77.195 2.51s.252 1.34.464 1.82c.212.47.476.81.793 1.03s.721.36 1.209.43l-.366 1.61h-12.622l.366-1.61c.716-.05 1.282-.23 1.697-.55q.623-.48.866-1.29c.163-.55.244-1.31.244-2.29q0-1.05-.048-2.19l-.049-2.4h-9.546l-.342.61c-.911 1.65-1.518 2.89-1.819 3.74q-.451 1.275-.451 2.34c0 1.18.691 1.85 2.075 2.03l-.366 1.61h-10.303l.366-1.61a4.1 4.1 0 0 0 1.501-.66q.648-.465 1.233-1.26c.391-.53.944-1.43 1.661-2.72Z"/><text x="626.315" y="1288.87" fill-opacity="0" font-family="Arial,Arial_MSFontService,sans-serif" font-size="33.496">ğ‘¨</text><path fill-rule="evenodd" d="M831.297 1274.37c-2.513 0-4.465 1.32-5.857 3.95-1.391 2.63-2.087 6.34-2.087 11.12 0 5.33.581 9.3 1.743 11.92q1.743 3.93 5.43 3.93 1.743 0 3.466-.87c1.148-.58 2.114-1.47 2.897-2.68.784-1.2 1.176-2.58 1.176-4.15v-13.5c0-3.29-.554-5.74-1.662-7.33s-2.81-2.39-5.106-2.39m-49.527 0c-2.675 0-4.614 1.27-5.816 3.83-1.202 2.55-1.803 6.58-1.803 12.1 0 5.72.641 10.01 1.925 12.86 1.283 2.85 3.221 4.28 5.815 4.28q3.85 0 5.674-3.75c1.216-2.5 1.824-6.49 1.824-11.98 0-5.8-.642-10.15-1.925-13.03-1.284-2.87-3.182-4.31-5.694-4.31m.162-4.22c6.538 0 11.469 1.73 14.792 5.17 3.323 3.45 4.985 8.49 4.985 15.14 0 6.86-1.756 12.11-5.268 15.74-3.513 3.64-8.565 5.45-15.158 5.45-6.349 0-11.178-1.73-14.488-5.2-3.31-3.48-4.965-8.56-4.965-15.26q0-7.14 2.614-11.88c1.743-3.16 4.114-5.48 7.113-6.95s6.457-2.21 10.375-2.21m-66.057 0q4.418 0 6.93 1.77c1.675 1.17 2.891 2.88 3.648 5.12 2.729-2.54 5.099-4.32 7.112-5.35 2.013-1.02 4.114-1.54 6.302-1.54 2.162 0 3.952.29 5.37.85a8.2 8.2 0 0 1 3.506 2.64c.918 1.19 1.587 2.67 2.006 4.46.419 1.78.628 3.91.628 6.4v14.79q0 3.855.243 5.31c.162.97.5 1.75 1.013 2.33.514.58 1.459 1.05 2.837 1.4v2.68h-19.534v-2.68c1.216-.3 2.054-.73 2.513-1.3.459-.56.777-1.35.952-2.35.176-1 .264-2.78.264-5.35v-10.86q0-3.645-.243-5.94c-.163-1.52-.473-2.72-.933-3.58-.459-.87-1.006-1.49-1.641-1.87-.635-.37-1.466-.56-2.492-.56-.703 0-1.351.1-1.946.32q-.891.33-1.803.99c-.608.45-1.128.9-1.56 1.36s-.777.97-1.034 1.54-.432 1.2-.527 1.91c-.094.7-.142 1.85-.142 3.44v13.21c0 2.41.068 4.14.203 5.21s.459 1.89.973 2.47c.513.58 1.378 1.04 2.593 1.36v2.68h-19.291v-2.68c1.243-.3 2.101-.73 2.574-1.3.473-.56.79-1.34.952-2.33q.243-1.47.243-5.37v-10.86c0-1.78-.033-3.29-.101-4.52-.067-1.23-.182-2.22-.344-2.98a8.4 8.4 0 0 0-.669-1.98q-.426-.855-.973-1.38a3.8 3.8 0 0 0-1.297-.81c-.499-.19-1.128-.28-1.884-.28q-1.5 0-3.141.93c-1.094.62-2.013 1.48-2.756 2.59q-1.114 1.665-1.114 3.57v15.68c0 2.54.074 4.32.223 5.33.148 1.02.466 1.81.952 2.39q.729.87 2.553 1.32v2.68h-19.412v-2.68q1.944-.525 2.695-1.38.749-.855 1.013-2.31t.263-5.31v-16.65q0-3-.101-4.44t-.486-2.31a3.3 3.3 0 0 0-1.176-1.42c-.527-.36-1.438-.68-2.735-.95v-2.76l11.104-.32h5.107l-.608 5.83.486.13c2.459-2.3 4.674-3.92 6.647-4.87 1.972-.94 3.985-1.42 6.038-1.42m128.836-17.18h5.066v46.2q0 3.075.101 4.5c.068.95.223 1.7.466 2.27s.635 1.03 1.176 1.4c.54.36 1.445.68 2.715.95v2.72l-11.023.36h-4.904l.364-5.84-.607-.04q-2.919 2.97-6.14 4.56c-2.148 1.07-4.208 1.6-6.181 1.6-4.917 0-8.598-1.69-11.043-5.06q-3.668-5.07-3.668-15.24 0-6.885 2.229-11.61c1.486-3.15 3.695-5.53 6.626-7.15 2.932-1.63 6.464-2.44 10.598-2.44 1.189 0 2.357.08 3.506.23 1.148.14 2.505.44 4.073.87v-3.69c0-2.89-.041-4.94-.122-6.14q-.122-1.8-.507-2.76c-.256-.63-.641-1.12-1.155-1.48q-.77-.525-2.796-.93v-2.71Z"/><text x="687.101" y="1304.32" fill-opacity="0" font-family="Arial,Arial_MSFontService,sans-serif" font-size="58.684">ğ¦ğ¨ğ</text><path fill-rule="evenodd" d="M907.554 1276.11q-2.676 0-5.451 2.61a20.7 20.7 0 0 0-4.438 6.06c-1.108 2.3-2.121 5.54-3.04 9.73l-.324 1.5q-.648 3-.648 5.88c0 1.97.331 3.39.993 4.25.661.87 1.776 1.3 3.343 1.3 1.351 0 2.58-.31 3.688-.91 1.108-.61 2.155-1.6 3.141-2.98s1.945-3.16 2.877-5.33q1.399-3.27 2.412-7.8 1.013-4.545 1.013-8.43 0-3-.871-4.44-.872-1.44-2.695-1.44m-17.873-5.96q3.363 0 5.37 1.89c1.337 1.25 2.006 2.91 2.006 4.96q0 1.02-.243 1.95l.405.32q3.729-4.74 7.214-6.93t8.065-2.19 7.112 3.33q2.533 3.315 2.533 9.6 0 5.475-1.58 10.86-1.581 5.4-4.539 9.3c-1.973 2.61-4.451 4.66-7.437 6.16q-4.478 2.25-10.112 2.25c-2.404 0-4.728-.42-6.97-1.25l-1.54 7.21a75 75 0 0 0-.527 2.78c-.108.66-.162 1.27-.162 1.84 0 1.16.304 2 .912 2.51.607.52 1.654.85 3.14 1.02l-.445 2.67h-16.86l10.254-45.59c.405-1.81.608-3.15.608-4.01 0-.9-.149-1.58-.446-2.07s-.811-.73-1.54-.73c-.838 0-1.743.38-2.716 1.13-.972.76-2.107 1.88-3.404 3.37l-2.918-2.92q4.053-4.14 7.194-5.79c2.094-1.11 4.302-1.67 6.626-1.67"/><text x="875.861" y="1321.15" fill-opacity="0" font-family="Arial,Arial_MSFontService,sans-serif" font-size="58.278">ğ’‘</text><path fill-rule="evenodd" d="M343.912 1726.69h20.386l-.568 2.68c-1.54.43-2.675 1.19-3.404 2.27q-1.095 1.62-2.067 6l-3.04 13.69h.608c1.135 0 2.162-.19 3.08-.58.919-.4 1.932-1.03 3.04-1.91q1.662-1.32 5.431-5.04 3.768-3.735 5.451-5.76 1.681-2.025 2.391-3.42c.473-.94.709-1.79.709-2.58 0-.94-.216-1.6-.649-1.96-.432-.37-1.148-.6-2.147-.71l.607-2.68h19.778l-.608 2.76c-.892.19-1.675.45-2.351.77q-1.012.48-2.533 1.74t-4.518 4.14l-14.671 14.06 8.551 21.07c.81 2 1.526 3.55 2.148 4.64.621 1.1 1.249 1.89 1.884 2.39s1.466.88 2.493 1.12l-.527 2.63h-20.264l.608-2.67q1.095-.12 1.54-.57c.297-.3.446-.78.446-1.46q0-.975-.405-2.49c-.27-1.01-.851-2.67-1.743-4.96l-3.688-9.57c-.513-1.32-.993-2.29-1.439-2.9-.445-.6-.918-1.03-1.418-1.27-.5-.25-1.223-.37-2.168-.37h-.608l-3.364 15.32q-.284 1.335-.405 2.25t-.122 2.49c0 1.14.264 1.97.79 2.5.527.52 1.385.87 2.574 1.03l-.567 2.67h-20.386l.568-2.67c1.54-.43 2.674-1.19 3.404-2.27q1.094-1.62 2.067-6l7.376-33.43c.351-1.6.527-3.18.527-4.75q0-1.695-.791-2.49c-.526-.53-1.384-.87-2.573-1.03Z"/><text x="332.767" y="1775.1" fill-opacity="0" font-family="Arial,Arial_MSFontService,sans-serif" font-size="55.32">ğ‘²</text><path fill-rule="evenodd" d="m417.813 1765.41-9.204 17.36h9.71l-.119-7.15a414 414 0 0 1-.06-6.31q0-1.905.03-3.9Zm25.167-7.21h28.176l-.446 1.97-24.99 35.14h7.565c1.112 0 2.001-.16 2.666-.49q.998-.495 2.323-2.34c.884-1.23 1.683-2.79 2.398-4.67h3.902l-2.383 11.05h-28.415l.417-1.97 24.99-35.15h-7.268q-1.25 0-1.906.18c-.437.12-.839.31-1.206.55-.368.25-.79.64-1.266 1.18q-.715.81-1.594 2.31c-.586 1-1.037 1.9-1.355 2.69h-3.902Zm-25.584-.21h8.578l1.28 31.84q.06 1.695.239 3.06c.119.9.307 1.64.566 2.21.258.58.58 1 .968 1.27.387.27.878.44 1.474.52l-.447 1.97h-15.399l.447-1.97c.874-.06 1.564-.28 2.07-.67s.859-.91 1.058-1.58c.198-.66.297-1.59.297-2.78 0-.86-.019-1.75-.059-2.68l-.06-2.92h-11.646l-.417.74q-1.668 3.015-2.219 4.56c-.367 1.03-.551 1.99-.551 2.86 0 1.43.844 2.25 2.532 2.47l-.447 1.97h-12.569l.447-1.97a5.2 5.2 0 0 0 1.831-.8c.527-.38 1.028-.89 1.505-1.54.476-.64 1.151-1.75 2.025-3.32Z"/><text x="393.091" y="1793.75" fill-opacity="0" font-family="Arial,Arial_MSFontService,sans-serif" font-size="40.865">ğ‘¨ğ’</text><path fill-rule="evenodd" d="M503.765 1764.02h49.929v5.39h-49.929Zm0-16.82h49.929v5.39h-49.929Z"/><text x="503.765" y="1766.63" fill-opacity="0" font-family="Arial,Arial_MSFontService,sans-serif" font-size="22.209">=</text><path fill-rule="evenodd" d="M587.34 1726.69h19.818l-.608 2.68c-2.107.24-3.161 1.48-3.161 3.73 0 1.43.27 3.35.811 5.75l3.201 14.83 9.281-13.45c1.486-2.13 2.459-3.76 2.918-4.88.459-1.13.689-2.25.689-3.39 0-.75-.216-1.34-.648-1.76s-1.189-.7-2.27-.83l.608-2.68h16.616l-.608 2.68a5.4 5.4 0 0 0-1.945.87c-.594.42-1.432 1.24-2.513 2.47s-2.634 3.28-4.66 6.14l-15.684 21.64-2.351 10.62c-.189.79-.324 1.52-.405 2.21q-.122 1.035-.122 2.49c0 1.25.318 2.12.953 2.64.635.51 1.627.81 2.978.89l-.567 2.67h-21.52l.567-2.67c1.189-.16 2.135-.51 2.837-1.06.703-.54 1.29-1.34 1.763-2.41q.71-1.59 1.439-4.8l2.391-10.98-5.269-22.54q-.607-2.55-1.195-4.17t-1.175-2.43q-.588-.81-1.155-1.14c-.379-.21-.919-.36-1.622-.44Z"/><text x="586.732" y="1775.1" fill-opacity="0" font-family="Arial,Arial_MSFontService,sans-serif" font-size="55.32">ğ’€</text><path fill-rule="evenodd" d="M644.155 1766.93h28.176l-.446 1.97-24.99 35.14h7.565c1.112 0 2.001-.16 2.666-.49s1.44-1.1 2.323-2.34c.884-1.23 1.683-2.79 2.398-4.67h3.902l-2.383 11.05h-28.415l.417-1.97 24.99-35.14h-7.268c-.834 0-1.469.06-1.906.17-.437.12-.839.31-1.206.56-.368.24-.79.64-1.266 1.17q-.715.81-1.594 2.31t-1.355 2.7h-3.902Z"/><text x="634.951" y="1802.51" fill-opacity="0" font-family="Arial,Arial_MSFontService,sans-serif" font-size="40.657">ğ’</text><path fill-rule="evenodd" d="M642.904 1698.27h15.16l-.447 1.97c-.853.08-1.474.34-1.861.79q-.58.675-.581 1.74 0 .9.328 2.13c.218.82.556 1.81 1.012 2.96l1.877 4.95 3.991-4.95c1.271-1.58 2.155-2.78 2.651-3.58.496-.81.745-1.48.745-2.02q0-1.005-.507-1.44c-.337-.29-.893-.48-1.668-.58l.447-1.97h12.391l-.447 2c-.477.08-.953.27-1.43.56-.476.3-1.127.86-1.951 1.67q-1.236 1.23-4.095 4.56l-8.549 9.92 5.272 13.73c.795 2.08 1.505 3.59 2.13 4.51q.939 1.395 2.487 1.74l-.417 1.97h-15.19l.417-1.97c1.568-.15 2.353-.87 2.353-2.14 0-.72-.09-1.44-.268-2.17-.179-.74-.437-1.55-.775-2.45l-2.651-7-6.165 7.36c-.914 1.09-1.559 1.96-1.936 2.59-.377.64-.566 1.26-.566 1.88 0 1.19.735 1.83 2.204 1.93l-.417 1.97h-12.42l.417-1.97c.814-.21 1.623-.67 2.427-1.37.804-.69 2.328-2.32 4.572-4.88l10.276-11.62-4.557-12.03c-.318-.81-.7-1.74-1.147-2.77q-.67-1.545-1.221-2.37c-.367-.54-.725-.94-1.072-1.17q-.522-.36-1.266-.51Z"/><text x="634.028" y="1733.85" fill-opacity="0" font-family="Arial,Arial_MSFontService,sans-serif" font-size="40.657">ğ‘¿</text><path fill-rule="evenodd" d="m696.422 1723.77-7.544 14.24h7.959l-.097-5.86c-.033-2.09-.049-3.81-.049-5.18 0-1.04.008-2.11.024-3.2Zm-.342-6.08h7.032l1.049 26.1c.033.93.098 1.76.196 2.51.097.74.252 1.34.464 1.81.211.48.476.82.793 1.04s.72.36 1.209.43l-.367 1.61h-12.622l.367-1.61c.716-.05 1.281-.23 1.696-.55q.622-.48.867-1.29c.163-.55.244-1.31.244-2.29q0-1.05-.049-2.19l-.048-2.4h-9.546l-.342.61c-.912 1.65-1.518 2.89-1.819 3.74q-.452 1.275-.452 2.34c0 1.17.692 1.85 2.076 2.03l-.367 1.61h-10.302l.366-1.61q.854-.195 1.501-.66.648-.465 1.233-1.26c.391-.53.944-1.43 1.66-2.72Z"/><text x="676.159" y="1747" fill-opacity="0" font-family="Arial,Arial_MSFontService,sans-serif" font-size="33.496">ğ‘¨</text><path fill-rule="evenodd" d="M881.14 1745.38c-2.512 0-4.465 1.31-5.856 3.95-1.391 2.63-2.087 6.34-2.087 11.12 0 5.33.581 9.3 1.743 11.92q1.742 3.93 5.43 3.93 1.743 0 3.465-.87c1.149-.58 2.114-1.47 2.898-2.68.784-1.2 1.175-2.58 1.175-4.15v-13.5c0-3.29-.554-5.74-1.661-7.33-1.108-1.6-2.81-2.39-5.107-2.39m-49.527 0c-2.674 0-4.613 1.27-5.815 3.83q-1.804 3.825-1.804 12.09 0 8.595 1.925 12.87c1.284 2.85 3.222 4.28 5.816 4.28q3.85 0 5.674-3.75c1.216-2.5 1.824-6.49 1.824-11.98 0-5.81-.642-10.15-1.926-13.03-1.283-2.87-3.181-4.31-5.694-4.31m.163-4.22c6.538 0 11.469 1.72 14.792 5.17 3.323 3.44 4.985 8.49 4.985 15.14 0 6.86-1.756 12.11-5.269 15.74s-8.564 5.45-15.157 5.45c-6.349 0-11.179-1.73-14.488-5.21-3.31-3.47-4.965-8.55-4.965-15.25q0-7.14 2.614-11.88c1.743-3.16 4.113-5.48 7.113-6.95s6.457-2.21 10.375-2.21m-66.057 0c2.945 0 5.255.59 6.93 1.76q2.512 1.77 3.648 5.13c2.728-2.54 5.099-4.32 7.112-5.35 2.013-1.02 4.114-1.54 6.302-1.54 2.161 0 3.951.29 5.37.85a8.2 8.2 0 0 1 3.506 2.64c.918 1.19 1.587 2.67 2.006 4.46.418 1.78.628 3.91.628 6.4v14.79q0 3.855.243 5.31c.162.97.5 1.75 1.013 2.33s1.459 1.05 2.837 1.4v2.67H785.78v-2.67c1.216-.3 2.053-.73 2.513-1.3s.776-1.35.952-2.35.263-2.78.263-5.35v-10.86q0-3.645-.243-5.94c-.162-1.52-.473-2.72-.932-3.58-.459-.87-1.006-1.49-1.641-1.87q-.952-.57-2.493-.57-1.053 0-1.945.33c-.594.21-1.196.55-1.803.99-.608.45-1.128.9-1.561 1.36-.432.46-.777.97-1.033 1.54-.257.57-.433 1.2-.527 1.9-.095.71-.142 1.85-.142 3.45v13.21c0 2.41.068 4.14.203 5.21s.459 1.89.972 2.47c.514.58 1.378 1.03 2.594 1.36v2.67h-19.291v-2.67c1.243-.3 2.101-.73 2.574-1.3s.79-1.34.952-2.33q.243-1.47.243-5.37v-10.86c0-1.78-.034-3.29-.101-4.52-.068-1.23-.183-2.22-.345-2.98-.162-.75-.385-1.42-.668-1.98q-.426-.855-.973-1.38a3.8 3.8 0 0 0-1.297-.81c-.5-.19-1.128-.29-1.884-.29-1 0-2.047.32-3.141.94s-2.013 1.48-2.756 2.59q-1.115 1.665-1.115 3.57v15.68c0 2.54.075 4.32.223 5.33s.466 1.81.953 2.39q.729.87 2.553 1.32v2.67h-19.413v-2.67q1.946-.525 2.695-1.38.75-.855 1.014-2.31.263-1.455.263-5.31v-16.66c0-1.99-.034-3.47-.101-4.43q-.102-1.44-.487-2.31a3.3 3.3 0 0 0-1.175-1.42c-.527-.37-1.439-.68-2.736-.95v-2.76l11.105-.32h5.106l-.608 5.83.487.12q3.687-3.435 6.646-4.86c1.973-.95 3.985-1.42 6.039-1.42m128.836-17.18h5.066v46.2q0 3.075.101 4.5c.068.94.223 1.7.466 2.27a3.25 3.25 0 0 0 1.175 1.4c.541.36 1.446.68 2.716.95v2.71l-11.024.37h-4.904l.365-5.84-.608-.04q-2.918 2.955-6.14 4.56c-2.148 1.07-4.208 1.6-6.18 1.6-4.917 0-8.599-1.69-11.044-5.06q-3.667-5.07-3.667-15.24 0-6.9 2.229-11.61c1.486-3.15 3.694-5.54 6.626-7.16q4.397-2.43 10.598-2.43c1.188 0 2.357.08 3.505.22 1.149.15 2.506.44 4.073.88v-3.69c0-2.89-.04-4.94-.121-6.14q-.122-1.8-.507-2.76c-.257-.63-.642-1.13-1.155-1.48q-.77-.525-2.796-.93v-2.71Z"/><text x="736.944" y="1775.33" fill-opacity="0" font-family="Arial,Arial_MSFontService,sans-serif" font-size="58.684">ğ¦ğ¨ğ</text><path fill-rule="evenodd" d="M957.397 1747.12q-2.674 0-5.451 2.61a20.6 20.6 0 0 0-4.437 6.06c-1.108 2.3-2.121 5.54-3.04 9.73l-.324 1.5c-.432 2-.649 3.96-.649 5.87q0 2.97.993 4.26c.662.86 1.777 1.3 3.344 1.3 1.351 0 2.58-.31 3.688-.91 1.108-.61 2.155-1.61 3.141-2.98.986-1.38 1.945-3.16 2.877-5.33q1.398-3.27 2.412-7.8 1.013-4.545 1.013-8.43 0-3-.872-4.44-.871-1.44-2.695-1.44m-17.872-5.96q3.363 0 5.37 1.89c1.337 1.25 2.006 2.91 2.006 4.96 0 .68-.081 1.32-.243 1.95l.405.32q3.728-4.74 7.214-6.93 3.485-2.19 8.065-2.19c3.053 0 5.424 1.11 7.112 3.32 1.689 2.22 2.533 5.42 2.533 9.61q0 5.475-1.58 10.86c-1.054 3.59-2.567 6.7-4.54 9.3-1.972 2.61-4.451 4.66-7.436 6.16q-4.478 2.25-10.112 2.25c-2.404 0-4.728-.42-6.971-1.25l-1.54 7.21a73 73 0 0 0-.526 2.78c-.109.66-.163 1.27-.163 1.84 0 1.16.304 2 .912 2.51.608.52 1.655.85 3.141 1.02l-.446 2.67h-16.859l10.253-45.59q.608-2.715.608-4.02c0-.89-.148-1.58-.445-2.06-.298-.49-.811-.73-1.541-.73-.837 0-1.742.38-2.715 1.13-.972.76-2.107 1.88-3.404 3.37l-2.918-2.92c2.702-2.76 5.1-4.69 7.193-5.8 2.094-1.1 4.303-1.66 6.627-1.66"/><text x="925.705" y="1792.16" fill-opacity="0" font-family="Arial,Arial_MSFontService,sans-serif" font-size="58.278">ğ’‘</text><path fill-rule="evenodd" d="M1166.88 969.121h15.68l-.44 1.986c-1.14.108-2 .439-2.6.993-.59.554-.89 1.411-.89 2.573q0 2.472 1.14 6.485l4.29 15.278 9.97-13.333q3.045-4.053 3.99-6.018.96-1.966.96-3.465c0-.757-.26-1.338-.77-1.743-.52-.405-1.26-.662-2.23-.77l.44-1.986h15.2l-.44 1.986c-.65.135-1.21.331-1.69.587q-.705.385-1.62 1.237c-.61.567-1.43 1.479-2.47 2.735q-1.56 1.884-3.99 5.046l-15.77 20.468-2.51 11.47c-.24 1.08-.41 1.92-.51 2.53q-.135.915-.24 1.95c-.07.68-.1 1.3-.1 1.84 0 .84.13 1.49.4 1.97.27.47.68.81 1.22 1.03.54.21 1.47.38 2.8.48l-.45 1.99h-17.06l.44-1.99c1.09-.16 1.88-.37 2.4-.64q.765-.405 1.35-1.26c.4-.57.79-1.46 1.18-2.67.39-1.22.86-3.06 1.4-5.52l2.39-11.18-5.88-20.468c-.89-3.134-1.59-5.255-2.11-6.363-.51-1.108-1.06-1.891-1.64-2.351s-1.34-.756-2.29-.891Z"/><text x="1166.43" y="1017.53" fill-opacity="0" font-family="Arial,Arial_MSFontService,sans-serif" font-size="55.32">ğ‘Œ</text><path fill-rule="evenodd" d="M1220.57 1008.67c-1.73 2.82-3.44 5.64-5.14 8.47s-3.41 5.67-5.14 8.51h11.47c-.1-1.27-.2-2.52-.3-3.74s-.18-2.51-.24-3.86-.11-2.79-.16-4.32-.08-3.21-.08-5.06Zm-.12-6.52h4.91l2.71 31.48c.08 1.01.21 1.87.38 2.56.16.7.4 1.27.7 1.73.29.46.67.8 1.11 1.04.45.24 1.01.41 1.69.51l-.45 1.81h-12.99l.45-1.81c.55-.1 1.05-.23 1.47-.37.43-.15.78-.4 1.06-.75s.49-.82.64-1.41c.15-.6.22-1.37.22-2.33 0-.35-.01-.77-.03-1.23-.02-.47-.04-.96-.07-1.48-.03-.51-.07-1.05-.12-1.59-.05-.55-.09-1.08-.13-1.59h-13.35c-.45.67-.91 1.37-1.35 2.08-.45.72-.86 1.41-1.22 2.1-.37.69-.66 1.37-.88 2.04-.22.68-.33 1.34-.33 2 0 1.45 1.06 2.29 3.19 2.53l-.39 1.81h-13.02l.33-1.81c.54-.1 1.02-.26 1.45-.46.42-.21.87-.54 1.34-.99.46-.44.97-1.05 1.52-1.81q.81-1.155 1.98-3.03Z"/><text x="1194.65" y="1036.39" fill-opacity="0" font-family="Arial,Arial_MSFontService,sans-serif" font-size="39.138">ğ´</text><path d="M1040.5 1059.92h279.12v9.16H1040.5Zm274.54-18.34 45.83 22.92-45.83 22.92Z"/><path fill="#fdefe8" d="M2424 834h743v1041h-743z"/><text fill="#d74514" font-family="Microsoft YaHei,Microsoft YaHei_MSFontService,sans-serif" font-size="83" font-weight="700" transform="translate(2457.12 1012)">B</text><path fill-rule="evenodd" d="M2468.35 1105.67h20.63l-.61 2.67c-1.16.11-2.01.47-2.53 1.08-.53.61-.79 1.4-.79 2.37 0 .81.15 1.77.44 2.9.3 1.12.76 2.46 1.38 4.03l2.55 6.73 5.43-6.73c1.73-2.16 2.94-3.79 3.61-4.89.68-1.09 1.01-2 1.01-2.73 0-.92-.22-1.57-.68-1.97-.46-.39-1.22-.65-2.27-.79l.6-2.67h16.86l-.6 2.71c-.65.11-1.3.37-1.95.77-.65.41-1.53 1.17-2.65 2.27-1.13 1.11-2.98 3.18-5.58 6.2l-11.63 13.5 7.18 18.68c1.08 2.84 2.04 4.89 2.89 6.14q1.275 1.89 3.39 2.37l-.57 2.68h-20.67l.57-2.68c2.13-.21 3.2-1.19 3.2-2.91 0-.98-.12-1.96-.36-2.96-.25-1-.6-2.11-1.06-3.33l-3.61-9.52-8.38 10.01c-1.25 1.49-2.13 2.66-2.64 3.53-.51.86-.77 1.71-.77 2.55 0 1.62 1 2.5 3 2.63l-.57 2.68h-16.9l.57-2.68q1.665-.435 3.3-1.86c1.1-.95 3.17-3.16 6.22-6.65l13.99-15.8-6.2-16.38c-.44-1.1-.96-2.36-1.57-3.76-.6-1.41-1.16-2.48-1.66-3.23-.5-.74-.98-1.27-1.46-1.6-.47-.32-1.04-.55-1.72-.69Z"/><text x="2456.27" y="1154.07" fill-opacity="0" font-family="Arial,Arial_MSFontService,sans-serif" font-size="55.32">ğ‘¿</text><path fill-rule="evenodd" d="m2531.9 1158.47-3.46 15.79c.84.06 2.11.09 3.82.09 2.46 0 4.41-.46 5.85-1.37 1.44-.92 2.51-2.2 3.2-3.85.7-1.64 1.04-3.33 1.04-5.06 0-3.73-2.11-5.6-6.34-5.6Zm7.39-17.81c-1.39 0-2.57.05-3.52.15l-3.13 14.18h4.65c1.75 0 3.27-.4 4.57-1.18s2.3-1.87 3-3.26c.69-1.39 1.04-2.99 1.04-4.8 0-1.7-.54-2.98-1.61-3.82-1.07-.85-2.74-1.27-5-1.27m-14.99-3.48h17.1c3.5 0 6.22.3 8.18.92 1.95.61 3.37 1.53 4.24 2.74.88 1.21 1.31 2.74 1.31 4.59 0 2.76-.76 5.03-2.28 6.82-1.52 1.78-3.96 3.33-7.34 4.64l-.06.33c1.87.76 3.31 1.81 4.34 3.16 1.02 1.35 1.53 2.91 1.53 4.67 0 2.43-.58 4.54-1.74 6.35s-3.02 3.33-5.56 4.57q-3.81 1.86-11.73 1.86h-16.18l.42-1.96c1.13-.32 1.97-.88 2.5-1.67.54-.8 1.04-2.27 1.52-4.41l5.42-24.57c.26-1.17.39-2.34.39-3.49 0-.83-.19-1.44-.58-1.83s-1.02-.64-1.89-.76Z"/><text x="2516.11" y="1172.75" fill-opacity="0" font-family="Arial,Arial_MSFontService,sans-serif" font-size="40.657">ğ‘©</text><path fill-rule="evenodd" d="M2640.42 1112.11v6.08l-44.01 19.09 44.01 19.09v6.08l-50.09-22.33v-5.68Z"/><text x="2590.33" y="1156.16" fill-opacity="0" font-family="Arial,Arial_MSFontService,sans-serif" font-size="50.335">&lt;</text><path fill-rule="evenodd" d="M2701.75 1126.09c-1.79 0-3.6.88-5.46 2.62a20.2 20.2 0 0 0-4.43 6.06c-1.11 2.29-2.12 5.54-3.04 9.72l-.33 1.5c-.43 2-.65 3.96-.65 5.88 0 1.97.34 3.39 1 4.26.66.86 1.77 1.29 3.34 1.29 1.35 0 2.58-.3 3.69-.91s2.15-1.6 3.14-2.98 1.94-3.15 2.88-5.33c.93-2.17 1.73-4.77 2.41-7.8.67-3.03 1.01-5.84 1.01-8.43q0-3-.87-4.44c-.58-.96-1.48-1.44-2.69-1.44m-17.88-5.95c2.24 0 4.04.63 5.37 1.88 1.34 1.26 2.01 2.91 2.01 4.97 0 .67-.08 1.32-.24 1.94l.4.33c2.49-3.17 4.89-5.48 7.21-6.93q3.495-2.19 8.07-2.19c3.05 0 5.42 1.1 7.11 3.32s2.53 5.42 2.53 9.61c0 3.64-.52 7.26-1.58 10.86q-1.575 5.385-4.53 9.3c-1.98 2.6-4.46 4.66-7.44 6.16q-4.485 2.25-10.11 2.25c-2.41 0-4.73-.42-6.97-1.26l-1.54 7.21c-.25 1.19-.42 2.12-.53 2.78s-.16 1.28-.16 1.84c0 1.17.3 2 .91 2.52.61.51 1.65.85 3.14 1.01l-.45 2.68h-16.86l10.26-45.6c.4-1.81.61-3.15.61-4.01q0-1.335-.45-2.07c-.3-.48-.81-.73-1.54-.73-.84 0-1.74.38-2.71 1.14-.98.75-2.11 1.88-3.41 3.36l-2.92-2.92q4.05-4.125 7.2-5.79a13.9 13.9 0 0 1 6.62-1.66"/><text x="2670.05" y="1171.13" fill-opacity="0" font-family="Arial,Arial_MSFontService,sans-serif" font-size="58.278">ğ’‘</text><path fill-rule="evenodd" d="M2461.95 1255.69h19.81l-.6 2.67c-2.11.24-3.16 1.49-3.16 3.73 0 1.43.27 3.35.81 5.75l3.2 14.84 9.28-13.46c1.48-2.13 2.46-3.76 2.92-4.88q.69-1.68.69-3.39c0-.75-.22-1.34-.65-1.76-.44-.42-1.19-.69-2.27-.83l.61-2.67h16.61l-.61 2.67c-.7.16-1.35.45-1.94.87-.6.42-1.43 1.24-2.51 2.47-1.09 1.23-2.64 3.28-4.67 6.14l-15.68 21.64-2.35 10.62c-.19.79-.32 1.52-.41 2.21q-.12 1.035-.12 2.49 0 1.875.96 2.64c.63.51 1.62.81 2.97.89l-.56 2.68h-21.52l.56-2.68c1.19-.16 2.14-.51 2.84-1.05s1.29-1.35 1.76-2.41c.48-1.07.96-2.67 1.44-4.81l2.39-10.98-5.26-22.53c-.41-1.71-.81-3.1-1.2-4.18s-.78-1.89-1.18-2.43c-.39-.54-.77-.92-1.15-1.13q-.57-.33-1.62-.45Z"/><text x="2461.34" y="1304.09" fill-opacity="0" font-family="Arial,Arial_MSFontService,sans-serif" font-size="55.32">ğ’€</text><path fill-rule="evenodd" d="m2526.74 1308.49-3.45 15.78q1.245.09 3.81.09c2.46 0 4.41-.45 5.85-1.37q2.16-1.365 3.21-3.84c.69-1.65 1.04-3.33 1.04-5.06 0-3.74-2.12-5.6-6.35-5.6Zm7.39-17.81q-2.085 0-3.51.15l-3.13 14.17h4.64c1.75 0 3.28-.39 4.58-1.17 1.3-.79 2.29-1.87 2.99-3.26.69-1.39 1.04-2.99 1.04-4.8 0-1.71-.53-2.98-1.61-3.83-1.07-.84-2.74-1.26-5-1.26m-14.98-3.49h17.09c3.5 0 6.22.31 8.18.93 1.96.61 3.37 1.52 4.25 2.74.87 1.21 1.31 2.74 1.31 4.58 0 2.76-.76 5.04-2.28 6.82q-2.28 2.685-7.35 4.65l-.05.33c1.86.75 3.31 1.8 4.33 3.15q1.53 2.025 1.53 4.68c0 2.42-.58 4.54-1.74 6.35-1.16 1.8-3.01 3.33-5.55 4.57-2.55 1.24-6.46 1.86-11.74 1.86h-16.17l.41-1.97c1.14-.31 1.97-.87 2.51-1.67.53-.79 1.04-2.26 1.52-4.4l5.42-24.58c.25-1.17.38-2.33.38-3.48 0-.83-.19-1.45-.58-1.83-.38-.39-1.02-.64-1.89-.76Z"/><text x="2510.96" y="1322.77" fill-opacity="0" font-family="Arial,Arial_MSFontService,sans-serif" font-size="40.657">ğ‘©</text><path fill-rule="evenodd" d="M2585.17 1293.01h49.93v5.39h-49.93Zm0-16.82h49.93v5.39h-49.93Z"/><text x="2585.17" y="1295.62" fill-opacity="0" font-family="Arial,Arial_MSFontService,sans-serif" font-size="22.209">=</text><path fill-rule="evenodd" d="M2692.37 1274.37c-2.51 0-4.74 1.26-6.68 3.79-1.95 2.52-3.52 5.92-4.7 10.19-1.19 4.27-1.79 8.09-1.79 11.47 0 1.97.29 3.44.87 4.42.58.97 1.48 1.46 2.7 1.46 1.78 0 3.6-.88 5.45-2.62s3.34-3.79 4.48-6.14c1.13-2.35 2.15-5.56 3.04-9.64l.32-1.5c.43-2 .65-4 .65-6 0-1.78-.34-3.14-1.01-4.05q-1.02-1.38-3.33-1.38m-.48-4.22c4.02 0 7.45.98 10.29 2.92l3.93-2.92 4.54.65-6.56 27.56c-.41 1.7-.61 3.24-.61 4.62 0 .89.15 1.58.44 2.07.3.48.81.73 1.54.73.84 0 1.75-.38 2.72-1.14.97-.75 2.11-1.88 3.4-3.36l2.92 2.92c-2.83 2.83-5.28 4.79-7.33 5.85-2.06 1.07-4.22 1.6-6.49 1.6s-4.06-.62-5.39-1.88c-1.32-1.26-1.98-2.91-1.98-4.97 0-.67.08-1.32.24-1.94l-.57-.08c-1.97 2.32-3.67 4.07-5.08 5.25-1.42 1.17-2.93 2.07-4.52 2.69q-2.4.93-5.31.93-4.86 0-7.38-3.3c-1.67-2.2-2.51-5.41-2.51-9.62 0-3.65.53-7.27 1.58-10.87 1.05-3.59 2.57-6.69 4.54-9.3 1.97-2.6 4.45-4.66 7.44-6.16 2.98-1.5 6.37-2.25 10.15-2.25"/><text x="2668.18" y="1306.47" fill-opacity="0" font-family="Arial,Arial_MSFontService,sans-serif" font-size="41.5">ğ’‚</text><path fill-rule="evenodd" d="M2723.16 1240.14h15.16l-.44 1.97c-.86.08-1.48.34-1.86.79-.39.45-.58 1.03-.58 1.74 0 .6.1 1.31.32 2.13.22.83.56 1.81 1.02 2.96l1.87 4.95 3.99-4.95c1.27-1.58 2.16-2.78 2.65-3.58q.75-1.215.75-2.01c0-.68-.17-1.16-.51-1.45s-.89-.48-1.67-.58l.45-1.97h12.39l-.44 2c-.48.08-.96.27-1.43.57-.48.29-1.13.85-1.96 1.66-.82.82-2.18 2.34-4.09 4.56l-8.55 9.92 5.27 13.73c.8 2.09 1.51 3.59 2.13 4.51.63.93 1.46 1.51 2.49 1.75l-.42 1.96h-15.19l.42-1.96c1.57-.16 2.35-.88 2.35-2.15 0-.71-.09-1.44-.27-2.17-.17-.74-.43-1.55-.77-2.45l-2.65-7-6.17 7.36c-.91 1.09-1.56 1.96-1.93 2.59-.38.64-.57 1.26-.57 1.88 0 1.19.74 1.84 2.21 1.94l-.42 1.96h-12.42l.41-1.96q1.23-.33 2.43-1.38c.81-.69 2.33-2.32 4.57-4.88l10.28-11.62-4.56-12.03c-.31-.81-.7-1.74-1.14-2.77-.45-1.03-.86-1.82-1.22-2.37-.37-.54-.73-.94-1.08-1.17-.34-.24-.77-.41-1.26-.51Z"/><text x="2714.29" y="1275.72" fill-opacity="0" font-family="Arial,Arial_MSFontService,sans-serif" font-size="40.657">ğ‘¿</text><path fill-rule="evenodd" d="m2771.07 1277.19-2.83 12.94c.68.05 1.72.07 3.12.07 2.02 0 3.62-.37 4.8-1.12s2.05-1.8 2.62-3.15.86-2.73.86-4.15c0-3.06-1.74-4.59-5.2-4.59Zm6.05-14.6q-1.71 0-2.88.12l-2.56 11.63h3.81c1.43 0 2.68-.33 3.74-.97a6.35 6.35 0 0 0 2.46-2.67c.57-1.14.85-2.45.85-3.93 0-1.4-.44-2.45-1.32-3.14s-2.24-1.04-4.1-1.04m-12.28-2.85h14.02c2.86 0 5.09.25 6.7.75q2.4.765 3.48 2.25c.71.99 1.07 2.25 1.07 3.76 0 2.26-.62 4.12-1.87 5.59-1.24 1.46-3.25 2.73-6.02 3.81l-.04.27c1.53.62 2.71 1.48 3.55 2.58q1.26 1.665 1.26 3.84c0 1.98-.48 3.72-1.43 5.2-.96 1.48-2.47 2.73-4.56 3.75-2.08 1.01-5.29 1.52-9.62 1.52h-13.25l.34-1.61c.93-.26 1.61-.72 2.05-1.37s.86-1.85 1.25-3.61l4.44-20.14c.21-.96.32-1.91.32-2.86q0-1.02-.48-1.5c-.32-.32-.83-.52-1.55-.62Z"/><text x="2758.13" y="1288.9" fill-opacity="0" font-family="Arial,Arial_MSFontService,sans-serif" font-size="33.325">ğ‘©</text><path fill-rule="evenodd" d="M2964.27 1274.37c-2.52 0-4.47 1.32-5.86 3.95s-2.09 6.34-2.09 11.12c0 5.33.58 9.3 1.74 11.92 1.17 2.62 2.98 3.93 5.44 3.93 1.16 0 2.31-.29 3.46-.87s2.11-1.47 2.9-2.68c.78-1.2 1.17-2.58 1.17-4.15v-13.5c0-3.29-.55-5.74-1.66-7.33s-2.81-2.39-5.1-2.39m-49.53 0c-2.68 0-4.62 1.27-5.82 3.83-1.2 2.55-1.8 6.58-1.8 12.1 0 5.72.64 10.01 1.92 12.86 1.29 2.85 3.23 4.28 5.82 4.28q3.855 0 5.67-3.75c1.22-2.5 1.83-6.49 1.83-11.98 0-5.8-.64-10.15-1.93-13.03-1.28-2.87-3.18-4.31-5.69-4.31m.16-4.22c6.54 0 11.47 1.73 14.79 5.17 3.33 3.45 4.99 8.49 4.99 15.14 0 6.86-1.76 12.11-5.27 15.74-3.51 3.64-8.57 5.45-15.16 5.45-6.35 0-11.18-1.73-14.49-5.2-3.31-3.48-4.96-8.56-4.96-15.26q0-7.14 2.61-11.88c1.75-3.16 4.12-5.48 7.12-6.95 2.99-1.47 6.45-2.21 10.37-2.21m-66.06 0q4.425 0 6.93 1.77c1.68 1.17 2.89 2.88 3.65 5.12 2.73-2.54 5.1-4.32 7.11-5.35 2.02-1.02 4.12-1.54 6.31-1.54 2.16 0 3.95.29 5.37.85 1.41.57 2.58 1.45 3.5 2.64s1.59 2.67 2.01 4.46c.42 1.78.63 3.91.63 6.4v14.79q0 3.855.24 5.31c.16.97.5 1.75 1.01 2.33.52.58 1.46 1.05 2.84 1.4v2.68h-19.54v-2.68c1.22-.3 2.06-.73 2.52-1.3.46-.56.77-1.35.95-2.35s.26-2.78.26-5.35v-10.86q0-3.645-.24-5.94c-.16-1.52-.47-2.72-.93-3.58-.46-.87-1.01-1.49-1.64-1.87-.64-.37-1.47-.56-2.5-.56-.7 0-1.35.1-1.94.32q-.9.33-1.8.99c-.61.45-1.13.9-1.56 1.36-.44.46-.78.97-1.04 1.54-.25.57-.43 1.2-.53 1.91-.09.7-.14 1.85-.14 3.44v13.21c0 2.41.07 4.14.21 5.21.13 1.07.45 1.89.97 2.47.51.58 1.38 1.04 2.59 1.36v2.68h-19.29v-2.68c1.24-.3 2.1-.73 2.57-1.3.48-.56.79-1.34.96-2.33q.24-1.47.24-5.37v-10.86c0-1.78-.03-3.29-.1-4.52s-.18-2.22-.35-2.98q-.24-1.125-.66-1.98c-.29-.57-.61-1.03-.98-1.38q-.54-.525-1.29-.81c-.5-.19-1.13-.28-1.89-.28-1 0-2.05.31-3.14.93s-2.01 1.48-2.76 2.59q-1.11 1.665-1.11 3.57v15.68c0 2.54.07 4.32.22 5.33.15 1.02.47 1.81.96 2.39q.72.87 2.55 1.32v2.68h-19.41v-2.68c1.29-.35 2.19-.81 2.69-1.38s.84-1.34 1.01-2.31q.27-1.455.27-5.31v-16.65c0-2-.04-3.48-.1-4.44-.07-.96-.23-1.73-.49-2.31s-.65-1.06-1.18-1.42c-.52-.36-1.43-.68-2.73-.95v-2.76l11.1-.32h5.11l-.61 5.83.49.13c2.46-2.3 4.67-3.92 6.65-4.87 1.97-.94 3.98-1.42 6.03-1.42m128.84-17.18h5.07v46.2c0 2.05.03 3.55.1 4.5.06.95.22 1.7.46 2.27.25.57.64 1.03 1.18 1.4.54.36 1.44.68 2.71.95v2.72l-11.02.36h-4.9l.36-5.84-.61-.04c-1.94 1.98-3.99 3.5-6.14 4.56-2.14 1.07-4.2 1.6-6.18 1.6-4.91 0-8.6-1.69-11.04-5.06-2.45-3.38-3.67-8.46-3.67-15.24 0-4.59.74-8.46 2.23-11.61s3.7-5.53 6.63-7.15c2.93-1.63 6.46-2.44 10.59-2.44 1.19 0 2.36.08 3.51.23 1.15.14 2.51.44 4.07.87v-3.69c0-2.89-.04-4.94-.12-6.14s-.25-2.12-.5-2.76a3.3 3.3 0 0 0-1.16-1.48c-.51-.35-1.45-.66-2.8-.93v-2.71Z"/><text x="2820.07" y="1304.32" fill-opacity="0" font-family="Arial,Arial_MSFontService,sans-serif" font-size="58.684">ğ¦ğ¨ğ</text><path fill-rule="evenodd" d="M3040.52 1276.11c-1.78 0-3.6.87-5.45 2.61a20.7 20.7 0 0 0-4.44 6.06c-1.1 2.3-2.12 5.54-3.04 9.73l-.32 1.5c-.43 2-.65 3.96-.65 5.88 0 1.97.33 3.39.99 4.25.67.87 1.78 1.3 3.35 1.3 1.35 0 2.58-.31 3.69-.91 1.1-.61 2.15-1.6 3.14-2.98.98-1.38 1.94-3.16 2.87-5.33.94-2.18 1.74-4.78 2.42-7.8.67-3.03 1.01-5.84 1.01-8.43q0-3-.87-4.44t-2.7-1.44m-17.87-5.96q3.36 0 5.37 1.89c1.34 1.25 2.01 2.91 2.01 4.96 0 .68-.09 1.33-.25 1.95l.41.32c2.48-3.16 4.89-5.47 7.21-6.93 2.33-1.46 5.01-2.19 8.07-2.19q4.575 0 7.11 3.33c1.69 2.21 2.53 5.41 2.53 9.6 0 3.65-.52 7.27-1.58 10.86-1.05 3.6-2.57 6.7-4.54 9.3-1.97 2.61-4.45 4.66-7.43 6.16-2.99 1.5-6.36 2.25-10.12 2.25-2.4 0-4.72-.42-6.97-1.25l-1.54 7.21c-.24 1.19-.42 2.12-.52 2.78-.11.66-.17 1.27-.17 1.84 0 1.16.31 2 .92 2.51.6.52 1.65.85 3.14 1.02l-.45 2.67h-16.86l10.26-45.59c.4-1.81.6-3.15.6-4.01 0-.9-.15-1.58-.44-2.07-.3-.49-.81-.73-1.54-.73-.84 0-1.75.38-2.72 1.13-.97.76-2.11 1.88-3.4 3.37l-2.92-2.92c2.7-2.76 5.1-4.69 7.19-5.79 2.1-1.11 4.31-1.67 6.63-1.67"/><text x="3008.83" y="1321.15" fill-opacity="0" font-family="Arial,Arial_MSFontService,sans-serif" font-size="58.278">ğ’‘</text><path fill-rule="evenodd" d="M2470.58 1726.69h20.38l-.56 2.68c-1.54.43-2.68 1.19-3.41 2.27s-1.42 3.08-2.06 6l-3.04 13.69h.6c1.14 0 2.17-.19 3.08-.58.92-.4 1.94-1.03 3.04-1.91q1.665-1.32 5.43-5.04c2.52-2.49 4.33-4.41 5.46-5.76 1.12-1.35 1.91-2.49 2.39-3.42.47-.94.71-1.79.71-2.58 0-.94-.22-1.6-.65-1.96-.44-.37-1.15-.6-2.15-.71l.61-2.68h19.77l-.6 2.76c-.9.19-1.68.45-2.35.77-.68.32-1.52.9-2.54 1.74-1.01.84-2.52 2.22-4.52 4.14l-14.67 14.06 8.55 21.07c.81 2 1.53 3.55 2.15 4.64.62 1.1 1.25 1.89 1.89 2.39.63.5 1.46.88 2.49 1.12l-.53 2.63h-20.26l.61-2.67c.73-.08 1.24-.27 1.54-.57.29-.3.44-.78.44-1.46 0-.65-.13-1.48-.4-2.49s-.85-2.67-1.75-4.96l-3.68-9.57c-.52-1.32-1-2.29-1.44-2.9-.45-.6-.92-1.03-1.42-1.27-.5-.25-1.22-.37-2.17-.37h-.61l-3.36 15.32c-.19.89-.32 1.64-.41 2.25q-.12.915-.12 2.49c0 1.14.27 1.97.79 2.5.53.52 1.39.87 2.58 1.03l-.57 2.67h-20.39l.57-2.67c1.54-.43 2.68-1.19 3.41-2.27s1.41-3.08 2.06-6l7.38-33.43c.35-1.6.53-3.18.53-4.75 0-1.13-.27-1.96-.8-2.49-.52-.53-1.38-.87-2.57-1.03Z"/><text x="2459.43" y="1775.1" fill-opacity="0" font-family="Arial,Arial_MSFontService,sans-serif" font-size="55.32">ğ‘²</text><path fill-rule="evenodd" d="m2575.63 1779.5-3.46 15.78c.84.06 2.11.09 3.82.09 2.46 0 4.41-.45 5.85-1.37 1.44-.91 2.51-2.19 3.2-3.84.7-1.65 1.04-3.34 1.04-5.06 0-3.74-2.11-5.6-6.34-5.6Zm7.39-17.81c-1.39 0-2.57.04-3.52.14l-3.13 14.18h4.65c1.75 0 3.27-.39 4.57-1.17 1.3-.79 2.3-1.88 2.99-3.27.7-1.39 1.05-2.98 1.05-4.79 0-1.71-.54-2.99-1.61-3.83s-2.74-1.26-5-1.26m-14.99-3.49h17.1c3.49 0 6.22.31 8.18.92 1.95.62 3.37 1.53 4.24 2.74.87 1.22 1.31 2.74 1.31 4.59 0 2.76-.76 5.03-2.28 6.82s-3.96 3.34-7.34 4.65l-.06.33c1.87.75 3.31 1.8 4.33 3.15 1.03 1.35 1.54 2.91 1.54 4.68 0 2.42-.58 4.54-1.74 6.34-1.17 1.81-3.02 3.33-5.56 4.58q-3.81 1.86-11.73 1.86h-16.18l.42-1.97c1.13-.32 1.97-.87 2.5-1.67.54-.79 1.04-2.26 1.52-4.4l5.42-24.58q.39-1.755.39-3.48c0-.84-.2-1.45-.58-1.83-.39-.39-1.02-.64-1.89-.76Zm-38.38 0h28.17l-.44 1.97-24.99 35.14h7.56c1.11 0 2-.16 2.67-.49.66-.33 1.44-1.11 2.32-2.34s1.68-2.79 2.4-4.67h3.9l-2.38 11.05h-28.42l.42-1.97 24.99-35.15h-7.27c-.83 0-1.47.06-1.9.18-.44.12-.84.31-1.21.55-.37.25-.79.64-1.27 1.18q-.705.81-1.59 2.31c-.59 1-1.04 1.9-1.36 2.69h-3.9Z"/><text x="2520.44" y="1793.77" fill-opacity="0" font-family="Arial,Arial_MSFontService,sans-serif" font-size="40.657">ğ’ğ‘©</text><path fill-rule="evenodd" d="M2633.87 1764.02h49.93v5.39h-49.93Zm0-16.82h49.93v5.39h-49.93Z"/><text x="2633.87" y="1766.63" fill-opacity="0" font-family="Arial,Arial_MSFontService,sans-serif" font-size="22.209">=</text><path fill-rule="evenodd" d="M2717.44 1726.69h19.82l-.61 2.68c-2.1.24-3.16 1.48-3.16 3.73 0 1.43.27 3.35.81 5.75l3.21 14.83 9.28-13.45c1.48-2.13 2.45-3.76 2.91-4.88.46-1.13.69-2.25.69-3.39 0-.75-.21-1.34-.65-1.76-.43-.42-1.18-.7-2.26-.83l.6-2.68h16.62l-.61 2.68c-.7.16-1.35.45-1.94.87-.6.42-1.44 1.24-2.52 2.47s-2.63 3.28-4.66 6.14l-15.68 21.64-2.35 10.62c-.19.79-.33 1.52-.41 2.21q-.12 1.035-.12 2.49c0 1.25.32 2.12.95 2.64.64.51 1.63.81 2.98.89l-.57 2.67h-21.52l.57-2.67c1.19-.16 2.14-.51 2.84-1.06.7-.54 1.29-1.34 1.76-2.41.48-1.06.95-2.66 1.44-4.8l2.39-10.98-5.27-22.54c-.4-1.7-.8-3.09-1.19-4.17s-.79-1.89-1.18-2.43-.77-.92-1.15-1.14c-.38-.21-.92-.36-1.62-.44Z"/><text x="2716.84" y="1775.1" fill-opacity="0" font-family="Arial,Arial_MSFontService,sans-serif" font-size="55.32">ğ’€</text><path fill-rule="evenodd" d="M2774.26 1766.93h28.18l-.45 1.97-24.99 35.14h7.56c1.12 0 2-.16 2.67-.49s1.44-1.1 2.32-2.34c.89-1.23 1.69-2.79 2.4-4.67h3.9l-2.38 11.05h-28.42l.42-1.97 24.99-35.14h-7.27c-.83 0-1.47.06-1.9.17-.44.12-.84.31-1.21.56-.37.24-.79.64-1.26 1.17-.48.54-1.01 1.31-1.6 2.31-.58 1-1.04 1.9-1.35 2.7h-3.9Z"/><text x="2765.05" y="1802.51" fill-opacity="0" font-family="Arial,Arial_MSFontService,sans-serif" font-size="40.657">ğ’</text><path fill-rule="evenodd" d="M2773.01 1698.27h15.16l-.45 1.97c-.85.08-1.47.34-1.86.79s-.58 1.03-.58 1.74q0 .9.33 2.13c.22.82.55 1.81 1.01 2.96l1.88 4.95 3.99-4.95c1.27-1.58 2.15-2.78 2.65-3.58.49-.81.74-1.48.74-2.02 0-.67-.17-1.15-.5-1.44-.34-.29-.9-.48-1.67-.58l.45-1.97h12.39l-.45 2c-.48.08-.95.27-1.43.56-.48.3-1.13.86-1.95 1.67-.83.82-2.19 2.34-4.1 4.56l-8.55 9.92 5.28 13.73c.79 2.08 1.5 3.59 2.13 4.51.62.93 1.45 1.51 2.48 1.74l-.41 1.97h-15.19l.41-1.97c1.57-.15 2.36-.87 2.36-2.14 0-.72-.09-1.44-.27-2.17-.18-.74-.44-1.55-.78-2.45l-2.65-7-6.16 7.36c-.92 1.09-1.56 1.96-1.94 2.59-.38.64-.57 1.26-.57 1.88 0 1.19.74 1.83 2.21 1.93l-.42 1.97h-12.42l.42-1.97c.81-.21 1.62-.67 2.43-1.37.8-.69 2.32-2.32 4.57-4.88l10.27-11.62-4.55-12.03c-.32-.81-.7-1.74-1.15-2.77s-.85-1.82-1.22-2.37c-.37-.54-.73-.94-1.07-1.17-.35-.24-.77-.41-1.27-.51Z"/><text x="2764.13" y="1733.85" fill-opacity="0" font-family="Arial,Arial_MSFontService,sans-serif" font-size="40.657">ğ‘¿</text><path fill-rule="evenodd" d="m2820.91 1735.32-2.83 12.94c.68.05 1.72.07 3.12.07 2.02 0 3.62-.37 4.8-1.12s2.06-1.8 2.63-3.15.85-2.73.85-4.15c0-3.06-1.73-4.59-5.2-4.59Zm6.06-14.6c-1.14 0-2.1.04-2.89.12l-2.56 11.62h3.81q2.145 0 3.75-.96a6.4 6.4 0 0 0 2.45-2.67c.57-1.14.86-2.45.86-3.93 0-1.4-.44-2.45-1.32-3.14s-2.25-1.04-4.1-1.04m-12.28-2.85h14.01c2.86 0 5.1.25 6.7.75q2.4.765 3.48 2.25c.72.99 1.07 2.24 1.07 3.76 0 2.26-.62 4.12-1.86 5.59-1.25 1.46-3.25 2.73-6.02 3.81l-.05.27c1.53.61 2.71 1.48 3.55 2.58q1.26 1.665 1.26 3.84c0 1.98-.48 3.72-1.43 5.2s-2.47 2.73-4.55 3.74c-2.09 1.02-5.29 1.53-9.62 1.53h-13.26l.34-1.61c.93-.26 1.61-.72 2.05-1.37s.86-1.85 1.25-3.61l4.44-20.14c.21-.96.32-1.92.32-2.86q0-1.02-.48-1.5c-.31-.32-.83-.53-1.55-.62Z"/><text x="2807.97" y="1747.02" fill-opacity="0" font-family="Arial,Arial_MSFontService,sans-serif" font-size="33.325">ğ‘©</text><path fill-rule="evenodd" d="M3014.11 1745.38c-2.51 0-4.47 1.31-5.86 3.95-1.39 2.63-2.08 6.34-2.08 11.12 0 5.33.58 9.3 1.74 11.92q1.74 3.93 5.43 3.93c1.16 0 2.32-.29 3.46-.87 1.15-.58 2.12-1.47 2.9-2.68.79-1.2 1.18-2.58 1.18-4.15v-13.5c0-3.29-.56-5.74-1.66-7.33-1.11-1.6-2.81-2.39-5.11-2.39m-49.53 0c-2.67 0-4.61 1.27-5.81 3.83-1.21 2.55-1.81 6.58-1.81 12.09 0 5.73.64 10.02 1.93 12.87 1.28 2.85 3.22 4.28 5.81 4.28 2.57 0 4.46-1.25 5.68-3.75 1.21-2.5 1.82-6.49 1.82-11.98 0-5.81-.64-10.15-1.92-13.03-1.29-2.87-3.19-4.31-5.7-4.31m.16-4.22c6.54 0 11.47 1.72 14.8 5.17 3.32 3.44 4.98 8.49 4.98 15.14 0 6.86-1.75 12.11-5.27 15.74-3.51 3.63-8.56 5.45-15.15 5.45-6.35 0-11.18-1.73-14.49-5.21-3.31-3.47-4.97-8.55-4.97-15.25 0-4.76.87-8.72 2.62-11.88 1.74-3.16 4.11-5.48 7.11-6.95s6.46-2.21 10.37-2.21m-66.05 0c2.94 0 5.25.59 6.93 1.76 1.67 1.18 2.89 2.89 3.65 5.13 2.72-2.54 5.09-4.32 7.11-5.35 2.01-1.02 4.11-1.54 6.3-1.54 2.16 0 3.95.29 5.37.85q2.13.855 3.51 2.64c.91 1.19 1.58 2.67 2 4.46.42 1.78.63 3.91.63 6.4v14.79q0 3.855.24 5.31c.16.97.5 1.75 1.02 2.33.51.58 1.45 1.05 2.83 1.4v2.67h-19.53v-2.67c1.21-.3 2.05-.73 2.51-1.3s.78-1.35.95-2.35c.18-1 .27-2.78.27-5.35v-10.86c0-2.43-.08-4.41-.25-5.94-.16-1.52-.47-2.72-.93-3.58-.46-.87-1-1.49-1.64-1.87-.63-.38-1.47-.57-2.49-.57q-1.05 0-1.95.33c-.59.21-1.19.55-1.8.99-.61.45-1.13.9-1.56 1.36s-.78.97-1.03 1.54c-.26.57-.44 1.2-.53 1.9-.1.71-.14 1.85-.14 3.45v13.21c0 2.41.06 4.14.2 5.21.13 1.07.46 1.89.97 2.47.52.58 1.38 1.03 2.6 1.36v2.67h-19.3v-2.67c1.25-.3 2.11-.73 2.58-1.3s.79-1.34.95-2.33q.24-1.47.24-5.37v-10.86c0-1.78-.03-3.29-.1-4.52s-.18-2.22-.34-2.98c-.16-.75-.39-1.42-.67-1.98-.28-.57-.61-1.03-.97-1.38-.37-.35-.8-.62-1.3-.81s-1.13-.29-1.88-.29c-1 0-2.05.32-3.15.94-1.09.62-2.01 1.48-2.75 2.59s-1.12 2.3-1.12 3.57v15.68c0 2.54.08 4.32.23 5.33s.46 1.81.95 2.39q.735.87 2.55 1.32v2.67h-19.41v-2.67q1.95-.525 2.7-1.38c.49-.57.83-1.34 1.01-2.31.17-.97.26-2.74.26-5.31v-16.66c0-1.99-.03-3.47-.1-4.43s-.23-1.73-.49-2.31c-.25-.58-.64-1.06-1.17-1.42-.53-.37-1.44-.68-2.74-.95v-2.76l11.11-.32h5.1l-.6 5.83.48.12c2.46-2.29 4.68-3.91 6.65-4.86s3.98-1.42 6.04-1.42m128.83-17.18h5.07v46.2c0 2.05.03 3.55.1 4.5.07.94.22 1.7.47 2.27.24.56.63 1.03 1.17 1.4.54.36 1.45.68 2.72.95v2.71l-11.03.37h-4.9l.36-5.84-.6-.04c-1.95 1.97-3.99 3.49-6.14 4.56s-4.21 1.6-6.18 1.6c-4.92 0-8.6-1.69-11.05-5.06q-3.66-5.07-3.66-15.24 0-6.9 2.22-11.61c1.49-3.15 3.7-5.54 6.63-7.16s6.46-2.43 10.6-2.43c1.19 0 2.36.08 3.5.22 1.15.15 2.51.44 4.08.88v-3.69c0-2.89-.04-4.94-.12-6.14-.09-1.2-.25-2.12-.51-2.76-.26-.63-.64-1.13-1.16-1.48q-.765-.525-2.79-.93v-2.71Z"/><text x="2869.91" y="1775.33" fill-opacity="0" font-family="Arial,Arial_MSFontService,sans-serif" font-size="58.684">ğ¦ğ¨ğ</text><path fill-rule="evenodd" d="M3090.37 1747.12c-1.79 0-3.6.87-5.45 2.61a20.4 20.4 0 0 0-4.44 6.06c-1.11 2.3-2.12 5.54-3.04 9.73l-.33 1.5c-.43 2-.64 3.96-.64 5.87q0 2.97.99 4.26c.66.86 1.77 1.3 3.34 1.3 1.35 0 2.58-.31 3.69-.91 1.11-.61 2.15-1.61 3.14-2.98.99-1.38 1.95-3.16 2.88-5.33.93-2.18 1.73-4.78 2.41-7.8.67-3.03 1.01-5.84 1.01-8.43q0-3-.87-4.44c-.58-.96-1.48-1.44-2.69-1.44m-17.88-5.96q3.375 0 5.37 1.89c1.34 1.25 2.01 2.91 2.01 4.96 0 .68-.08 1.32-.24 1.95l.4.32c2.49-3.16 4.89-5.47 7.22-6.93 2.32-1.46 5.01-2.19 8.06-2.19s5.42 1.11 7.11 3.32c1.69 2.22 2.54 5.42 2.54 9.61 0 3.65-.53 7.27-1.58 10.86-1.06 3.59-2.57 6.7-4.54 9.3-1.98 2.61-4.45 4.66-7.44 6.16q-4.485 2.25-10.11 2.25c-2.41 0-4.73-.42-6.97-1.25l-1.54 7.21c-.25 1.19-.42 2.11-.53 2.78-.11.66-.16 1.27-.16 1.84 0 1.16.3 2 .91 2.51.61.52 1.65.85 3.14 1.02l-.44 2.67h-16.86l10.25-45.59c.4-1.81.61-3.15.61-4.02 0-.89-.15-1.58-.45-2.06-.3-.49-.81-.73-1.54-.73-.84 0-1.74.38-2.71 1.13-.98.76-2.11 1.88-3.41 3.37l-2.92-2.92c2.71-2.76 5.1-4.69 7.2-5.8 2.09-1.1 4.3-1.66 6.62-1.66"/><text x="3058.67" y="1792.16" fill-opacity="0" font-family="Arial,Arial_MSFontService,sans-serif" font-size="58.278">ğ’‘</text><path fill="#f8ccb9" d="M1361 791h743v1126h-743z"/><text fill="#d74514" font-family="Microsoft YaHei,Microsoft YaHei_MSFontService,sans-serif" font-size="83" font-weight="700" transform="translate(1393.79 921)">Z</text><path fill-rule="evenodd" d="M1405.02 1014.93h20.63l-.61 2.67c-1.16.11-2.01.47-2.54 1.08-.52.61-.79 1.4-.79 2.37 0 .81.15 1.78.45 2.9s.76 2.46 1.38 4.03l2.55 6.73 5.43-6.73c1.73-2.16 2.93-3.79 3.61-4.88.67-1.1 1.01-2.01 1.01-2.74 0-.92-.23-1.57-.69-1.96-.46-.4-1.21-.66-2.27-.8l.61-2.67h16.86l-.61 2.72c-.65.1-1.29.36-1.94.77-.65.4-1.54 1.16-2.66 2.27-1.12 1.1-2.98 3.17-5.57 6.2l-11.63 13.49 7.17 18.68c1.08 2.84 2.05 4.89 2.9 6.14.85 1.26 1.98 2.05 3.38 2.38l-.56 2.67h-20.67l.56-2.67c2.14-.22 3.21-1.19 3.21-2.92 0-.98-.13-1.96-.37-2.96s-.59-2.11-1.05-3.32l-3.61-9.53-8.39 10.01c-1.24 1.49-2.12 2.66-2.63 3.53-.52.86-.77 1.71-.77 2.55q0 2.43 3 2.64l-.57 2.67h-16.9l.57-2.67c1.1-.3 2.21-.92 3.3-1.87 1.09-.94 3.17-3.16 6.22-6.65l13.98-15.8-6.2-16.37c-.43-1.11-.95-2.37-1.56-3.77-.61-1.41-1.16-2.48-1.66-3.23-.5-.74-.99-1.27-1.46-1.6-.47-.32-1.05-.55-1.72-.69Z"/><text x="1392.94" y="1063.33" fill-opacity="0" font-family="Arial,Arial_MSFontService,sans-serif" font-size="55.32">ğ‘¿</text><path fill-rule="evenodd" d="M1460.58 1046.44h28.18l-.45 1.96-24.99 35.15h7.57c1.11 0 2-.16 2.67-.49.66-.33 1.43-1.11 2.32-2.34q1.32-1.845 2.4-4.68h3.9l-2.38 11.05h-28.42l.42-1.96 24.99-35.15h-7.27c-.83 0-1.47.06-1.91.18-.43.12-.84.3-1.2.55-.37.25-.79.64-1.27 1.18q-.72.795-1.59 2.31c-.59 1-1.04 1.9-1.36 2.69h-3.9Z"/><text x="1451.38" y="1082.01" fill-opacity="0" font-family="Arial,Arial_MSFontService,sans-serif" font-size="40.657">ğ’</text><path fill-rule="evenodd" d="M1571.36 1021.37v6.08l-44.02 19.09 44.02 19.09v6.08l-50.1-22.33v-5.68Z"/><text x="1521.26" y="1065.42" fill-opacity="0" font-family="Arial,Arial_MSFontService,sans-serif" font-size="50.335">&lt;</text><path fill-rule="evenodd" d="M1632.68 1035.36c-1.78 0-3.6.87-5.45 2.61a20.5 20.5 0 0 0-4.44 6.06c-1.1 2.3-2.12 5.54-3.04 9.73l-.32 1.49c-.43 2-.65 3.96-.65 5.88q0 2.955.99 4.26c.67.86 1.78 1.29 3.35 1.29 1.35 0 2.58-.3 3.69-.91 1.1-.61 2.15-1.6 3.14-2.98.98-1.37 1.94-3.15 2.87-5.33.94-2.17 1.74-4.77 2.42-7.8.67-3.02 1.01-5.83 1.01-8.43q0-3-.87-4.44c-.58-.95-1.48-1.43-2.7-1.43m-17.87-5.96c2.24 0 4.03.63 5.37 1.88 1.34 1.26 2.01 2.91 2.01 4.97 0 .67-.09 1.32-.25 1.94l.41.33c2.48-3.16 4.89-5.47 7.21-6.93 2.33-1.46 5.01-2.19 8.07-2.19 3.05 0 5.42 1.11 7.11 3.32 1.69 2.22 2.53 5.42 2.53 9.61 0 3.64-.52 7.26-1.58 10.86-1.05 3.59-2.56 6.69-4.54 9.3-1.97 2.61-4.45 4.66-7.43 6.16-2.99 1.5-6.36 2.25-10.12 2.25-2.4 0-4.72-.42-6.97-1.26l-1.54 7.22c-.24 1.18-.42 2.11-.52 2.77-.11.66-.17 1.28-.17 1.85 0 1.16.31 2 .92 2.51.6.51 1.65.85 3.14 1.01l-.45 2.68h-16.86l10.26-45.6c.4-1.81.6-3.14.6-4.01 0-.89-.14-1.58-.44-2.07-.3-.48-.81-.73-1.54-.73-.84 0-1.74.38-2.72 1.14-.97.76-2.1 1.88-3.4 3.36l-2.92-2.91c2.7-2.76 5.1-4.69 7.19-5.8 2.1-1.11 4.31-1.66 6.63-1.66"/><text x="1600.99" y="1080.39" fill-opacity="0" font-family="Arial,Arial_MSFontService,sans-serif" font-size="58.278">ğ’‘</text><path fill-rule="evenodd" d="M1398.61 1164.95h19.82l-.61 2.67c-2.1.24-3.16 1.49-3.16 3.73 0 1.43.27 3.35.81 5.75l3.2 14.84 9.29-13.46c1.48-2.13 2.45-3.76 2.91-4.88s.69-2.25.69-3.38c0-.76-.21-1.35-.65-1.77-.43-.42-1.19-.69-2.27-.83l.61-2.67h16.62l-.61 2.67q-1.05.24-1.95.87c-.59.42-1.43 1.25-2.51 2.48-1.08 1.22-2.63 3.27-4.66 6.13l-15.68 21.65-2.35 10.61c-.19.79-.33 1.52-.41 2.21s-.12 1.52-.12 2.5c0 1.24.32 2.12.95 2.63.64.51 1.63.81 2.98.89l-.57 2.68h-21.52l.57-2.68c1.19-.16 2.14-.51 2.84-1.05s1.29-1.35 1.76-2.41c.47-1.07.95-2.67 1.44-4.81l2.39-10.98-5.27-22.53c-.4-1.7-.8-3.1-1.19-4.18s-.79-1.89-1.18-2.43-.78-.92-1.15-1.13q-.57-.33-1.62-.45Z"/><text x="1398.01" y="1213.35" fill-opacity="0" font-family="Arial,Arial_MSFontService,sans-serif" font-size="55.32">ğ’€</text><path fill-rule="evenodd" d="M1455.43 1196.45h28.17l-.44 1.97-24.99 35.15h7.56c1.11 0 2-.17 2.67-.5.66-.32 1.44-1.1 2.32-2.33.89-1.23 1.68-2.79 2.4-4.68h3.9l-2.38 11.05h-28.42l.42-1.97 24.99-35.14h-7.27c-.83 0-1.47.06-1.9.18-.44.12-.84.3-1.21.55s-.79.64-1.27 1.17q-.705.81-1.59 2.31c-.58 1.01-1.04 1.9-1.35 2.7h-3.91Z"/><text x="1446.22" y="1232.03" fill-opacity="0" font-family="Arial,Arial_MSFontService,sans-serif" font-size="40.657">ğ’</text><path fill-rule="evenodd" d="M1516.11 1202.27h49.93v5.39h-49.93Zm0-16.82h49.93v5.39h-49.93Z"/><text x="1516.11" y="1204.89" fill-opacity="0" font-family="Arial,Arial_MSFontService,sans-serif" font-size="22.209">=</text><path fill-rule="evenodd" d="M1623.31 1183.63c-2.51 0-4.74 1.26-6.69 3.79-1.94 2.53-3.51 5.92-4.7 10.19s-1.78 8.09-1.78 11.47c0 1.97.29 3.45.87 4.42s1.48 1.46 2.7 1.46c1.78 0 3.6-.87 5.45-2.62 1.85-1.74 3.34-3.79 4.48-6.14 1.13-2.35 2.14-5.56 3.04-9.64l.32-1.5c.43-2 .65-4 .65-6q0-2.67-1.02-4.05c-.67-.92-1.78-1.38-3.32-1.38m-.48-4.21q6.03 0 10.29 2.91l3.93-2.91 4.54.64-6.57 27.56q-.6 2.55-.6 4.62c0 .89.14 1.58.44 2.07s.81.73 1.54.73c.84 0 1.74-.38 2.72-1.14.97-.75 2.1-1.87 3.4-3.36l2.92 2.92c-2.84 2.83-5.28 4.79-7.34 5.85-2.05 1.07-4.21 1.61-6.48 1.61s-4.07-.63-5.39-1.89-1.99-2.91-1.99-4.96c0-.68.08-1.33.25-1.95l-.57-.08c-1.97 2.32-3.67 4.07-5.09 5.25-1.42 1.17-2.92 2.07-4.52 2.69-1.59.62-3.36.94-5.3.94-3.25 0-5.71-1.11-7.38-3.31-1.68-2.2-2.51-5.41-2.51-9.62 0-3.65.52-7.27 1.58-10.86 1.05-3.6 2.56-6.7 4.54-9.31 1.97-2.6 4.45-4.66 7.43-6.16 2.99-1.5 6.37-2.24 10.16-2.24"/><text x="1599.12" y="1215.73" fill-opacity="0" font-family="Arial,Arial_MSFontService,sans-serif" font-size="41.5">ğ’‚</text><path fill-rule="evenodd" d="M1654.1 1149.41h15.16l-.44 1.96c-.86.08-1.48.34-1.87.79-.38.45-.58 1.03-.58 1.74q0 .9.33 2.13c.22.83.56 1.81 1.01 2.97l1.88 4.94 3.99-4.94c1.27-1.59 2.16-2.79 2.65-3.59q.75-1.215.75-2.01c0-.68-.17-1.16-.51-1.45s-.89-.48-1.67-.58l.45-1.96h12.39l-.45 1.99c-.47.08-.95.27-1.43.57-.47.3-1.12.85-1.95 1.67-.82.81-2.19 2.33-4.09 4.55l-8.55 9.92 5.27 13.73c.79 2.09 1.5 3.59 2.13 4.51.63.93 1.45 1.51 2.49 1.75l-.42 1.96h-15.19l.42-1.96c1.57-.16 2.35-.88 2.35-2.15 0-.71-.09-1.44-.27-2.17-.18-.74-.44-1.55-.77-2.44l-2.65-7-6.17 7.35c-.91 1.09-1.56 1.96-1.94 2.59-.37.64-.56 1.26-.56 1.88 0 1.19.73 1.84 2.2 1.94l-.41 1.96h-12.42l.41-1.96c.82-.22 1.63-.68 2.43-1.37.8-.7 2.33-2.33 4.57-4.89l10.28-11.61-4.56-12.04c-.32-.81-.7-1.74-1.15-2.77-.44-1.03-.85-1.82-1.22-2.37-.36-.54-.72-.93-1.07-1.17s-.77-.41-1.27-.51Z"/><text x="1645.23" y="1184.98" fill-opacity="0" font-family="Arial,Arial_MSFontService,sans-serif" font-size="40.657">ğ‘¿</text><path fill-rule="evenodd" d="M1695.46 1169h23.1l-.37 1.61-20.48 28.81h6.2c.91 0 1.64-.14 2.18-.41.55-.26 1.18-.9 1.91-1.91.72-1.01 1.38-2.29 1.96-3.83h3.2l-1.95 9.05h-23.29l.34-1.61 20.48-28.81h-5.95c-.69 0-1.21.05-1.57.15q-.525.15-.99.45c-.3.2-.64.53-1.03.97-.39.43-.83 1.07-1.31 1.89s-.85 1.56-1.11 2.21h-3.2Z"/><text x="1687.92" y="1198.16" fill-opacity="0" font-family="Arial,Arial_MSFontService,sans-serif" font-size="33.325">ğ’</text><path fill-rule="evenodd" d="M1891.19 1183.63c-2.51 0-4.46 1.32-5.85 3.95-1.4 2.64-2.09 6.34-2.09 11.13q0 7.98 1.74 11.91t5.43 3.93c1.16 0 2.32-.29 3.47-.87s2.11-1.47 2.9-2.67c.78-1.21 1.17-2.59 1.17-4.16v-13.49c0-3.3-.55-5.74-1.66-7.34-1.11-1.59-2.81-2.39-5.11-2.39m-49.52 0c-2.68 0-4.62 1.28-5.82 3.83s-1.8 6.59-1.8 12.1c0 5.73.64 10.01 1.92 12.86 1.28 2.86 3.22 4.28 5.82 4.28q3.84 0 5.67-3.75c1.22-2.5 1.82-6.49 1.82-11.97 0-5.81-.64-10.16-1.92-13.03-1.28-2.88-3.18-4.32-5.69-4.32m.16-4.21q9.81 0 14.79 5.16c3.32 3.45 4.98 8.49 4.98 15.14 0 6.86-1.75 12.11-5.26 15.74-3.52 3.64-8.57 5.46-15.16 5.46-6.35 0-11.18-1.74-14.49-5.21s-4.96-8.56-4.96-15.26c0-4.76.87-8.71 2.61-11.88 1.74-3.16 4.11-5.47 7.11-6.95 3-1.47 6.46-2.2 10.38-2.2m-66.06 0c2.95 0 5.26.58 6.93 1.76 1.68 1.17 2.89 2.88 3.65 5.12 2.73-2.53 5.1-4.32 7.11-5.34 2.01-1.03 4.11-1.54 6.3-1.54 2.16 0 3.95.28 5.37.85 1.42.56 2.59 1.44 3.51 2.63s1.59 2.68 2 4.46c.42 1.78.63 3.92.63 6.4v14.79c0 2.57.08 4.34.25 5.31.16.98.5 1.75 1.01 2.33s1.46 1.05 2.84 1.4v2.68h-19.54v-2.68c1.22-.3 2.06-.73 2.51-1.3.46-.56.78-1.35.96-2.35.17-1 .26-2.78.26-5.35v-10.86c0-2.43-.08-4.41-.24-5.93-.16-1.53-.48-2.73-.93-3.59q-.69-1.305-1.65-1.86-.945-.57-2.49-.57c-.7 0-1.35.11-1.94.32-.6.22-1.2.55-1.81.99-.61.45-1.13.9-1.56 1.36s-.77.98-1.03 1.54c-.26.57-.43 1.2-.53 1.91-.09.7-.14 1.85-.14 3.44v13.21c0 2.41.07 4.14.2 5.21.14 1.07.46 1.89.98 2.47.51.59 1.37 1.04 2.59 1.36v2.68h-19.29v-2.68c1.24-.3 2.1-.73 2.57-1.3.47-.56.79-1.34.95-2.33.17-.98.25-2.77.25-5.37v-10.86c0-1.78-.04-3.29-.1-4.52-.07-1.22-.19-2.22-.35-2.97-.16-.76-.38-1.42-.67-1.99-.28-.57-.61-1.03-.97-1.38s-.8-.62-1.3-.81-1.12-.28-1.88-.28c-1 0-2.05.31-3.14.93-1.1.62-2.02 1.49-2.76 2.59q-1.11 1.665-1.11 3.57v15.68c0 2.54.07 4.32.22 5.33.15 1.02.47 1.81.95 2.39.49.59 1.34 1.02 2.56 1.32v2.68h-19.42v-2.68q1.95-.525 2.7-1.38c.5-.56.84-1.33 1.01-2.31.18-.97.26-2.74.26-5.31v-16.65c0-2-.03-3.48-.1-4.44-.06-.96-.23-1.73-.48-2.31-.26-.58-.65-1.05-1.18-1.42-.52-.36-1.44-.68-2.73-.95v-2.76l11.1-.32h5.11l-.61 5.84.49.12c2.45-2.3 4.67-3.92 6.64-4.87 1.97-.94 3.99-1.41 6.04-1.41m128.84-17.19h5.06v46.2c0 2.06.04 3.56.1 4.5.07.95.23 1.7.47 2.27s.64 1.03 1.18 1.4c.54.36 1.44.68 2.71.95v2.72l-11.02.36h-4.91l.37-5.83-.61-.05c-1.94 1.98-3.99 3.5-6.14 4.56-2.15 1.07-4.21 1.61-6.18 1.61q-7.38 0-11.04-5.07c-2.45-3.38-3.67-8.46-3.67-15.24 0-4.59.74-8.46 2.23-11.61 1.48-3.15 3.69-5.53 6.62-7.15 2.94-1.62 6.47-2.43 10.6-2.43 1.19 0 2.36.07 3.51.22s2.5.44 4.07.87v-3.69c0-2.89-.04-4.94-.12-6.14s-.25-2.12-.51-2.75c-.25-.64-.64-1.13-1.15-1.48-.52-.35-1.45-.67-2.8-.94v-2.71Z"/><text x="1747" y="1213.58" fill-opacity="0" font-family="Arial,Arial_MSFontService,sans-serif" font-size="58.684">ğ¦ğ¨ğ</text><path fill-rule="evenodd" d="M1967.45 1185.37c-1.78 0-3.6.87-5.45 2.62a20.5 20.5 0 0 0-4.44 6.06c-1.11 2.29-2.12 5.53-3.04 9.72l-.32 1.5c-.44 2-.65 3.96-.65 5.88 0 1.97.33 3.39.99 4.25.66.87 1.78 1.3 3.34 1.3 1.36 0 2.58-.3 3.69-.91s2.16-1.6 3.14-2.98c.99-1.38 1.95-3.15 2.88-5.33.93-2.17 1.74-4.78 2.41-7.8q1.02-4.545 1.02-8.43c0-2-.29-3.48-.88-4.44-.58-.96-1.47-1.44-2.69-1.44m-17.87-5.95c2.24 0 4.03.62 5.37 1.88 1.33 1.26 2 2.91 2 4.96q0 1.02-.24 1.95l.4.32c2.49-3.16 4.9-5.47 7.22-6.93s5.01-2.18 8.06-2.18c3.06 0 5.43 1.1 7.12 3.32 1.68 2.21 2.53 5.42 2.53 9.6 0 3.65-.53 7.27-1.58 10.86-1.06 3.6-2.57 6.7-4.54 9.31-1.97 2.6-4.45 4.66-7.44 6.16q-4.47 2.25-10.11 2.25c-2.4 0-4.73-.42-6.97-1.26l-1.54 7.21c-.24 1.19-.42 2.12-.53 2.78-.1.66-.16 1.28-.16 1.84 0 1.16.31 2 .91 2.52.61.51 1.66.85 3.14 1.01l-.44 2.67h-16.86l10.25-45.59c.41-1.81.61-3.15.61-4.01q0-1.335-.45-2.07c-.29-.49-.81-.73-1.54-.73-.83 0-1.74.38-2.71 1.14-.97.75-2.11 1.87-3.41 3.36l-2.91-2.92c2.7-2.75 5.1-4.69 7.19-5.79a13.9 13.9 0 0 1 6.63-1.66"/><text x="1935.76" y="1230.41" fill-opacity="0" font-family="Arial,Arial_MSFontService,sans-serif" font-size="58.278">ğ’‘</text><path fill-rule="evenodd" d="M1407.25 1635.96h20.38l-.57 2.67c-1.54.43-2.67 1.19-3.4 2.27q-1.095 1.62-2.07 6l-3.04 13.7h.61c1.14 0 2.16-.2 3.08-.59s1.93-1.03 3.04-1.91c1.11-.87 2.92-2.56 5.43-5.04 2.51-2.49 4.33-4.41 5.45-5.76s1.92-2.49 2.39-3.42c.48-.93.71-1.79.71-2.58 0-.94-.21-1.6-.65-1.96-.43-.37-1.14-.6-2.14-.71l.6-2.67h19.78l-.61 2.75c-.89.19-1.67.45-2.35.77-.67.33-1.52.91-2.53 1.74-1.01.84-2.52 2.22-4.52 4.14l-14.67 14.06 8.55 21.07c.81 2 1.53 3.55 2.15 4.65.62 1.09 1.25 1.89 1.88 2.39.64.5 1.47.87 2.5 1.11l-.53 2.63h-20.26l.6-2.67c.73-.08 1.25-.27 1.54-.57.3-.29.45-.78.45-1.46 0-.64-.14-1.48-.41-2.49s-.85-2.67-1.74-4.96l-3.69-9.57c-.51-1.32-.99-2.29-1.44-2.9-.44-.6-.91-1.03-1.41-1.27-.5-.25-1.23-.37-2.17-.37h-.61l-3.36 15.32c-.19.89-.33 1.64-.41 2.25q-.12.915-.12 2.49c0 1.14.26 1.97.79 2.5.53.52 1.38.87 2.57 1.03l-.56 2.67h-20.39l.57-2.67c1.54-.43 2.67-1.19 3.4-2.27q1.095-1.62 2.07-6l7.38-33.43c.35-1.6.52-3.18.52-4.74 0-1.14-.26-1.97-.79-2.5-.53-.52-1.38-.87-2.57-1.03Z"/><text x="1396.1" y="1684.36" fill-opacity="0" font-family="Arial,Arial_MSFontService,sans-serif" font-size="55.32">ğ‘²</text><path fill-rule="evenodd" d="m1481.15 1674.67-9.21 17.36h9.71l-.12-7.14c-.04-2.55-.06-4.65-.06-6.32q0-1.905.03-3.9Zm25.16-7.21h28.18l-.45 1.97-24.99 35.14h7.57c1.11 0 2-.16 2.66-.49.67-.32 1.44-1.1 2.33-2.34.88-1.23 1.68-2.79 2.4-4.67h3.9l-2.39 11.05h-28.41l.42-1.97 24.99-35.14h-7.27c-.84 0-1.47.06-1.91.18-.43.11-.84.3-1.2.55-.37.24-.79.64-1.27 1.17q-.72.81-1.59 2.31c-.59 1-1.04 1.9-1.36 2.7h-3.9Zm-25.58-.21h8.58l1.28 31.84c.04 1.14.12 2.15.24 3.06.12.9.3 1.64.56 2.22.26.57.58.99.97 1.26s.88.44 1.47.52l-.44 1.97h-15.4l.45-1.97c.87-.06 1.56-.28 2.07-.67.5-.38.85-.91 1.05-1.58.2-.66.3-1.59.3-2.78 0-.85-.02-1.75-.06-2.68l-.06-2.92h-11.64l-.42.74q-1.665 3.015-2.22 4.56c-.37 1.03-.55 1.99-.55 2.86 0 1.43.84 2.25 2.53 2.47l-.45 1.97h-12.57l.45-1.97c.7-.16 1.31-.42 1.83-.8.53-.38 1.03-.89 1.51-1.54.47-.64 1.15-1.75 2.02-3.32Z"/><text x="1456.42" y="1703.01" fill-opacity="0" font-family="Arial,Arial_MSFontService,sans-serif" font-size="40.865">ğ‘¨ğ’</text><path fill-rule="evenodd" d="M1567.1 1673.28h49.93v5.39h-49.93Zm0-16.82h49.93v5.39h-49.93Z"/><text x="1567.1" y="1675.89" fill-opacity="0" font-family="Arial,Arial_MSFontService,sans-serif" font-size="22.209">=</text><path fill-rule="evenodd" d="M1650.67 1635.96h19.82l-.61 2.67c-2.1.24-3.16 1.49-3.16 3.73 0 1.43.27 3.35.81 5.75l3.2 14.84 9.29-13.46c1.48-2.13 2.45-3.76 2.91-4.88q.69-1.68.69-3.39c0-.75-.21-1.34-.65-1.76-.43-.42-1.18-.69-2.27-.83l.61-2.67h16.62l-.61 2.67c-.7.16-1.35.45-1.94.87-.6.42-1.44 1.24-2.52 2.47s-2.63 3.28-4.66 6.14l-15.68 21.64-2.35 10.62c-.19.79-.33 1.52-.41 2.21q-.12 1.035-.12 2.49c0 1.25.32 2.13.95 2.64.64.51 1.63.81 2.98.89l-.57 2.67h-21.52l.57-2.67c1.19-.16 2.14-.51 2.84-1.05s1.29-1.35 1.76-2.41c.47-1.07.95-2.67 1.44-4.81l2.39-10.98-5.27-22.53c-.4-1.71-.8-3.1-1.19-4.18s-.79-1.89-1.18-2.43-.77-.92-1.15-1.13q-.57-.33-1.62-.45Z"/><text x="1650.07" y="1684.36" fill-opacity="0" font-family="Arial,Arial_MSFontService,sans-serif" font-size="55.32">ğ’€</text><path fill-rule="evenodd" d="m1722.32 1683.49-9.2 17.37h9.71l-.12-7.15c-.04-2.54-.06-4.65-.06-6.32q0-1.905.03-3.9Zm-.42-7.41h8.58l1.28 31.84c.04 1.13.12 2.15.24 3.05q.18 1.35.57 2.22c.26.57.58 1 .96 1.26.39.27.88.45 1.48.53l-.45 1.96h-15.4l.45-1.96c.87-.06 1.56-.29 2.07-.67.51-.39.86-.92 1.06-1.58q.3-1.005.3-2.79c0-.85-.02-1.75-.06-2.68l-.06-2.92h-11.65l-.42.75c-1.11 2-1.85 3.52-2.22 4.55-.36 1.04-.55 1.99-.55 2.86 0 1.43.85 2.26 2.54 2.48l-.45 1.96h-12.57l.45-1.96q1.035-.24 1.83-.81a7 7 0 0 0 1.5-1.53c.48-.65 1.15-1.75 2.03-3.32Z"/><text x="1697.6" y="1711.83" fill-opacity="0" font-family="Arial,Arial_MSFontService,sans-serif" font-size="40.865">ğ‘¨</text><path fill-rule="evenodd" d="M1706.24 1607.53h15.16l-.45 1.97c-.85.08-1.47.34-1.86.79s-.58 1.03-.58 1.74q0 .9.33 2.13c.21.83.55 1.81 1.01 2.97l1.88 4.94 3.99-4.94c1.27-1.59 2.15-2.79 2.65-3.59.49-.81.74-1.48.74-2.01 0-.68-.17-1.16-.5-1.45-.34-.29-.9-.48-1.67-.58l.44-1.97h12.39l-.44 2c-.48.08-.95.27-1.43.57-.48.29-1.13.85-1.95 1.66-.83.82-2.19 2.34-4.1 4.56l-8.55 9.92 5.28 13.73c.79 2.09 1.5 3.59 2.13 4.51.62.93 1.45 1.51 2.48 1.75l-.41 1.96h-15.2l.42-1.96c1.57-.16 2.35-.88 2.35-2.15 0-.71-.08-1.44-.26-2.17-.18-.74-.44-1.55-.78-2.45l-2.65-7-6.16 7.36c-.92 1.09-1.56 1.96-1.94 2.59-.38.64-.57 1.26-.57 1.88 0 1.19.74 1.84 2.21 1.94l-.42 1.96h-12.42l.42-1.96c.81-.22 1.62-.68 2.43-1.37.8-.7 2.32-2.33 4.57-4.89l10.27-11.62-4.55-12.03c-.32-.81-.7-1.74-1.15-2.77s-.85-1.82-1.22-2.37c-.37-.54-.73-.93-1.07-1.17-.35-.24-.77-.41-1.27-.51Z"/><text x="1697.36" y="1643.11" fill-opacity="0" font-family="Arial,Arial_MSFontService,sans-serif" font-size="40.657">ğ‘¿</text><path fill-rule="evenodd" d="M1747.6 1627.13h23.09l-.36 1.61-20.49 28.81h6.2c.92 0 1.64-.14 2.19-.41.54-.26 1.18-.9 1.9-1.91.73-1.01 1.38-2.29 1.97-3.84h3.2l-1.96 9.06h-23.29l.35-1.61 20.48-28.81h-5.96q-1.02 0-1.56.15t-.99.45c-.3.2-.65.53-1.04.96-.39.44-.82 1.07-1.3 1.9-.48.82-.85 1.56-1.11 2.21h-3.2Z"/><text x="1740.05" y="1656.29" fill-opacity="0" font-family="Arial,Arial_MSFontService,sans-serif" font-size="33.325">ğ’</text><path fill-rule="evenodd" d="M1943.33 1654.64c-2.51 0-4.47 1.32-5.86 3.95s-2.09 6.34-2.09 11.12c0 5.33.59 9.3 1.75 11.92q1.74 3.93 5.43 3.93c1.16 0 2.31-.29 3.46-.87s2.12-1.47 2.9-2.68c.78-1.2 1.18-2.58 1.18-4.15v-13.5c0-3.29-.56-5.74-1.67-7.33-1.1-1.59-2.81-2.39-5.1-2.39m-49.53 0c-2.67 0-4.61 1.27-5.81 3.83-1.21 2.55-1.81 6.58-1.81 12.1 0 5.72.64 10.01 1.93 12.86 1.28 2.85 3.22 4.28 5.81 4.28 2.57 0 4.46-1.25 5.68-3.75 1.21-2.5 1.82-6.49 1.82-11.98 0-5.81-.64-10.15-1.93-13.03-1.28-2.87-3.18-4.31-5.69-4.31m.16-4.22c6.54 0 11.47 1.73 14.8 5.17 3.32 3.45 4.98 8.49 4.98 15.14 0 6.86-1.76 12.11-5.27 15.74-3.51 3.64-8.56 5.45-15.16 5.45-6.34 0-11.17-1.73-14.48-5.2-3.31-3.48-4.97-8.56-4.97-15.26 0-4.76.87-8.72 2.62-11.88 1.74-3.16 4.11-5.48 7.11-6.95s6.46-2.21 10.37-2.21m-66.05 0q4.41 0 6.93 1.77c1.67 1.17 2.89 2.88 3.64 5.12 2.73-2.54 5.1-4.32 7.12-5.35 2.01-1.02 4.11-1.54 6.3-1.54 2.16 0 3.95.29 5.37.85 1.42.57 2.59 1.45 3.5 2.64.92 1.19 1.59 2.67 2.01 4.46.42 1.78.63 3.91.63 6.4v14.79q0 3.855.24 5.31c.16.97.5 1.75 1.01 2.33.52.58 1.46 1.05 2.84 1.4v2.67h-19.53v-2.67c1.21-.3 2.05-.73 2.51-1.3.46-.56.78-1.35.95-2.35.18-1 .27-2.78.27-5.35v-10.86c0-2.43-.09-4.41-.25-5.94-.16-1.52-.47-2.72-.93-3.58-.46-.87-1.01-1.49-1.64-1.87-.64-.37-1.47-.56-2.49-.56-.71 0-1.35.1-1.95.32a7.7 7.7 0 0 0-1.8.99c-.61.45-1.13.9-1.56 1.36s-.78.97-1.04 1.54c-.25.57-.43 1.2-.52 1.91-.1.7-.14 1.85-.14 3.44v13.21c0 2.41.06 4.14.2 5.21.13 1.07.46 1.89.97 2.47s1.38 1.04 2.59 1.36v2.67h-19.29v-2.67c1.25-.3 2.1-.73 2.58-1.3.47-.56.79-1.34.95-2.33q.24-1.47.24-5.37v-10.86c0-1.78-.03-3.29-.1-4.52s-.18-2.22-.34-2.98c-.17-.75-.39-1.41-.67-1.98-.29-.57-.61-1.03-.97-1.38-.37-.35-.8-.62-1.3-.81s-1.13-.28-1.89-.28c-1 0-2.04.31-3.14.93-1.09.62-2.01 1.48-2.75 2.59-.75 1.11-1.12 2.3-1.12 3.57v15.68c0 2.54.08 4.32.23 5.33.14 1.02.46 1.81.95 2.39.48.58 1.34 1.02 2.55 1.32v2.67h-19.41v-2.67c1.3-.35 2.19-.81 2.69-1.38q.75-.855 1.02-2.31c.17-.97.26-2.74.26-5.31v-16.65c0-2-.03-3.48-.1-4.44s-.23-1.73-.49-2.31c-.25-.58-.65-1.06-1.17-1.42-.53-.36-1.44-.68-2.74-.95v-2.76l11.11-.32h5.1l-.61 5.83.49.13c2.46-2.3 4.68-3.92 6.65-4.87 1.97-.94 3.98-1.42 6.04-1.42m128.83-17.18h5.07v46.2c0 2.05.03 3.55.1 4.5s.22 1.7.47 2.27c.24.57.63 1.03 1.17 1.4.54.36 1.45.68 2.72.95v2.71l-11.03.37h-4.9l.36-5.84-.6-.04c-1.95 1.98-4 3.5-6.14 4.56-2.15 1.07-4.21 1.6-6.18 1.6-4.92 0-8.6-1.69-11.05-5.06-2.44-3.38-3.67-8.46-3.67-15.24 0-4.59.75-8.46 2.23-11.61 1.49-3.15 3.7-5.53 6.63-7.16 2.93-1.62 6.46-2.43 10.6-2.43 1.19 0 2.35.08 3.5.23 1.15.14 2.51.44 4.08.87v-3.69c0-2.89-.04-4.94-.13-6.14-.08-1.2-.25-2.12-.5-2.76-.26-.63-.64-1.12-1.16-1.48q-.765-.525-2.79-.93v-2.71Z"/><text x="1799.13" y="1684.59" fill-opacity="0" font-family="Arial,Arial_MSFontService,sans-serif" font-size="58.684">ğ¦ğ¨ğ</text><path fill-rule="evenodd" d="M2019.58 1656.38c-1.78 0-3.6.87-5.45 2.61a20.5 20.5 0 0 0-4.43 6.06c-1.11 2.3-2.12 5.54-3.04 9.73l-.33 1.5c-.43 2-.65 3.96-.65 5.88 0 1.97.33 3.39 1 4.25.66.87 1.77 1.3 3.34 1.3 1.35 0 2.58-.31 3.69-.91 1.11-.61 2.15-1.6 3.14-2.98s1.94-3.16 2.88-5.33c.93-2.18 1.73-4.78 2.41-7.8.67-3.03 1.01-5.84 1.01-8.43q0-3-.87-4.44t-2.7-1.44m-17.87-5.96q3.36 0 5.37 1.89c1.34 1.25 2.01 2.91 2.01 4.96 0 .68-.08 1.33-.25 1.95l.41.32c2.49-3.16 4.89-5.47 7.21-6.93q3.495-2.19 8.07-2.19t7.11 3.33c1.69 2.21 2.53 5.41 2.53 9.6 0 3.65-.52 7.27-1.58 10.86-1.05 3.6-2.56 6.7-4.54 9.3-1.97 2.61-4.45 4.66-7.43 6.16q-4.485 2.25-10.11 2.25c-2.41 0-4.73-.42-6.97-1.25l-1.54 7.21c-.25 1.19-.42 2.11-.53 2.78-.11.66-.16 1.27-.16 1.84 0 1.16.3 2 .91 2.51.61.52 1.65.85 3.14 1.02l-.45 2.67h-16.86l10.26-45.59c.4-1.81.61-3.15.61-4.01 0-.9-.15-1.58-.45-2.07s-.81-.73-1.54-.73c-.84 0-1.74.38-2.72 1.13-.97.76-2.1 1.88-3.4 3.37l-2.92-2.92c2.7-2.76 5.1-4.69 7.2-5.8 2.09-1.1 4.3-1.66 6.62-1.66"/><text x="1987.89" y="1701.42" fill-opacity="0" font-family="Arial,Arial_MSFontService,sans-serif" font-size="58.278">ğ’‘</text><path fill-rule="evenodd" d="M1407.25 1817.93h20.38l-.57 2.68c-1.54.43-2.67 1.19-3.4 2.27s-1.42 3.08-2.07 5.99l-3.04 13.7h.61c1.14 0 2.16-.19 3.08-.58.92-.4 1.93-1.03 3.04-1.91s2.92-2.56 5.43-5.05c2.51-2.48 4.33-4.4 5.45-5.75s1.92-2.49 2.39-3.42c.48-.94.71-1.79.71-2.58 0-.94-.21-1.6-.65-1.96-.43-.37-1.14-.61-2.14-.71l.6-2.68h19.78l-.61 2.76c-.89.19-1.67.44-2.35.77-.67.32-1.52.9-2.53 1.74s-2.52 2.22-4.52 4.13l-14.67 14.07 8.55 21.07c.81 2 1.53 3.55 2.15 4.64.62 1.1 1.25 1.89 1.88 2.39.64.5 1.47.87 2.5 1.12l-.53 2.63h-20.26l.6-2.67c.73-.08 1.25-.27 1.54-.57.3-.3.45-.78.45-1.46 0-.65-.14-1.48-.41-2.49s-.85-2.67-1.74-4.97l-3.69-9.56c-.51-1.32-.99-2.29-1.44-2.9-.44-.61-.91-1.03-1.41-1.28-.5-.24-1.23-.36-2.17-.36h-.61l-3.36 15.32c-.19.89-.33 1.64-.41 2.25q-.12.915-.12 2.49c0 1.14.26 1.97.79 2.49.53.53 1.38.88 2.57 1.04l-.56 2.67h-20.39l.57-2.67c1.54-.44 2.67-1.19 3.4-2.27q1.095-1.62 2.07-6l7.38-33.44c.35-1.59.52-3.17.52-4.74 0-1.13-.26-1.96-.79-2.49s-1.38-.87-2.57-1.03Z"/><text x="1396.1" y="1866.34" fill-opacity="0" font-family="Arial,Arial_MSFontService,sans-serif" font-size="55.32">ğ‘²</text><path fill-rule="evenodd" d="m1474.3 1870.74-3.46 15.78q1.245.09 3.81.09c2.46 0 4.42-.46 5.86-1.37 1.43-.91 2.5-2.19 3.2-3.84.69-1.65 1.04-3.34 1.04-5.07 0-3.73-2.11-5.59-6.34-5.59Zm7.38-17.82q-2.085 0-3.51.15l-3.13 14.18h4.65c1.74 0 3.27-.39 4.57-1.18 1.3-.78 2.3-1.87 2.99-3.26.7-1.39 1.04-2.99 1.04-4.79 0-1.71-.53-2.99-1.6-3.83-1.08-.84-2.74-1.27-5.01-1.27m28.63-3.48h28.18l-.45 1.96-24.99 35.15h7.57c1.11 0 2-.16 2.66-.49.67-.33 1.44-1.11 2.33-2.34.88-1.23 1.68-2.79 2.4-4.67h3.9l-2.39 11.05h-28.41l.42-1.97 24.99-35.15h-7.27c-.84 0-1.47.06-1.91.18-.43.12-.84.3-1.2.55-.37.25-.79.64-1.27 1.18q-.72.81-1.59 2.31c-.59 1-1.04 1.9-1.36 2.69h-3.9Zm-43.61 0h17.1c3.49 0 6.22.31 8.17.92 1.96.62 3.37 1.53 4.25 2.74.87 1.21 1.31 2.74 1.31 4.59 0 2.76-.76 5.03-2.28 6.82s-3.97 3.34-7.34 4.65l-.06.32c1.86.76 3.31 1.81 4.33 3.16s1.54 2.91 1.54 4.68c0 2.42-.59 4.54-1.75 6.34-1.16 1.81-3.01 3.33-5.55 4.57-2.54 1.25-6.46 1.87-11.74 1.87h-16.17l.42-1.97c1.13-.32 1.96-.87 2.5-1.67.53-.79 1.04-2.26 1.52-4.41l5.42-24.57q.39-1.755.39-3.48c0-.84-.2-1.45-.59-1.84-.38-.38-1.01-.64-1.89-.76Z"/><text x="1458.51" y="1885.01" fill-opacity="0" font-family="Arial,Arial_MSFontService,sans-serif" font-size="40.657">ğ‘©ğ’</text><path fill-rule="evenodd" d="M1570.54 1855.26h49.92v5.39h-49.92Zm0-16.82h49.92v5.39h-49.92Z"/><text x="1570.54" y="1857.87" fill-opacity="0" font-family="Arial,Arial_MSFontService,sans-serif" font-size="22.209">=</text><path fill-rule="evenodd" d="M1654.11 1817.93h19.82l-.61 2.68c-2.11.24-3.16 1.48-3.16 3.73 0 1.43.27 3.35.81 5.75l3.2 14.83 9.28-13.45c1.49-2.14 2.46-3.76 2.92-4.89.46-1.12.69-2.24.69-3.38 0-.76-.22-1.34-.65-1.76s-1.19-.7-2.27-.83l.61-2.68h16.62l-.61 2.68q-1.05.24-1.95.87c-.59.42-1.43 1.24-2.51 2.47s-2.63 3.28-4.66 6.14l-15.68 21.64-2.36 10.62c-.18.78-.32 1.52-.4 2.21q-.12 1.035-.12 2.49c0 1.24.32 2.12.95 2.64.64.51 1.63.81 2.98.89l-.57 2.67h-21.52l.57-2.67c1.19-.16 2.13-.52 2.84-1.06.7-.54 1.29-1.34 1.76-2.41q.705-1.605 1.44-4.8l2.39-10.98-5.27-22.54c-.41-1.7-.8-3.09-1.2-4.17q-.585-1.62-1.17-2.43c-.39-.54-.78-.92-1.16-1.14-.37-.21-.91-.36-1.62-.44Z"/><text x="1653.5" y="1866.34" fill-opacity="0" font-family="Arial,Arial_MSFontService,sans-serif" font-size="55.32">ğ’€</text><path fill-rule="evenodd" d="m1718.91 1879.47-3.46 15.78c.84.06 2.11.09 3.82.09 2.46 0 4.41-.45 5.85-1.37 1.44-.91 2.5-2.19 3.2-3.84.69-1.65 1.04-3.34 1.04-5.06 0-3.74-2.11-5.6-6.34-5.6Zm7.38-17.81c-1.39 0-2.56.04-3.51.14l-3.13 14.18h4.65c1.75 0 3.27-.39 4.57-1.17 1.3-.79 2.3-1.88 2.99-3.27.7-1.39 1.05-2.98 1.05-4.79 0-1.71-.54-2.99-1.61-3.83q-1.605-1.26-5.01-1.26m-14.98-3.49h17.1c3.49 0 6.22.31 8.18.92 1.95.62 3.37 1.53 4.24 2.74.87 1.22 1.31 2.74 1.31 4.59 0 2.76-.76 5.03-2.28 6.82s-3.96 3.34-7.34 4.65l-.06.33c1.87.75 3.31 1.8 4.33 3.15 1.03 1.35 1.54 2.91 1.54 4.68 0 2.42-.58 4.54-1.74 6.34-1.17 1.81-3.02 3.33-5.56 4.58-2.54 1.24-6.45 1.86-11.74 1.86h-16.17l.42-1.97c1.13-.32 1.96-.87 2.5-1.67.54-.79 1.04-2.26 1.52-4.4l5.42-24.58q.39-1.755.39-3.48c0-.84-.2-1.45-.58-1.83-.39-.39-1.02-.64-1.89-.76Z"/><text x="1703.12" y="1893.74" fill-opacity="0" font-family="Arial,Arial_MSFontService,sans-serif" font-size="40.657">ğ‘©</text><path fill-rule="evenodd" d="M1709.67 1789.51h15.16l-.44 1.97c-.86.08-1.48.34-1.86.79-.39.44-.58 1.02-.58 1.74 0 .6.11 1.31.32 2.13.22.82.56 1.81 1.02 2.96l1.87 4.95 3.99-4.95c1.27-1.59 2.16-2.78 2.65-3.59q.75-1.2.75-2.01 0-1.005-.51-1.44c-.33-.29-.89-.48-1.66-.58l.44-1.97h12.39l-.44 2c-.48.08-.96.27-1.43.56-.48.3-1.13.86-1.95 1.67-.83.82-2.19 2.33-4.1 4.56l-8.55 9.92 5.27 13.73c.8 2.08 1.51 3.59 2.13 4.51q.945 1.38 2.49 1.74l-.42 1.97h-15.19l.42-1.97c1.57-.16 2.35-.87 2.35-2.14 0-.72-.09-1.44-.27-2.18-.17-.73-.43-1.54-.77-2.44l-2.65-7-6.17 7.36c-.91 1.09-1.56 1.96-1.93 2.59-.38.64-.57 1.26-.57 1.88 0 1.19.74 1.83 2.21 1.93l-.42 1.97h-12.42l.42-1.97c.81-.22 1.62-.67 2.42-1.37.81-.69 2.33-2.32 4.57-4.88l10.28-11.62-4.56-12.03c-.31-.82-.7-1.74-1.14-2.77-.45-1.03-.86-1.82-1.22-2.37-.37-.55-.73-.94-1.08-1.18-.34-.23-.77-.4-1.26-.5Z"/><text x="1700.8" y="1825.09" fill-opacity="0" font-family="Arial,Arial_MSFontService,sans-serif" font-size="40.657">ğ‘¿</text><path fill-rule="evenodd" d="M1751.03 1809.1h23.1l-.37 1.62-20.48 28.8h6.2c.91 0 1.64-.13 2.19-.4.54-.27 1.18-.91 1.9-1.92.73-1 1.38-2.28 1.97-3.83h3.19l-1.95 9.06h-23.29l.34-1.61 20.49-28.81h-5.96c-.68 0-1.21.05-1.56.15q-.54.135-.99.45c-.3.2-.65.52-1.04.96s-.83 1.07-1.31 1.89c-.48.83-.85 1.56-1.11 2.21h-3.2Z"/><text x="1743.49" y="1838.26" fill-opacity="0" font-family="Arial,Arial_MSFontService,sans-serif" font-size="33.325">ğ’</text><path fill-rule="evenodd" d="M1946.77 1836.62c-2.52 0-4.47 1.31-5.86 3.95-1.39 2.63-2.09 6.34-2.09 11.12 0 5.32.58 9.3 1.74 11.92 1.17 2.62 2.98 3.93 5.44 3.93 1.16 0 2.31-.29 3.46-.87s2.11-1.48 2.9-2.68c.78-1.2 1.17-2.59 1.17-4.15v-13.5c0-3.29-.55-5.74-1.66-7.33-1.11-1.6-2.81-2.39-5.1-2.39m-49.53 0c-2.68 0-4.62 1.27-5.82 3.83q-1.8 3.825-1.8 12.09 0 8.595 1.92 12.87c1.29 2.85 3.23 4.28 5.82 4.28q3.855 0 5.67-3.75c1.22-2.5 1.83-6.49 1.83-11.98 0-5.81-.64-10.15-1.93-13.03-1.28-2.88-3.18-4.31-5.69-4.31m.16-4.22c6.54 0 11.47 1.72 14.79 5.17 3.33 3.44 4.99 8.49 4.99 15.13 0 6.87-1.76 12.12-5.27 15.75s-8.57 5.45-15.16 5.45c-6.35 0-11.18-1.74-14.49-5.21s-4.96-8.56-4.96-15.26c0-4.75.87-8.71 2.61-11.87 1.75-3.16 4.12-5.48 7.12-6.95 2.99-1.47 6.45-2.21 10.37-2.21m-66.06 0c2.95 0 5.26.59 6.93 1.76 1.68 1.18 2.9 2.89 3.65 5.13 2.73-2.54 5.1-4.32 7.11-5.35 2.02-1.03 4.12-1.54 6.31-1.54 2.16 0 3.95.28 5.37.85 1.41.57 2.58 1.45 3.5 2.64.92 1.18 1.59 2.67 2.01 4.45.42 1.79.63 3.92.63 6.41v14.79q0 3.855.24 5.31c.16.97.5 1.75 1.01 2.33.52.58 1.46 1.05 2.84 1.4v2.67h-19.54v-2.67c1.22-.3 2.06-.73 2.52-1.3s.77-1.35.95-2.35.26-2.78.26-5.35v-10.86q0-3.645-.24-5.94c-.16-1.52-.47-2.72-.93-3.59-.46-.86-1.01-1.48-1.64-1.86-.64-.38-1.47-.57-2.5-.57-.7 0-1.35.11-1.94.33q-.9.315-1.8.99c-.61.45-1.13.9-1.56 1.36-.44.46-.78.97-1.04 1.54-.25.57-.43 1.2-.53 1.9-.09.71-.14 1.85-.14 3.45v13.21c0 2.4.07 4.14.21 5.21.13 1.06.46 1.89.97 2.47s1.38 1.03 2.59 1.36v2.67h-19.29v-2.67c1.24-.3 2.1-.73 2.57-1.3.48-.57.79-1.34.96-2.33q.24-1.485.24-5.37v-10.86c0-1.78-.03-3.29-.1-4.52s-.18-2.22-.35-2.98q-.24-1.14-.66-1.98c-.29-.57-.61-1.03-.98-1.38q-.54-.525-1.29-.81c-.5-.19-1.13-.29-1.89-.29-1 0-2.05.31-3.14.94-1.09.62-2.01 1.48-2.76 2.59q-1.11 1.665-1.11 3.57v15.68c0 2.54.07 4.32.22 5.33s.47 1.81.96 2.39q.72.87 2.55 1.32v2.67h-19.41v-2.67c1.29-.35 2.19-.81 2.69-1.38s.84-1.34 1.01-2.31q.27-1.455.27-5.31v-16.66c0-2-.04-3.48-.1-4.43-.07-.96-.23-1.73-.49-2.31-.26-.59-.65-1.06-1.17-1.42-.53-.37-1.44-.69-2.74-.96v-2.75l11.1-.33h5.11l-.61 5.84.49.12c2.46-2.29 4.67-3.92 6.65-4.86 1.97-.95 3.98-1.42 6.03-1.42m128.84-17.18h5.07v46.2c0 2.05.03 3.55.1 4.5.06.94.22 1.7.46 2.27.25.56.64 1.03 1.18 1.39.54.37 1.44.69 2.71.96v2.71l-11.02.37h-4.9l.36-5.84-.61-.04c-1.94 1.97-3.99 3.49-6.14 4.56-2.14 1.07-4.2 1.6-6.18 1.6-4.91 0-8.6-1.69-11.04-5.07-2.45-3.37-3.67-8.45-3.67-15.23 0-4.6.74-8.47 2.23-11.61 1.49-3.15 3.7-5.54 6.63-7.16q4.395-2.43 10.59-2.43c1.19 0 2.36.07 3.51.22s2.51.44 4.07.87v-3.68c0-2.89-.04-4.94-.12-6.14-.08-1.21-.25-2.12-.5-2.76-.26-.63-.65-1.13-1.16-1.48s-1.45-.66-2.8-.93v-2.72Z"/><text x="1802.57" y="1866.56" fill-opacity="0" font-family="Arial,Arial_MSFontService,sans-serif" font-size="58.684">ğ¦ğ¨ğ</text><path fill-rule="evenodd" d="M2023.02 1838.36c-1.78 0-3.6.87-5.45 2.61a20.5 20.5 0 0 0-4.44 6.06c-1.1 2.3-2.12 5.54-3.04 9.73l-.32 1.5c-.43 2-.65 3.95-.65 5.87 0 1.98.33 3.39.99 4.26.67.86 1.78 1.3 3.35 1.3 1.35 0 2.58-.31 3.69-.92 1.1-.6 2.15-1.6 3.14-2.98.98-1.37 1.94-3.15 2.87-5.32.94-2.18 1.74-4.78 2.42-7.81.67-3.02 1.01-5.83 1.01-8.43 0-2-.29-3.47-.87-4.43q-.87-1.44-2.7-1.44m-17.87-5.96c2.24 0 4.03.63 5.37 1.88 1.34 1.26 2.01 2.92 2.01 4.97 0 .67-.09 1.32-.25 1.94l.41.33c2.48-3.16 4.89-5.47 7.21-6.93 2.33-1.46 5.01-2.19 8.07-2.19 3.05 0 5.42 1.11 7.11 3.32 1.69 2.22 2.53 5.42 2.53 9.61 0 3.65-.52 7.27-1.58 10.86-1.05 3.59-2.57 6.69-4.54 9.3s-4.45 4.66-7.43 6.16c-2.99 1.5-6.36 2.25-10.12 2.25-2.4 0-4.72-.42-6.97-1.26l-1.54 7.22c-.24 1.19-.42 2.11-.52 2.77-.11.67-.17 1.28-.17 1.85 0 1.16.31 2 .92 2.51.6.51 1.65.85 3.14 1.01l-.45 2.68h-16.86l10.26-45.59q.6-2.715.6-4.02c0-.89-.15-1.58-.44-2.06-.3-.49-.81-.73-1.54-.73-.84 0-1.75.38-2.72 1.13-.97.76-2.11 1.88-3.4 3.37l-2.92-2.92c2.7-2.76 5.1-4.69 7.19-5.8 2.1-1.11 4.31-1.66 6.63-1.66"/><text x="1991.33" y="1883.39" fill-opacity="0" font-family="Arial,Arial_MSFontService,sans-serif" font-size="58.278">ğ’‘</text><path d="M1360.87 1114.917h-279.124v9.167h279.124Zm-274.541-18.333-45.833 22.916 45.833 22.917Z"/><path fill-rule="evenodd" d="M1165.89 1159.89h15.69l-.45 1.98c-1.13.11-2 .44-2.59 1-.6.55-.89 1.41-.89 2.57 0 1.65.37 3.81 1.13 6.48l4.3 15.28 9.97-13.33c2.02-2.7 3.35-4.71 3.99-6.02.63-1.31.95-2.46.95-3.46 0-.76-.26-1.34-.77-1.75-.51-.4-1.26-.66-2.23-.77l.45-1.98h15.2l-.45 1.98c-.65.14-1.21.33-1.68.59-.48.26-1.02.67-1.62 1.24-.61.56-1.44 1.48-2.48 2.73-1.04 1.26-2.37 2.94-3.99 5.05l-15.76 20.47-2.52 11.46c-.24 1.08-.41 1.93-.5 2.54-.1.61-.18 1.25-.25 1.94-.06.69-.1 1.31-.1 1.85 0 .83.14 1.49.41 1.96s.67.82 1.21 1.04c.55.21 1.48.37 2.8.48l-.44 1.99h-17.07l.45-1.99c1.08-.16 1.88-.38 2.39-.65s.97-.69 1.36-1.25c.39-.57.78-1.46 1.17-2.68.39-1.21.86-3.05 1.4-5.51l2.39-11.18-5.87-20.47c-.9-3.14-1.6-5.26-2.11-6.36-.51-1.11-1.06-1.9-1.64-2.35-.58-.46-1.35-.76-2.29-.9Z"/><text x="1165.45" y="1208.29" fill-opacity="0" font-family="Arial,Arial_MSFontService,sans-serif" font-size="55.32">ğ‘Œ</text><path fill-rule="evenodd" d="M1207.45 1193.42h27.08l-.48 1.91-27.11 33.56h9.86c1.04 0 1.92-.1 2.67-.31.74-.21 1.43-.59 2.05-1.15.63-.55 1.25-1.33 1.85-2.32q.915-1.485 2.04-3.84h3.19l-2.32 10.78h-27.65l.42-1.96 26.99-33.45h-9.36c-.87 0-1.62.04-2.26.12-.63.08-1.25.33-1.83.77q-.885.66-1.83 2.07c-.64.94-1.37 2.26-2.21 3.95h-3.3Z"/><text x="1198.63" y="1227.22" fill-opacity="0" font-family="Arial,Arial_MSFontService,sans-serif" font-size="38.631">ğ‘</text><path fill-rule="evenodd" d="M2227.74 969.121h15.68l-.45 1.986c-1.13.108-2 .439-2.59.993s-.89 1.411-.89 2.573c0 1.648.38 3.81 1.13 6.485l4.3 15.278 9.97-13.333q3.045-4.053 3.99-6.018c.64-1.311.95-2.466.95-3.465 0-.757-.25-1.338-.77-1.743-.51-.405-1.25-.662-2.23-.77l.45-1.986h15.2l-.45 1.986q-.975.203-1.68.587-.705.385-1.62 1.237c-.61.567-1.43 1.479-2.47 2.735s-2.37 2.938-4 5.046l-15.76 20.468-2.51 11.47c-.25 1.08-.42 1.92-.51 2.53s-.18 1.26-.24 1.95c-.07.68-.1 1.3-.1 1.84 0 .84.13 1.49.4 1.97.27.47.68.81 1.22 1.03.54.21 1.47.38 2.79.48l-.44 1.99h-17.06l.44-1.99c1.08-.16 1.88-.37 2.39-.64.52-.27.97-.69 1.36-1.26s.78-1.46 1.18-2.67c.39-1.22.85-3.06 1.39-5.52l2.39-11.18-5.87-20.468c-.89-3.134-1.6-5.255-2.11-6.363s-1.06-1.891-1.64-2.351-1.34-.756-2.29-.891Z"/><text x="2227.29" y="1017.53" fill-opacity="0" font-family="Arial,Arial_MSFontService,sans-serif" font-size="55.32">ğ‘Œ</text><path fill-rule="evenodd" d="M2269.29 1002.65h27.08l-.48 1.91-27.1 33.57h9.86c1.03 0 1.92-.11 2.66-.32.75-.2 1.43-.59 2.06-1.14.62-.56 1.24-1.33 1.84-2.33q.915-1.485 2.04-3.84h3.19l-2.32 10.78h-27.64l.41-1.96 26.99-33.45h-9.35c-.88 0-1.63.04-2.27.12-.63.08-1.24.34-1.83.77-.58.44-1.2 1.13-1.83 2.07-.64.95-1.37 2.26-2.2 3.95h-3.31Z"/><text x="2260.48" y="1036.46" fill-opacity="0" font-family="Arial,Arial_MSFontService,sans-serif" font-size="38.631">ğ‘</text><path d="M2102.5 1059.92h279.12v9.16H2102.5Zm274.54-18.34 45.83 22.92-45.83 22.92Zm45.83 73.337h-279.124v9.167h279.124Zm-274.541-18.333-45.833 22.916 45.833 22.917Z"/><path fill-rule="evenodd" d="M2225.88 1159.89h15.68l-.44 1.98c-1.14.11-2 .44-2.6 1-.59.55-.89 1.41-.89 2.57q0 2.475 1.14 6.48l4.29 15.28 9.97-13.33c2.03-2.7 3.36-4.71 3.99-6.02.64-1.31.96-2.46.96-3.46 0-.76-.26-1.34-.77-1.75-.52-.4-1.26-.66-2.23-.77l.44-1.98h15.2l-.44 1.98c-.65.14-1.21.33-1.69.59-.47.26-1.01.67-1.62 1.24-.61.56-1.43 1.48-2.47 2.73-1.04 1.26-2.37 2.94-3.99 5.05l-15.77 20.47-2.51 11.46c-.24 1.08-.41 1.93-.51 2.54-.09.61-.17 1.25-.24 1.94s-.1 1.31-.1 1.85c0 .83.13 1.49.4 1.96s.68.82 1.22 1.04c.54.21 1.47.37 2.8.48l-.45 1.99h-17.06l.44-1.99c1.09-.16 1.88-.38 2.4-.65.51-.27.96-.69 1.35-1.25.4-.57.79-1.46 1.18-2.68.39-1.21.86-3.05 1.4-5.51l2.39-11.18-5.88-20.47c-.89-3.14-1.59-5.26-2.11-6.36-.51-1.11-1.06-1.9-1.64-2.35-.58-.46-1.34-.76-2.29-.9Z"/><text x="2225.43" y="1208.29" fill-opacity="0" font-family="Arial,Arial_MSFontService,sans-serif" font-size="55.32">ğ‘Œ</text><path fill-rule="evenodd" d="m2272.14 1213.61-3.39 15.28q.705.03 1.8.06 1.08.03 2.58.03c2.14 0 3.99-.18 5.55-.55 1.56-.36 2.85-.94 3.87-1.72 1.03-.79 1.78-1.81 2.27-3.06.48-1.25.73-2.75.73-4.5 0-.91-.14-1.71-.42-2.41-.28-.69-.74-1.27-1.39-1.74-.64-.47-1.47-.81-2.47-1.04s-2.23-.35-3.68-.35Zm9-17.09c-.96 0-1.86.01-2.73.04-.86.03-1.69.09-2.48.17l-3.07 13.79h4.61c2.17 0 4-.21 5.5-.61 1.5-.41 2.72-.99 3.65-1.75.93-.75 1.61-1.66 2.04-2.72s.64-2.26.64-3.59c-.04-.85-.21-1.62-.51-2.29a4.03 4.03 0 0 0-1.41-1.69c-.65-.44-1.48-.78-2.5-1.01-1.03-.23-2.27-.34-3.74-.34m-14.3-3.1h15.61q3.48 0 5.91.57c1.62.37 2.95.92 3.99 1.63 1.04.72 1.8 1.58 2.27 2.58.46 1 .7 2.15.7 3.44 0 4.89-3.07 8.33-9.21 10.34 0 .1 0 .18-.01.23-.01.06-.02.11-.02.15 1.85.74 3.25 1.75 4.2 3.04.96 1.29 1.43 2.78 1.43 4.47 0 1.91-.35 3.61-1.06 5.11-.7 1.5-1.79 2.77-3.26 3.81s-3.35 1.85-5.66 2.41c-2.3.57-5.06.85-8.28.85h-13.97l.33-1.82c.62-.09 1.12-.21 1.51-.34.38-.13.73-.41 1.04-.83.31-.43.59-1.07.85-1.92.26-.86.55-2.07.89-3.64l4.89-21.71c.19-.87.34-1.65.44-2.32.1-.68.15-1.23.15-1.67 0-.89-.22-1.53-.67-1.91-.45-.37-1.28-.57-2.52-.59Z"/><text x="2259.48" y="1227.22" fill-opacity="0" font-family="Arial,Arial_MSFontService,sans-serif" font-size="38.631">ğµ</text></g></svg>