<svg xmlns="http://www.w3.org/2000/svg" width="1709" height="1987" overflow="hidden"><defs><clipPath id="a"><path d="M1139 75h1709v1987H1139z"/></clipPath></defs><g clip-path="url(#a)" transform="translate(-1139 -75)"><text fill="#d74514" font-family="JetBrains Mono,JetBrains Mono_MSFontService,sans-serif" font-size="83" font-weight="400" transform="translate(1514 176)">0<tspan x="189.806" y="0">1</tspan><tspan x="379.613" y="0">2</tspan><tspan x="569.419" y="0">3</tspan><tspan x="759.225" y="0">4</tspan><tspan x="948.556" y="0">5</tspan></text><path fill="#d74514" d="M2715.475 228.125H1343v13.75h1372.475Zm-6.875 41.25L2777.35 235l-68.75-34.375Z"/><path fill="#d74514" d="M1329.838 1929.797 1356.374 227.1l-13.748-.21-26.536 1702.693Zm-41.138-7.514 33.3 69.277 35.442-68.206Z"/><text fill="#d74514" font-family="JetBrains Mono,JetBrains Mono_MSFontService,sans-serif" font-size="83" font-weight="400" transform="translate(1242.99 455)">4<tspan x="0" y="190">3</tspan><tspan x="0" y="380">2</tspan><tspan x="0" y="570">1</tspan><tspan x="0" y="760">0</tspan><tspan x="-54.391" y="949">-</tspan><tspan x="-5.12" y="949">1</tspan><tspan x="-54.391" y="1141">-</tspan><tspan x="-5.12" y="1141">2</tspan><tspan x="-54.391" y="1329">-</tspan><tspan x="-5.12" y="1329">3</tspan><tspan x="-29.755" y="1497">k</tspan><tspan x="1460.07" y="-279">D</tspan><tspan x="172.464" y="760">(0,0)</tspan><tspan x="362.269" y="570">(1,0)</tspan><tspan x="1121.41" y="948" fill="#f8ccb9">(5,6)</tspan><tspan x="552.076" y="760" fill="#f8ccb9">(2,2)</tspan><tspan x="552.076" y="380">(3,1)</tspan><tspan x="552.076" y="1139" fill="#f8ccb9">(2,4)</tspan><tspan x="741.276" y="949" fill="#f8ccb9">(4,5)</tspan><tspan x="741.276" y="570">(5,4)</tspan><tspan x="741.276" y="190" fill="#f8ccb9">(5,2)</tspan><tspan x="741.276" y="1329" fill="#f8ccb9">(3,6)</tspan><tspan x="931.213" y="1139" fill="#f8ccb9">(4,6)</tspan><tspan x="931.213" y="760" fill="#f8ccb9">(5,5)</tspan><tspan x="931.213" y="380">(7,5)</tspan><tspan x="931.213" y="0" fill="#f8ccb9">(7,3)</tspan><tspan x="1122.45" y="570" font-weight="700">(7,6)</tspan><tspan x="362.269" y="948" fill="#f8ccb9">(0,1)</tspan></text><path fill="none" stroke="#d74514" stroke-miterlimit="8" stroke-width="13.75" d="m1603.96 1065-64.96 64.96"/><path fill="none" stroke="#f8ccb9" stroke-miterlimit="8" stroke-width="13.75" d="M1604.96 1319.96 1540 1255"/><path fill="none" stroke="#d74514" stroke-miterlimit="8" stroke-width="13.75" d="M1794.96 874 1730 938.96"/><path fill="none" stroke="#f8ccb9" stroke-miterlimit="8" stroke-width="13.75" d="M1795.96 1127.96 1731 1063m249.96-382L1916 745.96"/><path fill="none" stroke="#d74514" stroke-miterlimit="8" stroke-width="13.75" d="M1981.96 935.961 1917 871"/><path fill="none" stroke="#f8ccb9" stroke-miterlimit="8" stroke-width="13.75" d="m1983.96 1440-64.96 64.96m65.96 190L1920 1630"/><path fill="none" stroke="#d74514" stroke-miterlimit="8" stroke-width="13.75" d="M2167.96 874 2103 938.96"/><path fill="none" stroke="#f8ccb9" stroke-miterlimit="8" stroke-width="13.75" d="M2168.96 1127.96 2104 1063m-309.04 441.96L1730 1440m443.96 67.96L2109 1443m250.96-125.04L2295 1253"/><path fill="none" stroke="#d74514" stroke-miterlimit="8" stroke-width="13.75" d="M2362.96 939.96 2298 875"/><path fill="none" stroke="#f8ccb9" stroke-miterlimit="8" stroke-width="13.75" d="M2173.96 494 2109 558.96"/></g></svg>