<svg xmlns="http://www.w3.org/2000/svg" width="2221" height="2291" overflow="hidden"><defs><clipPath id="a"><path d="M-155 7h2221v2291H-155z"/></clipPath></defs><g clip-path="url(#a)" transform="translate(155 -7)"><path fill="#d74514" d="M1307.838 83.051-62.95 1453.84l3.24 3.24L1311.078 86.292Zm14.588 21.062L1338.63 55.5l-48.614 16.204ZM-74.3 1436.02l-16.2 48.61 48.61-16.2Zm2054.14 788.06L579.88 824.121l3.241-3.241L1983.08 2220.84Zm14.59-21.06 16.2 48.61-48.61-16.2Z"/><text fill="#d74514" font-family="JetBrains Mono,JetBrains Mono_MSFontService,sans-serif" font-size="83" font-weight="400" transform="translate(1377.81 171)">k<tspan x="-1422.72" y="1398">-</tspan><tspan x="-1373.45" y="1398">k</tspan><tspan x="428.507" y="2040">D</tspan></text><path fill="none" stroke="#d74514" stroke-dasharray="18.3333 13.75" stroke-miterlimit="8" stroke-width="4.583" d="M1528.72 1958.03 482.5 912.5m856.38 1045.46L395.5 1012.5m758.13 945.37L296.5 1101.5m667.166 864.63L202.5 1202.5m573.221 759.28L112.5 1294.5m473.132 671.4L4.5 1373.5m1907.33 592.22L672.5 721.5m1236.69 1050.15L760.5 626.5m1151.22 954.53L865.5 535.5m1043.38 856.46L965.5 446.5m943.13 752.37L1051.5 342.5m857.17 669.63L1147.5 248.5m760.22 569.276L1244.5 150.5"/><path fill="none" stroke="#fdefe8" stroke-miterlimit="8" stroke-width="13.75" d="M581 822h190v190H581zm190 0h190v190H771zm190 0h189v190H961zm189 0h190v190h-190zm190 0h190v190h-190zm190 0h190v190h-190zm190 0h190v190h-190zM581 1012h190v190H581zm190 0h190v190H771zm190 0h189v190H961zm189 0h190v190h-190zm190 0h190v190h-190zm190 0h190v190h-190zm190 0h190v190h-190zM581 1202h190v190H581zm190 0h190v190H771zm190 0h189v190H961zm189 0h190v190h-190zm190 0h190v190h-190zm190 0h190v190h-190zm190 0h190v190h-190zM581 1392h190v190H581zm190 0h190v190H771zm190 0h189v190H961zm189 0h190v190h-190zm190 0h190v190h-190zm190 0h190v190h-190zm190 0h190v190h-190zM581 1582h190v189H581zm190 0h190v189H771zm190 0h189v189H961zm189 0h190v189h-190zm190 0h190v189h-190zm190 0h190v189h-190zm190 0h190v189h-190zM581 1771h190v190H581zm190 0h190v190H771zm190 0h189v190H961zm189 0h190v190h-190zm190 0h190v190h-190zm190 0h190v190h-190zm190 0h190v190h-190z"/><path fill="#d74514" d="m965.896 817.174 142.624 144.68-9.8 9.653-142.616-144.681Zm157.384 120.479 23.78 73.097-72.75-24.833Zm-347.437 69.467 145.888 144.79-9.686 9.76-145.888-144.79Zm160.38 120.43 24.581 72.83-73.011-24.03Zm408.647-120.41 144.29 144.59-9.73 9.71-144.3-144.58Zm158.9 120.3 24.23 72.94-72.9-24.38Zm29.08-121.31 337.59 336.37-9.71 9.74-337.58-336.37Zm352.13 312.04 24.44 72.87-72.97-24.17ZM585.84 1197.12l338.429 335.42-9.68 9.77-338.429-335.43Zm352.904 311.05 24.632 72.81-73.028-23.98Zm216.126-311.02 334.12 335.16-9.74 9.71-334.12-335.17Zm348.74 310.88 24.2 72.95-72.89-24.42Zm29.24-121.9 337.56 335.96-9.7 9.75-337.56-335.97Zm352.09 311.62 24.48 72.86-72.98-24.13ZM585.861 1577.14l146.054 146.05-9.723 9.73-146.053-146.06Zm160.638 121.75 24.307 72.92-72.921-24.31Zm219.316 67.2 145.635 142.9-9.62 9.82-145.645-142.9Zm159.995 118.46 25 72.68-73.15-23.61Zm29.07-307.4 144.38 145.3-9.75 9.69-144.39-145.29Zm159.04 121.03 24.08 73-72.84-24.53Z"/><text fill="#f8ccb9" font-family="JetBrains Mono,JetBrains Mono_MSFontService,sans-serif" font-size="83" font-weight="400" transform="translate(556.335 759)">0<tspan x="189.806" y="0">1</tspan><tspan x="379.612" y="0">2</tspan><tspan x="569.419" y="0">3</tspan><tspan x="759.225" y="0">4</tspan><tspan x="949.031" y="0">5</tspan><tspan x="1138.36" y="0">6</tspan><tspan x="1328.17" y="0">7</tspan><tspan x="-81.199" y="90">0</tspan><tspan x="-81.199" y="280">1</tspan><tspan x="-81.199" y="469">2</tspan><tspan x="-81.199" y="659">3</tspan><tspan x="-81.199" y="849">4</tspan><tspan x="-81.199" y="1039">5</tspan><tspan x="-81.199" y="1229">6</tspan><tspan x="1408.24" y="185" fill="#fdefe8">C</tspan><tspan x="1408.24" y="375" fill="#fdefe8">B</tspan><tspan x="1410" y="564" fill="#fdefe8">A</tspan><tspan x="1408.24" y="754" fill="#fdefe8">B</tspan><tspan x="1408.78" y="943" fill="#fdefe8">A</tspan><tspan x="1408.24" y="1133" fill="#fdefe8">C</tspan><tspan x="94.903" y="1318" fill="#fdefe8">A</tspan><tspan x="282.872" y="1318" fill="#fdefe8">B</tspan><tspan x="474.514" y="1318" fill="#fdefe8">C</tspan><tspan x="664.32" y="1318" fill="#fdefe8">A</tspan><tspan x="854.125" y="1318" fill="#fdefe8">B</tspan><tspan x="1042.09" y="1318" fill="#fdefe8">B</tspan><tspan x="1233.74" y="1318" fill="#fdefe8">A</tspan></text><text fill="#d74514" font-family="JetBrains Mono,JetBrains Mono_MSFontService,sans-serif" font-size="83" font-weight="400" transform="rotate(-45.306 1316.214 -42.668)">-<tspan x="49.964" y="-.686">1</tspan><tspan x="-128.782" y="-.779">-</tspan><tspan x="-79.529" y="-.761">2</tspan><tspan x="-266.961" y="3.164">-</tspan><tspan x="-217.708" y="3.181">3</tspan><tspan x="-402.843" y="2.318">-</tspan><tspan x="-353.59" y="2.336">4</tspan><tspan x="-538.404" y=".375">-</tspan><tspan x="-489.151" y=".393">5</tspan><tspan x="-668.323" y="1.292">-</tspan><tspan x="-619.07" y="1.31">6</tspan><tspan x="297.993" y="2.608">1</tspan><tspan x="431.51" y="3.907">2</tspan><tspan x="565.027" y="5.206">3</tspan><tspan x="698.544" y="6.505">4</tspan><tspan x="832.061" y="7.803">5</tspan><tspan x="965.578" y="9.102">6</tspan><tspan x="1099.1" y="10.4">7</tspan><tspan x="164.476" y="1.31">0</tspan></text></g></svg>