<svg width="2221" height="2292" xmlns="http://www.w3.org/2000/svg" xmlns:xlink="http://www.w3.org/1999/xlink" overflow="hidden"><defs><clipPath id="clip0"><rect x="2061" y="-11" width="2221" height="2292"/></clipPath></defs><g clip-path="url(#clip0)" transform="translate(-2061 11)"><path d="M30.7925 27.5516 1401.58 1398.34 1398.34 1401.58 27.5516 30.7925ZM16.2045 48.6136 0 0 48.6136 16.2045ZM1412.93 1380.52 1429.13 1429.13 1380.52 1412.93Z" fill="#D74514" transform="matrix(-1 0 0 1 3554.63 37.5)"/><path d="M4195.84 2207.08 2795.88 807.12 2799.12 803.879 4199.08 2203.84ZM4210.43 2186.02 4226.63 2234.63 4178.02 2218.43Z" fill="#D74514"/><text fill="#D74514" font-family="JetBrains Mono,JetBrains Mono_MSFontService,sans-serif" font-weight="400" font-size="83" transform="matrix(1 0 0 1 3593.93 153)">k<tspan font-size="83" x="-1422.72" y="1398">-</tspan><tspan font-size="83" x="-1373.45" y="1398">k</tspan><tspan font-size="83" x="428.507" y="2040">D</tspan></text><path d="M3744.72 1940.03 2698.5 894.5" stroke="#D74514" stroke-width="4.58333" stroke-miterlimit="8" stroke-dasharray="18.3333 13.75" fill="none" fill-rule="evenodd"/><path d="M3554.88 1939.96 2611.5 994.5" stroke="#D74514" stroke-width="4.58333" stroke-miterlimit="8" stroke-dasharray="18.3333 13.75" fill="none" fill-rule="evenodd"/><path d="M3369.63 1940.87 2512.5 1084.5" stroke="#D74514" stroke-width="4.58333" stroke-miterlimit="8" stroke-dasharray="18.3333 13.75" fill="none" fill-rule="evenodd"/><path d="M3179.67 1948.13 2418.5 1184.5" stroke="#D74514" stroke-width="4.58333" stroke-miterlimit="8" stroke-dasharray="18.3333 13.75" fill="none" fill-rule="evenodd"/><path d="M2991.72 1943.78 2328.5 1276.5" stroke="#D74514" stroke-width="4.58333" stroke-miterlimit="8" stroke-dasharray="18.3333 13.75" fill="none" fill-rule="evenodd"/><path d="M2801.63 1947.9 2220.5 1355.5" stroke="#D74514" stroke-width="4.58333" stroke-miterlimit="8" stroke-dasharray="18.3333 13.75" fill="none" fill-rule="evenodd"/><path d="M4127.83 1947.72 2888.5 703.5" stroke="#D74514" stroke-width="4.58333" stroke-miterlimit="8" stroke-dasharray="18.3333 13.75" fill="none" fill-rule="evenodd"/><path d="M4126.19 1753.65 2977.5 608.5" stroke="#D74514" stroke-width="4.58333" stroke-miterlimit="8" stroke-dasharray="18.3333 13.75" fill="none" fill-rule="evenodd"/><path d="M4127.72 1564.03 3081.5 518.5" stroke="#D74514" stroke-width="4.58333" stroke-miterlimit="8" stroke-dasharray="18.3333 13.75" fill="none" fill-rule="evenodd"/><path d="M4124.88 1373.96 3181.5 428.5" stroke="#D74514" stroke-width="4.58333" stroke-miterlimit="8" stroke-dasharray="18.3333 13.75" fill="none" fill-rule="evenodd"/><path d="M4125.63 1180.87 3268.5 324.5" stroke="#D74514" stroke-width="4.58333" stroke-miterlimit="8" stroke-dasharray="18.3333 13.75" fill="none" fill-rule="evenodd"/><path d="M4124.67 994.129 3363.5 230.5" stroke="#D74514" stroke-width="4.58333" stroke-miterlimit="8" stroke-dasharray="18.3333 13.75" fill="none" fill-rule="evenodd"/><path d="M4123.72 799.776 3460.5 132.5" stroke="#D74514" stroke-width="4.58333" stroke-miterlimit="8" stroke-dasharray="18.3333 13.75" fill="none" fill-rule="evenodd"/><rect x="2797" y="805" width="190" height="189" stroke="#FDEFE8" stroke-width="13.75" stroke-miterlimit="8" fill="none"/><rect x="2987" y="805" width="190" height="189" stroke="#FDEFE8" stroke-width="13.75" stroke-miterlimit="8" fill="none"/><rect x="3177" y="805" width="190" height="189" stroke="#FDEFE8" stroke-width="13.75" stroke-miterlimit="8" fill="none"/><rect x="3367" y="805" width="189" height="189" stroke="#FDEFE8" stroke-width="13.75" stroke-miterlimit="8" fill="none"/><rect x="3556" y="805" width="190" height="189" stroke="#FDEFE8" stroke-width="13.75" stroke-miterlimit="8" fill="none"/><rect x="3746" y="805" width="190" height="189" stroke="#FDEFE8" stroke-width="13.75" stroke-miterlimit="8" fill="none"/><rect x="3936" y="805" width="190" height="189" stroke="#FDEFE8" stroke-width="13.75" stroke-miterlimit="8" fill="none"/><rect x="2797" y="994" width="190" height="190" stroke="#FDEFE8" stroke-width="13.75" stroke-miterlimit="8" fill="none"/><rect x="2987" y="994" width="190" height="190" stroke="#FDEFE8" stroke-width="13.75" stroke-miterlimit="8" fill="none"/><rect x="3177" y="994" width="190" height="190" stroke="#FDEFE8" stroke-width="13.75" stroke-miterlimit="8" fill="none"/><rect x="3367" y="994" width="189" height="190" stroke="#FDEFE8" stroke-width="13.75" stroke-miterlimit="8" fill="none"/><rect x="3556" y="994" width="190" height="190" stroke="#FDEFE8" stroke-width="13.75" stroke-miterlimit="8" fill="none"/><rect x="3746" y="994" width="190" height="190" stroke="#FDEFE8" stroke-width="13.75" stroke-miterlimit="8" fill="none"/><rect x="3936" y="994" width="190" height="190" stroke="#FDEFE8" stroke-width="13.75" stroke-miterlimit="8" fill="none"/><rect x="2797" y="1184" width="190" height="190" stroke="#FDEFE8" stroke-width="13.75" stroke-miterlimit="8" fill="none"/><rect x="2987" y="1184" width="190" height="190" stroke="#FDEFE8" stroke-width="13.75" stroke-miterlimit="8" fill="none"/><rect x="3177" y="1184" width="190" height="190" stroke="#FDEFE8" stroke-width="13.75" stroke-miterlimit="8" fill="none"/><rect x="3367" y="1184" width="189" height="190" stroke="#FDEFE8" stroke-width="13.75" stroke-miterlimit="8" fill="none"/><rect x="3556" y="1184" width="190" height="190" stroke="#FDEFE8" stroke-width="13.75" stroke-miterlimit="8" fill="none"/><rect x="3746" y="1184" width="190" height="190" stroke="#FDEFE8" stroke-width="13.75" stroke-miterlimit="8" fill="none"/><rect x="3936" y="1184" width="190" height="190" stroke="#FDEFE8" stroke-width="13.75" stroke-miterlimit="8" fill="none"/><rect x="2797" y="1374" width="190" height="190" stroke="#FDEFE8" stroke-width="13.75" stroke-miterlimit="8" fill="none"/><rect x="2987" y="1374" width="190" height="190" stroke="#FDEFE8" stroke-width="13.75" stroke-miterlimit="8" fill="none"/><rect x="3177" y="1374" width="190" height="190" stroke="#FDEFE8" stroke-width="13.75" stroke-miterlimit="8" fill="none"/><rect x="3367" y="1374" width="189" height="190" stroke="#FDEFE8" stroke-width="13.75" stroke-miterlimit="8" fill="none"/><rect x="3556" y="1374" width="190" height="190" stroke="#FDEFE8" stroke-width="13.75" stroke-miterlimit="8" fill="none"/><rect x="3746" y="1374" width="190" height="190" stroke="#FDEFE8" stroke-width="13.75" stroke-miterlimit="8" fill="none"/><rect x="3936" y="1374" width="190" height="190" stroke="#FDEFE8" stroke-width="13.75" stroke-miterlimit="8" fill="none"/><rect x="2797" y="1564" width="190" height="190" stroke="#FDEFE8" stroke-width="13.75" stroke-miterlimit="8" fill="none"/><rect x="2987" y="1564" width="190" height="190" stroke="#FDEFE8" stroke-width="13.75" stroke-miterlimit="8" fill="none"/><rect x="3177" y="1564" width="190" height="190" stroke="#FDEFE8" stroke-width="13.75" stroke-miterlimit="8" fill="none"/><rect x="3367" y="1564" width="189" height="190" stroke="#FDEFE8" stroke-width="13.75" stroke-miterlimit="8" fill="none"/><rect x="3556" y="1564" width="190" height="190" stroke="#FDEFE8" stroke-width="13.75" stroke-miterlimit="8" fill="none"/><rect x="3746" y="1564" width="190" height="190" stroke="#FDEFE8" stroke-width="13.75" stroke-miterlimit="8" fill="none"/><rect x="3936" y="1564" width="190" height="190" stroke="#FDEFE8" stroke-width="13.75" stroke-miterlimit="8" fill="none"/><rect x="2797" y="1754" width="190" height="190" stroke="#FDEFE8" stroke-width="13.75" stroke-miterlimit="8" fill="none"/><rect x="2987" y="1754" width="190" height="190" stroke="#FDEFE8" stroke-width="13.75" stroke-miterlimit="8" fill="none"/><rect x="3177" y="1754" width="190" height="190" stroke="#FDEFE8" stroke-width="13.75" stroke-miterlimit="8" fill="none"/><rect x="3367" y="1754" width="189" height="190" stroke="#FDEFE8" stroke-width="13.75" stroke-miterlimit="8" fill="none"/><rect x="3556" y="1754" width="190" height="190" stroke="#FDEFE8" stroke-width="13.75" stroke-miterlimit="8" fill="none"/><rect x="3746" y="1754" width="190" height="190" stroke="#FDEFE8" stroke-width="13.75" stroke-miterlimit="8" fill="none"/><rect x="3936" y="1754" width="190" height="190" stroke="#FDEFE8" stroke-width="13.75" stroke-miterlimit="8" fill="none"/><path d="M3181.86 800.139 3294.01 912.292 3284.29 922.015 3172.14 809.861ZM3308.6 887.985 3332.91 960.906 3259.99 936.599Z" fill="#0070C0"/><path d="M2991.88 989.161 3107.42 1105.73 3097.65 1115.41 2982.12 998.84ZM3122.11 1081.49 3146.09 1154.52 3073.28 1129.88Z" fill="#A3D8FF"/><path d="M3560.77 989.053 3678.06 1102.23 3668.52 1112.12 3551.23 998.948ZM3692.21 1077.66 3717.82 1150.14 3644.47 1127.14Z" fill="#A3D8FF"/><path d="M3940.86 1178.14 4057.55 1294.89 4047.83 1304.61 3931.14 1187.86ZM4072.14 1270.59 4096.43 1343.51 4023.52 1319.19Z" fill="#A3D8FF"/><path d="M2801.85 1179.13 3110.47 1486.31 3100.77 1496.05 2792.15 1188.87ZM3125 1461.97 3149.47 1534.83 3076.5 1510.69Z" fill="#A3D8FF"/><path d="M3371.85 1179.13 3678.02 1484.4 3668.31 1494.14 3362.15 1188.87ZM3692.57 1460.08 3716.98 1532.96 3644.02 1508.76Z" fill="#0070C0"/><path d="M3937.83 1556.11 4057.37 1674.24 4047.7 1684.02 3928.17 1565.89ZM4071.81 1649.85 4096.55 1722.62 4023.48 1698.75Z" fill="#0070C0"/><path d="M2801.86 1559.14 2947.92 1705.19 2938.19 1714.92 2792.14 1568.86ZM2962.5 1680.89 2986.81 1753.81 2913.89 1729.5Z" fill="#A3D8FF"/><path d="M3181.78 1749.06 3297.62 1861.34 3288.05 1871.21 3172.22 1758.94ZM3311.82 1836.81 3337.26 1909.34 3263.97 1886.17Z" fill="#A3D8FF"/><path d="M3371.84 1559.12 3489.5 1675.9 3479.81 1685.66 3362.16 1568.88ZM3503.99 1651.54 3528.57 1724.37 3455.56 1700.33Z" fill="#A3D8FF"/><text fill="#F8CCB9" font-family="JetBrains Mono,JetBrains Mono_MSFontService,sans-serif" font-weight="400" font-size="83" transform="matrix(1 0 0 1 2772.45 741)">0<tspan font-size="83" x="189.806" y="0">1</tspan><tspan font-size="83" x="379.612" y="0">2</tspan><tspan font-size="83" x="569.419" y="0">3</tspan><tspan font-size="83" x="759.225" y="0">4</tspan><tspan font-size="83" x="949.031" y="0">5</tspan><tspan font-size="83" x="1138.36" y="0">6</tspan><tspan font-size="83" x="1328.17" y="0">7</tspan><tspan font-size="83" x="-81.199" y="90">0</tspan><tspan font-size="83" x="-81.199" y="280">1</tspan><tspan font-size="83" x="-81.199" y="470">2</tspan><tspan font-size="83" x="-81.199" y="660">3</tspan><tspan font-size="83" x="-81.199" y="849">4</tspan><tspan font-size="83" x="-81.199" y="1039">5</tspan><tspan font-size="83" x="-81.1992" y="1229">6</tspan><tspan fill="#FDEFE8" font-size="83" x="1408.24" y="185">C</tspan><tspan fill="#FDEFE8" font-size="83" x="1408.24" y="375">B</tspan><tspan fill="#FDEFE8" font-size="83" x="1410" y="564">A</tspan><tspan fill="#FDEFE8" font-size="83" x="1408.24" y="754">B</tspan><tspan fill="#FDEFE8" font-size="83" x="1408.78" y="944">A</tspan><tspan fill="#FDEFE8" font-size="83" x="1408.24" y="1133">C</tspan><tspan fill="#FDEFE8" font-size="83" x="94.9028" y="1319">A</tspan><tspan fill="#FDEFE8" font-size="83" x="282.872" y="1319">B</tspan><tspan fill="#FDEFE8" font-size="83" x="474.514" y="1319">C</tspan><tspan fill="#FDEFE8" font-size="83" x="664.32" y="1319">A</tspan><tspan fill="#FDEFE8" font-size="83" x="854.125" y="1319">B</tspan><tspan fill="#FDEFE8" font-size="83" x="1042.09" y="1319">B</tspan><tspan fill="#FDEFE8" font-size="83" x="1233.74" y="1319">A</tspan></text><text fill="#D74514" font-family="JetBrains Mono,JetBrains Mono_MSFontService,sans-serif" font-weight="400" font-size="83" transform="matrix(0.703322 -0.710871 0.710871 0.703322 2636.94 905)">-<tspan font-size="83" x="49.2529" y="0.017746">1</tspan><tspan font-size="83" x="-128.782" y="-0.778534">-</tspan><tspan font-size="83" x="-79.5293" y="-0.760784">2</tspan><tspan font-size="83" x="-266.961" y="3.16357">-</tspan><tspan font-size="83" x="-217.708" y="3.18132">3</tspan><tspan font-size="83" x="-402.843" y="2.31848">-</tspan><tspan font-size="83" x="-353.59" y="2.33623">4</tspan><tspan font-size="83" x="-539.115" y="1.07874">-</tspan><tspan font-size="83" x="-489.151" y="0.393158">5</tspan><tspan font-size="83" x="-668.323" y="1.29199">-</tspan><tspan font-size="83" x="-619.07" y="1.30972">6</tspan><tspan font-size="83" x="297.993" y="2.60841">1</tspan><tspan font-size="83" x="431.51" y="3.90717">2</tspan><tspan font-size="83" x="565.027" y="5.20593">3</tspan><tspan font-size="83" x="698.544" y="6.50467">4</tspan><tspan font-size="83" x="832.061" y="7.80325">5</tspan><tspan font-size="83" x="965.579" y="9.10199">6</tspan><tspan font-size="83" x="1099.1" y="10.4004">7</tspan><tspan font-size="83" x="164.476" y="1.30984">0</tspan></text><path d="M0.174079-6.8728 70.9714-5.0796 70.6233 8.666-0.174079 6.8728ZM64.7949-32.7449 132.652 3.35991 63.0541 35.9831Z" fill="#FF0000" transform="matrix(1 0 0 -1 2807 807.36)"/><path d="M0.0522305-6.8748 129.423-5.89192 129.318 7.85768-0.0522305 6.8748ZM122.757-33.4434 191.244 1.45295 122.235 35.3047Z" fill="#FF0000" transform="matrix(1 0 0 -1 2985 804.453)"/><path d="M2991.88 805.965 2992.52 931.871 2978.77 931.942 2978.13 806.036ZM3019.99 924.855 2985.97 993.781 2951.24 925.209Z" fill="#C5FFDF"/><path d="M2803.88 802 2803.88 886.032 2790.13 886.032 2790.12 802ZM2831.38 879.156 2797 947.907 2762.63 879.157Z" fill="#C5FFDF"/><path d="M2802.88 991.965 2803.52 1117.87 2789.77 1117.94 2789.12 992.036ZM2830.99 1110.85 2796.97 1179.78 2762.24 1111.21Z" fill="#C5FFDF"/><path d="M2754 804.5C2754 779.923 2774.15 760 2799 760 2823.85 760 2844 779.923 2844 804.5 2844 829.077 2823.85 849 2799 849 2774.15 849 2754 829.077 2754 804.5Z" fill="#D74514" fill-rule="evenodd"/><text fill="#FFFFFF" font-family="JetBrains Mono,JetBrains Mono_MSFontService,sans-serif" font-weight="700" font-size="83" transform="matrix(1 0 0 1 2774.64 833)">0</text><path d="M2752 993C2752 968.147 2772.15 948 2797 948 2821.85 948 2842 968.147 2842 993 2842 1017.85 2821.85 1038 2797 1038 2772.15 1038 2752 1017.85 2752 993Z" fill="#F8CCB9" fill-rule="evenodd"/><text fill="#D74514" font-family="JetBrains Mono,JetBrains Mono_MSFontService,sans-serif" font-weight="400" font-size="83" transform="matrix(1 0 0 1 2772.39 1022)">1</text><path d="M2940 801C2940 776.147 2959.92 756 2984.5 756 3009.08 756 3029 776.147 3029 801 3029 825.853 3009.08 846 2984.5 846 2959.92 846 2940 825.853 2940 801Z" fill="#D74514" fill-rule="evenodd"/><text fill="#FFFFFF" font-family="JetBrains Mono,JetBrains Mono_MSFontService,sans-serif" font-weight="700" font-size="83" transform="matrix(1 0 0 1 2960.09 830)">1</text><path d="M3322 1939.5C3322 1914.92 3341.92 1895 3366.5 1895 3391.08 1895 3411 1914.92 3411 1939.5 3411 1964.08 3391.08 1984 3366.5 1984 3341.92 1984 3322 1964.08 3322 1939.5Z" fill="#F8CCB9" fill-rule="evenodd"/><text fill="#D74514" font-family="JetBrains Mono,JetBrains Mono_MSFontService,sans-serif" font-weight="400" font-size="83" transform="matrix(1 0 0 1 3341.6 1969)">3</text><path d="M3369 987.125 3496.93 987.125 3496.93 1000.88 3369 1000.88ZM3490.06 959.625 3558.81 994 3490.06 1028.38Z" fill="#FFCDCD"/><path d="M3746 1178.12 3873.93 1178.13 3873.93 1191.88 3746 1191.87ZM3867.06 1150.63 3935.81 1185 3867.06 1219.38Z" fill="#FFCDCD"/><path d="M3748 997 3936.48 1179.85" stroke="#A3D8FF" stroke-width="13.75" stroke-miterlimit="8" fill="none" fill-rule="evenodd"/><path d="M3746 1380 3934.48 1562.86" stroke="#E6E6E6" stroke-width="13.75" stroke-miterlimit="8" fill="none" fill-rule="evenodd"/><path d="M3748 1557.13 3875.93 1557.13 3875.93 1570.88 3748 1570.88ZM3869.06 1529.63 3937.81 1564 3869.06 1598.38Z" fill="#FF0000"/><path d="M3177 1556.12 3304.93 1556.13 3304.93 1569.88 3177 1569.88ZM3298.06 1528.63 3366.81 1563 3298.06 1597.38Z" fill="#FFCDCD"/><path d="M3374.88 994.965 3375.52 1120.87 3361.77 1120.94 3361.12 995.036ZM3402.99 1113.85 3368.97 1182.78 3334.24 1114.21Z" fill="#00B050"/><path d="M6.87452-0.0815776 7.83904 81.1983-5.90999 81.3614-6.87452 0.0815776ZM35.2555 73.9975 1.69872 143.15-33.4896 74.8132Z" fill="#C5FFDF" transform="matrix(-1 0 0 1 3748.7 1751)"/><path d="M3752.87 1554.95 3753.52 1651.28 3739.77 1651.37 3739.12 1555.05ZM3780.97 1644.22 3747.06 1713.2 3712.22 1644.68Z" fill="#C5FFDF"/><path d="M3563.88 1749 3563.88 1831.81 3550.13 1831.81 3550.13 1749ZM3591.38 1824.94 3557 1893.69 3522.63 1824.94Z" fill="#C5FFDF"/><path d="M4130.88 1748.95 4131.42 1830.13 4117.67 1830.22 4117.12 1749.05ZM4158.88 1823.07 4124.97 1892.05 4090.13 1823.54Z" fill="#00B050"/><path d="M3182.88 1567.96 3183.52 1693.87 3169.77 1693.94 3169.12 1568.04ZM3210.99 1686.85 3176.97 1755.78 3142.24 1687.21Z" fill="#C5FFDF"/><path d="M3323 994C3323 969.147 3342.92 949 3367.5 949 3392.08 949 3412 969.147 3412 994 3412 1018.85 3392.08 1039 3367.5 1039 3342.92 1039 3323 1018.85 3323 994Z" fill="#D74514" fill-rule="evenodd"/><text fill="#FFFFFF" font-family="JetBrains Mono,JetBrains Mono_MSFontService,sans-serif" font-weight="700" font-size="83" transform="matrix(1 0 0 1 3343.42 1023)">2</text><path d="M3132 1566C3132 1541.15 3152.15 1521 3177 1521 3201.85 1521 3222 1541.15 3222 1566 3222 1590.85 3201.85 1611 3177 1611 3152.15 1611 3132 1590.85 3132 1566Z" fill="#F8CCB9" fill-rule="evenodd"/><text fill="#D74514" font-family="JetBrains Mono,JetBrains Mono_MSFontService,sans-serif" font-weight="400" font-size="83" transform="matrix(1 0 0 1 3152.26 1595)">2</text><path d="M3130 1187.5C3130 1162.92 3149.92 1143 3174.5 1143 3199.08 1143 3219 1162.92 3219 1187.5 3219 1212.08 3199.08 1232 3174.5 1232 3149.92 1232 3130 1212.08 3130 1187.5Z" fill="#F8CCB9" fill-rule="evenodd"/><text fill="#D74514" font-family="JetBrains Mono,JetBrains Mono_MSFontService,sans-serif" font-weight="400" font-size="83" transform="matrix(1 0 0 1 3149.82 1216)">2</text><path d="M3510 1756C3510 1731.15 3529.92 1711 3554.5 1711 3579.08 1711 3599 1731.15 3599 1756 3599 1780.85 3579.08 1801 3554.5 1801 3529.92 1801 3510 1780.85 3510 1756Z" fill="#F8CCB9" fill-rule="evenodd"/><text fill="#D74514" font-family="JetBrains Mono,JetBrains Mono_MSFontService,sans-serif" font-weight="400" font-size="83" transform="matrix(1 0 0 1 3529.69 1785)">3</text><path d="M3705 1182.5C3705 1157.92 3724.92 1138 3749.5 1138 3774.08 1138 3794 1157.92 3794 1182.5 3794 1207.08 3774.08 1227 3749.5 1227 3724.92 1227 3705 1207.08 3705 1182.5Z" fill="#F8CCB9" fill-rule="evenodd"/><text fill="#D74514" font-family="JetBrains Mono,JetBrains Mono_MSFontService,sans-serif" font-weight="400" font-size="83" transform="matrix(1 0 0 1 3725.1 1211)">3</text><path d="M3703 1566C3703 1541.15 3722.92 1521 3747.5 1521 3772.08 1521 3792 1541.15 3792 1566 3792 1590.85 3772.08 1611 3747.5 1611 3722.92 1611 3703 1590.85 3703 1566Z" fill="#D74514" fill-rule="evenodd"/><text fill="#FFFFFF" font-family="JetBrains Mono,JetBrains Mono_MSFontService,sans-serif" font-weight="700" font-size="83" transform="matrix(1 0 0 1 3723.01 1595)">3</text><path d="M3703 1755C3703 1730.15 3722.92 1710 3747.5 1710 3772.08 1710 3792 1730.15 3792 1755 3792 1779.85 3772.08 1800 3747.5 1800 3722.92 1800 3703 1779.85 3703 1755Z" fill="#F8CCB9" fill-rule="evenodd"/><text fill="#D74514" font-family="JetBrains Mono,JetBrains Mono_MSFontService,sans-serif" font-weight="400" font-size="83" transform="matrix(1 0 0 1 3722.72 1784)">4</text><path d="M3511 1939.5C3511 1914.92 3531.15 1895 3556 1895 3580.85 1895 3601 1914.92 3601 1939.5 3601 1964.08 3580.85 1984 3556 1984 3531.15 1984 3511 1964.08 3511 1939.5Z" fill="#F8CCB9" fill-rule="evenodd"/><text fill="#D74514" font-family="JetBrains Mono,JetBrains Mono_MSFontService,sans-serif" font-weight="400" font-size="83" transform="matrix(1 0 0 1 3531.47 1968)">4</text><path d="M4083 1375C4083 1350.15 4102.92 1330 4127.5 1330 4152.08 1330 4172 1350.15 4172 1375 4172 1399.85 4152.08 1420 4127.5 1420 4102.92 1420 4083 1399.85 4083 1375Z" fill="#F8CCB9" fill-rule="evenodd"/><text fill="#D74514" font-family="JetBrains Mono,JetBrains Mono_MSFontService,sans-serif" font-weight="400" font-size="83" transform="matrix(1 0 0 1 4102.59 1404)">4</text><path d="M4083 1751.5C4083 1726.92 4102.92 1707 4127.5 1707 4152.08 1707 4172 1726.92 4172 1751.5 4172 1776.08 4152.08 1796 4127.5 1796 4102.92 1796 4083 1776.08 4083 1751.5Z" fill="#D74514" fill-rule="evenodd"/><text fill="#FFFFFF" font-family="JetBrains Mono,JetBrains Mono_MSFontService,sans-serif" font-weight="700" font-size="83" transform="matrix(1 0 0 1 4102.88 1780)">4</text><path d="M4079 1938.5C4079 1913.92 4099.15 1894 4124 1894 4148.85 1894 4169 1913.92 4169 1938.5 4169 1963.08 4148.85 1983 4124 1983 4099.15 1983 4079 1963.08 4079 1938.5Z" fill="#D74514" fill-rule="evenodd"/><text fill="#FFFFFF" font-family="JetBrains Mono,JetBrains Mono_MSFontService,sans-serif" font-weight="700" font-size="83" transform="matrix(1 0 0 1 4099.55 1967)">5</text><path d="M3701 1940.5C3701 1915.92 3720.92 1896 3745.5 1896 3770.08 1896 3790 1915.92 3790 1940.5 3790 1965.08 3770.08 1985 3745.5 1985 3720.92 1985 3701 1965.08 3701 1940.5Z" fill="#F8CCB9" fill-rule="evenodd"/><text fill="#D74514" font-family="JetBrains Mono,JetBrains Mono_MSFontService,sans-serif" font-weight="400" font-size="83" transform="matrix(1 0 0 1 3720.68 1970)">5</text></g></svg>