<svg width="1641" height="1492" xmlns="http://www.w3.org/2000/svg" xmlns:xlink="http://www.w3.org/1999/xlink" overflow="hidden"><defs><clipPath id="clip0"><rect x="1966" y="66" width="1641" height="1492"/></clipPath></defs><g clip-path="url(#clip0)" transform="translate(-1966 -66)"><rect x="2122" y="230" width="190" height="190" stroke="#FDEFE8" stroke-width="13.75" stroke-miterlimit="8" fill="none"/><rect x="2312" y="230" width="190" height="190" stroke="#FDEFE8" stroke-width="13.75" stroke-miterlimit="8" fill="none"/><rect x="2502" y="230" width="190" height="190" stroke="#FDEFE8" stroke-width="13.75" stroke-miterlimit="8" fill="none"/><rect x="2692" y="230" width="189" height="190" stroke="#FDEFE8" stroke-width="13.75" stroke-miterlimit="8" fill="none"/><rect x="2881" y="230" width="190" height="190" stroke="#FDEFE8" stroke-width="13.75" stroke-miterlimit="8" fill="none"/><rect x="3071" y="230" width="190" height="190" stroke="#FDEFE8" stroke-width="13.75" stroke-miterlimit="8" fill="none"/><rect x="3261" y="230" width="190" height="190" stroke="#FDEFE8" stroke-width="13.75" stroke-miterlimit="8" fill="none"/><rect x="2122" y="420" width="190" height="190" stroke="#FDEFE8" stroke-width="13.75" stroke-miterlimit="8" fill="none"/><rect x="2312" y="420" width="190" height="190" stroke="#FDEFE8" stroke-width="13.75" stroke-miterlimit="8" fill="none"/><rect x="2502" y="420" width="190" height="190" stroke="#FDEFE8" stroke-width="13.75" stroke-miterlimit="8" fill="none"/><rect x="2692" y="420" width="189" height="190" stroke="#FDEFE8" stroke-width="13.75" stroke-miterlimit="8" fill="none"/><rect x="2881" y="420" width="190" height="190" stroke="#FDEFE8" stroke-width="13.75" stroke-miterlimit="8" fill="none"/><rect x="3071" y="420" width="190" height="190" stroke="#FDEFE8" stroke-width="13.75" stroke-miterlimit="8" fill="none"/><rect x="3261" y="420" width="190" height="190" stroke="#FDEFE8" stroke-width="13.75" stroke-miterlimit="8" fill="none"/><rect x="2122" y="610" width="190" height="189" stroke="#FDEFE8" stroke-width="13.75" stroke-miterlimit="8" fill="none"/><rect x="2312" y="610" width="190" height="189" stroke="#FDEFE8" stroke-width="13.75" stroke-miterlimit="8" fill="none"/><rect x="2502" y="610" width="190" height="189" stroke="#FDEFE8" stroke-width="13.75" stroke-miterlimit="8" fill="none"/><rect x="2692" y="610" width="189" height="189" stroke="#FDEFE8" stroke-width="13.75" stroke-miterlimit="8" fill="none"/><rect x="2881" y="610" width="190" height="189" stroke="#FDEFE8" stroke-width="13.75" stroke-miterlimit="8" fill="none"/><rect x="3071" y="610" width="190" height="189" stroke="#FDEFE8" stroke-width="13.75" stroke-miterlimit="8" fill="none"/><rect x="3261" y="610" width="190" height="189" stroke="#FDEFE8" stroke-width="13.75" stroke-miterlimit="8" fill="none"/><rect x="2122" y="799" width="190" height="190" stroke="#FDEFE8" stroke-width="13.75" stroke-miterlimit="8" fill="none"/><rect x="2312" y="799" width="190" height="190" stroke="#FDEFE8" stroke-width="13.75" stroke-miterlimit="8" fill="none"/><rect x="2502" y="799" width="190" height="190" stroke="#FDEFE8" stroke-width="13.75" stroke-miterlimit="8" fill="none"/><rect x="2692" y="799" width="189" height="190" stroke="#FDEFE8" stroke-width="13.75" stroke-miterlimit="8" fill="none"/><rect x="2881" y="799" width="190" height="190" stroke="#FDEFE8" stroke-width="13.75" stroke-miterlimit="8" fill="none"/><rect x="3071" y="799" width="190" height="190" stroke="#FDEFE8" stroke-width="13.75" stroke-miterlimit="8" fill="none"/><rect x="3261" y="799" width="190" height="190" stroke="#FDEFE8" stroke-width="13.75" stroke-miterlimit="8" fill="none"/><rect x="2122" y="989" width="190" height="190" stroke="#FDEFE8" stroke-width="13.75" stroke-miterlimit="8" fill="none"/><rect x="2312" y="989" width="190" height="190" stroke="#FDEFE8" stroke-width="13.75" stroke-miterlimit="8" fill="none"/><rect x="2502" y="989" width="190" height="190" stroke="#FDEFE8" stroke-width="13.75" stroke-miterlimit="8" fill="none"/><rect x="2692" y="989" width="189" height="190" stroke="#FDEFE8" stroke-width="13.75" stroke-miterlimit="8" fill="none"/><rect x="2881" y="989" width="190" height="190" stroke="#FDEFE8" stroke-width="13.75" stroke-miterlimit="8" fill="none"/><rect x="3071" y="989" width="190" height="190" stroke="#FDEFE8" stroke-width="13.75" stroke-miterlimit="8" fill="none"/><rect x="3261" y="989" width="190" height="190" stroke="#FDEFE8" stroke-width="13.75" stroke-miterlimit="8" fill="none"/><rect x="2122" y="1179" width="190" height="190" stroke="#FDEFE8" stroke-width="13.75" stroke-miterlimit="8" fill="none"/><rect x="2312" y="1179" width="190" height="190" stroke="#FDEFE8" stroke-width="13.75" stroke-miterlimit="8" fill="none"/><rect x="2502" y="1179" width="190" height="190" stroke="#FDEFE8" stroke-width="13.75" stroke-miterlimit="8" fill="none"/><rect x="2692" y="1179" width="189" height="190" stroke="#FDEFE8" stroke-width="13.75" stroke-miterlimit="8" fill="none"/><rect x="2881" y="1179" width="190" height="190" stroke="#FDEFE8" stroke-width="13.75" stroke-miterlimit="8" fill="none"/><rect x="3071" y="1179" width="190" height="190" stroke="#FDEFE8" stroke-width="13.75" stroke-miterlimit="8" fill="none"/><rect x="3261" y="1179" width="190" height="190" stroke="#FDEFE8" stroke-width="13.75" stroke-miterlimit="8" fill="none"/><path d="M2502 230 2691.81 419.806" stroke="#FDEFE8" stroke-width="13.75" stroke-miterlimit="8" fill="none" fill-rule="evenodd"/><path d="M2312 420 2501.81 609.806" stroke="#FDEFE8" stroke-width="13.75" stroke-miterlimit="8" fill="none" fill-rule="evenodd"/><path d="M2881 420 3070.81 609.806" stroke="#FDEFE8" stroke-width="13.75" stroke-miterlimit="8" fill="none" fill-rule="evenodd"/><path d="M3071 420 3450.61 799.61" stroke="#FDEFE8" stroke-width="13.75" stroke-miterlimit="8" fill="none" fill-rule="evenodd"/><path d="M2122 610 2501.61 989.611" stroke="#FDEFE8" stroke-width="13.75" stroke-miterlimit="8" fill="none" fill-rule="evenodd"/><path d="M2692 610 3071.61 989.611" stroke="#FDEFE8" stroke-width="13.75" stroke-miterlimit="8" fill="none" fill-rule="evenodd"/><path d="M3071 799 3450.61 1178.61" stroke="#FDEFE8" stroke-width="13.75" stroke-miterlimit="8" fill="none" fill-rule="evenodd"/><path d="M2122 989 2311.81 1178.81" stroke="#FDEFE8" stroke-width="13.75" stroke-miterlimit="8" fill="none" fill-rule="evenodd"/><path d="M2502 1179 2691.81 1368.81" stroke="#FDEFE8" stroke-width="13.75" stroke-miterlimit="8" fill="none" fill-rule="evenodd"/><path d="M2692 989 2881.81 1178.81" stroke="#FDEFE8" stroke-width="13.75" stroke-miterlimit="8" fill="none" fill-rule="evenodd"/><text fill="#F8CCB9" font-family="JetBrains Mono,JetBrains Mono_MSFontService,sans-serif" font-weight="400" font-size="83" transform="matrix(1 0 0 1 2097.48 167)">0<tspan font-size="83" x="189.806" y="0">1</tspan><tspan font-size="83" x="379.612" y="0">2</tspan><tspan font-size="83" x="569.419" y="0">3</tspan><tspan font-size="83" x="759.225" y="0">4</tspan><tspan font-size="83" x="949.031" y="0">5</tspan><tspan font-size="83" x="1138.36" y="0">6</tspan><tspan font-size="83" x="1328.17" y="0">7</tspan><tspan font-size="83" x="-81.1989" y="89">0</tspan><tspan font-size="83" x="-81.1989" y="279">1</tspan><tspan font-size="83" x="-81.1989" y="469">2</tspan><tspan font-size="83" x="-81.1989" y="659">3</tspan><tspan font-size="83" x="-81.1989" y="849">4</tspan><tspan font-size="83" x="-81.1989" y="1038">5</tspan><tspan font-size="83" x="-81.1992" y="1228">6</tspan><tspan fill="#FDEFE8" font-size="83" x="1408.24" y="184">C</tspan><tspan fill="#FDEFE8" font-size="83" x="1408.24" y="374">B</tspan><tspan fill="#FDEFE8" font-size="83" x="1410" y="564">A</tspan><tspan fill="#FDEFE8" font-size="83" x="1408.24" y="753">B</tspan><tspan fill="#FDEFE8" font-size="83" x="1408.78" y="943">A</tspan><tspan fill="#FDEFE8" font-size="83" x="1408.24" y="1132">C</tspan><tspan fill="#FDEFE8" font-size="83" x="94.9028" y="1318">A</tspan><tspan fill="#FDEFE8" font-size="83" x="282.872" y="1318">B</tspan><tspan fill="#FDEFE8" font-size="83" x="474.514" y="1318">C</tspan><tspan fill="#FDEFE8" font-size="83" x="664.32" y="1318">A</tspan><tspan fill="#FDEFE8" font-size="83" x="854.125" y="1318">B</tspan><tspan fill="#FDEFE8" font-size="83" x="1042.09" y="1318">B</tspan><tspan fill="#FDEFE8" font-size="83" x="1233.74" y="1318">A</tspan></text><path d="M0 0 81.1979 0.000360892" stroke="#FF0000" stroke-width="22.9167" stroke-miterlimit="8" fill="none" fill-rule="evenodd" transform="matrix(-1 0 0 1 2258.7 233.5)"/><path d="M0 0 81.1979 0.000360892" stroke="#FF0000" stroke-width="22.9167" stroke-miterlimit="8" fill="none" fill-rule="evenodd" transform="matrix(-1 0 0 1 2447.7 233.5)"/><path d="M2652.05 379.462 2544.5 272.5" stroke="#0070C0" stroke-width="22.9167" stroke-miterlimit="8" fill="none" fill-rule="evenodd"/><path d="M0 0 81.1979 0.000360892" stroke="#FF0000" stroke-width="22.9167" stroke-miterlimit="8" fill="none" fill-rule="evenodd" transform="matrix(-1 0 0 1 2827.7 419.5)"/><path d="M3033.05 571.462 2925.5 464.5" stroke="#0070C0" stroke-width="22.9167" stroke-miterlimit="8" fill="none" fill-rule="evenodd"/><path d="M3071.5 684.5 3072.53 726.843" stroke="#00B050" stroke-width="22.9167" stroke-miterlimit="8" fill="none" fill-rule="evenodd"/><path d="M3221.05 949.462 3113.5 842.5" stroke="#0070C0" stroke-width="22.9167" stroke-miterlimit="8" fill="none" fill-rule="evenodd"/><path d="M3410.05 1139.46 3302.5 1032.5" stroke="#0070C0" stroke-width="22.9167" stroke-miterlimit="8" fill="none" fill-rule="evenodd"/><path d="M3451.5 1250.5 3451.5 1298.74" stroke="#00B050" stroke-width="22.9167" stroke-miterlimit="8" fill="none" fill-rule="evenodd"/><path d="M2068 179.167C2068 169.133 2076.13 161 2086.17 161L2158.83 161C2168.87 161 2177 169.133 2177 179.167L2177 285.833C2177 295.866 2168.87 304 2158.83 304L2086.17 304C2076.13 304 2068 295.866 2068 285.833Z" fill="#F8CCB9" fill-rule="evenodd"/><text fill="#D74514" font-family="JetBrains Mono,JetBrains Mono_MSFontService,sans-serif" font-weight="700" font-size="83" transform="matrix(1 0 0 1 2098 259)">0</text><path d="M2258 179C2258 169.059 2266.06 161 2276 161L2348 161C2357.94 161 2366 169.059 2366 179L2366 286C2366 295.941 2357.94 304 2348 304L2276 304C2266.06 304 2258 295.941 2258 286Z" fill="#F8CCB9" fill-rule="evenodd"/><text fill="#D74514" font-family="JetBrains Mono,JetBrains Mono_MSFontService,sans-serif" font-weight="700" font-size="83" transform="matrix(1 0 0 1 2287.81 259)">1</text><path d="M2448 179C2448 169.059 2456.06 161 2466 161L2538 161C2547.94 161 2556 169.059 2556 179L2556 286C2556 295.941 2547.94 304 2538 304L2466 304C2456.06 304 2448 295.941 2448 286Z" fill="#F8CCB9" fill-rule="evenodd"/><text fill="#D74514" font-family="JetBrains Mono,JetBrains Mono_MSFontService,sans-serif" font-weight="700" font-size="83" transform="matrix(1 0 0 1 2477.61 259)">2<tspan font-size="83" x="189.807" y="0">3</tspan><tspan font-size="83" x="379.613" y="0">4</tspan><tspan font-size="83" x="569.419" y="0">5</tspan><tspan font-size="83" x="758.75" y="0">6</tspan><tspan font-size="83" x="948.556" y="0">7</tspan><tspan font-size="83" x="-379.848" y="186">1</tspan><tspan font-size="83" x="-190.042" y="186">2</tspan><tspan font-size="83" x="-0.235596" y="186">3</tspan></text><path d="M2637 365.167C2637 355.133 2645.13 347 2655.17 347L2727.83 347C2737.87 347 2746 355.133 2746 365.167L2746 471.833C2746 481.866 2737.87 490 2727.83 490L2655.17 490C2645.13 490 2637 481.866 2637 471.833Z" fill="#F8CCB9" fill-rule="evenodd"/><text fill="#D74514" font-family="JetBrains Mono,JetBrains Mono_MSFontService,sans-serif" font-weight="700" font-size="83" transform="matrix(1 0 0 1 2667.19 445)">2</text><path d="M2827 365.167C2827 355.133 2835.13 347 2845.17 347L2917.83 347C2927.87 347 2936 355.133 2936 365.167L2936 471.833C2936 481.866 2927.87 490 2917.83 490L2845.17 490C2835.13 490 2827 481.866 2827 471.833Z" fill="#F8CCB9" fill-rule="evenodd"/><text fill="#D74514" font-family="JetBrains Mono,JetBrains Mono_MSFontService,sans-serif" font-weight="700" font-size="83" transform="matrix(1 0 0 1 2856.99 445)">3<tspan font-size="83" x="189.806" y="0">4</tspan><tspan font-size="83" x="379.137" y="0">5</tspan><tspan font-size="83" x="568.943" y="0">6</tspan><tspan font-size="83" x="-759.225" y="194">2</tspan><tspan font-size="83" x="-569.419" y="194">3</tspan><tspan font-size="83" x="-379.613" y="194">2</tspan><tspan font-size="83" x="-189.806" y="194">3</tspan><tspan font-size="83" x="0" y="194">4</tspan></text><path d="M3017 559C3017 549.059 3025.06 541 3035 541L3107 541C3116.94 541 3125 549.059 3125 559L3125 666C3125 675.941 3116.94 684 3107 684L3035 684C3025.06 684 3017 675.941 3017 666Z" fill="#F8CCB9" fill-rule="evenodd"/><text fill="#D74514" font-family="JetBrains Mono,JetBrains Mono_MSFontService,sans-serif" font-weight="700" font-size="83" transform="matrix(1 0 0 1 3046.8 639)">3<tspan font-size="83" x="189.331" y="0">4</tspan><tspan font-size="83" x="379.137" y="0">5</tspan><tspan font-size="83" x="-948.001" y="186">3</tspan><tspan font-size="83" x="-758.195" y="186">2</tspan><tspan font-size="83" x="-568.389" y="186">3</tspan><tspan font-size="83" x="-378.582" y="186">4</tspan><tspan font-size="83" x="-188.776" y="186">3</tspan></text><path d="M3018 745C3018 735.059 3026.06 727 3036 727L3108 727C3117.94 727 3126 735.059 3126 745L3126 852C3126 861.941 3117.94 870 3108 870L3036 870C3026.06 870 3018 861.941 3018 852Z" fill="#F8CCB9" fill-rule="evenodd"/><text fill="#D74514" font-family="JetBrains Mono,JetBrains Mono_MSFontService,sans-serif" font-weight="700" font-size="83" transform="matrix(1 0 0 1 3047.83 825)">4<tspan font-size="83" x="189.331" y="0">5</tspan><tspan font-size="83" x="379.137" y="0">4</tspan><tspan font-size="83" x="-949.825" y="191">4</tspan><tspan font-size="83" x="-760.019" y="191">3</tspan><tspan font-size="83" x="-570.213" y="191">2</tspan><tspan font-size="83" x="-380.406" y="191">3</tspan><tspan font-size="83" x="-190.6" y="191">4</tspan><tspan font-size="83" x="-0.79419" y="191">3</tspan></text><path d="M3206 935.167C3206 925.134 3214.13 917 3224.17 917L3296.83 917C3306.87 917 3315 925.134 3315 935.167L3315 1042.83C3315 1052.87 3306.87 1061 3296.83 1061L3224.17 1061C3214.13 1061 3206 1052.87 3206 1042.83Z" fill="#F8CCB9" fill-rule="evenodd"/><text fill="#D74514" font-family="JetBrains Mono,JetBrains Mono_MSFontService,sans-serif" font-weight="700" font-size="83" transform="matrix(1 0 0 1 3236.36 1016)">4<tspan font-size="83" x="189.806" y="0">5</tspan><tspan font-size="83" x="-1138.36" y="189">5</tspan><tspan font-size="83" x="-948.556" y="189">4</tspan><tspan font-size="83" x="-758.75" y="189">3</tspan><tspan font-size="83" x="-568.943" y="189">4</tspan><tspan font-size="83" x="-379.137" y="189">3</tspan><tspan font-size="83" x="-189.331" y="189">4</tspan><tspan font-size="83" x="0" y="189">5</tspan></text><path d="M3396 1125.17C3396 1115.13 3404.13 1107 3414.17 1107L3486.83 1107C3496.87 1107 3505 1115.13 3505 1125.17L3505 1231.83C3505 1241.87 3496.87 1250 3486.83 1250L3414.17 1250C3404.13 1250 3396 1241.87 3396 1231.83Z" fill="#F8CCB9" fill-rule="evenodd"/><text fill="#D74514" font-family="JetBrains Mono,JetBrains Mono_MSFontService,sans-serif" font-weight="700" font-size="83" transform="matrix(1 0 0 1 3426.17 1205)">4<tspan font-size="83" x="-1328.17" y="192">6</tspan><tspan font-size="83" x="-1138.36" y="192">5</tspan><tspan font-size="83" x="-948.556" y="192">4</tspan><tspan font-size="83" x="-758.749" y="192">3</tspan><tspan font-size="83" x="-568.943" y="192">4</tspan><tspan font-size="83" x="-379.137" y="192">5</tspan><tspan font-size="83" x="-189.806" y="192">6</tspan></text><path d="M3396 1317.17C3396 1307.13 3404.13 1299 3414.17 1299L3486.83 1299C3496.87 1299 3505 1307.13 3505 1317.17L3505 1423.83C3505 1433.87 3496.87 1442 3486.83 1442L3414.17 1442C3404.13 1442 3396 1433.87 3396 1423.83Z" fill="#F8CCB9" fill-rule="evenodd"/><text fill="#D74514" font-family="JetBrains Mono,JetBrains Mono_MSFontService,sans-serif" font-weight="700" font-size="83" transform="matrix(1 0 0 1 3426.17 1397)">5</text></g></svg>