<svg width="1735" height="966" xmlns="http://www.w3.org/2000/svg" xmlns:xlink="http://www.w3.org/1999/xlink" overflow="hidden"><defs><clipPath id="clip0"><rect x="2266" y="756" width="1735" height="966"/></clipPath></defs><g clip-path="url(#clip0)" transform="translate(-2266 -756)"><rect x="2622" y="1527" width="1379" height="192" fill="#5D1709"/><text fill="#FFFFFF" font-family="Microsoft YaHei,Microsoft YaHei_MSFontService,sans-serif" font-weight="400" font-size="83" transform="matrix(1 0 0 1 2710.31 1652)">宿主机<tspan font-size="83" x="272.136" y="0">kernel</tspan><tspan font-size="83" x="515.052" y="0">（</tspan>lxc/aufs/btrfs<tspan font-size="83" x="1119.48" y="0">）</tspan><tspan fill="#5D1709" font-weight="700" font-size="83" x="-393.916" y="0">bootfs</tspan></text><rect x="2622" y="1334" width="654" height="193" fill="#F0835C"/><text fill="#FFFFFF" font-family="Microsoft YaHei,Microsoft YaHei_MSFontService,sans-serif" font-weight="400" font-size="83" transform="matrix(1 0 0 1 2829.04 1460)">alpine<tspan fill="#5D1709" font-weight="700" font-size="83" x="-492.588" y="0">rootfs</tspan></text><rect x="3346" y="1334" width="655" height="193" fill="#F0835C"/><text fill="#FFFFFF" font-family="Microsoft YaHei,Microsoft YaHei_MSFontService,sans-serif" font-weight="400" font-size="83" transform="matrix(1 0 0 1 3532.89 1460)">Debian</text><rect x="2622" y="938" width="654" height="396" fill="#FDEFE8"/><text fill="#5D1709" font-family="Microsoft YaHei,Microsoft YaHei_MSFontService,sans-serif" font-weight="400" font-size="83" transform="matrix(1 0 0 1 2807.27 1166)">apache</text><rect x="3346" y="1141" width="655" height="193" fill="#FDEFE8"/><text fill="#5D1709" font-family="Microsoft YaHei,Microsoft YaHei_MSFontService,sans-serif" font-weight="400" font-size="83" transform="matrix(1 0 0 1 3566.7 1267)">Redis</text><rect x="3346" y="948" width="655" height="193" fill="#F8CCB9"/><text fill="#5D1709" font-family="Microsoft YaHei,Microsoft YaHei_MSFontService,sans-serif" font-weight="400" font-size="83" transform="matrix(1 0 0 1 3532.89 1074)">MySQL</text><rect x="2622" y="756" width="654" height="192" fill="#D74514"/><text fill="#FFFFFF" font-family="Microsoft YaHei,Microsoft YaHei_MSFontService,sans-serif" font-weight="400" font-size="83" transform="matrix(1 0 0 1 2866.56 882)">容器</text><rect x="3346" y="756" width="655" height="192" fill="#D74514"/><text fill="#FFFFFF" font-family="Microsoft YaHei,Microsoft YaHei_MSFontService,sans-serif" font-weight="400" font-size="83" transform="matrix(1 0 0 1 3591.04 882)">容器<tspan fill="#5D1709" font-weight="700" font-size="83" x="-1167.51" y="289">镜像</tspan><tspan fill="#5D1709" font-weight="700" font-size="83" x="-1167.51" y="-3">容器</tspan></text></g></svg>