<svg xmlns="http://www.w3.org/2000/svg" width="2875" height="2362" overflow="hidden"><defs><clipPath id="a"><path d="M826 287h2875v2362H826z"/></clipPath></defs><g clip-path="url(#a)" transform="translate(-826 -287)"><path fill="#f8ccb9" d="M826 287h2115v449H826z"/><path fill="#f0835c" d="M879 456h2010v216H879z"/><text fill="#fff" font-family="Microsoft YaHei,Microsoft YaHei_MSFontService,sans-serif" font-size="83" font-weight="400" transform="translate(1671.19 593)">Docker CLI<tspan x="-758.897" y="-192" fill="#5d1709" font-weight="700">Docker Client</tspan></text><path fill="#f8ccb9" d="M826 920h2115v990H826z"/><path fill="#f0835c" d="M879 1087h2010v216H879z"/><text fill="#fff" font-family="Microsoft YaHei,Microsoft YaHei_MSFontService,sans-serif" font-size="83" font-weight="400" transform="translate(1681.78 1225)">API Server<tspan x="-770.374" y="-187" fill="#5d1709" font-weight="700">Docker Daemon</tspan></text><path fill="#d74514" d="M878 1329h651v279H878z"/><text fill="#fff" font-family="Microsoft YaHei,Microsoft YaHei_MSFontService,sans-serif" font-size="83" font-weight="400" transform="translate(1080.4 1448)">Image<tspan x="-53.854" y="99">Manager</tspan></text><path fill="#d74514" d="M1558 1329h651v279h-651z"/><text fill="#fff" font-family="Microsoft YaHei,Microsoft YaHei_MSFontService,sans-serif" font-size="83" font-weight="400" transform="translate(1690.07 1448)">Container<tspan x="16.042" y="99">Manager</tspan></text><path fill="#d74514" d="M2238 1329h650v279h-650z"/><text fill="#fff" font-family="Microsoft YaHei,Microsoft YaHei_MSFontService,sans-serif" font-size="83" font-weight="400" transform="translate(2410.32 1448)">Volume<tspan x="-24.635" y="99">Manager</tspan></text><path fill="#d74514" d="M878 1633h990v218H878z"/><text fill="#fff" font-family="Microsoft YaHei,Microsoft YaHei_MSFontService,sans-serif" font-size="83" font-weight="400" transform="translate(1013.75 1771)">Network Manager</text><path fill="#d74514" d="M1899 1633h989v218h-989z"/><text fill="#fff" font-family="Microsoft YaHei,Microsoft YaHei_MSFontService,sans-serif" font-size="83" font-weight="400" transform="translate(2079.94 1771)">Plugin Manager</text><path fill="#f8ccb9" d="M826 2019h2115v260H826z"/><text fill="#5d1709" font-family="Microsoft YaHei,Microsoft YaHei_MSFontService,sans-serif" font-size="83" font-weight="700" transform="translate(1659.42 2179)">containerd</text><path fill="#f8ccb9" d="M826 2389h2115v260H826z"/><text fill="#5d1709" font-family="Microsoft YaHei,Microsoft YaHei_MSFontService,sans-serif" font-size="83" font-weight="700" transform="translate(1791.48 2548)">runc</text><path fill="#a32d0f" d="M3220 920h481v990h-481z"/><text fill="#fff" font-family="Microsoft YaHei,Microsoft YaHei_MSFontService,sans-serif" font-size="83" font-weight="700" transform="translate(3313.48 1386)">Docker<tspan x="-24.337" y="149">Registry</tspan></text><path fill="#5d1709" d="M1889.08 672.5v374.41h-9.16V672.5Zm18.34 369.83-22.92 45.83-22.92-45.83Zm-19.34 868.17v68.35h-9.16v-68.35Zm18.34 63.76-22.92 45.84-22.92-45.84Zm-18.34 305.24v68.35h-9.16v-68.35Zm18.34 63.76-22.92 45.84-22.92-45.84Z"/><text fill="#5d1709" font-family="Microsoft YaHei,Microsoft YaHei_MSFontService,sans-serif" font-size="83" font-weight="400" transform="translate(1932.33 857)">REST API</text><path fill="#5d1709" d="M3180.02 1410.917h-36.667v9.166h36.667Zm-64.167 0h-36.666v9.167h36.666Zm-64.166 0h-36.667v9.167h36.667Zm-64.167 0h-4.774v9.167h4.774Zm187.917 27.5 45.833-22.917-45.833-22.917Zm-188.107-45.833-45.834 22.916 45.834 22.917Z"/></g></svg>