<svg width="1839" height="1568" xmlns="http://www.w3.org/2000/svg" xmlns:xlink="http://www.w3.org/1999/xlink" overflow="hidden"><defs><clipPath id="clip0"><rect x="212" y="361" width="1839" height="1568"/></clipPath></defs><g clip-path="url(#clip0)" transform="translate(-212 -361)"><rect x="667" y="871" width="929" height="872" fill="#F8CCB9"/><rect x="720" y="928" width="833" height="216" fill="#F0835C"/><text fill="#FFFFFF" font-family="JetBrains Mono,JetBrains Mono_MSFontService,sans-serif" font-weight="400" font-size="83" transform="matrix(1 0 0 1 841.135 1062)">fa5ada0f58a4</text><rect x="720" y="1149" width="833" height="216" fill="#F0835C"/><text fill="#FFFFFF" font-family="JetBrains Mono,JetBrains Mono_MSFontService,sans-serif" font-weight="400" font-size="83" transform="matrix(1 0 0 1 841.135 1284)">b25a59ce3006</text><rect x="720" y="1371" width="833" height="216" fill="#F0835C"/><text fill="#FFFFFF" font-family="JetBrains Mono,JetBrains Mono_MSFontService,sans-serif" font-weight="400" font-size="83" transform="matrix(1 0 0 1 841.135 1506)">cea2ff433c61<tspan fill="#5D1709" font-size="83" x="-24.6352" y="180">alpine</tspan><tspan fill="#5D1709" font-size="83" x="270.99" y="180">-</tspan><tspan fill="#5D1709" font-size="83" x="320.261" y="180">3.22.0</tspan><tspan fill="#5D1709" font-family="Microsoft YaHei,Microsoft YaHei_MSFontService,sans-serif" font-weight="700" font-size="83" x="-21.8807" y="353">myapp:1.2 </tspan><tspan fill="#5D1709" font-family="Microsoft YaHei,Microsoft YaHei_MSFontService,sans-serif" font-weight="700" font-size="83" x="437.598" y="353">镜像</tspan></text><rect x="212" y="513" width="600" height="220" fill="#D74514"/><text fill="#FFFFFF" font-family="Microsoft YaHei,Microsoft YaHei_MSFontService,sans-serif" font-weight="400" font-size="83" transform="matrix(1 0 0 1 387.938 653)">可写层<tspan fill="#5D1709" font-weight="700" font-size="83" x="15.7551" y="-187">容器</tspan><tspan fill="#5D1709" font-weight="700" font-size="83" x="180.755" y="-187">1</tspan></text><rect x="831" y="512" width="601" height="220" fill="#D74514"/><text fill="#FFFFFF" font-family="Microsoft YaHei,Microsoft YaHei_MSFontService,sans-serif" font-weight="400" font-size="83" transform="matrix(1 0 0 1 1007.74 652)">可写层<tspan fill="#5D1709" font-weight="700" font-size="83" x="15.7551" y="-187">容器</tspan><tspan fill="#5D1709" font-weight="700" font-size="83" x="180.755" y="-187">2</tspan></text><rect x="1451" y="512" width="600" height="220" fill="#D74514"/><text fill="#FFFFFF" font-family="Microsoft YaHei,Microsoft YaHei_MSFontService,sans-serif" font-weight="400" font-size="83" transform="matrix(1 0 0 1 1627.55 652)">可写层<tspan fill="#5D1709" font-weight="700" font-size="83" x="15.7551" y="-187">容器</tspan><tspan fill="#5D1709" font-weight="700" font-size="83" x="180.755" y="-187">3</tspan></text><path d="M515.538 730.068 639.986 840.205 633.911 847.07 509.463 736.932ZM648.704 823.439 667.839 870.975 618.329 857.761Z" fill="#5D1709"/><path d="M3.04867-3.42236 127.586 107.517 121.489 114.362-3.04867 3.42236ZM136.359 90.7792 155.339 138.378 105.872 125.003Z" fill="#5D1709" transform="matrix(-1 0 0 1 1751.84 732.5)"/><path d="M1136.08 732.5 1136.08 830.53 1126.92 830.53 1126.92 732.5ZM1154.42 825.947 1131.5 871.78 1108.58 825.947Z" fill="#5D1709"/></g></svg>