<svg xmlns="http://www.w3.org/2000/svg" width="2939" height="1058" overflow="hidden"><defs><clipPath id="a"><path d="M495 1351h2939v1058H495z"/></clipPath></defs><g clip-path="url(#a)" transform="translate(-495 -1351)"><path fill="#f8ccb9" d="M2505 1351h929v873h-929z"/><path fill="#d74514" d="M2558 1408h833v216h-833z"/><text fill="#fff" font-family="JetBrains Mono,JetBrains Mono_MSFontService,sans-serif" font-size="83" font-weight="400" transform="translate(2678.77 1542)">fa5ada0f58a4</text><path fill="#f0835c" d="M2558 1629h833v216h-833z"/><text fill="#fff" font-family="JetBrains Mono,JetBrains Mono_MSFontService,sans-serif" font-size="83" font-weight="400" transform="translate(2678.77 1764)">b25a59ce3006</text><path fill="#f0835c" d="M2558 1851h833v216h-833z"/><text fill="#fff" font-family="JetBrains Mono,JetBrains Mono_MSFontService,sans-serif" font-size="83" font-weight="400" transform="translate(2678.77 1986)">cea2ff433c61<tspan x="-24.635" y="180" fill="#5d1709">alpine</tspan><tspan x="270.99" y="180" fill="#5d1709">-</tspan><tspan x="320.261" y="180" fill="#5d1709">3.22.0</tspan><tspan x="-21.881" y="353" fill="#5d1709" font-family="Microsoft YaHei,Microsoft YaHei_MSFontService,sans-serif" font-weight="700">myapp:1.2 </tspan><tspan x="437.598" y="353" fill="#5d1709" font-family="Microsoft YaHei,Microsoft YaHei_MSFontService,sans-serif" font-weight="700">镜像</tspan></text><path fill="#f8ccb9" d="M1500 1351h929v873h-929z"/><path fill="#d74514" d="M1553 1629h833v216h-833z"/><text fill="#fff" font-family="JetBrains Mono,JetBrains Mono_MSFontService,sans-serif" font-size="83" font-weight="400" transform="translate(1674.1 1764)">b25a59ce3006</text><path fill="#f0835c" d="M1553 1851h833v216h-833z"/><text fill="#fff" font-family="JetBrains Mono,JetBrains Mono_MSFontService,sans-serif" font-size="83" font-weight="400" transform="translate(1674.1 1986)">cea2ff433c61<tspan x="-24.635" y="180" fill="#5d1709">alpine</tspan><tspan x="270.99" y="180" fill="#5d1709">-</tspan><tspan x="320.261" y="180" fill="#5d1709">3.22.0</tspan><tspan x="-21.881" y="353" fill="#5d1709" font-family="Microsoft YaHei,Microsoft YaHei_MSFontService,sans-serif" font-weight="700">myapp:1.1 </tspan><tspan x="437.599" y="353" fill="#5d1709" font-family="Microsoft YaHei,Microsoft YaHei_MSFontService,sans-serif" font-weight="700">镜像</tspan></text><path fill="#f8ccb9" d="M495 1351h929v873H495z"/><path fill="#d74514" d="M548 1851h834v216H548z"/><text fill="#fff" font-family="JetBrains Mono,JetBrains Mono_MSFontService,sans-serif" font-size="83" font-weight="400" transform="translate(669.437 1986)">cea2ff433c61<tspan x="-24.635" y="180" fill="#5d1709">alpine</tspan><tspan x="270.99" y="180" fill="#5d1709">-</tspan><tspan x="320.261" y="180" fill="#5d1709">3.22.0</tspan><tspan x="-21.881" y="353" fill="#5d1709" font-family="Microsoft YaHei,Microsoft YaHei_MSFontService,sans-serif" font-weight="700">myapp:1.0 </tspan><tspan x="437.598" y="353" fill="#5d1709" font-family="Microsoft YaHei,Microsoft YaHei_MSFontService,sans-serif" font-weight="700">镜像</tspan></text></g></svg>