<svg width="1493" height="890" xmlns="http://www.w3.org/2000/svg" xmlns:xlink="http://www.w3.org/1999/xlink" overflow="hidden"><defs><clipPath id="clip0"><rect x="281" y="1197" width="1493" height="890"/></clipPath></defs><g clip-path="url(#clip0)" transform="translate(-281 -1197)"><path d="M788.943 1723.41C745.875 1573.89 928.851 1389.92 1197.63 1312.5 1466.41 1235.08 1719.22 1293.52 1762.28 1443.04 1805.35 1592.56 1622.38 1776.53 1353.6 1853.95 1084.81 1931.37 832.011 1872.93 788.943 1723.41Z" stroke="#000000" stroke-width="9.16667" stroke-miterlimit="8" fill="none" fill-rule="evenodd"/><path d="M908.959 1688.84C876.512 1576.19 1014.36 1437.59 1216.86 1379.26 1419.36 1320.93 1609.82 1364.96 1642.27 1477.61 1674.72 1590.25 1536.86 1728.86 1334.36 1787.19 1131.87 1845.52 941.406 1801.48 908.959 1688.84Z" stroke="#000000" stroke-width="9.16667" stroke-miterlimit="8" stroke-dasharray="27.5 9.16667" fill="none" fill-rule="evenodd"/><path d="M1041.12 1650.91C1020.37 1578.85 1108.54 1490.2 1238.07 1452.89 1367.6 1415.58 1489.42 1443.74 1510.18 1515.8 1530.93 1587.85 1442.76 1676.5 1313.23 1713.81 1183.7 1751.12 1061.88 1722.96 1041.12 1650.91Z" stroke="#000000" stroke-width="9.16667" stroke-miterlimit="8" stroke-dasharray="27.5 9.16667" fill="none" fill-rule="evenodd"/><path d="M1256.78 1588.2C1253.71 1577.56 1259.85 1566.45 1270.49 1563.38 1281.14 1560.32 1292.25 1566.46 1295.31 1577.1 1298.38 1587.74 1292.24 1598.86 1281.6 1601.92 1270.95 1604.99 1259.84 1598.85 1256.78 1588.2Z" fill="#D74514" fill-rule="evenodd"/><path d="M1020.5 1201.5C881.748 1270.06 843.906 1347.09 795.744 1408.63 747.582 1470.18 732.675 1515.67 731.528 1570.78 730.381 1625.9 764.783 1689.38 788.864 1739.32 812.945 1789.26 858.049 1829.88 876.014 1870.42 893.979 1910.95 908.122 1933.63 896.655 1982.56 885.188 2031.48 877.161 2028.78 830.146 2083.5" stroke="#000000" stroke-width="9.16667" stroke-miterlimit="8" fill="none" fill-rule="evenodd"/><path d="M1.44654-4.34908 424.132 136.24 421.239 144.938-1.44654 4.34908ZM425.569 117.397 461.827 153.608 411.103 160.888Z" fill="#D74514" transform="matrix(-1 0 0 1 789.327 1739.5)"/><path d="M349.938 1977.39 361.124 2012.97 374.741 1977.39ZM334.984 1968.31 383.981 1968.31 383.981 1971.31 362.785 2023.99 352.41 2023.99 334.984 1971.23Z" fill="#D74514" fill-rule="evenodd"/><text fill="#000000" fill-opacity="0" font-family="Arial,Arial_MSFontService,sans-serif" font-size="55.6846" x="334.984" y="2017.03">𝛁</text><path d="M424.132 1965.43C426.833 1965.43 429.373 1965.67 431.751 1966.16L429.927 1974.27 424.699 1974.27C424.591 1972.59 424.321 1971.4 423.888 1970.7 423.456 1970 422.781 1969.64 421.862 1969.64 420.781 1969.64 419.903 1970.02 419.228 1970.78 418.552 1971.54 417.985 1972.56 417.526 1973.86 417.066 1975.16 416.607 1976.86 416.148 1978.97L415.134 1983.42 423.807 1983.42 422.713 1988.49 414 1988.49 406.664 2022.37C405.232 2028.94 402.922 2033.81 399.734 2036.98 396.546 2040.16 392.561 2041.74 387.779 2041.74 386.617 2041.74 385.685 2041.68 384.982 2041.54L385.955 2037C386.495 2037.08 386.981 2037.12 387.414 2037.12 388.954 2037.12 390.23 2036.27 391.244 2034.57 392.257 2032.87 393.155 2030.31 393.939 2026.91L402.612 1988.49 396.492 1988.49 397.221 1985.21C399.086 1985.18 400.403 1985.05 401.173 1984.8 401.943 1984.56 402.578 1984.11 403.078 1983.46 403.577 1982.82 404.057 1981.61 404.516 1979.86 405.192 1977.29 406.043 1975.16 407.07 1973.47 408.096 1971.79 409.434 1970.31 411.082 1969.06 412.73 1967.8 414.655 1966.88 416.857 1966.3 419.059 1965.72 421.484 1965.43 424.132 1965.43Z" fill="#D74514" fill-rule="evenodd"/><text fill="#000000" fill-opacity="0" font-family="Arial,Arial_MSFontService,sans-serif" font-size="76.313" x="384.982" y="2032.2">𝒇</text><path d="M452.429 1999.34 456.241 1999.34C456.122 2001.24 456.063 2003.89 456.063 2007.26L456.063 2032.16C456.063 2033.31 456.127 2034.18 456.256 2034.77 456.385 2035.35 456.614 2035.83 456.941 2036.2 457.269 2036.56 457.741 2036.85 458.356 2037.06 458.972 2037.27 459.746 2037.43 460.679 2037.54 461.613 2037.65 462.844 2037.72 464.373 2037.76L464.373 2040.47 438.668 2040.47 438.668 2037.76C440.872 2037.66 442.446 2037.53 443.389 2037.36 444.332 2037.19 445.052 2036.94 445.549 2036.6 446.045 2036.26 446.407 2035.78 446.636 2035.17 446.864 2034.55 446.978 2033.55 446.978 2032.16L446.978 2010.63C446.978 2009.81 446.824 2009.23 446.517 2008.87 446.209 2008.51 445.787 2008.33 445.251 2008.33 444.754 2008.33 444.054 2008.56 443.151 2009.02 442.247 2009.47 440.763 2010.41 438.698 2011.82L436.881 2008.66Z" fill="#D74514" fill-rule="evenodd"/><text fill="#000000" fill-opacity="0" font-family="Arial,Arial_MSFontService,sans-serif" font-size="41.1333" x="436.881" y="2035.33">𝟏</text><path d="M588.562 1961.51C596.451 1963.59 602.51 1968.09 606.738 1974.99 610.967 1981.89 613.081 1990.22 613.081 1999.97 613.081 2009.75 610.973 2018.08 606.759 2024.96 602.544 2031.83 596.478 2036.31 588.562 2038.39L587.589 2035.27C593.83 2033.19 598.471 2029.09 601.51 2022.95 604.55 2016.82 606.07 2009.02 606.07 1999.57 606.07 1990.44 604.557 1982.85 601.531 1976.81 598.505 1970.77 593.817 1966.71 587.468 1964.63ZM503.319 1961.51 504.413 1964.63C498.091 1966.71 493.41 1970.77 490.37 1976.81 487.331 1982.85 485.811 1990.44 485.811 1999.57 485.811 2009.02 487.331 2016.82 490.37 2022.95 493.41 2029.09 498.05 2033.19 504.291 2035.27L503.319 2038.39C495.402 2036.31 489.337 2031.83 485.122 2024.96 480.907 2018.08 478.799 2009.75 478.799 1999.97 478.799 1990.22 480.914 1981.89 485.142 1974.99 489.37 1968.09 495.429 1963.59 503.319 1961.51Z" fill="#D74514" fill-rule="evenodd"/><path d="M524.425 1982.78C526.587 1982.78 528.235 1983.1 529.37 1983.75 530.504 1984.4 531.436 1985.52 532.166 1987.13 532.895 1988.74 533.584 1991.31 534.233 1994.85L534.638 1994.85C536.637 1992.04 538.191 1989.93 539.299 1988.51 540.406 1987.09 541.433 1985.96 542.379 1985.11 543.324 1984.26 544.243 1983.65 545.135 1983.3 546.026 1982.95 547.08 1982.78 548.296 1982.78 549.647 1982.78 551.011 1983.02 552.389 1983.51L550.484 1992.26 546.837 1992.26C546.702 1991.12 546.202 1990.56 545.337 1990.56 544.959 1990.56 544.561 1990.65 544.142 1990.84 543.723 1991.03 543.169 1991.46 542.48 1992.12 541.791 1992.78 540.933 1993.74 539.907 1994.99 538.88 1996.25 537.34 1998.16 535.287 2000.73 536.232 2006.43 537.009 2010.52 537.617 2012.99 538.225 2015.46 538.853 2017.06 539.501 2017.79 539.88 2018.2 540.339 2018.4 540.879 2018.4 541.555 2018.4 542.183 2018.14 542.764 2017.61 543.345 2017.08 544.094 2015.9 545.013 2014.06L548.701 2015.77C547.134 2018.63 545.358 2020.76 543.372 2022.17 541.386 2023.57 539.056 2024.28 536.381 2024.28 534.733 2024.28 533.416 2024.07 532.429 2023.65 531.443 2023.23 530.606 2022.53 529.917 2021.56 529.228 2020.59 528.62 2019.22 528.093 2017.45 527.566 2015.68 527.073 2013.36 526.614 2010.5L526.208 2010.5C523.912 2013.79 522.075 2016.31 520.697 2018.03 519.319 2019.76 518.137 2021.06 517.151 2021.93 516.164 2022.79 515.219 2023.4 514.314 2023.75 513.409 2024.1 512.321 2024.28 511.051 2024.28 510.457 2024.28 509.734 2024.2 508.883 2024.05 508.032 2023.9 507.39 2023.75 506.958 2023.59L508.863 2014.79 512.51 2014.79C512.537 2015.36 512.679 2015.79 512.936 2016.07 513.192 2016.35 513.523 2016.49 513.929 2016.49 514.415 2016.49 514.868 2016.39 515.286 2016.19 515.705 2015.99 516.286 2015.54 517.029 2014.83 517.772 2014.13 518.711 2013.1 519.846 2011.73 520.98 2010.37 522.899 2007.97 525.601 2004.54 525.033 2001.35 524.5 1998.6 524 1996.29 523.5 1993.98 523.047 1992.31 522.642 1991.27 522.237 1990.23 521.852 1989.53 521.487 1989.18 521.122 1988.83 520.71 1988.65 520.251 1988.65 519.711 1988.65 519.238 1988.79 518.832 1989.08 518.427 1989.36 518.002 1989.82 517.556 1990.46 517.11 1991.09 516.63 1991.93 516.117 1992.99L512.429 1991.29C513.996 1988.42 515.759 1986.29 517.718 1984.88 519.677 1983.48 521.913 1982.78 524.425 1982.78Z" fill="#D74514" fill-rule="evenodd"/><text fill="#000000" fill-opacity="0" font-family="Arial,Arial_MSFontService,sans-serif" font-size="41.5" x="506.958" y="2019.09">𝒙</text><path d="M566.072 1964.74 570.004 1964.74 569.14 1974.06 576.795 1968.67 578.731 1972.01 570.242 1975.97 578.731 1979.96 576.795 1983.27 569.14 1977.88 570.004 1987.2 566.072 1987.2 566.966 1977.88 559.281 1983.27 557.315 1979.96 565.834 1975.97 557.315 1972.01 559.281 1968.67 566.966 1974.06Z" fill="#D74514" fill-rule="evenodd"/><text fill="#000000" fill-opacity="0" font-family="Arial,Arial_MSFontService,sans-serif" font-size="22.458" x="557.315" y="1984.39">∗</text><path d="M395.621 1254.07C398.269 1254.07 400.552 1254.29 402.47 1254.72L400.89 1261.61 397.323 1261.61C396.945 1260.07 396.452 1258.96 395.844 1258.28 395.236 1257.61 394.338 1257.27 393.149 1257.27 391.609 1257.27 390.305 1257.7 389.238 1258.55 388.171 1259.4 387.259 1260.66 386.503 1262.34 385.746 1264.01 385.044 1266.27 384.395 1269.1L383.382 1273.52 393.797 1273.52 392.906 1277.62 382.45 1277.62 374.912 1312.96C373.669 1318.82 371.764 1323.19 369.197 1326.07 366.631 1328.94 363.402 1330.38 359.511 1330.38 358.377 1330.38 357.485 1330.31 356.836 1330.18L357.525 1326.61C357.796 1326.69 358.431 1326.73 359.43 1326.73 360.646 1326.73 361.686 1326.42 362.551 1325.8 363.415 1325.18 364.219 1324.1 364.962 1322.56 365.705 1321.02 366.387 1318.89 367.009 1316.16L375.722 1277.62 368.873 1277.62 369.481 1274.82C371.291 1274.71 372.595 1274.56 373.392 1274.37 374.189 1274.18 374.81 1273.9 375.256 1273.52 375.702 1273.14 376.08 1272.65 376.391 1272.04 376.702 1271.43 377.1 1270.32 377.586 1268.7 379.018 1263.84 381.227 1260.18 384.213 1257.74 387.198 1255.29 391.001 1254.07 395.621 1254.07Z" fill-rule="evenodd"/><text fill="#000000" fill-opacity="0" font-family="Arial,Arial_MSFontService,sans-serif" font-size="76.313" x="356.836" y="1320.84">𝑓</text><path d="M408.029 1290.75 409.845 1290.75C409.806 1291.84 409.776 1292.82 409.756 1293.68 409.736 1294.54 409.721 1295.38 409.711 1296.2 409.701 1297.01 409.697 1297.82 409.697 1298.61L409.697 1321.25C409.697 1321.86 409.716 1322.39 409.756 1322.84 409.796 1323.29 409.86 1323.66 409.95 1323.97 410.039 1324.28 410.158 1324.54 410.307 1324.76 410.456 1324.98 410.63 1325.17 410.828 1325.33 411.067 1325.57 411.384 1325.75 411.781 1325.88 412.179 1326.01 412.685 1326.12 413.301 1326.21 413.916 1326.3 414.656 1326.36 415.52 1326.41 416.383 1326.46 417.421 1326.5 418.632 1326.52L418.632 1329.11 395.012 1329.11 395.012 1326.52C396.184 1326.48 397.177 1326.43 397.991 1326.38 398.805 1326.33 399.5 1326.27 400.076 1326.18 400.652 1326.09 401.113 1325.99 401.461 1325.88 401.808 1325.77 402.111 1325.64 402.369 1325.48 402.647 1325.3 402.886 1325.1 403.084 1324.9 403.283 1324.69 403.442 1324.42 403.561 1324.11 403.68 1323.79 403.774 1323.4 403.844 1322.94 403.913 1322.49 403.948 1321.92 403.948 1321.25L403.948 1299.89C403.948 1299.12 403.799 1298.57 403.501 1298.25 403.203 1297.93 402.776 1297.78 402.22 1297.78 401.605 1297.78 400.691 1298.09 399.48 1298.73 398.269 1299.36 396.7 1300.31 394.774 1301.56 394.516 1301.1 394.278 1300.65 394.059 1300.19 393.841 1299.73 393.613 1299.27 393.374 1298.79 395.836 1297.44 398.274 1296.09 400.686 1294.75 403.099 1293.41 405.546 1292.08 408.029 1290.75Z" fill-rule="evenodd"/><text fill="#000000" fill-opacity="0" font-family="Arial,Arial_MSFontService,sans-serif" font-size="38.3633" x="393.374" y="1324.31">1</text><path d="M509.77 1250.15C517.66 1252.23 523.719 1256.72 527.947 1263.63 532.175 1270.53 534.289 1278.86 534.289 1288.61 534.289 1298.39 532.182 1306.72 527.967 1313.6 523.752 1320.47 517.687 1324.95 509.77 1327.03L508.798 1323.91C515.039 1321.83 519.679 1317.72 522.719 1311.59 525.758 1305.46 527.278 1297.66 527.278 1288.21 527.278 1279.08 525.765 1271.49 522.739 1265.45 519.713 1259.41 515.025 1255.35 508.676 1253.27ZM458.1 1250.15 459.194 1253.27C452.872 1255.35 448.191 1259.41 445.152 1265.45 442.112 1271.49 440.592 1279.08 440.592 1288.21 440.592 1297.66 442.112 1305.46 445.152 1311.59 448.191 1317.72 452.831 1321.83 459.073 1323.91L458.1 1327.03C450.184 1324.95 444.118 1320.47 439.903 1313.6 435.688 1306.72 433.581 1298.39 433.581 1288.61 433.581 1278.86 435.695 1270.53 439.924 1263.63 444.152 1256.72 450.211 1252.23 458.1 1250.15Z" fill-rule="evenodd"/><path d="M476.532 1272.83C477.369 1272.83 478.106 1272.93 478.741 1273.12 479.376 1273.31 479.936 1273.6 480.422 1273.99 480.909 1274.38 481.341 1274.89 481.719 1275.51 482.098 1276.13 482.462 1276.97 482.814 1278.04 483.165 1279.11 483.496 1280.43 483.807 1282.01 484.117 1283.59 484.394 1285.23 484.637 1286.94L485.043 1286.94C487.636 1283.29 489.602 1280.62 490.939 1278.93 492.277 1277.24 493.405 1275.99 494.323 1275.16 495.242 1274.34 496.127 1273.76 496.978 1273.42 497.829 1273.08 498.957 1272.91 500.362 1272.91 501.632 1272.91 502.672 1273.08 503.483 1273.4L501.861 1280.74 499.025 1280.74C498.862 1279.6 498.39 1279.03 497.606 1279.03 497.363 1279.03 497.106 1279.07 496.836 1279.16 496.566 1279.24 496.235 1279.41 495.843 1279.68 495.451 1279.95 494.877 1280.48 494.121 1281.26 493.364 1282.05 492.513 1283.01 491.568 1284.14 490.622 1285.28 489.649 1286.46 488.65 1287.71L485.894 1291.15C486.38 1293.75 486.839 1295.99 487.272 1297.88 487.704 1299.77 488.089 1301.34 488.427 1302.6 488.764 1303.86 489.062 1304.85 489.318 1305.58 489.575 1306.31 489.852 1306.86 490.149 1307.22 490.446 1307.59 490.75 1307.84 491.061 1307.99 491.372 1308.14 491.73 1308.21 492.135 1308.21 492.864 1308.21 493.574 1307.93 494.263 1307.36 494.952 1306.8 495.944 1305.51 497.241 1303.51L499.876 1305.26C497.984 1308.06 496.275 1310.04 494.749 1311.19 493.222 1312.34 491.405 1312.91 489.298 1312.91 488.136 1312.91 487.15 1312.71 486.339 1312.29 485.529 1311.87 484.826 1311.2 484.232 1310.28 483.638 1309.36 483.111 1307.93 482.651 1305.98 481.814 1302.53 481.301 1299.88 481.111 1298.04L480.706 1298.04C477.842 1302.07 475.715 1304.96 474.323 1306.71 472.932 1308.47 471.783 1309.77 470.878 1310.6 469.973 1311.44 469.095 1312.03 468.244 1312.37 467.393 1312.71 466.265 1312.87 464.86 1312.87 463.59 1312.87 462.55 1312.71 461.739 1312.39L463.36 1305.05 466.197 1305.05C466.359 1306.19 466.832 1306.75 467.616 1306.75 467.994 1306.75 468.393 1306.65 468.811 1306.45 469.23 1306.25 469.831 1305.76 470.615 1304.99 471.398 1304.22 472.479 1303.01 473.857 1301.36 475.235 1299.72 477.234 1297.24 479.855 1293.95 479.45 1291.81 479.031 1289.76 478.599 1287.79 478.166 1285.82 477.721 1283.98 477.261 1282.28 476.802 1280.57 476.424 1279.46 476.127 1278.93 475.829 1278.41 475.512 1278.04 475.174 1277.84 474.836 1277.64 474.411 1277.53 473.898 1277.53 473.33 1277.53 472.817 1277.66 472.358 1277.92 471.898 1278.18 471.398 1278.62 470.858 1279.26 470.318 1279.89 469.602 1280.88 468.71 1282.24L466.076 1280.49C467.778 1277.93 469.413 1276.01 470.98 1274.74 472.547 1273.47 474.397 1272.83 476.532 1272.83Z" fill-rule="evenodd"/><text fill="#000000" fill-opacity="0" font-family="Arial,Arial_MSFontService,sans-serif" font-size="40.0815" x="461.739" y="1307.9">𝑥</text><path d="M570.491 1311.33 620.421 1311.33 620.421 1316.72 570.491 1316.72ZM620.421 1260.39 620.421 1266.47 577.016 1282.72 620.421 1298.97 620.421 1305.05 570.329 1285.56 570.329 1279.88Z" fill-rule="evenodd"/><text fill="#000000" fill-opacity="0" font-family="Arial,Arial_MSFontService,sans-serif" font-size="56.333" x="570.329" y="1309.68">≤</text><path d="M672.061 1259.74C670.197 1259.74 668.636 1260.3 667.38 1261.4 666.124 1262.51 665.11 1264.11 664.34 1266.19 663.57 1268.27 663.023 1270.8 662.699 1273.79 662.375 1276.77 662.213 1280.14 662.213 1283.9 662.213 1292.71 663.03 1299.17 664.665 1303.29 666.299 1307.41 668.832 1309.47 672.264 1309.47 675.533 1309.47 677.958 1307.53 679.538 1303.65 681.119 1299.78 681.909 1293.77 681.909 1285.64 681.909 1279.43 681.504 1274.39 680.693 1270.54 679.883 1266.69 678.755 1263.93 677.309 1262.26 675.864 1260.58 674.114 1259.74 672.061 1259.74ZM672.264 1256.3C678.181 1256.3 682.585 1258.58 685.475 1263.15 688.366 1267.71 689.812 1274.62 689.812 1283.86 689.812 1293.42 688.265 1300.66 685.172 1305.56 682.078 1310.46 677.559 1312.91 671.615 1312.91 665.779 1312.91 661.436 1310.62 658.586 1306.03 655.735 1301.43 654.31 1294.46 654.31 1285.11 654.31 1280.14 654.749 1275.85 655.627 1272.23 656.505 1268.6 657.734 1265.61 659.315 1263.25 660.896 1260.88 662.794 1259.13 665.009 1258 667.225 1256.87 669.643 1256.3 672.264 1256.3Z" fill-rule="evenodd"/><text fill="#000000" fill-opacity="0" font-family="Arial,Arial_MSFontService,sans-serif" font-size="56.6167" x="654.31" y="1305.84">0</text></g></svg>