<svg width="1298" height="1031" xmlns="http://www.w3.org/2000/svg" xmlns:xlink="http://www.w3.org/1999/xlink" overflow="hidden"><defs><clipPath id="clip0"><rect x="3007" y="600" width="1298" height="1031"/></clipPath></defs><g clip-path="url(#clip0)" transform="translate(-3007 -600)"><path d="M3007.5 1553.92 4216.76 1553.92 4216.76 1563.08 3007.5 1563.08ZM4212.17 1535.58 4258 1558.5 4212.17 1581.42Z"/><path d="M4.58333-1.68079e-06 4.58368 942.863-4.58299 942.863-4.58333 1.68079e-06ZM22.917 938.28 0.000360892 984.113-22.9163 938.28Z" transform="matrix(1 0 0 -1 3654.5 1630.61)"/><path d="M4197.8 1478.55C4199.53 1478.55 4200.9 1479.13 4201.9 1480.3 4202.9 1481.46 4203.4 1483.02 4203.4 1485 4203.4 1487.13 4202.98 1489.79 4202.14 1492.98L4200.36 1499.99C4199.9 1501.78 4199.57 1503.17 4199.36 1504.17 4199.16 1505.17 4199.01 1506.03 4198.92 1506.76 4198.82 1507.49 4198.78 1508.1 4198.78 1508.58 4198.78 1510.45 4199.09 1511.79 4199.71 1512.62 4200.33 1513.44 4201.34 1513.85 4202.75 1513.85 4203.88 1513.85 4205.1 1513.4 4206.41 1512.49 4207.73 1511.59 4209.12 1510.22 4210.59 1508.4 4212.06 1506.58 4213.24 1504.81 4214.14 1503.09 4215.03 1501.38 4215.76 1499.26 4216.32 1496.75L4220.17 1479.2 4227.19 1479.2 4221.27 1504.9C4220.67 1507.49 4220.38 1509.49 4220.38 1510.89 4220.38 1511.97 4220.55 1512.76 4220.9 1513.24 4221.25 1513.73 4221.81 1513.97 4222.56 1513.97 4223.38 1513.97 4224.24 1513.64 4225.16 1512.98 4226.08 1512.32 4227.37 1511.06 4229.05 1509.19L4231.36 1511.46C4228.9 1514.08 4226.81 1515.93 4225.08 1517.01 4223.35 1518.09 4221.51 1518.63 4219.57 1518.63 4217.89 1518.63 4216.55 1518.08 4215.55 1516.97 4214.55 1515.86 4214.05 1514.39 4214.05 1512.56 4214.05 1511.1 4214.38 1509.5 4215.03 1507.77L4214.54 1507.61C4211.87 1511.37 4209.33 1514.14 4206.94 1515.92 4204.55 1517.7 4202.1 1518.59 4199.59 1518.59 4197.07 1518.59 4195.14 1517.87 4193.79 1516.43 4192.44 1514.98 4191.76 1512.97 4191.76 1510.41 4191.76 1508.71 4192.16 1506.29 4192.94 1503.15L4195.57 1492.53C4196.3 1489.59 4196.67 1487.51 4196.67 1486.29 4196.67 1485.21 4196.49 1484.43 4196.14 1483.94 4195.79 1483.46 4195.24 1483.21 4194.48 1483.21 4193.64 1483.21 4192.76 1483.56 4191.83 1484.25 4190.89 1484.94 4189.62 1486.19 4188 1488L4185.69 1485.73C4187.98 1483.4 4189.71 1481.81 4190.87 1480.94 4192.03 1480.08 4193.15 1479.46 4194.22 1479.1 4195.28 1478.74 4196.48 1478.55 4197.8 1478.55Z" fill-rule="evenodd"/><text fill="#000000" fill-opacity="0" font-family="Arial,Arial_MSFontService,sans-serif" font-size="40.0815" x="4185.69" y="1513.62">𝑢</text><path d="M3707.15 694.033 3712.74 694.033 3710.51 704.043 3722.83 704.043 3721.94 708.136 3709.62 708.136 3706.01 723.861C3705.31 726.914 3704.86 729.109 3704.67 730.446 3704.48 731.784 3704.39 732.858 3704.39 733.668 3704.39 737.019 3705.78 738.694 3708.56 738.694 3709.75 738.694 3711.02 738.241 3712.35 737.336 3713.69 736.431 3715.28 734.884 3717.12 732.696L3719.47 735.127C3717.12 737.964 3714.85 740.058 3712.68 741.409 3710.5 742.76 3708.23 743.435 3705.85 743.435 3700.2 743.435 3697.38 740.585 3697.38 734.884 3697.38 733.074 3697.61 731.169 3698.07 729.17L3702.85 708.136 3696.04 708.136 3696.65 705.34C3698.24 705.313 3699.45 705.191 3700.28 704.975 3701.1 704.759 3701.79 704.462 3702.34 704.083 3702.9 703.705 3703.4 703.165 3703.86 702.462 3704.32 701.76 3704.77 700.862 3705.2 699.767 3705.63 698.673 3706.28 696.761 3707.15 694.033Z" fill-rule="evenodd"/><text fill="#000000" fill-opacity="0" font-family="Arial,Arial_MSFontService,sans-serif" font-size="49.4028" x="3696.04" y="737.26">𝑡</text><path d="M3060.5 1396.5 4151.1 1403.23" stroke="#D74514" stroke-width="9.16667" stroke-miterlimit="8" fill="none" fill-rule="evenodd"/><path d="M3719.7 1455.88C3718.33 1455.88 3716.97 1456.35 3715.63 1457.28 3714.29 1458.21 3712.83 1459.71 3711.23 1461.76 3709.64 1463.81 3708.4 1465.84 3707.51 1467.84 3706.61 1469.84 3705.91 1472.13 3705.4 1474.73L3705.07 1476.43C3704.8 1477.86 3704.64 1478.96 3704.57 1479.71 3704.5 1480.47 3704.47 1481.21 3704.47 1481.94 3704.47 1484.05 3704.92 1485.58 3705.82 1486.54 3706.73 1487.5 3708.29 1487.98 3710.5 1487.98 3711.88 1487.98 3713.15 1487.71 3714.31 1487.17 3715.48 1486.63 3716.58 1485.85 3717.62 1484.82 3718.66 1483.79 3719.6 1482.55 3720.43 1481.09 3721.27 1479.63 3722.02 1477.94 3722.68 1476 3723.35 1474.07 3723.85 1472.09 3724.18 1470.05 3724.52 1468.01 3724.69 1466.1 3724.69 1464.31 3724.69 1461.48 3724.29 1459.36 3723.49 1457.97 3722.7 1456.58 3721.43 1455.88 3719.7 1455.88ZM3702.64 1451.1C3704.32 1451.1 3705.65 1451.65 3706.63 1452.76 3707.62 1453.87 3708.11 1455.34 3708.11 1457.18 3708.11 1458.69 3707.8 1460.29 3707.18 1461.96L3707.67 1462.12C3712.67 1454.8 3717.64 1451.14 3722.58 1451.14 3725.53 1451.14 3727.82 1452.26 3729.45 1454.5 3731.09 1456.75 3731.9 1459.91 3731.9 1463.99 3731.9 1468.45 3731 1472.83 3729.21 1477.14 3727.41 1481.45 3724.92 1484.87 3721.73 1487.39 3718.54 1489.92 3714.98 1491.18 3711.03 1491.18 3707.44 1491.18 3704.45 1490.4 3702.08 1488.83L3700.21 1497.71C3699.81 1499.63 3699.6 1501.21 3699.6 1502.45 3699.6 1503.64 3699.91 1504.48 3700.51 1504.98 3701.12 1505.48 3702.3 1505.81 3704.06 1505.97L3703.74 1507.96 3691.21 1507.96 3700.98 1464.96C3701.55 1462.48 3701.83 1460.44 3701.83 1458.84 3701.83 1457.76 3701.66 1456.98 3701.31 1456.49 3700.95 1456 3700.4 1455.76 3699.64 1455.76 3698.81 1455.76 3697.92 1456.11 3696.99 1456.79 3696.06 1457.48 3694.78 1458.73 3693.16 1460.54L3690.85 1458.27C3693.28 1455.73 3695.34 1453.9 3697.03 1452.78 3698.72 1451.66 3700.59 1451.1 3702.64 1451.1Z" fill-rule="evenodd"/><text fill="#000000" fill-opacity="0" font-family="Arial,Arial_MSFontService,sans-serif" font-size="56.8599" x="3690.85" y="1500.85">𝑝</text><path d="M3750.3 1431.65 3754.23 1431.65 3753.37 1440.97 3761.02 1435.58 3762.96 1438.91 3754.47 1442.88 3762.96 1446.87 3761.02 1450.17 3753.37 1444.78 3754.23 1454.1 3750.3 1454.1 3751.19 1444.78 3743.51 1450.17 3741.54 1446.87 3750.06 1442.88 3741.54 1438.91 3743.51 1435.58 3751.19 1440.97Z" fill-rule="evenodd"/><text fill="#000000" fill-opacity="0" font-family="Arial,Arial_MSFontService,sans-serif" font-size="22.458" x="3741.54" y="1451.3">∗</text><path d="M3799.11 1472.54 3849.04 1472.54 3849.04 1477.93 3799.11 1477.93ZM3799.11 1455.72 3849.04 1455.72 3849.04 1461.11 3799.11 1461.11Z" fill-rule="evenodd"/><text fill="#000000" fill-opacity="0" font-family="Arial,Arial_MSFontService,sans-serif" font-size="22.209" x="3799.11" y="1475.15">=</text><path d="M3908.87 1454.3C3906.11 1454.3 3903.64 1455.42 3901.45 1457.65 3899.26 1459.87 3897.54 1462.88 3896.28 1466.66 3895.03 1470.45 3894.4 1474.21 3894.4 1477.97 3894.4 1480.78 3894.8 1482.88 3895.61 1484.27 3896.42 1485.66 3897.69 1486.36 3899.42 1486.36 3900.8 1486.36 3902.17 1485.89 3903.54 1484.94 3904.9 1484 3906.36 1482.5 3907.91 1480.44 3909.47 1478.39 3910.68 1476.43 3911.54 1474.57 3912.4 1472.7 3913.14 1470.38 3913.75 1467.6 3914.36 1464.81 3914.66 1462.39 3914.66 1460.34 3914.66 1458.23 3914.22 1456.7 3913.32 1455.74 3912.43 1454.78 3910.95 1454.3 3908.87 1454.3ZM3908.22 1451.1C3909.92 1451.1 3911.53 1451.3 3913.04 1451.71 3914.55 1452.11 3916.08 1452.8 3917.62 1453.78L3921.35 1451.1 3923.94 1451.75 3919.77 1470.63C3919.47 1471.96 3918.79 1475.3 3917.74 1480.65 3916.63 1486.32 3915.73 1490.33 3915.05 1492.68 3914.36 1495.03 3913.5 1497.17 3912.47 1499.11 3911.45 1501.04 3910.12 1502.72 3908.5 1504.15 3906.88 1505.58 3904.91 1506.69 3902.6 1507.47 3900.29 1508.26 3897.56 1508.65 3894.4 1508.65 3884.18 1508.65 3879.08 1505.68 3879.08 1499.73 3879.08 1498.22 3879.54 1496.84 3880.46 1495.6 3881.37 1494.36 3882.85 1493.05 3884.87 1491.67L3887.79 1494.02C3887.28 1494.64 3886.85 1495.26 3886.49 1495.86 3886.14 1496.47 3885.89 1497.06 3885.74 1497.63 3885.6 1498.19 3885.52 1498.87 3885.52 1499.65 3885.52 1501.68 3886.25 1503.16 3887.71 1504.09 3889.17 1505.02 3891.37 1505.49 3894.32 1505.49 3897.64 1505.49 3900.31 1504.74 3902.32 1503.24 3904.33 1501.74 3906.06 1499.33 3907.49 1496 3908.92 1492.68 3910.31 1487.66 3911.66 1480.93L3911.09 1480.81C3908.47 1484.4 3906.04 1487.02 3903.8 1488.67 3901.56 1490.32 3899.14 1491.14 3896.55 1491.14 3893.6 1491.14 3891.31 1490.03 3889.68 1487.82 3888.04 1485.6 3887.22 1482.44 3887.22 1478.33 3887.22 1473.71 3888.13 1469.28 3889.94 1465.02 3891.75 1460.77 3894.26 1457.38 3897.48 1454.87 3900.69 1452.36 3904.27 1451.1 3908.22 1451.1Z" fill-rule="evenodd"/><text fill="#000000" fill-opacity="0" font-family="Arial,Arial_MSFontService,sans-serif" font-size="57.5488" x="3879.08" y="1501.46">𝑔</text><path d="M4040.98 1428.42C4048.87 1430.5 4054.93 1434.99 4059.16 1441.89 4063.39 1448.8 4065.5 1457.13 4065.5 1466.88 4065.5 1476.66 4063.39 1484.99 4059.18 1491.87 4054.96 1498.74 4048.9 1503.22 4040.98 1505.3L4040.01 1502.18C4046.25 1500.1 4050.89 1495.99 4053.93 1489.86 4056.97 1483.73 4058.49 1475.93 4058.49 1466.47 4058.49 1457.34 4056.98 1449.76 4053.95 1443.72 4050.92 1437.68 4046.24 1433.62 4039.89 1431.54ZM3961.51 1428.42 3962.61 1431.54C3956.29 1433.62 3951.6 1437.68 3948.56 1443.72 3945.53 1449.76 3944.01 1457.34 3944.01 1466.47 3944.01 1475.93 3945.53 1483.73 3948.56 1489.86 3951.6 1495.99 3956.24 1500.1 3962.49 1502.18L3961.51 1505.3C3953.6 1503.22 3947.53 1498.74 3943.32 1491.87 3939.1 1484.99 3936.99 1476.66 3936.99 1466.88 3936.99 1457.13 3939.11 1448.8 3943.34 1441.89 3947.57 1434.99 3953.62 1430.5 3961.51 1428.42Z" fill-rule="evenodd"/><path d="M3988.29 1432.54C3990.37 1432.54 3991.97 1433.03 3993.08 1434 3994.18 1434.97 3994.97 1436.5 3995.43 1438.6 3995.89 1440.69 3996.12 1443.75 3996.12 1447.78 3996.12 1449.1 3996.09 1451.02 3996.03 1453.53L3995.87 1459.94C3995.66 1466.01 3995.55 1470.8 3995.55 1474.28 3995.55 1477.09 3995.61 1479.29 3995.73 1480.87 3995.85 1482.45 3996.05 1483.64 3996.32 1484.45 3996.59 1485.27 3996.93 1485.81 3997.33 1486.1 3997.74 1486.38 3998.24 1486.52 3998.83 1486.52 3999.53 1486.52 4000.28 1486.29 4001.08 1485.81 4001.88 1485.34 4002.86 1484.48 4004.02 1483.24L4006.29 1485.51C4004.53 1487.29 4002.8 1488.68 4001.08 1489.68 3999.36 1490.68 3997.84 1491.18 3996.52 1491.18 3994.98 1491.18 3993.81 1490.87 3993 1490.25 3992.18 1489.63 3991.6 1488.6 3991.23 1487.17 3990.87 1485.74 3990.69 1483.63 3990.69 1480.85 3990.69 1477.01 3990.97 1470.73 3991.54 1462L3991.13 1462C3983.03 1473.89 3976.91 1483.4 3972.77 1490.53L3964.54 1490.53 3964.95 1488.55C3966.19 1487.03 3967.44 1485.46 3968.68 1483.83 3969.92 1482.19 3971.43 1480.12 3973.22 1477.61L3991.37 1451.83C3991.35 1449.07 3991.23 1446.76 3991.01 1444.9 3990.79 1443.04 3990.5 1441.56 3990.12 1440.46 3989.74 1439.37 3989.24 1438.56 3988.62 1438.05 3988 1437.54 3987.15 1437.28 3986.06 1437.28 3985.17 1437.28 3984.27 1437.54 3983.35 1438.05 3982.43 1438.56 3981.09 1439.62 3979.34 1441.21L3977.23 1438.86C3979.72 1436.4 3981.78 1434.73 3983.41 1433.86 3985.04 1432.98 3986.67 1432.54 3988.29 1432.54Z" fill-rule="evenodd"/><text fill="#000000" fill-opacity="0" font-family="Arial,Arial_MSFontService,sans-serif" font-size="58.6431" x="3964.54" y="1483.85">𝜆</text><path d="M4018.49 1431.65 4022.42 1431.65 4021.56 1440.97 4029.21 1435.58 4031.15 1438.91 4022.66 1442.88 4031.15 1446.87 4029.21 1450.17 4021.56 1444.78 4022.42 1454.1 4018.49 1454.1 4019.39 1444.78 4011.7 1450.17 4009.74 1446.87 4018.25 1442.88 4009.74 1438.91 4011.7 1435.58 4019.39 1440.97Z" fill-rule="evenodd"/><text fill="#000000" fill-opacity="0" font-family="Arial,Arial_MSFontService,sans-serif" font-size="22.458" x="4009.74" y="1451.3">∗</text><path d="M3164.94 973.107C3186.62 1039.5 3245.96 1169.8 3280.07 1232.99 3314.18 1296.19 3327.69 1326.01 3369.62 1352.28 3411.55 1378.56 3458.09 1415.83 3531.65 1390.63 3605.2 1365.42 3727.44 1274.18 3810.94 1201.04 3894.45 1127.9 4001.76 1016.78 4032.67 951.805 4063.59 886.834 4036.23 837.484 3996.43 811.212 3956.63 784.939 3846.83 756.537 3793.89 794.17 3740.94 831.804 3717.49 976.658 3678.76 1037.01 3640.03 1097.37 3605.2 1153.82 3561.5 1156.3 3517.79 1158.79 3471.24 1097.37 3416.52 1051.93 3361.8 1006.48 3277.58 919.852 3233.17 883.639 3188.75 847.425 3161.39 819.733 3150.02 834.644 3138.65 849.556 3143.27 906.716 3164.94 973.107Z" fill="#F8CCB9" fill-rule="evenodd"/><path d="M3604.34 1020.29C3610.07 1020.29 3615.2 1021.06 3619.74 1022.6L3617.27 1034.19 3611.96 1034.19C3611.96 1031.84 3611.71 1030.01 3611.21 1028.69 3610.71 1027.38 3609.95 1026.45 3608.92 1025.88 3607.9 1025.31 3606.52 1025.03 3604.79 1025.03 3601.19 1025.03 3597.97 1026.68 3595.1 1029.99 3592.24 1033.3 3589.81 1038.16 3587.81 1044.58 3585.81 1051 3584.81 1056.77 3584.81 1061.91 3584.81 1068.74 3587.06 1072.16 3591.58 1072.16 3593.74 1072.16 3595.52 1071.48 3596.93 1070.11 3598.33 1068.75 3599.36 1066.64 3600.01 1063.77L3600.57 1061.22C3600.79 1060.22 3600.92 1059.39 3600.98 1058.73 3601.03 1058.06 3601.06 1057.46 3601.06 1056.92 3601.06 1055.81 3600.8 1054.98 3600.29 1054.43 3599.78 1053.88 3598.9 1053.52 3597.66 1053.36L3598.22 1050.68 3618 1050.68 3617.43 1053.36C3616.38 1053.71 3615.6 1054.13 3615.08 1054.63 3614.57 1055.13 3614.11 1055.86 3613.7 1056.82 3613.3 1057.78 3612.85 1059.38 3612.37 1061.62L3609.25 1075.61 3603.65 1076.9 3601.51 1074.02C3597.97 1075.94 3594.28 1076.9 3590.44 1076.9 3584.77 1076.9 3580.41 1075.31 3577.37 1072.12 3574.33 1068.93 3572.81 1064.32 3572.81 1058.3 3572.81 1054.57 3573.45 1050.31 3574.72 1045.51 3575.99 1040.72 3577.95 1036.39 3580.61 1032.54 3583.27 1028.69 3586.62 1025.69 3590.64 1023.53 3594.67 1021.37 3599.24 1020.29 3604.34 1020.29Z" fill="#D74514" fill-rule="evenodd"/><text fill="#000000" fill-opacity="0" font-family="Arial,Arial_MSFontService,sans-serif" font-size="56.6167" x="3572.81" y="1069.82">𝑮</text></g></svg>