<svg xmlns="http://www.w3.org/2000/svg" width="996" height="620" overflow="hidden"><defs><clipPath id="a"><path d="M352 206h996v620H352z"/></clipPath></defs><g clip-path="url(#a)" transform="translate(-352 -206)"><path fill="none" stroke="#000" stroke-miterlimit="8" stroke-width="9.167" d="M363.537 656.584c-43.068-149.517 139.908-333.487 408.689-410.909 268.784-77.423 521.584-18.979 564.654 130.538 43.07 149.516-139.91 333.486-408.69 410.909-268.781 77.422-521.584 18.978-564.653-130.538Z"/><path fill="none" stroke="#000" stroke-dasharray="27.5 9.16667" stroke-miterlimit="8" stroke-width="9.167" d="M483.553 622.013c-32.447-112.645 105.406-251.247 307.903-309.576s392.954-14.298 425.404 98.346-105.4 251.247-307.901 309.577c-202.498 58.329-392.958 14.298-425.406-98.347Z"/><path fill="none" stroke="#000" stroke-dasharray="27.5 9.16667" stroke-miterlimit="8" stroke-width="9.167" d="M615.717 584.081c-20.754-72.052 67.422-160.708 196.947-198.018 129.526-37.31 251.356-9.145 272.106 62.907 20.76 72.052-67.42 160.707-196.946 198.017s-251.352 9.146-272.107-62.906Z"/><path fill="#d74514" fill-rule="evenodd" d="M831.371 521.378c-3.066-10.642 3.076-21.754 13.718-24.819 10.642-3.066 21.754 3.076 24.819 13.718s-3.077 21.754-13.718 24.819-21.754-3.077-24.819-13.718"/></g></svg>