<svg xmlns="http://www.w3.org/2000/svg" width="1299" height="1073" overflow="hidden"><defs><clipPath id="a"><path d="M1570-1h1299v1073H1570z"/></clipPath></defs><g clip-path="url(#a)" transform="translate(-1570 1)"><path d="M1571.5 951.917h1209.26v9.167l-1209.26-.001Zm1204.67-18.333 45.83 22.917-45.83 22.916Z"/><path d="M2223.083 1029.61V86.747h-9.166v942.863Zm18.334-938.28L2218.5 45.497l-22.916 45.833Z"/><path fill="none" stroke="#000" stroke-dasharray="27.5 9.16667" stroke-miterlimit="8" stroke-width="9.167" d="M1571.5 684.5h647.25"/><path fill-rule="evenodd" d="M2761.96 876.867c1.73 0 3.09.581 4.09 1.743q1.5 1.743 1.5 4.701 0 3.202-1.26 7.984l-1.78 7.011q-.69 2.676-.99 4.175t-.45 2.593c-.09.73-.14 1.338-.14 1.824q0 2.796.93 4.033c.62.824 1.64 1.236 3.04 1.236 1.14 0 2.36-.453 3.67-1.358q1.965-1.358 4.17-4.093c1.48-1.824 2.66-3.594 3.55-5.309q1.335-2.574 2.19-6.343l3.85-17.548h7.01l-5.92 25.694c-.59 2.594-.89 4.593-.89 5.998 0 1.081.18 1.864.53 2.351s.9.729 1.66.729c.81 0 1.68-.331 2.59-.993.92-.662 2.22-1.925 3.89-3.789l2.31 2.27c-2.45 2.62-4.55 4.471-6.28 5.552s-3.56 1.621-5.51 1.621c-1.67 0-3.01-.554-4.01-1.662q-1.5-1.661-1.5-4.417c0-1.459.32-3.053.97-4.782l-.48-.163c-2.68 3.756-5.21 6.525-7.6 8.309s-4.85 2.674-7.36 2.674q-3.765 0-5.79-2.168c-1.35-1.445-2.03-3.451-2.03-6.018q0-2.553 1.17-7.255l2.64-10.618c.73-2.945 1.09-5.025 1.09-6.241 0-1.081-.17-1.864-.52-2.35-.35-.487-.91-.73-1.66-.73-.84 0-1.73.344-2.66 1.033s-2.21 1.939-3.83 3.749l-2.31-2.269q3.45-3.486 5.19-4.783c1.16-.864 2.27-1.479 3.34-1.844 1.07-.364 2.26-.547 3.59-.547"/><text x="2749.84" y="911.939" fill-opacity="0" font-family="Arial,Arial_MSFontService,sans-serif" font-size="40.081">𝑢</text><path fill-rule="evenodd" d="M2271.3 92.347h5.59l-2.23 10.01h12.33l-.9 4.094h-12.32l-3.6 15.724c-.71 3.053-1.15 5.249-1.34 6.586s-.28 2.411-.28 3.222q0 5.025 4.17 5.025c1.19 0 2.45-.452 3.79-1.357 1.34-.906 2.92-2.452 4.76-4.641l2.35 2.432c-2.35 2.837-4.61 4.931-6.79 6.282-2.17 1.35-4.45 2.026-6.83 2.026-5.64 0-8.47-2.85-8.47-8.551q0-2.716.69-5.715l4.79-21.033h-6.81l.6-2.797q2.4-.04 3.63-.364c.83-.217 1.51-.514 2.07-.892.55-.378 1.06-.919 1.52-1.621.46-.703.9-1.601 1.34-2.695.43-1.094 1.08-3.006 1.94-5.735"/><text x="2260.2" y="135.575" fill-opacity="0" font-family="Arial,Arial_MSFontService,sans-serif" font-size="49.403">𝑡</text><path fill-rule="evenodd" d="M2278.11 678.62c-1.38 0-2.73.466-4.07 1.398s-2.8 2.425-4.4 4.478c-1.59 2.053-2.84 4.08-3.73 6.079q-1.335 2.999-2.1 6.89l-.33 1.702q-.405 2.148-.51 3.283c-.06.756-.1 1.499-.1 2.229 0 2.107.46 3.64 1.36 4.599q1.365 1.44 4.68 1.439 2.07 0 3.81-.81 1.74-.811 3.3-2.351t2.82-3.728 2.25-5.087a37.4 37.4 0 0 0 1.5-5.957q.51-3.06.51-5.735 0-4.255-1.2-6.342c-.8-1.392-2.06-2.087-3.79-2.087m-17.06-4.783c1.67 0 3.01.554 3.99 1.662.99 1.108 1.48 2.58 1.48 4.417q0 2.27-.93 4.783l.49.162q7.485-10.983 14.91-10.983 4.41 0 6.87 3.364c1.63 2.242 2.45 5.403 2.45 9.483 0 4.458-.9 8.842-2.69 13.151-1.8 4.309-4.29 7.727-7.48 10.254s-6.76 3.789-10.7 3.789c-3.59 0-6.58-.784-8.96-2.351l-1.86 8.876c-.41 1.918-.61 3.499-.61 4.741 0 1.189.3 2.034.91 2.533s1.79.831 3.55.993l-.33 1.986h-12.52l9.77-42.999c.57-2.486.85-4.526.85-6.12 0-1.081-.18-1.864-.53-2.351s-.9-.729-1.66-.729c-.84 0-1.72.344-2.65 1.033-.94.689-2.21 1.939-3.83 3.749l-2.31-2.269q3.645-3.81 6.18-5.492t5.61-1.682"/><text x="2249.26" y="723.59" fill-opacity="0" font-family="Arial,Arial_MSFontService,sans-serif" font-size="56.86">𝑝</text><path fill-rule="evenodd" d="M2308.71 654.383h3.93l-.87 9.323 7.66-5.391 1.93 3.336-8.48 3.961 8.48 3.991-1.93 3.306-7.66-5.391.87 9.323h-3.93l.89-9.323-7.69 5.391-1.96-3.306 8.52-3.991-8.52-3.961 1.96-3.336 7.69 5.391Z"/><text x="2299.95" y="674.034" fill-opacity="0" font-family="Arial,Arial_MSFontService,sans-serif" font-size="22.458">∗</text><path fill="#f8ccb9" fill-rule="evenodd" d="M1967.9 451.634c23.04-57.726 47.33-112.677 79.12-154.862 31.78-42.184 70.32-82.796 111.59-98.245s91.98-19.797 136.03 5.55c44.04 25.348 75.69 64.757 128.25 146.536S2576.04 618.522 2610 694.75s26.65 96.58 16.65 113.232c-9.99 16.652-35.72 19.242-76.62-13.321s-112.7-137.377-168.78-182.06-116.13-80.576-167.67-86.034-96.61 27.475-141.58 53.286c-44.97 25.81-101.05 91.029-128.25 101.576-27.21 10.546-39.01 0-34.98-38.3 4.02-38.299 36.09-133.769 59.13-191.495"/><path fill="#d74514" fill-rule="evenodd" d="M2280.66 436.061c5.73 0 10.86.77 15.4 2.31l-2.47 11.591h-5.31q0-3.526-.75-5.492c-.5-1.31-1.27-2.249-2.29-2.816q-1.545-.851-4.14-.851c-3.59 0-6.82 1.654-9.68 4.964-2.87 3.31-5.3 8.173-7.3 14.59q-3 9.626-3 17.325c0 6.836 2.26 10.254 6.77 10.254 2.16 0 3.95-.682 5.35-2.047 1.41-1.364 2.43-3.478 3.08-6.342l.57-2.554c.21-.999.35-1.83.4-2.492.06-.662.08-1.263.08-1.803 0-1.108-.25-1.939-.77-2.493-.51-.554-1.39-.912-2.63-1.074l.57-2.675h19.78l-.57 2.675c-1.06.351-1.84.777-2.35 1.277q-.78.75-1.38 2.188c-.41.959-.85 2.56-1.34 4.803l-3.12 13.982-5.59 1.297-2.15-2.878c-3.54 1.918-7.23 2.878-11.06 2.878-5.68 0-10.03-1.595-13.07-4.783q-4.56-4.782-4.56-13.819c0-3.729.63-7.991 1.9-12.787s3.24-9.119 5.9-12.969 6-6.855 10.03-9.017c4.02-2.161 8.59-3.242 13.7-3.242"/><text x="2249.13" y="485.6" fill-opacity="0" font-family="Arial,Arial_MSFontService,sans-serif" font-size="56.617">𝑮</text><path fill="none" stroke="#5d1709" stroke-miterlimit="8" stroke-width="9.167" d="m1571.5 750.5 1146.36 77.893M1572.5 559.5l1145.2 507.66"/><path fill-rule="evenodd" d="M2520.96 681.202c-2.75 0-5.23 1.114-7.41 3.343-2.19 2.229-3.92 5.235-5.17 9.018q-1.89 5.673-1.89 11.307c0 2.81.41 4.91 1.22 6.302q1.215 2.087 3.81 2.087 2.07 0 4.11-1.418 2.055-1.42 4.38-4.499 2.325-3.08 3.63-5.876c.86-1.865 1.6-4.188 2.21-6.971.6-2.783.91-5.201.91-7.255 0-2.107-.45-3.64-1.34-4.599s-2.38-1.439-4.46-1.439m-.65-3.202c1.71 0 3.31.203 4.83.608 1.51.405 3.04 1.094 4.58 2.067l3.72-2.675 2.6.649-4.18 18.885c-.29 1.324-.97 4.661-2.02 10.011q-1.665 8.51-2.7 12.036c-.69 2.351-1.54 4.492-2.57 6.424a17.9 17.9 0 0 1-3.97 5.045c-1.62 1.432-3.59 2.54-5.9 3.324s-5.05 1.175-8.21 1.175c-10.21 0-15.32-2.972-15.32-8.916q0-2.27 1.38-4.134c.92-1.243 2.39-2.553 4.42-3.931l2.92 2.351c-.52.621-.95 1.236-1.3 1.844q-.525.912-.75 1.763c-.15.567-.22 1.242-.22 2.026q0 3.04 2.19 4.438t6.6 1.398c3.33 0 5.99-.75 8.01-2.249q3.015-2.25 5.16-7.235c1.44-3.323 2.83-8.348 4.18-15.076l-.57-.121q-3.93 5.39-7.29 7.862c-2.25 1.648-4.66 2.472-7.26 2.472q-4.41 0-6.87-3.323c-1.63-2.216-2.45-5.377-2.45-9.483 0-4.621.91-9.058 2.72-13.314q2.715-6.383 7.53-10.152 4.83-3.768 10.74-3.769"/><text x="2491.17" y="728.355" fill-opacity="0" font-family="Arial,Arial_MSFontService,sans-serif" font-size="57.549">𝑔</text><path fill-rule="evenodd" d="M2653.08 655.319c7.89 2.081 13.95 6.572 18.17 13.475 4.23 6.904 6.35 15.232 6.35 24.986q0 14.67-6.33 24.985c-4.21 6.876-10.28 11.354-18.19 13.435l-.97-3.121q9.36-3.12 13.92-12.32t4.56-23.385c0-9.132-1.52-16.717-4.54-22.756q-4.545-9.057-14.07-12.178Zm-79.47 0 1.09 3.121q-9.48 3.12-14.04 12.178t-4.56 22.756q0 14.185 4.56 23.385t13.92 12.32l-.97 3.121c-7.92-2.081-13.98-6.559-18.2-13.435-4.21-6.876-6.32-15.205-6.32-24.985 0-9.754 2.12-18.082 6.34-24.986q6.345-10.354 18.18-13.475m26.78 4.12c2.08 0 3.67.486 4.78 1.459 1.11.972 1.89 2.506 2.35 4.599q.69 3.141.69 9.18c0 1.324-.02 3.242-.08 5.755l-.16 6.403q-.33 9.118-.33 14.347c0 2.81.07 5.005.19 6.586.12 1.58.31 2.776.58 3.586.28.811.61 1.358 1.02 1.642q.6.425 1.5.425 1.05 0 2.25-.709c.79-.473 1.77-1.331 2.93-2.574l2.27 2.27c-1.75 1.783-3.49 3.175-5.2 4.174q-2.58 1.5-4.56 1.5c-1.54 0-2.72-.311-3.53-.932-.81-.622-1.4-1.649-1.76-3.08-.37-1.432-.55-3.54-.55-6.323 0-3.836.29-10.118.85-18.845h-.4q-12.165 17.832-18.36 28.531h-8.23l.41-1.986c1.24-1.513 2.48-3.086 3.73-4.721q1.86-2.452 4.53-6.221l18.16-25.775q-.045-4.134-.36-6.931-.33-2.796-.9-4.437-.555-1.641-1.5-2.412-.93-.77-2.55-.77c-.89 0-1.8.257-2.71.77q-1.38.77-4.02 3.162l-2.1-2.351q3.72-3.688 6.18-5.005c1.63-.878 3.26-1.317 4.88-1.317"/><text x="2576.64" y="710.751" fill-opacity="0" font-family="Arial,Arial_MSFontService,sans-serif" font-size="58.643">𝜆</text><path fill-rule="evenodd" d="M2630.59 658.546h3.93l-.86 9.323 7.65-5.391 1.94 3.336-8.49 3.961 8.49 3.991-1.94 3.306-7.65-5.391.86 9.323h-3.93l.89-9.323-7.68 5.391-1.97-3.306 8.52-3.991-8.52-3.961 1.97-3.336 7.68 5.391Z"/><text x="2621.83" y="678.197" fill-opacity="0" font-family="Arial,Arial_MSFontService,sans-serif" font-size="22.458">∗</text><path fill="none" stroke="#d74514" stroke-miterlimit="8" stroke-width="9.167" d="m1571.5 611.5 1146.71 235.304"/><path fill="#d9d9d9" d="m2219.404 746.082 26.96-5.423-1.808-8.986-26.96 5.423Zm35.947-7.23 26.96-5.423-1.808-8.987-26.96 5.423Zm35.946-7.23 26.96-5.424-1.807-8.986-26.96 5.423Zm35.947-7.231 26.96-5.423-1.808-8.987-26.96 5.423Zm35.947-7.23 26.96-5.424-1.808-8.986-26.96 5.423Zm35.946-7.231 26.96-5.423-1.807-8.987-26.96 5.423Zm35.947-7.23 7.814-1.573-1.807-8.986-7.815 1.572Zm6.936 17.304 40.415-31.504-49.453-13.429Z"/><path fill-rule="evenodd" d="M2511.58 879.895c-2.76 0-5.23 1.115-7.42 3.344s-3.91 5.234-5.17 9.017c-1.25 3.782-1.88 7.551-1.88 11.307 0 2.81.4 4.911 1.22 6.302.81 1.391 2.08 2.087 3.8 2.087 1.38 0 2.75-.473 4.12-1.418q2.04-1.418 4.38-4.499c1.55-2.053 2.76-4.012 3.62-5.876.87-1.865 1.6-4.188 2.21-6.971s.91-5.201.91-7.254c0-2.108-.44-3.641-1.33-4.6-.9-.959-2.38-1.439-4.46-1.439m-.65-3.202c1.7 0 3.31.203 4.82.608 1.51.406 3.04 1.095 4.58 2.067l3.73-2.675 2.59.649-4.17 18.886c-.3 1.324-.97 4.66-2.03 10.01-1.1 5.674-2 9.686-2.69 12.036q-1.035 3.526-2.58 6.424a17.8 17.8 0 0 1-3.97 5.046c-1.62 1.432-3.58 2.539-5.89 3.323s-5.05 1.175-8.21 1.175c-10.21 0-15.32-2.972-15.32-8.916q0-2.27 1.38-4.134c.92-1.242 2.39-2.553 4.42-3.931l2.91 2.351a14 14 0 0 0-1.29 1.844q-.525.912-.75 1.763c-.15.567-.23 1.243-.23 2.026q0 3.04 2.19 4.438c1.46.932 3.66 1.398 6.61 1.398 3.32 0 5.99-.75 8-2.249 2.02-1.5 3.74-3.911 5.17-7.234q2.145-4.986 4.17-15.076l-.56-.122c-2.62 3.593-5.06 6.214-7.3 7.862s-4.66 2.472-7.25 2.472q-4.425 0-6.87-3.323c-1.64-2.215-2.45-5.376-2.45-9.483 0-4.62.9-9.058 2.71-13.313s4.32-7.64 7.54-10.153q4.815-3.768 10.74-3.769"/><text x="2481.79" y="927.049" fill-opacity="0" font-family="Arial,Arial_MSFontService,sans-serif" font-size="57.549">𝑔</text><path fill-rule="evenodd" d="M2648.71 854.012q11.835 3.121 18.18 13.476c4.23 6.903 6.34 15.231 6.34 24.985 0 9.781-2.11 18.109-6.32 24.985-4.22 6.876-10.28 11.354-18.2 13.435l-.97-3.121q9.36-3.12 13.92-12.32t4.56-23.384c0-9.133-1.51-16.718-4.54-22.756-3.02-6.039-7.71-10.098-14.06-12.179Zm-84.48 0 1.09 3.121q-9.48 3.121-14.04 12.179t-4.56 22.756q0 14.184 4.56 23.384t13.92 12.32l-.97 3.121c-7.92-2.081-13.99-6.559-18.2-13.435-4.22-6.876-6.32-15.204-6.32-24.985 0-9.754 2.11-18.082 6.34-24.985q6.345-10.354 18.18-13.476m26.78 4.12c2.08 0 3.67.486 4.78 1.459s1.89 2.506 2.35 4.6q.69 3.14.69 9.179c0 1.324-.03 3.242-.08 5.755l-.17 6.403c-.21 6.079-.32 10.862-.32 14.347q0 4.215.18 6.586c.12 1.58.32 2.776.59 3.586.27.811.61 1.358 1.01 1.642q.615.425 1.5.425 1.065 0 2.25-.709 1.2-.71 2.94-2.573l2.27 2.269c-1.76 1.783-3.49 3.175-5.21 4.174q-2.565 1.5-4.56 1.5c-1.54 0-2.71-.311-3.52-.932q-1.215-.932-1.77-3.08-.54-2.148-.54-6.323c0-3.836.28-10.118.85-18.845h-.41q-12.15 17.832-18.36 28.532h-8.22l.4-1.986c1.25-1.513 2.49-3.087 3.73-4.722a239 239 0 0 0 4.54-6.221l18.16-25.775c-.03-2.756-.15-5.066-.37-6.93-.21-1.865-.51-3.344-.89-4.438q-.57-1.641-1.5-2.411t-2.55-.77c-.89 0-1.8.256-2.72.77-.92.513-2.25 1.567-4.01 3.161l-2.11-2.351q3.735-3.688 6.18-5.005 2.46-1.317 4.89-1.317"/><text x="2567.26" y="909.445" fill-opacity="0" font-family="Arial,Arial_MSFontService,sans-serif" font-size="58.643">𝜆</text><path fill-rule="evenodd" d="M2627.82 894.607h1.82q-.06 1.638-.09 2.934c-.02.864-.04 1.703-.05 2.517s-.01 1.618-.01 2.412v22.637q0 .924.06 1.594c.04.446.1.824.19 1.131q.135.462.36.79c.15.218.32.407.52.566.24.238.56.421.95.551.4.129.91.238 1.52.327q.93.135 2.22.209c.87.049 1.9.084 3.11.104v2.591h-23.62v-2.591c1.18-.04 2.17-.084 2.98-.134.82-.05 1.51-.119 2.09-.209.57-.089 1.04-.188 1.38-.297.35-.11.65-.244.91-.403q.42-.267.72-.58c.19-.209.35-.472.47-.79.12-.317.22-.705.29-1.161s.1-1.023.1-1.698v-21.356q0-1.161-.45-1.638c-.29-.318-.72-.477-1.28-.477-.61 0-1.53.318-2.74.953-1.21.636-2.78 1.579-4.7 2.83q-.39-.685-.72-1.37c-.22-.457-.45-.923-.68-1.4 2.46-1.35 4.9-2.696 7.31-4.036s4.86-2.676 7.34-4.006"/><text x="2613.17" y="928.175" fill-opacity="0" font-family="Arial,Arial_MSFontService,sans-serif" font-size="38.363">1</text><path fill="#d9d9d9" d="m2220.08 791.196 25.82 9.452-3.15 8.608-25.83-9.452Zm34.43 12.603 25.82 9.453-3.15 8.608-25.82-9.453Zm34.43 12.603 25.82 9.453-3.15 8.608-25.82-9.453Zm34.43 12.604 25.83 9.452-3.15 8.608-25.83-9.452Zm34.44 12.603 25.82 9.452-3.15 8.608-25.83-9.452Zm34.43 12.603 25.82 9.453-3.15 8.608-25.82-9.453Zm34.43 12.603 4.85 1.776-3.15 8.609-4.85-1.777Zm6.85-17.015 35.16 37.274-50.91 5.767Z"/><path fill-rule="evenodd" d="M1826.6 877.126q-4.125 0-7.41 3.343c-2.19 2.229-3.91 5.235-5.17 9.018-1.26 3.782-1.88 7.551-1.88 11.307 0 2.81.4 4.911 1.21 6.302q1.215 2.087 3.81 2.087 2.07 0 4.11-1.418 2.055-1.418 4.38-4.499t3.63-5.876c.86-1.865 1.6-4.188 2.21-6.971.6-2.783.91-5.201.91-7.254 0-2.108-.45-3.641-1.34-4.6s-2.38-1.439-4.46-1.439m-.64-3.202c1.7 0 3.3.203 4.82.608 1.51.406 3.04 1.094 4.58 2.067l3.73-2.675 2.59.649-4.17 18.885c-.3 1.324-.98 4.661-2.03 10.011q-1.665 8.511-2.7 12.036c-.69 2.351-1.54 4.492-2.57 6.424a17.9 17.9 0 0 1-3.97 5.046c-1.62 1.432-3.59 2.539-5.9 3.323s-5.04 1.175-8.2 1.175c-10.22 0-15.32-2.972-15.32-8.916 0-1.513.46-2.891 1.37-4.134.92-1.243 2.39-2.553 4.42-3.931l2.92 2.351a14 14 0 0 0-1.3 1.844q-.525.912-.75 1.763c-.15.567-.22 1.243-.22 2.026q0 3.04 2.19 4.438t6.6 1.398q4.995 0 8.01-2.249c2.01-1.5 3.73-3.911 5.17-7.234q2.145-4.986 4.17-15.077l-.57-.121q-3.93 5.39-7.29 7.862t-7.26 2.472q-4.41 0-6.87-3.323c-1.63-2.215-2.45-5.377-2.45-9.483 0-4.62.91-9.058 2.72-13.314 1.81-4.255 4.32-7.639 7.54-10.152q4.815-3.768 10.74-3.769"/><text x="1796.82" y="924.28" fill-opacity="0" font-family="Arial,Arial_MSFontService,sans-serif" font-size="57.549">𝑔</text><path fill-rule="evenodd" d="M1965.64 851.243q11.835 3.12 18.18 13.476c4.23 6.903 6.34 15.231 6.34 24.985 0 9.78-2.11 18.109-6.32 24.985-4.22 6.876-10.28 11.354-18.2 13.435l-.97-3.121q9.36-3.12 13.92-12.32t4.56-23.385c0-9.132-1.51-16.717-4.54-22.756-3.03-6.038-7.71-10.098-14.06-12.178Zm-86.39 0 1.1 3.121c-6.33 2.08-11.01 6.14-14.05 12.178q-4.56 9.058-4.56 22.756 0 14.185 4.56 23.385t13.92 12.32l-.97 3.121c-7.91-2.081-13.98-6.559-18.2-13.435-4.21-6.876-6.32-15.205-6.32-24.985 0-9.754 2.12-18.082 6.35-24.985 4.22-6.904 10.28-11.395 18.17-13.476m26.78 4.12c2.08 0 3.68.486 4.78 1.459 1.11.972 1.9 2.506 2.35 4.6q.69 3.14.69 9.179c0 1.324-.02 3.242-.08 5.755l-.16 6.403c-.22 6.079-.32 10.862-.32 14.347q0 4.215.18 6.586c.12 1.58.32 2.776.59 3.586.27.811.6 1.358 1.01 1.642q.6.425 1.5.425 1.05 0 2.25-.709c.8-.473 1.77-1.331 2.94-2.574l2.27 2.27c-1.76 1.783-3.5 3.175-5.21 4.174q-2.58 1.5-4.56 1.5c-1.54 0-2.72-.311-3.53-.932-.81-.622-1.39-1.648-1.76-3.08-.36-1.432-.55-3.54-.55-6.323 0-3.836.29-10.118.85-18.845h-.4q-12.165 17.833-18.36 28.531h-8.23l.41-1.985c1.24-1.513 2.48-3.087 3.73-4.722 1.24-1.634 2.75-3.708 4.54-6.221l18.15-25.775c-.02-2.756-.15-5.066-.36-6.93-.22-1.865-.52-3.344-.89-4.438q-.57-1.641-1.5-2.411c-.63-.514-1.48-.771-2.56-.771-.89 0-1.79.257-2.71.771-.92.513-2.26 1.567-4.01 3.161l-2.11-2.351q3.72-3.688 6.18-5.005c1.63-.878 3.26-1.317 4.88-1.317"/><text x="1882.28" y="906.675" fill-opacity="0" font-family="Arial,Arial_MSFontService,sans-serif" font-size="58.643">𝜆</text><path fill-rule="evenodd" d="M1942.43 891.629q3.09 0 5.28.7c1.46.467 2.65 1.097 3.56 1.892a6.74 6.74 0 0 1 1.98 2.859c.41 1.112.61 2.313.61 3.604 0 .774-.05 1.494-.16 2.16q-.165.997-.57 1.965c-.26.646-.62 1.296-1.05 1.951a20 20 0 0 1-1.64 2.085c-.5.636-1.14 1.37-1.94 2.204-.79.834-1.66 1.728-2.6 2.681l-2.97 2.978a293 293 0 0 0-3.01 3.068 75 75 0 0 0-2.68 2.949c-.81.953-1.48 1.827-1.99 2.621h11.02c.93 0 1.68-.035 2.23-.104.56-.07 1.02-.223 1.39-.462.36-.238.68-.6.94-1.087.25-.486.55-1.157.89-2.01h2.77c-.1 1.409-.19 2.829-.28 4.259s-.19 2.849-.29 4.259h-25.23v-1.549a29 29 0 0 1 1.67-3.172c.64-1.042 1.35-2.1 2.15-3.172a46 46 0 0 1 2.71-3.321 81 81 0 0 1 3.36-3.559q2.805-2.8 4.56-4.781c1.17-1.32 2.1-2.497 2.77-3.529.68-1.033 1.14-1.986 1.39-2.86.24-.873.37-1.807.37-2.8 0-1.012-.15-1.945-.43-2.799-.29-.854-.7-1.579-1.24-2.175q-.81-.893-2.04-1.4c-.82-.337-1.77-.506-2.84-.506q-2.775 0-4.65 1.504c-1.25 1.003-2.23 2.458-2.92 4.364h-3.9v-5.808c2.54-1.053 4.88-1.817 7.01-2.294 2.14-.476 4.06-.715 5.77-.715"/><text x="1928.69" y="925.38" fill-opacity="0" font-family="Arial,Arial_MSFontService,sans-serif" font-size="38.572">2</text><path fill="#d9d9d9" d="m2217.695 844.974-27.154 4.35 1.45 9.052 27.154-4.35Zm-36.205 5.8-27.154 4.35 1.45 9.052 27.154-4.35Zm-36.205 5.8-27.154 4.35 1.45 9.052 27.154-4.35Zm-36.205 5.8-27.154 4.35 1.45 9.052 27.154-4.35Zm-36.205 5.8-27.154 4.35 1.45 9.052 27.154-4.35Zm-28.746-13.962-41.632 29.879 48.882 15.378Z"/></g></svg>