<svg width="1299" height="1073" xmlns="http://www.w3.org/2000/svg" xmlns:xlink="http://www.w3.org/1999/xlink" overflow="hidden"><defs><clipPath id="clip0"><rect x="1570" y="-1" width="1299" height="1073"/></clipPath></defs><g clip-path="url(#clip0)" transform="translate(-1570 1)"><path d="M1571.5 951.917 2780.76 951.917 2780.76 961.084 1571.5 961.083ZM2776.17 933.584 2822 956.501 2776.17 979.417Z"/><path d="M4.58333-1.68079e-06 4.58368 942.863-4.58299 942.863-4.58333 1.68079e-06ZM22.917 938.28 0.000360892 984.113-22.9163 938.28Z" transform="matrix(1 0 0 -1 2218.5 1029.61)"/><path d="M1571.5 684.5 2218.75 684.5" stroke="#000000" stroke-width="9.16667" stroke-miterlimit="8" stroke-dasharray="27.5 9.16667" fill="none" fill-rule="evenodd"/><path d="M2761.96 876.867C2763.69 876.867 2765.05 877.448 2766.05 878.61 2767.05 879.772 2767.55 881.339 2767.55 883.311 2767.55 885.446 2767.13 888.107 2766.29 891.295L2764.51 898.306C2764.05 900.09 2763.72 901.481 2763.52 902.481 2763.32 903.48 2763.17 904.345 2763.07 905.074 2762.98 905.804 2762.93 906.412 2762.93 906.898 2762.93 908.762 2763.24 910.107 2763.86 910.931 2764.48 911.755 2765.5 912.167 2766.9 912.167 2768.04 912.167 2769.26 911.714 2770.57 910.809 2771.88 909.904 2773.27 908.539 2774.74 906.716 2776.22 904.892 2777.4 903.122 2778.29 901.407 2779.18 899.691 2779.91 897.577 2780.48 895.064L2784.33 877.516 2791.34 877.516 2785.42 903.21C2784.83 905.804 2784.53 907.803 2784.53 909.208 2784.53 910.289 2784.71 911.072 2785.06 911.559 2785.41 912.045 2785.96 912.288 2786.72 912.288 2787.53 912.288 2788.4 911.957 2789.31 911.295 2790.23 910.633 2791.53 909.37 2793.2 907.506L2795.51 909.776C2793.06 912.396 2790.96 914.247 2789.23 915.328 2787.5 916.409 2785.67 916.949 2783.72 916.949 2782.05 916.949 2780.71 916.395 2779.71 915.287 2778.71 914.18 2778.21 912.707 2778.21 910.87 2778.21 909.411 2778.53 907.817 2779.18 906.088L2778.7 905.925C2776.02 909.681 2773.49 912.45 2771.1 914.234 2768.71 916.017 2766.25 916.908 2763.74 916.908 2761.23 916.908 2759.3 916.186 2757.95 914.74 2756.6 913.295 2755.92 911.289 2755.92 908.722 2755.92 907.02 2756.31 904.602 2757.09 901.467L2759.73 890.849C2760.46 887.904 2760.82 885.824 2760.82 884.608 2760.82 883.527 2760.65 882.744 2760.3 882.258 2759.95 881.771 2759.39 881.528 2758.64 881.528 2757.8 881.528 2756.91 881.872 2755.98 882.561 2755.05 883.25 2753.77 884.5 2752.15 886.31L2749.84 884.041C2752.14 881.717 2753.87 880.123 2755.03 879.258 2756.19 878.394 2757.3 877.779 2758.37 877.414 2759.44 877.05 2760.63 876.867 2761.96 876.867Z" fill-rule="evenodd"/><text fill="#000000" fill-opacity="0" font-family="Arial,Arial_MSFontService,sans-serif" font-size="40.0815" x="2749.84" y="911.939">𝑢</text><path d="M2271.3 92.3471 2276.89 92.3471 2274.66 102.357 2286.99 102.357 2286.09 106.451 2273.77 106.451 2270.17 122.175C2269.46 125.228 2269.02 127.424 2268.83 128.761 2268.64 130.098 2268.55 131.172 2268.55 131.983 2268.55 135.333 2269.94 137.008 2272.72 137.008 2273.91 137.008 2275.17 136.556 2276.51 135.651 2277.85 134.745 2279.43 133.199 2281.27 131.01L2283.62 133.442C2281.27 136.279 2279.01 138.373 2276.83 139.724 2274.66 141.074 2272.38 141.75 2270 141.75 2264.36 141.75 2261.53 138.9 2261.53 133.199 2261.53 131.388 2261.76 129.484 2262.22 127.484L2267.01 106.451 2260.2 106.451 2260.8 103.654C2262.4 103.627 2263.61 103.506 2264.43 103.29 2265.26 103.073 2265.94 102.776 2266.5 102.398 2267.05 102.02 2267.56 101.479 2268.02 100.777 2268.48 100.074 2268.92 99.176 2269.36 98.0817 2269.79 96.9875 2270.44 95.076 2271.3 92.3471Z" fill-rule="evenodd"/><text fill="#000000" fill-opacity="0" font-family="Arial,Arial_MSFontService,sans-serif" font-size="49.4028" x="2260.2" y="135.575">𝑡</text><path d="M2278.11 678.62C2276.73 678.62 2275.38 679.086 2274.04 680.018 2272.7 680.95 2271.24 682.443 2269.64 684.496 2268.05 686.549 2266.8 688.576 2265.91 690.575 2265.02 692.574 2264.32 694.871 2263.81 697.465L2263.48 699.167C2263.21 700.599 2263.04 701.693 2262.97 702.45 2262.91 703.206 2262.87 703.949 2262.87 704.679 2262.87 706.786 2263.33 708.319 2264.23 709.278 2265.14 710.238 2266.7 710.717 2268.91 710.717 2270.29 710.717 2271.56 710.447 2272.72 709.907 2273.88 709.366 2274.98 708.583 2276.02 707.556 2277.06 706.529 2278 705.286 2278.84 703.828 2279.68 702.369 2280.43 700.673 2281.09 698.741 2281.75 696.81 2282.25 694.824 2282.59 692.784 2282.93 690.744 2283.1 688.832 2283.1 687.049 2283.1 684.212 2282.7 682.098 2281.9 680.707 2281.1 679.315 2279.84 678.62 2278.11 678.62ZM2261.05 673.837C2262.72 673.837 2264.06 674.391 2265.04 675.499 2266.03 676.607 2266.52 678.079 2266.52 679.916 2266.52 681.429 2266.21 683.023 2265.59 684.699L2266.08 684.861C2271.07 677.539 2276.04 673.878 2280.99 673.878 2283.93 673.878 2286.22 674.999 2287.86 677.242 2289.49 679.484 2290.31 682.645 2290.31 686.725 2290.31 691.183 2289.41 695.567 2287.62 699.876 2285.82 704.185 2283.33 707.603 2280.14 710.13 2276.95 712.656 2273.38 713.919 2269.44 713.919 2265.85 713.919 2262.86 713.135 2260.48 711.568L2258.62 720.444C2258.21 722.362 2258.01 723.943 2258.01 725.185 2258.01 726.374 2258.31 727.219 2258.92 727.718 2259.53 728.218 2260.71 728.549 2262.47 728.711L2262.14 730.697 2249.62 730.697 2259.39 687.698C2259.96 685.212 2260.24 683.172 2260.24 681.578 2260.24 680.497 2260.06 679.714 2259.71 679.227 2259.36 678.741 2258.81 678.498 2258.05 678.498 2257.21 678.498 2256.33 678.842 2255.4 679.531 2254.46 680.22 2253.19 681.47 2251.57 683.28L2249.26 681.011C2251.69 678.471 2253.75 676.64 2255.44 675.519 2257.13 674.398 2259 673.837 2261.05 673.837Z" fill-rule="evenodd"/><text fill="#000000" fill-opacity="0" font-family="Arial,Arial_MSFontService,sans-serif" font-size="56.8599" x="2249.26" y="723.59">𝑝</text><path d="M2308.71 654.383 2312.64 654.383 2311.77 663.706 2319.43 658.315 2321.36 661.651 2312.88 665.612 2321.36 669.603 2319.43 672.909 2311.77 667.518 2312.64 676.841 2308.71 676.841 2309.6 667.518 2301.91 672.909 2299.95 669.603 2308.47 665.612 2299.95 661.651 2301.91 658.315 2309.6 663.706Z" fill-rule="evenodd"/><text fill="#000000" fill-opacity="0" font-family="Arial,Arial_MSFontService,sans-serif" font-size="22.458" x="2299.95" y="674.034">∗</text><path d="M1967.9 451.634C1990.94 393.908 2015.23 338.957 2047.02 296.772 2078.8 254.588 2117.34 213.976 2158.61 198.527 2199.88 183.078 2250.59 178.73 2294.64 204.077 2338.68 229.425 2370.33 268.834 2422.89 350.613 2475.45 432.392 2576.04 618.522 2610 694.75 2643.96 770.978 2636.65 791.33 2626.65 807.982 2616.66 824.634 2590.93 827.224 2550.03 794.661 2509.13 762.097 2437.33 657.284 2381.25 612.601 2325.17 567.919 2265.12 532.025 2213.58 526.567 2162.04 521.109 2116.97 554.042 2072 579.853 2027.03 605.663 1970.95 670.882 1943.75 681.429 1916.54 691.975 1904.74 681.429 1908.77 643.129 1912.79 604.83 1944.86 509.36 1967.9 451.634Z" fill="#F8CCB9" fill-rule="evenodd"/><path d="M2280.66 436.061C2286.39 436.061 2291.52 436.831 2296.06 438.371L2293.59 449.962 2288.28 449.962C2288.28 447.611 2288.03 445.781 2287.53 444.47 2287.03 443.16 2286.26 442.221 2285.24 441.654 2284.21 441.086 2282.83 440.803 2281.1 440.803 2277.51 440.803 2274.28 442.457 2271.42 445.767 2268.55 449.077 2266.12 453.94 2264.12 460.357 2262.12 466.774 2261.12 472.549 2261.12 477.682 2261.12 484.518 2263.38 487.936 2267.89 487.936 2270.05 487.936 2271.84 487.254 2273.24 485.889 2274.65 484.525 2275.67 482.411 2276.32 479.547L2276.89 476.993C2277.1 475.994 2277.24 475.163 2277.29 474.501 2277.35 473.839 2277.37 473.238 2277.37 472.698 2277.37 471.59 2277.12 470.759 2276.6 470.205 2276.09 469.651 2275.21 469.293 2273.97 469.131L2274.54 466.456 2294.32 466.456 2293.75 469.131C2292.69 469.482 2291.91 469.908 2291.4 470.408 2290.88 470.908 2290.42 471.637 2290.02 472.596 2289.61 473.555 2289.17 475.156 2288.68 477.399L2285.56 491.381 2279.97 492.678 2277.82 489.8C2274.28 491.718 2270.59 492.678 2266.76 492.678 2261.08 492.678 2256.73 491.083 2253.69 487.895 2250.65 484.707 2249.13 480.101 2249.13 474.076 2249.13 470.347 2249.76 466.085 2251.03 461.289 2252.3 456.493 2254.27 452.17 2256.93 448.32 2259.59 444.47 2262.93 441.465 2266.96 439.303 2270.98 437.142 2275.55 436.061 2280.66 436.061Z" fill="#D74514" fill-rule="evenodd"/><text fill="#000000" fill-opacity="0" font-family="Arial,Arial_MSFontService,sans-serif" font-size="56.6167" x="2249.13" y="485.6">𝑮</text><path d="M1571.5 750.5 2717.86 828.393" stroke="#5D1709" stroke-width="9.16667" stroke-miterlimit="8" fill="none" fill-rule="evenodd"/><path d="M1572.5 559.5 2717.7 1067.16" stroke="#5D1709" stroke-width="9.16667" stroke-miterlimit="8" fill="none" fill-rule="evenodd"/><path d="M2520.96 681.202C2518.21 681.202 2515.73 682.316 2513.55 684.545 2511.36 686.774 2509.63 689.78 2508.38 693.563 2507.12 697.345 2506.49 701.114 2506.49 704.87 2506.49 707.68 2506.9 709.78 2507.71 711.172 2508.52 712.563 2509.79 713.259 2511.52 713.259 2512.9 713.259 2514.27 712.786 2515.63 711.841 2517 710.895 2518.46 709.395 2520.01 707.342 2521.56 705.289 2522.77 703.33 2523.64 701.466 2524.5 699.601 2525.24 697.278 2525.85 694.495 2526.45 691.712 2526.76 689.294 2526.76 687.24 2526.76 685.133 2526.31 683.6 2525.42 682.641 2524.53 681.681 2523.04 681.202 2520.96 681.202ZM2520.31 678C2522.02 678 2523.62 678.203 2525.14 678.608 2526.65 679.013 2528.18 679.702 2529.72 680.675L2533.44 678 2536.04 678.649 2531.86 697.534C2531.57 698.858 2530.89 702.195 2529.84 707.545 2528.73 713.218 2527.83 717.231 2527.14 719.581 2526.45 721.932 2525.6 724.073 2524.57 726.005 2523.54 727.937 2522.22 729.619 2520.6 731.05 2518.98 732.482 2517.01 733.59 2514.7 734.374 2512.39 735.157 2509.65 735.549 2506.49 735.549 2496.28 735.549 2491.17 732.577 2491.17 726.633 2491.17 725.12 2491.63 723.742 2492.55 722.499 2493.47 721.256 2494.94 719.946 2496.97 718.568L2499.89 720.919C2499.37 721.54 2498.94 722.155 2498.59 722.763 2498.24 723.371 2497.99 723.958 2497.84 724.526 2497.69 725.093 2497.62 725.768 2497.62 726.552 2497.62 728.578 2498.35 730.058 2499.81 730.99 2501.27 731.922 2503.47 732.388 2506.41 732.388 2509.74 732.388 2512.4 731.638 2514.42 730.139 2516.43 728.639 2518.15 726.228 2519.58 722.904 2521.02 719.581 2522.41 714.556 2523.76 707.828L2523.19 707.707C2520.57 711.3 2518.14 713.921 2515.9 715.569 2513.65 717.217 2511.24 718.041 2508.64 718.041 2505.7 718.041 2503.41 716.933 2501.77 714.718 2500.14 712.502 2499.32 709.341 2499.32 705.235 2499.32 700.614 2500.23 696.177 2502.04 691.921 2503.85 687.666 2506.36 684.282 2509.57 681.769 2512.79 679.257 2516.37 678 2520.31 678Z" fill-rule="evenodd"/><text fill="#000000" fill-opacity="0" font-family="Arial,Arial_MSFontService,sans-serif" font-size="57.5488" x="2491.17" y="728.355">𝑔</text><path d="M2653.08 655.319C2660.97 657.4 2667.03 661.891 2671.25 668.794 2675.48 675.698 2677.6 684.026 2677.6 693.78 2677.6 703.56 2675.49 711.889 2671.27 718.765 2667.06 725.641 2660.99 730.119 2653.08 732.2L2652.11 729.079C2658.35 726.999 2662.99 722.892 2666.03 716.759 2669.07 710.625 2670.59 702.831 2670.59 693.374 2670.59 684.242 2669.07 676.657 2666.05 670.618 2663.02 664.58 2658.33 660.52 2651.98 658.44ZM2573.61 655.319 2574.7 658.44C2568.38 660.52 2563.7 664.58 2560.66 670.618 2557.62 676.657 2556.1 684.242 2556.1 693.374 2556.1 702.831 2557.62 710.625 2560.66 716.759 2563.7 722.892 2568.34 726.999 2574.58 729.079L2573.61 732.2C2565.69 730.119 2559.63 725.641 2555.41 718.765 2551.2 711.889 2549.09 703.56 2549.09 693.78 2549.09 684.026 2551.21 675.698 2555.43 668.794 2559.66 661.891 2565.72 657.4 2573.61 655.319Z" fill-rule="evenodd"/><path d="M2600.39 659.439C2602.47 659.439 2604.06 659.925 2605.17 660.898 2606.28 661.87 2607.06 663.404 2607.52 665.497 2607.98 667.591 2608.21 670.651 2608.21 674.677 2608.21 676.001 2608.19 677.919 2608.13 680.432L2607.97 686.835C2607.75 692.914 2607.64 697.696 2607.64 701.182 2607.64 703.992 2607.71 706.187 2607.83 707.768 2607.95 709.348 2608.14 710.544 2608.41 711.354 2608.69 712.165 2609.02 712.712 2609.43 712.996 2609.83 713.279 2610.33 713.421 2610.93 713.421 2611.63 713.421 2612.38 713.185 2613.18 712.712 2613.97 712.239 2614.95 711.381 2616.11 710.138L2618.38 712.408C2616.63 714.191 2614.89 715.583 2613.18 716.582 2611.46 717.582 2609.94 718.082 2608.62 718.082 2607.08 718.082 2605.9 717.771 2605.09 717.15 2604.28 716.528 2603.69 715.501 2603.33 714.07 2602.96 712.638 2602.78 710.53 2602.78 707.747 2602.78 703.911 2603.07 697.629 2603.63 688.902L2603.23 688.902C2595.12 700.79 2589 710.3 2584.87 717.433L2576.64 717.433 2577.05 715.447C2578.29 713.934 2579.53 712.361 2580.78 710.726 2582.02 709.091 2583.53 707.018 2585.31 704.505L2603.47 678.73C2603.44 675.974 2603.32 673.664 2603.11 671.799 2602.89 669.935 2602.59 668.456 2602.21 667.362 2601.84 666.268 2601.34 665.464 2600.71 664.95 2600.09 664.437 2599.24 664.18 2598.16 664.18 2597.27 664.18 2596.36 664.437 2595.45 664.95 2594.53 665.464 2593.19 666.517 2591.43 668.112L2589.33 665.761C2591.81 663.302 2593.87 661.634 2595.51 660.756 2597.14 659.878 2598.77 659.439 2600.39 659.439Z" fill-rule="evenodd"/><text fill="#000000" fill-opacity="0" font-family="Arial,Arial_MSFontService,sans-serif" font-size="58.6431" x="2576.64" y="710.751">𝜆</text><path d="M2630.59 658.546 2634.52 658.546 2633.66 667.869 2641.31 662.478 2643.25 665.814 2634.76 669.775 2643.25 673.766 2641.31 677.072 2633.66 671.681 2634.52 681.004 2630.59 681.004 2631.48 671.681 2623.8 677.072 2621.83 673.766 2630.35 669.775 2621.83 665.814 2623.8 662.478 2631.48 667.869Z" fill-rule="evenodd"/><text fill="#000000" fill-opacity="0" font-family="Arial,Arial_MSFontService,sans-serif" font-size="22.458" x="2621.83" y="678.197">∗</text><path d="M1571.5 611.5 2718.21 846.804" stroke="#D74514" stroke-width="9.16667" stroke-miterlimit="8" fill="none" fill-rule="evenodd"/><path d="M0.903817-4.49333 27.8638 0.929567 26.0562 9.91624-0.903817 4.49333ZM36.8505 2.7372 63.8105 8.1601 62.0029 17.1468 35.0429 11.7239ZM72.7972 9.96774 99.7572 15.3906 97.9495 24.3773 70.9895 18.9544ZM108.744 17.1983 135.704 22.6212 133.896 31.6078 106.936 26.1849ZM144.691 24.4288 171.651 29.8517 169.843 38.8384 142.883 33.4155ZM180.637 31.6593 207.597 37.0822 205.79 46.0689 178.83 40.646ZM216.584 38.8899 224.398 40.4618 222.591 49.4484 214.776 47.8765ZM223.52 21.5846 263.935 53.0894 214.482 66.5179Z" fill="#D9D9D9" transform="matrix(1 0 0 -1 2218.5 741.589)"/><path d="M2511.58 879.895C2508.82 879.895 2506.35 881.01 2504.16 883.239 2501.97 885.468 2500.25 888.473 2498.99 892.256 2497.74 896.038 2497.11 899.807 2497.11 903.563 2497.11 906.373 2497.51 908.474 2498.33 909.865 2499.14 911.256 2500.41 911.952 2502.13 911.952 2503.51 911.952 2504.88 911.479 2506.25 910.534 2507.61 909.588 2509.07 908.089 2510.63 906.035 2512.18 903.982 2513.39 902.023 2514.25 900.159 2515.12 898.294 2515.85 895.971 2516.46 893.188 2517.07 890.405 2517.37 887.987 2517.37 885.934 2517.37 883.826 2516.93 882.293 2516.04 881.334 2515.14 880.375 2513.66 879.895 2511.58 879.895ZM2510.93 876.693C2512.63 876.693 2514.24 876.896 2515.75 877.301 2517.26 877.707 2518.79 878.396 2520.33 879.368L2524.06 876.693 2526.65 877.342 2522.48 896.228C2522.18 897.552 2521.51 900.888 2520.45 906.238 2519.35 911.912 2518.45 915.924 2517.76 918.274 2517.07 920.625 2516.21 922.766 2515.18 924.698 2514.16 926.63 2512.83 928.312 2511.21 929.744 2509.59 931.176 2507.63 932.283 2505.32 933.067 2503.01 933.85 2500.27 934.242 2497.11 934.242 2486.9 934.242 2481.79 931.27 2481.79 925.326 2481.79 923.813 2482.25 922.435 2483.17 921.192 2484.09 919.95 2485.56 918.639 2487.59 917.261L2490.5 919.612C2489.99 920.233 2489.56 920.848 2489.21 921.456 2488.86 922.064 2488.61 922.651 2488.46 923.219 2488.31 923.786 2488.23 924.462 2488.23 925.245 2488.23 927.272 2488.96 928.751 2490.42 929.683 2491.88 930.615 2494.08 931.081 2497.03 931.081 2500.35 931.081 2503.02 930.331 2505.03 928.832 2507.05 927.332 2508.77 924.921 2510.2 921.598 2511.63 918.274 2513.02 913.249 2514.37 906.522L2513.81 906.4C2511.19 909.993 2508.75 912.614 2506.51 914.262 2504.27 915.91 2501.85 916.734 2499.26 916.734 2496.31 916.734 2494.02 915.627 2492.39 913.411 2490.75 911.196 2489.94 908.035 2489.94 903.928 2489.94 899.308 2490.84 894.87 2492.65 890.615 2494.46 886.359 2496.97 882.975 2500.19 880.462 2503.4 877.95 2506.98 876.693 2510.93 876.693Z" fill-rule="evenodd"/><text fill="#000000" fill-opacity="0" font-family="Arial,Arial_MSFontService,sans-serif" font-size="57.5488" x="2481.79" y="927.049">𝑔</text><path d="M2648.71 854.012C2656.6 856.093 2662.66 860.585 2666.89 867.488 2671.12 874.391 2673.23 882.719 2673.23 892.473 2673.23 902.254 2671.12 910.582 2666.91 917.458 2662.69 924.334 2656.63 928.812 2648.71 930.893L2647.74 927.772C2653.98 925.692 2658.62 921.585 2661.66 915.452 2664.7 909.319 2666.22 901.524 2666.22 892.068 2666.22 882.935 2664.71 875.35 2661.68 869.312 2658.66 863.273 2653.97 859.214 2647.62 857.133ZM2564.23 854.012 2565.32 857.133C2559 859.214 2554.32 863.273 2551.28 869.312 2548.24 875.35 2546.72 882.935 2546.72 892.068 2546.72 901.524 2548.24 909.319 2551.28 915.452 2554.32 921.585 2558.96 925.692 2565.2 927.772L2564.23 930.893C2556.31 928.812 2550.24 924.334 2546.03 917.458 2541.81 910.582 2539.71 902.254 2539.71 892.473 2539.71 882.719 2541.82 874.391 2546.05 867.488 2550.28 860.585 2556.34 856.093 2564.23 854.012Z" fill-rule="evenodd"/><path d="M2591.01 858.132C2593.09 858.132 2594.68 858.618 2595.79 859.591 2596.9 860.564 2597.68 862.097 2598.14 864.191 2598.6 866.285 2598.83 869.344 2598.83 873.37 2598.83 874.694 2598.8 876.612 2598.75 879.125L2598.58 885.528C2598.37 891.607 2598.26 896.39 2598.26 899.875 2598.26 902.685 2598.32 904.88 2598.44 906.461 2598.56 908.041 2598.76 909.237 2599.03 910.047 2599.3 910.858 2599.64 911.405 2600.04 911.689 2600.45 911.972 2600.95 912.114 2601.54 912.114 2602.25 912.114 2603 911.878 2603.79 911.405 2604.59 910.932 2605.57 910.074 2606.73 908.832L2609 911.101C2607.24 912.884 2605.51 914.276 2603.79 915.275 2602.08 916.275 2600.56 916.775 2599.23 916.775 2597.69 916.775 2596.52 916.464 2595.71 915.843 2594.9 915.221 2594.31 914.195 2593.94 912.763 2593.58 911.331 2593.4 909.223 2593.4 906.44 2593.4 902.604 2593.68 896.322 2594.25 887.595L2593.84 887.595C2585.74 899.483 2579.62 908.994 2575.48 916.127L2567.26 916.127 2567.66 914.141C2568.91 912.628 2570.15 911.054 2571.39 909.419 2572.63 907.785 2574.15 905.711 2575.93 903.198L2594.09 877.423C2594.06 874.667 2593.94 872.357 2593.72 870.493 2593.51 868.628 2593.21 867.149 2592.83 866.055 2592.45 864.961 2591.95 864.157 2591.33 863.644 2590.71 863.13 2589.86 862.874 2588.78 862.874 2587.89 862.874 2586.98 863.13 2586.06 863.644 2585.14 864.157 2583.81 865.211 2582.05 866.805L2579.94 864.454C2582.43 861.995 2584.49 860.327 2586.12 859.449 2587.76 858.571 2589.39 858.132 2591.01 858.132Z" fill-rule="evenodd"/><text fill="#000000" fill-opacity="0" font-family="Arial,Arial_MSFontService,sans-serif" font-size="58.6431" x="2567.26" y="909.445">𝜆</text><path d="M2627.82 894.607 2629.64 894.607C2629.6 895.699 2629.57 896.677 2629.55 897.541 2629.53 898.405 2629.51 899.244 2629.5 900.058 2629.49 900.872 2629.49 901.676 2629.49 902.47L2629.49 925.107C2629.49 925.723 2629.51 926.254 2629.55 926.701 2629.59 927.147 2629.65 927.525 2629.74 927.832 2629.83 928.14 2629.95 928.403 2630.1 928.622 2630.25 928.84 2630.42 929.029 2630.62 929.188 2630.86 929.426 2631.18 929.609 2631.57 929.739 2631.97 929.868 2632.48 929.977 2633.09 930.066 2633.71 930.156 2634.45 930.225 2635.31 930.275 2636.18 930.324 2637.21 930.359 2638.42 930.379L2638.42 932.97 2614.8 932.97 2614.8 930.379C2615.98 930.339 2616.97 930.295 2617.78 930.245 2618.6 930.195 2619.29 930.126 2619.87 930.036 2620.44 929.947 2620.91 929.848 2621.25 929.739 2621.6 929.629 2621.9 929.495 2622.16 929.336 2622.44 929.158 2622.68 928.964 2622.88 928.756 2623.07 928.547 2623.23 928.284 2623.35 927.966 2623.47 927.649 2623.57 927.261 2623.64 926.805 2623.71 926.348 2623.74 925.782 2623.74 925.107L2623.74 903.751C2623.74 902.977 2623.59 902.431 2623.29 902.113 2623 901.795 2622.57 901.636 2622.01 901.636 2621.4 901.636 2620.48 901.954 2619.27 902.589 2618.06 903.225 2616.49 904.168 2614.57 905.419 2614.31 904.962 2614.07 904.506 2613.85 904.049 2613.63 903.592 2613.4 903.126 2613.17 902.649 2615.63 901.299 2618.07 899.953 2620.48 898.613 2622.89 897.273 2625.34 895.937 2627.82 894.607Z" fill-rule="evenodd"/><text fill="#000000" fill-opacity="0" font-family="Arial,Arial_MSFontService,sans-serif" font-size="38.3633" x="2613.17" y="928.175">1</text><path d="M2220.08 791.196 2245.9 800.648 2242.75 809.256 2216.92 799.804ZM2254.51 803.799 2280.33 813.252 2277.18 821.86 2251.36 812.407ZM2288.94 816.402 2314.76 825.855 2311.61 834.463 2285.79 825.01ZM2323.37 829.006 2349.2 838.458 2346.05 847.066 2320.22 837.614ZM2357.81 841.609 2383.63 851.061 2380.48 859.669 2354.65 850.217ZM2392.24 854.212 2418.06 863.665 2414.91 872.273 2389.09 862.82ZM2426.67 866.815 2431.52 868.591 2428.37 877.2 2423.52 875.423ZM2433.52 849.8 2468.68 887.074 2417.77 892.841Z" fill="#D9D9D9"/><path d="M1826.6 877.126C1823.85 877.126 1821.38 878.24 1819.19 880.469 1817 882.698 1815.28 885.704 1814.02 889.487 1812.76 893.269 1812.14 897.038 1812.14 900.794 1812.14 903.604 1812.54 905.705 1813.35 907.096 1814.16 908.487 1815.43 909.183 1817.16 909.183 1818.54 909.183 1819.91 908.71 1821.27 907.765 1822.64 906.819 1824.1 905.32 1825.65 903.266 1827.2 901.213 1828.41 899.254 1829.28 897.39 1830.14 895.525 1830.88 893.202 1831.49 890.419 1832.09 887.636 1832.4 885.218 1832.4 883.165 1832.4 881.057 1831.95 879.524 1831.06 878.565 1830.17 877.606 1828.68 877.126 1826.6 877.126ZM1825.96 873.924C1827.66 873.924 1829.26 874.127 1830.78 874.532 1832.29 874.938 1833.82 875.626 1835.36 876.599L1839.09 873.924 1841.68 874.573 1837.51 893.458C1837.21 894.782 1836.53 898.119 1835.48 903.469 1834.37 909.143 1833.47 913.155 1832.78 915.505 1832.09 917.856 1831.24 919.997 1830.21 921.929 1829.18 923.861 1827.86 925.543 1826.24 926.975 1824.62 928.407 1822.65 929.514 1820.34 930.298 1818.03 931.081 1815.3 931.473 1812.14 931.473 1801.92 931.473 1796.82 928.501 1796.82 922.557 1796.82 921.044 1797.28 919.666 1798.19 918.423 1799.11 917.18 1800.58 915.87 1802.61 914.492L1805.53 916.843C1805.02 917.464 1804.58 918.079 1804.23 918.687 1803.88 919.295 1803.63 919.882 1803.48 920.45 1803.33 921.017 1803.26 921.693 1803.26 922.476 1803.26 924.502 1803.99 925.982 1805.45 926.914 1806.91 927.846 1809.11 928.312 1812.05 928.312 1815.38 928.312 1818.05 927.562 1820.06 926.063 1822.07 924.563 1823.79 922.152 1825.23 918.829 1826.66 915.505 1828.05 910.48 1829.4 903.752L1828.83 903.631C1826.21 907.224 1823.78 909.845 1821.54 911.493 1819.3 913.141 1816.88 913.965 1814.28 913.965 1811.34 913.965 1809.05 912.858 1807.41 910.642 1805.78 908.427 1804.96 905.265 1804.96 901.159 1804.96 896.539 1805.87 892.101 1807.68 887.845 1809.49 883.59 1812 880.206 1815.22 877.693 1818.43 875.181 1822.01 873.924 1825.96 873.924Z" fill-rule="evenodd"/><text fill="#000000" fill-opacity="0" font-family="Arial,Arial_MSFontService,sans-serif" font-size="57.5488" x="1796.82" y="924.28">𝑔</text><path d="M1965.64 851.243C1973.53 853.324 1979.59 857.815 1983.82 864.719 1988.05 871.622 1990.16 879.95 1990.16 889.704 1990.16 899.484 1988.05 907.813 1983.84 914.689 1979.62 921.565 1973.56 926.043 1965.64 928.124L1964.67 925.003C1970.91 922.923 1975.55 918.816 1978.59 912.683 1981.63 906.55 1983.15 898.755 1983.15 889.298 1983.15 880.166 1981.64 872.581 1978.61 866.542 1975.58 860.504 1970.9 856.444 1964.55 854.364ZM1879.25 851.243 1880.35 854.364C1874.02 856.444 1869.34 860.504 1866.3 866.542 1863.26 872.581 1861.74 880.166 1861.74 889.298 1861.74 898.755 1863.26 906.55 1866.3 912.683 1869.34 918.816 1873.98 922.923 1880.22 925.003L1879.25 928.124C1871.34 926.043 1865.27 921.565 1861.05 914.689 1856.84 907.813 1854.73 899.484 1854.73 889.704 1854.73 879.95 1856.85 871.622 1861.08 864.719 1865.3 857.815 1871.36 853.324 1879.25 851.243Z" fill-rule="evenodd"/><path d="M1906.03 855.363C1908.11 855.363 1909.71 855.849 1910.81 856.822 1911.92 857.794 1912.71 859.328 1913.16 861.422 1913.62 863.516 1913.85 866.575 1913.85 870.601 1913.85 871.925 1913.83 873.843 1913.77 876.356L1913.61 882.759C1913.39 888.838 1913.29 893.621 1913.29 897.106 1913.29 899.916 1913.35 902.111 1913.47 903.692 1913.59 905.272 1913.79 906.468 1914.06 907.278 1914.33 908.089 1914.66 908.636 1915.07 908.92 1915.47 909.203 1915.97 909.345 1916.57 909.345 1917.27 909.345 1918.02 909.109 1918.82 908.636 1919.62 908.163 1920.59 907.305 1921.76 906.062L1924.03 908.332C1922.27 910.115 1920.53 911.507 1918.82 912.506 1917.1 913.506 1915.58 914.006 1914.26 914.006 1912.72 914.006 1911.54 913.695 1910.73 913.074 1909.92 912.452 1909.34 911.426 1908.97 909.994 1908.61 908.562 1908.42 906.454 1908.42 903.671 1908.42 899.835 1908.71 893.553 1909.27 884.826L1908.87 884.826C1900.76 896.714 1894.64 906.225 1890.51 913.357L1882.28 913.357 1882.69 911.372C1883.93 909.859 1885.17 908.285 1886.42 906.65 1887.66 905.016 1889.17 902.942 1890.96 900.429L1909.11 874.654C1909.09 871.898 1908.96 869.588 1908.75 867.724 1908.53 865.859 1908.23 864.38 1907.86 863.286 1907.48 862.192 1906.98 861.388 1906.36 860.875 1905.73 860.361 1904.88 860.104 1903.8 860.104 1902.91 860.104 1902.01 860.361 1901.09 860.875 1900.17 861.388 1898.83 862.442 1897.08 864.036L1894.97 861.685C1897.45 859.226 1899.51 857.558 1901.15 856.68 1902.78 855.802 1904.41 855.363 1906.03 855.363Z" fill-rule="evenodd"/><text fill="#000000" fill-opacity="0" font-family="Arial,Arial_MSFontService,sans-serif" font-size="58.6431" x="1882.28" y="906.675">𝜆</text><path d="M1942.43 891.629C1944.49 891.629 1946.25 891.863 1947.71 892.329 1949.17 892.796 1950.36 893.426 1951.27 894.221 1952.19 895.015 1952.85 895.968 1953.25 897.08 1953.66 898.192 1953.86 899.393 1953.86 900.684 1953.86 901.458 1953.81 902.178 1953.7 902.844 1953.59 903.509 1953.4 904.164 1953.13 904.809 1952.87 905.455 1952.51 906.105 1952.08 906.76 1951.64 907.416 1951.09 908.111 1950.44 908.845 1949.94 909.481 1949.3 910.215 1948.5 911.049 1947.71 911.883 1946.84 912.777 1945.9 913.73 1944.95 914.683 1943.96 915.676 1942.93 916.708 1941.9 917.741 1940.9 918.764 1939.92 919.776 1938.95 920.789 1938.06 921.772 1937.24 922.725 1936.43 923.678 1935.76 924.552 1935.25 925.346L1946.27 925.346C1947.2 925.346 1947.95 925.311 1948.5 925.242 1949.06 925.172 1949.52 925.019 1949.89 924.78 1950.25 924.542 1950.57 924.18 1950.83 923.693 1951.08 923.207 1951.38 922.536 1951.72 921.683L1954.49 921.683C1954.39 923.092 1954.3 924.512 1954.21 925.942 1954.12 927.372 1954.02 928.791 1953.92 930.201L1928.69 930.201 1928.69 928.652C1929.17 927.58 1929.73 926.523 1930.36 925.48 1931 924.438 1931.71 923.38 1932.51 922.308 1933.3 921.236 1934.2 920.129 1935.22 918.987 1936.23 917.845 1937.35 916.659 1938.58 915.428 1940.45 913.561 1941.97 911.968 1943.14 910.647 1944.31 909.327 1945.24 908.15 1945.91 907.118 1946.59 906.085 1947.05 905.132 1947.3 904.258 1947.54 903.385 1947.67 902.451 1947.67 901.458 1947.67 900.446 1947.52 899.513 1947.24 898.659 1946.95 897.805 1946.54 897.08 1946 896.484 1945.46 895.889 1944.78 895.422 1943.96 895.084 1943.14 894.747 1942.19 894.578 1941.12 894.578 1939.27 894.578 1937.72 895.08 1936.47 896.082 1935.22 897.085 1934.24 898.54 1933.55 900.446L1929.65 900.446 1929.65 894.638C1932.19 893.585 1934.53 892.821 1936.66 892.344 1938.8 891.868 1940.72 891.629 1942.43 891.629Z" fill-rule="evenodd"/><text fill="#000000" fill-opacity="0" font-family="Arial,Arial_MSFontService,sans-serif" font-size="38.5718" x="1928.69" y="925.38">2</text><path d="M0.724998-4.52563 27.8788-0.175639 26.4288 8.87562-0.724998 4.52563ZM36.93 1.27436 64.0838 5.62435 62.6338 14.6756 35.48 10.3256ZM73.1351 7.07435 100.289 11.4243 98.8389 20.4756 71.6851 16.1256ZM109.34 12.8743 136.494 17.2243 135.044 26.2756 107.89 21.9256ZM145.545 18.6743 172.699 23.0243 171.249 32.0756 144.095 27.7256ZM174.291 4.71232 215.923 34.5905 167.041 49.9686Z" fill="#D9D9D9" transform="matrix(-1 0 0 1 2218.42 849.5)"/></g></svg>