<svg xmlns="http://www.w3.org/2000/svg" width="1298" height="1031" overflow="hidden"><defs><clipPath id="a"><path d="M125 6h1298v1031H125z"/></clipPath></defs><g clip-path="url(#a)" transform="translate(-125 -6)"><path d="M125.5 959.917h1209.26v9.167l-1209.26-.001Zm1204.67-18.333L1376 964.5l-45.83 22.917Z"/><path d="M778.083 1036.61V93.747h-9.166v942.863Zm18.334-938.28L773.5 52.497 750.584 98.33Z"/><path fill="none" stroke="#000" stroke-dasharray="27.5 9.16667" stroke-miterlimit="8" stroke-width="9.167" d="M125.5 691.5h647.253"/><path fill-rule="evenodd" d="M1316.4 884.511c1.73 0 3.09.581 4.09 1.743q1.5 1.743 1.5 4.701c0 2.134-.42 4.796-1.25 7.984l-1.79 7.011q-.69 2.675-.99 4.174t-.45 2.594c-.09.73-.14 1.338-.14 1.824q0 2.796.93 4.032c.63.824 1.64 1.236 3.04 1.236 1.14 0 2.36-.452 3.67-1.357s2.7-2.27 4.18-4.094q2.205-2.735 3.54-5.309 1.335-2.572 2.19-6.342l3.85-17.548h7.01l-5.92 25.694c-.59 2.594-.89 4.593-.89 5.998 0 1.081.18 1.864.53 2.351s.9.729 1.66.729c.81 0 1.68-.331 2.59-.993q1.38-.993 3.9-3.789l2.31 2.269c-2.46 2.621-4.56 4.472-6.29 5.553s-3.56 1.621-5.51 1.621c-1.67 0-3.01-.554-4.01-1.662q-1.5-1.662-1.5-4.417c0-1.459.32-3.053.97-4.783l-.48-.162c-2.68 3.756-5.21 6.525-7.6 8.308-2.39 1.784-4.85 2.675-7.36 2.675q-3.765 0-5.79-2.168c-1.35-1.446-2.03-3.452-2.03-6.018 0-1.703.39-4.121 1.18-7.255l2.63-10.618c.73-2.945 1.09-5.025 1.09-6.241 0-1.081-.17-1.864-.52-2.351s-.91-.729-1.66-.729c-.84 0-1.73.344-2.66 1.033s-2.21 1.939-3.83 3.749l-2.31-2.27q3.45-3.485 5.19-4.782c1.16-.864 2.27-1.479 3.34-1.844s2.26-.547 3.59-.547"/><text x="1304.28" y="919.582" fill-opacity="0" font-family="Arial,Arial_MSFontService,sans-serif" font-size="40.081">𝑢</text><path fill-rule="evenodd" d="M825.742 99.99h5.592l-2.229 10.011h12.321l-.892 4.093h-12.32l-3.607 15.725q-1.054 4.58-1.338 6.586-.283 2.006-.283 3.222 0 5.025 4.174 5.025 1.783 0 3.789-1.358t4.762-4.64l2.351 2.432q-3.527 4.254-6.789 6.281t-6.828 2.027q-8.47 0-8.471-8.552 0-2.715.689-5.714l4.783-21.034h-6.809l.608-2.796q2.391-.04 3.627-.365 1.236-.324 2.067-.891.831-.568 1.52-1.621.689-1.054 1.337-2.696.649-1.64 1.946-5.734"/><text x="814.637" y="143.218" fill-opacity="0" font-family="Arial,Arial_MSFontService,sans-serif" font-size="49.403">𝑡</text><path fill-rule="evenodd" d="M832.552 686.263q-2.067 0-4.073 1.398-2.006 1.399-4.397 4.479t-3.728 6.079q-1.338 2.999-2.108 6.889l-.324 1.703q-.405 2.147-.507 3.282-.1 1.135-.101 2.229 0 3.162 1.358 4.6 1.357 1.439 4.681 1.439 2.067 0 3.809-.811 1.743-.81 3.303-2.35t2.817-3.729q1.256-2.188 2.249-5.086a37 37 0 0 0 1.5-5.958q.506-3.059.506-5.734 0-4.255-1.195-6.343t-3.79-2.087m-17.062-4.782q2.513 0 3.992 1.662t1.48 4.417q0 2.27-.933 4.782l.487.162q7.497-10.983 14.914-10.983 4.418 0 6.869 3.364 2.452 3.364 2.452 9.484 0 6.686-2.695 13.151t-7.477 10.253-10.699 3.789q-5.39 0-8.957-2.35l-1.864 8.875q-.609 2.878-.608 4.742 0 1.783.912 2.533t3.546.993l-.324 1.986h-12.523l9.767-43q.85-3.728.851-6.119 0-1.622-.527-2.351-.526-.729-1.662-.729-1.256 0-2.654 1.033-1.398 1.034-3.83 3.749l-2.31-2.27q3.648-3.809 6.18-5.491 2.534-1.682 5.613-1.682"/><text x="803.697" y="731.233" fill-opacity="0" font-family="Arial,Arial_MSFontService,sans-serif" font-size="56.86">𝑝</text><path fill-rule="evenodd" d="M863.146 662.027h3.931l-.863 9.323 7.654-5.392 1.937 3.336-8.489 3.962 8.489 3.991-1.937 3.306-7.654-5.391.863 9.323h-3.931l.893-9.323-7.684 5.391-1.966-3.306 8.519-3.991-8.519-3.962 1.966-3.336 7.684 5.392Z"/><text x="854.389" y="681.678" fill-opacity="0" font-family="Arial,Arial_MSFontService,sans-serif" font-size="22.458">∗</text><path fill="#f8ccb9" fill-rule="evenodd" d="M522.816 459.634c23.01-57.726 47.267-112.677 79.009-154.862s70.229-82.796 111.443-98.245 91.853-19.797 135.839 5.55 75.589 64.757 128.076 146.536S1130.12 626.522 1164.03 702.75s26.61 96.581 16.63 113.232c-9.98 16.652-35.66 19.242-76.51-13.321-40.84-32.564-112.551-137.377-168.55-182.06s-115.971-80.576-167.442-86.034-96.473 27.475-141.383 53.286c-44.91 25.81-100.909 91.03-128.077 101.576s-38.95 0-34.93-38.299 36.039-133.77 59.048-191.496"/><path fill="#d74514" fill-rule="evenodd" d="M835.098 443.705q8.592 0 15.4 2.31l-2.472 11.59h-5.309q0-3.526-.75-5.491t-2.289-2.817q-1.54-.85-4.134-.851-5.39 0-9.686 4.965t-7.295 14.59q-3 9.625-2.999 17.325 0 10.254 6.768 10.254 3.241 0 5.349-2.047t3.081-6.343l.567-2.553q.324-1.499.405-2.492t.081-1.804q0-1.66-.77-2.492-.77-.831-2.634-1.074l.567-2.675h19.778l-.568 2.675q-1.58.527-2.35 1.276-.77.75-1.378 2.189t-1.338 4.802l-3.12 13.982-5.593 1.297-2.148-2.877q-5.308 2.877-11.064 2.877-8.51 0-13.07-4.782t-4.559-13.82q0-5.592 1.904-12.786 1.905-7.194 5.897-12.969t10.031-9.017 13.698-3.242"/><text x="803.568" y="493.244" fill-opacity="0" font-family="Arial,Arial_MSFontService,sans-serif" font-size="56.617">𝑮</text></g></svg>