<svg width="1632" height="966" xmlns="http://www.w3.org/2000/svg" xmlns:xlink="http://www.w3.org/1999/xlink" overflow="hidden"><defs><clipPath id="clip0"><rect x="1936" y="55" width="1632" height="966"/></clipPath></defs><g clip-path="url(#clip0)" transform="translate(-1936 -55)"><path d="M2583.32 656.584C2540.25 507.068 2723.23 323.097 2992.01 245.675 3260.79 168.253 3513.59 226.696 3556.66 376.213 3599.73 525.729 3416.75 709.7 3147.97 787.122 2879.19 864.545 2626.39 806.101 2583.32 656.584Z" stroke="#000000" stroke-width="9.16667" stroke-miterlimit="8" fill="none" fill-rule="evenodd"/><path d="M2703.33 622.014C2670.89 509.369 2808.74 370.767 3011.24 312.437 3213.73 254.108 3404.2 298.139 3436.64 410.784 3469.09 523.429 3331.24 662.031 3128.74 720.36 2926.24 778.69 2735.78 734.658 2703.33 622.014Z" stroke="#000000" stroke-width="9.16667" stroke-miterlimit="8" stroke-dasharray="27.5 9.16667" fill="none" fill-rule="evenodd"/><path d="M2835.5 584.081C2814.74 512.029 2902.92 423.374 3032.45 386.064 3161.97 348.754 3283.8 376.918 3304.55 448.97 3325.31 521.022 3237.13 609.677 3107.6 646.987 2978.08 684.297 2856.25 656.133 2835.5 584.081Z" stroke="#000000" stroke-width="9.16667" stroke-miterlimit="8" stroke-dasharray="27.5 9.16667" fill="none" fill-rule="evenodd"/><path d="M3051.15 521.378C3048.09 510.736 3054.23 499.624 3064.87 496.559 3075.51 493.494 3086.62 499.636 3089.69 510.277 3092.75 520.919 3086.61 532.031 3075.97 535.096 3065.33 538.162 3054.22 532.02 3051.15 521.378Z" fill="#D74514" fill-rule="evenodd"/><path d="M2814.5 135.5C2675.75 204.059 2637.91 281.085 2589.74 342.633 2541.58 404.18 2526.67 449.67 2525.53 504.785 2524.38 559.899 2558.78 623.383 2582.86 673.321 2606.94 723.26 2652.05 763.876 2670.01 804.415 2687.98 844.954 2702.12 867.632 2690.66 916.557 2679.19 965.482 2671.16 962.781 2624.15 1017.5" stroke="#000000" stroke-width="9.16667" stroke-miterlimit="8" fill="none" fill-rule="evenodd"/><path d="M1.44654-4.34908 424.132 136.24 421.239 144.938-1.44654 4.34908ZM425.569 117.397 461.827 153.608 411.103 160.888Z" fill="#F0835C" transform="matrix(-1 0 0 1 2583.33 672.5)"/><path d="M2149.66 906.953 2151.36 930.175C2151.98 938.659 2152.29 944.562 2152.29 947.886L2152.78 947.886 2176.57 906.953ZM2142.57 900.874 2185.12 900.874 2184.59 903.468 2152.53 956.842 2146.82 956.842 2142.04 903.468Z" fill="#F0835C" fill-rule="evenodd"/><text fill="#000000" fill-opacity="0" font-family="Arial,Arial_MSFontService,sans-serif" font-size="55.9683" x="2142.04" y="949.846">𝛻</text><path d="M2225.96 898.604C2228.6 898.604 2230.89 898.82 2232.81 899.253L2231.22 906.142 2227.66 906.142C2227.28 904.602 2226.79 903.495 2226.18 902.819 2225.57 902.144 2224.67 901.806 2223.48 901.806 2221.94 901.806 2220.64 902.232 2219.57 903.083 2218.51 903.934 2217.59 905.197 2216.84 906.872 2216.08 908.547 2215.38 910.803 2214.73 913.64L2213.72 918.057 2224.13 918.057 2223.24 922.151 2212.78 922.151 2205.25 957.491C2204 963.354 2202.1 967.724 2199.53 970.601 2196.97 973.479 2193.74 974.917 2189.85 974.917 2188.71 974.917 2187.82 974.85 2187.17 974.715L2187.86 971.148C2188.13 971.229 2188.77 971.27 2189.77 971.27 2190.98 971.27 2192.02 970.959 2192.89 970.338 2193.75 969.716 2194.55 968.636 2195.3 967.096 2196.04 965.556 2196.72 963.421 2197.34 960.692L2206.06 922.151 2199.21 922.151 2199.82 919.354C2201.63 919.246 2202.93 919.098 2203.73 918.909 2204.52 918.719 2205.15 918.436 2205.59 918.057 2206.04 917.679 2206.42 917.186 2206.73 916.578 2207.04 915.97 2207.44 914.856 2207.92 913.235 2209.35 908.371 2211.56 904.717 2214.55 902.272 2217.53 899.827 2221.34 898.604 2225.96 898.604Z" fill="#F0835C" fill-rule="evenodd"/><text fill="#000000" fill-opacity="0" font-family="Arial,Arial_MSFontService,sans-serif" font-size="76.313" x="2187.17" y="965.378">𝑓</text><path d="M2238.36 935.282 2240.18 935.282C2240.14 936.374 2240.11 937.352 2240.09 938.216 2240.07 939.08 2240.06 939.919 2240.05 940.733 2240.04 941.547 2240.03 942.351 2240.03 943.145L2240.03 965.782C2240.03 966.398 2240.05 966.929 2240.09 967.376 2240.13 967.822 2240.2 968.2 2240.28 968.507 2240.37 968.815 2240.49 969.078 2240.64 969.297 2240.79 969.515 2240.97 969.704 2241.16 969.863 2241.4 970.101 2241.72 970.285 2242.12 970.414 2242.51 970.543 2243.02 970.652 2243.64 970.741 2244.25 970.831 2244.99 970.9 2245.85 970.95 2246.72 970.999 2247.76 971.034 2248.97 971.054L2248.97 973.645 2225.35 973.645 2225.35 971.054C2226.52 971.014 2227.51 970.97 2228.33 970.92 2229.14 970.87 2229.84 970.801 2230.41 970.712 2230.99 970.622 2231.45 970.523 2231.8 970.414 2232.14 970.305 2232.45 970.17 2232.7 970.012 2232.98 969.833 2233.22 969.639 2233.42 969.431 2233.62 969.222 2233.78 968.959 2233.9 968.641 2234.02 968.324 2234.11 967.937 2234.18 967.48 2234.25 967.023 2234.28 966.457 2234.28 965.782L2234.28 944.426C2234.28 943.652 2234.13 943.106 2233.84 942.788 2233.54 942.47 2233.11 942.311 2232.56 942.311 2231.94 942.311 2231.03 942.629 2229.82 943.265 2228.6 943.9 2227.04 944.843 2225.11 946.094 2224.85 945.637 2224.61 945.181 2224.39 944.724 2224.18 944.267 2223.95 943.801 2223.71 943.324 2226.17 941.974 2228.61 940.629 2231.02 939.288 2233.43 937.948 2235.88 936.612 2238.36 935.282Z" fill="#F0835C" fill-rule="evenodd"/><text fill="#000000" fill-opacity="0" font-family="Arial,Arial_MSFontService,sans-serif" font-size="38.3633" x="2223.71" y="968.85">1</text><path d="M2374.76 894.688C2382.64 896.768 2388.7 901.26 2392.93 908.163 2397.16 915.066 2399.27 923.394 2399.27 933.148 2399.27 942.929 2397.17 951.257 2392.95 958.133 2388.74 965.009 2382.67 969.487 2374.76 971.568L2373.78 968.447C2380.02 966.367 2384.66 962.26 2387.7 956.127 2390.74 949.994 2392.26 942.199 2392.26 932.743 2392.26 923.611 2390.75 916.025 2387.72 909.987 2384.7 903.948 2380.01 899.889 2373.66 897.808ZM2288.44 894.688 2289.53 897.808C2283.21 899.889 2278.53 903.948 2275.49 909.987 2272.45 916.025 2270.93 923.611 2270.93 932.743 2270.93 942.199 2272.45 949.994 2275.49 956.127 2278.53 962.26 2283.17 966.367 2289.41 968.447L2288.44 971.568C2280.52 969.487 2274.45 965.009 2270.24 958.133 2266.02 951.257 2263.92 942.929 2263.92 933.148 2263.92 923.394 2266.03 915.066 2270.26 908.163 2274.49 901.26 2280.55 896.768 2288.44 894.688Z" fill="#F0835C" fill-rule="evenodd"/><path d="M2306.87 917.369C2307.7 917.369 2308.44 917.463 2309.08 917.652 2309.71 917.841 2310.27 918.132 2310.76 918.524 2311.24 918.915 2311.68 919.422 2312.05 920.043 2312.43 920.665 2312.8 921.509 2313.15 922.576 2313.5 923.643 2313.83 924.967 2314.14 926.548 2314.45 928.129 2314.73 929.77 2314.97 931.472L2315.38 931.472C2317.97 927.825 2319.94 925.157 2321.27 923.468 2322.61 921.779 2323.74 920.523 2324.66 919.699 2325.58 918.875 2326.46 918.294 2327.31 917.956 2328.16 917.618 2329.29 917.45 2330.7 917.45 2331.97 917.45 2333.01 917.612 2333.82 917.936L2332.2 925.271 2329.36 925.271C2329.2 924.137 2328.72 923.569 2327.94 923.569 2327.7 923.569 2327.44 923.61 2327.17 923.691 2326.9 923.772 2326.57 923.947 2326.18 924.218 2325.79 924.488 2325.21 925.015 2324.46 925.798 2323.7 926.582 2322.85 927.541 2321.9 928.676 2320.96 929.81 2319.98 930.999 2318.98 932.242L2316.23 935.687C2316.72 938.281 2317.17 940.523 2317.61 942.414 2318.04 944.306 2318.42 945.88 2318.76 947.136 2319.1 948.392 2319.4 949.385 2319.65 950.115 2319.91 950.844 2320.19 951.391 2320.48 951.756 2320.78 952.121 2321.09 952.377 2321.4 952.526 2321.71 952.675 2322.06 952.749 2322.47 952.749 2323.2 952.749 2323.91 952.465 2324.6 951.898 2325.29 951.33 2326.28 950.047 2327.58 948.048L2330.21 949.79C2328.32 952.6 2326.61 954.579 2325.08 955.728 2323.56 956.876 2321.74 957.45 2319.63 957.45 2318.47 957.45 2317.49 957.241 2316.67 956.822 2315.86 956.403 2315.16 955.734 2314.57 954.816 2313.97 953.897 2313.45 952.465 2312.99 950.52 2312.15 947.062 2311.64 944.414 2311.45 942.577L2311.04 942.577C2308.18 946.602 2306.05 949.493 2304.66 951.249 2303.27 953.006 2302.12 954.302 2301.21 955.14 2300.31 955.978 2299.43 956.565 2298.58 956.903 2297.73 957.241 2296.6 957.41 2295.2 957.41 2293.93 957.41 2292.89 957.247 2292.07 956.923L2293.7 949.588 2296.53 949.588C2296.69 950.723 2297.17 951.29 2297.95 951.29 2298.33 951.29 2298.73 951.189 2299.15 950.986 2299.57 950.783 2300.17 950.297 2300.95 949.527 2301.73 948.757 2302.81 947.548 2304.19 945.9 2305.57 944.252 2307.57 941.779 2310.19 938.483 2309.78 936.349 2309.37 934.295 2308.93 932.323 2308.5 930.351 2308.06 928.514 2307.6 926.811 2307.14 925.109 2306.76 923.995 2306.46 923.468 2306.16 922.941 2305.85 922.576 2305.51 922.374 2305.17 922.171 2304.75 922.07 2304.23 922.07 2303.67 922.07 2303.15 922.198 2302.69 922.455 2302.23 922.711 2301.73 923.157 2301.19 923.792 2300.65 924.427 2299.94 925.42 2299.05 926.771L2296.41 925.028C2298.11 922.461 2299.75 920.543 2301.31 919.273 2302.88 918.003 2304.73 917.369 2306.87 917.369Z" fill="#F0835C" fill-rule="evenodd"/><text fill="#000000" fill-opacity="0" font-family="Arial,Arial_MSFontService,sans-serif" font-size="40.0815" x="2292.07" y="952.44">𝑥</text><path d="M2352.27 897.914 2356.2 897.914 2355.33 907.237 2362.99 901.846 2364.92 905.182 2356.44 909.143 2364.92 913.135 2362.99 916.441 2355.33 911.05 2356.2 920.372 2352.27 920.372 2353.16 911.05 2345.47 916.441 2343.51 913.135 2352.03 909.143 2343.51 905.182 2345.47 901.846 2353.16 907.237Z" fill="#F0835C" fill-rule="evenodd"/><text fill="#000000" fill-opacity="0" font-family="Arial,Arial_MSFontService,sans-serif" font-size="22.458" x="2343.51" y="917.565">∗</text><path d="M2162.23 92.8598C2164.87 92.8598 2167.16 93.076 2169.07 93.5083L2167.49 100.398 2163.93 100.398C2163.55 98.8579 2163.06 97.7501 2162.45 97.0747 2161.84 96.3992 2160.94 96.0615 2159.75 96.0615 2158.21 96.0615 2156.91 96.487 2155.84 97.3381 2154.78 98.1892 2153.86 99.4523 2153.11 101.127 2152.35 102.803 2151.65 105.059 2151 107.895L2149.99 112.313 2160.4 112.313 2159.51 116.406 2149.05 116.406 2141.52 151.746C2140.27 157.609 2138.37 161.979 2135.8 164.857 2133.23 167.734 2130.01 169.173 2126.12 169.173 2124.98 169.173 2124.09 169.105 2123.44 168.97L2124.13 165.404C2124.4 165.485 2125.03 165.525 2126.03 165.525 2127.25 165.525 2128.29 165.215 2129.16 164.593 2130.02 163.972 2130.82 162.891 2131.57 161.351 2132.31 159.811 2132.99 157.677 2133.61 154.948L2142.33 116.406 2135.48 116.406 2136.09 113.61C2137.9 113.502 2139.2 113.353 2140 113.164 2140.79 112.975 2141.41 112.691 2141.86 112.313 2142.31 111.935 2142.68 111.442 2143 110.834 2143.31 110.226 2143.7 109.111 2144.19 107.49 2145.62 102.627 2147.83 98.9727 2150.82 96.5276 2153.8 94.0824 2157.61 92.8598 2162.23 92.8598Z" fill-rule="evenodd"/><text fill="#000000" fill-opacity="0" font-family="Arial,Arial_MSFontService,sans-serif" font-size="76.313" x="2123.44" y="159.634">𝑓</text><path d="M2174.63 129.538 2176.45 129.538C2176.41 130.63 2176.38 131.608 2176.36 132.471 2176.34 133.335 2176.33 134.174 2176.32 134.988 2176.31 135.802 2176.3 136.607 2176.3 137.401L2176.3 160.038C2176.3 160.653 2176.32 161.184 2176.36 161.631 2176.4 162.078 2176.46 162.455 2176.55 162.763 2176.64 163.071 2176.76 163.334 2176.91 163.552 2177.06 163.771 2177.23 163.959 2177.43 164.118 2177.67 164.356 2177.99 164.54 2178.39 164.669 2178.78 164.798 2179.29 164.907 2179.9 164.997 2180.52 165.086 2181.26 165.156 2182.12 165.205 2182.99 165.255 2184.03 165.29 2185.24 165.31L2185.24 167.901 2161.62 167.901 2161.62 165.31C2162.79 165.27 2163.78 165.225 2164.6 165.176 2165.41 165.126 2166.1 165.056 2166.68 164.967 2167.26 164.878 2167.72 164.778 2168.07 164.669 2168.41 164.56 2168.72 164.426 2168.97 164.267 2169.25 164.088 2169.49 163.895 2169.69 163.686 2169.89 163.478 2170.05 163.215 2170.17 162.897 2170.28 162.579 2170.38 162.192 2170.45 161.735 2170.52 161.279 2170.55 160.713 2170.55 160.038L2170.55 138.682C2170.55 137.907 2170.4 137.361 2170.11 137.043 2169.81 136.726 2169.38 136.567 2168.82 136.567 2168.21 136.567 2167.3 136.885 2166.08 137.52 2164.87 138.155 2163.3 139.099 2161.38 140.35 2161.12 139.893 2160.88 139.436 2160.66 138.979 2160.45 138.523 2160.22 138.056 2159.98 137.58 2162.44 136.229 2164.88 134.884 2167.29 133.544 2169.7 132.203 2172.15 130.868 2174.63 129.538Z" fill-rule="evenodd"/><text fill="#000000" fill-opacity="0" font-family="Arial,Arial_MSFontService,sans-serif" font-size="38.3633" x="2159.98" y="163.105">1</text><path d="M2276.37 88.943C2284.26 91.0234 2290.32 95.5152 2294.55 102.418 2298.78 109.322 2300.89 117.65 2300.89 127.403 2300.89 137.184 2298.79 145.512 2294.57 152.389 2290.36 159.265 2284.29 163.743 2276.37 165.823L2275.4 162.703C2281.64 160.622 2286.28 156.516 2289.32 150.382 2292.36 144.249 2293.88 136.455 2293.88 126.998 2293.88 117.866 2292.37 110.281 2289.34 104.242 2286.32 98.2035 2281.63 94.144 2275.28 92.0636ZM2224.7 88.943 2225.8 92.0636C2219.48 94.144 2214.8 98.2035 2211.76 104.242 2208.72 110.281 2207.2 117.866 2207.2 126.998 2207.2 136.455 2208.72 144.249 2211.76 150.382 2214.8 156.516 2219.44 160.622 2225.68 162.703L2224.7 165.823C2216.79 163.743 2210.72 159.265 2206.51 152.389 2202.29 145.512 2200.19 137.184 2200.19 127.403 2200.19 117.65 2202.3 109.322 2206.53 102.418 2210.76 95.5152 2216.81 91.0234 2224.7 88.943Z" fill-rule="evenodd"/><path d="M2243.14 111.624C2243.97 111.624 2244.71 111.719 2245.34 111.908 2245.98 112.097 2246.54 112.387 2247.03 112.779 2247.51 113.171 2247.95 113.677 2248.32 114.299 2248.7 114.92 2249.07 115.765 2249.42 116.832 2249.77 117.899 2250.1 119.223 2250.41 120.803 2250.72 122.384 2251 124.025 2251.24 125.728L2251.65 125.728C2254.24 122.08 2256.21 119.412 2257.54 117.723 2258.88 116.035 2260.01 114.778 2260.93 113.954 2261.85 113.13 2262.73 112.549 2263.58 112.212 2264.43 111.874 2265.56 111.705 2266.97 111.705 2268.24 111.705 2269.28 111.867 2270.09 112.191L2268.47 119.527 2265.63 119.527C2265.47 118.392 2264.99 117.825 2264.21 117.825 2263.97 117.825 2263.71 117.865 2263.44 117.946 2263.17 118.027 2262.84 118.203 2262.45 118.473 2262.06 118.743 2261.48 119.27 2260.72 120.054 2259.97 120.837 2259.12 121.796 2258.17 122.931 2257.23 124.066 2256.25 125.255 2255.25 126.498L2252.5 129.942C2252.98 132.536 2253.44 134.779 2253.88 136.67 2254.31 138.561 2254.69 140.135 2255.03 141.391 2255.37 142.648 2255.67 143.641 2255.92 144.37 2256.18 145.1 2256.46 145.647 2256.75 146.011 2257.05 146.376 2257.35 146.633 2257.67 146.781 2257.98 146.93 2258.33 147.004 2258.74 147.004 2259.47 147.004 2260.18 146.721 2260.87 146.153 2261.56 145.586 2262.55 144.303 2263.85 142.303L2266.48 144.046C2264.59 146.856 2262.88 148.835 2261.35 149.983 2259.83 151.131 2258.01 151.706 2255.9 151.706 2254.74 151.706 2253.75 151.496 2252.94 151.077 2252.13 150.659 2251.43 149.99 2250.84 149.071 2250.24 148.153 2249.71 146.721 2249.26 144.775 2248.42 141.317 2247.9 138.669 2247.72 136.832L2247.31 136.832C2244.45 140.858 2242.32 143.749 2240.93 145.505 2239.54 147.261 2238.39 148.558 2237.48 149.395 2236.58 150.233 2235.7 150.821 2234.85 151.158 2234 151.496 2232.87 151.665 2231.46 151.665 2230.19 151.665 2229.15 151.503 2228.34 151.179L2229.96 143.843 2232.8 143.843C2232.96 144.978 2233.44 145.545 2234.22 145.545 2234.6 145.545 2235 145.444 2235.42 145.241 2235.83 145.039 2236.44 144.552 2237.22 143.782 2238 143.012 2239.08 141.803 2240.46 140.155 2241.84 138.507 2243.84 136.035 2246.46 132.739 2246.05 130.604 2245.64 128.551 2245.2 126.579 2244.77 124.606 2244.32 122.769 2243.87 121.067 2243.41 119.365 2243.03 118.25 2242.73 117.723 2242.43 117.197 2242.12 116.832 2241.78 116.629 2241.44 116.426 2241.02 116.325 2240.5 116.325 2239.93 116.325 2239.42 116.454 2238.96 116.71 2238.5 116.967 2238 117.413 2237.46 118.048 2236.92 118.683 2236.21 119.675 2235.31 121.026L2232.68 119.284C2234.38 116.717 2236.02 114.799 2237.58 113.529 2239.15 112.259 2241 111.624 2243.14 111.624Z" fill-rule="evenodd"/><text fill="#000000" fill-opacity="0" font-family="Arial,Arial_MSFontService,sans-serif" font-size="40.0815" x="2228.34" y="146.695">𝑥</text><path d="M2337.1 150.125 2387.02 150.125 2387.02 155.515 2337.1 155.515ZM2387.02 99.1821 2387.02 105.261 2343.62 121.513 2387.02 137.764 2387.02 143.843 2336.93 124.35 2336.93 118.676Z" fill-rule="evenodd"/><text fill="#000000" fill-opacity="0" font-family="Arial,Arial_MSFontService,sans-serif" font-size="56.333" x="2336.93" y="148.473">≤</text><path d="M2438.67 98.5337C2436.8 98.5337 2435.24 99.0875 2433.98 100.195 2432.73 101.303 2431.71 102.897 2430.94 104.978 2430.17 107.058 2429.63 109.591 2429.3 112.576 2428.98 115.562 2428.82 118.932 2428.82 122.688 2428.82 131.496 2429.63 137.96 2431.27 142.08 2432.9 146.201 2435.44 148.261 2438.87 148.261 2442.14 148.261 2444.56 146.322 2446.14 142.445 2447.72 138.568 2448.51 132.563 2448.51 124.431 2448.51 118.216 2448.11 113.184 2447.3 109.334 2446.49 105.484 2445.36 102.721 2443.91 101.046 2442.47 99.3712 2440.72 98.5337 2438.67 98.5337ZM2438.87 95.0888C2444.78 95.0888 2449.19 97.3719 2452.08 101.938 2454.97 106.504 2456.42 113.407 2456.42 122.647 2456.42 132.212 2454.87 139.446 2451.78 144.35 2448.68 149.254 2444.16 151.706 2438.22 151.706 2432.38 151.706 2428.04 149.409 2425.19 144.816 2422.34 140.223 2420.91 133.252 2420.91 123.904 2420.91 118.932 2421.35 114.637 2422.23 111.016 2423.11 107.396 2424.34 104.403 2425.92 102.039 2427.5 99.6752 2429.4 97.9258 2431.61 96.791 2433.83 95.6562 2436.25 95.0888 2438.87 95.0888Z" fill-rule="evenodd"/><text fill="#000000" fill-opacity="0" font-family="Arial,Arial_MSFontService,sans-serif" font-size="56.6167" x="2420.91" y="144.628">0</text><path d="M2104.5 250.5C2139.26 342.48 2174.02 434.461 2212.22 511.556 2250.42 588.652 2288.62 672.618 2333.7 713.074 2378.78 753.53 2434.17 768.414 2482.68 754.293 2531.2 740.172 2571.31 682.159 2624.79 628.345 2678.27 574.531 2745.5 472.627 2803.56 431.408 2861.63 390.188 2906.32 378.738 2973.17 381.028 3040.02 383.318 3115.27 398.203 3204.66 445.147 3294.05 492.092 3401.78 577.393 3509.5 662.694" stroke="#000000" stroke-width="9.16667" stroke-miterlimit="8" fill="none" fill-rule="evenodd"/><path d="M2579.14 676.369 2307.28 384.796 2313.98 378.545 2585.84 670.117ZM2296.99 400.651 2282.5 351.5 2330.52 369.395Z" fill="#F0835C"/><path d="M2390.09 323.922 2391.79 347.145C2392.41 355.628 2392.72 361.532 2392.72 364.855L2393.21 364.855 2417 323.922ZM2383 317.843 2425.55 317.843 2425.02 320.437 2392.96 373.812 2387.25 373.812 2382.47 320.437Z" fill="#F0835C" fill-rule="evenodd"/><text fill="#000000" fill-opacity="0" font-family="Arial,Arial_MSFontService,sans-serif" font-size="55.9683" x="2382.47" y="366.815">𝛻</text><path d="M2466.39 315.574C2469.03 315.574 2471.32 315.79 2473.24 316.222L2471.65 323.112 2468.09 323.112C2467.71 321.572 2467.22 320.464 2466.61 319.789 2466 319.113 2465.1 318.775 2463.91 318.775 2462.37 318.775 2461.07 319.201 2460 320.052 2458.94 320.903 2458.02 322.166 2457.27 323.841 2456.51 325.516 2455.81 327.772 2455.16 330.609L2454.15 335.027 2464.56 335.027 2463.67 339.12 2453.21 339.12 2445.68 374.46C2444.43 380.323 2442.53 384.693 2439.96 387.571 2437.4 390.448 2434.17 391.887 2430.28 391.887 2429.14 391.887 2428.25 391.819 2427.6 391.684L2428.29 388.118C2428.56 388.199 2429.2 388.239 2430.2 388.239 2431.41 388.239 2432.45 387.929 2433.32 387.307 2434.18 386.686 2434.98 385.605 2435.73 384.065 2436.47 382.525 2437.15 380.39 2437.77 377.662L2446.49 339.12 2439.64 339.12 2440.25 336.324C2442.06 336.216 2443.36 336.067 2444.16 335.878 2444.95 335.689 2445.58 335.405 2446.02 335.027 2446.47 334.649 2446.85 334.156 2447.16 333.548 2447.47 332.94 2447.87 331.825 2448.35 330.204 2449.78 325.341 2451.99 321.687 2454.98 319.241 2457.96 316.796 2461.77 315.574 2466.39 315.574Z" fill="#F0835C" fill-rule="evenodd"/><text fill="#000000" fill-opacity="0" font-family="Arial,Arial_MSFontService,sans-serif" font-size="76.313" x="2427.6" y="382.348">𝑓</text><path d="M2478.37 352.043C2480.44 352.043 2482.2 352.276 2483.66 352.743 2485.12 353.21 2486.31 353.84 2487.22 354.634 2488.13 355.429 2488.79 356.382 2489.2 357.494 2489.61 358.606 2489.81 359.807 2489.81 361.098 2489.81 361.872 2489.76 362.592 2489.65 363.257 2489.54 363.922 2489.35 364.578 2489.08 365.223 2488.81 365.868 2488.46 366.519 2488.02 367.174 2487.59 367.829 2487.04 368.524 2486.38 369.259 2485.89 369.894 2485.24 370.629 2484.45 371.463 2483.65 372.297 2482.79 373.19 2481.84 374.144 2480.9 375.097 2479.91 376.09 2478.88 377.122 2477.85 378.155 2476.84 379.177 2475.87 380.19 2474.9 381.203 2474 382.186 2473.19 383.139 2472.38 384.092 2471.71 384.965 2471.19 385.76L2482.21 385.76C2483.15 385.76 2483.89 385.725 2484.45 385.656 2485 385.586 2485.47 385.432 2485.83 385.194 2486.2 384.956 2486.51 384.593 2486.77 384.107 2487.03 383.62 2487.33 382.95 2487.67 382.096L2490.44 382.096C2490.34 383.506 2490.24 384.926 2490.15 386.355 2490.06 387.785 2489.97 389.205 2489.87 390.615L2464.64 390.615 2464.64 389.066C2465.12 387.994 2465.67 386.936 2466.31 385.894 2466.94 384.851 2467.66 383.794 2468.45 382.722 2469.25 381.649 2470.15 380.542 2471.16 379.401 2472.18 378.259 2473.3 377.072 2474.53 375.841 2476.4 373.975 2477.92 372.381 2479.09 371.061 2480.26 369.74 2481.18 368.564 2481.86 367.531 2482.53 366.499 2482.99 365.546 2483.24 364.672 2483.49 363.798 2483.61 362.865 2483.61 361.872 2483.61 360.859 2483.47 359.926 2483.18 359.072 2482.89 358.218 2482.48 357.494 2481.95 356.898 2481.41 356.302 2480.73 355.836 2479.91 355.498 2479.08 355.16 2478.13 354.992 2477.06 354.992 2475.22 354.992 2473.67 355.493 2472.42 356.496 2471.16 357.499 2470.19 358.953 2469.5 360.859L2465.59 360.859 2465.59 355.051C2468.14 353.999 2470.47 353.234 2472.61 352.758 2474.74 352.281 2476.66 352.043 2478.37 352.043Z" fill="#F0835C" fill-rule="evenodd"/><text fill="#000000" fill-opacity="0" font-family="Arial,Arial_MSFontService,sans-serif" font-size="38.5718" x="2464.64" y="385.793">2</text><path d="M2617.09 311.657C2624.98 313.737 2631.04 318.229 2635.26 325.132 2639.49 332.035 2641.61 340.364 2641.61 350.117 2641.61 359.898 2639.5 368.226 2635.28 375.102 2631.07 381.979 2625 386.457 2617.09 388.537L2616.11 385.417C2622.36 383.336 2627 379.229 2630.04 373.096 2633.08 366.963 2634.6 359.168 2634.6 349.712 2634.6 340.58 2633.08 332.995 2630.06 326.956 2627.03 320.917 2622.34 316.858 2615.99 314.778ZM2530.77 311.657 2531.86 314.778C2525.54 316.858 2520.86 320.917 2517.82 326.956 2514.78 332.995 2513.26 340.58 2513.26 349.712 2513.26 359.168 2514.78 366.963 2517.82 373.096 2520.86 379.229 2525.5 383.336 2531.74 385.417L2530.77 388.537C2522.85 386.457 2516.79 381.979 2512.57 375.102 2508.36 368.226 2506.25 359.898 2506.25 350.117 2506.25 340.364 2508.36 332.035 2512.59 325.132 2516.82 318.229 2522.88 313.737 2530.77 311.657Z" fill="#F0835C" fill-rule="evenodd"/><path d="M2549.2 334.338C2550.04 334.338 2550.77 334.432 2551.41 334.622 2552.04 334.811 2552.6 335.101 2553.09 335.493 2553.58 335.885 2554.01 336.391 2554.39 337.013 2554.76 337.634 2555.13 338.478 2555.48 339.546 2555.83 340.613 2556.16 341.937 2556.47 343.517 2556.78 345.098 2557.06 346.739 2557.3 348.441L2557.71 348.441C2560.3 344.794 2562.27 342.126 2563.61 340.437 2564.94 338.749 2566.07 337.492 2566.99 336.668 2567.91 335.844 2568.79 335.263 2569.65 334.926 2570.5 334.588 2571.62 334.419 2573.03 334.419 2574.3 334.419 2575.34 334.581 2576.15 334.905L2574.53 342.241 2571.69 342.241C2571.53 341.106 2571.06 340.539 2570.27 340.539 2570.03 340.539 2569.77 340.579 2569.5 340.66 2569.23 340.741 2568.9 340.917 2568.51 341.187 2568.12 341.457 2567.54 341.984 2566.79 342.768 2566.03 343.551 2565.18 344.51 2564.23 345.645 2563.29 346.78 2562.32 347.969 2561.32 349.211L2558.56 352.656C2559.05 355.25 2559.51 357.493 2559.94 359.384 2560.37 361.275 2560.76 362.849 2561.09 364.105 2561.43 365.362 2561.73 366.354 2561.99 367.084 2562.24 367.813 2562.52 368.361 2562.82 368.725 2563.11 369.09 2563.42 369.347 2563.73 369.495 2564.04 369.644 2564.4 369.718 2564.8 369.718 2565.53 369.718 2566.24 369.435 2566.93 368.867 2567.62 368.3 2568.61 367.016 2569.91 365.017L2572.54 366.76C2570.65 369.57 2568.94 371.549 2567.42 372.697 2565.89 373.845 2564.07 374.419 2561.97 374.419 2560.8 374.419 2559.82 374.21 2559.01 373.791 2558.2 373.372 2557.49 372.704 2556.9 371.785 2556.3 370.867 2555.78 369.435 2555.32 367.489 2554.48 364.031 2553.97 361.383 2553.78 359.546L2553.37 359.546C2550.51 363.572 2548.38 366.463 2546.99 368.219 2545.6 369.975 2544.45 371.272 2543.55 372.109 2542.64 372.947 2541.76 373.535 2540.91 373.872 2540.06 374.21 2538.93 374.379 2537.53 374.379 2536.26 374.379 2535.22 374.217 2534.41 373.893L2536.03 366.557 2538.86 366.557C2539.03 367.692 2539.5 368.259 2540.28 368.259 2540.66 368.259 2541.06 368.158 2541.48 367.955 2541.9 367.753 2542.5 367.266 2543.28 366.496 2544.07 365.726 2545.15 364.517 2546.52 362.869 2547.9 361.221 2549.9 358.749 2552.52 355.453 2552.12 353.318 2551.7 351.265 2551.27 349.292 2550.83 347.32 2550.39 345.483 2549.93 343.781 2549.47 342.079 2549.09 340.964 2548.79 340.437 2548.5 339.91 2548.18 339.546 2547.84 339.343 2547.5 339.14 2547.08 339.039 2546.56 339.039 2546 339.039 2545.48 339.167 2545.02 339.424 2544.57 339.681 2544.07 340.127 2543.53 340.761 2542.98 341.396 2542.27 342.389 2541.38 343.74L2538.74 341.998C2540.45 339.431 2542.08 337.513 2543.65 336.243 2545.21 334.973 2547.06 334.338 2549.2 334.338Z" fill="#F0835C" fill-rule="evenodd"/><text fill="#000000" fill-opacity="0" font-family="Arial,Arial_MSFontService,sans-serif" font-size="40.0815" x="2534.41" y="369.409">𝑥</text><path d="M2594.6 314.884 2598.53 314.884 2597.67 324.206 2605.32 318.815 2607.26 322.151 2598.77 326.113 2607.26 330.104 2605.32 333.41 2597.67 328.019 2598.53 337.342 2594.6 337.342 2595.49 328.019 2587.81 333.41 2585.84 330.104 2594.36 326.113 2585.84 322.151 2587.81 318.815 2595.49 324.206Z" fill="#F0835C" fill-rule="evenodd"/><text fill="#000000" fill-opacity="0" font-family="Arial,Arial_MSFontService,sans-serif" font-size="22.458" x="2585.84" y="334.534">∗</text><path d="M2582.7 677.76 2023.55 656.637 2023.89 647.477 2583.05 668.6ZM2027.44 675.13 1982.5 650.5 2029.17 629.33Z" fill="#D74514"/><path d="M2008.15 544.81 2019.34 580.393 2032.96 544.81ZM1993.2 535.732 2042.2 535.732 2042.2 538.731 2021 591.417 2010.62 591.417 1993.2 538.65Z" fill="#D74514" fill-rule="evenodd"/><text fill="#000000" fill-opacity="0" font-family="Arial,Arial_MSFontService,sans-serif" font-size="55.6846" x="1993.2" y="584.456">𝛁</text><path d="M2082.35 532.855C2085.05 532.855 2087.59 533.098 2089.97 533.584L2088.14 541.69 2082.91 541.69C2082.81 540.015 2082.54 538.826 2082.1 538.123 2081.67 537.421 2081 537.07 2080.08 537.07 2079 537.07 2078.12 537.448 2077.44 538.204 2076.77 538.961 2076.2 539.988 2075.74 541.284 2075.28 542.581 2074.82 544.283 2074.36 546.391L2073.35 550.849 2082.02 550.849 2080.93 555.915 2072.21 555.915 2064.88 589.796C2063.45 596.361 2061.14 601.231 2057.95 604.406 2054.76 607.58 2050.78 609.168 2045.99 609.168 2044.83 609.168 2043.9 609.1 2043.2 608.965L2044.17 604.426C2044.71 604.507 2045.2 604.548 2045.63 604.548 2047.17 604.548 2048.44 603.697 2049.46 601.994 2050.47 600.292 2051.37 597.739 2052.15 594.335L2060.83 555.915 2054.71 555.915 2055.44 552.632C2057.3 552.605 2058.62 552.47 2059.39 552.227 2060.16 551.984 2060.79 551.538 2061.29 550.889 2061.79 550.241 2062.27 549.039 2062.73 547.282 2063.41 544.716 2064.26 542.588 2065.28 540.899 2066.31 539.211 2067.65 537.738 2069.3 536.482 2070.94 535.226 2072.87 534.307 2075.07 533.726 2077.27 533.145 2079.7 532.855 2082.35 532.855Z" fill="#D74514" fill-rule="evenodd"/><text fill="#000000" fill-opacity="0" font-family="Arial,Arial_MSFontService,sans-serif" font-size="76.313" x="2043.2" y="599.629">𝒇</text><path d="M2108.44 570.098C2107.03 570.098 2105.92 570.719 2105.1 571.96 2104.29 573.201 2103.7 575.048 2103.35 577.5 2102.99 579.952 2102.81 583.144 2102.81 587.076 2102.81 591.444 2103 594.919 2103.39 597.501 2103.78 600.082 2104.39 601.983 2105.22 603.205 2106.06 604.426 2107.17 605.036 2108.56 605.036 2109.31 605.036 2109.97 604.853 2110.54 604.485 2111.11 604.118 2111.61 603.542 2112.06 602.758 2112.51 601.973 2112.89 600.931 2113.21 599.63 2113.52 598.33 2113.75 596.711 2113.89 594.775 2114.03 592.839 2114.1 590.68 2114.1 588.297 2114.1 584.743 2113.96 581.754 2113.7 579.332 2113.43 576.909 2113.05 575.043 2112.55 573.732 2112.05 572.422 2111.47 571.488 2110.79 570.932 2110.12 570.376 2109.33 570.098 2108.44 570.098ZM2108.62 566.762C2113.5 566.762 2117.15 568.425 2119.55 571.751 2121.95 575.077 2123.15 580.166 2123.15 587.016 2123.15 594.046 2121.88 599.362 2119.33 602.966 2116.77 606.57 2113.03 608.372 2108.08 608.372 2103.2 608.372 2099.59 606.68 2097.26 603.294 2094.92 599.908 2093.76 594.79 2093.76 587.94 2093.76 581.069 2095.06 575.822 2097.66 572.198 2100.26 568.574 2103.91 566.762 2108.62 566.762Z" fill="#D74514" fill-rule="evenodd"/><text fill="#000000" fill-opacity="0" font-family="Arial,Arial_MSFontService,sans-serif" font-size="41.6099" x="2093.76" y="603.171">𝟎</text><path d="M2246.78 528.938C2254.67 531.018 2260.72 535.51 2264.95 542.413 2269.18 549.316 2271.3 557.645 2271.3 567.398 2271.3 577.179 2269.19 585.507 2264.97 592.383 2260.76 599.26 2254.69 603.738 2246.78 605.818L2245.8 602.698C2252.04 600.617 2256.69 596.51 2259.72 590.377 2262.76 584.244 2264.28 576.449 2264.28 566.993 2264.28 557.861 2262.77 550.276 2259.75 544.237 2256.72 538.198 2252.03 534.139 2245.68 532.059ZM2161.53 528.938 2162.63 532.059C2156.31 534.139 2151.62 538.198 2148.58 544.237 2145.55 550.276 2144.03 557.861 2144.03 566.993 2144.03 576.449 2145.55 584.244 2148.58 590.377 2151.62 596.51 2156.26 600.617 2162.51 602.698L2161.53 605.818C2153.62 603.738 2147.55 599.26 2143.34 592.383 2139.12 585.507 2137.01 577.179 2137.01 567.398 2137.01 557.645 2139.13 549.316 2143.36 542.413 2147.58 535.51 2153.64 531.018 2161.53 528.938Z" fill="#D74514" fill-rule="evenodd"/><path d="M2182.64 550.2C2184.8 550.2 2186.45 550.525 2187.58 551.173 2188.72 551.822 2189.65 552.95 2190.38 554.557 2191.11 556.165 2191.8 558.738 2192.45 562.278L2192.85 562.278C2194.85 559.468 2196.41 557.354 2197.51 555.935 2198.62 554.517 2199.65 553.382 2200.59 552.531 2201.54 551.68 2202.46 551.079 2203.35 550.727 2204.24 550.376 2205.29 550.2 2206.51 550.2 2207.86 550.2 2209.23 550.444 2210.6 550.93L2208.7 559.684 2205.05 559.684C2204.92 558.549 2204.42 557.982 2203.55 557.982 2203.17 557.982 2202.77 558.076 2202.36 558.265 2201.94 558.455 2201.38 558.88 2200.69 559.542 2200.01 560.204 2199.15 561.163 2198.12 562.419 2197.09 563.676 2195.55 565.587 2193.5 568.154 2194.45 573.855 2195.22 577.941 2195.83 580.414 2196.44 582.886 2197.07 584.487 2197.72 585.216 2198.09 585.621 2198.55 585.824 2199.09 585.824 2199.77 585.824 2200.4 585.561 2200.98 585.034 2201.56 584.507 2202.31 583.325 2203.23 581.488L2206.92 583.19C2205.35 586.054 2203.57 588.188 2201.59 589.593 2199.6 590.998 2197.27 591.7 2194.6 591.7 2192.95 591.7 2191.63 591.491 2190.64 591.072 2189.66 590.654 2188.82 589.958 2188.13 588.985 2187.44 588.012 2186.83 586.641 2186.31 584.872 2185.78 583.102 2185.29 580.785 2184.83 577.921L2184.42 577.921C2182.13 581.217 2180.29 583.73 2178.91 585.459 2177.53 587.188 2176.35 588.485 2175.36 589.35 2174.38 590.214 2173.43 590.822 2172.53 591.174 2171.62 591.525 2170.54 591.7 2169.27 591.7 2168.67 591.7 2167.95 591.626 2167.1 591.478 2166.25 591.329 2165.6 591.174 2165.17 591.011L2167.08 582.217 2170.72 582.217C2170.75 582.784 2170.89 583.21 2171.15 583.494 2171.41 583.777 2171.74 583.919 2172.14 583.919 2172.63 583.919 2173.08 583.818 2173.5 583.615 2173.92 583.413 2174.5 582.96 2175.24 582.258 2175.99 581.555 2176.93 580.522 2178.06 579.157 2179.19 577.793 2181.11 575.395 2183.81 571.964 2183.25 568.775 2182.71 566.026 2182.21 563.716 2181.71 561.406 2181.26 559.731 2180.86 558.691 2180.45 557.651 2180.07 556.955 2179.7 556.604 2179.34 556.253 2178.92 556.077 2178.47 556.077 2177.93 556.077 2177.45 556.219 2177.05 556.502 2176.64 556.786 2176.22 557.245 2175.77 557.88 2175.32 558.515 2174.84 559.36 2174.33 560.413L2170.64 558.711C2172.21 555.847 2173.97 553.713 2175.93 552.308 2177.89 550.903 2180.13 550.2 2182.64 550.2Z" fill="#D74514" fill-rule="evenodd"/><text fill="#000000" fill-opacity="0" font-family="Arial,Arial_MSFontService,sans-serif" font-size="41.5" x="2165.17" y="586.513">𝒙</text><path d="M2224.29 532.165 2228.22 532.165 2227.35 541.487 2235.01 536.096 2236.95 539.432 2228.46 543.394 2236.95 547.385 2235.01 550.691 2227.35 545.3 2228.22 554.623 2224.29 554.623 2225.18 545.3 2217.5 550.691 2215.53 547.385 2224.05 543.394 2215.53 539.432 2217.5 536.096 2225.18 541.487Z" fill="#D74514" fill-rule="evenodd"/><text fill="#000000" fill-opacity="0" font-family="Arial,Arial_MSFontService,sans-serif" font-size="22.458" x="2215.53" y="551.815">∗</text><path d="M2172.28 187.519C2174.93 187.519 2177.21 187.735 2179.13 188.167L2177.55 195.057 2173.98 195.057C2173.61 193.517 2173.11 192.409 2172.5 191.734 2171.9 191.058 2171 190.721 2169.81 190.721 2168.27 190.721 2166.97 191.146 2165.9 191.997 2164.83 192.848 2163.92 194.111 2163.16 195.787 2162.41 197.462 2161.7 199.718 2161.06 202.555L2160.04 206.972 2170.46 206.972 2169.57 211.065 2159.11 211.065 2151.57 246.405C2150.33 252.268 2148.42 256.638 2145.86 259.516 2143.29 262.393 2140.06 263.832 2136.17 263.832 2135.04 263.832 2134.15 263.764 2133.5 263.629L2134.19 260.063C2134.46 260.144 2135.09 260.185 2136.09 260.185 2137.31 260.185 2138.35 259.874 2139.21 259.252 2140.08 258.631 2140.88 257.55 2141.62 256.01 2142.37 254.47 2143.05 252.336 2143.67 249.607L2152.38 211.065 2145.53 211.065 2146.14 208.269C2147.95 208.161 2149.25 208.012 2150.05 207.823 2150.85 207.634 2151.47 207.35 2151.92 206.972 2152.36 206.594 2152.74 206.101 2153.05 205.493 2153.36 204.885 2153.76 203.77 2154.25 202.149 2155.68 197.286 2157.89 193.632 2160.87 191.187 2163.86 188.742 2167.66 187.519 2172.28 187.519Z" fill-rule="evenodd"/><text fill="#000000" fill-opacity="0" font-family="Arial,Arial_MSFontService,sans-serif" font-size="76.313" x="2133.5" y="254.293">𝑓</text><path d="M2184.27 223.988C2186.33 223.988 2188.09 224.222 2189.55 224.688 2191.01 225.155 2192.2 225.785 2193.11 226.58 2194.03 227.374 2194.69 228.327 2195.09 229.439 2195.5 230.551 2195.71 231.752 2195.71 233.043 2195.71 233.817 2195.65 234.537 2195.54 235.202 2195.43 235.868 2195.24 236.523 2194.98 237.168 2194.71 237.814 2194.35 238.464 2193.92 239.119 2193.48 239.774 2192.94 240.469 2192.28 241.204 2191.78 241.839 2191.14 242.574 2190.34 243.408 2189.55 244.242 2188.68 245.136 2187.74 246.089 2186.79 247.042 2185.81 248.035 2184.77 249.067 2183.74 250.1 2182.74 251.123 2181.77 252.135 2180.79 253.148 2179.9 254.131 2179.08 255.084 2178.27 256.037 2177.61 256.911 2177.09 257.705L2188.11 257.705C2189.04 257.705 2189.79 257.67 2190.34 257.601 2190.9 257.531 2191.36 257.377 2191.73 257.139 2192.1 256.901 2192.41 256.538 2192.67 256.052 2192.93 255.565 2193.22 254.895 2193.56 254.041L2196.33 254.041C2196.23 255.451 2196.14 256.871 2196.05 258.301 2195.96 259.73 2195.86 261.15 2195.76 262.56L2170.54 262.56 2170.54 261.011C2171.01 259.939 2171.57 258.882 2172.2 257.839 2172.84 256.797 2173.55 255.739 2174.35 254.667 2175.14 253.595 2176.05 252.488 2177.06 251.346 2178.07 250.204 2179.19 249.018 2180.43 247.787 2182.29 245.92 2183.81 244.327 2184.98 243.006 2186.15 241.686 2187.08 240.509 2187.75 239.477 2188.43 238.444 2188.89 237.491 2189.14 236.617 2189.39 235.743 2189.51 234.81 2189.51 233.817 2189.51 232.805 2189.37 231.871 2189.08 231.018 2188.79 230.164 2188.38 229.439 2187.84 228.843 2187.31 228.248 2186.63 227.781 2185.8 227.443 2184.98 227.106 2184.03 226.937 2182.96 226.937 2181.11 226.937 2179.56 227.438 2178.31 228.441 2177.06 229.444 2176.09 230.898 2175.39 232.805L2171.49 232.805 2171.49 226.997C2174.03 225.944 2176.37 225.18 2178.5 224.703 2180.64 224.227 2182.56 223.988 2184.27 223.988Z" fill-rule="evenodd"/><text fill="#000000" fill-opacity="0" font-family="Arial,Arial_MSFontService,sans-serif" font-size="38.5718" x="2170.54" y="257.739">2</text><path d="M2288.33 183.602C2296.22 185.683 2302.28 190.174 2306.51 197.078 2310.74 203.981 2312.85 212.309 2312.85 222.063 2312.85 231.843 2310.74 240.172 2306.53 247.048 2302.31 253.924 2296.25 258.402 2288.33 260.483L2287.36 257.362C2293.6 255.282 2298.24 251.175 2301.28 245.042 2304.32 238.909 2305.84 231.114 2305.84 221.657 2305.84 212.525 2304.33 204.94 2301.3 198.901 2298.28 192.863 2293.59 188.803 2287.24 186.723ZM2236.66 183.602 2237.76 186.723C2231.43 188.803 2226.75 192.863 2223.71 198.901 2220.67 204.94 2219.15 212.525 2219.15 221.657 2219.15 231.114 2220.67 238.909 2223.71 245.042 2226.75 251.175 2231.39 255.282 2237.64 257.362L2236.66 260.483C2228.75 258.402 2222.68 253.924 2218.47 247.048 2214.25 240.172 2212.14 231.843 2212.14 222.063 2212.14 212.309 2214.26 203.981 2218.49 197.078 2222.71 190.174 2228.77 185.683 2236.66 183.602Z" fill-rule="evenodd"/><path d="M2255.09 206.283C2255.93 206.283 2256.67 206.378 2257.3 206.567 2257.94 206.756 2258.5 207.046 2258.98 207.438 2259.47 207.83 2259.9 208.337 2260.28 208.958 2260.66 209.579 2261.02 210.424 2261.38 211.491 2261.73 212.558 2262.06 213.882 2262.37 215.463 2262.68 217.043 2262.96 218.685 2263.2 220.387L2263.6 220.387C2266.2 216.739 2268.16 214.071 2269.5 212.383 2270.84 210.694 2271.97 209.438 2272.89 208.613 2273.8 207.789 2274.69 207.209 2275.54 206.871 2276.39 206.533 2277.52 206.364 2278.92 206.364 2280.19 206.364 2281.23 206.526 2282.04 206.851L2280.42 214.186 2277.59 214.186C2277.42 213.051 2276.95 212.484 2276.17 212.484 2275.93 212.484 2275.67 212.524 2275.4 212.605 2275.13 212.686 2274.8 212.862 2274.41 213.132 2274.01 213.402 2273.44 213.929 2272.68 214.713 2271.93 215.496 2271.08 216.456 2270.13 217.59 2269.18 218.725 2268.21 219.914 2267.21 221.157L2264.46 224.602C2264.94 227.195 2265.4 229.438 2265.83 231.329 2266.27 233.22 2266.65 234.794 2266.99 236.051 2267.33 237.307 2267.62 238.3 2267.88 239.029 2268.14 239.759 2268.41 240.306 2268.71 240.671 2269.01 241.035 2269.31 241.292 2269.62 241.441 2269.93 241.589 2270.29 241.664 2270.7 241.664 2271.43 241.664 2272.14 241.38 2272.82 240.812 2273.51 240.245 2274.51 238.962 2275.8 236.962L2278.44 238.705C2276.55 241.515 2274.84 243.494 2273.31 244.642 2271.78 245.791 2269.97 246.365 2267.86 246.365 2266.7 246.365 2265.71 246.155 2264.9 245.737 2264.09 245.318 2263.39 244.649 2262.79 243.73 2262.2 242.812 2261.67 241.38 2261.21 239.435 2260.38 235.976 2259.86 233.328 2259.67 231.491L2259.27 231.491C2256.4 235.517 2254.28 238.408 2252.89 240.164 2251.49 241.92 2250.35 243.217 2249.44 244.055 2248.54 244.892 2247.66 245.48 2246.81 245.818 2245.96 246.155 2244.83 246.324 2243.42 246.324 2242.15 246.324 2241.11 246.162 2240.3 245.838L2241.92 238.502 2244.76 238.502C2244.92 239.637 2245.39 240.205 2246.18 240.205 2246.56 240.205 2246.95 240.103 2247.37 239.901 2247.79 239.698 2248.39 239.212 2249.18 238.442 2249.96 237.672 2251.04 236.463 2252.42 234.814 2253.8 233.166 2255.8 230.694 2258.42 227.398 2258.01 225.263 2257.59 223.21 2257.16 221.238 2256.73 219.265 2256.28 217.428 2255.82 215.726 2255.36 214.024 2254.99 212.909 2254.69 212.383 2254.39 211.856 2254.07 211.491 2253.74 211.288 2253.4 211.086 2252.97 210.984 2252.46 210.984 2251.89 210.984 2251.38 211.113 2250.92 211.369 2250.46 211.626 2249.96 212.072 2249.42 212.707 2248.88 213.342 2248.16 214.335 2247.27 215.686L2244.64 213.943C2246.34 211.376 2247.97 209.458 2249.54 208.188 2251.11 206.918 2252.96 206.283 2255.09 206.283Z" fill-rule="evenodd"/><text fill="#000000" fill-opacity="0" font-family="Arial,Arial_MSFontService,sans-serif" font-size="40.0815" x="2240.3" y="241.355">𝑥</text><path d="M2349.05 244.784 2398.98 244.784 2398.98 250.174 2349.05 250.174ZM2398.98 193.841 2398.98 199.92 2355.58 216.172 2398.98 232.423 2398.98 238.502 2348.89 219.009 2348.89 213.335Z" fill-rule="evenodd"/><text fill="#000000" fill-opacity="0" font-family="Arial,Arial_MSFontService,sans-serif" font-size="56.333" x="2348.89" y="243.133">≤</text><path d="M2450.62 193.193C2448.76 193.193 2447.2 193.747 2445.94 194.854 2444.69 195.962 2443.67 197.556 2442.9 199.637 2442.13 201.717 2441.59 204.25 2441.26 207.236 2440.94 210.221 2440.77 213.592 2440.77 217.347 2440.77 226.155 2441.59 232.619 2443.23 236.739 2444.86 240.86 2447.39 242.92 2450.83 242.92 2454.09 242.92 2456.52 240.981 2458.1 237.104 2459.68 233.227 2460.47 227.222 2460.47 219.09 2460.47 212.876 2460.07 207.843 2459.26 203.993 2458.44 200.143 2457.32 197.381 2455.87 195.706 2454.43 194.03 2452.68 193.193 2450.62 193.193ZM2450.83 189.748C2456.74 189.748 2461.15 192.031 2464.04 196.597 2466.93 201.163 2468.37 208.066 2468.37 217.307 2468.37 226.871 2466.83 234.105 2463.73 239.009 2460.64 243.913 2456.12 246.365 2450.18 246.365 2444.34 246.365 2440 244.068 2437.15 239.475 2434.3 234.882 2432.87 227.911 2432.87 218.563 2432.87 213.592 2433.31 209.296 2434.19 205.675 2435.07 202.055 2436.3 199.063 2437.88 196.698 2439.46 194.334 2441.36 192.585 2443.57 191.45 2445.79 190.315 2448.2 189.748 2450.83 189.748Z" fill-rule="evenodd"/><text fill="#000000" fill-opacity="0" font-family="Arial,Arial_MSFontService,sans-serif" font-size="56.6167" x="2432.87" y="239.288">0</text></g></svg>