<svg width="1316" height="1031" xmlns="http://www.w3.org/2000/svg" xmlns:xlink="http://www.w3.org/1999/xlink" overflow="hidden"><defs><clipPath id="clip0"><rect x="107" y="1195" width="1316" height="1031"/></clipPath></defs><g clip-path="url(#clip0)" transform="translate(-107 -1195)"><path d="M125.5 2147.92 1334.76 2147.92 1334.76 2157.08 125.5 2157.08ZM1330.17 2129.58 1376 2152.5 1330.17 2175.42Z"/><path d="M4.58333-1.68079e-06 4.58368 942.863-4.58299 942.863-4.58333 1.68079e-06ZM22.917 938.28 0.000360892 984.113-22.9163 938.28Z" transform="matrix(1 0 0 -1 773.5 2225.61)"/><path d="M125.5 1880.5 772.753 1880.5" stroke="#000000" stroke-width="9.16667" stroke-miterlimit="8" stroke-dasharray="27.5 9.16667" fill="none" fill-rule="evenodd"/><path d="M1316.4 2072.9C1318.13 2072.9 1319.49 2073.48 1320.49 2074.64 1321.49 2075.8 1321.99 2077.37 1321.99 2079.34 1321.99 2081.48 1321.57 2084.14 1320.74 2087.33L1318.95 2094.34C1318.49 2096.12 1318.16 2097.51 1317.96 2098.51 1317.76 2099.51 1317.61 2100.38 1317.51 2101.11 1317.42 2101.84 1317.37 2102.44 1317.37 2102.93 1317.37 2104.79 1317.68 2106.14 1318.3 2106.96 1318.93 2107.79 1319.94 2108.2 1321.34 2108.2 1322.48 2108.2 1323.7 2107.75 1325.01 2106.84 1326.32 2105.94 1327.71 2104.57 1329.19 2102.75 1330.66 2100.92 1331.84 2099.15 1332.73 2097.44 1333.62 2095.72 1334.35 2093.61 1334.92 2091.1L1338.77 2073.55 1345.78 2073.55 1339.86 2099.24C1339.27 2101.84 1338.97 2103.84 1338.97 2105.24 1338.97 2106.32 1339.15 2107.1 1339.5 2107.59 1339.85 2108.08 1340.4 2108.32 1341.16 2108.32 1341.97 2108.32 1342.84 2107.99 1343.75 2107.33 1344.67 2106.67 1345.97 2105.4 1347.65 2103.54L1349.96 2105.81C1347.5 2108.43 1345.4 2110.28 1343.67 2111.36 1341.94 2112.44 1340.11 2112.98 1338.16 2112.98 1336.49 2112.98 1335.15 2112.43 1334.15 2111.32 1333.15 2110.21 1332.65 2108.74 1332.65 2106.9 1332.65 2105.44 1332.97 2103.85 1333.62 2102.12L1333.14 2101.96C1330.46 2105.71 1327.93 2108.48 1325.54 2110.27 1323.15 2112.05 1320.69 2112.94 1318.18 2112.94 1315.67 2112.94 1313.74 2112.22 1312.39 2110.77 1311.04 2109.33 1310.36 2107.32 1310.36 2104.75 1310.36 2103.05 1310.75 2100.63 1311.54 2097.5L1314.17 2086.88C1314.9 2083.94 1315.26 2081.86 1315.26 2080.64 1315.26 2079.56 1315.09 2078.78 1314.74 2078.29 1314.39 2077.8 1313.83 2077.56 1313.08 2077.56 1312.24 2077.56 1311.35 2077.9 1310.42 2078.59 1309.49 2079.28 1308.21 2080.53 1306.59 2082.34L1304.28 2080.07C1306.58 2077.75 1308.31 2076.16 1309.47 2075.29 1310.63 2074.43 1311.74 2073.81 1312.81 2073.45 1313.88 2073.08 1315.07 2072.9 1316.4 2072.9Z" fill-rule="evenodd"/><text fill="#000000" fill-opacity="0" font-family="Arial,Arial_MSFontService,sans-serif" font-size="40.0815" x="1304.28" y="2107.97">𝑢</text><path d="M825.742 1288.38 831.334 1288.38 829.105 1298.39 841.426 1298.39 840.534 1302.48 828.214 1302.48 824.607 1318.21C823.904 1321.26 823.458 1323.46 823.269 1324.79 823.08 1326.13 822.986 1327.2 822.986 1328.01 822.986 1331.36 824.377 1333.04 827.16 1333.04 828.349 1333.04 829.612 1332.59 830.949 1331.68 832.287 1330.78 833.874 1329.23 835.711 1327.04L838.062 1329.47C835.711 1332.31 833.448 1334.4 831.273 1335.76 829.099 1337.11 826.822 1337.78 824.445 1337.78 818.798 1337.78 815.974 1334.93 815.974 1329.23 815.974 1327.42 816.204 1325.52 816.663 1323.52L821.446 1302.48 814.637 1302.48 815.245 1299.69C816.839 1299.66 818.048 1299.54 818.872 1299.32 819.696 1299.11 820.385 1298.81 820.939 1298.43 821.493 1298.05 822 1297.51 822.459 1296.81 822.918 1296.11 823.364 1295.21 823.796 1294.11 824.229 1293.02 824.877 1291.11 825.742 1288.38Z" fill-rule="evenodd"/><text fill="#000000" fill-opacity="0" font-family="Arial,Arial_MSFontService,sans-serif" font-size="49.4028" x="814.637" y="1331.61">𝑡</text><path d="M832.552 1874.65C831.174 1874.65 829.817 1875.12 828.479 1876.05 827.142 1876.98 825.676 1878.47 824.082 1880.53 822.488 1882.58 821.245 1884.61 820.354 1886.61 819.462 1888.61 818.76 1890.9 818.246 1893.5L817.922 1895.2C817.652 1896.63 817.483 1897.73 817.415 1898.48 817.348 1899.24 817.314 1899.98 817.314 1900.71 817.314 1902.82 817.767 1904.35 818.672 1905.31 819.577 1906.27 821.137 1906.75 823.353 1906.75 824.731 1906.75 826 1906.48 827.162 1905.94 828.324 1905.4 829.425 1904.61 830.465 1903.59 831.505 1902.56 832.444 1901.32 833.282 1899.86 834.119 1898.4 834.869 1896.71 835.531 1894.77 836.193 1892.84 836.693 1890.86 837.031 1888.82 837.368 1886.78 837.537 1884.86 837.537 1883.08 837.537 1880.24 837.139 1878.13 836.342 1876.74 835.545 1875.35 834.282 1874.65 832.552 1874.65ZM815.49 1869.87C817.165 1869.87 818.496 1870.42 819.482 1871.53 820.468 1872.64 820.962 1874.11 820.962 1875.95 820.962 1877.46 820.651 1879.06 820.029 1880.73L820.516 1880.89C825.514 1873.57 830.485 1869.91 835.43 1869.91 838.375 1869.91 840.665 1871.03 842.299 1873.27 843.934 1875.52 844.751 1878.68 844.751 1882.76 844.751 1887.21 843.853 1891.6 842.056 1895.91 840.259 1900.22 837.767 1903.64 834.579 1906.16 831.391 1908.69 827.824 1909.95 823.88 1909.95 820.286 1909.95 817.301 1909.17 814.923 1907.6L813.059 1916.48C812.653 1918.39 812.451 1919.97 812.451 1921.22 812.451 1922.41 812.755 1923.25 813.363 1923.75 813.971 1924.25 815.153 1924.58 816.909 1924.74L816.585 1926.73 804.062 1926.73 813.829 1883.73C814.396 1881.24 814.68 1879.2 814.68 1877.61 814.68 1876.53 814.504 1875.75 814.153 1875.26 813.802 1874.77 813.248 1874.53 812.491 1874.53 811.654 1874.53 810.769 1874.87 809.837 1875.56 808.905 1876.25 807.628 1877.5 806.007 1879.31L803.697 1877.04C806.129 1874.5 808.189 1872.67 809.877 1871.55 811.566 1870.43 813.437 1869.87 815.49 1869.87Z" fill-rule="evenodd"/><text fill="#000000" fill-opacity="0" font-family="Arial,Arial_MSFontService,sans-serif" font-size="56.8599" x="803.697" y="1919.62">𝑝</text><path d="M863.146 1850.42 867.077 1850.42 866.214 1859.74 873.868 1854.35 875.805 1857.68 867.316 1861.64 875.805 1865.64 873.868 1868.94 866.214 1863.55 867.077 1872.87 863.146 1872.87 864.039 1863.55 856.355 1868.94 854.389 1865.64 862.908 1861.64 854.389 1857.68 856.355 1854.35 864.039 1859.74Z" fill-rule="evenodd"/><text fill="#000000" fill-opacity="0" font-family="Arial,Arial_MSFontService,sans-serif" font-size="22.458" x="854.389" y="1870.07">∗</text><path d="M522.816 1647.63C545.826 1589.91 570.083 1534.96 601.825 1492.77 633.567 1450.59 672.054 1409.98 713.268 1394.53 754.482 1379.08 805.121 1374.73 849.107 1400.08 893.093 1425.43 924.696 1464.83 977.183 1546.61 1029.67 1628.39 1130.12 1814.52 1164.03 1890.75 1197.94 1966.98 1190.64 1987.33 1180.66 2003.98 1170.68 2020.63 1145 2023.22 1104.15 1990.66 1063.31 1958.1 991.599 1853.28 935.6 1808.6 879.601 1763.92 819.629 1728.03 768.158 1722.57 716.687 1717.11 671.685 1750.04 626.775 1775.85 581.865 1801.66 525.866 1866.88 498.698 1877.43 471.53 1887.97 459.748 1877.43 463.768 1839.13 467.788 1800.83 499.807 1705.36 522.816 1647.63Z" fill="#F8CCB9" fill-rule="evenodd"/><path d="M835.098 1632.09C840.826 1632.09 845.959 1632.86 850.498 1634.4L848.026 1645.99 842.717 1645.99C842.717 1643.64 842.467 1641.81 841.967 1640.5 841.468 1639.19 840.704 1638.25 839.678 1637.69 838.651 1637.12 837.273 1636.83 835.544 1636.83 831.95 1636.83 828.722 1638.49 825.858 1641.8 822.994 1645.11 820.562 1649.97 818.563 1656.39 816.563 1662.81 815.564 1668.58 815.564 1673.71 815.564 1680.55 817.82 1683.97 822.332 1683.97 824.493 1683.97 826.276 1683.29 827.681 1681.92 829.086 1680.56 830.113 1678.44 830.762 1675.58L831.329 1673.03C831.545 1672.03 831.68 1671.19 831.734 1670.53 831.788 1669.87 831.815 1669.27 831.815 1668.73 831.815 1667.62 831.559 1666.79 831.045 1666.24 830.532 1665.68 829.654 1665.33 828.411 1665.16L828.978 1662.49 848.756 1662.49 848.188 1665.16C847.135 1665.51 846.351 1665.94 845.838 1666.44 845.324 1666.94 844.865 1667.67 844.46 1668.63 844.055 1669.59 843.609 1671.19 843.122 1673.43L840.002 1687.41 834.409 1688.71 832.261 1685.83C828.722 1687.75 825.034 1688.71 821.197 1688.71 815.523 1688.71 811.167 1687.12 808.127 1683.93 805.087 1680.74 803.568 1676.13 803.568 1670.11 803.568 1666.38 804.203 1662.12 805.472 1657.32 806.742 1652.53 808.708 1648.2 811.369 1644.35 814.031 1640.5 817.374 1637.5 821.4 1635.33 825.425 1633.17 829.992 1632.09 835.098 1632.09Z" fill="#D74514" fill-rule="evenodd"/><text fill="#000000" fill-opacity="0" font-family="Arial,Arial_MSFontService,sans-serif" font-size="56.6167" x="803.568" y="1681.63">𝑮</text><path d="M128.5 1912.5 1272.54 2032.09" stroke="#D74514" stroke-width="9.16667" stroke-miterlimit="8" fill="none" fill-rule="evenodd"/><path d="M128.5 1764.5 1272.54 1884.09" stroke="#5D1709" stroke-width="9.16667" stroke-miterlimit="8" fill="none" fill-rule="evenodd"/><path d="M128.5 1628.5 1272.54 1748.09" stroke="#5D1709" stroke-width="9.16667" stroke-miterlimit="8" fill="none" fill-rule="evenodd"/><path d="M128.5 1482.5 1272.54 1602.09" stroke="#5D1709" stroke-width="9.16667" stroke-miterlimit="8" fill="none" fill-rule="evenodd"/><path d="M823.478 2032C820.722 2032 818.25 2033.11 816.061 2035.34 813.873 2037.57 812.15 2040.58 810.894 2044.36 809.638 2048.14 809.01 2051.91 809.01 2055.67 809.01 2058.48 809.415 2060.58 810.225 2061.97 811.036 2063.36 812.306 2064.06 814.035 2064.06 815.413 2064.06 816.784 2063.58 818.148 2062.64 819.513 2061.69 820.972 2060.19 822.525 2058.14 824.079 2056.09 825.288 2054.13 826.153 2052.26 827.017 2050.4 827.753 2048.07 828.361 2045.29 828.969 2042.51 829.273 2040.09 829.273 2038.04 829.273 2035.93 828.827 2034.4 827.936 2033.44 827.044 2032.48 825.558 2032 823.478 2032ZM822.829 2028.8C824.531 2028.8 826.139 2029 827.652 2029.4 829.165 2029.81 830.692 2030.5 832.232 2031.47L835.96 2028.8 838.554 2029.45 834.38 2048.33C834.082 2049.66 833.407 2052.99 832.353 2058.34 831.246 2064.02 830.347 2068.03 829.658 2070.38 828.969 2072.73 828.111 2074.87 827.085 2076.8 826.058 2078.73 824.734 2080.42 823.113 2081.85 821.492 2083.28 819.526 2084.39 817.216 2085.17 814.906 2085.95 812.171 2086.35 809.01 2086.35 798.797 2086.35 793.69 2083.37 793.69 2077.43 793.69 2075.92 794.149 2074.54 795.068 2073.3 795.987 2072.05 797.459 2070.74 799.486 2069.36L802.404 2071.72C801.89 2072.34 801.458 2072.95 801.107 2073.56 800.755 2074.17 800.506 2074.75 800.357 2075.32 800.208 2075.89 800.134 2076.57 800.134 2077.35 800.134 2079.38 800.864 2080.85 802.323 2081.79 803.781 2082.72 805.983 2083.18 808.928 2083.18 812.252 2083.18 814.92 2082.43 816.933 2080.94 818.945 2079.44 820.668 2077.02 822.1 2073.7 823.532 2070.38 824.923 2065.35 826.274 2058.62L825.707 2058.5C823.086 2062.1 820.654 2064.72 818.412 2066.37 816.169 2068.01 813.751 2068.84 811.157 2068.84 808.212 2068.84 805.923 2067.73 804.288 2065.51 802.654 2063.3 801.836 2060.14 801.836 2056.03 801.836 2051.41 802.741 2046.97 804.552 2042.72 806.362 2038.46 808.874 2035.08 812.09 2032.57 815.305 2030.05 818.885 2028.8 822.829 2028.8Z" fill-rule="evenodd"/><text fill="#000000" fill-opacity="0" font-family="Arial,Arial_MSFontService,sans-serif" font-size="57.5488" x="793.69" y="2079.15">𝑔</text><path d="M925.573 2006.12C933.463 2008.2 939.521 2012.69 943.75 2019.59 947.978 2026.49 950.092 2034.82 950.092 2044.58 950.092 2054.36 947.985 2062.69 943.77 2069.56 939.555 2076.44 933.49 2080.92 925.573 2083L924.601 2079.88C930.842 2077.8 935.482 2073.69 938.522 2067.56 941.561 2061.42 943.081 2053.63 943.081 2044.17 943.081 2035.04 941.568 2027.45 938.542 2021.41 935.516 2015.38 930.828 2011.32 924.479 2009.24ZM876.126 2006.12 877.22 2009.24C870.898 2011.32 866.217 2015.38 863.177 2021.41 860.138 2027.45 858.618 2035.04 858.618 2044.17 858.618 2053.63 860.138 2061.42 863.177 2067.56 866.217 2073.69 870.857 2077.8 877.099 2079.88L876.126 2083C868.209 2080.92 862.144 2076.44 857.929 2069.56 853.714 2062.69 851.607 2054.36 851.607 2044.58 851.607 2034.82 853.721 2026.49 857.949 2019.59 862.178 2012.69 868.237 2008.2 876.126 2006.12Z" fill-rule="evenodd"/><path d="M902.906 2010.24C904.987 2010.24 906.581 2010.72 907.688 2011.69 908.796 2012.67 909.58 2014.2 910.039 2016.29 910.498 2018.39 910.728 2021.45 910.728 2025.47 910.728 2026.8 910.701 2028.72 910.647 2031.23L910.485 2037.63C910.269 2043.71 910.161 2048.49 910.161 2051.98 910.161 2054.79 910.221 2056.98 910.343 2058.56 910.465 2060.14 910.66 2061.34 910.931 2062.15 911.201 2062.96 911.539 2063.51 911.944 2063.79 912.349 2064.08 912.849 2064.22 913.443 2064.22 914.146 2064.22 914.896 2063.98 915.693 2063.51 916.49 2063.04 917.469 2062.18 918.631 2060.94L920.9 2063.2C919.144 2064.99 917.408 2066.38 915.693 2067.38 913.977 2068.38 912.457 2068.88 911.133 2068.88 909.593 2068.88 908.418 2068.57 907.607 2067.95 906.797 2067.32 906.209 2066.3 905.844 2064.87 905.48 2063.43 905.297 2061.33 905.297 2058.54 905.297 2054.71 905.581 2048.43 906.148 2039.7L905.743 2039.7C897.638 2051.59 891.518 2061.1 887.384 2068.23L879.157 2068.23 879.562 2066.24C880.805 2064.73 882.048 2063.16 883.291 2061.52 884.534 2059.89 886.047 2057.81 887.83 2055.3L905.986 2029.53C905.959 2026.77 905.838 2024.46 905.622 2022.6 905.405 2020.73 905.108 2019.25 904.73 2018.16 904.352 2017.06 903.852 2016.26 903.23 2015.75 902.609 2015.23 901.758 2014.98 900.677 2014.98 899.786 2014.98 898.881 2015.23 897.962 2015.75 897.043 2016.26 895.706 2017.31 893.95 2018.91L891.842 2016.56C894.328 2014.1 896.388 2012.43 898.023 2011.55 899.657 2010.67 901.285 2010.24 902.906 2010.24Z" fill-rule="evenodd"/><text fill="#000000" fill-opacity="0" font-family="Arial,Arial_MSFontService,sans-serif" font-size="58.6431" x="879.157" y="2061.55">𝜆</text><path d="M145.771 2017.72 155.497 2017.72 153.147 2027.85 162.995 2027.85 161.901 2032.92 151.971 2032.92 148.04 2049.13C147.365 2051.91 146.899 2054.03 146.642 2055.47 146.385 2056.92 146.257 2058.14 146.257 2059.14 146.257 2060.41 146.487 2061.34 146.946 2061.92 147.405 2062.5 148.081 2062.79 148.972 2062.79 150.188 2062.79 151.438 2062.36 152.721 2061.49 154.004 2060.63 155.389 2059.29 156.875 2057.48L159.996 2060.68C157.267 2063.68 154.761 2065.77 152.478 2066.94 150.195 2068.12 147.5 2068.7 144.393 2068.7 141.313 2068.7 138.949 2067.91 137.3 2066.33 135.652 2064.75 134.828 2062.57 134.828 2059.79 134.828 2058.52 134.923 2057.31 135.112 2056.16 135.301 2055.01 135.693 2053.13 136.287 2050.51L140.462 2032.92 134.139 2032.92 134.909 2029.64C136.801 2029.64 138.233 2029.46 139.205 2029.11 140.178 2028.76 140.995 2028.23 141.657 2027.53 142.319 2026.83 142.961 2025.76 143.582 2024.33 144.204 2022.9 144.933 2020.69 145.771 2017.72Z" fill="#D74514" fill-rule="evenodd"/><text fill="#000000" fill-opacity="0" font-family="Arial,Arial_MSFontService,sans-serif" font-size="50.9834" x="134.139" y="2062.33">𝒕</text><path d="M192.728 2050.06 242.658 2050.06 242.658 2055.45 192.728 2055.45ZM192.728 2033.24 242.658 2033.24 242.658 2038.63 192.728 2038.63Z" fill="#D74514" fill-rule="evenodd"/><text fill="#000000" fill-opacity="0" font-family="Arial,Arial_MSFontService,sans-serif" font-size="22.209" x="192.728" y="2052.68">=</text><path d="M277.52 2041.63 327.449 2041.63 327.449 2047.02 277.52 2047.02Z" fill="#D74514" fill-rule="evenodd"/><text fill="#000000" fill-opacity="0" font-family="Arial,Arial_MSFontService,sans-serif" font-size="5.39014" x="277.52" y="2046.35">−</text><path d="M360.347 2009.78C362.238 2009.78 363.832 2010.21 365.129 2011.07 366.426 2011.94 367.379 2013.59 367.987 2016.02 368.594 2018.45 368.898 2022.26 368.898 2027.45 368.898 2030.99 368.831 2035.09 368.696 2039.77 368.561 2044.42 368.493 2048.08 368.493 2050.75 368.493 2053.83 368.547 2056.09 368.655 2057.54 368.763 2058.99 368.932 2060.08 369.162 2060.82 369.391 2061.57 369.689 2062.09 370.053 2062.38 370.418 2062.68 370.938 2062.83 371.614 2062.83 372.37 2062.83 373.167 2062.52 374.005 2061.92 374.842 2061.31 375.707 2060.52 376.599 2059.55L379.517 2062.46C377.085 2064.71 374.984 2066.31 373.215 2067.27 371.445 2068.23 369.668 2068.7 367.885 2068.7 365.832 2068.7 364.359 2067.94 363.468 2066.42 362.576 2064.89 362.13 2062.46 362.13 2059.14 362.13 2056.57 362.414 2051.43 362.981 2043.7L362.576 2043.7C356.551 2052.99 351.58 2061.11 347.662 2068.06L333.964 2068.06 334.612 2065.38C336.855 2062.63 340.421 2057.95 345.311 2051.36L362.819 2027.57C362.522 2024.06 362.191 2021.59 361.826 2020.15 361.462 2018.72 360.969 2017.71 360.347 2017.11 359.726 2016.52 358.888 2016.22 357.834 2016.22 356.754 2016.22 355.727 2016.49 354.754 2017.01 353.782 2017.54 352.471 2018.51 350.823 2019.91L347.986 2016.79C350.31 2014.63 352.032 2013.14 353.154 2012.31 354.275 2011.49 355.41 2010.86 356.558 2010.43 357.706 2009.99 358.969 2009.78 360.347 2009.78Z" fill="#D74514" fill-rule="evenodd"/><text fill="#000000" fill-opacity="0" font-family="Arial,Arial_MSFontService,sans-serif" font-size="58.9268" x="333.964" y="2061.34">𝝀</text><path d="M394.757 2027.2C397.594 2027.2 399.681 2027.92 401.019 2029.35 402.356 2030.78 403.025 2032.87 403.025 2035.59 403.025 2037.51 402.633 2040.01 401.85 2043.09L400.066 2049.9C398.959 2054.14 398.405 2057.24 398.405 2059.18 398.405 2061.59 399.35 2062.79 401.242 2062.79 402.106 2062.79 403.038 2062.46 404.038 2061.82 405.038 2061.17 406.152 2060.17 407.382 2058.84 408.611 2057.5 409.617 2056.02 410.401 2054.4 411.184 2052.78 411.819 2050.86 412.306 2048.64L416.845 2027.85 428.436 2027.85 421.83 2055.94C421.505 2057.32 421.343 2058.68 421.343 2060.03 421.343 2060.92 421.492 2061.61 421.789 2062.1 422.086 2062.59 422.6 2062.83 423.329 2062.83 424.167 2062.83 425.072 2062.45 426.044 2061.69 427.017 2060.94 428.152 2059.82 429.449 2058.33L432.367 2061.25C429.53 2064.08 427.085 2066.04 425.031 2067.1 422.978 2068.17 420.816 2068.7 418.547 2068.7 416.277 2068.7 414.481 2068.08 413.157 2066.82 411.833 2065.56 411.171 2063.91 411.171 2061.86 411.171 2061.18 411.252 2060.53 411.414 2059.91L411.009 2059.59C408.496 2062.69 406.085 2064.99 403.775 2066.48 401.465 2067.96 398.797 2068.7 395.77 2068.7 393.015 2068.7 390.86 2067.92 389.306 2066.35 387.753 2064.79 386.976 2062.65 386.976 2059.95 386.976 2059.09 387.064 2058.01 387.239 2056.71 387.415 2055.41 387.624 2054.26 387.868 2053.26L391.069 2040.62C391.529 2038.81 391.758 2037.23 391.758 2035.88 391.758 2034.82 391.583 2034.09 391.231 2033.69 390.88 2033.28 390.38 2033.08 389.732 2033.08 388.948 2033.08 388.077 2033.45 387.118 2034.2 386.159 2034.94 385.004 2036.07 383.653 2037.58L380.735 2034.66C383.518 2031.88 385.936 2029.94 387.989 2028.85 390.043 2027.75 392.299 2027.2 394.757 2027.2Z" fill="#D74514" fill-rule="evenodd"/><text fill="#000000" fill-opacity="0" font-family="Arial,Arial_MSFontService,sans-serif" font-size="41.5" x="380.735" y="2063.52">𝒖</text><path d="M479.503 2018.29 485.258 2018.29 485.258 2041.63 507.345 2041.63 507.345 2047.02 485.258 2047.02 485.258 2070.37 479.503 2070.37 479.503 2047.02 457.415 2047.02 457.415 2041.63 479.503 2041.63Z" fill="#D74514" fill-rule="evenodd"/><text fill="#000000" fill-opacity="0" font-family="Arial,Arial_MSFontService,sans-serif" font-size="52.0776" x="457.415" y="2063.86">+</text><path d="M565.061 2031.42C562.629 2031.42 560.441 2032.64 558.495 2035.07 556.55 2037.5 554.963 2040.88 553.733 2045.2 552.504 2049.52 551.889 2053.41 551.889 2056.87 551.889 2058.84 552.18 2060.32 552.761 2061.29 553.341 2062.26 554.24 2062.75 555.456 2062.75 556.617 2062.75 557.793 2062.38 558.982 2061.63 560.17 2060.89 561.42 2059.74 562.73 2058.19 564.041 2056.63 565.142 2054.76 566.033 2052.57 566.925 2050.39 567.722 2047.63 568.424 2044.31L568.749 2042.81C569.181 2040.81 569.397 2038.86 569.397 2036.97 569.397 2035.11 569.059 2033.72 568.384 2032.8 567.708 2031.88 566.601 2031.42 565.061 2031.42ZM564.655 2027.2C566.574 2027.2 568.337 2027.41 569.944 2027.83 571.552 2028.25 573.193 2029.02 574.868 2030.12L578.516 2027.2 583.055 2027.85 579.569 2043.7C579.002 2046.29 578.489 2048.78 578.029 2051.16 576.57 2058.56 575.557 2063.49 574.99 2065.95 573.99 2070.14 572.964 2073.3 571.91 2075.43 570.802 2077.67 569.37 2079.59 567.614 2081.17 565.858 2082.75 563.656 2083.94 561.008 2084.75 557.982 2085.7 554.307 2086.17 549.984 2086.17 544.257 2086.17 539.961 2085.41 537.097 2083.88 534.233 2082.36 532.801 2080.07 532.801 2077.01 532.801 2075.34 533.395 2073.76 534.584 2072.27 535.773 2070.79 537.529 2069.37 539.853 2068.02L544.068 2071.42C543.338 2072.31 542.831 2073.15 542.548 2073.93 542.264 2074.72 542.122 2075.57 542.122 2076.49 542.122 2078.32 542.764 2079.69 544.047 2080.6 545.331 2081.5 547.256 2081.96 549.822 2081.96 553.956 2081.96 557.225 2080.41 559.63 2077.32 562.035 2074.22 564.088 2068.57 565.79 2060.36L565.263 2059.99C562.886 2063.02 560.603 2065.23 558.414 2066.62 556.226 2068.01 553.605 2068.7 550.552 2068.7 547.526 2068.7 545.155 2067.6 543.439 2065.38 541.724 2063.17 540.866 2059.96 540.866 2055.78 540.866 2052.08 541.406 2048.42 542.487 2044.81 543.568 2041.21 545.101 2038.11 547.087 2035.51 549.073 2032.92 551.545 2030.89 554.503 2029.41 557.462 2027.94 560.846 2027.2 564.655 2027.2Z" fill="#D74514" fill-rule="evenodd"/><text fill="#000000" fill-opacity="0" font-family="Arial,Arial_MSFontService,sans-serif" font-size="58.9673" x="532.801" y="2078.8">𝒈</text><path d="M670.436 2005.94C678.325 2008.02 684.384 2012.51 688.612 2019.42 692.841 2026.32 694.955 2034.65 694.955 2044.4 694.955 2054.18 692.848 2062.51 688.633 2069.39 684.418 2076.26 678.352 2080.74 670.436 2082.82L669.463 2079.7C675.705 2077.62 680.345 2073.51 683.384 2067.38 686.424 2061.25 687.944 2053.45 687.944 2044 687.944 2034.87 686.431 2027.28 683.405 2021.24 680.379 2015.2 675.691 2011.14 669.342 2009.06ZM618.972 2005.94 620.066 2009.06C613.744 2011.14 609.063 2015.2 606.023 2021.24 602.984 2027.28 601.464 2034.87 601.464 2044 601.464 2053.45 602.984 2061.25 606.023 2067.38 609.063 2073.51 613.703 2077.62 619.945 2079.7L618.972 2082.82C611.056 2080.74 604.99 2076.26 600.775 2069.39 596.56 2062.51 594.453 2054.18 594.453 2044.4 594.453 2034.65 596.567 2026.32 600.795 2019.42 605.024 2012.51 611.083 2008.02 618.972 2005.94Z" fill="#D74514" fill-rule="evenodd"/><path d="M648.387 2009.78C650.278 2009.78 651.872 2010.21 653.169 2011.07 654.466 2011.94 655.418 2013.59 656.026 2016.02 656.634 2018.45 656.938 2022.26 656.938 2027.45 656.938 2030.99 656.87 2035.09 656.735 2039.77 656.6 2044.42 656.533 2048.08 656.533 2050.75 656.533 2053.83 656.587 2056.09 656.695 2057.54 656.803 2058.99 656.972 2060.08 657.201 2060.82 657.431 2061.57 657.728 2062.09 658.093 2062.38 658.458 2062.68 658.978 2062.83 659.653 2062.83 660.41 2062.83 661.207 2062.52 662.044 2061.92 662.882 2061.31 663.747 2060.52 664.638 2059.55L667.556 2062.46C665.125 2064.71 663.024 2066.31 661.254 2067.27 659.484 2068.23 657.708 2068.7 655.925 2068.7 653.871 2068.7 652.399 2067.94 651.507 2066.42 650.616 2064.89 650.17 2062.46 650.17 2059.14 650.17 2056.57 650.454 2051.43 651.021 2043.7L650.616 2043.7C644.591 2052.99 639.619 2061.11 635.702 2068.06L622.003 2068.06 622.652 2065.38C624.894 2062.63 628.461 2057.95 633.351 2051.36L650.859 2027.57C650.562 2024.06 650.231 2021.59 649.866 2020.15 649.501 2018.72 649.008 2017.71 648.387 2017.11 647.765 2016.52 646.928 2016.22 645.874 2016.22 644.793 2016.22 643.767 2016.49 642.794 2017.01 641.821 2017.54 640.511 2018.51 638.863 2019.91L636.026 2016.79C638.349 2014.63 640.072 2013.14 641.193 2012.31 642.314 2011.49 643.449 2010.86 644.597 2010.43 645.746 2009.99 647.009 2009.78 648.387 2009.78Z" fill="#D74514" fill-rule="evenodd"/><text fill="#000000" fill-opacity="0" font-family="Arial,Arial_MSFontService,sans-serif" font-size="58.9268" x="622.003" y="2061.34">𝝀</text></g></svg>