<svg xmlns="http://www.w3.org/2000/svg" width="1316" height="1031" overflow="hidden"><defs><clipPath id="a"><path d="M107 1195h1316v1031H107z"/></clipPath></defs><g clip-path="url(#a)" transform="translate(-107 -1195)"><path d="M125.5 2147.92h1209.26v9.16H125.5Zm1204.67-18.34 45.83 22.92-45.83 22.92Z"/><path d="M778.083 2225.61v-942.863h-9.166v942.863Zm18.334-938.28-22.917-45.833-22.916 45.833Z"/><path fill="none" stroke="#000" stroke-dasharray="27.5 9.16667" stroke-miterlimit="8" stroke-width="9.167" d="M125.5 1880.5h647.253"/><path fill-rule="evenodd" d="M1316.4 2072.9c1.73 0 3.09.58 4.09 1.74s1.5 2.73 1.5 4.7c0 2.14-.42 4.8-1.25 7.99l-1.79 7.01q-.69 2.67-.99 4.17c-.2 1-.35 1.87-.45 2.6-.09.73-.14 1.33-.14 1.82 0 1.86.31 3.21.93 4.03.63.83 1.64 1.24 3.04 1.24 1.14 0 2.36-.45 3.67-1.36 1.31-.9 2.7-2.27 4.18-4.09q2.205-2.745 3.54-5.31c.89-1.72 1.62-3.83 2.19-6.34l3.85-17.55h7.01l-5.92 25.69c-.59 2.6-.89 4.6-.89 6 0 1.08.18 1.86.53 2.35s.9.73 1.66.73c.81 0 1.68-.33 2.59-.99.92-.66 2.22-1.93 3.9-3.79l2.31 2.27c-2.46 2.62-4.56 4.47-6.29 5.55s-3.56 1.62-5.51 1.62c-1.67 0-3.01-.55-4.01-1.66s-1.5-2.58-1.5-4.42c0-1.46.32-3.05.97-4.78l-.48-.16c-2.68 3.75-5.21 6.52-7.6 8.31-2.39 1.78-4.85 2.67-7.36 2.67s-4.44-.72-5.79-2.17c-1.35-1.44-2.03-3.45-2.03-6.02 0-1.7.39-4.12 1.18-7.25l2.63-10.62c.73-2.94 1.09-5.02 1.09-6.24 0-1.08-.17-1.86-.52-2.35s-.91-.73-1.66-.73c-.84 0-1.73.34-2.66 1.03s-2.21 1.94-3.83 3.75l-2.31-2.27c2.3-2.32 4.03-3.91 5.19-4.78 1.16-.86 2.27-1.48 3.34-1.84 1.07-.37 2.26-.55 3.59-.55"/><text x="1304.28" y="2107.97" fill-opacity="0" font-family="Arial,Arial_MSFontService,sans-serif" font-size="40.081">𝑢</text><path fill-rule="evenodd" d="M825.742 1288.38h5.592l-2.229 10.01h12.321l-.892 4.09h-12.32l-3.607 15.73c-.703 3.05-1.149 5.25-1.338 6.58-.189 1.34-.283 2.41-.283 3.22 0 3.35 1.391 5.03 4.174 5.03 1.189 0 2.452-.45 3.789-1.36 1.338-.9 2.925-2.45 4.762-4.64l2.351 2.43c-2.351 2.84-4.614 4.93-6.789 6.29-2.174 1.35-4.451 2.02-6.828 2.02q-8.47 0-8.471-8.55c0-1.81.23-3.71.689-5.71l4.783-21.04h-6.809l.608-2.79c1.594-.03 2.803-.15 3.627-.37.824-.21 1.513-.51 2.067-.89q.831-.57 1.52-1.62t1.337-2.7q.649-1.635 1.946-5.73"/><text x="814.637" y="1331.61" fill-opacity="0" font-family="Arial,Arial_MSFontService,sans-serif" font-size="49.403">𝑡</text><path fill-rule="evenodd" d="M832.552 1874.65c-1.378 0-2.735.47-4.073 1.4-1.337.93-2.803 2.42-4.397 4.48-1.594 2.05-2.837 4.08-3.728 6.08-.892 2-1.594 4.29-2.108 6.89l-.324 1.7c-.27 1.43-.439 2.53-.507 3.28-.067.76-.101 1.5-.101 2.23 0 2.11.453 3.64 1.358 4.6q1.357 1.44 4.681 1.44 2.067 0 3.809-.81c1.162-.54 2.263-1.33 3.303-2.35 1.04-1.03 1.979-2.27 2.817-3.73.837-1.46 1.587-3.15 2.249-5.09a37 37 0 0 0 1.5-5.95c.337-2.04.506-3.96.506-5.74 0-2.84-.398-4.95-1.195-6.34s-2.06-2.09-3.79-2.09m-17.062-4.78c1.675 0 3.006.55 3.992 1.66s1.48 2.58 1.48 4.42c0 1.51-.311 3.11-.933 4.78l.487.16q7.497-10.98 14.914-10.98 4.418 0 6.869 3.36c1.635 2.25 2.452 5.41 2.452 9.49 0 4.45-.898 8.84-2.695 13.15s-4.289 7.73-7.477 10.25c-3.188 2.53-6.755 3.79-10.699 3.79-3.594 0-6.579-.78-8.957-2.35l-1.864 8.88q-.609 2.865-.608 4.74c0 1.19.304 2.03.912 2.53q.912.75 3.546.99l-.324 1.99h-12.523l9.767-43q.85-3.735.851-6.12c0-1.08-.176-1.86-.527-2.35s-.905-.73-1.662-.73c-.837 0-1.722.34-2.654 1.03q-1.398 1.035-3.83 3.75l-2.31-2.27q3.648-3.81 6.18-5.49 2.534-1.68 5.613-1.68"/><text x="803.697" y="1919.62" fill-opacity="0" font-family="Arial,Arial_MSFontService,sans-serif" font-size="56.86">𝑝</text><path fill-rule="evenodd" d="M863.146 1850.42h3.931l-.863 9.32 7.654-5.39 1.937 3.33-8.489 3.96 8.489 4-1.937 3.3-7.654-5.39.863 9.32h-3.931l.893-9.32-7.684 5.39-1.966-3.3 8.519-4-8.519-3.96 1.966-3.33 7.684 5.39Z"/><text x="854.389" y="1870.07" fill-opacity="0" font-family="Arial,Arial_MSFontService,sans-serif" font-size="22.458">∗</text><path fill="#f8ccb9" fill-rule="evenodd" d="M522.816 1647.63c23.01-57.72 47.267-112.67 79.009-154.86 31.742-42.18 70.229-82.79 111.443-98.24s91.853-19.8 135.839 5.55 75.589 64.75 128.076 146.53 152.937 267.91 186.847 344.14 26.61 96.58 16.63 113.23-35.66 19.24-76.51-13.32c-40.84-32.56-112.551-137.38-168.55-182.06s-115.971-80.57-167.442-86.03-96.473 27.47-141.383 53.28-100.909 91.03-128.077 101.58c-27.168 10.54-38.95 0-34.93-38.3s36.039-133.77 59.048-191.5"/><path fill="#d74514" fill-rule="evenodd" d="M835.098 1632.09q8.592 0 15.4 2.31l-2.472 11.59h-5.309q0-3.525-.75-5.49c-.499-1.31-1.263-2.25-2.289-2.81-1.027-.57-2.405-.86-4.134-.86-3.594 0-6.822 1.66-9.686 4.97s-5.296 8.17-7.295 14.59c-2 6.42-2.999 12.19-2.999 17.32q0 10.26 6.768 10.26c2.161 0 3.944-.68 5.349-2.05 1.405-1.36 2.432-3.48 3.081-6.34l.567-2.55c.216-1 .351-1.84.405-2.5q.081-.99.081-1.8 0-1.665-.77-2.49c-.513-.56-1.391-.91-2.634-1.08l.567-2.67h19.778l-.568 2.67c-1.053.35-1.837.78-2.35 1.28q-.77.75-1.378 2.19t-1.338 4.8l-3.12 13.98-5.593 1.3-2.148-2.88q-5.308 2.88-11.064 2.88c-5.674 0-10.03-1.59-13.07-4.78s-4.559-7.8-4.559-13.82c0-3.73.635-7.99 1.904-12.79 1.27-4.79 3.236-9.12 5.897-12.97s6.005-6.85 10.031-9.02q6.038-3.24 13.698-3.24"/><text x="803.568" y="1681.63" fill-opacity="0" font-family="Arial,Arial_MSFontService,sans-serif" font-size="56.617">𝑮</text><path fill="none" stroke="#d74514" stroke-miterlimit="8" stroke-width="9.167" d="m128.5 1912.5 1144.04 119.59"/><path fill="none" stroke="#5d1709" stroke-miterlimit="8" stroke-width="9.167" d="m128.5 1764.5 1144.04 119.59M128.5 1628.5l1144.04 119.59M128.5 1482.5l1144.04 119.59"/><path fill-rule="evenodd" d="M823.478 2032c-2.756 0-5.228 1.11-7.417 3.34s-3.911 5.24-5.167 9.02q-1.884 5.67-1.884 11.31 0 4.215 1.215 6.3c.811 1.39 2.081 2.09 3.81 2.09 1.378 0 2.749-.48 4.113-1.42q2.048-1.425 4.377-4.5 2.33-3.075 3.628-5.88c.864-1.86 1.6-4.19 2.208-6.97s.912-5.2.912-7.25c0-2.11-.446-3.64-1.337-4.6q-1.338-1.44-4.458-1.44m-.649-3.2q2.553 0 4.823.6 2.27.615 4.58 2.07l3.728-2.67 2.594.65-4.174 18.88c-.298 1.33-.973 4.66-2.027 10.01-1.107 5.68-2.006 9.69-2.695 12.04q-1.034 3.525-2.573 6.42a17.9 17.9 0 0 1-3.972 5.05c-1.621 1.43-3.587 2.54-5.897 3.32s-5.045 1.18-8.206 1.18c-10.213 0-15.32-2.98-15.32-8.92 0-1.51.459-2.89 1.378-4.13.919-1.25 2.391-2.56 4.418-3.94l2.918 2.36c-.514.62-.946 1.23-1.297 1.84-.352.61-.601 1.19-.75 1.76s-.223 1.25-.223 2.03c0 2.03.73 3.5 2.189 4.44 1.458.93 3.66 1.39 6.605 1.39 3.324 0 5.992-.75 8.005-2.24 2.012-1.5 3.735-3.92 5.167-7.24s2.823-8.35 4.174-15.08l-.567-.12c-2.621 3.6-5.053 6.22-7.295 7.87-2.243 1.64-4.661 2.47-7.255 2.47q-4.417 0-6.869-3.33-2.452-3.315-2.452-9.48c0-4.62.905-9.06 2.716-13.31 1.81-4.26 4.322-7.64 7.538-10.15 3.215-2.52 6.795-3.77 10.739-3.77"/><text x="793.69" y="2079.15" fill-opacity="0" font-family="Arial,Arial_MSFontService,sans-serif" font-size="57.549">𝑔</text><path fill-rule="evenodd" d="M925.573 2006.12q11.834 3.12 18.177 13.47 6.342 10.35 6.342 24.99c0 9.78-2.107 18.11-6.322 24.98q-6.322 10.32-18.197 13.44l-.972-3.12c6.241-2.08 10.881-6.19 13.921-12.32 3.039-6.14 4.559-13.93 4.559-23.39 0-9.13-1.513-16.72-4.539-22.76-3.026-6.03-7.714-10.09-14.063-12.17Zm-49.447 0 1.094 3.12c-6.322 2.08-11.003 6.14-14.043 12.17-3.039 6.04-4.559 13.63-4.559 22.76 0 9.46 1.52 17.25 4.559 23.39 3.04 6.13 7.68 10.24 13.922 12.32l-.973 3.12q-11.875-3.12-18.197-13.44c-4.215-6.87-6.322-15.2-6.322-24.98q0-14.64 6.342-24.99 6.344-10.35 18.177-13.47m26.78 4.12c2.081 0 3.675.48 4.782 1.45 1.108.98 1.892 2.51 2.351 4.6q.689 3.15.689 9.18 0 1.995-.081 5.76l-.162 6.4c-.216 6.08-.324 10.86-.324 14.35 0 2.81.06 5 .182 6.58s.317 2.78.588 3.59.608 1.36 1.013 1.64c.405.29.905.43 1.499.43.703 0 1.453-.24 2.25-.71s1.776-1.33 2.938-2.57l2.269 2.26c-1.756 1.79-3.492 3.18-5.207 4.18q-2.574 1.5-4.56 1.5-2.31 0-3.526-.93c-.81-.63-1.398-1.65-1.763-3.08-.364-1.44-.547-3.54-.547-6.33q0-5.745.851-18.84h-.405q-12.158 17.835-18.359 28.53h-8.227l.405-1.99c1.243-1.51 2.486-3.08 3.729-4.72 1.243-1.63 2.756-3.71 4.539-6.22l18.156-25.77q-.04-4.14-.364-6.93-.325-2.805-.892-4.44c-.378-1.1-.878-1.9-1.5-2.41-.621-.52-1.472-.77-2.553-.77-.891 0-1.796.25-2.715.77-.919.51-2.256 1.56-4.012 3.16l-2.108-2.35q3.729-3.69 6.181-5.01c1.634-.88 3.262-1.31 4.883-1.31"/><text x="879.157" y="2061.55" fill-opacity="0" font-family="Arial,Arial_MSFontService,sans-serif" font-size="58.643">𝜆</text><path fill="#d74514" fill-rule="evenodd" d="M145.771 2017.72h9.726l-2.35 10.13h9.848l-1.094 5.07h-9.93l-3.931 16.21c-.675 2.78-1.141 4.9-1.398 6.34-.257 1.45-.385 2.67-.385 3.67 0 1.27.23 2.2.689 2.78q.689.87 2.026.87c1.216 0 2.466-.43 3.749-1.3 1.283-.86 2.668-2.2 4.154-4.01l3.121 3.2c-2.729 3-5.235 5.09-7.518 6.26-2.283 1.18-4.978 1.76-8.085 1.76q-4.62 0-7.093-2.37t-2.472-6.54q0-1.905.284-3.63c.189-1.15.581-3.03 1.175-5.65l4.175-17.59h-6.323l.77-3.28c1.892 0 3.324-.18 4.296-.53s1.79-.88 2.452-1.58 1.304-1.77 1.925-3.2c.622-1.43 1.351-3.64 2.189-6.61"/><text x="134.139" y="2062.33" fill-opacity="0" font-family="Arial,Arial_MSFontService,sans-serif" font-size="50.983">𝒕</text><path fill="#d74514" fill-rule="evenodd" d="M192.728 2050.06h49.93v5.39h-49.93Zm0-16.82h49.93v5.39h-49.93Z"/><text x="192.728" y="2052.68" fill-opacity="0" font-family="Arial,Arial_MSFontService,sans-serif" font-size="22.209">=</text><path fill="#d74514" fill-rule="evenodd" d="M277.52 2041.63h49.929v5.39H277.52Z"/><text x="277.52" y="2046.35" fill-opacity="0" font-family="Arial,Arial_MSFontService,sans-serif" font-size="5.39">−</text><path fill="#d74514" fill-rule="evenodd" d="M360.347 2009.78q2.837 0 4.782 1.29 1.946 1.305 2.858 4.95.91 3.645.911 11.43c0 3.54-.067 7.64-.202 12.32q-.203 6.975-.203 10.98c0 3.08.054 5.34.162 6.79s.277 2.54.507 3.28q.344 1.125.891 1.56.547.45 1.561.45c.756 0 1.553-.31 2.391-.91q1.256-.915 2.594-2.37l2.918 2.91c-2.432 2.25-4.533 3.85-6.302 4.81-1.77.96-3.547 1.43-5.33 1.43q-3.08 0-4.417-2.28c-.892-1.53-1.338-3.96-1.338-7.28 0-2.57.284-7.71.851-15.44h-.405q-9.037 13.935-14.914 24.36h-13.698l.648-2.68c2.243-2.75 5.809-7.43 10.699-14.02l17.508-23.79c-.297-3.51-.628-5.98-.993-7.42-.364-1.43-.857-2.44-1.479-3.04-.621-.59-1.459-.89-2.513-.89-1.08 0-2.107.27-3.08.79-.972.53-2.283 1.5-3.931 2.9l-2.837-3.12c2.324-2.16 4.046-3.65 5.168-4.48 1.121-.82 2.256-1.45 3.404-1.88 1.148-.44 2.411-.65 3.789-.65"/><text x="333.964" y="2061.34" fill-opacity="0" font-family="Arial,Arial_MSFontService,sans-serif" font-size="58.927">𝝀</text><path fill="#d74514" fill-rule="evenodd" d="M394.757 2027.2c2.837 0 4.924.72 6.262 2.15s2.006 3.52 2.006 6.24q0 2.88-1.175 7.5l-1.784 6.81c-1.107 4.24-1.661 7.34-1.661 9.28 0 2.41.945 3.61 2.837 3.61.864 0 1.796-.33 2.796-.97 1-.65 2.114-1.65 3.344-2.98a18.4 18.4 0 0 0 3.019-4.44q1.175-2.43 1.905-5.76l4.539-20.79h11.591l-6.606 28.09a17.8 17.8 0 0 0-.487 4.09q0 1.335.446 2.07c.297.49.811.73 1.54.73q1.257 0 2.715-1.14 1.46-1.125 3.405-3.36l2.918 2.92c-2.837 2.83-5.282 4.79-7.336 5.85a13.84 13.84 0 0 1-6.484 1.6c-2.27 0-4.066-.62-5.39-1.88s-1.986-2.91-1.986-4.96q0-1.02.243-1.95l-.405-.32c-2.513 3.1-4.924 5.4-7.234 6.89q-3.465 2.22-8.005 2.22c-2.755 0-4.91-.78-6.464-2.35-1.553-1.56-2.33-3.7-2.33-6.4q0-1.29.263-3.24t.629-3.45l3.201-12.64q.69-2.715.689-4.74 0-1.59-.527-2.19c-.351-.41-.851-.61-1.499-.61-.784 0-1.655.37-2.614 1.12-.959.74-2.114 1.87-3.465 3.38l-2.918-2.92c2.783-2.78 5.201-4.72 7.254-5.81q3.081-1.65 6.768-1.65"/><text x="380.735" y="2063.52" fill-opacity="0" font-family="Arial,Arial_MSFontService,sans-serif" font-size="41.5">𝒖</text><path fill="#d74514" fill-rule="evenodd" d="M479.503 2018.29h5.755v23.34h22.087v5.39h-22.087v23.35h-5.755v-23.35h-22.088v-5.39h22.088Z"/><text x="457.415" y="2063.86" fill-opacity="0" font-family="Arial,Arial_MSFontService,sans-serif" font-size="52.078">+</text><path fill="#d74514" fill-rule="evenodd" d="M565.061 2031.42c-2.432 0-4.62 1.22-6.566 3.65s-3.532 5.81-4.762 10.13q-1.844 6.48-1.844 11.67c0 1.97.291 3.45.872 4.42.58.97 1.479 1.46 2.695 1.46 1.161 0 2.337-.37 3.526-1.12 1.188-.74 2.438-1.89 3.748-3.44 1.311-1.56 2.412-3.43 3.303-5.62.892-2.18 1.689-4.94 2.391-8.26l.325-1.5c.432-2 .648-3.95.648-5.84q0-2.79-1.013-4.17-1.014-1.38-3.323-1.38m-.406-4.22q2.879 0 5.289.63c1.608.42 3.249 1.19 4.924 2.29l3.648-2.92 4.539.65-3.486 15.85c-.567 2.59-1.08 5.08-1.54 7.46q-2.188 11.1-3.039 14.79-1.5 6.285-3.08 9.48c-1.108 2.24-2.54 4.16-4.296 5.74s-3.958 2.77-6.606 3.58c-3.026.95-6.701 1.42-11.024 1.42-5.727 0-10.023-.76-12.887-2.29q-4.296-2.28-4.296-6.87 0-2.505 1.783-4.74c1.189-1.48 2.945-2.9 5.269-4.25l4.215 3.4c-.73.89-1.237 1.73-1.52 2.51a7.5 7.5 0 0 0-.426 2.56q0 2.745 1.925 4.11c1.284.9 3.209 1.36 5.775 1.36 4.134 0 7.403-1.55 9.808-4.64 2.405-3.1 4.458-8.75 6.16-16.96l-.527-.37q-3.565 4.545-6.849 6.63c-2.188 1.39-4.809 2.08-7.862 2.08-3.026 0-5.397-1.1-7.113-3.32-1.715-2.21-2.573-5.42-2.573-9.6 0-3.7.54-7.36 1.621-10.97q1.621-5.4 4.6-9.3c1.986-2.59 4.458-4.62 7.416-6.1 2.959-1.47 6.343-2.21 10.152-2.21"/><text x="532.801" y="2078.8" fill-opacity="0" font-family="Arial,Arial_MSFontService,sans-serif" font-size="58.967">𝒈</text><path fill="#d74514" fill-rule="evenodd" d="M670.436 2005.94c7.889 2.08 13.948 6.57 18.176 13.48 4.229 6.9 6.343 15.23 6.343 24.98q0 14.67-6.322 24.99c-4.215 6.87-10.281 11.35-18.197 13.43l-.973-3.12c6.242-2.08 10.882-6.19 13.921-12.32 3.04-6.13 4.56-13.93 4.56-23.38 0-9.13-1.513-16.72-4.539-22.76q-4.54-9.06-14.063-12.18Zm-51.464 0 1.094 3.12q-9.483 3.12-14.043 12.18c-3.039 6.04-4.559 13.63-4.559 22.76 0 9.45 1.52 17.25 4.559 23.38s7.68 10.24 13.922 12.32l-.973 3.12c-7.916-2.08-13.982-6.56-18.197-13.43q-6.322-10.32-6.322-24.99c0-9.75 2.114-18.08 6.342-24.98 4.229-6.91 10.288-11.4 18.177-13.48m29.415 3.84q2.837 0 4.782 1.29 1.945 1.305 2.857 4.95t.912 11.43c0 3.54-.068 7.64-.203 12.32q-.202 6.975-.202 10.98c0 3.08.054 5.34.162 6.79s.277 2.54.506 3.28q.345 1.125.892 1.56.548.45 1.56.45c.757 0 1.554-.31 2.391-.91q1.257-.915 2.594-2.37l2.918 2.91c-2.431 2.25-4.532 3.85-6.302 4.81s-3.546 1.43-5.329 1.43q-3.08 0-4.418-2.28c-.891-1.53-1.337-3.96-1.337-7.28 0-2.57.284-7.71.851-15.44h-.405q-9.038 13.935-14.914 24.36h-13.699l.649-2.68c2.242-2.75 5.809-7.43 10.699-14.02l17.508-23.79c-.297-3.51-.628-5.98-.993-7.42-.365-1.43-.858-2.44-1.479-3.04-.622-.59-1.459-.89-2.513-.89-1.081 0-2.107.27-3.08.79-.973.53-2.283 1.5-3.931 2.9l-2.837-3.12c2.323-2.16 4.046-3.65 5.167-4.48 1.121-.82 2.256-1.45 3.404-1.88 1.149-.44 2.412-.65 3.79-.65"/><text x="622.003" y="2061.34" fill-opacity="0" font-family="Arial,Arial_MSFontService,sans-serif" font-size="58.927">𝝀</text></g></svg>