<svg xmlns="http://www.w3.org/2000/svg" width="3442" height="1305" overflow="hidden"><defs><clipPath id="a"><path d="M313 1848h3442v1305H313z"/></clipPath></defs><g clip-path="url(#a)" transform="translate(-313 -1848)"><path fill="#fdefe8" fill-rule="evenodd" d="M1458.92 2302.31h1150.42v133.83H1458.92Zm0 133.83h1150.42v133.83H1458.92Zm0 133.83h1150.42v133.84H1458.92Z"/><path fill="#f8ccb9" fill-rule="evenodd" d="M1458.92 2703.81h1150.42v133.83H1458.92Z"/><path fill="none" stroke="#000" stroke-linejoin="round" stroke-miterlimit="10" stroke-width="6.875" d="M1455.48 2168.47h1157.29m-1157.29 133.84h1157.29m-1157.29 133.83h1157.29m-1157.29 133.83h1157.29m-1157.29 133.84h1157.29m-1157.29 133.83h1157.29m-1157.29 133.83h1157.29m-1153.85-936.83v1070.67m1150.42-1070.67v1070.67"/><text font-family="Times New Roman,Times New Roman_MSFontService,sans-serif" font-size="83" font-weight="400" transform="translate(1819.29 2394)">Address of <tspan x="380.417" y="0" font-family="Courier New,Courier New_MSFontService,sans-serif">c</tspan><tspan x="41.239" y="134">Value of </tspan><tspan x="339.178" y="134" font-family="Courier New,Courier New_MSFontService,sans-serif">b</tspan><tspan x="41.239" y="267">Value of </tspan><tspan x="339.178" y="267" font-family="Courier New,Courier New_MSFontService,sans-serif">a</tspan><tspan x="-189.635" y="407">Address of format string</tspan></text><path d="M2699.08 2035.5v1029.42h-9.16V2035.5Zm18.34 1024.83-22.92 45.84-22.92-45.84Z"/><text font-family="Courier New,Courier New_MSFontService,sans-serif" font-size="83" font-weight="400" transform="translate(810.127 2348)">p<tspan x="49.271" y="0">rintf</tspan><tspan x="295.625" y="0">()</tspan><tspan x="394.167" y="0" font-family="Times New Roman,Times New Roman_MSFontService,sans-serif">’s</tspan><tspan x="-57.269" y="105" font-family="Times New Roman,Times New Roman_MSFontService,sans-serif">internal pointer</tspan></text><path d="M1293.5 2378.083h124.896v-9.167H1293.5Zm120.313 18.333 45.833-22.916-45.834-22.917Z"/><text font-family="Times New Roman,Times New Roman_MSFontService,sans-serif" font-size="83" font-weight="400" transform="translate(2751.19 2551)">s<tspan x="32.084" y="0">tack grows</tspan><tspan x="0" y="99">in this direction</tspan></text><path fill="#ff0" fill-rule="evenodd" d="M2872.31 1875.94h176.45v83h-176.45Z"/><text fill="#0070c0" font-family="Courier New,Courier New_MSFontService,sans-serif" font-size="73" font-weight="400" transform="translate(357.775 1936)">p<tspan x="44.115" y="0">rintf</tspan><tspan x="264.688" y="0" fill="#000">(</tspan><tspan x="308.802" y="0" fill="#7030a0">“a has value </tspan><tspan x="882.292" y="0" fill="#7030a0" font-weight="700">%d</tspan><tspan x="970.521" y="0" fill="#7030a0">, b has value </tspan><tspan x="1588.13" y="0" fill="#7030a0" font-weight="700">%d</tspan><tspan x="1676.35" y="0" fill="#7030a0">, c is at address: </tspan><tspan x="2514.53" y="0" fill="#7030a0" font-weight="700">%08x</tspan><tspan x="2690.99" y="0" fill="#548235">\</tspan><tspan x="2735.1" y="0" fill="#548235">n</tspan><tspan x="2779.22" y="0" fill="#7030a0">”</tspan><tspan x="2823.33" y="0" fill="#000">, a, b, </tspan><tspan x="3176.25" y="0" fill="#c00000">&amp;</tspan><tspan x="3220.36" y="0" fill="#000">c);</tspan></text></g></svg>