<svg width="3442" height="1305" xmlns="http://www.w3.org/2000/svg" xmlns:xlink="http://www.w3.org/1999/xlink" overflow="hidden"><defs><clipPath id="clip0"><rect x="313" y="-933" width="3442" height="1305"/></clipPath></defs><g clip-path="url(#clip0)" transform="translate(-313 933)"><path d="M1458.92-478.699 2609.34-478.699 2609.34-344.866 1458.92-344.866Z" fill="#FDEFE8" fill-rule="evenodd"/><path d="M1458.92-344.866 2609.34-344.866 2609.34-211.032 1458.92-211.032Z" fill="#FDEFE8" fill-rule="evenodd"/><path d="M1458.92-211.032 2609.34-211.032 2609.34-77.1989 1458.92-77.1989Z" fill="#FDEFE8" fill-rule="evenodd"/><path d="M1458.92-77.1989 2609.34-77.1989 2609.34 56.6345 1458.92 56.6345Z" fill="#F8CCB9" fill-rule="evenodd"/><path d="M1455.48-612.532 2612.77-612.532" stroke="#000000" stroke-width="6.875" stroke-linejoin="round" stroke-miterlimit="10" fill="none" fill-rule="evenodd"/><path d="M1455.48-478.699 2612.77-478.699" stroke="#000000" stroke-width="6.875" stroke-linejoin="round" stroke-miterlimit="10" fill="none" fill-rule="evenodd"/><path d="M1455.48-344.866 2612.77-344.866" stroke="#000000" stroke-width="6.875" stroke-linejoin="round" stroke-miterlimit="10" fill="none" fill-rule="evenodd"/><path d="M1455.48-211.032 2612.77-211.032" stroke="#000000" stroke-width="6.875" stroke-linejoin="round" stroke-miterlimit="10" fill="none" fill-rule="evenodd"/><path d="M1455.48-77.1989 2612.77-77.1989" stroke="#000000" stroke-width="6.875" stroke-linejoin="round" stroke-miterlimit="10" fill="none" fill-rule="evenodd"/><path d="M1455.48 56.6345 2612.77 56.6345" stroke="#000000" stroke-width="6.875" stroke-linejoin="round" stroke-miterlimit="10" fill="none" fill-rule="evenodd"/><path d="M1455.48 190.468 2612.77 190.468" stroke="#000000" stroke-width="6.875" stroke-linejoin="round" stroke-miterlimit="10" fill="none" fill-rule="evenodd"/><path d="M1458.92-746.366 1458.92 324.301" stroke="#000000" stroke-width="6.875" stroke-linejoin="round" stroke-miterlimit="10" fill="none" fill-rule="evenodd"/><path d="M2609.34-746.366 2609.34 324.301" stroke="#000000" stroke-width="6.875" stroke-linejoin="round" stroke-miterlimit="10" fill="none" fill-rule="evenodd"/><text font-family="Times New Roman,Times New Roman_MSFontService,sans-serif" font-weight="400" font-size="83" transform="matrix(1 0 0 1 1819.29 -387)">Address of <tspan font-family="Courier New,Courier New_MSFontService,sans-serif" font-size="83" x="380.417" y="0">c</tspan><tspan font-size="83" x="41.2387" y="134">Value of </tspan><tspan font-family="Courier New,Courier New_MSFontService,sans-serif" font-size="83" x="339.178" y="134">b</tspan><tspan font-size="83" x="41.2387" y="267">Value of </tspan><tspan font-family="Courier New,Courier New_MSFontService,sans-serif" font-size="83" x="339.178" y="267">a</tspan><tspan font-size="83" x="-189.635" y="407">Address of format string</tspan></text><path d="M2699.08-745.5 2699.08 283.917 2689.92 283.917 2689.92-745.5ZM2717.42 279.333 2694.5 325.167 2671.58 279.333Z"/><text font-family="Courier New,Courier New_MSFontService,sans-serif" font-weight="400" font-size="83" transform="matrix(1 0 0 1 810.127 -178)">p<tspan font-size="83" x="49.2709" y="0">rintf</tspan><tspan font-size="83" x="295.625" y="0">()</tspan><tspan font-family="Times New Roman,Times New Roman_MSFontService,sans-serif" font-size="83" x="394.167" y="0">’s</tspan><tspan font-family="Times New Roman,Times New Roman_MSFontService,sans-serif" font-size="83" x="-57.2687" y="105">internal pointer</tspan></text><path d="M9.95565e-06-4.58333 124.896-4.58306 124.896 4.5836-9.95565e-06 4.58333ZM120.313-22.9164 166.146 0.000360892 120.312 22.9169Z" transform="matrix(1 0 0 -1 1293.5 -152.5)"/><text font-family="Times New Roman,Times New Roman_MSFontService,sans-serif" font-weight="400" font-size="83" transform="matrix(1 0 0 1 2751.19 -230)">s<tspan font-size="83" x="32.0835" y="0">tack grows</tspan><tspan font-size="83" x="0" y="99">in this direction</tspan></text><path d="M1240.07-905.062 1328.3-905.062 1328.3-822.062 1240.07-822.062Z" fill="#FFFF00" fill-rule="evenodd"/><text fill="#0070C0" font-family="Courier New,Courier New_MSFontService,sans-serif" font-weight="400" font-size="73" transform="matrix(1 0 0 1 357.775 -845)">p<tspan font-size="73" x="44.1146" y="0">rintf</tspan><tspan fill="#000000" font-size="73" x="264.688" y="0">(</tspan><tspan fill="#7030A0" font-size="73" x="308.802" y="0">“a has value </tspan><tspan fill="#7030A0" font-weight="700" font-size="73" x="882.292" y="0">%d</tspan><tspan fill="#7030A0" font-size="73" x="970.521" y="0">, b has value </tspan><tspan fill="#7030A0" font-weight="700" font-size="73" x="1588.13" y="0">%d</tspan><tspan fill="#7030A0" font-size="73" x="1676.35" y="0">, c is at address: </tspan><tspan fill="#7030A0" font-weight="700" font-size="73" x="2514.53" y="0">%08x</tspan><tspan fill="#548235" font-size="73" x="2690.99" y="0">\</tspan><tspan fill="#548235" font-size="73" x="2735.1" y="0">n</tspan><tspan fill="#7030A0" font-size="73" x="2779.22" y="0">”</tspan><tspan fill="#000000" font-size="73" x="2823.33" y="0">, a, b, </tspan><tspan fill="#C00000" font-size="73" x="3176.25" y="0">&amp;</tspan><tspan fill="#000000" font-size="73" x="3220.36" y="0">c);</tspan></text></g></svg>