<svg xmlns="http://www.w3.org/2000/svg" width="3187" height="1930" overflow="hidden"><defs><clipPath id="a"><path d="M296 291h3187v1930H296z"/></clipPath></defs><g clip-path="url(#a)" transform="translate(-296 -291)"><path fill="#fdefe8" fill-rule="evenodd" d="M1542.52 610.872h1150.42v133.833H1542.52Zm0 133.833h1150.42v133.833H1542.52Zm0 133.833h1150.42v133.832H1542.52Zm0 133.832h1150.42v133.84H1542.52Zm0 133.84h1150.42v133.83H1542.52Z"/><path fill="#f8ccb9" fill-rule="evenodd" d="M1542.52 1280.04h1150.42v133.83H1542.52Z"/><path fill="#d74514" fill-rule="evenodd" d="M1542.52 1949.21h1150.42v133.83H1542.52Z"/><path fill="none" stroke="#000" stroke-linejoin="round" stroke-miterlimit="10" stroke-width="6.875" d="M1539.08 610.872h1157.3m-1157.3 133.833h1157.3m-1157.3 133.833h1157.3m-1157.3 133.832h1157.3m-1157.3 133.84h1157.3m-1157.3 133.83h1157.3m-1157.3 133.83h1157.3m-1157.3 133.84h1157.3m-1157.3 133.83h1157.3m-1157.3 133.83h1157.3m-1157.3 133.84h1157.3m-1157.3 133.83h1157.3M1542.52 477.038V2216.87M2692.94 477.038V2216.87"/><text font-family="Courier New,Courier New_MSFontService,sans-serif" font-size="83" font-weight="400" transform="translate(2068.46 701)">%s<tspan x="0" y="134">%x</tspan><tspan x="0" y="268">%x</tspan><tspan x="0" y="402">%x</tspan><tspan x="0" y="536">%x</tspan><tspan x="-197.083" y="669">0x11451400</tspan><tspan x="-436.563" y="1340" fill="#fff" font-family="Times New Roman,Times New Roman_MSFontService,sans-serif">Address of </tspan><tspan x="-56.146" y="1340" fill="#fff">user_input</tspan><tspan x="436.563" y="1340" fill="#fff">[]</tspan><tspan x="-1476.41" y="1205" font-family="Times New Roman,Times New Roman_MSFontService,sans-serif">Print this for the 1</tspan><tspan x="-875.99" y="1180" font-family="Times New Roman,Times New Roman_MSFontService,sans-serif" font-size="55">st</tspan><tspan x="-818.698" y="1205">%x</tspan></text><path d="M1382.5 1876.92h124.9v9.16h-124.9Zm120.31-18.34 45.84 22.92-45.84 22.92Z"/><text font-family="Courier New,Courier New_MSFontService,sans-serif" font-size="83" font-weight="400" transform="translate(2841.67 1036)">u<tspan x="49.271" y="0">ser_input</tspan><tspan x="492.708" y="0">[]</tspan><tspan x="-1628.29" y="-658" fill="#0070c0" font-size="73">p</tspan><tspan x="-1584.17" y="-658" fill="#0070c0" font-size="73">rintf</tspan><tspan x="-1363.6" y="-658" font-size="73">(</tspan><tspan x="-1319.48" y="-658" fill="#7030a0" font-size="73">“</tspan><tspan x="-1275.37" y="-658" fill="#548235" font-size="73">\</tspan><tspan x="-1231.26" y="-658" fill="#548235" font-size="73">x11</tspan><tspan x="-1098.91" y="-658" fill="#548235" font-size="73">\</tspan><tspan x="-1054.8" y="-658" fill="#548235" font-size="73">x45</tspan><tspan x="-922.453" y="-658" fill="#548235" font-size="73">\</tspan><tspan x="-878.338" y="-658" fill="#548235" font-size="73">x14</tspan><tspan x="-745.995" y="-658" fill="#548235" font-size="73">\</tspan><tspan x="-701.88" y="-658" fill="#548235" font-size="73">x00</tspan><tspan x="-525.422" y="-658" fill="#7030a0" font-size="73" font-weight="700">%x</tspan><tspan x="-393.078" y="-658" fill="#7030a0" font-size="73" font-weight="700">%x</tspan><tspan x="-260.734" y="-658" fill="#7030a0" font-size="73" font-weight="700">%x</tspan><tspan x="-128.39" y="-658" fill="#7030a0" font-size="73" font-weight="700">%x</tspan><tspan x="3.953" y="-658" fill="#7030a0" font-size="73" font-weight="700">%s</tspan><tspan x="92.182" y="-658" font-size="73">);</tspan></text><path fill="none" stroke="#000" stroke-miterlimit="8" stroke-width="9.167" d="m2693.5 608.5 41 .001V1011h41-41v402.5h-41"/><path fill="#d74514" d="M2693.5 2026.373h160.99v-683.461h-115.157v9.166h110.573l-4.583-4.583v674.295l4.583-4.583H2693.5Zm50.417-701.795-45.834 22.917 45.834 22.917Z"/><text font-family="Times New Roman,Times New Roman_MSFontService,sans-serif" font-size="83" font-weight="400" transform="translate(573.718 1773)">Print this for the 2<tspan x="600.417" y="-25" font-size="55">n</tspan><tspan x="627.917" y="-25" font-size="55">d</tspan><tspan x="676.042" y="0" font-family="Courier New,Courier New_MSFontService,sans-serif">%x</tspan></text><path d="M1382.5 1743.92h124.9v9.16h-124.9Zm120.31-18.34 45.84 22.92-45.84 22.92Z"/><text font-family="Times New Roman,Times New Roman_MSFontService,sans-serif" font-size="83" font-weight="400" transform="translate(582.885 1639)">Print this for the 3<tspan x="600.417" y="-25" font-size="55">r</tspan><tspan x="618.75" y="-25" font-size="55">d</tspan><tspan x="666.875" y="0" font-family="Courier New,Courier New_MSFontService,sans-serif">%x</tspan></text><path d="M1382.5 1610.92h124.9v9.16h-124.9Zm120.31-18.34 45.84 22.92-45.84 22.92Z"/><text font-family="Times New Roman,Times New Roman_MSFontService,sans-serif" font-size="83" font-weight="400" transform="translate(583.114 1507)">Print this for the 4<tspan x="600.417" y="-25" font-size="55">t</tspan><tspan x="615.885" y="-25" font-size="55">h</tspan><tspan x="664.01" y="0" font-family="Courier New,Courier New_MSFontService,sans-serif">%x</tspan></text><path d="M1379.5 1477.92h124.9v9.16h-124.9Zm120.31-18.34 45.84 22.92-45.84 22.92Z"/><text font-family="Times New Roman,Times New Roman_MSFontService,sans-serif" font-size="83" font-weight="400" transform="translate(356.698 1376)">Print the string of this address</text><path d="M1378.5 1341.92h124.9v9.16h-124.9Zm120.31-18.34 45.84 22.92-45.84 22.92Z"/></g></svg>