<svg width="3265" height="1304" xmlns="http://www.w3.org/2000/svg" xmlns:xlink="http://www.w3.org/1999/xlink" overflow="hidden"><defs><clipPath id="clip0"><rect x="485" y="291" width="3265" height="1304"/></clipPath></defs><g clip-path="url(#clip0)" transform="translate(-485 -291)"><path d="M1542.52 744.705 2692.94 744.705 2692.94 878.538 1542.52 878.538Z" fill="#D74514" fill-rule="evenodd"/><path d="M1542.52 878.538 2692.94 878.538 2692.94 1012.37 1542.52 1012.37Z" fill="#FDEFE8" fill-rule="evenodd"/><path d="M1542.52 1012.37 2692.94 1012.37 2692.94 1146.21 1542.52 1146.21Z" fill="#FDEFE8" fill-rule="evenodd"/><path d="M1542.52 1146.21 2692.94 1146.21 2692.94 1280.04 1542.52 1280.04Z" fill="#F8CCB9" fill-rule="evenodd"/><path d="M1539.08 610.872 2696.38 610.872" stroke="#000000" stroke-width="6.875" stroke-linejoin="round" stroke-miterlimit="10" fill="none" fill-rule="evenodd"/><path d="M1539.08 744.705 2696.38 744.705" stroke="#000000" stroke-width="6.875" stroke-linejoin="round" stroke-miterlimit="10" fill="none" fill-rule="evenodd"/><path d="M1539.08 878.538 2696.38 878.538" stroke="#000000" stroke-width="6.875" stroke-linejoin="round" stroke-miterlimit="10" fill="none" fill-rule="evenodd"/><path d="M1539.08 1012.37 2696.38 1012.37" stroke="#000000" stroke-width="6.875" stroke-linejoin="round" stroke-miterlimit="10" fill="none" fill-rule="evenodd"/><path d="M1539.08 1146.21 2696.38 1146.21" stroke="#000000" stroke-width="6.875" stroke-linejoin="round" stroke-miterlimit="10" fill="none" fill-rule="evenodd"/><path d="M1539.08 1280.04 2696.38 1280.04" stroke="#000000" stroke-width="6.875" stroke-linejoin="round" stroke-miterlimit="10" fill="none" fill-rule="evenodd"/><path d="M1539.08 1413.87 2696.38 1413.87" stroke="#000000" stroke-width="6.875" stroke-linejoin="round" stroke-miterlimit="10" fill="none" fill-rule="evenodd"/><path d="M1542.52 477.038 1542.52 1547.71" stroke="#000000" stroke-width="6.875" stroke-linejoin="round" stroke-miterlimit="10" fill="none" fill-rule="evenodd"/><path d="M2692.94 477.038 2692.94 1547.71" stroke="#000000" stroke-width="6.875" stroke-linejoin="round" stroke-miterlimit="10" fill="none" fill-rule="evenodd"/><text fill="#FFFFFF" font-family="Courier New,Courier New_MSFontService,sans-serif" font-weight="400" font-size="83" transform="matrix(1 0 0 1 1871.37 835)">#?6^#$gf(*<tspan fill="#000000" font-family="Times New Roman,Times New Roman_MSFontService,sans-serif" font-size="83" x="72.7489" y="135">Value of </tspan><tspan fill="#000000" font-size="83" x="370.688" y="135">b</tspan><tspan fill="#000000" font-family="Times New Roman,Times New Roman_MSFontService,sans-serif" font-size="83" x="72.7489" y="269">Value of </tspan><tspan fill="#000000" font-size="83" x="370.688" y="269">a</tspan><tspan fill="#000000" font-family="Times New Roman,Times New Roman_MSFontService,sans-serif" font-size="83" x="-158.125" y="409">Address of format string</tspan></text><path d="M2783.08 477.5 2783.08 1506.92 2773.92 1506.92 2773.92 477.5ZM2801.42 1502.33 2778.5 1548.17 2755.58 1502.33Z"/><text font-family="Courier New,Courier New_MSFontService,sans-serif" font-weight="400" font-size="83" transform="matrix(1 0 0 1 893.727 790)">p<tspan font-size="83" x="49.2708" y="0">rintf</tspan><tspan font-size="83" x="295.625" y="0">()</tspan><tspan font-family="Times New Roman,Times New Roman_MSFontService,sans-serif" font-size="83" x="394.167" y="0">’s</tspan><tspan font-family="Times New Roman,Times New Roman_MSFontService,sans-serif" font-size="83" x="-57.2687" y="105">internal pointer</tspan></text><path d="M9.95565e-06-4.58333 124.896-4.58306 124.896 4.5836-9.95565e-06 4.58333ZM120.313-22.9164 166.146 0.000360892 120.312 22.9169Z" transform="matrix(1 0 0 -1 1376.5 815.5)"/><text font-family="Times New Roman,Times New Roman_MSFontService,sans-serif" font-weight="400" font-size="83" transform="matrix(1 0 0 1 2834.79 993)">s<tspan font-size="83" x="32.0833" y="0">tack grows</tspan><tspan font-size="83" x="0" y="99">in this direction</tspan></text><path d="M3044.14 318.342 3220.59 318.342 3220.59 401.342 3044.14 401.342Z" fill="#FFFF00" fill-rule="evenodd"/><text fill="#0070C0" font-family="Courier New,Courier New_MSFontService,sans-serif" font-weight="400" font-size="73" transform="matrix(1 0 0 1 529.604 378)">p<tspan font-size="73" x="44.1146" y="0">rintf</tspan><tspan fill="#000000" font-size="73" x="264.688" y="0">(</tspan><tspan fill="#7030A0" font-size="73" x="308.802" y="0">“a has value </tspan><tspan fill="#7030A0" font-weight="700" font-size="73" x="882.292" y="0">%d</tspan><tspan fill="#7030A0" font-size="73" x="970.521" y="0">, b has value </tspan><tspan fill="#7030A0" font-weight="700" font-size="73" x="1588.13" y="0">%d</tspan><tspan fill="#7030A0" font-size="73" x="1676.35" y="0">, c is at address: </tspan><tspan fill="#7030A0" font-weight="700" font-size="73" x="2514.53" y="0">%08x</tspan><tspan fill="#548235" font-size="73" x="2690.99" y="0">\</tspan><tspan fill="#548235" font-size="73" x="2735.1" y="0">n</tspan><tspan fill="#7030A0" font-size="73" x="2779.22" y="0">”</tspan><tspan fill="#000000" font-size="73" x="2823.33" y="0">, a, b);</tspan></text></g></svg>