<svg width="3442" height="1305" xmlns="http://www.w3.org/2000/svg" xmlns:xlink="http://www.w3.org/1999/xlink" overflow="hidden"><defs><clipPath id="clip0"><rect x="313" y="1848" width="3442" height="1305"/></clipPath></defs><g clip-path="url(#clip0)" transform="translate(-313 -1848)"><path d="M1458.92 2302.31 2609.34 2302.31 2609.34 2436.14 1458.92 2436.14Z" fill="#FDEFE8" fill-rule="evenodd"/><path d="M1458.92 2436.14 2609.34 2436.14 2609.34 2569.97 1458.92 2569.97Z" fill="#FDEFE8" fill-rule="evenodd"/><path d="M1458.92 2569.97 2609.34 2569.97 2609.34 2703.81 1458.92 2703.81Z" fill="#FDEFE8" fill-rule="evenodd"/><path d="M1458.92 2703.81 2609.34 2703.81 2609.34 2837.64 1458.92 2837.64Z" fill="#F8CCB9" fill-rule="evenodd"/><path d="M1455.48 2168.47 2612.77 2168.47" stroke="#000000" stroke-width="6.875" stroke-linejoin="round" stroke-miterlimit="10" fill="none" fill-rule="evenodd"/><path d="M1455.48 2302.31 2612.77 2302.31" stroke="#000000" stroke-width="6.875" stroke-linejoin="round" stroke-miterlimit="10" fill="none" fill-rule="evenodd"/><path d="M1455.48 2436.14 2612.77 2436.14" stroke="#000000" stroke-width="6.875" stroke-linejoin="round" stroke-miterlimit="10" fill="none" fill-rule="evenodd"/><path d="M1455.48 2569.97 2612.77 2569.97" stroke="#000000" stroke-width="6.875" stroke-linejoin="round" stroke-miterlimit="10" fill="none" fill-rule="evenodd"/><path d="M1455.48 2703.81 2612.77 2703.81" stroke="#000000" stroke-width="6.875" stroke-linejoin="round" stroke-miterlimit="10" fill="none" fill-rule="evenodd"/><path d="M1455.48 2837.64 2612.77 2837.64" stroke="#000000" stroke-width="6.875" stroke-linejoin="round" stroke-miterlimit="10" fill="none" fill-rule="evenodd"/><path d="M1455.48 2971.47 2612.77 2971.47" stroke="#000000" stroke-width="6.875" stroke-linejoin="round" stroke-miterlimit="10" fill="none" fill-rule="evenodd"/><path d="M1458.92 2034.64 1458.92 3105.31" stroke="#000000" stroke-width="6.875" stroke-linejoin="round" stroke-miterlimit="10" fill="none" fill-rule="evenodd"/><path d="M2609.34 2034.64 2609.34 3105.31" stroke="#000000" stroke-width="6.875" stroke-linejoin="round" stroke-miterlimit="10" fill="none" fill-rule="evenodd"/><text font-family="Times New Roman,Times New Roman_MSFontService,sans-serif" font-weight="400" font-size="83" transform="matrix(1 0 0 1 1819.29 2394)">Address of <tspan font-family="Courier New,Courier New_MSFontService,sans-serif" font-size="83" x="380.417" y="0">c</tspan><tspan font-size="83" x="41.2387" y="134">Value of </tspan><tspan font-family="Courier New,Courier New_MSFontService,sans-serif" font-size="83" x="339.178" y="134">b</tspan><tspan font-size="83" x="41.2387" y="267">Value of </tspan><tspan font-family="Courier New,Courier New_MSFontService,sans-serif" font-size="83" x="339.178" y="267">a</tspan><tspan font-size="83" x="-189.635" y="407">Address of format string</tspan></text><path d="M2699.08 2035.5 2699.08 3064.92 2689.92 3064.92 2689.92 2035.5ZM2717.42 3060.33 2694.5 3106.17 2671.58 3060.33Z"/><text font-family="Courier New,Courier New_MSFontService,sans-serif" font-weight="400" font-size="83" transform="matrix(1 0 0 1 810.127 2348)">p<tspan font-size="83" x="49.2709" y="0">rintf</tspan><tspan font-size="83" x="295.625" y="0">()</tspan><tspan font-family="Times New Roman,Times New Roman_MSFontService,sans-serif" font-size="83" x="394.167" y="0">’s</tspan><tspan font-family="Times New Roman,Times New Roman_MSFontService,sans-serif" font-size="83" x="-57.2687" y="105">internal pointer</tspan></text><path d="M9.95565e-06-4.58333 124.896-4.58306 124.896 4.5836-9.95565e-06 4.58333ZM120.313-22.9164 166.146 0.000360892 120.312 22.9169Z" transform="matrix(1 0 0 -1 1293.5 2373.5)"/><text font-family="Times New Roman,Times New Roman_MSFontService,sans-serif" font-weight="400" font-size="83" transform="matrix(1 0 0 1 2751.19 2551)">s<tspan font-size="83" x="32.0835" y="0">tack grows</tspan><tspan font-size="83" x="0" y="99">in this direction</tspan></text><path d="M2872.31 1875.94 3048.76 1875.94 3048.76 1958.94 2872.31 1958.94Z" fill="#FFFF00" fill-rule="evenodd"/><text fill="#0070C0" font-family="Courier New,Courier New_MSFontService,sans-serif" font-weight="400" font-size="73" transform="matrix(1 0 0 1 357.775 1936)">p<tspan font-size="73" x="44.1146" y="0">rintf</tspan><tspan fill="#000000" font-size="73" x="264.688" y="0">(</tspan><tspan fill="#7030A0" font-size="73" x="308.802" y="0">“a has value </tspan><tspan fill="#7030A0" font-weight="700" font-size="73" x="882.292" y="0">%d</tspan><tspan fill="#7030A0" font-size="73" x="970.521" y="0">, b has value </tspan><tspan fill="#7030A0" font-weight="700" font-size="73" x="1588.13" y="0">%d</tspan><tspan fill="#7030A0" font-size="73" x="1676.35" y="0">, c is at address: </tspan><tspan fill="#7030A0" font-weight="700" font-size="73" x="2514.53" y="0">%08x</tspan><tspan fill="#548235" font-size="73" x="2690.99" y="0">\</tspan><tspan fill="#548235" font-size="73" x="2735.1" y="0">n</tspan><tspan fill="#7030A0" font-size="73" x="2779.22" y="0">”</tspan><tspan fill="#000000" font-size="73" x="2823.33" y="0">, a, b, </tspan><tspan fill="#C00000" font-size="73" x="3176.25" y="0">&amp;</tspan><tspan fill="#000000" font-size="73" x="3220.36" y="0">c);</tspan></text></g></svg>