<svg xmlns="http://www.w3.org/2000/svg" width="8271" height="1967" overflow="hidden"><defs><clipPath id="a"><path d="M-1583 261h8271v1967h-8271z"/></clipPath></defs><g clip-path="url(#a)" transform="translate(1583 -261)"><path fill="#d74514" d="M-667 1386h640v148h-640z"/><text fill="#fff" font-family="Microsoft YaHei,Microsoft YaHei_MSFontService,sans-serif" font-size="73" font-weight="400" transform="translate(-623.731 1487)">AbstractSet<tspan x="404.479" y="0">&lt;</tspan><tspan x="458.906" y="0" fill="#f8ccb9">E</tspan><tspan x="499.01" y="0">&gt;</tspan></text><path fill="#d74514" d="M-816 1387h148v148h-148z"/><path fill="#fff" fill-rule="evenodd" d="M-794 1460.5c0-28.99 23.281-52.5 52-52.5s52 23.51 52 52.5-23.281 52.5-52 52.5-52-23.51-52-52.5"/><path fill="none" stroke="#4472c4" stroke-miterlimit="8" stroke-width="22.917" d="M-793.5 1461.5h104.557m-52.557-53v104.56"/><path fill="#4472c4" fill-rule="evenodd" d="M-781 1461c0-21.54 17.461-39 39-39s39 17.46 39 39-17.461 39-39 39-39-17.46-39-39"/><text fill="#fff" font-family="Arial,Arial_MSFontService,sans-serif" font-size="73" font-weight="700" transform="translate(-768.354 1488)">C</text><path fill="#d74514" d="M6222 1731h464v148h-464z"/><text fill="#fff" font-family="Microsoft YaHei,Microsoft YaHei_MSFontService,sans-serif" font-size="73" font-weight="400" transform="translate(6264.48 1832)">Vector&lt;<tspan x="284.739" y="0" fill="#f8ccb9">E</tspan><tspan x="324.843" y="0">&gt;</tspan></text><path fill="#d74514" d="M6074 1731h148v148h-148z"/><path fill="#fff" fill-rule="evenodd" d="M6095 1805c0-28.72 23.5-52 52.5-52 28.99 0 52.5 23.28 52.5 52s-23.51 52-52.5 52c-29 0-52.5-23.28-52.5-52"/><path fill="#4472c4" fill-rule="evenodd" d="M6109 1805c0-21.54 17.46-39 39-39s39 17.46 39 39-17.46 39-39 39-39-17.46-39-39"/><text fill="#fff" font-family="Arial,Arial_MSFontService,sans-serif" font-size="73" font-weight="700" transform="translate(6121.42 1832)">C</text><path fill="#d74514" d="M2010 261h594v148h-594z"/><text fill="#fff" font-family="Microsoft YaHei,Microsoft YaHei_MSFontService,sans-serif" font-size="73" font-weight="400" transform="translate(2056.78 362)">Collection&lt;<tspan x="406.198" y="0" fill="#f8ccb9">E</tspan><tspan x="446.302" y="0">&gt;</tspan></text><path fill="#d74514" d="M1862 261h148v148h-148z"/><path fill="#fff" fill-rule="evenodd" d="M1884 335.5c0-28.995 23.28-52.5 52-52.5s52 23.505 52 52.5-23.28 52.5-52 52.5-52-23.505-52-52.5"/><path fill="#70ad47" fill-rule="evenodd" d="M1897 335c0-21.539 17.46-39 39-39s39 17.461 39 39-17.46 39-39 39-39-17.461-39-39"/><text fill="#fff" font-family="Arial,Arial_MSFontService,sans-serif" font-size="73" font-weight="700" transform="translate(1925.63 362)">I</text><path fill="#4472c4" d="M-229.25 1812.75h-121.833v-237h9.166v232.42l-4.583-4.58h117.25Zm-140.167-232.42 22.917-45.83 22.917 45.83Zm-601.286 485.94-1.072-143.49 9.166-.07 1.072 143.49Zm-19.371-138.77 22.574-46 23.258 45.66Z"/><path fill="#d74514" d="M3729 641h981v148h-981z"/><text fill="#fff" font-family="Microsoft YaHei,Microsoft YaHei_MSFontService,sans-serif" font-size="73" font-weight="400" transform="translate(3774.82 742)">SequencedCollection<tspan x="740.781" y="0">&lt;</tspan><tspan x="795.208" y="0" fill="#f8ccb9">E</tspan><tspan x="835.313" y="0">&gt;</tspan></text><path fill="#d74514" d="M3581 641h148v148h-148z"/><path fill="#fff" fill-rule="evenodd" d="M3603 715c0-28.719 23.28-52 52-52s52 23.281 52 52-23.28 52-52 52-52-23.281-52-52"/><path fill="#70ad47" fill-rule="evenodd" d="M3616 715c0-21.539 17.46-39 39-39s39 17.461 39 39-17.46 39-39 39-39-17.461-39-39"/><text fill="#fff" font-family="Arial,Arial_MSFontService,sans-serif" font-size="73" font-weight="700" transform="translate(3644.9 742)">I</text><path fill="#d74514" d="M4812 1020h348v148h-348z"/><text fill="#fff" font-family="Microsoft YaHei,Microsoft YaHei_MSFontService,sans-serif" font-size="73" font-weight="400" transform="translate(4852.11 1121)">List&lt;<tspan x="173.021" y="0" fill="#f8ccb9">E</tspan><tspan x="213.125" y="0">&gt;</tspan></text><path fill="#d74514" d="M4664 1020h148v148h-148z"/><path fill="#fff" fill-rule="evenodd" d="M4685 1094c0-28.72 23.5-52 52.5-52s52.5 23.28 52.5 52-23.5 52-52.5 52-52.5-23.28-52.5-52"/><path fill="#70ad47" fill-rule="evenodd" d="M4699 1094c0-21.54 17.46-39 39-39s39 17.46 39 39-17.46 39-39 39-39-17.46-39-39"/><text fill="#fff" font-family="Arial,Arial_MSFontService,sans-serif" font-size="73" font-weight="700" transform="translate(4727.35 1121)">I</text><path fill="#d74514" d="M-33 645h335v147H-33z"/><text fill="#fff" font-family="Microsoft YaHei,Microsoft YaHei_MSFontService,sans-serif" font-size="73" font-weight="400" transform="translate(4.212 746)">Set<tspan x="111.719" y="0">&lt;</tspan><tspan x="166.146" y="0" fill="#f8ccb9">E</tspan>&gt;</text><path fill="#d74514" d="M-181 645h148v147h-148z"/><path fill="#fff" fill-rule="evenodd" d="M-159 718.5c0-28.995 23.281-52.5 52-52.5s52 23.505 52 52.5-23.281 52.5-52 52.5-52-23.505-52-52.5"/><path fill="#70ad47" fill-rule="evenodd" d="M-146 718.5c0-21.263 17.461-38.5 39-38.5s39 17.237 39 38.5-17.461 38.5-39 38.5-39-17.237-39-38.5"/><text fill="#fff" font-family="Arial,Arial_MSFontService,sans-serif" font-size="73" font-weight="700" transform="translate(-117.109 746)">I</text><path fill="#d74514" d="M435 1020h748v148H435z"/><text fill="#fff" font-family="Microsoft YaHei,Microsoft YaHei_MSFontService,sans-serif" font-size="73" font-weight="400" transform="translate(483.985 1121)">SequencedSet<tspan x="500.729" y="0">&lt;</tspan><tspan x="555.156" y="0" fill="#f8ccb9">E</tspan><tspan x="595.26" y="0">&gt;</tspan></text><path fill="#d74514" d="M287 1020h148v148H287z"/><path fill="#fff" fill-rule="evenodd" d="M308 1094c0-28.72 23.505-52 52.5-52s52.5 23.28 52.5 52-23.505 52-52.5 52-52.5-23.28-52.5-52"/><path fill="#70ad47" fill-rule="evenodd" d="M322 1094c0-21.54 17.461-39 39-39s39 17.46 39 39-17.461 39-39 39-39-17.46-39-39"/><text fill="#fff" font-family="Arial,Arial_MSFontService,sans-serif" font-size="73" font-weight="700" transform="translate(350.391 1121)">I</text><path fill="#d74514" d="M1025 1381h572v148h-572z"/><text fill="#fff" font-family="Microsoft YaHei,Microsoft YaHei_MSFontService,sans-serif" font-size="73" font-weight="400" transform="translate(1064.24 1482)">SortedSet<tspan x="344.896" y="0">&lt;</tspan><tspan x="399.323" y="0" fill="#f8ccb9">E</tspan><tspan x="439.427" y="0">&gt;</tspan></text><path fill="#d74514" d="M877 1381h148v148H877z"/><path fill="#fff" fill-rule="evenodd" d="M899 1454.5c0-28.99 23.281-52.5 52-52.5s52 23.51 52 52.5-23.281 52.5-52 52.5-52-23.51-52-52.5"/><path fill="#70ad47" fill-rule="evenodd" d="M912 1455c0-21.54 17.461-39 39-39s39 17.46 39 39-17.461 39-39 39-39-17.46-39-39"/><text fill="#fff" font-family="Arial,Arial_MSFontService,sans-serif" font-size="73" font-weight="700" transform="translate(940.545 1482)">I</text><path fill="#d74514" d="M2510 1381h453v148h-453z"/><text fill="#fff" font-family="Microsoft YaHei,Microsoft YaHei_MSFontService,sans-serif" font-size="73" font-weight="400" transform="translate(2545.39 1482)">Queue<tspan x="233.75" y="0">&lt;</tspan><tspan x="288.177" y="0" fill="#f8ccb9">E</tspan><tspan x="328.281" y="0">&gt;</tspan></text><path fill="#d74514" d="M2362 1381h148v148h-148z"/><path fill="#fff" fill-rule="evenodd" d="M2384 1454.5c0-28.99 23.51-52.5 52.5-52.5 29 0 52.5 23.51 52.5 52.5s-23.5 52.5-52.5 52.5c-28.99 0-52.5-23.51-52.5-52.5"/><path fill="#70ad47" fill-rule="evenodd" d="M2398 1455c0-21.54 17.24-39 38.5-39s38.5 17.46 38.5 39-17.24 39-38.5 39-38.5-17.46-38.5-39"/><text fill="#fff" font-family="Arial,Arial_MSFontService,sans-serif" font-size="73" font-weight="700" transform="translate(2426.05 1482)">I</text><path fill="#d74514" d="M966 1736h696v148H966z"/><text fill="#fff" font-family="Microsoft YaHei,Microsoft YaHei_MSFontService,sans-serif" font-size="73" font-weight="400" transform="translate(1006.54 1837)">NavigableSet<tspan x="465.781" y="0">&lt;</tspan><tspan x="520.208" y="0" fill="#f8ccb9">E</tspan><tspan x="560.313" y="0">&gt;</tspan></text><path fill="#d74514" d="M818 1736h148v148H818z"/><path fill="#fff" fill-rule="evenodd" d="M840 1810c0-28.72 23.281-52 52-52s52 23.28 52 52-23.281 52-52 52-52-23.28-52-52"/><path fill="#70ad47" fill-rule="evenodd" d="M853 1810c0-21.54 17.461-39 39-39s39 17.46 39 39-17.461 39-39 39-39-17.46-39-39"/><text fill="#fff" font-family="Arial,Arial_MSFontService,sans-serif" font-size="73" font-weight="700" transform="translate(881.53 1837)">I</text><path fill="#d74514" d="M-81 1733h553v148H-81z"/><text fill="#fff" font-family="Microsoft YaHei,Microsoft YaHei_MSFontService,sans-serif" font-size="73" font-weight="400" transform="translate(-34.166 1834)">EnumSet<tspan x="311.094" y="0">&lt;</tspan><tspan x="365.521" y="0" fill="#f8ccb9">E</tspan><tspan x="405.625" y="0">&gt;</tspan></text><path fill="#d74514" d="M-230 1734h148v147h-148z"/><path fill="#fff" fill-rule="evenodd" d="M-208 1807.5c0-28.99 23.505-52.5 52.5-52.5s52.5 23.51 52.5 52.5-23.505 52.5-52.5 52.5-52.5-23.51-52.5-52.5"/><path fill="none" stroke="#4472c4" stroke-miterlimit="8" stroke-width="22.917" d="M-207.5 1808.5h104.557m-52.557-53 .001 104.56"/><path fill="#4472c4" fill-rule="evenodd" d="M-195 1807.5c0-21.26 17.461-38.5 39-38.5s39 17.24 39 38.5-17.461 38.5-39 38.5-39-17.24-39-38.5"/><text fill="#fff" font-family="Arial,Arial_MSFontService,sans-serif" font-size="73" font-weight="700" transform="translate(-182.062 1835)">C</text><path fill="#d74514" d="M1909 1733h760v148h-760z"/><text fill="#fff" font-family="Microsoft YaHei,Microsoft YaHei_MSFontService,sans-serif" font-size="73" font-weight="400" transform="translate(1951.3 1834)">AbstractQueue<tspan x="526.51" y="0">&lt;</tspan><tspan x="580.938" y="0" fill="#f8ccb9">E</tspan><tspan x="621.042" y="0">&gt;</tspan></text><path fill="#d74514" d="M1760 1734h148v147h-148z"/><path fill="#fff" fill-rule="evenodd" d="M1782 1807.5c0-28.99 23.28-52.5 52-52.5s52 23.51 52 52.5-23.28 52.5-52 52.5-52-23.51-52-52.5"/><path fill="none" stroke="#4472c4" stroke-miterlimit="8" stroke-width="22.917" d="M1782.5 1808.5h104.56m-52.56-53v104.56"/><path fill="#4472c4" fill-rule="evenodd" d="M1795 1807.5c0-21.26 17.46-38.5 39-38.5s39 17.24 39 38.5-17.46 38.5-39 38.5-39-17.24-39-38.5"/><text fill="#fff" font-family="Arial,Arial_MSFontService,sans-serif" font-size="73" font-weight="700" transform="translate(1807.56 1835)">C</text><path fill="#d74514" d="M3198 1013h889v147h-889z"/><text fill="#fff" font-family="Microsoft YaHei,Microsoft YaHei_MSFontService,sans-serif" font-size="73" font-weight="400" transform="translate(3245.71 1113)">AbstractCollection<tspan x="644.531" y="0">&lt;</tspan><tspan x="698.958" y="0" fill="#f8ccb9">E</tspan><tspan x="739.063" y="0">&gt;</tspan></text><path fill="#d74514" d="M3049 1013h148v148h-148z"/><path fill="#fff" fill-rule="evenodd" d="M3071 1087c0-28.72 23.28-52 52-52s52 23.28 52 52-23.28 52-52 52-52-23.28-52-52"/><path fill="none" stroke="#4472c4" stroke-miterlimit="8" stroke-width="22.917" d="M3071.5 1087.5h104.56m-52.56-52v104.56"/><path fill="#4472c4" fill-rule="evenodd" d="M3084 1087c0-21.54 17.46-39 39-39s39 17.46 39 39-17.46 39-39 39-39-17.46-39-39"/><text fill="#fff" font-family="Arial,Arial_MSFontService,sans-serif" font-size="73" font-weight="700" transform="translate(3096.82 1114)">C</text><path fill="#d74514" d="M4867 1399h665v148h-665z"/><text fill="#fff" font-family="Microsoft YaHei,Microsoft YaHei_MSFontService,sans-serif" font-size="73" font-weight="400" transform="translate(4919.66 1500)">AbstractList<tspan x="411.354" y="0">&lt;</tspan><tspan x="465.781" y="0" fill="#f8ccb9">E</tspan><tspan x="505.885" y="0">&gt;</tspan></text><path fill="#d74514" d="M4718 1400h148v147h-148z"/><path fill="#fff" fill-rule="evenodd" d="M4740 1473.5c0-28.99 23.28-52.5 52-52.5s52 23.51 52 52.5-23.28 52.5-52 52.5-52-23.51-52-52.5"/><path fill="none" stroke="#4472c4" stroke-miterlimit="8" stroke-width="22.917" d="M4740.5 1473.5h104.56m-52.56-52v104.56"/><path fill="#4472c4" fill-rule="evenodd" d="M4753 1473.5c0-21.26 17.46-38.5 39-38.5s39 17.24 39 38.5-17.46 38.5-39 38.5-39-17.24-39-38.5"/><text fill="#fff" font-family="Arial,Arial_MSFontService,sans-serif" font-size="73" font-weight="700" transform="translate(4765.83 1500)">C</text><path fill="#d74514" d="M4846 1733h1008v147H4846z"/><text fill="#fff" font-family="Microsoft YaHei,Microsoft YaHei_MSFontService,sans-serif" font-size="73" font-weight="400" transform="translate(4884.2 1833)">AbstractSequentialList<tspan x="782.031" y="0">&lt;</tspan><tspan x="836.459" y="0" fill="#f8ccb9">E</tspan><tspan x="876.563" y="0">&gt;</tspan></text><path fill="#d74514" d="M4696 1733h148v148h-148z"/><path fill="#fff" fill-rule="evenodd" d="M4718 1807c0-28.72 23.5-52 52.5-52s52.5 23.28 52.5 52-23.5 52-52.5 52-52.5-23.28-52.5-52"/><path fill="none" stroke="#4472c4" stroke-miterlimit="8" stroke-width="22.917" d="M4718.5 1807.5h104.56m-52.56-52v104.56"/><path fill="#4472c4" fill-rule="evenodd" d="M4732 1807c0-21.54 17.24-39 38.5-39s38.5 17.46 38.5 39-17.24 39-38.5 39-38.5-17.46-38.5-39"/><text fill="#fff" font-family="Arial,Arial_MSFontService,sans-serif" font-size="73" font-weight="700" transform="translate(4744.06 1834)">C</text><path fill="#d74514" d="M6242 2066h428v147h-428z"/><text fill="#fff" font-family="Microsoft YaHei,Microsoft YaHei_MSFontService,sans-serif" font-size="73" font-weight="400" transform="translate(6287.81 2166)">Stack&lt;<tspan x="241.771" y="0" fill="#f8ccb9">E</tspan><tspan x="281.875" y="0">&gt;</tspan></text><path fill="#d74514" d="M6094 2066h148v147h-148z"/><path fill="#fff" fill-rule="evenodd" d="M6116 2139.5c0-28.99 23.28-52.5 52-52.5s52 23.51 52 52.5c0 29-23.28 52.5-52 52.5s-52-23.5-52-52.5"/><path fill="#4472c4" fill-rule="evenodd" d="M6129 2139.5c0-21.26 17.46-38.5 39-38.5s39 17.24 39 38.5-17.46 38.5-39 38.5-39-17.24-39-38.5"/><text fill="#fff" font-family="Arial,Arial_MSFontService,sans-serif" font-size="73" font-weight="700" transform="translate(6141.62 2166)">C</text><path fill="#d74514" d="M4088 1733h524v148h-524z"/><text fill="#fff" font-family="Microsoft YaHei,Microsoft YaHei_MSFontService,sans-serif" font-size="73" font-weight="400" transform="translate(4122.41 1834)">ArrayLis<tspan x="278.438" y="0">t</tspan>&lt;<tspan x="360.365" y="0" fill="#f8ccb9">E</tspan><tspan x="400.469" y="0">&gt;</tspan></text><path fill="#d74514" d="M3940 1733h148v148h-148z"/><path fill="#fff" fill-rule="evenodd" d="M3961 1807c0-28.72 23.51-52 52.5-52s52.5 23.28 52.5 52-23.51 52-52.5 52-52.5-23.28-52.5-52"/><path fill="#4472c4" fill-rule="evenodd" d="M3975 1807c0-21.54 17.46-39 39-39s39 17.46 39 39-17.46 39-39 39-39-17.46-39-39"/><text fill="#fff" font-family="Arial,Arial_MSFontService,sans-serif" font-size="73" font-weight="700" transform="translate(3987.33 1834)">C</text><path fill="#d74514" d="M5065 2066h576v147h-576z"/><text fill="#fff" font-family="Microsoft YaHei,Microsoft YaHei_MSFontService,sans-serif" font-size="73" font-weight="400" transform="translate(5103.43 2166)">LinkedList<tspan x="350.052" y="0">&lt;</tspan><tspan x="404.479" y="0" fill="#f8ccb9">E</tspan><tspan x="444.583" y="0">&gt;</tspan></text><path fill="#d74514" d="M4916 2066h149v147h-149z"/><path fill="#fff" fill-rule="evenodd" d="M4938 2139.5c0-28.99 23.5-52.5 52.5-52.5s52.5 23.51 52.5 52.5c0 29-23.5 52.5-52.5 52.5s-52.5-23.5-52.5-52.5"/><path fill="#4472c4" fill-rule="evenodd" d="M4952 2139.5c0-21.26 17.24-38.5 38.5-38.5s38.5 17.24 38.5 38.5-17.24 38.5-38.5 38.5-38.5-17.24-38.5-38.5"/><text fill="#fff" font-family="Arial,Arial_MSFontService,sans-serif" font-size="73" font-weight="700" transform="translate(4964.16 2166)">C</text><path fill="#d74514" d="M2880 2066h640v147h-640z"/><text fill="#fff" font-family="Microsoft YaHei,Microsoft YaHei_MSFontService,sans-serif" font-size="73" font-weight="400" transform="translate(2915.71 2166)">ArrayDeque<tspan x="419.375" y="0">&lt;</tspan><tspan x="473.802" y="0" fill="#f8ccb9">E</tspan><tspan x="513.906" y="0">&gt;</tspan></text><path fill="#d74514" d="M2732 2066h148v147h-148z"/><path fill="#fff" fill-rule="evenodd" d="M2754 2139.5c0-28.99 23.28-52.5 52-52.5s52 23.51 52 52.5c0 29-23.28 52.5-52 52.5s-52-23.5-52-52.5"/><path fill="#4472c4" fill-rule="evenodd" d="M2767 2139.5c0-21.26 17.46-38.5 39-38.5s39 17.24 39 38.5-17.46 38.5-39 38.5-39-17.24-39-38.5"/><text fill="#fff" font-family="Arial,Arial_MSFontService,sans-serif" font-size="73" font-weight="700" transform="translate(2779.48 2166)">C</text><path fill="#d74514" d="M2971 1736h453v148h-453z"/><text fill="#fff" font-family="Microsoft YaHei,Microsoft YaHei_MSFontService,sans-serif" font-size="73" font-weight="400" transform="translate(3007.01 1837)">Deque<tspan x="232.031" y="0">&lt;</tspan><tspan x="286.459" y="0" fill="#f8ccb9">E</tspan><tspan x="326.563" y="0">&gt;</tspan></text><path fill="#d74514" d="M2823 1736h148v148h-148z"/><path fill="#fff" fill-rule="evenodd" d="M2845 1810c0-28.72 23.28-52 52-52s52 23.28 52 52-23.28 52-52 52-52-23.28-52-52"/><path fill="#70ad47" fill-rule="evenodd" d="M2858 1810c0-21.54 17.46-39 39-39s39 17.46 39 39-17.46 39-39 39-39-17.46-39-39"/><text fill="#fff" font-family="Arial,Arial_MSFontService,sans-serif" font-size="73" font-weight="700" transform="translate(2886.81 1837)">I</text><path fill="#d74514" d="M1936 2066h715v147h-715z"/><text fill="#fff" font-family="Microsoft YaHei,Microsoft YaHei_MSFontService,sans-serif" font-size="73" font-weight="400" transform="translate(1975.75 2166)">PriorityQueue<tspan x="486.406" y="0">&lt;</tspan><tspan x="540.833" y="0" fill="#f8ccb9">E</tspan><tspan x="580.937" y="0">&gt;</tspan></text><path fill="#d74514" d="M1788 2066h148v147h-148z"/><path fill="#fff" fill-rule="evenodd" d="M1810 2139.5c0-28.99 23.28-52.5 52-52.5s52 23.51 52 52.5c0 29-23.28 52.5-52 52.5s-52-23.5-52-52.5"/><path fill="#4472c4" fill-rule="evenodd" d="M1823 2139.5c0-21.26 17.46-38.5 39-38.5s39 17.24 39 38.5-17.46 38.5-39 38.5-39-17.24-39-38.5"/><text fill="#fff" font-family="Arial,Arial_MSFontService,sans-serif" font-size="73" font-weight="700" transform="translate(1835.53 2166)">C</text><path fill="#d74514" d="M1067 2066h498v148h-498z"/><text fill="#fff" font-family="Microsoft YaHei,Microsoft YaHei_MSFontService,sans-serif" font-size="73" font-weight="400" transform="translate(1108.96 2167)">TreeSet&lt;<tspan x="319.688" y="0" fill="#f8ccb9">E</tspan><tspan x="359.792" y="0">&gt;</tspan></text><path fill="#d74514" d="M919 2066h148v148H919z"/><path fill="#fff" fill-rule="evenodd" d="M941 2139.5c0-28.99 23.281-52.5 52-52.5s52 23.51 52 52.5c0 29-23.28 52.5-52 52.5s-52-23.5-52-52.5"/><path fill="#4472c4" fill-rule="evenodd" d="M954 2140c0-21.54 17.461-39 39-39s39 17.46 39 39-17.46 39-39 39-39-17.46-39-39"/><text fill="#fff" font-family="Arial,Arial_MSFontService,sans-serif" font-size="73" font-weight="700" transform="translate(966.755 2167)">C</text><path fill="#d74514" d="M-1344 2066h755v147h-755z"/><text fill="#fff" font-family="Microsoft YaHei,Microsoft YaHei_MSFontService,sans-serif" font-size="73" font-weight="400" transform="translate(-1300.51 2166)">LinkedHashSet<tspan x="519.635" y="0">&lt;</tspan><tspan x="574.062" y="0" fill="#f8ccb9">E</tspan><tspan x="614.167" y="0">&gt;</tspan></text><path fill="#d74514" d="M-1496 2066h152v147h-152z"/><path fill="#fff" fill-rule="evenodd" d="M-1474 2139.5c0-28.99 24.18-52.5 54-52.5s54 23.51 54 52.5c0 29-24.18 52.5-54 52.5s-54-23.5-54-52.5"/><path fill="#4472c4" fill-rule="evenodd" d="M-1460 2139.5c0-21.26 17.91-38.5 40-38.5s40 17.24 40 38.5-17.91 38.5-40 38.5-40-17.24-40-38.5"/><text fill="#fff" font-family="Arial,Arial_MSFontService,sans-serif" font-size="73" font-weight="700" transform="translate(-1446.36 2166)">C</text><path fill="#d74514" d="M-1225 1733h515v148h-515z"/><text fill="#fff" font-family="Microsoft YaHei,Microsoft YaHei_MSFontService,sans-serif" font-size="73" font-weight="400" transform="translate(-1186.16 1834)">HashSet<tspan x="288.177" y="0">&lt;</tspan><tspan x="342.604" y="0" fill="#f8ccb9">E</tspan><tspan x="382.708" y="0">&gt;</tspan></text><path fill="#d74514" d="M-1373 1733h148v148h-148z"/><path fill="#fff" fill-rule="evenodd" d="M-1351 1807c0-28.72 23.28-52 52-52s52 23.28 52 52-23.28 52-52 52-52-23.28-52-52"/><path fill="#4472c4" fill-rule="evenodd" d="M-1338 1807c0-21.54 17.46-39 39-39s39 17.46 39 39-17.46 39-39 39-39-17.46-39-39"/><text fill="#fff" font-family="Arial,Arial_MSFontService,sans-serif" font-size="73" font-weight="700" transform="translate(-1325.18 1834)">C</text><path fill="#70ad47" d="m1312.08 2066.79-.33-27.5 9.17-.11.32 27.5Zm-.44-36.66-.32-27.5 9.16-.11.33 27.5Zm-.43-36.67-.33-27.5 9.17-.1.32 27.49Zm-.44-36.66-.32-27.5 9.16-.11.33 27.5Zm-18.64-26.2 22.37-46.1 23.46 45.56Zm17.52-193.62-2.19-166.17 9.17-.12 2.19 166.17Zm-20.46-161.35 22.31-46.13 23.52 45.53Z"/><path fill="#4472c4" d="m2289.32 2066.35-3.42-143.5 9.17-.22 3.42 143.5Zm-21.64-138.48 21.82-46.37 24 45.27ZM919.697 2144.74H637.953V1460.5l4.584 4.58H14.75v-9.16h632.37v684.24l-4.583-4.59h277.16ZM19.333 1483.42-26.5 1460.5l45.833-22.92ZM-709.5 1812.143h367.999v-236.391h-9.167v231.808l4.583-4.583H-709.5Zm386.332-231.807-22.917-45.834-22.916 45.834Z"/><path fill="#70ad47" d="M1316.423 1381.4v-55.371H809.5l4.583 4.583v-120.864h-9.167v125.447h506.925l-4.583-4.583v50.788Zm-484.008-167.069-22.916-45.833-22.917 45.833Z"/><path fill="#70ad47" d="M1316.703 1380.99v-55.911H135.5l4.58 4.583V833.75h-9.16v500.496h1181.2l-4.583-4.583v51.328ZM158.42 838.333l-22.92-45.834-22.92 45.834Zm655.65 182.927V714.92H343.75v9.166h465.737l-4.583-4.583v301.757ZM348.334 696.586 302.5 719.503l45.834 22.917ZM-815.5 1457.007H-843v9.166h27.5Zm-36.667 0h-27.5v9.166h27.5Zm-36.666 0h-27.5v9.166h27.5Zm-36.667 0H-953v9.166h27.5Zm-36.667 0h-5.731l4.583 4.583v-21.769h-9.166v26.352h10.314Zm-1.148-26.352v-27.5h-9.166v27.5Zm0-36.667v-27.5h-9.166v27.5Zm0-36.667v-27.5h-9.166v27.5Zm0-36.666v-27.5h-9.166v27.5Zm0-36.667v-27.5h-9.166v27.5Zm0-36.667v-27.5h-9.166v27.5Zm0-36.666v-27.5h-9.166v27.5Zm0-36.667v-27.5h-9.166v27.5Zm0-36.667v-27.5h-9.166v27.5Zm0-36.666v-27.5h-9.166v27.5Zm0-36.667v-27.5h-9.166v27.5Zm0-36.667v-27.5h-9.166v27.5Zm0-36.666v-27.5h-9.166v27.5Zm0-36.667v-27.5h-9.166v27.5Zm0-36.667v-27.5h-9.166v27.5Zm0-36.666v-27.5h-9.166v27.5Zm0-36.667v-27.5h-9.166v27.5Zm0-36.667v-27.5h-9.166v27.5Zm0-36.666v-27.5h-9.166v27.5Zm0-36.667v-14.492l-4.583 4.584h13.008v-9.167h-17.591v19.075Zm17.592-9.908h27.5v-9.167h-27.5Zm36.667 0h27.5v-9.167h-27.5Zm36.666 0h27.5v-9.167h-27.5Zm36.667 0h27.5v-9.167h-27.5Zm36.667 0h27.5v-9.167h-27.5Zm36.666 0h27.5v-9.167h-27.5Zm36.667 0h27.5v-9.167h-27.5Zm36.667 0h27.5v-9.167h-27.5Zm36.666 0h27.5v-9.167h-27.5Zm36.667 0h27.5v-9.167h-27.5Zm36.667 0h27.5v-9.167h-27.5Zm36.666 0h27.5v-9.167h-27.5Zm36.667 0h27.5v-9.167h-27.5Zm36.667 0h27.5v-9.167h-27.5Zm36.666 0h27.5v-9.167h-27.5Zm36.667 0h27.5v-9.167h-27.5Zm36.667 0h27.5v-9.167h-27.5Zm36.666 0h27.5v-9.167h-27.5Zm36.667 0h27.5v-9.167h-27.5Zm36.667 0h27.5v-9.167h-27.5Zm22.925 18.333 45.833-22.917-45.833-22.916Z"/><path fill="#70ad47" d="M-972.083 1734.04v-27.5h9.166v27.5Zm0-36.67v-27.5h9.166v27.5Zm0-36.66v-27.5h9.166v27.5Zm0-36.67v-27.5h9.166v27.5Zm0-36.67v-27.5h9.166v27.5Zm0-36.66v-27.5h9.166v27.5Zm0-36.67v-27.5h9.166v27.5Zm0-36.67v-27.5h9.166v27.5Zm0-36.66v-27.5h9.166v27.5Zm0-36.67v-27.5h9.166v27.5Zm0-36.67v-27.5h9.166v27.5Zm0-36.66v-27.5h9.166v27.5Zm0-36.67v-27.5h9.166v27.5Zm0-36.67v-27.5h9.166v27.5Zm0-36.66v-27.5h9.166v27.5Zm0-36.67v-27.5h9.166v27.5Zm0-36.67v-27.5h9.166v27.5Zm0-36.66v-27.5h9.166v27.5Zm0-36.67v-27.5h9.166v27.5Zm0-36.67v-27.5h9.166v27.5Zm0-36.66v-27.503h9.166v27.503Zm0-36.67v-27.5h9.166v27.5Zm0-36.667v-27.5h9.166v27.5Zm0-36.666v-27.5h9.166v27.5Zm0-36.667v-27.5h9.166v27.5Zm0-36.667v-27.5h9.166v27.5Zm0-36.666v-27.5h9.166v27.5Zm0-36.667v-29.123h7.543v9.166h-2.96l4.583-4.583v24.54Zm16.709-29.123h27.5v9.166h-27.5Zm36.667 0h27.5v9.166h-27.5Zm36.667 0h27.5v9.166h-27.5Zm36.666 0h27.5v9.166h-27.5Zm36.667 0h27.5v9.166h-27.5Zm36.667 0h27.5v9.166h-27.5Zm36.666 0h27.5v9.166h-27.5Zm36.667 0h27.5v9.166h-27.5Zm36.667 0h27.5v9.166h-27.5Zm36.666 0h27.5v9.166h-27.5Zm36.667 0h27.5v9.166h-27.5Zm36.667 0h27.5v9.166h-27.5Zm36.666 0h27.5v9.166h-27.5Zm36.667 0h27.5v9.166h-27.5Zm36.667 0h27.5v9.166h-27.5Zm36.666 0h27.5v9.166h-27.5Zm36.667 0h27.5v9.166h-27.5Zm36.667 0h27.5v9.166h-27.5Zm36.666 0h27.5v9.166h-27.5Zm36.667 0h27.5v9.166h-27.5Zm36.667 0h.035v9.166h-.035Zm-4.548-18.334 45.833 22.917-45.833 22.917Z"/><path fill="#70ad47" d="M-1495.5 2135.097h-27.5v9.166h27.5Zm-36.667 0h-27.5v9.166h27.5Zm-36.666 0h-9.16l4.582 4.583v-18.34h-9.166v22.923h13.744Zm-4.577-22.923v-27.5h-9.167v27.5Zm0-36.667v-27.5h-9.167v27.5Zm0-36.666v-27.5h-9.167v27.5Zm0-36.667v-27.5h-9.167v27.5Zm0-36.667v-27.5h-9.167v27.5Zm0-36.666v-27.5h-9.167v27.5Zm0-36.667v-27.5h-9.167v27.5Zm0-36.667v-27.5h-9.167v27.5Zm0-36.666v-27.5h-9.167v27.5Zm0-36.667v-27.5h-9.167v27.5Zm0-36.667v-27.5h-9.167v27.5Zm0-36.666v-27.5h-9.167v27.5Zm0-36.667v-27.5h-9.167v27.5Zm0-36.667v-27.5h-9.167v27.5Zm0-36.666v-27.5h-9.167v27.5Zm0-36.667v-27.5h-9.167v27.5Zm0-36.667v-27.5h-9.167v27.5Zm0-36.666v-27.5h-9.167v27.5Zm0-36.667v-27.5h-9.167v27.5Zm0-36.667v-27.5h-9.167v27.5Zm0-36.666v-27.5h-9.167v27.5Zm0-36.667v-27.5h-9.167v27.5Zm0-36.667v-27.5h-9.167v27.5Zm0-36.666v-27.5h-9.167v27.5Zm0-36.667v-27.5h-9.167v27.5Zm0-36.667v-27.5h-9.167v27.5Zm0-36.666v-27.501h-9.167v27.501Zm0-36.671v-27.5h-9.167v27.5Zm4.404-23.09h27.5v-9.17h-27.5Zm36.667 0h27.5v-9.17h-27.5Zm36.666 0h27.5v-9.17h-27.5Zm36.667 0h27.5v-9.17h-27.5Zm36.667 0h27.5v-9.17h-27.5Zm36.666 0h27.5v-9.17h-27.5Zm36.667 0h27.5v-9.17h-27.5Zm36.667 0h27.5v-9.17h-27.5Zm36.666 0h27.5v-9.17h-27.5Zm36.667 0h27.5v-9.17h-27.5Zm36.667 0h27.5v-9.17h-27.5Zm36.666 0h27.5v-9.17h-27.5Zm36.667 0h27.5v-9.17h-27.5Zm36.667 0h27.5v-9.17h-27.5Zm36.666 0h27.5v-9.17h-27.5Zm36.667 0h27.5v-9.17h-27.5Zm36.667 0h27.5v-9.17h-27.5Zm36.667 0h27.5v-9.17h-27.5Zm36.666 0h27.5v-9.17h-27.5Zm36.667 0h27.5v-9.17h-27.5Zm36.667 0h27.5v-9.17h-27.5Zm36.666 0h27.5v-9.17h-27.5Zm36.667 0h27.5v-9.17h-27.5Zm36.667 0h27.5v-9.17h-27.5Zm36.666 0h27.5v-9.17h-27.5Zm36.667 0h27.5v-9.17h-27.5Zm36.667 0h27.5v-9.17h-27.5Zm36.666 0h27.5v-9.17h-27.5Zm36.667 0h27.5v-9.17h-27.5Zm36.667 0h27.502v-9.17h-27.502Zm36.662 0h27.5v-9.17h-27.5Zm36.67 0h27.5v-9.17h-27.5Zm36.67 0h27.5v-9.17h-27.5Zm36.66 0h27.5v-9.17h-27.5Zm36.67 0h27.5v-9.17h-27.5Zm36.67 0h27.5v-9.17h-27.5Zm36.66 0h27.5v-9.17h-27.5Zm36.67 0h27.5v-9.17h-27.5Zm36.67 0h27.5v-9.17h-27.5Zm36.66 0h27.5v-9.17h-27.5Zm36.67 0h27.5v-9.17h-27.5Zm36.67 0h27.5v-9.17h-27.5Zm36.66 0h27.5v-9.17h-27.5Zm36.67 0h27.5v-9.17H7.66Zm36.67 0h27.5v-9.17h-27.5Zm36.66 0h27.5v-9.17h-27.5Zm36.67 0h27.5v-9.17h-27.5Zm36.67 0h27.5v-9.17h-27.5Zm36.66 0h27.5v-9.17h-27.5Zm36.67 0h18.48v-9.17h-18.48Zm13.9 18.33 45.83-22.91-45.83-22.92Zm2954.73 949.02-.36-27.5 9.17-.12.36 27.5Zm-.48-36.66-.36-27.5 9.17-.12.36 27.5Zm-.48-36.67-.35-27.49 9.16-.12.36 27.49Zm-.47-36.66-.36-27.5 9.16-.12.36 27.5Zm-18.68-25.81 22.32-46.13 23.51 45.53Z"/><path fill="#4472c4" d="m5349.16 2065.93-2.52-144.11 9.16-.16 2.53 144.11Zm-20.77-139.2 22.11-46.23 23.71 45.43Zm1123.38 139.73-1.44-145.67 9.16-.09 1.44 145.67Zm-19.73-140.9 22.46-46.06 23.37 45.6Zm-2086.12-191.49v-97.87h854.53l-4.58 4.59v-52.04h9.17v56.62H4350.5l4.58-4.58v93.28Zm831.62-140.74 22.91-45.83 22.92 45.83Z"/><path fill="#4472c4" d="M5354.963 1733.46v-97.564H5200.5l4.584 4.584v-51.731h-9.167v56.314h154.464l-4.583-4.583v92.98Zm-131.547-140.127-22.917-45.834-22.916 45.834Z"/><path fill="#4472c4" d="M6459.383 1731.9v-96.782H5200.5l4.58 4.583v-50.949h-9.16v55.533H6454.8l-4.583-4.584v92.199ZM5223.42 1593.336l-22.92-45.834-22.92 45.834Z"/><path fill="#70ad47" d="M2823.82 1815.34h-90.9v-244.59h9.16v240l-4.58-4.58h86.32Zm-109.24-240.01 22.92-45.83 22.92 45.83Z"/><path fill="#70ad47" d="M2669.5 1812.473h27.5v-9.166h-27.5Zm36.667 0h27.5v-9.166h-27.5Zm35.626-10.207v-27.5h-9.167v27.5Zm0-36.667v-27.5h-9.167v27.5Zm0-36.666v-27.5h-9.167v27.5Zm0-36.667v-27.5h-9.167v27.5Zm0-36.666v-27.5h-9.167v27.5Zm0-36.667v-27.5h-9.167v27.5Zm0-36.667v-11.513h-9.167v11.513Zm18.333-6.93-22.917-45.833-22.916 45.833Z"/><path fill="#4472c4" d="M2284.92 1733.44v-491.06h1358.01l-4.59 4.58v-45.21h9.17v49.8H2289.5l4.58-4.59v486.48Zm1335.09-527.11 22.92-45.83 22.91 45.83Z"/><path fill="#4472c4" d="M3520.5 2144.253h127.178V1201.75h-9.167v937.921l4.584-4.583H3520.5Zm145.511-937.921-22.916-45.833-22.917 45.833Z"/><path fill="#4472c4" d="M-351.083 1386.55v-145.11H3642.97l-4.58 4.59v-44.28h9.16v48.86H-346.5l4.583-4.58v140.52Zm3971.133-180.22 22.92-45.83 22.92 45.83Z"/><path fill="#70ad47" d="M804.917 1020.93V710.917H3540.58v9.166H809.5l4.583-4.583v305.43ZM3536 692.583l45.83 22.917-45.83 22.917Z"/><path fill="#4472c4" d="M4718.18 1478.23H3637.92v-276.48h9.16v271.9l-4.58-4.59h1075.68Zm-1098.6-271.9 22.92-45.83 22.92 45.83Z"/><path fill="#70ad47" d="M4917.13 2144.62h-27.5v-9.17h27.5Zm-36.67 0h-27.5v-9.17h27.5Zm-36.67 0h-27.5v-9.17h27.5Zm-36.66 0h-27.5v-9.17h27.5Zm-36.67 0h-27.5v-9.17h27.5Zm-36.67 0h-27.5v-9.17h27.5Zm-36.66 0h-27.5v-9.17h27.5Zm-36.67 0h-27.5v-9.17h27.5Zm-36.67 0h-27.5v-9.17h27.5Zm-36.66 0h-27.5v-9.17h27.5Zm-36.67 0h-27.5v-9.17h27.5Zm-36.67 0h-27.5v-9.17h27.5Zm-36.66 0h-27.5v-9.17h27.5Zm-36.67 0h-27.5v-9.17h27.5Zm-36.67 0h-27.5v-9.17h27.5Zm-36.66 0h-27.5v-9.17h27.5Zm-36.67 0h-27.5v-9.17h27.5Zm-36.67 0h-27.5v-9.17h27.5Zm-36.66 0h-27.5v-9.17h27.5Zm-36.67 0h-27.5v-9.17h27.5Zm-36.67 0h-27.5v-9.17h27.5Zm-36.66 0h-27.5v-9.17h27.5Zm-36.67 0h-27.5v-9.17h27.5Zm-36.66 0h-27.5v-9.17h27.5Zm-36.67 0h-27.5v-9.17h27.5Zm-36.67 0h-27.5v-9.17h27.5Zm-36.66 0h-27.5v-9.17h27.5Zm-36.67 0h-27.5v-9.17h27.5Zm-36.67 0h-27.5v-9.17h27.5Zm-36.67 0h-27.5v-9.17h27.5Zm-36.66 0h-15.28v-21.39h9.17v16.8l-4.59-4.58h10.7Zm-15.28-30.56v-27.5h9.17v27.5Zm0-36.66v-27.5h9.17v27.5Zm0-36.67v-27.5h9.17v27.5Zm0-36.67v-27.5h9.17v27.5Zm0-36.66v-27.5h9.17v27.5Zm0-36.67v-27.5h9.17v27.5Zm0-36.67v-27.5h9.17v27.5Zm0-36.66v-27.5h9.17v27.5Zm0-36.67v-10.23l4.58 4.58h-17.27v-9.16h21.86v14.81Zm-21.85-5.65h-27.5v-9.16h27.5Zm-36.67 0h-27.5v-9.16h27.5Zm-36.67 0h-27.5v-9.16h27.5Zm-36.66 0h-27.5v-9.16h27.5Zm-36.67 0h-27.5v-9.16h27.5Zm-36.67 0h-27.5v-9.16h27.5Zm-36.66 0h-27.5v-9.16h27.5Zm-36.67 0h-27.5v-9.16h27.5Zm-36.67 0h-20.91v-9.16h20.91Zm-16.33 18.34-45.83-22.92 45.83-22.92Zm2171.42 301.68h27.5v9.17h-27.5Zm36.67 0h27.5v9.17h-27.5Zm36.67 0h27.5v9.17h-27.5Zm36.66 0h27.5v9.17h-27.5Zm36.67 0h27.5v9.17h-27.5Zm36.67 0h27.5v9.17h-27.5Zm36.66 0h27.5v9.17h-27.5Zm36.67 0h27.5v9.17h-27.5Zm36.67 0h27.5v9.17h-27.5Zm25.21-2.29v-27.5h9.16v27.5Zm0-36.67v-27.5h9.16v27.5Zm0-36.66v-27.5h9.16v27.5Zm0-36.67v-27.5h9.16v27.5Zm0-36.67v-27.5h9.16v27.5Zm0-36.66v-27.5h9.16v27.5Zm0-36.67v-27.5h9.16v27.5Zm0-36.67v-27.5h9.16v27.5Zm0-36.66v-27.5h9.16v27.5Zm0-36.67v-27.5h9.16v27.5Zm0-36.67v-27.5h9.16v27.5Zm0-36.66v-27.5h9.16v27.5Zm0-36.67v-27.5h9.16v27.5Zm0-36.67v-27.5h9.16v27.5Zm0-36.66v-27.5h9.16v27.5Zm0-36.67v-27.5h9.16v27.5Zm0-36.67v-27.5h9.16v27.5Zm0-36.66v-27.5h9.16v27.5Zm0-36.67v-27.5h9.16v27.5Zm0-36.67v-27.5h9.16v27.5Zm0-36.66v-27.5h9.16v27.5Zm0-36.67v-27.5h9.16v27.5Zm0-36.67v-27.5h9.16v27.5Zm0-36.66v-27.5h9.16v27.5Zm0-36.67v-27.5h9.16v27.5Zm0-36.67v-27.5h9.16v27.5Zm0-36.66v-27.5h9.16v27.5Zm0-36.67v-27.5h9.16v27.5Zm0-36.67v-11.64l4.58 4.58h-15.86v-9.16h20.44v16.22Zm-20.45-7.06h-27.5v-9.16h27.5Zm-36.66 0h-27.5v-9.16h27.5Zm-36.67 0h-27.5v-9.16h27.5Zm-36.67 0h-27.5v-9.16h27.5Zm-36.66 0h-27.5v-9.16h27.5Zm-36.67 0h-27.5v-9.16h27.5Zm-36.67 0h-27.5v-9.16h27.5Zm-36.66 0h-27.5v-9.16h27.5Zm-36.67 0h-27.5v-9.16h27.5Zm-36.67 0h-27.5v-9.16h27.5Zm-36.66 0h-27.5v-9.16h27.5Zm-36.67 0h-27.5v-9.16h27.5Zm-36.67 0h-27.5v-9.16h27.5Zm-36.66 0h-27.5v-9.16h27.5Zm-36.67 0h-27.5v-9.16h27.5Zm-36.67 0h-27.5v-9.16h27.5Zm-36.66 0h-27.5v-9.16h27.5Zm-36.67 0h-27.5v-9.16h27.5Zm-36.67 0h-27.5v-9.16h27.5Zm-36.66 0h-27.5v-9.16h27.5Zm-36.67 0h-4.77v-9.16h4.77Zm-.19 18.34-45.83-22.92 45.83-22.92Zm-860.41 616.03v-27.5h9.16v27.5Zm0-36.66v-27.5h9.16v27.5Zm0-36.67v-27.5h9.16v27.5Zm0-36.67v-27.5h9.16v27.5Zm0-36.66v-27.5h9.16v27.5Zm0-36.67v-27.5h9.16v27.5Zm0-36.67v-27.5h9.16v27.5Zm0-36.66v-27.5h9.16v27.5Zm0-36.67v-27.5h9.16v27.5Zm0-36.67v-27.5h9.16v27.5Zm0-36.66v-27.5h9.16v27.5Zm0-36.67v-27.5h9.16v27.5Zm0-36.67v-27.5h9.16v27.5Zm0-36.66v-27.5h9.16v27.5Zm0-36.67v-27.5h9.16v27.5Zm0-36.67v-27.5h9.16v27.5Zm0-36.66v-27.5h9.16v27.5Zm0-36.67v-20.2h16.46v9.16h-11.88l4.58-4.58v15.62Zm25.63-20.2h27.5v9.16h-27.5Zm36.66 0h27.5v9.16h-27.5Zm36.67 0h27.5v9.16h-27.5Zm36.67 0h27.5v9.16h-27.5Zm36.66 0h27.5v9.16h-27.5Zm36.67 0h27.5v9.16h-27.5Zm36.67 0h27.5v9.16h-27.5Zm26.87-18.34 45.83 22.92-45.83 22.92Z"/><path fill="#70ad47" d="M6459.143 1731.28v-27.5h-9.166v27.5Zm0-36.667v-27.5h-9.166v27.5Zm0-36.666v-27.5h-9.166v27.5Zm0-36.667v-27.5h-9.166v27.5Zm0-36.667v-27.5h-9.166v27.5Zm0-36.666v-27.5h-9.166v27.5Zm0-36.667v-27.5h-9.166v27.5Zm0-36.667v-27.5h-9.166v27.5Zm0-36.666v-27.5h-9.166v27.5Zm0-36.667v-27.5h-9.166v27.5Zm0-36.667v-27.5h-9.166v27.5Zm0-36.666v-27.5h-9.166v27.5Zm0-36.667v-27.5h-9.166v27.5Zm0-36.667v-27.5h-9.166v27.5Zm0-36.666v-27.5h-9.166v27.5Zm0-36.667v-27.5h-9.166v27.5Zm0-36.667v-27.5h-9.166v27.5Zm0-36.666v-18.028h-18.638v9.166h14.055l-4.583-4.583v13.445Zm-27.805-18.028h-27.5v9.166h27.5Zm-36.667 0h-27.5v9.166h27.5Zm-36.666 0h-27.5v9.166h27.5Zm-36.667 0h-27.5v9.166h27.5Zm-36.667 0h-27.5v9.166h27.5Zm-36.666 0h-27.5v9.166h27.5Zm-36.667 0h-27.5v9.166h27.5Zm-36.667 0h-27.5v9.166h27.5Zm-36.666 0h-27.5v9.166h27.5Zm-36.667 0h-27.5v9.166h27.5Zm-36.667 0h-27.5v9.166h27.5Zm-36.666 0h-27.5v9.166h27.5Zm-36.667 0h-27.5v9.166h27.5Zm-36.667 0h-27.5v9.166h27.5Zm-36.666 0h-27.5v9.166h27.5Zm-36.667 0h-27.5v9.166h27.5Zm-36.667 0h-27.5v9.166h27.5Zm-36.666 0h-27.5v9.166h27.5Zm-36.667 0h-27.5v9.166h27.5Zm-36.667 0h-27.5v9.166h27.5Zm-36.666 0h-27.5v9.166h27.5Zm-36.667 0h-27.5v9.166h27.5Zm-36.667 0h-27.5v9.166h27.5Zm-36.666 0h-27.5v9.166h27.5Zm-36.667 0h-27.5v9.166h27.5Zm-36.667 0h-27.5v9.166h27.5Zm-36.666 0H5450.5v9.166h27.505Zm-36.665 0h-27.5v9.166h27.5Zm-36.67 0h-27.5v9.166h27.5Zm-36.67 0h-27.5v9.166h27.5Zm-36.66 0h-27.5v9.166h27.5Zm-36.67 0h-27.5v9.166h27.5Zm-36.67 0h-27.5v9.166h27.5Zm-36.66 0h-19.59v9.166h19.59Zm-15.01-18.334-45.83 22.917 45.83 22.917ZM3193.92 1736.75v-383.92h1026.76l-4.58 4.59V830.75h9.17V1362H3198.5l4.58-4.58v379.33Zm1003.85-901.416 22.91-45.834 22.92 45.834Zm793.103 185.596V710.915h-239.119v9.166h234.536l-4.583-4.583v305.432Zm-234.535-328.349-45.834 22.917 45.834 22.917Zm-531.855-51.25V330.917H2645.75v9.166H4219.9l-4.583-4.583v305.831ZM2650.34 312.583 2604.5 335.5l45.84 22.917ZM130.917 645.006V330.917H1821.59v9.166H135.5l4.583-4.583v309.506ZM1817 312.583l45.84 22.917-45.84 22.917Z"/><path fill="#70ad47" d="M2741.533 1381.16V330.92h-95.785v9.16h91.202l-4.583-4.58v1045.66Zm-91.201-1068.58-45.833 22.92 45.833 22.92Z"/><path fill="#70ad47" d="M3647.393 1012.95v-27.5h-9.166v27.5Zm0-36.667v-27.5h-9.166v27.5Zm0-36.666v-27.5h-9.166v27.5Zm0-36.667v-23.449h-13.217v9.167h8.634l-4.583-4.584v18.866Zm-22.384-23.449h-27.5v9.167h27.5Zm-36.667 0h-27.5v9.167h27.5Zm-36.666 0h-27.5v9.167h27.5Zm-36.667 0h-27.5v9.167h27.5Zm-36.667 0h-27.5v9.167h27.5Zm-36.666 0h-27.5v9.167h27.5Zm-36.667 0h-27.5v9.167h27.5Zm-36.667 0h-27.5v9.167h27.5Zm-36.666 0h-27.5v9.167h27.5Zm-36.667 0h-27.5v9.167h27.5Zm-36.667 0h-27.5v9.167h27.5Zm-36.666 0h-27.5v9.167h27.5Zm-36.667 0h-27.5v9.167h27.5Zm-36.667 0h-27.5v9.167h27.5Zm-36.666 0h-27.5v9.167h27.5Zm-36.667 0h-27.5v9.167h27.5Zm-36.667 0h-27.5v9.167h27.5Zm-36.666 0h-27.5v9.167h27.5Zm-36.667 0h-27.5v9.167h27.5Zm-36.667 0h-27.5v9.167h27.5Zm-36.666 0h-27.5v9.167h27.5Zm-36.667 0h-27.5v9.167h27.5Zm-36.667 0h-27.5v9.167h27.5Zm-36.666 0h-27.5v9.167h27.5Zm-36.667 0h-27.5v9.167h27.5Zm-36.667 0h-27.5v9.167h27.5Zm-36.666 0h-27.5v9.167h27.5Zm-36.666 0h-27.5v9.167h27.5Zm-36.67 0h-27.5v9.167h27.5Zm-36.66 0h-27.5v9.167h27.5Zm-36.67 0h-27.5v9.167h27.5Zm-36.67 0h-27.5v9.167h27.5Zm-36.66 0h-27.5v9.167h27.5Zm-36.67 0h-27.5v9.167h27.5Zm-36.67 0h-27.5v9.167h27.5Zm-36.66 0h-27.5v9.167h27.5Zm-29.6 2.094v-27.5h-9.16v27.5Zm0-36.667v-27.5h-9.16v27.5Zm0-36.666v-27.5h-9.16v27.5Zm0-36.667v-27.5h-9.16v27.5Zm0-36.667v-27.5h-9.16v27.5Zm0-36.666v-27.5h-9.16v27.5Zm0-36.667v-27.5h-9.16v27.5Zm0-36.667v-27.5h-9.16v27.5Zm0-36.666v-27.5h-9.16v27.5Zm0-36.667v-27.5h-9.16v27.5Zm0-36.667v-27.5h-9.16v27.5Zm0-36.666v-27.5h-9.16v27.5Zm18.34-22.924-22.92-45.833-22.92 45.833Z"/></g></svg>