<svg xmlns="http://www.w3.org/2000/svg" width="4179" height="1589" overflow="hidden"><defs><clipPath id="a"><path d="M-124 514h4179v1589H-124z"/></clipPath></defs><g clip-path="url(#a)" transform="translate(124 -514)"><path fill="#d74514" d="M1561 1509h748v148h-748z"/><text fill="#fff" font-family="Microsoft YaHei,Microsoft YaHei_MSFontService,sans-serif" font-size="73" font-weight="400" transform="translate(1597.58 1610)">AbstractMap<tspan x="452.031" y="0">&lt;</tspan><tspan x="506.458" y="0" fill="#f8ccb9">K</tspan>,<tspan x="570.625" y="0" fill="#f8ccb9">V</tspan>&gt;</text><path fill="#d74514" d="M1412 1510h148v147h-148z"/><path fill="#fff" fill-rule="evenodd" d="M1434 1583.5c0-28.99 23.51-52.5 52.5-52.5s52.5 23.51 52.5 52.5-23.51 52.5-52.5 52.5-52.5-23.51-52.5-52.5"/><path fill="none" stroke="#4472c4" stroke-miterlimit="8" stroke-width="22.917" d="M1434.5 1583.5h104.56m-52.56-52v104.56"/><path fill="#4472c4" fill-rule="evenodd" d="M1447 1583.5c0-21.26 17.46-38.5 39-38.5s39 17.24 39 38.5-17.46 38.5-39 38.5-39-17.24-39-38.5"/><text fill="#fff" font-family="Arial,Arial_MSFontService,sans-serif" font-size="73" font-weight="700" transform="translate(1459.88 1610)">C</text><path fill="#d74514" d="M687 1868h642v147H687z"/><text fill="#fff" font-family="Microsoft YaHei,Microsoft YaHei_MSFontService,sans-serif" font-size="73" font-weight="400" transform="translate(728.856 1968)">HashMap&lt;<tspan x="390.156" y="0" fill="#f8ccb9">K</tspan>,<tspan x="454.323" y="0" fill="#f8ccb9">V</tspan>&gt;</text><path fill="#d74514" d="M539 1868h148v147H539z"/><path fill="#fff" fill-rule="evenodd" d="M561 1941.5c0-28.99 23.281-52.5 52-52.5s52 23.51 52 52.5-23.281 52.5-52 52.5-52-23.51-52-52.5"/><path fill="#4472c4" fill-rule="evenodd" d="M574 1941.5c0-21.26 17.461-38.5 39-38.5s39 17.24 39 38.5-17.461 38.5-39 38.5-39-17.24-39-38.5"/><text fill="#fff" font-family="Arial,Arial_MSFontService,sans-serif" font-size="73" font-weight="700" transform="translate(586.575 1968)">C</text><path fill="#d74514" d="M37 1512h821v148H37z"/><text fill="#fff" font-family="Microsoft YaHei,Microsoft YaHei_MSFontService,sans-serif" font-size="73" font-weight="400" transform="translate(79.512 1613)">NavigableMap&lt;<tspan x="567.76" y="0" fill="#f8ccb9">K</tspan>,<tspan x="631.927" y="0" fill="#f8ccb9">V</tspan>&gt;</text><path fill="#d74514" d="M-111 1512H37v148h-148z"/><path fill="#fff" fill-rule="evenodd" d="M-89 1586c0-28.72 23.281-52 52-52s52 23.28 52 52-23.281 52-52 52-52-23.28-52-52"/><path fill="#70ad47" fill-rule="evenodd" d="M-76 1586c0-21.54 17.46-39 39-39s39 17.46 39 39-17.46 39-39 39-39-17.46-39-39"/><text fill="#fff" font-family="Arial,Arial_MSFontService,sans-serif" font-size="73" font-weight="700" transform="translate(-47.163 1613)">I</text><path fill="#70ad47" d="m443.102 1512.99-.951-167.21 9.167-.06.95 167.22Zm-19.258-162.53 22.656-45.96 23.177 45.7Zm1410.013 665.25v27.5h9.166v-27.5Zm0 36.667v27.5h9.166v-27.5Zm0 36.666v9.168l4.583-4.583h-18.332v9.167h22.915v-13.752Zm-22.916 4.585h-27.5v9.167h27.5Zm-36.666 0h-27.5v9.167h27.5Zm-36.667 0h-27.5v9.167h27.5Zm-36.667 0h-27.5v9.167h27.5Zm-36.666 0h-27.5v9.167h27.5Zm-36.667 0h-27.5v9.167h27.5Zm-36.667 0h-27.5v9.167h27.5Zm-36.666 0h-27.5v9.167h27.5Zm-36.667 0h-27.5v9.167h27.5Zm-36.667 0h-27.5v9.167h27.5Zm-36.666 0h-27.5v9.167h27.5Zm-36.667 0h-27.5v9.167h27.5Zm-36.667 0h-27.5v9.167h27.5Zm-36.666 0h-27.5v9.167h27.5Zm-36.667 0h-27.5v9.167h27.5Zm-36.667 0h-27.5v9.167h27.5Zm-36.666 0h-27.5v9.167h27.5Zm-36.667 0h-27.5v9.167h27.5Zm-36.667 0h-27.5v9.167h27.5Zm-36.666 0h-27.5v9.167h27.5Zm-36.667 0h-27.5v9.167h27.5Zm-36.667 0h-27.5v9.167h27.5Zm-36.666 0h-27.5v9.167h27.5Zm-36.667 0h-27.5v9.167h27.5Zm-36.667 0h-27.5v9.167h27.5Zm-36.666 0h-27.5v9.167h27.5Zm-36.667 0H830.11v9.167h27.498Zm-36.668 0h-27.5v9.167h27.5Zm-36.67 0h-27.5v9.167h27.5Zm-36.66 0h-27.5v9.167h27.5Zm-36.67 0h-27.5v9.167h27.5Zm-36.67 0h-27.5v9.167h27.5Zm-36.66 0h-27.5v9.167h27.5Zm-36.67 0h-27.5v9.167h27.5Zm-36.67 0h-27.5v9.167h27.5Zm-36.66 0h-27.5v9.167h27.5Zm-36.67 0h-27.5v9.167h27.5Zm-36.67 0h-5.77l4.58 4.583v-21.721h-9.17v26.305h10.36Zm-1.19-26.305v-27.5h-9.17v27.5Zm0-36.667v-27.5h-9.17v27.5Zm0-36.666v-27.5h-9.17v27.5Zm0-36.667v-27.5h-9.17v27.5Zm0-36.667v-27.5h-9.17v27.5Zm0-36.666v-27.5h-9.17v27.5Zm0-36.667v-27.5h-9.17v27.5Zm0-36.667v-27.5h-9.17v27.5Zm0-36.666v-27.5h-9.17v27.5Zm0-36.667v-27.5h-9.17v27.5Zm18.33-30.991-22.91-45.833-22.92 45.833Z"/><path fill="#d74514" d="M1525 1868h625v147h-625z"/><text fill="#fff" font-family="Microsoft YaHei,Microsoft YaHei_MSFontService,sans-serif" font-size="73" font-weight="400" transform="translate(1569.72 1968)">TreeMap<tspan x="312.813" y="0">&lt;</tspan><tspan x="367.24" y="0" fill="#f8ccb9">K</tspan><tspan x="413.646" y="0">,</tspan><tspan x="431.406" y="0" fill="#f8ccb9">V</tspan>&gt;</text><path fill="#d74514" d="M1377 1868h148v147h-148z"/><path fill="#fff" fill-rule="evenodd" d="M1399 1941.5c0-28.99 23.28-52.5 52-52.5s52 23.51 52 52.5-23.28 52.5-52 52.5-52-23.51-52-52.5"/><path fill="#4472c4" fill-rule="evenodd" d="M1412 1941.5c0-21.26 17.46-38.5 39-38.5s39 17.24 39 38.5-17.46 38.5-39 38.5-39-17.24-39-38.5"/><text fill="#fff" font-family="Arial,Arial_MSFontService,sans-serif" font-size="73" font-weight="700" transform="translate(1424.67 1968)">C</text><path fill="#d74514" d="M2333 1868h682v147h-682z"/><text fill="#fff" font-family="Microsoft YaHei,Microsoft YaHei_MSFontService,sans-serif" font-size="73" font-weight="400" transform="translate(2383.61 1968)">EnumMap<tspan x="358.646" y="0">&lt;</tspan><tspan x="413.073" y="0" fill="#f8ccb9">K</tspan>,<tspan x="477.24" y="0" fill="#f8ccb9">V</tspan>&gt;</text><path fill="#d74514" d="M2185 1868h148v147h-148z"/><path fill="#fff" fill-rule="evenodd" d="M2207 1941.5c0-28.99 23.5-52.5 52.5-52.5 28.99 0 52.5 23.51 52.5 52.5s-23.51 52.5-52.5 52.5c-29 0-52.5-23.51-52.5-52.5"/><path fill="#4472c4" fill-rule="evenodd" d="M2220 1941.5c0-21.26 17.46-38.5 39-38.5s39 17.24 39 38.5-17.46 38.5-39 38.5-39-17.24-39-38.5"/><text fill="#fff" font-family="Arial,Arial_MSFontService,sans-serif" font-size="73" font-weight="700" transform="translate(2232.95 1968)">C</text><path fill="#d74514" d="M3219 1868h827v147h-827z"/><text fill="#fff" font-family="Microsoft YaHei,Microsoft YaHei_MSFontService,sans-serif" font-size="73" font-weight="400" transform="translate(3254.64 1968)">WeakHashMap<tspan x="532.813" y="0">&lt;</tspan><tspan x="587.24" y="0" fill="#f8ccb9">K</tspan>,<tspan x="651.406" y="0" fill="#f8ccb9">V</tspan><tspan x="701.25" y="0">&gt;</tspan></text><path fill="#d74514" d="M3071 1868h148v147h-148z"/><path fill="#fff" fill-rule="evenodd" d="M3092 1941.5c0-28.99 23.51-52.5 52.5-52.5s52.5 23.51 52.5 52.5-23.51 52.5-52.5 52.5-52.5-23.51-52.5-52.5"/><path fill="#4472c4" fill-rule="evenodd" d="M3106 1941.5c0-21.26 17.46-38.5 39-38.5s39 17.24 39 38.5-17.46 38.5-39 38.5-39-17.24-39-38.5"/><text fill="#fff" font-family="Arial,Arial_MSFontService,sans-serif" font-size="73" font-weight="700" transform="translate(3118.38 1968)">C</text><path fill="#d74514" d="M103 1156h687v148H103z"/><text fill="#fff" font-family="Microsoft YaHei,Microsoft YaHei_MSFontService,sans-serif" font-size="73" font-weight="400" transform="translate(138.769 1257)">SortedMap<tspan x="392.448" y="0">&lt;</tspan><tspan x="446.875" y="0" fill="#f8ccb9">K</tspan>,<tspan x="511.042" y="0" fill="#f8ccb9">V</tspan>&gt;</text><path fill="#d74514" d="M-45 1156h148v148H-45z"/><path fill="#fff" fill-rule="evenodd" d="M-24 1230c0-28.72 23.505-52 52.5-52s52.5 23.28 52.5 52-23.505 52-52.5 52-52.5-23.28-52.5-52"/><path fill="#70ad47" fill-rule="evenodd" d="M-10 1230c0-21.54 17.237-39 38.5-39s38.5 17.46 38.5 39-17.237 39-38.5 39-38.5-17.46-38.5-39"/><text fill="#fff" font-family="Arial,Arial_MSFontService,sans-serif" font-size="73" font-weight="700" transform="translate(18.298 1257)">I</text><path fill="#d74514" d="M24 823h842v147H24z"/><text fill="#fff" font-family="Microsoft YaHei,Microsoft YaHei_MSFontService,sans-serif" font-size="73" font-weight="400" transform="translate(59.394 923)">SequencedMap<tspan x="548.281" y="0">&lt;</tspan><tspan x="602.708" y="0" fill="#f8ccb9">K</tspan>,<tspan x="666.875" y="0" fill="#f8ccb9">V</tspan>&gt;</text><path fill="#d74514" d="M-124 823H24v147h-148z"/><path fill="#fff" fill-rule="evenodd" d="M-102 896.5c0-28.995 23.281-52.5 52-52.5s52 23.505 52 52.5S-21.28 949-50 949s-52-23.505-52-52.5"/><path fill="#70ad47" fill-rule="evenodd" d="M-89 896.5c0-21.263 17.46-38.5 39-38.5s39 17.237 39 38.5S-28.46 935-50 935s-39-17.237-39-38.5"/><text fill="#fff" font-family="Arial,Arial_MSFontService,sans-serif" font-size="73" font-weight="700" transform="translate(-60.408 923)">I</text><path fill="#d74514" d="M1609 514h468v147h-468z"/><text fill="#fff" font-family="Microsoft YaHei,Microsoft YaHei_MSFontService,sans-serif" font-size="73" font-weight="400" transform="translate(1652.25 614)">Map&lt;<tspan x="213.698" y="0" fill="#f8ccb9">K</tspan>,<tspan x="277.865" y="0" fill="#f8ccb9">V</tspan>&gt;</text><path fill="#d74514" d="M1461 514h148v147h-148z"/><path fill="#fff" fill-rule="evenodd" d="M1483 587.5c0-28.995 23.28-52.5 52-52.5s52 23.505 52 52.5-23.28 52.5-52 52.5-52-23.505-52-52.5"/><path fill="#70ad47" fill-rule="evenodd" d="M1496 587.5c0-21.263 17.46-38.5 39-38.5s39 17.237 39 38.5-17.46 38.5-39 38.5-39-17.237-39-38.5"/><text fill="#fff" font-family="Arial,Arial_MSFontService,sans-serif" font-size="73" font-weight="700" transform="translate(1524.79 614)">I</text><path fill="#4472c4" d="M1003.92 1868.44v-110.05h931.45l-4.58 4.58v-64.22h9.16v68.8H1008.5l4.58-4.58v105.47Zm908.53-165.11 22.92-45.83 22.92 45.83Z"/><path fill="#4472c4" d="M1833.92 1868.44v-110.05h102.05l-4.58 4.58v-64.22h9.16v68.8H1838.5l4.58-4.58v105.47Zm79.13-165.11 22.92-45.83 22.92 45.83Z"/><path fill="#4472c4" d="M2679.423 1868.44v-110.054H1935.5l4.583 4.583v-64.221h-9.166v68.805h743.923l-4.583-4.584v105.471Zm-721.006-165.108-22.917-45.834-22.917 45.834Z"/><path fill="#4472c4" d="M3637.543 1868.44v-110.055H1935.5l4.58 4.583v-64.22h-9.16v68.804h1702.04l-4.583-4.584v105.472ZM1958.42 1703.332l-22.92-45.834-22.92 45.834Z"/><path fill="#70ad47" d="m442.376 1156.53-1.136-144.75 9.167-.07 1.135 144.75Zm-19.432-140.02L445.5 970.5l23.275 45.65Zm580.976 851.35v-27.5h9.16v27.5Zm0-36.67v-27.5h9.16v27.5Zm0-36.67v-27.5h9.16v27.5Zm0-36.66v-27.5h9.16v27.5Zm0-36.67v-27.5h9.16v27.5Zm0-36.67v-27.5h9.16v27.5Zm0-36.66v-27.5h9.16v27.5Zm0-36.67v-27.5h9.16v27.5Zm0-36.67v-27.5h9.16v27.5Zm0-36.66v-27.5h9.16v27.5Zm0-36.67v-27.5h9.16v27.5Zm0-36.67v-27.5h9.16v27.5Zm0-36.66v-27.5h9.16v27.5Zm0-36.67v-27.5h9.16v27.5Zm0-36.67v-27.5h9.16v27.5Zm0-36.66v-27.5h9.16v27.5Zm0-36.67v-21.1h15.57v9.17h-10.99l4.58-4.58v16.51Zm24.74-21.1h27.5v9.17h-27.5Zm36.66 0h27.5v9.17h-27.5Zm36.67 0h27.5v9.17h-27.5Zm36.67 0h27.5v9.17h-27.5Zm36.66 0h27.5v9.17h-27.5Zm36.67 0h27.5v9.17h-27.5Zm36.67 0h27.5v9.17h-27.5Zm36.66 0h27.5v9.17h-27.5Zm36.67 0h27.5v9.17h-27.5Zm36.67 0h27.5v9.17h-27.5Zm36.66 0h27.5v9.17h-27.5Zm36.67 0h27.5v9.17h-27.5Zm36.67 0h27.5v9.17h-27.5Zm36.66 0h27.5v9.17h-27.5Zm36.67 0h27.5v9.17h-27.5Zm36.67 0h27.5v9.17h-27.5Zm36.66 0h27.5v9.17h-27.5Zm36.67 0h27.5v9.17h-27.5Zm36.67 0h27.5v9.17h-27.5Zm36.66 0h27.5v9.17h-27.5Zm36.67 0h27.5v9.17h-27.5Zm36.67 0h27.5v9.17h-27.5Zm36.66 0h8.34l-4.58 4.59v-19.16h9.17v23.74h-12.93Zm3.76-23.74v-27.5h9.17v27.5Zm0-36.66v-27.5h9.17v27.5Zm0-36.67v-27.5h9.17v27.5Zm0-36.67v-27.5h9.17v27.5Zm0-36.66v-27.5h9.17v27.5Zm0-36.67v-27.5h9.17v27.5Zm0-36.67v-27.497h9.17v27.497Zm0-36.664v-27.5h9.17v27.5Zm0-36.667v-27.5h9.17v27.5Zm0-36.666v-27.5h9.17v27.5Zm0-36.667v-27.5h9.17v27.5Zm0-36.667v-27.5h9.17v27.5Zm0-36.666v-27.5h9.17v27.5Zm0-36.667v-27.5h9.17v27.5Zm0-36.667V702.75h9.17v20.269Zm-18.33-15.686 22.91-45.833 22.92 45.833ZM440.916 822.694V582.917h979.414v9.166H445.5l4.583-4.583v235.194Zm974.834-258.111 45.83 22.917-45.83 22.917ZM3637.093 1867.69v-27.5h-9.166v27.5Zm0-36.667v-27.5h-9.166v27.5Zm0-36.666v-27.5h-9.166v27.5Zm0-36.667v-27.5h-9.166v27.5Zm0-36.667v-27.5h-9.166v27.5Zm0-36.666v-27.5h-9.166v27.5Zm0-36.667v-27.5h-9.166v27.5Zm0-36.667v-27.5h-9.166v27.5Zm0-36.666v-27.5h-9.166v27.5Zm0-36.667v-27.5h-9.166v27.5Zm0-36.667v-27.5h-9.166v27.5Zm0-36.666v-27.5h-9.166v27.5Zm0-36.667v-27.5h-9.166v27.5Zm0-36.667v-27.5h-9.166v27.5Zm0-36.666v-27.5h-9.166v27.5Zm0-36.667v-27.5h-9.166v27.5Zm0-36.667v-27.5h-9.166v27.5Zm0-36.666v-27.5h-9.166v27.5Zm0-36.667v-27.5h-9.166v27.5Zm0-36.667v-27.5h-9.166v27.5Zm0-36.666v-27.5h-9.166v27.5Zm0-36.667v-27.5h-9.166v27.5Zm0-36.667v-27.5h-9.166v27.5Zm0-36.666v-27.5h-9.166v27.5Zm0-36.667v-27.5h-9.166v27.5Zm0-36.667v-27.5h-9.166v27.5Zm0-36.666v-27.5h-9.166v27.5Zm0-36.667v-27.5h-9.166v27.5Zm0-36.67v-27.5h-9.166v27.5Zm0-36.66v-27.5h-9.166v27.5Zm0-36.67v-27.5h-9.166v27.5Zm0-36.67v-27.5h-9.166v27.5Zm0-36.66v-27.5h-9.166v27.5Zm0-36.67v-27.5h-9.166v27.5Zm0-36.67v-27.5h-9.166v27.5Zm-7.728-38.1h-27.5v9.17h27.5Zm-36.667 0h-27.5v9.17h27.5Zm-36.666 0h-27.501v9.17h27.5Zm-36.667 0h-27.5v9.17h27.5Zm-36.667 0h-27.5v9.17h27.5Zm-36.667 0h-27.5v9.17h27.5Zm-36.666 0h-27.5v9.17h27.5Zm-36.667 0h-27.5v9.17h27.5Zm-36.667 0h-27.5v9.17h27.5Zm-36.666 0h-27.5v9.17h27.5Zm-36.667 0h-27.5v9.17h27.5Zm-36.667 0h-27.5v9.17h27.5Zm-36.666 0h-27.5v9.17h27.5Zm-36.667 0h-27.5v9.17h27.5Zm-36.667 0h-27.5v9.17h27.5Zm-36.666 0h-27.5v9.17h27.5Zm-36.667 0h-27.5v9.17h27.5Zm-36.667 0h-27.5v9.17h27.5Zm-36.666 0h-27.5v9.17h27.5Zm-36.667 0h-27.5v9.17h27.5Zm-36.667 0h-27.5v9.17h27.5Zm-36.666 0h-27.5v9.17h27.5Zm-36.667 0h-27.5v9.17h27.5Zm-36.667 0h-27.5v9.17h27.5Zm-36.666 0h-27.5v9.17h27.5Zm-36.667 0h-27.5v9.17h27.5Zm-36.667 0h-27.5v9.17h27.5Zm-36.666 0h-27.505v9.17h27.505Zm-36.665 0h-27.5v9.17h27.5Zm-36.67 0h-27.5v9.17h27.5Zm-36.67 0h-27.5v9.17h27.5Zm-36.66 0h-27.5v9.17h27.5Zm-36.67 0h-27.5v9.17h27.5Zm-36.67 0h-27.5v9.17h27.5Zm-36.66 0h-27.5v9.17h27.5Zm-36.67 0h-27.5v9.17h27.5Zm-36.67 0h-27.5v9.17h27.5Zm-36.66 0h-27.5v9.17h27.5Zm-36.67 0h-27.5v9.17h27.5Zm-36.67 0h-27.5v9.17h27.5Zm-36.66 0h-27.5v9.17h27.5Zm-36.67 0h-7.28v9.17h7.28Zm-2.7-18.33-45.83 22.91 45.83 22.92Z"/><path fill="#70ad47" d="M1939.793 1509.25v-27.5h-9.166v27.5Zm0-36.667v-27.5h-9.166v27.5Zm0-36.666v-27.5h-9.166v27.5Zm0-36.667v-27.5h-9.166v27.5Zm0-36.667v-27.5h-9.166v27.5Zm0-36.666v-27.5h-9.166v27.5Zm0-36.667v-27.5h-9.166v27.5Zm-13.376-32.457h-27.5v9.166h27.5Zm-36.666 0h-27.5v9.166h27.5Zm-36.667 0h-9.582l4.583 4.583v-17.918h-9.166v22.501h14.165Zm-4.999-22.502v-27.5h-9.166v27.5Zm0-36.667v-27.5h-9.166v27.5Zm0-36.666v-27.5h-9.166v27.5Zm0-36.667v-27.5h-9.166v27.5Zm0-36.667v-27.5h-9.166v27.5Zm0-36.666v-27.5h-9.166v27.5Zm0-36.667v-27.5h-9.166v27.5Zm0-36.667v-27.5h-9.166v27.5Zm0-36.666v-27.5h-9.166v27.5Zm0-36.667v-27.5h-9.166v27.5Zm0-36.667v-27.5h-9.166v27.5Zm0-36.666v-27.5h-9.166v27.5Zm0-36.667v-27.5h-9.166v27.5Zm0-36.667v-27.5h-9.166v27.5Zm0-36.666v-18.211h-9.166v18.211Zm18.334-13.627-22.917-45.833-22.916 45.833Z"/></g></svg>