<svg width="8271" height="1967" xmlns="http://www.w3.org/2000/svg" xmlns:xlink="http://www.w3.org/1999/xlink" overflow="hidden"><defs><clipPath id="clip0"><rect x="-1583" y="261" width="8271" height="1967"/></clipPath></defs><g clip-path="url(#clip0)" transform="translate(1583 -261)"><rect x="-667" y="1386" width="640" height="148" fill="#D74514"/><text fill="#FFFFFF" font-family="Microsoft YaHei,Microsoft YaHei_MSFontService,sans-serif" font-weight="400" font-size="73" transform="matrix(1 0 0 1 -623.731 1487)">AbstractSet<tspan font-size="73" x="404.479" y="0">&lt;</tspan><tspan fill="#F8CCB9" font-size="73" x="458.906" y="0">E</tspan><tspan font-size="73" x="499.01" y="0">&gt;</tspan></text><rect x="-816" y="1387" width="148" height="148" fill="#D74514"/><path d="M-794 1460.5C-794 1431.51-770.719 1408-742 1408-713.281 1408-690 1431.51-690 1460.5-690 1489.49-713.281 1513-742 1513-770.719 1513-794 1489.49-794 1460.5Z" fill="#FFFFFF" fill-rule="evenodd"/><path d="M-793.5 1461.5-688.943 1461.5" stroke="#4472C4" stroke-width="22.9167" stroke-miterlimit="8" fill="none" fill-rule="evenodd"/><path d="M-741.5 1408.5-741.5 1513.06" stroke="#4472C4" stroke-width="22.9167" stroke-miterlimit="8" fill="none" fill-rule="evenodd"/><path d="M-781 1461C-781 1439.46-763.539 1422-742 1422-720.461 1422-703 1439.46-703 1461-703 1482.54-720.461 1500-742 1500-763.539 1500-781 1482.54-781 1461Z" fill="#4472C4" fill-rule="evenodd"/><text fill="#FFFFFF" font-family="Arial,Arial_MSFontService,sans-serif" font-weight="700" font-size="73" transform="matrix(1 0 0 1 -768.354 1488)">C</text><rect x="6222" y="1731" width="464" height="148" fill="#D74514"/><text fill="#FFFFFF" font-family="Microsoft YaHei,Microsoft YaHei_MSFontService,sans-serif" font-weight="400" font-size="73" transform="matrix(1 0 0 1 6264.48 1832)">Vector&lt;<tspan fill="#F8CCB9" font-size="73" x="284.739" y="0">E</tspan><tspan font-size="73" x="324.843" y="0">&gt;</tspan></text><rect x="6074" y="1731" width="148" height="148" fill="#D74514"/><path d="M6095 1805C6095 1776.28 6118.5 1753 6147.5 1753 6176.49 1753 6200 1776.28 6200 1805 6200 1833.72 6176.49 1857 6147.5 1857 6118.5 1857 6095 1833.72 6095 1805Z" fill="#FFFFFF" fill-rule="evenodd"/><path d="M6109 1805C6109 1783.46 6126.46 1766 6148 1766 6169.54 1766 6187 1783.46 6187 1805 6187 1826.54 6169.54 1844 6148 1844 6126.46 1844 6109 1826.54 6109 1805Z" fill="#4472C4" fill-rule="evenodd"/><text fill="#FFFFFF" font-family="Arial,Arial_MSFontService,sans-serif" font-weight="700" font-size="73" transform="matrix(1 0 0 1 6121.42 1832)">C</text><rect x="2010" y="261" width="594" height="148" fill="#D74514"/><text fill="#FFFFFF" font-family="Microsoft YaHei,Microsoft YaHei_MSFontService,sans-serif" font-weight="400" font-size="73" transform="matrix(1 0 0 1 2056.78 362)">Collection&lt;<tspan fill="#F8CCB9" font-size="73" x="406.198" y="0">E</tspan><tspan font-size="73" x="446.302" y="0">&gt;</tspan></text><rect x="1862" y="261" width="148" height="148" fill="#D74514"/><path d="M1884 335.5C1884 306.505 1907.28 283 1936 283 1964.72 283 1988 306.505 1988 335.5 1988 364.495 1964.72 388 1936 388 1907.28 388 1884 364.495 1884 335.5Z" fill="#FFFFFF" fill-rule="evenodd"/><path d="M1897 335C1897 313.461 1914.46 296 1936 296 1957.54 296 1975 313.461 1975 335 1975 356.539 1957.54 374 1936 374 1914.46 374 1897 356.539 1897 335Z" fill="#70AD47" fill-rule="evenodd"/><text fill="#FFFFFF" font-family="Arial,Arial_MSFontService,sans-serif" font-weight="700" font-size="73" transform="matrix(1 0 0 1 1925.63 362)">I</text><path d="M-229.25 1812.75-351.083 1812.75-351.083 1575.75-341.917 1575.75-341.917 1808.17-346.5 1803.59-229.25 1803.59ZM-369.417 1580.33-346.5 1534.5-323.583 1580.33Z" fill="#4472C4"/><path d="M-970.703 2066.27-971.775 1922.78-962.609 1922.71-961.537 2066.2ZM-990.074 1927.5-967.5 1881.5-944.242 1927.16Z" fill="#4472C4"/><rect x="3729" y="641" width="981" height="148" fill="#D74514"/><text fill="#FFFFFF" font-family="Microsoft YaHei,Microsoft YaHei_MSFontService,sans-serif" font-weight="400" font-size="73" transform="matrix(1 0 0 1 3774.82 742)">SequencedCollection<tspan font-size="73" x="740.781" y="0">&lt;</tspan><tspan fill="#F8CCB9" font-size="73" x="795.208" y="0">E</tspan><tspan font-size="73" x="835.313" y="0">&gt;</tspan></text><rect x="3581" y="641" width="148" height="148" fill="#D74514"/><path d="M3603 715C3603 686.281 3626.28 663 3655 663 3683.72 663 3707 686.281 3707 715 3707 743.719 3683.72 767 3655 767 3626.28 767 3603 743.719 3603 715Z" fill="#FFFFFF" fill-rule="evenodd"/><path d="M3616 715C3616 693.461 3633.46 676 3655 676 3676.54 676 3694 693.461 3694 715 3694 736.539 3676.54 754 3655 754 3633.46 754 3616 736.539 3616 715Z" fill="#70AD47" fill-rule="evenodd"/><text fill="#FFFFFF" font-family="Arial,Arial_MSFontService,sans-serif" font-weight="700" font-size="73" transform="matrix(1 0 0 1 3644.9 742)">I</text><rect x="4812" y="1020" width="348" height="148" fill="#D74514"/><text fill="#FFFFFF" font-family="Microsoft YaHei,Microsoft YaHei_MSFontService,sans-serif" font-weight="400" font-size="73" transform="matrix(1 0 0 1 4852.11 1121)">List&lt;<tspan fill="#F8CCB9" font-size="73" x="173.021" y="0">E</tspan><tspan font-size="73" x="213.125" y="0">&gt;</tspan></text><rect x="4664" y="1020" width="148" height="148" fill="#D74514"/><path d="M4685 1094C4685 1065.28 4708.5 1042 4737.5 1042 4766.5 1042 4790 1065.28 4790 1094 4790 1122.72 4766.5 1146 4737.5 1146 4708.5 1146 4685 1122.72 4685 1094Z" fill="#FFFFFF" fill-rule="evenodd"/><path d="M4699 1094C4699 1072.46 4716.46 1055 4738 1055 4759.54 1055 4777 1072.46 4777 1094 4777 1115.54 4759.54 1133 4738 1133 4716.46 1133 4699 1115.54 4699 1094Z" fill="#70AD47" fill-rule="evenodd"/><text fill="#FFFFFF" font-family="Arial,Arial_MSFontService,sans-serif" font-weight="700" font-size="73" transform="matrix(1 0 0 1 4727.35 1121)">I</text><rect x="-33" y="645" width="335" height="147" fill="#D74514"/><text fill="#FFFFFF" font-family="Microsoft YaHei,Microsoft YaHei_MSFontService,sans-serif" font-weight="400" font-size="73" transform="matrix(1 0 0 1 4.21216 746)">Set<tspan font-size="73" x="111.719" y="0">&lt;</tspan><tspan fill="#F8CCB9" font-size="73" x="166.146" y="0">E</tspan>&gt;</text><rect x="-181" y="645" width="148" height="147" fill="#D74514"/><path d="M-159 718.5C-159 689.505-135.719 666-107 666-78.2812 666-55 689.505-55 718.5-55 747.495-78.2812 771-107 771-135.719 771-159 747.495-159 718.5Z" fill="#FFFFFF" fill-rule="evenodd"/><path d="M-146 718.5C-146 697.237-128.539 680-107 680-85.461 680-68.0001 697.237-68.0001 718.5-68.0001 739.763-85.461 757-107 757-128.539 757-146 739.763-146 718.5Z" fill="#70AD47" fill-rule="evenodd"/><text fill="#FFFFFF" font-family="Arial,Arial_MSFontService,sans-serif" font-weight="700" font-size="73" transform="matrix(1 0 0 1 -117.109 746)">I</text><rect x="435" y="1020" width="748" height="148" fill="#D74514"/><text fill="#FFFFFF" font-family="Microsoft YaHei,Microsoft YaHei_MSFontService,sans-serif" font-weight="400" font-size="73" transform="matrix(1 0 0 1 483.985 1121)">SequencedSet<tspan font-size="73" x="500.729" y="0">&lt;</tspan><tspan fill="#F8CCB9" font-size="73" x="555.156" y="0">E</tspan><tspan font-size="73" x="595.26" y="0">&gt;</tspan></text><rect x="287" y="1020" width="148" height="148" fill="#D74514"/><path d="M308 1094C308 1065.28 331.505 1042 360.5 1042 389.495 1042 413 1065.28 413 1094 413 1122.72 389.495 1146 360.5 1146 331.505 1146 308 1122.72 308 1094Z" fill="#FFFFFF" fill-rule="evenodd"/><path d="M322 1094C322 1072.46 339.461 1055 361 1055 382.539 1055 400 1072.46 400 1094 400 1115.54 382.539 1133 361 1133 339.461 1133 322 1115.54 322 1094Z" fill="#70AD47" fill-rule="evenodd"/><text fill="#FFFFFF" font-family="Arial,Arial_MSFontService,sans-serif" font-weight="700" font-size="73" transform="matrix(1 0 0 1 350.391 1121)">I</text><rect x="1025" y="1381" width="572" height="148" fill="#D74514"/><text fill="#FFFFFF" font-family="Microsoft YaHei,Microsoft YaHei_MSFontService,sans-serif" font-weight="400" font-size="73" transform="matrix(1 0 0 1 1064.24 1482)">SortedSet<tspan font-size="73" x="344.896" y="0">&lt;</tspan><tspan fill="#F8CCB9" font-size="73" x="399.323" y="0">E</tspan><tspan font-size="73" x="439.427" y="0">&gt;</tspan></text><rect x="877" y="1381" width="148" height="148" fill="#D74514"/><path d="M899 1454.5C899 1425.51 922.281 1402 951 1402 979.719 1402 1003 1425.51 1003 1454.5 1003 1483.49 979.719 1507 951 1507 922.281 1507 899 1483.49 899 1454.5Z" fill="#FFFFFF" fill-rule="evenodd"/><path d="M912 1455C912 1433.46 929.461 1416 951 1416 972.539 1416 990 1433.46 990 1455 990 1476.54 972.539 1494 951 1494 929.461 1494 912 1476.54 912 1455Z" fill="#70AD47" fill-rule="evenodd"/><text fill="#FFFFFF" font-family="Arial,Arial_MSFontService,sans-serif" font-weight="700" font-size="73" transform="matrix(1 0 0 1 940.545 1482)">I</text><rect x="2510" y="1381" width="453" height="148" fill="#D74514"/><text fill="#FFFFFF" font-family="Microsoft YaHei,Microsoft YaHei_MSFontService,sans-serif" font-weight="400" font-size="73" transform="matrix(1 0 0 1 2545.39 1482)">Queue<tspan font-size="73" x="233.75" y="0">&lt;</tspan><tspan fill="#F8CCB9" font-size="73" x="288.177" y="0">E</tspan><tspan font-size="73" x="328.281" y="0">&gt;</tspan></text><rect x="2362" y="1381" width="148" height="148" fill="#D74514"/><path d="M2384 1454.5C2384 1425.51 2407.51 1402 2436.5 1402 2465.5 1402 2489 1425.51 2489 1454.5 2489 1483.49 2465.5 1507 2436.5 1507 2407.51 1507 2384 1483.49 2384 1454.5Z" fill="#FFFFFF" fill-rule="evenodd"/><path d="M2398 1455C2398 1433.46 2415.24 1416 2436.5 1416 2457.76 1416 2475 1433.46 2475 1455 2475 1476.54 2457.76 1494 2436.5 1494 2415.24 1494 2398 1476.54 2398 1455Z" fill="#70AD47" fill-rule="evenodd"/><text fill="#FFFFFF" font-family="Arial,Arial_MSFontService,sans-serif" font-weight="700" font-size="73" transform="matrix(1 0 0 1 2426.05 1482)">I</text><rect x="966" y="1736" width="696" height="148" fill="#D74514"/><text fill="#FFFFFF" font-family="Microsoft YaHei,Microsoft YaHei_MSFontService,sans-serif" font-weight="400" font-size="73" transform="matrix(1 0 0 1 1006.54 1837)">NavigableSet<tspan font-size="73" x="465.781" y="0">&lt;</tspan><tspan fill="#F8CCB9" font-size="73" x="520.208" y="0">E</tspan><tspan font-size="73" x="560.313" y="0">&gt;</tspan></text><rect x="818" y="1736" width="148" height="148" fill="#D74514"/><path d="M840 1810C840 1781.28 863.281 1758 892 1758 920.719 1758 944 1781.28 944 1810 944 1838.72 920.719 1862 892 1862 863.281 1862 840 1838.72 840 1810Z" fill="#FFFFFF" fill-rule="evenodd"/><path d="M853 1810C853 1788.46 870.461 1771 892 1771 913.539 1771 931 1788.46 931 1810 931 1831.54 913.539 1849 892 1849 870.461 1849 853 1831.54 853 1810Z" fill="#70AD47" fill-rule="evenodd"/><text fill="#FFFFFF" font-family="Arial,Arial_MSFontService,sans-serif" font-weight="700" font-size="73" transform="matrix(1 0 0 1 881.53 1837)">I</text><rect x="-81.0001" y="1733" width="553" height="148" fill="#D74514"/><text fill="#FFFFFF" font-family="Microsoft YaHei,Microsoft YaHei_MSFontService,sans-serif" font-weight="400" font-size="73" transform="matrix(1 0 0 1 -34.1657 1834)">EnumSet<tspan font-size="73" x="311.094" y="0">&lt;</tspan><tspan fill="#F8CCB9" font-size="73" x="365.521" y="0">E</tspan><tspan font-size="73" x="405.625" y="0">&gt;</tspan></text><rect x="-230" y="1734" width="148" height="147" fill="#D74514"/><path d="M-208 1807.5C-208 1778.51-184.495 1755-155.5 1755-126.505 1755-103 1778.51-103 1807.5-103 1836.49-126.505 1860-155.5 1860-184.495 1860-208 1836.49-208 1807.5Z" fill="#FFFFFF" fill-rule="evenodd"/><path d="M-207.5 1808.5-102.943 1808.5" stroke="#4472C4" stroke-width="22.9167" stroke-miterlimit="8" fill="none" fill-rule="evenodd"/><path d="M-155.5 1755.5-155.499 1860.06" stroke="#4472C4" stroke-width="22.9167" stroke-miterlimit="8" fill="none" fill-rule="evenodd"/><path d="M-195 1807.5C-195 1786.24-177.539 1769-156 1769-134.461 1769-117 1786.24-117 1807.5-117 1828.76-134.461 1846-156 1846-177.539 1846-195 1828.76-195 1807.5Z" fill="#4472C4" fill-rule="evenodd"/><text fill="#FFFFFF" font-family="Arial,Arial_MSFontService,sans-serif" font-weight="700" font-size="73" transform="matrix(1 0 0 1 -182.062 1835)">C</text><rect x="1909" y="1733" width="760" height="148" fill="#D74514"/><text fill="#FFFFFF" font-family="Microsoft YaHei,Microsoft YaHei_MSFontService,sans-serif" font-weight="400" font-size="73" transform="matrix(1 0 0 1 1951.3 1834)">AbstractQueue<tspan font-size="73" x="526.51" y="0">&lt;</tspan><tspan fill="#F8CCB9" font-size="73" x="580.938" y="0">E</tspan><tspan font-size="73" x="621.042" y="0">&gt;</tspan></text><rect x="1760" y="1734" width="148" height="147" fill="#D74514"/><path d="M1782 1807.5C1782 1778.51 1805.28 1755 1834 1755 1862.72 1755 1886 1778.51 1886 1807.5 1886 1836.49 1862.72 1860 1834 1860 1805.28 1860 1782 1836.49 1782 1807.5Z" fill="#FFFFFF" fill-rule="evenodd"/><path d="M1782.5 1808.5 1887.06 1808.5" stroke="#4472C4" stroke-width="22.9167" stroke-miterlimit="8" fill="none" fill-rule="evenodd"/><path d="M1834.5 1755.5 1834.5 1860.06" stroke="#4472C4" stroke-width="22.9167" stroke-miterlimit="8" fill="none" fill-rule="evenodd"/><path d="M1795 1807.5C1795 1786.24 1812.46 1769 1834 1769 1855.54 1769 1873 1786.24 1873 1807.5 1873 1828.76 1855.54 1846 1834 1846 1812.46 1846 1795 1828.76 1795 1807.5Z" fill="#4472C4" fill-rule="evenodd"/><text fill="#FFFFFF" font-family="Arial,Arial_MSFontService,sans-serif" font-weight="700" font-size="73" transform="matrix(1 0 0 1 1807.56 1835)">C</text><rect x="3198" y="1013" width="889" height="147" fill="#D74514"/><text fill="#FFFFFF" font-family="Microsoft YaHei,Microsoft YaHei_MSFontService,sans-serif" font-weight="400" font-size="73" transform="matrix(1 0 0 1 3245.71 1113)">AbstractCollection<tspan font-size="73" x="644.531" y="0">&lt;</tspan><tspan fill="#F8CCB9" font-size="73" x="698.958" y="0">E</tspan><tspan font-size="73" x="739.063" y="0">&gt;</tspan></text><rect x="3049" y="1013" width="148" height="148" fill="#D74514"/><path d="M3071 1087C3071 1058.28 3094.28 1035 3123 1035 3151.72 1035 3175 1058.28 3175 1087 3175 1115.72 3151.72 1139 3123 1139 3094.28 1139 3071 1115.72 3071 1087Z" fill="#FFFFFF" fill-rule="evenodd"/><path d="M3071.5 1087.5 3176.06 1087.5" stroke="#4472C4" stroke-width="22.9167" stroke-miterlimit="8" fill="none" fill-rule="evenodd"/><path d="M3123.5 1035.5 3123.5 1140.06" stroke="#4472C4" stroke-width="22.9167" stroke-miterlimit="8" fill="none" fill-rule="evenodd"/><path d="M3084 1087C3084 1065.46 3101.46 1048 3123 1048 3144.54 1048 3162 1065.46 3162 1087 3162 1108.54 3144.54 1126 3123 1126 3101.46 1126 3084 1108.54 3084 1087Z" fill="#4472C4" fill-rule="evenodd"/><text fill="#FFFFFF" font-family="Arial,Arial_MSFontService,sans-serif" font-weight="700" font-size="73" transform="matrix(1 0 0 1 3096.82 1114)">C</text><rect x="4867" y="1399" width="665" height="148" fill="#D74514"/><text fill="#FFFFFF" font-family="Microsoft YaHei,Microsoft YaHei_MSFontService,sans-serif" font-weight="400" font-size="73" transform="matrix(1 0 0 1 4919.66 1500)">AbstractList<tspan font-size="73" x="411.354" y="0">&lt;</tspan><tspan fill="#F8CCB9" font-size="73" x="465.781" y="0">E</tspan><tspan font-size="73" x="505.885" y="0">&gt;</tspan></text><rect x="4718" y="1400" width="148" height="147" fill="#D74514"/><path d="M4740 1473.5C4740 1444.51 4763.28 1421 4792 1421 4820.72 1421 4844 1444.51 4844 1473.5 4844 1502.49 4820.72 1526 4792 1526 4763.28 1526 4740 1502.49 4740 1473.5Z" fill="#FFFFFF" fill-rule="evenodd"/><path d="M4740.5 1473.5 4845.06 1473.5" stroke="#4472C4" stroke-width="22.9167" stroke-miterlimit="8" fill="none" fill-rule="evenodd"/><path d="M4792.5 1421.5 4792.5 1526.06" stroke="#4472C4" stroke-width="22.9167" stroke-miterlimit="8" fill="none" fill-rule="evenodd"/><path d="M4753 1473.5C4753 1452.24 4770.46 1435 4792 1435 4813.54 1435 4831 1452.24 4831 1473.5 4831 1494.76 4813.54 1512 4792 1512 4770.46 1512 4753 1494.76 4753 1473.5Z" fill="#4472C4" fill-rule="evenodd"/><text fill="#FFFFFF" font-family="Arial,Arial_MSFontService,sans-serif" font-weight="700" font-size="73" transform="matrix(1 0 0 1 4765.83 1500)">C</text><rect x="4846" y="1733" width="1008" height="147" fill="#D74514"/><text fill="#FFFFFF" font-family="Microsoft YaHei,Microsoft YaHei_MSFontService,sans-serif" font-weight="400" font-size="73" transform="matrix(1 0 0 1 4884.2 1833)">AbstractSequentialList<tspan font-size="73" x="782.031" y="0">&lt;</tspan><tspan fill="#F8CCB9" font-size="73" x="836.459" y="0">E</tspan><tspan font-size="73" x="876.563" y="0">&gt;</tspan></text><rect x="4696" y="1733" width="148" height="148" fill="#D74514"/><path d="M4718 1807C4718 1778.28 4741.5 1755 4770.5 1755 4799.5 1755 4823 1778.28 4823 1807 4823 1835.72 4799.5 1859 4770.5 1859 4741.5 1859 4718 1835.72 4718 1807Z" fill="#FFFFFF" fill-rule="evenodd"/><path d="M4718.5 1807.5 4823.06 1807.5" stroke="#4472C4" stroke-width="22.9167" stroke-miterlimit="8" fill="none" fill-rule="evenodd"/><path d="M4770.5 1755.5 4770.5 1860.06" stroke="#4472C4" stroke-width="22.9167" stroke-miterlimit="8" fill="none" fill-rule="evenodd"/><path d="M4732 1807C4732 1785.46 4749.24 1768 4770.5 1768 4791.76 1768 4809 1785.46 4809 1807 4809 1828.54 4791.76 1846 4770.5 1846 4749.24 1846 4732 1828.54 4732 1807Z" fill="#4472C4" fill-rule="evenodd"/><text fill="#FFFFFF" font-family="Arial,Arial_MSFontService,sans-serif" font-weight="700" font-size="73" transform="matrix(1 0 0 1 4744.06 1834)">C</text><rect x="6242" y="2066" width="428" height="147" fill="#D74514"/><text fill="#FFFFFF" font-family="Microsoft YaHei,Microsoft YaHei_MSFontService,sans-serif" font-weight="400" font-size="73" transform="matrix(1 0 0 1 6287.81 2166)">Stack&lt;<tspan fill="#F8CCB9" font-size="73" x="241.771" y="0">E</tspan><tspan font-size="73" x="281.875" y="0">&gt;</tspan></text><rect x="6094" y="2066" width="148" height="147" fill="#D74514"/><path d="M6116 2139.5C6116 2110.51 6139.28 2087 6168 2087 6196.72 2087 6220 2110.51 6220 2139.5 6220 2168.5 6196.72 2192 6168 2192 6139.28 2192 6116 2168.5 6116 2139.5Z" fill="#FFFFFF" fill-rule="evenodd"/><path d="M6129 2139.5C6129 2118.24 6146.46 2101 6168 2101 6189.54 2101 6207 2118.24 6207 2139.5 6207 2160.76 6189.54 2178 6168 2178 6146.46 2178 6129 2160.76 6129 2139.5Z" fill="#4472C4" fill-rule="evenodd"/><text fill="#FFFFFF" font-family="Arial,Arial_MSFontService,sans-serif" font-weight="700" font-size="73" transform="matrix(1 0 0 1 6141.62 2166)">C</text><rect x="4088" y="1733" width="524" height="148" fill="#D74514"/><text fill="#FFFFFF" font-family="Microsoft YaHei,Microsoft YaHei_MSFontService,sans-serif" font-weight="400" font-size="73" transform="matrix(1 0 0 1 4122.41 1834)">ArrayLis<tspan font-size="73" x="278.438" y="0">t</tspan>&lt;<tspan fill="#F8CCB9" font-size="73" x="360.365" y="0">E</tspan><tspan font-size="73" x="400.469" y="0">&gt;</tspan></text><rect x="3940" y="1733" width="148" height="148" fill="#D74514"/><path d="M3961 1807C3961 1778.28 3984.51 1755 4013.5 1755 4042.49 1755 4066 1778.28 4066 1807 4066 1835.72 4042.49 1859 4013.5 1859 3984.51 1859 3961 1835.72 3961 1807Z" fill="#FFFFFF" fill-rule="evenodd"/><path d="M3975 1807C3975 1785.46 3992.46 1768 4014 1768 4035.54 1768 4053 1785.46 4053 1807 4053 1828.54 4035.54 1846 4014 1846 3992.46 1846 3975 1828.54 3975 1807Z" fill="#4472C4" fill-rule="evenodd"/><text fill="#FFFFFF" font-family="Arial,Arial_MSFontService,sans-serif" font-weight="700" font-size="73" transform="matrix(1 0 0 1 3987.33 1834)">C</text><rect x="5065" y="2066" width="576" height="147" fill="#D74514"/><text fill="#FFFFFF" font-family="Microsoft YaHei,Microsoft YaHei_MSFontService,sans-serif" font-weight="400" font-size="73" transform="matrix(1 0 0 1 5103.43 2166)">LinkedList<tspan font-size="73" x="350.052" y="0">&lt;</tspan><tspan fill="#F8CCB9" font-size="73" x="404.479" y="0">E</tspan><tspan font-size="73" x="444.583" y="0">&gt;</tspan></text><rect x="4916" y="2066" width="149" height="147" fill="#D74514"/><path d="M4938 2139.5C4938 2110.51 4961.5 2087 4990.5 2087 5019.5 2087 5043 2110.51 5043 2139.5 5043 2168.5 5019.5 2192 4990.5 2192 4961.5 2192 4938 2168.5 4938 2139.5Z" fill="#FFFFFF" fill-rule="evenodd"/><path d="M4952 2139.5C4952 2118.24 4969.24 2101 4990.5 2101 5011.76 2101 5029 2118.24 5029 2139.5 5029 2160.76 5011.76 2178 4990.5 2178 4969.24 2178 4952 2160.76 4952 2139.5Z" fill="#4472C4" fill-rule="evenodd"/><text fill="#FFFFFF" font-family="Arial,Arial_MSFontService,sans-serif" font-weight="700" font-size="73" transform="matrix(1 0 0 1 4964.16 2166)">C</text><rect x="2880" y="2066" width="640" height="147" fill="#D74514"/><text fill="#FFFFFF" font-family="Microsoft YaHei,Microsoft YaHei_MSFontService,sans-serif" font-weight="400" font-size="73" transform="matrix(1 0 0 1 2915.71 2166)">ArrayDeque<tspan font-size="73" x="419.375" y="0">&lt;</tspan><tspan fill="#F8CCB9" font-size="73" x="473.802" y="0">E</tspan><tspan font-size="73" x="513.906" y="0">&gt;</tspan></text><rect x="2732" y="2066" width="148" height="147" fill="#D74514"/><path d="M2754 2139.5C2754 2110.51 2777.28 2087 2806 2087 2834.72 2087 2858 2110.51 2858 2139.5 2858 2168.5 2834.72 2192 2806 2192 2777.28 2192 2754 2168.5 2754 2139.5Z" fill="#FFFFFF" fill-rule="evenodd"/><path d="M2767 2139.5C2767 2118.24 2784.46 2101 2806 2101 2827.54 2101 2845 2118.24 2845 2139.5 2845 2160.76 2827.54 2178 2806 2178 2784.46 2178 2767 2160.76 2767 2139.5Z" fill="#4472C4" fill-rule="evenodd"/><text fill="#FFFFFF" font-family="Arial,Arial_MSFontService,sans-serif" font-weight="700" font-size="73" transform="matrix(1 0 0 1 2779.48 2166)">C</text><rect x="2971" y="1736" width="453" height="148" fill="#D74514"/><text fill="#FFFFFF" font-family="Microsoft YaHei,Microsoft YaHei_MSFontService,sans-serif" font-weight="400" font-size="73" transform="matrix(1 0 0 1 3007.01 1837)">Deque<tspan font-size="73" x="232.031" y="0">&lt;</tspan><tspan fill="#F8CCB9" font-size="73" x="286.459" y="0">E</tspan><tspan font-size="73" x="326.563" y="0">&gt;</tspan></text><rect x="2823" y="1736" width="148" height="148" fill="#D74514"/><path d="M2845 1810C2845 1781.28 2868.28 1758 2897 1758 2925.72 1758 2949 1781.28 2949 1810 2949 1838.72 2925.72 1862 2897 1862 2868.28 1862 2845 1838.72 2845 1810Z" fill="#FFFFFF" fill-rule="evenodd"/><path d="M2858 1810C2858 1788.46 2875.46 1771 2897 1771 2918.54 1771 2936 1788.46 2936 1810 2936 1831.54 2918.54 1849 2897 1849 2875.46 1849 2858 1831.54 2858 1810Z" fill="#70AD47" fill-rule="evenodd"/><text fill="#FFFFFF" font-family="Arial,Arial_MSFontService,sans-serif" font-weight="700" font-size="73" transform="matrix(1 0 0 1 2886.81 1837)">I</text><rect x="1936" y="2066" width="715" height="147" fill="#D74514"/><text fill="#FFFFFF" font-family="Microsoft YaHei,Microsoft YaHei_MSFontService,sans-serif" font-weight="400" font-size="73" transform="matrix(1 0 0 1 1975.75 2166)">PriorityQueue<tspan font-size="73" x="486.406" y="0">&lt;</tspan><tspan fill="#F8CCB9" font-size="73" x="540.833" y="0">E</tspan><tspan font-size="73" x="580.937" y="0">&gt;</tspan></text><rect x="1788" y="2066" width="148" height="147" fill="#D74514"/><path d="M1810 2139.5C1810 2110.51 1833.28 2087 1862 2087 1890.72 2087 1914 2110.51 1914 2139.5 1914 2168.5 1890.72 2192 1862 2192 1833.28 2192 1810 2168.5 1810 2139.5Z" fill="#FFFFFF" fill-rule="evenodd"/><path d="M1823 2139.5C1823 2118.24 1840.46 2101 1862 2101 1883.54 2101 1901 2118.24 1901 2139.5 1901 2160.76 1883.54 2178 1862 2178 1840.46 2178 1823 2160.76 1823 2139.5Z" fill="#4472C4" fill-rule="evenodd"/><text fill="#FFFFFF" font-family="Arial,Arial_MSFontService,sans-serif" font-weight="700" font-size="73" transform="matrix(1 0 0 1 1835.53 2166)">C</text><rect x="1067" y="2066" width="498" height="148" fill="#D74514"/><text fill="#FFFFFF" font-family="Microsoft YaHei,Microsoft YaHei_MSFontService,sans-serif" font-weight="400" font-size="73" transform="matrix(1 0 0 1 1108.96 2167)">TreeSet&lt;<tspan fill="#F8CCB9" font-size="73" x="319.688" y="0">E</tspan><tspan font-size="73" x="359.792" y="0">&gt;</tspan></text><rect x="919" y="2066" width="148" height="148" fill="#D74514"/><path d="M941 2139.5C941 2110.51 964.281 2087 993 2087 1021.72 2087 1045 2110.51 1045 2139.5 1045 2168.5 1021.72 2192 993 2192 964.281 2192 941 2168.5 941 2139.5Z" fill="#FFFFFF" fill-rule="evenodd"/><path d="M954 2140C954 2118.46 971.461 2101 993 2101 1014.54 2101 1032 2118.46 1032 2140 1032 2161.54 1014.54 2179 993 2179 971.461 2179 954 2161.54 954 2140Z" fill="#4472C4" fill-rule="evenodd"/><text fill="#FFFFFF" font-family="Arial,Arial_MSFontService,sans-serif" font-weight="700" font-size="73" transform="matrix(1 0 0 1 966.755 2167)">C</text><rect x="-1344" y="2066" width="755" height="147" fill="#D74514"/><text fill="#FFFFFF" font-family="Microsoft YaHei,Microsoft YaHei_MSFontService,sans-serif" font-weight="400" font-size="73" transform="matrix(1 0 0 1 -1300.51 2166)">LinkedHashSet<tspan font-size="73" x="519.635" y="0">&lt;</tspan><tspan fill="#F8CCB9" font-size="73" x="574.062" y="0">E</tspan><tspan font-size="73" x="614.167" y="0">&gt;</tspan></text><rect x="-1496" y="2066" width="152" height="147" fill="#D74514"/><path d="M-1474 2139.5C-1474 2110.51-1449.82 2087-1420 2087-1390.18 2087-1366 2110.51-1366 2139.5-1366 2168.5-1390.18 2192-1420 2192-1449.82 2192-1474 2168.5-1474 2139.5Z" fill="#FFFFFF" fill-rule="evenodd"/><path d="M-1460 2139.5C-1460 2118.24-1442.09 2101-1420 2101-1397.91 2101-1380 2118.24-1380 2139.5-1380 2160.76-1397.91 2178-1420 2178-1442.09 2178-1460 2160.76-1460 2139.5Z" fill="#4472C4" fill-rule="evenodd"/><text fill="#FFFFFF" font-family="Arial,Arial_MSFontService,sans-serif" font-weight="700" font-size="73" transform="matrix(1 0 0 1 -1446.36 2166)">C</text><rect x="-1225" y="1733" width="515" height="148" fill="#D74514"/><text fill="#FFFFFF" font-family="Microsoft YaHei,Microsoft YaHei_MSFontService,sans-serif" font-weight="400" font-size="73" transform="matrix(1 0 0 1 -1186.16 1834)">HashSet<tspan font-size="73" x="288.177" y="0">&lt;</tspan><tspan fill="#F8CCB9" font-size="73" x="342.604" y="0">E</tspan><tspan font-size="73" x="382.708" y="0">&gt;</tspan></text><rect x="-1373" y="1733" width="148" height="148" fill="#D74514"/><path d="M-1351 1807C-1351 1778.28-1327.72 1755-1299 1755-1270.28 1755-1247 1778.28-1247 1807-1247 1835.72-1270.28 1859-1299 1859-1327.72 1859-1351 1835.72-1351 1807Z" fill="#FFFFFF" fill-rule="evenodd"/><path d="M-1338 1807C-1338 1785.46-1320.54 1768-1299 1768-1277.46 1768-1260 1785.46-1260 1807-1260 1828.54-1277.46 1846-1299 1846-1320.54 1846-1338 1828.54-1338 1807Z" fill="#4472C4" fill-rule="evenodd"/><text fill="#FFFFFF" font-family="Arial,Arial_MSFontService,sans-serif" font-weight="700" font-size="73" transform="matrix(1 0 0 1 -1325.18 1834)">C</text><path d="M1312.08 2066.79 1311.75 2039.29 1320.92 2039.18 1321.24 2066.68ZM1311.64 2030.13 1311.32 2002.63 1320.48 2002.52 1320.81 2030.02ZM1311.21 1993.46 1310.88 1965.96 1320.05 1965.86 1320.37 1993.35ZM1310.77 1956.8 1310.45 1929.3 1319.61 1929.19 1319.94 1956.69ZM1292.13 1930.6 1314.5 1884.5 1337.96 1930.06Z" fill="#70AD47"/><path d="M1309.65 1736.98 1307.46 1570.81 1316.63 1570.69 1318.82 1736.86ZM1289.19 1575.63 1311.5 1529.5 1335.02 1575.03Z" fill="#70AD47"/><path d="M2289.32 2066.35 2285.9 1922.85 2295.07 1922.63 2298.49 2066.13ZM2267.68 1927.87 2289.5 1881.5 2313.5 1926.77Z" fill="#4472C4"/><path d="M919.697 2144.74 637.953 2144.74 637.953 1460.5 642.537 1465.08 14.7499 1465.08 14.7499 1455.92 647.12 1455.92 647.12 2140.16 642.537 2135.57 919.697 2135.57ZM19.3334 1483.42-26.4999 1460.5 19.3334 1437.58Z" fill="#4472C4"/><path d="M0-4.58333 367.999-4.58333 367.999 231.808 358.832 231.808 358.832 0 363.415 4.58333 0 4.58333ZM386.332 227.224 363.415 273.058 340.499 227.224Z" fill="#4472C4" transform="matrix(1 0 0 -1 -709.5 1807.56)"/><path d="M0-4.58333 55.3712-4.58333 55.3712 502.341 50.7879 497.758 171.652 497.758 171.652 506.925 46.2046 506.925 46.2046 0 50.7879 4.58333 0 4.58333ZM167.069 479.425 212.902 502.341 167.069 525.258Z" fill="#70AD47" transform="matrix(-1.83697e-16 -1 -1 1.83697e-16 1311.84 1381.4)"/><path d="M0-4.58333 55.9112-4.58333 55.9112 1176.62 51.3279 1172.04 547.241 1172.04 547.241 1181.2 46.7446 1181.2 46.7446 0 51.3279 4.58333 0 4.58333ZM542.657 1153.7 588.491 1176.62 542.657 1199.54Z" fill="#70AD47" transform="matrix(-1.83697e-16 -1 -1 1.83697e-16 1312.12 1380.99)"/><path d="M0-4.58333 306.34-4.58333 306.34 465.737 297.174 465.737 297.174 0 301.757 4.58333 0 4.58333ZM324.674 461.153 301.757 506.987 278.84 461.153Z" fill="#70AD47" transform="matrix(-1.83697e-16 -1 -1 1.83697e-16 809.487 1021.26)"/><path d="M0 4.58333-27.5 4.58333-27.5-4.58333 0-4.58333ZM-36.6667 4.58333-64.1667 4.58333-64.1667-4.58333-36.6667-4.58333ZM-73.3333 4.58333-100.833 4.58333-100.833-4.58333-73.3333-4.58333ZM-110 4.58333-137.5 4.58333-137.5-4.58333-110-4.58333ZM-146.667 4.58333-152.398 4.58333-147.815 0-147.815 21.7687-156.981 21.7687-156.981-4.58333-146.667-4.58333ZM-147.815 30.9354-147.815 58.4354-156.981 58.4354-156.981 30.9354ZM-147.815 67.602-147.815 95.102-156.981 95.102-156.981 67.602ZM-147.815 104.269-147.815 131.769-156.981 131.769-156.981 104.269ZM-147.815 140.935-147.815 168.435-156.981 168.435-156.981 140.935ZM-147.815 177.602-147.815 205.102-156.981 205.102-156.981 177.602ZM-147.815 214.269-147.815 241.769-156.981 241.769-156.981 214.269ZM-147.815 250.935-147.815 278.435-156.981 278.435-156.981 250.935ZM-147.815 287.602-147.815 315.102-156.981 315.102-156.981 287.602ZM-147.815 324.269-147.815 351.769-156.981 351.769-156.981 324.269ZM-147.815 360.935-147.815 388.435-156.981 388.435-156.981 360.935ZM-147.815 397.602-147.815 425.102-156.981 425.102-156.981 397.602ZM-147.815 434.269-147.815 461.769-156.981 461.769-156.981 434.269ZM-147.815 470.935-147.815 498.435-156.981 498.435-156.981 470.935ZM-147.815 507.602-147.815 535.102-156.981 535.102-156.981 507.602ZM-147.815 544.269-147.815 571.769-156.981 571.769-156.981 544.269ZM-147.815 580.935-147.815 608.435-156.981 608.435-156.981 580.935ZM-147.815 617.602-147.815 645.102-156.981 645.102-156.981 617.602ZM-147.815 654.269-147.815 681.769-156.981 681.769-156.981 654.269ZM-147.815 690.935-147.815 718.435-156.981 718.435-156.981 690.935ZM-147.815 727.602-147.815 742.094-152.398 737.51-139.39 737.51-139.39 746.677-156.981 746.677-156.981 727.602ZM-130.223 737.51-102.723 737.51-102.723 746.677-130.223 746.677ZM-93.5562 737.51-66.0562 737.51-66.0562 746.677-93.5562 746.677ZM-56.8895 737.51-29.3895 737.51-29.3895 746.677-56.8895 746.677ZM-20.2229 737.51 7.27712 737.51 7.27712 746.677-20.2229 746.677ZM16.4438 737.51 43.9438 737.51 43.9438 746.677 16.4438 746.677ZM53.1105 737.51 80.6105 737.51 80.6105 746.677 53.1105 746.677ZM89.7771 737.51 117.277 737.51 117.277 746.677 89.7771 746.677ZM126.444 737.51 153.944 737.51 153.944 746.677 126.444 746.677ZM163.11 737.51 190.61 737.51 190.61 746.677 163.11 746.677ZM199.777 737.51 227.277 737.51 227.277 746.677 199.777 746.677ZM236.444 737.51 263.944 737.51 263.944 746.677 236.444 746.677ZM273.11 737.51 300.61 737.51 300.61 746.677 273.11 746.677ZM309.777 737.51 337.277 737.51 337.277 746.677 309.777 746.677ZM346.444 737.51 373.944 737.51 373.944 746.677 346.444 746.677ZM383.11 737.51 410.61 737.51 410.61 746.677 383.11 746.677ZM419.777 737.51 447.277 737.51 447.277 746.677 419.777 746.677ZM456.444 737.51 483.944 737.51 483.944 746.677 456.444 746.677ZM493.11 737.51 520.61 737.51 520.61 746.677 493.11 746.677ZM529.777 737.51 557.277 737.51 557.277 746.677 529.777 746.677ZM566.444 737.51 593.944 737.51 593.944 746.677 566.444 746.677ZM589.369 719.177 635.202 742.094 589.369 765.01Z" fill="#70AD47" transform="matrix(1 -1.22465e-16 -1.22465e-16 -1 -815.5 1461.59)"/><path d="M-972.083 1734.04-972.083 1706.54-962.917 1706.54-962.917 1734.04ZM-972.083 1697.37-972.083 1669.87-962.917 1669.87-962.917 1697.37ZM-972.083 1660.71-972.083 1633.21-962.917 1633.21-962.917 1660.71ZM-972.083 1624.04-972.083 1596.54-962.917 1596.54-962.917 1624.04ZM-972.083 1587.37-972.083 1559.87-962.917 1559.87-962.917 1587.37ZM-972.083 1550.71-972.083 1523.21-962.917 1523.21-962.917 1550.71ZM-972.083 1514.04-972.083 1486.54-962.917 1486.54-962.917 1514.04ZM-972.083 1477.37-972.083 1449.87-962.917 1449.87-962.917 1477.37ZM-972.083 1440.71-972.083 1413.21-962.917 1413.21-962.917 1440.71ZM-972.083 1404.04-972.083 1376.54-962.917 1376.54-962.917 1404.04ZM-972.083 1367.37-972.083 1339.87-962.917 1339.87-962.917 1367.37ZM-972.083 1330.71-972.083 1303.21-962.917 1303.21-962.917 1330.71ZM-972.083 1294.04-972.083 1266.54-962.917 1266.54-962.917 1294.04ZM-972.083 1257.37-972.083 1229.87-962.917 1229.87-962.917 1257.37ZM-972.083 1220.71-972.083 1193.21-962.917 1193.21-962.917 1220.71ZM-972.083 1184.04-972.083 1156.54-962.917 1156.54-962.917 1184.04ZM-972.083 1147.37-972.083 1119.87-962.917 1119.87-962.917 1147.37ZM-972.083 1110.71-972.083 1083.21-962.917 1083.21-962.917 1110.71ZM-972.083 1074.04-972.083 1046.54-962.917 1046.54-962.917 1074.04ZM-972.083 1037.37-972.083 1009.87-962.917 1009.87-962.917 1037.37ZM-972.083 1000.71-972.083 973.207-962.917 973.207-962.917 1000.71ZM-972.083 964.04-972.083 936.54-962.917 936.54-962.917 964.04ZM-972.083 927.373-972.083 899.873-962.917 899.873-962.917 927.373ZM-972.083 890.707-972.083 863.207-962.917 863.207-962.917 890.707ZM-972.083 854.04-972.083 826.54-962.917 826.54-962.917 854.04ZM-972.083 817.373-972.083 789.873-962.917 789.873-962.917 817.373ZM-972.083 780.707-972.083 753.207-962.917 753.207-962.917 780.707ZM-972.083 744.04-972.083 714.917-964.54 714.917-964.54 724.083-967.5 724.083-962.917 719.5-962.917 744.04ZM-955.374 714.917-927.874 714.917-927.874 724.083-955.374 724.083ZM-918.707 714.917-891.207 714.917-891.207 724.083-918.707 724.083ZM-882.04 714.917-854.54 714.917-854.54 724.083-882.04 724.083ZM-845.374 714.917-817.874 714.917-817.874 724.083-845.374 724.083ZM-808.707 714.917-781.207 714.917-781.207 724.083-808.707 724.083ZM-772.04 714.917-744.54 714.917-744.54 724.083-772.04 724.083ZM-735.374 714.917-707.874 714.917-707.874 724.083-735.374 724.083ZM-698.707 714.917-671.207 714.917-671.207 724.083-698.707 724.083ZM-662.04 714.917-634.54 714.917-634.54 724.083-662.04 724.083ZM-625.374 714.917-597.874 714.917-597.874 724.083-625.374 724.083ZM-588.707 714.917-561.207 714.917-561.207 724.083-588.707 724.083ZM-552.04 714.917-524.54 714.917-524.54 724.083-552.04 724.083ZM-515.374 714.917-487.874 714.917-487.874 724.083-515.374 724.083ZM-478.707 714.917-451.207 714.917-451.207 724.083-478.707 724.083ZM-442.04 714.917-414.54 714.917-414.54 724.083-442.04 724.083ZM-405.374 714.917-377.874 714.917-377.874 724.083-405.374 724.083ZM-368.707 714.917-341.207 714.917-341.207 724.083-368.707 724.083ZM-332.04 714.917-304.54 714.917-304.54 724.083-332.04 724.083ZM-295.374 714.917-267.874 714.917-267.874 724.083-295.374 724.083ZM-258.707 714.917-231.207 714.917-231.207 724.083-258.707 724.083ZM-222.04 714.917-222.005 714.917-222.005 724.083-222.04 724.083ZM-226.588 696.583-180.755 719.5-226.588 742.417Z" fill="#70AD47"/><path d="M0 4.58333-27.5 4.58333-27.5-4.58333 0-4.58333ZM-36.6667 4.58333-64.1667 4.58333-64.1667-4.58333-36.6667-4.58333ZM-73.3333 4.58333-82.4939 4.58333-77.9105 0-77.9105 18.3395-87.0772 18.3395-87.0772-4.58333-73.3333-4.58333ZM-77.9105 27.5061-77.9105 55.0061-87.0772 55.0061-87.0772 27.5061ZM-77.9105 64.1728-77.9105 91.6728-87.0772 91.6728-87.0772 64.1728ZM-77.9105 100.839-77.9105 128.339-87.0772 128.339-87.0772 100.839ZM-77.9105 137.506-77.9105 165.006-87.0772 165.006-87.0772 137.506ZM-77.9105 174.173-77.9105 201.673-87.0772 201.673-87.0772 174.173ZM-77.9105 210.839-77.9105 238.339-87.0772 238.339-87.0772 210.839ZM-77.9105 247.506-77.9105 275.006-87.0772 275.006-87.0772 247.506ZM-77.9105 284.173-77.9105 311.673-87.0772 311.673-87.0772 284.173ZM-77.9105 320.839-77.9105 348.339-87.0772 348.339-87.0772 320.839ZM-77.9105 357.506-77.9105 385.006-87.0772 385.006-87.0772 357.506ZM-77.9105 394.173-77.9105 421.673-87.0772 421.673-87.0772 394.173ZM-77.9105 430.839-77.9105 458.339-87.0772 458.339-87.0772 430.839ZM-77.9105 467.506-77.9105 495.006-87.0772 495.006-87.0772 467.506ZM-77.9105 504.173-77.9105 531.673-87.0772 531.673-87.0772 504.173ZM-77.9105 540.839-77.9105 568.339-87.0772 568.339-87.0772 540.839ZM-77.9105 577.506-77.9105 605.006-87.0772 605.006-87.0772 577.506ZM-77.9105 614.173-77.9105 641.673-87.0772 641.673-87.0772 614.173ZM-77.9105 650.839-77.9105 678.339-87.0772 678.339-87.0772 650.839ZM-77.9105 687.506-77.9105 715.006-87.0772 715.006-87.0772 687.506ZM-77.9105 724.173-77.9105 751.673-87.0772 751.673-87.0772 724.173ZM-77.9105 760.839-77.9105 788.339-87.0772 788.339-87.0772 760.839ZM-77.9105 797.506-77.9105 825.006-87.0772 825.006-87.0772 797.506ZM-77.9105 834.173-77.9105 861.673-87.0772 861.673-87.0772 834.173ZM-77.9105 870.839-77.9105 898.339-87.0772 898.339-87.0772 870.839ZM-77.9105 907.506-77.9105 935.006-87.0772 935.006-87.0772 907.506ZM-77.9105 944.173-77.9105 971.673-87.0772 971.673-87.0772 944.173ZM-77.9105 980.839-77.9105 1008.34-87.0772 1008.34-87.0772 980.839ZM-77.9105 1017.51-77.9105 1045.01-87.0772 1045.01-87.0772 1017.51ZM-73.5058 1040.6-46.0058 1040.6-46.0058 1049.77-73.5058 1049.77ZM-36.8392 1040.6-9.33917 1040.6-9.33917 1049.77-36.8392 1049.77ZM-0.172501 1040.6 27.3275 1040.6 27.3275 1049.77-0.172501 1049.77ZM36.4942 1040.6 63.9942 1040.6 63.9942 1049.77 36.4942 1049.77ZM73.1608 1040.6 100.661 1040.6 100.661 1049.77 73.1608 1049.77ZM109.827 1040.6 137.327 1040.6 137.327 1049.77 109.827 1049.77ZM146.494 1040.6 173.994 1040.6 173.994 1049.77 146.494 1049.77ZM183.161 1040.6 210.661 1040.6 210.661 1049.77 183.161 1049.77ZM219.827 1040.6 247.327 1040.6 247.327 1049.77 219.827 1049.77ZM256.494 1040.6 283.994 1040.6 283.994 1049.77 256.494 1049.77ZM293.161 1040.6 320.661 1040.6 320.661 1049.77 293.161 1049.77ZM329.827 1040.6 357.327 1040.6 357.327 1049.77 329.827 1049.77ZM366.494 1040.6 393.994 1040.6 393.994 1049.77 366.494 1049.77ZM403.161 1040.6 430.661 1040.6 430.661 1049.77 403.161 1049.77ZM439.827 1040.6 467.327 1040.6 467.327 1049.77 439.827 1049.77ZM476.494 1040.6 503.994 1040.6 503.994 1049.77 476.494 1049.77ZM513.161 1040.6 540.661 1040.6 540.661 1049.77 513.161 1049.77ZM549.828 1040.6 577.328 1040.6 577.328 1049.77 549.828 1049.77ZM586.494 1040.6 613.994 1040.6 613.994 1049.77 586.494 1049.77ZM623.161 1040.6 650.661 1040.6 650.661 1049.77 623.161 1049.77ZM659.828 1040.6 687.328 1040.6 687.328 1049.77 659.828 1049.77ZM696.494 1040.6 723.994 1040.6 723.994 1049.77 696.494 1049.77ZM733.161 1040.6 760.661 1040.6 760.661 1049.77 733.161 1049.77ZM769.828 1040.6 797.328 1040.6 797.328 1049.77 769.828 1049.77ZM806.494 1040.6 833.994 1040.6 833.994 1049.77 806.494 1049.77ZM843.161 1040.6 870.661 1040.6 870.661 1049.77 843.161 1049.77ZM879.828 1040.6 907.328 1040.6 907.328 1049.77 879.828 1049.77ZM916.494 1040.6 943.994 1040.6 943.994 1049.77 916.494 1049.77ZM953.161 1040.6 980.661 1040.6 980.661 1049.77 953.161 1049.77ZM989.828 1040.6 1017.33 1040.6 1017.33 1049.77 989.828 1049.77ZM1026.49 1040.6 1053.99 1040.6 1053.99 1049.77 1026.49 1049.77ZM1063.16 1040.6 1090.66 1040.6 1090.66 1049.77 1063.16 1049.77ZM1099.83 1040.6 1127.33 1040.6 1127.33 1049.77 1099.83 1049.77ZM1136.49 1040.6 1163.99 1040.6 1163.99 1049.77 1136.49 1049.77ZM1173.16 1040.6 1200.66 1040.6 1200.66 1049.77 1173.16 1049.77ZM1209.83 1040.6 1237.33 1040.6 1237.33 1049.77 1209.83 1049.77ZM1246.49 1040.6 1273.99 1040.6 1273.99 1049.77 1246.49 1049.77ZM1283.16 1040.6 1310.66 1040.6 1310.66 1049.77 1283.16 1049.77ZM1319.83 1040.6 1347.33 1040.6 1347.33 1049.77 1319.83 1049.77ZM1356.49 1040.6 1383.99 1040.6 1383.99 1049.77 1356.49 1049.77ZM1393.16 1040.6 1420.66 1040.6 1420.66 1049.77 1393.16 1049.77ZM1429.83 1040.6 1457.33 1040.6 1457.33 1049.77 1429.83 1049.77ZM1466.49 1040.6 1493.99 1040.6 1493.99 1049.77 1466.49 1049.77ZM1503.16 1040.6 1530.66 1040.6 1530.66 1049.77 1503.16 1049.77ZM1539.83 1040.6 1567.33 1040.6 1567.33 1049.77 1539.83 1049.77ZM1576.49 1040.6 1603.99 1040.6 1603.99 1049.77 1576.49 1049.77ZM1613.16 1040.6 1640.66 1040.6 1640.66 1049.77 1613.16 1049.77ZM1649.83 1040.6 1677.33 1040.6 1677.33 1049.77 1649.83 1049.77ZM1686.49 1040.6 1713.99 1040.6 1713.99 1049.77 1686.49 1049.77ZM1723.16 1040.6 1741.64 1040.6 1741.64 1049.77 1723.16 1049.77ZM1737.06 1022.27 1782.89 1045.18 1737.06 1068.1Z" fill="#70AD47" transform="matrix(1 -1.22465e-16 -1.22465e-16 -1 -1495.5 2139.68)"/><path d="M3196.29 2066.43 3195.93 2038.93 3205.1 2038.81 3205.46 2066.31ZM3195.81 2029.77 3195.45 2002.27 3204.62 2002.15 3204.98 2029.65ZM3195.33 1993.1 3194.98 1965.61 3204.14 1965.49 3204.5 1992.98ZM3194.86 1956.44 3194.5 1928.94 3203.66 1928.82 3204.02 1956.32ZM3176.18 1930.63 3198.5 1884.5 3222.01 1930.03Z" fill="#70AD47"/><path d="M5349.16 2065.93 5346.64 1921.82 5355.8 1921.66 5358.33 2065.77ZM5328.39 1926.73 5350.5 1880.5 5374.21 1925.93Z" fill="#4472C4"/><path d="M6451.77 2066.46 6450.33 1920.79 6459.49 1920.7 6460.93 2066.37ZM6432.04 1925.56 6454.5 1879.5 6477.87 1925.1Z" fill="#4472C4"/><path d="M4345.92 1734.07 4345.92 1636.2 5200.45 1636.2 5195.87 1640.79 5195.87 1588.75 5205.04 1588.75 5205.04 1645.37 4350.5 1645.37 4355.08 1640.79 4355.08 1734.07ZM5177.54 1593.33 5200.45 1547.5 5223.37 1593.33Z" fill="#4472C4"/><path d="M0-4.58333 97.5636-4.58333 97.5636 149.881 92.9803 145.297 144.711 145.297 144.711 154.464 88.397 154.464 88.397 0 92.9803 4.58333 0 4.58333ZM140.127 126.964 185.961 149.881 140.127 172.797Z" fill="#4472C4" transform="matrix(-1.83697e-16 -1 -1 1.83697e-16 5350.38 1733.46)"/><path d="M0-4.58333 96.7821-4.58333 96.7821 1254.3 92.1988 1249.72 143.148 1249.72 143.148 1258.88 87.6155 1258.88 87.6155 0 92.1988 4.58333 0 4.58333ZM138.564 1231.38 184.398 1254.3 138.564 1277.22Z" fill="#4472C4" transform="matrix(-1.83697e-16 -1 -1 1.83697e-16 6454.8 1731.9)"/><path d="M2823.82 1815.34 2732.92 1815.34 2732.92 1570.75 2742.08 1570.75 2742.08 1810.75 2737.5 1806.17 2823.82 1806.17ZM2714.58 1575.33 2737.5 1529.5 2760.42 1575.33Z" fill="#70AD47"/><path d="M0-4.58333 27.5-4.58333 27.5 4.58333 0 4.58333ZM36.6667-4.58333 64.1667-4.58333 64.1667 4.58333 36.6667 4.58333ZM72.2929 5.62379 72.2929 33.1238 63.1262 33.1238 63.1262 5.62379ZM72.2929 42.2905 72.2929 69.7905 63.1262 69.7905 63.1262 42.2905ZM72.2929 78.9571 72.2929 106.457 63.1262 106.457 63.1262 78.9571ZM72.2929 115.624 72.2929 143.124 63.1262 143.124 63.1262 115.624ZM72.2929 152.29 72.2929 179.79 63.1262 179.79 63.1262 152.29ZM72.2929 188.957 72.2929 216.457 63.1262 216.457 63.1262 188.957ZM72.2929 225.624 72.2929 237.137 63.1262 237.137 63.1262 225.624ZM90.6262 232.554 67.7095 278.387 44.7929 232.554Z" fill="#70AD47" transform="matrix(1 0 0 -1 2669.5 1807.89)"/><path d="M2284.92 1733.44 2284.92 1242.38 3642.93 1242.38 3638.34 1246.96 3638.34 1201.75 3647.51 1201.75 3647.51 1251.55 2289.5 1251.55 2294.08 1246.96 2294.08 1733.44ZM3620.01 1206.33 3642.93 1160.5 3665.84 1206.33Z" fill="#4472C4"/><path d="M0-4.58333 127.178-4.58333 127.178 937.921 118.011 937.921 118.011 0 122.595 4.58333 0 4.58333ZM145.511 933.338 122.595 979.171 99.6781 933.338Z" fill="#4472C4" transform="matrix(1 0 0 -1 3520.5 2139.67)"/><path d="M-351.083 1386.55-351.083 1241.44 3642.97 1241.44 3638.39 1246.03 3638.39 1201.75 3647.55 1201.75 3647.55 1250.61-346.5 1250.61-341.917 1246.03-341.917 1386.55ZM3620.05 1206.33 3642.97 1160.5 3665.89 1206.33Z" fill="#4472C4"/><path d="M804.917 1020.93 804.917 710.917 3540.58 710.917 3540.58 720.083 809.5 720.083 814.083 715.5 814.083 1020.93ZM3536 692.583 3581.83 715.5 3536 738.417Z" fill="#70AD47"/><path d="M4718.18 1478.23 3637.92 1478.23 3637.92 1201.75 3647.08 1201.75 3647.08 1473.65 3642.5 1469.06 4718.18 1469.06ZM3619.58 1206.33 3642.5 1160.5 3665.42 1206.33Z" fill="#4472C4"/><path d="M4917.13 2144.62 4889.63 2144.62 4889.63 2135.45 4917.13 2135.45ZM4880.46 2144.62 4852.96 2144.62 4852.96 2135.45 4880.46 2135.45ZM4843.79 2144.62 4816.29 2144.62 4816.29 2135.45 4843.79 2135.45ZM4807.13 2144.62 4779.63 2144.62 4779.63 2135.45 4807.13 2135.45ZM4770.46 2144.62 4742.96 2144.62 4742.96 2135.45 4770.46 2135.45ZM4733.79 2144.62 4706.29 2144.62 4706.29 2135.45 4733.79 2135.45ZM4697.13 2144.62 4669.63 2144.62 4669.63 2135.45 4697.13 2135.45ZM4660.46 2144.62 4632.96 2144.62 4632.96 2135.45 4660.46 2135.45ZM4623.79 2144.62 4596.29 2144.62 4596.29 2135.45 4623.79 2135.45ZM4587.13 2144.62 4559.63 2144.62 4559.63 2135.45 4587.13 2135.45ZM4550.46 2144.62 4522.96 2144.62 4522.96 2135.45 4550.46 2135.45ZM4513.79 2144.62 4486.29 2144.62 4486.29 2135.45 4513.79 2135.45ZM4477.13 2144.62 4449.63 2144.62 4449.63 2135.45 4477.13 2135.45ZM4440.46 2144.62 4412.96 2144.62 4412.96 2135.45 4440.46 2135.45ZM4403.79 2144.62 4376.29 2144.62 4376.29 2135.45 4403.79 2135.45ZM4367.13 2144.62 4339.63 2144.62 4339.63 2135.45 4367.13 2135.45ZM4330.46 2144.62 4302.96 2144.62 4302.96 2135.45 4330.46 2135.45ZM4293.79 2144.62 4266.29 2144.62 4266.29 2135.45 4293.79 2135.45ZM4257.13 2144.62 4229.63 2144.62 4229.63 2135.45 4257.13 2135.45ZM4220.46 2144.62 4192.96 2144.62 4192.96 2135.45 4220.46 2135.45ZM4183.79 2144.62 4156.29 2144.62 4156.29 2135.45 4183.79 2135.45ZM4147.13 2144.62 4119.63 2144.62 4119.63 2135.45 4147.13 2135.45ZM4110.46 2144.62 4082.96 2144.62 4082.96 2135.45 4110.46 2135.45ZM4073.8 2144.62 4046.3 2144.62 4046.3 2135.45 4073.8 2135.45ZM4037.13 2144.62 4009.63 2144.62 4009.63 2135.45 4037.13 2135.45ZM4000.46 2144.62 3972.96 2144.62 3972.96 2135.45 4000.46 2135.45ZM3963.8 2144.62 3936.3 2144.62 3936.3 2135.45 3963.8 2135.45ZM3927.13 2144.62 3899.63 2144.62 3899.63 2135.45 3927.13 2135.45ZM3890.46 2144.62 3862.96 2144.62 3862.96 2135.45 3890.46 2135.45ZM3853.79 2144.62 3826.29 2144.62 3826.29 2135.45 3853.79 2135.45ZM3817.13 2144.62 3801.85 2144.62 3801.85 2123.23 3811.02 2123.23 3811.02 2140.03 3806.43 2135.45 3817.13 2135.45ZM3801.85 2114.06 3801.85 2086.56 3811.02 2086.56 3811.02 2114.06ZM3801.85 2077.4 3801.85 2049.9 3811.02 2049.9 3811.02 2077.4ZM3801.85 2040.73 3801.85 2013.23 3811.02 2013.23 3811.02 2040.73ZM3801.85 2004.06 3801.85 1976.56 3811.02 1976.56 3811.02 2004.06ZM3801.85 1967.4 3801.85 1939.9 3811.02 1939.9 3811.02 1967.4ZM3801.85 1930.73 3801.85 1903.23 3811.02 1903.23 3811.02 1930.73ZM3801.85 1894.06 3801.85 1866.56 3811.02 1866.56 3811.02 1894.06ZM3801.85 1857.4 3801.85 1829.9 3811.02 1829.9 3811.02 1857.4ZM3801.85 1820.73 3801.85 1810.5 3806.43 1815.08 3789.16 1815.08 3789.16 1805.92 3811.02 1805.92 3811.02 1820.73ZM3780 1815.08 3752.5 1815.08 3752.5 1805.92 3780 1805.92ZM3743.33 1815.08 3715.83 1815.08 3715.83 1805.92 3743.33 1805.92ZM3706.66 1815.08 3679.16 1815.08 3679.16 1805.92 3706.66 1805.92ZM3670 1815.08 3642.5 1815.08 3642.5 1805.92 3670 1805.92ZM3633.33 1815.08 3605.83 1815.08 3605.83 1805.92 3633.33 1805.92ZM3596.66 1815.08 3569.16 1815.08 3569.16 1805.92 3596.66 1805.92ZM3560 1815.08 3532.5 1815.08 3532.5 1805.92 3560 1805.92ZM3523.33 1815.08 3495.83 1815.08 3495.83 1805.92 3523.33 1805.92ZM3486.66 1815.08 3465.75 1815.08 3465.75 1805.92 3486.66 1805.92ZM3470.33 1833.42 3424.5 1810.5 3470.33 1787.58Z" fill="#70AD47"/><path d="M5641.75 2135.1 5669.25 2135.1 5669.25 2144.27 5641.75 2144.27ZM5678.42 2135.1 5705.92 2135.1 5705.92 2144.27 5678.42 2144.27ZM5715.09 2135.1 5742.59 2135.1 5742.59 2144.27 5715.09 2144.27ZM5751.75 2135.1 5779.25 2135.1 5779.25 2144.27 5751.75 2144.27ZM5788.42 2135.1 5815.92 2135.1 5815.92 2144.27 5788.42 2144.27ZM5825.09 2135.1 5852.59 2135.1 5852.59 2144.27 5825.09 2144.27ZM5861.75 2135.1 5889.25 2135.1 5889.25 2144.27 5861.75 2144.27ZM5898.42 2135.1 5925.92 2135.1 5925.92 2144.27 5898.42 2144.27ZM5935.09 2135.1 5962.59 2135.1 5962.59 2144.27 5935.09 2144.27ZM5960.3 2132.81 5960.3 2105.31 5969.46 2105.31 5969.46 2132.81ZM5960.3 2096.14 5960.3 2068.64 5969.46 2068.64 5969.46 2096.14ZM5960.3 2059.48 5960.3 2031.98 5969.46 2031.98 5969.46 2059.48ZM5960.3 2022.81 5960.3 1995.31 5969.46 1995.31 5969.46 2022.81ZM5960.3 1986.14 5960.3 1958.64 5969.46 1958.64 5969.46 1986.14ZM5960.3 1949.48 5960.3 1921.98 5969.46 1921.98 5969.46 1949.48ZM5960.3 1912.81 5960.3 1885.31 5969.46 1885.31 5969.46 1912.81ZM5960.3 1876.14 5960.3 1848.64 5969.46 1848.64 5969.46 1876.14ZM5960.3 1839.48 5960.3 1811.98 5969.46 1811.98 5969.46 1839.48ZM5960.3 1802.81 5960.3 1775.31 5969.46 1775.31 5969.46 1802.81ZM5960.3 1766.14 5960.3 1738.64 5969.46 1738.64 5969.46 1766.14ZM5960.3 1729.48 5960.3 1701.98 5969.46 1701.98 5969.46 1729.48ZM5960.3 1692.81 5960.3 1665.31 5969.46 1665.31 5969.46 1692.81ZM5960.3 1656.14 5960.3 1628.64 5969.46 1628.64 5969.46 1656.14ZM5960.3 1619.48 5960.3 1591.98 5969.46 1591.98 5969.46 1619.48ZM5960.3 1582.81 5960.3 1555.31 5969.46 1555.31 5969.46 1582.81ZM5960.3 1546.14 5960.3 1518.64 5969.46 1518.64 5969.46 1546.14ZM5960.3 1509.48 5960.3 1481.98 5969.46 1481.98 5969.46 1509.48ZM5960.3 1472.81 5960.3 1445.31 5969.46 1445.31 5969.46 1472.81ZM5960.3 1436.14 5960.3 1408.64 5969.46 1408.64 5969.46 1436.14ZM5960.3 1399.48 5960.3 1371.98 5969.46 1371.98 5969.46 1399.48ZM5960.3 1362.81 5960.3 1335.31 5969.46 1335.31 5969.46 1362.81ZM5960.3 1326.14 5960.3 1298.64 5969.46 1298.64 5969.46 1326.14ZM5960.3 1289.48 5960.3 1261.98 5969.46 1261.98 5969.46 1289.48ZM5960.3 1252.81 5960.3 1225.31 5969.46 1225.31 5969.46 1252.81ZM5960.3 1216.14 5960.3 1188.64 5969.46 1188.64 5969.46 1216.14ZM5960.3 1179.48 5960.3 1151.98 5969.46 1151.98 5969.46 1179.48ZM5960.3 1142.81 5960.3 1115.31 5969.46 1115.31 5969.46 1142.81ZM5960.3 1106.14 5960.3 1094.5 5964.88 1099.08 5949.02 1099.08 5949.02 1089.92 5969.46 1089.92 5969.46 1106.14ZM5939.85 1099.08 5912.35 1099.08 5912.35 1089.92 5939.85 1089.92ZM5903.19 1099.08 5875.69 1099.08 5875.69 1089.92 5903.19 1089.92ZM5866.52 1099.08 5839.02 1099.08 5839.02 1089.92 5866.52 1089.92ZM5829.85 1099.08 5802.35 1099.08 5802.35 1089.92 5829.85 1089.92ZM5793.19 1099.08 5765.69 1099.08 5765.69 1089.92 5793.19 1089.92ZM5756.52 1099.08 5729.02 1099.08 5729.02 1089.92 5756.52 1089.92ZM5719.85 1099.08 5692.35 1099.08 5692.35 1089.92 5719.85 1089.92ZM5683.19 1099.08 5655.69 1099.08 5655.69 1089.92 5683.19 1089.92ZM5646.52 1099.08 5619.02 1099.08 5619.02 1089.92 5646.52 1089.92ZM5609.85 1099.08 5582.35 1099.08 5582.35 1089.92 5609.85 1089.92ZM5573.19 1099.08 5545.69 1099.08 5545.69 1089.92 5573.19 1089.92ZM5536.52 1099.08 5509.02 1099.08 5509.02 1089.92 5536.52 1089.92ZM5499.85 1099.08 5472.35 1099.08 5472.35 1089.92 5499.85 1089.92ZM5463.19 1099.08 5435.69 1099.08 5435.69 1089.92 5463.19 1089.92ZM5426.52 1099.08 5399.02 1099.08 5399.02 1089.92 5426.52 1089.92ZM5389.85 1099.08 5362.35 1099.08 5362.35 1089.92 5389.85 1089.92ZM5353.19 1099.08 5325.69 1099.08 5325.69 1089.92 5353.19 1089.92ZM5316.52 1099.08 5289.02 1099.08 5289.02 1089.92 5316.52 1089.92ZM5279.85 1099.08 5252.35 1099.08 5252.35 1089.92 5279.85 1089.92ZM5243.19 1099.08 5215.69 1099.08 5215.69 1089.92 5243.19 1089.92ZM5206.52 1099.08 5201.75 1099.08 5201.75 1089.92 5206.52 1089.92ZM5206.33 1117.42 5160.5 1094.5 5206.33 1071.58Z" fill="#70AD47"/><path d="M4345.92 1733.45 4345.92 1705.95 4355.08 1705.95 4355.08 1733.45ZM4345.92 1696.79 4345.92 1669.29 4355.08 1669.29 4355.08 1696.79ZM4345.92 1660.12 4345.92 1632.62 4355.08 1632.62 4355.08 1660.12ZM4345.92 1623.45 4345.92 1595.95 4355.08 1595.95 4355.08 1623.45ZM4345.92 1586.79 4345.92 1559.29 4355.08 1559.29 4355.08 1586.79ZM4345.92 1550.12 4345.92 1522.62 4355.08 1522.62 4355.08 1550.12ZM4345.92 1513.45 4345.92 1485.95 4355.08 1485.95 4355.08 1513.45ZM4345.92 1476.79 4345.92 1449.29 4355.08 1449.29 4355.08 1476.79ZM4345.92 1440.12 4345.92 1412.62 4355.08 1412.62 4355.08 1440.12ZM4345.92 1403.45 4345.92 1375.95 4355.08 1375.95 4355.08 1403.45ZM4345.92 1366.79 4345.92 1339.29 4355.08 1339.29 4355.08 1366.79ZM4345.92 1330.12 4345.92 1302.62 4355.08 1302.62 4355.08 1330.12ZM4345.92 1293.45 4345.92 1265.95 4355.08 1265.95 4355.08 1293.45ZM4345.92 1256.79 4345.92 1229.29 4355.08 1229.29 4355.08 1256.79ZM4345.92 1220.12 4345.92 1192.62 4355.08 1192.62 4355.08 1220.12ZM4345.92 1183.45 4345.92 1155.95 4355.08 1155.95 4355.08 1183.45ZM4345.92 1146.79 4345.92 1119.29 4355.08 1119.29 4355.08 1146.79ZM4345.92 1110.12 4345.92 1089.92 4362.38 1089.92 4362.38 1099.08 4350.5 1099.08 4355.08 1094.5 4355.08 1110.12ZM4371.55 1089.92 4399.05 1089.92 4399.05 1099.08 4371.55 1099.08ZM4408.21 1089.92 4435.71 1089.92 4435.71 1099.08 4408.21 1099.08ZM4444.88 1089.92 4472.38 1089.92 4472.38 1099.08 4444.88 1099.08ZM4481.55 1089.92 4509.05 1089.92 4509.05 1099.08 4481.55 1099.08ZM4518.21 1089.92 4545.71 1089.92 4545.71 1099.08 4518.21 1099.08ZM4554.88 1089.92 4582.38 1089.92 4582.38 1099.08 4554.88 1099.08ZM4591.55 1089.92 4619.05 1089.92 4619.05 1099.08 4591.55 1099.08ZM4618.42 1071.58 4664.25 1094.5 4618.42 1117.42Z" fill="#70AD47"/><path d="M0-4.58333 27.5-4.58333 27.5 4.58333 0 4.58333ZM36.6667-4.58333 64.1667-4.58333 64.1667 4.58333 36.6667 4.58333ZM73.3333-4.58333 100.833-4.58333 100.833 4.58333 73.3333 4.58333ZM110-4.58333 137.5-4.58333 137.5 4.58333 110 4.58333ZM146.667-4.58333 174.167-4.58333 174.167 4.58333 146.667 4.58333ZM183.333-4.58333 210.833-4.58333 210.833 4.58333 183.333 4.58333ZM220-4.58333 247.5-4.58333 247.5 4.58333 220 4.58333ZM256.667-4.58333 284.167-4.58333 284.167 4.58333 256.667 4.58333ZM293.333-4.58333 320.833-4.58333 320.833 4.58333 293.333 4.58333ZM330-4.58333 357.5-4.58333 357.5 4.58333 330 4.58333ZM366.667-4.58333 394.167-4.58333 394.167 4.58333 366.667 4.58333ZM403.333-4.58333 430.833-4.58333 430.833 4.58333 403.333 4.58333ZM440-4.58333 467.5-4.58333 467.5 4.58333 440 4.58333ZM476.667-4.58333 504.167-4.58333 504.167 4.58333 476.667 4.58333ZM513.333-4.58333 540.833-4.58333 540.833 4.58333 513.333 4.58333ZM550-4.58333 577.5-4.58333 577.5 4.58333 550 4.58333ZM586.667-4.58333 614.167-4.58333 614.167 4.58333 586.667 4.58333ZM623.333-4.58333 641.361-4.58333 641.361 14.0553 632.195 14.0553 632.195 0 636.778 4.58333 623.333 4.58333ZM641.361 23.222 641.361 50.722 632.195 50.722 632.195 23.222ZM641.361 59.8886 641.361 87.3886 632.195 87.3886 632.195 59.8886ZM641.361 96.5553 641.361 124.055 632.195 124.055 632.195 96.5553ZM641.361 133.222 641.361 160.722 632.195 160.722 632.195 133.222ZM641.361 169.889 641.361 197.389 632.195 197.389 632.195 169.889ZM641.361 206.555 641.361 234.055 632.195 234.055 632.195 206.555ZM641.361 243.222 641.361 270.722 632.195 270.722 632.195 243.222ZM641.361 279.889 641.361 307.389 632.195 307.389 632.195 279.889ZM641.361 316.555 641.361 344.055 632.195 344.055 632.195 316.555ZM641.361 353.222 641.361 380.722 632.195 380.722 632.195 353.222ZM641.361 389.889 641.361 417.389 632.195 417.389 632.195 389.889ZM641.361 426.555 641.361 454.055 632.195 454.055 632.195 426.555ZM641.361 463.222 641.361 490.722 632.195 490.722 632.195 463.222ZM641.361 499.889 641.361 527.389 632.195 527.389 632.195 499.889ZM641.361 536.555 641.361 564.055 632.195 564.055 632.195 536.555ZM641.361 573.222 641.361 600.722 632.195 600.722 632.195 573.222ZM641.361 609.889 641.361 637.389 632.195 637.389 632.195 609.889ZM641.361 646.555 641.361 674.055 632.195 674.055 632.195 646.555ZM641.361 683.222 641.361 710.722 632.195 710.722 632.195 683.222ZM641.361 719.889 641.361 747.389 632.195 747.389 632.195 719.889ZM641.361 756.555 641.361 784.055 632.195 784.055 632.195 756.555ZM641.361 793.222 641.361 820.722 632.195 820.722 632.195 793.222ZM641.361 829.889 641.361 857.389 632.195 857.389 632.195 829.889ZM641.361 866.555 641.361 894.055 632.195 894.055 632.195 866.555ZM641.361 903.222 641.361 930.722 632.195 930.722 632.195 903.222ZM641.361 939.889 641.361 967.389 632.195 967.389 632.195 939.889ZM641.361 976.555 641.361 1004.06 632.195 1004.06 632.195 976.555ZM641.361 1013.22 641.361 1040.72 632.195 1040.72 632.195 1013.22ZM641.361 1049.89 641.361 1077.39 632.195 1077.39 632.195 1049.89ZM641.361 1086.56 641.361 1114.06 632.195 1114.06 632.195 1086.56ZM641.361 1123.22 641.361 1150.72 632.195 1150.72 632.195 1123.22ZM641.361 1159.89 641.361 1187.39 632.195 1187.39 632.195 1159.89ZM641.361 1196.56 641.361 1224.06 632.195 1224.06 632.195 1196.56ZM641.361 1233.22 641.361 1252.81 632.195 1252.81 632.195 1233.22ZM659.695 1248.23 636.778 1294.06 613.861 1248.23Z" fill="#70AD47" transform="matrix(-1.83697e-16 -1 -1 1.83697e-16 6454.56 1731.28)"/><path d="M3193.92 1736.75 3193.92 1352.83 4220.68 1352.83 4216.1 1357.42 4216.1 830.75 4225.27 830.75 4225.27 1362 3198.5 1362 3203.08 1357.42 3203.08 1736.75ZM4197.77 835.334 4220.68 789.5 4243.6 835.334Z" fill="#70AD47"/><path d="M0-4.58333 310.015-4.58333 310.015 234.536 300.849 234.536 300.849 0 305.432 4.58333 0 4.58333ZM328.349 229.952 305.432 275.786 282.515 229.952Z" fill="#70AD47" transform="matrix(-1.83697e-16 -1 -1 1.83697e-16 4986.29 1020.93)"/><path d="M0-4.58333 310.414-4.58333 310.414 1574.15 301.248 1574.15 301.248 0 305.831 4.58333 0 4.58333ZM328.748 1569.56 305.831 1615.4 282.914 1569.56Z" fill="#70AD47" transform="matrix(-1.83697e-16 -1 -1 1.83697e-16 4219.9 641.331)"/><path d="M130.917 645.006 130.917 330.917 1821.59 330.917 1821.59 340.083 135.5 340.083 140.083 335.5 140.083 645.006ZM1817 312.583 1862.84 335.5 1817 358.417Z" fill="#70AD47"/><path d="M0-4.58333 1050.24-4.58333 1050.24 91.2015 1041.08 91.2015 1041.08 0 1045.66 4.58333 0 4.58333ZM1068.58 86.6181 1045.66 132.451 1022.74 86.6181Z" fill="#70AD47" transform="matrix(-1.83697e-16 -1 -1 1.83697e-16 2736.95 1381.16)"/><path d="M0-4.58333 27.5-4.58333 27.5 4.58333 0 4.58333ZM36.6667-4.58333 64.1667-4.58333 64.1667 4.58333 36.6667 4.58333ZM73.3333-4.58333 100.833-4.58333 100.833 4.58333 73.3333 4.58333ZM110-4.58333 133.449-4.58333 133.449 8.63434 124.282 8.63434 124.282 0 128.866 4.58333 110 4.58333ZM133.449 17.801 133.449 45.301 124.282 45.301 124.282 17.801ZM133.449 54.4677 133.449 81.9677 124.282 81.9677 124.282 54.4677ZM133.449 91.1343 133.449 118.634 124.282 118.634 124.282 91.1343ZM133.449 127.801 133.449 155.301 124.282 155.301 124.282 127.801ZM133.449 164.468 133.449 191.968 124.282 191.968 124.282 164.468ZM133.449 201.134 133.449 228.634 124.282 228.634 124.282 201.134ZM133.449 237.801 133.449 265.301 124.282 265.301 124.282 237.801ZM133.449 274.468 133.449 301.968 124.282 301.968 124.282 274.468ZM133.449 311.134 133.449 338.634 124.282 338.634 124.282 311.134ZM133.449 347.801 133.449 375.301 124.282 375.301 124.282 347.801ZM133.449 384.468 133.449 411.968 124.282 411.968 124.282 384.468ZM133.449 421.134 133.449 448.634 124.282 448.634 124.282 421.134ZM133.449 457.801 133.449 485.301 124.282 485.301 124.282 457.801ZM133.449 494.468 133.449 521.968 124.282 521.968 124.282 494.468ZM133.449 531.134 133.449 558.634 124.282 558.634 124.282 531.134ZM133.449 567.801 133.449 595.301 124.282 595.301 124.282 567.801ZM133.449 604.468 133.449 631.968 124.282 631.968 124.282 604.468ZM133.449 641.134 133.449 668.634 124.282 668.634 124.282 641.134ZM133.449 677.801 133.449 705.301 124.282 705.301 124.282 677.801ZM133.449 714.468 133.449 741.968 124.282 741.968 124.282 714.468ZM133.449 751.134 133.449 778.634 124.282 778.634 124.282 751.134ZM133.449 787.801 133.449 815.301 124.282 815.301 124.282 787.801ZM133.449 824.468 133.449 851.968 124.282 851.968 124.282 824.468ZM133.449 861.134 133.449 888.634 124.282 888.634 124.282 861.134ZM133.449 897.801 133.449 925.301 124.282 925.301 124.282 897.801ZM133.449 934.468 133.449 961.968 124.282 961.968 124.282 934.468ZM133.449 971.134 133.449 998.634 124.282 998.634 124.282 971.134ZM133.449 1007.8 133.449 1035.3 124.282 1035.3 124.282 1007.8ZM133.449 1044.47 133.449 1071.97 124.282 1071.97 124.282 1044.47ZM133.449 1081.13 133.449 1108.63 124.282 1108.63 124.282 1081.13ZM133.449 1117.8 133.449 1145.3 124.282 1145.3 124.282 1117.8ZM133.449 1154.47 133.449 1181.97 124.282 1181.97 124.282 1154.47ZM133.449 1191.13 133.449 1218.63 124.282 1218.63 124.282 1191.13ZM133.449 1227.8 133.449 1255.3 124.282 1255.3 124.282 1227.8ZM133.449 1264.47 133.449 1291.97 124.282 1291.97 124.282 1264.47ZM133.449 1301.13 133.449 1328.63 124.282 1328.63 124.282 1301.13ZM131.355 1330.73 158.855 1330.73 158.855 1339.89 131.355 1339.89ZM168.022 1330.73 195.522 1330.73 195.522 1339.89 168.022 1339.89ZM204.688 1330.73 232.188 1330.73 232.188 1339.89 204.688 1339.89ZM241.355 1330.73 268.855 1330.73 268.855 1339.89 241.355 1339.89ZM278.022 1330.73 305.522 1330.73 305.522 1339.89 278.022 1339.89ZM314.688 1330.73 342.188 1330.73 342.188 1339.89 314.688 1339.89ZM351.355 1330.73 378.855 1330.73 378.855 1339.89 351.355 1339.89ZM388.022 1330.73 415.522 1330.73 415.522 1339.89 388.022 1339.89ZM424.688 1330.73 452.188 1330.73 452.188 1339.89 424.688 1339.89ZM461.355 1330.73 488.855 1330.73 488.855 1339.89 461.355 1339.89ZM498.022 1330.73 525.522 1330.73 525.522 1339.89 498.022 1339.89ZM534.688 1330.73 562.188 1330.73 562.188 1339.89 534.688 1339.89ZM557.612 1312.39 603.445 1335.31 557.612 1358.23Z" fill="#70AD47" transform="matrix(-1.83697e-16 -1 -1 1.83697e-16 3642.81 1012.95)"/></g></svg>