<svg xmlns="http://www.w3.org/2000/svg" width="3337" height="1210" overflow="hidden"><defs><clipPath id="a"><path d="M386 392h3337v1210H386z"/></clipPath></defs><g clip-path="url(#a)" transform="translate(-386 -392)"><path fill="#fef8f6" d="M386 395h976v1120H386z"/><text font-family="Microsoft YaHei,Microsoft YaHei_MSFontService,sans-serif" font-size="64" font-weight="400" transform="translate(703.762 474)">线程<tspan x="147.24" y="0">A </tspan><tspan x="211.406" y="0">栈帧</tspan></text><path fill="#fef8f6" d="M1566 395h976v1120h-976z"/><text font-family="Microsoft YaHei,Microsoft YaHei_MSFontService,sans-serif" font-size="64" font-weight="400" transform="translate(1989.94 474)">对象</text><path fill="#d74514" d="M1608 691h889v128h-889z"/><text fill="#fff" font-family="Microsoft YaHei,Microsoft YaHei_MSFontService,sans-serif" font-size="64" font-weight="400" transform="translate(1892.42 779)">c<tspan x="32.083" y="0">lass word</tspan></text><path fill="#d74514" d="M1608 860h889v605h-889z"/><text fill="#fff" font-family="Microsoft YaHei,Microsoft YaHei_MSFontService,sans-serif" font-size="64" font-weight="400" transform="translate(1924.21 1109)">实例数据<tspan x="0" y="154">对齐</tspan><tspan x="128.333" y="154">填充</tspan></text><path fill="#f8ccb9" d="M431 1008h886v457H431z"/><path fill="#d74514" d="M473 1297h802v129H473z"/><text fill="#fff" font-family="Microsoft YaHei,Microsoft YaHei_MSFontService,sans-serif" font-size="64" font-weight="400" transform="translate(745.523 1385)">对象引用</text><path fill="#d74514" d="M1608 522h889v129h-889z"/><text fill="#fff" font-family="Microsoft YaHei,Microsoft YaHei_MSFontService,sans-serif" font-size="64" font-weight="400" transform="translate(1775.83 610)">ptr_to_monitor<tspan x="477.812" y="0">10</tspan><tspan x="-998.446" y="482" fill="#000">锁记录</tspan></text><path d="M2497.5 584.062h128.31v371.712l-3.43-3.437H2706v6.875h-87.06V587.5l3.44 3.437H2497.5Zm203.92 348.796 45.83 22.916-45.83 22.917Z"/><path fill="#d74514" d="M473 1136h798v129H473z"/><text fill="#fff" font-family="Microsoft YaHei,Microsoft YaHei_MSFontService,sans-serif" font-size="64" font-weight="400" transform="translate(582.861 1224)">hashcode<tspan x="313.958" y="0">age 0 01</tspan></text><path d="M1275.5 1365.348h210.919V955.5l-3.437 3.437h42.479v-6.875h-45.917v409.848l3.438-3.437H1275.5Zm245.377-386.932 45.834-22.916-45.834-22.917Z"/><path fill="#fef8f6" d="M2747 395h976v1120h-976z"/><text font-family="Microsoft YaHei,Microsoft YaHei_MSFontService,sans-serif" font-size="64" font-weight="400" transform="translate(3109.97 474)">Monitor</text><path fill="#f8ccb9" d="M2790 520h889v367h-889z"/><text font-family="Microsoft YaHei,Microsoft YaHei_MSFontService,sans-serif" font-size="64" font-weight="400" transform="translate(3114.55 727)">WaitSet</text><path fill="#f8ccb9" d="M2790 927h889v368h-889zm0 408h889v129h-889z"/><text font-family="Microsoft YaHei,Microsoft YaHei_MSFontService,sans-serif" font-size="64" font-weight="400" transform="translate(3132.89 1423)">Owner<tspan x="-26.068" y="-417">EntrySet</tspan></text><path fill="#d74514" d="M2836 1122h798v129h-798z"/><text fill="#fff" font-family="Microsoft YaHei,Microsoft YaHei_MSFontService,sans-serif" font-size="64" font-weight="400" transform="translate(3140.91 1210)">线程<tspan x="147.24" y="0">B</tspan></text><path d="M3238.88 1464.5v136.73H871.062v-44.68h6.876v41.25l-3.438-3.44h2360.95l-3.44 3.44v-133.3Zm-2387.297 96.63 22.917-45.83 22.917 45.83Z"/></g></svg>