<svg width="2157" height="1123" xmlns="http://www.w3.org/2000/svg" xmlns:xlink="http://www.w3.org/1999/xlink" overflow="hidden"><defs><clipPath id="clip0"><rect x="1566" y="392" width="2157" height="1123"/></clipPath></defs><g clip-path="url(#clip0)" transform="translate(-1566 -392)"><rect x="1566" y="395" width="976" height="1120" fill="#FEF8F6"/><text font-family="Microsoft YaHei,Microsoft YaHei_MSFontService,sans-serif" font-weight="400" font-size="64" transform="matrix(1 0 0 1 1989.94 474)">对象</text><rect x="1608" y="691" width="889" height="128" fill="#D74514"/><text fill="#FFFFFF" font-family="Microsoft YaHei,Microsoft YaHei_MSFontService,sans-serif" font-weight="400" font-size="64" transform="matrix(1 0 0 1 1892.42 779)">c<tspan font-size="64" x="32.0833" y="0">lass word</tspan></text><rect x="1608" y="860" width="889" height="605" fill="#D74514"/><text fill="#FFFFFF" font-family="Microsoft YaHei,Microsoft YaHei_MSFontService,sans-serif" font-weight="400" font-size="64" transform="matrix(1 0 0 1 1924.21 1109)">实例数据<tspan font-size="64" x="0" y="154">对齐</tspan><tspan font-size="64" x="128.333" y="154">填充</tspan></text><rect x="1608" y="522" width="889" height="129" fill="#D74514"/><text fill="#FFFFFF" font-family="Microsoft YaHei,Microsoft YaHei_MSFontService,sans-serif" font-weight="400" font-size="64" transform="matrix(1 0 0 1 1775.83 610)">p<tspan font-size="64" x="41.25" y="0">tr_to_monitor</tspan><tspan font-size="64" x="477.812" y="0">10</tspan></text><path d="M2497.5 584.062 2663.62 584.062 2663.62 955.774 2660.19 952.337 2706 952.337 2706 959.212 2656.75 959.212 2656.75 587.5 2660.19 590.937 2497.5 590.937ZM2701.42 932.858 2747.25 955.774 2701.42 978.691Z"/><rect x="2747" y="395" width="976" height="1120" fill="#FEF8F6"/><text font-family="Microsoft YaHei,Microsoft YaHei_MSFontService,sans-serif" font-weight="400" font-size="64" transform="matrix(1 0 0 1 3109.97 474)">Monitor</text><rect x="2790" y="520" width="889" height="213" fill="#F8CCB9"/><text font-family="Microsoft YaHei,Microsoft YaHei_MSFontService,sans-serif" font-weight="400" font-size="64" transform="matrix(1 0 0 1 3114.55 650)">WaitSet</text><rect x="2790" y="790" width="889" height="213" fill="#F8CCB9"/><text font-family="Microsoft YaHei,Microsoft YaHei_MSFontService,sans-serif" font-weight="400" font-size="64" transform="matrix(1 0 0 1 3106.82 920)">EntrySet</text><rect x="2790" y="1060" width="889" height="404" fill="#F8CCB9"/><text font-family="Microsoft YaHei,Microsoft YaHei_MSFontService,sans-serif" font-weight="400" font-size="64" transform="matrix(1 0 0 1 3132.89 1147)">Owner</text><rect x="2836" y="1244" width="798" height="129" fill="#D74514"/><text fill="#FFFFFF" font-family="Microsoft YaHei,Microsoft YaHei_MSFontService,sans-serif" font-weight="400" font-size="64" transform="matrix(1 0 0 1 3138.33 1332)">线程<tspan font-size="64" x="147.24" y="0">A</tspan></text><path d="M2835.96 1313.05 2613.6 1313.05 2613.6 955.5 2617.04 958.938 2583.75 958.938 2583.75 952.063 2620.48 952.063 2620.48 1309.61 2617.04 1306.17 2835.96 1306.17ZM2588.33 978.417 2542.5 955.5 2588.33 932.583Z"/></g></svg>