<svg width="3337" height="1210" xmlns="http://www.w3.org/2000/svg" xmlns:xlink="http://www.w3.org/1999/xlink" overflow="hidden"><defs><clipPath id="clip0"><rect x="386" y="392" width="3337" height="1210"/></clipPath></defs><g clip-path="url(#clip0)" transform="translate(-386 -392)"><rect x="386" y="395" width="976" height="1120" fill="#FEF8F6"/><text font-family="Microsoft YaHei,Microsoft YaHei_MSFontService,sans-serif" font-weight="400" font-size="64" transform="matrix(1 0 0 1 703.762 474)">线程<tspan font-size="64" x="147.24" y="0">A </tspan><tspan font-size="64" x="211.406" y="0">栈帧</tspan></text><rect x="1566" y="395" width="976" height="1120" fill="#FEF8F6"/><text font-family="Microsoft YaHei,Microsoft YaHei_MSFontService,sans-serif" font-weight="400" font-size="64" transform="matrix(1 0 0 1 1989.94 474)">对象</text><rect x="1608" y="691" width="889" height="128" fill="#D74514"/><text fill="#FFFFFF" font-family="Microsoft YaHei,Microsoft YaHei_MSFontService,sans-serif" font-weight="400" font-size="64" transform="matrix(1 0 0 1 1892.42 779)">c<tspan font-size="64" x="32.0833" y="0">lass word</tspan></text><rect x="1608" y="860" width="889" height="605" fill="#D74514"/><text fill="#FFFFFF" font-family="Microsoft YaHei,Microsoft YaHei_MSFontService,sans-serif" font-weight="400" font-size="64" transform="matrix(1 0 0 1 1924.21 1109)">实例数据<tspan font-size="64" x="0" y="154">对齐</tspan><tspan font-size="64" x="128.333" y="154">填充</tspan></text><rect x="431" y="1008" width="886" height="457" fill="#F8CCB9"/><rect x="473" y="1297" width="802" height="129" fill="#D74514"/><text fill="#FFFFFF" font-family="Microsoft YaHei,Microsoft YaHei_MSFontService,sans-serif" font-weight="400" font-size="64" transform="matrix(1 0 0 1 745.523 1385)">对象引用</text><rect x="1608" y="522" width="889" height="129" fill="#D74514"/><text fill="#FFFFFF" font-family="Microsoft YaHei,Microsoft YaHei_MSFontService,sans-serif" font-weight="400" font-size="64" transform="matrix(1 0 0 1 1775.83 610)">ptr_to_monitor<tspan font-size="64" x="477.812" y="0">10</tspan><tspan fill="#000000" font-size="64" x="-998.446" y="482">锁记录</tspan></text><path d="M2497.5 584.062 2625.81 584.062 2625.81 955.774 2622.38 952.337 2706 952.337 2706 959.212 2618.94 959.212 2618.94 587.5 2622.38 590.937 2497.5 590.937ZM2701.42 932.858 2747.25 955.774 2701.42 978.691Z"/><rect x="473" y="1136" width="798" height="129" fill="#D74514"/><text fill="#FFFFFF" font-family="Microsoft YaHei,Microsoft YaHei_MSFontService,sans-serif" font-weight="400" font-size="64" transform="matrix(1 0 0 1 582.861 1224)">hashcode<tspan font-size="64" x="313.958" y="0">age 0 01</tspan></text><path d="M0-3.4375 210.919-3.4375 210.919 406.41 207.482 402.973 249.961 402.973 249.961 409.848 204.044 409.848 204.044 0 207.482 3.4375 0 3.4375ZM245.377 383.494 291.211 406.41 245.377 429.327Z" transform="matrix(1 0 0 -1 1275.5 1361.91)"/><rect x="2747" y="395" width="976" height="1120" fill="#FEF8F6"/><text font-family="Microsoft YaHei,Microsoft YaHei_MSFontService,sans-serif" font-weight="400" font-size="64" transform="matrix(1 0 0 1 3109.97 474)">Monitor</text><rect x="2790" y="520" width="889" height="367" fill="#F8CCB9"/><text font-family="Microsoft YaHei,Microsoft YaHei_MSFontService,sans-serif" font-weight="400" font-size="64" transform="matrix(1 0 0 1 3114.55 727)">WaitSet</text><rect x="2790" y="927" width="889" height="368" fill="#F8CCB9"/><rect x="2790" y="1335" width="889" height="129" fill="#F8CCB9"/><text font-family="Microsoft YaHei,Microsoft YaHei_MSFontService,sans-serif" font-weight="400" font-size="64" transform="matrix(1 0 0 1 3132.89 1423)">Owner<tspan font-size="64" x="-26.0676" y="-417">EntrySet</tspan></text><rect x="2836" y="1122" width="798" height="129" fill="#D74514"/><text fill="#FFFFFF" font-family="Microsoft YaHei,Microsoft YaHei_MSFontService,sans-serif" font-weight="400" font-size="64" transform="matrix(1 0 0 1 3140.91 1210)">线程<tspan font-size="64" x="147.24" y="0">B</tspan></text><path d="M3238.88 1464.5 3238.88 1601.23 871.062 1601.23 871.062 1556.55 877.938 1556.55 877.938 1597.8 874.5 1594.36 3235.45 1594.36 3232.01 1597.8 3232.01 1464.5ZM851.583 1561.13 874.5 1515.3 897.417 1561.13Z"/></g></svg>