<svg xmlns="http://www.w3.org/2000/svg" width="2157" height="1123" overflow="hidden"><defs><clipPath id="a"><path d="M1566 392h2157v1123H1566z"/></clipPath></defs><g clip-path="url(#a)" transform="translate(-1566 -392)"><path fill="#fef8f6" d="M1566 395h976v1120h-976z"/><text font-family="Microsoft YaHei,Microsoft YaHei_MSFontService,sans-serif" font-size="64" font-weight="400" transform="translate(1989.94 474)">对象</text><path fill="#d74514" d="M1608 691h889v128h-889z"/><text fill="#fff" font-family="Microsoft YaHei,Microsoft YaHei_MSFontService,sans-serif" font-size="64" font-weight="400" transform="translate(1892.42 779)">c<tspan x="32.083" y="0">lass word</tspan></text><path fill="#d74514" d="M1608 860h889v605h-889z"/><text fill="#fff" font-family="Microsoft YaHei,Microsoft YaHei_MSFontService,sans-serif" font-size="64" font-weight="400" transform="translate(1924.21 1109)">实例数据<tspan x="0" y="154">对齐</tspan><tspan x="128.333" y="154">填充</tspan></text><path fill="#d74514" d="M1608 522h889v129h-889z"/><text fill="#fff" font-family="Microsoft YaHei,Microsoft YaHei_MSFontService,sans-serif" font-size="64" font-weight="400" transform="translate(1775.83 610)">p<tspan x="41.25" y="0">tr_to_monitor</tspan><tspan x="477.812" y="0">10</tspan></text><path d="M2497.5 584.062h166.12v371.712l-3.43-3.437H2706v6.875h-49.25V587.5l3.44 3.437H2497.5Zm203.92 348.796 45.83 22.916-45.83 22.917Z"/><path fill="#fef8f6" d="M2747 395h976v1120h-976z"/><text font-family="Microsoft YaHei,Microsoft YaHei_MSFontService,sans-serif" font-size="64" font-weight="400" transform="translate(3109.97 474)">Monitor</text><path fill="#f8ccb9" d="M2790 520h889v213h-889z"/><text font-family="Microsoft YaHei,Microsoft YaHei_MSFontService,sans-serif" font-size="64" font-weight="400" transform="translate(3114.55 650)">WaitSet</text><path fill="#f8ccb9" d="M2790 790h889v213h-889z"/><text font-family="Microsoft YaHei,Microsoft YaHei_MSFontService,sans-serif" font-size="64" font-weight="400" transform="translate(3106.82 920)">EntrySet</text><path fill="#f8ccb9" d="M2790 1060h889v404h-889z"/><text font-family="Microsoft YaHei,Microsoft YaHei_MSFontService,sans-serif" font-size="64" font-weight="400" transform="translate(3132.89 1147)">Owner</text><path fill="#d74514" d="M2836 1244h798v129h-798z"/><text fill="#fff" font-family="Microsoft YaHei,Microsoft YaHei_MSFontService,sans-serif" font-size="64" font-weight="400" transform="translate(3138.33 1332)">线程<tspan x="147.24" y="0">A</tspan></text><path d="M2835.96 1313.05H2613.6V955.5l3.44 3.438h-33.29v-6.875h36.73v357.547l-3.44-3.44h218.92Zm-247.63-334.633L2542.5 955.5l45.83-22.917Z"/></g></svg>