<svg width="2156" height="1123" xmlns="http://www.w3.org/2000/svg" xmlns:xlink="http://www.w3.org/1999/xlink" overflow="hidden"><defs><clipPath id="clip0"><rect x="386" y="392" width="2156" height="1123"/></clipPath></defs><g clip-path="url(#clip0)" transform="translate(-386 -392)"><rect x="386" y="395" width="976" height="1120" fill="#FEF8F6"/><text font-family="Microsoft YaHei,Microsoft YaHei_MSFontService,sans-serif" font-weight="400" font-size="64" transform="matrix(1 0 0 1 745.298 474)">线程栈帧</text><rect x="1566" y="395" width="976" height="1120" fill="#FEF8F6"/><text font-family="Microsoft YaHei,Microsoft YaHei_MSFontService,sans-serif" font-weight="400" font-size="64" transform="matrix(1 0 0 1 1989.94 474)">对象</text><rect x="1608" y="523" width="889" height="129" fill="#D74514"/><text fill="#FFFFFF" font-family="Microsoft YaHei,Microsoft YaHei_MSFontService,sans-serif" font-weight="400" font-size="64" transform="matrix(1 0 0 1 1763.22 611)">hashcode<tspan font-size="64" x="313.958" y="0">age 0 01</tspan></text><rect x="1608" y="691" width="889" height="128" fill="#D74514"/><text fill="#FFFFFF" font-family="Microsoft YaHei,Microsoft YaHei_MSFontService,sans-serif" font-weight="400" font-size="64" transform="matrix(1 0 0 1 1892.42 779)">c<tspan font-size="64" x="32.0833" y="0">lass word</tspan></text><rect x="1608" y="860" width="889" height="605" fill="#D74514"/><text fill="#FFFFFF" font-family="Microsoft YaHei,Microsoft YaHei_MSFontService,sans-serif" font-weight="400" font-size="64" transform="matrix(1 0 0 1 1924.21 1109)">实例数据<tspan font-size="64" x="0" y="154">对齐</tspan><tspan font-size="64" x="128.333" y="154">填充</tspan></text><rect x="431" y="1008" width="886" height="457" fill="#F8CCB9"/><rect x="473" y="1297" width="802" height="129" fill="#D74514"/><text fill="#FFFFFF" font-family="Microsoft YaHei,Microsoft YaHei_MSFontService,sans-serif" font-weight="400" font-size="64" transform="matrix(1 0 0 1 745.523 1385)">对象引用</text><rect x="473" y="1131" width="802" height="129" fill="#D74514"/><text fill="#FFFFFF" font-family="Microsoft YaHei,Microsoft YaHei_MSFontService,sans-serif" font-weight="400" font-size="64" transform="matrix(1 0 0 1 543.856 1219)">p<tspan font-size="64" x="41.25" y="0">tr_to_lock_record</tspan><tspan font-size="64" x="584.375" y="0">00</tspan><tspan fill="#000000" font-size="64" x="233.525" y="-127">锁记录</tspan></text><path d="M1275.5 1193.06 1466.31 1193.06 1466.31 1240.9 1358.43 1240.9 1358.43 1234.03 1462.88 1234.03 1459.44 1237.46 1459.44 1196.5 1462.88 1199.94 1275.5 1199.94ZM1363.02 1260.38 1317.18 1237.46 1363.02 1214.55Z"/></g></svg>