<svg xmlns="http://www.w3.org/2000/svg" width="2156" height="1123" overflow="hidden"><defs><clipPath id="a"><path d="M386 392h2156v1123H386z"/></clipPath></defs><g clip-path="url(#a)" transform="translate(-386 -392)"><path fill="#fef8f6" d="M386 395h976v1120H386z"/><text font-family="Microsoft YaHei,Microsoft YaHei_MSFontService,sans-serif" font-size="64" font-weight="400" transform="translate(745.298 474)">线程栈帧</text><path fill="#fef8f6" d="M1566 395h976v1120h-976z"/><text font-family="Microsoft YaHei,Microsoft YaHei_MSFontService,sans-serif" font-size="64" font-weight="400" transform="translate(1989.94 474)">对象</text><path fill="#d74514" d="M1608 691h889v128h-889z"/><text fill="#fff" font-family="Microsoft YaHei,Microsoft YaHei_MSFontService,sans-serif" font-size="64" font-weight="400" transform="translate(1892.42 779)">c<tspan x="32.083" y="0">lass word</tspan></text><path fill="#d74514" d="M1608 860h889v605h-889z"/><text fill="#fff" font-family="Microsoft YaHei,Microsoft YaHei_MSFontService,sans-serif" font-size="64" font-weight="400" transform="translate(1924.21 1109)">实例数据<tspan x="0" y="154">对齐</tspan><tspan x="128.333" y="154">填充</tspan></text><path fill="#f8ccb9" d="M431 1008h886v457H431z"/><path fill="#d74514" d="M473 1297h802v129H473z"/><text fill="#fff" font-family="Microsoft YaHei,Microsoft YaHei_MSFontService,sans-serif" font-size="64" font-weight="400" transform="translate(745.523 1385)">对象引用</text><path fill="#d74514" d="M1608 522h889v129h-889z"/><text fill="#fff" font-family="Microsoft YaHei,Microsoft YaHei_MSFontService,sans-serif" font-size="64" font-weight="400" transform="translate(1722.55 610)">p<tspan x="41.25" y="0">tr_to_lock_record</tspan><tspan x="584.375" y="0">00</tspan><tspan x="-945.164" y="482" fill="#000">锁记录</tspan></text><path d="M1609.29 584.063h-192.302v653.415l3.438-3.437h-61.676v6.875h65.113V587.5l-3.437 3.438h188.864Zm-245.957 630.499-45.833 22.916 45.833 22.917Z"/><path fill="#d74514" d="M473 1136h798v129H473z"/><text fill="#fff" font-family="Microsoft YaHei,Microsoft YaHei_MSFontService,sans-serif" font-size="64" font-weight="400" transform="translate(582.861 1224)">hashcode<tspan x="313.958" y="0">age 0 01</tspan></text><path d="M1275.5 1365.348h210.919V955.5l-3.437 3.437h42.479v-6.875h-45.917v409.848l3.438-3.437H1275.5Zm245.377-386.932 45.834-22.916-45.834-22.917Z"/></g></svg>