<svg xmlns="http://www.w3.org/2000/svg" width="2065" height="1642" overflow="hidden"><defs><clipPath id="a"><path d="M776 34h2065v1642H776z"/></clipPath></defs><g clip-path="url(#a)" transform="translate(-776 -34)"><path fill="#feefe8" d="M776 34h2065v1330H776z"/><path fill="#f8ccb9" d="M833 778h949v533H833z"/><path fill="#f0835b" d="M873 874h876v105H873z"/><text fill="#fff" font-family="Microsoft YaHei,Microsoft YaHei_MSFontService,sans-serif" font-size="64" font-weight="400" transform="translate(1182.53 950)">虚拟机栈</text><path fill="#f0835b" d="M873 1015h876v105H873z"/><text fill="#fff" font-family="Microsoft YaHei,Microsoft YaHei_MSFontService,sans-serif" font-size="64" font-weight="400" transform="translate(1150.44 1091)">本地方法栈</text><path fill="#f0835b" d="M873 1156h876v105H873z"/><text fill="#fff" font-family="Microsoft YaHei,Microsoft YaHei_MSFontService,sans-serif" font-size="64" font-weight="400" transform="translate(1150.44 1232)">程序计数器<tspan x="102.008" y="-379" fill="#000">线程</tspan><tspan x="360.453" y="-1099" fill="#000">JVM</tspan><tspan x="510.557" y="-1099" fill="#000">运行时数据区域</tspan></text><path fill="#feefe8" d="M776 1415h2065v261H776z"/><path fill="#f8ccb9" d="M839 1531h1949v99H839z"/><text font-family="Microsoft YaHei,Microsoft YaHei_MSFontService,sans-serif" font-size="64" font-weight="400" transform="translate(1685.08 1604)">直接内存<tspan x="0" y="-101">本地内存</tspan></text><path fill="#f8ccb9" d="M833 157h1955v569H833z"/><path fill="#f0835b" d="M873 286h241v407H873z"/><text fill="#fff" font-family="Microsoft YaHei,Microsoft YaHei_MSFontService,sans-serif" font-size="64" font-weight="400" transform="translate(961.722 513)">堆</text><path fill="#f0835b" d="M1145 286h1602v407H1145z"/><path fill="#d74514" d="M1181 424h561v221h-561z"/><text fill="#fff" font-family="Microsoft YaHei,Microsoft YaHei_MSFontService,sans-serif" font-size="64" font-weight="400" transform="translate(1205.18 519)">类的结构、字段、<tspan x="86.785" y="77">方法、接口</tspan><tspan x="481.459" y="-141">方法区（</tspan>永久<tspan x="866.459" y="-141">代）</tspan><tspan x="412.164" y="-263" fill="#000">线程共享区域</tspan></text><path fill="#d74514" d="M1773 424h451v98h-451z"/><text fill="#fff" font-family="Microsoft YaHei,Microsoft YaHei_MSFontService,sans-serif" font-size="64" font-weight="400" transform="translate(1805.95 497)">运行时常量池</text><path fill="#d74514" d="M2254 422h451v98h-451z"/><text fill="#fff" font-family="Microsoft YaHei,Microsoft YaHei_MSFontService,sans-serif" font-size="64" font-weight="400" transform="translate(2301.35 495)">JIT <tspan x="99.688" y="0">代码缓存</tspan></text><path fill="#d74514" d="M1773 549h451v98h-451z"/><text fill="#fff" font-family="Microsoft YaHei,Microsoft YaHei_MSFontService,sans-serif" font-size="64" font-weight="400" transform="translate(1870.11 621)">静态变量</text><path fill="#d74514" d="M2254 547h451v98h-451z"/><text fill="#fff" font-family="Microsoft YaHei,Microsoft YaHei_MSFontService,sans-serif" font-size="64" font-weight="400" transform="translate(2287.03 620)">字符串常量池</text><path fill="#f8ccb9" d="M1824 778h964v533h-964z"/><path fill="#f0835b" d="M1865 874h882v105h-882z"/><text fill="#fff" font-family="Microsoft YaHei,Microsoft YaHei_MSFontService,sans-serif" font-size="64" font-weight="400" transform="translate(2177.66 950)">虚拟机栈</text><path fill="#f0835b" d="M1865 1015h882v105h-882z"/><text fill="#fff" font-family="Microsoft YaHei,Microsoft YaHei_MSFontService,sans-serif" font-size="64" font-weight="400" transform="translate(2145.57 1091)">本地方法栈</text><path fill="#f0835b" d="M1865 1156h882v105h-882z"/><text fill="#fff" font-family="Microsoft YaHei,Microsoft YaHei_MSFontService,sans-serif" font-size="64" font-weight="400" transform="translate(2145.57 1232)">程序计数器<tspan x="96.25" y="-379" fill="#000">线程</tspan></text></g></svg>