<svg width="2065" height="1642" xmlns="http://www.w3.org/2000/svg" xmlns:xlink="http://www.w3.org/1999/xlink" overflow="hidden"><defs><clipPath id="clip0"><rect x="776" y="34" width="2065" height="1642"/></clipPath></defs><g clip-path="url(#clip0)" transform="translate(-776 -34)"><rect x="776" y="34" width="2065" height="1330" fill="#FEEFE8"/><rect x="833" y="778" width="949" height="533" fill="#F8CCB9"/><rect x="873" y="874" width="876" height="105" fill="#F0835B"/><text fill="#FFFFFF" font-family="Microsoft YaHei,Microsoft YaHei_MSFontService,sans-serif" font-weight="400" font-size="64" transform="matrix(1 0 0 1 1182.53 950)">虚拟机栈</text><rect x="873" y="1015" width="876" height="105" fill="#F0835B"/><text fill="#FFFFFF" font-family="Microsoft YaHei,Microsoft YaHei_MSFontService,sans-serif" font-weight="400" font-size="64" transform="matrix(1 0 0 1 1150.44 1091)">本地方法栈</text><rect x="873" y="1156" width="876" height="105" fill="#F0835B"/><text fill="#FFFFFF" font-family="Microsoft YaHei,Microsoft YaHei_MSFontService,sans-serif" font-weight="400" font-size="64" transform="matrix(1 0 0 1 1150.44 1232)">程序计数器<tspan fill="#000000" font-size="64" x="102.008" y="-379">线程</tspan><tspan fill="#000000" font-size="64" x="360.453" y="-1099">JVM</tspan><tspan fill="#000000" font-size="64" x="510.557" y="-1099">运行时数据区域</tspan></text><rect x="776" y="1415" width="2065" height="261" fill="#FEEFE8"/><rect x="839" y="1531" width="1949" height="99" fill="#F8CCB9"/><text font-family="Microsoft YaHei,Microsoft YaHei_MSFontService,sans-serif" font-weight="400" font-size="64" transform="matrix(1 0 0 1 1685.08 1604)">直接内存<tspan font-size="64" x="0" y="-101">本地内存</tspan></text><rect x="833" y="157" width="1955" height="569" fill="#F8CCB9"/><rect x="873" y="286" width="241" height="407" fill="#F0835B"/><text fill="#FFFFFF" font-family="Microsoft YaHei,Microsoft YaHei_MSFontService,sans-serif" font-weight="400" font-size="64" transform="matrix(1 0 0 1 961.722 513)">堆</text><rect x="1145" y="286" width="1602" height="407" fill="#F0835B"/><rect x="1181" y="424" width="561" height="221" fill="#D74514"/><text fill="#FFFFFF" font-family="Microsoft YaHei,Microsoft YaHei_MSFontService,sans-serif" font-weight="400" font-size="64" transform="matrix(1 0 0 1 1205.18 519)">类的结构、字段、<tspan font-size="64" x="86.7855" y="77">方法、接口</tspan><tspan font-size="64" x="481.459" y="-141">方法区（</tspan>永久<tspan font-size="64" x="866.459" y="-141">代）</tspan><tspan fill="#000000" font-size="64" x="412.164" y="-263">线程共享区域</tspan></text><rect x="1773" y="424" width="451" height="98.0003" fill="#D74514"/><text fill="#FFFFFF" font-family="Microsoft YaHei,Microsoft YaHei_MSFontService,sans-serif" font-weight="400" font-size="64" transform="matrix(1 0 0 1 1805.95 497)">运行时常量池</text><rect x="2254" y="422" width="451" height="98" fill="#D74514"/><text fill="#FFFFFF" font-family="Microsoft YaHei,Microsoft YaHei_MSFontService,sans-serif" font-weight="400" font-size="64" transform="matrix(1 0 0 1 2301.35 495)">JIT <tspan font-size="64" x="99.6875" y="0">代码缓存</tspan></text><rect x="1773" y="549" width="451" height="97.9999" fill="#D74514"/><text fill="#FFFFFF" font-family="Microsoft YaHei,Microsoft YaHei_MSFontService,sans-serif" font-weight="400" font-size="64" transform="matrix(1 0 0 1 1870.11 621)">静态变量</text><rect x="2254" y="547" width="451" height="98" fill="#D74514"/><text fill="#FFFFFF" font-family="Microsoft YaHei,Microsoft YaHei_MSFontService,sans-serif" font-weight="400" font-size="64" transform="matrix(1 0 0 1 2287.03 620)">字符串常量池</text><rect x="1824" y="778" width="964" height="533" fill="#F8CCB9"/><rect x="1865" y="874" width="882" height="105" fill="#F0835B"/><text fill="#FFFFFF" font-family="Microsoft YaHei,Microsoft YaHei_MSFontService,sans-serif" font-weight="400" font-size="64" transform="matrix(1 0 0 1 2177.66 950)">虚拟机栈</text><rect x="1865" y="1015" width="882" height="105" fill="#F0835B"/><text fill="#FFFFFF" font-family="Microsoft YaHei,Microsoft YaHei_MSFontService,sans-serif" font-weight="400" font-size="64" transform="matrix(1 0 0 1 2145.57 1091)">本地方法栈</text><rect x="1865" y="1156" width="882" height="105" fill="#F0835B"/><text fill="#FFFFFF" font-family="Microsoft YaHei,Microsoft YaHei_MSFontService,sans-serif" font-weight="400" font-size="64" transform="matrix(1 0 0 1 2145.57 1232)">程序计数器<tspan fill="#000000" font-size="64" x="96.25" y="-379">线程</tspan></text></g></svg>