<svg xmlns="http://www.w3.org/2000/svg" width="2065" height="1758" overflow="hidden"><defs><clipPath id="a"><path d="M707 467h2065v1758H707z"/></clipPath></defs><g clip-path="url(#a)" transform="translate(-707 -467)"><path fill="#feefe8" d="M707 467h2065v1139H707z"/><path fill="#f8ccb9" d="M764 1020h949v533H764z"/><path fill="#f0835b" d="M804 1116h875v105H804z"/><text fill="#fff" font-family="Microsoft YaHei,Microsoft YaHei_MSFontService,sans-serif" font-size="64" font-weight="400" transform="translate(1113.38 1192)">虚拟机栈</text><path fill="#f0835b" d="M804 1257h875v105H804z"/><text fill="#fff" font-family="Microsoft YaHei,Microsoft YaHei_MSFontService,sans-serif" font-size="64" font-weight="400" transform="translate(1081.3 1333)">本地方法栈</text><path fill="#f0835b" d="M804 1398h875v105H804z"/><text fill="#fff" font-family="Microsoft YaHei,Microsoft YaHei_MSFontService,sans-serif" font-size="64" font-weight="400" transform="translate(1081.3 1474)">程序计数器<tspan x="102.008" y="-379" fill="#000">线程</tspan><tspan x="360.453" y="-918" fill="#000">JVM</tspan><tspan x="510.557" y="-918" fill="#000">运行时数据区域</tspan></text><path fill="#feefe8" d="M707 1657h2065v568H707z"/><path fill="#f8ccb9" d="M1906 1773h813v399h-813z"/><text font-family="Microsoft YaHei,Microsoft YaHei_MSFontService,sans-serif" font-size="64" font-weight="400" transform="translate(2183.9 1996)">直接内存<tspan x="-567.961" y="-251">本地内存</tspan></text><path fill="#f8ccb9" d="M764 585h1955v383H764z"/><path fill="#f0835b" d="M804 700h1873v235H804z"/><text fill="#fff" font-family="Microsoft YaHei,Microsoft YaHei_MSFontService,sans-serif" font-size="64" font-weight="400" transform="translate(1703.72 774)">堆<tspan x="-182.884" y="-100" fill="#000">线程共享区域</tspan></text><path fill="#d74514" d="M834 798h881v98H834z"/><text fill="#fff" font-family="Microsoft YaHei,Microsoft YaHei_MSFontService,sans-serif" font-size="64" font-weight="400" transform="translate(1146.14 870)">静态变量</text><path fill="#d74514" d="M1755 799h882v98h-882z"/><text fill="#fff" font-family="Microsoft YaHei,Microsoft YaHei_MSFontService,sans-serif" font-size="64" font-weight="400" transform="translate(2003.31 871)">字符串常量池</text><path fill="#f8ccb9" d="M1755 1020h964v533h-964z"/><path fill="#f0835b" d="M1796 1116h881v105h-881z"/><text fill="#fff" font-family="Microsoft YaHei,Microsoft YaHei_MSFontService,sans-serif" font-size="64" font-weight="400" transform="translate(2108.51 1192)">虚拟机栈</text><path fill="#f0835b" d="M1796 1257h881v105h-881z"/><text fill="#fff" font-family="Microsoft YaHei,Microsoft YaHei_MSFontService,sans-serif" font-size="64" font-weight="400" transform="translate(2076.43 1333)">本地方法栈</text><path fill="#f0835b" d="M1796 1398h881v105h-881z"/><text fill="#fff" font-family="Microsoft YaHei,Microsoft YaHei_MSFontService,sans-serif" font-size="64" font-weight="400" transform="translate(2076.43 1474)">程序计数器<tspan x="96.25" y="-379" fill="#000">线程</tspan></text><path fill="#f8ccb9" d="M764 1772h1113v400H764z"/><path fill="#f0835b" d="M800 1910h561v221H800z"/><text fill="#fff" font-family="Microsoft YaHei,Microsoft YaHei_MSFontService,sans-serif" font-size="64" font-weight="400" transform="translate(824.181 2005)">类的结构、字段、<tspan x="86.785" y="77">方法、接口</tspan><tspan x="240.92" y="-141" fill="#000">方法区（</tspan><tspan x="497.587" y="-141" fill="#000">元空间）</tspan></text><path fill="#f0835b" d="M1392 1910h451v98h-451z"/><text fill="#fff" font-family="Microsoft YaHei,Microsoft YaHei_MSFontService,sans-serif" font-size="64" font-weight="400" transform="translate(1424.95 1983)">运行时常量池</text><path fill="#f0835b" d="M1392 2033h451v98h-451z"/><text fill="#fff" font-family="Microsoft YaHei,Microsoft YaHei_MSFontService,sans-serif" font-size="64" font-weight="400" transform="translate(1439.28 2106)">JIT <tspan x="99.688" y="0">代码缓存</tspan></text></g></svg>