<svg width="2065" height="1758" xmlns="http://www.w3.org/2000/svg" xmlns:xlink="http://www.w3.org/1999/xlink" overflow="hidden"><defs><clipPath id="clip0"><rect x="707" y="467" width="2065" height="1758"/></clipPath></defs><g clip-path="url(#clip0)" transform="translate(-707 -467)"><rect x="707" y="467" width="2065" height="1139" fill="#FEEFE8"/><rect x="764" y="1020" width="949" height="533" fill="#F8CCB9"/><rect x="804" y="1116" width="875" height="105" fill="#F0835B"/><text fill="#FFFFFF" font-family="Microsoft YaHei,Microsoft YaHei_MSFontService,sans-serif" font-weight="400" font-size="64" transform="matrix(1 0 0 1 1113.38 1192)">虚拟机栈</text><rect x="804" y="1257" width="875" height="105" fill="#F0835B"/><text fill="#FFFFFF" font-family="Microsoft YaHei,Microsoft YaHei_MSFontService,sans-serif" font-weight="400" font-size="64" transform="matrix(1 0 0 1 1081.3 1333)">本地方法栈</text><rect x="804" y="1398" width="875" height="105" fill="#F0835B"/><text fill="#FFFFFF" font-family="Microsoft YaHei,Microsoft YaHei_MSFontService,sans-serif" font-weight="400" font-size="64" transform="matrix(1 0 0 1 1081.3 1474)">程序计数器<tspan fill="#000000" font-size="64" x="102.008" y="-379">线程</tspan><tspan fill="#000000" font-size="64" x="360.453" y="-918">JVM</tspan><tspan fill="#000000" font-size="64" x="510.557" y="-918">运行时数据区域</tspan></text><rect x="707" y="1657" width="2065" height="568" fill="#FEEFE8"/><rect x="1906" y="1773" width="813" height="399" fill="#F8CCB9"/><text font-family="Microsoft YaHei,Microsoft YaHei_MSFontService,sans-serif" font-weight="400" font-size="64" transform="matrix(1 0 0 1 2183.9 1996)">直接内存<tspan font-size="64" x="-567.961" y="-251">本地内存</tspan></text><rect x="764" y="585" width="1955" height="383" fill="#F8CCB9"/><rect x="804" y="700" width="1873" height="235" fill="#F0835B"/><text fill="#FFFFFF" font-family="Microsoft YaHei,Microsoft YaHei_MSFontService,sans-serif" font-weight="400" font-size="64" transform="matrix(1 0 0 1 1703.72 774)">堆<tspan fill="#000000" font-size="64" x="-182.884" y="-100">线程共享区域</tspan></text><rect x="834" y="798" width="881" height="98.0003" fill="#D74514"/><text fill="#FFFFFF" font-family="Microsoft YaHei,Microsoft YaHei_MSFontService,sans-serif" font-weight="400" font-size="64" transform="matrix(1 0 0 1 1146.14 870)">静态变量</text><rect x="1755" y="799" width="882" height="98" fill="#D74514"/><text fill="#FFFFFF" font-family="Microsoft YaHei,Microsoft YaHei_MSFontService,sans-serif" font-weight="400" font-size="64" transform="matrix(1 0 0 1 2003.31 871)">字符串常量池</text><rect x="1755" y="1020" width="964" height="533" fill="#F8CCB9"/><rect x="1796" y="1116" width="881" height="105" fill="#F0835B"/><text fill="#FFFFFF" font-family="Microsoft YaHei,Microsoft YaHei_MSFontService,sans-serif" font-weight="400" font-size="64" transform="matrix(1 0 0 1 2108.51 1192)">虚拟机栈</text><rect x="1796" y="1257" width="881" height="105" fill="#F0835B"/><text fill="#FFFFFF" font-family="Microsoft YaHei,Microsoft YaHei_MSFontService,sans-serif" font-weight="400" font-size="64" transform="matrix(1 0 0 1 2076.43 1333)">本地方法栈</text><rect x="1796" y="1398" width="881" height="105" fill="#F0835B"/><text fill="#FFFFFF" font-family="Microsoft YaHei,Microsoft YaHei_MSFontService,sans-serif" font-weight="400" font-size="64" transform="matrix(1 0 0 1 2076.43 1474)">程序计数器<tspan fill="#000000" font-size="64" x="96.25" y="-379">线程</tspan></text><rect x="764" y="1772" width="1113" height="400" fill="#F8CCB9"/><rect x="800" y="1910" width="561" height="221" fill="#F0835B"/><text fill="#FFFFFF" font-family="Microsoft YaHei,Microsoft YaHei_MSFontService,sans-serif" font-weight="400" font-size="64" transform="matrix(1 0 0 1 824.181 2005)">类的结构、字段、<tspan font-size="64" x="86.7854" y="77">方法、接口</tspan><tspan fill="#000000" font-size="64" x="240.92" y="-141">方法区（</tspan><tspan fill="#000000" font-size="64" x="497.587" y="-141">元空间）</tspan></text><rect x="1392" y="1910" width="451" height="98" fill="#F0835B"/><text fill="#FFFFFF" font-family="Microsoft YaHei,Microsoft YaHei_MSFontService,sans-serif" font-weight="400" font-size="64" transform="matrix(1 0 0 1 1424.95 1983)">运行时常量池</text><rect x="1392" y="2033" width="451" height="97.9999" fill="#F0835B"/><text fill="#FFFFFF" font-family="Microsoft YaHei,Microsoft YaHei_MSFontService,sans-serif" font-weight="400" font-size="64" transform="matrix(1 0 0 1 1439.28 2106)">JIT <tspan font-size="64" x="99.6875" y="0">代码缓存</tspan></text></g></svg>