<svg xmlns="http://www.w3.org/2000/svg" width="2009" height="688" overflow="hidden"><defs><clipPath id="a"><path d="M1920 285h2009v688H1920z"/></clipPath></defs><g clip-path="url(#a)" transform="translate(-1920 -285)"><path fill="#feefe8" d="M1920 294h2009v484H1920z"/><text font-family="Microsoft YaHei,Microsoft YaHei_MSFontService,sans-serif" font-size="64" font-weight="400" transform="translate(2827.79 367)">堆空间</text><path fill="#f8ccb9" d="M1980 393h1172v327H1980z"/><text font-family="Microsoft YaHei,Microsoft YaHei_MSFontService,sans-serif" font-size="64" font-weight="400" transform="translate(2469.84 482)">年轻代</text><path fill="#f0835b" d="M2893 509h221v159h-221z"/><text fill="#fff" font-family="Microsoft YaHei,Microsoft YaHei_MSFontService,sans-serif" font-size="64" font-weight="400" transform="translate(2927.04 612)">Eden</text><path fill="#f0835b" d="M2026 511h401v159h-401z"/><text fill="#fff" font-family="Microsoft YaHei,Microsoft YaHei_MSFontService,sans-serif" font-size="64" font-weight="400" transform="translate(2146.69 576)">From<tspan x="-74.204" y="77">Survivor</tspan><tspan x="196.213" y="77">0</tspan></text><path fill="#f0835b" d="M2458 512h401v159h-401z"/><text fill="#fff" font-family="Microsoft YaHei,Microsoft YaHei_MSFontService,sans-serif" font-size="64" font-weight="400" transform="translate(2578.86 577)">From<tspan x="-74.204" y="77">Survivor</tspan><tspan x="196.212" y="77">1</tspan></text><path fill="#f8ccb9" d="M3184 393h691v324h-691z"/><text font-family="Microsoft YaHei,Microsoft YaHei_MSFontService,sans-serif" font-size="64" font-weight="400" transform="translate(3438.53 480)">老<tspan x="64.166" y="0">年代</tspan></text><path fill="#f0835b" d="M3242 512h585v159h-585z"/><text fill="#fff" font-family="Microsoft YaHei,Microsoft YaHei_MSFontService,sans-serif" font-size="64" font-weight="400" transform="translate(3407.31 615)">Tenured</text><path fill="#f8ccb9" d="M1920 828h2009v132H1920z"/><text font-family="Microsoft YaHei,Microsoft YaHei_MSFontService,sans-serif" font-size="64" font-weight="400" transform="translate(2266 919)">永久代<tspan x="1294.12" y="0">元空间</tspan></text><path fill="none" stroke="#000" stroke-miterlimit="8" stroke-width="6.875" d="m2924.5 935.285 56.277-76.786"/></g></svg>