<svg width="2009" height="688" xmlns="http://www.w3.org/2000/svg" xmlns:xlink="http://www.w3.org/1999/xlink" overflow="hidden"><defs><clipPath id="clip0"><rect x="1920" y="285" width="2009" height="688"/></clipPath></defs><g clip-path="url(#clip0)" transform="translate(-1920 -285)"><rect x="1920" y="294" width="2009" height="484" fill="#FEEFE8"/><text font-family="Microsoft YaHei,Microsoft YaHei_MSFontService,sans-serif" font-weight="400" font-size="64" transform="matrix(1 0 0 1 2827.79 367)">堆空间</text><rect x="1980" y="393" width="1172" height="327" fill="#F8CCB9"/><text font-family="Microsoft YaHei,Microsoft YaHei_MSFontService,sans-serif" font-weight="400" font-size="64" transform="matrix(1 0 0 1 2469.84 482)">年轻代</text><rect x="2893" y="509" width="221" height="159" fill="#F0835B"/><text fill="#FFFFFF" font-family="Microsoft YaHei,Microsoft YaHei_MSFontService,sans-serif" font-weight="400" font-size="64" transform="matrix(1 0 0 1 2927.04 612)">Eden</text><rect x="2026" y="511" width="401" height="159" fill="#F0835B"/><text fill="#FFFFFF" font-family="Microsoft YaHei,Microsoft YaHei_MSFontService,sans-serif" font-weight="400" font-size="64" transform="matrix(1 0 0 1 2146.69 576)">From<tspan font-size="64" x="-74.2041" y="77">Survivor</tspan><tspan font-size="64" x="196.213" y="77">0</tspan></text><rect x="2458" y="512" width="401" height="159" fill="#F0835B"/><text fill="#FFFFFF" font-family="Microsoft YaHei,Microsoft YaHei_MSFontService,sans-serif" font-weight="400" font-size="64" transform="matrix(1 0 0 1 2578.86 577)">From<tspan font-size="64" x="-74.2041" y="77">Survivor</tspan><tspan font-size="64" x="196.212" y="77">1</tspan></text><rect x="3184" y="393" width="691" height="324" fill="#F8CCB9"/><text font-family="Microsoft YaHei,Microsoft YaHei_MSFontService,sans-serif" font-weight="400" font-size="64" transform="matrix(1 0 0 1 3438.53 480)">老<tspan font-size="64" x="64.1665" y="0">年代</tspan></text><rect x="3242" y="512" width="585" height="159" fill="#F0835B"/><text fill="#FFFFFF" font-family="Microsoft YaHei,Microsoft YaHei_MSFontService,sans-serif" font-weight="400" font-size="64" transform="matrix(1 0 0 1 3407.31 615)">Tenured</text><rect x="1920" y="828" width="2009" height="132" fill="#F8CCB9"/><text font-family="Microsoft YaHei,Microsoft YaHei_MSFontService,sans-serif" font-weight="400" font-size="64" transform="matrix(1 0 0 1 2266 919)">永久代<tspan font-size="64" x="1294.12" y="0">元空间</tspan></text><path d="M0 0 56.2768 76.7856" stroke="#000000" stroke-width="6.875" stroke-miterlimit="8" fill="none" fill-rule="evenodd" transform="matrix(1 0 0 -1 2924.5 935.285)"/></g></svg>