<svg xmlns="http://www.w3.org/2000/svg" width="2223" height="2550" overflow="hidden"><defs><clipPath id="a"><path d="M175 170h2223v2550H175z"/></clipPath></defs><g clip-path="url(#a)" transform="translate(-175 -170)"><path fill="#5d1709" d="M2135.69 619.917H1016.75v9.167h1118.94Zm-1114.35-18.333L975.5 624.5l45.84 22.917ZM1616 697.917h-599.254v9.167H1616Zm-594.67-18.333L975.497 702.5l45.833 22.917Zm58.78 91.333h-63.358v9.167h63.358Zm-58.774-18.334L975.502 775.5l45.834 22.917Z"/><path fill="#d74514" fill-rule="evenodd" d="M274.597 173.053h529.551v239.508H274.597Zm529.551 0H1333.7v239.508H804.148Zm529.552 0h529.55v239.508H1333.7Zm529.55 0h529.55v239.508h-529.55Z"/><path fill="none" stroke="#000" stroke-linejoin="round" stroke-miterlimit="10" stroke-width="4.583" d="M804.148 170.761v244.092M1333.7 170.761v244.092m529.55-244.092v244.092M274.597 170.761v244.092M2392.8 170.761v244.092m-2120.495-241.8H2395.09M272.305 412.561H2395.09"/><text fill="#fff" font-family="DengXian,DengXian_MSFontService,sans-serif" font-size="83" font-weight="700" transform="translate(511.586 320)">A<tspan x="532.416" y="0">B</tspan><tspan x="1061.39" y="0">C</tspan><tspan x="1586.94" y="0">D</tspan></text><path fill="none" stroke="#d74514" stroke-miterlimit="8" stroke-width="13.75" d="M421 586h233v233H421zm0 116h232.692M538 586v232.692"/><path fill="#f8ccb9" d="M742 586h233v233H742z"/><text fill="#d74514" font-family="DengXian,DengXian_MSFontService,sans-serif" font-size="83" font-weight="400" transform="translate(838.429 730)">F</text><path fill="none" stroke="#d74514" stroke-miterlimit="8" stroke-width="13.75" d="M421 919h233v233H421zm0 116h232.692M538 919v232.69M421 1252h233v233H421zm0 117h232.692M538 1252v232.69"/><path fill="#fdefe8" d="M335 1585h406v233H335z"/><path fill="#d74514" fill-rule="evenodd" d="M472.018 1680.45v6.08l-44.013 19.09 44.013 19.09v6.08l-50.092-22.33v-5.68Z"/><text x="421.926" y="1724.5" fill-opacity="0" font-family="Arial,Arial_MSFontService,sans-serif" font-size="50.335">&lt;</text><path fill="#d74514" fill-rule="evenodd" d="M533.893 1680.45v6.08l-44.013 19.09 44.013 19.09v6.08l-50.092-22.33v-5.68Z"/><text x="483.801" y="1724.5" fill-opacity="0" font-family="Arial,Arial_MSFontService,sans-serif" font-size="50.335">&lt;</text><path fill="#d74514" fill-rule="evenodd" d="M595.768 1680.45v6.08l-44.013 19.09 44.013 19.09v6.08l-50.092-22.33v-5.68Z"/><text x="545.676" y="1724.5" fill-opacity="0" font-family="Arial,Arial_MSFontService,sans-serif" font-size="50.335">&lt;</text><path fill="#d74514" fill-rule="evenodd" d="M621.246 1706.97c1.886 0 3.698.15 5.435.44 1.738.28 3.56.75 5.466 1.38l-1.698 7.57h-3.246q-.09-1.665-.522-2.88c-.288-.8-.69-1.46-1.206-1.96-.516-.51-1.171-.89-1.966-1.13-.794-.25-1.737-.38-2.829-.38q-1.758 0-3.187.48-1.43.48-2.443 1.35a6.1 6.1 0 0 0-1.563 2.12c-.368.82-.551 1.72-.551 2.69 0 .74.089 1.41.268 2.03.178.62.486 1.21.923 1.79.437.57 1.037 1.16 1.802 1.75.764.6 1.732 1.26 2.904 1.97 1.43.89 2.656 1.74 3.678 2.53 1.023.8 1.857 1.62 2.502 2.47a9 9 0 0 1 1.415 2.73c.298.96.447 2.04.447 3.23q0 2.595-1.028 4.74a10.7 10.7 0 0 1-2.919 3.69q-1.89 1.545-4.527 2.4c-1.757.56-3.718.85-5.882.85-1.827 0-3.793-.16-5.898-.46-2.105-.31-4.18-.76-6.225-1.36l1.757-8.04h3.158c.059 2.38.695 4.11 1.906 5.18s3.078 1.61 5.599 1.61q1.937 0 3.485-.51c1.033-.33 1.907-.82 2.621-1.46a6.24 6.24 0 0 0 1.639-2.32c.377-.91.565-1.94.565-3.07q0-1.185-.297-2.16-.298-.96-1.043-1.92c-.496-.63-1.166-1.28-2.01-1.93-.844-.66-1.892-1.37-3.143-2.15q-1.876-1.155-3.261-2.31a14 14 0 0 1-2.309-2.38 9.3 9.3 0 0 1-1.385-2.58 8.7 8.7 0 0 1-.461-2.86c0-1.66.327-3.18.983-4.54a10.06 10.06 0 0 1 2.814-3.51c1.222-.99 2.701-1.74 4.438-2.28q2.607-.81 5.794-.81"/><text x="600.396" y="1741.85" fill-opacity="0" font-family="Arial,Arial_MSFontService,sans-serif" font-size="39.852">ğ‘†</text><path fill="none" stroke="#d74514" stroke-miterlimit="8" stroke-width="13.75" d="M421 1919h233v232H421zm0 116h232.692M538 1919v232.69"/><path fill="#5d1709" d="m543.083 819.5.001 59.231h-9.167V819.5Zm18.334 54.647-22.916 45.834-22.917-45.834ZM543.083 1152.5l.001 59.23h-9.167v-59.23Zm18.334 54.65-22.916 45.83-22.917-45.83Zm-27.499 278.35v59.23h9.166v-59.23Zm-18.334 54.647 22.917 45.834 22.917-45.833Zm27.499 278.353.001 59.23h-9.167v-59.23Zm18.334 54.65-22.916 45.83-22.917-45.83ZM742.392 697.917h-46.643v9.167h46.643Zm-42.06-18.334L654.5 702.5l45.833 22.917ZM543.083 413.5l.001 132.152h-9.167V413.5Zm18.334 127.569-22.916 45.833-22.917-45.833Z"/><path fill="#d74514" fill-rule="evenodd" d="M274.597 2475h529.551v239.51H274.597Zm529.551 0H1333.7v239.51H804.148Zm529.552 0h529.55v239.51H1333.7Zm529.55 0h529.55v239.51h-529.55Z"/><path fill="none" stroke="#000" stroke-linejoin="round" stroke-miterlimit="10" stroke-width="4.583" d="M804.148 2472.71v244.09m529.552-244.09v244.09m529.55-244.09v244.09M274.597 2472.71v244.09M2392.8 2472.71v244.09M272.305 2475H2395.09M272.305 2714.51H2395.09"/><text fill="#fff" font-family="DengXian,DengXian_MSFontService,sans-serif" font-size="83" font-weight="700" transform="translate(511.586 2622)">A<tspan x="532.416" y="0">B</tspan><tspan x="1061.39" y="0">C</tspan><tspan x="1586.94" y="0">D</tspan></text><path fill="none" stroke="#5d1709" stroke-miterlimit="8" stroke-width="9.167" d="m538.5 2151.5.001 78.68M1079.5 413.5v1817.47m537-1817.47v1817.47m521-1817.47v1817.47m-1599-.47 550 144.49"/><path fill="#5d1709" d="M1093.08 2375.5v59.23h-9.16v-59.23Zm18.34 54.65-22.92 45.83-22.92-45.83Zm-568.337-54.65.001 59.23h-9.167v-59.23Zm18.334 54.65-22.916 45.83-22.917-45.83Zm1059.663-54.65v59.23h-9.16v-59.23Zm18.34 54.65-22.92 45.83-22.92-45.83Zm502.66-49.65v59.23h-9.16v-59.23Zm18.34 54.65-22.92 45.83-22.92-45.83Z"/><path fill="none" stroke="#5d1709" stroke-miterlimit="8" stroke-width="9.167" d="m1076.5 2230.5 539.42 144.49m-.42-144.49 521.8 144.49m-.98-144.49L538.5 2372.922"/><path fill="none" stroke="#fff" stroke-miterlimit="8" stroke-width="9.167" d="M1070.5 413.5v1817.47m18-1817.47v1817.47m519-1817.47v1817.47m19-1817.47v1817.47"/><path fill="#d74514" fill-rule="evenodd" d="M186.109 1007.66h14.468l4.62 39.31 23.628-39.31h12.766l-.446 1.99c-1.027.21-1.763.46-2.209.73s-.851.67-1.216 1.21c-.364.54-.729 1.39-1.094 2.54-.365 1.14-.831 3.02-1.398 5.61l-6.93 31.45c-.351 1.59-.581 2.86-.689 3.79s-.162 1.77-.162 2.53c0 1.22.304 2.07.912 2.57s1.627.81 3.059.92l-.445 1.98h-16.211l.446-1.98c1.026-.17 1.796-.43 2.31-.79.513-.37.945-.88 1.296-1.52q.528-.975.973-2.37c.297-.94.743-2.74 1.338-5.42l5.39-24.43a167 167 0 0 1 2.593-10.09h-.567q-1.257 2.385-5.674 9.72l-18.44 30.44h-4.417l-3.364-26.06c-.486-3.68-1.027-8.62-1.621-14.83h-.811c-.918 6.05-1.945 11.65-3.08 16.81L187 1051.19c-.567 2.57-.851 4.67-.851 6.32 0 1.22.304 2.07.912 2.57s1.628.81 3.06.92l-.446 1.98h-14.184l.446-1.98c1.026-.17 1.796-.43 2.31-.79.513-.37.945-.88 1.296-1.52q.528-.975.973-2.37c.297-.94.743-2.74 1.338-5.42l6.889-31.2c.27-1.16.486-2.27.649-3.32q.243-1.59.243-3.21c0-1.27-.318-2.15-.953-2.65q-.952-.75-3.019-.87Z"/><text x="175.491" y="1056.07" fill-opacity="0" font-family="Arial,Arial_MSFontService,sans-serif" font-size="55.32">ğ‘€</text><path fill="#d74514" fill-rule="evenodd" d="M253.192 1049.71h1.459l-4.408 19.84c-.278 1.17-.471 2.1-.581 2.8-.109.69-.163 1.32-.163 1.88 0 .75.153 1.3.461 1.63q.462.51 1.385.51.537 0 1.073-.21c.357-.14.739-.36 1.146-.65.407-.3.854-.68 1.341-1.15q.729-.705 1.623-1.68l2.025 1.96a46 46 0 0 1-2.814 2.67 19 19 0 0 1-2.398 1.77c-.755.46-1.494.79-2.219.98q-1.087.3-2.308.3-1.132 0-2.041-.42a4.7 4.7 0 0 1-1.563-1.14 5.2 5.2 0 0 1-1.013-1.74 6.7 6.7 0 0 1-.358-2.24c0-.65.08-1.47.239-2.44s.362-2.03.61-3.17.522-2.34.819-3.59q.447-1.875.879-3.72c.288-1.24.546-2.42.774-3.56.229-1.15.393-2.18.492-3.12.04-.16.059-.31.059-.46v-.4c-.039-.78-.312-1.34-.819-1.7s-1.404-.55-2.695-.59l.357-2.03Zm-1.728-12h5.957l-1.459 6.4h-5.898Z"/><text x="243.839" y="1075.03" fill-opacity="0" font-family="Arial,Arial_MSFontService,sans-serif" font-size="42.652">ğ‘–</text><path fill="#d74514" fill-rule="evenodd" d="M193.374 1342.91h16.211l-.445 1.98c-1.027.22-1.763.46-2.209.73s-.845.68-1.196 1.22-.716 1.38-1.094 2.53q-.567 1.725-1.418 5.61l-2.878 12.93h1.338q1.701 0 3.1-.57c.932-.37 2.019-1.06 3.262-2.06q1.864-1.5 5.938-5.52 4.073-4.005 5.795-6.09c1.148-1.4 1.986-2.6 2.513-3.61s.79-1.94.79-2.78c0-.67-.27-1.22-.811-1.64q-.81-.63-2.31-.75l.446-1.98h17.386l-.445 1.98q-1.622.24-3.668 1.68c-1.365.96-3.452 2.83-6.262 5.62l-15.724 15.32 8.632 20.75q1.338 3.195 2.209 4.62c.581.94 1.276 1.69 2.087 2.24.811.56 1.81.93 2.999 1.12l-.446 1.99h-15.643l.445-1.99c1.459-.14 2.189-.78 2.189-1.95q0-1.095-.446-2.49c-.297-.93-.648-1.9-1.054-2.9l-5.268-12.88c-.622-1.54-1.162-2.62-1.621-3.25q-.69-.93-1.459-1.29c-.514-.25-1.311-.37-2.391-.37h-2.27l-3.364 15.32c-.351 1.62-.581 2.9-.689 3.83a22 22 0 0 0-.162 2.49q0 1.83.912 2.58c.608.5 1.628.8 3.06.91l-.446 1.99h-16.211l.446-1.99c1.027-.16 1.797-.43 2.31-.79.513-.37.946-.87 1.297-1.52q.526-.975.973-2.37c.297-.93.743-2.74 1.337-5.41l6.89-31.21c.594-2.7.891-4.87.891-6.52 0-1.27-.317-2.16-.952-2.66q-.952-.75-3.019-.87Z"/><text x="182.756" y="1391.31" fill-opacity="0" font-family="Arial,Arial_MSFontService,sans-serif" font-size="55.32">ğ¾</text><path fill="#d74514" fill-rule="evenodd" d="M246.008 1384.96h1.459l-4.408 19.83c-.278 1.17-.472 2.11-.581 2.8-.109.7-.164 1.32-.164 1.88 0 .75.154 1.3.462 1.64s.769.5 1.385.5c.357 0 .715-.07 1.072-.2q.537-.21 1.147-.66c.407-.3.854-.68 1.34-1.15q.73-.69 1.624-1.68l2.025 1.97c-1.033 1.05-1.971 1.94-2.815 2.66q-1.266 1.095-2.397 1.77-1.133.69-2.219.99-1.088.3-2.309.3-1.131 0-2.04-.42a4.7 4.7 0 0 1-1.564-1.15c-.437-.48-.774-1.07-1.012-1.74a6.7 6.7 0 0 1-.358-2.23c0-.66.08-1.47.238-2.45.159-.97.363-2.03.611-3.17s.521-2.34.819-3.59q.447-1.875.879-3.72c.288-1.23.546-2.42.774-3.56s.392-2.18.492-3.11c.039-.16.059-.32.059-.47v-.4c-.04-.77-.313-1.34-.819-1.69q-.76-.54-2.695-.6l.357-2.03Zm-1.728-12.01h5.957l-1.459 6.41h-5.898Z"/><text x="236.655" y="1410.27" fill-opacity="0" font-family="Arial,Arial_MSFontService,sans-serif" font-size="42.652">ğ‘–</text><path fill="#5d1709" d="m284.569 1376.153 96.255-1.45-.138-9.165-96.255 1.45Zm91.949 16.95L422 1369.5l-46.173-22.224ZM284.5 1030.92h96.251v9.16H284.5Zm91.668-18.34 45.833 22.92-45.834 22.92Z"/></g></svg>