<svg width="2223" height="2550" xmlns="http://www.w3.org/2000/svg" xmlns:xlink="http://www.w3.org/1999/xlink" overflow="hidden"><defs><clipPath id="clip0"><rect x="175" y="170" width="2223" height="2550"/></clipPath></defs><g clip-path="url(#clip0)" transform="translate(-175 -170)"><path d="M1.42571e-06-4.58333 1118.94-4.58298 1118.94 4.58368-1.42571e-06 4.58333ZM1114.35-22.9163 1160.19 0.000360892 1114.35 22.917Z" fill="#5D1709" transform="matrix(-1 0 0 1 2135.69 624.5)"/><path d="M2.58248e-06-4.58333 599.254-4.583 599.254 4.58367-2.58248e-06 4.58333ZM594.67-22.9163 640.503 0.000360892 594.67 22.917Z" fill="#5D1709" transform="matrix(-1 0 0 1 1616 702.5)"/><path d="M1.58123e-05-4.58333 63.3576-4.58311 63.3575 4.58355-1.58123e-05 4.58333ZM58.7743-22.9165 104.608 0.000360892 58.7741 22.9169Z" fill="#5D1709" transform="matrix(-1 0 0 1 1080.11 775.5)"/><path d="M274.597 173.053 804.148 173.053 804.148 412.561 274.597 412.561Z" fill="#D74514" fill-rule="evenodd"/><path d="M804.148 173.053 1333.7 173.053 1333.7 412.561 804.148 412.561Z" fill="#D74514" fill-rule="evenodd"/><path d="M1333.7 173.053 1863.25 173.053 1863.25 412.561 1333.7 412.561Z" fill="#D74514" fill-rule="evenodd"/><path d="M1863.25 173.053 2392.8 173.053 2392.8 412.561 1863.25 412.561Z" fill="#D74514" fill-rule="evenodd"/><path d="M804.148 170.761 804.148 414.853" stroke="#000000" stroke-width="4.58333" stroke-linejoin="round" stroke-miterlimit="10" fill="none" fill-rule="evenodd"/><path d="M1333.7 170.761 1333.7 414.853" stroke="#000000" stroke-width="4.58333" stroke-linejoin="round" stroke-miterlimit="10" fill="none" fill-rule="evenodd"/><path d="M1863.25 170.761 1863.25 414.853" stroke="#000000" stroke-width="4.58333" stroke-linejoin="round" stroke-miterlimit="10" fill="none" fill-rule="evenodd"/><path d="M274.597 170.761 274.597 414.853" stroke="#000000" stroke-width="4.58333" stroke-linejoin="round" stroke-miterlimit="10" fill="none" fill-rule="evenodd"/><path d="M2392.8 170.761 2392.8 414.853" stroke="#000000" stroke-width="4.58333" stroke-linejoin="round" stroke-miterlimit="10" fill="none" fill-rule="evenodd"/><path d="M272.305 173.053 2395.09 173.053" stroke="#000000" stroke-width="4.58333" stroke-linejoin="round" stroke-miterlimit="10" fill="none" fill-rule="evenodd"/><path d="M272.305 412.561 2395.09 412.561" stroke="#000000" stroke-width="4.58333" stroke-linejoin="round" stroke-miterlimit="10" fill="none" fill-rule="evenodd"/><text fill="#FFFFFF" font-family="DengXian,DengXian_MSFontService,sans-serif" font-weight="700" font-size="83" transform="matrix(1 0 0 1 511.586 320)">A<tspan font-size="83" x="532.416" y="0">B</tspan><tspan font-size="83" x="1061.39" y="0">C</tspan><tspan font-size="83" x="1586.94" y="0">D</tspan></text><rect x="421" y="586" width="233" height="233" stroke="#D74514" stroke-width="13.75" stroke-miterlimit="8" fill="none"/><path d="M421 702 653.692 702" stroke="#D74514" stroke-width="13.75" stroke-miterlimit="8" fill="none" fill-rule="evenodd"/><path d="M538 586 538 818.692" stroke="#D74514" stroke-width="13.75" stroke-miterlimit="8" fill="none" fill-rule="evenodd"/><rect x="742" y="586" width="233" height="233" fill="#F8CCB9"/><text fill="#D74514" font-family="DengXian,DengXian_MSFontService,sans-serif" font-weight="400" font-size="83" transform="matrix(1 0 0 1 838.429 730)">F</text><rect x="421" y="919" width="233" height="233" stroke="#D74514" stroke-width="13.75" stroke-miterlimit="8" fill="none"/><path d="M421 1035 653.692 1035" stroke="#D74514" stroke-width="13.75" stroke-miterlimit="8" fill="none" fill-rule="evenodd"/><path d="M538 919 538 1151.69" stroke="#D74514" stroke-width="13.75" stroke-miterlimit="8" fill="none" fill-rule="evenodd"/><rect x="421" y="1252" width="233" height="233" stroke="#D74514" stroke-width="13.75" stroke-miterlimit="8" fill="none"/><path d="M421 1369 653.692 1369" stroke="#D74514" stroke-width="13.75" stroke-miterlimit="8" fill="none" fill-rule="evenodd"/><path d="M538 1252 538 1484.69" stroke="#D74514" stroke-width="13.75" stroke-miterlimit="8" fill="none" fill-rule="evenodd"/><rect x="335" y="1585" width="406" height="233" fill="#FDEFE8"/><path d="M472.018 1680.45 472.018 1686.53 428.005 1705.62 472.018 1724.71 472.018 1730.79 421.926 1708.46 421.926 1702.78Z" fill="#D74514" fill-rule="evenodd"/><text fill="#000000" fill-opacity="0" font-family="Arial,Arial_MSFontService,sans-serif" font-size="50.335" x="421.926" y="1724.5">&lt;</text><path d="M533.893 1680.45 533.893 1686.53 489.88 1705.62 533.893 1724.71 533.893 1730.79 483.801 1708.46 483.801 1702.78Z" fill="#D74514" fill-rule="evenodd"/><text fill="#000000" fill-opacity="0" font-family="Arial,Arial_MSFontService,sans-serif" font-size="50.335" x="483.801" y="1724.5">&lt;</text><path d="M595.768 1680.45 595.768 1686.53 551.755 1705.62 595.768 1724.71 595.768 1730.79 545.676 1708.46 545.676 1702.78Z" fill="#D74514" fill-rule="evenodd"/><text fill="#000000" fill-opacity="0" font-family="Arial,Arial_MSFontService,sans-serif" font-size="50.335" x="545.676" y="1724.5">&lt;</text><path d="M621.246 1706.97C623.132 1706.97 624.944 1707.12 626.681 1707.41 628.419 1707.69 630.241 1708.16 632.147 1708.79L630.449 1716.36 627.203 1716.36C627.143 1715.25 626.969 1714.29 626.681 1713.48 626.393 1712.68 625.991 1712.02 625.475 1711.52 624.959 1711.01 624.304 1710.63 623.509 1710.39 622.715 1710.14 621.772 1710.01 620.68 1710.01 619.508 1710.01 618.446 1710.17 617.493 1710.49 616.54 1710.81 615.725 1711.26 615.05 1711.84 614.375 1712.43 613.854 1713.14 613.487 1713.96 613.119 1714.78 612.936 1715.68 612.936 1716.65 612.936 1717.39 613.025 1718.06 613.204 1718.68 613.382 1719.3 613.69 1719.89 614.127 1720.47 614.564 1721.04 615.164 1721.63 615.929 1722.22 616.693 1722.82 617.661 1723.48 618.833 1724.19 620.263 1725.08 621.489 1725.93 622.511 1726.72 623.534 1727.52 624.368 1728.34 625.013 1729.19 625.659 1730.05 626.13 1730.96 626.428 1731.92 626.726 1732.88 626.875 1733.96 626.875 1735.15 626.875 1736.88 626.532 1738.46 625.847 1739.89 625.162 1741.32 624.189 1742.55 622.928 1743.58 621.668 1744.61 620.158 1745.41 618.401 1745.98 616.644 1746.54 614.683 1746.83 612.519 1746.83 610.692 1746.83 608.726 1746.67 606.621 1746.37 604.516 1746.06 602.441 1745.61 600.396 1745.01L602.153 1736.97 605.311 1736.97C605.37 1739.35 606.006 1741.08 607.217 1742.15 608.428 1743.22 610.295 1743.76 612.816 1743.76 614.107 1743.76 615.269 1743.59 616.301 1743.25 617.334 1742.92 618.208 1742.43 618.922 1741.79 619.637 1741.16 620.183 1740.38 620.561 1739.47 620.938 1738.56 621.126 1737.53 621.126 1736.4 621.126 1735.61 621.027 1734.89 620.829 1734.24 620.63 1733.6 620.283 1732.96 619.786 1732.32 619.29 1731.69 618.62 1731.04 617.776 1730.39 616.932 1729.73 615.884 1729.02 614.633 1728.24 613.382 1727.47 612.295 1726.7 611.372 1725.93 610.448 1725.17 609.679 1724.37 609.063 1723.55 608.448 1722.73 607.986 1721.87 607.678 1720.97 607.371 1720.08 607.217 1719.13 607.217 1718.11 607.217 1716.45 607.544 1714.93 608.2 1713.57 608.855 1712.21 609.793 1711.04 611.014 1710.06 612.236 1709.07 613.715 1708.32 615.452 1707.78 617.19 1707.24 619.121 1706.97 621.246 1706.97Z" fill="#D74514" fill-rule="evenodd"/><text fill="#000000" fill-opacity="0" font-family="Arial,Arial_MSFontService,sans-serif" font-size="39.8525" x="600.396" y="1741.85">ğ‘†</text><rect x="421" y="1919" width="233" height="232" stroke="#D74514" stroke-width="13.75" stroke-miterlimit="8" fill="none"/><path d="M421 2035 653.692 2035" stroke="#D74514" stroke-width="13.75" stroke-miterlimit="8" fill="none" fill-rule="evenodd"/><path d="M538 1919 538 2151.69" stroke="#D74514" stroke-width="13.75" stroke-miterlimit="8" fill="none" fill-rule="evenodd"/><path d="M543.083 819.5 543.084 878.731 533.917 878.731 533.917 819.5ZM561.417 874.147 538.501 919.981 515.584 874.147Z" fill="#5D1709"/><path d="M543.083 1152.5 543.084 1211.73 533.917 1211.73 533.917 1152.5ZM561.417 1207.15 538.501 1252.98 515.584 1207.15Z" fill="#5D1709"/><path d="M4.58333-1.64618e-05 4.58355 59.2307-4.58312 59.2308-4.58333 1.64618e-05ZM22.9169 54.6473 0.000360892 100.481-22.9165 54.6475Z" fill="#5D1709" transform="matrix(-1 0 0 1 538.501 1485.5)"/><path d="M543.083 1818.5 543.084 1877.73 533.917 1877.73 533.917 1818.5ZM561.417 1873.15 538.501 1918.98 515.584 1873.15Z" fill="#5D1709"/><path d="M1.88195e-05-4.58333 46.6425-4.58314 46.6424 4.58352-1.88195e-05 4.58333ZM42.0592-22.9165 87.8925 0.000360892 42.059 22.9168Z" fill="#5D1709" transform="matrix(-1 0 0 1 742.392 702.5)"/><path d="M543.083 413.5 543.084 545.652 533.917 545.652 533.917 413.5ZM561.417 541.069 538.501 586.902 515.584 541.069Z" fill="#5D1709"/><path d="M274.597 2475 804.148 2475 804.148 2714.51 274.597 2714.51Z" fill="#D74514" fill-rule="evenodd"/><path d="M804.148 2475 1333.7 2475 1333.7 2714.51 804.148 2714.51Z" fill="#D74514" fill-rule="evenodd"/><path d="M1333.7 2475 1863.25 2475 1863.25 2714.51 1333.7 2714.51Z" fill="#D74514" fill-rule="evenodd"/><path d="M1863.25 2475 2392.8 2475 2392.8 2714.51 1863.25 2714.51Z" fill="#D74514" fill-rule="evenodd"/><path d="M804.148 2472.71 804.148 2716.8" stroke="#000000" stroke-width="4.58333" stroke-linejoin="round" stroke-miterlimit="10" fill="none" fill-rule="evenodd"/><path d="M1333.7 2472.71 1333.7 2716.8" stroke="#000000" stroke-width="4.58333" stroke-linejoin="round" stroke-miterlimit="10" fill="none" fill-rule="evenodd"/><path d="M1863.25 2472.71 1863.25 2716.8" stroke="#000000" stroke-width="4.58333" stroke-linejoin="round" stroke-miterlimit="10" fill="none" fill-rule="evenodd"/><path d="M274.597 2472.71 274.597 2716.8" stroke="#000000" stroke-width="4.58333" stroke-linejoin="round" stroke-miterlimit="10" fill="none" fill-rule="evenodd"/><path d="M2392.8 2472.71 2392.8 2716.8" stroke="#000000" stroke-width="4.58333" stroke-linejoin="round" stroke-miterlimit="10" fill="none" fill-rule="evenodd"/><path d="M272.305 2475 2395.09 2475" stroke="#000000" stroke-width="4.58333" stroke-linejoin="round" stroke-miterlimit="10" fill="none" fill-rule="evenodd"/><path d="M272.305 2714.51 2395.09 2714.51" stroke="#000000" stroke-width="4.58333" stroke-linejoin="round" stroke-miterlimit="10" fill="none" fill-rule="evenodd"/><text fill="#FFFFFF" font-family="DengXian,DengXian_MSFontService,sans-serif" font-weight="700" font-size="83" transform="matrix(1 0 0 1 511.586 2622)">A<tspan font-size="83" x="532.416" y="0">B</tspan><tspan font-size="83" x="1061.39" y="0">C</tspan><tspan font-size="83" x="1586.94" y="0">D</tspan></text><path d="M538.5 2151.5 538.501 2230.18" stroke="#5D1709" stroke-width="9.16667" stroke-miterlimit="8" fill="none" fill-rule="evenodd"/><path d="M1079.5 413.5 1079.5 2230.97" stroke="#5D1709" stroke-width="9.16667" stroke-miterlimit="8" fill="none" fill-rule="evenodd"/><path d="M1616.5 413.5 1616.5 2230.97" stroke="#5D1709" stroke-width="9.16667" stroke-miterlimit="8" fill="none" fill-rule="evenodd"/><path d="M2137.5 413.5 2137.5 2230.97" stroke="#5D1709" stroke-width="9.16667" stroke-miterlimit="8" fill="none" fill-rule="evenodd"/><path d="M538.5 2230.5 1088.5 2374.99" stroke="#5D1709" stroke-width="9.16667" stroke-miterlimit="8" fill="none" fill-rule="evenodd"/><path d="M1093.08 2375.5 1093.08 2434.73 1083.92 2434.73 1083.92 2375.5ZM1111.42 2430.15 1088.5 2475.98 1065.58 2430.15Z" fill="#5D1709"/><path d="M543.083 2375.5 543.084 2434.73 533.917 2434.73 533.917 2375.5ZM561.417 2430.15 538.501 2475.98 515.584 2430.15Z" fill="#5D1709"/><path d="M1621.08 2375.5 1621.08 2434.73 1611.92 2434.73 1611.92 2375.5ZM1639.42 2430.15 1616.5 2475.98 1593.58 2430.15Z" fill="#5D1709"/><path d="M2142.08 2380.5 2142.08 2439.73 2132.92 2439.73 2132.92 2380.5ZM2160.42 2435.15 2137.5 2480.98 2114.58 2435.15Z" fill="#5D1709"/><path d="M1076.5 2230.5 1615.92 2374.99" stroke="#5D1709" stroke-width="9.16667" stroke-miterlimit="8" fill="none" fill-rule="evenodd"/><path d="M1615.5 2230.5 2137.3 2374.99" stroke="#5D1709" stroke-width="9.16667" stroke-miterlimit="8" fill="none" fill-rule="evenodd"/><path d="M0 0 1597.82 142.422" stroke="#5D1709" stroke-width="9.16667" stroke-miterlimit="8" fill="none" fill-rule="evenodd" transform="matrix(-1 0 0 1 2136.32 2230.5)"/><path d="M1070.5 413.5 1070.5 2230.97" stroke="#FFFFFF" stroke-width="9.16667" stroke-miterlimit="8" fill="none" fill-rule="evenodd"/><path d="M1088.5 413.5 1088.5 2230.97" stroke="#FFFFFF" stroke-width="9.16667" stroke-miterlimit="8" fill="none" fill-rule="evenodd"/><path d="M1607.5 413.5 1607.5 2230.97" stroke="#FFFFFF" stroke-width="9.16667" stroke-miterlimit="8" fill="none" fill-rule="evenodd"/><path d="M1626.5 413.5 1626.5 2230.97" stroke="#FFFFFF" stroke-width="9.16667" stroke-miterlimit="8" fill="none" fill-rule="evenodd"/><path d="M186.109 1007.66 200.577 1007.66 205.197 1046.97 228.825 1007.66 241.591 1007.66 241.145 1009.65C240.118 1009.86 239.382 1010.11 238.936 1010.38 238.49 1010.65 238.085 1011.05 237.72 1011.59 237.356 1012.13 236.991 1012.98 236.626 1014.13 236.261 1015.27 235.795 1017.15 235.228 1019.74L228.298 1051.19C227.947 1052.78 227.717 1054.05 227.609 1054.98 227.501 1055.91 227.447 1056.75 227.447 1057.51 227.447 1058.73 227.751 1059.58 228.359 1060.08 228.967 1060.58 229.986 1060.89 231.418 1061L230.973 1062.98 214.762 1062.98 215.208 1061C216.234 1060.83 217.004 1060.57 217.518 1060.21 218.031 1059.84 218.463 1059.33 218.814 1058.69 219.166 1058.04 219.49 1057.25 219.787 1056.32 220.084 1055.38 220.53 1053.58 221.125 1050.9L226.515 1026.47C227.271 1023.09 228.136 1019.73 229.108 1016.38L228.541 1016.38C227.703 1017.97 225.812 1021.21 222.867 1026.1L204.427 1056.54 200.01 1056.54 196.646 1030.48C196.16 1026.8 195.619 1021.86 195.025 1015.65L194.214 1015.65C193.296 1021.7 192.269 1027.3 191.134 1032.46L187 1051.19C186.433 1053.76 186.149 1055.86 186.149 1057.51 186.149 1058.73 186.453 1059.58 187.061 1060.08 187.669 1060.58 188.689 1060.89 190.121 1061L189.675 1062.98 175.491 1062.98 175.937 1061C176.963 1060.83 177.733 1060.57 178.247 1060.21 178.76 1059.84 179.192 1059.33 179.543 1058.69 179.895 1058.04 180.219 1057.25 180.516 1056.32 180.813 1055.38 181.259 1053.58 181.854 1050.9L188.743 1019.7C189.013 1018.54 189.229 1017.43 189.392 1016.38 189.554 1015.32 189.635 1014.25 189.635 1013.17 189.635 1011.9 189.317 1011.02 188.682 1010.52 188.047 1010.02 187.041 1009.73 185.663 1009.65Z" fill="#D74514" fill-rule="evenodd"/><text fill="#000000" fill-opacity="0" font-family="Arial,Arial_MSFontService,sans-serif" font-size="55.3198" x="175.491" y="1056.07">ğ‘€</text><path d="M253.192 1049.71 254.651 1049.71 250.243 1069.55C249.965 1070.72 249.772 1071.65 249.662 1072.35 249.553 1073.04 249.499 1073.67 249.499 1074.23 249.499 1074.98 249.652 1075.53 249.96 1075.86 250.268 1076.2 250.73 1076.37 251.345 1076.37 251.703 1076.37 252.06 1076.3 252.418 1076.16 252.775 1076.02 253.157 1075.8 253.564 1075.51 253.971 1075.21 254.418 1074.83 254.905 1074.36 255.391 1073.89 255.932 1073.33 256.528 1072.68L258.553 1074.64C257.521 1075.7 256.582 1076.58 255.739 1077.31 254.895 1078.03 254.095 1078.62 253.341 1079.08 252.586 1079.54 251.847 1079.87 251.122 1080.06 250.397 1080.26 249.628 1080.36 248.814 1080.36 248.059 1080.36 247.379 1080.22 246.773 1079.94 246.168 1079.67 245.646 1079.28 245.21 1078.8 244.773 1078.31 244.435 1077.73 244.197 1077.06 243.959 1076.38 243.839 1075.64 243.839 1074.82 243.839 1074.17 243.919 1073.35 244.078 1072.38 244.237 1071.41 244.44 1070.35 244.688 1069.21 244.936 1068.07 245.21 1066.87 245.507 1065.62 245.805 1064.37 246.098 1063.13 246.386 1061.9 246.674 1060.66 246.932 1059.48 247.16 1058.34 247.389 1057.19 247.553 1056.16 247.652 1055.22 247.692 1055.06 247.711 1054.91 247.711 1054.76 247.711 1054.61 247.711 1054.48 247.711 1054.36 247.672 1053.58 247.399 1053.02 246.892 1052.66 246.386 1052.3 245.488 1052.11 244.197 1052.07L244.554 1050.04ZM251.464 1037.71 257.421 1037.71 255.962 1044.11 250.064 1044.11Z" fill="#D74514" fill-rule="evenodd"/><text fill="#000000" fill-opacity="0" font-family="Arial,Arial_MSFontService,sans-serif" font-size="42.6523" x="243.839" y="1075.03">ğ‘–</text><path d="M193.374 1342.91 209.585 1342.91 209.14 1344.89C208.113 1345.11 207.377 1345.35 206.931 1345.62 206.485 1345.89 206.086 1346.3 205.735 1346.84 205.384 1347.38 205.019 1348.22 204.641 1349.37 204.263 1350.52 203.79 1352.39 203.223 1354.98L200.345 1367.91 201.683 1367.91C202.817 1367.91 203.851 1367.72 204.783 1367.34 205.715 1366.97 206.802 1366.28 208.045 1365.28 209.288 1364.28 211.267 1362.44 213.983 1359.76 216.698 1357.09 218.63 1355.06 219.778 1353.67 220.926 1352.27 221.764 1351.07 222.291 1350.06 222.818 1349.05 223.081 1348.12 223.081 1347.28 223.081 1346.61 222.811 1346.06 222.27 1345.64 221.73 1345.22 220.96 1344.97 219.96 1344.89L220.406 1342.91 237.792 1342.91 237.347 1344.89C236.266 1345.05 235.043 1345.61 233.679 1346.57 232.314 1347.53 230.227 1349.4 227.417 1352.19L211.693 1367.51 220.325 1388.26C221.217 1390.39 221.953 1391.93 222.534 1392.88 223.115 1393.82 223.81 1394.57 224.621 1395.12 225.432 1395.68 226.431 1396.05 227.62 1396.24L227.174 1398.23 211.531 1398.23 211.976 1396.24C213.435 1396.1 214.165 1395.46 214.165 1394.29 214.165 1393.56 214.016 1392.73 213.719 1391.8 213.422 1390.87 213.071 1389.9 212.665 1388.9L207.397 1376.02C206.775 1374.48 206.235 1373.4 205.776 1372.77 205.316 1372.15 204.83 1371.72 204.317 1371.48 203.803 1371.23 203.006 1371.11 201.926 1371.11L199.656 1371.11 196.292 1386.43C195.941 1388.05 195.711 1389.33 195.603 1390.26 195.495 1391.19 195.441 1392.02 195.441 1392.75 195.441 1393.97 195.745 1394.83 196.353 1395.33 196.961 1395.83 197.981 1396.13 199.413 1396.24L198.967 1398.23 182.756 1398.23 183.202 1396.24C184.229 1396.08 184.999 1395.81 185.512 1395.45 186.025 1395.08 186.458 1394.58 186.809 1393.93 187.16 1393.28 187.484 1392.49 187.782 1391.56 188.079 1390.63 188.525 1388.82 189.119 1386.15L196.009 1354.94C196.603 1352.24 196.9 1350.07 196.9 1348.42 196.9 1347.15 196.583 1346.26 195.948 1345.76 195.313 1345.26 194.307 1344.97 192.929 1344.89Z" fill="#D74514" fill-rule="evenodd"/><text fill="#000000" fill-opacity="0" font-family="Arial,Arial_MSFontService,sans-serif" font-size="55.3198" x="182.756" y="1391.31">ğ¾</text><path d="M246.008 1384.96 247.467 1384.96 243.059 1404.79C242.781 1405.96 242.587 1406.9 242.478 1407.59 242.369 1408.29 242.314 1408.91 242.314 1409.47 242.314 1410.22 242.468 1410.77 242.776 1411.11 243.084 1411.45 243.545 1411.61 244.161 1411.61 244.518 1411.61 244.876 1411.54 245.233 1411.41 245.591 1411.27 245.973 1411.05 246.38 1410.75 246.787 1410.45 247.234 1410.07 247.72 1409.6 248.207 1409.14 248.748 1408.58 249.344 1407.92L251.369 1409.89C250.336 1410.94 249.398 1411.83 248.554 1412.55 247.71 1413.28 246.911 1413.87 246.157 1414.32 245.402 1414.78 244.662 1415.11 243.938 1415.31 243.213 1415.51 242.443 1415.61 241.629 1415.61 240.875 1415.61 240.195 1415.47 239.589 1415.19 238.983 1414.91 238.462 1414.53 238.025 1414.04 237.588 1413.56 237.251 1412.97 237.013 1412.3 236.774 1411.62 236.655 1410.88 236.655 1410.07 236.655 1409.41 236.735 1408.6 236.893 1407.62 237.052 1406.65 237.256 1405.59 237.504 1404.45 237.752 1403.31 238.025 1402.11 238.323 1400.86 238.621 1399.61 238.914 1398.37 239.202 1397.14 239.49 1395.91 239.748 1394.72 239.976 1393.58 240.204 1392.44 240.368 1391.4 240.468 1390.47 240.507 1390.31 240.527 1390.15 240.527 1390 240.527 1389.86 240.527 1389.72 240.527 1389.6 240.487 1388.83 240.214 1388.26 239.708 1387.91 239.202 1387.55 238.303 1387.35 237.013 1387.31L237.37 1385.28ZM244.28 1372.95 250.237 1372.95 248.778 1379.36 242.88 1379.36Z" fill="#D74514" fill-rule="evenodd"/><text fill="#000000" fill-opacity="0" font-family="Arial,Arial_MSFontService,sans-serif" font-size="42.6523" x="236.655" y="1410.27">ğ‘–</text><path d="M0.0689944-4.58281 96.3244-3.13369 96.1864 6.03194-0.0689944 4.58281ZM92.0176-21.5339 137.501 2.07008 91.3276 24.2942Z" fill="#5D1709" transform="matrix(1 0 0 -1 284.5 1371.57)"/><path d="M284.5 1030.92 380.751 1030.92 380.751 1040.08 284.5 1040.08ZM376.168 1012.58 422.001 1035.5 376.167 1058.42Z" fill="#5D1709"/></g></svg>