<svg xmlns="http://www.w3.org/2000/svg" width="3141" height="3217" overflow="hidden"><defs><clipPath id="a"><path d="M477-862h3141v3217H477z"/></clipPath><clipPath id="b"><path d="M1239-892h95v569h-95z"/></clipPath><clipPath id="c"><path d="M1333-892h96v569h-96z"/></clipPath><clipPath id="d"><path d="M1428-892h95v569h-95z"/></clipPath><clipPath id="e"><path d="M1522-1470h96V254h-96z"/></clipPath><clipPath id="f"><path d="M1522-1470h96V254h-96z"/></clipPath><clipPath id="g"><path d="M1522-1470h96V254h-96z"/></clipPath><clipPath id="h"><path d="M1995-892h95v569h-95z"/></clipPath><clipPath id="i"><path d="M2089-892h190v569h-190z"/></clipPath><clipPath id="j"><path d="M2278-814h96v569h-96z"/></clipPath><clipPath id="k"><path d="M2373-814h95v569h-95z"/></clipPath><clipPath id="l"><path d="M2467-814h96v569h-96z"/></clipPath><clipPath id="m"><path d="M2562-814h95v569h-95z"/></clipPath><clipPath id="n"><path d="M2656-814h96v569h-96z"/></clipPath><clipPath id="o"><path d="M1239-95h95v569h-95z"/></clipPath><clipPath id="p"><path d="M1333-95h96v569h-96z"/></clipPath><clipPath id="q"><path d="M1428-95h95v569h-95z"/></clipPath><clipPath id="r"><path d="M1522-673h96v1724h-96z"/></clipPath><clipPath id="s"><path d="M1522-673h96v1724h-96z"/></clipPath><clipPath id="t"><path d="M1522-673h96v1724h-96z"/></clipPath><clipPath id="u"><path d="M1995-95h95v569h-95z"/></clipPath><clipPath id="v"><path d="M2089-95h190v569h-190z"/></clipPath><clipPath id="w"><path d="M2278-17h96v569h-96z"/></clipPath><clipPath id="x"><path d="M2373-17h95v569h-95z"/></clipPath><clipPath id="y"><path d="M2467-17h96v569h-96z"/></clipPath><clipPath id="z"><path d="M2562-17h95v569h-95z"/></clipPath><clipPath id="A"><path d="M2656-17h96v569h-96z"/></clipPath><clipPath id="B"><path d="M1239 703h95v569h-95z"/></clipPath><clipPath id="C"><path d="M1333 703h96v569h-96z"/></clipPath><clipPath id="D"><path d="M1428 703h95v569h-95z"/></clipPath><clipPath id="E"><path d="M1522 125h96v1724h-96z"/></clipPath><clipPath id="F"><path d="M1522 125h96v1724h-96z"/></clipPath><clipPath id="G"><path d="M1522 125h96v1724h-96z"/></clipPath><clipPath id="H"><path d="M1995 703h95v569h-95z"/></clipPath><clipPath id="I"><path d="M2089 703h190v569h-190z"/></clipPath><clipPath id="J"><path d="M2278 703h96v569h-96z"/></clipPath><clipPath id="K"><path d="M483 1353h235v617H483z"/></clipPath><clipPath id="L"><path d="M717 1353h1814v617H717z"/></clipPath><clipPath id="M"><path d="M2530 1353h147v617h-147z"/></clipPath><clipPath id="N"><path d="M2676 1353h832v617h-832z"/></clipPath><clipPath id="O"><path d="M483 1474h235v617H483z"/></clipPath><clipPath id="P"><path d="M717 1474h1814v617H717z"/></clipPath><clipPath id="Q"><path d="M2530 1474h147v617h-147z"/></clipPath><clipPath id="R"><path d="M2676 1474h832v617h-832z"/></clipPath><clipPath id="S"><path d="M483 1595h235v617H483z"/></clipPath><clipPath id="T"><path d="M717 1595h1814v617H717z"/></clipPath><clipPath id="U"><path d="M2530 1595h147v617h-147z"/></clipPath><clipPath id="V"><path d="M2676 1595h832v617h-832z"/></clipPath><clipPath id="W"><path d="M483 1716h235v617H483z"/></clipPath><clipPath id="X"><path d="M717 1716h1814v617H717z"/></clipPath><clipPath id="Y"><path d="M2530 1716h147v617h-147z"/></clipPath><clipPath id="Z"><path d="M2676 1716h832v617h-832z"/></clipPath><clipPath id="aa"><path d="M483 1837h235v617H483z"/></clipPath><clipPath id="ab"><path d="M717 1837h1814v617H717z"/></clipPath><clipPath id="ac"><path d="M2530 1837h147v617h-147z"/></clipPath><clipPath id="ad"><path d="M2676 1837h832v617h-832z"/></clipPath><clipPath id="ae"><path d="M483 1958h235v617H483z"/></clipPath><clipPath id="af"><path d="M717 1958h1814v617H717z"/></clipPath></defs><g clip-path="url(#a)" transform="translate(-477 862)"><path fill="#d74514" fill-rule="evenodd" d="M483.486-747.312h755.974v279.124H483.486Zm755.974 0h94.5v279.124h-94.5Zm94.5 0h94.49v279.124h-94.49Zm94.49 0h94.5v279.124h-94.5Zm566.98 0h94.5v279.124h-94.5Zm755.98 0h755.97v279.124h-755.97ZM483.486-468.188H1995.43v279.374H483.486Z"/><path fill="none" stroke="#000" stroke-linejoin="round" stroke-miterlimit="10" stroke-width="4.583" d="M1239.46-749.604v283.708m94.5-283.708v283.708m94.49-283.708v283.708m94.5-283.708v283.708m94.5-283.708v283.708m377.98-283.708v563.082m94.5-563.082v283.708m188.99-283.708v283.708m94.5-127.665v127.665m94.5-127.665v127.665m94.5-127.665v127.665m94.49-127.665v127.665m94.5-283.708v283.708m-474.78-125.373h477.07M481.194-468.188H3509.67M483.486-749.604v563.082M3507.38-749.604v563.082M481.194-747.312H3509.67M481.194-188.814H3509.67"/><text fill="#fff" font-family="Courier New,Courier New_MSFontService,sans-serif" font-size="64" font-weight="700" transform="translate(784.702 -629)">BASE<tspan x="-38.385" y="82">31..24</tspan></text><g clip-path="url(#b)"><text fill="#fff" font-family="Courier New,Courier New_MSFontService,sans-serif" font-size="64" font-weight="700" transform="translate(1267.52 -587)">G</text></g><g clip-path="url(#c)"><text fill="#fff" font-family="Courier New,Courier New_MSFontService,sans-serif" font-size="64" font-weight="700" transform="translate(1362.01 -587)">B</text></g><g clip-path="url(#d)"><text fill="#fff" font-family="Courier New,Courier New_MSFontService,sans-serif" font-size="64" font-weight="700" transform="translate(1456.51 -587)">0</text></g><g clip-path="url(#e)"><text fill="#d74514" font-family="Courier New,Courier New_MSFontService,sans-serif" font-size="64" font-weight="700" transform="translate(1551.01 -670)">A</text></g><g clip-path="url(#f)"><text fill="#d74514" font-family="Courier New,Courier New_MSFontService,sans-serif" font-size="64" font-weight="700" transform="translate(1551.01 -588)">V</text></g><g clip-path="url(#g)"><text fill="#d74514" font-family="Courier New,Courier New_MSFontService,sans-serif" font-size="64" font-weight="700" transform="translate(1551.01 -505)">L</text></g><text fill="#d74514" font-family="Courier New,Courier New_MSFontService,sans-serif" font-size="64" font-weight="700" transform="translate(1710.47 -629)">LIMIT<tspan x="-19.181" y="82">19..16</tspan></text><g clip-path="url(#h)"><text fill="#fff" font-family="Courier New,Courier New_MSFontService,sans-serif" font-size="64" font-weight="700" transform="translate(2023.49 -587)">P</text></g><g clip-path="url(#i)"><text fill="#d74514" font-family="Courier New,Courier New_MSFontService,sans-serif" font-size="64" font-weight="700" transform="translate(2126.85 -587)">DPL</text></g><text fill="#d74514" font-family="Courier New,Courier New_MSFontService,sans-serif" font-size="64" font-weight="700" transform="translate(2438.4 -649)">TYPE<tspan x="614.229" y="20" fill="#fff">BASE</tspan><tspan x="575.843" y="102" fill="#fff">23..16</tspan></text><g clip-path="url(#j)"><text fill="#d74514" font-family="Courier New,Courier New_MSFontService,sans-serif" font-size="64" font-weight="700" transform="translate(2306.98 -509)">1</text></g><g clip-path="url(#k)"><text fill="#d74514" font-family="Courier New,Courier New_MSFontService,sans-serif" font-size="64" font-weight="700" transform="translate(2401.48 -509)">0</text></g><g clip-path="url(#l)"><text fill="#d74514" font-family="Courier New,Courier New_MSFontService,sans-serif" font-size="64" font-weight="700" transform="translate(2495.97 -509)">E</text></g><g clip-path="url(#m)"><text fill="#d74514" font-family="Courier New,Courier New_MSFontService,sans-serif" font-size="64" font-weight="700" transform="translate(2590.47 -509)">W</text></g><g clip-path="url(#n)"><text fill="#d74514" font-family="Courier New,Courier New_MSFontService,sans-serif" font-size="64" font-weight="700" transform="translate(2684.97 -509)">A</text></g><text fill="#fff" font-family="Courier New,Courier New_MSFontService,sans-serif" font-size="64" font-weight="700" transform="translate(1009.15 -349)">SEGMENT BASE<tspan x="134.36" y="82">15..0</tspan><tspan x="1492.76" y="0" fill="#d74514">SEGMENT LIMIT</tspan><tspan x="1646.3" y="82" fill="#d74514">15..0</tspan><tspan x="-492.662" y="-436" fill="#000" font-weight="400">31</tspan><tspan x="249.838" y="-436" fill="#000" font-weight="400">23</tspan><tspan x="1019.29" y="-436" fill="#000" font-weight="400">15</tspan><tspan x="1775.26" y="-436" fill="#000" font-weight="400">7</tspan><tspan x="2426.34" y="-436" fill="#000" font-weight="400">0</tspan><tspan x="2531.24" y="-241" fill="#000" font-weight="400">4</tspan><tspan x="2531.24" y="40" fill="#000" font-weight="400">0</tspan><tspan x="519.28" y="239" fill="#000" font-family="Microsoft YaHei,Microsoft YaHei_MSFontService,sans-serif" font-weight="400">DATA SEGMENT DESCRIPTION</tspan></text><path fill="#d74514" fill-rule="evenodd" d="M483.486 49.821h755.974v279.125H483.486Zm755.974 0h94.5v279.125h-94.5Zm94.5 0h94.49v279.125h-94.49Zm94.49 0h94.5v279.125h-94.5Zm566.98 0h94.5v279.125h-94.5Zm755.98 0h755.97v279.125h-755.97ZM483.486 328.946H1995.43V608.32H483.486Z"/><path fill="none" stroke="#000" stroke-linejoin="round" stroke-miterlimit="10" stroke-width="4.583" d="M1239.46 47.53v283.708m94.5-283.708v283.708m94.49-283.708v283.708m94.5-283.708v283.708m94.5-283.708v283.708M1995.43 47.53v563.082m94.5-563.082v283.708M2278.92 47.53v283.708m94.5-127.665v127.665m94.5-127.665v127.665m94.5-127.665v127.665m94.49-127.665v127.665m94.5-283.708v283.708m-474.78-125.374h477.07M481.194 328.946H3509.67M483.486 47.53v563.082M3507.38 47.53v563.082M481.194 49.821H3509.67M481.194 608.32H3509.67"/><text fill="#fff" font-family="Courier New,Courier New_MSFontService,sans-serif" font-size="64" font-weight="700" transform="translate(784.702 169)">BASE<tspan x="-38.385" y="82">31..24</tspan></text><g clip-path="url(#o)"><text fill="#fff" font-family="Courier New,Courier New_MSFontService,sans-serif" font-size="64" font-weight="700" transform="translate(1267.52 210)">G</text></g><g clip-path="url(#p)"><text fill="#fff" font-family="Courier New,Courier New_MSFontService,sans-serif" font-size="64" font-weight="700" transform="translate(1362.01 210)">D</text></g><g clip-path="url(#q)"><text fill="#fff" font-family="Courier New,Courier New_MSFontService,sans-serif" font-size="64" font-weight="700" transform="translate(1456.51 210)">0</text></g><g clip-path="url(#r)"><text fill="#d74514" font-family="Courier New,Courier New_MSFontService,sans-serif" font-size="64" font-weight="700" transform="translate(1551.01 127)">A</text></g><g clip-path="url(#s)"><text fill="#d74514" font-family="Courier New,Courier New_MSFontService,sans-serif" font-size="64" font-weight="700" transform="translate(1551.01 209)">V</text></g><g clip-path="url(#t)"><text fill="#d74514" font-family="Courier New,Courier New_MSFontService,sans-serif" font-size="64" font-weight="700" transform="translate(1551.01 292)">L</text></g><text fill="#d74514" font-family="Courier New,Courier New_MSFontService,sans-serif" font-size="64" font-weight="700" transform="translate(1710.47 169)">LIMIT<tspan x="-19.181" y="82">19..16</tspan></text><g clip-path="url(#u)"><text fill="#fff" font-family="Courier New,Courier New_MSFontService,sans-serif" font-size="64" font-weight="700" transform="translate(2023.49 210)">P</text></g><g clip-path="url(#v)"><text fill="#d74514" font-family="Courier New,Courier New_MSFontService,sans-serif" font-size="64" font-weight="700" transform="translate(2126.85 210)">DPL</text></g><text fill="#d74514" font-family="Courier New,Courier New_MSFontService,sans-serif" font-size="64" font-weight="700" transform="translate(2438.4 148)">TYPE<tspan x="614.229" y="21" fill="#fff">BASE</tspan><tspan x="575.843" y="103" fill="#fff">23..16</tspan></text><g clip-path="url(#w)"><text fill="#d74514" font-family="Courier New,Courier New_MSFontService,sans-serif" font-size="64" font-weight="700" transform="translate(2306.98 288)">1</text></g><g clip-path="url(#x)"><text fill="#d74514" font-family="Courier New,Courier New_MSFontService,sans-serif" font-size="64" font-weight="700" transform="translate(2401.48 288)">1</text></g><g clip-path="url(#y)"><text fill="#d74514" font-family="Courier New,Courier New_MSFontService,sans-serif" font-size="64" font-weight="700" transform="translate(2495.97 288)">C</text></g><g clip-path="url(#z)"><text fill="#d74514" font-family="Courier New,Courier New_MSFontService,sans-serif" font-size="64" font-weight="700" transform="translate(2590.47 288)">R</text></g><g clip-path="url(#A)"><text fill="#d74514" font-family="Courier New,Courier New_MSFontService,sans-serif" font-size="64" font-weight="700" transform="translate(2684.97 288)">A</text></g><text fill="#fff" font-family="Courier New,Courier New_MSFontService,sans-serif" font-size="64" font-weight="700" transform="translate(1009.15 448)">SEGMENT BASE<tspan x="134.36" y="82">15..0</tspan><tspan x="1492.76" y="0" fill="#d74514">SEGMENT LIMIT</tspan><tspan x="1646.3" y="82" fill="#d74514">15..0</tspan><tspan x="-492.662" y="-436" fill="#000" font-weight="400">31</tspan><tspan x="249.838" y="-436" fill="#000" font-weight="400">23</tspan><tspan x="1019.29" y="-436" fill="#000" font-weight="400">15</tspan><tspan x="1775.26" y="-436" fill="#000" font-weight="400">7</tspan><tspan x="2426.34" y="-436" fill="#000" font-weight="400">0</tspan><tspan x="2531.24" y="-241" fill="#000" font-weight="400">4</tspan><tspan x="2531.24" y="40" fill="#000" font-weight="400">0</tspan><tspan x="407.24" y="239" fill="#000" font-family="Microsoft YaHei,Microsoft YaHei_MSFontService,sans-serif" font-weight="400">EXECUTABL</tspan><tspan x="760.386" y="239" fill="#000" font-family="Microsoft YaHei,Microsoft YaHei_MSFontService,sans-serif" font-weight="400">E</tspan><tspan x="814.813" y="239" fill="#000" font-family="Microsoft YaHei,Microsoft YaHei_MSFontService,sans-serif" font-weight="400">SEGMENT DESCRIPTION</tspan></text><path fill="#d74514" fill-rule="evenodd" d="M483.486 847.632h755.974v279.128H483.486Zm755.974 0h94.5v279.128h-94.5Zm94.5 0h94.49v279.128h-94.49Zm94.49 0h94.5v279.128h-94.5Zm566.98 0h94.5v279.128h-94.5Zm755.98 0h755.97v279.128h-755.97ZM483.486 1126.76H1995.43v279.37H483.486Z"/><path fill="none" stroke="#000" stroke-linejoin="round" stroke-miterlimit="10" stroke-width="4.583" d="M1239.46 845.34v283.71m94.5-283.71v283.71m94.49-283.71v283.71m94.5-283.71v283.71m94.5-283.71v283.71m377.98-283.71v563.08m94.5-563.08v283.71m188.99-283.71v283.71m94.5-283.71v283.71m377.99-283.71v283.71m-2270.216-2.29H3509.67M483.486 845.34v563.08M3507.38 845.34v563.08M481.194 847.632H3509.67M481.194 1406.13H3509.67"/><text fill="#fff" font-family="Courier New,Courier New_MSFontService,sans-serif" font-size="64" font-weight="700" transform="translate(784.702 966)">BASE<tspan x="-38.385" y="82">31..24</tspan></text><g clip-path="url(#B)"><text fill="#fff" font-family="Courier New,Courier New_MSFontService,sans-serif" font-size="64" font-weight="700" transform="translate(1267.52 1008)">G</text></g><g clip-path="url(#C)"><text fill="#fff" font-family="Courier New,Courier New_MSFontService,sans-serif" font-size="64" font-weight="700" transform="translate(1362.01 1008)">X</text></g><g clip-path="url(#D)"><text fill="#fff" font-family="Courier New,Courier New_MSFontService,sans-serif" font-size="64" font-weight="700" transform="translate(1456.51 1008)">0</text></g><g clip-path="url(#E)"><text fill="#d74514" font-family="Courier New,Courier New_MSFontService,sans-serif" font-size="64" font-weight="700" transform="translate(1551.01 925)">A</text></g><g clip-path="url(#F)"><text fill="#d74514" font-family="Courier New,Courier New_MSFontService,sans-serif" font-size="64" font-weight="700" transform="translate(1551.01 1007)">V</text></g><g clip-path="url(#G)"><text fill="#d74514" font-family="Courier New,Courier New_MSFontService,sans-serif" font-size="64" font-weight="700" transform="translate(1551.01 1090)">L</text></g><text fill="#d74514" font-family="Courier New,Courier New_MSFontService,sans-serif" font-size="64" font-weight="700" transform="translate(1710.47 966)">LIMIT<tspan x="-19.181" y="82">19..16</tspan></text><g clip-path="url(#H)"><text fill="#fff" font-family="Courier New,Courier New_MSFontService,sans-serif" font-size="64" font-weight="700" transform="translate(2023.49 1008)">P</text></g><g clip-path="url(#I)"><text fill="#d74514" font-family="Courier New,Courier New_MSFontService,sans-serif" font-size="64" font-weight="700" transform="translate(2126.85 1008)">DPL</text></g><g clip-path="url(#J)"><text fill="#d74514" font-family="Courier New,Courier New_MSFontService,sans-serif" font-size="64" font-weight="700" transform="translate(2306.98 1008)">0</text></g><text fill="#d74514" font-family="Courier New,Courier New_MSFontService,sans-serif" font-size="64" font-weight="700" transform="translate(2485.64 1008)">TYPE<tspan x="566.981" y="-42" fill="#fff">BASE</tspan><tspan x="528.595" y="40" fill="#fff">23..16</tspan><tspan x="-1476.5" y="238" fill="#fff">SEGMENT BASE</tspan><tspan x="-1342.14" y="320" fill="#fff">15..0</tspan><tspan x="16.259" y="238">SEGMENT LIMIT</tspan><tspan x="169.801" y="320">15..0</tspan><tspan x="-1969.16" y="-198" fill="#000" font-weight="400">31</tspan><tspan x="-1226.66" y="-198" fill="#000" font-weight="400">23</tspan><tspan x="-457.21" y="-198" fill="#000" font-weight="400">15</tspan><tspan x="298.764" y="-198" fill="#000" font-weight="400">7</tspan><tspan x="949.839" y="-198" fill="#000" font-weight="400">0</tspan><tspan x="1054.74" y="-3" fill="#000" font-weight="400">4</tspan><tspan x="1054.74" y="278" fill="#000" font-weight="400">0</tspan><tspan x="-998.502" y="477" fill="#000" font-family="Microsoft YaHei,Microsoft YaHei_MSFontService,sans-serif" font-weight="400">SYSTE</tspan><tspan x="-813.793" y="477" fill="#000" font-family="Microsoft YaHei,Microsoft YaHei_MSFontService,sans-serif" font-weight="400">M</tspan><tspan x="-732.439" y="477" fill="#000" font-family="Microsoft YaHei,Microsoft YaHei_MSFontService,sans-serif" font-weight="400">SEGMENT DESCRIPTION</tspan></text><g clip-path="url(#K)"><text font-family="Courier New,Courier New_MSFontService,sans-serif" font-size="73" font-weight="700" transform="translate(516.486 1683)">A</text></g><g clip-path="url(#L)"><text font-family="Courier New,Courier New_MSFontService,sans-serif" font-size="73" font-weight="400" transform="translate(750.62 1683)">ACCESSED</text></g><g clip-path="url(#M)"><text font-family="Courier New,Courier New_MSFontService,sans-serif" font-size="73" font-weight="700" transform="translate(2563 1683)">E</text></g><g clip-path="url(#N)"><text font-family="Courier New,Courier New_MSFontService,sans-serif" font-size="73" font-weight="400" transform="translate(2709.67 1683)">EXPAND</text></g><text font-family="Courier New,Courier New_MSFontService,sans-serif" font-size="73" font-weight="400" transform="translate(2974.35 1683)">-<tspan x="44.114" y="0">DOWN</tspan></text><g clip-path="url(#O)"><text font-family="Courier New,Courier New_MSFontService,sans-serif" font-size="73" font-weight="700" transform="translate(516.486 1804)">AVL</text></g><g clip-path="url(#P)"><text font-family="Courier New,Courier New_MSFontService,sans-serif" font-size="73" font-weight="400" transform="translate(750.62 1804)">AVALIABLE FOR PROGRAMMERS USE</text></g><g clip-path="url(#Q)"><text font-family="Courier New,Courier New_MSFontService,sans-serif" font-size="73" font-weight="700" transform="translate(2563 1804)">G</text></g><g clip-path="url(#R)"><text font-family="Courier New,Courier New_MSFontService,sans-serif" font-size="73" font-weight="400" transform="translate(2709.67 1804)">GRANULARITY</text></g><g clip-path="url(#S)"><text font-family="Courier New,Courier New_MSFontService,sans-serif" font-size="73" font-weight="700" transform="translate(516.486 1925)">B</text></g><g clip-path="url(#T)"><text font-family="Courier New,Courier New_MSFontService,sans-serif" font-size="73" font-weight="400" transform="translate(750.62 1925)">BIG</text></g><g clip-path="url(#U)"><text font-family="Courier New,Courier New_MSFontService,sans-serif" font-size="73" font-weight="700" transform="translate(2563 1925)">P</text></g><g clip-path="url(#V)"><text font-family="Courier New,Courier New_MSFontService,sans-serif" font-size="73" font-weight="400" transform="translate(2709.67 1925)">SEGMENT PRESENT</text></g><g clip-path="url(#W)"><text font-family="Courier New,Courier New_MSFontService,sans-serif" font-size="73" font-weight="700" transform="translate(516.486 2046)">C</text></g><g clip-path="url(#X)"><text font-family="Courier New,Courier New_MSFontService,sans-serif" font-size="73" font-weight="400" transform="translate(750.62 2046)">CONFORMING</text></g><g clip-path="url(#Y)"><text font-family="Courier New,Courier New_MSFontService,sans-serif" font-size="73" font-weight="700" transform="translate(2563 2046)">R</text></g><g clip-path="url(#Z)"><text font-family="Courier New,Courier New_MSFontService,sans-serif" font-size="73" font-weight="400" transform="translate(2709.67 2046)">READABLE</text></g><g clip-path="url(#aa)"><text font-family="Courier New,Courier New_MSFontService,sans-serif" font-size="73" font-weight="700" transform="translate(516.486 2167)">D</text></g><g clip-path="url(#ab)"><text font-family="Courier New,Courier New_MSFontService,sans-serif" font-size="73" font-weight="400" transform="translate(750.62 2167)">DEFAULT</text></g><g clip-path="url(#ac)"><text font-family="Courier New,Courier New_MSFontService,sans-serif" font-size="73" font-weight="700" transform="translate(2563 2167)">W</text></g><g clip-path="url(#ad)"><text font-family="Courier New,Courier New_MSFontService,sans-serif" font-size="73" font-weight="400" transform="translate(2709.67 2167)">WRITABLE</text></g><g clip-path="url(#ae)"><text font-family="Courier New,Courier New_MSFontService,sans-serif" font-size="73" font-weight="700" transform="translate(516.486 2288)">DPL</text></g><g clip-path="url(#af)"><text font-family="Courier New,Courier New_MSFontService,sans-serif" font-size="73" font-weight="400" transform="translate(750.62 2288)">DESCRIPTION PRIVILEGE LEVEL</text></g></g></svg>