<svg width="2172" height="1226" xmlns="http://www.w3.org/2000/svg" xmlns:xlink="http://www.w3.org/1999/xlink" overflow="hidden"><defs><clipPath id="clip0"><rect x="2190" y="297" width="2172" height="1226"/></clipPath></defs><g clip-path="url(#clip0)" transform="translate(-2190 -297)"><path d="M3326 815.5C3326 529.693 3557.69 298 3843.5 298 4129.31 298 4361 529.693 4361 815.5 4361 1101.31 4129.31 1333 3843.5 1333 3557.69 1333 3326 1101.31 3326 815.5Z" stroke="#000000" stroke-width="2.29167" stroke-miterlimit="8" fill="#F8CCB9" fill-rule="evenodd"/><path d="M3326 814 4359.73 814" stroke="#D74514" stroke-width="2.29167" stroke-miterlimit="8" fill="none" fill-rule="evenodd"/><path d="M3843 297 3843 1331.74" stroke="#D74514" stroke-width="2.29167" stroke-miterlimit="8" fill="none" fill-rule="evenodd"/><path d="M3477 448 4207.96 1179.67" stroke="#D74514" stroke-width="2.29167" stroke-miterlimit="8" fill="none" fill-rule="evenodd"/><path d="M0 0 730.956 731.669" stroke="#D74514" stroke-width="2.29167" stroke-miterlimit="8" fill="none" fill-rule="evenodd" transform="matrix(-1 0 0 1 4207.96 448)"/><path d="M3365.2 616.553 4320.13 1012.4" stroke="#D74514" stroke-width="2.29167" stroke-miterlimit="8" fill="none" fill-rule="evenodd"/><path d="M4040.78 336.541 3644.55 1292.41" stroke="#D74514" stroke-width="2.29167" stroke-miterlimit="8" fill="none" fill-rule="evenodd"/><path d="M3645.13 336.573 4040.2 1292.38" stroke="#D74514" stroke-width="2.29167" stroke-miterlimit="8" fill="none" fill-rule="evenodd"/><path d="M0 0 730.956 731.669" stroke="#D74514" stroke-width="2.29167" stroke-miterlimit="8" fill="none" fill-rule="evenodd" transform="matrix(-0.923778 -0.382928 -0.382928 0.923778 4320.37 616.476)"/><path d="M3337.68 704.035 4347.65 924.393" stroke="#D74514" stroke-width="2.29167" stroke-miterlimit="8" fill="none" fill-rule="evenodd"/><path d="M3952.95 308.738 3732.38 1319.69" stroke="#D74514" stroke-width="2.29167" stroke-miterlimit="8" fill="none" fill-rule="evenodd"/><path d="M3563.57 378.88 4121.76 1249.55" stroke="#D74514" stroke-width="2.29167" stroke-miterlimit="8" fill="none" fill-rule="evenodd"/><path d="M0 0 730.956 731.669" stroke="#D74514" stroke-width="2.29167" stroke-miterlimit="8" fill="none" fill-rule="evenodd" transform="matrix(-0.977016 -0.213168 -0.213168 0.977016 4277.73 534.696)"/><path d="M3418.36 519.321 4266.97 1109.63" stroke="#D74514" stroke-width="2.29167" stroke-miterlimit="8" fill="none" fill-rule="evenodd"/><path d="M4138.1 389.758 3547.22 1239.19" stroke="#D74514" stroke-width="2.29167" stroke-miterlimit="8" fill="none" fill-rule="evenodd"/><path d="M3751.54 305.449 3933.78 1323.5" stroke="#D74514" stroke-width="2.29167" stroke-miterlimit="8" fill="none" fill-rule="evenodd"/><path d="M0 0 730.956 731.669" stroke="#D74514" stroke-width="2.29167" stroke-miterlimit="8" fill="none" fill-rule="evenodd" transform="matrix(-0.820918 -0.571046 -0.571046 0.820918 4351.6 722.859)"/><path d="M3329.34 765.759 4358.52 862.671" stroke="#D74514" stroke-width="2.29167" stroke-miterlimit="8" fill="none" fill-rule="evenodd"/><path d="M3892.43 299.125 3795.43 1329.3" stroke="#D74514" stroke-width="2.29167" stroke-miterlimit="8" fill="none" fill-rule="evenodd"/><path d="M3514.36 415.728 4173.5 1212.7" stroke="#D74514" stroke-width="2.29167" stroke-miterlimit="8" fill="none" fill-rule="evenodd"/><path d="M0 0 730.956 731.669" stroke="#D74514" stroke-width="2.29167" stroke-miterlimit="8" fill="none" fill-rule="evenodd" transform="matrix(-0.995596 -0.0937495 -0.0937495 0.995596 4242.1 484.255)"/><path d="M3387.1 572.661 4300.72 1056.29" stroke="#D74514" stroke-width="2.29167" stroke-miterlimit="8" fill="none" fill-rule="evenodd"/><path d="M4085.96 357.219 3601.86 1271.73" stroke="#D74514" stroke-width="2.29167" stroke-miterlimit="8" fill="none" fill-rule="evenodd"/><path d="M3692.05 320.158 3995.77 1308.79" stroke="#D74514" stroke-width="2.29167" stroke-miterlimit="8" fill="none" fill-rule="evenodd"/><path d="M0 0 730.956 731.669" stroke="#D74514" stroke-width="2.29167" stroke-miterlimit="8" fill="none" fill-rule="evenodd" transform="matrix(-0.88381 -0.467845 -0.467845 0.88381 4338.07 662.132)"/><path d="M3351.5 657.179 4336.36 971.25" stroke="#D74514" stroke-width="2.29167" stroke-miterlimit="8" fill="none" fill-rule="evenodd"/><path d="M4001.12 321.303 3686.74 1307.13" stroke="#D74514" stroke-width="2.29167" stroke-miterlimit="8" fill="none" fill-rule="evenodd"/><path d="M3606.88 354.633 4080.98 1273.8" stroke="#D74514" stroke-width="2.29167" stroke-miterlimit="8" fill="none" fill-rule="evenodd"/><path d="M0 0 730.956 731.669" stroke="#D74514" stroke-width="2.29167" stroke-miterlimit="8" fill="none" fill-rule="evenodd" transform="matrix(-0.952728 -0.303824 -0.303824 0.952728 4303.28 576.715)"/><path d="M3449.14 480.842 4238.67 1148.11" stroke="#D74514" stroke-width="2.29167" stroke-miterlimit="8" fill="none" fill-rule="evenodd"/><path d="M4177.86 419.325 3509.95 1209.62" stroke="#D74514" stroke-width="2.29167" stroke-miterlimit="8" fill="none" fill-rule="evenodd"/><path d="M3800.91 299.148 3886.9 1329.8" stroke="#D74514" stroke-width="2.29167" stroke-miterlimit="8" fill="none" fill-rule="evenodd"/><path d="M0 0 730.956 731.669" stroke="#D74514" stroke-width="2.29167" stroke-miterlimit="8" fill="none" fill-rule="evenodd" transform="matrix(-0.763767 -0.645492 -0.645492 0.763767 4359.19 770.974)"/><path d="M3364 819C3364 553.903 3578.9 339 3844 339 4109.1 339 4324 553.903 4324 819 4324 1084.1 4109.1 1299 3844 1299 3578.9 1299 3364 1084.1 3364 819Z" fill="#FDEFE8" fill-rule="evenodd"/><path d="M3366 813 4322.13 813" stroke="#D74514" stroke-width="2.29167" stroke-miterlimit="8" fill="none" fill-rule="evenodd"/><path d="M3844 330 3844 1296.66" stroke="#D74514" stroke-width="2.29167" stroke-miterlimit="8" fill="none" fill-rule="evenodd"/><path d="M3419.41 592.816 4267.76 1033.83" stroke="#D74514" stroke-width="2.29167" stroke-miterlimit="8" fill="none" fill-rule="evenodd"/><path d="M4066.52 384.48 3620.65 1242.17" stroke="#D74514" stroke-width="2.29167" stroke-miterlimit="8" fill="none" fill-rule="evenodd"/><path d="M3478.17 505.065 4208.99 1121.58" stroke="#D74514" stroke-width="2.29167" stroke-miterlimit="8" fill="none" fill-rule="evenodd"/><path d="M4155.24 443.892 3531.93 1182.76" stroke="#D74514" stroke-width="2.29167" stroke-miterlimit="8" fill="none" fill-rule="evenodd"/><path d="M3551.57 428.182 4135.6 1198.46" stroke="#D74514" stroke-width="2.29167" stroke-miterlimit="8" fill="none" fill-rule="evenodd"/><path d="M4224.53 524.488 3462.64 1102.16" stroke="#D74514" stroke-width="2.29167" stroke-miterlimit="8" fill="none" fill-rule="evenodd"/><path d="M3638.01 375.892 4049.16 1250.75" stroke="#D74514" stroke-width="2.29167" stroke-miterlimit="8" fill="none" fill-rule="evenodd"/><path d="M4276.25 609.988 3410.92 1016.66" stroke="#D74514" stroke-width="2.29167" stroke-miterlimit="8" fill="none" fill-rule="evenodd"/><path d="M3743.55 340.459 3943.61 1286.19" stroke="#D74514" stroke-width="2.29167" stroke-miterlimit="8" fill="none" fill-rule="evenodd"/><path d="M4311.3 714.383 3375.87 912.263" stroke="#D74514" stroke-width="2.29167" stroke-miterlimit="8" fill="none" fill-rule="evenodd"/><path d="M3379.55 698.328 4307.61 928.318" stroke="#D74514" stroke-width="2.29167" stroke-miterlimit="8" fill="none" fill-rule="evenodd"/><path d="M3959.84 344.186 3727.32 1282.46" stroke="#D74514" stroke-width="2.29167" stroke-miterlimit="8" fill="none" fill-rule="evenodd"/><path d="M3371.3 759.774 4321.48 866.301" stroke="#D74514" stroke-width="2.29167" stroke-miterlimit="8" fill="none" fill-rule="evenodd"/><path d="M3900.24 332.718 3792.54 1293.36" stroke="#D74514" stroke-width="2.29167" stroke-miterlimit="8" fill="none" fill-rule="evenodd"/><path d="M3449.43 546.644 4243.36 1079.43" stroke="#D74514" stroke-width="2.29167" stroke-miterlimit="8" fill="none" fill-rule="evenodd"/><path d="M4115.72 411.702 3577.07 1214.37" stroke="#D74514" stroke-width="2.29167" stroke-miterlimit="8" fill="none" fill-rule="evenodd"/><path d="M3513.98 462.166 4178.8 1163.91" stroke="#D74514" stroke-width="2.29167" stroke-miterlimit="8" fill="none" fill-rule="evenodd"/><path d="M4193.44 484.248 3499.34 1141.83" stroke="#D74514" stroke-width="2.29167" stroke-miterlimit="8" fill="none" fill-rule="evenodd"/><path d="M3599.11 397.759 4093.68 1228.32" stroke="#D74514" stroke-width="2.29167" stroke-miterlimit="8" fill="none" fill-rule="evenodd"/><path d="M4257.15 568.444 3435.64 1057.63" stroke="#D74514" stroke-width="2.29167" stroke-miterlimit="8" fill="none" fill-rule="evenodd"/><path d="M3690.84 355.426 4001.95 1270.65" stroke="#D74514" stroke-width="2.29167" stroke-miterlimit="8" fill="none" fill-rule="evenodd"/><path d="M4299.02 659.173 3393.76 966.901" stroke="#D74514" stroke-width="2.29167" stroke-miterlimit="8" fill="none" fill-rule="evenodd"/><path d="M3799.67 331.972 3893.11 1294.1" stroke="#D74514" stroke-width="2.29167" stroke-miterlimit="8" fill="none" fill-rule="evenodd"/><path d="M4322.22 766.824 3370.57 859.251" stroke="#D74514" stroke-width="2.29167" stroke-miterlimit="8" fill="none" fill-rule="evenodd"/><path d="M3398.07 647.059 4294.72 979.016" stroke="#D74514" stroke-width="2.29167" stroke-miterlimit="8" fill="none" fill-rule="evenodd"/><path d="M4014.2 359.774 3678.59 1266.3" stroke="#D74514" stroke-width="2.29167" stroke-miterlimit="8" fill="none" fill-rule="evenodd"/><path d="M3402 814C3402 569.89 3599.89 372 3844 372 4088.11 372 4286 569.89 4286 814 4286 1058.11 4088.11 1256 3844 1256 3599.89 1256 3402 1058.11 3402 814Z" fill="#F8CCB9" fill-rule="evenodd"/><path d="M3402 813 4286 813" stroke="#D74514" stroke-width="2.29167" stroke-miterlimit="8" fill="none" fill-rule="evenodd"/><path d="M3844 371 3844 1254.42" stroke="#D74514" stroke-width="2.29167" stroke-miterlimit="8" fill="none" fill-rule="evenodd"/><path d="M3414.71 706.258 4272.68 919.19" stroke="#D74514" stroke-width="2.29167" stroke-miterlimit="8" fill="none" fill-rule="evenodd"/><path d="M3950.09 384.017 3737.3 1241.43" stroke="#D74514" stroke-width="2.29167" stroke-miterlimit="8" fill="none" fill-rule="evenodd"/><path d="M3454.29 603.613 4233.1 1021.84" stroke="#D74514" stroke-width="2.29167" stroke-miterlimit="8" fill="none" fill-rule="evenodd"/><path d="M4052.67 423.573 3634.72 1201.88" stroke="#D74514" stroke-width="2.29167" stroke-miterlimit="8" fill="none" fill-rule="evenodd"/><path d="M3514.82 517.425 4172.57 1108.02" stroke="#D74514" stroke-width="2.29167" stroke-miterlimit="8" fill="none" fill-rule="evenodd"/><path d="M4138.8 484.058 3548.59 1141.39" stroke="#D74514" stroke-width="2.29167" stroke-miterlimit="8" fill="none" fill-rule="evenodd"/><path d="M3615.21 434.699 4072.18 1190.75" stroke="#D74514" stroke-width="2.29167" stroke-miterlimit="8" fill="none" fill-rule="evenodd"/><path d="M4221.97 584.088 3465.43 1041.36" stroke="#D74514" stroke-width="2.29167" stroke-miterlimit="8" fill="none" fill-rule="evenodd"/><path d="M3722.69 387.908 3964.7 1237.54" stroke="#D74514" stroke-width="2.29167" stroke-miterlimit="8" fill="none" fill-rule="evenodd"/><path d="M4268.79 691.644 3418.6 933.804" stroke="#D74514" stroke-width="2.29167" stroke-miterlimit="8" fill="none" fill-rule="evenodd"/><path d="M3405.62 754.719 4281.97 870.729" stroke="#D74514" stroke-width="2.29167" stroke-miterlimit="8" fill="none" fill-rule="evenodd"/><path d="M3901.76 374.832 3785.83 1250.62" stroke="#D74514" stroke-width="2.29167" stroke-miterlimit="8" fill="none" fill-rule="evenodd"/><path d="M3432.49 650.882 4255.1 974.566" stroke="#D74514" stroke-width="2.29167" stroke-miterlimit="8" fill="none" fill-rule="evenodd"/><path d="M4005.53 401.688 3682.06 1223.76" stroke="#D74514" stroke-width="2.29167" stroke-miterlimit="8" fill="none" fill-rule="evenodd"/><path d="M3485.2 554.318 4202.39 1071.13" stroke="#D74514" stroke-width="2.29167" stroke-miterlimit="8" fill="none" fill-rule="evenodd"/><path d="M4102.03 454.363 3585.56 1171.09" stroke="#D74514" stroke-width="2.29167" stroke-miterlimit="8" fill="none" fill-rule="evenodd"/><path d="M3556.7 477.037 4130.89 1148.41" stroke="#D74514" stroke-width="2.29167" stroke-miterlimit="8" fill="none" fill-rule="evenodd"/><path d="M4179.7 525.442 3507.89 1100.01" stroke="#D74514" stroke-width="2.29167" stroke-miterlimit="8" fill="none" fill-rule="evenodd"/><path d="M3666.89 407.983 4020.7 1217.46" stroke="#D74514" stroke-width="2.29167" stroke-miterlimit="8" fill="none" fill-rule="evenodd"/><path d="M4248.8 635.706 3438.79 989.741" stroke="#D74514" stroke-width="2.29167" stroke-miterlimit="8" fill="none" fill-rule="evenodd"/><path d="M3779.59 375.703 3908 1249.74" stroke="#D74514" stroke-width="2.29167" stroke-miterlimit="8" fill="none" fill-rule="evenodd"/><path d="M4281.1 748.477 3406.49 876.971" stroke="#D74514" stroke-width="2.29167" stroke-miterlimit="8" fill="none" fill-rule="evenodd"/><path d="M3441 814C3441 591.982 3621.21 412 3843.5 412 4065.79 412 4246 591.982 4246 814 4246 1036.02 4065.79 1216 3843.5 1216 3621.21 1216 3441 1036.02 3441 814Z" fill="#FDEFE8" fill-rule="evenodd"/><path d="M3441 814 4244.18 814" stroke="#D74514" stroke-width="2.29167" stroke-miterlimit="8" fill="none" fill-rule="evenodd"/><path d="M3842 407 3842 1219.47" stroke="#D74514" stroke-width="2.29167" stroke-miterlimit="8" fill="none" fill-rule="evenodd"/><path d="M3461.78 685.08 4222.63 942.364" stroke="#D74514" stroke-width="2.29167" stroke-miterlimit="8" fill="none" fill-rule="evenodd"/><path d="M3972.34 428.892 3712.08 1198.55" stroke="#D74514" stroke-width="2.29167" stroke-miterlimit="8" fill="none" fill-rule="evenodd"/><path d="M3530.27 560.797 4154.14 1066.65" stroke="#D74514" stroke-width="2.29167" stroke-miterlimit="8" fill="none" fill-rule="evenodd"/><path d="M4098.06 498.176 3586.36 1129.27" stroke="#D74514" stroke-width="2.29167" stroke-miterlimit="8" fill="none" fill-rule="evenodd"/><path d="M3620.05 473.613 4064.37 1153.83" stroke="#D74514" stroke-width="2.29167" stroke-miterlimit="8" fill="none" fill-rule="evenodd"/><path d="M4178.42 594.104 3505.99 1033.34" stroke="#D74514" stroke-width="2.29167" stroke-miterlimit="8" fill="none" fill-rule="evenodd"/><path d="M3723.03 425.359 3961.38 1202.08" stroke="#D74514" stroke-width="2.29167" stroke-miterlimit="8" fill="none" fill-rule="evenodd"/><path d="M4226.13 695.907 3458.29 931.536" stroke="#D74514" stroke-width="2.29167" stroke-miterlimit="8" fill="none" fill-rule="evenodd"/><path d="M3447.53 748.664 4239.97 879.569" stroke="#D74514" stroke-width="2.29167" stroke-miterlimit="8" fill="none" fill-rule="evenodd"/><path d="M3909.96 413.311 3777.54 1214.92" stroke="#D74514" stroke-width="2.29167" stroke-miterlimit="8" fill="none" fill-rule="evenodd"/><path d="M3489.38 625.191 4198.13 1003.04" stroke="#D74514" stroke-width="2.29167" stroke-miterlimit="8" fill="none" fill-rule="evenodd"/><path d="M4034.86 455.641 3652.64 1172.59" stroke="#D74514" stroke-width="2.29167" stroke-miterlimit="8" fill="none" fill-rule="evenodd"/><path d="M3574.13 510.258 4113.38 1117.98" stroke="#D74514" stroke-width="2.29167" stroke-miterlimit="8" fill="none" fill-rule="evenodd"/><path d="M4144.13 547.574 3543.37 1080.66" stroke="#D74514" stroke-width="2.29167" stroke-miterlimit="8" fill="none" fill-rule="evenodd"/><path d="M3680 442.347 4007.51 1185.89" stroke="#D74514" stroke-width="2.29167" stroke-miterlimit="8" fill="none" fill-rule="evenodd"/><path d="M4211.27 652.233 3476.24 975.999" stroke="#D74514" stroke-width="2.29167" stroke-miterlimit="8" fill="none" fill-rule="evenodd"/><path d="M3789.46 411.523 3898.04 1216.71" stroke="#D74514" stroke-width="2.29167" stroke-miterlimit="8" fill="none" fill-rule="evenodd"/><path d="M4241.74 760.449 3445.76 867.783" stroke="#D74514" stroke-width="2.29167" stroke-miterlimit="8" fill="none" fill-rule="evenodd"/><path d="M3477 815.5C3477 614.192 3640.19 451 3841.5 451 4042.81 451 4206 614.192 4206 815.5 4206 1016.81 4042.81 1180 3841.5 1180 3640.19 1180 3477 1016.81 3477 815.5Z" fill="#F8CCB9" fill-rule="evenodd"/><path d="M3477 814 4207.33 814" stroke="#D74514" stroke-width="2.29167" stroke-miterlimit="8" fill="none" fill-rule="evenodd"/><path d="M3843 449 3843 1179.61" stroke="#D74514" stroke-width="2.29167" stroke-miterlimit="8" fill="none" fill-rule="evenodd"/><path d="M3584 556 4100.42 1072.62" stroke="#D74514" stroke-width="2.29167" stroke-miterlimit="8" fill="none" fill-rule="evenodd"/><path d="M0 0 516.42 516.621" stroke="#D74514" stroke-width="2.29167" stroke-miterlimit="8" fill="none" fill-rule="evenodd" transform="matrix(-1 0 0 1 4100.42 556)"/><path d="M3505.22 674.401 4179.88 954.065" stroke="#D74514" stroke-width="2.29167" stroke-miterlimit="8" fill="none" fill-rule="evenodd"/><path d="M3982.44 476.771 3702.67 1151.7" stroke="#D74514" stroke-width="2.29167" stroke-miterlimit="8" fill="none" fill-rule="evenodd"/><path d="M3702.94 476.736 3982.17 1151.73" stroke="#D74514" stroke-width="2.29167" stroke-miterlimit="8" fill="none" fill-rule="evenodd"/><path d="M0 0 516.42 516.621" stroke="#D74514" stroke-width="2.29167" stroke-miterlimit="8" fill="none" fill-rule="evenodd" transform="matrix(-0.923778 -0.382928 -0.382928 0.923778 4180 674.487)"/><path d="M3485.78 736.209 4199.33 891.891" stroke="#D74514" stroke-width="2.29167" stroke-miterlimit="8" fill="none" fill-rule="evenodd"/><path d="M3920.43 457.14 3764.68 1170.96" stroke="#D74514" stroke-width="2.29167" stroke-miterlimit="8" fill="none" fill-rule="evenodd"/><path d="M3645.34 506.634 4039.77 1121.47" stroke="#D74514" stroke-width="2.29167" stroke-miterlimit="8" fill="none" fill-rule="evenodd"/><path d="M0 0 516.42 516.621" stroke="#D74514" stroke-width="2.29167" stroke-miterlimit="8" fill="none" fill-rule="evenodd" transform="matrix(-0.977016 -0.213168 -0.213168 0.977016 4149.89 616.718)"/><path d="M3542.78 605.707 4142.32 1022.76" stroke="#D74514" stroke-width="2.29167" stroke-miterlimit="8" fill="none" fill-rule="evenodd"/><path d="M4051.16 514.347 3633.95 1114.12" stroke="#D74514" stroke-width="2.29167" stroke-miterlimit="8" fill="none" fill-rule="evenodd"/><path d="M3778.09 454.732 3907.02 1173.74" stroke="#D74514" stroke-width="2.29167" stroke-miterlimit="8" fill="none" fill-rule="evenodd"/><path d="M0 0 516.42 516.621" stroke="#D74514" stroke-width="2.29167" stroke-miterlimit="8" fill="none" fill-rule="evenodd" transform="matrix(-0.820918 -0.571046 -0.571046 0.820918 4202.03 749.631)"/><path d="M3511 815.5C3511 633.522 3658.52 486 3840.5 486 4022.48 486 4170 633.522 4170 815.5 4170 997.478 4022.48 1145 3840.5 1145 3658.52 1145 3511 997.478 3511 815.5Z" fill="#FDEFE8" fill-rule="evenodd"/><path d="M3511 814 4174.09 814" stroke="#D74514" stroke-width="2.29167" stroke-miterlimit="8" fill="none" fill-rule="evenodd"/><path d="M3842 483 3842 1145.44" stroke="#D74514" stroke-width="2.29167" stroke-miterlimit="8" fill="none" fill-rule="evenodd"/><path d="M3548.19 660.931 4136.53 966.781" stroke="#D74514" stroke-width="2.29167" stroke-miterlimit="8" fill="none" fill-rule="evenodd"/><path d="M3995.13 519.974 3689.58 1107.74" stroke="#D74514" stroke-width="2.29167" stroke-miterlimit="8" fill="none" fill-rule="evenodd"/><path d="M3588.94 600.075 4095.77 1027.64" stroke="#D74514" stroke-width="2.29167" stroke-miterlimit="8" fill="none" fill-rule="evenodd"/><path d="M4055.93 560.689 3628.78 1067.02" stroke="#D74514" stroke-width="2.29167" stroke-miterlimit="8" fill="none" fill-rule="evenodd"/><path d="M3642.24 549.923 4042.47 1077.79" stroke="#D74514" stroke-width="2.29167" stroke-miterlimit="8" fill="none" fill-rule="evenodd"/><path d="M4106.55 613.545 3578.16 1014.17" stroke="#D74514" stroke-width="2.29167" stroke-miterlimit="8" fill="none" fill-rule="evenodd"/><path d="M3701.48 514.089 3983.23 1113.62" stroke="#D74514" stroke-width="2.29167" stroke-miterlimit="8" fill="none" fill-rule="evenodd"/><path d="M4142.42 672.84 3542.29 954.872" stroke="#D74514" stroke-width="2.29167" stroke-miterlimit="8" fill="none" fill-rule="evenodd"/><path d="M3773.81 489.807 3910.9 1137.9" stroke="#D74514" stroke-width="2.29167" stroke-miterlimit="8" fill="none" fill-rule="evenodd"/><path d="M4166.72 745.24 3517.99 882.472" stroke="#D74514" stroke-width="2.29167" stroke-miterlimit="8" fill="none" fill-rule="evenodd"/><path d="M3520.55 734.105 4164.17 893.607" stroke="#D74514" stroke-width="2.29167" stroke-miterlimit="8" fill="none" fill-rule="evenodd"/><path d="M3922.03 492.361 3762.68 1135.35" stroke="#D74514" stroke-width="2.29167" stroke-miterlimit="8" fill="none" fill-rule="evenodd"/><path d="M3547 814.5C3547 649.091 3681.09 515 3846.5 515 4011.91 515 4146 649.091 4146 814.5 4146 979.909 4011.91 1114 3846.5 1114 3681.09 1114 3547 979.909 3547 814.5Z" fill="#F8CCB9" fill-rule="evenodd"/><path d="M3540 814 4145.96 814" stroke="#D74514" stroke-width="2.29167" stroke-miterlimit="8" fill="none" fill-rule="evenodd"/><path d="M3843 515 3843 1113.76" stroke="#D74514" stroke-width="2.29167" stroke-miterlimit="8" fill="none" fill-rule="evenodd"/><path d="M3548.99 741.005 4137.11 886.963" stroke="#D74514" stroke-width="2.29167" stroke-miterlimit="8" fill="none" fill-rule="evenodd"/><path d="M3915.16 523.418 3770.94 1104.55" stroke="#D74514" stroke-width="2.29167" stroke-miterlimit="8" fill="none" fill-rule="evenodd"/><path d="M3576.13 670.644 4109.98 957.324" stroke="#D74514" stroke-width="2.29167" stroke-miterlimit="8" fill="none" fill-rule="evenodd"/><path d="M3984.69 550.228 3701.41 1077.74" stroke="#D74514" stroke-width="2.29167" stroke-miterlimit="8" fill="none" fill-rule="evenodd"/><path d="M3617.61 611.565 4068.49 1016.4" stroke="#D74514" stroke-width="2.29167" stroke-miterlimit="8" fill="none" fill-rule="evenodd"/><path d="M4043.07 591.223 3643.04 1036.74" stroke="#D74514" stroke-width="2.29167" stroke-miterlimit="8" fill="none" fill-rule="evenodd"/><path d="M3688.19 557.769 3997.91 1070.2" stroke="#D74514" stroke-width="2.29167" stroke-miterlimit="8" fill="none" fill-rule="evenodd"/><path d="M4102.34 657.261 3583.76 970.708" stroke="#D74514" stroke-width="2.29167" stroke-miterlimit="8" fill="none" fill-rule="evenodd"/><path d="M3761.04 526.056 3925.06 1101.91" stroke="#D74514" stroke-width="2.29167" stroke-miterlimit="8" fill="none" fill-rule="evenodd"/><path d="M4134.44 730.987 3551.66 896.981" stroke="#D74514" stroke-width="2.29167" stroke-miterlimit="8" fill="none" fill-rule="evenodd"/><path d="M3580 814C3580 667.644 3698.64 549 3845 549 3991.36 549 4110 667.644 4110 814 4110 960.355 3991.36 1079 3845 1079 3698.64 1079 3580 960.355 3580 814Z" fill="#FDEFE8" fill-rule="evenodd"/><path d="M3576 813 4109.45 813" stroke="#D74514" stroke-width="2.29167" stroke-miterlimit="8" fill="none" fill-rule="evenodd"/><path d="M3843 549 3843 1078.03" stroke="#D74514" stroke-width="2.29167" stroke-miterlimit="8" fill="none" fill-rule="evenodd"/><path d="M3590.46 727.723 4095.8 898.604" stroke="#D74514" stroke-width="2.29167" stroke-miterlimit="8" fill="none" fill-rule="evenodd"/><path d="M3927.86 562.586 3758.4 1063.74" stroke="#D74514" stroke-width="2.29167" stroke-miterlimit="8" fill="none" fill-rule="evenodd"/><path d="M3635.95 645.178 4050.31 981.148" stroke="#D74514" stroke-width="2.29167" stroke-miterlimit="8" fill="none" fill-rule="evenodd"/><path d="M4009.72 607.7 3676.53 1018.63" stroke="#D74514" stroke-width="2.29167" stroke-miterlimit="8" fill="none" fill-rule="evenodd"/><path d="M3698.47 591.706 3987.78 1034.62" stroke="#D74514" stroke-width="2.29167" stroke-miterlimit="8" fill="none" fill-rule="evenodd"/><path d="M4066.44 667.299 3619.82 959.027" stroke="#D74514" stroke-width="2.29167" stroke-miterlimit="8" fill="none" fill-rule="evenodd"/><path d="M3765.53 560.286 3920.73 1066.04" stroke="#D74514" stroke-width="2.29167" stroke-miterlimit="8" fill="none" fill-rule="evenodd"/><path d="M4098.12 734.914 3588.14 891.412" stroke="#D74514" stroke-width="2.29167" stroke-miterlimit="8" fill="none" fill-rule="evenodd"/><path d="M3610 814.5C3610 685.542 3714.54 581 3843.5 581 3972.46 581 4077 685.542 4077 814.5 4077 943.458 3972.46 1048 3843.5 1048 3714.54 1048 3610 943.458 3610 814.5Z" fill="#F8CCB9" fill-rule="evenodd"/><path d="M3610 814 4076.82 814" stroke="#D74514" stroke-width="2.29167" stroke-miterlimit="8" fill="none" fill-rule="evenodd"/><path d="M3843 581 3843 1048.06" stroke="#D74514" stroke-width="2.29167" stroke-miterlimit="8" fill="none" fill-rule="evenodd"/><path d="M3678 649 4008.09 979.261" stroke="#D74514" stroke-width="2.29167" stroke-miterlimit="8" fill="none" fill-rule="evenodd"/><path d="M0 0 330.09 330.261" stroke="#D74514" stroke-width="2.29167" stroke-miterlimit="8" fill="none" fill-rule="evenodd" transform="matrix(-1 0 0 1 4008.09 649)"/><path d="M3627.56 724.871 4058.8 903.629" stroke="#D74514" stroke-width="2.29167" stroke-miterlimit="8" fill="none" fill-rule="evenodd"/><path d="M3932.61 598.52 3753.76 1029.98" stroke="#D74514" stroke-width="2.29167" stroke-miterlimit="8" fill="none" fill-rule="evenodd"/><path d="M3753.95 598.506 3932.41 1029.99" stroke="#D74514" stroke-width="2.29167" stroke-miterlimit="8" fill="none" fill-rule="evenodd"/><path d="M0 0 330.09 330.261" stroke="#D74514" stroke-width="2.29167" stroke-miterlimit="8" fill="none" fill-rule="evenodd" transform="matrix(-0.923778 -0.382928 -0.382928 0.923778 4058.88 724.906)"/><path d="M3650 813C3650 706.409 3736.63 620 3843.5 620 3950.37 620 4037 706.409 4037 813 4037 919.591 3950.37 1006 3843.5 1006 3736.63 1006 3650 919.591 3650 813Z" fill="#FDEFE8" fill-rule="evenodd"/><path d="M3650 813 4036.47 813" stroke="#D74514" stroke-width="2.29167" stroke-miterlimit="8" fill="none" fill-rule="evenodd"/><path d="M3843 620 3843 1006.47" stroke="#D74514" stroke-width="2.29167" stroke-miterlimit="8" fill="none" fill-rule="evenodd"/><path d="M3673.21 721.341 4013.69 904.182" stroke="#D74514" stroke-width="2.29167" stroke-miterlimit="8" fill="none" fill-rule="evenodd"/><path d="M3934.87 642.521 3752.03 983.003" stroke="#D74514" stroke-width="2.29167" stroke-miterlimit="8" fill="none" fill-rule="evenodd"/><path d="M3743.49 647.388 3943.4 978.135" stroke="#D74514" stroke-width="2.29167" stroke-miterlimit="8" fill="none" fill-rule="evenodd"/><path d="M4008.82 712.805 3678.08 912.718" stroke="#D74514" stroke-width="2.29167" stroke-miterlimit="8" fill="none" fill-rule="evenodd"/><path d="M3685 811C3685 724.843 3754.84 655 3841 655 3927.16 655 3997 724.843 3997 811 3997 897.156 3927.16 967 3841 967 3754.84 967 3685 897.156 3685 811Z" fill-rule="evenodd"/><path d="M3823 706C3823 693.85 3832.85 684 3845 684 3857.15 684 3867 693.85 3867 706 3867 718.15 3857.15 728 3845 728 3832.85 728 3823 718.15 3823 706Z" fill="#FFFFFF" fill-rule="evenodd"/><path d="M3911 764C3911 751.85 3920.85 742 3933 742 3945.15 742 3955 751.85 3955 764 3955 776.15 3945.15 786 3933 786 3920.85 786 3911 776.15 3911 764Z" fill="#FFFFFF" fill-rule="evenodd"/><path d="M3911 866C3911 853.85 3920.85 844 3933 844 3945.15 844 3955 853.85 3955 866 3955 878.15 3945.15 888 3933 888 3920.85 888 3911 878.15 3911 866Z" fill="#FFFFFF" fill-rule="evenodd"/><path d="M3728 763C3728 750.85 3737.85 741 3750 741 3762.15 741 3772 750.85 3772 763 3772 775.15 3762.15 785 3750 785 3737.85 785 3728 775.15 3728 763Z" fill="#FFFFFF" fill-rule="evenodd"/><path d="M3730 866C3730 853.85 3739.85 844 3752 844 3764.15 844 3774 853.85 3774 866 3774 878.15 3764.15 888 3752 888 3739.85 888 3730 878.15 3730 866Z" fill="#FFFFFF" fill-rule="evenodd"/><path d="M3823 919.5C3823 907.073 3832.85 897 3845 897 3857.15 897 3867 907.073 3867 919.5 3867 931.926 3857.15 942 3845 942 3832.85 942 3823 931.926 3823 919.5Z" fill="#FFFFFF" fill-rule="evenodd"/><path d="M3808 816C3808 795.565 3824.57 779 3845 779 3865.43 779 3882 795.565 3882 816 3882 836.434 3865.43 853 3845 853 3824.57 853 3808 836.434 3808 816Z" fill="#D74514" fill-rule="evenodd"/><text font-family="Microsoft YaHei,Microsoft YaHei_MSFontService,sans-serif" font-weight="400" font-size="83" transform="matrix(1 0 0 1 2626.48 1453)">CHS<tspan font-size="83" x="1143.35" y="-4">LBA</tspan></text><path d="M2192 816.5C2192 530.693 2423.69 299 2709.5 299 2995.31 299 3227 530.693 3227 816.5 3227 1102.31 2995.31 1334 2709.5 1334 2423.69 1334 2192 1102.31 2192 816.5Z" stroke="#000000" stroke-width="2.29167" stroke-miterlimit="8" fill="#F8CCB9" fill-rule="evenodd"/><path d="M2230 817C2230 551.903 2444.9 337 2710 337 2975.1 337 3190 551.903 3190 817 3190 1082.1 2975.1 1297 2710 1297 2444.9 1297 2230 1082.1 2230 817Z" fill="#FDEFE8" fill-rule="evenodd"/><path d="M2268 817C2268 572.89 2465.89 375 2710 375 2954.11 375 3152 572.89 3152 817 3152 1061.11 2954.11 1259 2710 1259 2465.89 1259 2268 1061.11 2268 817Z" fill="#F8CCB9" fill-rule="evenodd"/><path d="M2307 817C2307 594.981 2487.21 415 2709.5 415 2931.79 415 3112 594.981 3112 817 3112 1039.02 2931.79 1219 2709.5 1219 2487.21 1219 2307 1039.02 2307 817Z" fill="#FDEFE8" fill-rule="evenodd"/><path d="M2345 817C2345 615.968 2508.19 453 2709.5 453 2910.81 453 3074 615.968 3074 817 3074 1018.03 2910.81 1181 2709.5 1181 2508.19 1181 2345 1018.03 2345 817Z" fill="#F8CCB9" fill-rule="evenodd"/><path d="M2380 817C2380 634.746 2527.52 487 2709.5 487 2891.48 487 3039 634.746 3039 817 3039 999.254 2891.48 1147 2709.5 1147 2527.52 1147 2380 999.254 2380 817Z" fill="#FDEFE8" fill-rule="evenodd"/><path d="M2410 815.5C2410 650.091 2544.09 516 2709.5 516 2874.91 516 3009 650.091 3009 815.5 3009 980.909 2874.91 1115 2709.5 1115 2544.09 1115 2410 980.909 2410 815.5Z" fill="#F8CCB9" fill-rule="evenodd"/><path d="M2445 816C2445 669.645 2563.64 551 2710 551 2856.36 551 2975 669.645 2975 816 2975 962.356 2856.36 1081 2710 1081 2563.64 1081 2445 962.356 2445 816Z" fill="#FDEFE8" fill-rule="evenodd"/><path d="M2476 815.5C2476 686.542 2580.54 582 2709.5 582 2838.46 582 2943 686.542 2943 815.5 2943 944.458 2838.46 1049 2709.5 1049 2580.54 1049 2476 944.458 2476 815.5Z" fill="#F8CCB9" fill-rule="evenodd"/><path d="M2516 816C2516 709.409 2602.63 623 2709.5 623 2816.37 623 2903 709.409 2903 816 2903 922.591 2816.37 1009 2709.5 1009 2602.63 1009 2516 922.591 2516 816Z" fill="#FDEFE8" fill-rule="evenodd"/><path d="M2190 816 3225 816" stroke="#D74514" stroke-width="2.29167" stroke-miterlimit="8" fill="none" fill-rule="evenodd"/><path d="M2708 299 2708 1334" stroke="#D74514" stroke-width="2.29167" stroke-miterlimit="8" fill="none" fill-rule="evenodd"/><path d="M2342 451 3073.85 1182.85" stroke="#D74514" stroke-width="2.29167" stroke-miterlimit="8" fill="none" fill-rule="evenodd"/><path d="M0 0 731.853 731.853" stroke="#D74514" stroke-width="2.29167" stroke-miterlimit="8" fill="none" fill-rule="evenodd" transform="matrix(-1 0 0 1 3073.85 451)"/><path d="M2229.9 618.588 3186 1014.92" stroke="#D74514" stroke-width="2.29167" stroke-miterlimit="8" fill="none" fill-rule="evenodd"/><path d="M2906.11 338.699 2509.78 1294.81" stroke="#D74514" stroke-width="2.29167" stroke-miterlimit="8" fill="none" fill-rule="evenodd"/><path d="M2510.04 338.594 2905.86 1294.91" stroke="#D74514" stroke-width="2.29167" stroke-miterlimit="8" fill="none" fill-rule="evenodd"/><path d="M0 0 731.853 731.853" stroke="#D74514" stroke-width="2.29167" stroke-miterlimit="8" fill="none" fill-rule="evenodd" transform="matrix(-0.923778 -0.382928 -0.382928 0.923778 3186.11 618.841)"/><path d="M2201.03 712.225 3214.93 920.126" stroke="#D74514" stroke-width="2.29167" stroke-miterlimit="8" fill="none" fill-rule="evenodd"/><path d="M2811.93 309.225 2604.03 1323.12" stroke="#D74514" stroke-width="2.29167" stroke-miterlimit="8" fill="none" fill-rule="evenodd"/><path d="M2423.01 384.203 2992.94 1248.15" stroke="#D74514" stroke-width="2.29167" stroke-miterlimit="8" fill="none" fill-rule="evenodd"/><path d="M0 0 731.853 731.853" stroke="#D74514" stroke-width="2.29167" stroke-miterlimit="8" fill="none" fill-rule="evenodd" transform="matrix(-0.979618 -0.200871 -0.200871 0.979618 3139.95 531.211)"/><path d="M2279.42 526.277 3136.43 1106.58" stroke="#D74514" stroke-width="2.29167" stroke-miterlimit="8" fill="none" fill-rule="evenodd"/><path d="M2998.08 387.926 2417.77 1244.93" stroke="#D74514" stroke-width="2.29167" stroke-miterlimit="8" fill="none" fill-rule="evenodd"/><path d="M2610.09 308.263 2805.75 1324.6" stroke="#D74514" stroke-width="2.29167" stroke-miterlimit="8" fill="none" fill-rule="evenodd"/><path d="M0 0 731.853 731.853" stroke="#D74514" stroke-width="2.29167" stroke-miterlimit="8" fill="none" fill-rule="evenodd" transform="matrix(-0.82803 -0.560684 -0.560684 0.82803 3216.09 718.601)"/><path d="M2554 816C2554 729.844 2623.84 660 2710 660 2796.16 660 2866 729.844 2866 816 2866 902.156 2796.16 972 2710 972 2623.84 972 2554 902.156 2554 816Z" fill-rule="evenodd"/><path d="M2692 711.5C2692 699.073 2701.85 689 2714 689 2726.15 689 2736 699.073 2736 711.5 2736 723.926 2726.15 734 2714 734 2701.85 734 2692 723.926 2692 711.5Z" fill="#FFFFFF" fill-rule="evenodd"/><path d="M2779 769C2779 756.85 2789.07 747 2801.5 747 2813.93 747 2824 756.85 2824 769 2824 781.15 2813.93 791 2801.5 791 2789.07 791 2779 781.15 2779 769Z" fill="#FFFFFF" fill-rule="evenodd"/><path d="M2779 872C2779 859.85 2789.07 850 2801.5 850 2813.93 850 2824 859.85 2824 872 2824 884.15 2813.93 894 2801.5 894 2789.07 894 2779 884.15 2779 872Z" fill="#FFFFFF" fill-rule="evenodd"/><path d="M2597 768C2597 755.85 2606.85 746 2619 746 2631.15 746 2641 755.85 2641 768 2641 780.15 2631.15 790 2619 790 2606.85 790 2597 780.15 2597 768Z" fill="#FFFFFF" fill-rule="evenodd"/><path d="M2598 871C2598 858.85 2608.07 849 2620.5 849 2632.93 849 2643 858.85 2643 871 2643 883.15 2632.93 893 2620.5 893 2608.07 893 2598 883.15 2598 871Z" fill="#FFFFFF" fill-rule="evenodd"/><path d="M2692 925C2692 912.85 2701.85 903 2714 903 2726.15 903 2736 912.85 2736 925 2736 937.15 2726.15 947 2714 947 2701.85 947 2692 937.15 2692 925Z" fill="#FFFFFF" fill-rule="evenodd"/><path d="M2677 821C2677 800.566 2693.57 784 2714 784 2734.43 784 2751 800.566 2751 821 2751 841.435 2734.43 858 2714 858 2693.57 858 2677 841.435 2677 821Z" fill="#D74514" fill-rule="evenodd"/></g></svg>