<svg width="1858" height="1271" xmlns="http://www.w3.org/2000/svg" xmlns:xlink="http://www.w3.org/1999/xlink" overflow="hidden"><defs><clipPath id="clip0"><rect x="119" y="412" width="1858" height="1271"/></clipPath></defs><g clip-path="url(#clip0)" transform="translate(-119 -412)"><path d="M119 689.964C119 656.847 145.847 630 178.964 630L845.036 630C878.153 630 905 656.847 905 689.964L905 1585.04C905 1618.15 878.153 1645 845.036 1645L178.964 1645C145.847 1645 119 1618.15 119 1585.04Z" fill="#A32D0F" fill-rule="evenodd"/><path d="M164 1031C164 839.91 318.909 685 510 685 701.09 685 856 839.91 856 1031 856 1222.09 701.09 1377 510 1377 318.909 1377 164 1222.09 164 1031Z" fill="#5D1709" fill-rule="evenodd"/><path d="M164 1045.14C164 1016.35 187.346 993 216.144 993L803.855 993C832.654 993 856 1016.35 856 1045.14L856 1411.86C856 1440.65 832.654 1464 803.855 1464L216.144 1464C187.346 1464 164 1440.65 164 1411.86Z" fill="#5D1709" fill-rule="evenodd"/><path d="M207 1031C207 863.658 342.658 728 510 728 677.342 728 813 863.658 813 1031 813 1198.34 677.342 1334 510 1334 342.658 1334 207 1198.34 207 1031Z" stroke="#000000" stroke-width="2.29167" stroke-miterlimit="8" fill="#F8CCB9" fill-rule="evenodd"/><path d="M229 1031C229 875.808 354.808 750 510 750 665.192 750 791 875.808 791 1031 791 1186.19 665.192 1312 510 1312 354.808 1312 229 1186.19 229 1031Z" fill="#FDEFE8" fill-rule="evenodd"/><path d="M251 1031C251 887.958 366.958 772 510 772 653.042 772 769 887.958 769 1031 769 1174.04 653.042 1290 510 1290 366.958 1290 251 1174.04 251 1031Z" fill="#F8CCB9" fill-rule="evenodd"/><path d="M274 1031C274 900.661 379.661 795 510 795 640.339 795 746 900.661 746 1031 746 1161.34 640.339 1267 510 1267 379.661 1267 274 1161.34 274 1031Z" fill="#FDEFE8" fill-rule="evenodd"/><path d="M297 1031.5C297 913.587 392.587 818 510.5 818 628.413 818 724 913.587 724 1031.5 724 1149.41 628.413 1245 510.5 1245 392.587 1245 297 1149.41 297 1031.5Z" fill="#F8CCB9" fill-rule="evenodd"/><path d="M317 1031C317 924.409 403.409 838 510 838 616.591 838 703 924.409 703 1031 703 1137.59 616.591 1224 510 1224 403.409 1224 317 1137.59 317 1031Z" fill="#FDEFE8" fill-rule="evenodd"/><path d="M335 1030.5C335 933.574 413.35 855 510 855 606.65 855 685 933.574 685 1030.5 685 1127.43 606.65 1206 510 1206 413.35 1206 335 1127.43 335 1030.5Z" fill="#F8CCB9" fill-rule="evenodd"/><path d="M355 1030.5C355 944.62 424.396 875 510 875 595.604 875 665 944.62 665 1030.5 665 1116.38 595.604 1186 510 1186 424.396 1186 355 1116.38 355 1030.5Z" fill="#FDEFE8" fill-rule="evenodd"/><path d="M373 1030.5C373 955.113 434.337 894 510 894 585.663 894 647 955.113 647 1030.5 647 1105.89 585.663 1167 510 1167 434.337 1167 373 1105.89 373 1030.5Z" fill="#F8CCB9" fill-rule="evenodd"/><path d="M397 1030.5C397 967.816 447.592 917 510 917 572.408 917 623 967.816 623 1030.5 623 1093.18 572.408 1144 510 1144 447.592 1144 397 1093.18 397 1030.5Z" fill="#FDEFE8" fill-rule="evenodd"/><path d="M419 1030.5C419 979.966 459.742 939 510 939 560.258 939 601 979.966 601 1030.5 601 1081.03 560.258 1122 510 1122 459.742 1122 419 1081.03 419 1030.5Z" fill-rule="evenodd"/><path d="M269.763 1354.59C262.208 1347.8 261.594 1336.16 268.392 1328.6L415.263 1165.37C422.061 1157.81 433.696 1157.2 441.251 1164L449.165 1171.12C456.72 1177.92 457.334 1189.55 450.537 1197.11L303.666 1360.34C296.868 1367.9 285.233 1368.51 277.678 1361.71Z" fill="#D74514" fill-rule="evenodd"/><path d="M234.244 1399.46C210.797 1378.36 208.891 1342.25 229.988 1318.8 251.085 1295.36 287.195 1293.45 310.642 1314.55 334.09 1335.65 335.995 1371.76 314.899 1395.2 293.802 1418.65 257.692 1420.56 234.244 1399.46Z" fill="#FFFFFF" fill-rule="evenodd"/><path d="M246.681 1385.64C230.867 1371.41 229.582 1347.05 243.81 1331.24 258.039 1315.43 282.392 1314.14 298.206 1328.37 314.02 1342.6 315.305 1366.95 301.077 1382.77 286.848 1398.58 262.494 1399.87 246.681 1385.64Z" fill="#E6E6E6" fill-rule="evenodd"/><path d="M601 1356.25C601 1347.27 608.274 1340 617.247 1340L797.753 1340C806.726 1340 814 1347.27 814 1356.25L814 1396.75C814 1405.73 806.726 1413 797.753 1413L617.247 1413C608.274 1413 601 1405.73 601 1396.75Z" fill="#D74514" fill-rule="evenodd"/><path d="M500 969C500 961.82 505.82 956 513 956 520.18 956 526 961.82 526 969 526 976.18 520.18 982 513 982 505.82 982 500 976.18 500 969Z" fill="#FFFFFF" fill-rule="evenodd"/><path d="M551 1003C551 995.82 556.82 990 564 990 571.18 990 577 995.82 577 1003 577 1010.18 571.18 1016 564 1016 556.82 1016 551 1010.18 551 1003Z" fill="#FFFFFF" fill-rule="evenodd"/><path d="M551 1063C551 1055.82 556.82 1050 564 1050 571.18 1050 577 1055.82 577 1063 577 1070.18 571.18 1076 564 1076 556.82 1076 551 1070.18 551 1063Z" fill="#FFFFFF" fill-rule="evenodd"/><path d="M444 1002C444 994.82 449.82 989 457 989 464.18 989 470 994.82 470 1002 470 1009.18 464.18 1015 457 1015 449.82 1015 444 1009.18 444 1002Z" fill="#FFFFFF" fill-rule="evenodd"/><path d="M445 1062C445 1054.82 450.82 1049 458 1049 465.18 1049 471 1054.82 471 1062 471 1069.18 465.18 1075 458 1075 450.82 1075 445 1069.18 445 1062Z" fill="#FFFFFF" fill-rule="evenodd"/><path d="M500 1094C500 1086.82 505.82 1081 513 1081 520.18 1081 526 1086.82 526 1094 526 1101.18 520.18 1107 513 1107 505.82 1107 500 1101.18 500 1094Z" fill="#FFFFFF" fill-rule="evenodd"/><path d="M491 1033.5C491 1021.63 500.626 1012 512.5 1012 524.374 1012 534 1021.63 534 1033.5 534 1045.37 524.374 1055 512.5 1055 500.626 1055 491 1045.37 491 1033.5Z" fill="#D74514" fill-rule="evenodd"/><path d="M151 1584.5C151 1566 165.998 1551 184.5 1551 203.001 1551 218 1566 218 1584.5 218 1603 203.001 1618 184.5 1618 165.998 1618 151 1603 151 1584.5Z" fill="#FFFFFF" fill-rule="evenodd"/><path d="M813 1584.5C813 1566 827.998 1551 846.5 1551 865.002 1551 880 1566 880 1584.5 880 1603 865.002 1618 846.5 1618 827.998 1618 813 1603 813 1584.5Z" fill="#FFFFFF" fill-rule="evenodd"/><path d="M813 688.5C813 669.998 827.998 655 846.5 655 865.002 655 880 669.998 880 688.5 880 707.001 865.002 722 846.5 722 827.998 722 813 707.001 813 688.5Z" fill="#FFFFFF" fill-rule="evenodd"/><path d="M151 688.5C151 669.998 165.998 655 184.5 655 203.001 655 218 669.998 218 688.5 218 707.001 203.001 722 184.5 722 165.998 722 151 707.001 151 688.5Z" fill="#FFFFFF" fill-rule="evenodd"/><path d="M593.296 1067.71 789.038 1147.13C765.434 1205.31 725.822 1252.18 677.346 1284.72L627.31 1311.76 544.597 1116.49 544.785 1116.43C560.936 1109.6 575.134 1098.15 585.225 1082.99L593.296 1067.71Z" fill="#D74514" fill-rule="evenodd" fill-opacity="0.6"/><text font-family="Microsoft YaHei,Microsoft YaHei_MSFontService,sans-serif" font-weight="400" font-size="83" transform="matrix(1 0 0 1 938.72 1442)">Sectors<tspan font-size="83" x="-766.083" y="-915">Cylinders </tspan><tspan font-size="83" x="-378.791" y="-915">(tracks)</tspan></text><path d="M687.527 1202.39 932.296 1323.1 928.241 1331.32 683.473 1210.61ZM936.293 1304.63 967.264 1345.45 916.022 1345.73Z"/><path d="M4.58295-0.0592061 7.51069 226.568-1.65521 226.686-4.58295 0.0592061ZM25.7833 221.748 3.4606 267.873-20.0462 222.34Z" transform="matrix(1 0 0 -1 297.5 831.373)"/><path d="M346.616 817.856 346.03 603.762 355.196 603.737 355.783 817.831ZM327.709 608.396 350.5 562.5 373.542 608.27Z"/><path d="M400.158 812.027 399.121 602.772 408.288 602.727 409.324 811.982ZM380.811 607.446 403.5 561.5 426.644 607.219Z"/><path d="M4.58332-0.0105661 5.06746 209.998-4.09918 210.019-4.58332 0.0105661ZM23.3902 205.372 0.579232 251.258-22.443 205.478Z" transform="matrix(1 0 0 -1 453.5 812.758)"/><path d="M505.282 827.218 501.593 601.82 510.758 601.67 514.448 827.068ZM483.337 606.702 505.5 560.5 529.164 605.952Z"/><path d="M4.57828-0.215178 16.256 248.247 7.09942 248.678-4.57828 0.215178ZM34.3539 242.808 13.6143 289.667-11.4289 244.96Z" transform="matrix(1 0 0 -1 544.5 848.167)"/><path d="M4.53409-0.670067 44.9157 272.577 35.8475 273.917-4.53409 0.670067ZM62.382 265.362 46.4122 314.054 17.0411 272.063Z" transform="matrix(1 0 0 -1 565.5 873.554)"/><path d="M4.46667-1.02751 75.3516 307.114 66.4182 309.169-4.46667 1.02751ZM92.1908 298.537 80.1325 348.342 47.5241 308.812Z" transform="matrix(1 0 0 -1 582.5 906.842)"/><path d="M4.34601-1.45572 116.455 333.242 107.763 336.153-4.34601 1.45572ZM132.383 323.073 125.211 373.812 88.9232 337.63Z" transform="matrix(1 0 0 -1 588.5 933.312)"/><path d="M4.22209-1.78351 157.702 361.55 149.258 365.117-4.22209 1.78351ZM172.807 350.194 169.532 401.332 130.586 368.029Z" transform="matrix(1 0 0 -1 592.5 961.832)"/><rect x="1271" y="1225" width="114" height="16.9999" fill="#A32D0F"/><path d="M1328 1236.14C1328 1231.65 1331.65 1228 1336.14 1228L1575.86 1228C1580.35 1228 1584 1231.65 1584 1236.14L1584 1240.86C1584 1245.35 1580.35 1249 1575.86 1249L1336.14 1249C1331.65 1249 1328 1245.35 1328 1240.86Z" fill="#A32D0F" fill-rule="evenodd"/><path d="M1271 1239C1271 1222.98 1296.52 1210 1328 1210 1359.48 1210 1385 1222.98 1385 1239 1385 1255.02 1359.48 1268 1328 1268 1296.52 1268 1271 1255.02 1271 1239Z" fill="#A32D0F" fill-rule="evenodd"/><path d="M1328 1224.08C1328 1218.51 1332.51 1214 1338.08 1214L1573.92 1214C1579.49 1214 1584 1218.51 1584 1224.08L1584 1229.92C1584 1235.49 1579.49 1240 1573.92 1240L1338.08 1240C1332.51 1240 1328 1235.49 1328 1229.92Z" fill="#D74514" fill-rule="evenodd"/><path d="M1271 1226.5C1271 1209.1 1296.52 1195 1328 1195 1359.48 1195 1385 1209.1 1385 1226.5 1385 1243.9 1359.48 1258 1328 1258 1296.52 1258 1271 1243.9 1271 1226.5Z" fill="#D74514" fill-rule="evenodd"/><path d="M1289 1226C1289 1214.4 1306.24 1205 1327.5 1205 1348.76 1205 1366 1214.4 1366 1226 1366 1237.6 1348.76 1247 1327.5 1247 1306.24 1247 1289 1237.6 1289 1226Z" fill="#E6E6E6" fill-rule="evenodd"/><path d="M1369 1166.5C1369 1099.95 1504.88 1046 1672.5 1046 1840.12 1046 1976 1099.95 1976 1166.5 1976 1233.05 1840.12 1287 1672.5 1287 1504.88 1287 1369 1233.05 1369 1166.5Z" stroke="#000000" stroke-width="2.29167" stroke-miterlimit="8" fill="#F8CCB9" fill-rule="evenodd"/><path d="M1391 1167C1391 1105.14 1517.03 1055 1672.5 1055 1827.97 1055 1954 1105.14 1954 1167 1954 1228.86 1827.97 1279 1672.5 1279 1517.03 1279 1391 1228.86 1391 1167Z" fill="#FDEFE8" fill-rule="evenodd"/><path d="M1414 1167C1414 1110.11 1529.96 1064 1673 1064 1816.04 1064 1932 1110.11 1932 1167 1932 1223.89 1816.04 1270 1673 1270 1529.96 1270 1414 1223.89 1414 1167Z" fill="#F8CCB9" fill-rule="evenodd"/><path d="M1437 1167C1437 1115.09 1542.44 1073 1672.5 1073 1802.56 1073 1908 1115.09 1908 1167 1908 1218.91 1802.56 1261 1672.5 1261 1542.44 1261 1437 1218.91 1437 1167Z" fill="#FDEFE8" fill-rule="evenodd"/><path d="M1459 1167C1459 1120.06 1554.59 1082 1672.5 1082 1790.41 1082 1886 1120.06 1886 1167 1886 1213.94 1790.41 1252 1672.5 1252 1554.59 1252 1459 1213.94 1459 1167Z" fill="#F8CCB9" fill-rule="evenodd"/><path d="M1480 1167C1480 1124.47 1566.41 1090 1673 1090 1779.59 1090 1866 1124.47 1866 1167 1866 1209.53 1779.59 1244 1673 1244 1566.41 1244 1480 1209.53 1480 1167Z" fill="#FDEFE8" fill-rule="evenodd"/><path d="M1497 1166.5C1497 1128.12 1575.57 1097 1672.5 1097 1769.43 1097 1848 1128.12 1848 1166.5 1848 1204.88 1769.43 1236 1672.5 1236 1575.57 1236 1497 1204.88 1497 1166.5Z" fill="#F8CCB9" fill-rule="evenodd"/><path d="M1517 1166.5C1517 1132.53 1586.62 1105 1672.5 1105 1758.38 1105 1828 1132.53 1828 1166.5 1828 1200.47 1758.38 1228 1672.5 1228 1586.62 1228 1517 1200.47 1517 1166.5Z" fill="#FDEFE8" fill-rule="evenodd"/><path d="M1536 1166.5C1536 1136.4 1597.11 1112 1672.5 1112 1747.89 1112 1809 1136.4 1809 1166.5 1809 1196.6 1747.89 1221 1672.5 1221 1597.11 1221 1536 1196.6 1536 1166.5Z" fill="#F8CCB9" fill-rule="evenodd"/><path d="M1559 1167C1559 1142.15 1609.82 1122 1672.5 1122 1735.18 1122 1786 1142.15 1786 1167 1786 1191.85 1735.18 1212 1672.5 1212 1609.82 1212 1559 1191.85 1559 1167Z" fill="#FDEFE8" fill-rule="evenodd"/><rect x="1271" y="1198" width="114" height="16.0001" fill="#A32D0F"/><path d="M1328 1208.14C1328 1203.65 1331.65 1200 1336.14 1200L1575.86 1200C1580.35 1200 1584 1203.65 1584 1208.14L1584 1212.86C1584 1217.35 1580.35 1221 1575.86 1221L1336.14 1221C1331.65 1221 1328 1217.35 1328 1212.86Z" fill="#A32D0F" fill-rule="evenodd"/><path d="M1271 1211C1271 1194.98 1296.52 1182 1328 1182 1359.48 1182 1385 1194.98 1385 1211 1385 1227.02 1359.48 1240 1328 1240 1296.52 1240 1271 1227.02 1271 1211Z" fill="#A32D0F" fill-rule="evenodd"/><path d="M1328 1196.7C1328 1191.34 1332.34 1187 1337.7 1187L1574.3 1187C1579.66 1187 1584 1191.34 1584 1196.7L1584 1202.3C1584 1207.66 1579.66 1212 1574.3 1212L1337.7 1212C1332.34 1212 1328 1207.66 1328 1202.3Z" fill="#D74514" fill-rule="evenodd"/><path d="M1271 1198.5C1271 1181.1 1296.52 1167 1328 1167 1359.48 1167 1385 1181.1 1385 1198.5 1385 1215.9 1359.48 1230 1328 1230 1296.52 1230 1271 1215.9 1271 1198.5Z" fill="#D74514" fill-rule="evenodd"/><path d="M1289 1198.5C1289 1186.63 1306.24 1177 1327.5 1177 1348.76 1177 1366 1186.63 1366 1198.5 1366 1210.37 1348.76 1220 1327.5 1220 1306.24 1220 1289 1210.37 1289 1198.5Z" fill="#E6E6E6" fill-rule="evenodd"/><rect x="1271" y="1171" width="114" height="15.9998" fill="#A32D0F"/><path d="M1328 1181.14C1328 1176.65 1331.65 1173 1336.14 1173L1575.86 1173C1580.35 1173 1584 1176.65 1584 1181.14L1584 1185.86C1584 1190.35 1580.35 1194 1575.86 1194L1336.14 1194C1331.65 1194 1328 1190.35 1328 1185.86Z" fill="#A32D0F" fill-rule="evenodd"/><path d="M1271 1184.5C1271 1168.76 1296.52 1156 1328 1156 1359.48 1156 1385 1168.76 1385 1184.5 1385 1200.24 1359.48 1213 1328 1213 1296.52 1213 1271 1200.24 1271 1184.5Z" fill="#A32D0F" fill-rule="evenodd"/><path d="M1328 1170.08C1328 1164.51 1332.51 1160 1338.08 1160L1573.92 1160C1579.49 1160 1584 1164.51 1584 1170.08L1584 1175.92C1584 1181.49 1579.49 1186 1573.92 1186L1338.08 1186C1332.51 1186 1328 1181.49 1328 1175.92Z" fill="#D74514" fill-rule="evenodd"/><path d="M1271 1172C1271 1154.88 1296.52 1141 1328 1141 1359.48 1141 1385 1154.88 1385 1172 1385 1189.12 1359.48 1203 1328 1203 1296.52 1203 1271 1189.12 1271 1172Z" fill="#D74514" fill-rule="evenodd"/><path d="M1289 1172C1289 1160.4 1306.24 1151 1327.5 1151 1348.76 1151 1366 1160.4 1366 1172 1366 1183.6 1348.76 1193 1327.5 1193 1306.24 1193 1289 1183.6 1289 1172Z" fill="#E6E6E6" fill-rule="evenodd"/><path d="M1369 1112.5C1369 1045.95 1504.88 992 1672.5 992 1840.12 992 1976 1045.95 1976 1112.5 1976 1179.05 1840.12 1233 1672.5 1233 1504.88 1233 1369 1179.05 1369 1112.5Z" stroke="#000000" stroke-width="2.29167" stroke-miterlimit="8" fill="#F8CCB9" fill-rule="evenodd"/><path d="M1391 1112.5C1391 1050.92 1517.03 1001 1672.5 1001 1827.97 1001 1954 1050.92 1954 1112.5 1954 1174.08 1827.97 1224 1672.5 1224 1517.03 1224 1391 1174.08 1391 1112.5Z" fill="#FDEFE8" fill-rule="evenodd"/><path d="M1414 1112C1414 1055.11 1529.96 1009 1673 1009 1816.04 1009 1932 1055.11 1932 1112 1932 1168.89 1816.04 1215 1673 1215 1529.96 1215 1414 1168.89 1414 1112Z" fill="#F8CCB9" fill-rule="evenodd"/><path d="M1437 1112.5C1437 1060.86 1542.44 1019 1672.5 1019 1802.56 1019 1908 1060.86 1908 1112.5 1908 1164.14 1802.56 1206 1672.5 1206 1542.44 1206 1437 1164.14 1437 1112.5Z" fill="#FDEFE8" fill-rule="evenodd"/><path d="M1459 1112C1459 1065.06 1554.59 1027 1672.5 1027 1790.41 1027 1886 1065.06 1886 1112 1886 1158.94 1790.41 1197 1672.5 1197 1554.59 1197 1459 1158.94 1459 1112Z" fill="#F8CCB9" fill-rule="evenodd"/><path d="M1480 1112.5C1480 1070.25 1566.41 1036 1673 1036 1779.59 1036 1866 1070.25 1866 1112.5 1866 1154.75 1779.59 1189 1673 1189 1566.41 1189 1480 1154.75 1480 1112.5Z" fill="#FDEFE8" fill-rule="evenodd"/><path d="M1497 1112C1497 1073.34 1575.57 1042 1672.5 1042 1769.43 1042 1848 1073.34 1848 1112 1848 1150.66 1769.43 1182 1672.5 1182 1575.57 1182 1497 1150.66 1497 1112Z" fill="#F8CCB9" fill-rule="evenodd"/><path d="M1517 1112C1517 1077.76 1586.62 1050 1672.5 1050 1758.38 1050 1828 1077.76 1828 1112 1828 1146.24 1758.38 1174 1672.5 1174 1586.62 1174 1517 1146.24 1517 1112Z" fill="#FDEFE8" fill-rule="evenodd"/><path d="M1536 1112C1536 1082.18 1597.11 1058 1672.5 1058 1747.89 1058 1809 1082.18 1809 1112 1809 1141.82 1747.89 1166 1672.5 1166 1597.11 1166 1536 1141.82 1536 1112Z" fill="#F8CCB9" fill-rule="evenodd"/><path d="M1559 1112C1559 1087.15 1609.82 1067 1672.5 1067 1735.18 1067 1786 1087.15 1786 1112 1786 1136.85 1735.18 1157 1672.5 1157 1609.82 1157 1559 1136.85 1559 1112Z" fill="#FDEFE8" fill-rule="evenodd"/><rect x="1271" y="1143" width="114" height="16.0001" fill="#A32D0F"/><path d="M1328 1153.76C1328 1149.47 1331.47 1146 1335.76 1146L1576.24 1146C1580.53 1146 1584 1149.47 1584 1153.76L1584 1158.24C1584 1162.53 1580.53 1166 1576.24 1166L1335.76 1166C1331.47 1166 1328 1162.53 1328 1158.24Z" fill="#A32D0F" fill-rule="evenodd"/><path d="M1271 1156.5C1271 1140.76 1296.52 1128 1328 1128 1359.48 1128 1385 1140.76 1385 1156.5 1385 1172.24 1359.48 1185 1328 1185 1296.52 1185 1271 1172.24 1271 1156.5Z" fill="#A32D0F" fill-rule="evenodd"/><path d="M1328 1142.08C1328 1136.51 1332.51 1132 1338.08 1132L1573.92 1132C1579.49 1132 1584 1136.51 1584 1142.08L1584 1147.92C1584 1153.49 1579.49 1158 1573.92 1158L1338.08 1158C1332.51 1158 1328 1153.49 1328 1147.92Z" fill="#D74514" fill-rule="evenodd"/><path d="M1271 1144C1271 1126.88 1296.52 1113 1328 1113 1359.48 1113 1385 1126.88 1385 1144 1385 1161.12 1359.48 1175 1328 1175 1296.52 1175 1271 1161.12 1271 1144Z" fill="#D74514" fill-rule="evenodd"/><path d="M1289 1144C1289 1132.4 1306.24 1123 1327.5 1123 1348.76 1123 1366 1132.4 1366 1144 1366 1155.6 1348.76 1165 1327.5 1165 1306.24 1165 1289 1155.6 1289 1144Z" fill="#E6E6E6" fill-rule="evenodd"/><rect x="1271" y="1116" width="114" height="15.9998" fill="#A32D0F"/><path d="M1328 1126.76C1328 1122.47 1331.47 1119 1335.76 1119L1576.24 1119C1580.53 1119 1584 1122.47 1584 1126.76L1584 1131.24C1584 1135.53 1580.53 1139 1576.24 1139L1335.76 1139C1331.47 1139 1328 1135.53 1328 1131.24Z" fill="#A32D0F" fill-rule="evenodd"/><path d="M1271 1129.5C1271 1113.76 1296.52 1101 1328 1101 1359.48 1101 1385 1113.76 1385 1129.5 1385 1145.24 1359.48 1158 1328 1158 1296.52 1158 1271 1145.24 1271 1129.5Z" fill="#A32D0F" fill-rule="evenodd"/><path d="M1328 1115.08C1328 1109.51 1332.51 1105 1338.08 1105L1573.92 1105C1579.49 1105 1584 1109.51 1584 1115.08L1584 1120.92C1584 1126.49 1579.49 1131 1573.92 1131L1338.08 1131C1332.51 1131 1328 1126.49 1328 1120.92Z" fill="#D74514" fill-rule="evenodd"/><path d="M1271 1117C1271 1099.88 1296.52 1086 1328 1086 1359.48 1086 1385 1099.88 1385 1117 1385 1134.12 1359.48 1148 1328 1148 1296.52 1148 1271 1134.12 1271 1117Z" fill="#D74514" fill-rule="evenodd"/><path d="M1289 1117C1289 1105.4 1306.24 1096 1327.5 1096 1348.76 1096 1366 1105.4 1366 1117 1366 1128.6 1348.76 1138 1327.5 1138 1306.24 1138 1289 1128.6 1289 1117Z" fill="#E6E6E6" fill-rule="evenodd"/><path d="M1369 1057.5C1369 990.95 1504.88 937 1672.5 937 1840.12 937 1976 990.95 1976 1057.5 1976 1124.05 1840.12 1178 1672.5 1178 1504.88 1178 1369 1124.05 1369 1057.5Z" stroke="#000000" stroke-width="2.29167" stroke-miterlimit="8" fill="#F8CCB9" fill-rule="evenodd"/><path d="M1391 1057.5C1391 995.92 1517.03 946 1672.5 946 1827.97 946 1954 995.92 1954 1057.5 1954 1119.08 1827.97 1169 1672.5 1169 1517.03 1169 1391 1119.08 1391 1057.5Z" fill="#FDEFE8" fill-rule="evenodd"/><path d="M1414 1057C1414 1000.11 1529.96 954 1673 954 1816.04 954 1932 1000.11 1932 1057 1932 1113.89 1816.04 1160 1673 1160 1529.96 1160 1414 1113.89 1414 1057Z" fill="#F8CCB9" fill-rule="evenodd"/><path d="M1437 1057.5C1437 1005.86 1542.44 964 1672.5 964 1802.56 964 1908 1005.86 1908 1057.5 1908 1109.14 1802.56 1151 1672.5 1151 1542.44 1151 1437 1109.14 1437 1057.5Z" fill="#FDEFE8" fill-rule="evenodd"/><path d="M1459 1057.5C1459 1010.83 1554.59 973 1672.5 973 1790.41 973 1886 1010.83 1886 1057.5 1886 1104.17 1790.41 1142 1672.5 1142 1554.59 1142 1459 1104.17 1459 1057.5Z" fill="#F8CCB9" fill-rule="evenodd"/><path d="M1480 1057.5C1480 1015.25 1566.41 981 1673 981 1779.59 981 1866 1015.25 1866 1057.5 1866 1099.75 1779.59 1134 1673 1134 1566.41 1134 1480 1099.75 1480 1057.5Z" fill="#FDEFE8" fill-rule="evenodd"/><path d="M1497 1057C1497 1018.34 1575.57 987 1672.5 987 1769.43 987 1848 1018.34 1848 1057 1848 1095.66 1769.43 1127 1672.5 1127 1575.57 1127 1497 1095.66 1497 1057Z" fill="#F8CCB9" fill-rule="evenodd"/><path d="M1517 1057C1517 1022.76 1586.62 995 1672.5 995 1758.38 995 1828 1022.76 1828 1057 1828 1091.24 1758.38 1119 1672.5 1119 1586.62 1119 1517 1091.24 1517 1057Z" fill="#FDEFE8" fill-rule="evenodd"/><path d="M1536 1057.5C1536 1027.4 1597.11 1003 1672.5 1003 1747.89 1003 1809 1027.4 1809 1057.5 1809 1087.6 1747.89 1112 1672.5 1112 1597.11 1112 1536 1087.6 1536 1057.5Z" fill="#F8CCB9" fill-rule="evenodd"/><path d="M1559 1057C1559 1032.15 1609.82 1012 1672.5 1012 1735.18 1012 1786 1032.15 1786 1057 1786 1081.85 1735.18 1102 1672.5 1102 1609.82 1102 1559 1081.85 1559 1057Z" fill="#FDEFE8" fill-rule="evenodd"/><rect x="1271" y="1088" width="114" height="17.0002" fill="#A32D0F"/><path d="M1328 1099.14C1328 1094.65 1331.65 1091 1336.14 1091L1575.86 1091C1580.35 1091 1584 1094.65 1584 1099.14L1584 1103.86C1584 1108.35 1580.35 1112 1575.86 1112L1336.14 1112C1331.65 1112 1328 1108.35 1328 1103.86Z" fill="#A32D0F" fill-rule="evenodd"/><path d="M1271 1101.5C1271 1085.76 1296.52 1073 1328 1073 1359.48 1073 1385 1085.76 1385 1101.5 1385 1117.24 1359.48 1130 1328 1130 1296.52 1130 1271 1117.24 1271 1101.5Z" fill="#A32D0F" fill-rule="evenodd"/><path d="M1328 1087.08C1328 1081.51 1332.51 1077 1338.08 1077L1573.92 1077C1579.49 1077 1584 1081.51 1584 1087.08L1584 1092.92C1584 1098.49 1579.49 1103 1573.92 1103L1338.08 1103C1332.51 1103 1328 1098.49 1328 1092.92Z" fill="#D74514" fill-rule="evenodd"/><path d="M1271 1089C1271 1071.88 1296.52 1058 1328 1058 1359.48 1058 1385 1071.88 1385 1089 1385 1106.12 1359.48 1120 1328 1120 1296.52 1120 1271 1106.12 1271 1089Z" fill="#D74514" fill-rule="evenodd"/><path d="M1289 1089C1289 1077.4 1306.24 1068 1327.5 1068 1348.76 1068 1366 1077.4 1366 1089 1366 1100.6 1348.76 1110 1327.5 1110 1306.24 1110 1289 1100.6 1289 1089Z" fill="#E6E6E6" fill-rule="evenodd"/><rect x="1271" y="1062" width="114" height="17.0002" fill="#A32D0F"/><path d="M1328 1073.14C1328 1068.65 1331.65 1065 1336.14 1065L1575.86 1065C1580.35 1065 1584 1068.65 1584 1073.14L1584 1077.86C1584 1082.35 1580.35 1086 1575.86 1086L1336.14 1086C1331.65 1086 1328 1082.35 1328 1077.86Z" fill="#A32D0F" fill-rule="evenodd"/><path d="M1271 1075.5C1271 1059.76 1296.52 1047 1328 1047 1359.48 1047 1385 1059.76 1385 1075.5 1385 1091.24 1359.48 1104 1328 1104 1296.52 1104 1271 1091.24 1271 1075.5Z" fill="#A32D0F" fill-rule="evenodd"/><path d="M1328 1061.08C1328 1055.51 1332.51 1051 1338.08 1051L1573.92 1051C1579.49 1051 1584 1055.51 1584 1061.08L1584 1066.92C1584 1072.49 1579.49 1077 1573.92 1077L1338.08 1077C1332.51 1077 1328 1072.49 1328 1066.92Z" fill="#D74514" fill-rule="evenodd"/><path d="M1271 1063C1271 1045.88 1296.52 1032 1328 1032 1359.48 1032 1385 1045.88 1385 1063 1385 1080.12 1359.48 1094 1328 1094 1296.52 1094 1271 1080.12 1271 1063Z" fill="#D74514" fill-rule="evenodd"/><path d="M1289 1063C1289 1051.4 1306.24 1042 1327.5 1042 1348.76 1042 1366 1051.4 1366 1063 1366 1074.6 1348.76 1084 1327.5 1084 1306.24 1084 1289 1074.6 1289 1063Z" fill="#E6E6E6" fill-rule="evenodd"/><path d="M1369 1003.5C1369 936.95 1504.88 883 1672.5 883 1840.12 883 1976 936.95 1976 1003.5 1976 1070.05 1840.12 1124 1672.5 1124 1504.88 1124 1369 1070.05 1369 1003.5Z" stroke="#000000" stroke-width="2.29167" stroke-miterlimit="8" fill="#F8CCB9" fill-rule="evenodd"/><path d="M1391 1003.5C1391 941.92 1517.03 892 1672.5 892 1827.97 892 1954 941.92 1954 1003.5 1954 1065.08 1827.97 1115 1672.5 1115 1517.03 1115 1391 1065.08 1391 1003.5Z" fill="#FDEFE8" fill-rule="evenodd"/><path d="M1414 1003.5C1414 946.891 1529.96 901 1673 901 1816.04 901 1932 946.891 1932 1003.5 1932 1060.11 1816.04 1106 1673 1106 1529.96 1106 1414 1060.11 1414 1003.5Z" fill="#F8CCB9" fill-rule="evenodd"/><path d="M1437 1003.5C1437 951.861 1542.44 910 1672.5 910 1802.56 910 1908 951.861 1908 1003.5 1908 1055.14 1802.56 1097 1672.5 1097 1542.44 1097 1437 1055.14 1437 1003.5Z" fill="#FDEFE8" fill-rule="evenodd"/><path d="M1459 1003.5C1459 956.832 1554.59 919 1672.5 919 1790.41 919 1886 956.832 1886 1003.5 1886 1050.17 1790.41 1088 1672.5 1088 1554.59 1088 1459 1050.17 1459 1003.5Z" fill="#F8CCB9" fill-rule="evenodd"/><path d="M1480 1003.5C1480 961.25 1566.41 927 1673 927 1779.59 927 1866 961.25 1866 1003.5 1866 1045.75 1779.59 1080 1673 1080 1566.41 1080 1480 1045.75 1480 1003.5Z" fill="#FDEFE8" fill-rule="evenodd"/><path d="M1497 1003C1497 964.34 1575.57 933 1672.5 933 1769.43 933 1848 964.34 1848 1003 1848 1041.66 1769.43 1073 1672.5 1073 1575.57 1073 1497 1041.66 1497 1003Z" fill="#F8CCB9" fill-rule="evenodd"/><path d="M1517 1003C1517 968.758 1586.62 941 1672.5 941 1758.38 941 1828 968.758 1828 1003 1828 1037.24 1758.38 1065 1672.5 1065 1586.62 1065 1517 1037.24 1517 1003Z" fill="#FDEFE8" fill-rule="evenodd"/><path d="M1536 1003.5C1536 973.401 1597.11 949 1672.5 949 1747.89 949 1809 973.401 1809 1003.5 1809 1033.6 1747.89 1058 1672.5 1058 1597.11 1058 1536 1033.6 1536 1003.5Z" fill="#F8CCB9" fill-rule="evenodd"/><path d="M1559 1003C1559 978.147 1609.82 958 1672.5 958 1735.18 958 1786 978.147 1786 1003 1786 1027.85 1735.18 1048 1672.5 1048 1609.82 1048 1559 1027.85 1559 1003Z" fill="#FDEFE8" fill-rule="evenodd"/><rect x="1271" y="1034" width="114" height="16.9999" fill="#A32D0F"/><path d="M1328 1045.14C1328 1040.65 1331.65 1037 1336.14 1037L1575.86 1037C1580.35 1037 1584 1040.65 1584 1045.14L1584 1049.86C1584 1054.35 1580.35 1058 1575.86 1058L1336.14 1058C1331.65 1058 1328 1054.35 1328 1049.86Z" fill="#A32D0F" fill-rule="evenodd"/><path d="M1271 1047.5C1271 1031.76 1296.52 1019 1328 1019 1359.48 1019 1385 1031.76 1385 1047.5 1385 1063.24 1359.48 1076 1328 1076 1296.52 1076 1271 1063.24 1271 1047.5Z" fill="#A32D0F" fill-rule="evenodd"/><path d="M1328 1033.08C1328 1027.51 1332.51 1023 1338.08 1023L1573.92 1023C1579.49 1023 1584 1027.51 1584 1033.08L1584 1038.92C1584 1044.49 1579.49 1049 1573.92 1049L1338.08 1049C1332.51 1049 1328 1044.49 1328 1038.92Z" fill="#D74514" fill-rule="evenodd"/><path d="M1271 1035C1271 1017.88 1296.52 1004 1328 1004 1359.48 1004 1385 1017.88 1385 1035 1385 1052.12 1359.48 1066 1328 1066 1296.52 1066 1271 1052.12 1271 1035Z" fill="#D74514" fill-rule="evenodd"/><path d="M1289 1035C1289 1023.4 1306.24 1014 1327.5 1014 1348.76 1014 1366 1023.4 1366 1035 1366 1046.6 1348.76 1056 1327.5 1056 1306.24 1056 1289 1046.6 1289 1035Z" fill="#E6E6E6" fill-rule="evenodd"/><rect x="1271" y="1007" width="114" height="17.0002" fill="#A32D0F"/><path d="M1328 1018.14C1328 1013.65 1331.65 1010 1336.14 1010L1576.86 1010C1581.35 1010 1585 1013.65 1585 1018.14L1585 1022.86C1585 1027.35 1581.35 1031 1576.86 1031L1336.14 1031C1331.65 1031 1328 1027.35 1328 1022.86Z" fill="#A32D0F" fill-rule="evenodd"/><path d="M1271 1021C1271 1004.98 1296.52 992 1328 992 1359.48 992 1385 1004.98 1385 1021 1385 1037.02 1359.48 1050 1328 1050 1296.52 1050 1271 1037.02 1271 1021Z" fill="#A32D0F" fill-rule="evenodd"/><path d="M1328 1006.08C1328 1000.51 1332.51 996 1338.08 996L1574.92 996C1580.49 996 1585 1000.51 1585 1006.08L1585 1011.92C1585 1017.49 1580.49 1022 1574.92 1022L1338.08 1022C1332.51 1022 1328 1017.49 1328 1011.92Z" fill="#D74514" fill-rule="evenodd"/><path d="M1271 1008.5C1271 991.103 1296.52 977 1328 977 1359.48 977 1385 991.103 1385 1008.5 1385 1025.9 1359.48 1040 1328 1040 1296.52 1040 1271 1025.9 1271 1008.5Z" fill="#D74514" fill-rule="evenodd"/><path d="M1290 1008C1290 996.402 1307.24 987 1328.5 987 1349.76 987 1367 996.402 1367 1008 1367 1019.6 1349.76 1029 1328.5 1029 1307.24 1029 1290 1019.6 1290 1008Z" fill="#E6E6E6" fill-rule="evenodd"/><path d="M1370 948.5C1370 881.95 1505.66 828 1673 828 1840.34 828 1976 881.95 1976 948.5 1976 1015.05 1840.34 1069 1673 1069 1505.66 1069 1370 1015.05 1370 948.5Z" stroke="#000000" stroke-width="2.29167" stroke-miterlimit="8" fill="#F8CCB9" fill-rule="evenodd"/><path d="M1392 949C1392 887.144 1517.81 837 1673 837 1828.19 837 1954 887.144 1954 949 1954 1010.86 1828.19 1061 1673 1061 1517.81 1061 1392 1010.86 1392 949Z" fill="#FDEFE8" fill-rule="evenodd"/><path d="M1414 949C1414 892.115 1529.96 846 1673 846 1816.04 846 1932 892.115 1932 949 1932 1005.89 1816.04 1052 1673 1052 1529.96 1052 1414 1005.89 1414 949Z" fill="#F8CCB9" fill-rule="evenodd"/><path d="M1437 948.5C1437 896.861 1542.66 855 1673 855 1803.34 855 1909 896.861 1909 948.5 1909 1000.14 1803.34 1042 1673 1042 1542.66 1042 1437 1000.14 1437 948.5Z" fill="#FDEFE8" fill-rule="evenodd"/><path d="M1459 949C1459 902.056 1554.59 864 1672.5 864 1790.41 864 1886 902.056 1886 949 1886 995.944 1790.41 1034 1672.5 1034 1554.59 1034 1459 995.944 1459 949Z" fill="#F8CCB9" fill-rule="evenodd"/><path d="M1480 949C1480 906.474 1566.41 872 1673 872 1779.59 872 1866 906.474 1866 949 1866 991.526 1779.59 1026 1673 1026 1566.41 1026 1480 991.526 1480 949Z" fill="#FDEFE8" fill-rule="evenodd"/><path d="M1498 948.5C1498 910.116 1576.35 879 1673 879 1769.65 879 1848 910.116 1848 948.5 1848 986.884 1769.65 1018 1673 1018 1576.35 1018 1498 986.884 1498 948.5Z" fill="#F8CCB9" fill-rule="evenodd"/><path d="M1518 948.5C1518 914.534 1587.4 887 1673 887 1758.6 887 1828 914.534 1828 948.5 1828 982.465 1758.6 1010 1673 1010 1587.4 1010 1518 982.465 1518 948.5Z" fill="#FDEFE8" fill-rule="evenodd"/><path d="M1536 948.5C1536 918.401 1597.34 894 1673 894 1748.66 894 1810 918.401 1810 948.5 1810 978.6 1748.66 1003 1673 1003 1597.34 1003 1536 978.6 1536 948.5Z" fill="#F8CCB9" fill-rule="evenodd"/><path d="M1560 949C1560 924.147 1610.59 904 1673 904 1735.41 904 1786 924.147 1786 949 1786 973.853 1735.41 994 1673 994 1610.59 994 1560 973.853 1560 949Z" fill="#FDEFE8" fill-rule="evenodd"/><rect x="1271" y="979" width="114" height="16.9998" fill="#A32D0F"/><path d="M1328 990.144C1328 985.646 1331.65 982 1336.14 982L1576.86 982C1581.35 982 1585 985.646 1585 990.144L1585 994.856C1585 999.354 1581.35 1003 1576.86 1003L1336.14 1003C1331.65 1003 1328 999.354 1328 994.856Z" fill="#A32D0F" fill-rule="evenodd"/><path d="M1271 993C1271 976.984 1296.52 964 1328 964 1359.48 964 1385 976.984 1385 993 1385 1009.02 1359.48 1022 1328 1022 1296.52 1022 1271 1009.02 1271 993Z" fill="#A32D0F" fill-rule="evenodd"/><path d="M1328 978.083C1328 972.514 1332.51 968 1338.08 968L1574.92 968C1580.49 968 1585 972.514 1585 978.083L1585 983.917C1585 989.486 1580.49 994 1574.92 994L1338.08 994C1332.51 994 1328 989.486 1328 983.917Z" fill="#D74514" fill-rule="evenodd"/><path d="M1271 980.5C1271 963.103 1296.52 949 1328 949 1359.48 949 1385 963.103 1385 980.5 1385 997.897 1359.48 1012 1328 1012 1296.52 1012 1271 997.897 1271 980.5Z" fill="#D74514" fill-rule="evenodd"/><path d="M1290 980C1290 968.402 1307.24 959 1328.5 959 1349.76 959 1367 968.402 1367 980 1367 991.598 1349.76 1001 1328.5 1001 1307.24 1001 1290 991.598 1290 980Z" fill="#E6E6E6" fill-rule="evenodd"/><rect x="1271" y="953" width="114" height="16.0002" fill="#A32D0F"/><path d="M1328 963.144C1328 958.646 1331.65 955 1336.14 955L1575.86 955C1580.35 955 1584 958.646 1584 963.144L1584 967.856C1584 972.354 1580.35 976 1575.86 976L1336.14 976C1331.65 976 1328 972.354 1328 967.856Z" fill="#A32D0F" fill-rule="evenodd"/><path d="M1271 966.5C1271 950.76 1296.52 938 1328 938 1359.48 938 1385 950.76 1385 966.5 1385 982.24 1359.48 995 1328 995 1296.52 995 1271 982.24 1271 966.5Z" fill="#A32D0F" fill-rule="evenodd"/><path d="M1328 952.083C1328 946.514 1332.51 942 1338.08 942L1573.92 942C1579.49 942 1584 946.514 1584 952.083L1584 957.917C1584 963.486 1579.49 968 1573.92 968L1338.08 968C1332.51 968 1328 963.486 1328 957.917Z" fill="#D74514" fill-rule="evenodd"/><path d="M1271 953.5C1271 936.103 1296.52 922 1328 922 1359.48 922 1385 936.103 1385 953.5 1385 970.897 1359.48 985 1328 985 1296.52 985 1271 970.897 1271 953.5Z" fill="#D74514" fill-rule="evenodd"/><path d="M1289 954C1289 942.402 1306.24 933 1327.5 933 1348.76 933 1366 942.402 1366 954 1366 965.598 1348.76 975 1327.5 975 1306.24 975 1289 965.598 1289 954Z" fill="#E6E6E6" fill-rule="evenodd"/><path d="M1369 894.5C1369 827.95 1504.88 774 1672.5 774 1840.12 774 1976 827.95 1976 894.5 1976 961.05 1840.12 1015 1672.5 1015 1504.88 1015 1369 961.05 1369 894.5Z" stroke="#000000" stroke-width="2.29167" stroke-miterlimit="8" fill="#F8CCB9" fill-rule="evenodd"/><path d="M1391 894C1391 832.144 1517.03 782 1672.5 782 1827.97 782 1954 832.144 1954 894 1954 955.856 1827.97 1006 1672.5 1006 1517.03 1006 1391 955.856 1391 894Z" fill="#FDEFE8" fill-rule="evenodd"/><path d="M1414 894C1414 837.115 1529.96 791 1673 791 1816.04 791 1932 837.115 1932 894 1932 950.885 1816.04 997 1673 997 1529.96 997 1414 950.885 1414 894Z" fill="#F8CCB9" fill-rule="evenodd"/><path d="M1437 894C1437 842.085 1542.44 800 1672.5 800 1802.56 800 1908 842.085 1908 894 1908 945.915 1802.56 988 1672.5 988 1542.44 988 1437 945.915 1437 894Z" fill="#FDEFE8" fill-rule="evenodd"/><path d="M1459 894C1459 847.056 1554.59 809 1672.5 809 1790.41 809 1886 847.056 1886 894 1886 940.944 1790.41 979 1672.5 979 1554.59 979 1459 940.944 1459 894Z" fill="#F8CCB9" fill-rule="evenodd"/><path d="M1480 894C1480 851.474 1566.41 817 1673 817 1779.59 817 1866 851.474 1866 894 1866 936.526 1779.59 971 1673 971 1566.41 971 1480 936.526 1480 894Z" fill="#FDEFE8" fill-rule="evenodd"/><path d="M1497 894C1497 855.34 1575.57 824 1672.5 824 1769.43 824 1848 855.34 1848 894 1848 932.66 1769.43 964 1672.5 964 1575.57 964 1497 932.66 1497 894Z" fill="#F8CCB9" fill-rule="evenodd"/><path d="M1517 894C1517 859.758 1586.62 832 1672.5 832 1758.38 832 1828 859.758 1828 894 1828 928.242 1758.38 956 1672.5 956 1586.62 956 1517 928.242 1517 894Z" fill="#FDEFE8" fill-rule="evenodd"/><path d="M1536 893.5C1536 863.401 1597.11 839 1672.5 839 1747.89 839 1809 863.401 1809 893.5 1809 923.6 1747.89 948 1672.5 948 1597.11 948 1536 923.6 1536 893.5Z" fill="#F8CCB9" fill-rule="evenodd"/><path d="M1559 894C1559 869.147 1609.82 849 1672.5 849 1735.18 849 1786 869.147 1786 894 1786 918.853 1735.18 939 1672.5 939 1609.82 939 1559 918.853 1559 894Z" fill="#FDEFE8" fill-rule="evenodd"/><rect x="1271" y="925" width="114" height="15.9998" fill="#A32D0F"/><path d="M1328 935.144C1328 930.646 1331.65 927 1336.14 927L1575.86 927C1580.35 927 1584 930.646 1584 935.144L1584 939.856C1584 944.354 1580.35 948 1575.86 948L1336.14 948C1331.65 948 1328 944.354 1328 939.856Z" fill="#A32D0F" fill-rule="evenodd"/><path d="M1271 938.5C1271 922.76 1296.52 910 1328 910 1359.48 910 1385 922.76 1385 938.5 1385 954.24 1359.48 967 1328 967 1296.52 967 1271 954.24 1271 938.5Z" fill="#A32D0F" fill-rule="evenodd"/><path d="M1328 924.083C1328 918.514 1332.51 914 1338.08 914L1573.92 914C1579.49 914 1584 918.514 1584 924.083L1584 929.917C1584 935.486 1579.49 940 1573.92 940L1338.08 940C1332.51 940 1328 935.486 1328 929.917Z" fill="#D74514" fill-rule="evenodd"/><path d="M1271 926C1271 908.879 1296.52 895 1328 895 1359.48 895 1385 908.879 1385 926 1385 943.121 1359.48 957 1328 957 1296.52 957 1271 943.121 1271 926Z" fill="#D74514" fill-rule="evenodd"/><path d="M1289 926C1289 914.402 1306.24 905 1327.5 905 1348.76 905 1366 914.402 1366 926 1366 937.598 1348.76 947 1327.5 947 1306.24 947 1289 937.598 1289 926Z" fill="#E6E6E6" fill-rule="evenodd"/><path d="M1583 893C1583 873.118 1623.74 857 1674 857 1724.26 857 1765 873.118 1765 893 1765 912.882 1724.26 929 1674 929 1623.74 929 1583 912.882 1583 893Z" fill="#3B3838" fill-rule="evenodd"/><rect x="1583" y="877" width="182" height="16.0002" fill="#3B3838"/><path d="M1583 873C1583 853.118 1623.74 837 1674 837 1724.26 837 1765 853.118 1765 873 1765 892.882 1724.26 909 1674 909 1623.74 909 1583 892.882 1583 873Z" fill-rule="evenodd"/><path d="M1664 848.5C1664 845.462 1669.6 843 1676.5 843 1683.4 843 1689 845.462 1689 848.5 1689 851.537 1683.4 854 1676.5 854 1669.6 854 1664 851.537 1664 848.5Z" fill="#FFFFFF" fill-rule="evenodd"/><path d="M1715 862C1715 859.239 1720.82 857 1728 857 1735.18 857 1741 859.239 1741 862 1741 864.761 1735.18 867 1728 867 1720.82 867 1715 864.761 1715 862Z" fill="#FFFFFF" fill-rule="evenodd"/><path d="M1715 886C1715 883.239 1720.82 881 1728 881 1735.18 881 1741 883.239 1741 886 1741 888.761 1735.18 891 1728 891 1720.82 891 1715 888.761 1715 886Z" fill="#FFFFFF" fill-rule="evenodd"/><path d="M1608 861.5C1608 858.462 1613.82 856 1621 856 1628.18 856 1634 858.462 1634 861.5 1634 864.537 1628.18 867 1621 867 1613.82 867 1608 864.537 1608 861.5Z" fill="#FFFFFF" fill-rule="evenodd"/><path d="M1609 885.5C1609 882.462 1614.82 880 1622 880 1629.18 880 1635 882.462 1635 885.5 1635 888.538 1629.18 891 1622 891 1614.82 891 1609 888.538 1609 885.5Z" fill="#FFFFFF" fill-rule="evenodd"/><path d="M1664 898C1664 895.239 1669.6 893 1676.5 893 1683.4 893 1689 895.239 1689 898 1689 900.761 1683.4 903 1676.5 903 1669.6 903 1664 900.761 1664 898Z" fill="#FFFFFF" fill-rule="evenodd"/><path d="M1655 874C1655 869.029 1664.63 865 1676.5 865 1688.37 865 1698 869.029 1698 874 1698 878.971 1688.37 883 1676.5 883 1664.63 883 1655 878.971 1655 874Z" fill="#D74514" fill-rule="evenodd"/><text font-family="Microsoft YaHei,Microsoft YaHei_MSFontService,sans-serif" font-weight="400" font-size="83" transform="matrix(1 0 0 1 1070.86 647)">12 heads<tspan font-size="83" x="376.856" y="966">6 platters</tspan></text><path d="M1324.27 907.357 1260.32 744.569 1268.85 741.218 1332.8 904.005ZM1244.93 755.539 1249.5 704.5 1287.59 738.78Z"/><path d="M4.53173-0.68586 35.9301 206.774 26.8666 208.146-4.53173 0.68586ZM53.3711 199.499 37.5711 248.246 8.05383 206.358Z" transform="matrix(-1 0 0 1 1673.07 1270.5)"/></g></svg>