<svg xmlns="http://www.w3.org/2000/svg" width="3031" height="3296" overflow="hidden"><defs><clipPath id="a"><path d="M523-517h3031v3296H523z"/></clipPath><clipPath id="b"><path d="M525 1898h235v617H525z"/></clipPath><clipPath id="c"><path d="M759 1898h1748v617H759z"/></clipPath><clipPath id="d"><path d="M2506 1898h272v617h-272z"/></clipPath><clipPath id="e"><path d="M2777 1898h773v617h-773z"/></clipPath><clipPath id="f"><path d="M525 2019h235v617H525z"/></clipPath><clipPath id="g"><path d="M759 2019h1748v617H759z"/></clipPath><clipPath id="h"><path d="M2506 2019h272v617h-272z"/></clipPath><clipPath id="i"><path d="M2777 2019h773v617h-773z"/></clipPath><clipPath id="j"><path d="M525 2140h235v617H525z"/></clipPath><clipPath id="k"><path d="M759 2140h1748v617H759z"/></clipPath><clipPath id="l"><path d="M2506 2140h272v617h-272z"/></clipPath><clipPath id="m"><path d="M2777 2140h773v617h-773z"/></clipPath><clipPath id="n"><path d="M525 2261h235v617H525z"/></clipPath><clipPath id="o"><path d="M759 2261h1748v617H759z"/></clipPath><clipPath id="p"><path d="M2506 2261h272v617h-272z"/></clipPath><clipPath id="q"><path d="M2777 2261h773v617h-773z"/></clipPath><clipPath id="r"><path d="M525 2382h235v617H525z"/></clipPath><clipPath id="s"><path d="M759 2382h1748v617H759z"/></clipPath><clipPath id="t"><path d="M2506 2382h272v617h-272z"/></clipPath><clipPath id="u"><path d="M2777 2382h773v617h-773z"/></clipPath><clipPath id="v"><path d="M767-632h122v347H767z"/></clipPath><clipPath id="w"><path d="M2339-632h122v347h-122z"/></clipPath><clipPath id="x"><path d="M2581-1449h122v2503h-122z"/></clipPath><clipPath id="y"><path d="M2581-1449h122v2503h-122z"/></clipPath><clipPath id="z"><path d="M2581-1449h122v2503h-122z"/></clipPath><clipPath id="A"><path d="M2581-1449h122v2503h-122z"/></clipPath><clipPath id="B"><path d="M2581-1449h122v2503h-122z"/></clipPath><clipPath id="C"><path d="M767 34h122v347H767z"/></clipPath><clipPath id="D"><path d="M2339 34h122v347h-122z"/></clipPath><clipPath id="E"><path d="M2581-784h122v2504h-122z"/></clipPath><clipPath id="F"><path d="M2581-784h122v2504h-122z"/></clipPath><clipPath id="G"><path d="M2581-784h122v2504h-122z"/></clipPath><clipPath id="H"><path d="M2581-784h122v2504h-122z"/></clipPath><clipPath id="I"><path d="M2581-784h122v2504h-122z"/></clipPath><clipPath id="J"><path d="M767 699h122v348H767z"/></clipPath><clipPath id="K"><path d="M2339 699h122v348h-122z"/></clipPath><clipPath id="L"><path d="M2581 421h122v1425h-122z"/></clipPath><clipPath id="M"><path d="M2581 421h122v1425h-122z"/></clipPath><clipPath id="N"><path d="M2581 421h122v1425h-122z"/></clipPath><clipPath id="O"><path d="M767 1365h122v347H767z"/></clipPath><clipPath id="P"><path d="M2339 1365h122v347h-122z"/></clipPath><clipPath id="Q"><path d="M2581 1087h122v1425h-122z"/></clipPath><clipPath id="R"><path d="M2581 1087h122v1425h-122z"/></clipPath><clipPath id="S"><path d="M2581 1087h122v1425h-122z"/></clipPath></defs><g clip-path="url(#a)" transform="translate(-523 517)"><text font-family="Microsoft YaHei,Microsoft YaHei_MSFontService,sans-serif" font-size="64" font-weight="400" transform="translate(1634.37 98)">PAGE MAP LEVEL 5 ENTRY</text><g clip-path="url(#b)"><text font-family="Courier New,Courier New_MSFontService,sans-serif" font-size="73" font-weight="700" transform="translate(558.379 2228)">A</text></g><g clip-path="url(#c)"><text font-family="Courier New,Courier New_MSFontService,sans-serif" font-size="73" font-weight="400" transform="translate(792.513 2228)">ACCESSED</text></g><g clip-path="url(#d)"><text font-family="Courier New,Courier New_MSFontService,sans-serif" font-size="73" font-weight="700" transform="translate(2539.96 2228)">PS</text></g><g clip-path="url(#e)"><text font-family="Courier New,Courier New_MSFontService,sans-serif" font-size="73" font-weight="400" transform="translate(2810.33 2228)">PAGE SIZE</text></g><g clip-path="url(#f)"><text font-family="Courier New,Courier New_MSFontService,sans-serif" font-size="73" font-weight="700" transform="translate(558.379 2349)">AVL</text></g><g clip-path="url(#g)"><text font-family="Courier New,Courier New_MSFontService,sans-serif" font-size="73" font-weight="400" transform="translate(792.513 2349)">AVALIABLE</text></g><g clip-path="url(#h)"><text font-family="Courier New,Courier New_MSFontService,sans-serif" font-size="73" font-weight="700" transform="translate(2539.96 2349)">PWT</text></g><g clip-path="url(#i)"><text font-family="Courier New,Courier New_MSFontService,sans-serif" font-size="73" font-weight="400" transform="translate(2810.33 2349)">WRITE</text></g><text font-family="Courier New,Courier New_MSFontService,sans-serif" font-size="73" font-weight="400" transform="translate(3030.9 2349)">-<tspan x="44.114" y="0">THROUGH</tspan></text><g clip-path="url(#j)"><text font-family="Courier New,Courier New_MSFontService,sans-serif" font-size="73" font-weight="700" transform="translate(558.379 2470)">M</text></g><g clip-path="url(#k)"><text font-family="Courier New,Courier New_MSFontService,sans-serif" font-size="73" font-weight="400" transform="translate(792.513 2470)">MAXIMUM PHYSICAL ADDRESS BIT</text></g><g clip-path="url(#l)"><text font-family="Courier New,Courier New_MSFontService,sans-serif" font-size="73" font-weight="700" transform="translate(2539.96 2470)">R/W</text></g><g clip-path="url(#m)"><text font-family="Courier New,Courier New_MSFontService,sans-serif" font-size="73" font-weight="400" transform="translate(2810.33 2470)">READ/WRITE</text></g><g clip-path="url(#n)"><text font-family="Courier New,Courier New_MSFontService,sans-serif" font-size="73" font-weight="700" transform="translate(558.379 2591)">P</text></g><g clip-path="url(#o)"><text font-family="Courier New,Courier New_MSFontService,sans-serif" font-size="73" font-weight="400" transform="translate(792.513 2591)">PRESENT</text></g><g clip-path="url(#p)"><text font-family="Courier New,Courier New_MSFontService,sans-serif" font-size="73" font-weight="700" transform="translate(2539.96 2591)">U/S</text></g><g clip-path="url(#q)"><text font-family="Courier New,Courier New_MSFontService,sans-serif" font-size="73" font-weight="400" transform="translate(2810.33 2591)">USER/SUPERVISOR</text></g><g clip-path="url(#r)"><text font-family="Courier New,Courier New_MSFontService,sans-serif" font-size="73" font-weight="700" transform="translate(558.379 2712)">PCD</text></g><g clip-path="url(#s)"><text font-family="Courier New,Courier New_MSFontService,sans-serif" font-size="73" font-weight="400" transform="translate(792.513 2712)">CACHE DISABLE</text></g><g clip-path="url(#t)"><text font-family="Courier New,Courier New_MSFontService,sans-serif" font-size="73" font-weight="700" transform="translate(2539.96 2712)">XD</text></g><g clip-path="url(#u)"><text font-family="Courier New,Courier New_MSFontService,sans-serif" font-size="73" font-weight="400" transform="translate(2810.33 2712)">EXECUTE DISABLE</text></g><path fill="none" stroke="#000" stroke-linejoin="round" stroke-miterlimit="10" stroke-width="4.583" d="M646.352-402.366V7.084m362.868-409.45V7.084M1614-402.366V7.084m604.78-409.45V7.084m362.87-409.45V7.084m120.96-409.45V7.084m120.96-409.45V7.084m120.95-409.45V7.084m120.96-409.45V7.084m120.96-409.45V7.084m120.95-409.45V7.084m120.96-409.45V7.084M523.104-400.074H3551.6m-3026.204-2.292V7.084M3549.3-402.366V7.084M523.104 4.793H3551.6"/><text font-family="Courier New,Courier New_MSFontService,sans-serif" font-size="41" font-weight="700" transform="translate(561.239 -447)">63<tspan x="120.956" y="0">62</tspan></text><g clip-path="url(#v)"><text font-family="Courier New,Courier New_MSFontService,sans-serif" font-size="41" font-weight="700" transform="translate(790.833 -447)">...</text></g><text font-family="Courier New,Courier New_MSFontService,sans-serif" font-size="41" font-weight="700" transform="translate(924.107 -447)">52<tspan x="120.956" y="0">51</tspan><tspan x="350.551" y="0">...</tspan><tspan x="617.099" y="0">M</tspan><tspan x="731.429" y="0">M</tspan><tspan x="756.065" y="0">-</tspan>1<tspan x="973.342" y="0">...</tspan><tspan x="1209.56" y="0">12</tspan><tspan x="1330.52" y="0">11</tspan></text><g clip-path="url(#w)"><text font-family="Courier New,Courier New_MSFontService,sans-serif" font-size="41" font-weight="700" transform="translate(2363.27 -447)">...</text></g><text font-family="Courier New,Courier New_MSFontService,sans-serif" font-size="41" font-weight="700" transform="translate(2508.86 -447)">8<tspan x="120.956" y="0">7</tspan><tspan x="241.913" y="0">6</tspan><tspan x="362.869" y="0">5</tspan><tspan x="483.825" y="0">4</tspan><tspan x="604.782" y="0">3</tspan><tspan x="725.738" y="0">2</tspan><tspan x="846.694" y="0">1</tspan><tspan x="967.651" y="0">0</tspan><tspan x="-1942.18" y="229" fill="#d74514" font-size="64">X</tspan><tspan x="-1942.18" y="306" fill="#d74514" font-size="64">D</tspan><tspan x="-1738.65" y="268" fill="#d74514" font-size="64">AVL</tspan><tspan x="-1350.79" y="229" fill="#d74514" font-size="64">Reversed</tspan><tspan x="-1254.84" y="306" fill="#d74514" font-size="64">(0)</tspan><tspan x="-841.969" y="229" fill="#d74514" font-size="64">Bits 12</tspan><tspan x="-573.271" y="229" fill="#d74514" font-size="64">-</tspan><tspan x="-534.886" y="229" fill="#d74514" font-size="64">(M</tspan><tspan x="-458.115" y="229" fill="#d74514" font-size="64">-</tspan><tspan x="-419.73" y="229" fill="#d74514" font-size="64">1)</tspan><tspan x="-784.38" y="306" fill="#d74514" font-size="64">of address</tspan><tspan x="-166.217" y="268" fill="#d74514" font-size="64">AVL</tspan></text><g clip-path="url(#x)"><text fill="#d74514" font-family="Courier New,Courier New_MSFontService,sans-serif" font-size="64" font-weight="700" transform="translate(2613.2 -319)">R</text></g><g clip-path="url(#y)"><text fill="#d74514" font-family="Courier New,Courier New_MSFontService,sans-serif" font-size="64" font-weight="700" transform="translate(2613.2 -242)">S</text></g><g clip-path="url(#z)"><text fill="#d74514" font-family="Courier New,Courier New_MSFontService,sans-serif" font-size="64" font-weight="700" transform="translate(2613.2 -165)">V</text></g><g clip-path="url(#A)"><text fill="#d74514" font-family="Courier New,Courier New_MSFontService,sans-serif" font-size="64" font-weight="700" transform="translate(2613.2 -88)">D</text></g><g clip-path="url(#B)"><text fill="#d74514" font-family="Courier New,Courier New_MSFontService,sans-serif" font-size="41" font-weight="700" transform="translate(2605.18 -32)">(0)</text></g><text fill="#d74514" font-family="Courier New,Courier New_MSFontService,sans-serif" font-size="64" font-weight="700" transform="translate(2743.9 -256)">A<tspan x="0" y="77">V</tspan><tspan x="0" y="154">L</tspan><tspan x="120.956" y="77">A</tspan><tspan x="241.913" y="0">P</tspan><tspan x="241.913" y="77">C</tspan><tspan x="241.913" y="154">D</tspan><tspan x="362.869" y="0">P</tspan><tspan x="362.869" y="77">W</tspan><tspan x="362.869" y="154">T</tspan><tspan x="483.825" y="0">U</tspan><tspan x="483.825" y="77">/</tspan><tspan x="483.825" y="154">S</tspan><tspan x="604.782" y="0">R</tspan><tspan x="604.782" y="77">/</tspan><tspan x="604.782" y="154">W</tspan><tspan x="725.738" y="77">P</tspan><tspan x="-1109.52" y="1020" fill="#000" font-family="Microsoft YaHei,Microsoft YaHei_MSFontService,sans-serif" font-weight="400">PAGE MAP LEVEL 4 ENTRY</tspan></text><path fill="none" stroke="#000" stroke-linejoin="round" stroke-miterlimit="10" stroke-width="4.583" d="M646.352 263.29v409.451M1009.22 263.29v409.451M1614 263.29v409.451m604.78-409.451v409.451m362.87-409.451v409.451m120.96-409.451v409.451m120.96-409.451v409.451m120.95-409.451v409.451m120.96-409.451v409.451m120.96-409.451v409.451m120.95-409.451v409.451m120.96-409.451v409.451M523.104 265.582H3551.6M525.396 263.29v409.451M3549.3 263.29v409.451m-3026.196-2.292H3551.6"/><text font-family="Courier New,Courier New_MSFontService,sans-serif" font-size="41" font-weight="700" transform="translate(561.239 219)">63<tspan x="120.956" y="0">62</tspan></text><g clip-path="url(#C)"><text font-family="Courier New,Courier New_MSFontService,sans-serif" font-size="41" font-weight="700" transform="translate(790.833 219)">...</text></g><text font-family="Courier New,Courier New_MSFontService,sans-serif" font-size="41" font-weight="700" transform="translate(924.107 219)">52<tspan x="120.956" y="0">51</tspan><tspan x="350.551" y="0">...</tspan><tspan x="617.099" y="0">M</tspan><tspan x="731.429" y="0">M</tspan><tspan x="756.065" y="0">-</tspan>1<tspan x="973.342" y="0">...</tspan><tspan x="1209.56" y="0">12</tspan><tspan x="1330.52" y="0">11</tspan></text><g clip-path="url(#D)"><text font-family="Courier New,Courier New_MSFontService,sans-serif" font-size="41" font-weight="700" transform="translate(2363.27 219)">...</text></g><text font-family="Courier New,Courier New_MSFontService,sans-serif" font-size="41" font-weight="700" transform="translate(2508.86 219)">8<tspan x="120.956" y="0">7</tspan><tspan x="241.913" y="0">6</tspan><tspan x="362.869" y="0">5</tspan><tspan x="483.825" y="0">4</tspan><tspan x="604.782" y="0">3</tspan><tspan x="725.738" y="0">2</tspan><tspan x="846.694" y="0">1</tspan><tspan x="967.651" y="0">0</tspan><tspan x="-1942.18" y="229" fill="#d74514" font-size="64">X</tspan><tspan x="-1942.18" y="306" fill="#d74514" font-size="64">D</tspan><tspan x="-1738.65" y="268" fill="#d74514" font-size="64">AVL</tspan><tspan x="-1350.79" y="229" fill="#d74514" font-size="64">Reversed</tspan><tspan x="-1254.84" y="306" fill="#d74514" font-size="64">(0)</tspan><tspan x="-841.969" y="229" fill="#d74514" font-size="64">Bits 12</tspan><tspan x="-573.271" y="229" fill="#d74514" font-size="64">-</tspan><tspan x="-534.886" y="229" fill="#d74514" font-size="64">(M</tspan><tspan x="-458.115" y="229" fill="#d74514" font-size="64">-</tspan><tspan x="-419.73" y="229" fill="#d74514" font-size="64">1)</tspan><tspan x="-784.38" y="306" fill="#d74514" font-size="64">of address</tspan><tspan x="-166.217" y="268" fill="#d74514" font-size="64">AVL</tspan></text><g clip-path="url(#E)"><text fill="#d74514" font-family="Courier New,Courier New_MSFontService,sans-serif" font-size="64" font-weight="700" transform="translate(2613.2 346)">R</text></g><g clip-path="url(#F)"><text fill="#d74514" font-family="Courier New,Courier New_MSFontService,sans-serif" font-size="64" font-weight="700" transform="translate(2613.2 423)">S</text></g><g clip-path="url(#G)"><text fill="#d74514" font-family="Courier New,Courier New_MSFontService,sans-serif" font-size="64" font-weight="700" transform="translate(2613.2 500)">V</text></g><g clip-path="url(#H)"><text fill="#d74514" font-family="Courier New,Courier New_MSFontService,sans-serif" font-size="64" font-weight="700" transform="translate(2613.2 577)">D</text></g><g clip-path="url(#I)"><text fill="#d74514" font-family="Courier New,Courier New_MSFontService,sans-serif" font-size="41" font-weight="700" transform="translate(2605.18 633)">(0)</text></g><text fill="#d74514" font-family="Courier New,Courier New_MSFontService,sans-serif" font-size="64" font-weight="700" transform="translate(2743.9 410)">A<tspan x="0" y="77">V</tspan><tspan x="0" y="154">L</tspan><tspan x="120.956" y="77">A</tspan><tspan x="241.913" y="0">P</tspan><tspan x="241.913" y="77">C</tspan><tspan x="241.913" y="154">D</tspan><tspan x="362.869" y="0">P</tspan><tspan x="362.869" y="77">W</tspan><tspan x="362.869" y="154">T</tspan><tspan x="483.825" y="0">U</tspan><tspan x="483.825" y="77">/</tspan><tspan x="483.825" y="154">S</tspan><tspan x="604.782" y="0">R</tspan><tspan x="604.782" y="77">/</tspan><tspan x="604.782" y="154">W</tspan><tspan x="725.738" y="77">P</tspan><tspan x="-1334.47" y="1020" fill="#000" font-family="Microsoft YaHei,Microsoft YaHei_MSFontService,sans-serif" font-weight="400">PAGE DIRECTORY POINTER TABLE ENTRY</tspan></text><path fill="none" stroke="#000" stroke-linejoin="round" stroke-miterlimit="10" stroke-width="4.583" d="M646.347 928.947V1338.4m362.873-409.453V1338.4M1614 928.947V1338.4m604.78-409.453V1338.4m362.87-409.453V1338.4m120.95-409.453V1338.4m120.96-409.453V1338.4m120.96-409.453V1338.4m120.95-409.453V1338.4m120.96-409.453V1338.4m120.96-409.453V1338.4m120.95-409.453V1338.4M523.099 931.239H3551.59m-3026.2-2.292V1338.4M3549.3 928.947V1338.4m-3026.201-2.29H3551.59"/><text font-family="Courier New,Courier New_MSFontService,sans-serif" font-size="41" font-weight="700" transform="translate(561.233 884)">63<tspan x="120.956" y="0">62</tspan></text><g clip-path="url(#J)"><text font-family="Courier New,Courier New_MSFontService,sans-serif" font-size="41" font-weight="700" transform="translate(790.828 884)">...</text></g><text font-family="Courier New,Courier New_MSFontService,sans-serif" font-size="41" font-weight="700" transform="translate(924.102 884)">52<tspan x="120.956" y="0">51</tspan><tspan x="350.551" y="0">...</tspan><tspan x="617.099" y="0">M</tspan><tspan x="731.43" y="0">M</tspan><tspan x="756.065" y="0">-</tspan><tspan x="780.7" y="0">1</tspan><tspan x="973.342" y="0">...</tspan><tspan x="1209.56" y="0">12</tspan><tspan x="1330.52" y="0">11</tspan></text><g clip-path="url(#K)"><text font-family="Courier New,Courier New_MSFontService,sans-serif" font-size="41" font-weight="700" transform="translate(2363.26 884)">...</text></g><text font-family="Courier New,Courier New_MSFontService,sans-serif" font-size="41" font-weight="700" transform="translate(2508.85 884)">8<tspan x="120.957" y="0">7</tspan><tspan x="241.913" y="0">6</tspan><tspan x="362.869" y="0">5</tspan><tspan x="483.826" y="0">4</tspan><tspan x="604.782" y="0">3</tspan><tspan x="725.738" y="0">2</tspan><tspan x="846.694" y="0">1</tspan><tspan x="967.651" y="0">0</tspan><tspan x="-1942.18" y="230" fill="#d74514" font-size="64">X</tspan><tspan x="-1942.18" y="307" fill="#d74514" font-size="64">D</tspan><tspan x="-1738.65" y="268" fill="#d74514" font-size="64">AVL</tspan><tspan x="-1350.79" y="230" fill="#d74514" font-size="64">Reversed</tspan><tspan x="-1254.84" y="307" fill="#d74514" font-size="64">(0)</tspan><tspan x="-841.969" y="230" fill="#d74514" font-size="64">Bits 12</tspan><tspan x="-573.271" y="230" fill="#d74514" font-size="64">-</tspan><tspan x="-534.886" y="230" fill="#d74514" font-size="64">(M</tspan><tspan x="-458.115" y="230" fill="#d74514" font-size="64">-</tspan><tspan x="-419.73" y="230" fill="#d74514" font-size="64">1)</tspan><tspan x="-784.38" y="307" fill="#d74514" font-size="64">of address</tspan><tspan x="-166.217" y="268" fill="#d74514" font-size="64">AVL</tspan></text><g clip-path="url(#L)"><text fill="#d74514" font-family="Courier New,Courier New_MSFontService,sans-serif" font-size="64" font-weight="700" transform="translate(2613.19 1089)">P</text></g><g clip-path="url(#M)"><text fill="#d74514" font-family="Courier New,Courier New_MSFontService,sans-serif" font-size="64" font-weight="700" transform="translate(2613.19 1166)">S</text></g><g clip-path="url(#N)"><text fill="#d74514" font-family="Courier New,Courier New_MSFontService,sans-serif" font-size="41" font-weight="700" transform="translate(2605.17 1222)">(0)</text></g><text fill="#d74514" font-family="Courier New,Courier New_MSFontService,sans-serif" font-size="64" font-weight="700" transform="translate(2743.89 1075)">A<tspan x="0" y="77">V</tspan><tspan x="0" y="154">L</tspan><tspan x="120.956" y="77">A</tspan><tspan x="241.913" y="0">P</tspan><tspan x="241.913" y="77">C</tspan><tspan x="241.913" y="154">D</tspan><tspan x="362.869" y="0">P</tspan><tspan x="362.869" y="77">W</tspan><tspan x="362.869" y="154">T</tspan><tspan x="483.825" y="0">U</tspan><tspan x="483.825" y="77">/</tspan><tspan x="483.825" y="154">S</tspan><tspan x="604.782" y="0">R</tspan><tspan x="604.782" y="77">/</tspan><tspan x="604.782" y="154">W</tspan><tspan x="725.738" y="77">P</tspan><tspan x="-1084.7" y="1020" fill="#000" font-family="Microsoft YaHei,Microsoft YaHei_MSFontService,sans-serif" font-weight="400">PAGE DIRECTORY ENTRY</tspan></text><path fill="none" stroke="#000" stroke-linejoin="round" stroke-miterlimit="10" stroke-width="4.583" d="M646.336 1594.64v409.45m362.864-409.45v409.45m604.79-409.45v409.45m604.78-409.45v409.45m362.87-409.45v409.45m120.95-409.45v409.45m120.96-409.45v409.45m120.96-409.45v409.45m120.95-409.45v409.45m120.96-409.45v409.45m120.95-409.45v409.45m120.96-409.45v409.45M523.088 1596.93H3551.58m-3026.201-2.29v409.45m3023.911-409.45v409.45m-3026.202-2.29H3551.58"/><text font-family="Courier New,Courier New_MSFontService,sans-serif" font-size="41" font-weight="700" transform="translate(561.222 1550)">63<tspan x="120.956" y="0">62</tspan></text><g clip-path="url(#O)"><text font-family="Courier New,Courier New_MSFontService,sans-serif" font-size="41" font-weight="700" transform="translate(790.817 1550)">...</text></g><text font-family="Courier New,Courier New_MSFontService,sans-serif" font-size="41" font-weight="700" transform="translate(924.091 1550)">52<tspan x="120.956" y="0">51</tspan><tspan x="350.551" y="0">...</tspan><tspan x="617.099" y="0">M</tspan><tspan x="731.429" y="0">M</tspan><tspan x="756.065" y="0">-</tspan>1<tspan x="973.342" y="0">...</tspan><tspan x="1209.56" y="0">12</tspan><tspan x="1330.52" y="0">11</tspan></text><g clip-path="url(#P)"><text font-family="Courier New,Courier New_MSFontService,sans-serif" font-size="41" font-weight="700" transform="translate(2363.25 1550)">...</text></g><text font-family="Courier New,Courier New_MSFontService,sans-serif" font-size="41" font-weight="700" transform="translate(2508.84 1550)">8<tspan x="120.956" y="0">7</tspan><tspan x="241.913" y="0">6</tspan><tspan x="362.869" y="0">5</tspan><tspan x="483.825" y="0">4</tspan><tspan x="604.782" y="0">3</tspan><tspan x="725.738" y="0">2</tspan><tspan x="846.694" y="0">1</tspan><tspan x="967.651" y="0">0</tspan><tspan x="-1942.18" y="229" fill="#d74514" font-size="64">X</tspan><tspan x="-1942.18" y="306" fill="#d74514" font-size="64">D</tspan><tspan x="-1738.65" y="268" fill="#d74514" font-size="64">AVL</tspan><tspan x="-1350.79" y="229" fill="#d74514" font-size="64">Reversed</tspan><tspan x="-1254.84" y="306" fill="#d74514" font-size="64">(0)</tspan><tspan x="-841.969" y="229" fill="#d74514" font-size="64">Bits 12</tspan><tspan x="-573.271" y="229" fill="#d74514" font-size="64">-</tspan><tspan x="-534.886" y="229" fill="#d74514" font-size="64">(M</tspan><tspan x="-458.115" y="229" fill="#d74514" font-size="64">-</tspan><tspan x="-419.73" y="229" fill="#d74514" font-size="64">1)</tspan><tspan x="-784.38" y="306" fill="#d74514" font-size="64">of address</tspan><tspan x="-166.217" y="268" fill="#d74514" font-size="64">AVL</tspan></text><g clip-path="url(#Q)"><text fill="#d74514" font-family="Courier New,Courier New_MSFontService,sans-serif" font-size="64" font-weight="700" transform="translate(2613.18 1755)">P</text></g><g clip-path="url(#R)"><text fill="#d74514" font-family="Courier New,Courier New_MSFontService,sans-serif" font-size="64" font-weight="700" transform="translate(2613.18 1832)">S</text></g><g clip-path="url(#S)"><text fill="#d74514" font-family="Courier New,Courier New_MSFontService,sans-serif" font-size="41" font-weight="700" transform="translate(2605.16 1888)">(0)</text></g><text fill="#d74514" font-family="Courier New,Courier New_MSFontService,sans-serif" font-size="64" font-weight="700" transform="translate(2743.88 1741)">A<tspan x="0" y="77">V</tspan><tspan x="0" y="154">L</tspan><tspan x="120.956" y="77">A</tspan><tspan x="241.913" y="0">P</tspan><tspan x="241.913" y="77">C</tspan><tspan x="241.913" y="154">D</tspan><tspan x="362.869" y="0">P</tspan><tspan x="362.869" y="77">W</tspan><tspan x="362.869" y="154">T</tspan><tspan x="483.825" y="0">U</tspan><tspan x="483.825" y="77">/</tspan><tspan x="483.825" y="154">S</tspan><tspan x="604.782" y="0">R</tspan><tspan x="604.782" y="77">/</tspan><tspan x="604.782" y="154">W</tspan><tspan x="725.738" y="77">P</tspan></text></g></svg>