<svg xmlns="http://www.w3.org/2000/svg" width="2172" height="1226" overflow="hidden"><defs><clipPath id="a"><path d="M2190 297h2172v1226H2190z"/></clipPath></defs><g clip-path="url(#a)" transform="translate(-2190 -297)"><path fill="#f8ccb9" fill-rule="evenodd" stroke="#000" stroke-miterlimit="8" stroke-width="2.292" d="M3326 815.5c0-285.807 231.69-517.5 517.5-517.5S4361 529.693 4361 815.5c0 285.81-231.69 517.5-517.5 517.5S3326 1101.31 3326 815.5Z"/><path fill="none" stroke="#d74514" stroke-miterlimit="8" stroke-width="2.292" d="M3326 814h1033.73M3843 297v1034.74M3477 448l730.96 731.67m0-731.67-730.956 731.669M3365.2 616.553l954.93 395.847m-279.35-675.859-396.23 955.869m.58-955.837 395.07 955.807m280.17-675.904-955.418 395.996m-27.272-308.437 1009.97 220.358m-394.7-615.655L3732.38 1319.69m-168.81-940.81 558.19 870.67m155.97-714.854-870.124 559.036m10.754-574.411 848.61 590.309M4138.1 389.758l-590.88 849.432m204.32-933.741L3933.78 1323.5m417.82-600.641-1017.872 183.23m-4.388-140.33 1029.18 96.912m-466.09-563.546-97 1030.175m-281.07-913.572L4173.5 1212.7m68.6-728.445-796.33 659.92m-58.67-571.514 913.62 483.629m-214.76-699.071-484.1 914.511m90.19-951.572 303.72 988.632m342.3-646.658-988.334 304.682m1.764-309.635 984.86 314.071m-335.24-649.947-314.38 985.827m-79.86-952.497 474.1 919.167m222.3-697.085-918.7 475m64.56-570.873 789.53 667.268m-60.81-728.785-667.91 790.295m290.96-910.472L3886.9 1329.8m472.29-558.826-1030.567 86.998"/><path fill="#fdefe8" fill-rule="evenodd" d="M3364 819c0-265.097 214.9-480 480-480s480 214.903 480 480c0 265.1-214.9 480-480 480s-480-214.9-480-480"/><path fill="none" stroke="#d74514" stroke-miterlimit="8" stroke-width="2.292" d="M3366 813h956.13M3844 330v966.66m-424.59-703.844 848.35 441.014m-201.24-649.35-445.87 857.69m-142.48-737.105 730.82 616.515m-53.75-677.688-623.31 738.868m19.64-754.578 584.03 770.278m88.93-673.972-761.89 577.672m175.37-726.268 411.15 874.858m227.09-640.762-865.33 406.672m332.63-676.201 200.06 945.731m367.69-571.807-935.43 197.88m3.68-213.935 928.06 229.99m-347.77-584.132-232.52 938.274M3371.3 759.774l950.18 106.527m-421.24-533.583-107.7 960.642m-343.11-746.716 793.93 532.786m-127.64-667.728-538.65 802.668m-63.09-752.204 664.82 701.744m14.64-679.662-694.1 657.582m99.77-744.071 494.57 830.561m163.47-659.876-821.51 489.186m255.2-702.204 311.11 915.224m297.07-611.477-905.26 307.728m405.91-634.929 93.44 962.128m429.11-527.276-951.65 92.427m27.5-212.192 896.65 331.957M4014.2 359.774 3678.59 1266.3"/><path fill="#f8ccb9" fill-rule="evenodd" d="M3402 814c0-244.11 197.89-442 442-442s442 197.89 442 442-197.89 442-442 442-442-197.89-442-442"/><path fill="none" stroke="#d74514" stroke-miterlimit="8" stroke-width="2.292" d="M3402 813h884m-442-442v883.42m-429.29-548.162 857.97 212.932m-322.59-535.173L3737.3 1241.43m-283.01-637.817 778.81 418.227m-180.43-598.267-417.95 778.307m-119.9-684.455 657.75 590.595m-33.77-623.962-590.21 657.332m66.62-706.691 456.97 756.051m149.79-606.662-756.54 457.272m257.26-653.452 242.01 849.632m304.09-545.896-850.19 242.16m-12.98-179.085 876.35 116.01m-380.21-495.897-115.93 875.788m-353.34-599.738 822.61 323.684m-249.57-572.878-323.47 822.072M3485.2 554.318l717.19 516.812m-100.36-616.767-516.47 716.727m-28.86-694.053 574.19 671.373m48.81-622.968-671.81 574.568m159-692.027 353.81 809.477m228.1-581.754-810.01 354.035m340.8-614.038L3908 1249.74m373.1-501.263-874.61 128.494"/><path fill="#fdefe8" fill-rule="evenodd" d="M3441 814c0-222.018 180.21-402 402.5-402S4246 591.982 4246 814c0 222.02-180.21 402-402.5 402S3441 1036.02 3441 814"/><path fill="none" stroke="#d74514" stroke-miterlimit="8" stroke-width="2.292" d="M3441 814h803.18M3842 407v812.47m-380.22-534.39 760.85 257.284m-250.29-513.472-260.26 769.658m-181.81-637.753 623.87 505.853m-56.08-568.474-511.7 631.094m33.69-655.657 444.32 680.217m114.05-559.726-672.43 439.236m217.04-607.981 238.35 776.721m264.75-506.173-767.84 235.629m-10.76-182.872 792.44 130.905m-330.01-466.258-132.42 801.609m-288.16-589.729 708.75 377.849m-163.27-547.399-382.22 716.949m-78.51-662.332 539.25 607.722m30.75-570.406-600.76 533.086M3680 442.347l327.51 743.543m203.76-533.657-735.03 323.766m313.22-564.476 108.58 805.187m343.7-456.261-795.98 107.334"/><path fill="#f8ccb9" fill-rule="evenodd" d="M3477 815.5c0-201.308 163.19-364.5 364.5-364.5S4206 614.192 4206 815.5c0 201.31-163.19 364.5-364.5 364.5S3477 1016.81 3477 815.5"/><path fill="none" stroke="#d74514" stroke-miterlimit="8" stroke-width="2.292" d="M3477 814h730.33M3843 449v730.61M3584 556l516.42 516.62m0-516.62L3584 1072.621m-78.78-398.22 674.66 279.664m-197.44-477.294L3702.67 1151.7m.27-674.964 279.23 674.994M4180 674.487l-674.886 279.491m-19.334-217.769 713.55 155.682m-278.9-434.751-155.75 713.82m-119.34-664.326 394.43 614.836m110.12-504.752-614.678 394.663m7.568-405.674 599.54 417.053m-91.16-508.413-417.21 599.773m144.14-659.388 128.93 719.008m295.01-424.109-718.953 129.204"/><path fill="#fdefe8" fill-rule="evenodd" d="M3511 815.5c0-181.978 147.52-329.5 329.5-329.5S4170 633.522 4170 815.5 4022.48 1145 3840.5 1145 3511 997.478 3511 815.5"/><path fill="none" stroke="#d74514" stroke-miterlimit="8" stroke-width="2.292" d="M3511 814h663.09M3842 483v662.44m-293.81-484.509 588.34 305.85m-141.4-446.807-305.55 587.766m-100.64-507.665 506.83 427.565m-39.84-466.951-427.15 506.331m13.46-517.097 400.23 527.867m64.08-464.245-528.39 400.625m123.32-500.081 281.75 599.531m159.19-440.78-600.13 282.032m231.52-465.065L3910.9 1137.9m255.82-392.66-648.73 137.232m2.56-148.367 643.62 159.502m-242.14-401.246-159.35 642.989"/><path fill="#f8ccb9" fill-rule="evenodd" d="M3547 814.5c0-165.409 134.09-299.5 299.5-299.5S4146 649.091 4146 814.5 4011.91 1114 3846.5 1114 3547 979.909 3547 814.5"/><path fill="none" stroke="#d74514" stroke-miterlimit="8" stroke-width="2.292" d="M3540 814h605.96M3843 515v598.76m-294.01-372.755 588.12 145.958m-221.95-363.545-144.22 581.132m-194.81-433.906 533.85 286.68m-125.29-407.096-283.28 527.512m-83.8-466.175 450.88 404.835m-25.42-425.177-400.03 445.517m45.15-478.971 309.72 512.431m104.43-412.939-518.58 313.447m177.28-444.652 164.02 575.854m209.38-370.923-582.78 165.994"/><path fill="#fdefe8" fill-rule="evenodd" d="M3580 814c0-146.356 118.64-265 265-265s265 118.644 265 265c0 146.355-118.64 265-265 265s-265-118.645-265-265"/><path fill="none" stroke="#d74514" stroke-miterlimit="8" stroke-width="2.292" d="M3576 813h533.45M3843 549v529.03m-252.54-350.307 505.34 170.881m-167.94-336.018L3758.4 1063.74m-122.45-418.562 414.36 335.97M4009.72 607.7l-333.19 410.93m21.94-426.924 289.31 442.914m78.66-367.321-446.62 291.728m145.71-398.741 155.2 505.754m177.39-331.126-509.98 156.498"/><path fill="#f8ccb9" fill-rule="evenodd" d="M3610 814.5c0-128.958 104.54-233.5 233.5-233.5S4077 685.542 4077 814.5 3972.46 1048 3843.5 1048 3610 943.458 3610 814.5"/><path fill="none" stroke="#d74514" stroke-miterlimit="8" stroke-width="2.292" d="M3610 814h466.82M3843 581v467.06M3678 649l330.09 330.261m0-330.261L3678 979.261m-50.44-254.39 431.24 178.758M3932.61 598.52l-178.85 431.46m.19-431.474 178.46 431.484m126.47-305.084-431.396 178.687"/><path fill="#fdefe8" fill-rule="evenodd" d="M3650 813c0-106.591 86.63-193 193.5-193S4037 706.409 4037 813s-86.63 193-193.5 193S3650 919.591 3650 813"/><path fill="none" stroke="#d74514" stroke-miterlimit="8" stroke-width="2.292" d="M3650 813h386.47M3843 620v386.47m-169.79-285.129 340.48 182.841m-78.82-261.661-182.84 340.482m-8.54-335.615 199.91 330.747m65.42-265.33-330.74 199.913"/><path fill-rule="evenodd" d="M3685 811c0-86.157 69.84-156 156-156s156 69.843 156 156-69.84 156-156 156-156-69.844-156-156"/><path fill="#fff" fill-rule="evenodd" d="M3823 706c0-12.15 9.85-22 22-22s22 9.85 22 22-9.85 22-22 22-22-9.85-22-22m88 58c0-12.15 9.85-22 22-22s22 9.85 22 22-9.85 22-22 22-22-9.85-22-22m0 102c0-12.15 9.85-22 22-22s22 9.85 22 22-9.85 22-22 22-22-9.85-22-22m-183-103c0-12.15 9.85-22 22-22s22 9.85 22 22-9.85 22-22 22-22-9.85-22-22m2 103c0-12.15 9.85-22 22-22s22 9.85 22 22-9.85 22-22 22-22-9.85-22-22m93 53.5c0-12.427 9.85-22.5 22-22.5s22 10.073 22 22.5-9.85 22.5-22 22.5-22-10.074-22-22.5"/><path fill="#d74514" fill-rule="evenodd" d="M3808 816c0-20.435 16.57-37 37-37s37 16.565 37 37-16.57 37-37 37-37-16.566-37-37"/><text font-family="Microsoft YaHei,Microsoft YaHei_MSFontService,sans-serif" font-size="83" font-weight="400" transform="translate(2626.48 1453)">CHS<tspan x="1143.35" y="-4">LBA</tspan></text><path fill="#f8ccb9" fill-rule="evenodd" stroke="#000" stroke-miterlimit="8" stroke-width="2.292" d="M2192 816.5c0-285.807 231.69-517.5 517.5-517.5S3227 530.693 3227 816.5c0 285.81-231.69 517.5-517.5 517.5S2192 1102.31 2192 816.5Z"/><path fill="#fdefe8" fill-rule="evenodd" d="M2230 817c0-265.097 214.9-480 480-480s480 214.903 480 480c0 265.1-214.9 480-480 480s-480-214.9-480-480"/><path fill="#f8ccb9" fill-rule="evenodd" d="M2268 817c0-244.11 197.89-442 442-442s442 197.89 442 442-197.89 442-442 442-442-197.89-442-442"/><path fill="#fdefe8" fill-rule="evenodd" d="M2307 817c0-222.019 180.21-402 402.5-402S3112 594.981 3112 817c0 222.02-180.21 402-402.5 402S2307 1039.02 2307 817"/><path fill="#f8ccb9" fill-rule="evenodd" d="M2345 817c0-201.032 163.19-364 364.5-364S3074 615.968 3074 817c0 201.03-163.19 364-364.5 364S2345 1018.03 2345 817"/><path fill="#fdefe8" fill-rule="evenodd" d="M2380 817c0-182.254 147.52-330 329.5-330S3039 634.746 3039 817s-147.52 330-329.5 330S2380 999.254 2380 817"/><path fill="#f8ccb9" fill-rule="evenodd" d="M2410 815.5c0-165.409 134.09-299.5 299.5-299.5S3009 650.091 3009 815.5 2874.91 1115 2709.5 1115 2410 980.909 2410 815.5"/><path fill="#fdefe8" fill-rule="evenodd" d="M2445 816c0-146.355 118.64-265 265-265s265 118.645 265 265-118.64 265-265 265-265-118.644-265-265"/><path fill="#f8ccb9" fill-rule="evenodd" d="M2476 815.5c0-128.958 104.54-233.5 233.5-233.5S2943 686.542 2943 815.5 2838.46 1049 2709.5 1049 2476 944.458 2476 815.5"/><path fill="#fdefe8" fill-rule="evenodd" d="M2516 816c0-106.591 86.63-193 193.5-193S2903 709.409 2903 816s-86.63 193-193.5 193S2516 922.591 2516 816"/><path fill="none" stroke="#d74514" stroke-miterlimit="8" stroke-width="2.292" d="M2190 816h1035m-517-517v1035m-366-883 731.85 731.85m0-731.85-731.853 731.853M2229.9 618.588 3186 1014.92m-279.89-676.221-396.33 956.111m.26-956.216 395.82 956.316m280.25-676.069-956.317 395.823m-28.763-302.439 1013.9 207.901m-403-610.901-207.9 1013.895m-181.02-938.917 569.93 863.947m147.01-716.939-863.944 569.928m3.414-574.862 857.01 580.303m-138.35-718.654-580.31 857.004m192.32-936.667L2805.75 1324.6m410.34-605.999L2199.755 914.259"/><path fill-rule="evenodd" d="M2554 816c0-86.156 69.84-156 156-156s156 69.844 156 156-69.84 156-156 156-156-69.844-156-156"/><path fill="#fff" fill-rule="evenodd" d="M2692 711.5c0-12.427 9.85-22.5 22-22.5s22 10.073 22 22.5-9.85 22.5-22 22.5-22-10.074-22-22.5m87 57.5c0-12.15 10.07-22 22.5-22s22.5 9.85 22.5 22-10.07 22-22.5 22-22.5-9.85-22.5-22m0 103c0-12.15 10.07-22 22.5-22s22.5 9.85 22.5 22-10.07 22-22.5 22-22.5-9.85-22.5-22m-182-104c0-12.15 9.85-22 22-22s22 9.85 22 22-9.85 22-22 22-22-9.85-22-22m1 103c0-12.15 10.07-22 22.5-22s22.5 9.85 22.5 22-10.07 22-22.5 22-22.5-9.85-22.5-22m94 54c0-12.15 9.85-22 22-22s22 9.85 22 22-9.85 22-22 22-22-9.85-22-22"/><path fill="#d74514" fill-rule="evenodd" d="M2677 821c0-20.434 16.57-37 37-37s37 16.566 37 37-16.57 37-37 37-37-16.565-37-37"/></g></svg>