<svg width="3031" height="3296" xmlns="http://www.w3.org/2000/svg" xmlns:xlink="http://www.w3.org/1999/xlink" overflow="hidden"><defs><clipPath id="clip0"><rect x="523" y="-517" width="3031" height="3296"/></clipPath><clipPath id="clip1"><rect x="525" y="1898" width="235" height="617"/></clipPath><clipPath id="clip2"><rect x="759" y="1898" width="1748" height="617"/></clipPath><clipPath id="clip3"><rect x="2506" y="1898" width="272" height="617"/></clipPath><clipPath id="clip4"><rect x="2777" y="1898" width="773" height="617"/></clipPath><clipPath id="clip5"><rect x="525" y="2019" width="235" height="617"/></clipPath><clipPath id="clip6"><rect x="759" y="2019" width="1748" height="617"/></clipPath><clipPath id="clip7"><rect x="2506" y="2019" width="272" height="617"/></clipPath><clipPath id="clip8"><rect x="2777" y="2019" width="773" height="617"/></clipPath><clipPath id="clip9"><rect x="525" y="2140" width="235" height="617"/></clipPath><clipPath id="clip10"><rect x="759" y="2140" width="1748" height="617"/></clipPath><clipPath id="clip11"><rect x="2506" y="2140" width="272" height="617"/></clipPath><clipPath id="clip12"><rect x="2777" y="2140" width="773" height="617"/></clipPath><clipPath id="clip13"><rect x="525" y="2261" width="235" height="617"/></clipPath><clipPath id="clip14"><rect x="759" y="2261" width="1748" height="617"/></clipPath><clipPath id="clip15"><rect x="2506" y="2261" width="272" height="617"/></clipPath><clipPath id="clip16"><rect x="2777" y="2261" width="773" height="617"/></clipPath><clipPath id="clip17"><rect x="525" y="2382" width="235" height="617"/></clipPath><clipPath id="clip18"><rect x="759" y="2382" width="1748" height="617"/></clipPath><clipPath id="clip19"><rect x="2506" y="2382" width="272" height="617"/></clipPath><clipPath id="clip20"><rect x="2777" y="2382" width="773" height="617"/></clipPath><clipPath id="clip21"><rect x="767" y="-632" width="122" height="347"/></clipPath><clipPath id="clip22"><rect x="2339" y="-632" width="122" height="347"/></clipPath><clipPath id="clip23"><rect x="2581" y="-1449" width="122" height="2503"/></clipPath><clipPath id="clip24"><rect x="2581" y="-1449" width="122" height="2503"/></clipPath><clipPath id="clip25"><rect x="2581" y="-1449" width="122" height="2503"/></clipPath><clipPath id="clip26"><rect x="2581" y="-1449" width="122" height="2503"/></clipPath><clipPath id="clip27"><rect x="2581" y="-1449" width="122" height="2503"/></clipPath><clipPath id="clip28"><rect x="767" y="34" width="122" height="347"/></clipPath><clipPath id="clip29"><rect x="2339" y="34" width="122" height="347"/></clipPath><clipPath id="clip30"><rect x="2581" y="-784" width="122" height="2504"/></clipPath><clipPath id="clip31"><rect x="2581" y="-784" width="122" height="2504"/></clipPath><clipPath id="clip32"><rect x="2581" y="-784" width="122" height="2504"/></clipPath><clipPath id="clip33"><rect x="2581" y="-784" width="122" height="2504"/></clipPath><clipPath id="clip34"><rect x="2581" y="-784" width="122" height="2504"/></clipPath><clipPath id="clip35"><rect x="767" y="699" width="122" height="348"/></clipPath><clipPath id="clip36"><rect x="2339" y="699" width="122" height="348"/></clipPath><clipPath id="clip37"><rect x="2581" y="421" width="122" height="1425"/></clipPath><clipPath id="clip38"><rect x="2581" y="421" width="122" height="1425"/></clipPath><clipPath id="clip39"><rect x="2581" y="421" width="122" height="1425"/></clipPath><clipPath id="clip40"><rect x="767" y="1365" width="122" height="347"/></clipPath><clipPath id="clip41"><rect x="2339" y="1365" width="122" height="347"/></clipPath><clipPath id="clip42"><rect x="2581" y="1087" width="122" height="1425"/></clipPath><clipPath id="clip43"><rect x="2581" y="1087" width="122" height="1425"/></clipPath><clipPath id="clip44"><rect x="2581" y="1087" width="122" height="1425"/></clipPath></defs><g clip-path="url(#clip0)" transform="translate(-523 517)"><text font-family="Microsoft YaHei,Microsoft YaHei_MSFontService,sans-serif" font-weight="400" font-size="64" transform="matrix(1 0 0 1 1634.37 98)">PAGE MAP LEVEL 5 ENTRY</text><g clip-path="url(#clip1)"><text font-family="Courier New,Courier New_MSFontService,sans-serif" font-weight="700" font-size="73" transform="matrix(1 0 0 1 558.379 2228)">A</text></g><g clip-path="url(#clip2)"><text font-family="Courier New,Courier New_MSFontService,sans-serif" font-weight="400" font-size="73" transform="matrix(1 0 0 1 792.513 2228)">ACCESSED</text></g><g clip-path="url(#clip3)"><text font-family="Courier New,Courier New_MSFontService,sans-serif" font-weight="700" font-size="73" transform="matrix(1 0 0 1 2539.96 2228)">PS</text></g><g clip-path="url(#clip4)"><text font-family="Courier New,Courier New_MSFontService,sans-serif" font-weight="400" font-size="73" transform="matrix(1 0 0 1 2810.33 2228)">PAGE SIZE</text></g><g clip-path="url(#clip5)"><text font-family="Courier New,Courier New_MSFontService,sans-serif" font-weight="700" font-size="73" transform="matrix(1 0 0 1 558.379 2349)">AVL</text></g><g clip-path="url(#clip6)"><text font-family="Courier New,Courier New_MSFontService,sans-serif" font-weight="400" font-size="73" transform="matrix(1 0 0 1 792.513 2349)">AVALIABLE</text></g><g clip-path="url(#clip7)"><text font-family="Courier New,Courier New_MSFontService,sans-serif" font-weight="700" font-size="73" transform="matrix(1 0 0 1 2539.96 2349)">PWT</text></g><g clip-path="url(#clip8)"><text font-family="Courier New,Courier New_MSFontService,sans-serif" font-weight="400" font-size="73" transform="matrix(1 0 0 1 2810.33 2349)">WRITE</text></g><text font-family="Courier New,Courier New_MSFontService,sans-serif" font-weight="400" font-size="73" transform="matrix(1 0 0 1 3030.9 2349)">-<tspan font-size="73" x="44.1145" y="0">THROUGH</tspan></text><g clip-path="url(#clip9)"><text font-family="Courier New,Courier New_MSFontService,sans-serif" font-weight="700" font-size="73" transform="matrix(1 0 0 1 558.379 2470)">M</text></g><g clip-path="url(#clip10)"><text font-family="Courier New,Courier New_MSFontService,sans-serif" font-weight="400" font-size="73" transform="matrix(1 0 0 1 792.513 2470)">MAXIMUM PHYSICAL ADDRESS BIT</text></g><g clip-path="url(#clip11)"><text font-family="Courier New,Courier New_MSFontService,sans-serif" font-weight="700" font-size="73" transform="matrix(1 0 0 1 2539.96 2470)">R/W</text></g><g clip-path="url(#clip12)"><text font-family="Courier New,Courier New_MSFontService,sans-serif" font-weight="400" font-size="73" transform="matrix(1 0 0 1 2810.33 2470)">READ/WRITE</text></g><g clip-path="url(#clip13)"><text font-family="Courier New,Courier New_MSFontService,sans-serif" font-weight="700" font-size="73" transform="matrix(1 0 0 1 558.379 2591)">P</text></g><g clip-path="url(#clip14)"><text font-family="Courier New,Courier New_MSFontService,sans-serif" font-weight="400" font-size="73" transform="matrix(1 0 0 1 792.513 2591)">PRESENT</text></g><g clip-path="url(#clip15)"><text font-family="Courier New,Courier New_MSFontService,sans-serif" font-weight="700" font-size="73" transform="matrix(1 0 0 1 2539.96 2591)">U/S</text></g><g clip-path="url(#clip16)"><text font-family="Courier New,Courier New_MSFontService,sans-serif" font-weight="400" font-size="73" transform="matrix(1 0 0 1 2810.33 2591)">USER/SUPERVISOR</text></g><g clip-path="url(#clip17)"><text font-family="Courier New,Courier New_MSFontService,sans-serif" font-weight="700" font-size="73" transform="matrix(1 0 0 1 558.379 2712)">PCD</text></g><g clip-path="url(#clip18)"><text font-family="Courier New,Courier New_MSFontService,sans-serif" font-weight="400" font-size="73" transform="matrix(1 0 0 1 792.513 2712)">CACHE DISABLE</text></g><g clip-path="url(#clip19)"><text font-family="Courier New,Courier New_MSFontService,sans-serif" font-weight="700" font-size="73" transform="matrix(1 0 0 1 2539.96 2712)">XD</text></g><g clip-path="url(#clip20)"><text font-family="Courier New,Courier New_MSFontService,sans-serif" font-weight="400" font-size="73" transform="matrix(1 0 0 1 2810.33 2712)">EXECUTE DISABLE</text></g><path d="M646.352-402.366 646.352 7.08435" stroke="#000000" stroke-width="4.58333" stroke-linejoin="round" stroke-miterlimit="10" fill="none" fill-rule="evenodd"/><path d="M1009.22-402.366 1009.22 7.08435" stroke="#000000" stroke-width="4.58333" stroke-linejoin="round" stroke-miterlimit="10" fill="none" fill-rule="evenodd"/><path d="M1614-402.366 1614 7.08435" stroke="#000000" stroke-width="4.58333" stroke-linejoin="round" stroke-miterlimit="10" fill="none" fill-rule="evenodd"/><path d="M2218.78-402.366 2218.78 7.08435" stroke="#000000" stroke-width="4.58333" stroke-linejoin="round" stroke-miterlimit="10" fill="none" fill-rule="evenodd"/><path d="M2581.65-402.366 2581.65 7.08435" stroke="#000000" stroke-width="4.58333" stroke-linejoin="round" stroke-miterlimit="10" fill="none" fill-rule="evenodd"/><path d="M2702.61-402.366 2702.61 7.08435" stroke="#000000" stroke-width="4.58333" stroke-linejoin="round" stroke-miterlimit="10" fill="none" fill-rule="evenodd"/><path d="M2823.57-402.366 2823.57 7.08435" stroke="#000000" stroke-width="4.58333" stroke-linejoin="round" stroke-miterlimit="10" fill="none" fill-rule="evenodd"/><path d="M2944.52-402.366 2944.52 7.08435" stroke="#000000" stroke-width="4.58333" stroke-linejoin="round" stroke-miterlimit="10" fill="none" fill-rule="evenodd"/><path d="M3065.48-402.366 3065.48 7.08435" stroke="#000000" stroke-width="4.58333" stroke-linejoin="round" stroke-miterlimit="10" fill="none" fill-rule="evenodd"/><path d="M3186.44-402.366 3186.44 7.08435" stroke="#000000" stroke-width="4.58333" stroke-linejoin="round" stroke-miterlimit="10" fill="none" fill-rule="evenodd"/><path d="M3307.39-402.366 3307.39 7.08435" stroke="#000000" stroke-width="4.58333" stroke-linejoin="round" stroke-miterlimit="10" fill="none" fill-rule="evenodd"/><path d="M3428.35-402.366 3428.35 7.08435" stroke="#000000" stroke-width="4.58333" stroke-linejoin="round" stroke-miterlimit="10" fill="none" fill-rule="evenodd"/><path d="M523.104-400.074 3551.6-400.074" stroke="#000000" stroke-width="4.58333" stroke-linejoin="round" stroke-miterlimit="10" fill="none" fill-rule="evenodd"/><path d="M525.396-402.366 525.396 7.08435" stroke="#000000" stroke-width="4.58333" stroke-linejoin="round" stroke-miterlimit="10" fill="none" fill-rule="evenodd"/><path d="M3549.3-402.366 3549.3 7.08435" stroke="#000000" stroke-width="4.58333" stroke-linejoin="round" stroke-miterlimit="10" fill="none" fill-rule="evenodd"/><path d="M523.104 4.79266 3551.6 4.79266" stroke="#000000" stroke-width="4.58333" stroke-linejoin="round" stroke-miterlimit="10" fill="none" fill-rule="evenodd"/><text font-family="Courier New,Courier New_MSFontService,sans-serif" font-weight="700" font-size="41" transform="matrix(1 0 0 1 561.239 -447)">63<tspan font-size="41" x="120.956" y="0">62</tspan></text><g clip-path="url(#clip21)"><text font-family="Courier New,Courier New_MSFontService,sans-serif" font-weight="700" font-size="41" transform="matrix(1 0 0 1 790.833 -447)">...</text></g><text font-family="Courier New,Courier New_MSFontService,sans-serif" font-weight="700" font-size="41" transform="matrix(1 0 0 1 924.107 -447)">52<tspan font-size="41" x="120.956" y="0">51</tspan><tspan font-size="41" x="350.551" y="0">...</tspan><tspan font-size="41" x="617.099" y="0">M</tspan><tspan font-size="41" x="731.429" y="0">M</tspan><tspan font-size="41" x="756.065" y="0">-</tspan>1<tspan font-size="41" x="973.342" y="0">...</tspan><tspan font-size="41" x="1209.56" y="0">12</tspan><tspan font-size="41" x="1330.52" y="0">11</tspan></text><g clip-path="url(#clip22)"><text font-family="Courier New,Courier New_MSFontService,sans-serif" font-weight="700" font-size="41" transform="matrix(1 0 0 1 2363.27 -447)">...</text></g><text font-family="Courier New,Courier New_MSFontService,sans-serif" font-weight="700" font-size="41" transform="matrix(1 0 0 1 2508.86 -447)">8<tspan font-size="41" x="120.956" y="0">7</tspan><tspan font-size="41" x="241.913" y="0">6</tspan><tspan font-size="41" x="362.869" y="0">5</tspan><tspan font-size="41" x="483.825" y="0">4</tspan><tspan font-size="41" x="604.782" y="0">3</tspan><tspan font-size="41" x="725.738" y="0">2</tspan><tspan font-size="41" x="846.694" y="0">1</tspan><tspan font-size="41" x="967.651" y="0">0</tspan><tspan fill="#D74514" font-size="64" x="-1942.18" y="229">X</tspan><tspan fill="#D74514" font-size="64" x="-1942.18" y="306">D</tspan><tspan fill="#D74514" font-size="64" x="-1738.65" y="268">AVL</tspan><tspan fill="#D74514" font-size="64" x="-1350.79" y="229">Reversed</tspan><tspan fill="#D74514" font-size="64" x="-1254.84" y="306">(0)</tspan><tspan fill="#D74514" font-size="64" x="-841.969" y="229">Bits 12</tspan><tspan fill="#D74514" font-size="64" x="-573.271" y="229">-</tspan><tspan fill="#D74514" font-size="64" x="-534.886" y="229">(M</tspan><tspan fill="#D74514" font-size="64" x="-458.115" y="229">-</tspan><tspan fill="#D74514" font-size="64" x="-419.73" y="229">1)</tspan><tspan fill="#D74514" font-size="64" x="-784.38" y="306">of address</tspan><tspan fill="#D74514" font-size="64" x="-166.217" y="268">AVL</tspan></text><g clip-path="url(#clip23)"><text fill="#D74514" font-family="Courier New,Courier New_MSFontService,sans-serif" font-weight="700" font-size="64" transform="matrix(1 0 0 1 2613.2 -319)">R</text></g><g clip-path="url(#clip24)"><text fill="#D74514" font-family="Courier New,Courier New_MSFontService,sans-serif" font-weight="700" font-size="64" transform="matrix(1 0 0 1 2613.2 -242)">S</text></g><g clip-path="url(#clip25)"><text fill="#D74514" font-family="Courier New,Courier New_MSFontService,sans-serif" font-weight="700" font-size="64" transform="matrix(1 0 0 1 2613.2 -165)">V</text></g><g clip-path="url(#clip26)"><text fill="#D74514" font-family="Courier New,Courier New_MSFontService,sans-serif" font-weight="700" font-size="64" transform="matrix(1 0 0 1 2613.2 -88)">D</text></g><g clip-path="url(#clip27)"><text fill="#D74514" font-family="Courier New,Courier New_MSFontService,sans-serif" font-weight="700" font-size="41" transform="matrix(1 0 0 1 2605.18 -32)">(0)</text></g><text fill="#D74514" font-family="Courier New,Courier New_MSFontService,sans-serif" font-weight="700" font-size="64" transform="matrix(1 0 0 1 2743.9 -256)">A<tspan font-size="64" x="0" y="77">V</tspan><tspan font-size="64" x="0" y="154">L</tspan><tspan font-size="64" x="120.956" y="77">A</tspan><tspan font-size="64" x="241.913" y="0">P</tspan><tspan font-size="64" x="241.913" y="77">C</tspan><tspan font-size="64" x="241.913" y="154">D</tspan><tspan font-size="64" x="362.869" y="0">P</tspan><tspan font-size="64" x="362.869" y="77">W</tspan><tspan font-size="64" x="362.869" y="154">T</tspan><tspan font-size="64" x="483.825" y="0">U</tspan><tspan font-size="64" x="483.825" y="77">/</tspan><tspan font-size="64" x="483.825" y="154">S</tspan><tspan font-size="64" x="604.782" y="0">R</tspan><tspan font-size="64" x="604.782" y="77">/</tspan><tspan font-size="64" x="604.782" y="154">W</tspan><tspan font-size="64" x="725.738" y="77">P</tspan><tspan fill="#000000" font-family="Microsoft YaHei,Microsoft YaHei_MSFontService,sans-serif" font-weight="400" font-size="64" x="-1109.52" y="1020">PAGE MAP LEVEL 4 ENTRY</tspan></text><path d="M646.352 263.29 646.352 672.741" stroke="#000000" stroke-width="4.58333" stroke-linejoin="round" stroke-miterlimit="10" fill="none" fill-rule="evenodd"/><path d="M1009.22 263.29 1009.22 672.741" stroke="#000000" stroke-width="4.58333" stroke-linejoin="round" stroke-miterlimit="10" fill="none" fill-rule="evenodd"/><path d="M1614 263.29 1614 672.741" stroke="#000000" stroke-width="4.58333" stroke-linejoin="round" stroke-miterlimit="10" fill="none" fill-rule="evenodd"/><path d="M2218.78 263.29 2218.78 672.741" stroke="#000000" stroke-width="4.58333" stroke-linejoin="round" stroke-miterlimit="10" fill="none" fill-rule="evenodd"/><path d="M2581.65 263.29 2581.65 672.741" stroke="#000000" stroke-width="4.58333" stroke-linejoin="round" stroke-miterlimit="10" fill="none" fill-rule="evenodd"/><path d="M2702.61 263.29 2702.61 672.741" stroke="#000000" stroke-width="4.58333" stroke-linejoin="round" stroke-miterlimit="10" fill="none" fill-rule="evenodd"/><path d="M2823.57 263.29 2823.57 672.741" stroke="#000000" stroke-width="4.58333" stroke-linejoin="round" stroke-miterlimit="10" fill="none" fill-rule="evenodd"/><path d="M2944.52 263.29 2944.52 672.741" stroke="#000000" stroke-width="4.58333" stroke-linejoin="round" stroke-miterlimit="10" fill="none" fill-rule="evenodd"/><path d="M3065.48 263.29 3065.48 672.741" stroke="#000000" stroke-width="4.58333" stroke-linejoin="round" stroke-miterlimit="10" fill="none" fill-rule="evenodd"/><path d="M3186.44 263.29 3186.44 672.741" stroke="#000000" stroke-width="4.58333" stroke-linejoin="round" stroke-miterlimit="10" fill="none" fill-rule="evenodd"/><path d="M3307.39 263.29 3307.39 672.741" stroke="#000000" stroke-width="4.58333" stroke-linejoin="round" stroke-miterlimit="10" fill="none" fill-rule="evenodd"/><path d="M3428.35 263.29 3428.35 672.741" stroke="#000000" stroke-width="4.58333" stroke-linejoin="round" stroke-miterlimit="10" fill="none" fill-rule="evenodd"/><path d="M523.104 265.582 3551.6 265.582" stroke="#000000" stroke-width="4.58333" stroke-linejoin="round" stroke-miterlimit="10" fill="none" fill-rule="evenodd"/><path d="M525.396 263.29 525.396 672.741" stroke="#000000" stroke-width="4.58333" stroke-linejoin="round" stroke-miterlimit="10" fill="none" fill-rule="evenodd"/><path d="M3549.3 263.29 3549.3 672.741" stroke="#000000" stroke-width="4.58333" stroke-linejoin="round" stroke-miterlimit="10" fill="none" fill-rule="evenodd"/><path d="M523.104 670.449 3551.6 670.449" stroke="#000000" stroke-width="4.58333" stroke-linejoin="round" stroke-miterlimit="10" fill="none" fill-rule="evenodd"/><text font-family="Courier New,Courier New_MSFontService,sans-serif" font-weight="700" font-size="41" transform="matrix(1 0 0 1 561.239 219)">63<tspan font-size="41" x="120.956" y="0">62</tspan></text><g clip-path="url(#clip28)"><text font-family="Courier New,Courier New_MSFontService,sans-serif" font-weight="700" font-size="41" transform="matrix(1 0 0 1 790.833 219)">...</text></g><text font-family="Courier New,Courier New_MSFontService,sans-serif" font-weight="700" font-size="41" transform="matrix(1 0 0 1 924.107 219)">52<tspan font-size="41" x="120.956" y="0">51</tspan><tspan font-size="41" x="350.551" y="0">...</tspan><tspan font-size="41" x="617.099" y="0">M</tspan><tspan font-size="41" x="731.429" y="0">M</tspan><tspan font-size="41" x="756.065" y="0">-</tspan>1<tspan font-size="41" x="973.342" y="0">...</tspan><tspan font-size="41" x="1209.56" y="0">12</tspan><tspan font-size="41" x="1330.52" y="0">11</tspan></text><g clip-path="url(#clip29)"><text font-family="Courier New,Courier New_MSFontService,sans-serif" font-weight="700" font-size="41" transform="matrix(1 0 0 1 2363.27 219)">...</text></g><text font-family="Courier New,Courier New_MSFontService,sans-serif" font-weight="700" font-size="41" transform="matrix(1 0 0 1 2508.86 219)">8<tspan font-size="41" x="120.956" y="0">7</tspan><tspan font-size="41" x="241.913" y="0">6</tspan><tspan font-size="41" x="362.869" y="0">5</tspan><tspan font-size="41" x="483.825" y="0">4</tspan><tspan font-size="41" x="604.782" y="0">3</tspan><tspan font-size="41" x="725.738" y="0">2</tspan><tspan font-size="41" x="846.694" y="0">1</tspan><tspan font-size="41" x="967.651" y="0">0</tspan><tspan fill="#D74514" font-size="64" x="-1942.18" y="229">X</tspan><tspan fill="#D74514" font-size="64" x="-1942.18" y="306">D</tspan><tspan fill="#D74514" font-size="64" x="-1738.65" y="268">AVL</tspan><tspan fill="#D74514" font-size="64" x="-1350.79" y="229">Reversed</tspan><tspan fill="#D74514" font-size="64" x="-1254.84" y="306">(0)</tspan><tspan fill="#D74514" font-size="64" x="-841.969" y="229">Bits 12</tspan><tspan fill="#D74514" font-size="64" x="-573.271" y="229">-</tspan><tspan fill="#D74514" font-size="64" x="-534.886" y="229">(M</tspan><tspan fill="#D74514" font-size="64" x="-458.115" y="229">-</tspan><tspan fill="#D74514" font-size="64" x="-419.73" y="229">1)</tspan><tspan fill="#D74514" font-size="64" x="-784.38" y="306">of address</tspan><tspan fill="#D74514" font-size="64" x="-166.217" y="268">AVL</tspan></text><g clip-path="url(#clip30)"><text fill="#D74514" font-family="Courier New,Courier New_MSFontService,sans-serif" font-weight="700" font-size="64" transform="matrix(1 0 0 1 2613.2 346)">R</text></g><g clip-path="url(#clip31)"><text fill="#D74514" font-family="Courier New,Courier New_MSFontService,sans-serif" font-weight="700" font-size="64" transform="matrix(1 0 0 1 2613.2 423)">S</text></g><g clip-path="url(#clip32)"><text fill="#D74514" font-family="Courier New,Courier New_MSFontService,sans-serif" font-weight="700" font-size="64" transform="matrix(1 0 0 1 2613.2 500)">V</text></g><g clip-path="url(#clip33)"><text fill="#D74514" font-family="Courier New,Courier New_MSFontService,sans-serif" font-weight="700" font-size="64" transform="matrix(1 0 0 1 2613.2 577)">D</text></g><g clip-path="url(#clip34)"><text fill="#D74514" font-family="Courier New,Courier New_MSFontService,sans-serif" font-weight="700" font-size="41" transform="matrix(1 0 0 1 2605.18 633)">(0)</text></g><text fill="#D74514" font-family="Courier New,Courier New_MSFontService,sans-serif" font-weight="700" font-size="64" transform="matrix(1 0 0 1 2743.9 410)">A<tspan font-size="64" x="0" y="77">V</tspan><tspan font-size="64" x="0" y="154">L</tspan><tspan font-size="64" x="120.956" y="77">A</tspan><tspan font-size="64" x="241.913" y="0">P</tspan><tspan font-size="64" x="241.913" y="77">C</tspan><tspan font-size="64" x="241.913" y="154">D</tspan><tspan font-size="64" x="362.869" y="0">P</tspan><tspan font-size="64" x="362.869" y="77">W</tspan><tspan font-size="64" x="362.869" y="154">T</tspan><tspan font-size="64" x="483.825" y="0">U</tspan><tspan font-size="64" x="483.825" y="77">/</tspan><tspan font-size="64" x="483.825" y="154">S</tspan><tspan font-size="64" x="604.782" y="0">R</tspan><tspan font-size="64" x="604.782" y="77">/</tspan><tspan font-size="64" x="604.782" y="154">W</tspan><tspan font-size="64" x="725.738" y="77">P</tspan><tspan fill="#000000" font-family="Microsoft YaHei,Microsoft YaHei_MSFontService,sans-serif" font-weight="400" font-size="64" x="-1334.47" y="1020">PAGE DIRECTORY POINTER TABLE ENTRY</tspan></text><path d="M646.347 928.947 646.347 1338.4" stroke="#000000" stroke-width="4.58333" stroke-linejoin="round" stroke-miterlimit="10" fill="none" fill-rule="evenodd"/><path d="M1009.22 928.947 1009.22 1338.4" stroke="#000000" stroke-width="4.58333" stroke-linejoin="round" stroke-miterlimit="10" fill="none" fill-rule="evenodd"/><path d="M1614 928.947 1614 1338.4" stroke="#000000" stroke-width="4.58333" stroke-linejoin="round" stroke-miterlimit="10" fill="none" fill-rule="evenodd"/><path d="M2218.78 928.947 2218.78 1338.4" stroke="#000000" stroke-width="4.58333" stroke-linejoin="round" stroke-miterlimit="10" fill="none" fill-rule="evenodd"/><path d="M2581.65 928.947 2581.65 1338.4" stroke="#000000" stroke-width="4.58333" stroke-linejoin="round" stroke-miterlimit="10" fill="none" fill-rule="evenodd"/><path d="M2702.6 928.947 2702.6 1338.4" stroke="#000000" stroke-width="4.58333" stroke-linejoin="round" stroke-miterlimit="10" fill="none" fill-rule="evenodd"/><path d="M2823.56 928.947 2823.56 1338.4" stroke="#000000" stroke-width="4.58333" stroke-linejoin="round" stroke-miterlimit="10" fill="none" fill-rule="evenodd"/><path d="M2944.52 928.947 2944.52 1338.4" stroke="#000000" stroke-width="4.58333" stroke-linejoin="round" stroke-miterlimit="10" fill="none" fill-rule="evenodd"/><path d="M3065.47 928.947 3065.47 1338.4" stroke="#000000" stroke-width="4.58333" stroke-linejoin="round" stroke-miterlimit="10" fill="none" fill-rule="evenodd"/><path d="M3186.43 928.947 3186.43 1338.4" stroke="#000000" stroke-width="4.58333" stroke-linejoin="round" stroke-miterlimit="10" fill="none" fill-rule="evenodd"/><path d="M3307.39 928.947 3307.39 1338.4" stroke="#000000" stroke-width="4.58333" stroke-linejoin="round" stroke-miterlimit="10" fill="none" fill-rule="evenodd"/><path d="M3428.34 928.947 3428.34 1338.4" stroke="#000000" stroke-width="4.58333" stroke-linejoin="round" stroke-miterlimit="10" fill="none" fill-rule="evenodd"/><path d="M523.099 931.239 3551.59 931.239" stroke="#000000" stroke-width="4.58333" stroke-linejoin="round" stroke-miterlimit="10" fill="none" fill-rule="evenodd"/><path d="M525.39 928.947 525.39 1338.4" stroke="#000000" stroke-width="4.58333" stroke-linejoin="round" stroke-miterlimit="10" fill="none" fill-rule="evenodd"/><path d="M3549.3 928.947 3549.3 1338.4" stroke="#000000" stroke-width="4.58333" stroke-linejoin="round" stroke-miterlimit="10" fill="none" fill-rule="evenodd"/><path d="M523.099 1336.11 3551.59 1336.11" stroke="#000000" stroke-width="4.58333" stroke-linejoin="round" stroke-miterlimit="10" fill="none" fill-rule="evenodd"/><text font-family="Courier New,Courier New_MSFontService,sans-serif" font-weight="700" font-size="41" transform="matrix(1 0 0 1 561.233 884)">63<tspan font-size="41" x="120.956" y="0">62</tspan></text><g clip-path="url(#clip35)"><text font-family="Courier New,Courier New_MSFontService,sans-serif" font-weight="700" font-size="41" transform="matrix(1 0 0 1 790.828 884)">...</text></g><text font-family="Courier New,Courier New_MSFontService,sans-serif" font-weight="700" font-size="41" transform="matrix(1 0 0 1 924.102 884)">52<tspan font-size="41" x="120.956" y="0">51</tspan><tspan font-size="41" x="350.551" y="0">...</tspan><tspan font-size="41" x="617.099" y="0">M</tspan><tspan font-size="41" x="731.43" y="0">M</tspan><tspan font-size="41" x="756.065" y="0">-</tspan><tspan font-size="41" x="780.7" y="0">1</tspan><tspan font-size="41" x="973.342" y="0">...</tspan><tspan font-size="41" x="1209.56" y="0">12</tspan><tspan font-size="41" x="1330.52" y="0">11</tspan></text><g clip-path="url(#clip36)"><text font-family="Courier New,Courier New_MSFontService,sans-serif" font-weight="700" font-size="41" transform="matrix(1 0 0 1 2363.26 884)">...</text></g><text font-family="Courier New,Courier New_MSFontService,sans-serif" font-weight="700" font-size="41" transform="matrix(1 0 0 1 2508.85 884)">8<tspan font-size="41" x="120.957" y="0">7</tspan><tspan font-size="41" x="241.913" y="0">6</tspan><tspan font-size="41" x="362.869" y="0">5</tspan><tspan font-size="41" x="483.826" y="0">4</tspan><tspan font-size="41" x="604.782" y="0">3</tspan><tspan font-size="41" x="725.738" y="0">2</tspan><tspan font-size="41" x="846.694" y="0">1</tspan><tspan font-size="41" x="967.651" y="0">0</tspan><tspan fill="#D74514" font-size="64" x="-1942.18" y="230">X</tspan><tspan fill="#D74514" font-size="64" x="-1942.18" y="307">D</tspan><tspan fill="#D74514" font-size="64" x="-1738.65" y="268">AVL</tspan><tspan fill="#D74514" font-size="64" x="-1350.79" y="230">Reversed</tspan><tspan fill="#D74514" font-size="64" x="-1254.84" y="307">(0)</tspan><tspan fill="#D74514" font-size="64" x="-841.969" y="230">Bits 12</tspan><tspan fill="#D74514" font-size="64" x="-573.271" y="230">-</tspan><tspan fill="#D74514" font-size="64" x="-534.886" y="230">(M</tspan><tspan fill="#D74514" font-size="64" x="-458.115" y="230">-</tspan><tspan fill="#D74514" font-size="64" x="-419.73" y="230">1)</tspan><tspan fill="#D74514" font-size="64" x="-784.38" y="307">of address</tspan><tspan fill="#D74514" font-size="64" x="-166.217" y="268">AVL</tspan></text><g clip-path="url(#clip37)"><text fill="#D74514" font-family="Courier New,Courier New_MSFontService,sans-serif" font-weight="700" font-size="64" transform="matrix(1 0 0 1 2613.19 1089)">P</text></g><g clip-path="url(#clip38)"><text fill="#D74514" font-family="Courier New,Courier New_MSFontService,sans-serif" font-weight="700" font-size="64" transform="matrix(1 0 0 1 2613.19 1166)">S</text></g><g clip-path="url(#clip39)"><text fill="#D74514" font-family="Courier New,Courier New_MSFontService,sans-serif" font-weight="700" font-size="41" transform="matrix(1 0 0 1 2605.17 1222)">(0)</text></g><text fill="#D74514" font-family="Courier New,Courier New_MSFontService,sans-serif" font-weight="700" font-size="64" transform="matrix(1 0 0 1 2743.89 1075)">A<tspan font-size="64" x="0" y="77">V</tspan><tspan font-size="64" x="0" y="154">L</tspan><tspan font-size="64" x="120.956" y="77">A</tspan><tspan font-size="64" x="241.913" y="0">P</tspan><tspan font-size="64" x="241.913" y="77">C</tspan><tspan font-size="64" x="241.913" y="154">D</tspan><tspan font-size="64" x="362.869" y="0">P</tspan><tspan font-size="64" x="362.869" y="77">W</tspan><tspan font-size="64" x="362.869" y="154">T</tspan><tspan font-size="64" x="483.825" y="0">U</tspan><tspan font-size="64" x="483.825" y="77">/</tspan><tspan font-size="64" x="483.825" y="154">S</tspan><tspan font-size="64" x="604.782" y="0">R</tspan><tspan font-size="64" x="604.782" y="77">/</tspan><tspan font-size="64" x="604.782" y="154">W</tspan><tspan font-size="64" x="725.738" y="77">P</tspan><tspan fill="#000000" font-family="Microsoft YaHei,Microsoft YaHei_MSFontService,sans-serif" font-weight="400" font-size="64" x="-1084.7" y="1020">PAGE DIRECTORY ENTRY</tspan></text><path d="M646.336 1594.64 646.336 2004.09" stroke="#000000" stroke-width="4.58333" stroke-linejoin="round" stroke-miterlimit="10" fill="none" fill-rule="evenodd"/><path d="M1009.2 1594.64 1009.2 2004.09" stroke="#000000" stroke-width="4.58333" stroke-linejoin="round" stroke-miterlimit="10" fill="none" fill-rule="evenodd"/><path d="M1613.99 1594.64 1613.99 2004.09" stroke="#000000" stroke-width="4.58333" stroke-linejoin="round" stroke-miterlimit="10" fill="none" fill-rule="evenodd"/><path d="M2218.77 1594.64 2218.77 2004.09" stroke="#000000" stroke-width="4.58333" stroke-linejoin="round" stroke-miterlimit="10" fill="none" fill-rule="evenodd"/><path d="M2581.64 1594.64 2581.64 2004.09" stroke="#000000" stroke-width="4.58333" stroke-linejoin="round" stroke-miterlimit="10" fill="none" fill-rule="evenodd"/><path d="M2702.59 1594.64 2702.59 2004.09" stroke="#000000" stroke-width="4.58333" stroke-linejoin="round" stroke-miterlimit="10" fill="none" fill-rule="evenodd"/><path d="M2823.55 1594.64 2823.55 2004.09" stroke="#000000" stroke-width="4.58333" stroke-linejoin="round" stroke-miterlimit="10" fill="none" fill-rule="evenodd"/><path d="M2944.51 1594.64 2944.51 2004.09" stroke="#000000" stroke-width="4.58333" stroke-linejoin="round" stroke-miterlimit="10" fill="none" fill-rule="evenodd"/><path d="M3065.46 1594.64 3065.46 2004.09" stroke="#000000" stroke-width="4.58333" stroke-linejoin="round" stroke-miterlimit="10" fill="none" fill-rule="evenodd"/><path d="M3186.42 1594.64 3186.42 2004.09" stroke="#000000" stroke-width="4.58333" stroke-linejoin="round" stroke-miterlimit="10" fill="none" fill-rule="evenodd"/><path d="M3307.37 1594.64 3307.37 2004.09" stroke="#000000" stroke-width="4.58333" stroke-linejoin="round" stroke-miterlimit="10" fill="none" fill-rule="evenodd"/><path d="M3428.33 1594.64 3428.33 2004.09" stroke="#000000" stroke-width="4.58333" stroke-linejoin="round" stroke-miterlimit="10" fill="none" fill-rule="evenodd"/><path d="M523.088 1596.93 3551.58 1596.93" stroke="#000000" stroke-width="4.58333" stroke-linejoin="round" stroke-miterlimit="10" fill="none" fill-rule="evenodd"/><path d="M525.379 1594.64 525.379 2004.09" stroke="#000000" stroke-width="4.58333" stroke-linejoin="round" stroke-miterlimit="10" fill="none" fill-rule="evenodd"/><path d="M3549.29 1594.64 3549.29 2004.09" stroke="#000000" stroke-width="4.58333" stroke-linejoin="round" stroke-miterlimit="10" fill="none" fill-rule="evenodd"/><path d="M523.088 2001.8 3551.58 2001.8" stroke="#000000" stroke-width="4.58333" stroke-linejoin="round" stroke-miterlimit="10" fill="none" fill-rule="evenodd"/><text font-family="Courier New,Courier New_MSFontService,sans-serif" font-weight="700" font-size="41" transform="matrix(1 0 0 1 561.222 1550)">63<tspan font-size="41" x="120.956" y="0">62</tspan></text><g clip-path="url(#clip40)"><text font-family="Courier New,Courier New_MSFontService,sans-serif" font-weight="700" font-size="41" transform="matrix(1 0 0 1 790.817 1550)">...</text></g><text font-family="Courier New,Courier New_MSFontService,sans-serif" font-weight="700" font-size="41" transform="matrix(1 0 0 1 924.091 1550)">52<tspan font-size="41" x="120.956" y="0">51</tspan><tspan font-size="41" x="350.551" y="0">...</tspan><tspan font-size="41" x="617.099" y="0">M</tspan><tspan font-size="41" x="731.429" y="0">M</tspan><tspan font-size="41" x="756.065" y="0">-</tspan>1<tspan font-size="41" x="973.342" y="0">...</tspan><tspan font-size="41" x="1209.56" y="0">12</tspan><tspan font-size="41" x="1330.52" y="0">11</tspan></text><g clip-path="url(#clip41)"><text font-family="Courier New,Courier New_MSFontService,sans-serif" font-weight="700" font-size="41" transform="matrix(1 0 0 1 2363.25 1550)">...</text></g><text font-family="Courier New,Courier New_MSFontService,sans-serif" font-weight="700" font-size="41" transform="matrix(1 0 0 1 2508.84 1550)">8<tspan font-size="41" x="120.956" y="0">7</tspan><tspan font-size="41" x="241.913" y="0">6</tspan><tspan font-size="41" x="362.869" y="0">5</tspan><tspan font-size="41" x="483.825" y="0">4</tspan><tspan font-size="41" x="604.782" y="0">3</tspan><tspan font-size="41" x="725.738" y="0">2</tspan><tspan font-size="41" x="846.694" y="0">1</tspan><tspan font-size="41" x="967.651" y="0">0</tspan><tspan fill="#D74514" font-size="64" x="-1942.18" y="229">X</tspan><tspan fill="#D74514" font-size="64" x="-1942.18" y="306">D</tspan><tspan fill="#D74514" font-size="64" x="-1738.65" y="268">AVL</tspan><tspan fill="#D74514" font-size="64" x="-1350.79" y="229">Reversed</tspan><tspan fill="#D74514" font-size="64" x="-1254.84" y="306">(0)</tspan><tspan fill="#D74514" font-size="64" x="-841.969" y="229">Bits 12</tspan><tspan fill="#D74514" font-size="64" x="-573.271" y="229">-</tspan><tspan fill="#D74514" font-size="64" x="-534.886" y="229">(M</tspan><tspan fill="#D74514" font-size="64" x="-458.115" y="229">-</tspan><tspan fill="#D74514" font-size="64" x="-419.73" y="229">1)</tspan><tspan fill="#D74514" font-size="64" x="-784.38" y="306">of address</tspan><tspan fill="#D74514" font-size="64" x="-166.217" y="268">AVL</tspan></text><g clip-path="url(#clip42)"><text fill="#D74514" font-family="Courier New,Courier New_MSFontService,sans-serif" font-weight="700" font-size="64" transform="matrix(1 0 0 1 2613.18 1755)">P</text></g><g clip-path="url(#clip43)"><text fill="#D74514" font-family="Courier New,Courier New_MSFontService,sans-serif" font-weight="700" font-size="64" transform="matrix(1 0 0 1 2613.18 1832)">S</text></g><g clip-path="url(#clip44)"><text fill="#D74514" font-family="Courier New,Courier New_MSFontService,sans-serif" font-weight="700" font-size="41" transform="matrix(1 0 0 1 2605.16 1888)">(0)</text></g><text fill="#D74514" font-family="Courier New,Courier New_MSFontService,sans-serif" font-weight="700" font-size="64" transform="matrix(1 0 0 1 2743.88 1741)">A<tspan font-size="64" x="0" y="77">V</tspan><tspan font-size="64" x="0" y="154">L</tspan><tspan font-size="64" x="120.956" y="77">A</tspan><tspan font-size="64" x="241.913" y="0">P</tspan><tspan font-size="64" x="241.913" y="77">C</tspan><tspan font-size="64" x="241.913" y="154">D</tspan><tspan font-size="64" x="362.869" y="0">P</tspan><tspan font-size="64" x="362.869" y="77">W</tspan><tspan font-size="64" x="362.869" y="154">T</tspan><tspan font-size="64" x="483.825" y="0">U</tspan><tspan font-size="64" x="483.825" y="77">/</tspan><tspan font-size="64" x="483.825" y="154">S</tspan><tspan font-size="64" x="604.782" y="0">R</tspan><tspan font-size="64" x="604.782" y="77">/</tspan><tspan font-size="64" x="604.782" y="154">W</tspan><tspan font-size="64" x="725.738" y="77">P</tspan></text></g></svg>