<svg width="5167" height="3229" xmlns="http://www.w3.org/2000/svg" xmlns:xlink="http://www.w3.org/1999/xlink" overflow="hidden"><defs><clipPath id="clip0"><rect x="-463" y="-744" width="5167" height="3229"/></clipPath></defs><g clip-path="url(#clip0)" transform="translate(463 744)"><rect x="-463" y="1724" width="1143" height="761" fill="#FEF8F6"/><rect x="-463" y="1547" width="1143" height="177" fill="#F8CCB9"/><text font-family="Microsoft YaHei,Microsoft YaHei_MSFontService,sans-serif" font-weight="400" font-size="92" transform="matrix(1 0 0 1 -220.754 1669)">叶子节点<tspan font-size="92" x="393.594" y="0">/ </tspan><tspan font-size="92" x="459.479" y="0">页</tspan>10</text><rect x="-393" y="1823" width="190" height="578" fill="#F0835B"/><text fill="#FFFFFF" font-family="Microsoft YaHei,Microsoft YaHei_MSFontService,sans-serif" font-weight="400" font-size="92" transform="matrix(1 0 0 1 -344.062 1980)">最<tspan font-size="92" x="0" y="110">小</tspan><tspan font-size="92" x="0" y="220">记</tspan><tspan font-size="92" x="0" y="330">录</tspan></text><rect x="-125" y="1823" width="190" height="578" fill="#D74514"/><text fill="#FFFFFF" font-family="Microsoft YaHei,Microsoft YaHei_MSFontService,sans-serif" font-weight="400" font-size="92" transform="matrix(1 0 0 1 -75.9375 2090)">数<tspan font-size="92" x="0" y="110">据</tspan></text><rect x="143" y="1823" width="190" height="578" fill="#D74514"/><text fill="#FFFFFF" font-family="Microsoft YaHei,Microsoft YaHei_MSFontService,sans-serif" font-weight="400" font-size="92" transform="matrix(1 0 0 1 192.187 2090)">数<tspan font-size="92" x="0" y="110">据</tspan></text><rect x="411" y="1823" width="190" height="578" fill="#F0835B"/><text fill="#FFFFFF" font-family="Microsoft YaHei,Microsoft YaHei_MSFontService,sans-serif" font-weight="400" font-size="92" transform="matrix(1 0 0 1 460.312 1980)">最<tspan font-size="92" x="0" y="110">大</tspan><tspan font-size="92" x="0" y="220">记</tspan><tspan font-size="92" x="0" y="330">录</tspan></text><path d="M-202.5 2107.92-165.572 2107.92-165.572 2117.08-202.5 2117.08ZM-170.155 2089.58-124.322 2112.5-170.155 2135.42Z"/><path d="M65.5002 2107.92 102.428 2107.92 102.428 2117.08 65.5001 2117.08ZM97.8449 2089.58 143.678 2112.5 97.8447 2135.42Z"/><path d="M333.5 2107.92 370.428 2107.92 370.428 2117.08 333.5 2117.08ZM365.845 2089.58 411.678 2112.5 365.844 2135.42Z"/><rect x="879" y="1724" width="1143" height="761" fill="#FEF8F6"/><rect x="879" y="1547" width="1143" height="177" fill="#F8CCB9"/><text font-family="Microsoft YaHei,Microsoft YaHei_MSFontService,sans-serif" font-weight="400" font-size="92" transform="matrix(1 0 0 1 1120.61 1669)">叶子节点<tspan font-size="92" x="393.594" y="0">/ </tspan><tspan font-size="92" x="459.479" y="0">页</tspan><tspan font-size="92" x="551.146" y="0">22</tspan></text><rect x="948" y="1823" width="190" height="578" fill="#F0835B"/><text fill="#FFFFFF" font-family="Microsoft YaHei,Microsoft YaHei_MSFontService,sans-serif" font-weight="400" font-size="92" transform="matrix(1 0 0 1 997.3 1980)">最<tspan font-size="92" x="0" y="110">小</tspan><tspan font-size="92" x="0" y="220">记</tspan><tspan font-size="92" x="0" y="330">录</tspan></text><rect x="1216" y="1823" width="190" height="578" fill="#D74514"/><text fill="#FFFFFF" font-family="Microsoft YaHei,Microsoft YaHei_MSFontService,sans-serif" font-weight="400" font-size="92" transform="matrix(1 0 0 1 1265.42 2090)">数<tspan font-size="92" x="0" y="110">据</tspan></text><rect x="1484" y="1823" width="190" height="578" fill="#D74514"/><text fill="#FFFFFF" font-family="Microsoft YaHei,Microsoft YaHei_MSFontService,sans-serif" font-weight="400" font-size="92" transform="matrix(1 0 0 1 1533.55 2090)">数<tspan font-size="92" x="0" y="110">据</tspan></text><rect x="1753" y="1823" width="189" height="578" fill="#F0835B"/><text fill="#FFFFFF" font-family="Microsoft YaHei,Microsoft YaHei_MSFontService,sans-serif" font-weight="400" font-size="92" transform="matrix(1 0 0 1 1801.67 1980)">最<tspan font-size="92" x="0" y="110">大</tspan><tspan font-size="92" x="0" y="220">记</tspan><tspan font-size="92" x="0" y="330">录</tspan></text><path d="M1138.5 2107.92 1175.43 2107.92 1175.43 2117.08 1138.5 2117.08ZM1170.84 2089.58 1216.68 2112.5 1170.84 2135.42Z"/><path d="M1406.5 2107.92 1443.43 2107.92 1443.43 2117.08 1406.5 2117.08ZM1438.84 2089.58 1484.68 2112.5 1438.84 2135.42Z"/><path d="M1674.5 2107.92 1711.43 2107.92 1711.43 2117.08 1674.5 2117.08ZM1706.84 2089.58 1752.68 2112.5 1706.84 2135.42Z"/><rect x="2220" y="1724" width="1143" height="761" fill="#FEF8F6"/><rect x="2220" y="1547" width="1143" height="177" fill="#F8CCB9"/><text font-family="Microsoft YaHei,Microsoft YaHei_MSFontService,sans-serif" font-weight="400" font-size="92" transform="matrix(1 0 0 1 2461.97 1669)">叶子节点<tspan font-size="92" x="393.594" y="0">/ </tspan><tspan font-size="92" x="459.479" y="0">页</tspan><tspan font-size="92" x="551.146" y="0">16</tspan></text><rect x="2290" y="1823" width="189" height="578" fill="#F0835B"/><text fill="#FFFFFF" font-family="Microsoft YaHei,Microsoft YaHei_MSFontService,sans-serif" font-weight="400" font-size="92" transform="matrix(1 0 0 1 2338.66 1980)">最<tspan font-size="92" x="0" y="110">小</tspan><tspan font-size="92" x="0" y="220">记</tspan><tspan font-size="92" x="0" y="330">录</tspan></text><rect x="2558" y="1823" width="190" height="578" fill="#D74514"/><text fill="#FFFFFF" font-family="Microsoft YaHei,Microsoft YaHei_MSFontService,sans-serif" font-weight="400" font-size="92" transform="matrix(1 0 0 1 2606.79 2090)">数<tspan font-size="92" x="0" y="110">据</tspan></text><rect x="2826" y="1823" width="190" height="578" fill="#D74514"/><text fill="#FFFFFF" font-family="Microsoft YaHei,Microsoft YaHei_MSFontService,sans-serif" font-weight="400" font-size="92" transform="matrix(1 0 0 1 2874.91 2090)">数<tspan font-size="92" x="0" y="110">据</tspan></text><rect x="3094" y="1823" width="190" height="578" fill="#F0835B"/><text fill="#FFFFFF" font-family="Microsoft YaHei,Microsoft YaHei_MSFontService,sans-serif" font-weight="400" font-size="92" transform="matrix(1 0 0 1 3143.04 1980)">最<tspan font-size="92" x="0" y="110">大</tspan><tspan font-size="92" x="0" y="220">记</tspan><tspan font-size="92" x="0" y="330">录</tspan></text><path d="M2479.5 2107.92 2516.43 2107.92 2516.43 2117.08 2479.5 2117.08ZM2511.84 2089.58 2557.68 2112.5 2511.84 2135.42Z"/><path d="M2748.5 2107.92 2785.43 2107.92 2785.43 2117.08 2748.5 2117.08ZM2780.84 2089.58 2826.68 2112.5 2780.84 2135.42Z"/><path d="M3016.5 2107.92 3053.43 2107.92 3053.43 2117.08 3016.5 2117.08ZM3048.84 2089.58 3094.68 2112.5 3048.84 2135.42Z"/><rect x="3561" y="1724" width="1143" height="761" fill="#FEF8F6"/><rect x="3561" y="1547" width="1143" height="177" fill="#F8CCB9"/><text font-family="Microsoft YaHei,Microsoft YaHei_MSFontService,sans-serif" font-weight="400" font-size="92" transform="matrix(1 0 0 1 3830.26 1669)">叶子节点<tspan font-size="92" x="393.594" y="0">/ </tspan><tspan font-size="92" x="459.479" y="0">页</tspan><tspan font-size="92" x="551.146" y="0">8</tspan></text><rect x="3631" y="1823" width="190" height="578" fill="#F0835B"/><text fill="#FFFFFF" font-family="Microsoft YaHei,Microsoft YaHei_MSFontService,sans-serif" font-weight="400" font-size="92" transform="matrix(1 0 0 1 3680.02 1980)">最<tspan font-size="92" x="0" y="110">小</tspan><tspan font-size="92" x="0" y="220">记</tspan><tspan font-size="92" x="0" y="330">录</tspan></text><rect x="3899" y="1823" width="190" height="578" fill="#D74514"/><text fill="#FFFFFF" font-family="Microsoft YaHei,Microsoft YaHei_MSFontService,sans-serif" font-weight="400" font-size="92" transform="matrix(1 0 0 1 3948.15 2090)">数<tspan font-size="92" x="0" y="110">据</tspan></text><rect x="4167" y="1823" width="190" height="578" fill="#D74514"/><text fill="#FFFFFF" font-family="Microsoft YaHei,Microsoft YaHei_MSFontService,sans-serif" font-weight="400" font-size="92" transform="matrix(1 0 0 1 4216.27 2090)">数<tspan font-size="92" x="0" y="110">据</tspan></text><rect x="4435" y="1823" width="190" height="578" fill="#F0835B"/><text fill="#FFFFFF" font-family="Microsoft YaHei,Microsoft YaHei_MSFontService,sans-serif" font-weight="400" font-size="92" transform="matrix(1 0 0 1 4484.4 1980)">最<tspan font-size="92" x="0" y="110">大</tspan><tspan font-size="92" x="0" y="220">记</tspan><tspan font-size="92" x="0" y="330">录</tspan></text><path d="M3821.5 2107.92 3858.43 2107.92 3858.43 2117.08 3821.5 2117.08ZM3853.84 2089.58 3899.68 2112.5 3853.84 2135.42Z"/><path d="M4089.5 2107.92 4126.43 2107.92 4126.43 2117.08 4089.5 2117.08ZM4121.84 2089.58 4167.68 2112.5 4121.84 2135.42Z"/><path d="M4357.5 2107.92 4394.43 2107.92 4394.43 2117.08 4357.5 2117.08ZM4389.84 2089.58 4435.68 2112.5 4389.84 2135.42Z"/><path d="M721.75 1631.92 837.594 1631.92 837.594 1641.08 721.75 1641.08ZM726.333 1659.42 680.5 1636.5 726.333 1613.58ZM833.011 1613.58 878.844 1636.5 833.011 1659.42Z"/><path d="M2063.75 1631.92 2179.59 1631.92 2179.59 1641.08 2063.75 1641.08ZM2068.33 1659.42 2022.5 1636.5 2068.33 1613.58ZM2175.01 1613.58 2220.84 1636.5 2175.01 1659.42Z"/><path d="M3404.75 1631.92 3520.59 1631.92 3520.59 1641.08 3404.75 1641.08ZM3409.33 1659.42 3363.5 1636.5 3409.33 1613.58ZM3516.01 1613.58 3561.84 1636.5 3516.01 1659.42Z"/><rect x="2488" y="579" width="874" height="761" fill="#FEF8F6"/><rect x="2488" y="402" width="874" height="177" fill="#F8CCB9"/><text font-family="Microsoft YaHei,Microsoft YaHei_MSFontService,sans-serif" font-weight="400" font-size="92" transform="matrix(1 0 0 1 2549.61 523)">非叶子节点<tspan font-size="92" x="485.261" y="0">/ </tspan><tspan font-size="92" x="551.146" y="0">页</tspan><tspan font-size="92" x="642.813" y="0">36</tspan></text><rect x="2557" y="678" width="190" height="577" fill="#F0835B"/><text fill="#FFFFFF" font-family="Microsoft YaHei,Microsoft YaHei_MSFontService,sans-serif" font-weight="400" font-size="92" transform="matrix(1 0 0 1 2606.64 835)">最<tspan font-size="92" x="0" y="110">小</tspan><tspan font-size="92" x="0" y="220">记</tspan><tspan font-size="92" x="0" y="330">录</tspan></text><rect x="2838" y="678" width="190" height="577" fill="#D74514"/><text fill="#FFFFFF" font-family="Microsoft YaHei,Microsoft YaHei_MSFontService,sans-serif" font-weight="400" font-size="92" transform="matrix(1 0 0 1 2887.36 945)">页<tspan font-size="92" x="18.9063" y="110">8</tspan></text><rect x="3119" y="678" width="190" height="577" fill="#F0835B"/><text fill="#FFFFFF" font-family="Microsoft YaHei,Microsoft YaHei_MSFontService,sans-serif" font-weight="400" font-size="92" transform="matrix(1 0 0 1 3168.08 835)">最<tspan font-size="92" x="0" y="110">大</tspan><tspan font-size="92" x="0" y="220">记</tspan><tspan font-size="92" x="0" y="330">录</tspan></text><path d="M2747.5 962.917 2797.02 962.917 2797.02 972.084 2747.5 972.083ZM2792.44 944.584 2838.27 967.501 2792.44 990.417Z"/><path d="M3028.5 962.917 3078.02 962.917 3078.02 972.084 3028.5 972.083ZM3073.44 944.584 3119.27 967.501 3073.44 990.417Z"/><path d="M2331.75 485.917 2447.59 485.917 2447.59 495.084 2331.75 495.083ZM2336.33 513.417 2290.5 490.5 2336.33 467.583ZM2443.01 467.584 2488.84 490.5 2443.01 513.417Z"/><rect x="848" y="579" width="1442" height="761" fill="#FEF8F6"/><rect x="848" y="402" width="1442" height="177" fill="#F8CCB9"/><text font-family="Microsoft YaHei,Microsoft YaHei_MSFontService,sans-serif" font-weight="400" font-size="92" transform="matrix(1 0 0 1 1193.59 523)">非叶子节点<tspan font-size="92" x="485.26" y="0">/ </tspan><tspan font-size="92" x="551.146" y="0">页</tspan><tspan font-size="92" x="642.813" y="0">30</tspan></text><rect x="948" y="678" width="190" height="577" fill="#F0835B"/><text fill="#FFFFFF" font-family="Microsoft YaHei,Microsoft YaHei_MSFontService,sans-serif" font-weight="400" font-size="92" transform="matrix(1 0 0 1 997.3 835)">最<tspan font-size="92" x="0" y="110">小</tspan><tspan font-size="92" x="0" y="220">记</tspan><tspan font-size="92" x="0" y="330">录</tspan></text><rect x="1484" y="678" width="190" height="577" fill="#D74514"/><text fill="#FFFFFF" font-family="Microsoft YaHei,Microsoft YaHei_MSFontService,sans-serif" font-weight="400" font-size="92" transform="matrix(1 0 0 1 1533.4 945)">页<tspan font-size="92" x="-8.02087" y="110">22</tspan></text><rect x="1752" y="678" width="190" height="577" fill="#D74514"/><text fill="#FFFFFF" font-family="Microsoft YaHei,Microsoft YaHei_MSFontService,sans-serif" font-weight="400" font-size="92" transform="matrix(1 0 0 1 1801.53 945)">页<tspan font-size="92" x="-8.02087" y="110">16</tspan></text><rect x="2021" y="678" width="189" height="577" fill="#F0835B"/><text fill="#FFFFFF" font-family="Microsoft YaHei,Microsoft YaHei_MSFontService,sans-serif" font-weight="400" font-size="92" transform="matrix(1 0 0 1 2069.65 835)">最<tspan font-size="92" x="0" y="110">大</tspan><tspan font-size="92" x="0" y="220">记</tspan><tspan font-size="92" x="0" y="330">录</tspan></text><path d="M1138.5 962.917 1173.5 962.917 1173.5 972.084 1138.5 972.083ZM1168.92 944.584 1214.75 967.501 1168.92 990.417Z"/><path d="M1674.5 962.917 1711.43 962.917 1711.43 972.084 1674.5 972.083ZM1706.84 944.584 1752.68 967.501 1706.84 990.417Z"/><path d="M1942.5 962.917 1979.43 962.917 1979.43 972.084 1942.5 972.083ZM1974.84 944.584 2020.68 967.501 1974.84 990.417Z"/><rect x="1214" y="678" width="190" height="577" fill="#D74514"/><text fill="#FFFFFF" font-family="Microsoft YaHei,Microsoft YaHei_MSFontService,sans-serif" font-weight="400" font-size="92" transform="matrix(1 0 0 1 1263.5 945)">页<tspan font-size="92" x="-8.02087" y="110">10</tspan></text><path d="M1404.5 962.917 1443.21 962.917 1443.21 972.084 1404.5 972.083ZM1438.62 944.584 1484.46 967.501 1438.62 990.417Z"/><path d="M104.917 1505.64 104.917 1396.61 1310.16 1396.61 1305.58 1401.2 1305.58 1255.5 1314.74 1255.5 1314.74 1405.78 109.5 1405.78 114.083 1401.2 114.083 1505.64ZM132.417 1501.06 109.5 1546.89 86.5833 1501.06Z"/><path d="M1445.92 1505.64 1445.92 1396.61 1579.7 1396.61 1575.12 1401.2 1575.12 1255.5 1584.28 1255.5 1584.28 1405.78 1450.5 1405.78 1455.08 1401.2 1455.08 1505.64ZM1473.42 1501.06 1450.5 1546.89 1427.58 1501.06Z"/><path d="M41.25-4.58333 150.28-4.58333 150.28 944.037 145.696 939.453 291.393 939.453 291.393 948.62 141.113 948.62 141.113 0 145.696 4.58333 41.25 4.58333ZM45.8333 22.9167 0 0 45.8333-22.9167Z" transform="matrix(-1.83697e-16 -1 -1 1.83697e-16 2791.54 1546.89)"/><path d="M41.25-4.58333 150.28-4.58333 150.28 1199.57 145.697 1194.98 291.393 1194.98 291.393 1204.15 141.114 1204.15 141.114 0 145.697 4.58333 41.25 4.58333ZM45.8333 22.9167 0 0 45.8333-22.9167Z" transform="matrix(-1.83697e-16 -1 -1 1.83697e-16 4133.06 1546.89)"/><rect x="1579" y="-567" width="1143" height="762" fill="#FEF8F6"/><rect x="1579" y="-744" width="1143" height="177" fill="#F8CCB9"/><text font-family="Microsoft YaHei,Microsoft YaHei_MSFontService,sans-serif" font-weight="400" font-size="92" transform="matrix(1 0 0 1 1775.48 -622)">非叶子节点<tspan font-size="92" x="485.261" y="0">/ </tspan><tspan font-size="92" x="551.146" y="0">页</tspan><tspan font-size="92" x="642.813" y="0">3</tspan><tspan font-size="92" x="696.667" y="0">8</tspan></text><rect x="1649" y="-468" width="190" height="578" fill="#F0835B"/><text fill="#FFFFFF" font-family="Microsoft YaHei,Microsoft YaHei_MSFontService,sans-serif" font-weight="400" font-size="92" transform="matrix(1 0 0 1 1698.01 -311)">最<tspan font-size="92" x="0" y="110">小</tspan><tspan font-size="92" x="0" y="220">记</tspan><tspan font-size="92" x="0" y="330">录</tspan></text><rect x="1917" y="-468" width="190" height="578" fill="#D74514"/><text fill="#FFFFFF" font-family="Microsoft YaHei,Microsoft YaHei_MSFontService,sans-serif" font-weight="400" font-size="92" transform="matrix(1 0 0 1 1966.13 -201)">页<tspan font-size="92" x="-8.02087" y="110">3</tspan><tspan font-size="92" x="45.8334" y="110">0</tspan></text><rect x="2185" y="-468" width="190" height="578" fill="#D74514"/><text fill="#FFFFFF" font-family="Microsoft YaHei,Microsoft YaHei_MSFontService,sans-serif" font-weight="400" font-size="92" transform="matrix(1 0 0 1 2234.26 -201)">页<tspan font-size="92" x="-8.02075" y="110">36</tspan></text><rect x="2453" y="-468" width="190" height="578" fill="#F0835B"/><text fill="#FFFFFF" font-family="Microsoft YaHei,Microsoft YaHei_MSFontService,sans-serif" font-weight="400" font-size="92" transform="matrix(1 0 0 1 2502.38 -311)">最<tspan font-size="92" x="0" y="110">大</tspan><tspan font-size="92" x="0" y="220">记</tspan><tspan font-size="92" x="0" y="330">录</tspan></text><path d="M1839.5-183.083 1876.43-183.083 1876.43-173.916 1839.5-173.917ZM1871.84-201.416 1917.68-178.5 1871.84-155.583Z"/><path d="M2107.5-183.083 2144.43-183.083 2144.43-173.916 2107.5-173.917ZM2139.84-201.416 2185.68-178.5 2139.84-155.583Z"/><path d="M2375.5-183.083 2412.43-183.083 2412.43-173.916 2375.5-173.917ZM2407.84-201.416 2453.68-178.5 2407.84-155.583Z"/><path d="M1564.92 361.094 1564.92 251.838 2012.62 251.838 2008.03 256.422 2008.03 110.5 2017.2 110.5 2017.2 261.005 1569.5 261.005 1574.08 256.422 1574.08 361.094ZM1592.42 356.51 1569.5 402.344 1546.58 356.51Z"/><path d="M41.25-4.58333 150.505-4.58333 150.505 644.777 145.922 640.193 291.844 640.193 291.844 649.36 141.339 649.36 141.339 0 145.922 4.58333 41.25 4.58333ZM45.8333 22.9167 0 0 45.8333-22.9167Z" transform="matrix(-1.83697e-16 -1 -1 1.83697e-16 2925.28 402.344)"/></g></svg>