<svg xmlns="http://www.w3.org/2000/svg" width="6928" height="2193" overflow="hidden"><defs><clipPath id="a"><path d="M-516 210h6928v2193H-516z"/></clipPath></defs><g clip-path="url(#a)" transform="translate(516 -210)"><path fill="#fef8f6" d="M728 210h1341v1681H728z"/><path fill="#feefe8" d="M1029 452h195v203h-195z"/><path fill="#f8ccb9" d="M1419 452h569v203h-569z"/><text font-family="Microsoft YaHei,Microsoft YaHei_MSFontService,sans-serif" font-size="92" font-weight="400" transform="translate(1565.74 587)">行记录</text><path fill="#f0835b" d="M835 452h194v203H835z"/><text fill="#fff" font-family="Microsoft YaHei,Microsoft YaHei_MSFontService,sans-serif" font-size="92" font-weight="400" transform="translate(905.121 587)">0</text><path fill="#d74514" d="M1224 452h195v203h-195z"/><text fill="#fff" font-family="Microsoft YaHei,Microsoft YaHei_MSFontService,sans-serif" font-size="92" font-weight="400" transform="translate(1294.32 587)">1</text><path fill="#feefe8" d="M1029 831h195v203h-195z"/><path fill="#f8ccb9" d="M1419 831h569v203h-569z"/><text font-family="Microsoft YaHei,Microsoft YaHei_MSFontService,sans-serif" font-size="92" font-weight="400" transform="translate(1565.74 966)">行记录</text><path fill="#f0835b" d="M835 831h194v203H835z"/><text fill="#fff" font-family="Microsoft YaHei,Microsoft YaHei_MSFontService,sans-serif" font-size="92" font-weight="400" transform="translate(905.121 966)">0</text><path fill="#d74514" d="M1224 831h195v203h-195z"/><text fill="#fff" font-family="Microsoft YaHei,Microsoft YaHei_MSFontService,sans-serif" font-size="92" font-weight="400" transform="translate(1294.32 966)">2</text><path fill="#feefe8" d="M1029 1210h195v203h-195z"/><path fill="#f8ccb9" d="M1419 1210h569v203h-569z"/><text font-family="Microsoft YaHei,Microsoft YaHei_MSFontService,sans-serif" font-size="92" font-weight="400" transform="translate(1565.74 1345)">行记录</text><path fill="#f0835b" d="M835 1210h194v203H835z"/><text fill="#fff" font-family="Microsoft YaHei,Microsoft YaHei_MSFontService,sans-serif" font-size="92" font-weight="400" transform="translate(905.121 1345)">0</text><path fill="#d74514" d="M1224 1210h195v203h-195z"/><text fill="#fff" font-family="Microsoft YaHei,Microsoft YaHei_MSFontService,sans-serif" font-size="92" font-weight="400" transform="translate(1294.32 1345)">3</text><path fill="#feefe8" d="M1029 1589h195v203h-195z"/><path fill="#f8ccb9" d="M1419 1589h569v203h-569z"/><text font-family="Microsoft YaHei,Microsoft YaHei_MSFontService,sans-serif" font-size="92" font-weight="400" transform="translate(1565.74 1723)">行记录</text><path fill="#f0835b" d="M835 1589h194v203H835z"/><text fill="#fff" font-family="Microsoft YaHei,Microsoft YaHei_MSFontService,sans-serif" font-size="92" font-weight="400" transform="translate(905.121 1723)">4</text><path fill="#d74514" d="M1224 1589h195v203h-195z"/><text fill="#fff" font-family="Microsoft YaHei,Microsoft YaHei_MSFontService,sans-serif" font-size="92" font-weight="400" transform="translate(1294.32 1723)">4</text><path d="M1122.917 655.5v92.9h581.172l-4.583-4.584v47.065h9.166v-51.648H1127.5l4.583 4.583V655.5Zm558.255 130.798 22.917 45.833 22.917-45.833ZM1122.917 1413.5v92.9h581.172l-4.583-4.584v47.065h9.166v-51.648H1127.5l4.583 4.583V1413.5Zm558.255 130.798 22.917 45.833 22.917-45.833ZM1122.917 1034.5v92.9h581.172l-4.583-4.584v47.065h9.166v-51.648H1127.5l4.583 4.583V1034.5Zm558.255 130.798 22.917 45.833 22.917-45.833Z"/><text font-family="Microsoft YaHei,Microsoft YaHei_MSFontService,sans-serif" font-size="92" font-weight="400" transform="translate(1279.28 356)">分组<tspan x="210.26" y="0">2</tspan></text><path fill="#fef8f6" d="M2176 210h1341v1681H2176z"/><path fill="#feefe8" d="M2477 452h195v203h-195z"/><path fill="#f8ccb9" d="M2866 452h570v203h-570z"/><text font-family="Microsoft YaHei,Microsoft YaHei_MSFontService,sans-serif" font-size="92" font-weight="400" transform="translate(3013.34 587)">行记录</text><path fill="#f0835b" d="M2282 452h195v203h-195z"/><text fill="#fff" font-family="Microsoft YaHei,Microsoft YaHei_MSFontService,sans-serif" font-size="92" font-weight="400" transform="translate(2352.73 587)">0</text><path fill="#d74514" d="M2672 452h194v203h-194z"/><text fill="#fff" font-family="Microsoft YaHei,Microsoft YaHei_MSFontService,sans-serif" font-size="92" font-weight="400" transform="translate(2741.93 587)">5</text><path fill="#feefe8" d="M2477 831h195v203h-195z"/><path fill="#f8ccb9" d="M2866 831h570v203h-570z"/><text font-family="Microsoft YaHei,Microsoft YaHei_MSFontService,sans-serif" font-size="92" font-weight="400" transform="translate(3013.34 966)">行记录</text><path fill="#f0835b" d="M2282 831h195v203h-195z"/><text fill="#fff" font-family="Microsoft YaHei,Microsoft YaHei_MSFontService,sans-serif" font-size="92" font-weight="400" transform="translate(2352.73 966)">0</text><path fill="#d74514" d="M2672 831h194v203h-194z"/><text fill="#fff" font-family="Microsoft YaHei,Microsoft YaHei_MSFontService,sans-serif" font-size="92" font-weight="400" transform="translate(2741.93 966)">6</text><path fill="#feefe8" d="M2477 1210h195v203h-195z"/><path fill="#f8ccb9" d="M2866 1210h570v203h-570z"/><text font-family="Microsoft YaHei,Microsoft YaHei_MSFontService,sans-serif" font-size="92" font-weight="400" transform="translate(3013.34 1345)">行记录</text><path fill="#f0835b" d="M2282 1210h195v203h-195z"/><text fill="#fff" font-family="Microsoft YaHei,Microsoft YaHei_MSFontService,sans-serif" font-size="92" font-weight="400" transform="translate(2352.73 1345)">0</text><path fill="#d74514" d="M2672 1210h194v203h-194z"/><text fill="#fff" font-family="Microsoft YaHei,Microsoft YaHei_MSFontService,sans-serif" font-size="92" font-weight="400" transform="translate(2741.93 1345)">7</text><path fill="#feefe8" d="M2477 1589h195v203h-195z"/><path fill="#f8ccb9" d="M2866 1589h570v203h-570z"/><text font-family="Microsoft YaHei,Microsoft YaHei_MSFontService,sans-serif" font-size="92" font-weight="400" transform="translate(3013.34 1723)">行记录</text><path fill="#f0835b" d="M2282 1589h195v203h-195z"/><text fill="#fff" font-family="Microsoft YaHei,Microsoft YaHei_MSFontService,sans-serif" font-size="92" font-weight="400" transform="translate(2352.73 1723)">4</text><path fill="#d74514" d="M2672 1589h194v203h-194z"/><text fill="#fff" font-family="Microsoft YaHei,Microsoft YaHei_MSFontService,sans-serif" font-size="92" font-weight="400" transform="translate(2741.93 1723)">8</text><path d="M2569.917 655.5v92.9h581.172l-4.583-4.584v47.065h9.166v-51.648H2574.5l4.583 4.583V655.5Zm558.255 130.798 22.917 45.833 22.917-45.833ZM2569.917 1413.5v92.9h581.172l-4.583-4.584v47.065h9.166v-51.648H2574.5l4.583 4.583V1413.5Zm558.255 130.798 22.917 45.833 22.917-45.833ZM2569.917 1034.5v92.9h581.172l-4.583-4.584v47.065h9.166v-51.648H2574.5l4.583 4.583V1034.5Zm558.255 130.798 22.917 45.833 22.917-45.833Z"/><text font-family="Microsoft YaHei,Microsoft YaHei_MSFontService,sans-serif" font-size="92" font-weight="400" transform="translate(2726.88 356)">分组<tspan x="210.261" y="0">3</tspan></text><path fill="#fef8f6" d="M3623 210h1341v1681H3623z"/><path fill="#feefe8" d="M3925 452h194v203h-194z"/><path fill="#f8ccb9" d="M4314 452h569v203h-569z"/><text font-family="Microsoft YaHei,Microsoft YaHei_MSFontService,sans-serif" font-size="92" font-weight="400" transform="translate(4460.95 587)">行记录</text><path fill="#f0835b" d="M3730 452h195v203h-195z"/><text fill="#fff" font-family="Microsoft YaHei,Microsoft YaHei_MSFontService,sans-serif" font-size="92" font-weight="400" transform="translate(3800.33 587)">0</text><path fill="#d74514" d="M4119 452h195v203h-195z"/><text fill="#fff" font-family="Microsoft YaHei,Microsoft YaHei_MSFontService,sans-serif" font-size="92" font-weight="400" transform="translate(4189.53 587)">9</text><path fill="#feefe8" d="M3925 831h194v203h-194z"/><path fill="#f8ccb9" d="M4314 831h569v203h-569z"/><text font-family="Microsoft YaHei,Microsoft YaHei_MSFontService,sans-serif" font-size="92" font-weight="400" transform="translate(4460.95 966)">行记录</text><path fill="#f0835b" d="M3730 831h195v203h-195z"/><text fill="#fff" font-family="Microsoft YaHei,Microsoft YaHei_MSFontService,sans-serif" font-size="92" font-weight="400" transform="translate(3800.33 966)">0</text><path fill="#d74514" d="M4119 831h195v203h-195z"/><text fill="#fff" font-family="Microsoft YaHei,Microsoft YaHei_MSFontService,sans-serif" font-size="92" font-weight="400" transform="translate(4162.61 966)">10</text><path fill="#feefe8" d="M3925 1210h194v203h-194z"/><path fill="#f8ccb9" d="M4314 1210h569v203h-569z"/><text font-family="Microsoft YaHei,Microsoft YaHei_MSFontService,sans-serif" font-size="92" font-weight="400" transform="translate(4460.95 1345)">行记录</text><path fill="#f0835b" d="M3730 1210h195v203h-195z"/><text fill="#fff" font-family="Microsoft YaHei,Microsoft YaHei_MSFontService,sans-serif" font-size="92" font-weight="400" transform="translate(3800.33 1345)">0</text><path fill="#d74514" d="M4119 1210h195v203h-195z"/><text fill="#fff" font-family="Microsoft YaHei,Microsoft YaHei_MSFontService,sans-serif" font-size="92" font-weight="400" transform="translate(4162.61 1345)">11</text><path fill="#feefe8" d="M3925 1589h194v203h-194z"/><path fill="#f8ccb9" d="M4314 1589h569v203h-569z"/><text font-family="Microsoft YaHei,Microsoft YaHei_MSFontService,sans-serif" font-size="92" font-weight="400" transform="translate(4460.95 1723)">行记录</text><path fill="#f0835b" d="M3730 1589h195v203h-195z"/><text fill="#fff" font-family="Microsoft YaHei,Microsoft YaHei_MSFontService,sans-serif" font-size="92" font-weight="400" transform="translate(3800.33 1723)">4</text><path fill="#d74514" d="M4119 1589h195v203h-195z"/><text fill="#fff" font-family="Microsoft YaHei,Microsoft YaHei_MSFontService,sans-serif" font-size="92" font-weight="400" transform="translate(4162.61 1723)">12</text><path d="M4017.917 655.5v92.9h581.172l-4.583-4.584v47.065h9.166v-51.648H4022.5l4.583 4.583V655.5Zm558.255 130.798 22.917 45.833 22.917-45.833ZM4017.917 1413.5v92.9h581.172l-4.583-4.584v47.065h9.166v-51.648H4022.5l4.583 4.583V1413.5Zm558.255 130.798 22.917 45.833 22.917-45.833ZM4017.917 1034.5v92.9h581.172l-4.583-4.584v47.065h9.166v-51.648H4022.5l4.583 4.583V1034.5Zm558.255 130.798 22.917 45.833 22.917-45.833Z"/><text font-family="Microsoft YaHei,Microsoft YaHei_MSFontService,sans-serif" font-size="92" font-weight="400" transform="translate(4174.49 356)">分组<tspan x="210.261" y="0">4</tspan></text><path d="M3147.11 411.25v-32.085l4.58 4.583H2114.64l4.58-4.583V1961.28h-996.3V1791.7h9.16v165l-4.58-4.59h987.14l-4.59 4.59V374.582h1046.23v36.668Zm27.5-4.583-22.92 45.833-22.91-45.833Zm1419.5 4.583v-20.286l4.58 4.583H3571.48l4.58-4.583V1957.35H2569.92V1791.7h9.16v161.07l-4.58-4.58h996.98l-4.59 4.58V386.38h1036.39v24.87Zm27.5-4.583-22.92 45.833-22.91-45.833Z"/><path fill="#fef8f6" d="M-516 225H621v1682H-516z"/><path fill="#feefe8" d="M-224 1605h195v202h-195z"/><path fill="#f8ccb9" d="M-29 1605h569v202H-29z"/><text font-family="Microsoft YaHei,Microsoft YaHei_MSFontService,sans-serif" font-size="92" font-weight="400" transform="translate(72.094 1739)">最小记录</text><path fill="#f0835b" d="M-418 1605h194v202h-194z"/><text fill="#fff" font-family="Microsoft YaHei,Microsoft YaHei_MSFontService,sans-serif" font-size="92" font-weight="400" transform="translate(-348.09 1739)">1<tspan x="268.768" y="-1367" fill="#000">分组</tspan><tspan x="479.028" y="-1367" fill="#000">1</tspan></text><path d="M793.558 549.917H678.222V1970.73l4.584-4.59H-126.5l4.583 4.59v-162.5h-9.166v167.08h818.472V554.5l-4.583 4.583h110.752Zm-4.583 27.5 45.833-22.917-45.833-22.917Z"/><path fill="#fef8f6" d="M5071 210h1341v2063H5071z"/><path fill="#feefe8" d="M5372 452h195v203h-195z"/><path fill="#f8ccb9" d="M5761 452h570v203h-570z"/><text font-family="Microsoft YaHei,Microsoft YaHei_MSFontService,sans-serif" font-size="92" font-weight="400" transform="translate(5908.55 587)">行记录</text><path fill="#f0835b" d="M5178 452h194v203h-194z"/><text fill="#fff" font-family="Microsoft YaHei,Microsoft YaHei_MSFontService,sans-serif" font-size="92" font-weight="400" transform="translate(5247.94 587)">0</text><path fill="#d74514" d="M5567 452h194v203h-194z"/><text fill="#fff" font-family="Microsoft YaHei,Microsoft YaHei_MSFontService,sans-serif" font-size="92" font-weight="400" transform="translate(5610.21 587)">13</text><path fill="#feefe8" d="M5372 831h195v203h-195z"/><path fill="#f8ccb9" d="M5761 831h570v203h-570z"/><text font-family="Microsoft YaHei,Microsoft YaHei_MSFontService,sans-serif" font-size="92" font-weight="400" transform="translate(5908.55 966)">行记录</text><path fill="#f0835b" d="M5178 831h194v203h-194z"/><text fill="#fff" font-family="Microsoft YaHei,Microsoft YaHei_MSFontService,sans-serif" font-size="92" font-weight="400" transform="translate(5247.94 966)">0</text><path fill="#d74514" d="M5567 831h194v203h-194z"/><text fill="#fff" font-family="Microsoft YaHei,Microsoft YaHei_MSFontService,sans-serif" font-size="92" font-weight="400" transform="translate(5610.21 966)">14</text><path fill="#feefe8" d="M5372 1210h195v203h-195z"/><path fill="#f8ccb9" d="M5761 1210h570v203h-570z"/><text font-family="Microsoft YaHei,Microsoft YaHei_MSFontService,sans-serif" font-size="92" font-weight="400" transform="translate(5908.55 1345)">行记录</text><path fill="#f0835b" d="M5178 1210h194v203h-194z"/><text fill="#fff" font-family="Microsoft YaHei,Microsoft YaHei_MSFontService,sans-serif" font-size="92" font-weight="400" transform="translate(5247.94 1345)">0</text><path fill="#d74514" d="M5567 1210h194v203h-194z"/><text fill="#fff" font-family="Microsoft YaHei,Microsoft YaHei_MSFontService,sans-serif" font-size="92" font-weight="400" transform="translate(5610.21 1345)">15</text><path fill="#feefe8" d="M5372 1589h195v203h-195z"/><path fill="#f8ccb9" d="M5761 1589h570v203h-570z"/><text font-family="Microsoft YaHei,Microsoft YaHei_MSFontService,sans-serif" font-size="92" font-weight="400" transform="translate(5908.55 1723)">行记录</text><path fill="#f0835b" d="M5178 1589h194v203h-194z"/><text fill="#fff" font-family="Microsoft YaHei,Microsoft YaHei_MSFontService,sans-serif" font-size="92" font-weight="400" transform="translate(5247.94 1723)">0</text><path fill="#d74514" d="M5567 1589h194v203h-194z"/><text fill="#fff" font-family="Microsoft YaHei,Microsoft YaHei_MSFontService,sans-serif" font-size="92" font-weight="400" transform="translate(5610.21 1723)">16</text><path d="M5464.917 655.5v92.9h581.172l-4.583-4.584v47.065h9.166v-51.648H5469.5l4.583 4.583V655.5Zm558.255 130.798 22.917 45.833 22.917-45.833ZM5464.917 1413.5v92.9h581.172l-4.583-4.584v47.065h9.166v-51.648H5469.5l4.583 4.583V1413.5Zm558.255 130.798 22.917 45.833 22.917-45.833ZM5464.917 1034.5v92.9h581.172l-4.583-4.584v47.065h9.166v-51.648H5469.5l4.583 4.583V1034.5Zm558.255 130.798 22.917 45.833 22.917-45.833Z"/><text font-family="Microsoft YaHei,Microsoft YaHei_MSFontService,sans-serif" font-size="92" font-weight="400" transform="translate(5622.09 356)">分组<tspan x="210.261" y="0">5</tspan></text><path fill="#feefe8" d="M5379 1970h195v202h-195z"/><path fill="#f8ccb9" d="M5574 1970h569v202h-569z"/><text font-family="Microsoft YaHei,Microsoft YaHei_MSFontService,sans-serif" font-size="92" font-weight="400" transform="translate(5675.33 2104)">最大记录</text><path fill="#f0835b" d="M5185 1970h194v202h-194z"/><text fill="#fff" font-family="Microsoft YaHei,Microsoft YaHei_MSFontService,sans-serif" font-size="92" font-weight="400" transform="translate(5255.15 2104)">5</text><path d="M5464.917 1792.5v93.685h393.787l-4.583-4.583v47.851h9.166v-52.435H5469.5l4.583 4.584V1792.5Zm370.87 132.37 22.917 45.833 22.917-45.833Z"/><path fill="#fef8f6" d="M-516 2048h5526v355H-516z"/><path fill="#d74514" d="M158 2124h195v203H158z"/><text fill="#fff" font-family="Microsoft YaHei,Microsoft YaHei_MSFontService,sans-serif" font-size="92" font-weight="400" transform="translate(228.5 2259)">0</text><path d="M6042.11 411.25v-18.331l4.58 4.583H5018.81l4.58-4.583V1956.7H4017.92v-165h9.16v160.42l-4.58-4.59h996.31l-4.58 4.59V388.335h1037.05v22.915Zm27.5-4.583-22.92 45.833-22.91-45.833Z"/><path fill="#d74514" d="M260.083 2124.52v-27.5h-9.166v27.5Zm0-36.667v-27.5h-9.166v27.5Zm0-36.666v-27.5h-9.166v27.5Zm0-36.667v-27.5h-9.166v27.5Zm0-36.667v-27.5h-9.166v27.5Zm0-36.666v-27.5h-9.166v27.5Zm0-36.667v-27.5h-9.166v27.5Zm0-36.667v-19.101h-9.166v19.101Zm18.334-14.518-22.917-45.833-22.916 45.833ZM1606 2124h195v202h-195z"/><text fill="#fff" font-family="Microsoft YaHei,Microsoft YaHei_MSFontService,sans-serif" font-size="92" font-weight="400" transform="translate(1676.31 2258)">1</text><path fill="#d74514" d="M3054 2124h194v202h-194z"/><text fill="#fff" font-family="Microsoft YaHei,Microsoft YaHei_MSFontService,sans-serif" font-size="92" font-weight="400" transform="translate(3123.92 2258)">2</text><path fill="#d74514" d="M4501 2122h195v202h-195z"/><text fill="#fff" font-family="Microsoft YaHei,Microsoft YaHei_MSFontService,sans-serif" font-size="92" font-weight="400" transform="translate(4571.52 2256)">3</text><path fill="#d74514" d="M4755 2120h195v202h-195z"/><text fill="#fff" font-family="Microsoft YaHei,Microsoft YaHei_MSFontService,sans-serif" font-size="92" font-weight="400" transform="translate(4825.74 2254)">4</text><path fill="#d74514" d="M1708.083 2124.59v-27.5h-9.166v27.5Zm0-36.667v-27.5h-9.166v27.5Zm0-36.666v-27.5h-9.166v27.5Zm0-36.667v-27.5h-9.166v27.5Zm0-36.667v-27.5h-9.166v27.5Zm0-36.666v-27.5h-9.166v27.5Zm0-36.667v-27.5h-9.166v27.5Zm0-36.667v-27.5h-9.166v27.5Zm18.334-29.59-22.917-45.834-22.916 45.834Zm1429.666 286.257v-27.5h-9.166v27.5Zm0-36.667v-27.5h-9.166v27.5Zm0-36.666v-27.5h-9.166v27.5Zm0-36.667v-27.5h-9.166v27.5Zm0-36.667v-27.5h-9.166v27.5Zm0-36.666v-27.5h-9.166v27.5Zm0-36.667v-27.5h-9.166v27.5Zm0-36.667v-27.5h-9.166v27.5Zm18.334-29.59-22.917-45.834-22.916 45.834Zm1428.666 284.607v-27.5h-9.166v27.5Zm0-36.667v-27.5h-9.166v27.5Zm0-36.666v-27.5h-9.166v27.5Zm0-36.667v-27.5h-9.166v27.5Zm0-36.667v-27.5h-9.166v27.5Zm0-36.666v-27.5h-9.166v27.5Zm0-36.667v-27.5h-9.166v27.5Zm0-36.667v-27.5h-9.166v27.5Zm18.334-27.941-22.917-45.833-22.916 45.833Zm329.083 387.551h27.5v-9.166h-27.5Zm36.667 0h27.5v-9.166h-27.5Zm36.666 0h27.5v-9.166h-27.5Zm36.667 0h27.5v-9.166h-27.5Zm36.667 0h27.5v-9.166h-27.5Zm36.666 0h27.5v-9.166h-27.5Zm36.667 0h27.5v-9.166h-27.5Zm36.667 0h27.5v-9.166h-27.5Zm36.666 0h27.5v-9.166h-27.5Zm36.667 0h27.5v-9.166h-27.5Zm36.667 0h27.5v-9.166h-27.5Zm36.666 0h27.5v-9.166h-27.5Zm36.667 0h27.5v-9.166h-27.5Zm36.667 0h27.5v-9.166h-27.5Zm36.666 0h27.5v-9.166h-27.5Zm36.667 0h27.5v-9.166h-27.5Zm36.667 0h27.5v-9.166h-27.5Zm36.666 0h27.5v-9.166h-27.5Zm36.667 0h27.5v-9.166h-27.5Zm36.667 0h27.5v-9.166h-27.5Zm36.666 0h27.5v-9.166h-27.5Zm36.667 0h27.5v-9.166h-27.5Zm36.667 0h27.5v-9.166h-27.5Zm36.666 0h27.5v-9.166h-27.5Zm36.667 0h27.5v-9.166h-27.5Zm51.618-7.548-22.917-45.833-22.916 45.833Z"/><text font-family="Microsoft YaHei,Microsoft YaHei_MSFontService,sans-serif" font-size="92" font-weight="400" transform="translate(-419.639 2255)">页目录</text></g></svg>