<svg width="6928" height="2193" xmlns="http://www.w3.org/2000/svg" xmlns:xlink="http://www.w3.org/1999/xlink" overflow="hidden"><defs><clipPath id="clip0"><rect x="-516" y="210" width="6928" height="2193"/></clipPath></defs><g clip-path="url(#clip0)" transform="translate(516 -210)"><rect x="728" y="210" width="1341" height="1681" fill="#FEF8F6"/><rect x="1029" y="452" width="195" height="203" fill="#FEEFE8"/><rect x="1419" y="452" width="569" height="203" fill="#F8CCB9"/><text font-family="Microsoft YaHei,Microsoft YaHei_MSFontService,sans-serif" font-weight="400" font-size="92" transform="matrix(1 0 0 1 1565.74 587)">行记录</text><rect x="835" y="452" width="194" height="203" fill="#F0835B"/><text fill="#FFFFFF" font-family="Microsoft YaHei,Microsoft YaHei_MSFontService,sans-serif" font-weight="400" font-size="92" transform="matrix(1 0 0 1 905.121 587)">0</text><rect x="1224" y="452" width="195" height="203" fill="#D74514"/><text fill="#FFFFFF" font-family="Microsoft YaHei,Microsoft YaHei_MSFontService,sans-serif" font-weight="400" font-size="92" transform="matrix(1 0 0 1 1294.32 587)">1</text><rect x="1029" y="831" width="195" height="203" fill="#FEEFE8"/><rect x="1419" y="831" width="569" height="203" fill="#F8CCB9"/><text font-family="Microsoft YaHei,Microsoft YaHei_MSFontService,sans-serif" font-weight="400" font-size="92" transform="matrix(1 0 0 1 1565.74 966)">行记录</text><rect x="835" y="831" width="194" height="203" fill="#F0835B"/><text fill="#FFFFFF" font-family="Microsoft YaHei,Microsoft YaHei_MSFontService,sans-serif" font-weight="400" font-size="92" transform="matrix(1 0 0 1 905.121 966)">0</text><rect x="1224" y="831" width="195" height="203" fill="#D74514"/><text fill="#FFFFFF" font-family="Microsoft YaHei,Microsoft YaHei_MSFontService,sans-serif" font-weight="400" font-size="92" transform="matrix(1 0 0 1 1294.32 966)">2</text><rect x="1029" y="1210" width="195" height="203" fill="#FEEFE8"/><rect x="1419" y="1210" width="569" height="203" fill="#F8CCB9"/><text font-family="Microsoft YaHei,Microsoft YaHei_MSFontService,sans-serif" font-weight="400" font-size="92" transform="matrix(1 0 0 1 1565.74 1345)">行记录</text><rect x="835" y="1210" width="194" height="203" fill="#F0835B"/><text fill="#FFFFFF" font-family="Microsoft YaHei,Microsoft YaHei_MSFontService,sans-serif" font-weight="400" font-size="92" transform="matrix(1 0 0 1 905.121 1345)">0</text><rect x="1224" y="1210" width="195" height="203" fill="#D74514"/><text fill="#FFFFFF" font-family="Microsoft YaHei,Microsoft YaHei_MSFontService,sans-serif" font-weight="400" font-size="92" transform="matrix(1 0 0 1 1294.32 1345)">3</text><rect x="1029" y="1589" width="195" height="203" fill="#FEEFE8"/><rect x="1419" y="1589" width="569" height="203" fill="#F8CCB9"/><text font-family="Microsoft YaHei,Microsoft YaHei_MSFontService,sans-serif" font-weight="400" font-size="92" transform="matrix(1 0 0 1 1565.74 1723)">行记录</text><rect x="835" y="1589" width="194" height="203" fill="#F0835B"/><text fill="#FFFFFF" font-family="Microsoft YaHei,Microsoft YaHei_MSFontService,sans-serif" font-weight="400" font-size="92" transform="matrix(1 0 0 1 905.121 1723)">4</text><rect x="1224" y="1589" width="195" height="203" fill="#D74514"/><text fill="#FFFFFF" font-family="Microsoft YaHei,Microsoft YaHei_MSFontService,sans-serif" font-weight="400" font-size="92" transform="matrix(1 0 0 1 1294.32 1723)">4</text><path d="M0-4.58333 92.8992-4.58333 92.8992 576.589 88.3159 572.006 135.381 572.006 135.381 581.172 83.7326 581.172 83.7326 0 88.3159 4.58333 0 4.58333ZM130.798 553.672 176.631 576.589 130.798 599.506Z" transform="matrix(1.83697e-16 1 1 -1.83697e-16 1127.5 655.5)"/><path d="M0-4.58333 92.8992-4.58333 92.8992 576.589 88.3159 572.006 135.381 572.006 135.381 581.172 83.7326 581.172 83.7326 0 88.3159 4.58333 0 4.58333ZM130.798 553.672 176.631 576.589 130.798 599.506Z" transform="matrix(1.83697e-16 1 1 -1.83697e-16 1127.5 1413.5)"/><path d="M0-4.58333 92.8992-4.58333 92.8992 576.589 88.3159 572.006 135.381 572.006 135.381 581.172 83.7326 581.172 83.7326 0 88.3159 4.58333 0 4.58333ZM130.798 553.672 176.631 576.589 130.798 599.506Z" transform="matrix(1.83697e-16 1 1 -1.83697e-16 1127.5 1034.5)"/><text font-family="Microsoft YaHei,Microsoft YaHei_MSFontService,sans-serif" font-weight="400" font-size="92" transform="matrix(1 0 0 1 1279.28 356)">分组<tspan font-size="92" x="210.26" y="0">2</tspan></text><rect x="2176" y="210" width="1341" height="1681" fill="#FEF8F6"/><rect x="2477" y="452" width="195" height="203" fill="#FEEFE8"/><rect x="2866" y="452" width="570" height="203" fill="#F8CCB9"/><text font-family="Microsoft YaHei,Microsoft YaHei_MSFontService,sans-serif" font-weight="400" font-size="92" transform="matrix(1 0 0 1 3013.34 587)">行记录</text><rect x="2282" y="452" width="195" height="203" fill="#F0835B"/><text fill="#FFFFFF" font-family="Microsoft YaHei,Microsoft YaHei_MSFontService,sans-serif" font-weight="400" font-size="92" transform="matrix(1 0 0 1 2352.73 587)">0</text><rect x="2672" y="452" width="194" height="203" fill="#D74514"/><text fill="#FFFFFF" font-family="Microsoft YaHei,Microsoft YaHei_MSFontService,sans-serif" font-weight="400" font-size="92" transform="matrix(1 0 0 1 2741.93 587)">5</text><rect x="2477" y="831" width="195" height="203" fill="#FEEFE8"/><rect x="2866" y="831" width="570" height="203" fill="#F8CCB9"/><text font-family="Microsoft YaHei,Microsoft YaHei_MSFontService,sans-serif" font-weight="400" font-size="92" transform="matrix(1 0 0 1 3013.34 966)">行记录</text><rect x="2282" y="831" width="195" height="203" fill="#F0835B"/><text fill="#FFFFFF" font-family="Microsoft YaHei,Microsoft YaHei_MSFontService,sans-serif" font-weight="400" font-size="92" transform="matrix(1 0 0 1 2352.73 966)">0</text><rect x="2672" y="831" width="194" height="203" fill="#D74514"/><text fill="#FFFFFF" font-family="Microsoft YaHei,Microsoft YaHei_MSFontService,sans-serif" font-weight="400" font-size="92" transform="matrix(1 0 0 1 2741.93 966)">6</text><rect x="2477" y="1210" width="195" height="203" fill="#FEEFE8"/><rect x="2866" y="1210" width="570" height="203" fill="#F8CCB9"/><text font-family="Microsoft YaHei,Microsoft YaHei_MSFontService,sans-serif" font-weight="400" font-size="92" transform="matrix(1 0 0 1 3013.34 1345)">行记录</text><rect x="2282" y="1210" width="195" height="203" fill="#F0835B"/><text fill="#FFFFFF" font-family="Microsoft YaHei,Microsoft YaHei_MSFontService,sans-serif" font-weight="400" font-size="92" transform="matrix(1 0 0 1 2352.73 1345)">0</text><rect x="2672" y="1210" width="194" height="203" fill="#D74514"/><text fill="#FFFFFF" font-family="Microsoft YaHei,Microsoft YaHei_MSFontService,sans-serif" font-weight="400" font-size="92" transform="matrix(1 0 0 1 2741.93 1345)">7</text><rect x="2477" y="1589" width="195" height="203" fill="#FEEFE8"/><rect x="2866" y="1589" width="570" height="203" fill="#F8CCB9"/><text font-family="Microsoft YaHei,Microsoft YaHei_MSFontService,sans-serif" font-weight="400" font-size="92" transform="matrix(1 0 0 1 3013.34 1723)">行记录</text><rect x="2282" y="1589" width="195" height="203" fill="#F0835B"/><text fill="#FFFFFF" font-family="Microsoft YaHei,Microsoft YaHei_MSFontService,sans-serif" font-weight="400" font-size="92" transform="matrix(1 0 0 1 2352.73 1723)">4</text><rect x="2672" y="1589" width="194" height="203" fill="#D74514"/><text fill="#FFFFFF" font-family="Microsoft YaHei,Microsoft YaHei_MSFontService,sans-serif" font-weight="400" font-size="92" transform="matrix(1 0 0 1 2741.93 1723)">8</text><path d="M0-4.58333 92.8992-4.58333 92.8992 576.589 88.3159 572.006 135.381 572.006 135.381 581.172 83.7326 581.172 83.7326 0 88.3159 4.58333 0 4.58333ZM130.798 553.672 176.631 576.589 130.798 599.506Z" transform="matrix(1.83697e-16 1 1 -1.83697e-16 2574.5 655.5)"/><path d="M0-4.58333 92.8992-4.58333 92.8992 576.589 88.3159 572.006 135.381 572.006 135.381 581.172 83.7326 581.172 83.7326 0 88.3159 4.58333 0 4.58333ZM130.798 553.672 176.631 576.589 130.798 599.506Z" transform="matrix(1.83697e-16 1 1 -1.83697e-16 2574.5 1413.5)"/><path d="M0-4.58333 92.8992-4.58333 92.8992 576.589 88.3159 572.006 135.381 572.006 135.381 581.172 83.7326 581.172 83.7326 0 88.3159 4.58333 0 4.58333ZM130.798 553.672 176.631 576.589 130.798 599.506Z" transform="matrix(1.83697e-16 1 1 -1.83697e-16 2574.5 1034.5)"/><text font-family="Microsoft YaHei,Microsoft YaHei_MSFontService,sans-serif" font-weight="400" font-size="92" transform="matrix(1 0 0 1 2726.88 356)">分组<tspan font-size="92" x="210.261" y="0">3</tspan></text><rect x="3623" y="210" width="1341" height="1681" fill="#FEF8F6"/><rect x="3925" y="452" width="194" height="203" fill="#FEEFE8"/><rect x="4314" y="452" width="569" height="203" fill="#F8CCB9"/><text font-family="Microsoft YaHei,Microsoft YaHei_MSFontService,sans-serif" font-weight="400" font-size="92" transform="matrix(1 0 0 1 4460.95 587)">行记录</text><rect x="3730" y="452" width="195" height="203" fill="#F0835B"/><text fill="#FFFFFF" font-family="Microsoft YaHei,Microsoft YaHei_MSFontService,sans-serif" font-weight="400" font-size="92" transform="matrix(1 0 0 1 3800.33 587)">0</text><rect x="4119" y="452" width="195" height="203" fill="#D74514"/><text fill="#FFFFFF" font-family="Microsoft YaHei,Microsoft YaHei_MSFontService,sans-serif" font-weight="400" font-size="92" transform="matrix(1 0 0 1 4189.53 587)">9</text><rect x="3925" y="831" width="194" height="203" fill="#FEEFE8"/><rect x="4314" y="831" width="569" height="203" fill="#F8CCB9"/><text font-family="Microsoft YaHei,Microsoft YaHei_MSFontService,sans-serif" font-weight="400" font-size="92" transform="matrix(1 0 0 1 4460.95 966)">行记录</text><rect x="3730" y="831" width="195" height="203" fill="#F0835B"/><text fill="#FFFFFF" font-family="Microsoft YaHei,Microsoft YaHei_MSFontService,sans-serif" font-weight="400" font-size="92" transform="matrix(1 0 0 1 3800.33 966)">0</text><rect x="4119" y="831" width="195" height="203" fill="#D74514"/><text fill="#FFFFFF" font-family="Microsoft YaHei,Microsoft YaHei_MSFontService,sans-serif" font-weight="400" font-size="92" transform="matrix(1 0 0 1 4162.61 966)">10</text><rect x="3925" y="1210" width="194" height="203" fill="#FEEFE8"/><rect x="4314" y="1210" width="569" height="203" fill="#F8CCB9"/><text font-family="Microsoft YaHei,Microsoft YaHei_MSFontService,sans-serif" font-weight="400" font-size="92" transform="matrix(1 0 0 1 4460.95 1345)">行记录</text><rect x="3730" y="1210" width="195" height="203" fill="#F0835B"/><text fill="#FFFFFF" font-family="Microsoft YaHei,Microsoft YaHei_MSFontService,sans-serif" font-weight="400" font-size="92" transform="matrix(1 0 0 1 3800.33 1345)">0</text><rect x="4119" y="1210" width="195" height="203" fill="#D74514"/><text fill="#FFFFFF" font-family="Microsoft YaHei,Microsoft YaHei_MSFontService,sans-serif" font-weight="400" font-size="92" transform="matrix(1 0 0 1 4162.61 1345)">11</text><rect x="3925" y="1589" width="194" height="203" fill="#FEEFE8"/><rect x="4314" y="1589" width="569" height="203" fill="#F8CCB9"/><text font-family="Microsoft YaHei,Microsoft YaHei_MSFontService,sans-serif" font-weight="400" font-size="92" transform="matrix(1 0 0 1 4460.95 1723)">行记录</text><rect x="3730" y="1589" width="195" height="203" fill="#F0835B"/><text fill="#FFFFFF" font-family="Microsoft YaHei,Microsoft YaHei_MSFontService,sans-serif" font-weight="400" font-size="92" transform="matrix(1 0 0 1 3800.33 1723)">4</text><rect x="4119" y="1589" width="195" height="203" fill="#D74514"/><text fill="#FFFFFF" font-family="Microsoft YaHei,Microsoft YaHei_MSFontService,sans-serif" font-weight="400" font-size="92" transform="matrix(1 0 0 1 4162.61 1723)">12</text><path d="M0-4.58333 92.8992-4.58333 92.8992 576.589 88.3159 572.006 135.381 572.006 135.381 581.172 83.7326 581.172 83.7326 0 88.3159 4.58333 0 4.58333ZM130.798 553.672 176.631 576.589 130.798 599.506Z" transform="matrix(1.83697e-16 1 1 -1.83697e-16 4022.5 655.5)"/><path d="M0-4.58333 92.8992-4.58333 92.8992 576.589 88.3159 572.006 135.381 572.006 135.381 581.172 83.7326 581.172 83.7326 0 88.3159 4.58333 0 4.58333ZM130.798 553.672 176.631 576.589 130.798 599.506Z" transform="matrix(1.83697e-16 1 1 -1.83697e-16 4022.5 1413.5)"/><path d="M0-4.58333 92.8992-4.58333 92.8992 576.589 88.3159 572.006 135.381 572.006 135.381 581.172 83.7326 581.172 83.7326 0 88.3159 4.58333 0 4.58333ZM130.798 553.672 176.631 576.589 130.798 599.506Z" transform="matrix(1.83697e-16 1 1 -1.83697e-16 4022.5 1034.5)"/><text font-family="Microsoft YaHei,Microsoft YaHei_MSFontService,sans-serif" font-weight="400" font-size="92" transform="matrix(1 0 0 1 4174.49 356)">分组<tspan font-size="92" x="210.261" y="0">4</tspan></text><path d="M3147.11 411.25 3147.11 379.165 3151.69 383.748 2114.64 383.748 2119.22 379.165 2119.22 1961.28 1122.92 1961.28 1122.92 1791.7 1132.08 1791.7 1132.08 1956.7 1127.5 1952.11 2114.64 1952.11 2110.05 1956.7 2110.05 374.582 3156.28 374.582 3156.28 411.25ZM3174.61 406.667 3151.69 452.5 3128.78 406.667Z"/><path d="M4594.11 411.25 4594.11 390.964 4598.69 395.547 3571.48 395.547 3576.06 390.964 3576.06 1957.35 2569.92 1957.35 2569.92 1791.7 2579.08 1791.7 2579.08 1952.77 2574.5 1948.19 3571.48 1948.19 3566.89 1952.77 3566.89 386.38 4603.28 386.38 4603.28 411.25ZM4621.61 406.667 4598.69 452.5 4575.78 406.667Z"/><rect x="-516" y="225" width="1137" height="1682" fill="#FEF8F6"/><rect x="-224" y="1605" width="195" height="202" fill="#FEEFE8"/><rect x="-28.9999" y="1605" width="569" height="202" fill="#F8CCB9"/><text font-family="Microsoft YaHei,Microsoft YaHei_MSFontService,sans-serif" font-weight="400" font-size="92" transform="matrix(1 0 0 1 72.0938 1739)">最小记录</text><rect x="-418" y="1605" width="194" height="202" fill="#F0835B"/><text fill="#FFFFFF" font-family="Microsoft YaHei,Microsoft YaHei_MSFontService,sans-serif" font-weight="400" font-size="92" transform="matrix(1 0 0 1 -348.09 1739)">1<tspan fill="#000000" font-size="92" x="268.768" y="-1367">分组</tspan><tspan fill="#000000" font-size="92" x="479.028" y="-1367">1</tspan></text><path d="M41.25-4.58333 156.586-4.58333 156.586 1416.23 152.002 1411.64 961.308 1411.64 956.725 1416.23 956.725 1253.73 965.891 1253.73 965.891 1420.81 147.419 1420.81 147.419 0 152.002 4.58333 41.25 4.58333ZM45.8333 22.9167 0 0 45.8333-22.9167Z" transform="matrix(-1 1.22465e-16 1.22465e-16 1 834.808 554.5)"/><rect x="5071" y="210" width="1341" height="2063" fill="#FEF8F6"/><rect x="5372" y="452" width="195" height="203" fill="#FEEFE8"/><rect x="5761" y="452" width="570" height="203" fill="#F8CCB9"/><text font-family="Microsoft YaHei,Microsoft YaHei_MSFontService,sans-serif" font-weight="400" font-size="92" transform="matrix(1 0 0 1 5908.55 587)">行记录</text><rect x="5178" y="452" width="194" height="203" fill="#F0835B"/><text fill="#FFFFFF" font-family="Microsoft YaHei,Microsoft YaHei_MSFontService,sans-serif" font-weight="400" font-size="92" transform="matrix(1 0 0 1 5247.94 587)">0</text><rect x="5567" y="452" width="194" height="203" fill="#D74514"/><text fill="#FFFFFF" font-family="Microsoft YaHei,Microsoft YaHei_MSFontService,sans-serif" font-weight="400" font-size="92" transform="matrix(1 0 0 1 5610.21 587)">13</text><rect x="5372" y="831" width="195" height="203" fill="#FEEFE8"/><rect x="5761" y="831" width="570" height="203" fill="#F8CCB9"/><text font-family="Microsoft YaHei,Microsoft YaHei_MSFontService,sans-serif" font-weight="400" font-size="92" transform="matrix(1 0 0 1 5908.55 966)">行记录</text><rect x="5178" y="831" width="194" height="203" fill="#F0835B"/><text fill="#FFFFFF" font-family="Microsoft YaHei,Microsoft YaHei_MSFontService,sans-serif" font-weight="400" font-size="92" transform="matrix(1 0 0 1 5247.94 966)">0</text><rect x="5567" y="831" width="194" height="203" fill="#D74514"/><text fill="#FFFFFF" font-family="Microsoft YaHei,Microsoft YaHei_MSFontService,sans-serif" font-weight="400" font-size="92" transform="matrix(1 0 0 1 5610.21 966)">14</text><rect x="5372" y="1210" width="195" height="203" fill="#FEEFE8"/><rect x="5761" y="1210" width="570" height="203" fill="#F8CCB9"/><text font-family="Microsoft YaHei,Microsoft YaHei_MSFontService,sans-serif" font-weight="400" font-size="92" transform="matrix(1 0 0 1 5908.55 1345)">行记录</text><rect x="5178" y="1210" width="194" height="203" fill="#F0835B"/><text fill="#FFFFFF" font-family="Microsoft YaHei,Microsoft YaHei_MSFontService,sans-serif" font-weight="400" font-size="92" transform="matrix(1 0 0 1 5247.94 1345)">0</text><rect x="5567" y="1210" width="194" height="203" fill="#D74514"/><text fill="#FFFFFF" font-family="Microsoft YaHei,Microsoft YaHei_MSFontService,sans-serif" font-weight="400" font-size="92" transform="matrix(1 0 0 1 5610.21 1345)">15</text><rect x="5372" y="1589" width="195" height="203" fill="#FEEFE8"/><rect x="5761" y="1589" width="570" height="203" fill="#F8CCB9"/><text font-family="Microsoft YaHei,Microsoft YaHei_MSFontService,sans-serif" font-weight="400" font-size="92" transform="matrix(1 0 0 1 5908.55 1723)">行记录</text><rect x="5178" y="1589" width="194" height="203" fill="#F0835B"/><text fill="#FFFFFF" font-family="Microsoft YaHei,Microsoft YaHei_MSFontService,sans-serif" font-weight="400" font-size="92" transform="matrix(1 0 0 1 5247.94 1723)">0</text><rect x="5567" y="1589" width="194" height="203" fill="#D74514"/><text fill="#FFFFFF" font-family="Microsoft YaHei,Microsoft YaHei_MSFontService,sans-serif" font-weight="400" font-size="92" transform="matrix(1 0 0 1 5610.21 1723)">16</text><path d="M0-4.58333 92.8992-4.58333 92.8992 576.589 88.3159 572.006 135.381 572.006 135.381 581.172 83.7326 581.172 83.7326 0 88.3159 4.58333 0 4.58333ZM130.798 553.672 176.631 576.589 130.798 599.506Z" transform="matrix(1.83697e-16 1 1 -1.83697e-16 5469.5 655.5)"/><path d="M0-4.58333 92.8992-4.58333 92.8992 576.589 88.3159 572.006 135.381 572.006 135.381 581.172 83.7326 581.172 83.7326 0 88.3159 4.58333 0 4.58333ZM130.798 553.672 176.631 576.589 130.798 599.506Z" transform="matrix(1.83697e-16 1 1 -1.83697e-16 5469.5 1413.5)"/><path d="M0-4.58333 92.8992-4.58333 92.8992 576.589 88.3159 572.006 135.381 572.006 135.381 581.172 83.7326 581.172 83.7326 0 88.3159 4.58333 0 4.58333ZM130.798 553.672 176.631 576.589 130.798 599.506Z" transform="matrix(1.83697e-16 1 1 -1.83697e-16 5469.5 1034.5)"/><text font-family="Microsoft YaHei,Microsoft YaHei_MSFontService,sans-serif" font-weight="400" font-size="92" transform="matrix(1 0 0 1 5622.09 356)">分组<tspan font-size="92" x="210.261" y="0">5</tspan></text><rect x="5379" y="1970" width="195" height="202" fill="#FEEFE8"/><rect x="5574" y="1970" width="569" height="202" fill="#F8CCB9"/><text font-family="Microsoft YaHei,Microsoft YaHei_MSFontService,sans-serif" font-weight="400" font-size="92" transform="matrix(1 0 0 1 5675.33 2104)">最大记录</text><rect x="5185" y="1970" width="194" height="202" fill="#F0835B"/><text fill="#FFFFFF" font-family="Microsoft YaHei,Microsoft YaHei_MSFontService,sans-serif" font-weight="400" font-size="92" transform="matrix(1 0 0 1 5255.15 2104)">5</text><path d="M0-4.58333 93.685-4.58333 93.685 389.204 89.1017 384.621 136.953 384.621 136.953 393.787 84.5183 393.787 84.5183 0 89.1017 4.58333 0 4.58333ZM132.37 366.287 178.203 389.204 132.37 412.121Z" transform="matrix(1.83697e-16 1 1 -1.83697e-16 5469.5 1792.5)"/><rect x="-516" y="2048" width="5526" height="355" fill="#FEF8F6"/><rect x="158" y="2124" width="195" height="203" fill="#D74514"/><text fill="#FFFFFF" font-family="Microsoft YaHei,Microsoft YaHei_MSFontService,sans-serif" font-weight="400" font-size="92" transform="matrix(1 0 0 1 228.5 2259)">0</text><path d="M6042.11 411.25 6042.11 392.919 6046.69 397.502 5018.81 397.502 5023.39 392.919 5023.39 1956.7 4017.92 1956.7 4017.92 1791.7 4027.08 1791.7 4027.08 1952.12 4022.5 1947.53 5018.81 1947.53 5014.23 1952.12 5014.23 388.335 6051.28 388.335 6051.28 411.25ZM6069.61 406.667 6046.69 452.5 6023.78 406.667Z"/><path d="M4.58333-5.21765e-06 4.58336 27.5-4.5833 27.5-4.58333 5.21765e-06ZM4.58337 36.6667 4.58341 64.1667-4.58326 64.1667-4.58329 36.6667ZM4.58342 73.3333 4.58345 100.833-4.58322 100.833-4.58325 73.3333ZM4.58346 110 4.58349 137.5-4.58318 137.5-4.58321 110ZM4.5835 146.667 4.58353 174.167-4.58314 174.167-4.58317 146.667ZM4.58354 183.333 4.58357 210.833-4.58309 210.833-4.58312 183.333ZM4.58358 220 4.58361 247.5-4.58305 247.5-4.58308 220ZM4.58363 256.667 4.58365 275.768-4.58302 275.768-4.58304 256.667ZM22.917 271.185 0.000360892 317.018-22.9164 271.185Z" fill="#D74514" transform="matrix(1 0 0 -1 255.5 2124.52)"/><rect x="1606" y="2124" width="195" height="202" fill="#D74514"/><text fill="#FFFFFF" font-family="Microsoft YaHei,Microsoft YaHei_MSFontService,sans-serif" font-weight="400" font-size="92" transform="matrix(1 0 0 1 1676.31 2258)">1</text><rect x="3054" y="2124" width="194" height="202" fill="#D74514"/><text fill="#FFFFFF" font-family="Microsoft YaHei,Microsoft YaHei_MSFontService,sans-serif" font-weight="400" font-size="92" transform="matrix(1 0 0 1 3123.92 2258)">2</text><rect x="4501" y="2122" width="195" height="202" fill="#D74514"/><text fill="#FFFFFF" font-family="Microsoft YaHei,Microsoft YaHei_MSFontService,sans-serif" font-weight="400" font-size="92" transform="matrix(1 0 0 1 4571.52 2256)">3</text><rect x="4755" y="2120" width="195" height="202" fill="#D74514"/><text fill="#FFFFFF" font-family="Microsoft YaHei,Microsoft YaHei_MSFontService,sans-serif" font-weight="400" font-size="92" transform="matrix(1 0 0 1 4825.74 2254)">4</text><path d="M4.58333-4.98084e-06 4.58336 27.5-4.5833 27.5-4.58333 4.98084e-06ZM4.58337 36.6667 4.5834 64.1667-4.58326 64.1667-4.58329 36.6667ZM4.58341 73.3333 4.58344 100.833-4.58322 100.833-4.58325 73.3333ZM4.58345 110 4.58348 137.5-4.58318 137.5-4.58321 110ZM4.58349 146.667 4.58352 174.167-4.58314 174.167-4.58317 146.667ZM4.58353 183.333 4.58356 210.833-4.5831 210.833-4.58313 183.333ZM4.58357 220 4.5836 247.5-4.58306 247.5-4.58309 220ZM4.58361 256.667 4.58364 284.167-4.58302 284.167-4.58305 256.667ZM22.917 286.257 0.000360892 332.091-22.9164 286.257Z" fill="#D74514" transform="matrix(1 0 0 -1 1703.5 2124.59)"/><path d="M4.58333-4.98084e-06 4.58336 27.5-4.5833 27.5-4.58333 4.98084e-06ZM4.58337 36.6667 4.5834 64.1667-4.58326 64.1667-4.58329 36.6667ZM4.58341 73.3333 4.58344 100.833-4.58322 100.833-4.58325 73.3333ZM4.58345 110 4.58348 137.5-4.58318 137.5-4.58321 110ZM4.58349 146.667 4.58352 174.167-4.58314 174.167-4.58317 146.667ZM4.58353 183.333 4.58356 210.833-4.5831 210.833-4.58313 183.333ZM4.58357 220 4.5836 247.5-4.58306 247.5-4.58309 220ZM4.58361 256.667 4.58364 284.167-4.58302 284.167-4.58305 256.667ZM22.917 286.257 0.000360892 332.091-22.9164 286.257Z" fill="#D74514" transform="matrix(1 0 0 -1 3151.5 2124.59)"/><path d="M4.58333-5.0057e-06 4.58336 27.5-4.5833 27.5-4.58333 5.0057e-06ZM4.58337 36.6667 4.5834 64.1667-4.58326 64.1667-4.58329 36.6667ZM4.58341 73.3333 4.58344 100.833-4.58322 100.833-4.58325 73.3333ZM4.58345 110 4.58348 137.5-4.58318 137.5-4.58321 110ZM4.58349 146.667 4.58352 174.167-4.58314 174.167-4.58317 146.667ZM4.58353 183.333 4.58356 210.833-4.5831 210.833-4.58313 183.333ZM4.58357 220 4.5836 247.5-4.58306 247.5-4.58309 220ZM4.58361 256.667 4.58364 284.167-4.58302 284.167-4.58305 256.667ZM22.917 284.608 0.000360892 330.441-22.9164 284.608Z" fill="#D74514" transform="matrix(1 0 0 -1 4598.5 2122.94)"/><path d="M0-4.58333 27.5-4.58333 27.5 4.58333 0 4.58333ZM36.6667-4.58333 64.1667-4.58333 64.1667 4.58333 36.6667 4.58333ZM73.3333-4.58333 100.833-4.58333 100.833 4.58333 73.3333 4.58333ZM110-4.58333 137.5-4.58333 137.5 4.58333 110 4.58333ZM146.667-4.58333 174.167-4.58333 174.167 4.58333 146.667 4.58333ZM183.333-4.58333 210.833-4.58333 210.833 4.58333 183.333 4.58333ZM220-4.58333 247.5-4.58333 247.5 4.58333 220 4.58333ZM256.667-4.58333 284.167-4.58333 284.167 4.58333 256.667 4.58333ZM293.333-4.58333 320.833-4.58333 320.833 4.58333 293.333 4.58333ZM330-4.58333 357.5-4.58333 357.5 4.58333 330 4.58333ZM366.667-4.58333 394.167-4.58333 394.167 4.58333 366.667 4.58333ZM403.333-4.58333 430.833-4.58333 430.833 4.58333 403.333 4.58333ZM440-4.58333 467.5-4.58333 467.5 4.58333 440 4.58333ZM476.667-4.58333 504.167-4.58333 504.167 4.58333 476.667 4.58333ZM513.333-4.58333 540.833-4.58333 540.833 4.58333 513.333 4.58333ZM550-4.58333 577.5-4.58333 577.5 4.58333 550 4.58333ZM586.667-4.58333 614.167-4.58333 614.167 4.58333 586.667 4.58333ZM623.333-4.58333 650.833-4.58333 650.833 4.58333 623.333 4.58333ZM660-4.58333 687.5-4.58333 687.5 4.58333 660 4.58333ZM696.667-4.58333 724.167-4.58333 724.167 4.58333 696.667 4.58333ZM733.333-4.58333 760.833-4.58333 760.833 4.58333 733.333 4.58333ZM770-4.58333 797.5-4.58333 797.5 4.58333 770 4.58333ZM806.667-4.58333 834.167-4.58333 834.167 4.58333 806.667 4.58333ZM843.333-4.58333 870.833-4.58333 870.833 4.58333 843.333 4.58333ZM880-4.58333 907.5-4.58333 907.5 4.58333 880 4.58333ZM931.618 2.96509 908.701 48.7984 885.785 2.96509Z" fill="#D74514" transform="matrix(1 0 0 -1 4950.5 2221.3)"/><text font-family="Microsoft YaHei,Microsoft YaHei_MSFontService,sans-serif" font-weight="400" font-size="92" transform="matrix(1 0 0 1 -419.639 2255)">页目录</text></g></svg>