<svg width="1375" height="1196" xmlns="http://www.w3.org/2000/svg" xmlns:xlink="http://www.w3.org/1999/xlink" overflow="hidden"><defs><clipPath id="clip0"><rect x="1705" y="286" width="1375" height="1196"/></clipPath></defs><g clip-path="url(#clip0)" transform="translate(-1705 -286)"><rect x="1705" y="534" width="1375" height="948" fill="#FEF8F6"/><rect x="2830" y="286" width="170" height="168" fill="#F8CCB9"/><rect x="2605" y="286" width="225" height="168" fill="#F0835B"/><text fill="#FFFFFF" font-family="Microsoft YaHei,Microsoft YaHei_MSFontService,sans-serif" font-weight="400" font-size="92" transform="matrix(1 0 0 1 2663.69 403)">36</text><rect x="2015" y="286" width="590" height="168" fill="#D74514"/><text fill="#FFFFFF" font-family="Microsoft YaHei,Microsoft YaHei_MSFontService,sans-serif" font-weight="400" font-size="92" transform="matrix(1 0 0 1 2218.35 403)">数据</text><rect x="2837" y="603" width="170" height="168" fill="#F8CCB9"/><rect x="2612" y="603" width="225" height="168" fill="#F0835B"/><text fill="#FFFFFF" font-family="Microsoft YaHei,Microsoft YaHei_MSFontService,sans-serif" font-weight="400" font-size="92" transform="matrix(1 0 0 1 2670.56 720)">35</text><rect x="2022" y="603" width="590" height="168" fill="#D74514"/><text fill="#FFFFFF" font-family="Microsoft YaHei,Microsoft YaHei_MSFontService,sans-serif" font-weight="400" font-size="92" transform="matrix(1 0 0 1 2225.23 720)">数据</text><rect x="2837" y="920" width="170" height="168" fill="#F8CCB9"/><rect x="2612" y="920" width="225" height="168" fill="#F0835B"/><text fill="#FFFFFF" font-family="Microsoft YaHei,Microsoft YaHei_MSFontService,sans-serif" font-weight="400" font-size="92" transform="matrix(1 0 0 1 2670.56 1037)">32</text><rect x="2022" y="920" width="590" height="168" fill="#D74514"/><text fill="#FFFFFF" font-family="Microsoft YaHei,Microsoft YaHei_MSFontService,sans-serif" font-weight="400" font-size="92" transform="matrix(1 0 0 1 2225.23 1037)">数据</text><rect x="2837" y="1238" width="170" height="168" fill="#F8CCB9"/><rect x="2612" y="1238" width="225" height="168" fill="#F0835B"/><text fill="#FFFFFF" font-family="Microsoft YaHei,Microsoft YaHei_MSFontService,sans-serif" font-weight="400" font-size="92" transform="matrix(1 0 0 1 2670.56 1354)">2<tspan font-size="92" x="53.854" y="0">1</tspan></text><rect x="2022" y="1238" width="590" height="168" fill="#D74514"/><text fill="#FFFFFF" font-family="Microsoft YaHei,Microsoft YaHei_MSFontService,sans-serif" font-weight="400" font-size="92" transform="matrix(1 0 0 1 2225.23 1354)">数据</text><path d="M-41.25 4.58333-82.4965 4.58333-77.9132 0-77.9132 158.515-82.4965 153.932 904.416 153.932 904.416 233.028 895.25 233.028 895.25 158.515 899.833 163.099-87.0798 163.099-87.0798-4.58333-41.25-4.58333ZM-45.8333-22.9167 0 0-45.8333 22.9167Z" transform="matrix(1 -1.22465e-16 -1.22465e-16 -1 2022.5 1004.53)"/><path d="M-41.25 4.58333-82.4965 4.58333-77.9132 0-77.9132 158.515-82.4965 153.932 904.416 153.932 904.416 233.028 895.25 233.028 895.25 158.515 899.833 163.098-87.0798 163.098-87.0798-4.58333-41.25-4.58333ZM-45.8333-22.9167 0 0-45.8333 22.9167Z" transform="matrix(1 -1.22465e-16 -1.22465e-16 -1 2022.5 1321.53)"/><path d="M-41.25 4.58333-82.5 4.58333-77.9166 0-77.9166 189.451-82.5 184.868 897.541 184.868 897.541 233.028 888.375 233.028 888.375 189.451 892.958 194.035-87.0833 194.035-87.0833-4.58333-41.25-4.58333ZM-45.8333-22.9167 0 0-45.8333 22.9167Z" transform="matrix(1 -1.22465e-16 -1.22465e-16 -1 2022.5 687.528)"/><text font-family="Microsoft YaHei,Microsoft YaHei_MSFontService,sans-serif" font-weight="400" font-size="92" transform="matrix(-1.83697e-16 -1 1 -1.83697e-16 1844.18 1208)">u<tspan font-size="92" x="57" y="1.04707e-14">ndo log</tspan></text></g></svg>