<svg xmlns="http://www.w3.org/2000/svg" width="5167" height="3229" overflow="hidden"><defs><clipPath id="a"><path d="M-463-744h5167v3229H-463z"/></clipPath></defs><g clip-path="url(#a)" transform="translate(463 744)"><path fill="#fef8f6" d="M-463 1724H680v761H-463z"/><path fill="#f8ccb9" d="M-463 1547H680v177H-463z"/><text font-family="Microsoft YaHei,Microsoft YaHei_MSFontService,sans-serif" font-size="92" font-weight="400" transform="translate(-220.754 1669)">叶子节点<tspan x="393.594" y="0">/ </tspan><tspan x="459.479" y="0">页</tspan>10</text><path fill="#f0835b" d="M-393 1823h190v578h-190z"/><text fill="#fff" font-family="Microsoft YaHei,Microsoft YaHei_MSFontService,sans-serif" font-size="92" font-weight="400" transform="translate(-344.062 1980)">最<tspan x="0" y="110">小</tspan><tspan x="0" y="220">记</tspan><tspan x="0" y="330">录</tspan></text><path fill="#d74514" d="M-125 1823H65v578h-190z"/><text fill="#fff" font-family="Microsoft YaHei,Microsoft YaHei_MSFontService,sans-serif" font-size="92" font-weight="400" transform="translate(-75.938 2090)">数<tspan x="0" y="110">据</tspan></text><path fill="#d74514" d="M143 1823h190v578H143z"/><text fill="#fff" font-family="Microsoft YaHei,Microsoft YaHei_MSFontService,sans-serif" font-size="92" font-weight="400" transform="translate(192.187 2090)">数<tspan x="0" y="110">据</tspan></text><path fill="#f0835b" d="M411 1823h190v578H411z"/><text fill="#fff" font-family="Microsoft YaHei,Microsoft YaHei_MSFontService,sans-serif" font-size="92" font-weight="400" transform="translate(460.312 1980)">最<tspan x="0" y="110">大</tspan><tspan x="0" y="220">记</tspan><tspan x="0" y="330">录</tspan></text><path d="M-202.5 2107.92h36.928v9.16H-202.5Zm32.345-18.34 45.833 22.92-45.833 22.92ZM65.5 2107.92h36.928v9.16H65.5Zm32.345-18.34 45.833 22.92-45.833 22.92Zm235.655 18.34h36.928v9.16H333.5Zm32.345-18.34 45.833 22.92-45.834 22.92Z"/><path fill="#fef8f6" d="M879 1724h1143v761H879z"/><path fill="#f8ccb9" d="M879 1547h1143v177H879z"/><text font-family="Microsoft YaHei,Microsoft YaHei_MSFontService,sans-serif" font-size="92" font-weight="400" transform="translate(1120.61 1669)">叶子节点<tspan x="393.594" y="0">/ </tspan><tspan x="459.479" y="0">页</tspan><tspan x="551.146" y="0">22</tspan></text><path fill="#f0835b" d="M948 1823h190v578H948z"/><text fill="#fff" font-family="Microsoft YaHei,Microsoft YaHei_MSFontService,sans-serif" font-size="92" font-weight="400" transform="translate(997.3 1980)">最<tspan x="0" y="110">小</tspan><tspan x="0" y="220">记</tspan><tspan x="0" y="330">录</tspan></text><path fill="#d74514" d="M1216 1823h190v578h-190z"/><text fill="#fff" font-family="Microsoft YaHei,Microsoft YaHei_MSFontService,sans-serif" font-size="92" font-weight="400" transform="translate(1265.42 2090)">数<tspan x="0" y="110">据</tspan></text><path fill="#d74514" d="M1484 1823h190v578h-190z"/><text fill="#fff" font-family="Microsoft YaHei,Microsoft YaHei_MSFontService,sans-serif" font-size="92" font-weight="400" transform="translate(1533.55 2090)">数<tspan x="0" y="110">据</tspan></text><path fill="#f0835b" d="M1753 1823h189v578h-189z"/><text fill="#fff" font-family="Microsoft YaHei,Microsoft YaHei_MSFontService,sans-serif" font-size="92" font-weight="400" transform="translate(1801.67 1980)">最<tspan x="0" y="110">大</tspan><tspan x="0" y="220">记</tspan><tspan x="0" y="330">录</tspan></text><path d="M1138.5 2107.92h36.93v9.16h-36.93Zm32.34-18.34 45.84 22.92-45.84 22.92Zm235.66 18.34h36.93v9.16h-36.93Zm32.34-18.34 45.84 22.92-45.84 22.92Zm235.66 18.34h36.93v9.16h-36.93Zm32.34-18.34 45.84 22.92-45.84 22.92Z"/><path fill="#fef8f6" d="M2220 1724h1143v761H2220z"/><path fill="#f8ccb9" d="M2220 1547h1143v177H2220z"/><text font-family="Microsoft YaHei,Microsoft YaHei_MSFontService,sans-serif" font-size="92" font-weight="400" transform="translate(2461.97 1669)">叶子节点<tspan x="393.594" y="0">/ </tspan><tspan x="459.479" y="0">页</tspan><tspan x="551.146" y="0">16</tspan></text><path fill="#f0835b" d="M2290 1823h189v578h-189z"/><text fill="#fff" font-family="Microsoft YaHei,Microsoft YaHei_MSFontService,sans-serif" font-size="92" font-weight="400" transform="translate(2338.66 1980)">最<tspan x="0" y="110">小</tspan><tspan x="0" y="220">记</tspan><tspan x="0" y="330">录</tspan></text><path fill="#d74514" d="M2558 1823h190v578h-190z"/><text fill="#fff" font-family="Microsoft YaHei,Microsoft YaHei_MSFontService,sans-serif" font-size="92" font-weight="400" transform="translate(2606.79 2090)">数<tspan x="0" y="110">据</tspan></text><path fill="#d74514" d="M2826 1823h190v578h-190z"/><text fill="#fff" font-family="Microsoft YaHei,Microsoft YaHei_MSFontService,sans-serif" font-size="92" font-weight="400" transform="translate(2874.91 2090)">数<tspan x="0" y="110">据</tspan></text><path fill="#f0835b" d="M3094 1823h190v578h-190z"/><text fill="#fff" font-family="Microsoft YaHei,Microsoft YaHei_MSFontService,sans-serif" font-size="92" font-weight="400" transform="translate(3143.04 1980)">最<tspan x="0" y="110">大</tspan><tspan x="0" y="220">记</tspan><tspan x="0" y="330">录</tspan></text><path d="M2479.5 2107.92h36.93v9.16h-36.93Zm32.34-18.34 45.84 22.92-45.84 22.92Zm236.66 18.34h36.93v9.16h-36.93Zm32.34-18.34 45.84 22.92-45.84 22.92Zm235.66 18.34h36.93v9.16h-36.93Zm32.34-18.34 45.84 22.92-45.84 22.92Z"/><path fill="#fef8f6" d="M3561 1724h1143v761H3561z"/><path fill="#f8ccb9" d="M3561 1547h1143v177H3561z"/><text font-family="Microsoft YaHei,Microsoft YaHei_MSFontService,sans-serif" font-size="92" font-weight="400" transform="translate(3830.26 1669)">叶子节点<tspan x="393.594" y="0">/ </tspan><tspan x="459.479" y="0">页</tspan><tspan x="551.146" y="0">8</tspan></text><path fill="#f0835b" d="M3631 1823h190v578h-190z"/><text fill="#fff" font-family="Microsoft YaHei,Microsoft YaHei_MSFontService,sans-serif" font-size="92" font-weight="400" transform="translate(3680.02 1980)">最<tspan x="0" y="110">小</tspan><tspan x="0" y="220">记</tspan><tspan x="0" y="330">录</tspan></text><path fill="#d74514" d="M3899 1823h190v578h-190z"/><text fill="#fff" font-family="Microsoft YaHei,Microsoft YaHei_MSFontService,sans-serif" font-size="92" font-weight="400" transform="translate(3948.15 2090)">数<tspan x="0" y="110">据</tspan></text><path fill="#d74514" d="M4167 1823h190v578h-190z"/><text fill="#fff" font-family="Microsoft YaHei,Microsoft YaHei_MSFontService,sans-serif" font-size="92" font-weight="400" transform="translate(4216.27 2090)">数<tspan x="0" y="110">据</tspan></text><path fill="#f0835b" d="M4435 1823h190v578h-190z"/><text fill="#fff" font-family="Microsoft YaHei,Microsoft YaHei_MSFontService,sans-serif" font-size="92" font-weight="400" transform="translate(4484.4 1980)">最<tspan x="0" y="110">大</tspan><tspan x="0" y="220">记</tspan><tspan x="0" y="330">录</tspan></text><path d="M3821.5 2107.92h36.93v9.16h-36.93Zm32.34-18.34 45.84 22.92-45.84 22.92Zm235.66 18.34h36.93v9.16h-36.93Zm32.34-18.34 45.84 22.92-45.84 22.92Zm235.66 18.34h36.93v9.16h-36.93Zm32.34-18.34 45.84 22.92-45.84 22.92ZM721.75 1631.92h115.844v9.16H721.75Zm4.583 27.5L680.5 1636.5l45.833-22.92Zm106.678-45.84 45.833 22.92-45.833 22.92Zm1230.739 18.34h115.84v9.16h-115.84Zm4.58 27.5-45.83-22.92 45.83-22.92Zm106.68-45.84 45.83 22.92-45.83 22.92Zm1229.74 18.34h115.84v9.16h-115.84Zm4.58 27.5-45.83-22.92 45.83-22.92Zm106.68-45.84 45.83 22.92-45.83 22.92Z"/><path fill="#fef8f6" d="M2488 579h874v761h-874z"/><path fill="#f8ccb9" d="M2488 402h874v177h-874z"/><text font-family="Microsoft YaHei,Microsoft YaHei_MSFontService,sans-serif" font-size="92" font-weight="400" transform="translate(2549.61 523)">非叶子节点<tspan x="485.261" y="0">/ </tspan><tspan x="551.146" y="0">页</tspan><tspan x="642.813" y="0">36</tspan></text><path fill="#f0835b" d="M2557 678h190v577h-190z"/><text fill="#fff" font-family="Microsoft YaHei,Microsoft YaHei_MSFontService,sans-serif" font-size="92" font-weight="400" transform="translate(2606.64 835)">最<tspan x="0" y="110">小</tspan><tspan x="0" y="220">记</tspan><tspan x="0" y="330">录</tspan></text><path fill="#d74514" d="M2838 678h190v577h-190z"/><text fill="#fff" font-family="Microsoft YaHei,Microsoft YaHei_MSFontService,sans-serif" font-size="92" font-weight="400" transform="translate(2887.36 945)">页<tspan x="18.906" y="110">8</tspan></text><path fill="#f0835b" d="M3119 678h190v577h-190z"/><text fill="#fff" font-family="Microsoft YaHei,Microsoft YaHei_MSFontService,sans-serif" font-size="92" font-weight="400" transform="translate(3168.08 835)">最<tspan x="0" y="110">大</tspan><tspan x="0" y="220">记</tspan><tspan x="0" y="330">录</tspan></text><path d="M2747.5 962.917h49.52v9.167l-49.52-.001Zm44.94-18.333 45.83 22.917-45.83 22.916Zm236.06 18.333h49.52v9.167l-49.52-.001Zm44.94-18.333 45.83 22.917-45.83 22.916Zm-741.69-458.667h115.84v9.167l-115.84-.001Zm4.58 27.5L2290.5 490.5l45.83-22.917Zm106.68-45.833 45.83 22.916-45.83 22.917Z"/><path fill="#fef8f6" d="M848 579h1442v761H848z"/><path fill="#f8ccb9" d="M848 402h1442v177H848z"/><text font-family="Microsoft YaHei,Microsoft YaHei_MSFontService,sans-serif" font-size="92" font-weight="400" transform="translate(1193.59 523)">非叶子节点<tspan x="485.26" y="0">/ </tspan><tspan x="551.146" y="0">页</tspan><tspan x="642.813" y="0">30</tspan></text><path fill="#f0835b" d="M948 678h190v577H948z"/><text fill="#fff" font-family="Microsoft YaHei,Microsoft YaHei_MSFontService,sans-serif" font-size="92" font-weight="400" transform="translate(997.3 835)">最<tspan x="0" y="110">小</tspan><tspan x="0" y="220">记</tspan><tspan x="0" y="330">录</tspan></text><path fill="#d74514" d="M1484 678h190v577h-190z"/><text fill="#fff" font-family="Microsoft YaHei,Microsoft YaHei_MSFontService,sans-serif" font-size="92" font-weight="400" transform="translate(1533.4 945)">页<tspan x="-8.021" y="110">22</tspan></text><path fill="#d74514" d="M1752 678h190v577h-190z"/><text fill="#fff" font-family="Microsoft YaHei,Microsoft YaHei_MSFontService,sans-serif" font-size="92" font-weight="400" transform="translate(1801.53 945)">页<tspan x="-8.021" y="110">16</tspan></text><path fill="#f0835b" d="M2021 678h189v577h-189z"/><text fill="#fff" font-family="Microsoft YaHei,Microsoft YaHei_MSFontService,sans-serif" font-size="92" font-weight="400" transform="translate(2069.65 835)">最<tspan x="0" y="110">大</tspan><tspan x="0" y="220">记</tspan><tspan x="0" y="330">录</tspan></text><path d="M1138.5 962.917h35v9.167l-35-.001Zm30.42-18.333 45.83 22.917-45.83 22.916Zm505.58 18.333h36.93v9.167l-36.93-.001Zm32.34-18.333 45.84 22.917-45.84 22.916Zm235.66 18.333h36.93v9.167l-36.93-.001Zm32.34-18.333 45.84 22.917-45.84 22.916Z"/><path fill="#d74514" d="M1214 678h190v577h-190z"/><text fill="#fff" font-family="Microsoft YaHei,Microsoft YaHei_MSFontService,sans-serif" font-size="92" font-weight="400" transform="translate(1263.5 945)">页<tspan x="-8.021" y="110">10</tspan></text><path d="M1404.5 962.917h38.71v9.167l-38.71-.001Zm34.12-18.333 45.84 22.917-45.84 22.916ZM104.917 1505.64v-109.03H1310.16l-4.58 4.59v-145.7h9.16v150.28H109.5l4.583-4.58v104.44Zm27.5-4.58-22.917 45.83-22.917-45.83Zm1313.503 4.58v-109.03h133.78l-4.58 4.59v-145.7h9.16v150.28H1450.5l4.58-4.58v104.44Zm27.5-4.58-22.92 45.83-22.92-45.83Zm1322.703 4.58v-109.03h-948.62l4.584 4.584v-145.697h-9.167v150.28h948.62l-4.583-4.583v104.446Zm-27.5-4.583 22.917 45.833 22.917-45.833Zm1369.02 4.583v-109.03H2933.49l4.59 4.583v-145.696h-9.17v150.279h1204.15l-4.583-4.583v104.447Zm-27.5-4.583 22.917 45.833 22.917-45.833Z"/><path fill="#fef8f6" d="M1579-567h1143v762H1579z"/><path fill="#f8ccb9" d="M1579-744h1143v177H1579z"/><text font-family="Microsoft YaHei,Microsoft YaHei_MSFontService,sans-serif" font-size="92" font-weight="400" transform="translate(1775.48 -622)">非叶子节点<tspan x="485.261" y="0">/ </tspan><tspan x="551.146" y="0">页</tspan><tspan x="642.813" y="0">3</tspan><tspan x="696.667" y="0">8</tspan></text><path fill="#f0835b" d="M1649-468h190v578h-190z"/><text fill="#fff" font-family="Microsoft YaHei,Microsoft YaHei_MSFontService,sans-serif" font-size="92" font-weight="400" transform="translate(1698.01 -311)">最<tspan x="0" y="110">小</tspan><tspan x="0" y="220">记</tspan><tspan x="0" y="330">录</tspan></text><path fill="#d74514" d="M1917-468h190v578h-190z"/><text fill="#fff" font-family="Microsoft YaHei,Microsoft YaHei_MSFontService,sans-serif" font-size="92" font-weight="400" transform="translate(1966.13 -201)">页<tspan x="-8.021" y="110">3</tspan><tspan x="45.833" y="110">0</tspan></text><path fill="#d74514" d="M2185-468h190v578h-190z"/><text fill="#fff" font-family="Microsoft YaHei,Microsoft YaHei_MSFontService,sans-serif" font-size="92" font-weight="400" transform="translate(2234.26 -201)">页<tspan x="-8.021" y="110">36</tspan></text><path fill="#f0835b" d="M2453-468h190v578h-190z"/><text fill="#fff" font-family="Microsoft YaHei,Microsoft YaHei_MSFontService,sans-serif" font-size="92" font-weight="400" transform="translate(2502.38 -311)">最<tspan x="0" y="110">大</tspan><tspan x="0" y="220">记</tspan><tspan x="0" y="330">录</tspan></text><path d="M1839.5-183.083h36.93v9.167l-36.93-.001Zm32.34-18.333 45.84 22.916-45.84 22.917Zm235.66 18.333h36.93v9.167l-36.93-.001Zm32.34-18.333 45.84 22.916-45.84 22.917Zm235.66 18.333h36.93v9.167l-36.93-.001Zm32.34-18.333 45.84 22.916-45.84 22.917Zm-842.92 562.51V251.838h447.7l-4.59 4.584V110.5h9.17v150.505h-447.7l4.58-4.583v104.672Zm27.5-4.584-22.92 45.834-22.92-45.834Zm1337.443 4.584V251.839h-649.36l4.584 4.583V110.5h-9.167v150.505h649.36l-4.583-4.583v104.672Zm-27.5-4.583 22.917 45.833 22.917-45.833Z"/></g></svg>