<svg xmlns="http://www.w3.org/2000/svg" width="1298" height="1031" overflow="hidden"><defs><clipPath id="a"><path d="M278 368h1298v1031H278z"/></clipPath></defs><g clip-path="url(#a)" transform="translate(-278 -368)"><path d="M278.5 556.917h1209.26v9.166H278.5Zm1204.67-18.334L1529 561.5l-45.83 22.917Z"/><path d="M931.083 1398.61V455.747h-9.166v942.863Zm18.334-938.28L926.5 414.497l-22.916 45.833Z"/><path fill-rule="evenodd" d="M1473.67 481.563c.84 0 1.58.094 2.21.284q.96.283 1.68.871c.49.392.92.898 1.3 1.52.38.621.74 1.465 1.09 2.533s.69 2.391 1 3.971.58 3.222.83 4.924h.4c2.6-3.647 4.56-6.315 5.9-8.004s2.46-2.945 3.38-3.769 1.81-1.405 2.66-1.742c.85-.338 1.98-.507 3.38-.507q1.905 0 3.12.486l-1.62 7.336h-2.84q-.24-1.702-1.41-1.702c-.25 0-.5.04-.77.121s-.61.257-1 .527-.96.797-1.72 1.581q-1.14 1.175-2.55 2.877c-.95 1.135-1.92 2.324-2.92 3.566l-2.76 3.445q.735 3.89 1.38 6.728c.43 1.891.82 3.465 1.16 4.721.33 1.257.63 2.249.89 2.979.25.729.53 1.277.83 1.641s.6.622.91.77.67.223 1.07.223q1.095 0 2.13-.851c.69-.567 1.68-1.851 2.98-3.85l2.64 1.743c-1.9 2.81-3.6 4.789-5.13 5.937s-3.34 1.722-5.45 1.722c-1.16 0-2.15-.209-2.96-.628s-1.51-1.087-2.11-2.006c-.59-.919-1.12-2.35-1.58-4.296-.84-3.458-1.35-6.106-1.54-7.943h-.4q-4.305 6.039-6.39 8.673c-1.39 1.756-2.54 3.053-3.44 3.89q-1.365 1.257-2.64 1.763c-.85.338-1.98.507-3.38.507q-1.905 0-3.12-.486l1.62-7.336h2.84c.16 1.135.63 1.702 1.42 1.702.37 0 .77-.101 1.19-.304q.63-.303 1.8-1.459c.79-.77 1.87-1.979 3.25-3.627 1.37-1.648 3.37-4.12 5.99-7.416-.4-2.135-.82-4.188-1.25-6.161a115 115 0 0 0-1.34-5.511c-.46-1.702-.84-2.817-1.13-3.344q-.45-.79-.96-1.094c-.33-.203-.76-.304-1.27-.304-.57 0-1.08.128-1.54.385q-.69.386-1.5 1.337c-.54.635-1.26 1.628-2.15 2.979l-2.63-1.742c1.7-2.567 3.33-4.485 4.9-5.755q2.355-1.905 5.55-1.905"/><text x="1458.88" y="516.634" fill-opacity="0" font-family="Arial,Arial_MSFontService,sans-serif" font-size="40.081">𝑥</text><path fill-rule="evenodd" d="M969.535 470.616q1.661 0 2.836.446.811.324 1.622 1.074.81.75 1.438 2.087a19.4 19.4 0 0 1 1.095 2.999q.465 1.662 1.033 4.782a408 408 0 0 1 1.884 11.003q.912 5.775 1.561 10.72 3.931-5.674 6.667-11.105 2.735-5.43 3.931-9.443 1.195-4.011 1.195-6.524 0-1.905-.81-2.594-.811-.689-2.756-.811l.405-1.986h10.654l1.1 2.027q-3.08 8.43-8.35 18.034-5.187 9.403-11.874 18.724-6.404 8.875-10.659 12.847-2.958 2.715-5.714 3.891a12.2 12.2 0 0 1-4.661.891q-.85 0-1.965-.141-1.115-.142-1.723-.385l1.743-7.863h3.202q0 2.594 1.783 2.594 2.35 0 5.471-2.938t7.335-8.855q-1.174-7.093-3.201-17.103-2.148-10.7-2.837-13.252-.852-3.08-1.783-3.932-.568-.526-1.419-.526-1.296 0-2.431 1.053-1.135 1.054-2.797 3.648l-2.634-1.743q2.796-4.174 5.228-5.897t5.431-1.722"/><text x="956.444" y="520.546" fill-opacity="0" font-family="Arial,Arial_MSFontService,sans-serif" font-size="57.063">𝑦</text><path fill="none" stroke="#d74514" stroke-miterlimit="8" stroke-width="9.167" d="m926.5 558.5 366.92 631.05"/><path fill="#d74514" fill-rule="evenodd" stroke="#d74514" stroke-miterlimit="8" stroke-width="9.167" d="M1214.5 1192.5c0-43.63 35.15-79 78.5-79s78.5 35.37 78.5 79-35.15 79-78.5 79-78.5-35.37-78.5-79Z"/><path fill="#fff" fill-rule="evenodd" d="M1271.77 1175.78c2.24 0 4.03.63 5.37 1.88 1.34 1.26 2.01 2.92 2.01 4.97 0 .67-.08 1.32-.25 1.94l.49.25c2.46-3.11 4.84-5.39 7.15-6.85s5-2.19 8.05-2.19c2.7 0 4.83.74 6.38 2.23 1.56 1.48 2.37 3.54 2.45 6.16 2.25-2.87 4.51-4.98 6.79-6.34 2.28-1.37 4.87-2.05 7.76-2.05 2.73 0 4.87.77 6.43 2.31 1.55 1.54 2.33 3.69 2.33 6.44 0 .81-.07 1.8-.21 2.96q-.195 1.74-.6 3.33l-3.29 13.04c-.29 1.14-.48 2.02-.56 2.64-.09.62-.13 1.32-.13 2.11 0 1.05.18 1.78.53 2.19q.525.6 1.5.6 1.17 0 2.64-1.11c.97-.74 2.12-1.87 3.44-3.39l2.92 2.92q-3.975 4.05-7.11 5.76c-2.1 1.13-4.4 1.7-6.91 1.7-2.79 0-4.85-.69-6.21-2.07-1.35-1.38-2.02-3.48-2.02-6.32 0-.89.09-1.98.28-3.26q.285-1.935.81-3.99l1.87-7.06c.43-1.59.81-3.27 1.15-5.04q.51-2.655.51-4.11c0-2.49-.97-3.73-2.92-3.73-1.16 0-2.58.74-4.25 2.23a21.9 21.9 0 0 0-4.16 4.88c-1.09 1.77-1.94 4.11-2.53 7.03l-4.46 20.79h-11.67l5.92-25.77c.29-1.25.5-2.27.6-3.06.11-.8.17-1.5.17-2.09 0-1.41-.25-2.43-.73-3.06-.49-.64-1.26-.95-2.31-.95-1.25 0-2.71.77-4.4 2.31s-3.05 3.16-4.09 4.86-1.88 4.03-2.5 6.97l-4.54 20.79h-11.63l6.53-28.17c.4-1.75.61-3.09.61-4.01 0-.89-.15-1.58-.45-2.06-.3-.49-.81-.73-1.54-.73-.84 0-1.74.37-2.72 1.13-.97.76-2.1 1.88-3.4 3.36l-2.92-2.91c2.7-2.76 5.1-4.69 7.2-5.8a13.9 13.9 0 0 1 6.62-1.66"/><text x="1257.95" y="1212.09" fill-opacity="0" font-family="Arial,Arial_MSFontService,sans-serif" font-size="41.5">𝒎</text><path fill="#d74514" fill-rule="evenodd" d="M1155.75 811.323h16.21l-.44 1.986c-1.03.216-1.77.459-2.21.73q-.675.405-1.2 1.215c-.35.541-.71 1.385-1.09 2.533-.38 1.149-.85 3.02-1.42 5.613l-8.67 39.515h9.97c1.81 0 3.23-.176 4.27-.527s2.03-.993 2.96-1.925 1.84-2.196 2.74-3.79c.89-1.594 1.79-3.579 2.71-5.957h3.93l-4.09 15.927h-34.29l.45-1.986q1.545-.243 2.31-.79c.51-.365.95-.871 1.3-1.52.35-.648.67-1.438.97-2.371.3-.932.74-2.735 1.34-5.41l6.89-31.206c.59-2.702.89-4.877.89-6.525 0-1.27-.32-2.155-.95-2.655-.64-.499-1.65-.79-3.02-.871Z"/><text x="1145.13" y="859.728" fill-opacity="0" font-family="Arial,Arial_MSFontService,sans-serif" font-size="55.32">𝐿</text><path fill="#d74514" fill-rule="evenodd" d="M949.106 693.04q-1.905 8.794-1.905 14.792 0 4.539 1.378 6.667 1.379 2.128 4.458 2.128 4.54 0 8.612-6.1 4.074-6.099 6.91-17.487Zm16.616-27.316q-4.741 0-8.774 5.998t-6.869 17.184h19.412q1.905-8.552 1.905-14.712 0-4.254-1.378-6.362t-4.296-2.108m.487-3.282q11.753 0 11.753 14.914 0 4.214-.953 10.071-.952 5.856-3.019 11.935t-5.228 10.76-7.295 7.234-8.916 2.553q-6.039 0-8.997-3.688-2.959-3.687-2.959-11.064 0-4.012.892-9.888t2.938-12.017 5.269-10.902 7.416-7.335q4.195-2.573 9.099-2.573"/><text x="940.595" y="712.726" fill-opacity="0" font-family="Arial,Arial_MSFontService,sans-serif" font-size="57.468">𝜃</text></g></svg>