<svg xmlns="http://www.w3.org/2000/svg" width="1298" height="1031" overflow="hidden"><defs><clipPath id="a"><path d="M1746 365h1298v1031H1746z"/></clipPath></defs><g clip-path="url(#a)" transform="translate(-1746 -365)"><path d="M1746.5 553.917h1209.26v9.167l-1209.26-.001Zm1204.67-18.333L2997 558.5l-45.83 22.917Z"/><path d="M2398.083 1395.61V452.747h-9.166v942.863Zm18.334-938.28-22.917-45.833-22.916 45.833Z"/><path fill-rule="evenodd" d="M2941.11 478.914c.83 0 1.57.095 2.2.284.64.189 1.2.48 1.69.871q.72.588 1.29 1.52c.38.621.75 1.466 1.1 2.533q.525 1.6.99 3.972c.31 1.58.59 3.222.83 4.924h.41c2.59-3.648 4.56-6.316 5.89-8.004q2.01-2.533 3.39-3.769c.92-.824 1.8-1.405 2.65-1.743q1.275-.507 3.39-.507 1.905 0 3.12.487l-1.62 7.335h-2.84c-.16-1.135-.64-1.702-1.42-1.702-.24 0-.5.04-.77.122q-.405.121-.99.526c-.4.271-.97.797-1.73 1.581q-1.125 1.175-2.55 2.877c-.94 1.135-1.92 2.324-2.92 3.567l-2.75 3.445q.72 3.89 1.38 6.727c.43 1.891.81 3.465 1.15 4.722.34 1.256.64 2.249.89 2.978.26.73.54 1.277.83 1.642.3.364.6.621.91.77.32.148.67.223 1.08.223q1.095 0 2.13-.851t2.97-3.851l2.64 1.743q-2.835 4.215-5.13 5.937c-1.52 1.149-3.34 1.723-5.45 1.723-1.16 0-2.15-.21-2.96-.628q-1.215-.629-2.1-2.006c-.6-.919-1.13-2.351-1.58-4.296-.84-3.459-1.36-6.106-1.54-7.944h-.41c-2.86 4.026-4.99 6.917-6.38 8.673q-2.085 2.634-3.45 3.891c-.9.837-1.78 1.425-2.63 1.763q-1.275.506-3.39.506-1.905 0-3.12-.486l1.62-7.336h2.84c.16 1.135.64 1.703 1.42 1.703q.57 0 1.2-.304c.41-.203 1.02-.689 1.8-1.459q1.17-1.155 3.24-3.628t6-7.416q-.615-3.201-1.26-6.16c-.43-1.972-.88-3.81-1.34-5.512-.45-1.702-.83-2.817-1.13-3.343-.3-.527-.61-.892-.95-1.095s-.77-.304-1.28-.304c-.57 0-1.08.129-1.54.385q-.69.385-1.5 1.338c-.54.635-1.25 1.628-2.15 2.979l-2.63-1.743c1.7-2.567 3.34-4.485 4.9-5.755 1.57-1.27 3.42-1.905 5.56-1.905"/><text x="2926.31" y="513.986" fill-opacity="0" font-family="Arial,Arial_MSFontService,sans-serif" font-size="40.081">𝑥</text><path fill-rule="evenodd" d="M2436.97 467.967c1.11 0 2.05.149 2.84.446q.81.324 1.62 1.074c.54.5 1.02 1.196 1.43 2.087.42.892.79 1.892 1.1 2.999s.65 2.702 1.03 4.783q.975 5.228 1.89 11.003t1.56 10.719q3.93-5.673 6.66-11.104c1.83-3.621 3.14-6.768 3.94-9.443.79-2.675 1.19-4.85 1.19-6.525q0-1.904-.81-2.594-.81-.689-2.76-.81l.41-1.986h10.66l1.09 2.026c-2.05 5.62-4.83 11.632-8.35 18.035-3.45 6.268-7.41 12.509-11.87 18.724-4.27 5.917-7.82 10.199-10.66 12.847-1.97 1.81-3.88 3.107-5.71 3.89-1.46.595-3.02.892-4.66.892a16 16 0 0 1-1.97-.142c-.74-.094-1.32-.223-1.72-.385l1.74-7.862h3.2c0 1.729.6 2.593 1.79 2.593 1.56 0 3.39-.979 5.47-2.938s4.52-4.91 7.33-8.855c-.78-4.728-1.85-10.429-3.2-17.102-1.43-7.133-2.38-11.551-2.84-13.253-.56-2.053-1.16-3.364-1.78-3.931-.38-.351-.85-.527-1.42-.527q-1.29 0-2.43 1.054c-.76.702-1.69 1.918-2.8 3.647l-2.63-1.742c1.86-2.783 3.61-4.749 5.23-5.897q2.43-1.723 5.43-1.723"/><text x="2423.88" y="517.897" fill-opacity="0" font-family="Arial,Arial_MSFontService,sans-serif" font-size="57.063">𝑦</text><path fill="none" stroke="#d74514" stroke-miterlimit="8" stroke-width="9.167" d="m2393.5 556.5 366.92 631.05"/><path fill="#d74514" fill-rule="evenodd" stroke="#d74514" stroke-miterlimit="8" stroke-width="9.167" d="M2681.5 1190c0-43.35 35.37-78.5 79-78.5s79 35.15 79 78.5-35.37 78.5-79 78.5-79-35.15-79-78.5Z"/><path fill="#fff" fill-rule="evenodd" d="M2739.21 1173.13q3.36 0 5.37 1.89c1.33 1.25 2 2.91 2 4.96 0 .68-.08 1.32-.24 1.95l.48.24c2.46-3.11 4.85-5.39 7.16-6.85q3.465-2.19 8.04-2.19c2.7 0 4.83.74 6.39 2.23 1.55 1.49 2.37 3.54 2.45 6.16 2.24-2.86 4.5-4.98 6.79-6.34 2.28-1.37 4.87-2.05 7.76-2.05q4.095 0 6.42 2.31c1.55 1.54 2.33 3.69 2.33 6.44 0 .82-.07 1.8-.2 2.96-.14 1.17-.34 2.27-.61 3.33l-3.28 13.05c-.3 1.13-.49 2.01-.57 2.63s-.12 1.32-.12 2.11c0 1.05.17 1.78.53 2.19.35.4.85.6 1.49.6q1.185 0 2.64-1.11c.97-.74 2.12-1.87 3.44-3.38l2.92 2.91c-2.65 2.71-5.02 4.62-7.11 5.76-2.09 1.13-4.4 1.7-6.91 1.7-2.78 0-4.85-.69-6.2-2.07-1.35-1.37-2.03-3.48-2.03-6.32 0-.89.1-1.98.29-3.26.18-1.28.46-2.61.81-3.99l1.86-7.05c.43-1.6.82-3.28 1.16-5.05.33-1.77.5-3.14.5-4.11 0-2.49-.97-3.73-2.92-3.73-1.16 0-2.58.74-4.25 2.23a21.9 21.9 0 0 0-4.16 4.88c-1.09 1.77-1.93 4.11-2.53 7.03l-4.46 20.79h-11.67l5.92-25.77c.3-1.25.5-2.27.61-3.06.11-.8.16-1.5.16-2.09 0-1.4-.24-2.42-.73-3.06-.49-.63-1.26-.95-2.31-.95-1.24 0-2.71.77-4.4 2.31s-3.05 3.16-4.09 4.86-1.87 4.03-2.49 6.97l-4.54 20.79h-11.63l6.52-28.16c.41-1.76.61-3.1.61-4.02 0-.89-.15-1.58-.45-2.06-.29-.49-.81-.73-1.54-.73-.83 0-1.74.38-2.71 1.13-.97.76-2.11 1.88-3.41 3.37l-2.91-2.92c2.7-2.76 5.1-4.69 7.19-5.8a13.9 13.9 0 0 1 6.63-1.66"/><text x="2725.39" y="1209.44" fill-opacity="0" font-family="Arial,Arial_MSFontService,sans-serif" font-size="41.5">𝒎</text><path fill="#d74514" fill-rule="evenodd" d="M2532.44 884.152h16.21l-.44 1.986c-1.03.216-1.77.459-2.21.729q-.675.406-1.2 1.216c-.35.54-.71 1.385-1.09 2.533s-.85 3.019-1.42 5.613l-8.67 39.514h9.97c1.81 0 3.23-.176 4.27-.527s2.03-.993 2.96-1.925 1.84-2.195 2.74-3.789c.89-1.594 1.79-3.58 2.71-5.958h3.93l-4.09 15.928h-34.29l.45-1.986q1.545-.243 2.31-.791c.51-.364.94-.871 1.3-1.519.35-.649.67-1.439.97-2.371s.74-2.736 1.34-5.411l6.89-31.206c.59-2.701.89-4.876.89-6.525q0-1.904-.96-2.654c-.63-.5-1.64-.79-3.01-.871Z"/><text x="2521.82" y="932.557" fill-opacity="0" font-family="Arial,Arial_MSFontService,sans-serif" font-size="55.32">𝐿</text><path fill="#d74514" fill-rule="evenodd" d="M2416.54 690.391c-1.27 5.863-1.9 10.794-1.9 14.793 0 3.026.45 5.248 1.37 6.666s2.41 2.128 4.46 2.128q4.545 0 8.61-6.099c2.72-4.067 5.02-9.896 6.91-17.488Zm16.62-27.315c-3.16 0-6.09 1.999-8.78 5.998q-4.035 5.997-6.87 17.183h19.42c1.27-5.701 1.9-10.604 1.9-14.711q0-4.255-1.38-6.363-1.38-2.107-4.29-2.107m.48-3.283q11.76 0 11.76 14.914 0 4.215-.96 10.071c-.63 3.904-1.64 7.883-3.02 11.935-1.37 4.053-3.12 7.64-5.22 10.76-2.11 3.121-4.54 5.532-7.3 7.234-2.75 1.703-5.73 2.554-8.92 2.554-4.02 0-7.02-1.23-8.99-3.688s-2.96-6.147-2.96-11.064c0-2.675.3-5.971.89-9.889.6-3.918 1.57-7.923 2.94-12.016 1.36-4.094 3.12-7.728 5.27-10.902q3.225-4.762 7.41-7.336c2.8-1.715 5.83-2.573 9.1-2.573"/><text x="2408.03" y="710.077" fill-opacity="0" font-family="Arial,Arial_MSFontService,sans-serif" font-size="57.468">𝜃</text><path d="m2449.71 561.471 14.19 23.557-7.86 4.729-14.18-23.557Zm18.92 31.409 14.19 23.557-7.86 4.73-14.19-23.557Zm18.91 31.41 14.19 23.557-7.85 4.729-14.19-23.557Zm18.92 31.409 14.19 23.557-7.85 4.73-14.19-23.557Zm18.92 31.41 14.19 23.557-7.85 4.729-14.19-23.557Zm18.92 31.409 14.19 23.557-7.86 4.73-14.18-23.557Zm18.92 31.409 14.18 23.558-7.85 4.729-14.19-23.557Zm18.91 31.41 14.19 23.557-7.85 4.73-14.19-23.557Zm18.92 31.409 14.19 23.558-7.85 4.729-14.19-23.557Zm18.92 31.41 14.19 23.557-7.85 4.73-14.19-23.558Zm18.92 31.409 14.19 23.558-7.86 4.729-14.18-23.557Zm-210.37-295.98-4.02-51.085 43.28 27.438Zm238.7 307.489 4.02 51.085-43.28-27.438Zm28.27 84.296 13.32 24.059-8.02 4.44-13.32-24.06Zm17.76 32.08 13.31 24.06-8.02 4.44-13.31-24.06Zm17.75 32.08 13.32 24.06-8.02 4.44-13.32-24.06Zm-57.35-46.832-2.15-51.198 42.25 29.001Zm84.61 58.222 2.15 51.2-42.25-29Z"/><path fill-rule="evenodd" d="M2594.85 692.223h16.21l-.44 1.986c-1.03.216-1.76.46-2.21.73s-.84.675-1.2 1.216c-.35.54-.71 1.384-1.09 2.533-.38 1.148-.85 3.019-1.42 5.613l-8.67 39.514h9.97c1.81 0 3.23-.176 4.27-.527s2.03-.993 2.96-1.925c.94-.932 1.85-2.195 2.74-3.789s1.8-3.58 2.71-5.958h3.94l-4.1 15.927h-34.28l.44-1.986q1.545-.243 2.31-.79c.52-.365.95-.871 1.3-1.52.35-.648.67-1.438.97-2.37s.74-2.736 1.34-5.411l6.89-31.206c.59-2.702.89-4.877.89-6.525 0-1.27-.32-2.155-.95-2.654-.64-.5-1.64-.791-3.02-.872Z"/><text x="2584.24" y="740.628" fill-opacity="0" font-family="Arial,Arial_MSFontService,sans-serif" font-size="55.32">𝐿</text><path fill-rule="evenodd" d="M2643.7 728.704q-2.085 0-3.48 1.088c-.94.724-1.67 1.787-2.22 3.187s-.93 3.107-1.16 5.123-.35 4.304-.35 6.865c0 2.959.15 5.515.44 7.67.28 2.154.73 3.926 1.34 5.316q.9 2.085 2.28 3.068 1.365.984 3.27.983c1.19 0 2.24-.308 3.13-.923q1.335-.924 2.22-2.874c.58-1.301 1.03-2.949 1.32-4.945q.45-2.993.45-7.074c0-3.058-.16-5.689-.49-7.893s-.79-4.016-1.39-5.436c-.59-1.419-1.34-2.467-2.24-3.142q-1.365-1.013-3.12-1.013m.12-2.889q3.555 0 6.06 1.326 2.52 1.325 4.11 3.782 1.605 2.458 2.34 6.002.75 3.545.75 8.012c0 6.613-1.18 11.612-3.52 14.997-2.34 3.386-5.74 5.079-10.18 5.079-4.41 0-7.69-1.599-9.83-4.796-2.15-3.197-3.22-8.042-3.22-14.535 0-3.396.33-6.334 1-8.816.66-2.483 1.6-4.543 2.8-6.181s2.62-2.859 4.27-3.663c1.65-.805 3.46-1.207 5.42-1.207"/><text x="2630.33" y="760.113" fill-opacity="0" font-family="Arial,Arial_MSFontService,sans-serif" font-size="39.197">0</text><path fill-rule="evenodd" d="M2759.83 946.745h16.21l-.45 1.986c-1.02.216-1.76.459-2.21.73-.44.27-.84.675-1.19 1.215-.35.541-.72 1.385-1.1 2.533-.37 1.149-.85 3.02-1.41 5.613l-8.68 39.515h9.97c1.81 0 3.24-.176 4.28-.527s2.02-.993 2.96-1.925q1.395-1.399 2.73-3.79c.89-1.594 1.8-3.579 2.72-5.957h3.93l-4.1 15.932h-34.28l.44-1.99q1.545-.244 2.31-.791c.52-.365.95-.871 1.3-1.52.35-.648.68-1.438.97-2.371.3-.932.75-2.735 1.34-5.41l6.89-31.206c.6-2.702.89-4.877.89-6.525 0-1.27-.31-2.155-.95-2.655-.63-.499-1.64-.79-3.02-.871Z"/><text x="2749.21" y="995.15" fill-opacity="0" font-family="Arial,Arial_MSFontService,sans-serif" font-size="55.32">𝐿</text><path fill-rule="evenodd" d="M2796.43 940.289h7.68v2.323l-9.92 23.858-3.48-1.043Z"/><text x="2790.71" y="963.197" fill-opacity="0" font-family="Arial,Arial_MSFontService,sans-serif" font-size="26.181">′</text></g></svg>