<svg width="4701" height="3534" xmlns="http://www.w3.org/2000/svg" xmlns:xlink="http://www.w3.org/1999/xlink" overflow="hidden"><defs><clipPath id="clip0"><rect x="119" y="-8" width="4701" height="3534"/></clipPath><clipPath id="clip1"><rect x="762" y="1349" width="619" height="619"/></clipPath><clipPath id="clip2"><rect x="762" y="1349" width="619" height="619"/></clipPath><clipPath id="clip3"><rect x="762" y="1349" width="619" height="619"/></clipPath><clipPath id="clip4"><rect x="1331" y="2665" width="908" height="160"/></clipPath><clipPath id="clip5"><rect x="1331" y="2665" width="908" height="160"/></clipPath><clipPath id="clip6"><rect x="1331" y="2665" width="908" height="160"/></clipPath></defs><g clip-path="url(#clip0)" transform="translate(-119 8)"><path d="M266 344.6C266 222.766 364.766 124 486.599 124L4402.4 124C4524.23 124 4623 222.766 4623 344.6L4623 3025.4C4623 3147.23 4524.23 3246 4402.4 3246L486.599 3246C364.766 3246 266 3147.23 266 3025.4Z" fill="#D74514" fill-rule="evenodd"/><rect x="683" y="570" width="489" height="720" fill="#D9D9D9"/><text font-family="Microsoft YaHei,Microsoft YaHei_MSFontService,sans-serif" font-weight="700" font-size="83" transform="matrix(-1.83697e-16 -1 1 -1.83697e-16 907.773 1138)">Wi<tspan font-size="83" x="113" y="2.07578e-14">-</tspan><tspan font-size="83" x="150" y="2.75546e-14">Fi / BT</tspan><tspan font-weight="400" font-size="83" x="4" y="99">Dual</tspan><tspan font-weight="400" font-size="83" x="210" y="99">ban</tspan><tspan font-weight="400" font-size="83" x="359" y="99">d</tspan></text><path d="M2285 1955 1480.35 1955 1380 1854.65 1380 1122 2285 1122Z" fill="#D9D9D9" fill-rule="evenodd"/><rect x="1453" y="1193" width="752" height="671" fill="#F2F2F2"/><text font-family="Microsoft YaHei,Microsoft YaHei_MSFontService,sans-serif" font-weight="700" font-size="83" transform="matrix(1 0 0 1 1607.2 1360)">CPU / GPU<tspan font-size="83" x="9.16663" y="99">Broadcom</tspan><tspan font-size="83" x="21.7709" y="198">BCM2711</tspan><tspan font-weight="400" font-size="83" x="-105.417" y="396">ARM</tspan><tspan font-weight="400" font-size="83" x="111.719" y="396">Cortex</tspan><tspan font-weight="400" font-size="83" x="395.313" y="396">A7</tspan><tspan font-weight="400" font-size="83" x="501.302" y="396">2</tspan></text><rect x="2381" y="1118" width="567" height="834" fill="#7F7F7F"/><text font-family="Microsoft YaHei,Microsoft YaHei_MSFontService,sans-serif" font-weight="700" font-size="83" transform="matrix(1 0 0 1 2529.27 1317)">DRAM<tspan font-weight="400" font-size="83" x="12.0313" y="198">1 GB /</tspan><tspan font-weight="400" font-size="83" x="12.0313" y="297">2 GB /</tspan><tspan font-weight="400" font-size="83" x="12.0313" y="396">4</tspan><tspan font-weight="400" font-size="83" x="84.7915" y="396">GB</tspan><tspan font-weight="400" font-size="83" x="222.292" y="396">/</tspan><tspan font-weight="400" font-size="83" x="17.4854" y="496">8 GB  </tspan><tspan font-family="MS Gothic,MS Gothic_MSFontService,sans-serif" font-weight="400" font-size="83" x="252.381" y="496">​</tspan></text><g clip-path="url(#clip1)"><g clip-path="url(#clip2)"><g clip-path="url(#clip3)"><path d="M1233.71 1636.31 1230.14 1630.03C1230.23 1585.23 1209.47 1566.98 1185.23 1553.07 1192.57 1551.14 1200.1 1549.59 1202.23 1540.32 1214.88 1537.14 1217.49 1531.25 1218.74 1525.07 1222.02 1522.85 1233.03 1516.67 1231.87 1506.04 1238.05 1501.8 1241.53 1496.29 1239.69 1488.57 1246.36 1481.32 1248.1 1475.34 1245.3 1469.83 1253.31 1459.89 1249.74 1454.77 1246.36 1449.65 1252.34 1438.84 1247.03 1427.25 1230.33 1429.18 1223.67 1419.43 1209.18 1421.65 1206.96 1421.65 1204.45 1418.56 1201.17 1415.86 1191.03 1417.11 1184.46 1411.22 1177.12 1412.28 1169.49 1415.08 1160.51 1408.03 1154.53 1413.73 1147.67 1415.86 1136.76 1412.38 1134.25 1417.11 1128.94 1419.14 1117.06 1416.63 1113.39 1422.04 1107.69 1427.73L1101.03 1427.64C1083.07 1438.06 1074.19 1459.31 1071 1470.22 1067.81 1459.31 1058.93 1438.06 1040.97 1427.64L1034.31 1427.73C1028.61 1422.04 1024.94 1416.63 1013.06 1419.14 1007.66 1417.21 1005.24 1412.38 994.33 1415.86 989.888 1414.5 985.735 1411.61 980.907 1411.7 978.397 1411.8 975.596 1412.67 972.506 1415.08 964.878 1412.19 957.539 1411.22 950.973 1417.11 940.834 1415.86 937.454 1418.46 935.04 1421.65 932.819 1421.65 918.335 1419.43 911.672 1429.18 894.967 1427.25 889.752 1438.84 895.739 1449.65 892.359 1454.87 888.787 1459.98 896.801 1469.83 894.001 1475.34 895.739 1481.32 902.402 1488.57 900.664 1496.29 904.14 1501.8 910.224 1506.04 909.065 1516.67 920.073 1522.85 923.356 1525.07 924.611 1531.25 927.219 1537.04 939.868 1540.32 941.993 1549.5 949.525 1551.14 956.863 1553.07 932.626 1566.98 911.865 1585.23 911.962 1630.03L908.389 1636.31C880.579 1652.92 855.569 1706.51 894.677 1749.96 897.188 1763.58 901.533 1773.33 905.299 1784.14 910.996 1827.79 948.269 1848.17 958.022 1850.58 972.41 1861.39 987.763 1871.63 1008.43 1878.78 1028.03 1898.67 1049.27 1906.2 1070.52 1906.2L1071.48 1906.2C1092.82 1906.2 1113.97 1898.67 1133.48 1878.78 1154.24 1871.63 1169.49 1861.39 1183.88 1850.58 1193.73 1848.17 1230.91 1827.79 1236.6 1784.14 1240.37 1773.33 1244.72 1763.58 1247.23 1749.96 1286.43 1706.41 1261.42 1652.92 1233.71 1636.31ZM1212.27 1628.58C1210.82 1646.64 1116.77 1565.72 1132.99 1563.02 1177.12 1555.77 1213.72 1581.56 1212.27 1628.58ZM1170.75 1718.48C1147.09 1733.74 1113 1723.89 1094.66 1696.47 1076.31 1669.04 1080.56 1634.47 1104.22 1619.22 1127.88 1603.96 1161.96 1613.81 1180.31 1641.23 1198.66 1668.66 1194.41 1703.23 1170.75 1718.48ZM1105.18 1440.09C1105.96 1444.15 1106.92 1446.66 1107.98 1447.43 1113.2 1441.83 1117.45 1436.13 1124.21 1430.73 1124.21 1433.91 1122.56 1437.29 1126.62 1439.8 1130.19 1434.97 1135.12 1430.63 1141.59 1426.96 1138.5 1432.37 1141.01 1434.01 1142.75 1436.23 1147.67 1431.98 1152.4 1427.73 1161.48 1424.35 1158.97 1427.35 1155.49 1430.34 1159.16 1433.82 1164.28 1430.63 1169.4 1427.44 1181.47 1425.22 1178.76 1428.22 1173.07 1431.31 1176.54 1434.3 1182.92 1431.88 1190.06 1430.05 1197.88 1429.08 1194.12 1432.17 1191.03 1435.17 1194.12 1437.58 1200.97 1435.46 1210.44 1432.66 1219.61 1435.07L1213.82 1440.96C1213.14 1441.73 1227.43 1441.54 1236.89 1441.73 1233.42 1446.56 1229.94 1451.1 1227.91 1459.31 1228.88 1460.27 1233.51 1459.69 1237.96 1459.31 1233.42 1468.87 1225.6 1471.19 1223.76 1475.34 1226.56 1477.46 1230.33 1476.88 1234.58 1475.43 1231.29 1482.1 1224.53 1486.73 1219.13 1492.14 1220.48 1493.11 1222.89 1493.68 1228.49 1493.01 1223.47 1498.32 1217.49 1503.15 1210.34 1507.49 1211.6 1508.94 1215.94 1508.94 1220 1509.04 1213.53 1515.31 1205.22 1518.6 1197.4 1522.75 1201.26 1525.36 1204.06 1524.78 1207.06 1524.78 1201.55 1529.32 1192.19 1531.63 1183.5 1534.43 1185.14 1537.04 1186.78 1537.72 1190.35 1538.39 1181.18 1543.51 1167.95 1541.19 1164.28 1543.8 1165.15 1546.41 1167.76 1548.05 1170.75 1549.4 1155.88 1550.27 1115.42 1548.82 1107.6 1518.21 1122.76 1501.51 1150.47 1482 1198.08 1457.76 1161 1470.12 1127.59 1486.73 1099.58 1509.42 1066.46 1494.07 1089.15 1455.45 1105.18 1440.09ZM1071.97 1550.75C1095.33 1550.46 1124.21 1567.94 1124.11 1584.26 1124.01 1598.74 1103.83 1610.43 1072.16 1610.24 1041.16 1609.85 1020.3 1595.56 1020.4 1581.46 1020.4 1569.97 1045.7 1550.08 1071.97 1550.75ZM953.194 1538.39C956.767 1537.72 958.408 1536.94 960.05 1534.43 951.359 1531.73 941.993 1529.32 936.489 1524.78 939.482 1524.78 942.282 1525.45 946.145 1522.75 938.323 1518.6 930.019 1515.31 923.549 1509.04 927.605 1508.94 931.95 1509.04 933.205 1507.49 926.06 1503.15 920.073 1498.32 915.052 1493.01 920.652 1493.68 923.066 1493.11 924.418 1492.14 919.011 1486.73 912.155 1482.1 908.968 1475.43 913.12 1476.88 916.983 1477.37 919.783 1475.34 917.949 1471.28 910.127 1468.87 905.589 1459.31 910.03 1459.69 914.665 1460.27 915.631 1459.31 913.603 1451.1 910.03 1446.47 906.651 1441.73 916.114 1441.64 930.405 1441.73 929.729 1440.96L923.935 1435.07C933.109 1432.66 942.572 1435.46 949.428 1437.58 952.518 1435.17 949.331 1432.17 945.662 1429.08 953.484 1430.15 960.533 1431.88 967.002 1434.3 970.382 1431.31 964.781 1428.22 962.078 1425.22 974.148 1427.44 979.266 1430.63 984.384 1433.82 988.053 1430.34 984.577 1427.35 982.066 1424.35 991.143 1427.64 995.875 1431.98 1000.8 1436.23 1002.44 1434.01 1005.05 1432.37 1001.96 1426.96 1008.43 1430.63 1013.35 1434.97 1016.93 1439.8 1020.88 1437.29 1019.34 1433.82 1019.34 1430.73 1026.1 1436.13 1030.35 1441.83 1035.56 1447.43 1036.62 1446.66 1037.49 1444.15 1038.36 1440.09 1054.39 1455.45 1077.08 1494.07 1044.16 1509.42 1016.15 1486.73 982.742 1470.12 945.662 1457.76 993.267 1481.9 1020.98 1501.51 1036.14 1518.21 1028.42 1548.92 987.86 1550.27 972.989 1549.4 975.983 1548.05 978.59 1546.31 979.459 1543.8 975.596 1541.1 962.464 1543.41 953.194 1538.39ZM1011.23 1561.66C1027.45 1564.37 933.399 1645.19 931.95 1627.23 930.502 1580.2 967.195 1554.33 1011.23 1561.66ZM911.382 1742.04C888.497 1723.89 881.158 1670.88 923.549 1647.12 949.138 1640.36 932.24 1751.22 911.382 1742.04ZM999.254 1836.87C986.411 1844.5 955.029 1841.41 932.819 1809.93 917.852 1783.47 919.783 1756.62 930.309 1748.71 946.048 1739.24 970.382 1751.99 989.115 1773.43 1005.43 1792.74 1012.87 1826.83 999.254 1836.87ZM973.762 1721.28C950.104 1706.03 945.855 1671.46 964.202 1644.03 982.549 1616.61 1016.64 1606.76 1040.29 1622.02 1063.95 1637.27 1068.2 1671.84 1049.85 1699.27 1031.41 1726.69 997.323 1736.54 973.762 1721.28ZM1072.45 1890.75C1044.06 1891.91 1016.25 1867.86 1016.64 1859.56 1016.25 1847.3 1051.2 1837.74 1073.9 1838.32 1096.78 1837.35 1127.59 1845.56 1127.68 1856.57 1128.17 1867.19 1099.87 1891.23 1072.45 1890.75ZM1129.32 1770.14C1129.52 1798.82 1104.02 1822.09 1072.55 1822.29 1041.07 1822.48 1015.38 1799.31 1015.19 1770.72L1015.19 1770.14C1014.99 1741.46 1040.49 1718.19 1071.97 1718 1103.45 1717.81 1129.13 1740.98 1129.32 1769.56L1129.32 1770.14ZM1208.7 1811.38C1184.27 1844.79 1151.15 1846.04 1138.88 1836.77 1126.04 1824.8 1135.79 1787.62 1153.46 1767.25 1173.65 1744.75 1195.28 1730.07 1210.34 1741.56 1220.48 1751.51 1226.47 1788.97 1208.7 1811.38ZM1230.81 1740.69C1210.05 1749.77 1193.15 1639.01 1218.64 1645.77 1261.04 1669.62 1253.7 1722.63 1230.81 1740.69Z" fill="#FFFFFF"/></g></g></g><rect x="3110" y="930" width="489" height="458" fill="#7F7F7F"/><text font-family="Microsoft YaHei,Microsoft YaHei_MSFontService,sans-serif" font-weight="700" font-size="83" transform="matrix(1 0 0 1 3143.19 1090)">Gigabit<tspan font-size="83" x="0" y="99">Ethernet</tspan><tspan font-size="83" x="0" y="198">Controller</tspan></text><rect x="3110" y="1594" width="489" height="458" fill="#7F7F7F"/><text font-family="Microsoft YaHei,Microsoft YaHei_MSFontService,sans-serif" font-weight="700" font-size="83" transform="matrix(1 0 0 1 3143.19 1754)">2<tspan font-size="83" x="50.9895" y="0">×</tspan><tspan font-size="83" x="114.01" y="0">USB3 +</tspan><tspan font-size="83" x="0" y="99">2</tspan><tspan font-size="83" x="50.9895" y="99">×</tspan><tspan font-size="83" x="114.01" y="99">USB2</tspan><tspan font-size="83" x="0" y="198">controlle</tspan><tspan font-size="83" x="371.25" y="198">r</tspan></text><rect x="3744" y="1243" width="333" height="567" fill="#7F7F7F"/><text font-family="Microsoft YaHei,Microsoft YaHei_MSFontService,sans-serif" font-weight="700" font-size="83" transform="matrix(-1.83697e-16 -1 1 -1.83697e-16 3840.6 1611)">USB<tspan font-size="83" x="-153" y="99">Decoupling </tspan><tspan font-size="83" x="12" y="198">ca</tspan><tspan font-size="83" x="102" y="198">p</tspan></text><rect x="3882" y="354" width="938" height="752" fill="#A6A6A6"/><text font-family="Microsoft YaHei,Microsoft YaHei_MSFontService,sans-serif" font-weight="700" font-size="83" transform="matrix(1 0 0 1 3915.21 710)">1Gb Ethernet<tspan font-weight="400" font-size="83" x="0" y="99">RJ45</tspan></text><rect x="4173" y="1377" width="646" height="655" fill="#A6A6A6"/><text font-family="Microsoft YaHei,Microsoft YaHei_MSFontService,sans-serif" font-weight="700" font-size="83" transform="matrix(1 0 0 1 4205.62 1734)">2<tspan font-size="83" x="50.9898" y="0">×</tspan><tspan font-size="83" x="114.011" y="0">USB3.0</tspan></text><rect x="4173" y="2359" width="647" height="655" fill="#A6A6A6"/><text font-family="Microsoft YaHei,Microsoft YaHei_MSFontService,sans-serif" font-weight="700" font-size="83" transform="matrix(1 0 0 1 4205.62 2716)">2<tspan font-size="83" x="50.9898" y="0">×</tspan><tspan font-size="83" x="114.011" y="0">USB2.0</tspan><tspan fill="#FFFFFF" font-weight="400" font-size="83" x="-2467.08" y="-2048">Raspberry Pi 4 Model B</tspan><tspan fill="#FFFFFF" font-weight="400" font-size="83" x="-2414.94" y="-1949">(c) Raspberry Pi 2018</tspan></text><rect x="683" y="198" width="1725" height="281" fill="#404040"/><rect x="726" y="240" width="74.9999" height="76" fill="#F8CCB9"/><rect x="740" y="255" width="46.9998" height="46.0001" fill="#F0835C"/><rect x="857" y="240" width="74.9999" height="76" fill="#F8CCB9"/><rect x="871" y="255" width="47.0001" height="46.0001" fill="#F0835C"/><rect x="987" y="240" width="74.9999" height="76" fill="#F8CCB9"/><rect x="1001" y="255" width="47.0001" height="46.0001" fill="#F0835C"/><rect x="1118" y="240" width="75.0002" height="76" fill="#F8CCB9"/><rect x="1132" y="255" width="47.0001" height="46.0001" fill="#F0835C"/><rect x="1248" y="240" width="76" height="76" fill="#F8CCB9"/><rect x="1263" y="255" width="46.0001" height="46.0001" fill="#F0835C"/><rect x="1379" y="240" width="74.9999" height="76" fill="#F8CCB9"/><rect x="1393" y="255" width="47.0001" height="46.0001" fill="#F0835C"/><rect x="1509" y="240" width="76" height="76" fill="#F8CCB9"/><rect x="1524" y="255" width="46.0001" height="46.0001" fill="#F0835C"/><rect x="1640" y="240" width="74.9999" height="76" fill="#F8CCB9"/><rect x="1654" y="255" width="46.9998" height="46.0001" fill="#F0835C"/><rect x="1770" y="240" width="76" height="76" fill="#F8CCB9"/><rect x="1785" y="255" width="46.0001" height="46.0001" fill="#F0835C"/><rect x="1901" y="240" width="74.9999" height="76" fill="#F8CCB9"/><rect x="1915" y="255" width="47.0001" height="46.0001" fill="#F0835C"/><rect x="2032" y="240" width="74.9999" height="76" fill="#F8CCB9"/><rect x="2046" y="255" width="47" height="46.0001" fill="#F0835C"/><rect x="2162" y="240" width="75.0002" height="76" fill="#F8CCB9"/><rect x="2176" y="255" width="47" height="46.0001" fill="#F0835C"/><rect x="2293" y="240" width="75" height="76" fill="#F8CCB9"/><rect x="2307" y="255" width="47" height="46.0001" fill="#F0835C"/><rect x="726" y="357" width="74.9999" height="74.9999" fill="#F8CCB9"/><rect x="740" y="371" width="46.9998" height="47.0001" fill="#F0835C"/><rect x="857" y="357" width="74.9999" height="74.9999" fill="#F8CCB9"/><rect x="871" y="371" width="47.0001" height="47.0001" fill="#F0835C"/><rect x="987" y="357" width="74.9999" height="74.9999" fill="#F8CCB9"/><rect x="1001" y="371" width="47.0001" height="47.0001" fill="#F0835C"/><rect x="1118" y="357" width="75.0002" height="74.9999" fill="#F8CCB9"/><rect x="1132" y="371" width="47.0001" height="47.0001" fill="#F0835C"/><rect x="1248" y="357" width="76" height="74.9999" fill="#F8CCB9"/><rect x="1263" y="371" width="46.0001" height="47.0001" fill="#F0835C"/><rect x="1379" y="357" width="74.9999" height="74.9999" fill="#F8CCB9"/><rect x="1393" y="371" width="47.0001" height="47.0001" fill="#F0835C"/><rect x="1509" y="357" width="76" height="74.9999" fill="#F8CCB9"/><rect x="1524" y="371" width="46.0001" height="47.0001" fill="#F0835C"/><rect x="1640" y="357" width="74.9999" height="74.9999" fill="#F8CCB9"/><rect x="1654" y="371" width="46.9998" height="47.0001" fill="#F0835C"/><rect x="1770" y="357" width="76" height="74.9999" fill="#F8CCB9"/><rect x="1785" y="371" width="46.0001" height="47.0001" fill="#F0835C"/><rect x="1901" y="357" width="74.9999" height="74.9999" fill="#F8CCB9"/><rect x="1915" y="371" width="47.0001" height="47.0001" fill="#F0835C"/><rect x="2032" y="357" width="74.9999" height="74.9999" fill="#F8CCB9"/><rect x="2046" y="371" width="47" height="47.0001" fill="#F0835C"/><rect x="2162" y="357" width="75.0002" height="74.9999" fill="#F8CCB9"/><rect x="2176" y="371" width="47" height="47.0001" fill="#F0835C"/><rect x="2293" y="357" width="75" height="74.9999" fill="#F8CCB9"/><rect x="2307" y="371" width="47" height="47.0001" fill="#F0835C"/><rect x="2409" y="198" width="941" height="281" fill="#404040"/><rect x="2452" y="240" width="76" height="76" fill="#F8CCB9"/><rect x="2467" y="255" width="46" height="46.0001" fill="#F0835C"/><rect x="2583" y="240" width="75" height="76" fill="#F8CCB9"/><rect x="2597" y="255" width="47" height="46.0001" fill="#F0835C"/><rect x="2713" y="240" width="76" height="76" fill="#F8CCB9"/><rect x="2728" y="255" width="46" height="46.0001" fill="#F0835C"/><rect x="2844" y="240" width="75.0002" height="76" fill="#F8CCB9"/><rect x="2858" y="255" width="47" height="46.0001" fill="#F0835C"/><rect x="2974" y="240" width="76" height="76" fill="#F8CCB9"/><rect x="2989" y="255" width="46" height="46.0001" fill="#F0835C"/><rect x="3105" y="240" width="75" height="76" fill="#F8CCB9"/><rect x="3119" y="255" width="47" height="46.0001" fill="#F0835C"/><rect x="3236" y="240" width="75" height="76" fill="#F8CCB9"/><rect x="3250" y="255" width="46.9998" height="46.0001" fill="#F0835C"/><rect x="2452" y="357" width="76" height="74.9999" fill="#F8CCB9"/><rect x="2467" y="371" width="46" height="47.0001" fill="#F0835C"/><rect x="2583" y="357" width="75" height="74.9999" fill="#F8CCB9"/><rect x="2597" y="371" width="47" height="47.0001" fill="#F0835C"/><rect x="2713" y="357" width="76" height="74.9999" fill="#F8CCB9"/><rect x="2728" y="371" width="46" height="47.0001" fill="#F0835C"/><rect x="2844" y="357" width="75.0002" height="74.9999" fill="#F8CCB9"/><rect x="2858" y="371" width="47" height="47.0001" fill="#F0835C"/><rect x="2974" y="357" width="76" height="74.9999" fill="#F8CCB9"/><rect x="2989" y="371" width="46" height="47.0001" fill="#F0835C"/><rect x="3105" y="357" width="75" height="74.9999" fill="#F8CCB9"/><rect x="3119" y="371" width="47" height="47.0001" fill="#F0835C"/><rect x="3236" y="357" width="75" height="74.9999" fill="#F8CCB9"/><rect x="3250" y="371" width="46.9998" height="47.0001" fill="#F0835C"/><path d="M337 337.5C337 259.904 400.128 197 478 197 555.872 197 619 259.904 619 337.5 619 415.096 555.872 478 478 478 400.128 478 337 415.096 337 337.5Z" fill="#F8CCB9" fill-rule="evenodd"/><path d="M420 337.5C420 306.296 445.296 281 476.5 281 507.704 281 533 306.296 533 337.5 533 368.704 507.704 394 476.5 394 445.296 394 420 368.704 420 337.5Z" fill="#FFFFFF" fill-rule="evenodd"/><path d="M3442 337.5C3442 259.904 3505.13 197 3583 197 3660.87 197 3724 259.904 3724 337.5 3724 415.096 3660.87 478 3583 478 3505.13 478 3442 415.096 3442 337.5Z" fill="#F8CCB9" fill-rule="evenodd"/><path d="M3525 337.5C3525 306.296 3550.3 281 3581.5 281 3612.7 281 3638 306.296 3638 337.5 3638 368.704 3612.7 394 3581.5 394 3550.3 394 3525 368.704 3525 337.5Z" fill="#FFFFFF" fill-rule="evenodd"/><rect x="3465" y="730" width="279" height="164" fill="#404040"/><rect x="3508" y="773" width="75" height="74.9999" fill="#F8CCB9"/><rect x="3522" y="787" width="47" height="47.0001" fill="#F0835C"/><rect x="3638" y="773" width="75" height="74.9999" fill="#F8CCB9"/><rect x="3652" y="787" width="47" height="47.0001" fill="#F0835C"/><rect x="3465" y="545" width="279" height="164" fill="#404040"/><rect x="3508" y="588" width="75" height="74.9999" fill="#F8CCB9"/><rect x="3522" y="602" width="47" height="47.0001" fill="#F0835C"/><rect x="3638" y="588" width="75" height="74.9999" fill="#F8CCB9"/><rect x="3652" y="602" width="47" height="47.0001" fill="#F0835C"/><rect x="2618" y="2039" width="167" height="1252" fill="#404040"/><rect x="2625" y="2250" width="73.0002" height="857" fill="#595959"/><text fill="#FFFFFF" font-family="Lucida Console,Lucida Console_MSFontService,sans-serif" font-weight="400" font-stretch="semi-condensed" font-size="147" transform="matrix(-1.83697e-16 -1 1 -1.83697e-16 2578.51 2829)">Camera<tspan fill="#000000" font-size="147" x="529" y="9.71757e-14">CSI</tspan></text><rect x="398" y="1107" width="168" height="1252" fill="#404040"/><rect x="482" y="1290" width="73.0002" height="857" fill="#595959"/><text fill="#FFFFFF" font-family="Lucida Console,Lucida Console_MSFontService,sans-serif" font-weight="400" font-stretch="semi-condensed" font-size="147" transform="matrix(-1.83697e-16 -1 1 -1.83697e-16 716.215 2218)">Display<tspan fill="#000000" font-size="147" x="617" y="1.13341e-13">DSI</tspan></text><g clip-path="url(#clip4)"><g clip-path="url(#clip5)"><g clip-path="url(#clip6)"><path d="M843.934 0.00114812 906.411 0.00114812 906.411 159.76 843.934 159.76 843.934 0.00114812Z" fill="#FFFFFF" transform="matrix(1.00065 0 0 1 1331 2665.09)"/><path d="M521.89 0 521.89 159.826 582.447 159.826 582.447 39.8553 640.041 39.8553 640.041 159.826 700.263 159.826 700.263 39.8553 757.892 39.8553 757.892 159.826 818.347 159.826 818.382 42.0105C818.382 30.3638 814.274 20.4325 806.128 12.2543 797.947 4.10788 788.119 0.00290856 776.64 0.00290856L521.89 0ZM261.417 0 261.148 39.754 436.156 39.754 436.156 120.003 321.908 120.003 321.639 65.2346 261.148 65.2346 261.417 159.757 454.636 159.757C466.15 159.757 476.012 155.652 484.259 147.505 492.507 139.327 496.647 129.431 496.647 117.749L496.65 42.0105C496.65 30.3291 492.507 20.4325 484.262 12.2543 476.015 4.10788 466.153 0.00290856 454.639 0.00290856L261.417 0Z" fill="#FFFFFF" transform="matrix(1.00065 0 0 1 1331 2665.09)"/><path d="M234.993 0.00114812 234.993 159.76 171.507 159.76 171.507 102.501 62.5099 102.501 62.5099 159.76 0 159.76 0 0.00114812 62.5099 0.00114812 62.5099 65.2377 171.507 65.2377 171.507 0.00114812 234.993 0.00114812Z" fill="#FFFFFF" transform="matrix(1.00065 0 0 1 1331 2665.09)"/></g></g></g><rect x="1962" y="2906" width="409" height="431" fill="#A6A6A6"/><text font-family="Microsoft YaHei,Microsoft YaHei_MSFontService,sans-serif" font-weight="700" font-size="83" transform="matrix(1 0 0 1 2018.37 3101)">HDMI1<tspan font-size="83" x="77.0686" y="99">ou</tspan><tspan font-size="83" x="184.777" y="99">t</tspan></text><rect x="1306" y="2906" width="409" height="431" fill="#A6A6A6"/><text font-family="Microsoft YaHei,Microsoft YaHei_MSFontService,sans-serif" font-weight="700" font-size="83" transform="matrix(1 0 0 1 1362.47 3101)">HDMI0<tspan font-size="83" x="77.0687" y="99">ou</tspan><tspan font-size="83" x="184.777" y="99">t</tspan></text><path d="M336 3029.5C336 2951.9 398.904 2889 476.5 2889 554.096 2889 617 2951.9 617 3029.5 617 3107.1 554.096 3170 476.5 3170 398.904 3170 336 3107.1 336 3029.5Z" fill="#F8CCB9" fill-rule="evenodd"/><path d="M419 3029.5C419 2998.3 444.296 2973 475.5 2973 506.704 2973 532 2998.3 532 3029.5 532 3060.7 506.704 3086 475.5 3086 444.296 3086 419 3060.7 419 3029.5Z" fill="#FFFFFF" fill-rule="evenodd"/><rect x="677" y="2906" width="382" height="431" fill="#A6A6A6"/><text font-family="Microsoft YaHei,Microsoft YaHei_MSFontService,sans-serif" font-weight="700" font-size="83" transform="matrix(1 0 0 1 737.16 3151)">USB<tspan font-size="83" x="170.156" y="0">-</tspan><tspan font-size="83" x="206.25" y="0">C</tspan></text><path d="M735.5 2489.5 735.5 2724.11" stroke="#000000" stroke-width="9.16667" stroke-linecap="round" stroke-miterlimit="8" fill="none" fill-rule="evenodd"/><path d="M757.5 2489.5 757.5 2724.11" stroke="#000000" stroke-width="9.16667" stroke-linecap="round" stroke-miterlimit="8" fill="none" fill-rule="evenodd"/><path d="M779.5 2489.5 779.5 2724.11" stroke="#000000" stroke-width="9.16667" stroke-linecap="round" stroke-miterlimit="8" fill="none" fill-rule="evenodd"/><path d="M802.5 2489.5 802.501 2724.11" stroke="#000000" stroke-width="9.16667" stroke-linecap="round" stroke-miterlimit="8" fill="none" fill-rule="evenodd"/><path d="M824.5 2489.5 824.501 2724.11" stroke="#000000" stroke-width="9.16667" stroke-linecap="round" stroke-miterlimit="8" fill="none" fill-rule="evenodd"/><path d="M846.5 2489.5 846.501 2724.11" stroke="#000000" stroke-width="9.16667" stroke-linecap="round" stroke-miterlimit="8" fill="none" fill-rule="evenodd"/><path d="M868.5 2489.5 868.501 2724.11" stroke="#000000" stroke-width="9.16667" stroke-linecap="round" stroke-miterlimit="8" fill="none" fill-rule="evenodd"/><path d="M890.5 2489.5 890.501 2724.11" stroke="#000000" stroke-width="9.16667" stroke-linecap="round" stroke-miterlimit="8" fill="none" fill-rule="evenodd"/><path d="M930.11 2529.5 695.5 2529.5" stroke="#000000" stroke-width="9.16667" stroke-linecap="round" stroke-miterlimit="8" fill="none" fill-rule="evenodd"/><path d="M930.11 2551.5 695.5 2551.5" stroke="#000000" stroke-width="9.16667" stroke-linecap="round" stroke-miterlimit="8" fill="none" fill-rule="evenodd"/><path d="M930.11 2573.5 695.5 2573.5" stroke="#000000" stroke-width="9.16667" stroke-linecap="round" stroke-miterlimit="8" fill="none" fill-rule="evenodd"/><path d="M930.11 2595.5 695.5 2595.5" stroke="#000000" stroke-width="9.16667" stroke-linecap="round" stroke-miterlimit="8" fill="none" fill-rule="evenodd"/><path d="M930.11 2617.5 695.5 2617.5" stroke="#000000" stroke-width="9.16667" stroke-linecap="round" stroke-miterlimit="8" fill="none" fill-rule="evenodd"/><path d="M930.11 2640.5 695.5 2640.5" stroke="#000000" stroke-width="9.16667" stroke-linecap="round" stroke-miterlimit="8" fill="none" fill-rule="evenodd"/><path d="M930.11 2662.5 695.5 2662.5" stroke="#000000" stroke-width="9.16667" stroke-linecap="round" stroke-miterlimit="8" fill="none" fill-rule="evenodd"/><path d="M930.11 2684.5 695.5 2684.5" stroke="#000000" stroke-width="9.16667" stroke-linecap="round" stroke-miterlimit="8" fill="none" fill-rule="evenodd"/><rect x="712" y="2505" width="202" height="203" fill="#7F7F7F"/><rect x="1122" y="2571" width="78" height="281" fill="#A6A6A6"/><rect x="1109" y="2604" width="104" height="211" fill="#7F7F7F"/><rect x="871.5" y="2136.5" width="551" height="171" stroke="#FFFFFF" stroke-width="9.16667" stroke-miterlimit="8" fill="none"/><path d="M884 2221C884 2179.03 918.25 2145 960.5 2145 1002.75 2145 1037 2179.03 1037 2221 1037 2262.97 1002.75 2297 960.5 2297 918.25 2297 884 2262.97 884 2221Z" fill="#F8CCB9" fill-rule="evenodd"/><path d="M899 2221C899 2187.86 926.087 2161 959.5 2161 992.913 2161 1020 2187.86 1020 2221 1020 2254.14 992.913 2281 959.5 2281 926.087 2281 899 2254.14 899 2221Z" fill="#FFFFFF" fill-rule="evenodd"/><path d="M1069 2221C1069 2179.03 1103.03 2145 1145 2145 1186.97 2145 1221 2179.03 1221 2221 1221 2262.97 1186.97 2297 1145 2297 1103.03 2297 1069 2262.97 1069 2221Z" fill="#F8CCB9" fill-rule="evenodd"/><path d="M1084 2221C1084 2187.86 1111.09 2161 1144.5 2161 1177.91 2161 1205 2187.86 1205 2221 1205 2254.14 1177.91 2281 1144.5 2281 1111.09 2281 1084 2254.14 1084 2221Z" fill="#FFFFFF" fill-rule="evenodd"/><rect x="1253" y="2145" width="153" height="152" fill="#F8CCB9"/><path d="M1268 2221C1268 2187.86 1295.09 2161 1328.5 2161 1361.91 2161 1389 2187.86 1389 2221 1389 2254.14 1361.91 2281 1328.5 2281 1295.09 2281 1268 2254.14 1268 2221Z" fill="#FFFFFF" fill-rule="evenodd"/><rect x="3011" y="2908" width="303" height="458" fill="#7F7F7F"/><rect x="2957" y="2548" width="411" height="720" fill="#BFBFBF"/><text font-family="Microsoft YaHei,Microsoft YaHei_MSFontService,sans-serif" font-weight="700" font-size="83" transform="matrix(-1.83697e-16 -1 1 -1.83697e-16 3092.73 3135)">3.5mm out<tspan font-size="83" x="3" y="99">Composite</tspan><tspan font-size="83" x="-50" y="198">Video</tspan><tspan font-size="83" x="191" y="198">+Audio</tspan></text><path d="M3489 3070C3489 2992.13 3551.9 2929 3629.5 2929 3707.1 2929 3770 2992.13 3770 3070 3770 3147.87 3707.1 3211 3629.5 3211 3551.9 3211 3489 3147.87 3489 3070Z" fill="#F8CCB9" fill-rule="evenodd"/><path d="M3572 3070.5C3572 3039.3 3597.07 3014 3628 3014 3658.93 3014 3684 3039.3 3684 3070.5 3684 3101.7 3658.93 3127 3628 3127 3597.07 3127 3572 3101.7 3572 3070.5Z" fill="#FFFFFF" fill-rule="evenodd"/><rect x="1280.5" y="569.5" width="275" height="98" stroke="#FFFFFF" stroke-width="9.16667" stroke-miterlimit="8" fill="none"/><text fill="#FFFFFF" font-family="Microsoft YaHei,Microsoft YaHei_MSFontService,sans-serif" font-weight="400" font-size="64" transform="matrix(1 0 0 1 1338.41 642)">GPIO<tspan font-size="64" x="2865.66" y="-352">Ethernet</tspan><tspan font-size="64" x="3003.27" y="1468">USB3</tspan><tspan font-size="64" x="3003.27" y="2449">USB2</tspan></text><text fill="#FFFFFF" font-family="Microsoft YaHei,Microsoft YaHei_MSFontService,sans-serif" font-weight="400" font-size="64" transform="matrix(-1.83697e-16 -1 1 -1.83697e-16 2923.7 3209)">A/V<tspan font-size="64" x="6" y="-986.755">HDMI1</tspan><tspan font-size="64" x="7" y="-1640.32">HDMI0</tspan><tspan font-size="64" x="11" y="-1795.39">PWR IN</tspan></text><text fill="#FFFFFF" font-family="Microsoft YaHei,Microsoft YaHei_MSFontService,sans-serif" font-weight="400" font-size="55" transform="matrix(1 0 0 1 893.062 2101)">RUN<tspan font-size="55" x="287.91" y="0">GLOBAL_EN</tspan></text><text fill="#FFFFFF" font-family="Microsoft YaHei,Microsoft YaHei_MSFontService,sans-serif" font-weight="400" font-size="64" transform="matrix(-1.83697e-16 -1 1 -1.83697e-16 3416.91 777)">PoE</text><text font-family="Microsoft YaHei,Microsoft YaHei_MSFontService,sans-serif" font-weight="400" font-size="55" transform="matrix(1 0 0 1 716.261 2849)">Regulator</text><rect x="344" y="2708" width="50.9999" height="135" fill="#5D1709"/><rect x="342" y="2532" width="51.9999" height="135" fill="#5D1709"/><text fill="#FFFFFF" font-family="Microsoft YaHei,Microsoft YaHei_MSFontService,sans-serif" font-weight="400" font-size="55" transform="matrix(1 0 0 1 432.397 2833)">PWR</text><text fill="#FFFFFF" font-family="Microsoft YaHei,Microsoft YaHei_MSFontService,sans-serif" font-weight="400" font-size="55" transform="matrix(-1.83697e-16 -1 1 -1.83697e-16 387.215 2513)">ACT<tspan fill="#000000" font-family="Courier New,Courier New_MSFontService,sans-serif" font-weight="700" font-size="83" x="-442" y="-170.403">Status LEDs</tspan><tspan fill="#000000" font-family="Courier New,Courier New_MSFontService,sans-serif" font-weight="700" font-size="83" x="289" y="-170.403">microSD slot on bottom side</tspan></text><text font-family="Courier New,Courier New_MSFontService,sans-serif" font-weight="700" font-size="83" transform="matrix(1 0 0 1 678.203 3428)">Power in<tspan font-size="83" x="2192.16" y="22">4 poles jack</tspan><tspan font-family="Microsoft YaHei,Microsoft YaHei_MSFontService,sans-serif" font-size="64" x="-68.9597" y="-2927">1</tspan><tspan font-size="83" x="31.7878" y="-3331">40 pins: 28</tspan><tspan font-family="Microsoft YaHei,Microsoft YaHei_MSFontService,sans-serif" font-size="83" x="573.767" y="-3331">×</tspan><tspan font-size="83" x="636.788" y="-3331">GPIO, I2C, SPI, UART</tspan></text></g></svg>