<svg width="3866" height="875" xmlns="http://www.w3.org/2000/svg" xmlns:xlink="http://www.w3.org/1999/xlink" overflow="hidden"><defs><clipPath id="clip0"><rect x="316" y="564" width="3866" height="875"/></clipPath></defs><g clip-path="url(#clip0)" transform="translate(-316 -564)"><rect x="378.5" y="568.5" width="172" height="171" stroke="#D74514" stroke-width="9.16667" stroke-miterlimit="8" fill="#FDEFE8"/><path d="M441 653C441 639.745 451.745 629 465 629 478.255 629 489 639.745 489 653 489 666.255 478.255 677 465 677 451.745 677 441 666.255 441 653Z" fill="#D74514" fill-rule="evenodd"/><path d="M489.5 648.917 667.104 648.917 667.104 658.084 489.5 658.083ZM662.521 630.584 708.354 653.5 662.521 676.417Z"/><rect x="378.5" y="739.5" width="172" height="172" stroke="#D74514" stroke-width="9.16667" stroke-miterlimit="8" fill="#FDEFE8"/><path d="M441 825C441 811.745 451.745 801 465 801 478.255 801 489 811.745 489 825 489 838.255 478.255 849 465 849 451.745 849 441 838.255 441 825Z" fill="#D74514" fill-rule="evenodd"/><path d="M489.5 820.917 667.104 820.917 667.104 830.083 489.5 830.083ZM662.521 802.583 708.354 825.5 662.521 848.417Z"/><rect x="378.5" y="911.5" width="172" height="171" stroke="#D74514" stroke-width="9.16667" stroke-miterlimit="8" fill="#FDEFE8"/><path d="M441 997C441 983.745 451.745 973 465 973 478.255 973 489 983.745 489 997 489 1010.25 478.255 1021 465 1021 451.745 1021 441 1010.25 441 997Z" fill="#D74514" fill-rule="evenodd"/><path d="M489.5 992.917 667.104 992.917 667.104 1002.08 489.5 1002.08ZM662.521 974.584 708.354 997.5 662.521 1020.42Z"/><rect x="378.5" y="1082.5" width="172" height="172" stroke="#D74514" stroke-width="9.16667" stroke-miterlimit="8" fill="#FDEFE8"/><path d="M441 1168C441 1154.75 451.745 1144 465 1144 478.255 1144 489 1154.75 489 1168 489 1181.25 478.255 1192 465 1192 451.745 1192 441 1181.25 441 1168Z" fill="#D74514" fill-rule="evenodd"/><path d="M489.5 1163.92 667.104 1163.92 667.104 1173.08 489.5 1173.08ZM662.521 1145.58 708.354 1168.5 662.521 1191.42Z"/><rect x="708.5" y="568.5" width="172" height="171" stroke="#D74514" stroke-width="9.16667" stroke-miterlimit="8" fill="#FDEFE8"/><path d="M771 653C771 639.745 781.745 629 795 629 808.255 629 819 639.745 819 653 819 666.255 808.255 677 795 677 781.745 677 771 666.255 771 653Z" fill="#D74514" fill-rule="evenodd"/><path d="M819.5 648.917 3964.63 648.917 3964.63 658.084 819.5 658.083ZM3960.05 630.584 4005.88 653.5 3960.05 676.417Z"/><rect x="708.5" y="739.5" width="172" height="172" stroke="#D74514" stroke-width="9.16667" stroke-miterlimit="8" fill="#FDEFE8"/><path d="M771 825C771 811.745 781.745 801 795 801 808.255 801 819 811.745 819 825 819 838.255 808.255 849 795 849 781.745 849 771 838.255 771 825Z" fill="#D74514" fill-rule="evenodd"/><path d="M819.5 820.917 1656.55 820.917 1656.55 830.083 819.5 830.083ZM1651.97 802.583 1697.8 825.5 1651.97 848.417Z"/><rect x="708.5" y="911.5" width="172" height="171" stroke="#D74514" stroke-width="9.16667" stroke-miterlimit="8" fill="#FDEFE8"/><path d="M771 997C771 983.745 781.745 973 795 973 808.255 973 819 983.745 819 997 819 1010.25 808.255 1021 795 1021 781.745 1021 771 1010.25 771 997Z" fill="#D74514" fill-rule="evenodd"/><path d="M819.5 992.917 1326.83 992.917 1326.83 1002.08 819.5 1002.08ZM1322.25 974.584 1368.08 997.5 1322.25 1020.42Z"/><rect x="708.5" y="1082.5" width="172" height="172" stroke="#D74514" stroke-width="9.16667" stroke-miterlimit="8" fill="#FDEFE8"/><path d="M771 1168C771 1154.75 781.745 1144 795 1144 808.255 1144 819 1154.75 819 1168 819 1181.25 808.255 1192 795 1192 781.745 1192 771 1181.25 771 1168Z" fill="#D74514" fill-rule="evenodd"/><path d="M819.5 1163.92 997.104 1163.92 997.104 1173.08 819.5 1173.08ZM992.521 1145.58 1038.35 1168.5 992.521 1191.42Z"/><rect x="1038.5" y="1082.5" width="171" height="172" stroke="#D74514" stroke-width="9.16667" stroke-miterlimit="8" fill="#FDEFE8"/><path d="M1101 1168C1101 1154.75 1111.75 1144 1125 1144 1138.25 1144 1149 1154.75 1149 1168 1149 1181.25 1138.25 1192 1125 1192 1111.75 1192 1101 1181.25 1101 1168Z" fill="#D74514" fill-rule="evenodd"/><path d="M1149.5 1163.92 1327.1 1163.92 1327.1 1173.08 1149.5 1173.08ZM1322.52 1145.58 1368.35 1168.5 1322.52 1191.42Z"/><rect x="1368.5" y="911.5" width="171" height="171" stroke="#D74514" stroke-width="9.16667" stroke-miterlimit="8" fill="#FDEFE8"/><path d="M1430 997C1430 983.745 1440.75 973 1454 973 1467.25 973 1478 983.745 1478 997 1478 1010.25 1467.25 1021 1454 1021 1440.75 1021 1430 1010.25 1430 997Z" fill="#D74514" fill-rule="evenodd"/><path d="M1478.5 992.917 1656.1 992.917 1656.1 1002.08 1478.5 1002.08ZM1651.52 974.584 1697.35 997.5 1651.52 1020.42Z"/><rect x="1368.5" y="1082.5" width="171" height="172" stroke="#D74514" stroke-width="9.16667" stroke-miterlimit="8" fill="#FDEFE8"/><path d="M1430 1168C1430 1154.75 1440.75 1144 1454 1144 1467.25 1144 1478 1154.75 1478 1168 1478 1181.25 1467.25 1192 1454 1192 1440.75 1192 1430 1181.25 1430 1168Z" fill="#D74514" fill-rule="evenodd"/><path d="M1478.5 1163.92 1656.1 1163.92 1656.1 1173.08 1478.5 1173.08ZM1651.52 1145.58 1697.35 1168.5 1651.52 1191.42Z"/><rect x="1697.5" y="739.5" width="172" height="172" stroke="#D74514" stroke-width="9.16667" stroke-miterlimit="8" fill="#FDEFE8"/><path d="M1760 825C1760 811.745 1770.75 801 1784 801 1797.25 801 1808 811.745 1808 825 1808 838.255 1797.25 849 1784 849 1770.75 849 1760 838.255 1760 825Z" fill="#D74514" fill-rule="evenodd"/><path d="M1808.5 820.917 2315.83 820.917 2315.83 830.083 1808.5 830.083ZM2311.25 802.583 2357.08 825.5 2311.25 848.417Z"/><rect x="1697.5" y="911.5" width="172" height="171" stroke="#D74514" stroke-width="9.16667" stroke-miterlimit="8" fill="#FDEFE8"/><path d="M1760 997C1760 983.745 1770.75 973 1784 973 1797.25 973 1808 983.745 1808 997 1808 1010.25 1797.25 1021 1784 1021 1770.75 1021 1760 1010.25 1760 997Z" fill="#D74514" fill-rule="evenodd"/><path d="M1808.5 992.917 2315.83 992.917 2315.83 1002.08 1808.5 1002.08ZM2311.25 974.584 2357.08 997.5 2311.25 1020.42Z"/><rect x="1697.5" y="1082.5" width="172" height="172" stroke="#D74514" stroke-width="9.16667" stroke-miterlimit="8" fill="#FDEFE8"/><path d="M1760 1168C1760 1154.75 1770.75 1144 1784 1144 1797.25 1144 1808 1154.75 1808 1168 1808 1181.25 1797.25 1192 1784 1192 1770.75 1192 1760 1181.25 1760 1168Z" fill="#D74514" fill-rule="evenodd"/><path d="M1808.5 1163.92 1986.1 1163.92 1986.1 1173.08 1808.5 1173.08ZM1981.52 1145.58 2027.35 1168.5 1981.52 1191.42Z"/><rect x="2027.5" y="1082.5" width="172" height="172" stroke="#D74514" stroke-width="9.16667" stroke-miterlimit="8" fill="#FDEFE8"/><path d="M2090 1168C2090 1154.75 2100.75 1144 2114 1144 2127.25 1144 2138 1154.75 2138 1168 2138 1181.25 2127.25 1192 2114 1192 2100.75 1192 2090 1181.25 2090 1168Z" fill="#D74514" fill-rule="evenodd"/><path d="M2138.5 1163.92 2316.1 1163.92 2316.1 1173.08 2138.5 1173.08ZM2311.52 1145.58 2357.35 1168.5 2311.52 1191.42Z"/><rect x="2357.5" y="739.5" width="171" height="172" stroke="#D74514" stroke-width="9.16667" stroke-miterlimit="8" fill="#FDEFE8"/><path d="M2419 825C2419 811.745 2429.97 801 2443.5 801 2457.03 801 2468 811.745 2468 825 2468 838.255 2457.03 849 2443.5 849 2429.97 849 2419 838.255 2419 825Z" fill="#D74514" fill-rule="evenodd"/><path d="M2468.5 820.917 3965 820.917 3965 830.083 2468.5 830.083ZM3960.42 802.583 4006.25 825.5 3960.42 848.417Z"/><rect x="2357.5" y="911.5" width="171" height="171" stroke="#D74514" stroke-width="9.16667" stroke-miterlimit="8" fill="#FDEFE8"/><path d="M2419 997C2419 983.745 2429.97 973 2443.5 973 2457.03 973 2468 983.745 2468 997 2468 1010.25 2457.03 1021 2443.5 1021 2429.97 1021 2419 1010.25 2419 997Z" fill="#D74514" fill-rule="evenodd"/><path d="M2468.5 992.917 3305.55 992.917 3305.55 1002.08 2468.5 1002.08ZM3300.97 974.584 3346.8 997.5 3300.97 1020.42Z"/><rect x="2357.5" y="1082.5" width="171" height="172" stroke="#D74514" stroke-width="9.16667" stroke-miterlimit="8" fill="#FDEFE8"/><path d="M2419 1168C2419 1154.75 2429.97 1144 2443.5 1144 2457.03 1144 2468 1154.75 2468 1168 2468 1181.25 2457.03 1192 2443.5 1192 2429.97 1192 2419 1181.25 2419 1168Z" fill="#D74514" fill-rule="evenodd"/><path d="M2468.5 1163.92 2646.1 1163.92 2646.1 1173.08 2468.5 1173.08ZM2641.52 1145.58 2687.35 1168.5 2641.52 1191.42Z"/><rect x="2686.5" y="1082.5" width="172" height="172" stroke="#D74514" stroke-width="9.16667" stroke-miterlimit="8" fill="#FDEFE8"/><path d="M2749 1168C2749 1154.75 2759.75 1144 2773 1144 2786.25 1144 2797 1154.75 2797 1168 2797 1181.25 2786.25 1192 2773 1192 2759.75 1192 2749 1181.25 2749 1168Z" fill="#D74514" fill-rule="evenodd"/><path d="M2797.5 1163.92 2975.1 1163.92 2975.1 1173.08 2797.5 1173.08ZM2970.52 1145.58 3016.35 1168.5 2970.52 1191.42Z"/><rect x="3016.5" y="1082.5" width="172" height="172" stroke="#D74514" stroke-width="9.16667" stroke-miterlimit="8" fill="#FDEFE8"/><path d="M3079 1168C3079 1154.75 3089.75 1144 3103 1144 3116.25 1144 3127 1154.75 3127 1168 3127 1181.25 3116.25 1192 3103 1192 3089.75 1192 3079 1181.25 3079 1168Z" fill="#D74514" fill-rule="evenodd"/><path d="M3127.5 1163.92 3305.1 1163.92 3305.1 1173.08 3127.5 1173.08ZM3300.52 1145.58 3346.35 1168.5 3300.52 1191.42Z"/><rect x="3346.5" y="911.5" width="172" height="171" stroke="#D74514" stroke-width="9.16667" stroke-miterlimit="8" fill="#FDEFE8"/><path d="M3409 997C3409 983.745 3419.75 973 3433 973 3446.25 973 3457 983.745 3457 997 3457 1010.25 3446.25 1021 3433 1021 3419.75 1021 3409 1010.25 3409 997Z" fill="#D74514" fill-rule="evenodd"/><path d="M3457.5 992.917 3964.83 992.917 3964.83 1002.08 3457.5 1002.08ZM3960.25 974.584 4006.08 997.5 3960.25 1020.42Z"/><rect x="3346.5" y="1082.5" width="172" height="172" stroke="#D74514" stroke-width="9.16667" stroke-miterlimit="8" fill="#FDEFE8"/><path d="M3409 1168C3409 1154.75 3419.75 1144 3433 1144 3446.25 1144 3457 1154.75 3457 1168 3457 1181.25 3446.25 1192 3433 1192 3419.75 1192 3409 1181.25 3409 1168Z" fill="#D74514" fill-rule="evenodd"/><path d="M3457.5 1163.92 3635.1 1163.92 3635.1 1173.08 3457.5 1173.08ZM3630.52 1145.58 3676.35 1168.5 3630.52 1191.42Z"/><rect x="3676.5" y="1082.5" width="171" height="172" stroke="#D74514" stroke-width="9.16667" stroke-miterlimit="8" fill="#FDEFE8"/><path d="M3738 1168C3738 1154.75 3748.97 1144 3762.5 1144 3776.03 1144 3787 1154.75 3787 1168 3787 1181.25 3776.03 1192 3762.5 1192 3748.97 1192 3738 1181.25 3738 1168Z" fill="#D74514" fill-rule="evenodd"/><path d="M3787.5 1163.92 3965.1 1163.92 3965.1 1173.08 3787.5 1173.08ZM3960.52 1145.58 4006.35 1168.5 3960.52 1191.42Z"/><rect x="4005" y="568" width="172" height="171" fill="#FDEFE8"/><text font-family="Microsoft YaHei,Microsoft YaHei_MSFontService,sans-serif" font-weight="400" font-size="64" transform="matrix(1 0 0 1 4039.33 677)">NIL</text><rect x="4005" y="739" width="172" height="172" fill="#FDEFE8"/><text font-family="Microsoft YaHei,Microsoft YaHei_MSFontService,sans-serif" font-weight="400" font-size="64" transform="matrix(1 0 0 1 4039.33 848)">NIL</text><rect x="4005" y="911" width="172" height="171" fill="#FDEFE8"/><text font-family="Microsoft YaHei,Microsoft YaHei_MSFontService,sans-serif" font-weight="400" font-size="64" transform="matrix(1 0 0 1 4039.33 1020)">NIL</text><rect x="4005" y="1082" width="172" height="172" fill="#FDEFE8"/><text font-family="Microsoft YaHei,Microsoft YaHei_MSFontService,sans-serif" font-weight="400" font-size="64" transform="matrix(1 0 0 1 4039.33 1192)">NIL</text><rect x="708.5" y="1254.5" width="172" height="172" stroke="#D74514" stroke-width="9.16667" stroke-miterlimit="8" fill="#D74514"/><text fill="#FFFFFF" font-family="Microsoft YaHei,Microsoft YaHei_MSFontService,sans-serif" font-weight="400" font-size="83" transform="matrix(1 0 0 1 769.862 1369)">1</text><rect x="1038.5" y="1254.5" width="171" height="172" stroke="#D74514" stroke-width="9.16667" stroke-miterlimit="8" fill="#D74514"/><text fill="#FFFFFF" font-family="Microsoft YaHei,Microsoft YaHei_MSFontService,sans-serif" font-weight="400" font-size="83" transform="matrix(1 0 0 1 1099.59 1369)">2</text><rect x="1368.5" y="1254.5" width="171" height="172" stroke="#D74514" stroke-width="9.16667" stroke-miterlimit="8" fill="#D74514"/><text fill="#FFFFFF" font-family="Microsoft YaHei,Microsoft YaHei_MSFontService,sans-serif" font-weight="400" font-size="83" transform="matrix(1 0 0 1 1429.31 1369)">3</text><rect x="1697.5" y="1254.5" width="172" height="172" stroke="#D74514" stroke-width="9.16667" stroke-miterlimit="8" fill="#D74514"/><text fill="#FFFFFF" font-family="Microsoft YaHei,Microsoft YaHei_MSFontService,sans-serif" font-weight="400" font-size="83" transform="matrix(1 0 0 1 1759.04 1369)">4</text><rect x="2027.5" y="1254.5" width="172" height="172" stroke="#D74514" stroke-width="9.16667" stroke-miterlimit="8" fill="#D74514"/><text fill="#FFFFFF" font-family="Microsoft YaHei,Microsoft YaHei_MSFontService,sans-serif" font-weight="400" font-size="83" transform="matrix(1 0 0 1 2088.76 1369)">5</text><rect x="2357.5" y="1254.5" width="171" height="172" stroke="#D74514" stroke-width="9.16667" stroke-miterlimit="8" fill="#D74514"/><text fill="#FFFFFF" font-family="Microsoft YaHei,Microsoft YaHei_MSFontService,sans-serif" font-weight="400" font-size="83" transform="matrix(1 0 0 1 2418.49 1369)">6</text><rect x="2686.5" y="1254.5" width="172" height="172" stroke="#D74514" stroke-width="9.16667" stroke-miterlimit="8" fill="#D74514"/><text fill="#FFFFFF" font-family="Microsoft YaHei,Microsoft YaHei_MSFontService,sans-serif" font-weight="400" font-size="83" transform="matrix(1 0 0 1 2748.21 1369)">7</text><rect x="3016.5" y="1254.5" width="172" height="172" stroke="#D74514" stroke-width="9.16667" stroke-miterlimit="8" fill="#D74514"/><text fill="#FFFFFF" font-family="Microsoft YaHei,Microsoft YaHei_MSFontService,sans-serif" font-weight="400" font-size="83" transform="matrix(1 0 0 1 3077.94 1369)">8</text><rect x="3346.5" y="1254.5" width="172" height="172" stroke="#D74514" stroke-width="9.16667" stroke-miterlimit="8" fill="#D74514"/><text fill="#FFFFFF" font-family="Microsoft YaHei,Microsoft YaHei_MSFontService,sans-serif" font-weight="400" font-size="83" transform="matrix(1 0 0 1 3407.66 1369)">9</text><rect x="3676.5" y="1254.5" width="171" height="172" stroke="#D74514" stroke-width="9.16667" stroke-miterlimit="8" fill="#D74514"/><text fill="#FFFFFF" font-family="Microsoft YaHei,Microsoft YaHei_MSFontService,sans-serif" font-weight="400" font-size="83" transform="matrix(1 0 0 1 3713.32 1369)">10<tspan fill="#D74514" font-size="83" x="-3347.38" y="0">head</tspan></text></g></svg>