<svg xmlns="http://www.w3.org/2000/svg" width="3866" height="875" overflow="hidden"><defs><clipPath id="a"><path d="M316 564h3866v875H316z"/></clipPath></defs><g clip-path="url(#a)" transform="translate(-316 -564)"><path fill="#fdefe8" stroke="#d74514" stroke-miterlimit="8" stroke-width="9.167" d="M378.5 568.5h172v171h-172z"/><path fill="#d74514" fill-rule="evenodd" d="M441 653c0-13.255 10.745-24 24-24s24 10.745 24 24-10.745 24-24 24-24-10.745-24-24"/><path d="M489.5 648.917h177.604v9.167l-177.604-.001Zm173.021-18.333 45.833 22.916-45.833 22.917Z"/><path fill="#fdefe8" stroke="#d74514" stroke-miterlimit="8" stroke-width="9.167" d="M378.5 739.5h172v172h-172z"/><path fill="#d74514" fill-rule="evenodd" d="M441 825c0-13.255 10.745-24 24-24s24 10.745 24 24-10.745 24-24 24-24-10.745-24-24"/><path d="M489.5 820.917h177.604v9.166H489.5Zm173.021-18.334 45.833 22.917-45.833 22.917Z"/><path fill="#fdefe8" stroke="#d74514" stroke-miterlimit="8" stroke-width="9.167" d="M378.5 911.5h172v171h-172z"/><path fill="#d74514" fill-rule="evenodd" d="M441 997c0-13.255 10.745-24 24-24s24 10.745 24 24c0 13.25-10.745 24-24 24s-24-10.75-24-24"/><path d="M489.5 992.917h177.604v9.163H489.5Zm173.021-18.333 45.833 22.916-45.833 22.92Z"/><path fill="#fdefe8" stroke="#d74514" stroke-miterlimit="8" stroke-width="9.167" d="M378.5 1082.5h172v172h-172z"/><path fill="#d74514" fill-rule="evenodd" d="M441 1168c0-13.25 10.745-24 24-24s24 10.75 24 24-10.745 24-24 24-24-10.75-24-24"/><path d="M489.5 1163.92h177.604v9.16H489.5Zm173.021-18.34 45.833 22.92-45.833 22.92Z"/><path fill="#fdefe8" stroke="#d74514" stroke-miterlimit="8" stroke-width="9.167" d="M708.5 568.5h172v171h-172z"/><path fill="#d74514" fill-rule="evenodd" d="M771 653c0-13.255 10.745-24 24-24s24 10.745 24 24-10.745 24-24 24-24-10.745-24-24"/><path d="M819.5 648.917h3145.13v9.167l-3145.13-.001Zm3140.55-18.333 45.83 22.916-45.83 22.917Z"/><path fill="#fdefe8" stroke="#d74514" stroke-miterlimit="8" stroke-width="9.167" d="M708.5 739.5h172v172h-172z"/><path fill="#d74514" fill-rule="evenodd" d="M771 825c0-13.255 10.745-24 24-24s24 10.745 24 24-10.745 24-24 24-24-10.745-24-24"/><path d="M819.5 820.917h837.05v9.166H819.5Zm832.47-18.334 45.83 22.917-45.83 22.917Z"/><path fill="#fdefe8" stroke="#d74514" stroke-miterlimit="8" stroke-width="9.167" d="M708.5 911.5h172v171h-172z"/><path fill="#d74514" fill-rule="evenodd" d="M771 997c0-13.255 10.745-24 24-24s24 10.745 24 24c0 13.25-10.745 24-24 24s-24-10.75-24-24"/><path d="M819.5 992.917h507.33v9.163H819.5Zm502.75-18.333 45.83 22.916-45.83 22.92Z"/><path fill="#fdefe8" stroke="#d74514" stroke-miterlimit="8" stroke-width="9.167" d="M708.5 1082.5h172v172h-172z"/><path fill="#d74514" fill-rule="evenodd" d="M771 1168c0-13.25 10.745-24 24-24s24 10.75 24 24-10.745 24-24 24-24-10.75-24-24"/><path d="M819.5 1163.92h177.604v9.16H819.5Zm173.021-18.34 45.829 22.92-45.829 22.92Z"/><path fill="#fdefe8" stroke="#d74514" stroke-miterlimit="8" stroke-width="9.167" d="M1038.5 1082.5h171v172h-171z"/><path fill="#d74514" fill-rule="evenodd" d="M1101 1168c0-13.25 10.75-24 24-24s24 10.75 24 24-10.75 24-24 24-24-10.75-24-24"/><path d="M1149.5 1163.92h177.6v9.16h-177.6Zm173.02-18.34 45.83 22.92-45.83 22.92Z"/><path fill="#fdefe8" stroke="#d74514" stroke-miterlimit="8" stroke-width="9.167" d="M1368.5 911.5h171v171h-171z"/><path fill="#d74514" fill-rule="evenodd" d="M1430 997c0-13.255 10.75-24 24-24s24 10.745 24 24c0 13.25-10.75 24-24 24s-24-10.75-24-24"/><path d="M1478.5 992.917h177.6v9.163h-177.6Zm173.02-18.333 45.83 22.916-45.83 22.92Z"/><path fill="#fdefe8" stroke="#d74514" stroke-miterlimit="8" stroke-width="9.167" d="M1368.5 1082.5h171v172h-171z"/><path fill="#d74514" fill-rule="evenodd" d="M1430 1168c0-13.25 10.75-24 24-24s24 10.75 24 24-10.75 24-24 24-24-10.75-24-24"/><path d="M1478.5 1163.92h177.6v9.16h-177.6Zm173.02-18.34 45.83 22.92-45.83 22.92Z"/><path fill="#fdefe8" stroke="#d74514" stroke-miterlimit="8" stroke-width="9.167" d="M1697.5 739.5h172v172h-172z"/><path fill="#d74514" fill-rule="evenodd" d="M1760 825c0-13.255 10.75-24 24-24s24 10.745 24 24-10.75 24-24 24-24-10.745-24-24"/><path d="M1808.5 820.917h507.33v9.166H1808.5Zm502.75-18.334 45.83 22.917-45.83 22.917Z"/><path fill="#fdefe8" stroke="#d74514" stroke-miterlimit="8" stroke-width="9.167" d="M1697.5 911.5h172v171h-172z"/><path fill="#d74514" fill-rule="evenodd" d="M1760 997c0-13.255 10.75-24 24-24s24 10.745 24 24c0 13.25-10.75 24-24 24s-24-10.75-24-24"/><path d="M1808.5 992.917h507.33v9.163H1808.5Zm502.75-18.333 45.83 22.916-45.83 22.92Z"/><path fill="#fdefe8" stroke="#d74514" stroke-miterlimit="8" stroke-width="9.167" d="M1697.5 1082.5h172v172h-172z"/><path fill="#d74514" fill-rule="evenodd" d="M1760 1168c0-13.25 10.75-24 24-24s24 10.75 24 24-10.75 24-24 24-24-10.75-24-24"/><path d="M1808.5 1163.92h177.6v9.16h-177.6Zm173.02-18.34 45.83 22.92-45.83 22.92Z"/><path fill="#fdefe8" stroke="#d74514" stroke-miterlimit="8" stroke-width="9.167" d="M2027.5 1082.5h172v172h-172z"/><path fill="#d74514" fill-rule="evenodd" d="M2090 1168c0-13.25 10.75-24 24-24s24 10.75 24 24-10.75 24-24 24-24-10.75-24-24"/><path d="M2138.5 1163.92h177.6v9.16h-177.6Zm173.02-18.34 45.83 22.92-45.83 22.92Z"/><path fill="#fdefe8" stroke="#d74514" stroke-miterlimit="8" stroke-width="9.167" d="M2357.5 739.5h171v172h-171z"/><path fill="#d74514" fill-rule="evenodd" d="M2419 825c0-13.255 10.97-24 24.5-24s24.5 10.745 24.5 24-10.97 24-24.5 24-24.5-10.745-24.5-24"/><path d="M2468.5 820.917H3965v9.166H2468.5Zm1491.92-18.334 45.83 22.917-45.83 22.917Z"/><path fill="#fdefe8" stroke="#d74514" stroke-miterlimit="8" stroke-width="9.167" d="M2357.5 911.5h171v171h-171z"/><path fill="#d74514" fill-rule="evenodd" d="M2419 997c0-13.255 10.97-24 24.5-24s24.5 10.745 24.5 24c0 13.25-10.97 24-24.5 24s-24.5-10.75-24.5-24"/><path d="M2468.5 992.917h837.05v9.163H2468.5Zm832.47-18.333 45.83 22.916-45.83 22.92Z"/><path fill="#fdefe8" stroke="#d74514" stroke-miterlimit="8" stroke-width="9.167" d="M2357.5 1082.5h171v172h-171z"/><path fill="#d74514" fill-rule="evenodd" d="M2419 1168c0-13.25 10.97-24 24.5-24s24.5 10.75 24.5 24-10.97 24-24.5 24-24.5-10.75-24.5-24"/><path d="M2468.5 1163.92h177.6v9.16h-177.6Zm173.02-18.34 45.83 22.92-45.83 22.92Z"/><path fill="#fdefe8" stroke="#d74514" stroke-miterlimit="8" stroke-width="9.167" d="M2686.5 1082.5h172v172h-172z"/><path fill="#d74514" fill-rule="evenodd" d="M2749 1168c0-13.25 10.75-24 24-24s24 10.75 24 24-10.75 24-24 24-24-10.75-24-24"/><path d="M2797.5 1163.92h177.6v9.16h-177.6Zm173.02-18.34 45.83 22.92-45.83 22.92Z"/><path fill="#fdefe8" stroke="#d74514" stroke-miterlimit="8" stroke-width="9.167" d="M3016.5 1082.5h172v172h-172z"/><path fill="#d74514" fill-rule="evenodd" d="M3079 1168c0-13.25 10.75-24 24-24s24 10.75 24 24-10.75 24-24 24-24-10.75-24-24"/><path d="M3127.5 1163.92h177.6v9.16h-177.6Zm173.02-18.34 45.83 22.92-45.83 22.92Z"/><path fill="#fdefe8" stroke="#d74514" stroke-miterlimit="8" stroke-width="9.167" d="M3346.5 911.5h172v171h-172z"/><path fill="#d74514" fill-rule="evenodd" d="M3409 997c0-13.255 10.75-24 24-24s24 10.745 24 24c0 13.25-10.75 24-24 24s-24-10.75-24-24"/><path d="M3457.5 992.917h507.33v9.163H3457.5Zm502.75-18.333 45.83 22.916-45.83 22.92Z"/><path fill="#fdefe8" stroke="#d74514" stroke-miterlimit="8" stroke-width="9.167" d="M3346.5 1082.5h172v172h-172z"/><path fill="#d74514" fill-rule="evenodd" d="M3409 1168c0-13.25 10.75-24 24-24s24 10.75 24 24-10.75 24-24 24-24-10.75-24-24"/><path d="M3457.5 1163.92h177.6v9.16h-177.6Zm173.02-18.34 45.83 22.92-45.83 22.92Z"/><path fill="#fdefe8" stroke="#d74514" stroke-miterlimit="8" stroke-width="9.167" d="M3676.5 1082.5h171v172h-171z"/><path fill="#d74514" fill-rule="evenodd" d="M3738 1168c0-13.25 10.97-24 24.5-24s24.5 10.75 24.5 24-10.97 24-24.5 24-24.5-10.75-24.5-24"/><path d="M3787.5 1163.92h177.6v9.16h-177.6Zm173.02-18.34 45.83 22.92-45.83 22.92Z"/><path fill="#fdefe8" d="M4005 568h172v171h-172z"/><text font-family="Microsoft YaHei,Microsoft YaHei_MSFontService,sans-serif" font-size="64" font-weight="400" transform="translate(4039.33 677)">NIL</text><path fill="#fdefe8" d="M4005 739h172v172h-172z"/><text font-family="Microsoft YaHei,Microsoft YaHei_MSFontService,sans-serif" font-size="64" font-weight="400" transform="translate(4039.33 848)">NIL</text><path fill="#fdefe8" d="M4005 911h172v171h-172z"/><text font-family="Microsoft YaHei,Microsoft YaHei_MSFontService,sans-serif" font-size="64" font-weight="400" transform="translate(4039.33 1020)">NIL</text><path fill="#fdefe8" d="M4005 1082h172v172h-172z"/><text font-family="Microsoft YaHei,Microsoft YaHei_MSFontService,sans-serif" font-size="64" font-weight="400" transform="translate(4039.33 1192)">NIL</text><path fill="#d74514" stroke="#d74514" stroke-miterlimit="8" stroke-width="9.167" d="M708.5 1254.5h172v172h-172z"/><text fill="#fff" font-family="Microsoft YaHei,Microsoft YaHei_MSFontService,sans-serif" font-size="83" font-weight="400" transform="translate(769.862 1369)">1</text><path fill="#d74514" stroke="#d74514" stroke-miterlimit="8" stroke-width="9.167" d="M1038.5 1254.5h171v172h-171z"/><text fill="#fff" font-family="Microsoft YaHei,Microsoft YaHei_MSFontService,sans-serif" font-size="83" font-weight="400" transform="translate(1099.59 1369)">2</text><path fill="#d74514" stroke="#d74514" stroke-miterlimit="8" stroke-width="9.167" d="M1368.5 1254.5h171v172h-171z"/><text fill="#fff" font-family="Microsoft YaHei,Microsoft YaHei_MSFontService,sans-serif" font-size="83" font-weight="400" transform="translate(1429.31 1369)">3</text><path fill="#d74514" stroke="#d74514" stroke-miterlimit="8" stroke-width="9.167" d="M1697.5 1254.5h172v172h-172z"/><text fill="#fff" font-family="Microsoft YaHei,Microsoft YaHei_MSFontService,sans-serif" font-size="83" font-weight="400" transform="translate(1759.04 1369)">4</text><path fill="#d74514" stroke="#d74514" stroke-miterlimit="8" stroke-width="9.167" d="M2027.5 1254.5h172v172h-172z"/><text fill="#fff" font-family="Microsoft YaHei,Microsoft YaHei_MSFontService,sans-serif" font-size="83" font-weight="400" transform="translate(2088.76 1369)">5</text><path fill="#d74514" stroke="#d74514" stroke-miterlimit="8" stroke-width="9.167" d="M2357.5 1254.5h171v172h-171z"/><text fill="#fff" font-family="Microsoft YaHei,Microsoft YaHei_MSFontService,sans-serif" font-size="83" font-weight="400" transform="translate(2418.49 1369)">6</text><path fill="#d74514" stroke="#d74514" stroke-miterlimit="8" stroke-width="9.167" d="M2686.5 1254.5h172v172h-172z"/><text fill="#fff" font-family="Microsoft YaHei,Microsoft YaHei_MSFontService,sans-serif" font-size="83" font-weight="400" transform="translate(2748.21 1369)">7</text><path fill="#d74514" stroke="#d74514" stroke-miterlimit="8" stroke-width="9.167" d="M3016.5 1254.5h172v172h-172z"/><text fill="#fff" font-family="Microsoft YaHei,Microsoft YaHei_MSFontService,sans-serif" font-size="83" font-weight="400" transform="translate(3077.94 1369)">8</text><path fill="#d74514" stroke="#d74514" stroke-miterlimit="8" stroke-width="9.167" d="M3346.5 1254.5h172v172h-172z"/><text fill="#fff" font-family="Microsoft YaHei,Microsoft YaHei_MSFontService,sans-serif" font-size="83" font-weight="400" transform="translate(3407.66 1369)">9</text><path fill="#d74514" stroke="#d74514" stroke-miterlimit="8" stroke-width="9.167" d="M3676.5 1254.5h171v172h-171z"/><text fill="#fff" font-family="Microsoft YaHei,Microsoft YaHei_MSFontService,sans-serif" font-size="83" font-weight="400" transform="translate(3713.32 1369)">10<tspan x="-3347.38" y="0" fill="#d74514">head</tspan></text></g></svg>