<svg xmlns="http://www.w3.org/2000/svg" width="2314" height="428" overflow="hidden"><defs><clipPath id="a"><path d="M373 152h2314v428H373z"/></clipPath><clipPath id="b"><path d="M1087-290h230V789h-230z"/></clipPath><clipPath id="c"><path d="M2455-290h227V789h-227z"/></clipPath></defs><g clip-path="url(#a)" transform="translate(-373 -152)"><path fill="#d74514" fill-rule="evenodd" d="M375.544 342.512h336.561v209H375.544Zm336.561 0h375.155v209H712.105Zm375.155 0h229.27v209h-229.27Zm1368.63 0h225.79v209h-225.79Z"/><path fill="none" stroke="#000" stroke-linejoin="round" stroke-miterlimit="10" stroke-width="4.583" d="M712.105 340.22v213.583M1087.26 340.22v213.583m229.27-213.583v213.583M1716 340.22v213.583m382.11-213.583v213.583m357.78-213.583v213.583M373.252 342.512H2683.98M375.544 340.22v213.583M2681.68 340.22v213.583m-2308.428-2.291H2683.98"/><text font-family="Courier New,Courier New_MSFontService,sans-serif" font-size="64" font-weight="400" transform="translate(505.439 229)">32<tspan x="-38.385" y="77">bits</tspan><tspan x="355.859" y="0">32</tspan><tspan x="317.474" y="77">bits</tspan><tspan x="658.07" y="0">16</tspan></text><g clip-path="url(#b)"><text font-family="Courier New,Courier New_MSFontService,sans-serif" font-size="64" font-weight="400" transform="translate(1125.12 306)">bits</text></g><text font-family="Courier New,Courier New_MSFontService,sans-serif" font-size="64" font-weight="400" transform="translate(2549.59 229)">8</text><g clip-path="url(#c)"><text font-family="Courier New,Courier New_MSFontService,sans-serif" font-size="64" font-weight="400" transform="translate(2492.02 306)">bits</text></g><text fill="#fff" font-family="Courier New,Courier New_MSFontService,sans-serif" font-size="73" font-weight="700" transform="translate(433.538 468)">bytes<tspan x="377.917" y="-44">t</tspan>ail <tspan x="333.802" y="44">offset</tspan><tspan x="702.185" y="0">len</tspan><tspan x="972.439" y="0" fill="#d74514">entry</tspan><tspan x="1363.23" y="0" fill="#d74514">entry</tspan><tspan x="1733.18" y="0" fill="#d74514">entry</tspan><tspan x="2069.08" y="0">end</tspan></text></g></svg>