<svg width="2310" height="427" xmlns="http://www.w3.org/2000/svg" xmlns:xlink="http://www.w3.org/1999/xlink" overflow="hidden"><defs><clipPath id="clip0"><rect x="373" y="610" width="2310" height="427"/></clipPath></defs><g clip-path="url(#clip0)" transform="translate(-373 -610)"><path d="M375.544 800.459 774.632 800.459 774.632 1009.46 375.544 1009.46Z" fill="#D74514" fill-rule="evenodd"/><path d="M774.632 800.459 1236.63 800.459 1236.63 1009.46 774.632 1009.46Z" fill="#D74514" fill-rule="evenodd"/><path d="M774.632 798.168 774.632 1011.75" stroke="#000000" stroke-width="4.58333" stroke-linejoin="round" stroke-miterlimit="10" fill="none" fill-rule="evenodd"/><path d="M1236.63 798.168 1236.63 1011.75" stroke="#000000" stroke-width="4.58333" stroke-linejoin="round" stroke-miterlimit="10" fill="none" fill-rule="evenodd"/><path d="M373.252 800.459 2680.5 800.459" stroke="#000000" stroke-width="4.58333" stroke-linejoin="round" stroke-miterlimit="10" fill="none" fill-rule="evenodd"/><path d="M375.544 798.168 375.544 1011.75" stroke="#000000" stroke-width="4.58333" stroke-linejoin="round" stroke-miterlimit="10" fill="none" fill-rule="evenodd"/><path d="M2678.21 798.168 2678.21 1011.75" stroke="#000000" stroke-width="4.58333" stroke-linejoin="round" stroke-miterlimit="10" fill="none" fill-rule="evenodd"/><path d="M373.252 1009.46 2680.5 1009.46" stroke="#000000" stroke-width="4.58333" stroke-linejoin="round" stroke-miterlimit="10" fill="none" fill-rule="evenodd"/><text font-family="Courier New,Courier New_MSFontService,sans-serif" font-weight="400" font-size="64" transform="matrix(1 0 0 1 498.317 687)">8/40<tspan font-size="64" x="0" y="77">bits</tspan><tspan font-size="64" x="372.966" y="0">8/16/40</tspan><tspan font-size="64" x="430.532" y="77">bits</tspan><tspan fill="#FFFFFF" font-weight="700" font-size="73" x="-77.6303" y="239">prevlen</tspan><tspan fill="#FFFFFF" font-weight="700" font-size="73" x="374.971" y="195">encode</tspan><tspan fill="#FFFFFF" font-weight="700" font-size="73" x="397.04" y="283">&amp; </tspan><tspan fill="#FFFFFF" font-weight="700" font-size="73" x="485.269" y="283">len</tspan><tspan fill="#D74514" font-weight="700" font-size="73" x="1304.7" y="239">content</tspan></text></g></svg>