<svg xmlns="http://www.w3.org/2000/svg" width="1720" height="1522" overflow="hidden"><defs><clipPath id="a"><path d="M2369 621h1720v1522H2369z"/></clipPath></defs><g clip-path="url(#a)" transform="translate(-2369 -621)"><path fill="#fdefe8" fill-rule="evenodd" d="M2900.91 1323.29h906.35v110h-906.35Zm0 110h906.35v389.76h-906.35Z"/><path fill="none" stroke="#d74514" stroke-linejoin="round" stroke-miterlimit="10" stroke-width="4.583" d="M2898.61 1103.29h910.94"/><path fill="none" stroke="#000" stroke-linejoin="round" stroke-miterlimit="10" stroke-width="4.583" d="M2898.61 1213.29h910.94"/><path fill="none" stroke="#d74514" stroke-linejoin="round" stroke-miterlimit="10" stroke-width="4.583" d="M2898.61 1323.29h910.94"/><path fill="none" stroke="#000" stroke-linejoin="round" stroke-miterlimit="10" stroke-width="4.583" d="M2898.61 1433.29h910.94m-908.64-722.058v392.058"/><path fill="none" stroke="#d74514" stroke-linejoin="round" stroke-miterlimit="10" stroke-width="4.583" d="M2900.91 1103.29v220"/><path fill="none" stroke="#000" stroke-linejoin="round" stroke-miterlimit="10" stroke-width="4.583" d="M2900.91 1323.29v502.05m906.35-1114.108v392.058"/><path fill="none" stroke="#d74514" stroke-linejoin="round" stroke-miterlimit="10" stroke-width="4.583" d="M3807.26 1103.29v220"/><path fill="none" stroke="#000" stroke-linejoin="round" stroke-miterlimit="10" stroke-width="4.583" d="M3807.26 1323.29v502.05M2898.61 713.524h910.94M2898.61 1823.05h910.94"/><text font-family="Microsoft YaHei,Microsoft YaHei_MSFontService,sans-serif" font-size="64" font-weight="400" transform="translate(3328.02 932)">…<tspan x="-191.641" y="246" fill="#d74514" font-family="Courier New,Courier New_MSFontService,sans-serif" font-weight="700">/bin/</tspan><tspan x=".286" y="246" fill="#d74514" font-family="Courier New,Courier New_MSFontService,sans-serif" font-weight="700">sh</tspan><tspan x="115.443" y="246" fill="#d74514" font-weight="700">地址</tspan><tspan x="-121" y="360" fill="#d74514">padding2</tspan><tspan x="-210.833" y="466" fill="#d74514" font-family="Courier New,Courier New_MSFontService,sans-serif" font-weight="700">system() </tspan><tspan x="134.636" y="466" fill="#d74514" font-weight="700">地址</tspan><tspan x="-121" y="720" fill="#d74514">padding1</tspan></text><path fill="#d74514" fill-rule="evenodd" d="M3230 1925h62v-102h124v102h62l-124 102Z"/><text fill="#5d1709" font-family="Microsoft YaHei,Microsoft YaHei_MSFontService,sans-serif" font-size="55" font-weight="700" transform="translate(3271.58 2097)">低地址<tspan x="0" y="-1406">高地址</tspan><tspan x="-733.791" y="-1162" font-weight="400">调用函数状态</tspan><tspan x="-733.791" y="-448" font-weight="400">被调函数状态</tspan><tspan x="-844.135" y="-702" font-weight="400">被调函数返回地址</tspan><tspan x="536.832" y="-641" font-weight="400">←</tspan><tspan x="591.832" y="-641" font-weight="400">ebp</tspan><tspan x="540.777" y="-252" font-weight="400">←</tspan><tspan x="595.777" y="-252" font-weight="400">esp</tspan><tspan x="568.678" y="-893" font-weight="400">栈</tspan><tspan x="623.678" y="-893" font-weight="400">溢出</tspan><tspan x="568.678" y="-827" font-weight="400">payload</tspan></text></g></svg>