<svg xmlns="http://www.w3.org/2000/svg" width="1298" height="651" overflow="hidden"><defs><clipPath id="a"><path d="M409 381h1298v651H409z"/></clipPath></defs><g clip-path="url(#a)" transform="translate(-409 -381)"><path d="M409.5 731.917h1209.26v9.167l-1209.26-.001Zm1204.67-18.333 45.83 22.917-45.83 22.916Z"/><path d="M1061.083 1008.96V468.75h-9.166v540.21Zm18.334-535.626L1056.5 427.5l-22.916 45.834Z"/><path fill="none" stroke="#f8ccb9" stroke-dasharray="27.5 9.16667" stroke-miterlimit="8" stroke-width="9.167" d="M409.5 556.5H1660m-1250.5 358H1660"/><path fill="none" stroke="#d74514" stroke-miterlimit="8" stroke-width="9.167" d="M752.5 735.64c21.357-51.451 42.714-102.902 64.286-132.425 21.571-29.523 43.571-44.715 65.143-44.715 21.571 0 42.857 15.048 64.286 44.715 21.428 29.667 42.857 81.476 64.285 133.285m-517-.14c21.44 51.451 42.88 102.902 64.535 132.425s43.74 44.715 65.395 44.715 43.024-15.048 64.535-44.715C709.477 839.12 730.988 787.31 752.5 735.5m517-1.86c21.36-51.451 42.71-102.902 64.29-132.425 21.57-29.523 43.57-44.715 65.14-44.715s42.86 15.048 64.28 44.715c21.43 29.667 42.86 81.476 64.29 133.285m-517-.14c21.44 51.451 42.88 102.902 64.535 132.425s43.74 44.715 65.395 44.715 43.024-15.048 64.535-44.715c21.512-29.667 43.023-81.476 64.535-133.285"/><path fill-rule="evenodd" d="M1609.82 646.968h5.59l-2.23 10.011h12.32l-.89 4.093h-12.32l-3.61 15.724c-.7 3.053-1.15 5.249-1.33 6.586-.19 1.338-.29 2.412-.29 3.222 0 3.35 1.39 5.025 4.18 5.025 1.19 0 2.45-.452 3.79-1.357 1.33-.905 2.92-2.452 4.76-4.641l2.35 2.432c-2.35 2.837-4.62 4.931-6.79 6.282-2.18 1.351-4.45 2.026-6.83 2.026-5.65 0-8.47-2.85-8.47-8.551q0-2.715.69-5.714l4.78-21.034h-6.81l.61-2.797c1.6-.027 2.8-.148 3.63-.364q1.23-.324 2.07-.892c.55-.378 1.06-.919 1.52-1.621.45-.702.9-1.601 1.33-2.695q.645-1.641 1.95-5.735"/><text x="1598.71" y="690.196" fill-opacity="0" font-family="Arial,Arial_MSFontService,sans-serif" font-size="49.403">𝑡</text><path fill-rule="evenodd" d="M1115.52 476.68c.84 0 1.57.095 2.21.284q.945.283 1.68.871c.49.392.92.898 1.3 1.52.38.621.74 1.466 1.09 2.533s.68 2.391 1 3.971c.31 1.581.58 3.222.83 4.925h.4c2.6-3.648 4.56-6.316 5.9-8.005 1.34-1.688 2.46-2.945 3.38-3.769s1.81-1.405 2.66-1.742c.85-.338 1.98-.507 3.38-.507q1.905 0 3.12.486l-1.62 7.336h-2.84c-.16-1.135-.63-1.702-1.42-1.702-.24 0-.5.04-.77.121q-.405.122-.99.527c-.39.27-.96.797-1.72 1.581q-1.14 1.174-2.55 2.877c-.95 1.135-1.92 2.324-2.92 3.567l-2.76 3.444q.735 3.891 1.38 6.728c.43 1.891.82 3.465 1.16 4.721.33 1.257.63 2.25.89 2.979.25.73.53 1.277.83 1.641s.6.622.91.77.67.223 1.07.223q1.095 0 2.13-.851c.69-.567 1.68-1.85 2.98-3.85l2.63 1.743c-1.89 2.81-3.6 4.789-5.12 5.937-1.53 1.148-3.35 1.723-5.45 1.723-1.17 0-2.15-.21-2.96-.629-.81-.418-1.51-1.087-2.11-2.006-.59-.918-1.12-2.35-1.58-4.296-.84-3.458-1.35-6.106-1.54-7.943h-.41c-2.86 4.026-4.99 6.917-6.38 8.673s-2.54 3.053-3.44 3.89q-1.365 1.257-2.64 1.763c-.85.338-1.98.507-3.38.507q-1.905 0-3.12-.486l1.62-7.336h2.84q.24 1.702 1.41 1.702.57 0 1.2-.304.63-.303 1.8-1.459c.79-.77 1.87-1.979 3.25-3.627 1.37-1.648 3.37-4.12 5.99-7.416-.4-2.135-.82-4.188-1.25-6.16s-.88-3.81-1.34-5.512-.84-2.817-1.13-3.344q-.45-.79-.96-1.094c-.33-.203-.76-.304-1.27-.304-.57 0-1.08.129-1.54.385q-.69.385-1.5 1.338c-.54.635-1.26 1.627-2.15 2.978l-2.64-1.742c1.71-2.567 3.34-4.485 4.91-5.755q2.355-1.905 5.55-1.905"/><text x="1100.73" y="511.751" fill-opacity="0" font-family="Arial,Arial_MSFontService,sans-serif" font-size="40.081">𝑥</text><path fill-rule="evenodd" d="M1217.67 453.999q11.835 3.12 18.18 13.475c4.22 6.903 6.34 15.232 6.34 24.985 0 9.781-2.11 18.109-6.32 24.986-4.22 6.876-10.28 11.354-18.2 13.434l-.97-3.12q9.36-3.12 13.92-12.321 4.56-9.199 4.56-23.384c0-9.132-1.52-16.717-4.54-22.756-3.03-6.039-7.72-10.098-14.06-12.178Zm-39.73 0 1.09 3.121q-9.48 3.12-14.04 12.178t-4.56 22.756q0 14.185 4.56 23.384t13.92 12.321l-.97 3.12c-7.92-2.08-13.98-6.558-18.2-13.434-4.21-6.877-6.32-15.205-6.32-24.986 0-9.753 2.11-18.082 6.34-24.985q6.345-10.355 18.18-13.475m18.27 13.36h5.59l-2.23 10.01h12.32l-.89 4.093h-12.32l-3.61 15.725c-.7 3.053-1.14 5.248-1.33 6.586-.19 1.337-.29 2.411-.29 3.221 0 3.351 1.39 5.026 4.18 5.026 1.19 0 2.45-.453 3.79-1.358 1.33-.905 2.92-2.452 4.76-4.64l2.35 2.431c-2.35 2.837-4.61 4.931-6.79 6.282-2.17 1.351-4.45 2.027-6.83 2.027-5.65 0-8.47-2.851-8.47-8.552q0-2.715.69-5.714l4.78-21.034h-6.81l.61-2.796q2.4-.04 3.63-.365 1.23-.324 2.07-.892c.55-.378 1.06-.918 1.52-1.621.46-.702.9-1.6 1.33-2.695.44-1.094 1.08-3.005 1.95-5.734"/><text x="1185.1" y="510.586" fill-opacity="0" font-family="Arial,Arial_MSFontService,sans-serif" font-size="49.403">𝑡</text><path fill="#d74514" fill-rule="evenodd" d="m488.13 597.967-14.427 25.532h15.846l-.689-13.05a273 273 0 0 1-.203-6.687 324 324 0 0 1-.081-5.795Zm.243-8.551h6.12l2.918 45.188q.202 3.202.73 5.005.526 1.803 1.438 2.675t2.655 1.114l-.446 1.986h-16.859l.445-1.986q2.391-.202 3.567-1.864 1.175-1.662 1.175-5.836 0-1.58-.121-3.445l-.284-5.228h-17.832l-2.229 3.972q-1.581 2.796-2.31 4.802-.73 2.007-.73 3.546 0 3.405 4.093 4.053l-.445 1.986h-16.576l.446-1.986q1.256-.162 2.371-.993 1.114-.83 2.371-2.512 1.255-1.683 3.525-5.573Z"/><text x="453.682" y="638.388" fill-opacity="0" font-family="Arial,Arial_MSFontService,sans-serif" font-size="55.968">𝐴</text><path fill="#d74514" fill-rule="evenodd" d="M460.667 967.783h49.929v5.39h-49.929Z"/><text x="460.667" y="972.499" fill-opacity="0" font-family="Arial,Arial_MSFontService,sans-serif" font-size="5.39">−</text><path fill="#d74514" fill-rule="evenodd" d="m550.424 946.79-14.427 25.532h15.846l-.689-13.05a273 273 0 0 1-.203-6.687 325 325 0 0 1-.081-5.795Zm.244-8.552h6.119l2.918 45.188q.202 3.202.73 5.006.527 1.803 1.438 2.674.912.872 2.655 1.115l-.446 1.986h-16.859l.446-1.986q2.39-.203 3.566-1.864t1.175-5.836q0-1.58-.121-3.445l-.284-5.228h-17.832l-2.229 3.971q-1.581 2.798-2.31 4.803t-.73 3.546q0 3.405 4.094 4.053l-.446 1.986h-16.576l.446-1.986q1.257-.162 2.371-.993t2.371-2.513 3.526-5.572Z"/><text x="515.976" y="987.211" fill-opacity="0" font-family="Arial,Arial_MSFontService,sans-serif" font-size="55.968">𝐴</text></g></svg>