<svg width="1298" height="491" xmlns="http://www.w3.org/2000/svg" xmlns:xlink="http://www.w3.org/1999/xlink" overflow="hidden"><defs><clipPath id="clip0"><rect x="409" y="1911" width="1298" height="491"/></clipPath></defs><g clip-path="url(#clip0)" transform="translate(-409 -1911)"><path d="M409.5 2266.92 1618.76 2266.92 1618.76 2276.08 409.5 2276.08ZM1614.17 2248.58 1660 2271.5 1614.17 2294.42Z"/><path d="M4.58333-3.76507e-06 4.58366 398.075-4.58301 398.075-4.58333 3.76507e-06ZM22.917 393.492 0.000360892 439.326-22.9163 393.492Z" transform="matrix(1 0 0 -1 1003.5 2401.83)"/><path d="M1625.65 2172.58C1628.3 2172.58 1630.58 2172.8 1632.5 2173.23L1630.92 2180.12 1627.35 2180.12C1626.97 2178.58 1626.48 2177.47 1625.87 2176.79 1625.27 2176.12 1624.37 2175.78 1623.18 2175.78 1621.64 2175.78 1620.34 2176.21 1619.27 2177.06 1618.2 2177.91 1617.29 2179.17 1616.53 2180.85 1615.78 2182.52 1615.07 2184.78 1614.42 2187.61L1613.41 2192.03 1623.83 2192.03 1622.94 2196.13 1612.48 2196.13 1604.94 2231.47C1603.7 2237.33 1601.79 2241.7 1599.23 2244.58 1596.66 2247.45 1593.43 2248.89 1589.54 2248.89 1588.41 2248.89 1587.51 2248.82 1586.87 2248.69L1587.56 2245.12C1587.83 2245.2 1588.46 2245.24 1589.46 2245.24 1590.68 2245.24 1591.72 2244.93 1592.58 2244.31 1593.45 2243.69 1594.25 2242.61 1594.99 2241.07 1595.74 2239.53 1596.42 2237.4 1597.04 2234.67L1605.75 2196.13 1598.9 2196.13 1599.51 2193.33C1601.32 2193.22 1602.62 2193.07 1603.42 2192.88 1604.22 2192.69 1604.84 2192.41 1605.29 2192.03 1605.73 2191.65 1606.11 2191.16 1606.42 2190.55 1606.73 2189.95 1607.13 2188.83 1607.62 2187.21 1609.05 2182.35 1611.26 2178.69 1614.24 2176.25 1617.23 2173.8 1621.03 2172.58 1625.65 2172.58Z" fill-rule="evenodd"/><text fill="#000000" fill-opacity="0" font-family="Arial,Arial_MSFontService,sans-serif" font-size="76.313" x="1586.87" y="2239.35">𝑓</text><path d="M1233.14 1989.78 1239.38 1989.78 1239.38 2065.2 1233.14 2065.2ZM1044.28 1989.78 1050.53 1989.78 1050.53 2065.2 1044.28 2065.2Z" fill-rule="evenodd"/><path d="M1076.39 2011.73C1077.22 2011.73 1077.96 2011.83 1078.59 2012.02 1079.23 2012.21 1079.79 2012.5 1080.28 2012.89 1080.76 2013.28 1081.19 2013.79 1081.57 2014.41 1081.95 2015.03 1082.32 2015.87 1082.67 2016.94 1083.02 2018.01 1083.35 2019.33 1083.66 2020.91 1083.97 2022.49 1084.25 2024.14 1084.49 2025.84L1084.9 2025.84C1087.49 2022.19 1089.46 2019.52 1090.79 2017.83 1092.13 2016.14 1093.26 2014.89 1094.18 2014.06 1095.1 2013.24 1095.98 2012.66 1096.83 2012.32 1097.68 2011.98 1098.81 2011.81 1100.22 2011.81 1101.48 2011.81 1102.53 2011.98 1103.34 2012.3L1101.71 2019.64 1098.88 2019.64C1098.72 2018.5 1098.24 2017.93 1097.46 2017.93 1097.22 2017.93 1096.96 2017.98 1096.69 2018.06 1096.42 2018.14 1096.09 2018.31 1095.7 2018.58 1095.3 2018.85 1094.73 2019.38 1093.97 2020.16 1093.22 2020.95 1092.37 2021.91 1091.42 2023.04 1090.47 2024.18 1089.5 2025.36 1088.5 2026.61L1085.75 2030.05C1086.23 2032.65 1086.69 2034.89 1087.12 2036.78 1087.56 2038.67 1087.94 2040.24 1088.28 2041.5 1088.62 2042.76 1088.91 2043.75 1089.17 2044.48 1089.43 2045.21 1089.7 2045.76 1090 2046.12 1090.3 2046.49 1090.6 2046.74 1090.91 2046.89 1091.22 2047.04 1091.58 2047.11 1091.99 2047.11 1092.72 2047.11 1093.43 2046.83 1094.12 2046.26 1094.8 2045.7 1095.8 2044.41 1097.09 2042.41L1099.73 2044.16C1097.84 2046.97 1096.13 2048.94 1094.6 2050.09 1093.08 2051.24 1091.26 2051.82 1089.15 2051.82 1087.99 2051.82 1087 2051.61 1086.19 2051.19 1085.38 2050.77 1084.68 2050.1 1084.09 2049.18 1083.49 2048.26 1082.96 2046.83 1082.5 2044.89 1081.67 2041.43 1081.15 2038.78 1080.96 2036.94L1080.56 2036.94C1077.7 2040.97 1075.57 2043.86 1074.18 2045.61 1072.78 2047.37 1071.64 2048.67 1070.73 2049.51 1069.83 2050.34 1068.95 2050.93 1068.1 2051.27 1067.25 2051.61 1066.12 2051.77 1064.71 2051.77 1063.44 2051.77 1062.4 2051.61 1061.59 2051.29L1063.21 2043.95 1066.05 2043.95C1066.21 2045.09 1066.69 2045.66 1067.47 2045.66 1067.85 2045.66 1068.25 2045.55 1068.66 2045.35 1069.08 2045.15 1069.68 2044.66 1070.47 2043.89 1071.25 2043.12 1072.33 2041.91 1073.71 2040.27 1075.09 2038.62 1077.09 2036.14 1079.71 2032.85 1079.3 2030.71 1078.88 2028.66 1078.45 2026.69 1078.02 2024.72 1077.57 2022.88 1077.11 2021.18 1076.66 2019.47 1076.28 2018.36 1075.98 2017.83 1075.68 2017.31 1075.37 2016.94 1075.03 2016.74 1074.69 2016.54 1074.26 2016.44 1073.75 2016.44 1073.18 2016.44 1072.67 2016.56 1072.21 2016.82 1071.75 2017.08 1071.25 2017.52 1070.71 2018.16 1070.17 2018.79 1069.45 2019.79 1068.56 2021.14L1065.93 2019.39C1067.63 2016.83 1069.27 2014.91 1070.83 2013.64 1072.4 2012.37 1074.25 2011.73 1076.39 2011.73Z" fill-rule="evenodd"/><text fill="#000000" fill-opacity="0" font-family="Arial,Arial_MSFontService,sans-serif" font-size="40.0815" x="1061.59" y="2046.81">𝑥</text><path d="M1191.53 1989.05C1199.42 1991.13 1205.48 1995.62 1209.7 2002.53 1213.93 2009.43 1216.05 2017.76 1216.05 2027.51 1216.05 2037.29 1213.94 2045.62 1209.72 2052.5 1205.51 2059.37 1199.44 2063.85 1191.53 2065.93L1190.55 2062.81C1196.8 2060.73 1201.44 2056.63 1204.48 2050.49 1207.52 2044.36 1209.04 2036.56 1209.04 2027.11 1209.04 2017.98 1207.52 2010.39 1204.5 2004.35 1201.47 1998.31 1196.78 1994.25 1190.43 1992.17ZM1138.8 1989.05 1139.9 1992.17C1133.58 1994.25 1128.89 1998.31 1125.85 2004.35 1122.82 2010.39 1121.3 2017.98 1121.3 2027.11 1121.3 2036.56 1122.82 2044.36 1125.85 2050.49 1128.89 2056.63 1133.53 2060.73 1139.78 2062.81L1138.8 2065.93C1130.89 2063.85 1124.82 2059.37 1120.61 2052.5 1116.39 2045.62 1114.28 2037.29 1114.28 2027.51 1114.28 2017.76 1116.4 2009.43 1120.63 2002.53 1124.85 1995.62 1130.91 1991.13 1138.8 1989.05Z" fill-rule="evenodd"/><path d="M1179.4 1992.97C1182.05 1992.97 1184.33 1993.19 1186.25 1993.62L1184.67 2000.51 1181.11 2000.51C1180.73 1998.97 1180.23 1997.86 1179.63 1997.18 1179.02 1996.51 1178.12 1996.17 1176.93 1996.17 1175.39 1996.17 1174.09 1996.6 1173.02 1997.45 1171.95 1998.3 1171.04 1999.56 1170.28 2001.24 1169.53 2002.91 1168.83 2005.17 1168.18 2008.01L1167.16 2012.42 1177.58 2012.42 1176.69 2016.52 1166.23 2016.52 1158.69 2051.86C1157.45 2057.72 1155.55 2062.09 1152.98 2064.97 1150.41 2067.84 1147.18 2069.28 1143.29 2069.28 1142.16 2069.28 1141.27 2069.22 1140.62 2069.08L1141.31 2065.51C1141.58 2065.59 1142.21 2065.64 1143.21 2065.64 1144.43 2065.64 1145.47 2065.32 1146.33 2064.7 1147.2 2064.08 1148 2063 1148.74 2061.46 1149.49 2059.92 1150.17 2057.79 1150.79 2055.06L1159.5 2016.52 1152.66 2016.52 1153.26 2013.72C1155.07 2013.61 1156.38 2013.46 1157.17 2013.27 1157.97 2013.08 1158.59 2012.8 1159.04 2012.42 1159.48 2012.04 1159.86 2011.55 1160.17 2010.94 1160.48 2010.34 1160.88 2009.22 1161.37 2007.6 1162.8 2002.74 1165.01 1999.08 1167.99 1996.64 1170.98 1994.19 1174.78 1992.97 1179.4 1992.97Z" fill-rule="evenodd"/><text fill="#000000" fill-opacity="0" font-family="Arial,Arial_MSFontService,sans-serif" font-size="76.313" x="1140.62" y="2059.74">𝑓</text><path d="M666.592 1955.37 652.164 1980.9 668.01 1980.9 667.321 1967.85C667.24 1966.07 667.173 1963.84 667.119 1961.17 667.065 1958.49 667.037 1956.56 667.037 1955.37ZM666.835 1946.82 672.954 1946.82 675.872 1992.01C676.008 1994.14 676.251 1995.81 676.602 1997.01 676.953 1998.21 677.433 1999.11 678.041 1999.69 678.649 2000.27 679.533 2000.64 680.695 2000.8L680.249 2002.79 663.39 2002.79 663.836 2000.8C665.43 2000.67 666.619 2000.05 667.402 1998.94 668.186 1997.83 668.578 1995.88 668.578 1993.1 668.578 1992.05 668.537 1990.9 668.456 1989.66L668.172 1984.43 650.34 1984.43 648.111 1988.4C647.057 1990.26 646.287 1991.87 645.801 1993.2 645.315 1994.54 645.072 1995.72 645.072 1996.75 645.072 1999.02 646.436 2000.37 649.165 2000.8L648.719 2002.79 632.143 2002.79 632.589 2000.8C633.427 2000.69 634.217 2000.36 634.96 1999.81 635.703 1999.26 636.493 1998.42 637.331 1997.3 638.169 1996.17 639.344 1994.32 640.857 1991.72Z" fill="#D74514" fill-rule="evenodd"/><text fill="#000000" fill-opacity="0" font-family="Arial,Arial_MSFontService,sans-serif" font-size="55.9683" x="632.143" y="1995.79">𝐴</text><path d="M659.526 2064.45C664.551 2064.45 668.347 2065.55 670.914 2067.75 673.481 2069.96 674.764 2073.15 674.764 2077.34 674.764 2078.77 674.622 2080.09 674.338 2081.29 674.055 2082.49 673.609 2083.68 673.001 2084.86 672.393 2086.03 671.576 2087.29 670.549 2088.65 669.522 2090 668.388 2091.37 667.145 2092.76 665.902 2094.15 663.754 2096.47 660.701 2099.71 655.567 2105.14 651.798 2109.88 649.394 2113.93L664.673 2113.93C665.997 2113.93 667.064 2113.85 667.874 2113.69 668.685 2113.53 669.333 2113.26 669.82 2112.88 670.306 2112.5 670.691 2112.01 670.975 2111.4 671.258 2110.79 671.616 2109.85 672.049 2108.58L675.493 2108.58 674.804 2120.42 641.45 2120.42 641.45 2118.47C642.612 2115.64 644.179 2112.73 646.152 2109.76 648.124 2106.79 650.92 2103.29 654.541 2099.26 657.675 2095.81 659.931 2093.18 661.309 2091.4 662.822 2089.46 663.95 2087.77 664.693 2086.36 665.436 2084.94 665.969 2083.6 666.294 2082.34 666.618 2081.09 666.78 2079.82 666.78 2078.55 666.78 2076.53 666.456 2074.74 665.807 2073.18 665.159 2071.63 664.166 2070.41 662.829 2069.52 661.491 2068.62 659.809 2068.18 657.783 2068.18 652.731 2068.18 649.326 2070.99 647.57 2076.61L642.666 2076.61 642.666 2068.83C645.935 2067.29 648.995 2066.17 651.846 2065.48 654.696 2064.79 657.256 2064.45 659.526 2064.45Z" fill="#D74514" fill-rule="evenodd"/><text fill="#000000" fill-opacity="0" font-family="Arial,Arial_MSFontService,sans-serif" font-size="55.9683" x="641.45" y="2113.42">2</text><path d="M632.337 2039.23 645.587 2039.23 658.837 2039.23 672.087 2039.23 685.337 2039.23 685.337 2044.23 672.087 2044.23 658.837 2044.23 645.587 2044.23 632.337 2044.23Z" fill="#D74514" fill-rule="evenodd"/><path d="M633.345 2337.99 683.275 2337.99 683.275 2343.38 633.345 2343.38Z" fill-rule="evenodd"/><text fill="#000000" fill-opacity="0" font-family="Arial,Arial_MSFontService,sans-serif" font-size="5.39014" x="633.345" y="2342.71">−</text><path d="M727.358 2306.22C730.006 2306.22 732.289 2306.43 734.207 2306.86L732.627 2313.75 729.06 2313.75C728.682 2312.21 728.189 2311.11 727.581 2310.43 726.973 2309.75 726.075 2309.42 724.886 2309.42 723.346 2309.42 722.042 2309.84 720.975 2310.69 719.908 2311.54 718.996 2312.81 718.24 2314.48 717.483 2316.16 716.781 2318.41 716.132 2321.25L715.119 2325.67 725.535 2325.67 724.643 2329.76 714.187 2329.76 706.649 2365.1C705.406 2370.96 703.501 2375.33 700.934 2378.21 698.368 2381.09 695.139 2382.53 691.248 2382.53 690.114 2382.53 689.222 2382.46 688.574 2382.33L689.263 2378.76C689.533 2378.84 690.168 2378.88 691.167 2378.88 692.383 2378.88 693.423 2378.57 694.288 2377.95 695.153 2377.33 695.956 2376.25 696.699 2374.71 697.442 2373.17 698.125 2371.03 698.746 2368.3L707.459 2329.76 700.61 2329.76 701.218 2326.97C703.028 2326.86 704.332 2326.71 705.129 2326.52 705.926 2326.33 706.547 2326.05 706.993 2325.67 707.439 2325.29 707.817 2324.8 708.128 2324.19 708.439 2323.58 708.837 2322.47 709.324 2320.85 710.756 2315.98 712.964 2312.33 715.95 2309.88 718.935 2307.44 722.738 2306.22 727.358 2306.22Z" fill-rule="evenodd"/><text fill="#000000" fill-opacity="0" font-family="Arial,Arial_MSFontService,sans-serif" font-size="76.313" x="688.574" y="2372.99">𝑓</text><path d="M739.225 2345.57C737.835 2345.57 736.674 2345.94 735.741 2346.66 734.807 2347.39 734.068 2348.45 733.522 2349.85 732.975 2351.25 732.588 2352.96 732.36 2354.97 732.132 2356.99 732.017 2359.28 732.017 2361.84 732.017 2364.8 732.161 2367.35 732.449 2369.51 732.737 2371.66 733.184 2373.43 733.79 2374.82 734.395 2376.21 735.155 2377.24 736.068 2377.89 736.982 2378.55 738.074 2378.87 739.345 2378.87 740.536 2378.87 741.578 2378.57 742.472 2377.95 743.366 2377.33 744.105 2376.38 744.691 2375.08 745.277 2373.78 745.719 2372.13 746.016 2370.13 746.314 2368.14 746.463 2365.78 746.463 2363.06 746.463 2360 746.299 2357.37 745.972 2355.16 745.644 2352.96 745.182 2351.15 744.587 2349.73 743.991 2348.31 743.241 2347.26 742.338 2346.59 741.434 2345.91 740.397 2345.57 739.225 2345.57ZM739.345 2342.68C741.708 2342.68 743.728 2343.13 745.406 2344.01 747.084 2344.89 748.454 2346.15 749.516 2347.79 750.578 2349.43 751.358 2351.43 751.854 2353.79 752.351 2356.16 752.599 2358.83 752.599 2361.81 752.599 2368.42 751.427 2373.42 749.084 2376.8 746.741 2380.19 743.346 2381.88 738.898 2381.88 734.49 2381.88 731.213 2380.28 729.069 2377.09 726.924 2373.89 725.852 2369.04 725.852 2362.55 725.852 2359.16 726.184 2356.22 726.85 2353.74 727.515 2351.25 728.448 2349.19 729.649 2347.55 730.851 2345.92 732.276 2344.7 733.924 2343.89 735.572 2343.09 737.379 2342.68 739.345 2342.68Z" fill-rule="evenodd"/><text fill="#000000" fill-opacity="0" font-family="Arial,Arial_MSFontService,sans-serif" font-size="39.1973" x="725.852" y="2376.98">0</text><path d="M4.58333-7.51738e-06 4.58363 178.785-4.58304 178.785-4.58333 7.51738e-06ZM22.917 174.202 0.000360892 220.035-22.9164 174.202Z" fill="#D74514" transform="matrix(1 0 0 -1 723.5 2271.54)"/><path d="M4.58333-7.51738e-06 4.58363 178.785-4.58304 178.785-4.58333 7.51738e-06ZM22.917 174.202 0.000360892 220.035-22.9164 174.202Z" fill="#D74514" transform="matrix(1 0 0 -1 1277.5 2271.54)"/><path d="M1343.39 1953.41 1328.96 1978.95 1344.81 1978.95 1344.12 1965.9C1344.04 1964.11 1343.97 1961.88 1343.91 1959.21 1343.86 1956.53 1343.83 1954.6 1343.83 1953.41ZM1343.63 1944.86 1349.75 1944.86 1352.67 1990.05C1352.8 1992.19 1353.05 1993.85 1353.4 1995.06 1353.75 1996.26 1354.23 1997.15 1354.84 1997.73 1355.44 1998.31 1356.33 1998.68 1357.49 1998.85L1357.05 2000.83 1340.19 2000.83 1340.63 1998.85C1342.23 1998.71 1343.41 1998.09 1344.2 1996.98 1344.98 1995.87 1345.37 1993.93 1345.37 1991.15 1345.37 1990.09 1345.33 1988.94 1345.25 1987.7L1344.97 1982.47 1327.14 1982.47 1324.91 1986.44C1323.85 1988.31 1323.08 1989.91 1322.6 1991.25 1322.11 1992.58 1321.87 1993.77 1321.87 1994.79 1321.87 1997.06 1323.23 1998.41 1325.96 1998.85L1325.52 2000.83 1308.94 2000.83 1309.39 1998.85C1310.22 1998.74 1311.01 1998.41 1311.76 1997.85 1312.5 1997.3 1313.29 1996.46 1314.13 1995.34 1314.96 1994.22 1316.14 1992.36 1317.65 1989.77Z" fill="#D74514" fill-rule="evenodd"/><text fill="#000000" fill-opacity="0" font-family="Arial,Arial_MSFontService,sans-serif" font-size="55.9683" x="1308.94" y="1993.84">𝐴</text><path d="M1336.32 2062.49C1341.35 2062.49 1345.14 2063.6 1347.71 2065.8 1350.28 2068 1351.56 2071.19 1351.56 2075.38 1351.56 2076.81 1351.42 2078.13 1351.13 2079.33 1350.85 2080.54 1350.4 2081.72 1349.8 2082.9 1349.19 2084.07 1348.37 2085.34 1347.35 2086.69 1346.32 2088.04 1345.18 2089.41 1343.94 2090.8 1342.7 2092.19 1340.55 2094.51 1337.5 2097.75 1332.36 2103.18 1328.59 2107.93 1326.19 2111.98L1341.47 2111.98C1342.79 2111.98 1343.86 2111.9 1344.67 2111.73 1345.48 2111.57 1346.13 2111.3 1346.62 2110.92 1347.1 2110.55 1347.49 2110.05 1347.77 2109.45 1348.05 2108.84 1348.41 2107.9 1348.84 2106.63L1352.29 2106.63 1351.6 2118.46 1318.25 2118.46 1318.25 2116.52C1319.41 2113.68 1320.98 2110.78 1322.95 2107.8 1324.92 2104.83 1327.72 2101.33 1331.34 2097.31 1334.47 2093.85 1336.73 2091.23 1338.1 2089.44 1339.62 2087.5 1340.75 2085.82 1341.49 2084.4 1342.23 2082.98 1342.77 2081.64 1343.09 2080.39 1343.41 2079.13 1343.58 2077.87 1343.58 2076.6 1343.58 2074.57 1343.25 2072.78 1342.6 2071.23 1341.95 2069.67 1340.96 2068.45 1339.62 2067.56 1338.29 2066.67 1336.61 2066.22 1334.58 2066.22 1329.53 2066.22 1326.12 2069.03 1324.37 2074.65L1319.46 2074.65 1319.46 2066.87C1322.73 2065.33 1325.79 2064.22 1328.64 2063.53 1331.49 2062.84 1334.05 2062.49 1336.32 2062.49Z" fill="#D74514" fill-rule="evenodd"/><text fill="#000000" fill-opacity="0" font-family="Arial,Arial_MSFontService,sans-serif" font-size="55.9683" x="1318.25" y="2111.47">2</text><path d="M1309.47 2037.27 1362.47 2037.27 1362.47 2042.27 1309.47 2042.27Z" fill="#D74514" fill-rule="evenodd"/><path d="M1279.02 2305.73C1281.66 2305.73 1283.95 2305.95 1285.87 2306.38L1284.28 2313.27 1280.72 2313.27C1280.34 2311.73 1279.85 2310.62 1279.24 2309.95 1278.63 2309.27 1277.73 2308.93 1276.54 2308.93 1275 2308.93 1273.7 2309.36 1272.63 2310.21 1271.57 2311.06 1270.65 2312.32 1269.9 2314 1269.14 2315.67 1268.44 2317.93 1267.79 2320.77L1266.78 2325.18 1277.19 2325.18 1276.3 2329.28 1265.84 2329.28 1258.31 2364.62C1257.06 2370.48 1255.16 2374.85 1252.59 2377.73 1250.03 2380.61 1246.8 2382.04 1242.91 2382.04 1241.77 2382.04 1240.88 2381.98 1240.23 2381.84L1240.92 2378.28C1241.19 2378.36 1241.83 2378.4 1242.83 2378.4 1244.04 2378.4 1245.08 2378.09 1245.95 2377.46 1246.81 2376.84 1247.61 2375.76 1248.36 2374.22 1249.1 2372.68 1249.78 2370.55 1250.4 2367.82L1259.12 2329.28 1252.27 2329.28 1252.88 2326.48C1254.69 2326.37 1255.99 2326.22 1256.79 2326.04 1257.58 2325.85 1258.21 2325.56 1258.65 2325.18 1259.1 2324.81 1259.48 2324.31 1259.79 2323.71 1260.1 2323.1 1260.5 2321.98 1260.98 2320.36 1262.41 2315.5 1264.62 2311.84 1267.61 2309.4 1270.59 2306.95 1274.4 2305.73 1279.02 2305.73Z" fill-rule="evenodd"/><text fill="#000000" fill-opacity="0" font-family="Arial,Arial_MSFontService,sans-serif" font-size="76.313" x="1240.23" y="2372.51">𝑓</text><path d="M1290.88 2345.09C1289.49 2345.09 1288.33 2345.45 1287.4 2346.18 1286.47 2346.9 1285.73 2347.96 1285.18 2349.36 1284.63 2350.76 1284.25 2352.47 1284.02 2354.49 1283.79 2356.5 1283.68 2358.79 1283.68 2361.35 1283.68 2364.31 1283.82 2366.87 1284.11 2369.02 1284.4 2371.18 1284.84 2372.95 1285.45 2374.34 1286.05 2375.73 1286.81 2376.75 1287.73 2377.41 1288.64 2378.06 1289.73 2378.39 1291 2378.39 1292.19 2378.39 1293.24 2378.08 1294.13 2377.47 1295.02 2376.85 1295.76 2375.89 1296.35 2374.59 1296.93 2373.29 1297.38 2371.64 1297.67 2369.65 1297.97 2367.65 1298.12 2365.29 1298.12 2362.57 1298.12 2359.52 1297.96 2356.88 1297.63 2354.68 1297.3 2352.48 1296.84 2350.66 1296.24 2349.24 1295.65 2347.82 1294.9 2346.78 1294 2346.1 1293.09 2345.43 1292.05 2345.09 1290.88 2345.09ZM1291 2342.2C1293.37 2342.2 1295.39 2342.64 1297.06 2343.53 1298.74 2344.41 1300.11 2345.67 1301.17 2347.31 1302.24 2348.95 1303.02 2350.95 1303.51 2353.31 1304.01 2355.67 1304.26 2358.34 1304.26 2361.32 1304.26 2367.93 1303.09 2372.93 1300.74 2376.32 1298.4 2379.7 1295 2381.4 1290.56 2381.4 1286.15 2381.4 1282.87 2379.8 1280.73 2376.6 1278.58 2373.41 1277.51 2368.56 1277.51 2362.07 1277.51 2358.67 1277.84 2355.73 1278.51 2353.25 1279.17 2350.77 1280.11 2348.71 1281.31 2347.07 1282.51 2345.43 1283.93 2344.21 1285.58 2343.41 1287.23 2342.6 1289.04 2342.2 1291 2342.2Z" fill-rule="evenodd"/><text fill="#000000" fill-opacity="0" font-family="Arial,Arial_MSFontService,sans-serif" font-size="39.1973" x="1277.51" y="2376.5">0</text></g></svg>