<svg xmlns="http://www.w3.org/2000/svg" width="1298" height="490" overflow="hidden"><defs><clipPath id="a"><path d="M409 1346h1298v490H409z"/></clipPath></defs><g clip-path="url(#a)" transform="translate(-409 -1346)"><path d="M409.5 1700.92h1209.26v9.16H409.5Zm1204.67-18.34 45.83 22.92-45.83 22.92Z"/><path d="M1008.083 1835.83v-398.075h-9.166v398.075Zm18.334-393.492-22.917-45.834-22.916 45.834Z"/><path fill-rule="evenodd" d="M1625.65 1606.76c2.65 0 4.93.21 6.85.64l-1.58 6.89h-3.57c-.37-1.54-.87-2.64-1.48-3.32-.6-.68-1.5-1.01-2.69-1.01-1.54 0-2.84.42-3.91 1.27s-1.98 2.12-2.74 3.79c-.75 1.68-1.46 3.93-2.1 6.77l-1.02 4.42h10.42l-.89 4.09h-10.46l-7.54 35.34c-1.24 5.86-3.15 10.23-5.71 13.11q-3.855 4.32-9.69 4.32c-1.13 0-2.02-.07-2.67-.2l.69-3.57c.27.08.9.12 1.9.12q1.83 0 3.12-.93c.87-.62 1.67-1.7 2.41-3.24.75-1.54 1.43-3.68 2.05-6.41l8.71-38.54h-6.85l.61-2.79c1.81-.11 3.12-.26 3.91-.45.8-.19 1.42-.47 1.87-.85.44-.38.82-.87 1.13-1.48s.71-1.72 1.2-3.34c1.43-4.87 3.64-8.52 6.62-10.97 2.99-2.44 6.79-3.66 11.41-3.66"/><text x="1586.87" y="1673.53" fill-opacity="0" font-family="Arial,Arial_MSFontService,sans-serif" font-size="76.313">𝑓</text><path fill-rule="evenodd" d="M1056.32 1445.91c.83 0 1.57.09 2.2.28.64.19 1.2.48 1.69.87.48.4.91.9 1.29 1.52.38.63.75 1.47 1.1 2.54.35 1.06.68 2.39.99 3.97s.59 3.22.83 4.92h.41c2.59-3.64 4.56-6.31 5.89-8 1.34-1.69 2.47-2.95 3.39-3.77s1.8-1.4 2.65-1.74q1.275-.51 3.39-.51c1.27 0 2.31.16 3.12.49l-1.62 7.33h-2.84c-.16-1.13-.64-1.7-1.42-1.7-.24 0-.5.04-.77.12s-.6.26-.99.53c-.4.27-.97.8-1.73 1.58q-1.125 1.17-2.55 2.88c-.94 1.13-1.92 2.32-2.92 3.56l-2.75 3.45c.48 2.59.94 4.83 1.38 6.73.43 1.89.81 3.46 1.15 4.72.34 1.25.64 2.25.89 2.98.26.73.54 1.27.83 1.64.3.36.6.62.91.77.32.15.67.22 1.08.22.73 0 1.44-.28 2.13-.85s1.68-1.85 2.97-3.85l2.64 1.74q-2.835 4.215-5.13 5.94c-1.52 1.15-3.34 1.72-5.45 1.72-1.16 0-2.15-.21-2.96-.63s-1.51-1.08-2.1-2c-.6-.92-1.13-2.35-1.58-4.3-.84-3.46-1.36-6.1-1.54-7.94h-.41c-2.86 4.02-4.99 6.91-6.38 8.67s-2.54 3.05-3.45 3.89c-.9.84-1.78 1.43-2.63 1.76q-1.275.51-3.39.51c-1.27 0-2.31-.16-3.12-.49l1.62-7.33h2.84c.16 1.13.64 1.7 1.42 1.7.38 0 .78-.1 1.19-.3.42-.21 1.02-.69 1.81-1.46q1.17-1.155 3.24-3.63c1.38-1.65 3.38-4.12 6-7.42-.41-2.13-.83-4.18-1.26-6.16-.43-1.97-.88-3.81-1.34-5.51-.45-1.7-.83-2.81-1.13-3.34s-.61-.89-.95-1.1c-.34-.2-.77-.3-1.28-.3-.57 0-1.08.13-1.54.39-.46.25-.96.7-1.5 1.33-.54.64-1.25 1.63-2.15 2.98l-2.63-1.74c1.7-2.57 3.34-4.49 4.9-5.76 1.57-1.27 3.42-1.9 5.56-1.9"/><text x="1041.52" y="1480.98" fill-opacity="0" font-family="Arial,Arial_MSFontService,sans-serif" font-size="40.081">𝑥</text><path fill-rule="evenodd" d="M1171.46 1423.23c7.89 2.08 13.95 6.57 18.17 13.47 4.23 6.91 6.35 15.24 6.35 24.99 0 9.78-2.11 18.11-6.33 24.98-4.21 6.88-10.28 11.36-18.19 13.44l-.97-3.12c6.24-2.08 10.88-6.19 13.92-12.32s4.56-13.93 4.56-23.39c0-9.13-1.52-16.71-4.54-22.75q-4.545-9.06-14.07-12.18Zm-52.73 0 1.1 3.12c-6.32 2.08-11.01 6.14-14.04 12.18-3.04 6.04-4.56 13.62-4.56 22.75 0 9.46 1.52 17.26 4.56 23.39 3.03 6.13 7.68 10.24 13.92 12.32l-.98 3.12c-7.91-2.08-13.98-6.56-18.19-13.44-4.22-6.87-6.33-15.2-6.33-24.98 0-9.75 2.12-18.08 6.35-24.99 4.23-6.9 10.28-11.39 18.17-13.47m40.6 3.92c2.65 0 4.93.21 6.85.64l-1.58 6.89h-3.56c-.38-1.54-.88-2.64-1.48-3.32-.61-.67-1.51-1.01-2.7-1.01-1.54 0-2.84.42-3.91 1.27s-1.98 2.12-2.73 3.79c-.76 1.68-1.46 3.93-2.11 6.77l-1.02 4.42h10.42l-.89 4.09h-10.46l-7.54 35.34c-1.24 5.86-3.14 10.24-5.71 13.11q-3.855 4.32-9.69 4.32c-1.13 0-2.02-.07-2.67-.2l.69-3.57c.27.08.9.12 1.9.12q1.83 0 3.12-.93c.87-.62 1.67-1.7 2.41-3.24.75-1.54 1.43-3.68 2.05-6.41l8.71-38.54h-6.84l.6-2.79c1.81-.11 3.12-.26 3.91-.45.8-.19 1.42-.47 1.87-.85.44-.38.82-.87 1.13-1.48s.71-1.72 1.2-3.34c1.43-4.87 3.64-8.52 6.63-10.97q4.47-3.66 11.4-3.66"/><text x="1120.55" y="1493.92" fill-opacity="0" font-family="Arial,Arial_MSFontService,sans-serif" font-size="76.313">𝑓</text><path fill="#d74514" fill-rule="evenodd" d="m498.67 1389.55-14.427 25.53h15.846l-.689-13.05q-.122-2.67-.203-6.69-.081-4.005-.081-5.79Zm.244-8.55h6.119l2.918 45.18q.202 3.21.73 5.01.527 1.8 1.438 2.67c.608.58 1.493.96 2.655 1.12l-.446 1.98h-16.859l.446-1.98c1.594-.14 2.782-.76 3.566-1.87.784-1.1 1.175-3.05 1.175-5.83 0-1.06-.04-2.2-.121-3.45l-.284-5.23h-17.832l-2.229 3.98q-1.581 2.79-2.31 4.8t-.73 3.54c0 2.27 1.365 3.63 4.094 4.06l-.446 1.98h-16.576l.446-1.98c.838-.11 1.628-.44 2.371-1 .743-.55 1.533-1.39 2.371-2.51.837-1.12 2.013-2.98 3.526-5.57Z"/><text x="464.222" y="1429.97" fill-opacity="0" font-family="Arial,Arial_MSFontService,sans-serif" font-size="55.968">𝐴</text><path fill="#d74514" fill-rule="evenodd" d="M491.604 1498.63q7.539 0 11.389 3.3c2.566 2.2 3.85 5.4 3.85 9.58 0 1.44-.142 2.75-.426 3.96-.284 1.2-.729 2.39-1.337 3.56-.608 1.18-1.426 2.44-2.452 3.79a68 68 0 0 1-3.404 4.11c-1.243 1.4-3.391 3.71-6.444 6.96q-7.701 8.145-11.307 14.22h15.278q1.986 0 3.202-.24c.811-.16 1.459-.44 1.945-.81a3.94 3.94 0 0 0 1.155-1.48q.426-.915 1.074-2.82h3.445l-.689 11.83h-33.354v-1.94c1.162-2.84 2.729-5.74 4.701-8.71 1.973-2.98 4.769-6.47 8.39-10.5q4.701-5.19 6.768-7.86c1.513-1.95 2.641-3.63 3.384-5.05s1.276-2.75 1.6-4.01a15 15 0 0 0 .487-3.79q0-3.045-.973-5.37c-.648-1.55-1.641-2.78-2.979-3.67-1.337-.89-3.019-1.34-5.045-1.34q-7.58 0-10.213 8.43h-4.904V1503c3.269-1.54 6.329-2.65 9.179-3.34s5.411-1.03 7.68-1.03"/><text x="473.529" y="1547.6" fill-opacity="0" font-family="Arial,Arial_MSFontService,sans-serif" font-size="55.968">2</text><path fill="#d74514" fill-rule="evenodd" d="M464.749 1473.41h53v5h-53Zm88.086-10.23c-2.783 0-5.005 1.11-6.667 3.34s-2.641 5.41-2.938 9.55h17.71c-.162-2.92-.526-5.3-1.094-7.16-.567-1.85-1.418-3.26-2.553-4.25s-2.621-1.48-4.458-1.48m.405-3.2c2.729 0 5.053.43 6.971 1.3q2.878 1.29 4.6 3.54c1.148 1.5 2.04 3.39 2.675 5.68.635 2.28.993 5.26 1.074 8.93h-25.533v.73c0 3.19.358 5.87 1.074 8.05q1.075 3.255 3.526 5.1c1.635 1.23 3.763 1.85 6.383 1.85 2.216 0 4.208-.42 5.978-1.24s3.533-2.17 5.289-4.03l2.472 2.63q-2.593 2.715-4.762 4.26a18.3 18.3 0 0 1-4.762 2.41q-2.594.87-5.714.87-8.349 0-12.604-5.01c-2.837-3.33-4.256-8.26-4.256-14.77 0-4.02.723-7.58 2.169-10.66 1.445-3.08 3.505-5.45 6.18-7.13 2.675-1.67 5.755-2.51 9.24-2.51"/><text x="535.651" y="1495.05" fill-opacity="0" font-family="Arial,Arial_MSFontService,sans-serif" font-size="40.081">e</text><path fill="#d74514" fill-rule="evenodd" d="M576.574 1449.49h34.313v4.56h-34.313Z"/><text x="576.574" y="1453.48" fill-opacity="0" font-family="Arial,Arial_MSFontService,sans-serif" font-size="4.557">−</text><path fill="#d74514" fill-rule="evenodd" d="M636.677 1439.09h2.055l-6.196 29.19c-.496 2.27-1.136 4.21-1.921 5.83-.784 1.62-1.742 2.94-2.874 3.97a10.5 10.5 0 0 1-3.961 2.28c-1.509.49-3.237.73-5.183.73-.516 0-1.013-.02-1.489-.07a8.4 8.4 0 0 1-1.281-.23l.745-3.12c.238.1.556.16.953.19s.854.04 1.37.04c.973 0 1.842-.12 2.606-.38.765-.26 1.45-.73 2.055-1.4q.909-1.02 1.638-2.79c.487-1.18.939-2.69 1.356-4.54.695-3.22 1.36-6.23 1.995-9.05.636-2.82 1.157-5.19 1.564-7.09q.61-2.865.968-4.56c.238-1.13.412-2.01.521-2.62.109-.62.174-1.05.194-1.31q.03-.39.03-.63 0-1.035-.79-1.53c-.526-.33-1.454-.51-2.785-.55l.447-2.03Zm-1.102-12h5.986l-1.459 6.4h-5.987Z"/><text x="615.827" y="1474.34" fill-opacity="0" font-family="Arial,Arial_MSFontService,sans-serif" font-size="54.001">𝑗</text><path fill="#d74514" fill-rule="evenodd" d="M675.859 1441.92c-1.231 0-2.263.37-3.097 1.09-.834.73-1.524 1.63-2.07 2.73a19 19 0 0 0-1.341 3.56 65 65 0 0 0-.878 3.61l-3.158 13.83c2.423-.12 4.538-.71 6.345-1.78a14.5 14.5 0 0 0 4.512-4.11q1.803-2.52 2.696-5.7c.595-2.13.893-4.31.893-6.55 0-.66-.034-1.37-.104-2.15a8 8 0 0 0-.491-2.16 4.34 4.34 0 0 0-1.162-1.68q-.774-.69-2.145-.69m-15.011-3.12 1.906 2.47c-3.296 2.5-5.818 5.15-7.565 7.94s-2.622 5.57-2.622 8.35c0 2.58.606 4.61 1.817 6.08 1.212 1.47 3.078 2.42 5.6 2.86l3.008-13.47c.536-2.46 1.261-4.59 2.175-6.38q1.37-2.7 3.142-4.44t3.857-2.58c1.39-.56 2.83-.83 4.319-.83 2.998 0 5.257.89 6.776 2.68 1.519 1.78 2.279 4.3 2.279 7.53 0 2.9-.482 5.61-1.445 8.12s-2.348 4.7-4.155 6.55q-2.71 2.79-6.553 4.38t-8.608 1.62l-2.77 12.28h-5.569l2.859-12.45c-2.006-.26-3.793-.72-5.361-1.39-1.569-.67-2.89-1.51-3.962-2.55a10.4 10.4 0 0 1-2.457-3.63q-.849-2.085-.849-4.68 0-4.965 3.589-9.57c2.393-3.07 5.922-6.03 10.589-8.89"/><text x="646.67" y="1476.56" fill-opacity="0" font-family="Arial,Arial_MSFontService,sans-serif" font-size="43.159">𝜑</text><path fill-rule="evenodd" d="M633.345 1772.17h49.93v5.39h-49.93Z"/><text x="633.345" y="1776.88" fill-opacity="0" font-family="Arial,Arial_MSFontService,sans-serif" font-size="5.39">−</text><path fill-rule="evenodd" d="M727.359 1740.39c2.647 0 4.93.22 6.849.65l-1.581 6.89h-3.566c-.378-1.54-.872-2.65-1.479-3.32q-.912-1.02-2.696-1.02c-1.54 0-2.843.43-3.91 1.28s-1.979 2.11-2.736 3.79c-.757 1.67-1.459 3.93-2.107 6.77l-1.014 4.41h10.416l-.892 4.1h-10.456l-7.538 35.34q-1.864 8.79-5.714 13.11c-2.567 2.88-5.796 4.31-9.686 4.31-1.135 0-2.027-.06-2.675-.2l.689-3.56q.405.12 1.905.12c1.216 0 2.256-.31 3.12-.94q1.297-.93 2.412-3.24c.743-1.54 1.425-3.67 2.046-6.4l8.714-38.54h-6.849l.608-2.8c1.81-.11 3.113-.26 3.91-.44.797-.19 1.419-.48 1.865-.86.445-.37.824-.87 1.134-1.47.311-.61.71-1.73 1.196-3.35 1.432-4.86 3.641-8.52 6.626-10.96 2.986-2.45 6.789-3.67 11.409-3.67"/><text x="688.574" y="1807.17" fill-opacity="0" font-family="Arial,Arial_MSFontService,sans-serif" font-size="76.313">𝑓</text><path fill-rule="evenodd" d="M739.226 1779.75c-1.39 0-2.552.36-3.485 1.09q-1.4 1.08-2.219 3.18t-1.162 5.13c-.228 2.01-.342 4.3-.342 6.86 0 2.96.144 5.52.432 7.67.288 2.16.734 3.93 1.34 5.32s1.365 2.41 2.279 3.07c.913.65 2.005.98 3.276.98 1.191 0 2.234-.31 3.127-.92q1.341-.93 2.219-2.88c.586-1.3 1.028-2.95 1.326-4.94q.447-3 .447-7.08c0-3.05-.164-5.69-.492-7.89s-.789-4.02-1.385-5.43q-.894-2.13-2.249-3.15c-.903-.67-1.941-1.01-3.112-1.01m.119-2.89c2.363 0 4.383.44 6.061 1.33q2.517 1.32 4.111 3.78t2.338 6 .744 8.01c0 6.62-1.171 11.61-3.514 15s-5.739 5.08-10.187 5.08q-6.612 0-9.829-4.8c-2.145-3.19-3.217-8.04-3.217-14.53q0-5.1.998-8.82.997-3.72 2.8-6.18t4.274-3.66c1.648-.81 3.455-1.21 5.421-1.21"/><text x="725.852" y="1811.16" fill-opacity="0" font-family="Arial,Arial_MSFontService,sans-serif" font-size="39.197">0</text><path fill="#d74514" d="M728.083 1705.54v-178.785h-9.166v178.785Zm18.334-174.202-22.917-45.833-22.916 45.833Zm535.666 174.202v-178.785h-9.166v178.785Zm18.334-174.202-22.917-45.833-22.916 45.833Z"/><path fill="#d74514" fill-rule="evenodd" d="m1369.49 1387.59-14.42 25.53h15.84l-.69-13.05c-.08-1.78-.15-4.01-.2-6.68-.05-2.68-.08-4.61-.08-5.8Zm.25-8.55h6.12l2.91 45.19c.14 2.13.38 3.8.73 5s.83 2.1 1.44 2.68 1.5.95 2.66 1.11l-.45 1.99h-16.86l.45-1.99c1.59-.13 2.78-.76 3.56-1.86.79-1.11 1.18-3.06 1.18-5.84 0-1.05-.04-2.2-.12-3.44l-.29-5.23h-17.83l-2.23 3.97q-1.575 2.79-2.31 4.8c-.48 1.34-.73 2.52-.73 3.55 0 2.27 1.37 3.62 4.1 4.05l-.45 1.99h-16.57l.44-1.99q1.26-.165 2.37-.99c.74-.56 1.54-1.39 2.37-2.51.84-1.13 2.02-2.98 3.53-5.58Z"/><text x="1335.05" y="1428.01" fill-opacity="0" font-family="Arial,Arial_MSFontService,sans-serif" font-size="55.968">𝐴</text><path fill="#d74514" fill-rule="evenodd" d="M1362.43 1496.67c5.02 0 8.82 1.1 11.39 3.3 2.56 2.21 3.85 5.4 3.85 9.59 0 1.43-.15 2.75-.43 3.95s-.73 2.39-1.34 3.57c-.61 1.17-1.42 2.43-2.45 3.78a67 67 0 0 1-3.4 4.12c-1.25 1.39-3.39 3.71-6.45 6.95-5.13 5.43-8.9 10.17-11.3 14.22h15.27q1.995 0 3.21-.24c.81-.16 1.45-.43 1.94-.81s.87-.87 1.16-1.48c.28-.61.64-1.55 1.07-2.82h3.45l-.69 11.84h-33.36v-1.95c1.16-2.83 2.73-5.74 4.7-8.71 1.98-2.97 4.77-6.47 8.39-10.5 3.14-3.46 5.39-6.08 6.77-7.86 1.51-1.94 2.64-3.63 3.38-5.04.75-1.42 1.28-2.76 1.61-4.02.32-1.25.48-2.52.48-3.79 0-2.02-.32-3.81-.97-5.37-.65-1.55-1.64-2.77-2.98-3.66-1.34-.9-3.02-1.34-5.05-1.34-5.05 0-8.45 2.81-10.21 8.43h-4.9v-7.78c3.27-1.54 6.33-2.66 9.18-3.35s5.41-1.03 7.68-1.03"/><text x="1344.35" y="1545.64" fill-opacity="0" font-family="Arial,Arial_MSFontService,sans-serif" font-size="55.968">2</text><path fill="#d74514" fill-rule="evenodd" d="M1335.56 1471.45h53v5h-53Zm88.1-10.23c-2.78 0-5.01 1.12-6.67 3.35q-2.49 3.345-2.94 9.54h17.71c-.16-2.92-.52-5.3-1.09-7.15q-.855-2.775-2.55-4.26c-1.14-.98-2.62-1.48-4.46-1.48m.4-3.2c2.73 0 5.06.43 6.97 1.3 1.92.86 3.46 2.05 4.6 3.54 1.15 1.5 2.04 3.4 2.68 5.68.63 2.28.99 5.26 1.07 8.94h-25.53v.72c0 3.19.36 5.87 1.07 8.05.72 2.17 1.9 3.88 3.53 5.11s3.76 1.84 6.38 1.84c2.22 0 4.21-.41 5.98-1.24 1.77-.82 3.53-2.16 5.29-4.03l2.47 2.64c-1.73 1.81-3.31 3.22-4.76 4.25a18 18 0 0 1-4.76 2.41c-1.73.58-3.64.87-5.72.87-5.56 0-9.76-1.66-12.6-5s-4.26-8.26-4.26-14.77c0-4.03.73-7.58 2.17-10.66q2.175-4.62 6.18-7.14c2.68-1.67 5.76-2.51 9.24-2.51"/><text x="1406.47" y="1493.09" fill-opacity="0" font-family="Arial,Arial_MSFontService,sans-serif" font-size="40.081">e</text><path fill="#d74514" fill-rule="evenodd" d="M1465.86 1437.14h2.06l-6.2 29.19q-.75 3.39-1.92 5.82c-.79 1.62-1.74 2.94-2.88 3.98a10.7 10.7 0 0 1-3.96 2.28c-1.51.48-3.23.73-5.18.73-.52 0-1.01-.03-1.49-.08s-.9-.12-1.28-.22l.74-3.13c.24.1.56.16.96.19s.85.05 1.37.05c.97 0 1.84-.13 2.6-.39.77-.26 1.45-.72 2.06-1.4.61-.67 1.15-1.6 1.64-2.78.48-1.19.94-2.7 1.35-4.55.7-3.21 1.36-6.23 2-9.05.63-2.82 1.16-5.18 1.56-7.09.41-1.91.73-3.42.97-4.56.24-1.13.41-2 .52-2.62.11-.61.18-1.05.2-1.31.01-.26.02-.47.02-.62 0-.7-.26-1.21-.78-1.54-.53-.33-1.46-.51-2.79-.55l.45-2.02Zm-1.1-12.01h5.98l-1.45 6.41h-5.99Z"/><text x="1445.01" y="1472.39" fill-opacity="0" font-family="Arial,Arial_MSFontService,sans-serif" font-size="54.001">𝑗</text><path fill="#d74514" fill-rule="evenodd" d="M1505.04 1439.97c-1.23 0-2.26.36-3.1 1.08q-1.245 1.095-2.07 2.73c-.54 1.09-.99 2.28-1.34 3.56-.34 1.28-.64 2.49-.87 3.62l-3.16 13.82c2.42-.12 4.54-.71 6.34-1.77 1.81-1.07 3.31-2.44 4.52-4.11 1.2-1.68 2.1-3.58 2.69-5.71.6-2.12.89-4.31.89-6.55 0-.66-.03-1.37-.1-2.15-.07-.77-.23-1.49-.49-2.15a4.4 4.4 0 0 0-1.16-1.69c-.52-.45-1.23-.68-2.15-.68m-15.01-3.13 1.91 2.47c-3.3 2.5-5.82 5.15-7.57 7.94s-2.62 5.57-2.62 8.35c0 2.59.61 4.61 1.82 6.08s3.08 2.42 5.6 2.86l3.01-13.46c.53-2.46 1.26-4.59 2.17-6.39s1.96-3.28 3.14-4.44 2.47-2.02 3.86-2.58c1.39-.55 2.83-.83 4.32-.83 3 0 5.26.89 6.77 2.68 1.52 1.79 2.28 4.3 2.28 7.54 0 2.9-.48 5.6-1.44 8.11s-2.35 4.7-4.16 6.56c-1.8 1.85-3.99 3.31-6.55 4.37-2.56 1.07-5.43 1.61-8.61 1.63l-2.77 12.27h-5.57l2.86-12.45c-2-.26-3.79-.72-5.36-1.39-1.57-.66-2.89-1.51-3.96-2.54a10.7 10.7 0 0 1-2.46-3.64c-.56-1.39-.85-2.95-.85-4.67 0-3.32 1.2-6.51 3.59-9.58s5.92-6.03 10.59-8.89"/><text x="1475.85" y="1474.6" fill-opacity="0" font-family="Arial,Arial_MSFontService,sans-serif" font-size="43.159">𝜑</text><path fill-rule="evenodd" d="M1279.02 1739.91c2.64 0 4.93.21 6.85.65l-1.58 6.89h-3.57c-.38-1.54-.87-2.65-1.48-3.33-.61-.67-1.51-1.01-2.7-1.01-1.54 0-2.84.42-3.91 1.28-1.06.85-1.98 2.11-2.73 3.78-.76 1.68-1.46 3.94-2.11 6.77l-1.01 4.42h10.41l-.89 4.09h-10.45l-7.54 35.34c-1.25 5.87-3.15 10.24-5.72 13.11-2.56 2.88-5.79 4.32-9.68 4.32-1.14 0-2.03-.07-2.68-.2l.69-3.57c.27.08.91.12 1.91.12q1.815 0 3.12-.93c.86-.62 1.66-1.7 2.41-3.24.74-1.54 1.42-3.68 2.04-6.4l8.72-38.55h-6.85l.61-2.79c1.81-.11 3.11-.26 3.91-.45.79-.19 1.42-.47 1.86-.85.45-.38.83-.87 1.14-1.48s.71-1.72 1.19-3.34c1.43-4.87 3.64-8.52 6.63-10.97 2.98-2.44 6.79-3.66 11.41-3.66"/><text x="1240.23" y="1806.68" fill-opacity="0" font-family="Arial,Arial_MSFontService,sans-serif" font-size="76.313">𝑓</text><path fill-rule="evenodd" d="M1290.88 1779.27q-2.085 0-3.48 1.08c-.93.73-1.67 1.79-2.22 3.19s-.93 3.11-1.16 5.12c-.23 2.02-.34 4.31-.34 6.87 0 2.96.14 5.51.43 7.67.29 2.15.73 3.92 1.34 5.31.6 1.39 1.36 2.42 2.28 3.07q1.365.99 3.27.99c1.19 0 2.24-.31 3.13-.93.89-.61 1.63-1.57 2.22-2.87q.885-1.95 1.32-4.95c.3-1.99.45-4.35.45-7.07 0-3.06-.16-5.69-.49-7.89-.33-2.21-.79-4.02-1.39-5.44-.59-1.42-1.34-2.47-2.24-3.14-.91-.68-1.94-1.01-3.12-1.01m.12-2.89q3.555 0 6.06 1.32 2.52 1.335 4.11 3.78c1.07 1.64 1.85 3.64 2.34 6.01q.75 3.54.75 8.01c0 6.61-1.17 11.61-3.52 15-2.34 3.38-5.74 5.07-10.18 5.07-4.41 0-7.69-1.59-9.83-4.79-2.15-3.2-3.22-8.04-3.22-14.54 0-3.39.33-6.33 1-8.81.66-2.49 1.6-4.55 2.8-6.18 1.2-1.64 2.62-2.86 4.27-3.67 1.65-.8 3.46-1.2 5.42-1.2"/><text x="1277.51" y="1810.67" fill-opacity="0" font-family="Arial,Arial_MSFontService,sans-serif" font-size="39.197">0</text></g></svg>