<svg width="1298" height="490" xmlns="http://www.w3.org/2000/svg" xmlns:xlink="http://www.w3.org/1999/xlink" overflow="hidden"><defs><clipPath id="clip0"><rect x="409" y="1346" width="1298" height="490"/></clipPath></defs><g clip-path="url(#clip0)" transform="translate(-409 -1346)"><path d="M409.5 1700.92 1618.76 1700.92 1618.76 1710.08 409.5 1710.08ZM1614.17 1682.58 1660 1705.5 1614.17 1728.42Z"/><path d="M4.58333-3.76507e-06 4.58366 398.075-4.58301 398.075-4.58333 3.76507e-06ZM22.917 393.492 0.000360892 439.326-22.9163 393.492Z" transform="matrix(1 0 0 -1 1003.5 1835.83)"/><path d="M1625.65 1606.76C1628.3 1606.76 1630.58 1606.97 1632.5 1607.4L1630.92 1614.29 1627.35 1614.29C1626.98 1612.75 1626.48 1611.65 1625.87 1610.97 1625.27 1610.29 1624.37 1609.96 1623.18 1609.96 1621.64 1609.96 1620.34 1610.38 1619.27 1611.23 1618.2 1612.08 1617.29 1613.35 1616.53 1615.02 1615.78 1616.7 1615.07 1618.95 1614.43 1621.79L1613.41 1626.21 1623.83 1626.21 1622.94 1630.3 1612.48 1630.3 1604.94 1665.64C1603.7 1671.5 1601.79 1675.87 1599.23 1678.75 1596.66 1681.63 1593.43 1683.07 1589.54 1683.07 1588.41 1683.07 1587.52 1683 1586.87 1682.87L1587.56 1679.3C1587.83 1679.38 1588.46 1679.42 1589.46 1679.42 1590.68 1679.42 1591.72 1679.11 1592.58 1678.49 1593.45 1677.87 1594.25 1676.79 1594.99 1675.25 1595.74 1673.71 1596.42 1671.57 1597.04 1668.84L1605.75 1630.3 1598.9 1630.3 1599.51 1627.51C1601.32 1627.4 1602.63 1627.25 1603.42 1627.06 1604.22 1626.87 1604.84 1626.59 1605.29 1626.21 1605.73 1625.83 1606.11 1625.34 1606.42 1624.73 1606.73 1624.12 1607.13 1623.01 1607.62 1621.39 1609.05 1616.52 1611.26 1612.87 1614.24 1610.42 1617.23 1607.98 1621.03 1606.76 1625.65 1606.76Z" fill-rule="evenodd"/><text fill="#000000" fill-opacity="0" font-family="Arial,Arial_MSFontService,sans-serif" font-size="76.313" x="1586.87" y="1673.53">𝑓</text><path d="M1056.32 1445.91C1057.15 1445.91 1057.89 1446 1058.52 1446.19 1059.16 1446.38 1059.72 1446.67 1060.21 1447.06 1060.69 1447.46 1061.12 1447.96 1061.5 1448.58 1061.88 1449.21 1062.25 1450.05 1062.6 1451.12 1062.95 1452.18 1063.28 1453.51 1063.59 1455.09 1063.9 1456.67 1064.18 1458.31 1064.42 1460.01L1064.83 1460.01C1067.42 1456.37 1069.39 1453.7 1070.72 1452.01 1072.06 1450.32 1073.19 1449.06 1074.11 1448.24 1075.03 1447.42 1075.91 1446.84 1076.76 1446.5 1077.61 1446.16 1078.74 1445.99 1080.15 1445.99 1081.42 1445.99 1082.46 1446.15 1083.27 1446.48L1081.65 1453.81 1078.81 1453.81C1078.65 1452.68 1078.17 1452.11 1077.39 1452.11 1077.15 1452.11 1076.89 1452.15 1076.62 1452.23 1076.35 1452.31 1076.02 1452.49 1075.63 1452.76 1075.23 1453.03 1074.66 1453.56 1073.9 1454.34 1073.15 1455.12 1072.3 1456.08 1071.35 1457.22 1070.41 1458.35 1069.43 1459.54 1068.43 1460.78L1065.68 1464.23C1066.16 1466.82 1066.62 1469.06 1067.06 1470.96 1067.49 1472.85 1067.87 1474.42 1068.21 1475.68 1068.55 1476.93 1068.85 1477.93 1069.1 1478.66 1069.36 1479.39 1069.64 1479.93 1069.93 1480.3 1070.23 1480.66 1070.53 1480.92 1070.84 1481.07 1071.16 1481.22 1071.51 1481.29 1071.92 1481.29 1072.65 1481.29 1073.36 1481.01 1074.05 1480.44 1074.74 1479.87 1075.73 1478.59 1077.02 1476.59L1079.66 1478.33C1077.77 1481.14 1076.06 1483.12 1074.53 1484.27 1073.01 1485.42 1071.19 1485.99 1069.08 1485.99 1067.92 1485.99 1066.93 1485.78 1066.12 1485.36 1065.31 1484.94 1064.61 1484.28 1064.02 1483.36 1063.42 1482.44 1062.89 1481.01 1062.44 1479.06 1061.6 1475.6 1061.08 1472.96 1060.9 1471.12L1060.49 1471.12C1057.63 1475.14 1055.5 1478.03 1054.11 1479.79 1052.72 1481.55 1051.57 1482.84 1050.66 1483.68 1049.76 1484.52 1048.88 1485.11 1048.03 1485.44 1047.18 1485.78 1046.05 1485.95 1044.64 1485.95 1043.37 1485.95 1042.33 1485.79 1041.52 1485.46L1043.14 1478.13 1045.98 1478.13C1046.14 1479.26 1046.62 1479.83 1047.4 1479.83 1047.78 1479.83 1048.18 1479.73 1048.59 1479.53 1049.01 1479.32 1049.61 1478.84 1050.4 1478.07 1051.18 1477.3 1052.26 1476.09 1053.64 1474.44 1055.02 1472.79 1057.02 1470.32 1059.64 1467.02 1059.23 1464.89 1058.81 1462.84 1058.38 1460.86 1057.95 1458.89 1057.5 1457.05 1057.04 1455.35 1056.59 1453.65 1056.21 1452.54 1055.91 1452.01 1055.61 1451.48 1055.3 1451.12 1054.96 1450.91 1054.62 1450.71 1054.19 1450.61 1053.68 1450.61 1053.11 1450.61 1052.6 1450.74 1052.14 1451 1051.68 1451.25 1051.18 1451.7 1050.64 1452.33 1050.1 1452.97 1049.39 1453.96 1048.49 1455.31L1045.86 1453.57C1047.56 1451 1049.2 1449.08 1050.76 1447.81 1052.33 1446.54 1054.18 1445.91 1056.32 1445.91Z" fill-rule="evenodd"/><text fill="#000000" fill-opacity="0" font-family="Arial,Arial_MSFontService,sans-serif" font-size="40.0815" x="1041.52" y="1480.98">𝑥</text><path d="M1171.46 1423.23C1179.35 1425.31 1185.41 1429.8 1189.63 1436.7 1193.86 1443.61 1195.98 1451.94 1195.98 1461.69 1195.98 1471.47 1193.87 1479.8 1189.65 1486.67 1185.44 1493.55 1179.37 1498.03 1171.46 1500.11L1170.49 1496.99C1176.73 1494.91 1181.37 1490.8 1184.41 1484.67 1187.45 1478.54 1188.97 1470.74 1188.97 1461.28 1188.97 1452.15 1187.45 1444.57 1184.43 1438.53 1181.4 1432.49 1176.71 1428.43 1170.36 1426.35ZM1118.73 1423.23 1119.83 1426.35C1113.51 1428.43 1108.82 1432.49 1105.79 1438.53 1102.75 1444.57 1101.23 1452.15 1101.23 1461.28 1101.23 1470.74 1102.75 1478.54 1105.79 1484.67 1108.82 1490.8 1113.47 1494.91 1119.71 1496.99L1118.73 1500.11C1110.82 1498.03 1104.75 1493.55 1100.54 1486.67 1096.32 1479.8 1094.21 1471.47 1094.21 1461.69 1094.21 1451.94 1096.33 1443.61 1100.56 1436.7 1104.79 1429.8 1110.84 1425.31 1118.73 1423.23Z" fill-rule="evenodd"/><path d="M1159.33 1427.15C1161.98 1427.15 1164.26 1427.36 1166.18 1427.79L1164.6 1434.68 1161.04 1434.68C1160.66 1433.14 1160.16 1432.04 1159.56 1431.36 1158.95 1430.69 1158.05 1430.35 1156.86 1430.35 1155.32 1430.35 1154.02 1430.77 1152.95 1431.62 1151.88 1432.47 1150.97 1433.74 1150.22 1435.41 1149.46 1437.09 1148.76 1439.34 1148.11 1442.18L1147.09 1446.6 1157.51 1446.6 1156.62 1450.69 1146.16 1450.69 1138.62 1486.03C1137.38 1491.89 1135.48 1496.27 1132.91 1499.14 1130.34 1502.02 1127.11 1503.46 1123.22 1503.46 1122.09 1503.46 1121.2 1503.39 1120.55 1503.26L1121.24 1499.69C1121.51 1499.77 1122.14 1499.81 1123.14 1499.81 1124.36 1499.81 1125.4 1499.5 1126.26 1498.88 1127.13 1498.26 1127.93 1497.18 1128.67 1495.64 1129.42 1494.1 1130.1 1491.96 1130.72 1489.23L1139.43 1450.69 1132.59 1450.69 1133.19 1447.9C1135 1447.79 1136.31 1447.64 1137.1 1447.45 1137.9 1447.26 1138.52 1446.98 1138.97 1446.6 1139.41 1446.22 1139.79 1445.73 1140.1 1445.12 1140.41 1444.51 1140.81 1443.4 1141.3 1441.78 1142.73 1436.91 1144.94 1433.26 1147.93 1430.81 1150.91 1428.37 1154.71 1427.15 1159.33 1427.15Z" fill-rule="evenodd"/><text fill="#000000" fill-opacity="0" font-family="Arial,Arial_MSFontService,sans-serif" font-size="76.313" x="1120.55" y="1493.92">𝑓</text><path d="M498.67 1389.55 484.243 1415.08 500.089 1415.08 499.4 1402.03C499.319 1400.25 499.251 1398.02 499.197 1395.34 499.143 1392.67 499.116 1390.74 499.116 1389.55ZM498.914 1381 505.033 1381 507.951 1426.18C508.086 1428.32 508.329 1429.99 508.681 1431.19 509.032 1432.39 509.512 1433.28 510.119 1433.86 510.727 1434.44 511.612 1434.82 512.774 1434.98L512.328 1436.96 495.469 1436.96 495.915 1434.98C497.509 1434.84 498.697 1434.22 499.481 1433.11 500.265 1432.01 500.656 1430.06 500.656 1427.28 500.656 1426.22 500.616 1425.08 500.535 1423.83L500.251 1418.6 482.419 1418.6 480.19 1422.58C479.136 1424.44 478.366 1426.04 477.88 1427.38 477.394 1428.72 477.15 1429.9 477.15 1430.92 477.15 1433.19 478.515 1434.55 481.244 1434.98L480.798 1436.96 464.222 1436.96 464.668 1434.98C465.506 1434.87 466.296 1434.54 467.039 1433.98 467.782 1433.43 468.572 1432.59 469.41 1431.47 470.247 1430.35 471.423 1428.49 472.936 1425.9Z" fill="#D74514" fill-rule="evenodd"/><text fill="#000000" fill-opacity="0" font-family="Arial,Arial_MSFontService,sans-serif" font-size="55.9683" x="464.222" y="1429.97">𝐴</text><path d="M491.604 1498.63C496.63 1498.63 500.426 1499.73 502.993 1501.93 505.559 1504.13 506.843 1507.33 506.843 1511.51 506.843 1512.95 506.701 1514.26 506.417 1515.47 506.133 1516.67 505.688 1517.86 505.08 1519.03 504.472 1520.21 503.654 1521.47 502.628 1522.82 501.601 1524.17 500.466 1525.54 499.224 1526.93 497.981 1528.33 495.833 1530.64 492.78 1533.89 487.646 1539.32 483.877 1544.06 481.473 1548.11L496.751 1548.11C498.075 1548.11 499.142 1548.03 499.953 1547.87 500.764 1547.71 501.412 1547.43 501.898 1547.06 502.385 1546.68 502.77 1546.19 503.053 1545.58 503.337 1544.97 503.695 1544.03 504.127 1542.76L507.572 1542.76 506.883 1554.59 473.529 1554.59 473.529 1552.65C474.691 1549.81 476.258 1546.91 478.23 1543.94 480.203 1540.96 482.999 1537.47 486.62 1533.44 489.754 1529.98 492.01 1527.36 493.388 1525.58 494.901 1523.63 496.029 1521.95 496.772 1520.53 497.515 1519.11 498.048 1517.78 498.372 1516.52 498.697 1515.26 498.859 1514 498.859 1512.73 498.859 1510.7 498.535 1508.91 497.886 1507.36 497.238 1505.81 496.245 1504.58 494.907 1503.69 493.57 1502.8 491.888 1502.35 489.862 1502.35 484.809 1502.35 481.405 1505.16 479.649 1510.78L474.745 1510.78 474.745 1503C478.014 1501.46 481.074 1500.35 483.924 1499.66 486.775 1498.97 489.335 1498.63 491.604 1498.63Z" fill="#D74514" fill-rule="evenodd"/><text fill="#000000" fill-opacity="0" font-family="Arial,Arial_MSFontService,sans-serif" font-size="55.9683" x="473.529" y="1547.6">2</text><path d="M464.749 1473.41 517.749 1473.41 517.749 1478.41 464.749 1478.41Z" fill="#D74514" fill-rule="evenodd"/><path d="M552.835 1463.18C550.052 1463.18 547.83 1464.29 546.168 1466.52 544.507 1468.75 543.527 1471.93 543.23 1476.07L560.94 1476.07C560.778 1473.15 560.414 1470.77 559.846 1468.91 559.279 1467.06 558.428 1465.65 557.293 1464.66 556.158 1463.67 554.672 1463.18 552.835 1463.18ZM553.24 1459.98C555.969 1459.98 558.293 1460.41 560.211 1461.28 562.129 1462.14 563.663 1463.32 564.811 1464.82 565.959 1466.32 566.851 1468.21 567.486 1470.5 568.121 1472.78 568.479 1475.76 568.56 1479.43L543.027 1479.43 543.027 1480.16C543.027 1483.35 543.385 1486.03 544.101 1488.21 544.817 1490.38 545.993 1492.08 547.627 1493.31 549.262 1494.54 551.39 1495.16 554.01 1495.16 556.226 1495.16 558.218 1494.74 559.988 1493.92 561.758 1493.1 563.521 1491.75 565.277 1489.89L567.749 1492.52C566.02 1494.33 564.433 1495.75 562.987 1496.78 561.542 1497.8 559.954 1498.61 558.225 1499.19 556.496 1499.77 554.591 1500.06 552.511 1500.06 546.945 1500.06 542.744 1498.39 539.907 1495.05 537.07 1491.72 535.651 1486.79 535.651 1480.28 535.651 1476.26 536.374 1472.7 537.82 1469.62 539.265 1466.54 541.325 1464.17 544 1462.49 546.675 1460.82 549.755 1459.98 553.24 1459.98Z" fill="#D74514" fill-rule="evenodd"/><text fill="#000000" fill-opacity="0" font-family="Arial,Arial_MSFontService,sans-serif" font-size="40.0815" x="535.651" y="1495.05">e</text><path d="M576.574 1449.49 610.887 1449.49 610.887 1454.05 576.574 1454.05Z" fill="#D74514" fill-rule="evenodd"/><text fill="#000000" fill-opacity="0" font-family="Arial,Arial_MSFontService,sans-serif" font-size="4.55713" x="576.574" y="1453.48">−</text><path d="M636.677 1439.09 638.732 1439.09 632.536 1468.28C632.04 1470.55 631.4 1472.49 630.615 1474.11 629.831 1475.73 628.873 1477.05 627.741 1478.08 626.609 1479.12 625.289 1479.88 623.78 1480.36 622.271 1480.85 620.543 1481.09 618.597 1481.09 618.081 1481.09 617.584 1481.07 617.108 1481.02 616.631 1480.97 616.204 1480.89 615.827 1480.79L616.572 1477.67C616.81 1477.77 617.128 1477.83 617.525 1477.86 617.922 1477.89 618.379 1477.9 618.895 1477.9 619.868 1477.9 620.737 1477.78 621.501 1477.52 622.266 1477.26 622.951 1476.79 623.556 1476.12 624.162 1475.44 624.708 1474.51 625.194 1473.33 625.681 1472.15 626.133 1470.64 626.55 1468.79 627.245 1465.57 627.91 1462.56 628.545 1459.74 629.181 1456.92 629.702 1454.55 630.109 1452.65 630.516 1450.74 630.839 1449.22 631.077 1448.09 631.315 1446.96 631.489 1446.08 631.598 1445.47 631.707 1444.85 631.772 1444.42 631.792 1444.16 631.812 1443.9 631.822 1443.69 631.822 1443.53 631.822 1442.84 631.559 1442.33 631.032 1442 630.506 1441.67 629.578 1441.49 628.247 1441.45L628.694 1439.42ZM635.575 1427.09 641.561 1427.09 640.102 1433.49 634.115 1433.49Z" fill="#D74514" fill-rule="evenodd"/><text fill="#000000" fill-opacity="0" font-family="Arial,Arial_MSFontService,sans-serif" font-size="54.0005" x="615.827" y="1474.34">𝑗</text><path d="M675.859 1441.92C674.628 1441.92 673.596 1442.29 672.762 1443.01 671.928 1443.74 671.238 1444.64 670.692 1445.74 670.146 1446.83 669.699 1448.02 669.351 1449.3 669.004 1450.58 668.711 1451.78 668.473 1452.91L665.315 1466.74C667.738 1466.62 669.853 1466.03 671.66 1464.96 673.467 1463.9 674.971 1462.53 676.172 1460.85 677.374 1459.17 678.272 1457.27 678.868 1455.15 679.463 1453.02 679.761 1450.84 679.761 1448.6 679.761 1447.94 679.727 1447.23 679.657 1446.45 679.588 1445.68 679.424 1444.96 679.166 1444.29 678.907 1443.63 678.52 1443.07 678.004 1442.61 677.488 1442.15 676.773 1441.92 675.859 1441.92ZM660.848 1438.8 662.754 1441.27C659.458 1443.77 656.936 1446.42 655.189 1449.21 653.441 1452 652.567 1454.78 652.567 1457.56 652.567 1460.14 653.173 1462.17 654.384 1463.64 655.596 1465.11 657.462 1466.06 659.984 1466.5L662.992 1453.03C663.528 1450.57 664.253 1448.44 665.167 1446.65 666.08 1444.85 667.127 1443.37 668.309 1442.21 669.49 1441.05 670.776 1440.19 672.166 1439.63 673.556 1439.07 674.996 1438.8 676.485 1438.8 679.483 1438.8 681.742 1439.69 683.261 1441.48 684.78 1443.26 685.54 1445.78 685.54 1449.01 685.54 1451.91 685.058 1454.62 684.095 1457.13 683.132 1459.64 681.747 1461.83 679.94 1463.68 678.133 1465.54 675.949 1467 673.387 1468.06 670.826 1469.12 667.956 1469.66 664.779 1469.68L662.009 1481.96 656.44 1481.96 659.299 1469.51C657.293 1469.25 655.506 1468.79 653.938 1468.12 652.369 1467.45 651.048 1466.61 649.976 1465.57 648.904 1464.54 648.085 1463.33 647.519 1461.94 646.953 1460.55 646.67 1458.99 646.67 1457.26 646.67 1453.95 647.866 1450.76 650.259 1447.69 652.652 1444.62 656.181 1441.66 660.848 1438.8Z" fill="#D74514" fill-rule="evenodd"/><text fill="#000000" fill-opacity="0" font-family="Arial,Arial_MSFontService,sans-serif" font-size="43.1587" x="646.67" y="1476.56">𝜑</text><path d="M633.345 1772.17 683.275 1772.17 683.275 1777.56 633.345 1777.56Z" fill-rule="evenodd"/><text fill="#000000" fill-opacity="0" font-family="Arial,Arial_MSFontService,sans-serif" font-size="5.39014" x="633.345" y="1776.88">−</text><path d="M727.359 1740.39C730.006 1740.39 732.289 1740.61 734.208 1741.04L732.627 1747.93 729.061 1747.93C728.683 1746.39 728.189 1745.28 727.582 1744.61 726.974 1743.93 726.075 1743.59 724.886 1743.59 723.346 1743.59 722.043 1744.02 720.976 1744.87 719.908 1745.72 718.997 1746.98 718.24 1748.66 717.483 1750.33 716.781 1752.59 716.133 1755.43L715.119 1759.84 725.535 1759.84 724.643 1763.94 714.187 1763.94 706.649 1799.28C705.406 1805.14 703.502 1809.51 700.935 1812.39 698.368 1815.27 695.139 1816.7 691.249 1816.7 690.114 1816.7 689.222 1816.64 688.574 1816.5L689.263 1812.94C689.533 1813.02 690.168 1813.06 691.168 1813.06 692.384 1813.06 693.424 1812.75 694.288 1812.12 695.153 1811.5 695.957 1810.42 696.7 1808.88 697.443 1807.34 698.125 1805.21 698.746 1802.48L707.46 1763.94 700.611 1763.94 701.219 1761.14C703.029 1761.03 704.332 1760.88 705.129 1760.7 705.926 1760.51 706.548 1760.22 706.994 1759.84 707.439 1759.47 707.818 1758.97 708.128 1758.37 708.439 1757.76 708.838 1756.64 709.324 1755.02 710.756 1750.16 712.965 1746.5 715.95 1744.06 718.936 1741.61 722.739 1740.39 727.359 1740.39Z" fill-rule="evenodd"/><text fill="#000000" fill-opacity="0" font-family="Arial,Arial_MSFontService,sans-serif" font-size="76.313" x="688.574" y="1807.17">𝑓</text><path d="M739.226 1779.75C737.836 1779.75 736.674 1780.11 735.741 1780.84 734.808 1781.56 734.068 1782.62 733.522 1784.02 732.976 1785.42 732.589 1787.13 732.36 1789.15 732.132 1791.16 732.018 1793.45 732.018 1796.01 732.018 1798.97 732.162 1801.53 732.45 1803.68 732.738 1805.84 733.184 1807.61 733.79 1809 734.396 1810.39 735.155 1811.41 736.069 1812.07 736.982 1812.72 738.074 1813.05 739.345 1813.05 740.536 1813.05 741.579 1812.74 742.472 1812.13 743.366 1811.51 744.106 1810.55 744.691 1809.25 745.277 1807.95 745.719 1806.3 746.017 1804.31 746.315 1802.31 746.464 1799.95 746.464 1797.23 746.464 1794.18 746.3 1791.54 745.972 1789.34 745.644 1787.14 745.183 1785.32 744.587 1783.91 743.991 1782.49 743.242 1781.44 742.338 1780.76 741.435 1780.09 740.397 1779.75 739.226 1779.75ZM739.345 1776.86C741.708 1776.86 743.728 1777.3 745.406 1778.19 747.084 1779.07 748.454 1780.33 749.517 1781.97 750.579 1783.61 751.358 1785.61 751.855 1787.97 752.351 1790.33 752.599 1793 752.599 1795.98 752.599 1802.6 751.428 1807.59 749.085 1810.98 746.742 1814.37 743.346 1816.06 738.898 1816.06 734.49 1816.06 731.214 1814.46 729.069 1811.26 726.924 1808.07 725.852 1803.22 725.852 1796.73 725.852 1793.33 726.185 1790.39 726.85 1787.91 727.515 1785.43 728.448 1783.37 729.65 1781.73 730.851 1780.09 732.276 1778.87 733.924 1778.07 735.572 1777.26 737.379 1776.86 739.345 1776.86Z" fill-rule="evenodd"/><text fill="#000000" fill-opacity="0" font-family="Arial,Arial_MSFontService,sans-serif" font-size="39.1973" x="725.852" y="1811.16">0</text><path d="M4.58333-7.51738e-06 4.58363 178.785-4.58304 178.785-4.58333 7.51738e-06ZM22.917 174.202 0.000360892 220.035-22.9164 174.202Z" fill="#D74514" transform="matrix(1 0 0 -1 723.5 1705.54)"/><path d="M4.58333-7.51738e-06 4.58363 178.785-4.58304 178.785-4.58333 7.51738e-06ZM22.917 174.202 0.000360892 220.035-22.9164 174.202Z" fill="#D74514" transform="matrix(1 0 0 -1 1277.5 1705.54)"/><path d="M1369.49 1387.59 1355.07 1413.12 1370.91 1413.12 1370.22 1400.07C1370.14 1398.29 1370.07 1396.06 1370.02 1393.39 1369.97 1390.71 1369.94 1388.78 1369.94 1387.59ZM1369.74 1379.04 1375.86 1379.04 1378.77 1424.23C1378.91 1426.36 1379.15 1428.03 1379.5 1429.23 1379.85 1430.43 1380.33 1431.33 1380.94 1431.91 1381.55 1432.49 1382.44 1432.86 1383.6 1433.02L1383.15 1435.01 1366.29 1435.01 1366.74 1433.02C1368.33 1432.89 1369.52 1432.26 1370.3 1431.16 1371.09 1430.05 1371.48 1428.1 1371.48 1425.32 1371.48 1424.27 1371.44 1423.12 1371.36 1421.88L1371.07 1416.65 1353.24 1416.65 1351.01 1420.62C1349.96 1422.48 1349.19 1424.08 1348.7 1425.42 1348.22 1426.76 1347.97 1427.94 1347.97 1428.97 1347.97 1431.24 1349.34 1432.59 1352.07 1433.02L1351.62 1435.01 1335.05 1435.01 1335.49 1433.02C1336.33 1432.91 1337.12 1432.58 1337.86 1432.03 1338.6 1431.47 1339.4 1430.64 1340.23 1429.52 1341.07 1428.39 1342.25 1426.54 1343.76 1423.94Z" fill="#D74514" fill-rule="evenodd"/><text fill="#000000" fill-opacity="0" font-family="Arial,Arial_MSFontService,sans-serif" font-size="55.9683" x="1335.05" y="1428.01">𝐴</text><path d="M1362.43 1496.67C1367.45 1496.67 1371.25 1497.77 1373.82 1499.97 1376.38 1502.18 1377.67 1505.37 1377.67 1509.56 1377.67 1510.99 1377.52 1512.31 1377.24 1513.51 1376.96 1514.71 1376.51 1515.9 1375.9 1517.08 1375.29 1518.25 1374.48 1519.51 1373.45 1520.86 1372.42 1522.22 1371.29 1523.59 1370.05 1524.98 1368.8 1526.37 1366.66 1528.69 1363.6 1531.93 1358.47 1537.36 1354.7 1542.1 1352.3 1546.15L1367.57 1546.15C1368.9 1546.15 1369.97 1546.07 1370.78 1545.91 1371.59 1545.75 1372.23 1545.48 1372.72 1545.1 1373.21 1544.72 1373.59 1544.23 1373.88 1543.62 1374.16 1543.01 1374.52 1542.07 1374.95 1540.8L1378.4 1540.8 1377.71 1552.64 1344.35 1552.64 1344.35 1550.69C1345.51 1547.86 1347.08 1544.95 1349.05 1541.98 1351.03 1539.01 1353.82 1535.51 1357.44 1531.48 1360.58 1528.02 1362.83 1525.4 1364.21 1523.62 1365.72 1521.68 1366.85 1519.99 1367.59 1518.58 1368.34 1517.16 1368.87 1515.82 1369.2 1514.56 1369.52 1513.31 1369.68 1512.04 1369.68 1510.77 1369.68 1508.75 1369.36 1506.96 1368.71 1505.4 1368.06 1503.85 1367.07 1502.63 1365.73 1501.74 1364.39 1500.84 1362.71 1500.4 1360.68 1500.4 1355.63 1500.4 1352.23 1503.21 1350.47 1508.83L1345.57 1508.83 1345.57 1501.05C1348.84 1499.51 1351.9 1498.39 1354.75 1497.7 1357.6 1497.01 1360.16 1496.67 1362.43 1496.67Z" fill="#D74514" fill-rule="evenodd"/><text fill="#000000" fill-opacity="0" font-family="Arial,Arial_MSFontService,sans-serif" font-size="55.9683" x="1344.35" y="1545.64">2</text><path d="M1335.56 1471.45 1362.06 1471.45 1388.56 1471.45 1388.56 1476.45 1362.06 1476.45 1335.56 1476.45Z" fill="#D74514" fill-rule="evenodd"/><path d="M1423.66 1461.22C1420.88 1461.22 1418.65 1462.34 1416.99 1464.57 1415.33 1466.8 1414.35 1469.98 1414.05 1474.11L1431.76 1474.11C1431.6 1471.19 1431.24 1468.81 1430.67 1466.96 1430.1 1465.11 1429.25 1463.69 1428.12 1462.7 1426.98 1461.72 1425.5 1461.22 1423.66 1461.22ZM1424.06 1458.02C1426.79 1458.02 1429.12 1458.45 1431.03 1459.32 1432.95 1460.18 1434.49 1461.37 1435.63 1462.86 1436.78 1464.36 1437.67 1466.26 1438.31 1468.54 1438.94 1470.82 1439.3 1473.8 1439.38 1477.48L1413.85 1477.48 1413.85 1478.2C1413.85 1481.39 1414.21 1484.07 1414.92 1486.25 1415.64 1488.42 1416.82 1490.13 1418.45 1491.36 1420.08 1492.59 1422.21 1493.2 1424.83 1493.2 1427.05 1493.2 1429.04 1492.79 1430.81 1491.96 1432.58 1491.14 1434.34 1489.8 1436.1 1487.93L1438.57 1490.57C1436.84 1492.38 1435.26 1493.79 1433.81 1494.82 1432.36 1495.85 1430.78 1496.65 1429.05 1497.23 1427.32 1497.81 1425.41 1498.1 1423.33 1498.1 1417.77 1498.1 1413.57 1496.44 1410.73 1493.1 1407.89 1489.76 1406.47 1484.84 1406.47 1478.33 1406.47 1474.3 1407.2 1470.75 1408.64 1467.67 1410.09 1464.59 1412.15 1462.21 1414.82 1460.53 1417.5 1458.86 1420.58 1458.02 1424.06 1458.02Z" fill="#D74514" fill-rule="evenodd"/><text fill="#000000" fill-opacity="0" font-family="Arial,Arial_MSFontService,sans-serif" font-size="40.0815" x="1406.47" y="1493.09">e</text><path d="M1465.86 1437.14 1467.92 1437.14 1461.72 1466.33C1461.22 1468.59 1460.58 1470.53 1459.8 1472.15 1459.01 1473.77 1458.06 1475.09 1456.92 1476.13 1455.79 1477.16 1454.47 1477.92 1452.96 1478.41 1451.45 1478.89 1449.73 1479.14 1447.78 1479.14 1447.26 1479.14 1446.77 1479.11 1446.29 1479.06 1445.81 1479.01 1445.39 1478.94 1445.01 1478.84L1445.75 1475.71C1445.99 1475.81 1446.31 1475.87 1446.71 1475.9 1447.11 1475.93 1447.56 1475.95 1448.08 1475.95 1449.05 1475.95 1449.92 1475.82 1450.68 1475.56 1451.45 1475.3 1452.13 1474.84 1452.74 1474.16 1453.35 1473.49 1453.89 1472.56 1454.38 1471.38 1454.86 1470.19 1455.32 1468.68 1455.73 1466.83 1456.43 1463.62 1457.09 1460.6 1457.73 1457.78 1458.36 1454.96 1458.89 1452.6 1459.29 1450.69 1459.7 1448.78 1460.02 1447.27 1460.26 1446.13 1460.5 1445 1460.67 1444.13 1460.78 1443.51 1460.89 1442.9 1460.96 1442.46 1460.98 1442.2 1460.99 1441.94 1461 1441.73 1461 1441.58 1461 1440.88 1460.74 1440.37 1460.22 1440.04 1459.69 1439.71 1458.76 1439.53 1457.43 1439.49L1457.88 1437.47ZM1464.76 1425.13 1470.74 1425.13 1469.29 1431.54 1463.3 1431.54Z" fill="#D74514" fill-rule="evenodd"/><text fill="#000000" fill-opacity="0" font-family="Arial,Arial_MSFontService,sans-serif" font-size="54.0005" x="1445.01" y="1472.39">𝑗</text><path d="M1505.04 1439.97C1503.81 1439.97 1502.78 1440.33 1501.94 1441.05 1501.11 1441.78 1500.42 1442.69 1499.87 1443.78 1499.33 1444.87 1498.88 1446.06 1498.53 1447.34 1498.19 1448.62 1497.89 1449.83 1497.66 1450.96L1494.5 1464.78C1496.92 1464.66 1499.04 1464.07 1500.84 1463.01 1502.65 1461.94 1504.15 1460.57 1505.36 1458.9 1506.56 1457.22 1507.46 1455.32 1508.05 1453.19 1508.65 1451.07 1508.94 1448.88 1508.94 1446.64 1508.94 1445.98 1508.91 1445.27 1508.84 1444.49 1508.77 1443.72 1508.61 1443 1508.35 1442.34 1508.09 1441.67 1507.7 1441.11 1507.19 1440.65 1506.67 1440.2 1505.96 1439.97 1505.04 1439.97ZM1490.03 1436.84 1491.94 1439.31C1488.64 1441.81 1486.12 1444.46 1484.37 1447.25 1482.62 1450.04 1481.75 1452.82 1481.75 1455.6 1481.75 1458.19 1482.36 1460.21 1483.57 1461.68 1484.78 1463.15 1486.65 1464.1 1489.17 1464.54L1492.18 1451.08C1492.71 1448.62 1493.44 1446.49 1494.35 1444.69 1495.26 1442.89 1496.31 1441.41 1497.49 1440.25 1498.67 1439.09 1499.96 1438.23 1501.35 1437.67 1502.74 1437.12 1504.18 1436.84 1505.67 1436.84 1508.67 1436.84 1510.93 1437.73 1512.44 1439.52 1513.96 1441.31 1514.72 1443.82 1514.72 1447.06 1514.72 1449.96 1514.24 1452.66 1513.28 1455.17 1512.32 1457.68 1510.93 1459.87 1509.12 1461.73 1507.32 1463.58 1505.13 1465.04 1502.57 1466.1 1500.01 1467.17 1497.14 1467.71 1493.96 1467.73L1491.19 1480 1485.62 1480 1488.48 1467.55C1486.48 1467.29 1484.69 1466.83 1483.12 1466.16 1481.55 1465.5 1480.23 1464.65 1479.16 1463.62 1478.09 1462.58 1477.27 1461.37 1476.7 1459.98 1476.14 1458.59 1475.85 1457.03 1475.85 1455.31 1475.85 1451.99 1477.05 1448.8 1479.44 1445.73 1481.83 1442.66 1485.36 1439.7 1490.03 1436.84Z" fill="#D74514" fill-rule="evenodd"/><text fill="#000000" fill-opacity="0" font-family="Arial,Arial_MSFontService,sans-serif" font-size="43.1587" x="1475.85" y="1474.6">𝜑</text><path d="M1279.02 1739.91C1281.66 1739.91 1283.95 1740.12 1285.87 1740.56L1284.29 1747.45 1280.72 1747.45C1280.34 1745.91 1279.85 1744.8 1279.24 1744.12 1278.63 1743.45 1277.73 1743.11 1276.54 1743.11 1275 1743.11 1273.7 1743.53 1272.63 1744.39 1271.57 1745.24 1270.65 1746.5 1269.9 1748.17 1269.14 1749.85 1268.44 1752.11 1267.79 1754.94L1266.78 1759.36 1277.19 1759.36 1276.3 1763.45 1265.85 1763.45 1258.31 1798.79C1257.06 1804.66 1255.16 1809.03 1252.59 1811.9 1250.03 1814.78 1246.8 1816.22 1242.91 1816.22 1241.77 1816.22 1240.88 1816.15 1240.23 1816.02L1240.92 1812.45C1241.19 1812.53 1241.83 1812.57 1242.83 1812.57 1244.04 1812.57 1245.08 1812.26 1245.95 1811.64 1246.81 1811.02 1247.61 1809.94 1248.36 1808.4 1249.1 1806.86 1249.78 1804.72 1250.4 1802L1259.12 1763.45 1252.27 1763.45 1252.88 1760.66C1254.69 1760.55 1255.99 1760.4 1256.79 1760.21 1257.58 1760.02 1258.21 1759.74 1258.65 1759.36 1259.1 1758.98 1259.48 1758.49 1259.79 1757.88 1260.1 1757.27 1260.5 1756.16 1260.98 1754.54 1262.41 1749.67 1264.62 1746.02 1267.61 1743.57 1270.59 1741.13 1274.4 1739.91 1279.02 1739.91Z" fill-rule="evenodd"/><text fill="#000000" fill-opacity="0" font-family="Arial,Arial_MSFontService,sans-serif" font-size="76.313" x="1240.23" y="1806.68">𝑓</text><path d="M1290.88 1779.27C1289.49 1779.27 1288.33 1779.63 1287.4 1780.35 1286.47 1781.08 1285.73 1782.14 1285.18 1783.54 1284.63 1784.94 1284.25 1786.65 1284.02 1788.66 1283.79 1790.68 1283.68 1792.97 1283.68 1795.53 1283.68 1798.49 1283.82 1801.04 1284.11 1803.2 1284.4 1805.35 1284.84 1807.12 1285.45 1808.51 1286.05 1809.9 1286.81 1810.93 1287.73 1811.58 1288.64 1812.24 1289.73 1812.57 1291 1812.57 1292.19 1812.57 1293.24 1812.26 1294.13 1811.64 1295.02 1811.03 1295.76 1810.07 1296.35 1808.77 1296.94 1807.47 1297.38 1805.82 1297.67 1803.82 1297.97 1801.83 1298.12 1799.47 1298.12 1796.75 1298.12 1793.69 1297.96 1791.06 1297.63 1788.86 1297.3 1786.65 1296.84 1784.84 1296.24 1783.42 1295.65 1782 1294.9 1780.95 1294 1780.28 1293.09 1779.6 1292.06 1779.27 1290.88 1779.27ZM1291 1776.38C1293.37 1776.38 1295.39 1776.82 1297.06 1777.7 1298.74 1778.59 1300.11 1779.85 1301.17 1781.48 1302.24 1783.12 1303.02 1785.12 1303.51 1787.49 1304.01 1789.85 1304.26 1792.52 1304.26 1795.5 1304.26 1802.11 1303.09 1807.11 1300.74 1810.5 1298.4 1813.88 1295 1815.57 1290.56 1815.57 1286.15 1815.57 1282.87 1813.98 1280.73 1810.78 1278.58 1807.58 1277.51 1802.74 1277.51 1796.24 1277.51 1792.85 1277.84 1789.91 1278.51 1787.43 1279.17 1784.94 1280.11 1782.88 1281.31 1781.25 1282.51 1779.61 1283.93 1778.39 1285.58 1777.58 1287.23 1776.78 1289.04 1776.38 1291 1776.38Z" fill-rule="evenodd"/><text fill="#000000" fill-opacity="0" font-family="Arial,Arial_MSFontService,sans-serif" font-size="39.1973" x="1277.51" y="1810.67">0</text></g></svg>