<svg width="2481" height="740" xmlns="http://www.w3.org/2000/svg" xmlns:xlink="http://www.w3.org/1999/xlink" overflow="hidden"><defs><clipPath id="clip0"><rect x="969" y="989" width="2481" height="740"/></clipPath></defs><g clip-path="url(#clip0)" transform="translate(-969 -989)"><path d="M969.5 1589.92 3362.59 1589.92 3362.59 1599.08 969.5 1599.08ZM3358 1571.58 3403.83 1594.5 3358 1617.42Z"/><path d="M4.58333-2.38801e-06 4.58367 651.413-4.58299 651.413-4.58333 2.38801e-06ZM22.917 646.83 0.000360892 692.663-22.9163 646.83Z" transform="matrix(1 0 0 -1 2139.5 1728.16)"/><path d="M3332.32 1494.29C3334.97 1494.29 3337.25 1494.51 3339.17 1494.94L3337.59 1501.83 3334.03 1501.83C3333.65 1500.29 3333.15 1499.18 3332.55 1498.51 3331.94 1497.83 3331.04 1497.49 3329.85 1497.49 3328.31 1497.49 3327.01 1497.92 3325.94 1498.77 3324.87 1499.62 3323.96 1500.88 3323.21 1502.56 3322.45 1504.23 3321.75 1506.49 3321.1 1509.33L3320.08 1513.74 3330.5 1513.74 3329.61 1517.84 3319.15 1517.84 3311.61 1553.18C3310.37 1559.04 3308.47 1563.41 3305.9 1566.29 3303.33 1569.17 3300.1 1570.6 3296.21 1570.6 3295.08 1570.6 3294.19 1570.54 3293.54 1570.4L3294.23 1566.84C3294.5 1566.92 3295.13 1566.96 3296.13 1566.96 3297.35 1566.96 3298.39 1566.65 3299.25 1566.03 3300.12 1565.4 3300.92 1564.32 3301.67 1562.78 3302.41 1561.24 3303.09 1559.11 3303.71 1556.38L3312.43 1517.84 3305.58 1517.84 3306.18 1515.04C3307.99 1514.93 3309.3 1514.79 3310.09 1514.6 3310.89 1514.41 3311.51 1514.12 3311.96 1513.74 3312.4 1513.37 3312.78 1512.87 3313.09 1512.27 3313.4 1511.66 3313.8 1510.54 3314.29 1508.92 3315.72 1504.06 3317.93 1500.4 3320.92 1497.96 3323.9 1495.51 3327.7 1494.29 3332.32 1494.29Z" fill-rule="evenodd"/><text fill="#000000" fill-opacity="0" font-family="Arial,Arial_MSFontService,sans-serif" font-size="76.313" x="3293.54" y="1561.07">𝑓</text><path d="M2186.86 1091.57C2187.7 1091.57 2188.43 1091.66 2189.07 1091.85 2189.7 1092.04 2190.26 1092.33 2190.75 1092.72 2191.24 1093.11 2191.67 1093.62 2192.05 1094.24 2192.43 1094.86 2192.79 1095.71 2193.14 1096.77 2193.49 1097.84 2193.82 1099.17 2194.13 1100.75 2194.45 1102.33 2194.72 1103.97 2194.97 1105.67L2195.37 1105.67C2197.96 1102.02 2199.93 1099.35 2201.27 1097.67 2202.6 1095.98 2203.73 1094.72 2204.65 1093.9 2205.57 1093.07 2206.46 1092.49 2207.31 1092.15 2208.16 1091.82 2209.29 1091.65 2210.69 1091.65 2211.96 1091.65 2213 1091.81 2213.81 1092.13L2212.19 1099.47 2209.35 1099.47C2209.19 1098.33 2208.72 1097.77 2207.93 1097.77 2207.69 1097.77 2207.43 1097.81 2207.16 1097.89 2206.89 1097.97 2206.56 1098.15 2206.17 1098.42 2205.78 1098.69 2205.21 1099.21 2204.45 1100 2203.69 1100.78 2202.84 1101.74 2201.9 1102.87 2200.95 1104.01 2199.98 1105.2 2198.98 1106.44L2196.22 1109.88C2196.71 1112.48 2197.17 1114.72 2197.6 1116.61 2198.03 1118.5 2198.42 1120.08 2198.75 1121.33 2199.09 1122.59 2199.39 1123.58 2199.65 1124.31 2199.9 1125.04 2200.18 1125.59 2200.48 1125.95 2200.77 1126.32 2201.08 1126.58 2201.39 1126.72 2201.7 1126.87 2202.06 1126.95 2202.46 1126.95 2203.19 1126.95 2203.9 1126.66 2204.59 1126.1 2205.28 1125.53 2206.27 1124.24 2207.57 1122.25L2210.2 1123.99C2208.31 1126.8 2206.6 1128.78 2205.08 1129.93 2203.55 1131.07 2201.73 1131.65 2199.63 1131.65 2198.46 1131.65 2197.48 1131.44 2196.67 1131.02 2195.86 1130.6 2195.15 1129.93 2194.56 1129.01 2193.97 1128.09 2193.44 1126.66 2192.98 1124.72 2192.14 1121.26 2191.63 1118.61 2191.44 1116.77L2191.03 1116.77C2188.17 1120.8 2186.04 1123.69 2184.65 1125.45 2183.26 1127.2 2182.11 1128.5 2181.21 1129.34 2180.3 1130.18 2179.42 1130.76 2178.57 1131.1 2177.72 1131.44 2176.59 1131.61 2175.19 1131.61 2173.92 1131.61 2172.88 1131.45 2172.07 1131.12L2173.69 1123.79 2176.53 1123.79C2176.69 1124.92 2177.16 1125.49 2177.94 1125.49 2178.32 1125.49 2178.72 1125.39 2179.14 1125.18 2179.56 1124.98 2180.16 1124.49 2180.94 1123.72 2181.73 1122.95 2182.81 1121.75 2184.19 1120.1 2185.56 1118.45 2187.56 1115.98 2190.18 1112.68 2189.78 1110.55 2189.36 1108.49 2188.93 1106.52 2188.49 1104.55 2188.05 1102.71 2187.59 1101.01 2187.13 1099.31 2186.75 1098.19 2186.45 1097.67 2186.16 1097.14 2185.84 1096.77 2185.5 1096.57 2185.16 1096.37 2184.74 1096.27 2184.23 1096.27 2183.66 1096.27 2183.15 1096.4 2182.69 1096.65 2182.23 1096.91 2181.73 1097.35 2181.19 1097.99 2180.65 1098.62 2179.93 1099.62 2179.04 1100.97L2176.4 1099.23C2178.11 1096.66 2179.74 1094.74 2181.31 1093.47 2182.88 1092.2 2184.73 1091.57 2186.86 1091.57Z" fill-rule="evenodd"/><text fill="#000000" fill-opacity="0" font-family="Arial,Arial_MSFontService,sans-serif" font-size="40.0815" x="2172.07" y="1126.64">𝑥</text><path d="M2302 1068.89C2309.89 1070.97 2315.95 1075.46 2320.18 1082.36 2324.41 1089.26 2326.52 1097.59 2326.52 1107.35 2326.52 1117.13 2324.41 1125.45 2320.2 1132.33 2315.98 1139.21 2309.92 1143.69 2302 1145.77L2301.03 1142.65C2307.27 1140.56 2311.91 1136.46 2314.95 1130.32 2317.99 1124.19 2319.51 1116.4 2319.51 1106.94 2319.51 1097.81 2318 1090.22 2314.97 1084.18 2311.95 1078.15 2307.26 1074.09 2300.91 1072.01ZM2249.28 1068.89 2250.37 1072.01C2244.05 1074.09 2239.37 1078.15 2236.33 1084.18 2233.29 1090.22 2231.77 1097.81 2231.77 1106.94 2231.77 1116.4 2233.29 1124.19 2236.33 1130.32 2239.37 1136.46 2244.01 1140.56 2250.25 1142.65L2249.28 1145.77C2241.36 1143.69 2235.3 1139.21 2231.08 1132.33 2226.87 1125.45 2224.76 1117.13 2224.76 1107.35 2224.76 1097.59 2226.87 1089.26 2231.1 1082.36 2235.33 1075.46 2241.39 1070.97 2249.28 1068.89Z" fill-rule="evenodd"/><path d="M2289.88 1072.8C2292.53 1072.8 2294.81 1073.02 2296.73 1073.45L2295.15 1080.34 2291.58 1080.34C2291.2 1078.8 2290.71 1077.69 2290.1 1077.02 2289.49 1076.34 2288.6 1076 2287.41 1076 2285.87 1076 2284.56 1076.43 2283.5 1077.28 2282.43 1078.13 2281.52 1079.39 2280.76 1081.07 2280 1082.74 2279.3 1085 2278.65 1087.84L2277.64 1092.26 2288.05 1092.26 2287.16 1096.35 2276.71 1096.35 2269.17 1131.69C2267.93 1137.55 2266.02 1141.92 2263.45 1144.8 2260.89 1147.68 2257.66 1149.12 2253.77 1149.12 2252.63 1149.12 2251.74 1149.05 2251.09 1148.91L2251.78 1145.35C2252.05 1145.43 2252.69 1145.47 2253.69 1145.47 2254.9 1145.47 2255.94 1145.16 2256.81 1144.54 2257.67 1143.91 2258.48 1142.83 2259.22 1141.29 2259.96 1139.75 2260.65 1137.62 2261.27 1134.89L2269.98 1096.35 2263.13 1096.35 2263.74 1093.55C2265.55 1093.44 2266.85 1093.3 2267.65 1093.11 2268.45 1092.92 2269.07 1092.63 2269.51 1092.26 2269.96 1091.88 2270.34 1091.38 2270.65 1090.78 2270.96 1090.17 2271.36 1089.05 2271.84 1087.43 2273.28 1082.57 2275.48 1078.92 2278.47 1076.47 2281.46 1074.02 2285.26 1072.8 2289.88 1072.8Z" fill-rule="evenodd"/><text fill="#000000" fill-opacity="0" font-family="Arial,Arial_MSFontService,sans-serif" font-size="76.313" x="2251.09" y="1139.58">𝑓</text><path d="M2175.9 1277.1C2173.11 1277.1 2170.61 1278.22 2168.4 1280.46 2166.18 1282.7 2164.45 1285.71 2163.21 1289.48 2161.97 1293.25 2161.35 1297.01 2161.35 1300.76 2161.35 1303.57 2161.73 1305.67 2162.5 1307.07 2163.27 1308.46 2164.56 1309.15 2166.37 1309.15 2168.16 1309.15 2169.91 1308.38 2171.62 1306.84 2173.34 1305.3 2175.11 1303.11 2176.93 1300.26 2178.75 1297.41 2180.04 1294.12 2180.8 1290.39L2181.17 1288.65C2181.41 1287.54 2181.57 1286.58 2181.65 1285.77 2181.73 1284.96 2181.77 1284.08 2181.77 1283.13 2181.77 1281.05 2181.33 1279.53 2180.44 1278.55 2179.54 1277.58 2178.03 1277.1 2175.9 1277.1ZM2175.09 1273.89C2176.84 1273.89 2178.48 1274.09 2180.01 1274.48 2181.54 1274.87 2183.11 1275.57 2184.73 1276.57L2188.46 1273.89 2191.05 1274.54 2185.1 1300.24C2184.5 1302.8 2184.2 1304.8 2184.2 1306.23 2184.2 1307.32 2184.38 1308.1 2184.73 1308.59 2185.08 1309.07 2185.64 1309.31 2186.39 1309.31 2187.2 1309.31 2188.07 1308.98 2188.99 1308.32 2189.91 1307.66 2191.2 1306.4 2192.88 1304.53L2195.19 1306.8C2192.76 1309.4 2190.68 1311.24 2188.97 1312.33 2187.25 1313.43 2185.39 1313.98 2183.39 1313.98 2181.72 1313.98 2180.38 1313.42 2179.38 1312.31 2178.38 1311.21 2177.88 1309.73 2177.88 1307.9 2177.88 1306.41 2178.19 1304.83 2178.81 1303.15L2178.29 1302.99C2175.69 1306.78 2173.24 1309.54 2170.91 1311.3 2168.59 1313.06 2166.13 1313.94 2163.54 1313.94 2160.56 1313.94 2158.26 1312.81 2156.63 1310.57 2154.99 1308.33 2154.17 1305.18 2154.17 1301.13 2154.17 1296.48 2155.09 1292.02 2156.91 1287.73 2158.73 1283.45 2161.24 1280.07 2164.43 1277.6 2167.62 1275.13 2171.17 1273.89 2175.09 1273.89Z" fill="#D74514" fill-rule="evenodd"/><text fill="#000000" fill-opacity="0" font-family="Arial,Arial_MSFontService,sans-serif" font-size="40.0815" x="2154.17" y="1308.97">𝑎</text><path d="M2213.41 1294.49C2212.02 1294.49 2210.86 1294.85 2209.93 1295.58 2209 1296.3 2208.26 1297.36 2207.71 1298.76 2207.16 1300.16 2206.78 1301.87 2206.55 1303.89 2206.32 1305.9 2206.21 1308.19 2206.21 1310.75 2206.21 1313.71 2206.35 1316.27 2206.64 1318.42 2206.93 1320.58 2207.37 1322.35 2207.98 1323.74 2208.58 1325.13 2209.34 1326.15 2210.26 1326.81 2211.17 1327.46 2212.26 1327.79 2213.53 1327.79 2214.72 1327.79 2215.77 1327.48 2216.66 1326.86 2217.55 1326.25 2218.29 1325.29 2218.88 1323.99 2219.47 1322.69 2219.91 1321.04 2220.21 1319.05 2220.5 1317.05 2220.65 1314.69 2220.65 1311.97 2220.65 1308.91 2220.49 1306.28 2220.16 1304.08 2219.83 1301.88 2219.37 1300.06 2218.78 1298.64 2218.18 1297.22 2217.43 1296.18 2216.53 1295.5 2215.62 1294.83 2214.59 1294.49 2213.41 1294.49ZM2213.53 1291.6C2215.9 1291.6 2217.92 1292.04 2219.59 1292.92 2221.27 1293.81 2222.64 1295.07 2223.71 1296.71 2224.77 1298.35 2225.55 1300.35 2226.04 1302.71 2226.54 1305.07 2226.79 1307.74 2226.79 1310.72 2226.79 1317.33 2225.62 1322.33 2223.27 1325.72 2220.93 1329.1 2217.53 1330.8 2213.09 1330.8 2208.68 1330.8 2205.4 1329.2 2203.26 1326 2201.11 1322.8 2200.04 1317.96 2200.04 1311.47 2200.04 1308.07 2200.37 1305.13 2201.04 1302.65 2201.7 1300.17 2202.64 1298.11 2203.84 1296.47 2205.04 1294.83 2206.46 1293.61 2208.11 1292.81 2209.76 1292 2211.57 1291.6 2213.53 1291.6Z" fill="#D74514" fill-rule="evenodd"/><text fill="#000000" fill-opacity="0" font-family="Arial,Arial_MSFontService,sans-serif" font-size="39.1973" x="2200.04" y="1325.9">0</text><path d="M4.58333-8.73791e-06 4.58362 148.05-4.58305 148.05-4.58333 8.73791e-06ZM22.9169 143.467 0.000360892 189.3-22.9164 143.467Z" fill="#D74514" transform="matrix(1 0 0 -1 2369.5 1597.8)"/><path d="M2359.14 1628.62C2361.78 1628.62 2364.07 1628.84 2365.98 1629.27L2364.4 1636.16 2360.84 1636.16C2360.46 1634.62 2359.97 1633.51 2359.36 1632.84 2358.75 1632.16 2357.85 1631.82 2356.66 1631.82 2355.12 1631.82 2353.82 1632.25 2352.75 1633.1 2351.69 1633.95 2350.77 1635.22 2350.02 1636.89 2349.26 1638.57 2348.56 1640.82 2347.91 1643.66L2346.9 1648.08 2357.31 1648.08 2356.42 1652.17 2345.96 1652.17 2338.43 1687.51C2337.18 1693.37 2335.28 1697.74 2332.71 1700.62 2330.14 1703.5 2326.92 1704.94 2323.03 1704.94 2321.89 1704.94 2321 1704.87 2320.35 1704.73L2321.04 1701.17C2321.31 1701.25 2321.94 1701.29 2322.94 1701.29 2324.16 1701.29 2325.2 1700.98 2326.06 1700.36 2326.93 1699.74 2327.73 1698.65 2328.48 1697.11 2329.22 1695.57 2329.9 1693.44 2330.52 1690.71L2339.24 1652.17 2332.39 1652.17 2333 1649.37C2334.81 1649.27 2336.11 1649.12 2336.91 1648.93 2337.7 1648.74 2338.32 1648.45 2338.77 1648.08 2339.22 1647.7 2339.59 1647.2 2339.91 1646.6 2340.22 1645.99 2340.61 1644.87 2341.1 1643.25 2342.53 1638.39 2344.74 1634.74 2347.73 1632.29 2350.71 1629.85 2354.52 1628.62 2359.14 1628.62Z" fill-rule="evenodd"/><text fill="#000000" fill-opacity="0" font-family="Arial,Arial_MSFontService,sans-serif" font-size="76.313" x="2320.35" y="1695.4">𝑓</text><path d="M2371.54 1665.3 2373.36 1665.3C2373.32 1666.39 2373.29 1667.37 2373.27 1668.23 2373.25 1669.1 2373.24 1669.94 2373.23 1670.75 2373.22 1671.57 2373.21 1672.37 2373.21 1673.16L2373.21 1695.8C2373.21 1696.42 2373.23 1696.95 2373.27 1697.39 2373.31 1697.84 2373.37 1698.22 2373.46 1698.53 2373.55 1698.83 2373.67 1699.1 2373.82 1699.32 2373.97 1699.53 2374.14 1699.72 2374.34 1699.88 2374.58 1700.12 2374.9 1700.3 2375.3 1700.43 2375.69 1700.56 2376.2 1700.67 2376.81 1700.76 2377.43 1700.85 2378.17 1700.92 2379.03 1700.97 2379.9 1701.02 2380.94 1701.05 2382.15 1701.07L2382.15 1703.66 2358.53 1703.66 2358.53 1701.07C2359.7 1701.03 2360.69 1700.99 2361.51 1700.94 2362.32 1700.89 2363.01 1700.82 2363.59 1700.73 2364.17 1700.64 2364.63 1700.54 2364.98 1700.43 2365.32 1700.32 2365.63 1700.19 2365.88 1700.03 2366.16 1699.85 2366.4 1699.66 2366.6 1699.45 2366.8 1699.24 2366.96 1698.98 2367.07 1698.66 2367.19 1698.34 2367.29 1697.96 2367.36 1697.5 2367.43 1697.04 2367.46 1696.48 2367.46 1695.8L2367.46 1674.44C2367.46 1673.67 2367.31 1673.12 2367.02 1672.81 2366.72 1672.49 2366.29 1672.33 2365.73 1672.33 2365.12 1672.33 2364.21 1672.65 2362.99 1673.28 2361.78 1673.92 2360.21 1674.86 2358.29 1676.11 2358.03 1675.66 2357.79 1675.2 2357.57 1674.74 2357.35 1674.29 2357.13 1673.82 2356.89 1673.34 2359.35 1671.99 2361.79 1670.65 2364.2 1669.31 2366.61 1667.97 2369.06 1666.63 2371.54 1665.3Z" fill-rule="evenodd"/><text fill="#000000" fill-opacity="0" font-family="Arial,Arial_MSFontService,sans-serif" font-size="38.3633" x="2356.89" y="1698.87">1</text><path d="M4.58333-6.24361e-06 4.58364 223.675-4.58303 223.675-4.58333 6.24361e-06ZM22.917 219.092 0.000360892 264.925-22.9164 219.092Z" fill="#D74514" transform="matrix(1 0 0 -1 2139.5 1597.43)"/><path d="M2347.46 1340.55C2344.67 1340.55 2342.17 1341.67 2339.96 1343.91 2337.74 1346.15 2336.01 1349.16 2334.77 1352.93 2333.53 1356.7 2332.91 1360.46 2332.91 1364.22 2332.91 1367.03 2333.29 1369.13 2334.06 1370.52 2334.83 1371.91 2336.12 1372.61 2337.93 1372.61 2339.71 1372.61 2341.46 1371.84 2343.18 1370.3 2344.9 1368.76 2346.66 1366.56 2348.49 1363.71 2350.31 1360.86 2351.6 1357.57 2352.36 1353.84L2352.72 1352.1C2352.97 1350.99 2353.13 1350.03 2353.21 1349.22 2353.29 1348.41 2353.33 1347.53 2353.33 1346.59 2353.33 1344.51 2352.89 1342.98 2351.99 1342.01 2351.1 1341.03 2349.59 1340.55 2347.46 1340.55ZM2346.64 1337.35C2348.4 1337.35 2350.04 1337.54 2351.57 1337.93 2353.1 1338.33 2354.67 1339.02 2356.29 1340.02L2360.02 1337.35 2362.61 1338 2356.65 1363.69C2356.06 1366.26 2355.76 1368.26 2355.76 1369.69 2355.76 1370.77 2355.94 1371.55 2356.29 1372.04 2356.64 1372.52 2357.2 1372.77 2357.95 1372.77 2358.76 1372.77 2359.63 1372.44 2360.55 1371.77 2361.46 1371.11 2362.76 1369.85 2364.44 1367.99L2366.75 1370.26C2364.31 1372.85 2362.24 1374.69 2360.53 1375.79 2358.81 1376.88 2356.95 1377.43 2354.95 1377.43 2353.28 1377.43 2351.94 1376.87 2350.94 1375.77 2349.94 1374.66 2349.44 1373.19 2349.44 1371.35 2349.44 1369.86 2349.75 1368.28 2350.37 1366.61L2349.85 1366.45C2347.25 1370.23 2344.79 1373 2342.47 1374.75 2340.15 1376.51 2337.69 1377.39 2335.09 1377.39 2332.12 1377.39 2329.82 1376.27 2328.18 1374.02 2326.55 1371.78 2325.73 1368.63 2325.73 1364.58 2325.73 1359.93 2326.64 1355.47 2328.47 1351.19 2330.29 1346.9 2332.8 1343.53 2335.99 1341.06 2339.17 1338.58 2342.73 1337.35 2346.64 1337.35Z" fill="#D74514" fill-rule="evenodd"/><text fill="#000000" fill-opacity="0" font-family="Arial,Arial_MSFontService,sans-serif" font-size="40.0815" x="2325.73" y="1372.42">𝑎</text><path d="M2385.51 1355.26 2387.33 1355.26C2387.29 1356.35 2387.26 1357.33 2387.24 1358.19 2387.22 1359.06 2387.21 1359.9 2387.2 1360.71 2387.19 1361.53 2387.18 1362.33 2387.18 1363.12L2387.18 1385.76C2387.18 1386.38 2387.2 1386.91 2387.24 1387.35 2387.28 1387.8 2387.35 1388.18 2387.43 1388.49 2387.52 1388.79 2387.64 1389.06 2387.79 1389.28 2387.94 1389.49 2388.11 1389.68 2388.31 1389.84 2388.55 1390.08 2388.87 1390.26 2389.27 1390.39 2389.66 1390.52 2390.17 1390.63 2390.79 1390.72 2391.4 1390.81 2392.14 1390.88 2393 1390.93 2393.87 1390.98 2394.91 1391.01 2396.12 1391.03L2396.12 1393.62 2372.5 1393.62 2372.5 1391.03C2373.67 1390.99 2374.66 1390.95 2375.48 1390.9 2376.29 1390.85 2376.98 1390.78 2377.56 1390.69 2378.14 1390.6 2378.6 1390.5 2378.95 1390.39 2379.29 1390.28 2379.6 1390.15 2379.85 1389.99 2380.13 1389.81 2380.37 1389.62 2380.57 1389.41 2380.77 1389.2 2380.93 1388.94 2381.05 1388.62 2381.16 1388.3 2381.26 1387.91 2381.33 1387.46 2381.4 1387 2381.43 1386.44 2381.43 1385.76L2381.43 1364.4C2381.43 1363.63 2381.28 1363.08 2380.99 1362.77 2380.69 1362.45 2380.26 1362.29 2379.71 1362.29 2379.09 1362.29 2378.18 1362.61 2376.97 1363.24 2375.75 1363.88 2374.19 1364.82 2372.26 1366.07 2372 1365.62 2371.76 1365.16 2371.54 1364.7 2371.33 1364.25 2371.1 1363.78 2370.86 1363.3 2373.32 1361.95 2375.76 1360.61 2378.17 1359.27 2380.58 1357.93 2383.03 1356.59 2385.51 1355.26Z" fill="#D74514" fill-rule="evenodd"/><text fill="#000000" fill-opacity="0" font-family="Arial,Arial_MSFontService,sans-serif" font-size="38.3633" x="2370.86" y="1388.83">1</text><path d="M4.58333-4.10781e-06 4.58366 361.42-4.58301 361.42-4.58333 4.10781e-06ZM22.917 356.836 0.000360892 402.67-22.9163 356.836Z" fill="#D74514" transform="matrix(1 0 0 -1 2600.5 1594.17)"/><path d="M4.58333-1.24872e-05 4.58358 91.213-4.58309 91.213-4.58333 1.24872e-05ZM22.9169 86.6296 0.000360892 132.463-22.9164 86.6298Z" fill="#D74514" transform="matrix(1 0 0 -1 2830.5 1596.96)"/><path d="M4.58333-6.62508e-06 4.58363 208.421-4.58303 208.421-4.58333 6.62508e-06ZM22.917 203.838 0.000360892 249.671-22.9164 203.838Z" fill="#D74514" transform="matrix(1 0 0 -1 3061.5 1597.17)"/><path d="M1904.92 1597.8 1904.92 1449.75 1914.08 1449.75 1914.08 1597.8ZM1886.58 1454.33 1909.5 1408.5 1932.42 1454.33Z" fill="#D74514"/><path d="M1673.92 1594.17 1673.92 1232.75 1683.08 1232.75 1683.08 1594.17ZM1655.58 1237.33 1678.5 1191.5 1701.42 1237.33Z" fill="#D74514"/><path d="M1442.92 1596.96 1442.92 1505.75 1452.08 1505.75 1452.08 1596.96ZM1424.58 1510.33 1447.5 1464.5 1470.42 1510.33Z" fill="#D74514"/><path d="M1212.92 1597.17 1212.92 1388.75 1222.08 1388.75 1222.08 1597.17ZM1194.58 1393.33 1217.5 1347.5 1240.42 1393.33Z" fill="#D74514"/><path d="M3053.06 1628.62C3055.71 1628.62 3057.99 1628.84 3059.91 1629.27L3058.33 1636.16 3054.76 1636.16C3054.38 1634.62 3053.89 1633.51 3053.28 1632.84 3052.68 1632.16 3051.78 1631.82 3050.59 1631.82 3049.05 1631.82 3047.74 1632.25 3046.68 1633.1 3045.61 1633.95 3044.7 1635.22 3043.94 1636.89 3043.18 1638.57 3042.48 1640.82 3041.83 1643.66L3040.82 1648.08 3051.24 1648.08 3050.34 1652.17 3039.89 1652.17 3032.35 1687.51C3031.11 1693.37 3029.2 1697.74 3026.64 1700.62 3024.07 1703.5 3020.84 1704.94 3016.95 1704.94 3015.82 1704.94 3014.92 1704.87 3014.28 1704.73L3014.96 1701.17C3015.23 1701.25 3015.87 1701.29 3016.87 1701.29 3018.08 1701.29 3019.13 1700.98 3019.99 1700.36 3020.85 1699.74 3021.66 1698.65 3022.4 1697.11 3023.14 1695.57 3023.83 1693.44 3024.45 1690.71L3033.16 1652.17 3026.31 1652.17 3026.92 1649.37C3028.73 1649.27 3030.03 1649.12 3030.83 1648.93 3031.63 1648.74 3032.25 1648.45 3032.7 1648.08 3033.14 1647.7 3033.52 1647.2 3033.83 1646.6 3034.14 1645.99 3034.54 1644.87 3035.03 1643.25 3036.46 1638.39 3038.67 1634.74 3041.65 1632.29 3044.64 1629.85 3048.44 1628.62 3053.06 1628.62Z" fill-rule="evenodd"/><text fill="#000000" fill-opacity="0" font-family="Arial,Arial_MSFontService,sans-serif" font-size="76.313" x="3014.28" y="1695.4">𝑓</text><path d="M3063.21 1672.48C3061.31 1675.24 3059.41 1677.98 3057.51 1680.7 3055.61 1683.42 3053.7 1686.15 3051.78 1688.89L3051.78 1689.25 3063.21 1689.25 3063.21 1683.26C3063.21 1682.59 3063.22 1681.75 3063.24 1680.76 3063.26 1679.77 3063.29 1678.76 3063.32 1677.74 3063.35 1676.71 3063.38 1675.74 3063.42 1674.82 3063.46 1673.89 3063.5 1673.11 3063.54 1672.48ZM3064.08 1665.51 3068.81 1665.51 3068.81 1689.25 3069.35 1689.25C3070.16 1689.25 3070.82 1689.21 3071.33 1689.13 3071.84 1689.05 3072.24 1688.89 3072.55 1688.64 3072.86 1688.39 3073.12 1688.04 3073.33 1687.6 3073.54 1687.15 3073.76 1686.57 3074 1685.85L3076.53 1685.85C3076.47 1686.94 3076.4 1688.03 3076.34 1689.1 3076.27 1690.17 3076.2 1691.26 3076.14 1692.38L3068.81 1692.38 3068.81 1696.28C3068.81 1697.43 3068.84 1698.32 3068.89 1698.96 3068.94 1699.59 3069.09 1700.09 3069.34 1700.45 3069.58 1700.8 3069.95 1701.07 3070.44 1701.25 3070.92 1701.43 3071.6 1701.64 3072.48 1701.88L3072.48 1703.66 3059.61 1703.66 3059.61 1701.88C3060.21 1701.72 3060.71 1701.57 3061.13 1701.45 3061.55 1701.32 3061.89 1701.17 3062.17 1701 3062.45 1700.83 3062.65 1700.63 3062.78 1700.4 3062.91 1700.17 3063.01 1699.89 3063.08 1699.54 3063.15 1699.19 3063.19 1698.75 3063.2 1698.23 3063.21 1697.7 3063.21 1697.05 3063.21 1696.28L3063.21 1692.38 3046.45 1692.38 3046.45 1690.02C3049.4 1685.91 3052.34 1681.83 3055.26 1677.77 3058.18 1673.71 3061.12 1669.62 3064.08 1665.51Z" fill-rule="evenodd"/><text fill="#000000" fill-opacity="0" font-family="Arial,Arial_MSFontService,sans-serif" font-size="38.1548" x="3046.45" y="1698.89">4</text><path d="M2589.27 1628.62C2591.92 1628.62 2594.2 1628.84 2596.12 1629.27L2594.54 1636.16 2590.97 1636.16C2590.59 1634.62 2590.1 1633.51 2589.49 1632.84 2588.89 1632.16 2587.99 1631.82 2586.8 1631.82 2585.26 1631.82 2583.96 1632.25 2582.89 1633.1 2581.82 1633.95 2580.91 1635.22 2580.15 1636.89 2579.4 1638.57 2578.69 1640.82 2578.04 1643.66L2577.03 1648.08 2587.45 1648.08 2586.56 1652.17 2576.1 1652.17 2568.56 1687.51C2567.32 1693.37 2565.41 1697.74 2562.85 1700.62 2560.28 1703.5 2557.05 1704.94 2553.16 1704.94 2552.03 1704.94 2551.13 1704.87 2550.49 1704.73L2551.18 1701.17C2551.45 1701.25 2552.08 1701.29 2553.08 1701.29 2554.3 1701.29 2555.34 1700.98 2556.2 1700.36 2557.07 1699.74 2557.87 1698.65 2558.61 1697.11 2559.35 1695.57 2560.04 1693.44 2560.66 1690.71L2569.37 1652.17 2562.52 1652.17 2563.13 1649.37C2564.94 1649.27 2566.24 1649.12 2567.04 1648.93 2567.84 1648.74 2568.46 1648.45 2568.91 1648.08 2569.35 1647.7 2569.73 1647.2 2570.04 1646.6 2570.35 1645.99 2570.75 1644.87 2571.24 1643.25 2572.67 1638.39 2574.88 1634.74 2577.86 1632.29 2580.85 1629.85 2584.65 1628.62 2589.27 1628.62Z" fill-rule="evenodd"/><text fill="#000000" fill-opacity="0" font-family="Arial,Arial_MSFontService,sans-serif" font-size="76.313" x="2550.49" y="1695.4">𝑓</text><path d="M2601.26 1665.09C2603.32 1665.09 2605.08 1665.33 2606.54 1665.79 2608 1666.26 2609.19 1666.89 2610.1 1667.68 2611.02 1668.48 2611.68 1669.43 2612.08 1670.54 2612.49 1671.66 2612.69 1672.86 2612.69 1674.15 2612.69 1674.92 2612.64 1675.64 2612.53 1676.31 2612.42 1676.97 2612.23 1677.63 2611.96 1678.27 2611.7 1678.92 2611.34 1679.57 2610.91 1680.22 2610.47 1680.88 2609.92 1681.57 2609.27 1682.31 2608.77 1682.94 2608.13 1683.68 2607.33 1684.51 2606.54 1685.35 2605.67 1686.24 2604.73 1687.19 2603.78 1688.15 2602.8 1689.14 2601.76 1690.17 2600.73 1691.2 2599.73 1692.23 2598.76 1693.24 2597.78 1694.25 2596.89 1695.23 2596.07 1696.19 2595.26 1697.14 2594.6 1698.01 2594.08 1698.81L2605.1 1698.81C2606.03 1698.81 2606.78 1698.77 2607.33 1698.7 2607.89 1698.64 2608.35 1698.48 2608.72 1698.24 2609.09 1698.01 2609.4 1697.64 2609.66 1697.16 2609.91 1696.67 2610.21 1696 2610.55 1695.15L2613.32 1695.15C2613.22 1696.56 2613.13 1697.98 2613.04 1699.4 2612.95 1700.83 2612.85 1702.25 2612.75 1703.66L2587.53 1703.66 2587.53 1702.12C2588 1701.04 2588.56 1699.99 2589.19 1698.94 2589.83 1697.9 2590.54 1696.84 2591.34 1695.77 2592.13 1694.7 2593.04 1693.59 2594.05 1692.45 2595.06 1691.31 2596.18 1690.12 2597.41 1688.89 2599.28 1687.02 2600.8 1685.43 2601.97 1684.11 2603.14 1682.79 2604.07 1681.61 2604.74 1680.58 2605.42 1679.55 2605.88 1678.59 2606.13 1677.72 2606.38 1676.85 2606.5 1675.91 2606.5 1674.92 2606.5 1673.91 2606.36 1672.98 2606.07 1672.12 2605.78 1671.27 2605.37 1670.54 2604.83 1669.95 2604.3 1669.35 2603.61 1668.89 2602.79 1668.55 2601.97 1668.21 2601.02 1668.04 2599.95 1668.04 2598.1 1668.04 2596.55 1668.54 2595.3 1669.55 2594.05 1670.55 2593.08 1672 2592.38 1673.91L2588.48 1673.91 2588.48 1668.1C2591.02 1667.05 2593.36 1666.28 2595.49 1665.81 2597.63 1665.33 2599.55 1665.09 2601.26 1665.09Z" fill-rule="evenodd"/><text fill="#000000" fill-opacity="0" font-family="Arial,Arial_MSFontService,sans-serif" font-size="38.5718" x="2587.53" y="1698.84">2</text><path d="M2820.36 1628.62C2823.01 1628.62 2825.29 1628.84 2827.21 1629.27L2825.63 1636.16 2822.06 1636.16C2821.68 1634.62 2821.19 1633.51 2820.58 1632.84 2819.97 1632.16 2819.07 1631.82 2817.89 1631.82 2816.35 1631.82 2815.04 1632.25 2813.97 1633.1 2812.91 1633.95 2812 1635.22 2811.24 1636.89 2810.48 1638.57 2809.78 1640.82 2809.13 1643.66L2808.12 1648.08 2818.53 1648.08 2817.64 1652.17 2807.19 1652.17 2799.65 1687.51C2798.41 1693.37 2796.5 1697.74 2793.93 1700.62 2791.37 1703.5 2788.14 1704.94 2784.25 1704.94 2783.11 1704.94 2782.22 1704.87 2781.57 1704.73L2782.26 1701.17C2782.53 1701.25 2783.17 1701.29 2784.17 1701.29 2785.38 1701.29 2786.42 1700.98 2787.29 1700.36 2788.15 1699.74 2788.96 1698.65 2789.7 1697.11 2790.44 1695.57 2791.12 1693.44 2791.75 1690.71L2800.46 1652.17 2793.61 1652.17 2794.22 1649.37C2796.03 1649.27 2797.33 1649.12 2798.13 1648.93 2798.93 1648.74 2799.55 1648.45 2799.99 1648.08 2800.44 1647.7 2800.82 1647.2 2801.13 1646.6 2801.44 1645.99 2801.84 1644.87 2802.32 1643.25 2803.75 1638.39 2805.96 1634.74 2808.95 1632.29 2811.93 1629.85 2815.74 1628.62 2820.36 1628.62Z" fill-rule="evenodd"/><text fill="#000000" fill-opacity="0" font-family="Arial,Arial_MSFontService,sans-serif" font-size="76.313" x="2781.57" y="1695.4">𝑓</text><path d="M2832.28 1665.09C2833.87 1665.09 2835.36 1665.26 2836.74 1665.6 2838.12 1665.94 2839.31 1666.45 2840.33 1667.13 2841.34 1667.82 2842.13 1668.67 2842.69 1669.69 2843.26 1670.72 2843.54 1671.9 2843.54 1673.25 2843.54 1674.52 2843.36 1675.65 2843.01 1676.62 2842.65 1677.59 2842.1 1678.48 2841.35 1679.27 2840.61 1680.06 2839.7 1680.78 2838.61 1681.43 2837.53 1682.07 2836.29 1682.7 2834.88 1683.29L2834.88 1683.65C2836.21 1683.89 2837.45 1684.27 2838.6 1684.8 2839.75 1685.32 2840.76 1685.99 2841.62 1686.79 2842.49 1687.6 2843.17 1688.52 2843.66 1689.58 2844.16 1690.63 2844.41 1691.79 2844.41 1693.06 2844.41 1694.65 2844.11 1696.12 2843.51 1697.48 2842.92 1698.84 2842.02 1700.02 2840.83 1701.01 2839.64 1702.01 2838.17 1702.78 2836.42 1703.34 2834.68 1703.89 2832.63 1704.17 2830.29 1704.17 2828.44 1704.17 2826.57 1703.99 2824.66 1703.62 2822.75 1703.25 2820.95 1702.77 2819.24 1702.17L2819.24 1695.74 2823.08 1695.74C2823.4 1696.73 2823.78 1697.58 2824.21 1698.29 2824.65 1698.99 2825.16 1699.57 2825.75 1700.02 2826.33 1700.46 2827.01 1700.78 2827.77 1700.98 2828.54 1701.18 2829.41 1701.28 2830.38 1701.28 2832.94 1701.28 2834.88 1700.67 2836.2 1699.45 2837.52 1698.23 2838.18 1696.38 2838.18 1693.89 2838.18 1691.25 2837.31 1689.25 2835.58 1687.89 2833.84 1686.53 2831.26 1685.85 2827.85 1685.85L2825.23 1685.85 2825.23 1682.99C2827.31 1682.89 2829.11 1682.6 2830.63 1682.11 2832.15 1681.63 2833.42 1681 2834.43 1680.22 2835.44 1679.45 2836.2 1678.55 2836.69 1677.51 2837.19 1676.48 2837.44 1675.38 2837.44 1674.21 2837.44 1672.3 2836.87 1670.8 2835.74 1669.69 2834.61 1668.59 2832.97 1668.04 2830.82 1668.04 2829.02 1668.04 2827.5 1668.54 2826.28 1669.53 2825.06 1670.52 2824.12 1672 2823.47 1673.97L2819.69 1673.97 2819.69 1668.1C2822.03 1667.11 2824.24 1666.36 2826.31 1665.85 2828.39 1665.35 2830.38 1665.09 2832.28 1665.09Z" fill-rule="evenodd"/><text fill="#000000" fill-opacity="0" font-family="Arial,Arial_MSFontService,sans-serif" font-size="39.0781" x="2819.24" y="1699.29">3</text><path d="M1143.58 1660.4 1193.51 1660.4 1193.51 1665.79 1143.58 1665.79Z" fill-rule="evenodd"/><text fill="#000000" fill-opacity="0" font-family="Arial,Arial_MSFontService,sans-serif" font-size="5.39014" x="1143.58" y="1665.11">−</text><path d="M1237.6 1628.62C1240.24 1628.62 1242.53 1628.84 1244.45 1629.27L1242.87 1636.16 1239.3 1636.16C1238.92 1634.62 1238.43 1633.51 1237.82 1632.84 1237.21 1632.16 1236.31 1631.82 1235.12 1631.82 1233.58 1631.82 1232.28 1632.25 1231.21 1633.1 1230.15 1633.95 1229.23 1635.22 1228.48 1636.89 1227.72 1638.57 1227.02 1640.82 1226.37 1643.66L1225.36 1648.08 1235.77 1648.08 1234.88 1652.17 1224.43 1652.17 1216.89 1687.51C1215.64 1693.37 1213.74 1697.74 1211.17 1700.62 1208.61 1703.5 1205.38 1704.94 1201.49 1704.94 1200.35 1704.94 1199.46 1704.87 1198.81 1704.73L1199.5 1701.17C1199.77 1701.25 1200.41 1701.29 1201.41 1701.29 1202.62 1701.29 1203.66 1700.98 1204.53 1700.36 1205.39 1699.74 1206.19 1698.65 1206.94 1697.11 1207.68 1695.57 1208.36 1693.44 1208.98 1690.71L1217.7 1652.17 1210.85 1652.17 1211.46 1649.37C1213.27 1649.27 1214.57 1649.12 1215.37 1648.93 1216.16 1648.74 1216.79 1648.45 1217.23 1648.08 1217.68 1647.7 1218.06 1647.2 1218.37 1646.6 1218.68 1645.99 1219.08 1644.87 1219.56 1643.25 1220.99 1638.39 1223.2 1634.74 1226.19 1632.29 1229.17 1629.85 1232.98 1628.62 1237.6 1628.62Z" fill-rule="evenodd"/><text fill="#000000" fill-opacity="0" font-family="Arial,Arial_MSFontService,sans-serif" font-size="76.313" x="1198.81" y="1695.4">𝑓</text><path d="M1247.75 1672.48C1245.85 1675.24 1243.94 1677.98 1242.05 1680.7 1240.15 1683.42 1238.24 1686.15 1236.31 1688.89L1236.31 1689.25 1247.75 1689.25 1247.75 1683.26C1247.75 1682.59 1247.76 1681.75 1247.78 1680.76 1247.8 1679.77 1247.83 1678.76 1247.86 1677.74 1247.89 1676.71 1247.92 1675.74 1247.96 1674.82 1248 1673.89 1248.04 1673.11 1248.08 1672.48ZM1248.62 1665.51 1253.35 1665.51 1253.35 1689.25 1253.89 1689.25C1254.7 1689.25 1255.36 1689.21 1255.87 1689.13 1256.37 1689.05 1256.78 1688.89 1257.09 1688.64 1257.4 1688.39 1257.66 1688.04 1257.86 1687.6 1258.07 1687.15 1258.3 1686.57 1258.53 1685.85L1261.07 1685.85C1261.01 1686.94 1260.94 1688.03 1260.87 1689.1 1260.8 1690.17 1260.74 1691.26 1260.68 1692.38L1253.35 1692.38 1253.35 1696.28C1253.35 1697.43 1253.38 1698.32 1253.43 1698.96 1253.48 1699.59 1253.62 1700.09 1253.87 1700.45 1254.12 1700.8 1254.49 1701.07 1254.97 1701.25 1255.46 1701.43 1256.14 1701.64 1257.01 1701.88L1257.01 1703.66 1244.15 1703.66 1244.15 1701.88C1244.74 1701.72 1245.25 1701.57 1245.67 1701.45 1246.08 1701.32 1246.43 1701.17 1246.71 1701 1246.99 1700.83 1247.19 1700.63 1247.32 1700.4 1247.45 1700.17 1247.55 1699.89 1247.62 1699.54 1247.69 1699.19 1247.73 1698.75 1247.74 1698.23 1247.75 1697.7 1247.75 1697.05 1247.75 1696.28L1247.75 1692.38 1230.98 1692.38 1230.98 1690.02C1233.94 1685.91 1236.88 1681.83 1239.8 1677.77 1242.72 1673.71 1245.66 1669.62 1248.62 1665.51Z" fill-rule="evenodd"/><text fill="#000000" fill-opacity="0" font-family="Arial,Arial_MSFontService,sans-serif" font-size="38.1548" x="1230.98" y="1698.89">4</text><path d="M1836.18 1660.4 1886.11 1660.4 1886.11 1665.79 1836.18 1665.79Z" fill-rule="evenodd"/><text fill="#000000" fill-opacity="0" font-family="Arial,Arial_MSFontService,sans-serif" font-size="5.39014" x="1836.18" y="1665.11">−</text><path d="M1930.19 1628.62C1932.84 1628.62 1935.12 1628.84 1937.04 1629.27L1935.46 1636.16 1931.89 1636.16C1931.52 1634.62 1931.02 1633.51 1930.42 1632.84 1929.81 1632.16 1928.91 1631.82 1927.72 1631.82 1926.18 1631.82 1924.88 1632.25 1923.81 1633.1 1922.74 1633.95 1921.83 1635.22 1921.07 1636.89 1920.32 1638.57 1919.61 1640.82 1918.97 1643.66L1917.95 1648.08 1928.37 1648.08 1927.48 1652.17 1917.02 1652.17 1909.48 1687.51C1908.24 1693.37 1906.34 1697.74 1903.77 1700.62 1901.2 1703.5 1897.97 1704.94 1894.08 1704.94 1892.95 1704.94 1892.06 1704.87 1891.41 1704.73L1892.1 1701.17C1892.37 1701.25 1893 1701.29 1894 1701.29 1895.22 1701.29 1896.26 1700.98 1897.12 1700.36 1897.99 1699.74 1898.79 1698.65 1899.53 1697.11 1900.28 1695.57 1900.96 1693.44 1901.58 1690.71L1910.29 1652.17 1903.44 1652.17 1904.05 1649.37C1905.86 1649.27 1907.17 1649.12 1907.96 1648.93 1908.76 1648.74 1909.38 1648.45 1909.83 1648.08 1910.27 1647.7 1910.65 1647.2 1910.96 1646.6 1911.27 1645.99 1911.67 1644.87 1912.16 1643.25 1913.59 1638.39 1915.8 1634.74 1918.78 1632.29 1921.77 1629.85 1925.57 1628.62 1930.19 1628.62Z" fill-rule="evenodd"/><text fill="#000000" fill-opacity="0" font-family="Arial,Arial_MSFontService,sans-serif" font-size="76.313" x="1891.41" y="1695.4">𝑓</text><path d="M1942.6 1665.3 1944.42 1665.3C1944.38 1666.39 1944.35 1667.37 1944.33 1668.23 1944.31 1669.1 1944.29 1669.94 1944.28 1670.75 1944.27 1671.57 1944.27 1672.37 1944.27 1673.16L1944.27 1695.8C1944.27 1696.42 1944.29 1696.95 1944.33 1697.39 1944.37 1697.84 1944.43 1698.22 1944.52 1698.53 1944.61 1698.83 1944.73 1699.1 1944.88 1699.32 1945.03 1699.53 1945.2 1699.72 1945.4 1699.88 1945.64 1700.12 1945.96 1700.3 1946.35 1700.43 1946.75 1700.56 1947.26 1700.67 1947.87 1700.76 1948.49 1700.85 1949.23 1700.92 1950.09 1700.97 1950.95 1701.02 1951.99 1701.05 1953.2 1701.07L1953.2 1703.66 1929.58 1703.66 1929.58 1701.07C1930.76 1701.03 1931.75 1700.99 1932.56 1700.94 1933.38 1700.89 1934.07 1700.82 1934.65 1700.73 1935.22 1700.64 1935.68 1700.54 1936.03 1700.43 1936.38 1700.32 1936.68 1700.19 1936.94 1700.03 1937.22 1699.85 1937.46 1699.66 1937.66 1699.45 1937.85 1699.24 1938.01 1698.98 1938.13 1698.66 1938.25 1698.34 1938.35 1697.96 1938.41 1697.5 1938.48 1697.04 1938.52 1696.48 1938.52 1695.8L1938.52 1674.44C1938.52 1673.67 1938.37 1673.12 1938.07 1672.81 1937.77 1672.49 1937.35 1672.33 1936.79 1672.33 1936.18 1672.33 1935.26 1672.65 1934.05 1673.28 1932.84 1673.92 1931.27 1674.86 1929.35 1676.11 1929.09 1675.66 1928.85 1675.2 1928.63 1674.74 1928.41 1674.29 1928.18 1673.82 1927.95 1673.34 1930.41 1671.99 1932.85 1670.65 1935.26 1669.31 1937.67 1667.97 1940.12 1666.63 1942.6 1665.3Z" fill-rule="evenodd"/><text fill="#000000" fill-opacity="0" font-family="Arial,Arial_MSFontService,sans-serif" font-size="38.3633" x="1927.95" y="1698.87">1</text><path d="M1373.05 1660.4 1422.98 1660.4 1422.98 1665.79 1373.05 1665.79Z" fill-rule="evenodd"/><text fill="#000000" fill-opacity="0" font-family="Arial,Arial_MSFontService,sans-serif" font-size="5.39014" x="1373.05" y="1665.11">−</text><path d="M1467.07 1628.62C1469.72 1628.62 1472 1628.84 1473.92 1629.27L1472.34 1636.16 1468.77 1636.16C1468.39 1634.62 1467.9 1633.51 1467.29 1632.84 1466.68 1632.16 1465.78 1631.82 1464.6 1631.82 1463.06 1631.82 1461.75 1632.25 1460.68 1633.1 1459.62 1633.95 1458.71 1635.22 1457.95 1636.89 1457.19 1638.57 1456.49 1640.82 1455.84 1643.66L1454.83 1648.08 1465.24 1648.08 1464.35 1652.17 1453.9 1652.17 1446.36 1687.51C1445.12 1693.37 1443.21 1697.74 1440.64 1700.62 1438.08 1703.5 1434.85 1704.94 1430.96 1704.94 1429.82 1704.94 1428.93 1704.87 1428.28 1704.73L1428.97 1701.17C1429.24 1701.25 1429.88 1701.29 1430.88 1701.29 1432.09 1701.29 1433.13 1700.98 1434 1700.36 1434.86 1699.74 1435.67 1698.65 1436.41 1697.11 1437.15 1695.57 1437.83 1693.44 1438.46 1690.71L1447.17 1652.17 1440.32 1652.17 1440.93 1649.37C1442.74 1649.27 1444.04 1649.12 1444.84 1648.93 1445.64 1648.74 1446.26 1648.45 1446.7 1648.08 1447.15 1647.7 1447.53 1647.2 1447.84 1646.6 1448.15 1645.99 1448.55 1644.87 1449.03 1643.25 1450.47 1638.39 1452.67 1634.74 1455.66 1632.29 1458.64 1629.85 1462.45 1628.62 1467.07 1628.62Z" fill-rule="evenodd"/><text fill="#000000" fill-opacity="0" font-family="Arial,Arial_MSFontService,sans-serif" font-size="76.313" x="1428.28" y="1695.4">𝑓</text><path d="M1478.99 1665.09C1480.58 1665.09 1482.07 1665.26 1483.45 1665.6 1484.83 1665.94 1486.02 1666.45 1487.04 1667.13 1488.05 1667.82 1488.84 1668.67 1489.4 1669.69 1489.97 1670.72 1490.25 1671.9 1490.25 1673.25 1490.25 1674.52 1490.07 1675.65 1489.72 1676.62 1489.36 1677.59 1488.81 1678.48 1488.06 1679.27 1487.32 1680.06 1486.41 1680.78 1485.32 1681.43 1484.24 1682.07 1483 1682.7 1481.59 1683.29L1481.59 1683.65C1482.92 1683.89 1484.16 1684.27 1485.31 1684.8 1486.46 1685.32 1487.47 1685.99 1488.33 1686.79 1489.2 1687.6 1489.88 1688.52 1490.37 1689.58 1490.87 1690.63 1491.12 1691.79 1491.12 1693.06 1491.12 1694.65 1490.82 1696.12 1490.22 1697.48 1489.63 1698.84 1488.73 1700.02 1487.54 1701.01 1486.35 1702.01 1484.88 1702.78 1483.13 1703.34 1481.39 1703.89 1479.34 1704.17 1477 1704.17 1475.15 1704.17 1473.28 1703.99 1471.37 1703.62 1469.46 1703.25 1467.66 1702.77 1465.95 1702.17L1465.95 1695.74 1469.79 1695.74C1470.11 1696.73 1470.49 1697.58 1470.92 1698.29 1471.36 1698.99 1471.87 1699.57 1472.46 1700.02 1473.04 1700.46 1473.72 1700.78 1474.48 1700.98 1475.25 1701.18 1476.12 1701.28 1477.09 1701.28 1479.65 1701.28 1481.59 1700.67 1482.91 1699.45 1484.23 1698.23 1484.89 1696.38 1484.89 1693.89 1484.89 1691.25 1484.02 1689.25 1482.29 1687.89 1480.55 1686.53 1477.97 1685.85 1474.56 1685.85L1471.94 1685.85 1471.94 1682.99C1474.02 1682.89 1475.82 1682.6 1477.34 1682.11 1478.86 1681.63 1480.13 1681 1481.14 1680.22 1482.15 1679.45 1482.91 1678.55 1483.4 1677.51 1483.9 1676.48 1484.15 1675.38 1484.15 1674.21 1484.15 1672.3 1483.58 1670.8 1482.45 1669.69 1481.32 1668.59 1479.68 1668.04 1477.54 1668.04 1475.73 1668.04 1474.21 1668.54 1472.99 1669.53 1471.77 1670.52 1470.83 1672 1470.18 1673.97L1466.4 1673.97 1466.4 1668.1C1468.74 1667.11 1470.95 1666.36 1473.02 1665.85 1475.1 1665.35 1477.09 1665.09 1478.99 1665.09Z" fill-rule="evenodd"/><text fill="#000000" fill-opacity="0" font-family="Arial,Arial_MSFontService,sans-serif" font-size="39.0781" x="1465.95" y="1699.29">3</text><path d="M1604.14 1660.4 1654.07 1660.4 1654.07 1665.79 1604.14 1665.79Z" fill-rule="evenodd"/><text fill="#000000" fill-opacity="0" font-family="Arial,Arial_MSFontService,sans-serif" font-size="5.39014" x="1604.14" y="1665.11">−</text><path d="M1698.15 1628.62C1700.8 1628.62 1703.09 1628.84 1705 1629.27L1703.42 1636.16 1699.86 1636.16C1699.48 1634.62 1698.99 1633.51 1698.38 1632.84 1697.77 1632.16 1696.87 1631.82 1695.68 1631.82 1694.14 1631.82 1692.84 1632.25 1691.77 1633.1 1690.7 1633.95 1689.79 1635.22 1689.04 1636.89 1688.28 1638.57 1687.58 1640.82 1686.93 1643.66L1685.92 1648.08 1696.33 1648.08 1695.44 1652.17 1684.98 1652.17 1677.44 1687.51C1676.2 1693.37 1674.3 1697.74 1671.73 1700.62 1669.16 1703.5 1665.94 1704.94 1662.04 1704.94 1660.91 1704.94 1660.02 1704.87 1659.37 1704.73L1660.06 1701.17C1660.33 1701.25 1660.96 1701.29 1661.96 1701.29 1663.18 1701.29 1664.22 1700.98 1665.08 1700.36 1665.95 1699.74 1666.75 1698.65 1667.5 1697.11 1668.24 1695.57 1668.92 1693.44 1669.54 1690.71L1678.26 1652.17 1671.41 1652.17 1672.01 1649.37C1673.82 1649.27 1675.13 1649.12 1675.93 1648.93 1676.72 1648.74 1677.34 1648.45 1677.79 1648.08 1678.24 1647.7 1678.61 1647.2 1678.92 1646.6 1679.23 1645.99 1679.63 1644.87 1680.12 1643.25 1681.55 1638.39 1683.76 1634.74 1686.75 1632.29 1689.73 1629.85 1693.53 1628.62 1698.15 1628.62Z" fill-rule="evenodd"/><text fill="#000000" fill-opacity="0" font-family="Arial,Arial_MSFontService,sans-serif" font-size="76.313" x="1659.37" y="1695.4">𝑓</text><path d="M1710.14 1665.09C1712.21 1665.09 1713.97 1665.33 1715.43 1665.79 1716.89 1666.26 1718.07 1666.89 1718.99 1667.68 1719.9 1668.48 1720.56 1669.43 1720.97 1670.54 1721.37 1671.66 1721.58 1672.86 1721.58 1674.15 1721.58 1674.92 1721.52 1675.64 1721.41 1676.31 1721.31 1676.97 1721.12 1677.63 1720.85 1678.27 1720.58 1678.92 1720.23 1679.57 1719.79 1680.22 1719.35 1680.88 1718.81 1681.57 1718.15 1682.31 1717.66 1682.94 1717.01 1683.68 1716.22 1684.51 1715.42 1685.35 1714.55 1686.24 1713.61 1687.19 1712.67 1688.15 1711.68 1689.14 1710.65 1690.17 1709.61 1691.2 1708.61 1692.23 1707.64 1693.24 1706.67 1694.25 1705.77 1695.23 1704.96 1696.19 1704.14 1697.14 1703.48 1698.01 1702.96 1698.81L1713.98 1698.81C1714.92 1698.81 1715.66 1698.77 1716.22 1698.7 1716.77 1698.64 1717.23 1698.48 1717.6 1698.24 1717.97 1698.01 1718.28 1697.64 1718.54 1697.16 1718.8 1696.67 1719.1 1696 1719.43 1695.15L1722.2 1695.15C1722.1 1696.56 1722.01 1697.98 1721.92 1699.4 1721.83 1700.83 1721.74 1702.25 1721.64 1703.66L1696.41 1703.66 1696.41 1702.12C1696.89 1701.04 1697.44 1699.99 1698.08 1698.94 1698.71 1697.9 1699.43 1696.84 1700.22 1695.77 1701.02 1694.7 1701.92 1693.59 1702.93 1692.45 1703.95 1691.31 1705.07 1690.12 1706.3 1688.89 1708.16 1687.02 1709.68 1685.43 1710.86 1684.11 1712.03 1682.79 1712.95 1681.61 1713.63 1680.58 1714.3 1679.55 1714.76 1678.59 1715.01 1677.72 1715.26 1676.85 1715.38 1675.91 1715.38 1674.92 1715.38 1673.91 1715.24 1672.98 1714.95 1672.12 1714.66 1671.27 1714.25 1670.54 1713.71 1669.95 1713.18 1669.35 1712.5 1668.89 1711.67 1668.55 1710.85 1668.21 1709.9 1668.04 1708.83 1668.04 1706.98 1668.04 1705.43 1668.54 1704.18 1669.55 1702.93 1670.55 1701.96 1672 1701.26 1673.91L1697.36 1673.91 1697.36 1668.1C1699.9 1667.05 1702.24 1666.28 1704.38 1665.81 1706.51 1665.33 1708.43 1665.09 1710.14 1665.09Z" fill-rule="evenodd"/><text fill="#000000" fill-opacity="0" font-family="Arial,Arial_MSFontService,sans-serif" font-size="38.5718" x="1696.41" y="1698.84">2</text><path d="M2582.71 1120.76C2579.93 1120.76 2577.43 1121.88 2575.21 1124.12 2573 1126.36 2571.27 1129.37 2570.02 1133.14 2568.78 1136.91 2568.16 1140.67 2568.16 1144.43 2568.16 1147.24 2568.55 1149.34 2569.32 1150.73 2570.09 1152.12 2571.38 1152.82 2573.19 1152.82 2574.97 1152.82 2576.72 1152.05 2578.43 1150.51 2580.15 1148.97 2581.92 1146.77 2583.74 1143.92 2585.57 1141.07 2586.86 1137.78 2587.61 1134.05L2587.98 1132.31C2588.22 1131.2 2588.38 1130.24 2588.46 1129.43 2588.55 1128.62 2588.59 1127.74 2588.59 1126.8 2588.59 1124.72 2588.14 1123.19 2587.25 1122.22 2586.36 1121.24 2584.84 1120.76 2582.71 1120.76ZM2581.9 1117.56C2583.66 1117.56 2585.3 1117.75 2586.82 1118.14 2588.35 1118.54 2589.92 1119.23 2591.54 1120.23L2595.27 1117.56 2597.87 1118.21 2591.91 1143.9C2591.31 1146.47 2591.02 1148.47 2591.02 1149.9 2591.02 1150.98 2591.19 1151.76 2591.54 1152.25 2591.9 1152.73 2592.45 1152.98 2593.21 1152.98 2594.02 1152.98 2594.88 1152.65 2595.8 1151.98 2596.72 1151.32 2598.02 1150.06 2599.69 1148.2L2602 1150.46C2599.57 1153.06 2597.5 1154.9 2595.78 1156 2594.06 1157.09 2592.21 1157.64 2590.21 1157.64 2588.53 1157.64 2587.19 1157.08 2586.19 1155.98 2585.2 1154.87 2584.7 1153.4 2584.7 1151.56 2584.7 1150.07 2585.01 1148.49 2585.63 1146.82L2585.1 1146.66C2582.51 1150.44 2580.05 1153.21 2577.72 1154.96 2575.4 1156.72 2572.94 1157.6 2570.35 1157.6 2567.38 1157.6 2565.07 1156.48 2563.44 1154.23 2561.8 1151.99 2560.99 1148.84 2560.99 1144.79 2560.99 1140.14 2561.9 1135.68 2563.72 1131.4 2565.55 1127.11 2568.05 1123.74 2571.24 1121.26 2574.43 1118.79 2577.98 1117.56 2581.9 1117.56Z" fill="#D74514" fill-rule="evenodd"/><text fill="#000000" fill-opacity="0" font-family="Arial,Arial_MSFontService,sans-serif" font-size="40.0815" x="2560.99" y="1152.63">𝑎</text><path d="M2620.35 1135.26C2622.41 1135.26 2624.17 1135.49 2625.63 1135.96 2627.09 1136.43 2628.28 1137.06 2629.19 1137.85 2630.11 1138.65 2630.77 1139.6 2631.17 1140.71 2631.58 1141.82 2631.78 1143.03 2631.78 1144.32 2631.78 1145.09 2631.73 1145.81 2631.62 1146.48 2631.51 1147.14 2631.32 1147.8 2631.05 1148.44 2630.79 1149.09 2630.43 1149.74 2630 1150.39 2629.56 1151.05 2629.01 1151.74 2628.36 1152.48 2627.86 1153.11 2627.22 1153.85 2626.42 1154.68 2625.63 1155.52 2624.76 1156.41 2623.82 1157.36 2622.87 1158.32 2621.89 1159.31 2620.85 1160.34 2619.82 1161.37 2618.82 1162.4 2617.84 1163.41 2616.87 1164.42 2615.98 1165.4 2615.16 1166.36 2614.35 1167.31 2613.68 1168.18 2613.17 1168.98L2624.19 1168.98C2625.12 1168.98 2625.87 1168.94 2626.42 1168.87 2626.98 1168.8 2627.44 1168.65 2627.81 1168.41 2628.18 1168.17 2628.49 1167.81 2628.75 1167.33 2629 1166.84 2629.3 1166.17 2629.64 1165.31L2632.41 1165.31C2632.31 1166.72 2632.22 1168.14 2632.13 1169.57 2632.04 1171 2631.94 1172.42 2631.84 1173.83L2606.62 1173.83 2606.62 1172.28C2607.09 1171.21 2607.65 1170.16 2608.28 1169.11 2608.92 1168.07 2609.63 1167.01 2610.43 1165.94 2611.22 1164.87 2612.13 1163.76 2613.14 1162.62 2614.15 1161.48 2615.27 1160.29 2616.5 1159.06 2618.37 1157.19 2619.89 1155.6 2621.06 1154.28 2622.23 1152.96 2623.16 1151.78 2623.83 1150.75 2624.51 1149.72 2624.97 1148.76 2625.22 1147.89 2625.46 1147.02 2625.59 1146.08 2625.59 1145.09 2625.59 1144.08 2625.44 1143.14 2625.16 1142.29 2624.87 1141.44 2624.46 1140.71 2623.92 1140.12 2623.38 1139.52 2622.7 1139.05 2621.88 1138.72 2621.06 1138.38 2620.11 1138.21 2619.04 1138.21 2617.19 1138.21 2615.64 1138.71 2614.39 1139.71 2613.14 1140.72 2612.17 1142.17 2611.47 1144.08L2607.57 1144.08 2607.57 1138.27C2610.11 1137.22 2612.45 1136.45 2614.58 1135.98 2616.72 1135.5 2618.64 1135.26 2620.35 1135.26Z" fill="#D74514" fill-rule="evenodd"/><text fill="#000000" fill-opacity="0" font-family="Arial,Arial_MSFontService,sans-serif" font-size="38.5718" x="2606.62" y="1169.01">2</text><path d="M2811.25 1397.39C2808.47 1397.39 2805.97 1398.51 2803.75 1400.75 2801.54 1402.99 2799.81 1406 2798.56 1409.77 2797.32 1413.54 2796.7 1417.3 2796.7 1421.05 2796.7 1423.86 2797.09 1425.97 2797.86 1427.36 2798.63 1428.75 2799.92 1429.44 2801.73 1429.44 2803.51 1429.44 2805.26 1428.67 2806.97 1427.13 2808.69 1425.59 2810.46 1423.4 2812.28 1420.55 2814.11 1417.7 2815.4 1414.41 2816.15 1410.68L2816.52 1408.94C2816.76 1407.83 2816.92 1406.87 2817 1406.06 2817.09 1405.25 2817.13 1404.37 2817.13 1403.43 2817.13 1401.34 2816.68 1399.82 2815.79 1398.85 2814.9 1397.87 2813.38 1397.39 2811.25 1397.39ZM2810.44 1394.18C2812.2 1394.18 2813.84 1394.38 2815.36 1394.77 2816.89 1395.16 2818.46 1395.86 2820.08 1396.86L2823.81 1394.18 2826.41 1394.83 2820.45 1420.53C2819.85 1423.09 2819.56 1425.09 2819.56 1426.53 2819.56 1427.61 2819.73 1428.39 2820.08 1428.88 2820.44 1429.36 2820.99 1429.61 2821.75 1429.61 2822.56 1429.61 2823.42 1429.27 2824.34 1428.61 2825.26 1427.95 2826.56 1426.69 2828.23 1424.82L2830.54 1427.09C2828.11 1429.69 2826.04 1431.53 2824.32 1432.63 2822.6 1433.72 2820.75 1434.27 2818.75 1434.27 2817.07 1434.27 2815.73 1433.71 2814.74 1432.6 2813.74 1431.5 2813.24 1430.02 2813.24 1428.19 2813.24 1426.7 2813.55 1425.12 2814.17 1423.45L2813.64 1423.28C2811.05 1427.07 2808.59 1429.84 2806.26 1431.59 2803.94 1433.35 2801.48 1434.23 2798.89 1434.23 2795.92 1434.23 2793.61 1433.1 2791.98 1430.86 2790.34 1428.62 2789.53 1425.47 2789.53 1421.42 2789.53 1416.77 2790.44 1412.31 2792.26 1408.03 2794.09 1403.74 2796.59 1400.37 2799.78 1397.89 2802.97 1395.42 2806.52 1394.18 2810.44 1394.18Z" fill="#D74514" fill-rule="evenodd"/><text fill="#000000" fill-opacity="0" font-family="Arial,Arial_MSFontService,sans-serif" font-size="40.0815" x="2789.53" y="1429.26">𝑎</text><path d="M2848.83 1411.89C2850.42 1411.89 2851.9 1412.06 2853.28 1412.4 2854.66 1412.73 2855.86 1413.25 2856.87 1413.93 2857.88 1414.62 2858.67 1415.47 2859.24 1416.49 2859.8 1417.51 2860.09 1418.7 2860.09 1420.05 2860.09 1421.32 2859.91 1422.44 2859.55 1423.42 2859.19 1424.39 2858.64 1425.27 2857.9 1426.07 2857.15 1426.86 2856.24 1427.58 2855.16 1428.23 2854.07 1428.87 2852.83 1429.49 2851.42 1430.09L2851.42 1430.45C2852.75 1430.68 2853.99 1431.07 2855.14 1431.59 2856.29 1432.12 2857.3 1432.78 2858.16 1433.59 2859.03 1434.39 2859.71 1435.32 2860.21 1436.37 2860.7 1437.43 2860.95 1438.59 2860.95 1439.86 2860.95 1441.45 2860.65 1442.92 2860.06 1444.28 2859.46 1445.64 2858.57 1446.82 2857.38 1447.81 2856.18 1448.8 2854.71 1449.58 2852.97 1450.13 2851.22 1450.69 2849.17 1450.97 2846.83 1450.97 2844.98 1450.97 2843.11 1450.78 2841.2 1450.42 2839.3 1450.05 2837.49 1449.57 2835.78 1448.97L2835.78 1442.54 2839.62 1442.54C2839.94 1443.53 2840.32 1444.38 2840.76 1445.09 2841.19 1445.79 2841.7 1446.37 2842.29 1446.81 2842.88 1447.26 2843.55 1447.58 2844.31 1447.78 2845.08 1447.98 2845.95 1448.08 2846.92 1448.08 2849.48 1448.08 2851.42 1447.47 2852.74 1446.25 2854.06 1445.03 2854.72 1443.17 2854.72 1440.69 2854.72 1438.05 2853.86 1436.05 2852.12 1434.69 2850.38 1433.33 2847.8 1432.65 2844.39 1432.65L2841.77 1432.65 2841.77 1429.79C2843.85 1429.69 2845.66 1429.4 2847.17 1428.91 2848.69 1428.43 2849.96 1427.8 2850.97 1427.02 2851.98 1426.25 2852.74 1425.34 2853.24 1424.31 2853.73 1423.28 2853.98 1422.18 2853.98 1421 2853.98 1419.1 2853.41 1417.59 2852.28 1416.49 2851.15 1415.39 2849.51 1414.84 2847.37 1414.84 2845.56 1414.84 2844.05 1415.34 2842.83 1416.33 2841.6 1417.32 2840.67 1418.8 2840.01 1420.77L2836.23 1420.77 2836.23 1414.9C2838.57 1413.91 2840.78 1413.16 2842.86 1412.65 2844.93 1412.14 2846.92 1411.89 2848.83 1411.89Z" fill="#D74514" fill-rule="evenodd"/><text fill="#000000" fill-opacity="0" font-family="Arial,Arial_MSFontService,sans-serif" font-size="39.0781" x="2835.78" y="1446.08">3</text><path d="M3051.17 1276.33C3048.38 1276.33 3045.88 1277.45 3043.67 1279.69 3041.45 1281.93 3039.72 1284.94 3038.48 1288.71 3037.24 1292.48 3036.62 1296.24 3036.62 1299.99 3036.62 1302.8 3037 1304.91 3037.77 1306.3 3038.54 1307.69 3039.83 1308.38 3041.64 1308.38 3043.43 1308.38 3045.18 1307.61 3046.89 1306.07 3048.61 1304.53 3050.38 1302.34 3052.2 1299.49 3054.02 1296.64 3055.31 1293.35 3056.07 1289.62L3056.43 1287.88C3056.68 1286.77 3056.84 1285.81 3056.92 1285 3057 1284.19 3057.04 1283.31 3057.04 1282.37 3057.04 1280.29 3056.6 1278.76 3055.71 1277.79 3054.81 1276.81 3053.3 1276.33 3051.17 1276.33ZM3050.36 1273.13C3052.11 1273.13 3053.75 1273.32 3055.28 1273.71 3056.81 1274.1 3058.38 1274.8 3060 1275.8L3063.73 1273.13 3066.32 1273.77 3060.37 1299.47C3059.77 1302.03 3059.47 1304.03 3059.47 1305.47 3059.47 1306.55 3059.65 1307.33 3060 1307.82 3060.35 1308.3 3060.91 1308.55 3061.66 1308.55 3062.47 1308.55 3063.34 1308.22 3064.26 1307.55 3065.18 1306.89 3066.47 1305.63 3068.15 1303.76L3070.46 1306.03C3068.03 1308.63 3065.95 1310.47 3064.24 1311.57 3062.52 1312.66 3060.66 1313.21 3058.66 1313.21 3056.99 1313.21 3055.65 1312.65 3054.65 1311.55 3053.65 1310.44 3053.15 1308.97 3053.15 1307.13 3053.15 1305.64 3053.46 1304.06 3054.08 1302.39L3053.56 1302.22C3050.96 1306.01 3048.5 1308.78 3046.18 1310.53 3043.86 1312.29 3041.4 1313.17 3038.81 1313.17 3035.83 1313.17 3033.53 1312.05 3031.9 1309.8 3030.26 1307.56 3029.44 1304.41 3029.44 1300.36 3029.44 1295.71 3030.36 1291.25 3032.18 1286.97 3034 1282.68 3036.51 1279.31 3039.7 1276.83 3042.89 1274.36 3046.44 1273.13 3050.36 1273.13Z" fill="#D74514" fill-rule="evenodd"/><text fill="#000000" fill-opacity="0" font-family="Arial,Arial_MSFontService,sans-serif" font-size="40.0815" x="3029.44" y="1308.2">𝑎</text><path d="M3090.2 1298.22C3088.3 1300.98 3086.4 1303.72 3084.5 1306.44 3082.6 1309.16 3080.69 1311.89 3078.77 1314.63L3078.77 1314.99 3090.2 1314.99 3090.2 1309C3090.2 1308.32 3090.21 1307.49 3090.23 1306.5 3090.25 1305.5 3090.28 1304.5 3090.31 1303.47 3090.34 1302.45 3090.37 1301.48 3090.41 1300.56 3090.45 1299.63 3090.49 1298.85 3090.53 1298.22ZM3091.07 1291.25 3095.8 1291.25 3095.8 1314.99 3096.34 1314.99C3097.15 1314.99 3097.81 1314.95 3098.32 1314.87 3098.83 1314.79 3099.23 1314.62 3099.54 1314.38 3099.85 1314.13 3100.11 1313.78 3100.32 1313.33 3100.52 1312.89 3100.75 1312.31 3100.99 1311.59L3103.52 1311.59C3103.46 1312.68 3103.39 1313.77 3103.32 1314.84 3103.25 1315.91 3103.19 1317 3103.13 1318.11L3095.8 1318.11 3095.8 1322.02C3095.8 1323.17 3095.83 1324.06 3095.88 1324.7 3095.93 1325.33 3096.08 1325.83 3096.32 1326.19 3096.57 1326.54 3096.94 1326.81 3097.43 1326.99 3097.91 1327.17 3098.59 1327.38 3099.47 1327.62L3099.47 1329.4 3086.6 1329.4 3086.6 1327.62C3087.19 1327.46 3087.7 1327.31 3088.12 1327.18 3088.54 1327.05 3088.88 1326.91 3089.16 1326.74 3089.44 1326.57 3089.64 1326.37 3089.77 1326.14 3089.9 1325.91 3090 1325.62 3090.07 1325.28 3090.14 1324.93 3090.18 1324.49 3090.19 1323.97 3090.2 1323.44 3090.2 1322.79 3090.2 1322.02L3090.2 1318.11 3073.43 1318.11 3073.43 1315.76C3076.39 1311.65 3079.33 1307.56 3082.25 1303.5 3085.17 1299.44 3088.11 1295.36 3091.07 1291.25Z" fill="#D74514" fill-rule="evenodd"/><text fill="#000000" fill-opacity="0" font-family="Arial,Arial_MSFontService,sans-serif" font-size="38.1548" x="3073.43" y="1324.63">4</text><path d="M1888.25 1343.72C1885.47 1343.72 1882.97 1344.84 1880.75 1347.08 1878.54 1349.32 1876.81 1352.33 1875.57 1356.1 1874.32 1359.87 1873.7 1363.63 1873.7 1367.39 1873.7 1370.2 1874.09 1372.3 1874.86 1373.69 1875.63 1375.08 1876.92 1375.78 1878.73 1375.78 1880.51 1375.78 1882.26 1375.01 1883.98 1373.47 1885.69 1371.93 1887.46 1369.73 1889.28 1366.88 1891.11 1364.03 1892.4 1360.74 1893.16 1357.01L1893.52 1355.27C1893.76 1354.16 1893.93 1353.2 1894.01 1352.39 1894.09 1351.58 1894.13 1350.7 1894.13 1349.76 1894.13 1347.68 1893.68 1346.15 1892.79 1345.18 1891.9 1344.2 1890.39 1343.72 1888.25 1343.72ZM1887.44 1340.52C1889.2 1340.52 1890.84 1340.71 1892.36 1341.1 1893.89 1341.5 1895.47 1342.19 1897.09 1343.19L1900.81 1340.52 1903.41 1341.17 1897.45 1366.86C1896.86 1369.43 1896.56 1371.43 1896.56 1372.86 1896.56 1373.94 1896.74 1374.72 1897.09 1375.21 1897.44 1375.69 1897.99 1375.94 1898.75 1375.94 1899.56 1375.94 1900.42 1375.61 1901.34 1374.94 1902.26 1374.28 1903.56 1373.02 1905.23 1371.16L1907.54 1373.42C1905.11 1376.02 1903.04 1377.86 1901.32 1378.96 1899.61 1380.05 1897.75 1380.6 1895.75 1380.6 1894.07 1380.6 1892.74 1380.04 1891.74 1378.94 1890.74 1377.83 1890.24 1376.36 1890.24 1374.52 1890.24 1373.03 1890.55 1371.45 1891.17 1369.78L1890.64 1369.62C1888.05 1373.4 1885.59 1376.17 1883.27 1377.92 1880.94 1379.68 1878.48 1380.56 1875.89 1380.56 1872.92 1380.56 1870.62 1379.44 1868.98 1377.19 1867.35 1374.95 1866.53 1371.8 1866.53 1367.75 1866.53 1363.1 1867.44 1358.64 1869.26 1354.36 1871.09 1350.07 1873.59 1346.7 1876.78 1344.22 1879.97 1341.75 1883.52 1340.52 1887.44 1340.52Z" fill="#D74514" fill-rule="evenodd"/><text fill="#000000" fill-opacity="0" font-family="Arial,Arial_MSFontService,sans-serif" font-size="40.0815" x="1866.53" y="1375.59">𝑎</text><path d="M1926.31 1359.9 1928.13 1359.9C1928.09 1360.99 1928.06 1361.97 1928.04 1362.83 1928.02 1363.69 1928 1364.53 1927.99 1365.35 1927.98 1366.16 1927.98 1366.97 1927.98 1367.76L1927.98 1390.4C1927.98 1391.01 1928 1391.54 1928.04 1391.99 1928.08 1392.44 1928.14 1392.81 1928.23 1393.12 1928.32 1393.43 1928.44 1393.69 1928.59 1393.91 1928.74 1394.13 1928.91 1394.32 1929.11 1394.48 1929.35 1394.72 1929.67 1394.9 1930.06 1395.03 1930.46 1395.16 1930.97 1395.27 1931.58 1395.36 1932.2 1395.45 1932.94 1395.51 1933.8 1395.56 1934.66 1395.61 1935.7 1395.65 1936.91 1395.67L1936.91 1398.26 1913.29 1398.26 1913.29 1395.67C1914.46 1395.63 1915.46 1395.58 1916.27 1395.53 1917.09 1395.49 1917.78 1395.42 1918.36 1395.33 1918.93 1395.24 1919.39 1395.14 1919.74 1395.03 1920.09 1394.92 1920.39 1394.79 1920.65 1394.63 1920.93 1394.45 1921.17 1394.25 1921.37 1394.05 1921.56 1393.84 1921.72 1393.57 1921.84 1393.26 1921.96 1392.94 1922.06 1392.55 1922.12 1392.09 1922.19 1391.64 1922.23 1391.07 1922.23 1390.4L1922.23 1369.04C1922.23 1368.27 1922.08 1367.72 1921.78 1367.4 1921.48 1367.08 1921.06 1366.93 1920.5 1366.93 1919.89 1366.93 1918.97 1367.24 1917.76 1367.88 1916.55 1368.51 1914.98 1369.46 1913.06 1370.71 1912.8 1370.25 1912.56 1369.8 1912.34 1369.34 1912.12 1368.88 1911.89 1368.42 1911.66 1367.94 1914.12 1366.59 1916.55 1365.24 1918.97 1363.9 1921.38 1362.56 1923.83 1361.23 1926.31 1359.9Z" fill="#D74514" fill-rule="evenodd"/><text fill="#000000" fill-opacity="0" font-family="Arial,Arial_MSFontService,sans-serif" font-size="38.3633" x="1911.66" y="1393.46">1</text><path d="M1922.9 1319.62 1926.83 1319.62 1925.97 1328.94 1933.62 1323.55 1935.56 1326.89 1927.07 1330.85 1935.56 1334.84 1933.62 1338.15 1925.97 1332.75 1926.83 1342.08 1922.9 1342.08 1923.79 1332.75 1916.11 1338.15 1914.14 1334.84 1922.66 1330.85 1914.14 1326.89 1916.11 1323.55 1923.79 1328.94Z" fill="#D74514" fill-rule="evenodd"/><text fill="#000000" fill-opacity="0" font-family="Arial,Arial_MSFontService,sans-serif" font-size="22.458" x="1914.14" y="1339.27">∗</text><path d="M1662 1120.25C1659.22 1120.25 1656.72 1121.37 1654.5 1123.61 1652.29 1125.86 1650.56 1128.86 1649.31 1132.63 1648.07 1136.4 1647.45 1140.16 1647.45 1143.92 1647.45 1146.73 1647.84 1148.83 1648.61 1150.22 1649.38 1151.61 1650.67 1152.31 1652.48 1152.31 1654.26 1152.31 1656.01 1151.54 1657.72 1150 1659.44 1148.46 1661.21 1146.26 1663.03 1143.41 1664.86 1140.56 1666.15 1137.27 1666.9 1133.54L1667.27 1131.8C1667.51 1130.69 1667.67 1129.73 1667.75 1128.92 1667.84 1128.11 1667.88 1127.23 1667.88 1126.29 1667.88 1124.21 1667.43 1122.68 1666.54 1121.71 1665.65 1120.74 1664.13 1120.25 1662 1120.25ZM1661.19 1117.05C1662.95 1117.05 1664.59 1117.24 1666.11 1117.64 1667.64 1118.03 1669.21 1118.72 1670.83 1119.72L1674.56 1117.05 1677.16 1117.7 1671.2 1143.39C1670.6 1145.96 1670.31 1147.96 1670.31 1149.39 1670.31 1150.47 1670.48 1151.25 1670.83 1151.74 1671.19 1152.23 1671.74 1152.47 1672.5 1152.47 1673.31 1152.47 1674.17 1152.14 1675.09 1151.48 1676.01 1150.81 1677.31 1149.55 1678.98 1147.69L1681.29 1149.96C1678.86 1152.55 1676.79 1154.39 1675.07 1155.49 1673.35 1156.58 1671.5 1157.13 1669.5 1157.13 1667.82 1157.13 1666.48 1156.58 1665.48 1155.47 1664.49 1154.36 1663.99 1152.89 1663.99 1151.05 1663.99 1149.56 1664.3 1147.98 1664.92 1146.31L1664.39 1146.15C1661.8 1149.93 1659.34 1152.7 1657.01 1154.45 1654.69 1156.21 1652.23 1157.09 1649.64 1157.09 1646.67 1157.09 1644.36 1155.97 1642.73 1153.73 1641.09 1151.48 1640.28 1148.34 1640.28 1144.28 1640.28 1139.64 1641.19 1135.17 1643.01 1130.89 1644.84 1126.61 1647.34 1123.23 1650.53 1120.76 1653.72 1118.28 1657.27 1117.05 1661.19 1117.05Z" fill="#D74514" fill-rule="evenodd"/><text fill="#000000" fill-opacity="0" font-family="Arial,Arial_MSFontService,sans-serif" font-size="40.0815" x="1640.28" y="1152.12">𝑎</text><path d="M1699.64 1136.31C1701.7 1136.31 1703.46 1136.54 1704.92 1137.01 1706.38 1137.48 1707.57 1138.11 1708.48 1138.9 1709.4 1139.7 1710.06 1140.65 1710.46 1141.76 1710.87 1142.87 1711.07 1144.08 1711.07 1145.37 1711.07 1146.14 1711.02 1146.86 1710.91 1147.53 1710.8 1148.19 1710.61 1148.85 1710.34 1149.49 1710.08 1150.14 1709.72 1150.79 1709.29 1151.44 1708.85 1152.1 1708.3 1152.79 1707.65 1153.53 1707.15 1154.16 1706.51 1154.9 1705.71 1155.73 1704.92 1156.57 1704.05 1157.46 1703.11 1158.41 1702.16 1159.37 1701.18 1160.36 1700.14 1161.39 1699.11 1162.42 1698.11 1163.45 1697.13 1164.46 1696.16 1165.47 1695.27 1166.45 1694.45 1167.41 1693.64 1168.36 1692.97 1169.23 1692.46 1170.03L1703.48 1170.03C1704.41 1170.03 1705.16 1169.99 1705.71 1169.92 1706.27 1169.85 1706.73 1169.7 1707.1 1169.46 1707.46 1169.22 1707.78 1168.86 1708.04 1168.38 1708.29 1167.89 1708.59 1167.22 1708.93 1166.36L1711.7 1166.36C1711.6 1167.77 1711.51 1169.19 1711.42 1170.62 1711.33 1172.05 1711.23 1173.47 1711.13 1174.88L1685.91 1174.88 1685.91 1173.33C1686.38 1172.26 1686.94 1171.2 1687.57 1170.16 1688.21 1169.12 1688.92 1168.06 1689.72 1166.99 1690.51 1165.92 1691.42 1164.81 1692.43 1163.67 1693.44 1162.53 1694.56 1161.34 1695.79 1160.11 1697.66 1158.24 1699.18 1156.65 1700.35 1155.33 1701.52 1154.01 1702.45 1152.83 1703.12 1151.8 1703.8 1150.77 1704.26 1149.81 1704.51 1148.94 1704.75 1148.07 1704.88 1147.13 1704.88 1146.14 1704.88 1145.13 1704.73 1144.19 1704.45 1143.34 1704.16 1142.49 1703.75 1141.76 1703.21 1141.17 1702.67 1140.57 1701.99 1140.1 1701.17 1139.77 1700.35 1139.43 1699.4 1139.26 1698.33 1139.26 1696.48 1139.26 1694.93 1139.76 1693.68 1140.76 1692.43 1141.77 1691.46 1143.22 1690.76 1145.13L1686.86 1145.13 1686.86 1139.32C1689.4 1138.27 1691.74 1137.5 1693.87 1137.03 1696.01 1136.55 1697.93 1136.31 1699.64 1136.31Z" fill="#D74514" fill-rule="evenodd"/><text fill="#000000" fill-opacity="0" font-family="Arial,Arial_MSFontService,sans-serif" font-size="38.5718" x="1685.91" y="1170.06">2</text><path d="M1696.65 1096.04 1700.58 1096.04 1699.72 1105.36 1707.37 1099.97 1709.31 1103.3 1700.82 1107.26 1709.31 1111.26 1707.37 1114.56 1699.72 1109.17 1700.58 1118.49 1696.65 1118.49 1697.54 1109.17 1689.86 1114.56 1687.89 1111.26 1696.41 1107.26 1687.89 1103.3 1689.86 1099.97 1697.54 1105.36Z" fill="#D74514" fill-rule="evenodd"/><text fill="#000000" fill-opacity="0" font-family="Arial,Arial_MSFontService,sans-serif" font-size="22.458" x="1687.89" y="1115.69">∗</text><path d="M1428.22 1398.42C1425.44 1398.42 1422.94 1399.54 1420.72 1401.78 1418.51 1404.02 1416.78 1407.03 1415.54 1410.8 1414.29 1414.57 1413.67 1418.33 1413.67 1422.08 1413.67 1424.89 1414.06 1426.99 1414.83 1428.39 1415.6 1429.78 1416.89 1430.47 1418.7 1430.47 1420.48 1430.47 1422.23 1429.7 1423.95 1428.16 1425.66 1426.62 1427.43 1424.43 1429.26 1421.58 1431.08 1418.73 1432.37 1415.44 1433.13 1411.71L1433.49 1409.97C1433.73 1408.86 1433.9 1407.9 1433.98 1407.09 1434.06 1406.28 1434.1 1405.4 1434.1 1404.45 1434.1 1402.37 1433.65 1400.85 1432.76 1399.88 1431.87 1398.9 1430.36 1398.42 1428.22 1398.42ZM1427.41 1395.21C1429.17 1395.21 1430.81 1395.41 1432.34 1395.8 1433.86 1396.19 1435.44 1396.89 1437.06 1397.89L1440.79 1395.21 1443.38 1395.86 1437.42 1421.56C1436.83 1424.12 1436.53 1426.12 1436.53 1427.56 1436.53 1428.64 1436.71 1429.42 1437.06 1429.91 1437.41 1430.39 1437.96 1430.64 1438.72 1430.64 1439.53 1430.64 1440.39 1430.3 1441.31 1429.64 1442.23 1428.98 1443.53 1427.72 1445.2 1425.85L1447.51 1428.12C1445.08 1430.72 1443.01 1432.56 1441.29 1433.65 1439.58 1434.75 1437.72 1435.3 1435.72 1435.3 1434.04 1435.3 1432.71 1434.74 1431.71 1433.63 1430.71 1432.53 1430.21 1431.05 1430.21 1429.22 1430.21 1427.73 1430.52 1426.15 1431.14 1424.48L1430.61 1424.31C1428.02 1428.1 1425.56 1430.87 1423.24 1432.62 1420.91 1434.38 1418.46 1435.26 1415.86 1435.26 1412.89 1435.26 1410.59 1434.13 1408.95 1431.89 1407.32 1429.65 1406.5 1426.5 1406.5 1422.45 1406.5 1417.8 1407.41 1413.34 1409.24 1409.05 1411.06 1404.77 1413.57 1401.4 1416.75 1398.92 1419.94 1396.45 1423.49 1395.21 1427.41 1395.21Z" fill="#D74514" fill-rule="evenodd"/><text fill="#000000" fill-opacity="0" font-family="Arial,Arial_MSFontService,sans-serif" font-size="40.0815" x="1406.5" y="1430.29">𝑎</text><path d="M1465.8 1414.48C1467.39 1414.48 1468.87 1414.65 1470.25 1414.98 1471.63 1415.32 1472.83 1415.83 1473.84 1416.52 1474.85 1417.2 1475.64 1418.06 1476.21 1419.08 1476.78 1420.1 1477.06 1421.29 1477.06 1422.64 1477.06 1423.91 1476.88 1425.03 1476.52 1426 1476.17 1426.98 1475.61 1427.86 1474.87 1428.66 1474.12 1429.45 1473.21 1430.17 1472.13 1430.82 1471.05 1431.46 1469.8 1432.08 1468.39 1432.68L1468.39 1433.03C1469.72 1433.27 1470.96 1433.65 1472.11 1434.18 1473.27 1434.71 1474.27 1435.37 1475.14 1436.18 1476 1436.98 1476.68 1437.91 1477.18 1438.96 1477.67 1440.01 1477.92 1441.18 1477.92 1442.45 1477.92 1444.03 1477.62 1445.51 1477.03 1446.87 1476.43 1448.23 1475.54 1449.41 1474.35 1450.4 1473.16 1451.39 1471.69 1452.17 1469.94 1452.72 1468.19 1453.28 1466.15 1453.56 1463.8 1453.56 1461.96 1453.56 1460.08 1453.37 1458.17 1453.01 1456.27 1452.64 1454.46 1452.16 1452.75 1451.56L1452.75 1445.13 1456.6 1445.13C1456.91 1446.12 1457.29 1446.97 1457.73 1447.67 1458.17 1448.38 1458.68 1448.95 1459.26 1449.4 1459.85 1449.85 1460.52 1450.17 1461.29 1450.37 1462.05 1450.57 1462.92 1450.67 1463.89 1450.67 1466.46 1450.67 1468.4 1450.06 1469.72 1448.84 1471.04 1447.61 1471.7 1445.76 1471.7 1443.28 1471.7 1440.64 1470.83 1438.64 1469.09 1437.28 1467.35 1435.92 1464.78 1435.24 1461.36 1435.24L1458.74 1435.24 1458.74 1432.38C1460.83 1432.28 1462.63 1431.99 1464.15 1431.5 1465.67 1431.01 1466.93 1430.38 1467.94 1429.61 1468.96 1428.83 1469.71 1427.93 1470.21 1426.9 1470.7 1425.87 1470.95 1424.76 1470.95 1423.59 1470.95 1421.69 1470.39 1420.18 1469.26 1419.08 1468.12 1417.98 1466.48 1417.43 1464.34 1417.43 1462.53 1417.43 1461.02 1417.92 1459.8 1418.92 1458.58 1419.91 1457.64 1421.39 1456.98 1423.35L1453.2 1423.35 1453.2 1417.49C1455.54 1416.49 1457.75 1415.74 1459.83 1415.24 1461.9 1414.73 1463.89 1414.48 1465.8 1414.48Z" fill="#D74514" fill-rule="evenodd"/><text fill="#000000" fill-opacity="0" font-family="Arial,Arial_MSFontService,sans-serif" font-size="39.0781" x="1452.75" y="1448.67">3</text><path d="M1462.87 1374.2 1466.8 1374.2 1465.94 1383.52 1473.59 1378.13 1475.53 1381.47 1467.04 1385.43 1475.53 1389.42 1473.59 1392.73 1465.94 1387.34 1466.8 1396.66 1462.87 1396.66 1463.77 1387.34 1456.08 1392.73 1454.12 1389.42 1462.63 1385.43 1454.12 1381.47 1456.08 1378.13 1463.77 1383.52Z" fill="#D74514" fill-rule="evenodd"/><text fill="#000000" fill-opacity="0" font-family="Arial,Arial_MSFontService,sans-serif" font-size="22.458" x="1454.12" y="1393.85">∗</text><path d="M1209.05 1277.24C1206.27 1277.24 1203.77 1278.36 1201.55 1280.6 1199.34 1282.84 1197.61 1285.85 1196.37 1289.62 1195.12 1293.39 1194.5 1297.15 1194.5 1300.91 1194.5 1303.72 1194.89 1305.82 1195.66 1307.21 1196.43 1308.6 1197.72 1309.3 1199.53 1309.3 1201.31 1309.3 1203.06 1308.53 1204.78 1306.98 1206.49 1305.44 1208.26 1303.25 1210.08 1300.4 1211.91 1297.55 1213.2 1294.26 1213.96 1290.53L1214.32 1288.79C1214.56 1287.68 1214.73 1286.72 1214.81 1285.91 1214.89 1285.1 1214.93 1284.22 1214.93 1283.28 1214.93 1281.2 1214.48 1279.67 1213.59 1278.7 1212.7 1277.72 1211.19 1277.24 1209.05 1277.24ZM1208.24 1274.04C1210 1274.04 1211.64 1274.23 1213.16 1274.62 1214.69 1275.02 1216.27 1275.71 1217.89 1276.71L1221.61 1274.04 1224.21 1274.68 1218.25 1300.38C1217.66 1302.95 1217.36 1304.95 1217.36 1306.38 1217.36 1307.46 1217.54 1308.24 1217.89 1308.73 1218.24 1309.21 1218.79 1309.46 1219.55 1309.46 1220.36 1309.46 1221.22 1309.13 1222.14 1308.46 1223.06 1307.8 1224.36 1306.54 1226.03 1304.67L1228.34 1306.94C1225.91 1309.54 1223.84 1311.38 1222.12 1312.48 1220.41 1313.57 1218.55 1314.12 1216.55 1314.12 1214.87 1314.12 1213.54 1313.56 1212.54 1312.46 1211.54 1311.35 1211.04 1309.88 1211.04 1308.04 1211.04 1306.55 1211.35 1304.97 1211.97 1303.3L1211.44 1303.13C1208.85 1306.92 1206.39 1309.69 1204.07 1311.44 1201.74 1313.2 1199.28 1314.08 1196.69 1314.08 1193.72 1314.08 1191.42 1312.96 1189.78 1310.71 1188.15 1308.47 1187.33 1305.32 1187.33 1301.27 1187.33 1296.62 1188.24 1292.16 1190.06 1287.88 1191.89 1283.59 1194.39 1280.22 1197.58 1277.74 1200.77 1275.27 1204.32 1274.04 1208.24 1274.04Z" fill="#D74514" fill-rule="evenodd"/><text fill="#000000" fill-opacity="0" font-family="Arial,Arial_MSFontService,sans-serif" font-size="40.0815" x="1187.33" y="1309.11">𝑎</text><path d="M1248.09 1300.48C1246.18 1303.24 1244.28 1305.98 1242.38 1308.7 1240.49 1311.42 1238.58 1314.15 1236.65 1316.89L1236.65 1317.25 1248.09 1317.25 1248.09 1311.26C1248.09 1310.59 1248.1 1309.75 1248.12 1308.76 1248.14 1307.77 1248.16 1306.76 1248.19 1305.74 1248.22 1304.71 1248.26 1303.74 1248.3 1302.82 1248.34 1301.9 1248.38 1301.12 1248.42 1300.48ZM1248.95 1293.51 1253.69 1293.51 1253.69 1317.25 1254.22 1317.25C1255.04 1317.25 1255.7 1317.21 1256.2 1317.13 1256.71 1317.05 1257.12 1316.89 1257.43 1316.64 1257.73 1316.39 1257.99 1316.04 1258.2 1315.6 1258.41 1315.15 1258.63 1314.57 1258.87 1313.85L1261.4 1313.85C1261.34 1314.95 1261.28 1316.03 1261.21 1317.1 1261.14 1318.17 1261.07 1319.26 1261.02 1320.38L1253.69 1320.38 1253.69 1324.28C1253.69 1325.43 1253.71 1326.32 1253.76 1326.96 1253.81 1327.59 1253.96 1328.09 1254.21 1328.45 1254.46 1328.81 1254.82 1329.07 1255.31 1329.25 1255.8 1329.43 1256.48 1329.64 1257.35 1329.88L1257.35 1331.67 1244.48 1331.67 1244.48 1329.88C1245.08 1329.72 1245.59 1329.58 1246 1329.45 1246.42 1329.32 1246.77 1329.17 1247.05 1329 1247.32 1328.83 1247.53 1328.63 1247.66 1328.4 1247.79 1328.18 1247.88 1327.89 1247.95 1327.54 1248.02 1327.19 1248.06 1326.76 1248.07 1326.23 1248.08 1325.7 1248.09 1325.05 1248.09 1324.28L1248.09 1320.38 1231.32 1320.38 1231.32 1318.02C1234.28 1313.91 1237.22 1309.83 1240.14 1305.77 1243.05 1301.71 1245.99 1297.62 1248.95 1293.51Z" fill="#D74514" fill-rule="evenodd"/><text fill="#000000" fill-opacity="0" font-family="Arial,Arial_MSFontService,sans-serif" font-size="38.1548" x="1231.32" y="1326.9">4</text><path d="M1243.7 1253.23 1247.63 1253.23 1246.77 1262.55 1254.42 1257.16 1256.36 1260.5 1247.87 1264.46 1256.36 1268.45 1254.42 1271.76 1246.77 1266.37 1247.63 1275.69 1243.7 1275.69 1244.59 1266.37 1236.91 1271.76 1234.94 1268.45 1243.46 1264.46 1234.94 1260.5 1236.91 1257.16 1244.59 1262.55Z" fill="#D74514" fill-rule="evenodd"/><text fill="#000000" fill-opacity="0" font-family="Arial,Arial_MSFontService,sans-serif" font-size="22.458" x="1234.94" y="1272.88">∗</text><path d="M3225.95 1519.65C3227.35 1519.65 3228.53 1520.15 3229.47 1521.13 3230.42 1522.12 3230.89 1523.37 3230.89 1524.88 3230.89 1526.39 3230.42 1527.64 3229.47 1528.63 3228.53 1529.62 3227.35 1530.11 3225.95 1530.11 3224.54 1530.11 3223.37 1529.62 3222.42 1528.63 3221.48 1527.64 3221 1526.39 3221 1524.88 3221 1523.37 3221.48 1522.12 3222.42 1521.13 3223.37 1520.15 3224.54 1519.65 3225.95 1519.65ZM3201.39 1519.65C3202.79 1519.65 3203.97 1520.15 3204.91 1521.13 3205.86 1522.12 3206.33 1523.37 3206.33 1524.88 3206.33 1526.39 3205.86 1527.64 3204.91 1528.63 3203.97 1529.62 3202.79 1530.11 3201.39 1530.11 3199.98 1530.11 3198.81 1529.62 3197.86 1528.63 3196.92 1527.64 3196.44 1526.39 3196.44 1524.88 3196.44 1523.37 3196.92 1522.12 3197.86 1521.13 3198.81 1520.15 3199.98 1519.65 3201.39 1519.65ZM3176.83 1519.65C3178.23 1519.65 3179.41 1520.15 3180.35 1521.13 3181.3 1522.12 3181.77 1523.37 3181.77 1524.88 3181.77 1526.39 3181.3 1527.64 3180.35 1528.63 3179.41 1529.62 3178.23 1530.11 3176.83 1530.11 3175.42 1530.11 3174.25 1529.62 3173.3 1528.63 3172.36 1527.64 3171.88 1526.39 3171.88 1524.88 3171.88 1523.37 3172.36 1522.12 3173.3 1521.13 3174.25 1520.15 3175.42 1519.65 3176.83 1519.65Z" fill="#D74514" fill-rule="evenodd"/><text fill="#000000" fill-opacity="0" font-family="Arial,Arial_MSFontService,sans-serif" font-size="10.4561" x="3171.88" y="1528.8">⋯</text><path d="M1101.8 1527.45C1103.21 1527.45 1104.38 1527.95 1105.33 1528.93 1106.27 1529.92 1106.75 1531.17 1106.75 1532.68 1106.75 1534.19 1106.27 1535.44 1105.33 1536.43 1104.38 1537.42 1103.21 1537.91 1101.8 1537.91 1100.4 1537.91 1099.22 1537.42 1098.27 1536.43 1097.33 1535.44 1096.86 1534.19 1096.86 1532.68 1096.86 1531.17 1097.33 1529.92 1098.27 1528.93 1099.22 1527.95 1100.4 1527.45 1101.8 1527.45ZM1077.24 1527.45C1078.65 1527.45 1079.82 1527.95 1080.77 1528.93 1081.71 1529.92 1082.19 1531.17 1082.19 1532.68 1082.19 1534.19 1081.71 1535.44 1080.77 1536.43 1079.82 1537.42 1078.65 1537.91 1077.24 1537.91 1075.84 1537.91 1074.66 1537.42 1073.72 1536.43 1072.77 1535.44 1072.3 1534.19 1072.3 1532.68 1072.3 1531.17 1072.77 1529.92 1073.72 1528.93 1074.66 1527.95 1075.84 1527.45 1077.24 1527.45ZM1052.68 1527.45C1054.09 1527.45 1055.26 1527.95 1056.21 1528.93 1057.15 1529.92 1057.63 1531.17 1057.63 1532.68 1057.63 1534.19 1057.15 1535.44 1056.21 1536.43 1055.26 1537.42 1054.09 1537.91 1052.68 1537.91 1051.28 1537.91 1050.1 1537.42 1049.16 1536.43 1048.21 1535.44 1047.74 1534.19 1047.74 1532.68 1047.74 1531.17 1048.21 1529.92 1049.16 1528.93 1050.1 1527.95 1051.28 1527.45 1052.68 1527.45Z" fill="#D74514" fill-rule="evenodd"/><text fill="#000000" fill-opacity="0" font-family="Arial,Arial_MSFontService,sans-serif" font-size="10.4561" x="1047.74" y="1536.6">⋯</text></g></svg>