<svg xmlns="http://www.w3.org/2000/svg" width="1298" height="491" overflow="hidden"><defs><clipPath id="a"><path d="M409 1911h1298v491H409z"/></clipPath></defs><g clip-path="url(#a)" transform="translate(-409 -1911)"><path d="M409.5 2266.92h1209.26v9.16H409.5Zm1204.67-18.34 45.83 22.92-45.83 22.92Z"/><path d="M1008.083 2401.83v-398.075h-9.166v398.075Zm18.334-393.492-22.917-45.834-22.916 45.834Z"/><path fill-rule="evenodd" d="M1625.65 2172.58c2.65 0 4.93.22 6.85.65l-1.58 6.89h-3.57c-.38-1.54-.87-2.65-1.48-3.33-.6-.67-1.5-1.01-2.69-1.01-1.54 0-2.84.43-3.91 1.28s-1.98 2.11-2.74 3.79c-.75 1.67-1.46 3.93-2.11 6.76l-1.01 4.42h10.42l-.89 4.1h-10.46l-7.54 35.34c-1.24 5.86-3.15 10.23-5.71 13.11-2.57 2.87-5.8 4.31-9.69 4.31-1.13 0-2.03-.07-2.67-.2l.69-3.57c.27.08.9.12 1.9.12q1.83 0 3.12-.93c.87-.62 1.67-1.7 2.41-3.24.75-1.54 1.43-3.67 2.05-6.4l8.71-38.54h-6.85l.61-2.8c1.81-.11 3.11-.26 3.91-.45s1.42-.47 1.87-.85c.44-.38.82-.87 1.13-1.48.31-.6.71-1.72 1.2-3.34 1.43-4.86 3.64-8.52 6.62-10.96 2.99-2.45 6.79-3.67 11.41-3.67"/><text x="1586.87" y="2239.35" fill-opacity="0" font-family="Arial,Arial_MSFontService,sans-serif" font-size="76.313">𝑓</text><path fill-rule="evenodd" d="M1233.14 1989.78h6.24v75.42h-6.24Zm-188.86 0h6.25v75.42h-6.25Zm32.11 21.95c.83 0 1.57.1 2.2.29.64.19 1.2.48 1.69.87.48.39.91.9 1.29 1.52s.75 1.46 1.1 2.53.68 2.39.99 3.97.59 3.23.83 4.93h.41c2.59-3.65 4.56-6.32 5.89-8.01 1.34-1.69 2.47-2.94 3.39-3.77.92-.82 1.8-1.4 2.65-1.74q1.275-.51 3.39-.51c1.26 0 2.31.17 3.12.49l-1.63 7.34h-2.83c-.16-1.14-.64-1.71-1.42-1.71-.24 0-.5.05-.77.13s-.6.25-.99.52c-.4.27-.97.8-1.73 1.58q-1.125 1.185-2.55 2.88c-.95 1.14-1.92 2.32-2.92 3.57l-2.75 3.44c.48 2.6.94 4.84 1.37 6.73.44 1.89.82 3.46 1.16 4.72s.63 2.25.89 2.98.53 1.28.83 1.64c.3.37.6.62.91.77s.67.22 1.08.22c.73 0 1.44-.28 2.13-.85.68-.56 1.68-1.85 2.97-3.85l2.64 1.75c-1.89 2.81-3.6 4.78-5.13 5.93-1.52 1.15-3.34 1.73-5.45 1.73-1.16 0-2.15-.21-2.96-.63q-1.215-.63-2.1-2.01-.9-1.38-1.59-4.29c-.83-3.46-1.35-6.11-1.54-7.95h-.4c-2.86 4.03-4.99 6.92-6.38 8.67-1.4 1.76-2.54 3.06-3.45 3.9-.9.83-1.78 1.42-2.63 1.76s-1.98.5-3.39.5q-1.905 0-3.12-.48l1.62-7.34h2.84c.16 1.14.64 1.71 1.42 1.71.38 0 .78-.11 1.19-.31.42-.2 1.02-.69 1.81-1.46.78-.77 1.86-1.98 3.24-3.62 1.38-1.65 3.38-4.13 6-7.42-.41-2.14-.83-4.19-1.26-6.16s-.88-3.81-1.34-5.51c-.45-1.71-.83-2.82-1.13-3.35-.3-.52-.61-.89-.95-1.09s-.77-.3-1.28-.3c-.57 0-1.08.12-1.54.38s-.96.7-1.5 1.34c-.54.63-1.26 1.63-2.15 2.98l-2.63-1.75c1.7-2.56 3.34-4.48 4.9-5.75 1.57-1.27 3.42-1.91 5.56-1.91"/><text x="1061.59" y="2046.81" fill-opacity="0" font-family="Arial,Arial_MSFontService,sans-serif" font-size="40.081">𝑥</text><path fill-rule="evenodd" d="M1191.53 1989.05c7.89 2.08 13.95 6.57 18.17 13.48 4.23 6.9 6.35 15.23 6.35 24.98q0 14.67-6.33 24.99c-4.21 6.87-10.28 11.35-18.19 13.43l-.98-3.12c6.25-2.08 10.89-6.18 13.93-12.32 3.04-6.13 4.56-13.93 4.56-23.38 0-9.13-1.52-16.72-4.54-22.76q-4.545-9.06-14.07-12.18Zm-52.73 0 1.1 3.12c-6.32 2.08-11.01 6.14-14.05 12.18-3.03 6.04-4.55 13.63-4.55 22.76 0 9.45 1.52 17.25 4.55 23.38 3.04 6.14 7.68 10.24 13.93 12.32l-.98 3.12c-7.91-2.08-13.98-6.56-18.19-13.43q-6.33-10.32-6.33-24.99c0-9.75 2.12-18.08 6.35-24.98 4.22-6.91 10.28-11.4 18.17-13.48m40.6 3.92c2.65 0 4.93.22 6.85.65l-1.58 6.89h-3.56c-.38-1.54-.88-2.65-1.48-3.33-.61-.67-1.51-1.01-2.7-1.01-1.54 0-2.84.43-3.91 1.28s-1.98 2.11-2.74 3.79c-.75 1.67-1.45 3.93-2.1 6.77l-1.02 4.41h10.42l-.89 4.1h-10.46l-7.54 35.34c-1.24 5.86-3.14 10.23-5.71 13.11-2.57 2.87-5.8 4.31-9.69 4.31-1.13 0-2.02-.06-2.67-.2l.69-3.57c.27.08.9.13 1.9.13 1.22 0 2.26-.32 3.12-.94.87-.62 1.67-1.7 2.41-3.24.75-1.54 1.43-3.67 2.05-6.4l8.71-38.54h-6.84l.6-2.8c1.81-.11 3.12-.26 3.91-.45.8-.19 1.42-.47 1.87-.85.44-.38.82-.87 1.13-1.48.31-.6.71-1.72 1.2-3.34 1.43-4.86 3.64-8.52 6.62-10.96 2.99-2.45 6.79-3.67 11.41-3.67"/><text x="1140.62" y="2059.74" fill-opacity="0" font-family="Arial,Arial_MSFontService,sans-serif" font-size="76.313">𝑓</text><path fill="#d74514" fill-rule="evenodd" d="m666.592 1955.37-14.428 25.53h15.846l-.689-13.05a274 274 0 0 1-.202-6.68c-.054-2.68-.082-4.61-.082-5.8Zm.243-8.55h6.119l2.918 45.19c.136 2.13.379 3.8.73 5s.831 2.1 1.439 2.68q.911.87 2.654 1.11l-.446 1.99H663.39l.446-1.99q2.391-.195 3.566-1.86c.784-1.11 1.176-3.06 1.176-5.84 0-1.05-.041-2.2-.122-3.44l-.284-5.23H650.34l-2.229 3.97c-1.054 1.86-1.824 3.47-2.31 4.8-.486 1.34-.729 2.52-.729 3.55q0 3.405 4.093 4.05l-.446 1.99h-16.576l.446-1.99q1.257-.165 2.371-.99c.743-.55 1.533-1.39 2.371-2.51.838-1.13 2.013-2.98 3.526-5.58Z"/><text x="632.143" y="1995.79" fill-opacity="0" font-family="Arial,Arial_MSFontService,sans-serif" font-size="55.968">𝐴</text><path fill="#d74514" fill-rule="evenodd" d="M659.526 2064.45q7.538 0 11.388 3.3c2.567 2.21 3.85 5.4 3.85 9.59 0 1.43-.142 2.75-.426 3.95a15.6 15.6 0 0 1-1.337 3.57c-.608 1.17-1.425 2.43-2.452 3.79a67 67 0 0 1-3.404 4.11c-1.243 1.39-3.391 3.71-6.444 6.95q-7.701 8.145-11.307 14.22h15.279q1.986 0 3.201-.24t1.946-.81a3.96 3.96 0 0 0 1.155-1.48q.424-.915 1.074-2.82h3.444l-.689 11.84H641.45v-1.95c1.162-2.83 2.729-5.74 4.702-8.71q2.958-4.455 8.389-10.5c3.134-3.45 5.39-6.08 6.768-7.86 1.513-1.94 2.641-3.63 3.384-5.04q1.114-2.13 1.601-4.02c.324-1.25.486-2.52.486-3.79q0-3.03-.973-5.37-.972-2.325-2.978-3.66c-1.338-.9-3.02-1.34-5.046-1.34q-7.579 0-10.213 8.43h-4.904v-7.78c3.269-1.54 6.329-2.66 9.18-3.35s5.41-1.03 7.68-1.03"/><text x="641.45" y="2113.42" fill-opacity="0" font-family="Arial,Arial_MSFontService,sans-serif" font-size="55.968">2</text><path fill="#d74514" fill-rule="evenodd" d="M632.337 2039.23h53v5h-53Z"/><path fill-rule="evenodd" d="M633.345 2337.99h49.93v5.39h-49.93Z"/><text x="633.345" y="2342.71" fill-opacity="0" font-family="Arial,Arial_MSFontService,sans-serif" font-size="5.39">−</text><path fill-rule="evenodd" d="M727.358 2306.22c2.648 0 4.931.21 6.849.64l-1.58 6.89h-3.567c-.378-1.54-.871-2.64-1.479-3.32s-1.506-1.01-2.695-1.01c-1.54 0-2.844.42-3.911 1.27s-1.979 2.12-2.735 3.79c-.757 1.68-1.459 3.93-2.108 6.77l-1.013 4.42h10.416l-.892 4.09h-10.456l-7.538 35.34q-1.865 8.79-5.715 13.11t-9.686 4.32c-1.134 0-2.026-.07-2.674-.2l.689-3.57q.405.12 1.904.12 1.824 0 3.121-.93t2.411-3.24c.743-1.54 1.426-3.68 2.047-6.41l8.713-38.54h-6.849l.608-2.79q2.715-.165 3.911-.45c.797-.19 1.418-.47 1.864-.85s.824-.87 1.135-1.48.709-1.72 1.196-3.34c1.432-4.87 3.64-8.52 6.626-10.97q4.478-3.66 11.408-3.66"/><text x="688.574" y="2372.99" fill-opacity="0" font-family="Arial,Arial_MSFontService,sans-serif" font-size="76.313">𝑓</text><path fill-rule="evenodd" d="M739.225 2345.57c-1.39 0-2.551.37-3.484 1.09-.934.73-1.673 1.79-2.219 3.19-.547 1.4-.934 3.11-1.162 5.12q-.342 3.03-.343 6.87c0 2.96.144 5.51.432 7.67q.432 3.225 1.341 5.31c.605 1.39 1.365 2.42 2.278 3.07.914.66 2.006.98 3.277.98 1.191 0 2.233-.3 3.127-.92s1.633-1.57 2.219-2.87q.88-1.95 1.325-4.95c.298-1.99.447-4.35.447-7.07 0-3.06-.164-5.69-.491-7.9q-.492-3.3-1.385-5.43c-.596-1.42-1.346-2.47-2.249-3.14q-1.356-1.02-3.113-1.02m.12-2.89c2.363 0 4.383.45 6.061 1.33q2.517 1.32 4.11 3.78t2.338 6c.497 2.37.745 5.04.745 8.02 0 6.61-1.172 11.61-3.515 14.99-2.343 3.39-5.738 5.08-10.186 5.08-4.408 0-7.685-1.6-9.829-4.79-2.145-3.2-3.217-8.05-3.217-14.54 0-3.39.332-6.33.998-8.81.665-2.49 1.598-4.55 2.799-6.19q1.803-2.445 4.275-3.66c1.648-.8 3.455-1.21 5.421-1.21"/><text x="725.852" y="2376.98" fill-opacity="0" font-family="Arial,Arial_MSFontService,sans-serif" font-size="39.197">0</text><path fill="#d74514" d="M728.083 2271.54v-178.785h-9.166v178.785Zm18.334-174.202-22.917-45.833-22.916 45.833Zm535.666 174.202v-178.785h-9.166v178.785Zm18.334-174.202-22.917-45.833-22.916 45.833Z"/><path fill="#d74514" fill-rule="evenodd" d="m1343.39 1953.41-14.43 25.54h15.85l-.69-13.05q-.12-2.685-.21-6.69c-.05-2.68-.08-4.61-.08-5.8Zm.24-8.55h6.12l2.92 45.19c.13 2.14.38 3.8.73 5.01q.525 1.8 1.44 2.67c.6.58 1.49.95 2.65 1.12l-.44 1.98h-16.86l.44-1.98c1.6-.14 2.78-.76 3.57-1.87.78-1.11 1.17-3.05 1.17-5.83q0-1.59-.12-3.45l-.28-5.23h-17.83l-2.23 3.97c-1.06 1.87-1.83 3.47-2.31 4.81-.49 1.33-.73 2.52-.73 3.54 0 2.27 1.36 3.62 4.09 4.06l-.44 1.98h-16.58l.45-1.98c.83-.11 1.62-.44 2.37-1 .74-.55 1.53-1.39 2.37-2.51.83-1.12 2.01-2.98 3.52-5.57Z"/><text x="1308.94" y="1993.84" fill-opacity="0" font-family="Arial,Arial_MSFontService,sans-serif" font-size="55.968">𝐴</text><path fill="#d74514" fill-rule="evenodd" d="M1336.32 2062.49c5.03 0 8.82 1.11 11.39 3.31s3.85 5.39 3.85 9.58c0 1.43-.14 2.75-.43 3.95-.28 1.21-.73 2.39-1.33 3.57-.61 1.17-1.43 2.44-2.45 3.79a70 70 0 0 1-3.41 4.11c-1.24 1.39-3.39 3.71-6.44 6.95-5.14 5.43-8.91 10.18-11.31 14.23h15.28c1.32 0 2.39-.08 3.2-.25q1.215-.24 1.95-.81c.48-.37.87-.87 1.15-1.47.28-.61.64-1.55 1.07-2.82h3.45l-.69 11.83h-33.35v-1.94c1.16-2.84 2.73-5.74 4.7-8.72 1.97-2.97 4.77-6.47 8.39-10.49 3.13-3.46 5.39-6.08 6.76-7.87q2.28-2.91 3.39-5.04c.74-1.42 1.28-2.76 1.6-4.01.32-1.26.49-2.52.49-3.79 0-2.03-.33-3.82-.98-5.37-.65-1.56-1.64-2.78-2.98-3.67-1.33-.89-3.01-1.34-5.04-1.34-5.05 0-8.46 2.81-10.21 8.43h-4.91v-7.78c3.27-1.54 6.33-2.65 9.18-3.34s5.41-1.04 7.68-1.04"/><text x="1318.25" y="2111.47" fill-opacity="0" font-family="Arial,Arial_MSFontService,sans-serif" font-size="55.968">2</text><path fill="#d74514" fill-rule="evenodd" d="M1309.47 2037.27h53v5h-53Z"/><path fill-rule="evenodd" d="M1279.02 2305.73c2.64 0 4.93.22 6.85.65l-1.59 6.89h-3.56c-.38-1.54-.87-2.65-1.48-3.32q-.915-1.02-2.7-1.02c-1.54 0-2.84.43-3.91 1.28-1.06.85-1.98 2.11-2.73 3.79-.76 1.67-1.46 3.93-2.11 6.77l-1.01 4.41h10.41l-.89 4.1h-10.46l-7.53 35.34c-1.25 5.86-3.15 10.23-5.72 13.11-2.56 2.88-5.79 4.31-9.68 4.31-1.14 0-2.03-.06-2.68-.2l.69-3.56c.27.08.91.12 1.91.12 1.21 0 2.25-.31 3.12-.94.86-.62 1.66-1.7 2.41-3.24.74-1.54 1.42-3.67 2.04-6.4l8.72-38.54h-6.85l.61-2.8c1.81-.11 3.11-.26 3.91-.44.79-.19 1.42-.48 1.86-.86.45-.37.83-.87 1.14-1.47.31-.61.71-1.73 1.19-3.35 1.43-4.86 3.64-8.52 6.63-10.96 2.98-2.45 6.79-3.67 11.41-3.67"/><text x="1240.23" y="2372.51" fill-opacity="0" font-family="Arial,Arial_MSFontService,sans-serif" font-size="76.313">𝑓</text><path fill-rule="evenodd" d="M1290.88 2345.09c-1.39 0-2.55.36-3.48 1.09q-1.395 1.08-2.22 3.18c-.55 1.4-.93 3.11-1.16 5.13-.23 2.01-.34 4.3-.34 6.86 0 2.96.14 5.52.43 7.67.29 2.16.73 3.93 1.34 5.32.6 1.39 1.36 2.41 2.28 3.07.91.65 2 .98 3.27.98 1.19 0 2.24-.31 3.13-.92q1.335-.93 2.22-2.88c.58-1.3 1.03-2.95 1.32-4.94q.45-3 .45-7.08c0-3.05-.16-5.69-.49-7.89s-.79-4.02-1.39-5.44c-.59-1.42-1.34-2.46-2.24-3.14-.91-.67-1.95-1.01-3.12-1.01m.12-2.89c2.37 0 4.39.44 6.06 1.33q2.52 1.32 4.11 3.78 1.605 2.46 2.34 6 .75 3.54.75 8.01c0 6.61-1.17 11.61-3.52 15-2.34 3.38-5.74 5.08-10.18 5.08-4.41 0-7.69-1.6-9.83-4.8-2.15-3.19-3.22-8.04-3.22-14.53 0-3.4.33-6.34 1-8.82.66-2.48 1.6-4.54 2.8-6.18s2.62-2.86 4.27-3.66c1.65-.81 3.46-1.21 5.42-1.21"/><text x="1277.51" y="2376.5" fill-opacity="0" font-family="Arial,Arial_MSFontService,sans-serif" font-size="39.197">0</text></g></svg>