<svg width="4519" height="1763" xmlns="http://www.w3.org/2000/svg" xmlns:xlink="http://www.w3.org/1999/xlink" overflow="hidden"><defs><clipPath id="clip0"><rect x="-73" y="471" width="4519" height="1763"/></clipPath></defs><g clip-path="url(#clip0)" transform="translate(73 -471)"><rect x="439" y="1393" width="216" height="428" fill="#D74514"/><text fill="#FFFFFF" font-family="Microsoft YaHei,Microsoft YaHei_MSFontService,sans-serif" font-weight="700" font-size="83" transform="matrix(1 0 0 1 521.157 1538)">1<tspan font-size="83" x="0" y="198">1</tspan></text><path d="M693.5 2018C693.5 1997.84 709.618 1981.5 729.5 1981.5 749.382 1981.5 765.5 1997.84 765.5 2018 765.5 2038.16 749.382 2054.5 729.5 2054.5 709.618 2054.5 693.5 2038.16 693.5 2018Z" stroke="#D74514" stroke-width="9.16667" stroke-miterlimit="8" fill="none" fill-rule="evenodd"/><path d="M729.5 1266.5 729.5 1981.64" stroke="#000000" stroke-width="9.16667" stroke-miterlimit="8" fill="none" fill-rule="evenodd"/><path d="M700 1607C700 1590.98 712.984 1578 729 1578 745.016 1578 758 1590.98 758 1607 758 1623.02 745.016 1636 729 1636 712.984 1636 700 1623.02 700 1607Z" fill-rule="evenodd"/><path d="M655.5 1607.5 700.865 1607.5" stroke="#000000" stroke-width="9.16667" stroke-miterlimit="8" fill="none" fill-rule="evenodd"/><path d="M758.5 1607.5 807.878 1607.5" stroke="#000000" stroke-width="9.16667" stroke-miterlimit="8" fill="none" fill-rule="evenodd"/><text font-family="Microsoft YaHei,Microsoft YaHei_MSFontService,sans-serif" font-weight="400" font-size="83" transform="matrix(1 0 0 1 704.995 2150)">1</text><rect x="807" y="1393" width="217" height="428" fill="#D74514"/><text fill="#FFFFFF" font-family="Microsoft YaHei,Microsoft YaHei_MSFontService,sans-serif" font-weight="700" font-size="83" transform="matrix(1 0 0 1 889.98 1538)">2<tspan font-size="83" x="0" y="198">1</tspan></text><path d="M1062.5 2018C1062.5 1997.84 1078.62 1981.5 1098.5 1981.5 1118.38 1981.5 1134.5 1997.84 1134.5 2018 1134.5 2038.16 1118.38 2054.5 1098.5 2054.5 1078.62 2054.5 1062.5 2038.16 1062.5 2018Z" stroke="#D74514" stroke-width="9.16667" stroke-miterlimit="8" fill="none" fill-rule="evenodd"/><path d="M1098.5 1266.5 1098.5 1981.64" stroke="#000000" stroke-width="9.16667" stroke-miterlimit="8" fill="none" fill-rule="evenodd"/><path d="M1069 1607C1069 1590.98 1081.98 1578 1098 1578 1114.02 1578 1127 1590.98 1127 1607 1127 1623.02 1114.02 1636 1098 1636 1081.98 1636 1069 1623.02 1069 1607Z" fill-rule="evenodd"/><path d="M1024.5 1607.5 1069.87 1607.5" stroke="#000000" stroke-width="9.16667" stroke-miterlimit="8" fill="none" fill-rule="evenodd"/><path d="M1127.5 1607.5 1167.13 1607.5" stroke="#000000" stroke-width="9.16667" stroke-miterlimit="8" fill="none" fill-rule="evenodd"/><text font-family="Microsoft YaHei,Microsoft YaHei_MSFontService,sans-serif" font-weight="400" font-size="83" transform="matrix(1 0 0 1 1073.82 2150)">2</text><rect x="1166" y="1393" width="217" height="428" fill="#D74514"/><text fill="#FFFFFF" font-family="Microsoft YaHei,Microsoft YaHei_MSFontService,sans-serif" font-weight="700" font-size="83" transform="matrix(1 0 0 1 1249.06 1538)">3<tspan font-size="83" x="0" y="198">1</tspan></text><path d="M1421.5 2018C1421.5 1997.84 1437.62 1981.5 1457.5 1981.5 1477.38 1981.5 1493.5 1997.84 1493.5 2018 1493.5 2038.16 1477.38 2054.5 1457.5 2054.5 1437.62 2054.5 1421.5 2038.16 1421.5 2018Z" stroke="#D74514" stroke-width="9.16667" stroke-miterlimit="8" fill="none" fill-rule="evenodd"/><path d="M1457.5 1266.5 1457.5 1981.64" stroke="#000000" stroke-width="9.16667" stroke-miterlimit="8" fill="none" fill-rule="evenodd"/><path d="M1428 1607C1428 1590.98 1440.98 1578 1457 1578 1473.02 1578 1486 1590.98 1486 1607 1486 1623.02 1473.02 1636 1457 1636 1440.98 1636 1428 1623.02 1428 1607Z" fill-rule="evenodd"/><path d="M1383.5 1607.5 1428.87 1607.5" stroke="#000000" stroke-width="9.16667" stroke-miterlimit="8" fill="none" fill-rule="evenodd"/><path d="M1486.5 1607.5 1525.98 1607.5" stroke="#000000" stroke-width="9.16667" stroke-miterlimit="8" fill="none" fill-rule="evenodd"/><text font-family="Microsoft YaHei,Microsoft YaHei_MSFontService,sans-serif" font-weight="400" font-size="83" transform="matrix(1 0 0 1 1432.89 2150)">3</text><rect x="1525" y="1393" width="217" height="428" fill="#D74514"/><text fill="#FFFFFF" font-family="Microsoft YaHei,Microsoft YaHei_MSFontService,sans-serif" font-weight="700" font-size="83" transform="matrix(1 0 0 1 1607.98 1538)">4<tspan font-size="83" x="0" y="198">1</tspan></text><path d="M1780.5 2018C1780.5 1997.84 1796.62 1981.5 1816.5 1981.5 1836.38 1981.5 1852.5 1997.84 1852.5 2018 1852.5 2038.16 1836.38 2054.5 1816.5 2054.5 1796.62 2054.5 1780.5 2038.16 1780.5 2018Z" stroke="#D74514" stroke-width="9.16667" stroke-miterlimit="8" fill="none" fill-rule="evenodd"/><path d="M1816.5 1266.5 1816.5 1981.64" stroke="#000000" stroke-width="9.16667" stroke-miterlimit="8" fill="none" fill-rule="evenodd"/><path d="M1787 1607C1787 1590.98 1799.98 1578 1816 1578 1832.02 1578 1845 1590.98 1845 1607 1845 1623.02 1832.02 1636 1816 1636 1799.98 1636 1787 1623.02 1787 1607Z" fill-rule="evenodd"/><path d="M1742.5 1607.5 1787.87 1607.5" stroke="#000000" stroke-width="9.16667" stroke-miterlimit="8" fill="none" fill-rule="evenodd"/><path d="M1845.5 1607.5 1894.88 1607.5" stroke="#000000" stroke-width="9.16667" stroke-miterlimit="8" fill="none" fill-rule="evenodd"/><text font-family="Microsoft YaHei,Microsoft YaHei_MSFontService,sans-serif" font-weight="400" font-size="83" transform="matrix(1 0 0 1 1791.81 2150)">4</text><rect x="1894" y="1393" width="216" height="428" fill="#D74514"/><text fill="#FFFFFF" font-family="Microsoft YaHei,Microsoft YaHei_MSFontService,sans-serif" font-weight="700" font-size="83" transform="matrix(1 0 0 1 1976.8 1538)">5<tspan font-size="83" x="0" y="198">1</tspan></text><path d="M2149.5 2018C2149.5 1997.84 2165.62 1981.5 2185.5 1981.5 2205.38 1981.5 2221.5 1997.84 2221.5 2018 2221.5 2038.16 2205.38 2054.5 2185.5 2054.5 2165.62 2054.5 2149.5 2038.16 2149.5 2018Z" stroke="#D74514" stroke-width="9.16667" stroke-miterlimit="8" fill="none" fill-rule="evenodd"/><path d="M2185.5 1266.5 2185.5 1981.64" stroke="#000000" stroke-width="9.16667" stroke-miterlimit="8" fill="none" fill-rule="evenodd"/><path d="M2156 1607C2156 1590.98 2168.98 1578 2185 1578 2201.02 1578 2214 1590.98 2214 1607 2214 1623.02 2201.02 1636 2185 1636 2168.98 1636 2156 1623.02 2156 1607Z" fill-rule="evenodd"/><path d="M2110.5 1607.5 2155.87 1607.5" stroke="#000000" stroke-width="9.16667" stroke-miterlimit="8" fill="none" fill-rule="evenodd"/><path d="M2214.5 1607.5 2254.13 1607.5" stroke="#000000" stroke-width="9.16667" stroke-miterlimit="8" fill="none" fill-rule="evenodd"/><text font-family="Microsoft YaHei,Microsoft YaHei_MSFontService,sans-serif" font-weight="400" font-size="83" transform="matrix(1 0 0 1 2160.64 2150)">5</text><rect x="2253" y="1393" width="216" height="428" fill="#D74514"/><text fill="#FFFFFF" font-family="Microsoft YaHei,Microsoft YaHei_MSFontService,sans-serif" font-weight="700" font-size="83" transform="matrix(1 0 0 1 2335.88 1538)">6<tspan font-size="83" x="0" y="198">1</tspan></text><path d="M2508.5 2018C2508.5 1997.84 2524.62 1981.5 2544.5 1981.5 2564.38 1981.5 2580.5 1997.84 2580.5 2018 2580.5 2038.16 2564.38 2054.5 2544.5 2054.5 2524.62 2054.5 2508.5 2038.16 2508.5 2018Z" stroke="#D74514" stroke-width="9.16667" stroke-miterlimit="8" fill="none" fill-rule="evenodd"/><path d="M2544.5 1266.5 2544.5 1981.64" stroke="#000000" stroke-width="9.16667" stroke-miterlimit="8" fill="none" fill-rule="evenodd"/><path d="M2515 1607C2515 1590.98 2527.98 1578 2544 1578 2560.02 1578 2573 1590.98 2573 1607 2573 1623.02 2560.02 1636 2544 1636 2527.98 1636 2515 1623.02 2515 1607Z" fill-rule="evenodd"/><path d="M2469.5 1607.5 2514.87 1607.5" stroke="#000000" stroke-width="9.16667" stroke-miterlimit="8" fill="none" fill-rule="evenodd"/><path d="M2573.5 1607.5 2612.74 1607.5" stroke="#000000" stroke-width="9.16667" stroke-miterlimit="8" fill="none" fill-rule="evenodd"/><text font-family="Microsoft YaHei,Microsoft YaHei_MSFontService,sans-serif" font-weight="400" font-size="83" transform="matrix(1 0 0 1 2519.71 2150)">6</text><rect x="2612" y="1393" width="216" height="428" fill="#D74514"/><text fill="#FFFFFF" font-family="Microsoft YaHei,Microsoft YaHei_MSFontService,sans-serif" font-weight="700" font-size="83" transform="matrix(1 0 0 1 2694.56 1538)">7<tspan font-size="83" x="0" y="198">1</tspan></text><path d="M2866.5 2018C2866.5 1997.84 2882.84 1981.5 2903 1981.5 2923.16 1981.5 2939.5 1997.84 2939.5 2018 2939.5 2038.16 2923.16 2054.5 2903 2054.5 2882.84 2054.5 2866.5 2038.16 2866.5 2018Z" stroke="#D74514" stroke-width="9.16667" stroke-miterlimit="8" fill="none" fill-rule="evenodd"/><path d="M2902.5 1266.5 2902.5 1981.64" stroke="#000000" stroke-width="9.16667" stroke-miterlimit="8" fill="none" fill-rule="evenodd"/><path d="M2874 1607C2874 1590.98 2886.76 1578 2902.5 1578 2918.24 1578 2931 1590.98 2931 1607 2931 1623.02 2918.24 1636 2902.5 1636 2886.76 1636 2874 1623.02 2874 1607Z" fill-rule="evenodd"/><path d="M2828.5 1607.5 2873.86 1607.5" stroke="#000000" stroke-width="9.16667" stroke-miterlimit="8" fill="none" fill-rule="evenodd"/><path d="M2931.5 1607.5 2980.88 1607.5" stroke="#000000" stroke-width="9.16667" stroke-miterlimit="8" fill="none" fill-rule="evenodd"/><text font-family="Microsoft YaHei,Microsoft YaHei_MSFontService,sans-serif" font-weight="400" font-size="83" transform="matrix(1 0 0 1 2878.4 2150)">7</text><rect x="2981" y="1393" width="216" height="428" fill="#D74514"/><text fill="#FFFFFF" font-family="Microsoft YaHei,Microsoft YaHei_MSFontService,sans-serif" font-weight="700" font-size="83" transform="matrix(1 0 0 1 3063.39 1538)">8<tspan font-size="83" x="0" y="198">1</tspan></text><path d="M3235.5 2018C3235.5 1997.84 3251.62 1981.5 3271.5 1981.5 3291.38 1981.5 3307.5 1997.84 3307.5 2018 3307.5 2038.16 3291.38 2054.5 3271.5 2054.5 3251.62 2054.5 3235.5 2038.16 3235.5 2018Z" stroke="#D74514" stroke-width="9.16667" stroke-miterlimit="8" fill="none" fill-rule="evenodd"/><path d="M3271.5 1266.5 3271.5 1981.64" stroke="#000000" stroke-width="9.16667" stroke-miterlimit="8" fill="none" fill-rule="evenodd"/><path d="M3242 1607C3242 1590.98 3254.98 1578 3271 1578 3287.02 1578 3300 1590.98 3300 1607 3300 1623.02 3287.02 1636 3271 1636 3254.98 1636 3242 1623.02 3242 1607Z" fill-rule="evenodd"/><path d="M3197.5 1607.5 3242.87 1607.5" stroke="#000000" stroke-width="9.16667" stroke-miterlimit="8" fill="none" fill-rule="evenodd"/><path d="M3300.5 1607.5 3340.13 1607.5" stroke="#000000" stroke-width="9.16667" stroke-miterlimit="8" fill="none" fill-rule="evenodd"/><text font-family="Microsoft YaHei,Microsoft YaHei_MSFontService,sans-serif" font-weight="400" font-size="83" transform="matrix(1 0 0 1 3247.22 2150)">8</text><rect x="3340" y="1393" width="216" height="428" fill="#D74514"/><text fill="#FFFFFF" font-family="Microsoft YaHei,Microsoft YaHei_MSFontService,sans-serif" font-weight="700" font-size="83" transform="matrix(1 0 0 1 3422.46 1538)">9<tspan font-size="83" x="0" y="198">1</tspan></text><path d="M3594.5 2018C3594.5 1997.84 3610.62 1981.5 3630.5 1981.5 3650.38 1981.5 3666.5 1997.84 3666.5 2018 3666.5 2038.16 3650.38 2054.5 3630.5 2054.5 3610.62 2054.5 3594.5 2038.16 3594.5 2018Z" stroke="#D74514" stroke-width="9.16667" stroke-miterlimit="8" fill="none" fill-rule="evenodd"/><path d="M3630.5 1266.5 3630.5 1981.64" stroke="#000000" stroke-width="9.16667" stroke-miterlimit="8" fill="none" fill-rule="evenodd"/><path d="M3601 1607C3601 1590.98 3613.98 1578 3630 1578 3646.02 1578 3659 1590.98 3659 1607 3659 1623.02 3646.02 1636 3630 1636 3613.98 1636 3601 1623.02 3601 1607Z" fill-rule="evenodd"/><path d="M3556.5 1607.5 3601.87 1607.5" stroke="#000000" stroke-width="9.16667" stroke-miterlimit="8" fill="none" fill-rule="evenodd"/><path d="M3659.5 1607.5 3698.98 1607.5" stroke="#000000" stroke-width="9.16667" stroke-miterlimit="8" fill="none" fill-rule="evenodd"/><text font-family="Microsoft YaHei,Microsoft YaHei_MSFontService,sans-serif" font-weight="400" font-size="83" transform="matrix(1 0 0 1 3606.3 2150)">9</text><rect x="3699" y="1393" width="216" height="428" fill="#D74514"/><text fill="#FFFFFF" font-family="Microsoft YaHei,Microsoft YaHei_MSFontService,sans-serif" font-weight="700" font-size="83" transform="matrix(1 0 0 1 3755.89 1538)">10<tspan font-size="83" x="25.4832" y="198">1</tspan></text><path d="M3953.5 2018C3953.5 1997.84 3969.62 1981.5 3989.5 1981.5 4009.38 1981.5 4025.5 1997.84 4025.5 2018 4025.5 2038.16 4009.38 2054.5 3989.5 2054.5 3969.62 2054.5 3953.5 2038.16 3953.5 2018Z" stroke="#D74514" stroke-width="9.16667" stroke-miterlimit="8" fill="none" fill-rule="evenodd"/><path d="M3989.5 1266.5 3989.5 1981.64" stroke="#000000" stroke-width="9.16667" stroke-miterlimit="8" fill="none" fill-rule="evenodd"/><path d="M3960 1607C3960 1590.98 3972.98 1578 3989 1578 4005.02 1578 4018 1590.98 4018 1607 4018 1623.02 4005.02 1636 3989 1636 3972.98 1636 3960 1623.02 3960 1607Z" fill-rule="evenodd"/><path d="M3915.5 1607.5 3960.87 1607.5" stroke="#000000" stroke-width="9.16667" stroke-miterlimit="8" fill="none" fill-rule="evenodd"/><path d="M4018.5 1607.5 4368.63 1607.5" stroke="#000000" stroke-width="9.16667" stroke-miterlimit="8" fill="none" fill-rule="evenodd"/><text font-family="Microsoft YaHei,Microsoft YaHei_MSFontService,sans-serif" font-weight="400" font-size="83" transform="matrix(1 0 0 1 3941.16 2150)">10</text><path d="M4368.5 1607.5C4368.5 1587.62 4384.84 1571.5 4405 1571.5 4425.16 1571.5 4441.5 1587.62 4441.5 1607.5 4441.5 1627.38 4425.16 1643.5 4405 1643.5 4384.84 1643.5 4368.5 1627.38 4368.5 1607.5Z" stroke="#D74514" stroke-width="9.16667" stroke-miterlimit="8" fill="none" fill-rule="evenodd"/><text font-family="Microsoft YaHei,Microsoft YaHei_MSFontService,sans-serif" font-weight="400" font-size="83" transform="matrix(1 0 0 1 4043.75 1572)">Output</text><path d="M-68.4999 1607.5C-68.4999 1587.62-52.3822 1571.5-32.5 1571.5-12.6178 1571.5 3.49993 1587.62 3.49993 1607.5 3.49993 1627.38-12.6178 1643.5-32.5 1643.5-52.3822 1643.5-68.4999 1627.38-68.4999 1607.5Z" stroke="#D74514" stroke-width="9.16667" stroke-miterlimit="8" fill="none" fill-rule="evenodd"/><path d="M3.49993 1607.5 439.117 1607.5" stroke="#000000" stroke-width="9.16667" stroke-miterlimit="8" fill="none" fill-rule="evenodd"/><path d="M330.5 2018C330.5 1997.84 346.618 1981.5 366.5 1981.5 386.382 1981.5 402.5 1997.84 402.5 2018 402.5 2038.16 386.382 2054.5 366.5 2054.5 346.618 2054.5 330.5 2038.16 330.5 2018Z" stroke="#D74514" stroke-width="9.16667" stroke-miterlimit="8" fill="none" fill-rule="evenodd"/><path d="M0 0 0.000360892 373.461" stroke="#000000" stroke-width="9.16667" stroke-miterlimit="8" fill="none" fill-rule="evenodd" transform="matrix(-1 0 0 1 366.5 1608.5)"/><text font-family="Microsoft YaHei,Microsoft YaHei_MSFontService,sans-serif" font-weight="400" font-size="83" transform="matrix(1 0 0 1 341.549 2150)">0<tspan font-size="83" x="-275.73" y="-587">Input</tspan></text><rect x="2009" y="558" width="340" height="313" fill="#F8CCB9"/><path d="M2073.5 708.5C2073.5 651.063 2119.84 604.5 2177 604.5 2234.16 604.5 2280.5 651.063 2280.5 708.5 2280.5 765.938 2234.16 812.5 2177 812.5 2119.84 812.5 2073.5 765.938 2073.5 708.5Z" stroke="#D74514" stroke-width="9.16667" stroke-miterlimit="8" fill="#FDEFE8" fill-rule="evenodd"/><path d="M0 0 207.629 0.000360892" stroke="#D74514" stroke-width="9.16667" stroke-miterlimit="8" fill="none" fill-rule="evenodd" transform="matrix(-1 0 0 1 2281.13 708.5)"/><path d="M0 0 0.000360892 207.629" stroke="#D74514" stroke-width="9.16667" stroke-miterlimit="8" fill="none" fill-rule="evenodd" transform="matrix(1 0 0 -1 2177.5 812.13)"/><path d="M2175.35 558.5 2175.35 475.997 2179.94 480.58 366.5 480.58 371.083 475.997 371.083 1567.05 361.917 1567.05 361.917 471.414 2184.52 471.414 2184.52 558.5ZM389.417 1562.47 366.5 1608.3 343.583 1562.47Z"/><path d="M2.19883-4.02145 689.422 371.735 685.025 379.778-2.19883 4.02145ZM694.196 353.45 723.416 395.546 672.208 393.665Z" transform="matrix(1 0 0 -1 1456.5 1267.05)"/><path d="M3988.76 1271.52 2218.82 884.784 2220.78 875.828 3990.71 1262.57ZM2219.38 903.672 2179.5 871.5 2229.17 858.895Z"/><path d="M2778.42 670.674 2780.65 670.674C2780.48 673.268 2780.4 676.861 2780.4 681.455L2780.4 716.065C2780.4 717.632 2780.49 718.814 2780.67 719.611 2780.84 720.408 2781.15 721.057 2781.6 721.556 2782.04 722.056 2782.69 722.448 2783.52 722.732 2784.36 723.015 2785.42 723.231 2786.69 723.38 2787.96 723.529 2789.63 723.63 2791.71 723.684L2791.71 726.643 2761.76 726.643 2761.76 723.684C2764.76 723.549 2766.9 723.367 2768.18 723.137 2769.47 722.907 2770.45 722.563 2771.12 722.103 2771.8 721.644 2772.29 720.996 2772.6 720.158 2772.91 719.321 2773.07 717.956 2773.07 716.065L2773.07 683.197C2773.07 682.116 2772.88 681.326 2772.5 680.826 2772.12 680.327 2771.57 680.077 2770.84 680.077 2769.97 680.077 2768.75 680.522 2767.15 681.414 2765.56 682.306 2763.58 683.535 2761.23 685.102L2759.45 681.981Z" fill-rule="evenodd"/><text fill="#000000" fill-opacity="0" font-family="Arial,Arial_MSFontService,sans-serif" font-size="55.9683" x="2759.45" y="719.646">1</text><path d="M2844.53 676.875 2850.28 676.875 2850.28 700.219 2872.37 700.219 2872.37 705.609 2850.28 705.609 2850.28 728.953 2844.53 728.953 2844.53 705.609 2822.44 705.609 2822.44 700.219 2844.53 700.219Z" fill-rule="evenodd"/><text fill="#000000" fill-opacity="0" font-family="Arial,Arial_MSFontService,sans-serif" font-size="52.0776" x="2822.44" y="722.443">+</text><path d="M2912.62 687.209C2913.46 687.209 2914.19 687.304 2914.83 687.493 2915.46 687.682 2916.02 687.973 2916.51 688.364 2917 688.756 2917.43 689.263 2917.81 689.884 2918.19 690.506 2918.55 691.35 2918.9 692.417 2919.25 693.484 2919.58 694.808 2919.9 696.389 2920.21 697.969 2920.48 699.611 2920.73 701.313L2921.13 701.313C2923.72 697.665 2925.69 694.997 2927.03 693.309 2928.37 691.62 2929.49 690.364 2930.41 689.54 2931.33 688.716 2932.22 688.135 2933.07 687.797 2933.92 687.459 2935.05 687.29 2936.45 687.29 2937.72 687.29 2938.76 687.453 2939.57 687.777L2937.95 695.112 2935.11 695.112C2934.95 693.977 2934.48 693.41 2933.69 693.41 2933.45 693.41 2933.19 693.451 2932.92 693.532 2932.65 693.613 2932.32 693.788 2931.93 694.059 2931.54 694.329 2930.97 694.856 2930.21 695.639 2929.45 696.423 2928.6 697.382 2927.66 698.517 2926.71 699.651 2925.74 700.84 2924.74 702.083L2921.98 705.528C2922.47 708.122 2922.93 710.364 2923.36 712.255 2923.79 714.147 2924.18 715.72 2924.52 716.977 2924.85 718.233 2925.15 719.226 2925.41 719.956 2925.66 720.685 2925.94 721.232 2926.24 721.597 2926.53 721.962 2926.84 722.218 2927.15 722.367 2927.46 722.516 2927.82 722.59 2928.22 722.59 2928.95 722.59 2929.66 722.306 2930.35 721.739 2931.04 721.171 2932.03 719.888 2933.33 717.889L2935.96 719.631C2934.07 722.441 2932.36 724.42 2930.84 725.569 2929.31 726.717 2927.49 727.291 2925.39 727.291 2924.22 727.291 2923.24 727.082 2922.43 726.663 2921.62 726.244 2920.92 725.575 2920.32 724.657 2919.73 723.738 2919.2 722.306 2918.74 720.361 2917.9 716.902 2917.39 714.255 2917.2 712.417L2916.79 712.417C2913.93 716.443 2911.8 719.334 2910.41 721.09 2909.02 722.846 2907.87 724.143 2906.97 724.981 2906.06 725.818 2905.18 726.406 2904.33 726.744 2903.48 727.082 2902.35 727.25 2900.95 727.25 2899.68 727.25 2898.64 727.088 2897.83 726.764L2899.45 719.429 2902.29 719.429C2902.45 720.563 2902.92 721.131 2903.7 721.131 2904.08 721.131 2904.48 721.029 2904.9 720.827 2905.32 720.624 2905.92 720.138 2906.7 719.368 2907.49 718.598 2908.57 717.389 2909.95 715.741 2911.32 714.093 2913.32 711.62 2915.94 708.324 2915.54 706.19 2915.12 704.136 2914.69 702.164 2914.25 700.192 2913.81 698.354 2913.35 696.652 2912.89 694.95 2912.51 693.836 2912.22 693.309 2911.92 692.782 2911.6 692.417 2911.26 692.215 2910.93 692.012 2910.5 691.911 2909.99 691.911 2909.42 691.911 2908.91 692.039 2908.45 692.296 2907.99 692.552 2907.49 692.998 2906.95 693.633 2906.41 694.268 2905.69 695.261 2904.8 696.612L2902.16 694.869C2903.87 692.302 2905.5 690.384 2907.07 689.114 2908.64 687.844 2910.49 687.209 2912.62 687.209Z" fill-rule="evenodd"/><text fill="#000000" fill-opacity="0" font-family="Arial,Arial_MSFontService,sans-serif" font-size="40.0815" x="2897.83" y="722.281">洧논</text><path d="M2963.02 657.867C2965.09 657.867 2966.85 658.1 2968.31 658.567 2969.77 659.033 2970.96 659.664 2971.87 660.458 2972.78 661.252 2973.44 662.205 2973.85 663.317 2974.26 664.429 2974.46 665.631 2974.46 666.921 2974.46 667.696 2974.41 668.415 2974.3 669.081 2974.19 669.746 2974 670.401 2973.73 671.047 2973.46 671.692 2973.11 672.342 2972.67 672.997 2972.24 673.653 2971.69 674.348 2971.04 675.082 2970.54 675.718 2969.89 676.453 2969.1 677.286 2968.3 678.12 2967.44 679.014 2966.49 679.967 2965.55 680.92 2964.56 681.913 2963.53 682.946 2962.5 683.978 2961.49 685.001 2960.52 686.014 2959.55 687.026 2958.65 688.009 2957.84 688.962 2957.03 689.915 2956.36 690.789 2955.84 691.583L2966.87 691.583C2967.8 691.583 2968.54 691.549 2969.1 691.479 2969.66 691.41 2970.12 691.256 2970.48 691.017 2970.85 690.779 2971.16 690.417 2971.42 689.93 2971.68 689.444 2971.98 688.774 2972.32 687.92L2975.09 687.92C2974.99 689.33 2974.89 690.749 2974.8 692.179 2974.71 693.609 2974.62 695.029 2974.52 696.438L2949.29 696.438 2949.29 694.89C2949.77 693.817 2950.32 692.76 2950.96 691.717 2951.6 690.675 2952.31 689.618 2953.1 688.545 2953.9 687.473 2954.8 686.366 2955.81 685.224 2956.83 684.082 2957.95 682.896 2959.18 681.665 2961.05 679.798 2962.57 678.205 2963.74 676.884 2964.91 675.564 2965.83 674.387 2966.51 673.355 2967.18 672.322 2967.64 671.369 2967.89 670.495 2968.14 669.622 2968.27 668.689 2968.27 667.696 2968.27 666.683 2968.12 665.75 2967.83 664.896 2967.55 664.042 2967.13 663.317 2966.6 662.722 2966.06 662.126 2965.38 661.659 2964.56 661.322 2963.73 660.984 2962.78 660.815 2961.71 660.815 2959.87 660.815 2958.32 661.317 2957.07 662.319 2955.81 663.322 2954.84 664.777 2954.15 666.683L2950.25 666.683 2950.25 660.875C2952.79 659.822 2955.12 659.058 2957.26 658.581 2959.39 658.105 2961.32 657.867 2963.02 657.867Z" fill-rule="evenodd"/><text fill="#000000" fill-opacity="0" font-family="Arial,Arial_MSFontService,sans-serif" font-size="38.5718" x="2949.29" y="691.617">2</text><path d="M3030.06 676.875 3035.82 676.875 3035.82 700.219 3057.91 700.219 3057.91 705.609 3035.82 705.609 3035.82 728.953 3030.06 728.953 3030.06 705.609 3007.98 705.609 3007.98 700.219 3030.06 700.219Z" fill-rule="evenodd"/><text fill="#000000" fill-opacity="0" font-family="Arial,Arial_MSFontService,sans-serif" font-size="52.0776" x="3007.98" y="722.443">+</text><path d="M3098.15 687.209C3098.99 687.209 3099.73 687.304 3100.36 687.493 3101 687.682 3101.56 687.973 3102.04 688.364 3102.53 688.756 3102.96 689.263 3103.34 689.884 3103.72 690.506 3104.08 691.35 3104.44 692.417 3104.79 693.484 3105.12 694.808 3105.43 696.389 3105.74 697.969 3106.02 699.611 3106.26 701.313L3106.66 701.313C3109.26 697.665 3111.22 694.997 3112.56 693.309 3113.9 691.62 3115.03 690.364 3115.95 689.54 3116.86 688.716 3117.75 688.135 3118.6 687.797 3119.45 687.459 3120.58 687.29 3121.98 687.29 3123.25 687.29 3124.29 687.453 3125.1 687.777L3123.48 695.112 3120.65 695.112C3120.48 693.977 3120.01 693.41 3119.23 693.41 3118.98 693.41 3118.73 693.451 3118.46 693.532 3118.19 693.613 3117.86 693.788 3117.46 694.059 3117.07 694.329 3116.5 694.856 3115.74 695.639 3114.99 696.423 3114.13 697.382 3113.19 698.517 3112.24 699.651 3111.27 700.84 3110.27 702.083L3107.52 705.528C3108 708.122 3108.46 710.364 3108.89 712.255 3109.33 714.147 3109.71 715.72 3110.05 716.977 3110.39 718.233 3110.68 719.226 3110.94 719.956 3111.2 720.685 3111.47 721.232 3111.77 721.597 3112.07 721.962 3112.37 722.218 3112.68 722.367 3112.99 722.516 3113.35 722.59 3113.76 722.59 3114.49 722.59 3115.2 722.306 3115.88 721.739 3116.57 721.171 3117.57 719.888 3118.86 717.889L3121.5 719.631C3119.61 722.441 3117.9 724.42 3116.37 725.569 3114.84 726.717 3113.03 727.291 3110.92 727.291 3109.76 727.291 3108.77 727.082 3107.96 726.663 3107.15 726.244 3106.45 725.575 3105.85 724.657 3105.26 723.738 3104.73 722.306 3104.27 720.361 3103.44 716.902 3102.92 714.255 3102.73 712.417L3102.33 712.417C3099.46 716.443 3097.34 719.334 3095.94 721.09 3094.55 722.846 3093.41 724.143 3092.5 724.981 3091.59 725.818 3090.72 726.406 3089.87 726.744 3089.01 727.082 3087.89 727.25 3086.48 727.25 3085.21 727.25 3084.17 727.088 3083.36 726.764L3084.98 719.429 3087.82 719.429C3087.98 720.563 3088.45 721.131 3089.24 721.131 3089.62 721.131 3090.01 721.029 3090.43 720.827 3090.85 720.624 3091.45 720.138 3092.24 719.368 3093.02 718.598 3094.1 717.389 3095.48 715.741 3096.86 714.093 3098.86 711.62 3101.48 708.324 3101.07 706.19 3100.65 704.136 3100.22 702.164 3099.79 700.192 3099.34 698.354 3098.88 696.652 3098.42 694.95 3098.05 693.836 3097.75 693.309 3097.45 692.782 3097.13 692.417 3096.8 692.215 3096.46 692.012 3096.03 691.911 3095.52 691.911 3094.95 691.911 3094.44 692.039 3093.98 692.296 3093.52 692.552 3093.02 692.998 3092.48 693.633 3091.94 694.268 3091.22 695.261 3090.33 696.612L3087.7 694.869C3089.4 692.302 3091.03 690.384 3092.6 689.114 3094.17 687.844 3096.02 687.209 3098.15 687.209Z" fill-rule="evenodd"/><text fill="#000000" fill-opacity="0" font-family="Arial,Arial_MSFontService,sans-serif" font-size="40.0815" x="3083.36" y="722.281">洧논</text><path d="M3148.5 657.867C3150.09 657.867 3151.57 658.035 3152.95 658.373 3154.33 658.711 3155.53 659.222 3156.54 659.907 3157.55 660.592 3158.34 661.446 3158.91 662.468 3159.47 663.491 3159.76 664.677 3159.76 666.028 3159.76 667.299 3159.58 668.42 3159.22 669.393 3158.86 670.366 3158.31 671.25 3157.57 672.044 3156.82 672.839 3155.91 673.558 3154.83 674.204 3153.74 674.849 3152.5 675.47 3151.09 676.065L3151.09 676.423C3152.42 676.661 3153.66 677.043 3154.81 677.569 3155.96 678.096 3156.97 678.761 3157.83 679.565 3158.7 680.369 3159.38 681.298 3159.87 682.35 3160.37 683.402 3160.62 684.564 3160.62 685.835 3160.62 687.423 3160.32 688.898 3159.73 690.258 3159.13 691.618 3158.24 692.795 3157.04 693.787 3155.85 694.78 3154.38 695.555 3152.64 696.111 3150.89 696.667 3148.84 696.945 3146.5 696.945 3144.65 696.945 3142.78 696.761 3140.87 696.394 3138.97 696.026 3137.16 695.545 3135.45 694.949L3135.45 688.516 3139.29 688.516C3139.61 689.508 3139.99 690.357 3140.42 691.062 3140.86 691.767 3141.37 692.343 3141.96 692.79 3142.54 693.236 3143.22 693.559 3143.98 693.758 3144.75 693.956 3145.62 694.056 3146.59 694.056 3149.15 694.056 3151.09 693.445 3152.41 692.224 3153.73 691.003 3154.39 689.151 3154.39 686.669 3154.39 684.028 3153.53 682.027 3151.79 680.667 3150.05 679.307 3147.47 678.627 3144.06 678.627L3141.44 678.627 3141.44 675.767C3143.52 675.668 3145.32 675.375 3146.84 674.889 3148.36 674.402 3149.63 673.772 3150.64 672.997 3151.65 672.223 3152.41 671.32 3152.9 670.287 3153.4 669.254 3153.65 668.152 3153.65 666.981 3153.65 665.075 3153.08 663.57 3151.95 662.468 3150.82 661.366 3149.18 660.815 3147.04 660.815 3145.23 660.815 3143.72 661.312 3142.49 662.305 3141.27 663.297 3140.34 664.777 3139.68 666.743L3135.9 666.743 3135.9 660.875C3138.24 659.882 3140.45 659.132 3142.52 658.626 3144.6 658.12 3146.59 657.867 3148.5 657.867Z" fill-rule="evenodd"/><text fill="#000000" fill-opacity="0" font-family="Arial,Arial_MSFontService,sans-serif" font-size="39.0781" x="3135.45" y="692.06">3</text><path d="M3215.6 676.875 3221.35 676.875 3221.35 700.219 3243.44 700.219 3243.44 705.609 3221.35 705.609 3221.35 728.953 3215.6 728.953 3215.6 705.609 3193.51 705.609 3193.51 700.219 3215.6 700.219Z" fill-rule="evenodd"/><text fill="#000000" fill-opacity="0" font-family="Arial,Arial_MSFontService,sans-serif" font-size="52.0776" x="3193.51" y="722.443">+</text><path d="M3283.69 687.209C3284.52 687.209 3285.26 687.304 3285.9 687.493 3286.53 687.682 3287.09 687.973 3287.58 688.364 3288.06 688.756 3288.5 689.263 3288.87 689.884 3289.25 690.506 3289.62 691.35 3289.97 692.417 3290.32 693.484 3290.65 694.808 3290.96 696.389 3291.27 697.969 3291.55 699.611 3291.79 701.313L3292.2 701.313C3294.79 697.665 3296.76 694.997 3298.09 693.309 3299.43 691.62 3300.56 690.364 3301.48 689.54 3302.4 688.716 3303.28 688.135 3304.13 687.797 3304.98 687.459 3306.11 687.29 3307.52 687.29 3308.79 687.29 3309.83 687.453 3310.64 687.777L3309.02 695.112 3306.18 695.112C3306.02 693.977 3305.54 693.41 3304.76 693.41 3304.52 693.41 3304.26 693.451 3303.99 693.532 3303.72 693.613 3303.39 693.788 3303 694.059 3302.61 694.329 3302.03 694.856 3301.28 695.639 3300.52 696.423 3299.67 697.382 3298.72 698.517 3297.78 699.651 3296.8 700.84 3295.8 702.083L3293.05 705.528C3293.54 708.122 3293.99 710.364 3294.43 712.255 3294.86 714.147 3295.24 715.72 3295.58 716.977 3295.92 718.233 3296.22 719.226 3296.47 719.956 3296.73 720.685 3297.01 721.232 3297.3 721.597 3297.6 721.962 3297.91 722.218 3298.22 722.367 3298.53 722.516 3298.88 722.59 3299.29 722.59 3300.02 722.59 3300.73 722.306 3301.42 721.739 3302.11 721.171 3303.1 719.888 3304.4 717.889L3307.03 719.631C3305.14 722.441 3303.43 724.42 3301.9 725.569 3300.38 726.717 3298.56 727.291 3296.45 727.291 3295.29 727.291 3294.31 727.082 3293.49 726.663 3292.68 726.244 3291.98 725.575 3291.39 724.657 3290.79 723.738 3290.27 722.306 3289.81 720.361 3288.97 716.902 3288.46 714.255 3288.27 712.417L3287.86 712.417C3285 716.443 3282.87 719.334 3281.48 721.09 3280.09 722.846 3278.94 724.143 3278.03 724.981 3277.13 725.818 3276.25 726.406 3275.4 726.744 3274.55 727.082 3273.42 727.25 3272.02 727.25 3270.75 727.25 3269.71 727.088 3268.89 726.764L3270.52 719.429 3273.35 719.429C3273.51 720.563 3273.99 721.131 3274.77 721.131 3275.15 721.131 3275.55 721.029 3275.97 720.827 3276.39 720.624 3276.99 720.138 3277.77 719.368 3278.55 718.598 3279.63 717.389 3281.01 715.741 3282.39 714.093 3284.39 711.62 3287.01 708.324 3286.6 706.19 3286.19 704.136 3285.75 702.164 3285.32 700.192 3284.88 698.354 3284.42 696.652 3283.96 694.95 3283.58 693.836 3283.28 693.309 3282.98 692.782 3282.67 692.417 3282.33 692.215 3281.99 692.012 3281.57 691.911 3281.05 691.911 3280.49 691.911 3279.97 692.039 3279.51 692.296 3279.05 692.552 3278.55 692.998 3278.01 693.633 3277.47 694.268 3276.76 695.261 3275.87 696.612L3273.23 694.869C3274.93 692.302 3276.57 690.384 3278.13 689.114 3279.7 687.844 3281.55 687.209 3283.69 687.209Z" fill-rule="evenodd"/><text fill="#000000" fill-opacity="0" font-family="Arial,Arial_MSFontService,sans-serif" font-size="40.0815" x="3268.89" y="722.281">洧논</text><path d="M3335.25 676.691C3333.92 676.691 3332.69 676.87 3331.57 677.227 3330.45 677.584 3329.38 678.071 3328.37 678.686 3327.95 678.964 3327.63 679.223 3327.4 679.461 3327.17 679.699 3327.01 679.982 3326.9 680.31 3326.79 680.637 3326.71 681.044 3326.67 681.531 3326.63 682.017 3326.61 682.678 3326.61 683.512 3326.61 690.541 3329.17 694.056 3334.27 694.056 3335.66 694.056 3336.85 693.852 3337.86 693.445 3338.86 693.038 3339.68 692.452 3340.31 691.688 3340.95 690.923 3341.42 689.98 3341.71 688.858 3342.01 687.736 3342.16 686.46 3342.16 685.031 3342.16 682.37 3341.57 680.315 3340.37 678.865 3339.18 677.416 3337.48 676.691 3335.25 676.691ZM3343.14 657.867C3343.38 658.145 3343.6 658.413 3343.8 658.671 3344 658.929 3344.22 659.187 3344.45 659.445L3344.45 661.203C3342.05 661.163 3339.89 661.481 3337.96 662.156 3336.04 662.831 3334.34 663.819 3332.87 665.119 3331.4 666.42 3330.17 668.018 3329.18 669.915 3328.18 671.811 3327.41 673.951 3326.85 676.333L3327.18 676.482C3327.99 675.926 3328.8 675.445 3329.59 675.038 3330.39 674.631 3331.19 674.293 3332 674.025 3332.82 673.757 3333.66 673.563 3334.54 673.444 3335.41 673.325 3336.34 673.266 3337.34 673.266 3339.08 673.266 3340.63 673.524 3341.97 674.04 3343.31 674.556 3344.44 675.311 3345.38 676.304 3346.31 677.296 3347.02 678.488 3347.49 679.878 3347.97 681.268 3348.21 682.817 3348.21 684.524 3348.21 686.331 3347.91 688.009 3347.31 689.558 3346.72 691.107 3345.82 692.437 3344.63 693.549 3343.44 694.661 3341.97 695.525 3340.21 696.141 3338.45 696.756 3336.39 697.064 3334.03 697.064 3329.56 697.064 3326.19 695.788 3323.92 693.236 3321.64 690.685 3320.51 686.927 3320.51 681.963 3320.51 679.739 3320.76 677.609 3321.25 675.574 3321.75 673.539 3322.48 671.642 3323.44 669.885 3324.4 668.128 3325.57 666.539 3326.94 665.119 3328.31 663.7 3329.84 662.468 3331.53 661.426 3333.22 660.383 3335.04 659.559 3337.01 658.954 3338.97 658.348 3341.02 657.986 3343.14 657.867Z" fill-rule="evenodd"/><text fill="#000000" fill-opacity="0" font-family="Arial,Arial_MSFontService,sans-serif" font-size="39.1973" x="3320.51" y="692.164">6</text><path d="M3401.13 676.875 3406.88 676.875 3406.88 700.219 3428.97 700.219 3428.97 705.609 3406.88 705.609 3406.88 728.953 3401.13 728.953 3401.13 705.609 3379.04 705.609 3379.04 700.219 3401.13 700.219Z" fill-rule="evenodd"/><text fill="#000000" fill-opacity="0" font-family="Arial,Arial_MSFontService,sans-serif" font-size="52.0776" x="3379.04" y="722.443">+</text><path d="M3469.22 687.209C3470.06 687.209 3470.79 687.304 3471.43 687.493 3472.06 687.682 3472.62 687.973 3473.11 688.364 3473.6 688.756 3474.03 689.263 3474.41 689.884 3474.79 690.506 3475.15 691.35 3475.5 692.417 3475.85 693.484 3476.18 694.808 3476.49 696.389 3476.81 697.969 3477.08 699.611 3477.33 701.313L3477.73 701.313C3480.32 697.665 3482.29 694.997 3483.63 693.309 3484.97 691.62 3486.09 690.364 3487.01 689.54 3487.93 688.716 3488.82 688.135 3489.67 687.797 3490.52 687.459 3491.65 687.29 3493.05 687.29 3494.32 687.29 3495.36 687.453 3496.17 687.777L3494.55 695.112 3491.71 695.112C3491.55 693.977 3491.08 693.41 3490.29 693.41 3490.05 693.41 3489.79 693.451 3489.52 693.532 3489.25 693.613 3488.92 693.788 3488.53 694.059 3488.14 694.329 3487.57 694.856 3486.81 695.639 3486.05 696.423 3485.2 697.382 3484.26 698.517 3483.31 699.651 3482.34 700.84 3481.34 702.083L3478.58 705.528C3479.07 708.122 3479.53 710.364 3479.96 712.255 3480.39 714.147 3480.78 715.72 3481.11 716.977 3481.45 718.233 3481.75 719.226 3482.01 719.956 3482.26 720.685 3482.54 721.232 3482.84 721.597 3483.13 721.962 3483.44 722.218 3483.75 722.367 3484.06 722.516 3484.42 722.59 3484.82 722.59 3485.55 722.59 3486.26 722.306 3486.95 721.739 3487.64 721.171 3488.63 719.888 3489.93 717.889L3492.56 719.631C3490.67 722.441 3488.96 724.42 3487.44 725.569 3485.91 726.717 3484.09 727.291 3481.99 727.291 3480.82 727.291 3479.84 727.082 3479.03 726.663 3478.22 726.244 3477.51 725.575 3476.92 724.657 3476.33 723.738 3475.8 722.306 3475.34 720.361 3474.5 716.902 3473.99 714.255 3473.8 712.417L3473.39 712.417C3470.53 716.443 3468.4 719.334 3467.01 721.09 3465.62 722.846 3464.47 724.143 3463.57 724.981 3462.66 725.818 3461.78 726.406 3460.93 726.744 3460.08 727.082 3458.95 727.25 3457.55 727.25 3456.28 727.25 3455.24 727.088 3454.43 726.764L3456.05 719.429 3458.89 719.429C3459.05 720.563 3459.52 721.131 3460.3 721.131 3460.68 721.131 3461.08 721.029 3461.5 720.827 3461.92 720.624 3462.52 720.138 3463.3 719.368 3464.09 718.598 3465.17 717.389 3466.55 715.741 3467.92 714.093 3469.92 711.62 3472.54 708.324 3472.14 706.19 3471.72 704.136 3471.29 702.164 3470.85 700.192 3470.41 698.354 3469.95 696.652 3469.49 694.95 3469.11 693.836 3468.81 693.309 3468.52 692.782 3468.2 692.417 3467.86 692.215 3467.52 692.012 3467.1 691.911 3466.59 691.911 3466.02 691.911 3465.51 692.039 3465.05 692.296 3464.59 692.552 3464.09 692.998 3463.55 693.633 3463.01 694.268 3462.29 695.261 3461.4 696.612L3458.76 694.869C3460.47 692.302 3462.1 690.384 3463.67 689.114 3465.24 687.844 3467.09 687.209 3469.22 687.209Z" fill-rule="evenodd"/><text fill="#000000" fill-opacity="0" font-family="Arial,Arial_MSFontService,sans-serif" font-size="40.0815" x="3454.43" y="722.281">洧논</text><path d="M3519.5 678.24C3518.15 678.24 3516.99 678.423 3516 678.791 3515.02 679.158 3514.21 679.674 3513.58 680.339 3512.94 681.005 3512.48 681.809 3512.19 682.752 3511.9 683.695 3511.76 684.743 3511.76 685.894 3511.76 687.126 3511.92 688.242 3512.24 689.245 3512.55 690.248 3513.05 691.107 3513.71 691.822 3514.38 692.536 3515.2 693.088 3516.18 693.475 3517.17 693.862 3518.31 694.056 3519.62 694.056 3520.99 694.056 3522.15 693.852 3523.09 693.445 3524.04 693.038 3524.81 692.487 3525.42 691.792 3526.02 691.097 3526.46 690.283 3526.74 689.349 3527.02 688.416 3527.16 687.443 3527.16 686.431 3527.16 685.14 3526.98 683.983 3526.62 682.961 3526.26 681.938 3525.75 681.084 3525.09 680.399 3524.42 679.714 3523.61 679.183 3522.66 678.806 3521.71 678.428 3520.66 678.24 3519.5 678.24ZM3519.56 660.756C3517.18 660.756 3515.36 661.366 3514.11 662.588 3512.86 663.809 3512.24 665.541 3512.24 667.785 3512.24 668.937 3512.38 669.974 3512.67 670.898 3512.96 671.821 3513.41 672.615 3514.02 673.28 3514.64 673.946 3515.41 674.447 3516.35 674.785 3517.28 675.122 3518.38 675.291 3519.65 675.291 3521.02 675.291 3522.17 675.102 3523.09 674.725 3524.02 674.348 3524.76 673.831 3525.33 673.176 3525.89 672.521 3526.3 671.761 3526.56 670.898 3526.82 670.034 3526.95 669.115 3526.95 668.142 3526.95 666.951 3526.77 665.899 3526.4 664.985 3526.03 664.072 3525.53 663.292 3524.88 662.647 3524.23 662.002 3523.46 661.525 3522.56 661.217 3521.65 660.91 3520.66 660.756 3519.56 660.756ZM3519.65 657.867C3521.98 657.867 3523.98 658.105 3525.65 658.581 3527.33 659.058 3528.71 659.718 3529.79 660.562 3530.88 661.406 3531.68 662.414 3532.21 663.585 3532.73 664.757 3533 666.057 3533 667.487 3533 669.513 3532.44 671.24 3531.33 672.67 3530.22 674.099 3528.53 675.331 3526.26 676.363 3526.26 676.423 3526.27 676.502 3526.28 676.601 3526.29 676.701 3526.29 676.78 3526.29 676.84 3528.64 677.674 3530.39 678.895 3531.54 680.503 3532.69 682.112 3533.26 683.958 3533.26 686.043 3533.26 687.691 3532.94 689.196 3532.28 690.556 3531.63 691.916 3530.68 693.088 3529.45 694.07 3528.22 695.053 3526.74 695.808 3525.01 696.334 3523.29 696.86 3521.34 697.123 3519.18 697.123 3517.15 697.123 3515.31 696.885 3513.65 696.409 3511.99 695.932 3510.57 695.237 3509.39 694.324 3508.21 693.41 3507.3 692.293 3506.65 690.973 3506.01 689.652 3505.68 688.168 3505.68 686.52 3505.68 685.328 3505.85 684.271 3506.17 683.348 3506.5 682.424 3506.96 681.595 3507.56 680.861 3508.16 680.126 3508.89 679.471 3509.75 678.895 3510.61 678.319 3511.58 677.763 3512.65 677.227L3512.65 676.84C3510.43 675.887 3508.8 674.67 3507.75 673.191 3506.71 671.712 3506.19 669.949 3506.19 667.904 3506.15 666.415 3506.48 665.05 3507.17 663.809 3507.87 662.568 3508.83 661.51 3510.05 660.637 3511.27 659.763 3512.71 659.083 3514.38 658.596 3516.05 658.11 3517.81 657.867 3519.65 657.867Z" fill-rule="evenodd"/><text fill="#000000" fill-opacity="0" font-family="Arial,Arial_MSFontService,sans-serif" font-size="39.2568" x="3505.68" y="692.216">8</text><path d="M3586.66 676.875 3592.42 676.875 3592.42 700.219 3614.51 700.219 3614.51 705.609 3592.42 705.609 3592.42 728.953 3586.66 728.953 3586.66 705.609 3564.58 705.609 3564.58 700.219 3586.66 700.219Z" fill-rule="evenodd"/><text fill="#000000" fill-opacity="0" font-family="Arial,Arial_MSFontService,sans-serif" font-size="52.0776" x="3564.58" y="722.443">+</text><path d="M3654.75 687.209C3655.59 687.209 3656.33 687.304 3656.96 687.493 3657.6 687.682 3658.16 687.973 3658.64 688.364 3659.13 688.756 3659.56 689.263 3659.94 689.884 3660.32 690.506 3660.68 691.35 3661.04 692.417 3661.39 693.484 3661.72 694.808 3662.03 696.389 3662.34 697.969 3662.62 699.611 3662.86 701.313L3663.26 701.313C3665.86 697.665 3667.82 694.997 3669.16 693.309 3670.5 691.62 3671.63 690.364 3672.55 689.54 3673.46 688.716 3674.35 688.135 3675.2 687.797 3676.05 687.459 3677.18 687.29 3678.58 687.29 3679.85 687.29 3680.89 687.453 3681.7 687.777L3680.08 695.112 3677.25 695.112C3677.08 693.977 3676.61 693.41 3675.83 693.41 3675.58 693.41 3675.33 693.451 3675.06 693.532 3674.79 693.613 3674.46 693.788 3674.06 694.059 3673.67 694.329 3673.1 694.856 3672.34 695.639 3671.59 696.423 3670.73 697.382 3669.79 698.517 3668.84 699.651 3667.87 700.84 3666.87 702.083L3664.12 705.528C3664.6 708.122 3665.06 710.364 3665.49 712.255 3665.93 714.147 3666.31 715.72 3666.65 716.977 3666.99 718.233 3667.28 719.226 3667.54 719.956 3667.8 720.685 3668.07 721.232 3668.37 721.597 3668.67 721.962 3668.97 722.218 3669.28 722.367 3669.59 722.516 3669.95 722.59 3670.36 722.59 3671.09 722.59 3671.8 722.306 3672.48 721.739 3673.17 721.171 3674.17 719.888 3675.46 717.889L3678.1 719.631C3676.21 722.441 3674.5 724.42 3672.97 725.569 3671.44 726.717 3669.63 727.291 3667.52 727.291 3666.36 727.291 3665.37 727.082 3664.56 726.663 3663.75 726.244 3663.05 725.575 3662.45 724.657 3661.86 723.738 3661.33 722.306 3660.87 720.361 3660.04 716.902 3659.52 714.255 3659.33 712.417L3658.93 712.417C3656.06 716.443 3653.94 719.334 3652.54 721.09 3651.15 722.846 3650.01 724.143 3649.1 724.981 3648.2 725.818 3647.32 726.406 3646.47 726.744 3645.61 727.082 3644.49 727.25 3643.08 727.25 3641.81 727.25 3640.77 727.088 3639.96 726.764L3641.58 719.429 3644.42 719.429C3644.58 720.563 3645.05 721.131 3645.84 721.131 3646.22 721.131 3646.61 721.029 3647.03 720.827 3647.45 720.624 3648.05 720.138 3648.84 719.368 3649.62 718.598 3650.7 717.389 3652.08 715.741 3653.46 714.093 3655.46 711.62 3658.08 708.324 3657.67 706.19 3657.25 704.136 3656.82 702.164 3656.39 700.192 3655.94 698.354 3655.48 696.652 3655.02 694.95 3654.65 693.836 3654.35 693.309 3654.05 692.782 3653.73 692.417 3653.4 692.215 3653.06 692.012 3652.63 691.911 3652.12 691.911 3651.55 691.911 3651.04 692.039 3650.58 692.296 3650.12 692.552 3649.62 692.998 3649.08 693.633 3648.54 694.268 3647.82 695.261 3646.93 696.612L3644.3 694.869C3646 692.302 3647.63 690.384 3649.2 689.114 3650.77 687.844 3652.62 687.209 3654.75 687.209Z" fill-rule="evenodd"/><text fill="#000000" fill-opacity="0" font-family="Arial,Arial_MSFontService,sans-serif" font-size="40.0815" x="3639.96" y="722.281">洧논</text><path d="M3704.62 660.756C3703.25 660.756 3702.06 660.974 3701.06 661.411 3700.06 661.848 3699.22 662.463 3698.56 663.258 3697.89 664.052 3697.4 665.02 3697.07 666.162 3696.74 667.304 3696.58 668.579 3696.58 669.989 3696.58 672.59 3697.15 674.601 3698.31 676.021 3699.46 677.44 3701.19 678.15 3703.52 678.15 3704.85 678.15 3706.09 677.977 3707.26 677.629 3708.42 677.282 3709.47 676.81 3710.4 676.214 3710.8 675.956 3711.1 675.713 3711.32 675.484 3711.54 675.256 3711.72 675.008 3711.86 674.74 3712 674.472 3712.08 674.129 3712.11 673.712 3712.14 673.295 3712.16 672.739 3712.16 672.044 3712.16 670.456 3712.02 668.971 3711.75 667.591 3711.49 666.211 3711.05 665.02 3710.44 664.017 3709.84 663.014 3709.05 662.22 3708.09 661.634 3707.13 661.049 3705.97 660.756 3704.62 660.756ZM3705.01 657.867C3707.15 657.867 3709.04 658.219 3710.67 658.924 3712.29 659.629 3713.66 660.651 3714.78 661.992 3715.89 663.332 3716.73 664.99 3717.31 666.966 3717.88 668.942 3718.17 671.21 3718.17 673.772 3718.17 677.167 3717.71 680.255 3716.79 683.035 3715.86 685.815 3714.54 688.203 3712.83 690.198 3711.11 692.194 3709.04 693.778 3706.63 694.949 3704.22 696.121 3701.54 696.796 3698.6 696.974L3697.26 695.455 3697.26 693.639C3699.55 693.639 3701.55 693.261 3703.26 692.507 3704.98 691.752 3706.45 690.71 3707.67 689.379 3708.89 688.049 3709.85 686.47 3710.55 684.643 3711.24 682.817 3711.68 680.811 3711.86 678.627L3711.59 678.478C3709.9 679.53 3708.26 680.32 3706.66 680.846 3705.06 681.372 3703.31 681.635 3701.4 681.635 3699.66 681.635 3698.11 681.377 3696.77 680.861 3695.43 680.344 3694.3 679.605 3693.39 678.642 3692.48 677.679 3691.79 676.512 3691.32 675.142 3690.85 673.772 3690.62 672.203 3690.62 670.436 3690.62 668.728 3690.92 667.115 3691.53 665.596 3692.14 664.077 3693.04 662.746 3694.25 661.605 3695.47 660.463 3696.98 659.554 3698.78 658.879 3700.59 658.204 3702.66 657.867 3705.01 657.867Z" fill-rule="evenodd"/><text fill="#000000" fill-opacity="0" font-family="Arial,Arial_MSFontService,sans-serif" font-size="39.1079" x="3690.62" y="692.086">9</text><path d="M3770.48 676.875 3776.23 676.875 3776.23 700.219 3798.32 700.219 3798.32 705.609 3776.23 705.609 3776.23 728.953 3770.48 728.953 3770.48 705.609 3748.39 705.609 3748.39 700.219 3770.48 700.219Z" fill-rule="evenodd"/><text fill="#000000" fill-opacity="0" font-family="Arial,Arial_MSFontService,sans-serif" font-size="52.0776" x="3748.39" y="722.443">+</text><path d="M3838.57 687.209C3839.41 687.209 3840.14 687.304 3840.78 687.493 3841.41 687.682 3841.97 687.973 3842.46 688.364 3842.95 688.756 3843.38 689.263 3843.76 689.884 3844.13 690.506 3844.5 691.35 3844.85 692.417 3845.2 693.484 3845.53 694.808 3845.84 696.389 3846.15 697.969 3846.43 699.611 3846.67 701.313L3847.08 701.313C3849.67 697.665 3851.64 694.997 3852.98 693.309 3854.31 691.62 3855.44 690.364 3856.36 689.54 3857.28 688.716 3858.16 688.135 3859.01 687.797 3859.87 687.459 3860.99 687.29 3862.4 687.29 3863.67 687.29 3864.71 687.453 3865.52 687.777L3863.9 695.112 3861.06 695.112C3860.9 693.977 3860.43 693.41 3859.64 693.41 3859.4 693.41 3859.14 693.451 3858.87 693.532 3858.6 693.613 3858.27 693.788 3857.88 694.059 3857.49 694.329 3856.91 694.856 3856.16 695.639 3855.4 696.423 3854.55 697.382 3853.6 698.517 3852.66 699.651 3851.69 700.84 3850.69 702.083L3847.93 705.528C3848.42 708.122 3848.88 710.364 3849.31 712.255 3849.74 714.147 3850.13 715.72 3850.46 716.977 3850.8 718.233 3851.1 719.226 3851.35 719.956 3851.61 720.685 3851.89 721.232 3852.19 721.597 3852.48 721.962 3852.79 722.218 3853.1 722.367 3853.41 722.516 3853.77 722.59 3854.17 722.59 3854.9 722.59 3855.61 722.306 3856.3 721.739 3856.99 721.171 3857.98 719.888 3859.28 717.889L3861.91 719.631C3860.02 722.441 3858.31 724.42 3856.79 725.569 3855.26 726.717 3853.44 727.291 3851.33 727.291 3850.17 727.291 3849.19 727.082 3848.38 726.663 3847.57 726.244 3846.86 725.575 3846.27 724.657 3845.67 723.738 3845.15 722.306 3844.69 720.361 3843.85 716.902 3843.34 714.255 3843.15 712.417L3842.74 712.417C3839.88 716.443 3837.75 719.334 3836.36 721.09 3834.97 722.846 3833.82 724.143 3832.91 724.981 3832.01 725.818 3831.13 726.406 3830.28 726.744 3829.43 727.082 3828.3 727.25 3826.9 727.25 3825.63 727.25 3824.59 727.088 3823.78 726.764L3825.4 719.429 3828.23 719.429C3828.4 720.563 3828.87 721.131 3829.65 721.131 3830.03 721.131 3830.43 721.029 3830.85 720.827 3831.27 720.624 3831.87 720.138 3832.65 719.368 3833.43 718.598 3834.52 717.389 3835.89 715.741 3837.27 714.093 3839.27 711.62 3841.89 708.324 3841.49 706.19 3841.07 704.136 3840.64 702.164 3840.2 700.192 3839.76 698.354 3839.3 696.652 3838.84 694.95 3838.46 693.836 3838.16 693.309 3837.87 692.782 3837.55 692.417 3837.21 692.215 3836.87 692.012 3836.45 691.911 3835.93 691.911 3835.37 691.911 3834.85 692.039 3834.39 692.296 3833.93 692.552 3833.43 692.998 3832.89 693.633 3832.35 694.268 3831.64 695.261 3830.75 696.612L3828.11 694.869C3829.81 692.302 3831.45 690.384 3833.02 689.114 3834.58 687.844 3836.43 687.209 3838.57 687.209Z" fill-rule="evenodd"/><text fill="#000000" fill-opacity="0" font-family="Arial,Arial_MSFontService,sans-serif" font-size="40.0815" x="3823.78" y="722.281">洧논</text><path d="M3922.09 660.756C3920.7 660.756 3919.54 661.118 3918.6 661.843 3917.67 662.568 3916.93 663.63 3916.38 665.03 3915.84 666.43 3915.45 668.138 3915.22 670.153 3914.99 672.168 3914.88 674.457 3914.88 677.018 3914.88 679.977 3915.02 682.534 3915.31 684.688 3915.6 686.843 3916.05 688.615 3916.65 690.005 3917.26 691.395 3918.02 692.417 3918.93 693.073 3919.84 693.728 3920.94 694.056 3922.21 694.056 3923.4 694.056 3924.44 693.748 3925.33 693.132 3926.23 692.517 3926.97 691.559 3927.55 690.258 3928.14 688.957 3928.58 687.309 3928.88 685.314 3929.18 683.318 3929.32 680.96 3929.32 678.24 3929.32 675.182 3929.16 672.551 3928.83 670.347 3928.51 668.142 3928.04 666.331 3927.45 664.911 3926.85 663.491 3926.1 662.444 3925.2 661.768 3924.3 661.093 3923.26 660.756 3922.09 660.756ZM3889.53 658.075 3891.35 658.075C3891.31 659.167 3891.28 660.145 3891.26 661.009 3891.24 661.873 3891.22 662.712 3891.21 663.526 3891.2 664.34 3891.2 665.144 3891.2 665.938L3891.2 688.575C3891.2 689.191 3891.22 689.722 3891.26 690.169 3891.3 690.615 3891.36 690.993 3891.45 691.3 3891.54 691.608 3891.66 691.871 3891.81 692.09 3891.96 692.308 3892.13 692.497 3892.33 692.656 3892.57 692.894 3892.89 693.078 3893.28 693.207 3893.68 693.336 3894.19 693.445 3894.8 693.534 3895.42 693.624 3896.16 693.693 3897.02 693.743 3897.88 693.792 3898.92 693.827 3900.13 693.847L3900.13 696.438 3876.51 696.438 3876.51 693.847C3877.69 693.807 3878.68 693.763 3879.49 693.713 3880.31 693.663 3881 693.594 3881.58 693.505 3882.15 693.415 3882.61 693.316 3882.96 693.207 3883.31 693.097 3883.61 692.963 3883.87 692.805 3884.15 692.626 3884.39 692.432 3884.59 692.224 3884.78 692.015 3884.94 691.752 3885.06 691.434 3885.18 691.117 3885.28 690.73 3885.34 690.273 3885.41 689.816 3885.45 689.25 3885.45 688.575L3885.45 667.219C3885.45 666.445 3885.3 665.899 3885 665.581 3884.7 665.263 3884.28 665.104 3883.72 665.104 3883.11 665.104 3882.19 665.422 3880.98 666.057 3879.77 666.693 3878.2 667.636 3876.28 668.887 3876.02 668.43 3875.78 667.974 3875.56 667.517 3875.34 667.06 3875.11 666.594 3874.88 666.117 3877.34 664.767 3879.77 663.422 3882.19 662.081 3884.6 660.741 3887.05 659.405 3889.53 658.075ZM3922.21 657.867C3924.57 657.867 3926.59 658.308 3928.27 659.192 3929.95 660.076 3931.32 661.337 3932.38 662.975 3933.44 664.613 3934.22 666.613 3934.72 668.976 3935.21 671.339 3935.46 674.01 3935.46 676.989 3935.46 683.601 3934.29 688.6 3931.95 691.985 3929.6 695.371 3926.21 697.064 3921.76 697.064 3917.35 697.064 3914.07 695.465 3911.93 692.268 3909.79 689.071 3908.71 684.226 3908.71 677.733 3908.71 674.338 3909.05 671.399 3909.71 668.917 3910.38 666.435 3911.31 664.375 3912.51 662.736 3913.71 661.098 3915.14 659.877 3916.79 659.073 3918.43 658.269 3920.24 657.867 3922.21 657.867Z" fill-rule="evenodd"/><text fill="#000000" fill-opacity="0" font-family="Arial,Arial_MSFontService,sans-serif" font-size="39.1973" x="3874.88" y="692.164">10</text><path d="M366.5 2182.92 3948.92 2182.92 3948.92 2192.08 366.5 2192.08ZM3944.34 2164.58 3990.17 2187.5 3944.34 2210.42Z" fill="#D74514"/><path d="M1.57474-4.30432 1044.01 377.07 1040.86 385.678-1.57474 4.30432ZM1046 358.277 1081.17 395.546 1030.25 401.32Z" transform="matrix(1 0 0 -1 1098.5 1267.05)"/><path d="M2540.86 1270.15 2204.09 904.933 2210.83 898.719 2547.6 1263.94ZM2193.72 920.73 2179.5 871.5 2227.42 889.66Z"/><path d="M3629.61 1271.47 2218.09 886.769 2220.5 877.925 3632.02 1262.62ZM2217.69 905.662 2179.5 871.5 2229.75 861.442Z"/><path d="M3270.18 1271.36 2216.72 889.855 2219.84 881.236 3273.3 1262.74ZM2214.79 908.654 2179.5 871.5 2230.4 865.559Z"/></g></svg>