<svg xmlns="http://www.w3.org/2000/svg" width="3893" height="1944" overflow="hidden"><defs><clipPath id="a"><path d="M260 440h3893v1944H260z"/></clipPath></defs><g clip-path="url(#a)" transform="translate(-260 -440)"><path fill="#d74514" d="M524 1458h355v180H524z"/><text fill="#fff" font-family="Microsoft YaHei,Microsoft YaHei_MSFontService,sans-serif" font-size="83" font-weight="400" transform="translate(577.521 1578)">正弦表</text><path fill="#d74514" d="M920 1458h355v180H920z"/><text fill="#fff" font-family="Microsoft YaHei,Microsoft YaHei_MSFontService,sans-serif" font-size="83" font-weight="400" transform="translate(973.521 1578)">余弦<tspan x="165" y="0">表</tspan></text><path fill="none" stroke="#d74514" stroke-miterlimit="8" stroke-width="9.167" d="M1027.5 1143c0-40.59 32.91-73.5 73.5-73.5s73.5 32.91 73.5 73.5-32.91 73.5-73.5 73.5-73.5-32.91-73.5-73.5Zm124.8-51.5-103.801 103.801m103.801-.001-103.8-103.8"/><path fill="#d74514" d="M528 1867h750v180H528z"/><text fill="#fff" font-family="Microsoft YaHei,Microsoft YaHei_MSFontService,sans-serif" font-size="83" font-weight="400" transform="translate(713.764 1986)">载波<tspan x="189.635" y="0">NCO</tspan></text><path d="M898.917 1866.85v-118.76h198.743l-4.59 4.58v-72.92h9.17v77.51H903.5l4.583-4.59v114.18Zm175.823-182.52 22.92-45.83 22.91 45.83Z"/><path d="M907.925 1866.85v-118.758H701.5l4.583 4.583v-72.924h-9.166v77.508h206.425l-4.583-4.584v114.175Zm-183.508-182.516-22.917-45.833-22.917 45.833Zm377.666-225.648 2.466-200.878-9.166-.113-2.466 200.879Zm20.742-196.07-22.353-46.112-23.477 45.549Z"/><path fill="none" stroke="#d74514" stroke-miterlimit="8" stroke-width="9.167" d="M628.5 658c0-40.593 32.907-73.5 73.5-73.5s73.5 32.907 73.5 73.5-32.907 73.5-73.5 73.5-73.5-32.907-73.5-73.5Zm124.801-51.5L649.5 710.301m103.801 0L649.5 606.5"/><path d="M696.917 1458.65v-685.9h9.166l.001 685.9Zm-18.334-681.317L701.5 731.5l22.917 45.833Z"/><path fill="none" stroke="#d74514" stroke-miterlimit="8" stroke-width="9.167" d="M2127.5 1258c0-40.59 32.68-73.5 73-73.5s73 32.91 73 73.5-32.68 73.5-73 73.5-73-32.91-73-73.5Zm124.8-52.5-103.801 103.801m103.801-.001-103.8-103.8m-234-431.5c0-40.593 32.91-73.5 73.5-73.5s73.5 32.907 73.5 73.5-32.91 73.5-73.5 73.5-73.5-32.907-73.5-73.5Zm124.8-51.5-103.801 103.801m103.801 0L1935.5 722.5m-234 293.5c0-40.593 32.91-73.5 73.5-73.5s73.5 32.907 73.5 73.5c0 40.59-32.91 73.5-73.5 73.5s-73.5-32.91-73.5-73.5Zm125.8-52.5-103.801 103.801m103.801-.001-103.8-103.8m-235-431.5c0-40.593 32.91-73.5 73.5-73.5s73.5 32.907 73.5 73.5-32.91 73.5-73.5 73.5-73.5-32.907-73.5-73.5Zm125.8-51.5-103.801 103.801m103.801 0L1510.5 480.5"/><path d="M1174.5 1147.323h180.277v-131.819l-4.583 4.583h310.444v-9.166h-315.027v131.819l4.583-4.583H1174.5Zm481.555-108.902 45.833-22.917-45.833-22.917Z"/><path d="M1174.5 1138.92h181.31v119.25l-4.58-4.58h734.98v9.16h-739.57V1143.5l4.59 4.58H1174.5Zm907.12 96.33 45.84 22.92-45.84 22.92ZM775.5 653.917h574.16v120.47l-4.59-4.583h528.33v9.166h-532.91V658.5l4.58 4.583H775.5Zm1093.31 97.553 45.84 22.917-45.84 22.917Z"/><path d="M775.5 663.1h573.118V532.5l-4.584 4.583h103.792v-9.167h-108.375v130.601l4.583-4.583H775.5Zm667.743-107.684 45.833-22.916-45.833-22.917Z"/><path fill="#d74514" d="M2466 442h443v180h-443z"/><text fill="#fff" font-family="Microsoft YaHei,Microsoft YaHei_MSFontService,sans-serif" font-size="83" font-weight="400" transform="translate(2504.84 561)">积分<tspan x="165" y="0">-</tspan><tspan x="200.521" y="0">清除</tspan></text><path fill="#d74514" d="M2466 683h443v181h-443z"/><text fill="#fff" font-family="Microsoft YaHei,Microsoft YaHei_MSFontService,sans-serif" font-size="83" font-weight="400" transform="translate(2504.84 803)">积分<tspan x="165" y="0">-</tspan><tspan x="200.521" y="0">清除</tspan></text><path fill="#d74514" d="M2466 925h443v180h-443z"/><text fill="#fff" font-family="Microsoft YaHei,Microsoft YaHei_MSFontService,sans-serif" font-size="83" font-weight="400" transform="translate(2504.84 1045)">积分<tspan x="165" y="0">-</tspan><tspan x="200.521" y="0">清除</tspan></text><path fill="#d74514" d="M2466 1167h443v180h-443z"/><text fill="#fff" font-family="Microsoft YaHei,Microsoft YaHei_MSFontService,sans-serif" font-size="83" font-weight="400" transform="translate(2504.84 1287)">积分<tspan x="165" y="0">-</tspan><tspan x="200.521" y="0">清除</tspan></text><path d="M1635.5 527.917h789.71v9.167l-789.71-.001Zm785.12-18.333 45.84 22.916-45.84 22.917ZM2061.5 768.917h364.14v9.167l-364.14-.001Zm359.55-18.333 45.84 22.916-45.84 22.917ZM1848.5 1010.92h576.92v9.16H1848.5Zm572.34-18.336 45.83 22.916-45.83 22.92ZM2273.5 1252.92h151.35v9.16H2273.5Zm146.77-18.34 45.83 22.92-45.83 22.92Z"/><path fill="#d74514" d="M3259 442h285v180h-285z"/><text fill="#fff" font-family="Microsoft YaHei,Microsoft YaHei_MSFontService,sans-serif" font-size="83" font-weight="400" transform="translate(3319.1 561)">幅值</text><path fill="#d74514" d="M3259 1167h285v180h-285z"/><text fill="#fff" font-family="Microsoft YaHei,Microsoft YaHei_MSFontService,sans-serif" font-size="83" font-weight="400" transform="translate(3319.11 1287)">幅值</text><path fill="#d74514" d="M3621 440h444v180h-444z"/><text fill="#fff" font-family="Microsoft YaHei,Microsoft YaHei_MSFontService,sans-serif" font-size="83" font-weight="400" transform="translate(3660.32 560)">积分<tspan x="165" y="0">-</tspan><tspan x="200.521" y="0">清除</tspan></text><path fill="#d74514" d="M3621 803h444v180h-444z"/><text fill="#fff" font-family="Microsoft YaHei,Microsoft YaHei_MSFontService,sans-serif" font-size="83" font-weight="400" transform="translate(3678.08 922)">误差检测</text><path fill="#d74514" d="M3621 1165h444v180h-444z"/><text fill="#fff" font-family="Microsoft YaHei,Microsoft YaHei_MSFontService,sans-serif" font-size="83" font-weight="400" transform="translate(3660.32 1285)">积分<tspan x="165" y="0">-</tspan><tspan x="200.521" y="0">清除</tspan></text><path d="M2909.5 1252.92h308.86v9.16H2909.5Zm304.28-18.34 45.83 22.92-45.83 22.92Zm-301.42-464.66 460.19 368-5.72 7.16-460.19-368Zm468.06 350.82 21.49 46.52-50.11-10.72Z"/><path d="m2912.362 1019.84 460.192-368.002-5.725-7.159-460.191 368.001Zm468.061-350.821 21.484-46.522-50.108 10.727ZM2909.5 527.917h308.86v9.167l-308.86-.001Zm304.28-18.333 45.83 22.916-45.83 22.917Zm330.803 26.9 36.345-.657-.165-9.165-36.346.656Zm32.094 17.756 45.412-23.74-46.24-22.086Zm-32.043 708.111 36.356-1.065-.269-9.162-36.355 1.065Zm32.311 17.395 45.143-24.249-46.485-21.565ZM3838.917 620.5v141.079h9.166V620.5Zm-18.334 136.496 22.917 45.833 22.916-45.833Zm18.337 408.834v-141.08h9.16v141.08Zm-18.34-136.5 22.92-45.83 22.92 45.83Z"/><path fill="#d74514" d="M3562 1868h503v181h-503z"/><text fill="#fff" font-family="Microsoft YaHei,Microsoft YaHei_MSFontService,sans-serif" font-size="83" font-weight="400" transform="translate(3606.96 1988)">环路滤波器</text><path d="M4065.5 888.917h87.08V1964h-41.25v-9.16H4148l-4.58 4.58V893.5l4.58 4.583h-82.5Zm50.42 1093.423-45.84-22.92 45.84-22.92Z"/><path fill="none" stroke="#d74514" stroke-miterlimit="8" stroke-width="9.167" d="M3259.5 1954.5c0-40.32 32.91-73 73.5-73s73.5 32.68 73.5 73-32.91 73-73.5 73-73.5-32.68-73.5-73Zm146.8 0h-146.798m73.998 73.8v-146.798"/><path d="m3561.99 1963.66-114.39-3.37.27-9.16 114.39 3.36Zm-110.35 15.09-45.14-24.25 46.49-21.56Z"/><path fill="#d74514" d="M2464 1869h551v180h-551z"/><text fill="#fff" font-family="Microsoft YaHei,Microsoft YaHei_MSFontService,sans-serif" font-size="83" font-weight="400" transform="translate(2504.86 1989)">C/A <tspan x="173.021" y="0">码</tspan><tspan x="280.156" y="0">N</tspan>CO</text><path d="m3259.609 1949.918-202.967 4.474.202 9.165 202.967-4.475Zm-198.789-13.956-45.317 23.921 46.327 21.901Z"/><path fill="#d74514" d="M1376 1868h579v181h-579z"/><text fill="#fff" font-family="Microsoft YaHei,Microsoft YaHei_MSFontService,sans-serif" font-size="83" font-weight="400" transform="translate(1413.97 1988)">C/A <tspan x="173.021" y="0">码发生器</tspan></text><path d="m2464.53 1964.89-467.79-.74.02-9.17 467.79.74Zm-463.23 17.6-45.8-22.99 45.87-22.84Z"/><path fill="#d74514" d="M1755 1583h651v180h-651z"/><text fill="#fff" font-family="Microsoft YaHei,Microsoft YaHei_MSFontService,sans-serif" font-size="83" font-weight="400" transform="translate(1796.72 1703)">2 <tspan x="72.76" y="0">位移位寄存器</tspan></text><path d="M1660.92 1868.92v-200h53.19v9.16h-48.61l4.58-4.58v195.42Zm48.61-218.34 45.83 22.92-45.83 22.92Zm1035.173 219.15v-200.812h-296.955v9.166h292.372l-4.583-4.583v196.229Zm-292.372-219.146-45.833 22.917 45.833 22.917Zm-375.411-66.774v-130.74h123.98l-4.58 4.59v-84.91h9.16v89.49H2081.5l4.58-4.58v126.15Zm101.06-206.48 22.92-45.83 22.92 45.83Z"/><path d="M2085.463 1583.62v-130.645h-97.966l4.583 4.584V888.746h-9.167v573.396h97.967l-4.583-4.583v126.061Zm-75.05-690.29-22.916-45.834-22.917 45.834Zm-349.493 975.86V1450.7h113.53l-4.59 4.58v-324.53h9.17v329.12H1665.5l4.58-4.59v413.91Zm90.61-733.86 22.92-45.83 22.91 45.83Z"/><path d="M1670.923 1869v-418.049h-108.421l4.583 4.583V646.75h-9.166v813.367h108.421l-4.583-4.583V1869Zm-85.505-1217.66-22.916-45.84-22.917 45.84Z"/><path fill="#d74514" d="M1442 2194h447v180h-447z"/><text fill="#fff" font-family="Microsoft YaHei,Microsoft YaHei_MSFontService,sans-serif" font-size="83" font-weight="400" transform="translate(1500.48 2314)">码积分器</text><path d="M1670.08 2049.5v104.37h-9.16V2049.5Zm18.34 99.79-22.92 45.83-22.92-45.83Z"/><path fill-rule="evenodd" d="M896.557 2255.53c2.647 0 4.931.22 6.849.65l-1.581 6.89h-3.566c-.378-1.54-.871-2.65-1.479-3.32q-.912-1.02-2.695-1.02c-1.541 0-2.844.43-3.911 1.28s-1.979 2.11-2.736 3.79c-.756 1.67-1.459 3.93-2.107 6.77l-1.014 4.41h10.416l-.892 4.1h-10.456l-7.538 35.34q-1.864 8.79-5.714 13.11c-2.567 2.87-5.796 4.31-9.686 4.31-1.135 0-2.027-.06-2.675-.2l.689-3.57c.27.09.905.13 1.905.13 1.216 0 2.256-.31 3.12-.94q1.298-.93 2.412-3.24c.743-1.54 1.425-3.67 2.046-6.4l8.714-38.54h-6.849l.608-2.8q2.715-.165 3.91-.45c.798-.18 1.419-.47 1.865-.85.446-.37.824-.87 1.134-1.48.311-.6.71-1.72 1.196-3.34 1.432-4.86 3.641-8.52 6.626-10.96 2.986-2.45 6.789-3.67 11.409-3.67"/><text x="857.772" y="2322.3" fill-opacity="0" font-family="Arial,Arial_MSFontService,sans-serif" font-size="76.313">𝑓</text><path fill-rule="evenodd" d="M909.571 2300.16q2.175 0 4.036.24c1.241.16 2.527.41 3.857.74l-1.668 7.3h-3.515q-.029-1.545-.223-2.58-.194-1.02-.625-1.62c-.288-.4-.666-.68-1.132-.85-.467-.17-1.038-.26-1.713-.28-1.072 0-2.1.24-3.083.71-.983.48-1.896 1.14-2.74 1.99-.844.84-1.613 1.83-2.308 2.96a21.5 21.5 0 0 0-1.787 3.66 24 24 0 0 0-1.147 4.1 23 23 0 0 0-.402 4.24c0 2.11.417 3.71 1.251 4.81s2.085 1.66 3.753 1.66c.933 0 1.797-.09 2.591-.26a9 9 0 0 0 2.323-.85q1.132-.585 2.338-1.56c.805-.65 1.693-1.44 2.666-2.4.377.4.74.79 1.087 1.18.348.39.71.78 1.087 1.18q-3.216 3.33-6.433 4.95c-2.145 1.09-4.448 1.63-6.91 1.63q-4.617 0-7.074-2.7c-1.638-1.8-2.458-4.36-2.458-7.7 0-1.86.209-3.67.626-5.4a22 22 0 0 1 1.802-4.9 20.6 20.6 0 0 1 2.815-4.17 18.4 18.4 0 0 1 3.663-3.23q2.026-1.365 4.379-2.1 2.352-.75 4.944-.75"/><text x="891.342" y="2327.24" fill-opacity="0" font-family="Arial,Arial_MSFontService,sans-serif" font-size="30.947">𝑐</text><path fill-rule="evenodd" d="M2732.92 2255.53c2.64 0 4.93.22 6.85.65l-1.58 6.89h-3.57c-.38-1.54-.87-2.65-1.48-3.32-.61-.68-1.51-1.02-2.69-1.02-1.54 0-2.85.43-3.92 1.28-1.06.85-1.97 2.11-2.73 3.79-.76 1.67-1.46 3.93-2.11 6.77l-1.01 4.41h10.41l-.89 4.1h-10.45l-7.54 35.34c-1.25 5.86-3.15 10.23-5.72 13.11-2.56 2.87-5.79 4.31-9.68 4.31-1.14 0-2.03-.06-2.68-.2l.69-3.57c.27.09.91.13 1.91.13 1.21 0 2.25-.31 3.12-.94.86-.62 1.67-1.7 2.41-3.24s1.42-3.67 2.04-6.4l8.72-38.54h-6.85l.61-2.8c1.81-.11 3.11-.26 3.91-.45.8-.18 1.42-.47 1.86-.85.45-.37.83-.87 1.14-1.48.31-.6.71-1.72 1.19-3.34 1.43-4.86 3.64-8.52 6.63-10.96 2.98-2.45 6.79-3.67 11.41-3.67"/><text x="2694.13" y="2322.3" fill-opacity="0" font-family="Arial,Arial_MSFontService,sans-serif" font-size="76.313">𝑓</text><path fill-rule="evenodd" d="M2745.93 2300.16c1.45 0 2.8.08 4.04.24s2.52.41 3.85.74l-1.66 7.3h-3.52c-.02-1.03-.09-1.89-.22-2.58q-.195-1.02-.63-1.62c-.28-.4-.66-.68-1.13-.85s-1.04-.26-1.71-.28c-1.07 0-2.1.24-3.08.71-.99.48-1.9 1.14-2.74 1.99-.85.84-1.62 1.83-2.31 2.96a21.4 21.4 0 0 0-1.79 3.66c-.5 1.31-.88 2.68-1.15 4.1-.26 1.42-.4 2.83-.4 4.24 0 2.11.42 3.71 1.25 4.81.84 1.1 2.09 1.66 3.76 1.66.93 0 1.79-.09 2.59-.26a9 9 0 0 0 2.32-.85q1.125-.585 2.34-1.56c.8-.65 1.69-1.44 2.66-2.4.38.4.74.79 1.09 1.18s.71.78 1.09 1.18c-2.15 2.22-4.29 3.87-6.44 4.95-2.14 1.09-4.44 1.63-6.91 1.63-3.07 0-5.43-.9-7.07-2.7s-2.46-4.36-2.46-7.7c0-1.86.21-3.67.63-5.4.42-1.74 1.02-3.37 1.8-4.9q1.17-2.295 2.82-4.17c1.09-1.25 2.31-2.33 3.66-3.23q2.025-1.365 4.38-2.1c1.57-.5 3.21-.75 4.94-.75"/><text x="2727.7" y="2327.24" fill-opacity="0" font-family="Arial,Arial_MSFontService,sans-serif" font-size="30.947">𝑐</text><path d="M908.083 2218.23v-129.485h-9.166v129.485Zm18.334-124.901-22.917-45.834-22.916 45.834Zm1817.666 124.211v-126.793h-9.166v126.793Zm18.334-122.209-22.917-45.834-22.916 45.834Z"/><text font-family="Microsoft YaHei,Microsoft YaHei_MSFontService,sans-serif" font-size="83" font-weight="400" transform="translate(3048.54 2314)">码<tspan x="107.136" y="0">NCO </tspan><tspan x="320.834" y="0">偏移量</tspan></text><path d="M3338.083 2217.57v-148.823h-9.166v148.823Zm18.334-144.24-22.917-45.833-22.916 45.833Z"/><path fill-rule="evenodd" d="M2174.3 1994.15c2.65 0 4.94.22 6.85.65l-1.58 6.89h-3.56c-.38-1.54-.87-2.65-1.48-3.32q-.915-1.02-2.7-1.02c-1.54 0-2.84.43-3.91 1.28s-1.98 2.11-2.73 3.79c-.76 1.68-1.46 3.93-2.11 6.77l-1.02 4.42h10.42l-.89 4.09h-10.46l-7.54 35.34c-1.24 5.86-3.14 10.23-5.71 13.11q-3.855 4.32-9.69 4.32-1.695 0-2.67-.21l.69-3.56c.27.08.9.12 1.9.12q1.83 0 3.12-.93c.87-.63 1.67-1.71 2.42-3.25.74-1.54 1.42-3.67 2.04-6.4l8.72-38.54h-6.85l.6-2.8c1.81-.11 3.12-.25 3.91-.44.8-.19 1.42-.48 1.87-.85.45-.38.82-.88 1.13-1.48.31-.61.71-1.73 1.2-3.35 1.43-4.86 3.64-8.51 6.63-10.96 2.98-2.45 6.78-3.67 11.4-3.67"/><text x="2135.52" y="2060.93" fill-opacity="0" font-family="Arial,Arial_MSFontService,sans-serif" font-size="76.313">𝑓</text><path fill-rule="evenodd" d="M2216.04 2041.73c-1.11 0-2.16.25-3.13.75-.97.49-1.87 1.18-2.68 2.05s-1.54 1.91-2.19 3.1a23.7 23.7 0 0 0-1.64 3.84 29 29 0 0 0-1.03 4.29c-.23 1.49-.35 2.98-.35 4.47 0 2.28.47 3.96 1.41 5.05.95 1.08 2.38 1.62 4.31 1.62 1.07 0 2.08-.26 3.03-.79.96-.53 1.83-1.24 2.63-2.13.79-.89 1.5-1.94 2.12-3.14.63-1.2 1.16-2.49 1.6-3.86.43-1.37.77-2.78 1-4.24.22-1.46.34-2.89.34-4.28 0-2.2-.44-3.87-1.31-5.02q-1.32-1.71-4.11-1.71m.56-2.95c1.79 0 3.35.29 4.69.87 1.35.57 2.46 1.35 3.36 2.33.89.99 1.56 2.14 2.01 3.47.44 1.34.67 2.75.67 4.26 0 3.02-.45 5.76-1.34 8.21-.9 2.45-2.13 4.56-3.71 6.31a16.4 16.4 0 0 1-5.57 4.07c-2.14.95-4.46 1.43-6.96 1.43-1.65 0-3.12-.25-4.44-.75-1.31-.49-2.42-1.21-3.33-2.14s-1.61-2.06-2.1-3.38-.73-2.81-.73-4.48c0-2.82.44-5.46 1.32-7.91.89-2.45 2.11-4.59 3.67-6.4a17.4 17.4 0 0 1 5.52-4.31c2.13-1.05 4.44-1.58 6.94-1.58m-29.28 0c1.45 0 2.79.08 4.03.24 1.25.16 2.53.41 3.86.75l-1.67 7.29h-3.51c-.02-1.03-.1-1.89-.22-2.57-.13-.69-.34-1.23-.63-1.63a2.45 2.45 0 0 0-1.13-.85c-.47-.16-1.04-.26-1.71-.28-1.08 0-2.1.24-3.09.72-.98.47-1.89 1.13-2.74 1.98-.84.84-1.61 1.83-2.31 2.96-.69 1.13-1.29 2.35-1.78 3.66-.5 1.31-.88 2.68-1.15 4.1s-.4 2.83-.4 4.24c0 2.11.42 3.71 1.25 4.81.83 1.11 2.08 1.66 3.75 1.66.94 0 1.8-.09 2.59-.26.8-.16 1.57-.45 2.33-.84.75-.4 1.53-.92 2.33-1.57q1.215-.96 2.67-2.4c.38.4.74.79 1.09 1.18s.71.78 1.08 1.18c-2.14 2.22-4.28 3.87-6.43 4.96-2.14 1.08-4.45 1.62-6.91 1.62-3.08 0-5.43-.9-7.07-2.7-1.64-1.79-2.46-4.36-2.46-7.7q0-2.79.63-5.4c.41-1.74 1.01-3.37 1.8-4.9.78-1.53 1.72-2.92 2.81-4.17s2.32-2.33 3.67-3.23c1.35-.91 2.81-1.61 4.37-2.1q2.355-.75 4.95-.75"/><text x="2169.09" y="2065.86" fill-opacity="0" font-family="Arial,Arial_MSFontService,sans-serif" font-size="30.947">𝑐𝑜</text><path fill-rule="evenodd" d="M2545.57 1579.76c5.03 0 8.83 1.1 11.39 3.3 2.57 2.2 3.85 5.4 3.85 9.59 0 1.43-.14 2.75-.42 3.95-.29 1.2-.73 2.39-1.34 3.57-.61 1.17-1.43 2.43-2.45 3.78a63 63 0 0 1-3.41 4.12c-1.24 1.39-3.39 3.71-6.44 6.95q-7.695 8.145-11.31 14.22h15.28c1.32 0 2.39-.08 3.2-.24q1.215-.24 1.95-.81c.48-.38.87-.87 1.15-1.48.29-.61.64-1.55 1.08-2.82h3.44l-.69 11.84h-33.35v-1.95c1.16-2.83 2.73-5.74 4.7-8.71s4.77-6.47 8.39-10.5c3.13-3.46 5.39-6.08 6.77-7.86 1.51-1.94 2.64-3.63 3.38-5.05.74-1.41 1.28-2.75 1.6-4.01.33-1.25.49-2.52.49-3.79 0-2.02-.33-3.81-.97-5.37-.65-1.55-1.65-2.77-2.98-3.66-1.34-.9-3.02-1.34-5.05-1.34-5.05 0-8.46 2.81-10.21 8.43h-4.91v-7.78c3.27-1.54 6.33-2.66 9.18-3.35s5.41-1.03 7.68-1.03"/><text x="2527.5" y="1628.73" fill-opacity="0" font-family="Arial,Arial_MSFontService,sans-serif" font-size="55.968">2</text><path fill-rule="evenodd" d="M2606.28 1577.53c2.65 0 4.93.22 6.85.65l-1.58 6.89h-3.57c-.38-1.54-.87-2.65-1.48-3.32-.6-.68-1.5-1.02-2.69-1.02-1.54 0-2.85.43-3.91 1.28-1.07.85-1.98 2.11-2.74 3.79-.75 1.67-1.46 3.93-2.11 6.77l-1.01 4.41h10.42l-.89 4.1h-10.46l-7.54 35.34c-1.24 5.86-3.15 10.23-5.71 13.11-2.57 2.87-5.8 4.31-9.69 4.31-1.13 0-2.03-.06-2.67-.2l.69-3.57c.27.09.9.13 1.9.13 1.22 0 2.26-.31 3.12-.94.86-.62 1.67-1.7 2.41-3.24s1.43-3.67 2.05-6.4l8.71-38.54h-6.85l.61-2.8c1.81-.11 3.11-.26 3.91-.45.8-.18 1.42-.47 1.87-.85.44-.37.82-.87 1.13-1.48.31-.6.71-1.72 1.2-3.34 1.43-4.86 3.64-8.52 6.62-10.96 2.99-2.45 6.79-3.67 11.41-3.67"/><text x="2567.5" y="1644.3" fill-opacity="0" font-family="Arial,Arial_MSFontService,sans-serif" font-size="76.313">𝑓</text><path fill-rule="evenodd" d="M2648.01 1625.11c-1.11 0-2.15.25-3.12.74-.98.5-1.87 1.19-2.68 2.06-.82.87-1.55 1.91-2.19 3.1-.65 1.19-1.19 2.47-1.64 3.84s-.79 2.8-1.03 4.29q-.36 2.235-.36 4.47c0 2.28.48 3.96 1.42 5.04.94 1.09 2.38 1.63 4.3 1.63 1.07 0 2.09-.26 3.04-.79s1.83-1.24 2.62-2.13c.8-.89 1.51-1.94 2.13-3.14.63-1.2 1.16-2.49 1.59-3.86.44-1.37.77-2.79 1-4.24.23-1.46.35-2.89.35-4.28 0-2.2-.44-3.88-1.32-5.02q-1.305-1.71-4.11-1.71m.57-2.95c1.79 0 3.35.29 4.69.86 1.34.58 2.46 1.36 3.35 2.34.9.99 1.57 2.14 2.01 3.47.45 1.33.67 2.75.67 4.26 0 3.02-.44 5.76-1.34 8.21-.89 2.45-2.13 4.56-3.71 6.31a16.3 16.3 0 0 1-5.57 4.07c-2.13.95-4.45 1.43-6.95 1.43q-2.475 0-4.44-.75c-1.31-.49-2.42-1.21-3.33-2.14-.92-.93-1.62-2.06-2.1-3.38-.49-1.32-.73-2.82-.73-4.48 0-2.82.44-5.46 1.32-7.91s2.11-4.59 3.66-6.41a17.5 17.5 0 0 1 5.53-4.3c2.12-1.05 4.44-1.58 6.94-1.58m-29.29 0c1.45 0 2.8.08 4.04.24s2.53.41 3.86.74l-1.67 7.3h-3.51c-.02-1.03-.1-1.89-.23-2.58-.13-.68-.34-1.22-.62-1.62-.29-.4-.67-.68-1.14-.85-.46-.17-1.03-.26-1.71-.28-1.07 0-2.1.24-3.08.71-.98.48-1.9 1.14-2.74 1.99-.84.84-1.61 1.83-2.31 2.96-.69 1.13-1.29 2.35-1.79 3.66a24 24 0 0 0-1.14 4.1c-.27 1.42-.41 2.83-.41 4.24 0 2.11.42 3.71 1.26 4.81.83 1.1 2.08 1.66 3.75 1.66.93 0 1.8-.09 2.59-.26a9 9 0 0 0 2.32-.85q1.14-.585 2.34-1.56c.81-.65 1.69-1.44 2.67-2.4.37.4.74.79 1.08 1.18.35.39.71.78 1.09 1.18-2.14 2.22-4.29 3.87-6.43 4.95-2.15 1.09-4.45 1.63-6.91 1.63q-4.62 0-7.08-2.7c-1.63-1.79-2.45-4.36-2.45-7.7 0-1.86.2-3.67.62-5.4.42-1.74 1.02-3.37 1.8-4.9q1.185-2.295 2.82-4.17c1.09-1.25 2.31-2.33 3.66-3.23q2.025-1.365 4.38-2.1c1.57-.5 3.22-.75 4.94-.75"/><text x="2601.07" y="1649.24" fill-opacity="0" font-family="Arial,Arial_MSFontService,sans-serif" font-size="30.947">𝑐𝑜</text><path fill-rule="evenodd" d="M2699.74 1577.73h6.28l-29.26 75.42h-6.36Z"/><text x="2670.4" y="1643.73" fill-opacity="0" font-family="Arial,Arial_MSFontService,sans-serif" font-size="75.421">/</text><path fill-rule="evenodd" d="M2736.97 1583.93c-1.19 0-2.47.04-3.85.13l-10.5 47.94q1.185.12 4.5.12c4.38 0 8.09-.76 11.15-2.29 3.05-1.53 5.68-3.92 7.9-7.17 2.22-3.26 3.85-6.69 4.9-10.3 1.06-3.6 1.58-7.41 1.58-11.4 0-5.65-1.31-9.9-3.95-12.75-2.63-2.85-6.54-4.28-11.73-4.28m-15.48-3.52h15.36q6.12 0 9.93.93t7.11 3.36c2.2 1.63 3.86 3.78 4.96 6.47 1.11 2.69 1.67 5.87 1.67 9.54 0 3.65-.42 7.14-1.26 10.46s-2.04 6.38-3.61 9.18c-1.56 2.79-3.44 5.23-5.63 7.29-2.19 2.07-4.31 3.66-6.36 4.76-2.06 1.11-4.35 1.94-6.89 2.5-2.54.55-5.5.83-8.88.83h-17.02l.45-1.99c1.02-.16 1.79-.42 2.31-.79.51-.36.94-.87 1.29-1.52s.68-1.44.98-2.37c.29-.93.74-2.73 1.33-5.41l6.89-31.21c.6-2.7.89-4.87.89-6.52 0-1.27-.31-2.15-.95-2.65-.63-.5-1.64-.8-3.02-.88Z"/><text x="2710.87" y="1628.81" fill-opacity="0" font-family="Arial,Arial_MSFontService,sans-serif" font-size="55.32">𝐷</text><path fill-rule="evenodd" d="M398.576 902.659q3.768 0 6.869.445 3.1.447 6.18 1.541l-1.823 8.51h-3.283q-.445-3.606-2.371-5.471-1.925-1.864-6.059-1.864-3.201 0-5.187 1.641t-1.986 4.316q0 1.46.507 2.574.506 1.114 2.046 2.452t4.782 3.282q2.554 1.54 4.094 2.817 1.54 1.276 2.431 2.533a8.8 8.8 0 0 1 1.297 2.655q.405 1.398.406 3.384 0 3.606-1.926 6.18t-5.228 3.83-7.517 1.256a43 43 0 0 1-6.606-.506q-3.242-.507-7.214-1.723l1.945-8.835h3.161q.162 3.891 2.189 5.877 2.026 1.986 6.444 1.986 3.849 0 6.018-1.723 2.168-1.722 2.168-4.883 0-1.824-.608-3.141t-1.986-2.533-4.377-3.04q-3.16-1.905-4.924-3.445-1.763-1.54-2.654-3.343-.892-1.803-.892-4.154 0-3.202 1.723-5.613 1.722-2.412 4.924-3.708 3.201-1.297 7.457-1.297"/><text x="377.988" y="937.73" fill-opacity="0" font-family="Arial,Arial_MSFontService,sans-serif" font-size="40.081">𝑠</text><path fill-rule="evenodd" d="M444.653 920.264h28.087l-2.114 9.293h-3.187a80 80 0 0 0-.298-2.8q-.15-1.162-.536-1.906a2.3 2.3 0 0 0-1.102-1.073q-.715-.327-1.966-.357h-9.74l-3.276 14.505h5.867q1.042 0 1.728-.134a2.67 2.67 0 0 0 1.251-.625q.565-.492 1.117-1.4.55-.909 1.355-2.428h2.978l-2.859 12.361h-2.889q0-1.608-.089-2.546-.09-.94-.388-1.415-.297-.477-.893-.596-.595-.119-1.609-.119h-6.254a495 495 0 0 1-.864 3.768q-.477 2.04-.894 3.976a100 100 0 0 0-.7 3.53q-.283 1.593-.283 2.368 0 .595.164 1.027t.536.73 1.058.447q.684.148 1.757.208l-.417 1.817h-12.897l.328-1.817q.923-.149 1.519-.372.595-.224 1.057-.864t.834-1.921.879-3.574l4.884-21.714a31 31 0 0 0 .447-2.323q.15-1.012.149-1.668 0-1.34-.67-1.906t-2.517-.596Zm-23 0h12.569l-.327 1.787q-.715.178-1.207.313a3.1 3.1 0 0 0-.863.372 2 2 0 0 0-.626.655 6.4 6.4 0 0 0-.506 1.117 20 20 0 0 0-.522 1.742q-.268 1.043-.625 2.562l-4.885 21.773a47 47 0 0 0-.432 2.368 12 12 0 0 0-.134 1.713q0 1.25.73 1.772.73.521 2.487.64l-.476 1.817h-12.54l.328-1.817q.923-.149 1.504-.372.58-.224 1.042-.864t.849-1.921.894-3.574l4.884-21.714a31 31 0 0 0 .447-2.323q.15-1.013.149-1.727 0-1.311-.685-1.862-.685-.55-2.502-.581Z"/><text x="414.296" y="954.066" fill-opacity="0" font-family="Arial,Arial_MSFontService,sans-serif" font-size="38.631">𝐼𝐹</text><path fill-rule="evenodd" d="M564.954 879.937q11.833 3.121 18.177 13.475 6.342 10.355 6.342 24.986 0 14.67-6.322 24.985-6.323 10.314-18.197 13.435l-.973-3.121q9.362-3.12 13.922-12.32 4.559-9.2 4.559-23.385 0-13.698-4.539-22.756-4.54-9.057-14.063-12.178Zm-54.031 0 1.095 3.121q-9.485 3.12-14.043 12.178-4.56 9.058-4.56 22.756 0 14.185 4.56 23.385t13.921 12.32l-.973 3.121q-11.875-3.121-18.196-13.435-6.323-10.314-6.323-24.985 0-14.63 6.343-24.986 6.342-10.354 18.176-13.475m15.19 22.681q2.553 0 4.032 1.682t1.48 4.397q0 2.148-.973 4.782l.486.163q3.972-5.594 7.559-8.288 3.586-2.695 7.396-2.695 3.769 0 5.795 2.168 2.027 2.168 2.027 6.018 0 2.553-1.176 7.255l-2.634 10.618q-1.094 4.417-1.094 6.241 0 1.621.527 2.351.527.729 1.661.729 1.217 0 2.594-.993 1.378-.993 3.891-3.789l2.31 2.269q-3.486 3.729-6.079 5.451-2.594 1.723-5.917 1.723-2.634 0-4.215-1.885-1.581-1.884-1.581-4.802 0-2.634 1.338-7.741l1.783-7.011q.972-3.81 1.277-5.634.303-1.823.304-2.958 0-2.796-.933-4.033-.931-1.236-3.039-1.236-1.703 0-3.668 1.358t-4.174 4.093q-2.21 2.736-3.546 5.309-1.337 2.574-2.189 6.343l-3.85 17.548h-7.011l5.917-25.694q.891-3.89.891-5.998 0-1.621-.526-2.351-.528-.729-1.662-.729-1.256 0-2.655 1.033-1.398 1.034-3.829 3.749l-2.31-2.269q3.728-3.891 6.2-5.532t5.593-1.642"/><text x="514.32" y="937.69" fill-opacity="0" font-family="Arial,Arial_MSFontService,sans-serif" font-size="40.081">𝑛</text><path d="M494.917 846.642V653.917h92.628v9.166H499.5l4.583-4.583v188.142Zm88.045-211.059 45.833 22.917-45.833 22.917ZM494.917 979.5v167.832h491.601v-9.166H499.5l4.583 4.583V979.5Zm487.017 186.166 45.834-22.917-45.834-22.917ZM260.5 908.917h47.639v9.166H260.5Zm43.056-18.334 45.833 22.917-45.833 22.917Z"/><path fill-rule="evenodd" d="M755.754 1370.24q2.595 0 4.094 1.74c.999 1.16 1.499 2.73 1.499 4.7 0 2.14-.419 4.8-1.256 7.99l-1.783 7.01q-.69 2.67-.993 4.17c-.203 1-.352 1.87-.446 2.59q-.142 1.095-.142 1.83c0 1.86.311 3.21.932 4.03.622.83 1.635 1.24 3.04 1.24 1.134 0 2.357-.46 3.667-1.36 1.311-.91 2.702-2.27 4.175-4.09q2.208-2.745 3.546-5.31c.891-1.72 1.621-3.83 2.188-6.35l3.85-17.54h7.012l-5.917 25.69q-.892 3.885-.892 6c0 1.08.176 1.86.527 2.35s.905.73 1.662.73q1.215 0 2.593-.99c.919-.67 2.216-1.93 3.891-3.79l2.31 2.27q-3.688 3.93-6.282 5.55t-5.511 1.62c-1.676 0-3.013-.55-4.013-1.66-.999-1.11-1.499-2.58-1.499-4.42 0-1.46.324-3.05.972-4.78l-.486-.16c-2.675 3.75-5.208 6.52-7.599 8.3-2.391 1.79-4.843 2.68-7.355 2.68s-4.445-.72-5.796-2.17c-1.351-1.44-2.026-3.45-2.026-6.02 0-1.7.392-4.12 1.175-7.25l2.634-10.62q1.095-4.425 1.095-6.24c0-1.08-.176-1.87-.527-2.35-.352-.49-.905-.73-1.662-.73-.837 0-1.722.34-2.654 1.03q-1.399 1.035-3.83 3.75l-2.31-2.27c2.296-2.32 4.025-3.92 5.187-4.78 1.162-.87 2.276-1.48 3.344-1.84 1.067-.37 2.262-.55 3.586-.55"/><text x="743.637" y="1405.31" fill-opacity="0" font-family="Arial,Arial_MSFontService,sans-serif" font-size="40.081">𝑢</text><path fill-rule="evenodd" d="M810.976 1399.05q-1.668 0-3.127.75c-.973.49-1.867 1.18-2.681 2.05-.814.88-1.544 1.91-2.189 3.1a23 23 0 0 0-1.638 3.84q-.67 2.055-1.028 4.29a28 28 0 0 0-.357 4.47c0 2.28.471 3.97 1.415 5.05q1.414 1.62 4.304 1.62c1.072 0 2.085-.26 3.038-.79q1.429-.78 2.621-2.13c.794-.89 1.504-1.94 2.129-3.14.626-1.2 1.157-2.49 1.594-3.86s.769-2.78.998-4.24.342-2.89.342-4.28q0-3.3-1.31-5.01c-.874-1.15-2.244-1.72-4.111-1.72m32.932-2.95q2.89 0 5.317.36c1.618.24 3.192.59 4.721 1.04l-1.43 6.74h-2.651c-.218-1.79-.809-3.11-1.772-3.97-.963-.85-2.457-1.28-4.482-1.28q-1.222 0-2.264.33c-.695.22-1.291.52-1.787.91q-.745.585-1.162 1.38a3.8 3.8 0 0 0-.417 1.76c0 .58.07 1.1.209 1.58s.412.94.819 1.4.983.93 1.727 1.43 1.723 1.06 2.934 1.7c1.271.69 2.328 1.36 3.172 1.99.844.64 1.514 1.28 2.011 1.94a5.9 5.9 0 0 1 1.042 2.1q.298 1.11.298 2.49c0 1.41-.288 2.67-.864 3.79a8.2 8.2 0 0 1-2.412 2.85c-1.033.77-2.249 1.37-3.649 1.79-1.4.41-2.934.62-4.602.62q-2.74 0-5.391-.36c-1.767-.23-3.634-.64-5.599-1.22l1.548-6.79h2.592c.099 1.85.68 3.23 1.742 4.16q1.594 1.38 4.93 1.38c1.985 0 3.549-.43 4.691-1.28q1.712-1.275 1.712-3.57c0-.7-.069-1.3-.208-1.81q-.208-.75-.819-1.44c-.407-.46-.963-.93-1.668-1.42q-1.057-.72-2.755-1.68c-1.172-.65-2.18-1.3-3.024-1.93-.843-.64-1.538-1.28-2.084-1.94-.547-.66-.949-1.34-1.207-2.06a6.6 6.6 0 0 1-.387-2.29c0-1.25.263-2.41.789-3.47a8.05 8.05 0 0 1 2.249-2.75c.973-.78 2.145-1.38 3.515-1.82q2.055-.66 4.616-.66m-32.366 0q2.68 0 4.691.87 2.012.855 3.351 2.34c.894.98 1.564 2.14 2.011 3.47q.67 1.995.67 4.26c0 3.01-.447 5.75-1.34 8.2-.894 2.45-2.13 4.56-3.709 6.32a16.4 16.4 0 0 1-5.57 4.06c-2.134.95-4.452 1.43-6.954 1.43-1.648 0-3.128-.25-4.438-.74-1.311-.5-2.423-1.22-3.336-2.15-.914-.93-1.614-2.06-2.1-3.38-.487-1.32-.73-2.81-.73-4.48 0-2.82.442-5.46 1.326-7.91.883-2.45 2.104-4.59 3.663-6.4a17.5 17.5 0 0 1 5.525-4.31c2.125-1.05 4.438-1.58 6.94-1.58"/><text x="794.088" y="1423.18" fill-opacity="0" font-family="Arial,Arial_MSFontService,sans-serif" font-size="30.947">𝑜𝑠</text><path fill-rule="evenodd" d="M1137.94 1370.24c1.73 0 3.09.58 4.09 1.74s1.5 2.73 1.5 4.7c0 2.14-.42 4.8-1.25 7.99l-1.79 7.01q-.69 2.67-.99 4.17c-.2 1-.35 1.87-.44 2.59q-.15 1.095-.15 1.83c0 1.86.31 3.21.94 4.03.62.83 1.63 1.24 3.04 1.24 1.13 0 2.35-.46 3.66-1.36 1.31-.91 2.7-2.27 4.18-4.09q2.205-2.745 3.54-5.31c.9-1.72 1.62-3.83 2.19-6.35l3.85-17.54h7.01l-5.91 25.69q-.9 3.885-.9 6c0 1.08.18 1.86.53 2.35s.91.73 1.66.73c.81 0 1.68-.33 2.6-.99.92-.67 2.21-1.93 3.89-3.79l2.31 2.27c-2.46 2.62-4.56 4.47-6.28 5.55q-2.595 1.62-5.52 1.62c-1.67 0-3.01-.55-4.01-1.66s-1.5-2.58-1.5-4.42c0-1.46.33-3.05.98-4.78l-.49-.16c-2.68 3.75-5.21 6.52-7.6 8.3-2.39 1.79-4.84 2.68-7.36 2.68-2.51 0-4.44-.72-5.79-2.17-1.35-1.44-2.03-3.45-2.03-6.02 0-1.7.39-4.12 1.18-7.25l2.63-10.62c.73-2.95 1.1-5.03 1.1-6.24 0-1.08-.18-1.87-.53-2.35-.35-.49-.91-.73-1.66-.73-.84 0-1.72.34-2.66 1.03-.93.69-2.21 1.94-3.83 3.75l-2.31-2.27c2.3-2.32 4.03-3.92 5.19-4.78 1.16-.87 2.28-1.48 3.34-1.84 1.07-.37 2.27-.55 3.59-.55"/><text x="1125.82" y="1405.31" fill-opacity="0" font-family="Arial,Arial_MSFontService,sans-serif" font-size="40.081">𝑢</text><path fill-rule="evenodd" d="M1193.16 1399.05q-1.665 0-3.12.75c-.98.49-1.87 1.18-2.69 2.05-.81.88-1.54 1.91-2.18 3.1-.65 1.19-1.2 2.47-1.64 3.84-.45 1.37-.79 2.8-1.03 4.29q-.36 2.235-.36 4.47c0 2.28.47 3.97 1.42 5.05.94 1.08 2.38 1.62 4.3 1.62 1.07 0 2.09-.26 3.04-.79a9.7 9.7 0 0 0 2.62-2.13c.79-.89 1.5-1.94 2.13-3.14s1.16-2.49 1.59-3.86c.44-1.37.77-2.78 1-4.24s.34-2.89.34-4.28c0-2.2-.43-3.87-1.31-5.01-.87-1.15-2.24-1.72-4.11-1.72m37.28-2.95c1.45 0 2.8.08 4.04.24s2.53.41 3.86.75l-1.67 7.29h-3.52c-.02-1.03-.09-1.89-.22-2.57-.13-.69-.34-1.23-.62-1.63-.29-.39-.67-.68-1.14-.84-.46-.17-1.03-.27-1.71-.29-1.07 0-2.1.24-3.08.72-.98.47-1.9 1.13-2.74 1.98-.85.84-1.62 1.83-2.31 2.96a21.5 21.5 0 0 0-1.79 3.67c-.49 1.31-.88 2.67-1.14 4.09-.27 1.42-.41 2.84-.41 4.25 0 2.1.42 3.7 1.25 4.81.84 1.1 2.09 1.65 3.76 1.65.93 0 1.79-.09 2.59-.25.79-.17 1.57-.46 2.32-.85.76-.4 1.54-.92 2.34-1.57.8-.64 1.69-1.44 2.67-2.39.37.39.74.78 1.08 1.17.35.39.71.78 1.09 1.18-2.14 2.22-4.29 3.88-6.43 4.96-2.15 1.08-4.45 1.62-6.91 1.62-3.08 0-5.44-.9-7.08-2.69-1.64-1.8-2.45-4.37-2.45-7.7 0-1.87.2-3.67.62-5.41s1.02-3.37 1.8-4.9q1.185-2.295 2.82-4.17c1.09-1.25 2.31-2.33 3.66-3.23q2.025-1.35 4.38-2.1c1.57-.5 3.22-.75 4.94-.75m-36.71 0c1.79 0 3.35.29 4.69.87 1.34.57 2.46 1.35 3.35 2.34.89.98 1.56 2.14 2.01 3.47s.67 2.75.67 4.26c0 3.01-.45 5.75-1.34 8.2s-2.13 4.56-3.71 6.32c-1.58 1.75-3.43 3.11-5.57 4.06-2.13.95-4.45 1.43-6.95 1.43-1.65 0-3.13-.25-4.44-.74-1.31-.5-2.42-1.22-3.34-2.15-.91-.93-1.61-2.06-2.1-3.38-.48-1.32-.73-2.81-.73-4.48 0-2.82.45-5.46 1.33-7.91s2.11-4.59 3.66-6.4a17.4 17.4 0 0 1 5.53-4.31c2.12-1.05 4.44-1.58 6.94-1.58"/><text x="1176.27" y="1423.18" fill-opacity="0" font-family="Arial,Arial_MSFontService,sans-serif" font-size="30.947">𝑜𝑐</text><path fill="none" stroke="#000" stroke-miterlimit="8" stroke-width="9.167" d="M2081.5 1763.5v89.54"/><path fill-rule="evenodd" d="M2104.31 1500.29h16.21l-.45 1.98c-1.03.22-1.76.46-2.21.73-.44.27-.84.68-1.19 1.22s-.72 1.38-1.1 2.53-.85 3.02-1.42 5.62l-8.67 39.51h9.97c1.81 0 3.24-.18 4.28-.53s2.02-.99 2.96-1.92c.93-.93 1.84-2.2 2.73-3.79.89-1.6 1.8-3.58 2.72-5.96h3.93l-4.1 15.93h-34.28l.44-1.99c1.03-.16 1.8-.42 2.31-.79.52-.36.95-.87 1.3-1.52s.68-1.44.97-2.37c.3-.93.75-2.73 1.34-5.41l6.89-31.21c.59-2.7.89-4.87.89-6.52 0-1.27-.32-2.15-.95-2.65-.64-.5-1.64-.8-3.02-.88Z"/><text x="2093.69" y="1548.69" fill-opacity="0" font-family="Arial,Arial_MSFontService,sans-serif" font-size="55.32">𝐿</text><path fill-rule="evenodd" d="M2120.94 1783.7c-1.67 0-3.43.05-5.26.13l-5.52 24.56h4.22q4.905 0 7.92-1.02c2.02-.67 3.66-1.72 4.95-3.14 1.28-1.42 2.27-3.1 2.98-5.04.7-1.95 1.05-4.08 1.05-6.41 0-3.13-.8-5.43-2.39-6.89-1.6-1.46-4.24-2.19-7.95-2.19m-16.98-3.56h17.88q4.815 0 7.92.75c2.07.5 3.77 1.27 5.11 2.31a9.6 9.6 0 0 1 2.99 3.95c.67 1.59 1 3.44 1 5.55 0 4.05-.96 7.57-2.88 10.54s-4.52 5.16-7.8 6.56c-3.28 1.41-7.22 2.11-11.82 2.11-2.75 0-5.05-.05-6.88-.16l-2.6 11.91c-.24 1.11-.41 1.96-.5 2.56-.1.59-.18 1.23-.25 1.92s-.1 1.31-.1 1.85c0 .83.14 1.49.41 1.96.27.48.67.82 1.21 1.04.54.21 1.47.37 2.8.48l-.45 1.99h-16.65l.44-1.99c1.03-.16 1.8-.42 2.31-.79.51-.36.95-.87 1.3-1.52s.67-1.44.97-2.37.74-2.73 1.34-5.41l6.89-31.2c.59-2.71.89-4.84.89-6.41 0-1.32-.31-2.24-.93-2.75-.62-.52-1.64-.81-3.04-.9Z"/><text x="2093.35" y="1828.54" fill-opacity="0" font-family="Arial,Arial_MSFontService,sans-serif" font-size="55.32">𝑃</text><path fill-rule="evenodd" d="M1588.59 1509.3h37.28l-2.8 12.44h-3.89c-.1-2.35-.31-4.12-.6-5.31-.3-1.19-.66-2-1.08-2.45-.42-.44-.92-.74-1.5-.89s-1.41-.22-2.49-.22h-13.21l-4.62 21.23h7.74c1.92 0 3.38-.45 4.4-1.35 1.01-.91 2.03-2.4 3.06-4.48h3.68l-3.64 15.56h-3.45c0-2.16-.13-3.63-.4-4.4s-.67-1.25-1.2-1.46c-.53-.2-1.48-.3-2.86-.3h-8.1l-5.19 23.38h12c1.59 0 2.85-.16 3.79-.48.93-.33 1.81-.85 2.63-1.58s1.65-1.75 2.47-3.06c.83-1.31 1.81-3.09 2.94-5.33h3.93l-3.56 14.02h-35.95l.44-1.98c1.03-.17 1.8-.43 2.31-.8.52-.36.95-.87 1.3-1.52.35-.64.68-1.43.97-2.37.3-.93.75-2.73 1.34-5.41l6.89-31.2c.59-2.7.89-4.88.89-6.53 0-1.27-.32-2.15-.95-2.65-.64-.5-1.64-.79-3.02-.87Z"/><text x="1577.97" y="1557.71" fill-opacity="0" font-family="Arial,Arial_MSFontService,sans-serif" font-size="55.32">𝐸</text><path fill-rule="evenodd" d="M1261.66 1057.92c-2.75 0-5.22 1.11-7.41 3.34s-3.91 5.23-5.17 9.02c-1.26 3.78-1.88 7.55-1.88 11.3 0 2.81.38 4.91 1.15 6.31.77 1.39 2.06 2.08 3.87 2.08q1.26 0 2.55-.54 1.305-.555 2.7-1.77c.93-.81 1.85-1.79 2.75-2.96a48 48 0 0 0 2.5-3.5c.75-1.18 1.46-2.57 2.1-4.18.65-1.6 1.21-3.54 1.67-5.81l.36-1.74c.41-1.95.61-3.79.61-5.52 0-2.1-.45-3.64-1.34-4.6-.89-.95-2.38-1.43-4.46-1.43m-.73-3.21c1.68 0 3.27.2 4.79.59 1.51.39 3.08 1.09 4.7 2.09l3.73-2.68 2.59.65-10.38 46.08c-.45 2.06-.68 3.6-.68 4.62 0 1.19.3 2.03.91 2.53s1.8.84 3.58 1l-.36 1.98h-12.65l6.98-26.58-.57-.25c-2.33 3.27-4.7 5.76-7.11 7.46q-3.63 2.55-7.08 2.55c-2.97 0-5.27-1.12-6.91-3.36-1.63-2.24-2.45-5.39-2.45-9.44 0-4.65.91-9.11 2.74-13.4 1.82-4.28 4.33-7.66 7.52-10.13 3.18-2.47 6.74-3.71 10.65-3.71"/><text x="1240.02" y="1104.47" fill-opacity="0" font-family="Arial,Arial_MSFontService,sans-serif" font-size="56.86">𝑞</text><path fill-rule="evenodd" d="M1267.9 570.011h2.39l-5.84 26.018c-.59 2.648-.89 4.648-.89 5.998 0 1.081.18 1.865.53 2.351s.9.73 1.66.73c.81 0 1.68-.331 2.59-.993.92-.662 2.22-1.925 3.89-3.79l2.31 2.27c-2.64 2.783-4.79 4.674-6.44 5.674q-2.475 1.499-5.55 1.499c-1.76 0-3.16-.641-4.22-1.925-1.05-1.283-1.58-2.925-1.58-4.924q0-3.08 1.14-7.862l3.04-13.253q.93-4.053.93-6.079 0-1.824-.87-2.472c-.58-.432-1.72-.675-3.43-.729l.45-2.148Zm-1.1-15.522h7.18l-1.87 7.862h-7.17Z"/><text x="1256.75" y="602.858" fill-opacity="0" font-family="Arial,Arial_MSFontService,sans-serif" font-size="55.279">𝑖</text><path fill-rule="evenodd" d="M2355.18 575.132h2.39l-5.83 26.019c-.6 2.648-.89 4.647-.89 5.998 0 1.081.17 1.864.52 2.35.36.487.91.73 1.67.73.81 0 1.67-.331 2.59-.993s2.22-1.925 3.89-3.789l2.31 2.269c-2.65 2.783-4.8 4.674-6.44 5.674-1.65 1-3.5 1.5-5.56 1.5-1.75 0-3.16-.642-4.21-1.925-1.05-1.284-1.58-2.925-1.58-4.925 0-2.053.38-4.674 1.13-7.862l3.04-13.252c.62-2.702.94-4.728.94-6.079 0-1.216-.3-2.04-.88-2.473q-.87-.648-3.42-.729l.45-2.148Zm-1.09-15.522h7.17l-1.86 7.863h-7.17Z"/><text x="2344.04" y="607.98" fill-opacity="0" font-family="Arial,Arial_MSFontService,sans-serif" font-size="55.279">𝑖</text><path fill-rule="evenodd" d="M2374.04 592.454h28.66l-2.09 9.293h-3.19c-.1-1.152-.2-2.12-.29-2.905-.1-.784-.29-1.414-.56-1.891a2.3 2.3 0 0 0-1.11-1.027c-.48-.209-1.12-.313-1.94-.313h-10.33l-3.13 13.82h5.87q1.125 0 1.89-.179c.5-.119.96-.327 1.35-.625.4-.298.76-.7 1.09-1.206.33-.507.69-1.157 1.09-1.951h2.98l-2.66 11.407h-2.85c-.02-1.032-.07-1.841-.14-2.427q-.105-.879-.45-1.296c-.22-.278-.54-.442-.93-.491-.4-.05-.93-.075-1.58-.075h-6.32l-3.51 15.429h9.14q1.695 0 2.76-.268c.7-.179 1.35-.526 1.93-1.043.59-.516 1.17-1.25 1.75-2.204.57-.953 1.3-2.204 2.17-3.753h3.25l-2.68 10.336h-27.52l.32-1.817c.62-.099 1.12-.223 1.52-.372s.75-.437 1.06-.864.58-1.067.83-1.921.54-2.045.88-3.574l4.89-21.714c.2-.874.34-1.648.44-2.323q.15-1.013.15-1.728c0-.873-.23-1.494-.68-1.861-.46-.368-1.29-.561-2.5-.581Z"/><text x="2366.69" y="626.256" fill-opacity="0" font-family="Arial,Arial_MSFontService,sans-serif" font-size="38.631">𝐸</text><path fill-rule="evenodd" d="M2353.09 830.687h2.39l-5.84 26.019c-.59 2.647-.89 4.647-.89 5.998 0 1.08.17 1.864.53 2.35.35.487.9.73 1.66.73.81 0 1.67-.331 2.59-.993s2.22-1.925 3.89-3.79l2.31 2.27c-2.65 2.783-4.79 4.674-6.44 5.674q-2.475 1.5-5.55 1.499c-1.76 0-3.17-.641-4.22-1.925-1.05-1.283-1.58-2.924-1.58-4.924q0-3.08 1.14-7.862l3.03-13.253c.63-2.701.94-4.728.94-6.079q0-1.822-.87-2.472c-.59-.432-1.73-.675-3.43-.729l.45-2.148Zm-1.1-15.522h7.17l-1.86 7.862h-7.17Z"/><text x="2341.94" y="863.534" fill-opacity="0" font-family="Arial,Arial_MSFontService,sans-serif" font-size="55.279">𝑖</text><path fill-rule="evenodd" d="M2371.94 848.008h12.57l-.32 1.787c-.7.179-1.25.333-1.66.462-.4.129-.75.402-1.04.819s-.55 1.038-.77 1.862c-.23.824-.53 2.03-.88 3.619l-6.05 26.925h7.77c1.1 0 2.04-.094 2.83-.283.8-.188 1.53-.585 2.21-1.191q1.005-.909 1.95-2.576.93-1.668 2.07-4.438h3.28l-3.07 11.646h-26.24l.32-1.817c.62-.1 1.13-.224 1.52-.373.4-.148.75-.436 1.06-.863s.59-1.068.83-1.921c.25-.854.55-2.046.88-3.575l4.89-21.713c.2-.874.35-1.648.44-2.323q.15-1.012.15-1.728c0-.874-.22-1.494-.68-1.861-.46-.368-1.29-.561-2.5-.581Z"/><text x="2364.59" y="881.811" fill-opacity="0" font-family="Arial,Arial_MSFontService,sans-serif" font-size="38.631">𝐿</text><path fill-rule="evenodd" d="M2355.9 1072.27c-2.76 0-5.23 1.11-7.42 3.34s-3.91 5.24-5.17 9.02c-1.25 3.78-1.88 7.55-1.88 11.31 0 2.81.38 4.91 1.15 6.3s2.06 2.09 3.87 2.09c.84 0 1.69-.19 2.56-.55.86-.37 1.76-.95 2.69-1.76.94-.81 1.85-1.8 2.76-2.96q1.35-1.74 2.49-3.51c.76-1.17 1.46-2.56 2.11-4.17s1.2-3.55 1.66-5.82l.36-1.74c.41-1.95.61-3.78.61-5.51 0-2.11-.44-3.64-1.33-4.6-.9-.96-2.38-1.44-4.46-1.44m-.73-3.2c1.67 0 3.27.19 4.78.59 1.51.39 3.08 1.08 4.7 2.08l3.73-2.67 2.59.65-10.37 46.08q-.69 3.075-.69 4.62c0 1.18.3 2.03.91 2.53s1.8.83 3.59.99l-.37 1.99h-12.64l6.97-26.59-.57-.24c-2.32 3.27-4.69 5.75-7.11 7.46-2.42 1.7-4.78 2.55-7.07 2.55-2.97 0-5.28-1.12-6.91-3.37-1.64-2.24-2.45-5.39-2.45-9.44 0-4.65.91-9.11 2.73-13.39 1.83-4.28 4.33-7.66 7.52-10.13 3.19-2.48 6.74-3.71 10.66-3.71"/><text x="2334.26" y="1118.82" fill-opacity="0" font-family="Arial,Arial_MSFontService,sans-serif" font-size="56.86">𝑞</text><path fill-rule="evenodd" d="M2382.41 1086.71h28.65l-2.09 9.3h-3.18c-.1-1.16-.2-2.12-.3-2.91-.1-.78-.28-1.41-.55-1.89s-.64-.82-1.12-1.03c-.47-.21-1.12-.31-1.93-.31h-10.34l-3.13 13.82h5.87q1.14 0 1.89-.18c.51-.12.96-.33 1.36-.62.39-.3.76-.7 1.08-1.21.33-.51.69-1.16 1.09-1.95h2.98l-2.65 11.41h-2.86c-.02-1.04-.06-1.84-.13-2.43s-.22-1.02-.45-1.3c-.23-.27-.54-.44-.94-.49s-.92-.07-1.58-.07h-6.31l-3.52 15.43h9.15c1.13 0 2.05-.09 2.75-.27.71-.18 1.35-.53 1.94-1.04.58-.52 1.16-1.26 1.74-2.21s1.3-2.2 2.18-3.75h3.24l-2.68 10.33h-27.52l.33-1.81c.61-.1 1.12-.23 1.52-.37.39-.15.75-.44 1.05-.87q.465-.645.84-1.92c.25-.85.54-2.05.88-3.57l4.88-21.72c.2-.87.35-1.65.45-2.32.1-.68.15-1.25.15-1.73q0-1.305-.69-1.86c-.46-.37-1.29-.56-2.5-.58Z"/><text x="2375.05" y="1120.52" fill-opacity="0" font-family="Arial,Arial_MSFontService,sans-serif" font-size="38.631">𝐸</text><path fill-rule="evenodd" d="M2359.13 1309.21c-2.76 0-5.23 1.12-7.42 3.35-2.19 2.22-3.91 5.23-5.17 9.01-1.25 3.79-1.88 7.55-1.88 11.31 0 2.81.39 4.91 1.16 6.3s2.06 2.09 3.87 2.09c.83 0 1.68-.18 2.55-.55.86-.36 1.76-.95 2.69-1.76.94-.81 1.85-1.8 2.76-2.96.9-1.16 1.74-2.33 2.49-3.51.76-1.17 1.46-2.56 2.11-4.17s1.2-3.55 1.66-5.82l.37-1.74c.4-1.94.6-3.78.6-5.51 0-2.11-.44-3.64-1.33-4.6s-2.38-1.44-4.46-1.44m-.73-3.2c1.67 0 3.27.2 4.78.59s3.08 1.09 4.7 2.09l3.73-2.68 2.59.65-10.37 46.08q-.69 3.075-.69 4.62c0 1.19.3 2.03.91 2.53s1.81.83 3.59.99l-.37 1.99h-12.64l6.97-26.59-.57-.24c-2.32 3.27-4.69 5.76-7.11 7.46s-4.77 2.55-7.07 2.55c-2.97 0-5.28-1.12-6.91-3.36-1.64-2.25-2.45-5.39-2.45-9.45 0-4.64.91-9.11 2.73-13.39 1.83-4.28 4.33-7.66 7.52-10.13s6.74-3.71 10.66-3.71"/><text x="2337.49" y="1355.76" fill-opacity="0" font-family="Arial,Arial_MSFontService,sans-serif" font-size="56.86">𝑞</text><path fill-rule="evenodd" d="M2385.64 1323.66h12.57l-.33 1.78c-.7.18-1.25.34-1.65.46-.41.13-.76.41-1.05.82-.28.42-.54 1.04-.77 1.87-.23.82-.52 2.03-.88 3.61l-6.05 26.93h7.78c1.09 0 2.03-.09 2.83-.28.79-.19 1.53-.59 2.2-1.19q1.02-.915 1.95-2.58.945-1.665 2.07-4.44h3.28l-3.07 11.65h-26.24l.33-1.82c.61-.1 1.12-.22 1.52-.37.39-.15.75-.44 1.06-.87.3-.42.58-1.06.83-1.92.25-.85.54-2.04.88-3.57l4.88-21.71c.2-.88.35-1.65.45-2.33.1-.67.15-1.25.15-1.73q0-1.305-.69-1.86c-.45-.36-1.29-.56-2.5-.58Z"/><text x="2378.28" y="1357.46" fill-opacity="0" font-family="Arial,Arial_MSFontService,sans-serif" font-size="38.631">𝐿</text><path fill-rule="evenodd" d="M2961.92 556.331h16.21l-.45 1.986c-1.02.216-1.76.459-2.2.729q-.675.405-1.2 1.216c-.35.54-.72 1.385-1.09 2.533-.38 1.148-.86 3.019-1.42 5.613l-6.93 31.449q-.525 2.39-.69 3.79a22 22 0 0 0-.16 2.533c0 1.215.3 2.073.91 2.573q.915.75 3.06.912l-.45 1.986h-16.21l.45-1.986q1.53-.244 2.31-.79.765-.548 1.29-1.52c.36-.649.68-1.439.98-2.371.29-.932.74-2.736 1.33-5.41l6.89-31.207q.9-4.052.9-6.524 0-1.905-.96-2.655c-.63-.5-1.64-.79-3.02-.871Z"/><text x="2951.3" y="604.736" fill-opacity="0" font-family="Arial,Arial_MSFontService,sans-serif" font-size="55.32">𝐼</text><path fill-rule="evenodd" d="M2984.99 589.863h28.65l-2.08 9.293h-3.19q-.15-1.728-.3-2.904c-.1-.784-.28-1.415-.55-1.891a2.33 2.33 0 0 0-1.12-1.028c-.47-.208-1.12-.313-1.93-.313h-10.34l-3.12 13.821h5.86q1.14 0 1.89-.179a3.6 3.6 0 0 0 1.36-.626c.4-.297.76-.7 1.09-1.206.32-.506.69-1.157 1.08-1.951h2.98l-2.65 11.408h-2.86c-.02-1.033-.06-1.842-.13-2.428q-.105-.878-.45-1.295c-.23-.278-.54-.442-.94-.492-.39-.049-.92-.074-1.58-.074h-6.31l-3.51 15.429h9.14c1.13 0 2.05-.09 2.75-.268a4.6 4.6 0 0 0 1.94-1.043q.885-.774 1.74-2.204c.58-.953 1.3-2.204 2.18-3.753h3.24l-2.68 10.335h-27.52l.33-1.816c.62-.1 1.12-.224 1.52-.373s.75-.437 1.06-.864c.3-.426.58-1.067.83-1.921.25-.853.54-2.045.88-3.574l4.88-21.713q.3-1.31.45-2.324.15-1.012.15-1.727 0-1.31-.69-1.862c-.45-.367-1.29-.561-2.5-.58Z"/><text x="2977.63" y="623.666" fill-opacity="0" font-family="Arial,Arial_MSFontService,sans-serif" font-size="38.631">𝐸</text><path fill-rule="evenodd" d="M2961.2 713.194h16.21l-.44 1.986c-1.03.216-1.77.459-2.21.729q-.675.406-1.2 1.216c-.35.541-.71 1.385-1.09 2.533-.38 1.149-.85 3.02-1.42 5.613l-6.93 31.45q-.525 2.391-.69 3.789a22 22 0 0 0-.16 2.533c0 1.216.3 2.073.91 2.573q.915.75 3.06.912l-.44 1.986h-16.22l.45-1.986q1.545-.243 2.31-.79c.51-.365.95-.871 1.3-1.52.35-.648.67-1.439.97-2.371s.74-2.735 1.34-5.41l6.89-31.206c.59-2.702.89-4.877.89-6.525 0-1.27-.32-2.155-.95-2.655-.64-.499-1.65-.79-3.02-.871Z"/><text x="2950.58" y="761.599" fill-opacity="0" font-family="Arial,Arial_MSFontService,sans-serif" font-size="55.32">𝐼</text><path fill-rule="evenodd" d="M2984.27 746.726h12.57l-.33 1.787q-1.035.269-1.65.462c-.41.129-.75.402-1.04.819q-.435.626-.78 1.862c-.22.824-.52 2.03-.87 3.619l-6.05 26.926h7.77c1.09 0 2.04-.095 2.83-.283.8-.189 1.53-.586 2.21-1.192q1.005-.909 1.95-2.576.93-1.668 2.07-4.438h3.27l-3.06 11.646h-26.24l.32-1.817a8 8 0 0 0 1.52-.372c.4-.149.75-.437 1.06-.864s.58-1.068.83-1.921c.25-.854.54-2.046.88-3.575l4.89-21.713c.19-.874.34-1.648.44-2.323q.15-1.012.15-1.728c0-.873-.23-1.494-.68-1.861-.46-.368-1.29-.561-2.5-.581Z"/><text x="2976.92" y="780.529" fill-opacity="0" font-family="Arial,Arial_MSFontService,sans-serif" font-size="38.631">𝐿</text><path fill-rule="evenodd" d="M2969.77 1017.79c-2.92 0-5.64 1.04-8.17 3.12-2.52 2.08-4.74 5.05-6.64 8.92q-2.865 5.79-4.44 12.72c-1.05 4.62-1.58 8.7-1.58 12.24 0 8.35 3.04 12.53 9.12 12.53 3.75 0 7.2-1.75 10.33-5.25 3.14-3.5 5.66-8.34 7.58-14.53s2.88-11.97 2.88-17.35c0-4.02-.74-7.1-2.23-9.22s-3.77-3.18-6.85-3.18m.45-3.57c5.21 0 9.23 1.52 12.05 4.54 2.83 3.03 4.24 7.41 4.24 13.13 0 3.79-.6 8.02-1.79 12.69-1.18 4.67-2.82 8.8-4.9 12.38s-4.49 6.46-7.23 8.65c-2.75 2.19-5.72 3.7-8.94 4.54q.93 2.955 1.74 4.89.81 1.92 1.56 3.12c.5.79 1 1.39 1.48 1.78.49.39.98.65 1.46.79.49.14 1.06.2 1.7.2 1.03 0 2.07-.29 3.12-.89 1.06-.59 2.23-1.62 3.53-3.08l2.11 2.27c-2.16 2.35-4.18 4.01-6.04 4.99-1.87.97-3.78 1.45-5.76 1.45q-3.36 0-5.49-1.5c-1.42-.99-2.64-2.59-3.69-4.78-1.04-2.19-2.04-5.05-3.01-8.59q-7.335-.405-11.19-4.86c-2.57-2.97-3.85-7.16-3.85-12.57 0-4.05.68-8.63 2.05-13.73 1.36-5.11 3.33-9.62 5.91-13.52q3.87-5.85 9.24-8.88c3.58-2.01 7.48-3.02 11.7-3.02"/><text x="2941.32" y="1076.74" fill-opacity="0" font-family="Arial,Arial_MSFontService,sans-serif" font-size="71.45">𝑄</text><path fill-rule="evenodd" d="M2998.13 1048.41h28.66l-2.09 9.29h-3.19c-.1-1.15-.2-2.12-.29-2.91-.1-.78-.29-1.41-.56-1.89-.26-.47-.64-.82-1.11-1.02-.48-.21-1.12-.32-1.94-.32h-10.33l-3.13 13.82h5.87q1.125 0 1.89-.18c.5-.11.96-.32 1.35-.62.4-.3.76-.7 1.09-1.21.33-.5.69-1.15 1.09-1.95h2.98l-2.66 11.41h-2.85c-.02-1.03-.07-1.84-.14-2.43-.07-.58-.22-1.02-.45-1.29-.22-.28-.54-.45-.93-.5-.4-.05-.93-.07-1.58-.07h-6.32l-3.51 15.43h9.14q1.695 0 2.76-.27c.7-.18 1.35-.53 1.93-1.04.59-.52 1.17-1.25 1.75-2.21.57-.95 1.3-2.2 2.17-3.75h3.25l-2.68 10.34h-27.53l.33-1.82c.62-.1 1.12-.22 1.52-.37s.75-.44 1.06-.87c.31-.42.58-1.06.83-1.92.25-.85.54-2.04.88-3.57l4.89-21.71c.19-.88.34-1.65.44-2.33.1-.67.15-1.25.15-1.73 0-.87-.23-1.49-.68-1.86-.46-.36-1.29-.56-2.5-.58Z"/><text x="2990.77" y="1082.21" fill-opacity="0" font-family="Arial,Arial_MSFontService,sans-serif" font-size="38.631">𝐸</text><path fill-rule="evenodd" d="M2967.05 1166.37q-4.38 0-8.16 3.12c-2.53 2.08-4.75 5.05-6.65 8.92q-2.865 5.79-4.44 12.72c-1.05 4.62-1.58 8.7-1.58 12.24 0 8.35 3.04 12.52 9.12 12.52 3.75 0 7.2-1.74 10.33-5.24 3.14-3.5 5.66-8.35 7.58-14.53 1.92-6.19 2.88-11.97 2.88-17.35 0-4.02-.74-7.1-2.23-9.22s-3.77-3.18-6.85-3.18m.45-3.57c5.21 0 9.23 1.52 12.05 4.54 2.83 3.03 4.24 7.41 4.24 13.13 0 3.79-.6 8.01-1.78 12.69-1.19 4.67-2.83 8.8-4.91 12.38s-4.49 6.46-7.23 8.65-5.72 3.7-8.94 4.54c.62 1.97 1.2 3.6 1.74 4.88.54 1.29 1.06 2.33 1.56 3.13.5.79 1 1.39 1.48 1.78.49.39.98.65 1.46.79.49.13 1.06.2 1.71.2 1.02 0 2.06-.3 3.12-.89 1.05-.59 2.22-1.62 3.52-3.08l2.11 2.27c-2.16 2.35-4.18 4.01-6.04 4.98-1.86.98-3.78 1.46-5.75 1.46-2.25 0-4.08-.5-5.5-1.5-1.41-1-2.64-2.59-3.68-4.78s-2.05-5.05-3.02-8.59q-7.335-.405-11.19-4.86c-2.57-2.98-3.85-7.16-3.85-12.57 0-4.05.68-8.63 2.05-13.74 1.36-5.1 3.33-9.61 5.91-13.51 2.59-3.91 5.67-6.86 9.24-8.88 3.58-2.01 7.48-3.02 11.7-3.02"/><text x="2938.6" y="1225.32" fill-opacity="0" font-family="Arial,Arial_MSFontService,sans-serif" font-size="71.45">𝑄</text><path fill-rule="evenodd" d="M2995.41 1196.98h12.57l-.33 1.79c-.69.18-1.24.33-1.65.46s-.75.41-1.04.82q-.435.63-.78 1.86c-.22.83-.52 2.03-.87 3.62l-6.05 26.93h7.77c1.1 0 2.04-.1 2.83-.28.8-.19 1.53-.59 2.21-1.2.67-.6 1.32-1.46 1.95-2.57q.93-1.665 2.07-4.44h3.27l-3.06 11.65h-26.24l.32-1.82c.62-.1 1.13-.22 1.52-.37.4-.15.75-.44 1.06-.87.31-.42.59-1.06.83-1.92.25-.85.55-2.04.88-3.57l4.89-21.72c.2-.87.35-1.64.44-2.32.1-.67.15-1.25.15-1.73 0-.87-.22-1.49-.68-1.86s-1.29-.56-2.5-.58Z"/><text x="2988.06" y="1230.79" fill-opacity="0" font-family="Arial,Arial_MSFontService,sans-serif" font-size="38.631">𝐿</text><path fill-rule="evenodd" d="M3750.27 674.259h37.29l-2.8 12.442h-3.89c-.11-2.35-.31-4.12-.61-5.309s-.65-2.006-1.07-2.452a3.07 3.07 0 0 0-1.5-.891q-.87-.223-2.49-.223h-13.22l-4.62 21.236h7.74c1.92 0 3.39-.453 4.4-1.358q1.515-1.358 3.06-4.478h3.69l-3.65 15.563h-3.44c0-2.162-.14-3.628-.41-4.398s-.67-1.256-1.19-1.459c-.53-.202-1.48-.304-2.86-.304h-8.11l-5.18 23.385h11.99c1.6 0 2.86-.162 3.79-.487q1.395-.486 2.64-1.58c.82-.73 1.64-1.75 2.47-3.06q1.23-1.966 2.94-5.329h3.93l-3.57 14.022h-35.95l.45-1.986q1.545-.243 2.31-.79c.51-.365.94-.871 1.3-1.52.35-.648.67-1.439.97-2.371s.74-2.735 1.34-5.41l6.89-31.206c.59-2.702.89-4.877.89-6.525q0-1.905-.96-2.655c-.63-.499-1.64-.79-3.01-.871Z"/><text x="3739.65" y="722.664" fill-opacity="0" font-family="Arial,Arial_MSFontService,sans-serif" font-size="55.32">𝐸</text><path fill-rule="evenodd" d="M3754.76 1049.98h16.21l-.44 1.99c-1.03.21-1.77.46-2.21.73-.45.27-.85.67-1.2 1.21s-.71 1.39-1.09 2.53c-.38 1.15-.85 3.02-1.42 5.62l-8.67 39.51h9.97c1.81 0 3.23-.17 4.27-.53 1.04-.35 2.03-.99 2.96-1.92s1.85-2.2 2.74-3.79 1.79-3.58 2.71-5.96h3.93l-4.09 15.93h-34.29l.45-1.99c1.03-.16 1.8-.42 2.31-.79.51-.36.95-.87 1.3-1.52.35-.64.67-1.43.97-2.37.3-.93.74-2.73 1.34-5.41l6.89-31.2c.59-2.71.89-4.88.89-6.53 0-1.27-.32-2.15-.95-2.65-.64-.5-1.65-.79-3.02-.87Z"/><text x="3744.14" y="1098.38" fill-opacity="0" font-family="Arial,Arial_MSFontService,sans-serif" font-size="55.32">𝐿</text><path fill-rule="evenodd" d="M4044.15 1535.86c-4.19 1.78-7.53 4.79-10.03 9.01q-3.75 6.345-3.75 14.25c0 6.3 2.77 9.44 8.31 9.44 2.18 0 4.14-.73 5.87-2.19 1.73-1.45 3.09-3.5 4.07-6.14.99-2.63 1.48-5.42 1.48-8.36 0-3.19-.44-6.04-1.33-8.54-.89-2.49-2.44-4.99-4.62-7.47m4.17-22.94c2.35 0 4.7.41 7.03 1.23 2.34.83 4.95 2.28 7.84 4.36l-1.37 6.49h-3.73c-.95-2.98-2.28-5.2-3.99-6.67-1.72-1.47-3.78-2.21-6.18-2.21-1.81 0-3.25.47-4.32 1.4s-1.6 2.14-1.6 3.63c0 .78.17 1.56.53 2.35.35.78 1.01 1.83 1.98 3.14s2.47 3.15 4.5 5.53c2.46 2.94 4.24 5.36 5.35 7.25s1.91 3.81 2.41 5.74.75 4.1.75 6.5q0 5.025-2.37 9.81c-1.58 3.19-3.84 5.7-6.79 7.54-2.94 1.84-6.35 2.75-10.21 2.75-3.43 0-6.27-.56-8.51-1.7q-3.36-1.695-4.89-4.62c-1.01-1.94-1.52-4.19-1.52-6.73 0-5.72 1.61-10.74 4.81-15.05s7.93-7.78 14.2-10.4q-3.195-3.6-4.68-6.24c-.99-1.75-1.48-3.42-1.48-4.98 0-1.7.47-3.24 1.42-4.62s2.35-2.47 4.21-3.29c1.87-.81 4.07-1.21 6.61-1.21"/><text x="4023.23" y="1564.41" fill-opacity="0" font-family="Arial,Arial_MSFontService,sans-serif" font-size="58.846">𝛿</text><path fill-rule="evenodd" d="M4115.7 1561.54c-1.21 0-2.33.36-3.35 1.09-1.02.72-2.12 1.76-3.29 3.11-.54.64-1.03 1.26-1.49 1.88-.46.61-.87 1.28-1.24 2.01-.36.72-.69 1.53-.98 2.41s-.54 1.9-.76 3.05c-.28 1.37-.5 2.52-.65 3.46-.16.93-.24 1.81-.24 2.65 0 1.61.37 2.74 1.11 3.41.75.66 1.95 1 3.59 1 1.16 0 2.23-.26 3.24-.76 1-.51 1.91-1.2 2.72-2.07.81-.88 1.54-1.89 2.17-3.06.64-1.16 1.17-2.4 1.6-3.72s.75-2.67.98-4.06.34-2.74.34-4.06c0-2.12-.29-3.71-.87-4.76-.59-1.05-1.55-1.58-2.88-1.58m-13.82-3.99c1.45 0 2.58.48 3.38 1.44.81.97 1.21 2.23 1.21 3.8 0 .46-.04.89-.11 1.31s-.19.84-.37 1.25l.42.21c1.94-2.72 3.86-4.73 5.73-6.04 1.88-1.32 3.85-1.97 5.91-1.97 2.37 0 4.18.85 5.44 2.56s1.89 4.2 1.89 7.48c0 2.86-.44 5.55-1.32 8.08-.89 2.54-2.08 4.75-3.59 6.66s-3.26 3.41-5.26 4.51-4.11 1.66-6.33 1.66c-1.55 0-2.89-.16-4.04-.47-1.14-.3-2.09-.68-2.84-1.11-.18.77-.37 1.58-.58 2.41s-.41 1.64-.6 2.41c-.19.78-.34 1.49-.46 2.15-.12.65-.18 1.18-.18 1.58 0 .35.06.65.17.89s.3.44.59.59c.29.16.67.29 1.15.38s1.07.16 1.79.22l-.09 1.97h-10.49l7.27-31.04c.24-1.09.41-2.01.51-2.74s.15-1.39.15-1.97c0-1.45-.59-2.17-1.76-2.17-.36 0-.72.07-1.07.22-.36.15-.74.38-1.15.67-.41.3-.85.68-1.34 1.14-.49.45-1.03.99-1.62 1.6l-2.06-1.93c.99-1 1.9-1.85 2.73-2.58.82-.72 1.61-1.32 2.38-1.79.76-.46 1.51-.81 2.23-1.04.73-.23 1.5-.34 2.31-.34m-18.95 0c1.45 0 2.8.08 4.04.24s2.52.4 3.85.74l-1.66 7.3h-3.52c-.02-1.03-.09-1.89-.22-2.58q-.195-1.02-.63-1.62c-.29-.4-.66-.68-1.13-.85s-1.04-.26-1.71-.28c-1.07 0-2.1.24-3.08.71-.99.48-1.9 1.14-2.75 1.98-.84.85-1.61 1.84-2.3 2.97a21.4 21.4 0 0 0-1.79 3.66c-.5 1.31-.88 2.68-1.15 4.1s-.4 2.83-.4 4.24c0 2.11.42 3.71 1.25 4.81q1.26 1.65 3.75 1.65c.94 0 1.8-.08 2.6-.25.79-.17 1.56-.45 2.32-.85q1.125-.6 2.34-1.56c.8-.65 1.69-1.45 2.66-2.4.38.4.74.79 1.09 1.18.35.38.71.78 1.09 1.17-2.15 2.23-4.29 3.88-6.44 4.96-2.14 1.08-4.44 1.63-6.91 1.63-3.07 0-5.43-.9-7.07-2.7s-2.46-4.36-2.46-7.7c0-1.87.21-3.67.63-5.41.41-1.73 1.02-3.37 1.8-4.89.78-1.53 1.72-2.92 2.81-4.17 1.1-1.26 2.32-2.33 3.67-3.24q2.025-1.35 4.38-2.1c1.57-.49 3.21-.74 4.94-.74"/><text x="4064.7" y="1594.27" fill-opacity="0" font-family="Arial,Arial_MSFontService,sans-serif" font-size="41.967">𝑐𝑝</text></g></svg>