<svg width="4519" height="1763" xmlns="http://www.w3.org/2000/svg" xmlns:xlink="http://www.w3.org/1999/xlink" overflow="hidden"><defs><clipPath id="clip0"><rect x="-73" y="471" width="4519" height="1763"/></clipPath></defs><g clip-path="url(#clip0)" transform="translate(73 -471)"><rect x="439" y="1393" width="216" height="428" fill="#D74514"/><text fill="#FFFFFF" font-family="Microsoft YaHei,Microsoft YaHei_MSFontService,sans-serif" font-weight="700" font-size="83" transform="matrix(1 0 0 1 521.157 1538)">1<tspan font-size="83" x="0" y="198">1</tspan></text><path d="M693.5 2018C693.5 1997.84 709.618 1981.5 729.5 1981.5 749.382 1981.5 765.5 1997.84 765.5 2018 765.5 2038.16 749.382 2054.5 729.5 2054.5 709.618 2054.5 693.5 2038.16 693.5 2018Z" stroke="#D74514" stroke-width="9.16667" stroke-miterlimit="8" fill="none" fill-rule="evenodd"/><path d="M729.5 1266.5 729.5 1981.64" stroke="#000000" stroke-width="9.16667" stroke-miterlimit="8" fill="none" fill-rule="evenodd"/><path d="M700 1607C700 1590.98 712.984 1578 729 1578 745.016 1578 758 1590.98 758 1607 758 1623.02 745.016 1636 729 1636 712.984 1636 700 1623.02 700 1607Z" fill-rule="evenodd"/><path d="M655.5 1607.5 700.865 1607.5" stroke="#000000" stroke-width="9.16667" stroke-miterlimit="8" fill="none" fill-rule="evenodd"/><path d="M758.5 1607.5 807.878 1607.5" stroke="#000000" stroke-width="9.16667" stroke-miterlimit="8" fill="none" fill-rule="evenodd"/><text font-family="Microsoft YaHei,Microsoft YaHei_MSFontService,sans-serif" font-weight="400" font-size="83" transform="matrix(1 0 0 1 704.995 2150)">1</text><rect x="807" y="1393" width="217" height="428" fill="#D74514"/><text fill="#FFFFFF" font-family="Microsoft YaHei,Microsoft YaHei_MSFontService,sans-serif" font-weight="700" font-size="83" transform="matrix(1 0 0 1 889.98 1538)">2<tspan font-size="83" x="0" y="198">1</tspan></text><path d="M1062.5 2018C1062.5 1997.84 1078.62 1981.5 1098.5 1981.5 1118.38 1981.5 1134.5 1997.84 1134.5 2018 1134.5 2038.16 1118.38 2054.5 1098.5 2054.5 1078.62 2054.5 1062.5 2038.16 1062.5 2018Z" stroke="#D74514" stroke-width="9.16667" stroke-miterlimit="8" fill="none" fill-rule="evenodd"/><path d="M1098.5 1266.5 1098.5 1981.64" stroke="#000000" stroke-width="9.16667" stroke-miterlimit="8" fill="none" fill-rule="evenodd"/><path d="M1069 1607C1069 1590.98 1081.98 1578 1098 1578 1114.02 1578 1127 1590.98 1127 1607 1127 1623.02 1114.02 1636 1098 1636 1081.98 1636 1069 1623.02 1069 1607Z" fill-rule="evenodd"/><path d="M1024.5 1607.5 1069.87 1607.5" stroke="#000000" stroke-width="9.16667" stroke-miterlimit="8" fill="none" fill-rule="evenodd"/><path d="M1127.5 1607.5 1167.13 1607.5" stroke="#000000" stroke-width="9.16667" stroke-miterlimit="8" fill="none" fill-rule="evenodd"/><text font-family="Microsoft YaHei,Microsoft YaHei_MSFontService,sans-serif" font-weight="400" font-size="83" transform="matrix(1 0 0 1 1073.82 2150)">2</text><rect x="1166" y="1393" width="217" height="428" fill="#D74514"/><text fill="#FFFFFF" font-family="Microsoft YaHei,Microsoft YaHei_MSFontService,sans-serif" font-weight="700" font-size="83" transform="matrix(1 0 0 1 1249.06 1538)">3<tspan font-size="83" x="0" y="198">1</tspan></text><path d="M1421.5 2018C1421.5 1997.84 1437.62 1981.5 1457.5 1981.5 1477.38 1981.5 1493.5 1997.84 1493.5 2018 1493.5 2038.16 1477.38 2054.5 1457.5 2054.5 1437.62 2054.5 1421.5 2038.16 1421.5 2018Z" stroke="#D74514" stroke-width="9.16667" stroke-miterlimit="8" fill="none" fill-rule="evenodd"/><path d="M1457.5 1266.5 1457.5 1981.64" stroke="#000000" stroke-width="9.16667" stroke-miterlimit="8" fill="none" fill-rule="evenodd"/><path d="M1428 1607C1428 1590.98 1440.98 1578 1457 1578 1473.02 1578 1486 1590.98 1486 1607 1486 1623.02 1473.02 1636 1457 1636 1440.98 1636 1428 1623.02 1428 1607Z" fill-rule="evenodd"/><path d="M1383.5 1607.5 1428.87 1607.5" stroke="#000000" stroke-width="9.16667" stroke-miterlimit="8" fill="none" fill-rule="evenodd"/><path d="M1486.5 1607.5 1525.98 1607.5" stroke="#000000" stroke-width="9.16667" stroke-miterlimit="8" fill="none" fill-rule="evenodd"/><text font-family="Microsoft YaHei,Microsoft YaHei_MSFontService,sans-serif" font-weight="400" font-size="83" transform="matrix(1 0 0 1 1432.89 2150)">3</text><rect x="1525" y="1393" width="217" height="428" fill="#D74514"/><text fill="#FFFFFF" font-family="Microsoft YaHei,Microsoft YaHei_MSFontService,sans-serif" font-weight="700" font-size="83" transform="matrix(1 0 0 1 1607.98 1538)">4<tspan font-size="83" x="0" y="198">1</tspan></text><path d="M1780.5 2018C1780.5 1997.84 1796.62 1981.5 1816.5 1981.5 1836.38 1981.5 1852.5 1997.84 1852.5 2018 1852.5 2038.16 1836.38 2054.5 1816.5 2054.5 1796.62 2054.5 1780.5 2038.16 1780.5 2018Z" stroke="#D74514" stroke-width="9.16667" stroke-miterlimit="8" fill="none" fill-rule="evenodd"/><path d="M1816.5 1266.5 1816.5 1981.64" stroke="#000000" stroke-width="9.16667" stroke-miterlimit="8" fill="none" fill-rule="evenodd"/><path d="M1787 1607C1787 1590.98 1799.98 1578 1816 1578 1832.02 1578 1845 1590.98 1845 1607 1845 1623.02 1832.02 1636 1816 1636 1799.98 1636 1787 1623.02 1787 1607Z" fill-rule="evenodd"/><path d="M1742.5 1607.5 1787.87 1607.5" stroke="#000000" stroke-width="9.16667" stroke-miterlimit="8" fill="none" fill-rule="evenodd"/><path d="M1845.5 1607.5 1894.88 1607.5" stroke="#000000" stroke-width="9.16667" stroke-miterlimit="8" fill="none" fill-rule="evenodd"/><text font-family="Microsoft YaHei,Microsoft YaHei_MSFontService,sans-serif" font-weight="400" font-size="83" transform="matrix(1 0 0 1 1791.81 2150)">4</text><rect x="1894" y="1393" width="216" height="428" fill="#D74514"/><text fill="#FFFFFF" font-family="Microsoft YaHei,Microsoft YaHei_MSFontService,sans-serif" font-weight="700" font-size="83" transform="matrix(1 0 0 1 1976.8 1538)">5<tspan font-size="83" x="0" y="198">1</tspan></text><path d="M2149.5 2018C2149.5 1997.84 2165.62 1981.5 2185.5 1981.5 2205.38 1981.5 2221.5 1997.84 2221.5 2018 2221.5 2038.16 2205.38 2054.5 2185.5 2054.5 2165.62 2054.5 2149.5 2038.16 2149.5 2018Z" stroke="#D74514" stroke-width="9.16667" stroke-miterlimit="8" fill="none" fill-rule="evenodd"/><path d="M2185.5 1266.5 2185.5 1981.64" stroke="#000000" stroke-width="9.16667" stroke-miterlimit="8" fill="none" fill-rule="evenodd"/><path d="M2156 1607C2156 1590.98 2168.98 1578 2185 1578 2201.02 1578 2214 1590.98 2214 1607 2214 1623.02 2201.02 1636 2185 1636 2168.98 1636 2156 1623.02 2156 1607Z" fill-rule="evenodd"/><path d="M2110.5 1607.5 2155.87 1607.5" stroke="#000000" stroke-width="9.16667" stroke-miterlimit="8" fill="none" fill-rule="evenodd"/><path d="M2214.5 1607.5 2254.13 1607.5" stroke="#000000" stroke-width="9.16667" stroke-miterlimit="8" fill="none" fill-rule="evenodd"/><text font-family="Microsoft YaHei,Microsoft YaHei_MSFontService,sans-serif" font-weight="400" font-size="83" transform="matrix(1 0 0 1 2160.64 2150)">5</text><rect x="2253" y="1393" width="216" height="428" fill="#D74514"/><text fill="#FFFFFF" font-family="Microsoft YaHei,Microsoft YaHei_MSFontService,sans-serif" font-weight="700" font-size="83" transform="matrix(1 0 0 1 2335.88 1538)">6<tspan font-size="83" x="0" y="198">1</tspan></text><path d="M2508.5 2018C2508.5 1997.84 2524.62 1981.5 2544.5 1981.5 2564.38 1981.5 2580.5 1997.84 2580.5 2018 2580.5 2038.16 2564.38 2054.5 2544.5 2054.5 2524.62 2054.5 2508.5 2038.16 2508.5 2018Z" stroke="#D74514" stroke-width="9.16667" stroke-miterlimit="8" fill="none" fill-rule="evenodd"/><path d="M2544.5 1266.5 2544.5 1981.64" stroke="#000000" stroke-width="9.16667" stroke-miterlimit="8" fill="none" fill-rule="evenodd"/><path d="M2515 1607C2515 1590.98 2527.98 1578 2544 1578 2560.02 1578 2573 1590.98 2573 1607 2573 1623.02 2560.02 1636 2544 1636 2527.98 1636 2515 1623.02 2515 1607Z" fill-rule="evenodd"/><path d="M2469.5 1607.5 2514.87 1607.5" stroke="#000000" stroke-width="9.16667" stroke-miterlimit="8" fill="none" fill-rule="evenodd"/><path d="M2573.5 1607.5 2612.74 1607.5" stroke="#000000" stroke-width="9.16667" stroke-miterlimit="8" fill="none" fill-rule="evenodd"/><text font-family="Microsoft YaHei,Microsoft YaHei_MSFontService,sans-serif" font-weight="400" font-size="83" transform="matrix(1 0 0 1 2519.71 2150)">6</text><rect x="2612" y="1393" width="216" height="428" fill="#D74514"/><text fill="#FFFFFF" font-family="Microsoft YaHei,Microsoft YaHei_MSFontService,sans-serif" font-weight="700" font-size="83" transform="matrix(1 0 0 1 2694.56 1538)">7<tspan font-size="83" x="0" y="198">1</tspan></text><path d="M2866.5 2018C2866.5 1997.84 2882.84 1981.5 2903 1981.5 2923.16 1981.5 2939.5 1997.84 2939.5 2018 2939.5 2038.16 2923.16 2054.5 2903 2054.5 2882.84 2054.5 2866.5 2038.16 2866.5 2018Z" stroke="#D74514" stroke-width="9.16667" stroke-miterlimit="8" fill="none" fill-rule="evenodd"/><path d="M2902.5 1266.5 2902.5 1981.64" stroke="#000000" stroke-width="9.16667" stroke-miterlimit="8" fill="none" fill-rule="evenodd"/><path d="M2874 1607C2874 1590.98 2886.76 1578 2902.5 1578 2918.24 1578 2931 1590.98 2931 1607 2931 1623.02 2918.24 1636 2902.5 1636 2886.76 1636 2874 1623.02 2874 1607Z" fill-rule="evenodd"/><path d="M2828.5 1607.5 2873.86 1607.5" stroke="#000000" stroke-width="9.16667" stroke-miterlimit="8" fill="none" fill-rule="evenodd"/><path d="M2931.5 1607.5 2980.88 1607.5" stroke="#000000" stroke-width="9.16667" stroke-miterlimit="8" fill="none" fill-rule="evenodd"/><text font-family="Microsoft YaHei,Microsoft YaHei_MSFontService,sans-serif" font-weight="400" font-size="83" transform="matrix(1 0 0 1 2878.4 2150)">7</text><rect x="2981" y="1393" width="216" height="428" fill="#D74514"/><text fill="#FFFFFF" font-family="Microsoft YaHei,Microsoft YaHei_MSFontService,sans-serif" font-weight="700" font-size="83" transform="matrix(1 0 0 1 3063.39 1538)">8<tspan font-size="83" x="0" y="198">1</tspan></text><path d="M3235.5 2018C3235.5 1997.84 3251.62 1981.5 3271.5 1981.5 3291.38 1981.5 3307.5 1997.84 3307.5 2018 3307.5 2038.16 3291.38 2054.5 3271.5 2054.5 3251.62 2054.5 3235.5 2038.16 3235.5 2018Z" stroke="#D74514" stroke-width="9.16667" stroke-miterlimit="8" fill="none" fill-rule="evenodd"/><path d="M3271.5 1266.5 3271.5 1981.64" stroke="#000000" stroke-width="9.16667" stroke-miterlimit="8" fill="none" fill-rule="evenodd"/><path d="M3242 1607C3242 1590.98 3254.98 1578 3271 1578 3287.02 1578 3300 1590.98 3300 1607 3300 1623.02 3287.02 1636 3271 1636 3254.98 1636 3242 1623.02 3242 1607Z" fill-rule="evenodd"/><path d="M3197.5 1607.5 3242.87 1607.5" stroke="#000000" stroke-width="9.16667" stroke-miterlimit="8" fill="none" fill-rule="evenodd"/><path d="M3300.5 1607.5 3340.13 1607.5" stroke="#000000" stroke-width="9.16667" stroke-miterlimit="8" fill="none" fill-rule="evenodd"/><text font-family="Microsoft YaHei,Microsoft YaHei_MSFontService,sans-serif" font-weight="400" font-size="83" transform="matrix(1 0 0 1 3247.22 2150)">8</text><rect x="3340" y="1393" width="216" height="428" fill="#D74514"/><text fill="#FFFFFF" font-family="Microsoft YaHei,Microsoft YaHei_MSFontService,sans-serif" font-weight="700" font-size="83" transform="matrix(1 0 0 1 3422.46 1538)">9<tspan font-size="83" x="0" y="198">1</tspan></text><path d="M3594.5 2018C3594.5 1997.84 3610.62 1981.5 3630.5 1981.5 3650.38 1981.5 3666.5 1997.84 3666.5 2018 3666.5 2038.16 3650.38 2054.5 3630.5 2054.5 3610.62 2054.5 3594.5 2038.16 3594.5 2018Z" stroke="#D74514" stroke-width="9.16667" stroke-miterlimit="8" fill="none" fill-rule="evenodd"/><path d="M3630.5 1266.5 3630.5 1981.64" stroke="#000000" stroke-width="9.16667" stroke-miterlimit="8" fill="none" fill-rule="evenodd"/><path d="M3601 1607C3601 1590.98 3613.98 1578 3630 1578 3646.02 1578 3659 1590.98 3659 1607 3659 1623.02 3646.02 1636 3630 1636 3613.98 1636 3601 1623.02 3601 1607Z" fill-rule="evenodd"/><path d="M3556.5 1607.5 3601.87 1607.5" stroke="#000000" stroke-width="9.16667" stroke-miterlimit="8" fill="none" fill-rule="evenodd"/><path d="M3659.5 1607.5 3698.98 1607.5" stroke="#000000" stroke-width="9.16667" stroke-miterlimit="8" fill="none" fill-rule="evenodd"/><text font-family="Microsoft YaHei,Microsoft YaHei_MSFontService,sans-serif" font-weight="400" font-size="83" transform="matrix(1 0 0 1 3606.3 2150)">9</text><rect x="3699" y="1393" width="216" height="428" fill="#D74514"/><text fill="#FFFFFF" font-family="Microsoft YaHei,Microsoft YaHei_MSFontService,sans-serif" font-weight="700" font-size="83" transform="matrix(1 0 0 1 3755.89 1538)">10<tspan font-size="83" x="25.4832" y="198">1</tspan></text><path d="M3953.5 2018C3953.5 1997.84 3969.62 1981.5 3989.5 1981.5 4009.38 1981.5 4025.5 1997.84 4025.5 2018 4025.5 2038.16 4009.38 2054.5 3989.5 2054.5 3969.62 2054.5 3953.5 2038.16 3953.5 2018Z" stroke="#D74514" stroke-width="9.16667" stroke-miterlimit="8" fill="none" fill-rule="evenodd"/><path d="M3989.5 1266.5 3989.5 1981.64" stroke="#000000" stroke-width="9.16667" stroke-miterlimit="8" fill="none" fill-rule="evenodd"/><path d="M3960 1607C3960 1590.98 3972.98 1578 3989 1578 4005.02 1578 4018 1590.98 4018 1607 4018 1623.02 4005.02 1636 3989 1636 3972.98 1636 3960 1623.02 3960 1607Z" fill-rule="evenodd"/><path d="M3915.5 1607.5 3960.87 1607.5" stroke="#000000" stroke-width="9.16667" stroke-miterlimit="8" fill="none" fill-rule="evenodd"/><path d="M4018.5 1607.5 4368.63 1607.5" stroke="#000000" stroke-width="9.16667" stroke-miterlimit="8" fill="none" fill-rule="evenodd"/><text font-family="Microsoft YaHei,Microsoft YaHei_MSFontService,sans-serif" font-weight="400" font-size="83" transform="matrix(1 0 0 1 3941.16 2150)">10</text><path d="M4368.5 1607.5C4368.5 1587.62 4384.84 1571.5 4405 1571.5 4425.16 1571.5 4441.5 1587.62 4441.5 1607.5 4441.5 1627.38 4425.16 1643.5 4405 1643.5 4384.84 1643.5 4368.5 1627.38 4368.5 1607.5Z" stroke="#D74514" stroke-width="9.16667" stroke-miterlimit="8" fill="none" fill-rule="evenodd"/><text font-family="Microsoft YaHei,Microsoft YaHei_MSFontService,sans-serif" font-weight="400" font-size="83" transform="matrix(1 0 0 1 4043.75 1572)">Output</text><path d="M-68.4999 1607.5C-68.4999 1587.62-52.3822 1571.5-32.5 1571.5-12.6178 1571.5 3.49993 1587.62 3.49993 1607.5 3.49993 1627.38-12.6178 1643.5-32.5 1643.5-52.3822 1643.5-68.4999 1627.38-68.4999 1607.5Z" stroke="#D74514" stroke-width="9.16667" stroke-miterlimit="8" fill="none" fill-rule="evenodd"/><path d="M3.49993 1607.5 439.117 1607.5" stroke="#000000" stroke-width="9.16667" stroke-miterlimit="8" fill="none" fill-rule="evenodd"/><path d="M330.5 2018C330.5 1997.84 346.618 1981.5 366.5 1981.5 386.382 1981.5 402.5 1997.84 402.5 2018 402.5 2038.16 386.382 2054.5 366.5 2054.5 346.618 2054.5 330.5 2038.16 330.5 2018Z" stroke="#D74514" stroke-width="9.16667" stroke-miterlimit="8" fill="none" fill-rule="evenodd"/><path d="M0 0 0.000360892 373.461" stroke="#000000" stroke-width="9.16667" stroke-miterlimit="8" fill="none" fill-rule="evenodd" transform="matrix(-1 0 0 1 366.5 1608.5)"/><text font-family="Microsoft YaHei,Microsoft YaHei_MSFontService,sans-serif" font-weight="400" font-size="83" transform="matrix(1 0 0 1 341.549 2150)">0<tspan font-size="83" x="-275.73" y="-587">Input</tspan></text><rect x="2009" y="558" width="340" height="313" fill="#F8CCB9"/><path d="M2073.5 708.5C2073.5 651.063 2119.84 604.5 2177 604.5 2234.16 604.5 2280.5 651.063 2280.5 708.5 2280.5 765.938 2234.16 812.5 2177 812.5 2119.84 812.5 2073.5 765.938 2073.5 708.5Z" stroke="#D74514" stroke-width="9.16667" stroke-miterlimit="8" fill="#FDEFE8" fill-rule="evenodd"/><path d="M0 0 207.629 0.000360892" stroke="#D74514" stroke-width="9.16667" stroke-miterlimit="8" fill="none" fill-rule="evenodd" transform="matrix(-1 0 0 1 2281.13 708.5)"/><path d="M0 0 0.000360892 207.629" stroke="#D74514" stroke-width="9.16667" stroke-miterlimit="8" fill="none" fill-rule="evenodd" transform="matrix(1 0 0 -1 2177.5 812.13)"/><path d="M2175.35 558.5 2175.35 475.997 2179.94 480.58 366.5 480.58 371.083 475.997 371.083 1567.05 361.917 1567.05 361.917 471.414 2184.52 471.414 2184.52 558.5ZM389.417 1562.47 366.5 1608.3 343.583 1562.47Z"/><path d="M2.19883-4.02145 689.422 371.735 685.025 379.778-2.19883 4.02145ZM694.196 353.45 723.416 395.546 672.208 393.665Z" transform="matrix(1 0 0 -1 1456.5 1267.05)"/><path d="M3988.76 1271.52 2218.82 884.784 2220.78 875.828 3990.71 1262.57ZM2219.38 903.672 2179.5 871.5 2229.17 858.895Z"/><path d="M3518.83 670.674 3521.06 670.674C3520.9 673.268 3520.82 676.861 3520.82 681.455L3520.82 716.065C3520.82 717.632 3520.91 718.814 3521.08 719.611 3521.26 720.408 3521.57 721.057 3522.01 721.556 3522.46 722.056 3523.1 722.448 3523.94 722.732 3524.78 723.015 3525.83 723.231 3527.1 723.38 3528.37 723.529 3530.04 723.63 3532.13 723.684L3532.13 726.643 3502.18 726.643 3502.18 723.684C3505.17 723.549 3507.32 723.367 3508.6 723.137 3509.88 722.907 3510.86 722.563 3511.54 722.103 3512.21 721.644 3512.71 720.996 3513.02 720.158 3513.33 719.321 3513.48 717.956 3513.48 716.065L3513.48 683.197C3513.48 682.116 3513.29 681.326 3512.92 680.826 3512.54 680.327 3511.98 680.077 3511.25 680.077 3510.39 680.077 3509.16 680.522 3507.57 681.414 3505.97 682.306 3504 683.535 3501.65 685.102L3499.87 681.981Z" fill-rule="evenodd"/><text fill="#000000" fill-opacity="0" font-family="Arial,Arial_MSFontService,sans-serif" font-size="55.9683" x="3499.87" y="719.646">1</text><path d="M3584.94 676.875 3590.7 676.875 3590.7 700.219 3612.79 700.219 3612.79 705.609 3590.7 705.609 3590.7 728.953 3584.94 728.953 3584.94 705.609 3562.86 705.609 3562.86 700.219 3584.94 700.219Z" fill-rule="evenodd"/><text fill="#000000" fill-opacity="0" font-family="Arial,Arial_MSFontService,sans-serif" font-size="52.0776" x="3562.86" y="722.443">+</text><path d="M3653.03 687.209C3653.87 687.209 3654.61 687.304 3655.24 687.493 3655.88 687.682 3656.44 687.973 3656.93 688.364 3657.41 688.756 3657.84 689.263 3658.22 689.884 3658.6 690.506 3658.97 691.35 3659.32 692.417 3659.67 693.484 3660 694.808 3660.31 696.389 3660.62 697.969 3660.9 699.611 3661.14 701.313L3661.55 701.313C3664.14 697.665 3666.1 694.997 3667.44 693.309 3668.78 691.62 3669.91 690.364 3670.83 689.54 3671.75 688.716 3672.63 688.135 3673.48 687.797 3674.33 687.459 3675.46 687.29 3676.86 687.29 3678.13 687.29 3679.18 687.453 3679.99 687.777L3678.36 695.112 3675.53 695.112C3675.37 693.977 3674.89 693.41 3674.11 693.41 3673.87 693.41 3673.61 693.451 3673.34 693.532 3673.07 693.613 3672.74 693.788 3672.35 694.059 3671.95 694.329 3671.38 694.856 3670.62 695.639 3669.87 696.423 3669.02 697.382 3668.07 698.517 3667.12 699.651 3666.15 700.84 3665.15 702.083L3662.4 705.528C3662.88 708.122 3663.34 710.364 3663.77 712.255 3664.21 714.147 3664.59 715.72 3664.93 716.977 3665.27 718.233 3665.56 719.226 3665.82 719.956 3666.08 720.685 3666.35 721.232 3666.65 721.597 3666.95 721.962 3667.25 722.218 3667.56 722.367 3667.87 722.516 3668.23 722.59 3668.64 722.59 3669.37 722.59 3670.08 722.306 3670.77 721.739 3671.45 721.171 3672.45 719.888 3673.74 717.889L3676.38 719.631C3674.49 722.441 3672.78 724.42 3671.25 725.569 3669.73 726.717 3667.91 727.291 3665.8 727.291 3664.64 727.291 3663.65 727.082 3662.84 726.663 3662.03 726.244 3661.33 725.575 3660.74 724.657 3660.14 723.738 3659.61 722.306 3659.15 720.361 3658.32 716.902 3657.8 714.255 3657.61 712.417L3657.21 712.417C3654.35 716.443 3652.22 719.334 3650.83 721.09 3649.43 722.846 3648.29 724.143 3647.38 724.981 3646.48 725.818 3645.6 726.406 3644.75 726.744 3643.9 727.082 3642.77 727.25 3641.36 727.25 3640.09 727.25 3639.05 727.088 3638.24 726.764L3639.86 719.429 3642.7 719.429C3642.86 720.563 3643.34 721.131 3644.12 721.131 3644.5 721.131 3644.9 721.029 3645.31 720.827 3645.73 720.624 3646.33 720.138 3647.12 719.368 3647.9 718.598 3648.98 717.389 3650.36 715.741 3651.74 714.093 3653.74 711.62 3656.36 708.324 3655.95 706.19 3655.53 704.136 3655.1 702.164 3654.67 700.192 3654.22 698.354 3653.76 696.652 3653.31 694.95 3652.93 693.836 3652.63 693.309 3652.33 692.782 3652.01 692.417 3651.68 692.215 3651.34 692.012 3650.91 691.911 3650.4 691.911 3649.83 691.911 3649.32 692.039 3648.86 692.296 3648.4 692.552 3647.9 692.998 3647.36 693.633 3646.82 694.268 3646.1 695.261 3645.21 696.612L3642.58 694.869C3644.28 692.302 3645.92 690.384 3647.48 689.114 3649.05 687.844 3650.9 687.209 3653.03 687.209Z" fill-rule="evenodd"/><text fill="#000000" fill-opacity="0" font-family="Arial,Arial_MSFontService,sans-serif" font-size="40.0815" x="3638.24" y="722.281">ğ‘¥</text><path d="M3703.38 657.867C3704.97 657.867 3706.45 658.035 3707.83 658.373 3709.21 658.711 3710.41 659.222 3711.42 659.907 3712.43 660.592 3713.22 661.446 3713.79 662.468 3714.35 663.491 3714.64 664.677 3714.64 666.028 3714.64 667.299 3714.46 668.42 3714.1 669.393 3713.74 670.366 3713.19 671.25 3712.45 672.044 3711.7 672.839 3710.79 673.558 3709.71 674.204 3708.62 674.849 3707.38 675.47 3705.97 676.065L3705.97 676.423C3707.3 676.661 3708.54 677.043 3709.69 677.569 3710.84 678.096 3711.85 678.761 3712.72 679.565 3713.58 680.369 3714.26 681.298 3714.76 682.35 3715.25 683.402 3715.5 684.564 3715.5 685.835 3715.5 687.423 3715.2 688.898 3714.61 690.258 3714.01 691.618 3713.12 692.795 3711.93 693.787 3710.73 694.78 3709.27 695.555 3707.52 696.111 3705.77 696.667 3703.73 696.945 3701.38 696.945 3699.54 696.945 3697.66 696.761 3695.75 696.394 3693.85 696.026 3692.04 695.545 3690.33 694.949L3690.33 688.516 3694.17 688.516C3694.49 689.508 3694.87 690.357 3695.31 691.062 3695.74 691.767 3696.25 692.343 3696.84 692.79 3697.43 693.236 3698.1 693.559 3698.87 693.758 3699.63 693.956 3700.5 694.056 3701.47 694.056 3704.03 694.056 3705.97 693.445 3707.29 692.224 3708.62 691.003 3709.28 689.151 3709.28 686.669 3709.28 684.028 3708.41 682.027 3706.67 680.667 3704.93 679.307 3702.36 678.627 3698.94 678.627L3696.32 678.627 3696.32 675.767C3698.4 675.668 3700.21 675.375 3701.72 674.889 3703.24 674.402 3704.51 673.772 3705.52 672.997 3706.54 672.223 3707.29 671.32 3707.79 670.287 3708.28 669.254 3708.53 668.152 3708.53 666.981 3708.53 665.075 3707.96 663.57 3706.83 662.468 3705.7 661.366 3704.06 660.815 3701.92 660.815 3700.11 660.815 3698.6 661.312 3697.38 662.305 3696.16 663.297 3695.22 664.777 3694.56 666.743L3690.78 666.743 3690.78 660.875C3693.12 659.882 3695.33 659.132 3697.41 658.626 3699.48 658.12 3701.47 657.867 3703.38 657.867Z" fill-rule="evenodd"/><text fill="#000000" fill-opacity="0" font-family="Arial,Arial_MSFontService,sans-serif" font-size="39.0781" x="3690.33" y="692.06">3</text><path d="M3770.48 676.875 3776.23 676.875 3776.23 700.219 3798.32 700.219 3798.32 705.609 3776.23 705.609 3776.23 728.953 3770.48 728.953 3770.48 705.609 3748.39 705.609 3748.39 700.219 3770.48 700.219Z" fill-rule="evenodd"/><text fill="#000000" fill-opacity="0" font-family="Arial,Arial_MSFontService,sans-serif" font-size="52.0776" x="3748.39" y="722.443">+</text><path d="M3838.57 687.209C3839.41 687.209 3840.14 687.304 3840.78 687.493 3841.41 687.682 3841.97 687.973 3842.46 688.364 3842.95 688.756 3843.38 689.263 3843.76 689.884 3844.13 690.506 3844.5 691.35 3844.85 692.417 3845.2 693.484 3845.53 694.808 3845.84 696.389 3846.15 697.969 3846.43 699.611 3846.67 701.313L3847.08 701.313C3849.67 697.665 3851.64 694.997 3852.98 693.309 3854.31 691.62 3855.44 690.364 3856.36 689.54 3857.28 688.716 3858.16 688.135 3859.01 687.797 3859.87 687.459 3860.99 687.29 3862.4 687.29 3863.67 687.29 3864.71 687.453 3865.52 687.777L3863.9 695.112 3861.06 695.112C3860.9 693.977 3860.43 693.41 3859.64 693.41 3859.4 693.41 3859.14 693.451 3858.87 693.532 3858.6 693.613 3858.27 693.788 3857.88 694.059 3857.49 694.329 3856.91 694.856 3856.16 695.639 3855.4 696.423 3854.55 697.382 3853.6 698.517 3852.66 699.651 3851.69 700.84 3850.69 702.083L3847.93 705.528C3848.42 708.122 3848.88 710.364 3849.31 712.255 3849.74 714.147 3850.13 715.72 3850.46 716.977 3850.8 718.233 3851.1 719.226 3851.35 719.956 3851.61 720.685 3851.89 721.232 3852.19 721.597 3852.48 721.962 3852.79 722.218 3853.1 722.367 3853.41 722.516 3853.77 722.59 3854.17 722.59 3854.9 722.59 3855.61 722.306 3856.3 721.739 3856.99 721.171 3857.98 719.888 3859.28 717.889L3861.91 719.631C3860.02 722.441 3858.31 724.42 3856.79 725.569 3855.26 726.717 3853.44 727.291 3851.33 727.291 3850.17 727.291 3849.19 727.082 3848.38 726.663 3847.57 726.244 3846.86 725.575 3846.27 724.657 3845.67 723.738 3845.15 722.306 3844.69 720.361 3843.85 716.902 3843.34 714.255 3843.15 712.417L3842.74 712.417C3839.88 716.443 3837.75 719.334 3836.36 721.09 3834.97 722.846 3833.82 724.143 3832.91 724.981 3832.01 725.818 3831.13 726.406 3830.28 726.744 3829.43 727.082 3828.3 727.25 3826.9 727.25 3825.63 727.25 3824.59 727.088 3823.78 726.764L3825.4 719.429 3828.23 719.429C3828.4 720.563 3828.87 721.131 3829.65 721.131 3830.03 721.131 3830.43 721.029 3830.85 720.827 3831.27 720.624 3831.87 720.138 3832.65 719.368 3833.43 718.598 3834.52 717.389 3835.89 715.741 3837.27 714.093 3839.27 711.62 3841.89 708.324 3841.49 706.19 3841.07 704.136 3840.64 702.164 3840.2 700.192 3839.76 698.354 3839.3 696.652 3838.84 694.95 3838.46 693.836 3838.16 693.309 3837.87 692.782 3837.55 692.417 3837.21 692.215 3836.87 692.012 3836.45 691.911 3835.93 691.911 3835.37 691.911 3834.85 692.039 3834.39 692.296 3833.93 692.552 3833.43 692.998 3832.89 693.633 3832.35 694.268 3831.64 695.261 3830.75 696.612L3828.11 694.869C3829.81 692.302 3831.45 690.384 3833.02 689.114 3834.58 687.844 3836.43 687.209 3838.57 687.209Z" fill-rule="evenodd"/><text fill="#000000" fill-opacity="0" font-family="Arial,Arial_MSFontService,sans-serif" font-size="40.0815" x="3823.78" y="722.281">ğ‘¥</text><path d="M3922.09 660.756C3920.7 660.756 3919.54 661.118 3918.6 661.843 3917.67 662.568 3916.93 663.63 3916.38 665.03 3915.84 666.43 3915.45 668.138 3915.22 670.153 3914.99 672.168 3914.88 674.457 3914.88 677.018 3914.88 679.977 3915.02 682.534 3915.31 684.688 3915.6 686.843 3916.05 688.615 3916.65 690.005 3917.26 691.395 3918.02 692.417 3918.93 693.073 3919.84 693.728 3920.94 694.056 3922.21 694.056 3923.4 694.056 3924.44 693.748 3925.33 693.132 3926.23 692.517 3926.97 691.559 3927.55 690.258 3928.14 688.957 3928.58 687.309 3928.88 685.314 3929.18 683.318 3929.32 680.96 3929.32 678.24 3929.32 675.182 3929.16 672.551 3928.83 670.347 3928.51 668.142 3928.04 666.331 3927.45 664.911 3926.85 663.491 3926.1 662.444 3925.2 661.768 3924.3 661.093 3923.26 660.756 3922.09 660.756ZM3889.53 658.075 3891.35 658.075C3891.31 659.167 3891.28 660.145 3891.26 661.009 3891.24 661.873 3891.22 662.712 3891.21 663.526 3891.2 664.34 3891.2 665.144 3891.2 665.938L3891.2 688.575C3891.2 689.191 3891.22 689.722 3891.26 690.169 3891.3 690.615 3891.36 690.993 3891.45 691.3 3891.54 691.608 3891.66 691.871 3891.81 692.09 3891.96 692.308 3892.13 692.497 3892.33 692.656 3892.57 692.894 3892.89 693.078 3893.28 693.207 3893.68 693.336 3894.19 693.445 3894.8 693.534 3895.42 693.624 3896.16 693.693 3897.02 693.743 3897.88 693.792 3898.92 693.827 3900.13 693.847L3900.13 696.438 3876.51 696.438 3876.51 693.847C3877.69 693.807 3878.68 693.763 3879.49 693.713 3880.31 693.663 3881 693.594 3881.58 693.505 3882.15 693.415 3882.61 693.316 3882.96 693.207 3883.31 693.097 3883.61 692.963 3883.87 692.805 3884.15 692.626 3884.39 692.432 3884.59 692.224 3884.78 692.015 3884.94 691.752 3885.06 691.434 3885.18 691.117 3885.28 690.73 3885.34 690.273 3885.41 689.816 3885.45 689.25 3885.45 688.575L3885.45 667.219C3885.45 666.445 3885.3 665.899 3885 665.581 3884.7 665.263 3884.28 665.104 3883.72 665.104 3883.11 665.104 3882.19 665.422 3880.98 666.057 3879.77 666.693 3878.2 667.636 3876.28 668.887 3876.02 668.43 3875.78 667.974 3875.56 667.517 3875.34 667.06 3875.11 666.594 3874.88 666.117 3877.34 664.767 3879.77 663.422 3882.19 662.081 3884.6 660.741 3887.05 659.405 3889.53 658.075ZM3922.21 657.867C3924.57 657.867 3926.59 658.308 3928.27 659.192 3929.95 660.076 3931.32 661.337 3932.38 662.975 3933.44 664.613 3934.22 666.613 3934.72 668.976 3935.21 671.339 3935.46 674.01 3935.46 676.989 3935.46 683.601 3934.29 688.6 3931.95 691.985 3929.6 695.371 3926.21 697.064 3921.76 697.064 3917.35 697.064 3914.07 695.465 3911.93 692.268 3909.79 689.071 3908.71 684.226 3908.71 677.733 3908.71 674.338 3909.05 671.399 3909.71 668.917 3910.38 666.435 3911.31 664.375 3912.51 662.736 3913.71 661.098 3915.14 659.877 3916.79 659.073 3918.43 658.269 3920.24 657.867 3922.21 657.867Z" fill-rule="evenodd"/><text fill="#000000" fill-opacity="0" font-family="Arial,Arial_MSFontService,sans-serif" font-size="39.1973" x="3874.88" y="692.164">10</text><path d="M366.5 2182.92 3948.92 2182.92 3948.92 2192.08 366.5 2192.08ZM3944.34 2164.58 3990.17 2187.5 3944.34 2210.42Z" fill="#D74514"/></g></svg>