<svg width="2604" height="1877" xmlns="http://www.w3.org/2000/svg" xmlns:xlink="http://www.w3.org/1999/xlink" overflow="hidden"><defs><clipPath id="clip0"><rect x="635" y="324" width="2604" height="1877"/></clipPath></defs><g clip-path="url(#clip0)" transform="translate(-635 -324)"><rect x="635" y="1168" width="615" height="257" fill="#FDEFE8"/><text fill="#D74514" font-family="Microsoft YaHei,Microsoft YaHei_MSFontService,sans-serif" font-weight="700" font-size="83" transform="matrix(1 0 0 1 850.637 1326)">AOP</text><rect x="635" y="324" width="1276" height="790" fill="#FDEFE8"/><text fill="#D74514" font-family="Microsoft YaHei,Microsoft YaHei_MSFontService,sans-serif" font-weight="700" font-size="83" transform="matrix(1 0 0 1 749.315 443)">Data Access / Integration</text><rect x="706" y="502" width="544" height="148" fill="#D74514"/><text fill="#FFFFFF" font-family="Microsoft YaHei,Microsoft YaHei_MSFontService,sans-serif" font-weight="400" font-size="83" transform="matrix(1 0 0 1 876.694 606)">JDBC</text><rect x="1302" y="502" width="543" height="148" fill="#D74514"/><text fill="#FFFFFF" font-family="Microsoft YaHei,Microsoft YaHei_MSFontService,sans-serif" font-weight="400" font-size="83" transform="matrix(1 0 0 1 1472.71 606)">ORM</text><rect x="706" y="702" width="544" height="147" fill="#D74514"/><text fill="#FFFFFF" font-family="Microsoft YaHei,Microsoft YaHei_MSFontService,sans-serif" font-weight="400" font-size="83" transform="matrix(1 0 0 1 877.267 805)">OXM</text><rect x="1302" y="702" width="543" height="147" fill="#D74514"/><text fill="#FFFFFF" font-family="Microsoft YaHei,Microsoft YaHei_MSFontService,sans-serif" font-weight="400" font-size="83" transform="matrix(1 0 0 1 1493.04 805)">JMS</text><rect x="706" y="901" width="1138" height="148" fill="#D74514"/><text fill="#FFFFFF" font-family="Microsoft YaHei,Microsoft YaHei_MSFontService,sans-serif" font-weight="400" font-size="83" transform="matrix(1 0 0 1 1026.89 1005)">Transactions</text><rect x="1963" y="324" width="1276" height="789" fill="#FDEFE8"/><text fill="#D74514" font-family="Microsoft YaHei,Microsoft YaHei_MSFontService,sans-serif" font-weight="700" font-size="83" transform="matrix(1 0 0 1 2506.74 442)">Web</text><rect x="2034" y="502" width="543" height="247" fill="#D74514"/><text fill="#FFFFFF" font-family="Microsoft YaHei,Microsoft YaHei_MSFontService,sans-serif" font-weight="400" font-size="83" transform="matrix(1 0 0 1 2081.54 655)">WebSocket</text><rect x="2629" y="502" width="544" height="247" fill="#D74514"/><text fill="#FFFFFF" font-family="Microsoft YaHei,Microsoft YaHei_MSFontService,sans-serif" font-weight="400" font-size="83" transform="matrix(1 0 0 1 2766.64 655)">Servlet</text><rect x="2030" y="802" width="544" height="247" fill="#D74514"/><text fill="#FFFFFF" font-family="Microsoft YaHei,Microsoft YaHei_MSFontService,sans-serif" font-weight="400" font-size="83" transform="matrix(1 0 0 1 2210.41 955)">W<tspan font-size="83" x="84.2188" y="0">eb</tspan></text><rect x="2626" y="802" width="544" height="247" fill="#D74514"/><text fill="#FFFFFF" font-family="Microsoft YaHei,Microsoft YaHei_MSFontService,sans-serif" font-weight="400" font-size="83" transform="matrix(1 0 0 1 2765.46 955)">Portlet</text><rect x="1302" y="1168" width="609" height="257" fill="#FDEFE8"/><text fill="#D74514" font-family="Microsoft YaHei,Microsoft YaHei_MSFontService,sans-serif" font-weight="700" font-size="83" transform="matrix(1 0 0 1 1444.9 1326)">Aspects</text><rect x="1963" y="1168" width="610" height="257" fill="#FDEFE8"/><text fill="#D74514" font-family="Microsoft YaHei,Microsoft YaHei_MSFontService,sans-serif" font-weight="700" font-size="83" transform="matrix(1 0 0 1 2127.93 1276)">Instru<tspan font-size="83" x="244.063" y="0">-</tspan><tspan font-size="83" x="-75.3272" y="99">mentation</tspan></text><rect x="2629" y="1168" width="610" height="257" fill="#FDEFE8"/><text fill="#D74514" font-family="Microsoft YaHei,Microsoft YaHei_MSFontService,sans-serif" font-weight="700" font-size="83" transform="matrix(1 0 0 1 2709.32 1326)">Messaging</text><rect x="635" y="1489" width="2604" height="391" fill="#FDEFE8"/><text fill="#D74514" font-family="Microsoft YaHei,Microsoft YaHei_MSFontService,sans-serif" font-weight="700" font-size="83" transform="matrix(1 0 0 1 1626 1607)">Core Container</text><rect x="706" y="1667" width="568" height="147" fill="#D74514"/><text fill="#FFFFFF" font-family="Microsoft YaHei,Microsoft YaHei_MSFontService,sans-serif" font-weight="400" font-size="83" transform="matrix(1 0 0 1 873.233 1770)">Beans</text><rect x="1343" y="1667" width="568" height="147" fill="#D74514"/><text fill="#FFFFFF" font-family="Microsoft YaHei,Microsoft YaHei_MSFontService,sans-serif" font-weight="400" font-size="83" transform="matrix(1 0 0 1 1533.98 1770)">Core</text><rect x="1963" y="1667" width="569" height="147" fill="#D74514"/><text fill="#FFFFFF" font-family="Microsoft YaHei,Microsoft YaHei_MSFontService,sans-serif" font-weight="400" font-size="83" transform="matrix(1 0 0 1 2092.71 1770)">Context</text><rect x="2600" y="1667" width="569" height="147" fill="#D74514"/><text fill="#FFFFFF" font-family="Microsoft YaHei,Microsoft YaHei_MSFontService,sans-serif" font-weight="400" font-size="83" transform="matrix(1 0 0 1 2790.41 1770)">SpEL</text><rect x="635" y="1944" width="2604" height="257" fill="#FDEFE8"/><text fill="#D74514" font-family="Microsoft YaHei,Microsoft YaHei_MSFontService,sans-serif" font-weight="700" font-size="83" transform="matrix(1 0 0 1 1849.87 2102)">Test</text></g></svg>