<svg width="1983" height="1151" xmlns="http://www.w3.org/2000/svg" xmlns:xlink="http://www.w3.org/1999/xlink" overflow="hidden"><defs><clipPath id="clip0"><rect x="1034" y="283" width="1983" height="1151"/></clipPath></defs><g clip-path="url(#clip0)" transform="translate(-1034 -283)"><rect x="1748" y="1220" width="553" height="214" fill="#D74514"/><text fill="#FFFFFF" font-family="Microsoft YaHei,Microsoft YaHei_MSFontService,sans-serif" font-weight="400" font-size="83" transform="matrix(1 0 0 1 1943.39 1357)">Dao</text><rect x="1034" y="751" width="553" height="214" fill="#F8CCB9"/><text fill="#5D1709" font-family="Microsoft YaHei,Microsoft YaHei_MSFontService,sans-serif" font-weight="400" font-size="83" transform="matrix(1 0 0 1 1170.55 888)">Service</text><rect x="1749" y="751" width="553" height="214" fill="#F8CCB9"/><text fill="#5D1709" font-family="Microsoft YaHei,Microsoft YaHei_MSFontService,sans-serif" font-weight="400" font-size="83" transform="matrix(1 0 0 1 1885.55 888)">Service</text><rect x="2464" y="751" width="553" height="214" fill="#F8CCB9"/><text fill="#5D1709" font-family="Microsoft YaHei,Microsoft YaHei_MSFontService,sans-serif" font-weight="400" font-size="83" transform="matrix(1 0 0 1 2600.55 888)">Service</text><rect x="1748" y="283" width="553" height="214" fill="#FDEFE8"/><text fill="#5D1709" font-family="Microsoft YaHei,Microsoft YaHei_MSFontService,sans-serif" font-weight="400" font-size="83" transform="matrix(1 0 0 1 1826.23 419)">Controller</text><path d="M2027.94 497.484 2028.92 710.756 2022.04 710.788 2021.06 497.516ZM2048.38 706.083 2025.67 752.021 2002.54 706.294Z" fill="#5D1709"/><path d="M1.15448-3.23784 676.13 237.43 673.821 243.906-1.15448 3.23784ZM678.355 217.543 713.83 254.522 662.962 260.714Z" fill="#5D1709" transform="matrix(-1 0 0 1 2024.33 497.5)"/><path d="M2025.65 494.261 2702.95 734.969 2700.65 741.447 2023.35 500.739ZM2705.16 715.08 2740.67 752.021 2689.81 758.267Z" fill="#5D1709"/><path d="M3.43746-0.0158017 4.41786 213.256-2.45707 213.288-3.43746 0.0158017ZM23.8757 208.583 1.17001 254.522-21.9571 208.794Z" fill="#5D1709" transform="matrix(-1 0 0 1 2025.67 965.5)"/><rect x="1034" y="1220" width="553" height="214" fill="#D74514"/><text fill="#FFFFFF" font-family="Microsoft YaHei,Microsoft YaHei_MSFontService,sans-serif" font-weight="400" font-size="83" transform="matrix(1 0 0 1 1229.56 1357)">Dao</text><rect x="2464" y="1220" width="553" height="214" fill="#D74514"/><text fill="#FFFFFF" font-family="Microsoft YaHei,Microsoft YaHei_MSFontService,sans-serif" font-weight="400" font-size="83" transform="matrix(1 0 0 1 2659.56 1357)">Dao</text><path d="M1313.94 965.5 1313.94 1178.77 1307.06 1178.77 1307.06 965.5ZM1333.42 1174.19 1310.5 1220.02 1287.58 1174.19Z" fill="#5D1709"/><path d="M2743.94 965.5 2743.94 1178.77 2737.06 1178.77 2737.06 965.5ZM2763.42 1174.19 2740.5 1220.02 2717.58 1174.19Z" fill="#5D1709"/></g></svg>