<svg xmlns="http://www.w3.org/2000/svg" width="2900" height="1151" overflow="hidden"><defs><clipPath id="a"><path d="M574 283h2900v1151H574z"/></clipPath></defs><g clip-path="url(#a)" transform="translate(-574 -283)"><path fill="#d74514" d="M1748 1220h553v214h-553z"/><text fill="#fff" font-family="Microsoft YaHei,Microsoft YaHei_MSFontService,sans-serif" font-size="83" font-weight="400" transform="translate(1943.39 1357)">Dao</text><path fill="#f8ccb9" d="M1034 751h553v214h-553z"/><text fill="#5d1709" font-family="Microsoft YaHei,Microsoft YaHei_MSFontService,sans-serif" font-size="83" font-weight="400" transform="translate(1170.55 888)">Service</text><path fill="#fdefe8" d="M574 283h553v214H574z"/><text fill="#5d1709" font-family="Microsoft YaHei,Microsoft YaHei_MSFontService,sans-serif" font-size="83" font-weight="400" transform="translate(652.509 419)">Controller</text><path fill="#f8ccb9" d="M1749 751h553v214h-553z"/><text fill="#5d1709" font-family="Microsoft YaHei,Microsoft YaHei_MSFontService,sans-serif" font-size="83" font-weight="400" transform="translate(1885.55 888)">Service</text><path fill="#f8ccb9" d="M2464 751h553v214h-553z"/><text fill="#5d1709" font-family="Microsoft YaHei,Microsoft YaHei_MSFontService,sans-serif" font-size="83" font-weight="400" transform="translate(2600.55 888)">Service</text><path fill="#fdefe8" d="M1161 283h553v214h-553z"/><text fill="#5d1709" font-family="Microsoft YaHei,Microsoft YaHei_MSFontService,sans-serif" font-size="83" font-weight="400" transform="translate(1239.37 419)">Controller</text><path fill="#fdefe8" d="M1748 283h553v214h-553z"/><text fill="#5d1709" font-family="Microsoft YaHei,Microsoft YaHei_MSFontService,sans-serif" font-size="83" font-weight="400" transform="translate(1826.23 419)">Controller</text><path fill="#fdefe8" d="M2335 283h553v214h-553z"/><text fill="#5d1709" font-family="Microsoft YaHei,Microsoft YaHei_MSFontService,sans-serif" font-size="83" font-weight="400" transform="translate(2413.09 419)">Controller</text><path fill="#fdefe8" d="M2921 283h553v214h-553z"/><text fill="#5d1709" font-family="Microsoft YaHei,Microsoft YaHei_MSFontService,sans-serif" font-size="83" font-weight="400" transform="translate(2999.96 419)">Controller</text><path fill="#5d1709" d="M852.164 494.492 1275.97 729.04l-3.33 6.015-423.805-234.547Zm429.226 215.285 29 42.244-51.19-2.142Zm746.55-212.293.98 213.272-6.88.032-.98-213.272Zm20.44 208.599-22.71 45.938-23.13-45.727Zm-609.51-211.738 550.17 238.137-2.73 6.309-550.18-238.136Zm553.7 218.439 32.96 39.237-51.16 2.825Z"/><path fill="#5d1709" d="M851.228 494.14 1985.81 739.929l-1.46 6.719L849.772 500.859ZM1985.45 719.92l39.94 32.101-49.64 12.694Z"/><path fill="#5d1709" d="m3197.59 494.093-1846.68 249.01.92 6.814 1846.68-249.01ZM1352.86 723.186l-42.36 28.836 48.48 16.586Z"/><path fill="#5d1709" d="M2610.53 494.126 1350.32 740.727l1.32 6.747 1260.21-246.6ZM1351.08 720.73l-40.58 31.292 49.38 13.688Z"/><path fill="#5d1709" d="M2023.176 494.262 1348.2 734.93l2.309 6.476 674.975-240.668Zm-677.201 220.781-35.475 36.979 50.868 6.192Z"/><path fill="#5d1709" d="M1434.394 495.966 1325.84 713.575l6.152 3.069 108.554-217.61Zm-123.939 204.812.047 51.244 40.966-30.784ZM2609.82 494.347l-547.86 238.081 2.74 6.306 547.86-238.081ZM2058.4 712.736l-32.902 39.286 51.169 2.75Z"/><path fill="#5d1709" d="M3197.32 494.14 2065.08 739.913l1.46 6.719L3198.78 500.86ZM2065.43 719.905l-39.93 32.118 49.65 12.672Z"/><path fill="#5d1709" d="M850.959 494.093 2699.97 743.109l-.92 6.813L850.041 500.907ZM2698.03 723.192l42.36 28.829-48.48 16.595Z"/><path fill="#5d1709" d="M1438.16 494.126 2700.7 740.739l-1.31 6.748-1262.55-246.613Zm1261.78 226.617 40.59 31.278-49.37 13.705Z"/><path fill="#5d1709" d="m2025.65 494.261 677.3 240.708-2.3 6.478-677.3-240.708Zm679.51 220.819 35.51 36.941-50.86 6.246Z"/><path fill="#5d1709" d="m2614.56 495.943 110.63 217.745-6.13 3.114-110.62-217.745Zm125.92 204.836.33 51.242-41.19-30.482Z"/><path fill="#5d1709" d="m3196.379 494.496-421.504 234.469 3.342 6.008 421.504-234.469ZM2769.41 709.714l-28.913 42.308 51.194-2.254ZM1311.65 962.262l674.98 240.668-2.31 6.48-674.97-240.672Zm677.21 220.778 35.47 36.98-50.87 6.19Zm33.373-217.556-.98 213.272 6.874.032.98-213.272Zm-20.439 208.599 22.706 45.939 23.127-45.728Zm737.725-211.822-677.302 240.708 2.303 6.478 677.301-240.708Zm-679.506 220.819-35.513 36.942 50.861 6.245Z"/></g></svg>