<svg xmlns="http://www.w3.org/2000/svg" width="2604" height="1877" overflow="hidden"><defs><clipPath id="a"><path d="M635 324h2604v1877H635z"/></clipPath></defs><g clip-path="url(#a)" transform="translate(-635 -324)"><path fill="#fdefe8" d="M635 1168h615v257H635z"/><text fill="#d74514" font-family="Microsoft YaHei,Microsoft YaHei_MSFontService,sans-serif" font-size="83" font-weight="700" transform="translate(850.637 1326)">AOP</text><path fill="#fdefe8" d="M635 324h1276v790H635z"/><text fill="#d74514" font-family="Microsoft YaHei,Microsoft YaHei_MSFontService,sans-serif" font-size="83" font-weight="700" transform="translate(749.315 443)">Data Access / Integration</text><path fill="#d74514" d="M706 502h544v148H706z"/><text fill="#fff" font-family="Microsoft YaHei,Microsoft YaHei_MSFontService,sans-serif" font-size="83" font-weight="400" transform="translate(876.694 606)">JDBC</text><path fill="#d74514" d="M1302 502h543v148h-543z"/><text fill="#fff" font-family="Microsoft YaHei,Microsoft YaHei_MSFontService,sans-serif" font-size="83" font-weight="400" transform="translate(1472.71 606)">ORM</text><path fill="#d74514" d="M706 702h544v147H706z"/><text fill="#fff" font-family="Microsoft YaHei,Microsoft YaHei_MSFontService,sans-serif" font-size="83" font-weight="400" transform="translate(877.267 805)">OXM</text><path fill="#d74514" d="M1302 702h543v147h-543z"/><text fill="#fff" font-family="Microsoft YaHei,Microsoft YaHei_MSFontService,sans-serif" font-size="83" font-weight="400" transform="translate(1493.04 805)">JMS</text><path fill="#d74514" d="M706 901h1138v148H706z"/><text fill="#fff" font-family="Microsoft YaHei,Microsoft YaHei_MSFontService,sans-serif" font-size="83" font-weight="400" transform="translate(1026.89 1005)">Transactions</text><path fill="#fdefe8" d="M1963 324h1276v789H1963z"/><text fill="#d74514" font-family="Microsoft YaHei,Microsoft YaHei_MSFontService,sans-serif" font-size="83" font-weight="700" transform="translate(2506.74 442)">Web</text><path fill="#d74514" d="M2034 502h543v247h-543z"/><text fill="#fff" font-family="Microsoft YaHei,Microsoft YaHei_MSFontService,sans-serif" font-size="83" font-weight="400" transform="translate(2081.54 655)">WebSocket</text><path fill="#d74514" d="M2629 502h544v247h-544z"/><text fill="#fff" font-family="Microsoft YaHei,Microsoft YaHei_MSFontService,sans-serif" font-size="83" font-weight="400" transform="translate(2766.64 655)">Servlet</text><path fill="#d74514" d="M2030 802h544v247h-544z"/><text fill="#fff" font-family="Microsoft YaHei,Microsoft YaHei_MSFontService,sans-serif" font-size="83" font-weight="400" transform="translate(2210.41 955)">W<tspan x="84.219" y="0">eb</tspan></text><path fill="#d74514" d="M2626 802h544v247h-544z"/><text fill="#fff" font-family="Microsoft YaHei,Microsoft YaHei_MSFontService,sans-serif" font-size="83" font-weight="400" transform="translate(2765.46 955)">Portlet</text><path fill="#fdefe8" d="M1302 1168h609v257h-609z"/><text fill="#d74514" font-family="Microsoft YaHei,Microsoft YaHei_MSFontService,sans-serif" font-size="83" font-weight="700" transform="translate(1444.9 1326)">Aspects</text><path fill="#fdefe8" d="M1963 1168h610v257h-610z"/><text fill="#d74514" font-family="Microsoft YaHei,Microsoft YaHei_MSFontService,sans-serif" font-size="83" font-weight="700" transform="translate(2127.93 1276)">Instru<tspan x="244.063" y="0">-</tspan><tspan x="-75.327" y="99">mentation</tspan></text><path fill="#fdefe8" d="M2629 1168h610v257h-610z"/><text fill="#d74514" font-family="Microsoft YaHei,Microsoft YaHei_MSFontService,sans-serif" font-size="83" font-weight="700" transform="translate(2709.32 1326)">Messaging</text><path fill="#fdefe8" d="M635 1489h2604v391H635z"/><text fill="#d74514" font-family="Microsoft YaHei,Microsoft YaHei_MSFontService,sans-serif" font-size="83" font-weight="700" transform="translate(1626 1607)">Core Container</text><path fill="#d74514" d="M706 1667h568v147H706z"/><text fill="#fff" font-family="Microsoft YaHei,Microsoft YaHei_MSFontService,sans-serif" font-size="83" font-weight="400" transform="translate(873.233 1770)">Beans</text><path fill="#d74514" d="M1343 1667h568v147h-568z"/><text fill="#fff" font-family="Microsoft YaHei,Microsoft YaHei_MSFontService,sans-serif" font-size="83" font-weight="400" transform="translate(1533.98 1770)">Core</text><path fill="#d74514" d="M1963 1667h569v147h-569z"/><text fill="#fff" font-family="Microsoft YaHei,Microsoft YaHei_MSFontService,sans-serif" font-size="83" font-weight="400" transform="translate(2092.71 1770)">Context</text><path fill="#d74514" d="M2600 1667h569v147h-569z"/><text fill="#fff" font-family="Microsoft YaHei,Microsoft YaHei_MSFontService,sans-serif" font-size="83" font-weight="400" transform="translate(2790.41 1770)">SpEL</text><path fill="#fdefe8" d="M635 1944h2604v257H635z"/><text fill="#d74514" font-family="Microsoft YaHei,Microsoft YaHei_MSFontService,sans-serif" font-size="83" font-weight="700" transform="translate(1849.87 2102)">Test</text></g></svg>