<svg xmlns="http://www.w3.org/2000/svg" width="3395" height="1932" overflow="hidden"><defs><clipPath id="a"><path d="M224 123h3395v1932H224z"/></clipPath></defs><g clip-path="url(#a)" transform="translate(-224 -123)"><path fill="#d74514" d="M2403 418h1216v148H2403z"/><text fill="#fff" font-family="Microsoft YaHei,Microsoft YaHei_MSFontService,sans-serif" font-size="73" font-weight="400" transform="translate(2533.41 519)">DefaultListableBeanFactory</text><path fill="#d74514" d="M2255 418h148v148h-148z"/><path fill="#fff" fill-rule="evenodd" d="M2276 492c0-28.719 23.51-52 52.5-52 29 0 52.5 23.281 52.5 52s-23.5 52-52.5 52c-28.99 0-52.5-23.281-52.5-52"/><path fill="#4472c4" fill-rule="evenodd" d="M2290 492c0-21.539 17.24-39 38.5-39s38.5 17.461 38.5 39-17.24 39-38.5 39-38.5-17.461-38.5-39"/><text fill="#fff" font-family="Arial,Arial_MSFontService,sans-serif" font-size="73" font-weight="700" transform="translate(2302.3 519)">C</text><path fill="#d74514" d="M2085 123h556v148h-556z"/><text fill="#fff" font-family="Microsoft YaHei,Microsoft YaHei_MSFontService,sans-serif" font-size="73" font-weight="400" transform="translate(2147.78 224)">BeanFactory</text><path fill="#d74514" d="M1937 123h148v148h-148z"/><path fill="#fff" fill-rule="evenodd" d="M1959 197.5c0-28.995 23.28-52.5 52-52.5s52 23.505 52 52.5-23.28 52.5-52 52.5-52-23.505-52-52.5"/><path fill="#70ad47" fill-rule="evenodd" d="M1972 197c0-21.539 17.46-39 39-39s39 17.461 39 39-17.46 39-39 39-39-17.461-39-39"/><text fill="#fff" font-family="Arial,Arial_MSFontService,sans-serif" font-size="73" font-weight="700" transform="translate(2000.89 224)">I</text><path fill="#d74514" d="M1315 420h829v148h-829z"/><text fill="#fff" font-family="Microsoft YaHei,Microsoft YaHei_MSFontService,sans-serif" font-size="73" font-weight="400" transform="translate(1391.8 521)">ApplicationContext</text><path fill="#d74514" d="M1167 420h148v148h-148z"/><path fill="#fff" fill-rule="evenodd" d="M1189 494c0-28.719 23.28-52 52-52s52 23.281 52 52-23.28 52-52 52-52-23.281-52-52"/><path fill="#70ad47" fill-rule="evenodd" d="M1202 494c0-21.539 17.46-39 39-39s39 17.461 39 39-17.46 39-39 39-39-17.461-39-39"/><text fill="#fff" font-family="Arial,Arial_MSFontService,sans-serif" font-size="73" font-weight="700" transform="translate(1230.7 521)">I</text><path fill="#d74514" d="M2593 713h1026v148H2593z"/><text fill="#fff" font-family="Microsoft YaHei,Microsoft YaHei_MSFontService,sans-serif" font-size="73" font-weight="400" transform="translate(2686.54 814)">WebApplicationContext</text><path fill="#d74514" d="M2451 713h148v148h-148z"/><path fill="#fff" fill-rule="evenodd" d="M2473 787.5c0-28.995 23.51-52.5 52.5-52.5 29 0 52.5 23.505 52.5 52.5s-23.5 52.5-52.5 52.5c-28.99 0-52.5-23.505-52.5-52.5"/><path fill="#70ad47" fill-rule="evenodd" d="M2487 787c0-21.539 17.24-39 38.5-39s38.5 17.461 38.5 39-17.24 39-38.5 39-38.5-17.461-38.5-39"/><text fill="#fff" font-family="Arial,Arial_MSFontService,sans-serif" font-size="73" font-weight="700" transform="translate(2515.12 814)">I</text><path fill="#d74514" d="M987 715h1342v147H987z"/><text fill="#fff" font-family="Microsoft YaHei,Microsoft YaHei_MSFontService,sans-serif" font-size="73" font-weight="400" transform="translate(1092.75 816)">ConfigurableApplicationContext</text><path fill="#d74514" d="M839 715h148v147H839z"/><path fill="#fff" fill-rule="evenodd" d="M861 788.5c0-28.995 23.281-52.5 52-52.5s52 23.505 52 52.5-23.281 52.5-52 52.5-52-23.505-52-52.5"/><path fill="#70ad47" fill-rule="evenodd" d="M874 788.5c0-21.263 17.461-38.5 39-38.5s39 17.237 39 38.5-17.461 38.5-39 38.5-39-17.237-39-38.5"/><text fill="#fff" font-family="Arial,Arial_MSFontService,sans-serif" font-size="73" font-weight="700" transform="translate(902.839 816)">I</text><path fill="#d74514" d="M1072 1011h1175v147H1072z"/><text fill="#fff" font-family="Microsoft YaHei,Microsoft YaHei_MSFontService,sans-serif" font-size="73" font-weight="400" transform="translate(1175.07 1111)">AbstractApplicationContext</text><path fill="#d74514" d="M922 1011h149v148H922z"/><path fill="#fff" fill-rule="evenodd" d="M944 1085c0-28.72 23.505-52 52.5-52 28.99 0 52.5 23.28 52.5 52s-23.51 52-52.5 52c-28.995 0-52.5-23.28-52.5-52"/><path fill="none" stroke="#4472c4" stroke-miterlimit="8" stroke-width="22.917" d="M944.5 1085.5h104.56m-52.56-52v104.56"/><path fill="#4472c4" fill-rule="evenodd" d="M958 1085c0-21.54 17.237-39 38.5-39 21.26 0 38.5 17.46 38.5 39s-17.24 39-38.5 39c-21.263 0-38.5-17.46-38.5-39"/><text fill="#fff" font-family="Arial,Arial_MSFontService,sans-serif" font-size="73" font-weight="700" transform="translate(970.125 1112)">C</text><path fill="#d74514" d="M1990 1302h1629v147H1990z"/><text fill="#fff" font-family="Microsoft YaHei,Microsoft YaHei_MSFontService,sans-serif" font-size="73" font-weight="400" transform="translate(2113.64 1403)">AbstractRefreshableApplicationContext</text><path fill="#d74514" d="M1841 1302h148v148h-148z"/><path fill="#fff" fill-rule="evenodd" d="M1863 1376.5c0-28.99 23.28-52.5 52-52.5s52 23.51 52 52.5-23.28 52.5-52 52.5-52-23.51-52-52.5"/><path fill="none" stroke="#4472c4" stroke-miterlimit="8" stroke-width="22.917" d="M1863.5 1376.5h104.56m-52.56-52v104.56"/><path fill="#4472c4" fill-rule="evenodd" d="M1876 1376c0-21.54 17.46-39 39-39s39 17.46 39 39-17.46 39-39 39-39-17.46-39-39"/><text fill="#fff" font-family="Arial,Arial_MSFontService,sans-serif" font-size="73" font-weight="700" transform="translate(1888.51 1403)">C</text><path fill="#d74514" d="M579 1302h1132v148H579z"/><text fill="#fff" font-family="Microsoft YaHei,Microsoft YaHei_MSFontService,sans-serif" font-size="73" font-weight="400" transform="translate(673.331 1403)">GenericApplicationContext</text><path fill="#d74514" d="M430 1302h148v147H430z"/><path fill="#fff" fill-rule="evenodd" d="M451 1375.5c0-28.99 23.505-52.5 52.5-52.5s52.5 23.51 52.5 52.5-23.505 52.5-52.5 52.5-52.5-23.51-52.5-52.5"/><path fill="#4472c4" fill-rule="evenodd" d="M465 1375.5c0-21.26 17.237-38.5 38.5-38.5s38.5 17.24 38.5 38.5-17.237 38.5-38.5 38.5-38.5-17.24-38.5-38.5"/><text fill="#fff" font-family="Arial,Arial_MSFontService,sans-serif" font-size="73" font-weight="700" transform="translate(477.204 1403)">C</text><path fill="#d74514" d="M372 1598h1547v147H372z"/><text fill="#fff" font-family="Microsoft YaHei,Microsoft YaHei_MSFontService,sans-serif" font-size="73" font-weight="400" transform="translate(493.788 1699)">AnnotationConfigApplicationContext</text><path fill="#d74514" d="M224 1598h148v147H224z"/><path fill="#fff" fill-rule="evenodd" d="M245 1671.5c0-28.99 23.505-52.5 52.5-52.5s52.5 23.51 52.5 52.5-23.505 52.5-52.5 52.5-52.5-23.51-52.5-52.5"/><path fill="#4472c4" fill-rule="evenodd" d="M259 1671.5c0-21.26 17.237-38.5 38.5-38.5s38.5 17.24 38.5 38.5-17.237 38.5-38.5 38.5-38.5-17.24-38.5-38.5"/><text fill="#fff" font-family="Arial,Arial_MSFontService,sans-serif" font-size="73" font-weight="700" transform="translate(271.21 1699)">C</text><path fill="#d74514" d="M2123 1595h1366v147H2123z"/><text fill="#fff" font-family="Microsoft YaHei,Microsoft YaHei_MSFontService,sans-serif" font-size="73" font-weight="400" transform="translate(2232.56 1696)">ClassPathXmlApplicationContext</text><path fill="#d74514" d="M1975 1595h148v147h-148z"/><path fill="#fff" fill-rule="evenodd" d="M1996 1668.5c0-28.99 23.51-52.5 52.5-52.5s52.5 23.51 52.5 52.5c0 29-23.51 52.5-52.5 52.5s-52.5-23.5-52.5-52.5"/><path fill="#4472c4" fill-rule="evenodd" d="M2010 1668.5c0-21.26 17.24-38.5 38.5-38.5s38.5 17.24 38.5 38.5-17.24 38.5-38.5 38.5-38.5-17.24-38.5-38.5"/><text fill="#fff" font-family="Arial,Arial_MSFontService,sans-serif" font-size="73" font-weight="700" transform="translate(2022.24 1696)">C</text><path fill="#d74514" d="M799 1893h1116v148H799z"/><text fill="#fff" font-family="Microsoft YaHei,Microsoft YaHei_MSFontService,sans-serif" font-size="73" font-weight="400" transform="translate(895.379 1994)">BeanFactoryPostProcessor</text><path fill="#d74514" d="M651 1893h148v148H651z"/><path fill="#fff" fill-rule="evenodd" d="M673 1967c0-28.72 23.281-52 52-52s52 23.28 52 52-23.281 52-52 52-52-23.28-52-52"/><path fill="#70ad47" fill-rule="evenodd" d="M686 1967c0-21.54 17.461-39 39-39s39 17.46 39 39-17.461 39-39 39-39-17.46-39-39"/><text fill="#fff" font-family="Arial,Arial_MSFontService,sans-serif" font-size="73" font-weight="700" transform="translate(714.497 1994)">I</text><path fill="#d74514" d="M2190 1891h821v148h-821z"/><text fill="#fff" font-family="Microsoft YaHei,Microsoft YaHei_MSFontService,sans-serif" font-size="73" font-weight="400" transform="translate(2267.55 1992)">BeanPostProcessor</text><path fill="#d74514" d="M2042 1891h148v148h-148z"/><path fill="#fff" fill-rule="evenodd" d="M2064 1965c0-28.72 23.28-52 52-52s52 23.28 52 52-23.28 52-52 52-52-23.28-52-52"/><path fill="#70ad47" fill-rule="evenodd" d="M2077 1965c0-21.54 17.46-39 39-39s39 17.46 39 39-17.46 39-39 39-39-17.46-39-39"/><text fill="#fff" font-family="Arial,Arial_MSFontService,sans-serif" font-size="73" font-weight="700" transform="translate(2105.64 1992)">I</text><path fill="#4472c4" d="M1140.92 1302.62v-76.64h518.92l-4.59 4.58v-30.81h9.17v35.39H1145.5l4.58-4.58v72.06Zm496-98.29 22.92-45.83 22.91 45.83Z"/><path fill="#4472c4" d="M2809.193 1302.01v-76.338H1659.5l4.59 4.583v-30.505h-9.17v35.088h1149.69l-4.583-4.583v71.755Zm-1126.773-97.677-22.92-45.833-22.91 45.833Zm-540.86 393.857-.46-106.42 9.16-.04.46 106.42Zm-18.78-101.76 22.72-45.93 23.11 45.73Zm1678.61 98.44-1.05-104.08 9.16-.09 1.06 104.08Zm-19.34-99.31 22.45-46.06 23.38 45.6Z"/><path fill="#70ad47" d="m1655.17 1010.82-.23-27.496 9.16-.077.23 27.503Zm-.31-36.662-.23-27.499 9.16-.078.23 27.499Zm-.31-36.666-.23-27.499 9.16-.077.24 27.499Zm-18.58-28.967 22.53-46.025 23.3 45.638Zm17.95-193.312v-77.94h76.19l-4.59 4.584V609.75h9.17v36.69h-76.19l4.58-4.583v73.356Zm53.27-100.88 22.92-45.833 22.91 45.833Z"/><path fill="#70ad47" d="M3111.463 714.017v-77.342H1730.5l4.58 4.583V609.75h-9.17v36.092h1380.97l-4.583-4.584v72.759ZM1753.41 614.333 1730.5 568.5l-22.92 45.833Zm-27.49-193.596v-79.202h638.25l-4.59 4.583V312.75h9.17v37.952H1730.5l4.58-4.584v74.619Zm615.33-103.403 22.92-45.834 22.91 45.834Z"/><path fill="#70ad47" d="M3015.533 418.608v-27.5h-9.166v27.5Zm0-36.667v-27.5h-9.166v27.5Zm0-36.666v-4.804h-31.862v9.166h27.279l-4.583-4.583v.22Zm-41.029-4.804h-27.5v9.166h27.5Zm-36.667 0h-27.5v9.166h27.5Zm-36.666 0h-27.5v9.166h27.5Zm-36.667 0h-27.5v9.166h27.5Zm-36.667 0h-27.5v9.166h27.5Zm-36.666 0h-27.5v9.166h27.5Zm-36.667 0h-27.5v9.166h27.5Zm-36.667 0h-27.5v9.166h27.5Zm-36.666 0h-27.5v9.166h27.5Zm-36.667 0h-27.5v9.166h27.5Zm-36.667 0h-27.5v9.166h27.5Zm-36.666 0h-27.5v9.166h27.5Zm-36.667 0h-27.5v9.166h27.5Zm-36.667 0h-27.5v9.166h27.5Zm-36.666 0h-27.5v9.166h27.5Zm-36.667 0h-27.5v9.166h27.5Zm-36.667 0H2363.5l4.583 4.583v-3.163h-9.166v7.746h28.92Zm-19.754-7.746V312.75h-9.166v19.975Zm18.334-15.392L2363.5 271.5l-22.917 45.833Z"/></g></svg>