<svg width="3395" height="1932" xmlns="http://www.w3.org/2000/svg" xmlns:xlink="http://www.w3.org/1999/xlink" overflow="hidden"><defs><clipPath id="clip0"><rect x="224" y="123" width="3395" height="1932"/></clipPath></defs><g clip-path="url(#clip0)" transform="translate(-224 -123)"><rect x="2403" y="418" width="1216" height="148" fill="#D74514"/><text fill="#FFFFFF" font-family="Microsoft YaHei,Microsoft YaHei_MSFontService,sans-serif" font-weight="400" font-size="73" transform="matrix(1 0 0 1 2533.41 519)">DefaultListableBeanFactory</text><rect x="2255" y="418" width="148" height="148" fill="#D74514"/><path d="M2276 492C2276 463.281 2299.51 440 2328.5 440 2357.5 440 2381 463.281 2381 492 2381 520.719 2357.5 544 2328.5 544 2299.51 544 2276 520.719 2276 492Z" fill="#FFFFFF" fill-rule="evenodd"/><path d="M2290 492C2290 470.461 2307.24 453 2328.5 453 2349.76 453 2367 470.461 2367 492 2367 513.539 2349.76 531 2328.5 531 2307.24 531 2290 513.539 2290 492Z" fill="#4472C4" fill-rule="evenodd"/><text fill="#FFFFFF" font-family="Arial,Arial_MSFontService,sans-serif" font-weight="700" font-size="73" transform="matrix(1 0 0 1 2302.3 519)">C</text><rect x="2085" y="123" width="556" height="148" fill="#D74514"/><text fill="#FFFFFF" font-family="Microsoft YaHei,Microsoft YaHei_MSFontService,sans-serif" font-weight="400" font-size="73" transform="matrix(1 0 0 1 2147.78 224)">BeanFactory</text><rect x="1937" y="123" width="148" height="148" fill="#D74514"/><path d="M1959 197.5C1959 168.505 1982.28 145 2011 145 2039.72 145 2063 168.505 2063 197.5 2063 226.495 2039.72 250 2011 250 1982.28 250 1959 226.495 1959 197.5Z" fill="#FFFFFF" fill-rule="evenodd"/><path d="M1972 197C1972 175.461 1989.46 158 2011 158 2032.54 158 2050 175.461 2050 197 2050 218.539 2032.54 236 2011 236 1989.46 236 1972 218.539 1972 197Z" fill="#70AD47" fill-rule="evenodd"/><text fill="#FFFFFF" font-family="Arial,Arial_MSFontService,sans-serif" font-weight="700" font-size="73" transform="matrix(1 0 0 1 2000.89 224)">I</text><rect x="1315" y="420" width="829" height="148" fill="#D74514"/><text fill="#FFFFFF" font-family="Microsoft YaHei,Microsoft YaHei_MSFontService,sans-serif" font-weight="400" font-size="73" transform="matrix(1 0 0 1 1391.8 521)">ApplicationContext</text><rect x="1167" y="420" width="148" height="148" fill="#D74514"/><path d="M1189 494C1189 465.281 1212.28 442 1241 442 1269.72 442 1293 465.281 1293 494 1293 522.719 1269.72 546 1241 546 1212.28 546 1189 522.719 1189 494Z" fill="#FFFFFF" fill-rule="evenodd"/><path d="M1202 494C1202 472.461 1219.46 455 1241 455 1262.54 455 1280 472.461 1280 494 1280 515.539 1262.54 533 1241 533 1219.46 533 1202 515.539 1202 494Z" fill="#70AD47" fill-rule="evenodd"/><text fill="#FFFFFF" font-family="Arial,Arial_MSFontService,sans-serif" font-weight="700" font-size="73" transform="matrix(1 0 0 1 1230.7 521)">I</text><rect x="2593" y="713" width="1026" height="148" fill="#D74514"/><text fill="#FFFFFF" font-family="Microsoft YaHei,Microsoft YaHei_MSFontService,sans-serif" font-weight="400" font-size="73" transform="matrix(1 0 0 1 2686.54 814)">WebApplicationContext</text><rect x="2451" y="713" width="148" height="148" fill="#D74514"/><path d="M2473 787.5C2473 758.505 2496.51 735 2525.5 735 2554.5 735 2578 758.505 2578 787.5 2578 816.495 2554.5 840 2525.5 840 2496.51 840 2473 816.495 2473 787.5Z" fill="#FFFFFF" fill-rule="evenodd"/><path d="M2487 787C2487 765.461 2504.24 748 2525.5 748 2546.76 748 2564 765.461 2564 787 2564 808.539 2546.76 826 2525.5 826 2504.24 826 2487 808.539 2487 787Z" fill="#70AD47" fill-rule="evenodd"/><text fill="#FFFFFF" font-family="Arial,Arial_MSFontService,sans-serif" font-weight="700" font-size="73" transform="matrix(1 0 0 1 2515.12 814)">I</text><rect x="987" y="715" width="1342" height="147" fill="#D74514"/><text fill="#FFFFFF" font-family="Microsoft YaHei,Microsoft YaHei_MSFontService,sans-serif" font-weight="400" font-size="73" transform="matrix(1 0 0 1 1092.75 816)">ConfigurableApplicationContext</text><rect x="839" y="715" width="148" height="147" fill="#D74514"/><path d="M861 788.5C861 759.505 884.281 736 913 736 941.719 736 965 759.505 965 788.5 965 817.495 941.719 841 913 841 884.281 841 861 817.495 861 788.5Z" fill="#FFFFFF" fill-rule="evenodd"/><path d="M874 788.5C874 767.237 891.461 750 913 750 934.539 750 952 767.237 952 788.5 952 809.763 934.539 827 913 827 891.461 827 874 809.763 874 788.5Z" fill="#70AD47" fill-rule="evenodd"/><text fill="#FFFFFF" font-family="Arial,Arial_MSFontService,sans-serif" font-weight="700" font-size="73" transform="matrix(1 0 0 1 902.839 816)">I</text><rect x="1072" y="1011" width="1175" height="147" fill="#D74514"/><text fill="#FFFFFF" font-family="Microsoft YaHei,Microsoft YaHei_MSFontService,sans-serif" font-weight="400" font-size="73" transform="matrix(1 0 0 1 1175.07 1111)">AbstractApplicationContext</text><rect x="922" y="1011" width="149" height="148" fill="#D74514"/><path d="M944 1085C944 1056.28 967.505 1033 996.5 1033 1025.49 1033 1049 1056.28 1049 1085 1049 1113.72 1025.49 1137 996.5 1137 967.505 1137 944 1113.72 944 1085Z" fill="#FFFFFF" fill-rule="evenodd"/><path d="M944.5 1085.5 1049.06 1085.5" stroke="#4472C4" stroke-width="22.9167" stroke-miterlimit="8" fill="none" fill-rule="evenodd"/><path d="M996.5 1033.5 996.5 1138.06" stroke="#4472C4" stroke-width="22.9167" stroke-miterlimit="8" fill="none" fill-rule="evenodd"/><path d="M958 1085C958 1063.46 975.237 1046 996.5 1046 1017.76 1046 1035 1063.46 1035 1085 1035 1106.54 1017.76 1124 996.5 1124 975.237 1124 958 1106.54 958 1085Z" fill="#4472C4" fill-rule="evenodd"/><text fill="#FFFFFF" font-family="Arial,Arial_MSFontService,sans-serif" font-weight="700" font-size="73" transform="matrix(1 0 0 1 970.125 1112)">C</text><rect x="1990" y="1302" width="1629" height="147" fill="#D74514"/><text fill="#FFFFFF" font-family="Microsoft YaHei,Microsoft YaHei_MSFontService,sans-serif" font-weight="400" font-size="73" transform="matrix(1 0 0 1 2113.64 1403)">AbstractRefreshableApplicationContext</text><rect x="1841" y="1302" width="148" height="148" fill="#D74514"/><path d="M1863 1376.5C1863 1347.51 1886.28 1324 1915 1324 1943.72 1324 1967 1347.51 1967 1376.5 1967 1405.49 1943.72 1429 1915 1429 1886.28 1429 1863 1405.49 1863 1376.5Z" fill="#FFFFFF" fill-rule="evenodd"/><path d="M1863.5 1376.5 1968.06 1376.5" stroke="#4472C4" stroke-width="22.9167" stroke-miterlimit="8" fill="none" fill-rule="evenodd"/><path d="M1915.5 1324.5 1915.5 1429.06" stroke="#4472C4" stroke-width="22.9167" stroke-miterlimit="8" fill="none" fill-rule="evenodd"/><path d="M1876 1376C1876 1354.46 1893.46 1337 1915 1337 1936.54 1337 1954 1354.46 1954 1376 1954 1397.54 1936.54 1415 1915 1415 1893.46 1415 1876 1397.54 1876 1376Z" fill="#4472C4" fill-rule="evenodd"/><text fill="#FFFFFF" font-family="Arial,Arial_MSFontService,sans-serif" font-weight="700" font-size="73" transform="matrix(1 0 0 1 1888.51 1403)">C</text><rect x="579" y="1302" width="1132" height="148" fill="#D74514"/><text fill="#FFFFFF" font-family="Microsoft YaHei,Microsoft YaHei_MSFontService,sans-serif" font-weight="400" font-size="73" transform="matrix(1 0 0 1 673.331 1403)">GenericApplicationContext</text><rect x="430" y="1302" width="148" height="147" fill="#D74514"/><path d="M451 1375.5C451 1346.51 474.505 1323 503.5 1323 532.495 1323 556 1346.51 556 1375.5 556 1404.49 532.495 1428 503.5 1428 474.505 1428 451 1404.49 451 1375.5Z" fill="#FFFFFF" fill-rule="evenodd"/><path d="M465 1375.5C465 1354.24 482.237 1337 503.5 1337 524.763 1337 542 1354.24 542 1375.5 542 1396.76 524.763 1414 503.5 1414 482.237 1414 465 1396.76 465 1375.5Z" fill="#4472C4" fill-rule="evenodd"/><text fill="#FFFFFF" font-family="Arial,Arial_MSFontService,sans-serif" font-weight="700" font-size="73" transform="matrix(1 0 0 1 477.204 1403)">C</text><rect x="372" y="1598" width="1547" height="147" fill="#D74514"/><text fill="#FFFFFF" font-family="Microsoft YaHei,Microsoft YaHei_MSFontService,sans-serif" font-weight="400" font-size="73" transform="matrix(1 0 0 1 493.788 1699)">AnnotationConfigApplicationContext</text><rect x="224" y="1598" width="148" height="147" fill="#D74514"/><path d="M245 1671.5C245 1642.51 268.505 1619 297.5 1619 326.495 1619 350 1642.51 350 1671.5 350 1700.49 326.495 1724 297.5 1724 268.505 1724 245 1700.49 245 1671.5Z" fill="#FFFFFF" fill-rule="evenodd"/><path d="M259 1671.5C259 1650.24 276.237 1633 297.5 1633 318.763 1633 336 1650.24 336 1671.5 336 1692.76 318.763 1710 297.5 1710 276.237 1710 259 1692.76 259 1671.5Z" fill="#4472C4" fill-rule="evenodd"/><text fill="#FFFFFF" font-family="Arial,Arial_MSFontService,sans-serif" font-weight="700" font-size="73" transform="matrix(1 0 0 1 271.21 1699)">C</text><rect x="2123" y="1595" width="1366" height="147" fill="#D74514"/><text fill="#FFFFFF" font-family="Microsoft YaHei,Microsoft YaHei_MSFontService,sans-serif" font-weight="400" font-size="73" transform="matrix(1 0 0 1 2232.56 1696)">ClassPathXmlApplicationContext</text><rect x="1975" y="1595" width="148" height="147" fill="#D74514"/><path d="M1996 1668.5C1996 1639.51 2019.51 1616 2048.5 1616 2077.49 1616 2101 1639.51 2101 1668.5 2101 1697.5 2077.49 1721 2048.5 1721 2019.51 1721 1996 1697.5 1996 1668.5Z" fill="#FFFFFF" fill-rule="evenodd"/><path d="M2010 1668.5C2010 1647.24 2027.24 1630 2048.5 1630 2069.76 1630 2087 1647.24 2087 1668.5 2087 1689.76 2069.76 1707 2048.5 1707 2027.24 1707 2010 1689.76 2010 1668.5Z" fill="#4472C4" fill-rule="evenodd"/><text fill="#FFFFFF" font-family="Arial,Arial_MSFontService,sans-serif" font-weight="700" font-size="73" transform="matrix(1 0 0 1 2022.24 1696)">C</text><rect x="799" y="1893" width="1116" height="148" fill="#D74514"/><text fill="#FFFFFF" font-family="Microsoft YaHei,Microsoft YaHei_MSFontService,sans-serif" font-weight="400" font-size="73" transform="matrix(1 0 0 1 895.379 1994)">BeanFactoryPostProcessor</text><rect x="651" y="1893" width="148" height="148" fill="#D74514"/><path d="M673 1967C673 1938.28 696.281 1915 725 1915 753.719 1915 777 1938.28 777 1967 777 1995.72 753.719 2019 725 2019 696.281 2019 673 1995.72 673 1967Z" fill="#FFFFFF" fill-rule="evenodd"/><path d="M686 1967C686 1945.46 703.461 1928 725 1928 746.539 1928 764 1945.46 764 1967 764 1988.54 746.539 2006 725 2006 703.461 2006 686 1988.54 686 1967Z" fill="#70AD47" fill-rule="evenodd"/><text fill="#FFFFFF" font-family="Arial,Arial_MSFontService,sans-serif" font-weight="700" font-size="73" transform="matrix(1 0 0 1 714.497 1994)">I</text><rect x="2190" y="1891" width="821" height="148" fill="#D74514"/><text fill="#FFFFFF" font-family="Microsoft YaHei,Microsoft YaHei_MSFontService,sans-serif" font-weight="400" font-size="73" transform="matrix(1 0 0 1 2267.55 1992)">BeanPostProcessor</text><rect x="2042" y="1891" width="148" height="148" fill="#D74514"/><path d="M2064 1965C2064 1936.28 2087.28 1913 2116 1913 2144.72 1913 2168 1936.28 2168 1965 2168 1993.72 2144.72 2017 2116 2017 2087.28 2017 2064 1993.72 2064 1965Z" fill="#FFFFFF" fill-rule="evenodd"/><path d="M2077 1965C2077 1943.46 2094.46 1926 2116 1926 2137.54 1926 2155 1943.46 2155 1965 2155 1986.54 2137.54 2004 2116 2004 2094.46 2004 2077 1986.54 2077 1965Z" fill="#70AD47" fill-rule="evenodd"/><text fill="#FFFFFF" font-family="Arial,Arial_MSFontService,sans-serif" font-weight="700" font-size="73" transform="matrix(1 0 0 1 2105.64 1992)">I</text><path d="M1140.92 1302.62 1140.92 1225.98 1659.84 1225.98 1655.25 1230.56 1655.25 1199.75 1664.42 1199.75 1664.42 1235.14 1145.5 1235.14 1150.08 1230.56 1150.08 1302.62ZM1636.92 1204.33 1659.84 1158.5 1682.75 1204.33Z" fill="#4472C4"/><path d="M0-4.58333 76.3383-4.58333 76.3383 1145.11 71.755 1140.52 102.26 1140.52 102.26 1149.69 67.1716 1149.69 67.1716 0 71.755 4.58333 0 4.58333ZM97.6766 1122.19 143.51 1145.11 97.6766 1168.02Z" fill="#4472C4" transform="matrix(-1.83697e-16 -1 -1 1.83697e-16 2804.61 1302.01)"/><path d="M1141.56 1598.19 1141.1 1491.77 1150.26 1491.73 1150.72 1598.15ZM1122.78 1496.43 1145.5 1450.5 1168.61 1496.23Z" fill="#4472C4"/><path d="M2801.39 1594.87 2800.34 1490.79 2809.5 1490.7 2810.56 1594.78ZM2782.05 1495.56 2804.5 1449.5 2827.88 1495.1Z" fill="#4472C4"/><path d="M1655.17 1010.82 1654.94 983.324 1664.1 983.247 1664.33 1010.75ZM1654.86 974.158 1654.63 946.659 1663.79 946.581 1664.02 974.08ZM1654.55 937.492 1654.32 909.993 1663.48 909.916 1663.72 937.415ZM1635.97 908.525 1658.5 862.5 1681.8 908.138Z" fill="#70AD47"/><path d="M1653.92 715.213 1653.92 637.273 1730.11 637.273 1725.52 641.857 1725.52 609.75 1734.69 609.75 1734.69 646.44 1658.5 646.44 1663.08 641.857 1663.08 715.213ZM1707.19 614.333 1730.11 568.5 1753.02 614.333Z" fill="#70AD47"/><path d="M0-4.58333 77.3419-4.58333 77.3419 1376.38 72.7586 1371.8 104.267 1371.8 104.267 1380.97 68.1753 1380.97 68.1753 0 72.7586 4.58333 0 4.58333ZM99.6839 1353.47 145.517 1376.38 99.6839 1399.3Z" fill="#70AD47" transform="matrix(-1.83697e-16 -1 -1 1.83697e-16 3106.88 714.017)"/><path d="M1725.92 420.737 1725.92 341.535 2364.17 341.535 2359.58 346.118 2359.58 312.75 2368.75 312.75 2368.75 350.702 1730.5 350.702 1735.08 346.118 1735.08 420.737ZM2341.25 317.334 2364.17 271.5 2387.08 317.334Z" fill="#70AD47"/><path d="M0-4.58333 27.5-4.58333 27.5 4.58333 0 4.58333ZM36.6667-4.58333 64.1667-4.58333 64.1667 4.58333 36.6667 4.58333ZM73.3333-4.58333 78.1374-4.58333 78.1374 27.2793 68.9707 27.2793 68.9707 0 73.554 4.58333 73.3333 4.58333ZM78.1374 36.446 78.1374 63.946 68.9707 63.946 68.9707 36.446ZM78.1374 73.1126 78.1374 100.613 68.9707 100.613 68.9707 73.1126ZM78.1374 109.779 78.1374 137.279 68.9707 137.279 68.9707 109.779ZM78.1374 146.446 78.1374 173.946 68.9707 173.946 68.9707 146.446ZM78.1374 183.113 78.1374 210.613 68.9707 210.613 68.9707 183.113ZM78.1374 219.779 78.1374 247.279 68.9707 247.279 68.9707 219.779ZM78.1374 256.446 78.1374 283.946 68.9707 283.946 68.9707 256.446ZM78.1374 293.113 78.1374 320.613 68.9707 320.613 68.9707 293.113ZM78.1374 329.779 78.1374 357.279 68.9707 357.279 68.9707 329.779ZM78.1374 366.446 78.1374 393.946 68.9707 393.946 68.9707 366.446ZM78.1374 403.113 78.1374 430.613 68.9707 430.613 68.9707 403.113ZM78.1374 439.779 78.1374 467.279 68.9707 467.279 68.9707 439.779ZM78.1374 476.446 78.1374 503.946 68.9707 503.946 68.9707 476.446ZM78.1374 513.113 78.1374 540.613 68.9707 540.613 68.9707 513.113ZM78.1374 549.779 78.1374 577.279 68.9707 577.279 68.9707 549.779ZM78.1374 586.446 78.1374 613.946 68.9707 613.946 68.9707 586.446ZM78.1374 623.113 78.1374 647.45 73.554 642.867 76.7167 642.867 76.7167 652.033 68.9707 652.033 68.9707 623.113ZM85.8834 642.867 105.858 642.867 105.858 652.033 85.8834 652.033ZM101.275 624.533 147.108 647.45 101.275 670.367Z" fill="#70AD47" transform="matrix(-1.83697e-16 -1 -1 1.83697e-16 3010.95 418.608)"/></g></svg>