<svg xmlns="http://www.w3.org/2000/svg" width="2218" height="1763" overflow="hidden"><defs><clipPath id="a"><path d="M672 193h2218v1763H672z"/></clipPath></defs><g clip-path="url(#a)" transform="translate(-672 -193)"><path fill="#fdefe8" d="M672 193h762v1763H672z"/><path fill="#f0835c" d="M672 430h762v272H672z"/><text fill="#fff" font-family="Microsoft YaHei,Microsoft YaHei_MSFontService,sans-serif" font-size="83" font-weight="400" transform="translate(753.751 595)">建立<tspan x="189.635" y="0">TLS </tspan><tspan x="351.771" y="0">上下文</tspan><tspan x="90.234" y="-254" fill="#000" font-weight="700">TLS </tspan><tspan x="261.536" y="-254" fill="#000" font-weight="700">客户端</tspan><tspan x="77.916" y="315" fill="#d74514" font-family="Courier New,Courier New_MSFontService,sans-serif">c</tspan><tspan x="127.187" y="315" fill="#d74514" font-family="Courier New,Courier New_MSFontService,sans-serif">onnect()</tspan><tspan x="-20.625" y="878" fill="#d74514" font-family="Courier New,Courier New_MSFontService,sans-serif">SSL_c</tspan><tspan x="225.729" y="878" fill="#d74514" font-family="Courier New,Courier New_MSFontService,sans-serif">onnect</tspan><tspan x="521.354" y="878" fill="#d74514" font-family="Courier New,Courier New_MSFontService,sans-serif">()</tspan><tspan x="53.281" y="1144" fill="#d74514" font-family="Courier New,Courier New_MSFontService,sans-serif">SSL_read</tspan><tspan x="447.448" y="1144" fill="#d74514" font-family="Courier New,Courier New_MSFontService,sans-serif">()</tspan><tspan x="28.645" y="1243" fill="#d74514" font-family="Courier New,Courier New_MSFontService,sans-serif">SSL_write</tspan><tspan x="472.083" y="1243" fill="#d74514" font-family="Courier New,Courier New_MSFontService,sans-serif">(</tspan><tspan x="521.354" y="1243" fill="#d74514" font-family="Courier New,Courier New_MSFontService,sans-serif">)</tspan></text><path d="M1058.08 702.5v88.761h-9.16V702.5Zm18.34 84.178-22.92 45.833-22.92-45.833Zm-27.503 723.822v124.538h9.166V1510.5Zm-18.334 119.955 22.916 45.833 22.917-45.833Z"/><text font-family="Microsoft YaHei,Microsoft YaHei_MSFontService,sans-serif" font-size="83" font-weight="400" transform="translate(1609.74 843)">TCP <tspan x="177.604" y="0">握手</tspan></text><path d="M2086.55 881.917h-610.796v9.167h610.797Zm-4.583 27.5L2127.8 886.5l-45.833-22.917Zm-601.63-45.833-45.833 22.916 45.833 22.917Z"/><text font-family="Microsoft YaHei,Microsoft YaHei_MSFontService,sans-serif" font-size="83" font-weight="400" transform="translate(1621.99 1415)">TCP <tspan x="177.604" y="0">握手</tspan></text><path d="M2099.55 1454.917h-610.796v9.167h610.797Zm-4.583 27.5 45.833-22.917-45.833-22.917Zm-601.63-45.833-45.833 22.916 45.833 22.917Z"/><text font-family="Microsoft YaHei,Microsoft YaHei_MSFontService,sans-serif" font-size="83" font-weight="400" transform="translate(1539.49 1727)">TCP <tspan x="177.604" y="0">数据传输</tspan></text><path d="M2099.55 1765.917h-610.796v9.167h610.797Zm-4.583 27.5 45.833-22.917-45.833-22.917Zm-601.63-45.833-45.833 22.916 45.833 22.917Z"/><path fill="#fdefe8" d="M2128 193h762v1763h-762z"/><path fill="#f0835c" d="M2128 430h762v272h-762z"/><text fill="#fff" font-family="Microsoft YaHei,Microsoft YaHei_MSFontService,sans-serif" font-size="83" font-weight="400" transform="translate(2209.07 595)">建立<tspan x="189.636" y="0">TLS </tspan><tspan x="351.771" y="0">上下文</tspan><tspan x="90.234" y="-254" fill="#000" font-weight="700">TLS </tspan><tspan x="261.536" y="-254" fill="#000" font-weight="700">客户端</tspan><tspan x="102.552" y="315" fill="#d74514" font-family="Courier New,Courier New_MSFontService,sans-serif">accept()</tspan><tspan x="4.01" y="878" fill="#d74514" font-family="Courier New,Courier New_MSFontService,sans-serif">SSL_accept</tspan><tspan x="496.718" y="878" fill="#d74514" font-family="Courier New,Courier New_MSFontService,sans-serif">()</tspan><tspan x="53.281" y="1144" fill="#d74514" font-family="Courier New,Courier New_MSFontService,sans-serif">SSL_read</tspan><tspan x="447.448" y="1144" fill="#d74514" font-family="Courier New,Courier New_MSFontService,sans-serif">()</tspan><tspan x="28.645" y="1243" fill="#d74514" font-family="Courier New,Courier New_MSFontService,sans-serif">SSL_write</tspan><tspan x="472.083" y="1243" fill="#d74514" font-family="Courier New,Courier New_MSFontService,sans-serif">(</tspan><tspan x="521.354" y="1243" fill="#d74514" font-family="Courier New,Courier New_MSFontService,sans-serif">)</tspan></text><path d="M2514.08 702.5v88.761h-9.16V702.5Zm18.34 84.178-22.92 45.833-22.92-45.833Zm-27.503 723.822v124.538h9.166V1510.5Zm-18.334 119.955 22.916 45.833 22.917-45.833Z"/><path fill="#d74514" d="M672 1037h2218v272H672z"/><text fill="#fff" font-family="Courier New,Courier New_MSFontService,sans-serif" font-size="83" font-weight="400" transform="translate(1485.42 1197)">SSL_set_fd<tspan x="492.708" y="0">()</tspan></text><path d="M2514.08 949.5v395.94h-9.16V949.5Zm18.34 391.36-22.92 45.83-22.92-45.83ZM1058.08 949.5v395.94h-9.16V949.5Zm18.34 391.36-22.92 45.83-22.92-45.83Z"/></g></svg>