<svg width="2218" height="1763" xmlns="http://www.w3.org/2000/svg" xmlns:xlink="http://www.w3.org/1999/xlink" overflow="hidden"><defs><clipPath id="clip0"><rect x="672" y="193" width="2218" height="1763"/></clipPath></defs><g clip-path="url(#clip0)" transform="translate(-672 -193)"><rect x="672" y="193" width="762" height="1763" fill="#FDEFE8"/><rect x="672" y="430" width="762" height="272" fill="#F0835C"/><text fill="#FFFFFF" font-family="Microsoft YaHei,Microsoft YaHei_MSFontService,sans-serif" font-weight="400" font-size="83" transform="matrix(1 0 0 1 753.751 595)">建立<tspan font-size="83" x="189.635" y="0">TLS </tspan><tspan font-size="83" x="351.771" y="0">上下文</tspan><tspan fill="#000000" font-weight="700" font-size="83" x="90.2339" y="-254">TLS </tspan><tspan fill="#000000" font-weight="700" font-size="83" x="261.536" y="-254">客户端</tspan><tspan fill="#D74514" font-family="Courier New,Courier New_MSFontService,sans-serif" font-size="83" x="77.9163" y="315">c</tspan><tspan fill="#D74514" font-family="Courier New,Courier New_MSFontService,sans-serif" font-size="83" x="127.187" y="315">onnect()</tspan><tspan fill="#D74514" font-family="Courier New,Courier New_MSFontService,sans-serif" font-size="83" x="-20.6254" y="878">SSL_c</tspan><tspan fill="#D74514" font-family="Courier New,Courier New_MSFontService,sans-serif" font-size="83" x="225.729" y="878">onnect</tspan><tspan fill="#D74514" font-family="Courier New,Courier New_MSFontService,sans-serif" font-size="83" x="521.354" y="878">()</tspan><tspan fill="#D74514" font-family="Courier New,Courier New_MSFontService,sans-serif" font-size="83" x="53.2809" y="1144">SSL_read</tspan><tspan fill="#D74514" font-family="Courier New,Courier New_MSFontService,sans-serif" font-size="83" x="447.448" y="1144">()</tspan><tspan fill="#D74514" font-family="Courier New,Courier New_MSFontService,sans-serif" font-size="83" x="28.6455" y="1243">SSL_write</tspan><tspan fill="#D74514" font-family="Courier New,Courier New_MSFontService,sans-serif" font-size="83" x="472.083" y="1243">(</tspan><tspan fill="#D74514" font-family="Courier New,Courier New_MSFontService,sans-serif" font-size="83" x="521.354" y="1243">)</tspan></text><path d="M1058.08 702.5 1058.08 791.261 1048.92 791.261 1048.92 702.5ZM1076.42 786.678 1053.5 832.511 1030.58 786.678Z"/><path d="M4.58333-1.99543e-05 4.58388 124.538-4.58279 124.538-4.58333 1.99543e-05ZM22.9172 119.955 0.000721785 165.788-22.9161 119.955Z" transform="matrix(-1 0 0 1 1053.5 1510.5)"/><text font-family="Microsoft YaHei,Microsoft YaHei_MSFontService,sans-serif" font-weight="400" font-size="83" transform="matrix(1 0 0 1 1609.74 843)">TCP <tspan font-size="83" x="177.604" y="0">握手</tspan></text><path d="M41.2493-4.58331 652.046-4.58299 652.046 4.58367 41.2493 4.58335ZM45.8333 22.9167 0 0 45.8333-22.9166ZM647.463-22.9163 693.296 0.000360892 647.463 22.917Z" transform="matrix(-1 0 0 1 2127.8 886.5)"/><text font-family="Microsoft YaHei,Microsoft YaHei_MSFontService,sans-serif" font-weight="400" font-size="83" transform="matrix(1 0 0 1 1621.99 1415)">TCP <tspan font-size="83" x="177.604" y="0">握手</tspan></text><path d="M41.2493-4.58331 652.046-4.58299 652.046 4.58367 41.2493 4.58335ZM45.8333 22.9167 0 0 45.8333-22.9166ZM647.463-22.9163 693.296 0.000360892 647.463 22.917Z" transform="matrix(-1 0 0 1 2140.8 1459.5)"/><text font-family="Microsoft YaHei,Microsoft YaHei_MSFontService,sans-serif" font-weight="400" font-size="83" transform="matrix(1 0 0 1 1539.49 1727)">TCP <tspan font-size="83" x="177.604" y="0">数据传输</tspan></text><path d="M41.2493-4.58331 652.046-4.58299 652.046 4.58367 41.2493 4.58335ZM45.8333 22.9167 0 0 45.8333-22.9166ZM647.463-22.9163 693.296 0.000360892 647.463 22.917Z" transform="matrix(-1 0 0 1 2140.8 1770.5)"/><rect x="2128" y="193" width="762" height="1763" fill="#FDEFE8"/><rect x="2128" y="430" width="762" height="272" fill="#F0835C"/><text fill="#FFFFFF" font-family="Microsoft YaHei,Microsoft YaHei_MSFontService,sans-serif" font-weight="400" font-size="83" transform="matrix(1 0 0 1 2209.07 595)">建立<tspan font-size="83" x="189.636" y="0">TLS </tspan><tspan font-size="83" x="351.771" y="0">上下文</tspan><tspan fill="#000000" font-weight="700" font-size="83" x="90.2339" y="-254">TLS </tspan><tspan fill="#000000" font-weight="700" font-size="83" x="261.536" y="-254">客户端</tspan><tspan fill="#D74514" font-family="Courier New,Courier New_MSFontService,sans-serif" font-size="83" x="102.552" y="315">accept()</tspan><tspan fill="#D74514" font-family="Courier New,Courier New_MSFontService,sans-serif" font-size="83" x="4.01001" y="878">SSL_accept</tspan><tspan fill="#D74514" font-family="Courier New,Courier New_MSFontService,sans-serif" font-size="83" x="496.718" y="878">()</tspan><tspan fill="#D74514" font-family="Courier New,Courier New_MSFontService,sans-serif" font-size="83" x="53.281" y="1144">SSL_read</tspan><tspan fill="#D74514" font-family="Courier New,Courier New_MSFontService,sans-serif" font-size="83" x="447.448" y="1144">()</tspan><tspan fill="#D74514" font-family="Courier New,Courier New_MSFontService,sans-serif" font-size="83" x="28.6455" y="1243">SSL_write</tspan><tspan fill="#D74514" font-family="Courier New,Courier New_MSFontService,sans-serif" font-size="83" x="472.083" y="1243">(</tspan><tspan fill="#D74514" font-family="Courier New,Courier New_MSFontService,sans-serif" font-size="83" x="521.354" y="1243">)</tspan></text><path d="M2514.08 702.5 2514.08 791.261 2504.92 791.261 2504.92 702.5ZM2532.42 786.678 2509.5 832.511 2486.58 786.678Z"/><path d="M4.58333-1.99543e-05 4.58388 124.538-4.58279 124.538-4.58333 1.99543e-05ZM22.9172 119.955 0.000721785 165.788-22.9161 119.955Z" transform="matrix(-1 0 0 1 2509.5 1510.5)"/><rect x="672" y="1037" width="2218" height="272" fill="#D74514"/><text fill="#FFFFFF" font-family="Courier New,Courier New_MSFontService,sans-serif" font-weight="400" font-size="83" transform="matrix(1 0 0 1 1485.42 1197)">SSL_set_fd<tspan font-size="83" x="492.708" y="0">()</tspan></text><path d="M2514.08 949.5 2514.08 1345.44 2504.92 1345.44 2504.92 949.5ZM2532.42 1340.86 2509.5 1386.69 2486.58 1340.86Z"/><path d="M1058.08 949.5 1058.08 1345.44 1048.92 1345.44 1048.92 949.5ZM1076.42 1340.86 1053.5 1386.69 1030.58 1340.86Z"/></g></svg>