<svg width="3456" height="425" xmlns="http://www.w3.org/2000/svg" xmlns:xlink="http://www.w3.org/1999/xlink" overflow="hidden"><defs><clipPath id="clip0"><rect x="287" y="1645" width="3456" height="425"/></clipPath></defs><g clip-path="url(#clip0)" transform="translate(-287 -1645)"><rect x="1764" y="1726" width="503" height="272" fill="#D74514"/><text fill="#FFFFFF" font-family="Microsoft YaHei,Microsoft YaHei_MSFontService,sans-serif" font-weight="700" font-size="83" transform="matrix(1 0 0 1 1855.9 1891)">Mallory</text><rect x="287" y="1728" width="504" height="272" fill="#FDEFE8"/><text fill="#D74514" font-family="Microsoft YaHei,Microsoft YaHei_MSFontService,sans-serif" font-weight="700" font-size="83" transform="matrix(1 0 0 1 438.138 1893)">Alice</text><rect x="3240" y="1726" width="503" height="272" fill="#FDEFE8"/><text fill="#D74514" font-family="Microsoft YaHei,Microsoft YaHei_MSFontService,sans-serif" font-weight="700" font-size="83" transform="matrix(1 0 0 1 3408.59 1891)">Bob<tspan fill="#000000" font-weight="400" font-size="83" x="-1034.08" y="-131">Mallory </tspan><tspan fill="#000000" font-weight="400" font-size="83" x="-711.528" y="-131">的公钥</tspan></text><path d="M2999.1 1708.66C2997.43 1708.66 2995.67 1708.7 2993.83 1708.79L2988.32 1733.35 2992.54 1733.35C2995.81 1733.35 2998.45 1733.01 3000.46 1732.33 3002.47 1731.66 3004.12 1730.61 3005.4 1729.19 3006.69 1727.77 3007.68 1726.09 3008.38 1724.15 3009.08 1722.2 3009.44 1720.07 3009.44 1717.74 3009.44 1714.61 3008.64 1712.31 3007.04 1710.85 3005.45 1709.39 3002.8 1708.66 2999.1 1708.66ZM3033.12 1705.1 3049.33 1705.1 3048.89 1707.08C3047.86 1707.3 3047.12 1707.54 3046.68 1707.81 3046.23 1708.08 3045.83 1708.49 3045.48 1709.03 3045.13 1709.57 3044.77 1710.41 3044.39 1711.56 3044.01 1712.71 3043.54 1714.58 3042.97 1717.17L3040.09 1730.1 3041.43 1730.1C3042.56 1730.1 3043.6 1729.91 3044.53 1729.54 3045.46 1729.16 3046.55 1728.47 3047.79 1727.47 3049.03 1726.47 3051.01 1724.63 3053.73 1721.96 3056.44 1719.28 3058.38 1717.25 3059.52 1715.86 3060.67 1714.47 3061.51 1713.26 3062.04 1712.25 3062.56 1711.24 3062.83 1710.31 3062.83 1709.47 3062.83 1708.8 3062.56 1708.25 3062.02 1707.83 3061.48 1707.41 3060.71 1707.16 3059.71 1707.08L3060.15 1705.1 3077.54 1705.1 3077.09 1707.08C3076.01 1707.25 3074.79 1707.81 3073.43 1708.77 3072.06 1709.72 3069.97 1711.6 3067.16 1714.38L3051.44 1729.7 3060.07 1750.45C3060.96 1752.58 3061.7 1754.12 3062.28 1755.07 3062.86 1756.01 3063.56 1756.76 3064.37 1757.32 3065.18 1757.87 3066.18 1758.24 3067.37 1758.43L3066.92 1760.42 3051.28 1760.42 3051.72 1758.43C3053.18 1758.3 3053.91 1757.65 3053.91 1756.49 3053.91 1755.76 3053.76 1754.93 3053.47 1753.99 3053.17 1753.06 3052.82 1752.1 3052.41 1751.1L3047.14 1738.21C3046.52 1736.67 3045.98 1735.59 3045.52 1734.97 3045.06 1734.34 3044.58 1733.91 3044.06 1733.67 3043.55 1733.43 3042.75 1733.3 3041.67 1733.3L3039.4 1733.3 3036.04 1748.62C3035.69 1750.25 3035.46 1751.52 3035.35 1752.45 3035.24 1753.39 3035.19 1754.22 3035.19 1754.95 3035.19 1756.16 3035.49 1757.02 3036.1 1757.52 3036.71 1758.02 3037.73 1758.32 3039.16 1758.43L3038.71 1760.42 3022.5 1760.42 3022.95 1758.43C3023.97 1758.27 3024.74 1758.01 3025.26 1757.64 3025.77 1757.28 3026.2 1756.77 3026.56 1756.12 3026.91 1755.47 3027.23 1754.68 3027.53 1753.75 3027.82 1752.82 3028.27 1751.02 3028.87 1748.34L3035.75 1717.13C3036.35 1714.43 3036.65 1712.26 3036.65 1710.61 3036.65 1709.34 3036.33 1708.45 3035.69 1707.95 3035.06 1707.46 3034.05 1707.16 3032.67 1707.08ZM2982.12 1705.1 2999.99 1705.1C3003.21 1705.1 3005.85 1705.35 3007.92 1705.85 3009.98 1706.35 3011.69 1707.12 3013.02 1708.16 3014.36 1709.2 3015.36 1710.51 3016.02 1712.11 3016.68 1713.7 3017.01 1715.55 3017.01 1717.66 3017.01 1721.71 3016.06 1725.23 3014.14 1728.2 3012.22 1731.17 3009.62 1733.36 3006.34 1734.76 3003.05 1736.17 2999.11 1736.87 2994.52 1736.87 2991.77 1736.87 2989.47 1736.82 2987.63 1736.71L2985.04 1748.62C2984.8 1749.73 2984.63 1750.58 2984.53 1751.18 2984.44 1751.77 2984.36 1752.41 2984.29 1753.1 2984.22 1753.79 2984.19 1754.41 2984.19 1754.95 2984.19 1755.78 2984.32 1756.44 2984.59 1756.91 2984.86 1757.38 2985.27 1757.73 2985.81 1757.95 2986.35 1758.16 2987.28 1758.32 2988.6 1758.43L2988.16 1760.42 2971.5 1760.42 2971.95 1758.43C2972.97 1758.27 2973.74 1758.01 2974.26 1757.64 2974.77 1757.28 2975.2 1756.77 2975.56 1756.12 2975.91 1755.47 2976.23 1754.68 2976.53 1753.75 2976.82 1752.82 2977.27 1751.02 2977.87 1748.34L2984.75 1717.13C2985.35 1714.43 2985.65 1712.3 2985.65 1710.73 2985.65 1709.41 2985.34 1708.49 2984.71 1707.98 2984.09 1707.46 2983.08 1707.16 2981.67 1707.08Z" fill-rule="evenodd"/><text fill="#000000" fill-opacity="0" font-family="Arial,Arial_MSFontService,sans-serif" font-size="55.3198" x="2971.5" y="1753.5">𝑃𝐾</text><path d="M3082.29 1746.85C3083.76 1746.85 3084.89 1747.33 3085.7 1748.3 3086.5 1749.26 3086.91 1750.52 3086.91 1752.09 3086.91 1752.53 3086.88 1752.96 3086.82 1753.37 3086.76 1753.79 3086.65 1754.2 3086.49 1754.59L3086.85 1754.74C3088.73 1752.1 3090.62 1750.13 3092.5 1748.82 3094.39 1747.51 3096.33 1746.85 3098.31 1746.85 3100.42 1746.85 3101.99 1747.39 3103.03 1748.47 3104.08 1749.56 3104.6 1751.15 3104.6 1753.25 3104.6 1753.43 3104.6 1753.61 3104.6 1753.78 3104.6 1753.94 3104.58 1754.12 3104.54 1754.3L3104.66 1754.3C3106.5 1751.78 3108.34 1749.9 3110.17 1748.68 3111.99 1747.46 3113.9 1746.85 3115.89 1746.85 3117.99 1746.85 3119.56 1747.42 3120.61 1748.55 3121.65 1749.68 3122.17 1751.27 3122.17 1753.31 3122.17 1753.93 3122.07 1754.76 3121.87 1755.8 3121.67 1756.84 3121.43 1757.99 3121.14 1759.24 3120.86 1760.49 3120.54 1761.79 3120.2 1763.13 3119.87 1764.47 3119.55 1765.73 3119.25 1766.93 3119.07 1767.7 3118.93 1768.33 3118.82 1768.82 3118.71 1769.3 3118.63 1769.71 3118.57 1770.04 3118.51 1770.37 3118.47 1770.65 3118.45 1770.89 3118.43 1771.13 3118.42 1771.38 3118.42 1771.66 3118.42 1772.42 3118.56 1772.96 3118.83 1773.3 3119.11 1773.64 3119.56 1773.81 3120.18 1773.81 3120.53 1773.81 3120.89 1773.74 3121.25 1773.6 3121.6 1773.46 3121.99 1773.24 3122.39 1772.94 3122.8 1772.64 3123.25 1772.26 3123.73 1771.8 3124.22 1771.33 3124.76 1770.77 3125.36 1770.11L3127.41 1772.08C3126.46 1773.07 3125.57 1773.93 3124.75 1774.64 3123.92 1775.36 3123.13 1775.95 3122.36 1776.41 3121.6 1776.88 3120.84 1777.23 3120.09 1777.45 3119.33 1777.68 3118.54 1777.8 3117.7 1777.8 3116.95 1777.8 3116.26 1777.66 3115.65 1777.38 3115.03 1777.1 3114.51 1776.72 3114.08 1776.23 3113.66 1775.75 3113.32 1775.17 3113.09 1774.51 3112.85 1773.84 3112.73 1773.11 3112.73 1772.32 3112.73 1770.69 3113.08 1768.59 3113.77 1766.03 3114.15 1764.74 3114.49 1763.51 3114.8 1762.32 3115.11 1761.14 3115.37 1760.05 3115.59 1759.05 3115.81 1758.04 3115.98 1757.15 3116.11 1756.37 3116.24 1755.58 3116.3 1754.93 3116.3 1754.42 3116.3 1753.19 3116.07 1752.28 3115.6 1751.71 3115.14 1751.13 3114.41 1750.84 3113.41 1750.84 3112.8 1750.84 3112.14 1751 3111.45 1751.32 3110.75 1751.64 3110.05 1752.08 3109.35 1752.64 3108.64 1753.21 3107.95 1753.88 3107.28 1754.65 3106.6 1755.43 3105.98 1756.27 3105.4 1757.17 3104.83 1758.07 3104.31 1759.02 3103.87 1760.02 3103.42 1761.01 3103.08 1762.01 3102.84 1763.02L3099.89 1777.26 3094.08 1777.26C3094.36 1775.99 3094.67 1774.63 3095.02 1773.17 3095.37 1771.71 3095.72 1770.23 3096.08 1768.74 3096.44 1767.25 3096.78 1765.78 3097.11 1764.33 3097.43 1762.89 3097.73 1761.53 3097.99 1760.27 3098.24 1759.01 3098.45 1757.88 3098.61 1756.87 3098.77 1755.87 3098.85 1755.07 3098.85 1754.48 3098.85 1753.22 3098.61 1752.31 3098.12 1751.72 3097.63 1751.13 3096.85 1750.84 3095.78 1750.84 3094.83 1750.84 3093.81 1751.2 3092.71 1751.91 3091.62 1752.63 3090.58 1753.57 3089.6 1754.73 3088.62 1755.89 3087.74 1757.2 3086.96 1758.66 3086.19 1760.12 3085.64 1761.59 3085.33 1763.08L3082.29 1777.26 3076.45 1777.26 3080.92 1757.84C3081.18 1756.77 3081.36 1755.84 3081.48 1755.04 3081.6 1754.25 3081.66 1753.59 3081.66 1753.08 3081.66 1751.63 3081.08 1750.9 3079.91 1750.9 3079.55 1750.9 3079.19 1750.98 3078.82 1751.12 3078.45 1751.27 3078.06 1751.5 3077.66 1751.8 3077.25 1752.09 3076.81 1752.47 3076.33 1752.93 3075.85 1753.38 3075.32 1753.92 3074.72 1754.54L3072.67 1752.6C3073.64 1751.61 3074.54 1750.75 3075.36 1750.02 3076.19 1749.3 3076.98 1748.7 3077.75 1748.24 3078.51 1747.77 3079.26 1747.42 3079.99 1747.19 3080.73 1746.96 3081.49 1746.85 3082.29 1746.85Z" fill-rule="evenodd"/><text fill="#000000" fill-opacity="0" font-family="Arial,Arial_MSFontService,sans-serif" font-size="30.9468" x="3072.67" y="1773.93">𝑚</text><text font-family="Microsoft YaHei,Microsoft YaHei_MSFontService,sans-serif" font-weight="400" font-size="83" transform="matrix(1 0 0 1 947.706 1762)">Alice <tspan font-size="83" x="214.271" y="0">的公钥</tspan></text><path d="M1464.02 1710.07C1462.35 1710.07 1460.59 1710.11 1458.75 1710.19L1453.24 1734.75 1457.46 1734.75C1460.73 1734.75 1463.37 1734.41 1465.38 1733.74 1467.39 1733.06 1469.04 1732.02 1470.32 1730.6 1471.61 1729.18 1472.6 1727.5 1473.3 1725.55 1474.01 1723.61 1474.36 1721.47 1474.36 1719.15 1474.36 1716.01 1473.56 1713.72 1471.97 1712.26 1470.37 1710.8 1467.72 1710.07 1464.02 1710.07ZM1498.04 1706.5 1514.25 1706.5 1513.81 1708.49C1512.78 1708.71 1512.04 1708.95 1511.6 1709.22 1511.15 1709.49 1510.75 1709.89 1510.4 1710.44 1510.05 1710.98 1509.69 1711.82 1509.31 1712.97 1508.93 1714.12 1508.46 1715.99 1507.89 1718.58L1505.01 1731.51 1506.35 1731.51C1507.48 1731.51 1508.52 1731.32 1509.45 1730.94 1510.38 1730.56 1511.47 1729.87 1512.71 1728.88 1513.95 1727.88 1515.93 1726.04 1518.65 1723.36 1521.36 1720.69 1523.3 1718.66 1524.44 1717.26 1525.59 1715.87 1526.43 1714.67 1526.96 1713.66 1527.48 1712.64 1527.75 1711.72 1527.75 1710.88 1527.75 1710.21 1527.48 1709.66 1526.94 1709.24 1526.4 1708.82 1525.63 1708.57 1524.63 1708.49L1525.07 1706.5 1542.46 1706.5 1542.01 1708.49C1540.93 1708.65 1539.71 1709.21 1538.35 1710.17 1536.98 1711.13 1534.89 1713 1532.08 1715.78L1516.36 1731.1 1524.99 1751.85C1525.88 1753.99 1526.62 1755.53 1527.2 1756.47 1527.78 1757.42 1528.48 1758.17 1529.29 1758.72 1530.1 1759.28 1531.1 1759.65 1532.29 1759.84L1531.84 1761.82 1516.2 1761.82 1516.64 1759.84C1518.1 1759.7 1518.83 1759.05 1518.83 1757.89 1518.83 1757.16 1518.68 1756.33 1518.39 1755.4 1518.09 1754.47 1517.74 1753.5 1517.33 1752.5L1512.06 1739.61C1511.44 1738.07 1510.9 1736.99 1510.44 1736.37 1509.98 1735.75 1509.5 1735.32 1508.98 1735.08 1508.47 1734.83 1507.67 1734.71 1506.59 1734.71L1504.32 1734.71 1500.96 1750.03C1500.61 1751.65 1500.38 1752.93 1500.27 1753.86 1500.16 1754.79 1500.11 1755.62 1500.11 1756.35 1500.11 1757.57 1500.41 1758.43 1501.02 1758.93 1501.63 1759.43 1502.65 1759.73 1504.08 1759.84L1503.63 1761.82 1487.42 1761.82 1487.87 1759.84C1488.9 1759.68 1489.67 1759.41 1490.18 1759.05 1490.69 1758.68 1491.12 1758.18 1491.48 1757.53 1491.83 1756.88 1492.15 1756.09 1492.45 1755.16 1492.75 1754.23 1493.19 1752.42 1493.79 1749.75L1500.68 1718.54C1501.27 1715.84 1501.57 1713.66 1501.57 1712.02 1501.57 1710.75 1501.25 1709.86 1500.61 1709.36 1499.98 1708.86 1498.97 1708.57 1497.6 1708.49ZM1447.04 1706.5 1464.91 1706.5C1468.13 1706.5 1470.77 1706.75 1472.84 1707.25 1474.9 1707.75 1476.61 1708.52 1477.94 1709.56 1479.28 1710.6 1480.28 1711.92 1480.94 1713.52 1481.6 1715.11 1481.93 1716.96 1481.93 1719.07 1481.93 1723.12 1480.98 1726.63 1479.06 1729.6 1477.14 1732.58 1474.54 1734.77 1471.26 1736.17 1467.97 1737.58 1464.04 1738.28 1459.44 1738.28 1456.69 1738.28 1454.39 1738.22 1452.55 1738.12L1449.96 1750.03C1449.72 1751.14 1449.55 1751.99 1449.45 1752.58 1449.36 1753.18 1449.28 1753.82 1449.21 1754.51 1449.14 1755.2 1449.11 1755.81 1449.11 1756.35 1449.11 1757.19 1449.24 1757.85 1449.51 1758.32 1449.78 1758.79 1450.19 1759.14 1450.73 1759.35 1451.27 1759.57 1452.2 1759.73 1453.53 1759.84L1453.08 1761.82 1436.42 1761.82 1436.87 1759.84C1437.9 1759.68 1438.67 1759.41 1439.18 1759.05 1439.69 1758.68 1440.12 1758.18 1440.48 1757.53 1440.83 1756.88 1441.15 1756.09 1441.45 1755.16 1441.75 1754.23 1442.19 1752.42 1442.79 1749.75L1449.68 1718.54C1450.27 1715.84 1450.57 1713.7 1450.57 1712.14 1450.57 1710.81 1450.26 1709.89 1449.63 1709.38 1449.01 1708.87 1448 1708.57 1446.6 1708.49Z" fill-rule="evenodd"/><text fill="#000000" fill-opacity="0" font-family="Arial,Arial_MSFontService,sans-serif" font-size="55.3198" x="1436.42" y="1754.91">𝑃𝐾</text><path d="M1557.37 1751.21C1556.19 1751.21 1555.1 1751.46 1554.09 1751.98 1553.08 1752.5 1552.15 1753.2 1551.32 1754.09 1550.48 1754.99 1549.75 1756.02 1549.1 1757.19 1548.45 1758.36 1547.91 1759.61 1547.46 1760.92 1547.02 1762.23 1546.68 1763.57 1546.45 1764.95 1546.22 1766.33 1546.11 1767.66 1546.11 1768.93 1546.11 1771.07 1546.41 1772.67 1547.02 1773.71 1547.62 1774.75 1548.6 1775.27 1549.95 1775.27 1550.62 1775.27 1551.27 1775.15 1551.9 1774.91 1552.53 1774.68 1553.19 1774.3 1553.88 1773.78 1555.63 1772.41 1557.12 1770.74 1558.35 1768.78 1559.58 1766.81 1560.5 1764.49 1561.12 1761.81 1561.4 1760.58 1561.61 1759.47 1561.77 1758.47 1561.93 1757.48 1562.01 1756.54 1562.01 1755.64 1562.01 1754.06 1561.64 1752.92 1560.89 1752.23 1560.15 1751.55 1558.97 1751.21 1557.37 1751.21ZM1556.83 1748.26C1558.4 1748.26 1559.78 1748.44 1560.98 1748.81 1562.19 1749.18 1563.28 1749.68 1564.28 1750.31L1567.16 1748.26 1569.58 1748.88 1565.08 1768.39C1564.82 1769.5 1564.64 1770.42 1564.54 1771.15 1564.44 1771.87 1564.39 1772.51 1564.39 1773.07 1564.39 1773.82 1564.55 1774.37 1564.86 1774.71 1565.16 1775.04 1565.61 1775.21 1566.18 1775.21 1566.54 1775.21 1566.89 1775.14 1567.24 1775 1567.59 1774.87 1567.96 1774.65 1568.37 1774.35 1568.78 1774.05 1569.22 1773.67 1569.71 1773.2 1570.2 1772.74 1570.75 1772.17 1571.36 1771.52 1571.68 1771.86 1572.01 1772.19 1572.35 1772.52 1572.68 1772.84 1573.01 1773.17 1573.33 1773.49 1572.34 1774.5 1571.43 1775.37 1570.62 1776.09 1569.81 1776.82 1569.02 1777.41 1568.25 1777.88 1567.49 1778.35 1566.74 1778.68 1566 1778.89 1565.27 1779.1 1564.5 1779.2 1563.71 1779.2 1562.28 1779.2 1561.17 1778.74 1560.37 1777.82 1559.58 1776.9 1559.18 1775.63 1559.18 1774.02 1559.18 1773.13 1559.32 1772.27 1559.6 1771.46L1559.18 1771.28C1558.17 1772.69 1557.19 1773.89 1556.23 1774.89 1555.28 1775.88 1554.34 1776.7 1553.4 1777.34 1552.47 1777.99 1551.53 1778.46 1550.57 1778.76 1549.62 1779.05 1548.63 1779.2 1547.6 1779.2 1545.23 1779.2 1543.41 1778.35 1542.12 1776.66 1540.82 1774.96 1540.18 1772.49 1540.18 1769.26 1540.18 1767.33 1540.38 1765.48 1540.79 1763.7 1541.2 1761.92 1541.77 1760.26 1542.52 1758.7 1543.26 1757.14 1544.15 1755.72 1545.18 1754.44 1546.22 1753.16 1547.35 1752.06 1548.58 1751.15 1549.81 1750.23 1551.12 1749.52 1552.51 1749.02 1553.9 1748.51 1555.34 1748.26 1556.83 1748.26Z" fill-rule="evenodd"/><text fill="#000000" fill-opacity="0" font-family="Arial,Arial_MSFontService,sans-serif" font-size="30.9468" x="1540.18" y="1775.34">𝑎</text><path d="M2575.5 1981.19C2573.83 1981.19 2572.07 1981.23 2570.24 1981.31L2564.72 2005.87 2568.94 2005.87C2572.21 2005.87 2574.85 2005.54 2576.86 2004.86 2578.87 2004.19 2580.52 2003.14 2581.81 2001.72 2583.09 2000.3 2584.08 1998.62 2584.78 1996.67 2585.49 1994.73 2585.84 1992.59 2585.84 1990.27 2585.84 1987.14 2585.04 1984.84 2583.45 1983.38 2581.85 1981.92 2579.21 1981.19 2575.5 1981.19ZM2609.52 1977.63 2625.73 1977.63 2625.29 1979.61C2624.26 1979.83 2623.52 1980.07 2623.08 1980.34 2622.63 1980.61 2622.23 1981.02 2621.88 1981.56 2621.53 1982.1 2621.17 1982.94 2620.79 1984.09 2620.41 1985.24 2619.94 1987.11 2619.37 1989.7L2616.49 2002.63 2617.83 2002.63C2618.97 2002.63 2620 2002.44 2620.93 2002.06 2621.86 2001.69 2622.95 2001 2624.19 2000 2625.44 1999 2627.42 1997.16 2630.13 1994.49 2632.85 1991.81 2634.78 1989.78 2635.93 1988.39 2637.07 1986.99 2637.91 1985.79 2638.44 1984.78 2638.97 1983.77 2639.23 1982.84 2639.23 1982 2639.23 1981.33 2638.96 1980.78 2638.42 1980.36 2637.88 1979.94 2637.11 1979.69 2636.11 1979.61L2636.55 1977.63 2653.94 1977.63 2653.49 1979.61C2652.41 1979.77 2651.19 1980.34 2649.83 1981.29 2648.46 1982.25 2646.38 1984.12 2643.57 1986.91L2627.84 2002.23 2636.47 2022.98C2637.36 2025.11 2638.1 2026.65 2638.68 2027.6 2639.26 2028.54 2639.96 2029.29 2640.77 2029.85 2641.58 2030.4 2642.58 2030.77 2643.77 2030.96L2643.32 2032.95 2627.68 2032.95 2628.12 2030.96C2629.58 2030.83 2630.31 2030.18 2630.31 2029.02 2630.31 2028.29 2630.16 2027.45 2629.87 2026.52 2629.57 2025.59 2629.22 2024.62 2628.81 2023.62L2623.55 2010.74C2622.92 2009.2 2622.38 2008.12 2621.92 2007.5 2621.46 2006.87 2620.98 2006.44 2620.47 2006.2 2619.95 2005.96 2619.15 2005.83 2618.07 2005.83L2615.8 2005.83 2612.44 2021.15C2612.09 2022.77 2611.86 2024.05 2611.75 2024.98 2611.64 2025.91 2611.59 2026.75 2611.59 2027.48 2611.59 2028.69 2611.89 2029.55 2612.5 2030.05 2613.11 2030.55 2614.13 2030.85 2615.56 2030.96L2615.12 2032.95 2598.9 2032.95 2599.35 2030.96C2600.38 2030.8 2601.15 2030.53 2601.66 2030.17 2602.17 2029.81 2602.61 2029.3 2602.96 2028.65 2603.31 2028 2603.63 2027.21 2603.93 2026.28 2604.23 2025.35 2604.67 2023.54 2605.27 2020.87L2612.16 1989.66C2612.75 1986.96 2613.05 1984.79 2613.05 1983.14 2613.05 1981.87 2612.73 1980.98 2612.1 1980.48 2611.46 1979.98 2610.45 1979.69 2609.08 1979.61ZM2558.52 1977.63 2576.4 1977.63C2579.61 1977.63 2582.25 1977.88 2584.32 1978.38 2586.39 1978.88 2588.09 1979.65 2589.42 1980.69 2590.76 1981.73 2591.76 1983.04 2592.42 1984.64 2593.09 1986.23 2593.42 1988.08 2593.42 1990.19 2593.42 1994.24 2592.46 1997.76 2590.54 2000.73 2588.62 2003.7 2586.02 2005.89 2582.74 2007.29 2579.46 2008.7 2575.52 2009.4 2570.92 2009.4 2568.17 2009.4 2565.87 2009.35 2564.03 2009.24L2561.44 2021.15C2561.2 2022.26 2561.03 2023.11 2560.93 2023.71 2560.84 2024.3 2560.76 2024.94 2560.69 2025.63 2560.62 2026.32 2560.59 2026.93 2560.59 2027.48 2560.59 2028.31 2560.72 2028.97 2560.99 2029.44 2561.27 2029.91 2561.67 2030.26 2562.21 2030.47 2562.75 2030.69 2563.68 2030.85 2565.01 2030.96L2564.56 2032.95 2547.9 2032.95 2548.35 2030.96C2549.38 2030.8 2550.15 2030.53 2550.66 2030.17 2551.17 2029.81 2551.61 2029.3 2551.96 2028.65 2552.31 2028 2552.63 2027.21 2552.93 2026.28 2553.23 2025.35 2553.67 2023.54 2554.27 2020.87L2561.16 1989.66C2561.75 1986.96 2562.05 1984.83 2562.05 1983.26 2562.05 1981.94 2561.74 1981.02 2561.12 1980.5 2560.5 1979.99 2559.48 1979.69 2558.08 1979.61Z" fill-rule="evenodd"/><text fill="#000000" fill-opacity="0" font-family="Arial,Arial_MSFontService,sans-serif" font-size="55.3198" x="2547.9" y="2026.03">𝑃𝐾</text><path d="M2658.69 2019.38C2660.16 2019.38 2661.3 2019.86 2662.1 2020.82 2662.91 2021.79 2663.31 2023.05 2663.31 2024.62 2663.31 2025.06 2663.28 2025.49 2663.22 2025.9 2663.16 2026.32 2663.05 2026.73 2662.89 2027.12L2663.25 2027.27C2665.13 2024.63 2667.02 2022.66 2668.91 2021.35 2670.79 2020.03 2672.73 2019.38 2674.71 2019.38 2676.82 2019.38 2678.39 2019.92 2679.44 2021 2680.48 2022.08 2681 2023.68 2681 2025.78 2681 2025.96 2681 2026.14 2681 2026.3 2681 2026.47 2680.98 2026.65 2680.94 2026.83L2681.06 2026.83C2682.91 2024.3 2684.74 2022.43 2686.57 2021.21 2688.4 2019.99 2690.3 2019.38 2692.29 2019.38 2694.39 2019.38 2695.97 2019.95 2697.01 2021.08 2698.05 2022.21 2698.57 2023.8 2698.57 2025.84 2698.57 2026.46 2698.47 2027.29 2698.27 2028.33 2698.08 2029.37 2697.83 2030.52 2697.55 2031.77 2697.26 2033.02 2696.94 2034.32 2696.61 2035.66 2696.27 2037 2695.95 2038.26 2695.65 2039.45 2695.48 2040.23 2695.33 2040.86 2695.22 2041.35 2695.11 2041.83 2695.03 2042.24 2694.97 2042.57 2694.91 2042.89 2694.87 2043.18 2694.85 2043.42 2694.83 2043.65 2694.82 2043.91 2694.82 2044.19 2694.82 2044.94 2694.96 2045.49 2695.24 2045.83 2695.51 2046.17 2695.96 2046.33 2696.58 2046.33 2696.93 2046.33 2697.29 2046.27 2697.65 2046.13 2698.01 2045.99 2698.39 2045.77 2698.8 2045.47 2699.2 2045.17 2699.65 2044.79 2700.14 2044.32 2700.62 2043.86 2701.16 2043.3 2701.76 2042.64L2703.81 2044.61C2702.86 2045.6 2701.97 2046.45 2701.15 2047.17 2700.33 2047.88 2699.53 2048.47 2698.77 2048.94 2698 2049.41 2697.24 2049.76 2696.49 2049.98 2695.73 2050.21 2694.94 2050.33 2694.1 2050.33 2693.35 2050.33 2692.67 2050.19 2692.05 2049.91 2691.43 2049.63 2690.91 2049.25 2690.49 2048.76 2690.06 2048.28 2689.73 2047.7 2689.49 2047.03 2689.25 2046.37 2689.13 2045.64 2689.13 2044.85 2689.13 2043.22 2689.48 2041.12 2690.17 2038.56 2690.55 2037.27 2690.89 2036.03 2691.2 2034.85 2691.51 2033.67 2691.77 2032.58 2691.99 2031.58 2692.21 2030.57 2692.38 2029.68 2692.51 2028.9 2692.64 2028.11 2692.71 2027.46 2692.71 2026.94 2692.71 2025.71 2692.47 2024.81 2692.01 2024.23 2691.54 2023.66 2690.81 2023.37 2689.82 2023.37 2689.2 2023.37 2688.55 2023.53 2687.85 2023.85 2687.16 2024.16 2686.46 2024.61 2685.75 2025.17 2685.05 2025.74 2684.36 2026.41 2683.68 2027.18 2683.01 2027.96 2682.38 2028.8 2681.8 2029.7 2681.23 2030.6 2680.72 2031.55 2680.27 2032.54 2679.82 2033.54 2679.48 2034.54 2679.24 2035.55L2676.29 2049.79 2670.49 2049.79C2670.76 2048.52 2671.08 2047.15 2671.42 2045.69 2671.77 2044.24 2672.12 2042.76 2672.48 2041.27 2672.84 2039.78 2673.18 2038.31 2673.51 2036.86 2673.84 2035.41 2674.13 2034.06 2674.39 2032.8 2674.65 2031.54 2674.85 2030.4 2675.01 2029.4 2675.17 2028.4 2675.25 2027.6 2675.25 2027 2675.25 2025.75 2675.01 2024.84 2674.52 2024.25 2674.03 2023.66 2673.26 2023.37 2672.18 2023.37 2671.23 2023.37 2670.21 2023.73 2669.12 2024.44 2668.02 2025.16 2666.99 2026.1 2666 2027.26 2665.02 2028.42 2664.14 2029.73 2663.37 2031.19 2662.59 2032.65 2662.05 2034.12 2661.73 2035.61L2658.69 2049.79 2652.85 2049.79 2657.32 2030.37C2657.58 2029.3 2657.77 2028.36 2657.89 2027.57 2658.01 2026.78 2658.06 2026.12 2658.06 2025.6 2658.06 2024.15 2657.48 2023.43 2656.31 2023.43 2655.95 2023.43 2655.59 2023.5 2655.22 2023.65 2654.85 2023.8 2654.47 2024.03 2654.06 2024.32 2653.65 2024.62 2653.21 2025 2652.73 2025.46 2652.26 2025.91 2651.72 2026.45 2651.12 2027.06L2649.07 2025.13C2650.04 2024.14 2650.94 2023.28 2651.77 2022.55 2652.59 2021.83 2653.38 2021.23 2654.15 2020.76 2654.91 2020.3 2655.66 2019.95 2656.4 2019.72 2657.13 2019.49 2657.9 2019.38 2658.69 2019.38Z" fill-rule="evenodd"/><text fill="#000000" fill-opacity="0" font-family="Arial,Arial_MSFontService,sans-serif" font-size="30.9468" x="2649.07" y="2046.46">𝑚</text><path d="M2928.94 1970.83C2936.83 1972.91 2942.89 1977.4 2947.12 1984.31 2951.35 1991.21 2953.46 1999.54 2953.46 2009.29 2953.46 2019.07 2951.35 2027.4 2947.14 2034.28 2942.93 2041.15 2936.86 2045.63 2928.94 2047.71L2927.97 2044.59C2934.21 2042.51 2938.85 2038.4 2941.89 2032.27 2944.93 2026.14 2946.45 2018.34 2946.45 2008.89 2946.45 1999.76 2944.94 1992.17 2941.91 1986.13 2938.89 1980.09 2934.2 1976.03 2927.85 1973.95ZM2740.25 1970.83 2741.35 1973.95C2735.03 1976.03 2730.35 1980.09 2727.31 1986.13 2724.27 1992.17 2722.75 1999.76 2722.75 2008.89 2722.75 2018.34 2724.27 2026.14 2727.31 2032.27 2730.35 2038.4 2734.99 2042.51 2741.23 2044.59L2740.25 2047.71C2732.34 2045.63 2726.27 2041.15 2722.06 2034.28 2717.84 2027.4 2715.74 2019.07 2715.74 2009.29 2715.74 1999.54 2717.85 1991.21 2722.08 1984.31 2726.31 1977.4 2732.36 1972.91 2740.25 1970.83Z" fill-rule="evenodd"/><path d="M2904.66 1996.71C2901.87 1996.71 2899.37 1997.84 2897.16 2000.08 2894.94 2002.32 2893.21 2005.33 2891.97 2009.1 2890.73 2012.86 2890.11 2016.63 2890.11 2020.38 2890.11 2023.19 2890.49 2025.29 2891.26 2026.68 2892.03 2028.08 2893.32 2028.77 2895.13 2028.77 2896.92 2028.77 2898.66 2028 2900.38 2026.46 2902.1 2024.92 2903.87 2022.73 2905.69 2019.88 2907.51 2017.03 2908.8 2013.74 2909.56 2010.01L2909.92 2008.27C2910.17 2007.16 2910.33 2006.2 2910.41 2005.39 2910.49 2004.58 2910.53 2003.7 2910.53 2002.75 2910.53 2000.67 2910.09 1999.15 2909.2 1998.17 2908.3 1997.2 2906.79 1996.71 2904.66 1996.71ZM2825.66 1996.71C2822.87 1996.71 2820.37 1997.84 2818.16 2000.08 2815.94 2002.32 2814.21 2005.33 2812.97 2009.1 2811.73 2012.86 2811.11 2016.63 2811.11 2020.38 2811.11 2023.19 2811.49 2025.29 2812.26 2026.68 2813.03 2028.08 2814.32 2028.77 2816.13 2028.77 2817.92 2028.77 2819.66 2028 2821.38 2026.46 2823.1 2024.92 2824.87 2022.73 2826.69 2019.88 2828.51 2017.03 2829.8 2013.74 2830.56 2010.01L2830.92 2008.27C2831.17 2007.16 2831.33 2006.2 2831.41 2005.39 2831.49 2004.58 2831.53 2003.7 2831.53 2002.75 2831.53 2000.67 2831.09 1999.15 2830.2 1998.17 2829.3 1997.2 2827.79 1996.71 2825.66 1996.71ZM2903.85 1993.51C2905.6 1993.51 2907.24 1993.71 2908.77 1994.1 2910.3 1994.49 2911.87 1995.19 2913.49 1996.19L2917.22 1993.51 2919.81 1994.16 2913.86 2019.86C2913.26 2022.42 2912.96 2024.42 2912.96 2025.85 2912.96 2026.93 2913.14 2027.72 2913.49 2028.2 2913.84 2028.69 2914.4 2028.93 2915.15 2028.93 2915.96 2028.93 2916.83 2028.6 2917.75 2027.94 2918.67 2027.28 2919.96 2026.02 2921.64 2024.15L2923.95 2026.42C2921.52 2029.02 2919.44 2030.86 2917.73 2031.95 2916.01 2033.05 2914.15 2033.59 2912.15 2033.59 2910.48 2033.59 2909.14 2033.04 2908.14 2031.93 2907.14 2030.83 2906.64 2029.35 2906.64 2027.52 2906.64 2026.03 2906.95 2024.45 2907.57 2022.77L2907.05 2022.61C2904.45 2026.39 2901.99 2029.16 2899.67 2030.92 2897.35 2032.68 2894.89 2033.55 2892.3 2033.55 2889.32 2033.55 2887.02 2032.43 2885.39 2030.19 2883.75 2027.95 2882.93 2024.8 2882.93 2020.75 2882.93 2016.1 2883.85 2011.64 2885.67 2007.35 2887.49 2003.07 2890 1999.69 2893.19 1997.22 2896.38 1994.75 2899.93 1993.51 2903.85 1993.51ZM2824.85 1993.51C2826.6 1993.51 2828.24 1993.71 2829.77 1994.1 2831.3 1994.49 2832.87 1995.19 2834.49 1996.19L2838.22 1993.51 2840.81 1994.16 2834.86 2019.86C2834.26 2022.42 2833.96 2024.42 2833.96 2025.85 2833.96 2026.93 2834.14 2027.72 2834.49 2028.2 2834.84 2028.69 2835.4 2028.93 2836.15 2028.93 2836.96 2028.93 2837.83 2028.6 2838.75 2027.94 2839.67 2027.28 2840.96 2026.02 2842.64 2024.15L2844.95 2026.42C2842.52 2029.02 2840.44 2030.86 2838.73 2031.95 2837.01 2033.05 2835.15 2033.59 2833.15 2033.59 2831.48 2033.59 2830.14 2033.04 2829.14 2031.93 2828.14 2030.83 2827.64 2029.35 2827.64 2027.52 2827.64 2026.03 2827.95 2024.45 2828.57 2022.77L2828.05 2022.61C2825.45 2026.39 2822.99 2029.16 2820.67 2030.92 2818.35 2032.68 2815.89 2033.55 2813.3 2033.55 2810.32 2033.55 2808.02 2032.43 2806.39 2030.19 2804.75 2027.95 2803.93 2024.8 2803.93 2020.75 2803.93 2016.1 2804.85 2011.64 2806.67 2007.35 2808.49 2003.07 2811 1999.69 2814.19 1997.22 2817.38 1994.75 2820.93 1993.51 2824.85 1993.51ZM2861.52 1984.19 2867.12 1984.19 2864.89 1994.2 2877.21 1994.2 2876.32 1998.3 2864 1998.3 2860.39 2014.02C2859.69 2017.07 2859.24 2019.27 2859.05 2020.61 2858.86 2021.94 2858.77 2023.02 2858.77 2023.83 2858.77 2027.18 2860.16 2028.85 2862.94 2028.85 2864.13 2028.85 2865.39 2028.4 2866.73 2027.5 2868.07 2026.59 2869.66 2025.04 2871.49 2022.85L2873.84 2025.29C2871.49 2028.12 2869.23 2030.22 2867.06 2031.57 2864.88 2032.92 2862.6 2033.59 2860.23 2033.59 2854.58 2033.59 2851.76 2030.74 2851.76 2025.04 2851.76 2023.23 2851.99 2021.33 2852.45 2019.33L2857.23 1998.3 2850.42 1998.3 2851.03 1995.5C2852.62 1995.47 2853.83 1995.35 2854.65 1995.13 2855.48 1994.92 2856.17 1994.62 2856.72 1994.24 2857.28 1993.86 2857.78 1993.32 2858.24 1992.62 2858.7 1991.92 2859.15 1991.02 2859.58 1989.93 2860.01 1988.83 2860.66 1986.92 2861.52 1984.19ZM2771.09 1981.15C2769.9 1981.15 2768.62 1981.19 2767.24 1981.27L2756.74 2029.22C2757.52 2029.3 2759.02 2029.34 2761.24 2029.34 2765.62 2029.34 2769.33 2028.58 2772.38 2027.05 2775.44 2025.52 2778.07 2023.13 2780.29 2019.88 2782.5 2016.62 2784.14 2013.19 2785.19 2009.58 2786.24 2005.98 2786.77 2002.17 2786.77 1998.17 2786.77 1992.53 2785.45 1988.28 2782.82 1985.43 2780.19 1982.58 2776.28 1981.15 2771.09 1981.15ZM2755.61 1977.63 2770.97 1977.63C2775.05 1977.63 2778.36 1977.94 2780.9 1978.56 2783.44 1979.18 2785.81 1980.3 2788.01 1981.92 2790.21 1983.54 2791.86 1985.7 2792.97 1988.39 2794.08 1991.07 2794.63 1994.26 2794.63 1997.93 2794.63 2001.58 2794.22 2005.06 2793.38 2008.39 2792.54 2011.71 2791.34 2014.77 2789.77 2017.57 2788.2 2020.36 2786.33 2022.79 2784.14 2024.86 2781.95 2026.93 2779.83 2028.52 2777.77 2029.62 2775.72 2030.73 2773.42 2031.56 2770.89 2032.12 2768.35 2032.67 2765.39 2032.95 2762.01 2032.95L2744.99 2032.95 2745.43 2030.96C2746.46 2030.8 2747.23 2030.53 2747.74 2030.17 2748.26 2029.81 2748.69 2029.3 2749.04 2028.65 2749.39 2028 2749.72 2027.21 2750.01 2026.28 2750.31 2025.35 2750.76 2023.54 2751.35 2020.87L2758.24 1989.66C2758.83 1986.96 2759.13 1984.79 2759.13 1983.14 2759.13 1981.87 2758.81 1980.98 2758.18 1980.48 2757.54 1979.98 2756.54 1979.69 2755.16 1979.61Z" fill-rule="evenodd"/><text fill="#000000" fill-opacity="0" font-family="Arial,Arial_MSFontService,sans-serif" font-size="55.9683" x="2744.99" y="2026.6">𝐷𝑎𝑡𝑎</text><path d="M1094.55 1978.73C1092.88 1978.73 1091.12 1978.77 1089.28 1978.85L1083.77 2003.41 1087.99 2003.41C1091.26 2003.41 1093.9 2003.07 1095.91 2002.4 1097.92 2001.72 1099.57 2000.67 1100.86 1999.26 1102.14 1997.84 1103.13 1996.16 1103.83 1994.21 1104.54 1992.26 1104.89 1990.13 1104.89 1987.81 1104.89 1984.67 1104.09 1982.38 1102.5 1980.92 1100.9 1979.46 1098.25 1978.73 1094.55 1978.73ZM1128.57 1975.16 1144.78 1975.16 1144.34 1977.15C1143.31 1977.36 1142.57 1977.61 1142.13 1977.88 1141.68 1978.15 1141.28 1978.55 1140.93 1979.09 1140.58 1979.63 1140.22 1980.48 1139.84 1981.63 1139.46 1982.77 1138.99 1984.65 1138.42 1987.24L1135.54 2000.17 1136.88 2000.17C1138.02 2000.17 1139.05 1999.98 1139.98 1999.6 1140.91 1999.22 1142 1998.53 1143.24 1997.53 1144.49 1996.53 1146.47 1994.7 1149.18 1992.02 1151.9 1989.35 1153.83 1987.31 1154.98 1985.92 1156.12 1984.53 1156.96 1983.33 1157.49 1982.31 1158.02 1981.3 1158.28 1980.38 1158.28 1979.54 1158.28 1978.86 1158.01 1978.32 1157.47 1977.9 1156.93 1977.48 1156.16 1977.23 1155.16 1977.15L1155.6 1975.16 1172.99 1975.16 1172.54 1977.15C1171.46 1977.31 1170.24 1977.87 1168.88 1978.83 1167.51 1979.79 1165.43 1981.66 1162.62 1984.44L1146.89 1999.76 1155.52 2020.51C1156.41 2022.65 1157.15 2024.19 1157.73 2025.13 1158.31 2026.08 1159.01 2026.83 1159.82 2027.38 1160.63 2027.94 1161.63 2028.31 1162.82 2028.5L1162.37 2030.48 1146.73 2030.48 1147.17 2028.5C1148.63 2028.36 1149.36 2027.71 1149.36 2026.55 1149.36 2025.82 1149.21 2024.99 1148.92 2024.06 1148.62 2023.13 1148.27 2022.16 1147.86 2021.16L1142.59 2008.27C1141.97 2006.73 1141.43 2005.65 1140.97 2005.03 1140.51 2004.41 1140.03 2003.98 1139.51 2003.73 1139 2003.49 1138.2 2003.37 1137.12 2003.37L1134.85 2003.37 1131.49 2018.69C1131.14 2020.31 1130.91 2021.59 1130.8 2022.52 1130.69 2023.45 1130.64 2024.28 1130.64 2025.01 1130.64 2026.23 1130.94 2027.08 1131.55 2027.58 1132.16 2028.08 1133.18 2028.39 1134.61 2028.5L1134.17 2030.48 1117.95 2030.48 1118.4 2028.5C1119.43 2028.33 1120.2 2028.07 1120.71 2027.71 1121.22 2027.34 1121.66 2026.83 1122.01 2026.19 1122.36 2025.54 1122.68 2024.75 1122.98 2023.81 1123.28 2022.88 1123.72 2021.08 1124.32 2018.4L1131.21 1987.2C1131.8 1984.5 1132.1 1982.32 1132.1 1980.67 1132.1 1979.4 1131.78 1978.52 1131.15 1978.02 1130.51 1977.52 1129.5 1977.23 1128.13 1977.15ZM1077.57 1975.16 1095.44 1975.16C1098.66 1975.16 1101.3 1975.41 1103.37 1975.91 1105.43 1976.41 1107.14 1977.18 1108.47 1978.22 1109.81 1979.26 1110.81 1980.58 1111.47 1982.17 1112.14 1983.77 1112.47 1985.62 1112.47 1987.73 1112.47 1991.78 1111.51 1995.29 1109.59 1998.26 1107.67 2001.23 1105.07 2003.42 1101.79 2004.83 1098.5 2006.23 1094.57 2006.94 1089.97 2006.94 1087.22 2006.94 1084.92 2006.88 1083.08 2006.77L1080.49 2018.69C1080.25 2019.8 1080.08 2020.65 1079.98 2021.24 1079.89 2021.84 1079.81 2022.48 1079.74 2023.17 1079.67 2023.86 1079.64 2024.47 1079.64 2025.01 1079.64 2025.85 1079.77 2026.5 1080.04 2026.98 1080.31 2027.45 1080.72 2027.79 1081.26 2028.01 1081.8 2028.23 1082.73 2028.39 1084.06 2028.5L1083.61 2030.48 1066.95 2030.48 1067.4 2028.5C1068.43 2028.33 1069.2 2028.07 1069.71 2027.71 1070.22 2027.34 1070.66 2026.83 1071.01 2026.19 1071.36 2025.54 1071.68 2024.75 1071.98 2023.81 1072.28 2022.88 1072.72 2021.08 1073.32 2018.4L1080.21 1987.2C1080.8 1984.5 1081.1 1982.36 1081.1 1980.8 1081.1 1979.47 1080.79 1978.55 1080.17 1978.04 1079.54 1977.53 1078.53 1977.23 1077.13 1977.15Z" fill-rule="evenodd"/><text fill="#000000" fill-opacity="0" font-family="Arial,Arial_MSFontService,sans-serif" font-size="55.3198" x="1066.95" y="2023.57">𝑃𝐾</text><path d="M1187.9 2019.86C1186.73 2019.86 1185.63 2020.12 1184.62 2020.64 1183.61 2021.15 1182.68 2021.86 1181.85 2022.75 1181.02 2023.65 1180.28 2024.68 1179.63 2025.85 1178.99 2027.02 1178.44 2028.26 1177.99 2029.57 1177.55 2030.88 1177.21 2032.23 1176.98 2033.61 1176.75 2034.99 1176.64 2036.31 1176.64 2037.59 1176.64 2039.73 1176.94 2041.32 1177.55 2042.37 1178.15 2043.41 1179.13 2043.93 1180.48 2043.93 1181.16 2043.93 1181.81 2043.81 1182.43 2043.57 1183.06 2043.33 1183.72 2042.96 1184.41 2042.44 1186.16 2041.07 1187.65 2039.4 1188.88 2037.44 1190.11 2035.47 1191.03 2033.15 1191.65 2030.47 1191.93 2029.24 1192.15 2028.12 1192.31 2027.13 1192.46 2026.14 1192.54 2025.2 1192.54 2024.3 1192.54 2022.71 1192.17 2021.58 1191.43 2020.89 1190.68 2020.21 1189.51 2019.86 1187.9 2019.86ZM1187.36 2016.91C1188.93 2016.91 1190.31 2017.1 1191.52 2017.47 1192.72 2017.83 1193.81 2018.33 1194.81 2018.97L1197.7 2016.91 1200.11 2017.54 1195.61 2037.05C1195.35 2038.16 1195.17 2039.08 1195.08 2039.8 1194.98 2040.53 1194.93 2041.17 1194.93 2041.73 1194.93 2042.48 1195.08 2043.03 1195.39 2043.36 1195.7 2043.7 1196.14 2043.87 1196.71 2043.87 1197.07 2043.87 1197.42 2043.8 1197.77 2043.66 1198.12 2043.52 1198.5 2043.3 1198.9 2043.01 1199.31 2042.71 1199.76 2042.33 1200.24 2041.86 1200.73 2041.39 1201.28 2040.83 1201.9 2040.18 1202.21 2040.51 1202.54 2040.85 1202.88 2041.17 1203.22 2041.5 1203.54 2041.83 1203.86 2042.14 1202.87 2043.16 1201.97 2044.02 1201.15 2044.75 1200.34 2045.47 1199.55 2046.07 1198.78 2046.54 1198.02 2047 1197.27 2047.34 1196.53 2047.55 1195.8 2047.76 1195.04 2047.86 1194.24 2047.86 1192.81 2047.86 1191.7 2047.4 1190.91 2046.48 1190.11 2045.55 1189.71 2044.29 1189.71 2042.68 1189.71 2041.79 1189.85 2040.93 1190.13 2040.12L1189.71 2039.94C1188.7 2041.35 1187.72 2042.55 1186.77 2043.54 1185.81 2044.54 1184.87 2045.35 1183.94 2046 1183 2046.65 1182.06 2047.12 1181.11 2047.41 1180.15 2047.71 1179.16 2047.86 1178.13 2047.86 1175.76 2047.86 1173.94 2047.01 1172.65 2045.31 1171.36 2043.62 1170.71 2041.15 1170.71 2037.91 1170.71 2035.99 1170.91 2034.14 1171.32 2032.36 1171.73 2030.58 1172.3 2028.91 1173.05 2027.35 1173.79 2025.8 1174.68 2024.38 1175.71 2023.1 1176.75 2021.81 1177.88 2020.72 1179.11 2019.8 1180.34 2018.89 1181.65 2018.18 1183.04 2017.67 1184.43 2017.17 1185.87 2016.91 1187.36 2016.91Z" fill-rule="evenodd"/><text fill="#000000" fill-opacity="0" font-family="Arial,Arial_MSFontService,sans-serif" font-size="30.9468" x="1170.71" y="2043.99">𝑎</text><path d="M1430.1 1968.37C1437.98 1970.45 1444.04 1974.94 1448.27 1981.84 1452.5 1988.75 1454.61 1997.07 1454.61 2006.83 1454.61 2016.61 1452.51 2024.94 1448.29 2031.81 1444.08 2038.69 1438.01 2043.17 1430.1 2045.25L1429.12 2042.13C1435.36 2040.05 1440 2035.94 1443.04 2029.81 1446.08 2023.67 1447.6 2015.88 1447.6 2006.42 1447.6 1997.29 1446.09 1989.71 1443.06 1983.67 1440.04 1977.63 1435.35 1973.57 1429 1971.49ZM1241.41 1968.37 1242.5 1971.49C1236.18 1973.57 1231.5 1977.63 1228.46 1983.67 1225.42 1989.71 1223.9 1997.29 1223.9 2006.42 1223.9 2015.88 1225.42 2023.67 1228.46 2029.81 1231.5 2035.94 1236.14 2040.05 1242.38 2042.13L1241.41 2045.25C1233.49 2043.17 1227.42 2038.69 1223.21 2031.81 1218.99 2024.94 1216.89 2016.61 1216.89 2006.83 1216.89 1997.07 1219 1988.75 1223.23 1981.84 1227.46 1974.94 1233.52 1970.45 1241.41 1968.37Z" fill-rule="evenodd"/><path d="M1405.81 1994.25C1403.02 1994.25 1400.53 1995.37 1398.31 1997.61 1396.09 1999.86 1394.37 2002.86 1393.12 2006.63 1391.88 2010.4 1391.26 2014.16 1391.26 2017.92 1391.26 2020.73 1391.64 2022.83 1392.41 2024.22 1393.18 2025.61 1394.47 2026.31 1396.28 2026.31 1398.07 2026.31 1399.82 2025.54 1401.53 2024 1403.25 2022.46 1405.02 2020.26 1406.84 2017.41 1408.66 2014.56 1409.95 2011.27 1410.71 2007.54L1411.08 2005.8C1411.32 2004.69 1411.48 2003.73 1411.56 2002.92 1411.64 2002.11 1411.68 2001.23 1411.68 2000.29 1411.68 1998.21 1411.24 1996.68 1410.35 1995.71 1409.46 1994.74 1407.94 1994.25 1405.81 1994.25ZM1326.81 1994.25C1324.02 1994.25 1321.53 1995.37 1319.31 1997.61 1317.09 1999.86 1315.37 2002.86 1314.12 2006.63 1312.88 2010.4 1312.26 2014.16 1312.26 2017.92 1312.26 2020.73 1312.64 2022.83 1313.41 2024.22 1314.18 2025.61 1315.47 2026.31 1317.28 2026.31 1319.07 2026.31 1320.82 2025.54 1322.53 2024 1324.25 2022.46 1326.02 2020.26 1327.84 2017.41 1329.66 2014.56 1330.95 2011.27 1331.71 2007.54L1332.08 2005.8C1332.32 2004.69 1332.48 2003.73 1332.56 2002.92 1332.64 2002.11 1332.68 2001.23 1332.68 2000.29 1332.68 1998.21 1332.24 1996.68 1331.35 1995.71 1330.46 1994.74 1328.94 1994.25 1326.81 1994.25ZM1405 1991.05C1406.75 1991.05 1408.39 1991.24 1409.92 1991.64 1411.45 1992.03 1413.02 1992.72 1414.64 1993.72L1418.37 1991.05 1420.96 1991.7 1415.01 2017.39C1414.41 2019.96 1414.12 2021.96 1414.12 2023.39 1414.12 2024.47 1414.29 2025.25 1414.64 2025.74 1414.99 2026.23 1415.55 2026.47 1416.3 2026.47 1417.11 2026.47 1417.98 2026.14 1418.9 2025.48 1419.82 2024.81 1421.11 2023.55 1422.79 2021.69L1425.1 2023.96C1422.67 2026.55 1420.59 2028.39 1418.88 2029.49 1417.16 2030.58 1415.3 2031.13 1413.31 2031.13 1411.63 2031.13 1410.29 2030.58 1409.29 2029.47 1408.29 2028.36 1407.79 2026.89 1407.79 2025.05 1407.79 2023.57 1408.1 2021.98 1408.73 2020.31L1408.2 2020.15C1405.6 2023.93 1403.15 2026.7 1400.82 2028.46 1398.5 2030.21 1396.04 2031.09 1393.45 2031.09 1390.47 2031.09 1388.17 2029.97 1386.54 2027.73 1384.9 2025.48 1384.08 2022.34 1384.08 2018.28 1384.08 2013.64 1385 2009.17 1386.82 2004.89 1388.64 2000.61 1391.15 1997.23 1394.34 1994.76 1397.53 1992.28 1401.08 1991.05 1405 1991.05ZM1326 1991.05C1327.75 1991.05 1329.39 1991.24 1330.92 1991.64 1332.45 1992.03 1334.02 1992.72 1335.64 1993.72L1339.37 1991.05 1341.96 1991.7 1336.01 2017.39C1335.41 2019.96 1335.12 2021.96 1335.12 2023.39 1335.12 2024.47 1335.29 2025.25 1335.64 2025.74 1335.99 2026.23 1336.55 2026.47 1337.3 2026.47 1338.11 2026.47 1338.98 2026.14 1339.9 2025.48 1340.82 2024.81 1342.11 2023.55 1343.79 2021.69L1346.1 2023.96C1343.67 2026.55 1341.59 2028.39 1339.88 2029.49 1338.16 2030.58 1336.3 2031.13 1334.31 2031.13 1332.63 2031.13 1331.29 2030.58 1330.29 2029.47 1329.29 2028.36 1328.79 2026.89 1328.79 2025.05 1328.79 2023.57 1329.1 2021.98 1329.73 2020.31L1329.2 2020.15C1326.6 2023.93 1324.15 2026.7 1321.82 2028.46 1319.5 2030.21 1317.04 2031.09 1314.45 2031.09 1311.47 2031.09 1309.17 2029.97 1307.54 2027.73 1305.9 2025.48 1305.08 2022.34 1305.08 2018.28 1305.08 2013.64 1306 2009.17 1307.82 2004.89 1309.64 2000.61 1312.15 1997.23 1315.34 1994.76 1318.53 1992.28 1322.08 1991.05 1326 1991.05ZM1362.68 1981.73 1368.27 1981.73 1366.04 1991.74 1378.36 1991.74 1377.47 1995.83 1365.15 1995.83 1361.54 2011.56C1360.84 2014.61 1360.39 2016.8 1360.2 2018.14 1360.01 2019.48 1359.92 2020.55 1359.92 2021.36 1359.92 2024.71 1361.31 2026.39 1364.09 2026.39 1365.28 2026.39 1366.55 2025.94 1367.88 2025.03 1369.22 2024.13 1370.81 2022.58 1372.65 2020.39L1375 2022.82C1372.65 2025.66 1370.38 2027.75 1368.21 2029.1 1366.03 2030.45 1363.76 2031.13 1361.38 2031.13 1355.73 2031.13 1352.91 2028.28 1352.91 2022.58 1352.91 2020.77 1353.14 2018.86 1353.6 2016.86L1358.38 1995.83 1351.57 1995.83 1352.18 1993.03C1353.77 1993.01 1354.98 1992.89 1355.81 1992.67 1356.63 1992.45 1357.32 1992.16 1357.87 1991.78 1358.43 1991.4 1358.93 1990.86 1359.39 1990.16 1359.85 1989.45 1360.3 1988.56 1360.73 1987.46 1361.16 1986.37 1361.81 1984.46 1362.68 1981.73ZM1272.24 1978.69C1271.05 1978.69 1269.77 1978.73 1268.39 1978.81L1257.89 2026.75C1258.68 2026.83 1260.18 2026.87 1262.39 2026.87 1266.77 2026.87 1270.48 2026.11 1273.54 2024.58 1276.59 2023.06 1279.22 2020.67 1281.44 2017.41 1283.65 2014.16 1285.29 2010.72 1286.34 2007.12 1287.4 2003.51 1287.92 1999.71 1287.92 1995.71 1287.92 1990.06 1286.61 1985.81 1283.97 1982.96 1281.34 1980.11 1277.43 1978.69 1272.24 1978.69ZM1256.76 1975.16 1272.12 1975.16C1276.2 1975.16 1279.51 1975.47 1282.05 1976.09 1284.59 1976.72 1286.96 1977.84 1289.16 1979.46 1291.36 1981.08 1293.02 1983.23 1294.12 1985.92 1295.23 1988.61 1295.79 1991.79 1295.79 1995.47 1295.79 1999.11 1295.37 2002.6 1294.53 2005.92 1293.69 2009.25 1292.49 2012.31 1290.92 2015.1 1289.36 2017.9 1287.48 2020.33 1285.29 2022.4 1283.1 2024.46 1280.98 2026.05 1278.93 2027.16 1276.87 2028.27 1274.58 2029.1 1272.04 2029.65 1269.5 2030.2 1266.54 2030.48 1263.16 2030.48L1246.14 2030.48 1246.59 2028.5C1247.61 2028.33 1248.38 2028.07 1248.9 2027.71 1249.41 2027.34 1249.84 2026.83 1250.19 2026.19 1250.54 2025.54 1250.87 2024.75 1251.17 2023.81 1251.46 2022.88 1251.91 2021.08 1252.5 2018.4L1259.39 1987.2C1259.99 1984.5 1260.28 1982.32 1260.28 1980.67 1260.28 1979.4 1259.97 1978.52 1259.33 1978.02 1258.7 1977.52 1257.69 1977.23 1256.31 1977.15Z" fill-rule="evenodd"/><text fill="#000000" fill-opacity="0" font-family="Arial,Arial_MSFontService,sans-serif" font-size="55.9683" x="1246.14" y="2024.13">𝐷𝑎𝑡𝑎</text><path d="M0.00991299-4.58332 931.888-2.56782 931.868 6.59883-0.00991299 4.58332ZM927.346-20.911 973.13 2.10472 927.247 24.9222Z" transform="matrix(1 0 0 -1 791.5 1833.6)"/><path d="M0.00991299-4.58332 931.888-2.56782 931.868 6.59883-0.00991299 4.58332ZM927.346-20.911 973.13 2.10472 927.247 24.9222Z" transform="matrix(-1 0 0 1 1764.63 1906.5)"/><path d="M0.00991299-4.58332 931.888-2.56782 931.868 6.59883-0.00991299 4.58332ZM927.346-20.911 973.13 2.10472 927.247 24.9222Z" transform="matrix(1 0 0 -1 2265.5 1833.6)"/><path d="M0.00991299-4.58332 931.888-2.56782 931.868 6.59883-0.00991299 4.58332ZM927.346-20.911 973.13 2.10472 927.247 24.9222Z" transform="matrix(-1 0 0 1 3238.63 1907.5)"/></g></svg>