<svg xmlns="http://www.w3.org/2000/svg" width="3456" height="425" overflow="hidden"><defs><clipPath id="a"><path d="M287 1645h3456v425H287z"/></clipPath></defs><g clip-path="url(#a)" transform="translate(-287 -1645)"><path fill="#d74514" d="M1764 1726h503v272h-503z"/><text fill="#fff" font-family="Microsoft YaHei,Microsoft YaHei_MSFontService,sans-serif" font-size="83" font-weight="700" transform="translate(1855.9 1891)">Mallory</text><path fill="#fdefe8" d="M287 1728h504v272H287z"/><text fill="#d74514" font-family="Microsoft YaHei,Microsoft YaHei_MSFontService,sans-serif" font-size="83" font-weight="700" transform="translate(438.138 1893)">Alice</text><path fill="#fdefe8" d="M3240 1726h503v272h-503z"/><text fill="#d74514" font-family="Microsoft YaHei,Microsoft YaHei_MSFontService,sans-serif" font-size="83" font-weight="700" transform="translate(3408.59 1891)">Bob<tspan x="-1034.08" y="-131" fill="#000" font-weight="400">Mallory </tspan><tspan x="-711.528" y="-131" fill="#000" font-weight="400">的公钥</tspan></text><path fill-rule="evenodd" d="M2999.1 1708.66c-1.67 0-3.43.04-5.27.13l-5.51 24.56h4.22q4.905 0 7.92-1.02c2.01-.67 3.66-1.72 4.94-3.14 1.29-1.42 2.28-3.1 2.98-5.04.7-1.95 1.06-4.08 1.06-6.41 0-3.13-.8-5.43-2.4-6.89-1.59-1.46-4.24-2.19-7.94-2.19m34.02-3.56h16.21l-.44 1.98c-1.03.22-1.77.46-2.21.73-.45.27-.85.68-1.2 1.22s-.71 1.38-1.09 2.53-.85 3.02-1.42 5.61l-2.88 12.93h1.34c1.13 0 2.17-.19 3.1-.56.93-.38 2.02-1.07 3.26-2.07s3.22-2.84 5.94-5.51c2.71-2.68 4.65-4.71 5.79-6.1 1.15-1.39 1.99-2.6 2.52-3.61.52-1.01.79-1.94.79-2.78 0-.67-.27-1.22-.81-1.64q-.81-.63-2.31-.75l.44-1.98h17.39l-.45 1.98c-1.08.17-2.3.73-3.66 1.69-1.37.95-3.46 2.83-6.27 5.61l-15.72 15.32 8.63 20.75c.89 2.13 1.63 3.67 2.21 4.62.58.94 1.28 1.69 2.09 2.25q1.215.825 3 1.11l-.45 1.99h-15.64l.44-1.99c1.46-.13 2.19-.78 2.19-1.94 0-.73-.15-1.56-.44-2.5-.3-.93-.65-1.89-1.06-2.89l-5.27-12.89q-.93-2.31-1.62-3.24c-.46-.63-.94-1.06-1.46-1.3-.51-.24-1.31-.37-2.39-.37h-2.27l-3.36 15.32c-.35 1.63-.58 2.9-.69 3.83-.11.94-.16 1.77-.16 2.5 0 1.21.3 2.07.91 2.57s1.63.8 3.06.91l-.45 1.99h-16.21l.45-1.99c1.02-.16 1.79-.42 2.31-.79.51-.36.94-.87 1.3-1.52.35-.65.67-1.44.97-2.37.29-.93.74-2.73 1.34-5.41l6.88-31.21c.6-2.7.9-4.87.9-6.52 0-1.27-.32-2.16-.96-2.66-.63-.49-1.64-.79-3.02-.87Zm-51 0h17.87c3.22 0 5.86.25 7.93.75 2.06.5 3.77 1.27 5.1 2.31a9.5 9.5 0 0 1 3 3.95q.99 2.385.99 5.55c0 4.05-.95 7.57-2.87 10.54s-4.52 5.16-7.8 6.56c-3.29 1.41-7.23 2.11-11.82 2.11-2.75 0-5.05-.05-6.89-.16l-2.59 11.91c-.24 1.11-.41 1.96-.51 2.56q-.135.885-.24 1.92c-.07.69-.1 1.31-.1 1.85 0 .83.13 1.49.4 1.96s.68.82 1.22 1.04q.81.315 2.79.48l-.44 1.99h-16.66l.45-1.99c1.02-.16 1.79-.42 2.31-.79.51-.36.94-.87 1.3-1.52.35-.65.67-1.44.97-2.37.29-.93.74-2.73 1.34-5.41l6.88-31.21c.6-2.7.9-4.83.9-6.4 0-1.32-.31-2.24-.94-2.75-.62-.52-1.63-.82-3.04-.9Z"/><text x="2971.5" y="1753.5" fill-opacity="0" font-family="Arial,Arial_MSFontService,sans-serif" font-size="55.32">𝑃𝐾</text><path fill-rule="evenodd" d="M3082.29 1746.85c1.47 0 2.6.48 3.41 1.45.8.96 1.21 2.22 1.21 3.79 0 .44-.03.87-.09 1.28-.06.42-.17.83-.33 1.22l.36.15c1.88-2.64 3.77-4.61 5.65-5.92 1.89-1.31 3.83-1.97 5.81-1.97 2.11 0 3.68.54 4.72 1.62 1.05 1.09 1.57 2.68 1.57 4.78v.53c0 .16-.02.34-.06.52h.12c1.84-2.52 3.68-4.4 5.51-5.62 1.82-1.22 3.73-1.83 5.72-1.83 2.1 0 3.67.57 4.72 1.7 1.04 1.13 1.56 2.72 1.56 4.76q0 .93-.3 2.49c-.2 1.04-.44 2.19-.73 3.44-.28 1.25-.6 2.55-.94 3.89-.33 1.34-.65 2.6-.95 3.8-.18.77-.32 1.4-.43 1.89-.11.48-.19.89-.25 1.22s-.1.61-.12.85-.03.49-.03.77c0 .76.14 1.3.41 1.64q.42.51 1.35.51c.35 0 .71-.07 1.07-.21.35-.14.74-.36 1.14-.66.41-.3.86-.68 1.34-1.14.49-.47 1.03-1.03 1.63-1.69l2.05 1.97c-.95.99-1.84 1.85-2.66 2.56-.83.72-1.62 1.31-2.39 1.77-.76.47-1.52.82-2.27 1.04-.76.23-1.55.35-2.39.35-.75 0-1.44-.14-2.05-.42-.62-.28-1.14-.66-1.57-1.15-.42-.48-.76-1.06-.99-1.72a6.5 6.5 0 0 1-.36-2.19c0-1.63.35-3.73 1.04-6.29.38-1.29.72-2.52 1.03-3.71.31-1.18.57-2.27.79-3.27.22-1.01.39-1.9.52-2.68.13-.79.19-1.44.19-1.95 0-1.23-.23-2.14-.7-2.71q-.69-.87-2.19-.87c-.61 0-1.27.16-1.96.48q-1.05.48-2.1 1.32-1.065.855-2.07 2.01a21.6 21.6 0 0 0-3.41 5.37c-.45.99-.79 1.99-1.03 3l-2.95 14.24h-5.81c.28-1.27.59-2.63.94-4.09s.7-2.94 1.06-4.43.7-2.96 1.03-4.41c.32-1.44.62-2.8.88-4.06.25-1.26.46-2.39.62-3.4.16-1 .24-1.8.24-2.39 0-1.26-.24-2.17-.73-2.76s-1.27-.88-2.34-.88c-.95 0-1.97.36-3.07 1.07-1.09.72-2.13 1.66-3.11 2.82q-1.47 1.74-2.64 3.93c-.77 1.46-1.32 2.93-1.63 4.42l-3.04 14.18h-5.84l4.47-19.42c.26-1.07.44-2 .56-2.8.12-.79.18-1.45.18-1.96 0-1.45-.58-2.18-1.75-2.18-.36 0-.72.08-1.09.22-.37.15-.76.38-1.16.68-.41.29-.85.67-1.33 1.13-.48.45-1.01.99-1.61 1.61l-2.05-1.94c.97-.99 1.87-1.85 2.69-2.58.83-.72 1.62-1.32 2.39-1.78.76-.47 1.51-.82 2.24-1.05.74-.23 1.5-.34 2.3-.34"/><text x="3072.67" y="1773.93" fill-opacity="0" font-family="Arial,Arial_MSFontService,sans-serif" font-size="30.947">𝑚</text><text font-family="Microsoft YaHei,Microsoft YaHei_MSFontService,sans-serif" font-size="83" font-weight="400" transform="translate(947.706 1762)">Alice <tspan x="214.271" y="0">的公钥</tspan></text><path fill-rule="evenodd" d="M1464.02 1710.07c-1.67 0-3.43.04-5.27.12l-5.51 24.56h4.22c3.27 0 5.91-.34 7.92-1.01 2.01-.68 3.66-1.72 4.94-3.14 1.29-1.42 2.28-3.1 2.98-5.05.71-1.94 1.06-4.08 1.06-6.4 0-3.14-.8-5.43-2.39-6.89q-2.4-2.19-7.95-2.19m34.02-3.57h16.21l-.44 1.99c-1.03.22-1.77.46-2.21.73-.45.27-.85.67-1.2 1.22-.35.54-.71 1.38-1.09 2.53s-.85 3.02-1.42 5.61l-2.88 12.93h1.34c1.13 0 2.17-.19 3.1-.57s2.02-1.07 3.26-2.06q1.86-1.5 5.94-5.52c2.71-2.67 4.65-4.7 5.79-6.1q1.725-2.085 2.52-3.6c.52-1.02.79-1.94.79-2.78 0-.67-.27-1.22-.81-1.64q-.81-.63-2.31-.75l.44-1.99h17.39l-.45 1.99q-1.62.24-3.66 1.68-2.055 1.44-6.27 5.61l-15.72 15.32 8.63 20.75c.89 2.14 1.63 3.68 2.21 4.62.58.95 1.28 1.7 2.09 2.25.81.56 1.81.93 3 1.12l-.45 1.98h-15.64l.44-1.98q2.19-.21 2.19-1.95c0-.73-.15-1.56-.44-2.49-.3-.93-.65-1.9-1.06-2.9l-5.27-12.89q-.93-2.31-1.62-3.24c-.46-.62-.94-1.05-1.46-1.29-.51-.25-1.31-.37-2.39-.37h-2.27l-3.36 15.32c-.35 1.62-.58 2.9-.69 3.83s-.16 1.76-.16 2.49c0 1.22.3 2.08.91 2.58s1.63.8 3.06.91l-.45 1.98h-16.21l.45-1.98c1.03-.16 1.8-.43 2.31-.79.51-.37.94-.87 1.3-1.52.35-.65.67-1.44.97-2.37s.74-2.74 1.34-5.41l6.89-31.21c.59-2.7.89-4.88.89-6.52 0-1.27-.32-2.16-.96-2.66-.63-.5-1.64-.79-3.01-.87Zm-51 0h17.87c3.22 0 5.86.25 7.93.75 2.06.5 3.77 1.27 5.1 2.31a9.5 9.5 0 0 1 3 3.96q.99 2.385.99 5.55c0 4.05-.95 7.56-2.87 10.53q-2.88 4.47-7.8 6.57c-3.29 1.41-7.22 2.11-11.82 2.11-2.75 0-5.05-.06-6.89-.16l-2.59 11.91a62 62 0 0 0-.51 2.55c-.09.6-.17 1.24-.24 1.93s-.1 1.3-.1 1.84c0 .84.13 1.5.4 1.97s.68.82 1.22 1.03c.54.22 1.47.38 2.8.49l-.45 1.98h-16.66l.45-1.98c1.03-.16 1.8-.43 2.31-.79.51-.37.94-.87 1.3-1.52.35-.65.67-1.44.97-2.37s.74-2.74 1.34-5.41l6.89-31.21c.59-2.7.89-4.84.89-6.4 0-1.33-.31-2.25-.94-2.76-.62-.51-1.63-.81-3.03-.89Z"/><text x="1436.42" y="1754.91" fill-opacity="0" font-family="Arial,Arial_MSFontService,sans-serif" font-size="55.32">𝑃𝐾</text><path fill-rule="evenodd" d="M1557.37 1751.21c-1.18 0-2.27.25-3.28.77s-1.94 1.22-2.77 2.11c-.84.9-1.57 1.93-2.22 3.1s-1.19 2.42-1.64 3.73a26 26 0 0 0-1.01 4.03c-.23 1.38-.34 2.71-.34 3.98 0 2.14.3 3.74.91 4.78.6 1.04 1.58 1.56 2.93 1.56q1.005 0 1.95-.36c.63-.23 1.29-.61 1.98-1.13 1.75-1.37 3.24-3.04 4.47-5 1.23-1.97 2.15-4.29 2.77-6.97.28-1.23.49-2.34.65-3.34.16-.99.24-1.93.24-2.83 0-1.58-.37-2.72-1.12-3.41-.74-.68-1.92-1.02-3.52-1.02m-.54-2.95c1.57 0 2.95.18 4.15.55 1.21.37 2.3.87 3.3 1.5l2.88-2.05 2.42.62-4.5 19.51q-.39 1.665-.54 2.76-.15 1.08-.15 1.92c0 .75.16 1.3.47 1.64.3.33.75.5 1.32.5.36 0 .71-.07 1.06-.21.35-.13.72-.35 1.13-.65s.85-.68 1.34-1.15c.49-.46 1.04-1.03 1.65-1.68.32.34.65.67.99 1 .33.32.66.65.98.97-.99 1.01-1.9 1.88-2.71 2.6-.81.73-1.6 1.32-2.37 1.79-.76.47-1.51.8-2.25 1.01-.73.21-1.5.31-2.29.31-1.43 0-2.54-.46-3.34-1.38-.79-.92-1.19-2.19-1.19-3.8 0-.89.14-1.75.42-2.56l-.42-.18c-1.01 1.41-1.99 2.61-2.95 3.61-.95.99-1.89 1.81-2.83 2.45-.93.65-1.87 1.12-2.83 1.42-.95.29-1.94.44-2.97.44-2.37 0-4.19-.85-5.48-2.54-1.3-1.7-1.94-4.17-1.94-7.4 0-1.93.2-3.78.61-5.56s.98-3.44 1.73-5c.74-1.56 1.63-2.98 2.66-4.26 1.04-1.28 2.17-2.38 3.4-3.29q1.845-1.38 3.93-2.13c1.39-.51 2.83-.76 4.32-.76"/><text x="1540.18" y="1775.34" fill-opacity="0" font-family="Arial,Arial_MSFontService,sans-serif" font-size="30.947">𝑎</text><path fill-rule="evenodd" d="M2575.5 1981.19c-1.67 0-3.43.04-5.26.12l-5.52 24.56h4.22c3.27 0 5.91-.33 7.92-1.01 2.01-.67 3.66-1.72 4.95-3.14 1.28-1.42 2.27-3.1 2.97-5.05.71-1.94 1.06-4.08 1.06-6.4 0-3.13-.8-5.43-2.39-6.89-1.6-1.46-4.24-2.19-7.95-2.19m34.02-3.56h16.21l-.44 1.98c-1.03.22-1.77.46-2.21.73-.45.27-.85.68-1.2 1.22s-.71 1.38-1.09 2.53-.85 3.02-1.42 5.61l-2.88 12.93h1.34c1.14 0 2.17-.19 3.1-.57.93-.37 2.02-1.06 3.26-2.06 1.25-1 3.23-2.84 5.94-5.51 2.72-2.68 4.65-4.71 5.8-6.1 1.14-1.4 1.98-2.6 2.51-3.61s.79-1.94.79-2.78c0-.67-.27-1.22-.81-1.64q-.81-.63-2.31-.75l.44-1.98h17.39l-.45 1.98c-1.08.16-2.3.73-3.66 1.68-1.37.96-3.45 2.83-6.26 5.62l-15.73 15.32 8.63 20.75c.89 2.13 1.63 3.67 2.21 4.62.58.94 1.28 1.69 2.09 2.25q1.215.825 3 1.11l-.45 1.99h-15.64l.44-1.99c1.46-.13 2.19-.78 2.19-1.94 0-.73-.15-1.57-.44-2.5-.3-.93-.65-1.9-1.06-2.9l-5.26-12.88c-.63-1.54-1.17-2.62-1.63-3.24-.46-.63-.94-1.06-1.45-1.3-.52-.24-1.32-.37-2.4-.37h-2.27l-3.36 15.32c-.35 1.62-.58 2.9-.69 3.83s-.16 1.77-.16 2.5c0 1.21.3 2.07.91 2.57s1.63.8 3.06.91l-.44 1.99h-16.22l.45-1.99c1.03-.16 1.8-.43 2.31-.79s.95-.87 1.3-1.52.67-1.44.97-2.37.74-2.74 1.34-5.41l6.89-31.21c.59-2.7.89-4.87.89-6.52 0-1.27-.32-2.16-.95-2.66-.64-.5-1.65-.79-3.02-.87Zm-51 0h17.88q4.815 0 7.92.75t5.1 2.31a9.5 9.5 0 0 1 3 3.95c.67 1.59 1 3.44 1 5.55 0 4.05-.96 7.57-2.88 10.54s-4.52 5.16-7.8 6.56c-3.28 1.41-7.22 2.11-11.82 2.11-2.75 0-5.05-.05-6.89-.16l-2.59 11.91c-.24 1.11-.41 1.96-.51 2.56q-.135.885-.24 1.92c-.07.69-.1 1.3-.1 1.85 0 .83.13 1.49.4 1.96.28.47.68.82 1.22 1.03.54.22 1.47.38 2.8.49l-.45 1.99h-16.66l.45-1.99c1.03-.16 1.8-.43 2.31-.79s.95-.87 1.3-1.52.67-1.44.97-2.37.74-2.74 1.34-5.41l6.89-31.21c.59-2.7.89-4.83.89-6.4q0-1.98-.93-2.76c-.62-.51-1.64-.81-3.04-.89Z"/><text x="2547.9" y="2026.03" fill-opacity="0" font-family="Arial,Arial_MSFontService,sans-serif" font-size="55.32">𝑃𝐾</text><path fill-rule="evenodd" d="M2658.69 2019.38c1.47 0 2.61.48 3.41 1.44.81.97 1.21 2.23 1.21 3.8 0 .44-.03.87-.09 1.28-.06.42-.17.83-.33 1.22l.36.15c1.88-2.64 3.77-4.61 5.66-5.92 1.88-1.32 3.82-1.97 5.8-1.97 2.11 0 3.68.54 4.73 1.62 1.04 1.08 1.56 2.68 1.56 4.78v.52c0 .17-.02.35-.06.53h.12c1.85-2.53 3.68-4.4 5.51-5.62s3.73-1.83 5.72-1.83c2.1 0 3.68.57 4.72 1.7s1.56 2.72 1.56 4.76q0 .93-.3 2.49c-.19 1.04-.44 2.19-.72 3.44-.29 1.25-.61 2.55-.94 3.89-.34 1.34-.66 2.6-.96 3.79-.17.78-.32 1.41-.43 1.9-.11.48-.19.89-.25 1.22-.06.32-.1.61-.12.85-.02.23-.03.49-.03.77 0 .75.14 1.3.42 1.64.27.34.72.5 1.34.5.35 0 .71-.06 1.07-.2s.74-.36 1.15-.66c.4-.3.85-.68 1.34-1.15q.72-.69 1.62-1.68l2.05 1.97c-.95.99-1.84 1.84-2.66 2.56-.82.71-1.62 1.3-2.38 1.77-.77.47-1.53.82-2.28 1.04-.76.23-1.55.35-2.39.35-.75 0-1.43-.14-2.05-.42s-1.14-.66-1.56-1.15c-.43-.48-.76-1.06-1-1.73a6.4 6.4 0 0 1-.36-2.18c0-1.63.35-3.73 1.04-6.29.38-1.29.72-2.53 1.03-3.71s.57-2.27.79-3.27c.22-1.01.39-1.9.52-2.68.13-.79.2-1.44.2-1.96 0-1.23-.24-2.13-.7-2.71-.47-.57-1.2-.86-2.19-.86-.62 0-1.27.16-1.97.48-.69.31-1.39.76-2.1 1.32q-1.05.855-2.07 2.01c-.67.78-1.3 1.62-1.88 2.52-.57.9-1.08 1.85-1.53 2.84-.45 1-.79 2-1.03 3.01l-2.95 14.24h-5.8c.27-1.27.59-2.64.93-4.1.35-1.45.7-2.93 1.06-4.42s.7-2.96 1.03-4.41.62-2.8.88-4.06.46-2.4.62-3.4q.24-1.5.24-2.4c0-1.25-.24-2.16-.73-2.75s-1.26-.88-2.34-.88c-.95 0-1.97.36-3.06 1.07-1.1.72-2.13 1.66-3.12 2.82a22 22 0 0 0-2.63 3.93c-.78 1.46-1.32 2.93-1.64 4.42l-3.04 14.18h-5.84l4.47-19.42c.26-1.07.45-2.01.57-2.8s.17-1.45.17-1.97c0-1.45-.58-2.17-1.75-2.17-.36 0-.72.07-1.09.22s-.75.38-1.16.67c-.41.3-.85.68-1.33 1.14-.47.45-1.01.99-1.61 1.6l-2.05-1.93q1.455-1.485 2.7-2.58c.82-.72 1.61-1.32 2.38-1.79.76-.46 1.51-.81 2.25-1.04.73-.23 1.5-.34 2.29-.34"/><text x="2649.07" y="2046.46" fill-opacity="0" font-family="Arial,Arial_MSFontService,sans-serif" font-size="30.947">𝑚</text><path fill-rule="evenodd" d="M2928.94 1970.83c7.89 2.08 13.95 6.57 18.18 13.48 4.23 6.9 6.34 15.23 6.34 24.98 0 9.78-2.11 18.11-6.32 24.99-4.21 6.87-10.28 11.35-18.2 13.43l-.97-3.12c6.24-2.08 10.88-6.19 13.92-12.32s4.56-13.93 4.56-23.38c0-9.13-1.51-16.72-4.54-22.76-3.02-6.04-7.71-10.1-14.06-12.18Zm-188.69 0 1.1 3.12q-9.48 3.12-14.04 12.18c-3.04 6.04-4.56 13.63-4.56 22.76 0 9.45 1.52 17.25 4.56 23.38s7.68 10.24 13.92 12.32l-.98 3.12c-7.91-2.08-13.98-6.56-18.19-13.43-4.22-6.88-6.32-15.21-6.32-24.99 0-9.75 2.11-18.08 6.34-24.98 4.23-6.91 10.28-11.4 18.17-13.48m164.41 25.88c-2.79 0-5.29 1.13-7.5 3.37-2.22 2.24-3.95 5.25-5.19 9.02-1.24 3.76-1.86 7.53-1.86 11.28 0 2.81.38 4.91 1.15 6.3.77 1.4 2.06 2.09 3.87 2.09 1.79 0 3.53-.77 5.25-2.31s3.49-3.73 5.31-6.58q2.73-4.275 3.87-9.87l.36-1.74c.25-1.11.41-2.07.49-2.88q.12-1.215.12-2.64c0-2.08-.44-3.6-1.33-4.58-.9-.97-2.41-1.46-4.54-1.46m-79 0c-2.79 0-5.29 1.13-7.5 3.37-2.22 2.24-3.95 5.25-5.19 9.02-1.24 3.76-1.86 7.53-1.86 11.28 0 2.81.38 4.91 1.15 6.3.77 1.4 2.06 2.09 3.87 2.09 1.79 0 3.53-.77 5.25-2.31s3.49-3.73 5.31-6.58q2.73-4.275 3.87-9.87l.36-1.74c.25-1.11.41-2.07.49-2.88q.12-1.215.12-2.64c0-2.08-.44-3.6-1.33-4.58-.9-.97-2.41-1.46-4.54-1.46m78.19-3.2c1.75 0 3.39.2 4.92.59s3.1 1.09 4.72 2.09l3.73-2.68 2.59.65-5.95 25.7c-.6 2.56-.9 4.56-.9 5.99 0 1.08.18 1.87.53 2.35.35.49.91.73 1.66.73.81 0 1.68-.33 2.6-.99s2.21-1.92 3.89-3.79l2.31 2.27c-2.43 2.6-4.51 4.44-6.22 5.53-1.72 1.1-3.58 1.64-5.58 1.64-1.67 0-3.01-.55-4.01-1.66-1-1.1-1.5-2.58-1.5-4.41 0-1.49.31-3.07.93-4.75l-.52-.16q-3.9 5.67-7.38 8.31c-2.32 1.76-4.78 2.63-7.37 2.63-2.98 0-5.28-1.12-6.91-3.36-1.64-2.24-2.46-5.39-2.46-9.44 0-4.65.92-9.11 2.74-13.4 1.82-4.28 4.33-7.66 7.52-10.13s6.74-3.71 10.66-3.71m-79 0c1.75 0 3.39.2 4.92.59s3.1 1.09 4.72 2.09l3.73-2.68 2.59.65-5.95 25.7c-.6 2.56-.9 4.56-.9 5.99 0 1.08.18 1.87.53 2.35.35.49.91.73 1.66.73.81 0 1.68-.33 2.6-.99s2.21-1.92 3.89-3.79l2.31 2.27c-2.43 2.6-4.51 4.44-6.22 5.53-1.72 1.1-3.58 1.64-5.58 1.64-1.67 0-3.01-.55-4.01-1.66-1-1.1-1.5-2.58-1.5-4.41 0-1.49.31-3.07.93-4.75l-.52-.16q-3.9 5.67-7.38 8.31c-2.32 1.76-4.78 2.63-7.37 2.63-2.98 0-5.28-1.12-6.91-3.36-1.64-2.24-2.46-5.39-2.46-9.44 0-4.65.92-9.11 2.74-13.4 1.82-4.28 4.33-7.66 7.52-10.13s6.74-3.71 10.66-3.71m36.67-9.32h5.6l-2.23 10.01h12.32l-.89 4.1H2864l-3.61 15.72c-.7 3.05-1.15 5.25-1.34 6.59-.19 1.33-.28 2.41-.28 3.22 0 3.35 1.39 5.02 4.17 5.02 1.19 0 2.45-.45 3.79-1.35 1.34-.91 2.93-2.46 4.76-4.65l2.35 2.44c-2.35 2.83-4.61 4.93-6.78 6.28-2.18 1.35-4.46 2.02-6.83 2.02-5.65 0-8.47-2.85-8.47-8.55 0-1.81.23-3.71.69-5.71l4.78-21.03h-6.81l.61-2.8c1.59-.03 2.8-.15 3.62-.37.83-.21 1.52-.51 2.07-.89.56-.38 1.06-.92 1.52-1.62s.91-1.6 1.34-2.69c.43-1.1 1.08-3.01 1.94-5.74m-90.43-3.04c-1.19 0-2.47.04-3.85.12l-10.5 47.95q1.17.12 4.5.12c4.38 0 8.09-.76 11.14-2.29 3.06-1.53 5.69-3.92 7.91-7.17 2.21-3.26 3.85-6.69 4.9-10.3 1.05-3.6 1.58-7.41 1.58-11.41 0-5.64-1.32-9.89-3.95-12.74s-6.54-4.28-11.73-4.28m-15.48-3.52h15.36q6.12 0 9.93.93t7.11 3.36c2.2 1.62 3.85 3.78 4.96 6.47 1.11 2.68 1.66 5.87 1.66 9.54 0 3.65-.41 7.13-1.25 10.46-.84 3.32-2.04 6.38-3.61 9.18-1.57 2.79-3.44 5.22-5.63 7.29s-4.31 3.66-6.37 4.76c-2.05 1.11-4.35 1.94-6.88 2.5-2.54.55-5.5.83-8.88.83h-17.02l.44-1.99c1.03-.16 1.8-.43 2.31-.79.52-.36.95-.87 1.3-1.52s.68-1.44.97-2.37c.3-.93.75-2.74 1.34-5.41l6.89-31.21c.59-2.7.89-4.87.89-6.52 0-1.27-.32-2.16-.95-2.66-.64-.5-1.64-.79-3.02-.87Z"/><text x="2744.99" y="2026.6" fill-opacity="0" font-family="Arial,Arial_MSFontService,sans-serif" font-size="55.968">𝐷𝑎𝑡𝑎</text><path fill-rule="evenodd" d="M1094.55 1978.73c-1.67 0-3.43.04-5.27.12l-5.51 24.56h4.22c3.27 0 5.91-.34 7.92-1.01 2.01-.68 3.66-1.73 4.95-3.14 1.28-1.42 2.27-3.1 2.97-5.05.71-1.95 1.06-4.08 1.06-6.4 0-3.14-.8-5.43-2.39-6.89q-2.4-2.19-7.95-2.19m34.02-3.57h16.21l-.44 1.99c-1.03.21-1.77.46-2.21.73-.45.27-.85.67-1.2 1.21s-.71 1.39-1.09 2.54c-.38 1.14-.85 3.02-1.42 5.61l-2.88 12.93h1.34c1.14 0 2.17-.19 3.1-.57s2.02-1.07 3.26-2.07c1.25-1 3.23-2.83 5.94-5.51 2.72-2.67 4.65-4.71 5.8-6.1 1.14-1.39 1.98-2.59 2.51-3.61.53-1.01.79-1.93.79-2.77 0-.68-.27-1.22-.81-1.64q-.81-.63-2.31-.75l.44-1.99h17.39l-.45 1.99q-1.62.24-3.66 1.68c-1.37.96-3.45 2.83-6.26 5.61l-15.73 15.32 8.63 20.75c.89 2.14 1.63 3.68 2.21 4.62.58.95 1.28 1.7 2.09 2.25.81.56 1.81.93 3 1.12l-.45 1.98h-15.64l.44-1.98q2.19-.21 2.19-1.95c0-.73-.15-1.56-.44-2.49-.3-.93-.65-1.9-1.06-2.9l-5.27-12.89q-.93-2.31-1.62-3.24c-.46-.62-.94-1.05-1.46-1.3-.51-.24-1.31-.36-2.39-.36h-2.27l-3.36 15.32c-.35 1.62-.58 2.9-.69 3.83s-.16 1.76-.16 2.49c0 1.22.3 2.07.91 2.57s1.63.81 3.06.92l-.44 1.98h-16.22l.45-1.98c1.03-.17 1.8-.43 2.31-.79.51-.37.95-.88 1.3-1.52.35-.65.67-1.44.97-2.38.3-.93.74-2.73 1.34-5.41l6.89-31.2c.59-2.7.89-4.88.89-6.53 0-1.27-.32-2.15-.95-2.65-.64-.5-1.65-.79-3.02-.87Zm-51 0h17.87c3.22 0 5.86.25 7.93.75 2.06.5 3.77 1.27 5.1 2.31a9.55 9.55 0 0 1 3 3.95c.67 1.6 1 3.45 1 5.56q0 6.075-2.88 10.53t-7.8 6.57c-3.29 1.4-7.22 2.11-11.82 2.11-2.75 0-5.05-.06-6.89-.17l-2.59 11.92a62 62 0 0 0-.51 2.55c-.09.6-.17 1.24-.24 1.93s-.1 1.3-.1 1.84c0 .84.13 1.49.4 1.97.27.47.68.81 1.22 1.03s1.47.38 2.8.49l-.45 1.98h-16.66l.45-1.98c1.03-.17 1.8-.43 2.31-.79.51-.37.95-.88 1.3-1.52.35-.65.67-1.44.97-2.38.3-.93.74-2.73 1.34-5.41l6.89-31.2c.59-2.7.89-4.84.89-6.4q0-1.995-.93-2.76c-.63-.51-1.64-.81-3.04-.89Z"/><text x="1066.95" y="2023.57" fill-opacity="0" font-family="Arial,Arial_MSFontService,sans-serif" font-size="55.32">𝑃𝐾</text><path fill-rule="evenodd" d="M1187.9 2019.86c-1.17 0-2.27.26-3.28.78a9.9 9.9 0 0 0-2.77 2.11c-.83.9-1.57 1.93-2.22 3.1a24 24 0 0 0-1.64 3.72c-.44 1.31-.78 2.66-1.01 4.04s-.34 2.7-.34 3.98c0 2.14.3 3.73.91 4.78.6 1.04 1.58 1.56 2.93 1.56q1.02 0 1.95-.36c.63-.24 1.29-.61 1.98-1.13 1.75-1.37 3.24-3.04 4.47-5 1.23-1.97 2.15-4.29 2.77-6.97.28-1.23.5-2.35.66-3.34.15-.99.23-1.93.23-2.83 0-1.59-.37-2.72-1.11-3.41-.75-.68-1.92-1.03-3.53-1.03m-.54-2.95c1.57 0 2.95.19 4.16.56 1.2.36 2.29.86 3.29 1.5l2.89-2.06 2.41.63-4.5 19.51c-.26 1.11-.44 2.03-.53 2.75-.1.73-.15 1.37-.15 1.93 0 .75.15 1.3.46 1.63q.465.51 1.32.51c.36 0 .71-.07 1.06-.21s.73-.36 1.13-.65c.41-.3.86-.68 1.34-1.15.49-.47 1.04-1.03 1.66-1.68.31.33.64.67.98.99.34.33.66.66.98.97-.99 1.02-1.89 1.88-2.71 2.61-.81.72-1.6 1.32-2.37 1.79-.76.46-1.51.8-2.25 1.01-.73.21-1.49.31-2.29.31q-2.145 0-3.33-1.38c-.8-.93-1.2-2.19-1.2-3.8 0-.89.14-1.75.42-2.56l-.42-.18q-1.515 2.115-2.94 3.6c-.96 1-1.9 1.81-2.83 2.46-.94.65-1.88 1.12-2.83 1.41-.96.3-1.95.45-2.98.45-2.37 0-4.19-.85-5.48-2.55-1.29-1.69-1.94-4.16-1.94-7.4 0-1.92.2-3.77.61-5.55s.98-3.45 1.73-5.01c.74-1.55 1.63-2.97 2.66-4.25 1.04-1.29 2.17-2.38 3.4-3.3q1.845-1.365 3.93-2.13c1.39-.5 2.83-.76 4.32-.76"/><text x="1170.71" y="2043.99" fill-opacity="0" font-family="Arial,Arial_MSFontService,sans-serif" font-size="30.947">𝑎</text><path fill-rule="evenodd" d="M1430.1 1968.37c7.88 2.08 13.94 6.57 18.17 13.47 4.23 6.91 6.34 15.23 6.34 24.99 0 9.78-2.1 18.11-6.32 24.98-4.21 6.88-10.28 11.36-18.19 13.44l-.98-3.12c6.24-2.08 10.88-6.19 13.92-12.32 3.04-6.14 4.56-13.93 4.56-23.39 0-9.13-1.51-16.71-4.54-22.75-3.02-6.04-7.71-10.1-14.06-12.18Zm-188.69 0 1.09 3.12q-9.48 3.12-14.04 12.18c-3.04 6.04-4.56 13.62-4.56 22.75 0 9.46 1.52 17.25 4.56 23.39 3.04 6.13 7.68 10.24 13.92 12.32l-.97 3.12c-7.92-2.08-13.99-6.56-18.2-13.44-4.22-6.87-6.32-15.2-6.32-24.98 0-9.76 2.11-18.08 6.34-24.99q6.345-10.35 18.18-13.47m164.4 25.88c-2.79 0-5.28 1.12-7.5 3.36-2.22 2.25-3.94 5.25-5.19 9.02-1.24 3.77-1.86 7.53-1.86 11.29 0 2.81.38 4.91 1.15 6.3s2.06 2.09 3.87 2.09q2.685 0 5.25-2.31c1.72-1.54 3.49-3.74 5.31-6.59q2.73-4.275 3.87-9.87l.37-1.74q.36-1.665.48-2.88c.08-.81.12-1.69.12-2.63 0-2.08-.44-3.61-1.33-4.58s-2.41-1.46-4.54-1.46m-79 0c-2.79 0-5.28 1.12-7.5 3.36-2.22 2.25-3.94 5.25-5.19 9.02-1.24 3.77-1.86 7.53-1.86 11.29 0 2.81.38 4.91 1.15 6.3s2.06 2.09 3.87 2.09q2.685 0 5.25-2.31c1.72-1.54 3.49-3.74 5.31-6.59q2.73-4.275 3.87-9.87l.37-1.74q.36-1.665.48-2.88c.08-.81.12-1.69.12-2.63 0-2.08-.44-3.61-1.33-4.58s-2.41-1.46-4.54-1.46m78.19-3.2c1.75 0 3.39.19 4.92.59 1.53.39 3.1 1.08 4.72 2.08l3.73-2.67 2.59.65-5.95 25.69c-.6 2.57-.89 4.57-.89 6 0 1.08.17 1.86.52 2.35s.91.73 1.66.73c.81 0 1.68-.33 2.6-.99.92-.67 2.21-1.93 3.89-3.79l2.31 2.27c-2.43 2.59-4.51 4.43-6.22 5.53-1.72 1.09-3.58 1.64-5.57 1.64-1.68 0-3.02-.55-4.02-1.66s-1.5-2.58-1.5-4.42c0-1.48.31-3.07.94-4.74l-.53-.16c-2.6 3.78-5.05 6.55-7.38 8.31-2.32 1.75-4.78 2.63-7.37 2.63-2.98 0-5.28-1.12-6.91-3.36-1.64-2.25-2.46-5.39-2.46-9.45 0-4.64.92-9.11 2.74-13.39s4.33-7.66 7.52-10.13c3.19-2.48 6.74-3.71 10.66-3.71m-79 0c1.75 0 3.39.19 4.92.59 1.53.39 3.1 1.08 4.72 2.08l3.73-2.67 2.59.65-5.95 25.69c-.6 2.57-.89 4.57-.89 6 0 1.08.17 1.86.52 2.35s.91.73 1.66.73c.81 0 1.68-.33 2.6-.99.92-.67 2.21-1.93 3.89-3.79l2.31 2.27c-2.43 2.59-4.51 4.43-6.22 5.53-1.72 1.09-3.58 1.64-5.57 1.64-1.68 0-3.02-.55-4.02-1.66s-1.5-2.58-1.5-4.42c0-1.48.31-3.07.94-4.74l-.53-.16c-2.6 3.78-5.05 6.55-7.38 8.31-2.32 1.75-4.78 2.63-7.37 2.63-2.98 0-5.28-1.12-6.91-3.36-1.64-2.25-2.46-5.39-2.46-9.45 0-4.64.92-9.11 2.74-13.39s4.33-7.66 7.52-10.13c3.19-2.48 6.74-3.71 10.66-3.71m36.68-9.32h5.59l-2.23 10.01h12.32l-.89 4.09h-12.32l-3.61 15.73c-.7 3.05-1.15 5.24-1.34 6.58s-.28 2.41-.28 3.22c0 3.35 1.39 5.03 4.17 5.03 1.19 0 2.46-.45 3.79-1.36 1.34-.9 2.93-2.45 4.77-4.64l2.35 2.43c-2.35 2.84-4.62 4.93-6.79 6.28-2.18 1.35-4.45 2.03-6.83 2.03-5.65 0-8.47-2.85-8.47-8.55 0-1.81.23-3.72.69-5.72l4.78-21.03h-6.81l.61-2.8q2.385-.03 3.63-.36c.82-.22 1.51-.51 2.06-.89.56-.38 1.06-.92 1.52-1.62.46-.71.91-1.6 1.34-2.7q.645-1.635 1.95-5.73m-90.44-3.04c-1.19 0-2.47.04-3.85.12l-10.5 47.94q1.185.12 4.5.12c4.38 0 8.09-.76 11.15-2.29 3.05-1.52 5.68-3.91 7.9-7.17 2.21-3.25 3.85-6.69 4.9-10.29 1.06-3.61 1.58-7.41 1.58-11.41 0-5.65-1.31-9.9-3.95-12.75-2.63-2.85-6.54-4.27-11.73-4.27m-15.48-3.53h15.36q6.12 0 9.93.93c2.54.63 4.91 1.75 7.11 3.37s3.86 3.77 4.96 6.46c1.11 2.69 1.67 5.87 1.67 9.55 0 3.64-.42 7.13-1.26 10.45-.84 3.33-2.04 6.39-3.61 9.18-1.56 2.8-3.44 5.23-5.63 7.3-2.19 2.06-4.31 3.65-6.36 4.76-2.06 1.11-4.35 1.94-6.89 2.49s-5.5.83-8.88.83h-17.02l.45-1.98c1.02-.17 1.79-.43 2.31-.79.51-.37.94-.88 1.29-1.52.35-.65.68-1.44.98-2.38.29-.93.74-2.73 1.33-5.41l6.89-31.2c.6-2.7.89-4.88.89-6.53 0-1.27-.31-2.15-.95-2.65-.63-.5-1.64-.79-3.02-.87Z"/><text x="1246.14" y="2024.13" fill-opacity="0" font-family="Arial,Arial_MSFontService,sans-serif" font-size="55.968">𝐷𝑎𝑡𝑎</text><path d="m791.51 1838.183 931.878-2.015-.02-9.167-931.878 2.016Zm927.336 16.328 45.784-23.016-45.883-22.817Zm45.774 47.406-931.878 2.015.02 9.167 931.878-2.016Zm-927.336-16.328-45.784 23.016 45.883 22.817Zm1428.226-47.406 931.878-2.015-.02-9.167-931.878 2.016Zm927.336 16.328 45.784-23.016-45.883-22.817Zm45.774 48.406-931.878 2.015.02 9.167 931.878-2.016Zm-927.336-16.328-45.784 23.016 45.883 22.817Z"/></g></svg>