<svg xmlns="http://www.w3.org/2000/svg" width="834" height="1091" overflow="hidden"><defs><clipPath id="a"><path d="M585 527h834v1091H585z"/></clipPath></defs><g clip-path="url(#a)" transform="translate(-585 -527)"><path fill="#d74514" d="M642 724h661v158H642z"/><text fill="#fff" font-family="Courier New,Courier New_MSFontService,sans-serif" font-size="83" font-weight="700" transform="translate(726.258 826)">1 3 7 8 14</text><path fill="#f0835c" d="M585 1440h330v158H585z"/><text fill="#fff" font-family="Courier New,Courier New_MSFontService,sans-serif" font-size="83" font-weight="700" transform="translate(676.414 1542)">1 3</text><path fill="#d74514" d="M856 1174h234v158H856z"/><text fill="#fff" font-family="Courier New,Courier New_MSFontService,sans-serif" font-size="83" font-weight="700" transform="translate(947.976 1277)">7</text><path fill="#f0835c" d="M1030 1440h389v158h-389z"/><text fill="#fff" font-family="Courier New,Courier New_MSFontService,sans-serif" font-size="83" font-weight="700" transform="translate(1125.98 1542)">8 14</text><path fill="none" stroke="#000" stroke-miterlimit="8" stroke-width="9.167" d="M855.743 1332.5 750.5 1440.328m340-107.828 134.86 107.83"/><path fill="#d74514" fill-rule="evenodd" d="M799 1028h87v-74h174v74h87l-174 74Zm-7-427h87v-74h174v74h87l-174 74Z"/></g></svg>