<svg xmlns="http://www.w3.org/2000/svg" width="1681" height="736" overflow="hidden"><defs><clipPath id="a"><path d="M2152 870h1681v736H2152z"/></clipPath></defs><g clip-path="url(#a)" transform="translate(-2152 -870)"><path fill="#f0835c" fill-rule="evenodd" stroke="#000" stroke-miterlimit="8" stroke-width="9.167" d="M2406.5 954.5c0-43.63 35.37-79 79-79s79 35.37 79 79-35.37 79-79 79-79-35.369-79-79Z"/><text font-family="Courier New,Courier New_MSFontService,sans-serif" font-size="83" font-weight="700" transform="translate(2459.96 977)">G</text><path fill="#f8ccb9" fill-rule="evenodd" stroke="red" stroke-miterlimit="8" stroke-width="9.167" d="M2156.5 1204.5c0-43.63 35.15-79 78.5-79s78.5 35.37 78.5 79-35.15 79-78.5 79-78.5-35.37-78.5-79Z"/><text fill="red" font-family="Courier New,Courier New_MSFontService,sans-serif" font-size="83" font-weight="700" transform="translate(2209.91 1227)">P</text><path fill="#f8ccb9" fill-rule="evenodd" stroke="#000" stroke-miterlimit="8" stroke-width="9.167" d="M2670.5 1204.5c0-43.63 35.37-79 79-79s79 35.37 79 79-35.37 79-79 79-79-35.37-79-79Z"/><text font-family="Courier New,Courier New_MSFontService,sans-serif" font-size="83" font-weight="700" transform="translate(2724.5 1227)">U</text><path fill="#fdefe8" fill-rule="evenodd" stroke="red" stroke-miterlimit="8" stroke-width="9.167" d="M2290.5 1507.5c0-43.63 35.37-79 79-79s79 35.37 79 79-35.37 79-79 79-79-35.37-79-79Z"/><text fill="red" font-family="Courier New,Courier New_MSFontService,sans-serif" font-size="83" font-weight="700" transform="translate(2344.63 1530)">x</text><path fill="none" stroke="#000" stroke-miterlimit="8" stroke-width="9.167" d="m2290.5 1148.89 138.445-138.393m264.495 138.393L2540.5 1010.5m-171.09 418.38-78.91-168.38"/><path fill="#f0835c" fill-rule="evenodd" stroke="#000" stroke-miterlimit="8" stroke-width="9.167" d="M3406.5 953.5c0-43.63 35.37-79 79-79s79 35.37 79 79-35.37 79-79 79-79-35.369-79-79Z"/><text font-family="Courier New,Courier New_MSFontService,sans-serif" font-size="83" font-weight="700" transform="translate(3460.4 976)">G</text><path fill="#f8ccb9" fill-rule="evenodd" stroke="red" stroke-miterlimit="8" stroke-width="9.167" d="M3156.5 1203.5c0-43.63 35.37-79 79-79s79 35.37 79 79-35.37 79-79 79-79-35.37-79-79Z"/><text fill="red" font-family="Courier New,Courier New_MSFontService,sans-serif" font-size="83" font-weight="700" transform="translate(3210.35 1226)">P</text><path fill="#fdefe8" fill-rule="evenodd" stroke="red" stroke-miterlimit="8" stroke-width="9.167" d="M2998.5 1506.5c0-43.63 35.37-79 79-79s79 35.37 79 79-35.37 79-79 79-79-35.37-79-79Z"/><text fill="red" font-family="Courier New,Courier New_MSFontService,sans-serif" font-size="83" font-weight="700" transform="translate(3052.53 1529)">x</text><path fill="#f8ccb9" fill-rule="evenodd" stroke="#000" stroke-miterlimit="8" stroke-width="9.167" d="M3671.5 1203.5c0-43.63 35.15-79 78.5-79s78.5 35.37 78.5 79-35.15 79-78.5 79-78.5-35.37-78.5-79Z"/><text font-family="Courier New,Courier New_MSFontService,sans-serif" font-size="83" font-weight="700" transform="translate(3724.94 1226)">U</text><path fill="none" stroke="#000" stroke-miterlimit="8" stroke-width="9.167" d="m3291.5 1147.89 138.445-138.393m264.495 138.393L3541.5 1009.5m-464 418.38 102.026-168.381"/><path fill="#d74514" fill-rule="evenodd" d="M2910 1146.5h90V1090l90 113-90 113v-56.5h-90Z"/></g></svg>