<svg xmlns="http://www.w3.org/2000/svg" width="2181" height="1062" overflow="hidden"><defs><clipPath id="a"><path d="M242 116h2181v1062H242z"/></clipPath></defs><g clip-path="url(#a)" transform="translate(-242 -116)"><path fill="#d74514" fill-rule="evenodd" stroke="#d74514" stroke-miterlimit="8" stroke-width="9.167" d="M758.5 199.5c0-43.63 35.146-79 78.5-79s78.5 35.37 78.5 79-35.146 79-78.5 79-78.5-35.37-78.5-79Z"/><text fill="#fff" font-family="Courier New,Courier New_MSFontService,sans-serif" font-size="83" font-weight="700" transform="translate(811.848 223)">x</text><path fill="#d74514" fill-rule="evenodd" stroke="#d74514" stroke-miterlimit="8" stroke-width="9.167" d="M508.5 449.5c0-43.63 35.146-79 78.5-79s78.5 35.37 78.5 79-35.146 79-78.5 79-78.5-35.37-78.5-79Z"/><text fill="#fff" font-family="Courier New,Courier New_MSFontService,sans-serif" font-size="83" font-weight="700" transform="translate(561.803 473)">y</text><path fill="#d74514" fill-rule="evenodd" stroke="#d74514" stroke-miterlimit="8" stroke-width="9.167" d="M350.5 752.5c0-43.631 35.37-79 79-79s79 35.369 79 79-35.37 79-79 79-79-35.37-79-79Z"/><text fill="#fff" font-family="Courier New,Courier New_MSFontService,sans-serif" font-size="83" font-weight="700" transform="translate(403.977 776)">z</text><path fill="#fdefe8" fill-rule="evenodd" stroke="#d74514" stroke-miterlimit="8" stroke-width="9.167" d="M1022.5 449.5c0-43.63 35.37-79 79-79s79 35.37 79 79-35.37 79-79 79-79-35.37-79-79Z"/><text fill="#d74514" font-family="Courier New,Courier New_MSFontService,sans-serif" font-size="83" font-weight="700" transform="translate(1076.39 473)">A</text><path fill="#fdefe8" fill-rule="evenodd" stroke="#d74514" stroke-miterlimit="8" stroke-width="9.167" d="M642.5 752.5c0-43.631 35.369-79 79-79s79 35.369 79 79-35.369 79-79 79-79-35.37-79-79Z"/><text fill="#d74514" font-family="Courier New,Courier New_MSFontService,sans-serif" font-size="83" font-weight="700" transform="translate(696.516 776)">B</text><path fill="#fdefe8" fill-rule="evenodd" stroke="#d74514" stroke-miterlimit="8" stroke-width="9.167" d="M246.5 1079.5c0-43.63 35.37-79 79-79s79 35.37 79 79-35.369 79-79 79-79-35.37-79-79Z"/><text fill="#d74514" font-family="Courier New,Courier New_MSFontService,sans-serif" font-size="83" font-weight="700" transform="translate(300.215 1102)">C</text><path fill="#fdefe8" fill-rule="evenodd" stroke="#d74514" stroke-miterlimit="8" stroke-width="9.167" d="M437.5 1079.5c0-43.63 35.37-79 79-79s79 35.37 79 79-35.37 79-79 79-79-35.37-79-79Z"/><text fill="#d74514" font-family="Courier New,Courier New_MSFontService,sans-serif" font-size="83" font-weight="700" transform="translate(491.203 1102)">D</text><path fill="none" stroke="#000" stroke-miterlimit="8" stroke-width="9.167" d="M642.5 393.893 780.945 255.5m264.495 138.393L892.5 255.5m-463 418.381L531.526 505.5m189.887 168.381L642.5 505.5m-317 494.494L373.462 808.5m142.464 191.494L484.5 808.5"/><path fill="#d74514" fill-rule="evenodd" stroke="#d74514" stroke-miterlimit="8" stroke-width="9.167" d="M1857.5 200.5c0-43.631 35.37-79 79-79s79 35.369 79 79-35.37 79-79 79-79-35.37-79-79Z"/><text fill="#fff" font-family="Courier New,Courier New_MSFontService,sans-serif" font-size="83" font-weight="700" transform="translate(1911.61 224)">y</text><path fill="#d74514" fill-rule="evenodd" stroke="#d74514" stroke-miterlimit="8" stroke-width="9.167" d="M1607.5 450.5c0-43.63 35.37-79 79-79s79 35.37 79 79-35.37 79-79 79-79-35.37-79-79Z"/><text fill="#fff" font-family="Courier New,Courier New_MSFontService,sans-serif" font-size="83" font-weight="700" transform="translate(1661.57 474)">z</text><path fill="#fdefe8" fill-rule="evenodd" stroke="#d74514" stroke-miterlimit="8" stroke-width="9.167" d="M1449.5 753.5c0-43.631 35.37-79 79-79s79 35.369 79 79-35.37 79-79 79-79-35.369-79-79Z"/><text fill="#d74514" font-family="Courier New,Courier New_MSFontService,sans-serif" font-size="83" font-weight="700" transform="translate(1503.74 777)">C</text><path fill="#d74514" fill-rule="evenodd" stroke="#d74514" stroke-miterlimit="8" stroke-width="9.167" d="M2122.5 450.5c0-43.63 35.37-79 79-79s79 35.37 79 79-35.37 79-79 79-79-35.37-79-79Z"/><text fill="#fff" font-family="Courier New,Courier New_MSFontService,sans-serif" font-size="83" font-weight="700" transform="translate(2176.15 474)">x</text><path fill="#fdefe8" fill-rule="evenodd" stroke="#d74514" stroke-miterlimit="8" stroke-width="9.167" d="M1742.5 753.5c0-43.631 35.37-79 79-79s79 35.369 79 79-35.37 79-79 79-79-35.369-79-79Z"/><text fill="#d74514" font-family="Courier New,Courier New_MSFontService,sans-serif" font-size="83" font-weight="700" transform="translate(1796.28 777)">D</text><path fill="none" stroke="#000" stroke-miterlimit="8" stroke-width="9.167" d="M1742.5 394.893 1880.945 256.5m264.495 138.393L1992.5 256.5m-464 418.381L1630.526 506.5m190.884 168.381L1742.5 506.5"/><path fill="#fdefe8" fill-rule="evenodd" stroke="#d74514" stroke-miterlimit="8" stroke-width="9.167" d="M1968.5 752.5c0-43.631 35.37-79 79-79s79 35.369 79 79-35.37 79-79 79-79-35.37-79-79Z"/><text fill="#d74514" font-family="Courier New,Courier New_MSFontService,sans-serif" font-size="83" font-weight="700" transform="translate(2022.29 776)">B</text><path fill="#fdefe8" fill-rule="evenodd" stroke="#d74514" stroke-miterlimit="8" stroke-width="9.167" d="M2261.5 752.5c0-43.631 35.15-79 78.5-79s78.5 35.369 78.5 79-35.15 79-78.5 79-78.5-35.37-78.5-79Z"/><text fill="#d74514" font-family="Courier New,Courier New_MSFontService,sans-serif" font-size="83" font-weight="700" transform="translate(2314.83 776)">A</text><path fill="none" stroke="#000" stroke-miterlimit="8" stroke-width="9.167" d="M2047.5 673.881 2149.526 505.5m190.884 168.381L2261.5 505.5"/><path fill="#d74514" fill-rule="evenodd" d="M1248 561.5h90V505l90 113-90 113v-56.5h-90Z"/></g></svg>