<svg xmlns="http://www.w3.org/2000/svg" width="3632" height="909" overflow="hidden"><defs><clipPath id="a"><path d="M325 50h3632v909H325z"/></clipPath></defs><g clip-path="url(#a)" transform="translate(-325 -50)"><path fill="#d74514" d="M1352 50h1054v157H1352z"/><text fill="#fff" font-family="Courier New,Courier New_MSFontService,sans-serif" font-size="83" font-weight="700" transform="translate(1829.42 152)">10</text><path fill="#f0835c" d="M2406 415h1110v158H2406z"/><text fill="#fff" font-family="Courier New,Courier New_MSFontService,sans-serif" font-size="83" font-weight="700" transform="translate(2763.59 517)">13 16 19</text><path fill="#fdefe8" d="M1965 781h441v157h-441z"/><text fill="#d74514" font-family="Courier New,Courier New_MSFontService,sans-serif" font-size="83" font-weight="700" transform="translate(2061.98 883)">11 12</text><path fill="#fdefe8" d="M2482 781h441v157h-441z"/><text fill="#d74514" font-family="Courier New,Courier New_MSFontService,sans-serif" font-size="83" font-weight="700" transform="translate(2578.99 883)">14 15</text><path fill="#fdefe8" d="M2999 781h441v157h-441z"/><text fill="#d74514" font-family="Courier New,Courier New_MSFontService,sans-serif" font-size="83" font-weight="700" transform="translate(3096 883)">17 18</text><path fill="#fdefe8" d="M3516 781h441v157h-441z"/><text fill="#d74514" font-family="Courier New,Courier New_MSFontService,sans-serif" font-size="83" font-weight="700" transform="translate(3613 883)">20 21</text><path fill="none" stroke="#000" stroke-miterlimit="8" stroke-width="9.167" d="M2185.5 781.165 2405.991 573.5M3736.99 781.165 3516.5 573.5m-814 207.665L2807.166 573.5m412.424 207.665L3123.5 573.5"/><path fill="#f0835c" d="M766 415h586v158H766z"/><text fill="#fff" font-family="Courier New,Courier New_MSFontService,sans-serif" font-size="83" font-weight="700" transform="translate(861.773 517)">13 16 19</text><path fill="#fdefe8" d="M325 781h441v157H325z"/><text fill="#d74514" font-family="Courier New,Courier New_MSFontService,sans-serif" font-size="83" font-weight="700" transform="translate(422.31 883)">14 15</text><path fill="#fdefe8" d="M842 781h441v157H842z"/><text fill="#d74514" font-family="Courier New,Courier New_MSFontService,sans-serif" font-size="83" font-weight="700" transform="translate(939.318 883)">17 18</text><path fill="#fdefe8" d="M1352 781h517v157h-517z"/><text fill="#d74514" font-family="Courier New,Courier New_MSFontService,sans-serif" font-size="83" font-weight="700" transform="translate(1487.06 883)">7 8 9</text><path fill="none" stroke="#000" stroke-miterlimit="8" stroke-width="9.167" d="M1611 781.165 1352.5 573.5m-807 207.665L776.828 573.5m286.312 207.665L1059.5 573.5m1902.02-158.335L2406.5 207.5m-1347 207.665L1352.379 207.5"/></g></svg>