<svg width="2267" height="1319" xmlns="http://www.w3.org/2000/svg" xmlns:xlink="http://www.w3.org/1999/xlink" overflow="hidden"><defs><clipPath id="clip0"><rect x="-263" y="913" width="2267" height="1319"/></clipPath></defs><g clip-path="url(#clip0)" transform="translate(263 -913)"><rect x="-263" y="2054" width="475" height="157" fill="#F0835C"/><text fill="#FFFFFF" font-family="Courier New,Courier New_MSFontService,sans-serif" font-weight="700" font-size="83" transform="matrix(1 0 0 1 -197.694 2156)">1 3 5 6</text><rect x="212" y="1788" width="1237" height="158" fill="#D74514"/><text fill="#FFFFFF" font-family="Courier New,Courier New_MSFontService,sans-serif" font-weight="700" font-size="83" transform="matrix(1 0 0 1 658.161 1890)">7 13 20</text><rect x="326" y="2054" width="476" height="157" fill="#F0835C"/><text fill="#FFFFFF" font-family="Courier New,Courier New_MSFontService,sans-serif" font-weight="700" font-size="83" transform="matrix(1 0 0 1 391.551 2156)">8 11 12</text><path d="M0 0 235.794 115.998" stroke="#000000" stroke-width="9.16667" stroke-miterlimit="8" fill="none" fill-rule="evenodd" transform="matrix(-1 0 0 1 211.294 1938.5)"/><path d="M1449.5 1938.5 1659.19 2054.5" stroke="#000000" stroke-width="9.16667" stroke-miterlimit="8" fill="none" fill-rule="evenodd"/><rect x="916" y="2054" width="419" height="157" fill="#F0835C"/><text fill="#FFFFFF" font-family="Courier New,Courier New_MSFontService,sans-serif" font-weight="700" font-size="83" transform="matrix(1 0 0 1 1002.05 2156)">14 17</text><path d="M0 0 56.9174 107.828" stroke="#000000" stroke-width="9.16667" stroke-miterlimit="8" fill="none" fill-rule="evenodd" transform="matrix(-1 0 0 1 621.417 1946.5)"/><rect x="1449" y="2054" width="419" height="157" fill="#F0835C"/><text fill="#FFFFFF" font-family="Courier New,Courier New_MSFontService,sans-serif" font-weight="700" font-size="83" transform="matrix(1 0 0 1 1535.27 2156)">23 26</text><path d="M1080.5 1946.5 1126.05 2054.33" stroke="#000000" stroke-width="9.16667" stroke-miterlimit="8" fill="none" fill-rule="evenodd"/><rect x="-13.0001" y="1372" width="475" height="158" fill="#F0835C"/><text fill="#FFFFFF" font-family="Courier New,Courier New_MSFontService,sans-serif" font-weight="700" font-size="83" transform="matrix(1 0 0 1 52.0598 1475)">1 3 5 6</text><rect x="462" y="1107" width="703" height="157" fill="#D74514"/><text fill="#FFFFFF" font-family="Courier New,Courier New_MSFontService,sans-serif" font-weight="700" font-size="83" transform="matrix(1 0 0 1 715.21 1209)">7 13</text><rect x="576" y="1372" width="475" height="158" fill="#F0835C"/><text fill="#FFFFFF" font-family="Courier New,Courier New_MSFontService,sans-serif" font-weight="700" font-size="83" transform="matrix(1 0 0 1 641.304 1475)">8 11 12</text><path d="M0 0 235.794 115.998" stroke="#000000" stroke-width="9.16667" stroke-miterlimit="8" fill="none" fill-rule="evenodd" transform="matrix(-1 0 0 1 461.294 1256.5)"/><path d="M1165.5 1256.5 1584.88 1372.5" stroke="#000000" stroke-width="9.16667" stroke-miterlimit="8" fill="none" fill-rule="evenodd"/><rect x="1165" y="1372" width="839" height="158" fill="#F0835C"/><text fill="#FFFFFF" font-family="Courier New,Courier New_MSFontService,sans-serif" font-weight="700" font-size="83" transform="matrix(1 0 0 1 1239.78 1475)">14 17 20 23 26</text><path d="M814.5 1264.5 814.5 1372.33" stroke="#000000" stroke-width="9.16667" stroke-miterlimit="8" fill="none" fill-rule="evenodd"/><path d="M657 1658 744 1658 744 1584 918 1584 918 1658 1005 1658 831 1732Z" fill="#D74514" fill-rule="evenodd"/><path d="M657 987 744 987 744 913 918 913 918 987 1005 987 831 1061Z" fill="#D74514" fill-rule="evenodd"/></g></svg>