<svg width="2442" height="1341" xmlns="http://www.w3.org/2000/svg" xmlns:xlink="http://www.w3.org/1999/xlink" overflow="hidden"><defs><clipPath id="clip0"><rect x="2200" y="1049" width="2442" height="1341"/></clipPath></defs><g clip-path="url(#clip0)" transform="translate(-2200 -1049)"><rect x="2200" y="1522" width="598" height="157" fill="#F0835C"/><text fill="#FFFFFF" font-family="Courier New,Courier New_MSFontService,sans-serif" font-weight="700" font-size="83" transform="matrix(1 0 0 1 2277.22 1624)">1 3 4 5 6</text><rect x="2798" y="1256" width="1236" height="158" fill="#D74514"/><text fill="#FFFFFF" font-family="Courier New,Courier New_MSFontService,sans-serif" font-weight="700" font-size="83" transform="matrix(1 0 0 1 3243.59 1358)">7 13 20</text><rect x="2912" y="1522" width="475" height="157" fill="#F0835C"/><text fill="#FFFFFF" font-family="Courier New,Courier New_MSFontService,sans-serif" font-weight="700" font-size="83" transform="matrix(1 0 0 1 2976.98 1624)">8 11 12</text><path d="M0 0 297.032 115.998" stroke="#000000" stroke-width="9.16667" stroke-miterlimit="8" fill="none" fill-rule="evenodd" transform="matrix(-1 0 0 1 2796.53 1406.5)"/><path d="M4034.5 1406.5 4244.19 1522.5" stroke="#000000" stroke-width="9.16667" stroke-miterlimit="8" fill="none" fill-rule="evenodd"/><rect x="3501" y="1522" width="419" height="157" fill="#F0835C"/><text fill="#FFFFFF" font-family="Courier New,Courier New_MSFontService,sans-serif" font-weight="700" font-size="83" transform="matrix(1 0 0 1 3587.48 1624)">14 17</text><path d="M0 0 56.9174 107.828" stroke="#000000" stroke-width="9.16667" stroke-miterlimit="8" fill="none" fill-rule="evenodd" transform="matrix(-1 0 0 1 3206.42 1414.5)"/><rect x="4034" y="1522" width="420" height="157" fill="#F0835C"/><text fill="#FFFFFF" font-family="Courier New,Courier New_MSFontService,sans-serif" font-weight="700" font-size="83" transform="matrix(1 0 0 1 4120.7 1624)">23 26</text><path d="M3665.5 1414.5 3711.05 1522.33" stroke="#000000" stroke-width="9.16667" stroke-miterlimit="8" fill="none" fill-rule="evenodd"/><rect x="2710" y="2211" width="277" height="158" fill="#F0835C"/><text fill="#FFFFFF" font-family="Courier New,Courier New_MSFontService,sans-serif" font-weight="700" font-size="83" transform="matrix(1 0 0 1 2774.64 2314)">5 6</text><rect x="2709" y="1946" width="1514" height="158" fill="#D74514"/><text fill="#FFFFFF" font-family="Courier New,Courier New_MSFontService,sans-serif" font-weight="700" font-size="83" transform="matrix(1 0 0 1 3244.02 2048)">4 7 13 20</text><rect x="3100" y="2211" width="476" height="158" fill="#F0835C"/><text fill="#FFFFFF" font-family="Courier New,Courier New_MSFontService,sans-serif" font-weight="700" font-size="83" transform="matrix(1 0 0 1 3165.71 2314)">8 11 12</text><path d="M0 0 251.901 115.998" stroke="#000000" stroke-width="9.16667" stroke-miterlimit="8" fill="none" fill-rule="evenodd" transform="matrix(-1 0 0 1 2709.4 2095.5)"/><path d="M4223.5 2095.5 4433.19 2211.5" stroke="#000000" stroke-width="9.16667" stroke-miterlimit="8" fill="none" fill-rule="evenodd"/><rect x="3690" y="2211" width="419" height="158" fill="#F0835C"/><text fill="#FFFFFF" font-family="Courier New,Courier New_MSFontService,sans-serif" font-weight="700" font-size="83" transform="matrix(1 0 0 1 3776.21 2314)">14 17</text><path d="M0 0 24.9925 107.828" stroke="#000000" stroke-width="9.16667" stroke-miterlimit="8" fill="none" fill-rule="evenodd" transform="matrix(-1 0 0 1 3363.49 2104.5)"/><rect x="4223" y="2211" width="419" height="158" fill="#F0835C"/><text fill="#FFFFFF" font-family="Courier New,Courier New_MSFontService,sans-serif" font-weight="700" font-size="83" transform="matrix(1 0 0 1 4309.43 2314)">23 26</text><path d="M3814.5 2104.5 3900.32 2212.33" stroke="#000000" stroke-width="9.16667" stroke-miterlimit="8" fill="none" fill-rule="evenodd"/><rect x="2319" y="2211" width="276" height="158" fill="#F0835C"/><text fill="#FFFFFF" font-family="Courier New,Courier New_MSFontService,sans-serif" font-weight="700" font-size="83" transform="matrix(1 0 0 1 2382.76 2314)">1 3</text><path d="M0 0 97.7275 107.828" stroke="#000000" stroke-width="9.16667" stroke-miterlimit="8" fill="none" fill-rule="evenodd" transform="matrix(1 0 0 -1 2849.5 2212.33)"/><path d="M3245 1829 3332 1829 3332 1755 3506 1755 3506 1829 3593 1829 3419 1903Z" fill="#D74514" fill-rule="evenodd"/><path d="M3242 1123 3329 1123 3329 1049 3503 1049 3503 1123 3590 1123 3416 1197Z" fill="#D74514" fill-rule="evenodd"/></g></svg>