<svg xmlns="http://www.w3.org/2000/svg" width="2853" height="2577" overflow="hidden"><defs><clipPath id="a"><path d="M164-124h2853v2577H164z"/></clipPath></defs><g clip-path="url(#a)" transform="translate(-164 124)"><path fill="#fdefe8" d="M666 619h205v158H666z"/><text fill="#d74514" font-family="Courier New,Courier New_MSFontService,sans-serif" font-size="83" font-weight="700" transform="translate(743.773 721)">6</text><path fill="#f0835c" d="M556 353h429v158H556z"/><text fill="#fff" font-family="Courier New,Courier New_MSFontService,sans-serif" font-size="83" font-weight="700" transform="translate(696.706 456)">4 7</text><path fill="#fdefe8" d="M985 619h407v158H985z"/><text fill="#d74514" font-family="Courier New,Courier New_MSFontService,sans-serif" font-size="83" font-weight="700" transform="translate(1065.78 721)">11 12</text><path fill="none" stroke="#000" stroke-miterlimit="8" stroke-width="9.167" d="M556.567 511.5 418.5 619.328m2126-107.828 236.21 107.828"/><path fill="#fdefe8" d="M1506 619h407v158h-407z"/><text fill="#d74514" font-family="Courier New,Courier New_MSFontService,sans-serif" font-size="83" font-weight="700" transform="translate(1586.66 721)">14 16</text><path fill="none" stroke="#000" stroke-miterlimit="8" stroke-width="9.167" d="m984.5 511.5 204.48 107.828"/><path fill="#fdefe8" d="M2544 619h473v158h-473z"/><text fill="#d74514" font-family="Courier New,Courier New_MSFontService,sans-serif" font-size="83" font-weight="700" transform="translate(2657.14 721)">25 26</text><path fill="none" stroke="#000" stroke-miterlimit="8" stroke-width="9.167" d="m1914.02 511.5-203.522 107.828"/><path fill="#fdefe8" d="M280 619h276v158H280z"/><text fill="#d74514" font-family="Courier New,Courier New_MSFontService,sans-serif" font-size="83" font-weight="700" transform="translate(343.814 721)">1 3</text><path fill="none" stroke="#000" stroke-miterlimit="8" stroke-width="9.167" d="m768.5 619.328 2.204-107.828"/><path fill="#fdefe8" d="M2025 619h409v158h-409z"/><text fill="#d74514" font-family="Courier New,Courier New_MSFontService,sans-serif" font-size="83" font-weight="700" transform="translate(2106.55 721)">19 23</text><path fill="none" stroke="#000" stroke-miterlimit="8" stroke-width="9.167" d="m2229.5 511.5.99 107.828"/><path fill="#d74514" d="M1042 82h871v157h-871z"/><text fill="#fff" font-family="Courier New,Courier New_MSFontService,sans-serif" font-size="83" font-weight="700" transform="translate(1428.25 184)">13</text><path fill="#f0835c" d="M1913 353h631v158h-631z"/><text fill="#fff" font-family="Courier New,Courier New_MSFontService,sans-serif" font-size="83" font-weight="700" transform="translate(2105.56 456)">17 24</text><path fill="none" stroke="#000" stroke-miterlimit="8" stroke-width="9.167" d="M2228.87 353.353 1913.5 239.5m-837.22 0L771.5 353.353"/><path fill="#f0835c" d="M670 1311h316v158H670z"/><text fill="#fff" font-family="Courier New,Courier New_MSFontService,sans-serif" font-size="83" font-weight="700" transform="translate(803.265 1413)">7</text><path fill="#fdefe8" d="M986 1577h407v157H986z"/><text fill="#d74514" font-family="Courier New,Courier New_MSFontService,sans-serif" font-size="83" font-weight="700" transform="translate(1066.41 1679)">11 12</text><path fill="none" stroke="#000" stroke-miterlimit="8" stroke-width="9.167" d="m670.194 1469.5-69.695 107.828M2545.5 1469.5l236.21 107.83"/><path fill="#fdefe8" d="M1507 1577h407v157h-407z"/><text fill="#d74514" font-family="Courier New,Courier New_MSFontService,sans-serif" font-size="83" font-weight="700" transform="translate(1587.29 1679)">14 16</text><path fill="none" stroke="#000" stroke-miterlimit="8" stroke-width="9.167" d="m985.5 1469.5 204.48 107.83"/><path fill="#fdefe8" d="M2545 1577h472v157h-472z"/><text fill="#d74514" font-family="Courier New,Courier New_MSFontService,sans-serif" font-size="83" font-weight="700" transform="translate(2657.77 1679)">25 26</text><path fill="none" stroke="#000" stroke-miterlimit="8" stroke-width="9.167" d="m1914.02 1469.5-203.522 107.828"/><path fill="#fdefe8" d="M326 1577h548v157H326z"/><text fill="#d74514" font-family="Courier New,Courier New_MSFontService,sans-serif" font-size="83" font-weight="700" transform="translate(427.593 1679)">1 3 4 6</text><path fill="#fdefe8" d="M2026 1577h409v157h-409z"/><text fill="#d74514" font-family="Courier New,Courier New_MSFontService,sans-serif" font-size="83" font-weight="700" transform="translate(2107.18 1679)">19 23</text><path fill="none" stroke="#000" stroke-miterlimit="8" stroke-width="9.167" d="m2229.5 1469.5.99 107.83"/><path fill="#d74514" d="M1042 1039h872v158h-872z"/><text fill="#fff" font-family="Courier New,Courier New_MSFontService,sans-serif" font-size="83" font-weight="700" transform="translate(1428.88 1142)">13</text><path fill="#f0835c" d="M1914 1311h631v158h-631z"/><text fill="#fff" font-family="Courier New,Courier New_MSFontService,sans-serif" font-size="83" font-weight="700" transform="translate(2106.19 1413)">17 24</text><path fill="none" stroke="#000" stroke-miterlimit="8" stroke-width="9.167" d="M2229.87 1311.35 1914.5 1197.5m-837.88 0L828.5 1311.353"/><path fill="#f0835c" d="M164 2275h499v157H164z"/><text fill="#fff" font-family="Courier New,Courier New_MSFontService,sans-serif" font-size="83" font-weight="700" transform="translate(241.032 2377)">1 3 4 5</text><path fill="#d74514" d="M663 2003h1645v158H663z"/><text fill="#fff" font-family="Courier New,Courier New_MSFontService,sans-serif" font-size="83" font-weight="700" transform="translate(1239.23 2105)">7 13 17 24</text><path fill="#f0835c" d="M1774 2275h444v157h-444z"/><text fill="#fff" font-family="Courier New,Courier New_MSFontService,sans-serif" font-size="83" font-weight="700" transform="translate(1872.88 2377)">19 23</text><path fill="none" stroke="#000" stroke-miterlimit="8" stroke-width="9.167" d="M2530.46 2275.35 2308.5 2161.5m-1645.289 0L413.5 2275.353"/><path fill="#f0835c" d="M753 2275h397v157H753z"/><text fill="#fff" font-family="Courier New,Courier New_MSFontService,sans-serif" font-size="83" font-weight="700" transform="translate(828.536 2377)">11 12</text><path fill="#f0835c" d="M1240 2275h444v157h-444z"/><text fill="#fff" font-family="Courier New,Courier New_MSFontService,sans-serif" font-size="83" font-weight="700" transform="translate(1339.01 2377)">14 16</text><path fill="#f0835c" d="M2308 2275h444v157h-444z"/><text fill="#fff" font-family="Courier New,Courier New_MSFontService,sans-serif" font-size="83" font-weight="700" transform="translate(2406.75 2377)">25 26</text><path fill="none" stroke="#000" stroke-miterlimit="8" stroke-width="9.167" d="m1462.5 2275.35 23.39-113.853M952.5 2275.35l109.021-113.853m934.639 113.853-73.66-113.85"/><path fill="#d74514" fill-rule="evenodd" d="M1312-49.5h87V-124h174v74.5h87L1486 25ZM1300 908h87v-74h174v74h87l-174 74Zm0 973h87v-74h174v74h87l-174 74Z"/></g></svg>