<svg width="2905" height="657" xmlns="http://www.w3.org/2000/svg" xmlns:xlink="http://www.w3.org/1999/xlink" overflow="hidden"><defs><clipPath id="clip0"><rect x="226" y="-172" width="2905" height="657"/></clipPath></defs><g clip-path="url(#clip0)" transform="translate(-226 172)"><rect x="618" y="306" width="276" height="158" fill="#F0835C"/><text fill="#FFFFFF" font-family="Courier New,Courier New_MSFontService,sans-serif" font-weight="700" font-size="83" transform="matrix(1 0 0 1 682.105 409)">5 6</text><rect x="756" y="40.9999" width="1655" height="157" fill="#D74514"/><text fill="#FFFFFF" font-family="Courier New,Courier New_MSFontService,sans-serif" font-weight="700" font-size="83" transform="matrix(1 0 0 1 1361.91 143)">4 7 13 20</text><rect x="1008" y="306" width="475" height="158" fill="#F0835C"/><text fill="#FFFFFF" font-family="Courier New,Courier New_MSFontService,sans-serif" font-weight="700" font-size="83" transform="matrix(1 0 0 1 1073.17 409)">8 11 12</text><path d="M0 0 391.879 115.998" stroke="#000000" stroke-width="9.16667" stroke-miterlimit="8" fill="none" fill-rule="evenodd" transform="matrix(-1 0 0 1 756.379 190.5)"/><path d="M2411.5 190.5 2771.6 306.498" stroke="#000000" stroke-width="9.16667" stroke-miterlimit="8" fill="none" fill-rule="evenodd"/><rect x="1597" y="306" width="700" height="158" fill="#F0835C"/><text fill="#FFFFFF" font-family="Courier New,Courier New_MSFontService,sans-serif" font-weight="700" font-size="83" transform="matrix(1 0 0 1 1676.3 409)">14 16 17 18</text><path d="M0 0 97.2699 115.998" stroke="#000000" stroke-width="9.16667" stroke-miterlimit="8" fill="none" fill-rule="evenodd" transform="matrix(-1 0 0 1 1343.77 190.5)"/><rect x="2411" y="306" width="720" height="158" fill="#F0835C"/><text fill="#FFFFFF" font-family="Courier New,Courier New_MSFontService,sans-serif" font-weight="700" font-size="83" transform="matrix(1 0 0 1 2500.36 409)">23 24 25 26</text><path d="M1850.5 190.5 1947.77 306.498" stroke="#000000" stroke-width="9.16667" stroke-miterlimit="8" fill="none" fill-rule="evenodd"/><rect x="226" y="306" width="276" height="158" fill="#F0835C"/><text fill="#FFFFFF" font-family="Courier New,Courier New_MSFontService,sans-serif" font-weight="700" font-size="83" transform="matrix(1 0 0 1 290.226 409)">1 3</text><path d="M0 0 251.901 115.998" stroke="#000000" stroke-width="9.16667" stroke-miterlimit="8" fill="none" fill-rule="evenodd" transform="matrix(1 0 0 -1 756.5 306.498)"/><path d="M1384-98 1471-98 1471-172 1645-172 1645-98 1732-98 1558-24.0001Z" fill="#D74514" fill-rule="evenodd"/></g></svg>