<svg width="3062" height="929" xmlns="http://www.w3.org/2000/svg" xmlns:xlink="http://www.w3.org/1999/xlink" overflow="hidden"><defs><clipPath id="clip0"><rect x="243" y="-510" width="3062" height="929"/></clipPath></defs><g clip-path="url(#clip0)" transform="translate(-243 510)"><rect x="635" y="241" width="276" height="158" fill="#FDEFE8"/><text fill="#D74514" font-family="Courier New,Courier New_MSFontService,sans-serif" font-weight="700" font-size="83" transform="matrix(1 0 0 1 699.208 343)">5 6</text><rect x="519" y="-25.0001" width="507" height="158" fill="#F0835C"/><text fill="#FFFFFF" font-family="Courier New,Courier New_MSFontService,sans-serif" font-weight="700" font-size="83" transform="matrix(1 0 0 1 698.731 78)">4 7</text><rect x="1026" y="241" width="407" height="158" fill="#FDEFE8"/><text fill="#D74514" font-family="Courier New,Courier New_MSFontService,sans-serif" font-weight="700" font-size="83" transform="matrix(1 0 0 1 1106.32 343)">11 12</text><path d="M0 0 138.067 107.828" stroke="#000000" stroke-width="9.16667" stroke-miterlimit="8" fill="none" fill-rule="evenodd" transform="matrix(-1 0 0 1 519.567 133.5)"/><path d="M2721.5 133.5 2945.1 241.328" stroke="#000000" stroke-width="9.16667" stroke-miterlimit="8" fill="none" fill-rule="evenodd"/><rect x="1547" y="241" width="407" height="158" fill="#FDEFE8"/><text fill="#D74514" font-family="Courier New,Courier New_MSFontService,sans-serif" font-weight="700" font-size="83" transform="matrix(1 0 0 1 1627.2 343)">14 16</text><path d="M1025.5 133.5 1229.98 241.328" stroke="#000000" stroke-width="9.16667" stroke-miterlimit="8" fill="none" fill-rule="evenodd"/><rect x="2585" y="241" width="720" height="158" fill="#FDEFE8"/><text fill="#D74514" font-family="Courier New,Courier New_MSFontService,sans-serif" font-weight="700" font-size="83" transform="matrix(1 0 0 1 2673.75 343)">23 24 25 26</text><path d="M0 0 203.522 107.828" stroke="#000000" stroke-width="9.16667" stroke-miterlimit="8" fill="none" fill-rule="evenodd" transform="matrix(-1 0 0 1 1954.02 133.5)"/><rect x="243" y="241" width="276" height="158" fill="#FDEFE8"/><text fill="#D74514" font-family="Courier New,Courier New_MSFontService,sans-serif" font-weight="700" font-size="83" transform="matrix(1 0 0 1 307.329 343)">1 3</text><path d="M773.977 241.328 773.5 133.5" stroke="#000000" stroke-width="9.16667" stroke-miterlimit="8" fill="none" fill-rule="evenodd"/><rect x="2066" y="241" width="407" height="158" fill="#FDEFE8"/><text fill="#D74514" font-family="Courier New,Courier New_MSFontService,sans-serif" font-weight="700" font-size="83" transform="matrix(1 0 0 1 2146.09 343)">18 19</text><path d="M0 0 68.2498 107.828" stroke="#000000" stroke-width="9.16667" stroke-miterlimit="8" fill="none" fill-rule="evenodd" transform="matrix(-1 0 0 1 2337.75 133.5)"/><rect x="1082" y="-297" width="872" height="158" fill="#D74514"/><text fill="#FFFFFF" font-family="Courier New,Courier New_MSFontService,sans-serif" font-weight="700" font-size="83" transform="matrix(1 0 0 1 1468.79 -194)">13</text><rect x="1954" y="-25.0001" width="767" height="158" fill="#F0835C"/><text fill="#FFFFFF" font-family="Courier New,Courier New_MSFontService,sans-serif" font-weight="700" font-size="83" transform="matrix(1 0 0 1 2214.34 78)">17 20</text><path d="M2338.12-24.6468 1954.5-138.5" stroke="#000000" stroke-width="9.16667" stroke-miterlimit="8" fill="none" fill-rule="evenodd"/><path d="M0 0 343.289 113.853" stroke="#000000" stroke-width="9.16667" stroke-miterlimit="8" fill="none" fill-rule="evenodd" transform="matrix(-1 0 0 1 1116.79 -138.5)"/><path d="M1344-436 1431-436 1431-510 1605-510 1605-436 1692-436 1518-362Z" fill="#D74514" fill-rule="evenodd"/></g></svg>