<svg width="1116" height="646" xmlns="http://www.w3.org/2000/svg" xmlns:xlink="http://www.w3.org/1999/xlink" overflow="hidden"><defs><clipPath id="clip0"><rect x="231" y="1767" width="1116" height="646"/></clipPath></defs><g clip-path="url(#clip0)" transform="translate(-231 -1767)"><rect x="231" y="2234" width="390" height="158" fill="#F0835C"/><text fill="#FFFFFF" font-family="Courier New,Courier New_MSFontService,sans-serif" font-weight="700" font-size="83" transform="matrix(1 0 0 1 302.725 2337)">1 3 5</text><rect x="502" y="1969" width="389" height="158" fill="#D74514"/><text fill="#FFFFFF" font-family="Courier New,Courier New_MSFontService,sans-serif" font-weight="700" font-size="83" transform="matrix(1 0 0 1 671.683 2071)">7</text><rect x="736" y="2234" width="611" height="158" fill="#F0835C"/><text fill="#FFFFFF" font-family="Courier New,Courier New_MSFontService,sans-serif" font-weight="700" font-size="83" transform="matrix(1 0 0 1 795.034 2337)">8 11 14 17</text><path d="M0 0 75.625 107.828" stroke="#000000" stroke-width="9.16667" stroke-miterlimit="8" fill="none" fill-rule="evenodd" transform="matrix(-1 0 0 1 502.125 2127.5)"/><path d="M891.5 2127.5 1041.78 2235.33" stroke="#000000" stroke-width="9.16667" stroke-miterlimit="8" fill="none" fill-rule="evenodd"/><path d="M522 1841 609 1841 609 1767 783 1767 783 1841 870 1841 696 1915Z" fill="#D74514" fill-rule="evenodd"/></g></svg>