<svg width="2853" height="2577" xmlns="http://www.w3.org/2000/svg" xmlns:xlink="http://www.w3.org/1999/xlink" overflow="hidden"><defs><clipPath id="clip0"><rect x="164" y="-124" width="2853" height="2577"/></clipPath></defs><g clip-path="url(#clip0)" transform="translate(-164 124)"><rect x="666" y="619" width="205" height="158" fill="#FDEFE8"/><text fill="#D74514" font-family="Courier New,Courier New_MSFontService,sans-serif" font-weight="700" font-size="83" transform="matrix(1 0 0 1 743.773 721)">6</text><rect x="556" y="353" width="429" height="158" fill="#F0835C"/><text fill="#FFFFFF" font-family="Courier New,Courier New_MSFontService,sans-serif" font-weight="700" font-size="83" transform="matrix(1 0 0 1 696.706 456)">4 7</text><rect x="985" y="619" width="407" height="158" fill="#FDEFE8"/><text fill="#D74514" font-family="Courier New,Courier New_MSFontService,sans-serif" font-weight="700" font-size="83" transform="matrix(1 0 0 1 1065.78 721)">11 12</text><path d="M0 0 138.067 107.828" stroke="#000000" stroke-width="9.16667" stroke-miterlimit="8" fill="none" fill-rule="evenodd" transform="matrix(-1 0 0 1 556.567 511.5)"/><path d="M2544.5 511.5 2780.71 619.328" stroke="#000000" stroke-width="9.16667" stroke-miterlimit="8" fill="none" fill-rule="evenodd"/><rect x="1506" y="619" width="407" height="158" fill="#FDEFE8"/><text fill="#D74514" font-family="Courier New,Courier New_MSFontService,sans-serif" font-weight="700" font-size="83" transform="matrix(1 0 0 1 1586.66 721)">14 16</text><path d="M984.5 511.5 1188.98 619.328" stroke="#000000" stroke-width="9.16667" stroke-miterlimit="8" fill="none" fill-rule="evenodd"/><rect x="2544" y="619" width="473" height="158" fill="#FDEFE8"/><text fill="#D74514" font-family="Courier New,Courier New_MSFontService,sans-serif" font-weight="700" font-size="83" transform="matrix(1 0 0 1 2657.14 721)">25 26</text><path d="M0 0 203.522 107.828" stroke="#000000" stroke-width="9.16667" stroke-miterlimit="8" fill="none" fill-rule="evenodd" transform="matrix(-1 0 0 1 1914.02 511.5)"/><rect x="280" y="619" width="276" height="158" fill="#FDEFE8"/><text fill="#D74514" font-family="Courier New,Courier New_MSFontService,sans-serif" font-weight="700" font-size="83" transform="matrix(1 0 0 1 343.814 721)">1 3</text><path d="M0 0 2.20361 107.828" stroke="#000000" stroke-width="9.16667" stroke-miterlimit="8" fill="none" fill-rule="evenodd" transform="matrix(1 0 0 -1 768.5 619.328)"/><rect x="2025" y="619" width="409" height="158" fill="#FDEFE8"/><text fill="#D74514" font-family="Courier New,Courier New_MSFontService,sans-serif" font-weight="700" font-size="83" transform="matrix(1 0 0 1 2106.55 721)">19 23</text><path d="M2229.5 511.5 2230.49 619.328" stroke="#000000" stroke-width="9.16667" stroke-miterlimit="8" fill="none" fill-rule="evenodd"/><rect x="1042" y="82.0002" width="871" height="157" fill="#D74514"/><text fill="#FFFFFF" font-family="Courier New,Courier New_MSFontService,sans-serif" font-weight="700" font-size="83" transform="matrix(1 0 0 1 1428.25 184)">13</text><rect x="1913" y="353" width="631" height="158" fill="#F0835C"/><text fill="#FFFFFF" font-family="Courier New,Courier New_MSFontService,sans-serif" font-weight="700" font-size="83" transform="matrix(1 0 0 1 2105.56 456)">17 24</text><path d="M2228.87 353.353 1913.5 239.5" stroke="#000000" stroke-width="9.16667" stroke-miterlimit="8" fill="none" fill-rule="evenodd"/><path d="M0 0 304.78 113.853" stroke="#000000" stroke-width="9.16667" stroke-miterlimit="8" fill="none" fill-rule="evenodd" transform="matrix(-1 0 0 1 1076.28 239.5)"/><rect x="670" y="1311" width="316" height="158" fill="#F0835C"/><text fill="#FFFFFF" font-family="Courier New,Courier New_MSFontService,sans-serif" font-weight="700" font-size="83" transform="matrix(1 0 0 1 803.265 1413)">7</text><rect x="986" y="1577" width="407" height="157" fill="#FDEFE8"/><text fill="#D74514" font-family="Courier New,Courier New_MSFontService,sans-serif" font-weight="700" font-size="83" transform="matrix(1 0 0 1 1066.41 1679)">11 12</text><path d="M0 0 69.6945 107.828" stroke="#000000" stroke-width="9.16667" stroke-miterlimit="8" fill="none" fill-rule="evenodd" transform="matrix(-1 0 0 1 670.194 1469.5)"/><path d="M2545.5 1469.5 2781.71 1577.33" stroke="#000000" stroke-width="9.16667" stroke-miterlimit="8" fill="none" fill-rule="evenodd"/><rect x="1507" y="1577" width="407" height="157" fill="#FDEFE8"/><text fill="#D74514" font-family="Courier New,Courier New_MSFontService,sans-serif" font-weight="700" font-size="83" transform="matrix(1 0 0 1 1587.29 1679)">14 16</text><path d="M985.5 1469.5 1189.98 1577.33" stroke="#000000" stroke-width="9.16667" stroke-miterlimit="8" fill="none" fill-rule="evenodd"/><rect x="2545" y="1577" width="472" height="157" fill="#FDEFE8"/><text fill="#D74514" font-family="Courier New,Courier New_MSFontService,sans-serif" font-weight="700" font-size="83" transform="matrix(1 0 0 1 2657.77 1679)">25 26</text><path d="M0 0 203.522 107.828" stroke="#000000" stroke-width="9.16667" stroke-miterlimit="8" fill="none" fill-rule="evenodd" transform="matrix(-1 0 0 1 1914.02 1469.5)"/><rect x="326" y="1577" width="548" height="157" fill="#FDEFE8"/><text fill="#D74514" font-family="Courier New,Courier New_MSFontService,sans-serif" font-weight="700" font-size="83" transform="matrix(1 0 0 1 427.593 1679)">1 3 4 6</text><rect x="2026" y="1577" width="409" height="157" fill="#FDEFE8"/><text fill="#D74514" font-family="Courier New,Courier New_MSFontService,sans-serif" font-weight="700" font-size="83" transform="matrix(1 0 0 1 2107.18 1679)">19 23</text><path d="M2229.5 1469.5 2230.49 1577.33" stroke="#000000" stroke-width="9.16667" stroke-miterlimit="8" fill="none" fill-rule="evenodd"/><rect x="1042" y="1039" width="872" height="158" fill="#D74514"/><text fill="#FFFFFF" font-family="Courier New,Courier New_MSFontService,sans-serif" font-weight="700" font-size="83" transform="matrix(1 0 0 1 1428.88 1142)">13</text><rect x="1914" y="1311" width="631" height="158" fill="#F0835C"/><text fill="#FFFFFF" font-family="Courier New,Courier New_MSFontService,sans-serif" font-weight="700" font-size="83" transform="matrix(1 0 0 1 2106.19 1413)">17 24</text><path d="M2229.87 1311.35 1914.5 1197.5" stroke="#000000" stroke-width="9.16667" stroke-miterlimit="8" fill="none" fill-rule="evenodd"/><path d="M0 0 248.12 113.853" stroke="#000000" stroke-width="9.16667" stroke-miterlimit="8" fill="none" fill-rule="evenodd" transform="matrix(-1 0 0 1 1076.62 1197.5)"/><rect x="164" y="2275" width="499" height="157" fill="#F0835C"/><text fill="#FFFFFF" font-family="Courier New,Courier New_MSFontService,sans-serif" font-weight="700" font-size="83" transform="matrix(1 0 0 1 241.032 2377)">1 3 4 5</text><rect x="663" y="2003" width="1645" height="158" fill="#D74514"/><text fill="#FFFFFF" font-family="Courier New,Courier New_MSFontService,sans-serif" font-weight="700" font-size="83" transform="matrix(1 0 0 1 1239.23 2105)">7 13 17 24</text><rect x="1774" y="2275" width="444" height="157" fill="#F0835C"/><text fill="#FFFFFF" font-family="Courier New,Courier New_MSFontService,sans-serif" font-weight="700" font-size="83" transform="matrix(1 0 0 1 1872.88 2377)">19 23</text><path d="M2530.46 2275.35 2308.5 2161.5" stroke="#000000" stroke-width="9.16667" stroke-miterlimit="8" fill="none" fill-rule="evenodd"/><path d="M0 0 249.711 113.853" stroke="#000000" stroke-width="9.16667" stroke-miterlimit="8" fill="none" fill-rule="evenodd" transform="matrix(-1 0 0 1 663.211 2161.5)"/><rect x="753" y="2275" width="397" height="157" fill="#F0835C"/><text fill="#FFFFFF" font-family="Courier New,Courier New_MSFontService,sans-serif" font-weight="700" font-size="83" transform="matrix(1 0 0 1 828.536 2377)">11 12</text><rect x="1240" y="2275" width="444" height="157" fill="#F0835C"/><text fill="#FFFFFF" font-family="Courier New,Courier New_MSFontService,sans-serif" font-weight="700" font-size="83" transform="matrix(1 0 0 1 1339.01 2377)">14 16</text><rect x="2308" y="2275" width="444" height="157" fill="#F0835C"/><text fill="#FFFFFF" font-family="Courier New,Courier New_MSFontService,sans-serif" font-weight="700" font-size="83" transform="matrix(1 0 0 1 2406.75 2377)">25 26</text><path d="M0 0 23.3891 113.853" stroke="#000000" stroke-width="9.16667" stroke-miterlimit="8" fill="none" fill-rule="evenodd" transform="matrix(1 0 0 -1 1462.5 2275.35)"/><path d="M0 0 109.021 113.853" stroke="#000000" stroke-width="9.16667" stroke-miterlimit="8" fill="none" fill-rule="evenodd" transform="matrix(1 0 0 -1 952.5 2275.35)"/><path d="M1996.16 2275.35 1922.5 2161.5" stroke="#000000" stroke-width="9.16667" stroke-miterlimit="8" fill="none" fill-rule="evenodd"/><path d="M1312-49.4998 1399-49.4998 1399-124 1573-124 1573-49.4998 1660-49.4998 1486 25.0001Z" fill="#D74514" fill-rule="evenodd"/><path d="M1300 908 1387 908 1387 834 1561 834 1561 908 1648 908 1474 982Z" fill="#D74514" fill-rule="evenodd"/><path d="M1300 1881 1387 1881 1387 1807 1561 1807 1561 1881 1648 1881 1474 1955Z" fill="#D74514" fill-rule="evenodd"/></g></svg>