<svg width="3237" height="2312" xmlns="http://www.w3.org/2000/svg" xmlns:xlink="http://www.w3.org/1999/xlink" overflow="hidden"><defs><clipPath id="clip0"><rect x="280" y="808" width="3237" height="2312"/></clipPath></defs><g clip-path="url(#clip0)" transform="translate(-280 -808)"><rect x="672" y="1286" width="276" height="158" fill="#F0835C"/><text fill="#FFFFFF" font-family="Courier New,Courier New_MSFontService,sans-serif" font-weight="700" font-size="83" transform="matrix(1 0 0 1 736.127 1388)">5 6</text><rect x="872" y="1020" width="1707" height="158" fill="#D74514"/><text fill="#FFFFFF" font-family="Courier New,Courier New_MSFontService,sans-serif" font-weight="700" font-size="83" transform="matrix(1 0 0 1 1503.66 1122)">4 7 13 20</text><rect x="1062" y="1286" width="475" height="158" fill="#F0835C"/><text fill="#FFFFFF" font-family="Courier New,Courier New_MSFontService,sans-serif" font-weight="700" font-size="83" transform="matrix(1 0 0 1 1127.19 1388)">8 11 12</text><path d="M0 0 453.502 115.998" stroke="#000000" stroke-width="9.16667" stroke-miterlimit="8" fill="none" fill-rule="evenodd" transform="matrix(-1 0 0 1 872.002 1170.5)"/><path d="M2579.5 1170.5 2939.6 1286.5" stroke="#000000" stroke-width="9.16667" stroke-miterlimit="8" fill="none" fill-rule="evenodd"/><rect x="1651" y="1286" width="814" height="158" fill="#F0835C"/><text fill="#FFFFFF" font-family="Courier New,Courier New_MSFontService,sans-serif" font-weight="700" font-size="83" transform="matrix(1 0 0 1 1713.33 1388)">14 16 17 18 19</text><path d="M0 0 169.339 115.998" stroke="#000000" stroke-width="9.16667" stroke-miterlimit="8" fill="none" fill-rule="evenodd" transform="matrix(-1 0 0 1 1469.84 1170.5)"/><rect x="2579" y="1286" width="720" height="158" fill="#F0835C"/><text fill="#FFFFFF" font-family="Courier New,Courier New_MSFontService,sans-serif" font-weight="700" font-size="83" transform="matrix(1 0 0 1 2668.21 1388)">23 24 25 26</text><path d="M1990.5 1178.5 2058.87 1286.33" stroke="#000000" stroke-width="9.16667" stroke-miterlimit="8" fill="none" fill-rule="evenodd"/><rect x="280" y="1286" width="276" height="158" fill="#F0835C"/><text fill="#FFFFFF" font-family="Courier New,Courier New_MSFontService,sans-serif" font-weight="700" font-size="83" transform="matrix(1 0 0 1 344.247 1388)">1 3</text><path d="M0 0 320.268 107.828" stroke="#000000" stroke-width="9.16667" stroke-miterlimit="8" fill="none" fill-rule="evenodd" transform="matrix(1 0 0 -1 810.5 1286.33)"/><rect x="672" y="1973" width="276" height="158" fill="#F0835C"/><text fill="#FFFFFF" font-family="Courier New,Courier New_MSFontService,sans-serif" font-weight="700" font-size="83" transform="matrix(1 0 0 1 736.127 2075)">5 6</text><rect x="810" y="1707" width="1879" height="158" fill="#D74514"/><text fill="#FFFFFF" font-family="Courier New,Courier New_MSFontService,sans-serif" font-weight="700" font-size="83" transform="matrix(1 0 0 1 1453.88 1810)">4 7 13 17 20</text><rect x="1062" y="1973" width="475" height="158" fill="#F0835C"/><text fill="#FFFFFF" font-family="Courier New,Courier New_MSFontService,sans-serif" font-weight="700" font-size="83" transform="matrix(1 0 0 1 1127.19 2075)">8 11 12</text><path d="M0 0 391.879 107.828" stroke="#000000" stroke-width="9.16667" stroke-miterlimit="8" fill="none" fill-rule="evenodd" transform="matrix(-1 0 0 1 810.378 1865.5)"/><path d="M2689.5 1857.5 3049.6 1973.5" stroke="#000000" stroke-width="9.16667" stroke-miterlimit="8" fill="none" fill-rule="evenodd"/><rect x="1651" y="1973" width="407" height="158" fill="#F0835C"/><text fill="#FFFFFF" font-family="Courier New,Courier New_MSFontService,sans-serif" font-weight="700" font-size="83" transform="matrix(1 0 0 1 1731.52 2075)">14 16</text><path d="M0 0 124.615 107.828" stroke="#000000" stroke-width="9.16667" stroke-miterlimit="8" fill="none" fill-rule="evenodd" transform="matrix(-1 0 0 1 1425.11 1865.5)"/><rect x="2689" y="1973" width="720" height="158" fill="#F0835C"/><text fill="#FFFFFF" font-family="Courier New,Courier New_MSFontService,sans-serif" font-weight="700" font-size="83" transform="matrix(1 0 0 1 2778.08 2075)">23 24 25 26</text><path d="M1810.5 1865.5 1855.22 1973.33" stroke="#000000" stroke-width="9.16667" stroke-miterlimit="8" fill="none" fill-rule="evenodd"/><rect x="280" y="1973" width="276" height="158" fill="#F0835C"/><text fill="#FFFFFF" font-family="Courier New,Courier New_MSFontService,sans-serif" font-weight="700" font-size="83" transform="matrix(1 0 0 1 344.247 2075)">1 3</text><path d="M0 0 235.795 115.998" stroke="#000000" stroke-width="9.16667" stroke-miterlimit="8" fill="none" fill-rule="evenodd" transform="matrix(1 0 0 -1 810.5 1973.5)"/><rect x="2170" y="1973" width="407" height="158" fill="#F0835C"/><text fill="#FFFFFF" font-family="Courier New,Courier New_MSFontService,sans-serif" font-weight="700" font-size="83" transform="matrix(1 0 0 1 2250.42 2075)">18 19</text><path d="M2236.5 1865.5 2373.64 1973.33" stroke="#000000" stroke-width="9.16667" stroke-miterlimit="8" fill="none" fill-rule="evenodd"/><rect x="780" y="2942" width="276" height="158" fill="#FDEFE8"/><text fill="#D74514" font-family="Courier New,Courier New_MSFontService,sans-serif" font-weight="700" font-size="83" transform="matrix(1 0 0 1 844.17 3044)">5 6</text><rect x="664" y="2676" width="631" height="158" fill="#F0835C"/><text fill="#FFFFFF" font-family="Courier New,Courier New_MSFontService,sans-serif" font-weight="700" font-size="83" transform="matrix(1 0 0 1 905.522 2779)">4 7</text><rect x="1170" y="2942" width="475" height="158" fill="#FDEFE8"/><text fill="#D74514" font-family="Courier New,Courier New_MSFontService,sans-serif" font-weight="700" font-size="83" transform="matrix(1 0 0 1 1235.24 3044)">8 11 12</text><path d="M0 0 138.067 107.828" stroke="#000000" stroke-width="9.16667" stroke-miterlimit="8" fill="none" fill-rule="evenodd" transform="matrix(-1 0 0 1 664.567 2834.5)"/><path d="M2934.5 2834.5 3158.1 2942.33" stroke="#000000" stroke-width="9.16667" stroke-miterlimit="8" fill="none" fill-rule="evenodd"/><rect x="1759" y="2942" width="407" height="158" fill="#FDEFE8"/><text fill="#D74514" font-family="Courier New,Courier New_MSFontService,sans-serif" font-weight="700" font-size="83" transform="matrix(1 0 0 1 1839.57 3044)">14 16</text><path d="M1295.5 2834.5 1408.59 2942.33" stroke="#000000" stroke-width="9.16667" stroke-miterlimit="8" fill="none" fill-rule="evenodd"/><rect x="2797" y="2942" width="720" height="158" fill="#FDEFE8"/><text fill="#D74514" font-family="Courier New,Courier New_MSFontService,sans-serif" font-weight="700" font-size="83" transform="matrix(1 0 0 1 2886.13 3044)">23 24 25 26</text><path d="M0 0 203.522 107.828" stroke="#000000" stroke-width="9.16667" stroke-miterlimit="8" fill="none" fill-rule="evenodd" transform="matrix(-1 0 0 1 2167.02 2834.5)"/><rect x="388" y="2942" width="276" height="158" fill="#FDEFE8"/><text fill="#D74514" font-family="Courier New,Courier New_MSFontService,sans-serif" font-weight="700" font-size="83" transform="matrix(1 0 0 1 452.291 3044)">1 3</text><path d="M0 0 61.3524 107.828" stroke="#000000" stroke-width="9.16667" stroke-miterlimit="8" fill="none" fill-rule="evenodd" transform="matrix(1 0 0 -1 918.5 2942.33)"/><rect x="2278" y="2942" width="407" height="158" fill="#FDEFE8"/><text fill="#D74514" font-family="Courier New,Courier New_MSFontService,sans-serif" font-weight="700" font-size="83" transform="matrix(1 0 0 1 2358.46 3044)">18 19</text><path d="M0 0 68.2498 107.828" stroke="#000000" stroke-width="9.16667" stroke-miterlimit="8" fill="none" fill-rule="evenodd" transform="matrix(-1 0 0 1 2550.75 2834.5)"/><rect x="1295" y="2405" width="871" height="157" fill="#D74514"/><text fill="#FFFFFF" font-family="Courier New,Courier New_MSFontService,sans-serif" font-weight="700" font-size="83" transform="matrix(1 0 0 1 1681.16 2507)">13</text><rect x="2166" y="2676" width="768" height="158" fill="#F0835C"/><text fill="#FFFFFF" font-family="Courier New,Courier New_MSFontService,sans-serif" font-weight="700" font-size="83" transform="matrix(1 0 0 1 2426.71 2779)">17 20</text><path d="M2550.12 2676.35 2166.5 2562.5" stroke="#000000" stroke-width="9.16667" stroke-miterlimit="8" fill="none" fill-rule="evenodd"/><path d="M0 0 315.164 113.853" stroke="#000000" stroke-width="9.16667" stroke-miterlimit="8" fill="none" fill-rule="evenodd" transform="matrix(-1 0 0 1 1294.66 2562.5)"/><path d="M1551 1582 1638 1582 1638 1508 1812 1508 1812 1582 1899 1582 1725 1656Z" fill="#D74514" fill-rule="evenodd"/><path d="M1557 2268 1644 2268 1644 2194 1818 2194 1818 2268 1905 2268 1731 2342Z" fill="#D74514" fill-rule="evenodd"/><path d="M1551 882 1638 882 1638 808 1812 808 1812 882 1899 882 1725 956Z" fill="#D74514" fill-rule="evenodd"/></g></svg>