<svg xmlns="http://www.w3.org/2000/svg" width="2442" height="1341" overflow="hidden"><defs><clipPath id="a"><path d="M2200 1049h2442v1341H2200z"/></clipPath></defs><g clip-path="url(#a)" transform="translate(-2200 -1049)"><path fill="#f0835c" d="M2200 1522h598v157h-598z"/><text fill="#fff" font-family="Courier New,Courier New_MSFontService,sans-serif" font-size="83" font-weight="700" transform="translate(2277.22 1624)">1 3 4 5 6</text><path fill="#d74514" d="M2798 1256h1236v158H2798z"/><text fill="#fff" font-family="Courier New,Courier New_MSFontService,sans-serif" font-size="83" font-weight="700" transform="translate(3243.59 1358)">7 13 20</text><path fill="#f0835c" d="M2912 1522h475v157h-475z"/><text fill="#fff" font-family="Courier New,Courier New_MSFontService,sans-serif" font-size="83" font-weight="700" transform="translate(2976.98 1624)">8 11 12</text><path fill="none" stroke="#000" stroke-miterlimit="8" stroke-width="9.167" d="m2796.53 1406.5-297.032 115.998M4034.5 1406.5l209.69 116"/><path fill="#f0835c" d="M3501 1522h419v157h-419z"/><text fill="#fff" font-family="Courier New,Courier New_MSFontService,sans-serif" font-size="83" font-weight="700" transform="translate(3587.48 1624)">14 17</text><path fill="none" stroke="#000" stroke-miterlimit="8" stroke-width="9.167" d="m3206.42 1414.5-56.917 107.828"/><path fill="#f0835c" d="M4034 1522h420v157h-420z"/><text fill="#fff" font-family="Courier New,Courier New_MSFontService,sans-serif" font-size="83" font-weight="700" transform="translate(4120.7 1624)">23 26</text><path fill="none" stroke="#000" stroke-miterlimit="8" stroke-width="9.167" d="m3665.5 1414.5 45.55 107.83"/><path fill="#f0835c" d="M2710 2211h277v158h-277z"/><text fill="#fff" font-family="Courier New,Courier New_MSFontService,sans-serif" font-size="83" font-weight="700" transform="translate(2774.64 2314)">5 6</text><path fill="#d74514" d="M2709 1946h1514v158H2709z"/><text fill="#fff" font-family="Courier New,Courier New_MSFontService,sans-serif" font-size="83" font-weight="700" transform="translate(3244.02 2048)">4 7 13 20</text><path fill="#f0835c" d="M3100 2211h476v158h-476z"/><text fill="#fff" font-family="Courier New,Courier New_MSFontService,sans-serif" font-size="83" font-weight="700" transform="translate(3165.71 2314)">8 11 12</text><path fill="none" stroke="#000" stroke-miterlimit="8" stroke-width="9.167" d="m2709.4 2095.5-251.901 115.998M4223.5 2095.5l209.69 116"/><path fill="#f0835c" d="M3690 2211h419v158h-419z"/><text fill="#fff" font-family="Courier New,Courier New_MSFontService,sans-serif" font-size="83" font-weight="700" transform="translate(3776.21 2314)">14 17</text><path fill="none" stroke="#000" stroke-miterlimit="8" stroke-width="9.167" d="m3363.49 2104.5-24.992 107.828"/><path fill="#f0835c" d="M4223 2211h419v158h-419z"/><text fill="#fff" font-family="Courier New,Courier New_MSFontService,sans-serif" font-size="83" font-weight="700" transform="translate(4309.43 2314)">23 26</text><path fill="none" stroke="#000" stroke-miterlimit="8" stroke-width="9.167" d="m3814.5 2104.5 85.82 107.83"/><path fill="#f0835c" d="M2319 2211h276v158h-276z"/><text fill="#fff" font-family="Courier New,Courier New_MSFontService,sans-serif" font-size="83" font-weight="700" transform="translate(2382.76 2314)">1 3</text><path fill="none" stroke="#000" stroke-miterlimit="8" stroke-width="9.167" d="m2849.5 2212.33 97.727-107.828"/><path fill="#d74514" fill-rule="evenodd" d="M3245 1829h87v-74h174v74h87l-174 74Zm-3-706h87v-74h174v74h87l-174 74Z"/></g></svg>