<svg xmlns="http://www.w3.org/2000/svg" width="1821" height="736" overflow="hidden"><defs><clipPath id="a"><path d="M2193 1696h1821v736H2193z"/></clipPath></defs><g clip-path="url(#a)" transform="translate(-2193 -1696)"><path fill="#f0835c" fill-rule="evenodd" stroke="#000" stroke-miterlimit="8" stroke-width="9.167" d="M2447.5 1780.5c0-43.63 35.37-79 79-79s79 35.37 79 79-35.37 79-79 79-79-35.37-79-79Z"/><text font-family="Courier New,Courier New_MSFontService,sans-serif" font-size="83" font-weight="700" transform="translate(2501.48 1804)">G</text><path fill="#f8ccb9" fill-rule="evenodd" stroke="#000" stroke-miterlimit="8" stroke-width="9.167" d="M2197.5 2030.5c0-43.63 35.37-79 79-79s79 35.37 79 79-35.37 79-79 79-79-35.37-79-79Z"/><text font-family="Courier New,Courier New_MSFontService,sans-serif" font-size="83" font-weight="700" transform="translate(2251.44 2054)">U</text><path fill="#f8ccb9" fill-rule="evenodd" stroke="red" stroke-miterlimit="8" stroke-width="9.167" d="M2712.5 2030.5c0-43.63 35.37-79 79-79s79 35.37 79 79-35.37 79-79 79-79-35.37-79-79Z"/><text fill="red" font-family="Courier New,Courier New_MSFontService,sans-serif" font-size="83" font-weight="700" transform="translate(2766.02 2054)">P</text><path fill="none" stroke="#000" stroke-miterlimit="8" stroke-width="9.167" d="m2332.5 1974.89 138.445-138.393m264.495 138.393L2582.5 1836.5"/><path fill="#fdefe8" fill-rule="evenodd" stroke="red" stroke-miterlimit="8" stroke-width="9.167" d="M2558.5 2332.5c0-43.63 35.37-79 79-79s79 35.37 79 79-35.37 79-79 79-79-35.37-79-79Z"/><text fill="red" font-family="Courier New,Courier New_MSFontService,sans-serif" font-size="83" font-weight="700" transform="translate(2612.16 2356)">x</text><path fill="none" stroke="#000" stroke-miterlimit="8" stroke-width="9.167" d="m2637.5 2253.88 102.026-168.381"/><path fill="#f0835c" fill-rule="evenodd" stroke="#000" stroke-miterlimit="8" stroke-width="9.167" d="M3448.5 1779.5c0-43.63 35.15-79 78.5-79s78.5 35.37 78.5 79-35.15 79-78.5 79-78.5-35.37-78.5-79Z"/><text font-family="Courier New,Courier New_MSFontService,sans-serif" font-size="83" font-weight="700" transform="translate(3501.92 1803)">G</text><path fill="#f8ccb9" fill-rule="evenodd" stroke="#000" stroke-miterlimit="8" stroke-width="9.167" d="M3198.5 2029.5c0-43.63 35.15-79 78.5-79s78.5 35.37 78.5 79-35.15 79-78.5 79-78.5-35.37-78.5-79Z"/><text font-family="Courier New,Courier New_MSFontService,sans-serif" font-size="83" font-weight="700" transform="translate(3251.88 2053)">U</text><path fill="#f8ccb9" fill-rule="evenodd" stroke="red" stroke-miterlimit="8" stroke-width="9.167" d="M3712.5 2029.5c0-43.63 35.37-79 79-79s79 35.37 79 79-35.37 79-79 79-79-35.37-79-79Z"/><text fill="red" font-family="Courier New,Courier New_MSFontService,sans-serif" font-size="83" font-weight="700" transform="translate(3766.46 2053)">P</text><path fill="none" stroke="#000" stroke-miterlimit="8" stroke-width="9.167" d="m3332.5 1973.89 138.445-138.393m264.495 138.393L3582.5 1835.5"/><path fill="#fdefe8" fill-rule="evenodd" stroke="red" stroke-miterlimit="8" stroke-width="9.167" d="M3851.5 2331.5c0-43.63 35.37-79 79-79s79 35.37 79 79-35.37 79-79 79-79-35.37-79-79Z"/><text fill="red" font-family="Courier New,Courier New_MSFontService,sans-serif" font-size="83" font-weight="700" transform="translate(3905.14 2355)">x</text><path fill="none" stroke="#000" stroke-miterlimit="8" stroke-width="9.167" d="m3930.41 2252.88-78.91-168.38"/><path fill="#d74514" fill-rule="evenodd" d="M2951 1972.5h90V1916l90 113-90 113v-56.5h-90Z"/></g></svg>