<svg width="1402" height="1368" xmlns="http://www.w3.org/2000/svg" xmlns:xlink="http://www.w3.org/1999/xlink" overflow="hidden"><defs><clipPath id="clip0"><rect x="2570" y="7" width="1402" height="1368"/></clipPath></defs><g clip-path="url(#clip0)" transform="translate(-2570 -7)"><rect x="2728" y="489" width="389" height="158" fill="#F0835C"/><text fill="#FFFFFF" font-family="Courier New,Courier New_MSFontService,sans-serif" font-weight="700" font-size="83" transform="matrix(1 0 0 1 2799.18 592)">1 3 5</text><rect x="2998" y="224" width="474" height="158" fill="#D74514"/><text fill="#FFFFFF" font-family="Courier New,Courier New_MSFontService,sans-serif" font-weight="700" font-size="83" transform="matrix(1 0 0 1 3210.54 326)">7</text><rect x="3232" y="489" width="740" height="158" fill="#F0835C"/><text fill="#FFFFFF" font-family="Courier New,Courier New_MSFontService,sans-serif" font-weight="700" font-size="83" transform="matrix(1 0 0 1 3281.75 592)">8 11 13 14 17</text><path d="M0 0 75.625 107.828" stroke="#000000" stroke-width="9.16667" stroke-miterlimit="8" fill="none" fill-rule="evenodd" transform="matrix(-1 0 0 1 2998.12 382.5)"/><path d="M3472.5 382.5 3602.15 490.328" stroke="#000000" stroke-width="9.16667" stroke-miterlimit="8" fill="none" fill-rule="evenodd"/><rect x="2570" y="1196" width="390" height="158" fill="#F0835C"/><text fill="#FFFFFF" font-family="Courier New,Courier New_MSFontService,sans-serif" font-weight="700" font-size="83" transform="matrix(1 0 0 1 2642.09 1299)">1 3 5</text><rect x="2960" y="931" width="553" height="157" fill="#D74514"/><text fill="#FFFFFF" font-family="Courier New,Courier New_MSFontService,sans-serif" font-weight="700" font-size="83" transform="matrix(1 0 0 1 3137.84 1033)">7 13</text><rect x="3075" y="1196" width="323" height="158" fill="#F0835C"/><text fill="#FFFFFF" font-family="Courier New,Courier New_MSFontService,sans-serif" font-weight="700" font-size="83" transform="matrix(1 0 0 1 3137.84 1299)">8 11</text><path d="M0 0 194.791 107.828" stroke="#000000" stroke-width="9.16667" stroke-miterlimit="8" fill="none" fill-rule="evenodd" transform="matrix(-1 0 0 1 2960.29 1088.5)"/><path d="M3513.5 1088.5 3703.99 1196.33" stroke="#000000" stroke-width="9.16667" stroke-miterlimit="8" fill="none" fill-rule="evenodd"/><rect x="3513" y="1196" width="381" height="158" fill="#F0835C"/><text fill="#FFFFFF" font-family="Courier New,Courier New_MSFontService,sans-serif" font-weight="700" font-size="83" transform="matrix(1 0 0 1 3580.02 1299)">14 17</text><path d="M3236.5 1088.5 3236.5 1196.33" stroke="#000000" stroke-width="9.16667" stroke-miterlimit="8" fill="none" fill-rule="evenodd"/><path d="M3061 790 3148 790 3148 716 3322 716 3322 790 3409 790 3235 864Z" fill="#D74514" fill-rule="evenodd"/><path d="M3058 80.9998 3145 80.9998 3145 6.99987 3319 6.99987 3319 80.9998 3406 80.9998 3232 155Z" fill="#D74514" fill-rule="evenodd"/></g></svg>