<svg width="834" height="1091" xmlns="http://www.w3.org/2000/svg" xmlns:xlink="http://www.w3.org/1999/xlink" overflow="hidden"><defs><clipPath id="clip0"><rect x="585" y="527" width="834" height="1091"/></clipPath></defs><g clip-path="url(#clip0)" transform="translate(-585 -527)"><rect x="642" y="724" width="661" height="158" fill="#D74514"/><text fill="#FFFFFF" font-family="Courier New,Courier New_MSFontService,sans-serif" font-weight="700" font-size="83" transform="matrix(1 0 0 1 726.258 826)">1 3 7 8 14</text><rect x="585" y="1440" width="330" height="158" fill="#F0835C"/><text fill="#FFFFFF" font-family="Courier New,Courier New_MSFontService,sans-serif" font-weight="700" font-size="83" transform="matrix(1 0 0 1 676.414 1542)">1 3</text><rect x="856" y="1174" width="234" height="158" fill="#D74514"/><text fill="#FFFFFF" font-family="Courier New,Courier New_MSFontService,sans-serif" font-weight="700" font-size="83" transform="matrix(1 0 0 1 947.976 1277)">7</text><rect x="1030" y="1440" width="389" height="158" fill="#F0835C"/><text fill="#FFFFFF" font-family="Courier New,Courier New_MSFontService,sans-serif" font-weight="700" font-size="83" transform="matrix(1 0 0 1 1125.98 1542)">8 14</text><path d="M0 0 105.243 107.828" stroke="#000000" stroke-width="9.16667" stroke-miterlimit="8" fill="none" fill-rule="evenodd" transform="matrix(-1 0 0 1 855.743 1332.5)"/><path d="M1090.5 1332.5 1225.36 1440.33" stroke="#000000" stroke-width="9.16667" stroke-miterlimit="8" fill="none" fill-rule="evenodd"/><path d="M799 1028 886 1028 886 954 1060 954 1060 1028 1147 1028 973 1102Z" fill="#D74514" fill-rule="evenodd"/><path d="M792 601 879 601 879 527 1053 527 1053 601 1140 601 966 675Z" fill="#D74514" fill-rule="evenodd"/></g></svg>