<svg xmlns="http://www.w3.org/2000/svg" width="2267" height="1319" overflow="hidden"><defs><clipPath id="a"><path d="M-263 913h2267v1319H-263z"/></clipPath></defs><g clip-path="url(#a)" transform="translate(263 -913)"><path fill="#f0835c" d="M-263 2054h475v157h-475z"/><text fill="#fff" font-family="Courier New,Courier New_MSFontService,sans-serif" font-size="83" font-weight="700" transform="translate(-197.694 2156)">1 3 5 6</text><path fill="#d74514" d="M212 1788h1237v158H212z"/><text fill="#fff" font-family="Courier New,Courier New_MSFontService,sans-serif" font-size="83" font-weight="700" transform="translate(658.161 1890)">7 13 20</text><path fill="#f0835c" d="M326 2054h476v157H326z"/><text fill="#fff" font-family="Courier New,Courier New_MSFontService,sans-serif" font-size="83" font-weight="700" transform="translate(391.551 2156)">8 11 12</text><path fill="none" stroke="#000" stroke-miterlimit="8" stroke-width="9.167" d="M211.294 1938.5-24.5 2054.498m1474-115.998 209.69 116"/><path fill="#f0835c" d="M916 2054h419v157H916z"/><text fill="#fff" font-family="Courier New,Courier New_MSFontService,sans-serif" font-size="83" font-weight="700" transform="translate(1002.05 2156)">14 17</text><path fill="none" stroke="#000" stroke-miterlimit="8" stroke-width="9.167" d="M621.417 1946.5 564.5 2054.328"/><path fill="#f0835c" d="M1449 2054h419v157h-419z"/><text fill="#fff" font-family="Courier New,Courier New_MSFontService,sans-serif" font-size="83" font-weight="700" transform="translate(1535.27 2156)">23 26</text><path fill="none" stroke="#000" stroke-miterlimit="8" stroke-width="9.167" d="m1080.5 1946.5 45.55 107.83"/><path fill="#f0835c" d="M-13 1372h475v158H-13z"/><text fill="#fff" font-family="Courier New,Courier New_MSFontService,sans-serif" font-size="83" font-weight="700" transform="translate(52.06 1475)">1 3 5 6</text><path fill="#d74514" d="M462 1107h703v157H462z"/><text fill="#fff" font-family="Courier New,Courier New_MSFontService,sans-serif" font-size="83" font-weight="700" transform="translate(715.21 1209)">7 13</text><path fill="#f0835c" d="M576 1372h475v158H576z"/><text fill="#fff" font-family="Courier New,Courier New_MSFontService,sans-serif" font-size="83" font-weight="700" transform="translate(641.304 1475)">8 11 12</text><path fill="none" stroke="#000" stroke-miterlimit="8" stroke-width="9.167" d="M461.294 1256.5 225.5 1372.498m940-115.998 419.38 116"/><path fill="#f0835c" d="M1165 1372h839v158h-839z"/><text fill="#fff" font-family="Courier New,Courier New_MSFontService,sans-serif" font-size="83" font-weight="700" transform="translate(1239.78 1475)">14 17 20 23 26</text><path fill="none" stroke="#000" stroke-miterlimit="8" stroke-width="9.167" d="M814.5 1264.5v107.83"/><path fill="#d74514" fill-rule="evenodd" d="M657 1658h87v-74h174v74h87l-174 74Zm0-671h87v-74h174v74h87l-174 74Z"/></g></svg>