<svg xmlns="http://www.w3.org/2000/svg" width="1402" height="1368" overflow="hidden"><defs><clipPath id="a"><path d="M2570 7h1402v1368H2570z"/></clipPath></defs><g clip-path="url(#a)" transform="translate(-2570 -7)"><path fill="#f0835c" d="M2728 489h389v158h-389z"/><text fill="#fff" font-family="Courier New,Courier New_MSFontService,sans-serif" font-size="83" font-weight="700" transform="translate(2799.18 592)">1 3 5</text><path fill="#d74514" d="M2998 224h474v158h-474z"/><text fill="#fff" font-family="Courier New,Courier New_MSFontService,sans-serif" font-size="83" font-weight="700" transform="translate(3210.54 326)">7</text><path fill="#f0835c" d="M3232 489h740v158h-740z"/><text fill="#fff" font-family="Courier New,Courier New_MSFontService,sans-serif" font-size="83" font-weight="700" transform="translate(3281.75 592)">8 11 13 14 17</text><path fill="none" stroke="#000" stroke-miterlimit="8" stroke-width="9.167" d="m2998.12 382.5-75.625 107.828M3472.5 382.5l129.65 107.828"/><path fill="#f0835c" d="M2570 1196h390v158h-390z"/><text fill="#fff" font-family="Courier New,Courier New_MSFontService,sans-serif" font-size="83" font-weight="700" transform="translate(2642.09 1299)">1 3 5</text><path fill="#d74514" d="M2960 931h553v157h-553z"/><text fill="#fff" font-family="Courier New,Courier New_MSFontService,sans-serif" font-size="83" font-weight="700" transform="translate(3137.84 1033)">7 13</text><path fill="#f0835c" d="M3075 1196h323v158h-323z"/><text fill="#fff" font-family="Courier New,Courier New_MSFontService,sans-serif" font-size="83" font-weight="700" transform="translate(3137.84 1299)">8 11</text><path fill="none" stroke="#000" stroke-miterlimit="8" stroke-width="9.167" d="m2960.29 1088.5-194.791 107.828M3513.5 1088.5l190.49 107.83"/><path fill="#f0835c" d="M3513 1196h381v158h-381z"/><text fill="#fff" font-family="Courier New,Courier New_MSFontService,sans-serif" font-size="83" font-weight="700" transform="translate(3580.02 1299)">14 17</text><path fill="none" stroke="#000" stroke-miterlimit="8" stroke-width="9.167" d="M3236.5 1088.5v107.83"/><path fill="#d74514" fill-rule="evenodd" d="M3061 790h87v-74h174v74h87l-174 74Zm-3-709h87V7h174v74h87l-174 74Z"/></g></svg>