<svg width="3061" height="1911" xmlns="http://www.w3.org/2000/svg" xmlns:xlink="http://www.w3.org/1999/xlink" overflow="hidden"><defs><clipPath id="clip0"><rect x="267" y="780" width="3061" height="1911"/></clipPath></defs><g clip-path="url(#clip0)" transform="translate(-267 -780)"><rect x="659" y="1528" width="276" height="158" fill="#FDEFE8"/><text fill="#D74514" font-family="Courier New,Courier New_MSFontService,sans-serif" font-weight="700" font-size="83" transform="matrix(1 0 0 1 722.84 1630)">5 6</text><rect x="543" y="1262" width="507" height="158" fill="#F0835C"/><text fill="#FFFFFF" font-family="Courier New,Courier New_MSFontService,sans-serif" font-weight="700" font-size="83" transform="matrix(1 0 0 1 722.363 1365)">4 7</text><rect x="1050" y="1528" width="407" height="158" fill="#FDEFE8"/><text fill="#D74514" font-family="Courier New,Courier New_MSFontService,sans-serif" font-weight="700" font-size="83" transform="matrix(1 0 0 1 1129.95 1630)">11 12</text><path d="M0 0 138.067 107.828" stroke="#000000" stroke-width="9.16667" stroke-miterlimit="8" fill="none" fill-rule="evenodd" transform="matrix(-1 0 0 1 543.567 1420.5)"/><path d="M2745.5 1420.5 2969.1 1528.33" stroke="#000000" stroke-width="9.16667" stroke-miterlimit="8" fill="none" fill-rule="evenodd"/><rect x="1570" y="1528" width="408" height="158" fill="#FDEFE8"/><text fill="#D74514" font-family="Courier New,Courier New_MSFontService,sans-serif" font-weight="700" font-size="83" transform="matrix(1 0 0 1 1650.83 1630)">14 16</text><path d="M1049.5 1420.5 1253.98 1528.33" stroke="#000000" stroke-width="9.16667" stroke-miterlimit="8" fill="none" fill-rule="evenodd"/><rect x="2608" y="1528" width="720" height="158" fill="#FDEFE8"/><text fill="#D74514" font-family="Courier New,Courier New_MSFontService,sans-serif" font-weight="700" font-size="83" transform="matrix(1 0 0 1 2697.39 1630)">23 24 25 26</text><path d="M0 0 203.522 107.828" stroke="#000000" stroke-width="9.16667" stroke-miterlimit="8" fill="none" fill-rule="evenodd" transform="matrix(-1 0 0 1 1978.02 1420.5)"/><rect x="267" y="1528" width="276" height="158" fill="#FDEFE8"/><text fill="#D74514" font-family="Courier New,Courier New_MSFontService,sans-serif" font-weight="700" font-size="83" transform="matrix(1 0 0 1 330.961 1630)">1 3</text><path d="M796.977 1528.33 796.5 1420.5" stroke="#000000" stroke-width="9.16667" stroke-miterlimit="8" fill="none" fill-rule="evenodd"/><rect x="2089" y="1528" width="407" height="158" fill="#FDEFE8"/><text fill="#D74514" font-family="Courier New,Courier New_MSFontService,sans-serif" font-weight="700" font-size="83" transform="matrix(1 0 0 1 2169.72 1630)">18 19</text><path d="M0 0 68.2498 107.828" stroke="#000000" stroke-width="9.16667" stroke-miterlimit="8" fill="none" fill-rule="evenodd" transform="matrix(-1 0 0 1 2361.75 1420.5)"/><rect x="1106" y="991" width="872" height="157" fill="#D74514"/><text fill="#FFFFFF" font-family="Courier New,Courier New_MSFontService,sans-serif" font-weight="700" font-size="83" transform="matrix(1 0 0 1 1492.42 1093)">13</text><rect x="1978" y="1262" width="767" height="158" fill="#F0835C"/><text fill="#FFFFFF" font-family="Courier New,Courier New_MSFontService,sans-serif" font-weight="700" font-size="83" transform="matrix(1 0 0 1 2311.88 1365)">17</text><path d="M2362.12 1262.35 1978.5 1148.5" stroke="#000000" stroke-width="9.16667" stroke-miterlimit="8" fill="none" fill-rule="evenodd"/><path d="M0 0 343.289 113.853" stroke="#000000" stroke-width="9.16667" stroke-miterlimit="8" fill="none" fill-rule="evenodd" transform="matrix(-1 0 0 1 1139.79 1148.5)"/><rect x="659" y="2512" width="276" height="158" fill="#FDEFE8"/><text fill="#D74514" font-family="Courier New,Courier New_MSFontService,sans-serif" font-weight="700" font-size="83" transform="matrix(1 0 0 1 722.84 2615)">5 6</text><rect x="543" y="2247" width="507" height="158" fill="#F0835C"/><text fill="#FFFFFF" font-family="Courier New,Courier New_MSFontService,sans-serif" font-weight="700" font-size="83" transform="matrix(1 0 0 1 722.363 2349)">4 7</text><rect x="1050" y="2512" width="407" height="158" fill="#FDEFE8"/><text fill="#D74514" font-family="Courier New,Courier New_MSFontService,sans-serif" font-weight="700" font-size="83" transform="matrix(1 0 0 1 1129.95 2615)">11 12</text><path d="M0 0 138.067 107.828" stroke="#000000" stroke-width="9.16667" stroke-miterlimit="8" fill="none" fill-rule="evenodd" transform="matrix(-1 0 0 1 543.567 2405.5)"/><path d="M2608.5 2405.5 2901.65 2513.33" stroke="#000000" stroke-width="9.16667" stroke-miterlimit="8" fill="none" fill-rule="evenodd"/><rect x="1570" y="2512" width="408" height="158" fill="#FDEFE8"/><text fill="#D74514" font-family="Courier New,Courier New_MSFontService,sans-serif" font-weight="700" font-size="83" transform="matrix(1 0 0 1 1650.83 2615)">14 16</text><path d="M1049.5 2405.5 1253.98 2513.33" stroke="#000000" stroke-width="9.16667" stroke-miterlimit="8" fill="none" fill-rule="evenodd"/><rect x="2608" y="2512" width="587" height="158" fill="#FDEFE8"/><text fill="#D74514" font-family="Courier New,Courier New_MSFontService,sans-serif" font-weight="700" font-size="83" transform="matrix(1 0 0 1 2704.35 2615)">24 25 26</text><path d="M0 0 203.522 107.828" stroke="#000000" stroke-width="9.16667" stroke-miterlimit="8" fill="none" fill-rule="evenodd" transform="matrix(-1 0 0 1 1978.02 2405.5)"/><rect x="267" y="2512" width="276" height="158" fill="#FDEFE8"/><text fill="#D74514" font-family="Courier New,Courier New_MSFontService,sans-serif" font-weight="700" font-size="83" transform="matrix(1 0 0 1 330.961 2615)">1 3</text><path d="M796.977 2513.33 796.5 2405.5" stroke="#000000" stroke-width="9.16667" stroke-miterlimit="8" fill="none" fill-rule="evenodd"/><rect x="2089" y="2512" width="407" height="158" fill="#FDEFE8"/><text fill="#D74514" font-family="Courier New,Courier New_MSFontService,sans-serif" font-weight="700" font-size="83" transform="matrix(1 0 0 1 2169.72 2615)">18 19</text><path d="M2293.5 2405.5 2293.5 2513.33" stroke="#000000" stroke-width="9.16667" stroke-miterlimit="8" fill="none" fill-rule="evenodd"/><rect x="1106" y="1975" width="872" height="158" fill="#D74514"/><text fill="#FFFFFF" font-family="Courier New,Courier New_MSFontService,sans-serif" font-weight="700" font-size="83" transform="matrix(1 0 0 1 1492.42 2077)">13</text><rect x="1978" y="2247" width="630" height="158" fill="#F0835C"/><text fill="#FFFFFF" font-family="Courier New,Courier New_MSFontService,sans-serif" font-weight="700" font-size="83" transform="matrix(1 0 0 1 2169.72 2349)">17 23</text><path d="M2293.87 2247.35 1978.5 2133.5" stroke="#000000" stroke-width="9.16667" stroke-miterlimit="8" fill="none" fill-rule="evenodd"/><path d="M0 0 343.289 113.853" stroke="#000000" stroke-width="9.16667" stroke-miterlimit="8" fill="none" fill-rule="evenodd" transform="matrix(-1 0 0 1 1139.79 2133.5)"/><path d="M1344 854 1431 854 1431 780 1605 780 1605 854 1692 854 1518 928Z" fill="#D74514" fill-rule="evenodd"/><path d="M1373 1859 1460 1859 1460 1785 1634 1785 1634 1859 1721 1859 1547 1933Z" fill="#D74514" fill-rule="evenodd"/></g></svg>