<svg width="3632" height="909" xmlns="http://www.w3.org/2000/svg" xmlns:xlink="http://www.w3.org/1999/xlink" overflow="hidden"><defs><clipPath id="clip0"><rect x="325" y="50" width="3632" height="909"/></clipPath></defs><g clip-path="url(#clip0)" transform="translate(-325 -50)"><rect x="1352" y="49.9998" width="1054" height="157" fill="#D74514"/><text fill="#FFFFFF" font-family="Courier New,Courier New_MSFontService,sans-serif" font-weight="700" font-size="83" transform="matrix(1 0 0 1 1829.42 152)">10</text><rect x="2406" y="415" width="1110" height="158" fill="#F0835C"/><text fill="#FFFFFF" font-family="Courier New,Courier New_MSFontService,sans-serif" font-weight="700" font-size="83" transform="matrix(1 0 0 1 2763.59 517)">13 16 19</text><rect x="1965" y="781" width="441" height="157" fill="#FDEFE8"/><text fill="#D74514" font-family="Courier New,Courier New_MSFontService,sans-serif" font-weight="700" font-size="83" transform="matrix(1 0 0 1 2061.98 883)">11 12</text><rect x="2482" y="781" width="441" height="157" fill="#FDEFE8"/><text fill="#D74514" font-family="Courier New,Courier New_MSFontService,sans-serif" font-weight="700" font-size="83" transform="matrix(1 0 0 1 2578.99 883)">14 15</text><rect x="2999" y="781" width="441" height="157" fill="#FDEFE8"/><text fill="#D74514" font-family="Courier New,Courier New_MSFontService,sans-serif" font-weight="700" font-size="83" transform="matrix(1 0 0 1 3096 883)">17 18</text><rect x="3516" y="781" width="441" height="157" fill="#FDEFE8"/><text fill="#D74514" font-family="Courier New,Courier New_MSFontService,sans-serif" font-weight="700" font-size="83" transform="matrix(1 0 0 1 3613 883)">20 21</text><path d="M0 0 220.491 207.665" stroke="#000000" stroke-width="9.16667" stroke-miterlimit="8" fill="none" fill-rule="evenodd" transform="matrix(1 0 0 -1 2185.5 781.165)"/><path d="M3736.99 781.165 3516.5 573.5" stroke="#000000" stroke-width="9.16667" stroke-miterlimit="8" fill="none" fill-rule="evenodd"/><path d="M0 0 104.666 207.665" stroke="#000000" stroke-width="9.16667" stroke-miterlimit="8" fill="none" fill-rule="evenodd" transform="matrix(1 0 0 -1 2702.5 781.165)"/><path d="M3219.59 781.165 3123.5 573.5" stroke="#000000" stroke-width="9.16667" stroke-miterlimit="8" fill="none" fill-rule="evenodd"/><rect x="766" y="415" width="586" height="158" fill="#F0835C"/><text fill="#FFFFFF" font-family="Courier New,Courier New_MSFontService,sans-serif" font-weight="700" font-size="83" transform="matrix(1 0 0 1 861.773 517)">13 16 19</text><rect x="325" y="781" width="441" height="157" fill="#FDEFE8"/><text fill="#D74514" font-family="Courier New,Courier New_MSFontService,sans-serif" font-weight="700" font-size="83" transform="matrix(1 0 0 1 422.31 883)">14 15</text><rect x="842" y="781" width="441" height="157" fill="#FDEFE8"/><text fill="#D74514" font-family="Courier New,Courier New_MSFontService,sans-serif" font-weight="700" font-size="83" transform="matrix(1 0 0 1 939.318 883)">17 18</text><rect x="1352" y="781" width="517" height="157" fill="#FDEFE8"/><text fill="#D74514" font-family="Courier New,Courier New_MSFontService,sans-serif" font-weight="700" font-size="83" transform="matrix(1 0 0 1 1487.06 883)">7 8 9</text><path d="M1611 781.165 1352.5 573.5" stroke="#000000" stroke-width="9.16667" stroke-miterlimit="8" fill="none" fill-rule="evenodd"/><path d="M0 0 231.328 207.665" stroke="#000000" stroke-width="9.16667" stroke-miterlimit="8" fill="none" fill-rule="evenodd" transform="matrix(1 0 0 -1 545.5 781.165)"/><path d="M1063.14 781.165 1059.5 573.5" stroke="#000000" stroke-width="9.16667" stroke-miterlimit="8" fill="none" fill-rule="evenodd"/><path d="M2961.52 415.165 2406.5 207.5" stroke="#000000" stroke-width="9.16667" stroke-miterlimit="8" fill="none" fill-rule="evenodd"/><path d="M0 0 292.879 207.665" stroke="#000000" stroke-width="9.16667" stroke-miterlimit="8" fill="none" fill-rule="evenodd" transform="matrix(1 0 0 -1 1059.5 415.165)"/></g></svg>