<svg xmlns="http://www.w3.org/2000/svg" width="2905" height="657" overflow="hidden"><defs><clipPath id="a"><path d="M226-172h2905v657H226z"/></clipPath></defs><g clip-path="url(#a)" transform="translate(-226 172)"><path fill="#f0835c" d="M618 306h276v158H618z"/><text fill="#fff" font-family="Courier New,Courier New_MSFontService,sans-serif" font-size="83" font-weight="700" transform="translate(682.105 409)">5 6</text><path fill="#d74514" d="M756 41h1655v157H756z"/><text fill="#fff" font-family="Courier New,Courier New_MSFontService,sans-serif" font-size="83" font-weight="700" transform="translate(1361.91 143)">4 7 13 20</text><path fill="#f0835c" d="M1008 306h475v158h-475z"/><text fill="#fff" font-family="Courier New,Courier New_MSFontService,sans-serif" font-size="83" font-weight="700" transform="translate(1073.17 409)">8 11 12</text><path fill="none" stroke="#000" stroke-miterlimit="8" stroke-width="9.167" d="M756.379 190.5 364.5 306.498m2047-115.998 360.1 115.998"/><path fill="#f0835c" d="M1597 306h700v158h-700z"/><text fill="#fff" font-family="Courier New,Courier New_MSFontService,sans-serif" font-size="83" font-weight="700" transform="translate(1676.3 409)">14 16 17 18</text><path fill="none" stroke="#000" stroke-miterlimit="8" stroke-width="9.167" d="m1343.77 190.5-97.27 115.998"/><path fill="#f0835c" d="M2411 306h720v158h-720z"/><text fill="#fff" font-family="Courier New,Courier New_MSFontService,sans-serif" font-size="83" font-weight="700" transform="translate(2500.36 409)">23 24 25 26</text><path fill="none" stroke="#000" stroke-miterlimit="8" stroke-width="9.167" d="m1850.5 190.5 97.27 115.998"/><path fill="#f0835c" d="M226 306h276v158H226z"/><text fill="#fff" font-family="Courier New,Courier New_MSFontService,sans-serif" font-size="83" font-weight="700" transform="translate(290.226 409)">1 3</text><path fill="none" stroke="#000" stroke-miterlimit="8" stroke-width="9.167" d="M756.5 306.498 1008.401 190.5"/><path fill="#d74514" fill-rule="evenodd" d="M1384-98h87v-74h174v74h87l-174 74Z"/></g></svg>