<svg width="3885" height="735" xmlns="http://www.w3.org/2000/svg" xmlns:xlink="http://www.w3.org/1999/xlink" overflow="hidden"><defs><clipPath id="clip0"><rect x="176" y="1078" width="3885" height="735"/></clipPath><linearGradient x1="177" y1="1447.5" x2="617" y2="1447.5" gradientUnits="userSpaceOnUse" spreadMethod="reflect" id="fill1"><stop offset="0" stop-color="#FFFFFF"/><stop offset="0.62" stop-color="#D74514"/><stop offset="1" stop-color="#D74514"/></linearGradient><linearGradient x1="-0.0393789" y1="1.29764" x2="459.949" y2="1.29764" gradientUnits="userSpaceOnUse" spreadMethod="reflect" id="stroke2"><stop offset="0" stop-color="#FFFFFF"/><stop offset="0.57" stop-color="#F0835C"/><stop offset="1" stop-color="#F0835C"/></linearGradient><clipPath id="clip3"><rect x="1079" y="1548" width="130" height="131"/></clipPath><clipPath id="clip4"><rect x="1079" y="1548" width="130" height="131"/></clipPath><clipPath id="clip5"><rect x="1079" y="1548" width="130" height="131"/></clipPath><clipPath id="clip6"><rect x="229" y="1195" width="131" height="131"/></clipPath><clipPath id="clip7"><rect x="229" y="1195" width="131" height="131"/></clipPath><clipPath id="clip8"><rect x="229" y="1195" width="131" height="131"/></clipPath><clipPath id="clip9"><rect x="339" y="1182" width="93" height="91"/></clipPath><clipPath id="clip10"><rect x="339" y="1182" width="93" height="91"/></clipPath><clipPath id="clip11"><rect x="339" y="1182" width="93" height="91"/></clipPath><linearGradient x1="1577" y1="1447.5" x2="2016" y2="1447.5" gradientUnits="userSpaceOnUse" spreadMethod="reflect" id="fill12"><stop offset="0" stop-color="#FFFFFF"/><stop offset="0.62" stop-color="#D74514"/><stop offset="1" stop-color="#D74514"/></linearGradient><clipPath id="clip13"><rect x="2479" y="1548" width="130" height="131"/></clipPath><clipPath id="clip14"><rect x="2479" y="1548" width="130" height="131"/></clipPath><clipPath id="clip15"><rect x="2479" y="1548" width="130" height="131"/></clipPath><clipPath id="clip16"><rect x="1958" y="1379" width="130" height="131"/></clipPath><clipPath id="clip17"><rect x="1958" y="1379" width="130" height="131"/></clipPath><clipPath id="clip18"><rect x="1958" y="1379" width="130" height="131"/></clipPath><linearGradient x1="2959" y1="1447.5" x2="3399" y2="1447.5" gradientUnits="userSpaceOnUse" spreadMethod="reflect" id="fill19"><stop offset="0" stop-color="#FFFFFF"/><stop offset="0.62" stop-color="#D74514"/><stop offset="1" stop-color="#D74514"/></linearGradient><clipPath id="clip20"><rect x="3347" y="1380" width="131" height="132"/></clipPath><clipPath id="clip21"><rect x="3347" y="1380" width="131" height="132"/></clipPath><clipPath id="clip22"><rect x="3347" y="1380" width="131" height="132"/></clipPath><clipPath id="clip23"><rect x="3861" y="1548" width="130" height="131"/></clipPath><clipPath id="clip24"><rect x="3861" y="1548" width="130" height="131"/></clipPath><clipPath id="clip25"><rect x="3861" y="1548" width="130" height="131"/></clipPath></defs><g clip-path="url(#clip0)" transform="translate(-176 -1078)"><rect x="177" y="1366" width="440" height="163" fill="url(#fill1)"/><path d="M542 1445.5C542 1242.54 706.535 1078 909.5 1078 1112.46 1078 1277 1242.54 1277 1445.5 1277 1648.46 1112.46 1813 909.5 1813 706.535 1813 542 1648.46 542 1445.5Z" fill="#D74514" fill-rule="evenodd"/><path d="M691 1447.5C691 1326.27 789.273 1228 910.5 1228 1031.73 1228 1130 1326.27 1130 1447.5 1130 1568.73 1031.73 1667 910.5 1667 789.273 1667 691 1568.73 691 1447.5Z" fill="#FFFFFF" fill-rule="evenodd"/><path d="M0 0 146.928 2.59518" stroke="#F8CCB9" stroke-width="13.75" stroke-miterlimit="8" fill="none" fill-rule="evenodd" transform="matrix(-1 0 0 1 1276.93 1445)"/><text fill="#FFFFFF" font-family="Microsoft YaHei,Microsoft YaHei_MSFontService,sans-serif" font-weight="400" font-size="64" transform="matrix(1 0 0 1 1181.31 1390)">A<tspan font-size="64" x="2.57825" y="160">B</tspan></text><path d="M674.918 1609.7 667.834 1600.32 660.299 1587.46 653.518 1574.54 652.901 1573.2 665.387 1567.44 665.931 1568.62 665.775 1568.31 672.4 1580.93 672.245 1580.65 679.495 1593.02 679.049 1592.36 685.89 1601.42ZM647.044 1560.37 642.058 1547.91 637.325 1534.28 633.371 1520.79 646.567 1516.92 650.473 1530.25 650.369 1529.93 654.994 1543.24 654.883 1542.95 659.81 1555.26ZM630.035 1507.12 629.904 1506.58 627.218 1492.51 625.169 1478.36 623.994 1465.32 637.689 1464.09 638.847 1476.95 638.804 1476.58 640.804 1490.39 640.753 1490.09 643.378 1503.84 643.306 1503.5 643.396 1503.87ZM623.256 1451.31 623.187 1449.9 623.251 1435.63 623.954 1421.37 625.168 1409.12 638.851 1410.48 637.654 1422.55 637.679 1422.21 636.992 1436.15 637 1435.84 636.938 1449.78 636.929 1449.41 636.99 1450.63ZM627.095 1395.2 627.41 1393.02 630.227 1378.94 633.677 1365.01 636.896 1354.14 650.079 1358.05 646.904 1368.77 646.986 1368.47 643.611 1382.09 643.679 1381.79 640.929 1395.54 640.992 1395.17 640.703 1397.17ZM641.482 1340.79 642.641 1337.54 648.137 1324.12 654.283 1310.93 658.865 1302.32 671.003 1308.78 666.507 1317.23 666.669 1316.9 660.669 1329.78 660.8 1329.48 655.425 1342.61 655.538 1342.31 654.432 1345.41ZM665.865 1290.1 668.83 1285.13 680.253 1269.66 691.315 1277.82 680.094 1293.02 680.468 1292.46 677.676 1297.14ZM702.562 1578.39 719.75 1653.31 649.503 1622.11ZM655.447 1256.17 726.688 1227.31 707.031 1301.62Z" fill="#F0835C"/><path d="M0 0 453.074 2.59518" stroke="url(#stroke2)" stroke-width="13.75" stroke-miterlimit="8" stroke-dasharray="41.25 13.75" fill="none" fill-rule="evenodd" transform="matrix(1 0 0 -1 177 1447.6)"/><g clip-path="url(#clip3)"><g clip-path="url(#clip4)"><g clip-path="url(#clip5)"><path d="M1187.33 1638.37C1187.26 1634.98 1185.67 1631.8 1183 1629.71 1177.04 1624.83 1169.46 1621.58 1161.88 1619.42 1156.08 1617.64 1150.06 1616.73 1144 1616.71 1137.95 1616.81 1131.94 1617.72 1126.12 1619.42 1118.55 1621.63 1111.41 1625.11 1105 1629.71 1102.33 1631.8 1100.74 1634.98 1100.67 1638.37L1100.67 1660.04 1187.33 1660.04Z" fill="#FFFFFF"/><path d="M1167.17 1605.33C1165.92 1600.46 1170.69 1588.27 1170.73 1579.69 1170.73 1572.82 1168.78 1569.75 1165.1 1567.66 1162.97 1566.46 1158.07 1567.57 1158.07 1567.57 1158.07 1567.57 1155.54 1562.77 1147.06 1560.13 1140.09 1558.23 1132.66 1559.18 1126.4 1562.77 1121.16 1566.16 1118.62 1569.88 1118.5 1582.69 1118.39 1594.43 1120 1604.86 1119.26 1609.77 1118.92 1612.5 1117.88 1615.08 1116.25 1617.29 1116.25 1617.29 1124.38 1618.33 1128.91 1615.94 1131.2 1614.4 1133.36 1612.7 1135.39 1610.84 1128.44 1607.6 1123.37 1601.34 1121.66 1593.86 1121.48 1593.21 1120.3 1588.96 1122.18 1586.58 1123.21 1585.22 1125.57 1584.84 1129.5 1584.15 1134.2 1583.53 1138.79 1582.24 1143.12 1580.32 1147.99 1577.87 1152.51 1574.77 1156.55 1571.11 1157.09 1570.59 1157.94 1570.6 1158.47 1571.13 1158.67 1571.33 1158.8 1571.59 1158.84 1571.87 1159.16 1574.1 1159.94 1576.24 1161.12 1578.16 1161.67 1578.86 1162.35 1579.46 1163.12 1579.92 1164.02 1580.45 1164.8 1581.18 1165.4 1582.04 1166.37 1583.95 1166.93 1586.05 1167.02 1588.19 1166.93 1598.07 1161.06 1606.98 1152.02 1610.97 1153.72 1612.47 1155.96 1614.32 1158.42 1616.11 1162.48 1619.05 1172.3 1614.99 1172.3 1614.99 1172.3 1614.99 1169.13 1613.09 1167.17 1605.33Z" fill="#FFFFFF"/><path d="M1164.31 1588.27C1164.24 1586.63 1163.84 1585.03 1163.15 1583.54 1162.75 1582.98 1162.23 1582.52 1161.63 1582.19 1160.6 1581.57 1159.68 1580.76 1158.92 1579.82 1157.83 1578.25 1157.05 1576.49 1156.61 1574.63 1152.83 1577.81 1148.69 1580.53 1144.28 1582.76 1139.71 1584.79 1134.87 1586.16 1129.9 1586.82 1127.61 1587.23 1124.76 1587.73 1124.27 1588.24 1123.46 1589.3 1123.88 1591.99 1124.27 1593.13 1126.59 1602.9 1134.87 1609.94 1144 1609.94 1154.83 1609.94 1164.31 1599.81 1164.31 1588.27Z" fill="#FFFFFF"/></g></g></g><g clip-path="url(#clip6)"><g clip-path="url(#clip7)"><g clip-path="url(#clip8)"><path d="M338.333 1285.37C338.263 1281.98 336.672 1278.8 334 1276.71 328.042 1271.83 320.458 1268.58 312.875 1266.42 307.081 1264.64 301.059 1263.73 295 1263.71 288.948 1263.81 282.936 1264.72 277.125 1266.42 269.552 1268.63 262.408 1272.11 256 1276.71 253.328 1278.8 251.737 1281.98 251.667 1285.37L251.667 1307.04 338.333 1307.04Z" fill="#D74514"/><path d="M290.937 1230.87C294.458 1228.8 303.125 1222.11 303.125 1222.11L303.125 1222.11C304.492 1222.23 305.794 1222.75 306.862 1223.61 309.463 1225.44 311.665 1227.77 313.335 1230.48 314.838 1232.72 316.125 1234.54 316.518 1235.08L316.518 1235.08 316.667 1235.27 316.667 1235.27C317.344 1233.92 317.317 1230.14 316.843 1226.7 316.179 1221.96 315.637 1220.55 312.604 1218.01 310.671 1216.25 308.092 1215.39 305.495 1215.64 301.971 1212.9 297.726 1211.25 293.28 1210.9 286.509 1210.65 279.116 1214.19 275.974 1218.33 271.221 1224.56 271.749 1228.62 271.749 1230.07 271.749 1231.52 270.083 1234.04 271.248 1234.04 272.006 1234.04 272.751 1234.04 273.509 1234.04L273.509 1234.04C277.802 1233.92 286.563 1233.44 290.937 1230.87Z" fill="#D74514"/><path d="M314.527 1236.86C314.459 1236.76 312.97 1234.69 311.155 1231.99 309.665 1229.55 307.687 1227.44 305.346 1225.79 304.89 1225.46 304.394 1225.19 303.87 1224.98 301.459 1226.81 295.257 1231.47 292.305 1233.19 287.62 1235.89 279.075 1236.61 273.347 1236.73 273.495 1248.7 283.315 1258.28 295.281 1258.13 305.968 1258 314.962 1250.09 316.463 1239.51Z" fill="#D74514"/></g></g></g><g clip-path="url(#clip9)"><g clip-path="url(#clip10)"><g clip-path="url(#clip11)"><path d="M50.8082 50.5238C54.0311 53.0832 57.0644 57.5384 59.3394 62.5623L31.6603 62.5623C34.0301 57.5384 36.9686 52.9884 40.1916 50.5238 41.7082 49.2915 42.6561 47.4905 42.6561 45.4999 42.6561 43.5093 41.7082 41.7082 40.1916 40.4759 33.7457 35.452 28.153 22.5604 27.2051 13.2708L63.8894 13.2708C62.8467 22.5604 57.3488 35.452 50.903 40.4759 49.2915 41.7082 48.3436 43.5093 48.3436 45.4999 48.3436 47.4905 49.2915 49.2915 50.8082 50.5238ZM69.4821 13.2708 72.0415 13.2708 72.0415 7.58331 18.9583 7.58331 18.9583 13.2708 21.4229 13.2708C22.4656 23.7926 28.5322 39.1488 37.3478 45.4999 28.5322 51.8509 22.3708 67.2071 21.4229 77.7289L18.9583 77.7289 18.9583 83.4164 72.0415 83.4164 72.0415 77.7289 69.4821 77.7289C68.5342 67.2071 62.3727 51.8509 53.5571 45.4999 62.3727 39.1488 68.5342 23.7926 69.4821 13.2708Z" fill="#D74514" transform="matrix(1 0 0 1 340 1182)"/></g></g></g><rect x="1577" y="1366" width="439" height="163" fill="url(#fill12)"/><path d="M1942 1445.5C1942 1242.54 2106.54 1078 2309.5 1078 2512.46 1078 2677 1242.54 2677 1445.5 2677 1648.46 2512.46 1813 2309.5 1813 2106.54 1813 1942 1648.46 1942 1445.5Z" fill="#D74514" fill-rule="evenodd"/><path d="M2090 1447.5C2090 1326.27 2188.5 1228 2310 1228 2431.5 1228 2530 1326.27 2530 1447.5 2530 1568.73 2431.5 1667 2310 1667 2188.5 1667 2090 1568.73 2090 1447.5Z" fill="#FFFFFF" fill-rule="evenodd"/><path d="M0 0 146.928 2.59518" stroke="#F8CCB9" stroke-width="13.75" stroke-miterlimit="8" fill="none" fill-rule="evenodd" transform="matrix(-1 0 0 1 2676.93 1445)"/><text fill="#FFFFFF" font-family="Microsoft YaHei,Microsoft YaHei_MSFontService,sans-serif" font-weight="400" font-size="64" transform="matrix(1 0 0 1 2580.92 1390)">A<tspan font-size="64" x="2.57837" y="160">B</tspan></text><g clip-path="url(#clip13)"><g clip-path="url(#clip14)"><g clip-path="url(#clip15)"><path d="M107.5 88.6874C107.43 85.3208 105.851 82.1637 103.2 80.0874 97.2874 75.2499 89.7624 72.0249 82.2374 69.8749 76.4885 68.115 70.5122 67.2096 64.4999 67.1874 58.4943 67.291 52.5293 68.1949 46.7625 69.8749 39.2473 72.0679 32.159 75.5212 25.8 80.0874 23.1488 82.1637 21.5701 85.3208 21.5 88.6874L21.5 110.187 107.5 110.187Z" fill="#FFFFFF" transform="matrix(1 0 0 1.00775 2479 1549)"/><path d="M87.4915 55.9C86.2552 51.0625 90.9852 38.9687 91.0256 30.4494 91.0256 23.6365 89.0906 20.5862 85.4356 18.5169 83.3259 17.3209 78.4615 18.4228 78.4615 18.4228 78.4615 18.4228 75.9487 13.6659 67.5368 11.0456 60.6247 9.16374 53.2481 10.1064 47.0312 13.6659 41.8309 17.0253 39.3181 20.7206 39.1972 33.4325 39.0897 45.0828 40.6887 55.4296 39.9497 60.3075 39.6089 63.0075 38.5819 65.5751 36.9665 67.7653 36.9665 67.7653 45.029 68.7999 49.5306 66.4215 51.7959 64.9016 53.9431 63.2126 55.9537 61.369 49.0573 58.1526 44.0299 51.9352 42.3281 44.5184 42.1534 43.8734 40.9843 39.654 42.8522 37.289 43.8734 35.9453 46.2115 35.569 50.1084 34.8837 54.7731 34.2692 59.3256 32.9886 63.6265 31.0809 68.4613 28.6497 72.9451 25.576 76.9565 21.9434 77.4853 21.4227 78.336 21.4292 78.8568 21.9579 79.0548 22.159 79.1844 22.4171 79.2274 22.6959 79.5474 24.9064 80.3156 27.028 81.4849 28.9309 82.0326 29.6326 82.7072 30.2252 83.4737 30.6778 84.3671 31.2131 85.1367 31.9322 85.7312 32.7875 86.7015 34.6812 87.2515 36.7621 87.3437 38.8881 87.2558 48.694 81.4297 57.5383 72.4549 61.4899 74.1481 62.9815 76.3653 64.8224 78.8109 66.5962 82.8421 69.5121 92.5843 65.4809 92.5843 65.4809 92.5843 65.4809 89.4399 63.5996 87.4915 55.9Z" fill="#FFFFFF" transform="matrix(1 0 0 1.00775 2479 1549)"/><path d="M84.6562 38.9687C84.5844 37.3445 84.1917 35.7506 83.5006 34.279 83.107 33.723 82.5925 33.2636 81.9956 32.9353 80.9679 32.3162 80.058 31.5202 79.3081 30.5837 78.2269 29.0271 77.4474 27.2813 77.0103 25.4372 73.2586 28.587 69.1554 31.2924 64.7821 33.4997 60.2425 35.519 55.4368 36.8766 50.5115 37.5309 48.2406 37.934 45.4053 38.4312 44.9215 38.9418 44.1153 39.99 44.5318 42.664 44.9215 43.7928 47.2193 53.4812 55.4431 60.4687 64.4999 60.4687 75.2499 60.4687 84.6562 50.4175 84.6562 38.9687Z" fill="#FFFFFF" transform="matrix(1 0 0 1.00775 2479 1549)"/></g></g></g><g clip-path="url(#clip16)"><g clip-path="url(#clip17)"><g clip-path="url(#clip18)"><path d="M2066.33 1468.38C2066.26 1464.98 2064.67 1461.8 2062 1459.71 2056.04 1454.83 2048.46 1451.58 2040.88 1449.42 2035.08 1447.64 2029.06 1446.73 2023 1446.71 2016.95 1446.81 2010.94 1447.72 2005.12 1449.42 1997.55 1451.63 1990.41 1455.11 1984 1459.71 1981.33 1461.8 1979.74 1464.98 1979.67 1468.38L1979.67 1490.04 2066.33 1490.04Z" fill="#FFFFFF"/><path d="M2018.94 1413.87C2022.46 1411.8 2031.12 1405.11 2031.12 1405.11L2031.12 1405.11C2032.49 1405.23 2033.79 1405.75 2034.86 1406.61 2037.46 1408.44 2039.67 1410.77 2041.34 1413.48 2042.84 1415.73 2044.12 1417.54 2044.52 1418.08L2044.52 1418.08 2044.67 1418.27 2044.67 1418.27C2045.34 1416.92 2045.32 1413.14 2044.84 1409.7 2044.18 1404.96 2043.64 1403.55 2040.6 1401.01 2038.67 1399.25 2036.09 1398.39 2033.49 1398.64 2029.97 1395.9 2025.73 1394.25 2021.28 1393.9 2014.51 1393.65 2007.12 1397.19 2003.97 1401.33 1999.22 1407.56 1999.75 1411.62 1999.75 1413.07 1999.75 1414.52 1998.08 1417.04 1999.25 1417.04 2000.01 1417.04 2000.75 1417.04 2001.51 1417.04L2001.51 1417.04C2005.8 1416.92 2014.56 1416.44 2018.94 1413.87Z" fill="#FFFFFF"/><path d="M2042.53 1419.86C2042.46 1419.76 2040.97 1417.69 2039.16 1414.99 2037.66 1412.55 2035.69 1410.44 2033.35 1408.79 2032.89 1408.46 2032.39 1408.19 2031.87 1407.98 2029.46 1409.81 2023.26 1414.47 2020.31 1416.19 2015.62 1418.89 2007.07 1419.61 2001.35 1419.73 2001.5 1431.7 2011.32 1441.28 2023.28 1441.13 2033.97 1441 2042.96 1433.09 2044.46 1422.51Z" fill="#FFFFFF"/></g></g></g><rect x="2959" y="1366" width="440" height="163" fill="url(#fill19)"/><path d="M3325 1445.5C3325 1242.54 3489.54 1078 3692.5 1078 3895.46 1078 4060 1242.54 4060 1445.5 4060 1648.46 3895.46 1813 3692.5 1813 3489.54 1813 3325 1648.46 3325 1445.5Z" fill="#D74514" fill-rule="evenodd"/><path d="M3473 1447.5C3473 1326.27 3571.5 1228 3693 1228 3814.5 1228 3913 1326.27 3913 1447.5 3913 1568.73 3814.5 1667 3693 1667 3571.5 1667 3473 1568.73 3473 1447.5Z" fill="#FFFFFF" fill-rule="evenodd"/><path d="M0 0 146.928 2.59518" stroke="#FFFFFF" stroke-width="13.75" stroke-miterlimit="8" fill="none" fill-rule="evenodd" transform="matrix(-1 0 0 1 4059.93 1445)"/><path d="M3463.89 1267.51 3470.36 1257.75 3479.97 1246.32 3489.9 1235.63 3490.97 1234.59 3500.54 1244.46 3499.6 1245.37 3499.85 1245.11 3490.16 1255.55 3490.39 1255.3 3481.14 1266.3 3481.6 1265.68 3475.34 1275.11ZM3501.11 1224.83 3511.21 1215.92 3522.46 1206.96 3533.84 1198.71 3541.91 1209.84 3530.66 1218 3530.9 1217.82 3519.9 1226.57 3520.17 1226.34 3510.21 1235.14ZM3545.66 1191.02 3546.14 1190.71 3558.48 1183.48 3571.21 1176.83 3582.98 1171.35 3588.78 1183.82 3577.15 1189.23 3577.43 1189.09 3565 1195.59 3565.29 1195.43 3553.22 1202.5 3553.49 1202.33 3553.15 1202.55ZM3596.02 1166 3597.38 1165.44 3610.88 1160.71 3624.56 1156.62 3636.37 1153.68 3639.69 1167.02 3628.04 1169.92 3628.34 1169.84 3614.97 1173.84 3615.28 1173.74 3602.09 1178.36 3602.4 1178.25 3601.19 1178.74ZM3650.18 1150.87 3652.52 1150.41 3666.72 1148.3 3681.06 1146.89 3692.14 1146.35 3692.81 1160.08 3681.9 1160.62 3682.23 1160.59 3668.23 1161.97 3668.57 1161.93 3654.7 1163.99 3655.01 1163.93 3652.82 1164.36ZM3706.19 1146.14 3709.9 1146.12 3724.43 1146.83 3739.01 1148.24 3748.28 1149.58 3746.3 1163.19 3737.2 1161.87 3737.53 1161.91 3723.28 1160.53 3723.6 1160.55 3709.42 1159.87 3709.78 1159.87 3706.25 1159.89ZM3762.17 1152.06 3768.01 1153.23 3782.46 1156.87 3796.86 1161.22 3802.87 1163.41 3798.17 1176.33 3792.34 1174.21 3792.7 1174.33 3778.64 1170.08 3778.94 1170.17 3764.82 1166.6 3765.16 1166.68 3759.48 1165.55ZM3816.02 1168.46 3825.26 1172.36 3839.07 1179 3852.36 1186.22 3853.88 1187.15 3846.75 1198.9 3845.37 1198.06 3845.66 1198.23 3832.66 1191.17 3832.96 1191.32 3819.46 1184.82 3819.77 1184.96 3810.68 1181.14ZM3865.93 1194.51 3877.52 1202.42 3889.3 1211.38 3899.33 1219.82 3890.48 1230.34 3880.58 1222.01 3880.84 1222.22 3869.34 1213.47 3869.63 1213.68 3858.18 1205.87ZM3909.7 1229.34 3911.23 1230.76 3921.42 1241.14 3930.96 1252.02 3937.94 1260.73 3927.21 1269.33 3920.32 1260.74 3920.52 1260.97 3911.2 1250.34 3911.47 1250.63 3901.53 1240.5 3901.76 1240.73 3900.35 1239.42ZM3946.34 1272 3948.41 1274.84 3956.28 1286.88 3963.51 1299.23 3968.19 1308.13 3956.02 1314.52 3951.41 1305.76 3951.57 1306.04 3944.5 1293.97 3944.68 1294.26 3937 1282.51 3937.2 1282.8 3935.23 1280.11ZM3974.31 1320.8 3976.18 1324.82 3981.56 1338.06 3986.29 1351.5 3988.95 1360.39 3975.77 1364.33 3973.16 1355.59 3973.27 1355.91 3968.64 1342.78 3968.75 1343.08 3963.5 1330.15 3963.64 1330.46 3961.85 1326.6ZM3992.57 1373.98 3993.84 1379.07 3996.59 1393.08 3998.7 1407.27 3999.56 1415.58 3985.88 1416.99 3985.04 1408.83 3985.07 1409.14 3983.01 1395.26 3983.07 1395.57 3980.38 1381.89 3980.45 1382.22 3979.23 1377.3ZM4000.57 1429.66 4000.88 1435.96 4000.88 1450.42 4000.17 1464.94 3999.5 1471.85 3985.82 1470.52 3986.47 1463.77 3986.45 1464.1 3987.13 1449.92 3987.12 1450.25 3987.12 1436.12 3987.13 1436.46 3986.83 1430.33ZM3997.84 1485.83 3996.65 1493.98 3993.77 1508.45 3990.12 1522.85 3988.82 1527.11 3975.67 1523.08 3976.93 1518.98 3976.84 1519.31 3980.4 1505.25 3980.32 1505.59 3983.13 1491.47 3983.07 1491.82 3984.23 1483.85ZM3984.53 1540.52 3980.59 1551.44 3974.64 1565.59 3968.07 1579.1 3955.7 1573.09 3962.19 1559.74 3962.04 1560.08 3967.85 1546.27 3967.72 1546.61 3971.59 1535.86ZM3961.28 1591.53 3957.95 1597.44 3948.15 1612.55 3937.81 1626.45 3926.78 1618.25 3936.98 1604.52 3936.73 1604.88 3946.29 1590.13 3946.07 1590.5 3949.3 1584.78ZM3502.61 1283.16 3437.69 1324.31 3443.72 1247.68Z" fill="#F0835C"/><path d="M2075.66 1472.24 2130.84 1445.89C2123.47 1406.99 2164.81 1371.47 2223.17 1366.56 2281.52 1361.65 2334.8 1389.21 2342.16 1428.11 2349.53 1467.01 2308.19 1502.53 2249.83 1507.44 2206.76 1511.07 2164.7 1496.9 2143.53 1471.63Z" fill="#F8CCB9" fill-rule="evenodd"/><text fill="#D74514" font-family="Microsoft YaHei,Microsoft YaHei_MSFontService,sans-serif" font-weight="400" font-size="73" transform="matrix(1 0 0 1 2199.19 1464)">A!</text><g clip-path="url(#clip20)"><g clip-path="url(#clip21)"><g clip-path="url(#clip22)"><path d="M108.333 89.375C108.263 85.9822 106.672 82.8006 104 80.7083 98.0416 75.8333 90.4583 72.5833 82.875 70.4166 77.0814 68.6431 71.0588 67.7306 65 67.7083 58.9478 67.8127 52.9365 68.7235 47.125 70.4166 39.5515 72.6266 32.4083 76.1067 26 80.7083 23.3282 82.8006 21.7373 85.9822 21.6667 89.375L21.6667 111.042 108.333 111.042Z" fill="#FFFFFF" transform="matrix(1 0 0 1 3347 1381)"/><path d="M60.9375 34.8698C64.4583 32.7979 73.125 26.1083 73.125 26.1083L73.125 26.1083C74.4925 26.2268 75.7938 26.7501 76.8625 27.6114 79.4631 29.4375 81.6654 31.7735 83.3354 34.4771 84.8385 36.725 86.125 38.5396 86.5177 39.0812L86.5177 39.0812 86.6666 39.2708 86.6666 39.2708C87.3437 37.9166 87.3166 34.1385 86.8427 30.6989 86.1791 25.9594 85.6375 24.551 82.6041 22.0052 80.6713 20.2536 78.0919 19.3937 75.4948 19.6354 71.9709 16.9009 67.726 15.2539 63.2802 14.8958 56.5093 14.6521 49.1156 18.1865 45.9739 22.3302 41.2208 28.5594 41.7489 32.6219 41.7489 34.0708 41.7489 35.5198 40.0833 38.0385 41.2479 38.0385 42.0062 38.0385 42.751 38.0385 43.5094 38.0385L43.5094 38.0385C47.8021 37.9166 56.5635 37.4427 60.9375 34.8698Z" fill="#FFFFFF" transform="matrix(1 0 0 1 3347 1381)"/><path d="M84.527 40.8552C84.4593 40.7604 82.9698 38.6885 81.1552 35.9937 79.6649 33.5496 77.6874 31.4383 75.3458 29.7917 74.89 29.4597 74.3941 29.1867 73.8698 28.9792 71.4593 30.8073 65.2573 35.4656 62.3052 37.1854 57.6198 39.8937 49.075 40.6114 43.3469 40.7333 43.4953 52.6986 53.3153 62.278 65.2805 62.1295 75.9676 61.9971 84.9616 54.0912 86.4635 43.5094Z" fill="#FFFFFF" transform="matrix(1 0 0 1 3347 1381)"/></g></g></g><path d="M1333 1406.75 1451.5 1406.75 1451.5 1366 1533 1447.5 1451.5 1529 1451.5 1488.25 1333 1488.25Z" fill="#5D1709" fill-rule="evenodd"/><path d="M2736 1406.75 2854.5 1406.75 2854.5 1366 2936 1447.5 2854.5 1529 2854.5 1488.25 2736 1488.25Z" fill="#5D1709" fill-rule="evenodd"/><text fill="#FFFFFF" font-family="Microsoft YaHei,Microsoft YaHei_MSFontService,sans-serif" font-weight="400" font-size="64" transform="matrix(1 0 0 1 3963.53 1390)">A<tspan font-size="64" x="2.57837" y="160">B</tspan></text><g clip-path="url(#clip23)"><g clip-path="url(#clip24)"><g clip-path="url(#clip25)"><path d="M3969.33 1638.37C3969.26 1634.98 3967.67 1631.8 3965 1629.71 3959.04 1624.83 3951.46 1621.58 3943.88 1619.42 3938.08 1617.64 3932.06 1616.73 3926 1616.71 3919.95 1616.81 3913.94 1617.72 3908.12 1619.42 3900.55 1621.63 3893.41 1625.11 3887 1629.71 3884.33 1631.8 3882.74 1634.98 3882.67 1638.37L3882.67 1660.04 3969.33 1660.04Z" fill="#FFFFFF"/><path d="M3949.17 1605.33C3947.92 1600.46 3952.69 1588.27 3952.73 1579.69 3952.73 1572.82 3950.78 1569.75 3947.1 1567.66 3944.97 1566.46 3940.07 1567.57 3940.07 1567.57 3940.07 1567.57 3937.54 1562.77 3929.06 1560.13 3922.09 1558.23 3914.66 1559.18 3908.4 1562.77 3903.16 1566.16 3900.62 1569.88 3900.5 1582.69 3900.39 1594.43 3902 1604.86 3901.26 1609.77 3900.92 1612.5 3899.88 1615.08 3898.25 1617.29 3898.25 1617.29 3906.38 1618.33 3910.91 1615.94 3913.2 1614.4 3915.36 1612.7 3917.39 1610.84 3910.44 1607.6 3905.37 1601.34 3903.66 1593.86 3903.48 1593.21 3902.3 1588.96 3904.18 1586.58 3905.21 1585.22 3907.57 1584.84 3911.5 1584.15 3916.2 1583.53 3920.79 1582.24 3925.12 1580.32 3929.99 1577.87 3934.51 1574.77 3938.55 1571.11 3939.09 1570.59 3939.94 1570.6 3940.47 1571.13 3940.67 1571.33 3940.8 1571.59 3940.84 1571.87 3941.16 1574.1 3941.94 1576.24 3943.12 1578.16 3943.67 1578.86 3944.35 1579.46 3945.12 1579.92 3946.02 1580.45 3946.8 1581.18 3947.4 1582.04 3948.37 1583.95 3948.93 1586.05 3949.02 1588.19 3948.93 1598.07 3943.06 1606.98 3934.02 1610.97 3935.72 1612.47 3937.96 1614.32 3940.42 1616.11 3944.48 1619.05 3954.3 1614.99 3954.3 1614.99 3954.3 1614.99 3951.13 1613.09 3949.17 1605.33Z" fill="#FFFFFF"/><path d="M3946.31 1588.27C3946.24 1586.63 3945.84 1585.03 3945.15 1583.54 3944.75 1582.98 3944.23 1582.52 3943.63 1582.19 3942.6 1581.57 3941.68 1580.76 3940.92 1579.82 3939.83 1578.25 3939.05 1576.49 3938.61 1574.63 3934.83 1577.81 3930.69 1580.53 3926.28 1582.76 3921.71 1584.79 3916.87 1586.16 3911.9 1586.82 3909.61 1587.23 3906.76 1587.73 3906.27 1588.24 3905.46 1589.3 3905.88 1591.99 3906.27 1593.13 3908.59 1602.9 3916.87 1609.94 3926 1609.94 3936.83 1609.94 3946.31 1599.81 3946.31 1588.27Z" fill="#FFFFFF"/></g></g></g></g></svg>