<svg xmlns="http://www.w3.org/2000/svg" width="3885" height="735" overflow="hidden"><defs><clipPath id="a"><path d="M176 1078h3885v735H176z"/></clipPath><clipPath id="d"><path d="M1079 1548h130v131h-130z"/></clipPath><clipPath id="e"><path d="M1079 1548h130v131h-130z"/></clipPath><clipPath id="f"><path d="M1079 1548h130v131h-130z"/></clipPath><clipPath id="g"><path d="M229 1195h131v131H229z"/></clipPath><clipPath id="h"><path d="M229 1195h131v131H229z"/></clipPath><clipPath id="i"><path d="M229 1195h131v131H229z"/></clipPath><clipPath id="j"><path d="M339 1182h93v91h-93z"/></clipPath><clipPath id="k"><path d="M339 1182h93v91h-93z"/></clipPath><clipPath id="l"><path d="M339 1182h93v91h-93z"/></clipPath><clipPath id="n"><path d="M2479 1548h130v131h-130z"/></clipPath><clipPath id="o"><path d="M2479 1548h130v131h-130z"/></clipPath><clipPath id="p"><path d="M2479 1548h130v131h-130z"/></clipPath><clipPath id="q"><path d="M1958 1379h130v131h-130z"/></clipPath><clipPath id="r"><path d="M1958 1379h130v131h-130z"/></clipPath><clipPath id="s"><path d="M1958 1379h130v131h-130z"/></clipPath><clipPath id="u"><path d="M3347 1380h131v132h-131z"/></clipPath><clipPath id="v"><path d="M3347 1380h131v132h-131z"/></clipPath><clipPath id="w"><path d="M3347 1380h131v132h-131z"/></clipPath><clipPath id="x"><path d="M3861 1548h130v131h-130z"/></clipPath><clipPath id="y"><path d="M3861 1548h130v131h-130z"/></clipPath><clipPath id="z"><path d="M3861 1548h130v131h-130z"/></clipPath><linearGradient id="b" x1="177" x2="617" y1="1447.5" y2="1447.5" gradientUnits="userSpaceOnUse" spreadMethod="reflect"><stop offset="0" stop-color="#fff"/><stop offset=".62" stop-color="#d74514"/><stop offset="1" stop-color="#d74514"/></linearGradient><linearGradient id="c" x1="-.039" x2="459.949" y1="1.298" y2="1.298" gradientUnits="userSpaceOnUse" spreadMethod="reflect"><stop offset="0" stop-color="#fff"/><stop offset=".57" stop-color="#f0835c"/><stop offset="1" stop-color="#f0835c"/></linearGradient><linearGradient id="m" x1="1577" x2="2016" y1="1447.5" y2="1447.5" gradientUnits="userSpaceOnUse" spreadMethod="reflect"><stop offset="0" stop-color="#fff"/><stop offset=".62" stop-color="#d74514"/><stop offset="1" stop-color="#d74514"/></linearGradient><linearGradient id="t" x1="2959" x2="3399" y1="1447.5" y2="1447.5" gradientUnits="userSpaceOnUse" spreadMethod="reflect"><stop offset="0" stop-color="#fff"/><stop offset=".62" stop-color="#d74514"/><stop offset="1" stop-color="#d74514"/></linearGradient></defs><g clip-path="url(#a)" transform="translate(-176 -1078)"><path fill="url(#b)" d="M177 1366h440v163H177z"/><path fill="#d74514" fill-rule="evenodd" d="M542 1445.5c0-202.96 164.535-367.5 367.5-367.5 202.96 0 367.5 164.54 367.5 367.5S1112.46 1813 909.5 1813c-202.965 0-367.5-164.54-367.5-367.5"/><path fill="#fff" fill-rule="evenodd" d="M691 1447.5c0-121.23 98.273-219.5 219.5-219.5 121.23 0 219.5 98.27 219.5 219.5S1031.73 1667 910.5 1667c-121.227 0-219.5-98.27-219.5-219.5"/><path fill="none" stroke="#f8ccb9" stroke-miterlimit="8" stroke-width="13.75" d="m1276.93 1445-146.928 2.595"/><text fill="#fff" font-family="Microsoft YaHei,Microsoft YaHei_MSFontService,sans-serif" font-size="64" font-weight="400" transform="translate(1181.31 1390)">A<tspan x="2.578" y="160">B</tspan></text><path fill="#f0835c" d="m674.918 1609.7-7.084-9.38-7.535-12.86-6.781-12.92-.617-1.34 12.486-5.76.544 1.18-.156-.31 6.625 12.62-.155-.28 7.25 12.37-.446-.66 6.841 9.06Zm-27.874-49.33-4.986-12.46-4.733-13.63-3.954-13.49 13.196-3.87 3.906 13.33-.104-.32 4.625 13.31-.111-.29 4.927 12.31Zm-17.009-53.25-.131-.54-2.686-14.07-2.049-14.15-1.175-13.04 13.695-1.23 1.158 12.86-.043-.37 2 13.81-.051-.3 2.625 13.75-.072-.34.09.37Zm-6.779-55.81-.069-1.41.064-14.27.703-14.26 1.214-12.25 13.683 1.36-1.197 12.07.025-.34-.687 13.94.008-.31-.062 13.94-.009-.37.061 1.22Zm3.839-56.11.315-2.18 2.817-14.08 3.45-13.93 3.219-10.87 13.183 3.91-3.175 10.72.082-.3-3.375 13.62.068-.3-2.75 13.75.063-.37-.289 2Zm14.387-54.41 1.159-3.25 5.496-13.42 6.146-13.19 4.582-8.61 12.138 6.46-4.496 8.45.162-.33-6 12.88.131-.3-5.375 13.13.113-.3-1.106 3.1Zm24.383-50.69 2.965-4.97 11.423-15.47 11.062 8.16-11.221 15.2.374-.56-2.792 4.68Zm36.697 288.29 17.188 74.92-70.247-31.2Zm-47.115-322.22 71.241-28.86-19.657 74.31Z"/><path fill="none" stroke="url(#c)" stroke-dasharray="41.25 13.75" stroke-miterlimit="8" stroke-width="13.75" d="m0 0 453.074 2.595" transform="matrix(1 0 0 -1 177 1447.6)"/><g clip-path="url(#d)"><g clip-path="url(#e)"><g fill="#fff" clip-path="url(#f)"><path d="M1187.33 1638.37c-.07-3.39-1.66-6.57-4.33-8.66-5.96-4.88-13.54-8.13-21.12-10.29a61.6 61.6 0 0 0-17.88-2.71c-6.05.1-12.06 1.01-17.88 2.71a69.8 69.8 0 0 0-21.12 10.29 11.3 11.3 0 0 0-4.33 8.66v21.67h86.66Z"/><path d="M1167.17 1605.33c-1.25-4.87 3.52-17.06 3.56-25.64 0-6.87-1.95-9.94-5.63-12.03-2.13-1.2-7.03-.09-7.03-.09s-2.53-4.8-11.01-7.44a27.16 27.16 0 0 0-20.66 2.64c-5.24 3.39-7.78 7.11-7.9 19.92-.11 11.74 1.5 22.17.76 27.08-.34 2.73-1.38 5.31-3.01 7.52 0 0 8.13 1.04 12.66-1.35q3.435-2.31 6.48-5.1a24.84 24.84 0 0 1-13.73-16.98c-.18-.65-1.36-4.9.52-7.28 1.03-1.36 3.39-1.74 7.32-2.43 4.7-.62 9.29-1.91 13.62-3.83 4.87-2.45 9.39-5.55 13.43-9.21.54-.52 1.39-.51 1.92.02.2.2.33.46.37.74.32 2.23 1.1 4.37 2.28 6.29.55.7 1.23 1.3 2 1.76.9.53 1.68 1.26 2.28 2.12.97 1.91 1.53 4.01 1.62 6.15a25.15 25.15 0 0 1-15 22.78c1.7 1.5 3.94 3.35 6.4 5.14 4.06 2.94 13.88-1.12 13.88-1.12s-3.17-1.9-5.13-9.66"/><path d="M1164.31 1588.27c-.07-1.64-.47-3.24-1.16-4.73-.4-.56-.92-1.02-1.52-1.35-1.03-.62-1.95-1.43-2.71-2.37a15.3 15.3 0 0 1-2.31-5.19c-3.78 3.18-7.92 5.9-12.33 8.13-4.57 2.03-9.41 3.4-14.38 4.06-2.29.41-5.14.91-5.63 1.42-.81 1.06-.39 3.75 0 4.89 2.32 9.77 10.6 16.81 19.73 16.81 10.83 0 20.31-10.13 20.31-21.67"/></g></g></g><g clip-path="url(#g)"><g clip-path="url(#h)"><g fill="#d74514" clip-path="url(#i)"><path d="M338.333 1285.37a11.3 11.3 0 0 0-4.333-8.66c-5.958-4.88-13.542-8.13-21.125-10.29a61.6 61.6 0 0 0-17.875-2.71 67.6 67.6 0 0 0-17.875 2.71A69.7 69.7 0 0 0 256 1276.71a11.3 11.3 0 0 0-4.333 8.66v21.67h86.666Zm-47.396-54.5c3.521-2.07 12.188-8.76 12.188-8.76 1.367.12 2.669.64 3.737 1.5a23.4 23.4 0 0 1 6.473 6.87 177 177 0 0 0 3.183 4.6l.149.19c.677-1.35.65-5.13.176-8.57-.664-4.74-1.206-6.15-4.239-8.69a9.24 9.24 0 0 0-7.109-2.37 22.8 22.8 0 0 0-12.215-4.74c-6.771-.25-14.164 3.29-17.306 7.43-4.753 6.23-4.225 10.29-4.225 11.74s-1.666 3.97-.501 3.97h2.261c4.293-.12 13.054-.6 17.428-3.17"/><path d="M314.527 1236.86c-.068-.1-1.557-2.17-3.372-4.87a20.9 20.9 0 0 0-5.809-6.2c-.456-.33-.952-.6-1.476-.81-2.411 1.83-8.613 6.49-11.565 8.21-4.685 2.7-13.23 3.42-18.958 3.54.148 11.97 9.968 21.55 21.934 21.4 10.687-.13 19.681-8.04 21.182-18.62Z"/></g></g></g><g clip-path="url(#j)"><g clip-path="url(#k)"><g clip-path="url(#l)"><path fill="#d74514" d="M390.808 1232.524c3.223 2.56 6.256 7.014 8.531 12.038H371.66c2.37-5.024 5.309-9.574 8.532-12.038 1.516-1.232 2.464-3.034 2.464-5.024s-.948-3.792-2.464-5.024c-6.446-5.024-12.039-17.916-12.987-27.205h36.684c-1.042 9.29-6.54 22.181-12.986 27.205-1.612 1.232-2.56 3.033-2.56 5.024 0 1.99.948 3.792 2.465 5.024m18.674-37.253h2.56v-5.688h-53.084v5.688h2.465c1.043 10.522 7.11 25.878 15.925 32.229-8.816 6.35-14.977 21.707-15.925 32.229h-2.465v5.687h53.083v-5.687h-2.559c-.948-10.522-7.11-25.878-15.925-32.23 8.816-6.35 14.977-21.706 15.925-32.228"/></g></g></g><path fill="url(#m)" d="M1577 1366h439v163h-439z"/><path fill="#d74514" fill-rule="evenodd" d="M1942 1445.5c0-202.96 164.54-367.5 367.5-367.5s367.5 164.54 367.5 367.5-164.54 367.5-367.5 367.5-367.5-164.54-367.5-367.5"/><path fill="#fff" fill-rule="evenodd" d="M2090 1447.5c0-121.23 98.5-219.5 220-219.5s220 98.27 220 219.5-98.5 219.5-220 219.5-220-98.27-220-219.5"/><path fill="none" stroke="#f8ccb9" stroke-miterlimit="8" stroke-width="13.75" d="m2676.93 1445-146.928 2.595"/><text fill="#fff" font-family="Microsoft YaHei,Microsoft YaHei_MSFontService,sans-serif" font-size="64" font-weight="400" transform="translate(2580.92 1390)">A<tspan x="2.578" y="160">B</tspan></text><g clip-path="url(#n)"><g clip-path="url(#o)"><g fill="#fff" clip-path="url(#p)"><path d="M2586.5 1638.375a11.34 11.34 0 0 0-4.3-8.667c-5.913-4.875-13.438-8.125-20.963-10.292a61 61 0 0 0-17.737-2.708 67 67 0 0 0-17.738 2.708 68.9 68.9 0 0 0-20.962 10.292 11.34 11.34 0 0 0-4.3 8.667v21.666h86Z"/><path d="M2566.492 1605.333c-1.237-4.875 3.493-17.062 3.534-25.648 0-6.865-1.935-9.94-5.59-12.025-2.11-1.205-6.975-.094-6.975-.094s-2.512-4.794-10.924-7.435a26.8 26.8 0 0 0-20.506 2.64c-5.2 3.386-7.713 7.11-7.834 19.92-.107 11.741 1.492 22.168.753 27.084a16.1 16.1 0 0 1-2.983 7.515s8.062 1.043 12.564-1.354a54 54 0 0 0 6.423-5.091c-6.897-3.242-11.924-9.507-13.626-16.982-.175-.65-1.344-4.902.524-7.285 1.021-1.354 3.36-1.733 7.256-2.424a48.9 48.9 0 0 0 13.518-3.832 60 60 0 0 0 13.33-9.209 1.337 1.337 0 0 1 1.9.015c.199.203.328.463.371.744a16.6 16.6 0 0 0 2.258 6.283 7.1 7.1 0 0 0 1.989 1.76 7.4 7.4 0 0 1 2.257 2.127 15 15 0 0 1 1.613 6.147c-.088 9.882-5.914 18.795-14.89 22.777a88 88 0 0 0 6.357 5.146c4.031 2.939 13.773-1.124 13.773-1.124s-3.144-1.896-5.092-9.655"/><path d="M2563.656 1588.27a12.5 12.5 0 0 0-1.155-4.725 4.5 4.5 0 0 0-1.505-1.354 10.2 10.2 0 0 1-2.688-2.37 15.3 15.3 0 0 1-2.298-5.187 63.5 63.5 0 0 1-12.228 8.125 51.6 51.6 0 0 1-14.27 4.063c-2.271.406-5.107.907-5.59 1.422-.807 1.056-.39 3.75 0 4.888 2.297 9.764 10.521 16.805 19.578 16.805 10.75 0 20.156-10.129 20.156-21.666"/></g></g></g><g clip-path="url(#q)"><g clip-path="url(#r)"><g fill="#fff" clip-path="url(#s)"><path d="M2066.33 1468.38c-.07-3.4-1.66-6.58-4.33-8.67-5.96-4.88-13.54-8.13-21.12-10.29a61.6 61.6 0 0 0-17.88-2.71c-6.05.1-12.06 1.01-17.88 2.71a69.8 69.8 0 0 0-21.12 10.29 11.3 11.3 0 0 0-4.33 8.67v21.66h86.66Zm-47.39-54.51c3.52-2.07 12.18-8.76 12.18-8.76 1.37.12 2.67.64 3.74 1.5a23.5 23.5 0 0 1 6.48 6.87c1.5 2.25 2.78 4.06 3.18 4.6l.15.19c.67-1.35.65-5.13.17-8.57-.66-4.74-1.2-6.15-4.24-8.69a9.23 9.23 0 0 0-7.11-2.37 22.8 22.8 0 0 0-12.21-4.74c-6.77-.25-14.16 3.29-17.31 7.43-4.75 6.23-4.22 10.29-4.22 11.74s-1.67 3.97-.5 3.97h2.26c4.29-.12 13.05-.6 17.43-3.17"/><path d="M2042.53 1419.86c-.07-.1-1.56-2.17-3.37-4.87-1.5-2.44-3.47-4.55-5.81-6.2-.46-.33-.96-.6-1.48-.81-2.41 1.83-8.61 6.49-11.56 8.21-4.69 2.7-13.24 3.42-18.96 3.54.15 11.97 9.97 21.55 21.93 21.4 10.69-.13 19.68-8.04 21.18-18.62Z"/></g></g></g><path fill="url(#t)" d="M2959 1366h440v163h-440z"/><path fill="#d74514" fill-rule="evenodd" d="M3325 1445.5c0-202.96 164.54-367.5 367.5-367.5s367.5 164.54 367.5 367.5-164.54 367.5-367.5 367.5-367.5-164.54-367.5-367.5"/><path fill="#fff" fill-rule="evenodd" d="M3473 1447.5c0-121.23 98.5-219.5 220-219.5s220 98.27 220 219.5-98.5 219.5-220 219.5-220-98.27-220-219.5"/><path fill="none" stroke="#fff" stroke-miterlimit="8" stroke-width="13.75" d="m4059.93 1445-146.928 2.595"/><path fill="#f0835c" d="m3463.89 1267.51 6.47-9.76 9.61-11.43 9.93-10.69 1.07-1.04 9.57 9.87-.94.91.25-.26-9.69 10.44.23-.25-9.25 11 .46-.62-6.26 9.43Zm37.22-42.68 10.1-8.91 11.25-8.96 11.38-8.25 8.07 11.13-11.25 8.16.24-.18-11 8.75.27-.23-9.96 8.8Zm44.55-33.81.48-.31 12.34-7.23 12.73-6.65 11.77-5.48 5.8 12.47-11.63 5.41.28-.14-12.43 6.5.29-.16-12.07 7.07.27-.17-.34.22Zm50.36-25.02 1.36-.56 13.5-4.73 13.68-4.09 11.81-2.94 3.32 13.34-11.65 2.9.3-.08-13.37 4 .31-.1-13.19 4.62.31-.11-1.21.49Zm54.16-15.13 2.34-.46 14.2-2.11 14.34-1.41 11.08-.54.67 13.73-10.91.54.33-.03-14 1.38.34-.04-13.87 2.06.31-.06-2.19.43Zm56.01-4.73 3.71-.02 14.53.71 14.58 1.41 9.27 1.34-1.98 13.61-9.1-1.32.33.04-14.25-1.38.32.02-14.18-.68h.36l-3.53.02Zm55.98 5.92 5.84 1.17 14.45 3.64 14.4 4.35 6.01 2.19-4.7 12.92-5.83-2.12.36.12-14.06-4.25.3.09-14.12-3.57.34.08-5.68-1.13Zm53.85 16.4 9.24 3.9 13.81 6.64 13.29 7.22 1.52.93-7.13 11.75-1.38-.84.29.17-13-7.06.3.15-13.5-6.5.31.14-9.09-3.82Zm49.91 26.05 11.59 7.91 11.78 8.96 10.03 8.44-8.85 10.52-9.9-8.33.26.21-11.5-8.75.29.21-11.45-7.81Zm43.77 34.83 1.53 1.42 10.19 10.38 9.54 10.88 6.98 8.71-10.73 8.6-6.89-8.59.2.23-9.32-10.63.27.29-9.94-10.13.23.23-1.41-1.31Zm36.64 42.66 2.07 2.84 7.87 12.04 7.23 12.35 4.68 8.9-12.17 6.39-4.61-8.76.16.28-7.07-12.07.18.29-7.68-11.75.2.29-1.97-2.69Zm27.97 48.8 1.87 4.02 5.38 13.24 4.73 13.44 2.66 8.89-13.18 3.94-2.61-8.74.11.32-4.63-13.13.11.3-5.25-12.93.14.31-1.79-3.86Zm18.26 53.18 1.27 5.09 2.75 14.01 2.11 14.19.86 8.31-13.68 1.41-.84-8.16.03.31-2.06-13.88.06.31-2.69-13.68.07.33-1.22-4.92Zm8 55.68.31 6.3v14.46l-.71 14.52-.67 6.91-13.68-1.33.65-6.75-.02.33.68-14.18-.01.33v-14.13l.01.34-.3-6.13Zm-2.73 56.17-1.19 8.15-2.88 14.47-3.65 14.4-1.3 4.26-13.15-4.03 1.26-4.1-.09.33 3.56-14.06-.08.34 2.81-14.12-.06.35 1.16-7.97Zm-13.31 54.69-3.94 10.92-5.95 14.15-6.57 13.51-12.37-6.01 6.49-13.35-.15.34 5.81-13.81-.13.34 3.87-10.75Zm-23.25 51.01-3.33 5.91-9.8 15.11-10.34 13.9-11.03-8.2 10.2-13.73-.25.36 9.56-14.75-.22.37 3.23-5.72Zm-458.67-308.37-64.92 41.15 6.03-76.63Z"/><path fill="#f8ccb9" fill-rule="evenodd" d="m2075.66 1472.24 55.18-26.35c-7.37-38.9 33.97-74.42 92.33-79.33 58.35-4.91 111.63 22.65 118.99 61.55 7.37 38.9-33.97 74.42-92.33 79.33-43.07 3.63-85.13-10.54-106.3-35.81Z"/><text fill="#d74514" font-family="Microsoft YaHei,Microsoft YaHei_MSFontService,sans-serif" font-size="73" font-weight="400" transform="translate(2199.19 1464)">A!</text><g clip-path="url(#u)"><g clip-path="url(#v)"><g fill="#fff" clip-path="url(#w)"><path d="M3455.333 1470.375a11.3 11.3 0 0 0-4.333-8.667c-5.958-4.875-13.542-8.125-21.125-10.291a61.9 61.9 0 0 0-17.875-2.709 68 68 0 0 0-17.875 2.709 69.7 69.7 0 0 0-21.125 10.291 11.3 11.3 0 0 0-4.333 8.667v21.667h86.666Zm-47.395-54.505c3.52-2.072 12.187-8.762 12.187-8.762a6.9 6.9 0 0 1 3.738 1.503 23.4 23.4 0 0 1 6.472 6.866 170 170 0 0 0 3.183 4.604l.149.19c.677-1.354.65-5.132.176-8.572-.664-4.74-1.206-6.148-4.239-8.694a9.3 9.3 0 0 0-7.11-2.37 22.93 22.93 0 0 0-12.214-4.74c-6.77-.243-14.164 3.292-17.306 7.435-4.753 6.23-4.225 10.292-4.225 11.74 0 1.45-1.666 3.969-.501 3.969h2.261c4.293-.122 13.055-.596 17.428-3.17"/><path d="M3431.527 1421.855c-.068-.095-1.557-2.167-3.372-4.861a20.9 20.9 0 0 0-5.81-6.202 6.7 6.7 0 0 0-1.475-.813c-2.41 1.828-8.613 6.487-11.565 8.206-4.685 2.709-13.23 3.426-18.958 3.548.148 11.966 9.968 21.545 21.933 21.397 10.688-.133 19.682-8.039 21.183-18.62Z"/></g></g></g><path fill="#5d1709" fill-rule="evenodd" d="M1333 1406.75h118.5V1366l81.5 81.5-81.5 81.5v-40.75H1333Zm1403 0h118.5V1366l81.5 81.5-81.5 81.5v-40.75H2736Z"/><text fill="#fff" font-family="Microsoft YaHei,Microsoft YaHei_MSFontService,sans-serif" font-size="64" font-weight="400" transform="translate(3963.53 1390)">A<tspan x="2.578" y="160">B</tspan></text><g clip-path="url(#x)"><g clip-path="url(#y)"><g fill="#fff" clip-path="url(#z)"><path d="M3969.33 1638.37c-.07-3.39-1.66-6.57-4.33-8.66-5.96-4.88-13.54-8.13-21.12-10.29a61.6 61.6 0 0 0-17.88-2.71c-6.05.1-12.06 1.01-17.88 2.71a69.8 69.8 0 0 0-21.12 10.29 11.3 11.3 0 0 0-4.33 8.66v21.67h86.66Z"/><path d="M3949.17 1605.33c-1.25-4.87 3.52-17.06 3.56-25.64 0-6.87-1.95-9.94-5.63-12.03-2.13-1.2-7.03-.09-7.03-.09s-2.53-4.8-11.01-7.44a27.16 27.16 0 0 0-20.66 2.64c-5.24 3.39-7.78 7.11-7.9 19.92-.11 11.74 1.5 22.17.76 27.08-.34 2.73-1.38 5.31-3.01 7.52 0 0 8.13 1.04 12.66-1.35q3.435-2.31 6.48-5.1a24.84 24.84 0 0 1-13.73-16.98c-.18-.65-1.36-4.9.52-7.28 1.03-1.36 3.39-1.74 7.32-2.43 4.7-.62 9.29-1.91 13.62-3.83 4.87-2.45 9.39-5.55 13.43-9.21.54-.52 1.39-.51 1.92.02.2.2.33.46.37.74.32 2.23 1.1 4.37 2.28 6.29.55.7 1.23 1.3 2 1.76.9.53 1.68 1.26 2.28 2.12.97 1.91 1.53 4.01 1.62 6.15a25.15 25.15 0 0 1-15 22.78c1.7 1.5 3.94 3.35 6.4 5.14 4.06 2.94 13.88-1.12 13.88-1.12s-3.17-1.9-5.13-9.66"/><path d="M3946.31 1588.27c-.07-1.64-.47-3.24-1.16-4.73-.4-.56-.92-1.02-1.52-1.35-1.03-.62-1.95-1.43-2.71-2.37a15.3 15.3 0 0 1-2.31-5.19c-3.78 3.18-7.92 5.9-12.33 8.13-4.57 2.03-9.41 3.4-14.38 4.06-2.29.41-5.14.91-5.63 1.42-.81 1.06-.39 3.75 0 4.89 2.32 9.77 10.6 16.81 19.73 16.81 10.83 0 20.31-10.13 20.31-21.67"/></g></g></g></g></svg>