<?xml version="1.0" encoding="UTF-8"?>
<svg id="a" data-name="图层 1" xmlns="http://www.w3.org/2000/svg" width="165.3333" height="214.6667" viewBox="0 0 165.3333 214.6667">
  <path d="M33.1957,94.5859c2.8823-.7783,5.7647-1.5566,8.647-2.3349l-7.595-5.7857c-.7241,10.183,1.477,20.3352,5.9187,29.4889,1.3736,2.8309,5.6307,3.8149,8.2091,2.1525,2.9038-1.8721,3.6217-5.1812,2.1525-8.2091-.2603-.5364-.5037-1.0801-.759-1.6187-.2669-.6118-.2424-.5444,.0735,.2023-.1144-.2751-.2265-.5512-.3361-.8283-.3832-.9699-.7374-1.9512-1.0612-2.9426-.6707-2.0538-1.2114-4.1495-1.6203-6.2709-.0987-.5121-.1901-1.0255-.2733-1.5403-.0475-.2942-.0926-.5887-.135-.8837,.1116,.8572,.1251,.9457,.0404,.2655-.112-1.0374-.2123-2.0743-.2712-3.1164-.1262-2.2331-.0969-4.4684,.0617-6.6991,.2812-3.9545-4.0538-6.7419-7.595-5.7857l-8.647,2.3349c-3.0295,.818-5.1851,4.3077-4.1906,7.3807,1.0053,3.1064,4.1339,5.0674,7.3807,4.1906h0Z"/>
  <path d="M13.5354,121.6152c.1237,2.1869,.2396,4.3745,.3713,6.5609,.1363,2.2635,.4484,4.534,1.6554,6.5093,1.8295,2.9941,5.3295,4.5612,8.7746,3.7152,2.2838-.5608,4.3158-2.1685,6.3131-3.3487,3.5302-2.086,7.1378-4.0409,10.813-5.8593,1.8029-.8921,3.6222-1.751,5.4563-2.5771,.9832-.4428,1.9692-.9175,2.9758-1.3049-1.4155,.5447,.0682-.0275,.2785-.1145,.5719-.2367,1.1455-.4691,1.7198-.7,1.5057-.6055,2.7349-1.3033,3.5858-2.7574,.7526-1.2861,1.0715-3.1815,.6049-4.6234-.908-2.8057-4.2628-5.4445-7.3807-4.1906-7.0174,2.8221-13.8781,6.0024-20.4867,9.6857-1.5543,.8663-3.0946,1.7577-4.6203,2.6735-.7959,.4778-1.5789,.9776-2.3757,1.4537-.4747,.2837-1.6125,.6678,.1916,.1651,1.7619-.491,3.0051,.169,4.219,1.34,.3361,.4756,.384,.519,.1438,.1301l.3577,.8683c.0181-.2388-.1851-.6775-.2554-.9312-.312-1.1259,.0806,1.3944,.0562,.3348-.0108-.4673-.0531-.9392-.0796-1.4059l-.3182-5.6237c-.177-3.1281-2.6329-6.1508-6-6-3.0989,.1388-6.1899,2.6439-6,6h0Z"/>
  <path d="M40.1919,91.8392c4.3614,1.302,8.7271,2.5904,13.0843,3.9061,.2536,.0732,.5061,.1502,.7575,.2308-2.4874-3.6558-3.5157-4.6125-3.0851-2.8702,.0295,.3944,.1088,.792,.1698,1.1833,.1576,1.0112,.3578,2.0158,.5991,3.0104,.5466,2.2527,1.3359,4.405,2.236,6.5379,.8719,2.0661,1.8566,4.0582,3.0535,5.957,.5547,.88,1.1431,1.7384,1.6895,2.6236,.2728,.4418,.5381,.8884,.7808,1.3476,.1373,.258,.2675,.5195,.3906,.7845-.2856-.7099-.3476-.8567-.1859-.4402,.1588,.4783,.3392,.9453,.4748,1.432,.0772,.277,.1469,.5559,.2089,.8367,.1034,.5617,.1162,.5631,.0383,.0043-.3908-2.3837,1.1717-4.0819,4.6876-5.0945-.3177-.0066-.6355-.0132-.9532-.0198-.556-.0116-1.112-.0231-1.6681-.0347-2.3035-.0479-4.607-.0958-6.9105-.1437-3.1398-.0653-6.143,2.8064-6,6,.1481,3.3067,2.6357,5.93,6,6,2.0652,.0429,4.1304,.0859,6.1956,.1288,2.9684,.0617,6.2942,.4335,8.5527-1.9535,4.031-4.2603,1.1933-11.0483-1.4867-15.2817-1.0271-1.6224-2.0967-3.2041-2.9851-4.9099-.2364-.4539-.4639-.9123-.6812-1.3756-.093-.1982-.177-.4019-.2736-.5984-.2974-.605,.1793,.3861,.171,.4262,.0524-.2525-.3853-.9692-.4804-1.225-.2038-.5481-.3951-1.1011-.5726-1.6583-.5771-1.8109-1.0171-3.6658-1.3099-5.5439-.1815-1.1643-.3624-2.1464-.9486-3.2202-.963-1.7641-2.6729-2.8343-4.5174-3.4742-4.5346-1.5733-9.2422-2.7638-13.8418-4.1369-3.0068-.8976-6.6717,1.0777-7.3807,4.1906-.7352,3.2278,.9707,6.4195,4.1906,7.3807h0Z"/>
  <path d="M19.8225,138.975c3.6209,2.6289,7.2417,5.2578,10.8626,7.8867,1.9329,1.4034,3.9,3.2257,6.2914,3.7459,3.3443,.7275,6.1288-.6855,8.8986-2.3464,3.8207-2.2911,7.4358-4.8701,10.9458-7.6099,1.6109-1.2574,3.1847-2.5614,4.7149-3.9159,.8941-.7914,1.8157-1.616,2.4003-2.6797,1.1941-2.1727,1.2116-4.7122,.0891-6.9026-.7412-1.4465-2.0357-2.5984-3.4312-3.4064-.3469-.2008-.7154-.3623-1.066-.5565-.164-.0909-.3265-.1848-.4857-.2841-.1039-.0648-1.1048-.7869-.3118-.1792,.7331,.5617-.3336-.3344-.5187-.5214-.1764-.1782-.3395-.3668-.5097-.551-.5604-.6068,.1833,.0888,.244,.3282-.0895-.3526-.5132-.7847-.693-1.1146-.1193-.2189-.4116-.9788-.1068-.1266,.3473,.9708-.0648-.2217-.1026-.3328-1.0083-2.9653-4.1706-5.2295-7.3807-4.1906-2.9441,.9527-5.2725,4.1991-4.1906,7.3807,.8759,2.576,2.1416,4.8173,3.9947,6.8207,.9355,1.0114,2.0658,1.8794,3.2037,2.6444,.4177,.2808,.8543,.5157,1.299,.7494,.1859,.0977,.6353,.4583,.8496,.4642-.5403-.3253-.9626-.7649-1.2669-1.3188,1.7817-5.1962,1.8962-7.0181,.3436-5.4657-.477,.36-.9064,.8136-1.3572,1.207-.7983,.6967-1.6079,1.3803-2.4285,2.0505-.469,.383-.9443,.7578-1.4174,1.1358-.5225,.4079-.4767,.3733,.1375-.1038-.2406,.1837-.482,.3664-.7243,.5478-.9086,.6806-1.8291,1.3451-2.7609,1.9935-1.8636,1.2969-3.7723,2.5286-5.722,3.6921-.4546,.2713-.9087,.5457-1.3712,.8034-.2601,.152-.5256,.2939-.7966,.4255,.7484-.4687,1.58-.5482,2.4949-.2386,.7943,.3803,.9087,.4031,.3434,.0684-.247-.1744-.4923-.351-.7361-.5299-.4701-.3398-.9387-.6816-1.4081-1.0224-4.0902-2.9697-8.1805-5.9394-12.2707-8.9091-2.5487-1.8505-6.7977-.5189-8.2091,2.1525-1.6449,3.1134-.5677,6.2341,2.1525,8.2091h0Z"/>
  <path d="M14.8379,138.4936c1.5515,6.7549,3.1581,13.4971,4.8238,20.2247,.8329,3.3638,1.6801,6.7241,2.5418,10.0806,.8368,3.2596,1.5707,6.5816,2.5923,9.7891,1.1629,3.6511,3.1646,6.7799,6.1123,9.2408,2.5598,2.1371,5.3153,4.0772,8.1558,5.8226,5.3743,3.3024,11.1805,5.8978,17.0947,8.0684,11.5779,4.2492,23.7856,6.5973,35.9122,8.6557,7.1088,1.2067,14.2482,2.2337,21.4041,3.1179,6.9217,.8553,13.9169,1.8057,20.7064-.4001,7.1113-2.3104,13.5622-6.6502,19.6476-10.8968,6.2197-4.3403,12.1702-9.0887,17.7673-14.2069,2.3224-2.1237,2.315-6.3601,0-8.4853-2.4833-2.2797-6.0079-2.2654-8.4853,0-2.3026,2.1056-4.6603,4.1494-7.0795,6.1201-.531,.4325-1.0646,.8618-1.6011,1.2874-.3577,.2838-.7172,.5651-1.0766,.8467-.8598,.6738-.0161,.0211,.1305-.1007-1.2816,1.0653-2.6808,2.0197-4.0345,2.9905-4.8818,3.501-9.9644,6.9586-15.3658,9.6126-.4013,.1972-.8095,.3786-1.2125,.5719-.2921,.1401-.9397,.5609,.2048-.0767-.6138,.342-1.4186,.5497-2.0849,.7657-.7031,.2279-1.4149,.4296-2.135,.5968-.2883,.0669-.5782,.1286-.8688,.1848-.2915,.0562-.5841,.1066-.8776,.1512,.7354-.0943,.8758-.1173,.4211-.069-3.2739,.1413-6.4316-.0062-9.6915-.375-1.4558-.1647-2.9106-.3377-4.3646-.5174-.8078-.0998-1.6153-.2019-2.4225-.3061-.4843-.0626-.9685-.1267-1.4527-.1901-1.3112-.1717,1.0886,.1516-.3409-.0466-3.225-.4472-6.446-.9196-9.6612-1.4325-11.9072-1.8992-23.8944-4.0504-35.4038-7.7136-2.7074-.8617-5.3866-1.814-8.0206-2.8798-.2864-.1159-1.6622-.628-.1356-.0458-.2624-.1001-.5227-.2236-.7794-.3354-.6476-.2821-1.2921-.5716-1.9329-.8691-1.3436-.6237-2.6717-1.2807-3.9807-1.9742-2.5562-1.3544-5.0395-2.8478-7.4193-4.4931-.5244-.3626-1.0436-.7327-1.5576-1.1099-.2808-.2061-.599-.3996-.8536-.6365,.9888,.92,.4534,.3612,.2086,.153-.541-.46-1.0883-.9083-1.596-1.406-.3032-.2973-.5791-.6153-.8712-.9225-.8096-.8515,.5493,.9745-.0739-.1337-.135-.24-.2814-.5125-.4333-.7457-.2873-.5992-.268-.5203,.058,.2367-.0819-.2041-.1584-.4101-.2295-.6181-.2694-.7631-.4848-1.5428-.6948-2.3239-.488-1.815-.9559-3.6357-1.4273-5.4551-.9313-3.5942-1.846-7.1927-2.7443-10.7953-1.8365-7.3654-3.6021-14.7483-5.3013-22.1465-.7033-3.0619-4.3892-5.1587-7.3807-4.1906-3.2027,1.0364-4.9441,4.1001-4.1906,7.3807h0Z"/>
  <path d="M58.9274,161.572c4.8007,5.4687,11.8213,8.2042,18.6138,10.2645,7.5154,2.2796,15.0796,4.4084,22.6189,6.6074,3.7736,1.1006,7.5366,2.2591,11.3442,3.2381,3.9512,1.016,8.1233,1.919,12.2242,1.7417,8.4001-.3632,15.3049-5.6115,22.4928-9.396,7.9344-4.1776,16.0117-8.0923,24.1606-11.8326,2.8615-1.3134,3.7889-5.671,2.1525-8.2091-1.903-2.9517-5.1482-3.5575-8.2091-2.1525-6.9923,3.2094-13.9191,6.5618-20.7661,10.0709-3.3323,1.7078-6.6433,3.459-9.8959,5.3147-1.4875,.8486-2.9557,1.734-4.4751,2.5253-.6287,.3274-1.309,.7322-1.9839,.9552,1.5119-.4994,.076-.0618-.2006,.0326-.5541,.189-1.1165,.3535-1.687,.4854l-.4506,.0974c-.6803,.1169-.6022,.1171,.2341,.0006,.0003,.0013-.7998,.0756-.9135,.0832-.918,.0614-1.8398,.0544-2.7579-.0009-.4024-.0243-1.002,.017-1.382-.1203l.6751,.0975c-.3065-.0435-.6123-.0908-.9175-.1421-.9144-.1535-1.8229-.3399-2.7272-.544-3.7516-.8469-7.4344-1.9811-11.1245-3.0574-7.3337-2.1389-14.6674-4.2779-22.0011-6.4168-1.711-.499-3.4237-.994-5.1196-1.5429-.8844-.2862-1.7645-.586-2.6364-.9085-.3726-.1378-.741-.2864-1.113-.4257-1.3038-.4882,1.2364,.5701-.0272-.0042-1.544-.7017-3.054-1.4586-4.4745-2.3902-.3238-.2124-.6357-.4399-.9547-.6591-.5134-.3826-.4149-.3052,.2956,.2322-.2001-.1624-.3971-.3284-.591-.4982-.6847-.5998-1.3178-1.2478-1.918-1.9315-2.0774-2.3664-6.3905-2.282-8.4853,0-2.3164,2.5234-2.2158,5.9611,0,8.4853h0Z"/>
  <path d="M46.1868,87.7614c4.65-1.9475,8.6415-4.5075,12.5198-7.7329,3.1937-2.656,6.107-5.6255,9.0668-8.5337,1.4639-1.4385,2.9394-2.8663,4.4665-4.238,.7358-.661,1.4828-1.3098,2.246-1.9391,.1902-.1569,.3813-.3127,.5735-.4672,.1115-.0896,1.0611-.8777,.2641-.2153-.6983,.5804-.0585,.0503,.1279-.0878,.2468-.1829,.495-.3638,.7454-.5415,1.8066-1.2823,3.7097-2.4173,5.7127-3.3656,.3909-.1851,1.8888-1.0402,.5916-.2844,.4888-.2848,1.1197-.4426,1.6516-.6367,1.2504-.4562,2.5195-.8608,3.7979-1.2308,4.8964-1.4173,9.9228-2.3891,14.8985-3.4807,5.489-1.2042,10.978-2.4084,16.4669-3.6125,5.3571-1.1752,10.7232-2.3158,16.0719-3.5287,2.7386-.621,5.4953-1.4518,7.9419-2.8623,2.3488-1.3542,4.3563-3.2653,6.0476-5.3664,4.0613-5.0454,7.836-10.342,11.7276-15.5189,1.8748-2.494,3.7482-4.9891,5.6247-7.4819,.4248-.5643,.85-1.1283,1.2772-1.6909,.19-.2502,.3802-.5001,.571-.7497,.3813-.4988,.5347-.7424,.068-.0927,.9123-1.2701,1.9485-2.4711,2.948-3.6727,2.0043-2.4097,2.537-6.1563,0-8.4853-2.2145-2.0329-6.342-2.5767-8.4853,0-7.1165,8.5557-13.566,17.714-20.2516,26.6076-.3968,.5278-.7935,1.0558-1.1904,1.5835-.1777,.2364-.3553,.4729-.5337,.7087-.1263,.1669-.7139,.8915-.181,.2413,.5338-.6514-.0634,.0704-.1947,.2317-.1799,.221-.3619,.44-.5475,.6562-.4156,.484-.8456,.9568-1.3013,1.4035-.2013,.1974-.4179,.3807-.6177,.5793-.759,.7545,.0499-.1111,.2323-.1348-.3877,.0505-1.0768,.7283-1.4362,.9273-.2519,.1394-.5094,.2602-.7641,.3929-1.0421,.5432,.1615-.1467,.2479-.0972-.2101-.1204-1.7536,.5881-2.0534,.6729-5.0723,1.4336-10.3377,2.3385-15.4852,3.4678-10.4859,2.3004-21.0697,4.345-31.4777,6.9772-5.0625,1.2803-10.1244,3.0035-14.6368,5.6711-3.8256,2.2617-7.295,5.1675-10.5345,8.1954-3.361,3.1415-6.5225,6.4913-9.936,9.5774-.8656,.7826-1.7467,1.548-2.6507,2.2861-.1893,.1546-.3823,.3049-.5711,.4602-.5721,.4708,1.0595-.7914,.2022-.1534-.488,.3632-.9778,.7233-1.4779,1.0698-.8979,.6222-1.8208,1.2096-2.77,1.7507-.5286,.3013-1.065,.5889-1.6092,.8609-.3928,.1963-2.3034,1.0331-.5734,.3086-1.5104,.6326-2.7236,1.2841-3.5858,2.7574-.7526,1.2861-1.0715,3.1815-.6049,4.6234,.8963,2.7697,4.2806,5.489,7.3807,4.1906h0Z"/>
  <path d="M98.0352,92.3594c22.1324-4.7635,42.6615-14.8229,62.8161-24.8215,3.1251-1.5503,6.0035-3.1982,8.0498-6.1308,.9574-1.3721,1.5382-3.0188,2.046-4.6046,.1994-.6227,.415-1.2399,.6171-1.8613,.2442-.7507-.5659,1.0225-.1394,.363,.1796-.2776,1.0728-1.5177,.1689-.4158,1.0384-1.2659,1.7574-2.5455,1.7574-4.2426,0-1.4716-.6536-3.2295-1.7574-4.2426-2.2011-2.0205-6.3596-2.5913-8.4853,0-1.3322,1.624-2.2033,3.0384-2.9731,4.985-.1001,.2533-1.2194,3.5128-1.2052,3.5181-.1283-.0488,.7552-1.3331,.1259-.3748-.0775,.118-.3957,.5804-.402,.6631,.0142-.1884,.9489-.9954,.2014-.3256,.0464-.0416-.552,.5335-.5639,.5211-.0841-.0879,1.0736-.7324,.2841-.2445-.2219,.1371-.4379,.2815-.6621,.4149-.5623,.3345-1.1457,.6323-1.7299,.926-4.8263,2.4264-9.6797,4.8044-14.552,7.1369-4.8966,2.3441-9.8268,4.62-14.8193,6.7532-.0406,.0174-1.4492,.6107-.5666,.2417,.7535-.315-.1716,.0704-.3543,.1465-.643,.2677-1.287,.5329-1.9322,.7953-1.2894,.5244-2.5832,1.0378-3.8817,1.5392-2.4495,.9458-4.916,1.8479-7.4006,2.6972-5.8455,1.9981-11.7917,3.6916-17.8319,4.9916-3.0726,.6613-5.1492,4.4187-4.1906,7.3807,1.0477,3.2376,4.0888,4.8991,7.3807,4.1906h0Z"/>
  <path d="M167.3536,68.6455l-30.987-1.0726c-3.14-.1087-6.1417,2.8374-6,6,.1498,3.3438,2.6359,5.8836,6,6l30.987,1.0726c3.14,.1087,6.1417-2.8374,6-6-.1498-3.3438-2.6359-5.8836-6-6h0Z"/>
  <path d="M62.4393,162.484c8.8733,2.3034,17.8063,4.4489,26.6279,6.9434,2.0986,.5934,4.2773,1.1925,6.2616,2.1116-1.4046-.6506-.0595-.0058,.1684,.0998,.5168,.2393,1.029,.4886,1.5387,.7427,.8945,.4458,1.7802,.909,2.667,1.3698,3.8179,1.9838,7.7763,4.0075,12.0508,4.7579,1.6255,.2854,3.1522,.2561,4.6234-.6049,1.2446-.7283,2.4316-2.1554,2.7574-3.5858,.6651-2.9201-.885-6.8004-4.1906-7.3807-.9725-.1707-1.9293-.3964-2.872-.6912-.5362-.1677-1.0664-.3546-1.5908-.5558-.1973-.0752-.3936-.1531-.5888-.2334-.4145-.1691-.2614-.1049,.4591,.1925-.8837-.154-1.8801-.8737-2.6892-1.2813-.8921-.4494-1.7761-.9146-2.6629-1.3744-4.0934-2.1224-8.3013-3.8824-12.742-5.1381-8.8215-2.4945-17.7546-4.6401-26.6279-6.9434-3.034-.7876-6.6538,.9994-7.3807,4.1906-.7134,3.1322,.9403,6.537,4.1906,7.3807h0Z"/>
  <path d="M15.2994,79.047c1.384,5.335,5.1449,9.4142,8.9083,13.2502,3.5774,3.6464,7.6997,6.7583,12.6322,8.2809,2.9992,.9258,6.6763-1.0979,7.3807-4.1906,.7408-3.2524-.9791-6.3894-4.1906-7.3807-.5342-.1649-1.0573-.3522-1.5752-.5629l1.4333,.6049c-1.6263-.6934-3.1205-1.6124-4.5278-2.6786l1.2143,.9382c-3.1828-2.4646-6.067-5.5469-8.5632-8.6978l.9382,1.2143c-.8174-1.0645-1.5013-2.1861-2.0302-3.4206l.6049,1.4333c-.2616-.6486-.4778-1.3035-.6534-1.9805-.7882-3.0383-4.329-5.1782-7.3807-4.1906-3.1316,1.0134-5.0353,4.1247-4.1906,7.3807h0Z"/>
  <path d="M1.3159,99.2506c-.6881,3.8851,.0232,7.5547,2.1531,10.9055,1.7952,2.8243,4.1763,5.248,6.4241,7.7069,4.3478,4.7562,8.5002,9.7136,13.7978,13.4573,2.5712,1.817,6.7846,.5438,8.2091-2.1525,1.6288-3.0827,.5916-6.2699-2.1525-8.2091-.0649-.0459-.6725-.5305-.7068-.5083,.5798,.4557,.6983,.5464,.3555,.2722-.1135-.09-.2258-.1816-.3368-.2747-.5026-.4157-.9928-.8464-1.472-1.289-.9078-.8383-1.777-1.7172-2.6278-2.6129-1.9041-2.0048-3.7477-4.0683-5.6131-6.109-.9145-1.0004-1.829-2.0008-2.7435-3.0012-.7951-.8698-1.9402-1.8388-2.5125-2.8778,.1659,.3012,.611,.8639,.1964,.2219-.1849-.2864-.3839-.5628-.5634-.8531-.1417-.2291-.2776-.4611-.4061-.6979-.1003-.1847-.4162-1.002-.1308-.1755,.3167,.9172-.0521-.1774-.1111-.3764-.056-.1886-.0726-.5921-.1863-.744,.2389,.3191,.0849,1.3785,.0792,.2678-.0022-.432,.1939-1.3139-.0813,.2399,.2876-1.6236,.2549-3.1542-.6049-4.6234-.7283-1.2446-2.1554-2.4316-3.5858-2.7574-2.9241-.666-6.7954,.8859-7.3807,4.1906h0Z"/>
</svg>