<?xml version="1.0" encoding="UTF-8"?>
<svg id="b" data-name="图层 2" xmlns="http://www.w3.org/2000/svg" width="42.747" height="50.5242" viewBox="0 0 42.747 50.5242">
  <defs>
    <style>
      .d {
        fill: #f7df1e;
      }
    </style>
  </defs>
  <g id="c" data-name="图层 1">
    <g>
      <path class="d" d="M7.3493,44.5177c.4614-7.5434,.069-11.5796-.4199-13.8949,0-.0001-.7043-4.1346-.4729-6.6794,.1076-1.1834,.3816-2.3474,.4783-3.5317,.1022-1.2525,.005-2.5118-.0922-3.7647-.2767-3.5657-.5533-7.1315-.83-10.6971,6.977,8.0375,14.5832,15.5286,22.7261,22.3823,.5009,.4216,1.8148,1.4457,3.4536,2.9949,2.0517,1.9395,3.5762,3.6895,4.5551,4.8813-9.7994,2.7698-19.5988,5.5396-29.3982,8.3094Z"/>
      <path d="M13.3493,44.5177c.2027-3.4178,.3233-6.8609,.0643-10.2794-.1583-2.089-.5131-4.1534-.8508-6.2182,.3949,2.4148-.0005-.1497-.0514-.7606-.0613-.7366-.1045-1.4757-.1007-2.2151,.0019-.3685,.0233-.7335,.0458-1.1011,.0845-1.3806-.1843,1.0855,.0289-.1705,.2407-1.4178,.4685-2.8603,.4918-4.3017,.0361-2.2331-.2638-4.4898-.4364-6.7142-.1761-2.2691-.3521-4.5382-.5282-6.8073L1.7701,10.1924c5.0631,5.8193,10.4403,11.3612,16.1234,16.5775,4.9236,4.5191,10.3356,8.5031,14.6114,13.6811l2.6476-10.0283c-9.7994,2.7698-19.5988,5.5396-29.3982,8.3094-3.0186,.8532-5.1932,4.2826-4.1906,7.3807,.9957,3.0767,4.145,5.1052,7.3807,4.1906,9.7994-2.7698,19.5988-5.5396,29.3982-8.3094,2.0172-.5702,3.6323-2.1632,4.1906-4.1906,.6108-2.218-.1439-4.1434-1.543-5.8377-4.2761-5.1783-9.6886-9.1607-14.6114-13.6811C20.6966,13.067,15.3187,7.5267,10.2553,1.7071,8.6908-.0911,5.7656-.4047,3.701,.4665,1.6506,1.3318-.1703,3.5918,.0127,5.9498c.1761,2.2691,.3521,4.5382,.5282,6.8073,.1726,2.2242,.4705,4.4812,.4364,6.7142-.0063,.4153,.0653,1.0038-.0863,1.3837,.1184-.8588,.1261-.9495,.0232-.2721-.0362,.2199-.0707,.4402-.1034,.6606-.1815,1.1989-.3807,2.4185-.3994,3.6355-.0231,1.5029,.1405,3.0067,.333,4.495,.1478,1.1431,.3029,2.2724,.509,3.4038,.0378,.2072,.0677,.4157,.1043,.623,.1606,.9106-.1987-1.7063-.1043-.7972,.0566,.5449,.119,1.0884,.1604,1.6349,.259,3.4185,.1384,6.8617-.0643,10.2794-.1862,3.1389,2.8928,6.1392,6,6,3.41-.1527,5.8005-2.6375,6-6Z"/>
    </g>
  </g>
</svg>