<?xml version="1.0" encoding="UTF-8"?>
<svg width="32" height="32" viewBox="0 0 32 32" xmlns="http://www.w3.org/2000/svg">
  <!-- 白色圆形背景 -->
  <circle cx="16" cy="16" r="16" fill="#fcfcfc" stroke="none"/>
  <!-- GitHub logo图标，使用主色调，适配32x32视图框 -->
  <path d="M16 4C9.58 4 4.25 9.33 4.25 15.75c0 5.19 3.37 9.59 8.04 11.15.59.11.8-.26.8-.57 0-.28-.01-1.02-.01-2.01-3.28.71-3.97-1.58-3.97-1.58-.54-1.37-1.31-1.74-1.31-1.74-1.07-.73.08-.72.08-.72 1.18.08 1.8 1.21 1.8 1.21 1.05 1.8 2.76 1.28 3.43.98.11-.76.41-1.28.75-1.57-2.62-.3-5.37-1.31-5.37-5.83 0-1.29.46-2.34 1.21-3.17-.12-.3-.52-1.5.12-3.13 0 0 .99-.32 3.24 1.21.94-.26 1.95-.39 2.95-.39s2.01.13 2.95.39c2.25-1.53 3.24-1.21 3.24-1.21.64 1.63.24 2.83.12 3.13.75.83 1.21 1.88 1.21 3.17 0 4.53-2.76 5.53-5.39 5.82.42.36.8 1.08.8 2.18 0 1.57-.01 2.84-.01 3.23 0 .31.21.69.8.57A11.76 11.76 0 0027.75 15.75C27.75 9.33 22.42 4 16 4z" fill="hsl(15, 83%, 46%)"/>
</svg>
