<?xml version="1.0" encoding="UTF-8"?>
<svg id="b" data-name="图层 2" xmlns="http://www.w3.org/2000/svg" width="278.085" height="277.8944" viewBox="0 0 278.085 277.8944">
  <defs>
    <style>
      .d {
        fill: #f7df1e;
      }

      .e, .f {
        fill: none;
      }

      .f {
        stroke: #000;
        stroke-linecap: round;
        stroke-miterlimit: 10;
        stroke-width: 11px;
      }
    </style>
  </defs>
  <g id="c" data-name="图层 1">
    <g>
      <path class="d" d="M182.3018,40.0278c12.6889,5.4819,24.5261,13.4897,34.7481,24.0259,41.661,42.9418,40.6227,111.5233-2.3191,153.1843-42.9416,41.6608-111.5304,40.6296-153.1913-2.3122-10.222-10.5363-17.8678-22.6105-22.9631-35.4595-9.1285-1.9557-17.7927-6.5492-24.7768-13.748-18.8007-19.3787-18.3321-50.3323,1.0466-69.133,8.9932-8.7249,20.4693-13.2964,32.0742-13.7572,4.6331-7.5462,10.285-14.6457,16.9382-21.1006,6.6462-6.4479,13.9135-11.8823,21.5966-16.2849,.8118-11.5855,5.7287-22.9182,14.7218-31.643,19.3787-18.8007,50.3323-18.3321,69.133,1.0466,6.9841,7.1988,11.3132,15.9981,12.9917,25.1816Z"/>
      <path class="f" d="M220.616,111.9859c14.0467,29.7364,7.6838,67.2525-18.3007,92.462-25.9845,25.2095-63.6761,30.4338-92.9736,15.4934"/>
    </g>
    <g>
      <path class="e" d="M93.0595,236.4011c-12.5164-5.8649-24.1049-14.2287-34.002-25.0708-40.3368-44.1879-37.215-112.7062,6.973-153.0431,44.1878-40.3367,112.7135-37.2216,153.0503,6.9663,9.8971,10.842,17.1724,23.1431,21.8749,36.1409,9.0648,2.2322,17.5854,7.0869,24.3476,14.4946,18.2031,19.9411,16.7942,50.8661-3.1469,69.0692-9.2542,8.4476-20.8639,12.6682-32.4775,12.7762-4.8603,7.402-10.7253,14.3264-17.5716,20.5761-6.8391,6.243-14.2682,11.454-22.0815,15.6211-1.1635,11.5555-6.4225,22.7335-15.6765,31.181-19.9411,18.2031-50.8661,16.7941-69.0693-3.1469-6.7621-7.4078-10.8219-16.3345-12.2205-25.5648Z"/>
      <path class="e" d="M56.9496,163.3119c-13.1366-30.1495-5.6366-67.455,21.102-91.8632,26.7385-24.4082,64.5715-28.4848,93.4015-12.6609"/>
    </g>
  </g>
</svg>