<?xml version="1.0" encoding="UTF-8"?>
<svg id="b" data-name="图层 2" xmlns="http://www.w3.org/2000/svg" width="216.67" height="225.78" viewBox="0 0 216.67 225.78">
  <defs>
    <style>
      .d {
        fill: #f7df1e;
      }

      .e {
        fill: none;
        stroke: #000;
        stroke-linecap: round;
        stroke-miterlimit: 10;
        stroke-width: 11px;
      }
    </style>
  </defs>
  <g id="c" data-name="图层 1">
    <g>
      <path class="d" d="M208.46,76.01c5.29,12.77,8.21,26.76,8.21,41.44,0,59.83-48.5,108.33-108.3301,108.33C48.5101,225.78,0,177.2801,0,117.45c0-14.68,2.92-28.67,8.21-41.44C3.02,68.25,0,58.9201,0,48.89,0,21.89,21.8899,0,48.8899,0c12.53,0,23.95,4.71,32.6001,12.46,8.58-2.19,17.58-3.35,26.8499-3.35,9.26,0,18.26,1.16,26.8401,3.35C143.8299,4.71,155.2501,0,167.78,0c27,0,48.89,21.89,48.89,48.89,0,10.03-3.02,19.36-8.21,27.12Z"/>
      <path class="e" d="M185.8533,154.3355c-10.6243,31.1237-41.3145,53.6195-77.5183,53.6196-36.2037,0-66.894-22.4958-77.5183-53.6195"/>
    </g>
  </g>
</svg>