<?xml version="1.0" encoding="UTF-8"?>
<svg id="a" data-name="图层 1" xmlns="http://www.w3.org/2000/svg" width="180" height="180" viewBox="0 0 180 180">
  <path d="M24.1805,98.9956c18.7124-.3415,37.4272-.5366,56.1424-.6395,18.6343-.1025,37.269-.1149,55.9035-.0948,10.5652,.0114,21.1304,.0333,31.6956,.0552,3.9233,.0081,7.6812-3.4555,7.5-7.5-.1823-4.0705-3.2952-7.4913-7.5-7.5-18.718-.0388-37.436-.0775-56.154-.058-18.6337,.0194-37.2675,.0965-55.9003,.2887-10.563,.109-21.1255,.2557-31.6873,.4485-3.9202,.0715-7.6837,3.3985-7.5,7.5,.1793,4.0022,3.2973,7.5767,7.5,7.5h0Z"/>
  <path d="M69.5,26.2267c-9.8726,5.0953-16.3407,14.4893-24.2623,21.9366-7.2538,6.8196-15.2567,12.7766-22.6402,19.4489-3.551,3.2089-6.9632,6.5886-10.0053,10.289-1.8691,2.2735-3.6713,4.6262-5.2775,7.0948-1.5607,2.3986-3.3172,5.1175-4.1598,7.8673-.9378,3.0603-.2157,6.6089,2.1091,8.8876,1.024,1.0037,2.2419,1.8454,3.3538,2.7509,2.3157,1.8856,4.6106,3.7967,6.8846,5.7323,4.4898,3.8216,8.8977,7.7393,13.2198,11.7496,9.7677,9.0629,19.0894,18.6008,27.9409,28.5601,2.6143,2.9415,7.9766,2.8649,10.6066,0,2.8816-3.1391,2.7886-7.469,0-10.6066-12.3619-13.9091-25.6469-26.9906-39.7639-39.1154-1.975-1.6963-3.966-3.3738-5.9727-5.0324-1.0034-.8293-2.0106-1.6539-3.0218-2.4736-.4758-.3858-.9526-.7705-1.4301-1.1541-.208-.1671-.4755-.4368-.717-.5747-.9805-.5594,.8184,1.5971,.3576,.5204l1.024,3.7854-.035-.3471-.2679,1.9938c.0192-.2396,.0779-.4692,.1763-.6886l-.7561,1.7916c1.1681-2.5622,2.6427-5.0046,4.2379-7.3214,.3893-.5654,.7881-1.1241,1.1965-1.6758,.1485-.2006,.2999-.3989,.4489-.5991,.8641-1.1612-1.1677,1.4583-.254,.3353,.9081-1.1161,1.8249-2.2207,2.7855-3.2925,3.7673-4.2037,7.9622-7.9999,12.2535-11.6576,8.7093-7.4233,17.6097-14.4556,25.3855-22.895,2.3195-2.5174,4.6274-5.0543,7.1419-7.381,.5971-.5525,1.2049-1.0936,1.8268-1.6181,.3101-.2615,.6267-.5144,.9401-.7718,1.0442-.8573-1.4196,1.0194-.2326,.1883,1.4474-1.0135,2.9047-1.9634,4.4778-2.7753,3.4926-1.8025,4.806-6.9804,2.6906-10.2614-2.2958-3.5609-6.5257-4.6186-10.2614-2.6906h0Z"/>
</svg>