<?xml version="1.0" encoding="UTF-8"?>
<svg id="b" data-name="图层 2" xmlns="http://www.w3.org/2000/svg" width="357.1628" height="134.9597" viewBox="0 0 357.1628 134.9597">
  <g id="c" data-name="图层 1">
    <path d="M12.7862,73.7849c3.9491-3.4523,7.924-6.8756,11.9668-10.2182,1.9854-1.6415,3.9866-3.2637,6.0082-4.8604,.4663-.3683,.9336-.7352,1.4021-1.1007,.234-.1825,.4654-.3698,.7033-.5471-1.2465,.9288-.3673,.284-.1063,.0857,1.0239-.778,2.0484-1.555,3.0815-2.3208,8.3054-6.1562,17.0238-11.7975,26.2949-16.3946,1.1463-.5684,2.3008-1.1205,3.4631-1.6556,.537-.2473,1.0757-.4908,1.616-.7307,.3605-.16,.7242-.313,1.0837-.4749,1.0004-.4504-1.1883,.4845-.1474,.0587,2.4477-1.0013,4.9131-1.9511,7.413-2.8147,5.0791-1.7546,10.2609-3.2043,15.4982-4.4035,5.1542-1.1802,10.3621-2.1178,15.5945-2.8754,.4037-.0585,.8077-.1148,1.2116-.172,.1552-.022,1.182-.1637,.2162-.0311-.9499,.1305,.8457-.1067,1.1288-.1422,1.4195-.1779,2.8405-.3437,4.2626-.4988,2.6456-.2885,5.2951-.5397,7.9471-.7611,10.7032-.8939,21.5274-1.5902,32.2703-1.6716,1.3507-.0102,2.7021,.0146,4.0498,.1091,.2908,.0204,2.0873,.2221,1.1599,.0864-.9564-.14,.0761,.0184,.2254,.0479,.4038,.08,.8087,.1514,1.2104,.242,.7041,.1588,1.4006,.3492,2.0869,.5726,.262,.0853,1.8951,.6988,.9188,.308-.9681-.3876,.568,.3004,.818,.4317,.6401,.336,1.2641,.6998,1.8742,1.0876,.4588,.2916,.9085,.5965,1.3504,.9131,.0547,.0392,.6251,.5031,.6586,.4837-.0487,.0283-1.0769-.8991-.4467-.3265,.9485,.8619,1.9302,1.6722,2.843,2.5752,1.6872,1.6689,3.2597,3.4556,4.7422,5.308,.1596,.1994,.9232,1.1145,.2579,.3205-.6225-.7428-.0298-.0314,.0763,.1146,.3223,.4437,.6488,.8842,.9654,1.3321,.7387,1.0452,1.4485,2.111,2.1284,3.1953,1.2629,2.0141,2.4231,4.093,3.4745,6.2251,.2426,.4919,.4794,.9868,.7103,1.4843,.1256,.2705,.8926,2.1177,.5121,1.1089-.366-.9704,.2514,.624,.3517,.8787,.2345,.5948,.4613,1.1926,.6792,1.7937,.8396,2.3159,1.5547,4.6769,2.1388,7.0701,.2592,1.0622,.4925,2.1306,.6992,3.2043,.1205,.6259,.2325,1.2534,.3347,1.8826,.0438,.2693,.0786,.5408,.1258,.8095,.1853,1.055-.1615-1.4354-.0459-.3708,.2558,2.3553,.4528,4.7053,.4791,7.0761,.0273,2.4593-.0914,4.9204-.3628,7.3649-.0293,.2641-.0651,.5276-.0939,.7918-.0932,.8555,.107-.7812,.1002-.7568-.1299,.4705-.1536,.9971-.2374,1.4791-.1996,1.1482-.434,2.2905-.7021,3.4246-.4981,2.1074-1.1129,4.1875-1.8377,6.2281-.1673,.471-.3405,.9401-.5195,1.4068-.0848,.2211-.8337,2.0548-.3707,.9584,.4451-1.0541-.2083,.4534-.3239,.7069-.2421,.5306-.4915,1.0578-.7488,1.5812-.992,2.0176-2.0966,3.9798-3.3069,5.8744-.5374,.8412-1.0956,1.669-1.6743,2.4823-.325,.4567-.7607,.9156-1.0323,1.4076-.0008,.0015,.9329-1.1708,.4099-.5324-.2105,.2569-.4142,.5195-.6246,.7766-1.3661,1.6693-2.824,3.2632-4.3684,4.7692-.7711,.752-1.5634,1.4824-2.3766,2.1887-.3752,.3258-.7548,.6467-1.1386,.9623-.1918,.1577-.3892,.3093-.5793,.469-.7102,.5968,1.2508-.9209,.1428-.108-1.7399,1.2767-3.5254,2.4779-5.3991,3.5511-.9686,.5548-1.9553,1.0785-2.9589,1.5671-.515,.2507-1.0389,.4804-1.5577,.7226-.7987,.3729,.4592-.1832,.4689-.1964-.1384,.1878-.8488,.3332-1.0731,.417-2.4548,.9168-4.9316,1.4673-7.4826,2.0165-.8648,.1862,.5429-.1105,.5816-.0639-.0418-.0504-.7625,.0838-.8486,.0922-.5648,.0548-1.1305,.0954-1.6973,.1206-1.3137,.0583-2.6303,.0348-3.9403-.0822-.1637-.0146-.6951-.1541-.837-.0862,.071-.034,1.4343,.2632,.6082,.0628-.6347-.154-1.2831-.2469-1.9177-.4089-.5442-.1389-1.0845-.2964-1.6178-.4725-.2661-.0879-.5294-.2033-.7981-.2811-.9908-.2868,1.0719,.5277,.2608,.128-.9199-.4533-1.8307-.9033-2.7017-1.4483-.3976-.2487-.7798-.518-1.168-.7805-.1822-.1232-.8441-.6351,.0111,.0258,.9964,.7701-.217-.2023-.3275-.2982-.706-.6128-1.3776-1.2661-2.0124-1.9523-.3188-.3446-.6192-.7038-.9276-1.0573-.8265-.9473,.2174,.2663,.2983,.4111-.1492-.2672-.3772-.5122-.5531-.7637-1.1998-1.7147-1.9922-3.5799-3.0013-5.3913-.0076-.0136,.5647,1.4619,.3002,.684-.077-.2264-.1733-.4481-.2558-.6727-.1933-.5263-.3718-1.058-.5382-1.5934-.3096-.9961-.5734-2.0063-.7913-3.0264-.1173-.5495-.1939-1.1073-.3097-1.6564-.1749-.8291,.0971,.8365,.0952,.8035-.0138-.2381-.0571-.4789-.0821-.7163-.1169-1.1122-.1793-2.2296-.1849-3.3479-.0053-1.061,.0419-2.1217,.1286-3.179,.0232-.2826,.0535-.5645,.0775-.847,.1283-1.5066,.0433,.213-.0583,.3089,.2491-.2352,.2601-1.5835,.3308-1.9501,.4645-2.4088,1.1323-4.7756,1.9603-7.0842,.224-.6246,.4667-1.2415,.7055-1.8605,.5227-1.3546-.4747,1.0132,.1335-.3078,.5587-1.2135,1.1286-2.4184,1.7493-3.6019,1.1555-2.2034,2.4301-4.3435,3.7943-6.4238,.6807-1.0381,1.3844-2.0611,2.1069-3.0705,.3287-.4592,.6614-.9154,.9978-1.3689,.159-.2143,.32-.4271,.479-.6414,.5545-.7474,.1295-.105-.2004,.2466,1.6281-1.7353,3.0126-3.7491,4.5962-5.5356,3.0628-3.4551,6.3387-6.7201,9.795-9.7814,1.7311-1.5333,3.5224-2.9853,5.3188-4.4401,.8056-.6525-1.0813,.817-.254,.192,.2128-.1608,.4239-.3237,.6367-.4844,.4257-.3214,.8536-.64,1.2835-.9557,1.0035-.737,2.0183-1.4586,3.0439-2.1645,3.8128-2.6247,7.7741-5.0328,11.8546-7.2179,2.1203-1.1353,4.2735-2.2092,6.4551-3.2217,.9697-.4501,1.945-.8879,2.9257-1.3134,.2395-.1039,.5087-.1898,.7364-.3171-1.4256,.7971-.7354,.3076-.3127,.1364,.5779-.2341,1.155-.4702,1.735-.6991,4.5263-1.7862,9.1545-3.3121,13.8546-4.5716,5.2109-1.3963,10.4974-2.4477,15.8327-3.2365,.2007-.0297,1.1393-.0223,.2351-.0357-1.0052-.0148,.2779-.0326,.5448-.0654,.6173-.0759,1.235-.1477,1.8532-.2154,1.3397-.1468,2.6814-.2747,4.0247-.3833,2.7914-.2257,5.5894-.3691,8.3892-.4329,5.3983-.123,10.8028,.0514,16.1829,.5097,1.346,.1146,2.6904,.2468,4.0329,.3968,.6197,.0692,1.2389,.1423,1.8577,.2189,.412,.051,.8265,.0972,1.237,.1584-.6404-.0954-.9861-.1384-.1408-.0118,2.6727,.4003,5.337,.8412,7.9886,1.3648,21.486,4.2428,41.4463,13.4112,61.9154,20.8662,5.0737,1.8479,10.1882,3.581,15.3651,5.1181,3.7601,1.1164,8.3387-1.3431,9.2259-5.2383,.9179-4.0298-1.2117-8.0304-5.2383-9.2259-22.1176-6.5669-42.925-16.8995-65.1634-23.0951-23.0429-6.4197-47.3339-7.8498-70.9015-3.6535-20.432,3.638-40.2809,12.0643-56.813,24.6557-8.2367,6.2733-15.7894,13.2974-22.2103,21.4427-7.0132,8.8966-13.2586,18.7881-15.7883,29.9788-2.3835,10.5438-1.3737,21.6198,3.9981,31.1217,5.6807,10.0485,15.7471,16.2623,27.2699,16.8314,10.9696,.5417,22.1252-4.0267,30.7535-10.5694,8.0532-6.1065,14.7615-13.8611,19.3108-22.9239,4.6987-9.3605,7.3005-19.6195,7.3694-30.1115,.0732-11.1386-2.6505-22.0528-7.3251-32.1157-4.5657-9.8285-11.4289-19.0893-20.1326-25.6099-5.1606-3.8662-11.1855-5.7029-17.5636-6.1992-5.6268-.4379-11.3672,.081-16.9948,.3345-22.8685,1.0302-46.1887,2.8602-68.0407,10.1371-21.9592,7.3126-40.9315,20.2896-58.643,34.9126-4.1215,3.4028-8.1722,6.89-12.1959,10.4076-2.9635,2.5907-2.8482,7.992,0,10.6066,3.1593,2.9002,7.4455,2.7634,10.6066,0h0Z"/>
    <path d="M318.3306,12.8033c.19,.2437,.3796,.4878,.5687,.7322-.6527-.8457-.8079-1.0457-.4655-.5999,.3273,.4305,.6571,.8591,.9837,1.2902,.5598,.739,1.1158,1.4808,1.6681,2.2255,1.1965,1.6134,2.3749,3.2403,3.5349,4.8802,2.2753,3.2168,4.4806,6.4829,6.6134,9.7959,4.3078,6.6918,8.3127,13.5745,12.0187,20.6172,1.4941-3.6725,2.9882-7.345,4.4822-11.0175-5.3243,1.7471-10.7741,2.87-15.9365,5.1032-2.0608,.8915-4.0941,1.8482-6.1286,2.7978-6.1634,2.8768-12.3038,5.8056-18.4143,8.7931-2.0718,1.013-4.1858,1.9839-6.1926,3.1236-3.4135,1.9385-4.8667,6.8862-2.6906,10.2614,2.2237,3.4491,6.6094,4.7646,10.2614,2.6906,3.3857-1.9227,6.987-3.5194,10.4909-5.2097,5.038-2.4304,10.0884-4.8362,15.1609-7.1937,1.7741-.8245,3.5459-1.6619,5.3481-2.4237l-1.7916,.7561c4.4664-1.8714,9.291-2.7284,13.8804-4.2344,4.7302-1.5522,6.8126-6.5889,4.4822-11.0175-7.7974-14.8181-16.9891-28.768-27.2673-41.977-1.0947-1.4069-3.6171-2.1967-5.3033-2.1967-1.8395,0-4.0368,.8171-5.3033,2.1967-1.3121,1.4293-2.2862,3.3058-2.1967,5.3033,.0951,2.1224,.9046,3.6427,2.1967,5.3033h0Z"/>
  </g>
</svg>