<?xml version="1.0" encoding="UTF-8"?>
<svg id="b" data-name="图层 2" xmlns="http://www.w3.org/2000/svg" width="167.7827" height="146.7778" viewBox="0 0 167.7827 146.7778">
  <defs>
    <style>
      .d {
        fill: none;
        stroke: #f7df1e;
        stroke-miterlimit: 10;
      }

      .d, .e {
        stroke-linecap: round;
      }

      .e {
        fill: #f7df1e;
        stroke: #000;
        stroke-linejoin: round;
        stroke-width: 11px;
      }
    </style>
  </defs>
  <g id="c" data-name="图层 1">
    <polygon class="e" points="83.8913 5.5 5.5 141.2778 162.2827 141.2778 83.8913 5.5"/>
    <path d="M71.4059,80.5681c-3.1488,.161-6.225,1.1851-8.7832,3.0455-2.1227,1.5437-6.1417,5.0891-4.6817,8.0881,.7147,1.4681,2.6289,2.471,3.9107,3.4016,1.5161,1.1008,3.0634,2.1583,4.6395,3.1712,3.206,2.0603,6.5303,3.9273,9.949,5.6106,1.726,.8499,3.248-1.7367,1.5142-2.5904-5.6612-2.7875-11.0582-6.0926-16.094-9.8969-.3345-.2527-1.1507-.6839-1.2-1.1084-.0515-.4441,.6892-1.2715,.9482-1.6076,.7471-.9694,1.6613-1.8527,2.6539-2.5675,2.0935-1.5078,4.5643-2.4144,7.1435-2.5462,1.9211-.0982,1.9328-3.0988,0-3h0Z"/>
    <path d="M77.0133,83.324c.7411,1.0766,1.4867,2.1582,2.0699,3.331,.6076,1.2221,.9754,2.5493,1.5445,3.7903,1.0656,2.3237,2.743,4.3309,4.4864,6.1758,1.3288,1.4062,3.4474-.7179,2.1213-2.1213-1.6256-1.7203-3.1655-3.5747-4.1077-5.7699-.5098-1.1877-.877-2.4284-1.4541-3.5891-.5832-1.1728-1.3288-2.2544-2.0699-3.331-.4588-.6665-1.3164-.9686-2.0523-.5381-.6602,.3862-.9997,1.3818-.5381,2.0523h0Z"/>
    <path d="M68.97,84.4084c-.8995,3.2929-1.9669,6.3782-3.6441,9.3627-1.5922,2.8333-3.4054,5.5522-4.7129,8.5372-.519,1.1849-1.1476,2.6489-.3082,3.8555,.9468,1.3611,2.8577,.978,4.2927,1.0461,3.6003,.1708,7.1364,.8517,10.5686,1.9434,1.8441,.5866,2.6335-2.3089,.7975-2.8928-3.0025-.955-6.0865-1.5826-9.222-1.8938-.7131-.0708-1.4283-.1231-2.1441-.1568-.4295-.0202-.8594-.034-1.2893-.0413-.2871-.0049-1.2034-.246-.636,.2411,.3767,.3234,.2366,.1597,.3749-.212,.1385-.3725,.3163-.7393,.4848-1.0989,.3093-.6598,.6436-1.3078,.9905-1.9485,1.3599-2.5114,2.9372-4.8999,4.2455-7.44,1.3969-2.7121,2.2939-5.5715,3.0951-8.5044,.5094-1.8649-2.3839-2.6607-2.8928-.7975h0Z"/>
    <path d="M77.638,85.6759c.2742,3.5301-.0075,7.0114-.8453,10.4507-.8485,3.4828-1.8141,6.9219-1.7716,10.5402,.0227,1.9291,3.0227,1.9343,3,0-.0427-3.6317,1.0552-7.0209,1.8487-10.5233,.7777-3.4326,1.0407-6.9592,.7682-10.4676-.1485-1.9124-3.1498-1.9284-3,0h0Z"/>
    <path d="M61.1981,107.4458c-.5325,1.9876-1.6758,3.679-2.664,5.4593-1.0931,1.9693-1.6566,4.0678-2.4534,6.1554-1.4263,3.7363-4.5913,6.4799-5.7516,10.3686-.5532,1.854,2.3413,2.6461,2.8928,.7975,1.1411-3.8244,4.3434-6.6335,5.7516-10.3686,.7651-2.0293,1.3346-4.0141,2.419-5.912,1.0491-1.8361,2.1462-3.6413,2.6985-5.7027,.5002-1.867-2.3929-2.6635-2.8928-.7975h0Z"/>
    <path d="M70.834,108.6072c1.2725,1.8292,2.493,3.6933,3.6497,5.598,.5782,.9522,1.1411,1.9136,1.6885,2.8838,.2737,.4851,.5435,.9724,.8094,1.4618,.088,.162,.5034,.7826,.485,.8906-.0659,.3863-1.2202,1.26-1.5112,1.6504-.572,.7675-.977,1.611-1.3428,2.4919-.8307,1.9999-1.5403,4.0555-2.2995,6.0834-.6777,1.8103,2.221,2.5921,2.8928,.7975,.7904-2.1114,1.458-4.3362,2.4378-6.3682,.4398-.9121,1.0004-1.5424,1.6874-2.2626,.7138-.7483,1.2316-1.616,1.1185-2.6845-.107-1.0113-.7995-1.979-1.2793-2.8452-.5735-1.0354-1.1645-2.061-1.7727-3.0764-1.2526-2.0909-2.5813-4.1339-3.9731-6.1347-1.0949-1.5739-3.6965-.0759-2.5904,1.5142h0Z"/>
    <path d="M68.8377,101.7873c13.0625,2.4044,25.5338,7.2915,38.663,9.3885,1.8887,.3017,2.7018-2.5887,.7975-2.8928-13.1292-2.097-25.6005-6.9841-38.663-9.3885-1.8874-.3474-2.6966,2.5433-.7975,2.8928h0Z"/>
    <path d="M84.0001,96.2462c2.9354,2.8487,5.7051,5.9954,8.0765,9.2074,.4647,.6294,1.3211,1.0095,2.0523,.5381,.6231-.4017,1.0366-1.3772,.5381-2.0523-2.5818-3.497-5.4257-6.7868-8.5456-9.8146-.5636-.547-1.5677-.6031-2.1213,0-.5429,.5914-.6016,1.5375,0,2.1213h0Z"/>
    <path d="M101.6425,104.849c.1466,1.6285,.2941,3.2621,.2604,4.899-.0138,.6694-.06,1.3363-.1458,2.0002-.1027,.7945-.1859,1.5799,.2099,2.3187,.8529,1.5921,2.8916,1.2771,4.3996,1.2755,1.5765-.0017,3.153-.0034,4.7295-.005,1.6269-.0017,3.3983,.2502,4.7328-.8682,.9576-.8025,1.7904-2.1929,2.1651-3.3769,.4449-1.4057,.0609-3.0957-1.2483-3.9066-.6241-.3865-1.229-.2462-1.8772-.4308-.5366-.1528-1.0266-.699-1.4862-1.0119-2.6635-1.8135-5.9259-2.4175-9.041-2.9527-.7975-.137-1.6157,.2123-1.8452,1.0477-.1983,.7216,.2449,1.7073,1.0477,1.8452,2.1803,.3746,4.4415,.7342,6.4812,1.6292,1.0226,.4487,1.8829,1.0782,2.7894,1.7145,.4663,.3273,.9904,.5811,1.5529,.6839,.2734,.0499,.5701,.0179,.8324,.0608-.127-.0208-.0718-.3013-.0153,.0263-.0047-.0275,.003,.1403,.0007,.1644-.0124,.1303-.0492,.2594-.0974,.3848-.193,.5025-.5424,1.0247-.8609,1.4572-.144,.1955-.353,.4462-.5078,.4978-.525,.1749-1.2817,.0338-1.8347,.0343-1.3575,.0014-2.7151,.0029-4.0726,.0043-.6131,.0007-1.2262,.0013-1.8392,.002-.3065,.0003-.6131,.0007-.9196,.001-.1748,.0002-.3506,.0037-.5255,.0006l-.1886-.0019c-.2266-.026-.2525-.0189-.0778,.0212,.0097,.0328,.7352,.2808,.3913,.4094-.0043,.0016,.0118-.2926,.0167-.3496,.0127-.1481,.0842-.6028,.1157-.8783,.0829-.7251,.1198-1.4539,.1225-2.1836,.0056-1.5081-.1295-3.0119-.2646-4.5126-.0726-.8069-.6374-1.5-1.5-1.5-.7551,0-1.5731,.6884-1.5,1.5h0Z"/>
    <path d="M125.2124,90.5524c-3.0408,.9822-4.6543,3.7373-6.6005,6.0516-2.2389,2.6622-4.7627,5.0639-7.2792,7.4587-1.4014,1.3336,.7223,3.4527,2.1213,2.1213,2.3985-2.2825,4.8027-4.5704,6.9618-7.0853,.9565-1.1141,1.8114-2.3081,2.7591-3.4284,.781-.9233,1.6593-1.8453,2.835-2.2251,.7707-.2489,1.269-1.0396,1.0477-1.8452-.2079-.7567-1.0711-1.2977-1.8452-1.0477h0Z"/>
    <path d="M105.3632,112.9327c-4.4677,2.6139-7.777,6.2705-10.5451,10.5954-1.4351,2.2422-3.0208,4.4598-4.1625,6.8713-.5135,1.0847-.7587,2.5693-1.7137,3.3573-1.0144,.837-2.2431,1.4999-3.338,2.2282-1.6001,1.0642-.0996,3.6637,1.5142,2.5904,2.111-1.404,4.4634-2.5214,5.4505-4.9869,1.0169-2.5397,2.4288-4.7667,3.8963-7.0671,1.3795-2.1625,2.7177-4.3493,4.4654-6.241,1.7408-1.8842,3.7347-3.4628,5.9471-4.7572,1.6655-.9745,.1573-3.5684-1.5142-2.5904h0Z"/>
    <g>
      <path d="M85.9583,73.4478c.2213,1.1895,.2174,2.4405-.049,3.6976-1.0858,5.1234-6.1192,8.3964-11.2426,7.3106s-8.3973-6.1193-7.3115-11.2428c.2664-1.2571,.7703-2.4021,1.4551-3.3996-.3036-.7587-.3929-1.6125-.2109-2.4714,.49-2.3121,2.7618-3.7893,5.0738-3.2993,1.073,.2274,1.9654,.838,2.5655,1.6586,.7745-.0318,1.5662,.0322,2.36,.2004,.793,.168,1.5426,.4307,2.2376,.774,.8814-.5067,1.9448-.7028,3.0178-.4754,2.3121,.49,3.7893,2.7618,3.2993,5.0738-.182,.8589-.61,1.603-1.1952,2.1734Z"/>
      <path class="d" d="M82.6009,79.7448c-1.4746,2.4724-4.511,3.8418-7.6112,3.1848s-5.3201-3.1404-5.665-5.9984"/>
    </g>
    <path d="M14.3584,131.4961c9.8911-.1135,19.7762-.1751,29.6622,.2284,4.9385,.2016,9.8755,.4562,14.8175,.5571,2.4692,.0504,4.9395,.063,7.4088,.0114,2.2686-.0475,4.5689-.2491,6.8326-.0118,2.3787,.2494,4.5575,1.1646,6.2244,2.906,1.4442,1.5087,2.1704,3.4863,4.3192,4.1555,1.8475,.5754,2.6378-2.3197,.7975-2.8928-.7878-.2454-1.2183-1.1066-1.667-1.7387-.5593-.7879-1.1692-1.5387-1.8869-2.1887-1.5415-1.396-3.4048-2.3956-5.4313-2.8723-2.1587-.5077-4.3899-.4999-6.5927-.4323-2.5119,.0771-5.0218,.1231-7.535,.1006-9.9691-.0893-19.9185-.8292-29.8894-.9081-5.6868-.045-11.3736,.0204-17.0599,.0856-1.9291,.0221-1.9343,3.0222,0,3h0Z"/>
  </g>
</svg>