<?xml version="1.0" encoding="UTF-8"?>
<svg id="a" data-name="图层 1" xmlns="http://www.w3.org/2000/svg" width="180" height="180" viewBox="0 0 180 180">
  <path d="M38.1677,35.5207c.7516-2.7454,1.5434-5.4798,2.64-8.1106l-.7561,1.7916c.4285-.9958,.893-1.9741,1.4304-2.9162,.2804-.4916,.5779-.9738,.8965-1.4416,.0509-.0747,.4572-.5467,.4345-.6125,.052,.1503-1.2841,1.5728-.3543,.4933,.3269-.3795,.67-.744,1.0306-1.0916,.2272-.219,.4645-.4242,.6991-.6354,.8126-.7314-.6063,.4559-.6063,.4555-.0606-.3959,2.6944-1.5675,3.067-1.7333l-1.7916,.7561c1.9582-.8201,4.0007-1.3077,6.0978-1.6114l-1.9938,.2679c5.5858-.7413,11.3198-.4619,16.9405-.4907,6.1444-.0315,12.2889-.0631,18.4333-.0946,12.538-.0643,25.076-.1287,37.6139-.193,3.4874-.0179,6.9748-.0358,10.4622-.0537,3.387-.0174,6.9004-.3037,10.2688,.0922l-1.9938-.2679c.7158,.1135,1.3862,.2827,2.0608,.5464l-1.7916-.7561c2.8646,1.3013,5.3654,3.6458,7.8699,5.5201,.6349,.4751,1.27,.9501,1.9047,1.4254,.2756,.2063,.5445,.4265,.8278,.6221-1.8454-1.2747-.6709-.5205-.2662-.1776,.509,.4313,.9564,.9087,1.4329,1.3722,.376,.4454,.3465,.3967-.0884-.146-.4162-.5576-.4587-.5957-.1275-.1141,.1804,.3649,.3996,.7092,.575,1.0792l-.7561-1.7916c.4269,1.0138,.6914,2.0482,.8636,3.1331l-.2679-1.9938c.4742,3.5544,.2537,7.2266,.2685,10.805,.0116,2.8125,.0232,5.625,.0348,8.4374,.0218,5.2814,.0436,10.5629,.0654,15.8443,.0242,5.8577,.0859,11.6751,.5956,17.5149,.4872,5.5819,1.2717,11.1307,2.0882,16.6724,.3753,2.547,.7571,5.0935,1.173,7.6342,.3681,2.2487,.913,4.4684,1.2333,6.7228l-.2679-1.9938c.7706,5.8478,.05,11.767,.3907,17.6408,.3517,6.0642,1.4313,12.0818,.6496,18.1609l.2679-1.9938c-.5173,3.7501-1.689,7.3477-2.988,10.891l.7561-1.7916c-.8823,1.3841-1.8774,2.683-2.7862,4.0456,1.3807-2.0702-.0263,.0033-.4736,.5199-.4998,.5771-1.0181,1.1381-1.5583,1.6776-.474,.4734-.9643,.9302-1.4738,1.3653-.2403,.2052-1.2615,1.0084-.1207,.1264,1.1346-.8772,.1239-.1097-.1362,.0696-1.0569,.7284-2.1791,1.3391-3.3604,1.8402l1.7916-.7561c-1.4394,.5807-2.9188,.9645-4.456,1.1755l1.9938-.2679c-3.2473,.3902-6.5989,.1623-9.8639,.1606-3.3078-.0017-6.6157-.0047-9.9235-.0089-6.1794-.0079-12.3588-.0204-18.5382-.0361-12.1218-.0309-24.2436-.073-36.3654-.1055-3.9221-.0105-7.8442-.0202-11.7663-.0288-4.0707-.009-8.1457,.0026-12.191-.5126l1.9938,.2679c-2.805-.3882-5.5376-1.0388-8.1521-2.1381l1.7916,.7561c-1.0054-.4411-1.9853-.9312-2.9236-1.5022-.0609-.037-1.4572-.9357-1.4404-.9586,.0275-.0374,1.4384,1.1993,.6097,.4686-.239-.2107-.4855-.412-.7206-.6274-.3755-.344-.7359-.7035-1.0797-1.0792-.0676-.0739-.6294-.7192-.6251-.7221,.0517-.0351,1.0852,1.5249,.4793,.6008-.6486-.9892-1.2249-1.9913-1.6985-3.0773l.7561,1.7916c-.6855-1.6725-1.1165-3.3982-1.3648-5.187l.2679,1.9938c-.4927-4.0174-.0848-8.0536,.4422-12.0459l-.2679,1.9938c.5945-4.422,1.362-8.8406,1.591-13.3019,.2319-4.5166-.0362-9.0405-.2548-13.552-.2188-4.5165-.4368-9.033-.6564-13.5494-.1091-2.2447-.217-4.4914-.4558-6.7269-.2944-2.7558-.854-5.4433-1.241-8.1795l.2679,1.9938c-.5701-4.5852-.0584-9.164,.1518-13.754,.2115-4.6194-.2724-9.2107-.2595-13.8269,.0062-2.2294,.2966-4.4024,.4963-6.6165,.2072-2.298,.1338-4.612-.0069-6.9114-.2723-4.452-.7886-8.9038-.2018-13.3536l-.2679,1.9938c.0428-.304,.0913-.6071,.1455-.9093,.3464-2.041,.3257-3.9306-.7561-5.7792-.9104-1.5558-2.6943-3.0395-4.4822-3.4467-3.6314-.8271-8.524,1.1022-9.2259,5.2383-.7566,4.458-.7458,8.7591-.4211,13.2502,.2791,3.8597,.5173,7.6786,.0277,11.5316-.5107,4.0193-.2341,8.0492-.0629,12.0808,.1707,4.0201-.0726,7.9891-.2925,12.001-.1249,2.2783-.193,4.5649-.0168,6.8424,.2196,2.8377,.85,5.5962,1.2416,8.4064l-.2679-1.9938c.9049,7.0068,.9187,14.173,1.2603,21.225,.3322,6.858,.5486,13.5934-.3622,20.4184l.2679-1.9938c-1.3282,9.7904-3.1922,19.7483,1.4847,28.9922,2.2602,4.4673,6.2986,8.1915,10.7149,10.4787,4.9149,2.5455,10.1172,3.6516,15.5989,4.1357,4.8824,.4312,9.8163,.2835,14.7124,.2952,4.6494,.0112,9.2987,.0237,13.9481,.0372,8.4111,.0244,16.8222,.0518,25.2333,.075,8.505,.0234,17.01,.0416,25.5151,.0507,4.8473,.0052,9.6965,.0465,14.5436,.0077,4.39-.0352,8.6349-1.0519,12.4998-3.1479,3.4725-1.8832,6.5245-4.7011,8.9816-7.7737,1.6018-2.003,3.227-4.0753,4.5454-6.2842,1.2169-2.0388,1.9036-4.7495,2.5782-7.036,1.0626-3.6017,1.6889-7.3694,1.8233-11.123,.1389-3.8785-.2773-7.7576-.6619-11.6109-.8286-8.3011,.3612-16.6334-1.2507-24.8707-1.0161-5.1925-1.8028-10.4159-2.5528-15.6547-.1305-.9118-.2605-1.8238-.3837-2.7366l.2679,1.9938c-.8295-6.2026-1.4089-12.4615-1.516-18.7214-.1-5.8437-.0564-11.693-.0805-17.5376-.0224-5.4239-.0448-10.8478-.0671-16.2717-.0168-4.0765,.2232-8.3512-.8536-12.3265-.7045-2.6006-1.9977-4.8448-3.7402-6.8763-1.3679-1.5948-3.114-2.8221-4.7794-4.0797-1.4982-1.1313-3.0061-2.25-4.5091-3.3748-1.5331-1.1473-3.0326-2.4253-4.6869-3.3964-4.3176-2.5346-9.1561-2.2596-13.9646-2.2349-8.1372,.0418-16.2745,.0835-24.4117,.1253-16.2745,.0835-32.5489,.167-48.8234,.2505-8.5064,.0436-17.8706-.4437-25.4187,4.1844-7.7912,4.7772-10.9935,13.2914-13.2924,21.689-1.035,3.7806,1.2851,8.3255,5.2383,9.2259,3.959,.9017,8.1173-1.1888,9.2259-5.2383h0Z"/>
  <path d="M60.5562,29.6202l-.1571-.1601,1.9288,3.3095-.0297-.1823v3.9876l.076-.1912-1.9288,3.3095c-1.2498,.8198-1.5408,1.0456-.873,.6773l-1.7916,.7561c.1784-.08,.3651-.1243,.5603-.1331l-1.9938,.2679c20.8492-.3918,41.6983-.7835,62.5475-1.1753,2.9073-.0546,5.8145-.1093,8.7218-.1639,2.737-.0514,5.5565-.3054,8.2849-.0378l-1.9938-.2679c.6302,.0876,1.2162,.2233,1.8084,.4551l-1.7916-.7561c.8266,.4013,.7335,.7886-.3033-.3601l-.6908-.9291c.14,.2116,.2619,.4332,.3657,.6648l-.7561-1.7916c.4116,1.0001,.5866,2.0359,.7374,3.1015l-.2679-1.9938c.6071,4.6044,.6054,9.2397-.0035,13.8438l.2679-1.9938c-.4878,3.4382-1.2637,6.8155-1.6642,10.2699-.3973,3.4266,.2743,6.7062,.7443,10.0908l-.2679-1.9938c.1145,.9607,.1721,1.8989,.0831,2.8633l.2679-1.9938c-.0956,.7084-.2587,1.3731-.5222,2.0388l.7561-1.7916c-.3417,.7365-1.2455,1.5421,.2618-.0777-.5382,.522-.2916,.3537,.7397-.5047-.226,.149-.4637,.2762-.7131,.3816l1.7916-.7561c-.5164,.196-1.0231,.3259-1.5671,.4202l1.9938-.2679c-5.1065,.6493-10.4209-.3305-15.5041-.8052-5.2066-.4863-10.4315-.534-15.6538-.3172-10.4576,.4341-20.8498,1.8333-31.3101,2.2214-5.8212,.216-11.6532,.0966-17.435-.6536l1.9938,.2679c-.9697-.1319-1.9913-.2104-2.9206-.532l1.7916,.7561c.5374,.3407,.9829,.7704,1.3365,1.2893,.4212,.607,.5016,.6708,.2414,.1915l.7561,1.7916c-.6173-1.6083-.8654-3.3953-1.1019-5.0932l.2679,1.9938c-.5735-4.501-.4322-9.0344-.093-13.5481,.3428-4.5619,.6634-9.1614,1.2092-13.7034l-.2679,1.9938c.0606-.3711,.1363-.7082,.2493-1.0668l-.7561,1.7916c.2502-.4949,.1704-.4478-.2394,.1414-.3892,.546-.8789,.9903-1.469,1.333l-1.7916,.7561c.1629-.0788,.3337-.1323,.5124-.1605l-1.9938,.2679c.1755-.0283,.3512-.0302,.5272-.0059l-1.9938-.2679,.2482,.0572-1.7916-.7561c1.1537,.5324,.4884-.1478-1.9959-2.0404,1.7395,3.5268,7.0232,4.7783,10.2614,2.6906,3.6118-2.3286,4.5512-6.4892,2.6906-10.2614-2.1531-4.3654-8.5078-5.7068-12.4737-3.0955-2.0686,1.362-3.5685,3.34-4.2536,5.7348-.466,1.6291-.5217,3.3938-.6712,5.0806-.4436,5.0036-.9883,10.0116-1.2191,15.0308-.2464,5.3581-.0221,10.9344,1.3672,16.1395,1.0703,4.0098,3.9817,7.1074,8.179,7.7557,2.996,.4628,6.0122,.8224,9.038,1.0175,20.0382,1.2919,39.9072-3.693,59.9556-1.6834,2.7841,.2791,5.5652,.6082,8.3603,.7585,3.0678,.1649,6.5995,.3332,9.5102-.7578,4.0173-1.5058,7.1745-4.7709,8.0526-9.0675,.7535-3.6872,.0591-7.0406-.458-10.7017l.2679,1.9938c-.2323-1.8987-.1509-3.7637,.0987-5.6565l-.2679,1.9938c.65-4.4669,1.6744-8.8473,1.9511-13.3703,.2633-4.305-.053-8.6334-.7674-12.8839-.4227-2.5153-1.569-4.9908-3.3879-6.8071-2.3596-2.3563-5.4736-3.2705-8.709-3.502-3.7556-.2686-7.6289,.0702-11.3909,.1409-16.2806,.3059-32.5613,.6118-48.8419,.9177-4.4855,.0843-8.971,.1686-13.4564,.2528-2.6255,.0493-5.4915-.1727-8.0363,.504-5.9519,1.5827-8.1979,9.1278-3.8435,13.5644,2.7526,2.8046,7.884,2.9658,10.6066,0,2.7696-3.0171,2.9371-7.6141,0-10.6066h0Z"/>
  <path d="M51.6667,105.0076c3.9231,0,7.6814-3.4497,7.5-7.5-.182-4.0635-3.2954-7.5-7.5-7.5-3.9231,0-7.6814,3.4497-7.5,7.5,.182,4.0635,3.2954,7.5,7.5,7.5h0Z"/>
  <path d="M52,122.6742c3.9231,0,7.6814-3.4497,7.5-7.5-.182-4.0635-3.2954-7.5-7.5-7.5-3.9231,0-7.6814,3.4497-7.5,7.5,.182,4.0635,3.2954,7.5,7.5,7.5h0Z"/>
  <path d="M53.6667,141.6742c3.9231,0,7.6814-3.4497,7.5-7.5-.182-4.0635-3.2954-7.5-7.5-7.5-3.9231,0-7.6814,3.4497-7.5,7.5,.182,4.0635,3.2954,7.5,7.5,7.5h0Z"/>
  <path d="M54,160.3409c3.9231,0,7.6814-3.4497,7.5-7.5-.182-4.0635-3.2954-7.5-7.5-7.5-3.9231,0-7.6814,3.4497-7.5,7.5,.182,4.0635,3.2954,7.5,7.5,7.5h0Z"/>
  <path d="M72.3333,159.3409c3.9231,0,7.6814-3.4497,7.5-7.5-.182-4.0635-3.2954-7.5-7.5-7.5-3.9231,0-7.6814,3.4497-7.5,7.5,.182,4.0635,3.2954,7.5,7.5,7.5h0Z"/>
  <path d="M73.3333,140.3409c3.9231,0,7.6814-3.4497,7.5-7.5-.182-4.0635-3.2954-7.5-7.5-7.5-3.9231,0-7.6814,3.4497-7.5,7.5,.182,4.0635,3.2954,7.5,7.5,7.5h0Z"/>
  <path d="M71,121.3409c3.9231,0,7.6814-3.4497,7.5-7.5-.182-4.0635-3.2954-7.5-7.5-7.5-3.9231,0-7.6814,3.4497-7.5,7.5,.182,4.0635,3.2954,7.5,7.5,7.5h0Z"/>
  <path d="M71.6667,104.0076c3.9231,0,7.6814-3.4497,7.5-7.5-.182-4.0635-3.2954-7.5-7.5-7.5-3.9231,0-7.6814,3.4497-7.5,7.5,.182,4.0635,3.2954,7.5,7.5,7.5h0Z"/>
  <path d="M92.3333,104.3409c3.9231,0,7.6814-3.4497,7.5-7.5-.182-4.0635-3.2954-7.5-7.5-7.5-3.9231,0-7.6814,3.4497-7.5,7.5,.182,4.0635,3.2954,7.5,7.5,7.5h0Z"/>
  <path d="M93,123.0076c3.9231,0,7.6814-3.4497,7.5-7.5-.182-4.0635-3.2954-7.5-7.5-7.5-3.9231,0-7.6814,3.4497-7.5,7.5,.182,4.0635,3.2954,7.5,7.5,7.5h0Z"/>
  <path d="M94,141.0076c3.9231,0,7.6814-3.4497,7.5-7.5-.182-4.0635-3.2954-7.5-7.5-7.5-3.9231,0-7.6814,3.4497-7.5,7.5,.182,4.0635,3.2954,7.5,7.5,7.5h0Z"/>
  <path d="M94,159.6742c3.9231,0,7.6814-3.4497,7.5-7.5-.182-4.0635-3.2954-7.5-7.5-7.5-3.9231,0-7.6814,3.4497-7.5,7.5,.182,4.0635,3.2954,7.5,7.5,7.5h0Z"/>
  <path d="M118,158.0076h22.6667c3.9231,0,7.6814-3.4497,7.5-7.5-.182-4.0635-3.2954-7.5-7.5-7.5h-22.6667c-3.9231,0-7.6814,3.4497-7.5,7.5,.182,4.0635,3.2954,7.5,7.5,7.5h0Z"/>
  <path d="M117.6667,138.3409c3.9231,0,7.6814-3.4497,7.5-7.5-.182-4.0635-3.2954-7.5-7.5-7.5-3.9231,0-7.6814,3.4497-7.5,7.5,.182,4.0635,3.2954,7.5,7.5,7.5h0Z"/>
  <path d="M137.6667,139.3409c3.9231,0,7.6814-3.4497,7.5-7.5-.182-4.0635-3.2954-7.5-7.5-7.5-3.9231,0-7.6814,3.4497-7.5,7.5,.182,4.0635,3.2954,7.5,7.5,7.5h0Z"/>
  <path d="M113,119.6742c3.9231,0,7.6814-3.4497,7.5-7.5-.182-4.0635-3.2954-7.5-7.5-7.5-3.9231,0-7.6814,3.4497-7.5,7.5,.182,4.0635,3.2954,7.5,7.5,7.5h0Z"/>
  <path d="M134,119.3409c3.9231,0,7.6814-3.4497,7.5-7.5-.182-4.0635-3.2954-7.5-7.5-7.5-3.9231,0-7.6814,3.4497-7.5,7.5,.182,4.0635,3.2954,7.5,7.5,7.5h0Z"/>
  <path d="M113.3333,102.0076c3.9231,0,7.6814-3.4497,7.5-7.5-.182-4.0635-3.2954-7.5-7.5-7.5-3.9231,0-7.6814,3.4497-7.5,7.5,.182,4.0635,3.2954,7.5,7.5,7.5h0Z"/>
  <path d="M132,102.3409c3.9231,0,7.6814-3.4497,7.5-7.5-.182-4.0635-3.2954-7.5-7.5-7.5-3.9231,0-7.6814,3.4497-7.5,7.5,.182,4.0635,3.2954,7.5,7.5,7.5h0Z"/>
</svg>