<?xml version="1.0" encoding="UTF-8"?>
<svg id="a" data-name="图层 1" xmlns="http://www.w3.org/2000/svg" width="180" height="180" viewBox="0 0 180 180">
  <path d="M30.0776,33.1951c32.759-.2103,65.518-.4206,98.2769-.6309,4.6561-.0299,9.3122-.0598,13.9683-.0897,4.2503-.0273,8.6258-.3542,12.8549,.1552l-1.9938-.2679c1.192,.1698,2.3388,.4418,3.4557,.8952l-1.7916-.7561c.5496,.2489,1.0425,.5501,1.5587,.8551,.7884,.4658-1.3411-1.2535-.5339-.39,.1947,.2082,.3987,.4286,.607,.6209,.596,.5502-.9616-1.3912-.5253-.7076,.1554,.2435,.3278,.4758,.477,.724,.3021,.5026,.5582,1.0282,.7964,1.5635l-.7561-1.7916c1.7517,4.201,2.0512,8.9797,2.718,13.4374,.8054,5.384,1.6671,10.7632,2.4008,16.1574l-.2679-1.9938c.4337,3.3088,.6911,6.6299,.2491,9.9523l.2679-1.9938c-.3813,2.4582-1.2665,4.7318-2.0174,7.0895-.8624,2.7077-1.3459,5.6109-1.2249,8.4565,.2284,5.3723,2.0883,10.4136,2.8438,15.6938l-.2679-1.9938c.9337,7.294-.5934,14.5261-1.3051,21.7655-.3436,3.4946-.4602,6.9971-.0661,10.4925,.3436,3.0481,.9005,6.1101,.5151,9.1818l.2679-1.9938c-.1303,.8396-.3291,1.6347-.6348,2.428l.7561-1.7916c-.193,.4445-.429,.8479-.6568,1.2733-.5859,1.0942,1.2612-1.5332,.0088-.0953-.5693,.5061-.3413,.3474,.684-.4761-.1949,.1416-.3952,.2749-.6011,.4-.4153,.2534-.8501,.4633-1.2936,.6617l1.7916-.7561c-1.635,.6703-3.3467,1.0109-5.0921,1.2459l1.9938-.2679c-8.6898,1.0873-17.5088,1.4274-26.2564,1.6701-8.9423,.2481-17.8891,.2664-26.8341,.311-17.98,.0896-35.96,.1792-53.94,.2688-4.9944,.0249-9.9889,.0498-14.9833,.0747-2.5805,.0129-5.1609,.0257-7.7414,.0386-2.4785,.0124-5.0061,.1664-7.4794,.0067l1.9938,.2679c-.2415-.0216-.4735-.0804-.696-.1766l1.7916,.7561c1.7774,2.2963,2.4022,2.8763,1.8745,1.74l.7561,1.7916c-.0678-.2058-.116-.416-.1445-.6308l.2679,1.9938c-.1957-1.6341-.2737-3.3046-.7576-4.8868-.4643-1.518-1.1342-2.9973-1.8476-4.4141-.9848-1.9556-2.195-3.7905-3.0815-5.7964l.7561,1.7916c-.3565-.8525-.6364-1.7141-.7773-2.6288l.2679,1.9938c-.0664-.5925-.0673-1.1627,.0082-1.7549l-.2679,1.9938c.093-.5134,.2358-.989,.4349-1.4705l-.7561,1.7916c.2218-.4567,.5623-.8566,.7796-1.3051-.7167,1.4791-.7621,.9848-.1926,.3357,.9281-1.0578,1.864-2.1246,2.6506-3.2944,1.5848-2.357,2.3116-5.2495,2.3576-8.0676,.074-4.5368-1.8871-8.6869-2.5555-13.0955l.2679,1.9938c-.7847-6.0252,.7164-12.0008,.5694-18.0288-.1596-6.5404-2.0319-12.8633-2.9047-19.3115l.2679,1.9938c-.5443-4.3172-.4898-8.6515,.0822-12.963l-.2679,1.9938c.6422-4.536,1.9402-8.8042,3.4157-13.1251,.8342-2.4427,1.4649-5.1193,1.3564-7.7126-.064-1.5307-.3125-3.0525-.8575-4.4788-.6073-1.5894-1.4682-2.9981-2.1397-4.5463l.7561,1.7916c-.2693-.701-.4576-1.403-.5798-2.1443l.2679,1.9938c-.109-.8733-.1159-1.7185-.0249-2.5937l-.2679,1.9938c.1236-.8714,.3349-1.6903,.651-2.5117l-.7561,1.7916c.2205-.5129,.4648-1.0099,.7644-1.4819,.1507-.2373,.7138-.9912-.0446,.0061-.8027,1.0554-.0503,.1269,.1362-.0562,.0876-.086,.5163-.3737,.5318-.4815-.0242,.1689-1.535,1.0176-.6539,.5325,.5298-.2917,1.0285-.5952,1.5845-.839l-1.7916,.7561c.7905-.313,1.5805-.5304,2.4199-.6657l-1.9938,.2679c.8432-.1044,1.6594-.1152,2.5046-.0275l-1.9938-.2679c.4775,.0686,.9395,.1636,1.4052,.2897,3.7832,1.0241,8.3237-1.2774,9.2259-5.2383,.8996-3.9496-1.1858-8.1289-5.2383-9.2259-7.1423-1.9335-14.5157,.9408-18.733,6.9174-1.868,2.6472-2.793,6.1366-2.824,9.3531-.0163,1.6957,.2111,3.4861,.7538,5.0965,.6033,1.7901,1.5377,3.3744,2.3322,5.0689l-.7561-1.7916c.2752,.679,.4531,1.3425,.5544,2.0667l-.2679-1.9938c.0598,.7112,.0453,1.3986-.0271,2.1077l.2679-1.9938c-.4972,3.551-2.1363,6.8773-3.0599,10.3296-1.1096,4.1474-1.7795,8.4577-2.0371,12.7413-.4952,8.2329,1.7548,16.0408,2.86,24.113l-.2679-1.9938c.7156,5.6017-.1811,11.0243-.4249,16.6155-.1379,3.1627,.1118,6.3618,.8065,9.4539,.5631,2.5066,1.4586,4.9244,1.8372,7.4733l-.2679-1.9938c.1148,.945,.148,1.8609,.0514,2.809l.2679-1.9938c-.1,.6649-.2594,1.2841-.4992,1.9115l.7561-1.7916c-.0501,.1113-.7176,1.4191-.7688,1.3821-.0348-.0252,1.1977-1.4408,.4603-.6117-.1711,.1924-.3385,.3882-.5088,.5814-1.0451,1.1855-2.151,2.403-2.9285,3.785-1.7276,3.0707-2.0562,6.3919-1.4147,9.8057,.7762,4.131,3.5885,7.5129,5.2088,11.3032l-.7561-1.7916c.3709,.9185,.6567,1.8473,.8075,2.8274l-.2679-1.9938c.3354,2.9017,.6423,5.5855,2.7661,7.787,2.4067,2.4947,5.517,2.8162,8.7605,2.8,3.6626-.0183,7.3252-.0365,10.9878-.0548,7.4917-.0373,14.9833-.0747,22.475-.112,14.9833-.0747,29.9667-.1493,44.95-.224,14.9038-.0743,29.8287-.0102,44.7088-.9706,3.6515-.2357,7.3054-.5148,10.9427-.9168,3.8423-.4246,7.7357-.9861,11.1062-3.0427,3.5914-2.1913,6.3611-5.8273,7.2147-9.9868,.7215-3.5157,.5-6.841,.0614-10.3581-.4629-3.7124-.5319-7.3682-.2065-11.0973,.3387-3.8807,.959-7.7298,1.3502-11.6048,.445-4.4071,.414-8.6965-.2266-13.0831-.5755-3.9404-1.8463-7.7373-2.3968-11.6816l.2679,1.9938c-.2028-1.6516-.2561-3.2838-.0665-4.9393l-.2679,1.9938c.441-3.038,1.8004-5.8016,2.5072-8.77,.8325-3.4963,1.024-7.1433,.7198-10.716-.5842-6.8617-1.8879-13.7067-2.9064-20.5159-.8572-5.7301-1.2833-11.6945-4.037-16.9105-1.5462-2.9289-4.1195-5.5885-7.1277-7.011-3.3842-1.6003-6.9422-2.1521-10.6719-2.2046-12.8362-.1807-25.7003,.1523-38.5377,.2348-13.1368,.0843-26.2737,.1687-39.4105,.253-14.6335,.0939-29.2669,.1879-43.9004,.2818-3.9222,.0252-7.6822,3.4316-7.5,7.5,.181,4.0419,3.2959,7.527,7.5,7.5h0Z"/>
  <path d="M21.2227,77.6651c18.5399,.0789,37.0799,.1577,55.6198,.2366,18.5399,.0789,37.0799,.1577,55.6198,.2366,10.4755,.0446,20.9509,.0891,31.4264,.1337,3.9236,.0167,7.6809-3.4616,7.5-7.5-.1826-4.0778-3.2951-7.4821-7.5-7.5-18.5399-.0789-37.0799-.1577-55.6198-.2366-18.5399-.0789-37.0799-.1577-55.6198-.2366-10.4755-.0446-20.9509-.0891-31.4264-.1337-3.9236-.0167-7.6809,3.4616-7.5,7.5,.1826,4.0778,3.2951,7.4821,7.5,7.5h0Z"/>
  <path d="M53.9587,85.2255c-6.6125,5.7034-13.0689,11.5842-19.3632,17.6371-1.7185,1.6526-2.3723,3.9968-2.0627,6.3002,.3379,2.5144,1.6346,3.9804,3.5807,5.4791,7.1045,5.4713,14.2696,10.8634,21.4941,16.1753,1.4727,1.0828,4.0954,1.2197,5.7792,.7561,1.7397-.4791,3.625-1.8242,4.4822-3.4467,.9196-1.7406,1.3806-3.8492,.7561-5.7792-.6364-1.9666-1.7893-3.2636-3.4467-4.4822-7.2245-5.3119-14.3896-10.7039-21.4941-16.1753l1.5179,11.7793c6.2942-6.0528,12.7506-11.9337,19.3632-17.6371,2.9813-2.5714,2.8347-8.0044,0-10.6066-3.1757-2.9152-7.4266-2.7428-10.6066,0h0Z"/>
  <path d="M91.5309,87.0936c-.6669,1.7619-1.2932,3.5208-1.575,5.3909-.2153,1.4285-.422,2.834-.3135,4.277,.0651,.8659,.1762,1.6852,.0749,2.5559l.2679-1.9938c-.086,.3937-.1943,.7411-.3411,1.1163l.7561-1.7916c-.9856,2.1553-2.2523,4.1912-3.2954,6.323-1.3032,2.6632-2.4775,5.3871-3.5998,8.1308-1.785,4.3635-2.9802,8.941-4.7891,13.2886l.7561-1.7916c-.3593,.8324-.7422,1.6516-1.1844,2.4438-.2031,.3638-.4164,.7209-.6426,1.0708-.2929,.4529-1.3618,1.7924,.068,.0023-1.2878,1.6123-2.1967,3.1552-2.1967,5.3033,0,1.8395,.8171,4.0368,2.1967,5.3033,1.4293,1.3121,3.3058,2.2862,5.3033,2.1967,1.8575-.0832,4.0888-.6761,5.3033-2.1967,1.4204-1.7784,2.7136-3.5326,3.6783-5.5957,.9586-2.0502,1.7839-4.1653,2.5033-6.3106,1.195-3.5635,2.3753-7.1104,3.8228-10.5826l-.7561,1.7916c1.3516-3.2019,2.8483-6.3395,4.5069-9.3941,1.0981-2.0224,2.1977-4.0021,2.5087-6.3169,.2648-1.9706-.1094-3.871,.1046-5.836l-.2679,1.9938c.2781-1.8704,.9083-3.6293,1.575-5.3909,.6513-1.7209,.1394-4.2491-.7561-5.7792-.9104-1.5558-2.6943-3.0395-4.4822-3.4467-1.9199-.4373-4.075-.3427-5.7792,.7561-1.7271,1.1135-2.7204,2.5633-3.4467,4.4822h0Z"/>
  <path d="M114.7347,102.6084c7.6817,5.3706,15.3634,10.7412,23.0451,16.1118v-12.9521c-8.4837,3.7797-16.5736,8.3778-24.1617,13.7332-1.6275,1.1486-2.9018,2.5034-3.4467,4.4822-.4944,1.7953-.2712,4.1859,.7561,5.7792,2.0471,3.1752,6.8334,5.11,10.2614,2.6906,7.5882-5.3553,15.678-9.9535,24.1617-13.7332,2.3365-1.041,3.7146-4.0601,3.7146-6.476,0-2.8114-1.4968-4.9254-3.7146-6.476-7.6817-5.3706-15.3634-10.7412-23.0451-16.1118-1.5193-1.0622-4.0526-1.2315-5.7792-.7561-1.7397,.4791-3.625,1.8242-4.4822,3.4467-2.028,3.8383-.7512,7.8551,2.6906,10.2614h0Z"/>
</svg>