<?xml version="1.0" encoding="UTF-8"?>
<svg id="a" data-name="图层 1" xmlns="http://www.w3.org/2000/svg" width="180" height="180" viewBox="0 0 180 180">
  <path d="M159.0827,133.5994c-.2102-6.8254-.4198-13.6541-.315-20.4835,.0517-3.3683,.1797-6.7361,.4226-10.0962s.7395-6.689,1.0067-10.0434c.3261-4.0943-.2537-8.0409-1.9178-11.789-1.7736-3.9947-5.1028-6.8182-9.1372-8.3595-3.0991-1.184-6.5499-1.2377-9.8311-1.3019-3.4444-.0674-6.8891-.1204-10.3339-.1589-27.2118-.3038-54.4164,.4119-81.6132,1.2397-3.7851,.1152-7.5966,.1161-11.3723,.4203-4.7622,.3837-9.4098,1.2305-13.0709,4.5492-3.278,2.9715-4.7856,7.7946-4.4405,12.1391,.3201,4.0287,1.8913,7.6642,2.495,11.6174l-.2679-1.9938c.2425,1.9776,.0987,3.9313-.1565,5.8998l.2679-1.9938c-.4635,3.3856-1.1588,6.7891-.9694,10.2207,.1634,2.9603,.6442,5.8262,.2472,8.7929l.2679-1.9938c-.5456,3.5875-1.3923,7.0931-1.5962,10.7343-.1801,3.2158-.0418,6.4493,.0119,9.6672,.0544,3.2558,.1088,6.5115,.1631,9.7673,.0739,4.4259,.2465,8.9076,3.7123,12.1662,2.7428,2.5789,6.5737,3.8036,10.1812,4.6006,3.406,.7524,6.9191,1.1399,10.3988,1.3478,6.3717,.3807,12.7794,.3578,19.16,.4924,13.3188,.281,26.6376,.5619,39.9563,.8429,6.6594,.1405,13.3188,.281,19.9782,.4214,3.2465,.0685,6.4929,.137,9.7394,.2055,3.1696,.0669,6.3735,.2697,9.5411,.0867,3.9943-.2307,8.2174-1.0552,11.5197-3.4611,1.9365-1.4109,3.5845-2.9406,4.8415-5.0162,1.3424-2.2166,1.8765-4.6532,2.0856-7.2023,.282-3.4385-.1443-7.01-.2828-10.4525-.1513-3.7574-.3025-7.5148-.4538-11.2721-.1576-3.9151-3.3368-7.6865-7.5-7.5-3.9284,.176-7.669,3.301-7.5,7.5,.1513,3.7574,.3025,7.5148,.4538,11.2721,.1439,3.5753,.6298,7.3259,.2343,10.8898l.2679-1.9938c-.1091,.7061-.2716,1.3725-.5308,2.038l.7561-1.7916c-.0918,.2038-.7103,1.0717-.6725,1.2374-.0327-.1432,1.2514-1.3914,.5225-.6858-.2122,.2054-.4058,.4278-.6247,.6276-1.1138,1.0167,1.3789-.9001,.0906-.0967-.461,.2875-.9418,.5306-1.4358,.7557l1.7916-.7561c-1.2833,.5375-2.6106,.8473-3.9871,1.036l1.9938-.2679c-3.2648,.3732-6.5854,.148-9.8623,.0789-3.4962-.0738-6.9924-.1475-10.4885-.2213-6.8259-.144-13.6517-.288-20.4776-.432-13.8182-.2915-27.6365-.583-41.4547-.8745-7.4614-.1574-15.0516,.0536-22.4647-.9097l1.9938,.2679c-2.9201-.4061-5.8687-1.0085-8.5968-2.1556l1.7916,.7561c-.2258-.1038-.452-.2066-.671-.3243-.2847-.153-1.2059-.8222-.16-.0146,1.2432,.96-.3761-.6665,.5744,.5949,.7922,1.0514,.127,.0633-.0012-.2143l.7561,1.7916c-.1404-.4113-.2328-.7908-.3051-1.2194l.2679,1.9938c-.2373-2.1702-.1432-4.4019-.1797-6.5836-.0367-2.1976-.0734-4.3953-.1101-6.5929-.0737-4.4138-.3237-8.8747,.2434-13.2658l-.2679,1.9938c.5594-3.8435,1.6767-7.6261,1.5031-11.5458-.1527-3.4492-.6148-6.7041-.1712-10.1608l-.2679,1.9938c.5524-4.0638,1.2917-7.9763,.7414-12.0719-.4609-3.4302-1.8436-6.6306-2.3048-10.0495l.2679,1.9938c-.11-1.0205-.1228-2.0226-.004-3.0428l-.2679,1.9938c.116-.7438,.298-1.4441,.5793-2.1435l-.7561,1.7916c.1484-.3193,.3869-.6457,.5174-.9675-.7908,.959-.9938,1.2214-.609,.7869,.1218-.1416,.2522-.2751,.391-.4004,.0737,.1478-1.8005,1.1573-.3239,.303,.323-.1868,.6615-.3402,1.0034-.4886l-1.7916,.7561c1.2203-.4735,2.477-.7291,3.7696-.9122l-1.9938,.2679c3.5812-.4502,7.2159-.4375,10.8191-.5478,3.6577-.1119,7.3154-.2228,10.9732-.3303,7.1493-.2101,14.299-.4073,21.4495-.5733,14.4367-.3352,28.8772-.541,43.3181-.4774,3.9372,.0173,7.8742,.0536,11.8111,.1086,3.8384,.0536,7.7678-.0977,11.5845,.3559l-1.9938-.2679c1.0833,.1537,2.1219,.3932,3.1419,.7935l-1.7916-.7561c.408,.1813,1.0087,.6867,1.4245,.7612-.9942-.8084-1.201-.9641-.6203-.4669,.1865,.1705,.3647,.3492,.5346,.5362,.4968,.5817,.3419,.3723-.4645-.6284,.1454,.2086,.2824,.4226,.411,.6421,.2607,.4434,.4765,.9058,.6791,1.3779l-.7561-1.7916c.4259,1.0906,.7045,2.2039,.8634,3.363l-.2679-1.9938c.4067,3.7612-.3235,7.5102-.686,11.2458-.365,3.7618-.5693,7.5377-.6675,11.3155-.1968,7.5679,.0366,15.1382,.2696,22.7025,.1206,3.9175,3.3633,7.6853,7.5,7.5,3.9601-.1774,7.6294-3.2992,7.5-7.5h0Z"/>
  <path d="M63.8626,77.4228c-.9109-3.1311-2.1221-6.3168-2.6867-9.5294l.2679,1.9938c-.0462-.4414-.0527-.8234-.0128-1.2655l-.2679,1.9938c.0757-.3754,.1738-.7028,.3108-1.0603l-.7561,1.7916c.7742-1.7139,1.8723-3.3199,2.2661-5.1865,.5951-2.8214-.0613-5.4398-.4599-8.2251l.2679,1.9938c-.6427-5.0269-.275-10.1362-.1242-15.1841,.1492-4.9933,.0057-10.1019,.6024-15.0652l-.2679,1.9938c.2276-1.6206,.632-3.1553,1.2625-4.666l-.7561,1.7916c.5831-1.3111,1.2827-2.5566,2.0873-3.7449,.1613-.2382,.3264-.4739,.4942-.7075,.1031-.1435,.9893-1.3128,.1908-.2762-.7704,1.0001,.0397-.0335,.2191-.2511,.2193-.266,.4417-.5293,.6675-.7898,.8661-.9989,1.8032-1.8934,2.7687-2.7926,.9315-.8676-1.1314,.7779-.3868,.2825,.2849-.1896,.558-.3926,.8486-.5747,.5813-.3644,1.188-.6762,1.8128-.9585l-1.7916,.7561c1.524-.6273,3.097-.977,4.7265-1.1971l-1.9938,.2679c4.6331-.5539,9.349-.6546,14.0074-.8859,4.5859-.2277,9.2542-.6526,13.828-.0735l-1.9938-.2679c1.7242,.2504,3.3929,.6596,5.0087,1.3161l-1.7916-.7561c1.0241,.4415,2.0101,.9548,2.9422,1.5688,.2067,.1362,.4078,.2802,.6118,.4203,1.0094,.6932-1.1554-.9704-.4899-.3786,.4171,.3708,.8409,.7276,1.2378,1.1214,.3513,.3485,.689,.7113,1.0114,1.0868,.1497,.1744,.9556,1.1914,.1101,.1094-.7731-.9894-.2001-.2392-.0424-.0078,.6639,.9741,1.217,2.0082,1.6859,3.089l-.7561-1.7916c.6507,1.5868,1.1696,3.2948,2.0973,4.7466,.5733,.8971,1.3205,1.6736,1.9353,2.5399-.3161-.4454-.9147-1.325-.2954-.3305,.1772,.2845,.3248,.5771,.4694,.8798l-.7561-1.7916c.3635,.876,.5804,1.7529,.7158,2.6904l-.2679-1.9938c.3542,3.1297-.0262,6.3537-.176,9.4875-.167,3.4941-.3341,6.9881-.5011,10.4822-.1562,3.2676-.3671,6.5491-.1477,9.8188,.1445,2.1531,.4095,4.3312,.8935,6.4359,.3757,1.6334,.9782,3.2026,1.2595,4.8586l-.2679-1.9938c.0727,.5964,.095,1.1657,.0545,1.7653l.2679-1.9938c-.2402,1.6483-.8307,3.1979-1.0539,4.8589-.4262,3.1716,.4091,6.2506,2.7407,8.5479,2.7978,2.7568,7.8527,3,10.6066,0,2.7317-2.9758,2.986-7.6644,0-10.6066,.7643,1.1615,.9738,1.4232,.6284,.7849l.7561,1.7916c-.0755-.1832-.1254-.3731-.1497-.5698l.2679,1.9938c-.0245-.3272-.0162-.6182,.0161-.945l-.2679,1.9938c.1518-.9394,.4658-1.8301,.7017-2.7491,.5086-1.9818,.5668-3.8661,.2977-5.869-.374-2.7833-1.4138-5.3961-1.8103-8.1799l.2679,1.9938c-.436-3.4699-.2982-6.9557-.1327-10.439,.1779-3.7437,.3579-7.4873,.5369-11.2309,.1583-3.3109,.5738-6.7268,.2346-10.0347-.2663-2.5968-.7604-4.8934-2.0296-7.2111-.6096-1.1132-1.5272-2.0184-2.2524-3.0513,1.3877,1.9766-.074-.3765-.3224-.9489l.7561,1.7916c-1.6325-3.9946-3.3614-7.5257-6.4751-10.6149-2.9495-2.9262-6.5746-5.0754-10.5215-6.3479-4.1666-1.3433-8.7264-1.4448-13.0656-1.286-4.1146,.1506-8.2279,.374-12.3385,.6073-4.3228,.2453-8.9047,.2336-13.0889,1.4392-4.3529,1.2543-8.1258,3.9273-11.1327,7.2722-3.0941,3.4418-5.652,7.1404-7.336,11.4583-1.577,4.0433-1.5848,8.5047-1.7128,12.7856-.1361,4.5544-.276,9.1088-.4083,13.6633-.0651,2.241-.122,4.4852-.0166,6.726,.1294,2.7511,.6332,5.4429,1.0283,8.1613l-.2679-1.9938c.0428,.492,.045,.9184-.0068,1.4096l.2679-1.9938c-.0822,.3737-.1859,.702-.3269,1.0577l.7561-1.7916c-.6909,1.4958-1.5705,2.8854-2.0713,4.4736-.714,2.2642-.532,4.7487,.0595,7.0143,.743,2.8457,1.6398,5.6596,2.4614,8.4837,1.095,3.7641,5.3328,6.4982,9.2259,5.2383,3.8216-1.2367,6.4122-5.1906,5.2383-9.2259h0Z"/>
</svg>