<?xml version="1.0" encoding="UTF-8"?>
<svg id="a" data-name="图层 1" xmlns="http://www.w3.org/2000/svg" width="180" height="180" viewBox="0 0 180 180">
  <path d="M88.3333,102.5631c3.4615,0,7.0978-1.5059,9.5459-3.9541,2.3415-2.3415,4.1047-6.1831,3.9541-9.5459-.1564-3.4914-1.3033-7.1126-3.9541-9.5459-2.6413-2.4247-5.8881-3.9541-9.5459-3.9541-3.4615,0-7.0978,1.5059-9.5459,3.9541-2.3415,2.3415-4.1047,6.1831-3.9541,9.5459,.1564,3.4914,1.3033,7.1126,3.9541,9.5459,2.6413,2.4247,5.8881,3.9541,9.5459,3.9541h0Z"/>
  <path d="M49.3732,35.1911c-7.7158,2.134-9.762,9.9754-11.9966,16.6552-1.0247,3.0631-2.0493,6.1263-3.074,9.1894-.4911,1.468-1.1006,2.9467-1.4593,4.4532-.3532,1.4837-.4437,2.8638-.2433,4.3557,.1407,1.0469,.3874,2.0439,.5587,3.081l-.2679-1.9938c.0365,.2835,.0366,.5669,.0004,.8505l.2679-1.9938c-.3508,1.9267-1.3619,3.6933-1.7653,5.6333-.5249,2.5242-.7822,5.1165-1.1212,7.6685-.5812,4.3746-1.1235,8.7603-1.3505,13.1699-.4664,9.0591,.8569,18.0613,3.2596,26.7867,1.281,4.6522,2.8184,9.228,4.3575,13.7997,1.2492,3.7107,5.2213,6.5342,9.2259,5.2383,3.6896-1.194,6.5786-5.2447,5.2383-9.2259-2.8188-8.373-5.6238-16.7999-6.8592-25.5793l.2679,1.9938c-1.2382-9.2507-.1775-18.4515,1.0556-27.6413l-.2679,1.9938c.3164-2.354,.6027-4.7446,1.4296-6.986,.6149-1.6666,1.1991-3.0005,1.2619-4.8576,.0573-1.6951-.4288-3.2805-.693-4.9284l.2679,1.9938c-.0328-.2678-.0328-.5355,.0002-.803l-.2679,1.9938c.3001-1.7861,1.0739-3.5369,1.6472-5.2508,.6043-1.8065,1.2086-3.6129,1.8129-5.4194,1.1376-3.4008,2.1283-6.8994,3.49-10.2182l-.7561,1.7916c.3756-.87,.8998-1.6242,1.3257-2.4575-.8503,1.0553-1.0296,1.3022-.5376,.7406,.1496-.1594,.3073-.3103,.4732-.4527-1.1131,.8098-1.3551,1.0138-.726,.6119,.189-.1082,.3847-.2026,.587-.2833l-1.7916,.7561c.2077-.0827,.4202-.1498,.6377-.2014,3.7798-1.0454,6.4866-5.3684,5.2383-9.2259-1.2503-3.8637-5.1745-6.3588-9.2259-5.2383h0Z"/>
  <path d="M27.1395,19.1036c-3.8348,8.6991-7.7206,17.3778-11.5009,26.1007-1.9768,4.5613-3.9993,9.2023-4.919,14.1161-.4825,2.5781-.8447,5.2474-.7412,7.8784,.1118,2.8429,.8014,5.5659,1.2398,8.358l-.2679-1.9938c.1174,.9145,.1554,1.7961,.0518,2.7145l.2679-1.9938c-.1087,.5995-.2701,1.155-.4861,1.7244l.7561-1.7916c-1.2612,2.9475-2.8118,5.7378-3.6606,8.8545-.815,2.9924-1.2147,6.1438-1.3807,9.236-.3182,5.9246,.5228,11.882,1.4189,17.7227,1.7144,11.1734,4.6271,22.2367,8.82,32.7408,2.4794,6.2113,5.4354,12.2504,10.3649,16.9197,2.8499,2.6995,7.8158,3.0402,10.6066,0,2.687-2.9271,3.0426-7.7246,0-10.6066-.8529-.8079-1.6118-1.678-2.38-2.5645-.6025-.6953,.9379,1.3023,.4202,.5414-.1541-.2264-.3222-.4442-.4785-.6692-.3528-.5079-.6904-1.0262-1.0138-1.5533-1.233-2.0097-2.2526-4.1382-3.1778-6.3043l.7561,1.7916c-4.9538-11.79-8.1312-24.4146-9.8548-37.0692l.2679,1.9938c-.7138-5.3641-1.1548-10.7911-.4457-16.1804l-.2679,1.9938c.3697-2.5675,1.0044-5.0606,2.0011-7.4583l-.7561,1.7916c1.389-3.1863,3.0668-5.9915,3.2731-9.5693,.1716-2.9761-.8008-5.8798-1.1952-8.8023l.2679,1.9938c-.24-2.1265-.1819-4.233,.1024-6.3524l-.2679,1.9938c.6465-4.3073,2.15-8.3926,3.8346-12.3896l-.7561,1.7916c3.9045-9.1759,8.0305-18.263,12.053-27.3878,.842-1.9101,1.3335-3.6821,.7561-5.7792-.4791-1.7397-1.8242-3.625-3.4467-4.4822-1.7406-.9196-3.8492-1.3806-5.7792-.7561-1.736,.5618-3.7128,1.7014-4.4822,3.4467h0Z"/>
  <path d="M105.3135,71.1739c2.7743,3.7773,5.5273,7.6061,7.4102,11.922l-.7561-1.7916c.8724,2.0779,1.5071,4.2133,1.8171,6.4482l-.2679-1.9938c.2556,2.1842,.1936,4.3488-.0878,6.5275l.2679-1.9938c-.6784,4.708-2.1094,9.5131-3.9114,13.9143l.7561-1.7916c-.3001,.6918-.6443,1.3452-1.0318,1.9913-.6451,1.0757,1.2763-1.2278,.2676-.363-.2808,.2408-.5351,.504-.8272,.7354-1.4045,1.1132-2.1967,3.6006-2.1967,5.3033,0,1.8395,.8171,4.0368,2.1967,5.3033,1.4293,1.3121,3.3058,2.2862,5.3033,2.1967,2.1136-.0947,3.6577-.8924,5.3033-2.1967,3.7336-2.9593,5.1006-8.0381,6.4768-12.3804,1.4959-4.72,2.7115-9.6947,2.6571-14.6769-.1032-9.4519-5.0166-17.3612-10.4251-24.725-1.1935-1.6249-2.4673-2.8918-4.4822-3.4467-1.7953-.4944-4.1859-.2712-5.7792,.7561-3.1225,2.0131-5.1744,6.8797-2.6906,10.2614h0Z"/>
  <path d="M114.5629,46.6971c.7375,.9408,1.4727,1.8835,2.2083,2.8257,.4834,.6235,.3673,.4724-.3484-.4532,.1828,.237,.3652,.4743,.5473,.7118,.3641,.4752,.7267,.9515,1.0872,1.4294,1.4402,1.9095,2.8488,3.8436,4.1916,5.823,2.6829,3.9549,5.0816,8.094,6.9561,12.4954l-.7561-1.7916c3.1906,7.6595,4.8516,15.9022,6.0025,24.0911l-.2679-1.9938c.1985,1.5438,.2915,3.0642,.0943,4.6133l.2679-1.9938c-.3199,2.0297-.8945,4.1032-.8107,6.1661,.0846,2.0832,.7095,3.9831,1.0423,6.0088l-.2679-1.9938c.0461,.431,.0601,.8223,.038,1.2553l.2679-1.9938c-.0795,.5241-.2161,.9854-.4176,1.4751l.7561-1.7916c-.6804,1.4771-1.542,2.9463-1.8568,4.5522-.4889,2.4945-.0488,4.6957,.3527,7.1689l-.2679-1.9938c.0982,.8764,.0837,1.7194-.0291,2.5944l.2679-1.9938c-.1751,1.0198-.4616,1.9783-.8415,2.94l.7561-1.7916c-1.3101,3.0679-3.4467,5.6196-5.1329,8.4712-2.6962,4.5594-3.996,9.655-1.1084,14.4905l-.7561-1.7916,.121,.3021-.2679-1.9938,.0194,.3183,.2679-1.9938-.1131,.3074,1.9288-3.3095c-.6124,.7764-1.4982,1.3618-2.2574,1.9902-1.2036,.9962,1.2053-.8823,.0407-.0253-.5023,.3696-1.0012,.743-1.5102,1.1037-1.8664,1.3225-3.9226,2.529-5.4526,4.2511-1.2955,1.4582-2.2714,3.074-3.2376,4.7491-.1856,.3218-.3725,.643-.5738,.9552-.0828,.1319-.1686,.2619-.2573,.3899-.4349,.6054-.2276,.3402,.6219-.7956-.1823,.1564-.4613,.4386-.6148,.6238,1.1657-.8437,1.4386-1.069,.8187-.6759-.1682,.0954-.3425,.1776-.5231,.2466l1.7916-.7561c-.1875,.0714-.3794,.1277-.5758,.169-3.8055,.9589-6.4667,5.43-5.2383,9.2259,1.2739,3.9365,5.148,6.2659,9.2259,5.2383,3.387-.8535,5.8643-3.2345,7.7032-6.0952,.4933-.7673,.913-1.5786,1.378-2.3627,.2431-.4099,.5543-.7935,.7797-1.2099,.3282-.6064-1.1989,1.2986-.5546,.754,.2503-.2116,.4883-.4824,.7272-.707,.7858-.7388-.5244,.3237-.5574,.4181,.0506-.1445,.5384-.38,.6688-.4704,.5441-.3771,1.0926-.7474,1.6314-1.1321,1.4709-1.0504,2.9039-2.159,4.315-3.2879,1.851-1.4808,3.4124-2.9107,4.1862-5.2997,.4798-1.4813,.4421-3.1035,.0937-4.6133-.2554-1.1067-.9193-2.025-1.3992-3.024l.7561,1.7916c-.0927-.2402-.1523-.4883-.179-.7444l.2679,1.9938c-.0267-.2598-.0269-.5195-.0006-.7794l-.2679,1.9938c.0932-.6766,.2751-1.2974,.5224-1.932l-.7561,1.7916c1.4267-3.3245,3.8488-6.0399,5.5581-9.2028,1.0634-1.9677,2.0139-4.1099,2.4235-6.3197,.2428-1.3099,.4778-2.7896,.3954-4.1503-.0913-1.508-.4067-2.979-.6532-4.4634l.2679,1.9938c-.0532-.4744-.0665-.8874-.0291-1.3633l-.2679,1.9938c.0735-.3764,.17-.706,.3039-1.0653l-.7561,1.7916c1.0427-2.4014,2.1886-4.4676,2.249-7.165,.0495-2.2099-.6865-4.2635-1.0369-6.4083l.2679,1.9938c-.0792-.7419-.054-1.4481,.0347-2.1869l-.2679,1.9938c.386-2.5314,.9846-5.0399,.8004-7.617-.1849-2.5869-.6565-5.1735-1.0881-7.7308-.6904-4.0917-1.5134-8.1665-2.6439-12.1613-2.3652-8.3575-6.2346-16.0958-11.1845-23.2093-2.9274-4.2069-6.1097-8.2331-9.2703-12.2653-1.102-1.4059-3.6106-2.1967-5.3033-2.1967-1.8395,0-4.0368,.8171-5.3033,2.1967-1.3121,1.4293-2.2862,3.3058-2.1967,5.3033,.0949,2.1189,.8997,3.6486,2.1967,5.3033h0Z"/>
  <path d="M130.9781,20.3969c7.3595,11.1414,14.4423,22.542,19.6788,34.8606l-.7561-1.7916c3.5999,8.5523,6.1246,17.4175,7.3651,26.6193l-.2679-1.9938c.8276,6.3364,1.1623,12.7191,1.3459,19.1031,.1823,6.3391,.6054,12.8101-.2185,19.1176l.2679-1.9938c-.5398,3.765-1.6637,7.3693-3.135,10.8695l.7561-1.7916c-1.4903,3.4731-3.2691,6.8053-5.1028,10.1067-1.8724,3.3711-3.7249,6.7685-5.8698,9.9768-.5168,.773-1.0566,1.5287-1.605,2.2795-.931,1.2745,.9839-1.1893,.0753-.1019-.2833,.339-.5589,.6842-.8449,1.0209-1.2395,1.459-2.5598,2.8482-3.9329,4.1818-2.6493,2.5732-5.4949,4.932-8.387,7.2253-1.4044,1.1137-2.1967,3.6002-2.1967,5.3033,0,1.8395,.8171,4.0368,2.1967,5.3033,1.4293,1.3121,3.3058,2.2862,5.3033,2.1967,2.1133-.0947,3.6581-.8921,5.3033-2.1967,4.1008-3.2519,8.1178-6.648,11.5959-10.5738,3.9043-4.4066,6.9957-9.3326,9.8645-14.4493,2.8766-5.1306,5.6451-10.2686,7.8225-15.7439,2.2072-5.5505,3.1789-11.4336,3.3109-17.3949,.125-5.648-.1043-11.3327-.326-16.9764-.2425-6.1708-.7586-12.2992-1.6229-18.415-1.5753-11.1473-5.2215-21.7297-9.9726-31.9053-4.97-10.6444-11.2315-20.6205-17.696-30.407-2.1593-3.2689-6.728-4.9687-10.2614-2.6906-3.2612,2.1025-5.0034,6.7601-2.6906,10.2614h0Z"/>
  <path d="M62.3591,55.6085c-4.3007,2.3732-6.7782,6.4628-8.5047,10.899-1.2574,3.2308-1.7283,6.7046-3.0791,9.9059l.7561-1.7916c-.5823,1.296-1.3925,2.3581-2.1269,3.559-1.6759,2.7405-1.8097,5.7258-1.2176,8.8038,.5869,3.0509,1.5382,6.0599,1.9531,9.1406l-.2679-1.9938c.0356,.4312,.043,.8282,.0163,1.26l.2679-1.9938c-.0666,.4262-.1597,.7834-.3124,1.1864l.7561-1.7916c-.758,1.727-1.5587,3.3132-1.567,5.2528-.0079,1.8583,.4084,3.5789,1.3277,5.2106,.89,1.5799,2.0092,3.0627,3.0133,4.5721,2.0886,3.1395,4.1678,6.5047,7.1434,8.8849,1.6107,1.2883,3.1566,2.1967,5.3033,2.1967,1.8395,0,4.0368-.8171,5.3033-2.1967,1.3121-1.4293,2.2862-3.3058,2.1967-5.3033-.0832-1.8584-.6766-4.0874-2.1967-5.3033-.917-.7335-1.7418-1.5533-2.4941-2.4553-.1656-.1985-.7989-1.0051-.0576-.0522s.1181,.136-.033-.0744c-.3639-.5069-.7152-1.0226-1.0632-1.5405-1.4417-2.1458-3.2035-4.303-4.3237-6.632l.7561,1.7916c-.097-.2261-.1526-.4619-.1669-.7075l.2679,1.9938,.0235-.3845-.2679,1.9938c.0463-.2554,.1213-.5021,.225-.7401l-.7561,1.7916c.9008-2.0691,1.6805-3.8029,1.6802-6.1161-.0003-1.6697-.3601-3.355-.7189-4.9832-.5473-2.4834-1.1886-4.9642-1.6273-7.469l.2679,1.9938c-.0495-.315-.0647-.6316-.0454-.9498l-.2679,1.9938c.0209-.299,.0876-.5871,.2-.8645l-.7561,1.7916c.5913-1.2561,1.5488-2.297,2.17-3.5473,.8357-1.682,1.539-3.4706,2.0822-5.2712,.7755-2.5708,1.2926-5.2096,2.3128-7.7026l-.7561,1.7916c.225-.5218,.4618-1.0367,.7312-1.5371,.148-.2749,.3027-.5462,.4683-.8109,.1658-.265,.8631-1.1961,.047-.1535-.7757,.9909-.1938,.2563-.0063,.0481,.2039-.2264,.4337-.4267,.6395-.6498,.6951-.7535-.5013,.5308-.6684,.484,.046,.0129,.8757-.5406,.9431-.5778,3.4383-1.8973,4.8481-6.915,2.6906-10.2614-2.2457-3.4833-6.5833-4.7203-10.2614-2.6906h0Z"/>
</svg>