<svg xmlns="http://www.w3.org/2000/svg" viewBox="0 0 87.32 275.06"><defs><style>.a{fill:#1d1e60;}</style></defs><path class="a" d="M115,48.64V70.55H102.31V12.45h26.23a25.26,25.26,0,0,1,9,1.45,19.19,19.19,0,0,1,6.37,3.82,15.82,15.82,0,0,1,3.83,5.39A15.65,15.65,0,0,1,149,29.3v2A16.54,16.54,0,0,1,143.9,43.2a18.92,18.92,0,0,1-6.37,3.94,24.57,24.57,0,0,1-9,1.5Zm0-10.46h12.34a10.24,10.24,0,0,0,6.65-2A6.35,6.35,0,0,0,136.39,31V30a6.33,6.33,0,0,0-2.45-5.14,10.18,10.18,0,0,0-6.65-2H115Z" transform="translate(-98.87 -12.45)"/><path class="a" d="M136.19,138.11a7.66,7.66,0,0,0-3.11-6.06q-3.11-2.56-8.75-2.57a14.42,14.42,0,0,0-7.56,1.7,5.17,5.17,0,0,0-2.78,4.61,5.4,5.4,0,0,0,.67,2.69,5.9,5.9,0,0,0,2.34,2.16,19.37,19.37,0,0,0,4.41,1.7,64.7,64.7,0,0,0,6.94,1.41q10.52,1.67,16.07,5.56T150,160.85v1a15.52,15.52,0,0,1-6.51,13,23.28,23.28,0,0,1-7.66,3.56A42.18,42.18,0,0,1,114,178a24.16,24.16,0,0,1-8.38-4.48,19,19,0,0,1-5.07-6.72,20.43,20.43,0,0,1-1.72-8.43v-2.49H111.5v2a10.66,10.66,0,0,0,3.49,8.35q3.49,3.1,10.87,3.11c3.83,0,6.66-.72,8.52-2.16a6.36,6.36,0,0,0,2.77-5.15,6.53,6.53,0,0,0-.57-2.69,6,6,0,0,0-2-2.33,15,15,0,0,0-3.93-1.87,39.48,39.48,0,0,0-6.31-1.41,69.45,69.45,0,0,1-9.29-2,27.29,27.29,0,0,1-7.32-3.19,13.57,13.57,0,0,1-6.55-12.29v-.49a13.38,13.38,0,0,1,1.67-6.6,16.49,16.49,0,0,1,4.69-5.27,22.65,22.65,0,0,1,7.27-3.49,34,34,0,0,1,9.53-1.24,34.83,34.83,0,0,1,10.52,1.45,23.61,23.61,0,0,1,7.71,3.94,16.72,16.72,0,0,1,4.69,5.73,15.38,15.38,0,0,1,1.58,6.8v3H136.19Z" transform="translate(-98.87 -12.45)"/><path class="a" d="M136.19,246a7.66,7.66,0,0,0-3.11-6.06q-3.11-2.56-8.75-2.57a14.42,14.42,0,0,0-7.56,1.7,5.17,5.17,0,0,0-2.78,4.61,5.4,5.4,0,0,0,.67,2.69,5.9,5.9,0,0,0,2.34,2.16,18.91,18.91,0,0,0,4.41,1.7,64.7,64.7,0,0,0,6.94,1.41q10.52,1.66,16.07,5.57T150,268.75v1a15.52,15.52,0,0,1-6.51,12.95,23.29,23.29,0,0,1-7.66,3.57,42.33,42.33,0,0,1-21.77-.38,24.16,24.16,0,0,1-8.38-4.48,19,19,0,0,1-5.07-6.72,20.43,20.43,0,0,1-1.72-8.43v-2.49H111.5v2a10.66,10.66,0,0,0,3.49,8.35q3.49,3.11,10.87,3.11c3.83,0,6.66-.72,8.52-2.16a6.36,6.36,0,0,0,2.77-5.15,6.53,6.53,0,0,0-.57-2.69,6.05,6.05,0,0,0-2-2.33,15,15,0,0,0-3.93-1.87,39.48,39.48,0,0,0-6.31-1.41,69.45,69.45,0,0,1-9.29-1.95,27.29,27.29,0,0,1-7.32-3.19,13.57,13.57,0,0,1-6.55-12.29v-.49a13.38,13.38,0,0,1,1.67-6.6,16.49,16.49,0,0,1,4.69-5.27,22.65,22.65,0,0,1,7.27-3.49,34,34,0,0,1,9.53-1.24,34.83,34.83,0,0,1,10.52,1.45,23.61,23.61,0,0,1,7.71,3.94,16.72,16.72,0,0,1,4.69,5.73,15.38,15.38,0,0,1,1.58,6.8v3H136.19Z" transform="translate(-98.87 -12.45)"/><path class="a" d="M136.81,80q0-11.3,6.55-17.52t18.14-6.22q11.58,0,18.13,6.22T186.19,80V93q0,11.63-6.56,17.68t-18.13,6.06q-11.58,0-18.14-6.06T136.81,93Zm24.69,26.72a15.17,15.17,0,0,0,5.74-1,9.42,9.42,0,0,0,3.73-2.7,10,10,0,0,0,2-4.15,22.44,22.44,0,0,0,.58-5.31V79.34a19.35,19.35,0,0,0-.67-5.14,11.09,11.09,0,0,0-2.11-4.15,10.07,10.07,0,0,0-3.73-2.78,15.33,15.33,0,0,0-11.1,0,10.11,10.11,0,0,0-3.74,2.78,11.07,11.07,0,0,0-2.1,4.15,19,19,0,0,0-.67,5.14V93.62a23,23,0,0,0,.57,5.31,10.25,10.25,0,0,0,2,4.15,9.45,9.45,0,0,0,3.74,2.7A15.13,15.13,0,0,0,161.5,106.73Z" transform="translate(-98.87 -12.45)"/><path class="a" d="M137.38,190.23h48.24v10.46H167.81v47.64H155.18V200.69h-17.8Z" transform="translate(-98.87 -12.45)"/></svg>