<?xml version="1.0" encoding="utf-8"?>
<!-- Generator: Adobe Illustrator 24.2.0, SVG Export Plug-In . SVG Version: 6.00 Build 0)  -->
<svg version="1.1" id="图层_1" xmlns="http://www.w3.org/2000/svg" xmlns:xlink="http://www.w3.org/1999/xlink" x="0px" y="0px"
	 viewBox="0 0 96 96" style="enable-background:new 0 0 96 96;" xml:space="preserve">
<style type="text/css">
	.st0{opacity:0.2;enable-background:new    ;}
	.st1{fill:#513F22;}
</style>
<path class="st0" d="M68.3,5.6c1,0.4,1.5,1.6,1.1,2.7l-2,5c-0.4,1-1.5,1.5-2.5,1.1l0,0c-1-0.4-1.5-1.6-1.1-2.6l2-5
	C66.1,5.7,67.2,5.2,68.3,5.6C68.2,5.6,68.2,5.6,68.3,5.6L68.3,5.6z M22.3,10.4c-0.5-1-0.1-2.2,0.9-2.7s2.1-0.1,2.6,0.9l2.4,5
	c0.5,1,0.1,2.2-0.9,2.7s-2.1,0.1-2.6-0.9L22.3,10.4L22.3,10.4z M10.2,10.9c-0.9,0.7-1,2-0.3,2.8l6.7,8.5c0.7,0.9,1.9,1,2.7,0.4
	c0,0,0,0,0.1,0c0.8-0.7,1-2,0.3-2.8L13,11.3C12.4,10.4,11.2,10.2,10.2,10.9C10.3,10.9,10.3,10.9,10.2,10.9z M4.8,25.5
	c-0.5,1-0.2,2.2,0.7,2.8l5,3c0.9,0.6,2.2,0.3,2.7-0.7c0.6-1,0.2-2.2-0.7-2.8l-5-3C6.6,24.2,5.4,24.5,4.8,25.5
	C4.8,25.4,4.8,25.5,4.8,25.5L4.8,25.5z M87.1,23.3c0.7,0.9,0.5,2.1-0.3,2.8l-5,4c-0.9,0.7-2.1,0.5-2.8-0.3c-0.7-0.9-0.5-2.1,0.3-2.8
	l5-4C85.2,22.2,86.4,22.4,87.1,23.3z M82,13.8c0.7-0.8,0.7-2.1-0.2-2.9c-0.8-0.7-2-0.7-2.8,0.2l0,0l-7,8c-0.7,0.8-0.7,2.1,0.1,2.9
	c0.8,0.7,2.1,0.6,2.8-0.2L82,13.8L82,13.8z M14.4,70.3c1-0.5,1.4-1.7,0.9-2.7s-1.7-1.4-2.7-0.9l0,0l-6,3c-1,0.5-1.4,1.7-0.9,2.7
	s1.7,1.4,2.7,0.9L14.4,70.3z M11.2,86.4c-0.8-0.7-0.9-2-0.2-2.8l0,0l7-8.3c0.7-0.9,1.9-1,2.8-0.4s1,1.9,0.4,2.8
	c0,0.1-0.1,0.1-0.1,0.2l-7,8.3C13.3,87,12.1,87.1,11.2,86.4L11.2,86.4z M23.6,88.8c-0.5,1-0.1,2.2,0.9,2.7s2.2,0.1,2.7-0.9
	c0-0.1,0.1-0.2,0.1-0.3l1.8-4.7c0.5-1,0.1-2.2-0.9-2.7s-2.2-0.1-2.7,0.9c0,0.1-0.1,0.2-0.1,0.3L23.6,88.8z M90.2,71.5
	c0.6-0.9,0.3-2.2-0.7-2.8l-5-3c-0.9-0.6-2.2-0.3-2.7,0.7l0,0c-0.6,0.9-0.2,2.2,0.7,2.7l5,3C88.4,72.8,89.7,72.5,90.2,71.5L90.2,71.5
	z M85.9,82.1c0.8,0.8,0.8,2,0,2.8l0,0c-0.8,0.8-2,0.8-2.8,0l0,0l-8-8c-0.8-0.8-0.8-2,0-2.8l0,0c0.8-0.8,2-0.8,2.8,0L85.9,82.1
	L85.9,82.1z M71.2,91.4c1-0.4,1.5-1.6,1.1-2.6l-2-5c-0.3-1.1-1.5-1.6-2.5-1.3c-1.1,0.3-1.6,1.5-1.3,2.5c0,0.1,0.1,0.2,0.1,0.3l2,5
	C69.1,91.3,70.2,91.8,71.2,91.4L71.2,91.4z M51.5,23.7c-0.2-0.8-1.1-1.3-1.9-1c-0.5,0.1-0.9,0.5-1,1l-5.7,18.2
	C42.6,42.6,42,43,41.4,43H22.2c-1.5,0-2.1,1.9-0.9,2.8l15.3,11.1c0.5,0.4,0.8,1.1,0.6,1.7l-6.3,19.5c-0.3,0.8,0.2,1.7,1,1.9
	c0.5,0.2,1,0.1,1.4-0.2l16.3-11.7c0.5-0.4,1.3-0.4,1.8,0l15.3,11.4c1.2,0.9,2.8-0.3,2.4-1.7l-6.2-19.3c-0.2-0.6,0-1.3,0.6-1.7
	l15.3-11.1c1.2-0.9,0.6-2.8-0.9-2.8H58.6c-0.7,0-1.3-0.4-1.5-1.1L51.5,23.7L51.5,23.7z"/>
<path class="st1" d="M43.5,18.7c0.5-1.6,2.2-2.5,3.8-2c1,0.3,1.7,1.1,2,2.1L54.6,37l0,0h19.5c3.1,0,4.2,4,1.6,5.6l-16,10l0,0l0,0
	l6.6,19.7c0.5,1.6-0.3,3.3-1.9,3.8c-0.9,0.3-2,0.1-2.8-0.5L46.5,64.3l0,0L30,75.3c-1.4,0.9-3.3,0.6-4.2-0.8
	c-0.5-0.8-0.7-1.8-0.4-2.7l6.2-18.7l0,0l-15-10.6c-1.4-1-1.7-2.8-0.8-4.2c0.6-0.8,1.5-1.3,2.5-1.3h19l0,0L43.5,18.7L43.5,18.7z
	 M46.4,19.6L46.4,19.6l-6.1,18.3c-0.4,1.2-1.6,2.1-2.9,2.1h-19l0,0l0,0l15.1,10.5c1.1,0.8,1.6,2.2,1.1,3.5l-6.2,18.7l0,0l0,0l0,0
	l0,0l16.4-10.9c1.1-0.7,2.5-0.7,3.5,0.1l15.2,11.4l0,0l0,0l0,0L57,53.6c-0.4-1.3,0.1-2.8,1.3-3.5l16-10l0,0c0,0,0,0,0-0.1H54.7
	c-1.3,0-2.5-0.9-2.9-2.2L46.4,19.6L46.4,19.6L46.4,19.6L46.4,19.6L46.4,19.6z"/>
</svg>
