<svg xmlns="http://www.w3.org/2000/svg" version="1.1" xmlns:xlink="http://www.w3.org/1999/xlink" xmlns:svgjs="http://svgjs.dev/svgjs" viewBox="0 0 1920 1080"><rect width="1920" height="1080" fill="#ffad1f"></rect><g transform="matrix(7.04171909509728e-17,1.15,-1.15,7.04171909509728e-17,1581,-564)"><path d="M0,-1080C3.010448738512075,-970.8942464012533,16.714171166787242,-633.297338184747,18.06269243107245,-425.3654784075202C19.411213695357656,-217.4336186302934,3.30406835573433,-47.122593976222504,8.091127585711249,167.59115866336055C12.878186815688167,382.3049113029436,39.98646190726268,645.187810556919,46.78504781093396,862.9170374299781C53.58363371460524,1080.6462643030372,56.680150976227914,1257.7860261400454,48.88264300773892,1473.9665199017156C41.08513503924993,1690.147013663386,8.147107167956486,2045.661086650286,0,2160L 1920 2160 L 1920 -1080 Z" fill="url(&quot;#SvgjsLinearGradient1067&quot;)"></path><path d="M213.33333333333331,-1080C207.4820730344384,-941.7699326963992,171.1967331856815,-522.7480619336533,178.22577153996377,-250.6195961783953C185.25480989424605,21.50886957686268,250.64270375453276,280.83653412543987,255.50756345902704,552.7707945315477C260.3724231635213,824.7050549376556,214.44396812121173,1113.1144320135097,207.41492976692945,1380.9859662582517C200.38589141264717,1648.8575005029936,212.34693273893268,2030.1643277097087,213.33333333333331,2160L 1920 2160 L 1920 -1080 Z" fill="url(&quot;#SvgjsLinearGradient1068&quot;)"></path><path d="M426.66666666666663,-1080C418.9333875777434,-973.7896725971924,376.921876985423,-664.3760794642184,380.2669921331273,-442.7380355831546C383.6121072808316,-221.09999170209082,436.814786132264,24.703351667493735,446.73735755289226,249.8282632863827C456.65992897352055,474.9531749052717,449.2456749082437,690.277733881865,439.8024206568971,908.0114341301793C430.35916640555047,1125.7451343784937,392.26712437651776,1347.5657037979652,390.0778320448127,1556.2304647762687C387.8885397131076,1764.8952257545723,420.5685275630243,2059.371744129378,426.66666666666663,2160L 1920 2160 L 1920 -1080 Z" fill="url(&quot;#SvgjsLinearGradient1069&quot;)"></path><path d="M640,-1080C644.7558388440475,-1011.095976931186,661.6342409897023,-804.8118775979511,668.5350330642851,-666.575861587116C675.4358251388679,-528.3398455762809,678.3746096561115,-382.62594768327415,681.4047524474969,-250.5839039349894C684.4348952388823,-118.54186018670461,690.0999207760567,-10.966388505912974,686.7158898125977,125.67640090259262C683.3318588491386,262.3191903110982,674.7612011669765,430.7070144271718,661.1005666667429,569.2728325160442C647.4399321665093,707.8386506049167,608.7780713734971,822.3555116701784,604.7520828111958,957.071309435827C600.7260942488945,1091.7871072014755,625.7141951456096,1247.3658171822926,636.9446352929352,1377.567619109935C648.1750754402609,1507.7694210375776,671.6254962439722,1607.8767241866713,672.1347236951497,1738.282121001682C672.6439511463271,1868.687517816693,645.355787282525,2089.713686833614,640,2160L 1920 2160 L 1920 -1080 Z" fill="url(&quot;#SvgjsLinearGradient1070&quot;)"></path><path d="M853.3333333333333,-1080C847.3235883663988,-987.509424874522,813.8328723693535,-697.6047122216638,817.2748635317266,-525.0565492471316C820.7168546940998,-352.5083862725993,874.537428798462,-229.0398320253728,873.985280307572,-44.71102215280618C873.433131816682,139.61778771976043,825.1937682820917,395.1511265558091,813.9619725863869,580.9163099882682C802.7301768906821,766.6814934207272,794.3804959239561,890.5176584662205,806.5945061333429,1069.880078441948C818.8085163427296,1249.2424984176755,879.4562293093754,1475.4041762496245,887.2460338427072,1657.0908298426332C895.035838376039,1838.777483435642,858.9854500848955,2076.181804973772,853.3333333333333,2160L 1920 2160 L 1920 -1080 Z" fill="url(&quot;#SvgjsLinearGradient1071&quot;)"></path><path d="M1066.6666666666667,-1080C1072.7843951302077,-974.230608221857,1106.5431279171594,-665.3781793834205,1103.373037447913,-445.38364933114184C1100.2029469786667,-225.38911927886312,1045.7424303031166,21.810778926491793,1047.646123851189,239.96718031367232C1049.5498173992614,458.1235817008528,1115.2238593073764,658.3738607937893,1114.7951987363479,863.5547589919413C1114.3665381653193,1068.7356571900934,1053.0955824366308,1254.9783626679082,1045.0741604250172,1471.0525695025847C1037.0527384134036,1687.1267763372612,1063.0679156263918,2045.1754282504307,1066.6666666666667,2160L 1920 2160 L 1920 -1080 Z" fill="url(&quot;#SvgjsLinearGradient1072&quot;)"></path><path d="M1280,-1080C1275.8542523264914,-970.5137032505806,1251.525190000189,-632.0552036209443,1255.1255139589484,-423.0822195034836C1258.7258379177078,-214.1092353860229,1297.6611757824865,-47.58568704211274,1301.601943752557,173.8379047047642C1305.5427117226275,395.26149645164116,1276.3065621860771,683.5832986622564,1278.7701217793717,905.4593309777782C1281.2336813726663,1127.3353632933,1316.1783216088863,1296.0039870941914,1316.3833013123244,1505.094098597895C1316.5882810157625,1714.1842101015986,1286.063883552054,2050.8490164329824,1280,2160L 1920 2160 L 1920 -1080 Z" fill="url(&quot;#SvgjsLinearGradient1073&quot;)"></path><path d="M1493.3333333333333,-1080C1493.434568653212,-1019.8023780415537,1486.0290037392356,-850.3127876433017,1493.940745252606,-718.8142682493217C1501.8524867659762,-587.3157488553417,1545.666338739723,-427.6657106543255,1540.8037824135545,-291.00888363612C1535.941226087386,-154.3520566179145,1464.5218376864634,-33.18599129997031,1464.7654072955945,101.12669385991123C1465.0089769047256,235.43937901979277,1536.2538459330995,378.37107310956105,1542.2652000683406,514.8672273231692C1548.2765542035818,651.3633815367774,1513.8290229377606,788.8315741356289,1500.8335321070413,920.1036191415601C1487.838041276322,1051.3756641474913,1469.7746007337696,1162.8789006615912,1464.292255084025,1302.4994973587566C1458.8099094342806,1442.120094055922,1463.099278500356,1614.910448884346,1467.939458208574,1757.8271993245532C1472.7796379167921,1900.7439497647606,1489.1010208125401,2092.9711998874254,1493.3333333333333,2160L 1920 2160 L 1920 -1080 Z" fill="url(&quot;#SvgjsLinearGradient1074&quot;)"></path><path d="M1706.6666666666665,-1080C1709.125912021059,-1019.3395114031724,1722.4793945644353,-854.0987094226144,1721.4221387930215,-716.0370684190344C1720.3648830216077,-577.9754274154544,1707.8555952568206,-390.501729089113,1700.3231320381842,-251.63015397851993C1692.7906688195478,-112.75857886792687,1676.1848328012295,-13.418598805703994,1676.2273594812027,117.19238224452383C1676.269886161176,247.80336329475165,1699.3190704814556,400.16996634140776,1700.5782921180232,532.035732322847C1701.8375137545909,663.9014983042863,1679.117483619818,764.1746545581517,1683.7826893006088,908.3869781331597C1688.4478949813997,1052.5993017081676,1719.3637757556635,1264.337325076276,1728.5695262027689,1397.3096737728947C1737.7752766498743,1530.2820224695133,1742.6676685725909,1579.1060159416868,1739.0171919832405,1706.221070312871C1735.3667153938902,1833.3361246840552,1712.0584208860955,2084.3701783854785,1706.6666666666665,2160L 1920 2160 L 1920 -1080 Z" fill="url(&quot;#SvgjsLinearGradient1075&quot;)"></path></g><defs><linearGradient x1="0.1" y1="0" x2="0" y2="1" id="SvgjsLinearGradient1067"><stop stop-color="#ffad1f" offset="0"></stop><stop stop-color="#ff881f" offset="0"></stop></linearGradient><linearGradient x1="0.1" y1="0" x2="0" y2="1" id="SvgjsLinearGradient1068"><stop stop-color="#ffb32f" offset="0"></stop><stop stop-color="#ff902f" offset="0.1111111111111111"></stop></linearGradient><linearGradient x1="0.1" y1="0" x2="0" y2="1" id="SvgjsLinearGradient1069"><stop stop-color="#ffb940" offset="0"></stop><stop stop-color="#ff9940" offset="0.2222222222222222"></stop></linearGradient><linearGradient x1="0.1" y1="0" x2="0" y2="1" id="SvgjsLinearGradient1070"><stop stop-color="#ffbf50" offset="0"></stop><stop stop-color="#ffa250" offset="0.3333333333333333"></stop></linearGradient><linearGradient x1="0.1" y1="0" x2="0" y2="1" id="SvgjsLinearGradient1071"><stop stop-color="#ffc560" offset="0"></stop><stop stop-color="#ffaa60" offset="0.4444444444444444"></stop></linearGradient><linearGradient x1="0.1" y1="0" x2="0" y2="1" id="SvgjsLinearGradient1072"><stop stop-color="#ffcb71" offset="0"></stop><stop stop-color="#ffb371" offset="0.5555555555555556"></stop></linearGradient><linearGradient x1="0.1" y1="0" x2="0" y2="1" id="SvgjsLinearGradient1073"><stop stop-color="#ffd181" offset="0"></stop><stop stop-color="#ffbc81" offset="0.6666666666666666"></stop></linearGradient><linearGradient x1="0.1" y1="0" x2="0" y2="1" id="SvgjsLinearGradient1074"><stop stop-color="#ffd792" offset="0"></stop><stop stop-color="#ffc592" offset="0.7777777777777778"></stop></linearGradient><linearGradient x1="0.1" y1="0" x2="0" y2="1" id="SvgjsLinearGradient1075"><stop stop-color="#ffdda2" offset="0"></stop><stop stop-color="#ffcda2" offset="0.8888888888888888"></stop></linearGradient></defs></svg>