<?xml version="1.0" encoding="utf-8"?>
<!-- Generator: Adobe Illustrator 24.2.0, SVG Export Plug-In . SVG Version: 6.00 Build 0)  -->
<svg version="1.1" id="图层_1" xmlns="http://www.w3.org/2000/svg" xmlns:xlink="http://www.w3.org/1999/xlink" x="0px" y="0px"
	 viewBox="0 0 2181.4 902" style="enable-background:new 0 0 2181.4 902;" xml:space="preserve">
<style type="text/css">
	.st0{fill:#E8E8E8;}
	.st1{fill:none;}
	.st2{fill:#0C1329;}
	.st3{fill:#454851;filter:url(#Adobe_OpacityMaskFilter);}
	.st4{fill:#454851;}
	.st5{mask:url(#b_1_);}
	.st6{fill:#28BB1B;}
	.st7{fill:#FF5C1E;}
	.st8{fill:#4637ED;}
	.st9{fill:#FFAE11;}
	.st10{fill:none;stroke:#0D142D;stroke-width:10;}
	.st11{fill:#FFFFFF;filter:url(#Adobe_OpacityMaskFilter_1_);}
	.st12{mask:url(#c_1_);fill:none;stroke:#0D142D;stroke-width:10;}
	.st13{fill:#FFFFFF;filter:url(#Adobe_OpacityMaskFilter_2_);}
	.st14{mask:url(#c_2_);fill:none;stroke:#0D142D;stroke-width:10;}
	.st15{fill:#FFFFFF;filter:url(#Adobe_OpacityMaskFilter_3_);}
	.st16{mask:url(#d_1_);fill:none;stroke:#0D142D;stroke-width:10;}
	.st17{fill:#FFFFFF;filter:url(#Adobe_OpacityMaskFilter_4_);}
	.st18{mask:url(#d_2_);fill:none;stroke:#0D142D;stroke-width:10;}
	.st19{fill:none;stroke:#0D142D;stroke-width:5;}
	.st20{fill:none;stroke:#0D142D;stroke-width:5;stroke-linecap:round;stroke-linejoin:round;}
	.st21{fill:#FFFFFF;filter:url(#Adobe_OpacityMaskFilter_5_);}
	.st22{mask:url(#e_1_);fill:none;stroke:#0D142D;stroke-width:10;}
	.st23{fill:#FFFFFF;filter:url(#Adobe_OpacityMaskFilter_6_);}
	.st24{mask:url(#f_1_);fill:none;stroke:#0D142D;stroke-width:10;}
	.st25{fill:#FFFFFF;filter:url(#Adobe_OpacityMaskFilter_7_);}
	.st26{mask:url(#g_1_);fill:none;stroke:#0D142D;stroke-width:10;}
	.st27{fill:#0D142D;stroke:#0D142D;stroke-width:2.243;}
	.st28{fill:#FFFFFF;filter:url(#Adobe_OpacityMaskFilter_8_);}
	.st29{mask:url(#h_1_);fill:none;stroke:#0D142D;stroke-width:10;}
	.st30{fill:#FFFFFF;filter:url(#Adobe_OpacityMaskFilter_9_);}
	.st31{mask:url(#i_1_);fill:none;stroke:#0D142D;stroke-width:10;}
	.st32{fill:#FFFFFF;filter:url(#Adobe_OpacityMaskFilter_10_);}
	.st33{mask:url(#j_1_);fill:none;stroke:#0D142D;stroke-width:10;}
	.st34{fill:none;stroke:#0D142D;stroke-width:5;stroke-linejoin:round;}
	.st35{fill:#FFFFFF;filter:url(#Adobe_OpacityMaskFilter_11_);}
	.st36{mask:url(#k_1_);fill:none;stroke:#0D142D;stroke-width:10;}
	.st37{fill:#0D142D;}
	.st38{fill:#FFFFFF;filter:url(#Adobe_OpacityMaskFilter_12_);}
	.st39{mask:url(#l_1_);fill:none;stroke:#0D142D;stroke-width:10;}
	.st40{fill:#FFFFFF;filter:url(#Adobe_OpacityMaskFilter_13_);}
	.st41{mask:url(#m_1_);fill:none;stroke:#0D142D;stroke-width:10;}
	.st42{fill:#FFFFFF;filter:url(#Adobe_OpacityMaskFilter_14_);}
	.st43{mask:url(#n_1_);fill:none;stroke:#0D142D;stroke-width:10;}
	.st44{fill:#FFFFFF;filter:url(#Adobe_OpacityMaskFilter_15_);}
	.st45{mask:url(#o_1_);fill:none;stroke:#0D142D;stroke-width:10;}
	.st46{fill:#FFFFFF;filter:url(#Adobe_OpacityMaskFilter_16_);}
	.st47{mask:url(#p_1_);fill:none;stroke:#0D142D;stroke-width:10;}
	.st48{fill:#FFFFFF;filter:url(#Adobe_OpacityMaskFilter_17_);}
	.st49{mask:url(#q_1_);fill:none;stroke:#0D142D;stroke-width:10;}
	.st50{fill:#FFFFFF;filter:url(#Adobe_OpacityMaskFilter_18_);}
	.st51{mask:url(#r_1_);fill:none;stroke:#0D142D;stroke-width:10;}
	.st52{fill:#FFFFFF;filter:url(#Adobe_OpacityMaskFilter_19_);}
	.st53{mask:url(#s_1_);fill:none;stroke:#0D142D;stroke-width:10;}
	.st54{fill:#FFFFFF;filter:url(#Adobe_OpacityMaskFilter_20_);}
	.st55{mask:url(#e_2_);fill:none;stroke:#0D142D;stroke-width:10;}
</style>
<path class="st0" d="M162.4,0h1735v902h-1735V0z"/>
<rect x="162.4" class="st1" width="1735" height="902"/>
<path class="st2" d="M0,0h2181.4v902H0V0z"/>
<defs>
	<filter id="Adobe_OpacityMaskFilter" filterUnits="userSpaceOnUse" x="0" y="-77.7" width="2181.4" height="1029.7">
		<feColorMatrix  type="matrix" values="1 0 0 0 0  0 1 0 0 0  0 0 1 0 0  0 0 0 1 0"/>
	</filter>
</defs>
<mask maskUnits="userSpaceOnUse" x="0" y="-77.7" width="2181.4" height="1029.7" id="b_1_">
	<path class="st3" d="M1742,197.5c0-5.6,4.5-10.1,10.1-10.1h170.5c5.6,0,10.1,4.5,10.1,10.1V427c0,5.6-4.5,10.1-10.1,10.1h-170.5
		c-5.6,0-10.1-4.5-10.1-10.1V197.5z"/>
	<path class="st4" d="M1812.4,302.1c0-2.4,1.9-4.3,4.3-4.3h43.6c2.4,0,4.3,1.9,4.3,4.3v36.7c0,2.4-1.9,4.3-4.3,4.3h-43.6
		c-2.4,0-4.3-1.9-4.3-4.3V302.1z"/>
	<path class="st4" d="M1853.2,288.9c0,6.9-5.6,12.5-12.5,12.5h-4.5c-6.9,0-12.5-5.6-12.5-12.5c0-8.2,6.6-14.8,14.8-14.8
		S1853.2,280.8,1853.2,288.9z"/>
	<path class="st4" d="M1905.5,312.2c0,37.6-30.5,68.1-68.1,68.1c-37.6,0-68.1-30.5-68.1-68.1c0-37.6,30.5-68.1,68.1-68.1
		C1875,244.1,1905.5,274.6,1905.5,312.2L1905.5,312.2z"/>
	<path class="st4" d="M1895.5,312.3c0,31.9-26.2,57.7-58.5,57.7c-32.3,0-58.5-25.9-58.5-57.7s26.2-57.7,58.5-57.7
		C1869.3,254.6,1895.5,280.4,1895.5,312.3z M1197.8,332c0-3.3,2.6-5.9,5.9-5.9h61c3.3,0,5.9,2.6,5.9,5.9v62.8c0,3.3-2.7,5.9-5.9,5.9
		h-61c-3.3,0-5.9-2.6-5.9-5.9V332z"/>
	<path class="st4" d="M1081.6,197.5c0-5.6,4.5-10.1,10.1-10.1h227.8c5.6,0,10.1,4.5,10.1,10.1V427c0,5.6-4.5,10.1-10.1,10.1h-227.8
		c-5.6,0-10.1-4.5-10.1-10.1V197.5L1081.6,197.5z"/>
	<path class="st4" d="M1102.4,364.8c0-7,5.7-12.7,12.7-12.7s12.7,5.7,12.7,12.7c0,7-5.7,12.7-12.7,12.7S1102.4,371.8,1102.4,364.8z
		 M1102.4,326.7c0-7,5.7-12.7,12.7-12.7s12.7,5.7,12.7,12.7s-5.7,12.7-12.7,12.7S1102.4,333.7,1102.4,326.7z M1357.4,197.5
		c0-5.6,4.5-10.1,10.1-10.1H1538c5.6,0,10.1,4.5,10.1,10.1V427c0,5.6-4.5,10.1-10.1,10.1h-170.5c-5.6,0-10.1-4.5-10.1-10.1V197.5z"
		/>
	<path class="st4" d="M1427.8,302.1c0-2.4,1.9-4.3,4.3-4.3c0,0,0,0,0,0h43.6c2.4,0,4.3,1.9,4.3,4.3v36.7c0,2.4-1.9,4.3-4.3,4.3
		h-43.6c-2.4,0-4.3-1.9-4.3-4.3V302.1z"/>
	<path class="st4" d="M1468.7,288.9c0,6.9-5.6,12.5-12.5,12.5h-4.5c-6.9,0-12.5-5.6-12.5-12.5c0-8.2,6.6-14.8,14.8-14.8
		S1468.7,280.8,1468.7,288.9z"/>
	<path class="st4" d="M1520.9,312.2c0,37.6-30.5,68.1-68.1,68.1c-37.6,0-68.1-30.5-68.1-68.1c0-37.6,30.5-68.1,68.1-68.1
		C1490.4,244.1,1520.9,274.6,1520.9,312.2L1520.9,312.2z"/>
	<path class="st4" d="M1510.9,312.3c0,31.9-26.2,57.7-58.5,57.7s-58.5-25.9-58.5-57.7s26.2-57.7,58.5-57.7
		S1510.9,280.4,1510.9,312.3z M1043.7,187.3c5.6,0,10.1,4.5,10.1,10.1V427c0,5.6-4.5,10.1-10.1,10.1H926.2
		c-5.6,0-10.1-4.5-10.1-10.1V197.5c0-5.6,4.5-10.1,10.1-10.1H1043.7z"/>
	<path class="st4" d="M974.6,255.4c-0.1-5.2,4.1-9.5,9.4-9.6s9.5,4.1,9.6,9.4c0,0.1,0,0.1,0,0.2c0.1,5.2-4.1,9.5-9.4,9.6
		c-5.2,0.1-9.5-4.1-9.6-9.4C974.6,255.5,974.6,255.4,974.6,255.4z"/>
	<path class="st4" d="M1026.3,256.2c0,23.8-19.3,43.1-43.1,43.1s-43.1-19.3-43.1-43.1c0-23.8,19.3-43.1,43.1-43.1
		S1026.3,232.5,1026.3,256.2L1026.3,256.2z"/>
	<path class="st4" d="M1017.7,256.2c0,19-15.4,34.5-34.5,34.5s-34.5-15.4-34.5-34.5c0-19,15.4-34.5,34.5-34.5
		S1017.7,237.2,1017.7,256.2z M974.6,367.4c0-5.2,4.2-9.5,9.5-9.5c5.2,0,9.5,4.2,9.5,9.5c0.1,5.2-4.1,9.5-9.4,9.6
		c-5.2,0.1-9.5-4.1-9.6-9.4C974.6,367.5,974.6,367.4,974.6,367.4z"/>
	<path class="st4" d="M1026.3,368.2c0,23.8-19.3,43.1-43.1,43.1s-43.1-19.3-43.1-43.1s19.3-43.1,43.1-43.1
		S1026.3,344.4,1026.3,368.2L1026.3,368.2z"/>
	<path class="st4" d="M1017.7,368.2c0,19-15.4,34.5-34.5,34.5s-34.5-15.4-34.5-34.5c0-19,15.4-34.5,34.5-34.5
		S1017.7,349.2,1017.7,368.2z M746,197.5c0-5.6,4.5-10.1,10.1-10.1h122.1c5.6,0,10.1,4.5,10.1,10.1V427c0,5.6-4.5,10.1-10.1,10.1
		H756.1c-5.6,0-10.1-4.5-10.1-10.1L746,197.5L746,197.5z"/>
	<path class="st4" d="M760,211.2c0-5.4,4.4-9.9,9.9-9.9h16.8c2.8,0,5.5,1.2,7.3,3.3l3.1,3.5c1.9,2.1,4.5,3.3,7.3,3.3h29.3
		c2.8,0,5.5-1.2,7.3-3.3l3.1-3.5c1.9-2.1,4.5-3.3,7.3-3.3h12.8c5.4,0,9.9,4.4,9.9,9.9v199c0,5.4-4.4,9.9-9.9,9.9h-94.5
		c-5.4,0-9.9-4.4-9.9-9.9L760,211.2L760,211.2z"/>
	<path class="st4" d="M778.1,239.4c0-3.3,2.7-5.9,5.9-5.9h22.2c3.3,0,5.9,2.6,5.9,5.9c0,0,0,0,0,0v22.2c0,3.3-2.6,5.9-5.9,5.9
		c0,0,0,0,0,0H784c-3.3,0-5.9-2.7-5.9-5.9l0,0V239.4z M822.2,239.4c0-3.3,2.6-5.9,5.9-5.9l0,0h22.2c3.3,0,5.9,2.6,5.9,5.9v22.2
		c0,3.3-2.7,5.9-5.9,5.9l0,0h-22.2c-3.3,0-5.9-2.6-5.9-5.9c0,0,0,0,0,0V239.4z M778.1,281.4c0-3.3,2.7-5.9,5.9-5.9l0,0h22.2
		c3.3,0,5.9,2.6,5.9,5.9c0,0,0,0,0,0v22.2c0,3.3-2.6,5.9-5.9,5.9c0,0,0,0,0,0H784c-3.3,0-5.9-2.6-5.9-5.9c0,0,0,0,0,0V281.4z
		 M822.2,281.4c0-3.3,2.6-5.9,5.9-5.9c0,0,0,0,0,0h22.2c3.3,0,5.9,2.7,5.9,5.9l0,0v22.2c0,3.3-2.6,5.9-5.9,5.9c0,0,0,0,0,0h-22.2
		c-3.3,0-5.9-2.6-5.9-5.9c0,0,0,0,0,0V281.4z M778.1,323.5c0-3.3,2.7-5.9,5.9-5.9l0,0h22.2c3.3,0,5.9,2.6,5.9,5.9c0,0,0,0,0,0v22.2
		c0,3.3-2.6,5.9-5.9,5.9c0,0,0,0,0,0H784c-3.3,0-5.9-2.7-5.9-5.9l0,0V323.5z M822.2,323.5c0-3.3,2.6-5.9,5.9-5.9c0,0,0,0,0,0h22.2
		c3.3,0,5.9,2.7,5.9,5.9l0,0v22.2c0,3.3-2.7,5.9-5.9,5.9l0,0h-22.2c-3.3,0-5.9-2.6-5.9-5.9c0,0,0,0,0,0V323.5z M778.1,365.6
		c0-3.3,2.6-5.9,5.9-5.9c0,0,0,0,0,0h22.2c3.3,0,5.9,2.6,5.9,5.9c0,0,0,0,0,0v22.2c0,3.3-2.6,5.9-5.9,5.9c0,0,0,0,0,0H784
		c-3.3,0-5.9-2.7-5.9-5.9l0,0V365.6z M822.2,365.6c0-3.3,2.6-5.9,5.9-5.9c0,0,0,0,0,0h22.2c3.3,0,5.9,2.6,5.9,5.9c0,0,0,0,0,0v22.2
		c0,3.3-2.7,5.9-5.9,5.9l0,0h-22.2c-3.3,0-5.9-2.6-5.9-5.9c0,0,0,0,0,0V365.6z M227.6,197.5c0-5.6,4.5-10.1,10.1-10.1h304.9
		c5.6,0,10.1,4.5,10.1,10.1V427c0,5.6-4.5,10.1-10.1,10.1H237.7c-5.6,0-10.1-4.5-10.1-10.1V197.5L227.6,197.5z"/>
	<path class="st4" d="M227.6,197.2c0-5.4,4.4-9.9,9.9-9.9h305.4c5.4,0,9.9,4.4,9.9,9.9v230.1c0,5.4-4.4,9.9-9.9,9.9H237.4
		c-5.4,0-9.9-4.4-9.9-9.9V197.2z"/>
	<path class="st4" d="M247.8,214c0-4.6,3.7-8.3,8.3-8.3c4.6,0,8.3,3.7,8.3,8.3c0,0,0,0,0,0c0,4.6-3.7,8.3-8.3,8.3
		C251.5,222.2,247.8,218.5,247.8,214z M269.8,214c0-4.6,3.7-8.3,8.3-8.3c4.6,0,8.3,3.7,8.3,8.3c0,0,0,0,0,0c0,4.6-3.7,8.3-8.3,8.3
		C273.5,222.2,269.8,218.5,269.8,214z M291.9,214c-0.1-4.6,3.6-8.3,8.2-8.4c4.6-0.1,8.3,3.6,8.4,8.2c0,0.1,0,0.1,0,0.2
		c0.1,4.6-3.6,8.3-8.2,8.4c-4.6,0.1-8.3-3.6-8.4-8.2C291.9,214.1,291.9,214,291.9,214z M247.8,259.6c0-5.4,4.4-9.9,9.9-9.9h40.9
		c5.4,0,9.9,4.4,9.9,9.9v147.4c0,5.4-4.4,9.9-9.9,9.9h-40.9c-5.4,0-9.9-4.4-9.9-9.9V259.6z M321.3,259.6c0-5.4,4.4-9.9,9.9-9.9
		h191.5c5.4,0,9.9,4.4,9.9,9.9v147.4c0,5.4-4.4,9.9-9.9,9.9H331.1c-5.4,0-9.9-4.4-9.9-9.9V259.6z M708.1,187.3
		c5.6,0,10.1,4.5,10.1,10.1V427c0,5.6-4.5,10.1-10.1,10.1H590.5c-5.6,0-10.1-4.5-10.1-10.1V197.5c0-5.6,4.5-10.1,10.1-10.1H708.1z
		 M1704.1,187.3c5.6,0,10.1,4.5,10.1,10.1V427c0,5.6-4.5,10.1-10.1,10.1h-117.6c-5.6,0-10.1-4.5-10.1-10.1V197.5
		c0-5.6,4.5-10.1,10.1-10.1L1704.1,187.3L1704.1,187.3z M1294.5,10.1c0-5.6,4.5-10.1,10.1-10.1h352.1c5.6,0,10.1,4.5,10.1,10.1
		v139.4c0,5.6-4.5,10.1-10.1,10.1h-352.1c-5.6,0-10.1-4.5-10.1-10.1V10.1z"/>
	<path class="st4" d="M1313.3,26.3c0-3.3,2.7-5.9,5.9-5.9h11.6c3.3,0,5.9,2.6,5.9,5.9v11.6c0,3.3-2.7,5.9-5.9,5.9l0,0h-11.6
		c-3.3,0-5.9-2.7-5.9-5.9c0,0,0,0,0,0V26.3z M1347.7,26.3c0-3.3,2.7-5.9,5.9-5.9h11.6c3.3,0,5.9,2.6,5.9,5.9v11.6
		c0,3.3-2.7,5.9-5.9,5.9l0,0h-11.6c-3.3,0-5.9-2.7-5.9-5.9c0,0,0,0,0,0V26.3z M1382.1,26.3c0-3.3,2.7-5.9,5.9-5.9h11.6
		c3.3,0,5.9,2.6,5.9,5.9v11.6c0,3.3-2.7,5.9-5.9,5.9l0,0H1388c-3.3,0-5.9-2.7-5.9-5.9c0,0,0,0,0,0V26.3z M1416.5,26.3
		c0-3.3,2.7-5.9,5.9-5.9h11.6c3.3,0,5.9,2.6,5.9,5.9v11.6c0,3.3-2.7,5.9-5.9,5.9l0,0h-11.6c-3.3,0-5.9-2.7-5.9-5.9c0,0,0,0,0,0V26.3
		z M1450.9,26.3c0-3.3,2.7-5.9,5.9-5.9h11.6c3.3,0,5.9,2.6,5.9,5.9v11.6c0,3.3-2.7,5.9-5.9,5.9l0,0h-11.6c-3.3,0-5.9-2.7-5.9-5.9
		c0,0,0,0,0,0V26.3z M1485.4,26.3c0-3.3,2.6-5.9,5.9-5.9c0,0,0,0,0,0h11.6c3.3,0,5.9,2.6,5.9,5.9v11.6c0,3.3-2.7,5.9-5.9,5.9l0,0
		h-11.6c-3.3,0-5.9-2.6-5.9-5.9c0,0,0,0,0,0V26.3z M1519.8,26.3c0-3.3,2.7-5.9,5.9-5.9h11.6c3.3,0,5.9,2.6,5.9,5.9v11.6
		c0,3.3-2.7,5.9-5.9,5.9l0,0h-11.6c-3.3,0-5.9-2.7-5.9-5.9c0,0,0,0,0,0V26.3z M1554.2,26.3c0-3.3,2.7-5.9,5.9-5.9h11.6
		c3.3,0,5.9,2.6,5.9,5.9v11.6c0,3.3-2.7,5.9-5.9,5.9l0,0h-11.6c-3.3,0-5.9-2.7-5.9-5.9c0,0,0,0,0,0V26.3z M1588.6,26.3
		c0-3.3,2.6-5.9,5.9-5.9c0,0,0,0,0,0h11.6c3.3,0,5.9,2.6,5.9,5.9v11.6c0,3.3-2.7,5.9-5.9,5.9l0,0h-11.6c-3.3,0-5.9-2.6-5.9-5.9
		c0,0,0,0,0,0V26.3z M1623,26.3c0-3.3,2.6-5.9,5.9-5.9h11.6c3.3,0,5.9,2.6,5.9,5.9v11.6c0,3.3-2.7,5.9-5.9,5.9l0,0H1629
		c-3.3,0-5.9-2.7-5.9-5.9V26.3z M1313.3,59.1c0-3.3,2.7-5.9,5.9-5.9l0,0h11.6c3.3,0,5.9,2.7,5.9,5.9c0,0,0,0,0,0v11.6
		c0,3.3-2.7,5.9-5.9,5.9l0,0h-11.6c-3.3,0-5.9-2.7-5.9-5.9c0,0,0,0,0,0C1313.3,70.7,1313.3,59.1,1313.3,59.1z M1347.7,59.1
		c0-3.3,2.7-5.9,5.9-5.9l0,0h11.6c3.3,0,5.9,2.7,5.9,5.9c0,0,0,0,0,0v11.6c0,3.3-2.7,5.9-5.9,5.9l0,0h-11.6c-3.3,0-5.9-2.7-5.9-5.9
		c0,0,0,0,0,0C1347.7,70.7,1347.7,59.1,1347.7,59.1z M1382.1,59.1c0-3.3,2.7-5.9,5.9-5.9l0,0h11.6c3.3,0,5.9,2.7,5.9,5.9
		c0,0,0,0,0,0v11.6c0,3.3-2.7,5.9-5.9,5.9l0,0H1388c-3.3,0-5.9-2.7-5.9-5.9c0,0,0,0,0,0C1382.1,70.7,1382.1,59.1,1382.1,59.1z
		 M1416.5,59.1c0-3.3,2.7-5.9,5.9-5.9l0,0h11.6c3.3,0,5.9,2.7,5.9,5.9c0,0,0,0,0,0v11.6c0,3.3-2.7,5.9-5.9,5.9l0,0h-11.6
		c-3.3,0-5.9-2.7-5.9-5.9c0,0,0,0,0,0C1416.5,70.7,1416.5,59.1,1416.5,59.1z M1450.9,59.1c0-3.3,2.7-5.9,5.9-5.9l0,0h11.6
		c3.3,0,5.9,2.7,5.9,5.9c0,0,0,0,0,0v11.6c0,3.3-2.7,5.9-5.9,5.9l0,0h-11.6c-3.3,0-5.9-2.7-5.9-5.9c0,0,0,0,0,0
		C1450.9,70.7,1450.9,59.1,1450.9,59.1z M1485.4,59.1c0-3.3,2.6-5.9,5.9-5.9c0,0,0,0,0,0h11.6c3.3,0,5.9,2.7,5.9,5.9c0,0,0,0,0,0
		v11.6c0,3.3-2.7,5.9-5.9,5.9l0,0h-11.6c-3.3,0-5.9-2.6-5.9-5.9c0,0,0,0,0,0C1485.4,70.7,1485.4,59.1,1485.4,59.1z M1519.8,59.1
		c0-3.3,2.7-5.9,5.9-5.9l0,0h11.6c3.3,0,5.9,2.7,5.9,5.9c0,0,0,0,0,0v11.6c0,3.3-2.7,5.9-5.9,5.9l0,0h-11.6c-3.3,0-5.9-2.7-5.9-5.9
		c0,0,0,0,0,0C1519.8,70.7,1519.8,59.1,1519.8,59.1z M1554.2,59.1c0-3.3,2.7-5.9,5.9-5.9l0,0h11.6c3.3,0,5.9,2.7,5.9,5.9
		c0,0,0,0,0,0v11.6c0,3.3-2.7,5.9-5.9,5.9l0,0h-11.6c-3.3,0-5.9-2.7-5.9-5.9c0,0,0,0,0,0C1554.2,70.7,1554.2,59.1,1554.2,59.1z
		 M1588.6,59.1c0-3.3,2.6-5.9,5.9-5.9c0,0,0,0,0,0h11.6c3.3,0,5.9,2.7,5.9,5.9c0,0,0,0,0,0v11.6c0,3.3-2.7,5.9-5.9,5.9l0,0h-11.6
		c-3.3,0-5.9-2.6-5.9-5.9c0,0,0,0,0,0C1588.6,70.7,1588.6,59.1,1588.6,59.1z M1623,59.1c0-3.3,2.6-5.9,5.9-5.9h11.6
		c3.3,0,5.9,2.7,5.9,5.9c0,0,0,0,0,0v11.6c0,3.3-2.7,5.9-5.9,5.9l0,0H1629c-3.3,0-5.9-2.7-5.9-5.9C1623,70.7,1623,59.1,1623,59.1z
		 M1382.1,92c0-3.3,2.7-5.9,5.9-5.9l0,0h11.6c3.3,0,5.9,2.7,5.9,5.9c0,0,0,0,0,0v11.6c0,3.3-2.7,5.9-5.9,5.9H1388
		c-3.3,0-5.9-2.6-5.9-5.9V92z M1416.5,92c0-3.3,2.7-5.9,5.9-5.9l0,0h11.6c3.3,0,5.9,2.7,5.9,5.9c0,0,0,0,0,0v11.6
		c0,3.3-2.7,5.9-5.9,5.9h-11.6c-3.3,0-5.9-2.6-5.9-5.9V92z M1450.9,92c0-3.3,2.7-5.9,5.9-5.9l0,0h11.6c3.3,0,5.9,2.7,5.9,5.9
		c0,0,0,0,0,0v11.6c0,3.3-2.7,5.9-5.9,5.9h-11.6c-3.3,0-5.9-2.6-5.9-5.9V92z M1485.4,92c0-3.3,2.6-5.9,5.9-5.9c0,0,0,0,0,0h11.6
		c3.3,0,5.9,2.7,5.9,5.9c0,0,0,0,0,0v11.6c0,3.3-2.7,5.9-5.9,5.9h-11.6c-3.3,0-5.9-2.6-5.9-5.9c0,0,0,0,0,0V92z M1519.8,92
		c0-3.3,2.7-5.9,5.9-5.9l0,0h11.6c3.3,0,5.9,2.7,5.9,5.9c0,0,0,0,0,0v11.6c0,3.3-2.7,5.9-5.9,5.9h-11.6c-3.3,0-5.9-2.6-5.9-5.9V92z
		 M1554.2,92c0-3.3,2.7-5.9,5.9-5.9l0,0h11.6c3.3,0,5.9,2.7,5.9,5.9c0,0,0,0,0,0v11.6c0,3.3-2.7,5.9-5.9,5.9h-11.6
		c-3.3,0-5.9-2.6-5.9-5.9V92z M1313.3,124.8c0-3.3,2.7-5.9,5.9-5.9h11.6c3.3,0,5.9,2.6,5.9,5.9v11.6c0,3.3-2.6,5.9-5.9,5.9
		c0,0,0,0,0,0h-11.6c-3.3,0-5.9-2.6-5.9-5.9c0,0,0,0,0,0V124.8z M1347.7,124.8c0-3.3,2.7-5.9,5.9-5.9h11.6c3.3,0,5.9,2.6,5.9,5.9
		v11.6c0,3.3-2.6,5.9-5.9,5.9c0,0,0,0,0,0h-11.6c-3.3,0-5.9-2.6-5.9-5.9c0,0,0,0,0,0V124.8z M1588.6,124.8c0-3.3,2.6-5.9,5.9-5.9
		c0,0,0,0,0,0h11.6c3.3,0,5.9,2.6,5.9,5.9v11.6c0,3.3-2.6,5.9-5.9,5.9c0,0,0,0,0,0h-11.6c-3.3,0-5.9-2.6-5.9-5.9c0,0,0,0,0,0V124.8z
		 M1623,124.8c0-3.3,2.6-5.9,5.9-5.9h11.6c3.3,0,5.9,2.6,5.9,5.9v11.6c0,3.3-2.6,5.9-5.9,5.9c0,0,0,0,0,0H1629
		c-3.3,0-5.9-2.7-5.9-5.9V124.8z M1382.1,124.8c0-3.3,2.7-5.9,5.9-5.9h183.7c3.3,0,5.9,2.6,5.9,5.9v11.6c0,3.3-2.6,5.9-5.9,5.9
		c0,0,0,0,0,0H1388c-3.3,0-5.9-2.6-5.9-5.9c0,0,0,0,0,0V124.8z M1588.6,92c0-3.3,2.6-5.9,5.9-5.9c0,0,0,0,0,0h46.1
		c3.3,0,5.9,2.7,5.9,5.9c0,0,0,0,0,0v11.6c0,3.3-2.7,5.9-5.9,5.9h-46.1c-3.3,0-5.9-2.6-5.9-5.9c0,0,0,0,0,0V92z M1313.3,92
		c0-3.3,2.7-5.9,5.9-5.9l0,0h46.1c3.3,0,5.9,2.7,5.9,5.9c0,0,0,0,0,0v11.6c0,3.3-2.7,5.9-5.9,5.9h-46.1c-3.3,0-5.9-2.6-5.9-5.9V92z
		 M671.4,10.1c0-5.6,4.5-10.1,10.1-10.1h237c5.6,0,10.1,4.5,10.1,10.1v139.4c0,5.6-4.5,10.1-10.1,10.1h-237
		c-5.6,0-10.1-4.5-10.1-10.1V10.1z M955.9,10.1C955.9,4.5,960.4,0,966,0h290.7c5.6,0,10.1,4.5,10.1,10.1v139.4
		c0,5.6-4.5,10.1-10.1,10.1H966c-5.6,0-10.1-4.5-10.1-10.1V10.1z"/>
	<path class="st4" d="M1011.5,122.7c0,2-1.6,3.6-3.6,3.6c-2,0-3.6-1.6-3.6-3.6s1.6-3.6,3.6-3.6
		C1009.9,119.1,1011.5,120.7,1011.5,122.7z M1021.5,122.7c0,2-1.6,3.6-3.6,3.6c-2,0-3.6-1.6-3.6-3.6s1.6-3.6,3.6-3.6
		C1019.9,119.1,1021.5,120.7,1021.5,122.7z M1031.4,122.7c0,2-1.6,3.6-3.6,3.6c-2,0-3.6-1.6-3.6-3.6s1.6-3.6,3.6-3.6
		C1029.8,119.1,1031.4,120.7,1031.4,122.7z M1041.4,122.7c0,2-1.6,3.6-3.6,3.6c-2,0-3.6-1.6-3.6-3.6s1.6-3.6,3.6-3.6
		C1039.8,119.1,1041.4,120.7,1041.4,122.7z M1051.3,122.7c0,2-1.6,3.6-3.6,3.6c-2,0-3.6-1.6-3.6-3.6s1.6-3.6,3.6-3.6
		C1049.7,119.1,1051.3,120.7,1051.3,122.7z M1061.3,122.7c0,2-1.6,3.6-3.6,3.6s-3.6-1.6-3.6-3.6s1.6-3.6,3.6-3.6
		S1061.3,120.7,1061.3,122.7z M1071.3,122.7c0,2-1.6,3.6-3.6,3.6c-2,0-3.6-1.6-3.6-3.6s1.6-3.6,3.6-3.6
		C1069.6,119.1,1071.3,120.7,1071.3,122.7z M991.6,57.5c0,2-1.6,3.6-3.6,3.6c-2,0-3.6-1.6-3.6-3.6l0,0c0-2,1.6-3.6,3.6-3.6
		C990,53.9,991.6,55.5,991.6,57.5z M991.6,68.4c0,2-1.6,3.6-3.6,3.6c-2,0-3.6-1.6-3.6-3.6s1.6-3.6,3.6-3.6
		C990,64.8,991.6,66.4,991.6,68.4z M991.6,79.2c0,2-1.6,3.6-3.6,3.6c-2,0-3.6-1.6-3.6-3.6s1.6-3.6,3.6-3.6
		C990,75.6,991.6,77.2,991.6,79.2z M991.6,90.1c0,2-1.6,3.6-3.6,3.6c-2,0-3.6-1.6-3.6-3.6s1.6-3.6,3.6-3.6
		C990,86.5,991.6,88.1,991.6,90.1z M991.6,101c0,2-1.6,3.6-3.6,3.6c-2,0-3.6-1.6-3.6-3.6s1.6-3.6,3.6-3.6
		C990,97.3,991.6,99,991.6,101z M1001.6,46.6c0,2-1.6,3.6-3.6,3.6s-3.6-1.6-3.6-3.6s1.6-3.6,3.6-3.6S1001.6,44.6,1001.6,46.6
		L1001.6,46.6z M1001.6,57.5c0,2-1.6,3.6-3.6,3.6s-3.6-1.6-3.6-3.6s1.6-3.6,3.6-3.6S1001.6,55.5,1001.6,57.5z M1001.6,68.4
		c0,2-1.6,3.6-3.6,3.6s-3.6-1.6-3.6-3.6s1.6-3.6,3.6-3.6S1001.6,66.4,1001.6,68.4z M1001.6,79.2c0,2-1.6,3.6-3.6,3.6
		s-3.6-1.6-3.6-3.6s1.6-3.6,3.6-3.6S1001.6,77.2,1001.6,79.2z M1001.6,90.1c0,2-1.6,3.6-3.6,3.6c-2,0-3.6-1.6-3.6-3.6l0,0
		c0-2,1.6-3.6,3.6-3.6C999.9,86.5,1001.6,88.1,1001.6,90.1L1001.6,90.1z M1001.6,101c0,2-1.6,3.6-3.6,3.7c-2,0-3.6-1.6-3.7-3.6
		c0,0,0-0.1,0-0.1c0-2,1.7-3.6,3.7-3.6C1000,97.4,1001.5,99,1001.6,101z M1001.6,111.8c0,2-1.6,3.6-3.6,3.7c-2,0-3.6-1.6-3.7-3.6
		c0,0,0-0.1,0-0.1c0-2,1.7-3.6,3.7-3.6C1000,108.3,1001.5,109.9,1001.6,111.8z M1011.5,35.8c0,2-1.6,3.6-3.6,3.6
		c-2,0-3.6-1.6-3.6-3.6l0,0c0-2,1.6-3.6,3.6-3.6C1009.9,32.2,1011.5,33.8,1011.5,35.8z M1011.5,46.6c0,2-1.6,3.6-3.6,3.6
		c-2,0-3.6-1.6-3.6-3.6s1.6-3.6,3.6-3.6C1009.9,43,1011.5,44.6,1011.5,46.6z M1011.5,57.5c0,2-1.6,3.6-3.6,3.6c-2,0-3.6-1.6-3.6-3.6
		l0,0c0-2,1.6-3.6,3.6-3.6C1009.9,53.9,1011.5,55.5,1011.5,57.5z M1011.5,68.4c0,2-1.6,3.6-3.6,3.6c-2,0-3.6-1.6-3.6-3.6
		s1.6-3.6,3.6-3.6C1009.9,64.8,1011.5,66.4,1011.5,68.4z M1011.5,79.2c0,2-1.6,3.6-3.6,3.6c-2,0-3.6-1.6-3.6-3.6s1.6-3.6,3.6-3.6
		C1009.9,75.6,1011.5,77.2,1011.5,79.2z M1011.5,90.1c0,2-1.6,3.6-3.6,3.6c-2,0-3.6-1.6-3.6-3.6s1.6-3.6,3.6-3.6
		C1009.9,86.5,1011.5,88.1,1011.5,90.1z M1011.5,101c0,2-1.6,3.6-3.6,3.6c-2,0-3.6-1.6-3.6-3.6s1.6-3.6,3.6-3.6
		C1009.9,97.3,1011.5,99,1011.5,101z M1011.5,111.8c0,2-1.6,3.6-3.6,3.6c-2,0-3.6-1.6-3.6-3.6s1.6-3.6,3.6-3.6
		C1009.9,108.2,1011.5,109.8,1011.5,111.8z M1021.5,35.8c0,2-1.6,3.6-3.6,3.6c-2,0-3.6-1.6-3.6-3.6s1.6-3.6,3.6-3.6
		C1019.9,32.2,1021.5,33.8,1021.5,35.8z M1021.5,46.6c0,2-1.6,3.6-3.6,3.6c-2,0-3.6-1.6-3.6-3.6s1.6-3.6,3.6-3.6
		C1019.9,43,1021.5,44.6,1021.5,46.6z M1021.5,57.5c0,2-1.6,3.6-3.6,3.6c-2,0-3.6-1.6-3.6-3.6l0,0c0-2,1.6-3.6,3.6-3.6
		C1019.9,53.9,1021.5,55.5,1021.5,57.5z M1021.5,68.4c0,2-1.6,3.6-3.6,3.6c-2,0-3.6-1.6-3.6-3.6s1.6-3.6,3.6-3.6
		C1019.9,64.8,1021.5,66.4,1021.5,68.4z M1021.5,79.2c0,2-1.6,3.6-3.6,3.6c-2,0-3.6-1.6-3.6-3.6s1.6-3.6,3.6-3.6
		C1019.9,75.6,1021.5,77.2,1021.5,79.2z M1021.5,90.1c0,2-1.6,3.6-3.6,3.6c-2,0-3.6-1.6-3.6-3.6s1.6-3.6,3.6-3.6
		C1019.9,86.5,1021.5,88.1,1021.5,90.1z M1021.5,101c0,2-1.6,3.6-3.6,3.6c-2,0-3.6-1.6-3.6-3.6s1.6-3.6,3.6-3.6
		C1019.9,97.3,1021.5,99,1021.5,101z M1021.5,111.8c0,2-1.6,3.6-3.6,3.6c-2,0-3.6-1.6-3.6-3.6s1.6-3.6,3.6-3.6
		C1019.9,108.2,1021.5,109.8,1021.5,111.8z M1031.4,35.8c0,2-1.6,3.6-3.6,3.6s-3.6-1.6-3.6-3.6c0-2,1.6-3.6,3.6-3.6
		S1031.4,33.8,1031.4,35.8L1031.4,35.8z M1031.4,46.6c0,2-1.6,3.6-3.6,3.6s-3.6-1.6-3.6-3.6c0-2,1.6-3.6,3.6-3.6
		S1031.4,44.6,1031.4,46.6L1031.4,46.6z M1031.4,57.5c0,2-1.6,3.6-3.6,3.6s-3.6-1.6-3.6-3.6s1.6-3.6,3.6-3.6
		S1031.4,55.5,1031.4,57.5z M1031.4,68.4c0,2-1.6,3.6-3.6,3.6s-3.6-1.6-3.6-3.6s1.6-3.6,3.6-3.6S1031.4,66.4,1031.4,68.4z
		 M1031.4,79.2c0,2-1.6,3.6-3.6,3.6s-3.6-1.6-3.6-3.6s1.6-3.6,3.6-3.6S1031.4,77.2,1031.4,79.2z M1031.4,90.1c0,2-1.6,3.6-3.6,3.6
		c-2,0-3.6-1.6-3.6-3.6l0,0c0-2,1.6-3.6,3.6-3.6C1029.8,86.5,1031.4,88.1,1031.4,90.1L1031.4,90.1z M1031.4,101c0,2-1.6,3.6-3.6,3.7
		c-2,0-3.6-1.6-3.7-3.6c0,0,0-0.1,0-0.1c0-2,1.7-3.6,3.7-3.6C1029.8,97.4,1031.4,99,1031.4,101z M1031.4,111.8c0,2-1.6,3.6-3.6,3.7
		c-2,0-3.6-1.6-3.7-3.6c0,0,0-0.1,0-0.1c0-2,1.7-3.6,3.7-3.6C1029.8,108.3,1031.4,109.9,1031.4,111.8z M1041.4,35.8
		c0,2-1.6,3.6-3.6,3.6c-2,0-3.6-1.6-3.6-3.6s1.6-3.6,3.6-3.6C1039.8,32.2,1041.4,33.8,1041.4,35.8z M1041.4,46.6
		c0,2-1.6,3.6-3.6,3.6c-2,0-3.6-1.6-3.6-3.6s1.6-3.6,3.6-3.6C1039.8,43,1041.4,44.6,1041.4,46.6z M1041.4,57.5c0,2-1.6,3.6-3.6,3.6
		c-2,0-3.6-1.6-3.6-3.6l0,0c0-2,1.6-3.6,3.6-3.6C1039.8,53.9,1041.4,55.5,1041.4,57.5z M1041.4,68.4c0,2-1.6,3.6-3.6,3.6
		c-2,0-3.6-1.6-3.6-3.6s1.6-3.6,3.6-3.6C1039.8,64.8,1041.4,66.4,1041.4,68.4z M1041.4,79.2c0,2-1.6,3.6-3.6,3.6
		c-2,0-3.6-1.6-3.6-3.6s1.6-3.6,3.6-3.6C1039.8,75.6,1041.4,77.2,1041.4,79.2z M1041.4,90.1c0,2-1.6,3.6-3.6,3.6
		c-2,0-3.6-1.6-3.6-3.6s1.6-3.6,3.6-3.6C1039.8,86.5,1041.4,88.1,1041.4,90.1z M1041.4,101c0,2-1.6,3.6-3.6,3.6
		c-2,0-3.6-1.6-3.6-3.6s1.6-3.6,3.6-3.6C1039.8,97.3,1041.4,99,1041.4,101z M1041.4,111.8c0,2-1.6,3.6-3.6,3.6c-2,0-3.6-1.6-3.6-3.6
		s1.6-3.6,3.6-3.6C1039.8,108.2,1041.4,109.8,1041.4,111.8z M1051.4,35.8c0,2-1.6,3.6-3.6,3.6c-2,0-3.6-1.6-3.6-3.6s1.6-3.6,3.6-3.6
		C1049.7,32.2,1051.4,33.8,1051.4,35.8z M1051.4,46.6c0,2-1.6,3.6-3.6,3.6c-2,0-3.6-1.6-3.6-3.6s1.6-3.6,3.6-3.6
		C1049.7,43,1051.4,44.6,1051.4,46.6z M1051.4,57.5c0,2-1.6,3.6-3.6,3.6c-2,0-3.6-1.6-3.6-3.6l0,0c0-2,1.6-3.6,3.6-3.6
		C1049.7,53.9,1051.4,55.5,1051.4,57.5z M1051.4,68.4c0,2-1.6,3.6-3.6,3.6c-2,0-3.6-1.6-3.6-3.6s1.6-3.6,3.6-3.6
		C1049.7,64.8,1051.4,66.4,1051.4,68.4z M1051.4,79.2c0,2-1.6,3.6-3.6,3.6c-2,0-3.6-1.6-3.6-3.6s1.6-3.6,3.6-3.6
		C1049.7,75.6,1051.4,77.2,1051.4,79.2z M1051.4,90.1c0,2-1.6,3.6-3.6,3.6c-2,0-3.6-1.6-3.6-3.6s1.6-3.6,3.6-3.6
		C1049.7,86.5,1051.4,88.1,1051.4,90.1z M1051.4,101c0,2-1.6,3.6-3.6,3.6c-2,0-3.6-1.6-3.6-3.6s1.6-3.6,3.6-3.6
		C1049.7,97.3,1051.4,99,1051.4,101z M1051.4,111.8c0,2-1.6,3.6-3.6,3.6c-2,0-3.6-1.6-3.6-3.6s1.6-3.6,3.6-3.6
		C1049.7,108.2,1051.4,109.8,1051.4,111.8z M1061.3,35.8c0,2-1.6,3.6-3.6,3.6s-3.6-1.6-3.6-3.6s1.6-3.6,3.6-3.6
		S1061.3,33.8,1061.3,35.8z M1061.3,46.6c0,2-1.6,3.6-3.6,3.6s-3.6-1.6-3.6-3.6s1.6-3.6,3.6-3.6S1061.3,44.6,1061.3,46.6z
		 M1061.3,57.5c0,2-1.6,3.6-3.6,3.6s-3.6-1.6-3.6-3.6l0,0c0-2,1.6-3.6,3.6-3.6S1061.3,55.5,1061.3,57.5z M1061.3,68.4
		c0,2-1.6,3.6-3.6,3.6s-3.6-1.6-3.6-3.6s1.6-3.6,3.6-3.6S1061.3,66.4,1061.3,68.4z M1061.3,79.2c0,2-1.6,3.6-3.6,3.6
		s-3.6-1.6-3.6-3.6s1.6-3.6,3.6-3.6S1061.3,77.2,1061.3,79.2z M1061.3,90.1c0,2-1.6,3.6-3.6,3.6s-3.6-1.6-3.6-3.6s1.6-3.6,3.6-3.6
		S1061.3,88.1,1061.3,90.1z M1061.3,101c0,2-1.6,3.6-3.6,3.6s-3.6-1.6-3.6-3.6s1.6-3.6,3.6-3.6S1061.3,99,1061.3,101z M1061.3,111.8
		c0,2-1.6,3.6-3.6,3.6s-3.6-1.6-3.6-3.6s1.6-3.6,3.6-3.6S1061.3,109.8,1061.3,111.8z M1071.3,35.8c0,2-1.6,3.6-3.6,3.6
		c-2,0-3.6-1.6-3.6-3.6s1.6-3.6,3.6-3.6C1069.6,32.2,1071.3,33.8,1071.3,35.8z M1071.3,46.6c0,2-1.6,3.6-3.6,3.6
		c-2,0-3.6-1.6-3.6-3.6s1.6-3.6,3.6-3.6C1069.6,43,1071.3,44.6,1071.3,46.6z M1071.3,57.5c0,2-1.6,3.6-3.6,3.6c-2,0-3.6-1.6-3.6-3.6
		l0,0c0-2,1.6-3.6,3.6-3.6C1069.6,53.9,1071.3,55.5,1071.3,57.5z M1071.3,68.4c0,2-1.6,3.6-3.6,3.6c-2,0-3.6-1.6-3.6-3.6
		s1.6-3.6,3.6-3.6C1069.6,64.8,1071.3,66.4,1071.3,68.4z M1071.3,79.2c0,2-1.6,3.6-3.6,3.6c-2,0-3.6-1.6-3.6-3.6s1.6-3.6,3.6-3.6
		C1069.6,75.6,1071.3,77.2,1071.3,79.2z M1071.3,90.1c0,2-1.6,3.6-3.6,3.6c-2,0-3.6-1.6-3.6-3.6s1.6-3.6,3.6-3.6
		C1069.6,86.5,1071.3,88.1,1071.3,90.1z M1071.3,101c0,2-1.6,3.6-3.6,3.6c-2,0-3.6-1.6-3.6-3.6s1.6-3.6,3.6-3.6
		C1069.6,97.3,1071.3,99,1071.3,101z M1071.3,111.8c0,2-1.6,3.6-3.6,3.6c-2,0-3.6-1.6-3.6-3.6s1.6-3.6,3.6-3.6
		C1069.6,108.2,1071.3,109.8,1071.3,111.8z M1081.2,46.6c0,2-1.6,3.6-3.6,3.6c-2,0-3.6-1.6-3.6-3.6s1.6-3.6,3.6-3.6
		C1079.6,43,1081.2,44.6,1081.2,46.6L1081.2,46.6z M1081.2,57.5c0,2-1.6,3.6-3.6,3.6c-2,0-3.6-1.6-3.6-3.6s1.6-3.6,3.6-3.6
		C1079.6,53.9,1081.2,55.5,1081.2,57.5z M1081.2,68.4c0,2-1.6,3.6-3.6,3.6c-2,0-3.6-1.6-3.6-3.6s1.6-3.6,3.6-3.6
		C1079.6,64.7,1081.2,66.4,1081.2,68.4z M1081.2,79.2c0,2-1.6,3.6-3.6,3.6c-2,0-3.6-1.6-3.6-3.6s1.6-3.6,3.6-3.6
		C1079.6,75.6,1081.2,77.2,1081.2,79.2z M1081.2,90.1c0,2-1.6,3.6-3.6,3.6c-2,0-3.6-1.6-3.6-3.6l0,0c0-2,1.6-3.6,3.6-3.6
		C1079.6,86.5,1081.2,88.1,1081.2,90.1L1081.2,90.1z M1081.2,101c0,2-1.6,3.6-3.6,3.7c-2,0-3.6-1.6-3.7-3.6c0,0,0-0.1,0-0.1
		c0-2,1.7-3.6,3.7-3.6C1079.6,97.4,1081.2,99,1081.2,101z M1081.2,111.8c0,2-1.6,3.6-3.6,3.7c-2,0-3.6-1.6-3.7-3.6c0,0,0-0.1,0-0.1
		c0-2,1.7-3.6,3.7-3.6C1079.6,108.3,1081.2,109.9,1081.2,111.8z M1091.2,57.5c0,2-1.6,3.6-3.6,3.6s-3.6-1.6-3.6-3.6l0,0
		c0-2,1.6-3.6,3.6-3.6S1091.2,55.5,1091.2,57.5z M1091.2,68.4c0,2-1.6,3.6-3.6,3.6s-3.6-1.6-3.6-3.6s1.6-3.6,3.6-3.6
		S1091.2,66.4,1091.2,68.4z M1091.2,79.2c0,2-1.6,3.6-3.6,3.6s-3.6-1.6-3.6-3.6s1.6-3.6,3.6-3.6S1091.2,77.2,1091.2,79.2z
		 M1091.2,90.1c0,2-1.6,3.6-3.6,3.6s-3.6-1.6-3.6-3.6s1.6-3.6,3.6-3.6S1091.2,88.1,1091.2,90.1z M1091.2,101c0,2-1.6,3.6-3.6,3.6
		s-3.6-1.6-3.6-3.6s1.6-3.6,3.6-3.6S1091.2,99,1091.2,101z M1142,64.3c0-6.7,5.4-12,12-12h46c6.7,0,12,5.4,12,12s-5.4,12-12,12h-46
		C1147.4,76.3,1142,71,1142,64.3L1142,64.3z M1151.9,86.3c5.4,0,9.8,4.4,9.8,9.8c0,5.4-4.4,9.8-9.8,9.8c-5.4,0-9.8-4.4-9.8-9.8
		c0,0,0,0,0,0C1142.1,90.7,1146.5,86.3,1151.9,86.3z M1181.4,86.3c5.4,0,9.8,4.4,9.8,9.8c0,5.4-4.4,9.8-9.8,9.8
		c-5.4,0-9.8-4.4-9.8-9.8C1171.6,90.7,1176,86.3,1181.4,86.3z M1694.1,10.1c0-5.6,4.5-10.1,10.1-10.1h139.3
		c5.6,0,10.1,4.5,10.1,10.1v139.4c0,5.6-4.5,10.1-10.1,10.1h-139.3c-5.6,0-10.1-4.5-10.1-10.1V10.1z"/>
	<path class="st4" d="M1720.7,0h106.4v41.5c0,5.5-4.4,9.9-9.9,9.9h-86.7c-5.4,0-9.9-4.4-9.9-9.9V0z"/>
	<path class="st4" d="M1793.4,23.1c0-4.9,4-8.9,8.9-8.9c4.9,0,8.9,4,8.9,8.9v5.3c0,4.9-4,8.9-8.9,8.9c-4.9,0-8.9-4-8.9-8.9V23.1z
		 M1827.1,126.7c0,5.5-4.4,9.9-9.9,9.9h-86.7c-5.4,0-9.9-4.4-9.9-9.9V79c0-5.5,4.4-9.9,9.9-9.9h86.7c5.4,0,9.9,4.4,9.9,9.9V126.7z
		 M163.5,10.1C163.5,4.5,168,0,173.6,0h193.9c5.6,0,10.1,4.5,10.1,10.1v139.4c0,5.6-4.5,10.1-10.1,10.1H173.6
		c-5.6,0-10.1-4.5-10.1-10.1C163.5,149.5,163.5,10.1,163.5,10.1z"/>
	<path class="st4" d="M305.5,4.2L235.6,30v124.9l69.9-25.8V4.2L305.5,4.2z"/>
	<path class="st4" d="M289.4,68.9c0,10.4-18.8,41-18.8,41s-18.8-30.6-18.8-41s8.4-18.8,18.8-18.8S289.4,58.5,289.4,68.9L289.4,68.9z
		"/>
	<path class="st4" d="M276,69.6c0,3-2.4,5.4-5.4,5.4s-5.4-2.4-5.4-5.4s2.4-5.4,5.4-5.4S276,66.6,276,69.6z M405,10.1
		C405,4.5,409.5,0,415.1,0h219.1c5.6,0,10.1,4.5,10.1,10.1v139.4c0,5.6-4.5,10.1-10.1,10.1H415.1c-5.6,0-10.1-4.5-10.1-10.1V10.1z"
		/>
	<path class="st4" d="M421.2,32.2c0-8,6.5-14.5,14.5-14.5h136.6c8,0,14.5,6.5,14.5,14.5v96.7c0,8-6.5,14.5-14.5,14.5H435.7
		c-8,0-14.5-6.5-14.5-14.5V32.2z M601.5,56.9c0-6.1,5-11.1,11.1-11.1c6.1,0,11.1,5,11.1,11.1c0,6.1-5,11.1-11.1,11.1
		C606.5,68,601.5,63,601.5,56.9z M601.5,28.8c0-6.1,5-11.1,11.1-11.1c6.1,0,11.1,5,11.1,11.1c0,6.1-5,11.1-11.1,11.1
		C606.5,39.9,601.5,34.9,601.5,28.8z M349.7,475c0-5.6,4.5-10.1,10.1-10.1h352.1c5.6,0,10.1,4.5,10.1,10.1v139.4
		c0,5.6-4.5,10.1-10.1,10.1H359.8c-5.6,0-10.1-4.5-10.1-10.1V475z"/>
	<path class="st4" d="M368.5,491.1c0-3.3,2.7-5.9,5.9-5.9H386c3.3,0,5.9,2.6,5.9,5.9v11.6c0,3.3-2.6,5.9-5.9,5.9h-11.6
		c-3.3,0-5.9-2.7-5.9-5.9l0,0V491.1z M402.9,491.1c0-3.3,2.6-5.9,5.9-5.9h11.6c3.3,0,5.9,2.6,5.9,5.9v11.6c0,3.3-2.7,5.9-5.9,5.9
		l0,0h-11.6c-3.3,0-5.9-2.7-5.9-5.9V491.1L402.9,491.1z M437.3,491.1c0-3.3,2.6-5.9,5.9-5.9h11.6c3.3,0,5.9,2.6,5.9,5.9v11.6
		c0,3.3-2.7,5.9-5.9,5.9l0,0h-11.6c-3.3,0-5.9-2.7-5.9-5.9V491.1z M471.7,491.1c0-3.3,2.7-5.9,5.9-5.9h11.6c3.3,0,5.9,2.6,5.9,5.9
		v11.6c0,3.3-2.6,5.9-5.9,5.9c0,0,0,0,0,0h-11.6c-3.3,0-5.9-2.7-5.9-5.9l0,0V491.1z M506.2,491.1c0-3.3,2.6-5.9,5.9-5.9h11.6
		c3.3,0,5.9,2.6,5.9,5.9v11.6c0,3.3-2.7,5.9-5.9,5.9l0,0h-11.6c-3.3,0-5.9-2.7-5.9-5.9V491.1z M540.6,491.1c0-3.3,2.7-5.9,5.9-5.9
		h11.6c3.3,0,5.9,2.6,5.9,5.9v11.6c0,3.3-2.6,5.9-5.9,5.9c0,0,0,0,0,0h-11.6c-3.3,0-5.9-2.7-5.9-5.9l0,0V491.1z M575,491.1
		c0-3.3,2.7-5.9,5.9-5.9h11.6c3.3,0,5.9,2.6,5.9,5.9v11.6c0,3.3-2.7,5.9-5.9,5.9l0,0h-11.6c-3.3,0-5.9-2.7-5.9-5.9l0,0V491.1z
		 M609.4,491.1c0-3.3,2.7-5.9,5.9-5.9H627c3.3,0,5.9,2.6,5.9,5.9v11.6c0,3.3-2.6,5.9-5.9,5.9h-11.6c-3.3,0-5.9-2.7-5.9-5.9l0,0
		V491.1z M643.8,491.1c0-3.3,2.7-5.9,5.9-5.9h11.6c3.3,0,5.9,2.6,5.9,5.9v11.6c0,3.3-2.7,5.9-5.9,5.9l0,0h-11.6
		c-3.3,0-5.9-2.7-5.9-5.9l0,0V491.1z M678.3,491.1c0-3.3,2.6-5.9,5.9-5.9l0,0h11.6c3.3,0,5.9,2.6,5.9,5.9v11.6
		c0,3.3-2.7,5.9-5.9,5.9l0,0h-11.6c-3.3,0-5.9-2.6-5.9-5.9c0,0,0,0,0,0V491.1z M368.5,524c0-3.3,2.7-5.9,5.9-5.9l0,0H386
		c3.3,0,5.9,2.7,5.9,5.9v11.6c0,3.3-2.6,5.9-5.9,5.9h-11.6c-3.3,0-5.9-2.7-5.9-5.9l0,0V524z M402.9,524c0-3.3,2.6-5.9,5.9-5.9h11.6
		c3.3,0,5.9,2.7,5.9,5.9l0,0v11.6c0,3.3-2.7,5.9-5.9,5.9l0,0h-11.6c-3.3,0-5.9-2.7-5.9-5.9V524L402.9,524z M437.3,524
		c0-3.3,2.6-5.9,5.9-5.9h11.6c3.3,0,5.9,2.7,5.9,5.9l0,0v11.6c0,3.3-2.7,5.9-5.9,5.9l0,0h-11.6c-3.3,0-5.9-2.7-5.9-5.9V524z
		 M471.7,524c0-3.3,2.7-5.9,5.9-5.9l0,0h11.6c3.3,0,5.9,2.6,5.9,5.9c0,0,0,0,0,0v11.6c0,3.3-2.6,5.9-5.9,5.9c0,0,0,0,0,0h-11.6
		c-3.3,0-5.9-2.7-5.9-5.9l0,0V524z M506.2,524c0-3.3,2.6-5.9,5.9-5.9h11.6c3.3,0,5.9,2.7,5.9,5.9l0,0v11.6c0,3.3-2.7,5.9-5.9,5.9
		l0,0h-11.6c-3.3,0-5.9-2.7-5.9-5.9V524z M540.6,524c0-3.3,2.7-5.9,5.9-5.9l0,0h11.6c3.3,0,5.9,2.6,5.9,5.9c0,0,0,0,0,0v11.6
		c0,3.3-2.6,5.9-5.9,5.9c0,0,0,0,0,0h-11.6c-3.3,0-5.9-2.7-5.9-5.9l0,0V524z M575,524c0-3.3,2.7-5.9,5.9-5.9l0,0h11.6
		c3.3,0,5.9,2.7,5.9,5.9l0,0v11.6c0,3.3-2.7,5.9-5.9,5.9l0,0h-11.6c-3.3,0-5.9-2.7-5.9-5.9l0,0V524z M609.4,524
		c0-3.3,2.7-5.9,5.9-5.9l0,0H627c3.3,0,5.9,2.7,5.9,5.9v11.6c0,3.3-2.6,5.9-5.9,5.9h-11.6c-3.3,0-5.9-2.7-5.9-5.9l0,0V524z
		 M643.8,524c0-3.3,2.7-5.9,5.9-5.9l0,0h11.6c3.3,0,5.9,2.7,5.9,5.9l0,0v11.6c0,3.3-2.7,5.9-5.9,5.9l0,0h-11.6
		c-3.3,0-5.9-2.7-5.9-5.9l0,0V524z M678.3,524c0-3.3,2.6-5.9,5.9-5.9c0,0,0,0,0,0h11.6c3.3,0,5.9,2.7,5.9,5.9l0,0v11.6
		c0,3.3-2.7,5.9-5.9,5.9l0,0h-11.6c-3.3,0-5.9-2.6-5.9-5.9c0,0,0,0,0,0V524z M437.3,556.8c0-3.3,2.6-5.9,5.9-5.9h11.6
		c3.3,0,5.9,2.7,5.9,5.9l0,0v11.6c0,3.3-2.7,5.9-5.9,5.9h-11.6c-3.3,0-5.9-2.6-5.9-5.9V556.8z M471.7,556.8c0-3.3,2.7-5.9,5.9-5.9
		l0,0h11.6c3.3,0,5.9,2.6,5.9,5.9c0,0,0,0,0,0v11.6c0,3.3-2.6,5.9-5.9,5.9h0h-11.6c-3.3,0-5.9-2.6-5.9-5.9V556.8z M506.2,556.8
		c0-3.3,2.6-5.9,5.9-5.9h11.6c3.3,0,5.9,2.7,5.9,5.9l0,0v11.6c0,3.3-2.7,5.9-5.9,5.9h-11.6c-3.3,0-5.9-2.6-5.9-5.9V556.8z
		 M540.6,556.8c0-3.3,2.7-5.9,5.9-5.9l0,0h11.6c3.3,0,5.9,2.6,5.9,5.9c0,0,0,0,0,0v11.6c0,3.3-2.6,5.9-5.9,5.9l0,0h-11.6
		c-3.3,0-5.9-2.6-5.9-5.9V556.8z M575,556.8c0-3.3,2.7-5.9,5.9-5.9l0,0h11.6c3.3,0,5.9,2.7,5.9,5.9l0,0v11.6c0,3.3-2.7,5.9-5.9,5.9
		h-11.6c-3.3,0-5.9-2.6-5.9-5.9V556.8z M609.4,556.8c0-3.3,2.7-5.9,5.9-5.9l0,0H627c3.3,0,5.9,2.7,5.9,5.9v11.6
		c0,3.3-2.6,5.9-5.9,5.9h-11.6c-3.3,0-5.9-2.6-5.9-5.9V556.8z M368.5,589.7c0-3.3,2.7-5.9,5.9-5.9H386c3.3,0,5.9,2.6,5.9,5.9v11.6
		c0,3.3-2.6,5.9-5.9,5.9h-11.6c-3.3,0-5.9-2.7-5.9-5.9l0,0V589.7z M402.9,589.7c0-3.3,2.6-5.9,5.9-5.9h11.6c3.3,0,5.9,2.6,5.9,5.9
		v11.6c0,3.3-2.7,5.9-5.9,5.9l0,0h-11.6c-3.3,0-5.9-2.7-5.9-5.9V589.7L402.9,589.7z M643.8,589.7c0-3.3,2.7-5.9,5.9-5.9h11.6
		c3.3,0,5.9,2.6,5.9,5.9v11.6c0,3.3-2.7,5.9-5.9,5.9l0,0h-11.6c-3.3,0-5.9-2.7-5.9-5.9l0,0V589.7z M678.3,589.7
		c0-3.3,2.6-5.9,5.9-5.9h0h11.6c3.3,0,5.9,2.6,5.9,5.9v11.6c0,3.3-2.7,5.9-5.9,5.9l0,0h-11.6c-3.3,0-5.9-2.6-5.9-5.9c0,0,0,0,0,0
		V589.7z M437.3,589.7c0-3.3,2.6-5.9,5.9-5.9H627c3.3,0,5.9,2.6,5.9,5.9v11.6c0,3.3-2.7,5.9-5.9,5.9l0,0H443.2
		c-3.3,0-5.9-2.7-5.9-5.9V589.7z M643.8,556.8c0-3.3,2.7-5.9,5.9-5.9l0,0h46.1c3.3,0,5.9,2.7,5.9,5.9l0,0v11.6
		c0,3.3-2.7,5.9-5.9,5.9h-46.1c-3.3,0-5.9-2.6-5.9-5.9V556.8z M368.5,556.8c0-3.3,2.7-5.9,5.9-5.9l0,0h46.1c3.3,0,5.9,2.7,5.9,5.9
		l0,0v11.6c0,3.3-2.7,5.9-5.9,5.9h-46.1c-3.3,0-5.9-2.6-5.9-5.9V556.8z M749.4,475c0-5.6,4.5-10.1,10.1-10.1h205.9
		c5.6,0,10.1,4.5,10.1,10.1v139.4c0,5.6-4.5,10.1-10.1,10.1H759.5c-5.6,0-10.1-4.5-10.1-10.1V475z"/>
	<path class="st4" d="M934.5,579.4c6.2,0,11.3,5.1,11.3,11.3c0,6.2-5.1,11.3-11.3,11.3c-6.2,0-11.3-5.1-11.3-11.3
		C923.2,584.4,928.3,579.4,934.5,579.4z M861,579.4c6.2,0,11.3,5.1,11.3,11.3c0,6.2-5.1,11.3-11.3,11.3c-6.2,0-11.3-5.1-11.3-11.3
		C849.7,584.4,854.8,579.4,861,579.4z M788.9,579.4c6.2,0,11.3,5.1,11.3,11.3c0,6.2-5.1,11.3-11.3,11.3s-11.3-5.1-11.3-11.3
		C777.6,584.4,782.7,579.4,788.9,579.4z M861,532.7c6.2,0,11.3,5.1,11.3,11.3s-5.1,11.3-11.3,11.3c-6.2,0-11.3-5.1-11.3-11.3
		S854.8,532.7,861,532.7z M934.5,532.7c6.2,0,11.3,5.1,11.3,11.3s-5.1,11.3-11.3,11.3c-6.2,0-11.3-5.1-11.3-11.3
		S928.3,532.7,934.5,532.7z M934.5,487.5c6.2,0,11.3,5.1,11.3,11.3c0,6.2-5.1,11.3-11.3,11.3c-6.2,0-11.3-5.1-11.3-11.3
		C923.2,492.6,928.3,487.5,934.5,487.5z M788.9,532.7c6.2,0,11.3,5.1,11.3,11.3s-5.1,11.3-11.3,11.3s-11.3-5.1-11.3-11.3
		S782.7,532.7,788.9,532.7z M861,487.5c6.2,0,11.3,5.1,11.3,11.3c0,6.2-5.1,11.3-11.3,11.3c-6.2,0-11.3-5.1-11.3-11.3
		C849.7,492.6,854.8,487.5,861,487.5z M788.9,487.5c6.2,0,11.3,5.1,11.3,11.3c0,6.2-5.1,11.3-11.3,11.3s-11.3-5.1-11.3-11.3
		C777.6,492.6,782.7,487.5,788.9,487.5z M162.4,475c0-5.6,4.5-10.1,10.1-10.1h139.4c5.6,0,10.1,4.5,10.1,10.1v139.4
		c0,5.6-4.5,10.1-10.1,10.1H172.5c-5.6,0-10.1-4.5-10.1-10.1V475z"/>
	<path class="st4" d="M189,474.7c0-5.5,4.4-9.9,9.9-9.9h86.6c5.5,0,9.9,4.4,9.9,9.9v31.7c0,5.5-4.4,9.9-9.9,9.9h-86.6
		c-5.5,0-9.9-4.4-9.9-9.9C189,506.4,189,474.7,189,474.7z"/>
	<path class="st4" d="M261.7,487.9c0-4.9,4-8.9,8.9-8.9c4.9,0,8.9,4,8.9,8.9c0,0,0,0,0,0v5.3c0,4.9-4,8.9-8.9,8.9c0,0,0,0,0,0
		c-4.9,0-8.9-4-8.9-8.9V487.9z M295.3,591.5c0,5.5-4.4,9.9-9.9,9.9h-86.6c-5.5,0-9.9-4.4-9.9-9.9v-47.6c0-5.5,4.4-9.9,9.9-9.9h86.6
		c5.5,0,9.9,4.4,9.9,9.9V591.5z M1795.7,475c0-5.6,4.5-10.1,10.1-10.1h193.9c5.6,0,10.1,4.5,10.1,10.1v139.4
		c0,5.6-4.5,10.1-10.1,10.1h-193.9c-5.6,0-10.1-4.5-10.1-10.1L1795.7,475L1795.7,475z"/>
	<path class="st4" d="M1937.7,469.1l-69.9,25.8v124.9l69.9-25.8V469.1L1937.7,469.1z"/>
	<path class="st4" d="M1921.6,533.8c0,10.4-18.8,41-18.8,41s-18.8-30.6-18.8-41s8.4-18.8,18.8-18.8
		C1913.1,514.9,1921.6,523.4,1921.6,533.8z"/>
	<path class="st4" d="M1908.1,534.4c-0.1,3-2.5,5.3-5.5,5.3c-2.9-0.1-5.2-2.4-5.3-5.3c0.1-3,2.5-5.3,5.5-5.3
		C1905.7,529.2,1908.1,531.6,1908.1,534.4z M1511.2,475c0-5.6,4.5-10.1,10.1-10.1h237c5.6,0,10.1,4.5,10.1,10.1v139.4
		c0,5.6-4.5,10.1-10.1,10.1h-237c-5.6,0-10.1-4.5-10.1-10.1V475z M1003.3,475c0-5.6,4.5-10.1,10.1-10.1h193.9
		c5.6,0,10.1,4.5,10.1,10.1v139.4c0,5.6-4.5,10.1-10.1,10.1h-193.9c-5.6,0-10.1-4.5-10.1-10.1V475z"/>
	<path class="st4" d="M1145.3,469.1l-69.9,25.8v124.9l69.9-25.8V469.1L1145.3,469.1z"/>
	<path class="st4" d="M1129.2,533.8c0,10.4-18.8,41-18.8,41s-18.8-30.6-18.8-41s8.4-18.8,18.8-18.8S1129.2,523.4,1129.2,533.8
		L1129.2,533.8z"/>
	<path class="st4" d="M1115.7,534.4c0,3-2.4,5.4-5.4,5.4c-3,0-5.4-2.4-5.4-5.4s2.4-5.4,5.4-5.4
		C1113.3,529.1,1115.7,531.5,1115.7,534.4z M1244.8,475c0-5.6,4.5-10.1,10.1-10.1H1474c5.6,0,10.1,4.5,10.1,10.1v139.4
		c0,5.6-4.5,10.1-10.1,10.1h-219.1c-5.6,0-10.1-4.5-10.1-10.1V475z"/>
	<path class="st4" d="M1261,497.1c0-8,6.5-14.5,14.4-14.5H1412c8,0,14.5,6.5,14.5,14.5v96.7c0,8-6.5,14.5-14.5,14.5h-136.6
		c-8,0-14.4-6.5-14.4-14.5V497.1L1261,497.1z M1441.3,521.8c0-6.1,5-11.1,11.1-11.1s11.1,5,11.1,11.1c0,6.1-5,11.1-11.1,11.1
		S1441.3,527.9,1441.3,521.8z M1441.3,493.7c0-6.1,5-11.1,11.1-11.1s11.1,5,11.1,11.1c0,6.1-5,11.1-11.1,11.1
		S1441.3,499.8,1441.3,493.7z M335.5,796.9c0-3.3,2.7-5.9,5.9-5.9h0h61c3.3,0,5.9,2.7,5.9,5.9l0,0v62.8c0,3.3-2.6,5.9-5.9,5.9
		c0,0,0,0,0,0h-61c-3.3,0-5.9-2.6-5.9-5.9c0,0,0,0,0,0V796.9L335.5,796.9z"/>
	<path class="st4" d="M219.3,662.3c0-5.6,4.5-10.1,10.1-10.1h227.8c5.6,0,10.1,4.5,10.1,10.1v229.5c0,5.6-4.5,10.1-10.1,10.1H229.4
		c-5.6,0-10.1-4.5-10.1-10.1V662.3z"/>
	<path class="st4" d="M240.1,829.7c0-7,5.7-12.7,12.7-12.7s12.7,5.7,12.7,12.7s-5.7,12.7-12.7,12.7S240.1,836.7,240.1,829.7z
		 M240.1,791.5c0-7,5.7-12.7,12.7-12.7s12.7,5.7,12.7,12.7c0,7-5.7,12.7-12.7,12.7S240.1,798.5,240.1,791.5z M1347.1,796.9
		c0-3.3,2.7-5.9,5.9-5.9h61c3.3,0,5.9,2.6,5.9,5.9v62.8c0,3.3-2.6,5.9-5.9,5.9c0,0,0,0,0,0h-61c-3.3,0-5.9-2.7-5.9-5.9V796.9z"/>
	<path class="st4" d="M1230.9,662.3c0-5.6,4.5-10.1,10.1-10.1h227.8c5.6,0,10.1,4.5,10.1,10.1v229.5c0,5.6-4.5,10.1-10.1,10.1H1241
		c-5.6,0-10.1-4.5-10.1-10.1L1230.9,662.3L1230.9,662.3z"/>
	<path class="st4" d="M1251.7,829.7c0-7,5.7-12.7,12.7-12.7c7,0,12.7,5.7,12.7,12.7s-5.7,12.7-12.7,12.7
		C1257.4,842.4,1251.7,836.7,1251.7,829.7z M1251.7,791.5c0-7,5.7-12.7,12.7-12.7c7,0,12.7,5.7,12.7,12.7s-5.7,12.7-12.7,12.7
		C1257.4,804.2,1251.7,798.5,1251.7,791.5z M495.4,662.3c0-5.6,4.5-10.1,10.1-10.1H676c5.6,0,10.1,4.5,10.1,10.1v229.5
		c0,5.6-4.5,10.1-10.1,10.1H505.5c-5.6,0-10.1-4.5-10.1-10.1L495.4,662.3L495.4,662.3z"/>
	<path class="st4" d="M565.8,767c0-2.4,1.9-4.3,4.3-4.3h43.6c2.4,0,4.3,1.9,4.3,4.3v36.7c0,2.4-1.9,4.3-4.3,4.3h-43.6
		c-2.4,0-4.3-1.9-4.3-4.3V767z"/>
	<path class="st4" d="M606.7,753.8c0,6.9-5.6,12.5-12.5,12.5h-4.5c-6.9,0-12.5-5.6-12.5-12.5c0-8.2,6.6-14.8,14.8-14.8
		C600.1,739,606.7,745.6,606.7,753.8z"/>
	<path class="st4" d="M658.9,777.1c0,37.6-30.5,68.1-68.1,68.1c-37.6,0-68.1-30.5-68.1-68.1s30.5-68.1,68.1-68.1
		S658.9,739.5,658.9,777.1L658.9,777.1z"/>
	<path class="st4" d="M648.9,777.2c0,31.9-26.2,57.7-58.5,57.7c-32.3,0-58.5-25.8-58.5-57.7c0-31.9,26.2-57.7,58.5-57.7
		C622.7,719.5,648.9,745.3,648.9,777.2z M1634.7,652.2c5.6,0,10.1,4.5,10.1,10.1v229.5c0,5.6-4.5,10.1-10.1,10.1h-117.6
		c-5.6,0-10.1-4.5-10.1-10.1V662.3c0-5.6,4.5-10.1,10.1-10.1H1634.7z"/>
	<path class="st4" d="M1565.6,720.3c0-5.2,4.2-9.5,9.5-9.5c5.2,0,9.5,4.2,9.5,9.5c0,5.2-4.2,9.5-9.5,9.5
		C1569.8,729.7,1565.6,725.5,1565.6,720.3z"/>
	<path class="st4" d="M1617.3,721.1c0,23.8-19.3,43.1-43.1,43.1c-23.8,0-43.1-19.3-43.1-43.1s19.3-43.1,43.1-43.1
		C1598,678.1,1617.3,697.3,1617.3,721.1z"/>
	<path class="st4" d="M1608.7,721.1c0,19-15.4,34.5-34.4,34.5c-19,0-34.5-15.4-34.5-34.5s15.4-34.5,34.5-34.5
		C1593.2,686.7,1608.7,702.1,1608.7,721.1z M1565.6,832.2c0-5.2,4.2-9.5,9.5-9.5c5.2,0,9.5,4.2,9.5,9.5s-4.2,9.5-9.5,9.5
		C1569.8,841.7,1565.6,837.5,1565.6,832.2z"/>
	<path class="st4" d="M1617.3,833.1c0,23.8-19.3,43.1-43.1,43.1c-23.8,0-43.1-19.3-43.1-43.1c0-23.8,19.3-43.1,43.1-43.1
		C1598,790,1617.3,809.3,1617.3,833.1z"/>
	<path class="st4" d="M1608.7,833.1c0,19-15.4,34.5-34.4,34.5c-19,0-34.5-15.4-34.5-34.5c0-19,15.4-34.5,34.5-34.5
		C1593.2,798.6,1608.7,814.1,1608.7,833.1z M713.3,662.3c0-5.6,4.5-10.1,10.1-10.1h304.9c5.6,0,10.1,4.5,10.1,10.1v229.5
		c0,5.6-4.5,10.1-10.1,10.1H723.4c-5.6,0-10.1-4.5-10.1-10.1V662.3z"/>
	<path class="st4" d="M713.3,662.1c0-5.4,4.4-9.9,9.9-9.9h305.4c5.4,0,9.9,4.4,9.9,9.9v230.1c0,5.4-4.4,9.9-9.9,9.9H723.1
		c-5.4,0-9.9-4.4-9.9-9.9V662.1z"/>
	<path class="st4" d="M733.5,678.8c0-4.6,3.7-8.3,8.3-8.3s8.3,3.7,8.3,8.3s-3.7,8.3-8.3,8.3S733.5,683.4,733.5,678.8z M755.5,678.8
		c0-4.6,3.7-8.3,8.3-8.3s8.3,3.7,8.3,8.3s-3.7,8.3-8.3,8.3S755.5,683.4,755.5,678.8z M777.6,678.8c0-4.6,3.7-8.3,8.3-8.3
		s8.3,3.7,8.3,8.3c0,0,0,0,0,0c0,4.6-3.7,8.3-8.3,8.3C781.3,687.1,777.6,683.4,777.6,678.8z M733.5,724.5c0-5.4,4.4-9.9,9.9-9.9
		h40.9c5.4,0,9.9,4.4,9.9,9.9v147.4c0,5.4-4.4,9.9-9.9,9.9h-40.9c-5.4,0-9.9-4.4-9.9-9.9V724.5z M806.9,724.5c0-5.4,4.4-9.9,9.9-9.9
		h191.5c5.4,0,9.9,4.4,9.9,9.9v147.4c0,5.4-4.4,9.9-9.9,9.9H816.8c-5.4,0-9.9-4.4-9.9-9.9V724.5z M1193.4,652.2
		c5.6,0,10.1,4.5,10.1,10.1v229.5c0,5.6-4.5,10.1-10.1,10.1h-117.6c-5.6,0-10.1-4.5-10.1-10.1V662.3c0-5.6,4.5-10.1,10.1-10.1
		H1193.4L1193.4,652.2z M1672.2,662.3c0-5.6,4.5-10.1,10.1-10.1h122.1c5.6,0,10.1,4.5,10.1,10.1v229.5c0,5.6-4.5,10.1-10.1,10.1
		h-122.1c-5.6,0-10.1-4.5-10.1-10.1V662.3z"/>
	<path class="st4" d="M1686.2,676.1c0-5.4,4.4-9.9,9.9-9.9h16.8c2.8,0,5.5,1.2,7.3,3.3l3.1,3.5c1.9,2.1,4.5,3.3,7.3,3.3h29.3
		c2.8,0,5.5-1.2,7.3-3.3l3.1-3.5c1.9-2.1,4.5-3.3,7.3-3.3h12.8c5.4,0,9.9,4.4,9.9,9.9v199c0,5.4-4.4,9.9-9.9,9.9h-94.5
		c-5.4,0-9.9-4.4-9.9-9.9V676.1z"/>
	<path class="st4" d="M1704.2,704.2c0-3.3,2.7-5.9,5.9-5.9h22.2c3.3,0,5.9,2.7,5.9,5.9v22.2c0,3.3-2.6,5.9-5.9,5.9h-22.2
		c-3.3,0-5.9-2.6-5.9-5.9V704.2z M1748.3,704.2c0-3.3,2.6-5.9,5.9-5.9h22.2c3.3,0,5.9,2.6,5.9,5.9v22.2c0,3.3-2.7,5.9-5.9,5.9h-22.2
		c-3.3,0-5.9-2.7-5.9-5.9V704.2z M1704.2,746.3c0-3.3,2.7-5.9,5.9-5.9h22.2c3.3,0,5.9,2.7,5.9,5.9v22.2c0,3.3-2.6,5.9-5.9,5.9h-22.2
		c-3.3,0-5.9-2.6-5.9-5.9V746.3z M1748.3,746.3c0-3.3,2.6-5.9,5.9-5.9h22.2c3.3,0,5.9,2.6,5.9,5.9v22.2c0,3.3-2.7,5.9-5.9,5.9h-22.2
		c-3.3,0-5.9-2.7-5.9-5.9V746.3z M1704.2,788.4c0-3.3,2.6-5.9,5.9-5.9c0,0,0,0,0,0h22.2c3.3,0,5.9,2.6,5.9,5.9v22.2
		c0,3.3-2.6,5.9-5.9,5.9h-22.2c-3.3,0-5.9-2.6-5.9-5.9V788.4z M1748.3,788.4c0-3.3,2.6-5.9,5.9-5.9h22.2c3.3,0,5.9,2.6,5.9,5.9v22.2
		c0,3.3-2.7,5.9-5.9,5.9h-22.2c-3.3,0-5.9-2.7-5.9-5.9V788.4z M1704.2,830.5c0-3.3,2.7-5.9,5.9-5.9h22.2c3.3,0,5.9,2.7,5.9,5.9v22.2
		c0,3.3-2.6,5.9-5.9,5.9h-22.2c-3.3,0-5.9-2.6-5.9-5.9c0,0,0,0,0,0V830.5z M1748.3,830.5c0-3.3,2.6-5.9,5.9-5.9h22.2
		c3.3,0,5.9,2.6,5.9,5.9v22.2c0,3.3-2.6,5.9-5.9,5.9c0,0,0,0,0,0h-22.2c-3.3,0-5.9-2.7-5.9-5.9V830.5z M1842.8,662.3
		c0-5.6,4.5-10.1,10.1-10.1h170.5c5.6,0,10.1,4.5,10.1,10.1v229.5c0,5.6-4.5,10.1-10.1,10.1H1853c-5.6,0-10.1-4.5-10.1-10.1V662.3z"
		/>
	<path class="st4" d="M1913.2,767c0-2.4,1.9-4.3,4.3-4.3h43.6c2.4,0,4.3,1.9,4.3,4.3v36.7c0,2.4-1.9,4.3-4.3,4.3h-43.6
		c-2.4,0-4.3-1.9-4.3-4.3V767z"/>
	<path class="st4" d="M1954.1,753.8c0,6.9-5.6,12.5-12.5,12.5h-4.5c-6.9,0-12.5-5.6-12.5-12.5c0-8.2,6.6-14.8,14.8-14.8
		S1954.1,745.6,1954.1,753.8z"/>
	<path class="st4" d="M2006.3,777.1c0,37.6-30.5,68.1-68.1,68.1c-37.6,0-68.1-30.5-68.1-68.1s30.5-68.1,68.1-68.1
		C1975.8,709,2006.3,739.5,2006.3,777.1z"/>
	<path class="st4" d="M1996.3,777.2c0,31.9-26.2,57.7-58.5,57.7c-32.3,0-58.5-25.8-58.5-57.7c0-31.9,26.2-57.7,58.5-57.7
		C1970.2,719.5,1996.3,745.3,1996.3,777.2z"/>
</mask>
<g class="st5">
	<path class="st6" d="M726.5-34H0l205,343.2L726.5-34L726.5-34z"/>
	<path class="st7" d="M0,636.8V-34l205.5,343.2L0,636.8L0,636.8z"/>
	<path class="st8" d="M0,636.8l962.7-243.4l-757.2-84.2L0,636.8L0,636.8z"/>
	<path class="st8" d="M0,636.8l962.7-243.4l-757.2-84.2L0,636.8L0,636.8z"/>
	<path class="st6" d="M0,636.8l962.7-243.4L883.4,952L0,636.8L0,636.8z"/>
	<path class="st6" d="M0,636.8l962.7-243.4L883.4,952L0,636.8L0,636.8z"/>
	<path class="st9" d="M1521.6,652.4l-558.9-259L883.4,952L1521.6,652.4z"/>
	<path class="st9" d="M1521.6,652.4l-558.9-259L883.4,952L1521.6,652.4z"/>
	<path class="st6" d="M1521.6,652.4L1701.9,952H883.4L1521.6,652.4z"/>
	<path class="st6" d="M1521.6,652.4L1701.9,952H883.4L1521.6,652.4z"/>
	<path class="st8" d="M1521.6,652.4L1701.9,952h479.6L1521.6,652.4z"/>
	<path class="st8" d="M1521.6,652.4L1701.9,952h479.6L1521.6,652.4z"/>
	<path class="st9" d="M1521.6,652.4l659.8-552.3V952L1521.6,652.4z"/>
	<path class="st9" d="M1521.6,652.4l659.8-552.3V952L1521.6,652.4z"/>
	<path class="st9" d="M1521.6,652.4l659.8-552.3V952L1521.6,652.4z"/>
	<path class="st9" d="M1521.6,652.4l659.8-552.3V952L1521.6,652.4z"/>
	<path class="st6" d="M1521.6,652.4l659.8-552.3l-811.3,271.5L1521.6,652.4z"/>
	<path class="st6" d="M1521.6,652.4l659.8-552.3l-811.3,271.5L1521.6,652.4z"/>
	<path class="st6" d="M1521.6,652.4l659.8-552.3l-811.3,271.5L1521.6,652.4z"/>
	<path class="st6" d="M1521.6,652.4l659.8-552.3l-811.3,271.5L1521.6,652.4z"/>
	<path class="st8" d="M1139.4-43.4l1042,143.5l-811.3,271.5L1139.4-43.4z"/>
	<path class="st8" d="M1139.4-43.4l1042,143.5l-811.3,271.5L1139.4-43.4z"/>
	<path class="st8" d="M1139.4-43.4l1042,143.5l-811.3,271.5L1139.4-43.4z"/>
	<path class="st8" d="M1139.4-43.4l1042,143.5l-811.3,271.5L1139.4-43.4z"/>
	<path class="st9" d="M1139.4-43.4l1042,143.5V-43.4H1139.4z"/>
	<path class="st9" d="M1139.4-43.4l1042,143.5V-43.4H1139.4z"/>
	<path class="st9" d="M1139.4-43.4l1042,143.5V-43.4H1139.4z"/>
	<path class="st9" d="M1139.4-43.4l1042,143.5V-43.4H1139.4z"/>
	<path class="st8" d="M782.4-77.7l180.3,471.1l212.7-471.1H782.4z"/>
	<path class="st8" d="M782.4-77.7l180.3,471.1l212.7-471.1H782.4z"/>
	<path class="st7" d="M0,636.8V952h883.4L0,636.8L0,636.8z"/>
	<path class="st7" d="M0,636.8V952h883.4L0,636.8L0,636.8z"/>
	<path class="st9" d="M793.3-77.7l169.5,471.1l-757.2-84.2L793.3-77.7L793.3-77.7z"/>
	<path class="st9" d="M793.3-77.7l169.5,471.1l-757.2-84.2L793.3-77.7L793.3-77.7z"/>
	<path class="st7" d="M1521.6,652.4l-558.9-259l187.5-449.3L1521.6,652.4z"/>
	<path class="st7" d="M1521.6,652.4l-558.9-259l187.5-449.3L1521.6,652.4z"/>
	<path class="st10" d="M1742,197.5c0-5.6,4.5-10.1,10.1-10.1h170.5c5.6,0,10.1,4.5,10.1,10.1V427c0,5.6-4.5,10.1-10.1,10.1h-170.5
		c-5.6,0-10.1-4.5-10.1-10.1V197.5z"/>
	<defs>
		<filter id="Adobe_OpacityMaskFilter_1_" filterUnits="userSpaceOnUse" x="1807.4" y="292.8" width="62.2" height="55.4">
			<feColorMatrix  type="matrix" values="1 0 0 0 0  0 1 0 0 0  0 0 1 0 0  0 0 0 1 0"/>
		</filter>
	</defs>
	<mask maskUnits="userSpaceOnUse" x="1807.4" y="292.8" width="62.2" height="55.4" id="c_1_">
		<path class="st11" d="M1812.4,302.1c0-2.4,1.9-4.3,4.3-4.3h43.6c2.4,0,4.3,1.9,4.3,4.3v36.7c0,2.4-1.9,4.3-4.3,4.3h-43.6
			c-2.4,0-4.3-1.9-4.3-4.3V302.1z"/>
	</mask>
	<path class="st12" d="M1812.4,302.1c0-2.4,1.9-4.3,4.3-4.3h43.6c2.4,0,4.3,1.9,4.3,4.3v36.7c0,2.4-1.9,4.3-4.3,4.3h-43.6
		c-2.4,0-4.3-1.9-4.3-4.3V302.1z"/>
	<defs>
		<filter id="Adobe_OpacityMaskFilter_2_" filterUnits="userSpaceOnUse" x="1907" y="763.7" width="62.2" height="55.4">
			<feColorMatrix  type="matrix" values="1 0 0 0 0  0 1 0 0 0  0 0 1 0 0  0 0 0 1 0"/>
		</filter>
	</defs>
	<mask maskUnits="userSpaceOnUse" x="1907" y="763.7" width="62.2" height="55.4" id="c_2_">
		<path class="st13" d="M1912,773c0-2.4,1.9-4.3,4.3-4.3h43.6c2.4,0,4.3,1.9,4.3,4.3v36.7c0,2.4-1.9,4.3-4.3,4.3h-43.6
			c-2.4,0-4.3-1.9-4.3-4.3V773z"/>
	</mask>
	<path class="st14" d="M1912,773c0-2.4,1.9-4.3,4.3-4.3h43.6c2.4,0,4.3,1.9,4.3,4.3v36.7c0,2.4-1.9,4.3-4.3,4.3h-43.6
		c-2.4,0-4.3-1.9-4.3-4.3V773z"/>
	<defs>
		<filter id="Adobe_OpacityMaskFilter_3_" filterUnits="userSpaceOnUse" x="1818.7" y="269.1" width="39.5" height="37.2">
			<feColorMatrix  type="matrix" values="1 0 0 0 0  0 1 0 0 0  0 0 1 0 0  0 0 0 1 0"/>
		</filter>
	</defs>
	<mask maskUnits="userSpaceOnUse" x="1818.7" y="269.1" width="39.5" height="37.2" id="d_1_">
		<path class="st15" d="M1853.2,301.4h-29.5v-12.5c0-8.2,6.6-14.8,14.8-14.8s14.8,6.6,14.8,14.8V301.4z"/>
	</mask>
	<path class="st16" d="M1853.2,301.4h-29.5v-12.5c0-8.2,6.6-14.8,14.8-14.8s14.8,6.6,14.8,14.8V301.4z"/>
	<defs>
		<filter id="Adobe_OpacityMaskFilter_4_" filterUnits="userSpaceOnUse" x="1919.4" y="739.8" width="39.5" height="37.2">
			<feColorMatrix  type="matrix" values="1 0 0 0 0  0 1 0 0 0  0 0 1 0 0  0 0 0 1 0"/>
		</filter>
	</defs>
	<mask maskUnits="userSpaceOnUse" x="1919.4" y="739.8" width="39.5" height="37.2" id="d_2_">
		<path class="st17" d="M1953.9,772h-29.5v-12.5c0-8.2,6.6-14.8,14.8-14.8s14.8,6.6,14.8,14.8V772z"/>
	</mask>
	<path class="st18" d="M1953.9,772h-29.5v-12.5c0-8.2,6.6-14.8,14.8-14.8s14.8,6.6,14.8,14.8V772z"/>
	<circle class="st19" cx="1837.4" cy="312.2" r="65.6"/>
	<path class="st19" d="M1893,312.3c0,30.5-25,55.2-56,55.2s-56-24.8-56-55.2c0-30.5,25-55.2,56-55.2S1893,281.8,1893,312.3z"/>
	<path class="st20" d="M1907.5,243.6l-22.4,22.4 M1790,359.7l-22.4,22.5 M1906.5,384.6l-22.4-22.5 M1788.9,267.1l-22.4-22.4"/>
	<path class="st19" d="M1203.8,328.6h61c1.9,0,3.4,1.5,3.4,3.4v62.8c0,1.9-1.5,3.4-3.4,3.4h-61c-1.9,0-3.4-1.5-3.4-3.4V332
		C1200.3,330.1,1201.9,328.6,1203.8,328.6z"/>
	<path class="st19" d="M1269,350.4h16.6c3.3,0,5.9,2.6,5.9,5.9v14.2c0,3.3-2.7,5.9-5.9,5.9H1269 M1149.3,187.3v51.3
		c0,3.3-2.6,5.9-5.9,5.9h-58.3 M1263.7,268.9v9.7c0,3.3-2.7,5.9-5.9,5.9h-47.1c-3.3,0-5.9-2.6-5.9-5.9v-9.7 M1248.1,284.5v8
		c0,3.3-2.7,5.9-5.9,5.9H1228c-3.3,0-5.9-2.6-5.9-5.9v-8"/>
	<path class="st10" d="M1091.7,187.3h227.8c5.6,0,10.1,4.5,10.1,10.1V427c0,5.6-4.5,10.1-10.1,10.1h-227.8
		c-5.6,0-10.1-4.5-10.1-10.1V197.5C1081.6,191.9,1086.1,187.3,1091.7,187.3z"/>
	<path class="st19" d="M1329.7,268.9h-170.5c-5.5,0-9.9,4.4-9.9,9.9v110.4c0,5.5,4.4,9.9,9.9,9.9h170.5"/>
	<path class="st19" d="M1115.1,354.6L1115.1,354.6c5.6,0,10.2,4.6,10.2,10.2v0c0,5.6-4.6,10.2-10.2,10.2h0
		c-5.6,0-10.2-4.6-10.2-10.2v0C1104.9,359.2,1109.5,354.6,1115.1,354.6z"/>
	<path class="st19" d="M1115.1,316.5L1115.1,316.5c5.6,0,10.2,4.6,10.2,10.2v0c0,5.6-4.6,10.2-10.2,10.2h0
		c-5.6,0-10.2-4.6-10.2-10.2v0C1104.9,321,1109.5,316.5,1115.1,316.5z"/>
	<path class="st10" d="M1357.4,197.5c0-5.6,4.5-10.1,10.1-10.1H1538c5.6,0,10.1,4.5,10.1,10.1V427c0,5.6-4.5,10.1-10.1,10.1h-170.5
		c-5.6,0-10.1-4.5-10.1-10.1V197.5z"/>
	<defs>
		<filter id="Adobe_OpacityMaskFilter_5_" filterUnits="userSpaceOnUse" x="1422.8" y="292.8" width="62.2" height="55.4">
			<feColorMatrix  type="matrix" values="1 0 0 0 0  0 1 0 0 0  0 0 1 0 0  0 0 0 1 0"/>
		</filter>
	</defs>
	<mask maskUnits="userSpaceOnUse" x="1422.8" y="292.8" width="62.2" height="55.4" id="e_1_">
		<path class="st21" d="M1427.8,302.1c0-2.4,1.9-4.3,4.3-4.3h43.6c2.4,0,4.3,1.9,4.3,4.3v36.7c0,2.4-1.9,4.3-4.3,4.3h-43.6
			c-2.4,0-4.3-1.9-4.3-4.3V302.1z"/>
	</mask>
	<path class="st22" d="M1427.8,302.1c0-2.4,1.9-4.3,4.3-4.3h43.6c2.4,0,4.3,1.9,4.3,4.3v36.7c0,2.4-1.9,4.3-4.3,4.3h-43.6
		c-2.4,0-4.3-1.9-4.3-4.3V302.1z"/>
	<defs>
		<filter id="Adobe_OpacityMaskFilter_6_" filterUnits="userSpaceOnUse" x="1434.2" y="269.1" width="39.5" height="37.2">
			<feColorMatrix  type="matrix" values="1 0 0 0 0  0 1 0 0 0  0 0 1 0 0  0 0 0 1 0"/>
		</filter>
	</defs>
	<mask maskUnits="userSpaceOnUse" x="1434.2" y="269.1" width="39.5" height="37.2" id="f_1_">
		<path class="st23" d="M1468.7,301.4h-29.5v-12.5c0-8.2,6.6-14.8,14.8-14.8s14.8,6.6,14.8,14.8V301.4z"/>
	</mask>
	<path class="st24" d="M1468.7,301.4h-29.5v-12.5c0-8.2,6.6-14.8,14.8-14.8s14.8,6.6,14.8,14.8V301.4z"/>
	<circle class="st19" cx="1452.8" cy="312.2" r="65.6"/>
	<path class="st19" d="M1508.4,312.3c0,30.5-25,55.2-56,55.2s-56-24.8-56-55.2c0-30.5,25-55.2,56-55.2S1508.4,281.8,1508.4,312.3z"
		/>
	<path class="st20" d="M1523,243.6l-22.4,22.4 M1405.4,359.7l-22.4,22.5 M1521.9,384.6l-22.4-22.5 M1404.3,267.1l-22.4-22.4"/>
	<path class="st10" d="M1053.9,197.5V427c0,5.6-4.5,10.1-10.1,10.1H926.2c-5.6,0-10.1-4.5-10.1-10.1V197.5c0-5.6,4.5-10.1,10.1-10.1
		h117.6C1049.3,187.3,1053.9,191.9,1053.9,197.5z"/>
	<path class="st19" d="M984.1,248.4L984.1,248.4c3.9,0,7,3.1,7,7v0c0,3.9-3.1,7-7,7l0,0c-3.9,0-7-3.1-7-7v0
		C977.1,251.5,980.2,248.4,984.1,248.4z"/>
	<circle class="st19" cx="983.2" cy="256.2" r="40.6"/>
	<circle class="st19" cx="983.2" cy="256.2" r="32"/>
	<path class="st19" d="M984.1,360.4L984.1,360.4c3.9,0,7,3.1,7,7v0c0,3.9-3.1,7-7,7l0,0c-3.9,0-7-3.1-7-7v0
		C977.1,363.5,980.2,360.4,984.1,360.4z"/>
	<circle class="st19" cx="983.2" cy="368.2" r="40.6"/>
	<circle class="st19" cx="983.2" cy="368.2" r="32"/>
	<path class="st10" d="M746,197.5c0-5.6,4.5-10.1,10.1-10.1h122.1c5.6,0,10.1,4.5,10.1,10.1V427c0,5.6-4.5,10.1-10.1,10.1H756.1
		c-5.6,0-10.1-4.5-10.1-10.1V197.5L746,197.5z"/>
	<defs>
		<filter id="Adobe_OpacityMaskFilter_7_" filterUnits="userSpaceOnUse" x="755" y="196.4" width="124.2" height="228.8">
			<feColorMatrix  type="matrix" values="1 0 0 0 0  0 1 0 0 0  0 0 1 0 0  0 0 0 1 0"/>
		</filter>
	</defs>
	<mask maskUnits="userSpaceOnUse" x="755" y="196.4" width="124.2" height="228.8" id="g_1_">
		<path class="st25" d="M760,211.2c0-5.4,4.4-9.9,9.9-9.9h16.8c2.8,0,5.5,1.2,7.3,3.3l3.1,3.5c1.9,2.1,4.5,3.3,7.3,3.3h29.3
			c2.8,0,5.5-1.2,7.3-3.3l3.1-3.5c1.9-2.1,4.5-3.3,7.3-3.3h12.8c5.4,0,9.9,4.4,9.9,9.9v199c0,5.4-4.4,9.9-9.9,9.9h-94.5
			c-5.4,0-9.9-4.4-9.9-9.9L760,211.2L760,211.2z"/>
	</mask>
	<path class="st26" d="M760,211.2c0-5.4,4.4-9.9,9.9-9.9h16.8c2.8,0,5.5,1.2,7.3,3.3l3.1,3.5c1.9,2.1,4.5,3.3,7.3,3.3h29.3
		c2.8,0,5.5-1.2,7.3-3.3l3.1-3.5c1.9-2.1,4.5-3.3,7.3-3.3h12.8c5.4,0,9.9,4.4,9.9,9.9v199c0,5.4-4.4,9.9-9.9,9.9h-94.5
		c-5.4,0-9.9-4.4-9.9-9.9L760,211.2L760,211.2z"/>
	<path class="st19" d="M784,235.9h22.2c1.9,0,3.4,1.5,3.4,3.4v22.2c0,1.9-1.5,3.4-3.4,3.4H784c-1.9,0-3.4-1.5-3.4-3.4v-22.2
		C780.6,237.5,782.1,235.9,784,235.9z"/>
	<path class="st19" d="M828.1,235.9h22.2c1.9,0,3.4,1.5,3.4,3.4v22.2c0,1.9-1.5,3.4-3.4,3.4h-22.2c-1.9,0-3.4-1.5-3.4-3.4v-22.2
		C824.7,237.5,826.2,235.9,828.1,235.9z"/>
	<path class="st19" d="M784,278h22.2c1.9,0,3.4,1.5,3.4,3.4v22.2c0,1.9-1.5,3.4-3.4,3.4H784c-1.9,0-3.4-1.5-3.4-3.4v-22.2
		C780.6,279.6,782.1,278,784,278z"/>
	<path class="st19" d="M828.1,278h22.2c1.9,0,3.4,1.5,3.4,3.4v22.2c0,1.9-1.5,3.4-3.4,3.4h-22.2c-1.9,0-3.4-1.5-3.4-3.4v-22.2
		C824.7,279.6,826.2,278,828.1,278z"/>
	<path class="st19" d="M784,320.1h22.2c1.9,0,3.4,1.5,3.4,3.4v22.2c0,1.9-1.5,3.4-3.4,3.4H784c-1.9,0-3.4-1.5-3.4-3.4v-22.2
		C780.6,321.7,782.1,320.1,784,320.1z"/>
	<path class="st19" d="M828.1,320.1h22.2c1.9,0,3.4,1.5,3.4,3.4v22.2c0,1.9-1.5,3.4-3.4,3.4h-22.2c-1.9,0-3.4-1.5-3.4-3.4v-22.2
		C824.7,321.7,826.2,320.1,828.1,320.1z"/>
	<path class="st19" d="M784,362.2h22.2c1.9,0,3.4,1.5,3.4,3.4v22.2c0,1.9-1.5,3.4-3.4,3.4H784c-1.9,0-3.4-1.5-3.4-3.4v-22.2
		C780.6,363.7,782.1,362.2,784,362.2z"/>
	<path class="st19" d="M828.1,362.2h22.2c1.9,0,3.4,1.5,3.4,3.4v22.2c0,1.9-1.5,3.4-3.4,3.4h-22.2c-1.9,0-3.4-1.5-3.4-3.4v-22.2
		C824.7,363.7,826.2,362.2,828.1,362.2z"/>
	<path class="st10" d="M237.7,187.3h304.9c5.6,0,10.1,4.5,10.1,10.1V427c0,5.6-4.5,10.1-10.1,10.1H237.7c-5.6,0-10.1-4.5-10.1-10.1
		V197.5C227.6,191.9,232.1,187.3,237.7,187.3z"/>
	<path class="st19" d="M237.4,189.8h305.4c4.1,0,7.4,3.3,7.4,7.4v230.1c0,4.1-3.3,7.4-7.4,7.4H237.4c-4.1,0-7.4-3.3-7.4-7.4V197.2
		C230.1,193.1,233.4,189.8,237.4,189.8z"/>
	<path class="st19" d="M256,208.2L256,208.2c3.2,0,5.8,2.6,5.8,5.8l0,0c0,3.2-2.6,5.8-5.8,5.8l0,0c-3.2,0-5.8-2.6-5.8-5.8l0,0
		C250.3,210.8,252.9,208.2,256,208.2z"/>
	<path class="st19" d="M278.1,208.2L278.1,208.2c3.2,0,5.8,2.6,5.8,5.8l0,0c0,3.2-2.6,5.8-5.8,5.8l0,0c-3.2,0-5.8-2.6-5.8-5.8l0,0
		C272.3,210.8,274.9,208.2,278.1,208.2z"/>
	<path class="st19" d="M300.1,208.2L300.1,208.2c3.2,0,5.8,2.6,5.8,5.8l0,0c0,3.2-2.6,5.8-5.8,5.8l0,0c-3.2,0-5.8-2.6-5.8-5.8l0,0
		C294.4,210.8,296.9,208.2,300.1,208.2z"/>
	<path class="st19" d="M257.6,252.3h40.9c4.1,0,7.4,3.3,7.4,7.4v147.4c0,4.1-3.3,7.4-7.4,7.4h-40.9c-4.1,0-7.4-3.3-7.4-7.4V259.6
		C250.3,255.6,253.6,252.3,257.6,252.3z"/>
	<path class="st19" d="M331.1,252.3h191.5c4.1,0,7.4,3.3,7.4,7.4v147.4c0,4.1-3.3,7.4-7.4,7.4H331.1c-4.1,0-7.4-3.3-7.4-7.4V259.6
		C323.8,255.6,327,252.3,331.1,252.3z"/>
	<path class="st10" d="M718.2,197.5V427c0,5.6-4.5,10.1-10.1,10.1H590.5c-5.6,0-10.1-4.5-10.1-10.1V197.5c0-5.6,4.5-10.1,10.1-10.1
		h117.6C713.7,187.3,718.2,191.9,718.2,197.5z"/>
	<path class="st20" d="M661.3,306.4l-24.6,41.4h24.6l-24.6,41.4 M596.5,200.4h106.3 M596.5,210.7h106.3 M596.5,221.1h106.3
		 M596.5,231.4h106.3 M596.5,241.8h106.3 M596.5,252.2h106.3 M583.5,263.8h132.2"/>
	<path class="st10" d="M1714.2,197.5V427c0,5.6-4.5,10.1-10.1,10.1h-117.6c-5.6,0-10.1-4.5-10.1-10.1V197.5
		c0-5.6,4.5-10.1,10.1-10.1h117.6C1709.7,187.3,1714.2,191.9,1714.2,197.5z"/>
	<path class="st20" d="M1657.3,306.4l-24.6,41.4h24.6l-24.6,41.4 M1592.5,200.4h106.3 M1592.5,210.7h106.3 M1592.5,221.1h106.3
		 M1592.5,231.4h106.3 M1592.5,241.8h106.3 M1592.5,252.2h106.3 M1579.5,263.8h132.2"/>
	<path class="st10" d="M1304.4,0h352.1c5.6,0,10.1,4.5,10.1,10.1v139.4c0,5.6-4.5,10.1-10.1,10.1h-352.1c-5.6,0-10.1-4.5-10.1-10.1
		V10.1C1294.3,4.5,1298.9,0,1304.4,0z"/>
	<path class="st19" d="M1319,22.8h11.6c1.9,0,3.4,1.5,3.4,3.4v11.6c0,1.9-1.5,3.4-3.4,3.4H1319c-1.9,0-3.4-1.5-3.4-3.4V26.3
		C1315.6,24.4,1317.1,22.8,1319,22.8z"/>
	<path class="st19" d="M1353.4,22.8h11.6c1.9,0,3.4,1.5,3.4,3.4v11.6c0,1.9-1.5,3.4-3.4,3.4h-11.6c-1.9,0-3.4-1.5-3.4-3.4V26.3
		C1350,24.4,1351.5,22.8,1353.4,22.8z"/>
	<path class="st19" d="M1387.9,22.8h11.6c1.9,0,3.4,1.5,3.4,3.4v11.6c0,1.9-1.5,3.4-3.4,3.4h-11.6c-1.9,0-3.4-1.5-3.4-3.4V26.3
		C1384.4,24.4,1386,22.8,1387.9,22.8z"/>
	<path class="st19" d="M1422.3,22.8h11.6c1.9,0,3.4,1.5,3.4,3.4v11.6c0,1.9-1.5,3.4-3.4,3.4h-11.6c-1.9,0-3.4-1.5-3.4-3.4V26.3
		C1418.9,24.4,1420.4,22.8,1422.3,22.8z"/>
	<path class="st19" d="M1456.7,22.8h11.6c1.9,0,3.4,1.5,3.4,3.4v11.6c0,1.9-1.5,3.4-3.4,3.4h-11.6c-1.9,0-3.4-1.5-3.4-3.4V26.3
		C1453.3,24.4,1454.8,22.8,1456.7,22.8z"/>
	<path class="st19" d="M1491.1,22.8h11.6c1.9,0,3.4,1.5,3.4,3.4v11.6c0,1.9-1.5,3.4-3.4,3.4h-11.6c-1.9,0-3.4-1.5-3.4-3.4V26.3
		C1487.7,24.4,1489.2,22.8,1491.1,22.8z"/>
	<path class="st19" d="M1525.5,22.8h11.6c1.9,0,3.4,1.5,3.4,3.4v11.6c0,1.9-1.5,3.4-3.4,3.4h-11.6c-1.9,0-3.4-1.5-3.4-3.4V26.3
		C1522.1,24.4,1523.6,22.8,1525.5,22.8z"/>
	<path class="st19" d="M1560,22.8h11.6c1.9,0,3.4,1.5,3.4,3.4v11.6c0,1.9-1.5,3.4-3.4,3.4H1560c-1.9,0-3.4-1.5-3.4-3.4V26.3
		C1556.5,24.4,1558.1,22.8,1560,22.8z"/>
	<path class="st19" d="M1594.4,22.8h11.6c1.9,0,3.4,1.5,3.4,3.4v11.6c0,1.9-1.5,3.4-3.4,3.4h-11.6c-1.9,0-3.4-1.5-3.4-3.4V26.3
		C1591,24.4,1592.5,22.8,1594.4,22.8z"/>
	<path class="st19" d="M1628.8,22.8h11.6c1.9,0,3.4,1.5,3.4,3.4v11.6c0,1.9-1.5,3.4-3.4,3.4h-11.6c-1.9,0-3.4-1.5-3.4-3.4V26.3
		C1625.4,24.4,1626.9,22.8,1628.8,22.8z"/>
	<path class="st19" d="M1319,55.7h11.6c1.9,0,3.4,1.5,3.4,3.4v11.6c0,1.9-1.5,3.4-3.4,3.4H1319c-1.9,0-3.4-1.5-3.4-3.4V59.1
		C1315.6,57.2,1317.1,55.7,1319,55.7z"/>
	<path class="st19" d="M1353.4,55.7h11.6c1.9,0,3.4,1.5,3.4,3.4v11.6c0,1.9-1.5,3.4-3.4,3.4h-11.6c-1.9,0-3.4-1.5-3.4-3.4V59.1
		C1350,57.2,1351.5,55.7,1353.4,55.7z"/>
	<path class="st19" d="M1387.9,55.7h11.6c1.9,0,3.4,1.5,3.4,3.4v11.6c0,1.9-1.5,3.4-3.4,3.4h-11.6c-1.9,0-3.4-1.5-3.4-3.4V59.1
		C1384.4,57.2,1386,55.7,1387.9,55.7z"/>
	<path class="st19" d="M1422.3,55.7h11.6c1.9,0,3.4,1.5,3.4,3.4v11.6c0,1.9-1.5,3.4-3.4,3.4h-11.6c-1.9,0-3.4-1.5-3.4-3.4V59.1
		C1418.9,57.2,1420.4,55.7,1422.3,55.7z"/>
	<path class="st19" d="M1456.7,55.7h11.6c1.9,0,3.4,1.5,3.4,3.4v11.6c0,1.9-1.5,3.4-3.4,3.4h-11.6c-1.9,0-3.4-1.5-3.4-3.4V59.1
		C1453.3,57.2,1454.8,55.7,1456.7,55.7z"/>
	<path class="st19" d="M1491.1,55.7h11.6c1.9,0,3.4,1.5,3.4,3.4v11.6c0,1.9-1.5,3.4-3.4,3.4h-11.6c-1.9,0-3.4-1.5-3.4-3.4V59.1
		C1487.7,57.2,1489.2,55.7,1491.1,55.7z"/>
	<path class="st19" d="M1525.5,55.7h11.6c1.9,0,3.4,1.5,3.4,3.4v11.6c0,1.9-1.5,3.4-3.4,3.4h-11.6c-1.9,0-3.4-1.5-3.4-3.4V59.1
		C1522.1,57.2,1523.6,55.7,1525.5,55.7z"/>
	<path class="st19" d="M1560,55.7h11.6c1.9,0,3.4,1.5,3.4,3.4v11.6c0,1.9-1.5,3.4-3.4,3.4H1560c-1.9,0-3.4-1.5-3.4-3.4V59.1
		C1556.5,57.2,1558.1,55.7,1560,55.7z"/>
	<path class="st19" d="M1594.4,55.7h11.6c1.9,0,3.4,1.5,3.4,3.4v11.6c0,1.9-1.5,3.4-3.4,3.4h-11.6c-1.9,0-3.4-1.5-3.4-3.4V59.1
		C1591,57.2,1592.5,55.7,1594.4,55.7z"/>
	<path class="st19" d="M1628.8,55.7h11.6c1.9,0,3.4,1.5,3.4,3.4v11.6c0,1.9-1.5,3.4-3.4,3.4h-11.6c-1.9,0-3.4-1.5-3.4-3.4V59.1
		C1625.4,57.2,1626.9,55.7,1628.8,55.7z"/>
	<path class="st19" d="M1387.9,88.6h11.6c1.9,0,3.4,1.5,3.4,3.4v11.6c0,1.9-1.5,3.4-3.4,3.4h-11.6c-1.9,0-3.4-1.5-3.4-3.4V92
		C1384.4,90.1,1386,88.6,1387.9,88.6z"/>
	<path class="st19" d="M1422.3,88.6h11.6c1.9,0,3.4,1.5,3.4,3.4v11.6c0,1.9-1.5,3.4-3.4,3.4h-11.6c-1.9,0-3.4-1.5-3.4-3.4V92
		C1418.9,90.1,1420.4,88.6,1422.3,88.6z"/>
	<path class="st19" d="M1456.7,88.6h11.6c1.9,0,3.4,1.5,3.4,3.4v11.6c0,1.9-1.5,3.4-3.4,3.4h-11.6c-1.9,0-3.4-1.5-3.4-3.4V92
		C1453.3,90.1,1454.8,88.6,1456.7,88.6z"/>
	<path class="st19" d="M1491.1,88.6h11.6c1.9,0,3.4,1.5,3.4,3.4v11.6c0,1.9-1.5,3.4-3.4,3.4h-11.6c-1.9,0-3.4-1.5-3.4-3.4V92
		C1487.7,90.1,1489.2,88.6,1491.1,88.6z"/>
	<path class="st19" d="M1525.5,88.6h11.6c1.9,0,3.4,1.5,3.4,3.4v11.6c0,1.9-1.5,3.4-3.4,3.4h-11.6c-1.9,0-3.4-1.5-3.4-3.4V92
		C1522.1,90.1,1523.6,88.6,1525.5,88.6z"/>
	<path class="st19" d="M1560,88.6h11.6c1.9,0,3.4,1.5,3.4,3.4v11.6c0,1.9-1.5,3.4-3.4,3.4H1560c-1.9,0-3.4-1.5-3.4-3.4V92
		C1556.5,90.1,1558.1,88.6,1560,88.6z"/>
	<path class="st19" d="M1319,121.4h11.6c1.9,0,3.4,1.5,3.4,3.4v11.6c0,1.9-1.5,3.4-3.4,3.4H1319c-1.9,0-3.4-1.5-3.4-3.4v-11.6
		C1315.6,122.9,1317.1,121.4,1319,121.4z"/>
	<path class="st19" d="M1353.4,121.4h11.6c1.9,0,3.4,1.5,3.4,3.4v11.6c0,1.9-1.5,3.4-3.4,3.4h-11.6c-1.9,0-3.4-1.5-3.4-3.4v-11.6
		C1350,122.9,1351.5,121.4,1353.4,121.4z"/>
	<path class="st19" d="M1594.4,121.4h11.6c1.9,0,3.4,1.5,3.4,3.4v11.6c0,1.9-1.5,3.4-3.4,3.4h-11.6c-1.9,0-3.4-1.5-3.4-3.4v-11.6
		C1591,122.9,1592.5,121.4,1594.4,121.4z"/>
	<path class="st19" d="M1628.8,121.4h11.6c1.9,0,3.4,1.5,3.4,3.4v11.6c0,1.9-1.5,3.4-3.4,3.4h-11.6c-1.9,0-3.4-1.5-3.4-3.4v-11.6
		C1625.4,122.9,1626.9,121.4,1628.8,121.4z"/>
	<path class="st19" d="M1387.9,121.4h183.7c1.9,0,3.4,1.5,3.4,3.4v11.6c0,1.9-1.5,3.4-3.4,3.4h-183.7c-1.9,0-3.4-1.5-3.4-3.4v-11.6
		C1384.4,122.9,1386,121.4,1387.9,121.4z"/>
	<path class="st19" d="M1594.4,88.6h46.1c1.9,0,3.4,1.5,3.4,3.4v11.6c0,1.9-1.5,3.4-3.4,3.4h-46.1c-1.9,0-3.4-1.5-3.4-3.4V92
		C1591,90.1,1592.5,88.6,1594.4,88.6z"/>
	<path class="st19" d="M1319,88.6h46.1c1.9,0,3.4,1.5,3.4,3.4v11.6c0,1.9-1.5,3.4-3.4,3.4H1319c-1.9,0-3.4-1.5-3.4-3.4V92
		C1315.6,90.1,1317.1,88.6,1319,88.6z"/>
	<path class="st10" d="M671.3,10.1c0-5.6,4.5-10.1,10.1-10.1h237c5.6,0,10.1,4.5,10.1,10.1v139.4c0,5.6-4.5,10.1-10.1,10.1h-237
		c-5.6,0-10.1-4.5-10.1-10.1L671.3,10.1L671.3,10.1z"/>
	<path class="st20" d="M904.7,23.8l-93.2,66.6c-6.1,4.4-14.3,4.4-20.5,0.1l-96-66.7"/>
	<path class="st10" d="M955.7,10.1c0-5.6,4.5-10.1,10.1-10.1h290.7c5.6,0,10.1,4.5,10.1,10.1v139.4c0,5.6-4.5,10.1-10.1,10.1H965.8
		c-5.6,0-10.1-4.5-10.1-10.1V10.1z"/>
	<circle class="st27" cx="1007.7" cy="122.7" r="2.5"/>
	<circle class="st27" cx="1017.7" cy="122.7" r="2.5"/>
	<circle class="st27" cx="1027.7" cy="122.7" r="2.5"/>
	<circle class="st27" cx="1037.6" cy="122.7" r="2.5"/>
	<circle class="st27" cx="1047.6" cy="122.7" r="2.5"/>
	<circle class="st27" cx="1057.5" cy="122.7" r="2.5"/>
	<circle class="st27" cx="1067.5" cy="122.7" r="2.5"/>
	<circle class="st27" cx="987.8" cy="57.5" r="2.5"/>
	<circle class="st27" cx="987.8" cy="68.4" r="2.5"/>
	<circle class="st27" cx="987.8" cy="79.2" r="2.5"/>
	<circle class="st27" cx="987.8" cy="90.1" r="2.5"/>
	<circle class="st27" cx="987.8" cy="101" r="2.5"/>
	<circle class="st27" cx="997.8" cy="46.6" r="2.5"/>
	<circle class="st27" cx="997.8" cy="57.5" r="2.5"/>
	<circle class="st27" cx="997.8" cy="68.4" r="2.5"/>
	<circle class="st27" cx="997.8" cy="79.2" r="2.5"/>
	<circle class="st27" cx="997.8" cy="90.1" r="2.5"/>
	<circle class="st27" cx="997.8" cy="101" r="2.5"/>
	<circle class="st27" cx="997.8" cy="111.8" r="2.5"/>
	<circle class="st27" cx="1007.7" cy="35.8" r="2.5"/>
	<circle class="st27" cx="1007.7" cy="46.6" r="2.5"/>
	<circle class="st27" cx="1007.7" cy="57.5" r="2.5"/>
	<circle class="st27" cx="1007.7" cy="68.4" r="2.5"/>
	<circle class="st27" cx="1007.7" cy="79.2" r="2.5"/>
	<circle class="st27" cx="1007.7" cy="90.1" r="2.5"/>
	<circle class="st27" cx="1007.7" cy="101" r="2.5"/>
	<circle class="st27" cx="1007.7" cy="111.8" r="2.5"/>
	<circle class="st27" cx="1017.7" cy="35.8" r="2.5"/>
	<circle class="st27" cx="1017.7" cy="46.6" r="2.5"/>
	<circle class="st27" cx="1017.7" cy="57.5" r="2.5"/>
	<circle class="st27" cx="1017.7" cy="68.4" r="2.5"/>
	<circle class="st27" cx="1017.7" cy="79.2" r="2.5"/>
	<circle class="st27" cx="1017.7" cy="90.1" r="2.5"/>
	<circle class="st27" cx="1017.7" cy="101" r="2.5"/>
	<circle class="st27" cx="1017.7" cy="111.8" r="2.5"/>
	<circle class="st27" cx="1027.7" cy="35.8" r="2.5"/>
	<circle class="st27" cx="1027.7" cy="46.6" r="2.5"/>
	<circle class="st27" cx="1027.7" cy="57.5" r="2.5"/>
	<circle class="st27" cx="1027.7" cy="68.4" r="2.5"/>
	<circle class="st27" cx="1027.7" cy="79.2" r="2.5"/>
	<circle class="st27" cx="1027.7" cy="90.1" r="2.5"/>
	<circle class="st27" cx="1027.7" cy="101" r="2.5"/>
	<circle class="st27" cx="1027.7" cy="111.8" r="2.5"/>
	<circle class="st27" cx="1037.6" cy="35.8" r="2.5"/>
	<circle class="st27" cx="1037.6" cy="46.6" r="2.5"/>
	<circle class="st27" cx="1037.6" cy="57.5" r="2.5"/>
	<circle class="st27" cx="1037.6" cy="68.4" r="2.5"/>
	<circle class="st27" cx="1037.6" cy="79.2" r="2.5"/>
	<circle class="st27" cx="1037.6" cy="90.1" r="2.5"/>
	<circle class="st27" cx="1037.6" cy="101" r="2.5"/>
	<circle class="st27" cx="1037.6" cy="111.8" r="2.5"/>
	<circle class="st27" cx="1047.6" cy="35.8" r="2.5"/>
	<circle class="st27" cx="1047.6" cy="46.6" r="2.5"/>
	<circle class="st27" cx="1047.6" cy="57.5" r="2.5"/>
	<circle class="st27" cx="1047.6" cy="68.4" r="2.5"/>
	<circle class="st27" cx="1047.6" cy="79.2" r="2.5"/>
	<circle class="st27" cx="1047.6" cy="90.1" r="2.5"/>
	<circle class="st27" cx="1047.6" cy="101" r="2.5"/>
	<circle class="st27" cx="1047.6" cy="111.8" r="2.5"/>
	<circle class="st27" cx="1057.5" cy="35.8" r="2.5"/>
	<circle class="st27" cx="1057.5" cy="46.6" r="2.5"/>
	<circle class="st27" cx="1057.5" cy="57.5" r="2.5"/>
	<circle class="st27" cx="1057.5" cy="68.4" r="2.5"/>
	<circle class="st27" cx="1057.5" cy="79.2" r="2.5"/>
	<circle class="st27" cx="1057.5" cy="90.1" r="2.5"/>
	<circle class="st27" cx="1057.5" cy="101" r="2.5"/>
	<circle class="st27" cx="1057.5" cy="111.8" r="2.5"/>
	<circle class="st27" cx="1067.5" cy="35.8" r="2.5"/>
	<circle class="st27" cx="1067.5" cy="46.6" r="2.5"/>
	<circle class="st27" cx="1067.5" cy="57.5" r="2.5"/>
	<circle class="st27" cx="1067.5" cy="68.4" r="2.5"/>
	<circle class="st27" cx="1067.5" cy="79.2" r="2.5"/>
	<circle class="st27" cx="1067.5" cy="90.1" r="2.5"/>
	<circle class="st27" cx="1067.5" cy="101" r="2.5"/>
	<circle class="st27" cx="1067.5" cy="111.8" r="2.5"/>
	<circle class="st27" cx="1077.4" cy="46.6" r="2.5"/>
	<circle class="st27" cx="1077.4" cy="57.5" r="2.5"/>
	<circle class="st27" cx="1077.4" cy="68.4" r="2.5"/>
	<circle class="st27" cx="1077.4" cy="79.2" r="2.5"/>
	<circle class="st27" cx="1077.4" cy="90.1" r="2.5"/>
	<circle class="st27" cx="1077.4" cy="101" r="2.5"/>
	<circle class="st27" cx="1077.4" cy="111.8" r="2.5"/>
	<circle class="st27" cx="1087.4" cy="57.5" r="2.5"/>
	<circle class="st27" cx="1087.4" cy="68.4" r="2.5"/>
	<circle class="st27" cx="1087.4" cy="79.2" r="2.5"/>
	<circle class="st27" cx="1087.4" cy="90.1" r="2.5"/>
	<circle class="st27" cx="1087.4" cy="101" r="2.5"/>
	<path class="st19" d="M1153.9,54.8h46c5.3,0,9.5,4.3,9.5,9.5l0,0c0,5.3-4.3,9.5-9.5,9.5h-46c-5.3,0-9.5-4.3-9.5-9.5l0,0
		C1144.4,59,1148.6,54.8,1153.9,54.8z"/>
	<path class="st19" d="M1159.1,96.1L1159.1,96.1c0,4-3.3,7.3-7.3,7.3l0,0c-4,0-7.3-3.3-7.3-7.3l0,0c0-4,3.3-7.3,7.3-7.3l0,0
		C1155.8,88.8,1159.1,92.1,1159.1,96.1z"/>
	<path class="st19" d="M1188.6,96.1L1188.6,96.1c0,4-3.3,7.3-7.3,7.3l0,0c-4,0-7.3-3.3-7.3-7.3l0,0c0-4,3.3-7.3,7.3-7.3l0,0
		C1185.3,88.8,1188.6,92.1,1188.6,96.1z"/>
	<path class="st10" d="M1694,10.1c0-5.6,4.5-10.1,10.1-10.1h139.3c5.6,0,10.1,4.5,10.1,10.1v139.4c0,5.6-4.5,10.1-10.1,10.1h-139.3
		c-5.6,0-10.1-4.5-10.1-10.1V10.1z"/>
	<defs>
		<filter id="Adobe_OpacityMaskFilter_8_" filterUnits="userSpaceOnUse" x="1715.6" y="-5" width="116.4" height="61.4">
			<feColorMatrix  type="matrix" values="1 0 0 0 0  0 1 0 0 0  0 0 1 0 0  0 0 0 1 0"/>
		</filter>
	</defs>
	<mask maskUnits="userSpaceOnUse" x="1715.6" y="-5" width="116.4" height="61.4" id="h_1_">
		<path class="st28" d="M1720.6,0H1827v41.5c0,5.5-4.4,9.9-9.9,9.9h-86.7c-5.4,0-9.9-4.4-9.9-9.9V0z"/>
	</mask>
	<path class="st29" d="M1720.6,0H1827v41.5c0,5.5-4.4,9.9-9.9,9.9h-86.7c-5.4,0-9.9-4.4-9.9-9.9V0z"/>
	<defs>
		<filter id="Adobe_OpacityMaskFilter_9_" filterUnits="userSpaceOnUse" x="1788.3" y="9.2" width="27.7" height="33.1">
			<feColorMatrix  type="matrix" values="1 0 0 0 0  0 1 0 0 0  0 0 1 0 0  0 0 0 1 0"/>
		</filter>
	</defs>
	<mask maskUnits="userSpaceOnUse" x="1788.3" y="9.2" width="27.7" height="33.1" id="i_1_">
		<path class="st30" d="M1793.3,23.1c0-4.9,4-8.9,8.9-8.9c4.9,0,8.9,4,8.9,8.9v5.3c0,4.9-4,8.9-8.9,8.9c-4.9,0-8.9-4-8.9-8.9V23.1z"
			/>
	</mask>
	<path class="st31" d="M1793.3,23.1c0-4.9,4-8.9,8.9-8.9c4.9,0,8.9,4,8.9,8.9v5.3c0,4.9-4,8.9-8.9,8.9c-4.9,0-8.9-4-8.9-8.9V23.1z"
		/>
	<defs>
		<filter id="Adobe_OpacityMaskFilter_10_" filterUnits="userSpaceOnUse" x="1715.6" y="64.2" width="116.4" height="77.4">
			<feColorMatrix  type="matrix" values="1 0 0 0 0  0 1 0 0 0  0 0 1 0 0  0 0 0 1 0"/>
		</filter>
	</defs>
	<mask maskUnits="userSpaceOnUse" x="1715.6" y="64.2" width="116.4" height="77.4" id="j_1_">
		<path class="st32" d="M1827,126.7c0,5.5-4.4,9.9-9.9,9.9h-86.7c-5.4,0-9.9-4.4-9.9-9.9V79c0-5.5,4.4-9.9,9.9-9.9h86.7
			c5.4,0,9.9,4.4,9.9,9.9V126.7z"/>
	</mask>
	<path class="st33" d="M1827,126.7c0,5.5-4.4,9.9-9.9,9.9h-86.7c-5.4,0-9.9-4.4-9.9-9.9V79c0-5.5,4.4-9.9,9.9-9.9h86.7
		c5.4,0,9.9,4.4,9.9,9.9V126.7z"/>
	<path class="st10" d="M173.5,0h193.9c5.6,0,10.1,4.5,10.1,10.1v139.4c0,5.6-4.5,10.1-10.1,10.1H173.5c-5.6,0-10.1-4.5-10.1-10.1
		V10.1C163.4,4.5,167.9,0,173.5,0z"/>
	<path class="st34" d="M305.4,4.2L235.5,30v124.9l69.9-25.8V4.2L305.4,4.2z M166.9,4.9L235.5,30v124.9l-68.6-25.4"/>
	<path class="st20" d="M375.4,29.4l-70-25.2v124.9l67.3,25.6"/>
	<defs>
		<filter id="Adobe_OpacityMaskFilter_11_" filterUnits="userSpaceOnUse" x="246.6" y="45.1" width="47.7" height="67.2">
			<feColorMatrix  type="matrix" values="1 0 0 0 0  0 1 0 0 0  0 0 1 0 0  0 0 0 1 0"/>
		</filter>
	</defs>
	<mask maskUnits="userSpaceOnUse" x="246.6" y="45.1" width="47.7" height="67.2" id="k_1_">
		<path class="st35" d="M289.3,68.9c0,8.1-11.3,28.3-16.4,37c-0.8,1.3-2.5,1.8-3.8,1c-0.4-0.2-0.8-0.6-1-1
			c-5.1-8.7-16.4-28.9-16.4-37c0-10.4,8.4-18.8,18.8-18.8C280.8,50.1,289.3,58.5,289.3,68.9L289.3,68.9z"/>
	</mask>
	<path class="st36" d="M289.3,68.9c0,8.1-11.3,28.3-16.4,37c-0.8,1.3-2.5,1.8-3.8,1c-0.4-0.2-0.8-0.6-1-1
		c-5.1-8.7-16.4-28.9-16.4-37c0-10.4,8.4-18.8,18.8-18.8C280.8,50.1,289.3,58.5,289.3,68.9L289.3,68.9z"/>
	<circle class="st37" cx="270.4" cy="69.6" r="5.4"/>
	<path class="st10" d="M414.9,0h219.1c5.6,0,10.1,4.5,10.1,10.1v139.4c0,5.6-4.5,10.1-10.1,10.1H414.9c-5.6,0-10.1-4.5-10.1-10.1
		V10.1C404.8,4.5,409.3,0,414.9,0z"/>
	<path class="st19" d="M435.5,20.2h136.6c6.6,0,12,5.4,12,12v96.7c0,6.6-5.4,12-12,12H435.5c-6.6,0-12-5.4-12-12V32.2
		C423.6,25.6,428.9,20.2,435.5,20.2z"/>
	<path class="st19" d="M612.4,48.3L612.4,48.3c4.7,0,8.6,3.8,8.6,8.6v0c0,4.7-3.8,8.6-8.6,8.6h0c-4.7,0-8.6-3.8-8.6-8.6v0
		C603.8,52.1,607.7,48.3,612.4,48.3z"/>
	<path class="st19" d="M612.4,20.2L612.4,20.2c4.7,0,8.6,3.8,8.6,8.6v0c0,4.7-3.8,8.6-8.6,8.6h0c-4.7,0-8.6-3.8-8.6-8.6v0
		C603.8,24.1,607.7,20.2,612.4,20.2z"/>
	<path class="st19" d="M423.3,118.2l44.5-44.5c1.1-1.1,3-1.1,4.1,0c0,0,0,0,0,0l19.6,19.6c1.1,1.1,3,1.1,4.1,0c0,0,0,0,0,0
		l24.7-24.7c1.1-1.1,3-1.1,4.1,0c0,0,0,0,0,0l19.6,19.6c1.1,1.1,3,1.1,4.1,0c0,0,0,0,0,0l35.6-35.6"/>
	<path class="st10" d="M359.8,464.9h352.1c5.6,0,10.1,4.5,10.1,10.1v139.4c0,5.6-4.5,10.1-10.1,10.1H359.8
		c-5.6,0-10.1-4.5-10.1-10.1V475C349.7,469.4,354.2,464.9,359.8,464.9z"/>
	<path class="st19" d="M374.4,487.7H386c1.9,0,3.4,1.5,3.4,3.4v11.6c0,1.9-1.5,3.4-3.4,3.4h-11.6c-1.9,0-3.4-1.5-3.4-3.4v-11.6
		C371,489.2,372.5,487.7,374.4,487.7z"/>
	<path class="st19" d="M408.8,487.7h11.6c1.9,0,3.4,1.5,3.4,3.4v11.6c0,1.9-1.5,3.4-3.4,3.4h-11.6c-1.9,0-3.4-1.5-3.4-3.4v-11.6
		C405.4,489.2,406.9,487.7,408.8,487.7z"/>
	<path class="st19" d="M443.2,487.7h11.6c1.9,0,3.4,1.5,3.4,3.4v11.6c0,1.9-1.5,3.4-3.4,3.4h-11.6c-1.9,0-3.4-1.5-3.4-3.4v-11.6
		C439.8,489.2,441.3,487.7,443.2,487.7z"/>
	<path class="st19" d="M477.6,487.7h11.6c1.9,0,3.4,1.5,3.4,3.4v11.6c0,1.9-1.5,3.4-3.4,3.4h-11.6c-1.9,0-3.4-1.5-3.4-3.4v-11.6
		C474.2,489.2,475.8,487.7,477.6,487.7z"/>
	<path class="st19" d="M512.1,487.7h11.6c1.9,0,3.4,1.5,3.4,3.4v11.6c0,1.9-1.5,3.4-3.4,3.4h-11.6c-1.9,0-3.4-1.5-3.4-3.4v-11.6
		C508.7,489.2,510.2,487.7,512.1,487.7z"/>
	<path class="st19" d="M546.5,487.7h11.6c1.9,0,3.4,1.5,3.4,3.4v11.6c0,1.9-1.5,3.4-3.4,3.4h-11.6c-1.9,0-3.4-1.5-3.4-3.4v-11.6
		C543.1,489.2,544.6,487.7,546.5,487.7z"/>
	<path class="st19" d="M580.9,487.7h11.6c1.9,0,3.4,1.5,3.4,3.4v11.6c0,1.9-1.5,3.4-3.4,3.4h-11.6c-1.9,0-3.4-1.5-3.4-3.4v-11.6
		C577.5,489.2,579,487.7,580.9,487.7z"/>
	<path class="st19" d="M615.3,487.7H627c1.9,0,3.4,1.5,3.4,3.4v11.6c0,1.9-1.5,3.4-3.4,3.4h-11.6c-1.9,0-3.4-1.5-3.4-3.4v-11.6
		C611.9,489.2,613.4,487.7,615.3,487.7z"/>
	<path class="st19" d="M649.8,487.7h11.6c1.9,0,3.4,1.5,3.4,3.4v11.6c0,1.9-1.5,3.4-3.4,3.4h-11.6c-1.9,0-3.4-1.5-3.4-3.4v-11.6
		C646.3,489.2,647.9,487.7,649.8,487.7z"/>
	<path class="st19" d="M684.2,487.7h11.6c1.9,0,3.4,1.5,3.4,3.4v11.6c0,1.9-1.5,3.4-3.4,3.4h-11.6c-1.9,0-3.4-1.5-3.4-3.4v-11.6
		C680.8,489.2,682.3,487.7,684.2,487.7z"/>
	<path class="st19" d="M374.4,520.6H386c1.9,0,3.4,1.5,3.4,3.4v11.6c0,1.9-1.5,3.4-3.4,3.4h-11.6c-1.9,0-3.4-1.5-3.4-3.4V524
		C371,522.1,372.5,520.6,374.4,520.6z"/>
	<path class="st19" d="M408.8,520.6h11.6c1.9,0,3.4,1.5,3.4,3.4v11.6c0,1.9-1.5,3.4-3.4,3.4h-11.6c-1.9,0-3.4-1.5-3.4-3.4V524
		C405.4,522.1,406.9,520.6,408.8,520.6z"/>
	<path class="st19" d="M443.2,520.6h11.6c1.9,0,3.4,1.5,3.4,3.4v11.6c0,1.9-1.5,3.4-3.4,3.4h-11.6c-1.9,0-3.4-1.5-3.4-3.4V524
		C439.8,522.1,441.3,520.6,443.2,520.6z"/>
	<path class="st19" d="M477.6,520.6h11.6c1.9,0,3.4,1.5,3.4,3.4v11.6c0,1.9-1.5,3.4-3.4,3.4h-11.6c-1.9,0-3.4-1.5-3.4-3.4V524
		C474.2,522.1,475.8,520.6,477.6,520.6z"/>
	<path class="st19" d="M512.1,520.6h11.6c1.9,0,3.4,1.5,3.4,3.4v11.6c0,1.9-1.5,3.4-3.4,3.4h-11.6c-1.9,0-3.4-1.5-3.4-3.4V524
		C508.7,522.1,510.2,520.6,512.1,520.6z"/>
	<path class="st19" d="M546.5,520.6h11.6c1.9,0,3.4,1.5,3.4,3.4v11.6c0,1.9-1.5,3.4-3.4,3.4h-11.6c-1.9,0-3.4-1.5-3.4-3.4V524
		C543.1,522.1,544.6,520.6,546.5,520.6z"/>
	<path class="st19" d="M580.9,520.6h11.6c1.9,0,3.4,1.5,3.4,3.4v11.6c0,1.9-1.5,3.4-3.4,3.4h-11.6c-1.9,0-3.4-1.5-3.4-3.4V524
		C577.5,522.1,579,520.6,580.9,520.6z"/>
	<path class="st19" d="M615.3,520.6H627c1.9,0,3.4,1.5,3.4,3.4v11.6c0,1.9-1.5,3.4-3.4,3.4h-11.6c-1.9,0-3.4-1.5-3.4-3.4V524
		C611.9,522.1,613.4,520.6,615.3,520.6z"/>
	<path class="st19" d="M649.8,520.6h11.6c1.9,0,3.4,1.5,3.4,3.4v11.6c0,1.9-1.5,3.4-3.4,3.4h-11.6c-1.9,0-3.4-1.5-3.4-3.4V524
		C646.3,522.1,647.9,520.6,649.8,520.6z"/>
	<path class="st19" d="M684.2,520.6h11.6c1.9,0,3.4,1.5,3.4,3.4v11.6c0,1.9-1.5,3.4-3.4,3.4h-11.6c-1.9,0-3.4-1.5-3.4-3.4V524
		C680.8,522.1,682.3,520.6,684.2,520.6z"/>
	<path class="st19" d="M443.2,553.4h11.6c1.9,0,3.4,1.5,3.4,3.4v11.6c0,1.9-1.5,3.4-3.4,3.4h-11.6c-1.9,0-3.4-1.5-3.4-3.4v-11.6
		C439.8,555,441.3,553.4,443.2,553.4z"/>
	<path class="st19" d="M477.6,553.4h11.6c1.9,0,3.4,1.5,3.4,3.4v11.6c0,1.9-1.5,3.4-3.4,3.4h-11.6c-1.9,0-3.4-1.5-3.4-3.4v-11.6
		C474.2,555,475.8,553.4,477.6,553.4z"/>
	<path class="st19" d="M512.1,553.4h11.6c1.9,0,3.4,1.5,3.4,3.4v11.6c0,1.9-1.5,3.4-3.4,3.4h-11.6c-1.9,0-3.4-1.5-3.4-3.4v-11.6
		C508.7,555,510.2,553.4,512.1,553.4z"/>
	<path class="st19" d="M546.5,553.4h11.6c1.9,0,3.4,1.5,3.4,3.4v11.6c0,1.9-1.5,3.4-3.4,3.4h-11.6c-1.9,0-3.4-1.5-3.4-3.4v-11.6
		C543.1,555,544.6,553.4,546.5,553.4z"/>
	<path class="st19" d="M580.9,553.4h11.6c1.9,0,3.4,1.5,3.4,3.4v11.6c0,1.9-1.5,3.4-3.4,3.4h-11.6c-1.9,0-3.4-1.5-3.4-3.4v-11.6
		C577.5,555,579,553.4,580.9,553.4z"/>
	<path class="st19" d="M615.3,553.4H627c1.9,0,3.4,1.5,3.4,3.4v11.6c0,1.9-1.5,3.4-3.4,3.4h-11.6c-1.9,0-3.4-1.5-3.4-3.4v-11.6
		C611.9,555,613.4,553.4,615.3,553.4z"/>
	<path class="st19" d="M374.4,586.3H386c1.9,0,3.4,1.5,3.4,3.4v11.6c0,1.9-1.5,3.4-3.4,3.4h-11.6c-1.9,0-3.4-1.5-3.4-3.4v-11.6
		C371,587.8,372.5,586.3,374.4,586.3z"/>
	<path class="st19" d="M408.8,586.3h11.6c1.9,0,3.4,1.5,3.4,3.4v11.6c0,1.9-1.5,3.4-3.4,3.4h-11.6c-1.9,0-3.4-1.5-3.4-3.4v-11.6
		C405.4,587.8,406.9,586.3,408.8,586.3z"/>
	<path class="st19" d="M649.8,586.3h11.6c1.9,0,3.4,1.5,3.4,3.4v11.6c0,1.9-1.5,3.4-3.4,3.4h-11.6c-1.9,0-3.4-1.5-3.4-3.4v-11.6
		C646.3,587.8,647.9,586.3,649.8,586.3z"/>
	<path class="st19" d="M684.2,586.3h11.6c1.9,0,3.4,1.5,3.4,3.4v11.6c0,1.9-1.5,3.4-3.4,3.4h-11.6c-1.9,0-3.4-1.5-3.4-3.4v-11.6
		C680.8,587.8,682.3,586.3,684.2,586.3z"/>
	<path class="st19" d="M443.2,586.3H627c1.9,0,3.4,1.5,3.4,3.4v11.6c0,1.9-1.5,3.4-3.4,3.4H443.2c-1.9,0-3.4-1.5-3.4-3.4v-11.6
		C439.8,587.8,441.3,586.3,443.2,586.3z"/>
	<path class="st19" d="M649.8,553.4h46.1c1.9,0,3.4,1.5,3.4,3.4v11.6c0,1.9-1.5,3.4-3.4,3.4h-46.1c-1.9,0-3.4-1.5-3.4-3.4v-11.6
		C646.3,555,647.9,553.4,649.8,553.4z"/>
	<path class="st19" d="M374.4,553.4h46.1c1.9,0,3.4,1.5,3.4,3.4v11.6c0,1.9-1.5,3.4-3.4,3.4h-46.1c-1.9,0-3.4-1.5-3.4-3.4v-11.6
		C371,555,372.5,553.4,374.4,553.4z"/>
	<path class="st10" d="M759.5,464.9h205.9c5.6,0,10.1,4.5,10.1,10.1v139.4c0,5.6-4.5,10.1-10.1,10.1H759.5
		c-5.6,0-10.1-4.5-10.1-10.1V475C749.4,469.4,753.9,464.9,759.5,464.9z"/>
	<circle class="st19" cx="934.5" cy="590.7" r="8.8"/>
	<circle class="st19" cx="861" cy="590.7" r="8.8"/>
	<circle class="st19" cx="788.9" cy="590.7" r="8.8"/>
	<circle class="st19" cx="861" cy="544" r="8.8"/>
	<circle class="st19" cx="934.5" cy="544" r="8.8"/>
	<circle class="st19" cx="934.5" cy="498.8" r="8.8"/>
	<circle class="st19" cx="788.9" cy="544" r="8.8"/>
	<path class="st20" d="M799.9,589.5H850 M872,589.5h51.5 M799.9,589.5H850 M872,542.8h51.5 M799.9,542.8h51.5 M973,590.2h-27.5
		 M779.4,590.2h-27.5 M779.4,543.6h-27.5 M973,543.6h-27.5 M872,499h51.5 M799.9,499h51.5 M779.4,499.7h-27.5 M973,499.7h-27.5"/>
	<circle class="st19" cx="861" cy="498.8" r="8.8"/>
	<circle class="st19" cx="788.9" cy="498.8" r="8.8"/>
	<path class="st19" d="M934.5,582.1c0-17.6-72.1-13-72.1-31.1 M859.6,507.1c0,15.2-70.7,11.2-70.7,26.9"/>
	<path class="st10" d="M162.4,475c0-5.6,4.5-10.1,10.1-10.1h139.4c5.6,0,10.1,4.5,10.1,10.1v139.4c0,5.6-4.5,10.1-10.1,10.1H172.5
		c-5.6,0-10.1-4.5-10.1-10.1V475z"/>
	<defs>
		<filter id="Adobe_OpacityMaskFilter_12_" filterUnits="userSpaceOnUse" x="184" y="459.9" width="116.4" height="61.4">
			<feColorMatrix  type="matrix" values="1 0 0 0 0  0 1 0 0 0  0 0 1 0 0  0 0 0 1 0"/>
		</filter>
	</defs>
	<mask maskUnits="userSpaceOnUse" x="184" y="459.9" width="116.4" height="61.4" id="l_1_">
		<path class="st38" d="M189,464.9h106.4v41.5c0,5.5-4.4,9.9-9.9,9.9h-86.6c-5.5,0-9.9-4.4-9.9-9.9V464.9L189,464.9z"/>
	</mask>
	<path class="st39" d="M189,464.9h106.4v41.5c0,5.5-4.4,9.9-9.9,9.9h-86.6c-5.5,0-9.9-4.4-9.9-9.9V464.9L189,464.9z"/>
	<defs>
		<filter id="Adobe_OpacityMaskFilter_13_" filterUnits="userSpaceOnUse" x="256.7" y="474.1" width="27.7" height="33.1">
			<feColorMatrix  type="matrix" values="1 0 0 0 0  0 1 0 0 0  0 0 1 0 0  0 0 0 1 0"/>
		</filter>
	</defs>
	<mask maskUnits="userSpaceOnUse" x="256.7" y="474.1" width="27.7" height="33.1" id="m_1_">
		<path class="st40" d="M261.7,487.9c0-4.9,4-8.9,8.9-8.9c4.9,0,8.9,4,8.9,8.9c0,0,0,0,0,0v5.3c0.1,4.9-3.9,8.9-8.8,9
			c-4.9,0.1-8.9-3.9-9-8.8c0-0.1,0-0.1,0-0.2C261.7,493.2,261.7,487.9,261.7,487.9z"/>
	</mask>
	<path class="st41" d="M261.7,487.9c0-4.9,4-8.9,8.9-8.9c4.9,0,8.9,4,8.9,8.9c0,0,0,0,0,0v5.3c0.1,4.9-3.9,8.9-8.8,9
		c-4.9,0.1-8.9-3.9-9-8.8c0-0.1,0-0.1,0-0.2C261.7,493.2,261.7,487.9,261.7,487.9z"/>
	<defs>
		<filter id="Adobe_OpacityMaskFilter_14_" filterUnits="userSpaceOnUse" x="184" y="529" width="116.4" height="77.4">
			<feColorMatrix  type="matrix" values="1 0 0 0 0  0 1 0 0 0  0 0 1 0 0  0 0 0 1 0"/>
		</filter>
	</defs>
	<mask maskUnits="userSpaceOnUse" x="184" y="529" width="116.4" height="77.4" id="n_1_">
		<path class="st42" d="M295.3,591.5c0,5.5-4.4,9.9-9.9,9.9h-86.6c-5.5,0-9.9-4.4-9.9-9.9v-47.6c0-5.5,4.4-9.9,9.9-9.9h86.6
			c5.5,0,9.9,4.4,9.9,9.9V591.5z"/>
	</mask>
	<path class="st43" d="M295.3,591.5c0,5.5-4.4,9.9-9.9,9.9h-86.6c-5.5,0-9.9-4.4-9.9-9.9v-47.6c0-5.5,4.4-9.9,9.9-9.9h86.6
		c5.5,0,9.9,4.4,9.9,9.9V591.5z"/>
	<path class="st10" d="M1805.8,464.9h193.9c5.6,0,10.1,4.5,10.1,10.1v139.4c0,5.6-4.5,10.1-10.1,10.1h-193.9
		c-5.6,0-10.1-4.5-10.1-10.1V475C1795.7,469.4,1800.2,464.9,1805.8,464.9z"/>
	<path class="st34" d="M1937.7,469.1l-69.9,25.8v124.9l69.9-25.8V469.1L1937.7,469.1z M1799.2,469.8l68.6,25.1v124.9l-68.6-25.4"/>
	<defs>
		<filter id="Adobe_OpacityMaskFilter_15_" filterUnits="userSpaceOnUse" x="1878.9" y="509.9" width="47.7" height="67.2">
			<feColorMatrix  type="matrix" values="1 0 0 0 0  0 1 0 0 0  0 0 1 0 0  0 0 0 1 0"/>
		</filter>
	</defs>
	<mask maskUnits="userSpaceOnUse" x="1878.9" y="509.9" width="47.7" height="67.2" id="o_1_">
		<path class="st44" d="M1921.6,533.8c0,8.1-11.3,28.3-16.4,37c-0.8,1.3-2.5,1.8-3.8,1c-0.4-0.2-0.8-0.6-1-1
			c-5.1-8.7-16.4-28.9-16.4-37c0-10.4,8.4-18.8,18.8-18.8C1913.1,514.9,1921.6,523.4,1921.6,533.8L1921.6,533.8z"/>
	</mask>
	<path class="st45" d="M1921.6,533.8c0,8.1-11.3,28.3-16.4,37c-0.8,1.3-2.5,1.8-3.8,1c-0.4-0.2-0.8-0.6-1-1
		c-5.1-8.7-16.4-28.9-16.4-37c0-10.4,8.4-18.8,18.8-18.8C1913.1,514.9,1921.6,523.4,1921.6,533.8L1921.6,533.8z"/>
	<path class="st10" d="M1511.2,475c0-5.6,4.5-10.1,10.1-10.1h237c5.6,0,10.1,4.5,10.1,10.1v139.4c0,5.6-4.5,10.1-10.1,10.1h-237
		c-5.6,0-10.1-4.5-10.1-10.1V475z"/>
	<path class="st20" d="M1744.6,488.7l-93.2,66.6c-6.1,4.4-14.3,4.4-20.4,0.1l-96-66.7"/>
	<path class="st10" d="M1013.4,464.9h193.9c5.6,0,10.1,4.5,10.1,10.1v139.4c0,5.6-4.5,10.1-10.1,10.1h-193.9
		c-5.6,0-10.1-4.5-10.1-10.1V475C1003.3,469.4,1007.8,464.9,1013.4,464.9z"/>
	<path class="st34" d="M1145.3,469.1l-69.9,25.8v124.9l69.9-25.8V469.1L1145.3,469.1z M1006.8,469.8l68.6,25.1v124.9l-68.6-25.4"/>
	<path class="st20" d="M1215.4,494.3l-70-25.2V594l67.2,25.6"/>
	<defs>
		<filter id="Adobe_OpacityMaskFilter_16_" filterUnits="userSpaceOnUse" x="1086.5" y="509.9" width="47.7" height="67.2">
			<feColorMatrix  type="matrix" values="1 0 0 0 0  0 1 0 0 0  0 0 1 0 0  0 0 0 1 0"/>
		</filter>
	</defs>
	<mask maskUnits="userSpaceOnUse" x="1086.5" y="509.9" width="47.7" height="67.2" id="p_1_">
		<path class="st46" d="M1129.2,533.8c0,8.1-11.3,28.3-16.4,37c-0.8,1.3-2.5,1.8-3.8,1c-0.4-0.2-0.8-0.6-1-1
			c-5.1-8.7-16.4-28.9-16.4-37c0-10.4,8.4-18.8,18.8-18.8C1120.8,514.9,1129.2,523.4,1129.2,533.8L1129.2,533.8z"/>
	</mask>
	<path class="st47" d="M1129.2,533.8c0,8.1-11.3,28.3-16.4,37c-0.8,1.3-2.5,1.8-3.8,1c-0.4-0.2-0.8-0.6-1-1
		c-5.1-8.7-16.4-28.9-16.4-37c0-10.4,8.4-18.8,18.8-18.8C1120.8,514.9,1129.2,523.4,1129.2,533.8L1129.2,533.8z"/>
	<circle class="st37" cx="1110.4" cy="534.4" r="5.4"/>
	<path class="st10" d="M1254.9,464.9H1474c5.6,0,10.1,4.5,10.1,10.1v139.4c0,5.6-4.5,10.1-10.1,10.1h-219.1
		c-5.6,0-10.1-4.5-10.1-10.1V475C1244.8,469.4,1249.3,464.9,1254.9,464.9z"/>
	<path class="st19" d="M1275.5,485.1h136.6c6.6,0,12,5.4,12,12v96.7c0,6.6-5.4,12-12,12h-136.6c-6.6,0-12-5.4-12-12v-96.7
		C1263.5,490.5,1268.9,485.1,1275.5,485.1z"/>
	<path class="st19" d="M1452.4,513.2L1452.4,513.2c4.7,0,8.6,3.8,8.6,8.6v0c0,4.7-3.8,8.6-8.6,8.6h0c-4.7,0-8.6-3.8-8.6-8.6v0
		C1443.8,517,1447.6,513.2,1452.4,513.2z"/>
	<path class="st19" d="M1452.4,485.1L1452.4,485.1c4.7,0,8.6,3.8,8.6,8.6v0c0,4.7-3.8,8.6-8.6,8.6h0c-4.7,0-8.6-3.8-8.6-8.6v0
		C1443.8,489,1447.6,485.1,1452.4,485.1z"/>
	<path class="st19" d="M1263.2,583.1l44.5-44.5c1.1-1.1,3-1.1,4.1,0l19.6,19.6c1.1,1.1,3,1.1,4.1,0l24.7-24.7c1.1-1.1,3-1.1,4.1,0
		l19.6,19.6c1.1,1.1,2.9,1.1,4.1,0c0,0,0,0,0,0l35.6-35.6"/>
	<path class="st10" d="M229.4,652.2h227.8c5.6,0,10.1,4.5,10.1,10.1v229.5c0,5.6-4.5,10.1-10.1,10.1H229.4
		c-5.6,0-10.1-4.5-10.1-10.1V662.3C219.3,656.7,223.8,652.2,229.4,652.2z"/>
	<path class="st19" d="M341.4,793.5h61c1.9,0,3.4,1.5,3.4,3.4v62.8c0,1.9-1.5,3.4-3.4,3.4h-61c-1.9,0-3.4-1.5-3.4-3.4v-62.8
		C338,795,339.5,793.5,341.4,793.5z"/>
	<path class="st19" d="M406.6,815.3h16.6c3.3,0,5.9,2.6,5.9,5.9v14.2c0,3.3-2.6,5.9-5.9,5.9h-16.6 M286.9,652.2v51.3
		c0,3.3-2.7,5.9-5.9,5.9h-58.3 M401.4,733.7v9.7c0,3.3-2.6,5.9-5.9,5.9h-47.1c-3.3,0-5.9-2.7-5.9-5.9l0,0v-9.7"/>
	<path class="st19" d="M385.8,749.4v8c0,3.3-2.7,5.9-5.9,5.9h-14.2c-3.3,0-5.9-2.6-5.9-5.9v-8"/>
	<path class="st19" d="M467.3,733.7H296.8c-5.5,0-9.9,4.4-9.9,9.9V854c0,5.5,4.4,9.9,9.9,9.9h170.5"/>
	<path class="st19" d="M252.8,819.5L252.8,819.5c5.6,0,10.2,4.6,10.2,10.2v0c0,5.6-4.6,10.2-10.2,10.2l0,0
		c-5.6,0-10.2-4.6-10.2-10.2v0C242.6,824.1,247.1,819.5,252.8,819.5z"/>
	<path class="st19" d="M252.8,781.3L252.8,781.3c5.6,0,10.2,4.6,10.2,10.2v0c0,5.6-4.6,10.2-10.2,10.2l0,0
		c-5.6,0-10.2-4.6-10.2-10.2v0C242.6,785.9,247.1,781.3,252.8,781.3z"/>
	<path class="st10" d="M1241,652.2h227.8c5.6,0,10.1,4.5,10.1,10.1v229.5c0,5.6-4.5,10.1-10.1,10.1H1241c-5.6,0-10.1-4.5-10.1-10.1
		V662.3C1230.9,656.7,1235.4,652.2,1241,652.2z"/>
	<path class="st19" d="M1353,793.5h61c1.9,0,3.4,1.5,3.4,3.4v62.8c0,1.9-1.5,3.4-3.4,3.4h-61c-1.9,0-3.4-1.5-3.4-3.4v-62.8
		C1349.6,795,1351.1,793.5,1353,793.5z"/>
	<path class="st19" d="M1418.2,815.3h16.6c3.3,0,5.9,2.7,5.9,5.9v14.2c0,3.3-2.7,5.9-5.9,5.9h-16.6 M1298.5,652.2v51.3
		c0,3.3-2.7,5.9-5.9,5.9c0,0,0,0,0,0h-58.3 M1413,733.7v9.7c0,3.3-2.7,5.9-5.9,5.9H1360c-3.3,0-5.9-2.6-5.9-5.9v-9.7"/>
	<path class="st19" d="M1397.4,749.4v8c0,3.3-2.6,5.9-5.9,5.9h-14.2c-3.3,0-5.9-2.7-5.9-5.9v-8"/>
	<path class="st19" d="M1478.9,733.7h-170.5c-5.4,0-9.9,4.4-9.9,9.9V854c0,5.5,4.4,9.9,9.9,9.9h170.5"/>
	<path class="st19" d="M1264.4,819.5L1264.4,819.5c5.6,0,10.2,4.6,10.2,10.2v0c0,5.6-4.6,10.2-10.2,10.2h0
		c-5.6,0-10.2-4.6-10.2-10.2v0C1254.2,824.1,1258.8,819.5,1264.4,819.5z"/>
	<path class="st19" d="M1264.4,781.3L1264.4,781.3c5.6,0,10.2,4.6,10.2,10.2v0c0,5.6-4.6,10.2-10.2,10.2h0
		c-5.6,0-10.2-4.6-10.2-10.2v0C1254.2,785.9,1258.8,781.3,1264.4,781.3z"/>
	<path class="st10" d="M495.4,662.3c0-5.6,4.5-10.1,10.1-10.1H676c5.6,0,10.1,4.5,10.1,10.1v229.5c0,5.6-4.5,10.1-10.1,10.1H505.5
		c-5.6,0-10.1-4.5-10.1-10.1L495.4,662.3L495.4,662.3z"/>
	<defs>
		<filter id="Adobe_OpacityMaskFilter_17_" filterUnits="userSpaceOnUse" x="560.8" y="757.7" width="62.2" height="55.4">
			<feColorMatrix  type="matrix" values="1 0 0 0 0  0 1 0 0 0  0 0 1 0 0  0 0 0 1 0"/>
		</filter>
	</defs>
	<mask maskUnits="userSpaceOnUse" x="560.8" y="757.7" width="62.2" height="55.4" id="q_1_">
		<path class="st48" d="M565.8,767c0-2.4,1.9-4.3,4.3-4.3h43.6c2.4,0,4.3,1.9,4.3,4.3v36.7c0,2.4-1.9,4.3-4.3,4.3h-43.6
			c-2.4,0-4.3-1.9-4.3-4.3V767z"/>
	</mask>
	<path class="st49" d="M565.8,767c0-2.4,1.9-4.3,4.3-4.3h43.6c2.4,0,4.3,1.9,4.3,4.3v36.7c0,2.4-1.9,4.3-4.3,4.3h-43.6
		c-2.4,0-4.3-1.9-4.3-4.3V767z"/>
	<defs>
		<filter id="Adobe_OpacityMaskFilter_18_" filterUnits="userSpaceOnUse" x="572.2" y="734" width="39.5" height="37.2">
			<feColorMatrix  type="matrix" values="1 0 0 0 0  0 1 0 0 0  0 0 1 0 0  0 0 0 1 0"/>
		</filter>
	</defs>
	<mask maskUnits="userSpaceOnUse" x="572.2" y="734" width="39.5" height="37.2" id="r_1_">
		<path class="st50" d="M606.7,766.3h-29.5v-12.5c0-8.2,6.6-14.8,14.8-14.8c8.2,0,14.8,6.6,14.8,14.8V766.3L606.7,766.3z"/>
	</mask>
	<path class="st51" d="M606.7,766.3h-29.5v-12.5c0-8.2,6.6-14.8,14.8-14.8c8.2,0,14.8,6.6,14.8,14.8V766.3L606.7,766.3z"/>
	<circle class="st19" cx="590.8" cy="777.1" r="65.6"/>
	<path class="st19" d="M646.4,777.2c0,30.5-25,55.2-56,55.2c-30.9,0-56-24.8-56-55.2c0-30.5,25-55.2,56-55.2
		C621.4,722,646.4,746.7,646.4,777.2z"/>
	<path class="st20" d="M660.9,708.5L638.5,731 M543.4,824.6L520.9,847 M659.9,849.5l-22.5-22.5 M542.3,732l-22.5-22.5"/>
	<path class="st10" d="M1644.8,662.3v229.6c0,5.6-4.5,10.1-10.1,10.1h-117.6c-5.6,0-10.1-4.5-10.1-10.1V662.3
		c0-5.6,4.5-10.1,10.1-10.1h117.6C1640.3,652.2,1644.8,656.7,1644.8,662.3z"/>
	<path class="st19" d="M1575.1,713.3L1575.1,713.3c3.9,0,7,3.1,7,7l0,0c0,3.9-3.1,7-7,7l0,0c-3.9,0-7-3.1-7-7l0,0
		C1568.1,716.4,1571.2,713.3,1575.1,713.3z"/>
	<circle class="st19" cx="1574.2" cy="721.1" r="40.6"/>
	<circle class="st19" cx="1574.2" cy="721.1" r="32"/>
	<path class="st19" d="M1575.1,825.3L1575.1,825.3c3.9,0,7,3.1,7,7l0,0c0,3.9-3.1,7-7,7l0,0c-3.9,0-7-3.1-7-7l0,0
		C1568.1,828.4,1571.2,825.3,1575.1,825.3z"/>
	<circle class="st19" cx="1574.2" cy="833.1" r="40.6"/>
	<circle class="st19" cx="1574.2" cy="833.1" r="32"/>
	<path class="st10" d="M723.4,652.2h304.9c5.6,0,10.1,4.5,10.1,10.1v229.5c0,5.6-4.5,10.1-10.1,10.1H723.4
		c-5.6,0-10.1-4.5-10.1-10.1V662.3C713.3,656.7,717.8,652.2,723.4,652.2z"/>
	<path class="st19" d="M723.1,654.7h305.4c4.1,0,7.4,3.3,7.4,7.4v230.1c0,4.1-3.3,7.4-7.4,7.4H723.1c-4.1,0-7.4-3.3-7.4-7.4V662.1
		C715.8,658,719.1,654.7,723.1,654.7z"/>
	<path class="st19" d="M741.7,673.1L741.7,673.1c3.2,0,5.8,2.6,5.8,5.8l0,0c0,3.2-2.6,5.8-5.8,5.8l0,0c-3.2,0-5.8-2.6-5.8-5.8l0,0
		C736,675.7,738.6,673.1,741.7,673.1z"/>
	<path class="st19" d="M763.8,673.1L763.8,673.1c3.2,0,5.8,2.6,5.8,5.8l0,0c0,3.2-2.6,5.8-5.8,5.8l0,0c-3.2,0-5.8-2.6-5.8-5.8l0,0
		C758,675.7,760.6,673.1,763.8,673.1z"/>
	<path class="st19" d="M785.8,673.1L785.8,673.1c3.2,0,5.8,2.6,5.8,5.8l0,0c0,3.2-2.6,5.8-5.8,5.8l0,0c-3.2,0-5.8-2.6-5.8-5.8l0,0
		C780.1,675.7,782.6,673.1,785.8,673.1z"/>
	<path class="st19" d="M743.3,717.2h40.9c4.1,0,7.4,3.3,7.4,7.4v147.4c0,4.1-3.3,7.4-7.4,7.4h-40.9c-4.1,0-7.4-3.3-7.4-7.4V724.5
		C736,720.5,739.3,717.2,743.3,717.2z"/>
	<path class="st19" d="M816.8,717.2h191.5c4.1,0,7.4,3.3,7.4,7.4v147.4c0,4.1-3.3,7.4-7.4,7.4H816.8c-4.1,0-7.4-3.3-7.4-7.4V724.5
		C809.4,720.5,812.7,717.2,816.8,717.2z"/>
	<path class="st10" d="M1203.6,662.3v229.6c0,5.6-4.5,10.1-10.1,10.1h-117.6c-5.6,0-10.1-4.5-10.1-10.1V662.3
		c0-5.6,4.5-10.1,10.1-10.1h117.6C1199,652.2,1203.6,656.7,1203.6,662.3z"/>
	<path class="st20" d="M1146.6,771.3l-24.6,41.4h24.6l-24.6,41.4 M1081.8,665.2h106.3 M1081.8,675.6h106.3 M1081.8,686h106.3
		 M1081.8,696.3h106.3 M1081.8,706.7h106.3 M1081.8,717h106.3 M1068.8,728.7h132.2"/>
	<path class="st10" d="M1672.2,662.3c0-5.6,4.5-10.1,10.1-10.1h122.1c5.6,0,10.1,4.5,10.1,10.1v229.5c0,5.6-4.5,10.1-10.1,10.1
		h-122.1c-5.6,0-10.1-4.5-10.1-10.1V662.3z"/>
	<defs>
		<filter id="Adobe_OpacityMaskFilter_19_" filterUnits="userSpaceOnUse" x="1681.2" y="661.2" width="124.3" height="228.8">
			<feColorMatrix  type="matrix" values="1 0 0 0 0  0 1 0 0 0  0 0 1 0 0  0 0 0 1 0"/>
		</filter>
	</defs>
	<mask maskUnits="userSpaceOnUse" x="1681.2" y="661.2" width="124.3" height="228.8" id="s_1_">
		<path class="st52" d="M1686.2,676.1c0-5.4,4.4-9.9,9.9-9.9h16.8c2.8,0,5.5,1.2,7.3,3.3l3.1,3.5c1.9,2.1,4.5,3.3,7.3,3.3h29.3
			c2.8,0,5.5-1.2,7.3-3.3l3.1-3.5c1.9-2.1,4.5-3.3,7.3-3.3h12.8c5.4,0,9.9,4.4,9.9,9.9v199c0,5.4-4.4,9.9-9.9,9.9h-94.5
			c-5.4,0-9.9-4.4-9.9-9.9V676.1z"/>
	</mask>
	<path class="st53" d="M1686.2,676.1c0-5.4,4.4-9.9,9.9-9.9h16.8c2.8,0,5.5,1.2,7.3,3.3l3.1,3.5c1.9,2.1,4.5,3.3,7.3,3.3h29.3
		c2.8,0,5.5-1.2,7.3-3.3l3.1-3.5c1.9-2.1,4.5-3.3,7.3-3.3h12.8c5.4,0,9.9,4.4,9.9,9.9v199c0,5.4-4.4,9.9-9.9,9.9h-94.5
		c-5.4,0-9.9-4.4-9.9-9.9V676.1z"/>
	<path class="st19" d="M1710.2,700.8h22.2c1.9,0,3.4,1.5,3.4,3.4v22.2c0,1.9-1.5,3.4-3.4,3.4h-22.2c-1.9,0-3.4-1.5-3.4-3.4v-22.2
		C1706.7,702.3,1708.3,700.8,1710.2,700.8z"/>
	<path class="st19" d="M1754.2,700.8h22.2c1.9,0,3.4,1.5,3.4,3.4v22.2c0,1.9-1.5,3.4-3.4,3.4h-22.2c-1.9,0-3.4-1.5-3.4-3.4v-22.2
		C1750.8,702.3,1752.4,700.8,1754.2,700.8z"/>
	<path class="st19" d="M1710.2,742.9h22.2c1.9,0,3.4,1.5,3.4,3.4v22.2c0,1.9-1.5,3.4-3.4,3.4h-22.2c-1.9,0-3.4-1.5-3.4-3.4v-22.2
		C1706.7,744.4,1708.3,742.9,1710.2,742.9z"/>
	<path class="st19" d="M1754.2,742.9h22.2c1.9,0,3.4,1.5,3.4,3.4v22.2c0,1.9-1.5,3.4-3.4,3.4h-22.2c-1.9,0-3.4-1.5-3.4-3.4v-22.2
		C1750.8,744.4,1752.4,742.9,1754.2,742.9z"/>
	<path class="st19" d="M1710.2,785h22.2c1.9,0,3.4,1.5,3.4,3.4v22.2c0,1.9-1.5,3.4-3.4,3.4h-22.2c-1.9,0-3.4-1.5-3.4-3.4v-22.2
		C1706.7,786.5,1708.3,785,1710.2,785z"/>
	<path class="st19" d="M1754.2,785h22.2c1.9,0,3.4,1.5,3.4,3.4v22.2c0,1.9-1.5,3.4-3.4,3.4h-22.2c-1.9,0-3.4-1.5-3.4-3.4v-22.2
		C1750.8,786.5,1752.4,785,1754.2,785z"/>
	<path class="st19" d="M1710.2,827.1h22.2c1.9,0,3.4,1.5,3.4,3.4v22.2c0,1.9-1.5,3.4-3.4,3.4h-22.2c-1.9,0-3.4-1.5-3.4-3.4v-22.2
		C1706.7,828.6,1708.3,827.1,1710.2,827.1z"/>
	<path class="st19" d="M1754.2,827.1h22.2c1.9,0,3.4,1.5,3.4,3.4v22.2c0,1.9-1.5,3.4-3.4,3.4h-22.2c-1.9,0-3.4-1.5-3.4-3.4v-22.2
		C1750.8,828.6,1752.4,827.1,1754.2,827.1z"/>
	<path class="st10" d="M1842.8,662.3c0-5.6,4.5-10.1,10.1-10.1h170.5c5.6,0,10.1,4.5,10.1,10.1v229.5c0,5.6-4.5,10.1-10.1,10.1H1853
		c-5.6,0-10.1-4.5-10.1-10.1V662.3z"/>
	<circle class="st19" cx="1938.2" cy="777.1" r="65.6"/>
	<path class="st19" d="M1993.8,777.2c0,30.5-25,55.2-56,55.2s-56-24.8-56-55.2c0-30.5,25-55.2,56-55.2S1993.8,746.7,1993.8,777.2z"
		/>
	<path class="st20" d="M1890.8,824.6l-22.4,22.4 M1889.8,732l-22.4-22.5"/>
</g>
<defs>
	<filter id="Adobe_OpacityMaskFilter_20_" filterUnits="userSpaceOnUse" x="1145.3" y="352.3" width="36.8" height="10.4">
		<feColorMatrix  type="matrix" values="1 0 0 0 0  0 1 0 0 0  0 0 1 0 0  0 0 0 1 0"/>
	</filter>
</defs>
<mask maskUnits="userSpaceOnUse" x="1145.3" y="352.3" width="36.8" height="10.4" id="e_2_">
	<path class="st54" d="M1181.6,305.1c2.4,0,4.4,1.9,4.4,4.3l0.4,43.6c0,2.4-1.9,4.3-4.3,4.4l-36.7,0.4c-2.4,0-4.4-1.9-4.4-4.3
		l-0.4-43.6c0-2.4,1.9-4.4,4.3-4.4L1181.6,305.1z"/>
</mask>
<path class="st55" d="M1182.1,357.3l-36.7,0.4"/>
<line class="st20" x1="2010.2" y1="708.1" x2="1987.8" y2="730.5"/>
<line class="st20" x1="2009.7" y1="845.4" x2="1987.2" y2="822.9"/>
</svg>
